<svg width="40" height="41" viewBox="0 0 40 41" fill="none" xmlns="http://www.w3.org/2000/svg">
<path d="M35.6239 1.07706C35.5104 1.29747 35.4203 1.32435 35.2285 1.18996L35.0641 1.07169L35.0915 1.21146C35.1072 1.30823 35.0994 1.35123 35.0681 1.35123C35.0211 1.35123 34.5866 1.20071 34.34 1.10394C34.2774 1.07706 34.1873 1.11469 34.0543 1.21684L33.8546 1.36198L32.9035 1.37811C32.3789 1.38886 31.9288 1.41037 31.9014 1.43725C31.8701 1.45875 31.6665 1.47488 31.4395 1.46413C31.2164 1.45875 30.868 1.48563 30.6684 1.51788C30.3827 1.57164 30.2339 1.57164 29.9795 1.51788C29.7368 1.4695 29.5685 1.4695 29.3023 1.51251C29.1105 1.54477 28.7426 1.59315 28.4842 1.62003C28.2298 1.64691 27.9127 1.71142 27.7875 1.7598C27.5957 1.83506 27.5291 1.84044 27.4274 1.79205C27.2591 1.70604 26.6171 1.71142 26.1122 1.80281C25.5798 1.89957 24.0767 1.86732 23.4505 1.74905C23.0825 1.67916 22.9299 1.67379 22.6089 1.72217C21.9944 1.81356 19.8141 1.87269 16.1973 1.90495L14.5572 1.9157L14.4907 1.79205L14.4241 1.66303L14.291 1.76517C14.1658 1.86194 14.0992 1.86732 13.5082 1.82969C13.152 1.81356 12.7527 1.76517 12.6157 1.72755C12.4044 1.66841 12.2987 1.67379 11.9112 1.74905C11.5784 1.81894 11.4062 1.82969 11.2888 1.79205C11.0344 1.71142 9.53519 1.77593 9.30425 1.8727C9.00676 2.00172 7.84031 1.93183 7.61719 1.77055C7.45279 1.65766 7.26099 1.6254 7.08094 1.68991C6.99091 1.72217 6.97525 1.71142 6.95176 1.57164C6.94002 1.491 6.88131 1.35661 6.82259 1.28135L6.71299 1.1362L6.42334 1.30285C6.18848 1.43725 6.10628 1.46413 5.97711 1.43187C5.88708 1.41037 5.75008 1.39962 5.66788 1.39962C5.58177 1.40499 5.46042 1.37811 5.38997 1.34586C5.28819 1.29747 5.21382 1.30285 5.01028 1.36736C4.87328 1.41037 4.658 1.46413 4.53274 1.48563C4.33311 1.51789 4.29005 1.50713 4.21568 1.41037C4.16871 1.34586 4.07085 1.29747 3.97691 1.2921C3.84774 1.28135 3.79685 1.30823 3.68334 1.448C3.49545 1.68454 3.33105 1.74905 3.02183 1.70604C2.55603 1.63615 2.57951 1.63078 2.53645 1.80818C2.47383 2.0716 2.4386 2.10386 2.25071 2.06622C2.14503 2.0501 2.01194 2.06085 1.918 2.10386C1.76534 2.17374 1.76143 2.17374 1.62443 1.99096C1.55006 1.8942 1.4796 1.75443 1.46394 1.68454L1.44046 1.55552L1.34651 1.72217C1.26823 1.86194 1.22126 1.88882 1.09208 1.88882C0.947256 1.88882 0.935513 1.89957 0.958999 2.00709C1.04511 2.39415 1.03337 2.56618 0.884628 3.01776C0.743714 3.44783 0.739799 3.48546 0.708485 4.32948C0.688914 4.81868 0.649771 5.35089 0.610628 5.5498C0.551914 5.87773 0.547999 5.92073 0.606714 6.07664C0.657599 6.21103 0.661514 6.25941 0.622371 6.34543C0.583228 6.43144 0.587142 6.47983 0.630199 6.58735C0.669342 6.69486 0.673256 6.77013 0.638028 6.92065C0.602799 7.08193 0.606714 7.15719 0.673257 7.3776C0.810256 7.86143 0.759371 8.09797 0.407085 8.5818C0.277914 8.7592 0.133086 9.01187 0.0861142 9.13552L0 9.36668L0.0782856 9.6731C0.125257 9.83975 0.203543 10.3182 0.258343 10.7268C0.317057 11.1945 0.3836 11.517 0.422742 11.5869C0.461885 11.6514 0.583228 11.8396 0.696742 12.0062C0.810256 12.1729 0.919856 12.3664 0.935513 12.4363C0.958999 12.5116 0.947256 12.8126 0.912028 13.2051C0.868971 13.7104 0.865056 13.9362 0.896371 14.2534C0.935513 14.6189 0.931599 14.6673 0.865056 14.8017C0.794599 14.9307 0.794599 14.9576 0.845485 15.0974C0.912028 15.2748 0.927685 16.4736 0.868971 16.8499C0.849399 16.9736 0.814171 17.2101 0.786771 17.3767C0.763285 17.5434 0.712399 17.7208 0.669342 17.7746C0.602799 17.8606 0.598885 17.8767 0.653685 17.9896C0.708485 18.1079 0.704571 18.1401 0.571485 18.4949C0.422742 18.9089 0.317057 19.3873 0.317057 19.6669C0.317057 19.8712 0.645856 20.5861 0.810256 20.7421C0.868971 20.7958 0.974656 20.9141 1.05294 21.0055C1.17037 21.1506 1.18603 21.1882 1.14688 21.2581C1.11948 21.3011 1.01771 21.3549 0.919856 21.3764C0.775028 21.4033 0.728056 21.4463 0.649771 21.6076C0.524514 21.871 0.407085 22.3494 0.391428 22.672C0.375771 22.9247 0.379685 22.9354 0.4932 22.9623C0.602799 22.9892 0.610628 23.0107 0.634114 23.2633C0.649771 23.4139 0.708485 23.688 0.767199 23.8708C0.868971 24.1719 0.872885 24.2256 0.837656 24.4837C0.786771 24.8331 0.802428 27.0587 0.861142 27.5049C0.880713 27.6823 0.896371 28.0909 0.892456 28.4188C0.888542 28.9134 0.900285 29.0478 0.970742 29.2575C1.0412 29.4779 1.04511 29.5155 0.994228 29.6445C0.966828 29.7252 0.927685 29.9509 0.908113 30.1445C0.876799 30.5208 0.919856 31.639 0.982485 32.0637C1.03728 32.4292 1.02946 32.6496 0.958999 32.7894C0.904199 32.9023 0.904199 32.9399 0.962913 33.2679C1.02554 33.6012 1.02554 33.6657 0.962913 34.2516C0.896371 34.8591 0.888542 34.8806 0.782856 34.9344C0.677171 34.9935 0.626285 35.1118 0.704571 35.1118C0.724142 35.1118 0.771114 35.1494 0.802428 35.1978C0.857228 35.2731 0.857228 35.2946 0.806342 35.4343C0.735885 35.6225 0.731971 35.9128 0.794599 36.1063C0.829828 36.2138 0.825913 36.273 0.786771 36.3751C0.747628 36.4826 0.747628 36.5364 0.786771 36.6708C0.829828 36.8052 0.825913 36.859 0.786771 36.9718C0.743714 37.0794 0.743713 37.1546 0.778942 37.3589C0.806342 37.4987 0.845485 37.7944 0.865056 38.0148C0.884628 38.2352 0.939428 38.5739 0.982485 38.7566C1.02554 38.9555 1.06077 39.262 1.06468 39.4824C1.0686 39.6974 1.08034 40.0146 1.096 40.192L1.11948 40.5146L1.51091 40.5199C1.82014 40.5199 1.9454 40.5468 2.1098 40.6382C2.31334 40.7565 2.34857 40.7565 4.51708 40.7618C7.06136 40.7672 7.12399 40.7672 7.28839 40.7027C7.36668 40.6705 7.44105 40.6705 7.48802 40.7081C7.59762 40.7887 9.64479 40.778 9.75439 40.7027C9.8131 40.6543 9.88356 40.6597 10.0323 40.7081C10.2006 40.7672 10.2515 40.7672 10.4002 40.692C10.5412 40.6221 10.5999 40.6167 10.6938 40.6651C10.7917 40.7188 10.8347 40.7081 10.9756 40.6006C11.0813 40.5199 11.187 40.4823 11.277 40.4984C11.3945 40.5146 11.4219 40.5414 11.4571 40.7027C11.508 40.9124 11.5824 40.9554 11.7115 40.8586C11.8368 40.7726 14.9643 40.735 15.4497 40.821C15.7589 40.8747 15.8333 40.8694 16.0094 40.7887C16.1464 40.7296 16.2325 40.7135 16.2795 40.7511C16.3852 40.8317 16.5848 40.8425 16.9684 40.7887C17.2033 40.7565 17.489 40.7672 17.8609 40.8156C18.4637 40.8909 18.9021 40.8479 19.2935 40.6705C19.4696 40.5898 19.5127 40.5898 19.5949 40.6489C19.6732 40.7081 20.0098 40.7242 21.1332 40.7242C22.331 40.7242 22.6245 40.7081 22.8985 40.6328C23.0786 40.5844 23.2978 40.5414 23.3878 40.5414C23.5561 40.5414 23.8223 40.6812 23.9789 40.8532C24.0572 40.9392 24.1081 40.9446 24.4134 40.907C24.6052 40.8801 25.7521 40.8532 26.9616 40.8479L29.1614 40.8371L29.271 40.692L29.3845 40.5414L29.4667 40.6597C29.5489 40.7726 29.5763 40.7726 31.326 40.7941C32.3007 40.8049 33.3301 40.8156 33.608 40.821C33.9916 40.8264 34.1756 40.8049 34.3517 40.735C34.7314 40.5791 34.8254 40.5737 35.0289 40.692C35.3577 40.8855 35.6474 40.9231 36.2228 40.8317C36.5555 40.7833 36.8804 40.7672 37.1309 40.7887C37.4675 40.8156 37.5497 40.8049 37.718 40.7135C37.8433 40.6489 37.9411 40.6221 37.992 40.6543C38.0351 40.6758 38.1368 40.6973 38.219 40.6973L38.3717 40.7027L38.1877 40.4232C38.086 40.2673 37.9881 40.0845 37.9685 40.0146C37.8863 39.7135 37.949 39.3964 38.1447 39.1491C38.2738 38.9824 38.3091 39.0308 38.2543 39.2996C38.1094 39.9608 38.2817 40.407 38.7553 40.5737C39.1154 40.7027 39.3503 40.6489 39.5421 40.3855C39.726 40.1329 39.7848 39.8426 39.7652 39.2512C39.7534 38.8373 39.7378 38.7513 39.6282 38.504C39.4716 38.1599 39.4677 38.0954 39.6125 37.9879C39.8239 37.8427 39.8591 37.2299 39.7495 35.6924C39.6752 34.6065 39.6947 34.2248 39.8787 33.4721C39.9883 32.9991 40.0157 32.8324 39.9922 32.6711C39.957 32.4077 39.9061 32.4776 39.863 32.8485C39.82 33.241 39.7534 33.2571 39.7182 32.8808C39.6947 32.5797 39.7143 32.3378 39.7808 32.2249C39.8004 32.1873 39.7965 31.9346 39.7691 31.5798C39.7104 30.838 39.7065 29.8918 39.7613 27.6393C39.7965 26.1663 39.7926 25.7094 39.7495 25.1395C39.7221 24.7525 39.6947 24.2471 39.6947 24.0106C39.6947 23.6827 39.6752 23.5375 39.6204 23.4139C39.546 23.2526 39.546 23.2418 39.6204 22.9569C39.6752 22.7257 39.6908 22.5053 39.6947 21.8925V21.1237L39.8122 20.9356C39.9374 20.742 39.9726 20.5646 39.8709 20.6184C39.8396 20.6345 39.7887 20.6668 39.7574 20.6829C39.7026 20.7098 39.6908 20.6023 39.6321 19.6561C39.6164 19.3443 39.6243 19.2476 39.6908 19.0701C39.7613 18.8874 39.7652 18.8336 39.7221 18.5594C39.6947 18.3713 39.6752 17.7584 39.6791 16.9198V15.5866L39.8043 15.4414C39.9531 15.2801 39.9687 15.1296 39.8435 15.135C39.7613 15.1404 39.7534 15.1027 39.6869 14.334C39.636 13.7426 39.6164 13.2158 39.6243 12.3718C39.6321 11.1246 39.5851 7.47437 39.5538 7.28083C39.546 7.21632 39.4912 7.0873 39.4364 6.99591L39.3307 6.82926L39.4599 6.68411L39.5851 6.53896L39.5538 6.16265C39.5342 5.95299 39.5147 5.8401 39.5068 5.90461C39.4794 6.14114 39.4207 6.02288 39.4207 5.73258C39.4207 5.5713 39.4403 5.4369 39.4599 5.4369C39.4834 5.4369 39.5029 5.47991 39.5029 5.5283C39.5186 5.8186 39.5734 5.04984 39.5734 4.523C39.5773 3.64136 39.5225 2.964 39.4246 2.71133C39.3385 2.47479 39.0998 2.15762 39.0097 2.15762C38.9784 2.15762 38.908 2.06623 38.8571 1.95871C38.6418 1.52864 38.2778 1.34586 37.7963 1.43187C37.6006 1.46413 37.5693 1.45337 37.4597 1.32973C37.2835 1.12545 37.17 1.10394 36.9078 1.23296C36.7003 1.33511 36.6651 1.34048 36.5946 1.2706C36.5359 1.21684 36.4459 1.20609 36.2737 1.22759C36.0466 1.25447 36.031 1.24909 35.9214 1.08781C35.7765 0.878155 35.7296 0.878155 35.6239 1.07706ZM36.2345 2.46404C36.1327 2.60919 35.9449 2.92636 35.8157 3.17903C35.4908 3.82951 35.3773 3.96391 35.115 4.00692C34.9937 4.02305 34.8567 4.08218 34.7941 4.14669C34.6884 4.25421 34.6845 4.25421 34.6845 4.15207C34.6845 3.94778 34.8723 3.72738 35.2051 3.55534C35.3812 3.45858 35.5378 3.35644 35.5495 3.32418C35.5652 3.2973 35.5965 3.13065 35.62 2.95862C35.6552 2.71671 35.6943 2.61457 35.7922 2.50167C35.9566 2.31351 36.121 2.21675 36.2893 2.21137H36.4224L36.2345 2.46404ZM8.81105 2.45329C8.81105 2.4963 8.77582 2.53393 8.73276 2.53393C8.65448 2.53393 8.63099 2.47479 8.68188 2.41028C8.72885 2.3404 8.81105 2.37265 8.81105 2.45329ZM39.1037 2.61457C39.182 2.64682 39.1937 2.6737 39.1741 2.84573C39.1389 3.13603 39.088 3.16828 38.951 2.99088C38.7944 2.78659 38.7905 2.4963 38.9471 2.55543C38.9823 2.56618 39.0528 2.59306 39.1037 2.61457ZM33.3458 2.89949C33.3536 2.93712 33.334 2.964 33.2988 2.964C33.2636 2.964 33.2362 2.92637 33.2362 2.87798C33.2362 2.78659 33.3223 2.80272 33.3458 2.89949ZM7.12791 3.0984C7.15531 3.1414 7.16705 3.21667 7.15139 3.25967C7.12399 3.36719 6.81868 3.36719 6.63471 3.25967C6.45074 3.15216 6.49771 3.05001 6.71299 3.08764C6.80302 3.10377 6.90088 3.0984 6.93219 3.07152C7.01439 2.99625 7.07311 3.007 7.12791 3.0984ZM1.25648 9.93114C1.25648 10.0172 1.233 10.1408 1.20168 10.1946C1.1508 10.2913 1.14688 10.2913 1.1234 10.1784C1.096 10.0655 1.1234 9.76987 1.16646 9.66235C1.20168 9.58709 1.25648 9.75374 1.25648 9.93114ZM1.96106 19.4088C1.96106 19.5325 1.89843 19.6024 1.8632 19.5217C1.82797 19.4465 1.86711 19.3067 1.92191 19.3067C1.94148 19.3067 1.96106 19.3551 1.96106 19.4088ZM39.5382 33.0044C39.5382 33.1173 39.4677 33.2302 39.3933 33.2302C39.3229 33.2302 39.3307 33.0958 39.4051 32.9937C39.4873 32.8808 39.5382 32.8862 39.5382 33.0044ZM34.4457 38.6061C34.4848 38.633 34.5435 38.7136 34.5788 38.7835C34.6336 38.9018 34.6336 38.9448 34.5475 39.3372C34.43 39.8909 34.3831 40.0576 34.3361 40.0576C34.2108 40.0576 34.0582 39.977 34.0582 39.9125C34.0582 39.8748 34.0934 39.7404 34.1365 39.6222C34.203 39.4448 34.2147 39.3534 34.1913 39.0953C34.1678 38.8158 34.1756 38.7674 34.25 38.6652C34.3439 38.5362 34.3517 38.5362 34.4457 38.6061ZM39.1937 38.7029L39.2994 38.7996L39.0332 38.7781C38.8532 38.762 38.724 38.7835 38.6222 38.8427C38.4343 38.9502 38.3678 38.9555 38.4422 38.8534C38.6261 38.6007 39.0019 38.5255 39.1937 38.7029ZM32.4142 38.8588C32.4142 38.9878 32.375 39.0631 32.2693 39.1383C32.1871 39.1975 32.1793 39.1921 32.1793 39.0416C32.1793 38.9448 32.2067 38.8588 32.2498 38.8265C32.3515 38.7405 32.4142 38.7566 32.4142 38.8588ZM33.6119 39.2351C33.5454 39.4179 33.4397 39.5523 33.4045 39.5039C33.3771 39.4609 33.4984 39.1975 33.5845 39.1061C33.6746 39.0201 33.6824 39.0577 33.6119 39.2351ZM22.9612 39.9071C22.9259 40.0684 22.8163 40.2834 22.7655 40.2888C22.6833 40.2941 22.7067 40.1221 22.8046 39.9555C22.9259 39.7619 22.9964 39.7404 22.9612 39.9071ZM29.2632 40.1597C29.2045 40.3156 29.0792 40.3855 29.0322 40.2834C29.0087 40.2243 29.1849 39.8587 29.2514 39.8264C29.3297 39.7942 29.3336 39.977 29.2632 40.1597ZM19.4188 39.8963C19.4657 39.934 19.4657 39.9608 19.4305 40.0092C19.3953 40.0576 19.3679 40.0576 19.3248 40.0038C19.223 39.8909 19.3052 39.7942 19.4188 39.8963ZM39.4051 40.063C39.3738 40.278 39.1859 40.493 39.1859 40.3156C39.1859 40.2511 39.3738 39.8963 39.409 39.8963C39.4207 39.8963 39.4207 39.9716 39.4051 40.063ZM26.3862 40.1597C26.3431 40.278 26.2883 40.3049 26.2531 40.2296C26.2296 40.1705 26.2766 40.0791 26.347 40.0469C26.4292 40.0092 26.4371 40.0307 26.3862 40.1597Z" fill="black"/>
<g clip-path="url(#clip0_1077_2)">
<path d="M19.6016 8.92577C19.0977 9.12498 18.3594 9.74998 16.9727 11.1289C15.0898 13.0078 14.2187 13.6992 12.9062 14.3555C12.2344 14.6914 11.5234 15.1211 11.5234 15.1875C11.5234 15.3047 12.3242 15.0976 13.3398 14.7187C13.9883 14.4765 15.0742 14.0351 16.0547 13.6172C16.6406 13.3672 17.457 12.9453 17.3945 12.9258C17.375 12.918 16.9961 12.9922 16.5547 13.0898C16.1133 13.1875 15.7266 13.2656 15.6992 13.2656C15.5781 13.2656 16.6367 12.4062 17.4023 11.8867C17.6719 11.707 18.0625 11.3867 18.3203 11.1406C18.8906 10.5976 19.2344 10.3359 19.3789 10.3359C19.5898 10.3359 19.75 10.664 19.9727 11.5469L20.0273 11.7617L20.0742 11.5859C20.2227 11.0273 20.3242 10.6914 20.3828 10.5742C20.4727 10.3906 20.625 10.2851 20.7461 10.3164C20.8867 10.3515 21.2891 10.664 21.793 11.1367C22.0391 11.3672 22.4258 11.6797 22.6523 11.832C23.4023 12.332 24.4922 13.1992 24.4375 13.2539C24.4219 13.2734 23.6211 13.1133 22.9961 12.9648C22.8516 12.9336 22.7227 12.914 22.7109 12.9258C22.6445 12.9883 25.4727 14.2344 26.7969 14.7226C27.5078 14.9883 28.1484 15.1758 28.418 15.207C28.6406 15.2305 28.6484 15.2265 28.5937 15.1601C28.4922 15.0351 28.0078 14.7461 27.3437 14.414C26.0977 13.789 25.2227 13.1055 23.3789 11.3125C21.9102 9.8828 21.1758 9.2578 20.6484 8.99217C20.3437 8.83592 19.8906 8.80858 19.6016 8.92577Z" fill="white"/>
<path d="M14.8047 9.51562C14.8047 9.53516 14.832 9.55469 14.8633 9.55469C14.8945 9.55469 14.9219 9.53516 14.9219 9.51562C14.9219 9.49219 14.8945 9.47656 14.8633 9.47656C14.832 9.47656 14.8047 9.49219 14.8047 9.51562Z" fill="white"/>
<path d="M31.6562 10.7852C31.6328 10.8438 31.6992 10.9609 31.7539 10.9609C31.8281 10.9609 31.918 10.8555 31.8906 10.793C31.8594 10.7109 31.6875 10.7031 31.6562 10.7852Z" fill="white"/>
<path d="M14.1133 10.8674C14.0547 11.0197 14.2617 11.1291 14.3477 10.9924C14.3789 10.9455 14.375 10.9104 14.3398 10.8674C14.2734 10.7854 14.1445 10.7893 14.1133 10.8674Z" fill="white"/>
<path d="M30.6289 11.367C30.5977 11.406 30.6016 11.4334 30.6406 11.4685C30.707 11.5193 30.7812 11.492 30.7812 11.4099C30.7812 11.3357 30.6758 11.3084 30.6289 11.367Z" fill="white"/>
<path d="M12.5586 11.5078C12.5703 11.5273 12.5977 11.5469 12.6211 11.5469C12.6406 11.5469 12.6562 11.5273 12.6562 11.5078C12.6562 11.4844 12.6289 11.4688 12.5937 11.4688C12.5625 11.4688 12.5469 11.4844 12.5586 11.5078Z" fill="white"/>
<path d="M26.0547 12.1836C26.8125 12.9297 27.6992 13.6445 29.1992 14.7188C29.457 14.9023 29.75 15.125 29.8516 15.2148C30.0703 15.4062 30.2109 15.6719 30.1719 15.8203C30.1133 16.0586 29.5039 16.2031 28.8945 16.125C28.3359 16.0547 28.082 15.9531 26.2187 15.0664C24.625 14.3086 24.1328 14.1445 23.5742 14.1758C23.1445 14.1992 22.75 14.3398 22.0898 14.707C20.9492 15.3438 20.6562 15.457 20.0977 15.457C19.9062 15.4609 19.6602 15.4375 19.5508 15.4141C19.2852 15.3477 18.8086 15.1211 18.1094 14.7305C17.2969 14.2773 17.0156 14.1875 16.4648 14.1875C15.8359 14.1914 15.5977 14.2734 13.75 15.1484C11.8242 16.0625 11.6328 16.1289 10.8984 16.1328C10.4453 16.1367 10.3945 16.1289 10.1875 16.0312C9.96875 15.9297 9.96094 15.9219 9.96094 15.7773C9.96094 15.4609 10.0625 15.3711 11.5469 14.3516C12.6992 13.5586 13.1016 13.2617 13.6602 12.7773C14.1367 12.3672 14.793 11.7148 14.7617 11.6875C14.75 11.6758 14.6445 11.7227 14.5273 11.7969C14.4102 11.8672 13.7969 12.2344 13.1641 12.6094C10.7891 14.0234 9.26172 14.9922 8.82031 15.3711C8.66406 15.5039 8.66406 15.5078 8.68359 15.7227C8.69531 15.8438 8.78906 16.3203 8.89844 16.7812C9.0039 17.2422 9.11328 17.7383 9.14062 17.8867C9.22656 18.3672 9.30078 18.3008 9.5 17.5391C9.58203 17.2227 9.66797 16.9414 9.6914 16.9102C9.77344 16.8164 9.93359 16.8594 10.7187 17.1953C11.5039 17.5312 11.6406 17.6016 11.5117 17.6016C11.4531 17.6016 11.4453 17.625 11.4687 17.7461C11.8398 19.8984 12.2969 21.3203 13.2422 23.2422C13.6211 24.0117 13.9453 24.5586 14.3398 25.0898C14.6289 25.4805 15.1016 25.9883 15.1406 25.9492C15.1523 25.9375 15.0625 25.707 14.9453 25.4336C14.6406 24.7461 14.5586 24.4297 14.5625 23.9688C14.5664 23.3633 14.7578 22.7891 15.1602 22.1758C15.3086 21.9531 15.3437 21.9727 15.3477 22.2773C15.3516 22.5391 15.4648 23.3242 15.5625 23.8125C15.7734 24.8281 16.418 26.4961 16.9922 27.5156C17.1016 27.7148 17.2031 27.8711 17.2148 27.8594C17.2266 27.8516 17.2148 27.5664 17.1914 27.2266C17.1367 26.4492 17.1367 26.0078 17.1914 25.625C17.3047 24.793 17.5937 24.0859 18.0156 23.582C18.2656 23.2852 18.3867 23.1914 18.3437 23.3281C18.207 23.7812 18.1328 25 18.1992 25.7461C18.3203 27.0938 18.7695 28.4648 19.2734 29.0273L19.4492 29.2227L19.4531 28.6211C19.4531 27.9531 19.5273 27.375 19.6719 26.8672C19.7734 26.5156 19.9922 26 20.0391 26C20.082 26 20.2969 26.4922 20.4023 26.8398C20.5508 27.3242 20.625 27.832 20.6523 28.5508L20.6758 29.207L20.7734 29.1172C21.0039 28.9023 21.3164 28.3516 21.5 27.8359C21.8125 26.9727 21.9297 26.2109 21.9297 25.0625C21.9297 24.2188 21.9141 24.0078 21.7734 23.3438C21.7578 23.2656 21.8125 23.3086 22.0312 23.5352C22.5 24.0234 22.7891 24.7188 22.8945 25.6172C22.9375 25.9961 22.9336 26.4062 22.8672 27.5234L22.8477 27.8945L22.9883 27.6797C23.3047 27.1992 24.0078 25.5898 24.3086 24.6523C24.5234 23.9805 24.7656 22.6562 24.7656 22.1484C24.7656 22.0547 24.7773 21.9766 24.7969 21.9766C24.8437 21.9766 25.1016 22.4023 25.2695 22.7578C25.4805 23.1992 25.5586 23.5195 25.5586 23.9492C25.5547 24.418 25.4727 24.7383 25.1758 25.3828C25.0391 25.6797 24.9453 25.9219 24.9687 25.9219C25.0977 25.9219 25.8125 25.0469 26.2187 24.3906C26.4609 24 27.1406 22.6289 27.4141 21.9805C27.9141 20.8047 28.2969 19.5078 28.5352 18.2148C28.6523 17.5625 28.6523 17.5469 28.5664 17.582C28.5195 17.5977 28.5078 17.5938 28.5352 17.5664C28.6055 17.4961 30.1484 16.8594 30.25 16.8594C30.375 16.8594 30.4531 17.0039 30.6172 17.5273C30.7539 17.9727 30.8516 18.1719 30.9023 18.1211C30.9219 18.1016 31.0078 17.7617 31.0937 17.3633C31.4141 15.8477 31.4648 15.6484 31.5117 15.6484C31.6133 15.6484 31.5547 15.5664 31.3008 15.3516C30.7187 14.8711 29.25 13.9062 26.9141 12.4766C26.3867 12.1523 25.8633 11.832 25.7539 11.7578C25.6406 11.6836 25.5352 11.625 25.5195 11.625C25.5 11.625 25.7422 11.8789 26.0547 12.1836ZM17.168 14.8672C17.5391 14.9609 17.6875 15.0469 18.1445 15.4297C18.3398 15.5938 18.625 15.793 18.7852 15.8711L19.0742 16.0195H20.0586H21.043L21.3711 15.8555C21.5547 15.7617 21.8477 15.5664 22.0312 15.4102C22.4375 15.0703 22.7266 14.918 23.1133 14.8438C23.4844 14.7734 23.7734 14.7734 24.1836 14.8477C24.5977 14.918 24.8672 15.0117 25.3867 15.2617C25.9141 15.5117 26.2461 15.7188 26.9727 16.2461C27.2969 16.4805 27.6758 16.7305 27.8242 16.8008L28.0859 16.9297L27.875 17.1797C27.7578 17.3125 27.5937 17.5469 27.5078 17.6953L27.3516 17.9609L27.3047 17.8125C27.1914 17.457 26.918 16.9453 26.7383 16.75C26.5664 16.5586 26.2578 16.3242 26.0195 16.1992C25.918 16.1406 25.9219 16.1602 26.0781 16.3711C26.418 16.8359 26.6641 17.7578 26.6367 18.4648C26.6211 18.7539 26.6016 18.832 26.4727 19.0898C26.2969 19.4414 26.1445 19.6328 26.1016 19.5664C26.082 19.5391 26.0195 19.2734 25.9609 18.9805C25.7969 18.1523 25.5352 17.4531 25.1758 16.875C24.9648 16.5391 24.6133 16.1016 24.5781 16.1328C24.5664 16.1445 24.543 16.4805 24.5273 16.875C24.4844 17.9531 24.3477 18.5547 23.9805 19.2891C23.7852 19.6797 23.4766 20.1953 23.4531 20.168C23.4453 20.1602 23.457 19.9375 23.4766 19.668C23.5547 18.6484 23.5039 17.4492 23.3594 16.875C23.2695 16.5312 23.0937 16.1758 23.0078 16.1758C22.9375 16.1758 22.7891 16.6016 22.6211 17.3047C22.5 17.8047 22.0625 18.9844 21.8125 19.4766C21.6016 19.8945 21.3711 20.1953 20.9883 20.543L20.8711 20.6523L20.9805 20.2227C21.1406 19.6016 21.1875 19.0273 21.1602 17.9531C21.1406 17.0312 21.1094 16.8203 20.9961 16.8203C20.9609 16.8203 20.8516 16.8984 20.75 16.9922C20.4023 17.3125 20.2422 17.4062 20.0391 17.4062C19.8281 17.4062 19.6758 17.3164 19.3477 17.0117C19.2383 16.9062 19.1289 16.8203 19.1055 16.8203C19.082 16.8203 19.0312 16.8672 18.9961 16.9258C18.9336 17.0234 18.9258 17.1484 18.9258 18.2656C18.9258 19.5586 18.9492 19.8125 19.1367 20.4141C19.1797 20.543 19.1953 20.6484 19.1797 20.6484C19.1133 20.6484 18.582 20.0312 18.4297 19.7812C18.0898 19.2109 17.5937 17.8945 17.4023 17.0547C17.2578 16.4297 17.1602 16.1445 17.0937 16.168C17.0195 16.1914 16.8437 16.5547 16.7617 16.8594C16.6211 17.3867 16.5937 17.7852 16.6055 19.0078L16.6211 20.168L16.457 19.9258C16.2305 19.5859 15.9258 18.9688 15.8047 18.5977C15.6523 18.125 15.582 17.6484 15.5625 16.957C15.543 16.3008 15.5273 16.1562 15.4766 16.1562C15.4062 16.1562 14.918 16.8594 14.7539 17.1914C14.4258 17.8555 14.2617 18.3711 14.0625 19.3672C14.0391 19.4922 14.0078 19.5938 13.9922 19.5938C13.9453 19.5898 13.7227 19.2734 13.6211 19.0664C13.4727 18.7695 13.4336 18.4805 13.4766 18.0391C13.5547 17.3164 13.7266 16.7734 14.0078 16.3828C14.082 16.2734 14.1406 16.1797 14.1328 16.1758C14.125 16.168 13.9922 16.2461 13.8398 16.3555C13.3437 16.6992 13.1172 17.0195 12.8906 17.6953L12.7852 18.0039L12.6406 17.7344C12.5625 17.5859 12.4023 17.3516 12.2852 17.2109C12.168 17.0742 12.0703 16.9492 12.0703 16.9336C12.0703 16.9219 12.1484 16.8789 12.2461 16.8438C12.3437 16.8047 12.6094 16.6406 12.8398 16.4766C14.082 15.5977 14.7656 15.2031 15.4297 14.9844C16.0469 14.7773 16.6562 14.7383 17.168 14.8672Z" fill="white"/>
<path d="M11.9531 11.7422C11.8594 11.8359 11.8555 11.8906 11.9375 12.0078C12.0078 12.1094 12.1328 12.1172 12.2578 12.0312C12.3516 11.9688 12.3672 11.8594 12.3047 11.7383C12.25 11.6406 12.0547 11.6406 11.9531 11.7422Z" fill="white"/>
<path d="M10.1719 12.0194C10.1406 12.0741 10.2148 12.1483 10.2695 12.1171C10.332 12.078 10.3203 11.9765 10.2578 11.9765C10.2266 11.9765 10.1875 11.996 10.1719 12.0194Z" fill="white"/>
<path d="M9.02343 12.4062C9.02343 12.4258 9.05077 12.4453 9.08202 12.4453C9.11327 12.4453 9.14062 12.4258 9.14062 12.4062C9.14062 12.3828 9.11327 12.3672 9.08202 12.3672C9.05077 12.3672 9.02343 12.3828 9.02343 12.4062Z" fill="white"/>
<path d="M9.92188 12.5234C9.92188 12.543 9.94141 12.5625 9.96094 12.5625C9.98438 12.5625 10 12.543 10 12.5234C10 12.5 9.98438 12.4844 9.96094 12.4844C9.94141 12.4844 9.92188 12.5 9.92188 12.5234Z" fill="white"/>
<path d="M11.1328 12.5625C11.1328 12.582 11.1602 12.6016 11.1914 12.6016C11.2227 12.6016 11.25 12.582 11.25 12.5625C11.25 12.5391 11.2227 12.5234 11.1914 12.5234C11.1602 12.5234 11.1328 12.5391 11.1328 12.5625Z" fill="white"/>
<path d="M28.8672 12.5818C28.8672 12.6209 28.8945 12.6404 28.9375 12.6326C29.0195 12.617 29.0117 12.5466 28.9297 12.531C28.8906 12.5232 28.8672 12.5427 28.8672 12.5818Z" fill="white"/>
<path d="M9.76562 12.7188C9.76562 12.7383 9.78516 12.7578 9.80469 12.7578C9.82812 12.7578 9.84375 12.7383 9.84375 12.7188C9.84375 12.6953 9.82812 12.6797 9.80469 12.6797C9.78516 12.6797 9.76562 12.6953 9.76562 12.7188Z" fill="white"/>
<path d="M10.1172 12.875C10.1172 12.8945 10.1367 12.9141 10.1602 12.9141C10.1797 12.9141 10.1875 12.8945 10.1758 12.875C10.1641 12.8516 10.1445 12.8359 10.1328 12.8359C10.125 12.8359 10.1172 12.8516 10.1172 12.875Z" fill="white"/>
<path d="M10.6445 12.9141C10.6562 12.9336 10.6758 12.9531 10.6875 12.9531C10.6953 12.9531 10.7031 12.9336 10.7031 12.9141C10.7031 12.8906 10.6836 12.875 10.6602 12.875C10.6406 12.875 10.6328 12.8906 10.6445 12.9141Z" fill="white"/>
<path d="M10.8984 12.9531C10.8984 12.9727 10.9414 12.9922 10.9922 12.9922C11.0469 12.9922 11.1016 12.9727 11.1133 12.9531C11.1289 12.9297 11.0859 12.9141 11.0195 12.9141C10.9531 12.9141 10.8984 12.9297 10.8984 12.9531Z" fill="white"/>
<path d="M9.63281 13.0156C9.59765 13.1094 9.60546 13.1484 9.66406 13.1484C9.72656 13.1484 9.77734 13.043 9.74218 12.9883C9.71093 12.9336 9.66015 12.9453 9.63281 13.0156Z" fill="white"/>
<path d="M30.2383 13.4023L30.1211 13.5781L30.25 13.6758C30.4101 13.7969 30.4687 13.7969 30.6016 13.6758C30.7851 13.5039 30.6992 13.2266 30.457 13.2266C30.3828 13.2266 30.3281 13.2695 30.2383 13.4023Z" fill="white"/>
<path d="M8.93359 13.5275C8.91796 13.5392 8.90624 13.5861 8.90624 13.6252C8.90624 13.7345 9.03905 13.6994 9.05468 13.5861C9.0664 13.5041 8.99218 13.465 8.93359 13.5275Z" fill="white"/>
<path d="M31.3477 14.9844C31.3203 15.0312 31.3945 15.1406 31.4531 15.1406C31.5156 15.1406 31.5352 15.0156 31.4805 14.9805C31.4102 14.9336 31.3789 14.9375 31.3477 14.9844Z" fill="white"/>
<path d="M6.78125 15.0586C6.76562 15.0781 6.77343 15.1055 6.79296 15.1172C6.8125 15.1328 6.83984 15.125 6.85156 15.1055C6.86718 15.0859 6.85937 15.0586 6.83984 15.0469C6.82031 15.0312 6.79296 15.0391 6.78125 15.0586Z" fill="white"/>
<path d="M31.7461 15.09C31.6758 15.1564 31.7344 15.297 31.8984 15.4533C32.0703 15.6252 32.0781 15.6252 32.1328 15.551C32.2109 15.4455 32.1719 15.301 32.0273 15.1681C31.918 15.0666 31.8008 15.0353 31.7461 15.09Z" fill="white"/>
<path d="M32.3477 16.1172C32.2852 16.1523 32.3242 16.2344 32.4063 16.2344C32.4648 16.2344 32.4844 16.1367 32.4297 16.1016C32.4141 16.0938 32.375 16.0977 32.3477 16.1172Z" fill="white"/>
<path d="M32.0703 16.5273C32.0703 16.5586 32.1055 16.5859 32.1484 16.5859C32.1914 16.5859 32.2266 16.5586 32.2266 16.5273C32.2266 16.4961 32.1914 16.4688 32.1484 16.4688C32.1055 16.4688 32.0703 16.4961 32.0703 16.5273Z" fill="white"/>
<path d="M7.76171 16.8477C7.70703 16.8984 7.73828 16.9766 7.80859 16.9766C7.90625 16.9766 7.95703 16.8984 7.88671 16.8555C7.82031 16.8125 7.79296 16.8125 7.76171 16.8477Z" fill="white"/>
<path d="M6.91406 17.0078C6.76562 17.0586 6.80859 17.25 6.96874 17.25C7.07031 17.25 7.16796 17.1562 7.1289 17.0937C7.08984 17.0312 6.97656 16.9844 6.91406 17.0078Z" fill="white"/>
<path d="M31.8672 17.1365C31.8281 17.1561 31.7969 17.2068 31.7969 17.2459C31.7969 17.4139 32.0937 17.4998 32.2226 17.3709C32.3164 17.2771 32.2969 17.199 32.1641 17.1365C32.0469 17.0857 31.957 17.0818 31.8672 17.1365Z" fill="white"/>
<path d="M8.32812 18.0781C8.26562 18.1406 8.26953 18.207 8.33203 18.2617C8.40625 18.3203 8.52734 18.2265 8.50781 18.125C8.49219 18.0351 8.39453 18.0117 8.32812 18.0781Z" fill="white"/>
<path d="M10.875 18.324C10.8594 18.3592 10.8672 18.4061 10.8906 18.4295C10.9492 18.4881 11.0625 18.4334 11.0469 18.3553C11.0312 18.2655 10.9062 18.242 10.875 18.324Z" fill="white"/>
<path d="M31.8477 18.4454C31.8203 18.5196 31.8555 18.5547 31.9336 18.5274C32.0078 18.4961 32.0078 18.4375 31.9336 18.4063C31.8984 18.3946 31.8633 18.4102 31.8477 18.4454Z" fill="white"/>
<path d="M8.69141 18.6172C8.70703 18.6406 8.73437 18.6484 8.75391 18.6367C8.80859 18.6015 8.79687 18.5781 8.72656 18.5781C8.69531 18.5781 8.67969 18.5976 8.69141 18.6172Z" fill="white"/>
<path d="M30.9375 18.7581C30.9375 18.7932 30.957 18.8127 30.9844 18.8049C31.0547 18.7815 31.0664 18.6956 31 18.6956C30.9648 18.6956 30.9375 18.7229 30.9375 18.7581Z" fill="white"/>
<path d="M11.0742 19.3789C11.0351 19.4648 10.9726 19.7617 10.9336 20.043C10.8437 20.6641 10.7226 21.0625 10.4258 21.7305C10.3008 22.0117 10.1953 22.2695 10.1953 22.3047C10.1953 22.3867 10.332 22.3359 10.7461 22.0938C10.9258 21.9844 11.1094 21.9023 11.1484 21.9063C11.2656 21.9219 11.2969 22.1094 11.2422 22.4844C11.1914 22.8516 11.1875 22.9961 11.2305 23.1602C11.2656 23.2969 11.1953 23.3789 10.9101 23.543C10.7969 23.6094 10.7031 23.6836 10.7031 23.707C10.7031 23.7344 10.6914 23.793 10.6797 23.8398C10.6641 23.8984 10.6719 23.9297 10.7031 23.9297C10.7305 23.9297 10.7422 23.9023 10.7266 23.8711C10.6719 23.7227 10.8711 23.9102 11.0742 24.1953L11.2851 24.4961L11.2891 24.8125C11.2891 25.0508 11.2734 25.1445 11.2305 25.1797C11.168 25.2305 11.1484 25.4531 11.207 25.4531C11.2461 25.4531 11.2305 25.6797 11.1562 26.2148L11.1133 26.5273H10.9766C10.8086 26.5273 10.793 26.6211 10.9492 26.6953C11.0781 26.7578 11.0781 26.7813 10.9648 27.2305C10.8906 27.5234 10.8594 27.5859 10.793 27.5938C10.6211 27.6172 10.5781 27.7969 10.7422 27.7969C10.8008 27.7969 10.8086 27.8164 10.7851 27.8984C10.7656 27.9805 10.7305 28.0039 10.625 28.0117C10.4726 28.0234 10.2734 28.2148 10.2734 28.3477C10.2734 28.4336 10.4492 28.6172 10.5351 28.6172C10.5976 28.6172 10.5898 28.668 10.4062 29.2656C10.332 29.5039 10.2734 29.7344 10.2734 29.7773C10.2734 29.8398 10.2539 29.8555 10.1992 29.8398C10.1133 29.8164 9.96093 29.9492 9.96093 30.0469C9.96093 30.1602 10.043 30.2578 10.1367 30.2578C10.2539 30.2578 10.3398 30.1719 10.3711 30.0156C10.3867 29.9453 10.4297 29.8438 10.4648 29.7891C10.5 29.7344 10.5508 29.6563 10.5703 29.6133C10.5937 29.5703 10.6562 29.5273 10.707 29.5156C10.7734 29.5 10.8398 29.418 10.9336 29.2344C11.0586 28.9883 11.0625 28.9766 10.9961 28.8789C10.918 28.7578 10.8711 28.8633 11.4648 27.7852C11.8828 27.0273 11.8906 27.0117 12 27.0352C12.0586 27.0508 12.1445 27.0469 12.1914 27.0352C12.2617 27.0117 12.2695 26.9883 12.25 26.8555C12.2266 26.7188 12.2344 26.7031 12.3047 26.7031C12.418 26.7031 12.5625 26.8594 12.6211 27.0391C12.6562 27.1484 12.6758 27.6641 12.6914 28.8125C12.7148 30.3359 12.7187 30.4258 12.7773 30.3164C12.8125 30.25 12.8711 30.0938 12.9101 29.9648C13.0742 29.3828 13.4141 28.3125 13.4648 28.2148C13.5312 28.082 13.75 27.9805 13.8906 28.0156C13.9453 28.0313 14.0234 28.0977 14.0664 28.1641C14.207 28.3945 14.1601 28.6992 13.8086 29.8008C13.707 30.1172 13.6328 30.3945 13.6406 30.418C13.6484 30.4453 13.8125 30.3164 14.0039 30.1406C14.9766 29.2383 15.2344 29.1328 15.4492 29.5547C15.6719 29.9961 15.8789 31.0586 15.8516 31.6328C15.832 32.0195 15.8476 32.0117 16.0234 31.5313C16.1562 31.1719 16.2656 30.9766 16.3672 30.9219C16.4687 30.8672 16.6289 30.875 16.75 30.9375C16.8633 31 17.3242 31.4609 17.7656 31.9609L18.043 32.2773L18.8164 32.6211C19.2422 32.8125 19.7539 33.043 19.9531 33.1406L20.3164 33.3164L20.625 33.75C20.7969 33.9883 20.9766 34.2266 21.0312 34.2773L21.1289 34.3711L21.1484 34.2773C21.1601 34.2266 21.2226 33.8945 21.2891 33.5391C21.4414 32.7422 21.543 32.3203 21.6445 32.1289C21.7305 31.957 21.8476 31.8867 22.3359 31.7227C22.75 31.5781 22.918 31.4375 23.1211 31.0469C23.3281 30.6406 23.7148 30.2813 23.7773 30.4336C23.8008 30.4961 23.7695 31.1953 23.7266 31.5469L23.707 31.7227L23.8086 31.5078C23.8633 31.3906 24.0078 31.0508 24.125 30.7461C24.5469 29.6836 24.75 29.3594 24.9922 29.3594C25.1914 29.3594 25.4375 29.5273 25.9023 29.9883C26.3203 30.4023 26.4453 30.5039 26.4453 30.4297C26.4453 30.4102 26.1523 29.4492 26.0586 29.1523C26.0273 29.0664 26.0351 29.0391 26.0976 29.0078C26.2109 28.9453 26.1875 28.8203 26.0547 28.7422C25.9492 28.6836 25.9375 28.6563 25.9375 28.4805C25.9375 28.2422 26.0391 28.0273 26.1836 27.9609C26.2773 27.9141 26.3086 27.918 26.3867 27.9688C26.5351 28.0664 26.6445 28.3242 26.9922 29.3867C27.168 29.9297 27.3281 30.375 27.3516 30.375C27.3789 30.375 27.3867 29.8945 27.3789 28.8906C27.3633 27.4531 27.3672 27.4063 27.4414 27.3516C27.5156 27.2969 27.5156 27.293 27.4492 27.2188C27.3437 27.1016 27.4336 26.7695 27.5859 26.7305C27.6875 26.7031 27.9336 26.8047 28.0195 26.9102C28.2148 27.1484 28.8281 28.4883 29.0273 29.1172L29.1172 29.3984L29.0312 29.4609C28.8789 29.5664 28.9258 30 29.0976 30.0742C29.2422 30.1406 29.3398 30.2656 29.3164 30.3594C29.3086 30.4063 29.3125 30.4531 29.3281 30.4688C29.3437 30.4844 29.3906 30.6055 29.4336 30.7383C29.4844 30.8945 29.5312 30.9805 29.5703 30.9805C29.6523 30.9805 29.668 30.6914 29.6055 30.4141C29.5781 30.2969 29.5508 30.1445 29.5469 30.082C29.5351 29.9531 29.4297 29.3203 29.1836 27.9141C29.0508 27.1406 28.8867 25.957 28.8711 25.668C28.8711 25.625 28.8555 25.4336 28.8359 25.2461C28.8086 24.957 28.8164 24.8945 28.8672 24.8477C28.9726 24.7539 29.3633 24.5898 29.6133 24.5391L29.8555 24.4922L29.7422 24.4102C29.6797 24.3672 29.5117 24.2773 29.3633 24.2109C28.9726 24.0313 28.9531 23.9336 29.2383 23.5156C29.3789 23.3086 29.3633 23.2188 29.1406 22.9766C28.8828 22.6914 28.8203 22.5547 28.7969 22.25C28.7851 22.0508 28.793 21.9844 28.8398 21.9453C28.9141 21.8828 28.9883 21.918 29.4414 22.2109C29.7539 22.418 29.8828 22.4531 29.8828 22.3359C29.8828 22.2969 29.7617 22.0195 29.6133 21.7188C29.2891 21.0664 29.1641 20.6797 29.0898 20.1133C29.0586 19.8828 29.0039 19.6211 28.9648 19.5352L28.8945 19.3789L28.8437 19.7109C28.8164 19.8945 28.6719 20.5391 28.5195 21.1406C28.1992 22.4258 28.1406 22.8711 28.0976 24.2031C28.0781 24.8789 28.0625 25.0781 28.0351 24.9648C27.9375 24.5117 27.7969 24.082 27.6836 23.8984C27.6172 23.7891 27.5469 23.6953 27.5312 23.6953C27.5156 23.6953 27.5 23.7734 27.5 23.8672C27.5 24.3828 26.8867 25.5703 26.6211 25.5703C26.582 25.5703 26.4922 25.5078 26.4219 25.4336L26.293 25.2969L25.9922 25.6367C25.8281 25.8281 25.3476 26.3945 24.9258 26.8984C24.5078 27.4023 24.1367 27.8398 24.1016 27.8672C24.0664 27.8945 23.9922 27.9063 23.918 27.8945C23.8008 27.875 23.7695 27.9023 23.0195 28.7617C21.9805 29.9492 21.8125 30.1133 21.4258 30.2969C20.6406 30.6797 19.7578 30.7148 18.8984 30.4023C18.3359 30.1992 18.1094 29.9961 16.9805 28.6758C16.332 27.918 16.3086 27.8945 16.1797 27.9063C16.0117 27.9219 15.9961 27.9063 15.4141 27.2109C15.1562 26.8984 14.6914 26.3438 14.3789 25.9805C14.0703 25.6133 13.8086 25.3086 13.8047 25.3008C13.7969 25.293 13.7383 25.3516 13.6719 25.4297C13.5039 25.6211 13.4023 25.6133 13.2109 25.3945C12.8789 25.0156 12.5547 24.2031 12.5859 23.8242L12.5976 23.6484L12.4922 23.7734C12.3476 23.9492 12.2422 24.2227 12.1328 24.7109L12.043 25.1211L12.0156 24.4961C11.9453 22.8555 11.8789 22.3711 11.5 20.8633C11.3398 20.2188 11.1953 19.5859 11.1758 19.457L11.1445 19.2227L11.0742 19.3789Z" fill="white"/>
<path d="M29.7344 19.4844C29.7578 19.5547 29.8437 19.5664 29.8437 19.5C29.8437 19.4648 29.8164 19.4375 29.7812 19.4375C29.7461 19.4375 29.7266 19.457 29.7344 19.4844Z" fill="white"/>
<path d="M29.6758 20.5939C29.6211 20.6525 29.6484 20.8009 29.7227 20.8243C29.8438 20.8634 29.9258 20.8048 29.9141 20.6915C29.9063 20.6173 29.8789 20.5861 29.8047 20.5782C29.75 20.5704 29.6914 20.5782 29.6758 20.5939Z" fill="white"/>
<path d="M30.2734 21.2382C30.2734 21.2812 30.293 21.3046 30.3125 21.2929C30.3359 21.2812 30.3516 21.2421 30.3516 21.2109C30.3516 21.1796 30.3359 21.1562 30.3125 21.1562C30.293 21.1562 30.2734 21.1913 30.2734 21.2382Z" fill="white"/>
<path d="M30.2891 21.6799C30.2578 21.762 30.2851 21.8713 30.3398 21.887C30.3984 21.9065 30.4805 21.7541 30.4531 21.6799C30.4258 21.6096 30.3164 21.6096 30.2891 21.6799Z" fill="white"/>
<path d="M30.7617 22.0156C30.75 22.0352 30.7578 22.0547 30.7773 22.0547C30.8008 22.0547 30.8203 22.0352 30.8203 22.0156C30.8203 21.9922 30.8125 21.9766 30.8047 21.9766C30.793 21.9766 30.7734 21.9922 30.7617 22.0156Z" fill="white"/>
<path d="M31.7461 22.621C31.7148 22.6913 31.7891 22.7421 31.8437 22.6874C31.8867 22.6444 31.8555 22.5624 31.7969 22.5624C31.7812 22.5624 31.7578 22.5897 31.7461 22.621Z" fill="white"/>
<path d="M32.5586 23.5391C32.5703 23.5586 32.5898 23.5781 32.6016 23.5781C32.6094 23.5781 32.6172 23.5586 32.6172 23.5391C32.6172 23.5156 32.5977 23.5 32.5742 23.5C32.5547 23.5 32.5469 23.5156 32.5586 23.5391Z" fill="white"/>
<path d="M10.4687 24.457C10.4414 24.4883 10.4297 24.543 10.4453 24.5781C10.4805 24.668 10.7187 24.6367 10.7344 24.5391C10.7617 24.4102 10.5586 24.3477 10.4687 24.457Z" fill="white"/>
<path d="M10.8594 24.9062C10.8594 24.9258 10.8789 24.9453 10.8984 24.9453C10.9219 24.9453 10.9375 24.9258 10.9375 24.9062C10.9375 24.8828 10.9219 24.8672 10.8984 24.8672C10.8789 24.8672 10.8594 24.8828 10.8594 24.9062Z" fill="white"/>
<path d="M29.543 25.8477C29.3477 25.9023 29.3867 25.9453 29.6289 25.9453C29.8008 25.9414 29.8437 25.9297 29.8359 25.8828C29.8203 25.8125 29.7109 25.7969 29.543 25.8477Z" fill="white"/>
<path d="M30.1172 26.2734C30.1172 26.293 30.1367 26.3125 30.1562 26.3125C30.1797 26.3125 30.1953 26.293 30.1953 26.2734C30.1953 26.25 30.1797 26.2344 30.1562 26.2344C30.1367 26.2344 30.1172 26.25 30.1172 26.2734Z" fill="white"/>
<path d="M29.4531 26.3557C29.4531 26.4221 29.4687 26.4338 29.543 26.4143C29.5898 26.4026 29.6719 26.3909 29.7226 26.3909C29.8008 26.3909 29.8047 26.3831 29.7656 26.3323C29.7383 26.301 29.6562 26.2737 29.5859 26.2737C29.4766 26.2737 29.4531 26.2893 29.4531 26.3557Z" fill="white"/>
<path d="M30.5937 26.7695C30.6016 26.8086 30.6328 26.8398 30.6641 26.8398C30.6953 26.8398 30.7266 26.8086 30.7344 26.7695C30.7422 26.7227 30.7226 26.7031 30.6641 26.7031C30.6055 26.7031 30.5859 26.7227 30.5937 26.7695Z" fill="white"/>
<path d="M30.1758 26.9335C30.1523 26.9764 30.2109 27.0233 30.25 26.9882C30.2852 26.953 30.2773 26.8983 30.2383 26.8983C30.2148 26.8983 30.1914 26.9139 30.1758 26.9335Z" fill="white"/>
<path d="M10.793 27.1211C10.7227 27.1445 10.7305 27.25 10.7969 27.25C10.8711 27.25 10.918 27.1758 10.875 27.1328C10.8555 27.1172 10.8164 27.1133 10.793 27.1211Z" fill="white"/>
<path d="M12.293 27.1798C12.2344 27.2267 12.2305 27.2423 12.2773 27.3048C12.3516 27.4025 12.4727 27.3595 12.4531 27.2423C12.4375 27.1369 12.3828 27.1173 12.293 27.1798Z" fill="white"/>
<path d="M29.8711 27.3517C29.8281 27.4025 29.7656 27.4455 29.7383 27.4455C29.7031 27.4455 29.6875 27.5002 29.6875 27.6017C29.6875 27.7228 29.707 27.7697 29.7851 27.8205C29.9141 27.9064 30.1094 27.8595 30.1562 27.7345C30.1797 27.6799 30.2266 27.6408 30.2734 27.6408C30.375 27.6408 30.3711 27.6095 30.2539 27.4416C30.1328 27.258 29.9844 27.2228 29.8711 27.3517Z" fill="white"/>
<path d="M12.4023 28.0312C12.3633 28.0977 12.4219 28.2266 12.4961 28.2266C12.6016 28.2266 12.6601 28.1484 12.6133 28.0625C12.5742 27.9883 12.4414 27.9688 12.4023 28.0312Z" fill="white"/>
<path d="M12.5039 28.4843C12.5039 28.5273 12.5156 28.539 12.5273 28.5077C12.5391 28.4804 12.5352 28.4452 12.5234 28.4335C12.5117 28.4179 12.5 28.4413 12.5039 28.4843Z" fill="white"/>
<path d="M13.3984 28.4805C13.3984 28.5117 13.4258 28.5391 13.457 28.5391C13.4883 28.5391 13.5156 28.5234 13.5156 28.5039C13.5156 28.4844 13.4883 28.4609 13.457 28.4453C13.4219 28.4336 13.3984 28.4453 13.3984 28.4805Z" fill="white"/>
<path d="M10.1953 28.8517C10.1953 28.9728 10.2617 29.0041 10.3437 28.922C10.4297 28.8361 10.3984 28.7345 10.293 28.7345C10.2109 28.7345 10.1953 28.7541 10.1953 28.8517Z" fill="white"/>
<path d="M13.8945 28.8359C13.8789 28.8516 13.8672 28.8906 13.8672 28.9258C13.8672 28.9688 13.8789 28.9727 13.9102 28.9414C13.9336 28.918 13.9492 28.8789 13.9375 28.8516C13.9297 28.8281 13.9102 28.8203 13.8945 28.8359Z" fill="white"/>
<path d="M26.4922 29.0117C26.5 29.0352 26.5234 29.0508 26.543 29.0508C26.5625 29.0508 26.5859 29.0352 26.5937 29.0117C26.6016 28.9883 26.5781 28.9688 26.543 28.9688C26.5078 28.9688 26.4844 28.9883 26.4922 29.0117Z" fill="white"/>
<path d="M11.9414 29.6173C11.9258 29.6329 11.9258 29.6564 11.9375 29.6759C11.9609 29.715 12.0703 29.6759 12.0703 29.629C12.0703 29.59 11.9766 29.5822 11.9414 29.6173Z" fill="white"/>
<path d="M14.3008 30.1172C14.2734 30.1485 14.2578 30.2227 14.2656 30.2852C14.2812 30.4336 14.4375 30.461 14.4883 30.3242C14.5664 30.125 14.4219 29.9727 14.3008 30.1172Z" fill="white"/>
<path d="M10.5859 30.3987C10.5859 30.4534 10.5977 30.4534 10.6445 30.4143C10.6758 30.387 10.7031 30.3596 10.7031 30.3518C10.7031 30.344 10.6758 30.3362 10.6445 30.3362C10.6133 30.3362 10.5859 30.3635 10.5859 30.3987Z" fill="white"/>
<path d="M9.57421 30.5469C9.54296 30.5859 9.53124 30.6484 9.54687 30.707C9.57031 30.793 9.59374 30.8086 9.69531 30.7969C9.84374 30.7812 9.92187 30.6797 9.85937 30.5781C9.80468 30.4922 9.63671 30.4726 9.57421 30.5469Z" fill="white"/>
<path d="M24.5547 30.6717C24.4687 30.7576 24.4766 30.867 24.5781 30.9373C24.8242 31.1092 25.1055 30.9061 24.9023 30.703C24.793 30.5975 24.6445 30.5819 24.5547 30.6717Z" fill="white"/>
<path d="M25.5781 30.6914C25.4297 30.7773 25.5352 31.0391 25.7187 31.0391C25.8906 31.0391 25.9648 30.8359 25.8359 30.7109C25.7656 30.6406 25.6758 30.6328 25.5781 30.6914Z" fill="white"/>
<path d="M25.7891 31.5938C25.8164 31.668 25.9375 31.6797 25.9375 31.6094C25.9375 31.5703 25.9023 31.5469 25.8555 31.5469C25.8086 31.5469 25.7812 31.5664 25.7891 31.5938Z" fill="white"/>
<path d="M25.4258 31.7812C25.3828 31.8086 25.3828 31.8359 25.4141 31.8867C25.4687 31.9766 25.6016 31.9766 25.6172 31.8906C25.6328 31.8086 25.5039 31.7344 25.4258 31.7812Z" fill="white"/>
<path d="M14.0312 31.9608C13.9609 32.0077 13.9453 32.0546 13.9531 32.164C13.9648 32.289 13.9805 32.3085 14.0664 32.3202C14.2656 32.3437 14.375 32.0976 14.2266 31.9647C14.1367 31.8827 14.1406 31.8827 14.0312 31.9608Z" fill="white"/>
<path d="M27.0781 32.2578C27.0859 32.3047 27.1172 32.3477 27.1484 32.3477C27.2344 32.3477 27.2227 32.1953 27.1367 32.1797C27.0781 32.168 27.0664 32.1836 27.0781 32.2578Z" fill="white"/>
<path d="M25.4766 32.375C25.4844 32.4219 25.5156 32.4648 25.5469 32.4648C25.6328 32.4648 25.6211 32.3125 25.5352 32.2969C25.4766 32.2852 25.4648 32.3008 25.4766 32.375Z" fill="white"/>
<path d="M27.2851 33.0857C27.207 33.1443 27.2187 33.2576 27.3125 33.3162C27.3594 33.3475 27.3945 33.3436 27.4375 33.3084C27.5781 33.1912 27.4336 32.9764 27.2851 33.0857Z" fill="white"/>
</g>
<defs>
<clipPath id="clip0_1077_2">
<rect width="30" height="30" fill="white" transform="translate(5 6)"/>
</clipPath>
</defs>
</svg>
