<svg width="70" height="70" viewBox="0 0 70 70" fill="none" xmlns="http://www.w3.org/2000/svg">
<g clip-path="url(#clip0_374_3790)" filter="url(#filter0_i_374_3790)">
<path d="M31.192 0.168003C30.912 0.392003 31.01 1.316 31.304 1.204C31.402 1.162 31.71 1.092 31.976 1.036C32.62 0.924003 32.69 0.784003 32.382 0.350003C32.102 -0.0279968 31.556 -0.111997 31.192 0.168003Z" fill="black"/>
<path d="M38.7381 0.825981C38.5141 0.965981 38.0801 1.13399 37.7581 1.18999C37.2821 1.27399 37.2261 1.30199 37.4501 1.39999C37.7161 1.49799 37.7021 1.51199 37.3801 1.58199C37.1841 1.62399 36.6941 1.70798 36.2741 1.74998C35.5881 1.83398 35.4901 1.80598 35.2241 1.48399C35.0561 1.30199 34.7061 1.10599 34.4401 1.04999C34.0341 0.965981 33.9781 0.97998 34.1321 1.13399C34.6221 1.65199 33.9501 1.88998 33.3201 1.39999C32.9841 1.14799 32.9701 1.14799 32.6901 1.39999C32.4661 1.59599 32.0181 1.69398 30.5621 1.80598C29.5541 1.90398 28.4201 2.05798 28.0421 2.16998C27.1181 2.44998 27.1041 2.42198 27.9721 2.02998C28.4061 1.83398 28.7001 1.60999 28.7001 1.46999C28.7001 1.23199 28.6021 1.18999 27.8321 1.04999C27.3421 0.97998 27.3001 0.99398 27.3001 1.31599C27.3001 1.55399 27.1461 1.76398 26.8521 1.97398C26.6001 2.14198 26.3621 2.30998 26.3341 2.33798C26.3061 2.35198 26.3621 2.63198 26.4601 2.95399C26.6281 3.45798 26.6981 3.51398 27.0341 3.47198C27.2581 3.42999 27.3841 3.47198 27.3421 3.54198C27.1881 3.80798 26.3061 4.05998 25.5921 4.05998C24.8641 4.04598 24.8501 4.04598 25.2701 3.86398L25.6901 3.68198L25.1721 3.42999C24.7381 3.21999 24.5841 3.20599 24.2761 3.34599C23.8421 3.54198 23.6881 3.45798 23.9401 3.14999C24.0381 3.02399 24.0941 2.91199 24.0661 2.88399C23.9961 2.82799 20.4681 3.84998 18.7601 4.40999C17.1221 4.94199 15.0641 6.01999 14.1681 6.80399C13.4261 7.44799 13.3841 7.62999 13.9301 7.72799C14.0841 7.75599 14.2101 7.83998 14.2101 7.90998C14.2241 7.99398 14.2801 8.20399 14.3361 8.38599L14.4481 8.72198L14.6301 8.28799C14.8541 7.76999 15.2461 7.50399 16.3101 7.12598C17.1781 6.81799 17.3881 6.85999 17.0381 7.23798C16.7861 7.53199 16.3241 8.66599 16.1701 9.37999L16.0721 9.86999L16.4921 9.30999C16.7161 9.00199 17.2901 8.38599 17.7661 7.95198C18.4801 7.27999 18.6201 7.06998 18.6341 6.64999C18.6481 6.38398 18.6621 6.07598 18.6761 5.97798C18.7041 5.57198 19.6701 5.30598 19.9921 5.62798C20.1181 5.75398 20.0061 5.94998 19.5301 6.45399C19.1801 6.83199 18.9001 7.23798 18.9001 7.36399C18.9001 7.53199 19.0681 7.41999 19.4601 6.99998C19.9221 6.49599 20.0621 6.42599 20.3841 6.49599C20.8041 6.60799 21.2801 6.32798 20.9721 6.14598C20.8741 6.08998 20.8321 6.00599 20.8601 5.97798C21.1681 5.73998 23.0861 4.61999 23.2121 4.61999C23.4501 4.61999 23.5621 5.20798 23.3941 5.61398C23.3241 5.82398 23.0161 6.10398 22.7221 6.25798C22.4281 6.41198 21.7001 6.78999 21.0981 7.11198C20.2441 7.57399 19.8661 7.69999 19.3201 7.69999C18.7321 7.69999 18.6201 7.74199 18.6201 7.96598C18.6201 8.10599 18.7181 8.30199 18.8301 8.39999C18.9421 8.49799 19.0401 8.65199 19.0401 8.76398C19.0401 9.04399 18.3261 9.49199 17.5561 9.67398C17.1781 9.77199 16.3801 10.08 15.7921 10.388C15.0221 10.766 14.7001 10.864 14.7001 10.724C14.7001 10.626 14.8541 10.108 15.0641 9.58998C15.2601 9.05799 15.4001 8.46999 15.3721 8.27399C15.3021 7.68599 14.9381 7.83998 14.7001 8.56799C14.5321 9.11399 14.4481 9.21199 14.2101 9.15599C14.0561 9.11399 13.6921 9.18399 13.3981 9.30999C13.1181 9.42199 12.8801 9.47799 12.8801 9.42199C12.8801 9.36599 13.1181 9.07199 13.3981 8.76398L13.9301 8.21799L13.0901 8.80598C12.6281 9.14199 11.6901 9.78599 10.9901 10.262C9.77207 11.088 8.12007 12.586 8.12007 12.838C8.12007 12.908 8.30207 12.95 8.54007 12.908C9.15607 12.824 9.08607 13.118 8.19007 14.21C7.77007 14.714 7.42007 15.176 7.42007 15.204C7.42007 15.33 7.57407 15.246 8.03607 14.84C8.31607 14.588 8.55407 14.476 8.61007 14.546C8.65207 14.63 7.95207 15.428 7.05607 16.31C5.44607 17.92 5.43207 17.948 5.53007 18.452C5.64207 19.04 5.88007 19.39 5.88007 18.956C5.88007 18.144 6.49607 16.8 6.87407 16.8C7.08407 16.8 7.01407 17.248 6.49607 19.264C6.21607 20.342 5.95007 21.714 5.89407 22.33L5.81007 23.45L5.29207 22.61C4.99807 22.148 4.76007 21.868 4.76007 21.994C4.76007 22.12 4.41007 22.652 3.99007 23.17C3.57007 23.674 3.22007 24.122 3.22007 24.15C3.22007 24.164 3.12207 24.416 3.01007 24.696C2.89807 24.976 2.82807 25.2 2.85607 25.2C2.88407 25.2 3.12207 24.878 3.37407 24.472L3.83607 23.758L4.01807 24.164C4.27007 24.752 4.24207 25.228 3.85007 27.3C3.50007 29.19 3.43007 30.366 3.64007 30.87C3.75207 31.122 3.76607 31.122 3.76607 30.786C3.78007 30.338 4.10207 29.89 4.31207 30.016C4.52207 30.142 4.52207 30.996 4.32607 31.906C4.11607 32.9 3.86407 33.012 3.94807 32.06L4.01807 31.332L3.55607 31.402C2.99607 31.5 2.99607 31.486 2.85607 29.61C2.81407 28.84 2.71607 28.07 2.64607 27.888C2.46407 27.412 2.12807 27.51 2.01607 28.07C1.89007 28.784 2.04407 29.666 2.66007 31.57C3.26207 33.446 3.45807 34.3 3.26207 34.3C3.19207 34.3 2.94007 34.034 2.68807 33.712C2.21207 33.096 2.14207 33.138 2.39407 33.852C2.47807 34.09 2.61807 34.272 2.70207 34.258C2.81407 34.244 2.87007 34.594 2.87007 35.462C2.87007 36.134 2.84207 36.68 2.80007 36.68C2.75807 36.68 2.52007 36.554 2.28207 36.4L1.82007 36.12L1.83407 36.512C1.84807 37.296 2.03007 38.15 2.17007 38.108C2.33807 38.052 3.09407 41.006 3.52807 43.428C3.71007 44.394 3.89207 45.136 3.93407 45.052C4.04607 44.87 4.41007 45.528 4.55007 46.186C4.71807 46.942 4.88607 46.41 4.81607 45.36L4.76007 44.45L4.97007 45.22C5.09607 45.64 5.25007 46.662 5.32007 47.488C5.39007 48.328 5.53007 49.294 5.61407 49.658L5.78207 50.302L6.03407 49.994L6.28607 49.686L6.48207 50.162C6.91607 51.198 6.93007 51.282 6.55207 51.212L6.20207 51.142L6.52407 51.632C6.70607 51.898 6.86007 52.262 6.86007 52.43C6.86007 52.71 7.37807 53.34 7.60207 53.34C7.65807 53.34 7.67207 53.172 7.61607 52.962C7.57407 52.738 7.82607 53.088 8.17607 53.718C8.52607 54.362 8.82007 55.02 8.82007 55.202C8.82007 55.86 9.43607 56.756 10.5001 57.61C11.0741 58.086 11.6201 58.604 11.7041 58.772C11.8581 59.08 13.8741 60.998 15.3161 62.188C16.3661 63.07 18.2561 64.33 19.6421 65.1C20.2861 65.45 20.6781 65.744 20.5801 65.8C20.4261 65.898 24.6121 68.292 26.0821 68.936C27.6781 69.636 29.0781 70 30.1841 70C30.7441 70 31.2201 69.958 31.2201 69.916C31.2201 69.874 31.1501 69.72 31.0801 69.566C30.9821 69.384 30.9821 69.3 31.0801 69.3C31.1501 69.3 31.2201 69.188 31.2201 69.048C31.2201 68.824 31.4441 68.81 34.0481 68.81C37.1001 68.81 38.7101 68.614 41.3281 67.97C42.1121 67.774 42.7701 67.62 42.7841 67.62C42.8121 67.62 42.8401 67.914 42.8401 68.292C42.8401 69.104 43.1341 69.58 43.6381 69.58H44.0021L43.6101 69.216C43.2881 68.922 43.2321 68.782 43.3021 68.362C43.4001 67.802 43.7081 67.41 44.2681 67.116C44.6321 66.92 44.6601 66.934 44.6601 67.186C44.6601 67.732 45.0661 67.76 47.1241 67.396C48.1881 67.214 49.2381 67.018 49.4621 66.976C49.7981 66.892 49.8401 66.92 49.8401 67.256C49.8401 67.676 49.8681 67.69 50.7641 67.41C51.1421 67.298 51.4641 67.2 51.4921 67.2C51.5061 67.2 51.5201 67.424 51.5201 67.69C51.5201 67.998 51.4361 68.222 51.2821 68.306C51.1421 68.39 51.0861 68.46 51.1421 68.46C51.3381 68.46 52.1081 67.872 52.0241 67.802C51.9821 67.76 52.0801 67.536 52.2341 67.326L52.5141 66.92H51.8981C51.5481 66.92 51.0861 66.878 50.8481 66.836C50.4701 66.766 50.4281 66.71 50.5401 66.486C50.6241 66.346 50.6801 66.024 50.6801 65.772V65.296L51.7441 65.394L52.8081 65.506L53.2281 65.03C53.4521 64.764 54.1241 64.288 54.7121 63.952C55.3001 63.63 56.0141 63.14 56.2661 62.874C56.5321 62.594 56.7001 62.468 56.6301 62.58C56.5601 62.706 56.6301 62.692 56.8121 62.524C57.1621 62.23 57.2461 62.02 56.9101 62.3C56.7561 62.426 56.7001 62.426 56.7001 62.314C56.7001 62.23 56.7981 62.118 56.9101 62.076C57.0221 62.02 57.1201 61.88 57.1201 61.74C57.1201 61.614 57.3021 61.25 57.5401 60.928L57.9461 60.354L57.2041 60.62C56.5461 60.844 54.8101 61.18 54.3061 61.18C54.2081 61.18 54.3341 60.956 54.6001 60.69C54.9641 60.312 55.1181 60.242 55.3141 60.354C55.5241 60.466 55.6501 60.382 56.0141 59.892C56.2521 59.556 56.5741 59.038 56.7281 58.73C57.0221 58.156 58.3941 56.238 58.7861 55.86C58.9121 55.734 59.4161 55.146 59.9201 54.53C60.4241 53.914 61.2641 52.906 61.7961 52.29C63.0421 50.834 64.6101 48.454 65.5201 46.648C66.0941 45.486 66.2901 45.206 66.5001 45.262C66.7241 45.318 66.7521 45.206 66.8081 44.366C66.8361 43.848 66.9061 43.372 66.9481 43.33C67.0041 43.274 67.1861 43.33 67.3681 43.456C67.9981 43.904 68.0821 43.778 67.9701 42.588C67.8301 41.076 67.8441 40.11 68.0261 39.802C68.1101 39.662 68.1801 39.62 68.1801 39.718C68.1801 39.928 68.6981 40.222 68.8801 40.11C68.9641 40.054 68.8661 39.732 68.6701 39.326C68.3761 38.766 68.3481 38.64 68.5301 38.64C68.6561 38.64 68.8661 38.374 69.0201 38.024C69.1601 37.688 69.3421 37.394 69.4261 37.366C69.5101 37.324 69.4121 36.68 69.1601 35.574C68.6561 33.502 68.6421 33.236 69.0341 33.138C69.3001 33.068 69.3141 33.096 69.2301 33.558C69.1741 33.908 69.2021 34.09 69.3281 34.174C69.9161 34.552 70.0141 34.076 69.5801 32.816C69.4121 32.368 69.2861 31.696 69.2861 31.346C69.2721 30.73 69.2581 30.702 68.9221 30.772L68.5581 30.842L68.6001 28.966C68.6701 26.11 68.6701 26.096 68.1941 25.816C67.8441 25.62 67.7041 25.326 67.2841 23.996C66.6681 22.092 65.6461 19.782 64.7641 18.298C64.4141 17.696 64.1201 17.108 64.1201 17.01C64.1201 16.912 63.8541 16.52 63.5181 16.156C63.1961 15.778 62.5521 14.994 62.0901 14.42C60.9561 12.992 58.8421 10.906 57.3861 9.77199C56.2941 8.91799 53.5361 7.08398 53.1581 6.95798C53.0741 6.92999 53.2281 6.63599 53.5361 6.25798C54.1241 5.54398 54.1521 5.12399 53.6481 4.78799C53.3261 4.57799 53.3261 4.57799 53.4941 4.94199C53.6341 5.24998 53.6201 5.37598 53.4241 5.65598C53.0881 6.17398 52.6821 6.34198 52.0381 6.24398C51.7161 6.18798 51.3941 6.08998 51.3101 6.03399C51.2401 5.96398 50.9321 5.83798 50.6381 5.73998C50.1481 5.58598 50.1201 5.55798 50.3161 5.33398C50.4421 5.19398 50.5401 5.01199 50.5401 4.92799C50.5401 4.59199 49.6581 3.79398 48.4121 2.96799C46.9981 2.04398 46.5781 1.97398 46.0881 2.58998L45.8361 2.89799L45.1641 2.11398C44.4921 1.34399 44.4641 1.32999 43.6941 1.31599C43.2601 1.31599 42.5041 1.17599 42.0001 1.02199C41.4961 0.867981 40.6561 0.699982 40.1101 0.643982C39.2981 0.587982 39.0601 0.615982 38.7381 0.825981ZM39.4381 0.783981C39.3961 0.825981 39.2701 0.839981 39.1721 0.797981C39.0601 0.755981 39.1021 0.713982 39.2561 0.713982C39.4101 0.699982 39.4941 0.741982 39.4381 0.783981ZM49.3921 5.01199C49.5881 5.30598 49.5881 5.31998 49.1541 5.16599C48.7201 5.01199 48.6361 4.89999 48.8181 4.70399C48.9581 4.56399 49.1681 4.67599 49.3921 5.01199ZM12.0121 10.388C11.9001 10.57 11.5361 11.186 11.2001 11.76C10.8641 12.334 10.5701 12.824 10.5561 12.852C10.5421 12.88 10.3741 12.824 10.2061 12.726L9.88407 12.558L10.2621 12.264C10.4721 12.096 10.6401 11.9 10.6401 11.83C10.6401 11.676 12.0121 10.08 12.1381 10.08C12.1801 10.08 12.1241 10.22 12.0121 10.388ZM9.80007 18.578C9.64607 18.816 9.64607 18.816 9.71607 18.578C9.75807 18.438 9.80007 18.242 9.81407 18.158C9.81407 18.032 9.84207 18.032 9.88407 18.158C9.92607 18.256 9.88407 18.438 9.80007 18.578ZM11.6201 19.446C11.6201 19.516 11.5221 19.642 11.4101 19.74C11.2421 19.88 11.2001 19.88 11.2001 19.712C11.2001 19.6 11.2421 19.46 11.2981 19.418C11.4241 19.278 11.6201 19.292 11.6201 19.446ZM9.94007 19.796C9.94007 19.824 9.98207 19.95 10.0241 20.062C10.0661 20.188 9.88407 20.426 9.54807 20.692L9.01607 21.126L9.22607 20.426C9.38007 19.936 9.50607 19.74 9.68807 19.74C9.82807 19.74 9.94007 19.768 9.94007 19.796ZM10.5981 20.384C10.5141 20.678 9.98207 21.602 9.42207 22.428C8.86207 23.268 8.13407 24.458 7.81207 25.088L7.21007 26.25L7.16807 24.262C7.14007 22.386 7.15407 22.246 7.44807 21.91C7.61607 21.714 7.82607 21.56 7.93807 21.56C8.03607 21.56 8.21807 21.406 8.34407 21.21C8.59607 20.818 8.82007 20.86 8.82007 21.294C8.82007 21.924 9.89807 21.196 10.3881 20.258C10.7241 19.586 10.8221 19.642 10.5981 20.384ZM68.4601 27.496C68.4601 28.112 68.2221 27.762 68.1241 27.02C68.0401 26.418 68.0401 26.404 68.2361 26.74C68.3621 26.936 68.4461 27.272 68.4601 27.496ZM6.38407 27.286C6.49607 27.188 6.62207 27.16 6.67807 27.202C6.81807 27.342 6.14607 28.84 5.93607 28.84C5.54407 28.84 5.23607 27.664 5.47407 27.048L5.61407 26.67L5.90807 27.062C6.13207 27.37 6.23007 27.412 6.38407 27.286ZM47.1801 66.15C47.1801 66.29 47.0401 66.36 46.7321 66.36L46.2701 66.346L46.6201 66.15C47.0681 65.898 47.1801 65.898 47.1801 66.15ZM45.9481 67.158C46.1441 67.41 45.7101 67.55 45.2481 67.396C44.7161 67.214 44.7161 66.948 45.2481 66.724C45.6681 66.542 45.7101 66.542 45.7661 66.752C45.7941 66.878 45.8781 67.074 45.9481 67.158ZM30.7301 68.754C30.9261 68.95 30.2261 68.894 29.7501 68.684C29.3301 68.488 29.3441 68.488 29.9601 68.558C30.3101 68.6 30.6461 68.684 30.7301 68.754Z" fill="black"/>
<path d="M35.7421 1.21777C35.9521 1.24577 36.2881 1.24577 36.5121 1.21777C36.7221 1.18977 36.5401 1.16177 36.1201 1.16177C35.7001 1.16177 35.5181 1.18977 35.7421 1.21777Z" fill="black"/>
<path d="M50.9319 4.95577C51.0999 5.17977 51.2399 5.47377 51.2399 5.62777C51.2399 5.78177 51.3099 5.85177 51.3799 5.80977C51.6599 5.64177 51.5059 5.19377 51.0719 4.87177L50.6099 4.54977L50.9319 4.95577Z" fill="black"/>
<path d="M4.64803 18.8018C4.32603 19.1518 4.25603 19.5298 4.48003 19.6698C4.56403 19.7118 4.62003 19.8938 4.62003 20.0618C4.63403 20.3698 4.63403 20.3698 4.84403 20.0898C5.02603 19.8378 5.02603 19.8098 4.84403 19.7678C4.56403 19.7118 4.56403 19.7118 4.83003 19.0818C5.09603 18.4658 5.04003 18.3818 4.64803 18.8018Z" fill="black"/>
<path d="M2.30988 20.7758C2.12788 21.2518 2.11388 21.4478 2.22588 21.6858C2.51988 22.2038 2.65988 21.9938 2.65988 21.0698C2.65988 20.5658 2.63188 20.1598 2.60388 20.1598C2.57588 20.1598 2.43588 20.4398 2.30988 20.7758Z" fill="black"/>
<path d="M1.63796 23.0998C1.41396 23.4918 1.18996 23.7998 1.13396 23.7998C0.993964 23.7998 0.615964 23.3658 0.531964 23.0998C0.489964 22.9878 0.433964 23.1278 0.405964 23.4078C0.363964 23.6878 0.391964 23.8838 0.447964 23.8558C0.503964 23.8138 0.559964 24.0098 0.559964 24.2758C0.559964 24.5558 0.629964 24.7798 0.699964 24.7798C0.783964 24.7798 0.839964 24.7238 0.839964 24.6538C0.839964 24.5698 1.21796 24.2198 1.67996 23.8698C2.50596 23.2258 2.68796 22.9038 2.35196 22.5678C2.09996 22.3158 2.05796 22.3438 1.63796 23.0998Z" fill="black"/>
<path d="M0.699951 25.6198C0.699951 25.7038 0.797951 25.7598 0.909951 25.7598C1.17595 25.7598 1.17595 25.6758 0.909951 25.5638C0.797951 25.5218 0.699951 25.5498 0.699951 25.6198Z" fill="black"/>
<path d="M67.788 44.1699C67.634 44.5199 67.55 46.3259 67.69 46.1719C67.774 46.0879 68.068 43.9459 67.998 43.8759C67.97 43.8479 67.872 43.9739 67.788 44.1699Z" fill="black"/>
<path d="M64.806 49.1679C64.68 49.6439 64.54 50.1479 64.484 50.2739C64.33 50.6099 65.002 50.4559 65.352 50.0639C65.842 49.5459 65.856 49.2099 65.422 48.7199L65.016 48.2719L64.806 49.1679Z" fill="black"/>
<path d="M63.9799 50.9738C63.8819 51.1278 63.8399 51.2958 63.8819 51.3238C63.9099 51.3518 64.0079 51.2258 64.0919 51.0298C64.2879 50.6098 64.1899 50.5678 63.9799 50.9738Z" fill="black"/>
<path d="M63.4339 52.3877C63.1259 53.3117 63.1679 53.3117 63.7559 52.4297L64.1199 51.8697V52.4297C64.1059 52.7377 64.0219 53.1437 63.9099 53.3397C63.4059 54.2217 63.8259 54.6137 64.5959 53.9977C64.9459 53.7037 64.9739 53.6337 64.8339 53.3537C64.7219 53.1717 64.6939 52.8217 64.7639 52.4297C64.8479 51.8417 64.8339 51.7997 64.4699 51.6597C63.8399 51.4217 63.7419 51.4917 63.4339 52.3877Z" fill="black"/>
<path d="M60.774 55.5239C60.774 55.6919 60.41 56.2099 59.99 56.6859C59.248 57.5119 59.052 57.9879 59.36 58.1699C59.612 58.3239 59.514 58.4919 59.122 58.5899L58.73 58.7019L59.136 58.8139C59.416 58.8979 59.626 58.8559 59.878 58.7019L60.228 58.4639L59.906 58.2399C59.416 57.8619 59.64 57.5399 60.41 57.5399H61.04L61.026 56.9379C61.026 56.2799 60.802 55.0619 60.774 55.5239Z" fill="black"/>
<path d="M62.37 55.5937C62.314 55.6777 62.3 55.7617 62.342 55.8037C62.37 55.8457 62.44 55.7757 62.482 55.6497C62.58 55.4117 62.496 55.3697 62.37 55.5937Z" fill="black"/>
<path d="M61.8099 56.7977C61.5999 57.1337 61.4599 57.4417 61.4879 57.4697C61.5019 57.4837 61.7259 57.5537 61.9639 57.5957C62.3419 57.6797 62.4539 57.6377 62.7059 57.3157C63.0979 56.8257 63.0839 56.6717 62.5799 56.3917L62.1739 56.1677L61.8099 56.7977Z" fill="black"/>
<path d="M58.7861 59.5981L58.3101 60.1021L58.7581 59.7941C59.2341 59.4721 59.4301 59.2481 59.3321 59.1361C59.3041 59.1081 59.0521 59.3181 58.7861 59.5981Z" fill="black"/>
<path d="M52.8501 66.6398C52.8081 66.7098 52.8361 66.7798 52.9061 66.7798C52.9901 66.7798 53.0601 66.7098 53.0601 66.6398C53.0601 66.5558 53.0321 66.4998 53.0041 66.4998C52.9621 66.4998 52.8921 66.5558 52.8501 66.6398Z" fill="black"/>
<path d="M48.37 68.1939C47.782 68.7959 47.726 68.8939 48.02 68.8099C48.622 68.6419 49.21 68.2499 49.252 67.9839C49.364 67.4239 49.028 67.5079 48.37 68.1939Z" fill="black"/>
<path d="M45.57 68.0399L45.01 68.2919L45.542 68.3059C45.892 68.3199 46.102 68.2499 46.158 68.1099C46.284 67.7739 46.172 67.7599 45.57 68.0399Z" fill="black"/>
<path d="M37.17 69.0198C35.784 69.1598 33.992 69.2858 33.18 69.2998L31.71 69.3278L33.11 69.5938C33.908 69.7618 35.434 69.9018 36.68 69.9578L38.85 70.0278L38.5 69.7478L38.15 69.4678L38.5 69.3138C38.696 69.2438 39.354 69.1318 39.97 69.0758C40.796 69.0058 40.992 68.9498 40.74 68.8658C40.25 68.7258 40.026 68.7398 37.17 69.0198Z" fill="black"/>
<path d="M34.4023 16.8889C33.6465 17.1877 32.5391 18.1252 30.459 20.1936C27.6348 23.0119 26.3281 24.0491 24.3594 25.0334C23.3516 25.5373 22.2852 26.1819 22.2852 26.2815C22.2852 26.4573 23.4863 26.1467 25.0098 25.5783C25.9824 25.2151 27.6113 24.553 29.082 23.926C29.9609 23.551 31.1855 22.9182 31.0918 22.8889C31.0625 22.8772 30.4941 22.9885 29.832 23.135C29.1699 23.2815 28.5898 23.3987 28.5488 23.3987C28.3672 23.3987 29.9551 22.1096 31.1035 21.3303C31.5078 21.0608 32.0937 20.5803 32.4805 20.2112C33.3359 19.3967 33.8516 19.0041 34.0684 19.0041C34.3848 19.0041 34.625 19.4963 34.959 20.8205L35.041 21.1428L35.1113 20.8791C35.334 20.0412 35.4863 19.5373 35.5742 19.3615C35.709 19.0862 35.9375 18.928 36.1191 18.9748C36.3301 19.0276 36.9336 19.4963 37.6895 20.2053C38.0586 20.551 38.6387 21.0198 38.9785 21.2483C40.1035 21.9983 41.7383 23.299 41.6562 23.3811C41.6328 23.4104 40.4316 23.1701 39.4941 22.9475C39.2773 22.9006 39.084 22.8713 39.0664 22.8889C38.9668 22.9826 43.209 24.8518 45.1953 25.5842C46.2617 25.9826 47.2227 26.2639 47.627 26.3108C47.9609 26.3459 47.9727 26.3401 47.8906 26.2405C47.7383 26.053 47.0117 25.6194 46.0156 25.1213C44.1465 24.1838 42.834 23.1584 40.0684 20.469C37.8652 18.3244 36.7637 17.3869 35.9727 16.9885C35.5156 16.7541 34.8359 16.7131 34.4023 16.8889Z" fill="white"/>
<path d="M27.207 17.7734C27.207 17.8027 27.248 17.832 27.2949 17.832C27.3418 17.832 27.3828 17.8027 27.3828 17.7734C27.3828 17.7383 27.3418 17.7148 27.2949 17.7148C27.248 17.7148 27.207 17.7383 27.207 17.7734Z" fill="white"/>
<path d="M52.4843 19.6777C52.4492 19.7656 52.5488 19.9414 52.6308 19.9414C52.7421 19.9414 52.8769 19.7832 52.8359 19.6895C52.789 19.5664 52.5312 19.5547 52.4843 19.6777Z" fill="white"/>
<path d="M26.17 19.8006C26.0821 20.0291 26.3926 20.1932 26.5215 19.9881C26.5684 19.9178 26.5626 19.865 26.5098 19.8006C26.4102 19.6775 26.2168 19.6834 26.17 19.8006Z" fill="white"/>
<path d="M50.9434 20.5509C50.8965 20.6095 50.9023 20.6505 50.9609 20.7033C51.0605 20.7794 51.1719 20.7384 51.1719 20.6154C51.1719 20.504 51.0137 20.463 50.9434 20.5509Z" fill="white"/>
<path d="M23.8379 20.7617C23.8554 20.791 23.8965 20.8203 23.9316 20.8203C23.9609 20.8203 23.9844 20.791 23.9844 20.7617C23.9844 20.7266 23.9433 20.7031 23.8906 20.7031C23.8437 20.7031 23.8203 20.7266 23.8379 20.7617Z" fill="white"/>
<path d="M44.0822 21.7754C45.2189 22.8945 46.549 23.9668 48.799 25.5781C49.1857 25.8535 49.6251 26.1875 49.7775 26.3223C50.1056 26.6094 50.3165 27.0078 50.2579 27.2305C50.17 27.5879 49.256 27.8047 48.3419 27.6875C47.504 27.582 47.1232 27.4297 44.3282 26.0996C41.9376 24.9629 41.1993 24.7168 40.3615 24.7637C39.7169 24.7988 39.1251 25.0098 38.1349 25.5605C36.424 26.5156 35.9845 26.6855 35.1466 26.6855C34.8595 26.6914 34.4904 26.6562 34.3263 26.6211C33.9279 26.5215 33.213 26.1816 32.1642 25.5957C30.9454 24.916 30.5236 24.7812 29.6974 24.7812C28.754 24.7871 28.3966 24.9102 25.6251 26.2227C22.7365 27.5938 22.4493 27.6934 21.3478 27.6992C20.6681 27.7051 20.5919 27.6934 20.2814 27.5469C19.9532 27.3945 19.9415 27.3828 19.9415 27.166C19.9415 26.6914 20.0939 26.5566 22.3204 25.0273C24.049 23.8379 24.6525 23.3926 25.4904 22.666C26.2052 22.0508 27.1896 21.0723 27.1427 21.0312C27.1251 21.0137 26.9669 21.084 26.7911 21.1953C26.6154 21.3008 25.6954 21.8516 24.7462 22.4141C21.1837 24.5352 18.8927 25.9883 18.2306 26.5566C17.9962 26.7559 17.9962 26.7617 18.0255 27.084C18.0431 27.2656 18.1837 27.9805 18.3478 28.6719C18.506 29.3633 18.67 30.1074 18.7111 30.3301C18.84 31.0508 18.9513 30.9512 19.2501 29.8086C19.3732 29.334 19.5021 28.9121 19.5372 28.8652C19.6603 28.7246 19.9005 28.7891 21.0782 29.293C22.256 29.7969 22.4611 29.9023 22.2677 29.9023C22.1798 29.9023 22.1681 29.9375 22.2032 30.1191C22.7599 33.3477 23.4454 35.4805 24.8634 38.3633C25.4318 39.5176 25.9181 40.3379 26.5099 41.1348C26.9435 41.7207 27.6525 42.4824 27.7111 42.4238C27.7286 42.4062 27.5939 42.0605 27.4181 41.6504C26.9611 40.6191 26.838 40.1445 26.8439 39.4531C26.8497 38.5449 27.1368 37.6836 27.7404 36.7637C27.963 36.4297 28.0157 36.459 28.0216 36.916C28.0275 37.3086 28.1974 38.4863 28.3439 39.2188C28.6603 40.7422 29.6271 43.2441 30.4884 44.7734C30.6525 45.0723 30.8048 45.3066 30.8224 45.2891C30.84 45.2773 30.8224 44.8496 30.7872 44.3398C30.7052 43.1738 30.7052 42.5117 30.7872 41.9375C30.9572 40.6895 31.3907 39.6289 32.0236 38.873C32.3986 38.4277 32.5802 38.2871 32.5157 38.4922C32.3107 39.1719 32.1993 41 32.299 42.1191C32.4806 44.1406 33.1544 46.1973 33.9103 47.041L34.174 47.334L34.1798 46.4316C34.1798 45.4297 34.2911 44.5625 34.5079 43.8008C34.6603 43.2734 34.9884 42.5 35.0587 42.5C35.1232 42.5 35.4454 43.2383 35.6036 43.7598C35.8263 44.4863 35.9376 45.248 35.9786 46.3262L36.0138 47.3105L36.1603 47.1758C36.506 46.8535 36.9747 46.0273 37.2501 45.2539C37.7189 43.959 37.8947 42.8164 37.8947 41.0938C37.8947 39.8281 37.8712 39.5117 37.6603 38.5156C37.6368 38.3984 37.7189 38.4629 38.047 38.8027C38.7501 39.5352 39.1837 40.5781 39.3419 41.9258C39.4064 42.4941 39.4005 43.1094 39.3009 44.7852L39.2716 45.3418L39.4825 45.0195C39.9572 44.2988 41.0118 41.8848 41.463 40.4785C41.7853 39.4707 42.1486 37.4844 42.1486 36.7227C42.1486 36.582 42.1661 36.4648 42.1954 36.4648C42.2657 36.4648 42.6525 37.1035 42.9044 37.6367C43.2208 38.2988 43.338 38.7793 43.338 39.4238C43.3322 40.127 43.2091 40.6074 42.7638 41.5742C42.5587 42.0195 42.4181 42.3828 42.4532 42.3828C42.6466 42.3828 43.7189 41.0703 44.3282 40.0859C44.6915 39.5 45.7111 37.4434 46.1212 36.4707C46.8712 34.707 47.4454 32.7617 47.8029 30.8223C47.9786 29.8438 47.9786 29.8203 47.8497 29.873C47.7794 29.8965 47.7618 29.8906 47.8029 29.8496C47.9083 29.7441 50.2228 28.7891 50.3751 28.7891C50.5626 28.7891 50.6798 29.0059 50.9259 29.791C51.131 30.459 51.2775 30.7578 51.3536 30.6816C51.3829 30.6523 51.5118 30.1426 51.6407 29.5449C52.1212 27.2715 52.1974 26.9727 52.2677 26.9727C52.42 26.9727 52.3322 26.8496 51.9513 26.5273C51.0782 25.8066 48.8751 24.3594 45.3712 22.2148C44.5802 21.7285 43.795 21.248 43.631 21.1367C43.4611 21.0254 43.3029 20.9375 43.2794 20.9375C43.2501 20.9375 43.6134 21.3184 44.0822 21.7754ZM30.7521 25.8008C31.3087 25.9414 31.5314 26.0703 32.2169 26.6445C32.5099 26.8906 32.9376 27.1895 33.1779 27.3066L33.6115 27.5293H35.088H36.5646L37.0568 27.2832C37.3322 27.1426 37.7716 26.8496 38.047 26.6152C38.6564 26.1055 39.09 25.877 39.67 25.7656C40.2267 25.6602 40.6603 25.6602 41.2755 25.7715C41.8966 25.877 42.3009 26.0176 43.0802 26.3926C43.8712 26.7676 44.3693 27.0781 45.4591 27.8691C45.9454 28.2207 46.5138 28.5957 46.7365 28.7012L47.129 28.8945L46.8126 29.2695C46.6368 29.4688 46.3907 29.8203 46.2618 30.043L46.0275 30.4414L45.9572 30.2188C45.7872 29.6855 45.3771 28.918 45.1075 28.625C44.8497 28.3379 44.3868 27.9863 44.0294 27.7988C43.8771 27.7109 43.8829 27.7402 44.1173 28.0566C44.6271 28.7539 44.9962 30.1367 44.9552 31.1973C44.9318 31.6309 44.9025 31.748 44.7091 32.1348C44.4454 32.6621 44.2169 32.9492 44.1525 32.8496C44.1232 32.8086 44.0294 32.4102 43.9415 31.9707C43.6954 30.7285 43.3029 29.6797 42.7638 28.8125C42.4474 28.3086 41.92 27.6523 41.8673 27.6992C41.8497 27.7168 41.8146 28.2207 41.7911 28.8125C41.7267 30.4297 41.5216 31.332 40.9708 32.4336C40.6779 33.0195 40.215 33.793 40.1798 33.752C40.1681 33.7402 40.1857 33.4062 40.215 33.002C40.3322 31.4727 40.256 29.6738 40.0392 28.8125C39.9044 28.2969 39.6407 27.7637 39.5118 27.7637C39.4064 27.7637 39.1837 28.4023 38.9318 29.457C38.7501 30.207 38.0939 31.9766 37.7189 32.7148C37.4025 33.3418 37.0568 33.793 36.4825 34.3145L36.3068 34.4785L36.4708 33.834C36.7111 32.9023 36.7814 32.041 36.7404 30.4297C36.7111 29.0469 36.6642 28.7305 36.4943 28.7305C36.4415 28.7305 36.2775 28.8477 36.1251 28.9883C35.6036 29.4688 35.3634 29.6094 35.0587 29.6094C34.7423 29.6094 34.5138 29.4746 34.0216 29.0176C33.8575 28.8594 33.6935 28.7305 33.6583 28.7305C33.6232 28.7305 33.547 28.8008 33.4943 28.8887C33.4005 29.0352 33.3888 29.2227 33.3888 30.8984C33.3888 32.8379 33.424 33.2188 33.7052 34.1211C33.7697 34.3145 33.7931 34.4727 33.7697 34.4727C33.67 34.4727 32.8732 33.5469 32.6447 33.1719C32.1349 32.3164 31.3907 30.3418 31.1036 29.082C30.8868 28.1445 30.7404 27.7168 30.6407 27.752C30.5294 27.7871 30.2657 28.332 30.1427 28.7891C29.9318 29.5801 29.8907 30.1777 29.9083 32.0117L29.9318 33.752L29.6857 33.3887C29.3458 32.8789 28.8888 31.9531 28.7072 31.3965C28.4786 30.6875 28.3732 29.9727 28.3439 28.9355C28.3146 27.9512 28.2911 27.7344 28.215 27.7344C28.1095 27.7344 27.3771 28.7891 27.131 29.2871C26.6388 30.2832 26.3927 31.0566 26.0939 32.5508C26.0587 32.7383 26.0118 32.8906 25.9884 32.8906C25.9181 32.8848 25.5841 32.4102 25.4318 32.0996C25.2091 31.6543 25.1505 31.2207 25.215 30.5586C25.3322 29.4746 25.59 28.6602 26.0118 28.0742C26.1232 27.9102 26.2111 27.7695 26.1993 27.7637C26.1876 27.752 25.9884 27.8691 25.7599 28.0332C25.0157 28.5488 24.6759 29.0293 24.3361 30.043L24.1779 30.5059L23.9611 30.1016C23.8439 29.8789 23.6036 29.5273 23.4279 29.3164C23.2521 29.1113 23.1056 28.9238 23.1056 28.9004C23.1056 28.8828 23.2228 28.8184 23.3693 28.7656C23.5157 28.707 23.9142 28.4609 24.2599 28.2148C26.1232 26.8965 27.1486 26.3047 28.1447 25.9766C29.0704 25.666 29.9845 25.6074 30.7521 25.8008Z" fill="white"/>
<path d="M22.9297 21.1135C22.7891 21.2542 22.7833 21.3362 22.9063 21.512C23.0118 21.6643 23.1993 21.676 23.3868 21.5471C23.5274 21.4534 23.5508 21.2893 23.4571 21.1077C23.3751 20.9612 23.0821 20.9612 22.9297 21.1135Z" fill="white"/>
<path d="M20.258 21.5294C20.2111 21.6114 20.3224 21.7228 20.4044 21.6759C20.4982 21.6173 20.4806 21.4649 20.3869 21.4649C20.34 21.4649 20.2814 21.4942 20.258 21.5294Z" fill="white"/>
<path d="M18.5352 22.1094C18.5352 22.1387 18.5762 22.168 18.623 22.168C18.6699 22.168 18.7109 22.1387 18.7109 22.1094C18.7109 22.0742 18.6699 22.0508 18.623 22.0508C18.5762 22.0508 18.5352 22.0742 18.5352 22.1094Z" fill="white"/>
<path d="M19.8828 22.2852C19.8828 22.3145 19.9121 22.3438 19.9414 22.3438C19.9766 22.3438 20 22.3145 20 22.2852C20 22.25 19.9766 22.2266 19.9414 22.2266C19.9121 22.2266 19.8828 22.25 19.8828 22.2852Z" fill="white"/>
<path d="M21.6992 22.3438C21.6992 22.373 21.7402 22.4023 21.7871 22.4023C21.834 22.4023 21.875 22.373 21.875 22.3438C21.875 22.3086 21.834 22.2852 21.7871 22.2852C21.7402 22.2852 21.6992 22.3086 21.6992 22.3438Z" fill="white"/>
<path d="M48.3008 22.3729C48.3008 22.4315 48.3418 22.4608 48.4062 22.4491C48.5293 22.4257 48.5176 22.3202 48.3945 22.2968C48.3359 22.2851 48.3008 22.3143 48.3008 22.3729Z" fill="white"/>
<path d="M19.6484 22.5781C19.6484 22.6074 19.6777 22.6367 19.707 22.6367C19.7422 22.6367 19.7656 22.6074 19.7656 22.5781C19.7656 22.543 19.7422 22.5195 19.707 22.5195C19.6777 22.5195 19.6484 22.543 19.6484 22.5781Z" fill="white"/>
<path d="M20.1758 22.8125C20.1758 22.8418 20.2051 22.8711 20.2402 22.8711C20.2695 22.8711 20.2812 22.8418 20.2637 22.8125C20.2461 22.7773 20.2168 22.7539 20.1992 22.7539C20.1875 22.7539 20.1758 22.7773 20.1758 22.8125Z" fill="white"/>
<path d="M20.9668 22.8711C20.9843 22.9004 21.0136 22.9297 21.0312 22.9297C21.0429 22.9297 21.0546 22.9004 21.0546 22.8711C21.0546 22.8359 21.0253 22.8125 20.9902 22.8125C20.9609 22.8125 20.9492 22.8359 20.9668 22.8711Z" fill="white"/>
<path d="M21.3477 22.9297C21.3477 22.959 21.4121 22.9883 21.4883 22.9883C21.5703 22.9883 21.6523 22.959 21.6699 22.9297C21.6934 22.8945 21.6289 22.8711 21.5293 22.8711C21.4297 22.8711 21.3477 22.8945 21.3477 22.9297Z" fill="white"/>
<path d="M19.4493 23.0234C19.3966 23.1641 19.4083 23.2227 19.4962 23.2227C19.5899 23.2227 19.6661 23.0645 19.6134 22.9824C19.5665 22.9004 19.4903 22.918 19.4493 23.0234Z" fill="white"/>
<path d="M50.3574 23.6035L50.1816 23.8672L50.375 24.0137C50.6152 24.1953 50.7031 24.1953 50.9023 24.0137C51.1777 23.7559 51.0488 23.3398 50.6855 23.3398C50.5742 23.3398 50.4922 23.4043 50.3574 23.6035Z" fill="white"/>
<path d="M18.4004 23.7913C18.377 23.8088 18.3594 23.8791 18.3594 23.9377C18.3594 24.1018 18.5586 24.0491 18.582 23.8791C18.5996 23.7561 18.4883 23.6975 18.4004 23.7913Z" fill="white"/>
<path d="M52.0215 25.9766C51.9804 26.0469 52.0918 26.2109 52.1797 26.2109C52.2734 26.2109 52.3027 26.0234 52.2207 25.9707C52.1152 25.9004 52.0683 25.9062 52.0215 25.9766Z" fill="white"/>
<path d="M15.1719 26.0881C15.1485 26.1174 15.1602 26.1584 15.1895 26.176C15.2188 26.1994 15.2598 26.1877 15.2774 26.1584C15.3008 26.1291 15.2891 26.0881 15.2598 26.0705C15.2305 26.0471 15.1895 26.0588 15.1719 26.0881Z" fill="white"/>
<path d="M52.6191 26.1348C52.5136 26.2344 52.6015 26.4453 52.8476 26.6797C53.1054 26.9375 53.1171 26.9375 53.1992 26.8262C53.3163 26.668 53.2578 26.4512 53.041 26.252C52.8769 26.0996 52.7011 26.0527 52.6191 26.1348Z" fill="white"/>
<path d="M53.5216 27.6758C53.4278 27.7285 53.4864 27.8516 53.6095 27.8516C53.6974 27.8516 53.7267 27.7051 53.6446 27.6523C53.6212 27.6406 53.5626 27.6465 53.5216 27.6758Z" fill="white"/>
<path d="M53.1055 28.291C53.1055 28.3379 53.1582 28.3789 53.2227 28.3789C53.2871 28.3789 53.3398 28.3379 53.3398 28.291C53.3398 28.2441 53.2871 28.2031 53.2227 28.2031C53.1582 28.2031 53.1055 28.2441 53.1055 28.291Z" fill="white"/>
<path d="M16.6426 28.7715C16.5606 28.8477 16.6074 28.9648 16.7129 28.9648C16.8594 28.9648 16.9356 28.8477 16.8301 28.7832C16.7305 28.7188 16.6895 28.7188 16.6426 28.7715Z" fill="white"/>
<path d="M15.371 29.0117C15.1483 29.0879 15.2128 29.375 15.453 29.375C15.6054 29.375 15.7519 29.2344 15.6933 29.1406C15.6347 29.0469 15.4647 28.9766 15.371 29.0117Z" fill="white"/>
<path d="M52.8008 29.205C52.7422 29.2343 52.6953 29.3105 52.6953 29.3691C52.6953 29.621 53.1406 29.7499 53.334 29.5566C53.4746 29.416 53.4453 29.2988 53.2461 29.205C53.0703 29.1289 52.9355 29.123 52.8008 29.205Z" fill="white"/>
<path d="M17.4923 30.6174C17.3985 30.7111 17.4044 30.8107 17.4981 30.8928C17.6094 30.9807 17.7911 30.84 17.7618 30.6877C17.7383 30.5529 17.5919 30.5178 17.4923 30.6174Z" fill="white"/>
<path d="M21.3125 30.9866C21.289 31.0393 21.3008 31.1096 21.3359 31.1448C21.4238 31.2326 21.5937 31.1506 21.5703 31.0334C21.5469 30.8987 21.3594 30.8635 21.3125 30.9866Z" fill="white"/>
<path d="M52.7716 31.1678C52.7306 31.2791 52.7833 31.3319 52.9005 31.2908C53.0118 31.244 53.0118 31.1561 52.9005 31.1092C52.8478 31.0916 52.795 31.1151 52.7716 31.1678Z" fill="white"/>
<path d="M18.0371 31.426C18.0605 31.4612 18.1015 31.4729 18.1308 31.4553C18.2129 31.4026 18.1953 31.3674 18.0898 31.3674C18.0429 31.3674 18.0195 31.3967 18.0371 31.426Z" fill="white"/>
<path d="M51.4062 31.6366C51.4062 31.6893 51.4355 31.7186 51.4766 31.7069C51.582 31.6718 51.5996 31.5428 51.5 31.5428C51.4473 31.5428 51.4062 31.5839 51.4062 31.6366Z" fill="white"/>
<path d="M21.6113 32.5684C21.5527 32.6973 21.459 33.1426 21.4004 33.5645C21.2656 34.4961 21.084 35.0938 20.6387 36.0957C20.4512 36.5176 20.293 36.9043 20.293 36.957C20.293 37.0801 20.498 37.0039 21.1191 36.6406C21.3887 36.4766 21.6641 36.3535 21.7227 36.3594C21.8984 36.3828 21.9453 36.6641 21.8633 37.2266C21.7871 37.7773 21.7812 37.9941 21.8457 38.2402C21.8984 38.4453 21.793 38.5684 21.3652 38.8145C21.1953 38.9141 21.0547 39.0254 21.0547 39.0605C21.0547 39.1016 21.0371 39.1895 21.0195 39.2598C20.9961 39.3477 21.0078 39.3945 21.0547 39.3945C21.0957 39.3945 21.1133 39.3535 21.0898 39.3066C21.0078 39.084 21.3066 39.3652 21.6113 39.793L21.9277 40.2441L21.9336 40.7188C21.9336 41.0762 21.9102 41.2168 21.8457 41.2695C21.752 41.3457 21.7227 41.6797 21.8105 41.6797C21.8691 41.6797 21.8457 42.0195 21.7344 42.8223L21.6699 43.291H21.4648C21.2129 43.291 21.1895 43.4316 21.4238 43.543C21.6172 43.6367 21.6172 43.6719 21.4473 44.3457C21.3359 44.7852 21.2891 44.8789 21.1895 44.8906C20.9316 44.9258 20.8672 45.1953 21.1133 45.1953C21.2012 45.1953 21.2129 45.2246 21.1777 45.3477C21.1484 45.4707 21.0957 45.5059 20.9375 45.5176C20.709 45.5352 20.4102 45.8223 20.4102 46.0215C20.4102 46.1504 20.6738 46.4258 20.8027 46.4258C20.8965 46.4258 20.8848 46.502 20.6094 47.3984C20.498 47.7559 20.4102 48.1016 20.4102 48.166C20.4102 48.2598 20.3809 48.2832 20.2988 48.2598C20.1699 48.2246 19.9414 48.4238 19.9414 48.5703C19.9414 48.7402 20.0645 48.8867 20.2051 48.8867C20.3809 48.8867 20.5098 48.7578 20.5566 48.5234C20.5801 48.418 20.6445 48.2656 20.6973 48.1836C20.75 48.1016 20.8262 47.9844 20.8555 47.9199C20.8906 47.8555 20.9844 47.791 21.0605 47.7734C21.1602 47.75 21.2598 47.627 21.4004 47.3516C21.5879 46.9824 21.5938 46.9648 21.4941 46.8184C21.377 46.6367 21.3066 46.7949 22.1973 45.1777C22.8242 44.041 22.8359 44.0176 23 44.0527C23.0879 44.0762 23.2168 44.0703 23.2871 44.0527C23.3926 44.0176 23.4043 43.9824 23.375 43.7832C23.3398 43.5781 23.3516 43.5547 23.457 43.5547C23.627 43.5547 23.8438 43.7891 23.9316 44.0586C23.9844 44.2227 24.0137 44.9961 24.0371 46.7188C24.0723 49.0039 24.0781 49.1387 24.166 48.9746C24.2188 48.875 24.3066 48.6406 24.3652 48.4473C24.6113 47.5742 25.1211 45.9688 25.1973 45.8223C25.2969 45.623 25.625 45.4707 25.8359 45.5234C25.918 45.5469 26.0352 45.6465 26.0996 45.7461C26.3105 46.0918 26.2402 46.5488 25.7129 48.2012C25.5605 48.6758 25.4492 49.0918 25.4609 49.127C25.4727 49.168 25.7188 48.9746 26.0059 48.7109C27.4648 47.3574 27.8516 47.1992 28.1738 47.832C28.5078 48.4941 28.8184 50.0879 28.7773 50.9492C28.748 51.5293 28.7715 51.5176 29.0352 50.7969C29.2344 50.2578 29.3984 49.9648 29.5508 49.8828C29.7031 49.8008 29.9434 49.8125 30.125 49.9063C30.2949 50 30.9863 50.6914 31.6484 51.4414L32.0645 51.916L33.2246 52.4316C33.8633 52.7188 34.6309 53.0645 34.9297 53.2109L35.4746 53.4746L35.9375 54.125C36.1953 54.4824 36.4648 54.8398 36.5469 54.916L36.6934 55.0566L36.7227 54.916C36.7402 54.8398 36.834 54.3418 36.9336 53.8086C37.1621 52.6133 37.3145 51.9805 37.4668 51.6934C37.5957 51.4355 37.7715 51.3301 38.5039 51.084C39.125 50.8672 39.377 50.6563 39.6816 50.0703C39.9922 49.4609 40.5723 48.9219 40.666 49.1504C40.7012 49.2441 40.6543 50.293 40.5898 50.8203L40.5605 51.084L40.7129 50.7617C40.7949 50.5859 41.0117 50.0762 41.1875 49.6191C41.8203 48.0254 42.125 47.5391 42.4883 47.5391C42.7871 47.5391 43.1562 47.791 43.8535 48.4824C44.4805 49.1035 44.668 49.2559 44.668 49.1445C44.668 49.1152 44.2285 47.6738 44.0879 47.2285C44.041 47.0996 44.0527 47.0586 44.1465 47.0117C44.3164 46.918 44.2812 46.7305 44.082 46.6133C43.9238 46.5254 43.9062 46.4844 43.9062 46.2207C43.9062 45.8633 44.0586 45.541 44.2754 45.4414C44.416 45.3711 44.4629 45.377 44.5801 45.4531C44.8027 45.5996 44.9668 45.9863 45.4883 47.5801C45.752 48.3945 45.9922 49.0625 46.0273 49.0625C46.0684 49.0625 46.0801 48.3418 46.0684 46.8359C46.0449 44.6797 46.0508 44.6094 46.1621 44.5273C46.2734 44.4453 46.2734 44.4395 46.1738 44.3281C46.0156 44.1523 46.1504 43.6543 46.3789 43.5957C46.5312 43.5547 46.9004 43.707 47.0293 43.8652C47.3223 44.2227 48.2422 46.2324 48.541 47.1758L48.6758 47.5977L48.5469 47.6914C48.3184 47.8496 48.3887 48.5 48.6465 48.6113C48.8633 48.7109 49.0098 48.8984 48.9746 49.0391C48.9629 49.1094 48.9688 49.1797 48.9922 49.2031C49.0156 49.2266 49.0859 49.4082 49.1504 49.6074C49.2266 49.8418 49.2969 49.9707 49.3555 49.9707C49.4785 49.9707 49.502 49.5371 49.4082 49.1211C49.3672 48.9453 49.3262 48.7168 49.3203 48.623C49.3027 48.4297 49.1445 47.4805 48.7754 45.3711C48.5762 44.2109 48.3301 42.4355 48.3066 42.002C48.3066 41.9375 48.2832 41.6504 48.2539 41.3691C48.2129 40.9355 48.2246 40.8418 48.3008 40.7715C48.459 40.6309 49.0449 40.3848 49.4199 40.3086L49.7832 40.2383L49.6133 40.1152C49.5195 40.0508 49.2676 39.916 49.0449 39.8164C48.459 39.5469 48.4297 39.4004 48.8574 38.7734C49.0684 38.4629 49.0449 38.3281 48.7109 37.9648C48.3242 37.5371 48.2305 37.332 48.1953 36.875C48.1777 36.5762 48.1895 36.4766 48.2598 36.418C48.3711 36.3242 48.4824 36.377 49.1621 36.8164C49.6309 37.127 49.8242 37.1797 49.8242 37.0039C49.8242 36.9453 49.6426 36.5293 49.4199 36.0781C48.9336 35.0996 48.7461 34.5195 48.6348 33.6699C48.5879 33.3242 48.5059 32.9316 48.4473 32.8027L48.3418 32.5684L48.2656 33.0664C48.2246 33.3418 48.0078 34.3086 47.7793 35.2109C47.2988 37.1387 47.2109 37.8066 47.1465 39.8047C47.1172 40.8184 47.0938 41.1172 47.0527 40.9473C46.9062 40.2676 46.6953 39.623 46.5254 39.3477C46.4258 39.1836 46.3203 39.043 46.2969 39.043C46.2734 39.043 46.25 39.1602 46.25 39.3008C46.25 40.0742 45.3301 41.8555 44.9316 41.8555C44.873 41.8555 44.7383 41.7617 44.6328 41.6504L44.4395 41.4453L43.9883 41.9551C43.7422 42.2422 43.0215 43.0918 42.3887 43.8477C41.7617 44.6035 41.2051 45.2598 41.1523 45.3008C41.0996 45.3418 40.9883 45.3594 40.877 45.3418C40.7012 45.3125 40.6543 45.3535 39.5293 46.6426C37.9707 48.4238 37.7188 48.6699 37.1387 48.9453C35.9609 49.5195 34.6367 49.5723 33.3477 49.1035C32.5039 48.7988 32.1641 48.4941 30.4707 46.5137C29.498 45.377 29.4629 45.3418 29.2695 45.3594C29.0176 45.3828 28.9941 45.3594 28.1211 44.3164C27.7344 43.8477 27.0371 43.0156 26.5684 42.4707C26.1055 41.9199 25.7129 41.4629 25.707 41.4512C25.6953 41.4395 25.6074 41.5273 25.5078 41.6445C25.2559 41.9316 25.1035 41.9199 24.8164 41.5918C24.3184 41.0234 23.832 39.8047 23.8789 39.2363L23.8965 38.9727L23.7383 39.1602C23.5215 39.4238 23.3633 39.834 23.1992 40.5664L23.0645 41.1816L23.0234 40.2441C22.918 37.7832 22.8184 37.0566 22.25 34.7949C22.0098 33.8281 21.793 32.8789 21.7637 32.6855L21.7168 32.334L21.6113 32.5684Z" fill="white"/>
<path d="M49.6017 32.7265C49.6368 32.832 49.7657 32.8496 49.7657 32.75C49.7657 32.6972 49.7247 32.6562 49.672 32.6562C49.6193 32.6562 49.59 32.6855 49.6017 32.7265Z" fill="white"/>
<path d="M49.5137 34.3906C49.4316 34.4785 49.4727 34.7011 49.584 34.7363C49.7656 34.7949 49.8887 34.707 49.8711 34.537C49.8594 34.4257 49.8184 34.3788 49.707 34.3671C49.625 34.3554 49.5371 34.3671 49.5137 34.3906Z" fill="white"/>
<path d="M50.4102 35.3573C50.4102 35.4218 50.4395 35.4569 50.4688 35.4393C50.5039 35.4218 50.5273 35.3632 50.5273 35.3163C50.5273 35.2694 50.5039 35.2343 50.4688 35.2343C50.4395 35.2343 50.4102 35.287 50.4102 35.3573Z" fill="white"/>
<path d="M50.4336 36.0194C50.3867 36.1424 50.4277 36.3065 50.5097 36.3299C50.5976 36.3592 50.7207 36.1307 50.6797 36.0194C50.6386 35.9139 50.4746 35.9139 50.4336 36.0194Z" fill="white"/>
<path d="M51.1425 36.5234C51.125 36.5527 51.1367 36.582 51.166 36.582C51.2011 36.582 51.2304 36.5527 51.2304 36.5234C51.2304 36.4883 51.2187 36.4648 51.207 36.4648C51.1894 36.4648 51.1601 36.4883 51.1425 36.5234Z" fill="white"/>
<path d="M52.619 37.4317C52.5722 37.5372 52.6835 37.6133 52.7655 37.5313C52.83 37.4669 52.7831 37.3438 52.6952 37.3438C52.6718 37.3438 52.6366 37.3848 52.619 37.4317Z" fill="white"/>
<path d="M53.8378 38.8086C53.8554 38.8379 53.8847 38.8672 53.9023 38.8672C53.914 38.8672 53.9257 38.8379 53.9257 38.8086C53.9257 38.7734 53.8964 38.75 53.8613 38.75C53.832 38.75 53.8203 38.7734 53.8378 38.8086Z" fill="white"/>
<path d="M20.7031 40.1853C20.6621 40.2322 20.6445 40.3142 20.668 40.367C20.7207 40.5017 21.0781 40.4549 21.1016 40.3084C21.1426 40.115 20.8379 40.0213 20.7031 40.1853Z" fill="white"/>
<path d="M21.2891 40.8594C21.2891 40.8887 21.3184 40.918 21.3477 40.918C21.3828 40.918 21.4062 40.8887 21.4062 40.8594C21.4062 40.8242 21.3828 40.8008 21.3477 40.8008C21.3184 40.8008 21.2891 40.8242 21.2891 40.8594Z" fill="white"/>
<path d="M49.3146 42.2715C49.0216 42.3535 49.0802 42.418 49.4435 42.418C49.7013 42.4121 49.7657 42.3945 49.754 42.3242C49.7306 42.2188 49.5665 42.1953 49.3146 42.2715Z" fill="white"/>
<path d="M50.1758 42.9102C50.1758 42.9395 50.2051 42.9688 50.2344 42.9688C50.2695 42.9688 50.293 42.9395 50.293 42.9102C50.293 42.875 50.2695 42.8516 50.2344 42.8516C50.2051 42.8516 50.1758 42.875 50.1758 42.9102Z" fill="white"/>
<path d="M49.1797 43.0331C49.1797 43.1327 49.2031 43.1503 49.3145 43.121C49.3848 43.1034 49.5078 43.0858 49.584 43.0858C49.7012 43.0858 49.707 43.0741 49.6484 42.9979C49.6074 42.9511 49.4844 42.91 49.3789 42.91C49.2148 42.91 49.1797 42.9335 49.1797 43.0331Z" fill="white"/>
<path d="M50.8906 43.6543C50.9024 43.7129 50.9492 43.7598 50.9961 43.7598C51.043 43.7598 51.0899 43.7129 51.1016 43.6543C51.1133 43.584 51.084 43.5547 50.9961 43.5547C50.9082 43.5547 50.8789 43.584 50.8906 43.6543Z" fill="white"/>
<path d="M50.2637 43.9004C50.2285 43.9649 50.3164 44.0352 50.375 43.9825C50.4277 43.9297 50.416 43.8477 50.3574 43.8477C50.3223 43.8477 50.2871 43.8712 50.2637 43.9004Z" fill="white"/>
<path d="M21.1893 44.1816C21.0839 44.2168 21.0956 44.375 21.1952 44.375C21.3065 44.375 21.3768 44.2637 21.3124 44.1992C21.2831 44.1758 21.2245 44.1699 21.1893 44.1816Z" fill="white"/>
<path d="M23.4395 44.2695C23.3516 44.3398 23.3457 44.3633 23.416 44.457C23.5274 44.6035 23.709 44.539 23.6797 44.3633C23.6563 44.2051 23.5742 44.1758 23.4395 44.2695Z" fill="white"/>
<path d="M49.8066 44.5271C49.7422 44.6033 49.6484 44.6677 49.6074 44.6677C49.5547 44.6677 49.5312 44.7498 49.5312 44.9021C49.5312 45.0838 49.5605 45.1541 49.6777 45.2302C49.8711 45.3591 50.1641 45.2888 50.2344 45.1013C50.2695 45.0193 50.3398 44.9607 50.4102 44.9607C50.5625 44.9607 50.5566 44.9138 50.3809 44.6619C50.1992 44.3865 49.9766 44.3338 49.8066 44.5271Z" fill="white"/>
<path d="M23.6034 45.5469C23.5448 45.6465 23.6327 45.8398 23.7441 45.8398C23.9023 45.8398 23.9901 45.7227 23.9198 45.5938C23.8612 45.4824 23.662 45.4531 23.6034 45.5469Z" fill="white"/>
<path d="M23.7558 46.2264C23.7558 46.2909 23.7734 46.3085 23.7909 46.2616C23.8085 46.2206 23.8027 46.1679 23.7851 46.1503C23.7675 46.1268 23.7499 46.162 23.7558 46.2264Z" fill="white"/>
<path d="M25.0977 46.2207C25.0977 46.2676 25.1387 46.3086 25.1855 46.3086C25.2324 46.3086 25.2734 46.2852 25.2734 46.2559C25.2734 46.2266 25.2324 46.1914 25.1855 46.168C25.1328 46.1504 25.0977 46.168 25.0977 46.2207Z" fill="white"/>
<path d="M20.293 46.7771C20.293 46.9587 20.3926 47.0056 20.5156 46.8826C20.6445 46.7537 20.5977 46.6013 20.4395 46.6013C20.3164 46.6013 20.293 46.6306 20.293 46.7771Z" fill="white"/>
<path d="M25.8418 46.7539C25.8184 46.7774 25.8008 46.8359 25.8008 46.8887C25.8008 46.9531 25.8184 46.959 25.8652 46.9121C25.9004 46.877 25.9238 46.8184 25.9062 46.7774C25.8945 46.7422 25.8652 46.7305 25.8418 46.7539Z" fill="white"/>
<path d="M44.7383 47.0176C44.7501 47.0527 44.7852 47.0762 44.8145 47.0762C44.8438 47.0762 44.879 47.0527 44.8907 47.0176C44.9024 46.9824 44.8672 46.9531 44.8145 46.9531C44.7618 46.9531 44.7266 46.9824 44.7383 47.0176Z" fill="white"/>
<path d="M22.9122 47.9257C22.8888 47.9492 22.8888 47.9843 22.9063 48.0136C22.9415 48.0722 23.1055 48.0136 23.1055 47.9433C23.1055 47.8847 22.9649 47.873 22.9122 47.9257Z" fill="white"/>
<path d="M26.4513 48.6758C26.4102 48.7227 26.3868 48.834 26.3985 48.9278C26.422 49.1504 26.6563 49.1914 26.7325 48.9864C26.8497 48.6875 26.6329 48.459 26.4513 48.6758Z" fill="white"/>
<path d="M20.8789 49.0978C20.8789 49.1798 20.8965 49.1798 20.9668 49.1212C21.0137 49.0802 21.0547 49.0392 21.0547 49.0275C21.0547 49.0157 21.0137 49.004 20.9668 49.004C20.9199 49.004 20.8789 49.045 20.8789 49.0978Z" fill="white"/>
<path d="M19.3614 49.3205C19.3145 49.3791 19.297 49.4729 19.3204 49.5608C19.3556 49.6897 19.3907 49.7131 19.5431 49.6955C19.7657 49.6721 19.8829 49.5198 19.7891 49.3674C19.7071 49.2385 19.4552 49.2092 19.3614 49.3205Z" fill="white"/>
<path d="M41.832 49.5081C41.7031 49.637 41.7148 49.801 41.8672 49.9065C42.2363 50.1643 42.6582 49.8596 42.3535 49.5549C42.1895 49.3967 41.9668 49.3733 41.832 49.5081Z" fill="white"/>
<path d="M43.3672 49.5371C43.1445 49.666 43.3027 50.0586 43.5781 50.0586C43.8359 50.0586 43.9473 49.7539 43.7539 49.5664C43.6484 49.4609 43.5137 49.4492 43.3672 49.5371Z" fill="white"/>
<path d="M43.6836 50.8906C43.7246 51.002 43.9063 51.0195 43.9063 50.9141C43.9063 50.8555 43.8535 50.8203 43.7832 50.8203C43.7129 50.8203 43.6719 50.8496 43.6836 50.8906Z" fill="white"/>
<path d="M43.1387 51.1721C43.0742 51.2131 43.0742 51.2541 43.1211 51.3303C43.2031 51.4651 43.4024 51.4651 43.4258 51.3362C43.4492 51.2131 43.2559 51.1018 43.1387 51.1721Z" fill="white"/>
<path d="M26.0469 51.4415C25.9415 51.5118 25.918 51.5821 25.9297 51.7462C25.9473 51.9337 25.9708 51.963 26.0997 51.9806C26.3985 52.0157 26.5626 51.6466 26.3399 51.4474C26.2051 51.3243 26.211 51.3243 26.0469 51.4415Z" fill="white"/>
<path d="M45.6172 51.8867C45.6289 51.957 45.6758 52.0215 45.7227 52.0215C45.8516 52.0215 45.834 51.793 45.7051 51.7695C45.6172 51.752 45.5996 51.7754 45.6172 51.8867Z" fill="white"/>
<path d="M43.2149 52.0625C43.2266 52.1328 43.2735 52.1973 43.3203 52.1973C43.4492 52.1973 43.4317 51.9688 43.3028 51.9453C43.2149 51.9277 43.1973 51.9512 43.2149 52.0625Z" fill="white"/>
<path d="M45.9278 53.1289C45.8106 53.2168 45.8282 53.3867 45.9688 53.4746C46.0391 53.5214 46.0918 53.5156 46.1563 53.4628C46.3672 53.2871 46.1504 52.9648 45.9278 53.1289Z" fill="white"/>
</g>
<defs>
<filter id="filter0_i_374_3790" x="0" y="0" width="70" height="70" filterUnits="userSpaceOnUse" color-interpolation-filters="sRGB">
<feFlood flood-opacity="0" result="BackgroundImageFix"/>
<feBlend mode="normal" in="SourceGraphic" in2="BackgroundImageFix" result="shape"/>
<feColorMatrix in="SourceAlpha" type="matrix" values="0 0 0 0 0 0 0 0 0 0 0 0 0 0 0 0 0 0 127 0" result="hardAlpha"/>
<feOffset/>
<feGaussianBlur stdDeviation="7.5"/>
<feComposite in2="hardAlpha" operator="arithmetic" k2="-1" k3="1"/>
<feColorMatrix type="matrix" values="0 0 0 0 0 0 0 0 0 0 0 0 0 0 0 0 0 0 1 0"/>
<feBlend mode="normal" in2="shape" result="effect1_innerShadow_374_3790"/>
</filter>
<clipPath id="clip0_374_3790">
<rect width="70" height="70" fill="white"/>
</clipPath>
</defs>
</svg>
