<svg width="70" height="70" viewBox="0 0 70 70" fill="none" xmlns="http://www.w3.org/2000/svg">
<g clip-path="url(#clip0_374_3767)" filter="url(#filter0_i_374_3767)">
<path d="M31.192 0.168003C30.912 0.392003 31.01 1.316 31.304 1.204C31.402 1.162 31.71 1.092 31.976 1.036C32.62 0.924003 32.69 0.784003 32.382 0.350003C32.102 -0.0279968 31.556 -0.111997 31.192 0.168003Z" fill="black"/>
<path d="M38.7381 0.825981C38.5141 0.965981 38.0801 1.13399 37.7581 1.18999C37.2821 1.27399 37.2261 1.30199 37.4501 1.39999C37.7161 1.49799 37.7021 1.51199 37.3801 1.58199C37.1841 1.62399 36.6941 1.70798 36.2741 1.74998C35.5881 1.83398 35.4901 1.80598 35.2241 1.48399C35.0561 1.30199 34.7061 1.10599 34.4401 1.04999C34.0341 0.965981 33.9781 0.97998 34.1321 1.13399C34.6221 1.65199 33.9501 1.88998 33.3201 1.39999C32.9841 1.14799 32.9701 1.14799 32.6901 1.39999C32.4661 1.59599 32.0181 1.69398 30.5621 1.80598C29.5541 1.90398 28.4201 2.05798 28.0421 2.16998C27.1181 2.44998 27.1041 2.42198 27.9721 2.02998C28.4061 1.83398 28.7001 1.60999 28.7001 1.46999C28.7001 1.23199 28.6021 1.18999 27.8321 1.04999C27.3421 0.97998 27.3001 0.99398 27.3001 1.31599C27.3001 1.55399 27.1461 1.76398 26.8521 1.97398C26.6001 2.14198 26.3621 2.30998 26.3341 2.33798C26.3061 2.35198 26.3621 2.63198 26.4601 2.95399C26.6281 3.45798 26.6981 3.51398 27.0341 3.47198C27.2581 3.42999 27.3841 3.47198 27.3421 3.54198C27.1881 3.80798 26.3061 4.05998 25.5921 4.05998C24.8641 4.04598 24.8501 4.04598 25.2701 3.86398L25.6901 3.68198L25.1721 3.42999C24.7381 3.21999 24.5841 3.20599 24.2761 3.34599C23.8421 3.54198 23.6881 3.45798 23.9401 3.14999C24.0381 3.02399 24.0941 2.91199 24.0661 2.88399C23.9961 2.82799 20.4681 3.84998 18.7601 4.40999C17.1221 4.94199 15.0641 6.01999 14.1681 6.80399C13.4261 7.44799 13.3841 7.62999 13.9301 7.72799C14.0841 7.75599 14.2101 7.83998 14.2101 7.90998C14.2241 7.99398 14.2801 8.20399 14.3361 8.38599L14.4481 8.72198L14.6301 8.28799C14.8541 7.76999 15.2461 7.50399 16.3101 7.12598C17.1781 6.81799 17.3881 6.85999 17.0381 7.23798C16.7861 7.53199 16.3241 8.66599 16.1701 9.37999L16.0721 9.86999L16.4921 9.30999C16.7161 9.00199 17.2901 8.38599 17.7661 7.95198C18.4801 7.27999 18.6201 7.06998 18.6341 6.64999C18.6481 6.38398 18.6621 6.07598 18.6761 5.97798C18.7041 5.57198 19.6701 5.30598 19.9921 5.62798C20.1181 5.75398 20.0061 5.94998 19.5301 6.45399C19.1801 6.83199 18.9001 7.23798 18.9001 7.36399C18.9001 7.53199 19.0681 7.41999 19.4601 6.99998C19.9221 6.49599 20.0621 6.42599 20.3841 6.49599C20.8041 6.60799 21.2801 6.32798 20.9721 6.14598C20.8741 6.08998 20.8321 6.00599 20.8601 5.97798C21.1681 5.73998 23.0861 4.61999 23.2121 4.61999C23.4501 4.61999 23.5621 5.20798 23.3941 5.61398C23.3241 5.82398 23.0161 6.10398 22.7221 6.25798C22.4281 6.41198 21.7001 6.78999 21.0981 7.11198C20.2441 7.57399 19.8661 7.69999 19.3201 7.69999C18.7321 7.69999 18.6201 7.74199 18.6201 7.96598C18.6201 8.10599 18.7181 8.30199 18.8301 8.39999C18.9421 8.49799 19.0401 8.65199 19.0401 8.76398C19.0401 9.04399 18.3261 9.49199 17.5561 9.67398C17.1781 9.77199 16.3801 10.08 15.7921 10.388C15.0221 10.766 14.7001 10.864 14.7001 10.724C14.7001 10.626 14.8541 10.108 15.0641 9.58998C15.2601 9.05799 15.4001 8.46999 15.3721 8.27399C15.3021 7.68599 14.9381 7.83998 14.7001 8.56799C14.5321 9.11399 14.4481 9.21199 14.2101 9.15599C14.0561 9.11399 13.6921 9.18399 13.3981 9.30999C13.1181 9.42199 12.8801 9.47799 12.8801 9.42199C12.8801 9.36599 13.1181 9.07199 13.3981 8.76398L13.9301 8.21799L13.0901 8.80598C12.6281 9.14199 11.6901 9.78599 10.9901 10.262C9.77207 11.088 8.12007 12.586 8.12007 12.838C8.12007 12.908 8.30207 12.95 8.54007 12.908C9.15607 12.824 9.08607 13.118 8.19007 14.21C7.77007 14.714 7.42007 15.176 7.42007 15.204C7.42007 15.33 7.57407 15.246 8.03607 14.84C8.31607 14.588 8.55407 14.476 8.61007 14.546C8.65207 14.63 7.95207 15.428 7.05607 16.31C5.44607 17.92 5.43207 17.948 5.53007 18.452C5.64207 19.04 5.88007 19.39 5.88007 18.956C5.88007 18.144 6.49607 16.8 6.87407 16.8C7.08407 16.8 7.01407 17.248 6.49607 19.264C6.21607 20.342 5.95007 21.714 5.89407 22.33L5.81007 23.45L5.29207 22.61C4.99807 22.148 4.76007 21.868 4.76007 21.994C4.76007 22.12 4.41007 22.652 3.99007 23.17C3.57007 23.674 3.22007 24.122 3.22007 24.15C3.22007 24.164 3.12207 24.416 3.01007 24.696C2.89807 24.976 2.82807 25.2 2.85607 25.2C2.88407 25.2 3.12207 24.878 3.37407 24.472L3.83607 23.758L4.01807 24.164C4.27007 24.752 4.24207 25.228 3.85007 27.3C3.50007 29.19 3.43007 30.366 3.64007 30.87C3.75207 31.122 3.76607 31.122 3.76607 30.786C3.78007 30.338 4.10207 29.89 4.31207 30.016C4.52207 30.142 4.52207 30.996 4.32607 31.906C4.11607 32.9 3.86407 33.012 3.94807 32.06L4.01807 31.332L3.55607 31.402C2.99607 31.5 2.99607 31.486 2.85607 29.61C2.81407 28.84 2.71607 28.07 2.64607 27.888C2.46407 27.412 2.12807 27.51 2.01607 28.07C1.89007 28.784 2.04407 29.666 2.66007 31.57C3.26207 33.446 3.45807 34.3 3.26207 34.3C3.19207 34.3 2.94007 34.034 2.68807 33.712C2.21207 33.096 2.14207 33.138 2.39407 33.852C2.47807 34.09 2.61807 34.272 2.70207 34.258C2.81407 34.244 2.87007 34.594 2.87007 35.462C2.87007 36.134 2.84207 36.68 2.80007 36.68C2.75807 36.68 2.52007 36.554 2.28207 36.4L1.82007 36.12L1.83407 36.512C1.84807 37.296 2.03007 38.15 2.17007 38.108C2.33807 38.052 3.09407 41.006 3.52807 43.428C3.71007 44.394 3.89207 45.136 3.93407 45.052C4.04607 44.87 4.41007 45.528 4.55007 46.186C4.71807 46.942 4.88607 46.41 4.81607 45.36L4.76007 44.45L4.97007 45.22C5.09607 45.64 5.25007 46.662 5.32007 47.488C5.39007 48.328 5.53007 49.294 5.61407 49.658L5.78207 50.302L6.03407 49.994L6.28607 49.686L6.48207 50.162C6.91607 51.198 6.93007 51.282 6.55207 51.212L6.20207 51.142L6.52407 51.632C6.70607 51.898 6.86007 52.262 6.86007 52.43C6.86007 52.71 7.37807 53.34 7.60207 53.34C7.65807 53.34 7.67207 53.172 7.61607 52.962C7.57407 52.738 7.82607 53.088 8.17607 53.718C8.52607 54.362 8.82007 55.02 8.82007 55.202C8.82007 55.86 9.43607 56.756 10.5001 57.61C11.0741 58.086 11.6201 58.604 11.7041 58.772C11.8581 59.08 13.8741 60.998 15.3161 62.188C16.3661 63.07 18.2561 64.33 19.6421 65.1C20.2861 65.45 20.6781 65.744 20.5801 65.8C20.4261 65.898 24.6121 68.292 26.0821 68.936C27.6781 69.636 29.0781 70 30.1841 70C30.7441 70 31.2201 69.958 31.2201 69.916C31.2201 69.874 31.1501 69.72 31.0801 69.566C30.9821 69.384 30.9821 69.3 31.0801 69.3C31.1501 69.3 31.2201 69.188 31.2201 69.048C31.2201 68.824 31.4441 68.81 34.0481 68.81C37.1001 68.81 38.7101 68.614 41.3281 67.97C42.1121 67.774 42.7701 67.62 42.7841 67.62C42.8121 67.62 42.8401 67.914 42.8401 68.292C42.8401 69.104 43.1341 69.58 43.6381 69.58H44.0021L43.6101 69.216C43.2881 68.922 43.2321 68.782 43.3021 68.362C43.4001 67.802 43.7081 67.41 44.2681 67.116C44.6321 66.92 44.6601 66.934 44.6601 67.186C44.6601 67.732 45.0661 67.76 47.1241 67.396C48.1881 67.214 49.2381 67.018 49.4621 66.976C49.7981 66.892 49.8401 66.92 49.8401 67.256C49.8401 67.676 49.8681 67.69 50.7641 67.41C51.1421 67.298 51.4641 67.2 51.4921 67.2C51.5061 67.2 51.5201 67.424 51.5201 67.69C51.5201 67.998 51.4361 68.222 51.2821 68.306C51.1421 68.39 51.0861 68.46 51.1421 68.46C51.3381 68.46 52.1081 67.872 52.0241 67.802C51.9821 67.76 52.0801 67.536 52.2341 67.326L52.5141 66.92H51.8981C51.5481 66.92 51.0861 66.878 50.8481 66.836C50.4701 66.766 50.4281 66.71 50.5401 66.486C50.6241 66.346 50.6801 66.024 50.6801 65.772V65.296L51.7441 65.394L52.8081 65.506L53.2281 65.03C53.4521 64.764 54.1241 64.288 54.7121 63.952C55.3001 63.63 56.0141 63.14 56.2661 62.874C56.5321 62.594 56.7001 62.468 56.6301 62.58C56.5601 62.706 56.6301 62.692 56.8121 62.524C57.1621 62.23 57.2461 62.02 56.9101 62.3C56.7561 62.426 56.7001 62.426 56.7001 62.314C56.7001 62.23 56.7981 62.118 56.9101 62.076C57.0221 62.02 57.1201 61.88 57.1201 61.74C57.1201 61.614 57.3021 61.25 57.5401 60.928L57.9461 60.354L57.2041 60.62C56.5461 60.844 54.8101 61.18 54.3061 61.18C54.2081 61.18 54.3341 60.956 54.6001 60.69C54.9641 60.312 55.1181 60.242 55.3141 60.354C55.5241 60.466 55.6501 60.382 56.0141 59.892C56.2521 59.556 56.5741 59.038 56.7281 58.73C57.0221 58.156 58.3941 56.238 58.7861 55.86C58.9121 55.734 59.4161 55.146 59.9201 54.53C60.4241 53.914 61.2641 52.906 61.7961 52.29C63.0421 50.834 64.6101 48.454 65.5201 46.648C66.0941 45.486 66.2901 45.206 66.5001 45.262C66.7241 45.318 66.7521 45.206 66.8081 44.366C66.8361 43.848 66.9061 43.372 66.9481 43.33C67.0041 43.274 67.1861 43.33 67.3681 43.456C67.9981 43.904 68.0821 43.778 67.9701 42.588C67.8301 41.076 67.8441 40.11 68.0261 39.802C68.1101 39.662 68.1801 39.62 68.1801 39.718C68.1801 39.928 68.6981 40.222 68.8801 40.11C68.9641 40.054 68.8661 39.732 68.6701 39.326C68.3761 38.766 68.3481 38.64 68.5301 38.64C68.6561 38.64 68.8661 38.374 69.0201 38.024C69.1601 37.688 69.3421 37.394 69.4261 37.366C69.5101 37.324 69.4121 36.68 69.1601 35.574C68.6561 33.502 68.6421 33.236 69.0341 33.138C69.3001 33.068 69.3141 33.096 69.2301 33.558C69.1741 33.908 69.2021 34.09 69.3281 34.174C69.9161 34.552 70.0141 34.076 69.5801 32.816C69.4121 32.368 69.2861 31.696 69.2861 31.346C69.2721 30.73 69.2581 30.702 68.9221 30.772L68.5581 30.842L68.6001 28.966C68.6701 26.11 68.6701 26.096 68.1941 25.816C67.8441 25.62 67.7041 25.326 67.2841 23.996C66.6681 22.092 65.6461 19.782 64.7641 18.298C64.4141 17.696 64.1201 17.108 64.1201 17.01C64.1201 16.912 63.8541 16.52 63.5181 16.156C63.1961 15.778 62.5521 14.994 62.0901 14.42C60.9561 12.992 58.8421 10.906 57.3861 9.77199C56.2941 8.91799 53.5361 7.08398 53.1581 6.95798C53.0741 6.92999 53.2281 6.63599 53.5361 6.25798C54.1241 5.54398 54.1521 5.12399 53.6481 4.78799C53.3261 4.57799 53.3261 4.57799 53.4941 4.94199C53.6341 5.24998 53.6201 5.37598 53.4241 5.65598C53.0881 6.17398 52.6821 6.34198 52.0381 6.24398C51.7161 6.18798 51.3941 6.08998 51.3101 6.03399C51.2401 5.96398 50.9321 5.83798 50.6381 5.73998C50.1481 5.58598 50.1201 5.55798 50.3161 5.33398C50.4421 5.19398 50.5401 5.01199 50.5401 4.92799C50.5401 4.59199 49.6581 3.79398 48.4121 2.96799C46.9981 2.04398 46.5781 1.97398 46.0881 2.58998L45.8361 2.89799L45.1641 2.11398C44.4921 1.34399 44.4641 1.32999 43.6941 1.31599C43.2601 1.31599 42.5041 1.17599 42.0001 1.02199C41.4961 0.867981 40.6561 0.699982 40.1101 0.643982C39.2981 0.587982 39.0601 0.615982 38.7381 0.825981ZM39.4381 0.783981C39.3961 0.825981 39.2701 0.839981 39.1721 0.797981C39.0601 0.755981 39.1021 0.713982 39.2561 0.713982C39.4101 0.699982 39.4941 0.741982 39.4381 0.783981ZM49.3921 5.01199C49.5881 5.30598 49.5881 5.31998 49.1541 5.16599C48.7201 5.01199 48.6361 4.89999 48.8181 4.70399C48.9581 4.56399 49.1681 4.67599 49.3921 5.01199ZM12.0121 10.388C11.9001 10.57 11.5361 11.186 11.2001 11.76C10.8641 12.334 10.5701 12.824 10.5561 12.852C10.5421 12.88 10.3741 12.824 10.2061 12.726L9.88407 12.558L10.2621 12.264C10.4721 12.096 10.6401 11.9 10.6401 11.83C10.6401 11.676 12.0121 10.08 12.1381 10.08C12.1801 10.08 12.1241 10.22 12.0121 10.388ZM9.80007 18.578C9.64607 18.816 9.64607 18.816 9.71607 18.578C9.75807 18.438 9.80007 18.242 9.81407 18.158C9.81407 18.032 9.84207 18.032 9.88407 18.158C9.92607 18.256 9.88407 18.438 9.80007 18.578ZM11.6201 19.446C11.6201 19.516 11.5221 19.642 11.4101 19.74C11.2421 19.88 11.2001 19.88 11.2001 19.712C11.2001 19.6 11.2421 19.46 11.2981 19.418C11.4241 19.278 11.6201 19.292 11.6201 19.446ZM9.94007 19.796C9.94007 19.824 9.98207 19.95 10.0241 20.062C10.0661 20.188 9.88407 20.426 9.54807 20.692L9.01607 21.126L9.22607 20.426C9.38007 19.936 9.50607 19.74 9.68807 19.74C9.82807 19.74 9.94007 19.768 9.94007 19.796ZM10.5981 20.384C10.5141 20.678 9.98207 21.602 9.42207 22.428C8.86207 23.268 8.13407 24.458 7.81207 25.088L7.21007 26.25L7.16807 24.262C7.14007 22.386 7.15407 22.246 7.44807 21.91C7.61607 21.714 7.82607 21.56 7.93807 21.56C8.03607 21.56 8.21807 21.406 8.34407 21.21C8.59607 20.818 8.82007 20.86 8.82007 21.294C8.82007 21.924 9.89807 21.196 10.3881 20.258C10.7241 19.586 10.8221 19.642 10.5981 20.384ZM68.4601 27.496C68.4601 28.112 68.2221 27.762 68.1241 27.02C68.0401 26.418 68.0401 26.404 68.2361 26.74C68.3621 26.936 68.4461 27.272 68.4601 27.496ZM6.38407 27.286C6.49607 27.188 6.62207 27.16 6.67807 27.202C6.81807 27.342 6.14607 28.84 5.93607 28.84C5.54407 28.84 5.23607 27.664 5.47407 27.048L5.61407 26.67L5.90807 27.062C6.13207 27.37 6.23007 27.412 6.38407 27.286ZM47.1801 66.15C47.1801 66.29 47.0401 66.36 46.7321 66.36L46.2701 66.346L46.6201 66.15C47.0681 65.898 47.1801 65.898 47.1801 66.15ZM45.9481 67.158C46.1441 67.41 45.7101 67.55 45.2481 67.396C44.7161 67.214 44.7161 66.948 45.2481 66.724C45.6681 66.542 45.7101 66.542 45.7661 66.752C45.7941 66.878 45.8781 67.074 45.9481 67.158ZM30.7301 68.754C30.9261 68.95 30.2261 68.894 29.7501 68.684C29.3301 68.488 29.3441 68.488 29.9601 68.558C30.3101 68.6 30.6461 68.684 30.7301 68.754Z" fill="black"/>
<path d="M35.7421 1.21777C35.9521 1.24577 36.2881 1.24577 36.5121 1.21777C36.7221 1.18977 36.5401 1.16177 36.1201 1.16177C35.7001 1.16177 35.5181 1.18977 35.7421 1.21777Z" fill="black"/>
<path d="M50.9319 4.95577C51.0999 5.17977 51.2399 5.47377 51.2399 5.62777C51.2399 5.78177 51.3099 5.85177 51.3799 5.80977C51.6599 5.64177 51.5059 5.19377 51.0719 4.87177L50.6099 4.54977L50.9319 4.95577Z" fill="black"/>
<path d="M4.64803 18.8018C4.32603 19.1518 4.25603 19.5298 4.48003 19.6698C4.56403 19.7118 4.62003 19.8938 4.62003 20.0618C4.63403 20.3698 4.63403 20.3698 4.84403 20.0898C5.02603 19.8378 5.02603 19.8098 4.84403 19.7678C4.56403 19.7118 4.56403 19.7118 4.83003 19.0818C5.09603 18.4658 5.04003 18.3818 4.64803 18.8018Z" fill="black"/>
<path d="M2.30988 20.7758C2.12788 21.2518 2.11388 21.4478 2.22588 21.6858C2.51988 22.2038 2.65988 21.9938 2.65988 21.0698C2.65988 20.5658 2.63188 20.1598 2.60388 20.1598C2.57588 20.1598 2.43588 20.4398 2.30988 20.7758Z" fill="black"/>
<path d="M1.63796 23.0998C1.41396 23.4918 1.18996 23.7998 1.13396 23.7998C0.993964 23.7998 0.615964 23.3658 0.531964 23.0998C0.489964 22.9878 0.433964 23.1278 0.405964 23.4078C0.363964 23.6878 0.391964 23.8838 0.447964 23.8558C0.503964 23.8138 0.559964 24.0098 0.559964 24.2758C0.559964 24.5558 0.629964 24.7798 0.699964 24.7798C0.783964 24.7798 0.839964 24.7238 0.839964 24.6538C0.839964 24.5698 1.21796 24.2198 1.67996 23.8698C2.50596 23.2258 2.68796 22.9038 2.35196 22.5678C2.09996 22.3158 2.05796 22.3438 1.63796 23.0998Z" fill="black"/>
<path d="M0.699951 25.6198C0.699951 25.7038 0.797951 25.7598 0.909951 25.7598C1.17595 25.7598 1.17595 25.6758 0.909951 25.5638C0.797951 25.5218 0.699951 25.5498 0.699951 25.6198Z" fill="black"/>
<path d="M67.788 44.1699C67.634 44.5199 67.55 46.3259 67.69 46.1719C67.774 46.0879 68.068 43.9459 67.998 43.8759C67.97 43.8479 67.872 43.9739 67.788 44.1699Z" fill="black"/>
<path d="M64.806 49.1679C64.68 49.6439 64.54 50.1479 64.484 50.2739C64.33 50.6099 65.002 50.4559 65.352 50.0639C65.842 49.5459 65.856 49.2099 65.422 48.7199L65.016 48.2719L64.806 49.1679Z" fill="black"/>
<path d="M63.9799 50.9738C63.8819 51.1278 63.8399 51.2958 63.8819 51.3238C63.9099 51.3518 64.0079 51.2258 64.0919 51.0298C64.2879 50.6098 64.1899 50.5678 63.9799 50.9738Z" fill="black"/>
<path d="M63.4339 52.3877C63.1259 53.3117 63.1679 53.3117 63.7559 52.4297L64.1199 51.8697V52.4297C64.1059 52.7377 64.0219 53.1437 63.9099 53.3397C63.4059 54.2217 63.8259 54.6137 64.5959 53.9977C64.9459 53.7037 64.9739 53.6337 64.8339 53.3537C64.7219 53.1717 64.6939 52.8217 64.7639 52.4297C64.8479 51.8417 64.8339 51.7997 64.4699 51.6597C63.8399 51.4217 63.7419 51.4917 63.4339 52.3877Z" fill="black"/>
<path d="M60.774 55.5239C60.774 55.6919 60.41 56.2099 59.99 56.6859C59.248 57.5119 59.052 57.9879 59.36 58.1699C59.612 58.3239 59.514 58.4919 59.122 58.5899L58.73 58.7019L59.136 58.8139C59.416 58.8979 59.626 58.8559 59.878 58.7019L60.228 58.4639L59.906 58.2399C59.416 57.8619 59.64 57.5399 60.41 57.5399H61.04L61.026 56.9379C61.026 56.2799 60.802 55.0619 60.774 55.5239Z" fill="black"/>
<path d="M62.37 55.5937C62.314 55.6777 62.3 55.7617 62.342 55.8037C62.37 55.8457 62.44 55.7757 62.482 55.6497C62.58 55.4117 62.496 55.3697 62.37 55.5937Z" fill="black"/>
<path d="M61.8099 56.7977C61.5999 57.1337 61.4599 57.4417 61.4879 57.4697C61.5019 57.4837 61.7259 57.5537 61.9639 57.5957C62.3419 57.6797 62.4539 57.6377 62.7059 57.3157C63.0979 56.8257 63.0839 56.6717 62.5799 56.3917L62.1739 56.1677L61.8099 56.7977Z" fill="black"/>
<path d="M58.7861 59.5981L58.3101 60.1021L58.7581 59.7941C59.2341 59.4721 59.4301 59.2481 59.3321 59.1361C59.3041 59.1081 59.0521 59.3181 58.7861 59.5981Z" fill="black"/>
<path d="M52.8501 66.6398C52.8081 66.7098 52.8361 66.7798 52.9061 66.7798C52.9901 66.7798 53.0601 66.7098 53.0601 66.6398C53.0601 66.5558 53.0321 66.4998 53.0041 66.4998C52.9621 66.4998 52.8921 66.5558 52.8501 66.6398Z" fill="black"/>
<path d="M48.37 68.1939C47.782 68.7959 47.726 68.8939 48.02 68.8099C48.622 68.6419 49.21 68.2499 49.252 67.9839C49.364 67.4239 49.028 67.5079 48.37 68.1939Z" fill="black"/>
<path d="M45.57 68.0399L45.01 68.2919L45.542 68.3059C45.892 68.3199 46.102 68.2499 46.158 68.1099C46.284 67.7739 46.172 67.7599 45.57 68.0399Z" fill="black"/>
<path d="M37.17 69.0198C35.784 69.1598 33.992 69.2858 33.18 69.2998L31.71 69.3278L33.11 69.5938C33.908 69.7618 35.434 69.9018 36.68 69.9578L38.85 70.0278L38.5 69.7478L38.15 69.4678L38.5 69.3138C38.696 69.2438 39.354 69.1318 39.97 69.0758C40.796 69.0058 40.992 68.9498 40.74 68.8658C40.25 68.7258 40.026 68.7398 37.17 69.0198Z" fill="black"/>
<path d="M36.5996 13.9646C36.2187 14.0466 36.1367 14.1052 35.3339 14.8963L34.5898 15.6345L34.2382 16.572C34.0449 17.0877 33.8515 17.6736 33.8105 17.8845L33.7343 18.2595L33.582 18.0017C33.4941 17.8611 33.3535 17.6736 33.2597 17.5916C32.9843 17.3279 32.164 16.7947 31.707 16.5838C31.1093 16.2966 30.9218 16.2556 31.2499 16.4724C31.3964 16.5662 31.6074 16.7244 31.7187 16.824L31.9238 16.9998L31.5429 16.9119C31.1621 16.824 30.705 16.8299 29.8144 16.9412C29.4628 16.9822 29.4687 16.9822 30.0488 17.0115L30.6347 17.0408L30.2539 17.1111L29.873 17.1814L30.2539 17.1638C30.4648 17.1521 30.6816 17.158 30.746 17.1814C30.8339 17.2166 30.8105 17.24 30.5996 17.322C30.1777 17.4744 29.3984 17.5974 28.5253 17.6502C28.0683 17.6736 27.6464 17.7263 27.5878 17.7615C27.4765 17.8259 27.4824 17.8259 27.623 17.8318C27.705 17.8318 28.0976 17.9197 28.4902 18.031C29.6621 18.3591 29.6679 18.3591 30.7402 17.9841C31.2441 17.8084 31.6601 17.6736 31.6601 17.6912C31.6601 17.7088 31.496 17.7966 31.2968 17.8845C30.7343 18.1365 30.623 18.1892 30.7402 18.1541C30.8632 18.1189 31.5488 18.6345 31.5195 18.74C31.5136 18.7693 31.1386 18.9041 30.6874 19.0388C30.2421 19.1677 29.6914 19.3552 29.4628 19.4548C28.8769 19.7068 28.7714 19.7244 28.496 19.6131C28.2675 19.5193 28.2441 19.5252 27.8456 19.6716C27.623 19.7537 27.3886 19.824 27.33 19.824C27.2656 19.824 27.0898 19.7185 26.9374 19.5896C26.3281 19.0916 25.8124 19.3728 25.4843 20.3806C25.3964 20.6619 25.3671 20.6912 25.0097 20.867C24.6523 21.0427 24.6113 21.0486 24.3359 20.99C24.0956 20.9373 23.9902 20.867 23.6855 20.5564C23.4863 20.3513 23.1523 19.9119 22.9472 19.5779C22.7421 19.2439 22.5019 18.9099 22.4199 18.8279C22.2675 18.6756 22.291 18.7693 22.455 18.9627C22.5078 19.0271 22.3671 18.9802 22.0859 18.8338C21.5878 18.5818 20.9785 18.4119 20.5742 18.4236C20.3281 18.4295 20.3281 18.4295 20.6914 18.5115C20.8964 18.5525 21.1835 18.6463 21.33 18.7107C21.6992 18.8748 22.291 19.3084 22.4785 19.5545C22.6132 19.7302 23.2929 21.0662 23.2636 21.0896C23.2578 21.0955 23.0175 21.2185 22.7363 21.3709C22.2265 21.6345 22.2031 21.6404 21.6874 21.6404C21.0605 21.6404 20.1523 21.4646 19.5488 21.2302C19.3144 21.1423 19.121 21.0779 19.121 21.0896C19.121 21.1423 19.8417 21.4646 20.2636 21.5994C20.8261 21.7752 21.6289 21.9041 21.9101 21.8572C22.0507 21.8338 22.0976 21.8455 22.0742 21.8865C22.0449 21.9334 22.0683 21.9392 22.1445 21.9099C22.2265 21.8748 22.6777 21.74 22.8417 21.699C22.8476 21.699 22.7011 21.8513 22.5195 22.033C22.1796 22.3904 22.0156 22.6716 21.957 22.9998C21.9277 23.1697 21.9335 23.1814 21.998 23.0759C22.1386 22.8357 22.3906 22.6072 23.0585 22.1091C23.7558 21.5818 23.9785 21.4822 24.2128 21.5701C24.3417 21.617 24.3359 21.6228 24.1015 21.7869C23.6562 22.0974 23.5742 22.2381 23.5742 22.7185C23.5742 23.0818 23.5449 23.199 23.3632 23.574C23.246 23.8142 23.0468 24.2654 22.9238 24.5701C22.7949 24.8748 22.6132 25.2088 22.5136 25.3025C22.3964 25.4256 22.3437 25.5427 22.3437 25.6716V25.8533L21.8632 25.6248C21.5996 25.4959 21.2949 25.3787 21.1777 25.3552C21.0605 25.3377 20.8144 25.2732 20.6269 25.2088C20.2402 25.0799 20.123 25.0681 20.3808 25.1853L20.5566 25.2674L20.3984 25.2732C20.3105 25.2732 20.2226 25.2966 20.205 25.3318C20.1874 25.3611 20.0703 25.3904 19.9531 25.3904C19.8007 25.3904 20.0644 25.5017 20.8789 25.7771C21.5058 25.9939 22.0332 26.1756 22.0449 26.1873C22.0624 26.2049 21.9921 26.2986 21.8867 26.4041C21.7871 26.5037 21.5468 26.8259 21.3535 27.1189C21.0722 27.5291 20.996 27.6931 20.996 27.8631C20.996 27.9861 20.9785 28.0857 20.955 28.0857C20.9374 28.0857 20.832 28.0154 20.7207 27.9334C20.5449 27.8045 20.4511 27.7576 20.2871 27.74C20.2402 27.7341 19.332 27.1424 19.0332 26.9197C18.7578 26.7146 18.0019 26.2693 17.9316 26.2693C17.8613 26.2693 18.5351 26.8552 18.7695 26.9959L18.9746 27.1189L18.4765 27.1599C18.0019 27.1951 17.9492 27.1892 17.2519 26.9607C16.6191 26.7498 16.4257 26.6502 15.7578 26.2049C14.6445 25.4607 14.164 25.0564 13.0566 23.9138C12.5117 23.3572 12.0839 22.9353 12.1132 22.9705C12.1367 23.0174 12.1191 23.0466 12.0605 23.0466C12.0078 23.0466 11.9785 23.0232 11.996 22.9998C12.0136 22.9705 11.9902 22.947 11.9433 22.947C11.8437 22.947 11.955 23.0818 13.291 24.5994C13.83 25.2088 14.5273 26.0408 14.8437 26.4451C15.4589 27.2302 16.332 28.156 16.9531 28.6775L17.3339 28.9939L16.8945 28.4841C16.6484 28.2029 16.4023 27.8865 16.3437 27.7869C16.2324 27.5994 16.2324 27.5994 16.3437 27.6463C16.4023 27.6697 16.8593 27.8455 17.3574 28.0388C18.2187 28.367 18.7167 28.6131 18.9746 28.8533C19.1445 29.0056 20.2343 29.7791 20.4277 29.8787C20.7499 30.0486 20.539 30.0193 19.8476 29.7966C19.1328 29.5681 18.7695 29.5213 18.7285 29.6502C18.7109 29.6912 18.746 29.7263 18.7988 29.7263C18.8515 29.7263 18.8808 29.7498 18.8574 29.7791C18.8398 29.8142 18.916 29.8787 19.0273 29.9314C19.1445 29.99 19.2207 30.0603 19.2031 30.1013C19.1738 30.1834 19.6249 30.5525 20.0937 30.8279C20.4042 31.0095 21.9687 31.7185 23.2812 32.2752C24.1542 32.6443 24.4062 32.7673 24.289 32.7732C24.1015 32.7791 23.0351 32.5271 22.7832 32.4216C22.4082 32.2634 22.5019 32.3631 23.0058 32.6736C23.7207 33.1189 23.5507 33.1013 25.9824 32.9724C27.2128 32.908 28.0097 33.0896 29.1289 33.6814C29.4394 33.8455 29.7499 33.9685 29.914 33.9861L30.1953 34.0213L29.996 34.2381C29.8847 34.3611 29.7617 34.5193 29.7265 34.5896C29.6562 34.7185 29.6621 34.7185 29.9374 34.6834C31.121 34.5193 33.998 33.9099 35.3456 33.5349C35.8085 33.4002 36.1953 33.3064 36.207 33.3181C36.2187 33.3298 35.8671 33.4529 35.4218 33.5935C34.9824 33.7283 33.9335 34.0681 33.0956 34.3377C32.2578 34.6131 31.3437 34.8826 31.0566 34.947C30.4062 35.0935 28.3964 35.2341 27.1484 35.2283C26.0292 35.2224 26.1406 35.1756 27.705 35.0115L28.6425 34.9119L28.3085 34.8064C27.5585 34.5662 27.1484 34.5369 25.2734 34.572C23.6269 34.6072 23.4687 34.6013 23.2812 34.5017C23.0703 34.3963 22.5546 34.0271 21.4707 33.2127C21.1308 32.9548 20.6269 32.6209 20.3515 32.4627C20.0761 32.3045 19.6601 32.0291 19.4199 31.8591C19.1855 31.6834 18.9628 31.5603 18.9277 31.5838C18.8984 31.6013 18.8867 31.5896 18.9042 31.5603C18.9277 31.5252 18.8339 31.4256 18.705 31.3377C18.5703 31.2498 18.4824 31.2146 18.5058 31.2498C18.5351 31.2966 18.5234 31.3142 18.4707 31.2966C18.4238 31.2791 18.3886 31.2381 18.3886 31.2029C18.3886 31.1736 18.3652 31.1209 18.3417 31.0916C18.3124 31.0681 18.2949 31.074 18.3007 31.1033C18.33 31.2381 18.2949 31.3025 18.2128 31.2732C18.166 31.2498 18.1425 31.2146 18.1601 31.1853C18.1777 31.156 18.166 31.1326 18.1308 31.1326C18.1015 31.1326 18.0605 31.1795 18.0488 31.2322C18.0253 31.3201 18.0195 31.3259 18.0136 31.2439C18.0019 31.0974 17.8085 31.074 17.6503 31.197L17.5097 31.3025L17.6679 31.2849C17.7558 31.2732 17.8554 31.2908 17.9023 31.3201C17.9609 31.3611 17.9492 31.367 17.8789 31.3435C17.8203 31.3259 17.7734 31.3318 17.7734 31.3611C17.7734 31.3904 17.832 31.4256 17.9082 31.449C17.9843 31.4666 18.0488 31.5193 18.0488 31.572C18.0488 31.6834 18.0546 31.6834 17.7734 31.5369C17.539 31.4138 17.4335 31.4138 17.5097 31.5427C17.5332 31.5779 17.5976 31.5896 17.6621 31.572C17.7441 31.5427 17.7617 31.5545 17.7382 31.6248C17.7207 31.6775 17.7324 31.7185 17.7734 31.7185C17.8085 31.7185 17.8203 31.7478 17.7968 31.7888C17.7734 31.824 17.7792 31.8357 17.8203 31.8123C17.8554 31.7947 17.914 31.8123 17.9609 31.8533C18.0429 31.9353 18.3007 32.0935 18.3652 32.0994C18.3828 32.0994 18.4414 32.1463 18.4999 32.2048C18.5585 32.2576 18.6289 32.2927 18.6582 32.2752C18.6874 32.2517 18.7109 32.2693 18.7109 32.2986C18.7109 32.3338 18.746 32.3631 18.7929 32.3631C18.8398 32.3631 18.8867 32.3865 18.8984 32.4099C18.9101 32.4334 19.1035 32.5564 19.3261 32.6795C19.8066 32.9431 20.3339 33.3298 20.416 33.4939C20.5039 33.6521 20.416 33.7224 20.1054 33.7341C19.7773 33.7517 19.3554 33.8748 19.3554 33.9509C19.3554 33.9861 19.332 33.9978 19.3027 33.9802C19.2734 33.9627 19.2207 33.9861 19.1796 34.033C19.1269 34.0974 19.1269 34.1209 19.1738 34.1209C19.2148 34.1209 19.2324 34.1384 19.2148 34.1677C19.1679 34.2439 19.3437 34.4314 19.4199 34.3787C19.4667 34.3552 19.4785 34.3611 19.4492 34.408C19.4257 34.4431 19.4374 34.5134 19.4726 34.5603C19.5136 34.6072 19.5253 34.6482 19.5019 34.6482C19.4785 34.6482 19.496 34.6951 19.5371 34.7478C19.6132 34.8416 19.6074 34.8474 19.5195 34.7713C19.4609 34.7302 19.4316 34.6716 19.4492 34.6423C19.4667 34.6131 19.4374 34.5896 19.3847 34.5896C19.332 34.5896 19.2734 34.6423 19.2558 34.7068C19.2382 34.7713 19.2031 34.8064 19.1738 34.7888C19.1445 34.7713 19.121 34.7888 19.121 34.824C19.121 34.8591 19.0976 34.8767 19.0683 34.8591C19.039 34.8416 19.0039 34.865 18.9804 34.9119C18.9628 34.9588 18.8867 34.9998 18.8164 34.9998C18.705 35.0056 18.7167 35.0232 18.916 35.1463C19.0449 35.2283 19.1855 35.281 19.2265 35.2634C19.2675 35.2459 19.291 35.2576 19.2734 35.2869C19.2324 35.3513 19.5253 35.4802 19.6015 35.4334C19.6425 35.4099 19.6484 35.4216 19.6249 35.4568C19.5839 35.5271 19.6308 35.5447 19.8359 35.5447C19.8945 35.5447 19.9238 35.5623 19.9121 35.5857C19.871 35.6502 20.0527 35.7146 20.1347 35.6619C20.1757 35.6443 20.1874 35.6443 20.164 35.6736C20.0996 35.7439 21.3476 36.2654 21.8984 36.4002C22.5781 36.5701 23.8261 36.7927 24.746 36.9041C25.1796 36.9627 25.5488 37.0154 25.5605 37.0271C25.6308 37.0916 25.1679 37.1912 24.6816 37.2146C24.0371 37.2381 23.4804 37.156 21.0839 36.6638C18.6582 36.1658 18.1074 36.0134 16.1562 35.2576C15.1015 34.8533 14.0292 34.5017 13.9824 34.5486C13.9707 34.5603 14.3632 34.7244 14.8554 34.9119C16.0917 35.3806 17.2343 35.908 17.9902 36.3591C18.3417 36.5701 18.8867 36.8396 19.2089 36.9568C20.1464 37.3025 20.4101 37.408 20.9023 37.6482C21.1601 37.7713 21.4238 37.8709 21.4882 37.8709C21.705 37.8709 23.1406 38.3806 23.8144 38.697C24.4472 38.99 24.4824 39.0017 24.8574 38.9666C25.0683 38.949 25.4667 38.8787 25.7421 38.8142C26.3925 38.656 27.289 38.5271 28.0097 38.4802C28.6191 38.4392 29.1581 38.5154 29.3515 38.6619C29.4628 38.7498 29.4628 38.7498 29.3515 38.8377C29.1757 38.9724 28.3906 39.2127 27.6347 39.365C27.0956 39.4705 27.0019 39.4998 27.207 39.5056C27.5527 39.5115 28.8476 39.3591 29.416 39.242C30.5058 39.0252 32.0937 38.5095 32.3339 38.3045L32.5097 38.1521L32.5273 38.322C32.5331 38.4099 32.6386 38.6795 32.7617 38.9197L32.9785 39.3591V40.1795C32.9785 40.9588 32.9902 41.0173 33.1191 41.1931C33.2539 41.3748 33.2597 41.4041 33.2187 42.0427C33.2011 42.406 33.166 42.8396 33.1484 43.0037L33.1132 43.3025L33.4238 43.4724C33.6113 43.5779 33.8046 43.742 33.9101 43.8943C34.08 44.1404 34.0859 44.1463 33.9863 44.3103C33.8281 44.5857 33.8574 44.7029 34.1386 44.867C34.2734 44.949 34.5195 45.0427 34.6777 45.0838C34.8417 45.1189 35.1406 45.2478 35.3515 45.365C35.5624 45.4822 35.8027 45.6052 35.8964 45.6463C36.0312 45.7048 36.0546 45.7517 36.0546 45.9509C36.0546 46.3904 36.6464 47.3045 37.2148 47.7322C37.6132 48.0369 37.9765 48.0896 38.3281 47.8904C38.5917 47.7439 38.7617 47.4685 39.0078 46.8123C39.1484 46.4373 39.1601 46.3494 39.1425 45.6287C39.1249 44.949 39.1367 44.8318 39.2304 44.7146C39.3183 44.6033 39.3417 44.5916 39.3886 44.6677C39.4472 44.7556 39.6523 45.4002 39.7167 45.6814C39.7343 45.7693 39.8398 45.9392 39.9453 46.0623C40.1855 46.3318 40.3613 46.6716 40.455 47.0466C40.5429 47.4275 40.6425 47.574 40.8828 47.6853C41.1992 47.8377 41.5624 48.2595 41.5624 48.4763C41.5624 48.6228 41.5917 48.6697 41.7324 48.7166C41.9199 48.781 42.4765 49.4841 42.7167 49.9646C42.7988 50.1287 42.916 50.3338 42.9746 50.4158C43.0507 50.5271 43.0742 50.6267 43.0507 50.7498C43.0214 50.908 43.039 50.9373 43.2031 51.0252C43.3554 51.1072 43.3847 51.1482 43.3554 51.2654C43.3261 51.3709 43.3554 51.4353 43.4609 51.5291C43.5488 51.6052 43.6308 51.7634 43.666 51.9451C43.7304 52.2205 43.7187 52.2498 43.4667 52.7537C43.3203 53.0408 43.2031 53.3162 43.2031 53.3631C43.2031 53.4158 43.1562 53.4744 43.1035 53.5095C43.0097 53.5564 41.6621 53.6736 41.5507 53.6443C41.5214 53.6384 41.5039 53.6736 41.5039 53.7205C41.5039 53.7673 41.5331 53.8084 41.5624 53.8084C41.5976 53.8084 41.621 53.7791 41.621 53.7498C41.621 53.7146 41.6503 53.6912 41.6855 53.6912C41.7324 53.6912 41.7324 53.7205 41.6796 53.7791C41.6386 53.8318 41.5449 53.8552 41.4511 53.8377C41.2636 53.8084 41.0937 53.8904 41.2402 53.9431C41.2929 53.9666 41.3164 53.9607 41.2988 53.9256C41.2812 53.8904 41.2929 53.867 41.3222 53.867C41.3574 53.867 41.3867 53.8845 41.3867 53.908C41.3867 53.9373 41.7792 53.9548 42.2656 53.9607C43.0449 53.9607 43.373 54.0076 43.1621 54.0838C43.1035 54.1072 43.1035 54.1306 43.1679 54.1951C43.2148 54.2361 43.2617 54.3064 43.2734 54.3474C43.3085 54.4412 44.6972 54.4177 45.6874 54.3006C46.1093 54.2478 46.871 54.2068 47.3749 54.2068C47.9726 54.2068 48.3124 54.1834 48.3417 54.1423C48.3652 54.1013 48.3417 54.0955 48.2656 54.1248C48.1835 54.1541 48.1718 54.1482 48.2246 54.0955C48.3007 54.0193 48.4414 54.0779 48.3886 54.1658C48.3652 54.1951 48.4062 54.2185 48.4706 54.2185C48.5351 54.2185 48.6054 54.1892 48.623 54.1599C48.6406 54.1248 48.6874 54.1013 48.7167 54.1013C48.7519 54.1013 48.7636 54.1248 48.746 54.1482C48.7285 54.1775 48.7519 54.2009 48.7988 54.2009C48.8456 54.2009 48.8749 54.1834 48.8632 54.1658C48.8515 54.1482 48.8808 54.0896 48.9335 54.0486C49.0156 53.9724 49.0214 53.9724 48.9921 54.0779C48.9687 54.1834 48.998 54.1951 49.3203 54.2009C49.5195 54.2009 49.6308 54.1951 49.5722 54.1775C49.4726 54.1541 49.4726 54.1423 49.5605 54.0838C49.6367 54.0252 49.5956 54.0134 49.373 54.031C49.1621 54.0427 49.1152 54.031 49.1796 53.99C49.2441 53.9431 49.1796 53.9256 48.9277 53.9256C48.6289 53.9256 48.1835 53.8084 48.1835 53.7263C48.1835 53.6853 48.7343 53.5798 49.2675 53.5154C49.6953 53.4685 50.0585 53.3396 50.791 52.9822C50.8554 52.9529 50.9667 52.9177 51.0371 52.9119C51.1074 52.9119 51.1601 52.8884 51.1542 52.8709C51.1484 52.8533 51.1542 52.8416 51.1718 52.8416C51.1894 52.8416 51.2656 52.7947 51.3476 52.7361C51.4238 52.6834 51.5703 52.6306 51.6699 52.6306C52.0214 52.6131 51.2656 52.531 50.7206 52.5252C50.1523 52.5193 49.9589 52.4373 50.3515 52.3728C50.4804 52.3494 50.6035 52.3377 50.621 52.3435C50.6445 52.3494 50.6796 52.3318 50.6972 52.3025C50.7148 52.2791 50.7851 52.2146 50.8437 52.1677C50.9492 52.0916 50.955 52.0916 50.9081 52.1677C50.8789 52.2205 50.9199 52.2029 51.0019 52.1326C51.0781 52.0681 51.2011 52.0213 51.2773 52.0271C51.3652 52.033 51.4003 52.0095 51.3828 51.9627C51.3652 51.9158 51.3945 51.8923 51.4531 51.9041C51.5058 51.9099 51.5878 51.8923 51.623 51.8631C51.664 51.8279 51.7519 51.8162 51.8164 51.8338C51.8808 51.8513 51.9218 51.8396 51.8984 51.8103C51.8808 51.781 51.8984 51.7576 51.9394 51.7576C52.0507 51.7576 51.9394 51.6697 51.7988 51.6521C51.7285 51.6404 51.3593 51.617 50.9843 51.6052C50.3867 51.5759 50.2929 51.5877 50.2929 51.6638C50.2929 51.7166 50.2636 51.7576 50.2285 51.7576C50.1992 51.7576 50.1816 51.781 50.1992 51.8103C50.2167 51.8396 50.1464 51.8513 50.041 51.8396C49.5078 51.7693 47.996 51.7459 47.9316 51.8103C47.8964 51.8455 47.8378 51.8748 47.8085 51.8748C47.7734 51.8748 47.7851 51.8455 47.832 51.8162C47.8964 51.7752 47.9023 51.7576 47.8437 51.7576C47.8027 51.7576 47.7265 51.7986 47.6796 51.8455C47.6269 51.8923 47.5566 51.9334 47.5214 51.9334C47.4804 51.9334 47.5039 51.8923 47.5624 51.8455C47.6269 51.7986 47.6679 51.7576 47.6503 51.7576C47.5917 51.7576 47.1289 51.9978 47.1289 52.0271C47.1289 52.0388 47.1816 52.0271 47.2402 51.992C47.3046 51.9627 47.3749 51.9334 47.4042 51.9334C47.4277 51.9392 47.3867 51.9744 47.3046 52.0213C47.1933 52.0798 47.1406 52.0857 47.0761 52.033C47.0117 51.9802 46.9999 51.9802 47.0292 52.0271C47.0761 52.1033 46.7656 52.2556 46.6484 52.2088C46.6074 52.197 46.5253 52.2088 46.4726 52.2381C46.3964 52.2732 46.3496 52.2498 46.2851 52.1267C46.1562 51.8631 45.9628 51.1658 45.998 51.0779C46.0156 51.031 45.9746 50.9256 45.8984 50.8494C45.8164 50.7615 45.7812 50.6736 45.8046 50.6033C45.8281 50.5271 45.7636 50.3806 45.5937 50.1463C45.3066 49.742 45.0312 48.9334 44.9843 48.3298C44.9609 48.031 44.8964 47.8084 44.7499 47.5095C44.5507 47.0994 44.5507 47.0994 44.6386 46.8123C44.6855 46.6541 44.7265 46.3728 44.7265 46.1853C44.7265 45.8982 44.6855 45.7634 44.4687 45.3474C44.3281 45.072 44.1992 44.7322 44.1874 44.5916C44.1699 44.4451 44.0234 44.0584 43.8593 43.7302L43.5664 43.1267L43.8183 42.8572C44.0761 42.5818 44.5507 41.7791 44.5507 41.615C44.5507 41.4978 44.1054 40.8533 43.5722 40.2029C43.3437 39.9216 43.0214 39.4705 42.8574 39.1951C42.5585 38.7088 42.0664 38.1873 41.7324 38.0115C41.6386 37.9646 41.5624 37.9119 41.5624 37.9002C41.5624 37.8826 41.7382 37.9588 41.9609 38.0701C42.371 38.281 42.5117 38.4099 43.0156 39.0427C43.2851 39.3826 43.5371 39.6111 43.5839 39.5584C43.5898 39.5466 43.6367 39.0662 43.6894 38.4861L43.7773 37.4314L43.6249 37.0857L43.4726 36.7459L43.6835 36.3298C43.8945 35.9256 43.8945 35.9138 43.8124 35.6502C43.7128 35.3103 43.707 35.1756 43.8066 35.1756C43.9531 35.1756 45.4355 38.4099 45.3886 38.6384C45.371 38.7263 45.4062 38.8318 45.4765 38.9138C45.541 38.9841 45.6113 39.1365 45.6289 39.2478C45.6523 39.3709 45.7285 39.4939 45.8339 39.5642C46.0976 39.7517 46.1503 39.9568 46.121 40.6775C46.1093 41.0291 46.121 41.2869 46.1445 41.2517C46.1679 41.2107 46.1914 41.1404 46.1914 41.0935C46.1914 40.9646 46.4785 40.3787 46.6015 40.2439C46.7011 40.1384 46.707 40.0974 46.6484 39.8923C46.6015 39.74 46.5956 39.658 46.6367 39.6463C46.6718 39.6345 46.6894 39.4295 46.6835 39.1423C46.6777 38.6619 46.5722 38.2986 46.3906 38.0994C46.3437 38.0466 46.1914 37.7068 46.0507 37.3377C45.9101 36.9685 45.5117 36.0017 45.1718 35.1814C44.8261 34.367 44.5566 33.6873 44.5742 33.6697C44.5917 33.6521 44.9667 33.7576 45.4121 33.9041C45.8574 34.0506 46.414 34.2263 46.6484 34.2966C46.9121 34.3728 47.1523 34.49 47.2812 34.6013L47.4863 34.783L47.6445 34.6423C47.7324 34.5662 47.8261 34.4841 47.8554 34.4607C47.9257 34.408 47.7265 34.1795 47.6152 34.1795C47.3456 34.1795 45.8105 33.4412 45.1542 32.9959C44.6093 32.6326 44.1874 32.2517 44.2343 32.1756C44.2988 32.0759 43.9589 31.7888 43.6894 31.7127C43.5195 31.6658 43.4081 31.6013 43.3906 31.531C43.3789 31.4724 43.3261 31.4256 43.2851 31.4256C43.2382 31.4256 43.2031 31.3787 43.2031 31.3142C43.2031 31.2556 43.1855 31.1267 43.1679 31.033C43.1328 30.8689 43.1621 30.8396 43.5956 30.5349C44.0351 30.2185 44.6269 29.6677 44.5214 29.6677C44.4511 29.6677 43.8828 29.99 43.5371 30.2302C43.3789 30.3416 43.2265 30.4295 43.2031 30.4295C43.1796 30.4295 43.1445 30.3064 43.1328 30.1482C43.1093 29.8787 43.1152 29.8611 43.4492 29.5095C43.8242 29.1111 43.8124 29.1463 43.7363 28.947C43.6835 28.8181 43.7246 28.7478 44.0527 28.3611L44.4277 27.9216L44.3456 27.658C44.2636 27.3826 44.0996 27.031 44.0527 27.031C44.0292 27.031 43.5429 27.7341 43.414 27.9509C43.3144 28.1209 43.4374 28.0037 43.7011 27.6756C43.9941 27.3064 44.0937 27.2537 43.9472 27.5408C43.8476 27.7224 43.496 28.0681 43.2441 28.2263C43.0859 28.3259 43.0742 28.3259 43.0039 28.2263C42.9394 28.1384 42.957 28.0857 43.121 27.8631C43.2324 27.7224 43.3027 27.5818 43.2851 27.5525C43.2675 27.5174 43.2148 27.3064 43.1738 27.072C43.1328 26.8377 43.08 26.6091 43.0624 26.5564C43.0156 26.4451 43.3437 25.947 43.7714 25.4783C44.0058 25.2263 44.1054 25.156 44.1933 25.1853C44.2578 25.2029 44.8378 25.3084 45.4824 25.4138C46.1328 25.5193 46.7011 25.6424 46.748 25.6834C46.8828 25.7947 47.3749 26.7263 47.5156 27.1482L47.6445 27.5291L47.8671 27.5232C47.996 27.5174 48.2128 27.4763 48.3476 27.4353C48.582 27.365 48.6113 27.365 48.6816 27.4588C48.7226 27.5115 48.7695 27.6814 48.7929 27.822C48.8398 28.1912 49.1914 28.9295 49.373 29.0525C49.455 29.1052 49.6953 29.1756 49.9121 29.2107L50.3105 29.2752L50.5566 29.6619C50.9609 30.2947 51.0195 30.4236 50.9433 30.5877C50.8613 30.7693 50.8613 30.7634 50.996 30.7986C51.0605 30.8162 51.1425 30.8982 51.1835 30.9861C51.248 31.1267 51.2421 31.156 51.1425 31.2322C51.0253 31.3142 51.0312 31.3201 51.1835 31.4314C51.289 31.5076 51.371 31.6541 51.4355 31.865C51.5234 32.1697 51.5234 32.1873 51.3828 32.5037L51.2363 32.8318L51.4472 33.1306C51.7519 33.5818 51.8339 33.7986 51.7285 33.8865C51.6054 33.9861 51.6171 34.033 51.8164 34.3318C51.9687 34.5486 52.039 34.5955 52.2441 34.6306C52.4023 34.6541 52.5429 34.7244 52.6484 34.8357C52.7304 34.9236 52.8183 34.9998 52.8359 34.9998C52.8535 34.9998 53.0644 34.8533 53.2988 34.6775C53.6093 34.4431 53.7851 34.2498 53.9667 33.9627C54.2011 33.5759 54.207 33.5525 54.1542 33.2713C54.1191 33.1072 54.1132 32.9021 54.1249 32.8142C54.1542 32.6619 54.0898 32.281 53.9199 31.6482C53.8789 31.4959 53.8847 31.3904 53.9257 31.3025C54.0195 31.1326 53.9023 30.9744 53.4277 30.6228C53.1113 30.3884 53.0468 30.3181 53.0761 30.2127C53.0996 30.1013 53.0761 30.072 52.9179 30.031L52.7246 29.9783L52.8886 29.9314C53.0761 29.8787 53.0761 29.8787 52.9355 29.6795C52.8242 29.5154 52.5898 28.9881 52.4023 28.4549L52.2968 28.156L52.4492 28.115C52.6191 28.074 52.9882 27.7517 52.9882 27.6463C52.9882 27.5174 52.3964 27.031 52.2441 27.031C52.2031 27.031 52.0683 27.1189 51.9511 27.2244C51.8281 27.3299 51.5468 27.5174 51.3183 27.6404C51.0956 27.7634 50.8027 27.9451 50.6738 28.0447C50.4511 28.2146 50.4511 28.2088 50.7324 27.9158C50.8964 27.7459 51.2421 27.4646 51.5058 27.283C52.0039 26.9549 52.1562 26.8142 51.957 26.8787C51.8925 26.8963 51.6523 26.9607 51.4121 27.0252C50.996 27.1424 50.9843 27.1424 51.0839 27.0369C51.1367 26.9724 51.3652 26.8259 51.5878 26.7088C52.0214 26.4802 52.039 26.4451 51.9101 26.0759C51.7753 25.7009 51.664 25.6189 51.3476 25.6599L51.0722 25.6951L51.0312 25.4431C51.0078 25.3025 50.9316 25.1091 50.8554 25.0095C50.7792 24.9158 50.6503 24.699 50.5624 24.5291C50.3867 24.1716 50.0996 23.8318 49.9414 23.7791C49.7773 23.7263 49.5195 23.8845 49.0624 24.3064C48.705 24.6287 48.289 24.8689 48.207 24.7927C48.1953 24.7752 48.3007 24.6756 48.4472 24.5701C48.5937 24.4646 48.7753 24.2771 48.8515 24.1658C49.0214 23.9197 49.1679 23.3631 49.0859 23.281C49.0273 23.2224 48.4648 23.492 47.7558 23.9314C47.498 24.0896 47.2812 24.2127 47.2695 24.2009C47.2578 24.1892 47.5039 24.0076 47.8203 23.7966C48.1308 23.5799 48.4531 23.3396 48.5351 23.2517C48.6757 23.0935 48.6816 23.0877 48.5644 23.0232C48.4999 22.9881 48.289 22.8123 48.0956 22.6306C47.9023 22.4549 47.6386 22.2439 47.5097 22.1677C47.164 21.9685 46.8593 21.658 46.5722 21.2302C46.3203 20.8435 45.9394 20.4509 45.5351 20.1521L45.3124 19.9939V20.3923C45.3124 21.3064 44.9492 22.0857 43.7304 23.8084C43.4902 24.1482 43.1796 24.5642 43.039 24.74C42.8984 24.9158 42.664 25.2381 42.5175 25.4607C42.371 25.6775 42.2421 25.8591 42.2304 25.8591C42.1542 25.8591 42.8222 24.617 43.1152 24.2185C43.4257 23.7966 43.373 23.8318 42.6347 24.5349C42.4003 24.7634 42.0136 25.0857 41.7792 25.2615C41.1406 25.7361 39.957 26.533 40.0039 26.4509C40.0273 26.4099 40.4023 26.117 40.8359 25.7947C41.5624 25.2498 41.8085 25.0095 42.4003 24.242C42.5644 24.031 42.4765 24.072 42.2304 24.3181C42.1074 24.4412 42.0722 24.4705 42.1484 24.3767C42.2246 24.2888 42.2656 24.2185 42.2421 24.2185C42.1542 24.2185 41.8085 24.4236 41.4921 24.6697C41.3046 24.8103 41.1523 24.9158 41.1523 24.9041C41.1523 24.8924 41.4101 24.658 41.7265 24.3884C42.9511 23.3396 43.7831 22.408 43.9355 21.9334C43.9648 21.8513 44.0292 21.4177 44.0878 20.9666L44.1874 20.1463L44.1933 21.0545C44.1992 21.8982 44.1874 21.9861 44.0585 22.2673C43.9179 22.572 43.4081 23.3572 43.1796 23.6326C43.1152 23.7146 43.2382 23.6091 43.455 23.3982C43.9355 22.9412 44.0234 22.8064 44.2285 22.197C44.3164 21.9451 44.4511 21.6052 44.5331 21.4529C44.7089 21.1131 44.6914 20.9841 44.3691 20.322L44.1406 19.8591L44.5683 20.281L44.9902 20.7029L45.1249 20.3631C45.1953 20.1756 45.2539 20.0056 45.2539 19.9822C45.2539 19.9177 44.4394 19.4138 44.1992 19.3259C44.0878 19.2849 43.6425 19.2088 43.2206 19.1502L42.4472 19.0447L42.3593 18.7459C42.2656 18.4295 42.0488 18.1834 41.6796 17.9666C41.4277 17.8142 40.332 17.4041 40.291 17.4451C40.2734 17.4568 40.291 17.615 40.332 17.7849C40.414 18.1775 40.4726 19.6365 40.3906 19.3845C40.3613 19.2849 40.2558 18.7927 40.1562 18.283C39.8105 16.5134 39.2597 15.1892 38.58 14.492C38.3046 14.2049 38.1289 14.0701 37.9589 14.0291C37.6308 13.9353 36.8925 13.9002 36.5996 13.9646ZM38.5097 15.1599C38.873 15.6111 39.248 16.3963 39.5351 17.2752C39.8105 18.1365 39.8515 18.3299 39.8925 19.1209C39.9101 19.49 39.9394 19.8884 39.9511 19.9998C39.9746 20.1814 39.9687 20.1931 39.9042 20.0935C39.7636 19.8767 39.4941 19.5838 39.3769 19.5193C39.2597 19.4607 39.2597 19.4724 39.2949 19.9412C39.3183 20.2107 39.3242 20.4158 39.3124 20.4041C39.2949 20.3923 39.207 20.0525 39.1074 19.6482C38.7851 18.365 38.6445 17.9724 38.3281 17.5213C38.2636 17.4334 38.2285 17.3631 38.2402 17.3631C38.2578 17.3631 38.3984 17.5388 38.5507 17.7556C38.9316 18.2947 39.746 19.3142 39.746 19.2556C39.746 19.2322 39.664 18.9158 39.5703 18.5525C39.4765 18.1951 39.4121 17.8494 39.4296 17.7908C39.4589 17.7029 39.4531 17.697 39.3945 17.7732C39.3417 17.8435 39.33 17.8318 39.3593 17.7088C39.3769 17.615 39.33 17.3806 39.2421 17.1228C39.1542 16.8826 39.0898 16.6365 39.0956 16.572C39.1015 16.4256 38.6503 15.4998 38.3808 15.0896C38.2636 14.9256 38.1816 14.7849 38.1933 14.7849C38.205 14.7849 38.3456 14.9549 38.5097 15.1599ZM30.0664 17.6853C29.9492 17.7322 29.7206 17.7791 29.5683 17.7966L29.2871 17.8259L29.5214 17.7674C29.6503 17.7381 29.8378 17.6853 29.9316 17.6619C30.2128 17.5799 30.3066 17.5974 30.0664 17.6853ZM32.3164 17.9314C32.4277 18.0545 32.6562 18.5056 32.6562 18.5935C32.6562 18.6873 32.498 18.6638 32.1992 18.5173C32.0468 18.4412 31.748 18.3299 31.5312 18.2771C31.3085 18.2185 31.1328 18.1541 31.1328 18.1306C31.1328 18.0662 31.8359 17.8435 32.0468 17.8377C32.1523 17.8318 32.2636 17.8728 32.3164 17.9314ZM37.4785 19.1443C38.0292 19.6013 38.2519 19.7361 38.0351 19.49C37.9882 19.4314 37.9238 19.3435 37.9003 19.2966C37.8535 19.2205 37.8593 19.2205 37.9531 19.2908C38.0117 19.3377 38.2285 19.6423 38.4394 19.9646C38.6503 20.2927 38.9257 20.7088 39.0546 20.8904C39.1777 21.0779 39.3476 21.365 39.4238 21.5349C39.5585 21.8338 39.5585 21.8572 39.4765 22.1677C39.4296 22.3435 39.3945 22.5427 39.3886 22.6072C39.3886 22.6716 39.33 22.5252 39.2539 22.2849C39.0664 21.6697 38.7148 20.7791 38.5331 20.4685C38.4453 20.322 38.0175 19.8591 37.5839 19.4314C37.1445 19.0037 36.8105 18.6521 36.8339 18.6521C36.8574 18.6521 37.1503 18.8748 37.4785 19.1443ZM35.5976 18.9802C35.7324 19.0506 35.7558 19.0916 35.7089 19.1384C35.6328 19.2146 35.3515 19.0916 35.3046 18.9568C35.2753 18.8631 35.3808 18.8689 35.5976 18.9802ZM42.8456 20.2341C42.8749 20.2341 42.9804 20.1345 43.08 20.0173L43.2617 19.7947V20.0408C43.2617 20.6033 42.3535 21.9216 41.2343 22.9822C40.5019 23.6736 40.1796 23.908 40.6074 23.4392C40.7773 23.2517 40.9999 22.9412 41.1054 22.742C41.2167 22.5252 41.4101 22.2908 41.5859 22.1443C42.248 21.5994 42.3007 21.5232 42.3417 21.1306C42.3652 20.9314 42.4238 20.6619 42.4765 20.5271C42.541 20.3631 42.5644 20.1814 42.5468 19.9588L42.5175 19.6248L42.6523 19.9295C42.7285 20.0994 42.8105 20.2341 42.8456 20.2341ZM29.1054 20.0408C29.0175 20.2869 28.9941 20.99 29.082 20.7908C29.1171 20.7088 29.1289 20.7908 29.1289 21.0545C29.1289 21.3591 29.1171 21.4002 29.0761 21.2595C29.041 21.1189 29.0351 21.1541 29.0468 21.406C29.0527 21.5818 29.082 21.781 29.1113 21.8455C29.1347 21.9099 29.0761 21.8631 28.9765 21.7341C28.6777 21.3709 28.6015 20.9666 28.7539 20.5388C28.8242 20.3396 29.123 19.824 29.1699 19.824C29.1816 19.824 29.1523 19.9236 29.1054 20.0408ZM31.1679 20.8787C31.291 20.99 31.4785 21.1423 31.5722 21.2185C31.7421 21.3474 31.7421 21.3533 31.6015 21.3123C31.5195 21.2888 31.332 21.2127 31.1796 21.1365C31.0214 21.0545 30.8984 21.0017 30.8984 21.0193C30.8984 21.031 31.0449 21.1423 31.2206 21.2595C31.3964 21.3826 31.5429 21.4939 31.5429 21.5056C31.5429 21.5525 30.957 21.2068 30.8632 21.1072C30.7343 20.9666 30.6113 20.5974 30.6054 20.3572V20.1521L30.7695 20.4158C30.8632 20.5564 31.039 20.7673 31.1679 20.8787ZM26.6152 20.7732C26.6035 21.0603 26.6035 21.072 26.5624 20.8787C26.539 20.7556 26.5156 20.7205 26.5097 20.7908C26.498 20.867 26.4863 20.8787 26.4628 20.8318C26.4335 20.7615 26.5507 20.4685 26.6035 20.4685C26.6152 20.4685 26.6152 20.6091 26.6152 20.7732ZM29.8964 21.1834C29.9785 21.4002 29.9257 21.3943 29.8144 21.1716C29.7675 21.0779 29.7324 20.8728 29.7324 20.7205L29.7382 20.4392L29.7851 20.7322C29.8085 20.8904 29.8613 21.0955 29.8964 21.1834ZM41.8261 20.8142C41.7089 21.6638 40.6894 22.9646 39.7343 23.4861C39.4999 23.615 37.2265 24.4002 37.1855 24.3709C37.1738 24.3591 38.8144 23.5857 39.4765 23.2869C39.6992 23.1873 40.0507 22.9588 40.2499 22.783C40.8183 22.2791 41.5566 21.242 41.7382 20.6853C41.832 20.3865 41.8789 20.4509 41.8261 20.8142ZM30.7636 21.9861C31.0507 22.2498 31.0683 22.2849 30.8984 22.1912C30.7871 22.1326 30.5585 21.9451 30.3945 21.7869C30.1132 21.5056 30.0781 21.447 29.8554 20.7615C29.8437 20.7146 29.9609 20.8963 30.1308 21.1716C30.2949 21.447 30.5761 21.8103 30.7636 21.9861ZM28.1445 20.99C28.1152 21.0955 28.1093 21.2244 28.121 21.2771C28.1503 21.365 28.1445 21.365 28.0917 21.2888C28.0097 21.1716 28.0097 21.0193 28.0976 20.8787C28.1972 20.7263 28.2089 20.7615 28.1445 20.99ZM45.7285 22.0213C45.7929 22.3435 45.7871 22.4197 45.6464 22.9295C45.5644 23.2341 45.4648 23.5623 45.4238 23.6619L45.3476 23.8377L45.3242 23.6736C45.3124 23.5857 45.3476 23.3279 45.3945 23.1052C45.4472 22.8709 45.4882 22.408 45.4941 22.0095C45.4999 21.3826 45.5058 21.3357 45.5761 21.4939C45.6171 21.5935 45.6874 21.8338 45.7285 22.0213ZM46.3671 21.9451C46.5722 22.3728 46.5898 22.6775 46.4316 23.0232C46.3027 23.3103 46.1562 23.4334 46.2089 23.2166C46.3261 22.7127 46.3085 22.0623 46.1621 21.6814C46.1386 21.6287 46.1386 21.5818 46.1562 21.5818C46.1796 21.5818 46.2734 21.7459 46.3671 21.9451ZM43.5839 22.0447C43.4609 22.2966 43.414 22.2732 43.5371 22.0213C43.5898 21.9099 43.6425 21.8279 43.6601 21.8396C43.6718 21.8513 43.6367 21.9451 43.5839 22.0447ZM46.0449 23.158C46.0214 23.2576 45.9863 23.3513 45.9628 23.3689C45.9335 23.3806 45.9453 23.2927 45.9746 23.1638C46.0507 22.8943 46.1035 22.8943 46.0449 23.158ZM44.0878 23.6736C44.0585 23.7322 43.9882 23.8318 43.9355 23.8963C43.8417 24.0076 43.8359 24.0076 43.9179 23.867C44.0703 23.5974 44.0878 23.574 44.1171 23.574C44.1347 23.574 44.1171 23.6209 44.0878 23.6736ZM29.0937 23.9666C29.3222 24.1189 29.3808 24.1306 29.8671 24.1189C30.3828 24.1013 30.3945 24.1072 30.8339 24.3533C31.08 24.4881 31.3554 24.6345 31.4492 24.6873C31.6953 24.8162 32.3046 25.9998 32.3046 26.3513C32.3046 26.5388 32.3515 26.6677 32.4863 26.8552C32.5917 26.9959 32.7499 27.2771 32.8437 27.4822C32.9902 27.7927 33.0136 27.8924 32.9726 28.074C32.9492 28.1912 32.9316 28.3494 32.9374 28.4197C32.955 28.5427 32.9081 28.531 32.1757 28.2263C30.6757 27.5994 30.4296 27.4998 30.33 27.4998C30.2714 27.4998 30.4414 27.617 30.7109 27.7634C31.2851 28.0681 32.4042 28.7888 32.5683 28.9529C32.6328 29.0174 32.7324 29.1521 32.7851 29.2459L32.8906 29.4216L32.2871 29.4978C31.0039 29.6619 30.7871 29.5799 29.832 28.5369C29.2519 27.9099 28.9472 27.4588 28.8183 27.0427C28.7773 26.908 28.7773 26.908 28.9765 27.0017L29.1699 27.0955L29.0234 26.9724C28.9414 26.9021 28.6777 26.697 28.4374 26.5154C28.0449 26.2166 26.8671 25.2966 26.7968 25.2322C26.7851 25.2205 26.832 25.197 26.9023 25.1736C27.0488 25.1384 27.0546 25.1033 27.0312 24.5818L27.0195 24.2185H27.2421C27.3652 24.2185 27.5468 24.2478 27.6523 24.2888C27.8105 24.3416 27.8867 24.3357 28.1152 24.2478C28.2675 24.1892 28.4785 24.072 28.5781 23.9783C28.6777 23.8845 28.7773 23.8084 28.8066 23.8084C28.83 23.8084 28.9589 23.8787 29.0937 23.9666ZM48.8867 24.6931C48.6347 24.8924 48.4941 24.9451 48.7109 24.7576C48.8222 24.658 48.9453 24.5759 48.9746 24.5759C49.0097 24.5759 48.9687 24.6228 48.8867 24.6931ZM50.1757 25.0623C50.123 25.2966 49.9296 25.6306 49.7773 25.7478C49.6835 25.824 49.6835 25.824 49.7773 25.7127C49.9531 25.5017 50.1171 25.074 50.123 24.8045C50.1289 24.5759 50.1347 24.5584 50.1757 24.699C50.1992 24.7869 50.205 24.9509 50.1757 25.0623ZM27.0781 25.7302C27.4238 26.0174 27.8281 26.4158 27.9687 26.615C28.332 27.1131 28.6777 27.6873 28.6367 27.7283C28.6191 27.7459 28.4257 27.5759 28.2148 27.3533C27.8925 27.0134 27.8515 26.9841 27.9687 27.1775C28.0449 27.3064 28.2851 27.6463 28.5019 27.9392C28.7187 28.2263 28.8769 28.4724 28.8476 28.4841C28.8242 28.4959 28.4785 28.3963 28.08 28.2674C27.6816 28.1443 27.1601 27.9802 26.9199 27.9099C26.6855 27.8396 26.3398 27.7166 26.1581 27.6404C25.9765 27.5584 25.7363 27.4822 25.6249 27.4646L25.4199 27.4412L25.7714 27.7634C26.082 28.0447 26.1054 28.0799 25.9824 28.0857C25.9003 28.0857 25.6894 28.0447 25.5136 27.9978C25.332 27.9509 25.0624 27.8982 24.916 27.8806C24.7578 27.8631 24.4589 27.74 24.1601 27.5701C23.7031 27.3123 23.6796 27.2947 23.8554 27.2771C24.1191 27.2478 24.4648 26.8611 24.4179 26.6326C24.3652 26.3806 24.8339 25.7244 25.3144 25.367C25.5488 25.197 25.6015 25.1853 26.0117 25.1912L26.4511 25.2029L27.0781 25.7302ZM24.8632 28.3963C25.5546 28.8357 26.498 29.4978 26.8789 29.8084C27.1425 30.0252 27.4414 30.4998 27.4414 30.7048C27.4414 30.9334 26.3867 30.6052 24.9863 29.9373C24.3535 29.6326 23.6914 29.3279 23.5156 29.2576C23.3398 29.1814 23.1699 29.0994 23.1406 29.0759C23.1113 29.0525 23.1992 28.824 23.3398 28.572C23.539 28.2029 23.58 28.074 23.5566 27.8982C23.539 27.781 23.539 27.6697 23.5566 27.6521C23.5859 27.6228 24.0546 27.8865 24.8632 28.3963ZM20.3398 29.6619C20.6035 29.8318 20.8203 29.9841 20.8203 29.9959C20.8203 30.0662 19.9531 29.5037 19.7363 29.2986C19.6601 29.2224 19.748 29.2752 20.3398 29.6619ZM52.3437 30.4353C52.1914 30.5349 51.6874 30.7869 51.6699 30.7693C51.664 30.7576 51.6347 30.6931 51.6171 30.6228C51.582 30.5115 51.5996 30.4881 51.7402 30.4529C51.8281 30.4353 51.9335 30.4119 51.9628 30.4002C51.998 30.3884 52.1152 30.3767 52.2265 30.3767C52.3847 30.3709 52.414 30.3884 52.3437 30.4353ZM37.414 30.7283C37.8593 30.7986 38.2109 30.8748 38.1933 30.8865C38.1816 30.8982 37.8124 30.8689 37.3671 30.8103C36.9277 30.7576 36.4882 30.7283 36.3945 30.7459C36.2949 30.7634 35.9785 30.8865 35.6914 31.0154C35.0996 31.2791 35.1171 31.2732 35.1171 31.1912C35.1171 31.0857 36.3007 30.5349 36.4648 30.5701C36.5468 30.5818 36.9746 30.658 37.414 30.7283ZM41.2109 30.7869C40.8769 30.9392 40.2206 31.115 39.8046 31.1619C39.3535 31.2205 39.4589 31.1502 39.9394 31.074C40.1621 31.0388 40.5664 30.9334 40.8476 30.8455C41.4453 30.6463 41.58 30.6287 41.2109 30.7869ZM38.3046 31.7185C38.2402 32.2693 38.1992 31.9705 38.2578 31.3728C38.2929 31.0037 38.3105 30.9334 38.3281 31.1033C38.3398 31.2322 38.3281 31.5076 38.3046 31.7185ZM39.0839 31.3494C39.0722 31.4431 39.0605 31.3787 39.0605 31.2205C39.0605 31.0564 39.0722 30.9861 39.0839 31.0564C39.0956 31.1326 39.0956 31.2615 39.0839 31.3494ZM41.9374 31.1384C41.9023 31.2029 41.5507 31.367 41.4628 31.367C41.4218 31.3611 41.9081 31.0857 41.9609 31.074C41.9726 31.074 41.9609 31.1033 41.9374 31.1384ZM18.5175 31.4021C18.4999 31.4197 18.4472 31.4256 18.4062 31.408C18.3593 31.3904 18.3769 31.3728 18.4414 31.3728C18.5058 31.367 18.541 31.3845 18.5175 31.4021ZM18.7402 31.4256C18.7578 31.4548 18.7343 31.4841 18.6816 31.4841C18.6289 31.4841 18.6054 31.4548 18.623 31.4256C18.6406 31.3904 18.6699 31.367 18.6816 31.367C18.6933 31.367 18.7226 31.3904 18.7402 31.4256ZM39.1601 31.8064C39.1601 31.8884 39.1367 31.9529 39.1074 31.9529C39.0839 31.9529 39.0722 31.8884 39.0898 31.8064C39.1015 31.7244 39.1249 31.6599 39.1367 31.6599C39.1484 31.6599 39.1601 31.7244 39.1601 31.8064ZM42.3593 31.947C42.582 32.0408 42.8808 32.1463 43.0273 32.1873C43.1738 32.2283 43.3964 32.3103 43.5253 32.3748C43.8007 32.5154 44.8554 33.1892 44.832 33.2127C44.8085 33.2302 43.3203 32.7498 42.6464 32.5095C42.1718 32.3396 42.0312 32.3162 41.2753 32.2869C40.1269 32.2459 40.0273 32.1345 41.1289 32.117C41.5742 32.117 42.0078 32.1111 42.0898 32.117C42.3183 32.1287 41.8261 31.906 41.5214 31.8591C41.3749 31.8357 41.2871 31.8006 41.3046 31.7654C41.3691 31.6658 41.9257 31.7654 42.3593 31.947ZM40.3964 32.7791C40.666 32.8142 40.9238 32.867 40.9648 32.8904C41.0351 32.9256 40.4843 32.9841 39.1015 33.0955C38.9257 33.1072 38.6855 33.1365 38.5742 33.1541C38.416 33.1775 38.3984 33.1716 38.4863 33.1306C38.7089 33.0252 38.4394 33.0662 37.707 33.242C37.3085 33.3357 36.9687 33.4177 36.9453 33.4177C36.8749 33.4119 37.7304 33.0252 38.0292 32.9256C38.6738 32.7088 39.4941 32.6619 40.3964 32.7791ZM41.7968 33.2713C41.7968 33.2888 41.5273 33.4822 41.1933 33.699C40.6074 34.0857 40.4902 34.1384 39.3652 34.4666C39.1367 34.531 38.621 34.7478 38.2226 34.9412C37.8183 35.1345 37.5429 35.2517 37.6074 35.199C37.8183 35.0291 38.7089 34.6072 39.5703 34.2673C40.039 34.0798 40.7246 33.7752 41.0937 33.5877C41.8437 33.2127 41.7968 33.2302 41.7968 33.2713ZM44.791 35.7791C45.1425 36.617 45.4179 37.3142 45.4062 37.3259C45.3828 37.3494 45.3593 37.2908 44.5859 35.4509C44.2753 34.7127 44.0234 34.0916 44.0234 34.074C44.0292 33.9802 44.1933 34.3435 44.791 35.7791ZM19.8476 34.9529C19.83 34.9763 19.7832 34.9822 19.7363 34.9588C19.6132 34.9177 19.6249 34.8884 19.7597 34.9002C19.8242 34.9002 19.8652 34.9295 19.8476 34.9529ZM36.8456 34.9763C36.4238 35.3045 33.2421 36.7166 33.1484 36.6228C33.1308 36.6111 33.2363 36.5525 33.371 36.4998C33.5117 36.447 34.3613 36.0662 35.2636 35.6502C36.166 35.2341 36.916 34.8884 36.9335 34.8884C36.9511 34.8884 36.9101 34.9295 36.8456 34.9763ZM20.2636 35.0525C20.2812 35.0818 20.2753 35.1228 20.246 35.1404C20.2167 35.158 20.1933 35.1345 20.1933 35.0877C20.1933 34.9881 20.2109 34.9763 20.2636 35.0525ZM39.4238 35.4568C39.0839 35.6619 38.3046 35.99 37.666 36.1951C36.33 36.617 36.4238 36.5525 38.1406 35.8845C39.5351 35.3396 39.7167 35.281 39.4238 35.4568ZM42.8632 36.6697C42.9921 36.9275 43.1269 37.1795 43.1679 37.2322C43.2031 37.2791 43.1328 37.2205 43.0156 37.0916C42.8984 36.9685 42.7402 36.7166 42.6757 36.5349C42.6054 36.3533 42.5117 36.1365 42.4648 36.0545L42.3769 35.908L42.5058 36.0545C42.5703 36.1365 42.7343 36.4119 42.8632 36.6697ZM45.5996 37.7244C45.5996 37.7537 45.5644 37.7185 45.5175 37.6365C45.4706 37.5545 45.4355 37.4607 45.4355 37.4314C45.4355 37.3963 45.4706 37.4373 45.5175 37.5193C45.5644 37.6013 45.5996 37.6892 45.5996 37.7244ZM46.4199 38.3572C46.3027 38.4509 45.6054 38.7966 45.6054 38.7615C45.6054 38.7146 46.291 38.3513 46.3906 38.3455C46.4199 38.3396 46.4316 38.3455 46.4199 38.3572ZM42.0429 40.0974C42.3124 40.0974 42.5937 40.2498 42.9394 40.572C43.1152 40.742 43.2617 40.9002 43.2617 40.9236C43.2617 41.0056 42.664 40.8006 42.2949 40.5955C42.1015 40.49 41.7265 40.2439 41.4687 40.0564C41.205 39.8689 40.9414 39.6814 40.8828 39.6463C40.8183 39.6052 41.0175 39.6931 41.3222 39.8338C41.6269 39.9802 41.9492 40.0974 42.0429 40.0974ZM51.6992 51.7224C51.6992 51.7341 51.6581 51.7634 51.6054 51.781C51.5585 51.7986 51.5351 51.7927 51.5527 51.7576C51.5878 51.699 51.6992 51.6756 51.6992 51.7224ZM47.2695 52.3494C47.2519 52.3787 47.2109 52.3904 47.1816 52.367C47.1523 52.3494 47.1406 52.3084 47.164 52.2791C47.1816 52.2498 47.2226 52.2381 47.2519 52.2615C47.2812 52.2791 47.2929 52.3201 47.2695 52.3494ZM46.9648 52.4256C46.9355 52.531 46.9238 52.5369 46.9062 52.4431C46.8945 52.3904 46.8593 52.3552 46.83 52.3787C46.8007 52.3963 46.789 52.4373 46.8066 52.4666C46.83 52.4959 46.8007 52.5193 46.7539 52.5193C46.707 52.5193 46.6484 52.49 46.6249 52.449C46.6015 52.4138 46.6074 52.4021 46.6425 52.4197C46.6777 52.4431 46.7363 52.4256 46.7714 52.3845C46.871 52.2556 46.9999 52.2849 46.9648 52.4256ZM47.539 52.4314C47.539 52.4724 47.3632 52.5076 47.3398 52.4724C47.3222 52.449 47.3632 52.4197 47.4277 52.4197C47.4863 52.4138 47.539 52.4197 47.539 52.4314ZM47.3046 53.1052C47.3046 53.1463 47.0175 53.2224 46.8593 53.2224C46.8124 53.2224 46.7773 53.1814 46.7773 53.1345C46.7773 53.0759 46.8476 53.0525 47.041 53.0584C47.1874 53.0584 47.3046 53.0818 47.3046 53.1052Z" fill="white"/>
<path d="M42.9689 32.3105C43.0802 32.3867 43.672 32.6562 43.7247 32.6562C43.7774 32.6504 43.0099 32.252 42.9396 32.252C42.9103 32.2461 42.922 32.2754 42.9689 32.3105Z" fill="white"/>
<path d="M28.9825 18.3418C29.0704 18.3535 29.1993 18.3535 29.2754 18.3418C29.3458 18.3301 29.2754 18.3184 29.1114 18.3184C28.9532 18.3184 28.8887 18.3301 28.9825 18.3418Z" fill="white"/>
<path d="M44.0938 21.5235C44.0938 21.6348 44.1055 21.6817 44.123 21.6231C44.1348 21.5703 44.1348 21.4766 44.123 21.418C44.1055 21.3653 44.0938 21.4121 44.0938 21.5235Z" fill="white"/>
<path d="M9.57617 22.5196C9.78711 22.8302 10.4492 23.6857 10.5078 23.7208C10.7891 23.8966 10.1035 22.9708 9.55273 22.4318C9.45898 22.3321 9.45898 22.3497 9.57617 22.5196ZM10.4785 23.5743C10.5371 23.6388 10.5723 23.6915 10.5547 23.6915C10.5371 23.6915 10.4785 23.6388 10.4199 23.5743C10.3613 23.5099 10.3262 23.4571 10.3438 23.4571C10.3613 23.4571 10.4199 23.5099 10.4785 23.5743Z" fill="white"/>
<path d="M18.5938 23.8262C18.5938 23.9961 18.8223 24.2188 18.9922 24.2188C19.0977 24.2188 19.1211 24.1836 19.1211 24.0371C19.1211 23.8906 19.0859 23.8496 18.916 23.7734C18.6406 23.6621 18.5938 23.668 18.5938 23.8262Z" fill="white"/>
<path d="M16.6602 25.824C16.6602 25.8357 16.707 25.8826 16.7656 25.9236C16.8535 25.9998 16.8594 25.9939 16.7832 25.9002C16.707 25.8064 16.6602 25.7771 16.6602 25.824Z" fill="white"/>
<path d="M17.0703 26.1756C17.0703 26.1873 17.1172 26.2341 17.1758 26.2752C17.2637 26.3513 17.2695 26.3455 17.1934 26.2517C17.1172 26.158 17.0703 26.1287 17.0703 26.1756Z" fill="white"/>
<path d="M17.5392 26.3867C17.586 26.416 17.6564 26.4453 17.6857 26.4453C17.7208 26.4453 17.7032 26.416 17.6564 26.3867C17.6095 26.3574 17.545 26.3281 17.5099 26.3281C17.4806 26.3281 17.4923 26.3574 17.5392 26.3867Z" fill="white"/>
<path d="M17.832 26.5625C17.832 26.5918 17.8613 26.6211 17.8965 26.6211C17.9258 26.6211 17.9375 26.5918 17.9199 26.5625C17.9023 26.5273 17.873 26.5039 17.8555 26.5039C17.8438 26.5039 17.832 26.5273 17.832 26.5625Z" fill="white"/>
<path d="M51.2306 26.9727C51.1837 27.002 51.172 27.0312 51.2013 27.0312C51.2364 27.0312 51.3009 27.002 51.3478 26.9727C51.3946 26.9434 51.4122 26.9141 51.3771 26.9141C51.3478 26.9141 51.2774 26.9434 51.2306 26.9727Z" fill="white"/>
<path d="M12.7636 27.465C12.664 27.5353 12.664 27.5411 12.7811 27.5294C12.9335 27.5177 12.9979 27.465 12.9218 27.4181C12.8925 27.4005 12.8222 27.424 12.7636 27.465Z" fill="white"/>
<path d="M20.211 27.5819C20.2286 27.6288 20.2872 27.6815 20.3399 27.705C20.4161 27.7343 20.4161 27.7167 20.3223 27.6171C20.1993 27.4764 20.17 27.4706 20.211 27.5819Z" fill="white"/>
<path d="M13.1151 27.7812C13.2148 27.8515 13.2148 27.9862 13.1151 27.9452C13.0624 27.9277 13.039 27.9335 13.0566 27.9687C13.0976 28.039 13.2382 28.0448 13.2792 27.9804C13.2909 27.957 13.2968 27.9687 13.2851 28.0038C13.2792 28.039 13.3026 28.1093 13.3378 28.1503C13.3964 28.2148 13.3905 28.2148 13.3085 28.1503C13.2148 28.08 13.203 28.0917 13.2206 28.2441C13.2265 28.3788 13.3202 28.4902 13.5839 28.7128C13.7773 28.8769 13.9999 29.0761 14.0761 29.164C14.246 29.3456 14.2987 29.3515 14.4804 29.2109C14.6151 29.1054 14.6151 29.0937 14.5273 28.8886C14.4745 28.7538 14.3808 28.6484 14.287 28.6132C14.1991 28.578 14.0058 28.4667 13.8593 28.3671C13.7069 28.2616 13.5605 28.1855 13.5253 28.1913C13.496 28.203 13.4843 28.1913 13.5136 28.1679C13.5605 28.1152 13.2148 27.7343 13.121 27.7343C13.08 27.7343 13.0741 27.7519 13.1151 27.7812Z" fill="white"/>
<path d="M11.7969 30.0723C11.7969 30.1602 12.4355 30.7168 12.875 31.0098C13.1035 31.168 13.7422 31.5488 14.2871 31.8652C14.8379 32.1758 15.3125 32.4629 15.3535 32.4922C15.4062 32.5332 15.459 32.5215 15.5176 32.457C15.6348 32.3398 15.7051 32.334 15.6113 32.4453C15.5527 32.5156 15.5586 32.5215 15.6582 32.498C15.8164 32.457 15.8691 32.3047 15.7227 32.3047C15.6641 32.3047 15.5938 32.2754 15.5762 32.2461C15.5527 32.2109 15.5117 32.1992 15.4824 32.2168C15.4531 32.2402 15.4297 32.2227 15.4297 32.1875C15.4297 32.1523 15.4004 32.1406 15.3594 32.1641C15.3008 32.1992 15.3008 32.1875 15.3594 32.1172C15.418 32.041 15.418 32.0117 15.3652 31.9766C15.3184 31.9531 15.3125 31.959 15.3359 32C15.3652 32.0469 15.3301 32.0703 15.248 32.0703C15.1484 32.0703 15.1367 32.0527 15.1895 31.9883C15.2422 31.9238 15.1953 31.8711 14.9492 31.7129C14.1699 31.2266 13.4551 30.7285 13.1797 30.4824C12.916 30.248 12.6758 30.0781 12.5996 30.0781C12.5586 30.0781 12.5879 30.3359 12.6348 30.4121C12.7461 30.5879 12.4297 30.459 12.084 30.1895C11.8555 30.0078 11.7969 29.9844 11.7969 30.0723Z" fill="white"/>
<path d="M15.0195 30.1193C15.0195 30.1838 15.6758 30.5471 15.7344 30.5119C15.7754 30.4885 15.7812 30.4943 15.7578 30.5353C15.7227 30.5998 15.7578 30.6174 15.875 30.5998C15.8926 30.5998 15.9746 30.6408 16.0566 30.6935C16.1797 30.7756 16.2148 30.7814 16.2559 30.717C16.2969 30.6525 16.3086 30.6525 16.3086 30.7111C16.3086 30.7521 16.3379 30.7697 16.3672 30.7521C16.4023 30.7346 16.4258 30.7463 16.4258 30.7756C16.4258 30.8107 16.502 30.84 16.5957 30.84C16.6895 30.84 16.7773 30.8635 16.7891 30.8928C16.8008 30.9162 16.9121 30.9572 17.041 30.9807C17.1699 31.0041 17.252 31.0041 17.2285 30.9748C17.1992 30.9514 17.1582 30.9279 17.1406 30.9221C17.0059 30.9045 16.7246 30.7346 16.7598 30.6935C16.7891 30.6701 16.7715 30.6642 16.7305 30.6877C16.6836 30.717 16.6016 30.6877 16.5312 30.6232C16.4492 30.5529 16.4258 30.5471 16.4551 30.6057C16.4961 30.676 16.4902 30.6818 16.4199 30.6291C16.373 30.5881 16.25 30.5412 16.1504 30.5178C16.0449 30.5002 15.957 30.4533 15.957 30.424C15.957 30.3889 16.0039 30.3889 16.0684 30.4299C16.1328 30.4592 16.2207 30.4885 16.2617 30.4826C16.3027 30.4826 16.2676 30.4533 16.1738 30.4182C16.0859 30.3889 16.0332 30.3361 16.0508 30.3068C16.0684 30.2717 16.0273 30.2658 15.9395 30.2834C15.8574 30.3068 15.7754 30.2951 15.752 30.2599C15.7344 30.2248 15.6875 30.2072 15.6582 30.2248C15.6289 30.2482 15.6055 30.2365 15.6055 30.2072C15.6055 30.1779 15.5703 30.1545 15.5352 30.1486C15.1133 30.1076 15.0195 30.1017 15.0195 30.1193Z" fill="white"/>
<path d="M17.6444 30.7111C17.7792 30.7697 17.8729 30.8341 17.8495 30.8634C17.8261 30.8869 17.8319 30.8986 17.8612 30.8927C17.8964 30.881 17.9784 30.9044 18.0546 30.9455C18.2655 31.0626 18.2011 30.9865 17.9433 30.8048C17.8085 30.7169 17.6327 30.6349 17.5448 30.6232C17.4335 30.6115 17.4569 30.6349 17.6444 30.7111Z" fill="white"/>
<path d="M17.2696 31.0862C17.2462 31.1272 17.2462 31.1448 17.2755 31.1213C17.2989 31.0979 17.3633 31.1096 17.4161 31.1506C17.4981 31.2151 17.4981 31.2092 17.4278 31.1155C17.334 30.9983 17.3223 30.9924 17.2696 31.0862Z" fill="white"/>
<path d="M11.0234 31.8009C10.9648 31.8419 10.918 31.8947 10.918 31.9064C10.918 31.9474 11.4922 32.381 11.6738 32.4806C11.791 32.5392 11.8203 32.5392 11.8672 32.4572C11.8965 32.4044 11.9961 32.3634 12.0898 32.3634C12.1895 32.3634 12.2656 32.3458 12.2656 32.3165C12.2598 32.2872 11.3398 31.8009 11.1582 31.7364C11.1406 31.7306 11.0762 31.7599 11.0234 31.8009Z" fill="white"/>
<path d="M15.8574 32.5098C15.8574 32.5508 15.9102 32.6036 15.9688 32.6153C16.0273 32.6329 16.0742 32.6211 16.0742 32.5918C16.0742 32.5625 16.0801 32.5215 16.0918 32.4981C16.0977 32.4805 16.0508 32.4571 15.9805 32.4454C15.9043 32.4336 15.8574 32.4571 15.8574 32.5098Z" fill="white"/>
<path d="M15.6641 32.6036C15.6641 32.6329 15.6934 32.6446 15.7227 32.627C15.7578 32.6094 15.7812 32.5801 15.7812 32.5625C15.7812 32.5508 15.7578 32.5391 15.7227 32.5391C15.6934 32.5391 15.6641 32.5684 15.6641 32.6036Z" fill="white"/>
<path d="M12.3242 34.0975C12.3242 34.1385 13.8242 34.8592 14.0234 34.9119C14.3105 34.9881 13.8066 34.701 13.0801 34.3787C12.3477 34.0506 12.3242 34.0389 12.3242 34.0975Z" fill="white"/>
<path d="M19.1504 37.9178C19.2559 38.0233 19.9649 38.3866 20.1465 38.4217C20.3164 38.4569 20.3164 38.4569 20.2051 38.3631C19.9942 38.1932 19.0098 37.7772 19.1504 37.9178Z" fill="white"/>
<path d="M18.3009 38.5683C18.5763 38.8144 18.6056 38.8671 18.5177 38.9023C18.4591 38.9199 18.4239 38.9726 18.4415 39.0136C18.4825 39.1249 18.3243 39.166 18.1485 39.0956C17.9142 39.0078 17.92 39.0664 18.1661 39.2363C18.4415 39.4179 19.9825 40.2734 20.0763 40.291C20.1173 40.2968 20.1759 40.3437 20.2169 40.3964C20.2579 40.4492 20.3575 40.4785 20.4689 40.4726C20.6095 40.4609 20.6388 40.4785 20.586 40.5371C20.5392 40.5898 20.5509 40.6191 20.6153 40.6484C20.6681 40.666 20.6915 40.7128 20.6681 40.748C20.6446 40.7949 20.6505 40.8007 20.6974 40.7773C20.7442 40.748 20.7501 40.707 20.7091 40.6601C20.6681 40.6132 20.6798 40.5898 20.7618 40.5898C20.8204 40.5898 20.8556 40.6132 20.8439 40.6367C20.8263 40.6601 20.8556 40.6835 20.9083 40.6835C20.961 40.6835 21.0724 40.7304 21.1544 40.7831C21.2423 40.8417 21.295 40.8593 21.2775 40.8242C21.254 40.789 21.2716 40.7597 21.3185 40.7597C21.3653 40.7597 21.3888 40.7831 21.3712 40.8124C21.3536 40.8359 21.3712 40.8593 21.4005 40.8593C21.4357 40.8593 21.465 40.83 21.465 40.8007C21.465 40.7656 21.4942 40.7421 21.5294 40.7421C21.5587 40.7421 21.5704 40.7656 21.5528 40.8007C21.5294 40.8417 21.5646 40.8417 21.6642 40.8007C21.8165 40.7421 21.9161 40.8066 21.8458 40.9179C21.8282 40.9472 21.84 40.9765 21.8692 40.9765C21.9806 40.9765 21.9396 40.8242 21.7989 40.6953C21.711 40.6132 21.6173 40.5781 21.5235 40.6015C21.4064 40.6191 21.4005 40.6191 21.4884 40.5781C21.5821 40.5371 21.5587 40.5019 21.2833 40.3027C21.1075 40.1796 20.9435 40.0566 20.9142 40.0273C20.8439 39.9687 21.131 40.0507 21.4298 40.1796C21.5528 40.2324 21.6759 40.2558 21.7052 40.2382C21.7345 40.2206 21.7521 40.2324 21.7462 40.2675C21.7345 40.3027 21.84 40.3964 21.9747 40.4785C22.1564 40.5898 22.215 40.6074 22.1915 40.5429C22.1739 40.4902 22.1388 40.4609 22.1153 40.4726C22.0978 40.4843 22.0275 40.4609 21.963 40.414C21.9044 40.3671 21.881 40.332 21.9161 40.332C21.9571 40.332 21.9982 40.3554 22.0216 40.3847C22.0509 40.4433 22.1505 40.4374 22.3732 40.3613C22.4552 40.3378 22.4435 40.3496 22.3439 40.414C22.2032 40.496 22.2032 40.5136 22.338 40.5312C22.3673 40.5312 22.4142 40.5546 22.4376 40.5781C22.461 40.6074 22.5196 40.6249 22.5724 40.6249C22.6251 40.6249 22.6427 40.6074 22.6075 40.5781C22.5782 40.5546 22.5431 40.4843 22.5314 40.4199C22.5138 40.3203 22.5372 40.332 22.6603 40.4726C22.754 40.5781 22.8126 40.6132 22.8126 40.5546C22.8126 40.5078 22.8478 40.4257 22.8888 40.3671C22.9591 40.2734 22.9708 40.2675 23.047 40.3613C23.088 40.414 23.0997 40.4492 23.0704 40.4433C22.965 40.4257 22.8712 40.4492 22.8712 40.5019C22.8712 40.5312 22.9357 40.5664 23.0177 40.5781C23.0939 40.5956 23.1466 40.5839 23.129 40.5605C23.1114 40.5312 23.17 40.5136 23.2521 40.5195C23.4044 40.5312 23.4396 40.6894 23.2931 40.7187C23.2521 40.7246 23.2462 40.7187 23.2814 40.7011C23.3107 40.6894 23.3224 40.6484 23.3048 40.6132C23.2872 40.5839 23.2286 40.6132 23.1817 40.6777C23.1349 40.748 23.0704 40.7831 23.0353 40.7656C22.9942 40.7363 22.9884 40.7539 23.0177 40.8007C23.0528 40.8593 23.0411 40.871 22.9708 40.8417C22.9064 40.8183 22.8712 40.8359 22.8712 40.8945C22.8712 40.9472 22.8419 40.9648 22.8009 40.9414C22.7599 40.9179 22.754 40.9238 22.7775 40.9648C22.8009 40.9999 22.8595 41.0117 22.9122 40.9941C22.9825 40.9648 22.9942 40.9765 22.9591 41.0351C22.9298 41.0878 22.9357 41.0996 22.9825 41.0703C23.0177 41.0468 23.0353 40.9999 23.0177 40.9706C22.9942 40.9414 23.006 40.9179 23.0353 40.9179C23.129 40.9179 23.1642 40.9941 23.1056 41.0644C23.0646 41.1171 23.0763 41.164 23.1466 41.2167C23.2403 41.2929 23.2462 41.2871 23.17 41.1933C23.0997 41.1054 23.1056 41.0937 23.1876 41.0937C23.2462 41.0937 23.2696 41.0644 23.2521 41.0351C23.2345 40.9999 23.2755 40.9472 23.3517 40.9179L23.4864 40.8593L23.34 40.8769C23.2579 40.8828 23.1935 40.8593 23.1876 40.83C23.1817 40.7597 23.3985 40.789 23.4923 40.8652C23.5275 40.8945 23.5685 40.9003 23.5919 40.8828C23.6095 40.8652 23.6739 40.8769 23.7325 40.9121C23.797 40.9472 23.8087 40.9765 23.7618 40.9765C23.7208 40.9765 23.6974 40.9999 23.715 41.0292C23.7325 41.0527 23.6915 41.0761 23.6153 41.0703C23.545 41.0703 23.4923 41.0937 23.4982 41.1289C23.504 41.1699 23.4689 41.1874 23.4044 41.1699C23.34 41.1523 23.2989 41.1757 23.2989 41.2343C23.2989 41.3105 23.3165 41.3105 23.3927 41.2519C23.463 41.1933 23.4747 41.1992 23.4396 41.2812C23.422 41.3398 23.4278 41.3984 23.463 41.416C23.4923 41.4394 23.5157 41.4335 23.5099 41.4042C23.4747 41.1992 23.6681 41.1054 23.879 41.2167C24.0021 41.2812 24.0079 41.2812 23.9317 41.1933C23.879 41.123 23.8732 41.0937 23.92 41.0937C23.961 41.0937 23.9728 41.0644 23.9493 41.0175C23.92 40.9765 23.9493 40.9824 24.0138 41.0351C24.0724 41.082 24.131 41.1171 24.1427 41.1054C24.1485 41.0996 24.1778 41.0937 24.2071 41.0937C24.2306 41.0937 24.172 41.164 24.0724 41.2519C23.9786 41.3339 23.9376 41.3867 23.9903 41.3691C24.0431 41.3515 24.1192 41.3691 24.1603 41.4042C24.2189 41.457 24.2247 41.457 24.1954 41.3984C24.172 41.3632 24.1837 41.3281 24.213 41.3281C24.2482 41.3281 24.2775 41.3574 24.2775 41.3867C24.2775 41.4277 24.3126 41.4277 24.3829 41.3984C24.5587 41.3046 24.8165 41.2578 24.7755 41.3281C24.7521 41.3632 24.8107 41.4042 24.9161 41.4218C25.0157 41.4453 25.0978 41.4863 25.0978 41.5156C25.0978 41.5449 25.0392 41.5507 24.9689 41.5331C24.8634 41.5039 24.8517 41.5097 24.922 41.5566C24.9689 41.5917 25.0802 41.6035 25.1681 41.5859C25.2501 41.5683 25.338 41.5859 25.3614 41.6152C25.379 41.6503 25.4493 41.6796 25.5138 41.6796C25.59 41.6796 25.6251 41.7206 25.6251 41.8027C25.6251 41.9081 25.6017 41.9199 25.4669 41.8906C25.1739 41.8203 24.8927 41.7851 24.922 41.8144C24.9513 41.8437 25.1739 41.8906 25.3614 41.9081C25.3966 41.914 25.379 41.9374 25.3321 41.9726C25.2735 42.0078 25.3087 42.0195 25.461 42.0136C25.5782 42.0078 25.6603 41.9843 25.6485 41.9609C25.6368 41.9374 25.6485 41.9081 25.6778 41.8906C25.7482 41.8437 25.9239 41.914 25.8888 41.9667C25.8771 41.9902 25.9005 42.0136 25.9474 42.0136C25.9942 42.0136 26.2755 42.1249 26.5626 42.2656C26.8556 42.4003 27.1075 42.4999 27.1251 42.4824C27.1427 42.4648 27.0079 42.3417 26.8263 42.207C26.6446 42.0722 26.504 41.9492 26.5216 41.9374C26.5333 41.9257 26.8204 42.0429 27.1544 42.1953C27.4884 42.3535 27.963 42.5527 28.2091 42.6406C28.6778 42.8046 29.2696 43.1386 29.9025 43.5898C30.1134 43.7363 30.2247 43.8007 30.1485 43.7363C30.0724 43.6718 30.0255 43.5898 30.0431 43.5605C30.1603 43.373 26.5333 40.707 25.2735 40.0566C25.1271 39.9804 24.8751 39.9101 24.711 39.9042C24.5528 39.8925 24.3946 39.8749 24.3653 39.8574C24.3302 39.8398 24.2482 39.8339 24.1778 39.8398C24.1017 39.8398 24.0431 39.8281 24.0431 39.8105C24.0431 39.7871 23.9728 39.7636 23.8849 39.7578C23.797 39.7519 23.5099 39.6816 23.2462 39.5996C22.6954 39.4296 22.4728 39.4179 22.4259 39.541C22.4025 39.5878 22.3439 39.6289 22.2911 39.6289C22.215 39.6289 22.2091 39.6406 22.2853 39.6816C22.3321 39.7167 22.3907 39.7226 22.4259 39.705C22.4552 39.6874 22.461 39.6992 22.4376 39.7343C22.42 39.7695 22.5021 39.8691 22.6368 39.9628C22.8712 40.1269 22.9239 40.2324 22.8126 40.3027C22.7775 40.3261 22.7657 40.3671 22.7833 40.3964C22.8067 40.4257 22.795 40.4492 22.7599 40.4492C22.7306 40.4492 22.6954 40.4199 22.6837 40.3847C22.6544 40.2968 21.6173 40.0214 21.5939 40.0976C21.5821 40.1328 21.547 40.1562 21.5177 40.1562C21.4825 40.1562 21.4708 40.1328 21.4884 40.1035C21.506 40.0742 21.4884 40.0507 21.4474 40.0566C21.2716 40.0624 21.1544 40.0331 21.1896 39.998C21.2423 39.9511 21.0138 39.8105 20.2052 39.3945C19.8536 39.207 19.256 38.9023 18.8868 38.7089C17.9903 38.246 17.92 38.2285 18.3009 38.5683ZM24.4532 41.2109C24.547 41.2695 24.5294 41.2753 24.2657 41.2929C24.1427 41.3046 24.1192 41.2871 24.172 41.2285C24.2423 41.1406 24.3302 41.1347 24.4532 41.2109Z" fill="white"/>
<path d="M17.2753 39.043C17.3222 39.1191 17.8964 39.4531 17.9785 39.4531C18.0664 39.4473 17.8378 39.2891 17.5156 39.125C17.3632 39.043 17.2519 39.0078 17.2753 39.043Z" fill="white"/>
<path d="M19.1797 40.4197C19.1797 40.4256 19.2851 40.5017 19.414 40.5896C19.7656 40.824 19.6953 40.8943 19.3144 40.6892C19.1328 40.5896 18.9687 40.5193 18.957 40.5369C18.9101 40.5779 19.3027 40.9177 19.3613 40.8826C19.3906 40.865 19.414 40.8767 19.414 40.906C19.414 40.9353 19.4843 41.0056 19.5664 41.0642C19.6718 41.1345 19.707 41.1404 19.6777 41.0877C19.6543 41.0408 19.6894 41.0584 19.748 41.1228C19.8066 41.1931 19.9004 41.281 19.9531 41.322C20.0351 41.3865 20.0468 41.3748 20.0175 41.2635C19.9941 41.1931 20.0058 41.1463 20.0351 41.1638C20.123 41.2166 20.3633 41.0994 20.3164 41.0232C20.2871 40.9763 20.3047 40.9705 20.375 40.9939C20.4336 41.0174 20.4922 41.0349 20.5097 41.0349C20.5273 41.0349 20.5039 41.076 20.4629 41.1345C20.3867 41.2224 20.3925 41.2224 20.5156 41.1463C20.6386 41.0701 20.6972 40.9646 20.6035 40.9881C20.5097 41.0115 20.2929 40.906 20.3222 40.8533C20.3457 40.824 20.334 40.8006 20.2988 40.8006C20.2695 40.8006 20.2343 40.8592 20.2226 40.9295C20.205 41.076 19.959 41.1345 19.959 40.9939C19.959 40.9412 19.9824 40.9353 20.0234 40.9763C20.1054 41.0584 20.1582 41.0525 20.1582 40.947C20.1582 40.8943 20.0996 40.8592 20.0058 40.8533C19.9062 40.8474 19.8886 40.8357 19.959 40.8181C20.0117 40.8064 20.0586 40.7654 20.0586 40.7361C20.0586 40.701 20.0117 40.7068 19.9414 40.742C19.8476 40.7947 19.8125 40.7888 19.7832 40.7127C19.7539 40.6365 19.7422 40.6306 19.7011 40.6951C19.6601 40.7537 19.6484 40.7478 19.6484 40.6658C19.6484 40.6072 19.625 40.5779 19.5898 40.5955C19.5605 40.6131 19.5312 40.6072 19.5312 40.5838C19.5312 40.5545 19.455 40.5017 19.3554 40.4666C19.2617 40.4314 19.1797 40.408 19.1797 40.4197ZM19.8242 40.865C19.8242 40.9002 19.8008 40.906 19.7656 40.8885C19.7363 40.8709 19.707 40.824 19.707 40.7947C19.707 40.7595 19.7363 40.7537 19.7656 40.7713C19.8008 40.7888 19.8242 40.8357 19.8242 40.865Z" fill="white"/>
<path d="M22.5957 40.7715C22.5957 40.8359 22.6191 40.8418 22.6777 40.7949C22.7188 40.7598 22.7539 40.7188 22.7539 40.707C22.7539 40.6953 22.7188 40.6836 22.6777 40.6836C22.6309 40.6836 22.5957 40.7246 22.5957 40.7715Z" fill="white"/>
<path d="M20.8673 40.7832C20.9024 40.7949 20.9728 40.7949 21.0138 40.7832C21.0489 40.7656 21.0196 40.7539 20.9376 40.7539C20.8556 40.7539 20.8263 40.7656 20.8673 40.7832Z" fill="white"/>
<path d="M23.375 40.9767C23.3106 40.9943 23.2871 41.0295 23.3164 41.0529C23.375 41.0881 23.5625 41.0002 23.5156 40.9592C23.4981 40.9416 23.4336 40.9533 23.375 40.9767Z" fill="white"/>
<path d="M23.7148 41.252C23.7383 41.2988 23.7266 41.3281 23.6738 41.3281C23.6328 41.3281 23.5918 41.3691 23.5918 41.416C23.5918 41.4805 23.6152 41.4863 23.668 41.4395C23.709 41.4043 23.7734 41.3926 23.8086 41.416C23.9082 41.4746 23.873 41.3516 23.7676 41.2637C23.7031 41.2051 23.6855 41.2051 23.7148 41.252Z" fill="white"/>
<path d="M23.92 41.457C23.8731 41.627 23.8907 41.6562 24.0489 41.6328C24.1485 41.6152 24.2188 41.6328 24.2188 41.6738C24.2188 41.709 24.2774 41.7324 24.3536 41.7324C24.4473 41.7266 24.459 41.7207 24.3829 41.6973C24.3243 41.6855 24.2774 41.6445 24.2774 41.6152C24.2774 41.5859 24.1895 41.5625 24.0899 41.5566C23.9258 41.5566 23.9141 41.5449 24.0137 41.5039C24.1133 41.4629 24.1133 41.4512 24.0313 41.4512C23.9727 41.4453 23.9258 41.4512 23.92 41.457Z" fill="white"/>
<path d="M24.6874 41.5565C24.6113 41.7088 24.6113 41.7381 24.705 41.7029C24.746 41.6912 24.7812 41.6268 24.787 41.5623C24.7988 41.4158 24.7695 41.4158 24.6874 41.5565Z" fill="white"/>
<path d="M25.6074 42.1721C25.5898 42.2131 25.6074 42.2834 25.6426 42.3186C25.6895 42.3655 25.6602 42.383 25.5312 42.383C25.4258 42.383 25.3496 42.4123 25.3496 42.4592C25.3496 42.5002 25.3965 42.5354 25.4551 42.5354C25.5137 42.5354 25.543 42.5119 25.5312 42.4885C25.5137 42.4651 25.5254 42.4416 25.5547 42.4416C25.584 42.4416 25.625 42.4944 25.6426 42.5647C25.666 42.6467 25.7012 42.6701 25.7539 42.6408C25.8184 42.6057 25.8184 42.6115 25.7539 42.6877C25.6895 42.7698 25.7129 42.799 25.9004 42.9162C26.0234 42.9924 26.1465 43.051 26.1699 43.0393C26.1992 43.0334 26.2051 43.051 26.1875 43.0803C26.1523 43.133 26.8027 43.6487 27.3242 43.9768C27.6406 44.176 28.291 44.4865 28.8887 44.7209C29.0586 44.7854 29.3633 44.926 29.5625 45.0198C30.1367 45.301 29.7617 45.0256 28.9062 44.5451C28.2031 44.1408 27.0781 43.385 27.002 43.2561C26.8848 43.0686 27.1777 43.1389 27.459 43.3674L27.6465 43.5198L27.4414 43.303C27.166 43.0041 26.5859 42.553 26.5391 42.5998C26.5215 42.6174 26.5039 42.6057 26.5039 42.5647C26.5039 42.5237 26.4746 42.5119 26.4336 42.5354C26.3984 42.5588 26.3867 42.553 26.4043 42.5178C26.4277 42.4826 26.3516 42.4006 26.2344 42.3303C26 42.1897 25.9707 42.1838 25.9941 42.2717C26 42.3069 25.9707 42.3537 25.9238 42.3713C25.8652 42.3889 25.8594 42.3713 25.8945 42.3186C25.9297 42.2541 25.9121 42.26 25.8301 42.3244C25.7656 42.3772 25.7363 42.383 25.7656 42.3362C25.7891 42.2951 25.7715 42.2658 25.7187 42.2658C25.6602 42.2658 25.6426 42.2307 25.6602 42.178C25.6836 42.1311 25.6836 42.0901 25.666 42.0901C25.6484 42.0901 25.625 42.1252 25.6074 42.1721Z" fill="white"/>
<path d="M25.2852 42.2482C25.2149 42.26 25.168 42.301 25.1856 42.3303C25.209 42.3596 25.2618 42.3596 25.3262 42.3244C25.3848 42.2951 25.4551 42.2893 25.4786 42.3127C25.5079 42.3361 25.5079 42.3186 25.4844 42.2775C25.461 42.2424 25.4375 42.2131 25.4317 42.2131C25.4258 42.2189 25.3614 42.2365 25.2852 42.2482Z" fill="white"/>
<path d="M58.5489 43.7009C58.543 43.7302 58.543 43.783 58.5489 43.8064C58.5548 43.8357 58.5313 43.8416 58.4962 43.8181C58.461 43.8005 58.4551 43.7537 58.4786 43.7126C58.4962 43.6775 58.4317 43.7068 58.3321 43.783C58.0977 43.947 58.0977 43.9822 58.3145 43.9529C58.4141 43.9412 58.4727 43.9529 58.4551 43.9822C58.4376 44.0115 58.4786 44.0056 58.5489 43.9646C58.6192 43.9294 58.6602 43.8767 58.6426 43.8533C58.6309 43.824 58.6602 43.8064 58.7071 43.8123C58.7598 43.8123 58.8126 43.7771 58.8184 43.7244C58.8301 43.6541 58.795 43.6306 58.6954 43.6365C58.6192 43.6365 58.5489 43.6658 58.5489 43.7009Z" fill="white"/>
<path d="M59.668 44.117C59.0938 44.4393 59.0762 44.4568 59.3809 44.4978C59.6036 44.533 59.6797 44.5154 59.92 44.3631C60.1251 44.2283 60.1954 44.1521 60.1836 44.0643C60.1543 43.8826 60.0782 43.8885 59.668 44.117Z" fill="white"/>
<path d="M27.8573 47.8732C27.8632 47.9435 29.7616 48.8692 30.3417 49.086C30.6347 49.1915 30.9159 49.3028 30.9804 49.3263C31.0624 49.3614 31.0858 49.3556 31.0624 49.2911C31.0097 49.1153 29.5155 48.1896 28.9003 47.9493C28.6132 47.8321 27.8456 47.7794 27.8573 47.8732Z" fill="white"/>
<path d="M32.9492 47.8846C32.9492 47.9256 32.9258 47.9373 32.8906 47.9198C32.8613 47.9022 32.832 47.908 32.832 47.9373C32.832 47.9666 32.7441 48.0311 32.6445 48.0721C32.5391 48.1131 32.4219 48.1893 32.3867 48.2362C32.3516 48.283 32.293 48.3006 32.2578 48.2772C32.2168 48.2537 32.1875 48.2479 32.1875 48.2655C32.1875 48.283 32.2578 48.3358 32.3516 48.3826C32.4395 48.4295 32.6094 48.5584 32.7266 48.6698C32.8906 48.8162 32.9375 48.8983 32.9082 48.992C32.8906 49.0799 32.9023 49.1209 32.9551 49.1209C33.0195 49.1209 33.0195 49.1326 32.9551 49.1737C32.8906 49.2147 32.9316 49.244 33.1016 49.2909C33.8691 49.4901 34.0801 49.5369 34.1094 49.5076C34.127 49.4901 34.1035 49.4725 34.0566 49.4725C34.0098 49.4666 34.0391 49.4315 34.1152 49.3905C34.332 49.2733 34.3262 48.992 34.1035 48.7869C33.8809 48.576 33.5937 48.1307 33.5937 47.9959C33.5937 47.9373 33.5527 47.8905 33.4941 47.8905C33.4355 47.8905 33.2891 47.8729 33.1719 47.8553C33.0195 47.826 32.9492 47.8377 32.9492 47.8846Z" fill="white"/>
<path d="M29.4922 47.9317C29.4922 47.9844 30.8047 48.7051 30.8516 48.6758C30.8926 48.6465 30.8984 48.6641 30.8691 48.7109C30.834 48.7695 30.8457 48.7813 30.9219 48.752C30.9746 48.7285 31.0098 48.7344 30.9922 48.7637C30.9512 48.8281 31.4141 49.0801 31.4961 49.0274C31.5371 49.0039 31.543 49.0098 31.5195 49.0567C31.4844 49.1035 31.5312 49.1152 31.6719 49.0918C31.8066 49.0684 31.8418 49.0801 31.7773 49.1152C31.7305 49.1445 31.666 49.1621 31.6309 49.1445C31.4961 49.0859 31.7891 49.2676 32.627 49.7598C33.1133 50.0469 33.6172 50.3809 33.7578 50.5039C33.9863 50.6973 34.0039 50.7266 33.9219 50.8086C33.8457 50.8906 33.7871 50.8906 33.582 50.8379C33.4414 50.8027 33.3242 50.7793 33.3125 50.7852C33.3066 50.7969 33.623 50.9844 34.0156 51.2012C34.4141 51.418 34.8828 51.6817 35.0586 51.7813C35.2461 51.8809 35.3457 51.916 35.3047 51.8633C35.2402 51.7813 35.2461 51.7695 35.3457 51.7988C35.6094 51.8692 35.4453 51.6875 34.8828 51.2891C34.5605 51.0606 34.2969 50.8555 34.2969 50.8379C34.2969 50.8027 34.8652 50.8496 35.2051 50.9141C35.375 50.9434 35.375 50.9434 35.2637 50.8496C35.1992 50.7969 34.9121 50.6328 34.6191 50.4863C33.8105 50.082 32.3164 49.2442 31.9297 48.9863C31.7363 48.8574 31.5488 48.752 31.5078 48.752C31.4668 48.752 31.4375 48.7344 31.4434 48.7109C31.4609 48.6465 30.8926 48.1543 30.6641 48.0371C30.5176 47.9609 30.3242 47.9258 29.9727 47.9258C29.709 47.9199 29.4922 47.9258 29.4922 47.9317Z" fill="white"/>
<path d="M58.7948 48.5701C58.5195 48.7048 58.3144 48.822 58.3437 48.822C58.3788 48.8279 58.3437 48.8806 58.2675 48.9509C58.1972 49.0212 58.1445 49.0857 58.1562 49.0974C58.1913 49.1326 58.4374 49.0505 58.414 49.0095C58.4023 48.9919 58.4609 48.9744 58.5429 48.9685C58.7831 48.9568 59.4745 48.6228 59.5507 48.4763C59.5976 48.3884 59.5976 48.3591 59.5566 48.3826C59.5214 48.406 59.4921 48.4001 59.4921 48.3708C59.4921 48.2654 59.287 48.324 58.7948 48.5701Z" fill="white"/>
<path d="M56.5332 49.0681C56.5097 49.1033 56.5039 49.1384 56.5215 49.156C56.5332 49.1736 56.5625 49.1443 56.58 49.0916C56.6211 48.992 56.5859 48.9744 56.5332 49.0681Z" fill="white"/>
<path d="M55.4903 50.2168C55.0801 50.3633 54.7461 50.4922 54.7579 50.498C54.7696 50.5098 54.8868 50.5273 55.0157 50.5391C55.1504 50.5508 55.3262 50.6094 55.4141 50.6621C55.5489 50.7559 55.5606 50.7559 55.5254 50.6621C55.4961 50.5801 55.5196 50.5742 55.6719 50.6035C55.7715 50.627 55.8711 50.6152 55.8887 50.5859C55.9063 50.5566 55.959 50.5449 56.0059 50.5684C56.0528 50.5859 56.0938 50.5684 56.0938 50.5273C56.0938 50.4746 56.1172 50.4746 56.1934 50.5332C56.2579 50.5918 56.2754 50.5918 56.2461 50.5391C56.2227 50.498 56.2403 50.4688 56.2989 50.4688C56.3516 50.4688 56.3751 50.4395 56.3575 50.4102C56.3399 50.375 56.3458 50.3516 56.3751 50.3516C56.4747 50.3516 56.504 50.4277 56.4278 50.5156C56.3926 50.5625 56.4688 50.5273 56.6036 50.4336C56.8614 50.2578 56.9258 50.1582 56.7559 50.2109C56.6973 50.2227 56.709 50.2051 56.7852 50.1699C56.9786 50.0645 56.9434 50 56.6973 50C56.5743 50 56.4219 49.9883 56.3575 49.9766C56.293 49.9648 55.9004 50.0762 55.4903 50.2168Z" fill="white"/>
<path d="M56.5625 50.5332C56.5625 50.5625 56.5918 50.5743 56.6211 50.5567C56.6562 50.5391 56.6797 50.5098 56.6797 50.4922C56.6797 50.4805 56.6562 50.4688 56.6211 50.4688C56.5918 50.4688 56.5625 50.4981 56.5625 50.5332Z" fill="white"/>
<path d="M56.2579 50.6857C56.2989 50.7033 56.3517 50.6974 56.3693 50.6798C56.3927 50.6622 56.3575 50.6447 56.2931 50.6505C56.2286 50.6505 56.2111 50.6681 56.2579 50.6857Z" fill="white"/>
<path d="M55.8476 50.8435C55.7597 50.8904 55.6836 50.9197 55.6718 50.9197C55.6601 50.9139 55.6718 50.9314 55.6953 50.9607C55.7187 50.99 55.7714 50.9842 55.8183 50.949C55.8652 50.908 55.9121 50.8963 55.9296 50.9139C55.9472 50.9256 55.9765 50.9021 55.9941 50.8494C56.041 50.7439 56.041 50.7439 55.8476 50.8435Z" fill="white"/>
<path d="M55.1915 51.008C55.1388 51.0373 55.1095 51.09 55.1329 51.1193C55.1564 51.1545 55.1915 51.1545 55.2443 51.1135C55.2853 51.0783 55.3439 51.0549 55.3673 51.0607C55.4728 51.0783 55.5665 51.0549 55.5665 51.008C55.5665 50.9436 55.3087 50.9436 55.1915 51.008Z" fill="white"/>
<path d="M39.3653 51.8459C39.2364 51.8927 39.0664 51.9279 38.9903 51.9279C38.9141 51.9338 38.8145 51.9806 38.7735 52.0334C38.6973 52.133 38.6914 52.133 38.7266 52.0334C38.7676 51.9162 38.5801 51.8927 38.4688 52.0041C38.4219 52.0509 38.3985 52.0509 38.3985 52.0099C38.3985 51.9748 38.334 51.963 38.2461 51.9806C38.1407 51.9982 38.1172 52.0216 38.17 52.0568C38.211 52.0802 38.2696 52.0861 38.293 52.0744C38.3164 52.0568 38.3399 52.0685 38.3399 52.1037C38.3399 52.133 38.3047 52.1681 38.2696 52.1857C38.2286 52.1974 38.2637 52.2091 38.3516 52.2033C38.4454 52.2033 38.5157 52.1798 38.5157 52.1505C38.5157 52.1271 38.5391 52.1095 38.5743 52.1095C38.6036 52.1095 38.6153 52.1505 38.5977 52.1974C38.5743 52.2502 38.4864 52.2853 38.3809 52.2853C38.0235 52.2853 38.2637 52.3322 38.8262 52.3673C39.2247 52.3966 39.3946 52.3908 39.3946 52.3439C39.3946 52.3088 39.4239 52.297 39.4707 52.3263C39.5938 52.4025 40.2793 52.4025 40.2676 52.3263C40.25 52.174 40.2793 52.1154 40.3555 52.1447C40.4024 52.1623 40.4551 52.1505 40.4727 52.1213C40.5254 52.0334 40.2149 52.092 40.1036 52.1916C40.0157 52.2736 40.0039 52.2677 39.9981 52.1505C39.9864 52.0509 39.9981 52.0392 40.0391 52.1095C40.086 52.1798 40.0977 52.1681 40.0977 52.0568C40.0977 51.9455 40.0743 51.9279 39.9747 51.9513C39.8809 51.9748 39.8692 51.9689 39.9278 51.8986C39.9864 51.8283 39.9747 51.8283 39.834 51.8986C39.6407 51.9982 39.4766 51.963 39.5762 51.84C39.6114 51.7931 39.6348 51.758 39.6231 51.7638C39.6114 51.7697 39.4942 51.8048 39.3653 51.8459ZM39.4707 51.9455C39.4883 51.9982 39.4356 52.0216 39.3184 52.0275L39.1426 52.0334L39.2832 51.9572C39.3594 51.9162 39.4297 51.881 39.4297 51.8752C39.4356 51.8752 39.4532 51.9103 39.4707 51.9455ZM38.8907 52.2384C38.8731 52.2619 38.8028 52.2853 38.7325 52.2853C38.6446 52.2853 38.627 52.2677 38.6797 52.2384C38.7793 52.174 38.9317 52.174 38.8907 52.2384Z" fill="white"/>
<path d="M41.0879 52.0448C41.1523 52.0858 41.1523 52.0975 41.0879 52.1268C41.0117 52.1561 41.0234 52.162 41.1933 52.1678C41.2988 52.1737 41.2402 52.0155 41.1289 52.0037C41.041 51.9979 41.0293 52.0096 41.0879 52.0448Z" fill="white"/>
<path d="M40.7716 52.1502C40.6778 52.2029 40.5782 52.2733 40.5548 52.3084C40.5255 52.3494 40.5079 52.3494 40.5079 52.3084C40.5079 52.2791 40.5372 52.2205 40.5782 52.1795C40.6309 52.1268 40.6134 52.1268 40.502 52.1795C40.2091 52.3143 40.3263 52.3904 40.9122 52.4315C41.2227 52.4549 41.5216 52.4842 41.5802 52.4959C41.668 52.5076 41.6739 52.4959 41.627 52.4373C41.5919 52.3963 41.586 52.3436 41.6095 52.3201C41.6329 52.2967 41.627 52.2791 41.5919 52.285C41.5626 52.2908 41.4923 52.2967 41.4454 52.285C41.3809 52.2791 41.3868 52.2615 41.4747 52.2205C41.5743 52.1737 41.5684 52.1678 41.4454 52.2029C41.1759 52.2674 40.9825 52.2674 41.0177 52.2088C41.0411 52.1678 41.0118 52.1619 40.9473 52.1912C40.8595 52.2205 40.8536 52.2147 40.918 52.1385C41.0059 52.0272 40.9942 52.033 40.7716 52.1502Z" fill="white"/>
<path d="M51.5234 52.133C51.5234 52.1447 51.5645 52.174 51.6172 52.1916C51.6641 52.2092 51.6875 52.2033 51.6699 52.1681C51.6348 52.1095 51.5234 52.0861 51.5234 52.133Z" fill="white"/>
<path d="M51.4062 52.2265C51.4062 52.2558 51.3711 52.2675 51.3242 52.2499C51.2773 52.2323 51.2246 52.244 51.2011 52.2792C51.1601 52.3554 51.3183 52.3554 51.4882 52.2909C51.5937 52.2499 51.5937 52.244 51.5058 52.2089C51.4531 52.1913 51.4062 52.1972 51.4062 52.2265Z" fill="white"/>
<path d="M50.8966 52.3262C50.9493 52.3379 51.0313 52.3379 51.0723 52.3262C51.1075 52.3086 51.0665 52.2969 50.9669 52.2969C50.8731 52.2969 50.838 52.3086 50.8966 52.3262Z" fill="white"/>
<path d="M52.5314 52.6425C52.2853 52.7011 51.6876 53.0175 51.7403 53.0702C51.7638 53.0937 51.7872 53.1464 51.7872 53.1815C51.7872 53.2226 51.8399 53.2577 51.9044 53.2694C51.9689 53.2812 51.9981 53.2694 51.963 53.2401C51.9337 53.2167 51.8985 53.1522 51.8868 53.1054C51.8692 53.0468 51.9044 53.0526 51.9981 53.1347C52.0685 53.1991 52.1095 53.2167 52.0802 53.1698C52.045 53.1054 52.0567 53.0937 52.1329 53.123C52.1915 53.1464 52.2208 53.1405 52.1974 53.1054C52.1564 53.0409 52.3321 53.0526 52.4435 53.123C52.4786 53.1464 52.5314 53.1347 52.5548 53.0995C52.5841 53.0526 52.5724 53.0468 52.5196 53.0761C52.4728 53.1054 52.4552 53.0995 52.4786 53.0644C52.5021 53.0292 52.5899 53.0116 52.6778 53.0233C52.8009 53.0409 52.8126 53.0351 52.7306 52.9999C52.6427 52.9589 52.6603 52.9413 52.8478 52.8827C53.0411 52.83 53.0587 52.83 52.9767 52.8944C52.9181 52.9355 52.8712 52.994 52.8712 53.0175C52.8712 53.0409 52.9064 53.0292 52.9532 52.994C52.9942 52.9589 53.0704 52.9413 53.1173 52.9589C53.17 52.9823 53.2462 52.953 53.2931 52.9062C53.3458 52.8534 53.4396 52.83 53.5216 52.8476C53.6388 52.8769 53.6446 52.871 53.5743 52.8124C53.504 52.7597 53.5216 52.7538 53.6564 52.7655C53.7501 52.7772 53.838 52.7538 53.8497 52.7128C53.879 52.6366 52.8185 52.578 52.5314 52.6425ZM53.2521 52.871C53.2345 52.9003 53.1876 52.9296 53.1583 52.9296C53.1231 52.9296 53.1173 52.9003 53.1349 52.871C53.1524 52.8358 53.1993 52.8124 53.2286 52.8124C53.2638 52.8124 53.2696 52.8358 53.2521 52.871Z" fill="white"/>
<path d="M51.5 53.0878C51.4765 53.1171 51.4355 53.1347 51.418 53.1405C51.3945 53.1405 51.2715 53.1874 51.1426 53.246C50.9668 53.3222 50.9316 53.3573 50.9961 53.3983C51.043 53.4276 51.0957 53.4394 51.1133 53.4276C51.1367 53.4159 51.2715 53.3983 51.4238 53.3925C51.6113 53.3808 51.6992 53.3515 51.6992 53.2987C51.6992 53.2519 51.6699 53.2343 51.6289 53.2519C51.5879 53.2753 51.5996 53.2519 51.6523 53.205C51.7578 53.123 51.7344 53.0468 51.6113 53.0468C51.5762 53.0468 51.5234 53.0644 51.5 53.0878Z" fill="white"/>
<path d="M41.0763 53.7324C41.0587 53.7617 41.1348 53.7793 41.2462 53.7793C41.3575 53.7793 41.4454 53.7617 41.4454 53.7324C41.4454 53.709 41.3692 53.6914 41.2755 53.6914C41.1759 53.6914 41.088 53.709 41.0763 53.7324Z" fill="white"/>
<path d="M40.8478 53.7967C40.9122 53.8377 40.9122 53.8553 40.8302 53.8904C40.7775 53.908 40.7482 53.949 40.7716 53.9783C40.8243 54.0662 40.965 53.99 40.9532 53.8787C40.9415 53.826 40.9005 53.7732 40.8536 53.7615C40.7892 53.7439 40.7833 53.7498 40.8478 53.7967Z" fill="white"/>
<path d="M39.7169 53.9843C39.6525 54.0136 39.6349 54.037 39.6818 54.037C39.7228 54.0429 39.8517 54.119 39.963 54.2187C40.0685 54.3124 40.2091 54.3944 40.2618 54.3944C40.3204 54.3944 40.3966 54.4237 40.4376 54.4648C40.4904 54.5175 40.5079 54.5116 40.5138 54.4179C40.5138 54.3593 40.5314 54.3417 40.5489 54.3769C40.5782 54.4589 40.7423 54.4823 40.7423 54.4062C40.7423 54.3476 40.5314 54.1542 40.3321 54.037C40.1622 53.9374 39.8868 53.914 39.7169 53.9843Z" fill="white"/>
<path d="M49.7482 54.084C49.6896 54.1367 49.6954 54.2188 49.754 54.2188C49.7833 54.2188 49.8068 54.1777 49.8068 54.1309C49.8068 54.0312 49.8009 54.0254 49.7482 54.084Z" fill="white"/>
<path d="M39.5703 54.1366C39.5703 54.1425 39.6172 54.1835 39.6699 54.2245C39.7227 54.2714 39.752 54.2773 39.7285 54.2362C39.7051 54.2011 39.7227 54.1601 39.7578 54.1425C39.7988 54.1249 39.7754 54.1191 39.7051 54.1191C39.6289 54.1249 39.5703 54.1308 39.5703 54.1366Z" fill="white"/>
<path d="M41.041 54.8398C40.8945 54.8809 40.7598 54.9043 40.7305 54.8867C40.707 54.8691 40.6836 54.8691 40.6836 54.8809C40.6836 54.9512 41.3867 55.4258 41.7207 55.5723L42.0957 55.748L43.2324 55.7305C43.8535 55.7188 44.3516 55.7305 44.334 55.7539C44.3223 55.7832 44.375 55.8008 44.457 55.8008C44.5391 55.8008 44.6094 55.7715 44.6094 55.7422C44.6094 55.6602 44.7734 55.6719 44.7969 55.7539C44.8145 55.7949 44.8379 55.7891 44.8613 55.7246C44.8848 55.6602 44.8672 55.625 44.8086 55.625C44.7617 55.625 44.7324 55.6016 44.7559 55.5723C44.7734 55.543 44.5273 55.4609 44.2168 55.3906C43.4609 55.2207 43.127 55.1152 42.7285 54.916C42.4414 54.7754 42.3418 54.7578 41.8496 54.7578C41.5449 54.7637 41.1816 54.7988 41.041 54.8398Z" fill="white"/>
</g>
<defs>
<filter id="filter0_i_374_3767" x="0" y="0" width="70" height="70" filterUnits="userSpaceOnUse" color-interpolation-filters="sRGB">
<feFlood flood-opacity="0" result="BackgroundImageFix"/>
<feBlend mode="normal" in="SourceGraphic" in2="BackgroundImageFix" result="shape"/>
<feColorMatrix in="SourceAlpha" type="matrix" values="0 0 0 0 0 0 0 0 0 0 0 0 0 0 0 0 0 0 127 0" result="hardAlpha"/>
<feOffset/>
<feGaussianBlur stdDeviation="7.5"/>
<feComposite in2="hardAlpha" operator="arithmetic" k2="-1" k3="1"/>
<feColorMatrix type="matrix" values="0 0 0 0 0 0 0 0 0 0 0 0 0 0 0 0 0 0 1 0"/>
<feBlend mode="normal" in2="shape" result="effect1_innerShadow_374_3767"/>
</filter>
<clipPath id="clip0_374_3767">
<rect width="70" height="70" fill="white"/>
</clipPath>
</defs>
</svg>
