<svg width="170" height="24" viewBox="0 0 170 24" fill="none" xmlns="http://www.w3.org/2000/svg">
<path d="M84.7066 0.0843007C84.6045 0.118173 84.3662 0.131721 84.196 0.111398C84.0257 0.0843007 83.7874 0.118173 83.6853 0.172368C83.5832 0.233338 83.2087 0.280758 82.8683 0.280758C82.5278 0.280758 82.0853 0.328179 81.847 0.382374C81.3704 0.497539 79.8044 0.524637 79.8044 0.416246C79.8044 0.3756 78.9533 0.348502 77.932 0.348502C76.9107 0.348502 76.0596 0.3756 76.0596 0.409472C76.0596 0.531411 74.6979 0.531411 73.983 0.409472C73.0639 0.246886 72.6894 0.246886 72.383 0.395923C72.2468 0.463667 72.0085 0.517862 71.8043 0.517862C71.634 0.517862 70.7489 0.578832 69.8638 0.646576C68.3319 0.768515 68.1617 0.768515 66.4935 0.660125C65.0637 0.565283 64.6893 0.558509 64.451 0.633027C64.2127 0.700771 64.0765 0.700771 63.736 0.633027C63.5318 0.592381 63.0211 0.551735 62.6126 0.551735C62.2041 0.551735 61.7275 0.517862 61.5232 0.477216C61.2509 0.423021 61.0807 0.423021 60.9445 0.477216C60.8083 0.517862 60.0934 0.551735 59.3104 0.551735C58.2211 0.551735 57.9828 0.572058 58.153 0.653351C58.2551 0.71432 58.1189 0.77529 57.8125 0.802387C57.1998 0.849808 52.7061 0.578832 52.3997 0.48399C52.0252 0.368826 50.6975 0.409472 50.255 0.551735C49.7443 0.721095 48.4847 0.734643 48.4847 0.565283C48.4847 0.504314 47.94 0.382374 47.2932 0.294307C46.6464 0.213014 46.1017 0.172368 46.1017 0.213014C46.1017 0.301082 44.5017 0.301082 44.2293 0.213014C43.957 0.124947 42.8336 0.240112 41.8804 0.463667C41.1995 0.619479 41.0633 0.619479 39.3952 0.551735C38.408 0.511088 36.7058 0.490765 35.5824 0.504314C34.4249 0.524637 33.5058 0.511088 33.5058 0.477216C33.5058 0.382374 32.2802 0.402698 31.8377 0.511088C31.5994 0.565283 31.1568 0.599155 30.8504 0.585607C30.544 0.572058 30.0674 0.558509 29.8632 0.558509C29.6249 0.551735 29.4206 0.504314 29.4206 0.443344C29.4206 0.348502 29.1823 0.334954 28.0589 0.368826C27.3099 0.389149 26.6971 0.3756 26.6971 0.341728C26.6971 0.301082 26.3908 0.307856 25.9822 0.348502C25.6078 0.395923 24.9269 0.409472 24.4843 0.389149C23.9056 0.362051 23.5311 0.389149 23.1907 0.490765C22.8503 0.578832 22.612 0.60593 22.4418 0.558509C22.3396 0.517862 22.0673 0.497539 21.8971 0.524637C21.7269 0.54496 21.3524 0.524637 21.08 0.48399C20.4673 0.382374 18.5268 0.599155 17.097 0.910778C16.4161 1.06659 16.0757 1.10046 15.7353 1.04627C15.1565 0.951424 12.6373 0.978522 12.4671 1.08014C12.399 1.12756 12.1948 1.16143 11.9905 1.16143C11.548 1.16143 10.9011 1.30369 10.5948 1.45273C10.4586 1.52047 10.2203 1.55435 10.016 1.53402C9.84581 1.5137 9.30112 1.5679 8.85856 1.66274C8.416 1.75758 7.93939 1.83887 7.76918 1.83887C7.59896 1.83887 7.25853 1.94049 6.98619 2.05565C6.71384 2.17759 6.33937 2.29953 6.13511 2.32663C5.93085 2.35373 5.96489 2.40792 6.23724 2.47567C6.71384 2.59083 6.50958 2.61793 5.1819 2.59083C4.84147 2.58406 4.56913 2.61115 4.56913 2.64503C4.56913 2.68567 4.36487 2.71954 4.09252 2.71954C3.82018 2.71954 3.51379 2.77374 3.41166 2.83471C3.2074 2.93632 3.54783 3.01762 4.39891 3.07859C4.87551 3.11246 4.77339 3.62054 4.29678 3.65441C3.99039 3.67473 3.95635 3.70861 4.19465 3.75603C5.01169 3.95926 4.36487 4.41314 3.24145 4.41314C2.86697 4.41314 2.86697 4.43347 3.24145 4.52154C3.92231 4.68412 3.82018 4.96187 2.9691 5.20575C2.01589 5.46995 1.98185 5.56479 2.83293 5.56479C3.27549 5.56479 3.54783 5.62576 3.71805 5.76125C3.85422 5.89674 4.16061 5.97126 4.67126 5.98481C5.28403 5.99836 5.4202 6.05255 5.45425 6.24223C5.45425 6.37095 5.55638 6.5674 5.69255 6.66902C6.06702 6.94 5.65851 7.32614 5.04573 7.27872C4.53508 7.23807 4.50104 7.27872 4.50104 7.99003C4.50104 8.22036 4.36487 8.43037 4.19465 8.45069C4.05848 8.46424 3.99039 8.68779 4.09252 8.93845C4.33082 9.43975 4.33082 9.92751 4.16061 10.5304C4.09252 10.7472 4.16061 10.9437 4.29678 10.9572C4.84147 11.025 5.62446 11.4517 5.69255 11.7363C5.76064 11.8989 5.96489 12.0953 6.16915 12.1631C6.57767 12.3121 6.37341 12.4882 5.24999 12.9828C4.56913 13.2808 4.26274 13.6738 4.60317 13.8634C4.77339 13.9786 4.19465 14.3986 3.64996 14.5138C3.37762 14.5815 3.07123 14.7983 2.9691 15.0083C2.79889 15.347 2.83293 15.3877 3.41166 15.3877C4.26274 15.3877 5.14786 15.6519 4.53508 15.7264C4.2287 15.767 4.26274 15.8416 4.7053 16.0651C5.14786 16.2887 5.1819 16.37 4.87551 16.4445C4.63721 16.4987 4.56913 16.5597 4.67126 16.5867C4.80743 16.6071 4.7053 16.6884 4.53508 16.7629C4.26274 16.8577 4.26274 16.9119 4.56913 16.9458C5.1819 17.0203 4.7053 17.359 4.05848 17.3116C3.64996 17.2777 3.58188 17.3252 3.75209 17.5826C3.92231 17.7926 3.85422 17.8942 3.58188 17.8942C3.37762 17.8942 3.2074 17.9281 3.2074 17.962C3.2074 18.0026 2.66271 18.1313 2.01589 18.2533C0.960557 18.4429 0.824385 18.5107 0.824385 18.7952C0.824385 18.9713 0.586083 19.1881 0.313738 19.2762C-0.196908 19.432 -0.060736 19.6556 0.55204 19.6556C0.722255 19.6556 0.756299 19.6827 0.654169 19.7233C0.55204 19.7572 0.756299 19.791 1.09673 19.791C1.91376 19.791 2.39037 19.9943 1.77759 20.0756C1.43716 20.1162 1.4712 20.1298 1.84568 20.1298C2.15207 20.1298 2.76484 20.2178 3.2074 20.333C3.68401 20.4414 4.26274 20.5295 4.467 20.5362C4.90956 20.5362 5.07977 20.6446 5.4202 21.1459C5.65851 21.5117 6.13511 21.6946 6.54363 21.5727C6.81597 21.4846 9.02877 21.505 10.799 21.6134C11.4118 21.6472 12.5012 21.6743 13.2501 21.6608C14.5097 21.654 17.5736 21.8369 18.3566 21.9724C18.5608 22.0063 18.697 22.0672 18.697 22.1147C18.697 22.2163 21.2502 22.2366 21.2843 22.135C21.3183 22.0943 21.3183 22.0063 21.2843 21.9453C21.1822 21.803 22.2035 21.7827 22.4758 21.9182C22.612 21.9927 22.8843 21.9927 24.0418 21.9114C24.8248 21.8572 25.812 21.8301 26.2546 21.8572C26.6971 21.8776 27.0376 21.864 27.0376 21.8301C27.0376 21.7014 28.0248 21.8369 28.127 21.9724C28.195 22.0537 28.5355 22.1485 28.9099 22.1892C29.2844 22.2298 29.6929 22.2908 29.7951 22.3247C29.9312 22.3585 30.3057 22.3653 30.6461 22.3382C30.9866 22.3111 31.3611 22.3314 31.5313 22.3789C31.7355 22.4466 31.9738 22.4263 32.4504 22.3043C32.893 22.1824 33.2675 22.1553 33.8462 22.1824C34.3568 22.2095 34.7654 22.1892 35.0037 22.1214C35.3441 22.0401 35.5484 22.0401 36.6718 22.1553C37.9314 22.284 37.9995 22.284 38.6122 22.1621C39.2931 22.0266 40.9953 22.0537 40.9953 22.2027C40.9953 22.2569 41.3357 22.2976 41.8463 22.2976C42.391 22.2976 42.6974 22.3382 42.6974 22.3992C42.6974 22.5347 43.1059 22.5279 44.74 22.3585C45.8294 22.2434 46.306 22.2298 46.8847 22.284C47.2932 22.3179 47.9741 22.3518 48.3826 22.3518C48.9954 22.3585 49.1316 22.3111 49.2337 22.1079L49.3358 21.8572L50.5614 22.1214C51.7529 22.3721 51.855 22.3789 52.5699 22.2772C52.9784 22.2231 53.4891 22.1824 53.7274 22.196C55.4295 22.2976 55.9061 22.2908 56.0763 22.1621C56.2466 22.0198 56.9955 21.9724 56.9955 22.1011C56.9955 22.1553 57.1317 22.1553 57.5062 22.0943C57.8806 22.0334 58.187 22.0469 59.0721 22.1689C59.9232 22.2908 60.2637 22.3043 60.7743 22.2434C61.1147 22.2027 61.4552 22.1892 61.5573 22.2231C61.6594 22.2501 62.2382 22.284 62.8509 22.2908C66.0169 22.3382 66.0169 22.3382 66.1191 22.1756C66.1872 22.0943 66.4255 22.0266 66.6978 22.0266C66.9361 22.0266 67.2084 21.9927 67.2765 21.9453C67.4467 21.8437 70.6128 22.0063 70.6128 22.1214C70.6128 22.2434 71.9745 22.3856 72.4511 22.3043C73.0639 22.2027 75.7192 22.0943 75.7192 22.1756C75.7192 22.2163 75.9916 22.2231 76.332 22.196C77.0809 22.135 78.0341 22.0943 79.2257 22.0537C79.8384 22.0401 80.1448 22.0605 80.1448 22.1282C80.1448 22.1756 80.4512 22.2434 80.8257 22.2637C81.2002 22.284 81.5065 22.3382 81.5065 22.3789C81.5065 22.4195 81.8129 22.4331 82.1874 22.4127C82.6981 22.3856 83.0044 22.4331 83.413 22.6092C83.9917 22.8463 84.5023 22.8937 85.1492 22.765C85.3194 22.7311 86.3747 22.6905 87.43 22.6837C89.3705 22.6702 89.3705 22.6702 89.2343 22.4805C89.0641 22.2501 89.5748 22.1756 90.1535 22.3382C90.9705 22.5618 97.8813 22.345 98.46 22.074C98.6983 21.9792 99.3111 22.0266 100.128 22.2027C100.741 22.3382 101.047 22.3653 101.354 22.3043C101.796 22.2163 102.954 22.2027 102.954 22.284C102.954 22.3585 105.881 22.494 106.29 22.4398C106.46 22.4195 106.664 22.3382 106.732 22.2637C106.903 22.0943 108.264 22.074 108.128 22.2434C108.094 22.3043 108.333 22.3721 108.741 22.3992C109.116 22.4195 109.422 22.4737 109.422 22.5076C109.422 22.6092 110.647 22.5753 111.124 22.4669C111.737 22.3179 112.316 22.3382 113.916 22.5685C114.699 22.6837 115.516 22.765 115.754 22.7447C115.992 22.7244 116.435 22.7718 116.775 22.8463C117.49 23.0089 117.899 23.0089 118.477 22.8531C118.852 22.7582 119.022 22.7515 119.533 22.826C119.873 22.8734 120.554 22.9411 121.031 22.9818C121.541 23.0224 122.018 23.1037 122.12 23.1715C122.358 23.3544 124.401 23.4018 125.082 23.246C125.354 23.185 125.865 23.1105 126.171 23.0902C126.512 23.0631 126.682 23.0089 126.58 22.9479C126.137 22.7176 129.575 22.616 132.129 22.7786C132.741 22.8192 133.422 22.826 133.661 22.7989C134.478 22.6973 135.431 22.7244 136.282 22.8869C137.337 23.0766 137.678 23.0834 137.916 22.9073C138.12 22.7582 138.188 22.7582 139.21 22.8327C139.584 22.8666 140.163 22.8598 140.537 22.826C141.014 22.7718 141.388 22.7921 142.137 22.9005C142.648 22.9818 143.261 23.0428 143.431 23.0428C144.112 23.0428 145.508 23.2053 145.508 23.2799C145.508 23.3341 145.848 23.3476 146.359 23.3273C146.869 23.3137 147.21 23.3273 147.21 23.3747C147.21 23.4153 147.584 23.4492 148.061 23.4492C148.537 23.4492 148.912 23.4153 148.912 23.3747C148.912 23.3273 149.252 23.3137 149.797 23.3408C150.546 23.3815 150.648 23.3679 150.478 23.2731C150.308 23.185 150.444 23.1715 151.193 23.1986C152.282 23.2392 155.38 23.0563 155.38 22.9479C155.38 22.8327 156.946 22.5008 157.457 22.5008C157.797 22.5008 158.138 22.345 158.444 22.0401C158.921 21.6201 159.023 21.5863 159.908 21.5659C160.418 21.5524 160.759 21.5185 160.657 21.4846C160.555 21.4508 160.827 21.3695 161.304 21.3017C161.746 21.234 162.189 21.1053 162.325 21.024C162.563 20.8885 162.699 20.8682 163.38 20.8749C163.823 20.8817 164.674 20.6514 164.708 20.5159C164.742 20.4211 164.946 20.3669 165.355 20.3736C165.661 20.3804 165.933 20.3669 165.933 20.3398C165.933 20.3194 166.07 20.123 166.274 19.9062C166.58 19.5336 166.546 19.4997 165.627 19.2491C164.98 19.0662 164.606 18.8629 164.436 18.592C164.299 18.382 163.959 18.1516 163.653 18.0839C162.87 17.9145 162.836 17.2981 163.619 17.1897C164.095 17.1219 164.163 16.9932 164.061 16.3158C163.959 15.7332 164.061 15.5028 164.367 15.4351C164.64 15.3877 164.742 15.259 164.64 15.1303C164.572 14.9948 164.64 14.9135 164.878 14.9135C165.355 14.9135 165.355 14.6628 164.878 14.6086C164.674 14.5815 164.606 14.4325 164.708 14.2564C164.844 13.9515 164.436 13.7618 163.584 13.7618C163.074 13.7618 163.108 13.5247 163.653 13.4367C163.857 13.4028 164.436 13.3554 164.912 13.3418C165.491 13.3283 165.763 13.2808 165.763 13.1792C165.763 13.1047 166.036 12.9895 166.376 12.915C166.785 12.8337 166.887 12.7728 166.648 12.7253C166.41 12.6779 166.444 12.5898 166.716 12.4476C167.261 12.1766 167.091 11.9463 166.24 11.8447C165.491 11.7498 165.389 11.6618 166.07 11.6618C166.546 11.6618 166.546 11.6414 166.07 10.903C165.899 10.6388 165.967 10.5575 166.58 10.4017C166.989 10.2933 167.193 10.1917 167.023 10.1443C166.58 10.0291 166.58 9.75137 167.023 9.64976C167.227 9.59556 167.295 9.54137 167.193 9.51427C167.057 9.49395 167.125 9.41943 167.295 9.35846C167.533 9.27039 167.499 9.22297 167.159 9.20265C166.41 9.14168 166.274 8.82328 166.955 8.74876C167.772 8.6607 168.623 7.91551 167.976 7.83422C167.772 7.8139 167.636 7.71905 167.636 7.62421C167.636 7.5226 167.431 7.46163 167.125 7.46163C166.853 7.46163 166.614 7.42098 166.614 7.36678C166.614 7.31259 166.172 7.25162 165.593 7.22452C164.878 7.19065 164.572 7.13645 164.572 7.04839C164.572 6.97387 164.708 6.93322 164.912 6.95355C165.082 6.97387 165.321 6.9129 165.457 6.81128C165.593 6.70289 165.525 6.61483 165.287 6.58773C164.98 6.54708 165.014 6.48611 165.423 6.33708C165.695 6.22868 165.933 6.0661 165.933 5.97126C165.933 5.87642 166.172 5.7477 166.41 5.67996C166.75 5.59189 166.853 5.40898 166.75 5.01607C166.682 4.71799 166.75 4.48089 166.921 4.48089C167.091 4.48089 167.159 4.35895 167.057 4.20991C166.921 3.99991 166.989 3.93216 167.431 3.89829C167.704 3.87797 168.282 3.72893 168.691 3.56634C169.304 3.32924 169.338 3.25472 168.997 3.12601C168.657 2.99729 168.691 2.96342 169.304 2.87535C170.121 2.76019 170.257 2.52986 169.508 2.47567C169.099 2.44179 169.031 2.37405 169.202 2.20469C169.338 2.05565 169.27 1.97436 169.031 1.97436C168.827 1.97436 168.351 1.91339 167.976 1.83887C167.329 1.71016 167.227 1.71016 166.512 1.805C166.104 1.85919 165.661 1.90662 165.525 1.90662C165.014 1.90662 165.253 1.73048 165.933 1.61532C167.295 1.38499 166.41 0.829485 164.844 0.924327C164.504 0.951424 163.959 0.931101 163.687 0.88368C163.414 0.843034 162.665 0.795613 161.984 0.782064C160.725 0.761741 158.955 0.470442 158.955 0.287533C158.955 0.226563 158.376 0.185917 157.184 0.165594C155.584 0.138496 155.38 0.152045 155.38 0.273984C155.38 0.450118 153.678 0.531411 152.589 0.395923C152.078 0.334954 151.023 0.301082 149.593 0.31463C148.367 0.321405 147.142 0.301082 146.835 0.273984C146.529 0.240112 145.542 0.199466 144.622 0.172368C143.703 0.152045 142.818 0.118173 142.648 0.0978495C142.512 0.0775263 142.239 0.0978495 142.103 0.14527C141.967 0.192691 141.491 0.240112 141.048 0.253661C139.21 0.307856 138.188 0.3756 137.95 0.443344C137.746 0.497539 137.678 0.497539 137.678 0.443344C137.678 0.31463 136.35 0.280758 136.01 0.395923C135.771 0.48399 135.635 0.48399 134.682 0.389149C133.967 0.31463 133.558 0.301082 133.388 0.355277C133.286 0.395923 132.707 0.416246 132.163 0.402698C131.618 0.382374 131.107 0.389149 131.039 0.416246C130.937 0.443344 130.222 0.43657 129.439 0.402698C126.886 0.294307 124.06 0.26721 124.06 0.348502C124.06 0.402698 123.686 0.409472 123.005 0.382374C122.222 0.348502 121.848 0.362051 121.541 0.450118C121.201 0.54496 120.963 0.551735 120.418 0.497539C120.043 0.456893 119.635 0.43657 119.533 0.463667C119.397 0.48399 119.09 0.463667 118.818 0.423021C118.545 0.3756 118.171 0.355277 118.001 0.3756C117.796 0.395923 117.49 0.368826 117.252 0.31463C116.775 0.199466 115.89 0.179142 115.89 0.280758C115.89 0.3756 114.63 0.362051 114.426 0.260435C114.29 0.20624 113.916 0.253661 113.269 0.395923C112.179 0.626253 110.511 0.707546 109.694 0.565283C109.388 0.517862 108.911 0.504314 108.605 0.524637C108.264 0.551735 107.754 0.517862 107.345 0.443344C106.63 0.31463 104.996 0.233338 104.996 0.334954C104.996 0.362051 104.452 0.429795 103.805 0.477216C102.715 0.551735 102.545 0.54496 101.694 0.389149C100.707 0.20624 100.23 0.172368 100.23 0.280758C100.23 0.31463 100.026 0.348502 99.7877 0.348502C99.5494 0.348502 98.8345 0.402698 98.1877 0.477216C97.4387 0.551735 96.5536 0.592381 95.8047 0.572058C93.9663 0.531411 91.7195 0.402698 91.7195 0.348502C91.7195 0.273984 90.3578 0.348502 89.5067 0.463667C88.5194 0.599155 88.0088 0.572058 88.0769 0.389149C88.1109 0.294307 88.0088 0.219789 87.8386 0.219789C87.6683 0.226563 87.43 0.185917 87.2939 0.14527C86.9875 0.0436542 84.9789 0.00300782 84.7066 0.0843007Z" fill="black"/>
</svg>
