<svg width="113" height="24" viewBox="0 0 113 24" fill="none" xmlns="http://www.w3.org/2000/svg">
<path d="M56.305 0.084301C56.2371 0.118174 56.0787 0.131721 55.9655 0.111399C55.8524 0.084301 55.694 0.118174 55.6261 0.172367C55.5582 0.233337 55.3093 0.280758 55.083 0.280758C54.8567 0.280758 54.5626 0.328178 54.4042 0.382374C54.0874 0.49754 53.0464 0.524637 53.0464 0.416246C53.0464 0.375601 52.4807 0.348503 51.8019 0.348503C51.123 0.348503 50.5573 0.375601 50.5573 0.409472C50.5573 0.531412 49.6521 0.531412 49.1769 0.409472C48.566 0.246887 48.3171 0.246887 48.1134 0.395924C48.0229 0.463667 47.8645 0.517862 47.7287 0.517862C47.6156 0.517862 47.0272 0.578833 46.4389 0.646576C45.4206 0.768515 45.3074 0.768515 44.1986 0.660126C43.2482 0.565283 42.9993 0.55851 42.8409 0.633028C42.6825 0.700771 42.592 0.700771 42.3657 0.633028C42.2299 0.592381 41.8905 0.551735 41.619 0.551735C41.3474 0.551735 41.0306 0.517862 40.8949 0.477217C40.7138 0.423021 40.6007 0.423021 40.5102 0.477217C40.4197 0.517862 39.9445 0.551735 39.424 0.551735C38.6999 0.551735 38.5415 0.572058 38.6546 0.653351C38.7225 0.714321 38.632 0.77529 38.4283 0.802387C38.021 0.849808 35.034 0.578833 34.8304 0.48399C34.5815 0.368826 33.6989 0.409472 33.4048 0.551735C33.0653 0.721094 32.2281 0.734644 32.2281 0.565283C32.2281 0.504314 31.866 0.382374 31.4361 0.294308C31.0061 0.213015 30.6441 0.172367 30.6441 0.213015C30.6441 0.301081 29.5805 0.301081 29.3995 0.213015C29.2185 0.124947 28.4717 0.240112 27.8381 0.463667C27.3856 0.619478 27.295 0.619478 26.1862 0.551735C25.53 0.511087 24.3986 0.490765 23.6518 0.504314C22.8825 0.524637 22.2715 0.511087 22.2715 0.477217C22.2715 0.382374 21.4568 0.402699 21.1627 0.511087C21.0043 0.565283 20.7101 0.599155 20.5064 0.585606C20.3028 0.572058 19.986 0.55851 19.8502 0.55851C19.6918 0.551735 19.556 0.504314 19.556 0.443344C19.556 0.348503 19.3976 0.334953 18.6509 0.368826C18.1531 0.389149 17.7457 0.375601 17.7457 0.341728C17.7457 0.301081 17.5421 0.307856 17.2705 0.348503C17.0216 0.395924 16.5691 0.409472 16.2749 0.389149C15.8902 0.362051 15.6413 0.389149 15.415 0.490765C15.1887 0.578833 15.0303 0.60593 14.9172 0.55851C14.8493 0.517862 14.6683 0.49754 14.5551 0.524637C14.442 0.54496 14.193 0.524637 14.012 0.48399C13.6047 0.382374 12.3149 0.599155 11.3645 0.910778C10.9119 1.06659 10.6856 1.10046 10.4593 1.04627C10.0746 0.951424 8.40012 0.978521 8.28697 1.08014C8.24172 1.12756 8.10594 1.16143 7.97017 1.16143C7.676 1.16143 7.24605 1.30369 7.0424 1.45273C6.95188 1.52047 6.79348 1.55435 6.65771 1.53402C6.54457 1.5137 6.18251 1.5679 5.88834 1.66274C5.59416 1.75758 5.27736 1.83887 5.16422 1.83887C5.05107 1.83887 4.82479 1.94049 4.64376 2.05565C4.46273 2.17759 4.21382 2.29953 4.07804 2.32663C3.94227 2.35373 3.9649 2.40792 4.14593 2.47567C4.46273 2.59083 4.32696 2.61793 3.44444 2.59083C3.21815 2.58405 3.03713 2.61115 3.03713 2.64503C3.03713 2.68567 2.90135 2.71954 2.72032 2.71954C2.53929 2.71954 2.33564 2.77374 2.26775 2.83471C2.13198 2.93633 2.35827 3.01762 2.92398 3.07859C3.24078 3.11246 3.1729 3.62054 2.8561 3.65441C2.65244 3.67473 2.62981 3.70861 2.78821 3.75603C3.3313 3.95926 2.90135 4.41315 2.15461 4.41315C1.90569 4.41315 1.90569 4.43347 2.15461 4.52154C2.60718 4.68412 2.53929 4.96187 1.97358 5.20575C1.33998 5.46995 1.31735 5.56479 1.88306 5.56479C2.17724 5.56479 2.35827 5.62576 2.47141 5.76125C2.56192 5.89674 2.76558 5.97126 3.10501 5.98481C3.51233 5.99836 3.60284 6.05255 3.62547 6.24223C3.62547 6.37095 3.69336 6.56741 3.78387 6.66902C4.03279 6.94 3.76124 7.32614 3.35393 7.27872C3.0145 7.23807 2.99187 7.27872 2.99187 7.99003C2.99187 8.22036 2.90135 8.43037 2.78821 8.45069C2.6977 8.46424 2.65244 8.68779 2.72032 8.93845C2.87872 9.43975 2.87872 9.92751 2.76558 10.5304C2.72032 10.7472 2.76558 10.9437 2.8561 10.9572C3.21815 11.025 3.73861 11.4517 3.78387 11.7363C3.82913 11.8989 3.9649 12.0953 4.10067 12.1631C4.37222 12.3121 4.23644 12.4882 3.4897 12.9828C3.03713 13.2808 2.83347 13.6738 3.05975 13.8634C3.1729 13.9786 2.78821 14.3986 2.42615 14.5138C2.24512 14.5815 2.04146 14.7983 1.97358 15.0083C1.86044 15.347 1.88306 15.3877 2.26775 15.3877C2.83347 15.3877 3.42181 15.6519 3.0145 15.7264C2.81084 15.767 2.83347 15.8416 3.12764 16.0651C3.42181 16.2887 3.44444 16.37 3.24078 16.4445C3.08238 16.4987 3.03713 16.5597 3.10501 16.5867C3.19553 16.6071 3.12764 16.6884 3.0145 16.7629C2.83347 16.8577 2.83347 16.9119 3.03713 16.9458C3.44444 17.0203 3.12764 17.359 2.6977 17.3116C2.42615 17.2777 2.38089 17.3252 2.49404 17.5826C2.60718 17.7926 2.56192 17.8942 2.38089 17.8942C2.24512 17.8942 2.13198 17.9281 2.13198 17.962C2.13198 18.0026 1.76992 18.1313 1.33998 18.2533C0.638488 18.4429 0.547973 18.5107 0.547973 18.7952C0.547973 18.9713 0.389573 19.1881 0.208544 19.2762C-0.130886 19.432 -0.0403716 19.6556 0.366944 19.6556C0.480087 19.6556 0.502716 19.6827 0.43483 19.7233C0.366944 19.7572 0.502716 19.791 0.729003 19.791C1.27209 19.791 1.58889 19.9943 1.18158 20.0756C0.955289 20.1162 0.977918 20.1298 1.22683 20.1298C1.43049 20.1298 1.83781 20.2178 2.13198 20.333C2.44878 20.4414 2.83347 20.5295 2.96924 20.5362C3.26341 20.5362 3.37655 20.6446 3.60284 21.1459C3.76124 21.5117 4.07804 21.6946 4.34959 21.5727C4.53062 21.4846 6.00148 21.505 7.17817 21.6134C7.58548 21.6472 8.3096 21.6743 8.80743 21.6608C9.64469 21.654 11.6813 21.8369 12.2017 21.9724C12.3375 22.0063 12.428 22.0672 12.428 22.1147C12.428 22.2163 14.1252 22.2366 14.1478 22.135C14.1704 22.0943 14.1704 22.0063 14.1478 21.9453C14.0799 21.803 14.7588 21.7827 14.9398 21.9182C15.0303 21.9927 15.2113 21.9927 15.9807 21.9114C16.5012 21.8572 17.1574 21.8301 17.4516 21.8572C17.7457 21.8776 17.972 21.864 17.972 21.8301C17.972 21.7014 18.6283 21.8369 18.6962 21.9724C18.7414 22.0537 18.9677 22.1485 19.2166 22.1892C19.4655 22.2298 19.7371 22.2908 19.805 22.3247C19.8955 22.3585 20.1444 22.3653 20.3707 22.3382C20.597 22.3111 20.8459 22.3314 20.959 22.3789C21.0948 22.4466 21.2532 22.4263 21.57 22.3043C21.8642 22.1824 22.1131 22.1553 22.4978 22.1824C22.8372 22.2095 23.1087 22.1892 23.2671 22.1214C23.4934 22.0401 23.6292 22.0401 24.3759 22.1553C25.2132 22.284 25.2585 22.284 25.6658 22.1621C26.1184 22.0266 27.2498 22.0537 27.2498 22.2027C27.2498 22.2569 27.4761 22.2976 27.8155 22.2976C28.1776 22.2976 28.3812 22.3382 28.3812 22.3992C28.3812 22.5347 28.6528 22.5279 29.7389 22.3585C30.4631 22.2434 30.7799 22.2298 31.1645 22.284C31.4361 22.3179 31.8887 22.3518 32.1602 22.3518C32.5675 22.3585 32.658 22.3111 32.7259 22.1079L32.7938 21.8572L33.6084 22.1214C34.4004 22.3721 34.4683 22.3789 34.9435 22.2772C35.2151 22.2231 35.5545 22.1824 35.7129 22.196C36.8443 22.2976 37.1611 22.2908 37.2743 22.1621C37.3874 22.0198 37.8853 21.9724 37.8853 22.1011C37.8853 22.1553 37.9758 22.1553 38.2247 22.0943C38.4736 22.0334 38.6773 22.0469 39.2656 22.1689C39.8313 22.2908 40.0576 22.3043 40.397 22.2434C40.6233 22.2027 40.8496 22.1892 40.9175 22.2231C40.9854 22.2501 41.3701 22.284 41.7774 22.2908C43.8818 22.3382 43.8818 22.3382 43.9497 22.1756C43.995 22.0943 44.1534 22.0266 44.3344 22.0266C44.4928 22.0266 44.6738 21.9927 44.7191 21.9453C44.8322 21.8437 46.9367 22.0063 46.9367 22.1214C46.9367 22.2434 47.8419 22.3856 48.1587 22.3043C48.566 22.2027 50.331 22.0943 50.331 22.1756C50.331 22.2163 50.512 22.2231 50.7383 22.196C51.2362 22.135 51.8698 22.0943 52.6618 22.0537C53.0691 22.0401 53.2727 22.0605 53.2727 22.1282C53.2727 22.1756 53.4764 22.2434 53.7253 22.2637C53.9742 22.284 54.1779 22.3382 54.1779 22.3789C54.1779 22.4195 54.3815 22.4331 54.6305 22.4127C54.9699 22.3856 55.1735 22.4331 55.4451 22.6092C55.8298 22.8463 56.1692 22.8937 56.5991 22.765C56.7123 22.7311 57.4138 22.6905 58.1153 22.6837C59.4051 22.6702 59.4051 22.6702 59.3146 22.4805C59.2014 22.2501 59.5409 22.1756 59.9256 22.3382C60.4686 22.5618 65.0623 22.345 65.4469 22.074C65.6053 21.9792 66.0127 22.0266 66.5557 22.2027C66.9631 22.3382 67.1667 22.3653 67.3704 22.3043C67.6646 22.2163 68.4339 22.2027 68.4339 22.284C68.4339 22.3585 70.38 22.494 70.6515 22.4398C70.7647 22.4195 70.9005 22.3382 70.9457 22.2637C71.0589 22.0943 71.964 22.074 71.8735 22.2434C71.8509 22.3043 72.0093 22.3721 72.2808 22.3992C72.5297 22.4195 72.7334 22.4737 72.7334 22.5076C72.7334 22.6092 73.548 22.5753 73.8648 22.4669C74.2721 22.3179 74.6568 22.3382 75.7204 22.5685C76.2408 22.6837 76.7839 22.765 76.9423 22.7447C77.1007 22.7244 77.3949 22.7718 77.6212 22.8463C78.0964 23.0089 78.3679 23.0089 78.7526 22.8531C79.0015 22.7582 79.1147 22.7515 79.4541 22.826C79.6804 22.8734 80.1329 22.9411 80.4497 22.9818C80.7892 23.0224 81.106 23.1037 81.1739 23.1715C81.3323 23.3544 82.69 23.4018 83.1425 23.246C83.3236 23.185 83.663 23.1105 83.8667 23.0902C84.093 23.0631 84.2061 23.0089 84.1382 22.9479C83.844 22.7176 86.1295 22.616 87.8267 22.7786C88.234 22.8192 88.6866 22.826 88.845 22.7989C89.3881 22.6973 90.0217 22.7244 90.5874 22.8869C91.2889 23.0766 91.5152 23.0834 91.6736 22.9073C91.8093 22.7582 91.8546 22.7582 92.5334 22.8327C92.7824 22.8666 93.167 22.8598 93.416 22.826C93.7328 22.7718 93.9817 22.7921 94.4795 22.9005C94.8189 22.9818 95.2262 23.0428 95.3394 23.0428C95.792 23.0428 96.7197 23.2053 96.7197 23.2799C96.7197 23.3341 96.946 23.3476 97.2855 23.3273C97.6249 23.3137 97.8512 23.3273 97.8512 23.3747C97.8512 23.4153 98.1001 23.4492 98.4169 23.4492C98.7337 23.4492 98.9826 23.4153 98.9826 23.3747C98.9826 23.3273 99.2089 23.3137 99.571 23.3408C100.069 23.3815 100.137 23.3679 100.024 23.2731C99.9104 23.185 100.001 23.1715 100.499 23.1986C101.223 23.2392 103.282 23.0563 103.282 22.9479C103.282 22.8327 104.323 22.5008 104.662 22.5008C104.889 22.5008 105.115 22.345 105.319 22.0401C105.635 21.6201 105.703 21.5863 106.292 21.5659C106.631 21.5524 106.857 21.5185 106.789 21.4846C106.722 21.4508 106.903 21.3695 107.219 21.3017C107.514 21.234 107.808 21.1053 107.898 21.024C108.057 20.8885 108.147 20.8682 108.6 20.8749C108.894 20.8817 109.46 20.6514 109.482 20.5159C109.505 20.4211 109.641 20.3669 109.912 20.3736C110.116 20.3804 110.297 20.3669 110.297 20.3398C110.297 20.3194 110.387 20.123 110.523 19.9062C110.727 19.5336 110.704 19.4997 110.093 19.2491C109.663 19.0662 109.414 18.8629 109.301 18.592C109.211 18.382 108.984 18.1516 108.781 18.0839C108.26 17.9145 108.238 17.2981 108.758 17.1897C109.075 17.1219 109.12 16.9932 109.052 16.3158C108.984 15.7332 109.052 15.5028 109.256 15.4351C109.437 15.3877 109.505 15.259 109.437 15.1303C109.392 14.9948 109.437 14.9135 109.595 14.9135C109.912 14.9135 109.912 14.6628 109.595 14.6086C109.46 14.5815 109.414 14.4325 109.482 14.2564C109.573 13.9515 109.301 13.7618 108.736 13.7618C108.396 13.7618 108.419 13.5247 108.781 13.4367C108.917 13.4028 109.301 13.3554 109.618 13.3418C110.003 13.3283 110.184 13.2808 110.184 13.1792C110.184 13.1047 110.365 12.9895 110.591 12.915C110.863 12.8337 110.931 12.7728 110.772 12.7253C110.614 12.6779 110.636 12.5898 110.817 12.4476C111.179 12.1766 111.066 11.9463 110.501 11.8447C110.003 11.7498 109.935 11.6618 110.387 11.6618C110.704 11.6618 110.704 11.6414 110.387 10.903C110.274 10.6388 110.32 10.5575 110.727 10.4017C110.998 10.2933 111.134 10.1917 111.021 10.1443C110.727 10.0291 110.727 9.75137 111.021 9.64976C111.157 9.59556 111.202 9.54137 111.134 9.51427C111.044 9.49395 111.089 9.41943 111.202 9.35846C111.36 9.27039 111.338 9.22297 111.112 9.20265C110.614 9.14168 110.523 8.82328 110.976 8.74876C111.519 8.6607 112.085 7.91551 111.655 7.83422C111.519 7.8139 111.428 7.71905 111.428 7.62421C111.428 7.5226 111.293 7.46163 111.089 7.46163C110.908 7.46163 110.75 7.42098 110.75 7.36679C110.75 7.31259 110.455 7.25162 110.071 7.22452C109.595 7.19065 109.392 7.13646 109.392 7.04839C109.392 6.97387 109.482 6.93322 109.618 6.95355C109.731 6.97387 109.89 6.9129 109.98 6.81128C110.071 6.70289 110.025 6.61483 109.867 6.58773C109.663 6.54708 109.686 6.48611 109.958 6.33707C110.139 6.22869 110.297 6.0661 110.297 5.97126C110.297 5.87642 110.455 5.7477 110.614 5.67996C110.84 5.59189 110.908 5.40898 110.84 5.01607C110.795 4.71799 110.84 4.48089 110.953 4.48089C111.066 4.48089 111.112 4.35895 111.044 4.20991C110.953 3.99991 110.998 3.93216 111.293 3.89829C111.474 3.87797 111.858 3.72893 112.13 3.56634C112.537 3.32924 112.56 3.25472 112.334 3.12601C112.107 2.99729 112.13 2.96342 112.537 2.87535C113.08 2.76019 113.171 2.52986 112.673 2.47567C112.401 2.44179 112.356 2.37405 112.469 2.20469C112.56 2.05565 112.515 1.97436 112.356 1.97436C112.22 1.97436 111.904 1.91339 111.655 1.83887C111.225 1.71016 111.157 1.71016 110.682 1.805C110.41 1.85919 110.116 1.90661 110.025 1.90661C109.686 1.90661 109.844 1.73048 110.297 1.61532C111.202 1.38499 110.614 0.829485 109.573 0.924326C109.347 0.951424 108.984 0.931101 108.803 0.88368C108.622 0.843035 108.125 0.795612 107.672 0.782064C106.835 0.761742 105.658 0.470442 105.658 0.287533C105.658 0.226562 105.273 0.185917 104.481 0.165594C103.418 0.138496 103.282 0.152044 103.282 0.273985C103.282 0.450119 102.151 0.531412 101.426 0.395924C101.087 0.334953 100.386 0.301081 99.4352 0.314631C98.6206 0.321405 97.8059 0.301081 97.6023 0.273985C97.3986 0.240112 96.7424 0.199465 96.1314 0.172367C95.5204 0.152044 94.9321 0.118174 94.8189 0.0978489C94.7284 0.0775261 94.5474 0.0978489 94.4569 0.145269C94.3664 0.192692 94.0496 0.240112 93.7554 0.25366C92.5334 0.307856 91.8546 0.375601 91.6962 0.443344C91.5604 0.49754 91.5152 0.49754 91.5152 0.443344C91.5152 0.314631 90.6326 0.280758 90.4063 0.395924C90.2479 0.48399 90.1574 0.48399 89.5238 0.389149C89.0486 0.314631 88.7771 0.301081 88.6639 0.355276C88.5961 0.395924 88.2114 0.416246 87.8493 0.402699C87.4873 0.382374 87.1478 0.389149 87.1026 0.416246C87.0347 0.443344 86.5595 0.436569 86.039 0.402699C84.3419 0.294308 82.4637 0.26721 82.4637 0.348503C82.4637 0.402699 82.2148 0.409472 81.7622 0.382374C81.2417 0.348503 80.9928 0.362051 80.7892 0.450119C80.5629 0.54496 80.4045 0.551735 80.0424 0.49754C79.7935 0.456892 79.522 0.436569 79.4541 0.463667C79.3636 0.48399 79.1599 0.463667 78.9789 0.423021C78.7979 0.375601 78.5489 0.355276 78.4358 0.375601C78.3 0.395924 78.0964 0.368826 77.938 0.314631C77.6212 0.199465 77.0328 0.179142 77.0328 0.280758C77.0328 0.375601 76.1956 0.362051 76.0598 0.260435C75.9693 0.20624 75.7204 0.25366 75.2904 0.395924C74.5663 0.626253 73.4575 0.707546 72.9144 0.565283C72.7107 0.517862 72.3939 0.504314 72.1903 0.524637C71.964 0.551735 71.6246 0.517862 71.353 0.443344C70.8778 0.314631 69.7916 0.233337 69.7916 0.334953C69.7916 0.362051 69.4296 0.429794 68.9996 0.477217C68.2755 0.551735 68.1624 0.54496 67.5967 0.389149C66.9404 0.20624 66.6236 0.172367 66.6236 0.280758C66.6236 0.314631 66.4879 0.348503 66.3295 0.348503C66.1711 0.348503 65.6959 0.402699 65.2659 0.477217C64.7681 0.551735 64.1797 0.592381 63.6819 0.572058C62.46 0.531412 60.9665 0.402699 60.9665 0.348503C60.9665 0.273985 60.0613 0.348503 59.4956 0.463667C58.8394 0.599155 58.5 0.572058 58.5452 0.389149C58.5678 0.294308 58.5 0.21979 58.3868 0.21979C58.2737 0.226562 58.1153 0.185917 58.0247 0.145269C57.8211 0.0436535 56.486 0.00300789 56.305 0.084301Z" fill="black"/>
</svg>
