<svg width="143" height="61" viewBox="0 0 143 61" fill="none" xmlns="http://www.w3.org/2000/svg">
<path d="M95.21 0.50016C95.048 0.680687 92.888 0.86121 90.458 0.906342C83.654 1.08687 83.06 1.132 83.06 1.44792C83.06 1.62844 81.278 1.62844 79.172 1.49305C74.528 1.17713 71.342 1.2674 61.46 1.94437C55.898 2.35055 53.414 2.35055 51.092 1.89923C47.96 1.35766 45.314 1.62844 44.612 2.53107C44.342 2.89212 41.75 3.07265 37.052 3.16291C33.11 3.20804 27.926 3.38857 25.55 3.5691C23.174 3.70449 19.718 3.83988 17.882 3.79475C16.046 3.74962 13.94 3.97528 13.292 4.24607C12.59 4.56199 9.56599 4.87791 6.38 4.96817C-0.909996 5.19382 -3.016 5.32922 -3.718 5.69027C-4.042 5.8708 -6.688 5.82566 -9.55 5.55487C-13.708 5.19382 -15.328 5.23896 -17.542 5.7354C-19.486 6.18671 -26.128 6.54777 -38.98 6.86369C-49.24 7.13448 -61.714 7.49553 -66.79 7.67605C-71.812 7.85658 -76.348 7.99197 -76.78 7.90171C-77.806 7.76632 -77.914 7.76632 -85.096 7.76632C-88.93 7.76632 -91.306 7.58579 -91.846 7.22474C-92.332 6.90882 -95.14 6.63803 -99.406 6.50264C-103.996 6.41237 -106.534 6.14158 -107.29 5.7354C-107.938 5.37435 -108.586 5.23896 -108.748 5.37435C-108.964 5.50975 -110.206 5.69027 -111.61 5.82566C-115.012 6.05132 -118.36 7.36013 -122.464 10.1131C-126.73 12.9564 -126.946 13.9944 -123.652 15.7997C-122.032 16.7475 -120.682 17.0634 -118.684 17.1085C-114.85 17.1988 -114.58 17.2439 -114.58 17.6952C-114.58 17.8757 -115.93 19.2297 -117.55 20.6739C-120.034 22.7951 -120.52 23.5172 -120.304 24.4649C-120.142 25.0968 -119.872 26.8118 -119.71 28.256C-119.386 30.6479 -119.44 30.8736 -120.358 30.7382C-121.06 30.6479 -121.276 30.2417 -121.168 29.4745C-121.006 28.5719 -121.114 28.4816 -121.6 28.8878C-121.978 29.1586 -122.41 30.9187 -122.518 32.724C-122.788 35.477 -123.058 36.2442 -124.192 37.2822C-125.272 38.23 -125.434 38.6362 -124.948 39.0424C-124.03 39.8096 -124.138 40.306 -125.326 40.306C-127.324 40.306 -127.162 41.8856 -124.84 44.8643C-123.652 46.3988 -122.68 47.8881 -122.68 48.1589C-122.68 49.4226 -119.116 52.1305 -115.876 53.3941C-113.986 54.1614 -112.204 54.7481 -111.88 54.7481C-111.61 54.7481 -110.422 55.4251 -109.342 56.1923C-106.912 57.9524 -102.106 59.9833 -100.918 59.7577C-100.702 59.7577 -100 59.8931 -99.46 60.1639C-98.326 60.6603 -93.142 61.0665 -92.71 60.6603C-92.548 60.5249 -90.118 60.4798 -87.31 60.57C-82.99 60.6603 -82.18 60.57 -82.18 59.9833C-82.18 59.6223 -81.91 58.7648 -81.532 58.1329C-80.992 57.1401 -80.614 57.0047 -78.292 57.0047C-76.618 57.0047 -75.592 56.779 -75.376 56.418C-75.268 56.102 -74.296 55.8312 -73.27 55.7861C-71.65 55.741 -71.488 55.8764 -71.542 56.9595C-71.596 57.7268 -71.38 58.1329 -70.84 58.1781C-70.408 58.1781 -69.382 58.3586 -68.572 58.5391C-67.762 58.7197 -66.682 58.6745 -66.088 58.4037C-65.278 58.0427 -64.846 58.0878 -64.36 58.5843C-63.82 59.1258 -63.874 59.3064 -64.576 59.532C-65.062 59.6674 -65.764 59.7125 -66.088 59.6223C-66.466 59.4869 -67.492 59.6674 -68.41 59.9833C-69.922 60.5249 -69.814 60.57 -66.034 60.6152H-62.038L-62.362 58.8099C-62.686 56.8241 -61.876 56.3728 -60.688 57.9073C-60.148 58.6745 -59.824 58.7197 -58.96 58.3586C-58.366 58.0878 -57.88 57.5011 -57.88 57.0498C-57.88 56.2826 -57.34 56.2374 -49.888 56.3728C-45.514 56.418 -41.95 56.5533 -41.95 56.5533C-41.95 56.5985 -40.384 56.7339 -38.494 56.8241C-36.388 56.9595 -34.822 56.8241 -34.336 56.5082C-33.85 56.1923 -32.77 56.102 -31.528 56.2374C-30.34 56.418 -28.612 56.2826 -27.262 55.8764C-25.534 55.3799 -24.616 55.3348 -23.374 55.6958C-22.186 56.0569 -21.214 56.0569 -20.08 55.6958C-19.162 55.4251 -17.704 55.3348 -16.894 55.4702C-15.976 55.6507 -14.68 55.4251 -13.6 54.9737C-12.466 54.4773 -11.332 54.3419 -10.414 54.5224C-9.658 54.703 -7.498 54.8384 -5.662 54.7932C-2.098 54.7481 -0.963997 55.2897 -2.584 56.3277C-3.556 56.9144 -3.502 56.9595 -1.882 57.0047C0.115997 57.0047 0.872002 56.3277 -0.477997 55.6958C-1.99 55.0189 -1.072 54.7481 1.088 55.1994C2.168 55.4702 3.194 55.9666 3.356 56.3728C3.51801 56.7339 3.896 56.9595 4.166 56.8241C4.868 56.4631 6.38 57.0047 6.38 57.6365C6.38 57.9524 8.054 58.1781 11.132 58.3135C19.772 58.6294 20.312 58.5843 21.392 57.7719C21.932 57.3657 23.282 57.0047 24.362 57.0047C25.442 57.0047 26.414 56.8241 26.63 56.5533C26.846 56.2826 27.44 56.2826 28.304 56.5533C29.816 57.0498 34.73 56.4631 53.36 53.5747C64.268 51.8597 67.4 51.1376 67.4 50.1898C67.4 49.7836 68.318 49.7385 70.586 49.919C72.908 50.1447 74.042 50.0544 74.528 49.6482C74.906 49.2872 76.688 48.9713 78.632 48.9261C80.468 48.881 83.168 48.52 84.572 48.204C85.976 47.843 89.216 47.5271 91.808 47.5271C96.344 47.5271 100.34 46.6244 100.34 45.6315C100.34 45.4059 100.934 45.3608 101.69 45.5413C102.554 45.7218 103.04 45.6315 103.04 45.3156C103.04 44.9997 103.526 44.9094 104.282 45.0448C104.984 45.2254 106.658 44.9997 108.062 44.5935C109.466 44.1873 110.87 44.0068 111.14 44.1422C112.004 44.5935 117.62 43.3298 117.62 42.698C117.62 42.3821 118.214 42.1113 118.916 42.1113C119.618 42.1113 120.644 41.9759 121.184 41.7954C121.832 41.6149 121.994 41.66 121.724 42.021C121.508 42.337 121.562 42.5626 121.886 42.5626C122.156 42.5626 122.48 42.2918 122.642 41.9759C122.804 41.5246 123.128 41.5246 124.046 41.9759C125.774 42.8785 126.962 42.7431 126.638 41.66C126.422 40.9379 126.638 40.7574 127.556 40.7574C128.258 40.7574 129.23 40.3512 129.77 39.8547C130.58 39.0875 130.634 38.8167 130.04 37.5982C129.5 36.4699 129.5 35.9734 130.04 35.1159C131.39 33.0399 130.472 32.5434 125.828 32.6337C123.56 32.724 120.968 32.724 120.05 32.6788C118.43 32.5886 118.43 32.5886 120.752 31.6408C123.614 30.5125 123.668 29.9258 120.86 29.9258C119.672 29.9258 118.7 29.7453 118.7 29.4745C118.7 28.8878 121.94 28.256 126.692 27.8949C128.798 27.7144 130.742 27.3985 130.904 27.1728C131.066 26.9472 131.714 26.7666 132.308 26.7666C132.956 26.7666 133.334 26.6312 133.118 26.4958C132.956 26.3153 130.904 26.1348 128.582 26.0445C124.046 25.8189 123.884 25.8189 120.482 25.9091C119.186 25.9091 117.674 25.6383 116.972 25.2322C116.324 24.826 115.352 24.5101 114.812 24.5101C114.272 24.5101 113.84 24.2844 113.84 24.0587C113.84 23.788 114.326 23.6074 114.92 23.6074C115.514 23.6074 116 23.3366 116 23.0207C116 21.8924 115.352 21.8473 114.326 22.8402C113.354 23.788 113.246 23.788 112.544 23.0207C111.842 22.2535 111.734 22.2986 111.248 23.472L110.708 24.7357L110.654 23.5172C110.6 22.8402 110.222 22.1181 109.736 21.8924C108.98 21.5314 109.034 21.4411 110.222 21.1703C110.978 21.0349 111.95 21.0349 112.382 21.1703C112.814 21.3057 113.516 21.1252 113.894 20.7642C114.434 20.2677 114.866 20.2226 115.568 20.5836C116.216 20.9447 116.702 20.8995 117.296 20.4934C118.754 19.5005 118.268 19.0943 115.73 19.0943C114.218 19.0943 113.3 19.2748 113.3 19.6359C113.3 20.0421 113.138 20.0421 112.706 19.681C111.734 18.8686 112.544 17.7404 114.056 17.7404C115.73 17.7404 116.216 17.1085 115.19 16.3864C114.596 15.9802 113.948 15.9351 113.138 16.2059C112.49 16.4315 111.14 16.5669 110.222 16.4767C108.818 16.3413 108.44 16.1156 108.44 15.3484C108.44 14.6263 108.602 14.536 109.088 14.9422C109.844 15.574 114.812 15.6643 116 15.0325C116.972 14.536 116.918 14.4909 113.192 13.2272C110.654 12.3697 109.844 12.2795 108.764 12.6856C107.9 13.0016 106.874 13.0467 105.74 12.7759C103.904 12.3246 85.004 12.5502 83.492 13.0016C83.006 13.1821 82.142 13.0918 81.602 12.821C80.576 12.3246 80.792 12.2795 84.95 12.0989C89.162 11.9184 89.864 11.8281 90.62 11.422C91.268 11.0609 91.268 10.9255 90.458 10.1583C89.972 9.70696 89.54 8.7592 89.54 8.12737C89.54 6.81855 89.162 6.72829 85.274 6.90882C83.978 6.95395 83.546 6.81855 83.708 6.36724C83.87 5.96106 85.436 5.69027 88.46 5.50975C92.348 5.23896 93.104 5.05843 93.914 4.1558C94.454 3.5691 94.94 3.34344 94.94 3.61423C94.94 4.42659 96.02 4.33633 96.02 3.5691C96.02 3.16291 96.452 3.02752 97.37 3.20804C98.126 3.29831 99.314 3.07265 100.07 2.66647C100.772 2.26028 101.852 1.94437 102.446 1.94437C103.04 1.94437 103.688 1.71871 103.85 1.49305C104.066 1.22226 103.526 1.04174 102.554 1.04174C101.69 1.04174 100.826 0.86121 100.664 0.680687C100.34 0.229374 95.696 0.0939789 95.21 0.50016ZM65.564 5.41948C66.806 6.50264 70.154 6.5929 70.478 5.55487C70.64 5.0133 71.126 4.83278 72.044 5.0133C73.772 5.28409 74.096 5.78053 73.34 6.95395C72.854 7.72118 72.368 7.85658 71.126 7.63092C70.208 7.49553 69.074 7.58579 68.534 7.90171C67.94 8.21763 67.13 8.26276 66.536 8.0371C65.942 7.81145 65.294 7.72118 64.97 7.81145C63.134 8.21763 52.982 8.53355 52.55 8.1725C51.956 7.67605 56.654 6.00619 59.786 5.60001C61.676 5.32922 63.35 5.0133 63.512 4.87791C63.998 4.47172 64.592 4.60712 65.564 5.41948ZM79.388 5.7354C80.036 6.54777 79.874 6.99908 78.956 6.81855C78.47 6.72829 77.66 6.18671 77.228 5.60001C76.364 4.56199 76.364 4.51685 77.66 4.87791C78.416 5.05843 79.172 5.46461 79.388 5.7354ZM-10.9 11.422C-12.844 11.9184 -13.6 11.9184 -13.6 11.422C-13.6 11.1512 -12.682 10.9706 -11.548 11.0158C-9.766 11.0609 -9.712 11.106 -10.9 11.422Z" fill="black"/>
<path d="M112.814 0.545294C112.058 0.725819 111.41 1.08687 111.248 1.40279C111.086 1.80897 112.004 1.94437 114.326 1.94437C116.756 1.94437 117.62 1.76384 117.62 1.31253C117.62 0.229374 115.568 -0.0865457 112.814 0.545294Z" fill="black"/>
<path d="M106.01 1.49305C105.794 1.76384 106.442 1.94437 107.576 1.94437C108.656 1.94437 109.52 1.71871 109.52 1.49305C109.52 1.22226 108.818 1.04174 107.954 1.04174C107.036 1.04174 106.172 1.22226 106.01 1.49305Z" fill="black"/>
<path d="M112.49 2.847C112.274 3.11778 112.76 3.29831 113.57 3.29831C114.38 3.29831 114.866 3.11778 114.65 2.847C114.488 2.57621 114.002 2.39568 113.57 2.39568C113.138 2.39568 112.652 2.57621 112.49 2.847Z" fill="black"/>
<path d="M100.88 5.87078C98.558 6.45749 98.504 6.45749 99.152 6.99907C99.53 7.31499 99.8 7.94683 99.746 8.44327C99.746 8.98485 99.584 9.12025 99.422 8.80433C98.936 7.7663 96.02 8.48841 96.02 9.70695C96.02 10.2034 102.608 10.1583 103.58 9.61669C104.228 9.30077 104.174 9.16538 103.31 8.89459C101.204 8.26275 100.772 7.7663 101.798 7.08933C102.878 6.45749 102.23 5.55487 100.88 5.87078Z" fill="black"/>
<path d="M91.16 7.13449C91.538 7.49554 92.186 7.81146 92.564 7.81146C92.996 7.81146 93.32 7.49554 93.32 7.13449C93.32 6.68318 92.78 6.45752 91.916 6.45752C90.728 6.45752 90.566 6.54778 91.16 7.13449Z" fill="black"/>
<path d="M91.7 10.0229C92.024 10.5645 92.51 10.9706 92.78 10.9706C93.752 10.9706 93.374 10.1131 92.186 9.6167C91.16 9.12026 91.106 9.16539 91.7 10.0229Z" fill="black"/>
<path d="M122.264 15.6192C121.508 16.0705 121.4 16.3413 121.886 16.6121C122.696 17.0183 123.776 16.251 123.506 15.5289C123.344 15.1679 122.966 15.213 122.264 15.6192Z" fill="black"/>
<path d="M118.43 15.9803C117.89 16.6572 118.322 16.8377 119.672 16.5218C120.32 16.3864 120.698 16.1156 120.536 15.89C120.158 15.3484 118.862 15.3935 118.43 15.9803Z" fill="black"/>
<path d="M121.4 19.9067C119.726 21.1252 119.132 21.8473 119.402 22.3889C119.834 23.3818 120.32 23.3367 122.534 22.1181C124.37 21.0801 125.18 19.3651 124.262 18.5979C123.938 18.3271 122.804 18.8235 121.4 19.9067Z" fill="black"/>
<path d="M135.224 35.7478C134.792 36.2894 138.14 36.6504 140.84 36.3796C142.352 36.1991 142.838 35.9734 142.352 35.7478C141.434 35.2513 135.602 35.2513 135.224 35.7478Z" fill="black"/>
</svg>
