<svg width="50" height="50" viewBox="0 0 50 50" fill="none" xmlns="http://www.w3.org/2000/svg">
<path d="M22.2802 0.120002C22.0802 0.280002 22.1502 0.940002 22.3602 0.860002C22.4302 0.830002 22.6502 0.780002 22.8402 0.740002C23.3002 0.660002 23.3502 0.560002 23.1302 0.250002C22.9302 -0.0199977 22.5402 -0.0799978 22.2802 0.120002Z" fill="black"/>
<path d="M27.67 0.589993C27.51 0.689991 27.2 0.809994 26.97 0.849991C26.63 0.909992 26.59 0.929993 26.75 0.999992C26.94 1.06999 26.93 1.07999 26.7 1.12999C26.56 1.15999 26.21 1.21999 25.91 1.24999C25.42 1.30999 25.35 1.28999 25.16 1.05999C25.04 0.929993 24.79 0.789993 24.6 0.749992C24.31 0.689991 24.27 0.699993 24.38 0.809994C24.73 1.17999 24.25 1.34999 23.8 0.999992C23.56 0.819992 23.55 0.819992 23.35 0.999992C23.19 1.13999 22.87 1.20999 21.83 1.28999C21.11 1.35999 20.3 1.46999 20.03 1.54999C19.37 1.74999 19.36 1.72999 19.98 1.44999C20.29 1.30999 20.5 1.14999 20.5 1.04999C20.5 0.879993 20.43 0.849991 19.88 0.749992C19.53 0.699993 19.5 0.709991 19.5 0.939991C19.5 1.10999 19.39 1.25999 19.18 1.40999C19 1.52999 18.83 1.64999 18.81 1.66999C18.79 1.67999 18.83 1.87999 18.9 2.10999C19.02 2.46999 19.07 2.50999 19.31 2.47999C19.47 2.44999 19.56 2.47999 19.53 2.52999C19.42 2.71999 18.79 2.89999 18.28 2.89999C17.76 2.88999 17.75 2.88999 18.05 2.75999L18.35 2.62999L17.98 2.44999C17.67 2.29999 17.56 2.28999 17.34 2.38999C17.03 2.52999 16.92 2.46999 17.1 2.24999C17.17 2.15999 17.21 2.07999 17.19 2.05999C17.14 2.01999 14.62 2.74999 13.4 3.14999C12.23 3.52999 10.76 4.29999 10.12 4.85999C9.59005 5.31999 9.56005 5.44999 9.95005 5.51999C10.06 5.53999 10.15 5.59999 10.15 5.64999C10.16 5.70999 10.2 5.85999 10.24 5.98999L10.32 6.22999L10.45 5.91999C10.61 5.54999 10.89 5.35999 11.65 5.08999C12.27 4.86999 12.42 4.89999 12.17 5.16999C11.99 5.37999 11.66 6.18999 11.55 6.69999L11.48 7.04999L11.78 6.64999C11.94 6.42999 12.35 5.98999 12.69 5.67999C13.2 5.19999 13.3 5.04999 13.31 4.74999C13.32 4.55999 13.33 4.33999 13.34 4.26999C13.36 3.97999 14.05 3.78999 14.28 4.01999C14.37 4.10999 14.29 4.24999 13.95 4.60999C13.7 4.87999 13.5 5.16999 13.5 5.25999C13.5 5.37999 13.62 5.29999 13.9 4.99999C14.23 4.63999 14.33 4.58999 14.56 4.63999C14.86 4.71999 15.2 4.51999 14.98 4.38999C14.91 4.34999 14.88 4.28999 14.9 4.26999C15.12 4.09999 16.49 3.29999 16.58 3.29999C16.75 3.29999 16.83 3.71999 16.71 4.00999C16.66 4.15999 16.44 4.35999 16.23 4.46999C16.02 4.57999 15.5 4.84999 15.07 5.07999C14.46 5.40999 14.19 5.49999 13.8 5.49999C13.38 5.49999 13.3 5.52999 13.3 5.68999C13.3 5.78999 13.37 5.92999 13.45 5.99999C13.53 6.06999 13.6 6.17999 13.6 6.25999C13.6 6.45999 13.09 6.77999 12.54 6.90999C12.27 6.97999 11.7 7.19999 11.28 7.41999C10.73 7.68999 10.5 7.75999 10.5 7.65999C10.5 7.58999 10.61 7.21999 10.76 6.84999C10.9 6.46999 11 6.04999 10.98 5.90999C10.93 5.48999 10.67 5.59999 10.5 6.11999C10.38 6.50999 10.32 6.57999 10.15 6.53999C10.04 6.50999 9.78005 6.55999 9.57005 6.64999C9.37005 6.72999 9.20005 6.76999 9.20005 6.72999C9.20005 6.68999 9.37005 6.47999 9.57005 6.25999L9.95005 5.86999L9.35005 6.28999C9.02005 6.52999 8.35005 6.98999 7.85005 7.32999C6.98005 7.91999 5.80005 8.98999 5.80005 9.16999C5.80005 9.21999 5.93005 9.24999 6.10005 9.21999C6.54005 9.15999 6.49005 9.37 5.85005 10.15C5.55005 10.51 5.30005 10.84 5.30005 10.86C5.30005 10.95 5.41005 10.89 5.74005 10.6C5.94005 10.42 6.11005 10.34 6.15005 10.39C6.18005 10.45 5.68005 11.02 5.04005 11.65C3.89005 12.8 3.88005 12.82 3.95005 13.18C4.03005 13.6 4.20005 13.85 4.20005 13.54C4.20005 12.96 4.64005 12 4.91005 12C5.06005 12 5.01005 12.32 4.64005 13.76C4.44005 14.53 4.25005 15.51 4.21005 15.95L4.15005 16.75L3.78005 16.15C3.57005 15.82 3.40005 15.62 3.40005 15.71C3.40005 15.8 3.15005 16.18 2.85005 16.55C2.55005 16.91 2.30005 17.23 2.30005 17.25C2.30005 17.26 2.23005 17.44 2.15005 17.64C2.07005 17.84 2.02005 18 2.04005 18C2.06005 18 2.23005 17.77 2.41005 17.48L2.74005 16.97L2.87005 17.26C3.05005 17.68 3.03005 18.02 2.75005 19.5C2.50005 20.85 2.45005 21.69 2.60005 22.05C2.68005 22.23 2.69005 22.23 2.69005 21.99C2.70005 21.67 2.93005 21.35 3.08005 21.44C3.23005 21.53 3.23005 22.14 3.09005 22.79C2.94005 23.5 2.76005 23.58 2.82005 22.9L2.87005 22.38L2.54005 22.43C2.14005 22.5 2.14005 22.49 2.04005 21.15C2.01005 20.6 1.94005 20.05 1.89005 19.92C1.76005 19.58 1.52005 19.65 1.44005 20.05C1.35005 20.56 1.46005 21.19 1.90005 22.55C2.33005 23.89 2.47005 24.5 2.33005 24.5C2.28005 24.5 2.10005 24.31 1.92005 24.08C1.58005 23.64 1.53005 23.67 1.71005 24.18C1.77005 24.35 1.87005 24.48 1.93005 24.47C2.01005 24.46 2.05005 24.71 2.05005 25.33C2.05005 25.81 2.03005 26.2 2.00005 26.2C1.97005 26.2 1.80005 26.11 1.63005 26L1.30005 25.8L1.31005 26.08C1.32005 26.64 1.45005 27.25 1.55005 27.22C1.67005 27.18 2.21005 29.29 2.52005 31.02C2.65005 31.71 2.78005 32.24 2.81005 32.18C2.89005 32.05 3.15005 32.52 3.25005 32.99C3.37005 33.53 3.49005 33.15 3.44005 32.4L3.40005 31.75L3.55005 32.3C3.64005 32.6 3.75005 33.33 3.80005 33.92C3.85005 34.52 3.95005 35.21 4.01005 35.47L4.13005 35.93L4.31005 35.71L4.49005 35.49L4.63005 35.83C4.94005 36.57 4.95005 36.63 4.68005 36.58L4.43005 36.53L4.66005 36.88C4.79005 37.07 4.90005 37.33 4.90005 37.45C4.90005 37.65 5.27005 38.1 5.43005 38.1C5.47005 38.1 5.48005 37.98 5.44005 37.83C5.41005 37.67 5.59005 37.92 5.84005 38.37C6.09005 38.83 6.30005 39.3 6.30005 39.43C6.30005 39.9 6.74005 40.54 7.50005 41.15C7.91005 41.49 8.30005 41.86 8.36005 41.98C8.47005 42.2 9.91005 43.57 10.94 44.42C11.69 45.05 13.04 45.95 14.03 46.5C14.49 46.75 14.77 46.96 14.7 47C14.59 47.07 17.58 48.78 18.63 49.24C19.77 49.74 20.77 50 21.56 50C21.96 50 22.3 49.97 22.3 49.94C22.3 49.91 22.25 49.8 22.2 49.69C22.13 49.56 22.13 49.5 22.2 49.5C22.25 49.5 22.3 49.42 22.3 49.32C22.3 49.16 22.46 49.15 24.32 49.15C26.5 49.15 27.65 49.01 29.52 48.55C30.08 48.41 30.55 48.3 30.56 48.3C30.58 48.3 30.6 48.51 30.6 48.78C30.6 49.36 30.81 49.7 31.17 49.7H31.43L31.15 49.44C30.92 49.23 30.88 49.13 30.93 48.83C31 48.43 31.22 48.15 31.62 47.94C31.88 47.8 31.9 47.81 31.9 47.99C31.9 48.38 32.19 48.4 33.66 48.14C34.42 48.01 35.17 47.87 35.33 47.84C35.57 47.78 35.6 47.8 35.6 48.04C35.6 48.34 35.62 48.35 36.26 48.15C36.53 48.07 36.76 48 36.78 48C36.79 48 36.8 48.16 36.8 48.35C36.8 48.57 36.74 48.73 36.63 48.79C36.53 48.85 36.49 48.9 36.53 48.9C36.67 48.9 37.22 48.48 37.16 48.43C37.13 48.4 37.2 48.24 37.31 48.09L37.51 47.8H37.07C36.82 47.8 36.49 47.77 36.32 47.74C36.05 47.69 36.02 47.65 36.1 47.49C36.16 47.39 36.2 47.16 36.2 46.98V46.64L36.96 46.71L37.72 46.79L38.02 46.45C38.18 46.26 38.66 45.92 39.08 45.68C39.5 45.45 40.01 45.1 40.19 44.91C40.38 44.71 40.5 44.62 40.45 44.7C40.4 44.79 40.45 44.78 40.58 44.66C40.83 44.45 40.89 44.3 40.65 44.5C40.54 44.59 40.5 44.59 40.5 44.51C40.5 44.45 40.57 44.37 40.65 44.34C40.73 44.3 40.8 44.2 40.8 44.1C40.8 44.01 40.93 43.75 41.1 43.52L41.39 43.11L40.86 43.3C40.39 43.46 39.15 43.7 38.79 43.7C38.72 43.7 38.81 43.54 39 43.35C39.26 43.08 39.37 43.03 39.51 43.11C39.66 43.19 39.75 43.13 40.01 42.78C40.18 42.54 40.41 42.17 40.52 41.95C40.73 41.54 41.71 40.17 41.99 39.9C42.08 39.81 42.44 39.39 42.8 38.95C43.16 38.51 43.76 37.79 44.14 37.35C45.03 36.31 46.15 34.61 46.8 33.32C47.21 32.49 47.35 32.29 47.5 32.33C47.66 32.37 47.68 32.29 47.72 31.69C47.74 31.32 47.79 30.98 47.82 30.95C47.86 30.91 47.99 30.95 48.12 31.04C48.57 31.36 48.63 31.27 48.55 30.42C48.45 29.34 48.46 28.65 48.59 28.43C48.65 28.33 48.7 28.3 48.7 28.37C48.7 28.52 49.07 28.73 49.2 28.65C49.26 28.61 49.19 28.38 49.05 28.09C48.84 27.69 48.82 27.6 48.95 27.6C49.04 27.6 49.19 27.41 49.3 27.16C49.4 26.92 49.53 26.71 49.59 26.69C49.65 26.66 49.58 26.2 49.4 25.41C49.04 23.93 49.03 23.74 49.31 23.67C49.5 23.62 49.51 23.64 49.45 23.97C49.41 24.22 49.43 24.35 49.52 24.41C49.94 24.68 50.01 24.34 49.7 23.44C49.58 23.12 49.49 22.64 49.49 22.39C49.48 21.95 49.47 21.93 49.23 21.98L48.97 22.03L49 20.69C49.05 18.65 49.05 18.64 48.71 18.44C48.46 18.3 48.36 18.09 48.06 17.14C47.62 15.78 46.89 14.13 46.26 13.07C46.01 12.64 45.8 12.22 45.8 12.15C45.8 12.08 45.61 11.8 45.37 11.54C45.14 11.27 44.68 10.71 44.35 10.3C43.54 9.27999 42.03 7.78999 40.99 6.97999C40.21 6.36999 38.24 5.05999 37.97 4.96999C37.91 4.94999 38.02 4.73999 38.24 4.46999C38.66 3.95999 38.68 3.65999 38.32 3.41999C38.09 3.26999 38.09 3.26999 38.21 3.52999C38.31 3.74999 38.3 3.83999 38.16 4.03999C37.92 4.40999 37.63 4.52999 37.17 4.45999C36.94 4.41999 36.71 4.34999 36.65 4.30999C36.6 4.25999 36.38 4.16999 36.17 4.09999C35.82 3.98999 35.8 3.96999 35.94 3.80999C36.03 3.70999 36.1 3.57999 36.1 3.51999C36.1 3.27999 35.47 2.70999 34.58 2.11999C33.57 1.45999 33.27 1.40999 32.92 1.84999L32.74 2.06999L32.26 1.50999C31.78 0.959991 31.76 0.949993 31.21 0.939991C30.9 0.939991 30.36 0.839993 30 0.729992C29.64 0.619991 29.04 0.499992 28.65 0.459991C28.07 0.419991 27.9 0.439991 27.67 0.589993ZM28.17 0.559994C28.14 0.589993 28.05 0.599991 27.98 0.569992C27.9 0.539993 27.93 0.509991 28.04 0.509991C28.15 0.499992 28.21 0.529991 28.17 0.559994ZM35.28 3.57999C35.42 3.78999 35.42 3.79999 35.11 3.68999C34.8 3.57999 34.74 3.49999 34.87 3.35999C34.97 3.25999 35.12 3.33999 35.28 3.57999ZM8.58005 7.41999C8.50005 7.54999 8.24005 7.98999 8.00005 8.39999C7.76005 8.80999 7.55005 9.15999 7.54005 9.17999C7.53005 9.19999 7.41005 9.15999 7.29005 9.08999L7.06005 8.96999L7.33005 8.75999C7.48005 8.63999 7.60005 8.49999 7.60005 8.44999C7.60005 8.33999 8.58005 7.19999 8.67005 7.19999C8.70005 7.19999 8.66005 7.29999 8.58005 7.41999ZM7.00005 13.27C6.89005 13.44 6.89005 13.44 6.94005 13.27C6.97005 13.17 7.00005 13.03 7.01005 12.97C7.01005 12.88 7.03005 12.88 7.06005 12.97C7.09005 13.04 7.06005 13.17 7.00005 13.27ZM8.30005 13.89C8.30005 13.94 8.23005 14.03 8.15005 14.1C8.03005 14.2 8.00005 14.2 8.00005 14.08C8.00005 14 8.03005 13.9 8.07005 13.87C8.16005 13.77 8.30005 13.78 8.30005 13.89ZM7.10005 14.14C7.10005 14.16 7.13005 14.25 7.16005 14.33C7.19005 14.42 7.06005 14.59 6.82005 14.78L6.44005 15.09L6.59005 14.59C6.70005 14.24 6.79005 14.1 6.92005 14.1C7.02005 14.1 7.10005 14.12 7.10005 14.14ZM7.57005 14.56C7.51005 14.77 7.13005 15.43 6.73005 16.02C6.33005 16.62 5.81005 17.47 5.58005 17.92L5.15005 18.75L5.12005 17.33C5.10005 15.99 5.11005 15.89 5.32005 15.65C5.44005 15.51 5.59005 15.4 5.67005 15.4C5.74005 15.4 5.87005 15.29 5.96005 15.15C6.14005 14.87 6.30005 14.9 6.30005 15.21C6.30005 15.66 7.07005 15.14 7.42005 14.47C7.66005 13.99 7.73005 14.03 7.57005 14.56ZM48.9 19.64C48.9 20.08 48.73 19.83 48.66 19.3C48.6 18.87 48.6 18.86 48.74 19.1C48.83 19.24 48.89 19.48 48.9 19.64ZM4.56005 19.49C4.64005 19.42 4.73005 19.4 4.77005 19.43C4.87005 19.53 4.39005 20.6 4.24005 20.6C3.96005 20.6 3.74005 19.76 3.91005 19.32L4.01005 19.05L4.22005 19.33C4.38005 19.55 4.45005 19.58 4.56005 19.49ZM33.7 47.25C33.7 47.35 33.6 47.4 33.38 47.4L33.05 47.39L33.3 47.25C33.62 47.07 33.7 47.07 33.7 47.25ZM32.82 47.97C32.96 48.15 32.65 48.25 32.32 48.14C31.94 48.01 31.94 47.82 32.32 47.66C32.62 47.53 32.65 47.53 32.69 47.68C32.71 47.77 32.77 47.91 32.82 47.97ZM21.95 49.11C22.09 49.25 21.59 49.21 21.25 49.06C20.95 48.92 20.96 48.92 21.4 48.97C21.65 49 21.89 49.06 21.95 49.11Z" fill="black"/>
<path d="M25.5302 0.870254C25.6802 0.890254 25.9202 0.890254 26.0802 0.870254C26.2302 0.850254 26.1002 0.830254 25.8002 0.830254C25.5002 0.830254 25.3702 0.850254 25.5302 0.870254Z" fill="black"/>
<path d="M36.3801 3.54012C36.5001 3.70012 36.6001 3.91012 36.6001 4.02012C36.6001 4.13012 36.6501 4.18012 36.7001 4.15012C36.9001 4.03012 36.7901 3.71012 36.4801 3.48012L36.1501 3.25012L36.3801 3.54012Z" fill="black"/>
<path d="M3.32009 13.43C3.09009 13.68 3.04009 13.95 3.20009 14.05C3.26009 14.08 3.30009 14.21 3.30009 14.33C3.31009 14.55 3.31009 14.55 3.46009 14.35C3.59009 14.17 3.59009 14.15 3.46009 14.12C3.26009 14.08 3.26009 14.08 3.45009 13.63C3.64009 13.19 3.60009 13.13 3.32009 13.43Z" fill="black"/>
<path d="M1.65002 14.8401C1.52002 15.1801 1.51002 15.3201 1.59002 15.4901C1.80002 15.8601 1.90002 15.7101 1.90002 15.0501C1.90002 14.6901 1.88002 14.4001 1.86002 14.4001C1.84002 14.4001 1.74002 14.6001 1.65002 14.8401Z" fill="black"/>
<path d="M1.17008 16.5002C1.01008 16.7802 0.850079 17.0002 0.810079 17.0002C0.710079 17.0002 0.440079 16.6902 0.380079 16.5002C0.350079 16.4202 0.310079 16.5202 0.290079 16.7202C0.260079 16.9202 0.280079 17.0602 0.320079 17.0402C0.360079 17.0102 0.400079 17.1502 0.400079 17.3402C0.400079 17.5402 0.450079 17.7002 0.500079 17.7002C0.560079 17.7002 0.600079 17.6602 0.600079 17.6102C0.600079 17.5502 0.870079 17.3002 1.20008 17.0502C1.79008 16.5902 1.92008 16.3602 1.68008 16.1202C1.50008 15.9402 1.47008 15.9602 1.17008 16.5002Z" fill="black"/>
<path d="M0.5 18.2999C0.5 18.3599 0.57 18.3999 0.65 18.3999C0.84 18.3999 0.84 18.3399 0.65 18.2599C0.57 18.2299 0.5 18.2499 0.5 18.2999Z" fill="black"/>
<path d="M48.42 31.5502C48.31 31.8002 48.25 33.0902 48.35 32.9802C48.41 32.9202 48.62 31.3902 48.57 31.3402C48.55 31.3202 48.48 31.4102 48.42 31.5502Z" fill="black"/>
<path d="M46.2901 35.1201C46.2001 35.4601 46.1001 35.8201 46.0601 35.9101C45.9501 36.1501 46.4301 36.0401 46.6801 35.7601C47.0301 35.3901 47.0401 35.1501 46.7301 34.8001L46.4401 34.4801L46.2901 35.1201Z" fill="black"/>
<path d="M45.7 36.4098C45.63 36.5198 45.6 36.6398 45.63 36.6598C45.65 36.6798 45.72 36.5898 45.78 36.4498C45.92 36.1498 45.85 36.1198 45.7 36.4098Z" fill="black"/>
<path d="M45.3101 37.42C45.0901 38.08 45.1201 38.08 45.5401 37.45L45.8001 37.05V37.45C45.7901 37.67 45.7301 37.96 45.6501 38.1C45.2901 38.73 45.5901 39.01 46.1401 38.57C46.3901 38.36 46.4101 38.31 46.3101 38.11C46.2301 37.98 46.2101 37.73 46.2601 37.45C46.3201 37.03 46.3101 37 46.0501 36.9C45.6001 36.73 45.5301 36.78 45.3101 37.42Z" fill="black"/>
<path d="M43.4102 39.6601C43.4102 39.7801 43.1502 40.1501 42.8502 40.4901C42.3202 41.0801 42.1802 41.4201 42.4002 41.5501C42.5802 41.6601 42.5102 41.7801 42.2302 41.8501L41.9502 41.9301L42.2402 42.0101C42.4402 42.0701 42.5902 42.0401 42.7702 41.9301L43.0202 41.7601L42.7902 41.6001C42.4402 41.3301 42.6002 41.1001 43.1502 41.1001H43.6002L43.5902 40.6701C43.5902 40.2001 43.4302 39.3301 43.4102 39.6601Z" fill="black"/>
<path d="M44.5501 39.7099C44.5101 39.7699 44.5001 39.8299 44.5301 39.8599C44.5501 39.8899 44.6001 39.8399 44.6301 39.7499C44.7001 39.5799 44.6401 39.5499 44.5501 39.7099Z" fill="black"/>
<path d="M44.15 40.5702C44 40.8102 43.9 41.0302 43.92 41.0502C43.93 41.0602 44.09 41.1102 44.26 41.1402C44.53 41.2002 44.61 41.1702 44.79 40.9402C45.07 40.5902 45.06 40.4802 44.7 40.2802L44.41 40.1202L44.15 40.5702Z" fill="black"/>
<path d="M41.9901 42.5702L41.6501 42.9302L41.9701 42.7102C42.3101 42.4802 42.4501 42.3202 42.3801 42.2402C42.3601 42.2202 42.1801 42.3702 41.9901 42.5702Z" fill="black"/>
<path d="M37.7502 47.6002C37.7202 47.6502 37.7402 47.7002 37.7902 47.7002C37.8502 47.7002 37.9002 47.6502 37.9002 47.6002C37.9002 47.5402 37.8802 47.5002 37.8602 47.5002C37.8302 47.5002 37.7802 47.5402 37.7502 47.6002Z" fill="black"/>
<path d="M34.55 48.7099C34.13 49.1399 34.09 49.2099 34.3 49.1499C34.73 49.0299 35.15 48.7499 35.18 48.5599C35.26 48.1599 35.02 48.2199 34.55 48.7099Z" fill="black"/>
<path d="M32.5501 48.6002L32.1501 48.7802L32.5301 48.7902C32.7801 48.8002 32.9301 48.7502 32.9701 48.6502C33.0601 48.4102 32.9801 48.4002 32.5501 48.6002Z" fill="black"/>
<path d="M26.5501 49.3C25.5601 49.4 24.2801 49.49 23.7001 49.5L22.6501 49.52L23.6501 49.71C24.2201 49.83 25.3101 49.93 26.2001 49.97L27.7501 50.02L27.5001 49.82L27.2501 49.62L27.5001 49.51C27.6401 49.46 28.1101 49.38 28.5501 49.34C29.1401 49.29 29.2801 49.25 29.1001 49.19C28.7501 49.09 28.5901 49.1 26.5501 49.3Z" fill="black"/>
</svg>
