<svg width="41" height="41" viewBox="0 0 41 41" fill="none" xmlns="http://www.w3.org/2000/svg">
<path d="M35.9081 0.432045C35.7946 0.652454 35.7046 0.679333 35.5128 0.544937L35.3484 0.426666L35.3758 0.566441C35.3915 0.663208 35.3836 0.706215 35.3523 0.706215C35.3054 0.706215 34.8709 0.555687 34.6243 0.458923C34.5616 0.432041 34.4716 0.469673 34.3385 0.571815L34.1389 0.716965L33.1877 0.733093C32.6632 0.743843 32.2131 0.765347 32.1857 0.792229C32.1544 0.813732 31.9508 0.829857 31.7238 0.819107C31.5007 0.813728 31.1523 0.840611 30.9527 0.872864C30.6669 0.926624 30.5182 0.926624 30.2638 0.872864C30.0211 0.824482 29.8528 0.824482 29.5866 0.867489C29.3948 0.899746 29.0268 0.948128 28.7685 0.975006C28.5141 1.00189 28.197 1.0664 28.0718 1.11478C27.88 1.19004 27.8134 1.19542 27.7116 1.14703C27.5433 1.06102 26.9014 1.0664 26.3964 1.15779C25.8641 1.25455 24.361 1.2223 23.7347 1.10403C23.3668 1.03414 23.2141 1.02877 22.8932 1.07715C22.2786 1.16854 20.0984 1.22767 16.4816 1.25993L14.8415 1.27068L14.7749 1.14703L14.7084 1.01801L14.5753 1.12016C14.4501 1.21692 14.3835 1.2223 13.7925 1.18467C13.4363 1.16854 13.037 1.12016 12.9 1.08253C12.6886 1.02339 12.5829 1.02877 12.1954 1.10403C11.8627 1.17392 11.6905 1.18467 11.5731 1.14703C11.3186 1.0664 9.81946 1.13091 9.58852 1.22768C9.29103 1.3567 8.12458 1.28681 7.90146 1.12553C7.73706 1.01264 7.54526 0.980385 7.36521 1.0449C7.27518 1.07715 7.25952 1.0664 7.23604 0.926624C7.22429 0.845985 7.16558 0.71159 7.10686 0.636326L6.99726 0.49118L6.70761 0.657829C6.47275 0.792229 6.39055 0.819107 6.26138 0.78685C6.17135 0.765347 6.03435 0.754597 5.95215 0.754597C5.86604 0.759972 5.74469 0.733093 5.67424 0.700836C5.57247 0.652454 5.49809 0.657833 5.29455 0.722343C5.15755 0.76535 4.94227 0.819107 4.81701 0.840611C4.61738 0.872868 4.57432 0.862114 4.49995 0.76535C4.45298 0.70084 4.35512 0.652454 4.26118 0.647079C4.13201 0.636326 4.08112 0.663208 3.96761 0.802979C3.77972 1.03952 3.61532 1.10403 3.3061 1.06102C2.8403 0.991135 2.86378 0.98576 2.82073 1.16316C2.7581 1.42658 2.72287 1.45884 2.53498 1.4212C2.4293 1.40508 2.29621 1.41583 2.20227 1.45884C2.04961 1.52872 2.0457 1.52872 1.9087 1.34594C1.83433 1.24918 1.76387 1.10941 1.74821 1.03952L1.72473 0.9105L1.63078 1.07715C1.5525 1.21692 1.50553 1.2438 1.37636 1.2438C1.23153 1.2438 1.21978 1.25455 1.24327 1.36207C1.32938 1.74913 1.31764 1.92117 1.1689 2.37274C1.02798 2.80281 1.02407 2.84044 0.992756 3.68446C0.973185 4.17366 0.934042 4.70587 0.894899 4.90478C0.836185 5.23271 0.832271 5.27571 0.890985 5.43162C0.941871 5.56601 0.945785 5.6144 0.906642 5.70041C0.867499 5.78642 0.871414 5.83481 0.914471 5.94233C0.953613 6.04984 0.957528 6.12511 0.922299 6.27563C0.887071 6.43691 0.890985 6.51217 0.957528 6.73258C1.09453 7.21641 1.04364 7.45295 0.691357 7.93678C0.562185 8.11419 0.417357 8.36685 0.370385 8.4905L0.284271 8.72166L0.362557 9.02808C0.409528 9.19473 0.487814 9.67319 0.542614 10.0818C0.601328 10.5495 0.667871 10.872 0.707014 10.9419C0.746157 11.0064 0.867499 11.1946 0.981013 11.3612C1.09453 11.5279 1.20413 11.7214 1.21978 11.7913C1.24327 11.8665 1.23153 12.1676 1.1963 12.56C1.15324 13.0654 1.14933 13.2912 1.18064 13.6083C1.21978 13.9739 1.21587 14.0223 1.14933 14.1567C1.07887 14.2857 1.07887 14.3126 1.12976 14.4524C1.1963 14.6298 1.21196 15.8286 1.15324 16.2049C1.13367 16.3285 1.09844 16.5651 1.07104 16.7317C1.04756 16.8984 0.996671 17.0758 0.953613 17.1295C0.887071 17.2156 0.883156 17.2317 0.937956 17.3446C0.992756 17.4628 0.988842 17.4951 0.855756 17.8499C0.707014 18.2639 0.601328 18.7423 0.601328 19.0219C0.601328 19.2261 0.930128 19.9411 1.09453 20.097C1.15324 20.1508 1.25893 20.2691 1.33721 20.3604C1.45464 20.5056 1.4703 20.5432 1.43116 20.6131C1.40376 20.6561 1.30198 20.7099 1.20413 20.7314C1.0593 20.7583 1.01233 20.8013 0.934042 20.9625C0.808785 21.226 0.691357 21.7044 0.675699 22.027C0.660042 22.2796 0.663957 22.2904 0.777471 22.3173C0.887071 22.3442 0.894899 22.3657 0.918385 22.6183C0.934042 22.7688 0.992756 23.043 1.05147 23.2258C1.15324 23.5268 1.15716 23.5806 1.12193 23.8386C1.07104 24.1881 1.0867 26.4137 1.14541 26.8599C1.16498 27.0373 1.18064 27.4459 1.17673 27.7738C1.17281 28.2684 1.18456 28.4028 1.25501 28.6124C1.32547 28.8328 1.32938 28.8705 1.2785 28.9995C1.2511 29.0801 1.21196 29.3059 1.19238 29.4995C1.16107 29.8758 1.20413 30.9939 1.26676 31.4186C1.32156 31.7842 1.31373 32.0046 1.24327 32.1444C1.18847 32.2573 1.18847 32.2949 1.24718 32.6228C1.30981 32.9561 1.30981 33.0207 1.24718 33.6066C1.18064 34.2141 1.17281 34.2356 1.06713 34.2894C0.961442 34.3485 0.910556 34.4668 0.988842 34.4668C1.00841 34.4668 1.05538 34.5044 1.0867 34.5528C1.1415 34.628 1.1415 34.6495 1.09061 34.7893C1.02016 34.9775 1.01624 35.2678 1.07887 35.4613C1.1141 35.5688 1.11018 35.628 1.07104 35.7301C1.0319 35.8376 1.0319 35.8914 1.07104 36.0258C1.1141 36.1602 1.11018 36.2139 1.07104 36.3268C1.02798 36.4343 1.02798 36.5096 1.06321 36.7139C1.09061 36.8537 1.12976 37.1493 1.14933 37.3697C1.1689 37.5902 1.2237 37.9288 1.26676 38.1116C1.30981 38.3105 1.34504 38.617 1.34896 38.8374C1.35287 39.0524 1.36461 39.3696 1.38027 39.547L1.40376 39.8695L1.79518 39.8749C2.10441 39.8749 2.22967 39.9018 2.39407 39.9932C2.59761 40.1114 2.63284 40.1114 4.80135 40.1168C7.34564 40.1222 7.40826 40.1222 7.57266 40.0577C7.65095 40.0254 7.72532 40.0254 7.77229 40.0631C7.88189 40.1437 9.92906 40.133 10.0387 40.0577C10.0974 40.0093 10.1678 40.0147 10.3166 40.0631C10.4849 40.1222 10.5358 40.1222 10.6845 40.0469C10.8254 39.9771 10.8841 39.9717 10.9781 40.0201C11.0759 40.0738 11.119 40.0631 11.2599 39.9555C11.3656 39.8749 11.4713 39.8373 11.5613 39.8534C11.6787 39.8695 11.7061 39.8964 11.7414 40.0577C11.7923 40.2673 11.8666 40.3104 11.9958 40.2136C12.1211 40.1276 15.2486 40.0899 15.7339 40.176C16.0432 40.2297 16.1175 40.2243 16.2937 40.1437C16.4307 40.0846 16.5168 40.0684 16.5638 40.1061C16.6695 40.1867 16.8691 40.1975 17.2527 40.1437C17.4875 40.1114 17.7733 40.1222 18.1451 40.1706C18.7479 40.2458 19.1863 40.2028 19.5778 40.0254C19.7539 39.9448 19.797 39.9448 19.8792 40.0039C19.9575 40.0631 20.2941 40.0792 21.4175 40.0792C22.6152 40.0792 22.9088 40.0631 23.1828 39.9878C23.3629 39.9394 23.5821 39.8964 23.6721 39.8964C23.8404 39.8964 24.1066 40.0362 24.2632 40.2082C24.3414 40.2942 24.3923 40.2996 24.6976 40.262C24.8894 40.2351 26.0363 40.2082 27.2458 40.2028L29.4457 40.1921L29.5553 40.0469L29.6688 39.8964L29.751 40.0147C29.8332 40.1276 29.8606 40.1276 31.6103 40.1491C32.5849 40.1598 33.6144 40.1706 33.8923 40.176C34.2759 40.1813 34.4599 40.1598 34.636 40.0899C35.0157 39.934 35.1096 39.9287 35.3132 40.0469C35.642 40.2405 35.9316 40.2781 36.507 40.1867C36.8397 40.1383 37.1646 40.1222 37.4151 40.1437C37.7518 40.1706 37.834 40.1598 38.0023 40.0684C38.1275 40.0039 38.2254 39.9771 38.2763 40.0093C38.3193 40.0308 38.4211 40.0523 38.5033 40.0523L38.656 40.0577L38.472 39.7781C38.3702 39.6222 38.2724 39.4395 38.2528 39.3696C38.1706 39.0685 38.2332 38.7513 38.4289 38.5041C38.5581 38.3374 38.5933 38.3858 38.5385 38.6546C38.3937 39.3158 38.5659 39.762 39.0396 39.9287C39.3997 40.0577 39.6345 40.0039 39.8263 39.7405C40.0103 39.4878 40.069 39.1975 40.0495 38.6062C40.0377 38.1923 40.0221 38.1062 39.9125 37.859C39.7559 37.5149 39.752 37.4504 39.8968 37.3429C40.1082 37.1977 40.1434 36.5849 40.0338 35.0474C39.9594 33.9614 39.979 33.5797 40.163 32.8271C40.2726 32.354 40.3 32.1874 40.2765 32.0261C40.2413 31.7627 40.1904 31.8326 40.1473 32.2035C40.1043 32.596 40.0377 32.6121 40.0025 32.2358C39.979 31.9347 39.9986 31.6928 40.0651 31.5799C40.0847 31.5423 40.0808 31.2896 40.0534 30.9348C39.9947 30.1929 39.9907 29.2468 40.0455 26.9943C40.0808 25.5213 40.0769 25.0643 40.0338 24.4945C40.0064 24.1074 39.979 23.6021 39.979 23.3656C39.979 23.0376 39.9594 22.8925 39.9046 22.7688C39.8303 22.6076 39.8303 22.5968 39.9046 22.3119C39.9594 22.0807 39.9751 21.8603 39.979 21.2475V20.4787L40.0964 20.2906C40.2217 20.097 40.2569 19.9196 40.1551 19.9734C40.1238 19.9895 40.0729 20.0218 40.0416 20.0379C39.9868 20.0648 39.9751 19.9573 39.9164 19.0111C39.9007 18.6993 39.9085 18.6025 39.9751 18.4251C40.0455 18.2423 40.0495 18.1886 40.0064 17.9144C39.979 17.7263 39.9594 17.1134 39.9633 16.2748V14.9416L40.0886 14.7964C40.2373 14.6351 40.253 14.4846 40.1277 14.49C40.0455 14.4954 40.0377 14.4577 39.9712 13.689C39.9203 13.0976 39.9007 12.5708 39.9085 11.7268C39.9164 10.4796 39.8694 6.82935 39.8381 6.63581C39.8303 6.5713 39.7755 6.44228 39.7207 6.35089L39.615 6.18424L39.7441 6.03909L39.8694 5.89394L39.8381 5.51763C39.8185 5.30797 39.7989 5.19508 39.7911 5.25959C39.7637 5.49612 39.705 5.37786 39.705 5.08756C39.705 4.92628 39.7246 4.79189 39.7441 4.79189C39.7676 4.79189 39.7872 4.83489 39.7872 4.88328C39.8029 5.17358 39.8577 4.40482 39.8577 3.87798C39.8616 2.99634 39.8068 2.31898 39.7089 2.06631C39.6228 1.82977 39.384 1.5126 39.294 1.5126C39.2627 1.5126 39.1922 1.42121 39.1413 1.31369C38.9261 0.883617 38.562 0.700836 38.0806 0.78685C37.8849 0.819107 37.8535 0.808353 37.7439 0.684708C37.5678 0.480427 37.4543 0.458923 37.192 0.587944C36.9846 0.690086 36.9493 0.695461 36.8789 0.625576C36.8202 0.571815 36.7301 0.561066 36.5579 0.582569C36.3309 0.609447 36.3152 0.604073 36.2056 0.442795C36.0608 0.233135 36.0138 0.233135 35.9081 0.432045ZM36.5188 1.81902C36.417 1.96417 36.2291 2.28135 36.1 2.53401C35.7751 3.18449 35.6615 3.31889 35.3993 3.3619C35.278 3.37803 35.1409 3.43716 35.0783 3.50167C34.9726 3.60919 34.9687 3.60919 34.9687 3.50705C34.9687 3.30276 35.1566 3.08236 35.4893 2.91032C35.6655 2.81356 35.822 2.71142 35.8338 2.67916C35.8494 2.65228 35.8808 2.48563 35.9042 2.3136C35.9395 2.07169 35.9786 1.96955 36.0765 1.85665C36.2409 1.6685 36.4053 1.57173 36.5736 1.56635H36.7067L36.5188 1.81902ZM9.09532 1.80827C9.09532 1.85128 9.06009 1.88891 9.01703 1.88891C8.93875 1.88891 8.91526 1.82977 8.96615 1.76526C9.01312 1.69538 9.09532 1.72763 9.09532 1.80827ZM39.3879 1.96955C39.4662 2.0018 39.478 2.02868 39.4584 2.20071C39.4232 2.49101 39.3723 2.52326 39.2353 2.34586C39.0787 2.14157 39.0748 1.85128 39.2314 1.91041C39.2666 1.92117 39.3371 1.94804 39.3879 1.96955ZM33.63 2.25447C33.6379 2.2921 33.6183 2.31898 33.5831 2.31898C33.5478 2.31898 33.5204 2.28135 33.5204 2.23296C33.5204 2.14157 33.6066 2.1577 33.63 2.25447ZM7.41218 2.45338C7.43958 2.49638 7.45132 2.57165 7.43566 2.61465C7.40826 2.72217 7.10295 2.72217 6.91898 2.61465C6.73501 2.50714 6.78198 2.40499 6.99726 2.44262C7.08729 2.45875 7.18515 2.45338 7.21646 2.4265C7.29866 2.35123 7.35738 2.36198 7.41218 2.45338ZM1.54076 9.28613C1.54076 9.37214 1.51727 9.49578 1.48596 9.54955C1.43507 9.64631 1.43116 9.64631 1.40767 9.53342C1.38027 9.42052 1.40767 9.12485 1.45073 9.01733C1.48596 8.94207 1.54076 9.10872 1.54076 9.28613ZM2.24533 18.7638C2.24533 18.8875 2.1827 18.9573 2.14747 18.8767C2.11224 18.8014 2.15138 18.6617 2.20618 18.6617C2.22576 18.6617 2.24533 18.7101 2.24533 18.7638ZM39.8224 32.3594C39.8224 32.4723 39.752 32.5852 39.6776 32.5852C39.6071 32.5852 39.615 32.4508 39.6893 32.3487C39.7715 32.2358 39.8224 32.2412 39.8224 32.3594ZM34.7299 37.9611C34.7691 37.988 34.8278 38.0686 34.863 38.1385C34.9178 38.2568 34.9178 38.2998 34.8317 38.6922C34.7143 39.2459 34.6673 39.4126 34.6204 39.4126C34.4951 39.4126 34.3424 39.3319 34.3424 39.2674C34.3424 39.2298 34.3777 39.0954 34.4207 38.9771C34.4873 38.7997 34.499 38.7083 34.4755 38.4503C34.452 38.1708 34.4599 38.1224 34.5342 38.0202C34.6282 37.8912 34.636 37.8912 34.7299 37.9611ZM39.478 38.0579L39.5837 38.1546L39.3175 38.1331C39.1374 38.117 39.0083 38.1385 38.9065 38.1976C38.7186 38.3052 38.6521 38.3105 38.7264 38.2084C38.9104 37.9557 39.2862 37.8805 39.478 38.0579ZM32.6984 38.2138C32.6984 38.3428 32.6593 38.418 32.5536 38.4933C32.4714 38.5524 32.4636 38.5471 32.4636 38.3965C32.4636 38.2998 32.491 38.2138 32.534 38.1815C32.6358 38.0955 32.6984 38.1116 32.6984 38.2138ZM33.8962 38.5901C33.8297 38.7729 33.724 38.9072 33.6888 38.8589C33.6614 38.8159 33.7827 38.5524 33.8688 38.4611C33.9588 38.375 33.9667 38.4127 33.8962 38.5901ZM23.2454 39.2621C23.2102 39.4233 23.1006 39.6384 23.0497 39.6437C22.9675 39.6491 22.991 39.4771 23.0889 39.3104C23.2102 39.1169 23.2807 39.0954 23.2454 39.2621ZM29.5474 39.5147C29.4887 39.6706 29.3635 39.7405 29.3165 39.6384C29.293 39.5792 29.4692 39.2137 29.5357 39.1814C29.614 39.1492 29.6179 39.3319 29.5474 39.5147ZM19.703 39.2513C19.75 39.2889 19.75 39.3158 19.7148 39.3642C19.6795 39.4126 19.6521 39.4126 19.6091 39.3588C19.5073 39.2459 19.5895 39.1492 19.703 39.2513ZM39.6893 39.418C39.658 39.633 39.4701 39.848 39.4701 39.6706C39.4701 39.6061 39.658 39.2513 39.6933 39.2513C39.705 39.2513 39.705 39.3266 39.6893 39.418ZM26.6704 39.5147C26.6274 39.633 26.5726 39.6599 26.5374 39.5846C26.5139 39.5255 26.5608 39.4341 26.6313 39.4018C26.7135 39.3642 26.7213 39.3857 26.6704 39.5147Z" fill="black"/>
</svg>
