<svg width="25" height="25" viewBox="0 0 25 25" fill="none" xmlns="http://www.w3.org/2000/svg">
<path d="M12.9859 5.44671L12.6753 5.78943L12.3647 5.44574C11.2918 4.28021 9.84636 3.63061 8.34285 3.63825C6.83934 3.64589 5.39938 4.31017 4.33623 5.48656C3.27307 6.66295 2.67274 8.25629 2.66583 9.91994C2.65892 11.5836 3.246 13.183 4.29934 14.3701L4.60995 14.7138L12.6753 23.6382L20.7406 14.7138L21.0512 14.3701C22.0962 13.1811 22.6761 11.5847 22.6656 9.92624C22.6551 8.26776 22.055 6.68052 20.9951 5.50783C19.9352 4.33514 18.5007 3.67128 17.0018 3.65984C15.503 3.64841 14.0603 4.29031 12.9859 5.44671Z" fill="white"/>
</svg>
