<svg width="25" height="25" viewBox="0 0 25 25" fill="none" xmlns="http://www.w3.org/2000/svg">
<path fill-rule="evenodd" clip-rule="evenodd" d="M5.01094 16.5289L2.80157 18.7383C2.19141 19.3484 2.19141 20.3383 2.80157 20.9484L3.90625 22.0531C4.51563 22.6633 5.50625 22.6633 6.11563 22.0531L8.32578 19.8437L5.01094 16.5289ZM5.02266 9.11875H5.00391C4.72032 9.12109 4.44766 9.2789 4.3125 9.55L3.20703 11.7602C3.05703 12.0609 3.11563 12.4242 3.35391 12.6617L12.1922 21.5008C12.3414 21.6492 12.5391 21.7281 12.7398 21.7297H12.7547C12.8703 21.7281 12.9859 21.7008 13.0945 21.6469L15.3039 20.5422C15.6898 20.3492 15.8461 19.8797 15.6531 19.4937C15.5211 19.2289 15.2578 19.0719 14.9805 19.0625H14.9617C14.8414 19.0609 14.7195 19.0875 14.6055 19.1445L12.8992 19.9977L4.85703 11.9555L5.70938 10.2492C5.90235 9.86328 5.7461 9.39375 5.36016 9.20078C5.25157 9.14687 5.13672 9.12031 5.02266 9.11875ZM9.43047 14.3195L17.7164 6.03281C18.0219 5.72812 18.5164 5.72812 18.8219 6.03281C19.1266 6.3375 19.1266 6.83281 18.8219 7.1375L10.5352 15.4242L12.7453 17.6336L22.1359 8.24219C22.2828 8.09609 22.3648 7.89687 22.3648 7.68984V3.27031C22.3648 2.83906 22.0156 2.48906 21.5836 2.48906H17.1641C16.957 2.48906 16.7586 2.57187 16.6117 2.71797L7.22032 12.1094L9.43047 14.3195Z" fill="black"/>
</svg>
