<svg width="10" height="10" viewBox="0 0 10 10" fill="none" xmlns="http://www.w3.org/2000/svg">
<path d="M9.99229 4.00429C10.0423 3.74226 9.84241 3.42783 9.5926 3.42783L6.7448 3.00858L5.4458 0.28349C5.39584 0.178679 5.34588 0.126273 5.24595 0.0738678C4.99615 -0.0833491 4.69638 0.0214622 4.54649 0.28349L3.29746 3.00858L0.449653 3.42783C0.299769 3.42783 0.199846 3.48024 0.149884 3.58505C-0.0499615 3.79467 -0.0499615 4.1091 0.149884 4.31873L2.1983 6.41495L1.69869 9.40207C1.69869 9.50688 1.69869 9.6117 1.74865 9.71651C1.89854 9.97854 2.1983 10.0833 2.44811 9.92613L4.99615 8.51118L7.54418 9.92613C7.59414 9.97854 7.69406 9.97854 7.79399 9.97854C7.84395 9.97854 7.84395 9.97854 7.89391 9.97854C8.14372 9.92613 8.34356 9.6641 8.2936 9.34967L7.79399 6.36255L9.84241 4.26632C9.94233 4.21391 9.99229 4.1091 9.99229 4.00429Z" fill="black"/>
</svg>
