<svg width="70" height="70" viewBox="0 0 70 70" fill="none" xmlns="http://www.w3.org/2000/svg">
<g clip-path="url(#clip0_647_1099)">
<path d="M31.192 0.168491C30.912 0.392491 31.01 1.31649 31.304 1.20449C31.402 1.16249 31.71 1.09249 31.976 1.03649C32.62 0.924491 32.69 0.784491 32.382 0.350491C32.102 -0.0275085 31.556 -0.111509 31.192 0.168491Z" fill="black"/>
<path d="M38.738 0.825981C38.514 0.965981 38.08 1.13399 37.758 1.18999C37.282 1.27399 37.226 1.30199 37.45 1.39999C37.716 1.49799 37.702 1.51199 37.38 1.58199C37.184 1.62399 36.694 1.70798 36.274 1.74998C35.588 1.83398 35.49 1.80598 35.224 1.48399C35.056 1.30199 34.706 1.10599 34.44 1.04999C34.034 0.965981 33.978 0.97998 34.132 1.13399C34.622 1.65199 33.95 1.88998 33.32 1.39999C32.984 1.14799 32.97 1.14799 32.69 1.39999C32.466 1.59599 32.018 1.69398 30.562 1.80598C29.554 1.90398 28.42 2.05798 28.042 2.16998C27.118 2.44998 27.104 2.42198 27.972 2.02998C28.406 1.83398 28.7 1.60999 28.7 1.46999C28.7 1.23199 28.602 1.18999 27.832 1.04999C27.342 0.97998 27.3 0.99398 27.3 1.31599C27.3 1.55399 27.146 1.76398 26.852 1.97398C26.6 2.14198 26.362 2.30998 26.334 2.33798C26.306 2.35198 26.362 2.63198 26.46 2.95399C26.628 3.45798 26.698 3.51398 27.034 3.47198C27.258 3.42999 27.384 3.47198 27.342 3.54198C27.188 3.80798 26.306 4.05998 25.592 4.05998C24.864 4.04598 24.85 4.04598 25.27 3.86398L25.69 3.68198L25.172 3.42999C24.738 3.21999 24.584 3.20599 24.276 3.34599C23.842 3.54198 23.688 3.45798 23.94 3.14999C24.038 3.02399 24.094 2.91199 24.066 2.88399C23.996 2.82799 20.468 3.84998 18.76 4.40999C17.122 4.94199 15.064 6.01999 14.168 6.80399C13.426 7.44799 13.384 7.62999 13.93 7.72799C14.084 7.75599 14.21 7.83998 14.21 7.90998C14.224 7.99398 14.28 8.20399 14.336 8.38599L14.448 8.72198L14.63 8.28799C14.854 7.76999 15.246 7.50399 16.31 7.12598C17.178 6.81799 17.388 6.85999 17.038 7.23798C16.786 7.53199 16.324 8.66599 16.17 9.37999L16.072 9.86999L16.492 9.30999C16.716 9.00199 17.29 8.38599 17.766 7.95198C18.48 7.27999 18.62 7.06998 18.634 6.64999C18.648 6.38398 18.662 6.07598 18.676 5.97798C18.704 5.57198 19.67 5.30598 19.992 5.62798C20.118 5.75398 20.006 5.94998 19.53 6.45399C19.18 6.83199 18.9 7.23798 18.9 7.36399C18.9 7.53199 19.068 7.41999 19.46 6.99998C19.922 6.49599 20.062 6.42599 20.384 6.49599C20.804 6.60799 21.28 6.32798 20.972 6.14598C20.874 6.08998 20.832 6.00599 20.86 5.97798C21.168 5.73998 23.086 4.61999 23.212 4.61999C23.45 4.61999 23.562 5.20798 23.394 5.61398C23.324 5.82398 23.016 6.10398 22.722 6.25798C22.428 6.41198 21.7 6.78999 21.098 7.11198C20.244 7.57399 19.866 7.69999 19.32 7.69999C18.732 7.69999 18.62 7.74199 18.62 7.96598C18.62 8.10599 18.718 8.30199 18.83 8.39999C18.942 8.49799 19.04 8.65199 19.04 8.76398C19.04 9.04399 18.326 9.49199 17.556 9.67398C17.178 9.77199 16.38 10.08 15.792 10.388C15.022 10.766 14.7 10.864 14.7 10.724C14.7 10.626 14.854 10.108 15.064 9.58998C15.26 9.05799 15.4 8.46999 15.372 8.27399C15.302 7.68599 14.938 7.83998 14.7 8.56799C14.532 9.11399 14.448 9.21199 14.21 9.15599C14.056 9.11399 13.692 9.18399 13.398 9.30999C13.118 9.42199 12.88 9.47799 12.88 9.42199C12.88 9.36599 13.118 9.07199 13.398 8.76398L13.93 8.21799L13.09 8.80598C12.628 9.14199 11.69 9.78599 10.99 10.262C9.77199 11.088 8.11999 12.586 8.11999 12.838C8.11999 12.908 8.30199 12.95 8.53999 12.908C9.15599 12.824 9.08599 13.118 8.18999 14.21C7.76999 14.714 7.41999 15.176 7.41999 15.204C7.41999 15.33 7.57399 15.246 8.03599 14.84C8.31599 14.588 8.55399 14.476 8.60999 14.546C8.65199 14.63 7.95199 15.428 7.05599 16.31C5.44599 17.92 5.43199 17.948 5.52999 18.452C5.64199 19.04 5.87999 19.39 5.87999 18.956C5.87999 18.144 6.49599 16.8 6.87399 16.8C7.08399 16.8 7.01399 17.248 6.49599 19.264C6.21599 20.342 5.94999 21.714 5.89399 22.33L5.80999 23.45L5.29199 22.61C4.99799 22.148 4.75999 21.868 4.75999 21.994C4.75999 22.12 4.40999 22.652 3.98999 23.17C3.56999 23.674 3.21999 24.122 3.21999 24.15C3.21999 24.164 3.12199 24.416 3.00999 24.696C2.89799 24.976 2.82799 25.2 2.85599 25.2C2.88399 25.2 3.12199 24.878 3.37399 24.472L3.83599 23.758L4.01799 24.164C4.26999 24.752 4.24199 25.228 3.84999 27.3C3.49999 29.19 3.42999 30.366 3.63999 30.87C3.75199 31.122 3.76599 31.122 3.76599 30.786C3.77999 30.338 4.10199 29.89 4.31199 30.016C4.52199 30.142 4.52199 30.996 4.32599 31.906C4.11599 32.9 3.86399 33.012 3.94799 32.06L4.01799 31.332L3.55599 31.402C2.99599 31.5 2.99599 31.486 2.85599 29.61C2.81399 28.84 2.71599 28.07 2.64599 27.888C2.46399 27.412 2.12799 27.51 2.01599 28.07C1.88999 28.784 2.04399 29.666 2.65999 31.57C3.26199 33.446 3.45799 34.3 3.26199 34.3C3.19199 34.3 2.93999 34.034 2.68799 33.712C2.21199 33.096 2.14199 33.138 2.39399 33.852C2.47799 34.09 2.61799 34.272 2.70199 34.258C2.81399 34.244 2.86999 34.594 2.86999 35.462C2.86999 36.134 2.84199 36.68 2.79999 36.68C2.75799 36.68 2.51999 36.554 2.28199 36.4L1.81999 36.12L1.83399 36.512C1.84799 37.296 2.02999 38.15 2.16999 38.108C2.33799 38.052 3.09399 41.006 3.52799 43.428C3.70999 44.394 3.89199 45.136 3.93399 45.052C4.04599 44.87 4.40999 45.528 4.54999 46.186C4.71799 46.942 4.88599 46.41 4.81599 45.36L4.75999 44.45L4.96999 45.22C5.09599 45.64 5.24999 46.662 5.31999 47.488C5.38999 48.328 5.52999 49.294 5.61399 49.658L5.78199 50.302L6.03399 49.994L6.28599 49.686L6.48199 50.162C6.91599 51.198 6.92999 51.282 6.55199 51.212L6.20199 51.142L6.52399 51.632C6.70599 51.898 6.85999 52.262 6.85999 52.43C6.85999 52.71 7.37799 53.34 7.60199 53.34C7.65799 53.34 7.67199 53.172 7.61599 52.962C7.57399 52.738 7.82599 53.088 8.17599 53.718C8.52599 54.362 8.81999 55.02 8.81999 55.202C8.81999 55.86 9.43599 56.756 10.5 57.61C11.074 58.086 11.62 58.604 11.704 58.772C11.858 59.08 13.874 60.998 15.316 62.188C16.366 63.07 18.256 64.33 19.642 65.1C20.286 65.45 20.678 65.744 20.58 65.8C20.426 65.898 24.612 68.292 26.082 68.936C27.678 69.636 29.078 70 30.184 70C30.744 70 31.22 69.958 31.22 69.916C31.22 69.874 31.15 69.72 31.08 69.566C30.982 69.384 30.982 69.3 31.08 69.3C31.15 69.3 31.22 69.188 31.22 69.048C31.22 68.824 31.444 68.81 34.048 68.81C37.1 68.81 38.71 68.614 41.328 67.97C42.112 67.774 42.77 67.62 42.784 67.62C42.812 67.62 42.84 67.914 42.84 68.292C42.84 69.104 43.134 69.58 43.638 69.58H44.002L43.61 69.216C43.288 68.922 43.232 68.782 43.302 68.362C43.4 67.802 43.708 67.41 44.268 67.116C44.632 66.92 44.66 66.934 44.66 67.186C44.66 67.732 45.066 67.76 47.124 67.396C48.188 67.214 49.238 67.018 49.462 66.976C49.798 66.892 49.84 66.92 49.84 67.256C49.84 67.676 49.868 67.69 50.764 67.41C51.142 67.298 51.464 67.2 51.492 67.2C51.506 67.2 51.52 67.424 51.52 67.69C51.52 67.998 51.436 68.222 51.282 68.306C51.142 68.39 51.086 68.46 51.142 68.46C51.338 68.46 52.108 67.872 52.024 67.802C51.982 67.76 52.08 67.536 52.234 67.326L52.514 66.92H51.898C51.548 66.92 51.086 66.878 50.848 66.836C50.47 66.766 50.428 66.71 50.54 66.486C50.624 66.346 50.68 66.024 50.68 65.772V65.296L51.744 65.394L52.808 65.506L53.228 65.03C53.452 64.764 54.124 64.288 54.712 63.952C55.3 63.63 56.014 63.14 56.266 62.874C56.532 62.594 56.7 62.468 56.63 62.58C56.56 62.706 56.63 62.692 56.812 62.524C57.162 62.23 57.246 62.02 56.91 62.3C56.756 62.426 56.7 62.426 56.7 62.314C56.7 62.23 56.798 62.118 56.91 62.076C57.022 62.02 57.12 61.88 57.12 61.74C57.12 61.614 57.302 61.25 57.54 60.928L57.946 60.354L57.204 60.62C56.546 60.844 54.81 61.18 54.306 61.18C54.208 61.18 54.334 60.956 54.6 60.69C54.964 60.312 55.118 60.242 55.314 60.354C55.524 60.466 55.65 60.382 56.014 59.892C56.252 59.556 56.574 59.038 56.728 58.73C57.022 58.156 58.394 56.238 58.786 55.86C58.912 55.734 59.416 55.146 59.92 54.53C60.424 53.914 61.264 52.906 61.796 52.29C63.042 50.834 64.61 48.454 65.52 46.648C66.094 45.486 66.29 45.206 66.5 45.262C66.724 45.318 66.752 45.206 66.808 44.366C66.836 43.848 66.906 43.372 66.948 43.33C67.004 43.274 67.186 43.33 67.368 43.456C67.998 43.904 68.082 43.778 67.97 42.588C67.83 41.076 67.844 40.11 68.026 39.802C68.11 39.662 68.18 39.62 68.18 39.718C68.18 39.928 68.698 40.222 68.88 40.11C68.964 40.054 68.866 39.732 68.67 39.326C68.376 38.766 68.348 38.64 68.53 38.64C68.656 38.64 68.866 38.374 69.02 38.024C69.16 37.688 69.342 37.394 69.426 37.366C69.51 37.324 69.412 36.68 69.16 35.574C68.656 33.502 68.642 33.236 69.034 33.138C69.3 33.068 69.314 33.096 69.23 33.558C69.174 33.908 69.202 34.09 69.328 34.174C69.916 34.552 70.014 34.076 69.58 32.816C69.412 32.368 69.286 31.696 69.286 31.346C69.272 30.73 69.258 30.702 68.922 30.772L68.558 30.842L68.6 28.966C68.67 26.11 68.67 26.096 68.194 25.816C67.844 25.62 67.704 25.326 67.284 23.996C66.668 22.092 65.646 19.782 64.764 18.298C64.414 17.696 64.12 17.108 64.12 17.01C64.12 16.912 63.854 16.52 63.518 16.156C63.196 15.778 62.552 14.994 62.09 14.42C60.956 12.992 58.842 10.906 57.386 9.77199C56.294 8.91799 53.536 7.08398 53.158 6.95798C53.074 6.92999 53.228 6.63599 53.536 6.25798C54.124 5.54398 54.152 5.12399 53.648 4.78799C53.326 4.57799 53.326 4.57799 53.494 4.94199C53.634 5.24998 53.62 5.37598 53.424 5.65598C53.088 6.17398 52.682 6.34198 52.038 6.24398C51.716 6.18798 51.394 6.08998 51.31 6.03399C51.24 5.96398 50.932 5.83798 50.638 5.73998C50.148 5.58598 50.12 5.55798 50.316 5.33398C50.442 5.19398 50.54 5.01199 50.54 4.92799C50.54 4.59199 49.658 3.79398 48.412 2.96799C46.998 2.04398 46.578 1.97398 46.088 2.58998L45.836 2.89799L45.164 2.11398C44.492 1.34399 44.464 1.32999 43.694 1.31599C43.26 1.31599 42.504 1.17599 42 1.02199C41.496 0.867981 40.656 0.699982 40.11 0.643982C39.298 0.587982 39.06 0.615982 38.738 0.825981ZM39.438 0.783981C39.396 0.825981 39.27 0.839981 39.172 0.797981C39.06 0.755981 39.102 0.713982 39.256 0.713982C39.41 0.699982 39.494 0.741982 39.438 0.783981ZM49.392 5.01199C49.588 5.30598 49.588 5.31998 49.154 5.16599C48.72 5.01199 48.636 4.89999 48.818 4.70399C48.958 4.56399 49.168 4.67599 49.392 5.01199ZM12.012 10.388C11.9 10.57 11.536 11.186 11.2 11.76C10.864 12.334 10.57 12.824 10.556 12.852C10.542 12.88 10.374 12.824 10.206 12.726L9.88399 12.558L10.262 12.264C10.472 12.096 10.64 11.9 10.64 11.83C10.64 11.676 12.012 10.08 12.138 10.08C12.18 10.08 12.124 10.22 12.012 10.388ZM9.79999 18.578C9.64599 18.816 9.64599 18.816 9.71599 18.578C9.75799 18.438 9.79999 18.242 9.81399 18.158C9.81399 18.032 9.84199 18.032 9.88399 18.158C9.92599 18.256 9.88399 18.438 9.79999 18.578ZM11.62 19.446C11.62 19.516 11.522 19.642 11.41 19.74C11.242 19.88 11.2 19.88 11.2 19.712C11.2 19.6 11.242 19.46 11.298 19.418C11.424 19.278 11.62 19.292 11.62 19.446ZM9.93999 19.796C9.93999 19.824 9.98199 19.95 10.024 20.062C10.066 20.188 9.88399 20.426 9.54799 20.692L9.01599 21.126L9.22599 20.426C9.37999 19.936 9.50599 19.74 9.68799 19.74C9.82799 19.74 9.93999 19.768 9.93999 19.796ZM10.598 20.384C10.514 20.678 9.98199 21.602 9.42199 22.428C8.86199 23.268 8.13399 24.458 7.81199 25.088L7.20999 26.25L7.16799 24.262C7.13999 22.386 7.15399 22.246 7.44799 21.91C7.61599 21.714 7.82599 21.56 7.93799 21.56C8.03599 21.56 8.21799 21.406 8.34399 21.21C8.59599 20.818 8.81999 20.86 8.81999 21.294C8.81999 21.924 9.89799 21.196 10.388 20.258C10.724 19.586 10.822 19.642 10.598 20.384ZM68.46 27.496C68.46 28.112 68.222 27.762 68.124 27.02C68.04 26.418 68.04 26.404 68.236 26.74C68.362 26.936 68.446 27.272 68.46 27.496ZM6.38399 27.286C6.49599 27.188 6.62199 27.16 6.67799 27.202C6.81799 27.342 6.14599 28.84 5.93599 28.84C5.54399 28.84 5.23599 27.664 5.47399 27.048L5.61399 26.67L5.90799 27.062C6.13199 27.37 6.22999 27.412 6.38399 27.286ZM47.18 66.15C47.18 66.29 47.04 66.36 46.732 66.36L46.27 66.346L46.62 66.15C47.068 65.898 47.18 65.898 47.18 66.15ZM45.948 67.158C46.144 67.41 45.71 67.55 45.248 67.396C44.716 67.214 44.716 66.948 45.248 66.724C45.668 66.542 45.71 66.542 45.766 66.752C45.794 66.878 45.878 67.074 45.948 67.158ZM30.73 68.754C30.926 68.95 30.226 68.894 29.75 68.684C29.33 68.488 29.344 68.488 29.96 68.558C30.31 68.6 30.646 68.684 30.73 68.754Z" fill="black"/>
<path d="M35.742 1.21826C35.952 1.24626 36.288 1.24626 36.512 1.21826C36.722 1.19026 36.54 1.16226 36.12 1.16226C35.7 1.16226 35.518 1.19026 35.742 1.21826Z" fill="black"/>
<path d="M50.932 4.95626C51.1 5.18026 51.24 5.47426 51.24 5.62826C51.24 5.78226 51.31 5.85226 51.38 5.81026C51.66 5.64226 51.506 5.19426 51.072 4.87226L50.61 4.55026L50.932 4.95626Z" fill="black"/>
<path d="M4.648 18.8023C4.326 19.1523 4.256 19.5303 4.48 19.6703C4.564 19.7123 4.62 19.8943 4.62 20.0623C4.634 20.3702 4.634 20.3702 4.844 20.0903C5.026 19.8383 5.026 19.8103 4.844 19.7683C4.564 19.7123 4.564 19.7123 4.83 19.0823C5.096 18.4663 5.04 18.3823 4.648 18.8023Z" fill="black"/>
<path d="M2.31 20.7768C2.128 21.2528 2.114 21.4488 2.226 21.6868C2.52 22.2048 2.66 21.9948 2.66 21.0708C2.66 20.5668 2.632 20.1608 2.604 20.1608C2.576 20.1608 2.436 20.4408 2.31 20.7768Z" fill="black"/>
<path d="M1.63799 23.1003C1.41399 23.4923 1.18999 23.8003 1.13399 23.8003C0.993995 23.8003 0.615995 23.3663 0.531995 23.1003C0.489995 22.9883 0.433995 23.1283 0.405995 23.4083C0.363995 23.6883 0.391995 23.8843 0.447995 23.8563C0.503995 23.8143 0.559995 24.0103 0.559995 24.2763C0.559995 24.5563 0.629995 24.7803 0.699995 24.7803C0.783995 24.7803 0.839995 24.7243 0.839995 24.6543C0.839995 24.5703 1.21799 24.2203 1.67999 23.8703C2.506 23.2263 2.68799 22.9043 2.35199 22.5683C2.09999 22.3163 2.05799 22.3443 1.63799 23.1003Z" fill="black"/>
<path d="M0.699997 25.6207C0.699997 25.7047 0.797997 25.7607 0.909997 25.7607C1.176 25.7607 1.176 25.6767 0.909997 25.5647C0.797997 25.5227 0.699997 25.5507 0.699997 25.6207Z" fill="black"/>
<path d="M67.788 44.1703C67.634 44.5203 67.55 46.3263 67.69 46.1723C67.774 46.0883 68.068 43.9463 67.998 43.8763C67.97 43.8483 67.872 43.9743 67.788 44.1703Z" fill="black"/>
<path d="M64.806 49.1684C64.68 49.6444 64.54 50.1484 64.484 50.2744C64.33 50.6104 65.002 50.4564 65.352 50.0644C65.842 49.5464 65.856 49.2104 65.422 48.7204L65.016 48.2724L64.806 49.1684Z" fill="black"/>
<path d="M63.98 50.9742C63.882 51.1282 63.84 51.2962 63.882 51.3242C63.91 51.3522 64.008 51.2262 64.092 51.0302C64.288 50.6102 64.19 50.5682 63.98 50.9742Z" fill="black"/>
<path d="M63.434 52.3887C63.126 53.3127 63.168 53.3127 63.756 52.4307L64.12 51.8707V52.4307C64.106 52.7387 64.022 53.1447 63.91 53.3407C63.406 54.2227 63.826 54.6147 64.596 53.9987C64.946 53.7047 64.974 53.6347 64.834 53.3547C64.722 53.1727 64.694 52.8227 64.764 52.4307C64.848 51.8427 64.834 51.8007 64.47 51.6607C63.84 51.4227 63.742 51.4927 63.434 52.3887Z" fill="black"/>
<path d="M60.774 55.5239C60.774 55.6919 60.41 56.2099 59.99 56.6859C59.248 57.5119 59.052 57.9879 59.36 58.1699C59.612 58.3239 59.514 58.4919 59.122 58.5899L58.73 58.7019L59.136 58.8139C59.416 58.8979 59.626 58.8559 59.878 58.7019L60.228 58.4639L59.906 58.2399C59.416 57.8619 59.64 57.5399 60.41 57.5399H61.04L61.026 56.9379C61.026 56.2799 60.802 55.0619 60.774 55.5239Z" fill="black"/>
<path d="M62.37 55.5942C62.314 55.6782 62.3 55.7622 62.342 55.8042C62.37 55.8462 62.44 55.7762 62.482 55.6502C62.58 55.4122 62.496 55.3702 62.37 55.5942Z" fill="black"/>
<path d="M61.81 56.7982C61.6 57.1342 61.46 57.4422 61.488 57.4702C61.502 57.4842 61.726 57.5542 61.964 57.5962C62.342 57.6802 62.454 57.6382 62.706 57.3162C63.098 56.8262 63.084 56.6722 62.58 56.3922L62.174 56.1682L61.81 56.7982Z" fill="black"/>
<path d="M58.786 59.5985L58.31 60.1025L58.758 59.7945C59.234 59.4725 59.43 59.2485 59.332 59.1365C59.304 59.1085 59.052 59.3185 58.786 59.5985Z" fill="black"/>
<path d="M52.85 66.6403C52.808 66.7103 52.836 66.7803 52.906 66.7803C52.99 66.7803 53.06 66.7103 53.06 66.6403C53.06 66.5563 53.032 66.5003 53.004 66.5003C52.962 66.5003 52.892 66.5563 52.85 66.6403Z" fill="black"/>
<path d="M48.37 68.1939C47.782 68.7959 47.726 68.8939 48.02 68.8099C48.622 68.6419 49.21 68.2499 49.252 67.9839C49.364 67.4239 49.028 67.5079 48.37 68.1939Z" fill="black"/>
<path d="M45.57 68.0399L45.01 68.2919L45.542 68.3059C45.892 68.3199 46.102 68.2499 46.158 68.1099C46.284 67.7739 46.172 67.7599 45.57 68.0399Z" fill="black"/>
<path d="M37.17 69.0203C35.784 69.1603 33.992 69.2863 33.18 69.3003L31.71 69.3283L33.11 69.5943C33.908 69.7623 35.434 69.9023 36.68 69.9583L38.85 70.0283L38.5 69.7483L38.15 69.4683L38.5 69.3143C38.696 69.2443 39.354 69.1323 39.97 69.0763C40.796 69.0063 40.992 68.9503 40.74 68.8663C40.25 68.7263 40.026 68.7403 37.17 69.0203Z" fill="black"/>
<path d="M11.2881 10.2791C11.3906 10.4353 11.6201 10.699 11.791 10.8601C12.1621 11.2215 12.9922 11.8709 13.2412 12.0027C13.5488 12.1541 13.5586 12.1883 13.4414 12.6375C13.3877 12.8523 13.3145 13.2576 13.2852 13.5359C13.2119 14.1853 13.2852 14.4197 13.627 14.659C13.749 14.742 14.0029 14.9275 14.1934 15.0642C14.4668 15.2693 14.5791 15.323 14.7256 15.323C15.1113 15.323 16.0049 15.909 16.3223 16.3728C16.5029 16.6365 16.7959 16.7537 17.0547 16.6707C17.1865 16.6267 17.25 16.5633 17.3379 16.3777L17.4502 16.1433L17.665 16.4265C17.7822 16.5877 18.0996 16.9881 18.3682 17.325C19.1543 18.3015 20.1016 19.6199 20.668 20.5183C20.9561 20.9773 21.332 21.573 21.5078 21.8416C21.8936 22.4422 22.1133 22.8279 22.0791 22.8621C22.0693 22.8767 21.9424 22.8328 21.8008 22.7595C21.4932 22.6082 21.0244 22.5593 20.6631 22.6472C20.3848 22.7156 20.0674 22.9646 19.8818 23.2674C19.7354 23.5017 19.5938 23.9998 19.5938 24.283C19.5938 24.7859 19.9014 25.6111 20.165 25.8211C20.2822 25.9138 20.3457 25.9285 20.6289 25.9041C20.9902 25.8797 20.9414 25.8552 21.4248 26.3093C21.5078 26.3826 21.9131 26.6267 22.3281 26.8465C23.1826 27.3054 23.5 27.5056 23.5 27.5984C23.5 27.6326 23.4219 27.7888 23.3242 27.95C23.2266 28.1062 23.0703 28.365 22.9824 28.5213C22.8896 28.6824 22.7334 28.9021 22.6309 29.0193C22.3477 29.3416 22.2305 29.615 22.2305 29.9617C22.2305 30.3279 22.4355 31.0115 22.5967 31.1726C22.748 31.3191 23.0264 31.3679 23.3047 31.2898C23.4268 31.2556 23.6367 31.2117 23.7686 31.1873C23.9053 31.1629 24.0615 31.1336 24.1152 31.1189C24.1982 31.0994 24.2471 31.1384 24.3545 31.2947C24.457 31.4509 24.5059 31.6218 24.5742 32.0711C24.6816 32.784 24.8232 33.0623 25.1504 33.2039C25.4092 33.3211 25.5703 33.3015 25.9756 33.1257C26.3174 32.9744 26.6201 32.9402 26.6738 33.0476C26.6982 33.0867 26.7861 33.2722 26.8691 33.4627C27.1182 34.0242 27.2256 34.0974 27.9141 34.1707C28.4365 34.2293 28.4951 34.2146 28.876 33.8972L29.0908 33.7166L29.125 34.0144C29.1592 34.3465 29.4668 34.9959 29.6865 35.2156C29.8086 35.3377 30.043 35.3914 30.043 35.2986C30.043 35.2742 30.1455 35.24 30.2773 35.2254C30.4043 35.2058 30.585 35.1668 30.6777 35.1375C30.9023 35.0691 31.6348 34.5857 31.6787 34.4783C31.6982 34.4295 31.7324 34.239 31.7471 34.0584L31.7764 33.7215L31.9375 33.9461C32.0205 34.073 32.1377 34.1902 32.1865 34.2097C32.3379 34.2683 33.0996 35.157 33.2852 35.4939C33.5098 35.9041 33.5488 36.1287 33.4268 36.2507C33.373 36.3045 33.2607 36.4461 33.1777 36.5681C32.9385 36.9246 32.543 37.3347 32.3037 37.4763C32.167 37.5545 32.001 37.6082 31.8447 37.6131C31.3662 37.6375 31.3223 37.8816 31.7227 38.2966C31.8691 38.4431 32.0303 38.5652 32.0791 38.5652C32.25 38.5652 32.6943 38.409 32.8701 38.2918C32.9678 38.2283 33.0654 38.1746 33.0947 38.1746C33.1191 38.1746 33.207 38.2869 33.2803 38.4187C33.3584 38.5554 33.4805 38.6922 33.5537 38.7312C33.6318 38.7752 33.7295 38.9021 33.8027 39.0584C33.9004 39.2586 33.9639 39.3269 34.1152 39.3904C34.2666 39.4588 34.3203 39.5174 34.3887 39.6882C34.4375 39.825 34.5303 39.947 34.623 40.0056C34.7207 40.0691 34.7891 40.157 34.8086 40.2595C34.8281 40.367 34.877 40.4304 34.9844 40.4744C35.2969 40.6013 35.5752 41.1677 35.6582 41.8513C35.8291 43.2332 35.8535 43.5945 35.8535 45.0105C35.8584 45.8308 35.8828 46.8611 35.9121 47.3054C35.9414 47.7498 35.9658 48.4041 35.9707 48.7605C35.9805 49.449 36.0342 49.6248 36.1758 49.4343C36.249 49.3318 36.2441 48.7507 36.1465 46.9392C36.0879 45.8504 36.2295 43.658 36.4199 42.6912C36.5225 42.1541 36.5518 42.1199 36.6738 42.3543C36.791 42.5838 36.8252 42.8767 36.8838 44.0437C36.9521 45.4109 37.0107 46.4363 37.0693 47.159C37.0986 47.5203 37.1377 48.0086 37.1572 48.2429C37.1719 48.4773 37.2061 48.658 37.2256 48.6433C37.2842 48.6091 37.2793 48.1404 37.2158 47.7205C37.1914 47.53 37.1523 47.1052 37.1328 46.7683C37.0986 46.1433 37.0889 45.8259 37.0449 43.824L37.0205 42.6619L37.1572 42.6765C37.2598 42.6863 37.3184 42.74 37.4014 42.8865C37.4941 43.0623 37.5186 43.2136 37.5771 44.2049C37.6113 44.825 37.6357 45.4646 37.6211 45.6355C37.6016 45.9334 37.665 46.1189 37.7627 46.0603C37.7822 46.0457 37.792 45.489 37.7725 44.825C37.7432 43.5066 37.7627 43.3504 37.9727 43.3504C38.1533 43.3504 38.5732 43.7068 38.6123 43.8972C38.6318 43.9851 38.7148 44.117 38.7979 44.1951L38.9492 44.3318L38.9834 45.6111C39.0176 46.7634 39.0615 47.2078 39.1445 47.2908C39.1934 47.3445 39.2129 47.2908 39.2617 46.9295C39.291 46.739 39.3008 46.2312 39.2861 45.8064C39.2568 44.9568 39.291 44.4588 39.3838 44.4881C39.418 44.4978 39.4961 44.6101 39.5645 44.7371C39.6572 44.9129 39.75 45.0007 39.9502 45.1082C40.3018 45.3035 40.3457 45.3425 40.4434 45.5769C40.4922 45.6892 40.5752 45.8211 40.6289 45.8699C40.79 46.0213 40.8291 46.573 40.8535 49.0095L40.873 51.2703L40.6436 51.241C40.5215 51.2215 40.2529 51.1824 40.0527 51.158C39.6963 51.1043 37.7773 51.0652 34.584 51.0457C33.7051 51.0408 32.8164 51.0066 32.5088 50.9724C32.2158 50.9382 31.8447 50.9187 31.6885 50.9334C31.4932 50.9529 31.3662 50.9382 31.2734 50.8894C31.1807 50.8406 30.9902 50.8211 30.6289 50.8259C29.9844 50.8308 29.9941 50.8308 30.0039 50.7673C30.0234 50.6892 29.7744 50.6257 29.5059 50.6306C29.3838 50.6306 29.1934 50.6062 29.0762 50.572C28.9102 50.5183 28.8271 50.5183 28.6367 50.572C28.5098 50.6062 28.3047 50.6453 28.1826 50.655C28.0605 50.6648 27.8555 50.6941 27.7334 50.7234C27.4795 50.7771 26.2051 50.7088 25.873 50.6209C25.7461 50.5867 25.5459 50.5818 25.3311 50.6062C25.1455 50.6257 24.8672 50.6502 24.7207 50.655C24.5742 50.6648 24.2422 50.6892 23.9883 50.7136C23.7344 50.7429 23.3047 50.7576 23.0361 50.7478C22.7676 50.7429 22.3721 50.7332 22.1621 50.7332L21.7715 50.7234L21.8838 50.6209C21.9766 50.533 21.9863 50.5086 21.9277 50.4744C21.8838 50.45 21.7812 50.4548 21.6885 50.4841C21.5957 50.5086 21.2051 50.5379 20.8145 50.5476C20.1406 50.5623 20.1162 50.5623 20.3164 50.4939C20.6924 50.3621 20.5166 50.284 20.0479 50.3767C19.8672 50.4109 19.8379 50.406 19.8135 50.3279C19.7939 50.2742 19.7061 50.2156 19.5889 50.1863C19.4863 50.157 19.3984 50.1082 19.3984 50.0789C19.3984 50.0496 19.3838 50.0349 19.3691 50.0545C19.3496 50.0691 19.2568 50.0447 19.1592 49.9959C18.9346 49.8836 18.6172 49.8201 18.6172 49.8933C18.6172 49.9177 18.6367 49.9422 18.666 49.9422C18.6904 49.9422 18.7002 49.9715 18.6855 50.0056C18.6709 50.0447 18.7832 50.1179 19.0029 50.2107C19.1885 50.2888 19.335 50.3621 19.3252 50.3718C19.3154 50.3865 19.1982 50.367 19.0713 50.3377C18.9004 50.2937 18.793 50.2937 18.7002 50.3279C18.5488 50.3865 18.5293 50.4988 18.6562 50.572C18.7246 50.6111 18.7295 50.6209 18.666 50.6404C18.5781 50.6697 17.9971 50.7576 17.665 50.7966C17.5332 50.8113 17.2891 50.8455 17.1279 50.8699C16.9668 50.8943 16.3076 50.9236 15.6582 50.9334C14.5352 50.9529 14.2227 50.992 14.291 51.1091C14.3057 51.1336 14.4082 51.1629 14.5205 51.1824C14.6328 51.2019 14.7891 51.2507 14.8721 51.2947C14.999 51.3582 15.2139 51.3728 16.0488 51.3826C16.7764 51.3875 17.0791 51.4021 17.0938 51.4461C17.1035 51.4851 17.3672 51.4949 18.0703 51.4754C19.0713 51.4509 19.2422 51.5144 18.3486 51.573C18.0801 51.5925 17.7822 51.6267 17.6895 51.6511C17.5967 51.6756 17.3916 51.7195 17.2402 51.7488C17.084 51.7781 16.957 51.8269 16.957 51.8513C16.957 51.9197 17.2207 51.905 17.8115 51.7976C18.3682 51.7 19.3887 51.6609 19.252 51.7488C19.1104 51.8367 19.2568 51.8562 19.6816 51.8025C20.2383 51.7341 20.2773 51.7341 20.2773 51.822C20.2773 51.949 20.4434 51.9343 20.7949 51.7683C20.9316 51.7048 21.1172 51.6511 21.21 51.6511C21.4346 51.656 21.376 51.6853 20.4971 52.0173C20.0967 52.1687 19.6475 52.3591 19.5107 52.4373C19.3691 52.5154 19.1836 52.5789 19.1006 52.5789C19.0029 52.5789 18.959 52.5984 18.9736 52.6375C19.0078 52.7351 19.3398 52.6912 19.6182 52.5593C20.1357 52.3054 20.7559 52.0466 21.0781 51.9441C21.2637 51.8855 21.5225 51.7879 21.6494 51.7195C21.8838 51.6023 21.8887 51.6023 23.0215 51.6316C23.6416 51.6463 24.1934 51.6804 24.2373 51.7048C24.2861 51.7293 24.4033 51.7488 24.5059 51.7488C24.7598 51.7488 24.6963 51.783 24.335 51.8416C23.876 51.9148 23.8174 52.0125 24.2568 51.9734C24.623 51.9392 24.8525 52.0027 24.584 52.0662C24.501 52.0808 24.4082 52.1297 24.374 52.1687C24.3057 52.2517 24.3252 52.2517 24.7451 52.1638C24.9355 52.1248 25.1895 52.0906 25.3115 52.0906C25.4336 52.0906 25.5459 52.0759 25.5605 52.0613C25.5801 52.0466 25.751 52.032 25.9463 52.0271C26.376 52.0173 26.4346 52.0906 26.0879 52.2175C25.8145 52.3152 25.7607 52.3933 26.0049 52.3543C26.3711 52.2859 26.5713 52.2175 26.9375 52.0271C27.1523 51.9148 27.4355 51.8074 27.5723 51.7879C28.1973 51.6853 28.915 51.6463 29.3594 51.6902L29.8232 51.7341L29.4717 51.7439C29.1934 51.7488 29.1152 51.7634 29.1152 51.822C29.1152 51.9295 29.291 51.9539 29.9893 51.9343C30.3408 51.9246 30.6289 51.9343 30.6289 51.949C30.6289 51.9685 30.4971 52.032 30.3359 52.0906C30.1699 52.1541 30.0479 52.2127 30.0576 52.2224C30.0723 52.2322 30.2432 52.198 30.4385 52.1394C30.6338 52.0857 30.917 52.0418 31.0586 52.0418C31.2637 52.0418 31.3174 52.0271 31.2979 51.9734C31.2588 51.8806 31.7373 51.8367 32.5088 51.8757C32.8701 51.8904 33.4805 51.8806 33.9248 51.8465C34.9111 51.7683 34.9111 51.7683 35.7266 51.866C36.2002 51.9246 36.4199 51.9343 36.459 51.8953C36.5371 51.8172 36.4004 51.7146 36.0977 51.6365L35.8291 51.5632L36.3369 51.5925C36.7178 51.6121 36.835 51.6023 36.8105 51.5632C36.7666 51.4949 36.6836 51.4949 38.4658 51.4851C39.6963 51.4754 39.9307 51.4851 40.248 51.5632C40.4482 51.6121 40.6631 51.6511 40.7266 51.6511C40.8242 51.6511 40.834 51.6707 40.834 51.9588C40.834 52.3982 41 52.6033 41.1953 52.4031C41.2539 52.3494 41.2734 52.2322 41.2734 51.9881V51.6511L41.6055 51.6463C41.9326 51.6414 42.2207 51.6267 42.543 51.5974C42.6748 51.5877 42.748 51.6121 42.8262 51.6902C42.9531 51.8172 42.8506 51.8172 45.0088 51.7439C46.6445 51.6902 48.0996 51.6853 49.7598 51.7293C50.3018 51.7439 50.7461 51.739 50.7461 51.7244C50.7461 51.7048 50.5215 51.324 50.2432 50.8748C49.9648 50.4304 49.5693 49.7908 49.3594 49.4539C48.5439 48.1306 47.2793 46.4363 46.293 45.3425C46.1074 45.1375 45.9121 44.908 45.8535 44.8298C45.7949 44.7566 45.6143 44.5515 45.4531 44.3757C45.2871 44.2 44.916 43.7947 44.6182 43.4773C44.3252 43.1599 43.9053 42.7107 43.6855 42.4763C43.1045 41.8562 41.9521 40.6111 41.4199 40.0252C40.541 39.0584 37.5967 36.0408 36.7422 35.2351C36.4932 35.0007 36.293 34.7908 36.293 34.7664C36.293 34.7371 36.0244 34.449 35.6924 34.117C35.3652 33.7849 34.9502 33.3552 34.7695 33.1697C34.5938 32.9793 34.3545 32.7595 34.2471 32.6716C34.0078 32.491 33.0947 31.5242 32.9775 31.3386C32.9092 31.2215 32.9043 31.0896 32.9336 30.2351C32.9678 29.2927 33.0068 28.9363 33.0557 29.0925C33.0703 29.1316 33.1729 29.3757 33.29 29.6297C33.4072 29.8836 33.5635 30.3132 33.6367 30.5769C33.7881 31.0994 33.9736 31.4363 34.3594 31.8611C34.6719 32.2078 35.0039 32.3347 35.5117 32.3054C35.9219 32.281 36.1318 32.1882 36.2637 31.9734C36.376 31.7781 36.3613 31.6853 36.1709 31.3338C36.0732 31.1629 35.8975 30.8211 35.7754 30.5818L35.5557 30.1423L35.5703 29.4099L35.585 28.6775L35.2578 27.9939C34.916 27.2859 34.7842 26.866 34.6865 26.1629C34.6523 25.9334 34.6084 25.5965 34.5791 25.4158C34.501 24.8494 34.1055 24.2146 33.7783 24.1316C33.5293 24.0681 32.3672 23.4285 32.1865 23.2527C32.0889 23.1599 31.9131 23.0134 31.791 22.9256C31.6689 22.8377 31.2539 22.5398 30.8682 22.2615C30.4824 21.9832 30.0527 21.6951 29.916 21.6121C29.6865 21.4851 29.6377 21.4265 29.3838 20.948C29.2324 20.6599 29.0322 20.2058 28.9395 19.9373C28.7588 19.4343 28.5 18.9119 28.1875 18.448C28.0898 18.3015 27.9531 18.0818 27.8848 17.9597C27.7383 17.7058 27.2451 17.0906 26.5518 16.2898C26.2832 15.9822 25.9854 15.5916 25.8926 15.4256C25.7998 15.2595 25.6143 14.947 25.4824 14.7224C25.126 14.1218 24.9648 13.8386 24.9648 13.7947C24.9648 13.7752 24.9941 13.7605 25.0332 13.7605C25.0723 13.7605 25.1162 13.697 25.1357 13.614C25.1992 13.3259 24.8965 12.9158 23.7881 11.783C23.5537 11.5388 23.2705 11.2263 23.1582 11.0896L22.9629 10.8308L23.0557 10.5525C23.1045 10.3963 23.1582 10.2107 23.1777 10.1326L23.207 10.0008H17.1523H11.0928L11.2881 10.2791ZM12.7383 10.8894L12.8799 11.0506L12.709 10.9041C12.6162 10.8211 12.5283 10.7527 12.5186 10.7429C12.5088 10.7381 12.5186 10.7332 12.543 10.7332C12.5723 10.7332 12.6553 10.8064 12.7383 10.8894ZM25.1309 14.615C25.3799 14.9617 25.7949 15.5769 26.0586 15.9773C26.3223 16.3777 26.6934 16.905 26.8887 17.1492C27.2939 17.6619 28.1045 18.8338 28.3242 19.2293C28.4023 19.3757 28.5439 19.6834 28.6318 19.9129C28.7197 20.1423 28.8711 20.45 28.9688 20.5965C29.0664 20.7429 29.2568 21.0652 29.3984 21.3045C29.584 21.6365 29.6914 21.7683 29.8086 21.8269C29.8965 21.8709 30.2041 22.0808 30.4873 22.2957C31.6299 23.155 32.6064 23.7947 33.3877 24.1853C33.9004 24.4441 33.9883 24.5076 34.1055 24.698C34.4033 25.1765 34.4766 25.3963 34.584 26.0896C34.7451 27.1492 34.8232 27.4177 35.1992 28.1746L35.3652 28.5017L35.2041 28.5847C34.9697 28.7019 34.8281 28.8533 34.8281 28.9802C34.8281 29.117 35.0283 29.2586 35.1602 29.2146C35.2627 29.1853 35.3408 28.9949 35.2529 28.9949C35.2139 28.9949 35.2139 28.9802 35.2529 28.9412C35.3799 28.8142 35.4141 28.9607 35.4141 29.5857C35.4141 30.1082 35.3994 30.2156 35.3408 30.2156C35.2383 30.2156 35.1699 30.3767 35.1699 30.6257C35.1699 30.7478 35.1504 30.8504 35.1309 30.8504C35.0283 30.8504 34.5352 29.6248 34.5352 29.366C34.5352 29.2195 34.5205 29.1853 34.4619 29.2097C34.4229 29.2244 34.3887 29.2244 34.3887 29.2097C34.3887 29.1414 34.6963 28.7507 34.8721 28.5896C35.1064 28.3797 35.1162 28.3308 34.9502 28.2918C34.7988 28.2527 34.7158 28.2966 34.75 28.3894C34.7646 28.4236 34.7549 28.4675 34.7305 28.4822C34.7061 28.4968 34.6328 28.4187 34.5693 28.3064L34.4473 28.1062L34.4131 28.2625C34.3643 28.4773 34.3057 28.3992 34.1934 27.989C34.1445 27.8035 34.0762 27.5789 34.0322 27.4861C33.9785 27.3591 33.9688 27.1931 33.9883 26.783L34.0127 26.2459L33.9004 26.2752C33.8027 26.2996 33.7979 26.2898 33.8223 26.1726C33.8906 25.8552 33.959 25.2742 33.9297 25.2107C33.915 25.1716 33.8809 25.1375 33.8564 25.1375C33.793 25.1375 33.7246 25.367 33.6074 25.9724C33.4463 26.8123 33.3389 27.1052 33.2461 26.9539C33.2314 26.9295 33.2559 26.7049 33.2949 26.4509C33.3926 25.8552 33.373 25.1277 33.2559 25.0056C33.1729 24.9275 33.1631 24.9373 33.0605 25.1765C32.9971 25.3132 32.9336 25.4304 32.9189 25.4304C32.8994 25.4304 32.875 25.3035 32.8555 25.1472C32.7969 24.6492 32.6309 24.6101 32.6309 25.0984C32.6309 25.2254 32.6113 25.3425 32.582 25.3572C32.5576 25.3718 32.5332 25.3474 32.5332 25.2986C32.5332 25.2058 32.4453 25.0886 32.3818 25.0886C32.3623 25.0886 32.2646 25.3279 32.167 25.6257C32.0693 25.9187 31.9766 26.1629 31.9619 26.1629C31.9473 26.1629 31.9473 26.0554 31.9668 25.9187C32.0156 25.5427 31.9473 24.6443 31.8643 24.615C31.7715 24.5759 31.7617 24.5955 31.6836 24.947C31.6201 25.2351 31.6152 25.2449 31.6104 25.0642C31.6055 24.9568 31.5811 24.7859 31.5518 24.6785C31.5078 24.5125 31.4883 24.4929 31.3711 24.5174C31.2979 24.532 31.2002 24.5613 31.1562 24.5759C31.0781 24.6052 31.0684 24.5759 31.0684 24.2586C31.0684 23.9558 31.0586 23.9119 31 23.9656C30.9609 23.9949 30.8975 24.1023 30.8633 24.2L30.8047 24.3806L30.7705 24.2341C30.751 24.1511 30.7363 23.99 30.7314 23.8679C30.7266 23.6775 30.7168 23.6629 30.6533 23.7215C30.5801 23.7996 30.4336 24.3025 30.4336 24.5027C30.4336 24.5711 30.4141 24.6541 30.3896 24.6931C30.3359 24.7713 30.3066 24.532 30.2529 23.697C30.2334 23.3748 30.209 23.1697 30.1992 23.2478C30.1797 23.409 30.0918 23.3748 30.0918 23.2088C30.0918 23.0623 30.0039 23.0037 29.9648 23.1209C29.8428 23.4822 29.335 24.7127 29.2764 24.781C29.2129 24.8591 29.2129 24.8543 29.2373 24.7078C29.2568 24.6199 29.4229 24.117 29.6035 23.5847C29.7891 23.0574 29.9307 22.6131 29.916 22.6033C29.9062 22.5935 29.8525 22.6424 29.7939 22.7156C29.6621 22.8816 29.5693 22.8181 29.5693 22.5545C29.5693 22.3006 29.5107 22.2127 29.4229 22.3299C29.3887 22.3836 29.3594 22.3933 29.3594 22.364C29.3594 22.3299 29.3057 22.3054 29.2373 22.3054C29.1445 22.3054 29.1152 22.3299 29.1104 22.4129C29.1055 22.5007 29.0957 22.4861 29.0615 22.364C29.0029 22.1736 28.9541 22.1931 28.8125 22.4666L28.7051 22.6716L28.6758 22.4763C28.6514 22.2615 28.6123 22.2859 28.5488 22.5496L28.5098 22.7205L28.4805 22.5545C28.4463 22.3103 28.3535 22.3152 28.3145 22.5593C28.2461 23.0037 28.124 23.4871 28.0947 23.4334C28.0557 23.3748 27.9385 23.7215 27.8408 24.1756C27.8066 24.3318 27.7627 24.4685 27.7383 24.4832C27.6797 24.5222 27.6895 24.3025 27.7676 23.9558C27.8408 23.6384 27.9189 22.9793 27.9678 22.2517C28.002 21.7439 27.9385 21.6756 27.6699 21.9148C27.2207 22.3054 27.2646 21.9197 27.7529 21.1775C27.9092 20.9431 27.9824 20.7771 27.9629 20.7283C27.9287 20.6355 27.8652 20.6209 27.8213 20.6941C27.7969 20.7332 27.2695 21.031 27.0498 21.1287C27.0254 21.1384 27.0303 21.0994 27.0596 21.0408C27.1865 20.8113 27.9531 20.4988 28.041 20.6453C28.0703 20.6892 28.085 20.6892 28.1143 20.6404C28.168 20.5525 27.9141 20.3621 27.6846 20.3181L27.4941 20.2791L27.7188 20.1228C27.9629 19.947 27.9824 19.908 27.8652 19.8103C27.8018 19.7566 27.7529 19.7566 27.5723 19.825C27.377 19.8933 27.3574 19.8933 27.3574 19.8201C27.3574 19.7761 27.3086 19.6638 27.25 19.5711C27.1963 19.4783 27.0938 19.2781 27.0303 19.1316L26.9082 18.8631L27.0986 19.0437C27.2012 19.1463 27.3037 19.2293 27.3184 19.2293C27.377 19.2293 27.0547 18.575 26.7129 17.9939C26.5225 17.6765 26.3809 17.408 26.3906 17.3933C26.4053 17.3836 26.5176 17.5203 26.6396 17.7009C26.7666 17.8865 26.9717 18.1795 27.0986 18.3601C27.2305 18.5408 27.4209 18.824 27.5234 18.9851C27.6846 19.239 27.8945 19.4441 27.8945 19.3513C27.8945 19.3367 27.8066 19.1902 27.6992 19.034C27.5918 18.8777 27.5039 18.7312 27.5039 18.7117C27.5039 18.697 27.4502 18.614 27.377 18.5359C27.3086 18.4529 27.1963 18.2722 27.1279 18.1355C26.9912 17.8572 26.7715 17.4861 26.4248 16.9343C26.3027 16.7341 26.083 16.3728 25.9414 16.1336C25.7998 15.8992 25.3896 15.2595 25.0283 14.7175C24.667 14.1804 24.3594 13.7019 24.3447 13.6629C24.3008 13.5213 24.6865 13.99 25.1309 14.615ZM25.4043 16.0066C25.4336 16.0603 25.4434 16.1043 25.4336 16.1043C25.4189 16.1043 25.3848 16.0603 25.3555 16.0066C25.3262 15.9529 25.3164 15.909 25.3262 15.909C25.3408 15.909 25.375 15.9529 25.4043 16.0066ZM24.3301 16.2508C24.3594 16.3045 24.3691 16.3484 24.3594 16.3484C24.3447 16.3484 24.3105 16.3045 24.2812 16.2508C24.252 16.197 24.2422 16.1531 24.252 16.1531C24.2666 16.1531 24.3008 16.197 24.3301 16.2508ZM16.8936 16.4265C16.8789 16.4412 16.835 16.4461 16.8008 16.4314C16.7617 16.4168 16.7764 16.4021 16.8301 16.4021C16.8838 16.3972 16.9131 16.4119 16.8936 16.4265ZM26.0439 17.115C26.1074 17.1931 26.1025 17.198 26.0293 17.1345C25.9805 17.1004 25.9414 17.0613 25.9414 17.0515C25.9414 17.0125 25.9805 17.0369 26.0439 17.115ZM26.625 18.3992C26.6543 18.4529 26.6641 18.4968 26.6543 18.4968C26.6396 18.4968 26.6055 18.4529 26.5762 18.3992C26.5469 18.3455 26.5371 18.3015 26.5469 18.3015C26.5615 18.3015 26.5957 18.3455 26.625 18.3992ZM26.7715 18.6433C26.8008 18.697 26.8105 18.741 26.8008 18.741C26.7861 18.741 26.752 18.697 26.7227 18.6433C26.6934 18.5896 26.6836 18.5457 26.6934 18.5457C26.708 18.5457 26.7422 18.5896 26.7715 18.6433ZM21.5518 19.2439C21.5469 19.3025 21.4785 19.2879 21.459 19.2244C21.4443 19.1951 21.4639 19.1756 21.498 19.1853C21.5273 19.2 21.5518 19.2244 21.5518 19.2439ZM25.917 20.3181C26.1855 20.7136 26.3564 20.9236 26.3809 20.8894C26.4248 20.8162 26.4785 21.075 26.5029 21.5144C26.5176 21.6951 26.5322 21.8757 26.5371 21.9148C26.5469 21.9539 26.5322 21.9929 26.5078 22.0027C26.4785 22.0125 26.4053 21.866 26.3369 21.6756C26.1855 21.2703 26.1611 21.241 26.0537 21.3386C25.8096 21.5437 25.7119 21.4461 25.9463 21.2312L26.1025 21.0847L26.0146 20.8504C25.9658 20.7234 25.8096 20.406 25.6631 20.1472C25.4238 19.7078 25.3457 19.5369 25.4482 19.6443C25.4678 19.6736 25.6826 19.9763 25.917 20.3181ZM26.1367 21.5486C26.1025 21.5877 26.0537 21.6218 26.0293 21.6218C26 21.6218 26.0049 21.5877 26.0391 21.5486C26.0732 21.5095 26.1221 21.4754 26.1465 21.4754C26.1758 21.4754 26.1709 21.5095 26.1367 21.5486ZM25.1992 21.6463C25.1846 21.6609 25.1553 21.6365 25.1406 21.5877C25.1113 21.5193 25.1162 21.5144 25.165 21.5584C25.1992 21.5925 25.2139 21.6316 25.1992 21.6463ZM26.166 21.6951C26.1123 21.7341 26.0488 21.7683 26.0195 21.7683C25.9951 21.7683 26.0146 21.7341 26.0684 21.6951C26.1172 21.656 26.1855 21.6267 26.21 21.6267C26.2393 21.6267 26.2148 21.656 26.166 21.6951ZM24.1494 22.6814C24.1152 22.6912 24.0566 22.6912 24.0273 22.6814C23.9932 22.6668 24.0176 22.657 24.0859 22.657C24.1543 22.657 24.1787 22.6668 24.1494 22.6814ZM21.918 23.0623C22.084 23.155 22.25 23.2332 22.2891 23.2332C22.3525 23.2332 22.8701 23.7263 23.6904 24.5662C24.0029 24.8836 24.1055 24.9617 24.8525 25.45C25.0479 25.5769 25.2188 25.7234 25.2334 25.7771C25.2822 25.9236 25.2139 26.0603 25.0625 26.1384C24.8818 26.2312 24.8721 26.2312 24.9014 26.1238C24.916 26.0506 24.7891 25.9578 24.2373 25.655C23.7246 25.367 23.5488 25.2498 23.5391 25.1716C23.5244 25.0642 23.3047 24.9812 23.3047 25.0838C23.3047 25.1131 23.2803 25.1375 23.251 25.1375C23.2266 25.1375 23.2119 25.1179 23.2266 25.0984C23.2363 25.0789 23.2314 25.03 23.207 24.991C23.1729 24.9324 23.1484 24.9324 23.0996 24.9812C22.9873 25.0935 22.9482 25.0398 22.9775 24.8201C23.0117 24.5759 22.9678 24.5418 22.7773 24.6785C22.6846 24.742 22.665 24.742 22.6406 24.6785C22.626 24.6394 22.6357 24.5613 22.6699 24.5076C22.7285 24.3904 22.6602 24.3709 22.5723 24.4783C22.4404 24.6394 22.2354 24.4734 22.3379 24.2879C22.377 24.2146 22.3721 24.2049 22.2988 24.2293C22.2305 24.2488 22.1865 24.2146 22.123 24.0877C22.0742 23.9949 22.0498 23.8826 22.0693 23.8386C22.1328 23.6726 21.6738 23.9802 21.293 24.3562C20.9365 24.7175 20.8193 24.7761 20.8877 24.5515C20.9268 24.4295 21.415 23.9851 21.6445 23.8679C21.7422 23.8191 21.9375 23.7605 22.0791 23.741C22.3574 23.7068 22.4111 23.6629 22.3037 23.575C22.2305 23.5164 21.8105 23.5359 21.6201 23.6043C21.5518 23.6336 21.5518 23.6189 21.625 23.4627C21.7031 23.2966 21.7031 23.282 21.6006 23.1111C21.5469 23.0134 21.498 22.9256 21.498 22.9109C21.498 22.8572 21.6348 22.906 21.918 23.0623ZM22.499 22.989C22.5137 23.0134 22.5039 23.0379 22.4795 23.0379C22.4502 23.0379 22.4258 23.0134 22.4258 22.989C22.4258 22.9597 22.4355 22.9402 22.4453 22.9402C22.46 22.9402 22.4844 22.9597 22.499 22.989ZM20.917 23.1746C20.8584 23.2869 20.7217 23.4041 20.6924 23.3699C20.6777 23.3552 20.7119 23.2869 20.7705 23.2185C20.8877 23.0672 20.9902 23.0379 20.917 23.1746ZM20.4287 23.8338C20.3799 23.8777 20.375 23.8728 20.4043 23.8045C20.4189 23.7556 20.4482 23.7312 20.4629 23.7459C20.4775 23.7605 20.4629 23.7996 20.4287 23.8338ZM25.375 24.1609L25.668 24.3513L24.9111 24.366C24.4961 24.3757 24.1494 24.3757 24.1396 24.3709C24.1348 24.366 24.2178 24.3367 24.3252 24.3074C24.5449 24.2488 24.5547 24.1609 24.3398 24.1609C24.1543 24.1609 24.2715 24.0584 24.5107 24.0144C24.9258 23.9314 25.0723 23.9558 25.375 24.1609ZM24.7646 24.5222C24.7549 24.532 24.623 24.5515 24.4766 24.5662C24.3008 24.5857 24.252 24.5808 24.3301 24.5515C24.4521 24.5125 24.8037 24.4881 24.7646 24.5222ZM26.7275 24.9275C26.791 25.0056 26.7861 25.0105 26.7129 24.947C26.6641 24.9129 26.625 24.8738 26.625 24.864C26.625 24.825 26.6641 24.8494 26.7275 24.9275ZM25.3066 24.9617C25.3066 24.9715 25.2725 24.991 25.2334 25.0105C25.1943 25.0252 25.1602 25.0154 25.1602 24.991C25.1602 24.9617 25.1943 24.9422 25.2334 24.9422C25.2725 24.9422 25.3066 24.9519 25.3066 24.9617ZM25.8682 24.991C26.0293 25.0154 26.1367 25.0105 26.1758 24.9763C26.2246 24.9373 26.2686 24.9568 26.3467 25.0496C26.7715 25.5623 27.2402 26.0701 27.3037 26.0896C27.4209 26.1336 28.251 27.1394 28.207 27.1882C28.1924 27.2029 27.9629 27.2566 27.6992 27.3103C27.2256 27.4129 27.1963 27.4031 27.3477 27.2224C27.416 27.1443 27.4111 27.1394 27.2598 27.1394C27.1719 27.1394 27.1133 27.1248 27.1279 27.1101C27.1865 27.0466 27.0645 26.905 26.9766 26.9295C26.918 26.9441 26.8691 26.9197 26.8496 26.8709C26.8301 26.8172 26.791 26.8025 26.7275 26.822C26.6592 26.8416 26.625 26.8172 26.5859 26.7C26.5371 26.5681 26.5176 26.5584 26.3857 26.5828C26.2441 26.6121 26.2197 26.5974 26.2246 26.4558C26.2246 26.4412 26.2393 26.3777 26.2588 26.3142C26.2881 26.2117 26.2832 26.2019 26.1904 26.2263C26.0684 26.2556 26.0586 26.1824 26.166 26.0603C26.2393 25.9773 26.2393 25.9529 26.1367 25.7478C26.0342 25.533 26.0244 25.5281 25.9365 25.6062C25.8633 25.6697 25.8291 25.6795 25.7852 25.6355C25.7412 25.5916 25.7559 25.5427 25.8389 25.4256C25.9805 25.2351 25.9414 25.1961 25.7168 25.2986C25.502 25.406 25.4531 25.3767 25.4873 25.1668C25.5068 25.03 25.4971 24.9959 25.4238 24.9763C25.2627 24.9373 25.6094 24.947 25.8682 24.991ZM25.3555 25.0593C25.3555 25.0691 25.3213 25.0935 25.2773 25.1082C25.2383 25.1228 25.2188 25.1179 25.2334 25.0886C25.2627 25.0398 25.3555 25.0203 25.3555 25.0593ZM29.5645 25.3279C29.5742 25.4109 29.5693 25.4646 29.5449 25.45C29.5059 25.4256 29.4863 25.1863 29.5254 25.1863C29.5352 25.1863 29.5547 25.2498 29.5645 25.3279ZM23.793 25.5672C23.793 25.6355 23.7832 25.6404 23.749 25.5818C23.71 25.5183 23.6904 25.5183 23.6123 25.5769C23.5293 25.6404 23.5342 25.6404 23.6172 25.5427C23.7148 25.4256 23.793 25.4353 23.793 25.5672ZM24.2812 25.8845C24.2812 25.9382 24.1152 25.8455 24.0322 25.7429C23.9736 25.6648 23.9834 25.6648 24.125 25.7478C24.208 25.8015 24.2812 25.8601 24.2812 25.8845ZM29.6768 26.4314C29.7695 26.5047 29.7646 26.5047 29.6182 26.4363C29.5352 26.3924 29.4473 26.3338 29.4277 26.3045C29.3887 26.241 29.5303 26.3093 29.6768 26.4314ZM22.9141 26.5095C22.9873 26.6463 22.9385 26.6218 22.8408 26.4754C22.7969 26.4021 22.7822 26.3631 22.8115 26.3777C22.8408 26.3972 22.8896 26.4558 22.9141 26.5095ZM23.3389 26.8465C23.5732 26.9978 23.5537 27.0515 23.3096 26.9246C23.1826 26.8562 23.0166 26.7 23.0752 26.7C23.0947 26.7 23.2119 26.7634 23.3389 26.8465ZM31.1221 26.9295C31.1855 27.0076 31.1807 27.0125 31.1074 26.949C31.0586 26.9148 31.0195 26.8757 31.0195 26.866C31.0195 26.8269 31.0586 26.8513 31.1221 26.9295ZM25.4287 27.3836C25.6436 27.53 25.7949 27.7009 25.7949 27.7937C25.7949 27.823 25.7607 27.7937 25.7168 27.7302C25.6729 27.6668 25.502 27.53 25.3408 27.4275C25.1797 27.325 25.0869 27.2371 25.1309 27.2371C25.1797 27.2371 25.3115 27.3054 25.4287 27.3836ZM31.9326 27.364C31.918 27.3787 31.874 27.3836 31.8398 27.3689C31.8008 27.3543 31.8154 27.3396 31.8691 27.3396C31.9229 27.3347 31.9521 27.3494 31.9326 27.364ZM25.4189 27.6424C25.7998 27.8865 25.834 27.9402 25.7217 28.1404C25.6729 28.2332 25.5312 28.4236 25.4092 28.5603C25.1553 28.8435 25.1455 28.8435 24.7842 28.575L24.6279 28.4578L24.75 28.1062C24.8135 27.9158 24.8672 27.6814 24.8672 27.5886C24.8672 27.4275 24.8721 27.4226 25.0137 27.4519C25.0967 27.4666 25.2773 27.5545 25.4189 27.6424ZM28.1289 27.6082C28.168 27.6765 28.1973 27.6814 28.3486 27.6228C28.5 27.5691 28.5342 27.574 28.6514 27.657C28.9688 27.8816 29.2031 28.0232 29.4326 28.1306C29.5693 28.1941 29.833 28.3699 30.0234 28.5164C30.209 28.6629 30.5068 28.8679 30.6826 28.9705C31.1465 29.239 31.332 29.405 31.625 29.7908C31.7715 29.9861 31.9668 30.2156 32.0596 30.3035L32.2256 30.4646L32.3086 30.3425C32.4307 30.1472 32.4062 30.0545 32.1182 29.6736C31.9717 29.4783 31.8496 29.3025 31.8496 29.2781C31.8496 29.2537 31.8301 29.2439 31.8105 29.2586C31.7861 29.2732 31.7031 29.2146 31.625 29.1267L31.4834 28.9705L31.6445 29.1121C31.7275 29.1951 31.8008 29.2341 31.8008 29.2048C31.8008 29.1756 31.8838 29.0535 31.9912 28.9412C32.2012 28.7068 32.1475 28.7068 32.5234 28.9754C32.626 29.0535 32.6309 29.0486 32.6309 28.9558C32.6309 28.9021 32.5479 28.7507 32.4404 28.6189L32.2549 28.3797L32.4697 28.3015L32.6846 28.2234L32.7432 28.3552C32.8066 28.492 32.8018 30.1863 32.7383 30.7429L32.7041 31.0457L32.4209 30.782C32.2061 30.5818 32.084 30.5037 31.8936 30.4597C31.6201 30.3914 31.2979 30.4256 31.1318 30.5379C30.9902 30.6257 30.9902 30.5916 31.127 30.3718C31.2246 30.2156 31.2246 30.1863 31.166 29.9519C31.1318 29.8152 31.0781 29.6345 31.0439 29.5466C30.9561 29.3318 30.6143 29.0925 30.3896 29.0877C30.2334 29.0877 30.2236 29.0828 30.3262 29.0388C30.4678 28.9851 30.4189 28.8972 30.248 28.8972C30.0137 28.8972 29.75 28.9949 29.5791 29.1511C29.4814 29.2341 29.418 29.2683 29.4326 29.2341C29.4473 29.1951 29.5645 29.0877 29.6865 28.9949L29.916 28.824L29.7598 28.8093C29.667 28.7996 29.5742 28.824 29.5254 28.8679C29.4326 28.9656 29.374 28.9705 29.4521 28.8777C29.4961 28.8289 29.4961 28.7996 29.457 28.7752C29.3594 28.7166 29.2617 28.7947 29.2568 28.9314C29.2568 29.0486 29.2324 29.0242 29.1104 28.7752C28.8711 28.2869 28.6367 28.0965 28.1533 27.9695C27.958 27.9207 27.9482 27.9109 27.9678 27.7498C27.9873 27.6033 27.9775 27.5838 27.8555 27.5642C27.748 27.5496 27.7578 27.5447 27.9043 27.5349C28.0264 27.53 28.0996 27.5545 28.1289 27.6082ZM25.5215 28.9314C25.2285 29.4881 24.8574 30.0203 24.7598 30.0203C24.7402 30.0203 24.7598 29.947 24.8037 29.8543C24.877 29.698 24.877 29.6736 24.7988 29.5076C24.75 29.4099 24.5498 29.1707 24.3496 28.9802C24.1494 28.7849 23.9883 28.6043 23.9883 28.5798C23.9883 28.5506 24.1543 28.6922 24.3643 28.8826C24.5693 29.0779 24.7549 29.239 24.7744 29.239C24.7891 29.239 24.833 29.1707 24.8672 29.0925C24.9209 28.9607 24.9502 28.9461 25.0625 28.9705C25.2236 29.0047 25.4287 28.8484 25.6533 28.5261C25.7314 28.409 25.8096 28.3113 25.8242 28.3113C25.834 28.3113 25.6973 28.5896 25.5215 28.9314ZM27.4844 28.6091C27.3037 29.0144 27.2939 29.1365 27.4209 29.3562C27.4795 29.4636 27.5625 29.5662 27.6016 29.5857C27.9824 29.781 28.1191 29.8298 28.2168 29.8054C28.2754 29.7908 28.4463 29.6394 28.5977 29.4734C28.9053 29.1365 28.9492 29.1511 28.7148 29.5125C28.6318 29.6443 28.4609 29.9275 28.334 30.1423C28.2021 30.3572 27.9971 30.6599 27.8701 30.8162L27.6357 31.0945L27.4844 30.8943C27.4014 30.7869 27.1719 30.5965 26.9814 30.4744C26.7861 30.3523 26.625 30.2351 26.625 30.2058C26.625 30.1814 26.6396 30.1668 26.6641 30.1765C26.6836 30.1863 26.7568 30.2254 26.835 30.2595C27.0254 30.3572 27.0498 30.2937 26.8984 30.0984C26.791 29.9519 26.7764 29.9129 26.8252 29.8054L26.8838 29.6834L26.9668 29.7908C27.084 29.9324 27.1426 29.864 27.0645 29.6785C27.0107 29.5466 27.0156 29.4978 27.1133 29.2732C27.416 28.5847 27.5576 28.3015 27.5771 28.3211C27.5918 28.3357 27.5479 28.4627 27.4844 28.6091ZM28.4707 28.4334C28.9102 28.6384 28.915 28.824 28.4951 29.3904C28.2754 29.6931 28.2119 29.7224 28.002 29.6052C27.7236 29.4539 27.7285 29.4929 27.9287 28.8777C28.0312 28.5652 28.1387 28.3113 28.1631 28.3113C28.1924 28.3113 28.3291 28.365 28.4707 28.4334ZM30.7266 29.5125C30.834 29.6101 30.9219 29.7078 30.9219 29.7273C30.9219 29.7468 30.7998 29.9666 30.6484 30.2107C30.2725 30.8357 30.3896 30.8845 30.8096 30.2791C30.9121 30.1326 31 30.0349 31.0098 30.0593C31.0195 30.0886 30.8291 30.489 30.5898 30.9578C29.999 32.1052 29.833 32.3933 29.8086 32.3103C29.7939 32.2713 29.7402 32.1882 29.6816 32.1199L29.5791 31.9978L29.6865 32.0906C29.9014 32.2713 29.9697 32.0369 29.7891 31.7341C29.7305 31.6365 29.6426 31.5095 29.5938 31.4558C29.501 31.3533 29.501 31.3484 29.6035 31.1775C29.7061 31.0066 29.7109 31.0017 29.8232 31.075C30.0283 31.2117 30.082 31.1238 29.9014 30.9578C29.6816 30.7576 29.7402 30.699 29.9893 30.8699C30.1699 30.9968 30.2871 31.0066 30.2871 30.8992C30.2871 30.8748 30.2139 30.8211 30.1211 30.7771C29.9453 30.6941 29.75 30.5086 29.8379 30.5086C29.8672 30.5086 29.9551 30.5672 30.0381 30.6355C30.2188 30.7869 30.2432 30.7234 30.0674 30.5574C29.999 30.4939 29.9453 30.4207 29.9453 30.3914C29.9453 30.3621 30.0332 30.1131 30.1455 29.8347C30.375 29.2634 30.4189 29.239 30.7266 29.5125ZM23.7734 29.7615C23.9248 29.9715 24.0811 30.1716 24.125 30.2009C24.2178 30.2791 24.1641 30.284 24.0322 30.2156C23.9395 30.1619 23.4512 29.5027 23.4512 29.4246C23.4512 29.3416 23.5049 29.3953 23.7734 29.7615ZM35.8242 31.0457C36.0977 31.4998 36.1953 31.7048 36.1709 31.7781C36.1318 31.9002 36.0391 31.8562 35.7461 31.5925C35.4678 31.3386 35.3652 31.114 35.3652 30.7283C35.3652 30.5525 35.3848 30.4109 35.4043 30.4109C35.4238 30.4109 35.6143 30.6941 35.8242 31.0457ZM31.8838 30.7088C31.957 30.7332 32.123 30.8406 32.2549 30.9382C32.5381 31.1531 33.9004 32.6668 33.9004 32.7644C33.9004 32.8035 33.8467 32.8865 33.7783 32.95L33.6514 33.0672L33.6221 32.9597C33.5928 32.8328 33.5684 32.8279 33.4414 32.9256C33.2852 33.0476 33.2412 33.0086 33.2266 32.7449C33.2217 32.6082 33.2021 32.4812 33.1875 32.4666C33.1729 32.4519 33.1094 32.491 33.0557 32.5593C32.9971 32.6277 32.9092 32.7107 32.8652 32.7449C32.792 32.8035 32.7871 32.7937 32.8408 32.6277C32.8848 32.4861 32.8848 32.4422 32.8359 32.4226C32.7969 32.4129 32.7871 32.3396 32.8066 32.2029C32.8408 32.0027 32.8408 31.9978 32.7432 32.0857C32.6455 32.1687 32.6406 32.1687 32.582 32.0271C32.5479 31.9343 32.499 31.8904 32.4551 31.9099C32.4014 31.9295 32.3867 31.8709 32.3867 31.6316C32.3867 31.4119 32.3574 31.28 32.2891 31.1677C32.1816 30.992 31.7812 30.7576 31.5762 30.7478L31.4346 30.7429L31.5811 30.7039C31.6641 30.6843 31.7324 30.6648 31.7373 30.6599C31.7422 30.6599 31.8057 30.6795 31.8838 30.7088ZM32.0059 31.1287C32.1426 31.2947 32.1475 31.3923 32.0254 31.6023C31.8496 31.905 31.7227 32.0173 31.6055 31.9881C31.459 31.949 31.4492 31.9002 31.5225 31.6463C31.6982 31.0603 31.8252 30.9236 32.0059 31.1287ZM31.8789 32.657C31.7324 33.1013 31.6006 33.5799 31.5811 33.7215C31.5518 33.9461 31.5225 33.9949 31.3906 34.0779C31.2979 34.1365 31.1562 34.1707 31.0195 34.1658H30.7998L31.0391 34.1023C31.3467 34.0193 31.4443 33.8631 31.4541 33.448C31.459 33.3015 31.4346 33.2332 31.3857 33.2136C31.3223 33.1892 31.3369 33.1404 31.459 32.9158C31.5811 32.7058 31.6006 32.6326 31.5518 32.5789C31.5078 32.5252 31.5078 32.4959 31.5566 32.4373C31.6396 32.3396 31.5859 32.2273 31.4297 32.1687C31.249 32.1004 31.3027 32.0662 31.5176 32.115C31.7373 32.1687 31.8496 32.1004 32.0059 31.8172C32.2158 31.4412 32.1621 31.8074 31.8789 32.657ZM31.5566 32.657C31.5566 32.6814 31.5371 32.7058 31.5078 32.7058C31.4834 32.7058 31.459 32.6814 31.459 32.657C31.459 32.6277 31.4834 32.6082 31.5078 32.6082C31.5371 32.6082 31.5566 32.6277 31.5566 32.657ZM34.291 33.0183C34.291 33.0916 33.5342 33.8338 33.3633 33.9265C33.1875 34.0242 33.2607 33.9119 33.7197 33.4138C34.125 32.9793 34.291 32.8621 34.291 33.0183ZM35.1113 33.7166C35.292 33.9021 35.5752 34.2049 35.7412 34.3953L36.0439 34.742L35.3457 35.4207C34.9648 35.7966 34.4033 36.3679 34.1006 36.6951C33.7979 37.0271 33.5342 37.2957 33.5098 37.2957C33.4023 37.2957 33.5293 37.1052 33.8857 36.7439C34.3301 36.2898 34.6426 35.8992 34.7842 35.6306C34.9062 35.3914 34.9014 35.3474 34.7793 35.5037C34.7207 35.572 34.6523 35.6209 34.6182 35.6062C34.5352 35.5769 34.5205 35.3474 34.5889 35.2595C34.6377 35.2058 34.6279 35.2009 34.5547 35.2254C34.4766 35.2547 34.4717 35.2498 34.5254 35.1912C34.6182 35.0935 34.5938 35.0398 34.4863 35.0984C34.418 35.1375 34.3887 35.1375 34.3887 35.0984C34.3887 35.0691 34.3691 35.0545 34.3447 35.0691C34.3203 35.0838 34.2764 35.0642 34.2422 35.0252C34.208 34.9861 34.2031 34.9519 34.2275 34.9519C34.2812 34.9519 34.4033 34.7078 34.3691 34.6736C34.3594 34.659 34.3008 34.6785 34.2373 34.7078C34.1445 34.7566 34.1006 34.7517 33.9639 34.6834L33.8076 34.5955L33.998 34.4002C34.1055 34.2976 34.1934 34.1658 34.1934 34.1218C34.1934 34.0388 34.1738 34.0437 33.9688 34.156C33.8467 34.2244 33.7393 34.2683 33.7246 34.2537C33.6807 34.2097 34.6035 33.3894 34.6963 33.3894C34.7451 33.3894 34.9307 33.5359 35.1113 33.7166ZM39.4131 38.199C40.9316 39.7566 41.5908 40.45 43.1045 42.0808C43.5879 42.5984 44.2275 43.282 44.5254 43.5994C44.8232 43.9119 45.1748 44.3074 45.3066 44.4783C45.4385 44.6443 45.707 44.9568 45.9072 45.1716C46.7373 46.0798 48.1436 47.9158 49.0566 49.283C49.5449 50.0203 50.2578 51.2117 50.2578 51.2947C50.2578 51.3093 50.2236 51.2947 50.1846 51.2605C50.1455 51.2263 50.1113 51.1775 50.1113 51.1531C50.1113 51.0603 49.54 50.1326 48.9443 49.2586C48.2803 48.2869 47.8848 47.8279 47.8115 47.9451C47.7627 48.0281 47.8018 48.3064 47.8994 48.4871C47.9336 48.5652 47.9531 48.6238 47.9385 48.6238C47.9287 48.6238 47.8604 48.5115 47.7871 48.3699C47.6943 48.1843 47.665 48.072 47.6846 47.9353C47.6992 47.8035 47.6846 47.7302 47.6357 47.6912C47.543 47.6082 47.4795 47.7058 47.4746 47.9402L47.4697 48.1111L47.3086 47.9256C47.1914 47.7986 47.1328 47.6716 47.1084 47.5105C47.0596 47.1687 46.957 46.9978 46.8203 47.0222C46.7178 47.0418 46.6982 47.0076 46.6006 46.7048C46.4443 46.2263 46.0195 45.8259 45.8877 46.0359C45.8438 46.1043 45.7656 46.0945 45.7656 46.0213C45.7656 45.9187 45.4482 45.4988 45.2969 45.3963C45.1992 45.3328 45.1357 45.323 45.0723 45.3572C44.9893 45.4011 45.0039 45.4353 45.2334 45.7771C45.4727 46.1287 45.4775 46.1433 45.3311 46.0408C45.1455 45.909 45.0186 45.7429 44.7158 45.2449C44.4668 44.8298 44.1494 44.4685 44.1152 44.5613C44.1055 44.5906 44.1445 44.6785 44.1982 44.7468C44.252 44.8201 44.291 44.8933 44.2764 44.9129C44.2617 44.9324 44.2861 44.9666 44.3301 44.9812C44.374 45.0007 44.3984 45.0447 44.3789 45.0838C44.3643 45.1228 44.3691 45.157 44.3936 45.157C44.4326 45.157 44.5938 45.533 44.5938 45.6209C44.5938 45.6502 44.5449 45.572 44.4912 45.45C44.4375 45.3328 44.3398 45.1619 44.2715 45.074C44.1445 44.9031 44.1201 44.8396 44.2178 44.8933C44.2471 44.9129 44.2568 44.908 44.2373 44.8884C44.1836 44.8298 44.0566 44.8152 44.0566 44.8689C44.0566 44.8933 44.1396 45.0349 44.2422 45.1863C44.3398 45.3377 44.4521 45.5183 44.4912 45.5916C44.5303 45.6599 44.5889 45.7478 44.6279 45.782C44.7402 45.8943 44.6963 45.9382 44.4766 45.9382H44.2666L44.2324 45.6795C44.2129 45.5427 44.1934 45.3767 44.1885 45.3181C44.1836 45.2595 44.1689 45.2254 44.1592 45.2351C44.1445 45.2449 44.1055 45.1863 44.0713 45.1033C44.0078 44.947 43.9102 44.9519 43.9102 45.1082C43.9102 45.1961 43.8955 45.1912 43.7051 45.0838C43.5146 44.9763 43.4902 44.9715 43.4121 45.0398C43.3242 45.1228 43.2168 45.0935 43.2559 44.9959C43.2705 44.9568 43.2119 44.908 43.1191 44.8738C43.0264 44.8396 42.8848 44.7127 42.7871 44.5857C42.6797 44.4392 42.6113 44.3855 42.6016 44.4343C42.582 44.5271 42.7529 44.9812 42.8848 45.1961C42.9727 45.3425 42.9971 45.3523 43.1729 45.323C43.4121 45.284 43.5488 45.3572 43.6416 45.5769C43.7148 45.7527 43.7002 45.8699 43.6123 45.8113C43.5879 45.7966 43.5342 45.8064 43.4951 45.8406C43.4561 45.8748 43.4219 45.8748 43.4023 45.8455C43.3438 45.7576 43.2217 45.8455 43.2559 45.948C43.2754 46.0213 43.2705 46.0359 43.2266 46.0115C43.1875 45.9871 43.1729 45.992 43.1973 46.0261C43.2119 46.0554 43.2949 46.0701 43.3779 46.0603C43.4805 46.0457 43.5195 46.0603 43.5049 46.0994C43.4951 46.1336 43.4463 46.1531 43.4023 46.1531C43.3584 46.1482 43.3242 46.1629 43.3242 46.1873C43.3242 46.2117 43.2998 46.2312 43.2705 46.2312C43.2461 46.2312 43.2314 46.2117 43.2461 46.1873C43.2656 46.1629 43.2559 46.1336 43.2266 46.1238C43.2021 46.1189 43.0996 45.9871 43.0068 45.8406C42.8115 45.5427 42.8164 45.6648 43.0117 46.0506C43.0752 46.1824 43.1143 46.3142 43.0947 46.3386C43.0801 46.3679 43.0898 46.3777 43.1143 46.3631C43.1436 46.3435 43.1924 46.3923 43.2168 46.4705L43.2656 46.6121L43.1045 46.5193C42.9824 46.4461 42.875 46.2898 42.665 45.8845C42.4258 45.4304 42.1377 45.0593 42.0742 45.1228C42.0645 45.1326 42.0889 45.2351 42.1279 45.3523C42.2256 45.6355 42.2207 45.6404 42.0596 45.4207C41.9814 45.3181 41.8496 45.1619 41.7617 45.0838C41.6055 44.9373 41.6055 44.9373 41.6396 45.0593C41.6592 45.1277 41.7373 45.2937 41.8154 45.4304C41.8936 45.5672 41.957 45.7088 41.957 45.7381C41.957 45.8162 41.7812 45.8015 41.708 45.7136C41.5273 45.4939 41.1709 45.45 40.9756 45.6257C40.8975 45.6941 40.8877 45.6941 40.834 45.5965C40.7998 45.533 40.7949 45.4304 40.8145 45.3377C40.8682 45.1082 40.8584 44.9959 40.7607 44.8494C40.6143 44.6199 40.3799 44.5125 40.0771 44.532L39.8086 44.5466V44.239C39.8086 44.073 39.8232 43.9412 39.8477 43.9412C40.0381 43.9705 40.0186 43.8777 39.7842 43.6238C39.6572 43.4822 39.6523 43.4822 39.2422 43.5164L38.832 43.5457L38.8271 43.365C38.8223 43.2625 38.8174 43.155 38.8076 43.1306C38.8027 43.1013 38.793 43.0574 38.793 43.0232C38.7881 42.9939 38.7246 42.9011 38.6562 42.8181C38.5146 42.6472 38.3096 42.6179 38.0361 42.7351L37.8799 42.7986L37.8652 42.53C37.8555 42.3836 37.8213 42.1834 37.792 42.0857L37.7334 41.9099L37.3379 41.9197L36.9424 41.9246L36.8594 41.7586C36.8154 41.6658 36.7812 41.5388 36.7861 41.4802C36.7861 41.4216 36.8008 41.4021 36.8154 41.4314C36.8252 41.4656 36.8594 41.4949 36.8838 41.4949C36.957 41.4949 36.791 41.1433 36.6543 41.0066C36.5469 40.8943 36.498 40.8845 36.1758 40.8943L35.8145 40.8992L35.7949 40.6502C35.7852 40.5086 35.7852 40.3572 35.8047 40.3084C35.8291 40.2351 35.8486 40.2498 35.9121 40.3914C35.9609 40.4841 36.0391 40.5867 36.0977 40.616C36.2686 40.7088 36.2686 40.5476 36.1025 40.3035C35.9316 40.0593 35.8535 39.991 35.8535 40.0886C35.8486 40.1228 35.8193 40.0935 35.7754 40.0203C35.668 39.8152 35.5459 39.7761 35.1846 39.8152L34.8623 39.8494L34.8916 39.6882C34.9111 39.6004 34.9258 39.4881 34.9258 39.4392C34.9258 39.366 34.9502 39.3562 35.0723 39.3757C35.1553 39.3953 35.2188 39.4002 35.2188 39.3855C35.2188 39.3757 35.1406 39.1853 35.0479 38.9656C34.9551 38.7459 34.8477 38.3845 34.8086 38.1648C34.7695 37.9402 34.6914 37.6424 34.6328 37.5007C34.5498 37.281 34.54 37.2078 34.584 37.0515C34.6133 36.9441 34.6816 36.8367 34.7305 36.8074C34.7842 36.7781 34.8623 36.7 34.9062 36.6365C34.9697 36.5388 34.9746 36.4998 34.9258 36.4412C34.8721 36.3777 34.8818 36.3435 34.9502 36.3777C34.96 36.3875 35.0039 36.3484 35.043 36.2947C35.0869 36.241 35.1211 36.2166 35.1211 36.2459C35.1211 36.2703 35.1455 36.2605 35.1699 36.2215C35.209 36.158 35.2188 36.1629 35.2188 36.2312C35.2188 36.3728 35.3604 36.3338 35.3945 36.1824C35.4629 35.8601 35.4824 35.8552 35.6289 36.075C35.7461 36.2507 35.7754 36.2703 35.8145 36.2068C35.8389 36.1629 35.8486 35.9724 35.834 35.782L35.8145 35.4353L35.9219 35.533C36.0488 35.655 36.0977 35.6599 36.0977 35.5623C36.0977 35.4597 36.166 35.4695 36.2686 35.5867C36.3906 35.7234 36.6836 35.8992 36.7178 35.8601C36.7373 35.8455 36.7275 35.7283 36.6982 35.5965L36.6445 35.367L37.5967 36.3435C38.124 36.8806 38.9395 37.7156 39.4131 38.199ZM35.0234 36.0408C35.0234 36.0506 34.9648 36.1091 34.8965 36.1775C34.7744 36.2849 34.7695 36.2898 34.8232 36.1873C34.8672 36.0994 34.916 36.0603 35.0137 36.031C35.0186 36.0261 35.0234 36.031 35.0234 36.0408ZM33.4121 37.2127C33.4121 37.2224 33.3633 37.2713 33.3047 37.325L33.1924 37.4177L33.2852 37.3054C33.373 37.2029 33.4121 37.1736 33.4121 37.2127ZM34.3496 37.3933C34.3643 37.4715 34.3545 37.5398 34.3301 37.5398C34.3105 37.5398 34.291 37.4715 34.291 37.3933C34.291 37.3103 34.3008 37.2468 34.3105 37.2468C34.3203 37.2468 34.3398 37.3103 34.3496 37.3933ZM33.5781 37.5007C33.4805 37.6668 33.3389 37.8328 33.2998 37.8328C33.2754 37.8328 33.3291 37.7449 33.4121 37.6375C33.5586 37.4519 33.6514 37.3738 33.5781 37.5007ZM34.4814 38.1502C34.4766 38.2527 34.3496 37.8523 34.3447 37.7351C34.3447 37.6668 34.374 37.7156 34.4131 37.8572C34.4521 37.989 34.4814 38.1209 34.4814 38.1502ZM32.709 38.0525C32.6016 38.1453 32.4941 38.2234 32.4648 38.2234C32.4355 38.2234 32.499 38.1453 32.6064 38.0525C32.7139 37.9597 32.8262 37.8865 32.8506 37.8865C32.8799 37.8865 32.8115 37.9597 32.709 38.0525ZM34.5791 38.4187C34.5791 38.4675 34.5645 38.4578 34.5352 38.3943C34.4766 38.2625 34.4766 38.1843 34.5352 38.2722C34.5596 38.3113 34.5791 38.3797 34.5791 38.4187ZM34.3105 38.8386C34.3252 38.8777 34.3203 38.9021 34.2959 38.8875C34.2715 38.8728 34.2422 38.9021 34.2275 38.9558C34.1885 39.1072 34.0469 39.0779 34.0469 38.9168C34.0469 38.8142 34.0566 38.7996 34.0957 38.8582C34.1299 38.9119 34.1445 38.9119 34.1445 38.8679C34.1445 38.8338 34.1689 38.8191 34.1934 38.8338C34.2227 38.8484 34.2422 38.8386 34.2422 38.8142C34.2422 38.7361 34.2764 38.7507 34.3105 38.8386ZM36.3174 41.2019C36.332 41.2263 36.3271 41.2507 36.2979 41.2507C36.2734 41.2507 36.2344 41.2263 36.2197 41.2019C36.2051 41.1726 36.21 41.1531 36.2393 41.1531C36.2637 41.1531 36.3027 41.1726 36.3174 41.2019ZM37.5723 42.3982C37.5869 42.4666 37.582 42.5203 37.5625 42.5203C37.5039 42.5203 37.3672 42.3445 37.4014 42.3103C37.4697 42.2371 37.5527 42.281 37.5723 42.3982ZM38.3633 43.0037C38.3779 43.0232 38.334 43.033 38.2705 43.0183C38.2021 43.0086 38.1484 42.989 38.1484 42.9793C38.1484 42.9402 38.3389 42.9597 38.3633 43.0037ZM39.2715 43.8386C39.3301 43.8777 39.3154 43.8826 39.2129 43.8777C39.1396 43.8728 39.0957 43.8484 39.1055 43.8289C39.1396 43.78 39.1836 43.78 39.2715 43.8386ZM43.8418 45.2937C43.9297 45.3523 44.0176 45.5476 43.9883 45.6257C43.9736 45.6648 43.9834 45.6941 44.0029 45.6941C44.0273 45.6941 44.0615 45.7332 44.0762 45.7771C44.0957 45.8259 43.998 45.7576 43.8662 45.6209C43.7295 45.489 43.6172 45.3523 43.6172 45.3181C43.6172 45.2498 43.7539 45.2351 43.8418 45.2937ZM43.6855 46.0652C43.7002 46.1043 43.6953 46.1238 43.666 46.1091C43.6367 46.0945 43.6172 46.0603 43.6172 46.031C43.6172 45.9627 43.6514 45.9773 43.6855 46.0652ZM44.1396 46.3142C44.0957 46.3582 43.9932 46.2556 43.9785 46.1531C43.9688 46.0847 43.9834 46.0896 44.0713 46.1726C44.125 46.2312 44.1592 46.2947 44.1396 46.3142ZM46.2539 46.4314C46.2539 46.4558 46.21 46.4363 46.1562 46.3923C46.1025 46.3435 46.0586 46.2849 46.0586 46.2605C46.0586 46.2361 46.1025 46.2556 46.1562 46.3045C46.21 46.3533 46.2539 46.4119 46.2539 46.4314ZM43.5195 46.3533C43.5537 46.3923 43.5635 46.4607 43.5488 46.5047C43.5293 46.5632 43.5391 46.5779 43.5928 46.5535C43.6318 46.5388 43.666 46.5486 43.666 46.573C43.666 46.6023 43.6221 46.6218 43.5684 46.6218C43.5098 46.6218 43.4707 46.5925 43.4756 46.5584C43.4902 46.4461 43.4609 46.3045 43.4365 46.3679C43.4121 46.4314 43.3242 46.4021 43.3242 46.324C43.3242 46.2556 43.4512 46.2703 43.5195 46.3533ZM43.9932 46.4558C43.959 46.49 43.8125 46.4216 43.8125 46.3728C43.8125 46.3435 43.8564 46.3484 43.915 46.3777C43.9688 46.4119 44.0078 46.4461 43.9932 46.4558ZM41.4639 46.4705C41.4932 46.5193 41.5273 46.9636 41.542 47.4568C41.5518 47.9451 41.5811 48.365 41.6055 48.3894C41.6299 48.4138 41.6787 48.3992 41.7129 48.3552C41.7617 48.2966 41.7666 48.2234 41.7227 48.0232C41.6641 47.7254 41.6445 46.7976 41.6982 46.8269C41.7178 46.8367 41.8203 46.8757 41.9277 46.9148C42.084 46.9734 42.1377 47.0369 42.2744 47.3054C42.416 47.5935 42.4355 47.6814 42.4648 48.2088C42.4844 48.531 42.5332 49.0095 42.5771 49.2732C42.6357 49.6541 42.6406 49.7908 42.5967 49.9373C42.4746 50.3572 42.5723 50.7381 42.7529 50.5379C42.8262 50.4597 42.8359 50.2937 42.8213 49.0974C42.8164 48.2039 42.8311 47.7351 42.8652 47.7009C42.9287 47.6326 43.3047 47.9011 43.3486 48.0427C43.3682 48.1013 43.4561 48.155 43.5977 48.1892C43.793 48.2381 43.8369 48.2771 43.9688 48.5115C44.0518 48.658 44.1396 48.7654 44.1738 48.7556C44.2031 48.741 44.3008 48.7654 44.3936 48.7996C44.4814 48.8386 44.6084 48.8679 44.6719 48.8679C44.7549 48.8679 44.833 48.9412 44.9697 49.1463C45.082 49.3123 45.2041 49.4343 45.2773 49.4588C45.3457 49.4783 45.5117 49.5222 45.6436 49.5564C45.834 49.6052 45.9463 49.6785 46.166 49.9031C46.3223 50.0593 46.4883 50.1863 46.5322 50.1863C46.5908 50.1863 46.5664 50.1521 46.4639 50.0886C46.166 49.908 46.2979 49.9324 46.6348 50.1179C46.8154 50.2156 47.04 50.3377 47.1328 50.3865C47.4209 50.5379 48.6318 50.9968 49.335 51.2312C49.9014 51.4119 50.4922 51.6609 50.1846 51.5828C49.3105 51.3582 49.0225 51.3093 48.5977 51.3093C47.792 51.3093 46.0586 51.2117 45.4238 51.1336C44.8428 51.0554 42.4551 50.9968 42.3086 51.0554C42.2012 51.0945 42.3428 51.1629 42.5332 51.1629C42.6162 51.1629 42.6895 51.1824 42.6895 51.2117C42.6895 51.241 42.416 51.2605 41.9619 51.2605H41.2393L41.2051 50.0984C41.1709 49.0388 41.2393 46.5193 41.3027 46.4168C41.3467 46.3484 41.415 46.3728 41.4639 46.4705ZM44.1641 46.4461C44.1982 46.4265 44.2031 46.4363 44.1836 46.4656C44.1299 46.5535 44.0566 46.534 44.0615 46.4363C44.0615 46.3875 44.0762 46.3777 44.0908 46.4168C44.1006 46.4461 44.1396 46.4607 44.1641 46.4461ZM42.1035 46.6511C42.1035 46.7293 42.0596 46.7341 41.9619 46.6756C41.9229 46.6511 41.9082 46.5974 41.9277 46.5486C41.9521 46.4802 41.9717 46.4754 42.0303 46.5242C42.0693 46.5584 42.1035 46.617 42.1035 46.6511ZM44.0078 46.9685C44.0078 46.9929 43.9883 47.0076 43.9639 46.9881C43.9395 46.9734 43.9004 46.9881 43.8809 47.0173C43.8613 47.0515 43.8662 47.0662 43.8906 47.0515C43.915 47.0369 43.9785 47.0418 44.0322 47.0662C44.125 47.1004 44.125 47.1052 44.0225 47.1052C43.9639 47.1101 43.9053 47.1297 43.8857 47.1541C43.8711 47.1834 43.9053 47.1931 43.9639 47.1834C44.0469 47.1687 44.0566 47.1736 44.0078 47.2322C43.9443 47.3054 43.8125 47.281 43.8125 47.1882C43.8125 47.159 43.793 47.1638 43.7686 47.2029C43.7295 47.2615 43.7051 47.2566 43.6221 47.1541C43.4951 47.0027 43.4902 46.9246 43.6172 47.0369C43.7881 47.1931 43.9443 47.1687 43.8027 47.0173C43.7539 46.9636 43.7539 46.9539 43.8027 46.9832C43.832 47.0027 43.8613 46.9929 43.8613 46.9685C43.8613 46.9392 43.8955 46.9148 43.9346 46.9148C43.9736 46.9148 44.0078 46.9392 44.0078 46.9685ZM43.5293 47.0955C43.5781 47.1394 43.6172 47.198 43.6172 47.2273C43.6172 47.2566 43.5928 47.2468 43.5684 47.2078C43.5391 47.159 43.5195 47.1541 43.5195 47.1931C43.5195 47.2713 43.3926 47.2761 43.3486 47.2078C43.3291 47.1785 43.334 47.159 43.3584 47.1638C43.4561 47.1785 43.4805 47.1541 43.4219 47.0857C43.3389 46.9881 43.417 46.9929 43.5293 47.0955ZM42.7383 47.408C42.7383 47.4373 42.7188 47.4422 42.6895 47.4275C42.665 47.4129 42.6406 47.3738 42.6406 47.3494C42.6406 47.3201 42.665 47.3152 42.6895 47.3298C42.7188 47.3445 42.7383 47.3836 42.7383 47.408ZM44.3008 47.5007C44.3008 47.5252 44.2666 47.5349 44.2275 47.5203C44.1885 47.5007 44.1543 47.4812 44.1543 47.4715C44.1543 47.4617 44.1885 47.4519 44.2275 47.4519C44.2666 47.4519 44.3008 47.4715 44.3008 47.5007ZM43.5195 47.5984C43.4561 47.6375 43.4609 47.6472 43.5342 47.6472C43.5781 47.6472 43.6172 47.6814 43.6172 47.7205C43.6172 47.8328 43.5 47.8084 43.4414 47.6814C43.3975 47.5838 43.4072 47.5691 43.4902 47.5593C43.5732 47.5545 43.5781 47.5642 43.5195 47.5984ZM44.4229 48.1355C44.4668 48.2136 44.4814 48.282 44.4619 48.282C44.4375 48.2869 44.4766 48.3308 44.54 48.3797C44.6035 48.4334 44.6328 48.4773 44.6133 48.4773C44.5889 48.4773 44.6035 48.5017 44.6426 48.5261C44.6963 48.5603 44.6621 48.575 44.5205 48.575C44.1885 48.575 44.1592 48.5115 44.2812 48.072C44.3154 47.9597 44.335 47.9646 44.4229 48.1355ZM45.3896 49.1121C45.375 49.1658 45.3457 49.1951 45.3164 49.1804C45.292 49.1658 45.2969 49.1218 45.3311 49.0828C45.4092 48.99 45.4189 48.9949 45.3896 49.1121ZM48.5537 49.1463C48.6172 49.2244 48.6123 49.2293 48.5391 49.1658C48.4902 49.1316 48.4512 49.0925 48.4512 49.0828C48.4512 49.0437 48.4902 49.0681 48.5537 49.1463ZM29.6914 51.0994C29.6426 51.1091 29.5645 51.1091 29.5205 51.0994C29.4717 51.0847 29.5107 51.075 29.6035 51.075C29.6963 51.075 29.7354 51.0847 29.6914 51.0994ZM34.9893 51.197C34.9014 51.2068 34.7549 51.2068 34.6719 51.197C34.584 51.1873 34.6523 51.1775 34.8281 51.1775C35.0039 51.1775 35.0723 51.1873 34.9893 51.197ZM32.5332 51.2654C32.4111 51.2849 32.1035 51.2996 31.8496 51.2947L31.3857 51.2898L31.8252 51.2605C32.0693 51.2459 32.377 51.2263 32.5088 51.2263H32.7529L32.5332 51.2654ZM43.5195 51.4558C43.5195 51.4802 43.4658 51.5047 43.3975 51.5047C43.3291 51.5047 43.2754 51.4802 43.2754 51.4558C43.2754 51.4265 43.3291 51.407 43.3975 51.407C43.4658 51.407 43.5195 51.4265 43.5195 51.4558ZM44.2178 51.4412C44.1836 51.4509 44.125 51.4509 44.0957 51.4412C44.0615 51.4265 44.0859 51.4168 44.1543 51.4168C44.2227 51.4168 44.2471 51.4265 44.2178 51.4412ZM26.4785 51.5047C26.3125 51.5584 26.1855 51.5584 26.3076 51.5047C26.3613 51.4802 26.4492 51.4656 26.5029 51.4656C26.5811 51.4656 26.5762 51.4754 26.4785 51.5047ZM26.918 51.9441C26.918 51.9685 26.9131 51.9929 26.9082 51.9929C26.8984 51.9929 26.7861 52.0271 26.6592 52.0662C26.4004 52.1443 26.3906 52.0759 26.6445 51.9636C26.8252 51.8855 26.918 51.8806 26.918 51.9441Z" fill="white"/>
<path d="M32.3428 24.7559C32.3379 24.834 32.3623 24.8926 32.3867 24.8926C32.4453 24.8926 32.4453 24.8535 32.3867 24.7217C32.3477 24.6338 32.3428 24.6387 32.3428 24.7559Z" fill="white"/>
<path d="M31.9375 29.2734C31.9717 29.288 32.0156 29.2831 32.0303 29.2685C32.0498 29.2539 32.0205 29.2392 31.9668 29.2441C31.9131 29.2441 31.8984 29.2587 31.9375 29.2734Z" fill="white"/>
<path d="M36.7568 36.6358C36.8105 36.6749 36.8838 36.7286 36.918 36.7579C36.9521 36.7921 36.9766 36.7921 36.9766 36.7628C36.9766 36.7042 36.7813 36.5626 36.708 36.5626C36.6836 36.5626 36.7031 36.5968 36.7568 36.6358Z" fill="white"/>
<path d="M35.8535 37.2168C35.8535 37.2607 35.8877 37.2949 35.9316 37.2949C35.9756 37.2949 36 37.2705 35.9902 37.2363C35.9609 37.1484 35.8535 37.1338 35.8535 37.2168Z" fill="white"/>
<path d="M34.6768 37.4318C34.7354 37.5441 34.877 37.6662 34.877 37.6027C34.877 37.5783 34.8428 37.5099 34.7988 37.4513C34.7061 37.3195 34.6084 37.3048 34.6768 37.4318Z" fill="white"/>
<path d="M35.8633 37.998C35.8682 38.0469 35.9023 38.0811 35.9268 38.0811C36 38.0762 35.9854 37.9639 35.9121 37.9395C35.8682 37.9248 35.8486 37.9492 35.8633 37.998Z" fill="white"/>
<path d="M35.1748 38.2035C35.043 38.3744 35.043 38.4867 35.1894 38.6771C35.2529 38.765 35.3555 38.931 35.4141 39.0433C35.4727 39.1605 35.5312 39.2484 35.541 39.2338C35.5557 39.2191 35.5117 39.097 35.4434 38.9603C35.3066 38.6966 35.2969 38.6576 35.3555 38.6673C35.375 38.6722 35.4287 38.6722 35.4775 38.6673C35.6191 38.6576 35.5459 38.5502 35.3945 38.5404C35.2041 38.5355 35.1504 38.4183 35.2773 38.2865C35.3506 38.2035 35.3701 38.1595 35.3311 38.1205C35.2969 38.0863 35.248 38.1107 35.1748 38.2035Z" fill="white"/>
<path d="M37.9043 38.6914C37.9043 38.7549 38.0117 38.9062 38.0557 38.9062C38.085 38.9062 38.085 38.877 38.0557 38.8135C38.0264 38.7646 38.0215 38.7109 38.0361 38.6914C38.0508 38.6768 38.0312 38.6621 37.9873 38.6621C37.9434 38.6621 37.9043 38.6768 37.9043 38.6914Z" fill="white"/>
<path d="M36.0488 39.0631C36.0732 39.1803 36.1172 39.4488 36.1514 39.6637C36.2295 40.191 36.3711 40.567 36.4883 40.567C36.5713 40.567 36.7617 40.7526 36.8789 40.9479C36.9229 41.026 36.9326 41.0211 37.0156 40.9283L37.1084 40.8209L37.2646 41.109C37.416 41.3824 37.582 41.5387 37.6504 41.4703C37.6943 41.4313 37.3721 40.816 37.0938 40.3961C36.9668 40.2106 36.791 39.9225 36.6982 39.7613L36.5273 39.4684L36.5566 39.7516C36.5762 39.9078 36.6348 40.1324 36.6885 40.2545C36.7471 40.3766 36.7813 40.4889 36.7617 40.5035C36.7471 40.5182 36.7568 40.5621 36.7861 40.6012C36.8301 40.6451 36.8252 40.6647 36.7861 40.6647C36.6641 40.6647 36.4443 40.2106 36.3418 39.7467C36.2148 39.1949 36.1074 38.858 36.0488 38.858C36.0293 38.858 36.0293 38.9508 36.0488 39.0631ZM36.8643 40.3326C36.8496 40.3717 36.835 40.357 36.835 40.3033C36.8301 40.2496 36.8447 40.2203 36.8594 40.2399C36.874 40.2545 36.8789 40.2984 36.8643 40.3326Z" fill="white"/>
<path d="M39.4668 40.5427C39.4668 40.6209 39.5742 40.6892 39.6572 40.655C39.6816 40.6501 39.6475 40.6013 39.584 40.5525C39.4814 40.4744 39.4668 40.4744 39.4668 40.5427Z" fill="white"/>
<path d="M37.4258 40.7376C37.543 41.0257 37.9043 41.7142 37.875 41.5921C37.8213 41.3821 37.582 40.8597 37.4746 40.723L37.3672 40.5911L37.4258 40.7376Z" fill="white"/>
<path d="M37.7139 41.0256C37.748 41.0988 37.7871 41.1379 37.7969 41.1037C37.8115 41.0695 37.7822 41.0109 37.7334 40.967C37.6602 40.8889 37.6553 40.8937 37.7139 41.0256Z" fill="white"/>
<path d="M38.71 41.543C38.6953 41.5674 38.7051 41.5918 38.7295 41.5918C38.7588 41.5918 38.7832 41.5674 38.7832 41.543C38.7832 41.5137 38.7734 41.4941 38.7637 41.4941C38.749 41.4941 38.7246 41.5137 38.71 41.543Z" fill="white"/>
<path d="M37.7578 41.8799C37.7578 41.9581 37.9531 42.168 38.0508 42.1924C38.1924 42.2266 38.1729 42.1729 37.9873 41.9923C37.8262 41.836 37.7578 41.8018 37.7578 41.8799Z" fill="white"/>
<path d="M40.2969 42.251C40.2969 42.2852 40.5068 42.4707 40.5508 42.4707C40.5752 42.4707 40.5557 42.417 40.5117 42.3486C40.4434 42.2461 40.2969 42.1777 40.2969 42.251Z" fill="white"/>
<path d="M41.4053 42.4073C41.3516 42.4952 41.4199 42.6173 41.5713 42.6905C41.7617 42.7881 41.7764 42.7833 41.6494 42.6514C41.5908 42.588 41.5176 42.4952 41.4883 42.4464C41.4541 42.3878 41.4248 42.3731 41.4053 42.4073Z" fill="white"/>
<path d="M38.8809 42.5635C38.8809 42.6514 39.1689 42.9102 39.2666 42.9102C39.418 42.9102 39.3936 42.8369 39.1885 42.6709C39.0078 42.5195 38.8809 42.4756 38.8809 42.5635Z" fill="white"/>
<path d="M39.9111 42.6765C39.8477 42.8523 39.9111 43.0232 40.0771 43.1355C40.2432 43.2429 40.292 43.1843 40.1504 43.033C40.0918 42.9695 40.0527 42.8865 40.0674 42.8523C40.082 42.8132 40.0625 42.7302 40.0283 42.6619L39.9648 42.5447L39.9111 42.6765Z" fill="white"/>
<path d="M43.251 43.0029C43.2363 43.0274 43.2461 43.0615 43.2754 43.0811C43.2998 43.0957 43.3242 43.0762 43.3242 43.0371C43.3242 42.9492 43.2949 42.9346 43.251 43.0029Z" fill="white"/>
<path d="M42.9336 43.3496C42.9922 43.4668 43.0703 43.5449 43.1191 43.5449C43.1728 43.5449 43.1826 43.5303 43.1484 43.5059C43.1191 43.4863 43.0557 43.3984 43.0117 43.3105C42.9678 43.2275 42.9092 43.1543 42.8848 43.1543C42.8555 43.1543 42.8799 43.2422 42.9336 43.3496Z" fill="white"/>
<path d="M41.2344 43.4033C41.2441 43.4375 41.2832 43.4766 41.3174 43.4863C41.3564 43.501 41.376 43.4815 41.3613 43.4424C41.3516 43.4082 41.3125 43.3692 41.2783 43.3594C41.2393 43.3447 41.2197 43.3643 41.2344 43.4033Z" fill="white"/>
<path d="M43.4707 43.9313C43.4707 43.9558 43.5244 44.0095 43.5928 44.0534C43.7148 44.1315 43.7148 44.1315 43.6562 44.0095C43.6025 43.8923 43.4707 43.8386 43.4707 43.9313Z" fill="white"/>
<path d="M40.7607 43.9898C40.7363 44.0289 40.7803 44.1021 40.8779 44.19C41.1514 44.4342 41.2295 44.3463 40.9609 44.0875C40.8438 43.9703 40.7852 43.9459 40.7607 43.9898Z" fill="white"/>
<path d="M43.7734 44.0576C43.7881 44.1211 43.7783 44.1846 43.7588 44.1895C43.6807 44.2188 43.7734 44.4238 43.8662 44.4238C43.9736 44.4238 43.9932 44.2529 43.9004 44.0576C43.832 43.9014 43.7441 43.8965 43.7734 44.0576Z" fill="white"/>
<path d="M41.7129 44.0138C41.7129 44.0334 41.7861 44.1359 41.874 44.2482C41.9668 44.3605 42.0742 44.5119 42.1182 44.5949C42.1963 44.7414 42.1963 44.7414 42.2012 44.6193C42.2012 44.4777 42.0693 44.2629 41.8789 44.1017C41.7373 43.9797 41.7129 43.965 41.7129 44.0138Z" fill="white"/>
<path d="M42.2598 44.0433C42.2842 44.1165 42.3965 44.1556 42.3965 44.0921C42.3965 44.0677 42.3623 44.0286 42.3184 44.014C42.2695 43.9945 42.25 44.0091 42.2598 44.0433Z" fill="white"/>
<path d="M40.7803 44.6052C40.9707 44.8591 41.0049 44.8981 41.1123 44.9518C41.3125 45.0593 41.293 45.0104 41.0293 44.7419C40.7461 44.4587 40.6143 44.3854 40.7803 44.6052Z" fill="white"/>
<path d="M46.5469 51.0645C46.5469 51.0889 46.5811 51.1133 46.6201 51.1133C46.6592 51.1133 46.6934 51.0889 46.6934 51.0645C46.6934 51.0352 46.6592 51.0156 46.6201 51.0156C46.5811 51.0156 46.5469 51.0352 46.5469 51.0645Z" fill="white"/>
<path d="M32.1426 22.5C32.1426 22.5244 32.167 22.5488 32.1963 22.5488C32.2207 22.5488 32.2305 22.5244 32.2158 22.5C32.2012 22.4707 32.1768 22.4512 32.1621 22.4512C32.1523 22.4512 32.1426 22.4707 32.1426 22.5Z" fill="white"/>
<path d="M34.6035 23.8239C34.5889 23.8532 34.5938 23.8971 34.6133 23.9166C34.6719 23.9752 34.7988 23.8922 34.7598 23.8239C34.7158 23.7555 34.6475 23.7555 34.6035 23.8239Z" fill="white"/>
<path d="M35.8291 24.8931C35.79 24.9565 35.8486 25.0493 35.9072 25.0151C35.9658 24.9761 35.9658 24.8442 35.9072 24.8442C35.8779 24.8442 35.8437 24.8638 35.8291 24.8931Z" fill="white"/>
<path d="M36.083 26.0505C36.0732 26.0749 36.0488 26.1531 36.0293 26.2312C35.9951 26.363 36 26.3679 36.1367 26.3435C36.2539 26.3191 36.2832 26.3337 36.3271 26.4607C36.4004 26.6462 36.5322 26.6413 36.6738 26.4411C36.7764 26.2947 36.7764 26.28 36.6982 26.2214C36.625 26.1677 36.4834 26.1433 36.3027 26.1482C36.2539 26.1531 36.2539 26.1384 36.2978 26.0847C36.3418 26.031 36.332 26.0163 36.2295 26.0163C36.1611 26.0163 36.0928 26.031 36.083 26.0505Z" fill="white"/>
<path d="M37.1279 29.3805C37.0205 29.4684 36.9814 29.527 37.0156 29.5514C37.0498 29.5709 37.0742 29.5563 37.0742 29.5221C37.0742 29.4879 37.1279 29.4342 37.1963 29.4049C37.3086 29.3512 37.3135 29.3512 37.2354 29.4635C37.1523 29.5905 37.1768 29.61 37.3232 29.5319C37.4307 29.4733 37.4453 29.3707 37.3525 29.2975C37.3086 29.2584 37.25 29.2828 37.1279 29.3805Z" fill="white"/>
<path d="M36.4736 30.4249C36.4346 30.5226 36.5176 30.6251 36.6055 30.5909C36.7178 30.547 36.708 30.3614 36.5908 30.3614C36.542 30.3614 36.4883 30.3907 36.4736 30.4249Z" fill="white"/>
<path d="M37.2207 31.8702C37.2207 31.8897 37.167 31.963 37.1035 32.0264C37.0205 32.1094 36.9814 32.212 36.9668 32.3633L36.9521 32.5782L37.1475 32.6173C37.2988 32.6417 37.3867 32.627 37.5527 32.544C37.7578 32.4366 37.7969 32.3926 37.7139 32.3438C37.6895 32.3292 37.6797 32.2706 37.6943 32.2217C37.7383 32.0508 37.6016 32.0508 37.46 32.2217C37.3867 32.3145 37.3135 32.3731 37.2939 32.3585C37.2793 32.3389 37.3232 32.2608 37.3916 32.1778C37.499 32.0508 37.5088 32.0069 37.4648 31.9239C37.416 31.8311 37.2207 31.7823 37.2207 31.8702Z" fill="white"/>
<path d="M38.6953 32.5293C38.7002 32.5781 38.7344 32.6123 38.7588 32.6123C38.832 32.6074 38.8174 32.4951 38.7441 32.4707C38.7002 32.4561 38.6807 32.4805 38.6953 32.5293Z" fill="white"/>
<path d="M38.2217 33.7744C38.207 33.7988 38.2168 33.833 38.2461 33.8526C38.2705 33.8672 38.2949 33.8477 38.2949 33.8086C38.2949 33.7207 38.2656 33.7061 38.2217 33.7744Z" fill="white"/>
<path d="M51.293 45.2932C51.083 45.4104 50.9609 45.6008 51.0098 45.7277C51.0537 45.8352 51.1221 45.801 51.332 45.5471C51.5957 45.2346 51.5811 45.1369 51.293 45.2932Z" fill="white"/>
<path d="M52.9678 45.923C52.8896 45.962 52.7578 46.0597 52.6748 46.1329C52.499 46.2941 51.7227 46.714 51.4541 46.7921C51.3467 46.8263 51.2539 46.8849 51.2441 46.9337C51.2148 47.0802 51.4053 47.0167 51.874 46.7286C52.1279 46.5724 52.4893 46.3527 52.6748 46.2404C53.0947 45.9913 53.29 45.84 53.1875 45.8449C53.1484 45.8449 53.0508 45.879 52.9678 45.923Z" fill="white"/>
<path d="M22.626 47.3397C22.6504 47.4179 22.7285 47.5399 22.7969 47.623C22.9141 47.7646 22.9189 47.7646 22.8848 47.6474C22.8457 47.4862 22.6748 47.2079 22.6211 47.2079C22.5967 47.2079 22.5967 47.2665 22.626 47.3397Z" fill="white"/>
<path d="M20.9121 47.5781C20.9121 47.5928 20.9561 47.666 21.0098 47.7344C21.0684 47.8076 21.2002 47.9834 21.3076 48.1201C21.415 48.2617 21.5322 48.3789 21.5713 48.3789C21.6738 48.3789 21.6641 48.3398 21.5127 48.1396C21.21 47.7393 20.9121 47.4609 20.9121 47.5781Z" fill="white"/>
<path d="M26.1953 47.7933C26.1953 47.8616 26.2051 47.886 26.2197 47.8518C26.2295 47.8226 26.2295 47.764 26.2197 47.7298C26.2051 47.7005 26.1953 47.7249 26.1953 47.7933Z" fill="white"/>
<path d="M39.125 48.0859C39.125 48.1641 39.1494 48.2324 39.1738 48.2324C39.2031 48.2324 39.2227 48.1641 39.2227 48.0859C39.2227 48.0029 39.2031 47.9395 39.1738 47.9395C39.1494 47.9395 39.125 48.0029 39.125 48.0859Z" fill="white"/>
<path d="M25.375 49.3898C25.3945 49.6291 25.4336 49.8391 25.458 49.8635C25.5117 49.9221 25.5166 49.7609 25.4678 49.2922C25.4531 49.1115 25.4189 48.965 25.3896 48.965C25.3604 48.965 25.3555 49.1213 25.375 49.3898Z" fill="white"/>
<path d="M37.2207 49.1602C37.2207 49.2676 37.2451 49.3555 37.2695 49.3555C37.2988 49.3555 37.3184 49.2676 37.3184 49.1602C37.3184 49.0527 37.2988 48.9648 37.2695 48.9648C37.2451 48.9648 37.2207 49.0527 37.2207 49.1602Z" fill="white"/>
<path d="M39.208 49.083C39.1934 49.1172 39.1641 49.249 39.1494 49.376C39.1201 49.5615 39.1299 49.6055 39.1982 49.6299C39.335 49.6836 39.3789 49.581 39.3447 49.2881C39.3105 49.0244 39.2617 48.9463 39.208 49.083Z" fill="white"/>
<path d="M26.9228 49.1314C26.8838 49.1753 26.8691 49.2241 26.8887 49.2437C26.9326 49.2876 27.0303 49.1802 27.0059 49.1118C26.9961 49.0728 26.9668 49.0776 26.9228 49.1314Z" fill="white"/>
<path d="M22.9043 49.1367C22.8896 49.1513 22.8896 49.2197 22.9043 49.2881C22.9336 49.4394 23.0361 49.415 23.0361 49.2588C23.0361 49.1513 22.9629 49.083 22.9043 49.1367Z" fill="white"/>
<path d="M26.0293 49.1651C25.9072 49.2335 25.834 49.3897 25.8682 49.502C25.9121 49.6387 25.9756 49.6241 26.0635 49.4483C26.166 49.253 26.1465 49.0967 26.0293 49.1651Z" fill="white"/>
<path d="M21.5469 49.5025C21.9131 49.8443 22.0498 49.9176 22.1865 49.8443C22.3965 49.732 22.2354 49.5513 21.8106 49.4244C21.6836 49.3853 21.5274 49.3218 21.4639 49.2828C21.21 49.1119 21.2539 49.234 21.5469 49.5025Z" fill="white"/>
<path d="M20.5215 49.5808C20.4678 49.6394 20.4727 49.6687 20.5361 49.7371C20.6143 49.8103 20.6338 49.8103 20.834 49.7371C21.0293 49.6638 21.0537 49.6638 21.127 49.7371C21.1709 49.781 21.2051 49.7957 21.2051 49.7664C21.2051 49.6931 20.8438 49.5027 20.7021 49.5027C20.6387 49.5027 20.5557 49.5369 20.5215 49.5808Z" fill="white"/>
<path d="M52.1133 49.5508C52.1133 49.5996 52.3672 49.7461 52.4551 49.7461C52.4795 49.7461 52.5039 49.7217 52.5039 49.6973C52.5039 49.668 52.4746 49.6484 52.4355 49.6484C52.4014 49.6484 52.3428 49.6143 52.3086 49.5752C52.2402 49.4922 52.1133 49.4775 52.1133 49.5508Z" fill="white"/>
<path d="M37.25 49.6729C37.2354 49.7168 37.2207 49.8193 37.2207 49.8975C37.2207 50.0049 37.2451 50.0391 37.3184 50.0391C37.4453 50.0391 37.4941 49.917 37.4355 49.7559C37.3818 49.6045 37.2939 49.5654 37.25 49.6729Z" fill="white"/>
<path d="M53.4561 49.8344C53.1094 49.976 53.0166 50.0346 53.0166 50.1127C53.0166 50.1908 53.0557 50.2152 53.1875 50.225C53.3242 50.2348 53.3975 50.2006 53.5342 50.0785C53.6318 49.9906 53.7832 49.8588 53.876 49.7855C54.1055 49.6049 53.9785 49.6195 53.4561 49.8344Z" fill="white"/>
<path d="M18.3047 50.0732C18.2363 50.1416 18.2803 50.2832 18.3682 50.2832C18.4658 50.2832 18.5977 50.1562 18.5342 50.1221C18.4365 50.0732 18.3291 50.0488 18.3047 50.0732Z" fill="white"/>
<path d="M54.9258 50.5811C54.3643 50.874 53.7734 50.9082 52.2598 50.7275C51.7568 50.6641 50.3066 50.6055 50.3066 50.6445C50.3066 50.6641 50.3848 50.8301 50.4775 51.0156L50.6484 51.3574L51.0537 51.3672C51.2734 51.3721 51.5957 51.3721 51.7715 51.3623C51.9473 51.3574 52.0693 51.3672 52.0498 51.3867C52.0303 51.4062 51.7227 51.4355 51.3711 51.4502C50.7607 51.4795 50.7314 51.4844 50.8145 51.5625C50.8828 51.6309 50.9854 51.6504 51.3223 51.6504C51.6787 51.6504 51.8252 51.6797 52.2354 51.8213C52.8359 52.0264 52.8896 52.0312 52.5771 51.8408L52.333 51.6943L52.626 51.7139C53.2021 51.7627 54.1445 51.8994 54.3545 51.9678C54.6475 52.0654 55.1211 52.0654 55.1602 51.9678C55.1797 51.9092 55.1553 51.8994 54.999 51.9238C54.8623 51.9434 54.7256 51.9238 54.5254 51.8457C54.3105 51.7676 54.0957 51.7334 53.7002 51.7139C53.4072 51.7041 53.0312 51.6602 52.8701 51.626C52.709 51.5869 52.5234 51.5479 52.4551 51.5332C52.3867 51.5234 52.499 51.5137 52.6992 51.5088C53.2754 51.4941 53.5781 51.4697 53.9199 51.4111C54.3203 51.3379 54.999 51.2646 55.502 51.2305C55.7168 51.2207 56.0146 51.1719 56.1611 51.1279C56.4639 51.04 56.7129 51.0352 57.3525 51.084C57.6113 51.1084 57.7773 51.1035 57.7773 51.0742C57.7773 51.001 57.1426 50.918 56.5859 50.918C56.1318 50.918 56.0732 50.9082 56.1025 50.8398C56.127 50.7715 56.1025 50.7617 55.9414 50.7861C55.4141 50.8691 55.1748 50.8838 55.209 50.8301C55.2285 50.8008 55.3164 50.7617 55.4092 50.7422C55.5703 50.7129 55.6484 50.625 55.5215 50.625C55.4775 50.625 55.4824 50.6104 55.5312 50.5762C55.624 50.5176 55.5801 50.4785 55.3799 50.4541C55.2578 50.4346 55.1357 50.4688 54.9258 50.5811Z" fill="white"/>
<path d="M23.4316 51.7433C23.4121 51.7775 23.4072 51.8165 23.4219 51.8312C23.4658 51.8751 23.5147 51.8116 23.4902 51.7433C23.4707 51.6896 23.4609 51.6896 23.4316 51.7433Z" fill="white"/>
<path d="M48.0117 51.8702C48.0117 51.9141 48.0361 51.9434 48.0654 51.9337C48.0947 51.9239 48.1191 51.8946 48.1191 51.8702C48.1191 51.8458 48.0947 51.8165 48.0654 51.8067C48.0361 51.7969 48.0117 51.8262 48.0117 51.8702Z" fill="white"/>
<path d="M49.0859 51.8954C49.0859 51.9247 49.1494 52.0175 49.2324 52.1005C49.4521 52.3153 49.6816 52.2275 49.4912 52.0028C49.3887 51.8808 49.0859 51.7978 49.0859 51.8954Z" fill="white"/>
<path d="M51.2148 51.9336C51.1709 52.002 51.3174 52.1045 51.4102 52.0704C51.4492 52.0557 51.4785 52.0118 51.4688 51.9776C51.4395 51.9043 51.2539 51.8702 51.2148 51.9336Z" fill="white"/>
<path d="M28.1631 52.0857C28.1143 52.1736 28.2461 52.198 28.3242 52.1199C28.3975 52.0467 28.3975 52.0418 28.2998 52.0418C28.2412 52.0418 28.1826 52.0613 28.1631 52.0857Z" fill="white"/>
<path d="M46.6006 52.3737C46.3955 52.7155 46.3516 52.8473 46.4639 52.8131C46.5225 52.7936 46.9375 52.1539 46.9375 52.0807C46.9375 52.0612 46.9082 52.0416 46.8691 52.0416C46.835 52.0416 46.7129 52.193 46.6006 52.3737Z" fill="white"/>
<path d="M52.0156 52.2121C52.0156 52.3049 52.2939 52.4465 52.3965 52.4074C52.4697 52.3781 52.46 52.3586 52.3428 52.256C52.1914 52.1242 52.0156 52.0998 52.0156 52.2121Z" fill="white"/>
<path d="M22.3525 53.0519C22.2939 53.1056 22.2891 53.1446 22.3281 53.1837C22.3818 53.2374 22.5283 53.1788 22.5576 53.0812C22.5869 52.9933 22.4307 52.9689 22.3525 53.0519Z" fill="white"/>
<path d="M23.6953 53.0767C23.5488 53.1304 23.1094 53.5503 23.1094 53.6382C23.1094 53.8091 23.5146 53.5552 23.7246 53.2573C23.876 53.0376 23.8711 53.0083 23.6953 53.0767Z" fill="white"/>
<path d="M24.5498 53.3105C24.5352 53.335 24.5547 53.3594 24.5937 53.3594C24.6328 53.3594 24.6816 53.335 24.6963 53.3105C24.7109 53.2812 24.6914 53.2617 24.6523 53.2617C24.6133 53.2617 24.5644 53.2812 24.5498 53.3105Z" fill="white"/>
</g>
<defs>
<clipPath id="clip0_647_1099">
<rect width="70" height="70" fill="white"/>
</clipPath>
</defs>
</svg>
