<svg width="247" height="46" viewBox="0 0 247 46" fill="none" xmlns="http://www.w3.org/2000/svg">
<path d="M42.3449 0.835453C41.7989 1.29495 41.3523 1.838 41.3523 2.08863C41.3523 2.71523 43.2382 4.17727 44.0819 4.17727C44.479 4.17727 44.8264 4.34436 44.8264 4.595C44.8264 4.97095 50.8316 6.64186 52.5687 6.72541C53.065 6.76718 52.6183 6.93427 51.5264 7.18491C50.3353 7.43554 45.9679 7.47731 40.6078 7.26845C31.0292 6.97604 23.0388 7.01781 20.9544 7.352C19.8625 7.51909 19.5647 7.85327 19.4158 9.10645C19.118 11.1533 19.3662 11.6546 20.9544 11.947C21.6492 12.1141 22.4929 12.49 22.8403 12.8242C23.4359 13.4926 27.2077 13.9103 36.5382 14.4116C39.6649 14.5787 41.8486 14.8711 41.7493 15.1217C41.6501 15.3306 38.4241 15.623 34.4041 15.7065C30.4337 15.8319 26.3144 16.0825 25.2225 16.2914C24.1307 16.5002 22.3936 16.7091 21.401 16.7091C19.0188 16.7091 18.6714 17.2521 20.3092 18.3382C21.0536 18.8395 21.5003 19.3408 21.3514 19.5079C21.1529 19.6332 16.4877 19.7167 10.9787 19.675C5.42017 19.675 0.606057 19.8003 0.308277 19.9674C-0.634693 20.4686 0.754947 21.8889 2.19422 21.9307C2.83941 21.9725 4.08016 22.3066 4.87424 22.6408C5.86684 23.1003 8.24907 23.351 12.2195 23.4763C17.778 23.6434 18.1254 23.7269 19.4158 24.7712C20.7062 25.8573 20.7062 25.8991 19.664 25.8991C19.0684 25.8991 18.2743 26.2333 17.9269 26.6092C17.4803 27.1105 16.4877 27.4029 14.8995 27.4447C13.5595 27.5282 12.021 27.7789 11.4254 28.0713C10.3832 28.5308 10.4824 28.6143 12.815 29.2409C14.2047 29.5751 15.8425 30.1599 16.5373 30.4941C17.2321 30.8283 18.2247 31.1207 18.7706 31.2042C19.3166 31.246 21.947 31.5802 24.5773 31.9144C27.2574 32.2903 30.4337 32.5827 31.6744 32.5827C33.1137 32.5827 33.8582 32.7498 33.6596 33.0005C33.5107 33.2511 32.8159 33.2929 32.1211 33.1675C31.4263 33.0005 30.5826 33.1258 30.0863 33.46C29.5403 33.8777 27.2077 34.1283 22.5425 34.2536C18.4729 34.379 15.8425 34.6296 15.8425 34.8802C15.9914 35.6739 18.324 36.8018 20.2595 37.0106C25.0736 37.5537 25.6692 37.679 24.9744 38.0132C24.627 38.1803 20.5077 38.2638 15.8425 38.1385C10.8298 38.055 7.05796 38.1385 6.66092 38.3474C5.71795 38.9322 6.41277 39.6841 7.9513 39.6841C8.64612 39.6841 10.3335 39.9765 11.7232 40.3107C14.4032 40.9373 42.9404 41.8563 58.4746 41.8563H65.9191L59.7154 42.3993C56.2909 42.6917 51.0798 43.1512 48.102 43.4436C45.0745 43.6943 41.3026 43.8614 39.6649 43.8196C37.9774 43.7778 32.5181 43.9449 27.4559 44.1955C22.3936 44.4462 17.9269 44.6133 17.5299 44.6133C17.1328 44.6133 14.5521 44.7386 11.8224 44.9057C5.07276 45.3234 7.00832 45.8665 15.5447 45.95C26.8603 46.0753 44.2804 45.95 50.2857 45.7411C55.1494 45.574 65.2739 45.3234 84.5304 44.9057C91.4289 44.7386 114.805 43.9031 118.279 43.6525C120.065 43.5272 123.837 43.3183 126.716 43.193C133.267 42.9424 166.072 41.1044 174.361 40.5195C177.785 40.2689 187.612 39.7259 196.198 39.2664C204.784 38.8069 215.057 38.222 218.978 37.9714C222.948 37.7208 228.209 37.5955 230.641 37.7625C234.76 37.9714 235.406 37.8879 238.334 36.8435C240.12 36.217 241.609 35.5068 241.709 35.298C241.808 35.0473 240.964 34.4207 239.872 33.8359C238.78 33.2511 237.887 32.6663 237.887 32.4992C237.887 32.3739 238.731 31.9979 239.773 31.7055C242.453 30.9954 242.503 30.9536 241.56 29.7422C240.766 28.7396 240.766 28.6561 241.659 28.113C242.155 27.8206 242.701 27.57 242.949 27.57C243.148 27.57 243.346 27.1523 243.346 26.6092C243.346 25.8991 242.949 25.5649 241.758 25.2725C239.922 24.813 239.773 24.0611 241.46 23.894C243.992 23.6434 244.835 23.351 245.381 22.4737C245.877 21.7218 245.778 21.4712 245.034 21.0117C244.14 20.4269 244.14 20.3851 245.232 19.7167C246.87 18.6724 246.225 17.7952 242.602 16.0825C239.525 14.6205 239.475 14.6205 236.1 15.0382C234.214 15.247 231.435 15.623 229.946 15.8736C226.671 16.4167 201.558 16.5002 199.424 15.9572C198.233 15.6648 199.275 15.4977 204.387 15.08C207.96 14.8293 212.427 14.4951 214.313 14.4116C216.248 14.2863 220.268 14.0356 223.246 13.8268C226.274 13.6179 231.286 13.4926 234.413 13.5344C238.383 13.6179 240.517 13.4926 241.361 13.1166C242.056 12.8242 243.545 12.3647 244.686 12.1141C247.515 11.5293 247.714 11.028 245.48 10.2343C244.438 9.85836 242.751 8.81404 241.758 7.89504C240.517 6.76718 239.624 6.26591 239.029 6.39122C238.532 6.51654 234.214 6.72541 229.45 6.8925C224.685 7.05959 218.333 7.39377 215.305 7.68618C211.534 8.06213 198.779 8.22923 174.113 8.22923C142.449 8.271 138.577 8.22923 140.066 7.68618C141.307 7.22668 144.732 7.01781 152.97 6.8925C159.124 6.76718 169.348 6.47477 175.601 6.26591C195.305 5.55577 207.811 5.22159 209.499 5.3469C210.442 5.43045 211.484 5.26336 211.881 4.97095C212.228 4.72031 212.923 4.595 213.32 4.76209C214.164 5.01272 215.554 4.67854 215.554 4.17727C215.554 4.01018 214.66 3.75954 213.618 3.59245C212.526 3.46713 211.583 3.17472 211.484 2.92409C211.434 2.71523 209.896 2.38104 208.109 2.25573C206.322 2.08863 204.387 1.71268 203.791 1.3785C202.848 0.835453 202.55 0.877224 201.508 1.46204C200.565 1.96332 199.87 2.04686 198.382 1.75445C196.148 1.33673 170.986 1.58736 169.894 2.04686C168.802 2.50636 157.933 2.17218 156.395 1.62914C155.65 1.3785 154.707 1.25318 154.31 1.3785C153.913 1.50382 139.57 1.75445 122.398 1.87977C91.0319 2.17218 80.957 2.00509 55.745 0.626591C49.5909 0.292408 44.2804 0 43.9827 0C43.6353 0 42.8908 0.375954 42.3449 0.835453ZM185.428 34.9638C184.237 35.0473 182.351 35.0473 181.21 34.9638C180.018 34.8802 180.961 34.7967 183.294 34.7967C185.627 34.7967 186.57 34.8802 185.428 34.9638ZM121.604 39.517C121.455 39.6423 121.008 39.6841 120.661 39.5588C120.264 39.4335 120.413 39.3081 120.959 39.3081C121.505 39.2664 121.802 39.3917 121.604 39.517ZM110.884 39.9765C112.125 40.1854 112.323 40.3107 111.628 40.5195C110.437 40.8537 107.311 40.5195 107.658 40.06C107.956 39.6005 108.651 39.6005 110.884 39.9765ZM69.7903 41.6474C69.4429 41.731 68.8473 41.731 68.5495 41.6474C68.2021 41.5221 68.4503 41.4385 69.1451 41.4385C69.8399 41.4385 70.088 41.5221 69.7903 41.6474ZM76.7385 41.6474C75.8451 41.731 74.3562 41.731 73.5125 41.6474C72.6192 41.5639 73.314 41.4803 75.1007 41.4803C76.8874 41.4803 77.5822 41.5639 76.7385 41.6474ZM86.0193 41.5221C86.0193 41.898 83.5378 42.0234 82.9422 41.731C82.5452 41.4803 82.9918 41.355 84.183 41.355C85.1756 41.355 86.0193 41.4385 86.0193 41.5221ZM92.6201 41.6474C91.9749 41.731 90.9823 41.731 90.3867 41.6474C89.7415 41.5639 90.2378 41.4803 91.4786 41.4803C92.7193 41.4803 93.2156 41.5639 92.6201 41.6474Z" fill="black"/>
</svg>
