<svg width="156" height="31" viewBox="0 0 156 31" fill="none" xmlns="http://www.w3.org/2000/svg">
<path d="M77.7308 0.0572739C77.637 0.102131 77.4184 0.120073 77.2622 0.0931587C77.106 0.0572739 76.8873 0.102131 76.7936 0.173903C76.6999 0.254646 76.3562 0.317448 76.0438 0.317448C75.7314 0.317448 75.3253 0.380247 75.1066 0.452019C74.6693 0.604536 73.2323 0.640421 73.2323 0.496878C73.2323 0.443048 72.4513 0.407162 71.5141 0.407162C70.5769 0.407162 69.7959 0.443048 69.7959 0.487906C69.7959 0.649393 68.5463 0.649393 67.8903 0.487906C67.0468 0.272589 66.7032 0.272589 66.422 0.469963C66.2971 0.559677 66.0784 0.631451 65.891 0.631451C65.7348 0.631451 64.9225 0.712193 64.1103 0.801908C62.7045 0.963396 62.5483 0.963396 61.0176 0.819851C59.7055 0.69425 59.3619 0.685278 59.1432 0.783966C58.9245 0.87368 58.7996 0.87368 58.4872 0.783966C58.2998 0.730137 57.8312 0.676308 57.4563 0.676308C57.0814 0.676308 56.6441 0.631451 56.4566 0.577621C56.2067 0.505848 56.0505 0.505848 55.9256 0.577621C55.8006 0.631451 55.1446 0.676308 54.4261 0.676308C53.4264 0.676308 53.2077 0.703222 53.3639 0.810881C53.4576 0.891623 53.3327 0.972366 53.0515 1.00825C52.4892 1.07105 48.3656 0.712193 48.0844 0.586592C47.7408 0.434076 46.5224 0.487906 46.1163 0.676308C45.6477 0.900595 44.4919 0.918537 44.4919 0.69425C44.4919 0.613506 43.992 0.452019 43.3985 0.33539C42.8049 0.227732 42.3051 0.173903 42.3051 0.227732C42.3051 0.344362 40.8368 0.344362 40.5869 0.227732C40.337 0.111103 39.3061 0.263618 38.4314 0.559677C37.8066 0.766022 37.6817 0.766022 36.1509 0.676308C35.245 0.622478 33.683 0.595564 32.6521 0.613506C31.5899 0.640421 30.7465 0.622478 30.7465 0.577621C30.7465 0.452019 29.6218 0.478933 29.2157 0.622478C28.9971 0.69425 28.5909 0.739107 28.3098 0.721165C28.0286 0.703222 27.5913 0.685278 27.4038 0.685278C27.1852 0.676308 26.9977 0.613506 26.9977 0.532763C26.9977 0.407162 26.779 0.389219 25.7481 0.434076C25.0609 0.460991 24.4986 0.443048 24.4986 0.398191C24.4986 0.344362 24.2174 0.353333 23.8425 0.407162C23.4989 0.469963 22.8741 0.487906 22.468 0.460991C21.9369 0.425104 21.5933 0.460991 21.2809 0.595564C20.9685 0.712193 20.7498 0.748079 20.5936 0.685278C20.4999 0.631451 20.25 0.604536 20.0938 0.640421C19.9376 0.667336 19.5939 0.640421 19.344 0.586592C18.7817 0.452019 17.0011 0.739107 15.689 1.1518C15.0642 1.35814 14.7518 1.403 14.4394 1.33123C13.9083 1.20563 11.5966 1.24151 11.4404 1.37609C11.3779 1.43888 11.1905 1.48374 11.0031 1.48374C10.597 1.48374 10.0034 1.67214 9.72225 1.86952C9.59729 1.95923 9.37861 2.00409 9.19117 1.97718C9.03498 1.95026 8.53514 2.02203 8.12903 2.14763C7.72292 2.27324 7.28556 2.38089 7.12936 2.38089C6.97317 2.38089 6.66077 2.51547 6.41085 2.66798C6.16094 2.82947 5.8173 2.99096 5.62987 3.02684C5.44243 3.06273 5.47367 3.1345 5.72358 3.22421C6.16094 3.37673 5.9735 3.41262 4.75516 3.37673C4.44276 3.36776 4.19285 3.40364 4.19285 3.4485C4.19285 3.50233 4.00541 3.54719 3.75549 3.54719C3.50558 3.54719 3.22442 3.61896 3.1307 3.69971C2.94326 3.83428 3.25566 3.94194 4.03665 4.02268C4.474 4.06754 4.38028 4.7404 3.94293 4.78526C3.66177 4.81217 3.63053 4.85703 3.84921 4.91983C4.59896 5.18897 4.00541 5.79007 2.9745 5.79007C2.63087 5.79007 2.63087 5.81698 2.9745 5.93361C3.59929 6.14893 3.50558 6.51676 2.72459 6.83973C1.84988 7.18962 1.81864 7.31522 2.59963 7.31522C3.00574 7.31522 3.25566 7.39597 3.41186 7.5754C3.53681 7.75483 3.81797 7.85351 4.28656 7.87146C4.84888 7.8894 4.97383 7.96117 5.00507 8.21237C5.00507 8.38283 5.09879 8.64301 5.22375 8.77758C5.56739 9.13644 5.19251 9.64781 4.6302 9.58501C4.16161 9.53119 4.13037 9.58501 4.13037 10.527C4.13037 10.8321 4.00541 11.1102 3.84921 11.1371C3.72425 11.155 3.66177 11.4511 3.75549 11.783C3.97417 12.4469 3.97417 13.0929 3.81797 13.8913C3.75549 14.1784 3.81797 14.4386 3.94293 14.4565C4.44276 14.5463 5.16127 15.1115 5.22375 15.4883C5.28623 15.7036 5.47367 15.9638 5.6611 16.0535C6.03598 16.2508 5.84854 16.4841 4.81764 17.139C4.19285 17.5338 3.91169 18.0541 4.22408 18.3053C4.38028 18.4578 3.84921 19.0141 3.34938 19.1666C3.09946 19.2563 2.81831 19.5434 2.72459 19.8215C2.56839 20.2701 2.59963 20.3239 3.1307 20.3239C3.91169 20.3239 4.72392 20.6738 4.16161 20.7725C3.88045 20.8263 3.91169 20.925 4.3178 21.2211C4.72392 21.5171 4.75516 21.6248 4.474 21.7235C4.25532 21.7952 4.19285 21.876 4.28656 21.9119C4.41152 21.9388 4.3178 22.0464 4.16161 22.1451C3.91169 22.2707 3.91169 22.3425 4.19285 22.3874C4.75516 22.486 4.3178 22.9346 3.72425 22.8718C3.34938 22.827 3.2869 22.8898 3.4431 23.2307C3.59929 23.5088 3.53681 23.6434 3.2869 23.6434C3.09946 23.6434 2.94326 23.6882 2.94326 23.7331C2.94326 23.7869 2.44343 23.9574 1.84988 24.1189C0.881452 24.3701 0.756494 24.4598 0.756494 24.8366C0.756494 25.0698 0.537817 25.3569 0.287901 25.4736C-0.180692 25.6799 -0.0557342 25.976 0.506578 25.976C0.662776 25.976 0.694015 26.0118 0.600296 26.0657C0.506578 26.1105 0.694015 26.1554 1.00641 26.1554C1.75616 26.1554 2.19351 26.4245 1.6312 26.5322C1.31881 26.586 1.35005 26.604 1.69368 26.604C1.97484 26.604 2.53715 26.7206 2.94326 26.8731C3.38062 27.0167 3.91169 27.1333 4.09913 27.1423C4.50524 27.1423 4.66144 27.2858 4.97383 27.9497C5.19251 28.4341 5.62987 28.6764 6.00474 28.5149C6.25466 28.3983 8.28523 28.4252 9.90968 28.5687C10.472 28.6136 11.4717 28.6495 12.1589 28.6315C13.3148 28.6226 16.1264 28.8648 16.8449 29.0442C17.0323 29.0891 17.1573 29.1698 17.1573 29.2326C17.1573 29.3672 19.5002 29.3941 19.5315 29.2595C19.5627 29.2057 19.5627 29.0891 19.5315 29.0083C19.4377 28.8199 20.3749 28.793 20.6249 28.9724C20.7498 29.0711 20.9997 29.0711 22.0619 28.9635C22.7804 28.8917 23.6863 28.8558 24.0924 28.8917C24.4986 28.9186 24.811 28.9007 24.811 28.8558C24.811 28.6854 25.7169 28.8648 25.8106 29.0442C25.8731 29.1519 26.1855 29.2775 26.5291 29.3313C26.8728 29.3851 27.2476 29.4659 27.3414 29.5107C27.4663 29.5556 27.8099 29.5646 28.1223 29.5287C28.4347 29.4928 28.7784 29.5197 28.9346 29.5825C29.122 29.6722 29.3407 29.6453 29.778 29.4838C30.1842 29.3223 30.5278 29.2864 31.0589 29.3223C31.5275 29.3582 31.9023 29.3313 32.121 29.2416C32.4334 29.1339 32.6208 29.1339 33.6517 29.2864C34.8076 29.4569 34.8701 29.4569 35.4324 29.2954C36.0572 29.116 37.6192 29.1519 37.6192 29.3492C37.6192 29.421 37.9316 29.4748 38.4002 29.4748C38.9 29.4748 39.1811 29.5287 39.1811 29.6094C39.1811 29.7888 39.556 29.7799 41.0555 29.5556C42.0552 29.4031 42.4925 29.3851 43.0236 29.4569C43.3985 29.5018 44.0233 29.5466 44.3982 29.5466C44.9605 29.5556 45.0854 29.4928 45.1791 29.2236L45.2729 28.8917L46.3975 29.2416C47.4909 29.5735 47.5846 29.5825 48.2406 29.4479C48.6155 29.3762 49.0841 29.3223 49.3028 29.3403C50.8647 29.4748 51.3021 29.4659 51.4583 29.2954C51.6145 29.107 52.3018 29.0442 52.3018 29.2147C52.3018 29.2864 52.4267 29.2864 52.7704 29.2057C53.114 29.125 53.3951 29.1429 54.2074 29.3044C54.9884 29.4659 55.3008 29.4838 55.7694 29.4031C56.0817 29.3492 56.3941 29.3313 56.4879 29.3762C56.5816 29.412 57.1127 29.4569 57.675 29.4659C60.5802 29.5287 60.5802 29.5287 60.674 29.3134C60.7364 29.2057 60.9551 29.116 61.205 29.116C61.4237 29.116 61.6736 29.0711 61.7361 29.0083C61.8923 28.8738 64.7976 29.0891 64.7976 29.2416C64.7976 29.4031 66.0472 29.5915 66.4845 29.4838C67.0468 29.3492 69.4835 29.2057 69.4835 29.3134C69.4835 29.3672 69.7334 29.3762 70.0458 29.3403C70.7331 29.2595 71.6078 29.2057 72.7012 29.1519C73.2635 29.1339 73.5447 29.1608 73.5447 29.2506C73.5447 29.3134 73.8258 29.4031 74.1694 29.43C74.5131 29.4569 74.7942 29.5287 74.7942 29.5825C74.7942 29.6363 75.0754 29.6543 75.419 29.6274C75.8876 29.5915 76.1688 29.6543 76.5437 29.8875C77.0747 30.2015 77.5433 30.2643 78.1369 30.0939C78.2931 30.049 79.2615 29.9952 80.2299 29.9862C82.0106 29.9683 82.0106 29.9683 81.8856 29.7171C81.7294 29.412 82.198 29.3134 82.7291 29.5287C83.4788 29.8247 89.8205 29.5376 90.3515 29.1788C90.5702 29.0532 91.1325 29.116 91.8823 29.3492C92.4446 29.5287 92.7257 29.5646 93.0069 29.4838C93.413 29.3672 94.4752 29.3492 94.4752 29.4569C94.4752 29.5556 97.1618 29.735 97.5366 29.6632C97.6928 29.6363 97.8803 29.5287 97.9427 29.43C98.0989 29.2057 99.3485 29.1788 99.2236 29.4031C99.1923 29.4838 99.411 29.5735 99.7859 29.6094C100.13 29.6363 100.411 29.7081 100.411 29.753C100.411 29.8875 101.535 29.8427 101.973 29.6991C102.535 29.5018 103.066 29.5287 104.534 29.8337C105.253 29.9862 106.003 30.0939 106.221 30.067C106.44 30.04 106.846 30.1028 107.158 30.2015C107.814 30.4169 108.189 30.4169 108.72 30.2105C109.064 30.0849 109.22 30.0759 109.689 30.1746C110.001 30.2374 110.626 30.3271 111.063 30.381C111.532 30.4348 111.969 30.5425 112.063 30.6322C112.282 30.8744 114.156 30.9372 114.781 30.7309C115.031 30.6501 115.499 30.5514 115.781 30.5245C116.093 30.4886 116.249 30.4169 116.155 30.3361C115.749 30.0311 118.904 29.8965 121.247 30.1118C121.81 30.1656 122.435 30.1746 122.653 30.1387C123.403 30.0042 124.278 30.04 125.059 30.2554C126.027 30.5066 126.34 30.5155 126.558 30.2823C126.746 30.0849 126.808 30.0849 127.745 30.1836C128.089 30.2285 128.62 30.2195 128.964 30.1746C129.401 30.1028 129.745 30.1298 130.432 30.2733C130.9 30.381 131.463 30.4617 131.619 30.4617C132.244 30.4617 133.525 30.677 133.525 30.7757C133.525 30.8475 133.837 30.8654 134.306 30.8385C134.774 30.8206 135.087 30.8385 135.087 30.9013C135.087 30.9551 135.43 31 135.868 31C136.305 31 136.649 30.9551 136.649 30.9013C136.649 30.8385 136.961 30.8206 137.461 30.8565C138.148 30.9103 138.242 30.8923 138.086 30.7667C137.929 30.6501 138.054 30.6322 138.742 30.6681C139.741 30.7219 142.584 30.4797 142.584 30.3361C142.584 30.1836 144.021 29.744 144.49 29.744C144.802 29.744 145.114 29.5376 145.396 29.1339C145.833 28.5777 145.927 28.5328 146.739 28.5059C147.208 28.488 147.52 28.4431 147.426 28.3983C147.332 28.3534 147.582 28.2457 148.02 28.156C148.426 28.0663 148.832 27.8959 148.957 27.7882C149.176 27.6088 149.301 27.5819 149.925 27.5908C150.331 27.5998 151.112 27.2948 151.144 27.1153C151.175 26.9897 151.362 26.918 151.737 26.9269C152.018 26.9359 152.268 26.918 152.268 26.8821C152.268 26.8552 152.393 26.595 152.581 26.3079C152.862 25.8145 152.831 25.7696 151.987 25.4377C151.394 25.1954 151.05 24.9263 150.894 24.5674C150.769 24.2893 150.456 23.9843 150.175 23.8946C149.457 23.6703 149.426 22.8539 150.144 22.7103C150.581 22.6206 150.644 22.4502 150.55 21.553C150.456 20.7815 150.55 20.4764 150.831 20.3867C151.081 20.3239 151.175 20.1534 151.081 19.983C151.019 19.8036 151.081 19.6959 151.3 19.6959C151.737 19.6959 151.737 19.364 151.3 19.2922C151.112 19.2563 151.05 19.0589 151.144 18.8257C151.269 18.4219 150.894 18.1707 150.113 18.1707C149.644 18.1707 149.675 17.8567 150.175 17.7401C150.363 17.6953 150.894 17.6325 151.331 17.6145C151.862 17.5966 152.112 17.5338 152.112 17.3992C152.112 17.3005 152.362 17.148 152.674 17.0493C153.049 16.9416 153.143 16.8609 152.924 16.7981C152.706 16.7353 152.737 16.6187 152.987 16.4303C153.487 16.0714 153.33 15.7664 152.549 15.6318C151.862 15.5062 151.769 15.3896 152.393 15.3896C152.831 15.3896 152.831 15.3627 152.393 14.3848C152.237 14.0349 152.3 13.9272 152.862 13.7209C153.237 13.5773 153.424 13.4428 153.268 13.38C152.862 13.2274 152.862 12.8596 153.268 12.725C153.455 12.6533 153.518 12.5815 153.424 12.5456C153.299 12.5187 153.362 12.42 153.518 12.3393C153.737 12.2226 153.705 12.1598 153.393 12.1329C152.706 12.0522 152.581 11.6305 153.206 11.5318C153.955 11.4152 154.736 10.4283 154.143 10.3207C153.955 10.2938 153.83 10.1682 153.83 10.0426C153.83 9.90799 153.643 9.82724 153.362 9.82724C153.112 9.82724 152.893 9.77341 152.893 9.70164C152.893 9.62987 152.487 9.54913 151.956 9.51324C151.3 9.46838 151.019 9.39661 151.019 9.27998C151.019 9.1813 151.144 9.12747 151.331 9.15438C151.487 9.1813 151.706 9.10055 151.831 8.96598C151.956 8.82244 151.893 8.7058 151.675 8.66992C151.394 8.61609 151.425 8.53535 151.8 8.33797C152.05 8.19443 152.268 7.97911 152.268 7.85351C152.268 7.72791 152.487 7.55745 152.706 7.46774C153.018 7.35111 153.112 7.10888 153.018 6.58853C152.956 6.19378 153.018 5.87978 153.174 5.87978C153.33 5.87978 153.393 5.71829 153.299 5.52092C153.174 5.2428 153.237 5.15309 153.643 5.10823C153.893 5.08132 154.424 4.88394 154.799 4.66863C155.361 4.35463 155.392 4.25594 155.08 4.08548C154.768 3.91502 154.799 3.87016 155.361 3.75353C156.111 3.60102 156.236 3.29599 155.548 3.22421C155.174 3.17936 155.111 3.08964 155.267 2.86535C155.392 2.66798 155.33 2.56032 155.111 2.56032C154.924 2.56032 154.486 2.47958 154.143 2.38089C153.549 2.21043 153.455 2.21043 152.799 2.33604C152.425 2.40781 152.018 2.47061 151.893 2.47061C151.425 2.47061 151.644 2.23735 152.268 2.08483C153.518 1.7798 152.706 1.04414 151.269 1.16974C150.956 1.20563 150.456 1.17871 150.207 1.11591C149.957 1.06208 149.269 0.999281 148.645 0.981339C147.489 0.954424 145.864 0.568649 145.864 0.326418C145.864 0.245674 145.333 0.191845 144.24 0.164932C142.772 0.129045 142.584 0.146988 142.584 0.308475C142.584 0.541735 141.022 0.649393 140.022 0.469963C139.554 0.389219 138.585 0.344362 137.273 0.362305C136.149 0.371277 135.024 0.344362 134.743 0.308475C134.462 0.263618 133.556 0.209789 132.712 0.173903C131.869 0.146988 131.057 0.102131 130.9 0.0752163C130.776 0.0483017 130.526 0.0752163 130.401 0.138018C130.276 0.200817 129.838 0.263618 129.432 0.281561C127.745 0.353333 126.808 0.443048 126.589 0.532763C126.402 0.604536 126.34 0.604536 126.34 0.532763C126.34 0.362305 125.121 0.317448 124.809 0.469963C124.59 0.586592 124.465 0.586592 123.59 0.460991C122.934 0.362305 122.56 0.344362 122.403 0.416134C122.31 0.469963 121.779 0.496878 121.279 0.478933C120.779 0.452019 120.31 0.460991 120.248 0.496878C120.154 0.532763 119.498 0.523792 118.78 0.478933C116.437 0.33539 113.844 0.299503 113.844 0.407162C113.844 0.478933 113.5 0.487906 112.875 0.452019C112.157 0.407162 111.813 0.425104 111.532 0.541735C111.22 0.667336 111.001 0.676308 110.501 0.604536C110.157 0.550707 109.783 0.523792 109.689 0.559677C109.564 0.586592 109.283 0.559677 109.033 0.505848C108.783 0.443048 108.439 0.416134 108.283 0.443048C108.096 0.469963 107.814 0.434076 107.596 0.362305C107.158 0.209789 106.346 0.182875 106.346 0.317448C106.346 0.443048 105.19 0.425104 105.003 0.290533C104.878 0.21876 104.534 0.281561 103.941 0.469963C102.941 0.774994 101.41 0.882652 100.661 0.69425C100.379 0.631451 99.9421 0.613506 99.6609 0.640421C99.3485 0.676308 98.8799 0.631451 98.5051 0.532763C97.849 0.362305 96.3495 0.254646 96.3495 0.389219C96.3495 0.425104 95.8497 0.51482 95.2561 0.577621C94.2565 0.676308 94.1003 0.667336 93.3193 0.460991C92.4134 0.21876 91.976 0.173903 91.976 0.317448C91.976 0.362305 91.7886 0.407162 91.5699 0.407162C91.3512 0.407162 90.6952 0.478933 90.1016 0.577621C89.4144 0.676308 88.6021 0.730137 87.9149 0.703222C86.2279 0.649393 84.1661 0.478933 84.1661 0.407162C84.1661 0.308475 82.9165 0.407162 82.1355 0.559677C81.2296 0.739107 80.761 0.703222 80.8235 0.460991C80.8547 0.33539 80.761 0.236704 80.6048 0.236704C80.4486 0.245674 80.2299 0.191845 80.105 0.138018C79.8238 0.00344467 77.9807 -0.0503845 77.7308 0.0572739Z" fill="black"/>
</svg>
