<svg width="70" height="70" viewBox="0 0 70 70" fill="none" xmlns="http://www.w3.org/2000/svg">
<g clip-path="url(#clip0_630_3588)">
<path d="M31.192 0.168491C30.912 0.392491 31.01 1.31649 31.304 1.20449C31.402 1.16249 31.71 1.09249 31.976 1.03649C32.62 0.924491 32.69 0.784491 32.382 0.350491C32.102 -0.0275085 31.556 -0.111509 31.192 0.168491Z" fill="black"/>
<path d="M38.738 0.825981C38.514 0.965981 38.08 1.13399 37.758 1.18999C37.282 1.27399 37.226 1.30199 37.45 1.39999C37.716 1.49799 37.702 1.51199 37.38 1.58199C37.184 1.62399 36.694 1.70798 36.274 1.74998C35.588 1.83398 35.49 1.80598 35.224 1.48399C35.056 1.30199 34.706 1.10599 34.44 1.04999C34.034 0.965981 33.978 0.97998 34.132 1.13399C34.622 1.65199 33.95 1.88998 33.32 1.39999C32.984 1.14799 32.97 1.14799 32.69 1.39999C32.466 1.59599 32.018 1.69398 30.562 1.80598C29.554 1.90398 28.42 2.05798 28.042 2.16998C27.118 2.44998 27.104 2.42198 27.972 2.02998C28.406 1.83398 28.7 1.60999 28.7 1.46999C28.7 1.23199 28.602 1.18999 27.832 1.04999C27.342 0.97998 27.3 0.99398 27.3 1.31599C27.3 1.55399 27.146 1.76398 26.852 1.97398C26.6 2.14198 26.362 2.30998 26.334 2.33798C26.306 2.35198 26.362 2.63198 26.46 2.95399C26.628 3.45798 26.698 3.51398 27.034 3.47198C27.258 3.42999 27.384 3.47198 27.342 3.54198C27.188 3.80798 26.306 4.05998 25.592 4.05998C24.864 4.04598 24.85 4.04598 25.27 3.86398L25.69 3.68198L25.172 3.42999C24.738 3.21999 24.584 3.20599 24.276 3.34599C23.842 3.54198 23.688 3.45798 23.94 3.14999C24.038 3.02399 24.094 2.91199 24.066 2.88399C23.996 2.82799 20.468 3.84998 18.76 4.40999C17.122 4.94199 15.064 6.01999 14.168 6.80399C13.426 7.44799 13.384 7.62999 13.93 7.72799C14.084 7.75599 14.21 7.83998 14.21 7.90998C14.224 7.99398 14.28 8.20399 14.336 8.38599L14.448 8.72198L14.63 8.28799C14.854 7.76999 15.246 7.50399 16.31 7.12598C17.178 6.81799 17.388 6.85999 17.038 7.23798C16.786 7.53199 16.324 8.66599 16.17 9.37999L16.072 9.86999L16.492 9.30999C16.716 9.00199 17.29 8.38599 17.766 7.95198C18.48 7.27999 18.62 7.06998 18.634 6.64999C18.648 6.38398 18.662 6.07598 18.676 5.97798C18.704 5.57198 19.67 5.30598 19.992 5.62798C20.118 5.75398 20.006 5.94998 19.53 6.45399C19.18 6.83199 18.9 7.23798 18.9 7.36399C18.9 7.53199 19.068 7.41999 19.46 6.99998C19.922 6.49599 20.062 6.42599 20.384 6.49599C20.804 6.60799 21.28 6.32798 20.972 6.14598C20.874 6.08998 20.832 6.00599 20.86 5.97798C21.168 5.73998 23.086 4.61999 23.212 4.61999C23.45 4.61999 23.562 5.20798 23.394 5.61398C23.324 5.82398 23.016 6.10398 22.722 6.25798C22.428 6.41198 21.7 6.78999 21.098 7.11198C20.244 7.57399 19.866 7.69999 19.32 7.69999C18.732 7.69999 18.62 7.74199 18.62 7.96598C18.62 8.10599 18.718 8.30199 18.83 8.39999C18.942 8.49799 19.04 8.65199 19.04 8.76398C19.04 9.04399 18.326 9.49199 17.556 9.67398C17.178 9.77199 16.38 10.08 15.792 10.388C15.022 10.766 14.7 10.864 14.7 10.724C14.7 10.626 14.854 10.108 15.064 9.58998C15.26 9.05799 15.4 8.46999 15.372 8.27399C15.302 7.68599 14.938 7.83998 14.7 8.56799C14.532 9.11399 14.448 9.21199 14.21 9.15599C14.056 9.11399 13.692 9.18399 13.398 9.30999C13.118 9.42199 12.88 9.47799 12.88 9.42199C12.88 9.36599 13.118 9.07199 13.398 8.76398L13.93 8.21799L13.09 8.80598C12.628 9.14199 11.69 9.78599 10.99 10.262C9.77199 11.088 8.11999 12.586 8.11999 12.838C8.11999 12.908 8.30199 12.95 8.53999 12.908C9.15599 12.824 9.08599 13.118 8.18999 14.21C7.76999 14.714 7.41999 15.176 7.41999 15.204C7.41999 15.33 7.57399 15.246 8.03599 14.84C8.31599 14.588 8.55399 14.476 8.60999 14.546C8.65199 14.63 7.95199 15.428 7.05599 16.31C5.44599 17.92 5.43199 17.948 5.52999 18.452C5.64199 19.04 5.87999 19.39 5.87999 18.956C5.87999 18.144 6.49599 16.8 6.87399 16.8C7.08399 16.8 7.01399 17.248 6.49599 19.264C6.21599 20.342 5.94999 21.714 5.89399 22.33L5.80999 23.45L5.29199 22.61C4.99799 22.148 4.75999 21.868 4.75999 21.994C4.75999 22.12 4.40999 22.652 3.98999 23.17C3.56999 23.674 3.21999 24.122 3.21999 24.15C3.21999 24.164 3.12199 24.416 3.00999 24.696C2.89799 24.976 2.82799 25.2 2.85599 25.2C2.88399 25.2 3.12199 24.878 3.37399 24.472L3.83599 23.758L4.01799 24.164C4.26999 24.752 4.24199 25.228 3.84999 27.3C3.49999 29.19 3.42999 30.366 3.63999 30.87C3.75199 31.122 3.76599 31.122 3.76599 30.786C3.77999 30.338 4.10199 29.89 4.31199 30.016C4.52199 30.142 4.52199 30.996 4.32599 31.906C4.11599 32.9 3.86399 33.012 3.94799 32.06L4.01799 31.332L3.55599 31.402C2.99599 31.5 2.99599 31.486 2.85599 29.61C2.81399 28.84 2.71599 28.07 2.64599 27.888C2.46399 27.412 2.12799 27.51 2.01599 28.07C1.88999 28.784 2.04399 29.666 2.65999 31.57C3.26199 33.446 3.45799 34.3 3.26199 34.3C3.19199 34.3 2.93999 34.034 2.68799 33.712C2.21199 33.096 2.14199 33.138 2.39399 33.852C2.47799 34.09 2.61799 34.272 2.70199 34.258C2.81399 34.244 2.86999 34.594 2.86999 35.462C2.86999 36.134 2.84199 36.68 2.79999 36.68C2.75799 36.68 2.51999 36.554 2.28199 36.4L1.81999 36.12L1.83399 36.512C1.84799 37.296 2.02999 38.15 2.16999 38.108C2.33799 38.052 3.09399 41.006 3.52799 43.428C3.70999 44.394 3.89199 45.136 3.93399 45.052C4.04599 44.87 4.40999 45.528 4.54999 46.186C4.71799 46.942 4.88599 46.41 4.81599 45.36L4.75999 44.45L4.96999 45.22C5.09599 45.64 5.24999 46.662 5.31999 47.488C5.38999 48.328 5.52999 49.294 5.61399 49.658L5.78199 50.302L6.03399 49.994L6.28599 49.686L6.48199 50.162C6.91599 51.198 6.92999 51.282 6.55199 51.212L6.20199 51.142L6.52399 51.632C6.70599 51.898 6.85999 52.262 6.85999 52.43C6.85999 52.71 7.37799 53.34 7.60199 53.34C7.65799 53.34 7.67199 53.172 7.61599 52.962C7.57399 52.738 7.82599 53.088 8.17599 53.718C8.52599 54.362 8.81999 55.02 8.81999 55.202C8.81999 55.86 9.43599 56.756 10.5 57.61C11.074 58.086 11.62 58.604 11.704 58.772C11.858 59.08 13.874 60.998 15.316 62.188C16.366 63.07 18.256 64.33 19.642 65.1C20.286 65.45 20.678 65.744 20.58 65.8C20.426 65.898 24.612 68.292 26.082 68.936C27.678 69.636 29.078 70 30.184 70C30.744 70 31.22 69.958 31.22 69.916C31.22 69.874 31.15 69.72 31.08 69.566C30.982 69.384 30.982 69.3 31.08 69.3C31.15 69.3 31.22 69.188 31.22 69.048C31.22 68.824 31.444 68.81 34.048 68.81C37.1 68.81 38.71 68.614 41.328 67.97C42.112 67.774 42.77 67.62 42.784 67.62C42.812 67.62 42.84 67.914 42.84 68.292C42.84 69.104 43.134 69.58 43.638 69.58H44.002L43.61 69.216C43.288 68.922 43.232 68.782 43.302 68.362C43.4 67.802 43.708 67.41 44.268 67.116C44.632 66.92 44.66 66.934 44.66 67.186C44.66 67.732 45.066 67.76 47.124 67.396C48.188 67.214 49.238 67.018 49.462 66.976C49.798 66.892 49.84 66.92 49.84 67.256C49.84 67.676 49.868 67.69 50.764 67.41C51.142 67.298 51.464 67.2 51.492 67.2C51.506 67.2 51.52 67.424 51.52 67.69C51.52 67.998 51.436 68.222 51.282 68.306C51.142 68.39 51.086 68.46 51.142 68.46C51.338 68.46 52.108 67.872 52.024 67.802C51.982 67.76 52.08 67.536 52.234 67.326L52.514 66.92H51.898C51.548 66.92 51.086 66.878 50.848 66.836C50.47 66.766 50.428 66.71 50.54 66.486C50.624 66.346 50.68 66.024 50.68 65.772V65.296L51.744 65.394L52.808 65.506L53.228 65.03C53.452 64.764 54.124 64.288 54.712 63.952C55.3 63.63 56.014 63.14 56.266 62.874C56.532 62.594 56.7 62.468 56.63 62.58C56.56 62.706 56.63 62.692 56.812 62.524C57.162 62.23 57.246 62.02 56.91 62.3C56.756 62.426 56.7 62.426 56.7 62.314C56.7 62.23 56.798 62.118 56.91 62.076C57.022 62.02 57.12 61.88 57.12 61.74C57.12 61.614 57.302 61.25 57.54 60.928L57.946 60.354L57.204 60.62C56.546 60.844 54.81 61.18 54.306 61.18C54.208 61.18 54.334 60.956 54.6 60.69C54.964 60.312 55.118 60.242 55.314 60.354C55.524 60.466 55.65 60.382 56.014 59.892C56.252 59.556 56.574 59.038 56.728 58.73C57.022 58.156 58.394 56.238 58.786 55.86C58.912 55.734 59.416 55.146 59.92 54.53C60.424 53.914 61.264 52.906 61.796 52.29C63.042 50.834 64.61 48.454 65.52 46.648C66.094 45.486 66.29 45.206 66.5 45.262C66.724 45.318 66.752 45.206 66.808 44.366C66.836 43.848 66.906 43.372 66.948 43.33C67.004 43.274 67.186 43.33 67.368 43.456C67.998 43.904 68.082 43.778 67.97 42.588C67.83 41.076 67.844 40.11 68.026 39.802C68.11 39.662 68.18 39.62 68.18 39.718C68.18 39.928 68.698 40.222 68.88 40.11C68.964 40.054 68.866 39.732 68.67 39.326C68.376 38.766 68.348 38.64 68.53 38.64C68.656 38.64 68.866 38.374 69.02 38.024C69.16 37.688 69.342 37.394 69.426 37.366C69.51 37.324 69.412 36.68 69.16 35.574C68.656 33.502 68.642 33.236 69.034 33.138C69.3 33.068 69.314 33.096 69.23 33.558C69.174 33.908 69.202 34.09 69.328 34.174C69.916 34.552 70.014 34.076 69.58 32.816C69.412 32.368 69.286 31.696 69.286 31.346C69.272 30.73 69.258 30.702 68.922 30.772L68.558 30.842L68.6 28.966C68.67 26.11 68.67 26.096 68.194 25.816C67.844 25.62 67.704 25.326 67.284 23.996C66.668 22.092 65.646 19.782 64.764 18.298C64.414 17.696 64.12 17.108 64.12 17.01C64.12 16.912 63.854 16.52 63.518 16.156C63.196 15.778 62.552 14.994 62.09 14.42C60.956 12.992 58.842 10.906 57.386 9.77199C56.294 8.91799 53.536 7.08398 53.158 6.95798C53.074 6.92999 53.228 6.63599 53.536 6.25798C54.124 5.54398 54.152 5.12399 53.648 4.78799C53.326 4.57799 53.326 4.57799 53.494 4.94199C53.634 5.24998 53.62 5.37598 53.424 5.65598C53.088 6.17398 52.682 6.34198 52.038 6.24398C51.716 6.18798 51.394 6.08998 51.31 6.03399C51.24 5.96398 50.932 5.83798 50.638 5.73998C50.148 5.58598 50.12 5.55798 50.316 5.33398C50.442 5.19398 50.54 5.01199 50.54 4.92799C50.54 4.59199 49.658 3.79398 48.412 2.96799C46.998 2.04398 46.578 1.97398 46.088 2.58998L45.836 2.89799L45.164 2.11398C44.492 1.34399 44.464 1.32999 43.694 1.31599C43.26 1.31599 42.504 1.17599 42 1.02199C41.496 0.867981 40.656 0.699982 40.11 0.643982C39.298 0.587982 39.06 0.615982 38.738 0.825981ZM39.438 0.783981C39.396 0.825981 39.27 0.839981 39.172 0.797981C39.06 0.755981 39.102 0.713982 39.256 0.713982C39.41 0.699982 39.494 0.741982 39.438 0.783981ZM49.392 5.01199C49.588 5.30598 49.588 5.31998 49.154 5.16599C48.72 5.01199 48.636 4.89999 48.818 4.70399C48.958 4.56399 49.168 4.67599 49.392 5.01199ZM12.012 10.388C11.9 10.57 11.536 11.186 11.2 11.76C10.864 12.334 10.57 12.824 10.556 12.852C10.542 12.88 10.374 12.824 10.206 12.726L9.88399 12.558L10.262 12.264C10.472 12.096 10.64 11.9 10.64 11.83C10.64 11.676 12.012 10.08 12.138 10.08C12.18 10.08 12.124 10.22 12.012 10.388ZM9.79999 18.578C9.64599 18.816 9.64599 18.816 9.71599 18.578C9.75799 18.438 9.79999 18.242 9.81399 18.158C9.81399 18.032 9.84199 18.032 9.88399 18.158C9.92599 18.256 9.88399 18.438 9.79999 18.578ZM11.62 19.446C11.62 19.516 11.522 19.642 11.41 19.74C11.242 19.88 11.2 19.88 11.2 19.712C11.2 19.6 11.242 19.46 11.298 19.418C11.424 19.278 11.62 19.292 11.62 19.446ZM9.93999 19.796C9.93999 19.824 9.98199 19.95 10.024 20.062C10.066 20.188 9.88399 20.426 9.54799 20.692L9.01599 21.126L9.22599 20.426C9.37999 19.936 9.50599 19.74 9.68799 19.74C9.82799 19.74 9.93999 19.768 9.93999 19.796ZM10.598 20.384C10.514 20.678 9.98199 21.602 9.42199 22.428C8.86199 23.268 8.13399 24.458 7.81199 25.088L7.20999 26.25L7.16799 24.262C7.13999 22.386 7.15399 22.246 7.44799 21.91C7.61599 21.714 7.82599 21.56 7.93799 21.56C8.03599 21.56 8.21799 21.406 8.34399 21.21C8.59599 20.818 8.81999 20.86 8.81999 21.294C8.81999 21.924 9.89799 21.196 10.388 20.258C10.724 19.586 10.822 19.642 10.598 20.384ZM68.46 27.496C68.46 28.112 68.222 27.762 68.124 27.02C68.04 26.418 68.04 26.404 68.236 26.74C68.362 26.936 68.446 27.272 68.46 27.496ZM6.38399 27.286C6.49599 27.188 6.62199 27.16 6.67799 27.202C6.81799 27.342 6.14599 28.84 5.93599 28.84C5.54399 28.84 5.23599 27.664 5.47399 27.048L5.61399 26.67L5.90799 27.062C6.13199 27.37 6.22999 27.412 6.38399 27.286ZM47.18 66.15C47.18 66.29 47.04 66.36 46.732 66.36L46.27 66.346L46.62 66.15C47.068 65.898 47.18 65.898 47.18 66.15ZM45.948 67.158C46.144 67.41 45.71 67.55 45.248 67.396C44.716 67.214 44.716 66.948 45.248 66.724C45.668 66.542 45.71 66.542 45.766 66.752C45.794 66.878 45.878 67.074 45.948 67.158ZM30.73 68.754C30.926 68.95 30.226 68.894 29.75 68.684C29.33 68.488 29.344 68.488 29.96 68.558C30.31 68.6 30.646 68.684 30.73 68.754Z" fill="black"/>
<path d="M35.742 1.21826C35.952 1.24626 36.288 1.24626 36.512 1.21826C36.722 1.19026 36.54 1.16226 36.12 1.16226C35.7 1.16226 35.518 1.19026 35.742 1.21826Z" fill="black"/>
<path d="M50.932 4.95626C51.1 5.18026 51.24 5.47426 51.24 5.62826C51.24 5.78226 51.31 5.85226 51.38 5.81026C51.66 5.64226 51.506 5.19426 51.072 4.87226L50.61 4.55026L50.932 4.95626Z" fill="black"/>
<path d="M4.648 18.8023C4.326 19.1523 4.256 19.5303 4.48 19.6703C4.564 19.7123 4.62 19.8943 4.62 20.0623C4.634 20.3702 4.634 20.3702 4.844 20.0903C5.026 19.8383 5.026 19.8103 4.844 19.7683C4.564 19.7123 4.564 19.7123 4.83 19.0823C5.096 18.4663 5.04 18.3823 4.648 18.8023Z" fill="black"/>
<path d="M2.31 20.7768C2.128 21.2528 2.114 21.4488 2.226 21.6868C2.52 22.2048 2.66 21.9948 2.66 21.0708C2.66 20.5668 2.632 20.1608 2.604 20.1608C2.576 20.1608 2.436 20.4408 2.31 20.7768Z" fill="black"/>
<path d="M1.63799 23.1003C1.41399 23.4923 1.18999 23.8003 1.13399 23.8003C0.993995 23.8003 0.615995 23.3663 0.531995 23.1003C0.489995 22.9883 0.433995 23.1283 0.405995 23.4083C0.363995 23.6883 0.391995 23.8843 0.447995 23.8563C0.503995 23.8143 0.559995 24.0103 0.559995 24.2763C0.559995 24.5563 0.629995 24.7803 0.699995 24.7803C0.783995 24.7803 0.839995 24.7243 0.839995 24.6543C0.839995 24.5703 1.21799 24.2203 1.67999 23.8703C2.506 23.2263 2.68799 22.9043 2.35199 22.5683C2.09999 22.3163 2.05799 22.3443 1.63799 23.1003Z" fill="black"/>
<path d="M0.699997 25.6207C0.699997 25.7047 0.797997 25.7607 0.909997 25.7607C1.176 25.7607 1.176 25.6767 0.909997 25.5647C0.797997 25.5227 0.699997 25.5507 0.699997 25.6207Z" fill="black"/>
<path d="M67.788 44.1703C67.634 44.5203 67.55 46.3263 67.69 46.1723C67.774 46.0883 68.068 43.9463 67.998 43.8763C67.97 43.8483 67.872 43.9743 67.788 44.1703Z" fill="black"/>
<path d="M64.806 49.1684C64.68 49.6444 64.54 50.1484 64.484 50.2744C64.33 50.6104 65.002 50.4564 65.352 50.0644C65.842 49.5464 65.856 49.2104 65.422 48.7204L65.016 48.2724L64.806 49.1684Z" fill="black"/>
<path d="M63.98 50.9742C63.882 51.1282 63.84 51.2962 63.882 51.3242C63.91 51.3522 64.008 51.2262 64.092 51.0302C64.288 50.6102 64.19 50.5682 63.98 50.9742Z" fill="black"/>
<path d="M63.434 52.3887C63.126 53.3127 63.168 53.3127 63.756 52.4307L64.12 51.8707V52.4307C64.106 52.7387 64.022 53.1447 63.91 53.3407C63.406 54.2227 63.826 54.6147 64.596 53.9987C64.946 53.7047 64.974 53.6347 64.834 53.3547C64.722 53.1727 64.694 52.8227 64.764 52.4307C64.848 51.8427 64.834 51.8007 64.47 51.6607C63.84 51.4227 63.742 51.4927 63.434 52.3887Z" fill="black"/>
<path d="M60.774 55.5239C60.774 55.6919 60.41 56.2099 59.99 56.6859C59.248 57.5119 59.052 57.9879 59.36 58.1699C59.612 58.3239 59.514 58.4919 59.122 58.5899L58.73 58.7019L59.136 58.8139C59.416 58.8979 59.626 58.8559 59.878 58.7019L60.228 58.4639L59.906 58.2399C59.416 57.8619 59.64 57.5399 60.41 57.5399H61.04L61.026 56.9379C61.026 56.2799 60.802 55.0619 60.774 55.5239Z" fill="black"/>
<path d="M62.37 55.5942C62.314 55.6782 62.3 55.7622 62.342 55.8042C62.37 55.8462 62.44 55.7762 62.482 55.6502C62.58 55.4122 62.496 55.3702 62.37 55.5942Z" fill="black"/>
<path d="M61.81 56.7982C61.6 57.1342 61.46 57.4422 61.488 57.4702C61.502 57.4842 61.726 57.5542 61.964 57.5962C62.342 57.6802 62.454 57.6382 62.706 57.3162C63.098 56.8262 63.084 56.6722 62.58 56.3922L62.174 56.1682L61.81 56.7982Z" fill="black"/>
<path d="M58.786 59.5985L58.31 60.1025L58.758 59.7945C59.234 59.4725 59.43 59.2485 59.332 59.1365C59.304 59.1085 59.052 59.3185 58.786 59.5985Z" fill="black"/>
<path d="M52.85 66.6403C52.808 66.7103 52.836 66.7803 52.906 66.7803C52.99 66.7803 53.06 66.7103 53.06 66.6403C53.06 66.5563 53.032 66.5003 53.004 66.5003C52.962 66.5003 52.892 66.5563 52.85 66.6403Z" fill="black"/>
<path d="M48.37 68.1939C47.782 68.7959 47.726 68.8939 48.02 68.8099C48.622 68.6419 49.21 68.2499 49.252 67.9839C49.364 67.4239 49.028 67.5079 48.37 68.1939Z" fill="black"/>
<path d="M45.57 68.0399L45.01 68.2919L45.542 68.3059C45.892 68.3199 46.102 68.2499 46.158 68.1099C46.284 67.7739 46.172 67.7599 45.57 68.0399Z" fill="black"/>
<path d="M37.17 69.0203C35.784 69.1603 33.992 69.2863 33.18 69.3003L31.71 69.3283L33.11 69.5943C33.908 69.7623 35.434 69.9023 36.68 69.9583L38.85 70.0283L38.5 69.7483L38.15 69.4683L38.5 69.3143C38.696 69.2443 39.354 69.1323 39.97 69.0763C40.796 69.0063 40.992 68.9503 40.74 68.8663C40.25 68.7263 40.026 68.7403 37.17 69.0203Z" fill="black"/>
<path d="M30.2871 19.9782C29.4258 20.113 28.1484 20.529 27.5801 20.863C27.252 21.0563 26.6133 21.6012 25.5586 22.5856C24.2637 23.7985 23.8184 24.1091 22.6172 24.6364L21.9785 24.9177L21.7324 25.6149C21.5977 25.9958 21.3105 26.7048 21.0996 27.1911L20.707 28.0759L20.8184 28.3923C20.9297 28.7145 21.4219 29.8571 21.7559 30.5661C21.9023 30.8884 21.9258 30.988 21.8789 31.111C21.8027 31.3161 21.8027 31.6442 21.8906 32.2243C21.9551 32.6872 21.9551 32.7048 21.7617 33.279C21.6562 33.6013 21.5566 33.9001 21.5449 33.9352C21.4922 34.0759 22.1953 34.7204 22.9395 35.2126C23.8125 35.7868 24.0645 36.0036 24.2637 36.3141C24.3809 36.5016 24.9844 37.9313 24.9844 38.0192C24.9844 38.0368 24.791 37.8552 24.5566 37.6208C23.9648 37.0407 23.502 36.7419 22.8867 36.5602C22.043 36.3024 21.6504 36.0212 21.0527 35.236C20.5781 34.6091 20.209 34.3044 19.5176 33.947C18.457 33.4079 18 33.1149 17.6016 32.7458C17.1445 32.3122 16.9277 31.9196 16.834 31.3454C16.7754 30.9763 16.7871 30.8708 16.916 30.2907C16.998 29.9333 17.0566 29.6403 17.0508 29.6286C17.0391 29.6227 16.9512 29.822 16.8516 30.0798C16.5117 30.947 16.4824 31.527 16.7285 32.277C16.9863 33.0388 17.4961 33.6188 18.6445 34.4391C19.4824 35.0427 19.7695 35.3532 20.1211 36.0095C20.2734 36.2966 20.5195 36.6364 20.7129 36.8356C21.1113 37.2399 21.9375 37.7907 22.6816 38.1423C23.7363 38.6462 23.959 38.8864 24.6504 40.2516C24.9609 40.861 25.1426 41.1364 25.5703 41.6286C27.041 43.322 27.1758 43.5095 28.2949 45.32C29.0156 46.4977 29.6426 47.4177 30.1992 48.1325C30.6797 48.7419 30.6797 48.736 30.9668 49.5739C31.4355 50.945 31.834 51.777 32.2969 52.3513C32.4141 52.4977 32.748 52.861 33.0352 53.1598C33.627 53.7692 33.7148 53.8102 34.9102 54.0563C35.8945 54.2614 36.7148 54.197 37.9863 53.8161C38.3965 53.6989 38.4551 53.652 38.8945 53.2067C39.8613 52.2341 40.2715 51.5309 40.9453 49.7263C41.2324 48.947 41.3789 48.6423 41.5723 48.3962C42.1992 47.5993 42.9434 46.5212 43.6172 45.4255C44.6719 43.7028 45.0469 43.1638 45.8789 42.2145C46.7402 41.2243 46.998 40.8669 47.2617 40.2751C47.7949 39.068 48.1758 38.6579 49.2539 38.1305C50.1269 37.7028 50.918 37.1872 51.3047 36.7829C51.457 36.6305 51.7031 36.279 51.8555 36.0036C52.248 35.2829 52.4473 35.0661 53.3203 34.4098C54.9023 33.2263 55.3945 32.4294 55.3242 31.1696C55.3008 30.8122 55.2422 30.572 55.0781 30.1442C54.8027 29.4294 54.7207 29.3532 54.9141 29.9802C55.1367 30.6891 55.1309 31.4509 54.9141 31.9196C54.7148 32.3356 54.2051 32.8805 53.6953 33.2145C53.4844 33.3552 52.9746 33.6481 52.5644 33.8649C51.6973 34.3278 51.4219 34.5563 50.9414 35.1833C50.3203 35.9977 49.8105 36.3552 48.9844 36.5661C48.4863 36.6891 48 36.9997 47.4141 37.5798C47.1621 37.8259 46.957 38.0075 46.957 37.9782C46.957 37.8727 47.3906 36.7712 47.5605 36.4548C47.7715 36.0505 47.9414 35.904 49.0312 35.1833C49.8105 34.6677 50.4141 34.1462 50.4141 33.988C50.4141 33.947 50.332 33.6833 50.2383 33.3903C50.0215 32.7634 50.0156 32.6579 50.1211 32.0368C50.1855 31.6559 50.1855 31.4743 50.1328 31.193C50.0684 30.8415 50.0742 30.8239 50.2617 30.443C50.584 29.7927 51.2344 28.2399 51.2344 28.111C51.2344 28.0466 51.0937 27.695 50.918 27.3259C50.748 26.9567 50.4785 26.3122 50.3262 25.8962C50.1738 25.4743 50.0332 25.0817 50.0039 25.0114C49.9746 24.9352 49.7461 24.8005 49.3242 24.613C48.1465 24.0973 47.625 23.7282 46.1953 22.3805C45.7617 21.9704 45.2051 21.4782 44.9648 21.279C43.7578 20.3063 41.4082 19.7087 39.6738 19.943C38.5254 20.0954 37.2949 20.5407 36.9199 20.9333L36.75 21.1091L37.043 20.9626C37.7695 20.6052 39.1406 20.4177 40.2246 20.5231C41.332 20.6403 42.5098 21.0036 43.0019 21.3845C43.1484 21.5016 43.125 21.5192 42.3691 21.7946C42.0586 21.9118 41.6367 22.0876 41.4316 22.1813L41.0684 22.3513L41.3848 22.3161C41.8359 22.2634 41.7539 22.3805 41.1855 22.6091C40.8105 22.7614 39.5859 23.4645 39.6973 23.4645C39.7148 23.4645 39.9551 23.3708 40.2363 23.2595C40.5117 23.1481 41.0859 22.9665 41.5078 22.8552C42.3516 22.6325 42.293 22.6266 42.9492 22.943C43.2891 23.1071 43.3652 23.1247 43.6758 23.0895C43.8926 23.0661 44.0273 23.072 44.0273 23.1071C44.0273 23.1833 43.7109 23.3649 43.3652 23.4938C43.2129 23.5524 43.0957 23.6052 43.1016 23.611C43.1133 23.6227 43.3184 23.5934 43.5644 23.5524C43.8047 23.5114 44.2207 23.4587 44.4785 23.4352C44.9473 23.3942 44.9648 23.3942 45.4453 23.6169C45.7148 23.7399 45.9492 23.8513 45.9727 23.8688C45.9961 23.8864 45.6914 23.904 45.2988 23.904C44.7129 23.904 44.5019 23.9274 44.1445 24.0388C43.1777 24.3434 42.082 24.9294 41.0801 25.6852C40.2422 26.3122 39.9902 26.6169 39.5508 27.5134C39.2285 28.1813 38.8125 29.1657 38.8125 29.2653C38.8125 29.2829 38.9355 29.0778 39.082 28.8141C39.5684 27.9528 39.873 27.6598 41.7598 26.2302C42.1055 25.9665 42.416 25.7497 42.4512 25.7497C42.4863 25.7497 42.4277 25.8552 42.3281 25.9841L42.1406 26.2243L42.6269 25.8727C43.1426 25.5036 44.1445 24.947 44.1445 25.029C44.1445 25.0524 44.0508 25.1403 43.9453 25.2223C43.834 25.3044 43.7519 25.3747 43.7578 25.3864C43.7695 25.3923 43.9629 25.322 44.1914 25.2223C44.5195 25.0817 44.6894 25.0466 45.0059 25.0466L45.4043 25.0524L45.1699 25.2634C45.041 25.3805 44.543 25.7673 44.0566 26.1305C43.5762 26.4938 43.1309 26.8454 43.0723 26.9098C43.0137 26.9743 42.8789 27.2497 42.7793 27.5192C42.2402 28.9313 41.6191 29.7165 40.623 30.2321C40.1133 30.4958 40.0137 30.5134 40.1895 30.3259C40.3184 30.1794 40.7461 29.3766 40.6699 29.4235C40.6289 29.4411 40.4414 29.57 40.248 29.7048C39.5977 30.1618 39.082 30.4313 38.3086 30.7243C37.1777 31.1462 37.1133 31.1872 36.9023 31.5739L36.8086 31.7438L36.9902 31.6149C37.1191 31.5212 37.2129 31.4977 37.3008 31.527C37.6113 31.6208 39.0469 32.3063 39.3633 32.5114C39.5508 32.6286 39.7148 32.7223 39.7266 32.7106C39.7324 32.6989 39.5625 32.4704 39.334 32.2009C39.1113 31.9313 38.9297 31.6911 38.9297 31.6677C38.9297 31.5446 39.1758 31.4391 39.5449 31.404C40.0312 31.3571 40.5293 31.2516 41.2324 31.0466C41.5195 30.9645 41.7656 30.9059 41.7773 30.9235C41.7949 30.9411 41.625 31.0524 41.3906 31.1696C41.1621 31.2927 40.9863 31.3981 40.998 31.4157C41.0098 31.4274 41.2676 31.3688 41.5723 31.2809C41.8769 31.1989 42.1758 31.1169 42.2402 31.1052C42.3047 31.0876 42.1406 31.193 41.8711 31.3337C41.0742 31.7438 40.6641 32.236 40.0137 33.5427C39.8262 33.9118 39.5684 34.3864 39.4336 34.5973C39.2988 34.8083 39.1699 35.0134 39.1406 35.0485C39.0293 35.236 39.1875 35.072 39.7207 34.4509C40.7344 33.2555 41.6894 32.4352 42.5918 31.9782C42.9727 31.7848 43.0664 31.7614 43.8809 31.6911C45.8965 31.5095 45.7676 31.4977 46.0957 31.8903L46.2539 32.0895V31.8845C46.2539 31.5973 46.6348 30.8708 46.9629 30.5427C47.1094 30.3962 47.373 30.197 47.5488 30.1149C47.9355 29.9157 48.4805 29.7282 48.5391 29.7634C48.6035 29.8044 48.7734 30.5602 48.7734 30.8063C48.7734 31.0407 48.3457 31.7497 47.7363 32.5348L47.3437 33.0446L47.7305 32.693C47.9414 32.4997 48.2402 32.2009 48.3926 32.0309C48.5449 31.8669 48.6914 31.738 48.7207 31.7614C48.75 31.779 48.7734 31.8962 48.7734 32.0192C48.7734 32.2888 48.5039 32.652 47.9941 33.0915C47.5137 33.4958 47.584 33.5544 48.082 33.1677C48.4746 32.8571 48.6562 32.7751 48.6562 32.8923C48.6562 32.9216 48.4863 33.1032 48.2754 33.2966C48.0176 33.5368 47.7246 33.7419 47.3555 33.9177L46.8105 34.1872L46.4004 34.0934C46.1777 34.0466 45.7441 33.9704 45.4512 33.9235C44.9766 33.8532 44.8652 33.8532 44.5723 33.9294C44.0273 34.07 43.5937 34.3454 42.8144 35.0485C42.3926 35.4235 41.6602 35.9977 41.1269 36.3552C40.6113 36.7067 40.0371 37.1345 39.8496 37.2985L39.5156 37.5973V37.0114C39.5156 36.695 39.498 36.2614 39.4746 36.0563L39.4336 35.6813L39.3926 35.945C39.3691 36.0915 39.3457 36.3434 39.3457 36.5075C39.3398 36.7712 39.3047 36.8591 39.0879 37.152C38.7832 37.5622 38.4316 37.8903 38.127 38.0485C37.7109 38.2595 37.6934 38.2477 37.5879 37.7907L37.4941 37.3805L37.3535 37.738C37.2832 37.9372 37.1484 38.1833 37.0664 38.2888L36.9082 38.4763L36.0059 38.4704C35.5078 38.4645 35.0566 38.4352 34.9922 38.4001C34.9277 38.3649 34.7754 38.1305 34.6523 37.8727L34.4238 37.3981L34.3594 37.6559C34.3301 37.7966 34.2773 37.9782 34.2539 38.0661L34.2129 38.2243L33.9199 38.0778C33.4922 37.861 33.2812 37.6794 32.918 37.2458C32.6309 36.8942 32.6016 36.8356 32.5957 36.5661C32.5957 36.402 32.5723 36.1501 32.5488 36.0036C32.5078 35.7634 32.502 35.7868 32.4609 36.3141C32.4316 36.6247 32.4258 37.0407 32.4375 37.2341C32.4492 37.4274 32.4434 37.5856 32.4199 37.5856C32.3965 37.5856 32.3672 37.5622 32.3555 37.5329C32.3145 37.4216 31.6582 36.9059 30.9902 36.4548C30.0586 35.8337 29.6895 35.5466 29.0391 34.9489C28.4004 34.3513 27.9844 34.0934 27.4746 33.947C27.0996 33.8415 27.0879 33.8415 26.3203 33.988C25.8926 34.07 25.4648 34.1462 25.3652 34.1638C24.9844 34.2282 23.6719 33.4255 23.8535 33.2438C23.9004 33.197 24.0117 33.2438 24.2578 33.4196C24.4395 33.5485 24.6211 33.6598 24.6562 33.6598C24.7266 33.6598 24.5449 33.4958 23.9824 33.068C23.6074 32.7868 23.5898 32.7634 23.5254 32.4235C23.4844 32.2243 23.4609 32.0544 23.4727 32.0485C23.4844 32.0368 23.7949 32.2829 24.1641 32.5934C24.832 33.1501 24.832 33.1559 24.5391 32.8102C24.1348 32.3298 23.7187 31.7731 23.4141 31.3044L23.1621 30.9177L23.2559 30.3669C23.3086 30.068 23.3672 29.8044 23.3906 29.7809C23.4492 29.7223 24.4219 30.1149 24.7207 30.32C25.1777 30.6364 25.6406 31.3337 25.7227 31.8376L25.7637 32.0837L25.8633 31.9196C26.1035 31.527 26.1211 31.5212 27.082 31.6032C28.9336 31.7614 28.9512 31.7614 29.3672 31.9958C30.293 32.4997 31.2129 33.32 32.5605 34.8317L32.8945 35.2126L32.5664 34.6852C32.3848 34.3923 32.1094 33.8942 31.9453 33.572C31.582 32.8513 31.1074 32.1247 30.7969 31.8259C30.6738 31.7028 30.3457 31.486 30.0762 31.3454C29.8066 31.1989 29.6016 31.0817 29.6309 31.0817C29.6543 31.0817 29.9531 31.1638 30.293 31.2634C30.6328 31.363 30.9199 31.4333 30.9316 31.4216C30.9492 31.4098 30.7793 31.2927 30.5508 31.1696C30.3281 31.0407 30.1582 30.9294 30.1699 30.9177C30.1816 30.9059 30.4746 30.9821 30.8262 31.0817C31.1719 31.1813 31.7637 31.3044 32.1328 31.3513C32.502 31.404 32.8477 31.4626 32.8945 31.486C33.0586 31.5739 33.0234 31.7321 32.7656 32.0368C32.625 32.2067 32.4434 32.4352 32.3672 32.5466L32.2207 32.7516L32.4258 32.6169C32.7598 32.3942 34.541 31.5388 34.6758 31.5329C34.7402 31.5329 34.8457 31.5505 34.9102 31.5798C35.0098 31.6266 35.0098 31.6149 34.9219 31.445C34.7812 31.1696 34.6055 31.0641 33.791 30.7595C32.9355 30.443 32.502 30.2204 31.7402 29.7048L31.207 29.3415L31.418 29.7282C31.5293 29.9391 31.6758 30.1794 31.7344 30.2555C31.793 30.3317 31.8281 30.4079 31.8105 30.4255C31.793 30.443 31.582 30.3552 31.3301 30.2321C30.6504 29.8981 30.0176 29.2419 29.6309 28.4743C29.4668 28.152 29.2617 27.6891 29.1797 27.4489C29.0918 27.2087 28.9922 26.9743 28.9512 26.9274C28.9102 26.8805 28.4883 26.5524 28.002 26.1891C27.5215 25.8317 27.0059 25.4274 26.8594 25.2927L26.5957 25.0524L27.041 25.0466C27.4336 25.0466 27.5098 25.0641 27.7559 25.2223C27.9082 25.3161 28.0488 25.4391 28.0664 25.486C28.1191 25.6208 28.2012 25.5915 28.2422 25.4216C28.2891 25.2341 28.3066 25.2458 28.9805 25.7263C29.2793 25.9489 29.959 26.3942 30.4922 26.7282C31.0254 27.0622 31.5937 27.4255 31.7637 27.5368C32.1855 27.8239 32.6543 28.3923 33.0176 29.0544C33.1113 29.2184 33.1875 29.3356 33.1875 29.3122C33.1934 29.1423 32.4902 27.6423 32.0918 26.9626C31.9043 26.6462 31.2246 26.1305 30.5156 25.7673C29.877 25.4391 29.9531 25.1638 30.6035 25.4567C31.3418 25.7966 30.5039 25.2341 29.4082 24.6598C28.377 24.1208 27.7559 23.9274 26.8945 23.8805L26.1914 23.8454L26.7187 23.5993C27.1699 23.3825 27.3105 23.3415 27.7676 23.3122C28.3008 23.2712 28.6582 23.1774 28.2832 23.1716C28.1836 23.1716 28.0781 23.1423 28.0547 23.1013C28.0254 23.0544 28.1602 23.0485 28.5937 23.072C28.9102 23.0954 29.2559 23.1247 29.3496 23.1423C29.5312 23.1774 28.7812 22.779 28.207 22.5446C27.7207 22.3395 27.873 22.2751 28.8047 22.2692C29.6602 22.2692 30.7617 22.4333 31.3477 22.6501C31.5234 22.7204 31.6816 22.7614 31.6992 22.7497C31.7344 22.7087 30.8965 22.2575 30.6035 22.1579C30.4629 22.111 30.082 22.0407 29.7656 21.9997C28.916 21.9001 28.6934 21.7829 29.1035 21.6598C29.4668 21.5485 29.8418 21.5251 30.3398 21.5895C31.1074 21.695 31.1191 21.6305 30.3633 21.4489C29.9883 21.361 29.6367 21.2555 29.5781 21.2145C29.4844 21.1442 29.4844 21.1325 29.6191 21.0446C29.8418 20.8981 31.0664 20.6052 31.7578 20.5348C32.7598 20.4294 34.1016 20.5876 34.8867 20.9098L35.25 21.0563L35.1211 20.9157C34.7871 20.5583 33.6445 20.1247 32.6602 19.9723C31.9922 19.8727 30.9316 19.8727 30.2871 19.9782ZM44.8769 27.8473C44.6602 28.5915 44.1855 29.1481 43.4766 29.4997C43.1894 29.6403 43.0019 29.6872 42.6445 29.7106L42.1816 29.7399L42.4805 29.57C43.5293 28.9782 44.2793 28.1345 44.7715 26.9977L44.9355 26.6169L44.9531 27.068C44.9648 27.361 44.9355 27.6364 44.8769 27.8473ZM27.9434 28.2106C28.1895 28.5446 28.8633 29.1481 29.373 29.488L29.7598 29.7516L29.3203 29.7223C28.1777 29.652 27.2051 28.7263 27.041 27.5544C27.0117 27.3376 27 27.0563 27.0176 26.9274L27.0527 26.6872L27.3984 27.32C27.5918 27.6657 27.8379 28.0641 27.9434 28.2106ZM47.168 28.5329C47.3203 28.6325 47.4668 28.9665 47.3906 29.0192C47.3555 29.0427 47.1738 29.1716 46.9746 29.3063C46.5937 29.57 46.3359 29.8454 46.248 30.0739C46.2187 30.1559 46.166 30.4196 46.1309 30.6657C46.0957 30.9118 46.043 31.1345 46.0195 31.1638C45.9844 31.1989 45.9199 31.1052 45.8496 30.9411C45.7852 30.7946 45.6914 30.654 45.6504 30.6364C45.6035 30.6188 45.2871 30.6481 44.9473 30.695C44.6133 30.7477 44.2617 30.7888 44.168 30.7888C44.0156 30.7888 44.0391 30.7653 44.3496 30.5954C44.543 30.4899 44.7656 30.361 44.8477 30.3024C45.1289 30.1091 45.6328 29.5817 45.9375 29.1657C46.1777 28.8434 46.3184 28.7145 46.5586 28.5973C46.9219 28.4216 47.0039 28.4157 47.168 28.5329ZM25.418 28.6032C25.6348 28.6852 25.7402 28.7673 25.8516 28.943C26.3027 29.6696 26.8652 30.2087 27.5742 30.5895C27.9023 30.7653 27.9258 30.7888 27.7676 30.7888C27.6738 30.7888 27.3223 30.7477 26.9941 30.7009C26.6602 30.654 26.3555 30.6305 26.3086 30.6481C26.2617 30.6657 26.1738 30.8005 26.1211 30.9411C25.9629 31.3513 25.9336 31.3161 25.7988 30.5602C25.6934 29.9098 25.5 29.6462 24.8203 29.2126C24.6562 29.1071 24.5156 28.9899 24.5156 28.9548C24.5156 28.8434 24.8848 28.5036 25.0078 28.5036C25.0781 28.5036 25.2598 28.5505 25.418 28.6032ZM43.7051 35.4587C43.6523 35.6403 43.5469 35.9157 43.4648 36.0622C43.3066 36.3669 43.0547 36.6833 43.1133 36.5134C43.1309 36.4548 43.1484 36.197 43.1484 35.9391C43.1484 35.5348 43.166 35.4645 43.2773 35.3708C43.3418 35.318 43.4824 35.2009 43.582 35.113C43.8105 34.9138 43.8398 34.9958 43.7051 35.4587ZM28.5 35.2243L28.793 35.4411V35.8044C28.793 36.0036 28.8105 36.2555 28.834 36.361C28.8633 36.5309 28.8574 36.5485 28.7812 36.4899C28.6348 36.3669 28.3945 35.8747 28.2715 35.4294C28.207 35.2009 28.166 35.0075 28.1836 35.0075C28.1953 35.0075 28.3418 35.1071 28.5 35.2243ZM30 36.4548L30.2988 36.5895L30.2168 37.0173C30.1348 37.4274 30.1406 38.4059 30.2285 38.7575C30.2637 38.8864 30.2402 38.8747 30.0586 38.6696C29.6309 38.1891 29.3145 37.4391 29.1738 36.5602C29.0332 35.7106 29.0332 35.7106 29.3965 36.0388C29.5605 36.1911 29.8359 36.3786 30 36.4548ZM42.8262 36.1911C42.7324 37.0759 42.5156 37.7321 42.123 38.3473C41.8652 38.7575 41.625 39.0095 41.707 38.7868C41.8359 38.4352 41.8008 37.0817 41.6484 36.6891C41.6309 36.6423 41.7422 36.5602 41.9297 36.4606C42.0996 36.3786 42.3691 36.2028 42.5332 36.068C42.6914 35.9391 42.832 35.8278 42.8437 35.8278C42.8555 35.8278 42.8496 35.9919 42.8262 36.1911ZM31.3418 37.2634C31.5352 37.4157 31.7754 37.6149 31.875 37.7028L32.0566 37.861V38.9098C32.0508 39.8122 32.0684 40.0231 32.1797 40.4216C32.25 40.6794 32.3086 40.902 32.3086 40.9196C32.3027 40.9372 32.1562 40.7966 31.9805 40.6032C31.3711 39.9411 30.9492 38.7516 30.8672 37.4802C30.832 36.947 30.8379 36.8649 30.9082 36.9177C30.9551 36.9528 31.1484 37.111 31.3418 37.2634ZM41.0742 37.4509C40.9746 38.8747 40.5703 39.9235 39.8086 40.7497C39.668 40.902 39.5801 40.9665 39.6035 40.8962C39.8027 40.3102 39.8789 39.8415 39.8906 39.197C39.8906 38.8102 39.8848 38.3591 39.8672 38.195L39.8379 37.8962L40.377 37.4509C40.6699 37.2048 40.9277 36.9763 40.9512 36.9411C40.9687 36.9118 41.0156 36.8825 41.0508 36.8825C41.0977 36.8825 41.1035 37.0583 41.0742 37.4509ZM33.6094 38.5759C33.7148 38.6403 33.9023 38.7106 34.0254 38.7282C34.1426 38.7516 34.2422 38.7868 34.2422 38.8102C34.2422 38.8278 34.3125 39.2263 34.3945 39.6891L34.5527 40.5329L34.4121 40.9665C34.3418 41.2067 34.2539 41.4177 34.2246 41.4352C34.1484 41.4821 33.8906 41.2184 33.7441 40.9255C33.4688 40.3864 33.2402 39.6188 33.2051 39.1266C33.1582 38.4352 33.2168 38.3473 33.6094 38.5759ZM38.7656 38.6227C38.8535 39.4138 38.4141 40.8493 37.9453 41.3005C37.7402 41.488 37.752 41.4997 37.5293 40.8903L37.4004 40.5388L37.5469 39.7126C37.6348 39.2555 37.6992 38.8747 37.6992 38.8571C37.6992 38.8395 37.8223 38.7809 37.9805 38.7282C38.1328 38.6813 38.3203 38.5993 38.4023 38.5524C38.6309 38.4235 38.7422 38.4411 38.7656 38.6227ZM35.4844 39.0798L35.7539 39.1149L35.7949 39.7126C35.8301 40.2809 35.7949 40.6091 35.6484 41.1716C35.5723 41.4352 35.5137 41.447 35.2266 41.2477C34.8105 40.9665 34.4238 39.9118 34.5117 39.3141C34.5762 38.8688 34.5586 38.8805 34.9043 38.9684C35.0684 39.0095 35.332 39.0622 35.4844 39.0798ZM37.3887 39.0329C37.4648 39.3083 37.4238 39.9997 37.3184 40.3102C37.2656 40.4684 37.1426 40.7263 37.043 40.8786C36.8672 41.1598 36.5156 41.4294 36.416 41.3708C36.3867 41.3473 36.3105 41.1013 36.2402 40.82C36.1465 40.4098 36.1289 40.193 36.1582 39.7184L36.1934 39.1208L36.627 39.0563C36.873 39.0212 37.1133 38.9626 37.166 38.9333C37.3125 38.8454 37.3418 38.863 37.3887 39.0329ZM31.4004 43.0641C31.4531 43.2223 31.541 43.4216 31.5879 43.4977C31.6641 43.6208 31.6641 43.6677 31.5703 43.9606C31.4824 44.2419 31.4766 44.4294 31.5059 45.3259C31.5293 45.8942 31.5645 46.404 31.582 46.4567C31.5996 46.5095 31.5937 46.5505 31.5645 46.5505C31.4531 46.5505 31.0195 45.6188 30.9023 45.1384C30.8379 44.8688 30.7676 44.3298 30.7441 43.943C30.7031 43.1286 30.8086 42.4782 31.0664 41.8923L31.2246 41.5407L31.2656 42.1559C31.2832 42.4958 31.3477 42.9001 31.4004 43.0641ZM41.1387 42.7829C41.3086 43.7438 41.1504 45.0739 40.7754 45.8884C40.3887 46.7263 40.3887 46.7263 40.4297 45.4313C40.4648 44.4352 40.459 44.236 40.3711 43.9723C40.2773 43.6794 40.2773 43.6618 40.3945 43.4157C40.5586 43.0817 40.6816 42.4489 40.6934 41.9509L40.6992 41.5407L40.875 41.904C40.9687 42.1091 41.0918 42.5016 41.1387 42.7829ZM32.6074 46.8727C32.666 47.3063 32.8887 47.8454 33.1758 48.2614C33.3457 48.5075 33.3457 48.5251 33.3281 49.1696C33.3164 49.527 33.2812 49.9372 33.2461 50.0778C33.2168 50.2184 33.1875 50.4352 33.1875 50.5641C33.1875 50.7634 33.1758 50.7809 33.1055 50.7106C32.9121 50.5114 32.6016 49.9138 32.6016 49.738C32.6016 49.6266 32.5664 49.5388 32.5195 49.5212C32.4141 49.4802 32.2207 48.8473 32.127 48.2497C32.0273 47.5817 32.1504 46.697 32.4199 46.2399L32.5137 46.07L32.5312 46.2692C32.5371 46.3747 32.5723 46.6442 32.6074 46.8727ZM39.668 46.5856C39.8496 47.0778 39.9082 47.7868 39.8145 48.3434C39.7266 48.8708 39.5273 49.4919 39.416 49.5798C39.3691 49.6149 39.3457 49.6735 39.3691 49.7087C39.416 49.7966 39.2227 50.2126 38.9824 50.5348L38.7832 50.7985L38.7422 50.4177C38.7187 50.2067 38.6836 49.6911 38.666 49.2751L38.6309 48.5134L38.8359 48.1618C39.1934 47.57 39.3984 46.8962 39.3984 46.2868C39.3984 45.9821 39.4863 46.07 39.668 46.5856ZM34.4414 49.5095C34.5 49.7028 34.6055 49.9899 34.6699 50.1481L34.793 50.4352L34.8984 50.1833L35.0098 49.9255L35.1211 50.113C35.2266 50.2888 35.2617 50.3005 35.5605 50.3005C35.9297 50.3005 35.918 50.2595 35.7949 50.945C35.748 51.2204 35.707 51.5544 35.707 51.6891V51.9411H35.4082C35.0039 51.9411 34.9102 51.8766 34.8281 51.5309C34.7344 51.1325 34.6523 51.1091 34.6523 51.4723C34.6523 51.7595 34.6465 51.7712 34.5234 51.7302C34.3242 51.6716 34.0898 51.5427 33.9902 51.443C33.7559 51.2145 33.8203 49.9489 34.0957 49.3864C34.1836 49.2048 34.2715 49.0817 34.2949 49.111C34.3184 49.1345 34.3828 49.3161 34.4414 49.5095ZM37.8047 49.404C38.0098 49.8845 38.0684 50.195 38.0625 50.7634C38.0625 51.2614 38.0508 51.3259 37.9219 51.4489C37.8516 51.5251 37.6875 51.6247 37.5703 51.6774L37.3477 51.7653V51.6071C37.3477 51.5134 37.3301 51.3786 37.3066 51.3024C37.2773 51.1852 37.2539 51.2204 37.1602 51.5134C37.043 51.9001 36.9902 51.9411 36.5508 51.9411H36.3105L36.2109 51.3083C36.1582 50.9626 36.0996 50.5934 36.0762 50.488L36.0469 50.3005H36.375C36.6914 50.3005 36.7148 50.2946 36.7676 50.1247C36.8496 49.8962 36.9199 49.902 37.0371 50.154C37.0898 50.2653 37.1484 50.3591 37.1719 50.3591C37.1895 50.3591 37.2949 50.0837 37.4062 49.7438C37.5176 49.404 37.623 49.1286 37.6465 49.1286C37.6641 49.1286 37.7402 49.2516 37.8047 49.404Z" fill="white"/>
<path d="M33.7148 23.9571C33.7148 23.9688 33.8262 24.045 33.9668 24.127C34.4062 24.3848 34.8164 24.7539 35.1211 25.1524C35.5195 25.6856 35.6484 26.043 35.6484 26.6348C35.6484 27.168 35.5898 27.3321 35.3906 27.3321C35.1621 27.3321 34.3008 26.9043 33.8613 26.5704C33.4101 26.2305 33.4687 26.3184 34.1016 26.9512C34.4355 27.2852 34.5293 27.4141 34.5937 27.6543C34.7168 28.1231 34.9219 28.5508 35.2969 29.1192C35.6601 29.6758 35.8418 30.1797 35.918 30.8536C35.9414 31.0469 35.9766 31.1875 36 31.1582C36.0234 31.1348 36.0703 30.9121 36.1055 30.6719C36.2109 29.9688 36.3223 29.6758 36.75 29.0196C36.9726 28.6739 37.1836 28.3223 37.2187 28.2286C37.2539 28.1407 37.3535 27.877 37.4414 27.6543C37.5586 27.3321 37.6816 27.1563 37.9863 26.834C38.4434 26.3536 38.6309 26.1075 38.3437 26.3711C37.8047 26.8516 36.7031 27.4434 36.5391 27.3379C36.3633 27.2325 36.3047 26.7051 36.416 26.2246C36.5625 25.5801 37.1426 24.7657 37.793 24.2969C37.998 24.1504 38.1504 24.0157 38.1387 24.0039C38.1269 23.9922 37.7519 24.1387 37.3066 24.3321C35.9473 24.918 36.0234 24.9121 34.9922 24.4551C34.4238 24.1973 33.7793 23.9336 33.7324 23.9336C33.7207 23.9336 33.7148 23.9454 33.7148 23.9571Z" fill="white"/>
<path d="M33.6152 33.4141C33.4863 33.502 33.416 33.7129 33.4805 33.8301C33.5098 33.8945 33.5391 34.0762 33.5391 34.2344C33.5391 34.5156 33.5508 34.5391 33.8379 34.7676C34.0078 34.9023 34.1836 35.0078 34.2422 35.0078C34.3887 35.0078 34.4531 35.1133 34.5703 35.5234C34.623 35.7227 34.6875 35.8867 34.7109 35.8867C34.7344 35.8867 34.7695 35.6641 34.7871 35.3945C34.8047 35.1133 34.8633 34.8145 34.916 34.709L35.0156 34.5215L34.5234 34.041C34.0254 33.5547 33.7266 33.3438 33.6152 33.4141Z" fill="white"/>
<path d="M38.0215 33.4961C37.7402 33.7012 37.3945 34.0176 37.1602 34.293C36.9492 34.5332 36.9434 34.5508 37.0313 34.6855C37.084 34.7676 37.1309 35.0254 37.1543 35.3535C37.1719 35.6465 37.207 35.8867 37.2246 35.8867C37.2481 35.8867 37.3242 35.6875 37.3945 35.4473C37.5176 35.0371 37.5352 35.0078 37.6875 35.0078C37.9043 35.0078 38.4024 34.5801 38.4024 34.3926C38.4024 34.3164 38.4316 34.123 38.4668 33.9648C38.5313 33.707 38.5254 33.6602 38.4258 33.5254C38.291 33.3379 38.2441 33.3379 38.0215 33.4961Z" fill="white"/>
<path d="M18.832 35.828C18.6563 36.5839 18.7734 37.5272 19.1016 38.1014C19.4648 38.7225 19.8223 38.9921 21.3281 39.7479C21.9844 40.076 22.4883 40.3749 22.6758 40.5389C23.0801 40.8964 23.3027 41.3475 23.4316 42.0507C23.6016 43.0292 23.9883 43.6678 25.0195 44.6757C25.6465 45.2909 25.6523 45.285 25.1133 44.5292C24.6563 43.8905 24.4277 43.4452 24.3047 42.9706C24.2285 42.6718 24.2227 42.537 24.2813 42.0858C24.3984 41.1835 24.293 40.8202 23.7422 40.2401C23.0977 39.5721 22.2422 39.0624 21.0879 38.6757C20.291 38.4003 19.9395 38.2186 19.6699 37.9198C19.3008 37.5038 19.125 36.9764 18.9668 35.7987L18.9199 35.4471L18.832 35.828Z" fill="white"/>
<path d="M52.9746 35.5938C52.9512 35.6759 52.9336 35.8575 52.9336 36.004C52.9277 36.7481 52.5762 37.668 52.1543 38.0255C51.832 38.3067 51.6387 38.4005 50.7949 38.6993C49.6406 39.1094 48.9727 39.4903 48.3164 40.129C47.6894 40.7325 47.5605 41.1192 47.6719 42.0567C47.7187 42.4962 47.7187 42.7012 47.666 42.9415C47.5664 43.3927 47.2617 43.9903 46.8574 44.5352C46.2832 45.3028 46.3125 45.3321 46.9746 44.6641C48.0293 43.5919 48.3281 43.0821 48.5391 42.0098C48.6855 41.2481 48.8144 41.0079 49.3008 40.5509C49.582 40.293 49.8809 40.1114 50.6543 39.7305C52.1133 39.004 52.5879 38.629 52.8984 37.9669C53.0977 37.5333 53.1738 37.1759 53.168 36.6016C53.168 36.004 53.0449 35.3536 52.9746 35.5938Z" fill="white"/>
</g>
<defs>
<clipPath id="clip0_630_3588">
<rect width="70" height="70" fill="white"/>
</clipPath>
</defs>
</svg>
