<svg width="99" height="99" viewBox="0 0 99 99" fill="none" xmlns="http://www.w3.org/2000/svg">
<path d="M22.1746 27.5597C22.135 27.9161 22.8576 28.5002 22.9863 28.2131C23.0259 28.1141 23.1942 27.8468 23.3427 27.6191C23.7189 27.0845 23.6694 26.936 23.1447 26.8469C22.6794 26.7776 22.234 27.1043 22.1746 27.5597Z" fill="black"/>
<path d="M27.9757 22.6891C27.9163 22.9465 27.7282 23.3722 27.5402 23.6395C27.263 24.0355 27.2432 24.0949 27.4709 24.0058C27.7282 23.887 27.7282 23.9068 27.5501 24.184C27.4412 24.3523 27.1541 24.7581 26.8868 25.0848C26.4611 25.6293 26.372 25.6788 25.9562 25.6392C25.7088 25.6293 25.3227 25.7382 25.095 25.8867C24.7485 26.1144 24.7188 26.1639 24.9366 26.1639C25.6494 26.1837 25.3425 26.8271 24.5505 26.9261C24.1347 26.9855 24.1248 26.9954 24.105 27.3716C24.0852 27.6686 23.8377 28.0547 22.8874 29.1634C22.2439 29.9455 21.551 30.8562 21.3629 31.2027C20.9075 32.0541 20.8778 32.0442 21.2144 31.1532C21.3827 30.7077 21.4322 30.3414 21.3332 30.2425C21.1649 30.0742 21.0659 30.1138 20.4224 30.5592C20.0264 30.8562 20.0066 30.8958 20.2343 31.1235C20.4026 31.2918 20.4422 31.5492 20.3828 31.9056C20.3234 32.2026 20.2739 32.4896 20.2739 32.5292C20.264 32.5589 20.5016 32.7173 20.7986 32.8757C21.2738 33.1133 21.3629 33.1034 21.5708 32.8361C21.6995 32.648 21.8182 32.5886 21.838 32.6678C21.9172 32.9648 21.4718 33.7667 20.9669 34.2715C20.4422 34.7764 20.4323 34.7863 20.6006 34.3606L20.7689 33.935L20.2244 34.1231C19.7691 34.2814 19.6503 34.3804 19.5315 34.6972C19.3632 35.1427 19.1949 35.1922 19.1553 34.7962C19.1355 34.6378 19.0959 34.519 19.0563 34.519C18.9672 34.5289 17.1952 37.7463 16.3834 39.35C15.6014 40.8844 14.9084 43.1019 14.8292 44.2898C14.7599 45.2699 14.8589 45.4283 15.3143 45.1115C15.443 45.0224 15.5915 44.9927 15.641 45.0422C15.7103 45.0917 15.8984 45.2006 16.0666 45.2897L16.3834 45.4481L16.2052 45.0125C15.9973 44.4878 16.0864 44.0226 16.5715 43.0029C16.9675 42.1713 17.1457 42.0525 17.1655 42.5673C17.1952 42.9534 17.6704 44.0819 18.0663 44.6957L18.3435 45.1115L18.2445 44.4185C18.1851 44.0423 18.1554 43.2009 18.1851 42.5574C18.2148 41.5774 18.1653 41.3299 17.8782 41.023C17.7001 40.825 17.4922 40.5973 17.4328 40.5181C17.1655 40.2112 17.6605 39.3401 18.1158 39.3401C18.294 39.3401 18.3534 39.5579 18.3732 40.2508C18.393 40.7656 18.4821 41.2507 18.5712 41.3398C18.69 41.4586 18.7296 41.2606 18.7098 40.6864C18.6801 40.0034 18.7296 39.8549 19.0068 39.6767C19.383 39.4589 19.5216 38.9243 19.1751 39.0134C19.0662 39.0431 18.9771 39.0134 18.9771 38.9738C19.0266 38.5877 19.5909 36.4395 19.68 36.3504C19.8482 36.1822 20.3432 36.5187 20.5115 36.9246C20.6105 37.1226 20.5907 37.5384 20.4917 37.8552C20.3927 38.1719 20.1452 38.954 19.9472 39.6074C19.6701 40.5379 19.4919 40.8943 19.1058 41.2804C18.69 41.6962 18.6405 41.8051 18.7989 41.9635C18.8979 42.0625 19.1058 42.1317 19.2543 42.1218C19.4028 42.1119 19.581 42.1515 19.6602 42.2307C19.8581 42.4287 19.6701 43.2504 19.2543 43.9236C19.0563 44.2601 18.7098 45.0422 18.5118 45.6758C18.2346 46.4875 18.0762 46.7845 17.9772 46.6855C17.9079 46.6162 17.6506 46.141 17.4328 45.6263C17.1952 45.1115 16.8784 44.5967 16.72 44.4779C16.2547 44.1116 16.1062 44.4779 16.4527 45.161C16.72 45.6659 16.7299 45.7946 16.522 45.9233C16.3834 46.0024 16.1755 46.3093 16.0567 46.6063C15.9379 46.8835 15.8093 47.0914 15.7697 47.0518C15.7301 47.0122 15.6905 46.636 15.6707 46.2202L15.6608 45.458L15.4826 46.4677C15.3935 47.032 15.1856 48.1506 15.0272 48.9822C14.75 50.4275 14.6411 52.6549 14.8193 52.8331C14.8688 52.8826 15.0272 52.7836 15.1658 52.5856C15.542 52.0906 15.7004 52.348 15.839 53.7538C15.8983 54.4071 15.9775 54.9813 15.9973 55.0011C16.0864 55.0902 16.1359 54.9219 16.1755 54.3081C16.1953 53.9319 16.2844 53.6845 16.3735 53.6944C16.4626 53.7241 16.5319 54.7833 16.522 56.0405C16.522 58.3174 16.5319 58.3471 16.9576 58.6342C17.4526 58.9708 17.8684 59.05 17.5615 58.7431C16.9873 58.1689 16.4725 56.783 16.7398 56.5157C16.8883 56.3672 17.1556 56.7335 18.2148 58.5253C18.7791 59.4856 19.5612 60.6438 19.9571 61.119L20.6897 61.9703L19.7295 61.7426C19.1949 61.6239 18.8286 61.5942 18.9177 61.6832C19.0068 61.7723 19.1355 62.396 19.2048 63.0593C19.2642 63.7126 19.3335 64.2769 19.3533 64.2967C19.3632 64.3066 19.4721 64.5541 19.5909 64.8313C19.7097 65.1085 19.8186 65.3164 19.8384 65.2966C19.8582 65.2768 19.7988 64.8808 19.6899 64.4155L19.5117 63.584L19.9274 63.7423C20.5214 63.9799 20.8382 64.3363 22.0261 66.0786C23.1151 67.6625 23.8971 68.5436 24.402 68.7515C24.6594 68.8505 24.6693 68.8406 24.4317 68.603C24.1248 68.2763 24.0357 67.7318 24.2733 67.6724C24.5109 67.613 25.1148 68.2169 25.6197 68.999C26.174 69.8503 26.075 70.1077 25.4613 69.3752L24.996 68.8109L24.7188 69.1871C24.3921 69.6523 24.3822 69.6424 22.9567 68.4149C22.3825 67.9001 21.7688 67.425 21.5906 67.3458C21.1253 67.1379 20.957 67.4448 21.2738 67.9199C21.6896 68.5139 22.4221 69.0287 24.204 69.9394C25.9562 70.8403 26.6987 71.3056 26.5601 71.4442C26.5106 71.4937 26.1443 71.4838 25.7385 71.4343C24.9663 71.3353 24.9465 71.4145 25.6296 71.7411C25.8572 71.85 26.0849 71.8797 26.1344 71.8104C26.2037 71.7213 26.4908 71.9292 27.1046 72.543C27.5798 73.0182 27.946 73.4241 27.9163 73.4538C27.8866 73.4835 27.6293 73.5626 27.3521 73.622L26.8274 73.7507L27.1145 74.018C27.6788 74.5625 28.4113 75.0377 28.4806 74.909C28.5598 74.7506 31.1832 76.3048 33.2027 77.7105C34.0144 78.2649 34.6678 78.6609 34.6381 78.5718C34.5886 78.3639 35.3113 78.5718 35.8755 78.9381C36.5289 79.3539 36.2715 78.8589 35.4796 78.1659L34.7965 77.562L35.4895 77.958C35.8755 78.1659 36.7071 78.7797 37.3407 79.3143C37.9841 79.8587 38.7662 80.4428 39.083 80.6408L39.6571 80.9774L39.6175 80.5814L39.5779 80.1854L40.0531 80.3834C41.0926 80.8091 41.1619 80.8586 40.8451 81.0764L40.5481 81.2744L41.1223 81.3931C41.4391 81.4525 41.8053 81.601 41.9241 81.7198C42.1221 81.9178 42.9339 81.997 43.0923 81.8386C43.1319 81.799 43.023 81.6703 42.8349 81.5614C42.6468 81.4327 43.0725 81.502 43.7654 81.7C44.4683 81.9079 45.1415 82.1653 45.2702 82.294C45.7354 82.7593 46.8046 82.9573 48.1608 82.8088C48.9033 82.7395 49.6556 82.7197 49.8338 82.7791C50.1605 82.888 52.9423 82.8187 54.8034 82.6405C56.1695 82.5217 58.3969 82.0762 59.9214 81.6406C60.6243 81.4327 61.1094 81.3635 61.0797 81.4723C61.0401 81.6505 65.6928 80.3834 67.1876 79.7993C68.8112 79.1658 70.0585 78.4332 70.8406 77.6511C71.2365 77.2552 71.5434 76.8889 71.5137 76.8592C71.484 76.8295 71.3256 76.7701 71.1672 76.7107C70.9692 76.6513 70.9099 76.5919 70.9791 76.5226C71.0286 76.4731 70.9989 76.3444 70.9 76.2454C70.7416 76.087 70.8901 75.9187 72.7314 74.0774C74.8894 71.9193 75.8893 70.6423 77.2851 68.3357C77.7009 67.6428 78.0573 67.0686 78.0672 67.0587C78.087 67.0389 78.3147 67.227 78.582 67.4943C79.1561 68.0684 79.7006 68.1971 80.057 67.8407L80.3144 67.5834L79.7798 67.6032C79.3442 67.623 79.2056 67.5636 78.9581 67.2171C78.6315 66.7518 78.5721 66.2568 78.7601 65.653C78.8789 65.257 78.9086 65.2471 79.0868 65.4253C79.4729 65.8113 79.7798 65.5441 80.9776 63.8315C81.6013 62.9504 82.2052 62.0693 82.3339 61.8812C82.5121 61.5843 82.5616 61.5744 82.7991 61.812C83.0961 62.1089 83.1258 62.099 83.5614 61.2675C83.7495 60.921 83.9079 60.624 83.9277 60.6042C83.9376 60.5943 84.1059 60.7428 84.294 60.9309C84.5118 61.1487 84.6108 61.3665 84.5613 61.5348C84.5217 61.6932 84.5316 61.7823 84.5712 61.7427C84.7097 61.6041 84.8384 60.6438 84.7295 60.6537C84.6701 60.6537 84.5811 60.426 84.5415 60.1686L84.4524 59.6836L84.0168 60.1191C83.7693 60.3666 83.4129 60.6636 83.2149 60.8022C82.8981 61.02 82.8288 61.0101 82.7496 60.7725C82.71 60.6141 82.522 60.3468 82.3438 60.1686L82.0072 59.8321L82.8288 59.149L83.6604 58.4758L83.6208 57.8423C83.5911 57.4958 83.7297 56.684 83.9079 56.0306C84.096 55.3872 84.2544 54.5358 84.2445 54.1695C84.2346 53.7835 84.2643 53.5756 84.294 53.7043C84.3336 53.8429 84.3732 53.7835 84.3831 53.536C84.4227 53.0806 84.3336 52.8727 84.294 53.3083C84.2742 53.5063 84.2346 53.5459 84.1554 53.4667C84.096 53.4073 84.0861 53.2588 84.1356 53.1499C84.1752 53.0311 84.1455 52.8628 84.0465 52.7638C83.9574 52.6747 83.8287 52.2886 83.7693 51.8927L83.6505 51.1997L83.3139 51.9125C83.007 52.5361 82.0171 54.0013 81.6607 54.3576C81.5914 54.4269 81.5221 54.1794 81.5221 53.8033C81.5122 53.2786 81.5716 53.1202 81.7894 53.0608C82.0171 52.9915 82.0468 52.843 81.9577 52.2391C81.8884 51.8333 81.7498 51.2393 81.6409 50.9126C81.4429 50.2988 81.0568 47.9725 81.0667 47.428C81.0667 47.2498 81.0073 46.4776 80.9281 45.6857C80.8489 44.8937 80.7301 43.587 80.6707 42.7752C80.5223 40.8646 79.9481 38.073 79.3145 36.1525C78.8987 34.9249 78.8393 34.5883 79.0274 34.4794C79.2254 34.3606 79.166 34.2617 78.6117 33.6281C78.2652 33.242 77.9781 32.8559 77.9781 32.7965C77.9781 32.7173 78.1464 32.6282 78.3642 32.5886C79.1264 32.4599 79.0967 32.3115 78.1761 31.5492C77.0079 30.579 76.3348 29.8861 76.2457 29.5396C76.2061 29.3812 76.2259 29.302 76.2952 29.3713C76.4437 29.5198 77.0178 29.3614 77.0673 29.1535C77.0871 29.0545 76.7901 28.8961 76.3645 28.7476C75.7606 28.5595 75.6517 28.4902 75.7804 28.3616C75.8695 28.2725 75.8299 27.9359 75.6913 27.5795C75.5527 27.2429 75.4735 26.9063 75.5131 26.8271C75.5428 26.738 75.0181 26.352 74.0579 25.7481C72.2364 24.6393 72.0384 24.4612 72.2463 24.1147C72.3849 23.8771 72.4146 23.887 72.6819 24.2731C72.8897 24.5602 73.0382 24.669 73.1867 24.6393C73.8698 24.4908 73.6025 24.085 72.4047 23.5009C71.9691 23.3029 71.4048 22.9168 71.1573 22.6693C70.7119 22.2437 70.6822 22.2338 70.4941 22.5209L70.2862 22.8277L68.9893 21.4715C67.0193 19.4025 67.0094 19.3926 66.4749 19.5312C66.0888 19.6401 65.7819 19.5312 64.5445 18.8877C62.7626 17.977 60.4065 17.0662 58.7335 16.6406C58.0603 16.4624 57.4366 16.2545 57.3673 16.1852C57.298 16.1159 56.8328 16.0268 56.3378 16.007C55.8428 15.9674 54.8331 15.8684 54.1005 15.7892C52.2889 15.5813 49.319 15.6011 47.4876 15.8288C46.1116 15.9971 42.8646 16.6504 42.5082 16.8286C42.429 16.8682 42.33 16.5515 42.2805 16.0664C42.1914 15.1457 41.9142 14.8289 41.3203 14.9477C40.9441 15.0269 40.9441 15.0269 41.3203 15.1655C41.637 15.2843 41.7162 15.3833 41.7756 15.7199C41.9043 16.3238 41.736 16.7296 41.2114 17.1157C40.9441 17.3038 40.6471 17.4622 40.5481 17.482C40.4491 17.482 40.1422 17.6107 39.865 17.7493C39.4096 17.9869 39.37 17.9869 39.3503 17.6899C39.3404 17.5018 39.281 17.3038 39.2216 17.2444C38.984 17.0068 37.796 17.0662 36.3309 17.3632C34.6777 17.7097 34.3312 17.9572 34.4203 18.7392L34.4599 19.1352L33.4304 19.056C32.4107 18.9867 32.381 18.9966 31.8266 19.5312C31.5198 19.8381 30.8862 20.2737 30.4209 20.5212C29.9556 20.7686 29.2429 21.2438 28.8172 21.5903C28.2034 22.1249 28.0549 22.313 27.9757 22.6891ZM28.441 22.1645C28.441 22.2239 28.3618 22.3229 28.2628 22.3625C28.1539 22.412 28.1539 22.3526 28.2628 22.2437C28.3618 22.1249 28.4509 22.0952 28.441 22.1645ZM38.4692 18.1156C38.8157 18.1849 38.8256 18.1948 38.4098 18.3928C37.994 18.5907 37.8554 18.571 37.8455 18.3037C37.8455 18.1057 38.0732 18.0364 38.4692 18.1156ZM15.839 48.3486C15.8884 48.5565 16.0666 49.2495 16.2349 49.893C16.4032 50.5364 16.5418 51.0908 16.5517 51.1205C16.5616 51.1502 16.4032 51.2294 16.2151 51.2789L15.8687 51.3878L15.9281 50.9126C15.9577 50.6453 15.9379 50.3879 15.8885 50.3384C15.7796 50.2295 15.6212 48.1308 15.7103 48.0417C15.74 48.012 15.7994 48.1506 15.839 48.3486ZM20.066 55.704C20.1254 55.9811 20.1254 55.9811 20.0066 55.7634C19.9373 55.6347 19.8285 55.4664 19.779 55.3971C19.6899 55.308 19.7097 55.2882 19.8285 55.3476C19.9274 55.3872 20.0264 55.5456 20.066 55.704ZM21.9667 55.0308C22.0162 55.0803 22.036 55.2387 22.0261 55.3872C22.0063 55.605 21.9766 55.6347 21.8578 55.5159C21.7787 55.4367 21.7094 55.308 21.7193 55.2387C21.7094 55.0506 21.8578 54.9219 21.9667 55.0308ZM21.0263 56.4662C21.0461 56.486 21.1649 56.5454 21.2738 56.5949C21.3926 56.6543 21.4322 56.9513 21.3827 57.377L21.3134 58.06L20.9669 57.4166C20.7293 56.9612 20.6798 56.7335 20.8085 56.6048C20.9075 56.5058 21.0065 56.4464 21.0263 56.4662ZM21.9073 56.4167C22.0558 56.684 22.333 57.7136 22.5211 58.6936C22.7191 59.6836 23.0458 61.0398 23.2636 61.7129L23.6596 62.9603L22.2241 61.5843C20.8778 60.2775 20.7887 60.1686 20.759 59.7232C20.7392 59.4658 20.7788 59.2084 20.858 59.1292C20.9273 59.0599 20.9471 58.8223 20.8976 58.5946C20.7986 58.1392 20.9867 58.0105 21.2936 58.3174C21.7391 58.7629 21.9865 57.4859 21.6698 56.4761C21.4322 55.7634 21.5411 55.7337 21.9073 56.4167ZM67.8509 20.5311C68.2865 20.9666 67.8707 20.8874 67.2767 20.4321C66.7917 20.0658 66.7818 20.0559 67.1579 20.1549C67.3856 20.2044 67.6826 20.3826 67.8509 20.5311ZM23.8081 64.2769C23.8179 64.1284 23.8872 64.0195 23.9565 64.0096C24.1545 64.0096 24.7386 65.5441 24.5901 65.6925C24.3129 65.9697 23.2636 65.356 22.9963 64.7521L22.828 64.3858L23.3131 64.4551C23.6893 64.5145 23.7883 64.4749 23.8081 64.2769ZM80.1362 62.9108C80.2352 63.0098 80.1857 63.1583 79.9679 63.3761L79.6313 63.6929L79.7402 63.3068C79.8788 62.8118 79.958 62.7326 80.1362 62.9108ZM79.9778 64.4947C80.2946 64.5343 80.0867 64.9402 79.6511 65.158C79.1462 65.4055 78.9581 65.2174 79.1759 64.6828C79.3442 64.2571 79.3739 64.2274 79.562 64.3363C79.6709 64.4056 79.8689 64.4848 79.9778 64.4947ZM70.3456 76.384C70.6228 76.384 70.0882 76.8394 69.6031 77.0275C69.1675 77.1859 69.1774 77.176 69.6625 76.7899C69.9397 76.5721 70.2367 76.3939 70.3456 76.384Z" fill="black"/>
<path d="M26.1345 25.0848C26.3028 24.9561 26.5404 24.7186 26.679 24.5404C26.8076 24.3721 26.6592 24.481 26.3622 24.778C26.0652 25.0749 25.9563 25.2234 26.1345 25.0848Z" fill="black"/>
<path d="M39.5184 16.9871C39.7956 17.0267 40.1025 17.1356 40.2114 17.2445C40.3203 17.3534 40.4193 17.3534 40.4391 17.2742C40.5183 16.9574 40.0926 16.7495 39.558 16.8287L39.0036 16.9277L39.5184 16.9871Z" fill="black"/>
<path d="M16.5814 59.5056C16.6012 59.9807 16.819 60.2975 17.0764 60.2381C17.1655 60.2084 17.3338 60.2975 17.4526 60.4163C17.6802 60.6242 17.6802 60.6242 17.6307 60.2777C17.5813 59.9708 17.5615 59.951 17.4031 60.05C17.1655 60.2084 17.1655 60.2084 16.9081 59.5749C16.6606 58.9512 16.5616 58.9314 16.5814 59.5056Z" fill="black"/>
<path d="M16.3239 62.5547C16.5318 63.02 16.6605 63.1685 16.908 63.2575C17.4822 63.4159 17.4327 63.1685 16.7793 62.5151C16.4229 62.1587 16.116 61.8914 16.0962 61.9112C16.0764 61.931 16.1754 62.228 16.3239 62.5547Z" fill="black"/>
<path d="M17.4922 64.6732C17.611 65.1088 17.6704 65.4849 17.6308 65.5245C17.5318 65.6235 16.9576 65.5839 16.7101 65.4552C16.6012 65.4058 16.6606 65.5443 16.8388 65.7621C17.0071 65.9898 17.1655 66.1086 17.1853 66.0492C17.1952 65.9799 17.3734 66.0789 17.5615 66.267C17.7595 66.465 17.9674 66.5739 18.0169 66.5244C18.0763 66.465 18.0763 66.3858 18.0268 66.3363C17.9674 66.2769 17.9872 65.7621 18.0664 65.188C18.1951 64.1485 18.0961 63.7921 17.6209 63.7921C17.2645 63.7921 17.2546 63.8416 17.4922 64.6732Z" fill="black"/>
<path d="M18.6107 67.1183C18.6701 67.1777 18.779 67.148 18.8582 67.0688C19.0463 66.8807 18.9869 66.8213 18.7196 66.9302C18.6107 66.9797 18.5612 67.0688 18.6107 67.1183Z" fill="black"/>
<path d="M79.166 32.797C79.3046 33.1533 80.5223 34.4898 80.5124 34.2819C80.5124 34.1631 79.2056 32.4406 79.1066 32.4406C79.067 32.4406 79.0868 32.599 79.166 32.797Z" fill="black"/>
<path d="M80.5916 38.4395C80.839 38.8651 81.0964 39.3205 81.1459 39.4492C81.2746 39.7957 81.6409 39.2116 81.6112 38.687C81.5914 37.9742 81.3637 37.7267 80.7103 37.6871L80.1065 37.6574L80.5916 38.4395Z" fill="black"/>
<path d="M81.2844 40.3004C81.324 40.4785 81.4131 40.627 81.4626 40.6171C81.5022 40.6171 81.4824 40.4587 81.4032 40.2608C81.2448 39.8252 81.1458 39.8648 81.2844 40.3004Z" fill="black"/>
<path d="M81.8982 41.6867C82.3338 42.5579 82.3635 42.5282 82.1556 41.4887L82.017 40.8354L82.413 41.2313C82.6209 41.459 82.8486 41.8055 82.9079 42.0233C83.1752 43.0033 83.7494 42.9835 83.8583 42.0035C83.8979 41.5481 83.8682 41.4788 83.5712 41.3798C83.3633 41.3303 83.096 41.1026 82.8683 40.776C82.512 40.3008 82.4724 40.281 82.116 40.4394C81.5022 40.7166 81.4824 40.8354 81.8982 41.6867Z" fill="black"/>
<path d="M82.2349 45.7851C82.3537 45.9039 82.4626 46.5276 82.5022 47.1612C82.5615 48.2699 82.7595 48.7451 83.106 48.656C83.3931 48.5867 83.4426 48.7748 83.2347 49.1213L83.0367 49.4776L83.403 49.2698C83.6604 49.1312 83.7792 48.953 83.8485 48.6659L83.9277 48.2501L83.5416 48.3194C82.9278 48.3986 82.8585 48.0125 83.403 47.468L83.8485 47.0226L83.4129 46.6068C82.9476 46.1415 81.928 45.4386 82.2349 45.7851Z" fill="black"/>
<path d="M83.4129 44.7057C83.4327 44.8047 83.4822 44.874 83.5416 44.874C83.5911 44.8839 83.5911 44.7849 83.5317 44.6661C83.4327 44.4285 83.3436 44.4582 83.4129 44.7057Z" fill="black"/>
<path d="M83.8681 45.9534C83.9572 46.3395 84.076 46.6562 84.1156 46.6562C84.1354 46.6562 84.3433 46.5474 84.5413 46.4088C84.868 46.2009 84.9175 46.092 84.868 45.6861C84.7987 45.0624 84.6799 44.9634 84.1255 45.1218L83.68 45.2505L83.8681 45.9534Z" fill="black"/>
<path d="M83.7099 50.0712L83.7297 50.7642L83.8287 50.2296C83.9376 49.6653 83.9178 49.3683 83.7693 49.3584C83.7297 49.3584 83.7 49.6851 83.7099 50.0712Z" fill="black"/>
<path d="M84.4919 59.2484C84.5117 59.3276 84.581 59.3573 84.6305 59.3078C84.6899 59.2484 84.6899 59.1494 84.6404 59.0999C84.581 59.0405 84.5216 59.0207 84.5018 59.0405C84.4721 59.0702 84.4622 59.1593 84.4919 59.2484Z" fill="black"/>
<path d="M82.4228 63.5147C82.4327 64.3562 82.4624 64.465 82.6109 64.1978C82.9178 63.6533 83.0564 62.9603 82.898 62.7425C82.5812 62.2674 82.403 62.5643 82.4228 63.5147Z" fill="black"/>
<path d="M80.3341 65.3859L80.1163 65.96L80.5024 65.5938C80.7598 65.3562 80.8588 65.1582 80.7994 65.0196C80.6509 64.6929 80.5618 64.7622 80.3341 65.3859Z" fill="black"/>
<path d="M75.0875 72.0187C74.2064 73.0978 73.0284 74.454 72.4641 75.0381L71.4445 76.0973L72.6225 75.2955C73.3056 74.85 74.4836 73.8699 75.4043 73.0285L76.9882 71.5435L76.5427 71.593L76.0972 71.6425L76.2358 71.2862C76.3249 71.0981 76.711 70.5536 77.107 70.0784C77.6416 69.4449 77.7406 69.2667 77.503 69.3855C77.0575 69.6329 76.909 69.8012 75.0875 72.0187Z" fill="black"/>
</svg>
