<svg width="83" height="82" viewBox="0 0 83 82" fill="none" xmlns="http://www.w3.org/2000/svg">
<mask id="path-1-inside-1_980_3625" fill="white">
<path d="M36.5153 3.37235C36.6286 3.72653 36.5617 3.85053 36.2157 3.91141L35.9159 3.96034L36.0932 4.07953C36.2124 4.16556 36.2497 4.21948 36.2165 4.25269C36.1667 4.30252 35.5462 4.6037 35.182 4.76262C35.0871 4.80054 35.0315 4.93595 34.9987 5.18544L34.9409 5.55113L33.9491 6.5771C33.4042 7.14484 32.9496 7.6451 32.949 7.70267C32.9386 7.75869 32.7398 7.99168 32.4876 8.22108C32.2453 8.45203 31.9043 8.85004 31.7267 9.09599C31.4807 9.45609 31.3229 9.61385 30.996 9.8267C30.6873 10.0328 30.5088 10.2113 30.2721 10.5392C30.1029 10.7769 29.7639 11.2185 29.5184 11.521C29.2771 11.8194 29.0092 12.2241 28.9277 12.4083C28.8041 12.6915 28.7392 12.7678 28.5799 12.8244C28.3102 12.9117 27.635 13.5983 27.1963 14.2308C26.7343 14.8981 25.1059 16.4581 24.3161 16.997C23.8518 17.3131 23.6841 17.4693 23.395 17.8611C22.8401 18.6098 20.5903 20.9851 16.7884 24.8555L15.0602 26.6064L14.8585 26.5459L14.651 26.4796L14.6182 26.7291C14.588 26.9646 14.5231 27.0409 13.8563 27.6279C13.4614 27.9886 12.9866 28.3607 12.8014 28.4661C12.5145 28.6276 12.4081 28.7454 12.0769 29.2362C11.7981 29.6633 11.6268 29.8573 11.4624 29.942C11.107 30.1263 9.58528 31.7848 9.44296 32.1324C9.26428 32.5848 7.95294 33.7479 7.54523 33.8135C7.25112 33.8681 7.01347 34.0373 6.89092 34.2967C6.82964 34.4264 6.80163 34.4316 6.62847 34.3083C6.53048 34.2352 6.32566 34.155 6.18355 34.1374L5.91335 34.0997L5.78288 34.5837C5.67633 34.9753 5.61765 35.091 5.44643 35.1938C5.32814 35.2665 5.17142 35.4004 5.08424 35.4876C4.9986 35.5846 4.84139 35.6848 4.73244 35.7254C4.57318 35.782 4.5 35.8666 4.35254 36.1509C4.25284 36.3418 4.08152 36.6272 3.97147 36.7828C3.79394 37.0288 3.73687 37.0631 3.55535 37.0393C3.43711 37.0207 3.282 37.0732 3.17665 37.1671C3.02824 37.2927 3.00278 37.3752 3.03063 37.6438C3.08224 38.094 2.97629 38.3368 2.60268 38.6192C2.03451 39.0391 2.05371 39.0085 2.19621 39.2423C2.40918 39.5882 2.40602 39.6597 2.16683 39.8191C2.03763 39.9141 1.90787 40.0667 1.85385 40.2119C1.76606 40.448 1.7619 40.4521 1.42273 40.4036C1.24121 40.3798 1.01823 40.3063 0.927493 40.2488L0.765735 40.1368L0.842854 40.4132C0.908072 40.6445 0.88676 40.7228 0.749753 40.8598C0.596139 41.0135 0.595088 41.0373 0.734039 41.1265C1.23592 41.4457 1.40593 41.6406 1.72713 42.2773C2.03383 42.8829 2.06959 42.927 2.93159 43.8554C3.42971 44.3951 3.95269 45.0011 4.12214 45.2536C4.40769 45.6637 4.44916 45.7134 4.67679 45.8165C4.87331 45.9051 4.92878 45.9523 4.97849 46.085C5.02821 46.2178 5.08368 46.2649 5.24339 46.3333C5.39895 46.4058 5.48293 46.4815 5.60521 46.6785C5.73891 46.8869 5.82289 46.9626 6.12725 47.1258C6.78574 47.4937 6.98265 47.7985 7.12218 48.6854C7.17334 49.0106 7.28772 49.4322 7.36904 49.6131L7.52289 49.9496L7.93094 50.1916C8.15752 50.3186 8.74803 50.743 9.2395 51.1182C9.79785 51.552 10.2106 51.8236 10.3262 51.8562C10.4361 51.8831 10.7644 51.954 11.0616 52.0103C11.3587 52.0667 11.6802 52.1557 11.771 52.2132C11.8757 52.2681 12.1826 52.5999 12.5615 53.0535C13.0518 53.6352 13.2871 53.8788 13.6567 54.182C14.086 54.5282 14.1332 54.5837 14.2051 54.7968C14.2672 55.0084 14.2958 55.0369 14.498 55.1312C14.7567 55.2488 16.0449 56.5037 16.3817 56.9651C16.4921 57.117 16.7056 57.4053 16.8533 57.6111C17.0052 57.8128 17.1394 58.0549 17.1507 58.1576C17.1714 58.3194 17.1843 58.3407 17.3622 58.4023C17.5458 58.4696 17.5758 58.508 17.811 59.0255C18.0923 59.6223 18.4877 60.2419 18.7842 60.5384C19.0009 60.755 20.108 61.1647 20.4477 61.1556C20.567 61.1504 20.8045 61.1637 20.9845 61.1776C21.263 61.207 21.3195 61.2303 21.3521 61.346C21.3687 61.4207 21.3178 61.5856 21.2368 61.7122C21.1117 61.8944 21.1075 61.9898 21.1955 62.2439C21.342 62.6561 21.725 63.2882 22.0505 63.6469C22.3019 63.9315 22.3174 63.9387 22.4663 63.8469C22.6111 63.7591 22.6422 63.7736 22.9351 64.0167C23.1114 64.1598 23.4644 64.3883 23.7206 64.5199C24.1478 64.7312 24.209 64.7841 24.4453 65.0952C24.762 65.5198 27.1392 67.8638 27.6748 68.2748C27.8837 68.4422 28.3337 68.8589 28.6773 69.2109C29.1978 69.7396 29.3528 69.8697 29.6499 70.0174C29.9584 70.1764 30.0024 70.2122 30.0853 70.403C30.1418 70.5176 30.3398 70.7986 30.5243 71.0246C30.8902 71.457 32.1219 72.5973 32.6388 72.9814C33.0846 73.311 33.3101 73.553 33.3836 73.776C33.4452 73.9539 33.4851 73.9938 33.8952 74.2794C34.3152 74.5665 34.3836 74.6349 34.9387 75.3228C35.5125 76.0377 35.527 76.0688 35.4719 76.238C35.4225 76.4128 35.494 76.5922 35.577 76.5092C35.5978 76.4884 35.6875 76.4785 35.772 76.4966C35.91 76.5183 35.9328 76.5411 36.0271 76.7433C36.1519 77.0176 36.4557 77.3297 36.7274 77.4685C36.8788 77.5452 36.9373 77.6121 37.0042 77.7619C37.0767 77.9175 37.1337 77.9745 37.3178 78.0755C37.506 78.1724 37.5589 78.2336 37.6371 78.3949C37.7055 78.5546 37.7853 78.6344 38.0393 78.8137C38.2166 78.9329 38.5718 79.205 38.8263 79.418C39.0808 79.631 39.4982 79.9321 39.7377 80.0803C39.9944 80.2456 40.3568 80.5333 40.5947 80.7629C40.8269 80.9868 41.1758 81.3108 41.3806 81.4824L41.7476 81.7996L42.1685 81.3901C42.4965 81.0621 42.6578 80.9578 42.9291 80.8803C43.2705 80.7899 43.3078 80.7525 45.6136 78.4582C48.3179 75.7652 48.3843 75.6988 48.4903 75.456C48.5391 75.3388 48.618 75.2599 48.7077 75.25C48.9095 75.2193 51.0694 73.0365 51.1059 72.8404C51.1168 72.7268 51.1973 72.6578 51.4063 72.5514C51.6476 72.4356 51.7016 72.3816 51.7795 72.144C51.8548 71.9204 51.9114 71.8524 52.0624 71.8041C52.2232 71.7573 52.2574 71.7003 52.2929 71.4368C52.3194 71.2391 52.3916 71.0871 52.5042 71.0087C52.6459 70.9013 52.7034 70.9007 52.9119 71.0344C53.1882 71.2028 53.3127 71.1696 53.3471 70.9299C53.3887 70.7058 56.666 67.3487 57.2721 66.9251C57.6571 66.6542 57.7303 66.5696 57.8316 66.2972C57.9141 66.0892 57.9884 65.9807 58.0781 65.9708C58.2757 65.9443 58.4989 65.7439 58.8487 65.28C59.0636 64.9967 59.3781 64.7051 59.8238 64.362C60.543 63.8024 60.9624 63.2918 61.1894 62.6885C61.2907 62.4161 61.3364 62.3704 61.4863 62.346C61.632 62.3257 62.0062 61.9857 63.1977 60.7942C64.4682 59.5238 64.7624 59.1953 64.9732 58.8248C65.1129 58.5825 65.2998 58.3044 65.3953 58.2089C65.5738 58.0304 66.0043 57.8963 66.3529 57.9127C66.5271 57.9209 66.5868 57.8727 66.8707 57.5089C67.0457 57.277 68.2336 56.032 69.5108 54.7434L71.8327 52.3987L71.795 52.1285L71.7557 51.8485L71.9683 51.8867C72.1753 51.9193 72.2043 51.8902 74.0829 50.0572C75.1281 49.0348 76.2314 47.9543 76.5319 47.6653C76.9445 47.2641 77.1168 47.0462 77.2295 46.7852C77.4669 46.2171 77.5608 46.1118 77.9021 46.0214C78.4562 45.8779 78.8033 45.6106 79.3167 44.9033C79.6182 44.4991 79.9457 44.1374 80.2342 43.8945C80.6198 43.566 80.6956 43.4674 80.7772 43.1919C80.8416 42.9906 80.9169 42.8583 81.0051 42.8386C81.0736 42.8157 81.2043 42.7306 81.2915 42.6434L81.4591 42.4872L80.9675 42.3858C80.6942 42.3284 80.3965 42.2383 80.3016 42.185C79.8951 41.9528 79.6251 41.55 79.5704 41.0801C79.5307 40.7663 79.6194 40.7803 79.8463 41.1235C80.3941 41.9785 81.05 42.2691 81.7291 41.9435C82.2479 41.6984 82.44 41.3922 82.3641 40.9094C82.2912 40.4463 82.0456 40.0761 81.3976 39.4696C80.9461 39.043 80.8382 38.9684 80.4597 38.8224C79.9287 38.6235 79.8561 38.5592 79.8957 38.2916C79.9659 37.9134 79.3533 37.226 77.6063 35.7115C76.3756 34.6386 75.9915 34.213 75.3884 33.2196C75.0028 32.6016 74.8551 32.3958 74.6592 32.2496C74.3424 32.0076 74.3625 32.1357 74.7103 32.5748C75.0809 33.0367 75.0274 33.1244 74.5909 32.7626C74.2467 32.4682 74.0109 32.1909 73.9617 32.0005C73.9425 31.9399 73.6704 31.676 73.265 31.3287C72.4159 30.6042 71.4082 29.6048 69.0771 27.1575C67.5522 25.5578 67.0633 25.0773 66.4133 24.5185C65.9737 24.137 65.4086 23.6301 65.1577 23.3792C64.8099 23.0314 64.6352 22.8982 64.4459 22.8252C64.196 22.733 64.1846 22.7216 63.9613 22.3405C63.7742 22.0372 63.557 21.7868 62.9111 21.1327L62.0958 20.3173L62.0207 19.9931C61.9483 19.655 61.7975 19.4295 61.7466 19.5945C61.7305 19.6448 61.7107 19.733 61.6946 19.7833C61.665 19.8699 61.5385 19.7683 60.4727 18.8271C60.1254 18.5129 60.031 18.402 59.9134 18.1433C59.7943 17.8747 59.7414 17.8135 59.405 17.5684C59.1763 17.3978 58.5056 16.7686 57.6202 15.8749L56.2061 14.4608L56.185 14.174C56.1717 13.8452 56.0287 13.6689 55.9015 13.8075C55.82 13.9004 55.7718 13.8688 54.8858 13.124C54.2047 12.5507 53.6251 12.0127 52.7382 11.1092C51.4236 9.778 47.5022 5.95617 47.2637 5.78411C47.187 5.72399 46.992 5.64527 46.8369 5.60646L46.5481 5.54179L46.5311 5.25083L46.51 4.96402L46.0777 4.5981C45.8345 4.39648 45.694 4.2975 45.7541 4.37422C45.976 4.65417 45.7883 4.591 45.4803 4.2831C45.3093 4.11204 45.1875 3.94873 45.2083 3.92797C45.2332 3.90306 45.2995 3.92792 45.3509 3.97923C45.6754 4.27054 44.9181 3.39703 44.3593 2.83823C43.4283 1.89896 42.6518 1.23863 42.28 1.07443C41.9378 0.914883 41.3481 0.831716 41.2526 0.927204C41.2194 0.960417 41.0477 0.93822 40.8797 0.878152C40.1952 0.650338 39.6152 0.842579 39.1958 1.44447C39.0224 1.68627 38.9778 1.70808 38.7304 1.69318C38.3269 1.66334 38.1837 1.76093 38.0424 2.17594C37.9307 2.50432 37.899 2.54739 37.7502 2.54799C37.6309 2.55325 37.524 2.63734 37.3641 2.84282C37.1518 3.11213 37.1295 3.12303 36.8422 3.06822C36.4662 2.99946 36.4164 3.04928 36.5153 3.37235ZM38.634 4.19579C38.68 4.45769 38.8172 4.99339 38.9482 5.39839C39.2935 6.43292 39.3157 6.69588 39.0831 7.01966C38.9715 7.16547 38.8889 7.3735 38.8909 7.50835C38.8929 7.73449 38.8887 7.73863 38.7804 7.6303C38.5637 7.41362 38.5292 6.98056 38.6996 6.4452C38.7838 6.15573 38.8416 5.88133 38.8198 5.83466C38.8079 5.78955 38.6644 5.57957 38.5068 5.37219C38.2876 5.07824 38.2208 4.92838 38.2048 4.70485C38.1796 4.33091 38.2513 4.0539 38.4242 3.86967L38.5653 3.72851L38.634 4.19579ZM9.53566 33.2714C9.58128 33.317 9.58382 33.3943 9.53815 33.4399C9.45512 33.523 9.36749 33.4851 9.35304 33.3628C9.32873 33.2388 9.45013 33.1858 9.53566 33.2714ZM41.8369 1.31224C41.9542 1.26342 41.9951 1.27947 42.1568 1.48269C42.4274 1.82797 42.4076 1.91615 42.0741 1.87329C41.6914 1.82269 41.3793 1.51893 41.6081 1.41558C41.6569 1.38962 41.7601 1.3434 41.8369 1.31224ZM36.0319 7.72162C36.0801 7.75323 36.0879 7.8025 36.0505 7.83987C36.0132 7.87723 35.9442 7.86638 35.8929 7.81506C35.7959 7.71813 35.9044 7.6439 36.0319 7.72162ZM8.43466 35.7408C8.50933 35.7574 8.60162 35.8248 8.63063 35.887C8.71561 36.0301 8.39177 36.3539 8.0826 36.435C7.77343 36.5161 7.71491 36.3579 7.98317 36.1695C8.09577 36.0911 8.19386 35.9816 8.19856 35.9199C8.20592 35.7529 8.2796 35.702 8.43466 35.7408ZM9.4543 49.2157C9.54553 49.3069 9.65177 49.4629 9.67557 49.5532C9.72424 49.7098 9.72008 49.7139 9.57543 49.6191C9.42663 49.5284 9.14208 49.1857 9.07371 49.026C9.03125 48.9088 9.26613 49.0275 9.4543 49.2157ZM20.2542 58.5209C20.3854 58.6521 20.3931 58.7926 20.2702 58.7445C20.153 58.702 20.0462 58.5122 20.1044 58.4541C20.1251 58.4334 20.1972 58.4639 20.2542 58.5209ZM74.5311 33.0847C74.6508 33.2045 74.6958 33.3989 74.617 33.4778C74.5422 33.5526 74.408 33.4017 74.3785 33.2145C74.346 33.0076 74.4056 32.9593 74.5311 33.0847ZM75.0712 44.4276C75.1412 44.4146 75.289 44.4378 75.4005 44.4746C75.5841 44.5419 75.6297 44.5875 75.9546 45.0951C76.4173 45.807 76.5443 46.0336 76.4944 46.0834C76.3616 46.2162 76.1141 46.2926 76.0457 46.2242C76.0058 46.1843 75.9006 46.0044 75.8209 45.8332C75.7033 45.5745 75.6188 45.4651 75.3202 45.2163C74.9988 44.9447 74.9558 44.8851 74.9263 44.6979C74.8891 44.4614 74.8974 44.4531 75.0712 44.4276ZM80.2098 39.4942L80.4246 39.4847L80.1194 39.7442C79.9114 39.9181 79.7972 40.0779 79.7519 40.2486C79.6667 40.5619 79.6018 40.6382 79.5724 40.451C79.4995 39.9878 79.8182 39.5095 80.2098 39.4942ZM73.1844 46.8503C73.3213 46.9872 73.3596 47.1085 73.3273 47.3004C73.3028 47.4504 73.2888 47.453 73.1292 47.2933C73.0265 47.1907 72.9644 47.0704 72.9758 46.9905C72.9925 46.7913 73.0761 46.742 73.1844 46.8503ZM74.854 45.979C74.9773 46.2435 75.0077 46.4981 74.919 46.4842C74.8444 46.4676 74.6937 46.0595 74.6881 45.8713C74.6923 45.6845 74.7405 45.7161 74.854 45.979ZM64.2699 57.9886C64.4036 58.1971 64.5154 58.5414 64.4671 58.6011C64.3857 58.6939 64.2281 58.4866 64.1551 58.206C64.0786 57.872 64.1305 57.7745 64.2699 57.9886ZM71.2222 51.5723C71.3252 51.8 71.2665 52.007 71.1083 51.9484C71.0207 51.9106 70.8198 51.3361 70.8562 51.2313C70.905 51.114 71.103 51.3037 71.2222 51.5723ZM60.5012 61.7345C60.5909 61.7246 60.6194 61.7531 60.6334 61.8418C60.6473 61.9305 60.6183 61.9596 60.5156 61.9482C60.2879 61.9364 60.2724 61.7466 60.5012 61.7345ZM81.8766 40.7126C82.0715 40.9739 82.1003 41.4012 81.9121 41.2131C81.8437 41.1447 81.6667 40.569 81.704 40.5317C81.7165 40.5192 81.7963 40.5991 81.8766 40.7126ZM68.1706 54.6239C68.2504 54.795 68.2208 54.8816 68.1036 54.8391C68.016 54.8013 67.9689 54.6546 68.0094 54.5456C68.0567 54.4185 68.0878 54.433 68.1706 54.6239Z"/>
</mask>
<path d="M36.5153 3.37235C36.6286 3.72653 36.5617 3.85053 36.2157 3.91141L35.9159 3.96034L36.0932 4.07953C36.2124 4.16556 36.2497 4.21948 36.2165 4.25269C36.1667 4.30252 35.5462 4.6037 35.182 4.76262C35.0871 4.80054 35.0315 4.93595 34.9987 5.18544L34.9409 5.55113L33.9491 6.5771C33.4042 7.14484 32.9496 7.6451 32.949 7.70267C32.9386 7.75869 32.7398 7.99168 32.4876 8.22108C32.2453 8.45203 31.9043 8.85004 31.7267 9.09599C31.4807 9.45609 31.3229 9.61385 30.996 9.8267C30.6873 10.0328 30.5088 10.2113 30.2721 10.5392C30.1029 10.7769 29.7639 11.2185 29.5184 11.521C29.2771 11.8194 29.0092 12.2241 28.9277 12.4083C28.8041 12.6915 28.7392 12.7678 28.5799 12.8244C28.3102 12.9117 27.635 13.5983 27.1963 14.2308C26.7343 14.8981 25.1059 16.4581 24.3161 16.997C23.8518 17.3131 23.6841 17.4693 23.395 17.8611C22.8401 18.6098 20.5903 20.9851 16.7884 24.8555L15.0602 26.6064L14.8585 26.5459L14.651 26.4796L14.6182 26.7291C14.588 26.9646 14.5231 27.0409 13.8563 27.6279C13.4614 27.9886 12.9866 28.3607 12.8014 28.4661C12.5145 28.6276 12.4081 28.7454 12.0769 29.2362C11.7981 29.6633 11.6268 29.8573 11.4624 29.942C11.107 30.1263 9.58528 31.7848 9.44296 32.1324C9.26428 32.5848 7.95294 33.7479 7.54523 33.8135C7.25112 33.8681 7.01347 34.0373 6.89092 34.2967C6.82964 34.4264 6.80163 34.4316 6.62847 34.3083C6.53048 34.2352 6.32566 34.155 6.18355 34.1374L5.91335 34.0997L5.78288 34.5837C5.67633 34.9753 5.61765 35.091 5.44643 35.1938C5.32814 35.2665 5.17142 35.4004 5.08424 35.4876C4.9986 35.5846 4.84139 35.6848 4.73244 35.7254C4.57318 35.782 4.5 35.8666 4.35254 36.1509C4.25284 36.3418 4.08152 36.6272 3.97147 36.7828C3.79394 37.0288 3.73687 37.0631 3.55535 37.0393C3.43711 37.0207 3.282 37.0732 3.17665 37.1671C3.02824 37.2927 3.00278 37.3752 3.03063 37.6438C3.08224 38.094 2.97629 38.3368 2.60268 38.6192C2.03451 39.0391 2.05371 39.0085 2.19621 39.2423C2.40918 39.5882 2.40602 39.6597 2.16683 39.8191C2.03763 39.9141 1.90787 40.0667 1.85385 40.2119C1.76606 40.448 1.7619 40.4521 1.42273 40.4036C1.24121 40.3798 1.01823 40.3063 0.927493 40.2488L0.765735 40.1368L0.842854 40.4132C0.908072 40.6445 0.88676 40.7228 0.749753 40.8598C0.596139 41.0135 0.595088 41.0373 0.734039 41.1265C1.23592 41.4457 1.40593 41.6406 1.72713 42.2773C2.03383 42.8829 2.06959 42.927 2.93159 43.8554C3.42971 44.3951 3.95269 45.0011 4.12214 45.2536C4.40769 45.6637 4.44916 45.7134 4.67679 45.8165C4.87331 45.9051 4.92878 45.9523 4.97849 46.085C5.02821 46.2178 5.08368 46.2649 5.24339 46.3333C5.39895 46.4058 5.48293 46.4815 5.60521 46.6785C5.73891 46.8869 5.82289 46.9626 6.12725 47.1258C6.78574 47.4937 6.98265 47.7985 7.12218 48.6854C7.17334 49.0106 7.28772 49.4322 7.36904 49.6131L7.52289 49.9496L7.93094 50.1916C8.15752 50.3186 8.74803 50.743 9.2395 51.1182C9.79785 51.552 10.2106 51.8236 10.3262 51.8562C10.4361 51.8831 10.7644 51.954 11.0616 52.0103C11.3587 52.0667 11.6802 52.1557 11.771 52.2132C11.8757 52.2681 12.1826 52.5999 12.5615 53.0535C13.0518 53.6352 13.2871 53.8788 13.6567 54.182C14.086 54.5282 14.1332 54.5837 14.2051 54.7968C14.2672 55.0084 14.2958 55.0369 14.498 55.1312C14.7567 55.2488 16.0449 56.5037 16.3817 56.9651C16.4921 57.117 16.7056 57.4053 16.8533 57.6111C17.0052 57.8128 17.1394 58.0549 17.1507 58.1576C17.1714 58.3194 17.1843 58.3407 17.3622 58.4023C17.5458 58.4696 17.5758 58.508 17.811 59.0255C18.0923 59.6223 18.4877 60.2419 18.7842 60.5384C19.0009 60.755 20.108 61.1647 20.4477 61.1556C20.567 61.1504 20.8045 61.1637 20.9845 61.1776C21.263 61.207 21.3195 61.2303 21.3521 61.346C21.3687 61.4207 21.3178 61.5856 21.2368 61.7122C21.1117 61.8944 21.1075 61.9898 21.1955 62.2439C21.342 62.6561 21.725 63.2882 22.0505 63.6469C22.3019 63.9315 22.3174 63.9387 22.4663 63.8469C22.6111 63.7591 22.6422 63.7736 22.9351 64.0167C23.1114 64.1598 23.4644 64.3883 23.7206 64.5199C24.1478 64.7312 24.209 64.7841 24.4453 65.0952C24.762 65.5198 27.1392 67.8638 27.6748 68.2748C27.8837 68.4422 28.3337 68.8589 28.6773 69.2109C29.1978 69.7396 29.3528 69.8697 29.6499 70.0174C29.9584 70.1764 30.0024 70.2122 30.0853 70.403C30.1418 70.5176 30.3398 70.7986 30.5243 71.0246C30.8902 71.457 32.1219 72.5973 32.6388 72.9814C33.0846 73.311 33.3101 73.553 33.3836 73.776C33.4452 73.9539 33.4851 73.9938 33.8952 74.2794C34.3152 74.5665 34.3836 74.6349 34.9387 75.3228C35.5125 76.0377 35.527 76.0688 35.4719 76.238C35.4225 76.4128 35.494 76.5922 35.577 76.5092C35.5978 76.4884 35.6875 76.4785 35.772 76.4966C35.91 76.5183 35.9328 76.5411 36.0271 76.7433C36.1519 77.0176 36.4557 77.3297 36.7274 77.4685C36.8788 77.5452 36.9373 77.6121 37.0042 77.7619C37.0767 77.9175 37.1337 77.9745 37.3178 78.0755C37.506 78.1724 37.5589 78.2336 37.6371 78.3949C37.7055 78.5546 37.7853 78.6344 38.0393 78.8137C38.2166 78.9329 38.5718 79.205 38.8263 79.418C39.0808 79.631 39.4982 79.9321 39.7377 80.0803C39.9944 80.2456 40.3568 80.5333 40.5947 80.7629C40.8269 80.9868 41.1758 81.3108 41.3806 81.4824L41.7476 81.7996L42.1685 81.3901C42.4965 81.0621 42.6578 80.9578 42.9291 80.8803C43.2705 80.7899 43.3078 80.7525 45.6136 78.4582C48.3179 75.7652 48.3843 75.6988 48.4903 75.456C48.5391 75.3388 48.618 75.2599 48.7077 75.25C48.9095 75.2193 51.0694 73.0365 51.1059 72.8404C51.1168 72.7268 51.1973 72.6578 51.4063 72.5514C51.6476 72.4356 51.7016 72.3816 51.7795 72.144C51.8548 71.9204 51.9114 71.8524 52.0624 71.8041C52.2232 71.7573 52.2574 71.7003 52.2929 71.4368C52.3194 71.2391 52.3916 71.0871 52.5042 71.0087C52.6459 70.9013 52.7034 70.9007 52.9119 71.0344C53.1882 71.2028 53.3127 71.1696 53.3471 70.9299C53.3887 70.7058 56.666 67.3487 57.2721 66.9251C57.6571 66.6542 57.7303 66.5696 57.8316 66.2972C57.9141 66.0892 57.9884 65.9807 58.0781 65.9708C58.2757 65.9443 58.4989 65.7439 58.8487 65.28C59.0636 64.9967 59.3781 64.7051 59.8238 64.362C60.543 63.8024 60.9624 63.2918 61.1894 62.6885C61.2907 62.4161 61.3364 62.3704 61.4863 62.346C61.632 62.3257 62.0062 61.9857 63.1977 60.7942C64.4682 59.5238 64.7624 59.1953 64.9732 58.8248C65.1129 58.5825 65.2998 58.3044 65.3953 58.2089C65.5738 58.0304 66.0043 57.8963 66.3529 57.9127C66.5271 57.9209 66.5868 57.8727 66.8707 57.5089C67.0457 57.277 68.2336 56.032 69.5108 54.7434L71.8327 52.3987L71.795 52.1285L71.7557 51.8485L71.9683 51.8867C72.1753 51.9193 72.2043 51.8902 74.0829 50.0572C75.1281 49.0348 76.2314 47.9543 76.5319 47.6653C76.9445 47.2641 77.1168 47.0462 77.2295 46.7852C77.4669 46.2171 77.5608 46.1118 77.9021 46.0214C78.4562 45.8779 78.8033 45.6106 79.3167 44.9033C79.6182 44.4991 79.9457 44.1374 80.2342 43.8945C80.6198 43.566 80.6956 43.4674 80.7772 43.1919C80.8416 42.9906 80.9169 42.8583 81.0051 42.8386C81.0736 42.8157 81.2043 42.7306 81.2915 42.6434L81.4591 42.4872L80.9675 42.3858C80.6942 42.3284 80.3965 42.2383 80.3016 42.185C79.8951 41.9528 79.6251 41.55 79.5704 41.0801C79.5307 40.7663 79.6194 40.7803 79.8463 41.1235C80.3941 41.9785 81.05 42.2691 81.7291 41.9435C82.2479 41.6984 82.44 41.3922 82.3641 40.9094C82.2912 40.4463 82.0456 40.0761 81.3976 39.4696C80.9461 39.043 80.8382 38.9684 80.4597 38.8224C79.9287 38.6235 79.8561 38.5592 79.8957 38.2916C79.9659 37.9134 79.3533 37.226 77.6063 35.7115C76.3756 34.6386 75.9915 34.213 75.3884 33.2196C75.0028 32.6016 74.8551 32.3958 74.6592 32.2496C74.3424 32.0076 74.3625 32.1357 74.7103 32.5748C75.0809 33.0367 75.0274 33.1244 74.5909 32.7626C74.2467 32.4682 74.0109 32.1909 73.9617 32.0005C73.9425 31.9399 73.6704 31.676 73.265 31.3287C72.4159 30.6042 71.4082 29.6048 69.0771 27.1575C67.5522 25.5578 67.0633 25.0773 66.4133 24.5185C65.9737 24.137 65.4086 23.6301 65.1577 23.3792C64.8099 23.0314 64.6352 22.8982 64.4459 22.8252C64.196 22.733 64.1846 22.7216 63.9613 22.3405C63.7742 22.0372 63.557 21.7868 62.9111 21.1327L62.0958 20.3173L62.0207 19.9931C61.9483 19.655 61.7975 19.4295 61.7466 19.5945C61.7305 19.6448 61.7107 19.733 61.6946 19.7833C61.665 19.8699 61.5385 19.7683 60.4727 18.8271C60.1254 18.5129 60.031 18.402 59.9134 18.1433C59.7943 17.8747 59.7414 17.8135 59.405 17.5684C59.1763 17.3978 58.5056 16.7686 57.6202 15.8749L56.2061 14.4608L56.185 14.174C56.1717 13.8452 56.0287 13.6689 55.9015 13.8075C55.82 13.9004 55.7718 13.8688 54.8858 13.124C54.2047 12.5507 53.6251 12.0127 52.7382 11.1092C51.4236 9.778 47.5022 5.95617 47.2637 5.78411C47.187 5.72399 46.992 5.64527 46.8369 5.60646L46.5481 5.54179L46.5311 5.25083L46.51 4.96402L46.0777 4.5981C45.8345 4.39648 45.694 4.2975 45.7541 4.37422C45.976 4.65417 45.7883 4.591 45.4803 4.2831C45.3093 4.11204 45.1875 3.94873 45.2083 3.92797C45.2332 3.90306 45.2995 3.92792 45.3509 3.97923C45.6754 4.27054 44.9181 3.39703 44.3593 2.83823C43.4283 1.89896 42.6518 1.23863 42.28 1.07443C41.9378 0.914883 41.3481 0.831716 41.2526 0.927204C41.2194 0.960417 41.0477 0.93822 40.8797 0.878152C40.1952 0.650338 39.6152 0.842579 39.1958 1.44447C39.0224 1.68627 38.9778 1.70808 38.7304 1.69318C38.3269 1.66334 38.1837 1.76093 38.0424 2.17594C37.9307 2.50432 37.899 2.54739 37.7502 2.54799C37.6309 2.55325 37.524 2.63734 37.3641 2.84282C37.1518 3.11213 37.1295 3.12303 36.8422 3.06822C36.4662 2.99946 36.4164 3.04928 36.5153 3.37235ZM38.634 4.19579C38.68 4.45769 38.8172 4.99339 38.9482 5.39839C39.2935 6.43292 39.3157 6.69588 39.0831 7.01966C38.9715 7.16547 38.8889 7.3735 38.8909 7.50835C38.8929 7.73449 38.8887 7.73863 38.7804 7.6303C38.5637 7.41362 38.5292 6.98056 38.6996 6.4452C38.7838 6.15573 38.8416 5.88133 38.8198 5.83466C38.8079 5.78955 38.6644 5.57957 38.5068 5.37219C38.2876 5.07824 38.2208 4.92838 38.2048 4.70485C38.1796 4.33091 38.2513 4.0539 38.4242 3.86967L38.5653 3.72851L38.634 4.19579ZM9.53566 33.2714C9.58128 33.317 9.58382 33.3943 9.53815 33.4399C9.45512 33.523 9.36749 33.4851 9.35304 33.3628C9.32873 33.2388 9.45013 33.1858 9.53566 33.2714ZM41.8369 1.31224C41.9542 1.26342 41.9951 1.27947 42.1568 1.48269C42.4274 1.82797 42.4076 1.91615 42.0741 1.87329C41.6914 1.82269 41.3793 1.51893 41.6081 1.41558C41.6569 1.38962 41.7601 1.3434 41.8369 1.31224ZM36.0319 7.72162C36.0801 7.75323 36.0879 7.8025 36.0505 7.83987C36.0132 7.87723 35.9442 7.86638 35.8929 7.81506C35.7959 7.71813 35.9044 7.6439 36.0319 7.72162ZM8.43466 35.7408C8.50933 35.7574 8.60162 35.8248 8.63063 35.887C8.71561 36.0301 8.39177 36.3539 8.0826 36.435C7.77343 36.5161 7.71491 36.3579 7.98317 36.1695C8.09577 36.0911 8.19386 35.9816 8.19856 35.9199C8.20592 35.7529 8.2796 35.702 8.43466 35.7408ZM9.4543 49.2157C9.54553 49.3069 9.65177 49.4629 9.67557 49.5532C9.72424 49.7098 9.72008 49.7139 9.57543 49.6191C9.42663 49.5284 9.14208 49.1857 9.07371 49.026C9.03125 48.9088 9.26613 49.0275 9.4543 49.2157ZM20.2542 58.5209C20.3854 58.6521 20.3931 58.7926 20.2702 58.7445C20.153 58.702 20.0462 58.5122 20.1044 58.4541C20.1251 58.4334 20.1972 58.4639 20.2542 58.5209ZM74.5311 33.0847C74.6508 33.2045 74.6958 33.3989 74.617 33.4778C74.5422 33.5526 74.408 33.4017 74.3785 33.2145C74.346 33.0076 74.4056 32.9593 74.5311 33.0847ZM75.0712 44.4276C75.1412 44.4146 75.289 44.4378 75.4005 44.4746C75.5841 44.5419 75.6297 44.5875 75.9546 45.0951C76.4173 45.807 76.5443 46.0336 76.4944 46.0834C76.3616 46.2162 76.1141 46.2926 76.0457 46.2242C76.0058 46.1843 75.9006 46.0044 75.8209 45.8332C75.7033 45.5745 75.6188 45.4651 75.3202 45.2163C74.9988 44.9447 74.9558 44.8851 74.9263 44.6979C74.8891 44.4614 74.8974 44.4531 75.0712 44.4276ZM80.2098 39.4942L80.4246 39.4847L80.1194 39.7442C79.9114 39.9181 79.7972 40.0779 79.7519 40.2486C79.6667 40.5619 79.6018 40.6382 79.5724 40.451C79.4995 39.9878 79.8182 39.5095 80.2098 39.4942ZM73.1844 46.8503C73.3213 46.9872 73.3596 47.1085 73.3273 47.3004C73.3028 47.4504 73.2888 47.453 73.1292 47.2933C73.0265 47.1907 72.9644 47.0704 72.9758 46.9905C72.9925 46.7913 73.0761 46.742 73.1844 46.8503ZM74.854 45.979C74.9773 46.2435 75.0077 46.4981 74.919 46.4842C74.8444 46.4676 74.6937 46.0595 74.6881 45.8713C74.6923 45.6845 74.7405 45.7161 74.854 45.979ZM64.2699 57.9886C64.4036 58.1971 64.5154 58.5414 64.4671 58.6011C64.3857 58.6939 64.2281 58.4866 64.1551 58.206C64.0786 57.872 64.1305 57.7745 64.2699 57.9886ZM71.2222 51.5723C71.3252 51.8 71.2665 52.007 71.1083 51.9484C71.0207 51.9106 70.8198 51.3361 70.8562 51.2313C70.905 51.114 71.103 51.3037 71.2222 51.5723ZM60.5012 61.7345C60.5909 61.7246 60.6194 61.7531 60.6334 61.8418C60.6473 61.9305 60.6183 61.9596 60.5156 61.9482C60.2879 61.9364 60.2724 61.7466 60.5012 61.7345ZM81.8766 40.7126C82.0715 40.9739 82.1003 41.4012 81.9121 41.2131C81.8437 41.1447 81.6667 40.569 81.704 40.5317C81.7165 40.5192 81.7963 40.5991 81.8766 40.7126ZM68.1706 54.6239C68.2504 54.795 68.2208 54.8816 68.1036 54.8391C68.016 54.8013 67.9689 54.6546 68.0094 54.5456C68.0567 54.4185 68.0878 54.433 68.1706 54.6239Z" fill="black" stroke="white" stroke-width="4" mask="url(#path-1-inside-1_980_3625)"/>
<path fill-rule="evenodd" clip-rule="evenodd" d="M40.1797 14.9042C40.1797 14.9182 40.2382 15.0507 40.3097 15.1988C40.5653 15.7285 40.687 16.2741 40.6897 16.9035C40.6926 17.5716 40.6717 17.6294 39.91 19.0526C39.5902 19.6504 39.4295 20.2909 39.3861 21.1418L39.3546 21.7571L39.5148 21.3469C39.6028 21.1213 39.8318 20.6878 40.0235 20.3836C40.8454 19.0796 41.1462 18.2573 41.1462 17.3137C41.1462 16.5629 40.9792 15.9762 40.5977 15.3859C40.3689 15.0319 40.1797 14.8139 40.1797 14.9042ZM42.1953 16.5105C42.391 17.0008 42.7879 18.2983 42.8785 18.7441C43.0563 19.6191 43.0779 20.2797 42.9809 21.8846C42.8335 24.3261 42.9958 25.4828 43.7159 27.1233C44.6305 29.2066 44.7598 29.6054 44.7598 30.3428C44.7598 30.6244 44.6981 31.0051 44.5988 31.3367C44.5103 31.6324 44.3598 32.1357 44.2643 32.4553C44.1688 32.7749 44.0677 33.2503 44.0398 33.5118L43.9889 33.9873L44.2087 33.8023C44.4754 33.5779 44.5101 33.5752 44.6101 33.7712C44.8025 34.1481 44.8458 34.3995 44.8902 35.3962C44.93 36.2879 44.9616 36.5069 45.0883 36.7686C45.2322 37.0659 45.7078 37.6824 45.7561 37.6341C45.7687 37.6215 45.6995 37.445 45.6023 37.2418C45.3913 36.801 45.3206 36.1469 45.4426 35.7635C45.4891 35.6171 45.7509 35.0205 46.0244 34.4377C46.9974 32.3636 47.3518 31.1897 47.4072 29.8564C47.4642 28.4857 47.2601 27.9145 46.0273 25.9953C45.2575 24.7968 44.7079 23.7158 44.4252 22.8435C44.3142 22.5011 44.0986 21.5782 43.9462 20.7927C43.56 18.8022 43.2556 17.958 42.5249 16.8523C42.2277 16.4025 42.0988 16.2688 42.1953 16.5105ZM37.8555 17.5749C37.8555 17.5934 37.9621 17.7359 38.0923 17.8918C38.3517 18.2024 38.4386 18.5108 38.3831 18.9244C38.3386 19.2564 38.3788 19.2667 38.5084 18.9565C38.6359 18.6513 38.6334 18.4826 38.4968 18.1949C38.4044 18.0001 37.8555 17.4695 37.8555 17.5749ZM45.4463 19.5089C45.5409 19.7577 45.5267 20.1191 45.4117 20.3946C45.2805 20.7085 45.4067 20.6271 45.5811 20.2854C45.7362 19.9815 45.7495 19.8186 45.6392 19.5765C45.5299 19.3367 45.3579 19.2764 45.4463 19.5089ZM40.6361 21.1274C40.5416 21.2887 40.3925 21.6348 40.3049 21.8964C40.077 22.5771 40.0795 24.0689 40.3101 24.9699C40.6776 26.4059 41.2777 27.6346 42.53 29.5158C42.8585 30.0093 43.3313 30.9427 43.5325 31.4951L43.6932 31.9363L43.7557 31.7002C43.8661 31.2829 43.7654 29.2785 43.6028 28.6613C43.3183 27.581 42.9652 26.9861 41.8596 25.7252C40.928 24.6625 40.6016 24.0155 40.4877 23.0055C40.4365 22.5507 40.5452 21.7376 40.7284 21.205C40.7985 21.0011 40.8451 20.8342 40.8319 20.8342C40.8187 20.8342 40.7306 20.9661 40.6361 21.1274ZM46.3057 22.2356C46.3297 22.5253 46.3027 23.0156 46.2371 23.4788C46.1019 24.4341 46.153 24.7459 46.5711 25.5129C46.7411 25.8246 46.9375 26.3068 47.0077 26.5844C47.1341 27.0848 47.1359 27.0874 47.2182 26.884C47.3892 26.4613 47.5625 25.6526 47.5625 25.2776C47.5625 24.6517 47.3313 23.9194 46.7811 22.8027L46.266 21.7571L46.3057 22.2356ZM38.334 22.7008C38.334 22.7249 38.4289 23.2914 38.5449 23.9598C38.8148 25.5148 38.8761 26.9235 38.7163 27.8958C38.6541 28.274 38.4145 29.1375 38.1663 29.8782C37.3695 32.2559 37.3836 32.6534 38.3347 34.6428C38.5629 35.12 38.7766 35.6784 38.819 35.9074C38.9197 36.4534 38.8465 37.1326 38.6051 37.8899C38.3618 38.6532 38.4645 38.5268 39.0929 37.2895C39.6763 36.1409 40.1001 35.0605 40.359 34.0617C40.5398 33.3642 40.5537 33.2183 40.5517 32.0451C40.5488 30.3281 40.4637 29.9302 39.1922 25.6877C38.9386 24.8418 38.6587 23.8307 38.5701 23.4409C38.4336 22.8404 38.334 22.5282 38.334 22.7008ZM48.4537 23.5686C48.67 24.1954 48.6327 24.7315 48.3054 25.7033C48.0497 26.4627 48.0234 26.6037 48.0282 27.1916C48.0311 27.5488 48.0967 28.2102 48.1738 28.6613C48.3513 29.6996 48.3545 30.4006 48.1839 30.9486C48.0261 31.4557 48.1007 31.4145 48.5485 30.7471C49.3194 29.5981 49.4233 28.9986 49.069 27.7475C48.7613 26.6612 48.7408 26.3587 48.9335 25.7461C49.2256 24.8171 49.1031 24.124 48.5241 23.4319L48.3241 23.1926L48.4537 23.5686ZM49.8401 25.0725C49.8612 25.1289 49.9678 25.3904 50.0769 25.6535C50.4308 26.5065 50.5362 27.0636 50.5362 28.0803C50.5362 28.858 50.5109 29.0835 50.3757 29.5141C50.1956 30.0877 49.9515 30.6055 49.7082 30.9297C49.2948 31.4809 49.8159 31.1122 50.283 30.523C51.3284 29.2046 51.4684 27.8088 50.7061 26.303C50.5249 25.945 49.7595 24.8575 49.8401 25.0725ZM33.3845 27.7556C33.047 28.9684 33.2931 29.9916 34.122 30.8221C34.4439 31.1445 35.0645 31.5644 35.2213 31.566C35.2576 31.5663 35.1321 31.4051 34.9424 31.2077C34.2639 30.5021 33.8631 29.8606 33.6141 29.082C33.4925 28.7019 33.4698 28.4998 33.4935 28.0054C33.5095 27.6706 33.514 27.3967 33.5035 27.3967C33.4929 27.3967 33.4393 27.5582 33.3845 27.7556ZM41.1661 28.969C41.4378 30.1421 41.5084 30.7666 41.5062 31.9768C41.5025 33.9387 41.253 34.8843 40.0897 37.3436C38.9762 39.6976 38.7211 40.5616 38.7174 41.9914C38.716 42.5587 38.7518 42.9488 38.8337 43.2561C38.9761 43.7904 39.3942 44.6753 39.7104 45.1115C39.9243 45.4065 40.6368 46.1955 40.6893 46.1955C40.7021 46.1955 40.5792 45.788 40.4162 45.2898C40.045 44.1554 39.9811 43.5687 40.1423 42.7733C40.2977 42.0063 40.3942 41.8596 40.3419 42.4699C40.3183 42.7462 40.333 43.0669 40.3769 43.2287C40.4573 43.5253 40.7114 43.9471 40.8338 43.9872C40.874 44.0004 40.9816 43.8514 41.073 43.6563C41.2337 43.3132 41.2393 43.2497 41.2393 41.7577V40.2141L41.5965 38.6076C41.7929 37.7241 42.0316 36.7859 42.127 36.5227C42.2223 36.2595 42.2838 36.1296 42.2637 36.2341C41.9914 37.6431 41.9435 38.1299 41.9763 39.1545C42.0165 40.4056 42.1414 40.928 42.7442 42.3674C43.3052 43.7068 43.5075 44.2726 43.7048 45.0551C43.8013 45.438 44.0066 46.0403 44.161 46.3936C44.4124 46.9689 44.4481 47.0188 44.5031 46.8721C44.7058 46.3309 44.6184 44.9094 44.3441 44.288C44.1499 43.8479 44.2277 43.8747 44.4704 44.3315C44.9028 45.1453 45.0163 46.151 44.8776 47.9387L44.8246 48.6223L45.1511 48.0412C45.4504 47.5085 45.4795 47.4771 45.5006 47.663C45.5366 47.9794 45.3834 48.6364 45.1542 49.1492C45.0392 49.4062 44.964 49.6354 44.987 49.6584C45.0734 49.7449 46.5147 48.3545 47.1098 47.6107C48.3499 46.0605 48.4091 44.0356 47.2875 41.5302C46.9374 40.748 46.2632 39.6796 45.7885 39.1545L45.5103 38.8469L45.6851 39.2556C45.9433 39.8594 46.127 40.6281 46.127 41.1047C46.127 41.5529 45.9278 42.4435 45.7572 42.7582L45.6539 42.9485L45.6512 42.6993C45.6478 42.3896 45.4152 41.6232 45.1889 41.1758C45.0951 40.9904 44.7936 40.4795 44.5188 40.0404C43.3402 38.1571 43.0535 37.1766 43.05 35.0188C43.0474 33.4196 42.8368 32.2721 42.2959 30.9095C42.0831 30.3734 41.4527 29.1959 41.2387 28.9348C41.1289 28.8009 41.1274 28.8016 41.1661 28.969ZM51.3127 30.9114C49.9598 31.7716 49.4054 32.1995 48.7211 32.9121C47.8205 33.8498 47.3533 34.65 47.132 35.634C46.9686 36.361 46.9458 36.6946 47.017 37.3213C47.1064 38.1077 47.3283 38.7189 48.0147 40.069C48.9776 41.9629 49.4082 43.5068 49.4082 45.0653C49.4082 46.1336 49.1888 46.8913 48.6544 47.6679C48.5354 47.8409 48.4509 47.9954 48.4666 48.0111C48.5188 48.0633 48.961 47.7001 49.16 47.4415C49.2678 47.3014 49.4302 47.0329 49.521 46.8449C49.6264 46.6265 49.6722 46.5716 49.6478 46.693C49.5562 47.15 49.2338 47.6769 48.7648 48.1363C48.2355 48.6548 48.2712 48.6484 49.3028 48.039C50.1704 47.5266 50.5286 47.0227 50.7424 46.0134C50.8577 45.4693 50.8736 44.4574 50.7751 43.938C50.7373 43.7388 50.7188 43.5634 50.7339 43.5482C50.7836 43.4985 51.0441 44.3715 51.1848 45.0591C51.3779 46.004 51.4265 46.9329 51.3252 47.7386C51.2338 48.4641 50.9367 49.4682 50.6743 49.9376C50.5848 50.0978 50.5362 50.2287 50.5664 50.2287C50.6727 50.2287 51.6684 49.544 51.9809 49.2559C53.0421 48.2778 53.6616 46.8087 53.5533 45.527C53.455 44.3647 53.1425 43.6421 52.1423 42.2649C51.0554 40.7682 50.6224 39.8865 50.2231 38.3575C49.947 37.3004 49.8783 35.9137 50.0526 34.9162C50.3408 33.2664 51.1028 31.677 52.132 30.5789C52.2924 30.4078 52.3988 30.2694 52.3685 30.2714C52.3383 30.2735 51.8632 30.5615 51.3127 30.9114ZM33.8003 31.9023C35.0811 32.8017 35.8804 34.3197 36.0758 36.2236C36.2609 38.0279 35.8692 39.5518 34.4528 42.5383C33.4975 44.5525 33.3295 45.0491 33.2086 46.2148C33.0455 47.7872 33.5057 49.1906 34.5459 50.2933C35.2246 51.0127 36.1806 51.5947 37.6162 52.1625C38.6662 52.5778 39.0328 52.7573 39.6033 53.1361C40.2545 53.5683 41.0168 54.3475 41.4746 55.0486C41.816 55.5718 42.2848 56.6073 42.3406 56.9621C42.3584 57.0749 42.284 56.9365 42.1753 56.6545C41.2914 54.3604 39.9283 53.1266 38.1213 52.9851C37.5849 52.9431 37.0398 53.0025 37.1459 53.0914C37.179 53.1191 37.4214 53.2141 37.6846 53.3025C38.7079 53.6462 39.6411 54.2122 40.2823 54.8781L40.6241 55.2331L40.0088 54.8543C39.3067 54.4221 38.5661 54.1089 37.7698 53.9076C37.0524 53.7262 36.095 53.7576 35.5175 53.9815C34.3778 54.4233 33.7922 55.6965 33.9515 57.386C34.0024 57.9263 34.0953 58.133 34.0964 57.7084C34.0973 57.352 34.3597 56.8158 34.6857 56.5043C34.9981 56.2057 35.5687 55.9308 36.0754 55.8347C37.5599 55.5532 39.6989 56.246 40.974 57.4213C41.8584 58.2365 42.5394 59.699 42.6855 61.0966C42.7093 61.3246 42.739 61.5009 42.7513 61.4885C42.7638 61.4761 42.8781 61.0524 43.0056 60.547C43.2967 59.3922 43.5654 58.7454 44.0757 57.9708C44.796 56.8774 45.9051 55.9957 47.0698 55.5906C48.8109 54.9852 50.0174 55.13 51.0378 56.0668C51.4174 56.4153 51.7323 57.0521 51.7324 57.4714C51.7325 58.0166 51.8668 57.6753 51.9207 56.9926C52.0587 55.2455 51.7029 54.1031 50.8096 53.4253C50.0914 52.8803 48.9533 52.7377 47.925 53.0639C46.9919 53.3597 45.9053 54.1065 45.1587 54.9648C44.9683 55.1838 44.7977 55.348 44.7795 55.3298C44.7209 55.2712 45.5541 54.2311 45.9482 53.8709C46.1584 53.6788 46.546 53.3782 46.8097 53.2029C47.0733 53.0276 47.2891 52.8669 47.2891 52.8456C47.2891 52.8243 47.1016 52.8265 46.8724 52.8504C46.4233 52.8974 45.8185 53.1537 45.2428 53.5412C44.819 53.8263 44.8729 53.6977 45.3409 53.3074C45.7572 52.96 45.9516 52.8567 46.9219 52.4666C47.717 52.147 48.4491 51.7144 48.9299 51.28C49.58 50.6927 50.1266 49.6967 50.3303 48.7283C50.5146 47.8527 50.4963 47.8355 49.9729 48.3903C49.3561 49.0441 48.8779 49.3552 47.8181 49.7918C46.7891 50.2157 46.4573 50.3975 45.876 50.8561C45.1106 51.46 44.4387 52.3051 43.9528 53.2752C43.475 54.2293 43.035 55.8099 42.9264 56.9621L42.8749 57.509L42.8235 56.8152C42.7023 55.1803 42.1014 53.5501 41.1536 52.2844C40.5018 51.414 39.993 50.9643 38.0948 49.5812C37.3701 49.0533 36.4479 48.105 36.1276 47.5587C35.9857 47.3166 35.7877 46.8723 35.6876 46.5715C35.5286 46.0934 35.5055 45.9129 35.504 45.136C35.5019 44.0614 35.6722 43.3498 36.2196 42.1467C37.2014 39.9889 37.3412 39.4582 37.3412 37.8899C37.3412 36.8905 37.3187 36.6426 37.1813 36.1198C36.6482 34.0926 35.552 32.5835 34.0707 31.8374C33.3393 31.4691 33.2231 31.4969 33.8003 31.9023ZM32.9072 35.9905C32.6182 36.5798 32.6021 36.9749 32.838 37.6983C33.088 38.465 33.0835 38.8317 32.8161 39.4963C32.4943 40.296 32.4878 40.4856 32.7393 41.724C32.9033 42.5314 32.9612 43.0004 32.964 43.5438L32.9678 44.2759L33.3643 43.4413C33.9199 42.2716 34.224 41.4255 34.3117 40.805C34.4203 40.0374 34.2872 39.4622 33.7279 38.2812C33.1707 37.1047 33.0478 36.6836 33.0824 36.0701C33.097 35.8115 33.1067 35.5998 33.1039 35.5998C33.1011 35.5998 33.0126 35.7756 32.9072 35.9905ZM51.4687 36.6081C51.1545 37.2002 51.0877 38.4812 51.3302 39.267C51.6227 40.215 52.3224 41.3828 53.1672 42.3332C54.1624 43.4527 54.4352 44.1478 54.4266 45.5406C54.4204 46.517 54.4445 46.501 54.701 45.3576C55.0164 43.951 55.0045 42.8666 54.6651 42.0975C54.4635 41.6408 54.0567 41.1536 53.4633 40.6584C52.5299 39.8795 52.0952 39.4316 51.879 39.0259C51.5021 38.3189 51.3762 37.5282 51.5212 36.779C51.5819 36.4651 51.5683 36.4206 51.4687 36.6081ZM30.6094 36.7955C30.6094 37.0207 30.8253 37.3092 31.2231 37.6152C31.8181 38.0731 32.0095 38.3658 32.1399 39.0178C32.1587 39.1118 32.1635 38.9982 32.1506 38.7655C32.1253 38.3112 31.9095 37.754 31.6034 37.3528C31.3819 37.0623 30.6094 36.6292 30.6094 36.7955ZM30.3027 38.8127C30.8135 40.1005 31.0699 41.3559 30.9849 42.1535C30.9072 42.8839 30.64 43.8513 30.1992 44.9992C29.6647 46.3908 29.5057 47.054 29.504 47.8984C29.5016 49.0754 29.8676 50.0064 30.6391 50.7849C31.6308 51.7858 33.0074 52.2844 34.7451 52.2718C35.5624 52.2659 36.0129 52.2023 35.8047 52.1222C35.7483 52.1004 35.4561 52.0342 35.1553 51.9749C33.6581 51.68 32.6843 51.1502 32.104 50.3149C31.9256 50.0581 31.6688 49.4768 31.7338 49.4768C31.7474 49.4768 31.8501 49.6391 31.9621 49.8376C32.2158 50.2871 32.6364 50.6727 33.1095 50.8892C33.4034 51.0238 33.5614 51.0516 33.938 51.0352L34.4033 51.0149L33.959 50.7122C33.3471 50.2956 32.7152 49.6371 32.4947 49.1864C32.0616 48.3011 31.9858 47.5418 32.1486 45.717C32.306 43.9523 32.2644 42.7329 32.0145 41.7863C31.6963 40.5817 31.0753 39.3761 30.3419 38.5393L30.0723 38.2317L30.3027 38.8127ZM54.4569 39.2912C55.205 40.4671 55.697 42.0679 55.6966 43.3244C55.696 45.4641 54.615 47.8843 52.9764 49.4146C52.3953 49.9571 51.0709 50.8612 50.0981 51.3792L49.455 51.7216L49.7243 51.7941C52.4168 52.5191 55.3081 51.0896 55.9383 48.7218C56.1008 48.1108 56.054 48.042 55.7984 48.5164C55.6677 48.7589 55.4608 49.0616 55.3385 49.1889C55.102 49.4352 54.6176 49.7186 54.5494 49.6505C54.4896 49.5907 54.8203 48.9432 55.4012 47.9831C56.2672 46.5518 56.5176 45.7376 56.5176 44.3529C56.5176 42.4537 55.8749 40.7821 54.6079 39.3861C54.3603 39.1132 54.3326 39.0958 54.4569 39.2912ZM37.8006 41.4947C37.3926 42.9038 37.4111 44.4181 37.8517 45.6783C38.2084 46.6985 38.6681 47.3397 40.1217 48.8444C40.7139 49.4574 41.2685 50.0581 41.3541 50.1793L41.5099 50.3996L41.3404 50.2829C41.2472 50.2187 40.7837 49.9314 40.3103 49.6443C39.837 49.3574 39.2416 48.9666 38.9872 48.776C38.0837 48.0995 37.3179 47.0048 36.9667 45.8879C36.6533 44.8911 36.7189 43.3585 37.1305 42.0623C37.4609 41.022 36.7885 42.078 36.414 43.1877C36.2268 43.7423 36.19 43.9631 36.1619 44.7002C36.1239 45.696 36.2295 46.3128 36.5561 47.0035C37.1428 48.2441 37.9213 48.9741 39.6328 49.8886C41.4344 50.8512 42.1351 51.5772 42.6098 52.973C42.6953 53.2243 42.8014 53.6042 42.8457 53.8172C42.8899 54.0301 42.9399 54.1906 42.9568 54.1736C42.9738 54.1567 43.0648 53.8546 43.159 53.5023C43.2533 53.15 43.4392 52.6 43.5723 52.2801C44.3265 50.4658 44.5 49.3857 44.2482 48.07C44.0889 47.2376 43.8252 46.7562 43.1343 46.037C42.8028 45.6918 42.465 45.3 42.3836 45.1662C42.0459 44.6112 41.9224 43.4834 42.1254 42.8087C42.1805 42.6259 42.2144 42.4652 42.2008 42.4517C42.1431 42.394 41.8231 43.2015 41.6789 43.7688C41.4763 44.5657 41.4746 45.388 41.6737 46.246C41.757 46.605 41.8202 47.1067 41.8201 47.4082L41.8199 47.9387L41.682 47.7127C41.4427 47.3201 40.9749 46.9274 40.2065 46.4739C38.5275 45.483 37.8599 44.3433 37.8567 42.4621C37.856 42.0819 37.8864 41.6079 37.9242 41.4087C38.0239 40.8825 37.9662 40.9227 37.8006 41.4947ZM56.2401 50.7484C55.1188 51.8926 53.3971 52.4882 51.7495 52.3019C51.4393 52.2669 51.1856 52.2492 51.1856 52.2626C51.1856 52.3215 51.9908 52.6354 52.3727 52.7255C53.668 53.031 54.9033 52.6649 55.8497 51.6952C56.1409 51.3969 56.7079 50.4645 56.6396 50.3963C56.6245 50.3812 56.4447 50.5396 56.2401 50.7484ZM32.1237 52.6213C32.182 52.8045 32.994 53.3656 33.3569 53.4733C34.1279 53.7023 35.2254 53.5363 36.2491 53.036L36.7959 52.7687L36.3173 52.7634C36.054 52.7604 35.5158 52.8196 35.1211 52.8947C34.7265 52.9699 34.2306 53.0315 34.0192 53.0315C33.5953 53.0315 32.3643 52.7442 32.197 52.6062C32.1091 52.5336 32.0966 52.5362 32.1237 52.6213ZM29.0596 52.9915C29.5515 53.2034 29.9675 53.4983 30.8487 54.2598C31.7504 55.0391 32.0104 55.2361 32.5674 55.5615C33.0938 55.8691 33.5137 55.9257 33.7037 55.7146C33.8779 55.521 34.308 54.7249 34.2629 54.6795C34.2401 54.6566 33.7702 54.621 33.2187 54.6004C32.2718 54.5649 32.1929 54.5512 31.8057 54.3536C31.5801 54.2386 31.1085 53.9412 30.7577 53.6928C29.9687 53.1343 29.4776 52.8975 29.0166 52.8537L28.6612 52.8199L29.0596 52.9915ZM55.834 53.7925C55.4055 53.9649 54.8368 54.0646 53.9299 54.1262C53.3902 54.163 52.8699 54.2316 52.7739 54.2787C52.5072 54.4097 52.3494 54.6719 52.3033 55.0604C52.2536 55.481 52.3066 55.7354 52.4561 55.7928C52.6396 55.8633 53.1247 55.599 53.6553 55.1395C54.4296 54.4689 54.4849 54.4339 55.2531 54.1251C55.6487 53.9661 55.9892 53.8088 56.0098 53.7756C56.0539 53.7041 56.0536 53.7041 55.834 53.7925ZM46.6236 56.6916C46.0633 56.8424 45.6234 57.0971 45.1363 57.553C44.3494 58.289 43.6548 59.4816 43.2867 60.7287C43.0948 61.3788 42.9902 62.5647 43.0816 63.0523L43.131 63.3152L43.4383 62.6762C43.6812 62.1712 43.8441 61.9401 44.2151 61.5743C44.8408 60.9572 45.3188 60.7219 45.9468 60.7219C46.4058 60.7219 46.421 60.7276 46.6424 60.9838C46.7804 61.1433 46.8878 61.357 46.9176 61.5307C46.9573 61.7629 46.9763 61.7904 47.0204 61.6789C47.0501 61.6037 47.0765 61.3576 47.0791 61.1321C47.0848 60.6382 46.9478 60.3355 46.5891 60.0488C46.2844 59.8055 45.7533 59.7328 45.2693 59.8683C45.0997 59.9158 44.947 59.9406 44.9298 59.9235C44.9126 59.9063 45.0502 59.7223 45.2354 59.5144C45.7799 58.9036 46.8239 58.4311 47.6262 58.4325C48.5309 58.4341 49.3772 59.1405 49.5372 60.0276L49.5884 60.3117L49.6395 59.8593C49.7072 59.2605 49.5811 58.3634 49.3596 57.8671C49.0807 57.2423 48.5291 56.8214 47.7813 56.6629C47.3203 56.5652 47.0696 56.5714 46.6236 56.6916ZM37.7393 57.0513C37.01 57.3114 36.5344 57.8042 36.3109 58.5313C36.2527 58.721 36.1914 59.1992 36.1749 59.594L36.1449 60.3117L36.249 59.9917C36.3755 59.6025 36.8274 59.1299 37.2875 58.9058C37.9736 58.5716 39.0227 58.7245 39.8504 59.2792C40.219 59.5264 40.7831 60.1755 40.7007 60.2578C40.6848 60.2738 40.5093 60.2386 40.3108 60.1797C39.5278 59.9471 38.8503 60.1302 38.5576 60.6535C38.4344 60.8737 38.4048 61.0334 38.4056 61.4739L38.4065 62.0207L38.5583 61.6473C38.8416 60.9497 39.4773 60.7615 40.2518 61.146C41.0745 61.5545 42.0074 62.7877 42.2321 63.7639C42.2797 63.9707 42.3393 64.2322 42.3646 64.3449C42.4102 64.5483 42.4116 64.5472 42.5314 64.2082C42.7964 63.4589 42.7378 62.0326 42.3929 60.8382C41.9221 59.2072 40.8196 57.6987 39.7237 57.1859C39.1267 56.9066 38.3019 56.8506 37.7393 57.0513ZM6.12047 75.9802C6.20551 75.9965 6.32856 75.9959 6.39391 75.9788C6.45926 75.9617 6.38967 75.9483 6.23928 75.9491C6.08889 75.9498 6.03543 75.9638 6.12047 75.9802ZM6.94229 75.9823C7.14087 75.9962 7.44849 75.996 7.62588 75.982C7.80321 75.968 7.64065 75.9567 7.26467 75.9568C6.8887 75.957 6.74364 75.9685 6.94229 75.9823Z" fill="white"/>
</svg>
