<svg width="83" height="82" viewBox="0 0 83 82" fill="none" xmlns="http://www.w3.org/2000/svg">
<mask id="path-1-inside-1_977_1636" fill="white">
<path d="M36.5153 3.37235C36.6286 3.72653 36.5617 3.85053 36.2157 3.91141L35.9159 3.96034L36.0932 4.07953C36.2124 4.16556 36.2497 4.21948 36.2165 4.25269C36.1667 4.30252 35.5462 4.6037 35.182 4.76262C35.0871 4.80054 35.0315 4.93595 34.9987 5.18544L34.9409 5.55113L33.9491 6.5771C33.4042 7.14484 32.9496 7.6451 32.949 7.70267C32.9386 7.75869 32.7398 7.99168 32.4876 8.22108C32.2453 8.45203 31.9043 8.85004 31.7267 9.09599C31.4807 9.45609 31.3229 9.61385 30.996 9.8267C30.6873 10.0328 30.5088 10.2113 30.2721 10.5392C30.1029 10.7769 29.7639 11.2185 29.5184 11.521C29.2771 11.8194 29.0092 12.2241 28.9277 12.4083C28.8041 12.6915 28.7392 12.7678 28.5799 12.8244C28.3102 12.9117 27.635 13.5983 27.1963 14.2308C26.7343 14.8981 25.1059 16.4581 24.3161 16.997C23.8518 17.3131 23.6841 17.4693 23.395 17.8611C22.8401 18.6098 20.5903 20.9851 16.7884 24.8555L15.0602 26.6064L14.8585 26.5459L14.651 26.4796L14.6182 26.7291C14.588 26.9646 14.5231 27.0409 13.8563 27.6279C13.4614 27.9886 12.9866 28.3607 12.8014 28.4661C12.5145 28.6276 12.4081 28.7454 12.0769 29.2362C11.7981 29.6633 11.6268 29.8573 11.4624 29.942C11.107 30.1263 9.58528 31.7848 9.44296 32.1324C9.26428 32.5848 7.95294 33.7479 7.54523 33.8135C7.25112 33.8681 7.01347 34.0373 6.89092 34.2967C6.82964 34.4264 6.80163 34.4316 6.62847 34.3083C6.53048 34.2352 6.32566 34.155 6.18355 34.1374L5.91335 34.0997L5.78288 34.5837C5.67633 34.9753 5.61765 35.091 5.44643 35.1938C5.32814 35.2665 5.17142 35.4004 5.08424 35.4876C4.9986 35.5846 4.84139 35.6848 4.73244 35.7254C4.57318 35.782 4.5 35.8666 4.35254 36.1509C4.25284 36.3418 4.08152 36.6272 3.97147 36.7828C3.79394 37.0288 3.73687 37.0631 3.55535 37.0393C3.43711 37.0207 3.282 37.0732 3.17665 37.1671C3.02824 37.2927 3.00278 37.3752 3.03063 37.6438C3.08224 38.094 2.97629 38.3368 2.60268 38.6192C2.03451 39.0391 2.05371 39.0085 2.19621 39.2423C2.40918 39.5882 2.40602 39.6597 2.16683 39.8191C2.03763 39.9141 1.90787 40.0667 1.85385 40.2119C1.76606 40.448 1.7619 40.4521 1.42273 40.4036C1.24121 40.3798 1.01823 40.3063 0.927493 40.2488L0.765735 40.1368L0.842854 40.4132C0.908072 40.6445 0.88676 40.7228 0.749753 40.8598C0.596139 41.0135 0.595088 41.0373 0.734039 41.1265C1.23592 41.4457 1.40593 41.6406 1.72713 42.2773C2.03383 42.8829 2.06959 42.927 2.93159 43.8554C3.42971 44.3951 3.95269 45.0011 4.12214 45.2536C4.40769 45.6637 4.44916 45.7134 4.67679 45.8165C4.87331 45.9051 4.92878 45.9523 4.97849 46.085C5.02821 46.2178 5.08368 46.2649 5.24339 46.3333C5.39895 46.4058 5.48293 46.4815 5.60521 46.6785C5.73891 46.8869 5.82289 46.9626 6.12725 47.1258C6.78574 47.4937 6.98265 47.7985 7.12218 48.6854C7.17334 49.0106 7.28772 49.4322 7.36904 49.6131L7.52289 49.9496L7.93094 50.1916C8.15752 50.3186 8.74803 50.743 9.2395 51.1182C9.79785 51.552 10.2106 51.8236 10.3262 51.8562C10.4361 51.8831 10.7644 51.954 11.0616 52.0103C11.3587 52.0667 11.6802 52.1557 11.771 52.2132C11.8757 52.2681 12.1826 52.5999 12.5615 53.0535C13.0518 53.6352 13.2871 53.8788 13.6567 54.182C14.086 54.5282 14.1332 54.5837 14.2051 54.7968C14.2672 55.0084 14.2958 55.0369 14.498 55.1312C14.7567 55.2488 16.0449 56.5037 16.3817 56.9651C16.4921 57.117 16.7056 57.4053 16.8533 57.6111C17.0052 57.8128 17.1394 58.0549 17.1507 58.1576C17.1714 58.3194 17.1843 58.3407 17.3622 58.4023C17.5458 58.4696 17.5758 58.508 17.811 59.0255C18.0923 59.6223 18.4877 60.2419 18.7842 60.5384C19.0009 60.755 20.108 61.1647 20.4477 61.1556C20.567 61.1504 20.8045 61.1637 20.9845 61.1776C21.263 61.207 21.3195 61.2303 21.3521 61.346C21.3687 61.4207 21.3178 61.5856 21.2368 61.7122C21.1117 61.8944 21.1075 61.9898 21.1955 62.2439C21.342 62.6561 21.725 63.2882 22.0505 63.6469C22.3019 63.9315 22.3174 63.9387 22.4663 63.8469C22.6111 63.7591 22.6422 63.7736 22.9351 64.0167C23.1114 64.1598 23.4644 64.3883 23.7206 64.5199C24.1478 64.7312 24.209 64.7841 24.4453 65.0952C24.762 65.5198 27.1392 67.8638 27.6748 68.2748C27.8837 68.4422 28.3337 68.8589 28.6773 69.2109C29.1978 69.7396 29.3528 69.8697 29.6499 70.0174C29.9584 70.1764 30.0024 70.2122 30.0853 70.403C30.1418 70.5176 30.3398 70.7986 30.5243 71.0246C30.8902 71.457 32.1219 72.5973 32.6388 72.9814C33.0846 73.311 33.3101 73.553 33.3836 73.776C33.4452 73.9539 33.4851 73.9938 33.8952 74.2794C34.3152 74.5665 34.3836 74.6349 34.9387 75.3228C35.5125 76.0377 35.527 76.0688 35.4719 76.238C35.4225 76.4128 35.494 76.5922 35.577 76.5092C35.5978 76.4884 35.6875 76.4785 35.772 76.4966C35.91 76.5183 35.9328 76.5411 36.0271 76.7433C36.1519 77.0176 36.4557 77.3297 36.7274 77.4685C36.8788 77.5452 36.9373 77.6121 37.0042 77.7619C37.0767 77.9175 37.1337 77.9745 37.3178 78.0755C37.506 78.1724 37.5589 78.2336 37.6371 78.3949C37.7055 78.5546 37.7853 78.6344 38.0393 78.8137C38.2166 78.9329 38.5718 79.205 38.8263 79.418C39.0808 79.631 39.4982 79.9321 39.7377 80.0803C39.9944 80.2456 40.3568 80.5333 40.5947 80.7629C40.8269 80.9868 41.1758 81.3108 41.3806 81.4824L41.7476 81.7996L42.1685 81.3901C42.4965 81.0621 42.6578 80.9578 42.9291 80.8803C43.2705 80.7899 43.3078 80.7525 45.6136 78.4582C48.3179 75.7652 48.3843 75.6988 48.4903 75.456C48.5391 75.3388 48.618 75.2599 48.7077 75.25C48.9095 75.2193 51.0694 73.0365 51.1059 72.8404C51.1168 72.7268 51.1973 72.6578 51.4063 72.5514C51.6476 72.4356 51.7016 72.3816 51.7795 72.144C51.8548 71.9204 51.9114 71.8524 52.0624 71.8041C52.2232 71.7573 52.2574 71.7003 52.2929 71.4368C52.3194 71.2391 52.3916 71.0871 52.5042 71.0087C52.6459 70.9013 52.7034 70.9007 52.9119 71.0344C53.1882 71.2028 53.3127 71.1696 53.3471 70.9299C53.3887 70.7058 56.666 67.3487 57.2721 66.9251C57.6571 66.6542 57.7303 66.5696 57.8316 66.2972C57.9141 66.0892 57.9884 65.9807 58.0781 65.9708C58.2757 65.9443 58.4989 65.7439 58.8487 65.28C59.0636 64.9967 59.3781 64.7051 59.8238 64.362C60.543 63.8024 60.9624 63.2918 61.1894 62.6885C61.2907 62.4161 61.3364 62.3704 61.4863 62.346C61.632 62.3257 62.0062 61.9857 63.1977 60.7942C64.4682 59.5238 64.7624 59.1953 64.9732 58.8248C65.1129 58.5825 65.2998 58.3044 65.3953 58.2089C65.5738 58.0304 66.0043 57.8963 66.3529 57.9127C66.5271 57.9209 66.5868 57.8727 66.8707 57.5089C67.0457 57.277 68.2336 56.032 69.5108 54.7434L71.8327 52.3987L71.795 52.1285L71.7557 51.8485L71.9683 51.8867C72.1753 51.9193 72.2043 51.8902 74.0829 50.0572C75.1281 49.0348 76.2314 47.9543 76.5319 47.6653C76.9445 47.2641 77.1168 47.0462 77.2295 46.7852C77.4669 46.2171 77.5608 46.1118 77.9021 46.0214C78.4562 45.8779 78.8033 45.6106 79.3167 44.9033C79.6182 44.4991 79.9457 44.1374 80.2342 43.8945C80.6198 43.566 80.6956 43.4674 80.7772 43.1919C80.8416 42.9906 80.9169 42.8583 81.0051 42.8386C81.0736 42.8157 81.2043 42.7306 81.2915 42.6434L81.4591 42.4872L80.9675 42.3858C80.6942 42.3284 80.3965 42.2383 80.3016 42.185C79.8951 41.9528 79.6251 41.55 79.5704 41.0801C79.5307 40.7663 79.6194 40.7803 79.8463 41.1235C80.3941 41.9785 81.05 42.2691 81.7291 41.9435C82.2479 41.6984 82.44 41.3922 82.3641 40.9094C82.2912 40.4463 82.0456 40.0761 81.3976 39.4696C80.9461 39.043 80.8382 38.9684 80.4597 38.8224C79.9287 38.6235 79.8561 38.5592 79.8957 38.2916C79.9659 37.9134 79.3533 37.226 77.6063 35.7115C76.3756 34.6386 75.9915 34.213 75.3884 33.2196C75.0028 32.6016 74.8551 32.3958 74.6592 32.2496C74.3424 32.0076 74.3625 32.1357 74.7103 32.5748C75.0809 33.0367 75.0274 33.1244 74.5909 32.7626C74.2467 32.4682 74.0109 32.1909 73.9617 32.0005C73.9425 31.9399 73.6704 31.676 73.265 31.3287C72.4159 30.6042 71.4082 29.6048 69.0771 27.1575C67.5522 25.5578 67.0633 25.0773 66.4133 24.5185C65.9737 24.137 65.4086 23.6301 65.1577 23.3792C64.8099 23.0314 64.6352 22.8982 64.4459 22.8252C64.196 22.733 64.1846 22.7216 63.9613 22.3405C63.7742 22.0372 63.557 21.7868 62.9111 21.1327L62.0958 20.3173L62.0207 19.9931C61.9483 19.655 61.7975 19.4295 61.7466 19.5945C61.7305 19.6448 61.7107 19.733 61.6946 19.7833C61.665 19.8699 61.5385 19.7683 60.4727 18.8271C60.1254 18.5129 60.031 18.402 59.9134 18.1433C59.7943 17.8747 59.7414 17.8135 59.405 17.5684C59.1763 17.3978 58.5056 16.7686 57.6202 15.8749L56.2061 14.4608L56.185 14.174C56.1717 13.8452 56.0287 13.6689 55.9015 13.8075C55.82 13.9004 55.7718 13.8688 54.8858 13.124C54.2047 12.5507 53.6251 12.0127 52.7382 11.1092C51.4236 9.778 47.5022 5.95617 47.2637 5.78411C47.187 5.72399 46.992 5.64527 46.8369 5.60646L46.5481 5.54179L46.5311 5.25083L46.51 4.96402L46.0777 4.5981C45.8345 4.39648 45.694 4.2975 45.7541 4.37422C45.976 4.65417 45.7883 4.591 45.4803 4.2831C45.3093 4.11204 45.1875 3.94873 45.2083 3.92797C45.2332 3.90306 45.2995 3.92792 45.3509 3.97923C45.6754 4.27054 44.9181 3.39703 44.3593 2.83823C43.4283 1.89896 42.6518 1.23863 42.28 1.07443C41.9378 0.914883 41.3481 0.831716 41.2526 0.927204C41.2194 0.960417 41.0477 0.93822 40.8797 0.878152C40.1952 0.650338 39.6152 0.842579 39.1958 1.44447C39.0224 1.68627 38.9778 1.70808 38.7304 1.69318C38.3269 1.66334 38.1837 1.76093 38.0424 2.17594C37.9307 2.50432 37.899 2.54739 37.7502 2.54799C37.6309 2.55325 37.524 2.63734 37.3641 2.84282C37.1518 3.11213 37.1295 3.12303 36.8422 3.06822C36.4662 2.99946 36.4164 3.04928 36.5153 3.37235ZM38.634 4.19579C38.68 4.45769 38.8172 4.99339 38.9482 5.39839C39.2935 6.43292 39.3157 6.69588 39.0831 7.01966C38.9715 7.16547 38.8889 7.3735 38.8909 7.50835C38.8929 7.73449 38.8887 7.73863 38.7804 7.6303C38.5637 7.41362 38.5292 6.98056 38.6996 6.4452C38.7838 6.15573 38.8416 5.88133 38.8198 5.83466C38.8079 5.78955 38.6644 5.57957 38.5068 5.37219C38.2876 5.07824 38.2208 4.92838 38.2048 4.70485C38.1796 4.33091 38.2513 4.0539 38.4242 3.86967L38.5653 3.72851L38.634 4.19579ZM9.53566 33.2714C9.58128 33.317 9.58382 33.3943 9.53815 33.4399C9.45512 33.523 9.36749 33.4851 9.35304 33.3628C9.32873 33.2388 9.45013 33.1858 9.53566 33.2714ZM41.8369 1.31224C41.9542 1.26342 41.9951 1.27947 42.1568 1.48269C42.4274 1.82797 42.4076 1.91615 42.0741 1.87329C41.6914 1.82269 41.3793 1.51893 41.6081 1.41558C41.6569 1.38962 41.7601 1.3434 41.8369 1.31224ZM36.0319 7.72162C36.0801 7.75323 36.0879 7.8025 36.0505 7.83987C36.0132 7.87723 35.9442 7.86638 35.8929 7.81506C35.7959 7.71813 35.9044 7.6439 36.0319 7.72162ZM8.43466 35.7408C8.50933 35.7574 8.60162 35.8248 8.63063 35.887C8.71561 36.0301 8.39177 36.3539 8.0826 36.435C7.77343 36.5161 7.71491 36.3579 7.98317 36.1695C8.09577 36.0911 8.19386 35.9816 8.19856 35.9199C8.20592 35.7529 8.2796 35.702 8.43466 35.7408ZM9.4543 49.2157C9.54553 49.3069 9.65177 49.4629 9.67557 49.5532C9.72424 49.7098 9.72008 49.7139 9.57543 49.6191C9.42663 49.5284 9.14208 49.1857 9.07371 49.026C9.03125 48.9088 9.26613 49.0275 9.4543 49.2157ZM20.2542 58.5209C20.3854 58.6521 20.3931 58.7926 20.2702 58.7445C20.153 58.702 20.0462 58.5122 20.1044 58.4541C20.1251 58.4334 20.1972 58.4639 20.2542 58.5209ZM74.5311 33.0847C74.6508 33.2045 74.6958 33.3989 74.617 33.4778C74.5422 33.5526 74.408 33.4017 74.3785 33.2145C74.346 33.0076 74.4056 32.9593 74.5311 33.0847ZM75.0712 44.4276C75.1412 44.4146 75.289 44.4378 75.4005 44.4746C75.5841 44.5419 75.6297 44.5875 75.9546 45.0951C76.4173 45.807 76.5443 46.0336 76.4944 46.0834C76.3616 46.2162 76.1141 46.2926 76.0457 46.2242C76.0058 46.1843 75.9006 46.0044 75.8209 45.8332C75.7033 45.5745 75.6188 45.4651 75.3202 45.2163C74.9988 44.9447 74.9558 44.8851 74.9263 44.6979C74.8891 44.4614 74.8974 44.4531 75.0712 44.4276ZM80.2098 39.4942L80.4246 39.4847L80.1194 39.7442C79.9114 39.9181 79.7972 40.0779 79.7519 40.2486C79.6667 40.5619 79.6018 40.6382 79.5724 40.451C79.4995 39.9878 79.8182 39.5095 80.2098 39.4942ZM73.1844 46.8503C73.3213 46.9872 73.3596 47.1085 73.3273 47.3004C73.3028 47.4504 73.2888 47.453 73.1292 47.2933C73.0265 47.1907 72.9644 47.0704 72.9758 46.9905C72.9925 46.7913 73.0761 46.742 73.1844 46.8503ZM74.854 45.979C74.9773 46.2435 75.0077 46.4981 74.919 46.4842C74.8444 46.4676 74.6937 46.0595 74.6881 45.8713C74.6923 45.6845 74.7405 45.7161 74.854 45.979ZM64.2699 57.9886C64.4036 58.1971 64.5154 58.5414 64.4671 58.6011C64.3857 58.6939 64.2281 58.4866 64.1551 58.206C64.0786 57.872 64.1305 57.7745 64.2699 57.9886ZM71.2222 51.5723C71.3252 51.8 71.2665 52.007 71.1083 51.9484C71.0207 51.9106 70.8198 51.3361 70.8562 51.2313C70.905 51.114 71.103 51.3037 71.2222 51.5723ZM60.5012 61.7345C60.5909 61.7246 60.6194 61.7531 60.6334 61.8418C60.6473 61.9305 60.6183 61.9596 60.5156 61.9482C60.2879 61.9364 60.2724 61.7466 60.5012 61.7345ZM81.8766 40.7126C82.0715 40.9739 82.1003 41.4012 81.9121 41.2131C81.8437 41.1447 81.6667 40.569 81.704 40.5317C81.7165 40.5192 81.7963 40.5991 81.8766 40.7126ZM68.1706 54.6239C68.2504 54.795 68.2208 54.8816 68.1036 54.8391C68.016 54.8013 67.9689 54.6546 68.0094 54.5456C68.0567 54.4185 68.0878 54.433 68.1706 54.6239Z"/>
</mask>
<path d="M36.5153 3.37235C36.6286 3.72653 36.5617 3.85053 36.2157 3.91141L35.9159 3.96034L36.0932 4.07953C36.2124 4.16556 36.2497 4.21948 36.2165 4.25269C36.1667 4.30252 35.5462 4.6037 35.182 4.76262C35.0871 4.80054 35.0315 4.93595 34.9987 5.18544L34.9409 5.55113L33.9491 6.5771C33.4042 7.14484 32.9496 7.6451 32.949 7.70267C32.9386 7.75869 32.7398 7.99168 32.4876 8.22108C32.2453 8.45203 31.9043 8.85004 31.7267 9.09599C31.4807 9.45609 31.3229 9.61385 30.996 9.8267C30.6873 10.0328 30.5088 10.2113 30.2721 10.5392C30.1029 10.7769 29.7639 11.2185 29.5184 11.521C29.2771 11.8194 29.0092 12.2241 28.9277 12.4083C28.8041 12.6915 28.7392 12.7678 28.5799 12.8244C28.3102 12.9117 27.635 13.5983 27.1963 14.2308C26.7343 14.8981 25.1059 16.4581 24.3161 16.997C23.8518 17.3131 23.6841 17.4693 23.395 17.8611C22.8401 18.6098 20.5903 20.9851 16.7884 24.8555L15.0602 26.6064L14.8585 26.5459L14.651 26.4796L14.6182 26.7291C14.588 26.9646 14.5231 27.0409 13.8563 27.6279C13.4614 27.9886 12.9866 28.3607 12.8014 28.4661C12.5145 28.6276 12.4081 28.7454 12.0769 29.2362C11.7981 29.6633 11.6268 29.8573 11.4624 29.942C11.107 30.1263 9.58528 31.7848 9.44296 32.1324C9.26428 32.5848 7.95294 33.7479 7.54523 33.8135C7.25112 33.8681 7.01347 34.0373 6.89092 34.2967C6.82964 34.4264 6.80163 34.4316 6.62847 34.3083C6.53048 34.2352 6.32566 34.155 6.18355 34.1374L5.91335 34.0997L5.78288 34.5837C5.67633 34.9753 5.61765 35.091 5.44643 35.1938C5.32814 35.2665 5.17142 35.4004 5.08424 35.4876C4.9986 35.5846 4.84139 35.6848 4.73244 35.7254C4.57318 35.782 4.5 35.8666 4.35254 36.1509C4.25284 36.3418 4.08152 36.6272 3.97147 36.7828C3.79394 37.0288 3.73687 37.0631 3.55535 37.0393C3.43711 37.0207 3.282 37.0732 3.17665 37.1671C3.02824 37.2927 3.00278 37.3752 3.03063 37.6438C3.08224 38.094 2.97629 38.3368 2.60268 38.6192C2.03451 39.0391 2.05371 39.0085 2.19621 39.2423C2.40918 39.5882 2.40602 39.6597 2.16683 39.8191C2.03763 39.9141 1.90787 40.0667 1.85385 40.2119C1.76606 40.448 1.7619 40.4521 1.42273 40.4036C1.24121 40.3798 1.01823 40.3063 0.927493 40.2488L0.765735 40.1368L0.842854 40.4132C0.908072 40.6445 0.88676 40.7228 0.749753 40.8598C0.596139 41.0135 0.595088 41.0373 0.734039 41.1265C1.23592 41.4457 1.40593 41.6406 1.72713 42.2773C2.03383 42.8829 2.06959 42.927 2.93159 43.8554C3.42971 44.3951 3.95269 45.0011 4.12214 45.2536C4.40769 45.6637 4.44916 45.7134 4.67679 45.8165C4.87331 45.9051 4.92878 45.9523 4.97849 46.085C5.02821 46.2178 5.08368 46.2649 5.24339 46.3333C5.39895 46.4058 5.48293 46.4815 5.60521 46.6785C5.73891 46.8869 5.82289 46.9626 6.12725 47.1258C6.78574 47.4937 6.98265 47.7985 7.12218 48.6854C7.17334 49.0106 7.28772 49.4322 7.36904 49.6131L7.52289 49.9496L7.93094 50.1916C8.15752 50.3186 8.74803 50.743 9.2395 51.1182C9.79785 51.552 10.2106 51.8236 10.3262 51.8562C10.4361 51.8831 10.7644 51.954 11.0616 52.0103C11.3587 52.0667 11.6802 52.1557 11.771 52.2132C11.8757 52.2681 12.1826 52.5999 12.5615 53.0535C13.0518 53.6352 13.2871 53.8788 13.6567 54.182C14.086 54.5282 14.1332 54.5837 14.2051 54.7968C14.2672 55.0084 14.2958 55.0369 14.498 55.1312C14.7567 55.2488 16.0449 56.5037 16.3817 56.9651C16.4921 57.117 16.7056 57.4053 16.8533 57.6111C17.0052 57.8128 17.1394 58.0549 17.1507 58.1576C17.1714 58.3194 17.1843 58.3407 17.3622 58.4023C17.5458 58.4696 17.5758 58.508 17.811 59.0255C18.0923 59.6223 18.4877 60.2419 18.7842 60.5384C19.0009 60.755 20.108 61.1647 20.4477 61.1556C20.567 61.1504 20.8045 61.1637 20.9845 61.1776C21.263 61.207 21.3195 61.2303 21.3521 61.346C21.3687 61.4207 21.3178 61.5856 21.2368 61.7122C21.1117 61.8944 21.1075 61.9898 21.1955 62.2439C21.342 62.6561 21.725 63.2882 22.0505 63.6469C22.3019 63.9315 22.3174 63.9387 22.4663 63.8469C22.6111 63.7591 22.6422 63.7736 22.9351 64.0167C23.1114 64.1598 23.4644 64.3883 23.7206 64.5199C24.1478 64.7312 24.209 64.7841 24.4453 65.0952C24.762 65.5198 27.1392 67.8638 27.6748 68.2748C27.8837 68.4422 28.3337 68.8589 28.6773 69.2109C29.1978 69.7396 29.3528 69.8697 29.6499 70.0174C29.9584 70.1764 30.0024 70.2122 30.0853 70.403C30.1418 70.5176 30.3398 70.7986 30.5243 71.0246C30.8902 71.457 32.1219 72.5973 32.6388 72.9814C33.0846 73.311 33.3101 73.553 33.3836 73.776C33.4452 73.9539 33.4851 73.9938 33.8952 74.2794C34.3152 74.5665 34.3836 74.6349 34.9387 75.3228C35.5125 76.0377 35.527 76.0688 35.4719 76.238C35.4225 76.4128 35.494 76.5922 35.577 76.5092C35.5978 76.4884 35.6875 76.4785 35.772 76.4966C35.91 76.5183 35.9328 76.5411 36.0271 76.7433C36.1519 77.0176 36.4557 77.3297 36.7274 77.4685C36.8788 77.5452 36.9373 77.6121 37.0042 77.7619C37.0767 77.9175 37.1337 77.9745 37.3178 78.0755C37.506 78.1724 37.5589 78.2336 37.6371 78.3949C37.7055 78.5546 37.7853 78.6344 38.0393 78.8137C38.2166 78.9329 38.5718 79.205 38.8263 79.418C39.0808 79.631 39.4982 79.9321 39.7377 80.0803C39.9944 80.2456 40.3568 80.5333 40.5947 80.7629C40.8269 80.9868 41.1758 81.3108 41.3806 81.4824L41.7476 81.7996L42.1685 81.3901C42.4965 81.0621 42.6578 80.9578 42.9291 80.8803C43.2705 80.7899 43.3078 80.7525 45.6136 78.4582C48.3179 75.7652 48.3843 75.6988 48.4903 75.456C48.5391 75.3388 48.618 75.2599 48.7077 75.25C48.9095 75.2193 51.0694 73.0365 51.1059 72.8404C51.1168 72.7268 51.1973 72.6578 51.4063 72.5514C51.6476 72.4356 51.7016 72.3816 51.7795 72.144C51.8548 71.9204 51.9114 71.8524 52.0624 71.8041C52.2232 71.7573 52.2574 71.7003 52.2929 71.4368C52.3194 71.2391 52.3916 71.0871 52.5042 71.0087C52.6459 70.9013 52.7034 70.9007 52.9119 71.0344C53.1882 71.2028 53.3127 71.1696 53.3471 70.9299C53.3887 70.7058 56.666 67.3487 57.2721 66.9251C57.6571 66.6542 57.7303 66.5696 57.8316 66.2972C57.9141 66.0892 57.9884 65.9807 58.0781 65.9708C58.2757 65.9443 58.4989 65.7439 58.8487 65.28C59.0636 64.9967 59.3781 64.7051 59.8238 64.362C60.543 63.8024 60.9624 63.2918 61.1894 62.6885C61.2907 62.4161 61.3364 62.3704 61.4863 62.346C61.632 62.3257 62.0062 61.9857 63.1977 60.7942C64.4682 59.5238 64.7624 59.1953 64.9732 58.8248C65.1129 58.5825 65.2998 58.3044 65.3953 58.2089C65.5738 58.0304 66.0043 57.8963 66.3529 57.9127C66.5271 57.9209 66.5868 57.8727 66.8707 57.5089C67.0457 57.277 68.2336 56.032 69.5108 54.7434L71.8327 52.3987L71.795 52.1285L71.7557 51.8485L71.9683 51.8867C72.1753 51.9193 72.2043 51.8902 74.0829 50.0572C75.1281 49.0348 76.2314 47.9543 76.5319 47.6653C76.9445 47.2641 77.1168 47.0462 77.2295 46.7852C77.4669 46.2171 77.5608 46.1118 77.9021 46.0214C78.4562 45.8779 78.8033 45.6106 79.3167 44.9033C79.6182 44.4991 79.9457 44.1374 80.2342 43.8945C80.6198 43.566 80.6956 43.4674 80.7772 43.1919C80.8416 42.9906 80.9169 42.8583 81.0051 42.8386C81.0736 42.8157 81.2043 42.7306 81.2915 42.6434L81.4591 42.4872L80.9675 42.3858C80.6942 42.3284 80.3965 42.2383 80.3016 42.185C79.8951 41.9528 79.6251 41.55 79.5704 41.0801C79.5307 40.7663 79.6194 40.7803 79.8463 41.1235C80.3941 41.9785 81.05 42.2691 81.7291 41.9435C82.2479 41.6984 82.44 41.3922 82.3641 40.9094C82.2912 40.4463 82.0456 40.0761 81.3976 39.4696C80.9461 39.043 80.8382 38.9684 80.4597 38.8224C79.9287 38.6235 79.8561 38.5592 79.8957 38.2916C79.9659 37.9134 79.3533 37.226 77.6063 35.7115C76.3756 34.6386 75.9915 34.213 75.3884 33.2196C75.0028 32.6016 74.8551 32.3958 74.6592 32.2496C74.3424 32.0076 74.3625 32.1357 74.7103 32.5748C75.0809 33.0367 75.0274 33.1244 74.5909 32.7626C74.2467 32.4682 74.0109 32.1909 73.9617 32.0005C73.9425 31.9399 73.6704 31.676 73.265 31.3287C72.4159 30.6042 71.4082 29.6048 69.0771 27.1575C67.5522 25.5578 67.0633 25.0773 66.4133 24.5185C65.9737 24.137 65.4086 23.6301 65.1577 23.3792C64.8099 23.0314 64.6352 22.8982 64.4459 22.8252C64.196 22.733 64.1846 22.7216 63.9613 22.3405C63.7742 22.0372 63.557 21.7868 62.9111 21.1327L62.0958 20.3173L62.0207 19.9931C61.9483 19.655 61.7975 19.4295 61.7466 19.5945C61.7305 19.6448 61.7107 19.733 61.6946 19.7833C61.665 19.8699 61.5385 19.7683 60.4727 18.8271C60.1254 18.5129 60.031 18.402 59.9134 18.1433C59.7943 17.8747 59.7414 17.8135 59.405 17.5684C59.1763 17.3978 58.5056 16.7686 57.6202 15.8749L56.2061 14.4608L56.185 14.174C56.1717 13.8452 56.0287 13.6689 55.9015 13.8075C55.82 13.9004 55.7718 13.8688 54.8858 13.124C54.2047 12.5507 53.6251 12.0127 52.7382 11.1092C51.4236 9.778 47.5022 5.95617 47.2637 5.78411C47.187 5.72399 46.992 5.64527 46.8369 5.60646L46.5481 5.54179L46.5311 5.25083L46.51 4.96402L46.0777 4.5981C45.8345 4.39648 45.694 4.2975 45.7541 4.37422C45.976 4.65417 45.7883 4.591 45.4803 4.2831C45.3093 4.11204 45.1875 3.94873 45.2083 3.92797C45.2332 3.90306 45.2995 3.92792 45.3509 3.97923C45.6754 4.27054 44.9181 3.39703 44.3593 2.83823C43.4283 1.89896 42.6518 1.23863 42.28 1.07443C41.9378 0.914883 41.3481 0.831716 41.2526 0.927204C41.2194 0.960417 41.0477 0.93822 40.8797 0.878152C40.1952 0.650338 39.6152 0.842579 39.1958 1.44447C39.0224 1.68627 38.9778 1.70808 38.7304 1.69318C38.3269 1.66334 38.1837 1.76093 38.0424 2.17594C37.9307 2.50432 37.899 2.54739 37.7502 2.54799C37.6309 2.55325 37.524 2.63734 37.3641 2.84282C37.1518 3.11213 37.1295 3.12303 36.8422 3.06822C36.4662 2.99946 36.4164 3.04928 36.5153 3.37235ZM38.634 4.19579C38.68 4.45769 38.8172 4.99339 38.9482 5.39839C39.2935 6.43292 39.3157 6.69588 39.0831 7.01966C38.9715 7.16547 38.8889 7.3735 38.8909 7.50835C38.8929 7.73449 38.8887 7.73863 38.7804 7.6303C38.5637 7.41362 38.5292 6.98056 38.6996 6.4452C38.7838 6.15573 38.8416 5.88133 38.8198 5.83466C38.8079 5.78955 38.6644 5.57957 38.5068 5.37219C38.2876 5.07824 38.2208 4.92838 38.2048 4.70485C38.1796 4.33091 38.2513 4.0539 38.4242 3.86967L38.5653 3.72851L38.634 4.19579ZM9.53566 33.2714C9.58128 33.317 9.58382 33.3943 9.53815 33.4399C9.45512 33.523 9.36749 33.4851 9.35304 33.3628C9.32873 33.2388 9.45013 33.1858 9.53566 33.2714ZM41.8369 1.31224C41.9542 1.26342 41.9951 1.27947 42.1568 1.48269C42.4274 1.82797 42.4076 1.91615 42.0741 1.87329C41.6914 1.82269 41.3793 1.51893 41.6081 1.41558C41.6569 1.38962 41.7601 1.3434 41.8369 1.31224ZM36.0319 7.72162C36.0801 7.75323 36.0879 7.8025 36.0505 7.83987C36.0132 7.87723 35.9442 7.86638 35.8929 7.81506C35.7959 7.71813 35.9044 7.6439 36.0319 7.72162ZM8.43466 35.7408C8.50933 35.7574 8.60162 35.8248 8.63063 35.887C8.71561 36.0301 8.39177 36.3539 8.0826 36.435C7.77343 36.5161 7.71491 36.3579 7.98317 36.1695C8.09577 36.0911 8.19386 35.9816 8.19856 35.9199C8.20592 35.7529 8.2796 35.702 8.43466 35.7408ZM9.4543 49.2157C9.54553 49.3069 9.65177 49.4629 9.67557 49.5532C9.72424 49.7098 9.72008 49.7139 9.57543 49.6191C9.42663 49.5284 9.14208 49.1857 9.07371 49.026C9.03125 48.9088 9.26613 49.0275 9.4543 49.2157ZM20.2542 58.5209C20.3854 58.6521 20.3931 58.7926 20.2702 58.7445C20.153 58.702 20.0462 58.5122 20.1044 58.4541C20.1251 58.4334 20.1972 58.4639 20.2542 58.5209ZM74.5311 33.0847C74.6508 33.2045 74.6958 33.3989 74.617 33.4778C74.5422 33.5526 74.408 33.4017 74.3785 33.2145C74.346 33.0076 74.4056 32.9593 74.5311 33.0847ZM75.0712 44.4276C75.1412 44.4146 75.289 44.4378 75.4005 44.4746C75.5841 44.5419 75.6297 44.5875 75.9546 45.0951C76.4173 45.807 76.5443 46.0336 76.4944 46.0834C76.3616 46.2162 76.1141 46.2926 76.0457 46.2242C76.0058 46.1843 75.9006 46.0044 75.8209 45.8332C75.7033 45.5745 75.6188 45.4651 75.3202 45.2163C74.9988 44.9447 74.9558 44.8851 74.9263 44.6979C74.8891 44.4614 74.8974 44.4531 75.0712 44.4276ZM80.2098 39.4942L80.4246 39.4847L80.1194 39.7442C79.9114 39.9181 79.7972 40.0779 79.7519 40.2486C79.6667 40.5619 79.6018 40.6382 79.5724 40.451C79.4995 39.9878 79.8182 39.5095 80.2098 39.4942ZM73.1844 46.8503C73.3213 46.9872 73.3596 47.1085 73.3273 47.3004C73.3028 47.4504 73.2888 47.453 73.1292 47.2933C73.0265 47.1907 72.9644 47.0704 72.9758 46.9905C72.9925 46.7913 73.0761 46.742 73.1844 46.8503ZM74.854 45.979C74.9773 46.2435 75.0077 46.4981 74.919 46.4842C74.8444 46.4676 74.6937 46.0595 74.6881 45.8713C74.6923 45.6845 74.7405 45.7161 74.854 45.979ZM64.2699 57.9886C64.4036 58.1971 64.5154 58.5414 64.4671 58.6011C64.3857 58.6939 64.2281 58.4866 64.1551 58.206C64.0786 57.872 64.1305 57.7745 64.2699 57.9886ZM71.2222 51.5723C71.3252 51.8 71.2665 52.007 71.1083 51.9484C71.0207 51.9106 70.8198 51.3361 70.8562 51.2313C70.905 51.114 71.103 51.3037 71.2222 51.5723ZM60.5012 61.7345C60.5909 61.7246 60.6194 61.7531 60.6334 61.8418C60.6473 61.9305 60.6183 61.9596 60.5156 61.9482C60.2879 61.9364 60.2724 61.7466 60.5012 61.7345ZM81.8766 40.7126C82.0715 40.9739 82.1003 41.4012 81.9121 41.2131C81.8437 41.1447 81.6667 40.569 81.704 40.5317C81.7165 40.5192 81.7963 40.5991 81.8766 40.7126ZM68.1706 54.6239C68.2504 54.795 68.2208 54.8816 68.1036 54.8391C68.016 54.8013 67.9689 54.6546 68.0094 54.5456C68.0567 54.4185 68.0878 54.433 68.1706 54.6239Z" fill="black" stroke="white" stroke-width="4" mask="url(#path-1-inside-1_977_1636)"/>
<path d="M39.2402 21.4688C39.1182 21.4883 38.8057 21.542 38.5469 21.5811C38.1221 21.6445 38.0391 21.6738 37.7266 21.8838C37.4385 22.0742 37.2676 22.25 36.7744 22.8701C36.1299 23.6807 35.9004 24.0762 35.8027 24.5596C35.7148 24.9893 35.7588 25.0967 35.8955 24.8037C35.959 24.6768 36.042 24.5254 36.0859 24.4717C36.1299 24.418 36.1103 24.4863 36.042 24.6279C35.8906 24.9307 35.793 25.4238 35.8418 25.6729C35.8564 25.7705 35.9687 26 36.0908 26.1855C36.4082 26.6738 36.3935 26.7422 35.8711 27.1572C35.4414 27.5039 35.2803 27.709 35.251 27.9727L35.2314 28.1826L35.3242 27.9873C35.4365 27.7529 35.6904 27.5186 36.0127 27.3574C36.2324 27.2451 36.2519 27.2402 36.3252 27.3184C36.4033 27.3916 36.4082 27.3916 36.4131 27.2793C36.4131 27.2061 36.4717 27.1133 36.5596 27.0449L36.7012 26.9277V27.1426C36.7012 27.2646 36.6475 27.4648 36.5742 27.6162C36.3447 28.1191 36.374 28.4658 36.6865 28.749L36.8135 28.8662L36.75 28.749C36.6377 28.5342 36.6865 28.2266 36.8965 27.7725C37.1309 27.2598 37.1797 26.9082 37.0771 26.4395C37.0137 26.1318 37.0137 26.1172 37.0918 26.1709C37.3017 26.2979 37.5947 26.8643 37.6973 27.3379C37.7363 27.5088 37.7803 27.5088 38.1025 27.3281C38.2441 27.2451 38.3711 27.1816 38.3857 27.1816C38.4004 27.1816 38.2685 27.0303 38.2002 27.1572C38.1367 27.2891 38.0146 27.2012 37.9951 27.2695C37.9609 27.3672 38.1953 27.5277 38.293 27.6162C38.4165 27.6667 38.4932 27.7139 38.6299 27.748C38.7275 27.7725 38.8008 27.875 38.9717 28.2266C39.1523 28.5928 39.206 28.7783 39.2891 29.2812C39.3428 29.6182 39.46 30.2578 39.543 30.707C39.6797 31.4248 39.6894 31.5371 39.6308 31.6494C39.5967 31.7178 39.543 31.7666 39.5137 31.7568C39.3721 31.708 39.167 30.6289 39.0889 29.5498C39.0303 28.6709 39.0058 28.5 38.9473 28.5C38.9228 28.5 38.8642 28.627 38.8203 28.7783C38.7226 29.1055 38.708 29.7451 38.7617 31.2588L38.8008 32.2354L38.6787 31.7715C38.6055 31.4834 38.5371 31.0342 38.5029 30.5752C38.4736 30.1748 38.4394 29.8086 38.4297 29.7695C38.415 29.7256 38.332 29.8135 38.2002 30.0137L37.9951 30.3213L37.9512 31.4883C37.9072 32.5918 37.9121 32.6748 38.0146 33.2021C38.1318 33.8125 38.3467 34.5547 38.625 35.3066C38.7226 35.5752 38.7959 35.7998 38.7861 35.8096C38.7519 35.8437 38.2783 35.1211 38.1074 34.7744C38.0098 34.584 37.8975 34.3154 37.8535 34.1787C37.751 33.8711 37.7021 33.832 37.5752 33.9492C37.4922 34.0225 37.4824 34.0762 37.5068 34.2568C37.5801 34.7305 37.8437 35.4678 38.2295 36.2734C38.4541 36.7373 38.6543 37.167 38.6738 37.2256C38.708 37.3281 38.7178 37.3281 38.874 37.2598C38.9766 37.2207 39.206 37.1914 39.4697 37.1914C39.9287 37.1914 40.207 37.2793 40.3779 37.4746C40.4805 37.5869 40.6123 37.9287 40.5781 37.9824C40.5635 38.002 40.4316 37.9629 40.2754 37.8945C39.8994 37.7236 39.6553 37.6504 39.3379 37.6113L39.0693 37.582L39.2158 37.6895C39.5039 37.9092 39.7236 38.1728 39.7822 38.3633C39.8164 38.4707 39.831 38.5732 39.8164 38.5879C39.7969 38.6025 39.6943 38.5684 39.5869 38.5098C39.4746 38.4561 39.3232 38.3877 39.25 38.3584L39.1182 38.3096L39.2549 38.4463C39.4111 38.6123 39.4209 38.6855 39.2891 38.7295C39.1719 38.7686 38.7031 38.6855 38.3564 38.5635C38.2148 38.5098 38.0781 38.4805 38.0586 38.4902C37.9512 38.5586 38.0342 38.7783 38.2588 39.0127C38.498 39.2666 38.7275 39.6328 38.5957 39.5547C38.5615 39.5303 38.3809 39.3984 38.1904 39.252C38.0049 39.1055 37.7412 38.9346 37.6094 38.8662L37.3652 38.7441L37.7314 38.3926C37.9316 38.2021 38.1953 37.9775 38.3223 37.8896C38.6103 37.6943 38.6592 37.5478 38.498 37.3281C38.4394 37.2402 38.2637 36.9326 38.1123 36.6396L37.8389 36.1074L37.8096 36.3613C37.7705 36.6836 37.6973 36.7959 37.3603 37.0498C37.0527 37.2793 36.8135 37.6162 36.7744 37.8701C36.6914 38.4023 36.6377 38.6123 36.5059 38.8955C36.4228 39.0664 36.3642 39.2178 36.3789 39.2275C36.3984 39.2471 36.5742 39.0469 36.7109 38.8516C36.7939 38.7295 36.7939 38.7344 36.7402 38.9248C36.6133 39.418 36.4228 39.7109 35.8809 40.2188C35.5928 40.4922 35.2656 40.7559 35.1533 40.8047C35.0361 40.8584 34.9189 40.9561 34.8799 41.0342C34.8408 41.1074 34.6601 41.2686 34.4746 41.3906C34.2939 41.5127 34.1035 41.6689 34.0498 41.7373C33.957 41.8643 33.957 41.8691 34.1328 42.416C34.2305 42.7188 34.2988 42.9775 34.2842 42.9922C34.2744 43.0068 34.2402 42.9531 34.2109 42.8799C34.167 42.7578 34.1523 42.7529 34.0644 42.8115C34.0107 42.8506 33.5566 43.168 33.0488 43.5195C32.541 43.876 31.5986 44.5205 30.9541 44.9551L29.7822 45.7461L29.3721 45.6094C28.8789 45.4482 28.1709 45.4238 27.8389 45.5557L27.6435 45.6338H27.9609C28.3613 45.6387 28.5957 45.707 28.7617 45.8584C28.9912 46.0732 28.9033 46.3857 28.5517 46.6104C28.1953 46.835 28.1269 46.8398 27.8975 46.6738C27.2529 46.2197 26.4424 46.0342 26.1885 46.2832C26.0908 46.3809 26.0273 46.3955 25.6611 46.3955C25.3047 46.3955 25.2168 46.415 25.0068 46.5322C24.8701 46.6055 24.6943 46.7227 24.6162 46.791L24.4697 46.9082L24.7236 46.8105C25.3096 46.5908 25.876 46.5908 26.4717 46.8154C26.7988 46.9375 27.2773 47.3525 27.2773 47.5186C27.2773 47.626 26.9453 48.1289 26.8721 48.1289C26.8525 48.1289 26.5889 47.9824 26.291 47.8018L25.749 47.4697L25.3535 47.4746C25.1094 47.4795 24.8164 47.5186 24.5918 47.5869C24.3916 47.6406 24.1475 47.6895 24.0547 47.6895C23.8057 47.6895 23.4248 47.8945 23.2197 48.1436C23.0488 48.3437 22.8047 48.7637 22.8535 48.7637C22.8682 48.7637 23.0098 48.6807 23.1709 48.5732C23.7715 48.1875 24.3818 48.1338 24.9629 48.4219C25.4658 48.6709 25.8564 49.1885 25.7441 49.4717C25.6904 49.6133 25.3975 49.6914 24.9141 49.6914C24.3769 49.6914 24.3281 49.7207 24.2793 50.0674C24.25 50.2871 24.2598 50.3115 24.3916 50.4238C24.5039 50.5215 24.5381 50.5996 24.5576 50.79C24.582 51.0293 24.5771 51.0342 24.1963 51.5469C23.9814 51.8301 23.708 52.2549 23.581 52.499C23.459 52.7383 23.2392 53.0996 23.0976 53.2998C22.79 53.7197 22.7851 53.7686 22.956 54.3643C23.0732 54.7549 23.0781 54.8232 23.0293 55.1064C23 55.2773 22.9902 55.4873 23.0098 55.5703C23.0244 55.6533 23.2002 56.0391 23.4004 56.4297C23.7129 57.0547 23.8008 57.1816 24.1279 57.5039C24.3281 57.7041 24.4941 57.8457 24.4941 57.8164C24.4941 57.7871 24.3769 57.5869 24.2305 57.3721C24.0107 57.0449 23.8105 56.625 23.8105 56.4932C23.8105 56.4736 24.0205 56.7666 24.2695 57.1426C24.9433 58.1387 25.8369 59.125 26.2226 59.2861C26.3887 59.3545 27.3896 59.6035 27.4141 59.5791C27.4238 59.5742 27.2236 59.4619 26.9746 59.335C26.7256 59.2031 26.4131 59.0127 26.2764 58.9102C25.9687 58.6709 25.5586 58.1924 25.4316 57.9238C24.4258 55.8291 24.3476 55.6289 24.3476 55.1748C24.3476 54.9062 24.4404 54.4766 24.499 54.4766C24.5625 54.4766 24.9238 54.9941 24.9824 55.1748C25.0117 55.2725 25.1142 55.4678 25.2119 55.6045C25.4219 55.917 25.5195 56.1367 25.5195 56.3271C25.5195 56.6348 26.3594 57.5332 26.9307 57.8408L27.2285 57.9971V57.8652C27.2285 57.792 27.2529 57.6504 27.2822 57.5527C27.3262 57.4014 27.3213 57.3232 27.2578 57.1328C27.165 56.8643 27.1553 56.6445 27.2334 56.5957C27.2871 56.5664 27.7119 56.9863 27.9658 57.3281C28.0439 57.4355 28.1562 57.6748 28.21 57.8652C28.3418 58.3096 28.415 58.4414 28.6543 58.7051C28.7617 58.8223 28.835 58.9199 28.8203 58.9199C28.8008 58.9199 28.5713 58.8662 28.3125 58.8027C27.6777 58.6465 27.4726 58.6123 27.4726 58.6709C27.4726 58.6953 27.585 58.8174 27.7266 58.9443C28.0488 59.2324 28.6103 59.5254 28.7861 59.4912C29.0059 59.4473 29.6748 59.6475 30.1338 59.8965C30.666 60.1797 31.0762 60.3066 31.335 60.2676C31.4717 60.248 31.6328 60.2773 31.9502 60.3799C32.1846 60.4629 32.5459 60.5508 32.7461 60.5801C32.9463 60.6094 33.2441 60.6582 33.4101 60.6826C33.5713 60.707 33.8008 60.7266 33.9131 60.7266C34.167 60.7266 34.7969 60.624 34.7969 60.585C34.7969 60.5361 33.5615 60.3164 33.3223 60.3262C33.0391 60.3359 32.5557 60.1699 31.8916 59.833C31.4766 59.623 31.335 59.5156 30.9394 59.1201C30.6416 58.8223 30.4219 58.5537 30.3389 58.3828C30.2119 58.124 30.1728 57.9238 30.2412 57.8799C30.29 57.8506 31.208 58.0166 31.4863 58.0996C31.6084 58.1338 31.8086 58.2705 32.0137 58.4609C32.4141 58.8271 32.6582 58.9736 33.1904 59.1689C33.7617 59.3789 34.3281 59.5059 34.6894 59.5059C35.0215 59.5059 35.4463 59.418 35.4072 59.3594C35.3975 59.3398 35.2461 59.2959 35.0801 59.2666C34.5967 59.1738 34.0547 58.9834 33.7666 58.7979C33.4932 58.6221 33.5127 58.5977 33.8447 58.6758C34.2012 58.7637 35.2559 58.8711 35.7002 58.8662L36.1396 58.8613L35.5293 58.749C35.1924 58.6855 34.831 58.6025 34.7236 58.5635C34.5332 58.4902 34.5381 58.4854 35.1533 58.4854C35.7148 58.4805 37.1553 58.3584 37.2383 58.3096C37.2578 58.2998 37.6973 58.2559 38.2148 58.2119C39.1865 58.1338 39.6455 58.0508 39.8994 57.8945C39.9824 57.8506 40.3193 57.7627 40.6562 57.7041C41.8476 57.4941 42.3115 57.3623 42.5068 57.1865C42.6631 57.0449 42.7412 57.0156 43.0976 56.9668C43.7568 56.8789 44.5283 56.7275 44.8164 56.6299C45.2168 56.4932 45.3877 56.3906 45.6562 56.1367C45.8467 55.9609 45.9687 55.8926 46.1689 55.8438C46.3105 55.8096 46.7451 55.6533 47.1309 55.502C47.5117 55.3457 48.0391 55.1504 48.293 55.0625C48.6103 54.96 48.8594 54.8379 49.0644 54.6865C49.4502 54.3984 49.6797 54.3008 50.1045 54.2324C50.6465 54.1445 51.2519 54.2617 51.2519 54.457C51.2519 54.4961 51.2275 54.6279 51.1982 54.7451C51.1543 54.9209 51.0859 55.0088 50.8125 55.2432C50.3584 55.6289 50.29 55.7949 50.6611 55.6045C50.9004 55.4775 50.9394 55.4775 51.0859 55.5947C51.1836 55.6729 51.2373 55.6777 51.4082 55.6387C51.6914 55.5801 52.0674 55.4043 52.4092 55.1699C52.5654 55.0674 52.9121 54.8672 53.1807 54.7256C53.4492 54.5889 53.7373 54.418 53.8154 54.3545L53.9619 54.2324L53.7519 54.3057C53.6348 54.3447 53.4346 54.3887 53.3027 54.4082L53.0586 54.4424V54.2275C53.0586 53.9199 53.0146 53.876 52.6728 53.8516C52.3164 53.8271 52.2969 53.7734 52.5361 53.4707C52.7168 53.2363 52.7705 53.1875 53.7959 52.3672C54.5088 51.7959 54.5967 51.7422 55.1631 51.5127C55.4951 51.3809 55.9346 51.21 56.1445 51.1367C56.3496 51.0635 56.7012 50.8877 56.9258 50.7461C57.1455 50.6045 57.6045 50.3311 57.9414 50.1406C58.8496 49.623 59.2646 49.3105 60.2412 48.3975C61.1934 47.5137 61.4228 47.2158 61.8476 46.3662C62.0869 45.8828 62.1064 45.8682 61.2031 46.957C60.8125 47.4258 60.3535 47.9434 60.1826 48.0996C59.4648 48.7637 58.7373 49.2666 58.2344 49.4375C58.0879 49.4912 57.6728 49.6768 57.3213 49.8574C56.6865 50.1748 56.457 50.2383 56.4131 50.1211C56.3984 50.0771 56.2861 50.1064 56.0078 50.2236C55.1435 50.5996 54.5137 50.9121 54.3184 51.0684C54.2012 51.1611 54.0205 51.293 53.9131 51.3662C53.8057 51.4346 53.5762 51.6055 53.4004 51.7422C53.2002 51.8936 52.956 52.0303 52.7412 52.0986C52.5557 52.1621 52.3555 52.2305 52.3018 52.25C52.2236 52.2793 52.2236 52.2695 52.3213 52.2012C52.3848 52.1523 52.5996 51.9814 52.7998 51.8154C53.2881 51.4248 53.5859 51.21 53.8545 51.0488C54.04 50.9414 54.0791 50.8926 54.1084 50.7168C54.1523 50.4482 54.3769 50.2969 54.831 50.2334C55.1875 50.1846 55.4463 50.0527 55.7685 49.7646C55.9346 49.6133 55.9443 49.5937 55.8418 49.6279C55.7734 49.6475 55.6562 49.6621 55.5732 49.667C55.3389 49.667 55.3926 49.5205 55.7295 49.2373C55.8955 49.0957 56.4277 48.6123 56.9111 48.1631C57.5703 47.5479 57.8584 47.2402 58.0635 46.9375C58.3955 46.4395 58.8057 46.0391 59.5771 45.458C59.8994 45.2188 60.1973 44.9795 60.2363 44.9307C60.2851 44.8721 60.3096 44.7354 60.3096 44.54C60.3096 44.2275 60.3535 44.1348 60.71 43.6855L60.8467 43.5195L60.6758 43.6416C60.456 43.8027 60.334 43.8467 60.334 43.7637C60.334 43.7295 60.3779 43.5781 60.4268 43.4268C60.5244 43.1533 60.7051 42.8555 61.2373 42.0986C61.6084 41.5762 61.8476 41.1562 62.0625 40.6582C62.165 40.4336 62.3115 40.1504 62.3896 40.0332C62.4678 39.9209 62.5312 39.8135 62.5312 39.7988C62.5312 39.7842 62.4336 39.8281 62.3115 39.8916C62.1894 39.96 62.0918 40.0039 62.0918 39.9893C62.0918 39.9404 62.4531 39.3154 62.6094 39.0957C62.8389 38.7686 62.956 38.5146 63.0391 38.1533C63.1367 37.7383 63.2197 37.543 63.4736 37.1182L63.6787 36.7812L63.6934 36.0684C63.7031 35.6777 63.7031 35.2725 63.6934 35.165C63.6787 34.9941 63.6689 35.0234 63.5908 35.4043C63.3809 36.4248 62.9756 37.3477 62.5801 37.7041L62.4775 37.7969L62.5117 37.5039C62.5264 37.3477 62.5801 36.9717 62.6289 36.6787C62.707 36.2148 62.7168 35.9707 62.6924 34.9209C62.6777 34.1543 62.6875 33.6221 62.7168 33.4854C62.7607 33.2998 62.751 33.2266 62.6338 32.8994C62.5557 32.6943 62.458 32.3623 62.4092 32.1621C62.3262 31.8057 61.9404 30.9902 61.7451 30.7461C61.6621 30.6484 61.6523 30.6436 61.6768 30.7217C61.7305 30.8779 61.7891 31.1367 61.7695 31.1367C61.7598 31.1367 61.6963 31.0342 61.6328 30.9023C61.5644 30.7754 61.3984 30.5068 61.2617 30.3066C61.0127 29.9453 61.0078 29.9404 61.042 30.1357C61.0615 30.2432 61.0664 30.3213 61.0518 30.3066C61.0371 30.292 60.8711 30.0527 60.6855 29.7695C60.1826 29.0225 59.8018 28.5488 59.5723 28.3877C59.3769 28.251 59.3672 28.2461 59.2402 28.3291C59.0547 28.4512 58.8984 28.3926 58.5029 28.0459C58.3174 27.8848 58.0976 27.6943 58.0146 27.626L57.8682 27.499L57.9902 27.6455C58.3027 28.0166 58.3076 28.0264 58.0537 27.8359C57.5947 27.4893 57.2578 27.3086 57.1992 27.3672C57.1211 27.4453 56.9014 27.4404 56.6035 27.3574C56.4668 27.3184 56.1299 27.2256 55.8516 27.1523C55.4512 27.0498 55.3291 26.9961 55.2705 26.9033C55.2266 26.835 55.1387 26.7617 55.0752 26.7373C55.0117 26.7129 54.5478 26.708 54.0449 26.7275L53.1318 26.7568L52.9121 26.9863C52.79 27.1133 52.5215 27.3086 52.3018 27.4209C51.6475 27.7725 51.2471 28.0605 50.7588 28.5488C50.0215 29.2764 49.5674 30.0527 49.2891 31.0732C49.1377 31.6348 49.1377 32.8506 49.2891 33.4072C49.7725 35.1553 51.1689 36.3125 52.5215 36.0781C53.21 35.9609 53.9131 35.4531 54.1865 34.8721C54.3769 34.4766 54.3721 34.3057 54.1816 34.6377C53.9228 35.0918 53.4883 35.3311 52.9316 35.3359C52.6533 35.3359 52.541 35.3115 52.3457 35.209C51.2812 34.6426 50.7881 33.3779 51.1689 32.1963C51.2373 31.9863 51.3496 31.7275 51.4228 31.625C51.5303 31.4688 51.5449 31.4199 51.4961 31.3369C51.4277 31.21 51.4033 31.21 51.2031 31.3418C50.7881 31.625 50.5391 32.7432 50.6855 33.6807C50.7197 33.9004 50.71 33.9688 50.6514 34.0225C50.583 34.0811 50.5928 34.1152 50.7148 34.335C50.7881 34.4668 50.8613 34.6377 50.876 34.7061C50.9101 34.8428 51.3545 35.2139 51.6865 35.3848C51.7988 35.4385 51.8867 35.5068 51.8867 35.5312C51.8867 35.6289 51.6133 35.5752 51.3691 35.4336C51.0518 35.2529 50.7832 34.9404 50.5195 34.4473C50.3535 34.1299 50.3193 34.0322 50.3486 33.9053C50.3926 33.7051 50.3926 33.6074 50.3486 32.748C50.3047 31.9033 50.3389 31.7422 50.6416 31.3564C50.7685 31.1904 50.8711 31 50.8857 30.8975C50.9053 30.7998 50.9248 30.6777 50.9346 30.6191C50.9687 30.4678 51.4277 29.8818 51.7842 29.5352C52.2139 29.1201 52.6875 28.832 53.332 28.5977C53.625 28.4854 53.9668 28.3535 54.0937 28.2949C54.2939 28.207 54.3867 28.1973 54.875 28.2168C55.4658 28.2412 55.6025 28.2852 55.9541 28.5635C56.1348 28.71 56.1396 28.71 56.3057 28.6318C56.5059 28.5391 56.5742 28.5537 56.706 28.7344C56.7598 28.8076 57.0918 29.0615 57.4434 29.2959C58.1221 29.75 58.5029 30.1211 58.6982 30.502C58.8301 30.7607 58.9961 31.3662 58.9473 31.415C58.9326 31.4297 58.8301 31.415 58.7275 31.3809C58.498 31.3076 58.3809 31.3418 58.3809 31.4785C58.3809 31.5908 58.9228 32.2012 59.2451 32.4502L59.4551 32.6162L59.5674 32.5137L59.6748 32.4111L59.831 32.6406C60.0752 33.002 60.2705 33.5684 60.3096 34.0273C60.3242 34.252 60.3144 34.8477 60.2803 35.3603C60.251 35.8682 60.2168 36.4785 60.2119 36.7129C60.1973 37.2598 60.168 37.3672 59.9775 37.6064C59.8848 37.7236 59.7529 38.0068 59.6406 38.3535C59.4502 38.9199 59.0498 39.8135 58.6934 40.4678C58.3223 41.1416 57.5801 42.2744 57.3555 42.5088C57.1113 42.7627 55.8564 43.8564 55.6514 43.9883C55.5098 44.0859 55.4316 44.1006 55.4756 44.0273C55.4902 43.998 55.4707 43.9785 55.4316 43.9785C55.3877 43.9785 55.2851 44.0713 55.2021 44.1836C55.0166 44.4473 54.8896 44.5303 54.9385 44.3643C54.958 44.3008 55.0166 44.1494 55.0654 44.0322C55.1875 43.749 55.1826 43.7295 55.0215 43.9297C54.6797 44.3643 54.0547 45.0088 53.7812 45.2041C53.5908 45.3408 53.4199 45.5215 53.3027 45.6973C53.2051 45.8486 53.0342 46.0439 52.917 46.127C52.7168 46.2734 52.5801 46.498 52.5557 46.7227C52.5459 46.8154 52.5654 46.8301 52.668 46.8203C52.8584 46.7959 53.2539 46.498 53.3711 46.293C53.4443 46.1611 53.5566 46.0684 53.7764 45.9561C54.167 45.7559 54.3135 45.6436 54.8408 45.1211C55.085 44.8818 55.3779 44.6133 55.5 44.5254C55.6221 44.4424 55.9541 44.1885 56.2422 43.9639C56.7793 43.5488 57.1309 43.3193 57.0332 43.4463C56.3154 44.3984 55.7978 44.9697 55.4023 45.2627C55.2559 45.3701 54.9141 45.6729 54.6455 45.9316C53.8447 46.708 52.3066 47.9141 51.5596 48.3535C51.3545 48.4756 51.0664 48.6611 50.915 48.7637C50.7539 48.876 50.4707 49.0078 50.2266 49.0859C49.665 49.2617 49.4502 49.3789 48.9326 49.7891C48.4248 50.1895 47.9268 50.4482 47.4678 50.5459C47.1797 50.6045 47.1113 50.6436 46.8232 50.9121C46.4717 51.2441 46.1885 51.3955 45.9394 51.4004C45.6758 51.4004 45.583 51.3271 45.5976 51.1172C45.6123 50.9658 45.5928 50.9316 45.4805 50.873C45.2705 50.7754 44.8018 50.79 44.5381 50.9072C44.2549 51.0342 43.6885 51.4102 43.5273 51.5859C43.459 51.6592 43.3662 51.835 43.3174 51.9717C43.2637 52.1426 43.1904 52.2646 43.0879 52.333C42.9609 52.4258 42.9463 52.46 42.9756 52.6064C43.0049 52.7676 42.9853 52.7969 42.6973 53.0801C42.5264 53.2461 42.3262 53.4316 42.248 53.4902C42.1699 53.5488 42.1211 53.6123 42.1357 53.6318C42.1553 53.6465 42.4482 53.6611 42.79 53.6611L43.415 53.666L42.9512 53.8125C42.331 54.0176 41.2812 54.54 41.125 54.7256C41.0029 54.8721 41.0029 55.0137 41.125 55.0137C41.2275 55.0137 42.5166 54.6182 42.6728 54.54C42.7461 54.501 42.834 54.418 42.8633 54.3496C42.917 54.2373 42.9072 54.2129 42.8047 54.1348C42.7363 54.0859 42.6973 54.0322 42.707 54.0176C42.7412 53.9834 43.5469 53.6904 43.5566 53.7051C43.5615 53.7148 43.5957 53.7832 43.625 53.8613C43.6836 53.9932 43.7031 53.998 43.9228 53.9785C44.0791 53.9639 44.2549 53.8955 44.4453 53.7734C44.6064 53.6758 44.8603 53.5537 45.0068 53.5L45.2705 53.4023L45.124 53.5098C44.8066 53.7539 44.7432 53.8271 44.7725 53.9102C44.792 53.9541 44.8603 54.0127 44.9287 54.0371C44.9971 54.0615 45.0508 54.1055 45.0508 54.1299C45.0508 54.208 44.4453 54.5693 44.1475 54.6719C43.9863 54.7256 43.6592 54.8525 43.4199 54.9502C43.0684 55.0967 42.9609 55.165 42.8584 55.3164C42.7021 55.5459 42.5654 55.585 42.292 55.4824C41.9502 55.3506 41.4912 55.4971 41.3887 55.7705C41.2861 56.0391 40.6514 56.1465 39.9678 56.0195C39.3818 55.9121 39.3135 55.917 38.8252 56.1367C38.2978 56.3711 38.0635 56.3857 37.8242 56.21C37.5996 56.0439 37.4092 56.0195 36.9355 56.083C36.7109 56.1123 36.1592 56.1611 35.7002 56.1855C34.9287 56.2295 34.8603 56.2295 34.748 56.1416C34.5771 56.0195 34.5185 56.0049 33.6982 55.8682C33.2978 55.7998 32.9609 55.7363 32.9463 55.7217C32.9316 55.707 33.2148 55.7021 33.5762 55.7168C34.3281 55.751 34.2988 55.7266 33.3076 55.502C32.9121 55.4092 32.5264 55.2871 32.2822 55.1699C31.5351 54.8086 30.8564 54.1494 30.5586 53.5C30.4658 53.2949 30.4316 53.124 30.4121 52.7871C30.3926 52.377 30.4023 52.3184 30.5244 52.0791C30.6807 51.7568 30.9394 51.4834 31.4424 51.0977C31.6523 50.9365 31.8183 50.7998 31.8086 50.7949C31.7988 50.79 31.5986 50.7949 31.3545 50.8145C30.9687 50.8389 30.8711 50.8682 30.5488 51.0342C29.8652 51.3906 29.3965 51.9863 29.2744 52.6406C29.2109 52.9971 29.25 53.2949 29.4062 53.6416C29.4697 53.7832 29.5234 53.9883 29.5234 54.0859C29.5234 54.2422 29.5527 54.3008 29.7041 54.4229C29.8017 54.5059 30.0264 54.6328 30.2021 54.7061C30.3779 54.7793 30.583 54.8867 30.6562 54.9453C30.7295 55.0039 30.9199 55.1357 31.0859 55.2334C31.2471 55.3311 31.3789 55.4189 31.3789 55.4287C31.3789 55.4385 31.1543 55.3408 30.876 55.2139C30.6025 55.0869 30.2851 54.9502 30.1826 54.916C29.8359 54.8037 29.6016 54.6621 29.2793 54.3691C29.1035 54.208 28.8203 54.0029 28.6445 53.9053C28.1367 53.6221 28.083 53.5684 27.8975 53.2168C27.6435 52.7334 27.4287 51.9326 27.3652 51.1953C27.3066 50.5801 27.3066 50.5703 27.4189 50.4238C27.6289 50.1357 27.7656 49.7793 27.7656 49.501C27.7656 49.1836 27.9121 48.9736 28.332 48.6855C28.5859 48.5098 28.6348 48.4951 28.9326 48.4951C29.1621 48.5 29.3281 48.5342 29.5137 48.6123C29.6553 48.6758 29.7871 48.71 29.8066 48.6953C29.8506 48.6465 29.8457 48.0557 29.7969 47.8311C29.7627 47.6846 29.7773 47.6357 29.8945 47.499C30.0557 47.3037 30.5537 47.0547 30.7783 47.0547C30.8613 47.0547 31.0762 47.1328 31.2568 47.2256C31.5742 47.3965 31.584 47.3965 31.7451 47.3232C31.833 47.2793 32.0576 47.1133 32.2383 46.9521C32.4238 46.791 32.6533 46.6445 32.7461 46.6201C32.8389 46.5908 33.3271 46.5469 33.8301 46.5176C34.333 46.4883 34.8603 46.4443 35.0019 46.4248C35.2119 46.3955 35.2949 46.4102 35.4072 46.4785C35.6318 46.6152 35.71 46.5859 35.9297 46.3027C36.1055 46.0732 36.208 46.0049 36.7451 45.7314C37.2187 45.4971 37.4238 45.3652 37.6387 45.1455L37.917 44.8672L37.9512 45.0381C38 45.3066 37.9414 45.9463 37.8486 46.1221C37.8047 46.21 37.6973 46.3223 37.6045 46.376C37.3945 46.5029 37.375 46.5615 37.4141 46.9814C37.4482 47.3525 37.4189 47.4941 37.2041 47.9824C37.1162 48.1875 37.0771 48.2314 37.043 48.1777C36.9648 48.0508 36.8769 48.2021 36.584 48.9639C36.2861 49.75 36.1641 50.165 36.1641 50.4141C36.1641 50.7266 36.0127 51.2441 35.8613 51.4541C35.7832 51.5615 35.7002 51.6348 35.6758 51.6152C35.5976 51.5225 35.7344 50.7217 36.0127 49.6328C36.5644 47.4941 36.7549 46.8398 36.9111 46.5127C37.0918 46.1318 37.0478 46.1562 36.6572 46.6445C36.4766 46.8643 36.2471 47.2549 36.0225 47.7041C35.749 48.2656 35.6123 48.4854 35.3828 48.7295C35.041 49.0957 34.9141 49.374 34.8408 49.8818C34.7578 50.4287 34.6943 50.541 34.3721 50.6729C34.0596 50.7998 33.9375 50.9609 33.8935 51.3027C33.8447 51.6494 33.7959 51.7617 33.5615 52.0498C33.2685 52.4111 33.2344 52.6064 33.4004 53.002C33.5566 53.373 33.5566 53.4414 33.4004 53.7783C33.293 53.998 33.2832 54.0664 33.3223 54.1641C33.415 54.3545 34.1475 54.6719 34.5088 54.6719C34.6846 54.6719 34.7041 54.6572 34.8164 54.4375C34.8799 54.3105 34.9873 54.1543 35.0557 54.0957C35.1631 53.9932 35.1924 53.9883 35.2949 54.0371C35.3535 54.0713 35.4609 54.1494 35.5293 54.208C35.6807 54.3496 35.9736 54.4277 36.3838 54.4424C36.5596 54.4473 36.7012 54.4619 36.7012 54.4766C36.7012 54.4912 36.623 54.5449 36.5303 54.5937C36.2861 54.7256 36.2617 54.8525 36.4521 55.0234L36.6084 55.165L37.2773 55.1357C37.7119 55.1162 38.0488 55.0723 38.2392 55.0137C38.4004 54.96 38.7422 54.8867 38.9961 54.8428C39.416 54.7744 39.8408 54.6572 40.4512 54.4424C40.5976 54.3887 40.6807 54.3301 40.7148 54.2373C40.8418 53.9004 40.9492 53.7637 41.1738 53.6318L41.4131 53.4951L41.1396 53.5195C40.9932 53.5342 40.7392 53.5928 40.583 53.6465C40.4267 53.7002 40.2754 53.7393 40.2461 53.7295C40.1484 53.6953 40.6953 53.4072 40.998 53.3291C41.1738 53.2852 41.3935 53.2266 41.4863 53.2021C41.584 53.1826 41.7549 53.0898 41.8672 53.002C42.1308 52.7969 42.5361 52.2158 42.5801 51.9717C42.6289 51.7178 42.9609 51.3223 43.3418 51.0732C43.5176 50.9561 43.7226 50.7949 43.7959 50.7119C43.9082 50.5898 43.9912 50.5557 44.2353 50.5215C44.7871 50.4434 45.1826 50.2432 45.7051 49.7842C45.8809 49.6279 45.9443 49.5986 46.0127 49.6328C46.1885 49.7354 46.4326 49.5645 46.7988 49.0811C47.2822 48.4414 47.4092 48.3682 47.5801 48.6025C47.6728 48.7295 47.6777 48.7295 47.7998 48.6514C47.9365 48.5635 48.2246 48.2949 48.2246 48.2559C48.2246 48.2461 48.1025 47.7432 47.956 47.1426C47.8096 46.5469 47.6875 46.0293 47.6924 46.0049C47.6924 45.9609 47.9414 46.6641 48.2539 47.5918C48.3223 47.792 48.3857 47.9629 48.3906 47.9727C48.4004 47.9775 48.5322 47.9385 48.6836 47.8799C48.8838 47.8066 49.04 47.6992 49.2402 47.4941C49.3916 47.3379 49.5674 47.1865 49.6309 47.1523C49.7383 47.0986 49.7432 47.1035 49.6846 47.2109C49.6553 47.2744 49.5527 47.4111 49.4648 47.5234C49.3184 47.7041 49.3135 47.7285 49.3818 47.7969C49.4893 47.9092 49.4258 48.041 49.1768 48.2168C49.0059 48.3389 48.957 48.4023 48.957 48.5098C48.957 48.793 49.1768 48.8369 49.582 48.6367C49.7578 48.5488 49.8994 48.4268 50.0459 48.2363C50.207 48.0215 50.3242 47.9238 50.5635 47.8115C50.8955 47.6504 51.1689 47.3525 51.1201 47.2109C50.9932 46.835 50.2461 45.3115 49.9043 44.7256C48.9766 43.1387 48.3125 42.2061 47.5557 41.4346L47.1943 41.0684L47.3799 40.8682L47.5654 40.6631L48.2002 41.0049C49.123 41.4932 49.2695 41.6641 50.1094 43.1729C50.2314 43.3926 50.4023 43.6514 50.4951 43.7588C50.6025 43.876 50.666 43.998 50.666 44.0859C50.666 44.1592 50.7344 44.4033 50.8125 44.623C50.8955 44.8477 50.9834 45.1699 51.0127 45.3408C51.0713 45.7217 51.1103 45.7998 51.1592 45.624C51.2129 45.4336 51.1299 44.9502 50.9785 44.5352C50.8223 44.1055 50.8418 44.0273 51.0908 44.0273C51.3545 44.0273 51.584 43.8711 51.6963 43.6074C51.8867 43.1777 51.6963 42.7773 51.125 42.4111L50.793 42.1963L51.335 42.167C52.1943 42.1133 52.5215 41.9033 52.5215 41.3955C52.5215 41.2148 52.4971 41.1562 52.3506 41.0195C52.1504 40.834 51.7109 40.6777 51.1787 40.6094C50.9932 40.585 50.3144 40.5605 49.6797 40.5605C48.581 40.5605 48.5078 40.5557 48.1953 40.4434C48.0195 40.3799 47.8535 40.3066 47.8291 40.2822C47.8047 40.2578 47.8242 40.1504 47.8828 40.0332C48.0391 39.7158 48.1416 39.252 48.1074 39.0322C48.0391 38.6123 47.7607 38.2705 47.3896 38.1582C47.0869 38.0703 46.7891 38.1631 46.5254 38.4365C46.4082 38.5586 46.291 38.6562 46.2617 38.6562C46.1934 38.6562 46.2568 38.4268 46.3643 38.2705C46.54 38.0264 46.7012 37.6455 46.8574 37.1426C46.9453 36.8594 47.126 36.4102 47.2529 36.1416C47.8144 34.9893 47.9219 33.6074 47.5557 32.1084L47.4287 31.5664L47.5117 31.2197C47.5557 31.0244 47.6094 30.6484 47.624 30.375C47.6631 29.7012 47.5605 29.2666 47.2139 28.5977C46.9941 28.1777 46.9453 28.0459 46.9502 27.8604C46.9551 27.6406 46.9453 27.6211 46.667 27.3623C46.2617 26.9912 45.6172 26.5713 45.1338 26.3711C44.7529 26.21 44.5137 26.0293 44.5137 25.8926C44.5137 25.7705 44.3379 25.6729 44.0156 25.6191C43.835 25.5947 43.6348 25.5508 43.5762 25.5264C43.3906 25.458 43.2002 25.2334 43.1855 25.0674C43.1709 24.8916 43.0879 24.8379 42.6338 24.7061L42.3408 24.6182L42.3555 24.335C42.3701 24.1201 42.3506 24.0176 42.2725 23.8809C42.2139 23.7832 42.1504 23.5635 42.1211 23.3877C42.0723 23.0215 41.9355 22.792 41.4228 22.2012C41.0615 21.7812 40.793 21.5762 40.5244 21.5176C40.2314 21.4492 39.4844 21.4199 39.2402 21.4688ZM38.791 25.2773C38.7812 25.4385 38.7471 25.5947 38.7129 25.6289C38.6543 25.6875 38.1172 25.751 38.1172 25.6973C38.1172 25.4971 38.5615 24.9844 38.7324 24.9844C38.8008 24.9844 38.8105 25.0332 38.791 25.2773ZM41.6133 27.3867C41.5205 27.7432 41.3642 28.2656 41.2666 28.5488C41.1445 28.9102 41.0762 29.2129 41.042 29.5742C40.9346 30.7314 40.8174 31.1367 40.4267 31.7617C40.1582 32.1816 39.3769 33.2949 39.3574 33.2705C39.3574 33.2656 39.3672 33.0508 39.3818 32.792C39.4209 32.2891 39.4014 32.333 39.9922 31.3125C40.29 30.7949 40.5439 30.1748 40.6611 29.6914C40.71 29.4766 40.8808 28.9688 41.042 28.5684C41.1982 28.168 41.4228 27.5869 41.54 27.2695C41.6572 26.957 41.7598 26.708 41.7695 26.7178C41.7793 26.7275 41.7109 27.0254 41.6133 27.3867ZM42.7998 27.1621C42.707 27.3232 42.6191 27.582 42.5752 27.8066C42.5264 28.0654 42.3994 28.4023 42.1699 28.8906C41.9892 29.2812 41.7793 29.7842 41.7012 30.0137C41.54 30.4971 41.4961 30.4189 41.584 29.7988C41.7109 28.9053 42.1113 27.6895 42.2187 27.8701C42.2529 27.9238 42.2676 27.9141 42.292 27.8408C42.3603 27.6211 42.5264 27.3379 42.7119 27.1182C42.8193 26.9912 42.917 26.8887 42.9316 26.8887C42.9414 26.8887 42.8828 27.0107 42.7998 27.1621ZM44.4014 27.958C44.5137 28.0117 44.7725 28.0996 44.9775 28.1533C45.4463 28.2852 45.5928 28.3584 45.8662 28.6123C46.2324 28.9492 46.2275 29.0127 45.8467 28.8223C45.666 28.7295 45.2363 28.583 44.8945 28.4951L44.2744 28.3389L43.8935 28.6221C43.4248 28.9736 42.6777 29.7207 42.3017 30.2188C42.1504 30.4238 41.8769 30.8584 41.7012 31.1855C41.5205 31.5078 41.3642 31.7666 41.3545 31.752C41.3203 31.7178 41.6767 30.7998 41.9502 30.2285C42.248 29.5938 42.3701 29.4082 42.9805 28.6416C43.415 28.0996 43.5176 28.0166 43.8789 27.8945C44.0254 27.8506 44.2012 27.8701 44.4014 27.958ZM39.8994 28.6123C40.0068 28.9053 40.0215 29.0127 40.0166 29.5645C40.0117 30.2676 39.9531 30.209 39.9043 29.4473C39.875 29.0029 39.8115 28.5732 39.7432 28.3291C39.6894 28.1289 39.7773 28.2949 39.8994 28.6123ZM40.2168 29.4766L40.2217 29.8916L40.3437 29.6475L40.4609 29.4033L40.4365 29.6279C40.4121 29.8965 40.2754 30.2578 40.207 30.2578C40.1728 30.2578 40.168 30.1895 40.1826 30.0869C40.1973 29.9893 40.1924 29.9258 40.1728 29.9404C40.1142 29.9746 40.0654 29.3887 40.1045 29.1104C40.1484 28.7686 40.207 28.9541 40.2168 29.4766ZM43.4834 29.877C43.3467 30.0479 43.2148 30.2236 43.1855 30.2773C43.1416 30.3604 43.1514 30.3652 43.2734 30.3311C43.7422 30.2139 44.3184 30.1064 44.5234 30.0967C44.748 30.0869 44.7725 30.0967 44.9775 30.3164C45.0996 30.4482 45.2314 30.5508 45.2803 30.5508C45.3584 30.5557 45.3584 30.5605 45.2754 30.6094C45.1435 30.6826 44.5283 30.6826 44.4551 30.6094C44.4209 30.5752 44.3623 30.5508 44.3232 30.5508C44.1719 30.5508 43.2588 31.0293 42.7558 31.3662C42.1357 31.7861 41.8281 32.0498 41.584 32.3818C41.4033 32.626 40.8808 33.0361 40.8223 32.9775C40.8076 32.9629 40.8711 32.7871 40.9639 32.5918C41.1006 32.3037 41.2275 32.1475 41.5547 31.8301C41.7793 31.6152 42.0918 31.3662 42.2383 31.2832C42.5459 31.1074 42.6045 31.0439 42.5068 30.9854C42.4189 30.9316 42.5898 30.5752 42.8682 30.248C43.0635 30.0137 43.6006 29.5742 43.6885 29.5742C43.7129 29.5742 43.6201 29.7109 43.4834 29.877ZM44.5625 32.25L44.9287 32.4014H44.6357C44.4746 32.4062 44.2549 32.3818 44.1523 32.3525C43.9033 32.2842 43.5371 32.3574 43.0732 32.5723L42.7314 32.7285L43.2441 32.8164C43.9375 32.9336 44.2451 33.0215 44.5527 33.1973C44.9922 33.4463 45.0947 33.5586 45.0654 33.7441C45.0508 33.8516 45.0898 34.0469 45.1924 34.3447C45.3047 34.6719 45.3486 34.9062 45.3682 35.2432C45.3877 35.6191 45.3828 35.6728 45.3389 35.5312C45.1631 34.9551 45.0361 34.623 44.8359 34.1885C44.626 33.7246 44.6016 33.6953 44.333 33.5342C44.001 33.3389 43.5518 33.1875 43.3027 33.1875C43.0439 33.1875 42.2871 33.3242 41.9209 33.4414C41.7402 33.4951 41.5742 33.5293 41.5547 33.5146C41.4717 33.4707 40.8516 33.5732 40.6172 33.6758C40.3291 33.7979 40.0947 34.0273 40.1338 34.1348C40.1728 34.2324 40.2851 34.2324 40.6416 34.1396C41.0469 34.0322 41.2861 34.0518 42.0088 34.2324C42.6435 34.3936 42.8975 34.5059 43.0781 34.7061C43.166 34.8037 43.166 34.8135 43.083 34.8721C42.9707 34.9551 42.9756 34.999 43.166 35.5703C43.415 36.2978 43.5078 36.7617 43.4687 37.0742C43.4443 37.3086 43.2051 38.002 43.166 37.9629C43.1611 37.9531 43.1855 37.792 43.2246 37.6064C43.2685 37.416 43.3027 37.1035 43.3027 36.9082C43.3076 36.5615 43.2978 36.5322 42.9756 35.8828C42.79 35.5166 42.6289 35.126 42.6142 35.0186C42.5898 34.8428 42.5605 34.8086 42.3164 34.6768C42.0625 34.54 42.0185 34.5303 41.5498 34.54C41.1348 34.5449 41.0566 34.5352 41.081 34.4766C41.0957 34.4375 41.0957 34.4082 41.0859 34.4082C40.9541 34.4082 40.124 34.623 40.041 34.6768C39.8603 34.7939 39.6748 35.0723 39.582 35.3701L39.4892 35.6533V35.2139C39.4844 34.8086 39.499 34.7402 39.6504 34.4277C39.7383 34.2373 39.8848 34.0029 39.9726 33.9053C40.29 33.5391 41.0078 33.1045 42.209 32.5527C43.3613 32.0205 43.8496 31.9619 44.5625 32.25ZM39.792 33.2852C39.7187 33.4219 39.6064 33.5928 39.543 33.666C39.4307 33.7979 39.4307 33.7979 39.4892 33.6758C39.5527 33.5342 39.8799 33.041 39.9092 33.041C39.9189 33.041 39.8701 33.1533 39.792 33.2852ZM40.6807 35.6045C40.4121 35.7266 40.1777 35.8242 40.1533 35.8242C40.0752 35.8242 40.2266 35.6289 40.3633 35.5557C40.5342 35.4678 40.8174 35.3945 41.0225 35.3896C41.1299 35.3848 41.0371 35.4434 40.6807 35.6045ZM41.5596 35.7021C41.4814 35.7412 41.2812 35.8291 41.125 35.8975L40.832 36.0244L41.042 36.127C41.2519 36.2295 41.7646 36.6885 41.7158 36.7324C41.706 36.7471 41.6182 36.7129 41.5303 36.6592C41.2715 36.5078 40.8857 36.4395 40.6807 36.5078C40.5879 36.5371 40.5098 36.5811 40.5098 36.6006C40.5098 36.6201 40.6025 36.6836 40.7148 36.7324C40.9932 36.8545 41.2275 37.0645 41.3447 37.2988C41.3984 37.4014 41.4228 37.4844 41.4082 37.4844C41.3887 37.4844 41.2812 37.3965 41.1689 37.2939C41.0517 37.1865 40.8906 37.0645 40.8027 37.0205L40.6465 36.9375L40.8223 37.1133C41.0273 37.3232 41.0664 37.5137 40.8906 37.4551C40.8271 37.4404 40.6318 37.3477 40.4512 37.2598C40.1631 37.1133 40.0752 37.0937 39.7383 37.0937H39.3574L39.3867 36.8643C39.4111 36.6396 39.416 36.6348 39.9726 36.2295C40.6172 35.7607 40.9004 35.6533 41.5107 35.6387L41.706 35.6338L41.5596 35.7021ZM41.7305 36.2588C41.8379 36.3125 41.96 36.4395 42.0625 36.6055C42.2773 36.9717 42.2578 37.0059 41.9892 36.7422C41.8574 36.6201 41.6328 36.4297 41.4863 36.3125C41.2178 36.1074 41.2178 36.1025 41.3887 36.1416C41.4814 36.1611 41.6377 36.2148 41.7305 36.2588ZM39.0742 39.0225C39.1475 39.1201 39.1914 39.208 39.1767 39.2227C39.1377 39.2666 38.7519 38.9932 38.7519 38.9199C38.7519 38.7881 38.9424 38.8516 39.0742 39.0225ZM37.7949 39.0811L37.9853 39.208L37.7949 39.3594C37.6924 39.4424 37.3603 39.7402 37.0674 40.0283C36.6621 40.4189 36.4766 40.5654 36.3203 40.6143C36.208 40.6436 36.1152 40.6777 36.1152 40.6875C36.1152 40.6973 36.1641 40.7803 36.2178 40.8779C36.2764 40.9756 36.3154 41.0635 36.3008 41.0732C36.291 41.083 36.1836 41.0684 36.0664 41.0391C35.9443 41.0146 35.6758 41.0049 35.4707 41.0195C35.2607 41.0342 35.0898 41.0293 35.0898 41.0098C35.0898 40.9902 35.4219 40.7559 35.8271 40.4922C36.5498 40.0137 36.8867 39.7109 37.2969 39.1641C37.3848 39.0469 37.4922 38.9492 37.5312 38.9492C37.5752 38.9492 37.6924 39.0078 37.7949 39.0811ZM46.8574 39.4229C47.0185 39.5742 47.1113 39.877 46.9941 39.877C46.9307 39.877 46.6279 39.5889 46.4717 39.374C46.3545 39.2227 46.6816 39.2666 46.8574 39.4229ZM36.5596 39.8721C36.5303 39.9209 36.4277 39.999 36.335 40.0479C36.042 40.1846 36.042 40.0479 36.3301 39.8721C36.5303 39.75 36.623 39.75 36.5596 39.8721ZM45.7734 40.1943C45.3193 40.4336 44.7187 40.5459 43.5371 40.6094C42.6484 40.6631 42.3457 40.6631 41.9502 40.6143C41.3545 40.5361 40.7539 40.3896 40.6611 40.292C40.5928 40.2285 40.6074 40.2188 40.7539 40.2188C40.8467 40.2188 41.2568 40.2822 41.6572 40.3652C42.7412 40.5801 43.3955 40.5508 45.0996 40.2236C45.9883 40.0479 46.0615 40.0479 45.7734 40.1943ZM39.8262 40.541C39.8262 40.585 39.46 41.249 39.2109 41.6494C39.0303 41.9375 38.7031 42.6895 38.7031 42.7969C38.7031 42.8164 38.8838 42.5186 39.0986 42.1328C39.3135 41.7471 39.5039 41.4395 39.5137 41.4541C39.5674 41.5029 38.6641 43.3828 38.3467 43.876L38.1758 44.1445L38.0439 43.876C37.9707 43.7295 37.8389 43.5146 37.7559 43.3926C37.6728 43.2705 37.5605 43.041 37.5068 42.8799C37.4287 42.6553 37.3799 42.582 37.2969 42.5723C37.1601 42.5527 37.1504 42.3428 37.2725 42.0889C37.3408 41.9375 37.4287 41.8789 37.9023 41.6592C38.3369 41.4541 38.5273 41.332 38.791 41.083C38.9766 40.9072 39.2012 40.7266 39.2939 40.6826C39.5527 40.5459 39.8262 40.4775 39.8262 40.541ZM39.8506 42.0986C38.9131 45.4873 38.4004 47.4551 37.9463 49.4229C37.7998 50.0381 37.6826 50.5068 37.6826 50.4629C37.6728 50.3018 37.9219 48.9492 38.1367 47.9678C38.542 46.1318 38.708 45.5166 39.6064 42.5625C39.831 41.8252 40.0605 41.0537 40.124 40.8535C40.1826 40.6533 40.2363 40.5117 40.251 40.5361C40.2607 40.5654 40.0801 41.2686 39.8506 42.0986ZM41.2471 40.751L41.3594 40.8389L41.0566 41.9326C40.8906 42.5332 40.6758 43.3535 40.583 43.7588C40.4853 44.1885 40.417 44.418 40.417 44.3154C40.4121 44.2178 40.4316 44.0322 40.456 43.9004C40.4805 43.7686 40.5488 43.3438 40.6025 42.9531C40.7588 41.8887 41.0078 40.6582 41.0762 40.6582C41.1103 40.6582 41.1836 40.6973 41.2471 40.751ZM51.4277 40.9463C51.8769 41.0391 52.209 41.1758 52.3262 41.3174C52.4287 41.4395 52.248 41.6396 51.9307 41.7568C51.7207 41.835 51.54 41.8496 51.0078 41.8545C50.3682 41.8545 50.3389 41.8496 50.0312 41.7031C49.7725 41.5811 49.0449 41.0879 48.8398 40.8975C48.8105 40.873 49.2549 40.8535 49.8896 40.8535C50.7637 40.8535 51.0713 40.873 51.4277 40.9463ZM50.4463 42.2939C50.8223 42.499 51.2031 42.7383 51.2959 42.8213C51.501 43.0166 51.6084 43.2607 51.5693 43.4463C51.5254 43.6318 51.2812 43.832 51.0908 43.832C50.876 43.832 50.5537 43.4805 50.2314 42.8799C50.085 42.6113 49.8945 42.2744 49.8066 42.1377C49.6309 41.8643 49.6016 41.7861 49.7041 41.8691C49.7383 41.8984 50.0703 42.0889 50.4463 42.2939ZM34.123 43.7246C34.1963 43.8662 34.1084 43.9785 34.001 43.8857C33.918 43.8174 33.8496 43.3584 33.8984 43.2217C33.9277 43.1533 33.9521 43.1875 34.001 43.373C34.04 43.5049 34.0937 43.6611 34.123 43.7246ZM33.6982 43.6416C33.8203 43.832 33.8642 44.125 33.7715 44.125C33.7471 44.125 33.7226 44.0957 33.7226 44.0566C33.7226 44.0176 33.6689 43.8906 33.6006 43.7783C33.4785 43.5586 33.4394 43.3633 33.5273 43.417C33.5566 43.4365 33.6348 43.5342 33.6982 43.6416ZM36.6523 43.6855C36.8184 43.8418 36.9355 43.8711 37.0332 43.7734C37.0771 43.7295 37.1455 43.7686 37.3408 43.9541C37.4775 44.0908 37.6094 44.2471 37.6338 44.3057C37.6826 44.4375 37.6094 44.6768 37.4482 44.8916C37.2187 45.209 35.9932 45.6875 35.7734 45.5508C35.7197 45.5215 35.6025 45.4922 35.5098 45.4922C35.373 45.4922 35.3291 45.5215 35.2461 45.6582C35.0654 45.9658 34.5918 46.1123 33.6494 46.1611C33.1758 46.1807 33.0293 46.1758 32.8828 46.1123C32.7217 46.0439 32.6973 46.0146 32.6973 45.8682C32.6973 45.6582 32.834 45.5312 33.6982 44.9453C34.626 44.3154 34.5723 44.3398 34.7578 44.4766C34.9434 44.6084 35.3877 44.6523 35.6465 44.5645C35.8076 44.5107 35.8223 44.4912 35.8223 44.3154C35.8223 44.125 35.8223 44.125 36.0127 44.125C36.2715 44.125 36.4082 44.0029 36.4424 43.7441C36.457 43.6318 36.4766 43.5391 36.4814 43.5391C36.4912 43.5391 36.5644 43.6025 36.6523 43.6855ZM33.4687 43.8418C33.5566 44.1299 33.5762 44.2666 33.5371 44.291C33.4785 44.3252 33.332 44.0029 33.332 43.832C33.332 43.6367 33.4101 43.6465 33.4687 43.8418ZM33.1514 44.0859C33.2246 44.2568 33.2832 44.4229 33.2832 44.4521C33.2832 44.5498 33.1953 44.5254 33.1172 44.4033C33.0391 44.2861 32.9365 43.7832 32.9853 43.7832C33.0049 43.7832 33.0781 43.9199 33.1514 44.0859ZM32.8877 44.2178C32.9512 44.374 32.9902 44.5693 32.9805 44.6426C32.9658 44.7695 32.9512 44.75 32.8486 44.4912C32.7168 44.1445 32.6582 43.8516 32.7314 43.8955C32.7607 43.915 32.8291 44.0566 32.8877 44.2178ZM32.6142 44.4766C32.6631 44.6719 32.6973 44.8477 32.6973 44.8672C32.6973 44.8818 32.6142 44.9502 32.5166 45.0088C32.4141 45.0723 32.2969 45.1455 32.2578 45.1699C32.2187 45.1943 32.2432 45.1406 32.3164 45.043L32.4482 44.8721L32.2285 44.7158C32.1113 44.6279 32.0137 44.54 32.0137 44.5107C32.0137 44.4473 32.043 44.4521 32.2578 44.5645C32.3652 44.6182 32.458 44.6621 32.4678 44.6621C32.4775 44.6621 32.4775 44.54 32.4629 44.3936C32.4336 44.0127 32.5166 44.0615 32.6142 44.4766ZM30.9248 45.6582C30.998 45.7217 31.0517 45.7852 31.0371 45.7949C30.9297 45.873 30.4463 46.1758 30.3291 46.2393C30.2314 46.2881 30.1387 46.4004 30.0654 46.5615C29.9287 46.8447 29.8555 46.8887 29.6894 46.7764C29.6211 46.7324 29.5527 46.7178 29.5283 46.7422C29.5088 46.7666 29.4355 46.8691 29.3574 46.9668C29.2256 47.1523 29.1328 47.2012 29.1328 47.0938C29.1328 47.0645 29.1767 46.9912 29.2256 46.9375C29.2793 46.8789 29.3721 46.6934 29.4355 46.5225C29.499 46.3516 29.5723 46.2148 29.5967 46.21C29.626 46.21 29.6601 46.3125 29.6797 46.4443C29.7236 46.7422 29.7822 46.8057 29.8848 46.6592C29.9873 46.5127 29.9824 46.4248 29.8652 46.2734C29.7139 46.083 29.748 45.9805 29.9043 46.1611C30.0508 46.3369 30.1728 46.376 30.124 46.2344C30.1094 46.1904 30.0605 46.1123 30.0215 46.0635C29.9531 45.9902 29.958 45.9805 30.0508 45.9805C30.1045 45.9805 30.1826 46.0146 30.2266 46.0537C30.334 46.1611 30.4023 46.1465 30.6221 45.9609L30.8125 45.7998L30.6611 45.7168C30.4316 45.5996 30.417 45.541 30.6172 45.541C30.7246 45.541 30.8369 45.585 30.9248 45.6582ZM31.5693 46.2051C31.5058 46.2734 31.4082 46.3516 31.3545 46.3809C31.3008 46.4053 31.3398 46.3467 31.4375 46.2539C31.6475 46.0537 31.7451 46.0146 31.5693 46.2051ZM50.3437 46.6152C50.5 46.6152 50.4707 46.6787 50.29 46.7324C50.207 46.7617 50.168 46.7373 50.1143 46.6299C50.0752 46.5566 50.0264 46.4395 50.0117 46.3711C49.9873 46.2832 50.0068 46.2979 50.085 46.4297C50.1728 46.5811 50.2266 46.6152 50.3437 46.6152ZM29.001 46.8691C29.0303 46.9521 28.7129 47.6406 28.6494 47.6406C28.5762 47.6406 28.581 47.6211 28.6982 47.4258C28.7959 47.2549 28.791 47.1523 28.6787 47.1523C28.6445 47.1523 28.5322 47.1084 28.4248 47.0547L28.2295 46.957L28.5078 46.9814C28.7519 47.001 28.7861 46.9961 28.8154 46.9082C28.8496 46.8008 28.9619 46.7764 29.001 46.8691ZM28.4492 47.2939C28.4492 47.3184 28.4004 47.3477 28.3369 47.3672C28.2734 47.3818 28.1514 47.4941 28.0635 47.6162C27.9756 47.7432 27.8926 47.8311 27.8779 47.8164C27.8633 47.8018 27.9023 47.7236 27.9609 47.6406C28.0635 47.4941 28.0684 47.4844 27.9805 47.4209C27.8926 47.3574 27.8926 47.3525 28.0098 47.3037C28.166 47.2451 28.4492 47.2354 28.4492 47.2939ZM39.9092 47.6504C39.8945 47.6895 39.8799 47.6748 39.8799 47.6211C39.875 47.5674 39.8896 47.5381 39.9043 47.5576C39.9189 47.5723 39.9238 47.6162 39.9092 47.6504ZM39.8603 48.0166C39.8457 48.0654 39.8359 48.0264 39.8359 47.9336C39.8359 47.8408 39.8457 47.8018 39.8603 47.8457C39.8701 47.8945 39.8701 47.9727 39.8603 48.0166ZM39.709 49.1445C39.6406 49.6475 39.5088 50.6729 39.4111 51.4248C39.206 53.041 39.1914 53.1338 39.2207 52.5137C39.2549 51.7715 39.7676 48.0312 39.8164 48.1729C39.8262 48.2021 39.7773 48.6416 39.709 49.1445ZM47.8096 52.2695C47.707 52.3574 46.7695 52.7578 46.5449 52.8115C46.4131 52.8457 46.2471 52.9092 46.1787 52.958C46.1103 53.0068 45.9541 53.0996 45.832 53.1582L45.6172 53.2656L45.8516 53.0068C46.1738 52.6455 46.3105 52.5723 46.7353 52.5186C46.9404 52.4941 47.2627 52.4209 47.458 52.3574C47.8779 52.2158 47.8633 52.2207 47.8096 52.2695Z" fill="white"/>
<path d="M55.0313 25.9708C55.0117 26.005 55.0313 26.0489 55.085 26.0782C55.1338 26.1075 55.334 26.2393 55.5293 26.3663C55.9492 26.6446 56.1934 26.7032 56.4229 26.5665C56.5694 26.4786 56.584 26.4786 56.711 26.5616C56.7842 26.6055 57.043 26.7423 57.2871 26.8594C57.7412 27.0841 58.0586 27.1768 58.1026 27.0987C58.1172 27.0743 58.0879 26.962 58.0391 26.8497C57.9365 26.6251 57.7266 26.4981 57.4678 26.4981C57.3945 26.4981 57.1455 26.4053 56.916 26.293C56.5254 26.1026 56.4668 26.0831 55.9639 26.0587C55.6709 26.0391 55.3633 26.0001 55.2901 25.9708C55.1143 25.8975 55.0752 25.8975 55.0313 25.9708Z" fill="white"/>
<path d="M58.8496 27.5427C58.8838 27.6306 59.1133 27.7868 59.1475 27.7478C59.1768 27.7185 58.9229 27.4743 58.8643 27.4743C58.8398 27.4743 58.835 27.5036 58.8496 27.5427Z" fill="white"/>
<path d="M54.0352 28.6611C54.0352 28.7393 54.1377 28.793 54.2891 28.793C54.3525 28.793 54.377 28.7637 54.3672 28.7051C54.3477 28.5977 54.0352 28.5537 54.0352 28.6611Z" fill="white"/>
<path d="M56.3789 29.1202C56.3789 29.1446 56.4229 29.2277 56.4717 29.3107C56.5547 29.4474 56.5986 29.4669 56.8135 29.4816C56.9648 29.4962 57.0576 29.4816 57.0479 29.4523C57.0039 29.3204 56.3789 29.0079 56.3789 29.1202Z" fill="white"/>
<path d="M52.9365 29.3638C52.6729 29.5054 52.0381 29.9693 51.9356 30.0962C51.8232 30.2427 51.8086 30.4429 51.9063 30.482C51.9453 30.4966 52.126 30.4429 52.3115 30.3648C52.5361 30.2671 52.6924 30.2281 52.7998 30.2427C52.9023 30.2574 53.044 30.2281 53.2148 30.1499C53.5176 30.0083 53.6445 29.896 53.6445 29.7691C53.6445 29.6372 53.4541 29.4419 53.2539 29.3589C53.1025 29.3003 53.0635 29.3003 52.9365 29.3638Z" fill="white"/>
<path d="M54.709 29.8916C54.5381 30.0137 54.3037 30.1699 54.1865 30.2481C53.8057 30.4873 53.7715 30.5215 53.8106 30.668C53.8252 30.7412 53.8985 30.8242 53.9619 30.8535C54.0645 30.8975 54.1328 30.8828 54.4112 30.7559C54.6455 30.6485 54.875 30.5899 55.1729 30.5557C55.6319 30.502 56.0176 30.3604 56.0713 30.2285C56.1055 30.1358 55.9932 30.0332 55.5928 29.8184C55.2119 29.6182 55.0801 29.628 54.709 29.8916Z" fill="white"/>
<path d="M57.502 30.4926C57.502 30.517 57.5361 30.5707 57.5801 30.6049C57.6484 30.6635 57.6582 30.6586 57.6436 30.5805C57.624 30.4828 57.502 30.4096 57.502 30.4926Z" fill="white"/>
<path d="M56.9648 33.8855C56.9648 33.8953 57.0527 34.0174 57.1553 34.159C57.2627 34.3006 57.4238 34.5887 57.5117 34.8035C57.6631 35.1697 57.7461 35.2771 57.7461 35.116C57.7461 34.9939 57.8291 35.033 57.8926 35.1893C57.9463 35.3162 57.9414 35.3699 57.8438 35.5848C57.7705 35.7605 57.7461 35.8924 57.7607 36.0145C57.8535 36.6443 57.8535 36.6883 57.7607 36.908C57.707 37.0252 57.5605 37.2596 57.4385 37.4256C57.1699 37.7918 57.126 37.948 57.2285 38.1922C57.2725 38.2947 57.3066 38.4363 57.3066 38.5096C57.3066 38.5828 57.3555 38.7049 57.4092 38.7732C57.502 38.8904 57.5068 38.9295 57.458 39.0906C57.4287 39.1932 57.3311 39.3689 57.2383 39.491C57.0625 39.7205 56.9355 40.0379 56.9893 40.1209C57.0527 40.2283 57.2139 40.16 57.5703 39.8719C57.8682 39.6229 57.9512 39.5252 58.0146 39.3445C58.0537 39.2176 58.166 38.9979 58.2637 38.8562C58.4346 38.6072 58.4395 38.5877 58.3809 38.4119C58.332 38.2605 58.332 38.2068 58.4053 38.0652C58.5176 37.8504 58.625 37.7283 58.752 37.6795C58.835 37.6453 58.8691 37.5672 58.918 37.3133C59.0156 36.7957 58.9033 36.1658 58.6494 35.8191C58.5859 35.7264 58.4688 35.5457 58.3955 35.4187C58.0586 34.8279 57.7949 34.5105 57.3848 34.1932C57.1553 34.0174 56.9648 33.8807 56.9648 33.8855Z" fill="white"/>
<path d="M55.793 37.5868C55.793 37.7967 55.8174 37.8016 56.0273 37.6161L56.1396 37.5135L56.0273 37.45C55.8369 37.3475 55.793 37.3719 55.793 37.5868Z" fill="white"/>
<path d="M64.0596 39.4277C63.6348 40.3018 63.415 40.668 63.0879 41.0146C62.9023 41.21 62.7021 41.4688 62.6387 41.5859L62.5215 41.8057L62.7119 41.6006C62.8145 41.4883 62.9512 41.3857 63.0195 41.3662C63.0879 41.3467 63.21 41.2734 63.2881 41.1953C63.3711 41.1221 63.5078 41.0146 63.5908 40.9561C63.7227 40.8682 63.7715 40.7803 63.8496 40.4971C63.9082 40.3018 63.9961 40.0576 64.0498 39.9502C64.1328 39.7744 64.2695 39.1543 64.2305 39.1152C64.2207 39.1104 64.1426 39.2471 64.0596 39.4277Z" fill="white"/>
<path d="M55.6075 41.3027C55.4756 41.4199 55.2657 41.5957 55.1436 41.6982C54.9922 41.8203 54.8457 42.0156 54.6944 42.2891C54.4209 42.7969 54.416 42.8555 54.6602 42.8555C54.875 42.8555 55.0996 42.7139 55.4414 42.3574C55.6465 42.1426 55.6514 42.1426 55.5489 42.0498C55.4024 41.918 55.4268 41.7764 55.6709 41.4199C55.793 41.2441 55.8809 41.0977 55.8711 41.0977C55.8565 41.0977 55.7393 41.1904 55.6075 41.3027Z" fill="white"/>
<path d="M56.335 41.7129C56.2129 41.8691 56.208 41.9277 56.3105 41.9277C56.4228 41.9277 56.6719 41.7373 56.6719 41.6543C56.6719 41.5371 56.4424 41.5762 56.335 41.7129Z" fill="white"/>
<path d="M56.5742 42.353C55.8613 43.0952 55.71 43.2758 55.7588 43.3296C55.7979 43.3637 55.9541 43.2612 56.2422 43.0073C56.5107 42.768 57.375 41.6352 57.2871 41.6352C57.2773 41.6352 56.9551 41.9575 56.5742 42.353Z" fill="white"/>
<path d="M62.9463 42.6898C62.8145 42.8119 62.5654 42.9779 62.3994 43.056C62.0869 43.2025 62.0332 43.2855 62.1651 43.393C62.2871 43.4955 62.4922 43.4027 62.751 43.1293C62.9512 42.9193 63.2686 42.4603 63.2051 42.4652C63.1953 42.4701 63.083 42.5678 62.9463 42.6898Z" fill="white"/>
<path d="M53.8203 42.851C53.6885 42.9975 53.8154 43.0219 53.9717 42.8803C54.0986 42.768 54.0986 42.7631 54.0059 42.7582C53.9522 42.7582 53.8643 42.8022 53.8203 42.851Z" fill="white"/>
<path d="M61.4717 45.3852C60.7637 46.2202 60.3535 46.6157 59.7236 47.06C58.9814 47.5922 59.0449 47.5581 58.8398 47.4995C58.7031 47.4604 58.6299 47.4653 58.5225 47.5239C58.3467 47.6118 58 48.0463 57.9609 48.2172C57.9463 48.2905 57.9219 48.3784 57.9121 48.4126C57.9023 48.4516 57.9072 48.4711 57.9268 48.4614C57.9512 48.4516 58.3613 48.2465 58.8447 48.0073C59.9727 47.4555 60.373 47.187 60.5781 46.8549C60.6611 46.7133 60.9053 46.3911 61.1152 46.1323C61.4619 45.7075 61.9746 44.9213 61.9355 44.8774C61.9258 44.8676 61.7158 45.0971 61.4717 45.3852Z" fill="white"/>
<path d="M51.96 46.7711C51.8037 46.8541 51.5938 47.069 51.5938 47.1373C51.5938 47.3082 51.9014 47.2301 52.0967 47.0153C52.1895 46.9127 52.1943 46.7565 52.1064 46.7321C52.082 46.7223 52.0137 46.7418 51.96 46.7711Z" fill="white"/>
<path d="M58.5762 51.4932C58.2393 51.6738 57.8682 51.8838 57.7461 51.9668C57.624 52.0498 57.3945 52.1865 57.2334 52.2695C57.0723 52.3477 56.8037 52.5283 56.6377 52.6602C56.4717 52.792 56.1494 53.0166 55.9199 53.1533C55.5391 53.3877 55.3047 53.5928 55.3047 53.7051C55.3047 53.7246 55.3633 53.7734 55.4414 53.8027C55.5147 53.8369 55.583 53.8662 55.5928 53.876C55.6025 53.8809 55.5049 54.0078 55.3779 54.1592C55.251 54.3057 55.1533 54.4277 55.1631 54.4277C55.2998 54.4229 55.876 54.1934 56.1397 54.0371C56.3252 53.9248 56.4766 53.8223 56.4766 53.8174C56.4766 53.8076 56.3936 53.8125 56.2959 53.8223C56.0664 53.8516 55.959 53.7881 56.0225 53.6709C56.1055 53.5244 56.9307 52.9629 57.0674 52.9629C57.209 52.9629 58.415 52.1279 58.6397 51.874C58.7959 51.6934 59.2256 51.1514 59.2012 51.1611C59.1914 51.166 58.9131 51.3125 58.5762 51.4932Z" fill="white"/>
<path d="M56.8184 51.576C56.1787 51.825 56.0274 51.9324 56.125 52.0838C56.1787 52.1717 56.1543 52.1961 55.832 52.3572C55.168 52.6893 54.9434 52.8944 55.0654 53.0408C55.1631 53.158 55.2998 53.119 55.8076 52.8309C56.1738 52.6258 56.4131 52.4403 56.7256 52.1326C57.2041 51.6639 57.4824 51.3514 57.4238 51.3563C57.3994 51.3563 57.126 51.4588 56.8184 51.576Z" fill="white"/>
<path d="M22.6533 51.6787C22.5019 51.8936 22.4824 51.9375 22.5361 51.9375C22.5898 51.9375 22.8047 51.6006 22.7705 51.5664C22.7558 51.5518 22.7021 51.6006 22.6533 51.6787Z" fill="white"/>
<path d="M22.0772 53.0455C21.9356 53.2554 21.9209 53.3921 22.0381 53.4361C22.1553 53.4849 22.2969 53.2798 22.2969 53.0552C22.2969 52.816 22.2383 52.816 22.0772 53.0455Z" fill="white"/>
<path d="M48.4639 56.2144C48.3369 56.2486 48.21 56.3169 48.1758 56.356C48.0732 56.4781 48.3076 56.4488 48.5517 56.3072C48.8642 56.1216 48.8398 56.0972 48.4639 56.2144Z" fill="white"/>
<path d="M48.9327 57.4352C48.8252 57.4792 48.4834 57.5817 48.1709 57.6745C47.8584 57.7624 47.4434 57.904 47.2481 57.9919C46.2862 58.4118 44.0254 58.5192 42.5362 58.2116C42.3506 58.1725 42.1748 58.1383 42.1455 58.1335C42.1211 58.1335 42.1846 58.0846 42.292 58.0358L42.4873 57.9381L42.0772 57.9674C41.5254 58.0065 41.3545 58.0456 40.5782 58.3337C39.8213 58.6169 39.67 58.651 38.8985 58.7389C38.376 58.8024 38.3467 58.8122 38.4834 58.8659C38.8741 59.0319 39.3282 59.0758 40.8028 59.1051C43.3858 59.154 43.7032 59.1442 44.1963 59.027C44.4405 58.9733 44.8653 58.9001 45.1485 58.8708C45.4317 58.8415 45.837 58.7633 46.0518 58.6999C46.2666 58.6364 46.6866 58.529 46.9795 58.4557C47.3848 58.3629 47.6192 58.2702 47.9317 58.0944C48.1612 57.9626 48.503 57.777 48.6885 57.6745C49.2598 57.362 49.3379 57.2838 48.9327 57.4352Z" fill="white"/>
</svg>
