<svg width="120" height="38" viewBox="0 0 120 38" fill="none" xmlns="http://www.w3.org/2000/svg">
<path d="M38.376 1.14393C38.088 1.50393 37.656 1.52793 34.44 1.33593C29.28 1.04793 22.248 1.14393 18.36 1.57593C14.928 1.95993 11.976 2.27193 7.87199 2.67993C5.35199 2.94393 3.52799 3.49593 2.42399 4.38393C2.03998 4.69593 1.43999 5.15193 1.10399 5.39193C-0.0720151 6.20793 0.311985 6.90393 2.49599 7.95993C3.83999 8.60793 3.95999 9.01593 3.33599 10.5279C3.04799 11.2239 3.07199 11.3679 3.50399 11.9679C3.79199 12.3519 4.24799 12.6639 4.53598 12.7119C4.79999 12.7599 5.03999 12.9519 5.03999 13.1439C5.03999 13.3359 5.30399 13.5999 5.61599 13.7199C6.09599 13.8879 6.71999 14.8479 6.43199 14.9919C6.40799 15.0159 6.04799 15.2079 5.63999 15.3999C5.25599 15.6159 4.82399 15.9999 4.67999 16.2879C4.53598 16.5519 4.27199 16.9599 4.10399 17.1519C3.52799 17.8479 3.88799 18.8079 4.89599 19.3359C6.95999 20.4399 7.43999 22.4559 6.07199 24.2079C5.63999 24.7359 5.27999 25.3599 5.27999 25.5759C5.27999 26.0079 6.07199 26.5839 7.00799 26.7999C7.70399 26.9679 7.94399 27.3999 7.34399 27.3999C6.81599 27.3999 6.62399 27.8559 6.95999 28.2399C7.36799 28.7439 6.86399 29.3199 6.02399 29.3199C5.18399 29.3199 4.43999 29.8719 4.60799 30.3279C4.70399 30.5679 5.23199 30.7359 6.11999 30.8319C7.51199 30.9759 8.15999 31.2879 8.15999 31.8639C8.15999 32.0799 8.42399 32.1999 8.87999 32.1999C9.45599 32.1999 9.59999 32.2959 9.59999 32.7279C9.59999 33.9759 11.544 35.9679 12.984 36.1839C13.68 36.3039 14.04 36.4959 14.208 36.9039C14.568 37.6719 14.784 37.6239 15.096 36.7599C15.36 35.9679 15.72 35.8719 16.704 36.3759C17.064 36.5679 17.472 36.6639 17.616 36.5679C17.76 36.4719 19.08 36.3999 20.52 36.3759C22.368 36.3519 23.448 36.2319 24.096 35.9439C24.6 35.7279 25.44 35.5599 25.944 35.5599C26.904 35.5599 27.144 35.1999 26.616 34.6719C26.4 34.4559 26.472 34.3599 26.952 34.2399C27.864 33.9999 28.44 34.1919 28.512 34.7679C28.608 35.4399 29.664 35.5599 32.64 35.2719C34.176 35.1279 35.568 35.1279 37.008 35.3199C38.472 35.5119 39.744 35.5359 41.112 35.3679C42.192 35.2479 45.168 35.1519 47.712 35.1759C51.168 35.1999 52.416 35.1279 52.608 34.8879C52.8 34.6719 52.728 34.5999 52.344 34.5999C51.768 34.5999 51.648 33.9279 52.176 33.7359C52.368 33.6639 52.464 33.4479 52.416 33.2799C52.224 32.7999 52.776 32.5839 54.48 32.5359C55.344 32.4879 56.424 32.3199 56.88 32.1279C57.384 31.9359 58.32 31.8399 59.28 31.8879C60.144 31.9119 61.392 31.9599 62.088 31.9359C62.784 31.9359 63.576 32.0799 63.888 32.2719C64.344 32.5599 64.728 32.5839 65.904 32.3679C66.696 32.2479 67.656 32.1999 68.064 32.3199L68.76 32.4879L67.8 32.7759C67.032 32.9919 66.816 33.1839 66.768 33.6639C66.72 34.1439 66.816 34.3359 67.2 34.4319C67.488 34.5039 67.68 34.6719 67.608 34.7679C67.368 35.1759 67.824 35.5359 68.352 35.3919C68.856 35.2719 68.88 35.2239 68.496 34.8159C68.136 34.4079 68.136 34.3839 68.76 34.2159C69.288 34.0959 69.504 34.1679 69.96 34.7439C70.512 35.4399 70.536 35.4399 73.248 35.4879C74.736 35.4879 76.128 35.5599 76.32 35.6079C76.512 35.6559 76.752 35.3919 76.92 34.9359L77.16 34.1919L77.592 34.7679C77.832 35.0799 78.144 35.2719 78.264 35.1759C78.408 35.1039 78.888 35.2239 79.344 35.4399C80.424 35.9439 81.408 35.8239 81.72 35.1279C82.008 34.4559 82.944 34.4079 83.16 35.0799C83.352 35.6559 83.184 35.6079 85.44 35.6799C86.424 35.7039 87.384 35.6319 87.528 35.4879C87.912 35.2239 89.448 35.4879 90.096 35.9439C90.72 36.3759 91.632 36.3759 92.688 35.9439C93.696 35.5119 94.392 35.6559 95.616 36.5439C96.12 36.9279 96.648 37.1679 96.768 37.0959C96.864 37.0239 96.96 36.4479 96.96 35.7759V34.5999H97.872C98.352 34.5999 99.408 34.5039 100.2 34.3839C102.816 33.9759 104.76 33.8799 105.576 34.0959C106.176 34.2879 106.584 34.2639 107.256 33.9519C108.12 33.5679 111 33.2079 114.168 33.0639C115.944 32.9919 116.88 32.5599 116.88 31.7919C116.88 31.5759 117.24 31.4799 118.032 31.4559C118.656 31.4559 119.376 31.3599 119.616 31.2639C120.024 31.1199 119.976 31.0479 119.304 30.7839C118.896 30.5919 118.248 30.5199 117.864 30.5919C117.264 30.7119 117.168 30.6639 117.048 30.1359C116.976 29.6559 117.072 29.4879 117.48 29.3199C117.792 29.1999 118.104 29.0079 118.176 28.8639C118.368 28.5519 117.48 27.6399 117.024 27.6399C116.832 27.6399 116.592 27.5199 116.496 27.3759C116.4 27.2079 116.496 27.1599 116.832 27.2559C117.264 27.3999 117.408 27.2799 117.72 26.5359C118.152 25.4559 118.152 25.4799 117.72 25.4799C117.528 25.4799 117.168 25.7199 116.904 25.9839C116.64 26.2719 116.28 26.4399 116.112 26.3439C114.888 25.7199 114 25.0479 114 24.7599C114 24.6399 114.72 24.4959 115.632 24.3999C118.056 24.1839 118.8 24.0399 118.8 23.7999C118.8 23.6559 118.608 23.5599 118.344 23.5599C118.104 23.5599 117.576 23.4399 117.144 23.2959C116.544 23.0799 116.4 22.9119 116.4 22.3359C116.4 21.7839 116.304 21.6399 115.872 21.6399C115.32 21.6159 115.32 21.6159 115.8 21.2559C116.136 20.9919 116.184 20.8239 115.992 20.7519C115.368 20.5119 115.728 20.0319 116.688 19.8159C117.24 19.6959 117.744 19.4559 117.792 19.2639C117.888 18.9999 117.6 18.9519 116.28 19.0479C114.912 19.1679 114.6 19.1199 114.216 18.7359C113.976 18.4959 113.616 18.2799 113.448 18.2799C113.28 18.2799 113.016 18.0639 112.848 17.7999C112.584 17.3679 112.632 17.2959 113.16 17.0799C113.52 16.9359 113.904 16.8399 114.048 16.8399C114.288 16.8399 114.24 16.4319 113.904 15.6159C113.784 15.3279 114.024 15.1599 114.888 14.8719L116.04 14.4879L115.104 14.4639C114.36 14.4399 114.216 14.3679 114.336 14.0559C114.456 13.7439 114.36 13.6959 113.856 13.7919C113.496 13.8639 112.896 13.7919 112.512 13.6719C111.984 13.4799 111.696 13.5279 111.216 13.8399C110.808 14.1039 110.52 14.1519 110.424 14.0079C110.352 13.8639 109.848 13.7199 109.32 13.6719C108.576 13.5999 108.456 13.5519 108.84 13.4079C109.104 13.2879 109.632 13.0479 109.992 12.8559C110.376 12.6879 110.832 12.5199 111.024 12.5199C111.624 12.5199 111.384 11.3679 110.64 10.5039C109.68 9.42393 108.6 9.20793 107.16 9.85593C106.392 10.1919 105.912 10.2879 105.528 10.1439C105.216 10.0239 103.872 9.92793 102.528 9.90393C99.912 9.90393 99.6 9.83193 99.6 9.25593C99.6 9.03993 99.84 8.91993 100.296 8.91993C100.656 8.91993 101.328 8.79993 101.76 8.63193C102.408 8.41593 102.6 8.43993 102.816 8.72793C103.488 9.61593 104.496 9.73593 105.36 9.03993C105.792 8.67993 108.24 8.41593 108.24 8.72793C108.24 9.32793 109.056 8.67993 109.32 7.86393C109.608 7.02393 109.608 6.87993 109.248 6.61593C109.032 6.47193 108.72 6.37593 108.552 6.44793C108.384 6.51993 108.24 6.44793 108.24 6.30393C108.24 6.15993 107.88 6.03993 107.424 6.03993C106.992 6.03993 106.272 5.91993 105.84 5.77593L105.048 5.48793L105.696 5.15193C106.392 4.79193 106.512 4.23993 105.936 4.02393C105.648 3.90393 105.576 3.63993 105.648 3.03993C105.72 2.39193 105.648 2.19993 105.36 2.17593C105.168 2.17593 104.208 2.15193 103.272 2.10393C101.832 2.05593 101.352 2.12793 100.608 2.55993C99.744 3.03993 99.648 3.03993 98.928 2.70393C98.52 2.48793 98.16 2.19993 98.16 2.05593C98.16 1.69593 97.536 1.45593 97.08 1.62393C96.792 1.74393 96.768 1.86393 96.96 2.10393C97.176 2.34393 97.056 2.43993 96.312 2.55993C95.808 2.63193 95.112 2.77593 94.752 2.89593C94.224 3.06393 94.08 3.03993 94.08 2.75193C94.08 2.46393 93.888 2.41593 93.216 2.51193C92.592 2.60793 92.328 2.55993 92.232 2.29593C92.112 1.98393 91.632 1.93593 89.304 1.98393C87.6 2.00793 86.256 1.93593 85.848 1.76793C84.552 1.21593 83.616 1.40793 82.92 2.31993L82.272 3.13593L81.336 2.67993C80.304 2.15193 79.2 2.05593 78.768 2.48793C78.576 2.67993 78.408 2.67993 78.12 2.43993C77.856 2.22393 77.304 2.17593 76.248 2.27193C75.168 2.36793 74.64 2.31993 74.304 2.05593C73.704 1.62393 68.4 1.57593 67.992 1.98393C67.776 2.19993 67.608 2.17593 67.344 1.91193C66.912 1.45593 62.808 1.23993 55.68 1.23993C52.968 1.23993 48.552 1.14393 45.84 1.02393C39.12 0.687931 38.76 0.687931 38.376 1.14393ZM103.92 5.24793C103.92 5.48793 103.44 6.20793 103.44 5.99193C103.44 5.91993 103.368 5.67993 103.296 5.46393C103.2 5.19993 103.272 5.07993 103.536 5.07993C103.752 5.07993 103.92 5.15193 103.92 5.24793ZM62.64 8.55993C62.64 8.60793 62.472 8.67993 62.28 8.77593C62.064 8.84793 61.92 8.77593 61.92 8.55993C61.92 8.34393 62.064 8.27193 62.28 8.34393C62.472 8.43993 62.64 8.51193 62.64 8.55993ZM64.56 8.70393C64.56 9.08793 64.464 9.15993 64.152 9.03993C63.912 8.94393 63.528 8.79993 63.288 8.72793C62.712 8.58393 63.216 8.19993 64.032 8.19993C64.416 8.19993 64.56 8.34393 64.56 8.70393ZM82.92 8.89593L84.84 9.03993L82.44 9.23193C81.096 9.35193 79.872 9.51993 79.68 9.63993C79.464 9.78393 79.248 9.71193 79.08 9.47193C78.84 9.15993 78.672 9.13593 78.024 9.35193C77.328 9.59193 77.256 9.56793 77.328 9.20793C77.376 8.89593 77.736 8.77593 78.84 8.65593C79.632 8.58393 80.448 8.58393 80.64 8.63193C80.832 8.70393 81.864 8.82393 82.92 8.89593ZM97.056 8.67993C98.088 9.06393 97.752 9.27993 96.072 9.32793C95.16 9.32793 94.176 9.39993 93.864 9.44793C93.552 9.47193 93.24 9.37593 93.192 9.20793C93.12 8.99193 93.456 8.91993 94.416 8.91993C95.136 8.91993 95.808 8.79993 95.88 8.67993C96.072 8.36793 96.288 8.36793 97.056 8.67993ZM107.16 13.2399C107.256 13.3839 107.04 13.4799 106.68 13.4799C106.32 13.4799 106.104 13.3839 106.2 13.2399C106.272 13.0959 106.488 12.9999 106.68 12.9999C106.872 12.9999 107.088 13.0959 107.16 13.2399Z" fill="white"/>
<path d="M112.992 8.72785C112.584 8.87185 112.32 9.13585 112.32 9.39985C112.32 9.63985 112.104 9.87985 111.816 9.95185C111.168 10.1199 111.456 10.5999 112.224 10.5999C112.656 10.5999 112.8 10.4799 112.752 10.1679C112.68 9.71185 112.8 9.71185 113.952 10.1679C114.576 10.4079 114.816 10.4079 115.2 10.1679C115.464 10.0239 116.064 9.87985 116.52 9.87985C117.12 9.87985 117.36 9.78385 117.36 9.49585C117.36 9.30385 117.288 9.18385 117.168 9.25585C117.072 9.30385 116.568 9.15985 116.04 8.91985C114.984 8.41585 114 8.34385 112.992 8.72785Z" fill="white"/>
<path d="M113.112 11.008C112.416 11.272 112.872 11.488 114.12 11.464C115.008 11.44 115.44 11.344 115.44 11.128C115.44 10.84 113.736 10.744 113.112 11.008Z" fill="white"/>
<path d="M114.576 16.2398C114.48 16.4558 114.504 16.6958 114.576 16.7918C114.792 16.9838 115.584 16.5038 115.512 16.2158C115.416 15.8318 114.72 15.8318 114.576 16.2398Z" fill="white"/>
<path d="M4.79993 21.9999C4.79993 22.1919 4.91993 22.3599 5.03993 22.3599C5.18393 22.3599 5.27993 22.1919 5.27993 21.9999C5.27993 21.8079 5.18393 21.6399 5.03993 21.6399C4.91993 21.6399 4.79993 21.8079 4.79993 21.9999Z" fill="white"/>
<path d="M56.712 33.0879C56.208 33.1839 55.92 33.8319 56.352 33.9039C57.312 34.0719 59.76 33.9999 59.688 33.8079C59.64 33.6399 57.24 32.7999 57.24 32.9679C57.24 32.9679 57 33.0399 56.712 33.0879Z" fill="white"/>
<path d="M54.72 34.8398C54.432 35.0318 54.504 35.0798 55.032 35.0798C55.416 35.0798 55.656 34.9838 55.56 34.8398C55.368 34.5518 55.176 34.5518 54.72 34.8398Z" fill="white"/>
</svg>
