<svg width="368" height="291" viewBox="0 0 368 291" fill="none" xmlns="http://www.w3.org/2000/svg">
<path d="M272.19 0.56015C271.16 1.07166 269.835 2.41431 269.246 3.50121C268.437 5.09959 267.995 5.35533 266.302 5.09959C264.094 4.71597 260.93 6.50618 260.194 8.55212C259.531 10.2784 254.821 9.57509 252.686 7.40128C251.214 5.86682 250.92 5.80289 249.154 6.63405C248.05 7.14554 246.872 8.04063 246.504 8.67999C245.768 9.89478 241.426 10.3423 241.426 9.19148C241.426 8.1685 238.776 8.42424 237.083 9.63902C236.2 10.2784 235.464 11.5571 235.39 12.5161C235.243 14.1145 234.949 14.3063 232.446 14.3063C230.974 14.3063 228.84 13.9866 227.736 13.667C226.411 13.2194 225.528 13.2194 224.866 13.667C224.13 14.1785 222.51 14.0506 218.978 13.2194C215.15 12.3243 213.899 11.7489 213.384 10.662C212.648 8.93573 212.648 8.93573 210.219 9.89478C208.453 10.5981 206.098 14.4342 206.098 16.5441C206.098 17.7589 204.184 17.8228 203.374 16.672C202.712 15.649 199.474 14.8178 199.474 15.649C199.474 16.608 198.075 16.2883 196.53 14.9457C194.616 13.2834 193.88 13.3473 191.819 15.1375C190.421 16.3523 189.758 16.5441 188.36 16.0326C187.403 15.7129 184.606 15.3932 182.251 15.3293L177.835 15.2654V13.0276C177.762 11.1735 177.467 10.7259 176.069 10.5981C175.112 10.4702 173.566 10.8538 172.536 11.4292C170.254 12.7079 163.41 12.1325 163.41 10.5981C163.41 9.89478 162.894 9.76689 161.128 10.0866C159.288 10.4062 158.258 10.1505 156.344 8.8718C154.43 7.59308 153.106 7.27341 149.72 7.27341C146.702 7.27341 145.304 6.95372 144.642 6.25043C143.832 5.2914 143.611 5.2914 141.477 6.25043C140.152 6.82585 138.606 7.9767 138.018 8.80786C137.208 9.89478 136.398 10.2144 135.074 9.95871C134.043 9.83083 133.234 9.31935 133.234 8.8718C133.234 7.65701 130.731 5.99469 128.744 5.99469C127.714 5.99469 126.168 6.44225 125.285 7.01767C123.739 7.91277 123.592 7.84883 121.973 6.25043L120.28 4.52417L118.661 5.99469C117.778 6.82585 117.042 7.20947 117.042 6.82585C117.042 6.44225 116.379 5.99469 115.496 5.80289C114.686 5.61108 113.803 4.84384 113.582 4.14055C113.067 2.41431 111.742 2.0946 107.768 2.73398C104.235 3.30939 101.586 3.05365 101.586 2.0946C101.586 1.19952 99.8929 1.45526 96.8017 2.79791C93.3425 4.33237 91.9441 6.57011 94.2257 7.0816C96.4337 7.59308 95.9921 9.51115 93.0481 12.3883C90.5457 14.7539 88.3377 15.7129 88.3377 14.3703C88.3377 12.3883 76.2673 11.5571 73.2497 13.2834C72.0721 13.9866 70.6001 14.2424 69.5697 14.0506C68.4657 13.7948 67.5089 14.1145 66.6257 14.9457C65.5217 16.0326 64.7121 16.1605 61.6945 15.8408C58.8977 15.5211 57.7937 15.649 56.7633 16.4801C55.7329 17.3113 54.6289 17.4392 51.2433 17.1195C47.7841 16.7359 46.6801 16.2883 44.4721 14.3703C41.9697 12.0686 41.8961 12.0686 39.8353 13.0916C38.5105 13.7948 37.3329 13.9227 36.7441 13.603C35.1985 12.7719 33.8737 12.8997 33.8737 13.8588C33.8737 15.649 30.3409 17.6949 26.9553 17.8228C22.5393 17.9507 21.1409 19.0376 21.7297 21.7868C22.0241 23.3852 21.8769 23.8967 21.1409 23.8967C20.5521 23.8967 19.8897 24.7279 19.5953 25.8148C19.3009 27.2213 18.7857 27.7328 17.6081 27.7328C16.7985 27.7328 15.4737 28.3722 14.6641 29.1394C13.1921 30.7378 12.8241 32.8477 14.0753 32.8477C14.5905 32.8477 14.8113 33.9985 14.5905 36.0445C14.5169 37.8347 14.6641 39.2413 14.9585 39.2413C15.2529 39.2413 15.3265 40.2642 15.0321 41.479C14.5905 43.461 14.8113 43.7807 16.8721 44.8037C18.4913 45.6348 19.1537 46.4021 19.1537 47.6168C19.1537 50.8136 15.6209 54.8416 13.5601 54.1383C12.9713 53.9465 12.2353 55.0973 11.4993 57.2072C9.95366 61.6188 10.0273 62.1942 11.9409 63.9844C13.5601 65.4549 13.5601 65.5828 12.3825 67.373L11.1313 69.291L14.4433 72.2321C16.9457 74.5338 17.6817 75.6846 17.6817 77.3469C17.6817 78.5617 17.9761 79.5208 18.3441 79.5208C18.6385 79.5208 19.8161 80.0962 20.9201 80.8634C22.7601 82.1421 22.7601 82.2061 21.6561 84.1881C20.6993 85.7225 20.6257 86.4258 21.2881 87.3209C21.7297 87.9603 21.9505 89.175 21.6561 90.0701C21.2881 91.4128 21.4353 91.6685 22.7601 91.6685C24.9681 91.6685 24.9681 95.185 22.7601 95.6965C21.5825 95.9522 21.2881 96.3998 21.6561 97.2309C22.3185 98.6375 22.3185 98.5097 22.1713 101.067C22.0977 102.474 21.7297 103.177 20.9937 103.177C20.4049 103.177 19.8897 103.433 19.8897 103.816C19.8897 104.136 19.2273 104.456 18.4177 104.456C16.2833 104.456 13.2657 105.798 13.2657 106.821C13.2657 107.269 13.6337 107.652 14.0017 107.652C14.4433 107.652 14.7377 107.908 14.7377 108.292C14.7377 108.611 14.2961 108.931 13.7073 108.931C13.1921 108.931 11.9409 109.954 10.9841 111.169C10.0273 112.384 8.92326 113.407 8.55526 113.407C8.11366 113.407 6.78886 114.046 5.46406 114.813C3.62406 115.9 2.96166 116.859 2.59366 118.969C2.37286 120.504 1.63686 122.102 1.04806 122.613C-0.718336 124.212 -0.203136 126.641 2.22566 128.24C4.50726 129.71 5.02246 131.181 3.62406 132.396C2.96166 132.971 2.96166 133.674 3.69766 135.081C4.21286 136.168 4.87526 137.063 5.24326 137.063C5.61126 137.063 5.90566 137.83 5.90566 138.789C5.90566 139.748 6.56806 141.155 7.45126 141.922C8.33446 142.753 9.14406 144.671 9.51206 146.781C9.80646 148.635 10.3217 150.553 10.6161 151.001C10.9105 151.448 10.6897 152.535 9.95366 153.43C9.07046 154.645 8.99686 155.285 9.58566 155.924C10.1745 156.563 9.73286 157.458 7.74566 159.696C4.87526 163.021 4.58086 163.916 6.49446 163.916C8.48166 163.98 10.7633 166.026 12.5297 169.286C14.0753 172.036 14.0753 172.355 12.9713 173.442C11.8673 174.465 11.8673 174.657 13.2657 175.744C14.0753 176.383 14.7377 177.278 14.7377 177.79C14.7377 178.365 15.1793 178.557 16.1361 178.301C17.3137 177.982 17.5345 178.429 17.9025 181.562C18.1969 184.183 18.8593 185.654 20.1105 186.869C21.9505 188.595 23.3489 193.326 21.9505 193.326C21.5089 193.326 21.2881 194.669 21.4353 196.651C21.5825 198.569 21.2881 200.679 20.6993 201.51C20.1841 202.341 19.9633 203.428 20.1841 204.004C20.4785 204.643 19.8897 205.154 18.4177 205.666C17.2401 206.05 16.2097 206.561 16.2097 206.817C16.2097 207.584 20.6993 210.589 21.8033 210.589C23.4225 210.589 22.9809 211.484 20.6257 213.018C18.7857 214.233 18.5649 214.745 18.9329 216.343C19.1537 217.43 18.9329 218.645 18.4913 219.156C17.9025 219.732 17.9025 220.499 18.3441 221.714C18.9329 222.992 19.7425 223.44 22.0977 223.76C24.4529 224.079 25.0417 224.463 25.0417 225.55C25.0417 227.404 26.1457 228.875 26.8081 227.916C27.5441 226.893 29.1633 227.02 30.5617 228.235C31.3713 229.002 31.5185 229.514 30.9297 230.089C30.3409 230.665 30.4145 231.176 31.2241 231.88C31.8129 232.391 32.1809 233.35 31.9601 233.989C31.4449 235.907 32.6961 237.058 34.9041 236.547C36.1553 236.291 36.8177 235.716 36.8177 234.885C36.8177 233.094 39.4673 233.222 40.6449 235.012C41.1601 235.844 41.4545 237.058 41.3073 237.698C41.1601 238.657 41.4545 238.849 42.7057 238.529C45.2081 237.953 46.4593 238.657 45.9441 240.319C45.5761 241.598 45.7969 241.726 47.3425 241.47C48.2993 241.278 49.5505 241.598 50.1393 242.045C51.8321 243.516 57.7201 245.754 59.9281 245.754C61.4737 245.754 62.1361 246.201 62.7985 247.608C63.4609 249.206 64.0497 249.526 66.9201 249.782C69.7905 250.101 70.8209 249.845 73.6913 248.247C75.5313 247.224 77.8129 245.69 78.7697 244.795C79.7265 243.899 81.0513 243.196 81.7873 243.196C83.1857 243.196 86.1297 247.096 86.1297 249.014C86.1297 249.654 86.6449 250.229 87.2337 250.229C87.8225 250.229 88.3377 249.782 88.3377 249.27C88.3377 248.119 89.5153 247.991 90.2513 249.078C90.5457 249.462 90.3985 249.973 89.9569 250.101C88.6321 250.485 88.9265 251.316 90.4721 251.7C92.9009 252.211 93.6369 251.38 92.6801 249.078C91.5761 246.329 92.9009 243.196 94.9617 243.644C96.5809 244.027 97.6113 242.685 96.5073 241.726C94.5201 239.999 96.4337 239.424 99.6721 240.703C100.702 241.15 101.806 242.237 102.248 243.26C102.763 244.603 103.573 245.114 105.486 245.434C106.958 245.69 108.798 245.69 109.682 245.434C110.712 245.178 111.742 245.37 112.699 246.137C114.024 247.16 114.171 247.16 115.57 246.073C116.379 245.434 118.293 244.795 119.838 244.667C123.445 244.347 124.843 243.132 123.739 241.406C122.782 239.871 121.31 240.063 118.734 242.109C116.968 243.516 115.79 243.132 114.76 240.831C114.392 239.999 113.73 239.488 113.288 239.68C112.846 239.935 112.699 240.511 112.92 240.958C113.288 241.917 111.154 243.836 109.755 243.836C108.651 243.836 109.314 240.639 110.418 239.999C110.786 239.808 111.522 238.529 112.037 237.122C112.846 234.948 113.362 234.565 115.349 234.373C116.968 234.245 118.146 234.565 119.176 235.46C120.059 236.227 121.016 236.803 121.384 236.803C121.752 236.803 122.194 237.25 122.488 237.762C123.003 239.104 125.653 238.976 126.61 237.57C127.272 236.547 127.419 236.611 128.818 238.017C129.922 239.104 130.731 239.424 132.13 239.104C134.338 238.593 134.411 239.104 132.571 241.278C131.173 242.749 131.099 242.813 129.701 241.726C127.125 239.68 124.328 240.703 125.874 243.132C126.389 243.963 126.389 244.539 125.874 244.795C124.254 245.626 125.285 247.032 128.082 247.736C130.069 248.247 131.026 248.886 131.026 249.654C131.026 251.188 132.203 251.7 133.896 250.868C134.853 250.421 135.221 249.845 134.926 249.078C134.558 248.247 134.706 248.183 135.442 248.759C136.472 249.59 138.386 249.142 139.563 247.8C140.152 247.096 140.52 247.032 140.888 247.544C141.624 248.631 144.274 248.503 144.715 247.352C145.378 245.881 146.261 246.201 147.144 248.375C147.586 249.59 148.248 250.165 148.763 249.909C149.352 249.526 149.278 249.27 148.616 248.822C147.806 248.311 147.806 248.119 148.542 247.863C149.058 247.736 149.941 247.16 150.456 246.649C151.045 246.137 152.002 245.754 152.517 245.754C153.106 245.754 153.915 245.434 154.283 245.114C155.166 244.347 157.522 244.922 157.522 245.818C157.522 246.137 158.184 246.393 158.92 246.393C159.656 246.393 160.466 246.777 160.686 247.288C161.128 248.247 168.12 248.375 169.886 247.48C171.211 246.713 170.99 245.306 169.224 243.899C167.752 242.685 167.752 242.685 169.15 241.853C169.886 241.342 171.138 239.999 171.8 238.849C173.272 236.419 174.45 235.844 177.026 236.419C178.203 236.675 178.645 237.122 178.424 237.762C177.614 239.488 178.939 240.063 180.264 238.657C181.442 237.314 181.736 237.314 183.87 238.145C185.195 238.657 186.226 239.296 186.226 239.616C186.226 239.871 186.741 239.999 187.33 239.744C187.992 239.552 188.728 239.935 189.17 240.639C189.906 241.853 190.053 241.853 191.746 240.894C193.954 239.616 199.842 240.191 199.179 241.662C198.958 242.109 199.106 242.685 199.474 242.876C199.842 243.068 199.474 244.219 198.664 245.434C197.781 246.649 197.413 247.672 197.854 247.672C198.222 247.672 198.811 248.375 199.032 249.206C199.621 251.252 203.301 252.595 205.73 251.636C206.76 251.188 207.57 250.613 207.57 250.229C207.57 249.782 208.158 249.654 209.042 249.909C210.072 250.165 210.514 250.037 210.514 249.398C210.514 248.822 210.219 248.311 209.925 248.183C208.968 247.927 208.158 244.475 208.968 244.475C210.808 244.475 211.986 245.434 211.986 246.968C211.986 248.183 212.795 249.142 214.93 250.421C217.653 252.083 218.094 252.147 220.45 251.508C223.909 250.485 225.528 248.311 224.939 245.434C224.424 243.324 225.381 240.639 226.558 240.639C226.926 240.639 227.883 241.917 228.766 243.516C229.65 245.114 230.827 246.393 231.416 246.393C233.035 246.393 233.55 249.526 232.226 251.252C231.269 252.595 230.68 252.787 228.693 252.467C225.454 251.891 222.805 253.746 223.762 255.791C224.645 257.71 226.485 257.646 228.325 255.6C229.429 254.449 230.091 254.193 230.606 254.641C231.048 255.024 232.152 255.344 233.109 255.344C234.139 255.344 234.802 255.728 234.802 256.303C234.802 256.814 235.317 257.262 235.979 257.262C236.642 257.262 237.598 257.71 238.04 258.285C239.07 259.5 241.573 258.796 241.278 257.326C241.131 256.623 240.248 256.303 238.629 256.239C236.126 256.239 234.139 255.152 235.39 254.449C236.2 254.001 235.611 250.868 234.728 250.868C233.403 250.868 234.139 249.142 236.2 247.416C238.04 245.881 238.261 245.37 237.746 244.091C237.157 242.813 237.304 242.557 238.334 242.557C240.469 242.557 241.499 243.58 241.278 245.434C240.984 247.544 242.53 248.311 243.266 246.457C243.707 245.178 245.474 244.667 246.062 245.626C246.21 245.881 246.578 246.84 246.872 247.8C247.314 249.334 247.093 249.59 245.694 249.59C244.738 249.59 243.56 249.845 243.045 250.165C242.235 250.613 242.309 250.804 243.266 251.124C243.928 251.316 245.253 251.508 246.21 251.508C247.24 251.508 248.05 251.955 248.27 252.723C248.491 253.618 249.522 254.065 252.318 254.385C254.821 254.641 256.514 255.28 257.691 256.367C259.31 257.837 259.31 257.901 260.341 256.623C260.93 255.919 261.886 255.344 262.475 255.344C263.138 255.344 263.506 254.641 263.506 253.106C263.506 251.572 263.874 250.868 264.61 250.868C265.198 250.868 265.714 251.444 265.714 252.147C265.714 252.85 266.229 253.426 266.818 253.426C267.406 253.426 267.922 252.914 267.922 252.275C267.922 251.7 268.952 250.677 270.203 250.101C272.19 249.078 272.632 249.078 274.546 249.909C275.87 250.485 276.827 250.613 277.122 250.229C277.416 249.845 278.814 249.782 280.507 249.973C283.378 250.421 283.378 250.357 283.378 248.247C283.378 245.37 285.954 244.155 289.045 245.562C290.885 246.393 291.474 246.393 294.565 245.434C296.478 244.858 298.392 244.539 298.907 244.795C299.496 245.114 299.57 244.731 299.202 243.26C298.466 240.319 299.938 240.831 301.483 244.091C302.219 245.626 303.102 246.777 303.397 246.649C303.691 246.457 303.765 245.945 303.47 245.434C303.25 244.858 303.544 244.475 304.206 244.475C304.795 244.475 305.458 244.027 305.752 243.516C305.973 243.004 306.635 242.557 307.224 242.557C307.813 242.557 308.622 242.109 308.99 241.598C309.506 240.703 309.874 240.767 311.493 241.917C313.038 242.94 313.774 243.068 315.394 242.557C318.043 241.662 318.043 241.726 317.528 243.58C317.086 244.986 317.234 245.178 318.411 244.986C319.294 244.858 319.736 244.347 319.589 243.516C319.368 242.429 319.442 242.429 320.546 243.196C321.502 243.899 322.091 243.899 323.195 243.324C324.152 242.813 325.918 242.685 328.274 242.94C331.365 243.324 331.954 243.58 331.954 244.731C331.954 245.818 332.101 245.881 332.69 245.114C333.058 244.603 333.426 243.516 333.426 242.685C333.426 241.47 333.646 241.342 334.824 241.917C337.032 242.94 337.842 242.685 337.842 241.086C337.842 240.255 338.136 239.36 338.504 239.04C338.872 238.657 339.314 237.698 339.461 236.867C339.534 235.971 340.123 235.14 340.712 235.012C341.448 234.821 341.595 235.012 341.301 235.78C341.006 236.355 341.154 236.803 341.448 236.803C341.816 236.803 342.258 236.355 342.552 235.844C342.773 235.332 343.435 234.885 344.024 234.885C345.57 234.885 346.894 230.089 346.379 226.509C346.011 224.335 346.158 223.376 346.968 222.801C347.557 222.353 347.851 221.586 347.704 221.138C347.483 220.627 348.146 218.581 349.102 216.535C350.133 214.489 351.163 212.059 351.384 211.1C351.678 210.077 352.341 209.31 353.003 209.31C353.592 209.31 354.77 208.351 355.506 207.2C356.315 205.986 357.787 204.707 358.818 204.323C360.29 203.748 360.658 203.108 360.658 201.126C360.658 199.784 361.026 198.377 361.467 197.994C362.718 196.907 361.909 194.349 360.142 193.646C358.008 192.815 358.008 192.303 360.29 191.025C362.424 189.81 362.718 187.316 360.952 185.079C359.995 183.928 359.922 183.288 360.584 182.074C361.246 180.731 361.173 180.411 360.069 180.156C357.198 179.388 356.61 178.749 356.83 176.703C356.904 175.552 356.61 174.21 356.168 173.762C355.506 173.059 355.579 172.547 356.61 171.588C357.714 170.501 357.787 170.054 357.125 168.647C356.61 167.752 355.285 166.729 354.107 166.409C351.531 165.642 350.574 162.893 352.341 161.231C353.445 160.144 353.077 157.522 351.752 157.522C350.133 157.522 351.31 155.221 353.371 154.389C355.947 153.43 358.082 150.042 356.904 148.763C356.389 148.252 356.978 147.548 358.67 146.397C361.099 144.799 361.173 144.543 360.437 142.497C359.774 140.643 359.922 140.068 361.026 138.981C362.866 137.191 362.056 133.866 358.818 129.774C357.419 127.984 356.242 126.002 356.242 125.363C356.242 124.787 355.8 124.276 355.211 124.276C354.475 124.276 354.181 123.572 354.328 121.718C354.475 119.8 354.99 118.649 356.61 117.435C358.597 115.772 358.744 115.772 360.805 116.795C362.792 117.818 362.939 117.754 364.043 116.284C364.706 115.389 365.074 114.046 364.853 113.343C364.558 112.448 365 111.489 366.178 110.466C367.723 109.123 367.87 108.548 367.502 105.67C367.134 103.177 366.693 102.282 365.442 101.77C364.558 101.451 362.571 99.7244 361.026 97.9982C359.112 95.7604 357.787 94.8653 356.536 94.8653C355.285 94.8653 354.77 95.2489 354.77 96.0162C354.77 96.6555 353.739 97.8703 352.488 98.6375L350.133 100.172L348.808 98.6375C347.483 97.1031 346.674 94.5456 346.674 91.8603C346.674 90.7095 346.158 90.2619 344.466 89.9423C343.288 89.7505 342.258 89.239 342.258 88.7275C342.258 87.4488 340.859 87.0012 339.682 87.8324C338.578 88.6636 338.283 88.3439 338.578 86.3619C338.651 85.7225 338.283 84.7635 337.842 84.252C337.032 83.4848 337.4 83.3569 339.976 83.3569C343.288 83.3569 345.938 82.4618 345.938 81.3749C345.938 81.0552 345.275 80.0962 344.466 79.3289C342.699 77.7305 342.994 75.4928 345.275 73.4469C346.6 72.1042 346.6 72.1042 345.128 71.0173C343.95 70.1222 343.73 69.4189 344.098 67.8205C344.76 65.1992 345.054 64.8155 346.379 64.8155C347.778 64.8155 347.704 63.2171 346.232 62.0024C345.422 61.2351 345.128 60.0843 345.349 57.9105C345.57 55.2891 345.349 54.8416 343.95 54.2661C342.552 53.7547 342.258 53.1792 342.258 50.7497C342.331 48.1923 342.626 47.6808 345.202 45.9545C348.293 43.8446 348.366 43.8446 348.366 35.7248C348.366 31.4411 348.587 30.4821 349.691 29.7788C351.458 28.6919 351.458 27.2853 349.691 26.3262C348.514 25.7508 348.44 25.3033 349.102 24.0885C350.206 21.9786 349.176 21.3393 344.245 20.8917C340.565 20.572 340.197 20.3802 340.786 19.3573C341.227 18.7179 341.522 17.631 341.522 16.8638C341.522 16.1605 342.037 15.3932 342.626 15.2014C343.288 14.9457 343.73 13.9866 343.73 12.5801C343.73 11.1735 343.435 10.5341 342.92 10.7899C342.478 11.0456 341.963 10.662 341.742 9.89478C341.522 8.99966 340.786 8.55212 339.608 8.55212C338.062 8.55212 337.842 8.23244 337.842 6.31438C337.842 1.96674 333.794 2.67004 329.23 7.84883C327.685 9.57509 326.066 11.0456 325.55 11.0456C325.109 11.1095 324.078 10.3423 323.342 9.44722C322.238 8.1685 321.282 7.7849 319 7.7849C316.056 7.72096 311.198 9.0636 309.726 10.3423C308.77 11.1735 304.722 11.4292 304.722 10.5981C304.722 10.3423 303.323 9.76689 301.63 9.31935C298.834 8.55212 298.392 8.61606 296.552 9.76689C295.374 10.5341 293.976 11.1095 293.387 11.1095C292.136 11.1095 290.443 8.80786 291.106 7.91277C291.547 7.33734 289.266 5.99469 287.867 5.99469C287.426 5.99469 287.058 6.44225 287.058 6.95372C287.058 8.74393 284.997 7.91277 284.482 5.99469C284.187 4.71597 283.525 4.07661 282.642 4.07661C281.906 4.07661 281.022 3.75694 280.728 3.37332C280.507 2.98972 279.33 2.79791 278.152 3.05365C276.68 3.30939 276.018 3.11758 276.018 2.60611C276.018 2.15854 275.576 1.26346 275.134 0.688019C274.251 -0.207062 273.957 -0.207062 272.19 0.56015Z" fill="black"/>
<path d="M355.506 224.655C355.506 226.126 357.346 226.381 357.934 225.039C358.45 224.016 357.861 223.376 356.462 223.376C355.947 223.376 355.506 223.952 355.506 224.655Z" fill="black"/>
<path d="M351.458 229.131C351.163 229.514 351.237 230.153 351.678 230.537C352.12 230.921 352.562 230.921 352.93 230.409C353.224 230.026 353.15 229.386 352.709 229.003C352.267 228.619 351.826 228.619 351.458 229.131Z" fill="black"/>
<path d="M114.098 236.1C114.098 236.803 116.379 237.634 116.968 237.123C117.189 236.931 116.894 236.483 116.306 236.164C114.907 235.396 114.098 235.396 114.098 236.1Z" fill="black"/>
<path d="M345.938 236.803C345.938 237.122 346.306 237.442 346.674 237.442C347.115 237.442 347.41 237.122 347.41 236.803C347.41 236.419 347.115 236.163 346.674 236.163C346.306 236.163 345.938 236.419 345.938 236.803Z" fill="black"/>
<path d="M173.861 240.447C170.843 240.767 171.138 241.981 174.523 243.004C175.922 243.452 176.731 243.835 176.29 243.899C175.922 243.963 175.259 244.091 174.818 244.155C174.45 244.283 173.64 244.347 173.198 244.411C171.506 244.539 172.168 245.626 174.891 247.096C177.688 248.567 178.792 248.183 178.866 245.69C178.866 245.114 179.381 244.475 179.97 244.219C180.558 244.027 181.074 243.388 181.074 242.812C181.074 241.981 180.632 241.853 178.792 242.173C176.731 242.493 176.51 242.429 176.878 241.278C177.099 240.575 177.026 240.063 176.805 240.127C176.51 240.127 175.186 240.319 173.861 240.447Z" fill="black"/>
<path d="M345.202 242.557C345.202 242.877 345.57 243.196 345.938 243.196C346.379 243.196 346.674 242.877 346.674 242.557C346.674 242.173 346.379 241.918 345.938 241.918C345.57 241.918 345.202 242.173 345.202 242.557Z" fill="black"/>
<path d="M225.234 243.452C225.234 244.027 225.602 244.475 225.97 244.475C226.411 244.475 226.706 244.219 226.706 243.899C226.706 243.516 226.411 243.068 225.97 242.876C225.602 242.685 225.234 242.94 225.234 243.452Z" fill="black"/>
<path d="M97.2433 245.37C96.8017 245.818 96.5809 246.713 96.8753 247.288C97.3905 248.503 97.5377 248.503 99.4513 247.672C100.555 247.097 100.702 246.713 100.114 245.754C99.1569 244.283 98.4209 244.155 97.2433 245.37Z" fill="black"/>
<path d="M189.685 245.178C187.992 246.009 188.066 247.032 189.832 247.032C191.525 247.032 192.261 246.329 191.525 245.306C191.157 244.794 190.568 244.794 189.685 245.178Z" fill="black"/>
<path d="M14.0017 246.073C14.0017 246.585 14.5169 247.032 15.1057 247.032C15.6945 247.032 16.2097 246.585 16.2097 246.073C16.2097 245.562 15.6945 245.114 15.1057 245.114C14.5169 245.114 14.0017 245.562 14.0017 246.073Z" fill="black"/>
<path d="M78.0337 247.224C78.0337 248.439 78.7697 248.951 79.9473 248.503C81.4929 247.992 81.1985 246.393 79.5057 246.393C78.6961 246.393 78.0337 246.777 78.0337 247.224Z" fill="black"/>
<path d="M108.578 247.032C108.798 247.352 109.387 247.672 109.755 247.672C110.197 247.672 110.27 247.352 110.05 247.032C109.829 246.649 109.24 246.393 108.872 246.393C108.43 246.393 108.357 246.649 108.578 247.032Z" fill="black"/>
<path d="M305.163 246.904C305.016 247.16 305.09 247.799 305.384 248.183C306.12 249.27 308.402 248.439 307.887 247.288C307.445 246.329 305.752 246.073 305.163 246.904Z" fill="black"/>
<path d="M54.4817 248.887C54.4817 249.27 54.8497 249.718 55.2177 249.91C55.6593 250.102 55.9537 249.846 55.9537 249.334C55.9537 248.759 55.6593 248.311 55.2177 248.311C54.8497 248.311 54.4817 248.567 54.4817 248.887Z" fill="black"/>
<path d="M169.077 248.695C168.488 249.206 169.15 250.229 170.107 250.229C170.475 250.229 170.77 249.781 170.77 249.27C170.77 248.311 169.886 247.991 169.077 248.695Z" fill="black"/>
<path d="M297.509 249.206C297.582 249.846 298.098 250.293 298.466 250.293C299.57 250.229 299.349 248.759 298.245 248.439C297.582 248.247 297.288 248.567 297.509 249.206Z" fill="black"/>
<path d="M77.5185 251.38C75.7521 253.362 76.3409 255.344 78.6961 255.344C80.9777 255.344 81.7873 253.873 80.9041 251.572C79.9473 249.206 79.5793 249.142 77.5185 251.38Z" fill="black"/>
<path d="M110.786 250.229C111.08 250.613 111.595 250.741 111.963 250.549C112.994 249.974 112.773 249.59 111.448 249.59C110.859 249.59 110.565 249.91 110.786 250.229Z" fill="black"/>
<path d="M150.162 250.805C150.162 251.508 150.456 252.211 150.824 252.403C151.707 252.915 153.326 251.061 152.738 250.229C151.928 249.142 150.162 249.526 150.162 250.805Z" fill="black"/>
<path d="M316.056 250.293C315.541 251.06 317.16 252.275 318.338 251.955C318.779 251.827 319.147 251.252 319.294 250.677C319.589 249.462 316.939 249.142 316.056 250.293Z" fill="black"/>
<path d="M337.474 250.229C337.694 250.549 338.21 250.868 338.651 250.868C339.019 250.868 339.314 250.549 339.314 250.229C339.314 249.845 338.798 249.59 338.136 249.59C337.547 249.59 337.253 249.845 337.474 250.229Z" fill="black"/>
<path d="M303.986 251.828C303.47 252.339 302.146 252.723 300.747 252.595C298.834 252.467 298.392 252.723 298.245 254.001C297.95 255.408 298.171 255.472 300.821 255.152C302.366 254.896 304.133 255.024 304.648 255.344C307.15 256.687 309.653 253.49 307.518 251.636C306.341 250.613 305.09 250.677 303.986 251.828Z" fill="black"/>
<path d="M20.6257 252.147C20.6257 252.467 20.9201 252.787 21.2881 252.787C21.7297 252.787 22.2449 252.467 22.4657 252.147C22.6865 251.764 22.3921 251.508 21.8033 251.508C21.1409 251.508 20.6257 251.764 20.6257 252.147Z" fill="black"/>
<path d="M38.6576 252.084C38.1424 252.851 39.5408 253.618 40.4976 253.107C41.3072 252.659 40.792 251.508 39.7616 251.508C39.3936 251.508 38.952 251.764 38.6576 252.084Z" fill="black"/>
<path d="M83.9216 252.659C83.9216 254.385 85.6144 256.047 86.7184 255.408C87.4544 255.024 87.528 254.577 86.792 253.234C85.7616 251.252 83.9216 250.932 83.9216 252.659Z" fill="black"/>
<path d="M120.501 252.275C118.734 252.85 118.44 253.17 118.882 254.513C119.397 256.495 117.557 258.541 115.054 258.541C112.92 258.541 112.699 260.842 114.834 261.418C116.747 261.929 117.778 261.354 117.778 259.691C117.778 258.668 118.072 258.477 119.47 258.796C127.566 260.842 131.467 258.477 128.67 253.106C128.008 251.827 127.346 251.508 125.211 251.572C123.739 251.572 121.605 251.891 120.501 252.275Z" fill="black"/>
<path d="M174.45 252.147C174.45 252.467 174.744 252.787 175.112 252.787C175.554 252.787 176.069 252.467 176.29 252.147C176.511 251.764 176.216 251.508 175.627 251.508C174.965 251.508 174.45 251.764 174.45 252.147Z" fill="black"/>
<path d="M192.334 252.275C192.482 252.723 193.07 253.106 193.586 253.106C194.101 253.106 194.69 252.723 194.91 252.275C195.058 251.827 194.542 251.508 193.586 251.508C192.629 251.508 192.114 251.827 192.334 252.275Z" fill="black"/>
<path d="M237.746 252.339C237.746 253.554 238.482 254.065 239.586 253.618C240.837 253.234 240.174 251.508 238.776 251.508C238.187 251.508 237.746 251.892 237.746 252.339Z" fill="black"/>
<path d="M71.4097 253.746C71.4097 255.472 73.3233 255.983 74.8689 254.641C76.1201 253.554 75.1633 252.147 73.1761 252.147C71.7777 252.147 71.4097 252.467 71.4097 253.746Z" fill="black"/>
<path d="M100.408 253.106C100.114 253.682 100.114 254.257 100.261 254.449C100.923 254.96 103.131 253.937 102.837 253.234C102.395 252.083 100.85 251.955 100.408 253.106Z" fill="black"/>
<path d="M161.79 252.595C161.054 252.723 160.466 253.107 160.466 253.362C160.466 254.257 164.219 255.344 165.397 254.833C166.354 254.321 166.354 254.13 165.25 253.234C163.998 252.084 163.925 252.084 161.79 252.595Z" fill="black"/>
<path d="M181.81 252.787C181.81 253.17 182.325 253.426 182.914 253.426C183.502 253.426 184.018 253.298 184.018 253.17C184.018 253.042 183.502 252.787 182.914 252.531C182.325 252.339 181.81 252.467 181.81 252.787Z" fill="black"/>
<path d="M196.677 252.915C197.045 253.874 198.738 254.066 198.811 253.107C198.811 252.723 198.296 252.339 197.56 252.275C196.824 252.084 196.456 252.339 196.677 252.915Z" fill="black"/>
<path d="M310.61 253.106C310.61 253.618 311.051 254.065 311.64 254.065C312.229 254.065 312.818 253.618 313.112 253.106C313.406 252.467 313.038 252.147 312.082 252.147C311.272 252.147 310.61 252.595 310.61 253.106Z" fill="black"/>
<path d="M327.317 252.595C326.286 253.426 326.875 254.705 328.274 254.705C329.23 254.705 329.746 254.257 329.746 253.426C329.746 252.211 328.274 251.7 327.317 252.595Z" fill="black"/>
<path d="M242.162 253.426C242.162 253.746 242.53 254.065 242.898 254.065C243.339 254.065 243.634 253.746 243.634 253.426C243.634 253.042 243.339 252.787 242.898 252.787C242.53 252.787 242.162 253.042 242.162 253.426Z" fill="black"/>
<path d="M148.837 254.833C147.659 255.856 146.997 256.048 146.408 255.536C145.231 254.513 142.802 255.28 142.802 256.687C142.802 258.285 144.495 258.861 146.408 257.966C147.365 257.518 148.027 257.454 148.322 257.902C148.984 258.861 151.855 258.669 153.547 257.582C154.872 256.687 154.872 256.623 152.811 255.025C151.634 254.129 150.603 253.426 150.603 253.426C150.53 253.426 149.72 254.066 148.837 254.833Z" fill="black"/>
<path d="M42.0433 255.536C40.9393 256.751 42.7793 258.925 44.4721 258.349C46.0177 257.838 46.0177 255.6 44.4721 255.089C42.9265 254.577 43.0001 254.577 42.0433 255.536Z" fill="black"/>
<path d="M92.0177 255.344C92.0177 255.664 92.5329 255.983 93.1217 255.983C93.7105 255.983 94.2257 255.664 94.2257 255.344C94.2257 254.96 93.7105 254.705 93.1217 254.705C92.5329 254.705 92.0177 254.96 92.0177 255.344Z" fill="black"/>
<path d="M110.418 255.664C110.418 256.239 110.786 256.623 111.227 256.495C111.669 256.367 112.037 255.983 112.037 255.664C112.037 255.344 111.669 254.96 111.227 254.833C110.786 254.705 110.418 255.088 110.418 255.664Z" fill="black"/>
<path d="M155.682 255.344C155.166 256.111 155.829 257.262 156.859 257.262C157.227 257.262 157.522 256.687 157.522 255.983C157.522 254.641 156.418 254.257 155.682 255.344Z" fill="black"/>
<path d="M196.162 255.792C194.616 257.134 195.131 258.221 197.339 258.221C198.59 258.221 199.179 257.838 199.326 256.879C199.621 255.152 197.634 254.449 196.162 255.792Z" fill="black"/>
<path d="M80.6832 255.855C80.4624 256.239 80.6096 256.751 81.0512 256.942C82.1552 257.582 82.8912 256.751 81.9344 255.919C81.4192 255.472 80.9776 255.472 80.6832 255.855Z" fill="black"/>
<path d="M171.726 256.303C171.506 256.878 171.506 257.454 171.726 257.71C172.462 258.349 174.45 257.326 174.45 256.303C174.45 255.024 172.315 255.024 171.726 256.303Z" fill="black"/>
<path d="M268.878 256.367C268.658 256.879 268.805 257.646 269.246 258.029C270.424 259.052 272.338 258.157 272.338 256.623C272.338 255.088 269.541 254.833 268.878 256.367Z" fill="black"/>
<path d="M307.077 256.751C307.518 257.902 309.138 258.093 309.138 257.006C309.138 256.431 308.622 255.983 307.96 255.983C307.298 255.983 306.93 256.303 307.077 256.751Z" fill="black"/>
<path d="M159.288 257.582C158.699 258.861 159.582 259.82 161.275 259.82C162.306 259.82 162.674 259.372 162.674 258.221C162.674 257.07 162.306 256.623 161.202 256.623C160.392 256.623 159.509 257.07 159.288 257.582Z" fill="black"/>
<path d="M152.37 260.139C152.37 260.651 152.002 261.098 151.56 261.098C151.192 261.098 150.971 261.354 151.266 261.737C151.781 262.441 154.504 260.395 154.062 259.628C153.547 258.796 152.37 259.116 152.37 260.139Z" fill="black"/>
<path d="M193.07 260.842C192.85 261.354 192.997 262.121 193.438 262.505C194.616 263.528 196.53 262.633 196.53 261.098C196.53 259.564 193.733 259.308 193.07 260.842Z" fill="black"/>
<path d="M63.7553 263.528C63.6081 263.784 63.7553 264.423 64.1233 264.934C64.7121 265.766 64.8593 265.766 65.4481 264.934C66.1841 263.975 65.8897 263.016 64.7857 263.016C64.4177 263.016 63.9761 263.272 63.7553 263.528Z" fill="black"/>
<path d="M218.021 263.912C218.094 264.551 218.61 264.999 218.978 264.999C220.082 264.935 219.861 263.464 218.757 263.144C218.094 262.953 217.8 263.272 218.021 263.912Z" fill="black"/>
<path d="M290.738 264.615C290.738 265.702 290.885 265.766 292.504 265.19C293.829 264.743 293.387 263.656 291.768 263.656C291.179 263.656 290.738 264.103 290.738 264.615Z" fill="black"/>
<path d="M30.1936 265.19C30.1936 265.702 30.488 266.277 30.7824 266.469C31.7392 266.98 33.3584 265.766 32.8432 264.998C32.1072 263.975 30.1936 264.103 30.1936 265.19Z" fill="black"/>
<path d="M109.314 264.934C109.535 265.254 109.903 265.574 110.123 265.574C110.271 265.574 110.418 265.254 110.418 264.934C110.418 264.551 110.05 264.295 109.608 264.295C109.24 264.295 109.093 264.551 109.314 264.934Z" fill="black"/>
<path d="M184.312 265.318C184.533 265.894 184.754 266.405 184.754 266.597C184.754 266.725 185.269 266.661 185.858 266.469C187.551 265.894 187.183 264.295 185.416 264.295C184.312 264.295 184.018 264.551 184.312 265.318Z" fill="black"/>
<path d="M257.397 264.679C257.176 264.871 257.25 265.574 257.618 266.149C257.986 266.725 258.427 267.94 258.648 268.899C259.016 270.177 259.458 270.497 260.488 270.241C262.549 269.794 262.99 268.259 261.298 267.364C260.488 266.917 259.826 266.022 259.826 265.446C259.826 264.359 258.354 263.912 257.397 264.679Z" fill="black"/>
<path d="M263.506 264.998C263.506 265.318 263.874 265.446 264.242 265.254C264.683 265.062 264.978 264.743 264.978 264.551C264.978 264.423 264.683 264.295 264.242 264.295C263.874 264.295 263.506 264.615 263.506 264.998Z" fill="black"/>
<path d="M336.37 264.934C336.37 265.254 336.738 265.574 337.106 265.574C337.547 265.574 337.842 265.254 337.842 264.934C337.842 264.551 337.547 264.295 337.106 264.295C336.738 264.295 336.37 264.551 336.37 264.934Z" fill="black"/>
<path d="M135.589 267.108C135.662 267.748 136.178 268.195 136.546 268.195C137.65 268.131 137.429 266.661 136.325 266.341C135.662 266.149 135.368 266.469 135.589 267.108Z" fill="black"/>
<path d="M103.278 267.3C102.322 267.428 101.586 267.812 101.586 268.131C101.586 269.026 104.162 270.049 106.37 270.049C107.989 270.049 108.283 269.794 108.062 268.579C107.842 267.108 106.443 266.725 103.278 267.3Z" fill="black"/>
<path d="M331.586 267.492C330.776 268.579 331.954 270.752 333.278 270.561C334.971 270.305 334.971 267.236 333.278 266.98C332.616 266.852 331.88 267.108 331.586 267.492Z" fill="black"/>
<path d="M181.074 268.131C181.074 268.451 181.442 268.771 181.81 268.771C182.251 268.771 182.546 268.451 182.546 268.131C182.546 267.748 182.251 267.492 181.81 267.492C181.442 267.492 181.074 267.748 181.074 268.131Z" fill="black"/>
<path d="M62.5776 268.771C62.5776 269.09 62.9456 269.41 63.3136 269.41C63.7552 269.41 64.0496 269.09 64.0496 268.771C64.0496 268.387 63.7552 268.131 63.3136 268.131C62.9456 268.131 62.5776 268.387 62.5776 268.771Z" fill="black"/>
<path d="M216.402 268.771C216.402 269.09 216.77 269.41 217.138 269.41C217.579 269.41 217.874 269.09 217.874 268.771C217.874 268.387 217.579 268.131 217.138 268.131C216.77 268.131 216.402 268.387 216.402 268.771Z" fill="black"/>
<path d="M289.634 268.771C289.413 269.09 289.707 269.41 290.37 269.41C291.032 269.41 291.326 269.09 291.106 268.771C290.885 268.387 290.517 268.131 290.37 268.131C290.222 268.131 289.854 268.387 289.634 268.771Z" fill="black"/>
<path d="M176.142 271.008C175.922 271.584 176.216 272.479 176.805 273.118C177.467 273.694 177.762 274.589 177.614 275.036C176.658 277.21 181.442 278.68 183.208 276.826C184.238 275.739 183.576 274.269 180.779 271.648C178.866 269.857 176.805 269.538 176.142 271.008Z" fill="black"/>
<path d="M89.2208 275.931C87.9696 277.018 88.1168 278.617 89.736 279.895C90.84 280.79 91.4288 280.854 93.048 280.215C94.9616 279.448 95.4032 278.169 94.52 276.187C94.0048 274.972 90.472 274.844 89.2208 275.931Z" fill="black"/>
<path d="M300.085 275.548C299.054 276.507 299.643 277.721 301.115 277.721C302.146 277.721 302.514 277.402 302.366 276.635C302.146 275.484 300.894 274.908 300.085 275.548Z" fill="black"/>
<path d="M287.941 283.22C285.806 284.499 285.806 287.376 288.014 289.614C289.634 291.212 289.928 291.276 292.357 290.573C296.11 289.486 297.067 286.737 294.638 284.243C292.798 282.453 289.854 282.005 287.941 283.22Z" fill="black"/>
<path d="M175.186 287.248C175.186 288.91 176.437 289.55 177.762 288.591C179.086 287.632 178.35 286.033 176.584 286.033C175.701 286.033 175.186 286.481 175.186 287.248Z" fill="black"/>
</svg>
