<svg width="69" height="69" viewBox="0 0 69 69" fill="none" xmlns="http://www.w3.org/2000/svg">
<path d="M30.7463 0.165603C30.4703 0.386403 30.5669 1.2972 30.8567 1.1868C30.9533 1.1454 31.2569 1.0764 31.5191 1.0212C32.1539 0.910803 32.2229 0.772803 31.9193 0.345003C31.6433 -0.0275966 31.1051 -0.110397 30.7463 0.165603Z" fill="black"/>
<path d="M38.1846 0.814217C37.9637 0.952217 37.5359 1.11781 37.2185 1.17301C36.7494 1.25581 36.6941 1.28342 36.915 1.38001C37.1772 1.47662 37.1633 1.49042 36.846 1.55942C36.6527 1.60081 36.1698 1.68362 35.7557 1.72501C35.0795 1.80782 34.9829 1.78021 34.7207 1.46281C34.5551 1.28342 34.2101 1.09022 33.9479 1.03501C33.5477 0.952217 33.4925 0.966011 33.6444 1.11781C34.1273 1.62842 33.4649 1.86301 32.8439 1.38001C32.5127 1.13161 32.4989 1.13161 32.2229 1.38001C32.0021 1.57321 31.5605 1.66982 30.1253 1.78021C29.1317 1.87682 28.0139 2.02862 27.6413 2.13902C26.7305 2.41502 26.7167 2.38741 27.5723 2.00101C28.0001 1.80782 28.2899 1.58701 28.2899 1.44901C28.2899 1.21442 28.1933 1.17301 27.4343 1.03501C26.9513 0.966011 26.9099 0.979813 26.9099 1.29721C26.9099 1.53181 26.7581 1.73882 26.4683 1.94582C26.2199 2.11141 25.9853 2.27702 25.9577 2.30461C25.9301 2.31841 25.9853 2.59441 26.0819 2.91181C26.2475 3.40862 26.3165 3.46381 26.6477 3.42242C26.8685 3.38101 26.9927 3.42242 26.9513 3.49142C26.7995 3.75362 25.9301 4.00201 25.2263 4.00201C24.5087 3.98821 24.4949 3.98821 24.9089 3.80882L25.3229 3.62942L24.8123 3.38101C24.3845 3.17401 24.2327 3.16022 23.9291 3.29822C23.5013 3.49142 23.3495 3.40862 23.5979 3.10501C23.6945 2.98081 23.7497 2.87041 23.7221 2.84281C23.6531 2.78761 20.1755 3.79501 18.4919 4.34702C16.8773 4.87141 14.8487 5.93401 13.9655 6.70681C13.2341 7.34161 13.1927 7.52101 13.7309 7.61761C13.8827 7.64521 14.0069 7.72801 14.0069 7.79701C14.0207 7.87981 14.0759 8.08681 14.1311 8.26621L14.2415 8.59741L14.4209 8.16961C14.6417 7.65901 15.0281 7.39681 16.0769 7.02421C16.9325 6.72061 17.1395 6.76201 16.7945 7.13461C16.5461 7.42441 16.0907 8.54221 15.9389 9.24601L15.8423 9.72901L16.2563 9.17701C16.4771 8.87341 17.0429 8.26621 17.5121 7.83841C18.2159 7.17601 18.3539 6.96901 18.3677 6.55501C18.3815 6.29281 18.3953 5.98921 18.4091 5.89261C18.4367 5.49241 19.3889 5.23021 19.7063 5.54762C19.8305 5.67181 19.7201 5.86501 19.2509 6.36181C18.9059 6.73441 18.6299 7.13461 18.6299 7.25881C18.6299 7.42441 18.7955 7.31401 19.1819 6.90001C19.6373 6.40321 19.7753 6.33421 20.0927 6.40321C20.5067 6.51361 20.9759 6.23761 20.6723 6.05821C20.5757 6.00301 20.5343 5.92021 20.5619 5.89261C20.8655 5.65801 22.7561 4.55402 22.8803 4.55402C23.1149 4.55402 23.2253 5.13361 23.0597 5.53381C22.9907 5.74081 22.6871 6.01682 22.3973 6.16861C22.1075 6.32041 21.3899 6.69301 20.7965 7.01041C19.9547 7.46581 19.5821 7.59001 19.0439 7.59001C18.4643 7.59001 18.3539 7.63141 18.3539 7.85221C18.3539 7.99021 18.4505 8.18341 18.5609 8.28001C18.6713 8.37661 18.7679 8.52841 18.7679 8.63881C18.7679 8.91481 18.0641 9.35641 17.3051 9.53581C16.9325 9.63241 16.1459 9.93601 15.5663 10.2396C14.8073 10.6122 14.4899 10.7088 14.4899 10.5708C14.4899 10.4742 14.6417 9.96361 14.8487 9.45301C15.0419 8.92861 15.1799 8.34901 15.1523 8.15581C15.0833 7.57621 14.7245 7.72801 14.4899 8.44561C14.3243 8.98381 14.2415 9.08041 14.0069 9.02521C13.8551 8.98381 13.4963 9.05281 13.2065 9.17701C12.9305 9.28741 12.6959 9.34261 12.6959 9.28741C12.6959 9.23221 12.9305 8.94241 13.2065 8.63881L13.7309 8.10061L12.9029 8.68021C12.4475 9.01141 11.5229 9.64621 10.8329 10.1154C9.63235 10.9296 8.00395 12.4062 8.00395 12.6546C8.00395 12.7236 8.18335 12.765 8.41795 12.7236C9.02515 12.6408 8.95615 12.9306 8.07295 14.007C7.65895 14.5038 7.31395 14.9592 7.31395 14.9868C7.31395 15.111 7.46575 15.0282 7.92115 14.628C8.19715 14.3796 8.43175 14.2692 8.48695 14.3382C8.52835 14.421 7.83835 15.2076 6.95515 16.077C5.36815 17.664 5.35435 17.6916 5.45095 18.1884C5.56135 18.768 5.79595 19.113 5.79595 18.6852C5.79595 17.8848 6.40315 16.56 6.77575 16.56C6.98275 16.56 6.91375 17.0016 6.40315 18.9888C6.12715 20.0514 5.86495 21.4038 5.80975 22.011L5.72695 23.115L5.21635 22.287C4.92655 21.8316 4.69195 21.5556 4.69195 21.6798C4.69195 21.804 4.34695 22.3284 3.93295 22.839C3.51895 23.3358 3.17395 23.7774 3.17395 23.805C3.17395 23.8188 3.07735 24.0672 2.96695 24.3432C2.85655 24.6192 2.78755 24.84 2.81515 24.84C2.84275 24.84 3.07735 24.5226 3.32575 24.1224L3.78115 23.4186L3.96055 23.8188C4.20895 24.3984 4.18135 24.8676 3.79495 26.91C3.44995 28.773 3.38095 29.9322 3.58795 30.429C3.69835 30.6774 3.71215 30.6774 3.71215 30.3462C3.72595 29.9046 4.04335 29.463 4.25035 29.5872C4.45735 29.7114 4.45735 30.5532 4.26415 31.4502C4.05715 32.43 3.80875 32.5404 3.89155 31.602L3.96055 30.8844L3.50515 30.9534C2.95315 31.05 2.95315 31.0362 2.81515 29.187C2.77375 28.428 2.67715 27.669 2.60815 27.4896C2.42875 27.0204 2.09755 27.117 1.98715 27.669C1.86295 28.3728 2.01475 29.2422 2.62195 31.119C3.21535 32.9682 3.40855 33.81 3.21535 33.81C3.14635 33.81 2.89795 33.5478 2.64955 33.2304C2.18035 32.6232 2.11135 32.6646 2.35975 33.3684C2.44255 33.603 2.58055 33.7824 2.66335 33.7686C2.77375 33.7548 2.82895 34.0998 2.82895 34.9554C2.82895 35.6178 2.80135 36.156 2.75995 36.156C2.71855 36.156 2.48395 36.0318 2.24935 35.88L1.79395 35.604L1.80775 35.9904C1.82155 36.7632 2.00095 37.605 2.13895 37.5636C2.30455 37.5084 3.04975 40.4202 3.47755 42.8076C3.65695 43.7598 3.83635 44.4912 3.87775 44.4084C3.98815 44.229 4.34695 44.8776 4.48495 45.5262C4.65055 46.2714 4.81615 45.747 4.74715 44.712L4.69195 43.815L4.89895 44.574C5.02315 44.988 5.17495 45.9954 5.24395 46.8096C5.31295 47.6376 5.45095 48.5898 5.53375 48.9486L5.69935 49.5834L5.94775 49.2798L6.19615 48.9762L6.38935 49.4454C6.81715 50.4666 6.83095 50.5494 6.45835 50.4804L6.11335 50.4114L6.43075 50.8944C6.61015 51.1566 6.76195 51.5154 6.76195 51.681C6.76195 51.957 7.27255 52.578 7.49335 52.578C7.54855 52.578 7.56235 52.4124 7.50715 52.2054C7.46575 51.9846 7.71415 52.3296 8.05915 52.9506C8.40415 53.5854 8.69395 54.234 8.69395 54.4134C8.69395 55.062 9.30115 55.9452 10.3499 56.787C10.9157 57.2562 11.4539 57.7668 11.5367 57.9324C11.6885 58.236 13.6757 60.1266 15.0971 61.2996C16.1321 62.169 17.9951 63.411 19.3613 64.17C19.9961 64.515 20.3825 64.8048 20.2859 64.86C20.1341 64.9566 24.2603 67.3164 25.7093 67.9512C27.2825 68.6412 28.6625 69 29.7527 69C30.3047 69 30.7739 68.9586 30.7739 68.9172C30.7739 68.8758 30.7049 68.724 30.6359 68.5722C30.5393 68.3928 30.5393 68.31 30.6359 68.31C30.7049 68.31 30.7739 68.1996 30.7739 68.0616C30.7739 67.8408 30.9947 67.827 33.5616 67.827C36.57 67.827 38.1569 67.6338 40.7375 66.999C41.5103 66.8058 42.159 66.654 42.1727 66.654C42.2004 66.654 42.228 66.9438 42.228 67.3164C42.228 68.1168 42.5177 68.586 43.0145 68.586H43.3734L42.9869 68.2272C42.6696 67.9374 42.6143 67.7994 42.6833 67.3854C42.7799 66.8334 43.0835 66.447 43.6356 66.1572C43.9944 65.964 44.0219 65.9778 44.0219 66.2262C44.0219 66.7644 44.4221 66.792 46.4508 66.4332C47.4995 66.2538 48.5345 66.0606 48.7554 66.0192C49.0866 65.9364 49.128 65.964 49.128 66.2952C49.128 66.7092 49.1556 66.723 50.0387 66.447C50.4114 66.3366 50.7288 66.24 50.7564 66.24C50.7702 66.24 50.784 66.4608 50.784 66.723C50.784 67.0266 50.7012 67.2474 50.5494 67.3302C50.4114 67.413 50.3562 67.482 50.4114 67.482C50.6046 67.482 51.3636 66.9024 51.2808 66.8334C51.2394 66.792 51.336 66.5712 51.4878 66.3642L51.7638 65.964H51.1566C50.8116 65.964 50.3562 65.9226 50.1216 65.8812C49.749 65.8122 49.7076 65.757 49.818 65.5362C49.9008 65.3982 49.956 65.0808 49.956 64.8324V64.3632L51.0048 64.4598L52.0536 64.5702L52.4676 64.101C52.6884 63.8388 53.3507 63.3696 53.9304 63.0384C54.51 62.721 55.2138 62.238 55.4622 61.9758C55.7244 61.6998 55.89 61.5756 55.821 61.686C55.752 61.8102 55.821 61.7964 56.0004 61.6308C56.3454 61.341 56.4282 61.134 56.097 61.41C55.9452 61.5342 55.89 61.5342 55.89 61.4238C55.89 61.341 55.9866 61.2306 56.097 61.1892C56.2074 61.134 56.304 60.996 56.304 60.858C56.304 60.7338 56.4834 60.375 56.718 60.0576L57.1182 59.4918L56.3868 59.754C55.7382 59.9748 54.027 60.306 53.5302 60.306C53.4336 60.306 53.5578 60.0852 53.82 59.823C54.1788 59.4504 54.3306 59.3814 54.5238 59.4918C54.7308 59.6022 54.855 59.5194 55.2138 59.0364C55.4484 58.7052 55.7658 58.1946 55.9176 57.891C56.2074 57.3252 57.5598 55.4346 57.9462 55.062C58.0704 54.9378 58.5672 54.3582 59.064 53.751C59.5608 53.1438 60.3888 52.1502 60.9132 51.543C62.1414 50.1078 63.687 47.7618 64.584 45.9816C65.1498 44.8362 65.343 44.5602 65.55 44.6154C65.7708 44.6706 65.7984 44.5602 65.8536 43.7322C65.8812 43.2216 65.9501 42.7524 65.9916 42.711C66.0468 42.6558 66.2262 42.711 66.4056 42.8352C67.0266 43.2768 67.1094 43.1526 66.999 41.9796C66.861 40.4892 66.8748 39.537 67.0542 39.2334C67.137 39.0954 67.206 39.054 67.206 39.1506C67.206 39.3576 67.7166 39.6474 67.896 39.537C67.9788 39.4818 67.8822 39.1644 67.689 38.7642C67.3992 38.2122 67.3716 38.088 67.551 38.088C67.6752 38.088 67.8822 37.8258 68.034 37.4808C68.172 37.1496 68.3514 36.8598 68.4342 36.8322C68.517 36.7908 68.4204 36.156 68.172 35.0658C67.6752 33.0234 67.6614 32.7612 68.0478 32.6646C68.31 32.5956 68.3238 32.6232 68.241 33.0786C68.1858 33.4236 68.2134 33.603 68.3376 33.6858C68.9172 34.0584 69.0138 33.5892 68.586 32.3472C68.4204 31.9056 68.2962 31.2432 68.2962 30.8982C68.2824 30.291 68.2686 30.2634 67.9374 30.3324L67.5786 30.4014L67.62 28.5522C67.689 25.737 67.689 25.7232 67.2198 25.4472C66.8748 25.254 66.7368 24.9642 66.3228 23.6532C65.7156 21.7764 64.7082 19.4994 63.8388 18.0366C63.4938 17.4432 63.204 16.8636 63.204 16.767C63.204 16.6704 62.9418 16.284 62.6106 15.9252C62.2932 15.5526 61.6584 14.7798 61.203 14.214C60.0852 12.8064 58.0014 10.7502 56.5662 9.63241C55.4898 8.79061 52.7712 6.98281 52.3986 6.85861C52.3158 6.83101 52.4676 6.54121 52.7712 6.16861C53.3507 5.46481 53.3784 5.05082 52.8815 4.71961C52.5642 4.51261 52.5642 4.51261 52.7298 4.87141C52.8678 5.17501 52.854 5.29921 52.6608 5.57521C52.3296 6.08581 51.9294 6.25142 51.2946 6.15481C50.9771 6.09961 50.6598 6.00301 50.577 5.94781C50.5079 5.87881 50.2043 5.75461 49.9146 5.65801C49.4316 5.50621 49.4039 5.47861 49.5972 5.25781C49.7214 5.11981 49.818 4.94041 49.818 4.85761C49.818 4.52641 48.9486 3.73981 47.7204 2.92561C46.3265 2.01482 45.9126 1.94582 45.4296 2.55302L45.1812 2.85661L44.5187 2.08382C43.8563 1.32481 43.8288 1.31101 43.0698 1.29721C42.6419 1.29721 41.8968 1.15922 41.4 1.00742C40.9031 0.855614 40.0751 0.690018 39.5369 0.634811C38.7365 0.579613 38.5019 0.607216 38.1846 0.814217ZM38.8745 0.772812C38.8331 0.814217 38.709 0.828018 38.6124 0.786613C38.5019 0.745216 38.5434 0.703812 38.6951 0.703812C38.847 0.690018 38.9297 0.731415 38.8745 0.772812ZM48.6864 4.94041C48.8796 5.23021 48.8796 5.24401 48.4518 5.09221C48.024 4.94041 47.9412 4.83002 48.1206 4.63681C48.2586 4.49882 48.4655 4.60921 48.6864 4.94041ZM11.8403 10.2396C11.7299 10.419 11.3711 11.0262 11.0399 11.592C10.7087 12.1578 10.4189 12.6408 10.4051 12.6684C10.3913 12.696 10.2257 12.6408 10.0601 12.5442L9.74275 12.3786L10.1153 12.0888C10.3223 11.9232 10.4879 11.73 10.4879 11.661C10.4879 11.5092 11.8403 9.93601 11.9645 9.93601C12.0059 9.93601 11.9507 10.074 11.8403 10.2396ZM9.65995 18.3126C9.50815 18.5472 9.50815 18.5472 9.57715 18.3126C9.61855 18.1746 9.65995 17.9814 9.67375 17.8986C9.67375 17.7744 9.70135 17.7744 9.74275 17.8986C9.78415 17.9952 9.74275 18.1746 9.65995 18.3126ZM11.4539 19.1682C11.4539 19.2372 11.3573 19.3614 11.2469 19.458C11.0813 19.596 11.0399 19.596 11.0399 19.4304C11.0399 19.32 11.0813 19.182 11.1365 19.1406C11.2607 19.0026 11.4539 19.0164 11.4539 19.1682ZM9.79795 19.5132C9.79795 19.5408 9.83935 19.665 9.88075 19.7754C9.92215 19.8996 9.74275 20.1342 9.41155 20.3964L8.88715 20.8242L9.09415 20.1342C9.24595 19.6512 9.37015 19.458 9.54955 19.458C9.68755 19.458 9.79795 19.4856 9.79795 19.5132ZM10.4465 20.0928C10.3637 20.3826 9.83935 21.2934 9.28735 22.1076C8.73535 22.9356 8.01775 24.1086 7.70035 24.7296L7.10695 25.875L7.06555 23.9154C7.03795 22.0662 7.05175 21.9282 7.34155 21.597C7.50715 21.4038 7.71415 21.252 7.82455 21.252C7.92115 21.252 8.10055 21.1002 8.22475 20.907C8.47315 20.5206 8.69395 20.562 8.69395 20.9898C8.69395 21.6108 9.75655 20.8932 10.2395 19.9686C10.5707 19.3062 10.6673 19.3614 10.4465 20.0928ZM67.482 27.1032C67.482 27.7104 67.2474 27.3654 67.1508 26.634C67.068 26.0406 67.068 26.0268 67.2612 26.358C67.3854 26.5512 67.4682 26.8824 67.482 27.1032ZM6.29275 26.8962C6.40315 26.7996 6.52735 26.772 6.58255 26.8134C6.72055 26.9514 6.05815 28.428 5.85115 28.428C5.46475 28.428 5.16115 27.2688 5.39575 26.6616L5.53375 26.289L5.82355 26.6754C6.04435 26.979 6.14095 27.0204 6.29275 26.8962ZM46.506 65.205C46.506 65.343 46.368 65.412 46.0644 65.412L45.609 65.3982L45.9539 65.205C46.3955 64.9566 46.506 64.9566 46.506 65.205ZM45.2915 66.1986C45.4847 66.447 45.0569 66.585 44.6016 66.4332C44.0772 66.2538 44.0772 65.9916 44.6016 65.7708C45.0156 65.5914 45.0569 65.5914 45.1122 65.7984C45.1398 65.9226 45.2225 66.1158 45.2915 66.1986ZM30.2909 67.7718C30.4841 67.965 29.7941 67.9098 29.3249 67.7028C28.9109 67.5096 28.9247 67.5096 29.5319 67.5786C29.8769 67.62 30.2081 67.7028 30.2909 67.7718Z" fill="black"/>
<path d="M35.2314 1.20061C35.4384 1.22821 35.7696 1.22821 35.9904 1.20061C36.1974 1.17301 36.018 1.14541 35.604 1.14541C35.19 1.14541 35.0106 1.17301 35.2314 1.20061Z" fill="black"/>
<path d="M50.2044 4.88526C50.37 5.10606 50.508 5.39586 50.508 5.54766C50.508 5.69946 50.577 5.76846 50.646 5.72706C50.922 5.56146 50.7702 5.11986 50.3424 4.80246L49.887 4.48506L50.2044 4.88526Z" fill="black"/>
<path d="M4.58163 18.5334C4.26423 18.8784 4.19523 19.251 4.41603 19.389C4.49883 19.4304 4.55403 19.6098 4.55403 19.7754C4.56783 20.079 4.56783 20.079 4.77483 19.803C4.95423 19.5546 4.95423 19.527 4.77483 19.4856C4.49883 19.4304 4.49883 19.4304 4.76103 18.8094C5.02323 18.2022 4.96803 18.1194 4.58163 18.5334Z" fill="black"/>
<path d="M2.27702 20.4792C2.09762 20.9484 2.08382 21.1416 2.19422 21.3762C2.48402 21.8868 2.62202 21.6798 2.62202 20.769C2.62202 20.2722 2.59442 19.872 2.56682 19.872C2.53922 19.872 2.40122 20.148 2.27702 20.4792Z" fill="black"/>
<path d="M1.61458 22.77C1.39378 23.1564 1.17298 23.46 1.11778 23.46C0.979782 23.46 0.607182 23.0322 0.524382 22.77C0.482982 22.6596 0.427782 22.7976 0.400182 23.0736C0.358782 23.3496 0.386382 23.5428 0.441582 23.5152C0.496782 23.4738 0.551982 23.667 0.551982 23.9292C0.551982 24.2052 0.620982 24.426 0.689982 24.426C0.772782 24.426 0.827982 24.3708 0.827982 24.3018C0.827982 24.219 1.20058 23.874 1.65598 23.529C2.47018 22.8942 2.64958 22.5768 2.31838 22.2456C2.06998 21.9972 2.02858 22.0248 1.61458 22.77Z" fill="black"/>
<path d="M0.689941 25.254C0.689941 25.3368 0.786541 25.392 0.896941 25.392C1.15914 25.392 1.15914 25.3092 0.896941 25.1988C0.786541 25.1574 0.689941 25.185 0.689941 25.254Z" fill="black"/>
<path d="M66.8196 43.539C66.6678 43.884 66.585 45.6642 66.723 45.5124C66.8058 45.4296 67.0956 43.3182 67.0266 43.2492C66.999 43.2216 66.9024 43.3458 66.8196 43.539Z" fill="black"/>
<path d="M63.8802 48.4656C63.756 48.9348 63.618 49.4316 63.5628 49.5558C63.411 49.887 64.0734 49.7352 64.4184 49.3488C64.9014 48.8382 64.9152 48.507 64.4874 48.024L64.0872 47.5824L63.8802 48.4656Z" fill="black"/>
<path d="M63.066 50.2458C62.9694 50.3976 62.928 50.5632 62.9694 50.5908C62.997 50.6184 63.0936 50.4942 63.1764 50.301C63.3696 49.887 63.273 49.8456 63.066 50.2458Z" fill="black"/>
<path d="M62.5278 51.6396C62.2242 52.5504 62.2656 52.5504 62.8452 51.681L63.204 51.129V51.681C63.1902 51.9846 63.1074 52.3848 62.997 52.578C62.5002 53.4474 62.9142 53.8338 63.6732 53.2266C64.0182 52.9368 64.0458 52.8678 63.9078 52.5918C63.7974 52.4124 63.7698 52.0674 63.8388 51.681C63.9216 51.1014 63.9078 51.06 63.549 50.922C62.928 50.6874 62.8314 50.7564 62.5278 51.6396Z" fill="black"/>
<path d="M59.9058 54.7308C59.9058 54.8964 59.547 55.407 59.133 55.8762C58.4016 56.6904 58.2084 57.1596 58.512 57.339C58.7604 57.4908 58.6638 57.6564 58.2774 57.753L57.891 57.8634L58.2912 57.9738C58.5672 58.0566 58.7742 58.0152 59.0226 57.8634L59.3676 57.6288L59.0502 57.408C58.5672 57.0354 58.788 56.718 59.547 56.718H60.168L60.1542 56.1246C60.1542 55.476 59.9334 54.2754 59.9058 54.7308Z" fill="black"/>
<path d="M61.4789 54.7998C61.4237 54.8826 61.4099 54.9654 61.4513 55.0068C61.4789 55.0482 61.5479 54.9792 61.5893 54.855C61.6859 54.6204 61.6031 54.579 61.4789 54.7998Z" fill="black"/>
<path d="M60.927 55.9866C60.72 56.3178 60.582 56.6214 60.6096 56.649C60.6234 56.6628 60.8442 56.7318 61.0788 56.7732C61.4514 56.856 61.5618 56.8146 61.8102 56.4972C62.1966 56.0142 62.1828 55.8624 61.686 55.5864L61.2858 55.3656L60.927 55.9866Z" fill="black"/>
<path d="M57.9461 58.7466L57.4769 59.2434L57.9185 58.9398C58.3877 58.6224 58.5809 58.4016 58.4843 58.2912C58.4567 58.2636 58.2083 58.4706 57.9461 58.7466Z" fill="black"/>
<path d="M52.095 65.688C52.0536 65.757 52.0812 65.826 52.1502 65.826C52.233 65.826 52.302 65.757 52.302 65.688C52.302 65.6052 52.2744 65.55 52.2468 65.55C52.2054 65.55 52.1364 65.6052 52.095 65.688Z" fill="black"/>
<path d="M47.6789 67.2198C47.0993 67.8132 47.0441 67.9098 47.3339 67.827C47.9273 67.6614 48.5069 67.275 48.5483 67.0128C48.6587 66.4608 48.3275 66.5436 47.6789 67.2198Z" fill="black"/>
<path d="M44.9189 67.068L44.3669 67.3164L44.8913 67.3302C45.2363 67.344 45.4433 67.275 45.4985 67.137C45.6227 66.8058 45.5123 66.792 44.9189 67.068Z" fill="black"/>
<path d="M36.639 68.034C35.2728 68.172 33.5064 68.2962 32.706 68.31L31.257 68.3376L32.637 68.5998C33.4236 68.7654 34.9278 68.9034 36.156 68.9586L38.295 69.0276L37.95 68.7516L37.605 68.4756L37.95 68.3238C38.1432 68.2548 38.7918 68.1444 39.399 68.0892C40.2132 68.0202 40.4064 67.965 40.158 67.8822C39.675 67.7442 39.4542 67.758 36.639 68.034Z" fill="black"/>
</svg>
