<svg width="70" height="70" viewBox="0 0 70 70" fill="none" xmlns="http://www.w3.org/2000/svg">
<g clip-path="url(#clip0_625_1199)">
<path d="M31.192 0.168491C30.912 0.392491 31.01 1.31649 31.304 1.20449C31.402 1.16249 31.71 1.09249 31.976 1.03649C32.62 0.924491 32.69 0.784491 32.382 0.350491C32.102 -0.0275085 31.556 -0.111509 31.192 0.168491Z" fill="black"/>
<path d="M38.738 0.825981C38.514 0.965981 38.08 1.13399 37.758 1.18999C37.282 1.27399 37.226 1.30199 37.45 1.39999C37.716 1.49799 37.702 1.51199 37.38 1.58199C37.184 1.62399 36.694 1.70798 36.274 1.74998C35.588 1.83398 35.49 1.80598 35.224 1.48399C35.056 1.30199 34.706 1.10599 34.44 1.04999C34.034 0.965981 33.978 0.97998 34.132 1.13399C34.622 1.65199 33.95 1.88998 33.32 1.39999C32.984 1.14799 32.97 1.14799 32.69 1.39999C32.466 1.59599 32.018 1.69398 30.562 1.80598C29.554 1.90398 28.42 2.05798 28.042 2.16998C27.118 2.44998 27.104 2.42198 27.972 2.02998C28.406 1.83398 28.7 1.60999 28.7 1.46999C28.7 1.23199 28.602 1.18999 27.832 1.04999C27.342 0.97998 27.3 0.99398 27.3 1.31599C27.3 1.55399 27.146 1.76398 26.852 1.97398C26.6 2.14198 26.362 2.30998 26.334 2.33798C26.306 2.35198 26.362 2.63198 26.46 2.95399C26.628 3.45798 26.698 3.51398 27.034 3.47198C27.258 3.42999 27.384 3.47198 27.342 3.54198C27.188 3.80798 26.306 4.05998 25.592 4.05998C24.864 4.04598 24.85 4.04598 25.27 3.86398L25.69 3.68198L25.172 3.42999C24.738 3.21999 24.584 3.20599 24.276 3.34599C23.842 3.54198 23.688 3.45798 23.94 3.14999C24.038 3.02399 24.094 2.91199 24.066 2.88399C23.996 2.82799 20.468 3.84998 18.76 4.40999C17.122 4.94199 15.064 6.01999 14.168 6.80399C13.426 7.44799 13.384 7.62999 13.93 7.72799C14.084 7.75599 14.21 7.83998 14.21 7.90998C14.224 7.99398 14.28 8.20399 14.336 8.38599L14.448 8.72198L14.63 8.28799C14.854 7.76999 15.246 7.50399 16.31 7.12598C17.178 6.81799 17.388 6.85999 17.038 7.23798C16.786 7.53199 16.324 8.66599 16.17 9.37999L16.072 9.86999L16.492 9.30999C16.716 9.00199 17.29 8.38599 17.766 7.95198C18.48 7.27999 18.62 7.06998 18.634 6.64999C18.648 6.38398 18.662 6.07598 18.676 5.97798C18.704 5.57198 19.67 5.30598 19.992 5.62798C20.118 5.75398 20.006 5.94998 19.53 6.45399C19.18 6.83199 18.9 7.23798 18.9 7.36399C18.9 7.53199 19.068 7.41999 19.46 6.99998C19.922 6.49599 20.062 6.42599 20.384 6.49599C20.804 6.60799 21.28 6.32798 20.972 6.14598C20.874 6.08998 20.832 6.00599 20.86 5.97798C21.168 5.73998 23.086 4.61999 23.212 4.61999C23.45 4.61999 23.562 5.20798 23.394 5.61398C23.324 5.82398 23.016 6.10398 22.722 6.25798C22.428 6.41198 21.7 6.78999 21.098 7.11198C20.244 7.57399 19.866 7.69999 19.32 7.69999C18.732 7.69999 18.62 7.74199 18.62 7.96598C18.62 8.10599 18.718 8.30199 18.83 8.39999C18.942 8.49799 19.04 8.65199 19.04 8.76398C19.04 9.04399 18.326 9.49199 17.556 9.67398C17.178 9.77199 16.38 10.08 15.792 10.388C15.022 10.766 14.7 10.864 14.7 10.724C14.7 10.626 14.854 10.108 15.064 9.58998C15.26 9.05799 15.4 8.46999 15.372 8.27399C15.302 7.68599 14.938 7.83998 14.7 8.56799C14.532 9.11399 14.448 9.21199 14.21 9.15599C14.056 9.11399 13.692 9.18399 13.398 9.30999C13.118 9.42199 12.88 9.47799 12.88 9.42199C12.88 9.36599 13.118 9.07199 13.398 8.76398L13.93 8.21799L13.09 8.80598C12.628 9.14199 11.69 9.78599 10.99 10.262C9.772 11.088 8.12 12.586 8.12 12.838C8.12 12.908 8.302 12.95 8.54 12.908C9.156 12.824 9.086 13.118 8.19 14.21C7.77 14.714 7.42 15.176 7.42 15.204C7.42 15.33 7.574 15.246 8.036 14.84C8.316 14.588 8.554 14.476 8.61 14.546C8.652 14.63 7.952 15.428 7.056 16.31C5.446 17.92 5.432 17.948 5.53 18.452C5.642 19.04 5.88 19.39 5.88 18.956C5.88 18.144 6.496 16.8 6.874 16.8C7.084 16.8 7.014 17.248 6.496 19.264C6.216 20.342 5.95 21.714 5.894 22.33L5.81 23.45L5.292 22.61C4.998 22.148 4.76 21.868 4.76 21.994C4.76 22.12 4.41 22.652 3.99 23.17C3.57 23.674 3.22 24.122 3.22 24.15C3.22 24.164 3.122 24.416 3.01 24.696C2.898 24.976 2.828 25.2 2.856 25.2C2.884 25.2 3.122 24.878 3.374 24.472L3.836 23.758L4.018 24.164C4.27 24.752 4.242 25.228 3.85 27.3C3.5 29.19 3.43 30.366 3.64 30.87C3.752 31.122 3.766 31.122 3.766 30.786C3.78 30.338 4.102 29.89 4.312 30.016C4.522 30.142 4.522 30.996 4.326 31.906C4.116 32.9 3.864 33.012 3.948 32.06L4.018 31.332L3.556 31.402C2.996 31.5 2.996 31.486 2.856 29.61C2.814 28.84 2.716 28.07 2.646 27.888C2.464 27.412 2.128 27.51 2.016 28.07C1.89 28.784 2.044 29.666 2.66 31.57C3.262 33.446 3.458 34.3 3.262 34.3C3.192 34.3 2.94 34.034 2.688 33.712C2.212 33.096 2.142 33.138 2.394 33.852C2.478 34.09 2.618 34.272 2.702 34.258C2.814 34.244 2.87 34.594 2.87 35.462C2.87 36.134 2.842 36.68 2.8 36.68C2.758 36.68 2.52 36.554 2.282 36.4L1.82 36.12L1.834 36.512C1.848 37.296 2.03 38.15 2.17 38.108C2.338 38.052 3.094 41.006 3.528 43.428C3.71 44.394 3.892 45.136 3.934 45.052C4.046 44.87 4.41 45.528 4.55 46.186C4.718 46.942 4.886 46.41 4.816 45.36L4.76 44.45L4.97 45.22C5.096 45.64 5.25 46.662 5.32 47.488C5.39 48.328 5.53 49.294 5.614 49.658L5.782 50.302L6.034 49.994L6.286 49.686L6.482 50.162C6.916 51.198 6.93 51.282 6.552 51.212L6.202 51.142L6.524 51.632C6.706 51.898 6.86 52.262 6.86 52.43C6.86 52.71 7.378 53.34 7.602 53.34C7.658 53.34 7.672 53.172 7.616 52.962C7.574 52.738 7.826 53.088 8.176 53.718C8.526 54.362 8.82 55.02 8.82 55.202C8.82 55.86 9.436 56.756 10.5 57.61C11.074 58.086 11.62 58.604 11.704 58.772C11.858 59.08 13.874 60.998 15.316 62.188C16.366 63.07 18.256 64.33 19.642 65.1C20.286 65.45 20.678 65.744 20.58 65.8C20.426 65.898 24.612 68.292 26.082 68.936C27.678 69.636 29.078 70 30.184 70C30.744 70 31.22 69.958 31.22 69.916C31.22 69.874 31.15 69.72 31.08 69.566C30.982 69.384 30.982 69.3 31.08 69.3C31.15 69.3 31.22 69.188 31.22 69.048C31.22 68.824 31.444 68.81 34.048 68.81C37.1 68.81 38.71 68.614 41.328 67.97C42.112 67.774 42.77 67.62 42.784 67.62C42.812 67.62 42.84 67.914 42.84 68.292C42.84 69.104 43.134 69.58 43.638 69.58H44.002L43.61 69.216C43.288 68.922 43.232 68.782 43.302 68.362C43.4 67.802 43.708 67.41 44.268 67.116C44.632 66.92 44.66 66.934 44.66 67.186C44.66 67.732 45.066 67.76 47.124 67.396C48.188 67.214 49.238 67.018 49.462 66.976C49.798 66.892 49.84 66.92 49.84 67.256C49.84 67.676 49.868 67.69 50.764 67.41C51.142 67.298 51.464 67.2 51.492 67.2C51.506 67.2 51.52 67.424 51.52 67.69C51.52 67.998 51.436 68.222 51.282 68.306C51.142 68.39 51.086 68.46 51.142 68.46C51.338 68.46 52.108 67.872 52.024 67.802C51.982 67.76 52.08 67.536 52.234 67.326L52.514 66.92H51.898C51.548 66.92 51.086 66.878 50.848 66.836C50.47 66.766 50.428 66.71 50.54 66.486C50.624 66.346 50.68 66.024 50.68 65.772V65.296L51.744 65.394L52.808 65.506L53.228 65.03C53.452 64.764 54.124 64.288 54.712 63.952C55.3 63.63 56.014 63.14 56.266 62.874C56.532 62.594 56.7 62.468 56.63 62.58C56.56 62.706 56.63 62.692 56.812 62.524C57.162 62.23 57.246 62.02 56.91 62.3C56.756 62.426 56.7 62.426 56.7 62.314C56.7 62.23 56.798 62.118 56.91 62.076C57.022 62.02 57.12 61.88 57.12 61.74C57.12 61.614 57.302 61.25 57.54 60.928L57.946 60.354L57.204 60.62C56.546 60.844 54.81 61.18 54.306 61.18C54.208 61.18 54.334 60.956 54.6 60.69C54.964 60.312 55.118 60.242 55.314 60.354C55.524 60.466 55.65 60.382 56.014 59.892C56.252 59.556 56.574 59.038 56.728 58.73C57.022 58.156 58.394 56.238 58.786 55.86C58.912 55.734 59.416 55.146 59.92 54.53C60.424 53.914 61.264 52.906 61.796 52.29C63.042 50.834 64.61 48.454 65.52 46.648C66.094 45.486 66.29 45.206 66.5 45.262C66.724 45.318 66.752 45.206 66.808 44.366C66.836 43.848 66.906 43.372 66.948 43.33C67.004 43.274 67.186 43.33 67.368 43.456C67.998 43.904 68.082 43.778 67.97 42.588C67.83 41.076 67.844 40.11 68.026 39.802C68.11 39.662 68.18 39.62 68.18 39.718C68.18 39.928 68.698 40.222 68.88 40.11C68.964 40.054 68.866 39.732 68.67 39.326C68.376 38.766 68.348 38.64 68.53 38.64C68.656 38.64 68.866 38.374 69.02 38.024C69.16 37.688 69.342 37.394 69.426 37.366C69.51 37.324 69.412 36.68 69.16 35.574C68.656 33.502 68.642 33.236 69.034 33.138C69.3 33.068 69.314 33.096 69.23 33.558C69.174 33.908 69.202 34.09 69.328 34.174C69.916 34.552 70.014 34.076 69.58 32.816C69.412 32.368 69.286 31.696 69.286 31.346C69.272 30.73 69.258 30.702 68.922 30.772L68.558 30.842L68.6 28.966C68.67 26.11 68.67 26.096 68.194 25.816C67.844 25.62 67.704 25.326 67.284 23.996C66.668 22.092 65.646 19.782 64.764 18.298C64.414 17.696 64.12 17.108 64.12 17.01C64.12 16.912 63.854 16.52 63.518 16.156C63.196 15.778 62.552 14.994 62.09 14.42C60.956 12.992 58.842 10.906 57.386 9.77199C56.294 8.91799 53.536 7.08398 53.158 6.95798C53.074 6.92999 53.228 6.63599 53.536 6.25798C54.124 5.54398 54.152 5.12399 53.648 4.78799C53.326 4.57799 53.326 4.57799 53.494 4.94199C53.634 5.24998 53.62 5.37598 53.424 5.65598C53.088 6.17398 52.682 6.34198 52.038 6.24398C51.716 6.18798 51.394 6.08998 51.31 6.03399C51.24 5.96398 50.932 5.83798 50.638 5.73998C50.148 5.58598 50.12 5.55798 50.316 5.33398C50.442 5.19398 50.54 5.01199 50.54 4.92799C50.54 4.59199 49.658 3.79398 48.412 2.96799C46.998 2.04398 46.578 1.97398 46.088 2.58998L45.836 2.89799L45.164 2.11398C44.492 1.34399 44.464 1.32999 43.694 1.31599C43.26 1.31599 42.504 1.17599 42 1.02199C41.496 0.867981 40.656 0.699982 40.11 0.643982C39.298 0.587982 39.06 0.615982 38.738 0.825981ZM39.438 0.783981C39.396 0.825981 39.27 0.839981 39.172 0.797981C39.06 0.755981 39.102 0.713982 39.256 0.713982C39.41 0.699982 39.494 0.741982 39.438 0.783981ZM49.392 5.01199C49.588 5.30598 49.588 5.31998 49.154 5.16599C48.72 5.01199 48.636 4.89999 48.818 4.70399C48.958 4.56399 49.168 4.67599 49.392 5.01199ZM12.012 10.388C11.9 10.57 11.536 11.186 11.2 11.76C10.864 12.334 10.57 12.824 10.556 12.852C10.542 12.88 10.374 12.824 10.206 12.726L9.884 12.558L10.262 12.264C10.472 12.096 10.64 11.9 10.64 11.83C10.64 11.676 12.012 10.08 12.138 10.08C12.18 10.08 12.124 10.22 12.012 10.388ZM9.8 18.578C9.646 18.816 9.646 18.816 9.716 18.578C9.758 18.438 9.8 18.242 9.814 18.158C9.814 18.032 9.842 18.032 9.884 18.158C9.926 18.256 9.884 18.438 9.8 18.578ZM11.62 19.446C11.62 19.516 11.522 19.642 11.41 19.74C11.242 19.88 11.2 19.88 11.2 19.712C11.2 19.6 11.242 19.46 11.298 19.418C11.424 19.278 11.62 19.292 11.62 19.446ZM9.94 19.796C9.94 19.824 9.982 19.95 10.024 20.062C10.066 20.188 9.884 20.426 9.548 20.692L9.016 21.126L9.226 20.426C9.38 19.936 9.506 19.74 9.688 19.74C9.828 19.74 9.94 19.768 9.94 19.796ZM10.598 20.384C10.514 20.678 9.982 21.602 9.422 22.428C8.862 23.268 8.134 24.458 7.812 25.088L7.21 26.25L7.168 24.262C7.14 22.386 7.154 22.246 7.448 21.91C7.616 21.714 7.826 21.56 7.938 21.56C8.036 21.56 8.218 21.406 8.344 21.21C8.596 20.818 8.82 20.86 8.82 21.294C8.82 21.924 9.898 21.196 10.388 20.258C10.724 19.586 10.822 19.642 10.598 20.384ZM68.46 27.496C68.46 28.112 68.222 27.762 68.124 27.02C68.04 26.418 68.04 26.404 68.236 26.74C68.362 26.936 68.446 27.272 68.46 27.496ZM6.384 27.286C6.496 27.188 6.622 27.16 6.678 27.202C6.818 27.342 6.146 28.84 5.936 28.84C5.544 28.84 5.236 27.664 5.474 27.048L5.614 26.67L5.908 27.062C6.132 27.37 6.23 27.412 6.384 27.286ZM47.18 66.15C47.18 66.29 47.04 66.36 46.732 66.36L46.27 66.346L46.62 66.15C47.068 65.898 47.18 65.898 47.18 66.15ZM45.948 67.158C46.144 67.41 45.71 67.55 45.248 67.396C44.716 67.214 44.716 66.948 45.248 66.724C45.668 66.542 45.71 66.542 45.766 66.752C45.794 66.878 45.878 67.074 45.948 67.158ZM30.73 68.754C30.926 68.95 30.226 68.894 29.75 68.684C29.33 68.488 29.344 68.488 29.96 68.558C30.31 68.6 30.646 68.684 30.73 68.754Z" fill="black"/>
<path d="M35.742 1.21826C35.952 1.24626 36.288 1.24626 36.512 1.21826C36.722 1.19026 36.54 1.16226 36.12 1.16226C35.7 1.16226 35.518 1.19026 35.742 1.21826Z" fill="black"/>
<path d="M50.932 4.95626C51.1 5.18026 51.24 5.47426 51.24 5.62826C51.24 5.78226 51.31 5.85226 51.38 5.81026C51.66 5.64226 51.506 5.19426 51.072 4.87226L50.61 4.55026L50.932 4.95626Z" fill="black"/>
<path d="M4.648 18.8023C4.326 19.1523 4.256 19.5303 4.48 19.6703C4.564 19.7123 4.62 19.8943 4.62 20.0623C4.634 20.3702 4.634 20.3702 4.844 20.0903C5.026 19.8383 5.026 19.8103 4.844 19.7683C4.564 19.7123 4.564 19.7123 4.83 19.0823C5.096 18.4663 5.04 18.3823 4.648 18.8023Z" fill="black"/>
<path d="M2.31 20.7768C2.128 21.2528 2.114 21.4488 2.226 21.6868C2.52 22.2048 2.66 21.9948 2.66 21.0708C2.66 20.5668 2.632 20.1608 2.604 20.1608C2.576 20.1608 2.436 20.4408 2.31 20.7768Z" fill="black"/>
<path d="M1.638 23.1003C1.414 23.4923 1.19 23.8003 1.134 23.8003C0.994003 23.8003 0.616003 23.3663 0.532003 23.1003C0.490003 22.9883 0.434003 23.1283 0.406003 23.4083C0.364003 23.6883 0.392003 23.8843 0.448003 23.8563C0.504003 23.8143 0.560003 24.0103 0.560003 24.2763C0.560003 24.5563 0.630003 24.7803 0.700003 24.7803C0.784003 24.7803 0.840003 24.7243 0.840003 24.6543C0.840003 24.5703 1.218 24.2203 1.68 23.8703C2.506 23.2263 2.688 22.9043 2.352 22.5683C2.1 22.3163 2.058 22.3443 1.638 23.1003Z" fill="black"/>
<path d="M0.700005 25.6207C0.700005 25.7047 0.798005 25.7607 0.910004 25.7607C1.176 25.7607 1.176 25.6767 0.910004 25.5647C0.798005 25.5227 0.700005 25.5507 0.700005 25.6207Z" fill="black"/>
<path d="M67.788 44.1703C67.634 44.5203 67.55 46.3263 67.69 46.1723C67.774 46.0883 68.068 43.9463 67.998 43.8763C67.97 43.8483 67.872 43.9743 67.788 44.1703Z" fill="black"/>
<path d="M64.806 49.1684C64.68 49.6444 64.54 50.1484 64.484 50.2744C64.33 50.6104 65.002 50.4564 65.352 50.0644C65.842 49.5464 65.856 49.2104 65.422 48.7204L65.016 48.2724L64.806 49.1684Z" fill="black"/>
<path d="M63.98 50.9742C63.882 51.1282 63.84 51.2962 63.882 51.3242C63.91 51.3522 64.008 51.2262 64.092 51.0302C64.288 50.6102 64.19 50.5682 63.98 50.9742Z" fill="black"/>
<path d="M63.434 52.3887C63.126 53.3127 63.168 53.3127 63.756 52.4307L64.12 51.8707V52.4307C64.106 52.7387 64.022 53.1447 63.91 53.3407C63.406 54.2227 63.826 54.6147 64.596 53.9987C64.946 53.7047 64.974 53.6347 64.834 53.3547C64.722 53.1727 64.694 52.8227 64.764 52.4307C64.848 51.8427 64.834 51.8007 64.47 51.6607C63.84 51.4227 63.742 51.4927 63.434 52.3887Z" fill="black"/>
<path d="M60.774 55.5239C60.774 55.6919 60.41 56.2099 59.99 56.6859C59.248 57.5119 59.052 57.9879 59.36 58.1699C59.612 58.3239 59.514 58.4919 59.122 58.5899L58.73 58.7019L59.136 58.8139C59.416 58.8979 59.626 58.8559 59.878 58.7019L60.228 58.4639L59.906 58.2399C59.416 57.8619 59.64 57.5399 60.41 57.5399H61.04L61.026 56.9379C61.026 56.2799 60.802 55.0619 60.774 55.5239Z" fill="black"/>
<path d="M62.37 55.5942C62.314 55.6782 62.3 55.7622 62.342 55.8042C62.37 55.8462 62.44 55.7762 62.482 55.6502C62.58 55.4122 62.496 55.3702 62.37 55.5942Z" fill="black"/>
<path d="M61.81 56.7982C61.6 57.1342 61.46 57.4422 61.488 57.4702C61.502 57.4842 61.726 57.5542 61.964 57.5962C62.342 57.6802 62.454 57.6382 62.706 57.3162C63.098 56.8262 63.084 56.6722 62.58 56.3922L62.174 56.1682L61.81 56.7982Z" fill="black"/>
<path d="M58.786 59.5985L58.31 60.1025L58.758 59.7945C59.234 59.4725 59.43 59.2485 59.332 59.1365C59.304 59.1085 59.052 59.3185 58.786 59.5985Z" fill="black"/>
<path d="M52.85 66.6403C52.808 66.7103 52.836 66.7803 52.906 66.7803C52.99 66.7803 53.06 66.7103 53.06 66.6403C53.06 66.5563 53.032 66.5003 53.004 66.5003C52.962 66.5003 52.892 66.5563 52.85 66.6403Z" fill="black"/>
<path d="M48.37 68.1939C47.782 68.7959 47.726 68.8939 48.02 68.8099C48.622 68.6419 49.21 68.2499 49.252 67.9839C49.364 67.4239 49.028 67.5079 48.37 68.1939Z" fill="black"/>
<path d="M45.57 68.0399L45.01 68.2919L45.542 68.3059C45.892 68.3199 46.102 68.2499 46.158 68.1099C46.284 67.7739 46.172 67.7599 45.57 68.0399Z" fill="black"/>
<path d="M37.17 69.0203C35.784 69.1603 33.992 69.2863 33.18 69.3003L31.71 69.3283L33.11 69.5943C33.908 69.7623 35.434 69.9023 36.68 69.9583L38.85 70.0283L38.5 69.7483L38.15 69.4683L38.5 69.3143C38.696 69.2443 39.354 69.1323 39.97 69.0763C40.796 69.0063 40.992 68.9503 40.74 68.8663C40.25 68.7263 40.026 68.7403 37.17 69.0203Z" fill="black"/>
<path d="M44.2227 10.3671C44.2227 10.3847 44.252 10.4491 44.2871 10.5136C44.334 10.6073 44.3047 10.7069 44.1172 11.0526C43.9883 11.287 43.8008 11.6737 43.7012 11.9198C43.5957 12.1659 43.4492 12.4296 43.3672 12.5058C43.2852 12.5819 43.1504 12.7694 43.0742 12.9218C42.9512 13.1679 42.8984 13.2089 42.5879 13.3202L42.2422 13.4491L42.248 13.7069C42.2598 13.9472 42.2363 13.9882 41.9844 14.2226C41.7793 14.4101 41.7148 14.5038 41.7383 14.5917C41.7617 14.6796 41.7383 14.7265 41.6504 14.7558C41.4102 14.8319 41.3984 14.9843 41.5977 15.2597L41.7793 15.5116L41.6621 15.7226C41.6035 15.8339 41.4219 16.1503 41.2637 16.4198L40.9766 16.9062L41.1055 17.0116C41.1758 17.0702 41.2344 17.164 41.2344 17.2167C41.2344 17.4101 40.8359 18.1659 40.5781 18.453L40.3145 18.7519L40.2793 19.3612C40.2617 19.6952 40.1797 20.2753 40.0977 20.6444C40.0156 21.0136 39.9336 21.4999 39.9102 21.7284C39.8867 21.9511 39.793 22.373 39.7051 22.6659C39.6113 22.953 39.4883 23.4276 39.4414 23.7089C39.3301 24.2831 39.3652 24.5409 39.6289 25.2675C39.7578 25.6366 39.7578 25.6483 39.6523 25.8007C39.5938 25.8827 39.4121 26.0761 39.248 26.2284C38.9961 26.4628 38.9316 26.498 38.7793 26.4687C38.6563 26.4452 38.5508 26.4628 38.4453 26.5331C38.2988 26.6269 38.2871 26.6269 38.082 26.4921C37.7891 26.3046 37.5723 26.2284 37.1914 26.1815C36.8105 26.1405 36.6523 26.0526 36.0723 25.578C35.3398 24.9804 35.2402 24.8573 35.2109 24.4765C35.1758 24.037 35.2988 23.7968 35.6445 23.6327C35.7852 23.5683 35.9023 23.5097 35.9023 23.498C35.9023 23.4921 35.832 23.4745 35.7441 23.4687C35.6504 23.4628 35.3984 23.4101 35.1816 23.3573C34.8008 23.2577 34.7715 23.2577 34.5078 23.3632C34.3555 23.4218 34.1387 23.5038 34.0273 23.5448C33.8398 23.6151 33.8223 23.6444 33.7871 23.9081C33.7695 24.0605 33.6934 24.3827 33.6172 24.6171C33.4883 24.998 33.4824 25.0624 33.5586 25.2323C33.5996 25.3378 33.6289 25.537 33.623 25.6835L33.6172 25.953L34.8828 27.2069C35.5742 27.8983 36.1719 28.5077 36.2012 28.5605C36.3125 28.7773 36.2129 28.8358 35.7031 28.8593C35.2754 28.8769 35.1875 28.9003 34.9766 29.0526C34.8418 29.1464 34.6484 29.287 34.5488 29.3573C34.3145 29.5273 34.0332 29.5273 33.8281 29.369C33.7402 29.3046 33.6348 29.2636 33.582 29.2812C33.5059 29.3105 33.5059 29.3339 33.582 29.4745C33.7109 29.7323 33.8867 29.8554 34.1621 29.8847L34.4141 29.914V30.2069C34.4082 30.4472 34.4316 30.5175 34.5488 30.6112C34.625 30.6698 34.7012 30.7226 34.7246 30.7226C34.748 30.7226 34.7656 30.5878 34.7656 30.4237C34.7598 30.1601 34.7832 30.1073 34.9473 29.9608C35.3398 29.6093 36.0254 29.6034 36.3828 29.9433C36.5879 30.1366 36.5938 30.2069 36.3945 30.1366C36.1836 30.0546 35.9609 30.0663 35.9609 30.1542C35.9609 30.1952 36.0664 30.3358 36.1953 30.4589C36.3242 30.5819 36.4297 30.7108 36.4297 30.7343C36.4297 30.7577 36.1426 31.1562 35.7852 31.6132C35.4336 32.0761 33.2773 34.9413 30.9922 37.9882C26.0176 44.6327 24.7988 46.244 23.375 48.0956C21.9277 49.9648 21.8691 50.0409 21.1484 50.8144C20.8027 51.1835 20.4805 51.5644 20.4277 51.664C20.3047 51.8925 19.3672 54.4882 19.0039 55.5956C18.5996 56.8261 18.0371 59.1112 18.1191 59.1874C18.2012 59.2694 19.7363 58.0741 20.873 57.0312C22.9824 55.1093 25.1504 52.5487 29.9844 46.2792C31.3262 44.5448 34.0977 40.8593 36.1953 38.0175C39.3125 33.7987 39.5586 33.4765 39.6641 33.4765C39.7813 33.4765 39.8281 33.7284 39.8457 34.4843C39.8574 34.9472 39.8457 34.9999 39.7168 35.1405C39.6406 35.2226 39.4883 35.3105 39.377 35.328C39.125 35.3749 39.1309 35.4511 39.3945 35.5624C39.8047 35.7323 40.1094 35.5155 40.291 34.9179L40.4023 34.5605L40.4434 34.8124C40.502 35.1523 40.5723 35.1698 40.6543 34.871C40.7246 34.5956 40.6895 34.1972 40.5605 33.8222C40.4434 33.4999 40.4492 33.2069 40.5664 33.1601C40.6309 33.1366 40.6836 33.1894 40.7539 33.3476C40.8301 33.5175 40.8535 33.7694 40.8652 34.5898C40.8828 36.4179 40.9238 37.3671 41 37.7714C41.0586 38.0819 41.0586 38.3339 41.0059 38.8847C40.9707 39.2773 40.9414 40.0858 40.9355 40.6835C40.9297 41.2812 40.9238 41.8671 40.918 41.9843C40.918 42.1073 40.959 42.248 41.0176 42.3124C41.1348 42.4413 41.1523 43.0624 41.0527 43.4901C41.0234 43.6308 40.9883 44.0819 40.9766 44.4862C40.9648 44.9901 40.9707 45.1542 41.0059 45.0019C41.0352 44.8788 41.0996 44.703 41.1465 44.6093C41.1934 44.5155 41.2344 44.3105 41.2402 44.1581L41.2461 43.8769L41.334 44.0819C41.3984 44.2284 41.4219 44.5507 41.4336 45.3417C41.4453 45.9218 41.4863 46.7187 41.5273 47.1112L41.6035 47.8261L41.4453 48.0722C41.2871 48.3065 41.2813 48.3417 41.3047 48.8925C41.3223 49.3378 41.3516 49.496 41.4277 49.5722C41.5449 49.6894 41.5391 49.7011 41.5273 49.121C41.5215 48.6581 41.5918 48.4355 41.7793 48.3651C41.8613 48.3358 41.9375 48.2655 41.9609 48.2128C42.0313 48.0253 41.9961 47.2694 41.873 46.455C41.7852 45.8515 41.7559 45.4003 41.7676 44.7558C41.7734 44.2694 41.7617 43.5722 41.7324 43.203C41.6973 42.6581 41.709 42.4413 41.7852 42.1073C41.8379 41.8671 41.8789 41.4218 41.8789 41.0819L41.8848 40.4784L42.0605 40.83C42.2246 41.1464 42.2363 41.2167 42.1953 41.5331C42.1426 42.0253 42.1484 42.3241 42.2246 42.4003C42.2715 42.4472 42.2891 42.4062 42.2891 42.2538C42.2891 42.1366 42.3301 41.8847 42.377 41.6913C42.459 41.3749 42.459 41.3163 42.377 41.0702C42.1426 40.3905 42.0488 38.5331 42.2012 37.7245C42.2539 37.4315 42.3184 36.7284 42.3418 36.1601C42.3652 35.4394 42.4004 35.0995 42.4531 35.0468C42.5117 34.9882 42.5352 34.9882 42.582 35.0526C42.6875 35.2226 42.6992 35.6503 42.6406 36.8749C42.5996 37.8065 42.5996 38.3222 42.6523 38.8495C42.7051 39.4003 42.7051 39.6288 42.6523 39.8632C42.5586 40.2792 42.5645 40.6015 42.6758 40.8358C42.8164 41.123 42.8809 41.1405 42.7695 40.8534C42.6875 40.6366 42.6875 40.5839 42.7813 40.1972C42.9219 39.6288 42.998 38.3808 42.9805 36.9628C42.9629 35.8319 43.0098 35.2929 43.1094 35.2929C43.1387 35.2929 43.1738 35.369 43.1973 35.4687C43.2617 35.7558 43.3262 35.7206 43.4023 35.3573C43.502 34.8886 43.543 34.8241 43.6777 34.9589C43.8066 35.0819 43.8594 35.9726 43.8945 38.5448L43.918 40.244L43.7363 40.9179C43.6426 41.287 43.5488 41.6737 43.5313 41.7792C43.4785 42.1542 43.8887 43.5077 44.0938 43.6366C44.123 43.6542 44.0938 43.5194 44.0352 43.3319C43.8125 42.6815 43.9063 41.4628 44.2578 40.4081C44.3691 40.08 44.457 39.705 44.457 39.5702C44.457 39.4355 44.3867 39.0077 44.3047 38.6151C44.1641 37.9472 44.1582 37.83 44.1934 36.8749C44.2285 35.9491 44.293 35.2519 44.375 34.994C44.3926 34.9237 44.5039 34.8886 44.7852 34.8651C45.2422 34.83 45.418 34.7187 45.623 34.3495C45.7051 34.2089 45.7871 34.0858 45.8047 34.0741C46.0156 33.9862 46.0508 33.9101 45.9863 33.664C45.9512 33.5351 45.8516 33.3476 45.7754 33.2538C45.6934 33.1542 45.6289 33.0253 45.6289 32.9667C45.6289 32.8495 45.8047 32.6269 45.9277 32.5858C46.0508 32.5448 45.9277 32.4276 45.7168 32.3866C45.418 32.3339 45.2656 32.3925 44.9902 32.6562C44.8613 32.7851 44.709 32.8905 44.6621 32.8905C44.5156 32.8905 44.0352 32.4042 43.8125 32.0292C43.7012 31.8417 43.4785 31.5136 43.3145 31.2909C43.1387 31.0624 42.957 30.7343 42.8809 30.4999C42.8047 30.2831 42.6816 30.0077 42.5996 29.8847C42.4766 29.6913 42.4707 29.6386 42.5234 29.4452C42.5527 29.328 42.582 29.1405 42.582 29.0351C42.582 28.8944 42.6406 28.7831 42.8164 28.5956C42.9922 28.414 43.0508 28.3788 43.0508 28.455C43.0508 28.6249 43.6191 29.1815 43.9004 29.287C44.1055 29.369 44.1875 29.3749 44.3984 29.3163C44.832 29.1991 45.377 28.912 45.5645 28.7011C45.793 28.4374 45.8633 28.1679 45.8633 27.5175V26.9784L46.0742 26.9198C46.4023 26.8319 46.5078 26.703 46.5078 26.4042V26.1464L46.7012 26.2929C47 26.5214 47.4277 26.5038 47.9492 26.2401C48.1719 26.1288 48.4414 25.9589 48.5469 25.8593L48.7461 25.6776L48.7227 25.1562C48.7051 24.6581 48.7344 24.5116 48.8164 24.7167C48.834 24.7694 48.9453 24.8515 49.0625 24.8983C49.4199 25.0448 49.7891 24.9159 50.2695 24.4648C50.6738 24.0898 50.7324 23.9491 50.6855 23.5155L50.6504 23.1581L50.873 23.3046C51.2598 23.5683 51.8047 23.4511 52.2676 22.9999C52.5781 22.7011 52.666 22.5077 52.7129 22.0273L52.7598 21.6112L52.8887 21.8866C53.0117 22.1562 53.0176 22.2089 52.9766 23.3222C52.877 26.1698 52.877 26.4921 52.9824 26.7851C53.041 26.9374 53.1055 27.2714 53.1289 27.5292C53.1582 27.787 53.2109 28.2792 53.252 28.619C53.3164 29.164 53.3164 29.3105 53.2285 29.7968C53.0879 30.5702 53.0938 31.0155 53.252 31.2148C53.3164 31.2968 53.3867 31.3671 53.4102 31.3671C53.4336 31.3671 53.4395 31.2089 53.4336 31.0155C53.416 30.7167 53.4395 30.6112 53.5918 30.3065C53.75 29.9901 53.7734 29.8788 53.7734 29.4862C53.7734 29.2401 53.7324 28.8241 53.6855 28.5722C53.498 27.6112 53.4688 27.1425 53.5566 26.6737C53.6211 26.3515 53.6387 25.8241 53.6328 24.5702L53.6211 22.9003L53.8086 22.5194C53.9785 22.162 53.9961 22.0917 54.0078 21.4355C54.0312 20.3749 54.0254 20.2343 53.9199 19.83C53.8262 19.4667 53.8262 19.455 53.9609 19.1386C54.0898 18.8222 54.0957 18.8222 54.1367 18.9862C54.166 19.0741 54.2129 19.6483 54.2422 20.2636C54.2715 20.873 54.3242 21.9276 54.3652 22.6073C54.4297 23.8319 54.4297 23.8437 54.2773 24.623C54.0781 25.6483 54.0781 25.9237 54.3008 26.498C54.5234 27.078 54.6875 27.2538 54.5586 26.7851C54.418 26.2753 54.4473 24.8632 54.5996 24.8632C54.623 24.8632 54.7402 24.9452 54.8574 25.0448C54.9746 25.1503 55.0859 25.2148 55.1035 25.1913C55.127 25.1737 55.0684 25.0038 54.9805 24.8163C54.8223 24.4823 54.8164 24.453 54.8398 23.6562C54.8633 22.8651 54.8691 22.8241 55.0859 22.3144C55.3027 21.8046 55.3086 21.7694 55.2734 21.3007C55.2559 21.037 55.1855 20.6796 55.1211 20.5097C55.0508 20.3222 55.0039 20.0585 55.0039 19.8241C55.0039 19.3671 54.7812 18.4296 54.5762 18.0312C54.4941 17.873 54.3184 17.621 54.1836 17.4628L53.9375 17.1815L54.1602 16.7655L54.377 16.3437L54.207 16.2206C53.9844 16.0683 53.3047 15.4237 53.3047 15.371C53.3047 15.3476 53.4395 15.1542 53.6035 14.9433C53.8789 14.58 53.9141 14.5565 54.1191 14.5683C54.2891 14.5741 54.4062 14.5273 54.6289 14.3632C55.1152 14.0058 55.5898 13.4198 55.5898 13.1855C55.5898 13.121 55.4609 12.9276 55.2969 12.7519L55.0098 12.4355L55.127 12.1308C55.332 11.6034 55.5254 11.3105 55.9473 10.8417C56.1758 10.5956 56.3281 10.3905 56.2812 10.3905C56.2402 10.3905 54.8809 10.3788 53.2578 10.3612C51.6348 10.3437 50.2812 10.3437 50.252 10.3671C50.2227 10.3847 50.2695 10.496 50.3633 10.6132C50.6445 10.9765 50.6445 11.0175 50.3516 10.7538C49.9355 10.373 49.7949 10.3319 48.8457 10.3319C48.2129 10.3319 48.0254 10.3495 48.043 10.4023C48.0781 10.496 49.0332 11.3222 49.1152 11.328C49.1445 11.328 48.9629 11.1112 48.7051 10.8534C48.248 10.3905 48.2773 10.3085 48.7461 10.7304C48.957 10.9237 49.6719 11.9081 49.6719 12.0077C49.6719 12.0253 49.625 12.0077 49.5723 11.9667C49.4727 11.8905 49.4727 11.8964 49.5547 12.0077C49.6016 12.078 49.7598 12.3007 49.8945 12.5058L50.1523 12.8808L49.7773 12.494C49.5781 12.2831 49.1504 11.8319 48.834 11.4862C48.5176 11.1464 48.1777 10.8065 48.0723 10.7304L47.8848 10.5956L48.1133 10.8769C48.2363 11.0292 48.3652 11.1347 48.4063 11.1112C48.4414 11.0937 48.4531 11.0995 48.4238 11.123C48.4004 11.1523 48.4414 11.2401 48.5117 11.3222C48.5879 11.4042 48.5 11.3456 48.3184 11.1991C48.1367 11.0468 47.7969 10.789 47.5625 10.6249L47.1289 10.3319H45.6758C44.8789 10.3319 44.2227 10.3495 44.2227 10.3671ZM51.0137 10.6952C51.0781 10.7538 51.0898 10.7538 51.0547 10.6952C50.9902 10.5898 51.0898 10.6132 51.2539 10.7421L51.4004 10.8651L51.2246 10.8241C50.9141 10.7597 50.8438 10.7362 50.8438 10.6776C50.8438 10.6015 50.9258 10.6132 51.0137 10.6952ZM51.4297 11.7206C51.7051 11.996 51.8516 12.1718 51.752 12.1015C51.5176 11.9433 50.8027 11.2108 50.8789 11.2108C50.9082 11.2108 51.1602 11.4394 51.4297 11.7206ZM45.7344 11.914C46.0273 11.9901 46.2617 12.0605 46.25 12.0722C46.209 12.119 44.1934 11.8437 44.1348 11.7851C44.0293 11.6796 45.1543 11.7733 45.7344 11.914ZM43.6602 12.4706C43.6191 12.5761 43.4023 12.705 43.4023 12.6288C43.4023 12.5995 43.4609 12.5292 43.5371 12.4823C43.7012 12.3651 43.7012 12.3651 43.6602 12.4706ZM45.7461 12.5644C46.0508 12.623 46.3672 12.6874 46.4492 12.705L46.5957 12.7401L46.4492 12.6757C46.3672 12.6347 46.1738 12.5702 46.0098 12.5292C45.7461 12.4589 45.7344 12.4472 45.9102 12.4472C46.1914 12.4413 46.8887 12.5937 47.3633 12.7636C47.5859 12.8456 47.7031 12.8983 47.6211 12.8808C47.375 12.828 46.8301 12.7753 46.8594 12.8105C46.877 12.828 47.1582 12.9511 47.4922 13.08C47.9902 13.2792 48.5586 13.578 48.5586 13.6425C48.5586 13.6542 48.3418 13.5663 48.0781 13.455C47.5098 13.2206 46.0918 12.7929 45.248 12.6112C44.9258 12.5409 44.6387 12.4648 44.6094 12.4355C44.5332 12.3651 45.0723 12.4237 45.7461 12.5644ZM45.4531 12.7694C46.1387 12.9745 46.5313 13.1503 47.4746 13.6776C47.9551 13.9472 47.9785 13.9765 47.6211 13.871C47.4453 13.8241 47.4805 13.8769 47.7559 14.0819C47.8906 14.1874 47.9785 14.2636 47.9434 14.246C47.6504 14.1347 46.3262 13.4608 46.1152 13.3202C45.7695 13.0858 45.2773 12.8398 44.8262 12.6757C44.6211 12.6054 44.457 12.5351 44.457 12.5175C44.457 12.4882 44.6621 12.5409 45.4531 12.7694ZM48.459 12.7401C49.1621 13.0976 49.4023 13.2968 50.0527 14.0937C50.8555 15.078 50.9141 15.1776 50.3398 14.5507C49.3672 13.5136 48.9336 13.1093 48.4707 12.8339C47.9375 12.5175 47.9316 12.4765 48.459 12.7401ZM44.8965 13.1093C45.125 13.2148 45.5293 13.4491 45.7988 13.6308C46.0742 13.8183 46.3262 13.9648 46.3672 13.9648C46.4551 13.9648 47.0176 14.4687 47.0996 14.6151C47.1992 14.8085 47.0762 14.7382 46.6836 14.3808C46.373 14.0995 46.1211 13.9472 45.3594 13.5898C44.8438 13.3495 44.1992 13.0858 43.9238 13.0097C43.5781 12.9042 43.4785 12.8573 43.5781 12.8398C43.8887 12.7987 44.498 12.9218 44.8965 13.1093ZM43.6074 13.4667L44.0176 13.5429L43.5488 13.5194C43.1563 13.496 43.0977 13.5019 43.1855 13.5663C43.2441 13.6073 43.3379 13.6718 43.3906 13.7128C43.4609 13.7597 43.3789 13.7538 43.1094 13.7011C42.8984 13.6542 42.6465 13.619 42.5469 13.6132C42.2539 13.6132 42.2598 13.5312 42.5645 13.455C42.9336 13.3671 43.1152 13.373 43.6074 13.4667ZM50.3926 13.9062C50.5156 14.0175 50.6738 14.1874 50.7441 14.287C50.8555 14.4394 50.8262 14.4218 50.5508 14.1991C50.1641 13.8769 49.8477 13.5487 49.8477 13.4726C49.8477 13.4198 49.959 13.5077 50.3926 13.9062ZM44.2637 13.5898C44.2461 13.6073 44.1934 13.6132 44.1523 13.5956C44.1055 13.578 44.123 13.5605 44.1875 13.5605C44.252 13.5546 44.2871 13.5722 44.2637 13.5898ZM44.9141 13.7714C45.6406 14.0116 46.9414 14.744 47.5625 15.2597C47.6914 15.371 47.6797 15.3651 47.4746 15.248C47.3457 15.1718 46.584 14.7733 45.7754 14.3632C44.4219 13.6718 44.252 13.5487 44.9141 13.7714ZM43.2852 13.8593C43.6719 13.9706 44.6914 14.3925 44.75 14.4628C44.7969 14.5214 44.7441 14.5214 44.5098 14.4804C44.3457 14.4511 44.1992 14.4394 44.1816 14.4569C44.1641 14.4687 44.2637 14.539 44.3984 14.6093C44.5332 14.6796 44.6328 14.7499 44.6152 14.7675C44.5801 14.8026 43.0098 13.994 42.7988 13.8358C42.6699 13.7304 42.6699 13.7304 42.875 13.7655C42.9863 13.7831 43.1738 13.8241 43.2852 13.8593ZM49.2617 14.1171C49.3906 14.2343 49.4902 14.3456 49.4727 14.3573C49.4082 14.4218 48.9102 14.0644 48.9102 13.953C48.9102 13.8534 49.0332 13.912 49.2617 14.1171ZM47.9902 14.6093C48.3594 14.7675 48.6934 14.9023 48.7285 14.9023C48.8223 14.9023 48.8105 14.9901 48.7051 15.078C48.6289 15.1366 48.5938 15.1366 48.5059 15.0546C48.4473 15.0019 48.1367 14.8144 47.8203 14.6386C47.498 14.4628 47.2578 14.3163 47.2813 14.3163C47.2988 14.3163 47.6211 14.4452 47.9902 14.6093ZM43.6953 14.7851C44.1992 14.9023 45.5 15.4648 45.4297 15.5351C45.4121 15.5468 45.1836 15.4589 44.9141 15.3417C44.1816 15.0136 43.6543 14.8554 43.168 14.8202L42.7285 14.7792L43.3203 14.9843C44.1934 15.2831 45.2539 15.7108 45.6875 15.9394C46.1387 16.1737 46.1211 16.1679 45.3945 15.8866C45.0898 15.7636 44.2988 15.5058 43.6426 15.3007C42.7695 15.0312 42.3945 14.8905 42.2363 14.7675L42.0254 14.5917L42.582 14.6269C42.8867 14.6444 43.3906 14.7148 43.6953 14.7851ZM47.6621 14.8788C47.9902 15.1894 47.8789 15.1542 47.5039 14.8261C47.3633 14.7089 47.2754 14.6093 47.3105 14.6093C47.3457 14.6093 47.5039 14.7323 47.6621 14.8788ZM42.2305 15.1659C42.4531 15.289 42.4648 15.3065 42.3184 15.2773C42.2246 15.2538 42.0371 15.1894 41.9082 15.1366C41.709 15.0429 41.6973 15.0312 41.8203 15.0253C41.9023 15.0253 42.084 15.0898 42.2305 15.1659ZM49.1504 15.4237C49.0508 15.623 48.957 15.7812 48.9395 15.7812C48.9219 15.7812 48.998 15.6112 49.0977 15.4003C49.2031 15.1952 49.2969 15.0312 49.3086 15.0429C49.3203 15.0546 49.2441 15.2245 49.1504 15.4237ZM48.5586 15.2187C48.5586 15.2362 48.5352 15.2655 48.5 15.2831C48.4707 15.3007 48.4414 15.289 48.4414 15.2597C48.4414 15.2245 48.4707 15.1952 48.5 15.1952C48.5352 15.1952 48.5586 15.2069 48.5586 15.2187ZM50.4219 16.1327C50.8965 16.3905 51.3652 16.6659 51.459 16.748L51.6348 16.9003L51.4062 16.8065C51.2832 16.7597 51.166 16.7187 51.1543 16.7187C51.1367 16.7187 51.3301 16.8651 51.582 17.0468C51.8398 17.2284 52.0859 17.4159 52.1328 17.4687C52.2383 17.5741 52.1855 17.5448 50.9316 16.7069C49.1387 15.5175 48.998 15.3593 50.4219 16.1327ZM45.1016 15.9335C45.6465 16.1327 47.4453 16.9706 47.4453 17.0292C47.4453 17.0468 46.9004 16.8241 46.2324 16.5429C44.8145 15.9452 44.457 15.787 44.457 15.7519C44.457 15.705 44.4805 15.7108 45.1016 15.9335ZM49.4551 16.0448C49.4551 16.08 49.4141 16.1093 49.3613 16.121C49.291 16.1386 49.2734 16.1151 49.2969 16.0448C49.3379 15.9452 49.4434 15.9452 49.4551 16.0448ZM42.2246 16.7011C42.1777 16.7597 42.0488 16.9237 41.9316 17.0702C41.8145 17.2167 41.6094 17.5155 41.4805 17.744C41.2813 18.0898 40.9766 18.4179 40.8535 18.4179C40.8359 18.4179 40.8887 18.3183 40.9648 18.1952C41.041 18.0663 41.1816 17.7851 41.2754 17.5624C41.4336 17.1933 41.4805 17.1347 41.8555 16.8827C42.3125 16.5722 42.3359 16.5605 42.2246 16.7011ZM43.5313 16.7128C43.8066 16.7714 44.0645 16.8417 44.0996 16.8593C44.1992 16.9237 44.1758 17.1933 44.0469 17.6093C43.8945 18.0898 43.9004 18.1015 44.1055 17.7148C44.3047 17.3398 44.3164 17.3456 44.1875 17.7792C43.9414 18.6112 43.4082 19.3788 42.7168 19.8886C42.2656 20.2226 42.248 20.4804 42.6406 20.9081C42.8457 21.1366 42.8809 21.248 42.7871 21.3827C42.7285 21.4706 42.7227 21.6581 42.7578 22.2089C42.8047 22.9589 42.8926 23.287 42.957 22.9589C43.0332 22.5956 43.2969 21.8163 43.3438 21.8163C43.3672 21.8163 43.4551 21.8925 43.5371 21.9921C43.6426 22.1093 43.707 22.2909 43.7539 22.5898C43.8359 23.0878 44.0586 24.0194 44.1934 24.3886C44.2402 24.5292 44.2813 24.664 44.2813 24.6874C44.2813 24.7167 44.1582 24.6991 44.0059 24.6523C43.6309 24.5409 42.875 24.5409 42.7227 24.664C42.6113 24.7519 42.6113 24.7519 42.7285 24.7226C43.1094 24.6405 43.168 24.6288 43.168 24.6698C43.168 24.6991 43.1152 24.7519 43.0508 24.7929C42.9863 24.8339 42.9336 24.9042 42.9336 24.9511C42.9336 25.0683 43.1973 25.0683 43.6484 24.9452C43.8418 24.8983 44.041 24.869 44.0996 24.8808C44.1523 24.8925 44.0234 24.9394 43.8125 24.9804C43.6074 25.0214 43.4668 25.0683 43.5078 25.0858C43.543 25.0976 43.7129 25.08 43.8828 25.0448C44.1523 24.9862 44.1992 24.9862 44.293 25.0858C44.3516 25.1444 44.416 25.2851 44.4336 25.4023C44.4863 25.7069 44.3281 25.7831 43.877 25.6659C43.6953 25.619 43.3672 25.5605 43.1387 25.537C42.916 25.5194 42.6992 25.4726 42.6523 25.4374C42.5879 25.3788 42.5762 25.4374 42.6113 25.8065L42.6465 26.2401L42.5469 25.9765C42.4941 25.83 42.4414 25.7011 42.4238 25.6835C42.3828 25.6366 42.4766 26.1698 42.5879 26.5624C42.6465 26.7733 42.6816 26.9491 42.6699 26.9608C42.623 27.0077 42.4004 26.5507 42.3242 26.2401C42.248 25.9706 42.2363 25.7011 42.2656 24.9569C42.2832 24.4355 42.2773 23.8202 42.248 23.5858C42.2188 23.3573 42.2012 23.164 42.2188 23.164C42.2305 23.164 42.2949 23.2226 42.3535 23.2929C42.4355 23.3866 42.4121 23.3105 42.2891 23.0526C42.1484 22.7714 42.0957 22.5663 42.0723 22.2323C42.043 21.8163 42.0254 21.7694 41.8145 21.5409C41.6855 21.4003 41.5859 21.248 41.5859 21.1952C41.5859 21.1425 41.5039 20.8612 41.4043 20.5683C41.2285 20.0526 41.2227 20.0233 41.293 19.5956C41.334 19.3554 41.416 18.998 41.4746 18.8105C41.6035 18.4062 41.6035 18.4179 41.5391 18.4179C41.5098 18.4179 41.457 18.4765 41.416 18.5468C41.3516 18.6757 41.3516 18.6698 41.3809 18.5116C41.4277 18.3007 42.0957 17.3222 42.4883 16.9062C42.6641 16.7245 42.8223 16.6015 42.8984 16.6015C42.9688 16.6015 43.2559 16.6483 43.5313 16.7128ZM44.6621 17.8202C44.5859 18.1776 44.4805 18.623 44.4336 18.8105L44.3457 19.1503L44.4629 19.0097C44.5273 18.9335 44.5625 18.828 44.5449 18.7753C44.5273 18.7284 44.5273 18.705 44.5508 18.7284C44.5742 18.7519 44.7207 18.5233 44.8789 18.2304C45.207 17.6151 45.3594 17.4218 45.5352 17.4218C45.6641 17.4218 46.3906 17.8202 46.3906 17.8905C46.3906 17.9081 46.3145 18.1718 46.2148 18.4765C46.1211 18.7812 46.0566 19.039 46.0625 19.0507C46.0742 19.0624 46.1563 18.9745 46.2441 18.8632C46.332 18.746 46.4258 18.6698 46.4551 18.6874C46.543 18.7401 46.5137 19.2206 46.4082 19.4491C46.3379 19.5956 46.2207 19.7011 46.0273 19.8007C45.875 19.8769 45.6934 20.0233 45.6172 20.1171C45.5469 20.2167 45.4766 20.2929 45.4531 20.2929C45.4355 20.2929 45.3711 20.1991 45.3125 20.0878L45.2012 19.8827L45.418 19.2909C45.5352 18.9628 45.6172 18.6815 45.6055 18.664C45.5234 18.5819 44.832 19.7128 44.668 20.1933C44.6504 20.2519 44.6094 20.2812 44.5742 20.2636C44.4805 20.205 44.5039 20.3105 44.6914 20.7616C44.791 20.996 44.8672 21.2304 44.8672 21.2831C44.8672 21.412 44.3164 20.7909 44.1641 20.4921C44.0234 20.205 44.0176 20.0702 44.1465 19.6659L44.2461 19.3554L44.0586 19.162C43.9531 19.0565 43.8711 18.9394 43.8711 18.9042C43.8711 18.828 44.6152 17.3105 44.7031 17.1991C44.7383 17.1581 44.7734 17.1347 44.7852 17.1464C44.7969 17.1581 44.7441 17.4628 44.6621 17.8202ZM48.541 19.039C48.6348 19.1679 48.6992 19.7069 48.6465 19.994C48.6172 20.1698 48.5586 20.2636 48.4238 20.3632C48.3184 20.4276 48.1484 20.5683 48.043 20.6679C47.8086 20.8905 47.7031 20.8437 47.5391 20.4569C47.4043 20.123 47.4336 19.9999 47.7617 19.5077L48.0195 19.121H47.8203C47.5918 19.121 47.5625 19.0273 47.7383 18.8398L47.8613 18.7108L48.166 18.828C48.3301 18.8925 48.5 18.9862 48.541 19.039ZM54.7227 20.0058C54.8691 20.5565 54.8926 20.744 54.8691 21.0839C54.834 21.5351 54.7344 21.9335 54.6523 21.9335C54.5527 21.9335 54.4707 21.1015 54.4883 20.2167C54.5 19.7187 54.5117 19.3144 54.5234 19.3261C54.5352 19.3319 54.623 19.6425 54.7227 20.0058ZM49.0098 19.6601C48.9922 19.7011 48.9805 19.6718 48.9805 19.5898C48.9805 19.5077 48.9922 19.4784 49.0098 19.5136C49.0215 19.5546 49.0215 19.6249 49.0098 19.6601ZM49.5371 19.7773C49.6426 19.8534 49.7305 19.9413 49.7305 19.9765C49.7305 20.0116 49.6016 20.0995 49.4434 20.1698C49.1035 20.3163 49.0801 20.3163 49.1152 20.2167C49.127 20.1815 49.168 20.0351 49.2031 19.8944C49.2383 19.7597 49.2852 19.6483 49.3027 19.6483C49.3262 19.6483 49.4316 19.7069 49.5371 19.7773ZM43.5547 20.0058C43.502 20.1347 43.4668 20.164 43.4668 20.0995C43.4609 19.9765 43.5723 19.7421 43.6133 19.7831C43.6309 19.8007 43.6016 19.9003 43.5547 20.0058ZM46.8242 20.621C46.8418 20.7733 46.8594 21.0019 46.8594 21.1366L46.8535 21.3769L46.7656 21.2128C46.7129 21.119 46.6426 20.9433 46.5957 20.8202C46.5313 20.6327 46.5313 20.58 46.6016 20.4745C46.7305 20.2929 46.7832 20.3222 46.8242 20.621ZM40.4727 21.623C40.3496 21.7343 40.3379 21.7636 40.4141 21.8163C40.4609 21.8456 40.5547 21.8749 40.6191 21.8749C40.6836 21.8749 40.7715 21.8983 40.8184 21.9276C40.8828 21.9687 40.8418 21.9921 40.6719 22.0214C40.1738 22.1034 40.1563 22.1093 40.2441 22.1972C40.291 22.2382 40.4785 22.3144 40.666 22.3671C40.8477 22.4198 41 22.4843 41 22.5136C41 22.619 40.7773 22.748 40.4785 22.8241C40.3027 22.8651 40.1504 22.9355 40.1328 22.9765C40.1211 23.0175 40.2324 23.0995 40.4199 23.1757L40.7246 23.3046L40.3789 23.621C39.9746 23.9901 39.6055 24.2538 39.5586 24.2011C39.5352 24.1776 39.5879 23.9433 39.6699 23.6796C39.752 23.4101 39.9043 22.8651 40.0039 22.4608C40.0977 22.0565 40.209 21.6405 40.2383 21.5292C40.2734 21.3886 40.2734 21.3007 40.2266 21.248C40.1797 21.1894 40.1973 21.0956 40.3027 20.873L40.4375 20.58L40.5313 21.037L40.625 21.494L40.4727 21.623ZM44.7266 22.2499C44.873 22.5546 44.9902 22.83 44.9727 22.871C44.9375 22.9882 44.2227 21.8339 44.2227 21.6523C44.2227 21.5937 44.252 21.5937 44.3398 21.6405C44.3984 21.6757 44.5742 21.9511 44.7266 22.2499ZM45.3008 22.2616C45.418 22.3788 45.5234 22.5663 45.5586 22.7128C45.6406 23.0468 45.7051 23.4921 45.6699 23.4569C45.6289 23.4101 44.8672 21.998 44.8672 21.9628C44.8672 21.8983 45.1016 22.0565 45.3008 22.2616ZM46.2969 23.0116C46.3496 23.2519 46.3906 23.6679 46.3906 23.9374C46.3906 24.494 46.4785 24.4999 46.5605 23.9491C46.6074 23.6151 46.6133 23.6093 46.6133 23.8671C46.625 24.2187 46.5195 24.9921 46.4609 25.0507C46.3906 25.121 46.1211 24.078 46.0332 23.4335C45.9746 22.953 45.9922 22.5253 46.0801 22.3847C46.127 22.3026 46.1914 22.4784 46.2969 23.0116ZM34.9473 23.5448C34.7246 23.6269 34.5254 23.6093 34.5898 23.5097C34.6074 23.4804 34.7422 23.4569 34.8945 23.4628H35.1699L34.9473 23.5448ZM41.4746 24.0722L41.4219 24.3065L41.416 24.1073C41.4102 23.914 41.4043 23.9081 41.3281 24.0136C41.2813 24.078 41.2578 24.1483 41.2754 24.1776C41.2871 24.2011 41.2695 24.2128 41.2227 24.2069C41.1816 24.1952 41.1523 24.2245 41.1641 24.2597C41.1699 24.3007 41.1465 24.33 41.1113 24.3183C41.0762 24.3124 41.0293 24.3417 41.0117 24.3886C40.9941 24.4355 41.0117 24.453 41.0469 24.4296C41.0938 24.4003 41.0938 24.4413 41.0527 24.5702C41.0176 24.664 41 24.8632 41.0059 25.0038C41.0176 25.1444 41.0117 25.2499 40.9883 25.2323C40.959 25.2206 40.9355 25.1093 40.9355 24.9921C40.9297 24.8749 40.918 24.8222 40.9004 24.8808C40.8711 24.9862 40.8711 24.9862 40.7949 24.8866C40.7305 24.7929 40.707 24.8046 40.5898 25.039C40.4668 25.2851 40.4609 25.3612 40.5723 25.7421C40.6074 25.8827 40.6074 25.8827 40.4551 25.7128C40.3027 25.5429 40.3027 25.5429 40.2969 25.6718C40.2969 25.748 40.3379 25.8827 40.3848 25.9765C40.4375 26.0761 40.4492 26.1523 40.4141 26.1523C40.3848 26.1523 40.3086 26.0526 40.2441 25.9296L40.127 25.7128L40.1211 25.9003C40.1211 26.123 40.0332 26.1581 39.9805 25.9589C39.9219 25.7421 39.9336 25.7187 40.332 25.1796C40.543 24.8925 40.8945 24.3944 41.1055 24.0722C41.4688 23.5331 41.498 23.498 41.5156 23.662C41.5273 23.7616 41.5098 23.9433 41.4746 24.0722ZM34.2793 23.7265C34.2383 23.744 34.2266 23.7968 34.2441 23.8495C34.2676 23.914 34.2559 23.9315 34.2148 23.9023C34.1094 23.8378 34.1328 23.6913 34.25 23.6972C34.3027 23.6972 34.3203 23.7148 34.2793 23.7265ZM34.9648 24.1015C34.918 24.1308 34.8535 24.1601 34.8184 24.1601C34.7891 24.1601 34.8008 24.1308 34.8477 24.1015C34.8945 24.0722 34.9648 24.0429 34.9941 24.0429C35.0293 24.0429 35.0117 24.0722 34.9648 24.1015ZM53.3398 26.539C53.3164 26.621 53.2695 26.6796 53.2285 26.662C53.0645 26.6093 53.0117 26.3456 53.0117 25.6015C53.0117 24.9745 53.0352 24.7694 53.1465 24.4296L53.2754 24.0194L53.3281 25.203C53.3516 25.8534 53.3574 26.4569 53.3398 26.539ZM34.7305 24.1835C34.7305 24.1952 34.6895 24.2245 34.6367 24.2421C34.5898 24.2597 34.5664 24.2538 34.584 24.2187C34.6191 24.1601 34.7305 24.1366 34.7305 24.1835ZM34.4258 24.3944C34.3848 24.453 34.3438 24.494 34.3262 24.4823C34.3027 24.4589 34.4316 24.2773 34.4727 24.2773C34.4844 24.2773 34.4668 24.33 34.4258 24.3944ZM34.0801 24.5526C34.0449 24.6464 33.998 24.8222 33.9688 24.9511L33.9219 25.1855L33.916 24.9628C33.9102 24.8398 33.9512 24.664 33.998 24.5702C34.1094 24.3476 34.1621 24.3417 34.0801 24.5526ZM34.8477 24.6288C34.8477 24.6581 34.8242 24.6815 34.7891 24.6698C34.7598 24.664 34.666 24.7343 34.5781 24.8339C34.4258 25.0097 34.4316 24.9921 34.6367 24.6405C34.6895 24.5585 34.8477 24.5468 34.8477 24.6288ZM43.584 24.8398C43.3438 24.9218 43.1387 24.9687 43.127 24.9569C43.0684 24.8983 43.6191 24.6933 43.8125 24.6933C43.9883 24.6991 43.9531 24.7167 43.584 24.8398ZM35.2578 25.4491C35.2578 25.496 35.2051 25.4491 35.1406 25.3437C34.9941 25.1034 34.9414 25.1034 34.9883 25.3437C35.0059 25.4433 35.0059 25.5077 34.9824 25.4843C34.9531 25.4608 34.9355 25.3319 34.9297 25.1972C34.9238 25.0624 34.9063 24.8983 34.877 24.8339C34.8535 24.7694 34.9297 24.8632 35.041 25.039C35.1582 25.2148 35.2578 25.4023 35.2578 25.4491ZM34.4023 25.1269C34.3789 25.1737 34.3555 25.2148 34.3438 25.2148C34.332 25.2148 34.3203 25.1737 34.3203 25.1269C34.3203 25.08 34.3438 25.039 34.3789 25.039C34.4082 25.039 34.4199 25.08 34.4023 25.1269ZM34.7598 25.2733C34.7773 25.3378 34.7832 25.414 34.7598 25.4433C34.7422 25.4784 34.7773 25.5253 34.8301 25.5605C34.8887 25.5898 34.918 25.6366 34.8945 25.6601C34.8711 25.6835 34.8945 25.7362 34.9531 25.7831C35.041 25.8593 35.041 25.8593 34.918 25.8007C34.7891 25.7362 34.7129 25.6015 34.6367 25.3026C34.5957 25.1269 34.707 25.1034 34.7598 25.2733ZM35.6563 25.7714C35.6563 25.8651 35.6445 25.8593 35.6094 25.7421C35.5449 25.5429 35.5449 25.3905 35.6094 25.537C35.6387 25.6015 35.6563 25.7069 35.6563 25.7714ZM34.502 25.6659L34.6426 25.8183L34.4844 25.7069C34.3965 25.6483 34.3203 25.578 34.3203 25.5487C34.3203 25.4784 34.3496 25.5019 34.502 25.6659ZM34.4961 26.1698C34.6602 26.4687 34.5371 26.3515 34.2324 25.9179C34.0215 25.619 34.0156 25.6073 34.1797 25.7597C34.2793 25.8476 34.4199 26.0292 34.4961 26.1698ZM43.8711 25.7538C43.9297 25.789 43.8125 25.7948 43.5488 25.7714C43.3262 25.7538 43.1152 25.7128 43.0801 25.6776C43.0098 25.6073 43.748 25.6776 43.8711 25.7538ZM39.793 26.0468C39.7402 26.3046 39.6348 26.4569 39.418 26.58C39.1836 26.7206 39.1953 26.6327 39.4473 26.3222C39.5645 26.1874 39.6816 26.0292 39.7168 25.9706C39.8047 25.8007 39.8398 25.8358 39.793 26.0468ZM36.6582 26.2284C36.9219 26.4218 37.0391 26.4687 37.3613 26.5038C37.7832 26.5507 38.1289 26.6855 37.9355 26.7265C37.877 26.7382 37.8008 26.7206 37.7598 26.6913C37.7188 26.6562 37.4668 26.5976 37.1973 26.5624C36.793 26.5038 36.6758 26.4569 36.5059 26.3105C36.2949 26.123 36.1191 25.8651 36.2656 25.953C36.3066 25.9765 36.4824 26.0995 36.6582 26.2284ZM35.2344 26.2694C35.2813 26.2694 35.3164 26.2929 35.3164 26.328C35.3164 26.4335 35.2051 26.3866 35.0117 26.205C34.8418 26.0409 34.8359 26.0351 34.9883 26.1464C35.082 26.2167 35.1934 26.2694 35.2344 26.2694ZM36.1367 26.4159C36.2539 26.6151 36.2539 26.6327 36.1543 26.5331C36.0898 26.4687 36.0078 26.3339 35.9668 26.2401C35.873 26.0233 35.9551 26.1054 36.1367 26.4159ZM44.6914 26.2694C44.4922 26.3339 44.3398 26.3339 44.4863 26.2694C44.5508 26.2401 44.6563 26.2226 44.7207 26.2226C44.8145 26.2226 44.8086 26.2343 44.6914 26.2694ZM35.9023 26.4745C35.9023 26.5038 35.873 26.4921 35.8438 26.4452C35.8145 26.3983 35.7852 26.328 35.7852 26.2987C35.7852 26.2636 35.8145 26.2812 35.8438 26.328C35.873 26.3749 35.9023 26.4394 35.9023 26.4745ZM36.7988 27.1542C37.0684 27.2714 36.9746 27.3065 36.6582 27.1952C36.4297 27.119 36.1133 26.914 36.1602 26.873C36.1777 26.8554 36.1191 26.7792 36.0313 26.6972C35.9434 26.621 36.0254 26.662 36.2129 26.7968C36.4004 26.9315 36.6641 27.0898 36.7988 27.1542ZM44.9023 26.6151C44.8555 26.6855 44.6328 26.7382 44.6328 26.6796C44.6328 26.6269 44.7383 26.5741 44.8555 26.5683C44.8965 26.5624 44.9199 26.5858 44.9023 26.6151ZM38.791 27.0077L38.8262 27.1952L38.6387 27.1308C38.3984 27.0429 38.4043 27.0487 38.4512 26.9726C38.4805 26.9257 38.5156 26.9257 38.5742 26.9784C38.6445 27.0312 38.6563 27.0077 38.6621 26.8202C38.6621 26.5683 38.7207 26.6562 38.791 27.0077ZM35.293 26.8495C35.4043 27.0663 35.6738 27.3183 35.9434 27.4472C36.084 27.5116 36.1953 27.5761 36.1953 27.5878C36.1953 27.6288 35.7324 27.4472 35.5742 27.3476C35.4102 27.2362 35.082 26.8202 35.082 26.7265C35.082 26.6269 35.2285 26.7148 35.293 26.8495ZM37.7656 26.8378C37.6719 26.8495 37.5313 26.8495 37.4434 26.8378C37.3496 26.8261 37.4258 26.8144 37.6016 26.8144C37.7773 26.8144 37.8535 26.8261 37.7656 26.8378ZM37.4258 27.0136C37.9648 27.1425 37.9707 27.1483 37.9414 27.1776C37.8887 27.2304 37.3086 27.0956 37.0566 26.9726C36.9219 26.9081 36.8633 26.8671 36.9277 26.8905C36.9922 26.9081 37.2148 26.9667 37.4258 27.0136ZM44.9434 27.0136C44.9023 27.0253 44.832 27.0253 44.7969 27.0136C44.7559 26.996 44.7852 26.9843 44.8672 26.9843C44.9492 26.9843 44.9785 26.996 44.9434 27.0136ZM36.6641 27.412C36.7754 27.4706 36.9863 27.5526 37.1328 27.5937C37.3672 27.6581 37.3789 27.664 37.2148 27.6698C36.998 27.6757 36.5293 27.453 36.2539 27.2069L36.0488 27.0253L36.2539 27.1659C36.3652 27.248 36.5527 27.3593 36.6641 27.412ZM38.6152 27.5468C38.7793 27.7284 38.7969 27.9804 38.668 28.1444C38.5566 28.2792 38.5156 28.2909 38.0293 28.2851C37.748 28.2792 37.4492 28.2499 37.3672 28.2206C37.2559 28.1737 37.3262 28.1562 37.7246 28.1327C38.4512 28.0858 38.7969 27.8573 38.5039 27.6112C38.4043 27.5292 38.2051 27.6112 38.2344 27.7284C38.2402 27.7636 38.2227 27.7929 38.1875 27.7929C38.0879 27.7929 38.123 27.5702 38.2344 27.5058C38.3867 27.4179 38.5098 27.4296 38.6152 27.5468ZM39.9746 28.1269C40.2676 28.3788 40.625 28.6835 40.7832 28.8065C40.9355 28.9296 41.0586 29.0526 41.0586 29.0878C41.0586 29.2577 39.5762 28.0565 39.248 27.6171L39.0957 27.4179L39.2715 27.5409C39.3711 27.6112 39.6875 27.8749 39.9746 28.1269ZM40.6484 28.3847C41.123 28.8358 40.9941 28.789 40.4023 28.3026C40.1504 28.0917 40.0098 27.9101 40.1094 27.9101C40.1328 27.9101 40.373 28.1269 40.6484 28.3847ZM40.0801 28.7597L40.209 28.9355L40.0332 28.8241C39.8105 28.6894 39.6523 28.5077 39.6523 28.3905C39.6523 28.2792 39.8809 28.4784 40.0801 28.7597ZM38.8555 28.6835C38.9082 28.9355 38.8613 28.953 38.6563 28.7597C38.5273 28.6366 38.498 28.578 38.5508 28.5429C38.709 28.4491 38.8145 28.496 38.8555 28.6835ZM39.7109 29.0468C39.7402 29.1288 39.752 29.1991 39.7402 29.1991C39.7051 29.1991 39.4766 28.7538 39.4766 28.6894C39.4766 28.619 39.6465 28.8769 39.7109 29.0468ZM39.4121 29.3339C39.4121 29.5565 39.4063 29.5683 39.3535 29.4335C39.3184 29.3515 39.3066 29.2401 39.3242 29.1815C39.3359 29.123 39.3008 29.0233 39.2363 28.9589C39.1777 28.9003 39.125 28.83 39.125 28.8007C39.125 28.7773 39.1953 28.8358 39.2715 28.9237C39.3828 29.0468 39.418 29.1523 39.4121 29.3339ZM35.2637 29.1464C35.1875 29.1757 35.0527 29.2577 34.9531 29.3222C34.8594 29.3925 34.7715 29.4335 34.7539 29.4218C34.707 29.369 35.1699 29.0819 35.2871 29.0878C35.3926 29.0878 35.3867 29.0937 35.2637 29.1464ZM41.5098 29.2167C41.4746 29.328 41.3691 29.3222 41.3398 29.2108C41.3164 29.123 41.334 29.1054 41.4219 29.1288C41.4805 29.1405 41.5215 29.1815 41.5098 29.2167ZM41.2813 29.7968C41.3164 29.8319 41.3516 29.8788 41.3516 29.9081C41.3516 29.9901 41.0762 29.9667 41.041 29.8847C41.0234 29.8378 40.8652 29.744 40.6836 29.6679C40.502 29.5976 40.3555 29.5155 40.3555 29.4862C40.3555 29.4335 41.1582 29.703 41.2813 29.7968ZM37.6836 29.703C37.7363 29.7206 37.7773 29.7792 37.7773 29.8319C37.7773 29.8788 37.5313 30.2655 37.2266 30.6874C35.9023 32.5448 35.9961 32.3163 35.9961 33.6112C35.9902 34.1796 35.9727 34.578 35.9492 34.4901C35.8789 34.203 35.7852 33.0605 35.7852 32.498V31.953L36.125 31.5487C36.3066 31.3319 36.6992 30.8163 36.9863 30.412C37.2793 30.0077 37.5313 29.6737 37.5547 29.6737C37.5723 29.6679 37.6309 29.6855 37.6836 29.703ZM38.1348 30.1718C38.2051 30.2597 38.1992 30.2655 38.0703 30.2245C37.8652 30.1659 37.7832 30.078 37.9355 30.078C38 30.078 38.0938 30.119 38.1348 30.1718ZM37.9883 30.4003C38.0996 30.4882 38.0996 30.4882 37.9883 30.5761C37.9238 30.623 37.8125 30.664 37.7363 30.664C37.5664 30.664 37.5547 30.8398 37.7188 30.9394C37.8125 31.0038 37.8535 30.9921 37.9766 30.8808C38.1465 30.7226 38.2461 30.6464 38.3633 30.5761C38.4336 30.5351 38.4395 30.5409 38.3867 30.6112C38.3574 30.6581 38.334 30.7284 38.3398 30.7636C38.3457 30.8046 38.3516 30.869 38.3574 30.9101C38.3633 30.9628 38.3809 30.9628 38.4336 30.9101C38.5391 30.8046 38.5977 30.8222 38.5977 30.9569C38.5977 31.1327 38.4629 31.1562 38.1992 31.0214C38 30.9218 37.959 30.9159 37.9297 30.9862C37.9121 31.0331 37.9121 31.1093 37.9297 31.1503C37.9414 31.1913 37.877 31.3378 37.7773 31.4726C37.6777 31.6132 37.6133 31.7538 37.6367 31.7831C37.6602 31.8241 37.6191 31.8183 37.5371 31.7773C37.4609 31.7362 37.4141 31.7245 37.4375 31.748C37.4609 31.7714 37.4551 31.8417 37.4258 31.9003C37.3203 32.0937 37.4902 32.0878 37.6953 31.8886C37.8828 31.7069 37.9707 31.5487 37.8359 31.6308C37.8066 31.6483 37.7773 31.6425 37.7773 31.6073C37.7773 31.578 37.8301 31.5546 37.8945 31.5605C38.041 31.5722 38.041 31.5546 37.8652 31.8417C37.6777 32.1347 37.3086 32.3046 37.3086 32.0937C37.3086 31.9179 36.8047 32.1523 36.4473 32.498C35.9082 33.0194 36.2422 32.3163 37.1035 31.1327C37.7363 30.2538 37.7656 30.2304 37.9883 30.4003ZM38.8203 30.7226C38.8555 30.8163 38.6914 30.7226 38.4512 30.5116L38.2754 30.3534L38.5391 30.5058C38.6797 30.5819 38.8086 30.6815 38.8203 30.7226ZM41.3809 30.5995C41.2871 30.6874 41 30.746 41 30.6757C41 30.6405 41.0703 30.5995 41.1641 30.5878C41.252 30.5761 41.3457 30.5585 41.3809 30.5526C41.416 30.5526 41.416 30.5644 41.3809 30.5995ZM42.0957 30.7343C42.0781 30.7753 42.0664 30.746 42.0664 30.664C42.0664 30.5819 42.0781 30.5526 42.0957 30.5878C42.1074 30.6288 42.1074 30.6991 42.0957 30.7343ZM41.8848 31.0155L41.8262 31.162V31.0155C41.8203 30.9335 41.8438 30.8046 41.8672 30.7226L41.9082 30.5761L41.9258 30.7226C41.9375 30.8046 41.9141 30.9394 41.8848 31.0155ZM39.3008 31.2148C39.3008 31.244 39.248 31.1972 39.1836 31.1151C39.1191 31.0331 39.0664 30.9452 39.0664 30.9159C39.0723 30.8573 39.2949 31.1444 39.3008 31.2148ZM41.1172 31.6601C41.1172 31.7362 41.123 31.7362 41.1758 31.6601C41.2051 31.6132 41.2344 31.5956 41.2402 31.6308C41.2578 31.8417 41.3047 31.9413 41.4512 32.0526C41.5391 32.123 41.5918 32.1991 41.5684 32.2226C41.498 32.2929 41.293 32.0644 40.9297 31.5136L40.584 30.9862L40.8477 31.2792C41 31.4374 41.1172 31.6073 41.1172 31.6601ZM38.9199 31.2206C39.1191 31.414 39.1309 31.9648 38.9375 32.1698C38.7969 32.3222 38.6563 32.3456 38.6563 32.2226C38.6563 32.1757 38.627 32.1288 38.5918 32.1171C38.5508 32.1054 38.5625 32.0644 38.6211 32.0175C38.7031 31.9472 38.7148 31.9472 38.6797 32.0351C38.6621 32.0878 38.6738 32.1288 38.709 32.1288C38.7441 32.1288 38.7734 32.0702 38.7734 32.0058C38.7734 31.8886 38.75 31.8827 38.5039 31.9179C38.2754 31.9472 38.2402 31.9355 38.2578 31.8534C38.2695 31.8007 38.3574 31.7362 38.457 31.7069C38.6563 31.6601 38.8789 31.4491 38.8086 31.3788C38.7852 31.3554 38.6973 31.414 38.6211 31.5019C38.4277 31.7245 38.3574 31.6835 38.4512 31.4023C38.5742 31.0448 38.7031 30.998 38.9199 31.2206ZM42.5762 31.9413C42.6465 32.1112 42.6992 32.3222 42.6992 32.3983C42.6992 32.6913 42.582 32.5155 42.3828 31.9062C42.1895 31.3144 42.1836 31.2909 42.3184 31.4491C42.3945 31.5429 42.5117 31.7655 42.5762 31.9413ZM43.25 32.0702C43.2734 32.2108 43.2676 32.2401 43.2324 32.1581C43.209 32.0937 43.168 31.9472 43.1445 31.8358C43.1211 31.6952 43.127 31.6659 43.1621 31.748C43.1855 31.8124 43.2266 31.9589 43.25 32.0702ZM38.0469 32.4394C38.0117 32.6269 37.7188 32.9901 37.7188 32.8437C37.7188 32.8026 37.7422 32.7733 37.7773 32.7733C37.8242 32.7733 38.0176 32.4687 38.0117 32.3925C38.0059 32.2343 38.0176 32.1757 38.0469 32.205C38.0703 32.2226 38.0703 32.328 38.0469 32.4394ZM36.875 32.4921C36.623 32.7089 36.6055 32.744 36.6992 32.7851C36.8047 32.8261 36.8047 32.8319 36.6934 32.8261C36.4941 32.8144 36.4297 32.8319 36.4297 32.8905C36.4297 32.9198 36.5059 32.9491 36.5996 32.9491C36.8457 32.9491 36.8633 33.0253 36.6641 33.2069C36.4883 33.3593 36.4648 33.3593 36.4883 33.1659C36.4941 33.1073 36.4707 33.0253 36.4355 32.9901C36.3535 32.8847 36.3887 32.7382 36.5352 32.58C36.6055 32.5038 36.6465 32.4218 36.623 32.3925C36.5938 32.369 36.6113 32.3632 36.6465 32.3866C36.6875 32.4101 36.793 32.3866 36.8809 32.3398C37.1738 32.1815 37.168 32.2401 36.875 32.4921ZM39.207 32.6093C38.9492 32.9726 38.8203 33.1132 38.9844 32.8612C39.2305 32.4745 39.3887 32.2577 39.4121 32.2753C39.4238 32.287 39.3301 32.4394 39.207 32.6093ZM35.6094 32.4804C35.6094 32.5976 35.5801 32.6562 35.5215 32.6562C35.4746 32.6562 35.4336 32.6972 35.4336 32.744C35.4336 32.7909 35.4746 32.8319 35.5273 32.8319C35.5918 32.8319 35.6094 32.8612 35.5859 32.9257C35.5684 32.9784 35.5508 33.1249 35.5508 33.2597C35.5508 33.4472 35.5332 33.4823 35.4805 33.4296C35.2871 33.2362 35.1641 33.4823 35.2637 33.8515C35.334 34.1151 35.2988 34.1737 35.1523 34.0448C34.9941 33.8983 34.9063 33.9218 34.9063 34.1093C34.9063 34.2206 34.8652 34.2851 34.7773 34.3261C34.6367 34.3847 34.5254 34.5194 33.0078 36.4706C30.4004 39.8046 29.2871 41.2401 27.875 43.0858C27.0254 44.1991 26.1172 45.371 25.8594 45.6933C24.2012 47.7675 23.627 48.4882 22.1973 50.3398C20.4512 52.6015 20.4395 52.619 19.7539 54.3476C19.5664 54.8222 19.4023 55.1972 19.3906 55.1855C19.3555 55.1503 20.0293 53.4452 20.2637 52.9765C20.416 52.6718 20.4922 52.4433 20.4922 52.2851C20.4922 51.9687 20.6035 51.7694 21.1074 51.1718C21.7402 50.4218 22.7715 49.1151 23.7617 47.8026C24.5703 46.7304 24.9453 46.3202 25.4551 45.9687C25.5898 45.8749 25.666 45.7519 25.7305 45.5292C25.7949 45.3124 26 44.9901 26.4512 44.3925C28.332 41.9198 28.9414 41.1112 31.4199 37.8124C32.9082 35.8319 34.3789 33.8515 34.6953 33.4179C35.2168 32.7089 35.5391 32.3046 35.5918 32.3046C35.6035 32.3046 35.6094 32.3808 35.6094 32.4804ZM37.3203 32.6679C37.168 32.873 36.998 33.1366 36.9395 33.2538C36.8809 33.371 36.8105 33.4882 36.7754 33.5116C36.7402 33.5292 36.6641 33.6288 36.6055 33.7284C36.5117 33.8808 36.4883 33.8925 36.4531 33.8046C36.4297 33.7401 36.459 33.6523 36.5469 33.5644C36.623 33.4823 36.6582 33.3944 36.6348 33.3534C36.6055 33.3124 36.6113 33.2948 36.6523 33.3241C36.7227 33.3651 36.9102 33.1835 37.0918 32.8905C37.2793 32.58 37.4902 32.3046 37.5488 32.3046C37.5723 32.3046 37.4727 32.4687 37.3203 32.6679ZM37.7539 32.5507C37.7012 32.621 37.6602 32.7323 37.6602 32.7909C37.6602 32.8495 37.6367 32.8788 37.6016 32.8612C37.5723 32.8437 37.543 32.8671 37.543 32.914C37.543 32.9667 37.5723 33.0077 37.6074 33.0077C37.6426 33.0077 37.6484 33.037 37.6191 33.078C37.5957 33.119 37.584 33.2069 37.5898 33.2714C37.6074 33.3886 37.6016 33.3886 37.5371 33.2773C37.4258 33.0956 37.4609 32.8495 37.6367 32.6269C37.8066 32.4042 37.9004 32.3456 37.7539 32.5507ZM43.2852 33.0312C43.2852 33.3241 43.1563 33.1132 43.1328 32.7909L43.1094 32.5097L43.1973 32.6855C43.2441 32.7792 43.2793 32.9374 43.2852 33.0312ZM36.3359 33.3534C36.3242 33.3651 36.2773 33.3593 36.2305 33.3417C36.1777 33.3183 36.1602 33.2597 36.1777 33.1835C36.2129 33.0605 36.2129 33.0605 36.2832 33.1952C36.3184 33.2714 36.3418 33.3417 36.3359 33.3534ZM44.3691 33.1835C44.4277 33.248 44.4629 33.3007 44.4453 33.3007C44.4277 33.3007 44.3691 33.248 44.3105 33.1835C44.252 33.119 44.2168 33.0663 44.2344 33.0663C44.252 33.0663 44.3105 33.119 44.3691 33.1835ZM44.8965 33.1894C44.9551 33.3651 44.8965 33.3827 44.8203 33.2128C44.7852 33.1308 44.7793 33.0663 44.8086 33.0663C44.8379 33.0663 44.8789 33.119 44.8965 33.1894ZM38.3105 33.3476C38.2109 33.4765 38.0879 33.6112 38.0352 33.6581C37.9414 33.7343 37.9414 33.7284 38.0176 33.5937C38.0586 33.5116 38.0996 33.4179 38.0996 33.3886C38.1055 33.3534 38.1348 33.3358 38.1699 33.3417C38.2051 33.3476 38.2813 33.3007 38.334 33.2421C38.5156 33.0429 38.498 33.1132 38.3105 33.3476ZM44.8086 33.494C44.8086 33.5233 44.7441 33.4648 44.6621 33.371C44.5801 33.2714 44.5156 33.1718 44.5156 33.1483C44.5215 33.0839 44.8086 33.4296 44.8086 33.494ZM43.7949 33.623C43.9238 33.7519 43.9648 33.8163 43.8945 33.7812C43.7188 33.6874 43.4609 33.371 43.4668 33.2538C43.4668 33.1776 43.4785 33.1835 43.5195 33.2773C43.5488 33.3476 43.6719 33.4999 43.7949 33.623ZM44.2227 33.6991C44.2871 33.8046 44.3164 33.8808 44.2871 33.8573C44.2285 33.828 43.9355 33.412 43.8477 33.2421C43.7715 33.0898 44.0996 33.494 44.2227 33.6991ZM45.8047 33.6757C45.8047 33.7108 45.7227 33.7753 45.623 33.8105C45.4473 33.8808 45.4414 33.8749 45.5352 33.7753C45.6055 33.6991 45.623 33.6112 45.5996 33.4999L45.5645 33.33L45.6816 33.4706C45.752 33.5468 45.8047 33.6347 45.8047 33.6757ZM37.9531 33.4706C37.9531 33.5058 37.9238 33.5468 37.8945 33.5644C37.8594 33.5878 37.8477 33.6288 37.8711 33.6581C37.9414 33.7753 37.3027 34.3085 37.209 34.2148C37.1855 34.1972 37.2031 34.1796 37.2383 34.1796C37.2734 34.1796 37.291 34.1327 37.2734 34.0741C37.25 34.0038 37.2559 33.998 37.291 34.0448C37.332 34.1034 37.3906 34.0858 37.543 33.9745C37.8066 33.7812 37.8711 33.664 37.7422 33.6112C37.6484 33.5761 37.6543 33.5702 37.7539 33.494C37.877 33.4062 37.9531 33.3944 37.9531 33.4706ZM37.4258 33.4999C37.4258 33.5116 37.3789 33.5585 37.3262 33.5995C37.2324 33.6757 37.2266 33.6698 37.3027 33.5761C37.3789 33.4823 37.4258 33.453 37.4258 33.4999ZM44.6914 33.5937C44.7266 33.6581 44.7383 33.7108 44.7266 33.7108C44.709 33.7108 44.668 33.6581 44.6328 33.5937C44.5977 33.5292 44.5859 33.4765 44.5977 33.4765C44.6152 33.4765 44.6563 33.5292 44.6914 33.5937ZM43.959 34.244C43.9883 34.2733 43.959 34.2968 43.877 34.2968C43.7891 34.2968 43.6074 34.162 43.3496 33.9101L42.9629 33.5233L43.4316 33.8573C43.6895 34.0448 43.9238 34.2206 43.959 34.244ZM35.5391 33.8925C35.5332 33.9628 35.4922 34.0331 35.4512 34.0448C35.416 34.0624 35.3926 34.0214 35.4043 33.9628C35.416 33.9042 35.4277 33.8046 35.4277 33.7401C35.4336 33.6581 35.4512 33.6464 35.498 33.6933C35.5332 33.7284 35.5508 33.8163 35.5391 33.8925ZM36.2188 33.6991C36.1543 33.7401 36.1543 33.8749 36.2246 34.1034C36.2539 34.1913 36.2422 34.2382 36.2012 34.2382C36.1602 34.2382 36.1426 34.2148 36.166 34.1855C36.1836 34.1562 36.166 34.0624 36.1309 33.9804C36.0547 33.8163 36.0957 33.6523 36.207 33.6523C36.2598 33.6523 36.2656 33.6698 36.2188 33.6991ZM36.752 33.9218C36.623 34.0273 36.4941 34.121 36.4648 34.121C36.4355 34.121 36.4297 34.1034 36.4473 34.08C36.4707 34.0624 36.459 34.0097 36.4238 33.9687C36.377 33.9159 36.3945 33.9042 36.4883 33.9276C36.5703 33.9511 36.6523 33.9101 36.7578 33.7987C36.8398 33.7108 36.9219 33.6581 36.9453 33.6815C36.9688 33.705 36.8809 33.8105 36.752 33.9218ZM37.502 33.8339C37.4551 33.9276 37.4023 33.998 37.3848 33.9804C37.3496 33.9511 37.5195 33.6523 37.5664 33.6523C37.584 33.6523 37.5547 33.7343 37.502 33.8339ZM38.457 33.9745C38.2813 34.1972 37.7949 34.455 37.1328 34.6542C36.3652 34.8944 35.8965 35.0761 35.6855 35.2167C35.5449 35.3105 35.498 35.328 35.5508 35.2636C35.6797 35.1054 37.4434 34.2968 38.0527 34.1151C38.1582 34.0858 38.3164 33.9804 38.4043 33.8925C38.6211 33.6698 38.6504 33.7167 38.457 33.9745ZM37.9121 33.9159C37.8945 33.9687 37.8652 33.998 37.8535 33.9804C37.8359 33.9628 37.8418 33.9276 37.8652 33.8925C37.918 33.7987 37.9531 33.8163 37.9121 33.9159ZM45.2598 34.2675C45.2305 34.3261 45.1543 34.3495 45.002 34.3437C44.7793 34.3378 44.7793 34.3378 44.9727 34.3144C45.0781 34.2968 45.1836 34.2499 45.2012 34.203C45.2188 34.1562 45.248 34.1269 45.2598 34.1444C45.2773 34.162 45.2773 34.2148 45.2598 34.2675ZM35.2227 34.8065C35.2168 35.123 35.1816 35.3866 35.1348 35.4745L35.0527 35.6151L35.0352 35.4804C35.0234 35.4101 34.9941 35.3515 34.9648 35.3515C34.9063 35.3515 34.7891 35.8144 34.7891 36.0546V36.2421L35.0527 36.0077C35.1934 35.8847 35.4746 35.7206 35.6738 35.6503C36.1074 35.4862 36.1953 35.5214 35.7793 35.6913C35.6152 35.7616 35.498 35.8437 35.5215 35.8788C35.5801 35.9726 35.7383 35.9433 36.043 35.7733C36.3828 35.5858 36.5 35.4335 36.3711 35.3515C36.3242 35.3222 36.3008 35.2929 36.3242 35.2929C36.3418 35.2929 36.4004 35.2753 36.4473 35.2577C36.5117 35.2343 36.541 35.2694 36.5586 35.3925L36.5762 35.5565L36.8281 35.2987C36.9688 35.164 37.0918 35.0585 37.1094 35.0702C37.1211 35.0878 37.0918 35.2343 37.0391 35.4042C36.9922 35.5741 36.9629 35.7265 36.9746 35.7382C36.9863 35.7499 37.0684 35.7089 37.1504 35.6386C37.2383 35.5741 37.3086 35.539 37.3086 35.5565C37.3086 35.6327 36.5234 36.7284 35.9375 37.4784C35.6094 37.8944 35.1992 38.4335 35.0234 38.6855C34.6543 39.2011 33.5 40.6308 32.9551 41.2401C32.7559 41.4687 32.5156 41.744 32.4277 41.8554C32.2695 42.0487 32.2754 42.0429 32.4395 41.7851C32.5391 41.6327 32.6211 41.4862 32.6211 41.4569C32.6211 41.4276 32.7734 41.2401 32.9551 41.0292C33.4648 40.455 33.4941 40.4081 33.248 40.5956C32.7441 40.9706 31.2148 42.7929 31.2148 43.0155C31.2148 43.0858 31.1973 43.0976 31.168 43.0448C31.1211 42.9687 30.752 43.3026 30.5469 43.6132C30.4883 43.7069 30.4531 43.7245 30.4531 43.6659C30.4531 43.619 30.6816 43.2616 30.957 42.8749C31.2676 42.453 31.3906 42.248 31.2734 42.3534C31.0449 42.5585 31.0625 42.5292 31.5547 41.7792C31.7598 41.4628 31.9121 41.1874 31.8945 41.1698C31.877 41.1464 31.6719 41.2284 31.4492 41.3398C31.0156 41.5624 30.9336 41.5448 31.2031 41.2812C31.291 41.1933 31.4434 41.0175 31.5371 40.8944C31.6309 40.7655 31.7891 40.5898 31.8828 40.496L32.0645 40.3319L31.7188 40.4784C31.502 40.578 31.3848 40.6015 31.4023 40.5546C31.4199 40.5136 31.4785 40.3378 31.5371 40.162C31.6133 39.9335 31.6836 39.8222 31.8125 39.7519C31.9707 39.6698 32.8027 38.9901 33.0313 38.7675C33.1074 38.6855 33.1016 38.6855 32.9727 38.7499C32.8906 38.7909 32.6563 38.9491 32.4512 39.0898C32.1055 39.33 32.082 39.3417 32.1934 39.1835C32.7148 38.4745 33.6172 37.8827 33.6172 38.2519C33.6172 38.2929 33.541 38.3983 33.4414 38.4745C33.2715 38.621 33.2715 38.6269 33.3887 38.662C33.4648 38.6913 33.6172 38.6444 33.8105 38.5448C34.1797 38.3515 34.5547 38.2108 34.5547 38.2694C34.5547 38.2929 34.502 38.3866 34.4316 38.4862C34.25 38.7616 34.0156 39.2245 34.0508 39.2597C34.1152 39.3241 34.3848 39.2069 34.584 39.037C34.8418 38.8085 34.8184 38.7616 34.5313 38.9257C34.4199 38.996 34.2969 39.0429 34.2617 39.0312C34.2266 39.0194 34.3145 38.8261 34.4609 38.6034C34.6074 38.3749 34.7305 38.1757 34.7305 38.1523C34.7305 38.0878 34.0684 38.287 33.8633 38.4101C33.7578 38.4745 33.6582 38.5155 33.6406 38.5038C33.5996 38.4569 33.7285 38.1464 33.8105 38.0937C33.8516 38.0644 33.8281 38.0468 33.7402 38.0468C33.6055 38.0468 33.6113 38.0351 33.8281 37.8241C33.9512 37.7069 34.1738 37.455 34.3145 37.2675C34.4551 37.0858 34.7539 36.7636 34.9766 36.5585C35.3633 36.1894 35.4512 36.0546 35.2988 36.0546C35.2168 36.0546 34.5547 36.6815 34.5547 36.7636C34.5547 36.7929 34.5254 36.8163 34.4961 36.8163C34.4551 36.8163 34.4551 36.7753 34.4961 36.6991C34.5313 36.6288 34.584 36.4413 34.6133 36.2714C34.6426 36.1015 34.6777 35.9198 34.7012 35.8612C34.7773 35.6796 34.5781 35.7499 34.3789 35.9784C34.209 36.1718 34.1914 36.2128 34.2266 36.4589C34.2559 36.6757 34.2324 36.8163 34.1035 37.162C33.957 37.537 33.8984 37.619 33.6172 37.8358C33.4414 37.9706 33.1426 38.1698 32.9609 38.2694C32.7734 38.3749 32.4629 38.6386 32.2637 38.8554C31.9707 39.1776 31.9238 39.2128 32.0059 39.0429C32.0645 38.9315 32.1465 38.7909 32.1934 38.7382C32.2813 38.6386 32.252 38.3983 32.1523 38.3983C32.0586 38.3983 31.6543 38.914 31.5723 39.1366C31.5313 39.2597 31.332 39.6405 31.1328 39.9745C30.8691 40.4257 30.6875 40.6601 30.4355 40.871C30.0723 41.1698 29.75 41.3632 29.75 41.2812C29.75 41.1991 30.3535 40.6483 30.5586 40.5429C30.6758 40.4843 30.7461 40.4023 30.7461 40.3319C30.7461 40.1913 30.7227 40.1855 30.5293 40.3144L30.377 40.414L30.4707 40.2323C30.5234 40.1327 30.7109 39.9276 30.8867 39.7753C31.127 39.5702 31.2324 39.4296 31.3027 39.2187C31.3965 38.9315 32.0996 38.0526 32.3281 37.9296C32.4688 37.8534 32.4688 37.871 32.3633 38.1347C32.2402 38.4218 32.3223 38.3866 32.5801 38.0468C32.8379 37.7069 32.8555 37.619 32.6387 37.8183L32.4805 37.9589L32.627 37.7773C32.7031 37.6776 32.7852 37.619 32.8027 37.6483C32.8203 37.6776 32.9316 37.5898 33.0488 37.4491C33.2715 37.1796 33.2891 37.0741 33.084 37.2616L32.9551 37.373L32.9961 37.203C33.0488 36.998 33.6934 36.0136 34.0742 35.5741C34.373 35.2167 34.8184 34.8827 34.9824 34.8827C35.082 34.8827 35.0879 34.8534 35.0586 34.6776C35.0117 34.4315 35.0645 34.2206 35.1582 34.2558C35.2051 34.2733 35.2285 34.4491 35.2227 34.8065ZM37.959 34.748C37.7305 35.0937 37.5605 35.2636 37.3262 35.3925C37.0449 35.5507 37.0977 35.4745 37.8887 34.6015C38.1641 34.2968 38.2109 34.3847 37.959 34.748ZM37.502 34.912C37.3848 35.0702 37.3086 35.0995 37.3086 34.9823C37.3086 34.9179 37.4727 34.7948 37.5898 34.7714C37.6016 34.7655 37.5605 34.83 37.502 34.912ZM35.627 35.0292C35.6094 35.0819 35.5801 35.1112 35.5684 35.0937C35.5508 35.0761 35.5566 35.0409 35.5801 35.0058C35.6328 34.912 35.668 34.9296 35.627 35.0292ZM41.5801 40.83C41.5859 41.6151 41.5215 42.0898 41.4102 42.0898C41.2813 42.0898 41.1758 41.8905 41.1816 41.662C41.1992 40.6542 41.2754 39.9921 41.3809 39.828L41.4922 39.6581L41.5332 39.8339C41.5566 39.9276 41.5742 40.3788 41.5801 40.83ZM31.4492 40.7187C31.4492 40.8183 31.1797 41.1698 30.9688 41.3515C30.8398 41.4628 30.6055 41.7265 30.459 41.9374C30.3066 42.1483 29.9492 42.5351 29.668 42.7987C29.3867 43.0624 29 43.4843 28.8125 43.7304C28.5195 44.1112 27.6172 44.9608 27.5 44.9608C27.4473 44.9608 27.459 44.7323 27.5234 44.6151C27.5527 44.5565 27.6523 44.4921 27.7402 44.4745C28.0391 44.4159 28.4258 44.0058 28.7188 43.4433C29.0234 42.8573 29.0645 42.705 28.8359 43.0565C28.6309 43.3612 28.4727 43.537 28.2559 43.6894C28.0625 43.8241 28.0625 43.8241 28.5313 43.2323C28.707 43.0038 28.959 42.664 29.0879 42.4706C29.2227 42.2773 29.4277 42.0253 29.5508 41.914L29.7734 41.7089L29.5566 41.9608C29.2344 42.33 29.2871 42.5644 29.6504 42.371C29.832 42.2773 31.1035 41.0585 31.2324 40.8534C31.332 40.7011 31.4492 40.6249 31.4492 40.7187ZM31.707 41.3983C31.6484 41.4687 31.5078 41.621 31.4023 41.7382C31.2969 41.8495 31.1152 42.0956 30.998 42.2831C30.8809 42.4648 30.7754 42.6054 30.7637 42.5937C30.6992 42.5292 31.1914 41.7206 31.4258 41.5038C31.6953 41.2519 31.8945 41.1815 31.707 41.3983ZM32.1406 42.2655C32.0117 42.4413 31.9355 42.5058 32.0117 42.3651C32.0645 42.2714 32.2227 42.0898 32.252 42.0898C32.2637 42.0898 32.2168 42.1659 32.1406 42.2655ZM30.2773 43.9179C30.2773 43.9765 29.4277 45.5409 29.2578 45.787C29.0938 46.0273 28.2676 47.0116 28.2441 46.994C28.2207 46.9648 28.7656 46.1503 29.1406 45.6581C29.3691 45.3593 29.9082 44.5214 30.1309 44.1288L30.2188 43.9648L30.0605 44.0292C29.8965 44.0878 29.75 44.0644 29.75 43.9706C29.75 43.9179 29.8965 43.8827 30.1777 43.8534C30.2305 43.8534 30.2773 43.8769 30.2773 43.9179ZM29.3984 44.6737C29.1582 45.2831 28.9238 45.6464 28.3613 46.2968C27.9336 46.7948 27.8691 46.953 28.2617 46.5546C28.4727 46.3378 28.502 46.3202 28.4082 46.4667C28.3379 46.5722 28.2559 46.6718 28.2266 46.6894C28.1973 46.7069 28.0391 46.9823 27.875 47.2929C27.7168 47.6034 27.459 48.0136 27.3066 48.2011L27.0254 48.5468L26.9785 48.3183C26.9492 48.1952 26.9199 48.037 26.9023 47.9608C26.8906 47.8905 26.8555 47.8319 26.8262 47.8319C26.75 47.8319 26.6445 48.1132 26.6445 48.3183C26.6387 48.6054 26.5039 48.9159 26.2344 49.2616C26.0996 49.4374 25.9414 49.7069 25.8828 49.8651C25.7773 50.1405 25.6953 50.205 25.6602 50.0351C25.6309 49.912 25.8887 49.4374 26.1992 49.039C26.4277 48.7401 26.4688 48.6523 26.4688 48.4237C26.4688 47.9843 26.5684 47.7382 26.832 47.5097C26.9668 47.3983 27.0957 47.3046 27.125 47.3046C27.1543 47.3046 27.166 47.4101 27.1602 47.539C27.1484 47.662 27.166 47.7733 27.2012 47.7792C27.2305 47.7851 27.3711 47.6269 27.5117 47.4159C27.7402 47.0937 27.7637 47.0175 27.7402 46.8124C27.6992 46.5194 27.8809 46.244 28.4199 45.7636C28.6367 45.5761 28.9004 45.2714 29.0234 45.0605C29.2813 44.6327 29.457 44.3749 29.4922 44.3749C29.5039 44.3749 29.4629 44.5097 29.3984 44.6737ZM28.127 45.078C28.1445 45.1425 28.1152 45.2245 28.0684 45.2655C27.9863 45.33 27.9805 45.3241 28.0156 45.1952C28.0449 45.1015 27.8105 45.3065 27.3359 45.7929C26.4688 46.6894 26.2988 46.7597 26.6387 46.0858C26.7617 45.8398 26.9258 45.5819 27.002 45.5175C27.1426 45.3944 27.1426 45.4003 26.9668 45.8046C26.873 46.0214 26.9023 46.0097 27.4355 45.4999C27.752 45.2011 28.0273 44.9608 28.0508 44.9608C28.0742 44.9608 28.1094 45.0136 28.127 45.078ZM28.8125 45.1366C28.7422 45.2304 28.6719 45.3124 28.6602 45.3124C28.6191 45.3124 28.6895 45.1952 28.8008 45.0605C28.9414 44.9023 28.9473 44.9433 28.8125 45.1366ZM24.0137 49.1151C23.5977 49.578 23.2402 49.9062 23.5684 49.5312C23.8086 49.2499 24.3828 48.6523 24.4063 48.6523C24.418 48.6523 24.2422 48.8573 24.0137 49.1151ZM25.6133 48.8983C25.5605 49.0038 25.502 49.0624 25.4902 49.0214C25.4609 48.9452 25.6484 48.6288 25.6895 48.6757C25.707 48.6874 25.6719 48.787 25.6133 48.8983ZM24.8691 49.6483C24.8516 49.7128 24.8633 49.7773 24.8926 49.7948C24.9395 49.83 24.8867 49.9062 24.582 50.2577L24.4238 50.4394L24.4824 50.1815C24.5293 49.9648 24.7871 49.5312 24.8691 49.5312C24.8867 49.5312 24.8867 49.5839 24.8691 49.6483ZM25.4727 49.7773C25.4727 49.8183 25.4316 49.9003 25.3848 49.9648C25.3262 50.0409 25.3203 50.1054 25.3555 50.1815C25.4492 50.3515 25.4258 50.4569 25.209 50.7675C25.0977 50.9315 25.0039 51.1249 25.0039 51.1952C24.998 51.4062 24.793 51.7987 24.3711 52.3612C24.002 52.8534 23.0352 53.9843 22.6777 54.3358C22.5254 54.4823 23.1875 53.5917 23.8496 52.7597C24.3301 52.1503 24.7813 51.4706 24.7578 51.3944C24.7402 51.3534 24.6816 51.4003 24.6172 51.4882C24.4414 51.7519 23.9961 52.2265 23.9375 52.2265C23.9023 52.2265 23.9609 52.1269 24.0605 52.0038C24.3418 51.6698 24.3594 51.6464 24.3594 51.5995C24.3594 51.5761 24.5586 51.3183 24.7988 51.037C25.2969 50.4452 25.3438 50.3456 25.209 50.1405C25.1152 49.994 25.1152 49.9823 25.2441 49.8476C25.3906 49.6952 25.4727 49.6659 25.4727 49.7773ZM25.7715 50.5507C25.4785 50.9257 25.2676 51.119 25.4727 50.8202C25.6836 50.5155 25.9648 50.1815 25.9941 50.205C26.0059 50.2226 25.9063 50.3749 25.7715 50.5507ZM24.5352 51.1015C24.3652 51.3476 24.1309 51.6288 24.0137 51.7284L23.8086 51.9042L23.9141 51.7284C23.9727 51.6288 24.1836 51.3534 24.3945 51.119C24.5996 50.8788 24.7695 50.6562 24.7695 50.6269C24.7695 50.5917 24.7871 50.5858 24.8105 50.6034C24.8281 50.6269 24.7051 50.8495 24.5352 51.1015ZM24.0723 51.8925C23.9961 51.9628 23.9551 51.9804 23.9785 51.9335C24.0605 51.7812 24.1426 51.6933 24.1719 51.7284C24.1895 51.746 24.1426 51.8222 24.0723 51.8925ZM23.5508 52.9706C23.4512 53.0937 23.2871 53.287 23.1875 53.3983L23 53.6034L23.1934 53.3398C23.3926 53.0644 23.6621 52.7538 23.7031 52.7538C23.7148 52.7538 23.6445 52.8534 23.5508 52.9706Z" fill="white"/>
<path d="M42.7285 17.7386C42.7051 17.8323 42.5059 18.1019 42.2949 18.3304C41.8965 18.7581 41.5859 19.3558 41.5859 19.6897C41.5859 19.9183 42.3008 21.1194 42.3887 21.0315C42.4063 21.0198 42.3887 20.8675 42.3535 20.6917C42.3125 20.4983 42.3066 20.3108 42.3418 20.2054C42.3828 20.0589 42.3652 19.9886 42.2539 19.8245C42.1777 19.7132 42.1133 19.5433 42.1133 19.4437C42.1133 19.18 42.3125 18.5179 42.4531 18.2952L42.582 18.096L42.5469 18.3714C42.5234 18.5296 42.5234 18.6526 42.5352 18.6526C42.5527 18.6526 42.623 18.4944 42.6934 18.3069C42.7988 18.0198 42.9512 17.8323 43.0273 17.9026C43.0332 17.9144 42.9805 18.1077 42.9043 18.3304C42.752 18.7933 42.8691 18.6878 43.0508 18.2015C43.2031 17.7855 43.2031 17.7562 42.998 17.803C42.8516 17.8323 42.8223 17.8206 42.8047 17.7034C42.7813 17.5745 42.7754 17.5804 42.7285 17.7386Z" fill="white"/>
<path d="M41.6621 20.6733C41.6797 20.7378 41.7266 20.9077 41.7617 21.0542C41.8613 21.4351 42.0898 21.8101 42.2598 21.8511C42.6289 21.9448 42.6055 21.6636 42.2129 21.2417C42.043 21.0601 41.8379 20.8257 41.7676 20.7319C41.668 20.6089 41.6387 20.5913 41.6621 20.6733Z" fill="white"/>
<path d="M44.4043 17.9428C44.2344 18.3471 44.252 18.3998 44.4336 18.0131C44.5098 17.8373 44.5684 17.685 44.5508 17.6733C44.5391 17.6615 44.4746 17.7846 44.4043 17.9428Z" fill="white"/>
<path d="M40.9238 24.4945C40.9004 24.5121 40.8828 24.5589 40.8828 24.5941C40.8828 24.6293 40.9121 24.6234 40.9531 24.5824C40.9883 24.5472 41.0059 24.5004 40.9941 24.4828C40.9766 24.4652 40.9414 24.4711 40.9238 24.4945Z" fill="white"/>
<path d="M36.2598 26.9317C36.2715 26.9376 36.3359 26.9845 36.4004 27.0313C36.5117 27.1134 36.5117 27.1134 36.4355 27.0138C36.3945 26.961 36.3301 26.9141 36.2949 26.9141C36.2598 26.9141 36.248 26.92 36.2598 26.9317Z" fill="white"/>
<path d="M38.1582 30.834C38.1406 30.8633 38.1523 30.9043 38.1875 30.9278C38.2168 30.9453 38.2461 30.9219 38.2461 30.875C38.2461 30.7696 38.2109 30.752 38.1582 30.834Z" fill="white"/>
<path d="M37.6602 31.2554C37.6602 31.2847 37.6895 31.2964 37.7188 31.2789C37.7539 31.2613 37.7773 31.232 37.7773 31.2144C37.7773 31.2027 37.7539 31.191 37.7188 31.191C37.6895 31.191 37.6602 31.2203 37.6602 31.2554Z" fill="white"/>
<path d="M37.0273 31.4553C36.8867 31.631 36.8691 31.6955 36.9512 31.7424C36.9805 31.7599 37.0215 31.7131 37.0391 31.631C37.0625 31.549 37.1035 31.4846 37.1328 31.4846C37.168 31.4846 37.1621 31.5314 37.1211 31.6017C37.0332 31.7424 37.1035 31.8303 37.2148 31.7131C37.2793 31.6486 37.2793 31.6017 37.2207 31.4611L37.1504 31.2971L37.0273 31.4553Z" fill="white"/>
<path d="M36.6875 33.4883L36.5762 33.623L36.7109 33.5117C36.7812 33.4473 36.8398 33.3887 36.8398 33.377C36.8398 33.3301 36.793 33.3652 36.6875 33.4883Z" fill="white"/>
<path d="M32.7441 39.4178C32.334 39.7107 32.0469 40.0096 32.1055 40.074C32.123 40.0857 32.2051 40.0096 32.293 39.8924C32.3809 39.7752 32.5918 39.6053 32.7617 39.5056C33.0605 39.3416 33.3418 39.0955 33.2305 39.1072C33.2012 39.1072 32.9844 39.2478 32.7441 39.4178Z" fill="white"/>
<path d="M32.2578 40.1151C32.1641 40.1503 32.0938 40.1972 32.0938 40.2265C32.0938 40.2968 32.1582 40.2792 32.3867 40.1561C32.6035 40.039 32.5215 40.0097 32.2578 40.1151Z" fill="white"/>
<path d="M32.4453 40.9526C32.2695 41.0639 32.1816 41.1401 32.2578 41.1225C32.3281 41.0991 32.3867 41.0991 32.3867 41.1167C32.3867 41.1343 32.2285 41.3276 32.0352 41.5386C31.8359 41.7553 31.6543 41.9839 31.6191 42.0542C31.5313 42.2358 32.2578 41.4448 32.3691 41.2397C32.416 41.1401 32.5449 40.9936 32.6445 40.9057C32.8906 40.6889 32.832 40.7065 32.4453 40.9526Z" fill="white"/>
<path d="M58.2266 14.5508C58.2266 14.5801 58.2559 14.6094 58.291 14.6094C58.3203 14.6094 58.332 14.5801 58.3145 14.5508C58.2969 14.5156 58.2676 14.4922 58.25 14.4922C58.2383 14.4922 58.2266 14.5156 58.2266 14.5508Z" fill="white"/>
<path d="M57.4414 15.5176C57.4648 15.5645 57.4883 15.6055 57.5 15.6055C57.5117 15.6055 57.5234 15.5645 57.5234 15.5176C57.5234 15.4707 57.5 15.4297 57.4648 15.4297C57.4355 15.4297 57.4238 15.4707 57.4414 15.5176Z" fill="white"/>
<path d="M54.752 17.4045C54.7344 17.4338 54.7402 17.4924 54.7637 17.5334C54.8047 17.592 54.8223 17.592 54.8574 17.5393C54.8809 17.5041 54.875 17.4455 54.8398 17.4104C54.8105 17.3811 54.7695 17.3752 54.752 17.4045Z" fill="white"/>
<path d="M55.3027 28.2792C55.1914 28.5604 55.4023 28.8593 55.5313 28.6073C55.6074 28.4784 55.5664 28.3026 55.4434 28.203C55.373 28.1444 55.3496 28.1561 55.3027 28.2792Z" fill="white"/>
<path d="M34.6133 28.4375C34.6133 28.4668 34.6426 28.4961 34.6719 28.4961C34.707 28.4961 34.7305 28.4668 34.7305 28.4375C34.7305 28.4023 34.707 28.3789 34.6719 28.3789C34.6426 28.3789 34.6133 28.4023 34.6133 28.4375Z" fill="white"/>
<path d="M42.8164 42.9922C42.8164 43.0743 42.8457 43.1563 42.875 43.1739C42.9102 43.1973 42.9336 43.1329 42.9336 43.0333C42.9336 42.9337 42.9102 42.8516 42.875 42.8516C42.8457 42.8516 42.8164 42.9161 42.8164 42.9922Z" fill="white"/>
<path d="M40.1328 45.7339C40.168 45.8393 40.2969 45.8569 40.2969 45.7573C40.2969 45.7046 40.2559 45.6635 40.2031 45.6635C40.1504 45.6635 40.1211 45.6928 40.1328 45.7339Z" fill="white"/>
<path d="M40.332 47.006C40.3086 47.047 40.3027 47.0939 40.3203 47.1115C40.3731 47.1642 40.4316 47.088 40.4023 47.006C40.3789 46.9416 40.3672 46.9416 40.332 47.006Z" fill="white"/>
</g>
<defs>
<clipPath id="clip0_625_1199">
<rect width="70" height="70" fill="white"/>
</clipPath>
</defs>
</svg>
