<svg width="70" height="70" viewBox="0 0 70 70" fill="none" xmlns="http://www.w3.org/2000/svg">
<g clip-path="url(#clip0_631_3)">
<path d="M31.192 0.168491C30.912 0.392491 31.01 1.31649 31.304 1.20449C31.402 1.16249 31.71 1.09249 31.976 1.03649C32.62 0.924491 32.69 0.784491 32.382 0.350491C32.102 -0.0275085 31.556 -0.111509 31.192 0.168491Z" fill="black"/>
<path d="M38.738 0.825981C38.514 0.965981 38.08 1.13399 37.758 1.18999C37.282 1.27399 37.226 1.30199 37.45 1.39999C37.716 1.49799 37.702 1.51199 37.38 1.58199C37.184 1.62399 36.694 1.70798 36.274 1.74998C35.588 1.83398 35.49 1.80598 35.224 1.48399C35.056 1.30199 34.706 1.10599 34.44 1.04999C34.034 0.965981 33.978 0.97998 34.132 1.13399C34.622 1.65199 33.95 1.88998 33.32 1.39999C32.984 1.14799 32.97 1.14799 32.69 1.39999C32.466 1.59599 32.018 1.69398 30.562 1.80598C29.554 1.90398 28.42 2.05798 28.042 2.16998C27.118 2.44998 27.104 2.42198 27.972 2.02998C28.406 1.83398 28.7 1.60999 28.7 1.46999C28.7 1.23199 28.602 1.18999 27.832 1.04999C27.342 0.97998 27.3 0.99398 27.3 1.31599C27.3 1.55399 27.146 1.76398 26.852 1.97398C26.6 2.14198 26.362 2.30998 26.334 2.33798C26.306 2.35198 26.362 2.63198 26.46 2.95399C26.628 3.45798 26.698 3.51398 27.034 3.47198C27.258 3.42999 27.384 3.47198 27.342 3.54198C27.188 3.80798 26.306 4.05998 25.592 4.05998C24.864 4.04598 24.85 4.04598 25.27 3.86398L25.69 3.68198L25.172 3.42999C24.738 3.21999 24.584 3.20599 24.276 3.34599C23.842 3.54198 23.688 3.45798 23.94 3.14999C24.038 3.02399 24.094 2.91199 24.066 2.88399C23.996 2.82799 20.468 3.84998 18.76 4.40999C17.122 4.94199 15.064 6.01999 14.168 6.80399C13.426 7.44799 13.384 7.62999 13.93 7.72799C14.084 7.75599 14.21 7.83998 14.21 7.90998C14.224 7.99398 14.28 8.20399 14.336 8.38599L14.448 8.72198L14.63 8.28799C14.854 7.76999 15.246 7.50399 16.31 7.12598C17.178 6.81799 17.388 6.85999 17.038 7.23798C16.786 7.53199 16.324 8.66599 16.17 9.37999L16.072 9.86999L16.492 9.30999C16.716 9.00199 17.29 8.38599 17.766 7.95198C18.48 7.27999 18.62 7.06998 18.634 6.64999C18.648 6.38398 18.662 6.07598 18.676 5.97798C18.704 5.57198 19.67 5.30598 19.992 5.62798C20.118 5.75398 20.006 5.94998 19.53 6.45399C19.18 6.83199 18.9 7.23798 18.9 7.36399C18.9 7.53199 19.068 7.41999 19.46 6.99998C19.922 6.49599 20.062 6.42599 20.384 6.49599C20.804 6.60799 21.28 6.32798 20.972 6.14598C20.874 6.08998 20.832 6.00599 20.86 5.97798C21.168 5.73998 23.086 4.61999 23.212 4.61999C23.45 4.61999 23.562 5.20798 23.394 5.61398C23.324 5.82398 23.016 6.10398 22.722 6.25798C22.428 6.41198 21.7 6.78999 21.098 7.11198C20.244 7.57399 19.866 7.69999 19.32 7.69999C18.732 7.69999 18.62 7.74199 18.62 7.96598C18.62 8.10599 18.718 8.30199 18.83 8.39999C18.942 8.49799 19.04 8.65199 19.04 8.76398C19.04 9.04399 18.326 9.49199 17.556 9.67398C17.178 9.77199 16.38 10.08 15.792 10.388C15.022 10.766 14.7 10.864 14.7 10.724C14.7 10.626 14.854 10.108 15.064 9.58998C15.26 9.05799 15.4 8.46999 15.372 8.27399C15.302 7.68599 14.938 7.83998 14.7 8.56799C14.532 9.11399 14.448 9.21199 14.21 9.15599C14.056 9.11399 13.692 9.18399 13.398 9.30999C13.118 9.42199 12.88 9.47799 12.88 9.42199C12.88 9.36599 13.118 9.07199 13.398 8.76398L13.93 8.21799L13.09 8.80598C12.628 9.14199 11.69 9.78599 10.99 10.262C9.77199 11.088 8.11999 12.586 8.11999 12.838C8.11999 12.908 8.30199 12.95 8.53999 12.908C9.15599 12.824 9.08599 13.118 8.18999 14.21C7.76999 14.714 7.41999 15.176 7.41999 15.204C7.41999 15.33 7.57399 15.246 8.03599 14.84C8.31599 14.588 8.55399 14.476 8.60999 14.546C8.65199 14.63 7.95199 15.428 7.05599 16.31C5.44599 17.92 5.43199 17.948 5.52999 18.452C5.64199 19.04 5.87999 19.39 5.87999 18.956C5.87999 18.144 6.49599 16.8 6.87399 16.8C7.08399 16.8 7.01399 17.248 6.49599 19.264C6.21599 20.342 5.94999 21.714 5.89399 22.33L5.80999 23.45L5.29199 22.61C4.99799 22.148 4.75999 21.868 4.75999 21.994C4.75999 22.12 4.40999 22.652 3.98999 23.17C3.56999 23.674 3.21999 24.122 3.21999 24.15C3.21999 24.164 3.12199 24.416 3.00999 24.696C2.89799 24.976 2.82799 25.2 2.85599 25.2C2.88399 25.2 3.12199 24.878 3.37399 24.472L3.83599 23.758L4.01799 24.164C4.26999 24.752 4.24199 25.228 3.84999 27.3C3.49999 29.19 3.42999 30.366 3.63999 30.87C3.75199 31.122 3.76599 31.122 3.76599 30.786C3.77999 30.338 4.10199 29.89 4.31199 30.016C4.52199 30.142 4.52199 30.996 4.32599 31.906C4.11599 32.9 3.86399 33.012 3.94799 32.06L4.01799 31.332L3.55599 31.402C2.99599 31.5 2.99599 31.486 2.85599 29.61C2.81399 28.84 2.71599 28.07 2.64599 27.888C2.46399 27.412 2.12799 27.51 2.01599 28.07C1.88999 28.784 2.04399 29.666 2.65999 31.57C3.26199 33.446 3.45799 34.3 3.26199 34.3C3.19199 34.3 2.93999 34.034 2.68799 33.712C2.21199 33.096 2.14199 33.138 2.39399 33.852C2.47799 34.09 2.61799 34.272 2.70199 34.258C2.81399 34.244 2.86999 34.594 2.86999 35.462C2.86999 36.134 2.84199 36.68 2.79999 36.68C2.75799 36.68 2.51999 36.554 2.28199 36.4L1.81999 36.12L1.83399 36.512C1.84799 37.296 2.02999 38.15 2.16999 38.108C2.33799 38.052 3.09399 41.006 3.52799 43.428C3.70999 44.394 3.89199 45.136 3.93399 45.052C4.04599 44.87 4.40999 45.528 4.54999 46.186C4.71799 46.942 4.88599 46.41 4.81599 45.36L4.75999 44.45L4.96999 45.22C5.09599 45.64 5.24999 46.662 5.31999 47.488C5.38999 48.328 5.52999 49.294 5.61399 49.658L5.78199 50.302L6.03399 49.994L6.28599 49.686L6.48199 50.162C6.91599 51.198 6.92999 51.282 6.55199 51.212L6.20199 51.142L6.52399 51.632C6.70599 51.898 6.85999 52.262 6.85999 52.43C6.85999 52.71 7.37799 53.34 7.60199 53.34C7.65799 53.34 7.67199 53.172 7.61599 52.962C7.57399 52.738 7.82599 53.088 8.17599 53.718C8.52599 54.362 8.81999 55.02 8.81999 55.202C8.81999 55.86 9.43599 56.756 10.5 57.61C11.074 58.086 11.62 58.604 11.704 58.772C11.858 59.08 13.874 60.998 15.316 62.188C16.366 63.07 18.256 64.33 19.642 65.1C20.286 65.45 20.678 65.744 20.58 65.8C20.426 65.898 24.612 68.292 26.082 68.936C27.678 69.636 29.078 70 30.184 70C30.744 70 31.22 69.958 31.22 69.916C31.22 69.874 31.15 69.72 31.08 69.566C30.982 69.384 30.982 69.3 31.08 69.3C31.15 69.3 31.22 69.188 31.22 69.048C31.22 68.824 31.444 68.81 34.048 68.81C37.1 68.81 38.71 68.614 41.328 67.97C42.112 67.774 42.77 67.62 42.784 67.62C42.812 67.62 42.84 67.914 42.84 68.292C42.84 69.104 43.134 69.58 43.638 69.58H44.002L43.61 69.216C43.288 68.922 43.232 68.782 43.302 68.362C43.4 67.802 43.708 67.41 44.268 67.116C44.632 66.92 44.66 66.934 44.66 67.186C44.66 67.732 45.066 67.76 47.124 67.396C48.188 67.214 49.238 67.018 49.462 66.976C49.798 66.892 49.84 66.92 49.84 67.256C49.84 67.676 49.868 67.69 50.764 67.41C51.142 67.298 51.464 67.2 51.492 67.2C51.506 67.2 51.52 67.424 51.52 67.69C51.52 67.998 51.436 68.222 51.282 68.306C51.142 68.39 51.086 68.46 51.142 68.46C51.338 68.46 52.108 67.872 52.024 67.802C51.982 67.76 52.08 67.536 52.234 67.326L52.514 66.92H51.898C51.548 66.92 51.086 66.878 50.848 66.836C50.47 66.766 50.428 66.71 50.54 66.486C50.624 66.346 50.68 66.024 50.68 65.772V65.296L51.744 65.394L52.808 65.506L53.228 65.03C53.452 64.764 54.124 64.288 54.712 63.952C55.3 63.63 56.014 63.14 56.266 62.874C56.532 62.594 56.7 62.468 56.63 62.58C56.56 62.706 56.63 62.692 56.812 62.524C57.162 62.23 57.246 62.02 56.91 62.3C56.756 62.426 56.7 62.426 56.7 62.314C56.7 62.23 56.798 62.118 56.91 62.076C57.022 62.02 57.12 61.88 57.12 61.74C57.12 61.614 57.302 61.25 57.54 60.928L57.946 60.354L57.204 60.62C56.546 60.844 54.81 61.18 54.306 61.18C54.208 61.18 54.334 60.956 54.6 60.69C54.964 60.312 55.118 60.242 55.314 60.354C55.524 60.466 55.65 60.382 56.014 59.892C56.252 59.556 56.574 59.038 56.728 58.73C57.022 58.156 58.394 56.238 58.786 55.86C58.912 55.734 59.416 55.146 59.92 54.53C60.424 53.914 61.264 52.906 61.796 52.29C63.042 50.834 64.61 48.454 65.52 46.648C66.094 45.486 66.29 45.206 66.5 45.262C66.724 45.318 66.752 45.206 66.808 44.366C66.836 43.848 66.906 43.372 66.948 43.33C67.004 43.274 67.186 43.33 67.368 43.456C67.998 43.904 68.082 43.778 67.97 42.588C67.83 41.076 67.844 40.11 68.026 39.802C68.11 39.662 68.18 39.62 68.18 39.718C68.18 39.928 68.698 40.222 68.88 40.11C68.964 40.054 68.866 39.732 68.67 39.326C68.376 38.766 68.348 38.64 68.53 38.64C68.656 38.64 68.866 38.374 69.02 38.024C69.16 37.688 69.342 37.394 69.426 37.366C69.51 37.324 69.412 36.68 69.16 35.574C68.656 33.502 68.642 33.236 69.034 33.138C69.3 33.068 69.314 33.096 69.23 33.558C69.174 33.908 69.202 34.09 69.328 34.174C69.916 34.552 70.014 34.076 69.58 32.816C69.412 32.368 69.286 31.696 69.286 31.346C69.272 30.73 69.258 30.702 68.922 30.772L68.558 30.842L68.6 28.966C68.67 26.11 68.67 26.096 68.194 25.816C67.844 25.62 67.704 25.326 67.284 23.996C66.668 22.092 65.646 19.782 64.764 18.298C64.414 17.696 64.12 17.108 64.12 17.01C64.12 16.912 63.854 16.52 63.518 16.156C63.196 15.778 62.552 14.994 62.09 14.42C60.956 12.992 58.842 10.906 57.386 9.77199C56.294 8.91799 53.536 7.08398 53.158 6.95798C53.074 6.92999 53.228 6.63599 53.536 6.25798C54.124 5.54398 54.152 5.12399 53.648 4.78799C53.326 4.57799 53.326 4.57799 53.494 4.94199C53.634 5.24998 53.62 5.37598 53.424 5.65598C53.088 6.17398 52.682 6.34198 52.038 6.24398C51.716 6.18798 51.394 6.08998 51.31 6.03399C51.24 5.96398 50.932 5.83798 50.638 5.73998C50.148 5.58598 50.12 5.55798 50.316 5.33398C50.442 5.19398 50.54 5.01199 50.54 4.92799C50.54 4.59199 49.658 3.79398 48.412 2.96799C46.998 2.04398 46.578 1.97398 46.088 2.58998L45.836 2.89799L45.164 2.11398C44.492 1.34399 44.464 1.32999 43.694 1.31599C43.26 1.31599 42.504 1.17599 42 1.02199C41.496 0.867981 40.656 0.699982 40.11 0.643982C39.298 0.587982 39.06 0.615982 38.738 0.825981ZM39.438 0.783981C39.396 0.825981 39.27 0.839981 39.172 0.797981C39.06 0.755981 39.102 0.713982 39.256 0.713982C39.41 0.699982 39.494 0.741982 39.438 0.783981ZM49.392 5.01199C49.588 5.30598 49.588 5.31998 49.154 5.16599C48.72 5.01199 48.636 4.89999 48.818 4.70399C48.958 4.56399 49.168 4.67599 49.392 5.01199ZM12.012 10.388C11.9 10.57 11.536 11.186 11.2 11.76C10.864 12.334 10.57 12.824 10.556 12.852C10.542 12.88 10.374 12.824 10.206 12.726L9.88399 12.558L10.262 12.264C10.472 12.096 10.64 11.9 10.64 11.83C10.64 11.676 12.012 10.08 12.138 10.08C12.18 10.08 12.124 10.22 12.012 10.388ZM9.79999 18.578C9.64599 18.816 9.64599 18.816 9.71599 18.578C9.75799 18.438 9.79999 18.242 9.81399 18.158C9.81399 18.032 9.84199 18.032 9.88399 18.158C9.92599 18.256 9.88399 18.438 9.79999 18.578ZM11.62 19.446C11.62 19.516 11.522 19.642 11.41 19.74C11.242 19.88 11.2 19.88 11.2 19.712C11.2 19.6 11.242 19.46 11.298 19.418C11.424 19.278 11.62 19.292 11.62 19.446ZM9.93999 19.796C9.93999 19.824 9.98199 19.95 10.024 20.062C10.066 20.188 9.88399 20.426 9.54799 20.692L9.01599 21.126L9.22599 20.426C9.37999 19.936 9.50599 19.74 9.68799 19.74C9.82799 19.74 9.93999 19.768 9.93999 19.796ZM10.598 20.384C10.514 20.678 9.98199 21.602 9.42199 22.428C8.86199 23.268 8.13399 24.458 7.81199 25.088L7.20999 26.25L7.16799 24.262C7.13999 22.386 7.15399 22.246 7.44799 21.91C7.61599 21.714 7.82599 21.56 7.93799 21.56C8.03599 21.56 8.21799 21.406 8.34399 21.21C8.59599 20.818 8.81999 20.86 8.81999 21.294C8.81999 21.924 9.89799 21.196 10.388 20.258C10.724 19.586 10.822 19.642 10.598 20.384ZM68.46 27.496C68.46 28.112 68.222 27.762 68.124 27.02C68.04 26.418 68.04 26.404 68.236 26.74C68.362 26.936 68.446 27.272 68.46 27.496ZM6.38399 27.286C6.49599 27.188 6.62199 27.16 6.67799 27.202C6.81799 27.342 6.14599 28.84 5.93599 28.84C5.54399 28.84 5.23599 27.664 5.47399 27.048L5.61399 26.67L5.90799 27.062C6.13199 27.37 6.22999 27.412 6.38399 27.286ZM47.18 66.15C47.18 66.29 47.04 66.36 46.732 66.36L46.27 66.346L46.62 66.15C47.068 65.898 47.18 65.898 47.18 66.15ZM45.948 67.158C46.144 67.41 45.71 67.55 45.248 67.396C44.716 67.214 44.716 66.948 45.248 66.724C45.668 66.542 45.71 66.542 45.766 66.752C45.794 66.878 45.878 67.074 45.948 67.158ZM30.73 68.754C30.926 68.95 30.226 68.894 29.75 68.684C29.33 68.488 29.344 68.488 29.96 68.558C30.31 68.6 30.646 68.684 30.73 68.754Z" fill="black"/>
<path d="M35.742 1.21826C35.952 1.24626 36.288 1.24626 36.512 1.21826C36.722 1.19026 36.54 1.16226 36.12 1.16226C35.7 1.16226 35.518 1.19026 35.742 1.21826Z" fill="black"/>
<path d="M50.932 4.95626C51.1 5.18026 51.24 5.47426 51.24 5.62826C51.24 5.78226 51.31 5.85226 51.38 5.81026C51.66 5.64226 51.506 5.19426 51.072 4.87226L50.61 4.55026L50.932 4.95626Z" fill="black"/>
<path d="M4.648 18.8023C4.326 19.1523 4.256 19.5303 4.48 19.6703C4.564 19.7123 4.62 19.8943 4.62 20.0623C4.634 20.3702 4.634 20.3702 4.844 20.0903C5.026 19.8383 5.026 19.8103 4.844 19.7683C4.564 19.7123 4.564 19.7123 4.83 19.0823C5.096 18.4663 5.04 18.3823 4.648 18.8023Z" fill="black"/>
<path d="M2.31 20.7768C2.128 21.2528 2.114 21.4488 2.226 21.6868C2.52 22.2048 2.66 21.9948 2.66 21.0708C2.66 20.5668 2.632 20.1608 2.604 20.1608C2.576 20.1608 2.436 20.4408 2.31 20.7768Z" fill="black"/>
<path d="M1.63799 23.1003C1.41399 23.4923 1.18999 23.8003 1.13399 23.8003C0.993995 23.8003 0.615995 23.3663 0.531995 23.1003C0.489995 22.9883 0.433995 23.1283 0.405995 23.4083C0.363995 23.6883 0.391995 23.8843 0.447995 23.8563C0.503995 23.8143 0.559995 24.0103 0.559995 24.2763C0.559995 24.5563 0.629995 24.7803 0.699995 24.7803C0.783995 24.7803 0.839995 24.7243 0.839995 24.6543C0.839995 24.5703 1.21799 24.2203 1.67999 23.8703C2.506 23.2263 2.68799 22.9043 2.35199 22.5683C2.09999 22.3163 2.05799 22.3443 1.63799 23.1003Z" fill="black"/>
<path d="M0.699997 25.6207C0.699997 25.7047 0.797997 25.7607 0.909997 25.7607C1.176 25.7607 1.176 25.6767 0.909997 25.5647C0.797997 25.5227 0.699997 25.5507 0.699997 25.6207Z" fill="black"/>
<path d="M67.788 44.1703C67.634 44.5203 67.55 46.3263 67.69 46.1723C67.774 46.0883 68.068 43.9463 67.998 43.8763C67.97 43.8483 67.872 43.9743 67.788 44.1703Z" fill="black"/>
<path d="M64.806 49.1684C64.68 49.6444 64.54 50.1484 64.484 50.2744C64.33 50.6104 65.002 50.4564 65.352 50.0644C65.842 49.5464 65.856 49.2104 65.422 48.7204L65.016 48.2724L64.806 49.1684Z" fill="black"/>
<path d="M63.98 50.9742C63.882 51.1282 63.84 51.2962 63.882 51.3242C63.91 51.3522 64.008 51.2262 64.092 51.0302C64.288 50.6102 64.19 50.5682 63.98 50.9742Z" fill="black"/>
<path d="M63.434 52.3887C63.126 53.3127 63.168 53.3127 63.756 52.4307L64.12 51.8707V52.4307C64.106 52.7387 64.022 53.1447 63.91 53.3407C63.406 54.2227 63.826 54.6147 64.596 53.9987C64.946 53.7047 64.974 53.6347 64.834 53.3547C64.722 53.1727 64.694 52.8227 64.764 52.4307C64.848 51.8427 64.834 51.8007 64.47 51.6607C63.84 51.4227 63.742 51.4927 63.434 52.3887Z" fill="black"/>
<path d="M60.774 55.5239C60.774 55.6919 60.41 56.2099 59.99 56.6859C59.248 57.5119 59.052 57.9879 59.36 58.1699C59.612 58.3239 59.514 58.4919 59.122 58.5899L58.73 58.7019L59.136 58.8139C59.416 58.8979 59.626 58.8559 59.878 58.7019L60.228 58.4639L59.906 58.2399C59.416 57.8619 59.64 57.5399 60.41 57.5399H61.04L61.026 56.9379C61.026 56.2799 60.802 55.0619 60.774 55.5239Z" fill="black"/>
<path d="M62.37 55.5942C62.314 55.6782 62.3 55.7622 62.342 55.8042C62.37 55.8462 62.44 55.7762 62.482 55.6502C62.58 55.4122 62.496 55.3702 62.37 55.5942Z" fill="black"/>
<path d="M61.81 56.7982C61.6 57.1342 61.46 57.4422 61.488 57.4702C61.502 57.4842 61.726 57.5542 61.964 57.5962C62.342 57.6802 62.454 57.6382 62.706 57.3162C63.098 56.8262 63.084 56.6722 62.58 56.3922L62.174 56.1682L61.81 56.7982Z" fill="black"/>
<path d="M58.786 59.5985L58.31 60.1025L58.758 59.7945C59.234 59.4725 59.43 59.2485 59.332 59.1365C59.304 59.1085 59.052 59.3185 58.786 59.5985Z" fill="black"/>
<path d="M52.85 66.6403C52.808 66.7103 52.836 66.7803 52.906 66.7803C52.99 66.7803 53.06 66.7103 53.06 66.6403C53.06 66.5563 53.032 66.5003 53.004 66.5003C52.962 66.5003 52.892 66.5563 52.85 66.6403Z" fill="black"/>
<path d="M48.37 68.1939C47.782 68.7959 47.726 68.8939 48.02 68.8099C48.622 68.6419 49.21 68.2499 49.252 67.9839C49.364 67.4239 49.028 67.5079 48.37 68.1939Z" fill="black"/>
<path d="M45.57 68.0399L45.01 68.2919L45.542 68.3059C45.892 68.3199 46.102 68.2499 46.158 68.1099C46.284 67.7739 46.172 67.7599 45.57 68.0399Z" fill="black"/>
<path d="M37.17 69.0203C35.784 69.1603 33.992 69.2863 33.18 69.3003L31.71 69.3283L33.11 69.5943C33.908 69.7623 35.434 69.9023 36.68 69.9583L38.85 70.0283L38.5 69.7483L38.15 69.4683L38.5 69.3143C38.696 69.2443 39.354 69.1323 39.97 69.0763C40.796 69.0063 40.992 68.9503 40.74 68.8663C40.25 68.7263 40.026 68.7403 37.17 69.0203Z" fill="black"/>
<path d="M33.6016 14.15C33.4082 14.2262 33.0332 14.5953 32.916 14.818C32.6172 15.3805 32.5937 16.359 32.8105 18.5973C33.0332 20.8766 32.998 21.9254 32.6699 23.109C32.5059 23.6891 32.5117 23.8473 32.7344 24.5094C32.9102 25.0368 32.9219 25.1305 32.9219 25.9215C32.9277 26.8766 32.8574 27.1989 32.5352 27.7321C32.2773 28.1598 32.0723 28.3063 31.8789 28.2184C31.498 28.0485 31.3223 27.1637 31.4453 26.0211C31.5742 24.8082 31.5566 24.609 31.2109 23.5719C30.8594 22.5172 30.7656 21.902 30.6719 20.0914C30.5957 18.6442 30.5664 18.3219 30.4551 17.8063C30.2031 16.652 29.4648 15.9078 28.7207 16.0719C28.4219 16.1422 27.9766 16.4586 27.9766 16.6051C27.9766 16.6344 28.1582 16.7457 28.3867 16.8453C28.6094 16.9508 28.791 17.0446 28.7793 17.0504C28.7734 17.0621 28.5684 16.9977 28.334 16.9157C27.9121 16.7633 27.9004 16.7633 27.8184 16.8746C27.7773 16.9332 27.748 17.0153 27.7539 17.0563C27.7656 17.0973 28.1582 17.3258 28.6328 17.5602C29.1074 17.8004 29.4824 18.0114 29.459 18.0348C29.3828 18.1051 28.9375 18.0641 28.709 17.9586C28.5801 17.9 28.3457 17.7711 28.1875 17.6657C27.8184 17.4371 27.6836 17.4313 27.6836 17.6422C27.6836 18.1286 28.1406 20.7184 28.2168 20.6715C28.3281 20.6071 28.9727 21.0758 28.9727 21.2282C28.9727 21.3571 28.7441 21.2868 28.4805 21.0875C28.334 20.9762 28.2109 20.9059 28.2109 20.9293C28.2109 20.9586 28.2871 21.3512 28.3809 21.8082C28.5918 22.8278 28.6504 23.525 28.5625 24.1051C28.5273 24.3453 28.4805 24.7848 28.4629 25.0778L28.4277 25.6168L28.7266 26.2496C29.207 27.2985 29.4414 28.2243 29.4414 29.1207C29.4414 30.7203 28.6562 31.5465 28.123 30.4977C28.0586 30.3629 28.0059 30.07 27.9766 29.6188L27.9297 28.9391L27.5254 28.1481C27.0332 27.1871 26.8047 26.3493 26.6289 24.82C26.5645 24.2633 26.4824 23.6832 26.4473 23.5309C26.3535 23.1442 26.0898 22.5875 25.9023 22.3649C25.5801 21.9782 24.9355 21.82 24.5723 22.0368C24.1855 22.2653 24.0391 22.9625 24.1855 23.8414C24.2383 24.1461 24.2793 24.6911 24.2734 25.1305C24.2734 26.0563 24.3379 26.3961 24.8477 28.0192C25.2754 29.3786 25.5098 30.2868 25.6797 31.2008C25.791 31.7926 26.0898 32.6774 26.2539 32.9235C26.3359 33.0348 26.3359 33.0348 26.3359 32.9118C26.3359 32.8473 26.2598 32.4664 26.166 32.068C25.9609 31.2125 25.8496 30.4332 25.9023 30.2868C25.9609 30.1403 26.5117 31.4645 26.7051 32.2203C26.9102 33.0055 27.2969 34.8102 27.4492 35.6774C27.5898 36.4918 27.7363 37.9332 27.6777 37.8981C27.584 37.8395 27.3145 36.902 27.1562 36.0582C27.0566 35.5602 26.9687 35.1442 26.9512 35.1325C26.9336 35.1149 26.9043 35.1207 26.8809 35.1442C26.8223 35.2028 27.0215 37.0895 27.1504 37.7282C27.209 38.0153 27.25 38.2614 27.2441 38.2731C27.2148 38.3082 26.8633 37.3473 26.7695 36.9782C26.7168 36.7789 26.5059 35.7946 26.3066 34.7809C25.9668 33.0993 25.8086 32.5133 25.8086 32.9879C25.8145 33.7028 26.2187 36.4625 26.5 37.6696C26.6582 38.3434 26.6641 38.402 26.6113 39.193C26.5645 39.9606 26.5703 40.0309 26.6816 40.2477C26.793 40.4703 26.8047 40.6403 26.8633 44.109C26.8926 46.1071 26.9336 47.7477 26.9453 47.7594C26.9746 47.7887 27.0449 43.8805 27.0566 41.6246L27.0684 39.9547L27.3379 40.6871C27.4844 41.0914 27.8184 41.9235 28.0879 42.5446C28.3516 43.1657 28.6152 43.8688 28.6797 44.1149C28.8789 44.8883 29.0078 47.2965 28.8906 47.9528C28.8496 48.1813 28.8789 48.3336 29.0664 48.9489L29.2891 49.6813L29.3301 51.8493C29.3711 53.9059 29.4355 55.0661 29.5586 55.9215C29.5879 56.1325 29.6172 56.9235 29.6172 57.6793C29.6172 58.4352 29.6348 59.1149 29.6523 59.1911C29.7051 59.3786 29.8984 59.361 29.9512 59.1559C29.9805 59.068 29.9922 56.9469 29.9805 54.4332L29.9629 49.8746L30.2441 49.9157C30.5957 49.9684 30.8828 50.1383 31.0059 50.3727C31.0996 50.5426 31.1113 50.8473 31.1172 53.4313C31.123 55.0075 31.1465 56.4782 31.1699 56.695C31.252 57.4274 31.4805 57.4625 31.5566 56.7594C31.5859 56.5368 31.6035 55.3063 31.6035 54.0114C31.6094 52.7223 31.627 51.65 31.6445 51.6266C31.6621 51.609 31.7441 51.6676 31.8203 51.7555C31.8965 51.8493 32.0312 51.9547 32.125 51.9899L32.2949 52.0602L32.3477 53.7418C32.377 54.6676 32.4238 55.4586 32.4531 55.5055C32.5 55.5758 32.5176 55.57 32.5762 55.4938C32.623 55.4293 32.6289 55.3004 32.5996 55.0895C32.541 54.6911 32.5352 53.8004 32.5879 52.7985L32.623 52.0016L32.8164 51.9371C33.1035 51.8375 33.1504 51.7496 33.1445 51.275C33.1387 51.0465 33.1621 50.7477 33.1855 50.6188C33.2266 50.4196 33.2383 50.4606 33.2441 50.8942C33.2441 51.1754 33.2793 51.5328 33.3086 51.6852C33.3437 51.8375 33.3906 52.5817 33.4141 53.3317C33.4609 54.6383 33.5078 54.943 33.6367 54.7379C33.666 54.6969 33.7012 53.9645 33.7187 53.109C33.7363 52.2536 33.7656 51.527 33.7891 51.4918C33.8125 51.4567 33.9707 51.4098 34.1348 51.3864L34.4395 51.3453L34.3984 50.7653C34.375 50.402 34.3926 49.6168 34.457 48.7028C34.5508 47.2614 34.5449 46.4118 34.4336 44.8649C34.4102 44.5661 34.4102 44.3434 34.4336 44.3668C34.4512 44.3903 34.5391 44.695 34.627 45.0524C34.8496 45.9664 34.873 46.5641 34.7207 47.6305C34.5039 49.2008 34.4043 51.0289 34.5332 51.2282C34.5801 51.2985 34.6211 51.2868 34.8086 51.1813L35.0254 51.0524L34.9844 51.6969C34.9492 52.2887 34.9551 52.3707 35.0723 52.6227C35.1953 52.8981 35.2012 52.9567 35.2539 57.2985C35.2832 59.7125 35.3184 61.7047 35.3359 61.7164C35.3477 61.7282 35.377 61.7282 35.3945 61.7106C35.4531 61.6461 35.5469 54.0993 35.5176 51.6032C35.4941 49.2536 35.4941 49.1246 35.5996 48.9489C35.7344 48.7321 35.8574 48.6735 35.9746 48.7731C36.0977 48.8727 36.2031 48.7731 36.291 48.4801C36.3262 48.3512 36.4258 48.1813 36.5078 48.1051C36.6602 47.9703 36.6602 47.9528 36.6543 47.2145C36.6543 46.7985 36.6719 46.3649 36.7012 46.2536C36.7422 46.1012 36.7539 46.236 36.7598 46.7868C36.7656 47.8825 36.8477 48.1168 37.0586 47.6715C37.1055 47.5719 37.1641 47.484 37.1816 47.484C37.2695 47.484 37.293 48.2926 37.293 51.2633C37.2988 55.0602 37.3809 59.5778 37.457 59.7008C37.5039 59.7887 37.5156 59.7887 37.5801 59.7067C37.6621 59.6129 37.7559 54.4625 37.7617 49.8512C37.7617 48.6207 37.7793 47.4547 37.7969 47.2555L37.8379 46.8981H38.0605H38.2891L38.2949 47.4664C38.3008 47.7828 38.3242 48.4508 38.3477 48.9489L38.3828 49.8571L38.3945 48.6559C38.4004 47.9938 38.4238 47.32 38.4414 47.15L38.4824 46.8453L38.7812 46.8278C39.0801 46.8102 39.0801 46.8102 39.1211 46.5758C39.1445 46.4469 39.2031 45.6676 39.2559 44.8473C39.3027 44.027 39.373 43.1305 39.4082 42.8551C39.4434 42.5797 39.4961 42.0114 39.5195 41.5953C39.5605 40.9743 39.6309 40.5934 39.8945 39.5446C40.1992 38.3141 40.5625 37.0778 40.6035 37.1246C40.6152 37.1305 40.5449 37.4469 40.4512 37.8161C40.1934 38.8063 39.8828 40.2125 39.7539 40.9743C39.6367 41.6774 39.6367 41.9352 39.7539 41.3551C39.7949 41.1735 39.8594 40.9274 39.9062 40.8102L39.9883 40.5993L39.959 40.8336C39.9473 40.9625 39.9004 41.32 39.8652 41.6246C39.7891 42.2457 39.7656 43.57 39.8125 45.1813C39.8301 45.9137 39.8242 46.2653 39.7773 46.3121C39.7305 46.359 39.7012 46.0895 39.666 45.3336C39.6426 44.7594 39.6074 44.068 39.584 43.7926C39.5488 43.2946 39.5488 43.2946 39.502 43.5875C39.209 45.5563 39.2031 50.4137 39.4902 52.2887C39.5371 52.5934 39.5781 53.2028 39.5781 53.6364C39.5781 54.6618 39.6309 55.2184 39.7246 55.2184C39.7656 55.2184 39.8242 55.1715 39.8477 55.1129C39.877 55.0602 39.9062 53.2145 39.918 51.0114L39.9355 47.0036L40.1289 46.734C40.3574 46.4118 40.9375 45.4215 41.6465 44.1442C42.209 43.1305 42.3906 42.8493 42.2383 43.236C41.9863 43.8629 41.4766 44.7653 40.6211 46.0953C40.3398 46.5348 40.1055 46.9098 40.1055 46.9274C40.1055 46.945 40.1758 46.9567 40.2637 46.9567C40.4746 46.9567 40.7969 46.6051 41.541 45.5739C41.8574 45.1227 42.373 44.4313 42.6836 44.027C42.9941 43.6227 43.3516 43.1422 43.4746 42.9547C43.5977 42.7731 43.709 42.6325 43.7266 42.65C43.7441 42.6618 43.6328 42.9313 43.4805 43.2418C43.334 43.5524 43.2227 43.8278 43.2402 43.8453C43.2637 43.8629 43.416 43.7282 43.5801 43.5407C43.75 43.3532 43.9023 43.2067 43.9258 43.2067C43.9492 43.2067 43.9727 43.2653 43.9844 43.3356C43.9961 43.4118 44.0312 43.4645 44.0605 43.4586C44.2129 43.4352 45.6016 40.4528 45.4609 40.4528C45.4492 40.4528 45.332 40.6637 45.1973 40.9274C45.0684 41.1911 44.9453 41.3903 44.9277 41.3668C44.9102 41.3493 45.0215 41.027 45.168 40.652C45.5078 39.8141 45.666 39.1754 45.7012 38.4899L45.7363 37.9625L45.5898 38.32C45.2852 39.0875 44.3008 41.0797 43.9668 41.6188C43.627 42.1578 43.0469 42.9723 43.0059 42.9723C42.9941 42.9723 43.1113 42.7672 43.2637 42.5153C43.416 42.2692 43.5918 41.9703 43.6504 41.859C43.7734 41.6246 43.9141 40.7575 43.9141 40.2301V39.861L43.6152 40.1715L43.3164 40.4821L43.5742 40.1598C44.0547 39.5621 44.7988 38.402 45.2559 37.5407C45.3848 37.2946 45.2734 37.4 45.1152 37.6754C45.0273 37.8278 44.7695 38.1618 44.5352 38.4196C43.8672 39.1754 43.6973 39.3453 44.1191 38.8414C44.3301 38.5836 44.6289 38.2086 44.7812 38.0036C45.0625 37.6344 45.8125 36.2399 45.7598 36.1871C45.7012 36.1286 45.1445 36.8024 44.8105 37.3239C44.7578 37.4118 44.7578 37.3883 44.8047 37.2008C44.8926 36.8551 45.0977 36.5387 45.4668 36.1754C45.6836 35.9586 45.8887 35.6774 46.0645 35.3317C46.2637 34.9508 46.4746 34.6637 46.8379 34.277C47.6406 33.4274 47.5703 33.5621 47.6055 32.7828C47.6348 32.1032 47.6406 32.0856 47.8574 31.7633C47.9746 31.5817 48.2969 31.2067 48.5723 30.9313C49.0703 30.4332 49.1289 30.3395 49 30.2106C48.9531 30.1637 48.9473 30.1051 48.9941 30.0055C49.082 29.818 48.9824 29.6246 48.7305 29.4782C48.5605 29.3786 48.5195 29.3727 48.3496 29.443C48.0566 29.5661 47.3359 30.2926 46.9961 30.8082C46.5566 31.4645 46.3984 31.8043 46.1055 32.6891C45.8828 33.3629 45.8594 33.4157 45.8828 33.1286C46.0293 31.6403 46.7969 30.3219 47.9863 29.5192L48.2793 29.32H48.0332C47.6816 29.32 46.9434 29.5719 46.4629 29.8473C45.2734 30.5504 44.1543 31.5055 44.0312 31.9274C43.9961 32.0563 43.8906 32.6715 43.7969 33.2985C43.6504 34.3063 43.6094 34.4821 43.416 34.8688C43.0352 35.6422 42.1445 36.4098 41.6348 36.4098C41.1602 36.4098 40.9141 36.0934 40.7441 35.2555C40.6797 34.9391 40.6152 34.6754 40.6035 34.6637C40.5977 34.652 40.5566 34.7868 40.5156 34.9567C40.416 35.3727 39.8828 36.9899 39.8066 37.1071C39.7598 37.1832 39.748 37.1832 39.7715 37.1129C40.0469 36.193 40.3047 35.1676 40.4277 34.5465C40.6211 33.5211 40.6328 32.4371 40.4512 31.6403L40.3223 31.1012L39.8242 31.5993C39.5547 31.8746 39.4551 31.9567 39.6074 31.7809C40.082 31.236 40.293 30.8668 40.2695 30.6207L40.252 30.4039L40.0176 30.7262C39.6836 31.195 38.7051 32.4254 38.6699 32.4254C38.6523 32.4254 38.7812 32.2321 38.9512 31.9977C39.1211 31.7692 39.4902 31.2418 39.7715 30.8317C40.2695 30.1051 40.2812 30.0817 40.2812 29.7477C40.2812 29.2086 40.3809 28.5172 40.6973 26.9645C41.0781 25.0368 41.0723 24.7965 40.668 25.9508C40.2812 27.0524 40.0176 27.568 39.3496 28.5289C38.6816 29.4899 37.627 31.0719 37.334 31.5465C37.2109 31.7516 37.0996 31.8981 37.082 31.8864C37.0176 31.8161 37.8086 30.2633 39.0098 28.1246C39.4434 27.3395 39.5957 27.0231 39.5898 26.8825C39.5781 26.6305 39.6543 26.4254 40.1289 25.4C40.3457 24.9371 40.5918 24.3571 40.6738 24.111C40.8145 23.6891 40.8203 23.6422 40.7559 23.2086C40.668 22.6461 40.668 21.527 40.7559 20.9176C40.7852 20.6657 40.8086 20.4489 40.7969 20.4371C40.7852 20.4254 40.6328 20.6539 40.4629 20.9469C40.2871 21.234 40.1406 21.4625 40.1289 21.4508C40.0937 21.4157 40.375 20.8063 40.6562 20.3082C40.8672 19.9332 40.9316 19.7399 41.0371 19.1774C41.248 18.0231 41.3066 17.3141 41.2246 16.8336C41.1426 16.3297 40.9727 15.9078 40.7734 15.7203L40.6328 15.5914V15.9664C40.627 16.6754 40.4336 17.3668 39.959 18.3336C39.502 19.2653 39.4258 19.318 39.7539 18.4801C40.1582 17.4489 40.334 16.7516 40.3809 16.0133L40.416 15.3922L40.1465 15.3278C39.4199 15.1403 38.7871 15.6442 38.5234 16.6051C38.3711 17.15 38.3535 17.7008 38.418 19.1598C38.5176 21.3336 38.418 22.0075 37.791 23.4371C37.6094 23.8356 37.4512 24.2399 37.4336 24.3336C37.416 24.4274 37.4512 24.6969 37.5273 24.9606C37.7207 25.6637 37.7324 26.0387 37.5918 26.6832C37.5215 26.9879 37.4687 27.2575 37.4687 27.2809C37.4687 27.3102 37.5684 27.2282 37.6914 27.0934C37.9961 26.777 38.2949 26.7946 38.541 27.1286C38.6758 27.3102 38.6465 27.3512 38.4473 27.2633C38.1836 27.1403 37.9727 27.2809 37.6211 27.82C36.3672 29.7418 35.8984 30.4098 35.5059 30.8727C34.9902 31.4821 34.6035 32.0973 34.3867 32.6891C34.2871 32.9469 34.0703 33.3161 33.7949 33.6852C33.0273 34.7106 32.2891 36.3922 32.0488 37.6403C31.8789 38.5309 31.8437 38.6012 31.873 37.986C31.9375 36.5446 32.4766 34.8981 33.4551 33.1578C34.123 31.9684 34.2871 31.5524 33.9941 31.8278C33.8242 31.986 33.7187 31.9918 33.7187 31.8453C33.7187 31.6989 34.2812 30.609 34.5801 30.1696C34.709 29.9762 35.084 29.4723 35.4121 29.0563C35.7754 28.5875 36.0156 28.2184 36.0391 28.1012C36.0625 27.9782 36.0215 27.6911 35.916 27.2809C35.7109 26.4723 35.7285 25.9098 35.998 25.1364C36.209 24.5211 36.2324 24.07 36.0625 23.5778C35.9805 23.3141 35.957 23.2848 35.9512 23.4254C35.9336 23.8883 35.248 25.5875 34.4805 27.0641C33.7656 28.4293 33.6719 28.5231 34.3105 27.2282C34.9375 25.9567 35.4238 24.7731 35.6582 23.9352C35.8633 23.1911 35.8691 23.1266 35.6816 22.5817C35.5996 22.3473 35.5352 22.1012 35.5352 22.0368C35.5352 21.9723 35.5176 21.9313 35.5 21.9489C35.4824 21.9723 35.207 22.7575 34.8906 23.7067C34.5801 24.65 34.2402 25.6344 34.1348 25.8864C34.0352 26.1442 33.9648 26.361 33.9766 26.3727C33.9941 26.3903 34.3398 25.5582 34.9727 23.9586C35.1484 23.5075 35.3008 23.1676 35.3008 23.2028C35.3008 23.3375 34.8145 25.0309 34.4746 26.0504C33.9941 27.5153 33.4727 28.5524 32.3711 30.2282C30.5957 32.9235 30.0098 34.0719 29.5293 35.7946C29.3008 36.6032 29.2539 36.5739 29.4648 35.7536C29.8281 34.3766 30.3145 33.2047 31.5918 30.6852C32.3184 29.2438 32.4824 28.8805 32.4531 28.7457C32.4297 28.6227 32.5059 28.3707 32.7695 27.7614C33.0977 26.9938 34.0293 24.5797 34.1875 24.0875C34.2285 23.9645 34.2695 23.8766 34.2871 23.8883C34.334 23.9352 34.0117 25.0719 33.7773 25.6871C33.6543 26.0094 33.5664 26.2731 33.5781 26.2731C33.6367 26.2731 34.293 24.8727 34.5449 24.2106C35.1074 22.7164 35.3828 21.6559 35.4473 20.7477C35.4648 20.4254 35.5 20.1266 35.5117 20.0739C35.5293 20.0153 35.3887 20.2907 35.1953 20.6774C34.7441 21.5973 33.3613 24.0641 33.3203 24.0231C33.3145 24.0114 33.7129 23.1793 34.2109 22.1657C35.418 19.7106 35.6641 19.0368 35.7402 17.9235L35.7754 17.4547L35.582 18.0114C35.3125 18.8024 34.6621 20.068 34.0117 21.07C33.707 21.5446 33.4492 21.9196 33.4375 21.9078C33.3906 21.8668 33.7656 21.1227 34.3633 20.0621C35.0195 18.8903 35.2773 18.3629 35.5762 17.5426C35.7695 17.0153 35.7812 16.9567 35.752 16.4293C35.7168 15.8258 35.6055 15.3746 35.5996 15.8141C35.5879 16.3414 35.3418 16.9743 34.8906 17.6246C34.3398 18.4215 34.2461 18.4098 34.6797 17.5953C34.8906 17.1911 35.1309 16.6637 35.2129 16.4235C35.3711 15.9723 35.459 15.3102 35.3945 15.0641C35.3535 14.8942 34.8555 14.32 34.75 14.32C34.6914 14.32 34.6211 14.484 34.4395 15.0817C34.4219 15.1286 34.4922 15.0231 34.5977 14.8473C34.7793 14.525 34.9434 14.32 34.873 14.4957C34.6738 15.0114 33.7832 16.8981 33.8652 16.6344C34.1465 15.7321 34.5391 14.3434 34.5391 14.2614C34.5391 14.2028 34.4805 14.1442 34.4102 14.1207C34.2109 14.068 33.7656 14.0856 33.6016 14.15ZM29.3242 17.6129C29.5469 17.7418 29.6172 17.8063 29.541 17.8239C29.4355 17.8473 29.0957 17.6598 28.9727 17.5133C28.8613 17.3786 28.9727 17.4078 29.3242 17.6129ZM38.6113 24.6032C38.4648 25.2477 37.9141 26.2731 37.7852 26.1442C37.7676 26.1266 37.9258 25.7692 38.1367 25.359C38.3418 24.943 38.5469 24.486 38.5879 24.3453C38.6992 23.9586 38.7168 24.152 38.6113 24.6032ZM25.8496 28.1012C25.832 28.1481 25.8145 28.1305 25.8145 28.0661C25.8086 28.0016 25.8262 27.9664 25.8437 27.9899C25.8613 28.0075 25.8672 28.0602 25.8496 28.1012ZM26.3945 29.9938C26.5 30.3161 26.7402 30.9723 26.9219 31.4586C27.3379 32.5543 27.4492 33.0055 27.4434 33.5504C27.4375 33.9489 27.4316 33.9606 27.3848 33.7438C27.3555 33.6149 27.1738 33.0465 26.9805 32.484C26.6406 31.4821 25.9727 28.9625 25.9023 28.4411C25.8848 28.2946 25.9434 28.4528 26.0371 28.7926C26.125 29.1325 26.2832 29.6715 26.3945 29.9938ZM36.5371 30.3571C36.5078 30.4157 36.1973 30.8727 35.8516 31.3707C34.9727 32.6364 34.7441 33.0055 34.3516 33.7438C34.1172 34.195 34.0234 34.3297 34.0527 34.1832C34.1582 33.5739 34.5684 32.777 35.2422 31.8688C35.5996 31.3883 36.5312 30.2575 36.5781 30.2575C36.584 30.2575 36.5664 30.3043 36.5371 30.3571ZM46.2754 30.9137C45.9531 31.2594 45.3027 32.1149 45.168 32.3844C45.0449 32.6129 44.998 32.5485 45.1035 32.3024C45.25 31.9625 45.5195 31.6168 46.0234 31.1012C46.5625 30.5563 46.7383 30.4332 46.2754 30.9137ZM27.8535 33.0289C27.9121 33.2633 27.9766 33.6735 28 33.9489L28.0352 34.4469L27.8945 33.7321C27.8184 33.3395 27.6953 32.8414 27.625 32.6188C27.4316 32.0328 27.4258 32.0153 27.5957 32.3258C27.6777 32.484 27.7949 32.8004 27.8535 33.0289ZM38.9336 33.9899C38.8633 34.0778 38.4824 34.5231 38.084 34.9743C36.4844 36.7789 35.7051 37.9508 35.3477 39.0582C35.2773 39.275 35.207 39.445 35.1953 39.4274C35.1836 39.4157 35.2422 39.1871 35.3301 38.9176C35.7051 37.775 36.4902 36.5973 37.9082 35.0563C38.3594 34.5641 38.7871 34.0895 38.8633 34.0016C38.9395 33.9078 39.0156 33.8317 39.0273 33.8317C39.0449 33.8317 39.0039 33.902 38.9336 33.9899ZM44.0605 36.943C43.9082 38.1325 43.8203 38.5602 43.8848 37.7868C43.9023 37.5582 43.9316 37.2184 43.9492 37.025C43.9844 36.568 44.1602 35.6012 44.1895 35.6832C44.2012 35.7184 44.1426 36.2868 44.0605 36.943ZM39.3262 36.7731C39.2148 37.1071 38.9746 37.6871 38.7988 38.068C38.6172 38.443 38.4824 38.7536 38.4941 38.7536C38.5059 38.7536 38.5996 38.6071 38.6992 38.4313C38.7988 38.2555 38.8926 38.109 38.9043 38.109C38.916 38.109 38.8809 38.2496 38.8164 38.4137C38.3125 39.8551 37.6387 41.2321 37.1406 41.8356C36.3496 42.7907 35.998 43.4821 35.6055 44.8473L35.5469 45.0524L35.541 44.8004C35.5234 44.0387 35.9512 42.8493 36.7129 41.5778C37.0059 41.0856 37.2344 40.6637 37.2168 40.6461C37.1992 40.6344 37.1172 40.6637 37.0352 40.7164C36.8887 40.8102 36.8828 40.8102 36.8828 40.7164C36.8828 40.5055 37.2871 39.8024 38.1074 38.5778C38.8984 37.4 39.332 36.6207 39.4375 36.2047C39.4609 36.111 39.4902 36.0582 39.502 36.0993C39.5137 36.1344 39.4375 36.4391 39.3262 36.7731ZM29.3066 36.7145C29.2891 36.7555 29.2773 36.7262 29.2773 36.6442C29.2773 36.5621 29.2891 36.5328 29.3066 36.568C29.3184 36.609 29.3184 36.6793 29.3066 36.7145ZM29.248 37.0075C29.2305 37.0543 29.2129 37.0368 29.2129 36.9723C29.207 36.9078 29.2246 36.8727 29.2422 36.8961C29.2598 36.9137 29.2656 36.9664 29.248 37.0075ZM43.1582 37.7457C43.0879 38.0914 42.8594 38.7125 42.8184 38.6774C42.8066 38.6598 42.877 38.3668 42.9824 38.027C43.1816 37.3825 43.2695 37.2418 43.1582 37.7457ZM44.1836 37.7047C44.1367 38.0328 43.8789 38.6598 43.6797 38.9118C43.5273 39.1051 43.5332 39.0758 43.7148 38.6598C43.7969 38.4664 43.8906 38.2614 43.9141 38.1969C44.0664 37.8512 44.1484 37.6168 44.1484 37.5172C44.1484 37.4528 44.166 37.4059 44.1836 37.4059C44.207 37.4059 44.207 37.5407 44.1836 37.7047ZM43.1465 39.0172C43.1113 39.2985 43.0937 39.6207 43.1172 39.7379C43.1348 39.8786 43.1289 39.9254 43.0879 39.8844C43.0059 39.8024 43.0059 39.0114 43.0879 38.7008C43.1992 38.3082 43.2227 38.4489 43.1465 39.0172ZM34.2812 39.4684C34.1699 39.9489 33.9414 40.5641 33.9121 40.4645C33.8945 40.4293 33.9883 40.0075 34.1113 39.527C34.2812 38.859 34.3398 38.7125 34.3516 38.8766C34.3633 38.9938 34.3281 39.2575 34.2812 39.4684ZM43.5449 38.8239C43.5273 38.8707 43.5098 38.8532 43.5098 38.7887C43.5039 38.7243 43.5215 38.6891 43.5391 38.7125C43.5566 38.7301 43.5625 38.7828 43.5449 38.8239ZM38.7344 40.025C38.1133 41.2672 37.6445 42.0934 37.6445 41.9645C37.6445 41.7477 39.0859 39.0465 39.2031 39.0465C39.2148 39.0465 39.0039 39.486 38.7344 40.025ZM39.0742 39.8727C39.0215 40.0778 38.9277 40.5524 38.8691 40.9215L38.7578 41.5953L38.7812 41.0563C38.7988 40.6989 38.8633 40.3473 38.9687 39.9899C39.1562 39.3922 39.2266 39.3102 39.0742 39.8727ZM41.5176 40.8453C41.1836 41.5368 40.7148 42.2633 40.3398 42.6793C40.0117 43.0368 40.123 42.8317 40.8027 41.8063C41.1133 41.3375 41.459 40.775 41.5703 40.5582C41.8926 39.9313 41.8516 40.1539 41.5176 40.8453ZM40.0293 40.5231C40.0117 40.57 39.9941 40.5524 39.9941 40.4879C39.9883 40.4235 40.0059 40.3883 40.0234 40.4118C40.041 40.4293 40.0469 40.4821 40.0293 40.5231ZM29.8926 43.6871C29.875 43.734 29.8574 43.7164 29.8574 43.652C29.8516 43.5875 29.8691 43.5524 29.8867 43.5758C29.9043 43.5934 29.9102 43.6461 29.8926 43.6871ZM29.9512 43.9801C29.9336 44.0211 29.9219 43.9918 29.9219 43.9098C29.9219 43.8278 29.9336 43.7985 29.9512 43.8336C29.9629 43.8746 29.9629 43.945 29.9512 43.9801ZM30.2559 45.4625C30.4375 46.5641 30.5312 47.2907 30.5781 47.9821C30.6191 48.6266 30.5254 48.0465 30.4082 46.986C30.3555 46.4996 30.25 45.7379 30.1738 45.2868C30.0977 44.8356 30.0215 44.3727 29.998 44.2614C29.9687 44.0563 29.9687 44.0563 30.0273 44.2321C30.0566 44.3258 30.1621 44.8825 30.2559 45.4625ZM29.5293 46.4469C29.6289 47.15 29.6465 48.4039 29.5586 48.5387C29.5176 48.5973 29.5 48.4508 29.5 48.07C29.5 47.7653 29.459 47.0914 29.4121 46.5758C29.2832 45.1637 29.3359 45.1051 29.5293 46.4469Z" fill="white"/>
<path d="M40.7676 24.4336C40.6914 24.709 40.5449 25.1543 40.4394 25.4297C40.3281 25.6992 40.2461 25.9219 40.2578 25.9219C40.3281 25.9219 40.9844 24.4102 40.9844 24.2578C40.9844 23.877 40.8906 23.9473 40.7676 24.4336Z" fill="white"/>
<path d="M44.916 38.4137C44.7461 38.6832 44.4824 39.0817 44.3242 39.3102C44.0605 39.6852 44.0371 39.7555 44.0019 40.1598C43.9844 40.4 43.9433 40.7809 43.9141 41.0094C43.8848 41.2321 43.873 41.4254 43.8848 41.4371C43.9082 41.4606 44.5996 40.3063 44.8164 39.8786C44.8984 39.7145 45.0039 39.3454 45.0566 39.0407C45.1094 38.736 45.1738 38.3727 45.2031 38.2262C45.2266 38.0797 45.2441 37.9567 45.2383 37.945C45.2266 37.9391 45.0859 38.15 44.916 38.4137ZM44.7285 39.2047C44.7226 39.5153 44.6933 39.4918 44.6641 39.1461C44.6523 39.0289 44.6641 38.9293 44.6875 38.9293C44.7109 38.9293 44.7344 39.0524 44.7285 39.2047Z" fill="white"/>
<path d="M41.1836 46.2069C40.832 46.5877 40.5449 46.9803 40.6504 46.9393C40.709 46.9158 40.75 46.9276 40.75 46.9686C40.75 47.0037 40.8086 46.9803 40.8848 46.91C40.9609 46.8397 41.043 46.7987 41.0605 46.8221C41.084 46.8397 41.1074 47.285 41.1074 47.8006C41.1133 48.3221 41.1309 48.9959 41.1543 49.3006C41.1953 49.8573 41.1953 49.8514 41.2363 48.8319C41.2598 48.2694 41.2832 47.4725 41.2949 47.0565L41.3066 46.3123L41.0312 46.617C40.6855 47.0037 40.6621 46.9334 41.0019 46.5291C41.3301 46.1307 41.4121 46.0194 41.3828 46.0194C41.3711 46.0194 41.2773 46.1073 41.1836 46.2069Z" fill="white"/>
<path d="M28.709 48.3223C28.6269 48.5273 28.9434 49.5938 29.084 49.5938C29.1074 49.5938 29.0547 49.3184 28.9668 48.9785C28.7617 48.1934 28.7617 48.1934 28.709 48.3223Z" fill="white"/>
<path d="M28.4395 48.9023C28.3047 49.2246 28.3516 49.6289 28.627 50.5312L28.8848 51.3809L28.9023 50.6484C28.9199 49.998 28.9023 49.8516 28.7559 49.3125C28.668 48.9844 28.5801 48.7148 28.5566 48.7148C28.5332 48.7148 28.4805 48.8027 28.4395 48.9023Z" fill="white"/>
<path d="M28.0879 49.7984C27.959 50.1676 28 50.9703 28.2051 52.0543C28.4336 53.2731 28.4336 53.402 28.1934 52.4645C28.0527 51.9137 28 51.7789 27.9883 51.9254C27.9531 52.2652 28.293 56.9 28.3516 56.9645C28.416 57.0289 28.5098 56.1676 28.7617 53.1852L28.9023 51.5328L28.7266 51.1051C28.6269 50.8707 28.4629 50.4254 28.3633 50.1207L28.1699 49.5641L28.0879 49.7984Z" fill="white"/>
</g>
<defs>
<clipPath id="clip0_631_3">
<rect width="70" height="70" fill="white"/>
</clipPath>
</defs>
</svg>
