<svg width="70" height="70" viewBox="0 0 70 70" fill="none" xmlns="http://www.w3.org/2000/svg">
<g clip-path="url(#clip0_631_97)">
<path d="M31.192 0.168491C30.912 0.392491 31.01 1.31649 31.304 1.20449C31.402 1.16249 31.71 1.09249 31.976 1.03649C32.62 0.924491 32.69 0.784491 32.382 0.350491C32.102 -0.0275085 31.556 -0.111509 31.192 0.168491Z" fill="black"/>
<path d="M38.738 0.825981C38.514 0.965981 38.08 1.13399 37.758 1.18999C37.282 1.27399 37.226 1.30199 37.45 1.39999C37.716 1.49799 37.702 1.51199 37.38 1.58199C37.184 1.62399 36.694 1.70798 36.274 1.74998C35.588 1.83398 35.49 1.80598 35.224 1.48399C35.056 1.30199 34.706 1.10599 34.44 1.04999C34.034 0.965981 33.978 0.97998 34.132 1.13399C34.622 1.65199 33.95 1.88998 33.32 1.39999C32.984 1.14799 32.97 1.14799 32.69 1.39999C32.466 1.59599 32.018 1.69398 30.562 1.80598C29.554 1.90398 28.42 2.05798 28.042 2.16998C27.118 2.44998 27.104 2.42198 27.972 2.02998C28.406 1.83398 28.7 1.60999 28.7 1.46999C28.7 1.23199 28.602 1.18999 27.832 1.04999C27.342 0.97998 27.3 0.99398 27.3 1.31599C27.3 1.55399 27.146 1.76398 26.852 1.97398C26.6 2.14198 26.362 2.30998 26.334 2.33798C26.306 2.35198 26.362 2.63198 26.46 2.95399C26.628 3.45798 26.698 3.51398 27.034 3.47198C27.258 3.42999 27.384 3.47198 27.342 3.54198C27.188 3.80798 26.306 4.05998 25.592 4.05998C24.864 4.04598 24.85 4.04598 25.27 3.86398L25.69 3.68198L25.172 3.42999C24.738 3.21999 24.584 3.20599 24.276 3.34599C23.842 3.54198 23.688 3.45798 23.94 3.14999C24.038 3.02399 24.094 2.91199 24.066 2.88399C23.996 2.82799 20.468 3.84998 18.76 4.40999C17.122 4.94199 15.064 6.01999 14.168 6.80399C13.426 7.44799 13.384 7.62999 13.93 7.72799C14.084 7.75599 14.21 7.83998 14.21 7.90998C14.224 7.99398 14.28 8.20399 14.336 8.38599L14.448 8.72198L14.63 8.28799C14.854 7.76999 15.246 7.50399 16.31 7.12598C17.178 6.81799 17.388 6.85999 17.038 7.23798C16.786 7.53199 16.324 8.66599 16.17 9.37999L16.072 9.86999L16.492 9.30999C16.716 9.00199 17.29 8.38599 17.766 7.95198C18.48 7.27999 18.62 7.06998 18.634 6.64999C18.648 6.38398 18.662 6.07598 18.676 5.97798C18.704 5.57198 19.67 5.30598 19.992 5.62798C20.118 5.75398 20.006 5.94998 19.53 6.45399C19.18 6.83199 18.9 7.23798 18.9 7.36399C18.9 7.53199 19.068 7.41999 19.46 6.99998C19.922 6.49599 20.062 6.42599 20.384 6.49599C20.804 6.60799 21.28 6.32798 20.972 6.14598C20.874 6.08998 20.832 6.00599 20.86 5.97798C21.168 5.73998 23.086 4.61999 23.212 4.61999C23.45 4.61999 23.562 5.20798 23.394 5.61398C23.324 5.82398 23.016 6.10398 22.722 6.25798C22.428 6.41198 21.7 6.78999 21.098 7.11198C20.244 7.57399 19.866 7.69999 19.32 7.69999C18.732 7.69999 18.62 7.74199 18.62 7.96598C18.62 8.10599 18.718 8.30199 18.83 8.39999C18.942 8.49799 19.04 8.65199 19.04 8.76398C19.04 9.04399 18.326 9.49199 17.556 9.67398C17.178 9.77199 16.38 10.08 15.792 10.388C15.022 10.766 14.7 10.864 14.7 10.724C14.7 10.626 14.854 10.108 15.064 9.58998C15.26 9.05799 15.4 8.46999 15.372 8.27399C15.302 7.68599 14.938 7.83998 14.7 8.56799C14.532 9.11399 14.448 9.21199 14.21 9.15599C14.056 9.11399 13.692 9.18399 13.398 9.30999C13.118 9.42199 12.88 9.47799 12.88 9.42199C12.88 9.36599 13.118 9.07199 13.398 8.76398L13.93 8.21799L13.09 8.80598C12.628 9.14199 11.69 9.78599 10.99 10.262C9.772 11.088 8.12 12.586 8.12 12.838C8.12 12.908 8.302 12.95 8.54 12.908C9.156 12.824 9.086 13.118 8.19 14.21C7.77 14.714 7.42 15.176 7.42 15.204C7.42 15.33 7.574 15.246 8.036 14.84C8.316 14.588 8.554 14.476 8.61 14.546C8.652 14.63 7.952 15.428 7.056 16.31C5.446 17.92 5.432 17.948 5.53 18.452C5.642 19.04 5.88 19.39 5.88 18.956C5.88 18.144 6.496 16.8 6.874 16.8C7.084 16.8 7.014 17.248 6.496 19.264C6.216 20.342 5.95 21.714 5.894 22.33L5.81 23.45L5.292 22.61C4.998 22.148 4.76 21.868 4.76 21.994C4.76 22.12 4.41 22.652 3.99 23.17C3.57 23.674 3.22 24.122 3.22 24.15C3.22 24.164 3.122 24.416 3.01 24.696C2.898 24.976 2.828 25.2 2.856 25.2C2.884 25.2 3.122 24.878 3.374 24.472L3.836 23.758L4.018 24.164C4.27 24.752 4.242 25.228 3.85 27.3C3.5 29.19 3.43 30.366 3.64 30.87C3.752 31.122 3.766 31.122 3.766 30.786C3.78 30.338 4.102 29.89 4.312 30.016C4.522 30.142 4.522 30.996 4.326 31.906C4.116 32.9 3.864 33.012 3.948 32.06L4.018 31.332L3.556 31.402C2.996 31.5 2.996 31.486 2.856 29.61C2.814 28.84 2.716 28.07 2.646 27.888C2.464 27.412 2.128 27.51 2.016 28.07C1.89 28.784 2.044 29.666 2.66 31.57C3.262 33.446 3.458 34.3 3.262 34.3C3.192 34.3 2.94 34.034 2.688 33.712C2.212 33.096 2.142 33.138 2.394 33.852C2.478 34.09 2.618 34.272 2.702 34.258C2.814 34.244 2.87 34.594 2.87 35.462C2.87 36.134 2.842 36.68 2.8 36.68C2.758 36.68 2.52 36.554 2.282 36.4L1.82 36.12L1.834 36.512C1.848 37.296 2.03 38.15 2.17 38.108C2.338 38.052 3.094 41.006 3.528 43.428C3.71 44.394 3.892 45.136 3.934 45.052C4.046 44.87 4.41 45.528 4.55 46.186C4.718 46.942 4.886 46.41 4.816 45.36L4.76 44.45L4.97 45.22C5.096 45.64 5.25 46.662 5.32 47.488C5.39 48.328 5.53 49.294 5.614 49.658L5.782 50.302L6.034 49.994L6.286 49.686L6.482 50.162C6.916 51.198 6.93 51.282 6.552 51.212L6.202 51.142L6.524 51.632C6.706 51.898 6.86 52.262 6.86 52.43C6.86 52.71 7.378 53.34 7.602 53.34C7.658 53.34 7.672 53.172 7.616 52.962C7.574 52.738 7.826 53.088 8.176 53.718C8.526 54.362 8.82 55.02 8.82 55.202C8.82 55.86 9.436 56.756 10.5 57.61C11.074 58.086 11.62 58.604 11.704 58.772C11.858 59.08 13.874 60.998 15.316 62.188C16.366 63.07 18.256 64.33 19.642 65.1C20.286 65.45 20.678 65.744 20.58 65.8C20.426 65.898 24.612 68.292 26.082 68.936C27.678 69.636 29.078 70 30.184 70C30.744 70 31.22 69.958 31.22 69.916C31.22 69.874 31.15 69.72 31.08 69.566C30.982 69.384 30.982 69.3 31.08 69.3C31.15 69.3 31.22 69.188 31.22 69.048C31.22 68.824 31.444 68.81 34.048 68.81C37.1 68.81 38.71 68.614 41.328 67.97C42.112 67.774 42.77 67.62 42.784 67.62C42.812 67.62 42.84 67.914 42.84 68.292C42.84 69.104 43.134 69.58 43.638 69.58H44.002L43.61 69.216C43.288 68.922 43.232 68.782 43.302 68.362C43.4 67.802 43.708 67.41 44.268 67.116C44.632 66.92 44.66 66.934 44.66 67.186C44.66 67.732 45.066 67.76 47.124 67.396C48.188 67.214 49.238 67.018 49.462 66.976C49.798 66.892 49.84 66.92 49.84 67.256C49.84 67.676 49.868 67.69 50.764 67.41C51.142 67.298 51.464 67.2 51.492 67.2C51.506 67.2 51.52 67.424 51.52 67.69C51.52 67.998 51.436 68.222 51.282 68.306C51.142 68.39 51.086 68.46 51.142 68.46C51.338 68.46 52.108 67.872 52.024 67.802C51.982 67.76 52.08 67.536 52.234 67.326L52.514 66.92H51.898C51.548 66.92 51.086 66.878 50.848 66.836C50.47 66.766 50.428 66.71 50.54 66.486C50.624 66.346 50.68 66.024 50.68 65.772V65.296L51.744 65.394L52.808 65.506L53.228 65.03C53.452 64.764 54.124 64.288 54.712 63.952C55.3 63.63 56.014 63.14 56.266 62.874C56.532 62.594 56.7 62.468 56.63 62.58C56.56 62.706 56.63 62.692 56.812 62.524C57.162 62.23 57.246 62.02 56.91 62.3C56.756 62.426 56.7 62.426 56.7 62.314C56.7 62.23 56.798 62.118 56.91 62.076C57.022 62.02 57.12 61.88 57.12 61.74C57.12 61.614 57.302 61.25 57.54 60.928L57.946 60.354L57.204 60.62C56.546 60.844 54.81 61.18 54.306 61.18C54.208 61.18 54.334 60.956 54.6 60.69C54.964 60.312 55.118 60.242 55.314 60.354C55.524 60.466 55.65 60.382 56.014 59.892C56.252 59.556 56.574 59.038 56.728 58.73C57.022 58.156 58.394 56.238 58.786 55.86C58.912 55.734 59.416 55.146 59.92 54.53C60.424 53.914 61.264 52.906 61.796 52.29C63.042 50.834 64.61 48.454 65.52 46.648C66.094 45.486 66.29 45.206 66.5 45.262C66.724 45.318 66.752 45.206 66.808 44.366C66.836 43.848 66.906 43.372 66.948 43.33C67.004 43.274 67.186 43.33 67.368 43.456C67.998 43.904 68.082 43.778 67.97 42.588C67.83 41.076 67.844 40.11 68.026 39.802C68.11 39.662 68.18 39.62 68.18 39.718C68.18 39.928 68.698 40.222 68.88 40.11C68.964 40.054 68.866 39.732 68.67 39.326C68.376 38.766 68.348 38.64 68.53 38.64C68.656 38.64 68.866 38.374 69.02 38.024C69.16 37.688 69.342 37.394 69.426 37.366C69.51 37.324 69.412 36.68 69.16 35.574C68.656 33.502 68.642 33.236 69.034 33.138C69.3 33.068 69.314 33.096 69.23 33.558C69.174 33.908 69.202 34.09 69.328 34.174C69.916 34.552 70.014 34.076 69.58 32.816C69.412 32.368 69.286 31.696 69.286 31.346C69.272 30.73 69.258 30.702 68.922 30.772L68.558 30.842L68.6 28.966C68.67 26.11 68.67 26.096 68.194 25.816C67.844 25.62 67.704 25.326 67.284 23.996C66.668 22.092 65.646 19.782 64.764 18.298C64.414 17.696 64.12 17.108 64.12 17.01C64.12 16.912 63.854 16.52 63.518 16.156C63.196 15.778 62.552 14.994 62.09 14.42C60.956 12.992 58.842 10.906 57.386 9.77199C56.294 8.91799 53.536 7.08398 53.158 6.95798C53.074 6.92999 53.228 6.63599 53.536 6.25798C54.124 5.54398 54.152 5.12399 53.648 4.78799C53.326 4.57799 53.326 4.57799 53.494 4.94199C53.634 5.24998 53.62 5.37598 53.424 5.65598C53.088 6.17398 52.682 6.34198 52.038 6.24398C51.716 6.18798 51.394 6.08998 51.31 6.03399C51.24 5.96398 50.932 5.83798 50.638 5.73998C50.148 5.58598 50.12 5.55798 50.316 5.33398C50.442 5.19398 50.54 5.01199 50.54 4.92799C50.54 4.59199 49.658 3.79398 48.412 2.96799C46.998 2.04398 46.578 1.97398 46.088 2.58998L45.836 2.89799L45.164 2.11398C44.492 1.34399 44.464 1.32999 43.694 1.31599C43.26 1.31599 42.504 1.17599 42 1.02199C41.496 0.867981 40.656 0.699982 40.11 0.643982C39.298 0.587982 39.06 0.615982 38.738 0.825981ZM39.438 0.783981C39.396 0.825981 39.27 0.839981 39.172 0.797981C39.06 0.755981 39.102 0.713982 39.256 0.713982C39.41 0.699982 39.494 0.741982 39.438 0.783981ZM49.392 5.01199C49.588 5.30598 49.588 5.31998 49.154 5.16599C48.72 5.01199 48.636 4.89999 48.818 4.70399C48.958 4.56399 49.168 4.67599 49.392 5.01199ZM12.012 10.388C11.9 10.57 11.536 11.186 11.2 11.76C10.864 12.334 10.57 12.824 10.556 12.852C10.542 12.88 10.374 12.824 10.206 12.726L9.884 12.558L10.262 12.264C10.472 12.096 10.64 11.9 10.64 11.83C10.64 11.676 12.012 10.08 12.138 10.08C12.18 10.08 12.124 10.22 12.012 10.388ZM9.8 18.578C9.646 18.816 9.646 18.816 9.716 18.578C9.758 18.438 9.8 18.242 9.814 18.158C9.814 18.032 9.842 18.032 9.884 18.158C9.926 18.256 9.884 18.438 9.8 18.578ZM11.62 19.446C11.62 19.516 11.522 19.642 11.41 19.74C11.242 19.88 11.2 19.88 11.2 19.712C11.2 19.6 11.242 19.46 11.298 19.418C11.424 19.278 11.62 19.292 11.62 19.446ZM9.94 19.796C9.94 19.824 9.982 19.95 10.024 20.062C10.066 20.188 9.884 20.426 9.548 20.692L9.016 21.126L9.226 20.426C9.38 19.936 9.506 19.74 9.688 19.74C9.828 19.74 9.94 19.768 9.94 19.796ZM10.598 20.384C10.514 20.678 9.982 21.602 9.422 22.428C8.862 23.268 8.134 24.458 7.812 25.088L7.21 26.25L7.168 24.262C7.14 22.386 7.154 22.246 7.448 21.91C7.616 21.714 7.826 21.56 7.938 21.56C8.036 21.56 8.218 21.406 8.344 21.21C8.596 20.818 8.82 20.86 8.82 21.294C8.82 21.924 9.898 21.196 10.388 20.258C10.724 19.586 10.822 19.642 10.598 20.384ZM68.46 27.496C68.46 28.112 68.222 27.762 68.124 27.02C68.04 26.418 68.04 26.404 68.236 26.74C68.362 26.936 68.446 27.272 68.46 27.496ZM6.384 27.286C6.496 27.188 6.622 27.16 6.678 27.202C6.818 27.342 6.146 28.84 5.936 28.84C5.544 28.84 5.236 27.664 5.474 27.048L5.614 26.67L5.908 27.062C6.132 27.37 6.23 27.412 6.384 27.286ZM47.18 66.15C47.18 66.29 47.04 66.36 46.732 66.36L46.27 66.346L46.62 66.15C47.068 65.898 47.18 65.898 47.18 66.15ZM45.948 67.158C46.144 67.41 45.71 67.55 45.248 67.396C44.716 67.214 44.716 66.948 45.248 66.724C45.668 66.542 45.71 66.542 45.766 66.752C45.794 66.878 45.878 67.074 45.948 67.158ZM30.73 68.754C30.926 68.95 30.226 68.894 29.75 68.684C29.33 68.488 29.344 68.488 29.96 68.558C30.31 68.6 30.646 68.684 30.73 68.754Z" fill="black"/>
<path d="M35.742 1.21826C35.952 1.24626 36.288 1.24626 36.512 1.21826C36.722 1.19026 36.54 1.16226 36.12 1.16226C35.7 1.16226 35.518 1.19026 35.742 1.21826Z" fill="black"/>
<path d="M50.932 4.95626C51.1 5.18026 51.24 5.47426 51.24 5.62826C51.24 5.78226 51.31 5.85226 51.38 5.81026C51.66 5.64226 51.506 5.19426 51.072 4.87226L50.61 4.55026L50.932 4.95626Z" fill="black"/>
<path d="M4.648 18.8023C4.326 19.1523 4.256 19.5303 4.48 19.6703C4.564 19.7123 4.62 19.8943 4.62 20.0623C4.634 20.3702 4.634 20.3702 4.844 20.0903C5.026 19.8383 5.026 19.8103 4.844 19.7683C4.564 19.7123 4.564 19.7123 4.83 19.0823C5.096 18.4663 5.04 18.3823 4.648 18.8023Z" fill="black"/>
<path d="M2.31 20.7768C2.128 21.2528 2.114 21.4488 2.226 21.6868C2.52 22.2048 2.66 21.9948 2.66 21.0708C2.66 20.5668 2.632 20.1608 2.604 20.1608C2.576 20.1608 2.436 20.4408 2.31 20.7768Z" fill="black"/>
<path d="M1.638 23.1003C1.414 23.4923 1.19 23.8003 1.134 23.8003C0.994003 23.8003 0.616003 23.3663 0.532003 23.1003C0.490003 22.9883 0.434003 23.1283 0.406003 23.4083C0.364003 23.6883 0.392003 23.8843 0.448003 23.8563C0.504003 23.8143 0.560003 24.0103 0.560003 24.2763C0.560003 24.5563 0.630003 24.7803 0.700003 24.7803C0.784003 24.7803 0.840003 24.7243 0.840003 24.6543C0.840003 24.5703 1.218 24.2203 1.68 23.8703C2.506 23.2263 2.688 22.9043 2.352 22.5683C2.1 22.3163 2.058 22.3443 1.638 23.1003Z" fill="black"/>
<path d="M0.700005 25.6207C0.700005 25.7047 0.798005 25.7607 0.910004 25.7607C1.176 25.7607 1.176 25.6767 0.910004 25.5647C0.798005 25.5227 0.700005 25.5507 0.700005 25.6207Z" fill="black"/>
<path d="M67.788 44.1703C67.634 44.5203 67.55 46.3263 67.69 46.1723C67.774 46.0883 68.068 43.9463 67.998 43.8763C67.97 43.8483 67.872 43.9743 67.788 44.1703Z" fill="black"/>
<path d="M64.806 49.1684C64.68 49.6444 64.54 50.1484 64.484 50.2744C64.33 50.6104 65.002 50.4564 65.352 50.0644C65.842 49.5464 65.856 49.2104 65.422 48.7204L65.016 48.2724L64.806 49.1684Z" fill="black"/>
<path d="M63.98 50.9742C63.882 51.1282 63.84 51.2962 63.882 51.3242C63.91 51.3522 64.008 51.2262 64.092 51.0302C64.288 50.6102 64.19 50.5682 63.98 50.9742Z" fill="black"/>
<path d="M63.434 52.3887C63.126 53.3127 63.168 53.3127 63.756 52.4307L64.12 51.8707V52.4307C64.106 52.7387 64.022 53.1447 63.91 53.3407C63.406 54.2227 63.826 54.6147 64.596 53.9987C64.946 53.7047 64.974 53.6347 64.834 53.3547C64.722 53.1727 64.694 52.8227 64.764 52.4307C64.848 51.8427 64.834 51.8007 64.47 51.6607C63.84 51.4227 63.742 51.4927 63.434 52.3887Z" fill="black"/>
<path d="M60.774 55.5239C60.774 55.6919 60.41 56.2099 59.99 56.6859C59.248 57.5119 59.052 57.9879 59.36 58.1699C59.612 58.3239 59.514 58.4919 59.122 58.5899L58.73 58.7019L59.136 58.8139C59.416 58.8979 59.626 58.8559 59.878 58.7019L60.228 58.4639L59.906 58.2399C59.416 57.8619 59.64 57.5399 60.41 57.5399H61.04L61.026 56.9379C61.026 56.2799 60.802 55.0619 60.774 55.5239Z" fill="black"/>
<path d="M62.37 55.5942C62.314 55.6782 62.3 55.7622 62.342 55.8042C62.37 55.8462 62.44 55.7762 62.482 55.6502C62.58 55.4122 62.496 55.3702 62.37 55.5942Z" fill="black"/>
<path d="M61.81 56.7982C61.6 57.1342 61.46 57.4422 61.488 57.4702C61.502 57.4842 61.726 57.5542 61.964 57.5962C62.342 57.6802 62.454 57.6382 62.706 57.3162C63.098 56.8262 63.084 56.6722 62.58 56.3922L62.174 56.1682L61.81 56.7982Z" fill="black"/>
<path d="M58.786 59.5985L58.31 60.1025L58.758 59.7945C59.234 59.4725 59.43 59.2485 59.332 59.1365C59.304 59.1085 59.052 59.3185 58.786 59.5985Z" fill="black"/>
<path d="M52.85 66.6403C52.808 66.7103 52.836 66.7803 52.906 66.7803C52.99 66.7803 53.06 66.7103 53.06 66.6403C53.06 66.5563 53.032 66.5003 53.004 66.5003C52.962 66.5003 52.892 66.5563 52.85 66.6403Z" fill="black"/>
<path d="M48.37 68.1939C47.782 68.7959 47.726 68.8939 48.02 68.8099C48.622 68.6419 49.21 68.2499 49.252 67.9839C49.364 67.4239 49.028 67.5079 48.37 68.1939Z" fill="black"/>
<path d="M45.57 68.0399L45.01 68.2919L45.542 68.3059C45.892 68.3199 46.102 68.2499 46.158 68.1099C46.284 67.7739 46.172 67.7599 45.57 68.0399Z" fill="black"/>
<path d="M37.17 69.0203C35.784 69.1603 33.992 69.2863 33.18 69.3003L31.71 69.3283L33.11 69.5943C33.908 69.7623 35.434 69.9023 36.68 69.9583L38.85 70.0283L38.5 69.7483L38.15 69.4683L38.5 69.3143C38.696 69.2443 39.354 69.1323 39.97 69.0763C40.796 69.0063 40.992 68.9503 40.74 68.8663C40.25 68.7263 40.026 68.7403 37.17 69.0203Z" fill="black"/>
<path d="M34.5488 11.2697C30.5 11.551 26.5742 13.3088 23.6504 16.1506C22.4551 17.3166 21.7578 18.2307 21.1191 19.4728C20.4453 20.7971 19.9707 22.3029 19.7305 23.8967C19.5723 24.9689 19.584 26.6857 19.7539 27.8225C19.8301 28.3029 19.8828 28.8185 19.8711 28.965L19.8535 29.2287L19.502 29.2228C19.3086 29.217 18.9512 29.1935 18.7109 29.1701L18.2715 29.1232L18.0723 29.3225C17.8027 29.592 17.5625 30.1252 17.4805 30.6174C17.3691 31.2619 17.4336 32.4514 17.6152 33.1252C17.6914 33.4299 17.7559 33.6877 17.75 33.6935C17.7383 33.7111 16.4785 32.7853 16.332 32.6506C16.2559 32.5803 16.1914 32.4865 16.1914 32.4396C16.1914 32.34 16.4258 32.34 16.5723 32.4396C16.8887 32.6506 17.1465 32.7912 17.1055 32.7209C16.9941 32.5451 16.1562 31.8889 15.9746 31.842C15.7344 31.7717 15.4883 31.8478 15.4883 31.9826C15.4883 32.0353 15.582 32.1584 15.6934 32.258C15.8398 32.381 15.8926 32.4689 15.8691 32.5451C15.8398 32.6271 15.9453 32.715 16.4082 32.9846C16.7246 33.1721 17.1816 33.4475 17.4277 33.5998L17.8672 33.8869L18.0254 34.3381C18.1133 34.59 18.2129 35.006 18.248 35.2639C18.4238 36.5471 18.4707 36.7228 18.7344 37.2678C18.9512 37.6955 19.1211 37.924 19.5898 38.4279C20.4805 39.3713 20.5801 39.6467 20.4453 40.7424C20.3984 41.1115 20.4043 41.135 20.6152 41.5334C20.9492 42.1486 21.043 42.6057 21.207 44.3459C21.4414 46.8596 21.418 48.7697 21.1309 49.5549C21.0137 49.8947 21.0254 50.6037 21.1953 52.6369C21.2891 53.6916 21.3301 54.5295 21.3066 54.7873C21.2773 55.1799 21.2832 55.215 21.4238 55.3557C21.6758 55.6076 22.0273 55.5432 22.2031 55.2033C22.3145 54.9924 22.3145 54.9221 22.2559 52.2209L22.2148 50.2463L22.3672 50.2756C22.5723 50.3166 22.6953 50.1994 22.6953 49.9592C22.6953 49.7951 22.6602 49.7424 22.4844 49.6369L22.2793 49.5139L22.3145 47.3107C22.3379 46.0978 22.373 44.4689 22.3965 43.6955C22.4375 42.3713 22.4492 42.2658 22.5723 42.0666C22.6484 41.9494 22.7246 41.8557 22.748 41.8557C22.7773 41.8557 22.8301 42.0197 22.8711 42.2189C22.918 42.4416 23.1113 42.8986 23.3457 43.3557C23.7793 44.2053 24.2949 45.4475 24.7168 46.6603C25.2441 48.1662 25.7598 49.0685 26.4219 49.6135C28.0684 50.9904 28.0566 50.9728 29.4219 53.006C30.043 53.9435 30.5 54.5588 30.6934 54.7346C31.666 55.6135 33.3066 56.3342 34.5605 56.4338L35.0879 56.4748L35.0762 56.9142C35.0703 57.1545 35.0117 57.6115 34.9473 57.9338C34.7773 58.7307 34.7832 58.9182 34.9941 59.1525C35.1406 59.3166 35.1934 59.34 35.4512 59.3342C35.8086 59.3283 35.9668 59.2521 36.1133 59.006C36.2656 58.76 36.2598 58.6017 36.084 58.0861C35.9316 57.6467 35.9023 57.2189 35.9844 56.6799L36.0254 56.4162L36.6523 56.3752C37.9062 56.299 38.8555 56.006 39.9746 55.3498C40.2734 55.174 40.543 55.051 40.5664 55.0803C40.5957 55.1037 40.625 55.7892 40.6426 56.5978C40.6602 57.5295 40.6953 58.1154 40.7363 58.1975C40.8301 58.3674 41.123 58.3674 41.2227 58.1857C41.2754 58.0978 41.3047 57.5646 41.3281 56.3869L41.3574 54.717L41.5977 54.2189C41.7266 53.9435 42.3711 52.7189 43.0273 51.4943C45.207 47.4162 45.6875 46.4377 46.4668 44.5217C47.6797 41.5334 48.0254 40.7072 48.0723 40.6545C48.1074 40.6193 48.1836 40.6603 48.2891 40.76L48.4473 40.9182V43.1916C48.4531 44.9435 48.4766 45.6467 48.5527 46.2795C48.6055 46.7307 48.6523 47.3342 48.6523 47.6154C48.6523 48.2014 48.7461 48.4767 48.9805 48.5881C49.1621 48.6701 49.3086 48.6701 49.4902 48.5881C49.7891 48.4533 49.8418 48.1603 49.7422 47.1232C49.7012 46.7365 49.7129 46.5432 49.7832 46.2443C49.8828 45.8517 49.877 45.7932 49.6777 44.9904C49.5898 44.6389 49.584 44.3986 49.6133 43.3732C49.6309 42.7111 49.6719 42.0959 49.707 42.008C49.7598 41.8615 49.7832 41.8498 49.959 41.8908C50.2578 41.9611 50.4277 41.926 50.5859 41.7678C50.7676 41.5861 50.7793 41.2228 50.6211 40.5666C50.4219 39.7287 50.5859 38.633 51.002 38.0178C51.1426 37.8127 51.3418 37.7072 51.4648 37.7834C51.5879 37.8596 51.8281 38.4162 51.9102 38.8322C51.9688 39.09 52.0098 39.7639 52.0332 40.6369L52.0684 42.0314H51.9336C51.8633 42.0314 51.7109 42.1252 51.5996 42.2365C51.3535 42.4826 51.3477 42.7111 51.5938 42.8459C51.7402 42.9279 51.7637 42.9279 51.9219 42.8107L52.0859 42.6877L52.1562 46.5666C52.2031 48.8752 52.2676 50.8088 52.3145 51.3478C52.3613 51.8459 52.4023 52.4435 52.4023 52.6721C52.4023 53.3166 52.5547 53.6154 52.7539 53.3693C52.8945 53.1994 52.9531 51.9338 52.877 50.7092C52.8242 49.842 52.8242 48.9807 52.8711 47.217C53.0645 39.5939 53.1113 36.8283 53.0645 35.5861C53.0059 33.9279 53.0234 33.5646 53.1992 32.6564C53.3926 31.6603 53.4277 31.1564 53.3398 30.7111C53.1055 29.5041 52.168 28.9533 51.0312 29.3635C50.8379 29.4338 50.668 29.4807 50.6562 29.4631C50.5508 29.3576 50.5332 28.7717 50.6094 27.8225C50.7676 25.9123 50.7734 25.6603 50.7031 24.7463C50.4863 21.7697 49.3965 18.8342 47.6211 16.4435C47.1699 15.8342 45.9922 14.6623 45.3711 14.2053C44.3691 13.467 43.0566 12.758 41.8379 12.301C39.7344 11.5158 36.8809 11.1115 34.5488 11.2697ZM32.4512 13.6076C32.791 13.7658 32.9199 13.9299 32.9199 14.2228C32.9199 14.6975 32.5332 15.0432 30.9277 16.0158C30.3828 16.3439 29.8027 16.7131 29.6387 16.8303C29.4805 16.9475 29.252 17.1115 29.1406 17.1877L28.9355 17.3342L29.0469 17.1584C29.5742 16.3557 29.5156 16.0861 28.9004 16.4728L28.6426 16.6369V16.4318C28.6426 16.2385 28.625 16.2209 28.4551 16.2033C28.2031 16.1799 27.5527 16.4846 26.8262 16.9767C25.7656 17.6975 25.0801 18.3478 24.2012 19.4553C24.0195 19.6838 23.8438 19.8889 23.8086 19.9123C23.7207 19.965 23.9023 19.5021 24.1367 19.0803C24.2598 18.8635 24.3242 18.7111 24.2832 18.7346C24.2422 18.7639 23.9316 19.1506 23.5977 19.6017C23.2637 20.0471 22.9883 20.3869 22.9883 20.3517C22.9883 20.2228 23.5742 19.1271 23.9141 18.6232C25.3555 16.467 27.5645 14.7209 29.9023 13.8771C30.9336 13.508 31.9883 13.3967 32.4512 13.6076ZM37.0098 16.9006C37.4199 17.0119 37.5137 17.5041 37.209 17.9553C36.9922 18.2775 36.1602 18.9572 35.498 19.3439C34.9355 19.6838 34.8359 19.7717 34.3027 20.3986C33.9863 20.7736 33.6523 21.1486 33.5645 21.2307C33.3066 21.4592 32.7148 22.2853 32.7148 22.4084C32.7148 22.5842 32.9551 22.6896 33.5586 22.7775C34.25 22.8713 34.3262 22.9299 34.4082 23.4455C34.4375 23.6447 34.5254 23.8908 34.5898 23.9846C34.918 24.4475 35.6035 24.4533 35.9316 23.9963C36.1074 23.7443 36.1309 23.5568 36.0547 23.0529C36.0137 22.8068 35.9961 22.5256 36.0195 22.4318C36.084 22.1857 36.3828 21.9338 37.0918 21.5236C37.4434 21.3303 37.9648 20.967 38.252 20.7267C39.1719 19.9533 40.1797 19.5549 40.6777 19.7658C40.9941 19.8947 41.0586 20.0705 41.0938 20.8381L41.123 21.5353L41.3223 21.7111C41.4922 21.8635 41.5566 21.881 41.75 21.8576C42.0254 21.8225 42.1426 21.7346 42.248 21.4709C42.3242 21.2892 42.3184 20.8908 42.2305 20.5744C42.1895 20.4221 42.4121 20.2346 42.6348 20.2346C42.8867 20.2346 43.502 20.5334 43.6602 20.7267C43.8184 20.9318 43.748 21.1603 43.4434 21.4123C43.168 21.6467 41.9375 22.2385 40.666 22.76C39.2422 23.34 37.918 24.008 36.9629 24.6291C35.9258 25.3029 35.75 25.3615 34.7363 25.3146C34.1504 25.2912 33.6758 25.2209 32.6855 25.01C30.5938 24.5705 30.1602 24.506 29.9023 24.5705C29.791 24.5939 29.9609 24.6584 30.5469 24.799C30.9805 24.9103 32.0996 25.2443 33.0254 25.5432C34.8184 26.1291 35.3281 26.2521 35.6562 26.1877C35.7676 26.1701 36.1602 25.9767 36.5293 25.7658C37.7188 25.0803 38.6914 24.6232 39.7695 24.2482C40.3555 24.049 41.0469 23.7853 41.3164 23.6623C41.5859 23.5451 41.8203 23.4572 41.832 23.4748C41.8496 23.4924 41.7031 23.6271 41.5098 23.7795C41.1875 24.0373 41.0293 24.2189 41.1465 24.2189C41.1699 24.2189 41.5215 24.0607 41.9199 23.8732C42.7051 23.4982 44.0586 23.006 44.1289 23.0705C44.252 23.1994 43.25 23.7736 42.043 24.2717C41.3691 24.5471 40.5898 24.9631 40.6426 25.0158C40.6543 25.0275 40.748 25.01 40.8477 24.9748C41.1992 24.8517 41.1582 24.9572 40.748 25.215C39.3125 26.1232 38.5684 26.6096 38.3926 26.756C38.2109 26.9025 38.2051 26.9142 38.3398 26.885C38.4219 26.8615 39.0137 26.592 39.6582 26.2873C41.0293 25.631 41.3516 25.508 42.2305 25.2678C42.6816 25.1506 43.168 24.9514 43.8184 24.635C44.334 24.383 44.8555 24.1428 44.9844 24.1017C45.3242 23.9963 46.1035 24.0549 46.4258 24.2072C46.6016 24.2951 46.6367 24.3244 46.5312 24.3068C45.6816 24.1486 45.1367 24.1428 45.1367 24.301C45.1367 24.342 45.0312 24.4182 44.9023 24.4709C44.7734 24.5178 44.668 24.5881 44.668 24.6174C44.668 24.6818 44.9668 24.8107 45.6875 25.0451C46.3145 25.2502 47.1055 25.6193 47.3047 25.7951L47.4512 25.924L47.0703 25.8947C46.8594 25.8771 46.373 25.8244 45.9863 25.7775C45.5996 25.7248 44.9727 25.6838 44.5918 25.6838C44 25.6838 43.8652 25.7014 43.6543 25.8068C43.5137 25.883 42.9102 26.4279 42.2656 27.0607C41.6387 27.6818 40.8887 28.3791 40.5957 28.6135C40.3086 28.8537 40.1211 29.0236 40.1855 29.0002C40.25 28.9767 40.9883 28.5959 41.8262 28.1447C42.6641 27.6994 43.7305 27.1486 44.1934 26.9201C44.9375 26.551 45.0723 26.5041 45.3711 26.5041C45.7754 26.5041 46.1855 26.6389 46.8887 27.0021C47.5332 27.3361 47.791 27.5764 47.9258 27.9807C47.9844 28.1623 48.125 28.3908 48.2773 28.5549C48.4883 28.7834 49.1445 29.9494 49.0918 30.008C49.0391 30.0666 48.6348 29.7795 48.1602 29.3517C47.498 28.7541 47 28.3791 46.6602 28.2033C46.4434 28.092 46.3438 28.0744 46.0098 28.1037C45.2363 28.1682 44.3398 28.5607 42.2363 29.756C40.1738 30.9279 38.668 31.6017 38.1113 31.6017C37.5547 31.6017 37.4023 31.3439 37.3555 30.301C37.332 29.6916 37.3848 29.0705 37.502 28.5666C37.5195 28.4963 37.5078 28.4377 37.4727 28.4377C37.373 28.4377 36.957 29.5861 36.7871 30.3244C36.7051 30.6994 36.5938 31.0568 36.5469 31.1154C36.4648 31.2092 36.459 31.1506 36.4883 30.5471C36.5059 30.0725 36.4941 29.7678 36.4355 29.5217C36.3887 29.3283 36.3477 29.0646 36.3477 28.9357C36.3359 28.3732 36.2363 29.0178 36.1484 30.2307C36.0957 30.9396 36.0254 31.7072 35.9902 31.9357C35.9023 32.4865 35.9434 32.715 36.1895 33.0549C36.3008 33.2072 36.4062 33.383 36.4297 33.4533C36.4531 33.5236 36.3887 33.8166 36.2773 34.1564C36.1191 34.6545 36.0898 34.842 36.0664 35.51C36.0547 35.9963 36.0664 36.3185 36.1074 36.3889C36.166 36.4885 36.166 36.4885 36.1719 36.3713C36.1719 36.1721 36.2891 35.8908 36.3887 35.8557C36.4707 35.8205 36.4766 36.0666 36.4355 38.2932C36.4004 40.4201 36.4062 40.8771 36.4883 41.5041C36.5879 42.2307 36.7402 42.9748 36.752 42.7756C36.7695 42.5178 37.2148 41.8732 37.4727 41.7326C37.625 41.6506 37.8125 41.7209 37.8125 41.8674C37.8125 41.9377 37.6133 42.2541 37.373 42.5705C37.127 42.8928 36.8516 43.3029 36.7637 43.4846C36.5645 43.883 36.4648 43.9767 36.084 44.1467C35.8496 44.2521 35.7324 44.2697 35.3926 44.2404C35.1699 44.2228 34.877 44.1525 34.7422 44.0822C34.3906 43.9123 33.043 42.7228 32.9258 42.4767C32.7852 42.1838 32.8027 41.7971 32.9668 41.5568C33.1309 41.3166 33.2188 41.3225 33.6348 41.5978C33.8047 41.7092 33.957 41.7971 33.9746 41.7971C34.0449 41.7971 33.9922 41.6623 33.7988 41.3576C33.3594 40.6721 33.0312 40.4084 32.6855 40.4728C32.2402 40.5607 31.4668 41.3986 31.3965 41.8791C31.332 42.3127 31.4375 42.5119 32.1523 43.256C32.8672 44.0119 32.9375 44.1291 33.2715 45.1955C33.3887 45.5646 33.5469 45.9807 33.6289 46.1154C33.7051 46.2502 33.7695 46.3732 33.7695 46.385C33.7695 46.4025 33.5645 46.4435 33.3125 46.4787C33.0664 46.5139 32.6504 46.5959 32.3926 46.6603L31.9238 46.7775L31.6953 46.5256C31.5723 46.3908 31.209 45.9514 30.8926 45.5529C30.5703 45.1545 30.3125 44.8439 30.3125 44.8615C30.3125 44.9201 31.3672 46.5549 31.4961 46.6955C31.5605 46.7658 31.584 46.842 31.5547 46.8596C31.4258 46.9357 30.7285 47.0705 30.4238 47.0705C29.8789 47.0705 29.6328 46.9006 28.3965 45.676C27.7871 45.0725 26.7207 44.0705 26.0176 43.4435C25.3203 42.8166 24.7461 42.2834 24.7461 42.2541C24.7461 42.1779 26.9609 43.3791 27.6406 43.8185C27.8398 43.9475 27.8398 43.8654 27.6523 43.4553C27.2891 42.676 26.4922 41.7678 25.5664 41.0705C25.2617 40.842 24.5469 40.3791 23.9844 40.0451C22.543 39.1838 22.3555 39.0549 22.2793 38.8088C22.1855 38.5392 22.1855 36.5471 22.2734 36.09C22.4141 35.3635 22.7188 35.0002 23.1816 35.0002C23.2988 35.0002 24.002 35.1467 24.7344 35.3283C26.3809 35.7326 26.2578 35.6975 26.1523 35.7619C26.0352 35.8381 25.2734 35.8322 24.8047 35.756C24.3594 35.6857 24.1426 35.7209 24.1719 35.8674C24.1953 36.008 24.6641 36.2307 24.9512 36.2365L25.1855 36.2424L24.9219 36.3244C24.4414 36.4826 24.3711 36.5236 24.4414 36.5939C24.5469 36.6994 25.5078 36.8693 26.2109 36.9103C26.5801 36.9338 26.9316 36.9748 26.9902 37.0041C27.1602 37.092 27.2656 37.4201 27.2656 37.842C27.2656 38.5041 27.0312 38.8146 26.4746 38.9025C26.2227 38.9377 26.0527 38.8908 24.8633 38.4338C24.5586 38.3166 24.1953 38.176 24.0547 38.1291C23.9199 38.0764 23.6797 37.9475 23.5273 37.842C22.9941 37.467 22.7715 37.3439 22.6719 37.3791C22.3906 37.4846 22.7363 37.7482 24.4238 38.7209C25.0801 39.1017 25.25 39.2189 25.8184 39.6994C26.0352 39.8869 26.2754 40.0392 26.3457 40.0451C26.416 40.051 26.6621 40.0451 26.8906 40.0392C27.3418 40.0275 27.6641 40.1271 27.8984 40.3498C28.0742 40.5139 28.3438 41.0412 28.4316 41.3986C28.5488 41.885 28.6719 43.1506 28.6719 43.883C28.6719 44.5568 28.6777 44.5978 28.8184 44.7502C28.918 44.8557 29.0176 44.9025 29.1641 44.9025C29.4512 44.9025 29.5449 44.8557 29.6504 44.6447C29.7266 44.4924 29.75 44.2346 29.7559 43.1389C29.7617 42.4123 29.7852 41.7853 29.8145 41.7385C29.8379 41.6975 29.8906 41.0353 29.9316 40.2736C30.0137 38.5685 30.0371 38.4982 30.7402 37.9709C30.9863 37.7892 31.3965 37.4846 31.6426 37.2971C31.8945 37.1154 32.1523 36.8752 32.2227 36.7697C32.4043 36.506 32.6562 35.7267 32.6562 35.4455C32.6562 35.2639 32.6973 35.1818 32.8789 34.9943C33.2773 34.6017 33.5938 34.6369 33.5938 35.0822C33.5938 35.1818 33.6348 35.5158 33.6875 35.8205C33.7344 36.1252 33.7988 36.6525 33.8281 36.9924C33.8633 37.467 33.8984 37.6193 33.9805 37.6779C34.1211 37.7834 34.1562 37.7775 34.3027 37.631C34.4258 37.508 34.4316 37.4728 34.3848 36.7932C34.3613 36.4006 34.3203 35.5803 34.2969 34.9709C34.2676 34.215 34.2207 33.7639 34.1562 33.5705C33.9922 33.0725 34.0156 33.0021 34.5547 32.2287C34.8711 31.7717 34.8887 31.5197 34.6543 30.9338C34.4551 30.4299 34.4434 30.3244 34.543 29.8439C34.6191 29.4514 34.584 29.2697 34.373 29.0236C34.0742 28.6662 32.457 27.5119 31.6016 27.0432C31.0449 26.7385 30.1719 26.4455 29.8203 26.4455C29.5273 26.4455 29.4746 26.5158 29.6855 26.6271C29.9199 26.7502 30.582 27.3068 31.1152 27.8342C32.5508 29.2404 33.125 30.6642 32.4688 31.1506C32.2285 31.3322 31.7188 31.3498 31.2793 31.1975C30.8516 31.0451 30.4355 30.7932 29.5508 30.1486C28.0801 29.0705 27.0371 28.4553 26.416 28.2971C25.7949 28.133 24.8105 28.2209 24.2891 28.4904C23.9902 28.6486 23.6035 29.0646 23.1289 29.756C22.7656 30.2892 22.2324 30.9279 22.1914 30.881C22.127 30.8166 22.4844 29.8439 22.6895 29.5275C22.8242 29.3225 23.0293 28.9182 23.1406 28.6369C23.252 28.3498 23.3984 28.0334 23.4688 27.9338C23.6035 27.7346 24.5762 27.0666 25.3027 26.674C25.625 26.4982 25.7773 26.4455 26.0117 26.4455C26.375 26.4455 27.0781 26.6154 27.7168 26.8674C28.127 27.0314 28.2031 27.0783 28.2324 27.2189C28.3555 27.7756 29.1113 27.9045 29.3047 27.4006C29.3398 27.3127 29.3809 26.674 29.3926 25.9767C29.4102 25.133 29.4453 24.5881 29.5098 24.3361C29.5625 24.1076 29.6152 23.4982 29.6328 22.8127C29.6738 21.5705 29.7148 21.3303 29.9434 20.9846C30.1133 20.7267 31.3145 19.7541 31.7188 19.5432C31.959 19.4142 32.0293 19.4084 32.5098 19.4377C32.8027 19.4553 33.125 19.4494 33.2363 19.4142C33.6055 19.3088 34.0449 18.7814 34.2441 18.2014C34.3086 18.0197 34.4141 17.8088 34.4785 17.7385C34.6426 17.5627 35.9844 16.9533 36.3359 16.8947C36.7285 16.8303 36.7637 16.8303 37.0098 16.9006ZM26.498 21.3127C27.4121 21.6232 27.7461 21.9924 27.9629 22.9357C28.1035 23.5392 28.168 24.1017 28.1035 24.1017C28.0742 24.1017 27.6992 24.0197 27.2656 23.926C26.2344 23.6916 25.4023 23.6447 24.7637 23.7736C24.2305 23.8791 23.0703 24.2834 22.2031 24.6642C21.5059 24.9689 21.5586 24.8576 22.3672 24.3244C23.0176 23.8967 23.5625 23.633 24.2598 23.4221C24.5586 23.3283 24.8047 23.2346 24.8047 23.2111C24.8047 23.1877 24.7051 23.1408 24.582 23.0998C24.4062 23.0471 24.2246 23.0529 23.7148 23.1291C23.3633 23.1818 23.0527 23.2228 23.0293 23.2228C22.9473 23.2228 22.9883 23.0646 23.1641 22.7072C23.4805 22.0861 24.4004 21.342 25.0742 21.1721C25.4141 21.09 26.0117 21.1486 26.498 21.3127ZM28.1504 24.4475C28.2148 24.5119 28.3145 26.3517 28.2676 26.6389C28.2441 26.7912 28.209 26.9318 28.1914 26.9494C28.1738 26.967 27.8633 26.8264 27.5059 26.6389C26.8613 26.3049 26.8438 26.299 26.3984 26.3107C25.8711 26.3166 25.2266 26.4045 23.041 26.7678C22.1621 26.9084 21.4355 27.0197 21.4238 27.008C21.377 26.9611 24.3359 25.2443 25.2441 24.7873C25.7656 24.5295 26.0527 24.4475 26.6797 24.3947C27.1953 24.3478 28.0859 24.383 28.1504 24.4475ZM19.5664 30.1955C19.8711 30.4006 20.2109 30.6701 20.3223 30.7932C20.7676 31.3205 20.8965 32.7912 20.5098 33.0314C20.3574 33.131 20.2344 33.0197 19.9824 32.5627C19.7129 32.0705 19.5254 31.8713 18.8926 31.3908C18.2539 30.9045 18.2129 30.84 18.2246 30.3771C18.2363 29.885 18.3418 29.7619 18.7227 29.7971C18.9395 29.8205 19.1211 29.9084 19.5664 30.1955ZM52.0859 30.1252C52.1973 30.1955 52.2852 30.4182 52.2852 30.6232C52.2852 30.8107 52.209 30.8928 51.377 31.6545C50.4219 32.5158 50.2168 32.633 50.1465 32.3459C50.0938 32.1467 50.2637 31.426 50.4395 31.0803C50.627 30.7053 50.9902 30.3361 51.3066 30.1896C51.5527 30.0783 51.9688 30.0432 52.0859 30.1252ZM25.6543 31.0744C25.6367 31.1037 25.3496 31.2971 25.0215 31.4963C24.6172 31.7424 24.3008 31.9943 24.043 32.2697C23.3105 33.0549 23.0469 33.301 22.959 33.301C22.8301 33.301 22.8477 33.1838 23.0527 32.7795C23.2812 32.3225 23.7676 31.7892 24.1426 31.5842C24.3594 31.467 25.5547 31.0217 25.6719 31.0158C25.6836 31.0158 25.6719 31.0392 25.6543 31.0744ZM29.293 32.0998C30.0898 32.6447 30.2129 33.6994 29.5625 34.3732C28.8066 35.1642 27.582 34.9885 27.1133 34.0217C26.7324 33.2482 27.0312 32.3752 27.8105 31.9826C28.0742 31.8478 28.1738 31.8303 28.5371 31.8478C28.918 31.8654 28.9883 31.8889 29.293 32.0998ZM43.6602 31.9592C44.5977 32.4162 44.832 33.5529 44.1465 34.3146C43.4316 35.1115 42.1777 34.9357 41.6621 33.9748C41.4863 33.6467 41.4863 33.0139 41.6621 32.6799C41.8203 32.3869 42.248 31.9943 42.5117 31.9123C42.8516 31.801 43.373 31.8244 43.6602 31.9592ZM49.0098 34.6076C49.0566 34.7131 49.0391 34.8244 48.9277 35.1232C48.8457 35.3342 48.7227 35.715 48.6523 35.9728C48.4824 36.6115 48.2188 37.0685 47.7734 37.5256C47.3457 37.965 47.1816 38.0412 45.957 38.3693C44.4512 38.7736 43.9648 39.0607 43.25 39.9807L43.0918 40.1857V39.6877C43.0918 38.7736 43.3496 37.7248 43.6895 37.2678C43.9004 36.9924 44.375 36.7228 44.7676 36.6642C45.1543 36.6057 45.1484 36.7287 44.709 37.3557C44.3164 37.924 44.0527 38.3869 44.0996 38.4396C44.1172 38.4514 44.4336 38.1584 44.8027 37.7892C45.1719 37.4142 45.5059 37.1096 45.541 37.1096C45.582 37.1096 45.4355 37.3088 45.2246 37.5607C45.0137 37.8068 44.8438 38.0295 44.8438 38.0588C44.8438 38.1525 45.0781 38.0471 45.7227 37.6779C46.5898 37.1799 46.7363 37.0627 47.1289 36.5471C47.6094 35.9084 47.6035 35.8029 47.1055 36.1193C46.9473 36.2131 46.8125 36.2834 46.8008 36.2717C46.7598 36.2307 47.3691 35.3869 47.6445 35.0939C48.0488 34.6721 48.3887 34.4728 48.6934 34.4728C48.9043 34.4728 48.957 34.4963 49.0098 34.6076ZM19.4609 34.965C19.7598 35.2463 20.1582 35.8557 20.0879 35.926C20.041 35.9787 19.4434 35.3517 19.1855 34.9767C18.9395 34.6193 19.0859 34.6135 19.4609 34.965ZM50.4395 35.6506C50.498 35.7326 50.1523 36.4123 49.959 36.6115C49.8008 36.7697 49.7949 36.7697 49.7773 36.6467C49.7656 36.5764 49.8008 36.3771 49.8535 36.2072C50 35.7502 50.3164 35.4455 50.4395 35.6506ZM20.2695 37.385C20.6797 37.6896 20.8203 37.883 20.8203 38.1057C20.8203 38.2463 20.8027 38.2463 20.5977 38.1408C20.3516 38.0119 19.7832 37.3674 19.5898 36.9924L19.5137 36.8517L19.6836 36.9572C19.7773 37.0158 20.041 37.2092 20.2695 37.385ZM49.8652 38.0295C49.7539 38.2463 49.6133 38.5685 49.5605 38.7326C49.5078 38.9025 49.4434 39.0549 49.4141 39.0725C49.25 39.1721 49.3555 38.5568 49.5547 38.2756C49.6074 38.1994 49.6484 38.0998 49.6484 38.0529C49.6484 37.965 50 37.5607 50.0469 37.6017C50.0586 37.6135 49.9766 37.8068 49.8652 38.0295ZM41.498 39.0373C41.8086 39.3478 41.9141 39.8576 41.9141 41.1115C41.9141 41.715 41.9375 42.0373 41.9961 42.1721C42.1777 42.6115 42.6758 42.758 43.0215 42.465C43.25 42.2717 43.332 41.9846 43.2559 41.6037C43.2266 41.4396 43.209 41.3049 43.2148 41.299C43.2266 41.2932 43.3555 41.2463 43.5137 41.1935C43.8066 41.0939 43.8594 41.1291 43.6719 41.299C43.6074 41.3576 43.5547 41.4807 43.5547 41.5744C43.5547 41.7326 43.5664 41.7385 43.8359 41.7385C43.9883 41.7385 44.2051 41.715 44.3164 41.6857C44.75 41.5744 44.8438 41.5627 44.8438 41.6154C44.8438 41.7502 44.1348 42.4182 43.4199 42.9572C42.6289 43.5549 41.2695 44.7502 41.2695 44.8439C41.2695 44.8791 41.3223 44.8791 41.4043 44.8498C41.5215 44.8029 43.0039 44.0119 44.0234 43.4494L44.4043 43.2385L43.7539 43.9416C43.4023 44.3225 42.7461 45.0549 42.3008 45.5646C41.8027 46.133 41.3926 46.5432 41.2285 46.6369C40.9414 46.8068 40.3965 46.8771 40.0156 46.7951L39.7871 46.7482L40.3145 46.2795C40.6074 46.0217 40.8418 45.8049 40.8359 45.799C40.8242 45.7873 40.5137 45.9865 40.1328 46.2443L39.4414 46.7014L38.9258 46.5959C38.6445 46.5373 38.1055 46.4728 37.7305 46.4494C37.25 46.4201 37.0508 46.385 37.0508 46.3381C37.0508 46.215 37.3965 45.9514 38.1055 45.5295C39.3535 44.7971 39.5527 44.5451 39.6348 43.5783C39.6699 43.1389 39.7344 42.8459 39.875 42.4885C40.0508 42.0256 40.0625 41.9435 40.0977 40.8889C40.1211 40.2619 40.1738 39.6994 40.209 39.5998C40.4199 39.0783 41.1992 38.7385 41.498 39.0373ZM37.5488 40.01C37.5312 40.1682 37.4727 40.3791 37.4258 40.4787C37.3438 40.6486 37.3438 40.6486 37.373 40.3322C37.3906 40.1564 37.4023 39.799 37.4082 39.5412L37.4141 39.0725L37.502 39.3947C37.5547 39.6057 37.5723 39.8225 37.5488 40.01ZM44.4336 40.092C44.4336 40.1506 43.8945 40.59 43.4727 40.8713C43.1621 41.0822 43.0742 41.0822 43.0977 40.8713C43.1152 40.7365 43.1973 40.6721 43.7598 40.3791C44.4922 39.9982 44.4336 40.0217 44.4336 40.092ZM44.6445 44.299C44.0645 45.0725 43.4727 45.9572 42.8926 46.9182C42.2598 47.9728 41.9199 48.4709 41.8438 48.4767C41.791 48.4767 41.9199 48.1662 42.2363 47.5392C42.7051 46.6135 43.7832 45.0725 44.4512 44.3869C44.6504 44.1877 44.8203 44.0236 44.832 44.0236C44.8438 44.0236 44.7617 44.1467 44.6445 44.299ZM26.3457 45.0725C26.9785 45.7287 27.3359 46.2736 28.1914 47.8967C28.5547 48.5881 28.9297 49.2326 29.0176 49.3322C29.1055 49.426 29.375 49.6662 29.6152 49.8537C30.3242 50.4162 31.3555 51.342 31.5312 51.5646C31.9004 52.051 32.0879 52.2209 32.3223 52.3029C32.4922 52.3557 32.6094 52.4494 32.709 52.5959C32.8789 52.8537 33.084 52.924 33.2949 52.8068C33.5938 52.6369 33.5117 52.4846 32.668 51.5881C32.2344 51.1369 31.748 50.6857 31.584 50.5803C31.4141 50.4748 31.2148 50.3517 31.1445 50.3107C30.9395 50.1877 31.0156 50.1701 31.3379 50.2639C31.748 50.3869 32.5859 50.5217 33.2715 50.5744L33.8574 50.6154L33.8926 51.0256C33.9219 51.3537 33.9863 51.5588 34.2266 52.051C34.3906 52.3908 34.5781 52.8361 34.6484 53.0471C34.8008 53.4924 34.8945 54.3947 34.8711 55.133L34.8535 55.6545L34.5664 55.6721C34.4082 55.6838 34.2148 55.6779 34.1387 55.6545C33.9277 55.6017 33.623 55.3029 33.3535 54.881C33.0723 54.4299 32.8965 54.2541 32.5684 54.09C32.1758 53.8908 31.748 53.5334 31.4492 53.1467C31.291 52.9475 30.998 52.5959 30.7988 52.3615C30.5938 52.133 30.4297 51.9221 30.4297 51.8986C30.4297 51.8752 30.5703 51.9924 30.7461 52.1623C31.0566 52.4494 31.2559 52.5314 31.3379 52.3967C31.4199 52.2736 31.3027 52.0627 31.0098 51.7814C30.8457 51.6232 30.5938 51.3361 30.4531 51.1486C30.3066 50.9435 29.9258 50.5803 29.5508 50.2814C29.1992 49.9943 28.8066 49.631 28.6777 49.4728C28.5547 49.3146 28.168 48.6935 27.8164 48.0842C27.4707 47.4807 26.8789 46.5197 26.5039 45.9572C25.8066 44.9084 25.5078 44.4279 25.5078 44.3517C25.5078 44.2639 25.8477 44.5568 26.3457 45.0725ZM44.0586 47.1701C43.7773 47.8967 43.584 48.1955 43.1445 48.6232C42.9805 48.7814 42.7578 49.0334 42.6582 49.1799C42.5586 49.3264 42.3359 49.59 42.166 49.7717C41.9199 50.0295 41.8145 50.2053 41.6797 50.5861C41.4336 51.2541 41.3691 51.3596 40.959 51.8107C40.5137 52.2971 40.0156 52.9299 40.0742 52.9299C40.1035 52.9299 40.2383 52.8185 40.373 52.6838C40.8535 52.2092 40.6191 52.5373 40.0684 53.1057C39.7637 53.4221 39.5117 53.7092 39.5117 53.7502C39.5117 53.7853 39.623 53.7443 39.7637 53.6623C40.1445 53.4221 40.502 53.2697 40.5723 53.3166C40.7598 53.4338 40.4082 54.2658 39.9453 54.7932C39.3828 55.4318 38.8203 55.6838 37.9473 55.6838C37.5078 55.6838 36.2656 55.5373 36.1836 55.4728C36.1602 55.4611 36.4824 53.3869 36.5996 52.7834C36.6582 52.4728 36.6641 52.256 36.623 51.9396C36.5938 51.7053 36.5879 51.424 36.6113 51.3127C36.6582 51.0549 36.9688 50.7443 37.3145 50.6154C37.6367 50.4865 37.7012 50.5275 37.7305 50.8908C37.7598 51.131 37.748 51.1486 37.4902 51.3361C37.1855 51.5588 37.1738 51.6584 37.4668 51.6994L37.666 51.7287L37.2734 52.0392C36.7578 52.4494 36.752 52.5373 37.2441 52.426C37.8066 52.2971 37.9707 52.2326 38.6211 51.9221C38.9551 51.758 39.2363 51.6408 39.2539 51.6584C39.2715 51.676 38.8965 52.092 38.4219 52.59C37.8594 53.176 37.5898 53.4924 37.6484 53.5041C37.9121 53.5568 40.2793 51.9162 40.7188 51.3713C40.8359 51.2307 41.0117 50.9025 41.1172 50.633C41.4395 49.8244 41.5273 49.6896 42.2012 49.0627C42.9863 48.3361 43.4082 47.8322 43.7246 47.2404C43.9531 46.8127 44.2344 46.4435 44.2871 46.4963C44.3047 46.508 44.1992 46.8127 44.0586 47.1701ZM26.2285 47.4455C26.5801 47.9787 27.0547 48.8225 27.0195 48.8576C26.9668 48.9103 26.5977 48.5588 26.3926 48.2541C26.1406 47.8791 25.8301 47.2814 25.707 46.9299L25.6191 46.6955L25.7715 46.8361C25.8477 46.9123 26.0586 47.1877 26.2285 47.4455ZM38.9141 47.8205C39.002 47.9318 39.0078 48.7287 38.9258 48.8928C38.7793 49.1564 38.0938 49.2971 38.0234 49.0744C37.9707 48.9162 37.9531 47.8498 38 47.7971C38.0645 47.7326 38.457 47.6799 38.6621 47.7033C38.7617 47.715 38.873 47.7678 38.9141 47.8205ZM41.5508 47.7267C41.5098 47.8381 41.0352 48.1193 40.8184 48.1603C40.6309 48.1955 40.625 48.1955 40.625 47.9963V47.7912L40.9941 47.7326C41.5156 47.6447 41.5742 47.6447 41.5508 47.7267ZM29.8438 47.885C30.0723 47.967 30.1074 48.008 30.125 48.1721C30.1484 48.4006 30.0723 48.4123 29.6973 48.2365C29.4453 48.1193 29.1992 47.885 29.1992 47.7619C29.1992 47.6975 29.4688 47.7502 29.8438 47.885ZM37.6074 47.7971C37.8008 47.8791 37.8125 47.9025 37.8125 48.1721C37.8125 49.0568 37.2266 49.6545 36.7871 49.2092C36.6523 49.0803 36.6406 49.0217 36.6406 48.5412C36.6406 48.2541 36.6641 47.9494 36.6992 47.8674C36.752 47.7267 36.7871 47.715 37.0801 47.715C37.2617 47.715 37.4961 47.756 37.6074 47.7971ZM40.4844 48.0197C40.4609 48.1603 40.4023 48.3303 40.3555 48.4006C40.2324 48.5881 39.9453 48.7228 39.6992 48.6994C39.4355 48.676 39.3359 48.5178 39.3359 48.0783V47.7736H39.9277H40.5254L40.4844 48.0197ZM33.0312 47.9553C33.1309 48.0549 33.2129 49.0568 33.1309 49.174C33.0547 49.2912 32.4922 49.3205 32.3047 49.2267C32.0176 49.0744 31.7598 48.3771 31.8945 48.1252C32.0059 47.9201 32.2461 47.8264 32.6152 47.8498C32.8086 47.8615 32.9844 47.9025 33.0312 47.9553ZM34.748 48.0432C34.8652 48.2014 34.9004 48.6057 34.8301 48.9807C34.7832 49.2443 34.7246 49.3615 34.5898 49.4846C34.3438 49.7072 33.998 49.7131 33.7988 49.4963C33.6113 49.2971 33.4121 48.7521 33.4004 48.424C33.3887 48.1896 33.4062 48.1545 33.5762 48.0549C33.957 47.8264 34.584 47.8264 34.748 48.0432ZM31.5078 48.0432C31.5957 48.2658 31.6133 48.7697 31.543 48.8576C31.3965 49.0334 30.9688 48.8869 30.8457 48.6115C30.7402 48.383 30.7637 48.0197 30.8867 47.9904C31.1387 47.926 31.4727 47.9494 31.5078 48.0432ZM30.5469 48.2189C30.5469 48.4006 30.5293 48.424 30.418 48.4064C30.3125 48.3947 30.2773 48.342 30.2656 48.1955C30.248 48.0256 30.2598 48.008 30.3945 48.008C30.5293 48.008 30.5469 48.0314 30.5469 48.2189ZM36.0254 48.6584C36.0781 48.758 36.125 48.9865 36.1309 49.1682C36.1426 49.4846 36.1367 49.5021 36.002 49.5021C35.9199 49.5021 35.8145 49.4435 35.7559 49.3557C35.6094 49.1623 35.5449 48.6818 35.6445 48.5646C35.7617 48.424 35.9258 48.4592 36.0254 48.6584ZM40.1855 49.8185C40.1211 49.883 39.7637 50.0939 39.3945 50.299C39.0254 50.4982 38.6504 50.715 38.5625 50.7736C38.3984 50.885 38.3984 50.885 38.3984 50.7619C38.3984 50.6975 38.4336 50.551 38.4805 50.4455C38.5449 50.2932 38.6094 50.2404 38.7559 50.2111C38.8672 50.1935 39.2305 50.0705 39.5703 49.9416C40.2734 49.6779 40.3438 49.6662 40.1855 49.8185ZM38.5449 51.1428C38.3633 51.2951 38.2812 51.3244 38.2812 51.2424C38.2812 51.2014 38.6094 51.008 38.6914 51.0021C38.709 51.0021 38.6445 51.0666 38.5449 51.1428Z" fill="white"/>
<path d="M39.6875 20.8789C39.6875 20.9082 39.7109 20.9375 39.7402 20.9375C39.7754 20.9375 39.8164 20.9082 39.834 20.8789C39.8516 20.8438 39.8281 20.8203 39.7812 20.8203C39.7285 20.8203 39.6875 20.8438 39.6875 20.8789Z" fill="white"/>
<path d="M36.6699 22.1094C36.6523 22.1387 36.6758 22.168 36.7227 22.168C36.7695 22.168 36.8281 22.1387 36.8457 22.1094C36.8633 22.0742 36.8398 22.0508 36.793 22.0508C36.7461 22.0508 36.6875 22.0742 36.6699 22.1094Z" fill="white"/>
<path d="M33.3945 23.1992C33.3418 23.3398 33.3535 23.5156 33.418 23.5156C33.4766 23.5156 33.5937 23.2754 33.5937 23.1582C33.5937 23.0703 33.4355 23.0996 33.3945 23.1992Z" fill="white"/>
<path d="M32.0117 23.2227C31.9648 23.252 31.9414 23.293 31.9648 23.3106C32.0176 23.3633 32.2461 23.2871 32.2461 23.2168C32.2461 23.1465 32.123 23.1524 32.0117 23.2227Z" fill="white"/>
<path d="M33.9453 23.2876C33.9453 23.3169 33.9746 23.3287 34.0039 23.3111C34.0391 23.2935 34.0625 23.2642 34.0625 23.2466C34.0625 23.2349 34.0391 23.2232 34.0039 23.2232C33.9746 23.2232 33.9453 23.2525 33.9453 23.2876Z" fill="white"/>
<path d="M38.9375 53.3228C38.6328 53.6978 38.3398 54.1079 38.3398 54.1724C38.3398 54.313 38.4805 54.1665 38.791 53.7036C39.1953 53.1177 39.2363 53.0474 39.2012 53.0474C39.1836 53.0474 39.0664 53.1704 38.9375 53.3228Z" fill="white"/>
<path d="M17.5801 12.9571C17.4805 13.0626 17.4805 13.0802 17.5684 13.1681C17.6855 13.2853 17.8906 13.2911 18.043 13.1798C18.1309 13.1095 18.1426 13.0743 18.0898 12.9864C17.9961 12.8341 17.7031 12.8224 17.5801 12.9571Z" fill="white"/>
<path d="M14.9668 14.4865C14.8965 14.5333 14.8965 14.5626 14.9785 14.6915C15.1426 14.9435 15.3535 15.049 15.5176 14.9728C15.7461 14.8673 15.7168 14.6271 15.459 14.5157C15.2305 14.422 15.084 14.4103 14.9668 14.4865Z" fill="white"/>
<path d="M16.3672 14.961C16.2207 15.1075 16.2207 15.1543 16.3848 15.3418C16.5605 15.5469 16.9648 15.6114 17.1289 15.459C17.2461 15.3536 17.2813 15.1602 17.1992 15.043C17.0527 14.8262 16.5547 14.7735 16.3672 14.961Z" fill="white"/>
<path d="M17.6738 14.9021C17.4277 15.0017 17.4512 15.3474 17.7148 15.4881C17.8906 15.5818 18.2129 15.5584 18.3184 15.4412C18.6172 15.1131 18.1426 14.7146 17.6738 14.9021Z" fill="white"/>
<path d="M50.6152 15.0137C50.5742 15.084 50.7969 15.3536 50.8496 15.3008C50.9082 15.2422 50.8262 15.0372 50.7324 14.9961C50.6855 14.9786 50.6328 14.9903 50.6152 15.0137Z" fill="white"/>
<path d="M16.2266 15.8461C15.9102 16.0981 16.1387 16.4789 16.6426 16.5258C17.0762 16.5668 17.334 16.3207 17.2109 15.9867C17.1113 15.7289 16.4961 15.6352 16.2266 15.8461Z" fill="white"/>
<path d="M51.5937 16.0507C51.5996 16.1034 51.6465 16.162 51.6875 16.1796C51.7402 16.1972 51.7637 16.1679 51.7461 16.0976C51.7402 16.0448 51.6934 15.9862 51.6523 15.9686C51.5996 15.9511 51.5762 15.9804 51.5937 16.0507Z" fill="white"/>
<path d="M19.0273 16.2796C18.9688 16.4203 19.1211 16.5492 19.3145 16.5316C19.5254 16.5082 19.5723 16.4203 19.4434 16.2855C19.3203 16.1683 19.0684 16.1625 19.0273 16.2796Z" fill="white"/>
<path d="M13.9356 16.6892C13.7598 16.8592 13.7539 16.9588 13.8945 17.0877C14.0469 17.2224 14.2168 17.2107 14.3633 17.0525C14.7031 16.6951 14.2813 16.3377 13.9356 16.6892Z" fill="white"/>
<path d="M17.1582 17.1875C17.1758 17.2168 17.2051 17.2461 17.2227 17.2461C17.2344 17.2461 17.2461 17.2168 17.2461 17.1875C17.2461 17.1523 17.2168 17.1289 17.1816 17.1289C17.1523 17.1289 17.1406 17.1523 17.1582 17.1875Z" fill="white"/>
<path d="M15.8867 17.2875C15.7461 17.4575 15.7227 17.5864 15.8164 17.686C16.0039 17.8735 16.3027 17.4809 16.1328 17.2758C16.0391 17.1645 15.9922 17.1645 15.8867 17.2875Z" fill="white"/>
<path d="M10.9414 17.9141C10.8887 18.043 10.9531 18.1836 11.0645 18.1836C11.1348 18.1836 11.1523 18.1367 11.1406 18.0254C11.123 17.8496 10.9941 17.7793 10.9414 17.9141Z" fill="white"/>
<path d="M15.0195 17.9494C14.9668 18.049 14.9844 18.0959 15.1074 18.2189C15.2715 18.383 15.4707 18.3888 15.5703 18.2306C15.6172 18.1486 15.6055 18.1017 15.5176 18.0138C15.3301 17.838 15.0957 17.8087 15.0195 17.9494Z" fill="white"/>
<path d="M18.7168 18.2071C18.5645 18.3887 18.8984 18.6348 19.0918 18.4766C19.2031 18.3829 19.2031 18.3301 19.0859 18.2188C18.9746 18.1016 18.8047 18.0958 18.7168 18.2071Z" fill="white"/>
<path d="M53.9609 20.0064C53.5684 20.317 53.9902 21.1548 54.5176 21.1021C54.9805 21.0552 55.0391 20.5162 54.6289 20.106C54.3769 19.8482 54.1953 19.8248 53.9609 20.0064Z" fill="white"/>
<path d="M55.2207 22.4196C55.1855 22.4665 55.1152 22.6013 55.0625 22.7243C54.9805 22.9177 54.9805 22.9587 55.0566 23.0349C55.1387 23.1111 55.1621 23.1052 55.2969 22.9704C55.4434 22.8239 55.4844 22.6247 55.4141 22.4372C55.373 22.3259 55.3086 22.32 55.2207 22.4196Z" fill="white"/>
<path d="M11.7441 23.0358C11.7031 23.1178 11.7031 23.1764 11.7617 23.2585C11.832 23.3522 11.8555 23.3522 11.9375 23.2819C12.0605 23.1823 12.0371 22.9655 11.9023 22.9421C11.8496 22.9303 11.7793 22.9714 11.7441 23.0358Z" fill="white"/>
<path d="M55.918 23.4336C55.918 23.4805 55.9473 23.5039 55.9766 23.4864C56.0117 23.4688 56.0352 23.4278 56.0352 23.3926C56.0352 23.3633 56.0117 23.3399 55.9766 23.3399C55.9473 23.3399 55.918 23.3809 55.918 23.4336Z" fill="white"/>
<path d="M53.6328 23.5449C53.6328 23.5918 53.6738 23.6328 53.7207 23.6328C53.7676 23.6328 53.8086 23.5918 53.8086 23.5449C53.8086 23.498 53.7676 23.457 53.7207 23.457C53.6738 23.457 53.6328 23.498 53.6328 23.5449Z" fill="white"/>
<path d="M55.0508 23.9551C54.9512 24.166 54.9629 24.2188 55.0977 24.2188C55.2266 24.2188 55.3555 24.0195 55.3086 23.8906C55.2559 23.7617 55.1211 23.7969 55.0508 23.9551Z" fill="white"/>
<path d="M16.9824 24.5708C16.8711 24.7466 17.1465 25.022 17.3633 24.9516C17.4922 24.9106 17.5215 24.6938 17.4102 24.5825C17.3223 24.4946 17.0352 24.4888 16.9824 24.5708Z" fill="white"/>
<path d="M14.7324 24.8521C14.627 25.0513 14.9375 25.356 15.1133 25.2095C15.2363 25.1099 15.2129 24.94 15.0664 24.8404C14.8965 24.7174 14.8027 24.7232 14.7324 24.8521Z" fill="white"/>
<path d="M52.8008 25.0684C52.6602 25.3848 52.9531 25.707 53.1992 25.5019C53.2988 25.4199 53.2754 25.1445 53.1582 24.998C53.0527 24.875 52.877 24.9101 52.8008 25.0684Z" fill="white"/>
<path d="M55.8359 25.0681C55.6191 25.1618 55.5078 25.5485 55.5488 26.0407C55.5781 26.3337 55.5664 26.3864 55.4492 26.4802C55.168 26.7146 55.1504 26.738 55.2207 26.861C55.2676 26.9548 55.332 26.9724 55.5254 26.9607C55.7656 26.9431 55.7715 26.9372 55.9238 26.5564C56.0645 26.2165 56.0762 26.1403 56.0176 25.9294C55.9648 25.7302 55.9707 25.654 56.0586 25.4607C56.1641 25.2204 56.1699 25.0329 56.0645 25.0036C56.0352 24.9978 55.9297 25.0212 55.8359 25.0681Z" fill="white"/>
<path d="M54.6523 25.6248C54.4531 25.701 54.4356 25.7889 54.5938 25.8944C54.7051 25.9647 54.7813 25.9764 54.9043 25.9354C55.0977 25.8709 55.1328 25.783 55.0098 25.66C54.9043 25.5545 54.834 25.5487 54.6523 25.6248Z" fill="white"/>
<path d="M12.1602 26.8086C11.9902 26.9786 12.1133 27.3301 12.3828 27.4708C12.7109 27.6407 12.9688 27.5293 12.9688 27.2071C12.9688 26.879 12.377 26.5918 12.1602 26.8086Z" fill="white"/>
<path d="M54.1016 27.0721C53.9141 27.1365 53.8086 27.3475 53.8086 27.6639C53.8086 27.9158 53.8379 27.9979 53.9551 28.1151C54.2773 28.4432 54.6289 28.1678 54.6289 27.5994C54.6289 27.2303 54.377 26.9783 54.1016 27.0721Z" fill="white"/>
<path d="M55.1387 27.5123C54.9687 27.6471 54.9102 27.8932 55.0098 28.1158C55.0918 28.3268 55.1328 28.3502 55.3027 28.2857C55.4199 28.2389 55.5664 27.9576 55.5664 27.776C55.5664 27.6354 55.4082 27.442 55.2969 27.442C55.2617 27.442 55.1914 27.4772 55.1387 27.5123Z" fill="white"/>
<path d="M55.8711 27.5709C55.7715 27.694 55.8887 27.8404 56.0176 27.7584C56.0762 27.7233 56.123 27.6588 56.123 27.6119C56.123 27.5006 55.9531 27.4772 55.8711 27.5709Z" fill="white"/>
<path d="M13.0039 27.7702C12.8457 27.9284 12.916 28.1393 13.2383 28.4616C13.6895 28.901 14.2402 29.1354 14.4219 28.9537C14.5859 28.7897 14.5039 28.5553 14.1582 28.2096C13.6602 27.7174 13.2207 27.5534 13.0039 27.7702Z" fill="white"/>
<path d="M12.6113 28.9655C12.752 29.0885 12.8516 29.1178 12.8516 29.0358C12.8516 28.9479 12.7109 28.8483 12.5938 28.8483C12.4766 28.8541 12.4766 28.8541 12.6113 28.9655Z" fill="white"/>
<path d="M12.9219 29.358C12.9336 29.4635 13.0098 29.5631 13.1387 29.651C13.3789 29.815 13.4375 29.8209 13.4375 29.6803C13.4316 29.5572 13.3379 29.4342 13.1445 29.2994C12.9453 29.1647 12.8984 29.1764 12.9219 29.358Z" fill="white"/>
<path d="M55.5137 29.5924C55.3789 29.7565 55.3965 29.9381 55.5547 30.0612C55.6777 30.1608 55.7012 30.1608 55.8828 30.0143C56.0469 29.8854 56.0879 29.6276 55.9648 29.5045C55.8477 29.3873 55.6426 29.4284 55.5137 29.5924Z" fill="white"/>
<path d="M54.7168 30.0199C54.5117 30.2484 54.752 30.5765 54.9688 30.3597C55.0977 30.2308 55.0156 29.9027 54.8633 29.9027C54.8398 29.9027 54.7754 29.9554 54.7168 30.0199Z" fill="white"/>
<path d="M14.8555 31.0859C14.7383 31.2031 14.7793 31.4082 14.9375 31.5371C15.1895 31.7363 15.4297 31.666 15.4297 31.3965C15.4297 31.1328 15.0254 30.916 14.8555 31.0859Z" fill="white"/>
<path d="M55.4492 32.2754C55.332 32.416 55.4258 32.6562 55.6016 32.6562C55.7656 32.6562 55.8301 32.5449 55.7773 32.334C55.7363 32.1699 55.5664 32.1348 55.4492 32.2754Z" fill="white"/>
<path d="M14.0234 35.6387C14.0234 35.7324 14.3223 36.0547 14.4102 36.0547C14.5449 36.0547 14.5039 35.8848 14.3398 35.7324C14.1816 35.5859 14.0234 35.5391 14.0234 35.6387Z" fill="white"/>
<path d="M15.0195 37.1566C15.0195 37.2386 15.3066 37.4847 15.3535 37.4437C15.3711 37.4202 15.3301 37.3382 15.2539 37.2562C15.1133 37.1097 15.0195 37.0687 15.0195 37.1566Z" fill="white"/>
<path d="M16.4258 38.3874C16.4258 38.4811 16.6836 38.7155 16.707 38.6393C16.7187 38.5983 16.6836 38.5163 16.625 38.4518C16.5195 38.3346 16.4258 38.3053 16.4258 38.3874Z" fill="white"/>
<path d="M54.5 38.5454C54.4531 38.6509 54.4531 38.7153 54.4941 38.7563C54.6172 38.8794 54.9219 38.604 54.8281 38.4516C54.7637 38.3462 54.5645 38.3989 54.5 38.5454Z" fill="white"/>
<path d="M54.8691 40.1328C54.7227 40.3203 54.7168 40.3906 54.834 40.3906C54.9394 40.3906 55.2148 40.1387 55.2148 40.0391C55.2148 39.9219 54.9863 39.9805 54.8691 40.1328Z" fill="white"/>
<path d="M18.2187 40.1918C18.166 40.3265 18.2832 40.5023 18.4473 40.5433C18.6172 40.5844 18.7109 40.5375 18.7109 40.3969C18.7109 40.1625 18.2949 39.9867 18.2187 40.1918Z" fill="white"/>
<path d="M54.418 41.1645C54.2539 41.2407 54.0195 41.6567 54.1016 41.7094C54.2129 41.7797 54.8047 41.3286 54.8047 41.1704C54.8047 41.0825 54.5937 41.0766 54.418 41.1645Z" fill="white"/>
<path d="M51.4414 44.0176C51.3359 44.1289 51.3184 44.2578 51.4004 44.2578C51.4707 44.2578 51.6406 44.0879 51.6406 44.0234C51.6406 43.918 51.5352 43.9121 51.4414 44.0176Z" fill="white"/>
<path d="M50.9609 45.0488C50.8496 45.3418 51.1895 45.6289 51.4414 45.459C51.6172 45.3477 51.623 45.1719 51.4531 45.0547C51.2832 44.9375 51.002 44.9316 50.9609 45.0488Z" fill="white"/>
<path d="M19.959 46.1683C19.9063 46.309 20.0176 46.4496 20.1875 46.473C20.3633 46.4965 20.4395 46.3558 20.3516 46.1859C20.2754 46.0511 20.0117 46.0394 19.959 46.1683Z" fill="white"/>
<path d="M47.416 47.0475C47.2754 47.2116 47.0586 47.6628 47.0996 47.7038C47.2109 47.821 47.5625 47.2995 47.5273 47.0651C47.5098 46.9421 47.5098 46.9421 47.416 47.0475Z" fill="white"/>
<path d="M48.0195 47.5689C47.9492 47.6217 47.8496 47.7447 47.7969 47.8443C47.7148 48.0025 47.7148 48.0318 47.7969 48.1138C47.873 48.1959 47.8965 48.19 48.0312 48.1021C48.3301 47.9088 48.459 47.5338 48.2422 47.4927C48.1953 47.4869 48.0957 47.522 48.0195 47.5689Z" fill="white"/>
<path d="M47.5977 49.0625C47.5273 49.1973 47.5625 49.2969 47.6855 49.2969C47.791 49.2969 47.9492 49.1328 47.9492 49.0273C47.9492 48.8984 47.668 48.9277 47.5977 49.0625Z" fill="white"/>
<path d="M23.1055 49.5605C22.9941 49.6953 23.0586 49.8535 23.2227 49.8535C23.334 49.8535 23.375 49.8184 23.3867 49.7129C23.416 49.5078 23.2344 49.4023 23.1055 49.5605Z" fill="white"/>
<path d="M23.709 50.235C23.5215 50.3463 23.4102 50.5807 23.4863 50.6979C23.5039 50.733 23.6094 50.7623 23.7148 50.7623C23.8203 50.7623 23.9434 50.7975 23.9961 50.8326C24.1895 50.9967 24.3945 51.3365 24.3945 51.5123C24.3945 51.6119 24.4414 51.735 24.4941 51.7877C24.6406 51.9401 25.1328 51.8697 25.3262 51.6705L25.4727 51.524L25.2734 51.319C25.1621 51.2018 24.9687 51.0553 24.8516 50.9967C24.7109 50.9205 24.5879 50.7858 24.5059 50.6276C24.248 50.1178 24.0547 50.0182 23.709 50.235Z" fill="white"/>
<path d="M47.9492 50.3163C47.9082 50.369 47.8906 50.451 47.9141 50.4979C47.9785 50.6678 48.2656 50.5565 48.2305 50.3749C48.207 50.2343 48.0488 50.205 47.9492 50.3163Z" fill="white"/>
<path d="M45.2656 51.0083C45.1543 51.1197 45.1836 51.2251 45.3359 51.2955C45.5234 51.3833 45.7344 51.272 45.7109 51.0962C45.6992 51.0025 45.6465 50.9615 45.5176 50.9497C45.418 50.938 45.3066 50.9673 45.2656 51.0083Z" fill="white"/>
<path d="M25.8887 51.3769C25.5488 51.7108 25.8945 52.3436 26.4277 52.3612C26.7031 52.3671 26.9434 52.1151 26.8848 51.8808C26.8262 51.6522 26.6973 51.4706 26.4863 51.3476C26.2344 51.1894 26.0586 51.2011 25.8887 51.3769Z" fill="white"/>
<path d="M22.6602 51.4355C22.6074 51.5703 22.748 51.6992 22.9414 51.6992C23.1289 51.6992 23.2168 51.5645 23.1055 51.4355C23.0117 51.3184 22.7012 51.3242 22.6602 51.4355Z" fill="white"/>
<path d="M46.9062 52.4439C46.8652 52.4615 46.7949 52.5494 46.748 52.6373C46.666 52.7896 46.6719 52.8131 46.7598 52.8599C46.8945 52.9361 47.0996 52.8365 47.1816 52.6549C47.2812 52.4381 47.1582 52.3385 46.9062 52.4439Z" fill="white"/>
<path d="M23.8906 53.1705C23.873 53.2056 23.8848 53.2642 23.9141 53.2935C23.9902 53.3697 24.1777 53.2467 24.125 53.1588C24.084 53.0885 23.9434 53.0943 23.8906 53.1705Z" fill="white"/>
<path d="M22.8477 53.3342C22.8242 53.3635 22.8359 53.4045 22.8652 53.4221C22.8945 53.4455 22.9355 53.4338 22.9531 53.4045C22.9766 53.3752 22.9648 53.3342 22.9355 53.3166C22.9063 53.2932 22.8652 53.3049 22.8477 53.3342Z" fill="white"/>
<path d="M45.7754 53.5508C45.6582 53.6914 45.7812 53.8379 46.0156 53.8379C46.2266 53.8379 46.3496 53.709 46.291 53.5508C46.2441 53.4277 45.8809 53.4219 45.7754 53.5508Z" fill="white"/>
<path d="M26.3574 54.3187C26.0762 54.389 25.9648 54.6234 26.0937 54.8695C26.2578 55.1742 26.9316 55.2621 27.1777 55.0101C27.3477 54.8461 27.3594 54.764 27.2305 54.5765C27.0664 54.3422 26.6973 54.2367 26.3574 54.3187Z" fill="white"/>
<path d="M28.9297 55.7126C28.8184 55.8005 28.8184 55.8005 28.9297 55.8884C29.0762 55.9997 29.2227 55.9997 29.3105 55.8943C29.3691 55.8298 29.3516 55.7947 29.2461 55.7185C29.082 55.6013 29.0762 55.6013 28.9297 55.7126Z" fill="white"/>
<path d="M29.8906 56.8325C29.668 56.8969 29.791 57.0317 30.1836 57.1489C30.4004 57.2133 30.6758 57.3364 30.793 57.4243C31.2031 57.7055 31.3262 57.4653 30.9687 57.0844C30.7578 56.8559 30.7227 56.8442 30.3711 56.8266C30.1602 56.8149 29.9434 56.8149 29.8906 56.8325Z" fill="white"/>
<path d="M36.5 56.8729C36.3301 56.996 36.4004 57.2245 36.623 57.2889C36.9512 57.3768 37.25 57.078 37.0391 56.867C36.9453 56.7733 36.6289 56.7792 36.5 56.8729Z" fill="white"/>
<path d="M42.5996 57.1314C42.5059 57.2193 42.5703 57.272 42.7461 57.2544C42.9863 57.231 43.0391 57.0904 42.8105 57.0904C42.7109 57.0904 42.6172 57.108 42.5996 57.1314Z" fill="white"/>
<path d="M31.9707 57.2421C31.8887 57.453 32.4629 57.9042 32.7148 57.8222C32.9609 57.746 32.8145 57.4237 32.4629 57.2597C32.1641 57.1249 32.0176 57.1191 31.9707 57.2421Z" fill="white"/>
<path d="M33.5938 57.207C33.5938 57.2363 33.623 57.2656 33.6523 57.2656C33.6875 57.2656 33.7109 57.2363 33.7109 57.207C33.7109 57.1719 33.6875 57.1484 33.6523 57.1484C33.623 57.1484 33.5938 57.1719 33.5938 57.207Z" fill="white"/>
</g>
<defs>
<clipPath id="clip0_631_97">
<rect width="70" height="70" fill="white"/>
</clipPath>
</defs>
</svg>
