<svg width="19" height="25" viewBox="0 0 19 25" fill="none" xmlns="http://www.w3.org/2000/svg">
<path d="M9.04882 0.470928C8.68261 0.739483 8.32128 1.16429 8.15527 1.51097C8.00878 1.82347 7.99902 1.87718 7.99902 2.38499C7.99902 2.9221 7.99902 2.92698 8.20409 3.33714C8.33105 3.59593 8.60937 4.0012 8.95605 4.43089C9.69823 5.35863 9.83495 5.67601 9.66405 6.08128C9.5664 6.32054 9.13183 6.68187 8.68749 6.89671C8.46777 6.99925 7.82323 7.25316 7.24706 7.45823C6.67577 7.66331 5.95312 7.93675 5.6455 8.06859C2.6328 9.36253 0.684563 11.7063 0.235344 14.5871C0.123039 15.3049 0.157219 16.6623 0.303703 17.3557C0.572258 18.591 1.08495 19.6946 1.87597 20.7151C2.74999 21.8479 3.82909 22.7121 5.15722 23.3567C8.34081 24.8899 12.1934 24.4553 14.9082 22.258C16.5342 20.9397 17.6719 19.1184 18.082 17.1604C18.1894 16.6526 18.2773 15.1926 18.1992 15.2024C18.1748 15.2024 18.0283 15.3537 17.8721 15.5393C17.1543 16.3938 15.6797 17.3313 14.1855 17.8879C13.5459 18.1272 12.5156 18.386 11.7588 18.4983C10.9678 18.6155 9.57128 18.6155 8.80468 18.4983C5.83593 18.0442 4.11718 16.7649 3.59472 14.6311C3.49218 14.1965 3.49218 13.2981 3.5996 12.8196C3.98534 11.0618 5.39648 9.45531 7.84765 7.97093C8.16503 7.7805 8.43359 7.63402 8.44335 7.64378C8.48241 7.68284 8.03808 8.23948 7.46191 8.87425C6.76855 9.64573 6.52441 9.97288 6.26562 10.5149C5.99218 11.0959 5.87499 11.5891 5.87499 12.1946C5.87499 13.2785 6.28027 14.1477 7.21288 15.0754C8.72167 16.5793 11.2363 17.4338 13.4678 17.1994C15.4551 16.9944 16.6221 15.9934 16.6172 14.4895C16.6123 13.4787 16.1484 12.5803 15.3574 12.053C14.8447 11.716 14.3564 11.5647 13.7607 11.5696C13.1211 11.5696 12.7939 11.6868 12.4326 12.0481C12.0957 12.3899 11.9883 12.7219 12.0762 13.1614C12.1689 13.635 12.3887 14.011 12.9453 14.6457C13.1113 14.841 13.2334 15.0022 13.209 15.0022C13.082 15.0022 12.5937 14.8215 12.2959 14.6701C11.8369 14.4309 11.4512 14.0403 11.2412 13.6106C11.0947 13.3078 11.0752 13.22 11.0752 12.8782C11.0752 12.5705 11.0996 12.4387 11.1875 12.2629C11.3437 11.9455 11.793 11.5159 12.4521 11.0471C13.9365 10.0022 14.4053 9.59202 14.8105 8.99632C15.6016 7.82933 15.499 6.49632 14.5225 5.27073C13.8291 4.40159 12.9551 3.77659 11.1728 2.87815C9.95702 2.26292 9.46874 1.90648 9.26366 1.48655C9.14159 1.2473 9.14159 0.685772 9.25878 0.461163C9.3662 0.26585 9.32714 0.26585 9.04882 0.470928Z" fill="black"/>
<path d="M5.25486 11.7649C5.1865 12.0579 5.16697 12.3313 5.17185 12.9514C5.17674 13.6594 5.19138 13.8157 5.30369 14.2356C5.77244 15.9934 7.05662 17.2922 8.82908 17.8098C9.35642 17.9612 10.3037 18.0491 10.7822 17.9954L11.124 17.9563L10.4648 17.8196C9.62986 17.6487 8.77537 17.3606 8.21384 17.0725C6.79295 16.3401 5.82615 15.1633 5.42576 13.6936C5.30369 13.2346 5.24998 12.0774 5.33299 11.6819C5.42088 11.2717 5.3574 11.3401 5.25486 11.7649Z" fill="black"/>
</svg>
