<svg width="119" height="24" viewBox="0 0 119 24" fill="none" xmlns="http://www.w3.org/2000/svg">
<path d="M97.9371 0.710419C97.8657 0.777619 96.9137 0.844819 95.8427 0.861619C92.8439 0.928819 92.5821 0.945619 92.5821 1.06322C92.5821 1.13042 91.7967 1.13042 90.8685 1.08002C88.8217 0.962419 87.4175 0.996019 83.0621 1.24802C80.6107 1.39922 79.5159 1.39922 78.4925 1.23122C77.1121 1.02962 75.9459 1.13042 75.6365 1.46642C75.5175 1.60082 74.3751 1.66802 72.3045 1.70162C70.5671 1.71842 68.2823 1.78562 67.235 1.85282C66.1878 1.90322 64.6646 1.95362 63.8554 1.93682C63.0462 1.92002 62.118 2.00402 61.8324 2.10482C61.523 2.22242 60.1902 2.34002 58.786 2.37362C55.573 2.45762 54.6448 2.50802 54.3354 2.64242C54.1926 2.70962 53.0264 2.69282 51.765 2.59202C49.9324 2.45762 49.2184 2.47442 48.2426 2.65922C47.3858 2.82722 44.4584 2.96162 38.794 3.07922C34.272 3.18002 28.7742 3.31442 26.537 3.38162C24.3236 3.44882 22.3244 3.49922 22.134 3.46562C21.6818 3.41522 21.6342 3.41522 18.4688 3.41522C16.779 3.41522 15.7318 3.34802 15.4938 3.21362C15.2796 3.09602 14.042 2.99522 12.1618 2.94482C10.1388 2.91122 9.0202 2.81042 8.687 2.65922C8.4014 2.52482 8.1158 2.47442 8.0444 2.52482C7.9492 2.57522 7.4018 2.64242 6.783 2.69282C5.2836 2.77682 3.808 3.26402 1.9992 4.28882C0.118997 5.34722 0.0237968 5.73362 1.4756 6.40562C2.1896 6.75842 2.7846 6.87602 3.6652 6.89282C5.355 6.92642 5.474 6.94322 5.474 7.11122C5.474 7.17842 4.879 7.68242 4.165 8.22002C3.0702 9.00962 2.856 9.27842 2.9512 9.63122C3.0226 9.86642 3.1416 10.5048 3.213 11.0424C3.3558 11.9328 3.332 12.0168 2.9274 11.9664C2.618 11.9328 2.5228 11.7816 2.5704 11.496C2.6418 11.16 2.5942 11.1264 2.38 11.2776C2.2134 11.3784 2.023 12.0336 1.9754 12.7056C1.8564 13.7304 1.7374 14.016 1.2376 14.4024C0.761597 14.7552 0.690197 14.9064 0.904398 15.0576C1.309 15.3432 1.2614 15.528 0.737797 15.528C-0.142803 15.528 -0.0714032 16.116 0.951998 17.2248C1.4756 17.796 1.904 18.3504 1.904 18.4512C1.904 18.9216 3.4748 19.9296 4.9028 20.4C5.7358 20.6856 6.5212 20.904 6.664 20.904C6.783 20.904 7.3066 21.156 7.7826 21.4416C8.8536 22.0968 10.9718 22.8528 11.4954 22.7688C11.5906 22.7688 11.9 22.8192 12.138 22.92C12.6378 23.1048 14.9226 23.256 15.113 23.1048C15.1844 23.0544 16.2554 23.0376 17.493 23.0712C19.397 23.1048 19.754 23.0712 19.754 22.8528C19.754 22.7184 19.873 22.3992 20.0396 22.164C20.2776 21.7944 20.4442 21.744 21.4676 21.744C22.2054 21.744 22.6576 21.66 22.7528 21.5256C22.8004 21.408 23.2288 21.3072 23.681 21.2904C24.395 21.2736 24.4664 21.324 24.4426 21.7272C24.4188 22.0128 24.514 22.164 24.752 22.1808C24.9424 22.1808 25.3946 22.248 25.7516 22.3152C26.1086 22.3824 26.5846 22.3656 26.8464 22.2648C27.2034 22.1304 27.3938 22.1472 27.608 22.332C27.846 22.5336 27.8222 22.6008 27.5128 22.6848C27.2986 22.7352 26.9892 22.752 26.8464 22.7184C26.6798 22.668 26.2276 22.7352 25.823 22.8528C25.1566 23.0544 25.2042 23.0712 26.8702 23.088H28.6314L28.4886 22.416C28.3458 21.6768 28.7028 21.5088 29.2264 22.08C29.4644 22.3656 29.6072 22.3824 29.988 22.248C30.2498 22.1472 30.464 21.9288 30.464 21.7608C30.464 21.4752 30.702 21.4584 33.9864 21.5088C35.9142 21.5256 37.485 21.576 37.485 21.576C37.485 21.5928 38.1752 21.6432 39.0082 21.6768C39.9364 21.7272 40.6266 21.6768 40.8408 21.5592C41.055 21.4416 41.531 21.408 42.0784 21.4584C42.602 21.5256 43.3636 21.4752 43.9586 21.324C44.7202 21.1392 45.1248 21.1224 45.6722 21.2568C46.1958 21.3912 46.6242 21.3912 47.124 21.2568C47.5286 21.156 48.1712 21.1224 48.5282 21.1728C48.9328 21.24 49.504 21.156 49.98 20.988C50.4798 20.8032 50.9796 20.7528 51.3842 20.82C51.7174 20.8872 52.6694 20.9376 53.4786 20.9208C55.0494 20.904 55.5492 21.1056 54.8352 21.492C54.4068 21.7104 54.4306 21.7272 55.1446 21.744C56.0252 21.744 56.3584 21.492 55.7634 21.2568C55.097 21.0048 55.5016 20.904 56.4536 21.072C56.9296 21.1728 57.3818 21.3576 57.4532 21.5088C57.5246 21.6432 57.6912 21.7272 57.8102 21.6768C58.1196 21.5424 58.786 21.744 58.786 21.9792C58.786 22.0968 59.5238 22.1808 60.8804 22.2312C64.6884 22.3488 64.9264 22.332 65.4024 22.0296C65.6404 21.8784 66.2354 21.744 66.7114 21.744C67.1874 21.744 67.6159 21.6768 67.7111 21.576C67.8063 21.4752 68.0681 21.4752 68.4489 21.576C69.1153 21.7608 71.2811 21.5424 79.4921 20.4672C84.2997 19.8288 85.6801 19.56 85.6801 19.2072C85.6801 19.056 86.0847 19.0392 87.0843 19.1064C88.1077 19.1904 88.6075 19.1568 88.8217 19.0056C88.9883 18.8712 89.7737 18.7536 90.6305 18.7368C91.4397 18.72 92.6297 18.5856 93.2485 18.468C93.8673 18.3336 95.2953 18.216 96.4377 18.216C98.4369 18.216 100.198 17.88 100.198 17.5104C100.198 17.4264 100.46 17.4096 100.793 17.4768C101.174 17.544 101.388 17.5104 101.388 17.3928C101.388 17.2752 101.602 17.2416 101.935 17.292C102.245 17.3592 102.983 17.2752 103.601 17.124C104.22 16.9728 104.839 16.9056 104.958 16.956C105.339 17.124 107.814 16.6536 107.814 16.4184C107.814 16.3008 108.076 16.2 108.385 16.2C108.695 16.2 109.147 16.1496 109.385 16.0824C109.67 16.0152 109.742 16.032 109.623 16.1664C109.528 16.284 109.551 16.368 109.694 16.368C109.813 16.368 109.956 16.2672 110.027 16.1496C110.099 15.9816 110.242 15.9816 110.646 16.1496C111.408 16.4856 111.931 16.4352 111.789 16.032C111.693 15.7632 111.789 15.696 112.193 15.696C112.503 15.696 112.931 15.5448 113.169 15.36C113.526 15.0744 113.55 14.9736 113.288 14.52C113.05 14.1 113.05 13.9152 113.288 13.596C113.883 12.8232 113.478 12.6384 111.432 12.672C110.432 12.7056 109.29 12.7056 108.885 12.6888C108.171 12.6552 108.171 12.6552 109.194 12.3024C110.456 11.8824 110.48 11.664 109.242 11.664C108.718 11.664 108.29 11.5968 108.29 11.496C108.29 11.2776 109.718 11.0424 111.812 10.908C112.741 10.8408 113.597 10.7232 113.669 10.6392C113.74 10.5552 114.026 10.488 114.288 10.488C114.573 10.488 114.74 10.4376 114.645 10.3872C114.573 10.32 113.669 10.2528 112.645 10.2192C110.646 10.1352 110.575 10.1352 109.075 10.1688C108.504 10.1688 107.838 10.068 107.528 9.91682C107.243 9.76562 106.814 9.64802 106.576 9.64802C106.338 9.64802 106.148 9.56402 106.148 9.48002C106.148 9.37922 106.362 9.31202 106.624 9.31202C106.886 9.31202 107.1 9.21122 107.1 9.09362C107.1 8.67362 106.814 8.65682 106.362 9.02642C105.934 9.37922 105.886 9.37922 105.577 9.09362C105.267 8.80802 105.22 8.82482 105.006 9.26162L104.768 9.73202L104.744 9.27842C104.72 9.02642 104.553 8.75762 104.339 8.67362C104.006 8.53922 104.03 8.50562 104.553 8.40482C104.887 8.35442 105.315 8.35442 105.505 8.40482C105.696 8.45522 106.005 8.38802 106.172 8.25362C106.41 8.06882 106.6 8.05202 106.91 8.18642C107.195 8.32082 107.409 8.30402 107.671 8.15282C108.314 7.78322 108.1 7.63202 106.981 7.63202C106.315 7.63202 105.91 7.69922 105.91 7.83362C105.91 7.98482 105.839 7.98482 105.648 7.85042C105.22 7.54802 105.577 7.12802 106.243 7.12802C106.981 7.12802 107.195 6.89282 106.743 6.62402C106.481 6.47282 106.196 6.45602 105.839 6.55682C105.553 6.64082 104.958 6.69122 104.553 6.65762C103.935 6.60722 103.768 6.52322 103.768 6.23762C103.768 5.96882 103.839 5.93522 104.054 6.08642C104.387 6.32162 106.576 6.35522 107.1 6.12002C107.528 5.93522 107.505 5.91842 105.862 5.44802C104.744 5.12882 104.387 5.09522 103.911 5.24642C103.53 5.36402 103.078 5.38082 102.578 5.28002C101.769 5.11202 93.4389 5.19602 92.7725 5.36402C92.5583 5.43122 92.1775 5.39762 91.9395 5.29682C91.4873 5.11202 91.5825 5.09522 93.4151 5.02802C95.2715 4.96082 95.5809 4.92722 95.9141 4.77602C96.1997 4.64162 96.1997 4.59122 95.8427 4.30562C95.6285 4.13762 95.4381 3.78482 95.4381 3.54962C95.4381 3.06242 95.2715 3.02882 93.5579 3.09602C92.9867 3.11282 92.7963 3.06242 92.8677 2.89442C92.9391 2.74322 93.6293 2.64242 94.9621 2.57522C96.6757 2.47442 97.0089 2.40722 97.3659 2.07122C97.6039 1.85282 97.8181 1.76882 97.8181 1.86962C97.8181 2.17202 98.2941 2.13842 98.2941 1.85282C98.2941 1.70162 98.4845 1.65122 98.8891 1.71842C99.2223 1.75202 99.7459 1.66802 100.079 1.51682C100.388 1.36562 100.864 1.24802 101.126 1.24802C101.388 1.24802 101.674 1.16402 101.745 1.08002C101.84 0.979219 101.602 0.912019 101.174 0.912019C100.793 0.912019 100.412 0.844819 100.341 0.777619C100.198 0.609619 98.1513 0.559219 97.9371 0.710419ZM84.8709 2.54162C85.4183 2.94482 86.8939 2.97842 87.0367 2.59202C87.1081 2.39042 87.3223 2.32322 87.7269 2.39042C88.4885 2.49122 88.6313 2.67602 88.2981 3.11282C88.0839 3.39842 87.8697 3.44882 87.3223 3.36482C86.9177 3.31442 86.4179 3.34802 86.1799 3.46562C85.9181 3.58322 85.5611 3.60002 85.2993 3.51602C85.0375 3.43202 84.7519 3.39842 84.6091 3.43202C83.7999 3.58322 79.3255 3.70082 79.1351 3.56642C78.8733 3.38162 80.9439 2.76002 82.3243 2.60882C83.1573 2.50802 83.8951 2.39042 83.9665 2.34002C84.1807 2.18882 84.4425 2.23922 84.8709 2.54162ZM90.9637 2.65922C91.2493 2.96162 91.1779 3.12962 90.7733 3.06242C90.5591 3.02882 90.2021 2.82722 90.0117 2.60882C89.6309 2.22242 89.6309 2.20562 90.2021 2.34002C90.5353 2.40722 90.8685 2.55842 90.9637 2.65922ZM51.17 4.77602C50.3132 4.96082 49.98 4.96082 49.98 4.77602C49.98 4.67522 50.3846 4.60802 50.8844 4.62482C51.6698 4.64162 51.6936 4.65842 51.17 4.77602Z" fill="black"/>
<path d="M105.696 0.727186C105.363 0.794386 105.077 0.928786 105.006 1.04639C104.934 1.19759 105.339 1.24799 106.362 1.24799C107.433 1.24799 107.814 1.18079 107.814 1.01279C107.814 0.609587 106.91 0.491987 105.696 0.727186Z" fill="black"/>
<path d="M102.697 1.07999C102.602 1.18079 102.887 1.24799 103.387 1.24799C103.863 1.24799 104.244 1.16399 104.244 1.07999C104.244 0.979186 103.935 0.911986 103.554 0.911986C103.149 0.911986 102.768 0.979186 102.697 1.07999Z" fill="black"/>
<path d="M105.553 1.58398C105.458 1.68478 105.672 1.75198 106.029 1.75198C106.386 1.75198 106.6 1.68478 106.505 1.58398C106.434 1.48318 106.219 1.41598 106.029 1.41598C105.839 1.41598 105.624 1.48318 105.553 1.58398Z" fill="black"/>
<path d="M100.436 2.70958C99.4126 2.92798 99.3888 2.92798 99.6744 3.12958C99.841 3.24718 99.96 3.48238 99.9362 3.66718C99.9362 3.86878 99.8648 3.91918 99.7934 3.80158C99.5792 3.41518 98.294 3.68398 98.294 4.13758C98.294 4.32238 101.198 4.30558 101.626 4.10398C101.912 3.98638 101.888 3.93598 101.507 3.83518C100.579 3.59998 100.388 3.41518 100.841 3.16318C101.317 2.92798 101.031 2.59198 100.436 2.70958Z" fill="black"/>
<path d="M96.152 3.17998C96.3186 3.31438 96.6042 3.43198 96.7708 3.43198C96.9612 3.43198 97.104 3.31438 97.104 3.17998C97.104 3.01198 96.866 2.92798 96.4852 2.92798C95.9616 2.92798 95.8902 2.96158 96.152 3.17998Z" fill="black"/>
<path d="M96.39 4.2552C96.5328 4.4568 96.747 4.608 96.866 4.608C97.2944 4.608 97.1278 4.2888 96.6042 4.104C96.152 3.9192 96.1282 3.936 96.39 4.2552Z" fill="black"/>
<path d="M109.861 6.3384C109.528 6.5064 109.48 6.6072 109.694 6.708C110.051 6.8592 110.527 6.5736 110.408 6.3048C110.337 6.17041 110.17 6.18721 109.861 6.3384Z" fill="black"/>
<path d="M108.171 6.47277C107.933 6.72477 108.123 6.79197 108.718 6.67437C109.004 6.62397 109.171 6.52317 109.099 6.43917C108.933 6.23757 108.361 6.25437 108.171 6.47277Z" fill="black"/>
<path d="M109.48 7.93438C108.742 8.38798 108.48 8.65678 108.599 8.85838C108.79 9.22798 109.004 9.21118 109.98 8.75758C110.789 8.37118 111.146 7.73278 110.741 7.44718C110.599 7.34638 110.099 7.53118 109.48 7.93438Z" fill="black"/>
<path d="M115.573 13.8312C115.382 14.0328 116.858 14.1672 118.048 14.0664C118.714 13.9992 118.929 13.9152 118.714 13.8312C118.31 13.6464 115.739 13.6464 115.573 13.8312Z" fill="black"/>
<path d="M52.4314 21.3576C51.9554 21.492 52.0744 21.744 52.598 21.744C52.8598 21.744 53.074 21.6264 53.074 21.492C53.074 21.24 52.9312 21.2064 52.4314 21.3576Z" fill="black"/>
<path d="M47.957 21.744C48.0284 21.828 48.1474 21.912 48.2188 21.912C48.2664 21.912 48.314 21.828 48.314 21.744C48.314 21.6432 48.195 21.576 48.0522 21.576C47.9332 21.576 47.8856 21.6432 47.957 21.744Z" fill="black"/>
<path d="M34.5338 22.0128C34.5338 22.1976 34.6052 22.248 34.6766 22.1136C34.748 21.996 34.7242 21.8448 34.6528 21.7944C34.5814 21.7272 34.51 21.828 34.5338 22.0128Z" fill="black"/>
<path d="M37.247 22.416C36.2236 22.5336 36.3426 22.6176 37.961 22.9032C38.7226 23.0544 38.9844 23.0376 39.2462 22.836C39.4366 22.7016 39.5556 22.5672 39.4842 22.5336C39.2462 22.3656 38.1276 22.3152 37.247 22.416Z" fill="black"/>
<path d="M41.412 22.3152C41.412 22.3488 41.5786 22.4664 41.769 22.584C42.0546 22.752 42.126 22.752 42.126 22.5168C42.126 22.3656 41.9594 22.248 41.769 22.248C41.5786 22.248 41.412 22.2816 41.412 22.3152Z" fill="black"/>
<path d="M34.272 22.6512C34.272 23.0376 34.9146 23.088 35.3668 22.7352C35.7714 22.4328 35.7476 22.416 35.0336 22.416C34.5338 22.416 34.272 22.5 34.272 22.6512Z" fill="black"/>
<path d="M21.7532 22.7688C21.6342 22.92 23.6334 23.0208 24.3236 22.9032C24.6568 22.836 24.2998 22.7856 23.3716 22.7352C22.5386 22.7016 21.8008 22.7184 21.7532 22.7688Z" fill="black"/>
<path d="M29.631 22.752C29.274 22.8528 29.4168 22.9032 30.226 22.9032C31.0352 22.9032 31.178 22.8528 30.821 22.752C30.5592 22.668 30.2974 22.6008 30.226 22.6008C30.1546 22.6008 29.8928 22.668 29.631 22.752Z" fill="black"/>
</svg>
