<svg width="132" height="62" viewBox="0 0 132 62" fill="none" xmlns="http://www.w3.org/2000/svg">
<path d="M47.79 61.1568C47.952 60.9763 50.112 60.7957 52.542 60.7506C59.346 60.5701 59.94 60.525 59.94 60.209C59.94 60.0285 61.722 60.0285 63.828 60.1639C68.472 60.4798 71.658 60.3896 81.54 59.7126C87.102 59.3064 89.586 59.3064 91.908 59.7577C95.04 60.2993 97.686 60.0285 98.388 59.1259C98.658 58.7648 101.25 58.5843 105.948 58.494C109.89 58.4489 115.074 58.2684 117.45 58.0879C119.826 57.9525 123.282 57.8171 125.118 57.8622C126.954 57.9073 129.06 57.6817 129.708 57.4109C130.41 57.095 133.434 56.779 136.62 56.6888C143.91 56.4631 146.016 56.3277 146.718 55.9667C147.042 55.7862 149.688 55.8313 152.55 56.1021C156.708 56.4631 158.328 56.418 160.542 55.9216C162.486 55.4702 169.128 55.1092 181.98 54.7933C192.24 54.5225 204.714 54.1614 209.79 53.9809C214.812 53.8004 219.348 53.665 219.78 53.7552C220.806 53.8906 220.914 53.8906 228.096 53.8906C231.93 53.8906 234.306 54.0712 234.846 54.4322C235.332 54.7481 238.14 55.0189 242.406 55.1543C246.996 55.2446 249.534 55.5154 250.29 55.9216C250.938 56.2826 251.586 56.418 251.748 56.2826C251.964 56.1472 253.206 55.9667 254.61 55.8313C258.012 55.6056 261.36 54.2968 265.464 51.5438C269.73 48.7005 269.946 47.6625 266.652 45.8573C265.032 44.9095 263.682 44.5936 261.684 44.5484C257.85 44.4582 257.58 44.413 257.58 43.9617C257.58 43.7812 258.93 42.4273 260.55 40.9831C263.034 38.8619 263.52 38.1398 263.304 37.192C263.142 36.5602 262.872 34.8452 262.71 33.401C262.386 31.009 262.44 30.7834 263.358 30.9188C264.06 31.009 264.276 31.4152 264.168 32.1824C264.006 33.0851 264.114 33.1753 264.6 32.7691C264.978 32.4984 265.41 30.7382 265.518 28.933C265.788 26.18 266.058 25.4127 267.192 24.3747C268.272 23.427 268.434 23.0208 267.948 22.6146C267.03 21.8474 267.138 21.3509 268.326 21.3509C270.324 21.3509 270.162 19.7713 267.84 16.7926C266.652 15.2582 265.68 13.7688 265.68 13.498C265.68 12.2344 262.116 9.52648 258.876 8.2628C256.986 7.49557 255.204 6.90886 254.88 6.90886C254.61 6.90886 253.422 6.23189 252.342 5.46466C249.912 3.70453 245.106 1.67362 243.918 1.89928C243.702 1.89928 243 1.76388 242.46 1.4931C241.326 0.99665 236.142 0.590467 235.71 0.99665C235.548 1.13204 233.118 1.17718 230.31 1.08691C225.99 0.99665 225.18 1.08691 225.18 1.67362C225.18 2.03467 224.91 2.89217 224.532 3.52401C223.992 4.5169 223.614 4.65229 221.292 4.65229C219.618 4.65229 218.592 4.87795 218.376 5.239C218.268 5.55492 217.296 5.82571 216.27 5.87084C214.65 5.91597 214.488 5.78058 214.542 4.69742C214.596 3.93019 214.38 3.52401 213.84 3.47888C213.408 3.47888 212.382 3.29835 211.572 3.11783C210.762 2.9373 209.682 2.98243 209.088 3.25322C208.278 3.61427 207.846 3.56914 207.36 3.07269C206.82 2.53112 206.874 2.35059 207.576 2.12493C208.062 1.98954 208.764 1.94441 209.088 2.03467C209.466 2.17007 210.492 1.98954 211.41 1.67362C212.922 1.13204 212.814 1.08691 209.034 1.04178L205.038 1.04178L205.362 2.84704C205.686 4.83282 204.876 5.28413 203.688 3.74966C203.148 2.98243 202.824 2.9373 201.96 3.29835C201.366 3.56914 200.88 4.15585 200.88 4.60716C200.88 5.37439 200.34 5.41953 192.888 5.28413C188.514 5.239 184.95 5.10361 184.95 5.10361C184.95 5.05848 183.384 4.92308 181.494 4.83282C179.388 4.69742 177.822 4.83282 177.336 5.14874C176.85 5.46466 175.77 5.55492 174.528 5.41953C173.34 5.239 171.612 5.37439 170.262 5.78058C168.534 6.27702 167.616 6.32215 166.374 5.9611C165.186 5.60005 164.214 5.60005 163.08 5.9611C162.162 6.23189 160.704 6.32215 159.894 6.18676C158.976 6.00623 157.68 6.23189 156.6 6.6832C155.466 7.17965 154.332 7.31504 153.414 7.13452C152.658 6.95399 150.498 6.8186 148.662 6.86373C145.098 6.90886 143.964 6.36729 145.584 5.32926C146.556 4.74256 146.502 4.69742 144.882 4.65229C142.884 4.65229 142.128 5.32926 143.478 5.9611C144.99 6.63807 144.072 6.90886 141.912 6.45755C140.832 6.18676 139.806 5.69031 139.644 5.28413C139.482 4.92308 139.104 4.69742 138.834 4.83282C138.132 5.19387 136.62 4.65229 136.62 4.02045C136.62 3.70453 134.946 3.47888 131.868 3.34348C123.228 3.02756 122.688 3.07269 121.608 3.88506C121.068 4.29124 119.718 4.65229 118.638 4.65229C117.558 4.65229 116.586 4.83282 116.37 5.10361C116.154 5.37439 115.56 5.37439 114.696 5.10361C113.184 4.60716 108.27 5.19387 89.64 8.08228C78.732 9.79727 75.6 10.5194 75.6 11.4671C75.6 11.8733 74.682 11.9184 72.414 11.7379C70.092 11.5123 68.958 11.6025 68.472 12.0087C68.094 12.3698 66.312 12.6857 64.368 12.7308C62.532 12.7759 59.832 13.137 58.428 13.4529C57.024 13.814 53.784 14.1299 51.192 14.1299C46.656 14.1299 42.66 15.0325 42.66 16.0254C42.66 16.2511 42.066 16.2962 41.31 16.1157C40.446 15.9351 39.96 16.0254 39.96 16.3413C39.96 16.6572 39.474 16.7475 38.718 16.6121C38.016 16.4316 36.342 16.6572 34.938 17.0634C33.534 17.4696 32.13 17.6501 31.86 17.5147C30.996 17.0634 25.38 18.3271 25.38 18.9589C25.38 19.2749 24.786 19.5457 24.084 19.5457C23.382 19.5457 22.356 19.681 21.816 19.8616C21.168 20.0421 21.006 19.997 21.276 19.6359C21.492 19.32 21.438 19.0943 21.114 19.0943C20.844 19.0943 20.52 19.3651 20.358 19.681C20.196 20.1324 19.872 20.1324 18.954 19.681C17.226 18.7784 16.038 18.9138 16.362 19.997C16.578 20.7191 16.362 20.8996 15.444 20.8996C14.742 20.8996 13.77 21.3058 13.23 21.8022C12.42 22.5695 12.366 22.8402 12.96 24.0588C13.5 25.1871 13.5 25.6835 12.96 26.541C11.61 28.6171 12.528 29.1135 17.172 29.0232C19.44 28.933 22.032 28.933 22.95 28.9781C24.57 29.0684 24.57 29.0684 22.248 30.0161C19.386 31.1444 19.332 31.7311 22.14 31.7311C23.328 31.7311 24.3 31.9117 24.3 32.1824C24.3 32.7691 21.06 33.401 16.308 33.762C14.202 33.9426 12.258 34.2585 12.096 34.4841C11.934 34.7098 11.286 34.8903 10.692 34.8903C10.044 34.8903 9.66599 35.0257 9.88199 35.1611C10.044 35.3416 12.096 35.5222 14.418 35.6124C18.954 35.8381 19.116 35.8381 22.518 35.7478C23.814 35.7478 25.326 36.0186 26.028 36.4248C26.676 36.831 27.648 37.1469 28.188 37.1469C28.728 37.1469 29.16 37.3726 29.16 37.5982C29.16 37.869 28.674 38.0495 28.08 38.0495C27.486 38.0495 27 38.3203 27 38.6362C27 39.7645 27.648 39.8096 28.674 38.8168C29.646 37.869 29.754 37.869 30.456 38.6362C31.158 39.4035 31.266 39.3583 31.752 38.1849L32.292 36.9212L32.346 38.1398C32.4 38.8168 32.778 39.5389 33.264 39.7645C34.02 40.1256 33.966 40.2158 32.778 40.4866C32.022 40.622 31.05 40.622 30.618 40.4866C30.186 40.3512 29.484 40.5317 29.106 40.8928C28.566 41.3892 28.134 41.4344 27.432 41.0733C26.784 40.7123 26.298 40.7574 25.704 41.1636C24.246 42.1565 24.732 42.5627 27.27 42.5627C28.782 42.5627 29.7 42.3821 29.7 42.0211C29.7 41.6149 29.862 41.6149 30.294 41.976C31.266 42.7883 30.456 43.9166 28.944 43.9166C27.27 43.9166 26.784 44.5484 27.81 45.2705C28.404 45.6767 29.052 45.7219 29.862 45.4511C30.51 45.2254 31.86 45.09 32.778 45.1803C34.182 45.3157 34.56 45.5413 34.56 46.3086C34.56 47.0307 34.398 47.1209 33.912 46.7147C33.156 46.0829 28.188 45.9926 27 46.6245C26.028 47.1209 26.082 47.1661 29.808 48.4297C32.346 49.2872 33.156 49.3775 34.236 48.9713C35.1 48.6554 36.126 48.6103 37.26 48.8811C39.096 49.3324 57.996 49.1067 59.508 48.6554C59.994 48.4749 60.858 48.5651 61.398 48.8359C62.424 49.3324 62.208 49.3775 58.05 49.558C53.838 49.7385 53.136 49.8288 52.38 50.235C51.732 50.596 51.732 50.7314 52.542 51.4987C53.028 51.95 53.46 52.8977 53.46 53.5296C53.46 54.8384 53.838 54.9287 57.726 54.7481C59.022 54.703 59.454 54.8384 59.292 55.2897C59.13 55.6959 57.564 55.9667 54.54 56.1472C50.652 56.418 49.896 56.5985 49.086 57.5011C48.546 58.0879 48.06 58.3135 48.06 58.0427C48.06 57.2304 46.98 57.3206 46.98 58.0879C46.98 58.494 46.548 58.6294 45.63 58.4489C44.874 58.3586 43.686 58.5843 42.93 58.9905C42.228 59.3967 41.148 59.7126 40.554 59.7126C39.96 59.7126 39.312 59.9382 39.15 60.1639C38.934 60.4347 39.474 60.6152 40.446 60.6152C41.31 60.6152 42.174 60.7957 42.336 60.9763C42.66 61.4276 47.304 61.563 47.79 61.1568ZM77.436 56.2375C76.194 55.1543 72.846 55.0641 72.522 56.1021C72.36 56.6437 71.874 56.8242 70.956 56.6437C69.228 56.3729 68.904 55.8764 69.66 54.703C70.146 53.9358 70.632 53.8004 71.874 54.026C72.792 54.1614 73.926 54.0712 74.466 53.7552C75.06 53.4393 75.87 53.3942 76.464 53.6199C77.058 53.8455 77.706 53.9358 78.03 53.8455C79.866 53.4393 90.018 53.1234 90.45 53.4845C91.044 53.9809 86.346 55.6508 83.214 56.0569C81.324 56.3277 79.65 56.6437 79.488 56.779C79.002 57.1852 78.408 57.0498 77.436 56.2375ZM63.612 55.9216C62.964 55.1092 63.126 54.6579 64.044 54.8384C64.53 54.9287 65.34 55.4702 65.772 56.0569C66.636 57.095 66.636 57.1401 65.34 56.779C64.584 56.5985 63.828 56.1923 63.612 55.9216ZM153.9 50.235C155.844 49.7385 156.6 49.7385 156.6 50.235C156.6 50.5058 155.682 50.6863 154.548 50.6412C152.766 50.596 152.712 50.5509 153.9 50.235Z" fill="black"/>
<path d="M30.186 61.1117C30.942 60.9311 31.59 60.5701 31.752 60.2542C31.914 59.848 30.996 59.7126 28.674 59.7126C26.244 59.7126 25.38 59.8931 25.38 60.3444C25.38 61.4276 27.432 61.7435 30.186 61.1117Z" fill="black"/>
<path d="M36.99 60.1639C37.206 59.8931 36.558 59.7126 35.424 59.7126C34.344 59.7126 33.48 59.9382 33.48 60.1639C33.48 60.4347 34.182 60.6152 35.046 60.6152C35.964 60.6152 36.828 60.4347 36.99 60.1639Z" fill="black"/>
<path d="M30.51 58.81C30.726 58.5392 30.24 58.3586 29.43 58.3586C28.62 58.3586 28.134 58.5392 28.35 58.81C28.512 59.0807 28.998 59.2613 29.43 59.2613C29.862 59.2613 30.348 59.0807 30.51 58.81Z" fill="black"/>
<path d="M42.12 55.7862C44.442 55.1995 44.496 55.1995 43.848 54.6579C43.47 54.342 43.2 53.7101 43.254 53.2137C43.254 52.6721 43.416 52.5367 43.578 52.8526C44.064 53.8906 46.98 53.1685 46.98 51.95C46.98 51.4536 40.392 51.4987 39.42 52.0403C38.772 52.3562 38.826 52.4916 39.69 52.7624C41.796 53.3942 42.228 53.8906 41.202 54.5676C40.122 55.1995 40.77 56.1021 42.12 55.7862Z" fill="black"/>
<path d="M51.84 54.5225C51.462 54.1614 50.814 53.8455 50.436 53.8455C50.004 53.8455 49.68 54.1614 49.68 54.5225C49.68 54.9738 50.22 55.1994 51.084 55.1994C52.272 55.1994 52.434 55.1092 51.84 54.5225Z" fill="black"/>
<path d="M51.3 51.6341C50.976 51.0925 50.49 50.6863 50.22 50.6863C49.248 50.6863 49.626 51.5438 50.814 52.0403C51.84 52.5367 51.894 52.4916 51.3 51.6341Z" fill="black"/>
<path d="M20.736 46.0378C21.492 45.5865 21.6 45.3157 21.114 45.0449C20.304 44.6387 19.224 45.4059 19.494 46.128C19.656 46.4891 20.034 46.444 20.736 46.0378Z" fill="black"/>
<path d="M24.57 45.6767C25.11 44.9997 24.678 44.8192 23.328 45.1351C22.68 45.2705 22.302 45.5413 22.464 45.767C22.842 46.3085 24.138 46.2634 24.57 45.6767Z" fill="black"/>
<path d="M21.6 41.7503C23.274 40.5317 23.868 39.8096 23.598 39.268C23.166 38.2752 22.68 38.3203 20.466 39.5388C18.63 40.5769 17.82 42.2919 18.738 43.0591C19.062 43.3299 20.196 42.8334 21.6 41.7503Z" fill="black"/>
<path d="M7.77597 25.9092C8.20797 25.3676 4.85997 25.0065 2.15997 25.2773C0.647974 25.4579 0.161973 25.6835 0.647973 25.9092C1.56597 26.4056 7.39797 26.4056 7.77597 25.9092Z" fill="black"/>
</svg>
