<svg width="379" height="377" viewBox="0 0 379 377" fill="none" xmlns="http://www.w3.org/2000/svg">
<path d="M320.48 1.81186C313.184 2.49588 306.952 3.33188 306.724 3.78787C306.344 4.24387 302.696 4.31989 296.084 3.86386C284 3.10388 233.08 2.95187 233.536 3.71188C234.068 4.54788 230.8 4.69986 224.416 4.16788C221.072 3.93988 215.6 4.01587 212.256 4.39587C200.324 5.83987 194.396 6.06787 193.332 5.15588C192.496 4.54788 191.356 4.62387 188.696 5.38388C185.276 6.44788 182.616 6.29587 180.944 5.00388C180.488 4.62387 177.296 4.69986 173.876 5.07986C170.456 5.45987 161.564 5.61188 154.192 5.45987C146.82 5.23187 130.328 4.92789 117.56 4.69986C104.792 4.47186 90.504 3.93988 85.792 3.48389C81.08 3.02786 76.52 2.95187 75.684 3.17987C74.848 3.48389 72.492 3.25586 70.44 2.79987C66.412 1.81186 61.852 2.72388 60.788 4.69986C60.104 5.83987 49.692 6.44788 47.488 5.45987C45.588 4.69986 6.82799 6.06787 5.91599 6.97989C5.53599 7.35986 4.92799 14.1239 4.54799 22.0279C4.01599 33.9599 4.09199 36.2399 5.00399 36.2399C5.83999 36.2399 5.91599 37.2279 5.45999 41.3319C5.07999 44.2199 4.77599 49.2359 4.69999 52.5799C4.54799 58.5079 2.41999 67.3999 1.12799 67.3999C0.0639862 67.3999 0.443986 71.2759 1.65999 72.4159C3.17999 73.9359 3.10399 76.2159 1.58399 76.8239C0.519986 77.2799 0.367986 78.1919 0.747986 83.2079C1.05199 86.3999 1.43199 91.7959 1.65999 95.1399C1.96399 98.4839 2.49599 101.904 2.95199 102.816C3.40799 103.88 3.40799 106.768 2.87599 111.708C2.26799 117.028 2.26799 122.12 2.95199 130.632C3.40799 137.016 3.71199 143.476 3.55999 144.92C3.33199 147.656 3.25599 152.596 3.25599 164.3C3.25599 168.024 3.25599 177.144 3.25599 184.44C3.25599 191.736 3.33199 198.728 3.40799 200.02C3.48399 201.236 3.33199 205.112 3.10399 208.608C2.87599 212.028 3.02799 217.196 3.48399 220.008C4.01599 223.58 4.01599 227.304 3.48399 231.94C3.10399 235.74 2.72399 244.252 2.72399 250.94C2.72399 257.628 2.34399 269.332 1.88799 277.008C1.05199 291.448 1.05199 291.144 4.24399 303.76C4.85199 305.964 4.92799 306.04 5.00399 304.52L5.07999 302.62L6.21999 304.824C6.97999 306.268 7.20799 307.94 6.82799 310.068C6.44799 312.5 6.21999 312.88 5.76399 311.74C5.38399 310.524 5.15599 310.448 4.85199 311.36C4.16799 313.032 2.79999 348.068 2.79999 362.432V374.972L7.43599 375.504C14.96 376.264 32.972 376.036 31.68 375.2C30.844 374.668 31.908 374.516 35.1 374.516C38.748 374.592 39.28 374.744 37.76 375.276C36.316 375.808 36.544 375.808 38.9 375.504C40.572 375.276 43.46 374.972 45.36 374.744L48.78 374.44L46.5 375.58L44.22 376.796L46.5 376.34C56.228 374.364 57.748 374.212 60.104 375.048C62.992 376.112 75.456 376.264 73.1 375.2C71.2 374.364 68.768 374.44 105.704 374.212C128.276 374.06 135.344 373.832 135.648 373.072C136.028 371.932 140.132 371.856 140.512 373.072C140.968 374.44 159.892 375.58 166.124 374.668C168.86 374.212 171.52 374.136 171.9 374.44C173.04 375.276 218.032 376.036 217.5 375.276C216.74 373.984 218.944 373.908 223.124 374.972C226.468 375.884 227.912 375.884 230.496 375.2C232.852 374.516 245.24 374.44 279.136 374.82C304.216 375.048 326.408 375.352 328.612 375.352C330.74 375.428 333.02 375.048 333.552 374.592C334.312 373.984 336.06 373.984 339.404 374.44C344.116 375.124 363.8 374.516 361.52 373.832C360.912 373.604 360.228 373.224 360 372.92C359.772 372.616 357.72 371.4 355.44 370.184C350.804 367.828 346.396 367.296 332.488 367.22C328.08 367.22 324.508 367.068 324.66 366.84C324.812 366.612 320.936 366.612 316.072 366.688C311.132 366.84 299.732 366.612 290.536 366.08C278.756 365.472 273.664 365.472 273.132 366.004C272.524 366.612 272.676 366.84 273.74 366.84C274.5 366.84 274.956 367.068 274.728 367.296C274.424 367.524 272.676 367.144 270.7 366.46C268.04 365.624 266.824 365.472 266.14 366.08C265.38 366.688 261.656 366.764 253.448 366.232C247.064 365.928 239.312 365.7 236.272 365.852C233.156 366.004 230.268 365.852 229.812 365.472C228.976 364.788 197.74 365.32 155.18 366.688C142.26 367.144 137.928 367.068 136.028 366.308C133.368 365.244 129.568 365.548 123.412 367.296C121.436 367.828 119.308 368.132 118.776 367.904C118.168 367.676 115.888 367.828 113.684 368.208C110.644 368.816 109.428 368.74 108.744 367.98C108.212 367.448 107.984 366.764 108.288 366.46C108.592 366.156 103.728 366.08 97.42 366.232C91.188 366.46 85.108 366.384 83.968 366.004C82.828 365.7 81.688 365.7 81.46 366.004C81.08 366.688 85.032 367.524 89.06 367.676C91.264 367.752 91.34 367.752 89.44 368.36C86.096 369.424 80.092 369.12 74.24 367.6C69.528 366.308 65.576 366.004 51.82 365.852C42.624 365.7 37.152 365.852 39.66 366.08C42.168 366.384 43.916 366.688 43.46 366.764C43.08 366.916 43.536 367.22 44.6 367.524C46.044 367.98 44.98 368.284 40.42 368.74C36.164 369.12 34.34 369.044 34.112 368.436C33.96 367.98 32.744 367.6 31.452 367.6C29.172 367.524 29.096 367.524 30.54 366.46C31.832 365.396 31.3 365.32 25.22 365.396C21.42 365.472 17.392 365.092 16.1 364.636C14.2 363.876 13.744 363.876 12.984 364.94C11.54 366.916 11.236 364.636 12.452 360.76C13.668 356.884 14.504 336.212 13.364 338.036C12.908 338.796 12.68 338.34 12.68 336.44C12.68 334.996 12.376 332.488 11.996 330.892C11.616 329.296 11.616 327.928 11.996 327.624C12.908 327.092 12.832 320.708 11.92 320.1C11.464 319.872 11.16 318.352 11.16 316.832C11.16 314.628 11.388 314.248 11.996 315.16C12.604 316.072 12.756 315.768 12.528 313.868C12.3 312.5 12.452 311.588 12.756 311.816C13.744 312.424 13.136 298.136 12.148 297.072C11.084 295.932 11.008 291.068 11.92 287.42C12.452 285.444 12.528 285.748 12.604 289.092C12.604 291.296 13.06 293.12 13.44 293.12C14.504 293.12 14.352 286.888 13.06 279.82C11.996 273.664 12.3 264.696 13.516 266.672C14.276 267.888 14.504 261.96 14.2 244.1C13.668 212.104 13.82 203.82 14.808 201.236C15.34 199.868 15.568 198.5 15.264 198.196C14.96 197.968 14.58 198.196 14.428 198.728C14.2 199.184 13.744 199.488 13.364 199.184C12.3 198.576 12.528 189.912 13.592 189.608C14.276 189.38 14.276 187.784 13.592 182.844C13.06 179.348 12.756 175.092 12.756 173.42C12.832 170.532 12.908 170.456 13.364 172.66C14.352 176.536 15.188 167.34 14.656 159.968C14.352 156.472 14.124 152.292 14.2 150.62C14.2 148.948 13.668 145.148 12.908 142.108C11.996 138.004 11.844 135.876 12.376 133.368C12.984 130.404 12.68 119.232 11.616 104.26C11.388 100.916 11.464 99.4719 11.92 100.46C12.3 101.296 12.604 102.968 12.68 104.26C12.68 106.084 12.832 106.312 13.44 105.248C13.972 104.488 13.972 101.524 13.44 96.8879C12.528 88.1479 12.528 88.0719 13.44 89.4399C13.82 90.0479 14.2 91.4159 14.2 92.4799C14.352 95.8999 15.492 91.8719 15.872 86.3999L16.328 81.4599L15.188 84.6519C14.58 86.4759 13.82 87.9199 13.44 87.9199C13.136 87.9199 12.908 85.4119 13.06 82.3719C13.136 79.4079 13.288 75.0759 13.364 72.8719C13.44 70.0599 13.668 68.9959 14.276 69.3759C14.96 69.7559 15.036 69.2999 14.656 67.7039C13.364 62.2319 13.288 57.7479 14.504 55.3919C16.1 52.3519 16.1 50.9079 14.58 52.1999C13.592 53.0359 13.44 52.2759 13.364 46.4239C13.212 29.5519 12.604 20.3559 11.54 18.2279C10.932 17.0879 10.4 15.3399 10.4 14.5039C10.4 12.9839 10.78 12.8319 16.024 12.9079C19.14 12.9839 21.496 13.2879 21.344 13.5919C20.812 14.4279 21.724 14.3519 30.388 12.9839C34.568 12.2999 39.28 11.9199 40.876 12.0719C42.7 12.2239 43.916 11.9959 44.144 11.3879C44.372 10.9319 46.044 10.2479 47.944 10.0199C51.516 9.48788 52.504 8.49988 50.148 7.89188C49.388 7.66388 50.148 7.51187 51.82 7.43588C53.492 7.35986 55.696 7.13187 56.684 6.82788C57.976 6.52386 58.356 6.59988 57.976 7.20789C57.672 7.73987 57.9 8.11987 58.584 8.11987C59.268 8.11987 59.8 8.42389 59.8 8.80386C59.8 9.79187 57.368 10.2479 55.62 9.63986C54.1 9.03186 49.92 10.6279 49.92 11.7679C49.92 12.1479 51.288 12.2999 52.884 12.1479C54.556 12.0719 56.152 12.2999 56.38 12.6799C56.684 13.1359 57.064 13.2879 57.368 13.1359C57.672 12.9839 60.636 13.1359 63.98 13.4399C69.148 13.9719 71.58 13.7439 80.7 11.9199C86.552 10.7039 93.468 9.56387 95.976 9.33588C100.536 8.80386 100.612 8.87988 100.308 10.5519C100.004 12.2239 99.548 12.2999 92.632 12.5279C85.944 12.6799 84.12 12.9839 84.956 13.7439C85.108 13.8959 87.692 13.6679 90.732 13.3639C94.076 12.9079 97.496 12.9079 99.472 13.3639C101.828 13.8959 102.816 13.8959 103.272 13.2119C103.88 12.2239 115.736 11.6919 127.82 12.0719C140.436 12.4519 158.98 12.2999 163.008 11.7679C166.58 11.3119 166.96 11.3879 166.2 12.2999C165.136 13.5919 164.984 13.5919 177.372 9.03186C182.616 7.05588 183.604 6.82788 183.984 7.81589C184.82 9.94388 184.44 12.1479 183.148 13.1359C181.932 14.0479 182.236 14.1239 185.276 14.1999C189.152 14.1999 190.14 13.6679 188.924 12.1479C187.86 10.9319 188.164 10.9319 194.7 12.2999C197.588 12.9079 200.172 13.1359 200.4 12.7559C200.932 11.9199 203.896 10.3999 204.884 10.3999C205.34 10.3999 205.72 11.0839 205.72 11.8439C205.72 13.2119 205.872 13.2119 209.596 12.1479C213.168 11.0839 213.472 11.0839 214.384 12.3759C215.296 13.5159 216.284 13.5919 222.896 13.2119C227.076 12.9839 232.32 12.0719 234.6 11.3119C236.88 10.5519 240.376 9.63986 242.276 9.41187C245.468 8.95587 245.696 9.03186 245.696 10.6279C245.62 13.2119 248.28 13.0599 254.512 10.1719C257.552 8.72787 261.58 7.13187 263.48 6.59988C266.52 5.76389 279.06 5.00388 278.376 5.61188C277.92 6.06787 260.972 11.6919 258.312 12.2999C255.044 12.9839 255.956 14.1999 259.908 14.2759C262.492 14.2759 262.796 14.4279 261.58 15.0359C259.604 15.9479 273.132 15.3399 277.92 14.2759C280.656 13.6679 279.82 13.5919 273.74 13.8959C267.508 14.1999 266.444 14.1239 267.66 13.3639C270.092 11.8439 277.16 10.3999 282.328 10.3999C287.04 10.3999 288.18 11.1599 285.748 12.6799C284.684 13.3639 285.52 13.4399 289.168 13.0599C292.892 12.6799 293.88 12.8319 293.424 13.5159C293.044 14.1239 293.424 14.2759 294.716 13.9719C301.1 12.3759 308.928 12.7559 314.324 14.8079C315.084 15.1119 314.932 14.5039 313.792 13.1359C312.196 11.0079 311.512 6.29587 312.728 5.61188C313.26 5.23187 325.724 6.97989 328.308 7.81589C330.132 8.42389 329.904 9.56387 327.7 10.5519C324.432 11.9959 325.572 12.4519 331.728 12.0719C334.92 11.9199 340.088 11.7679 343.128 11.8439C346.092 11.8439 348.6 11.6159 348.6 11.2359C348.6 9.71588 359.164 6.97989 360.38 8.19586C360.76 8.57587 362.888 8.87988 365.092 8.87988H369.12L368.664 18.5319C368.436 23.9279 367.904 29.4759 367.524 30.9199C366.992 32.9719 367.144 33.6559 367.98 34.1879C370.26 35.4039 373.452 52.9599 372.084 56.5319C371.172 58.8119 371.324 65.2719 372.54 70.0599C373.756 74.9999 374.06 84.6519 373.072 86.2479C372.692 86.7799 371.856 87.0079 371.02 86.7039C369.88 86.2479 369.728 85.4879 370.032 80.7759C370.184 77.8119 370.184 74.1639 369.88 72.7199C369.652 71.2759 369.272 78.5719 369.044 89.0599C368.816 99.4719 368.892 108.896 369.196 109.96C369.728 111.708 369.728 111.632 369.88 109.2C370.032 107.452 370.184 107.072 370.412 108.06C370.64 108.896 371.172 109.96 371.552 110.492C372.692 111.86 373.3 128.656 372.236 129.264C371.78 129.568 371.476 131.544 371.476 133.748C371.552 135.952 371.704 137.092 371.932 136.332C372.692 133.444 373.528 135.344 374.364 142.032C374.896 145.908 375.504 149.252 375.732 149.48C375.96 149.708 375.96 145.756 375.732 140.74C375.504 135.724 375.58 129.264 375.96 126.376C376.644 120.98 376.188 115.204 375.2 116.8C374.516 117.94 373.68 106.616 373.984 100.688C374.06 98.3319 374.668 95.8239 375.2 95.1399C376.416 93.6199 376.568 84.0439 375.808 50.6799C375.58 38.3679 375.58 29.0959 375.96 30.1599L376.568 32.0599L376.644 30.1599C376.644 29.0959 376.34 25.6759 375.884 22.5599C375.428 18.5319 375.428 14.7319 376.036 9.79187C376.492 5.91586 376.796 2.57187 376.568 2.41986C376.188 2.03989 357.872 1.12787 344.04 0.899872C338.416 0.747864 327.776 1.20389 320.48 1.81186ZM49.692 367.296C49.464 367.524 48.78 367.6 48.248 367.372C47.64 367.144 47.868 366.916 48.704 366.916C49.54 366.84 49.996 367.068 49.692 367.296Z" fill="black"/>
<path d="M235.588 1.81178C236.272 1.96378 237.336 1.96378 237.868 1.81178C238.324 1.58378 237.792 1.43178 236.5 1.43178C235.284 1.43178 234.828 1.58378 235.588 1.81178Z" fill="black"/>
<path d="M320.1 8.04375C319.872 8.42375 320.024 8.95575 320.48 9.25975C320.86 9.48775 321.24 9.18375 321.24 8.57575C321.24 7.20775 320.784 6.97975 320.1 8.04375Z" fill="black"/>
<path d="M174.408 12.1478L172.356 13.8198L175.7 13.5918C178.74 13.2878 178.968 13.2118 178.132 11.8438C176.992 10.0958 176.916 10.0958 174.408 12.1478Z" fill="black"/>
<path d="M115.888 13.2119C116.42 13.4399 117.104 13.3639 117.332 13.1359C117.636 12.9079 117.18 12.6799 116.344 12.7559C115.508 12.7559 115.28 12.9839 115.888 13.2119Z" fill="black"/>
<path d="M236.652 13.9719C235.968 14.1239 235.512 14.6559 235.74 15.0359C236.424 16.0999 239.616 15.8719 240.68 14.5799C241.44 13.5919 241.364 13.4399 239.844 13.5159C238.856 13.5919 237.412 13.7439 236.652 13.9719Z" fill="black"/>
<path d="M366.232 36.6198C366.232 37.8358 366.384 38.2918 366.612 37.5318C366.764 36.8478 366.764 35.7838 366.612 35.2518C366.384 34.7958 366.232 35.3278 366.232 36.6198Z" fill="black"/>
<path d="M367.372 39.0521C366.612 39.7361 366.84 44.6761 367.6 46.5001C368.056 47.5641 368.284 46.6521 368.284 43.2321C368.36 38.5201 368.284 38.0641 367.372 39.0521Z" fill="black"/>
<path d="M370.108 49.9197C370.108 51.8197 370.26 52.5797 370.412 51.5917C370.564 50.6797 370.564 49.1597 370.412 48.1717C370.26 47.2597 370.108 48.0197 370.108 49.9197Z" fill="black"/>
<path d="M366.232 53.7199C366.232 54.7839 366.384 55.1639 366.612 54.6319C366.764 54.1759 366.764 53.2639 366.612 52.7319C366.384 52.2759 366.232 52.6559 366.232 53.7199Z" fill="black"/>
<path d="M366.916 70.136C366.916 70.972 367.144 71.2 367.372 70.592C367.6 70.06 367.524 69.376 367.296 69.148C367.068 68.844 366.84 69.3 366.916 70.136Z" fill="black"/>
<path d="M375.276 102.512C375.2 103.728 375.58 104.64 375.96 104.64C376.872 104.64 376.872 104.032 375.96 101.98C375.352 100.612 375.276 100.688 375.276 102.512Z" fill="black"/>
<path d="M370.032 118.32C370.032 119.764 370.184 120.372 370.412 119.612C370.564 118.928 370.564 117.712 370.412 116.952C370.184 116.268 370.032 116.876 370.032 118.32Z" fill="black"/>
<path d="M372.16 144.236C372.16 145.908 372.464 147.124 372.768 146.896C373.376 146.516 373.072 141.12 372.464 141.12C372.312 141.12 372.16 142.488 372.16 144.236Z" fill="black"/>
<path d="M369.424 163.54C369.88 175.244 370.564 176.46 373.908 171.52C375.2 169.696 375.2 169.696 375.276 174.18C375.352 178.208 375.428 178.436 375.96 176.156C376.416 174.332 376.188 172.356 375.276 169.468C373.908 165.288 372.92 164.832 372.92 168.556C372.92 169.696 372.54 170.912 372.008 171.216C371.4 171.596 371.248 170.532 371.552 167.188C371.932 163.084 370.716 155.408 369.5 154.116C369.272 153.888 369.196 158.144 369.424 163.54Z" fill="black"/>
<path d="M15.7959 177.296C15.7959 178.132 16.0239 178.36 16.2519 177.752C16.4799 177.22 16.4039 176.536 16.1759 176.308C15.9479 176.004 15.7199 176.46 15.7959 177.296Z" fill="black"/>
<path d="M369.272 181.4C369.272 182.464 369.424 182.844 369.652 182.312C369.804 181.856 369.804 180.944 369.652 180.412C369.424 179.956 369.272 180.336 369.272 181.4Z" fill="black"/>
<path d="M375.2 188.012L375.124 190.9L374.136 188.62C373.528 187.176 372.996 186.72 372.616 187.328C371.932 188.468 372.844 193.712 373.68 193.18C374.06 192.952 374.668 193.408 375.124 194.092C375.732 195.156 375.884 194.244 375.96 190.292C375.96 187.48 375.808 185.2 375.58 185.2C375.352 185.2 375.2 186.492 375.2 188.012Z" fill="black"/>
<path d="M15.8721 191.28C15.8721 192.344 16.0241 192.724 16.2521 192.192C16.4041 191.736 16.4041 190.824 16.2521 190.292C16.0241 189.836 15.8721 190.216 15.8721 191.28Z" fill="black"/>
<path d="M375.428 203.82C375.428 205.492 375.58 206.1 375.732 205.112C375.884 204.2 375.884 202.832 375.732 202.072C375.504 201.388 375.352 202.148 375.428 203.82Z" fill="black"/>
<path d="M377.632 206.48C377.556 209.976 377.708 210.432 378.392 208.988C379 207.772 379 206.556 378.392 204.808C377.708 202.376 377.632 202.452 377.632 206.48Z" fill="black"/>
<path d="M371.628 210.66C371.628 212.712 371.78 213.548 371.932 212.332C372.084 211.192 372.084 209.52 371.932 208.532C371.78 207.62 371.628 208.532 371.628 210.66Z" fill="black"/>
<path d="M375.58 227.836C375.276 228.292 375.2 228.748 375.428 228.976C375.58 229.204 375.96 228.824 376.188 228.14C376.72 226.848 376.264 226.62 375.58 227.836Z" fill="black"/>
<path d="M373.756 236.576C373.756 237.412 373.984 237.64 374.212 237.032C374.44 236.5 374.364 235.816 374.136 235.588C373.908 235.284 373.68 235.74 373.756 236.576Z" fill="black"/>
<path d="M371.096 237.26C370.868 237.944 370.64 239.236 370.716 240.148C370.792 241.364 371.02 241.06 371.476 239.236C372.236 236.652 371.932 235.056 371.096 237.26Z" fill="black"/>
<path d="M375.808 244.252C376.188 245.848 376.34 246 376.568 244.936C376.72 244.176 376.568 243.264 376.112 242.808C375.656 242.352 375.58 242.808 375.808 244.252Z" fill="black"/>
<path d="M370.716 244.176C370.716 245.012 370.944 245.24 371.172 244.632C371.4 244.1 371.324 243.416 371.096 243.188C370.868 242.884 370.64 243.34 370.716 244.176Z" fill="black"/>
<path d="M372.16 248.28C372.16 249.116 372.54 249.8 372.92 249.8C373.376 249.8 373.68 249.116 373.68 248.28C373.68 247.444 373.376 246.76 372.92 246.76C372.54 246.76 372.16 247.444 372.16 248.28Z" fill="black"/>
<path d="M376.72 271.232C376.72 272.828 376.872 274.12 377.024 274.12C377.708 274.12 377.936 270.32 377.404 269.408C376.948 268.8 376.72 269.484 376.72 271.232Z" fill="black"/>
<path d="M374.972 279.212C374.136 279.972 374.364 282.48 375.2 282.48C375.656 282.48 375.96 281.644 375.96 280.58C375.96 278.604 375.808 278.376 374.972 279.212Z" fill="black"/>
<path d="M370.716 301.936C370.716 302.772 370.944 303 371.172 302.392C371.4 301.86 371.324 301.176 371.096 300.948C370.868 300.644 370.64 301.1 370.716 301.936Z" fill="black"/>
<path d="M372.388 305.66C372.388 307.332 372.54 307.94 372.692 306.952C372.844 306.04 372.844 304.672 372.692 303.912C372.464 303.228 372.312 303.988 372.388 305.66Z" fill="black"/>
<path d="M372.768 316.376C372.616 318.276 372.768 320.252 373.072 320.708C373.376 321.24 373.68 319.644 373.68 317.212C373.68 312.044 373.148 311.512 372.768 316.376Z" fill="black"/>
<path d="M375.2 369.044C375.2 369.424 375.58 370.032 375.96 370.26C376.416 370.488 376.72 370.412 376.72 369.956C376.72 369.576 376.416 368.968 375.96 368.74C375.58 368.512 375.2 368.588 375.2 369.044Z" fill="black"/>
<path d="M366.688 375.732C367.22 375.96 367.904 375.884 368.132 375.656C368.436 375.428 367.98 375.2 367.144 375.276C366.308 375.276 366.08 375.504 366.688 375.732Z" fill="black"/>
</svg>
