<svg width="25" height="25" viewBox="0 0 25 25" fill="none" xmlns="http://www.w3.org/2000/svg">
<path d="M12.8052 5.24395L12.5 5.54826L12.1948 5.24309C11.1407 4.20819 9.72061 3.63139 8.24342 3.63818C6.76623 3.64497 5.35148 4.23479 4.30693 5.27933C3.26239 6.32388 2.67257 7.73863 2.66578 9.21582C2.65899 10.693 3.23579 12.1131 4.27069 13.1672L4.57586 13.4724L12.5 21.3965L20.4241 13.4724L20.7293 13.1672C21.756 12.1115 22.3258 10.694 22.3155 9.22142C22.3052 7.74882 21.7156 6.33947 20.6742 5.29822C19.6328 4.25696 18.2234 3.66751 16.7508 3.65736C15.2782 3.6472 13.8608 4.21716 12.8052 5.24395Z" fill="black"/>
</svg>
