<svg width="70" height="70" viewBox="0 0 70 70" fill="none" xmlns="http://www.w3.org/2000/svg">
<g clip-path="url(#clip0_647_1375)">
<path d="M31.192 0.168491C30.912 0.392491 31.01 1.31649 31.304 1.20449C31.402 1.16249 31.71 1.09249 31.976 1.03649C32.62 0.924491 32.69 0.784491 32.382 0.350491C32.102 -0.0275085 31.556 -0.111509 31.192 0.168491Z" fill="black"/>
<path d="M38.738 0.825981C38.514 0.965981 38.08 1.13399 37.758 1.18999C37.282 1.27399 37.226 1.30199 37.45 1.39999C37.716 1.49799 37.702 1.51199 37.38 1.58199C37.184 1.62399 36.694 1.70798 36.274 1.74998C35.588 1.83398 35.49 1.80598 35.224 1.48399C35.056 1.30199 34.706 1.10599 34.44 1.04999C34.034 0.965981 33.978 0.97998 34.132 1.13399C34.622 1.65199 33.95 1.88998 33.32 1.39999C32.984 1.14799 32.97 1.14799 32.69 1.39999C32.466 1.59599 32.018 1.69398 30.562 1.80598C29.554 1.90398 28.42 2.05798 28.042 2.16998C27.118 2.44998 27.104 2.42198 27.972 2.02998C28.406 1.83398 28.7 1.60999 28.7 1.46999C28.7 1.23199 28.602 1.18999 27.832 1.04999C27.342 0.97998 27.3 0.99398 27.3 1.31599C27.3 1.55399 27.146 1.76398 26.852 1.97398C26.6 2.14198 26.362 2.30998 26.334 2.33798C26.306 2.35198 26.362 2.63198 26.46 2.95399C26.628 3.45798 26.698 3.51398 27.034 3.47198C27.258 3.42999 27.384 3.47198 27.342 3.54198C27.188 3.80798 26.306 4.05998 25.592 4.05998C24.864 4.04598 24.85 4.04598 25.27 3.86398L25.69 3.68198L25.172 3.42999C24.738 3.21999 24.584 3.20599 24.276 3.34599C23.842 3.54198 23.688 3.45798 23.94 3.14999C24.038 3.02399 24.094 2.91199 24.066 2.88399C23.996 2.82799 20.468 3.84998 18.76 4.40999C17.122 4.94199 15.064 6.01999 14.168 6.80399C13.426 7.44799 13.384 7.62999 13.93 7.72799C14.084 7.75599 14.21 7.83998 14.21 7.90998C14.224 7.99398 14.28 8.20399 14.336 8.38599L14.448 8.72198L14.63 8.28799C14.854 7.76999 15.246 7.50399 16.31 7.12598C17.178 6.81799 17.388 6.85999 17.038 7.23798C16.786 7.53199 16.324 8.66599 16.17 9.37999L16.072 9.86999L16.492 9.30999C16.716 9.00199 17.29 8.38599 17.766 7.95198C18.48 7.27999 18.62 7.06998 18.634 6.64999C18.648 6.38398 18.662 6.07598 18.676 5.97798C18.704 5.57198 19.67 5.30598 19.992 5.62798C20.118 5.75398 20.006 5.94998 19.53 6.45399C19.18 6.83199 18.9 7.23798 18.9 7.36399C18.9 7.53199 19.068 7.41999 19.46 6.99998C19.922 6.49599 20.062 6.42599 20.384 6.49599C20.804 6.60799 21.28 6.32798 20.972 6.14598C20.874 6.08998 20.832 6.00599 20.86 5.97798C21.168 5.73998 23.086 4.61999 23.212 4.61999C23.45 4.61999 23.562 5.20798 23.394 5.61398C23.324 5.82398 23.016 6.10398 22.722 6.25798C22.428 6.41198 21.7 6.78999 21.098 7.11198C20.244 7.57399 19.866 7.69999 19.32 7.69999C18.732 7.69999 18.62 7.74199 18.62 7.96598C18.62 8.10599 18.718 8.30199 18.83 8.39999C18.942 8.49799 19.04 8.65199 19.04 8.76398C19.04 9.04399 18.326 9.49199 17.556 9.67398C17.178 9.77199 16.38 10.08 15.792 10.388C15.022 10.766 14.7 10.864 14.7 10.724C14.7 10.626 14.854 10.108 15.064 9.58998C15.26 9.05799 15.4 8.46999 15.372 8.27399C15.302 7.68599 14.938 7.83998 14.7 8.56799C14.532 9.11399 14.448 9.21199 14.21 9.15599C14.056 9.11399 13.692 9.18399 13.398 9.30999C13.118 9.42199 12.88 9.47799 12.88 9.42199C12.88 9.36599 13.118 9.07199 13.398 8.76398L13.93 8.21799L13.09 8.80598C12.628 9.14199 11.69 9.78599 10.99 10.262C9.772 11.088 8.12 12.586 8.12 12.838C8.12 12.908 8.302 12.95 8.54 12.908C9.156 12.824 9.086 13.118 8.19 14.21C7.77 14.714 7.42 15.176 7.42 15.204C7.42 15.33 7.574 15.246 8.036 14.84C8.316 14.588 8.554 14.476 8.61 14.546C8.652 14.63 7.952 15.428 7.056 16.31C5.446 17.92 5.432 17.948 5.53 18.452C5.642 19.04 5.88 19.39 5.88 18.956C5.88 18.144 6.496 16.8 6.874 16.8C7.084 16.8 7.014 17.248 6.496 19.264C6.216 20.342 5.95 21.714 5.894 22.33L5.81 23.45L5.292 22.61C4.998 22.148 4.76 21.868 4.76 21.994C4.76 22.12 4.41 22.652 3.99 23.17C3.57 23.674 3.22 24.122 3.22 24.15C3.22 24.164 3.122 24.416 3.01 24.696C2.898 24.976 2.828 25.2 2.856 25.2C2.884 25.2 3.122 24.878 3.374 24.472L3.836 23.758L4.018 24.164C4.27 24.752 4.242 25.228 3.85 27.3C3.5 29.19 3.43 30.366 3.64 30.87C3.752 31.122 3.766 31.122 3.766 30.786C3.78 30.338 4.102 29.89 4.312 30.016C4.522 30.142 4.522 30.996 4.326 31.906C4.116 32.9 3.864 33.012 3.948 32.06L4.018 31.332L3.556 31.402C2.996 31.5 2.996 31.486 2.856 29.61C2.814 28.84 2.716 28.07 2.646 27.888C2.464 27.412 2.128 27.51 2.016 28.07C1.89 28.784 2.044 29.666 2.66 31.57C3.262 33.446 3.458 34.3 3.262 34.3C3.192 34.3 2.94 34.034 2.688 33.712C2.212 33.096 2.142 33.138 2.394 33.852C2.478 34.09 2.618 34.272 2.702 34.258C2.814 34.244 2.87 34.594 2.87 35.462C2.87 36.134 2.842 36.68 2.8 36.68C2.758 36.68 2.52 36.554 2.282 36.4L1.82 36.12L1.834 36.512C1.848 37.296 2.03 38.15 2.17 38.108C2.338 38.052 3.094 41.006 3.528 43.428C3.71 44.394 3.892 45.136 3.934 45.052C4.046 44.87 4.41 45.528 4.55 46.186C4.718 46.942 4.886 46.41 4.816 45.36L4.76 44.45L4.97 45.22C5.096 45.64 5.25 46.662 5.32 47.488C5.39 48.328 5.53 49.294 5.614 49.658L5.782 50.302L6.034 49.994L6.286 49.686L6.482 50.162C6.916 51.198 6.93 51.282 6.552 51.212L6.202 51.142L6.524 51.632C6.706 51.898 6.86 52.262 6.86 52.43C6.86 52.71 7.378 53.34 7.602 53.34C7.658 53.34 7.672 53.172 7.616 52.962C7.574 52.738 7.826 53.088 8.176 53.718C8.526 54.362 8.82 55.02 8.82 55.202C8.82 55.86 9.436 56.756 10.5 57.61C11.074 58.086 11.62 58.604 11.704 58.772C11.858 59.08 13.874 60.998 15.316 62.188C16.366 63.07 18.256 64.33 19.642 65.1C20.286 65.45 20.678 65.744 20.58 65.8C20.426 65.898 24.612 68.292 26.082 68.936C27.678 69.636 29.078 70 30.184 70C30.744 70 31.22 69.958 31.22 69.916C31.22 69.874 31.15 69.72 31.08 69.566C30.982 69.384 30.982 69.3 31.08 69.3C31.15 69.3 31.22 69.188 31.22 69.048C31.22 68.824 31.444 68.81 34.048 68.81C37.1 68.81 38.71 68.614 41.328 67.97C42.112 67.774 42.77 67.62 42.784 67.62C42.812 67.62 42.84 67.914 42.84 68.292C42.84 69.104 43.134 69.58 43.638 69.58H44.002L43.61 69.216C43.288 68.922 43.232 68.782 43.302 68.362C43.4 67.802 43.708 67.41 44.268 67.116C44.632 66.92 44.66 66.934 44.66 67.186C44.66 67.732 45.066 67.76 47.124 67.396C48.188 67.214 49.238 67.018 49.462 66.976C49.798 66.892 49.84 66.92 49.84 67.256C49.84 67.676 49.868 67.69 50.764 67.41C51.142 67.298 51.464 67.2 51.492 67.2C51.506 67.2 51.52 67.424 51.52 67.69C51.52 67.998 51.436 68.222 51.282 68.306C51.142 68.39 51.086 68.46 51.142 68.46C51.338 68.46 52.108 67.872 52.024 67.802C51.982 67.76 52.08 67.536 52.234 67.326L52.514 66.92H51.898C51.548 66.92 51.086 66.878 50.848 66.836C50.47 66.766 50.428 66.71 50.54 66.486C50.624 66.346 50.68 66.024 50.68 65.772V65.296L51.744 65.394L52.808 65.506L53.228 65.03C53.452 64.764 54.124 64.288 54.712 63.952C55.3 63.63 56.014 63.14 56.266 62.874C56.532 62.594 56.7 62.468 56.63 62.58C56.56 62.706 56.63 62.692 56.812 62.524C57.162 62.23 57.246 62.02 56.91 62.3C56.756 62.426 56.7 62.426 56.7 62.314C56.7 62.23 56.798 62.118 56.91 62.076C57.022 62.02 57.12 61.88 57.12 61.74C57.12 61.614 57.302 61.25 57.54 60.928L57.946 60.354L57.204 60.62C56.546 60.844 54.81 61.18 54.306 61.18C54.208 61.18 54.334 60.956 54.6 60.69C54.964 60.312 55.118 60.242 55.314 60.354C55.524 60.466 55.65 60.382 56.014 59.892C56.252 59.556 56.574 59.038 56.728 58.73C57.022 58.156 58.394 56.238 58.786 55.86C58.912 55.734 59.416 55.146 59.92 54.53C60.424 53.914 61.264 52.906 61.796 52.29C63.042 50.834 64.61 48.454 65.52 46.648C66.094 45.486 66.29 45.206 66.5 45.262C66.724 45.318 66.752 45.206 66.808 44.366C66.836 43.848 66.906 43.372 66.948 43.33C67.004 43.274 67.186 43.33 67.368 43.456C67.998 43.904 68.082 43.778 67.97 42.588C67.83 41.076 67.844 40.11 68.026 39.802C68.11 39.662 68.18 39.62 68.18 39.718C68.18 39.928 68.698 40.222 68.88 40.11C68.964 40.054 68.866 39.732 68.67 39.326C68.376 38.766 68.348 38.64 68.53 38.64C68.656 38.64 68.866 38.374 69.02 38.024C69.16 37.688 69.342 37.394 69.426 37.366C69.51 37.324 69.412 36.68 69.16 35.574C68.656 33.502 68.642 33.236 69.034 33.138C69.3 33.068 69.314 33.096 69.23 33.558C69.174 33.908 69.202 34.09 69.328 34.174C69.916 34.552 70.014 34.076 69.58 32.816C69.412 32.368 69.286 31.696 69.286 31.346C69.272 30.73 69.258 30.702 68.922 30.772L68.558 30.842L68.6 28.966C68.67 26.11 68.67 26.096 68.194 25.816C67.844 25.62 67.704 25.326 67.284 23.996C66.668 22.092 65.646 19.782 64.764 18.298C64.414 17.696 64.12 17.108 64.12 17.01C64.12 16.912 63.854 16.52 63.518 16.156C63.196 15.778 62.552 14.994 62.09 14.42C60.956 12.992 58.842 10.906 57.386 9.77199C56.294 8.91799 53.536 7.08398 53.158 6.95798C53.074 6.92999 53.228 6.63599 53.536 6.25798C54.124 5.54398 54.152 5.12399 53.648 4.78799C53.326 4.57799 53.326 4.57799 53.494 4.94199C53.634 5.24998 53.62 5.37598 53.424 5.65598C53.088 6.17398 52.682 6.34198 52.038 6.24398C51.716 6.18798 51.394 6.08998 51.31 6.03399C51.24 5.96398 50.932 5.83798 50.638 5.73998C50.148 5.58598 50.12 5.55798 50.316 5.33398C50.442 5.19398 50.54 5.01199 50.54 4.92799C50.54 4.59199 49.658 3.79398 48.412 2.96799C46.998 2.04398 46.578 1.97398 46.088 2.58998L45.836 2.89799L45.164 2.11398C44.492 1.34399 44.464 1.32999 43.694 1.31599C43.26 1.31599 42.504 1.17599 42 1.02199C41.496 0.867981 40.656 0.699982 40.11 0.643982C39.298 0.587982 39.06 0.615982 38.738 0.825981ZM39.438 0.783981C39.396 0.825981 39.27 0.839981 39.172 0.797981C39.06 0.755981 39.102 0.713982 39.256 0.713982C39.41 0.699982 39.494 0.741982 39.438 0.783981ZM49.392 5.01199C49.588 5.30598 49.588 5.31998 49.154 5.16599C48.72 5.01199 48.636 4.89999 48.818 4.70399C48.958 4.56399 49.168 4.67599 49.392 5.01199ZM12.012 10.388C11.9 10.57 11.536 11.186 11.2 11.76C10.864 12.334 10.57 12.824 10.556 12.852C10.542 12.88 10.374 12.824 10.206 12.726L9.884 12.558L10.262 12.264C10.472 12.096 10.64 11.9 10.64 11.83C10.64 11.676 12.012 10.08 12.138 10.08C12.18 10.08 12.124 10.22 12.012 10.388ZM9.8 18.578C9.646 18.816 9.646 18.816 9.716 18.578C9.758 18.438 9.8 18.242 9.814 18.158C9.814 18.032 9.842 18.032 9.884 18.158C9.926 18.256 9.884 18.438 9.8 18.578ZM11.62 19.446C11.62 19.516 11.522 19.642 11.41 19.74C11.242 19.88 11.2 19.88 11.2 19.712C11.2 19.6 11.242 19.46 11.298 19.418C11.424 19.278 11.62 19.292 11.62 19.446ZM9.94 19.796C9.94 19.824 9.982 19.95 10.024 20.062C10.066 20.188 9.884 20.426 9.548 20.692L9.016 21.126L9.226 20.426C9.38 19.936 9.506 19.74 9.688 19.74C9.828 19.74 9.94 19.768 9.94 19.796ZM10.598 20.384C10.514 20.678 9.982 21.602 9.422 22.428C8.862 23.268 8.134 24.458 7.812 25.088L7.21 26.25L7.168 24.262C7.14 22.386 7.154 22.246 7.448 21.91C7.616 21.714 7.826 21.56 7.938 21.56C8.036 21.56 8.218 21.406 8.344 21.21C8.596 20.818 8.82 20.86 8.82 21.294C8.82 21.924 9.898 21.196 10.388 20.258C10.724 19.586 10.822 19.642 10.598 20.384ZM68.46 27.496C68.46 28.112 68.222 27.762 68.124 27.02C68.04 26.418 68.04 26.404 68.236 26.74C68.362 26.936 68.446 27.272 68.46 27.496ZM6.384 27.286C6.496 27.188 6.622 27.16 6.678 27.202C6.818 27.342 6.146 28.84 5.936 28.84C5.544 28.84 5.236 27.664 5.474 27.048L5.614 26.67L5.908 27.062C6.132 27.37 6.23 27.412 6.384 27.286ZM47.18 66.15C47.18 66.29 47.04 66.36 46.732 66.36L46.27 66.346L46.62 66.15C47.068 65.898 47.18 65.898 47.18 66.15ZM45.948 67.158C46.144 67.41 45.71 67.55 45.248 67.396C44.716 67.214 44.716 66.948 45.248 66.724C45.668 66.542 45.71 66.542 45.766 66.752C45.794 66.878 45.878 67.074 45.948 67.158ZM30.73 68.754C30.926 68.95 30.226 68.894 29.75 68.684C29.33 68.488 29.344 68.488 29.96 68.558C30.31 68.6 30.646 68.684 30.73 68.754Z" fill="black"/>
<path d="M35.742 1.21826C35.952 1.24626 36.288 1.24626 36.512 1.21826C36.722 1.19026 36.54 1.16226 36.12 1.16226C35.7 1.16226 35.518 1.19026 35.742 1.21826Z" fill="black"/>
<path d="M50.932 4.95626C51.1 5.18026 51.24 5.47426 51.24 5.62826C51.24 5.78226 51.31 5.85226 51.38 5.81026C51.66 5.64226 51.506 5.19426 51.072 4.87226L50.61 4.55026L50.932 4.95626Z" fill="black"/>
<path d="M4.648 18.8023C4.326 19.1523 4.256 19.5303 4.48 19.6703C4.564 19.7123 4.62 19.8943 4.62 20.0623C4.634 20.3702 4.634 20.3702 4.844 20.0903C5.026 19.8383 5.026 19.8103 4.844 19.7683C4.564 19.7123 4.564 19.7123 4.83 19.0823C5.096 18.4663 5.04 18.3823 4.648 18.8023Z" fill="black"/>
<path d="M2.31 20.7768C2.128 21.2528 2.114 21.4488 2.226 21.6868C2.52 22.2048 2.66 21.9948 2.66 21.0708C2.66 20.5668 2.632 20.1608 2.604 20.1608C2.576 20.1608 2.436 20.4408 2.31 20.7768Z" fill="black"/>
<path d="M1.638 23.1003C1.414 23.4923 1.19 23.8003 1.134 23.8003C0.993999 23.8003 0.615999 23.3663 0.531999 23.1003C0.489999 22.9883 0.433999 23.1283 0.405999 23.4083C0.363999 23.6883 0.391999 23.8843 0.447999 23.8563C0.503999 23.8143 0.559999 24.0103 0.559999 24.2763C0.559999 24.5563 0.629999 24.7803 0.699999 24.7803C0.783999 24.7803 0.839999 24.7243 0.839999 24.6543C0.839999 24.5703 1.218 24.2203 1.68 23.8703C2.506 23.2263 2.688 22.9043 2.352 22.5683C2.1 22.3163 2.058 22.3443 1.638 23.1003Z" fill="black"/>
<path d="M0.699997 25.6207C0.699997 25.7047 0.797997 25.7607 0.909997 25.7607C1.176 25.7607 1.176 25.6767 0.909997 25.5647C0.797997 25.5227 0.699997 25.5507 0.699997 25.6207Z" fill="black"/>
<path d="M67.788 44.1703C67.634 44.5203 67.55 46.3263 67.69 46.1723C67.774 46.0883 68.068 43.9463 67.998 43.8763C67.97 43.8483 67.872 43.9743 67.788 44.1703Z" fill="black"/>
<path d="M64.806 49.1684C64.68 49.6444 64.54 50.1484 64.484 50.2744C64.33 50.6104 65.002 50.4564 65.352 50.0644C65.842 49.5464 65.856 49.2104 65.422 48.7204L65.016 48.2724L64.806 49.1684Z" fill="black"/>
<path d="M63.98 50.9742C63.882 51.1282 63.84 51.2962 63.882 51.3242C63.91 51.3522 64.008 51.2262 64.092 51.0302C64.288 50.6102 64.19 50.5682 63.98 50.9742Z" fill="black"/>
<path d="M63.434 52.3887C63.126 53.3127 63.168 53.3127 63.756 52.4307L64.12 51.8707V52.4307C64.106 52.7387 64.022 53.1447 63.91 53.3407C63.406 54.2227 63.826 54.6147 64.596 53.9987C64.946 53.7047 64.974 53.6347 64.834 53.3547C64.722 53.1727 64.694 52.8227 64.764 52.4307C64.848 51.8427 64.834 51.8007 64.47 51.6607C63.84 51.4227 63.742 51.4927 63.434 52.3887Z" fill="black"/>
<path d="M60.774 55.5239C60.774 55.6919 60.41 56.2099 59.99 56.6859C59.248 57.5119 59.052 57.9879 59.36 58.1699C59.612 58.3239 59.514 58.4919 59.122 58.5899L58.73 58.7019L59.136 58.8139C59.416 58.8979 59.626 58.8559 59.878 58.7019L60.228 58.4639L59.906 58.2399C59.416 57.8619 59.64 57.5399 60.41 57.5399H61.04L61.026 56.9379C61.026 56.2799 60.802 55.0619 60.774 55.5239Z" fill="black"/>
<path d="M62.37 55.5942C62.314 55.6782 62.3 55.7622 62.342 55.8042C62.37 55.8462 62.44 55.7762 62.482 55.6502C62.58 55.4122 62.496 55.3702 62.37 55.5942Z" fill="black"/>
<path d="M61.81 56.7982C61.6 57.1342 61.46 57.4422 61.488 57.4702C61.502 57.4842 61.726 57.5542 61.964 57.5962C62.342 57.6802 62.454 57.6382 62.706 57.3162C63.098 56.8262 63.084 56.6722 62.58 56.3922L62.174 56.1682L61.81 56.7982Z" fill="black"/>
<path d="M58.786 59.5985L58.31 60.1025L58.758 59.7945C59.234 59.4725 59.43 59.2485 59.332 59.1365C59.304 59.1085 59.052 59.3185 58.786 59.5985Z" fill="black"/>
<path d="M52.85 66.6403C52.808 66.7103 52.836 66.7803 52.906 66.7803C52.99 66.7803 53.06 66.7103 53.06 66.6403C53.06 66.5563 53.032 66.5003 53.004 66.5003C52.962 66.5003 52.892 66.5563 52.85 66.6403Z" fill="black"/>
<path d="M48.37 68.1939C47.782 68.7959 47.726 68.8939 48.02 68.8099C48.622 68.6419 49.21 68.2499 49.252 67.9839C49.364 67.4239 49.028 67.5079 48.37 68.1939Z" fill="black"/>
<path d="M45.57 68.0399L45.01 68.2919L45.542 68.3059C45.892 68.3199 46.102 68.2499 46.158 68.1099C46.284 67.7739 46.172 67.7599 45.57 68.0399Z" fill="black"/>
<path d="M37.17 69.0203C35.784 69.1603 33.992 69.2863 33.18 69.3003L31.71 69.3283L33.11 69.5943C33.908 69.7623 35.434 69.9023 36.68 69.9583L38.85 70.0283L38.5 69.7483L38.15 69.4683L38.5 69.3143C38.696 69.2443 39.354 69.1323 39.97 69.0763C40.796 69.0063 40.992 68.9503 40.74 68.8663C40.25 68.7263 40.026 68.7403 37.17 69.0203Z" fill="black"/>
<path fill-rule="evenodd" clip-rule="evenodd" d="M35.2573 20.2435C34.4874 21.2153 33.7474 22.1483 33.6128 22.3168L33.3683 22.6232L33.6128 22.6668L33.8574 22.7105L33.6816 22.7586C33.585 22.785 33.4362 22.8209 33.3511 22.8384C33.2343 22.8624 32.9326 23.2057 32.1206 24.2388C31.529 24.9917 30.4795 26.324 29.7884 27.1997L28.5319 28.7918L27.3861 29.4607C26.7559 29.8286 26.1961 30.1464 26.1422 30.167C26.0739 30.193 25.7712 29.9961 25.1461 29.5191L24.248 28.8338L24.2671 28.5917C24.2775 28.4585 24.3896 27.341 24.5161 26.1082C24.6426 24.8754 24.7453 23.8338 24.7442 23.7937C24.7432 23.7536 24.536 24.2217 24.284 24.834C24.0318 25.4463 23.5977 26.482 23.319 27.1355C23.0404 27.789 22.8125 28.3428 22.8125 28.366C22.8125 28.3892 22.9981 28.4973 23.2249 28.6061C23.4518 28.715 23.628 28.8134 23.6166 28.8248C23.6052 28.8362 23.4165 28.7943 23.1973 28.7316L22.7987 28.6176L22.8344 28.7957C22.8688 28.9682 22.8644 28.9727 22.6947 28.9354C22.5634 28.9066 22.5195 28.9181 22.5195 28.9814C22.5195 29.0343 22.8833 29.2269 23.4925 29.4967C24.0277 29.7337 24.443 29.9349 24.4154 29.9438C24.3878 29.9528 23.9175 29.8425 23.3701 29.6988C22.8229 29.555 22.3562 29.4563 22.3331 29.4795C22.3101 29.5026 22.094 29.9961 21.853 30.5762L21.4147 31.6309L19.2279 31.6602L17.041 31.6895L17.6855 31.899C18.04 32.0142 18.7446 32.2237 19.2512 32.3645C19.7579 32.5053 20.1666 32.6263 20.1594 32.6333C20.1523 32.6404 19.8301 32.6115 19.4434 32.5692C19.0566 32.5268 18.7313 32.5006 18.7205 32.5109C18.7096 32.5212 18.7756 32.5769 18.867 32.6345C19.4582 33.0071 21.5415 34.5669 21.5855 34.6697C21.6149 34.7386 21.9124 35.4937 22.2465 36.3477C22.5806 37.2017 23.009 38.2959 23.1984 38.7793C23.3878 39.2627 23.5476 39.6187 23.5535 39.5703C23.5593 39.522 23.5967 39.2056 23.6365 38.8672C23.6763 38.5288 23.7253 38.2198 23.7454 38.1806C23.8137 38.0469 26.3824 44.3128 27.2575 46.748C27.7276 48.056 27.8091 48.2535 27.7651 47.9785C27.7235 47.7177 27.6007 42.7899 27.6351 42.7556C27.6512 42.7394 27.9317 43.0576 28.2584 43.4627C28.585 43.8678 28.8663 44.1992 28.8834 44.1992C28.9004 44.1992 28.9004 43.5994 28.8832 42.8662C28.8661 42.133 28.8672 41.5859 28.8858 41.6504C29.3929 43.4093 30.1563 46.1176 30.2603 46.5266C30.3359 46.8237 30.4157 47.0346 30.4378 46.9951C30.491 46.9 31.6351 43.2957 31.7235 42.945C31.7614 42.7944 31.8036 42.6825 31.8173 42.6962C31.831 42.7099 31.945 43.1526 32.0708 43.6799C32.2965 44.627 32.3043 44.6462 32.7066 45.2539C32.9305 45.5923 33.1003 45.8823 33.0838 45.8984C33.0673 45.9146 32.9093 45.7695 32.7327 45.5762C32.49 45.3107 32.4213 45.2605 32.4519 45.3711C32.4741 45.4517 32.5732 45.6204 32.6721 45.7462L32.8517 45.9747L32.7017 45.937C32.5527 45.8996 32.5521 45.901 32.6065 46.1479C32.8053 47.0504 33.6087 50.4439 33.6283 50.4639C33.6415 50.4773 33.6524 50.4378 33.6525 50.376C33.6527 50.1788 33.9413 45.7682 33.9819 45.3418C34.0034 45.1162 34.033 44.9712 34.0478 45.0195C34.0954 45.1754 34.8419 46.9224 34.8801 46.9673C34.9004 46.9912 35.0192 46.6221 35.144 46.147C35.2688 45.6719 35.3889 45.2475 35.411 45.2037C35.4337 45.1586 35.4825 45.2853 35.5237 45.4967C35.5636 45.7016 35.7787 46.6338 36.0017 47.5684C36.2247 48.5029 36.45 49.4521 36.5024 49.6777C36.5548 49.9033 36.6145 50.1201 36.6352 50.1594C36.6693 50.2245 37.583 47.0223 37.5796 46.8498C37.5788 46.809 37.6033 46.7299 37.634 46.674C37.6647 46.618 37.7521 46.3518 37.8281 46.0824L37.9664 45.5925L38.1612 46.346C38.2682 46.7605 38.3721 47.117 38.3918 47.1383C38.4116 47.1595 38.637 46.7113 38.8929 46.1422C39.1487 45.5731 39.376 45.0859 39.3979 45.0595C39.4197 45.0331 39.4558 45.3627 39.478 45.7919C39.5437 47.0594 39.6829 49.4023 39.7264 49.9707L39.7667 50.498L39.8452 50.2344C39.9552 49.8644 41.5538 42.8654 41.5664 42.6982C41.5686 42.6697 41.6047 42.752 41.6468 42.8809C41.871 43.569 42.9692 47.0792 42.9715 47.1155C42.973 47.139 43.3253 45.938 43.7543 44.4467C44.1833 42.9554 44.5454 41.7242 44.5589 41.7106C44.5725 41.6971 44.5766 41.8626 44.5682 42.0784C44.5255 43.1688 44.5188 44.1999 44.5545 44.1857C44.5765 44.1771 44.8503 43.8469 45.1628 43.4521C45.4753 43.0574 45.7357 42.7344 45.7415 42.7343C45.7611 42.7342 45.6761 46.9797 45.6447 47.5684C45.6206 48.0201 45.6276 48.114 45.675 47.9785C46.1803 46.5366 49.505 38.305 49.6454 38.1484C49.6676 38.1236 49.7191 38.4268 49.7598 38.8221C49.8006 39.2175 49.8402 39.5472 49.8477 39.5547C49.8553 39.5623 50.308 38.4363 50.8536 37.0526C51.8117 34.6229 51.854 34.53 52.0885 34.3435C52.2219 34.2373 52.8679 33.7 53.524 33.1496C54.18 32.5991 54.8486 32.048 55.0098 31.9249C55.2637 31.7308 55.2813 31.705 55.1416 31.7311C55.0529 31.7476 54.9805 31.7388 54.9805 31.7116C54.9805 31.6844 54.3062 31.6551 53.482 31.6465L51.9836 31.6309L51.5436 30.6348C50.8463 29.0558 49.222 25.248 48.9442 24.541C48.705 23.9323 48.5676 23.6558 48.627 23.9027C48.6417 23.9637 48.7584 24.9761 48.8864 26.1523C49.0143 27.3286 49.1338 28.3998 49.1519 28.5328L49.1847 28.7745L48.523 29.2977C48.1591 29.5854 47.7513 29.9057 47.6169 30.0094L47.3724 30.198L46.144 29.4917L44.9156 28.7855L43.4881 26.9919C39.0641 21.4336 38.2947 20.4642 37.5547 19.5166C37.108 18.9446 36.7233 18.4766 36.6998 18.4766C36.6763 18.4766 36.0271 19.2717 35.2573 20.2435ZM36.3921 22.1754C36.0946 22.5787 35.2288 23.817 32.7923 27.3242C32.2438 28.1138 31.3922 29.353 30.8998 30.0781C30.4074 30.8032 29.9727 31.4308 29.9338 31.4726C29.8605 31.5515 29.9157 31.2877 30.2867 29.7868C30.3939 29.3526 30.4754 28.9911 30.4678 28.9834C30.4539 28.9695 27.0716 31.067 25.4785 32.0772L24.6582 32.5974L22.8711 32.6068C21.8882 32.612 21.0312 32.611 20.9668 32.6046C20.9023 32.5983 20.7841 32.6094 20.7041 32.6292C20.5681 32.663 21.7619 33.1287 24.1176 33.9607C24.4003 34.0606 24.6239 34.1654 24.6145 34.1936C24.6051 34.2219 24.4018 34.3713 24.1627 34.5257L23.7281 34.8065L23.2941 34.606C23.0554 34.4957 22.8524 34.414 22.8428 34.4244C22.8334 34.4348 23.1022 34.6835 23.4403 34.977L24.055 35.5107L25.0597 34.9258C25.7477 34.5252 26.1383 34.3327 26.2988 34.3152C26.4277 34.3011 26.5991 34.2757 26.6797 34.2587L26.8262 34.2278L26.6551 34.1574L26.484 34.087L27.036 33.7733C27.3395 33.6008 27.6437 33.4232 27.712 33.3785C27.8296 33.3017 27.8447 33.3149 27.9997 33.6317L28.1633 33.966L27.7394 34.7906L27.3154 35.6152L27.5924 35.3223C27.7447 35.1611 28.2363 34.6136 28.6848 34.1055L29.5003 33.1817L29.6925 33.3438C29.7983 33.4329 30.3273 33.9013 30.8681 34.3846C31.8516 35.2637 32.0643 35.4402 32.0935 35.4015C32.102 35.3901 32.289 34.9458 32.509 34.4141C32.729 33.8823 32.9459 33.359 32.9909 33.2512L33.0727 33.0551L33.6085 33.8207C33.9031 34.2417 34.1541 34.5764 34.1663 34.5642C34.1783 34.5521 34.0037 34.1574 33.7781 33.6871C33.5524 33.2168 33.3768 32.832 33.3878 32.832C33.3988 32.832 34.0793 33.5769 34.9001 34.4873C35.7208 35.3977 36.4708 36.2164 36.5667 36.3066L36.741 36.4707L37.7323 35.3398C38.2774 34.7179 39.0509 33.8201 39.4511 33.3447C39.8512 32.8694 40.1953 32.4805 40.2158 32.4805C40.2362 32.4805 40.4724 33.1199 40.7405 33.9014C41.0086 34.6828 41.2507 35.3474 41.2783 35.3782C41.3088 35.4121 41.4263 35.3413 41.5774 35.1977C41.7142 35.0677 42.2349 34.6098 42.7344 34.1802C43.2339 33.7505 43.6986 33.3491 43.767 33.288C43.8912 33.1773 43.8945 33.1796 45.2612 34.2984C46.0145 34.9151 46.71 35.4765 46.8066 35.5458L46.9824 35.6719L46.888 35.5264C46.836 35.4464 46.5526 35.0403 46.2581 34.6239C45.9637 34.2077 45.7336 33.8562 45.7469 33.843C45.7816 33.8083 46.5378 34.0881 47.0554 34.3272C47.2994 34.44 47.5085 34.5228 47.52 34.5113C47.5315 34.4997 47.2097 34.2709 46.8048 34.0027C46.0323 33.491 45.8327 33.3223 46.2542 33.5373C46.4838 33.6545 48.3376 34.7318 49.2299 35.2667L49.6024 35.4899L50.0209 35.0544C50.6342 34.4162 50.6543 34.3777 50.2501 34.6145C50.0534 34.7299 49.8573 34.8235 49.8144 34.8226C49.696 34.8202 48.9191 34.276 48.9383 34.209C48.9475 34.1768 49.4318 33.9567 50.0145 33.7201L51.0738 33.2898L51.4777 33.4483C51.6999 33.5354 51.8966 33.5916 51.915 33.5733C51.9334 33.5549 51.8272 33.4663 51.6792 33.3764C51.2468 33.1138 51.3529 33.0309 51.8492 33.2437C52.1823 33.3865 52.2415 33.3611 51.9911 33.1828C51.89 33.1109 51.8292 33.0321 51.8558 33.0079C51.8825 32.9836 52.0757 32.9073 52.2852 32.8384C52.9607 32.6161 52.9177 32.5998 51.6406 32.594L50.4394 32.5885L50.8203 32.4488L51.2012 32.3091L50.8203 32.3439C50.6108 32.363 50.395 32.4016 50.3408 32.4296C50.2058 32.4992 50.0562 32.4987 50.1661 32.4291C50.2528 32.3741 49.8378 32.3977 49.2417 32.4816C48.9205 32.5269 48.8377 32.5191 48.6851 32.4293C47.6666 31.8295 45.8398 30.6958 45.8398 30.6633C45.8398 30.6406 45.9782 30.5953 46.1475 30.5628C46.4538 30.5039 46.4529 30.5036 45.921 30.496L45.387 30.4883L44.2804 29.8381C43.6718 29.4805 43.1322 29.1656 43.0814 29.1383C43.0041 29.0969 43.0208 29.2497 43.1828 30.0668C43.2894 30.6048 43.3771 31.0805 43.3778 31.1239C43.3784 31.1674 43.0708 30.7455 42.6944 30.1864C42.3178 29.6274 41.6374 28.6426 41.1823 27.998C40.7272 27.3535 40.0804 26.4307 39.745 25.9473C38.7654 24.5354 36.9325 21.9726 36.8169 21.8531C36.7137 21.7463 36.702 21.7552 36.3921 22.1754ZM33.3008 23.9452C33.188 24.1111 32.6939 24.808 32.2027 25.494L31.3098 26.7413L31.4703 27.355C31.6442 28.0198 31.6931 28.0687 31.9675 27.8529C32.0485 27.7891 32.2743 27.4661 32.4692 27.1351C32.8062 26.5626 32.8367 26.4775 33.0938 25.3906C33.2425 24.7622 33.4025 24.1183 33.4494 23.9598C33.4964 23.8012 33.5282 23.6652 33.5203 23.6575C33.5124 23.6499 33.4136 23.7793 33.3008 23.9452ZM39.9423 23.7793C39.9607 23.8438 40.1245 24.494 40.3064 25.2242C40.627 26.5119 40.6479 26.5702 41.0004 27.1578C41.2807 27.6249 41.4164 27.793 41.5933 27.8923C41.7195 27.9631 41.8316 28.0122 41.8422 28.0015C41.8529 27.9908 41.9273 27.6905 42.0074 27.3343L42.153 26.6865L41.5242 25.8188C40.6818 24.6564 40.0409 23.7922 39.9682 23.7207C39.9281 23.6812 39.9196 23.7003 39.9423 23.7793ZM33.7419 30.708C34.5878 31.5645 34.6722 31.6701 34.9168 32.1774L35.1804 32.724L35.8549 33.0484C36.226 33.2268 36.5417 33.3607 36.5565 33.3458C36.5713 33.3311 36.3624 32.8205 36.0922 32.2112C35.822 31.602 35.5022 30.8728 35.3814 30.5908C35.2607 30.3089 35.1435 30.0781 35.121 30.0781C35.0986 30.0781 35.0045 30.2363 34.9121 30.4297C34.8197 30.623 34.7248 30.7812 34.7012 30.7812C34.6777 30.7812 34.2553 30.5571 33.7627 30.2832C33.2701 30.0093 32.8587 29.7852 32.8487 29.7852C32.8386 29.7852 33.2405 30.2004 33.7419 30.708ZM40.0098 30.0828C39.7197 30.2454 39.3189 30.4695 39.1192 30.581L38.7559 30.7837L38.5626 30.4316C38.4562 30.238 38.3553 30.0792 38.3383 30.0788C38.2941 30.0778 36.8603 33.3056 36.8912 33.3365C36.9053 33.3507 37.2173 33.21 37.5844 33.0239L38.252 32.6855L38.5156 32.2019C38.6988 31.8658 38.9669 31.5171 39.3941 31.0593C39.7323 30.6969 40.1382 30.2619 40.2962 30.0928C40.4541 29.9236 40.573 29.7856 40.5603 29.7862C40.5475 29.7868 40.2998 29.9203 40.0098 30.0828ZM22.8711 30.3419C22.8711 30.359 23.0295 30.6889 23.2231 31.0751L23.5751 31.7773H24.1009H24.6267L24.5935 31.499C24.5753 31.3459 24.5502 31.1876 24.5377 31.1471C24.5101 31.0571 22.8711 30.2653 22.8711 30.3419ZM49.792 30.6735C49.3747 30.8699 49.0034 31.0602 48.9669 31.0964C48.9305 31.1325 48.8835 31.3006 48.8624 31.4697L48.8241 31.7773L49.3681 31.7765L49.9121 31.7757L50.2491 31.0637C50.4345 30.6722 50.5782 30.3438 50.5685 30.3341C50.5588 30.3244 50.2094 30.4771 49.792 30.6735ZM26.709 31.8227C26.1394 31.9883 26.118 31.9969 26.1624 32.0413C26.1786 32.0575 26.2767 32.0413 26.3802 32.0052C26.7403 31.8797 26.6171 31.9931 26.0933 32.2692C25.8035 32.422 25.5664 32.5588 25.5664 32.573C25.5664 32.6234 26.5081 32.1247 26.6154 32.0175C26.6752 31.9576 26.8592 31.8638 27.0242 31.809C27.1892 31.7542 27.3242 31.6982 27.3242 31.6848C27.3242 31.647 27.2756 31.6579 26.709 31.8227ZM27.4183 37.3166L26.8971 38.3828L27.7041 39.958C28.1479 40.8243 28.5279 41.5521 28.5485 41.5753C28.5692 41.5984 28.5512 41.0065 28.5085 40.2599L28.4309 38.9025L28.5828 38.4157L28.7345 37.9289L28.3454 37.0943C28.1314 36.6353 27.9525 36.2577 27.9479 36.255C27.9433 36.2524 27.7049 36.7301 27.4183 37.3166ZM45.2566 36.6866C45.1453 36.9352 44.971 37.3136 44.8692 37.5273L44.6841 37.9159L44.9026 38.4355L45.1212 38.9551L45.0464 39.8047C44.9567 40.8229 44.912 41.6309 44.9475 41.5955C44.9616 41.5814 45.3152 40.8516 45.7333 39.9739L46.4934 38.378L45.9806 37.3042C45.6987 36.7136 45.466 36.2313 45.4634 36.2325C45.461 36.2336 45.3679 36.4379 45.2566 36.6866ZM30.0263 36.57C29.9554 36.7083 29.7403 37.1645 29.5483 37.5836C29.2141 38.3131 29.1992 38.3657 29.1992 38.8165V39.2874L29.8145 40.0779C30.1528 40.5127 30.4295 40.8993 30.4293 40.9371C30.4287 41.0492 30.6683 43.0439 30.7014 43.2023C30.7467 43.4194 30.7761 43.3435 31.3044 41.6424L31.78 40.111L30.9965 38.3026C30.5656 37.3079 30.2 36.4546 30.1841 36.4062C30.1651 36.3484 30.1112 36.4043 30.0263 36.57ZM32.9318 37.2733C32.4257 37.78 32.0117 38.2329 32.0117 38.2794C32.0117 38.326 32.1941 39.1563 32.4171 40.1245C32.64 41.0926 32.8931 42.2275 32.9796 42.6465C33.1679 43.5584 33.2025 43.6568 33.2266 43.3496C33.2367 43.2207 33.3363 42.166 33.448 41.0059C33.848 36.851 33.8901 36.3901 33.8711 36.3711C33.8605 36.3605 33.4378 36.7665 32.9318 37.2733ZM39.5472 36.6127C39.5654 36.7731 39.7302 38.4174 39.9135 40.2667L40.2467 43.6291L40.8263 40.921L41.4058 38.2129L40.4599 37.267L39.5141 36.3212L39.5472 36.6127ZM43.1812 36.5845C42.9589 37.1158 41.7717 39.8001 41.6763 39.9871L41.5681 40.1991L42.0696 41.6572C42.3454 42.4591 42.6398 43.3196 42.7238 43.5693C42.8077 43.8191 42.8943 44.0234 42.9161 44.0234C42.9379 44.0234 42.9742 43.7004 42.9967 43.3057C43.1015 41.4657 43.0957 41.4893 43.6187 40.8111C43.8513 40.5095 43.9138 40.3641 44.0799 39.738C44.3695 38.646 44.3701 38.6853 44.0533 37.953C43.9013 37.6018 43.7025 37.1826 43.6113 37.0215C43.5202 36.8604 43.4053 36.6505 43.3558 36.5552L43.2659 36.3819L43.1812 36.5845ZM37.7379 37.3145C37.7189 37.3789 37.5412 38.1304 37.3428 38.9844C37.1445 39.8384 36.978 40.5503 36.9729 40.5664C36.9591 40.6095 37.879 41.6797 37.9298 41.6797C37.9909 41.6797 38.9513 40.5243 38.973 40.4247C38.9829 40.3796 38.7288 39.6746 38.4084 38.8579C38.088 38.0412 37.8138 37.3335 37.7991 37.2852C37.7787 37.2184 37.764 37.2254 37.7379 37.3145ZM24.837 37.4023C24.8603 37.4829 25.3197 38.8936 25.8578 40.5371C26.396 42.1807 26.8643 43.6177 26.8985 43.7305C26.9887 44.0279 26.9919 42.9345 26.9068 40.918L26.8388 39.3066L25.8167 38.2812C25.1527 37.6151 24.8094 37.3072 24.837 37.4023ZM47.5762 38.2734L46.5892 39.2617L46.5058 41.2763C46.4599 42.3844 46.4298 43.4229 46.4388 43.584C46.4538 43.8503 46.537 43.6289 47.3533 41.1523C47.8471 39.6538 48.337 38.1706 48.442 37.8564C48.547 37.5423 48.6172 37.2852 48.598 37.2852C48.5789 37.2852 48.119 37.7299 47.5762 38.2734ZM35.355 38.2105C35.1157 38.5356 34.8534 39.0005 34.6321 39.4919L34.2849 40.2629L34.5621 40.6637C34.9432 41.2143 34.9315 41.2023 35.8203 41.9607C36.2554 42.3319 36.6744 42.6908 36.7514 42.7582L36.8915 42.8809L36.8575 42.7344C36.8388 42.6538 36.7554 42.1133 36.6721 41.5332C36.567 40.8013 36.4117 40.075 36.1645 39.1602C35.9686 38.4351 35.7908 37.81 35.7695 37.7711C35.7456 37.7277 35.5857 37.8972 35.355 38.2105ZM37.7238 44.9746C37.5687 45.3377 37.4458 45.6611 37.4506 45.6934C37.4909 45.9597 37.4826 46.0434 37.417 46.0303C37.3154 46.0099 37.3251 46.1615 37.4309 46.2494C37.5007 46.3074 37.523 46.3058 37.5428 46.242C37.6852 45.7808 38.0501 44.3587 38.0309 44.3394C38.0171 44.3257 37.8789 44.6115 37.7238 44.9746ZM37.0767 46.1035C37.251 46.3842 37.5311 46.7267 37.5615 46.6963C37.6002 46.6576 37.2699 46.1877 37.1039 46.0449L36.9675 45.9277L37.0767 46.1035ZM5.10324 64.9828C5.17613 64.9968 5.2816 64.9963 5.33762 64.9817C5.39363 64.967 5.33398 64.9555 5.20508 64.9562C5.07617 64.9568 5.03035 64.9688 5.10324 64.9828ZM5.80766 64.9846C5.97787 64.9965 6.24154 64.9964 6.39359 64.9844C6.54559 64.9723 6.40625 64.9627 6.08398 64.9628C5.76172 64.963 5.63738 64.9728 5.80766 64.9846Z" fill="white"/>
</g>
<defs>
<clipPath id="clip0_647_1375">
<rect width="70" height="70" fill="white"/>
</clipPath>
</defs>
</svg>
