<svg width="228" height="31" viewBox="0 0 228 31" fill="none" xmlns="http://www.w3.org/2000/svg">
<path d="M113.606 0.0572739C113.47 0.102131 113.15 0.120073 112.922 0.0931587C112.693 0.0572739 112.374 0.102131 112.237 0.173903C112.1 0.254646 111.598 0.317448 111.141 0.317448C110.684 0.317448 110.091 0.380247 109.771 0.452019C109.132 0.604536 107.032 0.640421 107.032 0.496878C107.032 0.443048 105.89 0.407162 104.521 0.407162C103.151 0.407162 102.009 0.443048 102.009 0.487906C102.009 0.649393 100.183 0.649393 99.2243 0.487906C97.9915 0.272589 97.4893 0.272589 97.0784 0.469963C96.8957 0.559677 96.5761 0.631451 96.3022 0.631451C96.0739 0.631451 94.8868 0.712193 93.6997 0.801908C91.6451 0.963396 91.4168 0.963396 89.1796 0.819851C87.2619 0.69425 86.7597 0.685278 86.4401 0.783966C86.1205 0.87368 85.9379 0.87368 85.4813 0.783966C85.2073 0.730137 84.5225 0.676308 83.9746 0.676308C83.4267 0.676308 82.7875 0.631451 82.5135 0.577621C82.1483 0.505848 81.92 0.505848 81.7373 0.577621C81.5547 0.631451 80.5959 0.676308 79.5458 0.676308C78.0847 0.676308 77.7651 0.703222 77.9934 0.810881C78.1304 0.891623 77.9477 0.972366 77.5368 1.00825C76.715 1.07105 70.6882 0.712193 70.2772 0.586592C69.775 0.434076 67.9943 0.487906 67.4008 0.676308C66.7159 0.900595 65.0266 0.918537 65.0266 0.69425C65.0266 0.613506 64.2961 0.452019 63.4286 0.33539C62.5611 0.227732 61.8305 0.173903 61.8305 0.227732C61.8305 0.344362 59.6846 0.344362 59.3194 0.227732C58.9541 0.111103 57.4474 0.263618 56.169 0.559677C55.2558 0.766022 55.0732 0.766022 52.8359 0.676308C51.5119 0.622478 49.229 0.595564 47.7223 0.613506C46.1699 0.640421 44.9371 0.622478 44.9371 0.577621C44.9371 0.452019 43.2935 0.478933 42.6999 0.622478C42.3803 0.69425 41.7868 0.739107 41.3758 0.721165C40.9649 0.703222 40.3257 0.685278 40.0518 0.685278C39.7322 0.676308 39.4582 0.613506 39.4582 0.532763C39.4582 0.407162 39.1386 0.389219 37.6319 0.434076C36.6274 0.460991 35.8056 0.443048 35.8056 0.398191C35.8056 0.344362 35.3947 0.353333 34.8468 0.407162C34.3445 0.469963 33.4314 0.487906 32.8378 0.460991C32.0616 0.425104 31.5594 0.460991 31.1028 0.595564C30.6462 0.712193 30.3266 0.748079 30.0984 0.685278C29.9614 0.631451 29.5961 0.604536 29.3678 0.640421C29.1395 0.667336 28.6373 0.640421 28.272 0.586592C27.4502 0.452019 24.8477 0.739107 22.9301 1.1518C22.0169 1.35814 21.5603 1.403 21.1038 1.33123C20.3276 1.20563 16.9489 1.24151 16.7206 1.37609C16.6293 1.43888 16.3554 1.48374 16.0814 1.48374C15.4879 1.48374 14.6204 1.67214 14.2094 1.86952C14.0268 1.95923 13.7072 2.00409 13.4333 1.97718C13.205 1.95026 12.4744 2.02203 11.8809 2.14763C11.2873 2.27324 10.6481 2.38089 10.4198 2.38089C10.1916 2.38089 9.73497 2.51547 9.36971 2.66798C9.00445 2.82947 8.50221 2.99096 8.22826 3.02684C7.95432 3.06273 7.99998 3.1345 8.36524 3.22421C9.00445 3.37673 8.7305 3.41262 6.94985 3.37673C6.49327 3.36776 6.12801 3.40364 6.12801 3.4485C6.12801 3.50233 5.85406 3.54719 5.4888 3.54719C5.12353 3.54719 4.71261 3.61896 4.57564 3.69971C4.30169 3.83428 4.75827 3.94194 5.89972 4.02268C6.53893 4.06754 6.40195 4.7404 5.76274 4.78526C5.35182 4.81217 5.30616 4.85703 5.62577 4.91983C6.72156 5.18897 5.85406 5.79007 4.34735 5.79007C3.84511 5.79007 3.84511 5.81698 4.34735 5.93361C5.26051 6.14893 5.12353 6.51676 3.98209 6.83973C2.70367 7.18962 2.65801 7.31522 3.79946 7.31522C4.39301 7.31522 4.75827 7.39597 4.98656 7.5754C5.16919 7.75483 5.58011 7.85351 6.26498 7.87146C7.08682 7.8894 7.26945 7.96117 7.31511 8.21237C7.31511 8.38283 7.45208 8.64301 7.63471 8.77758C8.13695 9.13644 7.58906 9.64781 6.76721 9.58501C6.08235 9.53119 6.03669 9.58501 6.03669 10.527C6.03669 10.8321 5.85406 11.1102 5.62577 11.1371C5.44314 11.155 5.35182 11.4511 5.4888 11.783C5.8084 12.4469 5.8084 13.0929 5.58011 13.8913C5.4888 14.1784 5.58011 14.4386 5.76274 14.4565C6.49327 14.5463 7.5434 15.1115 7.63471 15.4883C7.72603 15.7036 7.99998 15.9638 8.27392 16.0535C8.82182 16.2508 8.54787 16.4841 7.04116 17.139C6.12801 17.5338 5.71708 18.0541 6.17366 18.3053C6.40195 18.4578 5.62577 19.0141 4.89524 19.1666C4.52998 19.2563 4.11906 19.5434 3.98209 19.8215C3.7538 20.2701 3.79946 20.3239 4.57564 20.3239C5.71708 20.3239 6.90419 20.6738 6.08235 20.7725C5.67143 20.8263 5.71708 20.925 6.31064 21.2211C6.90419 21.5171 6.94985 21.6248 6.53893 21.7235C6.21932 21.7952 6.12801 21.876 6.26498 21.9119C6.44761 21.9388 6.31064 22.0464 6.08235 22.1451C5.71708 22.2707 5.71708 22.3425 6.12801 22.3874C6.94985 22.486 6.31064 22.9346 5.44314 22.8718C4.89524 22.827 4.80393 22.8898 5.03222 23.2307C5.26051 23.5088 5.16919 23.6434 4.80393 23.6434C4.52998 23.6434 4.30169 23.6882 4.30169 23.7331C4.30169 23.7869 3.57117 23.9574 2.70367 24.1189C1.28828 24.3701 1.10565 24.4598 1.10565 24.8366C1.10565 25.0698 0.786041 25.3569 0.420778 25.4736C-0.264089 25.6799 -0.0814577 25.976 0.740383 25.976C0.968672 25.976 1.01433 26.0118 0.877356 26.0657C0.740383 26.1105 1.01433 26.1554 1.47091 26.1554C2.5667 26.1554 3.2059 26.4245 2.38406 26.5322C1.92749 26.586 1.97314 26.604 2.47538 26.604C2.8863 26.604 3.70814 26.7206 4.30169 26.8731C4.9409 27.0167 5.71708 27.1333 5.99103 27.1423C6.58458 27.1423 6.81287 27.2858 7.26945 27.9497C7.58906 28.4341 8.22826 28.6764 8.77616 28.5149C9.14142 28.3983 12.1092 28.4252 14.4834 28.5687C15.3052 28.6136 16.7663 28.6495 17.7707 28.6315C19.4601 28.6226 23.5693 28.8648 24.6194 29.0442C24.8934 29.0891 25.076 29.1698 25.076 29.2326C25.076 29.3672 28.5003 29.3941 28.546 29.2595C28.5916 29.2057 28.5916 29.0891 28.546 29.0083C28.409 28.8199 29.7788 28.793 30.144 28.9724C30.3266 29.0711 30.6919 29.0711 32.2443 28.9635C33.2944 28.8917 34.6185 28.8558 35.212 28.8917C35.8056 28.9186 36.2622 28.9007 36.2622 28.8558C36.2622 28.6854 37.5862 28.8648 37.7232 29.0442C37.8145 29.1519 38.2711 29.2775 38.7733 29.3313C39.2756 29.3851 39.8235 29.4659 39.9604 29.5107C40.1431 29.5556 40.6453 29.5646 41.1019 29.5287C41.5585 29.4928 42.0607 29.5197 42.289 29.5825C42.5629 29.6722 42.8825 29.6453 43.5218 29.4838C44.1153 29.3223 44.6175 29.2864 45.3937 29.3223C46.0786 29.3582 46.6265 29.3313 46.9461 29.2416C47.4027 29.1339 47.6766 29.1339 49.1833 29.2864C50.8727 29.4569 50.964 29.4569 51.7858 29.2954C52.699 29.116 54.9819 29.1519 54.9819 29.3492C54.9819 29.421 55.4384 29.4748 56.1233 29.4748C56.8538 29.4748 57.2648 29.5287 57.2648 29.6094C57.2648 29.7888 57.8127 29.7799 60.0042 29.5556C61.4653 29.4031 62.1045 29.3851 62.8807 29.4569C63.4286 29.5018 64.3417 29.5466 64.8896 29.5466C65.7115 29.5556 65.8941 29.4928 66.0311 29.2236L66.168 28.8917L67.8117 29.2416C69.4097 29.5735 69.5467 29.5825 70.5055 29.4479C71.0534 29.3762 71.7383 29.3223 72.0579 29.3403C74.3408 29.4748 74.98 29.4659 75.2083 29.2954C75.4366 29.107 76.441 29.0442 76.441 29.2147C76.441 29.2864 76.6237 29.2864 77.1259 29.2057C77.6281 29.125 78.0391 29.1429 79.2262 29.3044C80.3676 29.4659 80.8242 29.4838 81.5091 29.4031C81.9656 29.3492 82.4222 29.3313 82.5592 29.3762C82.6962 29.412 83.4723 29.4569 84.2942 29.4659C88.5404 29.5287 88.5404 29.5287 88.6773 29.3134C88.7686 29.2057 89.0883 29.116 89.4535 29.116C89.7731 29.116 90.1384 29.0711 90.2297 29.0083C90.458 28.8738 94.7042 29.0891 94.7042 29.2416C94.7042 29.4031 96.5305 29.5915 97.1697 29.4838C97.9915 29.3492 101.553 29.2057 101.553 29.3134C101.553 29.3672 101.918 29.3762 102.375 29.3403C103.379 29.2595 104.658 29.2057 106.256 29.1519C107.077 29.1339 107.488 29.1608 107.488 29.2506C107.488 29.3134 107.899 29.4031 108.402 29.43C108.904 29.4569 109.315 29.5287 109.315 29.5825C109.315 29.6363 109.726 29.6543 110.228 29.6274C110.913 29.5915 111.324 29.6543 111.871 29.8875C112.648 30.2015 113.333 30.2643 114.2 30.0939C114.428 30.049 115.844 29.9952 117.259 29.9862C119.862 29.9683 119.862 29.9683 119.679 29.7171C119.451 29.412 120.136 29.3134 120.912 29.5287C122.008 29.8247 131.276 29.5376 132.052 29.1788C132.372 29.0532 133.194 29.116 134.289 29.3492C135.111 29.5287 135.522 29.5646 135.933 29.4838C136.527 29.3672 138.079 29.3492 138.079 29.4569C138.079 29.5556 142.006 29.735 142.554 29.6632C142.782 29.6363 143.056 29.5287 143.147 29.43C143.375 29.2057 145.202 29.1788 145.019 29.4031C144.973 29.4838 145.293 29.5735 145.841 29.6094C146.343 29.6363 146.754 29.7081 146.754 29.753C146.754 29.8875 148.398 29.8427 149.037 29.6991C149.859 29.5018 150.635 29.5287 152.781 29.8337C153.831 29.9862 154.927 30.0939 155.246 30.067C155.566 30.04 156.16 30.1028 156.616 30.2015C157.575 30.4169 158.123 30.4169 158.899 30.2105C159.401 30.0849 159.63 30.0759 160.314 30.1746C160.771 30.2374 161.684 30.3271 162.323 30.381C163.008 30.4348 163.647 30.5425 163.784 30.6322C164.104 30.8744 166.844 30.9372 167.757 30.7309C168.122 30.6501 168.807 30.5514 169.218 30.5245C169.674 30.4886 169.903 30.4169 169.766 30.3361C169.172 30.0311 173.783 29.8965 177.208 30.1118C178.03 30.1656 178.943 30.1746 179.262 30.1387C180.358 30.0042 181.637 30.04 182.778 30.2554C184.193 30.5066 184.65 30.5155 184.97 30.2823C185.244 30.0849 185.335 30.0849 186.705 30.1836C187.207 30.2285 187.983 30.2195 188.485 30.1746C189.125 30.1028 189.627 30.1298 190.631 30.2733C191.316 30.381 192.138 30.4617 192.366 30.4617C193.279 30.4617 195.151 30.677 195.151 30.7757C195.151 30.8475 195.608 30.8654 196.293 30.8385C196.978 30.8206 197.434 30.8385 197.434 30.9013C197.434 30.9551 197.936 31 198.576 31C199.215 31 199.717 30.9551 199.717 30.9013C199.717 30.8385 200.174 30.8206 200.904 30.8565C201.909 30.9103 202.046 30.8923 201.817 30.7667C201.589 30.6501 201.772 30.6322 202.776 30.6681C204.237 30.7219 208.392 30.4797 208.392 30.3361C208.392 30.1836 210.492 29.744 211.177 29.744C211.634 29.744 212.09 29.5376 212.501 29.1339C213.141 28.5777 213.277 28.5328 214.465 28.5059C215.149 28.488 215.606 28.4431 215.469 28.3983C215.332 28.3534 215.697 28.2457 216.337 28.156C216.93 28.0663 217.524 27.8959 217.706 27.7882C218.026 27.6088 218.209 27.5819 219.122 27.5908C219.715 27.5998 220.857 27.2948 220.902 27.1153C220.948 26.9897 221.222 26.918 221.77 26.9269C222.181 26.9359 222.546 26.918 222.546 26.8821C222.546 26.8552 222.729 26.595 223.003 26.3079C223.414 25.8145 223.368 25.7696 222.135 25.4377C221.268 25.1954 220.765 24.9263 220.537 24.5674C220.354 24.2893 219.898 23.9843 219.487 23.8946C218.437 23.6703 218.391 22.8539 219.441 22.7103C220.081 22.6206 220.172 22.4502 220.035 21.553C219.898 20.7815 220.035 20.4764 220.446 20.3867C220.811 20.3239 220.948 20.1534 220.811 19.983C220.72 19.8036 220.811 19.6959 221.131 19.6959C221.77 19.6959 221.77 19.364 221.131 19.2922C220.857 19.2563 220.765 19.0589 220.902 18.8257C221.085 18.4219 220.537 18.1707 219.396 18.1707C218.711 18.1707 218.756 17.8567 219.487 17.7401C219.761 17.6953 220.537 17.6325 221.176 17.6145C221.952 17.5966 222.318 17.5338 222.318 17.3992C222.318 17.3005 222.683 17.148 223.14 17.0493C223.687 16.9416 223.824 16.8609 223.505 16.7981C223.185 16.7353 223.231 16.6187 223.596 16.4303C224.327 16.0714 224.098 15.7664 222.957 15.6318C221.952 15.5062 221.816 15.3896 222.729 15.3896C223.368 15.3896 223.368 15.3627 222.729 14.3848C222.5 14.0349 222.592 13.9272 223.414 13.7209C223.961 13.5773 224.235 13.4428 224.007 13.38C223.414 13.2274 223.414 12.8596 224.007 12.725C224.281 12.6533 224.372 12.5815 224.235 12.5456C224.053 12.5187 224.144 12.42 224.372 12.3393C224.692 12.2226 224.646 12.1598 224.19 12.1329C223.185 12.0522 223.003 11.6305 223.916 11.5318C225.012 11.4152 226.153 10.4283 225.286 10.3207C225.012 10.2938 224.829 10.1682 224.829 10.0426C224.829 9.90799 224.555 9.82724 224.144 9.82724C223.779 9.82724 223.459 9.77341 223.459 9.70164C223.459 9.62987 222.866 9.54913 222.089 9.51324C221.131 9.46838 220.72 9.39661 220.72 9.27998C220.72 9.1813 220.902 9.12747 221.176 9.15438C221.405 9.1813 221.724 9.10055 221.907 8.96598C222.089 8.82244 221.998 8.7058 221.679 8.66992C221.268 8.61609 221.313 8.53535 221.861 8.33797C222.226 8.19443 222.546 7.97911 222.546 7.85351C222.546 7.72791 222.866 7.55745 223.185 7.46774C223.642 7.35111 223.779 7.10888 223.642 6.58853C223.551 6.19378 223.642 5.87978 223.87 5.87978C224.098 5.87978 224.19 5.71829 224.053 5.52092C223.87 5.2428 223.961 5.15309 224.555 5.10823C224.92 5.08132 225.696 4.88394 226.244 4.66863C227.066 4.35463 227.112 4.25594 226.655 4.08548C226.199 3.91502 226.244 3.87016 227.066 3.75353C228.162 3.60102 228.345 3.29599 227.34 3.22421C226.792 3.17936 226.701 3.08964 226.929 2.86535C227.112 2.66798 227.021 2.56032 226.701 2.56032C226.427 2.56032 225.788 2.47958 225.286 2.38089C224.418 2.21043 224.281 2.21043 223.322 2.33604C222.774 2.40781 222.181 2.47061 221.998 2.47061C221.313 2.47061 221.633 2.23735 222.546 2.08483C224.372 1.7798 223.185 1.04414 221.085 1.16974C220.628 1.20563 219.898 1.17871 219.533 1.11591C219.167 1.06208 218.163 0.999281 217.25 0.981339C215.56 0.954424 213.186 0.568649 213.186 0.326418C213.186 0.245674 212.41 0.191845 210.812 0.164932C208.666 0.129045 208.392 0.146988 208.392 0.308475C208.392 0.541735 206.109 0.649393 204.648 0.469963C203.963 0.389219 202.548 0.344362 200.63 0.362305C198.987 0.371277 197.343 0.344362 196.932 0.308475C196.521 0.263618 195.197 0.209789 193.964 0.173903C192.731 0.146988 191.544 0.102131 191.316 0.0752163C191.133 0.0483017 190.768 0.0752163 190.586 0.138018C190.403 0.200817 189.764 0.263618 189.17 0.281561C186.705 0.353333 185.335 0.443048 185.015 0.532763C184.741 0.604536 184.65 0.604536 184.65 0.532763C184.65 0.362305 182.869 0.317448 182.413 0.469963C182.093 0.586592 181.911 0.586592 180.632 0.460991C179.673 0.362305 179.125 0.344362 178.897 0.416134C178.76 0.469963 177.984 0.496878 177.253 0.478933C176.523 0.452019 175.838 0.460991 175.747 0.496878C175.61 0.532763 174.651 0.523792 173.601 0.478933C170.177 0.33539 166.387 0.299503 166.387 0.407162C166.387 0.478933 165.885 0.487906 164.972 0.452019C163.921 0.407162 163.419 0.425104 163.008 0.541735C162.552 0.667336 162.232 0.676308 161.502 0.604536C160.999 0.550707 160.451 0.523792 160.314 0.559677C160.132 0.586592 159.721 0.559677 159.356 0.505848C158.99 0.443048 158.488 0.416134 158.26 0.443048C157.986 0.469963 157.575 0.434076 157.255 0.362305C156.616 0.209789 155.429 0.182875 155.429 0.317448C155.429 0.443048 153.74 0.425104 153.466 0.290533C153.283 0.21876 152.781 0.281561 151.913 0.469963C150.452 0.774994 148.215 0.882652 147.119 0.69425C146.708 0.631451 146.069 0.613506 145.658 0.640421C145.202 0.676308 144.517 0.631451 143.969 0.532763C143.01 0.362305 140.819 0.254646 140.819 0.389219C140.819 0.425104 140.088 0.51482 139.221 0.577621C137.759 0.676308 137.531 0.667336 136.39 0.460991C135.066 0.21876 134.426 0.173903 134.426 0.317448C134.426 0.362305 134.153 0.407162 133.833 0.407162C133.513 0.407162 132.554 0.478933 131.687 0.577621C130.683 0.676308 129.495 0.730137 128.491 0.703222C126.025 0.649393 123.012 0.478933 123.012 0.407162C123.012 0.308475 121.186 0.407162 120.044 0.559677C118.72 0.739107 118.035 0.703222 118.127 0.460991C118.172 0.33539 118.035 0.236704 117.807 0.236704C117.579 0.245674 117.259 0.191845 117.076 0.138018C116.666 0.00344467 113.972 -0.0503845 113.606 0.0572739Z" fill="black"/>
</svg>
