<svg width="70" height="70" viewBox="0 0 70 70" fill="none" xmlns="http://www.w3.org/2000/svg">
<g clip-path="url(#clip0_643_917)">
<path d="M31.192 0.168491C30.912 0.392491 31.01 1.31649 31.304 1.20449C31.402 1.16249 31.71 1.09249 31.976 1.03649C32.62 0.924491 32.69 0.784491 32.382 0.350491C32.102 -0.0275085 31.556 -0.111509 31.192 0.168491Z" fill="black"/>
<path d="M38.738 0.825981C38.514 0.965981 38.08 1.13399 37.758 1.18999C37.282 1.27399 37.226 1.30199 37.45 1.39999C37.716 1.49799 37.702 1.51199 37.38 1.58199C37.184 1.62399 36.694 1.70798 36.274 1.74998C35.588 1.83398 35.49 1.80598 35.224 1.48399C35.056 1.30199 34.706 1.10599 34.44 1.04999C34.034 0.965981 33.978 0.97998 34.132 1.13399C34.622 1.65199 33.95 1.88998 33.32 1.39999C32.984 1.14799 32.97 1.14799 32.69 1.39999C32.466 1.59599 32.018 1.69398 30.562 1.80598C29.554 1.90398 28.42 2.05798 28.042 2.16998C27.118 2.44998 27.104 2.42198 27.972 2.02998C28.406 1.83398 28.7 1.60999 28.7 1.46999C28.7 1.23199 28.602 1.18999 27.832 1.04999C27.342 0.97998 27.3 0.99398 27.3 1.31599C27.3 1.55399 27.146 1.76398 26.852 1.97398C26.6 2.14198 26.362 2.30998 26.334 2.33798C26.306 2.35198 26.362 2.63198 26.46 2.95399C26.628 3.45798 26.698 3.51398 27.034 3.47198C27.258 3.42999 27.384 3.47198 27.342 3.54198C27.188 3.80798 26.306 4.05998 25.592 4.05998C24.864 4.04598 24.85 4.04598 25.27 3.86398L25.69 3.68198L25.172 3.42999C24.738 3.21999 24.584 3.20599 24.276 3.34599C23.842 3.54198 23.688 3.45798 23.94 3.14999C24.038 3.02399 24.094 2.91199 24.066 2.88399C23.996 2.82799 20.468 3.84998 18.76 4.40999C17.122 4.94199 15.064 6.01999 14.168 6.80399C13.426 7.44799 13.384 7.62999 13.93 7.72799C14.084 7.75599 14.21 7.83998 14.21 7.90998C14.224 7.99398 14.28 8.20399 14.336 8.38599L14.448 8.72198L14.63 8.28799C14.854 7.76999 15.246 7.50399 16.31 7.12598C17.178 6.81799 17.388 6.85999 17.038 7.23798C16.786 7.53199 16.324 8.66599 16.17 9.37999L16.072 9.86999L16.492 9.30999C16.716 9.00199 17.29 8.38599 17.766 7.95198C18.48 7.27999 18.62 7.06998 18.634 6.64999C18.648 6.38398 18.662 6.07598 18.676 5.97798C18.704 5.57198 19.67 5.30598 19.992 5.62798C20.118 5.75398 20.006 5.94998 19.53 6.45399C19.18 6.83199 18.9 7.23798 18.9 7.36399C18.9 7.53199 19.068 7.41999 19.46 6.99998C19.922 6.49599 20.062 6.42599 20.384 6.49599C20.804 6.60799 21.28 6.32798 20.972 6.14598C20.874 6.08998 20.832 6.00599 20.86 5.97798C21.168 5.73998 23.086 4.61999 23.212 4.61999C23.45 4.61999 23.562 5.20798 23.394 5.61398C23.324 5.82398 23.016 6.10398 22.722 6.25798C22.428 6.41198 21.7 6.78999 21.098 7.11198C20.244 7.57399 19.866 7.69999 19.32 7.69999C18.732 7.69999 18.62 7.74199 18.62 7.96598C18.62 8.10599 18.718 8.30199 18.83 8.39999C18.942 8.49799 19.04 8.65199 19.04 8.76398C19.04 9.04399 18.326 9.49199 17.556 9.67398C17.178 9.77199 16.38 10.08 15.792 10.388C15.022 10.766 14.7 10.864 14.7 10.724C14.7 10.626 14.854 10.108 15.064 9.58998C15.26 9.05799 15.4 8.46999 15.372 8.27399C15.302 7.68599 14.938 7.83998 14.7 8.56799C14.532 9.11399 14.448 9.21199 14.21 9.15599C14.056 9.11399 13.692 9.18399 13.398 9.30999C13.118 9.42199 12.88 9.47799 12.88 9.42199C12.88 9.36599 13.118 9.07199 13.398 8.76398L13.93 8.21799L13.09 8.80598C12.628 9.14199 11.69 9.78599 10.99 10.262C9.772 11.088 8.12 12.586 8.12 12.838C8.12 12.908 8.302 12.95 8.54 12.908C9.156 12.824 9.086 13.118 8.19 14.21C7.77 14.714 7.42 15.176 7.42 15.204C7.42 15.33 7.574 15.246 8.036 14.84C8.316 14.588 8.554 14.476 8.61 14.546C8.652 14.63 7.952 15.428 7.056 16.31C5.446 17.92 5.432 17.948 5.53 18.452C5.642 19.04 5.88 19.39 5.88 18.956C5.88 18.144 6.496 16.8 6.874 16.8C7.084 16.8 7.014 17.248 6.496 19.264C6.216 20.342 5.95 21.714 5.894 22.33L5.81 23.45L5.292 22.61C4.998 22.148 4.76 21.868 4.76 21.994C4.76 22.12 4.41 22.652 3.99 23.17C3.57 23.674 3.22 24.122 3.22 24.15C3.22 24.164 3.122 24.416 3.01 24.696C2.898 24.976 2.828 25.2 2.856 25.2C2.884 25.2 3.122 24.878 3.374 24.472L3.836 23.758L4.018 24.164C4.27 24.752 4.242 25.228 3.85 27.3C3.5 29.19 3.43 30.366 3.64 30.87C3.752 31.122 3.766 31.122 3.766 30.786C3.78 30.338 4.102 29.89 4.312 30.016C4.522 30.142 4.522 30.996 4.326 31.906C4.116 32.9 3.864 33.012 3.948 32.06L4.018 31.332L3.556 31.402C2.996 31.5 2.996 31.486 2.856 29.61C2.814 28.84 2.716 28.07 2.646 27.888C2.464 27.412 2.128 27.51 2.016 28.07C1.89 28.784 2.044 29.666 2.66 31.57C3.262 33.446 3.458 34.3 3.262 34.3C3.192 34.3 2.94 34.034 2.688 33.712C2.212 33.096 2.142 33.138 2.394 33.852C2.478 34.09 2.618 34.272 2.702 34.258C2.814 34.244 2.87 34.594 2.87 35.462C2.87 36.134 2.842 36.68 2.8 36.68C2.758 36.68 2.52 36.554 2.282 36.4L1.82 36.12L1.834 36.512C1.848 37.296 2.03 38.15 2.17 38.108C2.338 38.052 3.094 41.006 3.528 43.428C3.71 44.394 3.892 45.136 3.934 45.052C4.046 44.87 4.41 45.528 4.55 46.186C4.718 46.942 4.886 46.41 4.816 45.36L4.76 44.45L4.97 45.22C5.096 45.64 5.25 46.662 5.32 47.488C5.39 48.328 5.53 49.294 5.614 49.658L5.782 50.302L6.034 49.994L6.286 49.686L6.482 50.162C6.916 51.198 6.93 51.282 6.552 51.212L6.202 51.142L6.524 51.632C6.706 51.898 6.86 52.262 6.86 52.43C6.86 52.71 7.378 53.34 7.602 53.34C7.658 53.34 7.672 53.172 7.616 52.962C7.574 52.738 7.826 53.088 8.176 53.718C8.526 54.362 8.82 55.02 8.82 55.202C8.82 55.86 9.436 56.756 10.5 57.61C11.074 58.086 11.62 58.604 11.704 58.772C11.858 59.08 13.874 60.998 15.316 62.188C16.366 63.07 18.256 64.33 19.642 65.1C20.286 65.45 20.678 65.744 20.58 65.8C20.426 65.898 24.612 68.292 26.082 68.936C27.678 69.636 29.078 70 30.184 70C30.744 70 31.22 69.958 31.22 69.916C31.22 69.874 31.15 69.72 31.08 69.566C30.982 69.384 30.982 69.3 31.08 69.3C31.15 69.3 31.22 69.188 31.22 69.048C31.22 68.824 31.444 68.81 34.048 68.81C37.1 68.81 38.71 68.614 41.328 67.97C42.112 67.774 42.77 67.62 42.784 67.62C42.812 67.62 42.84 67.914 42.84 68.292C42.84 69.104 43.134 69.58 43.638 69.58H44.002L43.61 69.216C43.288 68.922 43.232 68.782 43.302 68.362C43.4 67.802 43.708 67.41 44.268 67.116C44.632 66.92 44.66 66.934 44.66 67.186C44.66 67.732 45.066 67.76 47.124 67.396C48.188 67.214 49.238 67.018 49.462 66.976C49.798 66.892 49.84 66.92 49.84 67.256C49.84 67.676 49.868 67.69 50.764 67.41C51.142 67.298 51.464 67.2 51.492 67.2C51.506 67.2 51.52 67.424 51.52 67.69C51.52 67.998 51.436 68.222 51.282 68.306C51.142 68.39 51.086 68.46 51.142 68.46C51.338 68.46 52.108 67.872 52.024 67.802C51.982 67.76 52.08 67.536 52.234 67.326L52.514 66.92H51.898C51.548 66.92 51.086 66.878 50.848 66.836C50.47 66.766 50.428 66.71 50.54 66.486C50.624 66.346 50.68 66.024 50.68 65.772V65.296L51.744 65.394L52.808 65.506L53.228 65.03C53.452 64.764 54.124 64.288 54.712 63.952C55.3 63.63 56.014 63.14 56.266 62.874C56.532 62.594 56.7 62.468 56.63 62.58C56.56 62.706 56.63 62.692 56.812 62.524C57.162 62.23 57.246 62.02 56.91 62.3C56.756 62.426 56.7 62.426 56.7 62.314C56.7 62.23 56.798 62.118 56.91 62.076C57.022 62.02 57.12 61.88 57.12 61.74C57.12 61.614 57.302 61.25 57.54 60.928L57.946 60.354L57.204 60.62C56.546 60.844 54.81 61.18 54.306 61.18C54.208 61.18 54.334 60.956 54.6 60.69C54.964 60.312 55.118 60.242 55.314 60.354C55.524 60.466 55.65 60.382 56.014 59.892C56.252 59.556 56.574 59.038 56.728 58.73C57.022 58.156 58.394 56.238 58.786 55.86C58.912 55.734 59.416 55.146 59.92 54.53C60.424 53.914 61.264 52.906 61.796 52.29C63.042 50.834 64.61 48.454 65.52 46.648C66.094 45.486 66.29 45.206 66.5 45.262C66.724 45.318 66.752 45.206 66.808 44.366C66.836 43.848 66.906 43.372 66.948 43.33C67.004 43.274 67.186 43.33 67.368 43.456C67.998 43.904 68.082 43.778 67.97 42.588C67.83 41.076 67.844 40.11 68.026 39.802C68.11 39.662 68.18 39.62 68.18 39.718C68.18 39.928 68.698 40.222 68.88 40.11C68.964 40.054 68.866 39.732 68.67 39.326C68.376 38.766 68.348 38.64 68.53 38.64C68.656 38.64 68.866 38.374 69.02 38.024C69.16 37.688 69.342 37.394 69.426 37.366C69.51 37.324 69.412 36.68 69.16 35.574C68.656 33.502 68.642 33.236 69.034 33.138C69.3 33.068 69.314 33.096 69.23 33.558C69.174 33.908 69.202 34.09 69.328 34.174C69.916 34.552 70.014 34.076 69.58 32.816C69.412 32.368 69.286 31.696 69.286 31.346C69.272 30.73 69.258 30.702 68.922 30.772L68.558 30.842L68.6 28.966C68.67 26.11 68.67 26.096 68.194 25.816C67.844 25.62 67.704 25.326 67.284 23.996C66.668 22.092 65.646 19.782 64.764 18.298C64.414 17.696 64.12 17.108 64.12 17.01C64.12 16.912 63.854 16.52 63.518 16.156C63.196 15.778 62.552 14.994 62.09 14.42C60.956 12.992 58.842 10.906 57.386 9.77199C56.294 8.91799 53.536 7.08398 53.158 6.95798C53.074 6.92999 53.228 6.63599 53.536 6.25798C54.124 5.54398 54.152 5.12399 53.648 4.78799C53.326 4.57799 53.326 4.57799 53.494 4.94199C53.634 5.24998 53.62 5.37598 53.424 5.65598C53.088 6.17398 52.682 6.34198 52.038 6.24398C51.716 6.18798 51.394 6.08998 51.31 6.03399C51.24 5.96398 50.932 5.83798 50.638 5.73998C50.148 5.58598 50.12 5.55798 50.316 5.33398C50.442 5.19398 50.54 5.01199 50.54 4.92799C50.54 4.59199 49.658 3.79398 48.412 2.96799C46.998 2.04398 46.578 1.97398 46.088 2.58998L45.836 2.89799L45.164 2.11398C44.492 1.34399 44.464 1.32999 43.694 1.31599C43.26 1.31599 42.504 1.17599 42 1.02199C41.496 0.867981 40.656 0.699982 40.11 0.643982C39.298 0.587982 39.06 0.615982 38.738 0.825981ZM39.438 0.783981C39.396 0.825981 39.27 0.839981 39.172 0.797981C39.06 0.755981 39.102 0.713982 39.256 0.713982C39.41 0.699982 39.494 0.741982 39.438 0.783981ZM49.392 5.01199C49.588 5.30598 49.588 5.31998 49.154 5.16599C48.72 5.01199 48.636 4.89999 48.818 4.70399C48.958 4.56399 49.168 4.67599 49.392 5.01199ZM12.012 10.388C11.9 10.57 11.536 11.186 11.2 11.76C10.864 12.334 10.57 12.824 10.556 12.852C10.542 12.88 10.374 12.824 10.206 12.726L9.884 12.558L10.262 12.264C10.472 12.096 10.64 11.9 10.64 11.83C10.64 11.676 12.012 10.08 12.138 10.08C12.18 10.08 12.124 10.22 12.012 10.388ZM9.8 18.578C9.646 18.816 9.646 18.816 9.716 18.578C9.758 18.438 9.8 18.242 9.814 18.158C9.814 18.032 9.842 18.032 9.884 18.158C9.926 18.256 9.884 18.438 9.8 18.578ZM11.62 19.446C11.62 19.516 11.522 19.642 11.41 19.74C11.242 19.88 11.2 19.88 11.2 19.712C11.2 19.6 11.242 19.46 11.298 19.418C11.424 19.278 11.62 19.292 11.62 19.446ZM9.94 19.796C9.94 19.824 9.982 19.95 10.024 20.062C10.066 20.188 9.884 20.426 9.548 20.692L9.016 21.126L9.226 20.426C9.38 19.936 9.506 19.74 9.688 19.74C9.828 19.74 9.94 19.768 9.94 19.796ZM10.598 20.384C10.514 20.678 9.982 21.602 9.422 22.428C8.862 23.268 8.134 24.458 7.812 25.088L7.21 26.25L7.168 24.262C7.14 22.386 7.154 22.246 7.448 21.91C7.616 21.714 7.826 21.56 7.938 21.56C8.036 21.56 8.218 21.406 8.344 21.21C8.596 20.818 8.82 20.86 8.82 21.294C8.82 21.924 9.898 21.196 10.388 20.258C10.724 19.586 10.822 19.642 10.598 20.384ZM68.46 27.496C68.46 28.112 68.222 27.762 68.124 27.02C68.04 26.418 68.04 26.404 68.236 26.74C68.362 26.936 68.446 27.272 68.46 27.496ZM6.384 27.286C6.496 27.188 6.622 27.16 6.678 27.202C6.818 27.342 6.146 28.84 5.936 28.84C5.544 28.84 5.236 27.664 5.474 27.048L5.614 26.67L5.908 27.062C6.132 27.37 6.23 27.412 6.384 27.286ZM47.18 66.15C47.18 66.29 47.04 66.36 46.732 66.36L46.27 66.346L46.62 66.15C47.068 65.898 47.18 65.898 47.18 66.15ZM45.948 67.158C46.144 67.41 45.71 67.55 45.248 67.396C44.716 67.214 44.716 66.948 45.248 66.724C45.668 66.542 45.71 66.542 45.766 66.752C45.794 66.878 45.878 67.074 45.948 67.158ZM30.73 68.754C30.926 68.95 30.226 68.894 29.75 68.684C29.33 68.488 29.344 68.488 29.96 68.558C30.31 68.6 30.646 68.684 30.73 68.754Z" fill="black"/>
<path d="M35.742 1.21826C35.952 1.24626 36.288 1.24626 36.512 1.21826C36.722 1.19026 36.54 1.16226 36.12 1.16226C35.7 1.16226 35.518 1.19026 35.742 1.21826Z" fill="black"/>
<path d="M50.932 4.95626C51.1 5.18026 51.24 5.47426 51.24 5.62826C51.24 5.78226 51.31 5.85226 51.38 5.81026C51.66 5.64226 51.506 5.19426 51.072 4.87226L50.61 4.55026L50.932 4.95626Z" fill="black"/>
<path d="M4.648 18.8023C4.326 19.1523 4.256 19.5303 4.48 19.6703C4.564 19.7123 4.62 19.8943 4.62 20.0623C4.634 20.3702 4.634 20.3702 4.844 20.0903C5.026 19.8383 5.026 19.8103 4.844 19.7683C4.564 19.7123 4.564 19.7123 4.83 19.0823C5.096 18.4663 5.04 18.3823 4.648 18.8023Z" fill="black"/>
<path d="M2.31 20.7768C2.128 21.2528 2.114 21.4488 2.226 21.6868C2.52 22.2048 2.66 21.9948 2.66 21.0708C2.66 20.5668 2.632 20.1608 2.604 20.1608C2.576 20.1608 2.436 20.4408 2.31 20.7768Z" fill="black"/>
<path d="M1.638 23.1003C1.414 23.4923 1.19 23.8003 1.134 23.8003C0.994003 23.8003 0.616003 23.3663 0.532003 23.1003C0.490003 22.9883 0.434003 23.1283 0.406003 23.4083C0.364003 23.6883 0.392003 23.8843 0.448003 23.8563C0.504003 23.8143 0.560003 24.0103 0.560003 24.2763C0.560003 24.5563 0.630003 24.7803 0.700003 24.7803C0.784003 24.7803 0.840003 24.7243 0.840003 24.6543C0.840003 24.5703 1.218 24.2203 1.68 23.8703C2.506 23.2263 2.688 22.9043 2.352 22.5683C2.1 22.3163 2.058 22.3443 1.638 23.1003Z" fill="black"/>
<path d="M0.700005 25.6207C0.700005 25.7047 0.798005 25.7607 0.910004 25.7607C1.176 25.7607 1.176 25.6767 0.910004 25.5647C0.798005 25.5227 0.700005 25.5507 0.700005 25.6207Z" fill="black"/>
<path d="M67.788 44.1703C67.634 44.5203 67.55 46.3263 67.69 46.1723C67.774 46.0883 68.068 43.9463 67.998 43.8763C67.97 43.8483 67.872 43.9743 67.788 44.1703Z" fill="black"/>
<path d="M64.806 49.1684C64.68 49.6444 64.54 50.1484 64.484 50.2744C64.33 50.6104 65.002 50.4564 65.352 50.0644C65.842 49.5464 65.856 49.2104 65.422 48.7204L65.016 48.2724L64.806 49.1684Z" fill="black"/>
<path d="M63.98 50.9742C63.882 51.1282 63.84 51.2962 63.882 51.3242C63.91 51.3522 64.008 51.2262 64.092 51.0302C64.288 50.6102 64.19 50.5682 63.98 50.9742Z" fill="black"/>
<path d="M63.434 52.3887C63.126 53.3127 63.168 53.3127 63.756 52.4307L64.12 51.8707V52.4307C64.106 52.7387 64.022 53.1447 63.91 53.3407C63.406 54.2227 63.826 54.6147 64.596 53.9987C64.946 53.7047 64.974 53.6347 64.834 53.3547C64.722 53.1727 64.694 52.8227 64.764 52.4307C64.848 51.8427 64.834 51.8007 64.47 51.6607C63.84 51.4227 63.742 51.4927 63.434 52.3887Z" fill="black"/>
<path d="M60.774 55.5239C60.774 55.6919 60.41 56.2099 59.99 56.6859C59.248 57.5119 59.052 57.9879 59.36 58.1699C59.612 58.3239 59.514 58.4919 59.122 58.5899L58.73 58.7019L59.136 58.8139C59.416 58.8979 59.626 58.8559 59.878 58.7019L60.228 58.4639L59.906 58.2399C59.416 57.8619 59.64 57.5399 60.41 57.5399H61.04L61.026 56.9379C61.026 56.2799 60.802 55.0619 60.774 55.5239Z" fill="black"/>
<path d="M62.37 55.5942C62.314 55.6782 62.3 55.7622 62.342 55.8042C62.37 55.8462 62.44 55.7762 62.482 55.6502C62.58 55.4122 62.496 55.3702 62.37 55.5942Z" fill="black"/>
<path d="M61.81 56.7982C61.6 57.1342 61.46 57.4422 61.488 57.4702C61.502 57.4842 61.726 57.5542 61.964 57.5962C62.342 57.6802 62.454 57.6382 62.706 57.3162C63.098 56.8262 63.084 56.6722 62.58 56.3922L62.174 56.1682L61.81 56.7982Z" fill="black"/>
<path d="M58.786 59.5985L58.31 60.1025L58.758 59.7945C59.234 59.4725 59.43 59.2485 59.332 59.1365C59.304 59.1085 59.052 59.3185 58.786 59.5985Z" fill="black"/>
<path d="M52.85 66.6403C52.808 66.7103 52.836 66.7803 52.906 66.7803C52.99 66.7803 53.06 66.7103 53.06 66.6403C53.06 66.5563 53.032 66.5003 53.004 66.5003C52.962 66.5003 52.892 66.5563 52.85 66.6403Z" fill="black"/>
<path d="M48.37 68.1939C47.782 68.7959 47.726 68.8939 48.02 68.8099C48.622 68.6419 49.21 68.2499 49.252 67.9839C49.364 67.4239 49.028 67.5079 48.37 68.1939Z" fill="black"/>
<path d="M45.57 68.0399L45.01 68.2919L45.542 68.3059C45.892 68.3199 46.102 68.2499 46.158 68.1099C46.284 67.7739 46.172 67.7599 45.57 68.0399Z" fill="black"/>
<path d="M37.17 69.0203C35.784 69.1603 33.992 69.2863 33.18 69.3003L31.71 69.3283L33.11 69.5943C33.908 69.7623 35.434 69.9023 36.68 69.9583L38.85 70.0283L38.5 69.7483L38.15 69.4683L38.5 69.3143C38.696 69.2443 39.354 69.1323 39.97 69.0763C40.796 69.0063 40.992 68.9503 40.74 68.8663C40.25 68.7263 40.026 68.7403 37.17 69.0203Z" fill="black"/>
<path d="M34.4023 16.8884C33.6465 17.1872 32.5391 18.1247 30.459 20.1931C27.6348 23.0115 26.3281 24.0486 24.3594 25.0329C23.3516 25.5368 22.2852 26.1814 22.2852 26.281C22.2852 26.4568 23.4863 26.1462 25.0098 25.5779C25.9824 25.2146 27.6113 24.5525 29.082 23.9255C29.9609 23.5505 31.1855 22.9177 31.0918 22.8884C31.0625 22.8767 30.4941 22.988 29.832 23.1345C29.1699 23.281 28.5898 23.3982 28.5488 23.3982C28.3672 23.3982 29.9551 22.1091 31.1035 21.3298C31.5078 21.0603 32.0937 20.5798 32.4805 20.2107C33.3359 19.3962 33.8516 19.0036 34.0684 19.0036C34.3848 19.0036 34.625 19.4958 34.959 20.82L35.041 21.1423L35.1113 20.8786C35.334 20.0407 35.4863 19.5368 35.5742 19.3611C35.709 19.0857 35.9375 18.9275 36.1191 18.9743C36.3301 19.0271 36.9336 19.4958 37.6895 20.2048C38.0586 20.5505 38.6387 21.0193 38.9785 21.2478C40.1035 21.9978 41.7383 23.2986 41.6562 23.3806C41.6328 23.4099 40.4316 23.1697 39.4941 22.947C39.2773 22.9001 39.084 22.8708 39.0664 22.8884C38.9668 22.9822 43.209 24.8513 45.1953 25.5837C46.2617 25.9822 47.2227 26.2634 47.627 26.3103C47.9609 26.3454 47.9727 26.3396 47.8906 26.24C47.7383 26.0525 47.0117 25.6189 46.0156 25.1208C44.1465 24.1833 42.834 23.1579 40.0684 20.4685C37.8652 18.324 36.7637 17.3865 35.9727 16.988C35.5156 16.7536 34.8359 16.7126 34.4023 16.8884Z" fill="white"/>
<path d="M27.207 17.7734C27.207 17.8027 27.248 17.832 27.2949 17.832C27.3418 17.832 27.3828 17.8027 27.3828 17.7734C27.3828 17.7383 27.3418 17.7148 27.2949 17.7148C27.248 17.7148 27.207 17.7383 27.207 17.7734Z" fill="white"/>
<path d="M52.4844 19.6777C52.4492 19.7656 52.5488 19.9414 52.6309 19.9414C52.7422 19.9414 52.877 19.7832 52.8359 19.6895C52.7891 19.5664 52.5313 19.5547 52.4844 19.6777Z" fill="white"/>
<path d="M26.1699 19.8011C26.082 20.0296 26.3926 20.1937 26.5215 19.9886C26.5684 19.9183 26.5625 19.8655 26.5098 19.8011C26.4102 19.678 26.2168 19.6839 26.1699 19.8011Z" fill="white"/>
<path d="M50.9434 20.5504C50.8965 20.609 50.9023 20.65 50.9609 20.7028C51.0606 20.7789 51.1719 20.7379 51.1719 20.6149C51.1719 20.5036 51.0137 20.4625 50.9434 20.5504Z" fill="white"/>
<path d="M23.8379 20.7617C23.8555 20.791 23.8965 20.8203 23.9316 20.8203C23.9609 20.8203 23.9844 20.791 23.9844 20.7617C23.9844 20.7266 23.9434 20.7031 23.8906 20.7031C23.8437 20.7031 23.8203 20.7266 23.8379 20.7617Z" fill="white"/>
<path d="M44.082 21.7754C45.2188 22.8945 46.5488 23.9668 48.7988 25.5781C49.1855 25.8535 49.625 26.1875 49.7773 26.3223C50.1055 26.6094 50.3164 27.0078 50.2578 27.2305C50.1699 27.5879 49.2559 27.8047 48.3418 27.6875C47.5039 27.582 47.123 27.4297 44.3281 26.0996C41.9375 24.9629 41.1992 24.7168 40.3613 24.7637C39.7168 24.7988 39.125 25.0098 38.1348 25.5605C36.4238 26.5156 35.9844 26.6855 35.1465 26.6855C34.8594 26.6914 34.4902 26.6562 34.3262 26.6211C33.9277 26.5215 33.2129 26.1816 32.1641 25.5957C30.9453 24.916 30.5234 24.7812 29.6973 24.7812C28.7539 24.7871 28.3965 24.9102 25.625 26.2227C22.7363 27.5938 22.4492 27.6934 21.3477 27.6992C20.668 27.7051 20.5918 27.6934 20.2813 27.5469C19.9531 27.3945 19.9414 27.3828 19.9414 27.166C19.9414 26.6914 20.0938 26.5566 22.3203 25.0273C24.0488 23.8379 24.6523 23.3926 25.4902 22.666C26.2051 22.0508 27.1895 21.0723 27.1426 21.0312C27.125 21.0137 26.9668 21.084 26.791 21.1953C26.6152 21.3008 25.6953 21.8516 24.7461 22.4141C21.1836 24.5352 18.8926 25.9883 18.2305 26.5566C17.9961 26.7559 17.9961 26.7617 18.0254 27.084C18.043 27.2656 18.1836 27.9805 18.3477 28.6719C18.5059 29.3633 18.6699 30.1074 18.7109 30.3301C18.8398 31.0508 18.9512 30.9512 19.25 29.8086C19.373 29.334 19.502 28.9121 19.5371 28.8652C19.6602 28.7246 19.9004 28.7891 21.0781 29.293C22.2559 29.7969 22.4609 29.9023 22.2676 29.9023C22.1797 29.9023 22.168 29.9375 22.2031 30.1191C22.7598 33.3477 23.4453 35.4805 24.8633 38.3633C25.4316 39.5176 25.918 40.3379 26.5098 41.1348C26.9434 41.7207 27.6523 42.4824 27.7109 42.4238C27.7285 42.4062 27.5938 42.0605 27.418 41.6504C26.9609 40.6191 26.8379 40.1445 26.8438 39.4531C26.8496 38.5449 27.1367 37.6836 27.7402 36.7637C27.9629 36.4297 28.0156 36.459 28.0215 36.916C28.0273 37.3086 28.1973 38.4863 28.3438 39.2188C28.6602 40.7422 29.627 43.2441 30.4883 44.7734C30.6523 45.0723 30.8047 45.3066 30.8223 45.2891C30.8398 45.2773 30.8223 44.8496 30.7871 44.3398C30.7051 43.1738 30.7051 42.5117 30.7871 41.9375C30.957 40.6895 31.3906 39.6289 32.0234 38.873C32.3984 38.4277 32.5801 38.2871 32.5156 38.4922C32.3105 39.1719 32.1992 41 32.2988 42.1191C32.4805 44.1406 33.1543 46.1973 33.9102 47.041L34.1738 47.334L34.1797 46.4316C34.1797 45.4297 34.291 44.5625 34.5078 43.8008C34.6602 43.2734 34.9883 42.5 35.0586 42.5C35.123 42.5 35.4453 43.2383 35.6035 43.7598C35.8262 44.4863 35.9375 45.248 35.9785 46.3262L36.0137 47.3105L36.1602 47.1758C36.5059 46.8535 36.9746 46.0273 37.25 45.2539C37.7188 43.959 37.8945 42.8164 37.8945 41.0938C37.8945 39.8281 37.8711 39.5117 37.6602 38.5156C37.6367 38.3984 37.7188 38.4629 38.0469 38.8027C38.75 39.5352 39.1836 40.5781 39.3418 41.9258C39.4062 42.4941 39.4004 43.1094 39.3008 44.7852L39.2715 45.3418L39.4824 45.0195C39.957 44.2988 41.0117 41.8848 41.4629 40.4785C41.7852 39.4707 42.1484 37.4844 42.1484 36.7227C42.1484 36.582 42.166 36.4648 42.1953 36.4648C42.2656 36.4648 42.6523 37.1035 42.9043 37.6367C43.2207 38.2988 43.3379 38.7793 43.3379 39.4238C43.332 40.127 43.209 40.6074 42.7637 41.5742C42.5586 42.0195 42.418 42.3828 42.4531 42.3828C42.6465 42.3828 43.7188 41.0703 44.3281 40.0859C44.6914 39.5 45.7109 37.4434 46.1211 36.4707C46.8711 34.707 47.4453 32.7617 47.8027 30.8223C47.9785 29.8438 47.9785 29.8203 47.8496 29.873C47.7793 29.8965 47.7617 29.8906 47.8027 29.8496C47.9082 29.7441 50.2227 28.7891 50.375 28.7891C50.5625 28.7891 50.6797 29.0059 50.9258 29.791C51.1309 30.459 51.2773 30.7578 51.3535 30.6816C51.3828 30.6523 51.5117 30.1426 51.6406 29.5449C52.1211 27.2715 52.1973 26.9727 52.2676 26.9727C52.4199 26.9727 52.332 26.8496 51.9512 26.5273C51.0781 25.8066 48.875 24.3594 45.3711 22.2148C44.5801 21.7285 43.7949 21.248 43.6309 21.1367C43.4609 21.0254 43.3027 20.9375 43.2793 20.9375C43.25 20.9375 43.6133 21.3184 44.082 21.7754ZM30.752 25.8008C31.3086 25.9414 31.5313 26.0703 32.2168 26.6445C32.5098 26.8906 32.9375 27.1895 33.1777 27.3066L33.6113 27.5293H35.0879H36.5645L37.0566 27.2832C37.332 27.1426 37.7715 26.8496 38.0469 26.6152C38.6562 26.1055 39.0898 25.877 39.6699 25.7656C40.2266 25.6602 40.6602 25.6602 41.2754 25.7715C41.8965 25.877 42.3008 26.0176 43.0801 26.3926C43.8711 26.7676 44.3691 27.0781 45.459 27.8691C45.9453 28.2207 46.5137 28.5957 46.7363 28.7012L47.1289 28.8945L46.8125 29.2695C46.6367 29.4688 46.3906 29.8203 46.2617 30.043L46.0273 30.4414L45.957 30.2188C45.7871 29.6855 45.377 28.918 45.1074 28.625C44.8496 28.3379 44.3867 27.9863 44.0293 27.7988C43.877 27.7109 43.8828 27.7402 44.1172 28.0566C44.627 28.7539 44.9961 30.1367 44.9551 31.1973C44.9316 31.6309 44.9023 31.748 44.709 32.1348C44.4453 32.6621 44.2168 32.9492 44.1523 32.8496C44.123 32.8086 44.0293 32.4102 43.9414 31.9707C43.6953 30.7285 43.3027 29.6797 42.7637 28.8125C42.4473 28.3086 41.9199 27.6523 41.8672 27.6992C41.8496 27.7168 41.8145 28.2207 41.791 28.8125C41.7266 30.4297 41.5215 31.332 40.9707 32.4336C40.6777 33.0195 40.2148 33.793 40.1797 33.752C40.168 33.7402 40.1855 33.4062 40.2148 33.002C40.332 31.4727 40.2559 29.6738 40.0391 28.8125C39.9043 28.2969 39.6406 27.7637 39.5117 27.7637C39.4062 27.7637 39.1836 28.4023 38.9316 29.457C38.75 30.207 38.0938 31.9766 37.7188 32.7148C37.4023 33.3418 37.0566 33.793 36.4824 34.3145L36.3066 34.4785L36.4707 33.834C36.7109 32.9023 36.7812 32.041 36.7402 30.4297C36.7109 29.0469 36.6641 28.7305 36.4941 28.7305C36.4414 28.7305 36.2773 28.8477 36.125 28.9883C35.6035 29.4688 35.3633 29.6094 35.0586 29.6094C34.7422 29.6094 34.5137 29.4746 34.0215 29.0176C33.8574 28.8594 33.6934 28.7305 33.6582 28.7305C33.623 28.7305 33.5469 28.8008 33.4941 28.8887C33.4004 29.0352 33.3887 29.2227 33.3887 30.8984C33.3887 32.8379 33.4238 33.2188 33.7051 34.1211C33.7695 34.3145 33.793 34.4727 33.7695 34.4727C33.6699 34.4727 32.873 33.5469 32.6445 33.1719C32.1348 32.3164 31.3906 30.3418 31.1035 29.082C30.8867 28.1445 30.7402 27.7168 30.6406 27.752C30.5293 27.7871 30.2656 28.332 30.1426 28.7891C29.9316 29.5801 29.8906 30.1777 29.9082 32.0117L29.9316 33.752L29.6855 33.3887C29.3457 32.8789 28.8887 31.9531 28.707 31.3965C28.4785 30.6875 28.373 29.9727 28.3438 28.9355C28.3145 27.9512 28.291 27.7344 28.2148 27.7344C28.1094 27.7344 27.377 28.7891 27.1309 29.2871C26.6387 30.2832 26.3926 31.0566 26.0938 32.5508C26.0586 32.7383 26.0117 32.8906 25.9883 32.8906C25.918 32.8848 25.584 32.4102 25.4316 32.0996C25.209 31.6543 25.1504 31.2207 25.2148 30.5586C25.332 29.4746 25.5898 28.6602 26.0117 28.0742C26.123 27.9102 26.2109 27.7695 26.1992 27.7637C26.1875 27.752 25.9883 27.8691 25.7598 28.0332C25.0156 28.5488 24.6758 29.0293 24.3359 30.043L24.1777 30.5059L23.9609 30.1016C23.8438 29.8789 23.6035 29.5273 23.4277 29.3164C23.252 29.1113 23.1055 28.9238 23.1055 28.9004C23.1055 28.8828 23.2227 28.8184 23.3691 28.7656C23.5156 28.707 23.9141 28.4609 24.2598 28.2148C26.123 26.8965 27.1484 26.3047 28.1445 25.9766C29.0703 25.666 29.9844 25.6074 30.752 25.8008Z" fill="white"/>
<path d="M22.9297 21.1135C22.7891 21.2542 22.7832 21.3362 22.9063 21.512C23.0117 21.6643 23.1992 21.676 23.3867 21.5471C23.5273 21.4534 23.5508 21.2893 23.457 21.1077C23.375 20.9612 23.082 20.9612 22.9297 21.1135Z" fill="white"/>
<path d="M20.2578 21.5289C20.2109 21.6109 20.3223 21.7223 20.4043 21.6754C20.498 21.6168 20.4805 21.4645 20.3867 21.4645C20.3398 21.4645 20.2813 21.4938 20.2578 21.5289Z" fill="white"/>
<path d="M18.5352 22.1094C18.5352 22.1387 18.5762 22.168 18.623 22.168C18.6699 22.168 18.7109 22.1387 18.7109 22.1094C18.7109 22.0742 18.6699 22.0508 18.623 22.0508C18.5762 22.0508 18.5352 22.0742 18.5352 22.1094Z" fill="white"/>
<path d="M19.8828 22.2852C19.8828 22.3145 19.9121 22.3438 19.9414 22.3438C19.9766 22.3438 20 22.3145 20 22.2852C20 22.25 19.9766 22.2266 19.9414 22.2266C19.9121 22.2266 19.8828 22.25 19.8828 22.2852Z" fill="white"/>
<path d="M21.6992 22.3438C21.6992 22.373 21.7402 22.4023 21.7871 22.4023C21.834 22.4023 21.875 22.373 21.875 22.3438C21.875 22.3086 21.834 22.2852 21.7871 22.2852C21.7402 22.2852 21.6992 22.3086 21.6992 22.3438Z" fill="white"/>
<path d="M48.3008 22.3734C48.3008 22.432 48.3418 22.4613 48.4062 22.4496C48.5293 22.4262 48.5176 22.3207 48.3945 22.2973C48.3359 22.2855 48.3008 22.3148 48.3008 22.3734Z" fill="white"/>
<path d="M19.6484 22.5781C19.6484 22.6074 19.6777 22.6367 19.707 22.6367C19.7422 22.6367 19.7656 22.6074 19.7656 22.5781C19.7656 22.543 19.7422 22.5195 19.707 22.5195C19.6777 22.5195 19.6484 22.543 19.6484 22.5781Z" fill="white"/>
<path d="M20.1758 22.8125C20.1758 22.8418 20.2051 22.8711 20.2402 22.8711C20.2695 22.8711 20.2812 22.8418 20.2637 22.8125C20.2461 22.7773 20.2168 22.7539 20.1992 22.7539C20.1875 22.7539 20.1758 22.7773 20.1758 22.8125Z" fill="white"/>
<path d="M20.9668 22.8711C20.9844 22.9004 21.0137 22.9297 21.0313 22.9297C21.043 22.9297 21.0547 22.9004 21.0547 22.8711C21.0547 22.8359 21.0254 22.8125 20.9902 22.8125C20.9609 22.8125 20.9492 22.8359 20.9668 22.8711Z" fill="white"/>
<path d="M21.3477 22.9297C21.3477 22.959 21.4121 22.9883 21.4883 22.9883C21.5703 22.9883 21.6523 22.959 21.6699 22.9297C21.6934 22.8945 21.6289 22.8711 21.5293 22.8711C21.4297 22.8711 21.3477 22.8945 21.3477 22.9297Z" fill="white"/>
<path d="M19.4492 23.0234C19.3965 23.1641 19.4082 23.2227 19.4961 23.2227C19.5898 23.2227 19.666 23.0645 19.6133 22.9824C19.5664 22.9004 19.4902 22.918 19.4492 23.0234Z" fill="white"/>
<path d="M50.3574 23.604L50.1816 23.8677L50.375 24.0142C50.6152 24.1958 50.7031 24.1958 50.9023 24.0142C51.1777 23.7563 51.0488 23.3403 50.6855 23.3403C50.5742 23.3403 50.4922 23.4048 50.3574 23.604Z" fill="white"/>
<path d="M18.4004 23.7913C18.377 23.8088 18.3594 23.8791 18.3594 23.9377C18.3594 24.1018 18.5586 24.0491 18.582 23.8791C18.5996 23.7561 18.4883 23.6975 18.4004 23.7913Z" fill="white"/>
<path d="M52.0215 25.9766C51.9805 26.0469 52.0918 26.2109 52.1797 26.2109C52.2734 26.2109 52.3027 26.0234 52.2207 25.9707C52.1152 25.9004 52.0684 25.9062 52.0215 25.9766Z" fill="white"/>
<path d="M15.1719 26.0881C15.1484 26.1174 15.1602 26.1584 15.1895 26.176C15.2188 26.1994 15.2598 26.1877 15.2773 26.1584C15.3008 26.1291 15.2891 26.0881 15.2598 26.0705C15.2305 26.0471 15.1895 26.0588 15.1719 26.0881Z" fill="white"/>
<path d="M52.6191 26.1343C52.5137 26.2339 52.6016 26.4448 52.8477 26.6792C53.1055 26.937 53.1172 26.937 53.1992 26.8257C53.3164 26.6675 53.2578 26.4507 53.041 26.2515C52.877 26.0991 52.7012 26.0523 52.6191 26.1343Z" fill="white"/>
<path d="M53.5215 27.6758C53.4277 27.7285 53.4863 27.8516 53.6094 27.8516C53.6973 27.8516 53.7266 27.7051 53.6445 27.6523C53.6211 27.6406 53.5625 27.6465 53.5215 27.6758Z" fill="white"/>
<path d="M53.1055 28.291C53.1055 28.3379 53.1582 28.3789 53.2227 28.3789C53.2871 28.3789 53.3398 28.3379 53.3398 28.291C53.3398 28.2441 53.2871 28.2031 53.2227 28.2031C53.1582 28.2031 53.1055 28.2441 53.1055 28.291Z" fill="white"/>
<path d="M16.6426 28.7715C16.5606 28.8477 16.6074 28.9648 16.7129 28.9648C16.8594 28.9648 16.9356 28.8477 16.8301 28.7832C16.7305 28.7188 16.6895 28.7188 16.6426 28.7715Z" fill="white"/>
<path d="M15.3711 29.0117C15.1484 29.0879 15.2129 29.375 15.4531 29.375C15.6055 29.375 15.752 29.2344 15.6934 29.1406C15.6348 29.0469 15.4648 28.9766 15.3711 29.0117Z" fill="white"/>
<path d="M52.8008 29.2055C52.7422 29.2348 52.6953 29.311 52.6953 29.3696C52.6953 29.6215 53.1406 29.7504 53.334 29.5571C53.4746 29.4164 53.4453 29.2993 53.2461 29.2055C53.0703 29.1293 52.9355 29.1235 52.8008 29.2055Z" fill="white"/>
<path d="M17.4922 30.6174C17.3984 30.7111 17.4043 30.8107 17.498 30.8928C17.6094 30.9807 17.791 30.84 17.7617 30.6877C17.7383 30.5529 17.5918 30.5178 17.4922 30.6174Z" fill="white"/>
<path d="M21.3125 30.9866C21.2891 31.0393 21.3008 31.1096 21.3359 31.1448C21.4238 31.2326 21.5938 31.1506 21.5703 31.0334C21.5469 30.8987 21.3594 30.8635 21.3125 30.9866Z" fill="white"/>
<path d="M52.7715 31.1678C52.7305 31.2791 52.7832 31.3319 52.9004 31.2908C53.0117 31.244 53.0117 31.1561 52.9004 31.1092C52.8477 31.0916 52.7949 31.1151 52.7715 31.1678Z" fill="white"/>
<path d="M18.0371 31.4255C18.0605 31.4607 18.1016 31.4724 18.1309 31.4548C18.2129 31.4021 18.1953 31.3669 18.0898 31.3669C18.043 31.3669 18.0195 31.3962 18.0371 31.4255Z" fill="white"/>
<path d="M51.4062 31.6371C51.4062 31.6898 51.4355 31.7191 51.4766 31.7074C51.582 31.6722 51.5996 31.5433 51.5 31.5433C51.4473 31.5433 51.4062 31.5843 51.4062 31.6371Z" fill="white"/>
<path d="M21.6113 32.5684C21.5527 32.6973 21.459 33.1426 21.4004 33.5645C21.2656 34.4961 21.084 35.0938 20.6387 36.0957C20.4512 36.5176 20.293 36.9043 20.293 36.957C20.293 37.0801 20.498 37.0039 21.1191 36.6406C21.3887 36.4766 21.6641 36.3535 21.7227 36.3594C21.8984 36.3828 21.9453 36.6641 21.8633 37.2266C21.7871 37.7773 21.7812 37.9941 21.8457 38.2402C21.8984 38.4453 21.793 38.5684 21.3652 38.8145C21.1953 38.9141 21.0547 39.0254 21.0547 39.0605C21.0547 39.1016 21.0371 39.1895 21.0195 39.2598C20.9961 39.3477 21.0078 39.3945 21.0547 39.3945C21.0957 39.3945 21.1133 39.3535 21.0898 39.3066C21.0078 39.084 21.3066 39.3652 21.6113 39.793L21.9277 40.2441L21.9336 40.7188C21.9336 41.0762 21.9102 41.2168 21.8457 41.2695C21.752 41.3457 21.7227 41.6797 21.8105 41.6797C21.8691 41.6797 21.8457 42.0195 21.7344 42.8223L21.6699 43.291H21.4648C21.2129 43.291 21.1895 43.4316 21.4238 43.543C21.6172 43.6367 21.6172 43.6719 21.4473 44.3457C21.3359 44.7852 21.2891 44.8789 21.1895 44.8906C20.9316 44.9258 20.8672 45.1953 21.1133 45.1953C21.2012 45.1953 21.2129 45.2246 21.1777 45.3477C21.1484 45.4707 21.0957 45.5059 20.9375 45.5176C20.709 45.5352 20.4102 45.8223 20.4102 46.0215C20.4102 46.1504 20.6738 46.4258 20.8027 46.4258C20.8965 46.4258 20.8848 46.502 20.6094 47.3984C20.498 47.7559 20.4102 48.1016 20.4102 48.166C20.4102 48.2598 20.3809 48.2832 20.2988 48.2598C20.1699 48.2246 19.9414 48.4238 19.9414 48.5703C19.9414 48.7402 20.0645 48.8867 20.2051 48.8867C20.3809 48.8867 20.5098 48.7578 20.5566 48.5234C20.5801 48.418 20.6445 48.2656 20.6973 48.1836C20.75 48.1016 20.8262 47.9844 20.8555 47.9199C20.8906 47.8555 20.9844 47.791 21.0605 47.7734C21.1602 47.75 21.2598 47.627 21.4004 47.3516C21.5879 46.9824 21.5938 46.9648 21.4941 46.8184C21.377 46.6367 21.3066 46.7949 22.1973 45.1777C22.8242 44.041 22.8359 44.0176 23 44.0527C23.0879 44.0762 23.2168 44.0703 23.2871 44.0527C23.3926 44.0176 23.4043 43.9824 23.375 43.7832C23.3398 43.5781 23.3516 43.5547 23.457 43.5547C23.627 43.5547 23.8438 43.7891 23.9316 44.0586C23.9844 44.2227 24.0137 44.9961 24.0371 46.7188C24.0723 49.0039 24.0781 49.1387 24.166 48.9746C24.2188 48.875 24.3066 48.6406 24.3652 48.4473C24.6113 47.5742 25.1211 45.9688 25.1973 45.8223C25.2969 45.623 25.625 45.4707 25.8359 45.5234C25.918 45.5469 26.0352 45.6465 26.0996 45.7461C26.3105 46.0918 26.2402 46.5488 25.7129 48.2012C25.5605 48.6758 25.4492 49.0918 25.4609 49.127C25.4727 49.168 25.7188 48.9746 26.0059 48.7109C27.4648 47.3574 27.8516 47.1992 28.1738 47.832C28.5078 48.4941 28.8184 50.0879 28.7773 50.9492C28.748 51.5293 28.7715 51.5176 29.0352 50.7969C29.2344 50.2578 29.3984 49.9648 29.5508 49.8828C29.7031 49.8008 29.9434 49.8125 30.125 49.9063C30.2949 50 30.9863 50.6914 31.6484 51.4414L32.0645 51.916L33.2246 52.4316C33.8633 52.7188 34.6309 53.0645 34.9297 53.2109L35.4746 53.4746L35.9375 54.125C36.1953 54.4824 36.4648 54.8398 36.5469 54.916L36.6934 55.0566L36.7227 54.916C36.7402 54.8398 36.834 54.3418 36.9336 53.8086C37.1621 52.6133 37.3145 51.9805 37.4668 51.6934C37.5957 51.4355 37.7715 51.3301 38.5039 51.084C39.125 50.8672 39.377 50.6563 39.6816 50.0703C39.9922 49.4609 40.5723 48.9219 40.666 49.1504C40.7012 49.2441 40.6543 50.293 40.5898 50.8203L40.5605 51.084L40.7129 50.7617C40.7949 50.5859 41.0117 50.0762 41.1875 49.6191C41.8203 48.0254 42.125 47.5391 42.4883 47.5391C42.7871 47.5391 43.1562 47.791 43.8535 48.4824C44.4805 49.1035 44.668 49.2559 44.668 49.1445C44.668 49.1152 44.2285 47.6738 44.0879 47.2285C44.041 47.0996 44.0527 47.0586 44.1465 47.0117C44.3164 46.918 44.2812 46.7305 44.082 46.6133C43.9238 46.5254 43.9062 46.4844 43.9062 46.2207C43.9062 45.8633 44.0586 45.541 44.2754 45.4414C44.416 45.3711 44.4629 45.377 44.5801 45.4531C44.8027 45.5996 44.9668 45.9863 45.4883 47.5801C45.752 48.3945 45.9922 49.0625 46.0273 49.0625C46.0684 49.0625 46.0801 48.3418 46.0684 46.8359C46.0449 44.6797 46.0508 44.6094 46.1621 44.5273C46.2734 44.4453 46.2734 44.4395 46.1738 44.3281C46.0156 44.1523 46.1504 43.6543 46.3789 43.5957C46.5312 43.5547 46.9004 43.707 47.0293 43.8652C47.3223 44.2227 48.2422 46.2324 48.541 47.1758L48.6758 47.5977L48.5469 47.6914C48.3184 47.8496 48.3887 48.5 48.6465 48.6113C48.8633 48.7109 49.0098 48.8984 48.9746 49.0391C48.9629 49.1094 48.9688 49.1797 48.9922 49.2031C49.0156 49.2266 49.0859 49.4082 49.1504 49.6074C49.2266 49.8418 49.2969 49.9707 49.3555 49.9707C49.4785 49.9707 49.502 49.5371 49.4082 49.1211C49.3672 48.9453 49.3262 48.7168 49.3203 48.623C49.3027 48.4297 49.1445 47.4805 48.7754 45.3711C48.5762 44.2109 48.3301 42.4355 48.3066 42.002C48.3066 41.9375 48.2832 41.6504 48.2539 41.3691C48.2129 40.9355 48.2246 40.8418 48.3008 40.7715C48.459 40.6309 49.0449 40.3848 49.4199 40.3086L49.7832 40.2383L49.6133 40.1152C49.5195 40.0508 49.2676 39.916 49.0449 39.8164C48.459 39.5469 48.4297 39.4004 48.8574 38.7734C49.0684 38.4629 49.0449 38.3281 48.7109 37.9648C48.3242 37.5371 48.2305 37.332 48.1953 36.875C48.1777 36.5762 48.1895 36.4766 48.2598 36.418C48.3711 36.3242 48.4824 36.377 49.1621 36.8164C49.6309 37.127 49.8242 37.1797 49.8242 37.0039C49.8242 36.9453 49.6426 36.5293 49.4199 36.0781C48.9336 35.0996 48.7461 34.5195 48.6348 33.6699C48.5879 33.3242 48.5059 32.9316 48.4473 32.8027L48.3418 32.5684L48.2656 33.0664C48.2246 33.3418 48.0078 34.3086 47.7793 35.2109C47.2988 37.1387 47.2109 37.8066 47.1465 39.8047C47.1172 40.8184 47.0938 41.1172 47.0527 40.9473C46.9062 40.2676 46.6953 39.623 46.5254 39.3477C46.4258 39.1836 46.3203 39.043 46.2969 39.043C46.2734 39.043 46.25 39.1602 46.25 39.3008C46.25 40.0742 45.3301 41.8555 44.9316 41.8555C44.873 41.8555 44.7383 41.7617 44.6328 41.6504L44.4395 41.4453L43.9883 41.9551C43.7422 42.2422 43.0215 43.0918 42.3887 43.8477C41.7617 44.6035 41.2051 45.2598 41.1523 45.3008C41.0996 45.3418 40.9883 45.3594 40.877 45.3418C40.7012 45.3125 40.6543 45.3535 39.5293 46.6426C37.9707 48.4238 37.7188 48.6699 37.1387 48.9453C35.9609 49.5195 34.6367 49.5723 33.3477 49.1035C32.5039 48.7988 32.1641 48.4941 30.4707 46.5137C29.498 45.377 29.4629 45.3418 29.2695 45.3594C29.0176 45.3828 28.9941 45.3594 28.1211 44.3164C27.7344 43.8477 27.0371 43.0156 26.5684 42.4707C26.1055 41.9199 25.7129 41.4629 25.707 41.4512C25.6953 41.4395 25.6074 41.5273 25.5078 41.6445C25.2559 41.9316 25.1035 41.9199 24.8164 41.5918C24.3184 41.0234 23.832 39.8047 23.8789 39.2363L23.8965 38.9727L23.7383 39.1602C23.5215 39.4238 23.3633 39.834 23.1992 40.5664L23.0645 41.1816L23.0234 40.2441C22.918 37.7832 22.8184 37.0566 22.25 34.7949C22.0098 33.8281 21.793 32.8789 21.7637 32.6855L21.7168 32.334L21.6113 32.5684Z" fill="white"/>
<path d="M49.6016 32.727C49.6367 32.8325 49.7656 32.8501 49.7656 32.7505C49.7656 32.6977 49.7246 32.6567 49.6719 32.6567C49.6191 32.6567 49.5898 32.686 49.6016 32.727Z" fill="white"/>
<path d="M49.5137 34.391C49.4316 34.4789 49.4727 34.7016 49.584 34.7368C49.7656 34.7953 49.8887 34.7075 49.8711 34.5375C49.8594 34.4262 49.8184 34.3793 49.707 34.3676C49.625 34.3559 49.5371 34.3676 49.5137 34.391Z" fill="white"/>
<path d="M50.4102 35.3578C50.4102 35.4222 50.4395 35.4574 50.4688 35.4398C50.5039 35.4222 50.5273 35.3637 50.5273 35.3168C50.5273 35.2699 50.5039 35.2347 50.4688 35.2347C50.4395 35.2347 50.4102 35.2875 50.4102 35.3578Z" fill="white"/>
<path d="M50.4336 36.0199C50.3867 36.1429 50.4277 36.307 50.5098 36.3304C50.5977 36.3597 50.7207 36.1312 50.6797 36.0199C50.6387 35.9144 50.4746 35.9144 50.4336 36.0199Z" fill="white"/>
<path d="M51.1426 36.5234C51.125 36.5527 51.1367 36.582 51.166 36.582C51.2012 36.582 51.2305 36.5527 51.2305 36.5234C51.2305 36.4883 51.2187 36.4648 51.207 36.4648C51.1894 36.4648 51.1602 36.4883 51.1426 36.5234Z" fill="white"/>
<path d="M52.6191 37.4312C52.5723 37.5367 52.6836 37.6129 52.7656 37.5308C52.8301 37.4664 52.7832 37.3433 52.6953 37.3433C52.6719 37.3433 52.6367 37.3843 52.6191 37.4312Z" fill="white"/>
<path d="M53.8379 38.8086C53.8555 38.8379 53.8848 38.8672 53.9023 38.8672C53.9141 38.8672 53.9258 38.8379 53.9258 38.8086C53.9258 38.7734 53.8965 38.75 53.8613 38.75C53.832 38.75 53.8203 38.7734 53.8379 38.8086Z" fill="white"/>
<path d="M20.7031 40.1858C20.6621 40.2327 20.6445 40.3147 20.668 40.3675C20.7207 40.5022 21.0781 40.4553 21.1016 40.3089C21.1426 40.1155 20.8379 40.0217 20.7031 40.1858Z" fill="white"/>
<path d="M21.2891 40.8594C21.2891 40.8887 21.3184 40.918 21.3477 40.918C21.3828 40.918 21.4062 40.8887 21.4062 40.8594C21.4062 40.8242 21.3828 40.8008 21.3477 40.8008C21.3184 40.8008 21.2891 40.8242 21.2891 40.8594Z" fill="white"/>
<path d="M49.3145 42.2715C49.0215 42.3535 49.0801 42.418 49.4434 42.418C49.7012 42.4121 49.7656 42.3945 49.7539 42.3242C49.7305 42.2188 49.5664 42.1953 49.3145 42.2715Z" fill="white"/>
<path d="M50.1758 42.9102C50.1758 42.9395 50.2051 42.9688 50.2344 42.9688C50.2695 42.9688 50.293 42.9395 50.293 42.9102C50.293 42.875 50.2695 42.8516 50.2344 42.8516C50.2051 42.8516 50.1758 42.875 50.1758 42.9102Z" fill="white"/>
<path d="M49.1797 43.0331C49.1797 43.1327 49.2031 43.1503 49.3145 43.121C49.3848 43.1034 49.5078 43.0858 49.584 43.0858C49.7012 43.0858 49.707 43.0741 49.6484 42.9979C49.6074 42.9511 49.4844 42.91 49.3789 42.91C49.2148 42.91 49.1797 42.9335 49.1797 43.0331Z" fill="white"/>
<path d="M50.8906 43.6543C50.9023 43.7129 50.9492 43.7598 50.9961 43.7598C51.043 43.7598 51.0898 43.7129 51.1016 43.6543C51.1133 43.584 51.084 43.5547 50.9961 43.5547C50.9082 43.5547 50.8789 43.584 50.8906 43.6543Z" fill="white"/>
<path d="M50.2637 43.9004C50.2285 43.9649 50.3164 44.0352 50.375 43.9825C50.4277 43.9297 50.416 43.8477 50.3574 43.8477C50.3223 43.8477 50.2871 43.8712 50.2637 43.9004Z" fill="white"/>
<path d="M21.1895 44.1816C21.084 44.2168 21.0957 44.375 21.1953 44.375C21.3066 44.375 21.377 44.2637 21.3125 44.1992C21.2832 44.1758 21.2246 44.1699 21.1895 44.1816Z" fill="white"/>
<path d="M23.4395 44.2695C23.3516 44.3398 23.3457 44.3633 23.416 44.457C23.5273 44.6035 23.709 44.539 23.6797 44.3633C23.6563 44.2051 23.5742 44.1758 23.4395 44.2695Z" fill="white"/>
<path d="M49.8066 44.5271C49.7422 44.6033 49.6484 44.6677 49.6074 44.6677C49.5547 44.6677 49.5312 44.7498 49.5312 44.9021C49.5312 45.0838 49.5605 45.1541 49.6777 45.2302C49.8711 45.3591 50.1641 45.2888 50.2344 45.1013C50.2695 45.0193 50.3398 44.9607 50.4102 44.9607C50.5625 44.9607 50.5566 44.9138 50.3809 44.6619C50.1992 44.3865 49.9766 44.3338 49.8066 44.5271Z" fill="white"/>
<path d="M23.6035 45.5469C23.5449 45.6465 23.6328 45.8398 23.7441 45.8398C23.9023 45.8398 23.9902 45.7227 23.9199 45.5938C23.8613 45.4824 23.6621 45.4531 23.6035 45.5469Z" fill="white"/>
<path d="M23.7559 46.2264C23.7559 46.2909 23.7734 46.3085 23.791 46.2616C23.8086 46.2206 23.8027 46.1679 23.7852 46.1503C23.7676 46.1268 23.75 46.162 23.7559 46.2264Z" fill="white"/>
<path d="M25.0977 46.2207C25.0977 46.2676 25.1387 46.3086 25.1855 46.3086C25.2324 46.3086 25.2734 46.2852 25.2734 46.2559C25.2734 46.2266 25.2324 46.1914 25.1855 46.168C25.1328 46.1504 25.0977 46.168 25.0977 46.2207Z" fill="white"/>
<path d="M20.293 46.7771C20.293 46.9587 20.3926 47.0056 20.5156 46.8826C20.6445 46.7537 20.5977 46.6013 20.4395 46.6013C20.3164 46.6013 20.293 46.6306 20.293 46.7771Z" fill="white"/>
<path d="M25.8418 46.7534C25.8184 46.7769 25.8008 46.8355 25.8008 46.8882C25.8008 46.9526 25.8184 46.9585 25.8652 46.9116C25.9004 46.8765 25.9238 46.8179 25.9062 46.7769C25.8945 46.7417 25.8652 46.73 25.8418 46.7534Z" fill="white"/>
<path d="M44.7383 47.0176C44.75 47.0527 44.7852 47.0762 44.8145 47.0762C44.8437 47.0762 44.8789 47.0527 44.8906 47.0176C44.9023 46.9824 44.8672 46.9531 44.8145 46.9531C44.7617 46.9531 44.7266 46.9824 44.7383 47.0176Z" fill="white"/>
<path d="M22.9121 47.9262C22.8887 47.9496 22.8887 47.9848 22.9063 48.0141C22.9414 48.0727 23.1055 48.0141 23.1055 47.9438C23.1055 47.8852 22.9648 47.8735 22.9121 47.9262Z" fill="white"/>
<path d="M26.4512 48.6753C26.4102 48.7222 26.3867 48.8335 26.3984 48.9273C26.4219 49.1499 26.6563 49.191 26.7324 48.9859C26.8496 48.687 26.6328 48.4585 26.4512 48.6753Z" fill="white"/>
<path d="M20.8789 49.0973C20.8789 49.1793 20.8965 49.1793 20.9668 49.1207C21.0137 49.0797 21.0547 49.0387 21.0547 49.027C21.0547 49.0153 21.0137 49.0035 20.9668 49.0035C20.9199 49.0035 20.8789 49.0446 20.8789 49.0973Z" fill="white"/>
<path d="M19.3613 49.3201C19.3145 49.3787 19.2969 49.4724 19.3203 49.5603C19.3555 49.6892 19.3906 49.7126 19.543 49.6951C19.7656 49.6716 19.8828 49.5193 19.7891 49.3669C19.707 49.238 19.4551 49.2087 19.3613 49.3201Z" fill="white"/>
<path d="M41.832 49.5076C41.7031 49.6365 41.7148 49.8005 41.8672 49.906C42.2363 50.1638 42.6582 49.8591 42.3535 49.5544C42.1895 49.3962 41.9668 49.3728 41.832 49.5076Z" fill="white"/>
<path d="M43.3672 49.5371C43.1445 49.666 43.3027 50.0586 43.5781 50.0586C43.8359 50.0586 43.9473 49.7539 43.7539 49.5664C43.6484 49.4609 43.5137 49.4492 43.3672 49.5371Z" fill="white"/>
<path d="M43.6836 50.8906C43.7246 51.002 43.9063 51.0195 43.9063 50.9141C43.9063 50.8555 43.8535 50.8203 43.7832 50.8203C43.7129 50.8203 43.6719 50.8496 43.6836 50.8906Z" fill="white"/>
<path d="M43.1387 51.1716C43.0742 51.2126 43.0742 51.2536 43.1211 51.3298C43.2031 51.4646 43.4023 51.4646 43.4258 51.3357C43.4492 51.2126 43.2559 51.1013 43.1387 51.1716Z" fill="white"/>
<path d="M26.0469 51.441C25.9414 51.5113 25.918 51.5816 25.9297 51.7457C25.9473 51.9332 25.9707 51.9625 26.0996 51.9801C26.3984 52.0152 26.5625 51.6461 26.3398 51.4469C26.2051 51.3238 26.2109 51.3238 26.0469 51.441Z" fill="white"/>
<path d="M45.6172 51.8867C45.6289 51.957 45.6758 52.0215 45.7227 52.0215C45.8516 52.0215 45.834 51.793 45.7051 51.7695C45.6172 51.752 45.5996 51.7754 45.6172 51.8867Z" fill="white"/>
<path d="M43.2148 52.0625C43.2266 52.1328 43.2734 52.1973 43.3203 52.1973C43.4492 52.1973 43.4316 51.9688 43.3027 51.9453C43.2148 51.9277 43.1973 51.9512 43.2148 52.0625Z" fill="white"/>
<path d="M45.9277 53.1293C45.8105 53.2172 45.8281 53.3872 45.9688 53.4751C46.0391 53.5219 46.0918 53.5161 46.1563 53.4633C46.3672 53.2876 46.1504 52.9653 45.9277 53.1293Z" fill="white"/>
</g>
<defs>
<clipPath id="clip0_643_917">
<rect width="70" height="70" fill="white"/>
</clipPath>
</defs>
</svg>
