<svg width="70" height="70" viewBox="0 0 70 70" fill="none" xmlns="http://www.w3.org/2000/svg">
<g clip-path="url(#clip0_320_659)" filter="url(#filter0_i_320_659)">
<path d="M31.192 0.168003C30.912 0.392003 31.01 1.316 31.304 1.204C31.402 1.162 31.71 1.092 31.976 1.036C32.62 0.924003 32.69 0.784003 32.382 0.350003C32.102 -0.0279964 31.556 -0.111997 31.192 0.168003Z" fill="black"/>
<path d="M38.7379 0.826019C38.5139 0.966019 38.0799 1.13402 37.7579 1.19002C37.2819 1.27402 37.2259 1.30202 37.4499 1.40002C37.7159 1.49802 37.7019 1.51202 37.3799 1.58202C37.1839 1.62402 36.6939 1.70802 36.2739 1.75002C35.5879 1.83401 35.4899 1.80602 35.2239 1.48402C35.0559 1.30202 34.7059 1.10602 34.4399 1.05002C34.0339 0.966019 33.9779 0.980019 34.1319 1.13402C34.6219 1.65202 33.9499 1.89001 33.3199 1.40002C32.9839 1.14802 32.9699 1.14802 32.6899 1.40002C32.4659 1.59602 32.0179 1.69402 30.5619 1.80602C29.5539 1.90401 28.4199 2.05801 28.0419 2.17001C27.1179 2.45001 27.1039 2.42201 27.9719 2.03001C28.4059 1.83401 28.6999 1.61002 28.6999 1.47002C28.6999 1.23202 28.6019 1.19002 27.8319 1.05002C27.3419 0.980019 27.2999 0.994019 27.2999 1.31602C27.2999 1.55402 27.1459 1.76402 26.8519 1.97401C26.5999 2.14201 26.3619 2.31001 26.3339 2.33801C26.3059 2.35201 26.3619 2.63202 26.4599 2.95402C26.6279 3.45802 26.6979 3.51402 27.0339 3.47202C27.2579 3.43002 27.3839 3.47202 27.3419 3.54202C27.1879 3.80801 26.3059 4.06001 25.5919 4.06001C24.8639 4.04601 24.8499 4.04601 25.2699 3.86401L25.6899 3.68201L25.1719 3.43002C24.7379 3.22002 24.5839 3.20602 24.2759 3.34602C23.8419 3.54202 23.6879 3.45802 23.9399 3.15002C24.0379 3.02402 24.0939 2.91202 24.0659 2.88402C23.9959 2.82802 20.4679 3.85001 18.7599 4.41002C17.1219 4.94202 15.0639 6.02002 14.1679 6.80402C13.4259 7.44801 13.3839 7.63002 13.9299 7.72802C14.0839 7.75602 14.2099 7.84002 14.2099 7.91002C14.2239 7.99401 14.2799 8.20401 14.3359 8.38601L14.4479 8.72202L14.6299 8.28801C14.8539 7.77002 15.2459 7.50401 16.3099 7.12601C17.1779 6.81802 17.3879 6.86002 17.0379 7.23801C16.7859 7.53201 16.3239 8.66602 16.1699 9.38001L16.0719 9.87001L16.4919 9.31001C16.7159 9.00201 17.2899 8.38601 17.7659 7.95201C18.4799 7.28001 18.6199 7.07001 18.6339 6.65002C18.6479 6.38401 18.6619 6.07602 18.6759 5.97801C18.7039 5.57201 19.6699 5.30602 19.9919 5.62801C20.1179 5.75401 20.0059 5.95001 19.5299 6.45401C19.1799 6.83202 18.8999 7.23801 18.8999 7.36401C18.8999 7.53201 19.0679 7.42001 19.4599 7.00002C19.9219 6.49601 20.0619 6.42601 20.3839 6.49601C20.8039 6.60801 21.2799 6.32801 20.9719 6.14602C20.8739 6.09002 20.8319 6.00602 20.8599 5.97801C21.1679 5.74001 23.0859 4.62002 23.2119 4.62002C23.4499 4.62002 23.5619 5.20802 23.3939 5.61401C23.3239 5.82401 23.0159 6.10402 22.7219 6.25801C22.4279 6.41201 21.6999 6.79002 21.0979 7.11201C20.2439 7.57402 19.8659 7.70002 19.3199 7.70002C18.7319 7.70002 18.6199 7.74202 18.6199 7.96601C18.6199 8.10601 18.7179 8.30201 18.8299 8.40001C18.9419 8.49802 19.0399 8.65202 19.0399 8.76402C19.0399 9.04401 18.3259 9.49202 17.5559 9.67402C17.1779 9.77201 16.3799 10.08 15.7919 10.388C15.0219 10.766 14.6999 10.864 14.6999 10.724C14.6999 10.626 14.8539 10.108 15.0639 9.59002C15.2599 9.05801 15.3999 8.47001 15.3719 8.27401C15.3019 7.68602 14.9379 7.84002 14.6999 8.56802C14.5319 9.11401 14.4479 9.21201 14.2099 9.15601C14.0559 9.11401 13.6919 9.18401 13.3979 9.31001C13.1179 9.42202 12.8799 9.47802 12.8799 9.42202C12.8799 9.36601 13.1179 9.07201 13.3979 8.76402L13.9299 8.21801L13.0899 8.80602C12.6279 9.14201 11.6899 9.78601 10.9899 10.262C9.77195 11.088 8.11995 12.586 8.11995 12.838C8.11995 12.908 8.30195 12.95 8.53995 12.908C9.15595 12.824 9.08595 13.118 8.18995 14.21C7.76995 14.714 7.41995 15.176 7.41995 15.204C7.41995 15.33 7.57395 15.246 8.03595 14.84C8.31595 14.588 8.55395 14.476 8.60995 14.546C8.65195 14.63 7.95195 15.428 7.05595 16.31C5.44595 17.92 5.43195 17.948 5.52995 18.452C5.64195 19.04 5.87995 19.39 5.87995 18.956C5.87995 18.144 6.49595 16.8 6.87395 16.8C7.08395 16.8 7.01395 17.248 6.49595 19.264C6.21595 20.342 5.94995 21.714 5.89395 22.33L5.80995 23.45L5.29195 22.61C4.99795 22.148 4.75995 21.868 4.75995 21.994C4.75995 22.12 4.40995 22.652 3.98995 23.17C3.56995 23.674 3.21995 24.122 3.21995 24.15C3.21995 24.164 3.12195 24.416 3.00995 24.696C2.89795 24.976 2.82795 25.2 2.85595 25.2C2.88395 25.2 3.12195 24.878 3.37395 24.472L3.83595 23.758L4.01795 24.164C4.26995 24.752 4.24195 25.228 3.84995 27.3C3.49995 29.19 3.42995 30.366 3.63995 30.87C3.75195 31.122 3.76595 31.122 3.76595 30.786C3.77995 30.338 4.10195 29.89 4.31195 30.016C4.52195 30.142 4.52195 30.996 4.32595 31.906C4.11595 32.9 3.86395 33.012 3.94795 32.06L4.01795 31.332L3.55595 31.402C2.99595 31.5 2.99595 31.486 2.85595 29.61C2.81395 28.84 2.71595 28.07 2.64595 27.888C2.46395 27.412 2.12795 27.51 2.01595 28.07C1.88995 28.784 2.04395 29.666 2.65995 31.57C3.26195 33.446 3.45795 34.3 3.26195 34.3C3.19195 34.3 2.93995 34.034 2.68795 33.712C2.21195 33.096 2.14195 33.138 2.39395 33.852C2.47795 34.09 2.61795 34.272 2.70195 34.258C2.81395 34.244 2.86995 34.594 2.86995 35.462C2.86995 36.134 2.84195 36.68 2.79995 36.68C2.75795 36.68 2.51995 36.554 2.28195 36.4L1.81995 36.12L1.83395 36.512C1.84795 37.296 2.02995 38.15 2.16995 38.108C2.33795 38.052 3.09395 41.006 3.52795 43.428C3.70995 44.394 3.89195 45.136 3.93395 45.052C4.04595 44.87 4.40995 45.528 4.54995 46.186C4.71795 46.942 4.88595 46.41 4.81595 45.36L4.75995 44.45L4.96995 45.22C5.09595 45.64 5.24995 46.662 5.31995 47.488C5.38995 48.328 5.52995 49.294 5.61395 49.658L5.78195 50.302L6.03395 49.994L6.28595 49.686L6.48195 50.162C6.91595 51.198 6.92995 51.282 6.55195 51.212L6.20195 51.142L6.52395 51.632C6.70595 51.898 6.85995 52.262 6.85995 52.43C6.85995 52.71 7.37795 53.34 7.60195 53.34C7.65795 53.34 7.67195 53.172 7.61595 52.962C7.57395 52.738 7.82595 53.088 8.17595 53.718C8.52595 54.362 8.81995 55.02 8.81995 55.202C8.81995 55.86 9.43595 56.756 10.4999 57.61C11.0739 58.086 11.6199 58.604 11.7039 58.772C11.8579 59.08 13.8739 60.998 15.3159 62.188C16.3659 63.07 18.2559 64.33 19.6419 65.1C20.2859 65.45 20.6779 65.744 20.5799 65.8C20.4259 65.898 24.6119 68.292 26.0819 68.936C27.6779 69.636 29.0779 70 30.1839 70C30.7439 70 31.2199 69.958 31.2199 69.916C31.2199 69.874 31.1499 69.72 31.0799 69.566C30.9819 69.384 30.9819 69.3 31.0799 69.3C31.1499 69.3 31.2199 69.188 31.2199 69.048C31.2199 68.824 31.4439 68.81 34.0479 68.81C37.0999 68.81 38.7099 68.614 41.3279 67.97C42.1119 67.774 42.7699 67.62 42.7839 67.62C42.8119 67.62 42.8399 67.914 42.8399 68.292C42.8399 69.104 43.1339 69.58 43.6379 69.58H44.0019L43.6099 69.216C43.2879 68.922 43.2319 68.782 43.3019 68.362C43.3999 67.802 43.7079 67.41 44.2679 67.116C44.6319 66.92 44.6599 66.934 44.6599 67.186C44.6599 67.732 45.0659 67.76 47.1239 67.396C48.1879 67.214 49.2379 67.018 49.4619 66.976C49.7979 66.892 49.8399 66.92 49.8399 67.256C49.8399 67.676 49.8679 67.69 50.7639 67.41C51.1419 67.298 51.4639 67.2 51.4919 67.2C51.5059 67.2 51.5199 67.424 51.5199 67.69C51.5199 67.998 51.4359 68.222 51.2819 68.306C51.1419 68.39 51.0859 68.46 51.1419 68.46C51.3379 68.46 52.1079 67.872 52.0239 67.802C51.9819 67.76 52.0799 67.536 52.2339 67.326L52.5139 66.92H51.8979C51.5479 66.92 51.0859 66.878 50.8479 66.836C50.4699 66.766 50.4279 66.71 50.5399 66.486C50.6239 66.346 50.6799 66.024 50.6799 65.772V65.296L51.7439 65.394L52.8079 65.506L53.2279 65.03C53.4519 64.764 54.1239 64.288 54.7119 63.952C55.2999 63.63 56.0139 63.14 56.2659 62.874C56.5319 62.594 56.6999 62.468 56.6299 62.58C56.5599 62.706 56.6299 62.692 56.8119 62.524C57.1619 62.23 57.2459 62.02 56.9099 62.3C56.7559 62.426 56.6999 62.426 56.6999 62.314C56.6999 62.23 56.7979 62.118 56.9099 62.076C57.0219 62.02 57.1199 61.88 57.1199 61.74C57.1199 61.614 57.3019 61.25 57.5399 60.928L57.9459 60.354L57.2039 60.62C56.5459 60.844 54.8099 61.18 54.3059 61.18C54.2079 61.18 54.3339 60.956 54.5999 60.69C54.9639 60.312 55.1179 60.242 55.3139 60.354C55.5239 60.466 55.6499 60.382 56.0139 59.892C56.2519 59.556 56.5739 59.038 56.7279 58.73C57.0219 58.156 58.3939 56.238 58.7859 55.86C58.9119 55.734 59.4159 55.146 59.9199 54.53C60.4239 53.914 61.2639 52.906 61.7959 52.29C63.0419 50.834 64.6099 48.454 65.5199 46.648C66.0939 45.486 66.2899 45.206 66.4999 45.262C66.7239 45.318 66.7519 45.206 66.8079 44.366C66.8359 43.848 66.9059 43.372 66.9479 43.33C67.004 43.274 67.186 43.33 67.368 43.456C67.9979 43.904 68.0819 43.778 67.9699 42.588C67.8299 41.076 67.8439 40.11 68.0259 39.802C68.1099 39.662 68.1799 39.62 68.1799 39.718C68.1799 39.928 68.6979 40.222 68.88 40.11C68.964 40.054 68.866 39.732 68.6699 39.326C68.3759 38.766 68.3479 38.64 68.5299 38.64C68.6559 38.64 68.866 38.374 69.02 38.024C69.16 37.688 69.3419 37.394 69.4259 37.366C69.5099 37.324 69.4119 36.68 69.16 35.574C68.6559 33.502 68.6419 33.236 69.034 33.138C69.2999 33.068 69.3139 33.096 69.2299 33.558C69.174 33.908 69.202 34.09 69.3279 34.174C69.9159 34.552 70.0139 34.076 69.5799 32.816C69.4119 32.368 69.2859 31.696 69.2859 31.346C69.2719 30.73 69.2579 30.702 68.922 30.772L68.5579 30.842L68.5999 28.966C68.6699 26.11 68.6699 26.096 68.1939 25.816C67.8439 25.62 67.7039 25.326 67.284 23.996C66.6679 22.092 65.6459 19.782 64.7639 18.298C64.4139 17.696 64.1199 17.108 64.1199 17.01C64.1199 16.912 63.8539 16.52 63.5179 16.156C63.1959 15.778 62.5519 14.994 62.0899 14.42C60.9559 12.992 58.8419 10.906 57.3859 9.77201C56.2939 8.91801 53.5359 7.08401 53.1579 6.95802C53.0739 6.93002 53.2279 6.63601 53.5359 6.25801C54.1239 5.54401 54.1519 5.12402 53.6479 4.78802C53.3259 4.57802 53.3259 4.57802 53.4939 4.94202C53.6339 5.25002 53.6199 5.37601 53.4239 5.65601C53.0879 6.17402 52.6819 6.34201 52.0379 6.24401C51.7159 6.18801 51.3939 6.09002 51.3099 6.03402C51.2399 5.96401 50.9319 5.83801 50.6379 5.74001C50.1479 5.58601 50.1199 5.55801 50.3159 5.33401C50.4419 5.19402 50.5399 5.01202 50.5399 4.92802C50.5399 4.59202 49.6579 3.79401 48.4119 2.96802C46.9979 2.04401 46.5779 1.97401 46.0879 2.59002L45.8359 2.89802L45.1639 2.11401C44.4919 1.34402 44.4639 1.33002 43.6939 1.31602C43.2599 1.31602 42.5039 1.17602 41.9999 1.02202C41.4959 0.868019 40.6559 0.70002 40.1099 0.64402C39.2979 0.588013 39.0599 0.616013 38.7379 0.826019ZM39.4379 0.784019C39.3959 0.826019 39.2699 0.840019 39.1719 0.798019C39.0599 0.75602 39.1019 0.71402 39.2559 0.71402C39.4099 0.70002 39.4939 0.74202 39.4379 0.784019ZM49.3919 5.01202C49.5879 5.30602 49.5879 5.32001 49.1539 5.16602C48.7199 5.01202 48.6359 4.90002 48.8179 4.70402C48.9579 4.56402 49.1679 4.67602 49.3919 5.01202ZM12.0119 10.388C11.8999 10.57 11.5359 11.186 11.1999 11.76C10.8639 12.334 10.5699 12.824 10.5559 12.852C10.5419 12.88 10.3739 12.824 10.2059 12.726L9.88395 12.558L10.2619 12.264C10.4719 12.096 10.6399 11.9 10.6399 11.83C10.6399 11.676 12.0119 10.08 12.1379 10.08C12.1799 10.08 12.1239 10.22 12.0119 10.388ZM9.79995 18.578C9.64595 18.816 9.64595 18.816 9.71595 18.578C9.75795 18.438 9.79995 18.242 9.81395 18.158C9.81395 18.032 9.84195 18.032 9.88395 18.158C9.92595 18.256 9.88395 18.438 9.79995 18.578ZM11.6199 19.446C11.6199 19.516 11.5219 19.642 11.4099 19.74C11.2419 19.88 11.1999 19.88 11.1999 19.712C11.1999 19.6 11.2419 19.46 11.2979 19.418C11.4239 19.278 11.6199 19.292 11.6199 19.446ZM9.93995 19.796C9.93995 19.824 9.98195 19.95 10.0239 20.062C10.0659 20.188 9.88395 20.426 9.54795 20.692L9.01595 21.126L9.22595 20.426C9.37995 19.936 9.50595 19.74 9.68795 19.74C9.82795 19.74 9.93995 19.768 9.93995 19.796ZM10.5979 20.384C10.5139 20.678 9.98195 21.602 9.42195 22.428C8.86195 23.268 8.13395 24.458 7.81195 25.088L7.20995 26.25L7.16795 24.262C7.13995 22.386 7.15395 22.246 7.44795 21.91C7.61595 21.714 7.82595 21.56 7.93795 21.56C8.03595 21.56 8.21795 21.406 8.34395 21.21C8.59595 20.818 8.81995 20.86 8.81995 21.294C8.81995 21.924 9.89795 21.196 10.3879 20.258C10.7239 19.586 10.8219 19.642 10.5979 20.384ZM68.4599 27.496C68.4599 28.112 68.2219 27.762 68.1239 27.02C68.0399 26.418 68.0399 26.404 68.2359 26.74C68.3619 26.936 68.4459 27.272 68.4599 27.496ZM6.38395 27.286C6.49595 27.188 6.62195 27.16 6.67795 27.202C6.81795 27.342 6.14595 28.84 5.93595 28.84C5.54395 28.84 5.23595 27.664 5.47395 27.048L5.61395 26.67L5.90795 27.062C6.13195 27.37 6.22995 27.412 6.38395 27.286ZM47.1799 66.15C47.1799 66.29 47.0399 66.36 46.7319 66.36L46.2699 66.346L46.6199 66.15C47.0679 65.898 47.1799 65.898 47.1799 66.15ZM45.9479 67.158C46.1439 67.41 45.7099 67.55 45.2479 67.396C44.7159 67.214 44.7159 66.948 45.2479 66.724C45.6679 66.542 45.7099 66.542 45.7659 66.752C45.7939 66.878 45.8779 67.074 45.9479 67.158ZM30.7299 68.754C30.9259 68.95 30.2259 68.894 29.7499 68.684C29.3299 68.488 29.3439 68.488 29.9599 68.558C30.3099 68.6 30.6459 68.684 30.7299 68.754Z" fill="black"/>
<path d="M35.7419 1.21801C35.9519 1.24601 36.2879 1.24601 36.5119 1.21801C36.7219 1.19001 36.5399 1.16201 36.1199 1.16201C35.6999 1.16201 35.5179 1.19001 35.7419 1.21801Z" fill="black"/>
<path d="M50.932 4.95602C51.1 5.18002 51.24 5.47402 51.24 5.62802C51.24 5.78202 51.31 5.85202 51.38 5.81002C51.66 5.64202 51.506 5.19402 51.072 4.87202L50.61 4.55002L50.932 4.95602Z" fill="black"/>
<path d="M4.64791 18.802C4.32591 19.152 4.25591 19.53 4.47991 19.67C4.56391 19.712 4.61991 19.894 4.61991 20.062C4.63391 20.37 4.63391 20.37 4.84391 20.09C5.02591 19.838 5.02591 19.81 4.84391 19.768C4.56391 19.712 4.56391 19.712 4.82991 19.082C5.09591 18.466 5.03991 18.382 4.64791 18.802Z" fill="black"/>
<path d="M2.31 20.7761C2.128 21.2521 2.114 21.4481 2.226 21.6861C2.52 22.2041 2.66 21.9941 2.66 21.0701C2.66 20.5661 2.632 20.1601 2.604 20.1601C2.576 20.1601 2.436 20.4401 2.31 20.7761Z" fill="black"/>
<path d="M1.63796 23.1C1.41396 23.492 1.18996 23.8 1.13396 23.8C0.993964 23.8 0.615964 23.366 0.531964 23.1C0.489964 22.988 0.433964 23.128 0.405964 23.408C0.363964 23.688 0.391964 23.884 0.447964 23.856C0.503964 23.814 0.559964 24.01 0.559964 24.276C0.559964 24.556 0.629964 24.78 0.699964 24.78C0.783964 24.78 0.839964 24.724 0.839964 24.654C0.839964 24.57 1.21796 24.22 1.67996 23.87C2.50596 23.226 2.68796 22.904 2.35196 22.568C2.09996 22.316 2.05796 22.344 1.63796 23.1Z" fill="black"/>
<path d="M0.699951 25.62C0.699951 25.704 0.797951 25.76 0.909951 25.76C1.17595 25.76 1.17595 25.676 0.909951 25.564C0.797951 25.522 0.699951 25.55 0.699951 25.62Z" fill="black"/>
<path d="M67.788 44.1701C67.634 44.5201 67.55 46.3261 67.69 46.1721C67.774 46.0881 68.068 43.9461 67.998 43.8761C67.97 43.8481 67.872 43.9741 67.788 44.1701Z" fill="black"/>
<path d="M64.806 49.1681C64.68 49.6441 64.54 50.1481 64.484 50.2741C64.33 50.6101 65.002 50.4561 65.352 50.0641C65.842 49.5461 65.856 49.2101 65.422 48.7201L65.016 48.2721L64.806 49.1681Z" fill="black"/>
<path d="M63.9799 50.974C63.8819 51.128 63.8399 51.296 63.8819 51.324C63.9099 51.352 64.0079 51.226 64.0919 51.03C64.2879 50.61 64.1899 50.568 63.9799 50.974Z" fill="black"/>
<path d="M63.4339 52.3882C63.1259 53.3122 63.1679 53.3122 63.7559 52.4302L64.1199 51.8702V52.4302C64.1059 52.7382 64.0219 53.1442 63.9099 53.3402C63.4059 54.2222 63.8259 54.6142 64.5959 53.9982C64.9459 53.7042 64.9739 53.6342 64.8339 53.3542C64.7219 53.1722 64.6939 52.8222 64.7639 52.4302C64.8479 51.8422 64.8339 51.8002 64.4699 51.6602C63.8399 51.4222 63.7419 51.4922 63.4339 52.3882Z" fill="black"/>
<path d="M60.774 55.5242C60.774 55.6922 60.41 56.2102 59.99 56.6862C59.248 57.5122 59.052 57.9882 59.36 58.1702C59.612 58.3242 59.514 58.4922 59.122 58.5902L58.73 58.7022L59.136 58.8142C59.416 58.8982 59.626 58.8562 59.878 58.7022L60.228 58.4642L59.906 58.2402C59.416 57.8622 59.64 57.5402 60.41 57.5402H61.04L61.026 56.9382C61.026 56.2802 60.802 55.0622 60.774 55.5242Z" fill="black"/>
<path d="M62.3699 55.5942C62.3139 55.6782 62.2999 55.7622 62.3419 55.8042C62.3699 55.8462 62.4399 55.7762 62.4819 55.6502C62.5799 55.4122 62.4959 55.3702 62.3699 55.5942Z" fill="black"/>
<path d="M61.8099 56.798C61.5999 57.134 61.4599 57.442 61.4879 57.47C61.5019 57.484 61.7259 57.554 61.9639 57.596C62.3419 57.68 62.4539 57.638 62.7059 57.316C63.0979 56.826 63.0839 56.672 62.5799 56.392L62.1739 56.168L61.8099 56.798Z" fill="black"/>
<path d="M58.7859 59.5981L58.3099 60.1021L58.7579 59.7941C59.2339 59.4721 59.4299 59.2481 59.3319 59.1361C59.3039 59.1081 59.0519 59.3181 58.7859 59.5981Z" fill="black"/>
<path d="M52.8499 66.64C52.8079 66.71 52.8359 66.78 52.9059 66.78C52.9899 66.78 53.0599 66.71 53.0599 66.64C53.0599 66.556 53.0319 66.5 53.0039 66.5C52.9619 66.5 52.8919 66.556 52.8499 66.64Z" fill="black"/>
<path d="M48.37 68.1942C47.782 68.7962 47.726 68.8942 48.02 68.8102C48.622 68.6422 49.21 68.2502 49.252 67.9842C49.364 67.4242 49.028 67.5082 48.37 68.1942Z" fill="black"/>
<path d="M45.57 68.0401L45.01 68.2921L45.542 68.3061C45.892 68.3201 46.102 68.2501 46.158 68.1101C46.284 67.7741 46.172 67.7601 45.57 68.0401Z" fill="black"/>
<path d="M37.17 69.0201C35.784 69.1601 33.992 69.2861 33.18 69.3001L31.71 69.3281L33.11 69.5941C33.908 69.7621 35.434 69.9021 36.68 69.9581L38.85 70.0281L38.5 69.7481L38.15 69.4681L38.5 69.3141C38.696 69.2441 39.354 69.1321 39.97 69.0761C40.796 69.0061 40.992 68.9501 40.74 68.8661C40.25 68.7261 40.026 68.7401 37.17 69.0201Z" fill="black"/>
</g>
<defs>
<filter id="filter0_i_320_659" x="0" y="0" width="70" height="70" filterUnits="userSpaceOnUse" color-interpolation-filters="sRGB">
<feFlood flood-opacity="0" result="BackgroundImageFix"/>
<feBlend mode="normal" in="SourceGraphic" in2="BackgroundImageFix" result="shape"/>
<feColorMatrix in="SourceAlpha" type="matrix" values="0 0 0 0 0 0 0 0 0 0 0 0 0 0 0 0 0 0 127 0" result="hardAlpha"/>
<feOffset/>
<feGaussianBlur stdDeviation="7.5"/>
<feComposite in2="hardAlpha" operator="arithmetic" k2="-1" k3="1"/>
<feColorMatrix type="matrix" values="0 0 0 0 0 0 0 0 0 0 0 0 0 0 0 0 0 0 1 0"/>
<feBlend mode="normal" in2="shape" result="effect1_innerShadow_320_659"/>
</filter>
<clipPath id="clip0_320_659">
<rect width="70" height="70" fill="white"/>
</clipPath>
</defs>
</svg>
