<svg width="388" height="46" viewBox="0 0 388 46" fill="none" xmlns="http://www.w3.org/2000/svg">
<path d="M193.044 -3.99103C192.813 -3.92008 192.271 -3.88778 191.883 -3.92575C191.496 -3.97751 190.954 -3.90386 190.723 -3.79156C190.492 -3.66547 189.641 -3.56154 188.867 -3.55478C188.092 -3.54803 187.087 -3.44275 186.546 -3.32775C185.464 -3.08395 181.902 -2.99772 181.9 -3.21828C181.9 -3.30099 179.964 -3.33923 177.641 -3.31896C175.318 -3.29869 173.383 -3.22666 173.383 -3.15774C173.385 -2.90961 170.288 -2.88258 168.66 -3.11652C166.567 -3.4291 165.715 -3.42167 165.021 -3.11233C164.712 -2.97178 164.171 -2.85677 163.707 -2.85272C163.319 -2.84934 161.307 -2.70771 159.295 -2.55229C155.813 -2.27376 155.426 -2.27039 151.63 -2.45783C148.377 -2.62244 147.525 -2.62879 146.984 -2.47243C146.443 -2.32985 146.134 -2.32715 145.358 -2.45824C144.893 -2.53689 143.731 -2.60946 142.802 -2.60135C141.872 -2.59324 140.788 -2.65271 140.322 -2.73136C139.702 -2.83623 139.315 -2.83285 139.006 -2.71988C138.697 -2.63447 137.072 -2.55135 135.291 -2.53581C132.813 -2.51419 132.272 -2.4681 132.66 -2.30607C132.894 -2.18403 132.585 -2.05727 131.889 -1.99605C130.496 -1.88739 120.27 -2.34958 119.572 -2.53649C118.718 -2.76339 115.699 -2.65433 114.695 -2.35607C113.537 -2.00132 110.672 -1.94875 110.669 -2.29337C110.668 -2.41743 109.427 -2.65474 107.954 -2.8211C106.482 -2.97368 105.242 -3.04557 105.243 -2.96287C105.244 -2.78367 101.605 -2.75191 100.984 -2.9257C100.363 -3.0995 97.8101 -2.84286 95.6461 -2.36905C94.1002 -2.03849 93.7905 -2.03578 89.9953 -2.14052C87.7492 -2.20363 83.8774 -2.2112 81.3225 -2.16133C78.6903 -2.09701 76.5995 -2.10633 76.5989 -2.17526C76.5972 -2.36824 73.8102 -2.30256 72.8055 -2.07322C72.2645 -1.95822 71.2585 -1.88051 70.5614 -1.902C69.8643 -1.92348 68.7801 -1.94159 68.3155 -1.93754C67.7734 -1.94659 67.308 -2.03903 67.3069 -2.16309C67.3052 -2.35608 66.763 -2.37892 64.2084 -2.2877C62.5054 -2.23148 61.1114 -2.24688 61.1108 -2.31581C61.1101 -2.39851 60.4133 -2.37865 59.4849 -2.28783C58.6341 -2.18391 57.0857 -2.14282 56.0788 -2.17539C54.762 -2.21904 53.9108 -2.15647 53.1383 -1.94294C52.3656 -1.75699 51.8241 -1.69712 51.4361 -1.79023C51.2031 -1.87092 50.5833 -1.90686 50.1966 -1.84835C49.8099 -1.80361 48.9578 -1.83753 48.3376 -1.91484C46.9421 -2.10944 42.5326 -1.62982 39.2861 -0.967346C37.7403 -0.636785 36.9666 -0.561103 36.1914 -0.664625C34.8734 -0.846124 29.1442 -0.740982 28.7588 -0.530832C28.6048 -0.432991 28.1409 -0.360012 27.6763 -0.355958C26.6697 -0.347173 25.2011 -0.0448562 24.5069 0.264486C24.1984 0.405035 23.657 0.47869 23.1921 0.441387C22.8045 0.403412 21.5667 0.524502 20.5618 0.726272C19.5569 0.928042 18.4743 1.10292 18.0872 1.10629C17.7 1.10967 16.9276 1.3232 16.3102 1.56294C15.6929 1.81647 14.8434 2.07203 14.3793 2.13122C13.9152 2.19042 13.9936 2.30002 14.6142 2.43246C15.7003 2.65734 15.2362 2.71653 12.216 2.68775C11.4416 2.68072 10.8226 2.74126 10.8232 2.81018C10.824 2.89289 10.36 2.96587 9.74056 2.97128C9.12113 2.97668 8.42524 3.09304 8.19403 3.21913C7.73127 3.42995 8.507 3.58861 10.4438 3.69578C11.5284 3.75524 11.3051 4.79112 10.2217 4.8695C9.52523 4.91694 9.44841 4.98654 9.99125 5.0783C11.8531 5.47562 10.3901 6.41203 7.83492 6.43433C6.98321 6.44176 6.98357 6.48312 7.83685 6.65488C9.3883 6.9722 9.16095 7.5394 7.22957 8.05254C5.06626 8.60906 4.99052 8.80272 6.92623 8.78583C7.9328 8.77704 8.55331 8.8957 8.94286 9.16801C9.25498 9.441 9.95316 9.58655 11.1148 9.60399C12.5088 9.6194 12.8195 9.72697 12.9002 10.1123C12.9025 10.3742 13.1383 10.7719 13.4498 10.976C14.3064 11.5199 13.3841 12.3138 11.9895 12.2294C10.8274 12.1569 10.7507 12.2402 10.7633 13.6876C10.7674 14.1563 10.4614 14.5863 10.0746 14.6311C9.76514 14.6613 9.61425 15.1176 9.85099 15.6256C10.4019 16.6409 10.4106 17.6334 10.0341 18.8636C9.88311 19.3061 10.0415 19.7045 10.3514 19.7293C11.5915 19.8564 13.3799 20.7093 13.5398 21.2869C13.6976 21.6164 14.1656 22.0121 14.6314 22.1459C15.5632 22.441 15.1017 22.8035 12.5554 23.832C11.0121 24.4521 10.3222 25.2577 11.0999 25.6369C11.4891 25.8678 10.1802 26.734 8.94342 26.9791C8.3252 27.1224 7.63219 27.5696 7.40364 27.9989C7.02251 28.6915 7.10066 28.7736 8.41694 28.7621C10.3527 28.7452 12.3705 29.2652 10.9781 29.429C10.282 29.5178 10.3607 29.6688 11.3713 30.1149C12.3818 30.561 12.4607 30.7257 11.7651 30.8834C11.2241 30.9984 11.0703 31.1238 11.3031 31.177C11.6132 31.2156 11.3823 31.3831 10.9965 31.5381C10.3788 31.7365 10.3797 31.8467 11.0772 31.9096C12.4722 32.049 11.3942 32.7477 9.92225 32.6641C8.99251 32.6033 8.83849 32.7011 9.2302 33.2215C9.62108 33.6455 9.46802 33.8536 8.8486 33.859C8.38403 33.8631 7.99748 33.9354 7.99809 34.0043C7.99881 34.087 6.76224 34.3597 5.29326 34.6207C2.89635 35.0276 2.58784 35.1682 2.59289 35.7471C2.59602 36.1055 2.05787 36.5513 1.44001 36.736C0.281348 37.0631 0.595032 37.5153 1.98874 37.5032C2.37589 37.4998 2.45379 37.5542 2.22223 37.639C1.99055 37.7099 2.45572 37.7748 3.23 37.768C5.08829 37.7518 6.17589 38.1559 4.78362 38.3335C4.01006 38.4229 4.08773 38.4498 4.93944 38.4424C5.6363 38.4363 7.03158 38.6034 8.04019 38.8289C9.12611 39.04 10.444 39.2077 10.9087 39.2175C11.9152 39.2087 12.3043 39.4259 13.0875 40.4392C13.636 41.1788 14.7232 41.5415 15.6502 41.2853C16.2681 41.1007 21.3013 41.0981 25.3295 41.2835C26.7238 41.3403 29.202 41.3738 30.9052 41.3314C33.7699 41.2926 40.7417 41.604 42.5249 41.8641C42.9901 41.929 43.3009 42.0503 43.3018 42.1468C43.3036 42.3536 49.1111 42.3443 49.1867 42.1368C49.2634 42.0535 49.2618 41.8743 49.1833 41.7509C48.9485 41.4634 51.271 41.4018 51.8928 41.6721C52.2039 41.821 52.8233 41.8156 55.4544 41.6272C57.2343 41.5014 59.4792 41.4267 60.4863 41.473C61.4932 41.5056 62.2673 41.4713 62.2667 41.4023C62.2644 41.1404 64.5122 41.3965 64.7469 41.6702C64.9032 41.8343 65.6792 42.0205 66.5316 42.0958C67.384 42.171 68.3143 42.287 68.5472 42.3539C68.8575 42.4201 69.7093 42.4265 70.4831 42.3646C71.2569 42.3027 72.109 42.3366 72.497 42.4297C72.9627 42.5635 73.5044 42.5174 74.5862 42.2598C75.5906 42.0029 76.4418 41.9403 77.7586 41.984C78.9205 42.029 79.8493 41.9795 80.3901 41.837C81.1629 41.6648 81.6275 41.6607 84.1847 41.8728C87.0518 42.1097 87.2067 42.1083 88.5982 41.848C90.1444 41.5588 94.0163 41.5802 94.0189 41.8834C94.0199 41.9937 94.7949 42.0697 95.9563 42.0595C97.1952 42.0487 97.8928 42.1254 97.8939 42.2494C97.8963 42.5251 98.8253 42.5032 102.539 42.1262C105.015 41.8702 106.098 41.8332 107.416 41.932C108.345 41.9928 109.894 42.0482 110.824 42.0401C112.217 42.0417 112.526 41.9425 112.755 41.5269L112.983 41.0149L115.775 41.5282C118.489 42.0145 118.722 42.0263 120.346 41.8053C121.274 41.687 122.435 41.5941 122.977 41.6169C126.85 41.7899 127.934 41.7667 128.319 41.5014C128.704 41.2085 130.406 41.0972 130.409 41.3591C130.409 41.4694 130.719 41.4667 131.57 41.3352C132.42 41.2037 133.118 41.2252 135.133 41.4557C137.071 41.687 137.845 41.7078 139.006 41.5736C139.779 41.4841 140.553 41.4498 140.786 41.5167C141.019 41.5698 142.336 41.6272 143.73 41.6288C150.931 41.6625 150.931 41.6625 151.161 41.3296C151.314 41.1629 151.855 41.0203 152.474 41.0149C153.016 41.0102 153.635 40.9358 153.789 40.838C154.174 40.6278 161.378 40.8958 161.38 41.1302C161.382 41.3783 164.482 41.6407 165.565 41.4659C166.957 41.2469 172.994 40.9737 172.995 41.1391C172.996 41.2218 173.616 41.2302 174.39 41.1683C176.092 41.0294 178.259 40.9277 180.968 40.8214C182.362 40.7816 183.059 40.8169 183.06 40.9548C183.061 41.0512 183.759 41.183 184.611 41.2169C185.463 41.2509 186.161 41.355 186.162 41.4378C186.163 41.5205 186.86 41.542 187.711 41.4932C188.872 41.4279 189.57 41.5183 190.502 41.8686C191.822 42.3396 192.985 42.4259 194.454 42.1512C194.84 42.0789 197.24 41.9752 199.64 41.9405C204.053 41.8744 204.053 41.8744 203.74 41.4911C203.349 41.0258 204.509 40.8641 205.828 41.1834C207.69 41.6221 223.404 41.0438 224.716 40.4809C225.256 40.2832 226.651 40.3676 228.512 40.7097C229.908 40.9733 230.606 41.0223 231.301 40.8922C232.306 40.7042 234.939 40.6537 234.94 40.8191C234.941 40.9707 241.603 41.1883 242.531 41.0699C242.918 41.0252 243.381 40.8557 243.534 40.7027C243.918 40.3547 247.015 40.2863 246.709 40.6337C246.632 40.7584 247.175 40.8915 248.105 40.9385C248.957 40.9725 249.655 41.0767 249.655 41.1456C249.657 41.3524 252.444 41.2591 253.526 41.0291C254.917 40.7137 256.234 40.7435 259.877 41.1805C261.66 41.3993 263.52 41.5484 264.061 41.5024C264.603 41.4563 265.61 41.544 266.386 41.6889C268.015 42.0055 268.944 41.9974 270.258 41.6689C271.108 41.4684 271.495 41.4513 272.657 41.5928C273.433 41.6825 274.982 41.8068 276.067 41.8801C277.229 41.9527 278.315 42.1086 278.548 42.2444C279.093 42.6119 283.74 42.6678 285.286 42.3373C285.904 42.2078 287.064 42.0461 287.761 41.9986C288.534 41.9367 288.921 41.8231 288.687 41.701C287.677 41.2411 295.495 40.9661 301.305 41.2463C302.699 41.3168 304.248 41.3171 304.79 41.2572C306.646 41.0342 308.815 41.0705 310.753 41.3844C313.157 41.7494 313.931 41.7564 314.47 41.3933C314.932 41.086 315.087 41.0846 317.411 41.216C318.263 41.2775 319.58 41.2522 320.431 41.1759C321.514 41.0561 322.366 41.0901 324.071 41.2957C325.234 41.451 326.629 41.5629 327.016 41.5595C328.565 41.546 331.742 41.8492 331.743 42.0008C331.744 42.1111 332.519 42.1319 333.68 42.0804C334.841 42.0427 335.616 42.0635 335.616 42.16C335.617 42.2427 336.469 42.3042 337.553 42.2947C338.637 42.2853 339.489 42.2089 339.488 42.1262C339.487 42.0297 340.261 41.9954 341.5 42.0397C343.205 42.1075 343.437 42.078 343.048 41.8883C342.659 41.7125 342.969 41.6823 344.672 41.7225C347.151 41.7836 354.194 41.3499 354.192 41.1294C354.19 40.895 357.745 40.1885 358.907 40.1784C359.681 40.1716 360.453 39.8478 361.144 39.2214C362.221 38.3573 362.452 38.2864 364.465 38.2274C365.626 38.1897 366.4 38.1141 366.167 38.0472C365.934 37.9803 366.552 37.8094 367.635 37.6621C368.64 37.5155 369.645 37.2448 369.953 37.0767C370.493 36.7963 370.802 36.7522 372.351 36.7525C373.357 36.7575 375.289 36.2719 375.364 35.9955C375.44 35.8019 375.903 35.6876 376.832 35.6932C377.529 35.7009 378.149 35.668 378.148 35.6128C378.148 35.5715 378.454 35.169 378.915 34.7238C379.605 33.9596 379.527 33.8914 377.432 33.3996C375.958 33.0402 375.102 32.6341 374.71 32.0861C374.397 31.6615 373.618 31.1996 372.92 31.0678C371.137 30.7387 371.048 29.485 372.827 29.2489C373.91 29.1016 374.062 28.8383 373.818 27.4619C373.576 26.2785 373.804 25.8077 374.499 25.6638C375.118 25.5619 375.348 25.298 375.113 25.0381C374.956 24.7638 375.11 24.597 375.652 24.5923C376.736 24.5828 376.731 24.0728 375.646 23.972C375.181 23.9209 375.024 23.619 375.253 23.2585C375.557 22.6355 374.625 22.2577 372.689 22.2746C371.527 22.2847 371.601 21.8016 372.838 21.6115C373.302 21.5386 374.617 21.4306 375.701 21.3936C377.017 21.3545 377.636 21.2526 377.634 21.0458C377.633 20.8942 378.25 20.6545 379.023 20.4961C379.951 20.3225 380.182 20.1965 379.639 20.1047C379.096 20.0129 379.172 19.8331 379.789 19.5382C381.023 18.976 380.632 18.5107 378.694 18.3208C376.989 18.1427 376.755 17.9655 378.304 17.952C379.388 17.9425 379.387 17.9012 378.29 16.4081C377.898 15.8739 378.052 15.7071 379.443 15.3779C380.37 15.1492 380.833 14.9384 380.445 14.8453C379.436 14.6198 379.431 14.0546 380.436 13.839C380.9 13.7247 381.054 13.6131 380.821 13.56C380.511 13.5213 380.664 13.3683 381.05 13.2409C381.591 13.057 381.512 12.9611 380.738 12.9265C379.033 12.8173 378.718 12.1722 380.265 12.007C382.122 11.8116 384.044 10.2784 382.572 10.1258C382.107 10.0885 381.795 9.89824 381.794 9.70526C381.792 9.49849 381.326 9.37848 380.629 9.38456C380.01 9.38997 379.467 9.31199 379.466 9.20171C379.465 9.09144 378.458 8.97616 377.141 8.93251C375.514 8.87778 374.817 8.77358 374.815 8.59438C374.814 8.44275 375.123 8.35734 375.588 8.39463C375.975 8.43261 376.516 8.30382 376.824 8.09435C377.132 7.87109 376.975 7.69324 376.433 7.64283C375.735 7.5662 375.812 7.44147 376.738 7.1301C377.356 6.90414 377.895 6.56858 377.893 6.37559C377.891 6.18261 378.431 5.91597 378.972 5.77339C379.745 5.58744 379.974 5.21322 379.734 4.41574C379.574 3.81056 379.725 3.32675 380.112 3.32337C380.499 3.32 380.652 3.07052 380.417 2.76929C380.103 2.34466 380.257 2.20547 381.263 2.12776C381.882 2.081 383.196 1.76625 384.122 1.42731C385.512 0.932685 385.588 0.780376 384.811 0.525226C384.034 0.270076 384.111 0.200475 385.503 0.00911293C387.36 -0.241444 387.665 -0.712825 385.961 -0.808234C385.031 -0.869051 384.875 -1.00555 385.259 -1.35354C385.566 -1.65951 385.41 -1.82357 384.868 -1.81884C384.403 -1.81478 383.318 -1.92939 382.465 -2.07359C380.992 -2.32265 380.76 -2.32063 379.135 -2.11345C378.207 -1.99507 377.201 -1.88979 376.892 -1.88709C375.73 -1.87695 376.269 -2.24008 377.816 -2.48794C380.909 -2.98364 378.886 -4.09641 375.326 -3.87235C374.552 -3.81045 373.313 -3.841 372.692 -3.93208C372.072 -4.00938 370.368 -4.09101 368.819 -4.10506C365.954 -4.12142 361.923 -4.67902 361.919 -5.05121C361.918 -5.17527 360.601 -5.24649 357.891 -5.26419C354.251 -5.28757 353.787 -5.25595 353.789 -5.00783C353.792 -4.64943 349.922 -4.45022 347.442 -4.70429C346.28 -4.81822 343.879 -4.8662 340.627 -4.81025C337.84 -4.77214 335.052 -4.78917 334.354 -4.83823C333.657 -4.90107 331.411 -4.96418 329.32 -5.00107C327.229 -5.02418 325.215 -5.07554 324.828 -5.11351C324.518 -5.15216 323.899 -5.1054 323.59 -5.00621C323.281 -4.90701 322.198 -4.80106 321.191 -4.76471C317.011 -4.61794 314.69 -4.45982 314.149 -4.31725C313.685 -4.20292 313.53 -4.20157 313.529 -4.31184C313.527 -4.57375 310.507 -4.61632 309.734 -4.37522C309.194 -4.19129 308.884 -4.18859 306.715 -4.36266C305.087 -4.5001 304.158 -4.51956 303.772 -4.4059C303.54 -4.32117 302.224 -4.26833 300.985 -4.28508C299.746 -4.31563 298.585 -4.29171 298.43 -4.23522C298.198 -4.17805 296.572 -4.17765 294.791 -4.23103C288.982 -4.40091 282.555 -4.39996 282.556 -4.23454C282.557 -4.12427 281.706 -4.10305 280.157 -4.14468C278.375 -4.19806 277.524 -4.16306 276.828 -3.97777C276.056 -3.77803 275.514 -3.75952 274.274 -3.85898C273.422 -3.93426 272.492 -3.9675 272.26 -3.91034C271.951 -3.86628 271.254 -3.90155 270.634 -3.97885C270.013 -4.06994 269.161 -4.10386 268.774 -4.05913C268.31 -4.01372 267.613 -4.06278 267.07 -4.16832C265.984 -4.3932 263.97 -4.41699 263.972 -4.21022C263.974 -4.01724 261.109 -4.01981 260.642 -4.22252C260.332 -4.3301 259.481 -4.22617 258.012 -3.92385C255.539 -3.43355 251.746 -3.23503 249.885 -3.50829C249.188 -3.5987 248.103 -3.61681 247.407 -3.56937C246.633 -3.50748 245.471 -3.56627 244.541 -3.70979C242.912 -3.9575 239.194 -4.09049 239.196 -3.88372C239.197 -3.82858 237.959 -3.67992 236.489 -3.57059C234.012 -3.39734 233.625 -3.40774 231.686 -3.7079C229.438 -4.06049 228.353 -4.11995 228.355 -3.8994C228.356 -3.83047 227.892 -3.75749 227.35 -3.75276C226.808 -3.74803 225.183 -3.62357 223.713 -3.4591C222.011 -3.2926 219.998 -3.19233 218.295 -3.21881C214.113 -3.26503 209 -3.48234 208.999 -3.59262C208.998 -3.74425 205.902 -3.56559 203.968 -3.31436C201.725 -3.01907 200.563 -3.06408 200.715 -3.43761C200.791 -3.63128 200.557 -3.78088 200.17 -3.7775C199.783 -3.76034 199.24 -3.83832 198.93 -3.91832C198.231 -4.11901 193.662 -4.16185 193.044 -3.99103Z" fill="black"/>
</svg>
