<svg width="151" height="31" viewBox="0 0 151 31" fill="none" xmlns="http://www.w3.org/2000/svg">
<path d="M75.2394 0.0572739C75.1487 0.102131 74.937 0.120073 74.7858 0.0931587C74.6346 0.0572739 74.423 0.102131 74.3322 0.173903C74.2415 0.254646 73.9089 0.317448 73.6065 0.317448C73.3041 0.317448 72.911 0.380247 72.6994 0.452019C72.276 0.604536 70.8851 0.640421 70.8851 0.496878C70.8851 0.443048 70.1291 0.407162 69.222 0.407162C68.3148 0.407162 67.5589 0.443048 67.5589 0.487906C67.5589 0.649393 66.3493 0.649393 65.7143 0.487906C64.8979 0.272589 64.5653 0.272589 64.2931 0.469963C64.1722 0.559677 63.9605 0.631451 63.7791 0.631451C63.6279 0.631451 62.8417 0.712193 62.0555 0.801908C60.6948 0.963396 60.5436 0.963396 59.0619 0.819851C57.7919 0.69425 57.4593 0.685278 57.2476 0.783966C57.0359 0.87368 56.915 0.87368 56.6126 0.783966C56.4312 0.730137 55.9776 0.676308 55.6147 0.676308C55.2519 0.676308 54.8285 0.631451 54.6471 0.577621C54.4052 0.505848 54.254 0.505848 54.1331 0.577621C54.0121 0.631451 53.3771 0.676308 52.6816 0.676308C51.714 0.676308 51.5023 0.703222 51.6535 0.810881C51.7442 0.891623 51.6233 0.972366 51.3511 1.00825C50.8069 1.07105 46.8154 0.712193 46.5433 0.586592C46.2106 0.434076 45.0313 0.487906 44.6382 0.676308C44.1847 0.900595 43.0658 0.918537 43.0658 0.69425C43.0658 0.613506 42.582 0.452019 42.0075 0.33539C41.433 0.227732 40.9492 0.173903 40.9492 0.227732C40.9492 0.344362 39.528 0.344362 39.2861 0.227732C39.0442 0.111103 38.0463 0.263618 37.1996 0.559677C36.5949 0.766022 36.4739 0.766022 34.9922 0.676308C34.1153 0.622478 32.6034 0.595564 31.6055 0.613506C30.5774 0.640421 29.761 0.622478 29.761 0.577621C29.761 0.452019 28.6724 0.478933 28.2793 0.622478C28.0677 0.69425 27.6746 0.739107 27.4024 0.721165C27.1303 0.703222 26.7069 0.685278 26.5255 0.685278C26.3138 0.676308 26.1324 0.613506 26.1324 0.532763C26.1324 0.407162 25.9207 0.389219 24.9229 0.434076C24.2576 0.460991 23.7133 0.443048 23.7133 0.398191C23.7133 0.344362 23.4412 0.353333 23.0783 0.407162C22.7457 0.469963 22.141 0.487906 21.7479 0.460991C21.2338 0.425104 20.9012 0.460991 20.5988 0.595564C20.2964 0.712193 20.0848 0.748079 19.9336 0.685278C19.8428 0.631451 19.6009 0.604536 19.4497 0.640421C19.2986 0.667336 18.9659 0.640421 18.724 0.586592C18.1797 0.452019 16.4562 0.739107 15.1861 1.1518C14.5814 1.35814 14.279 1.403 13.9766 1.33123C13.4626 1.20563 11.2249 1.24151 11.0737 1.37609C11.0133 1.43888 10.8318 1.48374 10.6504 1.48374C10.2573 1.48374 9.68278 1.67214 9.41064 1.86952C9.28968 1.95923 9.07802 2.00409 8.89659 1.97718C8.74539 1.95026 8.26158 2.02203 7.86848 2.14763C7.47539 2.27324 7.05205 2.38089 6.90086 2.38089C6.74967 2.38089 6.44728 2.51547 6.20538 2.66798C5.96347 2.82947 5.63085 2.99096 5.44942 3.02684C5.26799 3.06273 5.29823 3.1345 5.54014 3.22421C5.96347 3.37673 5.78204 3.41262 4.60275 3.37673C4.30037 3.36776 4.05846 3.40364 4.05846 3.4485C4.05846 3.50233 3.87703 3.54719 3.63512 3.54719C3.39322 3.54719 3.12107 3.61896 3.03036 3.69971C2.84893 3.83428 3.15131 3.94194 3.90727 4.02268C4.3306 4.06754 4.23989 4.7404 3.81655 4.78526C3.54441 4.81217 3.51417 4.85703 3.72584 4.91983C4.45156 5.18897 3.87703 5.79007 2.87917 5.79007C2.54655 5.79007 2.54655 5.81698 2.87917 5.93361C3.48393 6.14893 3.39322 6.51676 2.63726 6.83973C1.79059 7.18962 1.76035 7.31522 2.51631 7.31522C2.9094 7.31522 3.15131 7.39597 3.3025 7.5754C3.42346 7.75483 3.6956 7.85351 4.14917 7.87146C4.69346 7.8894 4.81442 7.96117 4.84466 8.21237C4.84466 8.38283 4.93537 8.64301 5.05632 8.77758C5.38894 9.13644 5.02608 9.64781 4.4818 9.58501C4.02822 9.53119 3.99798 9.58501 3.99798 10.527C3.99798 10.8321 3.87703 11.1102 3.72584 11.1371C3.60489 11.155 3.54441 11.4511 3.63512 11.783C3.84679 12.4469 3.84679 13.0929 3.6956 13.8913C3.63512 14.1784 3.6956 14.4386 3.81655 14.4565C4.30037 14.5463 4.99585 15.1115 5.05632 15.4883C5.1168 15.7036 5.29823 15.9638 5.47966 16.0535C5.84252 16.2508 5.66109 16.4841 4.66323 17.139C4.05846 17.5338 3.78631 18.0541 4.0887 18.3053C4.23989 18.4578 3.72584 19.0141 3.24203 19.1666C3.00012 19.2563 2.72797 19.5434 2.63726 19.8215C2.48607 20.2701 2.51631 20.3239 3.03036 20.3239C3.78631 20.3239 4.57251 20.6738 4.02822 20.7725C3.75608 20.8263 3.78631 20.925 4.17941 21.2211C4.57251 21.5171 4.60275 21.6248 4.3306 21.7235C4.11894 21.7952 4.05846 21.876 4.14917 21.9119C4.27013 21.9388 4.17941 22.0464 4.02822 22.1451C3.78631 22.2707 3.78631 22.3425 4.05846 22.3874C4.60275 22.486 4.17941 22.9346 3.60489 22.8718C3.24203 22.827 3.18155 22.8898 3.33274 23.2307C3.48393 23.5088 3.42346 23.6434 3.18155 23.6434C3.00012 23.6434 2.84893 23.6882 2.84893 23.7331C2.84893 23.7869 2.36512 23.9574 1.79059 24.1189C0.853201 24.3701 0.732248 24.4598 0.732248 24.8366C0.732248 25.0698 0.52058 25.3569 0.278673 25.4736C-0.174901 25.6799 -0.0539478 25.976 0.490341 25.976C0.641533 25.976 0.671771 26.0118 0.581056 26.0657C0.490341 26.1105 0.671771 26.1554 0.974154 26.1554C1.69987 26.1554 2.12321 26.4245 1.57892 26.5322C1.27654 26.586 1.30678 26.604 1.6394 26.604C1.91154 26.604 2.45583 26.7206 2.84893 26.8731C3.27226 27.0167 3.78631 27.1333 3.96774 27.1423C4.36084 27.1423 4.51203 27.2858 4.81442 27.9497C5.02608 28.4341 5.44942 28.6764 5.81228 28.5149C6.05419 28.3983 8.01968 28.4252 9.59207 28.5687C10.1364 28.6136 11.104 28.6495 11.7692 28.6315C12.888 28.6226 15.6095 28.8648 16.305 29.0442C16.4864 29.0891 16.6073 29.1698 16.6073 29.2326C16.6073 29.3672 18.8752 29.3941 18.9055 29.2595C18.9357 29.2057 18.9357 29.0891 18.9055 29.0083C18.8147 28.8199 19.7219 28.793 19.9638 28.9724C20.0848 29.0711 20.3267 29.0711 21.3548 28.9635C22.0502 28.8917 22.9272 28.8558 23.3202 28.8917C23.7133 28.9186 24.0157 28.9007 24.0157 28.8558C24.0157 28.6854 24.8926 28.8648 24.9834 29.0442C25.0438 29.1519 25.3462 29.2775 25.6788 29.3313C26.0115 29.3851 26.3743 29.4659 26.465 29.5107C26.586 29.5556 26.9186 29.5646 27.221 29.5287C27.5234 29.4928 27.856 29.5197 28.0072 29.5825C28.1886 29.6722 28.4003 29.6453 28.8236 29.4838C29.2167 29.3223 29.5493 29.2864 30.0634 29.3223C30.517 29.3582 30.8798 29.3313 31.0915 29.2416C31.3939 29.1339 31.5753 29.1339 32.5732 29.2864C33.692 29.4569 33.7525 29.4569 34.2967 29.2954C34.9015 29.116 36.4134 29.1519 36.4134 29.3492C36.4134 29.421 36.7158 29.4748 37.1694 29.4748C37.6532 29.4748 37.9253 29.5287 37.9253 29.6094C37.9253 29.7888 38.2882 29.7799 39.7396 29.5556C40.7073 29.4031 41.1306 29.3851 41.6447 29.4569C42.0075 29.5018 42.6123 29.5466 42.9751 29.5466C43.5194 29.5556 43.6404 29.4928 43.7311 29.2236L43.8218 28.8917L44.9104 29.2416C45.9687 29.5735 46.0594 29.5825 46.6944 29.4479C47.0573 29.3762 47.5109 29.3223 47.7225 29.3403C49.2345 29.4748 49.6578 29.4659 49.809 29.2954C49.9602 29.107 50.6254 29.0442 50.6254 29.2147C50.6254 29.2864 50.7464 29.2864 51.079 29.2057C51.4116 29.125 51.6838 29.1429 52.47 29.3044C53.2259 29.4659 53.5283 29.4838 53.9819 29.4031C54.2843 29.3492 54.5866 29.3313 54.6774 29.3762C54.7681 29.412 55.2821 29.4569 55.8264 29.4659C58.6386 29.5287 58.6386 29.5287 58.7293 29.3134C58.7898 29.2057 59.0014 29.116 59.2433 29.116C59.455 29.116 59.6969 29.0711 59.7574 29.0083C59.9086 28.8738 62.7207 29.0891 62.7207 29.2416C62.7207 29.4031 63.9303 29.5915 64.3536 29.4838C64.8979 29.3492 67.2565 29.2057 67.2565 29.3134C67.2565 29.3672 67.4984 29.3762 67.8008 29.3403C68.466 29.2595 69.3127 29.2057 70.371 29.1519C70.9153 29.1339 71.1875 29.1608 71.1875 29.2506C71.1875 29.3134 71.4596 29.4031 71.7922 29.43C72.1248 29.4569 72.397 29.5287 72.397 29.5825C72.397 29.6363 72.6691 29.6543 73.0018 29.6274C73.4553 29.5915 73.7275 29.6543 74.0903 29.8875C74.6044 30.2015 75.058 30.2643 75.6325 30.0939C75.7837 30.049 76.7211 29.9952 77.6584 29.9862C79.382 29.9683 79.382 29.9683 79.2611 29.7171C79.1099 29.412 79.5635 29.3134 80.0775 29.5287C80.8032 29.8247 86.9416 29.5376 87.4557 29.1788C87.6673 29.0532 88.2116 29.116 88.9373 29.3492C89.4816 29.5287 89.7538 29.5646 90.0259 29.4838C90.419 29.3672 91.4471 29.3492 91.4471 29.4569C91.4471 29.5556 94.0476 29.735 94.4105 29.6632C94.5617 29.6363 94.7431 29.5287 94.8036 29.43C94.9548 29.2057 96.1643 29.1788 96.0433 29.4031C96.0131 29.4838 96.2248 29.5735 96.5876 29.6094C96.9202 29.6363 97.1924 29.7081 97.1924 29.753C97.1924 29.8875 98.281 29.8427 98.7043 29.6991C99.2486 29.5018 99.7626 29.5287 101.184 29.8337C101.879 29.9862 102.605 30.0939 102.817 30.067C103.028 30.04 103.421 30.1028 103.724 30.2015C104.359 30.4169 104.722 30.4169 105.236 30.2105C105.568 30.0849 105.72 30.0759 106.173 30.1746C106.476 30.2374 107.08 30.3271 107.504 30.381C107.957 30.4348 108.381 30.5425 108.471 30.6322C108.683 30.8744 110.497 30.9372 111.102 30.7309C111.344 30.6501 111.797 30.5514 112.07 30.5245C112.372 30.4886 112.523 30.4169 112.432 30.3361C112.039 30.0311 115.093 29.8965 117.361 30.1118C117.906 30.1656 118.51 30.1746 118.722 30.1387C119.448 30.0042 120.294 30.04 121.05 30.2554C121.988 30.5066 122.29 30.5155 122.502 30.2823C122.683 30.0849 122.744 30.0849 123.651 30.1836C123.984 30.2285 124.498 30.2195 124.83 30.1746C125.254 30.1028 125.586 30.1298 126.251 30.2733C126.705 30.381 127.249 30.4617 127.4 30.4617C128.005 30.4617 129.245 30.677 129.245 30.7757C129.245 30.8475 129.547 30.8654 130.001 30.8385C130.454 30.8206 130.757 30.8385 130.757 30.9013C130.757 30.9551 131.09 31 131.513 31C131.936 31 132.269 30.9551 132.269 30.9013C132.269 30.8385 132.571 30.8206 133.055 30.8565C133.72 30.9103 133.811 30.8923 133.66 30.7667C133.509 30.6501 133.63 30.6322 134.295 30.6681C135.262 30.7219 138.014 30.4797 138.014 30.3361C138.014 30.1836 139.405 29.744 139.859 29.744C140.161 29.744 140.463 29.5376 140.736 29.1339C141.159 28.5777 141.25 28.5328 142.036 28.5059C142.489 28.488 142.792 28.4431 142.701 28.3983C142.61 28.3534 142.852 28.2457 143.276 28.156C143.669 28.0663 144.062 27.8959 144.183 27.7882C144.394 27.6088 144.515 27.5819 145.12 27.5908C145.513 27.5998 146.269 27.2948 146.299 27.1153C146.33 26.9897 146.511 26.918 146.874 26.9269C147.146 26.9359 147.388 26.918 147.388 26.8821C147.388 26.8552 147.509 26.595 147.69 26.3079C147.962 25.8145 147.932 25.7696 147.116 25.4377C146.541 25.1954 146.209 24.9263 146.057 24.5674C145.937 24.2893 145.634 23.9843 145.362 23.8946C144.666 23.6703 144.636 22.8539 145.332 22.7103C145.755 22.6206 145.816 22.4502 145.725 21.553C145.634 20.7815 145.725 20.4764 145.997 20.3867C146.239 20.3239 146.33 20.1534 146.239 19.983C146.178 19.8036 146.239 19.6959 146.451 19.6959C146.874 19.6959 146.874 19.364 146.451 19.2922C146.269 19.2563 146.209 19.0589 146.299 18.8257C146.42 18.4219 146.057 18.1707 145.301 18.1707C144.848 18.1707 144.878 17.8567 145.362 17.7401C145.543 17.6953 146.057 17.6325 146.481 17.6145C146.995 17.5966 147.237 17.5338 147.237 17.3992C147.237 17.3005 147.479 17.148 147.781 17.0493C148.144 16.9416 148.235 16.8609 148.023 16.7981C147.811 16.7353 147.842 16.6187 148.083 16.4303C148.567 16.0714 148.416 15.7664 147.66 15.6318C146.995 15.5062 146.904 15.3896 147.509 15.3896C147.932 15.3896 147.932 15.3627 147.509 14.3848C147.358 14.0349 147.418 13.9272 147.962 13.7209C148.325 13.5773 148.507 13.4428 148.356 13.38C147.962 13.2274 147.962 12.8596 148.356 12.725C148.537 12.6533 148.597 12.5815 148.507 12.5456C148.386 12.5187 148.446 12.42 148.597 12.3393C148.809 12.2226 148.779 12.1598 148.477 12.1329C147.811 12.0522 147.69 11.6305 148.295 11.5318C149.021 11.4152 149.777 10.4283 149.202 10.3207C149.021 10.2938 148.9 10.1682 148.9 10.0426C148.9 9.90799 148.718 9.82724 148.446 9.82724C148.204 9.82724 147.993 9.77341 147.993 9.70164C147.993 9.62987 147.6 9.54913 147.086 9.51324C146.451 9.46838 146.178 9.39661 146.178 9.27998C146.178 9.1813 146.299 9.12747 146.481 9.15438C146.632 9.1813 146.844 9.10055 146.965 8.96598C147.086 8.82244 147.025 8.7058 146.813 8.66992C146.541 8.61609 146.572 8.53535 146.934 8.33797C147.176 8.19443 147.388 7.97911 147.388 7.85351C147.388 7.72791 147.6 7.55745 147.811 7.46774C148.114 7.35111 148.204 7.10888 148.114 6.58853C148.053 6.19378 148.114 5.87978 148.265 5.87978C148.416 5.87978 148.477 5.71829 148.386 5.52092C148.265 5.2428 148.325 5.15309 148.718 5.10823C148.96 5.08132 149.474 4.88394 149.837 4.66863C150.382 4.35463 150.412 4.25594 150.109 4.08548C149.807 3.91502 149.837 3.87016 150.382 3.75353C151.107 3.60102 151.228 3.29599 150.563 3.22421C150.2 3.17936 150.14 3.08964 150.291 2.86535C150.412 2.66798 150.351 2.56032 150.14 2.56032C149.958 2.56032 149.535 2.47958 149.202 2.38089C148.628 2.21043 148.537 2.21043 147.902 2.33604C147.539 2.40781 147.146 2.47061 147.025 2.47061C146.572 2.47061 146.783 2.23735 147.388 2.08483C148.597 1.7798 147.811 1.04414 146.42 1.16974C146.118 1.20563 145.634 1.17871 145.392 1.11591C145.15 1.06208 144.485 0.999281 143.88 0.981339C142.761 0.954424 141.189 0.568649 141.189 0.326418C141.189 0.245674 140.675 0.191845 139.617 0.164932C138.195 0.129045 138.014 0.146988 138.014 0.308475C138.014 0.541735 136.502 0.649393 135.535 0.469963C135.081 0.389219 134.144 0.344362 132.874 0.362305C131.785 0.371277 130.696 0.344362 130.424 0.308475C130.152 0.263618 129.275 0.209789 128.459 0.173903C127.642 0.146988 126.856 0.102131 126.705 0.0752163C126.584 0.0483017 126.342 0.0752163 126.221 0.138018C126.1 0.200817 125.677 0.263618 125.284 0.281561C123.651 0.353333 122.744 0.443048 122.532 0.532763C122.351 0.604536 122.29 0.604536 122.29 0.532763C122.29 0.362305 121.111 0.317448 120.808 0.469963C120.597 0.586592 120.476 0.586592 119.629 0.460991C118.994 0.362305 118.631 0.344362 118.48 0.416134C118.389 0.469963 117.875 0.496878 117.392 0.478933C116.908 0.452019 116.454 0.460991 116.394 0.496878C116.303 0.532763 115.668 0.523792 114.972 0.478933C112.705 0.33539 110.195 0.299503 110.195 0.407162C110.195 0.478933 109.862 0.487906 109.257 0.452019C108.562 0.407162 108.229 0.425104 107.957 0.541735C107.655 0.667336 107.443 0.676308 106.959 0.604536C106.627 0.550707 106.264 0.523792 106.173 0.559677C106.052 0.586592 105.78 0.559677 105.538 0.505848C105.296 0.443048 104.964 0.416134 104.812 0.443048C104.631 0.469963 104.359 0.434076 104.147 0.362305C103.724 0.209789 102.938 0.182875 102.938 0.317448C102.938 0.443048 101.819 0.425104 101.637 0.290533C101.516 0.21876 101.184 0.281561 100.609 0.469963C99.6417 0.774994 98.16 0.882652 97.4343 0.69425C97.1621 0.631451 96.7388 0.613506 96.4667 0.640421C96.1643 0.676308 95.7107 0.631451 95.3478 0.532763C94.7128 0.362305 93.2614 0.254646 93.2614 0.389219C93.2614 0.425104 92.7776 0.51482 92.2031 0.577621C91.2354 0.676308 91.0843 0.667336 90.3283 0.460991C89.4514 0.21876 89.028 0.173903 89.028 0.317448C89.028 0.362305 88.8466 0.407162 88.6349 0.407162C88.4233 0.407162 87.7883 0.478933 87.2137 0.577621C86.5485 0.676308 85.7623 0.730137 85.0971 0.703222C83.4642 0.649393 81.4685 0.478933 81.4685 0.407162C81.4685 0.308475 80.2589 0.407162 79.503 0.559677C78.6261 0.739107 78.1725 0.703222 78.233 0.460991C78.2632 0.33539 78.1725 0.236704 78.0213 0.236704C77.8701 0.245674 77.6584 0.191845 77.5375 0.138018C77.2654 0.00344467 75.4813 -0.0503845 75.2394 0.0572739Z" fill="black"/>
</svg>
