<svg width="150" height="205" viewBox="0 0 150 205" fill="none" xmlns="http://www.w3.org/2000/svg">
<g clip-path="url(#clip0_1083_105)">
<path d="M127.602 17.4708C124.692 17.8129 122.207 18.231 122.116 18.459C121.965 18.6871 120.51 18.7251 117.873 18.497C113.054 18.1169 92.7479 18.0409 92.9297 18.421C93.1419 18.8391 91.8386 18.9151 89.2928 18.6491C87.9592 18.535 85.7771 18.573 84.4435 18.7631C79.6852 19.4852 77.3212 19.5992 76.8969 19.1432C76.5635 18.8391 76.1088 18.8771 75.0481 19.2572C73.6842 19.7893 72.6234 19.7133 71.9567 19.0671C71.7748 18.8771 70.5019 18.9151 69.138 19.1051C67.7742 19.2952 64.2282 19.3712 61.2883 19.2952C58.3484 19.1812 51.7716 19.0291 46.6799 18.9151C41.5882 18.8011 35.8903 18.535 34.0112 18.307C32.1321 18.0789 30.3137 18.0409 29.9803 18.155C29.6469 18.307 28.7074 18.193 27.8891 17.9649C26.2827 17.4708 24.4643 17.9269 24.04 18.9151C23.7672 19.4852 19.615 19.7893 18.7361 19.2952C17.9784 18.9151 2.52138 19.5992 2.15769 20.0553C2.00615 20.2454 1.76368 23.628 1.61214 27.5808C1.39999 33.548 1.4303 34.6882 1.79399 34.6882C2.12738 34.6882 2.15769 35.1823 1.97584 37.2347C1.8243 38.679 1.70307 41.1875 1.67276 42.8598C1.61214 45.8244 0.763525 50.2713 0.248291 50.2713C-0.176019 50.2713 -0.0244795 52.2097 0.460446 52.7798C1.0666 53.54 1.0363 54.6802 0.430138 54.9843C0.00582831 55.2123 -0.0547874 55.6684 0.0967519 58.1769C0.217983 59.7732 0.369523 62.4717 0.460446 64.1441C0.581677 65.8164 0.793832 67.5267 0.97568 67.9828C1.15753 68.5149 1.15753 69.9592 0.945372 72.4297C0.702909 75.0902 0.702909 77.6367 0.97568 81.8936C1.15753 85.0862 1.27876 88.3169 1.21814 89.039C1.12722 90.4073 1.09691 92.8778 1.09691 98.7309C1.09691 100.593 1.09691 105.154 1.09691 108.803C1.09691 112.452 1.12722 115.948 1.15753 116.594C1.18783 117.203 1.12722 119.141 1.0363 120.889C0.945372 122.6 1.00599 125.184 1.18783 126.59C1.39999 128.377 1.39999 130.239 1.18783 132.558C1.0363 134.458 0.884756 138.715 0.884756 142.06C0.884756 145.404 0.733217 151.257 0.55137 155.096C0.217983 162.318 0.217983 162.166 1.49091 168.475C1.73338 169.577 1.76368 169.615 1.79399 168.855L1.8243 167.905L2.27892 169.007C2.582 169.729 2.67292 170.565 2.52138 171.629C2.36984 172.846 2.27892 173.036 2.09707 172.466C1.94553 171.857 1.85461 171.819 1.73338 172.276C1.46061 173.112 0.915064 190.633 0.915064 197.817V204.088L2.76384 204.354C5.76432 204.734 12.9473 204.62 12.432 204.202C12.0987 203.936 12.523 203.86 13.7959 203.86C15.2507 203.898 15.4628 203.974 14.8567 204.24C14.2808 204.506 14.3717 204.506 15.3113 204.354C15.9781 204.24 17.1298 204.088 17.8875 203.974L19.2513 203.822L18.3421 204.392L17.4328 205L18.3421 204.772C22.2215 203.784 22.8276 203.708 23.7672 204.126C24.9189 204.658 29.8894 204.734 28.9498 204.202C28.1921 203.784 27.2223 203.822 41.9519 203.708C50.9533 203.632 53.772 203.518 53.8932 203.138C54.0447 202.568 55.6814 202.53 55.8329 203.138C56.0147 203.822 63.5614 204.392 66.0466 203.936C67.1377 203.708 68.1985 203.67 68.35 203.822C68.8047 204.24 86.7469 204.62 86.5347 204.24C86.2317 203.594 87.1106 203.556 88.7775 204.088C90.1111 204.544 90.6869 204.544 91.7174 204.202C92.6569 203.86 97.5971 203.822 111.114 204.012C121.116 204.126 129.966 204.278 130.845 204.278C131.693 204.316 132.603 204.126 132.815 203.898C133.118 203.594 133.815 203.594 135.149 203.822C137.028 204.164 144.877 203.86 143.968 203.518C143.726 203.404 143.453 203.214 143.362 203.062C143.271 202.91 142.453 202.301 141.544 201.693C139.695 200.515 137.937 200.249 132.391 200.211C130.633 200.211 129.208 200.135 129.269 200.021C129.329 199.907 127.784 199.907 125.844 199.945C123.874 200.021 119.328 199.907 115.661 199.641C110.963 199.337 108.932 199.337 108.72 199.603C108.478 199.907 108.538 200.021 108.963 200.021C109.266 200.021 109.447 200.135 109.357 200.249C109.235 200.363 108.538 200.173 107.75 199.831C106.689 199.413 106.205 199.337 105.932 199.641C105.629 199.945 104.144 199.983 100.87 199.717C98.3245 199.565 95.2331 199.451 94.0208 199.527C92.7782 199.603 91.6265 199.527 91.4446 199.337C91.1112 198.995 78.6547 199.261 61.6823 199.945C56.53 200.173 54.8024 200.135 54.0447 199.755C52.984 199.223 51.4686 199.375 49.0136 200.249C48.2256 200.515 47.377 200.667 47.1648 200.553C46.9224 200.439 46.0131 200.515 45.1342 200.705C43.9219 201.009 43.437 200.971 43.1642 200.591C42.9521 200.325 42.8611 199.983 42.9824 199.831C43.1036 199.679 41.1639 199.641 38.6483 199.717C36.1631 199.831 33.7385 199.793 33.2838 199.603C32.8292 199.451 32.3746 199.451 32.2837 199.603C32.1321 199.945 33.7082 200.363 35.3145 200.439C36.1934 200.477 36.2237 200.477 35.466 200.781C34.1325 201.313 31.7381 201.161 29.4044 200.401C27.5254 199.755 25.9494 199.603 20.4636 199.527C16.7964 199.451 14.6142 199.527 15.6144 199.641C16.6145 199.793 17.3116 199.945 17.1298 199.983C16.9782 200.059 17.1601 200.211 17.5844 200.363C18.1602 200.591 17.7359 200.743 15.9175 200.971C14.2202 201.161 13.4928 201.123 13.4019 200.819C13.3413 200.591 12.8564 200.401 12.3411 200.401C11.4319 200.363 11.4016 200.363 11.9774 199.831C12.4927 199.299 12.2805 199.261 9.85588 199.299C8.34049 199.337 6.73417 199.147 6.21894 198.919C5.46124 198.539 5.27939 198.539 4.97632 199.071C4.40047 200.059 4.27924 198.919 4.76416 196.98C5.24909 195.042 5.58247 184.704 5.12786 185.616C4.94601 185.996 4.85508 185.768 4.85508 184.818C4.85508 184.096 4.73385 182.842 4.58231 182.043C4.43077 181.245 4.43077 180.561 4.58231 180.409C4.94601 180.143 4.9157 176.95 4.55201 176.646C4.37016 176.532 4.24893 175.772 4.24893 175.012C4.24893 173.91 4.33985 173.72 4.58231 174.176C4.82478 174.632 4.88539 174.48 4.79447 173.53C4.70355 172.846 4.76416 172.39 4.88539 172.504C5.27939 172.808 5.03693 165.662 4.64293 165.13C4.21862 164.56 4.18831 162.127 4.55201 160.303C4.76416 159.315 4.79447 159.467 4.82478 161.139C4.82478 162.242 5.00662 163.154 5.15816 163.154C5.58247 163.154 5.52186 160.037 5.00662 156.502C4.58231 153.424 4.70355 148.939 5.18847 149.927C5.49155 150.535 5.58247 147.571 5.46124 138.639C5.24909 122.638 5.3097 118.495 5.7037 117.203C5.91586 116.518 6.00678 115.834 5.88555 115.682C5.76432 115.568 5.61278 115.682 5.55217 115.948C5.46124 116.176 5.27939 116.328 5.12786 116.176C4.70355 115.872 4.79447 111.539 5.21878 111.387C5.49155 111.273 5.49155 110.475 5.21878 108.005C5.00662 106.256 4.88539 104.128 4.88539 103.292C4.9157 101.848 4.94601 101.81 5.12786 102.912C5.52186 104.85 5.85524 100.251 5.64309 96.5645C5.52186 94.8162 5.43093 92.7257 5.46124 91.8896C5.46124 91.0534 5.24909 89.153 4.94601 87.6327C4.58231 85.5803 4.5217 84.5161 4.73385 83.2619C4.97632 81.7796 4.85508 76.1925 4.43077 68.705C4.33985 67.0327 4.37016 66.3105 4.55201 66.8046C4.70355 67.2227 4.82478 68.0589 4.85508 68.705C4.85508 69.6172 4.9157 69.7312 5.15816 69.1991C5.37032 68.819 5.37032 67.3367 5.15816 65.0182C4.79447 60.6474 4.79447 60.6094 5.15816 61.2935C5.3097 61.5976 5.46124 62.2817 5.46124 62.8138C5.52186 64.5242 5.97648 62.5098 6.12801 59.7732L6.30986 57.3027L5.85524 58.899C5.61278 59.8112 5.3097 60.5334 5.15816 60.5334C5.03693 60.5334 4.94601 59.2791 5.00662 57.7588C5.03693 56.2765 5.09755 54.1101 5.12786 53.0079C5.15816 51.6016 5.24909 51.0695 5.49155 51.2595C5.76432 51.4496 5.79463 51.2215 5.64309 50.4234C5.12786 47.6868 5.09755 45.4444 5.58247 44.2661C6.21894 42.7458 6.21894 42.0237 5.61278 42.6698C5.21878 43.0879 5.15816 42.7078 5.12786 39.7812C5.06724 31.3436 4.82478 26.7447 4.40047 25.6805C4.158 25.1103 3.94585 24.2362 3.94585 23.8181C3.94585 23.0579 4.09739 22.9819 6.18863 23.0199C7.43125 23.0579 8.3708 23.21 8.31018 23.362C8.09802 23.7801 8.46172 23.7421 11.9168 23.0579C13.5837 22.7159 15.4628 22.5258 16.0993 22.6018C16.8267 22.6779 17.3116 22.5638 17.4025 22.2598C17.4935 22.0317 18.1602 21.6897 18.9179 21.5756C20.3424 21.3096 20.7364 20.8155 19.7969 20.5114C19.4938 20.3974 19.7969 20.3214 20.4636 20.2834C21.1304 20.2454 22.0093 20.1313 22.4033 19.9793C22.9186 19.8273 23.0701 19.8653 22.9186 20.1694C22.7973 20.4354 22.8883 20.6254 23.161 20.6254C23.4338 20.6254 23.646 20.7775 23.646 20.9675C23.646 21.4616 22.6761 21.6897 21.979 21.3856C21.3729 21.0815 19.7059 21.8797 19.7059 22.4498C19.7059 22.6398 20.2515 22.7159 20.8879 22.6398C21.5547 22.6018 22.1912 22.7159 22.2821 22.9059C22.4033 23.1339 22.5549 23.21 22.6761 23.1339C22.7973 23.0579 23.9793 23.1339 25.3129 23.286C27.3738 23.552 28.3437 23.438 31.9806 22.5258C34.3143 21.9177 37.0723 21.3476 38.0725 21.2336C39.891 20.9675 39.9213 21.0055 39.8 21.8417C39.6788 22.6779 39.497 22.7159 36.7389 22.8299C34.0719 22.9059 33.3445 23.0579 33.6778 23.438C33.7385 23.514 34.7689 23.4 35.9812 23.248C37.3148 23.0199 38.6786 23.0199 39.4666 23.248C40.4062 23.514 40.8002 23.514 40.982 23.172C41.2245 22.6779 45.9525 22.4118 50.7715 22.6018C55.8026 22.7919 63.1977 22.7159 64.804 22.4498C66.2285 22.2218 66.38 22.2598 66.077 22.7159C65.6526 23.362 65.592 23.362 70.5322 21.0815C72.6234 20.0933 73.0174 19.9793 73.169 20.4734C73.5024 21.5376 73.3508 22.6398 72.8356 23.1339C72.3507 23.59 72.4719 23.628 73.6842 23.666C75.2299 23.666 75.6239 23.4 75.139 22.6398C74.7147 22.0317 74.8359 22.0317 77.4424 22.7159C78.5941 23.0199 79.6246 23.1339 79.7155 22.9439C79.9276 22.5258 81.1096 21.7657 81.5036 21.7657C81.6855 21.7657 81.837 22.1077 81.837 22.4878C81.837 23.172 81.8976 23.172 83.3827 22.6398C84.8072 22.1077 84.9284 22.1077 85.2921 22.7539C85.6558 23.324 86.0498 23.362 88.6866 23.172C90.3535 23.0579 92.4448 22.6018 93.354 22.2218C94.2633 21.8417 95.6574 21.3856 96.4151 21.2716C97.688 21.0435 97.779 21.0815 97.779 21.8797C97.7486 23.172 98.8094 23.0959 101.295 21.6517C102.507 20.9295 104.113 20.1313 104.871 19.8653C106.083 19.4472 111.084 19.0671 110.811 19.3712C110.629 19.5992 103.871 22.4118 102.81 22.7159C101.507 23.0579 101.871 23.666 103.447 23.7041C104.477 23.7041 104.598 23.7801 104.113 24.0841C103.325 24.5402 108.72 24.2362 110.629 23.7041C111.721 23.4 111.387 23.362 108.963 23.514C106.477 23.666 106.053 23.628 106.538 23.248C107.508 22.4878 110.326 21.7657 112.387 21.7657C114.266 21.7657 114.721 22.1458 113.751 22.9059C113.327 23.248 113.66 23.286 115.115 23.0959C116.6 22.9059 116.994 22.9819 116.812 23.324C116.661 23.628 116.812 23.7041 117.328 23.552C119.873 22.7539 122.995 22.9439 125.147 23.9701C125.45 24.1221 125.389 23.8181 124.935 23.1339C124.298 22.0697 124.026 19.7133 124.51 19.3712C124.723 19.1812 129.693 20.0553 130.724 20.4734C131.451 20.7775 131.36 21.3476 130.481 21.8417C129.178 22.5638 129.633 22.7919 132.087 22.6018C133.36 22.5258 135.421 22.4498 136.634 22.4878C137.816 22.4878 138.816 22.3738 138.816 22.1838C138.816 21.4236 143.029 20.0553 143.514 20.6635C143.665 20.8535 144.514 21.0055 145.393 21.0055H146.999L146.817 25.8325C146.726 28.531 146.514 31.3056 146.362 32.0277C146.15 33.0539 146.211 33.396 146.544 33.662C147.454 34.2702 148.726 43.0499 148.181 44.8362C147.817 45.9765 147.878 49.2071 148.363 51.6016C148.848 54.0721 148.969 58.899 148.575 59.6972C148.423 59.9632 148.09 60.0773 147.757 59.9252C147.302 59.6972 147.241 59.3171 147.363 56.9606C147.423 55.4784 147.423 53.654 147.302 52.9319C147.211 52.2097 147.06 55.8584 146.969 61.1035C146.878 66.3105 146.908 71.0234 147.029 71.5555C147.241 72.4297 147.241 72.3917 147.302 71.1755C147.363 70.3013 147.423 70.1113 147.514 70.6054C147.605 71.0234 147.817 71.5555 147.969 71.8216C148.423 72.5057 148.666 80.9054 148.242 81.2095C148.06 81.3615 147.938 82.3497 147.938 83.4519C147.969 84.5541 148.029 85.1242 148.12 84.7442C148.423 83.2999 148.757 84.2501 149.09 87.5947C149.302 89.5331 149.545 91.2054 149.636 91.3195C149.727 91.4335 149.727 89.4571 149.636 86.9486C149.545 84.4401 149.575 81.2095 149.727 79.7652C149.999 77.0666 149.818 74.1781 149.424 74.9762C149.151 75.5463 148.817 69.8832 148.939 66.9186C148.969 65.7404 149.211 64.4861 149.424 64.1441C149.908 63.3839 149.969 58.595 149.666 41.9097C149.575 35.7524 149.575 31.1155 149.727 31.6476L149.969 32.5978L149.999 31.6476C149.999 31.1155 149.878 29.4052 149.696 27.8469C149.514 25.8325 149.514 23.9321 149.757 21.4616C149.939 19.5232 150.06 17.8509 149.969 17.7749C149.818 17.5848 142.513 17.1288 136.997 17.0147C134.755 16.9387 130.511 17.1668 127.602 17.4708ZM19.615 200.249C19.5241 200.363 19.2513 200.401 19.0392 200.287C18.7967 200.173 18.8876 200.059 19.221 200.059C19.5544 200.021 19.7362 200.135 19.615 200.249Z" fill="black"/>
<path d="M22.3981 206.524C25.3077 206.178 27.7929 205.756 27.8838 205.525C28.0354 205.295 29.4902 205.257 32.1269 205.487C36.9459 205.871 57.2521 205.948 57.0703 205.564C56.8581 205.141 58.1614 205.065 60.7072 205.333C62.0408 205.449 64.2229 205.41 65.5565 205.218C70.3148 204.488 72.6788 204.373 73.1031 204.834C73.4365 205.141 73.8912 205.103 74.9519 204.719C76.3158 204.181 77.3766 204.258 78.0433 204.911C78.2252 205.103 79.4981 205.065 80.862 204.872C82.2258 204.68 85.7718 204.604 88.7117 204.68C91.6516 204.796 98.2284 204.949 103.32 205.065C108.412 205.18 114.11 205.449 115.989 205.679C117.868 205.91 119.686 205.948 120.02 205.833C120.353 205.679 121.293 205.794 122.111 206.025C123.717 206.524 125.536 206.063 125.96 205.065C126.233 204.488 130.385 204.181 131.264 204.68C132.022 205.065 147.479 204.373 147.842 203.912C147.994 203.72 148.236 200.301 148.388 196.307C148.6 190.276 148.57 189.124 148.206 189.124C147.873 189.124 147.842 188.624 148.024 186.55C148.176 185.09 148.297 182.555 148.327 180.865C148.388 177.869 149.236 173.375 149.752 173.375C150.176 173.375 150.024 171.416 149.54 170.84C148.933 170.071 148.964 168.919 149.57 168.612C149.994 168.381 150.055 167.92 149.903 165.385C149.782 163.772 149.63 161.045 149.54 159.354C149.418 157.664 149.206 155.936 149.024 155.475C148.842 154.937 148.842 153.477 149.055 150.981C149.297 148.292 149.297 145.718 149.024 141.416C148.842 138.189 148.721 134.924 148.782 134.195C148.873 132.812 148.903 130.315 148.903 124.4C148.903 122.517 148.903 117.908 148.903 114.22C148.903 110.533 148.873 106.999 148.842 106.346C148.812 105.731 148.873 103.772 148.964 102.005C149.055 100.277 148.994 97.6649 148.812 96.2437C148.6 94.4383 148.6 92.5562 148.812 90.213C148.964 88.2924 149.115 83.9903 149.115 80.6101C149.115 77.2298 149.267 71.3144 149.449 67.4348C149.782 60.1365 149.782 60.2902 148.509 53.9138C148.267 52.7999 148.236 52.7615 148.206 53.5297L148.176 54.49L147.721 53.376C147.418 52.6462 147.327 51.8012 147.479 50.7256C147.63 49.4964 147.721 49.3044 147.903 49.8806C148.054 50.4952 148.145 50.5336 148.267 50.0726C148.539 49.2276 149.085 31.5197 149.085 24.2598V17.9219L147.236 17.653C144.236 17.2689 137.053 17.3841 137.568 17.8066C137.901 18.0755 137.477 18.1524 136.204 18.1524C134.749 18.1139 134.537 18.0371 135.143 17.7682C135.719 17.4994 135.628 17.4994 134.689 17.653C134.022 17.7682 132.87 17.9219 132.113 18.0371L130.749 18.1908L131.658 17.6146L132.567 17L131.658 17.2305C127.779 18.2292 127.172 18.306 126.233 17.8835C125.081 17.3457 120.111 17.2689 121.05 17.8066C121.808 18.2292 122.778 18.1908 108.048 18.306C99.0467 18.3828 96.228 18.4981 96.1068 18.8822C95.9553 19.4584 94.3186 19.4968 94.1671 18.8822C93.9853 18.1908 86.4386 17.6146 83.9534 18.0755C82.8623 18.306 81.8015 18.3444 81.65 18.1908C81.1953 17.7682 63.2531 17.3841 63.4653 17.7682C63.7683 18.4212 62.8894 18.4597 61.2225 17.9219C59.8889 17.4609 59.3131 17.4609 58.2826 17.8066C57.3431 18.1524 52.4029 18.1908 38.8856 17.9987C28.884 17.8835 20.0341 17.7298 19.1552 17.7298C18.3065 17.6914 17.3973 17.8835 17.1852 18.1139C16.8821 18.4212 16.185 18.4212 14.8515 18.1908C12.9724 17.8451 5.12263 18.1524 6.03188 18.4981C6.27434 18.6133 6.5471 18.8054 6.63803 18.959C6.72896 19.1127 7.54727 19.7272 8.4565 20.3418C10.3053 21.5326 12.0631 21.8015 17.6095 21.8399C19.3673 21.8399 20.7918 21.9167 20.7312 22.032C20.6706 22.1472 22.2163 22.1472 24.156 22.1088C26.126 22.032 30.6722 22.1472 34.3394 22.4161C39.0371 22.7234 41.0677 22.7234 41.2799 22.4545C41.5224 22.1472 41.4618 22.032 41.0374 22.032C40.7344 22.032 40.5525 21.9167 40.6434 21.8015C40.7647 21.6862 41.4618 21.8783 42.2498 22.224C43.3105 22.6465 43.7955 22.7234 44.0682 22.4161C44.3713 22.1088 45.8564 22.0704 49.1296 22.3393C51.6755 22.4929 54.7669 22.6081 55.9792 22.5313C57.2218 22.4545 58.3735 22.5313 58.5554 22.7234C58.8888 23.0691 71.3453 22.8002 88.3177 22.1088C93.47 21.8783 95.1976 21.9167 95.9553 22.3008C97.016 22.8386 98.5314 22.685 100.986 21.8015C101.774 21.5326 102.623 21.379 102.835 21.4942C103.078 21.6094 103.987 21.5326 104.866 21.3405C106.078 21.0332 106.563 21.0717 106.836 21.4558C107.048 21.7247 107.139 22.0704 107.018 22.224C106.896 22.3777 108.836 22.4161 111.352 22.3393C113.837 22.224 116.262 22.2624 116.716 22.4545C117.171 22.6081 117.625 22.6081 117.716 22.4545C117.868 22.1088 116.292 21.6862 114.686 21.6094C113.807 21.571 113.776 21.571 114.534 21.2637C115.868 20.726 118.262 20.8796 120.596 21.6478C122.475 22.3008 124.051 22.4545 129.536 22.5313C133.204 22.6081 135.386 22.5313 134.386 22.4161C133.385 22.2624 132.688 22.1088 132.87 22.0704C133.022 21.9935 132.84 21.8399 132.416 21.6862C131.84 21.4558 132.264 21.3021 134.083 21.0717C135.78 20.8796 136.507 20.918 136.598 21.2253C136.659 21.4558 137.144 21.6478 137.659 21.6478C138.568 21.6862 138.598 21.6862 138.023 22.224C137.507 22.7618 137.719 22.8002 140.144 22.7618C141.66 22.7234 143.266 22.9154 143.781 23.1459C144.539 23.53 144.721 23.53 145.024 22.9923C145.6 21.9935 145.721 23.1459 145.236 25.1049C144.751 27.0639 144.418 37.5119 144.872 36.5901C145.054 36.2059 145.145 36.4364 145.145 37.3967C145.145 38.1265 145.266 39.3941 145.418 40.2008C145.569 41.0074 145.569 41.6988 145.418 41.8525C145.054 42.1214 145.084 45.348 145.448 45.6553C145.63 45.7705 145.751 46.5387 145.751 47.307C145.751 48.4209 145.66 48.613 145.418 48.152C145.175 47.6911 145.115 47.8447 145.206 48.805C145.296 49.4964 145.236 49.9574 145.115 49.8421C144.721 49.5349 144.963 56.7563 145.357 57.2941C145.781 57.8702 145.812 60.3286 145.448 62.1724C145.236 63.1711 145.206 63.0174 145.175 61.3273C145.175 60.2134 144.993 59.2915 144.842 59.2915C144.418 59.2915 144.478 62.4412 144.993 66.0135C145.418 69.1249 145.296 73.6575 144.812 72.6588C144.508 72.0442 144.418 75.0403 144.539 84.0671C144.751 100.239 144.69 104.425 144.296 105.731C144.084 106.423 143.993 107.114 144.114 107.268C144.236 107.383 144.387 107.268 144.448 106.999C144.539 106.769 144.721 106.615 144.872 106.769C145.296 107.076 145.206 111.455 144.781 111.608C144.508 111.724 144.508 112.53 144.781 115.027C144.993 116.794 145.115 118.945 145.115 119.79C145.084 121.25 145.054 121.288 144.872 120.174C144.478 118.215 144.145 122.863 144.357 126.589C144.478 128.356 144.569 130.469 144.539 131.314C144.539 132.159 144.751 134.079 145.054 135.616C145.418 137.69 145.478 138.766 145.266 140.033C145.024 141.531 145.145 147.178 145.569 154.745C145.66 156.435 145.63 157.165 145.448 156.666C145.296 156.243 145.175 155.398 145.145 154.745C145.145 153.823 145.084 153.708 144.842 154.246C144.63 154.63 144.63 156.128 144.842 158.471C145.206 162.888 145.206 162.927 144.842 162.235C144.69 161.928 144.539 161.237 144.539 160.699C144.478 158.97 144.024 161.006 143.872 163.772L143.69 166.269L144.145 164.655C144.387 163.733 144.69 163.004 144.842 163.004C144.963 163.004 145.054 164.271 144.993 165.808C144.963 167.306 144.902 169.495 144.872 170.609C144.842 172.03 144.751 172.568 144.508 172.376C144.236 172.184 144.205 172.414 144.357 173.221C144.872 175.987 144.902 178.253 144.418 179.444C143.781 180.98 143.781 181.71 144.387 181.057C144.781 180.635 144.842 181.019 144.872 183.976C144.933 192.504 145.175 197.152 145.6 198.227C145.842 198.803 146.054 199.687 146.054 200.109C146.054 200.878 145.903 200.954 143.811 200.916C142.569 200.878 141.629 200.724 141.69 200.57C141.902 200.148 141.538 200.186 138.083 200.878C136.416 201.223 134.537 201.415 133.901 201.339C133.173 201.262 132.688 201.377 132.597 201.684C132.507 201.915 131.84 202.26 131.082 202.376C129.658 202.645 129.264 203.144 130.203 203.451C130.506 203.566 130.203 203.643 129.536 203.682C128.87 203.72 127.991 203.835 127.597 203.989C127.081 204.143 126.93 204.104 127.081 203.797C127.203 203.528 127.112 203.336 126.839 203.336C126.566 203.336 126.354 203.182 126.354 202.99C126.354 202.491 127.324 202.26 128.021 202.568C128.627 202.875 130.294 202.068 130.294 201.492C130.294 201.3 129.749 201.223 129.112 201.3C128.445 201.339 127.809 201.223 127.718 201.031C127.597 200.801 127.445 200.724 127.324 200.801C127.203 200.878 126.021 200.801 124.687 200.647C122.626 200.378 121.656 200.493 118.019 201.415C115.686 202.03 112.928 202.606 111.928 202.721C110.109 202.99 110.079 202.952 110.2 202.107C110.321 201.262 110.503 201.223 113.261 201.108C115.928 201.031 116.656 200.878 116.322 200.493C116.262 200.417 115.231 200.532 114.019 200.686C112.685 200.916 111.321 200.916 110.533 200.686C109.594 200.417 109.2 200.417 109.018 200.762C108.775 201.262 104.047 201.531 99.2285 201.339C94.1974 201.147 86.8023 201.223 85.196 201.492C83.7715 201.723 83.62 201.684 83.923 201.223C84.3474 200.57 84.408 200.57 79.4678 202.875C77.3766 203.874 76.9826 203.989 76.831 203.49C76.4976 202.414 76.6492 201.3 77.1644 200.801C77.6493 200.34 77.5281 200.301 76.3158 200.263C74.7701 200.263 74.3761 200.532 74.861 201.3C75.2853 201.915 75.1641 201.915 72.5576 201.223C71.4059 200.916 70.3754 200.801 70.2845 200.993C70.0724 201.415 68.8904 202.184 68.4964 202.184C68.3145 202.184 68.163 201.838 68.163 201.454C68.163 200.762 68.1024 200.762 66.6173 201.3C65.1928 201.838 65.0716 201.838 64.7079 201.185C64.3442 200.609 63.9502 200.57 61.3134 200.762C59.6465 200.878 57.5552 201.339 56.646 201.723C55.7367 202.107 54.3426 202.568 53.5849 202.683C52.312 202.913 52.221 202.875 52.221 202.068C52.2514 200.762 51.1906 200.839 48.7053 202.299C47.493 203.029 45.8867 203.835 45.129 204.104C43.9167 204.527 38.9159 204.911 39.1887 204.604C39.3705 204.373 46.1292 201.531 47.1899 201.223C48.4932 200.878 48.1295 200.263 46.5535 200.225C45.523 200.225 45.4018 200.148 45.8867 199.84C46.6747 199.38 41.2799 199.687 39.3705 200.225C38.2794 200.532 38.6128 200.57 41.0374 200.417C43.5227 200.263 43.947 200.301 43.4621 200.686C42.4922 201.454 39.6736 202.184 37.6127 202.184C35.7336 202.184 35.279 201.8 36.2488 201.031C36.6731 200.686 36.3397 200.647 34.8849 200.839C33.3999 201.031 33.0059 200.954 33.1877 200.609C33.3392 200.301 33.1877 200.225 32.6725 200.378C30.1266 201.185 27.0049 200.993 24.8531 199.956C24.55 199.802 24.6106 200.109 25.0652 200.801C25.7017 201.876 25.9744 204.258 25.4895 204.604C25.2774 204.796 20.3069 203.912 19.2764 203.49C18.549 203.182 18.6399 202.606 19.5189 202.107C20.8221 201.377 20.3675 201.147 17.9126 201.339C16.6396 201.415 14.5787 201.492 13.3664 201.454C12.1844 201.454 11.1842 201.569 11.1842 201.761C11.1842 202.529 6.97142 203.912 6.4865 203.298C6.33495 203.106 5.48633 202.952 4.60741 202.952H3.00108L3.18294 198.074C3.27386 195.346 3.48601 192.542 3.63756 191.812C3.8497 190.775 3.78909 190.43 3.4557 190.161C2.54646 189.546 1.27354 180.673 1.81908 178.868C2.18277 177.715 2.12216 174.45 1.63724 172.03C1.15231 169.534 1.03108 164.655 1.42508 163.849C1.57661 163.58 1.91 163.464 2.24339 163.618C2.69801 163.849 2.75862 164.233 2.63739 166.614C2.57678 168.112 2.57678 169.956 2.69801 170.686C2.78894 171.416 2.94048 167.728 3.0314 162.427C3.12231 157.165 3.09201 152.402 2.97078 151.864C2.75862 150.981 2.75862 151.019 2.69801 152.248C2.63739 153.132 2.57678 153.324 2.48586 152.824C2.39493 152.402 2.18277 151.864 2.03123 151.595C1.57661 150.904 1.33415 142.415 1.75847 142.107C1.94031 141.954 2.06154 140.955 2.06154 139.841C2.03123 138.727 1.97063 138.151 1.8797 138.535C1.57661 139.995 1.24324 139.035 0.909851 135.654C0.697693 133.695 0.455231 132.005 0.364304 131.89C0.273376 131.775 0.273376 133.772 0.364304 136.307C0.455231 138.842 0.424927 142.107 0.273376 143.567C0.000610352 146.294 0.182465 149.214 0.576462 148.407C0.849228 147.831 1.18262 153.554 1.06139 156.55C1.03108 157.741 0.78862 159.009 0.576462 159.354C0.0915375 160.123 0.0309143 164.963 0.334 181.825C0.424927 188.048 0.424927 192.734 0.273376 192.197L0.0309143 191.236L0.000610352 192.197C0.000610352 192.734 0.121841 194.463 0.303696 196.038C0.485535 198.074 0.485535 199.994 0.243073 202.491C0.0612335 204.45 -0.0599976 206.14 0.0309143 206.217C0.182465 206.409 7.48665 206.87 13.0027 206.985C15.2455 207.062 19.4886 206.831 22.3981 206.524ZM130.385 21.8015C130.476 21.6862 130.749 21.6478 130.961 21.7631C131.203 21.8783 131.112 21.9935 130.779 21.9935C130.446 22.032 130.264 21.9167 130.385 21.8015Z" fill="black"/>
</g>
<path d="M72.9708 2.39907C73.0275 2.57616 72.994 2.63816 72.821 2.6686L72.6711 2.69307L72.7598 2.75266C72.8194 2.79568 72.8381 2.82264 72.8215 2.83924C72.7965 2.86415 72.4863 3.01475 72.3042 3.09421C72.2567 3.11317 72.2289 3.18087 72.2125 3.30562L72.1836 3.48846L71.6878 4.00145C71.4153 4.28532 71.188 4.53545 71.1877 4.56423C71.1825 4.59224 71.0831 4.70874 70.957 4.82344C70.8358 4.93891 70.6653 5.13792 70.5766 5.26089C70.4535 5.44094 70.3747 5.51982 70.2112 5.62624C70.0569 5.72929 69.9676 5.81855 69.8492 5.98252C69.7646 6.10134 69.5952 6.32213 69.4724 6.47339C69.3517 6.62258 69.2178 6.82493 69.177 6.91702C69.1152 7.05865 69.0828 7.09679 69.0032 7.1251C68.8683 7.16875 68.5307 7.51204 68.3114 7.8283C68.0804 8.16193 67.2661 8.94196 66.8713 9.21137C66.6391 9.36944 66.5553 9.44755 66.4107 9.64343C66.1333 10.0178 65.0084 11.2054 63.1074 13.1406L62.2433 14.0161L62.1424 13.9858L62.0387 13.9527L62.0223 14.0774C62.0072 14.1952 61.9748 14.2333 61.6414 14.5268C61.4439 14.7072 61.2065 14.8933 61.1139 14.946C60.9704 15.0267 60.9172 15.0856 60.7516 15.331C60.6123 15.5445 60.5266 15.6416 60.4444 15.6839C60.2667 15.776 59.5058 16.6053 59.4347 16.7791C59.3453 17.0053 58.6897 17.5868 58.4858 17.6196C58.3388 17.647 58.2199 17.7316 58.1587 17.8613C58.128 17.9261 58.114 17.9287 58.0274 17.867C57.9784 17.8305 57.876 17.7904 57.805 17.7816L57.6699 17.7627L57.6046 18.0047C57.5514 18.2006 57.522 18.2584 57.4364 18.3098C57.3773 18.3462 57.2989 18.4131 57.2553 18.4567C57.2125 18.5052 57.1339 18.5553 57.0794 18.5756C56.9998 18.6039 56.9632 18.6462 56.8895 18.7883C56.8396 18.8838 56.754 19.0265 56.6989 19.1043C56.6102 19.2273 56.5816 19.2444 56.4909 19.2325C56.4318 19.2232 56.3542 19.2495 56.3015 19.2964C56.2273 19.3592 56.2146 19.4005 56.2285 19.5348C56.2543 19.7599 56.2013 19.8813 56.0145 20.0225C55.7305 20.2324 55.7401 20.2171 55.8113 20.3341C55.9178 20.507 55.9162 20.5428 55.7966 20.6224C55.732 20.6699 55.6671 20.7462 55.6401 20.8189C55.5962 20.9369 55.5942 20.9389 55.4246 20.9147C55.3338 20.9028 55.2223 20.866 55.177 20.8373L55.0961 20.7813L55.1346 20.9195C55.1672 21.0351 55.1566 21.0743 55.0881 21.1428C55.0113 21.2196 55.0108 21.2316 55.0802 21.2761C55.3312 21.4357 55.4162 21.5332 55.5768 21.8515C55.7301 22.1544 55.748 22.1764 56.179 22.6406C56.4281 22.9104 56.6895 23.2134 56.7743 23.3397C56.9171 23.5447 56.9378 23.5696 57.0516 23.6211C57.1499 23.6654 57.1776 23.689 57.2025 23.7554C57.2273 23.8218 57.255 23.8454 57.3349 23.8795C57.4127 23.9158 57.4547 23.9536 57.5158 24.0521C57.5827 24.1564 57.6246 24.1942 57.7768 24.2758C58.1061 24.4597 58.2045 24.6122 58.2743 25.0556C58.2999 25.2182 58.3571 25.429 58.3977 25.5195L58.4746 25.6877L58.6787 25.8087C58.792 25.8722 59.0872 26.0844 59.333 26.272C59.6121 26.4889 59.8185 26.6247 59.8763 26.641C59.9313 26.6544 60.0954 26.6899 60.244 26.7181C60.3926 26.7462 60.5533 26.7907 60.5987 26.8195C60.6511 26.847 60.8045 27.0128 60.9939 27.2396C61.2391 27.5305 61.3568 27.6523 61.5416 27.8039C61.7562 27.977 61.7798 28.0047 61.8158 28.1113C61.8468 28.2171 61.8611 28.2313 61.9622 28.2785C62.0916 28.3373 62.7356 28.9647 62.9041 29.1955C62.9593 29.2714 63.066 29.4155 63.1399 29.5184C63.2158 29.6193 63.2829 29.7404 63.2886 29.7917C63.2989 29.8726 63.3054 29.8832 63.3943 29.914C63.4861 29.9477 63.5011 29.9669 63.6187 30.2256C63.7594 30.524 63.957 30.8338 64.1053 30.9821C64.2136 31.0904 64.7672 31.2952 64.9371 31.2907C64.9967 31.2881 65.1155 31.2948 65.2055 31.3017C65.3447 31.3164 65.373 31.3281 65.3893 31.3859C65.3976 31.4232 65.3721 31.5057 65.3316 31.569C65.269 31.6601 65.2669 31.7078 65.311 31.8348C65.3842 32.041 65.5757 32.357 65.7384 32.5363C65.8641 32.6786 65.8719 32.6823 65.9464 32.6363C66.0187 32.5924 66.0343 32.5997 66.1808 32.7212C66.2689 32.7928 66.4454 32.907 66.5735 32.9728C66.7871 33.0785 66.8177 33.1049 66.9359 33.2605C67.0942 33.4728 68.2828 34.6448 68.5506 34.8503C68.6551 34.934 68.88 35.1424 69.0519 35.3183C69.3121 35.5827 69.3896 35.6478 69.5381 35.7216C69.6924 35.8011 69.7144 35.819 69.7559 35.9144C69.7841 35.9717 69.8831 36.1122 69.9753 36.2252C70.1583 36.4414 70.7741 37.0116 71.0326 37.2036C71.2555 37.3684 71.3683 37.4894 71.405 37.6009C71.4358 37.6898 71.4558 37.7098 71.6608 37.8526C71.8708 37.9961 71.905 38.0303 72.1826 38.3743C72.4694 38.7318 72.4767 38.7473 72.4491 38.8319C72.4245 38.9193 72.4602 39.009 72.5017 38.9675C72.5121 38.9571 72.557 38.9521 72.5992 38.9612C72.6682 38.972 72.6796 38.9834 72.7267 39.0846C72.7892 39.2217 72.941 39.3777 73.0769 39.4472C73.1526 39.4855 73.1819 39.5189 73.2153 39.5939C73.2515 39.6716 73.2801 39.7001 73.3721 39.7507C73.4662 39.7991 73.4926 39.8297 73.5317 39.9103C73.5659 39.9902 73.6058 40.0301 73.7329 40.1197C73.8215 40.1793 73.9991 40.3154 74.1264 40.4219C74.2536 40.5284 74.4623 40.679 74.5821 40.7531C74.7104 40.8357 74.8916 40.9795 75.0105 41.0943C75.1267 41.2063 75.3011 41.3683 75.4035 41.4541L75.587 41.6127L75.7974 41.4079C75.9614 41.2439 76.0421 41.1918 76.1778 41.1531C76.3484 41.1078 76.3671 41.0891 77.52 39.942C78.8722 38.5955 78.9054 38.5623 78.9583 38.4409C78.9828 38.3823 79.0222 38.3428 79.0671 38.3379C79.168 38.3225 80.2479 37.2311 80.2661 37.1331C80.2716 37.0763 80.3118 37.0418 80.4164 36.9886C80.537 36.9307 80.564 36.9037 80.603 36.7849C80.6406 36.6731 80.6689 36.6391 80.7444 36.6149C80.8248 36.5916 80.8419 36.563 80.8596 36.4313C80.8729 36.3325 80.909 36.2565 80.9653 36.2173C81.0361 36.1635 81.0649 36.1633 81.1691 36.2301C81.3073 36.3143 81.3696 36.2977 81.3867 36.1779C81.4076 36.0658 83.0462 34.3872 83.3492 34.1755C83.5417 34.04 83.5783 33.9977 83.629 33.8615C83.6703 33.7575 83.7074 33.7033 83.7523 33.6983C83.8511 33.685 83.9626 33.5849 84.1376 33.3529C84.245 33.2113 84.4022 33.0654 84.6251 32.8939C84.9847 32.6141 85.1944 32.3588 85.3079 32.0571C85.3586 31.9209 85.3814 31.8981 85.4563 31.8859C85.5292 31.8757 85.7163 31.7058 86.3121 31.11C86.9473 30.4748 87.0944 30.3105 87.1998 30.1253C87.2696 30.0042 87.3631 29.8651 87.4108 29.8174C87.5001 29.7281 87.7154 29.6611 87.8896 29.6693C87.9768 29.6734 88.0066 29.6492 88.1486 29.4673C88.236 29.3514 88.83 28.7289 89.4686 28.0846L90.6295 26.9123L90.6107 26.7772L90.5911 26.6371L90.6974 26.6563C90.8008 26.6725 90.8154 26.658 91.7547 25.7415C92.2773 25.2303 92.8289 24.6901 92.9792 24.5455C93.1854 24.3449 93.2716 24.236 93.328 24.1055C93.4466 23.8215 93.4936 23.7688 93.6643 23.7236C93.9413 23.6518 94.1148 23.5182 94.3715 23.1646C94.5223 22.9625 94.6861 22.7816 94.8303 22.6601C95.0231 22.4959 95.061 22.4466 95.1018 22.3089C95.134 22.2082 95.1716 22.1421 95.2157 22.1322C95.25 22.1208 95.3154 22.0782 95.3589 22.0346L95.4428 21.9565L95.1969 21.9058C95.0603 21.8771 94.9115 21.8321 94.864 21.8054C94.6608 21.6893 94.5258 21.4879 94.4984 21.2529C94.4785 21.0961 94.5229 21.103 94.6364 21.2747C94.9102 21.7021 95.2382 21.8474 95.5778 21.6846C95.8372 21.5621 95.9332 21.409 95.8952 21.1676C95.8588 20.936 95.736 20.7509 95.412 20.4477C95.1862 20.2344 95.1323 20.1971 94.9431 20.1241C94.6776 20.0246 94.6413 19.9925 94.6611 19.8587C94.6962 19.6696 94.3898 19.3259 93.5163 18.5687C92.901 18.0322 92.709 17.8194 92.4074 17.3227C92.2146 17.0137 92.1408 16.9108 92.0428 16.8377C91.8844 16.7167 91.8945 16.7807 92.0684 17.0003C92.2536 17.2312 92.2269 17.2751 92.0087 17.0942C91.8365 16.947 91.7186 16.8083 91.6941 16.7132C91.6845 16.6828 91.5484 16.5509 91.3457 16.3773C90.9211 16.015 90.4173 15.5153 89.2518 14.2916C88.4893 13.4918 88.2449 13.2515 87.9198 12.9722C87.7 12.7814 87.4175 12.528 87.2921 12.4025C87.1182 12.2286 87.0308 12.162 86.9362 12.1255C86.8112 12.0794 86.8055 12.0737 86.6938 11.8832C86.6003 11.7315 86.4917 11.6063 86.1688 11.2792L85.7611 10.8715L85.7236 10.7095C85.6874 10.5404 85.612 10.4276 85.5865 10.5101C85.5784 10.5353 85.5686 10.5794 85.5605 10.6045C85.5457 10.6478 85.4825 10.5971 84.9495 10.1264C84.7759 9.96937 84.7287 9.9139 84.6699 9.78452C84.6104 9.65023 84.5839 9.61964 84.4157 9.49707C84.3014 9.41182 83.966 9.09718 83.5233 8.65035L82.8163 7.94331L82.8057 7.7999C82.7991 7.63549 82.7275 7.54736 82.664 7.61664C82.6232 7.66308 82.5991 7.64728 82.1561 7.27487C81.8155 6.98825 81.5258 6.71923 81.0823 6.26748C80.425 5.60189 78.4643 3.69098 78.345 3.60495C78.3067 3.57489 78.2092 3.53553 78.1317 3.51612L77.9872 3.48379L77.9788 3.33831L77.9682 3.19491L77.752 3.01194C77.6305 2.91113 77.5602 2.86164 77.5903 2.90001C77.7012 3.03998 77.6073 3.0084 77.4534 2.85444C77.3678 2.76892 77.307 2.68726 77.3173 2.67688C77.3298 2.66443 77.363 2.67685 77.3886 2.70251C77.5509 2.84816 77.1723 2.41141 76.8929 2.13201C76.4274 1.66237 76.0391 1.33221 75.8532 1.25011C75.6821 1.17034 75.3872 1.12875 75.3395 1.1765C75.3229 1.19311 75.2371 1.182 75.1531 1.15197C74.8108 1.03806 74.5208 1.13419 74.3111 1.43513C74.2244 1.55603 74.2021 1.56694 74.0784 1.55949C73.8767 1.54456 73.8051 1.59336 73.7344 1.80086C73.6785 1.96506 73.6627 1.98659 73.5883 1.98689C73.5286 1.98952 73.4752 2.03156 73.3953 2.13431C73.2891 2.26896 73.278 2.27441 73.1343 2.24701C72.9463 2.21262 72.9214 2.23753 72.9708 2.39907ZM74.0302 2.81079C74.0532 2.94174 74.1218 3.20959 74.1873 3.41209C74.36 3.92936 74.371 4.06083 74.2548 4.22272C74.199 4.29563 74.1577 4.39964 74.1587 4.46707C74.1596 4.58014 74.1576 4.58221 74.1034 4.52804C73.9951 4.41971 73.9778 4.20318 74.063 3.93549C74.1051 3.79076 74.134 3.65356 74.1231 3.63023C74.1172 3.60767 74.0454 3.50268 73.9666 3.39899C73.857 3.25202 73.8236 3.17709 73.8156 3.06532C73.803 2.87835 73.8389 2.73985 73.9253 2.64773L73.9959 2.57715L74.0302 2.81079ZM59.481 17.3486C59.5038 17.3714 59.5051 17.41 59.4823 17.4329C59.4408 17.4744 59.397 17.4555 59.3897 17.3943C59.3776 17.3323 59.4383 17.3058 59.481 17.3486ZM75.6317 1.36901C75.6903 1.3446 75.7108 1.35263 75.7916 1.45424C75.9269 1.62688 75.917 1.67097 75.7503 1.64954C75.5589 1.62424 75.4029 1.47236 75.5173 1.42069C75.5416 1.40771 75.5933 1.3846 75.6317 1.36901ZM72.7292 4.57371C72.7533 4.58951 72.7572 4.61415 72.7385 4.63283C72.7198 4.65151 72.6853 4.64609 72.6596 4.62043C72.6112 4.57196 72.6654 4.53485 72.7292 4.57371ZM58.9305 18.5833C58.9679 18.5916 59.014 18.6253 59.0285 18.6564C59.071 18.7279 58.9091 18.8899 58.7545 18.9304C58.5999 18.9709 58.5707 18.8919 58.7048 18.7977C58.7611 18.7585 58.8101 18.7037 58.8125 18.6729C58.8162 18.5893 58.853 18.5639 58.9305 18.5833ZM59.4404 25.3207C59.486 25.3663 59.5391 25.4444 59.551 25.4895C59.5753 25.5678 59.5732 25.5699 59.5009 25.5224C59.4265 25.4771 59.2842 25.3058 59.2501 25.2259C59.2288 25.1673 59.3463 25.2266 59.4404 25.3207ZM64.8403 29.9734C64.9059 30.0389 64.9097 30.1092 64.8483 30.0851C64.7897 30.0639 64.7363 29.969 64.7654 29.94C64.7758 29.9296 64.8118 29.9449 64.8403 29.9734ZM91.9787 17.2553C92.0386 17.3151 92.0611 17.4124 92.0217 17.4518C91.9843 17.4892 91.9172 17.4137 91.9025 17.3201C91.8862 17.2167 91.916 17.1925 91.9787 17.2553ZM92.2488 22.9267C92.2838 22.9202 92.3577 22.9318 92.4134 22.9502C92.5052 22.9839 92.528 23.0067 92.6905 23.2605C92.9219 23.6164 92.9853 23.7297 92.9604 23.7546C92.894 23.821 92.7703 23.8592 92.7361 23.825C92.7161 23.805 92.6635 23.7151 92.6236 23.6295C92.5648 23.5001 92.5226 23.4455 92.3733 23.3211C92.2126 23.1853 92.1911 23.1555 92.1763 23.0618C92.1577 22.9436 92.1619 22.9394 92.2488 22.9267ZM94.8181 20.46L94.9255 20.4553L94.7729 20.585C94.6689 20.6719 94.6118 20.7519 94.5892 20.8372C94.5465 20.9938 94.5141 21.032 94.4994 20.9384C94.4629 20.7068 94.6223 20.4676 94.8181 20.46ZM91.3054 24.1381C91.3738 24.2065 91.393 24.2672 91.3768 24.3631C91.3646 24.4381 91.3576 24.4394 91.2778 24.3595C91.2265 24.3082 91.1954 24.2481 91.2011 24.2081C91.2095 24.1085 91.2512 24.0839 91.3054 24.1381ZM92.1402 23.7024C92.2018 23.8346 92.2171 23.962 92.1727 23.955C92.1354 23.9467 92.06 23.7427 92.0572 23.6485C92.0594 23.5552 92.0835 23.571 92.1402 23.7024ZM86.8481 29.7072C86.915 29.8114 86.9709 29.9836 86.9468 30.0134C86.906 30.0599 86.8273 29.9562 86.7908 29.8159C86.7525 29.6489 86.7784 29.6001 86.8481 29.7072ZM90.3243 26.4991C90.3758 26.6129 90.3465 26.7164 90.2674 26.6871C90.2236 26.6682 90.1231 26.3809 90.1413 26.3285C90.1657 26.2699 90.2647 26.3648 90.3243 26.4991ZM84.9638 31.5802C85.0087 31.5752 85.0229 31.5895 85.0299 31.6338C85.0369 31.6781 85.0223 31.6927 84.971 31.687C84.8571 31.6811 84.8494 31.5862 84.9638 31.5802ZM95.6515 21.0692C95.7489 21.1998 95.7633 21.4135 95.6693 21.3194C95.6351 21.2852 95.5465 20.9974 95.5652 20.9787C95.5714 20.9725 95.6114 21.0124 95.6515 21.0692ZM88.7985 28.0248C88.8384 28.1104 88.8236 28.1537 88.765 28.1325C88.7212 28.1136 88.6976 28.0402 88.7179 27.9857C88.7415 27.9222 88.7571 27.9294 88.7985 28.0248Z" fill="black"/>
<defs>
<clipPath id="clip0_1083_105">
<rect width="186" height="150" fill="white" transform="matrix(0 -1 1 0 0 205)"/>
</clipPath>
</defs>
</svg>
