<svg width="369" height="372" viewBox="0 0 369 372" fill="none" xmlns="http://www.w3.org/2000/svg">
<path d="M216.4 0.920042C215.92 1.80004 217.12 2.76004 217.92 2.04004C218.64 1.32004 218.48 0.200042 217.68 0.200042C217.2 0.200042 216.72 0.520042 216.4 0.920042Z" fill="black"/>
<path d="M100.96 9.96005C101.12 10.92 101.76 11.8 102.4 11.8C104.16 11.8 103.92 8.68005 102.16 8.36005C100.96 8.12005 100.72 8.44005 100.96 9.96005Z" fill="black"/>
<path d="M228.96 12.3601C229.44 13.8001 230.96 13.9601 231.44 12.6001C231.84 11.8001 231.44 11.4001 230.32 11.4001C229.36 11.4001 228.8 11.8001 228.96 12.3601Z" fill="black"/>
<path d="M174.4 19.8C174.4 20.44 174.96 21 175.6 21C176.24 21 176.8 20.44 176.8 19.8C176.8 19.16 176.24 18.6 175.6 18.6C174.96 18.6 174.4 19.16 174.4 19.8Z" fill="black"/>
<path d="M291.6 19.4C291.36 19.8 291.52 20.2 291.92 20.2C292.4 20.2 292.8 19.8 292.8 19.4C292.8 18.92 292.64 18.6 292.48 18.6C292.24 18.6 291.84 18.92 291.6 19.4Z" fill="black"/>
<path d="M218.96 19.96C218.08 20.84 218.32 23.56 219.2 23C219.68 22.68 220.56 22.84 221.2 23.4C222.72 24.6 223.52 23.08 222.4 21C221.52 19.4 219.92 18.92 218.96 19.96Z" fill="black"/>
<path d="M282.4 24.2C282.4 24.6 282.8 25 283.2 25C283.68 25 284 24.6 284 24.2C284 23.72 283.68 23.4 283.2 23.4C282.8 23.4 282.4 23.72 282.4 24.2Z" fill="black"/>
<path d="M246.4 24.8401C246.4 25.9601 247.28 26.5201 248.48 26.0401C250.16 25.4001 249.84 24.2001 248 24.2001C247.12 24.2001 246.4 24.5201 246.4 24.8401Z" fill="black"/>
<path d="M220 29.0001C219.12 29.8801 218.64 31.0801 218.88 31.8001C219.6 33.4801 222.72 33.3201 224.4 31.4001C227.36 28.1201 223.2 25.8001 220 29.0001Z" fill="black"/>
<path d="M248.16 35.24C246.64 36.2 247.84 38.36 250 38.84C251.76 39.16 255.2 36.76 255.2 35.16C255.2 34.36 249.44 34.52 248.16 35.24Z" fill="black"/>
<path d="M256.4 35.4C256.16 35.8 256.48 36.2 257.12 36.2C257.84 36.2 258.4 35.8 258.4 35.4C258.4 34.92 258.08 34.6 257.68 34.6C257.2 34.6 256.64 34.92 256.4 35.4Z" fill="black"/>
<path d="M215.2 36.2C215.2 36.6 215.76 37 216.48 37C217.12 37 217.44 36.6 217.2 36.2C216.96 35.72 216.4 35.4 215.92 35.4C215.52 35.4 215.2 35.72 215.2 36.2Z" fill="black"/>
<path d="M37.6 38.6C36.48 40.6 37.84 43.4 39.92 43.4C40.72 43.4 42 42.68 42.8 41.8C44.16 40.28 44.16 40.12 42.8 38.6C42 37.72 40.72 37 39.92 37C39.12 37 38.08 37.72 37.6 38.6Z" fill="black"/>
<path d="M240.4 37.8C240.72 38.28 241.28 38.44 241.68 38.2C242.8 37.48 242.56 37 241.12 37C240.48 37 240.16 37.4 240.4 37.8Z" fill="black"/>
<path d="M225.04 40.68C224.8 41.32 224.96 42.28 225.44 42.76C226.64 43.96 230.4 42.28 230.4 40.6C230.4 38.92 225.68 39 225.04 40.68Z" fill="black"/>
<path d="M168.4 41.88C167.6 43.08 168.64 43.88 169.68 42.84C170.24 42.28 170.24 41.8 169.76 41.48C169.28 41.24 168.64 41.4 168.4 41.88Z" fill="black"/>
<path d="M218.96 43.9601C218.64 44.2001 218.4 44.8401 218.4 45.3201C218.4 45.8001 218.8 45.7201 219.36 45.1601C219.84 44.6801 220.08 44.0401 219.92 43.8001C219.68 43.5601 219.2 43.6401 218.96 43.9601Z" fill="black"/>
<path d="M164.16 46.7601C164.32 47.7201 164.96 48.6001 165.6 48.6001C167.36 48.6001 167.12 45.4801 165.36 45.1601C164.16 44.9201 163.92 45.2401 164.16 46.7601Z" fill="black"/>
<path d="M269.6 46.6C268.56 47.24 268.64 47.4 269.84 47.4C270.56 47.4 271.2 47 271.2 46.6C271.2 45.64 271.12 45.64 269.6 46.6Z" fill="black"/>
<path d="M117.12 50.68C116.88 51.16 117.04 51.96 117.52 52.44C118.24 53.16 118.64 53.08 119.2 52.2C119.92 51 119.52 49.8 118.4 49.8C118 49.8 117.44 50.2 117.12 50.68Z" fill="black"/>
<path d="M169.2 50.6C169.44 51 169.84 51.4 170.08 51.4C170.24 51.4 170.4 51 170.4 50.6C170.4 50.12 170 49.8 169.52 49.8C169.12 49.8 168.96 50.12 169.2 50.6Z" fill="black"/>
<path d="M172.08 53.32C170.96 54.68 172.8 56.44 174.72 55.72C176.24 55.16 176.32 54.44 175.04 53.16C173.84 51.96 173.2 51.96 172.08 53.32Z" fill="black"/>
<path d="M196.8 53C196.8 53.4 197.2 53.8 197.6 53.8C198.08 53.8 198.4 53.4 198.4 53C198.4 52.52 198.08 52.2 197.6 52.2C197.2 52.2 196.8 52.52 196.8 53Z" fill="black"/>
<path d="M169.68 54.28C169.68 55.16 169.92 55.4 170.16 54.76C170.4 54.2 170.32 53.48 170.08 53.24C169.84 52.92 169.6 53.4 169.68 54.28Z" fill="black"/>
<path d="M164 57.0799C164 57.4799 164.4 57.6399 164.8 57.3999C165.28 57.1599 165.6 56.7599 165.6 56.5199C165.6 56.3599 165.28 56.1999 164.8 56.1999C164.4 56.1999 164 56.5999 164 57.0799Z" fill="black"/>
<path d="M261.6 59.4C261.6 59.8 262 60.2 262.4 60.2C262.88 60.2 263.2 59.8 263.2 59.4C263.2 58.92 262.88 58.6 262.4 58.6C262 58.6 261.6 58.92 261.6 59.4Z" fill="black"/>
<path d="M166 60.2001C165.36 61.3201 166.24 62.6001 167.68 62.6001C168.32 62.6001 168.8 61.8801 168.8 61.0001C168.8 59.3201 166.88 58.7601 166 60.2001Z" fill="black"/>
<path d="M213.92 60.6001C213.6 61.3201 213.76 62.2801 214.24 62.7601C215.44 63.9601 217.76 62.8401 217.44 61.2401C217.12 59.4001 214.56 58.9201 213.92 60.6001Z" fill="black"/>
<path d="M188.48 60.84C187.84 61.88 189.36 63.64 190.32 63.08C191.6 62.28 191.44 60.2 190.08 60.2C189.44 60.2 188.72 60.52 188.48 60.84Z" fill="black"/>
<path d="M211.52 66.1201C210.8 68.0401 212.48 69.6401 213.76 68.3601C214.56 67.5601 214.4 67.0801 213.36 66.0401C212.16 64.8401 212 64.8401 211.52 66.1201Z" fill="black"/>
<path d="M184.8 67.72C184.8 68.84 185.2 69.96 185.6 70.2C186.08 70.44 186.4 71.56 186.4 72.6C186.4 74.92 189.68 76.2 191.6 74.6C193.36 73.16 193.04 71.64 190.88 70.2C189.84 69.48 188.8 68.2 188.56 67.4C187.92 65 184.8 65.32 184.8 67.72Z" fill="black"/>
<path d="M193.6 67.4C193.6 67.8 194 68.2 194.48 68.2C194.88 68.2 195.04 67.8 194.8 67.4C194.56 66.92 194.16 66.6 193.92 66.6C193.76 66.6 193.6 66.92 193.6 67.4Z" fill="black"/>
<path d="M122.4 68.2C122.4 68.6 122.8 69 123.2 69C123.68 69 124 68.6 124 68.2C124 67.72 123.68 67.4 123.2 67.4C122.8 67.4 122.4 67.72 122.4 68.2Z" fill="black"/>
<path d="M214.4 69.8C214.4 70.2 214.96 70.6 215.6 70.6C216.24 70.6 216.8 70.2 216.8 69.8C216.8 69.32 216.24 69 215.6 69C214.96 69 214.4 69.32 214.4 69.8Z" fill="black"/>
<path d="M147.2 70.92C147.2 71.8 148 72.2 149.68 72.2C152.72 72.2 152.48 70.28 149.36 69.96C147.84 69.8 147.2 70.04 147.2 70.92Z" fill="black"/>
<path d="M244.96 70.76C245.44 72.2 246.96 72.36 247.44 71C247.84 70.2 247.44 69.8 246.32 69.8C245.36 69.8 244.8 70.2 244.96 70.76Z" fill="black"/>
<path d="M219.04 74.6801C215.92 76.2801 215.2 78.2801 216.96 80.0401C219.04 82.1201 223.2 80.6001 223.2 77.7201C223.2 77.0001 223.76 75.9601 224.4 75.4001C227.6 72.6801 223.68 72.2001 219.04 74.6801Z" fill="black"/>
<path d="M262 74.5201C261.76 74.9201 261.92 75.4801 262.32 75.7201C263.36 76.3601 265.68 75.4001 265.12 74.5201C264.56 73.5601 262.64 73.5601 262 74.5201Z" fill="black"/>
<path d="M39.2 77C39.2 77.4 39.6 77.8 40 77.8C40.48 77.8 40.8 77.4 40.8 77C40.8 76.52 40.48 76.2 40 76.2C39.6 76.2 39.2 76.52 39.2 77Z" fill="black"/>
<path d="M175.68 78.28C174.32 81.8 175.76 83.72 179.12 82.84C181.12 82.36 182.08 79.72 180.8 78.2C179.52 76.6 176.32 76.68 175.68 78.28Z" fill="black"/>
<path d="M192.16 77.8801C192.32 78.3601 192.8 78.6801 193.2 78.6801C193.6 78.6801 194.08 78.3601 194.24 77.8801C194.4 77.4001 193.92 77.0001 193.2 77.0001C192.48 77.0001 192 77.4001 192.16 77.8801Z" fill="black"/>
<path d="M198.4 85.8C198.4 87.08 198.96 87.4 200.8 87.4C202.64 87.4 203.2 87.08 203.2 85.8C203.2 84.52 202.64 84.2 200.8 84.2C198.96 84.2 198.4 84.52 198.4 85.8Z" fill="black"/>
<path d="M290.08 84.7601C289.12 85.7201 289.68 86.6001 291.2 86.6001C292.08 86.6001 292.8 86.2801 292.8 85.8801C292.8 85.0001 290.72 84.1201 290.08 84.7601Z" fill="black"/>
<path d="M214 86.6C213.76 87 214.24 87.4 215.12 87.4C216.08 87.4 216.8 87 216.8 86.6C216.8 86.12 216.32 85.8 215.68 85.8C215.04 85.8 214.24 86.12 214 86.6Z" fill="black"/>
<path d="M161.28 87.32C161.04 87.64 161.52 88.6 162.4 89.4C163.84 90.68 163.84 90.68 163.44 89.08C162.96 87.08 161.92 86.28 161.28 87.32Z" fill="black"/>
<path d="M206.72 87.48C206.48 87.96 206.8 88.92 207.52 89.64C208.72 90.84 208.88 90.84 210.08 89.64C211.6 88.12 210.96 86.6 208.8 86.6C208 86.6 207.04 87 206.72 87.48Z" fill="black"/>
<path d="M222.8 89.8C223.12 90.28 223.68 90.44 224.08 90.2C225.2 89.48 224.96 89 223.52 89C222.88 89 222.56 89.4 222.8 89.8Z" fill="black"/>
<path d="M185.6 91.3201C185.6 93.8001 187.44 94.7601 189.52 93.3201C190.88 92.2801 191.12 91.8001 190.32 90.9201C188.88 89.2401 185.6 89.4801 185.6 91.3201Z" fill="black"/>
<path d="M158.4 92.6001C157.52 93.6401 157.52 94.1201 158.64 95.1601C160.32 96.8401 162.56 95.8801 162.24 93.6401C161.92 91.4001 159.84 90.8401 158.4 92.6001Z" fill="black"/>
<path d="M167.2 92.6C166 94.04 166.72 96.2 168.24 96.2C168.88 96.2 169.84 95.64 170.4 95C171.2 94.04 171.2 93.56 170.4 92.6C169.12 91.08 168.48 91.08 167.2 92.6Z" fill="black"/>
<path d="M180 92.6C180 93.4 180.56 93.8 181.44 93.64C183.12 93.32 182.96 91.88 181.28 91.56C180.48 91.4 180 91.8 180 92.6Z" fill="black"/>
<path d="M193.36 93.48C192.72 94.12 193.44 95.4 194.48 95.4C194.88 95.4 195.2 94.84 195.2 94.2C195.2 93 194.24 92.6 193.36 93.48Z" fill="black"/>
<path d="M322.4 93.8001C322.4 94.2001 322.96 94.6001 323.6 94.6001C324.24 94.6001 324.8 94.2001 324.8 93.8001C324.8 93.3201 324.24 93.0001 323.6 93.0001C322.96 93.0001 322.4 93.3201 322.4 93.8001Z" fill="black"/>
<path d="M210.16 94.3601C209.04 95.4001 209.6 97.8001 211.12 98.6001C214 100.12 217.04 97.2401 215.12 94.9201C214.16 93.7201 211.04 93.4001 210.16 94.3601Z" fill="black"/>
<path d="M271.6 94.6C271.36 95 271.68 95.4 272.32 95.4C273.04 95.4 273.6 95 273.6 94.6C273.6 94.12 273.28 93.8 272.88 93.8C272.4 93.8 271.84 94.12 271.6 94.6Z" fill="black"/>
<path d="M233.6 95.4C233.6 95.8 234.08 96.2 234.72 96.2C235.36 96.2 236.16 95.8 236.4 95.4C236.64 94.92 236.16 94.6 235.28 94.6C234.32 94.6 233.6 94.92 233.6 95.4Z" fill="black"/>
<path d="M174.64 96.68C174.16 98.04 175.12 100.36 176.48 100.76C177.76 101.16 179.04 99.88 179.6 97.56C180.16 95.56 180 95.4 177.68 95.4C176.08 95.4 174.96 95.88 174.64 96.68Z" fill="black"/>
<path d="M4 98.04C4 99.56 5.28 100.52 5.92 99.48C6.16 99.08 5.84 98.36 5.2 97.8C4.24 97 4 97 4 98.04Z" fill="black"/>
<path d="M193.76 99.5601C194.24 101 196 101.24 196 99.8801C196 99.1601 195.44 98.6001 194.72 98.6001C194 98.6001 193.6 99.0001 193.76 99.5601Z" fill="black"/>
<path d="M207.2 99.8001C207.2 100.44 207.68 101 208.32 101C208.96 101 210.16 101.24 210.96 101.48C212.08 101.8 212 101.56 210.48 100.28C208.32 98.2801 207.2 98.1201 207.2 99.8001Z" fill="black"/>
<path d="M131.44 100.68C130.8 102.28 132.8 103.56 134.16 102.44C134.96 101.8 134.96 101.32 134.32 100.52C133.12 99.08 132.08 99.08 131.44 100.68Z" fill="black"/>
<path d="M117.68 100.92C116.16 101.88 117.2 104.36 118.96 104.04C119.76 103.88 120.4 103.08 120.4 102.28C120.4 100.52 119.28 99.9601 117.68 100.92Z" fill="black"/>
<path d="M146 101.8C146.24 102.2 146.8 102.6 147.28 102.6C147.68 102.6 148 102.2 148 101.8C148 101.32 147.44 101 146.72 101C146.08 101 145.76 101.32 146 101.8Z" fill="black"/>
<path d="M185.6 102.6C185.6 103 186.16 103.4 186.88 103.4C187.52 103.4 187.84 103 187.6 102.6C187.36 102.12 186.8 101.8 186.32 101.8C185.92 101.8 185.6 102.12 185.6 102.6Z" fill="black"/>
<path d="M251.2 102.6C251.2 103 251.52 103.4 251.92 103.4C252.4 103.4 252.96 103 253.2 102.6C253.44 102.12 253.12 101.8 252.48 101.8C251.76 101.8 251.2 102.12 251.2 102.6Z" fill="black"/>
<path d="M188 106.12C188 107.24 188.4 108.36 188.8 108.6C189.28 108.84 189.6 108.84 189.6 108.44C189.6 108.12 189.84 107 190.08 105.96C190.48 104.68 190.24 104.2 189.28 104.2C188.48 104.2 188 104.92 188 106.12Z" fill="black"/>
<path d="M234.24 104.76C233.12 104.92 230.8 106.36 229.2 107.88C226.88 110.04 226.56 110.68 227.52 111.08C228.24 111.32 230 112.76 231.52 114.28C233.84 116.6 234.56 116.92 236.88 116.52C240.08 115.88 244.8 112.6 244.8 111C244.8 109.16 240.64 105.08 238.4 104.76C237.28 104.52 235.44 104.6 234.24 104.76Z" fill="black"/>
<path d="M144 105.88C144 106.28 144.4 106.44 144.8 106.2C145.28 105.96 145.6 105.56 145.6 105.32C145.6 105.16 145.28 105 144.8 105C144.4 105 144 105.4 144 105.88Z" fill="black"/>
<path d="M147.2 106.2C147.2 106.92 147.6 107.4 148.08 107.24C148.56 107.08 148.96 106.6 148.96 106.2C148.96 105.8 148.56 105.32 148.08 105.16C147.6 105 147.2 105.48 147.2 106.2Z" fill="black"/>
<path d="M191.68 106.52C190.64 107.48 190.64 107.88 191.76 109.48C193.04 111.48 198 114.76 198.72 114.04C199.28 113.48 198.48 109 197.44 106.84C196.4 104.84 193.52 104.6 191.68 106.52Z" fill="black"/>
<path d="M210.4 107.8C210.4 108.52 210.88 108.76 211.6 108.52C212.24 108.2 212.8 107.72 212.8 107.32C212.8 106.92 212.24 106.6 211.6 106.6C210.96 106.6 210.4 107.16 210.4 107.8Z" fill="black"/>
<path d="M220.4 108.12C218.32 108.6 218 108.92 218.16 111C218.48 114.44 218.8 116.12 219.36 116.68C220.08 117.32 224.8 112.44 224.8 111.16C224.8 109 222.88 107.64 220.4 108.12Z" fill="black"/>
<path d="M168.16 111.16C168.32 111.96 169.12 112.6 170 112.6C170.88 112.6 171.68 111.96 171.84 111.16C172.08 110.12 171.6 109.8 170 109.8C168.4 109.8 167.92 110.12 168.16 111.16Z" fill="black"/>
<path d="M247.68 111.8C248 112.52 248.72 113 249.36 112.84C251.2 112.44 250.96 111 249.04 110.76C247.6 110.52 247.36 110.76 247.68 111.8Z" fill="black"/>
<path d="M165.6 113C165.6 113.4 166 113.8 166.4 113.8C166.88 113.8 167.2 113.4 167.2 113C167.2 112.52 166.88 112.2 166.4 112.2C166 112.2 165.6 112.52 165.6 113Z" fill="black"/>
<path d="M186.56 113.08C185.12 113.64 184.8 114.2 185.2 115.56C185.52 116.6 186.24 117.96 186.8 118.6C188.8 120.84 189.76 124.28 188.72 125.48C188.24 126.12 187.44 126.36 187.04 126.04C186.56 125.8 186.32 126.04 186.56 126.68C187.04 128.28 191.68 128.6 192.24 127.08C192.48 126.44 192.16 125.48 191.6 125C190.16 123.8 190.8 122.6 192.88 122.6C194.4 122.6 194.4 122.52 193.04 120.44L191.68 118.36L193.84 118.92C196.24 119.48 196.72 118.2 195.2 115.32C194.16 113.4 192.32 113.32 191.28 115.16C190.56 116.44 190.48 116.44 190.4 115.32C190.4 113.24 188.64 112.28 186.56 113.08Z" fill="black"/>
<path d="M325.28 112.76C325.04 113 325.04 113.56 325.28 113.88C325.84 114.84 328 114.76 328 113.88C328 113 325.92 112.12 325.28 112.76Z" fill="black"/>
<path d="M158.48 113.72C157.04 114.68 158.08 116.2 160.08 116.2C161.2 116.2 161.6 115.72 161.44 114.84C161.12 113.24 160 112.76 158.48 113.72Z" fill="black"/>
<path d="M267.2 114.6C267.2 115 267.52 115.4 267.92 115.4C268.4 115.4 268.96 115 269.2 114.6C269.44 114.12 269.12 113.8 268.48 113.8C267.76 113.8 267.2 114.12 267.2 114.6Z" fill="black"/>
<path d="M20.8 116.2C20.8 116.6 21.36 117 22 117C22.64 117 23.2 116.6 23.2 116.2C23.2 115.72 22.64 115.4 22 115.4C21.36 115.4 20.8 115.72 20.8 116.2Z" fill="black"/>
<path d="M166 116.2C166.24 116.6 166 116.84 165.44 116.6C164.88 116.36 163.92 116.92 163.44 117.72C161.44 120.84 166.08 122.76 169.28 120.12C170.8 118.92 170.72 117.8 169.04 116.52C167.36 115.24 165.28 115.08 166 116.2ZM167.36 120.36C166.8 120.92 166.4 121 166.4 120.52C166.4 119.4 167.36 118.44 167.92 119C168.08 119.24 167.84 119.88 167.36 120.36Z" fill="black"/>
<path d="M204.56 117.08L202.4 118.76L204.8 122.04C206.08 123.8 207.2 125.72 207.2 126.2C207.2 128.2 210.24 129.64 214.08 129.32C216.24 129.16 218.24 129.08 218.64 129C218.96 129 219.2 128.6 219.2 128.12C219.2 127.64 218.48 127.48 217.52 127.8C216 128.28 215.92 128.12 216.4 125.88C216.88 123.72 216.56 123 214.08 120.6C212.48 119.08 210.56 117.8 209.84 117.8C209.2 117.8 208.16 117.24 207.68 116.6C206.96 115.64 206.48 115.72 204.56 117.08Z" fill="black"/>
<path d="M145.6 117.88C143.68 119.48 143.68 119.56 145.2 120.68C146 121.32 146.96 121.8 147.2 121.8C148.16 121.8 149.76 117.96 149.28 117.08C148.48 115.88 147.92 115.96 145.6 117.88Z" fill="black"/>
<path d="M212.8 117.08C212.8 117.48 213.2 117.64 213.6 117.4C214.08 117.16 214.4 116.76 214.4 116.52C214.4 116.36 214.08 116.2 213.6 116.2C213.2 116.2 212.8 116.6 212.8 117.08Z" fill="black"/>
<path d="M244.4 117.8C244.16 118.2 244.48 118.6 245.2 118.6C245.92 118.6 246.24 118.2 246 117.8C245.76 117.32 245.36 117 245.2 117C245.04 117 244.64 117.32 244.4 117.8Z" fill="black"/>
<path d="M138.4 118.6C138.4 119 138.8 119.4 139.28 119.4C139.68 119.4 139.84 119 139.6 118.6C139.36 118.12 138.96 117.8 138.72 117.8C138.56 117.8 138.4 118.12 138.4 118.6Z" fill="black"/>
<path d="M242 118.6C241.68 119.08 241.84 119.96 242.32 120.44C243.52 121.64 244.32 120.6 243.36 118.92C242.8 117.96 242.48 117.88 242 118.6Z" fill="black"/>
<path d="M270.4 118.6C270.4 119 270.96 119.4 271.6 119.4C272.24 119.4 272.8 119 272.8 118.6C272.8 118.12 272.24 117.8 271.6 117.8C270.96 117.8 270.4 118.12 270.4 118.6Z" fill="black"/>
<path d="M200 120.2C200 120.6 200.4 121 200.8 121C201.28 121 201.6 120.6 201.6 120.2C201.6 119.72 201.28 119.4 200.8 119.4C200.4 119.4 200 119.72 200 120.2Z" fill="black"/>
<path d="M120.8 121.8C120.8 122.68 121.12 123.4 121.52 123.4C122.56 123.4 124.08 121.32 123.44 120.76C122.4 119.64 120.8 120.28 120.8 121.8Z" fill="black"/>
<path d="M131.76 120.76C130.8 121.64 131.12 122.6 132.4 122.6C133.04 122.6 133.6 122.04 133.6 121.4C133.6 120.12 132.64 119.8 131.76 120.76Z" fill="black"/>
<path d="M175.6 123.16C175.2 124.84 175.44 125.64 176.4 126.2C177.12 126.6 178.48 127.64 179.36 128.36C183.84 132.2 187.76 127.32 183.92 122.68C182.4 120.84 182.32 120.84 180.8 122.2C179.28 123.56 179.12 123.56 177.68 122.28C176.24 121 176.16 121 175.6 123.16Z" fill="black"/>
<path d="M235.2 123.8C235.2 124.44 235.6 125 236.08 125C236.56 125 236.72 125.64 236.48 126.44C235.44 129.48 241.44 132.36 243.12 129.64C244.4 127.64 243.36 126.28 238.88 124.12C235.04 122.28 235.2 122.28 235.2 123.8Z" fill="black"/>
<path d="M126.4 124.2C126.4 124.6 126.8 125 127.2 125C127.68 125 128 124.6 128 124.2C128 123.72 127.68 123.4 127.2 123.4C126.8 123.4 126.4 123.72 126.4 124.2Z" fill="black"/>
<path d="M146.8 124.2C146.56 124.6 146.88 125 147.52 125C148.16 125 148.96 124.6 149.2 124.2C149.44 123.72 149.12 123.4 148.48 123.4C147.84 123.4 147.04 123.72 146.8 124.2Z" fill="black"/>
<path d="M159.6 125C159.36 125.48 159.68 126.04 160.4 126.28C161.92 126.92 162.8 126.28 162 125.08C161.36 123.96 160.24 123.96 159.6 125Z" fill="black"/>
<path d="M230.8 125C231.04 125.4 231.6 125.8 232.08 125.8C232.48 125.8 232.8 125.4 232.8 125C232.8 124.52 232.24 124.2 231.52 124.2C230.88 124.2 230.56 124.52 230.8 125Z" fill="black"/>
<path d="M155.2 125.88C155.2 126.44 154.08 126.52 151.92 126.2L148.72 125.64L149.2 128.76C150.24 135.24 150.4 135.64 151.52 134.68C152.4 133.96 152.88 134.04 153.76 134.84C154.64 135.8 155.12 135.8 156.24 135C156.96 134.44 157.6 133.72 157.6 133.4C157.6 133 158.24 132.04 158.96 131.16C160.32 129.72 160.32 129.64 158.96 128.6C158.24 128.12 157.6 127 157.6 126.28C157.6 125.56 157.04 125 156.4 125C155.76 125 155.2 125.4 155.2 125.88Z" fill="black"/>
<path d="M165.28 126.2C165.04 126.92 165.36 127.64 166.08 127.96C167.6 128.52 168.32 127.8 167.76 126.2C167.12 124.68 165.92 124.68 165.28 126.2Z" fill="black"/>
<path d="M201.36 125.48C200.32 126.52 200.8 127.4 202.48 127.4C203.36 127.4 204 127 203.84 126.44C203.44 125.32 202.08 124.76 201.36 125.48Z" fill="black"/>
<path d="M94 126.6C94.24 127 94.64 127.4 94.88 127.4C95.04 127.4 95.2 127 95.2 126.6C95.2 126.12 94.8 125.8 94.32 125.8C93.92 125.8 93.76 126.12 94 126.6Z" fill="black"/>
<path d="M335.2 126.92C335.2 127.72 335.84 128.2 336.96 128.2C337.92 128.2 338.48 128.12 338.32 127.96C338.16 127.88 337.36 127.24 336.64 126.68C335.44 125.72 335.2 125.8 335.2 126.92Z" fill="black"/>
<path d="M196 128.68C196 129.4 195.2 130.6 194.24 131.4C192.64 132.6 192.56 133.08 193.44 134.92C193.92 136.04 194.88 137 195.6 137C197.04 137 197.12 135.88 195.84 133.8C195.28 133 195.12 132.04 195.44 131.64C195.84 131.32 196.8 131.48 197.6 132.04C199.36 133.08 202.72 133.4 202.24 132.36C200.08 127.96 199.6 127.4 197.84 127.4C196.72 127.4 196 127.88 196 128.68Z" fill="black"/>
<path d="M258.8 128.2C259.04 128.6 259.84 129 260.48 129C261.12 129 261.6 128.6 261.6 128.2C261.6 127.72 260.88 127.4 259.92 127.4C259.04 127.4 258.56 127.72 258.8 128.2Z" fill="black"/>
<path d="M14.24 129.16C12.56 130.6 12 132.68 13.04 133.72C14.4 135.08 17.44 134.76 18.4 133.08C19.44 131.08 19.44 130.92 17.92 129.48C16.4 127.96 15.84 127.88 14.24 129.16Z" fill="black"/>
<path d="M96.8 129C96.8 129.4 97.2 129.8 97.6 129.8C98.08 129.8 98.4 129.4 98.4 129C98.4 128.52 98.08 128.2 97.6 128.2C97.2 128.2 96.8 128.52 96.8 129Z" fill="black"/>
<path d="M174.56 129.96C174.64 131 174.4 132.6 174.08 133.56C173.6 135.16 173.76 135.4 175.52 135.4C178.08 135.4 178.88 132.92 177.12 130.2C175.52 127.72 174.4 127.64 174.56 129.96Z" fill="black"/>
<path d="M68.8 129.8C68.8 130.2 69.2 130.6 69.6 130.6C70.08 130.6 70.4 130.2 70.4 129.8C70.4 129.32 70.08 129 69.6 129C69.2 129 68.8 129.32 68.8 129.8Z" fill="black"/>
<path d="M275.52 130.68C274.8 131.96 276.48 133.32 278 132.68C279.12 132.28 279.2 131.96 278.4 131C277.2 129.56 276.32 129.48 275.52 130.68Z" fill="black"/>
<path d="M218.72 131.8C218.16 133.24 218.96 134.6 220.48 134.6C221.12 134.6 221.6 133.8 221.6 132.6C221.6 130.44 219.44 129.8 218.72 131.8Z" fill="black"/>
<path d="M130.48 132.68C130.48 133.56 130.72 133.8 130.96 133.16C131.2 132.6 131.12 131.88 130.88 131.64C130.64 131.32 130.4 131.8 130.48 132.68Z" fill="black"/>
<path d="M229.6 133.4C229.6 135.64 231.6 137 234.8 137C236.48 137 236.88 136.68 236.48 135.72C236.24 135 236 134.36 236 134.12C236 133.64 231.36 131.4 230.4 131.4C230 131.4 229.6 132.28 229.6 133.4Z" fill="black"/>
<path d="M163.44 134.52C162.08 136.76 163.44 140.2 166.56 142.36C169.6 144.52 170.48 144.12 170.32 140.76C170.24 139.32 170.4 137.4 170.72 136.44C171.2 134.92 170.96 134.6 169.04 134.12C167.84 133.88 166.24 133.48 165.6 133.32C164.96 133.16 163.92 133.72 163.44 134.52Z" fill="black"/>
<path d="M182.4 136.44C182.4 140.28 183.84 142.6 186.24 142.6C188.72 142.6 189.52 141.4 189.36 138.04C189.28 135.4 188.88 134.6 187.6 134.36C186.72 134.12 185.2 133.64 184.24 133.4C182.48 132.84 182.4 133.08 182.4 136.44Z" fill="black"/>
<path d="M206.8 133.8C207.04 134.2 207.68 134.6 208.08 134.6C208.56 134.6 208.64 134.2 208.4 133.8C208.16 133.32 207.52 133 207.12 133C206.64 133 206.56 133.32 206.8 133.8Z" fill="black"/>
<path d="M283.2 133.8C283.2 134.2 283.76 134.6 284.4 134.6C285.04 134.6 285.6 134.2 285.6 133.8C285.6 133.32 285.04 133 284.4 133C283.76 133 283.2 133.32 283.2 133.8Z" fill="black"/>
<path d="M123.2 134.44C123.2 134.92 122.48 135.48 121.68 135.8C119.92 136.36 120.24 138.6 122 138.6C122.96 138.6 124.24 134.6 123.52 133.88C123.36 133.72 123.2 133.96 123.2 134.44Z" fill="black"/>
<path d="M244 136.92C244 137.8 246.08 138.68 246.72 138.04C246.96 137.8 246.96 137.24 246.72 136.92C246.16 135.96 244 136.04 244 136.92Z" fill="black"/>
<path d="M258 139.32C257.28 140.6 258.24 141.8 260.08 141.8C261.2 141.8 261.6 141.32 261.44 140.44C261.12 138.84 258.8 138.12 258 139.32Z" fill="black"/>
<path d="M158.56 141.64C158.72 143.16 159.28 143.8 160.4 143.8C161.28 143.88 162.48 144.12 163.04 144.44C163.52 144.84 164 144.76 164 144.28C164 143.8 163.68 143.4 163.2 143.4C162.8 143.4 162.4 142.68 162.4 141.8C162.4 140.92 162.16 140.2 161.84 140.12C161.44 140.12 160.56 139.96 159.76 139.8C158.64 139.56 158.32 139.96 158.56 141.64Z" fill="black"/>
<path d="M264.64 139.96C265.2 140.2 265.92 140.12 266.16 139.88C266.48 139.64 266 139.4 265.12 139.48C264.24 139.48 264 139.72 264.64 139.96Z" fill="black"/>
<path d="M191.28 142.04C190.64 142.92 190.8 143.48 192 144.6C194 146.36 194.8 145.8 194.08 143C193.52 140.76 192.64 140.44 191.28 142.04Z" fill="black"/>
<path d="M218.4 142.6C217.52 143.16 217.52 143.48 218.32 144.52C219.68 146.12 222.4 146.2 222.4 144.6C222.4 143.08 219.84 141.72 218.4 142.6Z" fill="black"/>
<path d="M331.2 143.4C331.2 143.8 331.52 144.2 331.92 144.2C332.4 144.2 332.96 143.8 333.2 143.4C333.44 142.92 333.12 142.6 332.48 142.6C331.76 142.6 331.2 142.92 331.2 143.4Z" fill="black"/>
<path d="M143.44 145.24C143.12 145.88 141.76 146.28 140.4 146.28C138.48 146.2 137.92 146.6 137.76 147.96C137.6 149.08 138.08 150.04 139.2 150.6C141.2 151.64 142.4 151.08 142.4 149C142.4 146.92 144.56 147.8 145.28 150.04C146 152.52 149.04 157 150 157C150.48 156.92 151.76 156.04 153.04 155C154.72 153.48 155.2 152.44 155.04 150.28C154.88 148.76 154.64 147.56 154.4 147.56C154.16 147.64 152.24 146.92 150.16 145.96C145.68 143.96 144.32 143.8 143.44 145.24Z" fill="black"/>
<path d="M293.28 144.92C293.04 145.32 293.36 145.8 294 146.12C294.72 146.36 295.2 146.12 295.2 145.4C295.2 144.12 293.92 143.8 293.28 144.92Z" fill="black"/>
<path d="M164.8 147C164.8 147.8 165.36 148.2 166.24 148.04C167.92 147.72 167.76 146.28 166.08 145.96C165.28 145.8 164.8 146.2 164.8 147Z" fill="black"/>
<path d="M32.8 147.32C32.8 147.8 33.2 148.36 33.6 148.6C34.08 148.84 34.4 148.52 34.4 147.88C34.4 147.16 34.08 146.6 33.6 146.6C33.2 146.6 32.8 146.92 32.8 147.32Z" fill="black"/>
<path d="M180 147.4C180 147.8 180.4 148.2 180.8 148.2C181.28 148.2 181.6 147.8 181.6 147.4C181.6 146.92 181.28 146.6 180.8 146.6C180.4 146.6 180 146.92 180 147.4Z" fill="black"/>
<path d="M172.8 149C172.8 149.4 173.2 149.8 173.6 149.8C174.08 149.8 174.4 149.4 174.4 149C174.4 148.52 174.08 148.2 173.6 148.2C173.2 148.2 172.8 148.52 172.8 149Z" fill="black"/>
<path d="M170.08 149.56C169.2 150.44 169.6 151.4 170.8 151.4C171.44 151.4 172 151.08 172 150.68C172 149.64 170.72 148.92 170.08 149.56Z" fill="black"/>
<path d="M192.16 149.96C191.6 150.52 191.2 151.32 191.2 151.8C191.2 152.76 193.76 155.4 194.64 155.4C195.76 155.4 197.6 152.68 197.6 150.92C197.6 149.32 197.2 149 195.36 149C194.16 149 192.72 149.4 192.16 149.96Z" fill="black"/>
<path d="M126 152.68C125.6 154.84 125.84 155.96 126.72 156.92C127.92 158.04 128.16 158.04 129.36 156.76C130.64 155.48 130.64 155.32 129.04 153.64C128.16 152.6 127.6 151.32 127.76 150.76C128 150.28 127.76 149.8 127.36 149.8C126.96 149.8 126.32 151.08 126 152.68Z" fill="black"/>
<path d="M164.8 151.4C164.8 151.8 165.2 152.2 165.6 152.2C166.08 152.2 166.4 151.8 166.4 151.4C166.4 150.92 166.08 150.6 165.6 150.6C165.2 150.6 164.8 150.92 164.8 151.4Z" fill="black"/>
<path d="M220.4 151.48C220.08 151.96 220 152.52 220.24 152.76C220.8 153.32 222.4 152.28 222.4 151.32C222.4 150.36 221.04 150.36 220.4 151.48Z" fill="black"/>
<path d="M104.48 152.12C103.68 153.4 104.88 155.48 106.32 155.24C108 154.92 108 151.88 106.24 151.56C105.52 151.4 104.72 151.64 104.48 152.12Z" fill="black"/>
<path d="M203.36 152.36C203.84 153.8 205.6 154.04 205.6 152.68C205.6 151.96 205.04 151.4 204.32 151.4C203.6 151.4 203.2 151.8 203.36 152.36Z" fill="black"/>
<path d="M215.2 152.84C215.2 153.24 215.76 153.56 216.4 153.56C217.04 153.56 217.36 153.24 217.12 152.84C216.88 152.52 216.4 152.2 215.92 152.2C215.52 152.2 215.2 152.52 215.2 152.84Z" fill="black"/>
<path d="M158 153.8C158.24 154.2 158.64 154.6 158.88 154.6C159.04 154.6 159.2 154.2 159.2 153.8C159.2 153.32 158.8 153 158.32 153C157.92 153 157.76 153.32 158 153.8Z" fill="black"/>
<path d="M96 155.4C96 156.28 96.56 157 97.2 157C97.84 157 98.4 156.28 98.4 155.4C98.4 154.52 97.84 153.8 97.2 153.8C96.56 153.8 96 154.52 96 155.4Z" fill="black"/>
<path d="M166.4 154.12C166.4 154.2 166.8 155.48 167.28 156.84C167.84 158.44 168.48 159.16 169.28 158.84C170.88 158.2 170.64 155.56 168.88 154.6C167.28 153.8 166.4 153.56 166.4 154.12Z" fill="black"/>
<path d="M236.16 155.56C236.4 157.4 238.4 158.28 240.48 157.48C242.4 156.76 240.32 153.8 237.92 153.8C236.24 153.8 235.92 154.12 236.16 155.56Z" fill="black"/>
<path d="M297.2 154.6C297.44 155 297.84 155.4 298.08 155.4C298.24 155.4 298.4 155 298.4 154.6C298.4 154.12 298 153.8 297.52 153.8C297.12 153.8 296.96 154.12 297.2 154.6Z" fill="black"/>
<path d="M183.2 156.12C183.2 157 183.92 157.96 184.88 158.2C187.04 158.92 187.52 158.28 186.4 156.28C185.28 154.2 183.2 154.12 183.2 156.12Z" fill="black"/>
<path d="M215.2 156.28C215.2 156.68 215.6 156.84 216 156.6C216.48 156.36 216.8 155.96 216.8 155.72C216.8 155.56 216.48 155.4 216 155.4C215.6 155.4 215.2 155.8 215.2 156.28Z" fill="black"/>
<path d="M77.76 157.16C78.16 158.36 80 158.6 80.08 157.4C80.08 156.92 79.52 156.44 78.72 156.36C77.92 156.12 77.52 156.44 77.76 157.16Z" fill="black"/>
<path d="M136.8 157.72C136.8 158.2 137.2 158.76 137.6 159C138.08 159.24 138.4 158.92 138.4 158.28C138.4 157.56 138.08 157 137.6 157C137.2 157 136.8 157.32 136.8 157.72Z" fill="black"/>
<path d="M212 157.88C212 158.28 212.4 158.44 212.8 158.2C213.28 157.96 213.6 158.12 213.6 158.52C213.6 159 214.16 159.4 214.88 159.4C216 159.4 216 159.16 215.2 158.2C214.08 156.84 212 156.6 212 157.88Z" fill="black"/>
<path d="M256 158.2C256.96 159.4 258.4 159.16 258.4 157.72C258.4 157.32 257.6 157 256.72 157C255.28 157 255.2 157.16 256 158.2Z" fill="black"/>
<path d="M191.44 160.6C191.2 161.32 191.12 161.96 191.28 162.12C191.44 162.2 192.48 162.92 193.6 163.64L195.52 165L193.12 165.48C191.28 165.8 190.48 166.68 189.36 169.24C188.64 171.08 188 173.08 188 173.64C188 174.12 187.6 174.6 187.12 174.6C186.64 174.6 186.4 175.4 186.56 176.28C186.72 177.56 187.76 178.36 190.4 179.16C198.08 181.48 202.08 178.52 200 172.2C199.2 169.72 199.12 168.76 199.84 168.04C200.4 167.48 200.8 166.44 200.8 165.64C200.8 164.84 201.28 164.2 201.92 164.2C202.64 164.2 202.88 163.64 202.64 162.6C202 160.2 197.92 160.36 197.28 162.76C196.88 164.52 196.8 164.52 195.04 162.04C192.96 159.16 192.16 158.84 191.44 160.6Z" fill="black"/>
<path d="M148.24 161C147.2 161.48 146.4 162.44 146.4 163.4C146.4 164.6 145.84 165 144.48 165C141.28 165 140.88 168.04 143.68 170.36C146.8 172.84 147.2 172.68 147.28 169.16C147.36 167.56 147.52 166.84 147.76 167.56C148.24 169.32 148.72 169.32 150.88 167.56C153.12 165.8 153.76 163.64 152.8 161.72C151.84 160.04 150.96 159.88 148.24 161Z" fill="black"/>
<path d="M178 161.96C177.84 162.52 177.6 163.96 177.36 165.24C176.96 167.64 178.16 169.08 178.88 167.08C179.12 166.36 180 165.8 180.8 165.8C183.04 165.8 183.36 163.64 181.36 162.2C179.28 160.76 178.48 160.68 178 161.96Z" fill="black"/>
<path d="M156 164.04C156 164.44 156.48 165.32 157.04 166.2C157.84 167.24 158.32 167.4 158.72 166.68C159.04 166.2 158.88 165.24 158.4 164.6C157.36 163.32 156 163 156 164.04Z" fill="black"/>
<path d="M166.4 165.16C165.76 166.2 165.36 167.48 165.44 167.96C165.6 168.6 164.8 169 163.36 169C159.28 169 157.36 172.68 159.28 176.44C160.64 178.92 161.52 179.32 164.8 179L167.6 178.76V174.36C167.6 171.88 167.92 169.64 168.24 169.32C168.96 168.52 168.96 163.4 168.16 163.4C167.84 163.4 167.04 164.2 166.4 165.16Z" fill="black"/>
<path d="M103.36 165.96C103.52 166.92 104.16 167.8 104.8 167.8C106.56 167.8 106.32 164.68 104.56 164.36C103.36 164.12 103.12 164.44 103.36 165.96Z" fill="black"/>
<path d="M227.36 166.68C227.52 167.24 228.16 167.88 228.72 168.04C229.36 168.28 229.68 167.96 229.44 167.32C229.28 166.76 228.64 166.12 228.08 165.96C227.44 165.72 227.12 166.04 227.36 166.68Z" fill="black"/>
<path d="M268 170.6C266.72 173 268.32 175.4 271.12 175.4C274.48 175.4 275.76 173.56 274.08 171C272.48 168.52 269.2 168.36 268 170.6Z" fill="black"/>
<path d="M149.6 171.4C149.6 171.8 150 172.2 150.4 172.2C150.88 172.2 151.2 171.8 151.2 171.4C151.2 170.92 150.88 170.6 150.4 170.6C150 170.6 149.6 170.92 149.6 171.4Z" fill="black"/>
<path d="M178.4 172.12C178.4 172.52 178.96 173.08 179.68 173.32C181.44 174.04 181.6 173.96 181.6 172.6C181.6 171.96 180.88 171.4 180 171.4C179.12 171.4 178.4 171.72 178.4 172.12Z" fill="black"/>
<path d="M214.64 173.4C214.16 174.76 216.48 177.8 218 177.8C219.68 177.8 219.92 174.76 218.48 173.48C216.72 171.88 215.28 171.88 214.64 173.4Z" fill="black"/>
<path d="M171.6 174.68C170.8 175.88 171.68 176.52 173.2 175.88C173.92 175.64 174.24 175.08 174 174.6C173.36 173.56 172.24 173.56 171.6 174.68Z" fill="black"/>
<path d="M58.8799 175.32C58.5599 175.72 58.7199 176.28 59.1199 176.52C59.5199 176.84 60.0799 176.68 60.3199 176.28C60.6399 175.88 60.4799 175.32 60.0799 175.08C59.6799 174.76 59.1199 174.92 58.8799 175.32Z" fill="black"/>
<path d="M261.28 176.6C261.6 177.24 262.24 177.8 262.88 177.8C263.52 177.8 264 177.24 264 176.6C264 175.96 263.28 175.4 262.4 175.4C261.36 175.4 260.96 175.8 261.28 176.6Z" fill="black"/>
<path d="M87.2 177.48C87.2 178.12 87.6 178.44 88 178.2C88.48 177.88 88.64 177.32 88.4 176.92C87.68 175.8 87.2 176.04 87.2 177.48Z" fill="black"/>
<path d="M144.4 177.8C143.6 179.16 145.36 180.76 146.4 179.72C147.04 179.08 146.88 178.52 146.08 177.88C145.28 177.16 144.8 177.16 144.4 177.8Z" fill="black"/>
<path d="M136.8 178.92C136.8 180.28 137.92 181.24 138.64 180.52C139.28 179.88 138.4 177.8 137.52 177.8C137.12 177.8 136.8 178.28 136.8 178.92Z" fill="black"/>
<path d="M152 178.92C152 179.64 152.4 180.2 152.8 180.2C153.28 180.2 153.6 179.88 153.6 179.48C153.6 179 153.28 178.44 152.8 178.2C152.4 177.96 152 178.28 152 178.92Z" fill="black"/>
<path d="M121.6 180.6C121.6 181.24 122.16 181.8 122.8 181.8C123.44 181.8 124 181.24 124 180.6C124 179.96 123.44 179.4 122.8 179.4C122.16 179.4 121.6 179.96 121.6 180.6Z" fill="black"/>
<path d="M128 182.2C128 184.44 129.92 184.92 130.72 182.92C131.52 180.84 131.28 180.2 129.6 180.2C128.4 180.2 128 180.76 128 182.2Z" fill="black"/>
<path d="M254.08 180.92C253.84 181.24 254.32 182.2 255.2 183C256.48 184.2 257.04 184.28 257.84 183.48C258.56 182.68 258.48 182.28 257.28 181.32C255.44 180.04 254.64 179.88 254.08 180.92Z" fill="black"/>
<path d="M303.2 181.32C303.2 182.12 303.92 182.6 304.88 182.6C306.8 182.6 306.56 180.76 304.56 180.36C303.76 180.2 303.2 180.6 303.2 181.32Z" fill="black"/>
<path d="M176.4 181.72C175.68 183 176.64 184.2 178.48 184.2C179.6 184.2 180 183.72 179.84 182.84C179.52 181.24 177.2 180.52 176.4 181.72Z" fill="black"/>
<path d="M313.6 182.12C313.6 183.32 315.28 184.2 317.36 184.2C318.48 184.2 318.48 183.96 317.2 182.6C315.52 180.76 313.6 180.52 313.6 182.12Z" fill="black"/>
<path d="M182.4 184.76C182.48 186.92 182.48 186.92 183.6 185.48C184.72 183.96 184.56 182.6 183.12 182.6C182.72 182.6 182.4 183.56 182.4 184.76Z" fill="black"/>
<path d="M186 183.4C185.12 184.76 186.4 187.4 188 187.4C189.76 187.4 190.4 185.88 189.44 183.96C188.64 182.44 186.8 182.12 186 183.4Z" fill="black"/>
<path d="M132 185.48C132 186.12 132.4 186.44 132.8 186.2C133.28 185.88 133.44 185.32 133.2 184.92C132.48 183.8 132 184.04 132 185.48Z" fill="black"/>
<path d="M288.48 185.72C288.24 186.12 288.56 186.6 289.2 186.92C289.84 187.16 290.4 187 290.4 186.6C290.4 185.56 288.96 184.84 288.48 185.72Z" fill="black"/>
<path d="M49.3599 186.92C48.7999 188.2 49.4399 189 50.9599 189C51.5199 189 51.9999 188.28 51.9999 187.4C51.9999 185.56 49.9999 185.24 49.3599 186.92Z" fill="black"/>
<path d="M195.2 186.92C195.2 188.68 197.52 190.2 198.56 189.16C199.2 188.52 199.2 187.96 198.4 187C197.12 185.48 195.2 185.4 195.2 186.92Z" fill="black"/>
<path d="M128.4 187.4C128.16 187.8 128.32 188.2 128.72 188.2C129.2 188.2 129.6 187.8 129.6 187.4C129.6 186.92 129.44 186.6 129.28 186.6C129.04 186.6 128.64 186.92 128.4 187.4Z" fill="black"/>
<path d="M164 187.4C164 187.8 164.4 188.2 164.88 188.2C165.28 188.2 165.44 187.8 165.2 187.4C164.96 186.92 164.56 186.6 164.32 186.6C164.16 186.6 164 186.92 164 187.4Z" fill="black"/>
<path d="M179.6 187.4C179.2 188.12 183.68 192.2 184.8 192.2C186.16 192.2 186.32 190.84 185.2 189.24C184 187.56 180.24 186.36 179.6 187.4Z" fill="black"/>
<path d="M308.4 187.4C308.64 187.8 309.2 188.2 309.68 188.2C310.08 188.2 310.4 187.8 310.4 187.4C310.4 186.92 309.84 186.6 309.12 186.6C308.48 186.6 308.16 186.92 308.4 187.4Z" fill="black"/>
<path d="M110.56 190.28C109.84 191.56 111.76 197.8 112.88 197.8C113.12 197.8 113.84 196.36 114.4 194.6C115.2 192.04 115.28 191.24 114.4 190.2C113.12 188.6 111.44 188.68 110.56 190.28Z" fill="black"/>
<path d="M194.08 190.36C193.6 191.48 193.68 191.56 194.48 190.84C195.04 190.28 195.28 189.64 195.04 189.4C194.8 189.16 194.32 189.56 194.08 190.36Z" fill="black"/>
<path d="M256.24 190.36C256.96 191.08 257.76 191.48 258.08 191.24C258.88 190.44 257.6 189 256.16 189C254.96 189 254.96 189.08 256.24 190.36Z" fill="black"/>
<path d="M120.48 190.36C119.6 191.24 120 192.2 121.2 192.2C121.84 192.2 122.4 191.88 122.4 191.48C122.4 190.44 121.12 189.72 120.48 190.36Z" fill="black"/>
<path d="M149.6 191C149.6 191.64 150.16 192.2 150.8 192.2C151.44 192.2 152 191.64 152 191C152 190.36 151.44 189.8 150.8 189.8C150.16 189.8 149.6 190.36 149.6 191Z" fill="black"/>
<path d="M248 191.4C248 191.8 248.4 192.2 248.88 192.2C249.28 192.2 249.44 191.8 249.2 191.4C248.96 190.92 248.56 190.6 248.32 190.6C248.16 190.6 248 190.92 248 191.4Z" fill="black"/>
<path d="M83.6 193C83.04 193.96 83.76 195.4 84.88 195.4C85.28 195.4 85.6 194.68 85.6 193.8C85.6 192.12 84.4 191.64 83.6 193Z" fill="black"/>
<path d="M300.96 193.96C301.52 195.48 304 195.72 304 194.28C304 193.48 303.28 193 302.32 193C301.36 193 300.8 193.4 300.96 193.96Z" fill="black"/>
<path d="M0 195.08C0 195.72 0.4 196.04 0.8 195.8C1.28 195.56 1.6 195 1.6 194.52C1.6 194.12 1.28 193.8 0.8 193.8C0.4 193.8 0 194.36 0 195.08Z" fill="black"/>
<path d="M197.6 195C197.6 195.72 198 196.2 198.48 196.04C198.96 195.88 199.36 195.4 199.36 195C199.36 194.6 198.96 194.12 198.48 193.96C198 193.8 197.6 194.28 197.6 195Z" fill="black"/>
<path d="M116.4 195.32C115.92 196.2 117.12 197.16 117.92 196.44C118.64 195.72 118.48 194.6 117.68 194.6C117.2 194.6 116.72 194.92 116.4 195.32Z" fill="black"/>
<path d="M99.76 196.44C99.52 197.08 99.6 198.04 100 198.6C100.88 200.04 103.36 198.92 103.04 197.24C102.72 195.48 100.32 194.92 99.76 196.44Z" fill="black"/>
<path d="M200.96 197.16C201.12 198.68 201.68 199 203.92 199C207.36 198.92 207.84 197.72 205.04 196.36C201.84 194.92 200.64 195.16 200.96 197.16Z" fill="black"/>
<path d="M150.8 197C150.48 197.48 150.56 198.28 151.04 198.76C151.52 199.24 152 199.24 152.4 198.6C152.72 198.12 152.64 197.32 152.16 196.84C151.68 196.36 151.2 196.36 150.8 197Z" fill="black"/>
<path d="M226.32 198.28C225.44 199.4 225.44 199.72 226.8 200.68C229.2 202.52 230.56 202.04 230.24 199.64C229.92 197.08 227.92 196.36 226.32 198.28Z" fill="black"/>
<path d="M213.52 199.64C211.36 201.32 211.12 203.32 212.8 205C214.72 206.92 215.2 206.92 217.28 205.48C218.8 204.36 218.8 204.28 217.28 201.48C215.6 198.28 215.36 198.2 213.52 199.64Z" fill="black"/>
<path d="M164.8 200.2C164.8 200.6 165.2 201 165.6 201C166.08 201 166.4 200.6 166.4 200.2C166.4 199.72 166.08 199.4 165.6 199.4C165.2 199.4 164.8 199.72 164.8 200.2Z" fill="black"/>
<path d="M171.36 202.28C171.44 203 172.08 203.8 172.64 204.04C173.36 204.28 173.68 203.88 173.44 202.92C173.36 202.2 172.72 201.4 172.16 201.16C171.44 200.92 171.12 201.32 171.36 202.28Z" fill="black"/>
<path d="M203.76 202.92C203.12 204.52 206.16 208.2 208.08 208.2C210 208.2 210.16 204.92 208.32 203.08C206.8 201.48 204.32 201.4 203.76 202.92Z" fill="black"/>
<path d="M135.2 203.8C135.2 204.52 135.6 205 136.08 204.84C136.56 204.68 136.96 204.2 136.96 203.8C136.96 203.4 136.56 202.92 136.08 202.76C135.6 202.6 135.2 203.08 135.2 203.8Z" fill="black"/>
<path d="M180 204.52C180 206.12 180.4 206.6 181.68 206.6C182.88 206.6 183.28 206.2 183.04 204.84C182.64 202.12 180 201.88 180 204.52Z" fill="black"/>
<path d="M193.6 204.52C193.6 205.88 195.76 206.84 196.4 205.8C196.72 205.32 196.64 204.6 196.4 204.2C195.68 203 193.6 203.24 193.6 204.52Z" fill="black"/>
<path d="M156.48 205.48C155.68 207.48 155.92 208.2 157.2 208.2C157.84 208.2 158.4 208.04 158.4 207.88C158.4 207.72 158.64 207 158.88 206.36C159.12 205.72 158.8 205 158.08 204.76C157.44 204.52 156.72 204.84 156.48 205.48Z" fill="black"/>
<path d="M236.4 205.8C236.64 206.2 237.04 206.6 237.28 206.6C237.44 206.6 237.6 206.2 237.6 205.8C237.6 205.32 237.2 205 236.72 205C236.32 205 236.16 205.32 236.4 205.8Z" fill="black"/>
<path d="M222.56 206.68C222.72 207.24 223.36 207.88 223.92 208.04C224.56 208.28 224.88 207.96 224.64 207.32C224.48 206.76 223.84 206.12 223.28 205.96C222.64 205.72 222.32 206.04 222.56 206.68Z" fill="black"/>
<path d="M166.56 207.48C166.72 208.04 167.36 208.68 167.92 208.84C168.56 209.08 168.88 208.76 168.64 208.12C168.48 207.56 167.84 206.92 167.28 206.76C166.64 206.52 166.32 206.84 166.56 207.48Z" fill="black"/>
<path d="M191.2 208.12C191.2 208.6 191.6 209.16 192 209.4C192.48 209.64 192.8 209.32 192.8 208.68C192.8 207.96 192.48 207.4 192 207.4C191.6 207.4 191.2 207.72 191.2 208.12Z" fill="black"/>
<path d="M154.16 209.08C154.72 209.64 155.36 209.88 155.6 209.64C155.84 209.4 155.44 208.92 154.64 208.68C153.52 208.2 153.44 208.28 154.16 209.08Z" fill="black"/>
<path d="M170.88 209.4C170.48 210.52 171.84 212.2 173.2 212.2C173.76 212.2 174.8 212.92 175.6 213.8C177.6 216.04 178.4 215.8 178.4 213.08C178.4 210.68 176.16 209 175.2 210.6C174.8 211.24 174.48 211.16 174.16 210.28C173.92 209.64 174.08 208.92 174.64 208.76C175.2 208.6 174.64 208.44 173.44 208.44C172.24 208.44 171.12 208.84 170.88 209.4Z" fill="black"/>
<path d="M260 208.52C260 208.68 260.56 209.24 261.2 209.8C262.24 210.68 262.32 210.6 261.92 209.48C261.52 208.36 260 207.64 260 208.52Z" fill="black"/>
<path d="M208 210.68C208 211.08 208.4 211.24 208.8 211C209.28 210.76 209.6 210.36 209.6 210.12C209.6 209.96 209.28 209.8 208.8 209.8C208.4 209.8 208 210.2 208 210.68Z" fill="black"/>
<path d="M249.6 211.4C249.6 211.8 250.32 212.52 251.12 212.92C252.4 213.64 252.56 213.56 252.24 212.2C251.84 210.6 249.6 209.88 249.6 211.4Z" fill="black"/>
<path d="M103.28 213.48C100.48 217 101.52 222.6 104.96 222.6C107.52 222.6 113.52 219.48 114.48 217.64C115.44 215.88 114.24 213.8 112.08 213.8C111.36 213.8 110.08 213.24 109.28 212.6C106.96 210.84 105.12 211.16 103.28 213.48Z" fill="black"/>
<path d="M116.32 213.32C115.76 215.64 116.4 217 118.08 217C118.96 217 119.2 216.28 119.04 214.44C118.72 211.32 117.04 210.6 116.32 213.32Z" fill="black"/>
<path d="M189.04 215.88C188.8 216.52 189.12 217.64 189.76 218.28C190.8 219.32 191.04 219.32 191.92 218.36C193.04 217 192.24 214.6 190.72 214.6C190.08 214.6 189.36 215.16 189.04 215.88Z" fill="black"/>
<path d="M220 215.72C220 216.44 220.56 217 221.28 217C222.64 217 222.4 215.24 220.96 214.76C220.4 214.6 220 215 220 215.72Z" fill="black"/>
<path d="M173.6 218.6C173.6 219 174 219.4 174.4 219.4C174.88 219.4 175.2 219 175.2 218.6C175.2 218.12 174.88 217.8 174.4 217.8C174 217.8 173.6 218.12 173.6 218.6Z" fill="black"/>
<path d="M86.9601 222.36C86.1601 223.08 86.2401 227.4 87.0401 227.4C88.0801 227.4 89.8401 223.64 89.2801 222.68C88.6401 221.72 87.6801 221.56 86.9601 222.36Z" fill="black"/>
<path d="M93.6 222.6C93.6 223 94 223.4 94.4 223.4C94.88 223.4 95.2 223 95.2 222.6C95.2 222.12 94.88 221.8 94.4 221.8C94 221.8 93.6 222.12 93.6 222.6Z" fill="black"/>
<path d="M158.4 223.96C158.4 226.2 159.68 227.72 161.2 227.16C163.2 226.36 162.4 223.08 160.24 222.76C158.88 222.52 158.4 222.92 158.4 223.96Z" fill="black"/>
<path d="M170.4 223.8C170.4 224.44 170.8 225 171.2 225C171.68 225 172 224.44 172 223.8C172 223.16 171.68 222.6 171.2 222.6C170.8 222.6 170.4 223.16 170.4 223.8Z" fill="black"/>
<path d="M132 224.12C132 224.52 132.48 225.24 133.12 225.72C133.92 226.36 134.4 226.36 135.12 225.56C135.6 224.92 135.76 224.2 135.44 223.96C134.72 223.16 132 223.32 132 224.12Z" fill="black"/>
<path d="M64 226.28C64 226.92 64.4 227.24 64.8 227C65.28 226.68 65.44 226.12 65.2 225.72C64.48 224.6 64 224.84 64 226.28Z" fill="black"/>
<path d="M129.04 227.08C128.4 228.76 130.08 230.44 131.28 229.24C132.32 228.2 131.68 225.8 130.4 225.8C129.92 225.8 129.36 226.36 129.04 227.08Z" fill="black"/>
<path d="M75.3599 227.56C74.4799 228.76 75.5199 232.2 76.7199 232.2C77.9199 232.2 79.2799 229.32 78.7199 227.88C78.1599 226.36 76.4799 226.2 75.3599 227.56Z" fill="black"/>
<path d="M164 229.32C164 230.44 164.4 231.4 164.8 231.4C165.28 231.4 165.6 230.68 165.6 229.88C165.6 229 165.28 228.04 164.8 227.8C164.32 227.48 164 228.2 164 229.32Z" fill="black"/>
<path d="M148.8 230.6C148.8 231 149.2 231.4 149.6 231.4C150.08 231.4 150.4 231 150.4 230.6C150.4 230.12 150.08 229.8 149.6 229.8C149.2 229.8 148.8 230.12 148.8 230.6Z" fill="black"/>
<path d="M186.4 234.52C186.4 236.04 190.72 238.2 192.08 237.4C193.04 236.76 192 234.6 190.72 234.6C190.08 234.6 189.6 234.2 189.6 233.8C189.6 233.32 188.88 233 188 233C186.96 233 186.4 233.56 186.4 234.52Z" fill="black"/>
<path d="M58.88 234.52C58.56 235.08 58.48 235.72 58.72 235.96C59.44 236.68 60.24 235.64 59.84 234.52C59.52 233.64 59.36 233.64 58.88 234.52Z" fill="black"/>
<path d="M162.4 234.6C162.4 235 162.96 235.4 163.68 235.4C164.32 235.4 164.64 235 164.4 234.6C164.16 234.12 163.6 233.8 163.12 233.8C162.72 233.8 162.4 234.12 162.4 234.6Z" fill="black"/>
<path d="M144 236.92C144 237.4 144.4 237.96 144.8 238.2C145.28 238.44 145.6 238.12 145.6 237.48C145.6 236.76 145.28 236.2 144.8 236.2C144.4 236.2 144 236.52 144 236.92Z" fill="black"/>
<path d="M123.52 238.68C122.88 239.8 124.4 241.32 125.52 240.68C126.4 240.12 125.84 237.8 124.8 237.8C124.4 237.8 123.84 238.2 123.52 238.68Z" fill="black"/>
<path d="M184.88 238.92C184.32 239.56 184.24 240.28 184.64 240.52C185.12 240.76 185.68 240.44 185.92 239.72C186.64 237.88 186.08 237.48 184.88 238.92Z" fill="black"/>
<path d="M110.8 239.4C111.04 239.8 111.6 240.2 112.08 240.2C112.48 240.2 112.8 239.8 112.8 239.4C112.8 238.92 112.24 238.6 111.52 238.6C110.88 238.6 110.56 238.92 110.8 239.4Z" fill="black"/>
<path d="M54.16 240.28C53.44 240.76 52.8 241.4 52.8 241.8C52.8 243.08 55.2 242.68 55.76 241.4C56.4 239.72 55.84 239.4 54.16 240.28Z" fill="black"/>
<path d="M94.4 240.2C94.4 240.6 94.8 241 95.2 241C95.68 241 96 240.6 96 240.2C96 239.72 95.68 239.4 95.2 239.4C94.8 239.4 94.4 239.72 94.4 240.2Z" fill="black"/>
<path d="M204.48 240.6C203.84 242.36 204.8 244.28 206.32 244.04C208.16 243.64 208.32 241.24 206.56 240.28C205.36 239.64 204.88 239.72 204.48 240.6Z" fill="black"/>
<path d="M35.68 240.76C34.96 241.48 35.12 243.4 35.92 243.4C36.88 243.4 37.68 241.16 36.88 240.68C36.48 240.44 36 240.44 35.68 240.76Z" fill="black"/>
<path d="M194.8 241C195.04 241.4 195.6 241.8 196.08 241.8C196.48 241.8 196.8 241.4 196.8 241C196.8 240.52 196.24 240.2 195.52 240.2C194.88 240.2 194.56 240.52 194.8 241Z" fill="black"/>
<path d="M88.3199 242.2C87.9999 242.84 88.0799 244.04 88.3199 244.76C88.7999 245.96 88.9599 245.96 90.1599 244.84C91.4399 243.48 91.1199 241 89.5999 241C89.1199 241 88.5599 241.56 88.3199 242.2Z" fill="black"/>
<path d="M159.2 244.2C159.2 244.6 159.6 245 160 245C160.48 245 160.8 244.6 160.8 244.2C160.8 243.72 160.48 243.4 160 243.4C159.6 243.4 159.2 243.72 159.2 244.2Z" fill="black"/>
<path d="M335.68 245.4C336 246.04 336.32 246.6 336.48 246.6C336.64 246.6 336.8 246.04 336.8 245.4C336.8 244.76 336.48 244.2 336 244.2C335.6 244.2 335.44 244.76 335.68 245.4Z" fill="black"/>
<path d="M120.8 246.6C120.8 247 121.2 247.4 121.6 247.4C122.08 247.4 122.4 247 122.4 246.6C122.4 246.12 122.08 245.8 121.6 245.8C121.2 245.8 120.8 246.12 120.8 246.6Z" fill="black"/>
<path d="M139.2 252.12C139.2 253.08 139.6 253.8 140 253.8C140.48 253.8 140.8 253.32 140.8 252.68C140.8 252.04 140.48 251.24 140 251C139.6 250.76 139.2 251.24 139.2 252.12Z" fill="black"/>
<path d="M186.4 255.32C186.4 255.8 186.8 256.36 187.2 256.6C187.68 256.84 188 256.52 188 255.88C188 255.16 187.68 254.6 187.2 254.6C186.8 254.6 186.4 254.92 186.4 255.32Z" fill="black"/>
<path d="M238.8 255.4C238.56 255.8 238.88 256.2 239.52 256.2C240.24 256.2 240.8 255.8 240.8 255.4C240.8 254.92 240.48 254.6 240.08 254.6C239.6 254.6 239.04 254.92 238.8 255.4Z" fill="black"/>
<path d="M182.64 255.96C181.44 256.36 181.28 257.8 182.32 257.8C182.72 257.8 183.2 257.24 183.52 256.6C183.76 255.96 183.84 255.4 183.76 255.48C183.68 255.48 183.12 255.72 182.64 255.96Z" fill="black"/>
<path d="M119.2 260.2C119.2 260.6 119.6 261 120 261C120.48 261 120.8 260.6 120.8 260.2C120.8 259.72 120.48 259.4 120 259.4C119.6 259.4 119.2 259.72 119.2 260.2Z" fill="black"/>
<path d="M203.68 261.24C203.92 262.04 204.4 262.44 204.64 262.2C204.88 261.96 204.64 261.32 204.08 260.76C203.28 260.04 203.2 260.12 203.68 261.24Z" fill="black"/>
<path d="M48.08 261.72C47.44 262.2 47.2 263 47.52 263.88C48 265.16 48.16 265.16 49.36 263.96C50.96 262.44 49.84 260.68 48.08 261.72Z" fill="black"/>
<path d="M257.6 261.8C257.6 262.2 258 262.6 258.48 262.6C258.88 262.6 259.04 262.2 258.8 261.8C258.56 261.32 258.16 261 257.92 261C257.76 261 257.6 261.32 257.6 261.8Z" fill="black"/>
<path d="M172.8 266.2C172.8 266.84 173.2 267.4 173.6 267.4C174.08 267.4 174.4 266.84 174.4 266.2C174.4 265.56 174.08 265 173.6 265C173.2 265 172.8 265.56 172.8 266.2Z" fill="black"/>
<path d="M255.68 270.44C255.44 270.92 255.6 271.56 256.08 271.8C257.28 272.6 258.08 271.56 257.04 270.52C256.48 269.96 256 269.96 255.68 270.44Z" fill="black"/>
<path d="M119.36 272.36C119.76 274.92 121.6 275.16 121.6 272.68C121.6 271.32 121.2 270.6 120.32 270.6C119.52 270.6 119.2 271.16 119.36 272.36Z" fill="black"/>
<path d="M225.6 271.4C225.6 271.8 226 272.2 226.4 272.2C226.88 272.2 227.2 271.8 227.2 271.4C227.2 270.92 226.88 270.6 226.4 270.6C226 270.6 225.6 270.92 225.6 271.4Z" fill="black"/>
<path d="M99.2 274.76C99.2 275.8 99.52 277.08 99.92 277.72C100.48 278.6 100.8 278.44 101.6 277.08C102.72 274.92 102.16 273 100.4 273C99.68 273 99.2 273.72 99.2 274.76Z" fill="black"/>
<path d="M195.2 273.72C195.2 274.12 195.6 274.76 196 275C196.48 275.24 196.8 275.16 196.8 274.68C196.8 274.28 196.48 273.64 196 273.4C195.6 273.16 195.2 273.24 195.2 273.72Z" fill="black"/>
<path d="M191.52 275.8C191.2 276.52 191.36 277.48 191.84 277.96C193.04 279.16 195.36 278.04 195.04 276.44C194.72 274.6 192.16 274.12 191.52 275.8Z" fill="black"/>
<path d="M81.3601 278.84C80.8001 280.36 82.0001 282.12 83.1201 281.48C84.4001 280.68 84.2401 277.8 82.8801 277.8C82.2401 277.8 81.6001 278.28 81.3601 278.84Z" fill="black"/>
<path d="M199.76 279.16C198.64 280.2 199.28 282.6 200.8 283.4C202.16 284.12 202.4 284.04 202.4 282.36C202.4 280.28 200.64 278.2 199.76 279.16Z" fill="black"/>
<path d="M126.48 282.28C126.48 283.16 126.72 283.4 126.96 282.76C127.2 282.2 127.12 281.48 126.88 281.24C126.64 280.92 126.4 281.4 126.48 282.28Z" fill="black"/>
<path d="M243.2 283.4C244.08 285.08 244.96 285.4 245.84 284.44C246.56 283.72 244.88 281.8 243.44 281.8C242.56 281.8 242.56 282.12 243.2 283.4Z" fill="black"/>
<path d="M333.92 283.8C333.28 285.48 335.04 287.4 337.28 287.4C340 287.4 340.56 285.8 338.4 284.04C336.24 282.28 334.48 282.2 333.92 283.8Z" fill="black"/>
<path d="M367.2 284.52C367.2 285.72 368.88 286.6 370.96 286.6C372.08 286.6 372.08 286.36 370.8 285C369.12 283.16 367.2 282.92 367.2 284.52Z" fill="black"/>
<path d="M293.6 287.4C293.6 287.8 294 288.2 294.4 288.2C294.88 288.2 295.2 287.8 295.2 287.4C295.2 286.92 294.88 286.6 294.4 286.6C294 286.6 293.6 286.92 293.6 287.4Z" fill="black"/>
<path d="M187.6 289C187.84 289.4 188.24 289.8 188.48 289.8C188.64 289.8 188.8 289.4 188.8 289C188.8 288.52 188.4 288.2 187.92 288.2C187.52 288.2 187.36 288.52 187.6 289Z" fill="black"/>
<path d="M98 289.8C97.76 290.2 97.92 290.6 98.32 290.6C98.8 290.6 99.2 290.2 99.2 289.8C99.2 289.32 99.04 289 98.88 289C98.64 289 98.24 289.32 98 289.8Z" fill="black"/>
<path d="M66.88 292.6C66.32 294.2 67.68 297 69.04 297C70.96 297 72.16 295.56 71.84 293.72C71.52 291.4 67.68 290.52 66.88 292.6Z" fill="black"/>
<path d="M188.48 292.12C187.92 292.92 190.24 295.08 190.88 294.36C191.6 293.72 190.64 291.4 189.68 291.4C189.28 291.4 188.72 291.72 188.48 292.12Z" fill="black"/>
<path d="M258.4 292.12C258.4 292.52 258.8 293.16 259.2 293.4C259.68 293.64 260 293.56 260 293.08C260 292.68 259.68 292.04 259.2 291.8C258.8 291.56 258.4 291.64 258.4 292.12Z" fill="black"/>
<path d="M109.6 292.92C109.6 293.4 110 293.96 110.4 294.2C110.88 294.44 111.2 294.12 111.2 293.48C111.2 292.76 110.88 292.2 110.4 292.2C110 292.2 109.6 292.52 109.6 292.92Z" fill="black"/>
<path d="M244.96 293.88C245.12 294.44 245.76 295.08 246.32 295.24C246.96 295.48 247.28 295.16 247.04 294.52C246.88 293.96 246.24 293.32 245.68 293.16C245.04 292.92 244.72 293.24 244.96 293.88Z" fill="black"/>
<path d="M160 294.6C160 295 160.4 295.4 160.8 295.4C161.28 295.4 161.6 295 161.6 294.6C161.6 294.12 161.28 293.8 160.8 293.8C160.4 293.8 160 294.12 160 294.6Z" fill="black"/>
<path d="M196.16 295.96C194.88 298.36 197.04 301.8 199.76 301.8C201.52 301.8 201.04 296.44 199.28 295.4C197.2 294.36 196.96 294.36 196.16 295.96Z" fill="black"/>
<path d="M238 297C238.24 297.4 238.64 297.8 238.88 297.8C239.04 297.8 239.2 297.4 239.2 297C239.2 296.52 238.8 296.2 238.32 296.2C237.92 296.2 237.76 296.52 238 297Z" fill="black"/>
<path d="M126.8 298.6C127.12 299.08 127.68 299.24 128.08 299C129.2 298.28 128.96 297.8 127.52 297.8C126.88 297.8 126.56 298.2 126.8 298.6Z" fill="black"/>
<path d="M76.8 304.36C76.8 305.4 77.2 306.76 77.6 307.4C78.32 308.44 78.48 308.44 79.2 307.4C80.56 305.24 80.16 302.6 78.4 302.6C77.28 302.6 76.8 303.16 76.8 304.36Z" fill="black"/>
<path d="M174.4 307.4C174.4 308.92 174.64 309.08 175.36 308.36C176.08 307.64 176.08 307.16 175.36 306.44C174.64 305.72 174.4 305.88 174.4 307.4Z" fill="black"/>
<path d="M137.2 308.2C136.96 308.6 137.12 309 137.52 309C138 309 138.4 308.6 138.4 308.2C138.4 307.72 138.24 307.4 138.08 307.4C137.84 307.4 137.44 307.72 137.2 308.2Z" fill="black"/>
<path d="M328.8 316.44C328.8 317.08 329.6 318.2 330.56 319.08C332.16 320.52 332.24 320.52 331.76 319.16C331.44 318.36 331.2 317.16 331.2 316.52C331.2 315.88 330.64 315.4 330 315.4C329.36 315.4 328.8 315.88 328.8 316.44Z" fill="black"/>
<path d="M220.96 318.68C221.04 319.64 221.6 320.6 222.16 320.76C222.72 321 222.88 320.52 222.64 319.4C222 317.08 220.64 316.44 220.96 318.68Z" fill="black"/>
<path d="M266.8 319.4C266.56 319.8 266.72 320.2 267.12 320.2C267.6 320.2 268 319.8 268 319.4C268 318.92 267.84 318.6 267.68 318.6C267.44 318.6 267.04 318.92 266.8 319.4Z" fill="black"/>
<path d="M154.4 325C154.4 325.4 154.8 325.8 155.2 325.8C155.68 325.8 156 325.4 156 325C156 324.52 155.68 324.2 155.2 324.2C154.8 324.2 154.4 324.52 154.4 325Z" fill="black"/>
<path d="M122.8 331.4C122.56 331.8 122.88 332.2 123.6 332.2C124.32 332.2 124.64 331.8 124.4 331.4C124.16 330.92 123.76 330.6 123.6 330.6C123.44 330.6 123.04 330.92 122.8 331.4Z" fill="black"/>
<path d="M49.6 332.28C49.6 332.68 50 332.84 50.4 332.6C50.88 332.36 51.2 331.96 51.2 331.72C51.2 331.56 50.88 331.4 50.4 331.4C50 331.4 49.6 331.8 49.6 332.28Z" fill="black"/>
<path d="M258.08 340.92C257.36 342.04 258.4 344.2 259.68 344.2C260.32 344.2 260.8 343.72 260.8 343.08C260.8 341.64 258.72 339.88 258.08 340.92Z" fill="black"/>
<path d="M41.6 345.96C41.68 348.44 41.68 348.52 42.8 347C44.16 345.32 44 344.04 42.56 343.56C41.92 343.4 41.6 344.2 41.6 345.96Z" fill="black"/>
<path d="M185.92 351.8C185.36 353.24 187.76 357.24 188.8 356.6C189.68 356.04 189.84 353.72 189.12 351.88C188.48 350.28 186.48 350.2 185.92 351.8Z" fill="black"/>
<path d="M176.32 354.92C175.6 356.68 176.24 358.76 177.76 359.72C179.92 361 181.36 359.24 180.32 356.44C179.44 353.96 177.04 353 176.32 354.92Z" fill="black"/>
<path d="M23.76 355.88C22.88 356.76 23.12 361 24 361C25.12 361 25.92 357 25.04 356.12C24.64 355.72 24.08 355.64 23.76 355.88Z" fill="black"/>
<path d="M287.2 359.24C287.2 360.04 288.88 361.8 289.68 361.8C290 361.8 290.08 361.08 289.84 360.2C289.44 358.68 287.2 357.88 287.2 359.24Z" fill="black"/>
<path d="M124.08 362.12C122.88 363.48 123.2 365.96 124.56 366.36C126.16 366.92 127.28 363.8 126.16 362.2C125.2 361 125.04 361 124.08 362.12Z" fill="black"/>
<path d="M182.88 369.72C182.56 370.28 182.48 370.92 182.72 371.16C183.44 371.88 184.24 370.84 183.84 369.72C183.52 368.84 183.36 368.84 182.88 369.72Z" fill="black"/>
</svg>
