<svg width="16" height="21" viewBox="0 0 16 21" fill="none" xmlns="http://www.w3.org/2000/svg">
<path d="M8.03903 0.976597C7.74606 1.19144 7.457 1.53128 7.32419 1.80863C7.207 2.05863 7.19919 2.1016 7.19919 2.50785C7.19919 2.93753 7.19919 2.94144 7.36325 3.26957C7.46481 3.4766 7.68747 3.80082 7.96481 4.14457C8.55856 4.88675 8.66794 5.14066 8.53122 5.46488C8.45309 5.65629 8.10544 5.94535 7.74997 6.11722C7.57419 6.19925 7.05856 6.40238 6.59763 6.56644C6.14059 6.7305 5.56247 6.94925 5.31638 7.05472C2.90622 8.08988 1.34763 9.96488 0.988251 12.2696C0.898407 12.8438 0.925751 13.9297 1.04294 14.4844C1.25778 15.4727 1.66794 16.3555 2.30075 17.1719C2.99997 18.0782 3.86325 18.7696 4.92575 19.2852C7.47263 20.5118 10.5547 20.1641 12.7265 18.4063C14.0273 17.3516 14.9375 15.8946 15.2656 14.3282C15.3515 13.9219 15.4218 12.7539 15.3593 12.7618C15.3398 12.7618 15.2226 12.8828 15.0976 13.0313C14.5234 13.7149 13.3437 14.4649 12.1484 14.9102C11.6367 15.1016 10.8125 15.3086 10.207 15.3985C9.57419 15.4922 8.457 15.4922 7.84372 15.3985C5.46872 15.0352 4.09372 14.0118 3.67575 12.3047C3.59372 11.9571 3.59372 11.2383 3.67966 10.8555C3.98825 9.44925 5.11716 8.1641 7.07809 6.9766C7.332 6.82425 7.54684 6.70707 7.55466 6.71488C7.58591 6.74613 7.23044 7.19144 6.7695 7.69925C6.21481 8.31644 6.0195 8.57816 5.81247 9.01175C5.59372 9.4766 5.49997 9.87113 5.49997 10.3555C5.49997 11.2227 5.82419 11.918 6.57028 12.6602C7.77731 13.8633 9.78903 14.5469 11.5742 14.3594C13.164 14.1953 14.0976 13.3946 14.0937 12.1914C14.0898 11.3828 13.7187 10.6641 13.0859 10.2422C12.6758 9.97269 12.2851 9.8516 11.8086 9.8555C11.2968 9.8555 11.0351 9.94925 10.7461 10.2383C10.4765 10.5118 10.3906 10.7774 10.4609 11.1289C10.5351 11.5078 10.7109 11.8086 11.1562 12.3164C11.289 12.4727 11.3867 12.6016 11.3672 12.6016C11.2656 12.6016 10.875 12.4571 10.6367 12.336C10.2695 12.1446 9.96091 11.8321 9.79294 11.4883C9.67575 11.2461 9.66013 11.1758 9.66013 10.9024C9.66013 10.6563 9.67966 10.5508 9.74997 10.4102C9.87497 10.1563 10.2343 9.81254 10.7617 9.43754C11.9492 8.6016 12.3242 8.27347 12.6484 7.79691C13.2812 6.86332 13.1992 5.79691 12.4179 4.81644C11.8633 4.12113 11.164 3.62113 9.73825 2.90238C8.76559 2.41019 8.37497 2.12503 8.21091 1.7891C8.11325 1.59769 8.11325 1.14847 8.207 0.968784C8.29294 0.812534 8.26169 0.812534 8.03903 0.976597Z" fill="white"/>
<path d="M5.00386 10.0117C4.94918 10.2461 4.93355 10.4649 4.93746 10.9609C4.94136 11.5274 4.95308 11.6524 5.04293 11.9883C5.41793 13.3945 6.44527 14.4336 7.86324 14.8477C8.28511 14.9688 9.04293 15.0391 9.42574 14.9961L9.69918 14.9649L9.17183 14.8555C8.50386 14.7188 7.82027 14.4883 7.37105 14.2578C6.23433 13.6719 5.46089 12.7305 5.14058 11.5547C5.04293 11.1875 4.99996 10.2617 5.06636 9.94532C5.13668 9.6172 5.08589 9.67188 5.00386 10.0117Z" fill="white"/>
</svg>
