<svg width="390" height="59" viewBox="0 0 390 59" fill="none" xmlns="http://www.w3.org/2000/svg">
<path d="M168.649 0.398117C168.353 0.710114 167.662 0.834915 167.168 0.64772C166.675 0.398117 165.984 0.710114 165.687 1.20932C165.391 1.77092 164.305 2.20772 163.318 2.20772C162.331 2.20772 161.047 2.64452 160.356 3.14372C158.974 4.20451 154.433 4.45412 154.433 3.45572C154.433 3.08131 151.965 2.83171 149.003 2.83171C146.041 2.83171 143.573 3.08131 143.573 3.39331C143.573 4.51651 139.624 4.51651 137.551 3.39331C134.885 1.89572 133.799 1.89572 132.911 3.26851C132.516 3.89252 131.825 4.39171 131.232 4.39171C130.739 4.39171 128.172 4.95332 125.605 5.57732C121.162 6.70052 120.669 6.70052 115.831 5.70212C111.685 4.82852 110.599 4.76611 109.908 5.45251C109.217 6.07652 108.822 6.07652 107.835 5.45251C107.242 5.07811 105.761 4.70372 104.577 4.70372C103.392 4.70372 102.01 4.39171 101.417 4.01732C100.628 3.51811 100.134 3.51811 99.7391 4.01732C99.3442 4.39171 97.271 4.70372 95.0003 4.70372C91.8411 4.70372 91.15 4.89091 91.6436 5.63971C91.9398 6.20131 91.5449 6.76291 90.6564 7.01251C88.8793 7.44931 75.8476 4.95332 74.9591 4.07971C73.8731 3.01892 70.0229 3.39331 68.7394 4.70372C67.2586 6.26372 63.6057 6.38852 63.6057 4.82852C63.6057 4.26692 62.0261 3.14372 60.1503 2.33252C58.2746 1.58371 56.695 1.20932 56.695 1.58371C56.695 2.39491 52.0549 2.39491 51.2651 1.58371C50.4753 0.772522 47.2174 1.83331 44.4531 3.89252C42.4786 5.32771 42.0837 5.32771 37.2461 4.70372C34.3831 4.32932 29.4469 4.14212 26.1889 4.26692C22.8323 4.45412 20.1667 4.32932 20.1667 4.01732C20.1667 3.14372 16.6126 3.33092 15.3292 4.32932C14.6381 4.82852 13.3547 5.14052 12.4662 5.01572C11.5776 4.89091 10.1955 4.76611 9.60314 4.76611C8.91207 4.70372 8.31972 4.26692 8.31972 3.70532C8.31972 2.83171 7.62864 2.70691 4.37072 3.01892C2.19877 3.20612 0.421715 3.08131 0.421715 2.76932C0.421715 2.39491 -0.466805 2.45732 -1.6515 2.83171C-2.73748 3.26851 -4.71198 3.39331 -5.99541 3.20612C-7.67374 2.95651 -8.7597 3.20612 -9.74696 4.14212C-10.7342 4.95332 -11.4253 5.20291 -11.9189 4.76611C-12.2151 4.39171 -13.0049 4.20451 -13.4985 4.45412C-13.9921 4.64131 -15.0781 4.45412 -15.8679 4.07971C-17.645 3.14372 -23.2723 5.14052 -27.4187 8.01091C-29.3932 9.44612 -30.3805 9.75812 -31.3677 9.25891C-33.0461 8.38531 -40.3517 8.63492 -40.8453 9.57092C-41.0428 10.0077 -41.6351 10.3197 -42.2275 10.3197C-43.5109 10.3197 -45.3867 11.6301 -46.2752 13.0029C-46.6701 13.6269 -47.3612 13.9389 -47.9535 13.7517C-48.4472 13.5645 -50.0268 14.0637 -51.3102 14.9373C-52.5936 15.8109 -53.9758 16.5597 -54.4694 16.5597C-54.963 16.5597 -55.9503 17.4957 -56.7401 18.5565C-57.5299 19.6797 -58.6158 20.8029 -59.2082 21.0525C-59.8005 21.3021 -59.7018 21.8013 -58.912 22.4253C-57.5299 23.4861 -58.1222 23.7357 -61.9725 23.4861C-62.9597 23.4237 -63.7495 23.6733 -63.7495 23.9853C-63.7495 24.3597 -64.3419 24.6717 -65.1317 24.6717C-65.9215 24.6717 -66.81 25.1709 -67.1062 25.7325C-67.6985 26.6685 -66.7113 27.4173 -64.2432 27.9789C-62.861 28.2909 -63.1572 32.9709 -64.5393 33.2829C-65.4279 33.4701 -65.5266 33.7821 -64.8355 34.2189C-62.4661 36.0909 -64.3419 40.2717 -67.5998 40.2717C-68.6858 40.2717 -68.6858 40.4589 -67.5998 41.2701C-65.6253 42.7677 -65.9215 45.3261 -68.3896 47.5725C-71.1539 50.0061 -71.2526 50.8797 -68.7845 50.8797C-67.5011 50.8797 -66.7113 51.4413 -66.2177 52.6893C-65.8228 53.9373 -64.9342 54.6237 -63.4534 54.7485C-61.6763 54.8733 -61.2814 55.3725 -61.1827 57.1197C-61.1827 58.3053 -60.8865 60.1149 -60.4916 61.0509C-59.4056 63.5469 -60.5903 67.1037 -62.3674 66.6669C-63.8483 66.2925 -63.947 66.6669 -63.947 73.2189C-63.947 75.3405 -64.3419 77.2749 -64.8355 77.4621C-65.2304 77.5869 -65.4279 79.6461 -65.1317 81.9549C-64.4406 86.5725 -64.4406 91.0653 -64.9342 96.6189C-65.1317 98.6157 -64.9342 100.425 -64.5393 100.55C-62.9597 101.174 -60.6891 105.105 -60.4916 107.726C-60.2942 109.224 -59.7018 111.033 -59.1095 111.657C-57.9248 113.03 -58.5171 114.653 -61.775 119.208C-63.7495 121.953 -64.6381 125.573 -63.6508 127.32C-63.1572 128.381 -64.8355 132.249 -66.4151 133.31C-67.2049 133.934 -68.0934 135.931 -68.3896 137.865C-68.8832 140.985 -68.7845 141.36 -67.1062 141.36C-64.6381 141.36 -62.0712 143.793 -63.8483 144.48C-64.7368 144.854 -64.6381 145.541 -63.3546 147.6C-62.0712 149.659 -61.9725 150.408 -62.861 151.094C-63.5521 151.593 -63.7495 152.155 -63.4534 152.405C-63.0585 152.592 -63.3546 153.341 -63.8483 154.027C-64.6381 154.901 -64.6381 155.4 -63.7495 155.712C-61.9725 156.398 -63.3546 159.518 -65.2304 159.081C-66.4151 158.769 -66.6126 159.206 -66.1189 161.577C-65.6253 163.512 -65.8228 164.448 -66.6126 164.448C-67.2049 164.448 -67.6985 164.76 -67.6985 165.072C-67.6985 165.446 -69.2781 166.632 -71.1539 167.755C-74.2144 169.502 -74.6093 170.126 -74.6093 172.747C-74.6093 174.369 -75.3004 176.366 -76.0902 177.177C-77.571 178.613 -77.1761 180.672 -75.3991 180.672C-74.9055 180.672 -74.8067 180.921 -75.1029 181.296C-75.3991 181.608 -74.8067 181.92 -73.8195 181.92C-71.4501 181.92 -70.0679 183.792 -71.845 184.541C-72.8322 184.915 -72.7335 185.04 -71.6475 185.04C-70.759 185.04 -68.982 185.851 -67.6985 186.912C-66.3164 187.91 -64.6381 188.721 -64.0457 188.784C-62.7623 188.784 -62.2687 189.782 -61.2814 194.4C-60.5903 197.769 -59.2082 199.454 -58.0235 198.331C-57.2337 197.52 -50.8166 197.707 -45.6829 198.705C-43.9058 199.017 -40.7466 199.267 -38.5747 199.142C-34.9218 199.08 -26.0366 200.765 -23.7659 202.013C-23.1736 202.325 -22.7787 202.886 -22.7787 203.323C-22.7787 204.259 -15.3743 204.446 -15.2756 203.51C-15.1768 203.136 -15.1768 202.325 -15.2756 201.763C-15.5717 200.453 -12.61 200.265 -11.8202 201.513C-11.4253 202.2 -10.6355 202.2 -7.27883 201.451C-5.00816 200.952 -2.14513 200.702 -0.86171 200.952C0.421715 201.139 1.40897 201.014 1.40897 200.702C1.40897 199.517 4.272 200.765 4.56817 202.013C4.76562 202.761 5.75287 203.635 6.83884 204.009C7.92482 204.384 9.10952 204.945 9.40569 205.257C9.80059 205.569 10.8866 205.632 11.8738 205.382C12.8611 205.133 13.947 205.32 14.4407 205.757C15.033 206.381 15.7241 206.193 17.1062 205.07C18.3897 203.947 19.4756 203.697 21.154 203.947C22.6348 204.197 23.8195 204.009 24.5106 203.385C25.4979 202.637 26.0902 202.637 29.3482 203.697C33.001 204.883 33.1984 204.883 34.9755 203.76C36.95 202.512 41.8862 202.761 41.8862 204.134C41.8862 204.633 42.8735 205.008 44.3544 205.008C45.934 205.008 46.8225 205.382 46.8225 205.944C46.8225 207.192 48.0072 207.129 52.746 205.569C55.9052 204.509 57.2873 204.384 58.9657 204.883C60.1503 205.195 62.1248 205.507 63.3096 205.507C65.0866 205.569 65.4815 205.133 65.7777 203.261L66.0739 200.952L69.628 203.385C73.0833 205.694 73.3795 205.757 75.4527 204.821C76.6374 204.321 78.1183 203.947 78.8094 204.072C83.7456 205.008 85.1278 204.945 85.6214 203.76C86.115 202.449 88.287 202.013 88.287 203.198C88.287 203.697 88.6819 203.697 89.7679 203.136C90.8538 202.574 91.7424 202.699 94.3092 203.822C96.7773 204.945 97.7646 205.07 99.2455 204.509C100.233 204.134 101.22 204.009 101.516 204.321C101.812 204.571 103.491 204.883 105.268 204.945C114.449 205.382 114.449 205.382 114.745 203.885C114.943 203.136 115.634 202.512 116.424 202.512C117.115 202.512 117.904 202.2 118.102 201.763C118.596 200.827 127.777 202.325 127.777 203.385C127.777 204.509 131.726 205.819 133.108 205.07C134.885 204.134 142.586 203.136 142.586 203.885C142.586 204.259 143.376 204.321 144.363 204.072C146.535 203.51 149.299 203.136 152.754 202.761C154.531 202.637 155.42 202.824 155.42 203.448C155.42 203.885 156.309 204.509 157.394 204.696C158.48 204.883 159.369 205.382 159.369 205.757C159.369 206.131 160.257 206.256 161.343 206.069C162.824 205.819 163.713 206.256 164.898 207.878C166.576 210.062 168.057 210.499 169.933 209.313C170.426 209.001 173.487 208.627 176.547 208.565C182.174 208.44 182.174 208.44 181.78 206.693C181.286 204.571 182.767 203.885 184.445 205.382C186.815 207.441 206.856 205.445 208.534 202.949C209.225 202.075 211.002 202.512 213.372 204.134C215.149 205.382 216.037 205.632 216.926 205.07C218.209 204.259 221.566 204.134 221.566 204.883C221.566 205.569 230.056 206.817 231.241 206.318C231.734 206.131 232.327 205.382 232.524 204.696C233.018 203.136 236.967 202.949 236.572 204.509C236.473 205.07 237.164 205.694 238.349 205.944C239.435 206.131 240.323 206.63 240.323 206.942C240.323 207.878 243.878 207.566 245.26 206.568C247.037 205.195 248.715 205.382 253.355 207.504C255.626 208.565 257.995 209.313 258.686 209.126C259.377 208.939 260.661 209.376 261.648 210.062C263.721 211.56 264.906 211.56 266.584 210.125C267.67 209.251 268.164 209.189 269.645 209.875C270.632 210.312 272.607 210.936 273.989 211.31C275.47 211.685 276.852 212.433 277.148 213.057C277.839 214.742 283.762 215.179 285.737 213.744C286.527 213.182 288.008 212.496 288.896 212.309C289.883 212.059 290.377 211.56 290.081 210.998C288.797 208.877 298.769 207.941 306.173 209.438C307.95 209.813 309.925 209.875 310.616 209.625C312.985 208.689 315.749 208.939 318.217 210.437C321.278 212.184 322.265 212.246 322.956 210.624C323.549 209.251 323.746 209.251 326.708 209.937C327.794 210.249 329.472 210.187 330.558 209.875C331.94 209.376 333.026 209.563 335.198 210.561C336.679 211.31 338.456 211.872 338.95 211.872C340.924 211.872 344.972 213.369 344.972 214.056C344.972 214.555 345.959 214.68 347.44 214.493C348.921 214.368 349.908 214.493 349.908 214.929C349.908 215.304 350.994 215.616 352.376 215.616C353.759 215.616 354.844 215.304 354.844 214.929C354.844 214.493 355.832 214.368 357.411 214.617C359.583 214.992 359.879 214.867 359.386 213.993C358.892 213.182 359.287 213.057 361.459 213.307C364.618 213.681 373.602 211.997 373.602 210.998C373.602 209.937 378.144 206.88 379.624 206.88C380.612 206.88 381.599 205.445 382.487 202.637C383.87 198.768 384.166 198.456 386.733 198.269C388.214 198.144 389.201 197.832 388.905 197.52C388.608 197.208 389.398 196.459 390.78 195.835C392.064 195.211 393.347 194.025 393.742 193.277C394.433 192.029 394.828 191.841 396.803 191.904C398.086 191.966 400.554 189.845 400.653 188.597C400.752 187.723 401.344 187.224 402.529 187.286C403.417 187.349 404.207 187.224 404.207 186.974C404.207 186.787 404.602 184.977 405.194 182.981C406.083 179.549 405.984 179.237 403.318 176.928C401.443 175.243 400.357 173.371 399.863 170.875C399.468 168.941 398.481 166.819 397.592 166.195C395.322 164.635 395.223 158.957 397.494 157.958C398.876 157.334 399.073 156.149 398.777 149.909C398.481 144.542 398.777 142.421 399.666 141.797C400.455 141.36 400.752 140.174 400.455 138.989C400.258 137.741 400.455 136.992 401.147 136.992C402.529 136.992 402.529 134.683 401.147 134.184C400.554 133.934 400.357 132.561 400.653 130.939C401.048 128.131 399.863 126.384 397.395 126.384C395.914 126.384 396.013 124.2 397.592 123.389C398.185 123.077 399.863 122.64 401.245 122.515C402.924 122.39 403.713 121.953 403.713 121.017C403.713 120.331 404.503 119.27 405.49 118.584C406.675 117.835 406.971 117.273 406.28 116.837C405.589 116.4 405.688 115.589 406.478 114.278C408.057 111.782 407.564 109.661 405.096 108.725C402.924 107.851 402.627 107.04 404.602 107.04C405.984 107.04 405.984 106.853 404.602 100.051C404.108 97.6173 404.306 96.8685 406.083 95.4333C407.267 94.4349 407.86 93.4989 407.366 93.0621C406.083 92.0013 406.083 89.4429 407.366 88.5069C407.959 88.0077 408.156 87.5085 407.86 87.2589C407.465 87.0717 407.662 86.3853 408.156 85.8237C408.847 85.0125 408.748 84.5757 407.761 84.3885C405.589 83.8269 405.194 80.8941 407.169 80.2077C409.538 79.3965 412.006 72.5325 410.13 71.7837C409.538 71.5965 409.143 70.7229 409.143 69.8493C409.143 68.9133 408.551 68.3517 407.662 68.3517C406.873 68.3517 406.181 67.9773 406.181 67.4781C406.181 66.9789 404.898 66.4173 403.22 66.1677C401.147 65.8557 400.258 65.3565 400.258 64.5453C400.258 63.8589 400.653 63.4845 401.245 63.6717C401.739 63.8589 402.43 63.2973 402.825 62.3613C403.22 61.3629 403.022 60.5517 402.331 60.3021C401.443 59.9277 401.541 59.3661 402.726 57.9933C403.516 56.9949 404.207 55.4973 404.207 54.6237C404.207 53.7501 404.898 52.5645 405.589 51.9405C406.576 51.1293 406.873 49.4445 406.576 45.8253C406.379 43.0797 406.576 40.8957 407.07 40.8957C407.564 40.8957 407.761 39.7725 407.465 38.3997C407.07 36.4653 407.267 35.8413 408.551 35.5293C409.341 35.3421 411.019 33.9693 412.204 32.4717C413.981 30.2877 414.079 29.6013 413.092 28.4157C412.105 27.2301 412.204 26.9181 413.981 26.1069C416.35 25.0461 416.745 22.9245 414.573 22.4253C413.388 22.1133 413.191 21.4893 413.685 19.9293C414.079 18.5565 413.882 17.8077 413.191 17.8077C412.599 17.8077 411.216 17.2461 410.13 16.5597C408.255 15.3741 407.959 15.3741 405.885 16.2477C404.701 16.7469 403.417 17.1837 403.022 17.1837C401.541 17.1837 402.232 15.5613 404.207 14.5005C408.156 12.3789 405.589 7.26212 401.048 8.13571C400.061 8.38531 398.481 8.19812 397.691 7.76132C396.901 7.38692 394.729 6.95012 392.755 6.82532C389.102 6.63812 383.968 3.95491 383.968 2.27011C383.968 1.70851 382.29 1.33412 378.835 1.14691C374.195 0.897308 373.602 1.02211 373.602 2.14531C373.602 3.76772 368.666 4.51651 365.507 3.26851C364.026 2.70691 360.965 2.39491 356.819 2.51971C353.265 2.58212 349.711 2.39491 348.822 2.14531C347.934 1.83331 345.071 1.45891 342.405 1.20932C339.74 1.02211 337.173 0.710114 336.679 0.522919C336.284 0.335709 335.494 0.522919 335.099 0.959717C334.705 1.39651 333.322 1.83331 332.039 1.95811C326.708 2.45732 323.746 3.08131 323.055 3.70532C322.463 4.20451 322.265 4.20451 322.265 3.70532C322.265 2.51971 318.415 2.20772 317.428 3.26851C316.737 4.07971 316.342 4.07971 313.577 3.20612C311.504 2.51971 310.32 2.39491 309.826 2.89412C309.53 3.26851 307.851 3.45572 306.272 3.33092C304.692 3.14372 303.211 3.20612 303.014 3.45572C302.718 3.70532 300.644 3.64291 298.374 3.33092C290.969 2.33252 282.775 2.08292 282.775 2.83171C282.775 3.33092 281.689 3.39331 279.715 3.14372C277.444 2.83171 276.358 2.95651 275.47 3.76772C274.482 4.64131 273.791 4.70372 272.212 4.20451C271.126 3.83011 269.941 3.64291 269.645 3.89252C269.25 4.07971 268.361 3.89252 267.572 3.51811C266.782 3.08131 265.696 2.89412 265.202 3.08131C264.61 3.26851 263.721 3.01892 263.03 2.51971C261.648 1.45891 259.081 1.27171 259.081 2.20772C259.081 3.08131 255.428 2.95651 254.836 2.02052C254.441 1.52132 253.355 1.95811 251.479 3.26851C248.32 5.39012 243.483 6.13892 241.113 4.82852C240.225 4.39171 238.843 4.26692 237.954 4.45412C236.967 4.70372 235.486 4.39171 234.301 3.70532C232.228 2.51971 227.489 1.77092 227.489 2.70691C227.489 2.95651 225.91 3.58052 224.034 4.01732C220.875 4.70372 220.381 4.64131 217.913 3.20612C215.05 1.52132 213.668 1.20932 213.668 2.20772C213.668 2.51971 213.075 2.83171 212.384 2.83171C211.693 2.83171 209.62 3.33092 207.744 4.01732C205.572 4.70372 203.005 5.07811 200.833 4.89091C195.502 4.51651 188.986 3.33092 188.986 2.83171C188.986 2.14531 185.037 2.83171 182.569 3.89252C179.706 5.14052 178.225 4.89091 178.423 3.20612C178.522 2.33252 178.225 1.64612 177.732 1.64612C177.238 1.70851 176.547 1.33412 176.152 0.959717C175.264 0.0237122 169.439 -0.350677 168.649 0.398117Z" fill="black"/>
</svg>
