<svg width="214" height="215" viewBox="0 0 214 215" fill="none" xmlns="http://www.w3.org/2000/svg">
<path d="M94.8041 0.515889C93.9441 1.20389 94.2451 4.04189 95.148 3.69789C95.449 3.56889 96.395 3.35389 97.212 3.18189C99.19 2.83789 99.405 2.40789 98.459 1.07489C97.599 -0.0861101 95.922 -0.34411 94.8041 0.515889Z" fill="black"/>
<path d="M117.981 2.53705C117.293 2.96704 115.96 3.48305 114.971 3.65504C113.509 3.91304 113.337 3.99905 114.025 4.30005C114.842 4.60104 114.799 4.64404 113.81 4.85905C113.208 4.98805 111.703 5.24605 110.413 5.37505C108.306 5.63304 108.005 5.54704 107.188 4.55804C106.672 3.99905 105.597 3.39705 104.78 3.22505C103.533 2.96704 103.361 3.01004 103.834 3.48305C105.339 5.07405 103.275 5.80505 101.34 4.30005C100.308 3.52605 100.265 3.52605 99.4051 4.30005C98.7171 4.90205 97.3411 5.20305 92.8691 5.54704C89.7731 5.84805 86.2901 6.32104 85.1291 6.66505C82.2911 7.52504 82.2481 7.43904 84.9141 6.23505C86.2471 5.63304 87.1501 4.94505 87.1501 4.51505C87.1501 3.78404 86.8491 3.65504 84.4841 3.22505C82.9791 3.01004 82.8501 3.05305 82.8501 4.04205C82.8501 4.77304 82.3771 5.41805 81.4741 6.06305C80.7001 6.57904 79.9691 7.09505 79.8831 7.18105C79.7971 7.22404 79.9691 8.08405 80.2701 9.07304C80.7861 10.621 81.0011 10.793 82.0331 10.664C82.7211 10.535 83.1081 10.664 82.9791 10.879C82.5061 11.696 79.7971 12.47 77.6041 12.47C75.3681 12.427 75.3251 12.427 76.6151 11.868L77.9051 11.3091L76.3141 10.535C74.9811 9.89005 74.5081 9.84705 73.5621 10.2771C72.2291 10.879 71.7561 10.621 72.5301 9.67505C72.8311 9.28804 73.0031 8.94405 72.9171 8.85805C72.7021 8.68605 61.8661 11.825 56.6201 13.545C51.5891 15.179 45.2681 18.4901 42.5161 20.898C40.2371 22.876 40.1081 23.435 41.7851 23.736C42.2581 23.822 42.6451 24.08 42.6451 24.295C42.6881 24.553 42.8601 25.198 43.0321 25.757L43.3761 26.789L43.9351 25.456C44.6231 23.865 45.8271 23.048 49.0951 21.887C51.7611 20.941 52.4061 21.07 51.3311 22.231C50.5571 23.134 49.1381 26.6171 48.6651 28.81L48.3641 30.315L49.6541 28.595C50.3421 27.649 52.1051 25.757 53.5671 24.424C55.7601 22.36 56.1901 21.715 56.2331 20.425C56.2761 19.608 56.3191 18.662 56.3621 18.361C56.4481 17.114 59.4151 16.297 60.4041 17.286C60.7911 17.673 60.4471 18.275 58.9851 19.823C57.9101 20.984 57.0501 22.231 57.0501 22.618C57.0501 23.134 57.5661 22.79 58.7701 21.5C60.1891 19.952 60.6191 19.737 61.6081 19.952C62.8981 20.2961 64.3601 19.4361 63.4141 18.877C63.1131 18.705 62.9841 18.4471 63.0701 18.361C64.0161 17.6301 69.9071 14.19 70.2941 14.19C71.0251 14.19 71.3691 15.996 70.8531 17.243C70.6381 17.888 69.6921 18.748 68.7891 19.221C67.8861 19.694 65.6501 20.855 63.8011 21.844C61.1781 23.263 60.0171 23.65 58.3401 23.65C56.5341 23.65 56.1901 23.779 56.1901 24.467C56.1901 24.897 56.4911 25.499 56.8351 25.8C57.1791 26.101 57.4801 26.574 57.4801 26.918C57.4801 27.778 55.2871 29.154 52.9221 29.713C51.7611 30.014 49.3101 30.96 47.5041 31.906C45.1391 33.067 44.1501 33.368 44.1501 32.938C44.1501 32.637 44.6231 31.046 45.2681 29.455C45.8701 27.821 46.3001 26.015 46.2141 25.413C45.9991 23.607 44.8811 24.08 44.1501 26.316C43.6341 27.993 43.3761 28.294 42.6451 28.122C42.1721 27.993 41.0541 28.208 40.1511 28.595C39.2911 28.939 38.5601 29.111 38.5601 28.939C38.5601 28.767 39.2911 27.864 40.1511 26.918L41.7851 25.241L39.2051 27.047C37.7861 28.079 34.9051 30.057 32.7551 31.519C29.0141 34.056 23.9401 38.657 23.9401 39.431C23.9401 39.646 24.4991 39.775 25.2301 39.646C27.1221 39.388 26.9071 40.291 24.1551 43.645C22.8651 45.193 21.7901 46.612 21.7901 46.698C21.7901 47.085 22.2631 46.827 23.6821 45.58C24.5421 44.806 25.2731 44.462 25.4451 44.677C25.5741 44.935 23.4241 47.386 20.6721 50.095C15.7271 55.04 15.6841 55.126 15.9851 56.674C16.3291 58.48 17.0601 59.555 17.0601 58.222C17.0601 55.728 18.9521 51.6 20.1131 51.6C20.7581 51.6 20.5431 52.976 18.9521 59.168C18.0921 62.479 17.2751 66.693 17.1031 68.585L16.8451 72.025L15.2541 69.445C14.3511 68.026 13.6201 67.166 13.6201 67.553C13.6201 67.94 12.5451 69.574 11.2551 71.165C9.96509 72.713 8.89009 74.089 8.89009 74.175C8.89009 74.218 8.58909 74.992 8.24509 75.852C7.90109 76.712 7.68609 77.4 7.77209 77.4C7.85809 77.4 8.58909 76.411 9.36309 75.164L10.7821 72.971L11.3411 74.218C12.1151 76.024 12.0291 77.486 10.8251 83.85C9.75009 89.655 9.53509 93.267 10.1801 94.815C10.5241 95.589 10.5671 95.589 10.5671 94.557C10.6101 93.181 11.5991 91.805 12.2441 92.192C12.8891 92.579 12.8891 95.202 12.2871 97.997C11.6421 101.05 10.8681 101.394 11.1261 98.47L11.3411 96.234L9.92209 96.449C8.20209 96.75 8.20209 96.707 7.77209 90.945C7.64309 88.58 7.34209 86.215 7.12709 85.656C6.56809 84.194 5.53609 84.495 5.19209 86.215C4.80509 88.408 5.27809 91.117 7.17009 96.965C9.01909 102.727 9.62109 105.35 9.01909 105.35C8.80409 105.35 8.03009 104.533 7.25609 103.544C5.79409 101.652 5.57909 101.781 6.35309 103.974C6.61109 104.705 7.04109 105.264 7.29909 105.221C7.64309 105.178 7.81509 106.253 7.81509 108.919C7.81509 110.983 7.72909 112.66 7.60009 112.66C7.47109 112.66 6.74009 112.273 6.00909 111.8L4.59009 110.94L4.63309 112.144C4.67609 114.552 5.23509 117.175 5.66509 117.046C6.18109 116.874 8.50309 125.947 9.83609 133.386C10.3951 136.353 10.9541 138.632 11.0831 138.374C11.4271 137.815 12.5451 139.836 12.9751 141.857C13.4911 144.179 14.0071 142.545 13.7921 139.32L13.6201 136.525L14.2651 138.89C14.6521 140.18 15.1251 143.319 15.3401 145.856C15.5551 148.436 15.9851 151.403 16.2431 152.521L16.7591 154.499L17.5331 153.553L18.3071 152.607L18.9091 154.069C20.2421 157.251 20.2851 157.509 19.1241 157.294L18.0491 157.079L19.0381 158.584C19.5971 159.401 20.0701 160.519 20.0701 161.035C20.0701 161.895 21.6611 163.83 22.3491 163.83C22.5211 163.83 22.5641 163.314 22.3921 162.669C22.2631 161.981 23.0371 163.056 24.1121 164.991C25.1871 166.969 26.0901 168.99 26.0901 169.549C26.0901 171.57 27.9821 174.322 31.2501 176.945C33.0131 178.407 34.6901 179.998 34.9481 180.514C35.4211 181.46 41.6131 187.351 46.0421 191.006C49.2671 193.715 55.0721 197.585 59.3291 199.95C61.3071 201.025 62.5111 201.928 62.2101 202.1C61.7371 202.401 74.5941 209.754 79.1091 211.732C84.0111 213.882 88.3111 215 91.7081 215C93.4281 215 94.8901 214.871 94.8901 214.742C94.8901 214.613 94.6751 214.14 94.4601 213.667C94.1591 213.108 94.1591 212.85 94.4601 212.85C94.6751 212.85 94.8901 212.506 94.8901 212.076C94.8901 211.388 95.5781 211.345 103.576 211.345C112.95 211.345 117.895 210.743 125.936 208.765C128.344 208.163 130.365 207.69 130.408 207.69C130.494 207.69 130.58 208.593 130.58 209.754C130.58 212.248 131.483 213.71 133.031 213.71H134.149L132.945 212.592C131.956 211.689 131.784 211.259 131.999 209.969C132.3 208.249 133.246 207.045 134.966 206.142C136.084 205.54 136.17 205.583 136.17 206.357C136.17 208.034 137.417 208.12 143.738 207.002C147.006 206.443 150.231 205.841 150.919 205.712C151.951 205.454 152.08 205.54 152.08 206.572C152.08 207.862 152.166 207.905 154.918 207.045C156.079 206.701 157.068 206.4 157.154 206.4C157.197 206.4 157.24 207.088 157.24 207.905C157.24 208.851 156.982 209.539 156.509 209.797C156.079 210.055 155.907 210.27 156.079 210.27C156.681 210.27 159.046 208.464 158.788 208.249C158.659 208.12 158.96 207.432 159.433 206.787L160.293 205.54H158.401C157.326 205.54 155.907 205.411 155.176 205.282C154.015 205.067 153.886 204.895 154.23 204.207C154.488 203.777 154.66 202.788 154.66 202.014V200.552L157.928 200.853L161.196 201.197L162.486 199.735C163.174 198.918 165.238 197.456 167.044 196.424C168.85 195.435 171.043 193.93 171.817 193.113C172.634 192.253 173.15 191.866 172.935 192.21C172.72 192.597 172.935 192.554 173.494 192.038C174.569 191.135 174.827 190.49 173.795 191.35C173.322 191.737 173.15 191.737 173.15 191.393C173.15 191.135 173.451 190.791 173.795 190.662C174.139 190.49 174.44 190.06 174.44 189.63C174.44 189.243 174.999 188.125 175.73 187.136L176.977 185.373L174.698 186.19C172.677 186.878 167.345 187.91 165.797 187.91C165.496 187.91 165.883 187.222 166.7 186.405C167.818 185.244 168.291 185.029 168.893 185.373C169.538 185.717 169.925 185.459 171.043 183.954C171.774 182.922 172.763 181.331 173.236 180.385C174.139 178.622 178.353 172.731 179.557 171.57C179.944 171.183 181.492 169.377 183.04 167.485C184.588 165.593 187.168 162.497 188.802 160.605C192.629 156.133 197.445 148.823 200.24 143.276C202.003 139.707 202.605 138.847 203.25 139.019C203.938 139.191 204.024 138.847 204.196 136.267C204.282 134.676 204.497 133.214 204.626 133.085C204.798 132.913 205.357 133.085 205.916 133.472C207.851 134.848 208.109 134.461 207.765 130.806C207.335 126.162 207.378 123.195 207.937 122.249C208.195 121.819 208.41 121.69 208.41 121.991C208.41 122.636 210.001 123.539 210.56 123.195C210.818 123.023 210.517 122.034 209.915 120.787C209.012 119.067 208.926 118.68 209.485 118.68C209.872 118.68 210.517 117.863 210.99 116.788C211.42 115.756 211.979 114.853 212.237 114.767C212.495 114.638 212.194 112.66 211.42 109.263C209.872 102.899 209.829 102.082 211.033 101.781C211.85 101.566 211.893 101.652 211.635 103.071C211.463 104.146 211.549 104.705 211.936 104.963C213.742 106.124 214.043 104.662 212.71 100.792C212.194 99.416 211.807 97.352 211.807 96.277C211.764 94.385 211.721 94.299 210.689 94.514L209.571 94.729L209.7 88.967C209.915 80.195 209.915 80.152 208.453 79.292C207.378 78.69 206.948 77.787 205.658 73.702C203.766 67.854 200.627 60.759 197.918 56.201C196.843 54.352 195.94 52.546 195.94 52.245C195.94 51.944 195.123 50.74 194.091 49.622C193.102 48.461 191.124 46.053 189.705 44.29C186.222 39.904 179.729 33.497 175.257 30.014C171.903 27.391 163.432 21.758 162.271 21.371C162.013 21.285 162.486 20.382 163.432 19.221C165.238 17.028 165.324 15.7381 163.776 14.706C162.787 14.0611 162.787 14.0611 163.303 15.179C163.733 16.125 163.69 16.512 163.088 17.372C162.056 18.963 160.809 19.479 158.831 19.178C157.842 19.006 156.853 18.705 156.595 18.5331C156.38 18.318 155.434 17.931 154.531 17.6301C153.026 17.157 152.94 17.071 153.542 16.383C153.929 15.953 154.23 15.394 154.23 15.136C154.23 14.104 151.521 11.653 147.694 9.11604C143.351 6.27805 142.061 6.06305 140.556 7.95505L139.782 8.90105L137.718 6.49304C135.654 4.12805 135.568 4.08505 133.203 4.04205C131.87 4.04205 129.548 3.61205 128 3.13905C126.452 2.66605 123.872 2.15005 122.195 1.97804C119.701 1.80605 118.97 1.89204 117.981 2.53705ZM120.131 2.40805C120.002 2.53705 119.615 2.58005 119.314 2.45105C118.97 2.32205 119.099 2.19305 119.572 2.19305C120.045 2.15005 120.303 2.27905 120.131 2.40805ZM150.704 15.394C151.306 16.297 151.306 16.34 149.973 15.8671C148.64 15.394 148.382 15.05 148.941 14.448C149.371 14.0181 150.016 14.362 150.704 15.394ZM35.8941 31.906C35.5501 32.465 34.4321 34.357 33.4001 36.12C32.3681 37.883 31.4651 39.388 31.4221 39.474C31.3791 39.56 30.8631 39.388 30.3471 39.087L29.3581 38.571L30.5191 37.668C31.1641 37.152 31.6801 36.55 31.6801 36.335C31.6801 35.862 35.8941 30.96 36.2811 30.96C36.4101 30.96 36.2381 31.39 35.8941 31.906ZM29.1001 57.061C28.6271 57.792 28.6271 57.792 28.8421 57.061C28.9711 56.631 29.1001 56.029 29.1431 55.771C29.1431 55.384 29.2291 55.384 29.3581 55.771C29.4871 56.072 29.3581 56.631 29.1001 57.061ZM34.6901 59.727C34.6901 59.942 34.3891 60.329 34.0451 60.63C33.5291 61.06 33.4001 61.06 33.4001 60.544C33.4001 60.2 33.5291 59.77 33.7011 59.641C34.0881 59.211 34.6901 59.254 34.6901 59.727ZM29.5301 60.802C29.5301 60.888 29.6591 61.275 29.7881 61.619C29.9171 62.006 29.3581 62.737 28.3261 63.554L26.6921 64.887L27.3371 62.737C27.8101 61.232 28.1971 60.63 28.7561 60.63C29.1861 60.63 29.5301 60.716 29.5301 60.802ZM31.5511 62.608C31.2931 63.511 29.6591 66.349 27.9391 68.886C26.2191 71.466 23.9831 75.121 22.9941 77.056L21.1451 80.625L21.0161 74.519C20.9301 68.757 20.9731 68.327 21.8761 67.295C22.3921 66.693 23.0371 66.22 23.3811 66.22C23.6821 66.22 24.2411 65.747 24.6281 65.145C25.4021 63.941 26.0901 64.07 26.0901 65.403C26.0901 67.338 29.4011 65.102 30.9061 62.221C31.9381 60.157 32.2391 60.329 31.5511 62.608ZM209.27 84.452C209.27 86.344 208.539 85.269 208.238 82.99C207.98 81.141 207.98 81.098 208.582 82.13C208.969 82.732 209.227 83.764 209.27 84.452ZM18.6081 83.807C18.9521 83.506 19.3391 83.42 19.5111 83.549C19.9411 83.979 17.8771 88.58 17.2321 88.58C16.0281 88.58 15.0821 84.968 15.8131 83.076L16.2431 81.915L17.1461 83.119C17.8341 84.065 18.1351 84.194 18.6081 83.807ZM143.91 203.175C143.91 203.605 143.48 203.82 142.534 203.82L141.115 203.777L142.19 203.175C143.566 202.401 143.91 202.401 143.91 203.175ZM140.126 206.271C140.728 207.045 139.395 207.475 137.976 207.002C136.342 206.443 136.342 205.626 137.976 204.938C139.266 204.379 139.395 204.379 139.567 205.024C139.653 205.411 139.911 206.013 140.126 206.271ZM93.3851 211.173C93.9871 211.775 91.8371 211.603 90.3751 210.958C89.0851 210.356 89.1281 210.356 91.0201 210.571C92.0951 210.7 93.1271 210.958 93.3851 211.173Z" fill="black"/>
<path d="M108.779 3.74092C109.424 3.82692 110.456 3.82692 111.144 3.74092C111.789 3.65492 111.23 3.56892 109.94 3.56892C108.65 3.56892 108.091 3.65492 108.779 3.74092Z" fill="black"/>
<path d="M155.434 15.222C155.95 15.91 156.38 16.813 156.38 17.286C156.38 17.759 156.595 17.974 156.81 17.845C157.67 17.329 157.197 15.953 155.864 14.964L154.445 13.975L155.434 15.222Z" fill="black"/>
<path d="M13.2761 57.749C12.2871 58.824 12.0721 59.985 12.7601 60.415C13.0181 60.544 13.1901 61.103 13.1901 61.619C13.2331 62.565 13.2331 62.565 13.8781 61.705C14.4371 60.931 14.4371 60.845 13.8781 60.716C13.0181 60.544 13.0181 60.544 13.8351 58.609C14.6521 56.717 14.4801 56.459 13.2761 57.749Z" fill="black"/>
<path d="M6.09503 63.812C5.53603 65.274 5.49303 65.876 5.83703 66.607C6.74003 68.198 7.17003 67.553 7.17003 64.715C7.17003 63.167 7.08403 61.92 6.99803 61.92C6.91203 61.92 6.48203 62.78 6.09503 63.812Z" fill="black"/>
<path d="M4.03105 70.95C3.34305 72.154 2.65505 73.1 2.48305 73.1C2.05305 73.1 0.892048 71.767 0.634048 70.95C0.505048 70.606 0.333048 71.036 0.247048 71.896C0.118048 72.756 0.204048 73.358 0.376048 73.272C0.548048 73.143 0.720048 73.745 0.720048 74.562C0.720048 75.422 0.935048 76.11 1.15005 76.11C1.40805 76.11 1.58005 75.938 1.58005 75.723C1.58005 75.465 2.74105 74.39 4.16005 73.315C6.69705 71.337 7.25605 70.348 6.22405 69.316C5.45005 68.542 5.32105 68.628 4.03105 70.95Z" fill="black"/>
<path d="M1.15002 78.6899C1.15002 78.9479 1.45102 79.1199 1.79502 79.1199C2.61202 79.1199 2.61202 78.8619 1.79502 78.5179C1.45102 78.3889 1.15002 78.4749 1.15002 78.6899Z" fill="black"/>
<path d="M207.206 135.665C206.733 136.74 206.475 142.287 206.905 141.814C207.163 141.556 208.066 134.977 207.851 134.762C207.765 134.676 207.464 135.063 207.206 135.665Z" fill="black"/>
<path d="M198.047 151.016C197.66 152.478 197.23 154.026 197.058 154.413C196.585 155.445 198.649 154.972 199.724 153.768C201.229 152.177 201.272 151.145 199.939 149.64L198.692 148.264L198.047 151.016Z" fill="black"/>
<path d="M195.51 156.563C195.209 157.036 195.08 157.552 195.209 157.638C195.295 157.724 195.596 157.337 195.854 156.735C196.456 155.445 196.155 155.316 195.51 156.563Z" fill="black"/>
<path d="M193.833 160.906C192.887 163.744 193.016 163.744 194.822 161.035L195.94 159.315V161.035C195.897 161.981 195.639 163.228 195.295 163.83C193.747 166.539 195.037 167.743 197.402 165.851C198.477 164.948 198.563 164.733 198.133 163.873C197.789 163.314 197.703 162.239 197.918 161.035C198.176 159.229 198.133 159.1 197.015 158.67C195.08 157.939 194.779 158.154 193.833 160.906Z" fill="black"/>
<path d="M185.663 170.538C185.663 171.054 184.545 172.645 183.255 174.107C180.976 176.644 180.374 178.106 181.32 178.665C182.094 179.138 181.793 179.654 180.589 179.955L179.385 180.299L180.632 180.643C181.492 180.901 182.137 180.772 182.911 180.299L183.986 179.568L182.997 178.88C181.492 177.719 182.18 176.73 184.545 176.73H186.48L186.437 174.881C186.437 172.86 185.749 169.119 185.663 170.538Z" fill="black"/>
<path d="M190.565 170.753C190.393 171.011 190.35 171.269 190.479 171.398C190.565 171.527 190.78 171.312 190.909 170.925C191.21 170.194 190.952 170.065 190.565 170.753Z" fill="black"/>
<path d="M188.845 174.451C188.2 175.483 187.77 176.429 187.856 176.515C187.899 176.558 188.587 176.773 189.318 176.902C190.479 177.16 190.823 177.031 191.597 176.042C192.801 174.537 192.758 174.064 191.21 173.204L189.963 172.516L188.845 174.451Z" fill="black"/>
<path d="M179.557 183.051L178.095 184.599L179.471 183.653C180.933 182.664 181.535 181.976 181.234 181.632C181.148 181.546 180.374 182.191 179.557 183.051Z" fill="black"/>
<path d="M161.325 204.68C161.196 204.895 161.282 205.11 161.497 205.11C161.755 205.11 161.97 204.895 161.97 204.68C161.97 204.422 161.884 204.25 161.798 204.25C161.669 204.25 161.454 204.422 161.325 204.68Z" fill="black"/>
<path d="M147.565 209.453C145.759 211.302 145.587 211.603 146.49 211.345C148.339 210.829 150.145 209.625 150.274 208.808C150.618 207.088 149.586 207.346 147.565 209.453Z" fill="black"/>
<path d="M138.965 208.98L137.245 209.754L138.879 209.797C139.954 209.84 140.599 209.625 140.771 209.195C141.158 208.163 140.814 208.12 138.965 208.98Z" fill="black"/>
<path d="M113.165 211.99C108.908 212.42 103.404 212.807 100.91 212.85L96.395 212.936L100.695 213.753C103.146 214.269 107.833 214.699 111.66 214.871L118.325 215.086L117.25 214.226L116.175 213.366L117.25 212.893C117.852 212.678 119.873 212.334 121.765 212.162C124.302 211.947 124.904 211.775 124.13 211.517C122.625 211.087 121.937 211.13 113.165 211.99Z" fill="black"/>
</svg>
