<svg width="150" height="47" viewBox="0 0 150 47" fill="none" xmlns="http://www.w3.org/2000/svg">
<path d="M47.634 0.450481C47.2723 0.902645 46.7297 0.932793 42.6903 0.691635C36.2092 0.329903 27.3769 0.450481 22.4935 0.99308C18.1828 1.47539 14.4751 1.86727 9.32038 2.37973C6.15521 2.71132 3.86423 3.40464 2.47758 4.51998C1.99527 4.91186 1.24166 5.4846 0.819639 5.78605C-0.65744 6.81096 -0.175128 7.68515 2.56802 9.01151C4.25611 9.82541 4.40683 10.3379 3.62307 12.237C3.26134 13.1112 3.29149 13.292 3.83409 14.0456C4.19582 14.5279 4.76856 14.9198 5.1303 14.9801C5.46189 15.0404 5.76333 15.2816 5.76333 15.5227C5.76333 15.7639 6.09492 16.0955 6.4868 16.2462C7.08969 16.4572 7.87344 17.663 7.51171 17.8438C7.48157 17.874 7.0294 18.1151 6.51694 18.3563C6.03463 18.6276 5.49203 19.1099 5.31116 19.4716C5.1303 19.8032 4.79871 20.3157 4.5877 20.5568C3.86423 21.431 4.3164 22.6368 5.58246 23.3C8.17489 24.6866 8.77778 27.2188 7.05954 29.4193C6.51694 30.0825 6.06478 30.8662 6.06478 31.1375C6.06478 31.6801 7.05954 32.4036 8.23518 32.6749C9.10937 32.8859 9.41081 33.4285 8.6572 33.4285C7.99402 33.4285 7.75287 34.0013 8.17489 34.4836C8.68734 35.1166 8.05431 35.8401 6.99925 35.8401C5.9442 35.8401 5.00972 36.5334 5.22073 37.1061C5.34131 37.4076 6.00449 37.6186 7.11983 37.7392C8.86821 37.92 9.68211 38.3119 9.68211 39.0354C9.68211 39.3067 10.0137 39.4574 10.5864 39.4574C11.3099 39.4574 11.4908 39.578 11.4908 40.1206C11.4908 41.6881 13.9325 44.1901 15.7411 44.4614C16.6153 44.6121 17.0675 44.8533 17.2785 45.3657C17.7307 46.3303 18.002 46.2701 18.3939 45.1849C18.7255 44.1901 19.1776 44.0695 20.4135 44.7025C20.8657 44.9437 21.3782 45.0643 21.559 44.9437C21.7399 44.8231 23.3978 44.7327 25.2065 44.7025C27.5276 44.6724 28.8841 44.5217 29.698 44.1599C30.3311 43.8886 31.3861 43.6776 32.0192 43.6776C33.2249 43.6776 33.5264 43.2255 32.8632 42.5623C32.5919 42.291 32.6823 42.1704 33.2852 42.0197C34.4307 41.7182 35.1542 41.9594 35.2446 42.6829C35.3652 43.5269 36.6916 43.6776 40.4295 43.3159C42.3587 43.135 44.1071 43.135 45.9158 43.3762C47.7546 43.6173 49.3522 43.6475 51.0705 43.4365C52.427 43.2858 56.1649 43.1652 59.3602 43.1953C63.701 43.2255 65.2685 43.135 65.5097 42.8336C65.7508 42.5623 65.6604 42.4719 65.1781 42.4719C64.4546 42.4719 64.3039 41.6278 64.9671 41.3867C65.2082 41.2962 65.3288 41.0249 65.2685 40.8139C65.0274 40.211 65.7207 39.9397 67.8609 39.8794C68.9461 39.8191 70.3026 39.6081 70.8754 39.367C71.5084 39.1258 72.684 39.0052 73.8898 39.0655C74.975 39.0957 76.5425 39.156 77.4167 39.1258C78.2909 39.1258 79.2857 39.3067 79.6776 39.5478C80.2503 39.9096 80.7326 39.9397 82.2097 39.6684C83.2045 39.5177 84.4102 39.4574 84.9227 39.6081L85.7969 39.8191L84.5911 40.1809C83.6265 40.4522 83.3552 40.6933 83.2949 41.2962C83.2346 41.8991 83.3552 42.1403 83.8375 42.2608C84.1992 42.3513 84.4404 42.5623 84.35 42.6829C84.0485 43.1953 84.6213 43.6475 85.2844 43.4666C85.9175 43.3159 85.9476 43.2556 85.4653 42.7432C85.0131 42.2307 85.0131 42.2006 85.7969 41.9895C86.4601 41.8388 86.7314 41.9293 87.3041 42.6527C87.9974 43.5269 88.0276 43.5269 91.4339 43.5872C93.3029 43.5872 95.0512 43.6776 95.2924 43.7379C95.5335 43.7982 95.835 43.4666 96.046 42.8939L96.3475 41.9594L96.89 42.6829C97.1915 43.0747 97.5834 43.3159 97.7341 43.1953C97.915 43.1049 98.5179 43.2556 99.0906 43.5269C100.447 44.1599 101.683 44.0092 102.075 43.135C102.437 42.291 103.612 42.2307 103.884 43.0747C104.125 43.7982 103.914 43.7379 106.747 43.8284C107.983 43.8585 109.189 43.7681 109.37 43.5872C109.852 43.2556 111.781 43.5872 112.595 44.1599C113.379 44.7025 114.525 44.7025 115.851 44.1599C117.117 43.6173 117.991 43.7982 119.529 44.9136C120.162 45.3959 120.825 45.6973 120.975 45.6069C121.096 45.5164 121.217 44.793 121.217 43.9489V42.4719H122.362C122.965 42.4719 124.291 42.3513 125.286 42.2006C128.572 41.6881 131.014 41.5675 132.038 41.8388C132.792 42.08 133.305 42.0498 134.149 41.658C135.234 41.1756 138.851 40.7235 142.83 40.5426C145.061 40.4522 146.237 39.9096 146.237 38.945C146.237 38.6737 146.689 38.5531 147.683 38.5229C148.467 38.5229 149.372 38.4024 149.673 38.2818C150.185 38.1009 150.125 38.0105 149.281 37.6789C148.769 37.4377 147.955 37.3473 147.472 37.4377C146.719 37.5885 146.598 37.5282 146.448 36.865C146.357 36.2621 146.478 36.0511 146.99 35.8401C147.382 35.6894 147.774 35.4482 147.864 35.2673C148.105 34.8755 146.99 33.73 146.417 33.73C146.176 33.73 145.875 33.5792 145.754 33.3984C145.634 33.1874 145.754 33.1271 146.176 33.2476C146.719 33.4285 146.9 33.2778 147.292 32.3433C147.834 30.9868 147.834 31.017 147.292 31.017C147.05 31.017 146.598 31.3184 146.267 31.65C145.935 32.0117 145.483 32.2227 145.272 32.1022C143.735 31.3184 142.619 30.4744 142.619 30.1126C142.619 29.9619 143.524 29.781 144.669 29.6605C147.714 29.3892 148.648 29.2083 148.648 28.9068C148.648 28.726 148.407 28.6054 148.075 28.6054C147.774 28.6054 147.111 28.4547 146.568 28.2738C145.815 28.0025 145.634 27.7915 145.634 27.068C145.634 26.3747 145.513 26.1938 144.97 26.1938C144.277 26.1637 144.277 26.1637 144.88 25.7115C145.302 25.3799 145.362 25.1689 145.121 25.0785C144.337 24.7771 144.79 24.1742 145.995 23.9029C146.689 23.7521 147.322 23.4507 147.382 23.2095C147.503 22.878 147.141 22.8177 145.483 22.9382C143.765 23.089 143.373 23.0287 142.891 22.5464C142.589 22.2449 142.137 21.9736 141.926 21.9736C141.715 21.9736 141.383 21.7023 141.172 21.3707C140.841 20.8281 140.901 20.7377 141.564 20.4664C142.016 20.2855 142.499 20.165 142.679 20.165C142.981 20.165 142.921 19.6525 142.499 18.6276C142.348 18.2659 142.649 18.0548 143.735 17.6931L145.181 17.2108L144.006 17.1807C143.071 17.1505 142.891 17.0601 143.041 16.6682C143.192 16.2763 143.071 16.216 142.438 16.3366C141.986 16.427 141.233 16.3366 140.75 16.1859C140.087 15.9447 139.725 16.005 139.122 16.3969C138.61 16.7285 138.248 16.7888 138.128 16.6079C138.037 16.427 137.404 16.2462 136.741 16.1859C135.807 16.0955 135.656 16.0352 136.138 15.8543C136.47 15.7036 137.133 15.4021 137.585 15.161C138.067 14.95 138.64 14.739 138.881 14.739C139.635 14.739 139.333 13.292 138.399 12.2068C137.193 10.8503 135.837 10.579 134.028 11.3929C133.063 11.8149 132.461 11.9355 131.978 11.7547C131.586 11.6039 129.898 11.4833 128.21 11.4532C124.924 11.4532 124.533 11.3628 124.533 10.6393C124.533 10.368 124.834 10.2173 125.407 10.2173C125.859 10.2173 126.703 10.0666 127.246 9.85555C128.059 9.58425 128.301 9.6144 128.572 9.97613C129.416 11.0915 130.682 11.2422 131.767 10.368C132.31 9.91584 135.385 9.58425 135.385 9.97613C135.385 10.7297 136.409 9.91584 136.741 8.89093C137.103 7.83587 137.103 7.65501 136.651 7.32341C136.379 7.14255 135.987 7.02197 135.776 7.1124C135.565 7.20284 135.385 7.1124 135.385 6.93154C135.385 6.75067 134.932 6.59995 134.36 6.59995C133.817 6.59995 132.913 6.44923 132.37 6.26836L131.375 5.90663L132.189 5.4846C133.063 5.03244 133.214 4.33912 132.491 4.06781C132.129 3.91709 132.038 3.5855 132.129 2.83189C132.219 2.01799 132.129 1.77684 131.767 1.74669C131.526 1.74669 130.32 1.71655 129.145 1.65626C127.336 1.59597 126.733 1.6864 125.799 2.229C124.713 2.83189 124.593 2.83189 123.688 2.40987C123.176 2.13857 122.724 1.77684 122.724 1.59597C122.724 1.1438 121.94 0.842358 121.367 1.05337C121.006 1.20409 120.975 1.35481 121.217 1.65626C121.488 1.9577 121.337 2.07828 120.403 2.229C119.77 2.31944 118.896 2.5003 118.443 2.65102C117.78 2.86204 117.599 2.83189 117.599 2.47016C117.599 2.10843 117.358 2.04813 116.514 2.16871C115.73 2.28929 115.399 2.229 115.278 1.89742C115.127 1.50554 114.525 1.44525 111.601 1.50554C109.46 1.53568 107.772 1.44525 107.26 1.23423C105.632 0.540913 104.456 0.78207 103.582 1.92756L102.768 2.95247L101.593 2.37973C100.296 1.71655 98.9097 1.59597 98.3671 2.13857C98.126 2.37973 97.915 2.37973 97.5532 2.07828C97.2216 1.80698 96.5283 1.74669 95.202 1.86727C93.8455 1.98785 93.1823 1.92756 92.7603 1.59597C92.0066 1.05337 85.3447 0.99308 84.8323 1.50554C84.561 1.77684 84.35 1.74669 84.0184 1.4151C83.4758 0.842358 78.3211 0.571056 69.3681 0.571056C65.9618 0.571056 60.4152 0.450481 57.0089 0.299759C48.5685 -0.122265 48.1163 -0.122265 47.634 0.450481ZM129.959 5.60518C129.959 5.90663 129.356 6.81096 129.356 6.53966C129.356 6.44923 129.265 6.14778 129.175 5.87648C129.054 5.54489 129.145 5.39417 129.476 5.39417C129.748 5.39417 129.959 5.4846 129.959 5.60518ZM78.11 9.76512C78.11 9.82541 77.899 9.91584 77.6579 10.0364C77.3866 10.1269 77.2057 10.0364 77.2057 9.76512C77.2057 9.49382 77.3866 9.40338 77.6579 9.49382C77.899 9.6144 78.11 9.70483 78.11 9.76512ZM80.5216 9.94598C80.5216 10.4283 80.401 10.5187 80.0091 10.368C79.7077 10.2474 79.2254 10.0666 78.924 9.97613C78.2005 9.79526 78.8335 9.31295 79.8584 9.31295C80.3407 9.31295 80.5216 9.49382 80.5216 9.94598ZM103.582 10.1871L105.994 10.368L102.979 10.6092C101.291 10.7599 99.7538 10.9709 99.5126 11.1216C99.2413 11.3025 98.97 11.2121 98.759 10.9106C98.4576 10.5187 98.2466 10.4886 97.4326 10.7599C96.5585 11.0613 96.468 11.0312 96.5585 10.579C96.6188 10.1871 97.0709 10.0364 98.4576 9.8857C99.4523 9.79526 100.477 9.79526 100.718 9.85555C100.96 9.94598 102.256 10.0967 103.582 10.1871ZM121.337 9.91584C122.633 10.3982 122.211 10.6694 120.101 10.7297C118.956 10.7297 117.72 10.8202 117.328 10.8805C116.936 10.9106 116.544 10.79 116.484 10.579C116.394 10.3077 116.816 10.2173 118.021 10.2173C118.926 10.2173 119.77 10.0666 119.86 9.91584C120.101 9.52396 120.373 9.52396 121.337 9.91584ZM134.028 15.6433C134.149 15.8242 133.877 15.9447 133.425 15.9447C132.973 15.9447 132.702 15.8242 132.822 15.6433C132.913 15.4624 133.184 15.3418 133.425 15.3418C133.666 15.3418 133.938 15.4624 134.028 15.6433Z" fill="#616161"/>
<path d="M47.634 0.450481C47.2723 0.902645 46.7297 0.932793 42.6903 0.691635C36.2092 0.329903 27.3769 0.450481 22.4935 0.99308C18.1828 1.47539 14.4751 1.86727 9.32038 2.37973C6.15521 2.71132 3.86423 3.40464 2.47758 4.51998C1.99527 4.91186 1.24166 5.4846 0.819639 5.78605C-0.65744 6.81096 -0.175128 7.68515 2.56802 9.01151C4.25611 9.82541 4.40683 10.3379 3.62307 12.237C3.26134 13.1112 3.29149 13.292 3.83409 14.0456C4.19582 14.5279 4.76856 14.9198 5.1303 14.9801C5.46189 15.0404 5.76333 15.2816 5.76333 15.5227C5.76333 15.7639 6.09492 16.0955 6.4868 16.2462C7.08969 16.4572 7.87344 17.663 7.51171 17.8438C7.48157 17.874 7.0294 18.1151 6.51694 18.3563C6.03463 18.6276 5.49203 19.1099 5.31116 19.4716C5.1303 19.8032 4.79871 20.3157 4.5877 20.5568C3.86423 21.431 4.3164 22.6368 5.58246 23.3C8.17489 24.6866 8.77778 27.2188 7.05954 29.4193C6.51694 30.0825 6.06478 30.8662 6.06478 31.1375C6.06478 31.6801 7.05954 32.4036 8.23518 32.6749C9.10937 32.8859 9.41081 33.4285 8.6572 33.4285C7.99402 33.4285 7.75287 34.0013 8.17489 34.4836C8.68734 35.1166 8.05431 35.8401 6.99925 35.8401C5.9442 35.8401 5.00972 36.5334 5.22073 37.1061C5.34131 37.4076 6.00449 37.6186 7.11983 37.7392C8.86821 37.92 9.68211 38.3119 9.68211 39.0354C9.68211 39.3067 10.0137 39.4574 10.5864 39.4574C11.3099 39.4574 11.4908 39.578 11.4908 40.1206C11.4908 41.6881 13.9325 44.1901 15.7411 44.4614C16.6153 44.6121 17.0675 44.8533 17.2785 45.3657C17.7307 46.3303 18.002 46.2701 18.3939 45.1849C18.7255 44.1901 19.1776 44.0695 20.4135 44.7025C20.8657 44.9437 21.3782 45.0643 21.559 44.9437C21.7399 44.8231 23.3978 44.7327 25.2065 44.7025C27.5276 44.6724 28.8841 44.5217 29.698 44.1599C30.3311 43.8886 31.3861 43.6776 32.0192 43.6776C33.2249 43.6776 33.5264 43.2255 32.8632 42.5623C32.5919 42.291 32.6823 42.1704 33.2852 42.0197C34.4307 41.7182 35.1542 41.9594 35.2446 42.6829C35.3652 43.5269 36.6916 43.6776 40.4295 43.3159C42.3587 43.135 44.1071 43.135 45.9158 43.3762C47.7546 43.6173 49.3522 43.6475 51.0705 43.4365C52.427 43.2858 56.1649 43.1652 59.3602 43.1953C63.701 43.2255 65.2685 43.135 65.5097 42.8336C65.7508 42.5623 65.6604 42.4719 65.1781 42.4719C64.4546 42.4719 64.3039 41.6278 64.9671 41.3867C65.2082 41.2962 65.3288 41.0249 65.2685 40.8139C65.0274 40.211 65.7207 39.9397 67.8609 39.8794C68.9461 39.8191 70.3026 39.6081 70.8754 39.367C71.5084 39.1258 72.684 39.0052 73.8898 39.0655C74.975 39.0957 76.5425 39.156 77.4167 39.1258C78.2909 39.1258 79.2857 39.3067 79.6776 39.5478C80.2503 39.9096 80.7326 39.9397 82.2097 39.6684C83.2045 39.5177 84.4102 39.4574 84.9227 39.6081L85.7969 39.8191L84.5911 40.1809C83.6265 40.4522 83.3552 40.6933 83.2949 41.2962C83.2346 41.8991 83.3552 42.1403 83.8375 42.2608C84.1992 42.3513 84.4404 42.5623 84.35 42.6829C84.0485 43.1953 84.6213 43.6475 85.2844 43.4666C85.9175 43.3159 85.9476 43.2556 85.4653 42.7432C85.0131 42.2307 85.0131 42.2006 85.7969 41.9895C86.4601 41.8388 86.7314 41.9293 87.3041 42.6527C87.9974 43.5269 88.0276 43.5269 91.4339 43.5872C93.3029 43.5872 95.0512 43.6776 95.2924 43.7379C95.5335 43.7982 95.835 43.4666 96.046 42.8939L96.3475 41.9594L96.89 42.6829C97.1915 43.0747 97.5834 43.3159 97.7341 43.1953C97.915 43.1049 98.5179 43.2556 99.0906 43.5269C100.447 44.1599 101.683 44.0092 102.075 43.135C102.437 42.291 103.612 42.2307 103.884 43.0747C104.125 43.7982 103.914 43.7379 106.747 43.8284C107.983 43.8585 109.189 43.7681 109.37 43.5872C109.852 43.2556 111.781 43.5872 112.595 44.1599C113.379 44.7025 114.525 44.7025 115.851 44.1599C117.117 43.6173 117.991 43.7982 119.529 44.9136C120.162 45.3959 120.825 45.6973 120.975 45.6069C121.096 45.5164 121.217 44.793 121.217 43.9489V42.4719H122.362C122.965 42.4719 124.291 42.3513 125.286 42.2006C128.572 41.6881 131.014 41.5675 132.038 41.8388C132.792 42.08 133.305 42.0498 134.149 41.658C135.234 41.1756 138.851 40.7235 142.83 40.5426C145.061 40.4522 146.237 39.9096 146.237 38.945C146.237 38.6737 146.689 38.5531 147.683 38.5229C148.467 38.5229 149.372 38.4024 149.673 38.2818C150.185 38.1009 150.125 38.0105 149.281 37.6789C148.769 37.4377 147.955 37.3473 147.472 37.4377C146.719 37.5885 146.598 37.5282 146.448 36.865C146.357 36.2621 146.478 36.0511 146.99 35.8401C147.382 35.6894 147.774 35.4482 147.864 35.2673C148.105 34.8755 146.99 33.73 146.417 33.73C146.176 33.73 145.875 33.5792 145.754 33.3984C145.634 33.1874 145.754 33.1271 146.176 33.2476C146.719 33.4285 146.9 33.2778 147.292 32.3433C147.834 30.9868 147.834 31.017 147.292 31.017C147.05 31.017 146.598 31.3184 146.267 31.65C145.935 32.0117 145.483 32.2227 145.272 32.1022C143.735 31.3184 142.619 30.4744 142.619 30.1126C142.619 29.9619 143.524 29.781 144.669 29.6605C147.714 29.3892 148.648 29.2083 148.648 28.9068C148.648 28.726 148.407 28.6054 148.075 28.6054C147.774 28.6054 147.111 28.4547 146.568 28.2738C145.815 28.0025 145.634 27.7915 145.634 27.068C145.634 26.3747 145.513 26.1938 144.97 26.1938C144.277 26.1637 144.277 26.1637 144.88 25.7115C145.302 25.3799 145.362 25.1689 145.121 25.0785C144.337 24.7771 144.79 24.1742 145.995 23.9029C146.689 23.7521 147.322 23.4507 147.382 23.2095C147.503 22.878 147.141 22.8177 145.483 22.9382C143.765 23.089 143.373 23.0287 142.891 22.5464C142.589 22.2449 142.137 21.9736 141.926 21.9736C141.715 21.9736 141.383 21.7023 141.172 21.3707C140.841 20.8281 140.901 20.7377 141.564 20.4664C142.016 20.2855 142.499 20.165 142.679 20.165C142.981 20.165 142.921 19.6525 142.499 18.6276C142.348 18.2659 142.649 18.0548 143.735 17.6931L145.181 17.2108L144.006 17.1807C143.071 17.1505 142.891 17.0601 143.041 16.6682C143.192 16.2763 143.071 16.216 142.438 16.3366C141.986 16.427 141.233 16.3366 140.75 16.1859C140.087 15.9447 139.725 16.005 139.122 16.3969C138.61 16.7285 138.248 16.7888 138.128 16.6079C138.037 16.427 137.404 16.2462 136.741 16.1859C135.807 16.0955 135.656 16.0352 136.138 15.8543C136.47 15.7036 137.133 15.4021 137.585 15.161C138.067 14.95 138.64 14.739 138.881 14.739C139.635 14.739 139.333 13.292 138.399 12.2068C137.193 10.8503 135.837 10.579 134.028 11.3929C133.063 11.8149 132.461 11.9355 131.978 11.7547C131.586 11.6039 129.898 11.4833 128.21 11.4532C124.924 11.4532 124.533 11.3628 124.533 10.6393C124.533 10.368 124.834 10.2173 125.407 10.2173C125.859 10.2173 126.703 10.0666 127.246 9.85555C128.059 9.58425 128.301 9.6144 128.572 9.97613C129.416 11.0915 130.682 11.2422 131.767 10.368C132.31 9.91584 135.385 9.58425 135.385 9.97613C135.385 10.7297 136.409 9.91584 136.741 8.89093C137.103 7.83587 137.103 7.65501 136.651 7.32341C136.379 7.14255 135.987 7.02197 135.776 7.1124C135.565 7.20284 135.385 7.1124 135.385 6.93154C135.385 6.75067 134.932 6.59995 134.36 6.59995C133.817 6.59995 132.913 6.44923 132.37 6.26836L131.375 5.90663L132.189 5.4846C133.063 5.03244 133.214 4.33912 132.491 4.06781C132.129 3.91709 132.038 3.5855 132.129 2.83189C132.219 2.01799 132.129 1.77684 131.767 1.74669C131.526 1.74669 130.32 1.71655 129.145 1.65626C127.336 1.59597 126.733 1.6864 125.799 2.229C124.713 2.83189 124.593 2.83189 123.688 2.40987C123.176 2.13857 122.724 1.77684 122.724 1.59597C122.724 1.1438 121.94 0.842358 121.367 1.05337C121.006 1.20409 120.975 1.35481 121.217 1.65626C121.488 1.9577 121.337 2.07828 120.403 2.229C119.77 2.31944 118.896 2.5003 118.443 2.65102C117.78 2.86204 117.599 2.83189 117.599 2.47016C117.599 2.10843 117.358 2.04813 116.514 2.16871C115.73 2.28929 115.399 2.229 115.278 1.89742C115.127 1.50554 114.525 1.44525 111.601 1.50554C109.46 1.53568 107.772 1.44525 107.26 1.23423C105.632 0.540913 104.456 0.78207 103.582 1.92756L102.768 2.95247L101.593 2.37973C100.296 1.71655 98.9097 1.59597 98.3671 2.13857C98.126 2.37973 97.915 2.37973 97.5532 2.07828C97.2216 1.80698 96.5283 1.74669 95.202 1.86727C93.8455 1.98785 93.1823 1.92756 92.7603 1.59597C92.0066 1.05337 85.3447 0.99308 84.8323 1.50554C84.561 1.77684 84.35 1.74669 84.0184 1.4151C83.4758 0.842358 78.3211 0.571056 69.3681 0.571056C65.9618 0.571056 60.4152 0.450481 57.0089 0.299759C48.5685 -0.122265 48.1163 -0.122265 47.634 0.450481ZM129.959 5.60518C129.959 5.90663 129.356 6.81096 129.356 6.53966C129.356 6.44923 129.265 6.14778 129.175 5.87648C129.054 5.54489 129.145 5.39417 129.476 5.39417C129.748 5.39417 129.959 5.4846 129.959 5.60518ZM78.11 9.76512C78.11 9.82541 77.899 9.91584 77.6579 10.0364C77.3866 10.1269 77.2057 10.0364 77.2057 9.76512C77.2057 9.49382 77.3866 9.40338 77.6579 9.49382C77.899 9.6144 78.11 9.70483 78.11 9.76512ZM80.5216 9.94598C80.5216 10.4283 80.401 10.5187 80.0091 10.368C79.7077 10.2474 79.2254 10.0666 78.924 9.97613C78.2005 9.79526 78.8335 9.31295 79.8584 9.31295C80.3407 9.31295 80.5216 9.49382 80.5216 9.94598ZM103.582 10.1871L105.994 10.368L102.979 10.6092C101.291 10.7599 99.7538 10.9709 99.5126 11.1216C99.2413 11.3025 98.97 11.2121 98.759 10.9106C98.4576 10.5187 98.2466 10.4886 97.4326 10.7599C96.5585 11.0613 96.468 11.0312 96.5585 10.579C96.6188 10.1871 97.0709 10.0364 98.4576 9.8857C99.4523 9.79526 100.477 9.79526 100.718 9.85555C100.96 9.94598 102.256 10.0967 103.582 10.1871ZM121.337 9.91584C122.633 10.3982 122.211 10.6694 120.101 10.7297C118.956 10.7297 117.72 10.8202 117.328 10.8805C116.936 10.9106 116.544 10.79 116.484 10.579C116.394 10.3077 116.816 10.2173 118.021 10.2173C118.926 10.2173 119.77 10.0666 119.86 9.91584C120.101 9.52396 120.373 9.52396 121.337 9.91584ZM134.028 15.6433C134.149 15.8242 133.877 15.9447 133.425 15.9447C132.973 15.9447 132.702 15.8242 132.822 15.6433C132.913 15.4624 133.184 15.3418 133.425 15.3418C133.666 15.3418 133.938 15.4624 134.028 15.6433Z" fill="black"/>
<path d="M141.353 9.97564C140.841 10.1565 140.509 10.4881 140.509 10.8197C140.509 11.1211 140.238 11.4226 139.876 11.513C139.062 11.724 139.424 12.3269 140.388 12.3269C140.931 12.3269 141.112 12.1762 141.052 11.7843C140.961 11.2116 141.112 11.2116 142.559 11.7843C143.343 12.0857 143.644 12.0857 144.126 11.7843C144.458 11.6034 145.212 11.4226 145.784 11.4226C146.538 11.4226 146.839 11.302 146.839 10.9403C146.839 10.6991 146.749 10.5484 146.598 10.6388C146.478 10.6991 145.845 10.5182 145.181 10.2168C143.855 9.58376 142.619 9.49332 141.353 9.97564Z" fill="#616161"/>
<path d="M141.504 12.8402C140.63 13.1718 141.202 13.4431 142.77 13.413C143.885 13.3828 144.428 13.2623 144.428 12.991C144.428 12.6292 142.288 12.5087 141.504 12.8402Z" fill="#616161"/>
<path d="M143.343 19.4107C143.222 19.682 143.252 19.9835 143.343 20.104C143.614 20.3452 144.609 19.7423 144.518 19.3806C144.398 18.8983 143.524 18.8983 143.343 19.4107Z" fill="#616161"/>
<path d="M5.46191 26.646C5.46191 26.8871 5.61264 27.0981 5.76336 27.0981C5.94423 27.0981 6.0648 26.8871 6.0648 26.646C6.0648 26.4048 5.94423 26.1938 5.76336 26.1938C5.61264 26.1938 5.46191 26.4048 5.46191 26.646Z" fill="#616161"/>
<path d="M70.6644 40.5729C70.0314 40.6935 69.6696 41.5074 70.2122 41.5978C71.418 41.8088 74.4927 41.7184 74.4023 41.4772C74.342 41.2662 71.3276 40.2111 71.3276 40.4222C71.3276 40.4222 71.0261 40.5126 70.6644 40.5729Z" fill="#616161"/>
<path d="M68.1623 42.7733C67.8005 43.0144 67.891 43.0747 68.5542 43.0747C69.0365 43.0747 69.3379 42.9541 69.2173 42.7733C68.9762 42.4115 68.735 42.4115 68.1623 42.7733Z" fill="#616161"/>
</svg>
