<svg width="390" height="511" viewBox="0 0 390 511" fill="none" xmlns="http://www.w3.org/2000/svg">
<path d="M326.48 36.5371C319.184 37.3975 312.952 38.4491 312.724 39.0227C312.344 39.5963 308.696 39.6919 302.084 39.1183C290 38.1623 239.08 37.9711 239.536 38.9271C240.068 39.9787 236.8 40.1699 230.416 39.5007C227.072 39.2139 221.6 39.3095 218.256 39.7875C206.324 41.6039 200.396 41.8907 199.332 40.7435C198.496 39.9787 197.356 40.0743 194.696 41.0303C191.276 42.3687 188.616 42.1775 186.944 40.5523C186.488 40.0743 183.296 40.1699 179.876 40.6479C176.456 41.1259 167.564 41.3171 160.192 41.1259C152.82 40.8391 136.328 40.4567 123.56 40.1699C110.792 39.8831 96.504 39.2139 91.792 38.6403C87.08 38.0667 82.52 37.9711 81.684 38.2579C80.848 38.6403 78.492 38.3535 76.44 37.7799C72.412 36.5371 67.852 37.6843 66.788 40.1699C66.104 41.6039 55.692 42.3687 53.488 41.1259C51.588 40.1699 12.828 41.8907 11.916 43.0379C11.536 43.5159 10.928 52.0243 10.548 61.9667C10.016 76.9759 10.092 79.8439 11.004 79.8439C11.84 79.8439 11.916 81.0867 11.46 86.2491C11.08 89.8819 10.776 96.1915 10.7 100.398C10.548 107.855 8.41999 119.04 7.12799 119.04C6.06399 119.04 6.44399 123.916 7.65999 125.35C9.17999 127.262 9.10399 130.13 7.58399 130.894C6.51999 131.468 6.36799 132.615 6.74799 138.925C7.05199 142.94 7.43199 149.728 7.65999 153.934C7.96399 158.14 8.49599 162.442 8.95199 163.59C9.40799 164.928 9.40799 168.561 8.87599 174.775C8.26799 181.467 8.26799 187.872 8.95199 198.579C9.40799 206.61 9.71199 214.736 9.55999 216.552C9.33199 219.994 9.25599 226.208 9.25599 240.93C9.25599 245.614 9.25599 257.086 9.25599 266.264C9.25599 275.442 9.33199 284.237 9.40799 285.862C9.48399 287.392 9.33199 292.267 9.10399 296.665C8.87599 300.967 9.02799 307.468 9.48399 311.005C10.016 315.498 10.016 320.182 9.48399 326.014C9.10399 330.794 8.72399 341.501 8.72399 349.914C8.72399 358.327 8.34399 373.049 7.88799 382.705C7.05199 400.869 7.05199 400.486 10.244 416.356C10.852 419.128 10.928 419.224 11.004 417.312L11.08 414.922L12.22 417.694C12.98 419.511 13.208 421.614 12.828 424.291C12.448 427.35 12.22 427.828 11.764 426.394C11.384 424.864 11.156 424.769 10.852 425.916C10.168 428.019 8.79999 472.091 8.79999 490.159V505.933L13.436 506.602C20.96 507.558 38.972 507.272 37.68 506.22C36.844 505.551 37.908 505.36 41.1 505.36C44.748 505.455 45.28 505.646 43.76 506.316C42.316 506.985 42.544 506.985 44.9 506.602C46.572 506.316 49.46 505.933 51.36 505.646L54.78 505.264L52.5 506.698L50.22 508.228L52.5 507.654C62.228 505.168 63.748 504.977 66.104 506.029C68.992 507.367 81.456 507.558 79.1 506.22C77.2 505.168 74.768 505.264 111.704 504.977C134.276 504.786 141.344 504.499 141.648 503.543C142.028 502.109 146.132 502.014 146.512 503.543C146.968 505.264 165.892 506.698 172.124 505.551C174.86 504.977 177.52 504.882 177.9 505.264C179.04 506.316 224.032 507.272 223.5 506.316C222.74 504.69 224.944 504.595 229.124 505.933C232.468 507.08 233.912 507.08 236.496 506.22C238.852 505.36 251.24 505.264 285.136 505.742C310.216 506.029 332.408 506.411 334.612 506.411C336.74 506.507 339.02 506.029 339.552 505.455C340.312 504.69 342.06 504.69 345.404 505.264C350.116 506.124 369.8 505.36 367.52 504.499C366.912 504.212 366.228 503.734 366 503.352C365.772 502.97 363.72 501.44 361.44 499.91C356.804 496.947 352.396 496.278 338.488 496.182C334.08 496.182 330.508 495.991 330.66 495.704C330.812 495.417 326.936 495.417 322.072 495.513C317.132 495.704 305.732 495.417 296.536 494.748C284.756 493.983 279.664 493.983 279.132 494.652C278.524 495.417 278.676 495.704 279.74 495.704C280.5 495.704 280.956 495.991 280.728 496.278C280.424 496.564 278.676 496.086 276.7 495.226C274.04 494.174 272.824 493.983 272.14 494.748C271.38 495.513 267.656 495.608 259.448 494.939C253.064 494.557 245.312 494.27 242.272 494.461C239.156 494.652 236.268 494.461 235.812 493.983C234.976 493.123 203.74 493.792 161.18 495.513C148.26 496.086 143.928 495.991 142.028 495.035C139.368 493.696 135.568 494.079 129.412 496.278C127.436 496.947 125.308 497.329 124.776 497.042C124.168 496.756 121.888 496.947 119.684 497.425C116.644 498.19 115.428 498.094 114.744 497.138C114.212 496.469 113.984 495.608 114.288 495.226C114.592 494.844 109.728 494.748 103.42 494.939C97.188 495.226 91.108 495.13 89.968 494.652C88.828 494.27 87.688 494.27 87.46 494.652C87.08 495.513 91.032 496.564 95.06 496.756C97.264 496.851 97.34 496.851 95.44 497.616C92.096 498.954 86.092 498.572 80.24 496.66C75.528 495.035 71.576 494.652 57.82 494.461C48.624 494.27 43.152 494.461 45.66 494.748C48.168 495.13 49.916 495.513 49.46 495.608C49.08 495.8 49.536 496.182 50.6 496.564C52.044 497.138 50.98 497.52 46.42 498.094C42.164 498.572 40.34 498.476 40.112 497.712C39.96 497.138 38.744 496.66 37.452 496.66C35.172 496.564 35.096 496.564 36.54 495.226C37.832 493.888 37.3 493.792 31.22 493.888C27.42 493.983 23.392 493.505 22.1 492.932C20.2 491.976 19.744 491.976 18.984 493.314C17.54 495.8 17.236 492.932 18.452 488.056C19.668 483.18 20.504 457.177 19.364 459.472C18.908 460.428 18.68 459.854 18.68 457.464C18.68 455.648 18.376 452.493 17.996 450.485C17.616 448.478 17.616 446.757 17.996 446.374C18.908 445.705 18.832 437.675 17.92 436.91C17.464 436.623 17.16 434.711 17.16 432.799C17.16 430.027 17.388 429.549 17.996 430.696C18.604 431.843 18.756 431.461 18.528 429.071C18.3 427.35 18.452 426.203 18.756 426.49C19.744 427.254 19.136 409.282 18.148 407.943C17.084 406.509 17.008 400.391 17.92 395.802C18.452 393.316 18.528 393.699 18.604 397.905C18.604 400.678 19.06 402.972 19.44 402.972C20.504 402.972 20.352 395.133 19.06 386.242C17.996 378.498 18.3 367.218 19.516 369.703C20.276 371.233 20.504 363.776 20.2 341.31C19.668 301.062 19.82 290.642 20.808 287.392C21.34 285.671 21.568 283.95 21.264 283.568C20.96 283.281 20.58 283.568 20.428 284.237C20.2 284.81 19.744 285.193 19.364 284.81C18.3 284.046 18.528 273.147 19.592 272.765C20.276 272.478 20.276 270.47 19.592 264.256C19.06 259.859 18.756 254.505 18.756 252.402C18.832 248.769 18.908 248.674 19.364 251.446C20.352 256.322 21.188 244.754 20.656 235.481C20.352 231.083 20.124 225.825 20.2 223.722C20.2 221.619 19.668 216.839 18.908 213.015C17.996 207.852 17.844 205.176 18.376 202.021C18.984 198.292 18.68 184.239 17.616 165.406C17.388 161.2 17.464 159.383 17.92 160.626C18.3 161.678 18.604 163.781 18.68 165.406C18.68 167.7 18.832 167.987 19.44 166.649C19.972 165.693 19.972 161.964 19.44 156.133C18.528 145.139 18.528 145.043 19.44 146.764C19.82 147.529 20.2 149.25 20.2 150.588C20.352 154.89 21.492 149.823 21.872 142.94L22.328 136.726L21.188 140.741C20.58 143.036 19.82 144.852 19.44 144.852C19.136 144.852 18.908 141.697 19.06 137.873C19.136 134.145 19.288 128.696 19.364 125.923C19.44 122.386 19.668 121.048 20.276 121.526C20.96 122.004 21.036 121.43 20.656 119.422C19.364 112.539 19.288 106.899 20.504 103.935C22.1 100.111 22.1 98.2947 20.58 99.9199C19.592 100.972 19.44 100.016 19.364 92.6543C19.212 71.4311 18.604 59.8635 17.54 57.1867C16.932 55.7527 16.4 53.5539 16.4 52.5023C16.4 50.5903 16.78 50.3991 22.024 50.4947C25.14 50.5903 27.496 50.9727 27.344 51.3551C26.812 52.4067 27.724 52.3111 36.388 50.5903C40.568 49.7299 45.28 49.2519 46.876 49.4431C48.7 49.6343 49.916 49.3475 50.144 48.5827C50.372 48.0091 52.044 47.1487 53.944 46.8619C57.516 46.1927 58.504 44.9499 56.148 44.1851C55.388 43.8983 56.148 43.7071 57.82 43.6115C59.492 43.5159 61.696 43.2291 62.684 42.8467C63.976 42.4643 64.356 42.5599 63.976 43.3247C63.672 43.9939 63.9 44.4719 64.584 44.4719C65.268 44.4719 65.8 44.8543 65.8 45.3323C65.8 46.5751 63.368 47.1487 61.62 46.3839C60.1 45.6191 55.92 47.6267 55.92 49.0607C55.92 49.5387 57.288 49.7299 58.884 49.5387C60.556 49.4431 62.152 49.7299 62.38 50.2079C62.684 50.7815 63.064 50.9727 63.368 50.7815C63.672 50.5903 66.636 50.7815 69.98 51.1639C75.148 51.8331 77.58 51.5463 86.7 49.2519C92.552 47.7223 99.468 46.2883 101.976 46.0015C106.536 45.3323 106.612 45.4279 106.308 47.5311C106.004 49.6343 105.548 49.7299 98.632 50.0167C91.944 50.2079 90.12 50.5903 90.956 51.5463C91.108 51.7375 93.692 51.4507 96.732 51.0683C100.076 50.4947 103.496 50.4947 105.472 51.0683C107.828 51.7375 108.816 51.7375 109.272 50.8771C109.88 49.6343 121.736 48.9651 133.82 49.4431C146.436 49.9211 164.98 49.7299 169.008 49.0607C172.58 48.4871 172.96 48.5827 172.2 49.7299C171.136 51.3551 170.984 51.3551 183.372 45.6191C188.616 43.1335 189.604 42.8467 189.984 44.0895C190.82 46.7663 190.44 49.5387 189.148 50.7815C187.932 51.9287 188.236 52.0243 191.276 52.1199C195.152 52.1199 196.14 51.4507 194.924 49.5387C193.86 48.0091 194.164 48.0091 200.7 49.7299C203.588 50.4947 206.172 50.7815 206.4 50.3035C206.932 49.2519 209.896 47.3399 210.884 47.3399C211.34 47.3399 211.72 48.2003 211.72 49.1563C211.72 50.8771 211.872 50.8771 215.596 49.5387C219.168 48.2003 219.472 48.2003 220.384 49.8255C221.296 51.2595 222.284 51.3551 228.896 50.8771C233.076 50.5903 238.32 49.4431 240.6 48.4871C242.88 47.5311 246.376 46.3839 248.276 46.0971C251.468 45.5235 251.696 45.6191 251.696 47.6267C251.62 50.8771 254.28 50.6859 260.512 47.0531C263.552 45.2367 267.58 43.2291 269.48 42.5599C272.52 41.5083 285.06 40.5523 284.376 41.3171C283.92 41.8907 266.972 48.9651 264.312 49.7299C261.044 50.5903 261.956 52.1199 265.908 52.2155C268.492 52.2155 268.796 52.4067 267.58 53.1715C265.604 54.3187 279.132 53.5539 283.92 52.2155C286.656 51.4507 285.82 51.3551 279.74 51.7375C273.508 52.1199 272.444 52.0243 273.66 51.0683C276.092 49.1563 283.16 47.3399 288.328 47.3399C293.04 47.3399 294.18 48.2959 291.748 50.2079C290.684 51.0683 291.52 51.1639 295.168 50.6859C298.892 50.2079 299.88 50.3991 299.424 51.2595C299.044 52.0243 299.424 52.2155 300.716 51.8331C307.1 49.8255 314.928 50.3035 320.324 52.8847C321.084 53.2671 320.932 52.5023 319.792 50.7815C318.196 48.1047 317.512 42.1775 318.728 41.3171C319.26 40.8391 331.724 43.0379 334.308 44.0895C336.132 44.8543 335.904 46.2883 333.7 47.5311C330.432 49.3475 331.572 49.9211 337.728 49.4431C340.92 49.2519 346.088 49.0607 349.128 49.1563C352.092 49.1563 354.6 48.8695 354.6 48.3915C354.6 46.4795 365.164 43.0379 366.38 44.5675C366.76 45.0455 368.888 45.4279 371.092 45.4279H375.12L374.664 57.5691C374.436 64.3567 373.904 71.3355 373.524 73.1519C372.992 75.7331 373.144 76.5935 373.98 77.2627C376.26 78.7923 379.452 100.876 378.084 105.369C377.172 108.237 377.324 116.363 378.54 122.386C379.756 128.6 380.06 140.741 379.072 142.749C378.692 143.418 377.856 143.705 377.02 143.322C375.88 142.749 375.728 141.793 376.032 135.866C376.184 132.137 376.184 127.548 375.88 125.732C375.652 123.916 375.272 133.093 375.044 146.286C374.816 159.383 374.892 171.238 375.196 172.576C375.728 174.775 375.728 174.679 375.88 171.62C376.032 169.421 376.184 168.943 376.412 170.186C376.64 171.238 377.172 172.576 377.552 173.245C378.692 174.966 379.3 196.094 378.236 196.858C377.78 197.241 377.476 199.726 377.476 202.499C377.552 205.271 377.704 206.705 377.932 205.749C378.692 202.116 379.528 204.506 380.364 212.919C380.896 217.795 381.504 222.001 381.732 222.288C381.96 222.575 381.96 217.604 381.732 211.294C381.504 204.984 381.58 196.858 381.96 193.226C382.644 186.438 382.188 179.172 381.2 181.18C380.516 182.614 379.68 168.37 379.984 160.913C380.06 157.949 380.668 154.794 381.2 153.934C382.416 152.022 382.568 139.976 381.808 98.0079C381.58 82.5207 381.58 70.8575 381.96 72.1959L382.568 74.5859L382.644 72.1959C382.644 70.8575 382.34 66.5555 381.884 62.6359C381.428 57.5691 381.428 52.7891 382.036 46.5751C382.492 41.6995 382.796 37.4931 382.568 37.3019C382.188 36.8239 363.872 35.6767 350.04 35.3899C344.416 35.1987 333.776 35.7723 326.48 36.5371ZM55.692 496.278C55.464 496.564 54.78 496.66 54.248 496.373C53.64 496.086 53.868 495.8 54.704 495.8C55.54 495.704 55.996 495.991 55.692 496.278Z" fill="black"/>
<path d="M241.588 36.5371C242.272 36.7283 243.336 36.7283 243.868 36.5371C244.324 36.2503 243.792 36.0591 242.5 36.0591C241.284 36.0591 240.828 36.2503 241.588 36.5371Z" fill="black"/>
<path d="M326.1 44.3764C325.872 44.8544 326.024 45.5236 326.48 45.906C326.86 46.1928 327.24 45.8104 327.24 45.0456C327.24 43.3248 326.784 43.038 326.1 44.3764Z" fill="black"/>
<path d="M180.408 49.5388L178.356 51.642L181.7 51.3552C184.74 50.9728 184.968 50.8772 184.132 49.1564C182.992 46.9576 182.916 46.9576 180.408 49.5388Z" fill="black"/>
<path d="M121.888 50.8771C122.42 51.1639 123.104 51.0683 123.332 50.7815C123.636 50.4947 123.18 50.2079 122.344 50.3035C121.508 50.3035 121.28 50.5903 121.888 50.8771Z" fill="black"/>
<path d="M242.652 51.8331C241.968 52.0243 241.512 52.6935 241.74 53.1715C242.424 54.5099 245.616 54.2231 246.68 52.5979C247.44 51.3551 247.364 51.1639 245.844 51.2595C244.856 51.3551 243.412 51.5463 242.652 51.8331Z" fill="black"/>
<path d="M372.232 80.3219C372.232 81.8515 372.384 82.4251 372.612 81.4691C372.764 80.6087 372.764 79.2703 372.612 78.6011C372.384 78.0275 372.232 78.6967 372.232 80.3219Z" fill="black"/>
<path d="M373.372 83.3812C372.612 84.2416 372.84 90.4556 373.6 92.75C374.056 94.0884 374.284 92.9412 374.284 88.6392C374.36 82.712 374.284 82.1384 373.372 83.3812Z" fill="black"/>
<path d="M376.108 97.052C376.108 99.442 376.26 100.398 376.412 99.1552C376.564 98.008 376.564 96.096 376.412 94.8532C376.26 93.706 376.108 94.662 376.108 97.052Z" fill="black"/>
<path d="M372.232 101.832C372.232 103.17 372.384 103.648 372.612 102.979C372.764 102.406 372.764 101.258 372.612 100.589C372.384 100.016 372.232 100.494 372.232 101.832Z" fill="black"/>
<path d="M372.916 122.481C372.916 123.533 373.144 123.82 373.372 123.055C373.6 122.386 373.524 121.525 373.296 121.239C373.068 120.856 372.84 121.43 372.916 122.481Z" fill="black"/>
<path d="M381.276 163.207C381.2 164.737 381.58 165.884 381.96 165.884C382.872 165.884 382.872 165.119 381.96 162.538C381.352 160.817 381.276 160.913 381.276 163.207Z" fill="black"/>
<path d="M376.032 183.092C376.032 184.908 376.184 185.673 376.412 184.717C376.564 183.857 376.564 182.327 376.412 181.371C376.184 180.511 376.032 181.276 376.032 183.092Z" fill="black"/>
<path d="M378.16 215.691C378.16 217.795 378.464 219.324 378.768 219.037C379.376 218.559 379.072 211.772 378.464 211.772C378.312 211.772 378.16 213.493 378.16 215.691Z" fill="black"/>
<path d="M375.424 239.974C375.88 254.696 376.564 256.226 379.908 250.012C381.2 247.718 381.2 247.718 381.276 253.358C381.352 258.425 381.428 258.712 381.96 255.844C382.416 253.549 382.188 251.064 381.276 247.431C379.908 242.173 378.92 241.599 378.92 246.284C378.92 247.718 378.54 249.247 378.008 249.63C377.4 250.108 377.248 248.769 377.552 244.563C377.932 239.4 376.716 229.745 375.5 228.12C375.272 227.833 375.196 233.186 375.424 239.974Z" fill="black"/>
<path d="M21.796 257.278C21.796 258.329 22.024 258.616 22.252 257.851C22.48 257.182 22.404 256.322 22.176 256.035C21.948 255.652 21.72 256.226 21.796 257.278Z" fill="black"/>
<path d="M375.272 262.44C375.272 263.778 375.424 264.256 375.652 263.587C375.804 263.014 375.804 261.866 375.652 261.197C375.424 260.624 375.272 261.102 375.272 262.44Z" fill="black"/>
<path d="M381.2 270.757L381.124 274.39L380.136 271.522C379.528 269.705 378.996 269.132 378.616 269.897C377.932 271.331 378.844 277.927 379.68 277.258C380.06 276.971 380.668 277.545 381.124 278.405C381.732 279.743 381.884 278.596 381.96 273.625C381.96 270.088 381.808 267.22 381.58 267.22C381.352 267.22 381.2 268.845 381.2 270.757Z" fill="black"/>
<path d="M21.872 274.868C21.872 276.206 22.024 276.684 22.252 276.015C22.404 275.442 22.404 274.294 22.252 273.625C22.024 273.052 21.872 273.53 21.872 274.868Z" fill="black"/>
<path d="M381.428 290.642C381.428 292.745 381.58 293.51 381.732 292.267C381.884 291.12 381.884 289.399 381.732 288.443C381.504 287.583 381.352 288.539 381.428 290.642Z" fill="black"/>
<path d="M383.632 293.988C383.556 298.385 383.708 298.959 384.392 297.143C385 295.613 385 294.083 384.392 291.885C383.708 288.825 383.632 288.921 383.632 293.988Z" fill="black"/>
<path d="M377.628 299.246C377.628 301.827 377.78 302.879 377.932 301.349C378.084 299.915 378.084 297.812 377.932 296.569C377.78 295.422 377.628 296.569 377.628 299.246Z" fill="black"/>
<path d="M381.58 320.852C381.276 321.425 381.2 321.999 381.428 322.286C381.58 322.572 381.96 322.094 382.188 321.234C382.72 319.609 382.264 319.322 381.58 320.852Z" fill="black"/>
<path d="M379.756 331.845C379.756 332.897 379.984 333.184 380.212 332.419C380.44 331.75 380.364 330.889 380.136 330.603C379.908 330.22 379.68 330.794 379.756 331.845Z" fill="black"/>
<path d="M377.096 332.706C376.868 333.566 376.64 335.191 376.716 336.339C376.792 337.868 377.02 337.486 377.476 335.191C378.236 331.941 377.932 329.933 377.096 332.706Z" fill="black"/>
<path d="M381.808 341.501C382.188 343.509 382.34 343.7 382.568 342.362C382.72 341.406 382.568 340.258 382.112 339.685C381.656 339.111 381.58 339.685 381.808 341.501Z" fill="black"/>
<path d="M376.716 341.405C376.716 342.457 376.944 342.744 377.172 341.979C377.4 341.31 377.324 340.449 377.096 340.163C376.868 339.78 376.64 340.354 376.716 341.405Z" fill="black"/>
<path d="M378.16 346.568C378.16 347.62 378.54 348.48 378.92 348.48C379.376 348.48 379.68 347.62 379.68 346.568C379.68 345.516 379.376 344.656 378.92 344.656C378.54 344.656 378.16 345.516 378.16 346.568Z" fill="black"/>
<path d="M382.72 375.439C382.72 377.447 382.872 379.072 383.024 379.072C383.708 379.072 383.936 374.292 383.404 373.145C382.948 372.38 382.72 373.24 382.72 375.439Z" fill="black"/>
<path d="M380.972 385.477C380.136 386.433 380.364 389.588 381.2 389.588C381.656 389.588 381.96 388.536 381.96 387.198C381.96 384.712 381.808 384.425 380.972 385.477Z" fill="black"/>
<path d="M376.716 414.061C376.716 415.113 376.944 415.4 377.172 414.635C377.4 413.966 377.324 413.105 377.096 412.819C376.868 412.436 376.64 413.01 376.716 414.061Z" fill="black"/>
<path d="M378.388 418.746C378.388 420.849 378.54 421.614 378.692 420.371C378.844 419.224 378.844 417.503 378.692 416.547C378.464 415.687 378.312 416.643 378.388 418.746Z" fill="black"/>
<path d="M378.768 432.225C378.616 434.615 378.768 437.101 379.072 437.675C379.376 438.344 379.68 436.336 379.68 433.277C379.68 426.776 379.148 426.107 378.768 432.225Z" fill="black"/>
<path d="M381.2 498.476C381.2 498.954 381.58 499.719 381.96 500.006C382.416 500.293 382.72 500.197 382.72 499.624C382.72 499.146 382.416 498.381 381.96 498.094C381.58 497.807 381.2 497.903 381.2 498.476Z" fill="black"/>
<path d="M372.688 506.889C373.22 507.176 373.904 507.08 374.132 506.793C374.436 506.507 373.98 506.22 373.144 506.315C372.308 506.315 372.08 506.602 372.688 506.889Z" fill="black"/>
<rect x="13" y="7" width="369" height="37" fill="black"/>
<path d="M196.818 0.0812897C196.581 0.144958 196.027 0.170426 195.632 0.132225C195.236 0.0812897 194.683 0.144958 194.445 0.246828C194.208 0.361432 193.338 0.450568 192.547 0.450568C191.756 0.450568 190.728 0.539705 190.174 0.641575C189.066 0.858049 185.428 0.908984 185.428 0.705244C185.428 0.628841 183.45 0.577906 181.077 0.577906C178.704 0.577906 176.727 0.628841 176.727 0.69251C176.727 0.921717 173.563 0.921717 171.902 0.69251C169.766 0.3869 168.896 0.3869 168.184 0.667042C167.868 0.79438 167.314 0.89625 166.839 0.89625C166.444 0.89625 164.387 1.01085 162.331 1.13819C158.771 1.3674 158.376 1.3674 154.5 1.16366C151.177 0.985386 150.307 0.972652 149.754 1.11272C149.2 1.24006 148.884 1.24006 148.093 1.11272C147.618 1.03632 146.431 0.959919 145.482 0.959919C144.533 0.959919 143.426 0.89625 142.951 0.819847C142.318 0.717977 141.923 0.717977 141.606 0.819847C141.29 0.89625 139.629 0.959919 137.81 0.959919C135.278 0.959919 134.725 0.99812 135.12 1.15092C135.357 1.26553 135.041 1.38013 134.329 1.43107C132.905 1.5202 122.464 1.01085 121.752 0.832581C120.882 0.616107 117.797 0.69251 116.769 0.959919C115.582 1.27826 112.656 1.30373 112.656 0.985386C112.656 0.870782 111.39 0.641575 109.887 0.476036C108.384 0.323231 107.119 0.246828 107.119 0.323231C107.119 0.48877 103.401 0.48877 102.768 0.323231C102.135 0.157692 99.5251 0.374166 97.3103 0.79438C95.7283 1.08726 95.4119 1.08726 91.536 0.959919C89.2421 0.883516 85.287 0.845315 82.6767 0.870782C79.9873 0.908984 77.8516 0.883516 77.8516 0.819847C77.8516 0.641575 75.004 0.679776 73.9757 0.883516C73.422 0.985386 72.3937 1.04905 71.6818 1.02359C70.9699 0.99812 69.8625 0.972652 69.3879 0.972652C68.8342 0.959919 68.3596 0.870782 68.3596 0.756179C68.3596 0.577906 67.8059 0.552438 65.1956 0.616107C63.4554 0.654309 62.0316 0.628841 62.0316 0.565172C62.0316 0.48877 61.3197 0.501503 60.3705 0.577906C59.5004 0.667042 57.9184 0.69251 56.8901 0.654309C55.5454 0.603373 54.6753 0.654309 53.8843 0.845315C53.0933 1.01085 52.5396 1.06179 52.1441 0.972652C51.9068 0.89625 51.274 0.858049 50.8785 0.908984C50.483 0.947185 49.6129 0.908984 48.9801 0.832581C47.5563 0.641575 43.0476 1.04905 39.7254 1.63481C38.1434 1.92768 37.3524 1.99135 36.5613 1.88948C35.2166 1.71121 29.3632 1.76214 28.9677 1.95315C28.8095 2.04229 28.3349 2.10596 27.8603 2.10596C26.832 2.10596 25.3291 2.37337 24.6172 2.65351C24.3008 2.78085 23.7471 2.84451 23.2725 2.80631C22.877 2.76811 21.6114 2.86998 20.5831 3.04825C19.5548 3.22653 18.4474 3.37933 18.0519 3.37933C17.6564 3.37933 16.8654 3.57034 16.2326 3.78681C15.5998 4.01602 14.7297 4.24523 14.2551 4.29616C13.7805 4.3471 13.8596 4.44897 14.4924 4.5763C15.5998 4.79278 15.1252 4.84371 12.0403 4.79278C11.2493 4.78004 10.6165 4.83098 10.6165 4.89465C10.6165 4.97105 10.1419 5.03472 9.5091 5.03472C8.8763 5.03472 8.16439 5.13659 7.92709 5.25119C7.45249 5.4422 8.24349 5.595 10.221 5.70961C11.3284 5.77328 11.0911 6.72831 9.9837 6.79198C9.2718 6.83018 9.1927 6.89385 9.7464 6.98298C11.6448 7.365 10.1419 8.21816 7.53159 8.21816C6.66149 8.21816 6.66149 8.25636 7.53159 8.4219C9.1136 8.72751 8.8763 9.24959 6.89879 9.70801C4.68399 10.2046 4.60489 10.3829 6.58239 10.3829C7.61069 10.3829 8.24349 10.4975 8.639 10.7522C8.9554 11.0068 9.6673 11.1469 10.8538 11.1724C12.2776 11.1979 12.594 11.2997 12.6731 11.6563C12.6731 11.8982 12.9104 12.2675 13.2268 12.4585C14.0969 12.9678 13.1477 13.6937 11.7239 13.6045C10.5374 13.5281 10.4583 13.6045 10.4583 14.9416C10.4583 15.3745 10.1419 15.7693 9.7464 15.8075C9.43 15.8329 9.2718 16.2532 9.5091 16.7243C10.0628 17.6666 10.0628 18.5834 9.6673 19.7167C9.5091 20.1242 9.6673 20.4935 9.9837 20.519C11.2493 20.6463 13.0686 21.4485 13.2268 21.9833C13.385 22.289 13.8596 22.6582 14.3342 22.7856C15.2834 23.0657 14.8088 23.3968 12.1985 24.3264C10.6165 24.8866 9.9046 25.6252 10.6956 25.9817C11.0911 26.1982 9.7464 26.9877 8.4808 27.2042C7.84799 27.3315 7.13609 27.739 6.89879 28.1337C6.50329 28.7704 6.58239 28.8468 7.92709 28.8468C9.9046 28.8468 11.9612 29.3435 10.5374 29.4835C9.8255 29.5599 9.9046 29.7 10.9329 30.1202C11.9612 30.5404 12.0403 30.6932 11.3284 30.8333C10.7747 30.9352 10.6165 31.0498 10.8538 31.1007C11.1702 31.1389 10.9329 31.2917 10.5374 31.4318C9.9046 31.6101 9.9046 31.7119 10.6165 31.7756C12.0403 31.9157 10.9329 32.5524 9.43 32.4632C8.4808 32.3996 8.32259 32.4887 8.7181 32.9726C9.1136 33.3673 8.9554 33.5583 8.32259 33.5583C7.84799 33.5583 7.45249 33.622 7.45249 33.6857C7.45249 33.7621 6.18689 34.004 4.68399 34.2332C2.23188 34.5898 1.91548 34.7171 1.91548 35.2519C1.91548 35.583 1.36178 35.9905 0.72898 36.156C-0.457522 36.4489 -0.141122 36.8691 1.28268 36.8691C1.67818 36.8691 1.75728 36.92 1.51998 36.9964C1.28268 37.0601 1.75728 37.1238 2.54828 37.1238C4.44669 37.1238 5.55409 37.5058 4.13029 37.6586C3.33928 37.735 3.41838 37.7605 4.28849 37.7605C5.00039 37.7605 6.42419 37.926 7.45249 38.1425C8.5599 38.3462 9.9046 38.5118 10.3792 38.5245C11.4075 38.5245 11.803 38.7282 12.594 39.6705C13.1477 40.3581 14.2551 40.702 15.2043 40.4728C15.8371 40.3072 20.9786 40.3454 25.0918 40.5492C26.5156 40.6128 29.0468 40.6638 30.787 40.6383C33.7137 40.6256 40.8328 40.9694 42.6521 41.224C43.1267 41.2877 43.4431 41.4023 43.4431 41.4915C43.4431 41.6825 49.3756 41.7207 49.4547 41.5297C49.5338 41.4532 49.5338 41.2877 49.4547 41.1731C49.2174 40.9057 51.5904 40.8675 52.2232 41.1222C52.5396 41.2622 53.1724 41.2622 55.8618 41.1094C57.6811 41.0076 59.975 40.9566 61.0033 41.0076C62.0316 41.0458 62.8226 41.0203 62.8226 40.9566C62.8226 40.7147 65.1165 40.9694 65.3538 41.224C65.512 41.3768 66.303 41.5551 67.1731 41.6315C68.0432 41.7079 68.9924 41.8225 69.2297 41.8862C69.5461 41.9499 70.4162 41.9626 71.2072 41.9117C71.9982 41.8607 72.8683 41.8989 73.2638 41.9881C73.7384 42.1154 74.2921 42.0772 75.3995 41.848C76.4278 41.6188 77.2979 41.5679 78.6426 41.6188C79.8291 41.6697 80.7783 41.6315 81.332 41.5042C82.123 41.3514 82.5976 41.3514 85.2079 41.5679C88.1347 41.8098 88.2929 41.8098 89.7167 41.5806C91.2987 41.3259 95.2537 41.3768 95.2537 41.657C95.2537 41.7589 96.0447 41.8353 97.2312 41.8353C98.4968 41.8353 99.2087 41.9117 99.2087 42.0263C99.2087 42.2809 100.158 42.2682 103.955 41.9499C106.486 41.7334 107.593 41.7079 108.938 41.8098C109.887 41.8735 111.469 41.9371 112.418 41.9371C113.842 41.9499 114.159 41.8607 114.396 41.4787L114.633 41.0076L117.481 41.5042C120.249 41.9753 120.487 41.9881 122.148 41.7971C123.097 41.6952 124.283 41.6188 124.837 41.6443C128.792 41.8353 129.9 41.8225 130.295 41.5806C130.691 41.3132 132.431 41.224 132.431 41.466C132.431 41.5679 132.747 41.5679 133.617 41.4532C134.487 41.3386 135.199 41.3641 137.256 41.5933C139.233 41.8225 140.024 41.848 141.211 41.7334C142.002 41.657 142.793 41.6315 143.03 41.6952C143.267 41.7461 144.612 41.8098 146.036 41.8225C153.392 41.9117 153.392 41.9117 153.63 41.6061C153.788 41.4532 154.341 41.3259 154.974 41.3259C155.528 41.3259 156.161 41.2622 156.319 41.1731C156.714 40.9821 164.071 41.2877 164.071 41.5042C164.071 41.7334 167.235 42.0008 168.342 41.848C169.766 41.657 175.936 41.4532 175.936 41.6061C175.936 41.6825 176.569 41.6952 177.36 41.6443C179.1 41.5297 181.315 41.4532 184.083 41.3768C185.507 41.3514 186.219 41.3896 186.219 41.5169C186.219 41.6061 186.931 41.7334 187.801 41.7716C188.671 41.8098 189.383 41.9117 189.383 41.9881C189.383 42.0645 190.095 42.0899 190.965 42.0517C192.151 42.0008 192.863 42.0899 193.812 42.421C195.157 42.8667 196.344 42.9558 197.847 42.7139C198.242 42.6502 200.694 42.5738 203.146 42.5611C207.655 42.5356 207.655 42.5356 207.339 42.1791C206.943 41.7461 208.13 41.6061 209.474 41.9117C211.373 42.3319 227.43 41.9244 228.775 41.415C229.328 41.2368 230.752 41.3259 232.651 41.657C234.074 41.9117 234.786 41.9626 235.498 41.848C236.527 41.6825 239.216 41.657 239.216 41.8098C239.216 41.9499 246.019 42.2045 246.968 42.1027C247.363 42.0645 247.838 41.9117 247.996 41.7716C248.392 41.4532 251.556 41.415 251.239 41.7334C251.16 41.848 251.714 41.9753 252.663 42.0263C253.533 42.0645 254.245 42.1663 254.245 42.23C254.245 42.421 257.093 42.3573 258.2 42.1536C259.624 41.8735 260.968 41.9117 264.686 42.3446C266.505 42.5611 268.404 42.7139 268.958 42.6757C269.511 42.6375 270.54 42.7266 271.331 42.8667C272.992 43.1723 273.941 43.1723 275.286 42.8794C276.156 42.7012 276.551 42.6884 277.738 42.8285C278.529 42.9176 280.111 43.045 281.218 43.1214C282.405 43.1978 283.512 43.3506 283.749 43.4779C284.303 43.8217 289.049 43.9109 290.631 43.618C291.264 43.5034 292.45 43.3633 293.162 43.3251C293.953 43.2742 294.349 43.1723 294.111 43.0577C293.083 42.6248 301.072 42.4337 307.005 42.7394C308.429 42.8158 310.011 42.8285 310.564 42.7776C312.463 42.5866 314.677 42.6375 316.655 42.9431C319.107 43.2996 319.898 43.3124 320.452 42.9813C320.926 42.7012 321.085 42.7012 323.458 42.8412C324.328 42.9049 325.672 42.8922 326.543 42.8285C327.65 42.7266 328.52 42.7648 330.26 42.9686C331.447 43.1214 332.871 43.236 333.266 43.236C334.848 43.236 338.091 43.5416 338.091 43.6817C338.091 43.7835 338.882 43.809 340.069 43.7708C341.255 43.7453 342.046 43.7708 342.046 43.8599C342.046 43.9363 342.916 44 344.024 44C345.131 44 346.001 43.9363 346.001 43.8599C346.001 43.7708 346.792 43.7453 348.058 43.7963C349.798 43.8727 350.035 43.8472 349.64 43.6689C349.244 43.5034 349.561 43.4779 351.301 43.5289C353.832 43.6053 361.03 43.2614 361.03 43.0577C361.03 42.8412 364.669 42.2173 365.855 42.2173C366.646 42.2173 367.437 41.9244 368.149 41.3514C369.257 40.5619 369.494 40.4982 371.55 40.46C372.737 40.4345 373.528 40.3709 373.291 40.3072C373.053 40.2435 373.686 40.0907 374.794 39.9634C375.822 39.8361 376.85 39.5941 377.167 39.4413C377.72 39.1866 378.037 39.1484 379.619 39.1612C380.647 39.1739 382.625 38.741 382.704 38.4863C382.783 38.308 383.257 38.2061 384.207 38.2189C384.918 38.2316 385.551 38.2061 385.551 38.1552C385.551 38.117 385.868 37.7477 386.342 37.3402C387.054 36.6399 386.975 36.5762 384.839 36.1051C383.336 35.7613 382.466 35.3792 382.071 34.8699C381.754 34.4752 380.963 34.0422 380.252 33.9149C378.432 33.5965 378.353 32.4378 380.172 32.234C381.28 32.1067 381.438 31.8647 381.201 30.5914C380.963 29.4963 381.201 29.0633 381.913 28.936C382.545 28.8468 382.783 28.6049 382.545 28.363C382.387 28.1083 382.545 27.9555 383.099 27.9555C384.207 27.9555 384.207 27.4843 383.099 27.3825C382.625 27.3315 382.466 27.0514 382.704 26.7203C383.02 26.1473 382.071 25.7907 380.093 25.7907C378.907 25.7907 378.986 25.3451 380.252 25.1795C380.726 25.1158 382.071 25.0267 383.178 25.0012C384.523 24.9758 385.156 24.8866 385.156 24.6956C385.156 24.5556 385.789 24.3391 386.58 24.199C387.529 24.0462 387.766 23.9316 387.212 23.8425C386.659 23.7533 386.738 23.5878 387.371 23.3204C388.636 22.811 388.241 22.3781 386.263 22.1871C384.523 22.0088 384.286 21.8433 385.868 21.8433C386.975 21.8433 386.975 21.8051 385.868 20.4171C385.472 19.9205 385.63 19.7677 387.054 19.4748C388.003 19.2711 388.478 19.08 388.082 18.9909C387.054 18.7744 387.054 18.2524 388.082 18.0613C388.557 17.9595 388.715 17.8576 388.478 17.8067C388.162 17.7685 388.32 17.6284 388.715 17.5138C389.269 17.3483 389.19 17.2591 388.399 17.2209C386.659 17.1063 386.342 16.5078 387.924 16.3678C389.823 16.2022 391.8 14.8015 390.297 14.6487C389.823 14.6105 389.506 14.4322 389.506 14.254C389.506 14.0629 389.032 13.9483 388.32 13.9483C387.687 13.9483 387.133 13.8719 387.133 13.7701C387.133 13.6682 386.105 13.5536 384.76 13.5027C383.099 13.439 382.387 13.3371 382.387 13.1716C382.387 13.0315 382.704 12.9551 383.178 12.9933C383.574 13.0315 384.127 12.9169 384.444 12.7259C384.76 12.5222 384.602 12.3566 384.048 12.3057C383.336 12.2293 383.416 12.1147 384.365 11.8345C384.998 11.6308 385.551 11.3252 385.551 11.1469C385.551 10.9686 386.105 10.7267 386.659 10.5994C387.45 10.4338 387.687 10.09 387.45 9.35146C387.291 8.79118 387.45 8.34549 387.845 8.34549C388.241 8.34549 388.399 8.11629 388.162 7.83614C387.845 7.4414 388.003 7.31406 389.032 7.25039C389.664 7.21219 391.009 6.93205 391.958 6.62644C393.382 6.18076 393.461 6.04069 392.67 5.79874C391.879 5.5568 391.958 5.49313 393.382 5.3276C395.281 5.11112 395.597 4.67817 393.857 4.5763C392.908 4.51264 392.749 4.3853 393.145 4.06695C393.461 3.78681 393.303 3.63401 392.749 3.63401C392.275 3.63401 391.167 3.5194 390.297 3.37933C388.794 3.13739 388.557 3.13739 386.896 3.31566C385.947 3.41753 384.918 3.50667 384.602 3.50667C383.416 3.50667 383.969 3.17559 385.551 2.95912C388.715 2.52617 386.659 1.482 383.02 1.66027C382.229 1.71121 380.963 1.67301 380.331 1.58387C379.698 1.50747 377.958 1.41833 376.376 1.39287C373.449 1.35466 369.336 0.807114 369.336 0.463302C369.336 0.348698 367.991 0.272296 365.222 0.234095C361.505 0.18316 361.03 0.208627 361.03 0.437835C361.03 0.768912 357.075 0.921717 354.544 0.667042C353.357 0.552438 350.905 0.48877 347.583 0.514237C344.736 0.526971 341.888 0.48877 341.176 0.437835C340.464 0.374166 338.17 0.297763 336.035 0.246828C333.899 0.208627 331.842 0.144958 331.447 0.106757C331.13 0.0685559 330.498 0.106757 330.181 0.195893C329.865 0.28503 328.757 0.374166 327.729 0.399633C323.458 0.501503 321.085 0.628841 320.531 0.756179C320.056 0.858049 319.898 0.858049 319.898 0.756179C319.898 0.514237 316.813 0.450568 316.022 0.667042C315.468 0.832581 315.152 0.832581 312.937 0.654309C311.276 0.514237 310.327 0.48877 309.931 0.59064C309.694 0.667042 308.349 0.705244 307.084 0.679776C305.818 0.641575 304.632 0.654309 304.474 0.705244C304.236 0.756179 302.575 0.743445 300.756 0.679776C294.823 0.476036 288.258 0.425101 288.258 0.577906C288.258 0.679776 287.388 0.69251 285.806 0.641575C283.987 0.577906 283.117 0.603373 282.405 0.768912C281.614 0.947185 281.06 0.959919 279.794 0.858049C278.924 0.781646 277.975 0.743445 277.738 0.79438C277.421 0.832581 276.709 0.79438 276.077 0.717977C275.444 0.628841 274.574 0.59064 274.178 0.628841C273.704 0.667042 272.992 0.616107 272.438 0.514237C271.331 0.297763 269.274 0.259562 269.274 0.450568C269.274 0.628841 266.347 0.603373 265.873 0.412367C265.556 0.310497 264.686 0.399633 263.183 0.667042C260.652 1.09999 256.776 1.25279 254.878 0.985386C254.166 0.89625 253.058 0.870782 252.347 0.908984C251.556 0.959919 250.369 0.89625 249.42 0.756179C247.759 0.514237 243.962 0.361432 243.962 0.552438C243.962 0.603373 242.696 0.730711 241.193 0.819847C238.662 0.959919 238.267 0.947185 236.289 0.654309C233.995 0.310497 232.888 0.246828 232.888 0.450568C232.888 0.514237 232.413 0.577906 231.86 0.577906C231.306 0.577906 229.645 0.679776 228.142 0.819847C226.402 0.959919 224.345 1.03632 222.605 0.99812C218.333 0.921717 213.113 0.679776 213.113 0.577906C213.113 0.437835 209.949 0.577906 207.971 0.79438C205.677 1.04905 204.491 0.99812 204.649 0.654309C204.728 0.476036 204.491 0.335965 204.095 0.335965C203.7 0.348698 203.146 0.272296 202.83 0.195893C202.118 0.00488716 197.451 -0.0715154 196.818 0.0812897Z" fill="black"/>
</svg>
