<svg width="90" height="31" viewBox="0 0 90 31" fill="none" xmlns="http://www.w3.org/2000/svg">
<path d="M28.5804 0.300306C28.3634 0.601751 28.0378 0.621847 25.6142 0.461077C21.7255 0.219921 16.4261 0.300306 13.4961 0.662041C10.9097 0.983582 8.68505 1.24483 5.59223 1.58647C3.69313 1.80753 2.31854 2.26974 1.48655 3.01331C1.19716 3.27456 0.744997 3.65639 0.491783 3.85735C-0.394464 4.54063 -0.105077 5.12342 1.54081 6.00766C2.55366 6.55026 2.6441 6.8919 2.17384 8.15796C1.9568 8.74076 1.97489 8.86134 2.30045 9.36374C2.51749 9.68529 2.86114 9.94654 3.07818 9.98673C3.27713 10.0269 3.458 10.1877 3.458 10.3485C3.458 10.5092 3.65695 10.7303 3.89208 10.8308C4.25381 10.9714 4.72407 11.7753 4.50703 11.8959C4.48894 11.916 4.21764 12.0767 3.91017 12.2375C3.62078 12.4184 3.29522 12.7399 3.1867 12.9811C3.07818 13.2021 2.87922 13.5438 2.75262 13.7045C2.31854 14.2873 2.58984 15.0912 3.34948 15.5333C4.90493 16.4577 5.26667 18.1458 4.23573 19.6129C3.91017 20.055 3.63887 20.5775 3.63887 20.7584C3.63887 21.1201 4.23573 21.6024 4.94111 21.7833C5.46562 21.9239 5.64649 22.2857 5.19432 22.2857C4.79641 22.2857 4.65172 22.6675 4.90493 22.989C5.21241 23.4111 4.83259 23.8934 4.19955 23.8934C3.56652 23.8934 3.00583 24.3556 3.13244 24.7374C3.20479 24.9384 3.60269 25.0791 4.2719 25.1594C5.32093 25.28 5.80927 25.5413 5.80927 26.0236C5.80927 26.2045 6.00822 26.3049 6.35187 26.3049C6.78595 26.3049 6.89447 26.3853 6.89447 26.7471C6.89447 27.7921 8.35949 29.4601 9.44469 29.6409C9.9692 29.7414 10.2405 29.9022 10.3671 30.2438C10.6384 30.8869 10.8012 30.8467 11.0363 30.1232C11.2353 29.4601 11.5066 29.3797 12.2481 29.8017C12.5194 29.9625 12.8269 30.0429 12.9354 29.9625C13.0439 29.8821 14.0387 29.8218 15.1239 29.8017C16.5166 29.7816 17.3305 29.6811 17.8188 29.44C18.1986 29.2591 18.8317 29.1184 19.2115 29.1184C19.935 29.1184 20.1158 28.817 19.7179 28.3749C19.5551 28.194 19.6094 28.1136 19.9711 28.0131C20.6584 27.8122 21.0925 27.9729 21.1468 28.4552C21.2191 29.0179 22.0149 29.1184 24.2577 28.8773C25.4152 28.7567 26.4643 28.7567 27.5495 28.9175C28.6527 29.0782 29.6113 29.0983 30.6423 28.9576C31.4562 28.8572 33.6989 28.7768 35.6161 28.7969C38.2206 28.817 39.1611 28.7567 39.3058 28.5557C39.4505 28.3749 39.3962 28.3146 39.1068 28.3146C38.6728 28.3146 38.5823 27.7519 38.9802 27.5911C39.1249 27.5308 39.1973 27.3499 39.1611 27.2093C39.0164 26.8073 39.4324 26.6265 40.7166 26.5863C41.3677 26.5461 42.1816 26.4054 42.5252 26.2446C42.905 26.0839 43.6104 26.0035 44.3339 26.0437C44.985 26.0638 45.9255 26.104 46.45 26.0839C46.9745 26.0839 47.5714 26.2045 47.8065 26.3652C48.1502 26.6064 48.4396 26.6265 49.3258 26.4456C49.9227 26.3451 50.6461 26.3049 50.9536 26.4054L51.4781 26.5461L50.7547 26.7872C50.1759 26.9681 50.0131 27.1289 49.9769 27.5308C49.9408 27.9327 50.0131 28.0935 50.3025 28.1739C50.5195 28.2342 50.6642 28.3749 50.61 28.4552C50.4291 28.7969 50.7727 29.0983 51.1707 28.9777C51.5505 28.8773 51.5686 28.8371 51.2792 28.4954C51.0079 28.1538 51.0079 28.1337 51.4781 27.993C51.876 27.8925 52.0388 27.9528 52.3825 28.4351C52.7985 29.0179 52.8165 29.0179 54.8603 29.0581C55.9817 29.0581 57.0307 29.1184 57.1754 29.1586C57.3201 29.1988 57.501 28.9777 57.6276 28.5959L57.8085 27.9729L58.134 28.4552C58.3149 28.7165 58.55 28.8773 58.6405 28.7969C58.749 28.7366 59.1107 28.8371 59.4544 29.0179C60.2683 29.44 61.0098 29.3395 61.2449 28.7567C61.462 28.194 62.1674 28.1538 62.3301 28.7165C62.4748 29.1988 62.3482 29.1586 64.0484 29.2189C64.7899 29.239 65.5134 29.1787 65.6219 29.0581C65.9113 28.8371 67.0688 29.0581 67.5572 29.44C68.0274 29.8017 68.7147 29.8017 69.5105 29.44C70.2702 29.0782 70.7947 29.1988 71.7171 29.9424C72.0969 30.2639 72.4949 30.4649 72.5853 30.4046C72.6576 30.3443 72.73 29.862 72.73 29.2993V28.3146H73.4173C73.779 28.3146 74.5748 28.2342 75.1717 28.1337C77.1431 27.7921 78.6081 27.7117 79.2231 27.8925C79.6753 28.0533 79.9827 28.0332 80.4892 27.772C81.1403 27.4504 83.3107 27.149 85.6981 27.0284C87.0365 26.9681 87.7419 26.6064 87.7419 25.9633C87.7419 25.7824 88.0132 25.702 88.6101 25.682C89.0803 25.682 89.6229 25.6016 89.8038 25.5212C90.1113 25.4006 90.0751 25.3403 89.5687 25.1193C89.2612 24.9585 88.7729 24.8982 88.4835 24.9585C88.0313 25.059 87.959 25.0188 87.8685 24.5767C87.8143 24.1747 87.8866 24.0341 88.1941 23.8934C88.4292 23.7929 88.6643 23.6321 88.7186 23.5115C88.8633 23.2503 88.1941 22.4866 87.8504 22.4866C87.7057 22.4866 87.5249 22.3862 87.4525 22.2656C87.3802 22.1249 87.4525 22.0847 87.7057 22.1651C88.0313 22.2857 88.1398 22.1852 88.3749 21.5622C88.7005 20.6579 88.7005 20.678 88.3749 20.678C88.2303 20.678 87.959 20.8789 87.76 21.1C87.5611 21.3411 87.2897 21.4818 87.1631 21.4014C86.2407 20.8789 85.5715 20.3162 85.5715 20.0751C85.5715 19.9746 86.1141 19.854 86.8014 19.7736C88.6282 19.5928 89.1889 19.4722 89.1889 19.2712C89.1889 19.1506 89.0442 19.0703 88.8452 19.0703C88.6643 19.0703 88.2664 18.9698 87.9409 18.8492C87.4887 18.6683 87.3802 18.5277 87.3802 18.0454C87.3802 17.5831 87.3078 17.4626 86.9823 17.4626C86.5663 17.4425 86.5663 17.4425 86.928 17.141C87.1812 16.92 87.2174 16.7793 87.0727 16.719C86.6025 16.518 86.8738 16.1161 87.5972 15.9352C88.0132 15.8348 88.393 15.6338 88.4292 15.473C88.5016 15.252 88.2845 15.2118 87.2897 15.2922C86.2588 15.3926 86.0237 15.3524 85.7343 15.0309C85.5534 14.8299 85.2821 14.6491 85.1555 14.6491C85.0289 14.6491 84.83 14.4682 84.7034 14.2471C84.5044 13.8854 84.5406 13.8251 84.9385 13.6443C85.2098 13.5237 85.4992 13.4433 85.6077 13.4433C85.7886 13.4433 85.7524 13.1017 85.4992 12.4184C85.4087 12.1772 85.5896 12.0366 86.2407 11.7954L87.1089 11.4739L86.4035 11.4538C85.8428 11.4337 85.7343 11.3734 85.8247 11.1121C85.9152 10.8509 85.8428 10.8107 85.463 10.8911C85.1917 10.9514 84.7395 10.8911 84.4501 10.7906C84.0522 10.6298 83.8352 10.67 83.4735 10.9313C83.166 11.1523 82.9489 11.1925 82.8766 11.0719C82.8223 10.9514 82.4425 10.8308 82.0446 10.7906C81.4839 10.7303 81.3935 10.6901 81.6829 10.5695C81.8818 10.469 82.2797 10.2681 82.551 10.1073C82.8404 9.96663 83.1841 9.82596 83.3288 9.82596C83.7809 9.82596 83.6001 8.86134 83.0394 8.13787C82.3159 7.23353 81.502 7.05267 80.4168 7.59527C79.838 7.87662 79.4763 7.957 79.1869 7.83642C78.9518 7.73594 77.9389 7.65556 76.9261 7.63546C74.9546 7.63546 74.7195 7.57517 74.7195 7.09286C74.7195 6.91199 74.9004 6.81151 75.244 6.81151C75.5153 6.81151 76.0218 6.71103 76.3473 6.57036C76.8356 6.38949 76.9803 6.40959 77.1431 6.65074C77.6496 7.3943 78.4092 7.49479 79.0603 6.91199C79.3859 6.61055 81.2307 6.38949 81.2307 6.65074C81.2307 7.15315 81.8457 6.61055 82.0446 5.92727C82.2617 5.2239 82.2617 5.10332 81.9904 4.88227C81.8276 4.76169 81.5924 4.6813 81.4658 4.74159C81.3392 4.80188 81.2307 4.74159 81.2307 4.62101C81.2307 4.50044 80.9594 4.39995 80.6158 4.39995C80.2902 4.39995 79.7476 4.29947 79.422 4.17889L78.8252 3.93774L79.3135 3.65639C79.838 3.35495 79.9285 2.89273 79.4944 2.71186C79.2774 2.61138 79.2231 2.39032 79.2774 1.88791C79.3316 1.34531 79.2774 1.18454 79.0603 1.16445C78.9156 1.16445 78.1922 1.14435 77.4868 1.10416C76.4016 1.06397 76.0398 1.12426 75.4791 1.48599C74.828 1.88791 74.7557 1.88791 74.2131 1.60657C73.9056 1.4257 73.6343 1.18454 73.6343 1.06397C73.6343 0.762522 73.1641 0.561558 72.8204 0.702232C72.6034 0.802715 72.5853 0.903196 72.73 1.10416C72.8928 1.30512 72.8023 1.38551 72.2416 1.48599C71.8618 1.54628 71.3373 1.66686 71.066 1.76734C70.6681 1.90801 70.5596 1.88791 70.5596 1.64676C70.5596 1.4056 70.4149 1.36541 69.9085 1.4458C69.4382 1.52618 69.2392 1.48599 69.1669 1.26493C69.0765 1.00368 68.7147 0.963486 66.9603 1.00368C65.6762 1.02377 64.6633 0.963486 64.3558 0.822811C63.3792 0.360596 62.6738 0.521366 62.1493 1.28503L61.6609 1.9683L60.9555 1.58647C60.1778 1.14435 59.3458 1.06397 59.0203 1.4257C58.8756 1.58647 58.749 1.58647 58.5319 1.38551C58.333 1.20464 57.917 1.16445 57.1212 1.24483C56.3073 1.32522 55.9094 1.28503 55.6562 1.06397C55.204 0.702232 51.2068 0.662041 50.8994 1.00368C50.7366 1.18454 50.61 1.16445 50.411 0.943388C50.0855 0.561558 46.9926 0.380692 41.6209 0.380692C39.5771 0.380692 36.2491 0.300306 34.2054 0.199825C29.1411 -0.0815239 28.8698 -0.0815239 28.5804 0.300306ZM77.9751 3.73678C77.9751 3.93774 77.6134 4.54063 77.6134 4.35976C77.6134 4.29947 77.5591 4.09851 77.5049 3.91764C77.4325 3.69658 77.4868 3.5961 77.6857 3.5961C77.8485 3.5961 77.9751 3.65639 77.9751 3.73678ZM46.866 6.51007C46.866 6.55026 46.7394 6.61055 46.5947 6.69093C46.4319 6.75122 46.3234 6.69093 46.3234 6.51007C46.3234 6.3292 46.4319 6.26891 46.5947 6.3292C46.7394 6.40959 46.866 6.46988 46.866 6.51007ZM48.313 6.63065C48.313 6.95219 48.2406 7.01248 48.0055 6.91199C47.8246 6.83161 47.5352 6.71103 47.3544 6.65074C46.9203 6.53016 47.3001 6.20862 47.9151 6.20862C48.2044 6.20862 48.313 6.3292 48.313 6.63065ZM62.1493 6.79142L63.5962 6.91199L61.7875 7.07276C60.7747 7.17325 59.8523 7.31392 59.7076 7.4144C59.5448 7.53498 59.382 7.47469 59.2554 7.27373C59.0745 7.01248 58.9479 6.99238 58.4596 7.17325C57.9351 7.37421 57.8808 7.35411 57.9351 7.05267C57.9712 6.79142 58.2425 6.69093 59.0745 6.59045C59.6714 6.53016 60.2863 6.53016 60.431 6.57036C60.5757 6.63065 61.3535 6.73113 62.1493 6.79142ZM72.8023 6.61055C73.58 6.93209 73.3268 7.11296 72.0608 7.15315C71.3735 7.15315 70.6319 7.21344 70.3968 7.25363C70.1617 7.27373 69.9265 7.19334 69.8904 7.05267C69.8361 6.8718 70.0893 6.81151 70.8128 6.81151C71.3554 6.81151 71.8618 6.71103 71.9161 6.61055C72.0608 6.3493 72.2235 6.3493 72.8023 6.61055ZM80.4168 10.4288C80.4892 10.5494 80.3264 10.6298 80.0551 10.6298C79.7838 10.6298 79.621 10.5494 79.6933 10.4288C79.7476 10.3083 79.9104 10.2279 80.0551 10.2279C80.1998 10.2279 80.3625 10.3083 80.4168 10.4288Z" fill="#3A58A6"/>
<path d="M84.8113 6.64904C84.5038 6.76962 84.3048 6.99068 84.3048 7.21174C84.3048 7.4127 84.1421 7.61366 83.925 7.67395C83.4367 7.81463 83.6537 8.21655 84.2325 8.21655C84.5581 8.21655 84.6666 8.11607 84.6304 7.85482C84.5761 7.47299 84.6666 7.47299 85.5347 7.85482C86.005 8.05578 86.1859 8.05578 86.4753 7.85482C86.6742 7.73424 87.1264 7.61366 87.47 7.61366C87.9222 7.61366 88.1031 7.53328 88.1031 7.29212C88.1031 7.13135 88.0488 7.03087 87.9584 7.09116C87.886 7.13135 87.5062 7.01077 87.1083 6.80981C86.3125 6.38779 85.5709 6.3275 84.8113 6.64904Z" fill="#3A58A6"/>
<path d="M84.9019 8.56464C84.3774 8.7857 84.7211 8.96657 85.6616 8.94647C86.3308 8.92637 86.6563 8.84599 86.6563 8.66512C86.6563 8.42397 85.3722 8.34358 84.9019 8.56464Z" fill="#3A58A6"/>
<path d="M86.0057 12.9411C85.9334 13.1219 85.9515 13.3229 86.0057 13.4033C86.1685 13.564 86.7654 13.1621 86.7111 12.921C86.6388 12.5994 86.1142 12.5994 86.0057 12.9411Z" fill="#3A58A6"/>
<path d="M3.27728 17.7651C3.27728 17.9259 3.36772 18.0665 3.45815 18.0665C3.56667 18.0665 3.63902 17.9259 3.63902 17.7651C3.63902 17.6043 3.56667 17.4636 3.45815 17.4636C3.36772 17.4636 3.27728 17.6043 3.27728 17.7651Z" fill="#3A58A6"/>
<path d="M42.3988 27.0473C42.019 27.1277 41.802 27.6703 42.1275 27.7306C42.851 27.8713 44.6958 27.811 44.6416 27.6502C44.6054 27.5095 42.7967 26.8062 42.7967 26.9468C42.7967 26.9468 42.6159 27.0071 42.3988 27.0473Z" fill="#3A58A6"/>
<path d="M40.8977 28.5161C40.6806 28.6768 40.7349 28.717 41.1328 28.717C41.4222 28.717 41.603 28.6367 41.5307 28.5161C41.386 28.2749 41.2413 28.2749 40.8977 28.5161Z" fill="#3A58A6"/>
</svg>
