<svg width="26" height="25" viewBox="0 0 26 25" fill="none" xmlns="http://www.w3.org/2000/svg">
<path d="M11.2612 1.19706C11.2952 1.30331 11.2751 1.34051 11.1713 1.35878L11.0814 1.37346L11.1345 1.40921C11.1703 1.43502 11.1815 1.4512 11.1716 1.46116C11.1566 1.47611 10.9705 1.56646 10.8612 1.61414C10.8327 1.62552 10.816 1.66614 10.8062 1.74099L10.7889 1.85069L10.4913 2.15849C10.3279 2.32881 10.1915 2.47888 10.1913 2.49615C10.1882 2.51296 10.1285 2.58286 10.0529 2.65168C9.98017 2.72096 9.87788 2.84037 9.82462 2.91415C9.7508 3.02218 9.70347 3.06951 9.60541 3.13336C9.51279 3.19519 9.45923 3.24875 9.38822 3.34713C9.33746 3.41842 9.23577 3.55089 9.16212 3.64165C9.08972 3.73116 9.00936 3.85258 8.9849 3.90783C8.94781 3.99281 8.92835 4.01569 8.88057 4.03268C8.79964 4.05887 8.59709 4.26484 8.4655 4.45459C8.3269 4.65478 7.83836 5.12279 7.60144 5.28444C7.46213 5.37928 7.41184 5.42615 7.3251 5.54367C7.15864 5.7683 6.4837 6.48087 5.34311 7.64199L4.82466 8.16728L4.76414 8.14911L4.70191 8.12923L4.69206 8.20408C4.683 8.27473 4.66354 8.29761 4.46349 8.47371C4.34501 8.58192 4.20258 8.69357 4.14701 8.72519C4.06093 8.77363 4.02902 8.80897 3.92966 8.95622C3.84603 9.08433 3.79465 9.14255 3.74531 9.16795C3.63869 9.22325 3.18218 9.72081 3.13949 9.82508C3.08588 9.9608 2.69248 10.3097 2.57017 10.3294C2.48193 10.3458 2.41064 10.3966 2.37387 10.4744C2.35549 10.5133 2.34709 10.5148 2.29514 10.4778C2.26574 10.4559 2.2043 10.4318 2.16166 10.4266L2.0806 10.4153L2.04146 10.5605C2.0095 10.678 1.9919 10.7127 1.94053 10.7435C1.90504 10.7653 1.85803 10.8055 1.83187 10.8316C1.80618 10.8607 1.75902 10.8908 1.72633 10.903C1.67855 10.9199 1.6566 10.9453 1.61236 11.0306C1.58245 11.0879 1.53105 11.1735 1.49804 11.2202C1.44478 11.294 1.42766 11.3043 1.3732 11.2971C1.33773 11.2916 1.2912 11.3073 1.25959 11.3355C1.21507 11.3732 1.20743 11.3979 1.21579 11.4785C1.23127 11.6136 1.19949 11.6864 1.0874 11.7711C0.91695 11.8971 0.922713 11.8879 0.965462 11.9581C1.02935 12.0618 1.02841 12.0833 0.956648 12.1311C0.917887 12.1596 0.878961 12.2054 0.862753 12.2489C0.836416 12.3197 0.83517 12.321 0.733417 12.3064C0.678961 12.2993 0.612066 12.2772 0.584847 12.26L0.536319 12.2264L0.559455 12.3093C0.57902 12.3787 0.572627 12.4022 0.531525 12.4433C0.485441 12.4894 0.485126 12.4965 0.526811 12.5233C0.677375 12.619 0.728377 12.6775 0.824738 12.8685C0.916747 13.0502 0.927476 13.0635 1.18608 13.342C1.33551 13.5039 1.49241 13.6857 1.54324 13.7614C1.62891 13.8845 1.64135 13.8994 1.70964 13.9303C1.76859 13.9569 1.78523 13.971 1.80015 14.0109C1.81506 14.0507 1.8317 14.0648 1.87962 14.0853C1.92628 14.1071 1.95148 14.1298 1.98816 14.1889C2.02827 14.2514 2.05347 14.2741 2.14477 14.3231C2.34232 14.4335 2.40139 14.5249 2.44325 14.791C2.4586 14.8885 2.49291 15.015 2.51731 15.0693L2.56346 15.1702L2.68588 15.2428C2.75385 15.2809 2.93101 15.4083 3.07845 15.5208C3.24595 15.651 3.36976 15.7324 3.40446 15.7422C3.43744 15.7503 3.53592 15.7715 3.62507 15.7884C3.71422 15.8054 3.81067 15.8321 3.83789 15.8493C3.86932 15.8658 3.96137 15.9653 4.07504 16.1014C4.22213 16.2759 4.29273 16.349 4.40362 16.44C4.5324 16.5438 4.54655 16.5605 4.56814 16.6244C4.58677 16.6879 4.59532 16.6964 4.65599 16.7247C4.73362 16.76 5.12006 17.1365 5.22112 17.2749C5.25424 17.3205 5.31829 17.4069 5.3626 17.4687C5.40816 17.5292 5.44842 17.6018 5.45182 17.6326C5.45802 17.6812 5.4619 17.6876 5.51526 17.706C5.57033 17.7262 5.57935 17.7377 5.6499 17.893C5.73429 18.072 5.8529 18.2579 5.94185 18.3469C6.00686 18.4119 6.33899 18.5347 6.44091 18.532C6.4767 18.5305 6.54796 18.5345 6.60195 18.5386C6.6855 18.5475 6.70246 18.5545 6.71224 18.5891C6.71721 18.6116 6.70193 18.661 6.67763 18.699C6.6401 18.7537 6.63884 18.7823 6.66525 18.8585C6.70921 18.9822 6.82409 19.1718 6.92174 19.2794C6.99716 19.3648 7.00182 19.367 7.0465 19.3394C7.08992 19.3131 7.09926 19.3174 7.18713 19.3904C7.24001 19.4333 7.34593 19.5018 7.42277 19.5413C7.55095 19.6047 7.5693 19.6206 7.6402 19.7139C7.7352 19.8413 8.44837 20.5445 8.60903 20.6678C8.67171 20.718 8.80669 20.843 8.90979 20.9486C9.06592 21.1072 9.11243 21.1463 9.20156 21.1906C9.29411 21.2383 9.30733 21.249 9.33219 21.3063C9.34913 21.3406 9.40852 21.4249 9.46388 21.4927C9.57366 21.6224 9.94316 21.9645 10.0982 22.0798C10.232 22.1786 10.2996 22.2513 10.3217 22.3182C10.3402 22.3715 10.3521 22.3835 10.4752 22.4692C10.6012 22.5553 10.6217 22.5758 10.7882 22.7822C10.9603 22.9967 10.9647 23.006 10.9482 23.0567C10.9334 23.1092 10.9548 23.163 10.9797 23.1381C10.9859 23.1319 11.0129 23.1289 11.0382 23.1343C11.0796 23.1408 11.0864 23.1477 11.1147 23.2083C11.1522 23.2906 11.2433 23.3843 11.3248 23.4259C11.3702 23.4489 11.3878 23.469 11.4078 23.5139C11.4296 23.5606 11.4467 23.5777 11.5019 23.608C11.5584 23.6371 11.5743 23.6554 11.5977 23.7038C11.6182 23.7517 11.6422 23.7757 11.7184 23.8295C11.7716 23.8652 11.8781 23.9468 11.9545 24.0108C12.0309 24.0747 12.1561 24.165 12.2279 24.2094C12.3049 24.259 12.4136 24.3453 12.485 24.4142C12.5547 24.4814 12.6593 24.5786 12.7208 24.6301L12.8309 24.7252L12.9571 24.6024C13.0555 24.504 13.1039 24.4727 13.1853 24.4494C13.2877 24.4223 13.2989 24.4111 13.9907 23.7228C14.802 22.9149 14.8219 22.895 14.8537 22.8222C14.8683 22.787 14.892 22.7633 14.9189 22.7603C14.9794 22.7511 15.6274 22.0963 15.6384 22.0375C15.6416 22.0034 15.6658 21.9827 15.7285 21.9508C15.8009 21.916 15.8171 21.8998 15.8404 21.8286C15.863 21.7615 15.88 21.7411 15.9253 21.7266C15.9736 21.7126 15.9838 21.6954 15.9945 21.6164C16.0024 21.5571 16.0241 21.5115 16.0579 21.488C16.1004 21.4557 16.1176 21.4556 16.1802 21.4957C16.2631 21.5462 16.3004 21.5362 16.3107 21.4643C16.3232 21.3971 17.3064 20.39 17.4882 20.2629C17.6037 20.1816 17.6257 20.1562 17.6561 20.0745C17.6808 20.0121 17.7031 19.9796 17.73 19.9766C17.7893 19.9686 17.8563 19.9085 17.9612 19.7694C18.0257 19.6844 18.12 19.5969 18.2537 19.4939C18.4695 19.3261 18.5953 19.1729 18.6634 18.9919C18.6938 18.9102 18.7075 18.8965 18.7525 18.8891C18.7962 18.8831 18.9085 18.7811 19.2659 18.4236C19.647 18.0425 19.7353 17.9439 19.7986 17.8328C19.8405 17.7601 19.8965 17.6767 19.9252 17.648C19.9787 17.5945 20.1079 17.5543 20.2125 17.5592C20.2647 17.5616 20.2826 17.5471 20.3678 17.438C20.4203 17.3684 20.7767 16.995 21.1598 16.6084L21.8564 15.905L21.8451 15.8239L21.8333 15.7399L21.8971 15.7514C21.9592 15.7611 21.9679 15.7524 22.5315 15.2025C22.845 14.8958 23.176 14.5717 23.2662 14.4849C23.3899 14.3646 23.4416 14.2992 23.4754 14.2209C23.5467 14.0505 23.5748 14.0189 23.6772 13.9918C23.8434 13.9487 23.9476 13.8685 24.1016 13.6564C24.1921 13.5351 24.2903 13.4266 24.3769 13.3537C24.4925 13.2551 24.5153 13.2256 24.5398 13.1429C24.5591 13.0825 24.5817 13.0429 24.6081 13.0369C24.6287 13.0301 24.6679 13.0045 24.694 12.9784L24.7443 12.9315L24.5968 12.9011C24.5148 12.8839 24.4256 12.8569 24.3971 12.8408C24.2751 12.7712 24.1941 12.6503 24.1777 12.5094C24.1658 12.4153 24.1924 12.4194 24.2605 12.5224C24.4248 12.7789 24.6216 12.8661 24.8253 12.7684C24.981 12.6949 25.0386 12.603 25.0158 12.4582C24.994 12.3192 24.9203 12.2082 24.7259 12.0262C24.5904 11.8983 24.5581 11.8759 24.4445 11.8321C24.2852 11.7724 24.2634 11.7531 24.2753 11.6728C24.2964 11.5594 24.1126 11.3532 23.5885 10.8988C23.2193 10.5769 23.104 10.4493 22.9231 10.1512C22.8074 9.96583 22.7631 9.90408 22.7043 9.86023C22.6093 9.78762 22.6154 9.82605 22.7197 9.95779C22.8309 10.0964 22.8148 10.1227 22.6839 10.0141C22.5806 9.92581 22.5099 9.84261 22.4951 9.78551C22.4894 9.76731 22.4077 9.68816 22.2861 9.58398C22.0314 9.3666 21.729 9.06678 21.0297 8.3326C20.5722 7.85269 20.4256 7.70853 20.2306 7.54091C20.0987 7.42647 19.9292 7.27439 19.8539 7.19912C19.7496 7.09478 19.6972 7.05482 19.6404 7.03291C19.5654 7.00526 19.562 7.00184 19.495 6.88751C19.4389 6.79652 19.3737 6.7214 19.1799 6.52515L18.9353 6.28053L18.9128 6.1833C18.8911 6.08186 18.8459 6.0142 18.8306 6.06369C18.8257 6.07879 18.8198 6.10524 18.815 6.12034C18.8061 6.14633 18.7682 6.11585 18.4484 5.83347C18.3442 5.73924 18.3159 5.70595 18.2806 5.62833C18.2449 5.54775 18.229 5.5294 18.1281 5.45586C18.0595 5.40471 17.8583 5.21593 17.5927 4.94783L17.1684 4.5236L17.1621 4.43756C17.1581 4.33891 17.1152 4.28603 17.0771 4.3276C17.0526 4.35547 17.0381 4.34598 16.7724 4.12254C16.568 3.95057 16.3941 3.78916 16.1281 3.5181C15.7337 3.11875 14.5572 1.9722 14.4857 1.92059C14.4627 1.90255 14.4042 1.87893 14.3577 1.86729L14.271 1.84789L14.2659 1.7606L14.2596 1.67456L14.1299 1.56478C14.057 1.5043 14.0148 1.4746 14.0328 1.49762C14.0994 1.58161 14.0431 1.56266 13.9507 1.47028C13.8994 1.41897 13.8628 1.36997 13.8691 1.36375C13.8765 1.35627 13.8965 1.36373 13.9119 1.37912C14.0092 1.46651 13.782 1.20446 13.6144 1.03682C13.3351 0.755041 13.1021 0.556943 12.9906 0.507683C12.8879 0.459818 12.711 0.434869 12.6824 0.463516C12.6724 0.47348 12.6209 0.466819 12.5705 0.448799C12.3652 0.380455 12.1912 0.438128 12.0653 0.618696C12.0133 0.691235 11.9999 0.697778 11.9257 0.693309C11.8047 0.684355 11.7617 0.713632 11.7193 0.838136C11.6858 0.93665 11.6763 0.94957 11.6316 0.949752C11.5959 0.951328 11.5638 0.976554 11.5158 1.0382C11.4521 1.11899 11.4454 1.12226 11.3593 1.10582C11.2465 1.08519 11.2315 1.10014 11.2612 1.19706ZM11.8968 1.44409C11.9106 1.52266 11.9518 1.68337 11.991 1.80487C12.0947 2.11523 12.1013 2.19412 12.0315 2.29125C11.9981 2.33499 11.9733 2.3974 11.9739 2.43786C11.9745 2.5057 11.9732 2.50694 11.9407 2.47444C11.8757 2.40944 11.8654 2.27952 11.9165 2.11891C11.9417 2.03207 11.9591 1.94975 11.9525 1.93575C11.949 1.92222 11.9059 1.85922 11.8586 1.79701C11.7929 1.70883 11.7728 1.66387 11.768 1.59681C11.7605 1.48463 11.782 1.40152 11.8338 1.34626L11.8762 1.30391L11.8968 1.44409ZM3.1673 10.1668C3.18098 10.1804 3.18175 10.2036 3.16805 10.2173C3.14314 10.2422 3.11685 10.2309 3.11251 10.1942C3.10522 10.157 3.14164 10.1411 3.1673 10.1668ZM12.8577 0.579024C12.8928 0.564378 12.9051 0.569194 12.9536 0.630161C13.0348 0.733743 13.0289 0.760198 12.9288 0.747341C12.814 0.732159 12.7204 0.641033 12.789 0.610029C12.8037 0.60224 12.8346 0.588374 12.8577 0.579024ZM11.1162 2.50184C11.1306 2.51132 11.133 2.5261 11.1218 2.53731C11.1105 2.54852 11.0899 2.54527 11.0745 2.52987C11.0454 2.50079 11.0779 2.47852 11.1162 2.50184ZM2.837 10.9076C2.8594 10.9126 2.88708 10.9328 2.89579 10.9514C2.92128 10.9944 2.82413 11.0915 2.73138 11.1159C2.63863 11.1402 2.62107 11.0927 2.70155 11.0362C2.73533 11.0127 2.76476 10.9798 2.76617 10.9613C2.76837 10.9112 2.79048 10.896 2.837 10.9076ZM3.14289 14.95C3.17026 14.9774 3.20213 15.0242 3.20927 15.0513C3.22387 15.0983 3.22262 15.0995 3.17923 15.0711C3.13459 15.0439 3.04922 14.9411 3.02871 14.8932C3.01597 14.858 3.08644 14.8936 3.14289 14.95ZM6.38286 17.7416C6.42221 17.781 6.42452 17.8231 6.38765 17.8087C6.35249 17.796 6.32047 17.739 6.33791 17.7216C6.34413 17.7154 6.36576 17.7245 6.38286 17.7416ZM22.6659 10.1108C22.7018 10.1467 22.7153 10.205 22.6917 10.2287C22.6693 10.2511 22.629 10.2059 22.6202 10.1497C22.6104 10.0876 22.6283 10.0731 22.6659 10.1108ZM22.8279 13.5136C22.849 13.5097 22.8933 13.5167 22.9267 13.5277C22.9818 13.5479 22.9955 13.5616 23.093 13.7139C23.2318 13.9274 23.2699 13.9954 23.2549 14.0104C23.2151 14.0502 23.1408 14.0731 23.1203 14.0526C23.1083 14.0406 23.0768 13.9867 23.0529 13.9353C23.0176 13.8577 22.9922 13.8249 22.9027 13.7503C22.8062 13.6688 22.7933 13.6509 22.7845 13.5947C22.7733 13.5238 22.7758 13.5213 22.8279 13.5136ZM24.3695 12.0336L24.434 12.0308L24.3424 12.1086C24.28 12.1608 24.2457 12.2087 24.2322 12.2599C24.2066 12.3539 24.1871 12.3768 24.1783 12.3206C24.1564 12.1817 24.2521 12.0382 24.3695 12.0336ZM22.2619 14.2405C22.303 14.2815 22.3145 14.3179 22.3048 14.3755C22.2974 14.4205 22.2932 14.4212 22.2453 14.3733C22.2146 14.3426 22.1959 14.3065 22.1993 14.2825C22.2044 14.2227 22.2294 14.2079 22.2619 14.2405ZM22.7628 13.9791C22.7998 14.0584 22.8089 14.1348 22.7823 14.1306C22.7599 14.1256 22.7147 14.0032 22.713 13.9467C22.7143 13.8907 22.7288 13.9002 22.7628 13.9791ZM19.5876 17.5819C19.6277 17.6445 19.6612 17.7478 19.6467 17.7657C19.6223 17.7935 19.575 17.7313 19.5531 17.6472C19.5302 17.547 19.5457 17.5177 19.5876 17.5819ZM21.6732 15.6571C21.7042 15.7253 21.6865 15.7874 21.6391 15.7699C21.6128 15.7585 21.5525 15.5862 21.5634 15.5547C21.5781 15.5196 21.6375 15.5765 21.6732 15.6571ZM18.4569 18.7057C18.4839 18.7027 18.4924 18.7113 18.4966 18.7379C18.5008 18.7645 18.4921 18.7732 18.4613 18.7698C18.393 18.7663 18.3883 18.7093 18.4569 18.7057ZM24.8696 12.3991C24.928 12.4775 24.9367 12.6057 24.8802 12.5493C24.8597 12.5288 24.8066 12.3561 24.8178 12.3449C24.8215 12.3411 24.8455 12.3651 24.8696 12.3991ZM20.7578 16.5725C20.7817 16.6238 20.7728 16.6498 20.7377 16.6371C20.7114 16.6258 20.6973 16.5817 20.7094 16.549C20.7236 16.5109 20.7329 16.5153 20.7578 16.5725Z" fill="black"/>
</svg>
