<svg width="83" height="82" viewBox="0 0 83 82" fill="none" xmlns="http://www.w3.org/2000/svg">
<mask id="path-1-inside-1_971_526" fill="white">
<path d="M36.5153 3.37235C36.6286 3.72653 36.5617 3.85053 36.2157 3.91141L35.9159 3.96034L36.0932 4.07953C36.2124 4.16556 36.2497 4.21948 36.2165 4.25269C36.1667 4.30252 35.5462 4.6037 35.182 4.76262C35.0871 4.80054 35.0315 4.93595 34.9987 5.18544L34.9409 5.55113L33.9491 6.5771C33.4042 7.14484 32.9496 7.6451 32.949 7.70267C32.9386 7.75869 32.7398 7.99168 32.4876 8.22108C32.2453 8.45203 31.9043 8.85004 31.7267 9.09599C31.4807 9.45609 31.3229 9.61385 30.996 9.8267C30.6873 10.0328 30.5088 10.2113 30.2721 10.5392C30.1029 10.7769 29.7639 11.2185 29.5184 11.521C29.2771 11.8194 29.0092 12.2241 28.9277 12.4083C28.8041 12.6915 28.7392 12.7678 28.5799 12.8244C28.3102 12.9117 27.635 13.5983 27.1963 14.2308C26.7343 14.8981 25.1059 16.4581 24.3161 16.997C23.8518 17.3131 23.6841 17.4693 23.395 17.8611C22.8401 18.6098 20.5903 20.9851 16.7884 24.8555L15.0602 26.6064L14.8585 26.5459L14.651 26.4796L14.6182 26.7291C14.588 26.9646 14.5231 27.0409 13.8563 27.6279C13.4614 27.9886 12.9866 28.3607 12.8014 28.4661C12.5145 28.6276 12.4081 28.7454 12.0769 29.2362C11.7981 29.6633 11.6268 29.8573 11.4624 29.942C11.107 30.1263 9.58528 31.7848 9.44296 32.1324C9.26428 32.5848 7.95294 33.7479 7.54523 33.8135C7.25112 33.8681 7.01347 34.0373 6.89092 34.2967C6.82964 34.4264 6.80163 34.4316 6.62847 34.3083C6.53048 34.2352 6.32566 34.155 6.18355 34.1374L5.91335 34.0997L5.78288 34.5837C5.67633 34.9753 5.61765 35.091 5.44643 35.1938C5.32814 35.2665 5.17142 35.4004 5.08424 35.4876C4.9986 35.5846 4.84139 35.6848 4.73244 35.7254C4.57318 35.782 4.5 35.8666 4.35254 36.1509C4.25284 36.3418 4.08152 36.6272 3.97147 36.7828C3.79394 37.0288 3.73687 37.0631 3.55535 37.0393C3.43711 37.0207 3.282 37.0732 3.17665 37.1671C3.02824 37.2927 3.00278 37.3752 3.03063 37.6438C3.08224 38.094 2.97629 38.3368 2.60268 38.6192C2.03451 39.0391 2.05371 39.0085 2.19621 39.2423C2.40918 39.5882 2.40602 39.6597 2.16683 39.8191C2.03763 39.9141 1.90787 40.0667 1.85385 40.2119C1.76606 40.448 1.7619 40.4521 1.42273 40.4036C1.24121 40.3798 1.01823 40.3063 0.927493 40.2488L0.765735 40.1368L0.842854 40.4132C0.908072 40.6445 0.88676 40.7228 0.749753 40.8598C0.596139 41.0135 0.595088 41.0373 0.734039 41.1265C1.23592 41.4457 1.40593 41.6406 1.72713 42.2773C2.03383 42.8829 2.06959 42.927 2.93159 43.8554C3.42971 44.3951 3.95269 45.0011 4.12214 45.2536C4.40769 45.6637 4.44916 45.7134 4.67679 45.8165C4.87331 45.9051 4.92878 45.9523 4.97849 46.085C5.02821 46.2178 5.08368 46.2649 5.24339 46.3333C5.39895 46.4058 5.48293 46.4815 5.60521 46.6785C5.73891 46.8869 5.82289 46.9626 6.12725 47.1258C6.78574 47.4937 6.98265 47.7985 7.12218 48.6854C7.17334 49.0106 7.28772 49.4322 7.36904 49.6131L7.52289 49.9496L7.93094 50.1916C8.15752 50.3186 8.74803 50.743 9.2395 51.1182C9.79785 51.552 10.2106 51.8236 10.3262 51.8562C10.4361 51.8831 10.7644 51.954 11.0616 52.0103C11.3587 52.0667 11.6802 52.1557 11.771 52.2132C11.8757 52.2681 12.1826 52.5999 12.5615 53.0535C13.0518 53.6352 13.2871 53.8788 13.6567 54.182C14.086 54.5282 14.1332 54.5837 14.2051 54.7968C14.2672 55.0084 14.2958 55.0369 14.498 55.1312C14.7567 55.2488 16.0449 56.5037 16.3817 56.9651C16.4921 57.117 16.7056 57.4053 16.8533 57.6111C17.0052 57.8128 17.1394 58.0549 17.1507 58.1576C17.1714 58.3194 17.1843 58.3407 17.3622 58.4023C17.5458 58.4696 17.5758 58.508 17.811 59.0255C18.0923 59.6223 18.4877 60.2419 18.7842 60.5384C19.0009 60.755 20.108 61.1647 20.4477 61.1556C20.567 61.1504 20.8045 61.1637 20.9845 61.1776C21.263 61.207 21.3195 61.2303 21.3521 61.346C21.3687 61.4207 21.3178 61.5856 21.2368 61.7122C21.1117 61.8944 21.1075 61.9898 21.1955 62.2439C21.342 62.6561 21.725 63.2882 22.0505 63.6469C22.3019 63.9315 22.3174 63.9387 22.4663 63.8469C22.6111 63.7591 22.6422 63.7736 22.9351 64.0167C23.1114 64.1598 23.4644 64.3883 23.7206 64.5199C24.1478 64.7312 24.209 64.7841 24.4453 65.0952C24.762 65.5198 27.1392 67.8638 27.6748 68.2748C27.8837 68.4422 28.3337 68.8589 28.6773 69.2109C29.1978 69.7396 29.3528 69.8697 29.6499 70.0174C29.9584 70.1764 30.0024 70.2122 30.0853 70.403C30.1418 70.5176 30.3398 70.7986 30.5243 71.0246C30.8902 71.457 32.1219 72.5973 32.6388 72.9814C33.0846 73.311 33.3101 73.553 33.3836 73.776C33.4452 73.9539 33.4851 73.9938 33.8952 74.2794C34.3152 74.5665 34.3836 74.6349 34.9387 75.3228C35.5125 76.0377 35.527 76.0688 35.4719 76.238C35.4225 76.4128 35.494 76.5922 35.577 76.5092C35.5978 76.4884 35.6875 76.4785 35.772 76.4966C35.91 76.5183 35.9328 76.5411 36.0271 76.7433C36.1519 77.0176 36.4557 77.3297 36.7274 77.4685C36.8788 77.5452 36.9373 77.6121 37.0042 77.7619C37.0767 77.9175 37.1337 77.9745 37.3178 78.0755C37.506 78.1724 37.5589 78.2336 37.6371 78.3949C37.7055 78.5546 37.7853 78.6344 38.0393 78.8137C38.2166 78.9329 38.5718 79.205 38.8263 79.418C39.0808 79.631 39.4982 79.9321 39.7377 80.0803C39.9944 80.2456 40.3568 80.5333 40.5947 80.7629C40.8269 80.9868 41.1758 81.3108 41.3806 81.4824L41.7476 81.7996L42.1685 81.3901C42.4965 81.0621 42.6578 80.9578 42.9291 80.8803C43.2705 80.7899 43.3078 80.7525 45.6136 78.4582C48.3179 75.7652 48.3843 75.6988 48.4903 75.456C48.5391 75.3388 48.618 75.2599 48.7077 75.25C48.9095 75.2193 51.0694 73.0365 51.1059 72.8404C51.1168 72.7268 51.1973 72.6578 51.4063 72.5514C51.6476 72.4356 51.7016 72.3816 51.7795 72.144C51.8548 71.9204 51.9114 71.8524 52.0624 71.8041C52.2232 71.7573 52.2574 71.7003 52.2929 71.4368C52.3194 71.2391 52.3916 71.0871 52.5042 71.0087C52.6459 70.9013 52.7034 70.9007 52.9119 71.0344C53.1882 71.2028 53.3127 71.1696 53.3471 70.9299C53.3887 70.7058 56.666 67.3487 57.2721 66.9251C57.6571 66.6542 57.7303 66.5696 57.8316 66.2972C57.9141 66.0892 57.9884 65.9807 58.0781 65.9708C58.2757 65.9443 58.4989 65.7439 58.8487 65.28C59.0636 64.9967 59.3781 64.7051 59.8238 64.362C60.543 63.8024 60.9624 63.2918 61.1894 62.6885C61.2907 62.4161 61.3364 62.3704 61.4863 62.346C61.632 62.3257 62.0062 61.9857 63.1977 60.7942C64.4682 59.5238 64.7624 59.1953 64.9732 58.8248C65.1129 58.5825 65.2998 58.3044 65.3953 58.2089C65.5738 58.0304 66.0043 57.8963 66.3529 57.9127C66.5271 57.9209 66.5868 57.8727 66.8707 57.5089C67.0457 57.277 68.2336 56.032 69.5108 54.7434L71.8327 52.3987L71.795 52.1285L71.7557 51.8485L71.9683 51.8867C72.1753 51.9193 72.2043 51.8902 74.0829 50.0572C75.1281 49.0348 76.2314 47.9543 76.5319 47.6653C76.9445 47.2641 77.1168 47.0462 77.2295 46.7852C77.4669 46.2171 77.5608 46.1118 77.9021 46.0214C78.4562 45.8779 78.8033 45.6106 79.3167 44.9033C79.6182 44.4991 79.9457 44.1374 80.2342 43.8945C80.6198 43.566 80.6956 43.4674 80.7772 43.1919C80.8416 42.9906 80.9169 42.8583 81.0051 42.8386C81.0736 42.8157 81.2043 42.7306 81.2915 42.6434L81.4591 42.4872L80.9675 42.3858C80.6942 42.3284 80.3965 42.2383 80.3016 42.185C79.8951 41.9528 79.6251 41.55 79.5704 41.0801C79.5307 40.7663 79.6194 40.7803 79.8463 41.1235C80.3941 41.9785 81.05 42.2691 81.7291 41.9435C82.2479 41.6984 82.44 41.3922 82.3641 40.9094C82.2912 40.4463 82.0456 40.0761 81.3976 39.4696C80.9461 39.043 80.8382 38.9684 80.4597 38.8224C79.9287 38.6235 79.8561 38.5592 79.8957 38.2916C79.9659 37.9134 79.3533 37.226 77.6063 35.7115C76.3756 34.6386 75.9915 34.213 75.3884 33.2196C75.0028 32.6016 74.8551 32.3958 74.6592 32.2496C74.3424 32.0076 74.3625 32.1357 74.7103 32.5748C75.0809 33.0367 75.0274 33.1244 74.5909 32.7626C74.2467 32.4682 74.0109 32.1909 73.9617 32.0005C73.9425 31.9399 73.6704 31.676 73.265 31.3287C72.4159 30.6042 71.4082 29.6048 69.0771 27.1575C67.5522 25.5578 67.0633 25.0773 66.4133 24.5185C65.9737 24.137 65.4086 23.6301 65.1577 23.3792C64.8099 23.0314 64.6352 22.8982 64.4459 22.8252C64.196 22.733 64.1846 22.7216 63.9613 22.3405C63.7742 22.0372 63.557 21.7868 62.9111 21.1327L62.0958 20.3173L62.0207 19.9931C61.9483 19.655 61.7975 19.4295 61.7466 19.5945C61.7305 19.6448 61.7107 19.733 61.6946 19.7833C61.665 19.8699 61.5385 19.7683 60.4727 18.8271C60.1254 18.5129 60.031 18.402 59.9134 18.1433C59.7943 17.8747 59.7414 17.8135 59.405 17.5684C59.1763 17.3978 58.5056 16.7686 57.6202 15.8749L56.2061 14.4608L56.185 14.174C56.1717 13.8452 56.0287 13.6689 55.9015 13.8075C55.82 13.9004 55.7718 13.8688 54.8858 13.124C54.2047 12.5507 53.6251 12.0127 52.7382 11.1092C51.4236 9.778 47.5022 5.95617 47.2637 5.78411C47.187 5.72399 46.992 5.64527 46.8369 5.60646L46.5481 5.54179L46.5311 5.25083L46.51 4.96402L46.0777 4.5981C45.8345 4.39648 45.694 4.2975 45.7541 4.37422C45.976 4.65417 45.7883 4.591 45.4803 4.2831C45.3093 4.11204 45.1875 3.94873 45.2083 3.92797C45.2332 3.90306 45.2995 3.92792 45.3509 3.97923C45.6754 4.27054 44.9181 3.39703 44.3593 2.83823C43.4283 1.89896 42.6518 1.23863 42.28 1.07443C41.9378 0.914883 41.3481 0.831716 41.2526 0.927204C41.2194 0.960417 41.0477 0.93822 40.8797 0.878152C40.1952 0.650338 39.6152 0.842579 39.1958 1.44447C39.0224 1.68627 38.9778 1.70808 38.7304 1.69318C38.3269 1.66334 38.1837 1.76093 38.0424 2.17594C37.9307 2.50432 37.899 2.54739 37.7502 2.54799C37.6309 2.55325 37.524 2.63734 37.3641 2.84282C37.1518 3.11213 37.1295 3.12303 36.8422 3.06822C36.4662 2.99946 36.4164 3.04928 36.5153 3.37235ZM38.634 4.19579C38.68 4.45769 38.8172 4.99339 38.9482 5.39839C39.2935 6.43292 39.3157 6.69588 39.0831 7.01966C38.9715 7.16547 38.8889 7.3735 38.8909 7.50835C38.8929 7.73449 38.8887 7.73863 38.7804 7.6303C38.5637 7.41362 38.5292 6.98056 38.6996 6.4452C38.7838 6.15573 38.8416 5.88133 38.8198 5.83466C38.8079 5.78955 38.6644 5.57957 38.5068 5.37219C38.2876 5.07824 38.2208 4.92838 38.2048 4.70485C38.1796 4.33091 38.2513 4.0539 38.4242 3.86967L38.5653 3.72851L38.634 4.19579ZM9.53566 33.2714C9.58128 33.317 9.58382 33.3943 9.53815 33.4399C9.45512 33.523 9.36749 33.4851 9.35304 33.3628C9.32873 33.2388 9.45013 33.1858 9.53566 33.2714ZM41.8369 1.31224C41.9542 1.26342 41.9951 1.27947 42.1568 1.48269C42.4274 1.82797 42.4076 1.91615 42.0741 1.87329C41.6914 1.82269 41.3793 1.51893 41.6081 1.41558C41.6569 1.38962 41.7601 1.3434 41.8369 1.31224ZM36.0319 7.72162C36.0801 7.75323 36.0879 7.8025 36.0505 7.83987C36.0132 7.87723 35.9442 7.86638 35.8929 7.81506C35.7959 7.71813 35.9044 7.6439 36.0319 7.72162ZM8.43466 35.7408C8.50933 35.7574 8.60162 35.8248 8.63063 35.887C8.71561 36.0301 8.39177 36.3539 8.0826 36.435C7.77343 36.5161 7.71491 36.3579 7.98317 36.1695C8.09577 36.0911 8.19386 35.9816 8.19856 35.9199C8.20592 35.7529 8.2796 35.702 8.43466 35.7408ZM9.4543 49.2157C9.54553 49.3069 9.65177 49.4629 9.67557 49.5532C9.72424 49.7098 9.72008 49.7139 9.57543 49.6191C9.42663 49.5284 9.14208 49.1857 9.07371 49.026C9.03125 48.9088 9.26613 49.0275 9.4543 49.2157ZM20.2542 58.5209C20.3854 58.6521 20.3931 58.7926 20.2702 58.7445C20.153 58.702 20.0462 58.5122 20.1044 58.4541C20.1251 58.4334 20.1972 58.4639 20.2542 58.5209ZM74.5311 33.0847C74.6508 33.2045 74.6958 33.3989 74.617 33.4778C74.5422 33.5526 74.408 33.4017 74.3785 33.2145C74.346 33.0076 74.4056 32.9593 74.5311 33.0847ZM75.0712 44.4276C75.1412 44.4146 75.289 44.4378 75.4005 44.4746C75.5841 44.5419 75.6297 44.5875 75.9546 45.0951C76.4173 45.807 76.5443 46.0336 76.4944 46.0834C76.3616 46.2162 76.1141 46.2926 76.0457 46.2242C76.0058 46.1843 75.9006 46.0044 75.8209 45.8332C75.7033 45.5745 75.6188 45.4651 75.3202 45.2163C74.9988 44.9447 74.9558 44.8851 74.9263 44.6979C74.8891 44.4614 74.8974 44.4531 75.0712 44.4276ZM80.2098 39.4942L80.4246 39.4847L80.1194 39.7442C79.9114 39.9181 79.7972 40.0779 79.7519 40.2486C79.6667 40.5619 79.6018 40.6382 79.5724 40.451C79.4995 39.9878 79.8182 39.5095 80.2098 39.4942ZM73.1844 46.8503C73.3213 46.9872 73.3596 47.1085 73.3273 47.3004C73.3028 47.4504 73.2888 47.453 73.1292 47.2933C73.0265 47.1907 72.9644 47.0704 72.9758 46.9905C72.9925 46.7913 73.0761 46.742 73.1844 46.8503ZM74.854 45.979C74.9773 46.2435 75.0077 46.4981 74.919 46.4842C74.8444 46.4676 74.6937 46.0595 74.6881 45.8713C74.6923 45.6845 74.7405 45.7161 74.854 45.979ZM64.2699 57.9886C64.4036 58.1971 64.5154 58.5414 64.4671 58.6011C64.3857 58.6939 64.2281 58.4866 64.1551 58.206C64.0786 57.872 64.1305 57.7745 64.2699 57.9886ZM71.2222 51.5723C71.3252 51.8 71.2665 52.007 71.1083 51.9484C71.0207 51.9106 70.8198 51.3361 70.8562 51.2313C70.905 51.114 71.103 51.3037 71.2222 51.5723ZM60.5012 61.7345C60.5909 61.7246 60.6194 61.7531 60.6334 61.8418C60.6473 61.9305 60.6183 61.9596 60.5156 61.9482C60.2879 61.9364 60.2724 61.7466 60.5012 61.7345ZM81.8766 40.7126C82.0715 40.9739 82.1003 41.4012 81.9121 41.2131C81.8437 41.1447 81.6667 40.569 81.704 40.5317C81.7165 40.5192 81.7963 40.5991 81.8766 40.7126ZM68.1706 54.6239C68.2504 54.795 68.2208 54.8816 68.1036 54.8391C68.016 54.8013 67.9689 54.6546 68.0094 54.5456C68.0567 54.4185 68.0878 54.433 68.1706 54.6239Z"/>
</mask>
<path d="M36.5153 3.37235C36.6286 3.72653 36.5617 3.85053 36.2157 3.91141L35.9159 3.96034L36.0932 4.07953C36.2124 4.16556 36.2497 4.21948 36.2165 4.25269C36.1667 4.30252 35.5462 4.6037 35.182 4.76262C35.0871 4.80054 35.0315 4.93595 34.9987 5.18544L34.9409 5.55113L33.9491 6.5771C33.4042 7.14484 32.9496 7.6451 32.949 7.70267C32.9386 7.75869 32.7398 7.99168 32.4876 8.22108C32.2453 8.45203 31.9043 8.85004 31.7267 9.09599C31.4807 9.45609 31.3229 9.61385 30.996 9.8267C30.6873 10.0328 30.5088 10.2113 30.2721 10.5392C30.1029 10.7769 29.7639 11.2185 29.5184 11.521C29.2771 11.8194 29.0092 12.2241 28.9277 12.4083C28.8041 12.6915 28.7392 12.7678 28.5799 12.8244C28.3102 12.9117 27.635 13.5983 27.1963 14.2308C26.7343 14.8981 25.1059 16.4581 24.3161 16.997C23.8518 17.3131 23.6841 17.4693 23.395 17.8611C22.8401 18.6098 20.5903 20.9851 16.7884 24.8555L15.0602 26.6064L14.8585 26.5459L14.651 26.4796L14.6182 26.7291C14.588 26.9646 14.5231 27.0409 13.8563 27.6279C13.4614 27.9886 12.9866 28.3607 12.8014 28.4661C12.5145 28.6276 12.4081 28.7454 12.0769 29.2362C11.7981 29.6633 11.6268 29.8573 11.4624 29.942C11.107 30.1263 9.58528 31.7848 9.44296 32.1324C9.26428 32.5848 7.95294 33.7479 7.54523 33.8135C7.25112 33.8681 7.01347 34.0373 6.89092 34.2967C6.82964 34.4264 6.80163 34.4316 6.62847 34.3083C6.53048 34.2352 6.32566 34.155 6.18355 34.1374L5.91335 34.0997L5.78288 34.5837C5.67633 34.9753 5.61765 35.091 5.44643 35.1938C5.32814 35.2665 5.17142 35.4004 5.08424 35.4876C4.9986 35.5846 4.84139 35.6848 4.73244 35.7254C4.57318 35.782 4.5 35.8666 4.35254 36.1509C4.25284 36.3418 4.08152 36.6272 3.97147 36.7828C3.79394 37.0288 3.73687 37.0631 3.55535 37.0393C3.43711 37.0207 3.282 37.0732 3.17665 37.1671C3.02824 37.2927 3.00278 37.3752 3.03063 37.6438C3.08224 38.094 2.97629 38.3368 2.60268 38.6192C2.03451 39.0391 2.05371 39.0085 2.19621 39.2423C2.40918 39.5882 2.40602 39.6597 2.16683 39.8191C2.03763 39.9141 1.90787 40.0667 1.85385 40.2119C1.76606 40.448 1.7619 40.4521 1.42273 40.4036C1.24121 40.3798 1.01823 40.3063 0.927493 40.2488L0.765735 40.1368L0.842854 40.4132C0.908072 40.6445 0.88676 40.7228 0.749753 40.8598C0.596139 41.0135 0.595088 41.0373 0.734039 41.1265C1.23592 41.4457 1.40593 41.6406 1.72713 42.2773C2.03383 42.8829 2.06959 42.927 2.93159 43.8554C3.42971 44.3951 3.95269 45.0011 4.12214 45.2536C4.40769 45.6637 4.44916 45.7134 4.67679 45.8165C4.87331 45.9051 4.92878 45.9523 4.97849 46.085C5.02821 46.2178 5.08368 46.2649 5.24339 46.3333C5.39895 46.4058 5.48293 46.4815 5.60521 46.6785C5.73891 46.8869 5.82289 46.9626 6.12725 47.1258C6.78574 47.4937 6.98265 47.7985 7.12218 48.6854C7.17334 49.0106 7.28772 49.4322 7.36904 49.6131L7.52289 49.9496L7.93094 50.1916C8.15752 50.3186 8.74803 50.743 9.2395 51.1182C9.79785 51.552 10.2106 51.8236 10.3262 51.8562C10.4361 51.8831 10.7644 51.954 11.0616 52.0103C11.3587 52.0667 11.6802 52.1557 11.771 52.2132C11.8757 52.2681 12.1826 52.5999 12.5615 53.0535C13.0518 53.6352 13.2871 53.8788 13.6567 54.182C14.086 54.5282 14.1332 54.5837 14.2051 54.7968C14.2672 55.0084 14.2958 55.0369 14.498 55.1312C14.7567 55.2488 16.0449 56.5037 16.3817 56.9651C16.4921 57.117 16.7056 57.4053 16.8533 57.6111C17.0052 57.8128 17.1394 58.0549 17.1507 58.1576C17.1714 58.3194 17.1843 58.3407 17.3622 58.4023C17.5458 58.4696 17.5758 58.508 17.811 59.0255C18.0923 59.6223 18.4877 60.2419 18.7842 60.5384C19.0009 60.755 20.108 61.1647 20.4477 61.1556C20.567 61.1504 20.8045 61.1637 20.9845 61.1776C21.263 61.207 21.3195 61.2303 21.3521 61.346C21.3687 61.4207 21.3178 61.5856 21.2368 61.7122C21.1117 61.8944 21.1075 61.9898 21.1955 62.2439C21.342 62.6561 21.725 63.2882 22.0505 63.6469C22.3019 63.9315 22.3174 63.9387 22.4663 63.8469C22.6111 63.7591 22.6422 63.7736 22.9351 64.0167C23.1114 64.1598 23.4644 64.3883 23.7206 64.5199C24.1478 64.7312 24.209 64.7841 24.4453 65.0952C24.762 65.5198 27.1392 67.8638 27.6748 68.2748C27.8837 68.4422 28.3337 68.8589 28.6773 69.2109C29.1978 69.7396 29.3528 69.8697 29.6499 70.0174C29.9584 70.1764 30.0024 70.2122 30.0853 70.403C30.1418 70.5176 30.3398 70.7986 30.5243 71.0246C30.8902 71.457 32.1219 72.5973 32.6388 72.9814C33.0846 73.311 33.3101 73.553 33.3836 73.776C33.4452 73.9539 33.4851 73.9938 33.8952 74.2794C34.3152 74.5665 34.3836 74.6349 34.9387 75.3228C35.5125 76.0377 35.527 76.0688 35.4719 76.238C35.4225 76.4128 35.494 76.5922 35.577 76.5092C35.5978 76.4884 35.6875 76.4785 35.772 76.4966C35.91 76.5183 35.9328 76.5411 36.0271 76.7433C36.1519 77.0176 36.4557 77.3297 36.7274 77.4685C36.8788 77.5452 36.9373 77.6121 37.0042 77.7619C37.0767 77.9175 37.1337 77.9745 37.3178 78.0755C37.506 78.1724 37.5589 78.2336 37.6371 78.3949C37.7055 78.5546 37.7853 78.6344 38.0393 78.8137C38.2166 78.9329 38.5718 79.205 38.8263 79.418C39.0808 79.631 39.4982 79.9321 39.7377 80.0803C39.9944 80.2456 40.3568 80.5333 40.5947 80.7629C40.8269 80.9868 41.1758 81.3108 41.3806 81.4824L41.7476 81.7996L42.1685 81.3901C42.4965 81.0621 42.6578 80.9578 42.9291 80.8803C43.2705 80.7899 43.3078 80.7525 45.6136 78.4582C48.3179 75.7652 48.3843 75.6988 48.4903 75.456C48.5391 75.3388 48.618 75.2599 48.7077 75.25C48.9095 75.2193 51.0694 73.0365 51.1059 72.8404C51.1168 72.7268 51.1973 72.6578 51.4063 72.5514C51.6476 72.4356 51.7016 72.3816 51.7795 72.144C51.8548 71.9204 51.9114 71.8524 52.0624 71.8041C52.2232 71.7573 52.2574 71.7003 52.2929 71.4368C52.3194 71.2391 52.3916 71.0871 52.5042 71.0087C52.6459 70.9013 52.7034 70.9007 52.9119 71.0344C53.1882 71.2028 53.3127 71.1696 53.3471 70.9299C53.3887 70.7058 56.666 67.3487 57.2721 66.9251C57.6571 66.6542 57.7303 66.5696 57.8316 66.2972C57.9141 66.0892 57.9884 65.9807 58.0781 65.9708C58.2757 65.9443 58.4989 65.7439 58.8487 65.28C59.0636 64.9967 59.3781 64.7051 59.8238 64.362C60.543 63.8024 60.9624 63.2918 61.1894 62.6885C61.2907 62.4161 61.3364 62.3704 61.4863 62.346C61.632 62.3257 62.0062 61.9857 63.1977 60.7942C64.4682 59.5238 64.7624 59.1953 64.9732 58.8248C65.1129 58.5825 65.2998 58.3044 65.3953 58.2089C65.5738 58.0304 66.0043 57.8963 66.3529 57.9127C66.5271 57.9209 66.5868 57.8727 66.8707 57.5089C67.0457 57.277 68.2336 56.032 69.5108 54.7434L71.8327 52.3987L71.795 52.1285L71.7557 51.8485L71.9683 51.8867C72.1753 51.9193 72.2043 51.8902 74.0829 50.0572C75.1281 49.0348 76.2314 47.9543 76.5319 47.6653C76.9445 47.2641 77.1168 47.0462 77.2295 46.7852C77.4669 46.2171 77.5608 46.1118 77.9021 46.0214C78.4562 45.8779 78.8033 45.6106 79.3167 44.9033C79.6182 44.4991 79.9457 44.1374 80.2342 43.8945C80.6198 43.566 80.6956 43.4674 80.7772 43.1919C80.8416 42.9906 80.9169 42.8583 81.0051 42.8386C81.0736 42.8157 81.2043 42.7306 81.2915 42.6434L81.4591 42.4872L80.9675 42.3858C80.6942 42.3284 80.3965 42.2383 80.3016 42.185C79.8951 41.9528 79.6251 41.55 79.5704 41.0801C79.5307 40.7663 79.6194 40.7803 79.8463 41.1235C80.3941 41.9785 81.05 42.2691 81.7291 41.9435C82.2479 41.6984 82.44 41.3922 82.3641 40.9094C82.2912 40.4463 82.0456 40.0761 81.3976 39.4696C80.9461 39.043 80.8382 38.9684 80.4597 38.8224C79.9287 38.6235 79.8561 38.5592 79.8957 38.2916C79.9659 37.9134 79.3533 37.226 77.6063 35.7115C76.3756 34.6386 75.9915 34.213 75.3884 33.2196C75.0028 32.6016 74.8551 32.3958 74.6592 32.2496C74.3424 32.0076 74.3625 32.1357 74.7103 32.5748C75.0809 33.0367 75.0274 33.1244 74.5909 32.7626C74.2467 32.4682 74.0109 32.1909 73.9617 32.0005C73.9425 31.9399 73.6704 31.676 73.265 31.3287C72.4159 30.6042 71.4082 29.6048 69.0771 27.1575C67.5522 25.5578 67.0633 25.0773 66.4133 24.5185C65.9737 24.137 65.4086 23.6301 65.1577 23.3792C64.8099 23.0314 64.6352 22.8982 64.4459 22.8252C64.196 22.733 64.1846 22.7216 63.9613 22.3405C63.7742 22.0372 63.557 21.7868 62.9111 21.1327L62.0958 20.3173L62.0207 19.9931C61.9483 19.655 61.7975 19.4295 61.7466 19.5945C61.7305 19.6448 61.7107 19.733 61.6946 19.7833C61.665 19.8699 61.5385 19.7683 60.4727 18.8271C60.1254 18.5129 60.031 18.402 59.9134 18.1433C59.7943 17.8747 59.7414 17.8135 59.405 17.5684C59.1763 17.3978 58.5056 16.7686 57.6202 15.8749L56.2061 14.4608L56.185 14.174C56.1717 13.8452 56.0287 13.6689 55.9015 13.8075C55.82 13.9004 55.7718 13.8688 54.8858 13.124C54.2047 12.5507 53.6251 12.0127 52.7382 11.1092C51.4236 9.778 47.5022 5.95617 47.2637 5.78411C47.187 5.72399 46.992 5.64527 46.8369 5.60646L46.5481 5.54179L46.5311 5.25083L46.51 4.96402L46.0777 4.5981C45.8345 4.39648 45.694 4.2975 45.7541 4.37422C45.976 4.65417 45.7883 4.591 45.4803 4.2831C45.3093 4.11204 45.1875 3.94873 45.2083 3.92797C45.2332 3.90306 45.2995 3.92792 45.3509 3.97923C45.6754 4.27054 44.9181 3.39703 44.3593 2.83823C43.4283 1.89896 42.6518 1.23863 42.28 1.07443C41.9378 0.914883 41.3481 0.831716 41.2526 0.927204C41.2194 0.960417 41.0477 0.93822 40.8797 0.878152C40.1952 0.650338 39.6152 0.842579 39.1958 1.44447C39.0224 1.68627 38.9778 1.70808 38.7304 1.69318C38.3269 1.66334 38.1837 1.76093 38.0424 2.17594C37.9307 2.50432 37.899 2.54739 37.7502 2.54799C37.6309 2.55325 37.524 2.63734 37.3641 2.84282C37.1518 3.11213 37.1295 3.12303 36.8422 3.06822C36.4662 2.99946 36.4164 3.04928 36.5153 3.37235ZM38.634 4.19579C38.68 4.45769 38.8172 4.99339 38.9482 5.39839C39.2935 6.43292 39.3157 6.69588 39.0831 7.01966C38.9715 7.16547 38.8889 7.3735 38.8909 7.50835C38.8929 7.73449 38.8887 7.73863 38.7804 7.6303C38.5637 7.41362 38.5292 6.98056 38.6996 6.4452C38.7838 6.15573 38.8416 5.88133 38.8198 5.83466C38.8079 5.78955 38.6644 5.57957 38.5068 5.37219C38.2876 5.07824 38.2208 4.92838 38.2048 4.70485C38.1796 4.33091 38.2513 4.0539 38.4242 3.86967L38.5653 3.72851L38.634 4.19579ZM9.53566 33.2714C9.58128 33.317 9.58382 33.3943 9.53815 33.4399C9.45512 33.523 9.36749 33.4851 9.35304 33.3628C9.32873 33.2388 9.45013 33.1858 9.53566 33.2714ZM41.8369 1.31224C41.9542 1.26342 41.9951 1.27947 42.1568 1.48269C42.4274 1.82797 42.4076 1.91615 42.0741 1.87329C41.6914 1.82269 41.3793 1.51893 41.6081 1.41558C41.6569 1.38962 41.7601 1.3434 41.8369 1.31224ZM36.0319 7.72162C36.0801 7.75323 36.0879 7.8025 36.0505 7.83987C36.0132 7.87723 35.9442 7.86638 35.8929 7.81506C35.7959 7.71813 35.9044 7.6439 36.0319 7.72162ZM8.43466 35.7408C8.50933 35.7574 8.60162 35.8248 8.63063 35.887C8.71561 36.0301 8.39177 36.3539 8.0826 36.435C7.77343 36.5161 7.71491 36.3579 7.98317 36.1695C8.09577 36.0911 8.19386 35.9816 8.19856 35.9199C8.20592 35.7529 8.2796 35.702 8.43466 35.7408ZM9.4543 49.2157C9.54553 49.3069 9.65177 49.4629 9.67557 49.5532C9.72424 49.7098 9.72008 49.7139 9.57543 49.6191C9.42663 49.5284 9.14208 49.1857 9.07371 49.026C9.03125 48.9088 9.26613 49.0275 9.4543 49.2157ZM20.2542 58.5209C20.3854 58.6521 20.3931 58.7926 20.2702 58.7445C20.153 58.702 20.0462 58.5122 20.1044 58.4541C20.1251 58.4334 20.1972 58.4639 20.2542 58.5209ZM74.5311 33.0847C74.6508 33.2045 74.6958 33.3989 74.617 33.4778C74.5422 33.5526 74.408 33.4017 74.3785 33.2145C74.346 33.0076 74.4056 32.9593 74.5311 33.0847ZM75.0712 44.4276C75.1412 44.4146 75.289 44.4378 75.4005 44.4746C75.5841 44.5419 75.6297 44.5875 75.9546 45.0951C76.4173 45.807 76.5443 46.0336 76.4944 46.0834C76.3616 46.2162 76.1141 46.2926 76.0457 46.2242C76.0058 46.1843 75.9006 46.0044 75.8209 45.8332C75.7033 45.5745 75.6188 45.4651 75.3202 45.2163C74.9988 44.9447 74.9558 44.8851 74.9263 44.6979C74.8891 44.4614 74.8974 44.4531 75.0712 44.4276ZM80.2098 39.4942L80.4246 39.4847L80.1194 39.7442C79.9114 39.9181 79.7972 40.0779 79.7519 40.2486C79.6667 40.5619 79.6018 40.6382 79.5724 40.451C79.4995 39.9878 79.8182 39.5095 80.2098 39.4942ZM73.1844 46.8503C73.3213 46.9872 73.3596 47.1085 73.3273 47.3004C73.3028 47.4504 73.2888 47.453 73.1292 47.2933C73.0265 47.1907 72.9644 47.0704 72.9758 46.9905C72.9925 46.7913 73.0761 46.742 73.1844 46.8503ZM74.854 45.979C74.9773 46.2435 75.0077 46.4981 74.919 46.4842C74.8444 46.4676 74.6937 46.0595 74.6881 45.8713C74.6923 45.6845 74.7405 45.7161 74.854 45.979ZM64.2699 57.9886C64.4036 58.1971 64.5154 58.5414 64.4671 58.6011C64.3857 58.6939 64.2281 58.4866 64.1551 58.206C64.0786 57.872 64.1305 57.7745 64.2699 57.9886ZM71.2222 51.5723C71.3252 51.8 71.2665 52.007 71.1083 51.9484C71.0207 51.9106 70.8198 51.3361 70.8562 51.2313C70.905 51.114 71.103 51.3037 71.2222 51.5723ZM60.5012 61.7345C60.5909 61.7246 60.6194 61.7531 60.6334 61.8418C60.6473 61.9305 60.6183 61.9596 60.5156 61.9482C60.2879 61.9364 60.2724 61.7466 60.5012 61.7345ZM81.8766 40.7126C82.0715 40.9739 82.1003 41.4012 81.9121 41.2131C81.8437 41.1447 81.6667 40.569 81.704 40.5317C81.7165 40.5192 81.7963 40.5991 81.8766 40.7126ZM68.1706 54.6239C68.2504 54.795 68.2208 54.8816 68.1036 54.8391C68.016 54.8013 67.9689 54.6546 68.0094 54.5456C68.0567 54.4185 68.0878 54.433 68.1706 54.6239Z" fill="black" stroke="white" stroke-width="4" mask="url(#path-1-inside-1_971_526)"/>
<path fill-rule="evenodd" clip-rule="evenodd" d="M46.5054 22.2666C46.2785 22.2981 46.2689 22.308 46.0216 22.7633L45.7692 23.2279L45.6085 23.0963C45.5201 23.0239 45.2239 22.8299 44.9503 22.665C44.4827 22.3833 44.4332 22.3658 44.1259 22.3727C43.4384 22.3883 42.6753 22.6504 42.3867 22.9702C42.3467 23.0145 42.2742 23.2562 42.2256 23.5073C42.1005 24.153 42.1057 24.1447 41.9607 23.9331C41.8913 23.8319 41.7044 23.6709 41.5455 23.5754C41.1883 23.361 40.4724 23.1671 40.211 23.214C39.8913 23.2714 39.395 23.5719 39.017 23.937L38.6555 24.2861L38.7357 24.6352C38.7798 24.8272 38.831 25.2508 38.8494 25.5766L38.8829 26.1688L38.5778 26.8887C38.1714 27.8475 38.1577 27.9641 38.4084 28.3365C38.5952 28.6141 38.6034 28.6453 38.5912 29.0347C38.5843 29.2589 38.5982 29.5878 38.6223 29.7657C38.663 30.0661 38.6352 30.2115 38.2325 31.8105C37.5403 34.5588 37.5344 34.8736 38.1517 36.1401L38.5103 36.8761L38.4447 37.4809C38.4086 37.8135 38.3555 38.1141 38.3266 38.149C38.2976 38.1838 38.153 38.2644 38.0052 38.328L37.7364 38.4435L37.5381 38.2801C37.4219 38.1843 37.2777 38.1167 37.1898 38.1167H37.0398L37.1466 38.326C37.2587 38.5458 37.4852 39.3028 37.4495 39.3384C37.438 39.3499 37.3991 39.2669 37.363 39.1542C37.2099 38.6758 36.9769 38.1167 36.9307 38.1167C36.8611 38.1167 36.8643 38.1297 37.0167 38.4744C37.0914 38.6433 37.2015 38.9807 37.2615 39.2241C37.3816 39.7119 37.3601 39.9843 37.146 40.687C37.021 41.0973 37.0155 41.2504 37.1226 41.3393C37.2324 41.4304 37.2238 41.6515 37.1016 41.8794C37.0135 42.0438 37.01 42.0822 37.0748 42.1709C37.1799 42.3147 37.1687 42.3955 37.0152 42.5967C36.9413 42.6936 36.8805 42.8188 36.88 42.8751C36.8795 42.9314 36.8251 43.0646 36.7592 43.1709C36.3931 43.7612 36.2966 43.8968 36.0886 44.1134C35.8425 44.3698 35.8466 44.3587 35.8596 44.7364C35.8656 44.9115 35.8246 45.0868 35.7292 45.2955C35.6521 45.4637 35.6041 45.644 35.6216 45.6991C35.6591 45.8173 35.0789 46.4521 34.8344 46.5603C34.7132 46.6139 34.671 46.6802 34.6268 46.8865C34.5963 47.0289 34.5713 47.1784 34.5713 47.2188C34.5713 47.2592 34.5476 47.3003 34.5186 47.3102C34.4368 47.338 34.237 48.575 34.2966 48.6855C34.3241 48.7365 34.4093 48.8369 34.4858 48.9085C34.5624 48.9801 34.625 49.0731 34.625 49.1151C34.625 49.1571 34.4954 49.3885 34.337 49.6294C34.0245 50.1046 33.4162 50.7285 32.6832 51.3258L32.2183 51.7046L32.1998 52.4436L32.1811 53.1826L31.8052 53.7062C31.5871 54.01 31.3915 54.2299 31.3394 54.2299C31.2037 54.2299 30.8964 54.505 30.9765 54.5546C31.0215 54.5824 30.8774 54.8204 30.5103 55.3247C30.2181 55.7261 29.8957 56.1697 29.7939 56.3105C29.6498 56.5097 29.7449 56.4367 30.2236 55.9811C30.5617 55.6592 30.9925 55.2363 31.1808 55.0412C31.3691 54.8461 31.5337 54.7149 31.5465 54.7496C31.5762 54.8301 31.3892 55.2023 31.1505 55.5378C31.0486 55.6809 30.9771 55.8292 30.9917 55.8671C31.0172 55.9335 30.84 56.2168 30.5282 56.6079C30.4463 56.7107 30.2981 57.0334 30.1989 57.3251C30.0997 57.6168 29.9653 57.9884 29.9003 58.1508C29.8352 58.3133 29.7941 58.4342 29.8089 58.4194C29.8236 58.4046 30.0798 58.0662 30.3781 57.6674C30.8822 56.9936 31.3942 56.1375 31.331 56.0743C31.3159 56.0592 31.2799 56.0913 31.2508 56.1455C31.1432 56.3466 30.6504 56.9264 30.6504 56.8521C30.6504 56.8096 30.8162 56.5425 31.0188 56.2585C31.4418 55.6656 31.784 55.0261 32.0907 54.2556C32.4486 53.3558 32.5305 53.0494 32.5924 52.3766L32.6518 51.731L33.2723 51.2215C34.0478 50.5845 34.6495 50.0229 34.8482 49.7504C34.9322 49.6352 35.001 49.5575 35.001 49.5777C35.001 49.7412 34.2277 50.9753 33.7696 51.5428C33.4148 51.9824 33.1952 52.3756 32.8034 53.2734C32.6318 53.6666 32.4119 54.1636 32.3147 54.3779C32.1485 54.7448 32.1434 54.7733 32.2281 54.867C32.3361 54.9863 32.291 55.143 32.1486 55.143C32.0234 55.143 32.0147 55.2808 32.1357 55.3485C32.2108 55.3906 32.1752 55.4465 31.9034 55.7137C31.5283 56.0824 31.1669 56.6654 31.019 57.1407C30.9282 57.4325 30.7022 57.8744 30.3172 58.5134C30.2593 58.6094 30.2226 58.688 30.2356 58.688C30.2645 58.688 30.5674 58.235 30.9771 57.579C31.4562 56.8119 32.2627 55.8394 32.7683 55.419L32.9209 55.2921L32.8843 55.4459C32.8642 55.5304 32.7266 55.7995 32.5787 56.044C32.3034 56.4986 32.3007 56.5082 32.1518 57.5332C32.0755 58.0588 31.796 59.0473 31.5449 59.6798C31.4422 59.9386 31.3775 60.1293 31.4012 60.1039C31.4474 60.0541 32.0008 59.1618 32.4452 58.4204C32.5954 58.1699 32.8249 57.8556 32.9552 57.7222C33.1426 57.5302 33.1938 57.4379 33.1998 57.2804C33.2112 56.9827 33.5319 56.5593 34.0488 56.1598C34.8095 55.5717 35.001 55.3702 35.001 55.1572C35.001 54.9902 35.1359 54.4188 35.3535 53.6643C35.4244 53.4186 35.7062 52.9946 35.7985 52.9946C35.8193 52.9946 35.8269 53.0935 35.8154 53.2145C35.8039 53.3354 35.8118 53.7121 35.833 54.0515L35.8715 54.6686L36.081 54.3284C36.2937 53.9831 36.4969 53.497 36.7232 52.7932C36.792 52.579 36.8738 52.404 36.9049 52.4044C36.9869 52.4053 37.532 52.5536 37.5614 52.583C37.5751 52.5967 37.4259 52.991 37.2299 53.4592C36.9104 54.2224 36.5193 55.2238 36.4736 55.3957C36.4642 55.4313 36.3525 55.5133 36.2255 55.5779C35.9001 55.7434 35.2726 56.2243 35.009 56.5102C34.8864 56.6432 34.7861 56.7235 34.7861 56.6887C34.7861 56.654 35.0629 56.3453 35.4012 56.0028C35.9114 55.4862 36.0494 55.3102 36.2111 54.9698C36.3183 54.7442 36.398 54.5035 36.3883 54.435C36.374 54.3339 36.3215 54.3911 36.1087 54.7402C35.8027 55.2421 35.3141 55.8408 34.8323 56.304C34.4956 56.6278 34.4907 56.6367 34.4907 56.9217C34.4907 57.0808 34.5105 57.2415 34.5347 57.2788C34.5844 57.3557 34.4963 57.8609 34.38 58.1653C34.2882 58.4059 34.2819 58.4888 34.3668 58.3388C34.6245 57.8836 35.5697 56.4501 35.6632 56.3728C35.7715 56.2833 36.7233 55.7876 36.787 55.7876C36.8748 55.7876 35.456 59.1558 35.0676 59.8696L34.8776 60.2187L35.2347 59.8711C35.4311 59.68 35.5918 59.5401 35.5918 59.5603C35.5918 59.5805 35.5426 59.7219 35.4824 59.8746C35.3446 60.2242 35.3737 60.2679 35.5325 59.9498C35.5988 59.8171 35.6611 59.7085 35.6709 59.7085C35.7957 59.7085 34.3394 63.3396 33.8831 64.1665C33.5982 64.6825 33.8141 64.4627 34.2753 63.7671C34.7212 63.0944 34.8684 62.8009 35.7046 60.917C36.0324 60.1784 36.4251 59.2962 36.5773 58.9565L36.854 58.3388L36.8705 58.6342C36.8796 58.7967 36.9098 58.9526 36.9376 58.9807C37.0313 59.075 36.9899 59.3419 36.8573 59.4995C36.7774 59.5944 36.7137 59.7548 36.6941 59.9101C36.6763 60.0503 36.6513 60.2314 36.6384 60.3127C36.5988 60.5625 36.6584 60.4767 36.7504 60.1516C36.7984 59.9817 36.8991 59.7521 36.9741 59.6413C37.0884 59.4724 37.105 59.401 37.0773 59.1988C37.051 59.0072 37.0779 58.8669 37.2087 58.514C37.3252 58.1996 37.3953 57.8715 37.4493 57.3879C37.5281 56.6832 37.5507 56.605 38.2572 54.5953C38.3994 54.1907 38.5252 53.8691 38.5368 53.8807C38.5647 53.9086 38.4504 54.9288 38.3773 55.3042C38.3457 55.4666 38.2259 55.8214 38.111 56.0926C37.9628 56.4428 37.8794 56.7463 37.8232 57.14C37.7797 57.4449 37.6954 57.9118 37.6359 58.1777C37.5764 58.4436 37.5287 58.7457 37.53 58.8491L37.5323 59.0371L37.6191 58.8625C37.7452 58.6092 37.8142 58.6448 37.7753 58.9431C37.7463 59.1652 37.7836 59.1052 38.0633 58.4802C38.2401 58.0853 38.4753 57.614 38.5861 57.4328C38.7481 57.168 38.7884 57.0487 38.7913 56.824C38.7946 56.5763 38.8306 56.4907 39.1074 56.072C39.5737 55.3664 39.9618 54.8521 39.982 54.9128C39.9919 54.9423 39.7923 55.8099 39.5386 56.8407C38.4452 61.2827 38.297 61.9439 38.1978 62.8237C38.1786 62.9935 38.1941 62.978 38.3586 62.6626C38.4587 62.4705 38.5419 62.3331 38.5433 62.3572C38.5491 62.4542 38.154 63.9923 38.0593 64.2417C37.8635 64.757 38.0066 64.548 38.3732 63.7833C38.5767 63.3589 38.7841 62.9271 38.834 62.8237L38.9249 62.6357L38.9017 62.9311L38.8785 63.2265L39.0318 62.9043L39.1852 62.582L39.1878 63.1025C39.1905 63.6353 39.2597 63.8395 39.3159 63.4807C39.3331 63.3704 39.3742 63.0023 39.4073 62.6626C39.4651 62.0683 39.5808 61.38 39.8542 60.0039C39.9999 59.271 39.99 59.2549 40.125 60.4471C40.1626 60.7796 40.2055 61.0637 40.2203 61.0785C40.2351 61.0933 40.2763 60.8576 40.3119 60.5546C40.4191 59.6406 40.4153 59.6547 40.5558 59.6547C40.6845 59.6547 40.7402 59.7891 40.7535 60.1314C40.7583 60.2524 40.7654 60.2458 40.8036 60.0844C40.8728 59.7924 40.882 58.3476 40.8148 58.3252C40.7835 58.3148 40.7422 58.3317 40.723 58.3628C40.5488 58.6446 40.5764 57.8757 40.8316 55.331C40.9148 54.5018 41.0032 53.9351 41.0693 53.8088C41.09 53.7692 41.1215 54.1922 41.1394 54.7487C41.1826 56.0933 41.2927 57.5005 41.3444 57.3684C41.3668 57.3113 41.3896 56.5758 41.3951 55.7338C41.4086 53.6792 41.4589 53.1642 41.521 54.4448C41.5964 56.0023 41.6215 56.0715 41.7402 55.0497C41.7959 54.5699 41.8521 54.1881 41.8651 54.2012C41.8781 54.2141 41.8581 54.51 41.8205 54.8585C41.7804 55.2307 41.7565 56.0351 41.7626 56.8081C41.7682 57.5318 41.7507 58.2392 41.7238 58.38L41.6747 58.636L42.8898 60.3972C43.5582 61.3659 44.1587 62.2296 44.2243 62.3166C44.3686 62.5076 44.0966 61.8719 43.2678 60.0812C42.9457 59.3852 42.6548 58.6796 42.6214 58.5131C42.5436 58.1259 42.6197 56.7353 42.8381 54.5522C42.9253 53.6807 43.0138 52.7065 43.0346 52.3872L43.0727 51.8067L43.4434 51.62C43.6472 51.5174 43.8364 51.4472 43.8638 51.4641C43.9288 51.5043 43.869 51.8161 43.7754 51.9246C43.7351 51.9712 43.705 52.0921 43.7084 52.1932C43.7123 52.3065 43.7245 52.3358 43.7405 52.2695C43.7916 52.057 43.8633 52.0586 43.8634 52.2722C43.8635 52.481 43.8953 52.5575 44.209 53.1022C44.3594 53.3633 44.3697 53.3707 44.4293 53.2593L44.4918 53.1425L44.5259 53.27C44.5447 53.3401 44.5604 53.5931 44.5608 53.8322C44.5614 54.1982 44.5785 54.2824 44.669 54.3642C44.7944 54.4777 44.8035 54.6325 44.6958 54.8208C44.6352 54.9267 44.6198 55.2097 44.6223 56.1635L44.6257 57.372L44.7692 56.4589C44.8481 55.9567 44.9364 55.5096 44.9653 55.4653C44.9951 55.4197 45.0195 54.8954 45.0215 54.2568C45.0235 53.6364 45.0443 52.9957 45.0678 52.8328L45.1104 52.5368L44.9031 52.4029L44.6958 52.2689L44.6616 51.6008C44.6277 50.9402 44.6287 50.9316 44.7566 50.8309C44.9764 50.6582 45.0474 50.4423 45.1016 49.7833C45.2283 48.2399 45.4759 47.4835 46.2213 46.3613C46.3979 46.0954 46.4195 46.0365 46.3444 46.0246C45.9169 45.9566 45.6165 45.8757 45.4779 45.7915C45.3408 45.7081 45.3137 45.6579 45.3147 45.4893C45.3164 45.1954 45.4795 44.8813 45.7559 44.6395L45.998 44.4277L46.0573 43.8205C46.1174 43.2061 46.2229 42.8672 46.4395 42.5917C46.5808 42.4121 46.578 42.2634 46.4303 42.1063C46.3119 41.9802 46.3118 41.9797 46.4144 41.7893C46.6116 41.4229 47.0614 41.0821 47.8687 40.6874L48.6315 40.3143L49.027 39.7947C49.9852 38.5354 51.0516 37.6884 52.5968 36.9593C52.9248 36.8046 53.2083 36.6384 53.2268 36.59C53.3371 36.3026 53.3828 35.4992 53.3215 34.9255C53.186 33.6574 53.3768 33.2068 54.7257 31.6095C54.9839 31.3038 55.248 30.9543 55.3125 30.8329L55.4298 30.6121L55.3053 30.2792C55.2369 30.0961 54.9947 29.6836 54.7673 29.3626C54.3 28.7034 54.1009 28.2972 54.1051 28.0118C54.1079 27.8269 54.1466 27.7248 54.3569 27.3476C54.4063 27.259 54.5237 27.0173 54.6178 26.8105C54.7119 26.6037 54.7968 26.42 54.8064 26.4022C54.8258 26.3664 54.3924 26.2248 54.0126 26.1427C53.7316 26.082 53.2064 26.1714 52.8074 26.3479L52.5645 26.4554V25.472V24.4887L52.4168 24.3388C52.1986 24.1174 51.6625 23.7302 51.356 23.5726C51.1252 23.4539 51 23.4312 50.4665 23.4109L49.8456 23.3873L49.54 23.725L49.2344 24.0627V23.6111V23.1595L48.8509 22.7909C48.2562 22.2193 48.2512 22.2173 47.4351 22.2265C47.051 22.2308 46.6327 22.2488 46.5054 22.2666ZM46.6702 22.6296C46.5815 22.6655 46.0695 23.3839 45.5663 24.1787C45.0404 25.0095 44.7941 25.2832 44.0612 25.8517C43.2607 26.4726 43.0663 26.6632 43.0035 26.8892C42.8937 27.2846 42.941 27.5105 43.1985 27.8201C43.32 27.9661 43.5434 28.5857 43.5387 28.7632C43.5373 28.8118 43.483 28.7548 43.4178 28.6367L43.2993 28.4218L43.2876 28.8515C43.2564 29.9954 43.1598 30.7519 42.9466 31.5226C42.5396 32.9934 42.2252 34.8977 42.187 36.1217L42.1714 36.6243L42.6674 36.7718L43.1633 36.9194L43.303 36.4573C43.5656 35.5888 43.9259 34.509 43.9463 34.5294C43.9575 34.5406 43.8955 34.7783 43.8084 35.0576C43.6658 35.5151 43.4351 36.4984 43.3552 36.9887C43.298 37.3403 43.2964 37.3406 42.5854 37.1144C42.1502 36.9759 41.9293 36.8791 41.9131 36.8198C41.8948 36.7527 41.7703 36.7152 41.3974 36.6642C40.7371 36.574 40.6846 36.4771 41.3205 36.5222L41.8025 36.5565L41.8651 35.8919C41.9469 35.0233 42.1167 34.2359 42.577 32.5896C42.7845 31.8476 42.981 31.0326 43.0139 30.7786C43.1011 30.1023 42.9945 28.5357 42.8156 27.8673C42.7419 27.592 42.6817 27.3201 42.6817 27.2632C42.6817 27.0884 42.5821 27.1485 42.5641 27.3342L42.5471 27.5087L42.4633 27.2703C42.3225 26.87 42.0857 26.7608 41.5682 26.8576L41.341 26.9001L41.8399 26.3988C42.1143 26.1231 42.4299 25.7925 42.5413 25.6644C42.6526 25.5362 42.7557 25.4433 42.7704 25.458C42.7851 25.4727 42.763 25.668 42.7212 25.892C42.6507 26.2707 42.6521 26.3055 42.7411 26.386C42.8314 26.4677 42.8545 26.4353 43.152 25.8091C43.3253 25.4441 43.6884 24.815 43.9589 24.411L44.4506 23.6765L44.1972 23.5248C44.0579 23.4413 43.8714 23.3446 43.7827 23.3099C43.6941 23.2753 43.648 23.2451 43.6802 23.2428C43.7583 23.2374 44.1285 23.3554 44.584 23.531C44.8321 23.6267 44.9338 23.6481 44.89 23.5954C44.7946 23.4804 44.1964 23.2533 43.7934 23.1791C43.4472 23.1152 43.4425 23.1161 43.1303 23.2905L42.8159 23.4661L42.974 23.2984C43.061 23.2061 43.2181 23.1068 43.3231 23.0775C43.6003 23.0006 44.3389 23.0163 44.5864 23.1044C44.8996 23.216 44.8768 23.1649 44.5497 23.0223C44.2154 22.8765 43.5228 22.8197 43.1866 22.9105C43.0655 22.9432 42.8852 23.0247 42.786 23.0916C42.6208 23.2028 42.6 23.2482 42.5418 23.6246C42.4208 24.4072 42.1989 24.9206 41.7532 25.4494C41.044 26.2905 40.9692 26.4017 40.8549 26.7856C40.7926 26.9946 40.7492 27.242 40.7583 27.3352C40.7736 27.4909 40.8023 27.514 41.1118 27.6203C41.5292 27.7636 41.6427 27.8624 41.8032 28.222C41.9831 28.6251 41.9607 28.6587 41.7173 28.3508C41.4287 27.9856 41.3827 27.9706 41.4764 28.2722C41.6534 28.8416 41.7153 29.2055 41.7486 29.872C41.7678 30.2561 41.77 30.5581 41.7536 30.5433C41.7371 30.5285 41.6964 30.311 41.6631 30.0599C41.5866 29.4838 41.4203 28.8618 41.2723 28.5984C41.1574 28.394 41.0724 28.3373 41.0679 28.4621C41.0666 28.4991 41.0364 28.5974 41.0008 28.6807C40.9424 28.8173 40.9361 28.7937 40.9361 28.439C40.9361 28.0666 40.9254 28.0322 40.7346 27.7866C40.4959 27.4794 40.4815 27.318 40.6438 26.773C40.7381 26.4566 40.7448 26.3727 40.6898 26.206C40.6449 26.0697 40.6345 25.7574 40.6556 25.1779C40.6821 24.4521 40.675 24.3374 40.5996 24.2823C40.5227 24.2261 40.5264 24.2149 40.6332 24.181C40.7051 24.1582 40.7863 24.1704 40.8358 24.2114C40.9189 24.2804 40.9188 24.2861 40.8234 24.9575C40.8042 25.0921 40.8291 25.054 40.9109 24.8232C40.9738 24.646 41.0474 24.478 41.0746 24.4499C41.1018 24.4219 41.124 24.3541 41.124 24.2995C41.124 24.1515 40.8114 24.0451 40.3604 24.0396L39.9693 24.0348L40.2378 23.9577C40.3855 23.9153 40.6466 23.8751 40.8179 23.8685C41.126 23.8566 41.1277 23.8557 40.9624 23.7878C40.5102 23.6021 39.9493 23.6801 39.4497 23.998C39.0739 24.2372 39.0694 24.2475 39.1644 24.6572C39.2751 25.1348 39.2734 26.0265 39.161 26.4077C39.113 26.5701 38.9623 26.8947 38.826 27.129C38.5495 27.604 38.5156 27.8271 38.6852 28.0543C38.7442 28.1332 38.8854 28.23 38.9992 28.2695C39.3105 28.3772 39.4255 28.5062 39.5398 28.8756L39.5804 29.0071L39.4056 28.86C39.3094 28.7791 39.2213 28.7222 39.2098 28.7336C39.1984 28.7451 39.2462 28.885 39.3161 29.0447C39.4992 29.4632 39.7676 30.2663 39.8079 30.5166C39.8343 30.6809 39.7783 30.5938 39.5695 30.1458C39.2698 29.503 39.0975 29.2006 39.0309 29.2006C39.0071 29.2006 38.9868 29.4967 38.986 29.8586C38.9847 30.3988 38.9451 30.725 38.7646 31.6809C38.2872 34.2094 38.2484 34.6857 38.4667 35.3277C38.7654 36.2064 39.2685 37.4923 39.374 37.6469C39.4501 37.7585 39.6834 37.9112 40.1035 38.1246C40.7162 38.4357 41.8702 38.9223 41.9954 38.9223C42.0313 38.9223 41.9176 38.7777 41.7427 38.6011C41.3814 38.236 40.9353 37.9844 40.2647 37.7675C39.8304 37.6271 39.5381 37.4794 39.835 37.5503C39.9088 37.568 40.3104 37.6522 40.7273 37.7374C41.8352 37.9639 42.6426 38.3173 43.1269 38.7877C43.3707 39.0244 43.3839 38.9645 43.157 38.6512C42.8388 38.2119 42.2292 37.654 41.8187 37.4264C41.5991 37.3046 41.461 37.2046 41.5118 37.2043C41.6414 37.2033 43.4012 37.8302 43.7278 37.9937C44.1561 38.2081 44.6147 38.4929 44.981 38.7717C45.1674 38.9136 45.351 39.0297 45.389 39.0297C45.4269 39.0297 45.5018 38.9814 45.5552 38.9223C45.6393 38.8295 45.6409 38.8149 45.5673 38.8149C45.5205 38.8149 45.4443 38.8529 45.3979 38.8993C45.3212 38.976 45.3135 38.9735 45.3135 38.8712C45.3135 38.6032 44.5534 37.9743 43.7478 37.5759C43.3066 37.3577 43.2861 37.3398 43.3402 37.2211C43.4065 37.0757 43.4721 37.0667 43.6801 37.1747C43.7634 37.2179 43.84 37.2447 43.8505 37.2343C43.8608 37.2239 43.8275 37.0876 43.7764 36.9314C43.6968 36.6878 43.6923 36.5964 43.745 36.2892C43.8096 35.9125 44.1081 34.9765 44.6786 33.3615C45.0085 32.4278 45.0361 32.373 45.4491 31.8324C45.6847 31.524 46.1131 31.0264 46.4011 30.7267C46.6891 30.4269 46.9248 30.1657 46.9248 30.1463C46.9248 30.0387 46.5038 30.3625 45.9619 30.8866C45.5187 31.3154 45.4123 31.4002 45.5841 31.1879C46.0027 30.6708 46.6749 30.0315 46.9284 29.9095C47.0639 29.8443 47.2768 29.7915 47.4045 29.7915C47.6022 29.7915 47.6616 29.7628 47.8173 29.5928C48.05 29.3389 48.2321 28.8636 48.1976 28.601C48.1601 28.3167 47.8735 27.9314 47.5758 27.7652L47.3221 27.6236L47.6203 27.4656C47.7843 27.3787 48.0272 27.2295 48.1602 27.1341C48.2931 27.0386 48.5147 26.8954 48.6525 26.8159L48.9032 26.6712L48.8217 26.9825C48.747 27.2679 48.748 27.3186 48.8337 27.5893C48.9097 27.8298 48.9347 27.8647 48.9685 27.7773C48.9912 27.7182 49.0635 27.53 49.1292 27.3591C49.1948 27.1881 49.367 26.9 49.5118 26.7188C49.9463 26.1753 50.813 25.2272 50.9013 25.1989C50.9466 25.1843 51.1098 25.2051 51.2639 25.245C51.4179 25.285 51.5439 25.3031 51.5437 25.2853C51.5432 25.1889 51.3098 24.8951 51.092 24.7166C50.955 24.6044 50.852 24.5036 50.863 24.4927C50.874 24.4817 50.9718 24.5098 51.0804 24.5552C51.3133 24.6525 51.6872 25.0107 51.7625 25.2088C51.87 25.4918 51.8618 25.2873 51.7525 24.9638C51.6903 24.7797 51.6519 24.6168 51.6671 24.6016C51.6823 24.5864 51.7964 24.6259 51.9206 24.6892C52.2959 24.8807 52.1467 24.6914 51.6756 24.3783C51.0449 23.9592 50.636 23.7758 50.3322 23.7758C50.0834 23.7758 50.0648 23.7874 49.7089 24.1652C49.5072 24.3794 49.2172 24.7359 49.0644 24.9575C48.5273 25.7364 48.3668 25.8909 47.783 26.1908C47.479 26.347 47.1014 26.595 46.9166 26.7599C46.7364 26.9207 46.5688 27.0522 46.544 27.0522C46.5192 27.0522 46.4377 27.1424 46.3628 27.2527C46.1969 27.4969 46.1785 27.9375 46.316 28.3738C46.4044 28.6542 46.4037 28.6628 46.2569 29.1142C46.1752 29.3654 46.0734 29.6145 46.0308 29.6678C45.9609 29.7548 45.9565 29.7419 45.9868 29.5388C46.0333 29.2257 45.9234 28.7172 45.8091 28.7172C45.6642 28.7172 45.1401 29.3042 44.8377 29.8053C44.4235 30.4917 43.7659 31.9598 43.4891 32.8163C43.4527 32.929 43.4108 33.0092 43.3959 32.9944C43.3811 32.9795 43.407 32.851 43.4534 32.7088C43.6045 32.2457 43.9057 30.9661 44.0768 30.06C44.3555 28.5843 44.3782 28.5137 44.6757 28.1968C44.8197 28.0434 44.9403 27.8863 44.9437 27.8477C44.9647 27.609 44.7928 27.1606 44.6027 26.9583C44.5037 26.8529 44.451 26.8403 44.216 26.8655C43.9825 26.8906 43.9584 26.8849 44.0462 26.8258C44.6334 26.43 45.4334 25.9243 45.4722 25.9243C45.499 25.9243 45.4597 26.1063 45.385 26.3288C45.2994 26.5831 45.2618 26.7843 45.2835 26.871C45.3163 27.0014 45.332 26.9891 45.5792 26.6411C45.7228 26.4388 46.2141 25.881 46.6709 25.4013C47.4992 24.5318 47.6697 24.2936 48.0378 23.4918L48.1571 23.232L47.9841 23.1618C47.8889 23.1231 47.7385 23.0662 47.6499 23.0351L47.4888 22.9787L47.6804 22.9744C47.9247 22.969 48.3839 23.1045 48.5328 23.2258C48.5959 23.2772 48.684 23.416 48.7285 23.5341L48.8095 23.749L48.7821 23.4613C48.7671 23.3031 48.7252 23.1381 48.6891 23.0946C48.5892 22.9742 48.1446 22.7639 47.8007 22.6743C47.5099 22.5986 46.815 22.5711 46.6702 22.6296ZM44.3862 24.0578C44.1556 24.3462 43.9561 24.6352 43.9875 24.6352C44.0079 24.6352 44.31 24.2549 44.5512 23.9254C44.6922 23.7328 44.5635 23.8361 44.3862 24.0578ZM51.2074 25.1253C51.2438 25.162 51.2872 25.1785 51.3037 25.162C51.3202 25.1454 51.2904 25.1154 51.2374 25.0952C51.1609 25.0661 51.1547 25.0722 51.2074 25.1253ZM53.5893 26.6159C53.3897 26.6717 53.1016 27.1264 53.1016 27.3857C53.1016 27.5588 53.1375 27.636 53.2882 27.7867C53.3909 27.8893 53.4962 27.9601 53.5224 27.9439C53.609 27.8904 54.1217 26.9604 54.1542 26.7978C54.1834 26.6515 54.1715 26.6351 54.0131 26.6034C53.816 26.564 53.77 26.5653 53.5893 26.6159ZM39.7658 26.8508C39.6615 26.9764 39.486 27.1735 39.3756 27.2889L39.1749 27.4986L39.4378 27.4527C39.5824 27.4274 39.8578 27.4039 40.0498 27.4004C40.3924 27.3942 40.3993 27.3912 40.4169 27.2402C40.4377 27.0621 40.2642 26.8942 40.0574 26.8923C39.9493 26.8912 39.9357 26.8714 39.9645 26.7568C39.983 26.6829 39.9885 26.6225 39.9768 26.6225C39.965 26.6225 39.8701 26.7252 39.7658 26.8508ZM52.8524 26.9082C52.3828 27.2541 51.9045 27.8074 51.6471 28.3022C51.4568 28.6678 51.4152 28.8035 51.3967 29.1184C51.3823 29.3632 51.4016 29.5716 51.4515 29.7109L51.5285 29.9257L51.753 29.4961C51.9536 29.1121 51.974 29.0889 51.9443 29.2783C51.9261 29.3948 51.8523 29.6063 51.7803 29.7482C51.7084 29.8902 51.6587 30.0063 51.67 30.0063C51.6811 30.0063 51.7837 29.9321 51.8979 29.8414C52.0238 29.7413 52.1136 29.7009 52.1261 29.7386C52.1563 29.8292 51.8308 30.1521 51.4903 30.3692C51.0954 30.621 50.9277 30.781 50.6818 31.1405L50.4755 31.4421L50.7612 31.4715C51.0788 31.5044 51.4075 31.6513 51.5708 31.8335C51.6689 31.943 51.6606 31.9415 51.4751 31.8163C51.2836 31.6871 50.5411 31.4747 50.4832 31.5326C50.406 31.6097 50.5527 31.7262 50.8553 31.828C51.4262 32.0203 51.4435 32.0449 51.4253 32.64L51.4097 33.1484L51.3142 32.8751C51.2618 32.7248 51.153 32.5404 51.0725 32.4654C50.9295 32.332 50.7285 32.2085 50.6546 32.2085C50.5971 32.2085 50.6728 32.5198 50.8192 32.8856C50.9744 33.2735 50.9951 33.5665 50.8979 33.9968C50.8106 34.3829 50.7466 34.438 50.7779 34.0999C50.8028 33.8318 50.7187 33.5238 50.6348 33.5756C50.6073 33.5926 50.5705 33.561 50.5528 33.5054C50.5352 33.4498 50.4758 33.3636 50.4209 33.3139C50.3262 33.2282 50.3182 33.2313 50.2655 33.3739C50.1899 33.579 49.4171 35.5948 49.3671 35.7173C49.3073 35.8641 50.1875 35.4074 50.6946 35.0287L51.1035 34.7233L51.2945 34.1776C51.4582 33.7099 51.6209 33.1821 51.7275 32.7724C51.7429 32.7133 51.7451 32.8269 51.7325 33.0249C51.7057 33.4456 51.5834 33.9021 51.3992 34.2682C51.3271 34.4115 51.2773 34.5378 51.2885 34.549C51.2996 34.5601 51.4183 34.455 51.5523 34.3154C51.7778 34.0803 51.8004 34.0307 51.857 33.6465C51.8906 33.4182 51.9661 33.0949 52.0248 32.928C52.1657 32.5271 52.7396 31.4745 53.0263 31.0913C53.194 30.8672 53.2396 30.7683 53.1984 30.7186C53.1544 30.6657 53.1787 30.6582 53.3099 30.6845C53.4021 30.7029 53.4776 30.7048 53.4776 30.6887C53.4776 30.6726 53.3205 30.5441 53.1284 30.4031C52.9364 30.2621 52.7793 30.1404 52.7793 30.1326C52.7793 30.0498 53.8781 30.588 54.1138 30.7864L54.2832 30.929V30.7434C54.2832 30.6362 54.2355 30.4973 54.1702 30.4142C53.9548 30.1403 53.205 29.8366 52.5913 29.7748L52.4302 29.7585L52.5913 29.689C52.8408 29.5814 53.5444 29.6536 54.0779 29.8415C54.4662 29.9783 54.5074 29.9846 54.3912 29.8896C54.0176 29.5841 53.3525 29.3644 52.7815 29.3577L52.4302 29.3536L52.6182 29.2812C52.7216 29.2414 52.9573 29.207 53.1419 29.2047C53.4885 29.2005 53.5597 29.1438 53.3657 29.0265C53.198 28.9253 53.0746 28.6421 52.9412 28.0526C52.8062 27.4561 52.8204 27.2312 53.0088 26.9801C53.2893 26.6062 53.2725 26.5985 52.8524 26.9082ZM52.5776 27.5681C52.5148 27.7786 52.3482 28.6795 52.3512 28.7914C52.3561 28.9689 52.4635 28.6127 52.5648 28.0835C52.6827 27.4671 52.6895 27.1921 52.5776 27.5681ZM50.9324 27.6958C50.7196 27.9233 50.6874 27.9856 50.7177 28.112C50.7679 28.3213 50.7676 28.3214 50.9187 28.0635C51.0628 27.8175 51.237 27.4282 51.2029 27.4282C51.1918 27.4282 51.0701 27.5486 50.9324 27.6958ZM45.6451 27.6587C45.6037 27.7084 45.6082 27.8035 45.6605 27.9944L45.7336 28.2607L45.7384 27.925C45.7435 27.5695 45.7362 27.5488 45.6451 27.6587ZM47.9453 27.6394C47.9453 27.6718 48.0338 27.8317 48.1421 27.9947C48.2502 28.1576 48.3684 28.405 48.4047 28.5444C48.4651 28.777 48.4736 28.7863 48.5074 28.6573C48.5605 28.4545 48.4523 28.1118 48.2527 27.8509C48.0778 27.6222 47.9453 27.531 47.9453 27.6394ZM43.6771 27.7694C43.5805 27.84 43.5805 27.8551 43.6781 28.3199C43.7742 28.7775 43.7805 28.7898 43.8263 28.6098C43.8527 28.5064 43.911 28.296 43.9559 28.1422C44.0009 27.9883 44.0234 27.8252 44.0059 27.7796C43.9666 27.6773 43.8096 27.6725 43.6771 27.7694ZM39.6974 27.9814C39.6827 28.0198 39.7351 28.2192 39.8139 28.4245C39.8927 28.6299 40.0131 28.967 40.0816 29.1738C40.1908 29.5035 40.2066 29.5266 40.2099 29.3618C40.214 29.1561 39.8339 27.9151 39.7662 27.9129C39.7431 27.9122 39.7121 27.943 39.6974 27.9814ZM50.4767 28.4084C50.3726 28.7281 50.2484 29.3186 50.2786 29.3494C50.3061 29.3774 50.5743 28.5269 50.6093 28.301C50.6599 27.9736 50.6032 28.0195 50.4767 28.4084ZM46.7769 28.4621C46.6705 28.5759 46.1936 29.7226 46.2352 29.7643C46.2459 29.775 46.3385 29.639 46.441 29.4623C46.5836 29.2163 46.6497 29.1479 46.7224 29.1708C47.0736 29.2812 47.052 29.2893 47.0144 29.0614C46.9953 28.9459 46.9794 28.7367 46.9791 28.5964C46.9785 28.311 46.9413 28.2863 46.7769 28.4621ZM50.4009 29.8989C50.3512 30.0789 50.3523 30.4362 50.4026 30.4352C50.5462 30.4322 50.5695 30.3462 50.5045 30.0587C50.4475 29.8064 50.4327 29.7837 50.4009 29.8989ZM41.0378 31.5639C41.0409 32.4058 41.0276 33.421 41.0083 33.8198C40.9851 34.2978 40.9887 34.435 41.019 34.2226C41.0929 33.7039 41.1353 31.2674 41.0815 30.624C41.0398 30.1244 41.033 30.2695 41.0378 31.5639ZM47.7458 30.7594C47.392 30.9615 46.5907 31.7217 46.0696 32.3498C45.3532 33.2132 44.8192 34.2496 44.4844 35.4263C44.1992 36.4287 44.1895 36.3067 44.5745 36.5659C44.7594 36.6903 45.1594 36.9814 45.4634 37.2127C45.7674 37.444 46.0265 37.6333 46.0391 37.6333C46.0518 37.6333 46.2328 37.5228 46.4415 37.3879C46.9471 37.0608 47.3272 36.8983 47.7682 36.8207C48.2028 36.7442 48.3193 36.6524 48.4983 36.2459C48.7229 35.7361 48.7212 35.6569 48.4929 35.9951C48.2725 36.3216 47.9132 36.7059 47.8693 36.662C47.8561 36.6488 48.0022 36.3967 48.194 36.1017C48.5603 35.5382 48.9412 34.7916 49.1048 34.3166L49.202 34.0345L48.9703 32.8664C48.8429 32.2239 48.7201 31.6499 48.6973 31.5908C48.6591 31.4917 48.653 31.4944 48.6184 31.6256C48.5966 31.7084 48.6509 32.2139 48.7482 32.8341C48.8402 33.4205 48.9259 33.997 48.9387 34.1152L48.9619 34.33L48.9049 34.142C48.6992 33.4633 48.5512 33.0296 48.3686 32.5699C48.254 32.2813 48.1602 31.9968 48.1602 31.9378C48.1602 31.8787 48.2168 31.7402 48.286 31.63C48.6115 31.1116 48.5836 31.0712 48.2477 31.5747C48.1353 31.743 48.0052 31.9122 47.9584 31.9506C47.8832 32.0125 47.8774 32.0005 47.9081 31.8459C47.9271 31.7499 47.9299 31.6713 47.9143 31.6713C47.8162 31.6713 46.7536 32.3311 46.5304 32.5307C46.2637 32.7691 46.2651 32.7662 46.6327 32.3197C46.8376 32.0707 47.2438 31.5921 47.5351 31.256C47.8264 30.9199 48.0551 30.6353 48.0432 30.6234C48.0314 30.6116 47.8976 30.6728 47.7458 30.7594ZM49.4347 31.5371C49.4604 32.0761 49.4748 32.1408 49.5998 32.2751C49.6751 32.3559 49.7424 32.4164 49.7493 32.4093C49.7561 32.4022 49.6818 32.0701 49.5842 31.6713L49.4066 30.9462L49.4347 31.5371ZM39.5226 32.6484C39.5172 33.0824 39.5308 33.4487 39.553 33.4626C39.5752 33.4763 39.5869 33.2421 39.5791 32.942C39.5534 31.9547 39.5327 31.8471 39.5226 32.6484ZM38.96 33.0034C39.0308 33.2013 39.4374 33.7093 39.5261 33.7108C39.5778 33.7117 39.6201 33.6997 39.6201 33.6844C39.6201 33.669 39.499 33.5022 39.351 33.3139C39.0806 32.9698 38.8954 32.8227 38.96 33.0034ZM43.2767 33.314C43.2793 33.3766 43.292 33.3893 43.3092 33.3465C43.3247 33.3077 43.3228 33.2613 43.3049 33.2435C43.2871 33.2257 43.2744 33.2574 43.2767 33.314ZM39.6337 33.9406C39.4118 34.0957 39.4117 34.1524 39.6336 34.0778C39.8506 34.0048 39.9501 33.9295 39.9118 33.8674C39.8678 33.7963 39.8236 33.8079 39.6337 33.9406ZM48.3019 35.133C48.1944 35.3285 48.1065 35.5048 48.1065 35.5247C48.1065 35.5446 48.2152 35.4542 48.3482 35.3237C48.5882 35.0881 48.6299 34.9866 48.5428 34.8492C48.5105 34.7982 48.4408 34.8804 48.3019 35.133ZM39.2501 34.9137C39.1697 35.0106 39.1942 35.0282 39.9285 35.4015C40.3472 35.6143 40.5887 35.7743 40.7162 35.9232C40.8768 36.1108 40.9142 36.1304 41.0121 36.0781C41.0737 36.0451 41.124 35.9924 41.124 35.961C41.124 35.8397 40.7873 35.6 40.1645 35.2781C39.8079 35.0938 39.5019 34.9199 39.4844 34.8916C39.4385 34.8175 39.3207 34.8286 39.2501 34.9137ZM47.6231 35.1074C47.6231 35.4031 47.7338 36.0893 47.7918 36.1535C47.8457 36.2133 47.8449 35.2527 47.7908 35.0591C47.7273 34.8317 47.6231 34.8617 47.6231 35.1074ZM45.8506 35.5642C45.4455 35.75 45.4029 35.7939 45.5418 35.8816C45.5938 35.9143 45.7322 35.8599 45.9857 35.707C46.1883 35.5848 46.3751 35.4848 46.4009 35.4848C46.4267 35.4848 46.4328 35.4607 46.4146 35.4311C46.3627 35.3472 46.2823 35.3661 45.8506 35.5642ZM51.3631 35.5774C51.1867 35.6963 50.6929 35.887 49.8448 36.1637L48.5878 36.5737L48.4427 36.8319C48.3166 37.0561 48.2513 37.1095 47.9468 37.2366C47.754 37.3171 47.3126 37.5239 46.9659 37.6961C46.6193 37.8683 46.299 38.0092 46.2542 38.0092C46.2095 38.0092 46.1729 38.0348 46.1729 38.0661C46.1729 38.0974 46.0973 38.217 46.0049 38.3319C45.8484 38.5267 45.8233 38.7075 45.9529 38.7075C45.9814 38.7075 46.1412 38.5531 46.308 38.3643C46.5797 38.0568 46.6916 37.9809 47.388 37.6318C47.8153 37.4176 48.2832 37.1482 48.4277 37.0331C48.6353 36.8678 48.7195 36.8311 48.8282 36.8584C48.9388 36.8861 48.966 36.8734 48.9666 36.7931C48.9671 36.7382 48.9909 36.6571 49.0196 36.6128C49.0577 36.5537 49.0718 36.5926 49.0725 36.7584C49.073 36.9241 49.041 37.0149 48.9524 37.0984L48.8316 37.2121L49.0464 37.176C49.3795 37.1199 50.4016 36.8903 50.8189 36.7776L51.1948 36.6762L50.3892 36.6697C49.4394 36.6621 49.4354 36.6693 50.6292 36.2304L51.46 35.925L51.5572 35.6961C51.6107 35.5702 51.6477 35.4523 51.6395 35.4341C51.6312 35.4159 51.5069 35.4804 51.3631 35.5774ZM45.0722 36.1288C45.03 36.1971 45.1815 36.4516 45.2644 36.4516C45.3596 36.4516 45.2963 36.1052 45.1976 36.0865C45.1487 36.0773 45.0923 36.0963 45.0722 36.1288ZM36.6123 37.2205C36.6123 37.3078 36.7817 37.4721 36.8717 37.4721C36.9801 37.4721 36.9408 37.3895 36.7735 37.2658C36.6587 37.1809 36.6123 37.1679 36.6123 37.2205ZM41.2751 37.1865C41.3139 37.2021 41.3602 37.2001 41.378 37.1823C41.3959 37.1645 41.3642 37.1518 41.3076 37.1541C41.245 37.1567 41.2323 37.1694 41.2751 37.1865ZM37.282 37.5285C37.231 37.6111 37.3009 37.6644 37.3699 37.5954C37.4084 37.5569 37.4093 37.5269 37.3727 37.5042C37.3426 37.4856 37.3018 37.4966 37.282 37.5285ZM45.4189 37.6576C45.4545 37.7006 45.5657 37.8879 45.6659 38.0739C45.7662 38.2599 45.8487 38.3837 45.8494 38.3491C45.8501 38.3144 45.9105 38.2148 45.9839 38.1277L46.1171 37.9693L45.8235 37.7745C45.5188 37.5721 45.2941 37.5072 45.4189 37.6576ZM38.8979 37.7256C38.8389 37.8795 38.8704 38.0058 38.989 38.091C39.0555 38.1387 39.5933 38.46 40.1841 38.8051L41.2583 39.4326L41.7846 39.4201C42.1189 39.4121 42.299 39.4268 42.2783 39.4603C42.2603 39.4894 42.2124 39.5131 42.1717 39.5131C42.1311 39.5131 42.0321 39.5381 41.9518 39.5687L41.8057 39.6242L41.9617 39.7884C42.0475 39.8788 42.1869 40.0024 42.2716 40.0632L42.4255 40.1738L42.3878 40.0552C42.3513 39.9401 42.3596 39.9414 42.6658 40.0959C42.8393 40.1836 43.1821 40.4041 43.4276 40.5861C43.673 40.7681 43.8846 40.9062 43.8978 40.8931C43.956 40.8349 43.2404 40.2674 42.9005 40.1021C42.6943 40.0019 42.5316 39.9138 42.5389 39.9065C42.553 39.8925 43.4939 40.1716 43.6707 40.2423C43.7465 40.2726 43.7624 40.2655 43.7314 40.2152C43.6733 40.1213 43.1011 39.8565 42.7765 39.7733C42.5969 39.7272 42.4953 39.6689 42.4672 39.5955C42.4443 39.5354 42.3803 39.4462 42.3253 39.3972C42.2702 39.3482 41.4832 38.9346 40.5764 38.4781C39.3184 37.8447 38.9207 37.6664 38.8979 37.7256ZM35.424 37.9113C35.4879 38.0095 35.5926 38.1805 35.6565 38.2912C35.7204 38.402 35.8045 38.4926 35.8434 38.4926C35.9279 38.4926 35.9294 38.468 35.8599 38.2241C35.7842 37.9586 35.7487 37.917 35.515 37.8194L35.3077 37.7327L35.424 37.9113ZM36.8932 37.8045C36.9264 37.9041 37.042 37.9206 37.042 37.8257C37.042 37.7789 37.0038 37.7407 36.957 37.7407C36.9102 37.7407 36.8815 37.7694 36.8932 37.8045ZM43.1156 38.2097C43.1196 38.2467 44.0525 39.0777 44.5489 39.4863C44.732 39.637 44.7268 39.6246 44.4684 39.2953C44.0957 38.8202 43.7192 38.4766 43.387 38.3082C43.2354 38.2314 43.1133 38.1871 43.1156 38.2097ZM48.1069 38.6865C47.6701 38.9425 47.6353 38.9996 48.0416 38.7937C48.2607 38.6827 48.6141 38.4346 48.5362 38.4467C48.5214 38.4489 48.3282 38.5569 48.1069 38.6865ZM36.1919 38.9577C36.2145 39.0753 36.3706 39.0919 36.3706 38.9768C36.3706 38.9328 36.3261 38.8884 36.2717 38.8779C36.2 38.8641 36.1781 38.886 36.1919 38.9577ZM37.764 39.1866C37.781 39.2877 37.8975 39.5022 38.0227 39.6633C38.148 39.8244 38.3049 40.0311 38.3714 40.1225C38.5153 40.3207 38.5236 40.2736 38.4028 39.9446C38.3096 39.6908 38.1882 39.5079 37.9025 39.1909L37.7331 39.0029L37.764 39.1866ZM38.7121 39.1165C38.898 39.3405 39.9146 40.1512 40.2915 40.3762L40.5064 40.5044L40.4225 40.3713C40.3764 40.2981 40.2856 40.1504 40.2206 40.0431C40.1283 39.8905 39.9434 39.7591 39.3721 39.4397C38.9703 39.2152 38.6734 39.0697 38.7121 39.1165ZM43.0845 39.3393C43.114 39.3687 43.2349 39.4232 43.353 39.4604C43.675 39.5618 44.3984 39.934 44.6421 40.1237L44.857 40.291L44.7009 40.0766C44.2811 39.5001 44.0272 39.3466 43.4336 39.3105C43.1665 39.2942 43.0489 39.3039 43.0845 39.3393ZM37.6865 39.7696C37.6865 39.8617 38.0503 40.254 38.1714 40.2924C38.2299 40.311 38.2597 40.3559 38.2428 40.4C38.2073 40.4925 38.8124 40.8957 39.3698 41.1509C40.1464 41.5065 41.6051 42.0329 42.2603 42.1941C42.6308 42.2853 42.9556 42.3586 42.9823 42.3572C43.009 42.3557 42.3903 42.1254 41.6074 41.8455C39.3664 41.044 38.7133 40.7166 38.0491 40.0615C37.8497 39.8649 37.6865 39.7335 37.6865 39.7696ZM38.5471 39.8485C38.5503 40.0322 38.7701 40.3771 38.9667 40.5073C39.7928 41.0539 43.055 42.0152 44.9644 42.2745C45.1545 42.3003 45.1391 42.2879 44.8301 42.166C44.6381 42.0903 44.1305 41.9326 43.7022 41.8156C42.0101 41.3534 40.6992 40.8597 39.2901 40.1538C38.8589 39.9378 38.5464 39.8094 38.5471 39.8485ZM37.6865 40.4392C37.6865 40.4759 38.0068 40.816 38.3982 41.1949C39.038 41.8144 39.0828 41.8693 38.8413 41.7383C38.6936 41.6581 38.5096 41.5484 38.4324 41.4944C38.3552 41.4403 38.2781 41.4102 38.2609 41.4273C38.2438 41.4445 38.0827 41.3289 37.9028 41.1706C37.575 40.8822 37.4709 40.8314 37.434 40.9421C37.405 41.029 37.8751 41.6332 38.1345 41.8426C38.8694 42.4358 40.2362 43.2205 40.5304 43.2181C40.636 43.2172 40.5901 43.1783 40.331 43.0488C40.1459 42.9563 40.0027 42.8724 40.0127 42.8624C40.0227 42.8524 40.2346 42.916 40.4835 43.0038C40.7324 43.0916 41.0206 43.163 41.124 43.1625C41.3028 43.1617 41.2975 43.1565 41.0166 43.0569C40.1734 42.758 39.9392 42.6673 39.9593 42.6473C39.9713 42.6353 40.0511 42.652 40.1363 42.6845C40.3193 42.7542 41.606 42.8967 42.0536 42.8968L42.3654 42.8969L42.2147 42.7644C42.1318 42.6914 42.0942 42.631 42.1311 42.6301C42.1681 42.6291 42.1983 42.6489 42.1983 42.6739C42.1983 42.7758 42.6195 42.9105 42.8203 42.8728C42.9507 42.8483 43.0329 42.8569 43.0581 42.8977C43.0793 42.932 43.1543 42.9519 43.2248 42.9419C43.3143 42.9293 43.215 42.8765 42.8965 42.7675C42.6454 42.6815 42.1862 42.486 41.876 42.3331C41.5658 42.1802 40.9736 41.9136 40.5601 41.7409C40.1465 41.5681 39.3371 41.1895 38.7615 40.8996C38.1858 40.6097 37.7085 40.3725 37.7007 40.3725C37.6929 40.3725 37.6865 40.4025 37.6865 40.4392ZM37.9384 40.647C38.0032 40.7176 38.1361 40.8214 38.2339 40.8777C38.4575 41.0064 38.4274 40.9737 38.0894 40.7201C37.9312 40.6014 37.8692 40.5714 37.9384 40.647ZM38.4653 41.6542C38.5835 41.7814 38.7527 41.9357 38.8413 41.9971C39.0292 42.1271 39.0047 42.1013 38.5728 41.7128C38.2995 41.467 38.2832 41.4581 38.4653 41.6542ZM37.3607 41.9433C37.3008 42.0749 37.3295 42.1217 37.8864 42.7986C38.2105 43.1924 38.6161 43.708 38.7877 43.9443C38.9593 44.1806 39.2467 44.5432 39.4264 44.75C39.606 44.9567 39.7171 45.099 39.6731 45.0661C38.9971 44.5595 38.306 44.1394 38.2465 44.1989C38.1394 44.306 38.6378 45.146 39.1431 45.71C39.3856 45.9807 39.4032 46.0138 39.2669 45.9434C39.1795 45.8982 38.8838 45.7002 38.6097 45.5034C38.3355 45.3065 38.0445 45.1222 37.9629 45.0938C37.7801 45.03 37.4106 44.484 37.1887 43.9497C37.1016 43.7399 37.0088 43.5453 36.9824 43.5173C36.8902 43.4189 36.9373 43.7831 37.0655 44.1591C37.1361 44.3659 37.1887 44.5402 37.1827 44.5464C37.1766 44.5526 37.0639 44.4197 36.9322 44.251C36.7305 43.9925 36.6903 43.9624 36.6765 44.0597C36.6355 44.3471 37.0871 44.9376 37.6797 45.3715C37.8569 45.5012 37.9943 45.6149 37.985 45.6242C37.9758 45.6334 37.6994 45.5344 37.3708 45.4041C37.0423 45.2739 36.7735 45.1863 36.7735 45.2096C36.7735 45.4382 38.1474 46.2962 39.0823 46.6515L39.3554 46.7553L39.1252 46.5502C38.9986 46.4374 38.9071 46.3331 38.9219 46.3184C38.9367 46.3038 39.1891 46.4343 39.483 46.6086C40.2852 47.0844 40.4691 47.1399 41.2469 47.141C41.7016 47.1417 42.0231 47.1721 42.2949 47.2403C42.5105 47.2945 42.6676 47.3216 42.644 47.3006C42.6204 47.2796 42.2441 47.111 41.8078 46.9259C41.1501 46.6468 40.9803 46.5946 40.8141 46.6206C40.6298 46.6493 40.6221 46.6456 40.718 46.5737C40.7754 46.5307 40.846 46.4956 40.875 46.4956C40.9039 46.4956 40.8207 46.4247 40.6899 46.3381C40.5592 46.2516 40.3556 46.0946 40.2376 45.9894L40.023 45.7981L40.4258 45.9935C40.6474 46.101 40.9268 46.2001 41.0467 46.2138C41.2287 46.2346 42.234 46.1018 42.2856 46.0501C42.2944 46.0413 42.1671 46.031 42.0026 46.0272C41.6882 46.0198 41.0677 45.7627 40.5224 45.4139C40.2059 45.2114 39.572 44.4911 38.5353 43.1561C38.0919 42.5852 37.6606 42.0475 37.5767 41.9611L37.4242 41.8041L37.3607 41.9433ZM41.1777 42.1987C41.2221 42.2273 41.2825 42.2507 41.312 42.2507C41.3416 42.2507 41.3295 42.2273 41.2852 42.1987C41.2409 42.1701 41.1804 42.1466 41.1509 42.1466C41.1214 42.1466 41.1334 42.1701 41.1777 42.1987ZM41.4463 42.3061C41.4906 42.3347 41.551 42.3582 41.5806 42.3582C41.6101 42.3582 41.598 42.3347 41.5537 42.3061C41.5094 42.2775 41.449 42.2541 41.4194 42.2541C41.3899 42.2541 41.402 42.2775 41.4463 42.3061ZM41.8453 42.495C41.9549 42.5694 42.067 42.6163 42.0944 42.5993C42.1219 42.5823 42.1981 42.6061 42.2638 42.6521C42.3295 42.6981 42.4323 42.7354 42.4922 42.7348C42.61 42.7338 41.8441 42.3625 41.7208 42.3608C41.6797 42.3603 41.7358 42.4206 41.8453 42.495ZM40.738 42.6114C40.7767 42.6269 40.8231 42.6249 40.8409 42.6071C40.8588 42.5893 40.8271 42.5766 40.7705 42.5789C40.7079 42.5815 40.6952 42.5942 40.738 42.6114ZM37.155 42.8096C37.1171 42.8553 37.1024 42.9407 37.1219 43.0021C37.1602 43.1229 37.9565 44.2553 38.1244 44.4277C38.2281 44.5342 38.2282 44.5333 38.1323 44.3192C37.9971 44.0172 37.4351 43.0033 37.3193 42.8525C37.2346 42.7422 37.2152 42.7371 37.155 42.8096ZM35.377 43.0063C35.244 43.123 35.1272 43.1945 35.1174 43.1652C35.0864 43.073 34.8218 43.1086 34.5982 43.2349C34.3305 43.3862 34.2827 43.5698 34.4905 43.6488C34.725 43.7379 34.7809 43.7152 35.1181 43.3938C35.3943 43.1305 35.692 42.7842 35.6357 42.7918C35.6263 42.7931 35.5099 42.8896 35.377 43.0063ZM42.6145 42.8251C42.6515 42.84 42.7119 42.84 42.7488 42.8251C42.7857 42.8102 42.7555 42.798 42.6817 42.798C42.6078 42.798 42.5776 42.8102 42.6145 42.8251ZM39.3699 43.2557C39.4725 43.3772 39.7106 43.505 39.9424 43.5632C40.0163 43.5817 39.9447 43.5352 39.7833 43.4598C39.622 43.3844 39.4407 43.2812 39.3805 43.2306C39.2721 43.1395 39.272 43.1398 39.3699 43.2557ZM40.5949 43.3525C40.6352 43.3927 42.1523 43.798 42.6279 43.8956C42.82 43.935 43.0617 43.9668 43.1651 43.9663C43.31 43.9656 43.2025 43.9113 42.6951 43.7289C42.3333 43.5989 41.8982 43.4692 41.7283 43.4408C41.3114 43.371 40.5544 43.3121 40.5949 43.3525ZM41.2852 44.186C41.3295 44.2146 41.3899 44.238 41.4194 44.238C41.449 44.238 41.4369 44.2146 41.3926 44.186C41.3483 44.1574 41.2879 44.1339 41.2583 44.1339C41.2288 44.1339 41.2409 44.1574 41.2852 44.186ZM41.5 44.2384C41.5 44.2672 41.5785 44.2788 41.6746 44.2642C41.8127 44.2432 41.8267 44.2483 41.7417 44.2886C41.6422 44.3358 41.6442 44.3396 41.7686 44.3396C41.8424 44.3396 41.9502 44.3211 42.008 44.2985C42.0924 44.2654 42.0714 44.2505 41.9005 44.2222C41.6042 44.1733 41.5 44.1775 41.5 44.2384ZM42.2419 44.3301C42.2807 44.3456 42.327 44.3437 42.3448 44.3259C42.3627 44.308 42.331 44.2953 42.2744 44.2977C42.2118 44.3002 42.1991 44.313 42.2419 44.3301ZM36.2901 44.4225C36.2901 44.57 36.7444 44.9959 37.042 45.1274C37.2045 45.1993 37.277 45.2178 37.2031 45.1686C37.1293 45.1194 36.9042 44.9145 36.703 44.7132C36.5018 44.5119 36.3266 44.3471 36.3136 44.3471C36.3007 44.3471 36.2901 44.381 36.2901 44.4225ZM46.8347 44.4183C46.5985 44.5056 46.5598 44.559 46.6729 44.6417C46.8351 44.7603 47.3008 44.5967 47.3008 44.4211C47.3008 44.3309 47.0751 44.3296 46.8347 44.4183ZM34.6727 44.778C34.4929 44.9694 34.2947 45.1984 34.2322 45.2871L34.1186 45.4482L34.3196 45.274C34.4301 45.1781 34.6106 45.0536 34.7205 44.9972C34.8305 44.9408 34.9795 44.8314 35.0517 44.7541C35.1754 44.6215 35.1777 44.6082 35.0912 44.5217C35.0047 44.4353 34.9809 44.4499 34.6727 44.778ZM36.1289 45.194C36.1289 45.2688 36.4024 45.6395 36.4407 45.6164C36.4612 45.604 36.611 45.7159 36.7735 45.8651C36.9359 46.0142 37.0228 46.1022 36.9666 46.0607C36.9104 46.0193 36.856 45.9913 36.8457 45.9987C36.7917 46.0378 36.7343 45.9934 36.618 45.8226C36.5473 45.7187 36.4782 45.645 36.4645 45.6587C36.4507 45.6725 36.4873 45.7516 36.5459 45.8345C36.6044 45.9175 36.7132 46.1062 36.7876 46.2539C36.8621 46.4016 36.9683 46.5633 37.0236 46.6134C37.1479 46.7257 38.4842 47.343 39.0242 47.5376L39.4219 47.6809L39.2784 47.5045C39.0311 47.2004 38.9648 47.0919 38.9866 47.0266C38.9996 46.9875 39.0787 47.0238 39.1931 47.1215C39.8098 47.6478 40.2808 47.8863 41.0913 48.0826C41.9298 48.2856 42.2129 48.2981 42.6389 48.1508L42.999 48.0263L42.527 48.0159C42.2093 48.0089 41.8455 47.9527 41.4149 47.844C41.0629 47.7551 40.5642 47.6457 40.3067 47.6008C39.8519 47.5215 39.6201 47.4321 39.6201 47.3359C39.6201 47.2782 39.8086 47.3111 40.2647 47.4483C40.4567 47.5061 40.7467 47.5688 40.9092 47.5876L41.2046 47.6217L40.7212 47.4411C39.6024 47.0231 38.9268 46.7427 38.3854 46.4714C37.8224 46.1893 36.6953 45.5226 36.3656 45.2768C36.1915 45.1469 36.1289 45.1251 36.1289 45.194ZM46.3336 45.395C46.2829 45.4561 46.2796 45.4959 46.3219 45.5382C46.4034 45.6196 46.5605 45.5483 46.5394 45.4394C46.5153 45.315 46.4175 45.2939 46.3336 45.395ZM35.9141 45.6477C35.9141 45.7001 36.0776 45.8593 36.4669 46.1859L36.7243 46.4019L36.6172 46.2205C36.3907 45.8367 35.9141 45.4485 35.9141 45.6477ZM46.025 46.1867C45.9433 46.2892 45.7865 46.6105 45.8078 46.6319C45.8183 46.6423 45.8939 46.5312 45.9761 46.3852C46.1183 46.1322 46.1405 46.042 46.025 46.1867ZM35.1488 46.8093C35.0015 46.8982 34.9804 46.9811 35.0952 47.0193C35.1286 47.0304 35.1941 46.9655 35.2409 46.875C35.2877 46.7845 35.3193 46.7126 35.3112 46.7153C35.3031 46.718 35.23 46.7603 35.1488 46.8093ZM35.9183 47.0103C35.9209 47.0729 35.9336 47.0856 35.9508 47.0428C35.9663 47.004 35.9644 46.9576 35.9465 46.9398C35.9287 46.922 35.916 46.9537 35.9183 47.0103ZM34.9232 47.3695C34.9958 47.559 36.5641 48.4359 37.1503 48.6149C37.3123 48.6644 37.7711 48.7392 38.1699 48.7812C38.5687 48.8232 39.1609 48.8937 39.4859 48.9377C40.1301 49.0251 40.8018 49.0452 40.8018 48.977C40.8018 48.8671 40.6477 48.8051 40.3744 48.8051C39.9874 48.8051 38.8399 48.6705 38.3515 48.5677C37.3093 48.3485 35.6996 47.7602 35.189 47.4119C35.0066 47.2874 34.8842 47.2679 34.9232 47.3695ZM33.5464 47.55C33.4177 47.7583 33.4469 47.9015 33.6252 47.9366C33.7013 47.9516 33.7134 47.9088 33.7052 47.6546C33.6997 47.4898 33.689 47.3549 33.6812 47.3549C33.6734 47.3549 33.6127 47.4427 33.5464 47.55ZM35.9271 47.4209C35.9562 47.5083 36.3822 47.6307 36.5855 47.6101C36.722 47.5963 36.6904 47.5755 36.3784 47.4744C35.9547 47.3369 35.8968 47.3301 35.9271 47.4209ZM44.7495 47.4437C44.5155 47.6296 43.6874 47.976 42.7127 48.2957C42.1491 48.4806 41.6066 48.6492 41.5072 48.6704C41.329 48.7085 41.3279 48.7106 41.4291 48.8118C41.5304 48.913 41.5396 48.9127 42.0442 48.7846C42.6612 48.6281 43.2662 48.392 43.8096 48.0957C44.257 47.8518 44.8054 47.4921 44.8568 47.4089C44.9026 47.3348 44.8756 47.3436 44.7495 47.4437ZM38.5191 47.8266C38.7287 48.0523 39.5126 48.2747 40.0498 48.2611L40.2915 48.2549L39.9936 48.211C39.7546 48.1759 39.0949 47.9871 38.5461 47.7968C38.4904 47.7775 38.482 47.7867 38.5191 47.8266ZM35.2158 47.972C35.2158 48.0443 37.0604 48.8667 37.2001 48.8567C37.2615 48.8523 36.9019 48.679 36.4027 48.4723C36.1192 48.3549 35.7475 48.1884 35.5768 48.1023C35.2586 47.9419 35.2158 47.9264 35.2158 47.972ZM35.1084 48.0719C35.1084 48.0862 35.2112 48.178 35.3367 48.2759C35.4622 48.3738 35.5308 48.411 35.4892 48.3585C35.4064 48.2542 35.1084 48.0299 35.1084 48.0719ZM34.6797 48.2922C34.6513 48.367 34.6414 48.4631 34.6577 48.5056C34.7136 48.6513 35.5643 49.3617 36.1021 49.712C36.6002 50.0365 37.1384 50.3047 37.2971 50.3078C37.4561 50.3108 37.3432 50.1431 37.0954 50.0083C36.9476 49.9279 36.8344 49.8542 36.844 49.8447C36.8684 49.8203 37.7561 50.1976 37.8181 50.2588C37.85 50.2902 37.8237 50.309 37.7478 50.309C37.6806 50.309 37.6413 50.2851 37.6597 50.2553C37.6779 50.2258 37.656 50.2016 37.6108 50.2016C37.5616 50.2016 37.5406 50.2325 37.5584 50.2788C37.5913 50.3645 38.3299 50.5477 38.9756 50.6302C39.4687 50.6932 40.1997 50.6938 40.3452 50.6313C40.4186 50.5998 40.325 50.5838 40.0498 50.581C39.5545 50.576 38.7112 50.4527 38.3548 50.3332C38.0966 50.2465 37.8756 50.102 37.9253 50.0523C37.9389 50.0388 37.9891 50.0668 38.0369 50.1147C38.1407 50.2184 38.2308 50.2291 38.1941 50.1333C38.161 50.047 38.0215 49.9589 37.5639 49.735C37.3636 49.637 37.1869 49.5236 37.1714 49.4831C37.1558 49.4426 37.0615 49.3655 36.9615 49.3117C36.8617 49.2579 36.7935 49.1921 36.8101 49.1653C36.8266 49.1386 36.786 49.1457 36.7197 49.1811C36.6248 49.2319 36.608 49.2315 36.6403 49.1792C36.6706 49.1303 36.6365 49.1196 36.5102 49.1381C36.4161 49.1519 36.3243 49.1393 36.3062 49.1102C36.2863 49.0778 36.3029 49.0742 36.3489 49.1009C36.3904 49.1249 36.4062 49.1247 36.3842 49.1003C36.362 49.0759 36.2774 49.049 36.1962 49.0406L36.0484 49.0251L36.1826 49.1336C36.2989 49.2275 36.301 49.2343 36.1984 49.1841C36.1332 49.1522 36.0607 49.0937 36.0372 49.054C35.9928 48.9787 35.7918 48.8576 35.7162 48.8606C35.6921 48.8615 35.7189 48.8975 35.7759 48.9405C35.8328 48.9836 35.8681 49.0301 35.8544 49.0439C35.8405 49.0577 35.6389 48.9223 35.4061 48.743C35.0307 48.4539 34.929 48.3955 34.7727 48.3796C34.7505 48.3773 34.7344 48.3331 34.7367 48.2815C34.7393 48.2247 34.7517 48.2142 34.7681 48.2549C34.7831 48.292 34.8212 48.3064 34.8527 48.2869C34.8891 48.2644 34.8942 48.2772 34.8667 48.3217C34.838 48.3683 34.8443 48.3791 34.8852 48.3537C34.9706 48.301 34.9639 48.2807 34.8394 48.214C34.7475 48.1649 34.7237 48.1765 34.6797 48.2922ZM35.5744 48.3351C35.5978 48.3721 35.6174 48.4184 35.6179 48.4381C35.6183 48.4578 35.6407 48.494 35.6675 48.5187C35.696 48.5447 35.7003 48.5353 35.6778 48.4963C35.6308 48.4146 35.6723 48.4109 35.8102 48.4847C35.9923 48.5822 35.9216 48.4979 35.7229 48.3807C35.6177 48.3186 35.5508 48.2981 35.5744 48.3351ZM33.4136 48.4338C33.3551 48.5286 33.4783 48.6067 33.6274 48.5692C33.8225 48.5203 33.8077 48.3754 33.6077 48.3754C33.5208 48.3754 33.4335 48.4017 33.4136 48.4338ZM35.0547 48.6171C35.1241 48.691 35.193 48.7514 35.2077 48.7514C35.2225 48.7514 35.1778 48.691 35.1084 48.6171C35.039 48.5433 34.9702 48.4829 34.9554 48.4829C34.9406 48.4829 34.9853 48.5433 35.0547 48.6171ZM36.0484 48.5903C36.0666 48.6198 36.1057 48.644 36.1353 48.644C36.1648 48.644 36.174 48.6198 36.1558 48.5903C36.1375 48.5608 36.0984 48.5366 36.0689 48.5366C36.0393 48.5366 36.0301 48.5608 36.0484 48.5903ZM40.9629 48.6692C40.9629 48.6944 41.4864 49.5077 41.532 49.5533C41.606 49.6273 41.3004 48.965 41.1929 48.8186C41.0821 48.6675 40.9629 48.5901 40.9629 48.6692ZM35.2965 48.8052C35.3352 48.8679 35.8819 49.2883 36.1021 49.4247C36.1907 49.4796 36.2511 49.5107 36.2363 49.4939C36.1744 49.423 35.2677 48.7587 35.2965 48.8052ZM36.1504 48.8186C36.1291 48.8555 36.1315 48.8678 36.1557 48.8459C36.1798 48.824 36.2381 48.8361 36.2851 48.8728C36.3608 48.9317 36.3621 48.9286 36.2969 48.8454C36.2091 48.7334 36.2002 48.7318 36.1504 48.8186ZM36.6929 48.8725C36.7998 48.9363 36.8292 48.9467 36.9378 48.9596C36.969 48.9633 36.9774 48.9942 36.9563 49.0283C36.9325 49.0669 36.9416 49.0757 36.9804 49.0517C37.0147 49.0305 37.0806 49.0509 37.1268 49.0971C37.173 49.1433 37.2876 49.183 37.3815 49.1853C37.5474 49.1893 38.1531 49.3834 38.0257 49.3918C37.9907 49.3941 37.9061 49.3752 37.8377 49.3498C37.7694 49.3244 37.6214 49.2868 37.509 49.2662C37.3109 49.23 37.3076 49.2319 37.4028 49.3271C37.4569 49.3812 37.6093 49.4577 37.7415 49.4973C37.8738 49.5368 38.0987 49.6283 38.2414 49.7005C38.4766 49.8196 38.8145 49.9066 38.8145 49.848C38.8145 49.8351 38.6875 49.7653 38.5325 49.6927C38.1908 49.5329 38.2572 49.519 38.6751 49.6628C38.8802 49.7333 39.2536 49.787 39.7981 49.8242C40.2467 49.855 40.7225 49.8926 40.8555 49.9079C41.2366 49.9518 40.9979 49.8506 40.4795 49.7485C40.2284 49.699 39.6242 49.5619 39.1367 49.4438C38.6493 49.3257 38.033 49.1834 37.7671 49.1277C37.5012 49.072 37.181 48.9897 37.0554 48.945C36.9299 48.9003 36.8272 48.8795 36.8272 48.8988C36.8272 48.9182 36.7982 48.905 36.7627 48.8696C36.7273 48.8341 36.6729 48.8059 36.6419 48.8067C36.6109 48.8077 36.6338 48.8373 36.6929 48.8725ZM37.5912 48.9962C37.632 49.0371 38.9052 49.1709 39.5396 49.201C40.0891 49.2271 40.0685 49.2223 39.2442 49.1322C38.1436 49.012 37.5588 48.9639 37.5912 48.9962ZM33.4434 49.4989C33.4434 49.5649 33.4781 49.6108 33.5279 49.6108C33.5779 49.6108 33.6053 49.5743 33.595 49.5213C33.5689 49.3865 33.4434 49.368 33.4434 49.4989ZM32.2383 49.7127C32.2086 49.7608 32.6365 49.8519 33.148 49.9064L33.4165 49.9351L33.0943 49.8025C32.7737 49.6707 32.2952 49.6205 32.2383 49.7127ZM39.7151 49.7572C39.8116 49.7691 39.9566 49.7689 40.0374 49.7566C40.1181 49.7443 40.0391 49.7346 39.8618 49.7349C39.6846 49.7351 39.6186 49.7452 39.7151 49.7572ZM37.6722 49.9397C37.7087 49.9765 37.752 49.993 37.7685 49.9764C37.785 49.9599 37.7552 49.9298 37.7023 49.9096C37.6257 49.8805 37.6196 49.8867 37.6722 49.9397ZM35.7272 50.6384C35.6478 50.8154 35.5962 50.9949 35.6125 51.0374C35.6757 51.2021 35.811 51.108 35.9454 50.8059C36.1225 50.4075 36.1219 50.4138 35.9869 50.3614C35.8841 50.3215 35.856 50.3514 35.7272 50.6384ZM35.0594 50.8561C34.9968 51.0427 34.9279 51.2212 34.9062 51.2529C34.8845 51.2845 34.6869 51.426 34.4671 51.5672C34.1768 51.7538 34.0886 51.8355 34.1448 51.866C34.2642 51.9306 34.5762 51.8636 34.61 51.766C34.6266 51.7179 34.7293 51.5941 34.8382 51.4907C34.9945 51.3423 35.0556 51.225 35.1283 50.9335C35.1789 50.7304 35.2098 50.5536 35.1968 50.5406C35.1838 50.5276 35.122 50.6696 35.0594 50.8561ZM36.3975 50.9804C36.358 51.0542 36.3412 51.13 36.3601 51.1489C36.379 51.1678 36.42 51.1162 36.4512 51.0341C36.5244 50.8415 36.4902 50.8072 36.3975 50.9804ZM37.3197 51.2736C37.256 51.4623 37.2149 51.6278 37.2283 51.6412C37.2418 51.6547 37.4289 51.6319 37.6442 51.5907C38.0279 51.5172 38.036 51.5123 38.0525 51.3424C38.066 51.2033 38.0526 51.1756 37.9849 51.2016C37.8303 51.2609 37.5437 51.1725 37.4883 51.0485C37.4415 50.9435 37.4228 50.9685 37.3197 51.2736ZM38.5107 51.3587C38.4932 51.4043 38.4909 51.4536 38.5056 51.4683C38.5203 51.4829 38.5452 51.4456 38.5609 51.3854C38.5944 51.2574 38.5572 51.2377 38.5107 51.3587ZM35.2735 51.5748C35.2122 51.7133 35.1621 51.8505 35.1621 51.8798C35.1621 51.9643 35.3693 51.9003 36.1289 51.5813C36.2476 51.5316 36.2201 51.5198 35.8918 51.4803C35.6876 51.4557 35.49 51.4102 35.4527 51.3792C35.4013 51.3366 35.358 51.3838 35.2735 51.5748ZM39.249 51.341C39.2464 51.3622 39.1494 51.9664 39.0334 52.6838C38.9175 53.4012 38.7836 54.2783 38.7358 54.6328C38.6775 55.0646 38.576 55.49 38.4282 55.9218C38.2989 56.2994 38.1907 56.7332 38.1668 56.9692C38.1445 57.1908 38.1096 57.4687 38.0894 57.5869L38.0527 57.8017L38.1516 57.6366C38.206 57.5458 38.3164 57.3634 38.3968 57.2314C38.4927 57.074 38.5623 56.856 38.5989 56.5984C38.6581 56.1813 38.8184 55.7297 39.1251 55.1162C39.5811 54.2042 39.835 53.4218 39.835 52.9286C39.835 52.7907 39.823 52.7765 39.7544 52.8335C39.6496 52.9205 39.6523 52.8432 39.763 52.5849C39.8649 52.3472 39.9444 51.9204 39.8868 51.9204C39.8233 51.9204 39.6201 52.4388 39.6198 52.6017C39.6194 52.7952 39.5148 53.1756 39.4733 53.1342C39.4559 53.1168 39.4458 52.8426 39.451 52.5249C39.4581 52.0831 39.436 51.8714 39.3571 51.625C39.3004 51.4477 39.2517 51.3199 39.249 51.341ZM43.7917 51.5265C43.772 51.5462 43.7566 51.6006 43.7575 51.6474C43.7588 51.7172 43.7694 51.7149 43.8161 51.6344C43.874 51.5349 43.8572 51.461 43.7917 51.5265ZM37.606 51.8361L37.3911 51.9046L37.5423 51.9662C37.6255 52.0001 37.7023 52.0278 37.7131 52.0278C37.754 52.0278 37.9014 51.8567 37.9014 51.8091C37.9014 51.7477 37.8755 51.7501 37.606 51.8361ZM35.6724 52.0884C35.4951 52.1458 35.2655 52.1833 35.1621 52.1716L34.9741 52.1503L34.501 52.9618C34.2409 53.4082 33.8212 54.1964 33.5684 54.7133C33.3156 55.2303 32.9887 55.8498 32.842 56.09C32.6101 56.4696 32.5686 56.5821 32.5248 56.9494C32.4815 57.3129 32.3062 58.0396 32.1766 58.3925C32.1186 58.5507 32.1584 58.5001 32.5569 57.9097C32.7561 57.6146 32.9487 57.275 32.9848 57.155C33.0704 56.8707 33.3967 56.3574 33.6749 56.0695C33.9577 55.7769 33.8853 55.7761 33.5366 56.068C33.3479 56.226 33.285 56.2588 33.3292 56.1762C33.3641 56.1109 33.6184 55.8645 33.8942 55.6285C34.3931 55.2018 34.3966 55.1971 34.5605 54.7282C34.9446 53.6295 35.2446 53.0611 35.9609 52.0755C36.0015 52.0197 36.0256 51.9763 36.0146 51.979C36.0036 51.9817 35.8496 52.0309 35.6724 52.0884ZM36.9876 52.0555C36.9464 52.1051 36.9377 52.1579 36.9664 52.1839C37.0488 52.2584 37.3714 52.3501 37.5468 52.3489L37.7134 52.3477L37.4986 52.2431C37.3804 52.1855 37.2328 52.1008 37.1706 52.0548C37.0682 51.9792 37.0509 51.9792 36.9876 52.0555ZM38.0401 52.4172C37.9497 52.5561 37.3369 54.0756 37.2819 54.2971C37.2617 54.3783 37.2594 54.4448 37.2768 54.4448C37.3332 54.4448 37.5072 54.0572 37.7832 53.3169C37.9319 52.9181 38.0791 52.5253 38.1104 52.4441C38.1793 52.2651 38.147 52.2528 38.0401 52.4172ZM33.9214 52.6109C33.5125 52.8459 33.2849 53.0444 33.0344 53.3847C32.8059 53.6951 32.208 54.7074 32.208 54.7839C32.208 54.8042 32.2503 54.8206 32.302 54.8204C32.3545 54.8203 32.5315 54.6482 32.7025 54.431C32.8711 54.2171 33.188 53.8302 33.4067 53.5714C33.8458 53.0521 34.2803 52.4543 34.2122 52.4632C34.1881 52.4664 34.0573 52.5329 33.9214 52.6109ZM40.2758 52.5246C40.2066 52.6081 39.9337 53.326 39.9609 53.3532C39.9718 53.3642 40.0299 53.2577 40.0901 53.1167C40.1503 52.9757 40.2387 52.7697 40.2865 52.6589C40.3763 52.4512 40.3728 52.4077 40.2758 52.5246ZM41.8802 53.9927C41.8828 54.0553 41.8955 54.068 41.9127 54.0252C41.9282 53.9864 41.9263 53.9401 41.9084 53.9222C41.8906 53.9044 41.8779 53.9361 41.8802 53.9927ZM46.5546 54.5406C46.5188 54.7409 46.5055 54.9463 46.5249 54.9971C46.6021 55.1981 46.9785 55.0325 46.9785 54.7976C46.9785 54.6962 46.7049 54.1764 46.6514 54.1763C46.634 54.1762 46.5905 54.3402 46.5546 54.5406ZM42.0478 57.09C41.9813 57.6883 41.9276 58.2628 41.9283 58.3668C41.9294 58.513 42.0078 58.663 42.2751 59.03C42.4652 59.2907 42.6326 59.5162 42.6472 59.5308C42.6619 59.5455 42.5609 59.3354 42.4227 59.0639L42.1714 58.5704L42.1869 57.2864C42.1955 56.5802 42.1948 56.0024 42.1856 56.0024C42.1763 56.0024 42.1143 56.4918 42.0478 57.09ZM35.0118 56.9021C34.8616 57.1158 34.7233 57.3987 34.7426 57.4528C34.7518 57.4785 34.8504 57.3319 34.9617 57.1269C35.1711 56.7415 35.1926 56.6449 35.0118 56.9021ZM32.9727 57.8957C32.7475 58.2753 32.6329 58.4981 32.7286 58.3698C32.8571 58.1975 33.1296 57.7212 33.0997 57.7212C33.0868 57.7212 33.0296 57.7997 32.9727 57.8957ZM14.0947 68.9847C14.1615 68.9975 14.2581 68.9971 14.3095 68.9836C14.3608 68.9702 14.3062 68.9597 14.188 68.9603C14.0698 68.9609 14.0278 68.9719 14.0947 68.9847ZM14.7404 68.9864C14.8964 68.9973 15.1381 68.9972 15.2775 68.9862C15.4168 68.9751 15.2891 68.9662 14.9937 68.9663C14.6983 68.9665 14.5843 68.9755 14.7404 68.9864Z" fill="white"/>
</svg>
