<svg width="83" height="82" viewBox="0 0 83 82" fill="none" xmlns="http://www.w3.org/2000/svg">
<mask id="path-1-inside-1_938_899" fill="white">
<path d="M36.5153 3.37235C36.6286 3.72653 36.5617 3.85053 36.2157 3.91141L35.9159 3.96034L36.0932 4.07953C36.2124 4.16556 36.2497 4.21948 36.2165 4.25269C36.1667 4.30252 35.5462 4.6037 35.182 4.76262C35.0871 4.80054 35.0315 4.93595 34.9987 5.18544L34.9409 5.55113L33.9491 6.5771C33.4042 7.14484 32.9496 7.6451 32.949 7.70267C32.9386 7.75869 32.7398 7.99168 32.4876 8.22108C32.2453 8.45203 31.9043 8.85004 31.7267 9.09599C31.4807 9.45609 31.3229 9.61385 30.996 9.8267C30.6873 10.0328 30.5088 10.2113 30.2721 10.5392C30.1029 10.7769 29.7639 11.2185 29.5184 11.521C29.2771 11.8194 29.0092 12.2241 28.9277 12.4083C28.8041 12.6915 28.7392 12.7678 28.5799 12.8244C28.3102 12.9117 27.635 13.5983 27.1963 14.2308C26.7343 14.8981 25.1059 16.4581 24.3161 16.997C23.8518 17.3131 23.6841 17.4693 23.395 17.8611C22.8401 18.6098 20.5903 20.9851 16.7884 24.8555L15.0602 26.6064L14.8585 26.5459L14.651 26.4796L14.6182 26.7291C14.588 26.9646 14.5231 27.0409 13.8563 27.6279C13.4614 27.9886 12.9866 28.3607 12.8014 28.4661C12.5145 28.6276 12.4081 28.7454 12.0769 29.2362C11.7981 29.6633 11.6268 29.8573 11.4624 29.942C11.107 30.1263 9.58528 31.7848 9.44296 32.1324C9.26428 32.5848 7.95294 33.7479 7.54523 33.8135C7.25112 33.8681 7.01347 34.0373 6.89092 34.2967C6.82964 34.4264 6.80163 34.4316 6.62847 34.3083C6.53048 34.2352 6.32566 34.155 6.18355 34.1374L5.91335 34.0997L5.78288 34.5837C5.67633 34.9753 5.61765 35.091 5.44643 35.1938C5.32814 35.2665 5.17142 35.4004 5.08424 35.4876C4.9986 35.5846 4.84139 35.6848 4.73244 35.7254C4.57318 35.782 4.5 35.8666 4.35254 36.1509C4.25284 36.3418 4.08152 36.6272 3.97147 36.7828C3.79394 37.0288 3.73687 37.0631 3.55535 37.0393C3.43711 37.0207 3.282 37.0732 3.17665 37.1671C3.02824 37.2927 3.00278 37.3752 3.03063 37.6438C3.08224 38.094 2.97629 38.3368 2.60268 38.6192C2.03451 39.0391 2.05371 39.0085 2.19621 39.2423C2.40918 39.5882 2.40602 39.6597 2.16683 39.8191C2.03763 39.9141 1.90787 40.0667 1.85385 40.2119C1.76606 40.448 1.7619 40.4521 1.42273 40.4036C1.24121 40.3798 1.01823 40.3063 0.927493 40.2488L0.765735 40.1368L0.842854 40.4132C0.908072 40.6445 0.88676 40.7228 0.749753 40.8598C0.596139 41.0135 0.595088 41.0373 0.734039 41.1265C1.23592 41.4457 1.40593 41.6406 1.72713 42.2773C2.03383 42.8829 2.06959 42.927 2.93159 43.8554C3.42971 44.3951 3.95269 45.0011 4.12214 45.2536C4.40769 45.6637 4.44916 45.7134 4.67679 45.8165C4.87331 45.9051 4.92878 45.9523 4.97849 46.085C5.02821 46.2178 5.08368 46.2649 5.24339 46.3333C5.39895 46.4058 5.48293 46.4815 5.60521 46.6785C5.73891 46.8869 5.82289 46.9626 6.12725 47.1258C6.78574 47.4937 6.98265 47.7985 7.12218 48.6854C7.17334 49.0106 7.28772 49.4322 7.36904 49.6131L7.52289 49.9496L7.93094 50.1916C8.15752 50.3186 8.74803 50.743 9.2395 51.1182C9.79785 51.552 10.2106 51.8236 10.3262 51.8562C10.4361 51.8831 10.7644 51.954 11.0616 52.0103C11.3587 52.0667 11.6802 52.1557 11.771 52.2132C11.8757 52.2681 12.1826 52.5999 12.5615 53.0535C13.0518 53.6352 13.2871 53.8788 13.6567 54.182C14.086 54.5282 14.1332 54.5837 14.2051 54.7968C14.2672 55.0084 14.2958 55.0369 14.498 55.1312C14.7567 55.2488 16.0449 56.5037 16.3817 56.9651C16.4921 57.117 16.7056 57.4053 16.8533 57.6111C17.0052 57.8128 17.1394 58.0549 17.1507 58.1576C17.1714 58.3194 17.1843 58.3407 17.3622 58.4023C17.5458 58.4696 17.5758 58.508 17.811 59.0255C18.0923 59.6223 18.4877 60.2419 18.7842 60.5384C19.0009 60.755 20.108 61.1647 20.4477 61.1556C20.567 61.1504 20.8045 61.1637 20.9845 61.1776C21.263 61.207 21.3195 61.2303 21.3521 61.346C21.3687 61.4207 21.3178 61.5856 21.2368 61.7122C21.1117 61.8944 21.1075 61.9898 21.1955 62.2439C21.342 62.6561 21.725 63.2882 22.0505 63.6469C22.3019 63.9315 22.3174 63.9387 22.4663 63.8469C22.6111 63.7591 22.6422 63.7736 22.9351 64.0167C23.1114 64.1598 23.4644 64.3883 23.7206 64.5199C24.1478 64.7312 24.209 64.7841 24.4453 65.0952C24.762 65.5198 27.1392 67.8638 27.6748 68.2748C27.8837 68.4422 28.3337 68.8589 28.6773 69.2109C29.1978 69.7396 29.3528 69.8697 29.6499 70.0174C29.9584 70.1764 30.0024 70.2122 30.0853 70.403C30.1418 70.5176 30.3398 70.7986 30.5243 71.0246C30.8902 71.457 32.1219 72.5973 32.6388 72.9814C33.0846 73.311 33.3101 73.553 33.3836 73.776C33.4452 73.9539 33.4851 73.9938 33.8952 74.2794C34.3152 74.5665 34.3836 74.6349 34.9387 75.3228C35.5125 76.0377 35.527 76.0688 35.4719 76.238C35.4225 76.4128 35.494 76.5922 35.577 76.5092C35.5978 76.4884 35.6875 76.4785 35.772 76.4966C35.91 76.5183 35.9328 76.5411 36.0271 76.7433C36.1519 77.0176 36.4557 77.3297 36.7274 77.4685C36.8788 77.5452 36.9373 77.6121 37.0042 77.7619C37.0767 77.9175 37.1337 77.9745 37.3178 78.0755C37.506 78.1724 37.5589 78.2336 37.6371 78.3949C37.7055 78.5546 37.7853 78.6344 38.0393 78.8137C38.2166 78.9329 38.5718 79.205 38.8263 79.418C39.0808 79.631 39.4982 79.9321 39.7377 80.0803C39.9944 80.2456 40.3568 80.5333 40.5947 80.7629C40.8269 80.9868 41.1758 81.3108 41.3806 81.4824L41.7476 81.7996L42.1685 81.3901C42.4965 81.0621 42.6578 80.9578 42.9291 80.8803C43.2705 80.7899 43.3078 80.7525 45.6136 78.4582C48.3179 75.7652 48.3843 75.6988 48.4903 75.456C48.5391 75.3388 48.618 75.2599 48.7077 75.25C48.9095 75.2193 51.0694 73.0365 51.1059 72.8404C51.1168 72.7268 51.1973 72.6578 51.4063 72.5514C51.6476 72.4356 51.7016 72.3816 51.7795 72.144C51.8548 71.9204 51.9114 71.8524 52.0624 71.8041C52.2232 71.7573 52.2574 71.7003 52.2929 71.4368C52.3194 71.2391 52.3916 71.0871 52.5042 71.0087C52.6459 70.9013 52.7034 70.9007 52.9119 71.0344C53.1882 71.2028 53.3127 71.1696 53.3471 70.9299C53.3887 70.7058 56.666 67.3487 57.2721 66.9251C57.6571 66.6542 57.7303 66.5696 57.8316 66.2972C57.9141 66.0892 57.9884 65.9807 58.0781 65.9708C58.2757 65.9443 58.4989 65.7439 58.8487 65.28C59.0636 64.9967 59.3781 64.7051 59.8238 64.362C60.543 63.8024 60.9624 63.2918 61.1894 62.6885C61.2907 62.4161 61.3364 62.3704 61.4863 62.346C61.632 62.3257 62.0062 61.9857 63.1977 60.7942C64.4682 59.5238 64.7624 59.1953 64.9732 58.8248C65.1129 58.5825 65.2998 58.3044 65.3953 58.2089C65.5738 58.0304 66.0043 57.8963 66.3529 57.9127C66.5271 57.9209 66.5868 57.8727 66.8707 57.5089C67.0457 57.277 68.2336 56.032 69.5108 54.7434L71.8327 52.3987L71.795 52.1285L71.7557 51.8485L71.9683 51.8867C72.1753 51.9193 72.2043 51.8902 74.0829 50.0572C75.1281 49.0348 76.2314 47.9543 76.5319 47.6653C76.9445 47.2641 77.1168 47.0462 77.2295 46.7852C77.4669 46.2171 77.5608 46.1118 77.9021 46.0214C78.4562 45.8779 78.8033 45.6106 79.3167 44.9033C79.6182 44.4991 79.9457 44.1374 80.2342 43.8945C80.6198 43.566 80.6956 43.4674 80.7772 43.1919C80.8416 42.9906 80.9169 42.8583 81.0051 42.8386C81.0736 42.8157 81.2043 42.7306 81.2915 42.6434L81.4591 42.4872L80.9675 42.3858C80.6942 42.3284 80.3965 42.2383 80.3016 42.185C79.8951 41.9528 79.6251 41.55 79.5704 41.0801C79.5307 40.7663 79.6194 40.7803 79.8463 41.1235C80.3941 41.9785 81.05 42.2691 81.7291 41.9435C82.2479 41.6984 82.44 41.3922 82.3641 40.9094C82.2912 40.4463 82.0456 40.0761 81.3976 39.4696C80.9461 39.043 80.8382 38.9684 80.4597 38.8224C79.9287 38.6235 79.8561 38.5592 79.8957 38.2916C79.9659 37.9134 79.3533 37.226 77.6063 35.7115C76.3756 34.6386 75.9915 34.213 75.3884 33.2196C75.0028 32.6016 74.8551 32.3958 74.6592 32.2496C74.3424 32.0076 74.3625 32.1357 74.7103 32.5748C75.0809 33.0367 75.0274 33.1244 74.5909 32.7626C74.2467 32.4682 74.0109 32.1909 73.9617 32.0005C73.9425 31.9399 73.6704 31.676 73.265 31.3287C72.4159 30.6042 71.4082 29.6048 69.0771 27.1575C67.5522 25.5578 67.0633 25.0773 66.4133 24.5185C65.9737 24.137 65.4086 23.6301 65.1577 23.3792C64.8099 23.0314 64.6352 22.8982 64.4459 22.8252C64.196 22.733 64.1846 22.7216 63.9613 22.3405C63.7742 22.0372 63.557 21.7868 62.9111 21.1327L62.0958 20.3173L62.0207 19.9931C61.9483 19.655 61.7975 19.4295 61.7466 19.5945C61.7305 19.6448 61.7107 19.733 61.6946 19.7833C61.665 19.8699 61.5385 19.7683 60.4727 18.8271C60.1254 18.5129 60.031 18.402 59.9134 18.1433C59.7943 17.8747 59.7414 17.8135 59.405 17.5684C59.1763 17.3978 58.5056 16.7686 57.6202 15.8749L56.2061 14.4608L56.185 14.174C56.1717 13.8452 56.0287 13.6689 55.9015 13.8075C55.82 13.9004 55.7718 13.8688 54.8858 13.124C54.2047 12.5507 53.6251 12.0127 52.7382 11.1092C51.4236 9.778 47.5022 5.95617 47.2637 5.78411C47.187 5.72399 46.992 5.64527 46.8369 5.60646L46.5481 5.54179L46.5311 5.25083L46.51 4.96402L46.0777 4.5981C45.8345 4.39648 45.694 4.2975 45.7541 4.37422C45.976 4.65417 45.7883 4.591 45.4803 4.2831C45.3093 4.11204 45.1875 3.94873 45.2083 3.92797C45.2332 3.90306 45.2995 3.92792 45.3509 3.97923C45.6754 4.27054 44.9181 3.39703 44.3593 2.83823C43.4283 1.89896 42.6518 1.23863 42.28 1.07443C41.9378 0.914883 41.3481 0.831716 41.2526 0.927204C41.2194 0.960417 41.0477 0.93822 40.8797 0.878152C40.1952 0.650338 39.6152 0.842579 39.1958 1.44447C39.0224 1.68627 38.9778 1.70808 38.7304 1.69318C38.3269 1.66334 38.1837 1.76093 38.0424 2.17594C37.9307 2.50432 37.899 2.54739 37.7502 2.54799C37.6309 2.55325 37.524 2.63734 37.3641 2.84282C37.1518 3.11213 37.1295 3.12303 36.8422 3.06822C36.4662 2.99946 36.4164 3.04928 36.5153 3.37235ZM38.634 4.19579C38.68 4.45769 38.8172 4.99339 38.9482 5.39839C39.2935 6.43292 39.3157 6.69588 39.0831 7.01966C38.9715 7.16547 38.8889 7.3735 38.8909 7.50835C38.8929 7.73449 38.8887 7.73863 38.7804 7.6303C38.5637 7.41362 38.5292 6.98056 38.6996 6.4452C38.7838 6.15573 38.8416 5.88133 38.8198 5.83466C38.8079 5.78955 38.6644 5.57957 38.5068 5.37219C38.2876 5.07824 38.2208 4.92838 38.2048 4.70485C38.1796 4.33091 38.2513 4.0539 38.4242 3.86967L38.5653 3.72851L38.634 4.19579ZM9.53566 33.2714C9.58128 33.317 9.58382 33.3943 9.53815 33.4399C9.45512 33.523 9.36749 33.4851 9.35304 33.3628C9.32873 33.2388 9.45013 33.1858 9.53566 33.2714ZM41.8369 1.31224C41.9542 1.26342 41.9951 1.27947 42.1568 1.48269C42.4274 1.82797 42.4076 1.91615 42.0741 1.87329C41.6914 1.82269 41.3793 1.51893 41.6081 1.41558C41.6569 1.38962 41.7601 1.3434 41.8369 1.31224ZM36.0319 7.72162C36.0801 7.75323 36.0879 7.8025 36.0505 7.83987C36.0132 7.87723 35.9442 7.86638 35.8929 7.81506C35.7959 7.71813 35.9044 7.6439 36.0319 7.72162ZM8.43466 35.7408C8.50933 35.7574 8.60162 35.8248 8.63063 35.887C8.71561 36.0301 8.39177 36.3539 8.0826 36.435C7.77343 36.5161 7.71491 36.3579 7.98317 36.1695C8.09577 36.0911 8.19386 35.9816 8.19856 35.9199C8.20592 35.7529 8.2796 35.702 8.43466 35.7408ZM9.4543 49.2157C9.54553 49.3069 9.65177 49.4629 9.67557 49.5532C9.72424 49.7098 9.72008 49.7139 9.57543 49.6191C9.42663 49.5284 9.14208 49.1857 9.07371 49.026C9.03125 48.9088 9.26613 49.0275 9.4543 49.2157ZM20.2542 58.5209C20.3854 58.6521 20.3931 58.7926 20.2702 58.7445C20.153 58.702 20.0462 58.5122 20.1044 58.4541C20.1251 58.4334 20.1972 58.4639 20.2542 58.5209ZM74.5311 33.0847C74.6508 33.2045 74.6958 33.3989 74.617 33.4778C74.5422 33.5526 74.408 33.4017 74.3785 33.2145C74.346 33.0076 74.4056 32.9593 74.5311 33.0847ZM75.0712 44.4276C75.1412 44.4146 75.289 44.4378 75.4005 44.4746C75.5841 44.5419 75.6297 44.5875 75.9546 45.0951C76.4173 45.807 76.5443 46.0336 76.4944 46.0834C76.3616 46.2162 76.1141 46.2926 76.0457 46.2242C76.0058 46.1843 75.9006 46.0044 75.8209 45.8332C75.7033 45.5745 75.6188 45.4651 75.3202 45.2163C74.9988 44.9447 74.9558 44.8851 74.9263 44.6979C74.8891 44.4614 74.8974 44.4531 75.0712 44.4276ZM80.2098 39.4942L80.4246 39.4847L80.1194 39.7442C79.9114 39.9181 79.7972 40.0779 79.7519 40.2486C79.6667 40.5619 79.6018 40.6382 79.5724 40.451C79.4995 39.9878 79.8182 39.5095 80.2098 39.4942ZM73.1844 46.8503C73.3213 46.9872 73.3596 47.1085 73.3273 47.3004C73.3028 47.4504 73.2888 47.453 73.1292 47.2933C73.0265 47.1907 72.9644 47.0704 72.9758 46.9905C72.9925 46.7913 73.0761 46.742 73.1844 46.8503ZM74.854 45.979C74.9773 46.2435 75.0077 46.4981 74.919 46.4842C74.8444 46.4676 74.6937 46.0595 74.6881 45.8713C74.6923 45.6845 74.7405 45.7161 74.854 45.979ZM64.2699 57.9886C64.4036 58.1971 64.5154 58.5414 64.4671 58.6011C64.3857 58.6939 64.2281 58.4866 64.1551 58.206C64.0786 57.872 64.1305 57.7745 64.2699 57.9886ZM71.2222 51.5723C71.3252 51.8 71.2665 52.007 71.1083 51.9484C71.0207 51.9106 70.8198 51.3361 70.8562 51.2313C70.905 51.114 71.103 51.3037 71.2222 51.5723ZM60.5012 61.7345C60.5909 61.7246 60.6194 61.7531 60.6334 61.8418C60.6473 61.9305 60.6183 61.9596 60.5156 61.9482C60.2879 61.9364 60.2724 61.7466 60.5012 61.7345ZM81.8766 40.7126C82.0715 40.9739 82.1003 41.4012 81.9121 41.2131C81.8437 41.1447 81.6667 40.569 81.704 40.5317C81.7165 40.5192 81.7963 40.5991 81.8766 40.7126ZM68.1706 54.6239C68.2504 54.795 68.2208 54.8816 68.1036 54.8391C68.016 54.8013 67.9689 54.6546 68.0094 54.5456C68.0567 54.4185 68.0878 54.433 68.1706 54.6239Z"/>
</mask>
<path d="M36.5153 3.37235C36.6286 3.72653 36.5617 3.85053 36.2157 3.91141L35.9159 3.96034L36.0932 4.07953C36.2124 4.16556 36.2497 4.21948 36.2165 4.25269C36.1667 4.30252 35.5462 4.6037 35.182 4.76262C35.0871 4.80054 35.0315 4.93595 34.9987 5.18544L34.9409 5.55113L33.9491 6.5771C33.4042 7.14484 32.9496 7.6451 32.949 7.70267C32.9386 7.75869 32.7398 7.99168 32.4876 8.22108C32.2453 8.45203 31.9043 8.85004 31.7267 9.09599C31.4807 9.45609 31.3229 9.61385 30.996 9.8267C30.6873 10.0328 30.5088 10.2113 30.2721 10.5392C30.1029 10.7769 29.7639 11.2185 29.5184 11.521C29.2771 11.8194 29.0092 12.2241 28.9277 12.4083C28.8041 12.6915 28.7392 12.7678 28.5799 12.8244C28.3102 12.9117 27.635 13.5983 27.1963 14.2308C26.7343 14.8981 25.1059 16.4581 24.3161 16.997C23.8518 17.3131 23.6841 17.4693 23.395 17.8611C22.8401 18.6098 20.5903 20.9851 16.7884 24.8555L15.0602 26.6064L14.8585 26.5459L14.651 26.4796L14.6182 26.7291C14.588 26.9646 14.5231 27.0409 13.8563 27.6279C13.4614 27.9886 12.9866 28.3607 12.8014 28.4661C12.5145 28.6276 12.4081 28.7454 12.0769 29.2362C11.7981 29.6633 11.6268 29.8573 11.4624 29.942C11.107 30.1263 9.58528 31.7848 9.44296 32.1324C9.26428 32.5848 7.95294 33.7479 7.54523 33.8135C7.25112 33.8681 7.01347 34.0373 6.89092 34.2967C6.82964 34.4264 6.80163 34.4316 6.62847 34.3083C6.53048 34.2352 6.32566 34.155 6.18355 34.1374L5.91335 34.0997L5.78288 34.5837C5.67633 34.9753 5.61765 35.091 5.44643 35.1938C5.32814 35.2665 5.17142 35.4004 5.08424 35.4876C4.9986 35.5846 4.84139 35.6848 4.73244 35.7254C4.57318 35.782 4.5 35.8666 4.35254 36.1509C4.25284 36.3418 4.08152 36.6272 3.97147 36.7828C3.79394 37.0288 3.73687 37.0631 3.55535 37.0393C3.43711 37.0207 3.282 37.0732 3.17665 37.1671C3.02824 37.2927 3.00278 37.3752 3.03063 37.6438C3.08224 38.094 2.97629 38.3368 2.60268 38.6192C2.03451 39.0391 2.05371 39.0085 2.19621 39.2423C2.40918 39.5882 2.40602 39.6597 2.16683 39.8191C2.03763 39.9141 1.90787 40.0667 1.85385 40.2119C1.76606 40.448 1.7619 40.4521 1.42273 40.4036C1.24121 40.3798 1.01823 40.3063 0.927493 40.2488L0.765735 40.1368L0.842854 40.4132C0.908072 40.6445 0.88676 40.7228 0.749753 40.8598C0.596139 41.0135 0.595088 41.0373 0.734039 41.1265C1.23592 41.4457 1.40593 41.6406 1.72713 42.2773C2.03383 42.8829 2.06959 42.927 2.93159 43.8554C3.42971 44.3951 3.95269 45.0011 4.12214 45.2536C4.40769 45.6637 4.44916 45.7134 4.67679 45.8165C4.87331 45.9051 4.92878 45.9523 4.97849 46.085C5.02821 46.2178 5.08368 46.2649 5.24339 46.3333C5.39895 46.4058 5.48293 46.4815 5.60521 46.6785C5.73891 46.8869 5.82289 46.9626 6.12725 47.1258C6.78574 47.4937 6.98265 47.7985 7.12218 48.6854C7.17334 49.0106 7.28772 49.4322 7.36904 49.6131L7.52289 49.9496L7.93094 50.1916C8.15752 50.3186 8.74803 50.743 9.2395 51.1182C9.79785 51.552 10.2106 51.8236 10.3262 51.8562C10.4361 51.8831 10.7644 51.954 11.0616 52.0103C11.3587 52.0667 11.6802 52.1557 11.771 52.2132C11.8757 52.2681 12.1826 52.5999 12.5615 53.0535C13.0518 53.6352 13.2871 53.8788 13.6567 54.182C14.086 54.5282 14.1332 54.5837 14.2051 54.7968C14.2672 55.0084 14.2958 55.0369 14.498 55.1312C14.7567 55.2488 16.0449 56.5037 16.3817 56.9651C16.4921 57.117 16.7056 57.4053 16.8533 57.6111C17.0052 57.8128 17.1394 58.0549 17.1507 58.1576C17.1714 58.3194 17.1843 58.3407 17.3622 58.4023C17.5458 58.4696 17.5758 58.508 17.811 59.0255C18.0923 59.6223 18.4877 60.2419 18.7842 60.5384C19.0009 60.755 20.108 61.1647 20.4477 61.1556C20.567 61.1504 20.8045 61.1637 20.9845 61.1776C21.263 61.207 21.3195 61.2303 21.3521 61.346C21.3687 61.4207 21.3178 61.5856 21.2368 61.7122C21.1117 61.8944 21.1075 61.9898 21.1955 62.2439C21.342 62.6561 21.725 63.2882 22.0505 63.6469C22.3019 63.9315 22.3174 63.9387 22.4663 63.8469C22.6111 63.7591 22.6422 63.7736 22.9351 64.0167C23.1114 64.1598 23.4644 64.3883 23.7206 64.5199C24.1478 64.7312 24.209 64.7841 24.4453 65.0952C24.762 65.5198 27.1392 67.8638 27.6748 68.2748C27.8837 68.4422 28.3337 68.8589 28.6773 69.2109C29.1978 69.7396 29.3528 69.8697 29.6499 70.0174C29.9584 70.1764 30.0024 70.2122 30.0853 70.403C30.1418 70.5176 30.3398 70.7986 30.5243 71.0246C30.8902 71.457 32.1219 72.5973 32.6388 72.9814C33.0846 73.311 33.3101 73.553 33.3836 73.776C33.4452 73.9539 33.4851 73.9938 33.8952 74.2794C34.3152 74.5665 34.3836 74.6349 34.9387 75.3228C35.5125 76.0377 35.527 76.0688 35.4719 76.238C35.4225 76.4128 35.494 76.5922 35.577 76.5092C35.5978 76.4884 35.6875 76.4785 35.772 76.4966C35.91 76.5183 35.9328 76.5411 36.0271 76.7433C36.1519 77.0176 36.4557 77.3297 36.7274 77.4685C36.8788 77.5452 36.9373 77.6121 37.0042 77.7619C37.0767 77.9175 37.1337 77.9745 37.3178 78.0755C37.506 78.1724 37.5589 78.2336 37.6371 78.3949C37.7055 78.5546 37.7853 78.6344 38.0393 78.8137C38.2166 78.9329 38.5718 79.205 38.8263 79.418C39.0808 79.631 39.4982 79.9321 39.7377 80.0803C39.9944 80.2456 40.3568 80.5333 40.5947 80.7629C40.8269 80.9868 41.1758 81.3108 41.3806 81.4824L41.7476 81.7996L42.1685 81.3901C42.4965 81.0621 42.6578 80.9578 42.9291 80.8803C43.2705 80.7899 43.3078 80.7525 45.6136 78.4582C48.3179 75.7652 48.3843 75.6988 48.4903 75.456C48.5391 75.3388 48.618 75.2599 48.7077 75.25C48.9095 75.2193 51.0694 73.0365 51.1059 72.8404C51.1168 72.7268 51.1973 72.6578 51.4063 72.5514C51.6476 72.4356 51.7016 72.3816 51.7795 72.144C51.8548 71.9204 51.9114 71.8524 52.0624 71.8041C52.2232 71.7573 52.2574 71.7003 52.2929 71.4368C52.3194 71.2391 52.3916 71.0871 52.5042 71.0087C52.6459 70.9013 52.7034 70.9007 52.9119 71.0344C53.1882 71.2028 53.3127 71.1696 53.3471 70.9299C53.3887 70.7058 56.666 67.3487 57.2721 66.9251C57.6571 66.6542 57.7303 66.5696 57.8316 66.2972C57.9141 66.0892 57.9884 65.9807 58.0781 65.9708C58.2757 65.9443 58.4989 65.7439 58.8487 65.28C59.0636 64.9967 59.3781 64.7051 59.8238 64.362C60.543 63.8024 60.9624 63.2918 61.1894 62.6885C61.2907 62.4161 61.3364 62.3704 61.4863 62.346C61.632 62.3257 62.0062 61.9857 63.1977 60.7942C64.4682 59.5238 64.7624 59.1953 64.9732 58.8248C65.1129 58.5825 65.2998 58.3044 65.3953 58.2089C65.5738 58.0304 66.0043 57.8963 66.3529 57.9127C66.5271 57.9209 66.5868 57.8727 66.8707 57.5089C67.0457 57.277 68.2336 56.032 69.5108 54.7434L71.8327 52.3987L71.795 52.1285L71.7557 51.8485L71.9683 51.8867C72.1753 51.9193 72.2043 51.8902 74.0829 50.0572C75.1281 49.0348 76.2314 47.9543 76.5319 47.6653C76.9445 47.2641 77.1168 47.0462 77.2295 46.7852C77.4669 46.2171 77.5608 46.1118 77.9021 46.0214C78.4562 45.8779 78.8033 45.6106 79.3167 44.9033C79.6182 44.4991 79.9457 44.1374 80.2342 43.8945C80.6198 43.566 80.6956 43.4674 80.7772 43.1919C80.8416 42.9906 80.9169 42.8583 81.0051 42.8386C81.0736 42.8157 81.2043 42.7306 81.2915 42.6434L81.4591 42.4872L80.9675 42.3858C80.6942 42.3284 80.3965 42.2383 80.3016 42.185C79.8951 41.9528 79.6251 41.55 79.5704 41.0801C79.5307 40.7663 79.6194 40.7803 79.8463 41.1235C80.3941 41.9785 81.05 42.2691 81.7291 41.9435C82.2479 41.6984 82.44 41.3922 82.3641 40.9094C82.2912 40.4463 82.0456 40.0761 81.3976 39.4696C80.9461 39.043 80.8382 38.9684 80.4597 38.8224C79.9287 38.6235 79.8561 38.5592 79.8957 38.2916C79.9659 37.9134 79.3533 37.226 77.6063 35.7115C76.3756 34.6386 75.9915 34.213 75.3884 33.2196C75.0028 32.6016 74.8551 32.3958 74.6592 32.2496C74.3424 32.0076 74.3625 32.1357 74.7103 32.5748C75.0809 33.0367 75.0274 33.1244 74.5909 32.7626C74.2467 32.4682 74.0109 32.1909 73.9617 32.0005C73.9425 31.9399 73.6704 31.676 73.265 31.3287C72.4159 30.6042 71.4082 29.6048 69.0771 27.1575C67.5522 25.5578 67.0633 25.0773 66.4133 24.5185C65.9737 24.137 65.4086 23.6301 65.1577 23.3792C64.8099 23.0314 64.6352 22.8982 64.4459 22.8252C64.196 22.733 64.1846 22.7216 63.9613 22.3405C63.7742 22.0372 63.557 21.7868 62.9111 21.1327L62.0958 20.3173L62.0207 19.9931C61.9483 19.655 61.7975 19.4295 61.7466 19.5945C61.7305 19.6448 61.7107 19.733 61.6946 19.7833C61.665 19.8699 61.5385 19.7683 60.4727 18.8271C60.1254 18.5129 60.031 18.402 59.9134 18.1433C59.7943 17.8747 59.7414 17.8135 59.405 17.5684C59.1763 17.3978 58.5056 16.7686 57.6202 15.8749L56.2061 14.4608L56.185 14.174C56.1717 13.8452 56.0287 13.6689 55.9015 13.8075C55.82 13.9004 55.7718 13.8688 54.8858 13.124C54.2047 12.5507 53.6251 12.0127 52.7382 11.1092C51.4236 9.778 47.5022 5.95617 47.2637 5.78411C47.187 5.72399 46.992 5.64527 46.8369 5.60646L46.5481 5.54179L46.5311 5.25083L46.51 4.96402L46.0777 4.5981C45.8345 4.39648 45.694 4.2975 45.7541 4.37422C45.976 4.65417 45.7883 4.591 45.4803 4.2831C45.3093 4.11204 45.1875 3.94873 45.2083 3.92797C45.2332 3.90306 45.2995 3.92792 45.3509 3.97923C45.6754 4.27054 44.9181 3.39703 44.3593 2.83823C43.4283 1.89896 42.6518 1.23863 42.28 1.07443C41.9378 0.914883 41.3481 0.831716 41.2526 0.927204C41.2194 0.960417 41.0477 0.93822 40.8797 0.878152C40.1952 0.650338 39.6152 0.842579 39.1958 1.44447C39.0224 1.68627 38.9778 1.70808 38.7304 1.69318C38.3269 1.66334 38.1837 1.76093 38.0424 2.17594C37.9307 2.50432 37.899 2.54739 37.7502 2.54799C37.6309 2.55325 37.524 2.63734 37.3641 2.84282C37.1518 3.11213 37.1295 3.12303 36.8422 3.06822C36.4662 2.99946 36.4164 3.04928 36.5153 3.37235ZM38.634 4.19579C38.68 4.45769 38.8172 4.99339 38.9482 5.39839C39.2935 6.43292 39.3157 6.69588 39.0831 7.01966C38.9715 7.16547 38.8889 7.3735 38.8909 7.50835C38.8929 7.73449 38.8887 7.73863 38.7804 7.6303C38.5637 7.41362 38.5292 6.98056 38.6996 6.4452C38.7838 6.15573 38.8416 5.88133 38.8198 5.83466C38.8079 5.78955 38.6644 5.57957 38.5068 5.37219C38.2876 5.07824 38.2208 4.92838 38.2048 4.70485C38.1796 4.33091 38.2513 4.0539 38.4242 3.86967L38.5653 3.72851L38.634 4.19579ZM9.53566 33.2714C9.58128 33.317 9.58382 33.3943 9.53815 33.4399C9.45512 33.523 9.36749 33.4851 9.35304 33.3628C9.32873 33.2388 9.45013 33.1858 9.53566 33.2714ZM41.8369 1.31224C41.9542 1.26342 41.9951 1.27947 42.1568 1.48269C42.4274 1.82797 42.4076 1.91615 42.0741 1.87329C41.6914 1.82269 41.3793 1.51893 41.6081 1.41558C41.6569 1.38962 41.7601 1.3434 41.8369 1.31224ZM36.0319 7.72162C36.0801 7.75323 36.0879 7.8025 36.0505 7.83987C36.0132 7.87723 35.9442 7.86638 35.8929 7.81506C35.7959 7.71813 35.9044 7.6439 36.0319 7.72162ZM8.43466 35.7408C8.50933 35.7574 8.60162 35.8248 8.63063 35.887C8.71561 36.0301 8.39177 36.3539 8.0826 36.435C7.77343 36.5161 7.71491 36.3579 7.98317 36.1695C8.09577 36.0911 8.19386 35.9816 8.19856 35.9199C8.20592 35.7529 8.2796 35.702 8.43466 35.7408ZM9.4543 49.2157C9.54553 49.3069 9.65177 49.4629 9.67557 49.5532C9.72424 49.7098 9.72008 49.7139 9.57543 49.6191C9.42663 49.5284 9.14208 49.1857 9.07371 49.026C9.03125 48.9088 9.26613 49.0275 9.4543 49.2157ZM20.2542 58.5209C20.3854 58.6521 20.3931 58.7926 20.2702 58.7445C20.153 58.702 20.0462 58.5122 20.1044 58.4541C20.1251 58.4334 20.1972 58.4639 20.2542 58.5209ZM74.5311 33.0847C74.6508 33.2045 74.6958 33.3989 74.617 33.4778C74.5422 33.5526 74.408 33.4017 74.3785 33.2145C74.346 33.0076 74.4056 32.9593 74.5311 33.0847ZM75.0712 44.4276C75.1412 44.4146 75.289 44.4378 75.4005 44.4746C75.5841 44.5419 75.6297 44.5875 75.9546 45.0951C76.4173 45.807 76.5443 46.0336 76.4944 46.0834C76.3616 46.2162 76.1141 46.2926 76.0457 46.2242C76.0058 46.1843 75.9006 46.0044 75.8209 45.8332C75.7033 45.5745 75.6188 45.4651 75.3202 45.2163C74.9988 44.9447 74.9558 44.8851 74.9263 44.6979C74.8891 44.4614 74.8974 44.4531 75.0712 44.4276ZM80.2098 39.4942L80.4246 39.4847L80.1194 39.7442C79.9114 39.9181 79.7972 40.0779 79.7519 40.2486C79.6667 40.5619 79.6018 40.6382 79.5724 40.451C79.4995 39.9878 79.8182 39.5095 80.2098 39.4942ZM73.1844 46.8503C73.3213 46.9872 73.3596 47.1085 73.3273 47.3004C73.3028 47.4504 73.2888 47.453 73.1292 47.2933C73.0265 47.1907 72.9644 47.0704 72.9758 46.9905C72.9925 46.7913 73.0761 46.742 73.1844 46.8503ZM74.854 45.979C74.9773 46.2435 75.0077 46.4981 74.919 46.4842C74.8444 46.4676 74.6937 46.0595 74.6881 45.8713C74.6923 45.6845 74.7405 45.7161 74.854 45.979ZM64.2699 57.9886C64.4036 58.1971 64.5154 58.5414 64.4671 58.6011C64.3857 58.6939 64.2281 58.4866 64.1551 58.206C64.0786 57.872 64.1305 57.7745 64.2699 57.9886ZM71.2222 51.5723C71.3252 51.8 71.2665 52.007 71.1083 51.9484C71.0207 51.9106 70.8198 51.3361 70.8562 51.2313C70.905 51.114 71.103 51.3037 71.2222 51.5723ZM60.5012 61.7345C60.5909 61.7246 60.6194 61.7531 60.6334 61.8418C60.6473 61.9305 60.6183 61.9596 60.5156 61.9482C60.2879 61.9364 60.2724 61.7466 60.5012 61.7345ZM81.8766 40.7126C82.0715 40.9739 82.1003 41.4012 81.9121 41.2131C81.8437 41.1447 81.6667 40.569 81.704 40.5317C81.7165 40.5192 81.7963 40.5991 81.8766 40.7126ZM68.1706 54.6239C68.2504 54.795 68.2208 54.8816 68.1036 54.8391C68.016 54.8013 67.9689 54.6546 68.0094 54.5456C68.0567 54.4185 68.0878 54.433 68.1706 54.6239Z" fill="black" stroke="white" stroke-width="4" mask="url(#path-1-inside-1_938_899)"/>
<path d="M53.4648 19.9709C52.8086 20.0939 52.2871 20.5217 51.5898 21.506C51.2383 22.0041 50.8398 22.4553 50.3066 22.9826C49.4805 23.7912 49.3984 23.8967 49.3984 24.1779C49.3984 24.2775 49.3867 24.3596 49.3691 24.3596C49.3516 24.3596 49.082 24.2892 48.7715 24.2072C48.2793 24.0783 48.1211 24.0607 47.6523 24.09C47.3594 24.1076 47.0547 24.1017 46.9785 24.0724C46.9082 24.0431 46.668 23.8849 46.4395 23.715C45.8066 23.2404 45.3672 23.0529 44.8047 23.0236L44.3301 23.0002L44.5352 23.2228C44.6465 23.3517 44.9512 23.674 45.209 23.9435C45.4668 24.2131 45.6543 24.424 45.6191 24.4123C45.5898 24.4006 44.8223 24.0959 43.9199 23.7326C41.9629 22.9533 40.3809 22.4084 39.6133 22.2502C39.2207 22.174 38.5938 22.1213 37.4746 22.0803C36.6074 22.0451 35.7344 22.0041 35.541 21.9806C34.6328 21.8986 33.7715 21.6642 32.6113 21.1955C31.75 20.8439 31.3984 20.7736 30.502 20.7619C29.7461 20.7502 29.6406 20.7385 29.1426 20.5627C28.8496 20.4572 28.4395 20.3576 28.2344 20.34L27.8652 20.3049L28.2754 20.5392C28.5039 20.6623 28.9258 20.9318 29.2129 21.1428L29.7402 21.5178L30.2969 21.5002C31.0176 21.4767 31.5684 21.6174 32.3535 22.0217C32.9863 22.3439 33.3672 22.6135 35.7637 24.3888L37.2637 25.5021L37.0469 25.5666C36.7305 25.6603 36.4609 25.8068 36.0918 26.0998C35.5176 26.551 35.3125 26.5451 34.5449 26.0529C34.1055 25.7775 34.0586 25.7599 33.7656 25.7834C33.4844 25.801 33.4551 25.7951 33.4258 25.6721C33.3203 25.2502 33.543 25.0978 34.2812 25.092C34.5566 25.092 34.8613 25.1154 34.9551 25.1388L35.1309 25.1857L34.9551 25.0627C34.6035 24.8224 34.0703 24.6935 33.5723 24.7228C33.1445 24.7463 33.0449 24.7814 32.3887 25.1037C31.5449 25.5197 31.4219 25.5666 30.7656 25.6486C30.2207 25.7248 29.8574 25.8537 29.6875 26.0529L29.5762 26.176L29.7461 26.1408C30.1387 26.0646 31.8789 27.3713 32.3359 28.0803C32.5293 28.3791 32.5352 28.7424 32.3535 29.3517L32.2188 29.797L31.416 29.7678C30.4727 29.7326 29.8164 29.8263 28.9199 30.131C28.1934 30.3713 26.1719 31.2795 26.2363 31.3322C26.2598 31.3556 26.4707 31.4025 26.6934 31.4435C27.9238 31.672 29.0547 32.258 29.5352 32.926C29.8516 33.3595 29.7109 33.6935 29.1895 33.7697C28.5215 33.8635 28.5625 34.0802 29.3301 34.5021C29.5234 34.6076 29.9629 34.8713 30.3027 35.0939C30.8887 35.4689 30.9648 35.5041 31.5918 35.633C32.6641 35.8615 33.1328 36.0783 33.0977 36.3361C33.0801 36.4416 32.9219 36.5119 31.9961 36.8283C30.5547 37.3146 30.168 37.3908 29.2773 37.3498C28.6914 37.3263 28.4043 37.2795 27.6309 37.0744C26.834 36.8576 26.582 36.8166 25.9609 36.7931C25.1934 36.7697 24.5605 36.8635 24.3906 37.0392C24.3262 37.1037 24.3613 37.1095 24.6191 37.0685C25.2578 36.9689 26.4941 37.2853 26.7754 37.6252C26.9863 37.8771 26.623 38.2111 26.043 38.3049C25.8438 38.34 25.6562 38.4103 25.5742 38.4865C25.498 38.5627 25.3633 38.8674 25.2285 39.2892C24.918 40.2502 24.8477 40.3791 24.2559 40.9416C23.793 41.3869 23.7109 41.4924 23.5293 41.9318L23.3242 42.424L23.541 42.2599C24.291 41.6974 24.748 41.3224 24.9062 41.1291C25.0117 41.0119 25.1875 40.672 25.3105 40.3849C25.6797 39.4826 25.9844 39.131 26.582 38.8908C26.7754 38.8146 27.1445 38.6154 27.4082 38.4396C28.0762 38.006 28.1055 38.0002 28.8672 38.3576C29.5938 38.6916 29.8809 38.7677 30.3965 38.7736C30.8945 38.7736 31.2812 38.6799 31.5332 38.4924C31.6504 38.4045 32.2129 37.9181 32.7812 37.4084C33.5898 36.6818 33.8477 36.4181 33.9648 36.1779C34.1875 35.7385 34.791 34.7541 35.0488 34.4025C35.2539 34.1271 35.2949 34.0978 35.541 34.0744C35.6875 34.0627 35.8047 34.0627 35.8047 34.0744C35.8047 34.0861 35.6641 34.2678 35.4941 34.4728C35.2305 34.7892 35.1484 34.9474 34.9902 35.4513C34.8906 35.7795 34.8086 36.1076 34.8086 36.1779C34.8086 36.301 35.207 36.6349 35.9043 37.0978L36.1504 37.2619L36.4609 37.1623C36.8594 37.0334 36.9824 36.922 36.9414 36.7463C36.9062 36.6174 36.918 36.6174 37.1113 36.676C37.375 36.758 37.5039 36.7052 37.5039 36.5236C37.5039 36.4299 37.6328 36.2424 37.8848 35.967C38.0957 35.7385 38.2656 35.5158 38.2656 35.4748C38.2656 35.299 38.0664 34.7541 37.8789 34.4142C37.7676 34.2092 37.6797 33.9806 37.6797 33.8928C37.6797 33.676 37.9023 33.1135 38.1191 32.7678C38.4414 32.2638 39.25 31.5607 39.6133 31.467C39.7773 31.426 39.8418 31.3615 39.9473 31.1447C40.0176 30.9982 40.1055 30.8576 40.1406 30.8342C40.1758 30.8107 40.3926 30.84 40.627 30.8928C41.2129 31.0275 41.3711 30.9689 41.3711 30.6115V30.3537L41.9629 30.3127C42.291 30.2951 42.625 30.2599 42.707 30.2365C42.8418 30.2013 42.8535 30.2131 42.8125 30.3713C42.5723 31.4084 42.5078 31.6662 42.4668 31.7248C42.4434 31.7599 42.1094 31.9006 41.7168 32.0412C41.1367 32.2463 40.9961 32.3166 40.9316 32.4455C40.7148 32.8674 40.4336 34.2385 40.4336 34.8888V35.2521L39.8652 35.5568C38.7227 36.1662 38.2832 36.4299 37.7969 36.8107C36.9297 37.4904 36.6602 37.5842 34.9785 37.801C33.7891 37.9592 33.3906 38.047 32.7871 38.2873C32.3887 38.4455 32.377 38.4572 32.3359 38.6974C32.2773 39.0373 32.1484 39.2951 31.7852 39.7931C31.6152 40.0217 31.5039 40.2209 31.5332 40.2267C31.6914 40.2853 32.1895 40.092 32.4238 39.881C32.6582 39.6818 32.6875 39.6174 32.7285 39.3302L32.7637 39.008L33.0684 38.9201C33.4316 38.8205 34.4277 38.6213 34.8379 38.5744L35.1309 38.5392L34.9258 38.6506C34.8145 38.715 34.5566 38.8263 34.3574 38.8908C34.0938 38.9787 33.9355 39.0842 33.7656 39.2658C33.4902 39.5588 33.3555 39.7814 33.4727 39.7404C33.5723 39.7052 35.541 39.2424 35.5879 39.2424C35.6113 39.2424 35.4473 39.4181 35.2246 39.6349C34.9961 39.8693 34.791 40.1271 34.75 40.2502C34.7031 40.3732 34.627 40.4845 34.5801 40.5021C34.5273 40.5256 33.8828 40.7482 33.1387 41.0119C30.5312 41.9201 29.9395 42.2248 28.7031 43.2912C28.1582 43.7599 27.7422 44.0236 27.3438 44.1467C27.1621 44.2052 27.0156 44.2697 27.0156 44.2931C27.0156 44.3869 27.877 44.4045 28.2988 44.3166C29.084 44.1525 29.5176 43.883 30.8652 42.7404C31.75 41.9845 32.0195 41.9904 33.291 42.7931C33.5664 42.9689 33.8418 43.1095 33.8945 43.1095C34.0352 43.1095 34.4102 42.9103 34.9609 42.5529C35.5586 42.1545 36.25 41.4338 36.5664 40.8771C36.7012 40.6369 36.7949 40.4963 36.7773 40.5607C36.7598 40.6252 36.7012 40.8771 36.6543 41.1174L36.5605 41.5568L36.0273 42.0607C35.5703 42.4943 35.5 42.5881 35.5293 42.7052C35.6641 43.1974 35.6523 43.2736 35.4121 43.5021C35.2891 43.6252 35.0957 43.7892 34.9902 43.8713C34.8145 44.006 34.7852 44.0588 34.7617 44.3576C34.75 44.5392 34.6973 44.7209 34.6562 44.756C34.6094 44.7912 34.3867 44.8205 34.1465 44.8146C33.7539 44.8088 33.7012 44.8205 33.5723 44.9611C33.4961 45.0431 33.3262 45.1662 33.1973 45.2248C32.9219 45.3537 32.7578 45.5939 32.7578 45.8576C32.7578 46.0099 32.7344 46.0392 32.6113 46.0392C32.5176 46.0392 32.3242 46.1623 32.084 46.3674C31.7148 46.672 31.6855 46.6896 31.5156 46.631C31.0996 46.4845 30.6602 46.59 30.4258 46.8888C30.3203 47.0177 30.2617 47.0353 29.9102 47.0412C29.6875 47.0412 29.459 47.0646 29.4004 47.0881C29.3066 47.1232 29.3242 47.1525 29.5293 47.3166C29.6641 47.422 29.7695 47.5275 29.7695 47.551C29.7695 47.6095 28.9551 49.0978 28.4629 49.9357C27.8359 51.0021 27.1211 52.0744 26.7812 52.4435C26.4824 52.7717 26.4707 52.7775 26.1426 52.7775C25.7266 52.7775 25.3867 52.9592 25.2461 53.2463C25.1875 53.3635 25.0996 53.674 25.0527 53.9435C24.918 54.6291 24.7891 54.8693 24.291 55.3439C23.9219 55.6955 23.8398 55.8068 23.7637 56.0822C23.6523 56.4572 23.6348 57.2189 23.7285 57.5588C23.8047 57.84 24.0859 58.2502 24.2676 58.3498C24.9414 58.7072 25.5156 58.3732 25.8145 57.4533C26.0312 56.8029 26.2363 56.4455 26.6992 55.9474C26.9395 55.6896 27.1035 55.4494 27.1445 55.3146C27.1738 55.1916 27.3496 54.9045 27.5312 54.6818C28.0176 54.0724 29.3242 52.7541 29.8223 52.3791L30.2559 52.0451L30.6719 52.0568L31.082 52.0685L31.6621 51.6291C32.1777 51.2365 32.623 50.9611 32.7344 50.9611C32.7578 50.9611 32.7637 51.301 32.7461 51.7228C32.7285 52.2619 32.7402 52.4845 32.7812 52.4845C32.957 52.4845 33.1152 52.2795 33.2266 51.9045C33.3555 51.4709 33.4785 51.2951 33.543 51.465C33.6016 51.6174 33.7246 51.5236 33.707 51.3361C33.6953 51.2424 33.7188 51.0431 33.748 50.9025C33.8008 50.6799 33.7949 50.6271 33.707 50.5627C33.6191 50.4982 33.625 50.4806 33.7656 50.3459C33.8594 50.258 33.9121 50.1642 33.8945 50.1115C33.8711 50.0646 33.8652 50.0236 33.877 50.0236C33.959 50.0236 35.1133 49.672 35.2188 49.6135C35.2949 49.5724 35.5762 49.3732 35.8398 49.174C36.1035 48.9689 36.543 48.6701 36.8242 48.5002C37.0996 48.3302 37.3281 48.1838 37.3281 48.1779C37.3281 48.172 37.1348 48.2013 36.9062 48.2424C36.4551 48.3244 35.4238 48.3361 35.1309 48.2717C34.9902 48.2365 35.0547 48.2189 35.4238 48.1838C36.4668 48.09 37.8262 47.7736 38.5176 47.4631C38.8984 47.2873 39.2031 46.9826 39.2031 46.7658C39.2031 46.4025 39.5781 46.0158 40.4336 45.4826C41.1484 45.0431 42.1562 44.5627 42.8652 44.3283L43.4277 44.1408L43.8086 44.5217C44.2832 44.9845 44.8574 45.7404 45.1562 46.2853C45.3262 46.5959 45.4492 46.7424 45.6426 46.8595L45.9004 47.0236L45.584 47.1115C44.8223 47.3283 44.7344 47.34 44.2129 47.3049C43.4629 47.258 43.2988 47.3166 43.0176 47.7267C42.8945 47.9142 42.6836 48.1662 42.5488 48.2834C42.0742 48.7111 40.832 49.426 39.8945 49.8127L39.3906 50.0236L39.0566 49.8713C38.7578 49.7306 38.6699 49.7189 38.207 49.7424C37.2988 49.7834 36.8887 50.1174 36.5137 51.131C36.3145 51.676 36.0156 52.2267 35.7871 52.4787C35.7168 52.5549 35.4648 52.7599 35.2305 52.9357C34.5156 53.4689 34.1934 54.0959 34.1992 54.9455C34.2051 55.7365 34.7324 56.2814 35.3301 56.1174C35.6875 56.0236 35.9512 55.7541 36.25 55.1799C36.5137 54.6642 36.7363 54.4123 37.5684 53.7092C37.7676 53.5392 37.9609 53.299 38.0781 53.0881C38.2598 52.7424 38.2715 52.7365 38.8926 52.4435C39.7188 52.0568 40.5918 51.7814 41.1191 51.7404C41.4414 51.717 41.6523 51.7345 42.0566 51.84C42.6895 52.0041 43.2812 51.9806 44.4766 51.758C44.9102 51.676 45.4141 51.5998 45.5898 51.5939L45.9121 51.5763L45.8945 52.0744C45.8594 52.8595 45.9941 53.047 46.6504 53.1232C46.9902 53.1642 47.002 53.1642 46.9668 53.047C46.8906 52.8068 46.8613 52.0744 46.9258 52.0744C46.9609 52.0744 47.002 52.1213 47.0195 52.1799C47.0664 52.3205 47.4062 52.8537 47.4355 52.8302C47.4473 52.8185 47.418 52.6486 47.3711 52.4552C47.248 51.9338 47.2656 51.5119 47.4062 51.3713C47.4707 51.3068 47.541 51.2541 47.5703 51.2541C47.9102 51.2482 49.6211 51.0724 49.7969 51.0256C50.1602 50.926 50.5762 50.6154 50.7754 50.2931C50.9277 50.0412 50.9512 49.9357 50.9746 49.5138C50.9922 48.9689 50.9395 48.6877 50.6758 48.0197L50.5 47.5685L48.9355 46.5314C47.3359 45.4709 46.0586 44.5861 46.0586 44.5392C46.0586 44.5275 46.1172 44.551 46.1934 44.5978C46.2637 44.6388 46.7969 44.9494 47.377 45.2775C48.6543 46.0099 49.5273 46.5197 50.0723 46.8654C50.5938 47.1994 51.1562 47.5158 51.1562 47.4748C51.1562 47.4572 50.8926 46.924 50.5762 46.2853L49.9902 45.131L49.2695 44.7092C48.8711 44.4806 48.4609 44.2521 48.3613 44.1994C48.2559 44.1467 48.168 44.0939 48.168 44.0881C48.168 44.0588 49.0527 44.1584 49.3984 44.2287C49.5801 44.2638 49.832 44.3693 49.9785 44.4689L50.2363 44.6506L49.9492 44.1291C49.7969 43.842 49.4629 43.2443 49.2168 42.799C48.9648 42.3595 48.7949 42.0138 48.8301 42.0373C48.8711 42.0549 49.0176 42.172 49.1641 42.2892C49.3105 42.4064 49.6445 42.6584 49.9141 42.8459C50.8223 43.4904 51.0391 43.8361 51.0918 44.7209C51.1328 45.3654 51.2031 45.5177 51.7363 46.0978C51.9766 46.3556 51.9824 46.3615 51.877 46.1564C51.8008 46.0099 51.7715 45.8166 51.7715 45.4533C51.7715 45.0021 51.7949 44.9084 51.9941 44.4689C52.1289 44.1701 52.2109 43.8947 52.2109 43.7482C52.2109 43.133 51.6367 42.5881 49.3867 41.0646C49.0352 40.8302 48.7539 40.6252 48.7539 40.6076C48.7539 40.5959 48.9766 40.7013 49.252 40.8478C49.5273 40.9943 49.7617 41.1174 49.7793 41.1174C49.791 41.1174 49.7207 40.883 49.6211 40.59L49.4453 40.0627L49.1758 39.9806C49.0234 39.9338 48.2031 39.6877 47.3477 39.424C46.4922 39.1662 45.4902 38.8615 45.1211 38.7502L44.4473 38.5392L40.873 38.5334C36.8652 38.5217 37.1758 38.4572 41.5762 38.3869L44.1543 38.3459L43.627 38.1818C42.7129 37.9006 42.2207 37.7306 42.291 37.7248C42.332 37.7189 42.9648 37.8771 43.6973 38.0705C45.7656 38.6154 46.7383 38.8205 47.1133 38.7912C47.2891 38.7795 47.5703 38.8088 47.7285 38.8498C47.9629 38.9142 48.0156 38.9552 48.0039 39.0431C47.9453 39.383 47.9336 39.3713 48.6602 39.6642C49.041 39.8224 49.3691 39.9396 49.3809 39.9279C49.3926 39.9162 49.2812 39.7404 49.1289 39.5353C48.8477 39.1545 48.8477 39.1603 49.123 39.0021C49.1992 38.9611 49.2227 38.8849 49.2109 38.756C49.1992 38.6095 49.1582 38.5685 49.0059 38.5275C48.9004 38.4982 48.8125 38.4513 48.8125 38.4162C48.8125 38.381 48.8887 38.176 48.9824 37.965C49.0703 37.7482 49.1641 37.5256 49.1875 37.467C49.2285 37.3439 49.1758 37.3146 50.4238 38.2404L51.0098 38.6681L51.4199 38.6213C52.2637 38.5217 52.3574 38.5392 53.0371 38.9318C53.7578 39.3478 54.0977 39.4767 54.4902 39.4767C54.8359 39.4767 55.1406 39.4181 55.1406 39.3595C55.1406 39.2892 52.7148 37.9006 52.2578 37.7072L51.8594 37.5373L51.4961 37.6369C50.8984 37.7892 50.7168 37.7189 49.8496 37.0275L49.4512 36.7111L49.4688 36.4123L49.4863 36.1135L50.0078 35.8908C50.2949 35.7677 50.6055 35.6095 50.7051 35.5392C50.8691 35.422 51.7539 34.1447 51.707 34.092C51.6953 34.0803 51.6367 34.1095 51.584 34.1623C51.4609 34.2678 49.5684 35.3342 49.5449 35.3049C49.5332 35.2931 49.9492 34.9826 50.4648 34.6193C51.5312 33.8517 52.5801 33.0256 52.9785 32.6388L53.248 32.381L54.0039 33.172C54.4141 33.6056 54.9473 34.1271 55.1816 34.3263C55.6211 34.7013 55.8965 35.0705 56.0137 35.4396C56.125 35.7912 56.2246 35.8381 56.6641 35.7736C56.9512 35.7326 57.1035 35.7385 57.2793 35.797C57.4961 35.8674 57.5312 35.9142 57.9238 36.676C58.1465 37.1213 58.3516 37.4845 58.3691 37.4845C58.4102 37.4845 58.5391 36.9338 58.5391 36.7463C58.5391 36.5646 58.5801 36.5705 58.832 36.7814C58.9434 36.881 59.0664 36.9572 59.1074 36.9572C59.2363 36.9572 60.7773 37.6838 61.1172 37.9006C61.5977 38.2111 62.1543 38.6916 62.3184 38.9377C62.3945 39.0549 62.5 39.342 62.5469 39.5763C62.6055 39.8342 62.752 40.2092 62.9336 40.5549C63.0918 40.8654 63.2266 41.1701 63.2266 41.2345C63.2266 41.381 63.4375 41.3927 63.5137 41.2463C63.6367 41.0177 63.6484 40.7072 63.5547 40.467L63.4551 40.2267L63.8828 40.2502C64.252 40.2677 64.3516 40.297 64.6152 40.4728C64.7852 40.5842 65.043 40.7541 65.1953 40.8478C65.4297 40.9943 65.5059 41.0939 65.6934 41.4982C65.9512 42.049 66.0918 42.2013 66.2734 42.1427C66.3906 42.1076 66.3965 42.0724 66.3672 41.8674C66.3438 41.7385 66.2324 41.4455 66.1211 41.217C66.0039 40.9826 65.9336 40.8185 65.9629 40.8537C65.9922 40.883 66.1387 41.0646 66.2969 41.2463C66.5723 41.5802 66.7188 41.6623 66.7773 41.5099C66.8066 41.4279 66.7422 41.2287 66.5137 40.6486L66.3789 40.3263L66.5488 40.4787C66.748 40.6662 66.9766 40.7482 66.9766 40.6369C66.9766 40.508 66.2441 39.5705 65.9688 39.3361C65.8223 39.2131 65.3359 38.9201 64.8906 38.6857C64.082 38.258 63.9121 38.1291 64.1758 38.1291C64.498 38.1232 64.4688 38.0353 64.041 37.6896C62.6289 36.547 61.5039 35.3927 61.2109 34.7951C61.0645 34.4904 60.9941 34.4025 60.8828 34.3908C60.7129 34.3732 60.3906 34.5724 59.875 35.0236L59.5059 35.3459L59.8223 34.9416C60.1973 34.467 60.1973 34.4553 59.6348 34.1154C59.4238 33.9865 59.2539 33.881 59.2598 33.8693C59.2715 33.8635 59.4648 33.8986 59.6992 33.9455C60.168 34.0392 60.7129 34.0334 60.748 33.9338C60.7598 33.8986 60.6367 33.84 60.4492 33.8049C60.1855 33.7521 60.0273 33.6642 59.5996 33.3185C59.3066 33.09 59.0664 32.8615 59.0664 32.8146C59.0664 32.674 58.9844 32.7678 58.498 33.4826C58.2344 33.8635 57.9297 34.2795 57.8125 34.4084L57.6016 34.6427L57.7715 34.3498C57.8652 34.1857 58.0762 33.8342 58.2402 33.5646C58.4043 33.2951 58.5391 33.049 58.5391 33.0256C58.5391 33.0021 58.4395 32.9728 58.3223 32.9611L58.0996 32.9435L58.3457 32.797C58.6211 32.633 58.6504 32.5685 58.4922 32.4279C58.3516 32.299 57.959 32.1408 57.8945 32.1818C57.8652 32.1994 57.7305 32.3986 57.5957 32.6271C57.4609 32.8498 57.3379 33.0256 57.3262 33.008C57.3086 32.9963 57.3906 32.7736 57.5078 32.5158C57.625 32.258 57.7188 32.0295 57.7188 32.006C57.7188 31.965 57.5898 31.9767 57.0098 32.0705C56.8457 32.0998 56.752 32.0705 56.5879 31.9592C56.4648 31.8771 56.166 31.7599 55.9141 31.7013L55.4629 31.5959L55.873 31.5549C56.2422 31.5197 56.3125 31.5256 56.5586 31.6545C56.7109 31.7365 56.9219 31.801 57.0273 31.801H57.2148L56.9746 31.549C56.6641 31.2267 56.5469 30.9865 56.5469 30.6584C56.5469 30.5119 56.5352 30.3947 56.5176 30.3947C56.5 30.3947 55.0352 30.881 53.2539 31.4787C51.4785 32.0763 50.0195 32.5568 50.0078 32.5451C50.002 32.5392 50.5645 32.2697 51.2617 31.9533C53.7637 30.8107 54.4785 30.4709 55.3574 30.0021C55.8496 29.7443 56.2656 29.5451 56.2773 29.5627C56.2949 29.5803 56.2949 29.6916 56.2773 29.8088C56.2188 30.1662 56.3477 30.1428 56.6055 29.7443C56.7344 29.5451 56.8398 29.3517 56.8398 29.3107C56.8398 29.2756 56.7344 29.1467 56.6055 29.0236C56.4707 28.9006 56.3711 28.7541 56.3711 28.6838C56.3711 28.5314 55.8906 28.051 55.7383 28.051C55.6855 28.051 55.3809 28.2853 55.0645 28.5666C54.7539 28.8537 54.3496 29.1584 54.168 29.2463C53.7109 29.4748 53.1426 29.5803 52.7852 29.5158C52.4512 29.4513 52.3398 29.3928 51.5195 28.8888C50.418 28.2092 50.0781 27.9572 49.4395 27.3478C48.877 26.8146 47.916 25.7775 48.1973 26.006C48.2617 26.0588 48.7363 26.4689 49.252 26.9084C50.3535 27.8576 50.6406 28.051 51.6543 28.5549C53.166 29.299 53.5938 29.2697 54.8652 28.3381C55.1172 28.1506 55.4043 27.9806 55.4922 27.9631C55.7559 27.9045 55.791 27.8224 55.6914 27.4767C55.5332 26.9494 55.5625 26.9025 56.2539 26.4748C56.9102 26.0646 57.6895 25.3556 57.7539 25.1037C57.7773 24.9924 57.6895 24.7228 57.4082 24.0842C57.1973 23.6096 56.957 23.0471 56.8691 22.8361C56.3242 21.5353 55.7969 20.7971 55.0703 20.34C54.584 20.0295 53.9277 19.8771 53.4648 19.9709ZM36.7129 23.0763C37.5566 23.1467 38.1367 23.3283 39.0391 23.7971C39.7656 24.1721 39.9121 24.1896 40.9492 24.0373C41.6465 23.9318 42.0801 23.9787 42.5195 24.2013C42.8535 24.3713 44.3242 25.4787 44.3125 25.5549C44.3125 25.5842 43.8262 25.8361 43.2344 26.1232C42.1504 26.6388 42.0625 26.6974 41.7637 27.0549L41.5996 27.2482L40.8848 27.2072L40.1699 27.1662L39.8125 27.3888C39.1621 27.7931 39.168 27.7873 39.2559 28.0041C39.332 28.1916 39.4492 28.6955 39.5137 29.1056C39.5371 29.258 39.4902 29.1935 39.3262 28.8361C39.0332 28.215 38.8047 27.9689 38.4238 27.84L38.125 27.7404L37.9023 27.9982C37.7793 28.1388 37.6797 28.2853 37.6797 28.3205C37.6797 28.3498 37.7734 28.4728 37.8906 28.5842C38.2598 28.9357 38.7051 29.7267 38.8809 30.3361C38.9043 30.4181 38.7168 30.1428 38.4648 29.7209C38.2188 29.3049 37.8965 28.8361 37.75 28.6838C37.5098 28.426 37.4922 28.3908 37.5566 28.2443C37.5918 28.1506 37.709 27.9806 37.8145 27.8517L38.0078 27.6291L38.4355 27.717L38.8691 27.8049L39.2324 27.5178C39.8008 27.0724 39.9297 27.0373 40.7383 27.0842L41.4238 27.1252L41.7695 26.7678C42.0215 26.5041 42.2324 26.3576 42.5781 26.1935L43.041 25.9767L42.6719 25.9357C41.6875 25.8185 40.7324 25.4846 39.2793 24.7463C38.7402 24.4709 37.9551 24.131 37.5332 23.9846C37.1172 23.8439 36.6719 23.6857 36.5488 23.633C36.1797 23.4748 35.7461 23.1818 35.7461 23.0939C35.7461 22.9943 35.7988 22.9943 36.7129 23.0763ZM49.3457 28.9006C49.5449 29.1877 49.8965 29.674 50.1191 29.967L50.5234 30.5119H50.8281C50.9922 30.5119 51.6426 30.4474 52.2695 30.3654C52.8965 30.2892 53.4121 30.2306 53.4238 30.2424C53.459 30.2775 50.6055 31.0392 50.418 31.0392C50.2832 31.0392 50.043 30.8049 49.9023 30.5295C49.6914 30.1076 48.8711 28.2619 48.9238 28.3146C48.9531 28.3498 49.1406 28.6076 49.3457 28.9006ZM56.2539 28.5197C56.2539 28.549 56.1191 28.6428 55.9609 28.7248C55.6211 28.8947 54.4316 29.3635 54.1738 29.422C54.0039 29.4631 54.0918 29.3986 54.9004 28.9123C55.1523 28.7599 55.9434 28.467 56.125 28.467C56.1953 28.4611 56.2539 28.4845 56.2539 28.5197ZM38.1191 29.9494C38.5293 30.3595 38.6055 30.4709 38.6992 30.7756C38.875 31.3674 38.8633 31.3791 38.6113 30.9045C38.4766 30.6584 38.1953 30.2599 37.9844 30.0256C37.7734 29.797 37.5449 29.5392 37.4805 29.4631L37.3574 29.3224L37.5039 29.3986C37.5859 29.4396 37.8613 29.6857 38.1191 29.9494ZM30.8359 31.215C31.6387 31.2736 32.166 31.4142 32.834 31.7482C33.1562 31.9123 33.25 31.9357 33.7598 31.9416C34.0703 31.9416 34.3105 31.9709 34.2988 32.0002C34.2285 32.1056 33.0625 32.6154 32.7227 32.6857C32.4062 32.7502 32.3125 32.7443 31.9844 32.6564C31.1875 32.4396 29.5938 31.5431 29.5938 31.3088C29.5938 31.1506 29.793 31.1388 30.8359 31.215ZM42.3848 32.9494C42.4141 33.4767 42.4141 33.4885 42.2734 33.5529C42.1973 33.5881 42.1328 33.6525 42.1328 33.7053C42.1328 33.7521 42.0273 33.8459 41.9043 33.9045C41.6172 34.051 41.418 34.3674 41.3828 34.7306C41.3594 34.9709 41.3359 35.0177 41.2188 35.0412L41.0781 35.0646V34.3791C41.0781 33.506 41.1602 33.09 41.3652 32.8849C41.4941 32.7678 42.3145 32.3635 42.3438 32.4045C42.3496 32.4103 42.3672 32.6564 42.3848 32.9494ZM57.8945 33.9045C57.8945 33.9631 57.543 34.1095 57.25 34.174C56.9688 34.2326 57.0508 34.1623 57.4668 33.9924C57.8477 33.84 57.8945 33.8283 57.8945 33.9045ZM58.6328 34.508C58.5684 35.2697 58.4746 35.5217 58.5098 34.8478C58.5332 34.3088 58.5801 34.0275 58.6445 34.0275C58.6562 34.0275 58.6562 34.2443 58.6328 34.508ZM45.9824 35.1935C48.0801 35.967 48.8184 36.2424 48.8418 36.2658C48.8535 36.2775 48.8887 36.3888 48.9238 36.5177C48.9766 36.717 48.9707 36.7638 48.8887 36.8224C48.7012 36.9631 48.543 36.9338 46.6562 36.3654C46.4277 36.2951 46.2402 36.2248 46.252 36.2131C46.2637 36.2013 46.6035 36.2424 47.002 36.3068C47.8926 36.4474 48.4434 36.5119 48.4023 36.4709C48.3848 36.4533 47.9512 36.2541 47.4355 36.0314C45.5371 35.2052 44.125 34.5666 44.1953 34.5607C44.2129 34.5549 45.0215 34.842 45.9824 35.1935ZM37.1172 35.4396C37.0234 35.6213 37.0176 35.6271 36.9414 35.5217C36.8184 35.3576 36.8418 35.2697 37.0234 35.176C37.2285 35.0705 37.2637 35.1642 37.1172 35.4396ZM43.1875 37.0685C45.127 37.5549 47.3828 38.1642 48.1914 38.4103C48.5723 38.5217 48.6953 38.6564 48.4199 38.6564C48.332 38.6564 48.0977 38.6271 47.9043 38.592C47.7109 38.5568 47.3535 38.5217 47.1133 38.5158C46.7148 38.5041 46.4277 38.422 43.8906 37.5549C42.3613 37.0334 41.0547 36.5763 40.9902 36.547L40.873 36.4885L40.9902 36.5119C41.0547 36.5295 42.0449 36.7756 43.1875 37.0685ZM46.5684 46.7951L47.2188 47.3342L47.3125 47.8439C47.3652 48.1252 47.4062 48.3771 47.4062 48.4123C47.4062 48.4416 47.3008 48.2541 47.1719 47.9845C46.9258 47.4631 46.873 47.3927 46.1172 46.5607C45.8477 46.256 45.6895 46.0627 45.7656 46.133C45.8477 46.1974 46.2051 46.4963 46.5684 46.7951ZM44.207 47.6916C44.1719 47.7502 43.2168 48.8283 43.0234 49.0275C42.7832 49.2736 43.6855 48.1135 43.9727 47.8088C44.1426 47.6271 44.2891 47.551 44.207 47.6916ZM46.5859 48.2658C46.5859 48.3654 47.459 49.2502 48.0215 49.7189C48.7773 50.3517 48.7832 50.3635 48.168 49.9943C47.5059 49.5959 46.3516 48.7463 46.3516 48.6584C46.3516 48.547 46.4922 48.2072 46.5391 48.2072C46.5625 48.2072 46.5859 48.2365 46.5859 48.2658ZM31.7617 49.924C31.8613 50.0119 32.1367 50.1349 32.3652 50.2052C32.5996 50.2697 32.8281 50.34 32.875 50.3576C32.9219 50.3752 32.4648 50.4865 31.8496 50.6154C31.2402 50.7443 30.7129 50.8381 30.6836 50.8263C30.6543 50.8146 30.9238 50.7209 31.2871 50.6095C31.6504 50.5041 31.9551 50.3927 31.9668 50.3693C31.9844 50.3517 31.9199 50.299 31.8262 50.258C31.5801 50.1584 31.3105 49.8478 31.2402 49.5842C31.1348 49.1916 31.1641 49.1623 31.375 49.4728C31.4863 49.6369 31.6621 49.842 31.7617 49.924ZM45.0801 49.9299C45.168 49.9885 45.2793 50.0236 45.3262 50.0002C45.4082 49.9709 45.4082 49.9474 45.332 49.7599C45.2148 49.4787 45.291 49.5431 45.6836 50.0295C45.8887 50.2873 46.1582 50.5392 46.416 50.7092C46.6387 50.8556 46.8203 50.9845 46.8203 50.9963C46.8203 51.008 46.6152 50.926 46.3691 50.8088C45.4375 50.3927 44.6113 49.8068 44.4121 49.4318C44.3652 49.3381 44.4355 49.3791 44.6289 49.5607C44.7871 49.7072 44.9922 49.8771 45.0801 49.9299ZM44.125 49.7951C44.0547 50.006 44.0605 50.0295 44.2539 50.299C44.5938 50.7736 44.5703 50.7736 44.0723 50.2873C43.8145 50.0295 43.5977 49.801 43.5977 49.7834C43.5977 49.7599 43.7207 49.6603 43.8789 49.5666C44.1953 49.3732 44.248 49.4201 44.125 49.7951Z" fill="white"/>
</svg>
