<svg width="83" height="82" viewBox="0 0 83 82" fill="none" xmlns="http://www.w3.org/2000/svg">
<mask id="path-1-inside-1_976_1573" fill="white">
<path d="M36.5153 3.37235C36.6286 3.72653 36.5617 3.85053 36.2157 3.91141L35.9159 3.96034L36.0932 4.07953C36.2124 4.16556 36.2497 4.21948 36.2165 4.25269C36.1667 4.30252 35.5462 4.6037 35.182 4.76262C35.0871 4.80054 35.0315 4.93595 34.9987 5.18544L34.9409 5.55113L33.9491 6.5771C33.4042 7.14484 32.9496 7.6451 32.949 7.70267C32.9386 7.75869 32.7398 7.99168 32.4876 8.22108C32.2453 8.45203 31.9043 8.85004 31.7267 9.09599C31.4807 9.45609 31.3229 9.61385 30.996 9.8267C30.6873 10.0328 30.5088 10.2113 30.2721 10.5392C30.1029 10.7769 29.7639 11.2185 29.5184 11.521C29.2771 11.8194 29.0092 12.2241 28.9277 12.4083C28.8041 12.6915 28.7392 12.7678 28.5799 12.8244C28.3102 12.9117 27.635 13.5983 27.1963 14.2308C26.7343 14.8981 25.1059 16.4581 24.3161 16.997C23.8518 17.3131 23.6841 17.4693 23.395 17.8611C22.8401 18.6098 20.5903 20.9851 16.7884 24.8555L15.0602 26.6064L14.8585 26.5459L14.651 26.4796L14.6182 26.7291C14.588 26.9646 14.5231 27.0409 13.8563 27.6279C13.4614 27.9886 12.9866 28.3607 12.8014 28.4661C12.5145 28.6276 12.4081 28.7454 12.0769 29.2362C11.7981 29.6633 11.6268 29.8573 11.4624 29.942C11.107 30.1263 9.58528 31.7848 9.44296 32.1324C9.26428 32.5848 7.95294 33.7479 7.54523 33.8135C7.25112 33.8681 7.01347 34.0373 6.89092 34.2967C6.82964 34.4264 6.80163 34.4316 6.62847 34.3083C6.53048 34.2352 6.32566 34.155 6.18355 34.1374L5.91335 34.0997L5.78288 34.5837C5.67633 34.9753 5.61765 35.091 5.44643 35.1938C5.32814 35.2665 5.17142 35.4004 5.08424 35.4876C4.9986 35.5846 4.84139 35.6848 4.73244 35.7254C4.57318 35.782 4.5 35.8666 4.35254 36.1509C4.25284 36.3418 4.08152 36.6272 3.97147 36.7828C3.79394 37.0288 3.73687 37.0631 3.55535 37.0393C3.43711 37.0207 3.282 37.0732 3.17665 37.1671C3.02824 37.2927 3.00278 37.3752 3.03063 37.6438C3.08224 38.094 2.97629 38.3368 2.60268 38.6192C2.03451 39.0391 2.05371 39.0085 2.19621 39.2423C2.40918 39.5882 2.40602 39.6597 2.16683 39.8191C2.03763 39.9141 1.90787 40.0667 1.85385 40.2119C1.76606 40.448 1.7619 40.4521 1.42273 40.4036C1.24121 40.3798 1.01823 40.3063 0.927493 40.2488L0.765735 40.1368L0.842854 40.4132C0.908072 40.6445 0.88676 40.7228 0.749753 40.8598C0.596139 41.0135 0.595088 41.0373 0.734039 41.1265C1.23592 41.4457 1.40593 41.6406 1.72713 42.2773C2.03383 42.8829 2.06959 42.927 2.93159 43.8554C3.42971 44.3951 3.95269 45.0011 4.12214 45.2536C4.40769 45.6637 4.44916 45.7134 4.67679 45.8165C4.87331 45.9051 4.92878 45.9523 4.97849 46.085C5.02821 46.2178 5.08368 46.2649 5.24339 46.3333C5.39895 46.4058 5.48293 46.4815 5.60521 46.6785C5.73891 46.8869 5.82289 46.9626 6.12725 47.1258C6.78574 47.4937 6.98265 47.7985 7.12218 48.6854C7.17334 49.0106 7.28772 49.4322 7.36904 49.6131L7.52289 49.9496L7.93094 50.1916C8.15752 50.3186 8.74803 50.743 9.2395 51.1182C9.79785 51.552 10.2106 51.8236 10.3262 51.8562C10.4361 51.8831 10.7644 51.954 11.0616 52.0103C11.3587 52.0667 11.6802 52.1557 11.771 52.2132C11.8757 52.2681 12.1826 52.5999 12.5615 53.0535C13.0518 53.6352 13.2871 53.8788 13.6567 54.182C14.086 54.5282 14.1332 54.5837 14.2051 54.7968C14.2672 55.0084 14.2958 55.0369 14.498 55.1312C14.7567 55.2488 16.0449 56.5037 16.3817 56.9651C16.4921 57.117 16.7056 57.4053 16.8533 57.6111C17.0052 57.8128 17.1394 58.0549 17.1507 58.1576C17.1714 58.3194 17.1843 58.3407 17.3622 58.4023C17.5458 58.4696 17.5758 58.508 17.811 59.0255C18.0923 59.6223 18.4877 60.2419 18.7842 60.5384C19.0009 60.755 20.108 61.1647 20.4477 61.1556C20.567 61.1504 20.8045 61.1637 20.9845 61.1776C21.263 61.207 21.3195 61.2303 21.3521 61.346C21.3687 61.4207 21.3178 61.5856 21.2368 61.7122C21.1117 61.8944 21.1075 61.9898 21.1955 62.2439C21.342 62.6561 21.725 63.2882 22.0505 63.6469C22.3019 63.9315 22.3174 63.9387 22.4663 63.8469C22.6111 63.7591 22.6422 63.7736 22.9351 64.0167C23.1114 64.1598 23.4644 64.3883 23.7206 64.5199C24.1478 64.7312 24.209 64.7841 24.4453 65.0952C24.762 65.5198 27.1392 67.8638 27.6748 68.2748C27.8837 68.4422 28.3337 68.8589 28.6773 69.2109C29.1978 69.7396 29.3528 69.8697 29.6499 70.0174C29.9584 70.1764 30.0024 70.2122 30.0853 70.403C30.1418 70.5176 30.3398 70.7986 30.5243 71.0246C30.8902 71.457 32.1219 72.5973 32.6388 72.9814C33.0846 73.311 33.3101 73.553 33.3836 73.776C33.4452 73.9539 33.4851 73.9938 33.8952 74.2794C34.3152 74.5665 34.3836 74.6349 34.9387 75.3228C35.5125 76.0377 35.527 76.0688 35.4719 76.238C35.4225 76.4128 35.494 76.5922 35.577 76.5092C35.5978 76.4884 35.6875 76.4785 35.772 76.4966C35.91 76.5183 35.9328 76.5411 36.0271 76.7433C36.1519 77.0176 36.4557 77.3297 36.7274 77.4685C36.8788 77.5452 36.9373 77.6121 37.0042 77.7619C37.0767 77.9175 37.1337 77.9745 37.3178 78.0755C37.506 78.1724 37.5589 78.2336 37.6371 78.3949C37.7055 78.5546 37.7853 78.6344 38.0393 78.8137C38.2166 78.9329 38.5718 79.205 38.8263 79.418C39.0808 79.631 39.4982 79.9321 39.7377 80.0803C39.9944 80.2456 40.3568 80.5333 40.5947 80.7629C40.8269 80.9868 41.1758 81.3108 41.3806 81.4824L41.7476 81.7996L42.1685 81.3901C42.4965 81.0621 42.6578 80.9578 42.9291 80.8803C43.2705 80.7899 43.3078 80.7525 45.6136 78.4582C48.3179 75.7652 48.3843 75.6988 48.4903 75.456C48.5391 75.3388 48.618 75.2599 48.7077 75.25C48.9095 75.2193 51.0694 73.0365 51.1059 72.8404C51.1168 72.7268 51.1973 72.6578 51.4063 72.5514C51.6476 72.4356 51.7016 72.3816 51.7795 72.144C51.8548 71.9204 51.9114 71.8524 52.0624 71.8041C52.2232 71.7573 52.2574 71.7003 52.2929 71.4368C52.3194 71.2391 52.3916 71.0871 52.5042 71.0087C52.6459 70.9013 52.7034 70.9007 52.9119 71.0344C53.1882 71.2028 53.3127 71.1696 53.3471 70.9299C53.3887 70.7058 56.666 67.3487 57.2721 66.9251C57.6571 66.6542 57.7303 66.5696 57.8316 66.2972C57.9141 66.0892 57.9884 65.9807 58.0781 65.9708C58.2757 65.9443 58.4989 65.7439 58.8487 65.28C59.0636 64.9967 59.3781 64.7051 59.8238 64.362C60.543 63.8024 60.9624 63.2918 61.1894 62.6885C61.2907 62.4161 61.3364 62.3704 61.4863 62.346C61.632 62.3257 62.0062 61.9857 63.1977 60.7942C64.4682 59.5238 64.7624 59.1953 64.9732 58.8248C65.1129 58.5825 65.2998 58.3044 65.3953 58.2089C65.5738 58.0304 66.0043 57.8963 66.3529 57.9127C66.5271 57.9209 66.5868 57.8727 66.8707 57.5089C67.0457 57.277 68.2336 56.032 69.5108 54.7434L71.8327 52.3987L71.795 52.1285L71.7557 51.8485L71.9683 51.8867C72.1753 51.9193 72.2043 51.8902 74.0829 50.0572C75.1281 49.0348 76.2314 47.9543 76.5319 47.6653C76.9445 47.2641 77.1168 47.0462 77.2295 46.7852C77.4669 46.2171 77.5608 46.1118 77.9021 46.0214C78.4562 45.8779 78.8033 45.6106 79.3167 44.9033C79.6182 44.4991 79.9457 44.1374 80.2342 43.8945C80.6198 43.566 80.6956 43.4674 80.7772 43.1919C80.8416 42.9906 80.9169 42.8583 81.0051 42.8386C81.0736 42.8157 81.2043 42.7306 81.2915 42.6434L81.4591 42.4872L80.9675 42.3858C80.6942 42.3284 80.3965 42.2383 80.3016 42.185C79.8951 41.9528 79.6251 41.55 79.5704 41.0801C79.5307 40.7663 79.6194 40.7803 79.8463 41.1235C80.3941 41.9785 81.05 42.2691 81.7291 41.9435C82.2479 41.6984 82.44 41.3922 82.3641 40.9094C82.2912 40.4463 82.0456 40.0761 81.3976 39.4696C80.9461 39.043 80.8382 38.9684 80.4597 38.8224C79.9287 38.6235 79.8561 38.5592 79.8957 38.2916C79.9659 37.9134 79.3533 37.226 77.6063 35.7115C76.3756 34.6386 75.9915 34.213 75.3884 33.2196C75.0028 32.6016 74.8551 32.3958 74.6592 32.2496C74.3424 32.0076 74.3625 32.1357 74.7103 32.5748C75.0809 33.0367 75.0274 33.1244 74.5909 32.7626C74.2467 32.4682 74.0109 32.1909 73.9617 32.0005C73.9425 31.9399 73.6704 31.676 73.265 31.3287C72.4159 30.6042 71.4082 29.6048 69.0771 27.1575C67.5522 25.5578 67.0633 25.0773 66.4133 24.5185C65.9737 24.137 65.4086 23.6301 65.1577 23.3792C64.8099 23.0314 64.6352 22.8982 64.4459 22.8252C64.196 22.733 64.1846 22.7216 63.9613 22.3405C63.7742 22.0372 63.557 21.7868 62.9111 21.1327L62.0958 20.3173L62.0207 19.9931C61.9483 19.655 61.7975 19.4295 61.7466 19.5945C61.7305 19.6448 61.7107 19.733 61.6946 19.7833C61.665 19.8699 61.5385 19.7683 60.4727 18.8271C60.1254 18.5129 60.031 18.402 59.9134 18.1433C59.7943 17.8747 59.7414 17.8135 59.405 17.5684C59.1763 17.3978 58.5056 16.7686 57.6202 15.8749L56.2061 14.4608L56.185 14.174C56.1717 13.8452 56.0287 13.6689 55.9015 13.8075C55.82 13.9004 55.7718 13.8688 54.8858 13.124C54.2047 12.5507 53.6251 12.0127 52.7382 11.1092C51.4236 9.778 47.5022 5.95617 47.2637 5.78411C47.187 5.72399 46.992 5.64527 46.8369 5.60646L46.5481 5.54179L46.5311 5.25083L46.51 4.96402L46.0777 4.5981C45.8345 4.39648 45.694 4.2975 45.7541 4.37422C45.976 4.65417 45.7883 4.591 45.4803 4.2831C45.3093 4.11204 45.1875 3.94873 45.2083 3.92797C45.2332 3.90306 45.2995 3.92792 45.3509 3.97923C45.6754 4.27054 44.9181 3.39703 44.3593 2.83823C43.4283 1.89896 42.6518 1.23863 42.28 1.07443C41.9378 0.914883 41.3481 0.831716 41.2526 0.927204C41.2194 0.960417 41.0477 0.93822 40.8797 0.878152C40.1952 0.650338 39.6152 0.842579 39.1958 1.44447C39.0224 1.68627 38.9778 1.70808 38.7304 1.69318C38.3269 1.66334 38.1837 1.76093 38.0424 2.17594C37.9307 2.50432 37.899 2.54739 37.7502 2.54799C37.6309 2.55325 37.524 2.63734 37.3641 2.84282C37.1518 3.11213 37.1295 3.12303 36.8422 3.06822C36.4662 2.99946 36.4164 3.04928 36.5153 3.37235ZM38.634 4.19579C38.68 4.45769 38.8172 4.99339 38.9482 5.39839C39.2935 6.43292 39.3157 6.69588 39.0831 7.01966C38.9715 7.16547 38.8889 7.3735 38.8909 7.50835C38.8929 7.73449 38.8887 7.73863 38.7804 7.6303C38.5637 7.41362 38.5292 6.98056 38.6996 6.4452C38.7838 6.15573 38.8416 5.88133 38.8198 5.83466C38.8079 5.78955 38.6644 5.57957 38.5068 5.37219C38.2876 5.07824 38.2208 4.92838 38.2048 4.70485C38.1796 4.33091 38.2513 4.0539 38.4242 3.86967L38.5653 3.72851L38.634 4.19579ZM9.53566 33.2714C9.58128 33.317 9.58382 33.3943 9.53815 33.4399C9.45512 33.523 9.36749 33.4851 9.35304 33.3628C9.32873 33.2388 9.45013 33.1858 9.53566 33.2714ZM41.8369 1.31224C41.9542 1.26342 41.9951 1.27947 42.1568 1.48269C42.4274 1.82797 42.4076 1.91615 42.0741 1.87329C41.6914 1.82269 41.3793 1.51893 41.6081 1.41558C41.6569 1.38962 41.7601 1.3434 41.8369 1.31224ZM36.0319 7.72162C36.0801 7.75323 36.0879 7.8025 36.0505 7.83987C36.0132 7.87723 35.9442 7.86638 35.8929 7.81506C35.7959 7.71813 35.9044 7.6439 36.0319 7.72162ZM8.43466 35.7408C8.50933 35.7574 8.60162 35.8248 8.63063 35.887C8.71561 36.0301 8.39177 36.3539 8.0826 36.435C7.77343 36.5161 7.71491 36.3579 7.98317 36.1695C8.09577 36.0911 8.19386 35.9816 8.19856 35.9199C8.20592 35.7529 8.2796 35.702 8.43466 35.7408ZM9.4543 49.2157C9.54553 49.3069 9.65177 49.4629 9.67557 49.5532C9.72424 49.7098 9.72008 49.7139 9.57543 49.6191C9.42663 49.5284 9.14208 49.1857 9.07371 49.026C9.03125 48.9088 9.26613 49.0275 9.4543 49.2157ZM20.2542 58.5209C20.3854 58.6521 20.3931 58.7926 20.2702 58.7445C20.153 58.702 20.0462 58.5122 20.1044 58.4541C20.1251 58.4334 20.1972 58.4639 20.2542 58.5209ZM74.5311 33.0847C74.6508 33.2045 74.6958 33.3989 74.617 33.4778C74.5422 33.5526 74.408 33.4017 74.3785 33.2145C74.346 33.0076 74.4056 32.9593 74.5311 33.0847ZM75.0712 44.4276C75.1412 44.4146 75.289 44.4378 75.4005 44.4746C75.5841 44.5419 75.6297 44.5875 75.9546 45.0951C76.4173 45.807 76.5443 46.0336 76.4944 46.0834C76.3616 46.2162 76.1141 46.2926 76.0457 46.2242C76.0058 46.1843 75.9006 46.0044 75.8209 45.8332C75.7033 45.5745 75.6188 45.4651 75.3202 45.2163C74.9988 44.9447 74.9558 44.8851 74.9263 44.6979C74.8891 44.4614 74.8974 44.4531 75.0712 44.4276ZM80.2098 39.4942L80.4246 39.4847L80.1194 39.7442C79.9114 39.9181 79.7972 40.0779 79.7519 40.2486C79.6667 40.5619 79.6018 40.6382 79.5724 40.451C79.4995 39.9878 79.8182 39.5095 80.2098 39.4942ZM73.1844 46.8503C73.3213 46.9872 73.3596 47.1085 73.3273 47.3004C73.3028 47.4504 73.2888 47.453 73.1292 47.2933C73.0265 47.1907 72.9644 47.0704 72.9758 46.9905C72.9925 46.7913 73.0761 46.742 73.1844 46.8503ZM74.854 45.979C74.9773 46.2435 75.0077 46.4981 74.919 46.4842C74.8444 46.4676 74.6937 46.0595 74.6881 45.8713C74.6923 45.6845 74.7405 45.7161 74.854 45.979ZM64.2699 57.9886C64.4036 58.1971 64.5154 58.5414 64.4671 58.6011C64.3857 58.6939 64.2281 58.4866 64.1551 58.206C64.0786 57.872 64.1305 57.7745 64.2699 57.9886ZM71.2222 51.5723C71.3252 51.8 71.2665 52.007 71.1083 51.9484C71.0207 51.9106 70.8198 51.3361 70.8562 51.2313C70.905 51.114 71.103 51.3037 71.2222 51.5723ZM60.5012 61.7345C60.5909 61.7246 60.6194 61.7531 60.6334 61.8418C60.6473 61.9305 60.6183 61.9596 60.5156 61.9482C60.2879 61.9364 60.2724 61.7466 60.5012 61.7345ZM81.8766 40.7126C82.0715 40.9739 82.1003 41.4012 81.9121 41.2131C81.8437 41.1447 81.6667 40.569 81.704 40.5317C81.7165 40.5192 81.7963 40.5991 81.8766 40.7126ZM68.1706 54.6239C68.2504 54.795 68.2208 54.8816 68.1036 54.8391C68.016 54.8013 67.9689 54.6546 68.0094 54.5456C68.0567 54.4185 68.0878 54.433 68.1706 54.6239Z"/>
</mask>
<path d="M36.5153 3.37235C36.6286 3.72653 36.5617 3.85053 36.2157 3.91141L35.9159 3.96034L36.0932 4.07953C36.2124 4.16556 36.2497 4.21948 36.2165 4.25269C36.1667 4.30252 35.5462 4.6037 35.182 4.76262C35.0871 4.80054 35.0315 4.93595 34.9987 5.18544L34.9409 5.55113L33.9491 6.5771C33.4042 7.14484 32.9496 7.6451 32.949 7.70267C32.9386 7.75869 32.7398 7.99168 32.4876 8.22108C32.2453 8.45203 31.9043 8.85004 31.7267 9.09599C31.4807 9.45609 31.3229 9.61385 30.996 9.8267C30.6873 10.0328 30.5088 10.2113 30.2721 10.5392C30.1029 10.7769 29.7639 11.2185 29.5184 11.521C29.2771 11.8194 29.0092 12.2241 28.9277 12.4083C28.8041 12.6915 28.7392 12.7678 28.5799 12.8244C28.3102 12.9117 27.635 13.5983 27.1963 14.2308C26.7343 14.8981 25.1059 16.4581 24.3161 16.997C23.8518 17.3131 23.6841 17.4693 23.395 17.8611C22.8401 18.6098 20.5903 20.9851 16.7884 24.8555L15.0602 26.6064L14.8585 26.5459L14.651 26.4796L14.6182 26.7291C14.588 26.9646 14.5231 27.0409 13.8563 27.6279C13.4614 27.9886 12.9866 28.3607 12.8014 28.4661C12.5145 28.6276 12.4081 28.7454 12.0769 29.2362C11.7981 29.6633 11.6268 29.8573 11.4624 29.942C11.107 30.1263 9.58528 31.7848 9.44296 32.1324C9.26428 32.5848 7.95294 33.7479 7.54523 33.8135C7.25112 33.8681 7.01347 34.0373 6.89092 34.2967C6.82964 34.4264 6.80163 34.4316 6.62847 34.3083C6.53048 34.2352 6.32566 34.155 6.18355 34.1374L5.91335 34.0997L5.78288 34.5837C5.67633 34.9753 5.61765 35.091 5.44643 35.1938C5.32814 35.2665 5.17142 35.4004 5.08424 35.4876C4.9986 35.5846 4.84139 35.6848 4.73244 35.7254C4.57318 35.782 4.5 35.8666 4.35254 36.1509C4.25284 36.3418 4.08152 36.6272 3.97147 36.7828C3.79394 37.0288 3.73687 37.0631 3.55535 37.0393C3.43711 37.0207 3.282 37.0732 3.17665 37.1671C3.02824 37.2927 3.00278 37.3752 3.03063 37.6438C3.08224 38.094 2.97629 38.3368 2.60268 38.6192C2.03451 39.0391 2.05371 39.0085 2.19621 39.2423C2.40918 39.5882 2.40602 39.6597 2.16683 39.8191C2.03763 39.9141 1.90787 40.0667 1.85385 40.2119C1.76606 40.448 1.7619 40.4521 1.42273 40.4036C1.24121 40.3798 1.01823 40.3063 0.927493 40.2488L0.765735 40.1368L0.842854 40.4132C0.908072 40.6445 0.88676 40.7228 0.749753 40.8598C0.596139 41.0135 0.595088 41.0373 0.734039 41.1265C1.23592 41.4457 1.40593 41.6406 1.72713 42.2773C2.03383 42.8829 2.06959 42.927 2.93159 43.8554C3.42971 44.3951 3.95269 45.0011 4.12214 45.2536C4.40769 45.6637 4.44916 45.7134 4.67679 45.8165C4.87331 45.9051 4.92878 45.9523 4.97849 46.085C5.02821 46.2178 5.08368 46.2649 5.24339 46.3333C5.39895 46.4058 5.48293 46.4815 5.60521 46.6785C5.73891 46.8869 5.82289 46.9626 6.12725 47.1258C6.78574 47.4937 6.98265 47.7985 7.12218 48.6854C7.17334 49.0106 7.28772 49.4322 7.36904 49.6131L7.52289 49.9496L7.93094 50.1916C8.15752 50.3186 8.74803 50.743 9.2395 51.1182C9.79785 51.552 10.2106 51.8236 10.3262 51.8562C10.4361 51.8831 10.7644 51.954 11.0616 52.0103C11.3587 52.0667 11.6802 52.1557 11.771 52.2132C11.8757 52.2681 12.1826 52.5999 12.5615 53.0535C13.0518 53.6352 13.2871 53.8788 13.6567 54.182C14.086 54.5282 14.1332 54.5837 14.2051 54.7968C14.2672 55.0084 14.2958 55.0369 14.498 55.1312C14.7567 55.2488 16.0449 56.5037 16.3817 56.9651C16.4921 57.117 16.7056 57.4053 16.8533 57.6111C17.0052 57.8128 17.1394 58.0549 17.1507 58.1576C17.1714 58.3194 17.1843 58.3407 17.3622 58.4023C17.5458 58.4696 17.5758 58.508 17.811 59.0255C18.0923 59.6223 18.4877 60.2419 18.7842 60.5384C19.0009 60.755 20.108 61.1647 20.4477 61.1556C20.567 61.1504 20.8045 61.1637 20.9845 61.1776C21.263 61.207 21.3195 61.2303 21.3521 61.346C21.3687 61.4207 21.3178 61.5856 21.2368 61.7122C21.1117 61.8944 21.1075 61.9898 21.1955 62.2439C21.342 62.6561 21.725 63.2882 22.0505 63.6469C22.3019 63.9315 22.3174 63.9387 22.4663 63.8469C22.6111 63.7591 22.6422 63.7736 22.9351 64.0167C23.1114 64.1598 23.4644 64.3883 23.7206 64.5199C24.1478 64.7312 24.209 64.7841 24.4453 65.0952C24.762 65.5198 27.1392 67.8638 27.6748 68.2748C27.8837 68.4422 28.3337 68.8589 28.6773 69.2109C29.1978 69.7396 29.3528 69.8697 29.6499 70.0174C29.9584 70.1764 30.0024 70.2122 30.0853 70.403C30.1418 70.5176 30.3398 70.7986 30.5243 71.0246C30.8902 71.457 32.1219 72.5973 32.6388 72.9814C33.0846 73.311 33.3101 73.553 33.3836 73.776C33.4452 73.9539 33.4851 73.9938 33.8952 74.2794C34.3152 74.5665 34.3836 74.6349 34.9387 75.3228C35.5125 76.0377 35.527 76.0688 35.4719 76.238C35.4225 76.4128 35.494 76.5922 35.577 76.5092C35.5978 76.4884 35.6875 76.4785 35.772 76.4966C35.91 76.5183 35.9328 76.5411 36.0271 76.7433C36.1519 77.0176 36.4557 77.3297 36.7274 77.4685C36.8788 77.5452 36.9373 77.6121 37.0042 77.7619C37.0767 77.9175 37.1337 77.9745 37.3178 78.0755C37.506 78.1724 37.5589 78.2336 37.6371 78.3949C37.7055 78.5546 37.7853 78.6344 38.0393 78.8137C38.2166 78.9329 38.5718 79.205 38.8263 79.418C39.0808 79.631 39.4982 79.9321 39.7377 80.0803C39.9944 80.2456 40.3568 80.5333 40.5947 80.7629C40.8269 80.9868 41.1758 81.3108 41.3806 81.4824L41.7476 81.7996L42.1685 81.3901C42.4965 81.0621 42.6578 80.9578 42.9291 80.8803C43.2705 80.7899 43.3078 80.7525 45.6136 78.4582C48.3179 75.7652 48.3843 75.6988 48.4903 75.456C48.5391 75.3388 48.618 75.2599 48.7077 75.25C48.9095 75.2193 51.0694 73.0365 51.1059 72.8404C51.1168 72.7268 51.1973 72.6578 51.4063 72.5514C51.6476 72.4356 51.7016 72.3816 51.7795 72.144C51.8548 71.9204 51.9114 71.8524 52.0624 71.8041C52.2232 71.7573 52.2574 71.7003 52.2929 71.4368C52.3194 71.2391 52.3916 71.0871 52.5042 71.0087C52.6459 70.9013 52.7034 70.9007 52.9119 71.0344C53.1882 71.2028 53.3127 71.1696 53.3471 70.9299C53.3887 70.7058 56.666 67.3487 57.2721 66.9251C57.6571 66.6542 57.7303 66.5696 57.8316 66.2972C57.9141 66.0892 57.9884 65.9807 58.0781 65.9708C58.2757 65.9443 58.4989 65.7439 58.8487 65.28C59.0636 64.9967 59.3781 64.7051 59.8238 64.362C60.543 63.8024 60.9624 63.2918 61.1894 62.6885C61.2907 62.4161 61.3364 62.3704 61.4863 62.346C61.632 62.3257 62.0062 61.9857 63.1977 60.7942C64.4682 59.5238 64.7624 59.1953 64.9732 58.8248C65.1129 58.5825 65.2998 58.3044 65.3953 58.2089C65.5738 58.0304 66.0043 57.8963 66.3529 57.9127C66.5271 57.9209 66.5868 57.8727 66.8707 57.5089C67.0457 57.277 68.2336 56.032 69.5108 54.7434L71.8327 52.3987L71.795 52.1285L71.7557 51.8485L71.9683 51.8867C72.1753 51.9193 72.2043 51.8902 74.0829 50.0572C75.1281 49.0348 76.2314 47.9543 76.5319 47.6653C76.9445 47.2641 77.1168 47.0462 77.2295 46.7852C77.4669 46.2171 77.5608 46.1118 77.9021 46.0214C78.4562 45.8779 78.8033 45.6106 79.3167 44.9033C79.6182 44.4991 79.9457 44.1374 80.2342 43.8945C80.6198 43.566 80.6956 43.4674 80.7772 43.1919C80.8416 42.9906 80.9169 42.8583 81.0051 42.8386C81.0736 42.8157 81.2043 42.7306 81.2915 42.6434L81.4591 42.4872L80.9675 42.3858C80.6942 42.3284 80.3965 42.2383 80.3016 42.185C79.8951 41.9528 79.6251 41.55 79.5704 41.0801C79.5307 40.7663 79.6194 40.7803 79.8463 41.1235C80.3941 41.9785 81.05 42.2691 81.7291 41.9435C82.2479 41.6984 82.44 41.3922 82.3641 40.9094C82.2912 40.4463 82.0456 40.0761 81.3976 39.4696C80.9461 39.043 80.8382 38.9684 80.4597 38.8224C79.9287 38.6235 79.8561 38.5592 79.8957 38.2916C79.9659 37.9134 79.3533 37.226 77.6063 35.7115C76.3756 34.6386 75.9915 34.213 75.3884 33.2196C75.0028 32.6016 74.8551 32.3958 74.6592 32.2496C74.3424 32.0076 74.3625 32.1357 74.7103 32.5748C75.0809 33.0367 75.0274 33.1244 74.5909 32.7626C74.2467 32.4682 74.0109 32.1909 73.9617 32.0005C73.9425 31.9399 73.6704 31.676 73.265 31.3287C72.4159 30.6042 71.4082 29.6048 69.0771 27.1575C67.5522 25.5578 67.0633 25.0773 66.4133 24.5185C65.9737 24.137 65.4086 23.6301 65.1577 23.3792C64.8099 23.0314 64.6352 22.8982 64.4459 22.8252C64.196 22.733 64.1846 22.7216 63.9613 22.3405C63.7742 22.0372 63.557 21.7868 62.9111 21.1327L62.0958 20.3173L62.0207 19.9931C61.9483 19.655 61.7975 19.4295 61.7466 19.5945C61.7305 19.6448 61.7107 19.733 61.6946 19.7833C61.665 19.8699 61.5385 19.7683 60.4727 18.8271C60.1254 18.5129 60.031 18.402 59.9134 18.1433C59.7943 17.8747 59.7414 17.8135 59.405 17.5684C59.1763 17.3978 58.5056 16.7686 57.6202 15.8749L56.2061 14.4608L56.185 14.174C56.1717 13.8452 56.0287 13.6689 55.9015 13.8075C55.82 13.9004 55.7718 13.8688 54.8858 13.124C54.2047 12.5507 53.6251 12.0127 52.7382 11.1092C51.4236 9.778 47.5022 5.95617 47.2637 5.78411C47.187 5.72399 46.992 5.64527 46.8369 5.60646L46.5481 5.54179L46.5311 5.25083L46.51 4.96402L46.0777 4.5981C45.8345 4.39648 45.694 4.2975 45.7541 4.37422C45.976 4.65417 45.7883 4.591 45.4803 4.2831C45.3093 4.11204 45.1875 3.94873 45.2083 3.92797C45.2332 3.90306 45.2995 3.92792 45.3509 3.97923C45.6754 4.27054 44.9181 3.39703 44.3593 2.83823C43.4283 1.89896 42.6518 1.23863 42.28 1.07443C41.9378 0.914883 41.3481 0.831716 41.2526 0.927204C41.2194 0.960417 41.0477 0.93822 40.8797 0.878152C40.1952 0.650338 39.6152 0.842579 39.1958 1.44447C39.0224 1.68627 38.9778 1.70808 38.7304 1.69318C38.3269 1.66334 38.1837 1.76093 38.0424 2.17594C37.9307 2.50432 37.899 2.54739 37.7502 2.54799C37.6309 2.55325 37.524 2.63734 37.3641 2.84282C37.1518 3.11213 37.1295 3.12303 36.8422 3.06822C36.4662 2.99946 36.4164 3.04928 36.5153 3.37235ZM38.634 4.19579C38.68 4.45769 38.8172 4.99339 38.9482 5.39839C39.2935 6.43292 39.3157 6.69588 39.0831 7.01966C38.9715 7.16547 38.8889 7.3735 38.8909 7.50835C38.8929 7.73449 38.8887 7.73863 38.7804 7.6303C38.5637 7.41362 38.5292 6.98056 38.6996 6.4452C38.7838 6.15573 38.8416 5.88133 38.8198 5.83466C38.8079 5.78955 38.6644 5.57957 38.5068 5.37219C38.2876 5.07824 38.2208 4.92838 38.2048 4.70485C38.1796 4.33091 38.2513 4.0539 38.4242 3.86967L38.5653 3.72851L38.634 4.19579ZM9.53566 33.2714C9.58128 33.317 9.58382 33.3943 9.53815 33.4399C9.45512 33.523 9.36749 33.4851 9.35304 33.3628C9.32873 33.2388 9.45013 33.1858 9.53566 33.2714ZM41.8369 1.31224C41.9542 1.26342 41.9951 1.27947 42.1568 1.48269C42.4274 1.82797 42.4076 1.91615 42.0741 1.87329C41.6914 1.82269 41.3793 1.51893 41.6081 1.41558C41.6569 1.38962 41.7601 1.3434 41.8369 1.31224ZM36.0319 7.72162C36.0801 7.75323 36.0879 7.8025 36.0505 7.83987C36.0132 7.87723 35.9442 7.86638 35.8929 7.81506C35.7959 7.71813 35.9044 7.6439 36.0319 7.72162ZM8.43466 35.7408C8.50933 35.7574 8.60162 35.8248 8.63063 35.887C8.71561 36.0301 8.39177 36.3539 8.0826 36.435C7.77343 36.5161 7.71491 36.3579 7.98317 36.1695C8.09577 36.0911 8.19386 35.9816 8.19856 35.9199C8.20592 35.7529 8.2796 35.702 8.43466 35.7408ZM9.4543 49.2157C9.54553 49.3069 9.65177 49.4629 9.67557 49.5532C9.72424 49.7098 9.72008 49.7139 9.57543 49.6191C9.42663 49.5284 9.14208 49.1857 9.07371 49.026C9.03125 48.9088 9.26613 49.0275 9.4543 49.2157ZM20.2542 58.5209C20.3854 58.6521 20.3931 58.7926 20.2702 58.7445C20.153 58.702 20.0462 58.5122 20.1044 58.4541C20.1251 58.4334 20.1972 58.4639 20.2542 58.5209ZM74.5311 33.0847C74.6508 33.2045 74.6958 33.3989 74.617 33.4778C74.5422 33.5526 74.408 33.4017 74.3785 33.2145C74.346 33.0076 74.4056 32.9593 74.5311 33.0847ZM75.0712 44.4276C75.1412 44.4146 75.289 44.4378 75.4005 44.4746C75.5841 44.5419 75.6297 44.5875 75.9546 45.0951C76.4173 45.807 76.5443 46.0336 76.4944 46.0834C76.3616 46.2162 76.1141 46.2926 76.0457 46.2242C76.0058 46.1843 75.9006 46.0044 75.8209 45.8332C75.7033 45.5745 75.6188 45.4651 75.3202 45.2163C74.9988 44.9447 74.9558 44.8851 74.9263 44.6979C74.8891 44.4614 74.8974 44.4531 75.0712 44.4276ZM80.2098 39.4942L80.4246 39.4847L80.1194 39.7442C79.9114 39.9181 79.7972 40.0779 79.7519 40.2486C79.6667 40.5619 79.6018 40.6382 79.5724 40.451C79.4995 39.9878 79.8182 39.5095 80.2098 39.4942ZM73.1844 46.8503C73.3213 46.9872 73.3596 47.1085 73.3273 47.3004C73.3028 47.4504 73.2888 47.453 73.1292 47.2933C73.0265 47.1907 72.9644 47.0704 72.9758 46.9905C72.9925 46.7913 73.0761 46.742 73.1844 46.8503ZM74.854 45.979C74.9773 46.2435 75.0077 46.4981 74.919 46.4842C74.8444 46.4676 74.6937 46.0595 74.6881 45.8713C74.6923 45.6845 74.7405 45.7161 74.854 45.979ZM64.2699 57.9886C64.4036 58.1971 64.5154 58.5414 64.4671 58.6011C64.3857 58.6939 64.2281 58.4866 64.1551 58.206C64.0786 57.872 64.1305 57.7745 64.2699 57.9886ZM71.2222 51.5723C71.3252 51.8 71.2665 52.007 71.1083 51.9484C71.0207 51.9106 70.8198 51.3361 70.8562 51.2313C70.905 51.114 71.103 51.3037 71.2222 51.5723ZM60.5012 61.7345C60.5909 61.7246 60.6194 61.7531 60.6334 61.8418C60.6473 61.9305 60.6183 61.9596 60.5156 61.9482C60.2879 61.9364 60.2724 61.7466 60.5012 61.7345ZM81.8766 40.7126C82.0715 40.9739 82.1003 41.4012 81.9121 41.2131C81.8437 41.1447 81.6667 40.569 81.704 40.5317C81.7165 40.5192 81.7963 40.5991 81.8766 40.7126ZM68.1706 54.6239C68.2504 54.795 68.2208 54.8816 68.1036 54.8391C68.016 54.8013 67.9689 54.6546 68.0094 54.5456C68.0567 54.4185 68.0878 54.433 68.1706 54.6239Z" fill="black" stroke="white" stroke-width="4" mask="url(#path-1-inside-1_976_1573)"/>
<path fill-rule="evenodd" clip-rule="evenodd" d="M29.1103 22.9586C28.4662 23.0979 28.3214 23.1032 27.8797 23.0035C27.5575 22.9307 27.5193 22.932 27.1224 23.0279C26.6227 23.1487 26.4122 23.1518 25.43 23.0533C24.5914 22.9692 24.3165 22.9972 23.8962 23.2096C23.0438 23.6403 22.6329 24.5541 22.7832 25.6843C22.8546 26.2204 22.7866 26.9254 22.5869 27.7188C22.3538 28.6451 22.3535 28.6279 22.6248 29.7452C22.6662 29.9157 22.7126 30.4769 22.7358 31.0879C22.7756 32.1352 22.7762 32.1392 22.9767 32.7651C23.1994 33.4599 23.2303 33.8094 23.1013 34.1702C23.036 34.3528 23.0334 34.4394 23.0836 34.7669C23.1668 35.3102 23.1175 35.7335 22.8635 36.6543C22.7413 37.0974 22.6414 37.5149 22.6415 37.5821C22.6418 37.6998 22.665 37.7916 22.8829 38.5342L22.9831 38.876L22.8786 39.3643C22.799 39.7364 22.7684 40.0871 22.7501 40.8386C22.728 41.747 22.7346 41.8561 22.8341 42.2251C22.9692 42.7258 22.9706 43.1153 22.8399 43.8347C22.6297 44.9914 22.6166 46.5618 22.8083 47.6206C22.9936 48.6441 23.0422 49.949 22.9144 50.4727C22.8718 50.6472 22.8236 51.0647 22.8074 51.4004C22.7794 51.9764 22.7863 52.0433 22.9289 52.5878C23.1115 53.2849 23.1163 53.5232 22.9598 54.1038C22.8488 54.5152 22.8384 54.6485 22.8255 55.8194L22.8115 57.0889L22.9541 57.3819C23.1538 57.7924 23.6202 58.2425 23.9905 58.3822C24.3687 58.5249 25.5859 58.6105 26.0586 58.5277C26.4947 58.4512 26.7689 58.4609 27.4428 58.5765C27.848 58.6461 28.2397 58.6758 28.7499 58.6758C29.4536 58.6758 29.4969 58.6698 30.0244 58.4993C30.6617 58.2933 30.8251 58.2965 31.3564 58.5257C31.7686 58.7035 32.0741 58.7164 32.6016 58.5782C33.0681 58.4559 33.4718 58.4561 33.8632 58.5788C34.2772 58.7086 34.4412 58.7023 35.3848 58.5207C36.1038 58.3824 36.2876 58.3654 37.0937 58.3629C37.857 58.3605 38.1333 58.3817 38.8753 58.4989C39.4931 58.5965 39.8335 58.6284 40.0228 58.6064C40.8232 58.5134 41.5909 57.7917 41.7782 56.9562C41.8052 56.8357 41.8532 56.4271 41.885 56.0482C41.9401 55.3902 41.9376 55.3383 41.8308 54.8946C41.7219 54.4426 41.7211 54.4222 41.8014 54.1361C41.8786 53.861 41.8787 53.8138 41.8025 53.3996C41.7259 52.9826 41.7262 52.9335 41.8071 52.5477C41.923 51.9952 41.886 51.2558 41.7106 50.6192C41.4621 49.7171 41.4318 49.4351 41.4497 48.1867L41.4663 47.0303L41.697 46.281C41.9864 45.3411 41.9972 45.0694 41.7758 44.2922C41.5768 43.5934 41.5451 43.1833 41.6606 42.8019C41.7458 42.5205 41.7457 42.4916 41.6595 41.9606L41.5701 41.4106L41.7245 40.9051C41.81 40.6251 41.8789 40.2903 41.8789 40.1549C41.8789 40.0203 41.7893 39.5237 41.6799 39.0513C41.5705 38.5789 41.4806 38.0826 41.4802 37.9483C41.4798 37.814 41.5491 37.4405 41.6341 37.1182C41.7566 36.6537 41.7944 36.3952 41.8162 35.8716C41.8413 35.268 41.8324 35.1635 41.7123 34.6614C41.526 33.8823 41.5132 33.702 41.6073 33.1897C41.6781 32.8045 41.6816 32.6759 41.6317 32.2799C41.5693 31.7844 41.5863 31.5109 41.7057 31.0893C41.7934 30.7797 41.7645 30.4396 41.5546 29.3057C41.4012 28.4765 41.3968 28.162 41.5313 27.6211C41.6624 27.094 41.7414 26.2786 41.7488 25.375C41.7538 24.7629 41.7409 24.6334 41.6534 24.4183C41.4054 23.8084 40.9196 23.357 40.3434 23.2011C40.0732 23.1279 39.9394 23.1208 39.498 23.1559C38.8485 23.2076 38.2973 23.2076 37.8485 23.156C37.5846 23.1257 37.4202 23.136 37.1405 23.2006C36.3019 23.3943 35.2335 23.3452 34.6224 23.0849C34.0401 22.8369 33.8835 22.8187 33.3712 22.9389C32.9702 23.0331 32.8932 23.0375 32.6022 22.9826C32.4243 22.949 32.1811 22.9351 32.0618 22.9517C31.4405 23.0381 31.3431 23.037 30.8605 22.9379C30.2279 22.8079 29.7824 22.8132 29.1103 22.9586ZM55.0381 22.9661C54.6509 23.0135 54.203 23.0977 53.6402 23.2291C52.8593 23.4115 52.7064 23.4113 52.3726 23.2282C51.7973 22.9125 51.5562 22.9615 50.2773 23.6539C49.851 23.8848 49.2231 24.1001 48.7501 24.1778C48.5266 24.2145 48.5452 24.2614 48.8187 24.3517C48.9782 24.4043 49.0296 24.4063 49.0449 24.3603C49.0559 24.3275 49.1476 24.3008 49.2494 24.3008C49.6531 24.3008 49.9782 24.196 50.7082 23.8304C51.622 23.3728 51.7926 23.3416 52.2435 23.5499C52.7107 23.7657 53.0129 23.7464 53.8662 23.4463L54.5498 23.2058L55.331 23.1876C56.0272 23.1713 56.1708 23.1826 56.6494 23.2907C56.9448 23.3575 57.3843 23.4259 57.626 23.4429C58.3199 23.4915 58.8247 23.5685 59.1135 23.67C59.2891 23.7316 59.511 23.7637 59.7621 23.7637C60.3637 23.7637 60.6289 23.9297 60.6289 24.3062C60.6289 24.4327 60.576 24.562 60.4487 24.747C60.2496 25.0364 60.2266 25.214 60.3559 25.4642C60.4185 25.5852 60.4905 25.633 60.7034 25.6949C61.0192 25.7867 61.221 25.9433 61.383 26.2224C61.6173 26.6261 61.5977 26.8647 61.2554 27.7783C61.0633 28.2906 61.0562 28.3296 61.0798 28.7429C61.1067 29.2145 61.2245 29.5381 61.3799 29.5668C61.535 29.5956 61.551 29.4761 61.4291 29.2004C61.2685 28.8373 61.2794 28.6484 61.4816 28.2867C61.7013 27.8938 61.7289 27.7413 61.8534 26.2273C61.9523 25.0247 61.9537 24.9385 61.8776 24.6404C61.6786 23.8608 61.1003 23.3195 60.3106 23.1735C60.1039 23.1352 59.8714 23.141 59.3682 23.1968C58.4653 23.2968 57.3423 23.2392 56.6764 23.0587C56.3037 22.9577 56.1162 22.935 55.6998 22.941C55.4164 22.945 55.1186 22.9563 55.0381 22.9661ZM44.6761 23.1478C44.21 23.3006 43.6644 23.7655 43.4445 24.1974C43.1931 24.691 43.1365 25.2973 43.273 26.0342C43.4738 27.1174 43.4736 27.1042 43.2988 27.6945C43.0687 28.4717 43.0489 28.6451 43.1256 29.208C43.1622 29.4766 43.2155 30.1577 43.2439 30.7217C43.3065 31.9618 43.3186 32.0611 43.4692 32.5641C43.6341 33.1149 43.6232 33.4266 43.4109 34.2416C43.2684 34.7881 43.2329 35.0164 43.2288 35.4092C43.2242 35.8651 43.2376 35.9363 43.4303 36.481C43.6958 37.2315 43.697 37.3905 43.4415 37.9118C43.1271 38.5532 43.1006 39.1382 43.3265 40.4511C43.4098 40.9354 43.3971 41.2557 43.2738 41.7813C43.176 42.1979 43.1774 42.6799 43.2788 43.5099C43.3492 44.0865 43.353 44.2669 43.3039 44.7084C43.2259 45.4093 43.2348 46.6451 43.3211 47.128C43.4292 47.7324 43.5427 49.8385 43.4893 50.2494C43.3909 51.0068 43.4732 51.2952 43.5848 50.584C43.6638 50.0807 43.6883 49.9844 43.7372 49.9844C43.7599 49.9844 43.793 50.1136 43.8108 50.2714C43.8428 50.5543 43.8997 50.7143 43.9502 50.6638C43.9644 50.6495 43.9552 50.5074 43.9297 50.3478C43.8488 49.8422 43.7355 48.9008 43.7036 48.4691C43.6765 48.1032 43.6854 48.0276 43.7768 47.8485C43.9264 47.5554 43.9071 47.3591 43.6764 46.8223C43.4785 46.3622 43.4717 46.3292 43.4691 45.8096C43.4676 45.5142 43.4974 44.9608 43.5353 44.5799C43.5906 44.0247 43.593 43.7951 43.5473 43.423C43.4476 42.6125 43.4672 42.381 43.691 41.7173C43.9341 40.9962 43.9301 40.8094 43.6567 40.1211C43.4862 39.6918 43.4723 39.619 43.4691 39.1446L43.4658 38.6319L43.7344 38.0971C43.9839 37.6002 44.0029 37.538 44.0029 37.2182C44.0029 36.9139 43.9763 36.8141 43.7731 36.3569C43.3756 35.462 43.3661 35.0273 43.7195 33.8955C43.879 33.3848 43.8791 33.0351 43.7199 32.4551C43.5608 31.8753 43.5248 31.6411 43.3693 30.1725C43.2199 28.7617 43.2337 28.6005 43.5599 27.9407C43.7601 27.5357 43.7794 27.464 43.7929 27.0764C43.801 26.844 43.7948 26.6745 43.7791 26.6999C43.7231 26.7908 43.5161 25.7431 43.5174 25.375C43.5184 25.0809 43.545 24.9518 43.6523 24.7193C43.9067 24.1677 44.3299 23.7863 44.8247 23.6626C45.0221 23.6133 45.1259 23.6173 45.4595 23.687C45.7726 23.7524 45.9057 23.7594 46.0781 23.7194C46.199 23.6914 46.3775 23.6679 46.475 23.6672C46.7089 23.6657 46.8079 23.5538 46.6903 23.4239C46.4877 23.2001 45.0976 23.0096 44.6761 23.1478ZM24.62 24.9453C24.129 26.6723 24.1215 26.6926 23.9563 26.7257C23.8509 26.7468 23.8127 26.7821 23.8132 26.8582C23.8147 27.0642 23.8712 27.089 24.305 27.0739L24.7158 27.0596L24.7309 26.8765C24.7442 26.7164 24.7328 26.6934 24.64 26.6934C24.5411 26.6934 24.5362 26.6776 24.5683 26.4615C24.5873 26.3339 24.6063 26.2285 24.6105 26.2272C24.6147 26.2259 24.8228 26.1609 25.0728 26.0827C25.5891 25.9214 25.5676 25.9127 25.6916 26.3347C25.7864 26.657 25.7851 26.6769 25.668 26.7076C25.5929 26.7272 25.5703 26.7742 25.5703 26.9104V27.0878L25.9976 27.0737C26.4245 27.0596 26.4248 27.0595 26.4404 26.924C26.4533 26.812 26.4314 26.7798 26.3152 26.7392C26.1814 26.6926 26.1523 26.6227 25.7309 25.3368L25.2875 23.9834L25.0946 23.9688L24.9018 23.9541L24.62 24.9453ZM39.8063 24.15C39.7746 24.2014 40.2187 24.4636 40.2627 24.4196C40.3029 24.3794 39.9895 24.1055 39.9035 24.1055C39.8652 24.1055 39.8215 24.1255 39.8063 24.15ZM45.5898 24.4077C45.5626 24.4698 45.4062 24.982 45.2423 25.5459C45.0783 26.1099 44.9118 26.6826 44.8722 26.8185C44.8147 27.0158 44.7714 27.0766 44.6579 27.1195C44.5448 27.1622 44.5156 27.2029 44.5156 27.318C44.5156 27.5412 44.6012 27.5779 45.0845 27.562L45.5166 27.5479L45.5326 27.3801C45.5446 27.2533 45.5227 27.1928 45.4432 27.1327C45.3552 27.0663 45.3434 27.0237 45.3716 26.8733L45.4054 26.6934H45.8098C46.1335 26.6934 46.2201 26.7088 46.2438 26.7706C46.289 26.8883 46.2791 27.084 46.2281 27.084C46.1506 27.084 46.0293 27.233 46.0293 27.3282C46.0293 27.5154 46.1595 27.5723 46.5883 27.5723C47.0387 27.5723 47.1215 27.5269 47.0948 27.2945C47.0835 27.1958 47.0485 27.1529 46.9703 27.1418C46.8783 27.1287 46.8379 27.0497 46.7084 26.6291C46.6243 26.3556 46.4297 25.7254 46.2761 25.2285L45.9967 24.3252L45.818 24.3101C45.6704 24.2976 45.6307 24.3146 45.5898 24.4077ZM39.8365 24.4789C39.8459 24.5281 39.8938 24.576 39.943 24.5854C40.0075 24.5979 40.0275 24.5778 40.0151 24.5133C40.0057 24.4642 39.9577 24.4162 39.9086 24.4068C39.8441 24.3944 39.824 24.4144 39.8365 24.4789ZM24.9185 25.1372C24.8184 25.4898 24.7462 25.788 24.7581 25.7998C24.77 25.8117 24.9374 25.7744 25.1302 25.717C25.3936 25.6386 25.4738 25.5949 25.4532 25.5411C25.4381 25.5018 25.3577 25.2506 25.2745 24.9829C25.1913 24.7152 25.1182 24.4961 25.1119 24.4961C25.1057 24.4961 25.0186 24.7846 24.9185 25.1372ZM52.5234 24.6699C52.5234 24.7118 52.5457 24.7322 52.573 24.7154C52.6003 24.6985 52.6101 24.6642 52.5946 24.6392C52.5527 24.5715 52.5234 24.5841 52.5234 24.6699ZM36.6802 24.9499C36.6593 24.998 36.6559 25.0512 36.6726 25.0679C36.7223 25.1175 36.7622 25.0478 36.7394 24.9516C36.7192 24.8663 36.7165 24.8662 36.6802 24.9499ZM49.0933 24.9217C49.0147 24.9336 48.959 24.9728 48.959 25.0161C48.959 25.058 48.9855 25.0778 49.02 25.0618C49.0536 25.0461 49.1195 25.0198 49.1665 25.0032C49.2135 24.9866 49.2519 24.9536 49.2519 24.9299C49.2519 24.9062 49.2465 24.89 49.2397 24.8941C49.233 24.8981 49.1671 24.9105 49.0933 24.9217ZM59.9157 25.4035C59.932 25.4459 59.9453 25.4911 59.9453 25.504C59.9453 25.5168 59.9663 25.5143 59.992 25.4984C60.0487 25.4634 60.0032 25.3262 59.9349 25.3262C59.908 25.3262 59.8994 25.361 59.9157 25.4035ZM45.7396 25.5581C45.7124 25.6589 45.6588 25.8456 45.6204 25.9732L45.5506 26.2051H45.8196C46.0275 26.2051 46.0827 26.1899 46.0628 26.1381C46.0487 26.1013 45.9905 25.9145 45.9335 25.7231C45.8765 25.5316 45.8206 25.375 45.8094 25.375C45.7981 25.375 45.7667 25.4575 45.7396 25.5581ZM59.8965 25.686C59.8965 25.8271 59.9467 25.874 60.0379 25.8176C60.1247 25.764 60.0857 25.5996 59.9814 25.5795C59.9189 25.5675 59.8965 25.5956 59.8965 25.686ZM49.8867 25.8372C49.8867 25.9156 50.0315 26.0098 50.152 26.0098C50.273 26.0098 50.241 25.8847 50.1041 25.8223C49.9394 25.7473 49.8867 25.7509 49.8867 25.8372ZM29.5061 26.0385C29.4606 26.1569 29.4711 26.4981 29.5202 26.4981C29.5819 26.4981 29.623 26.3708 29.623 26.1796C29.623 26.0004 29.5531 25.916 29.5061 26.0385ZM40.8047 26.0098C40.8047 26.0367 40.8376 26.0586 40.8779 26.0586C40.9182 26.0586 40.9512 26.0367 40.9512 26.0098C40.9512 25.9829 40.9182 25.961 40.8779 25.961C40.8376 25.961 40.8047 25.9829 40.8047 26.0098ZM29.2324 26.2324C29.2324 26.3033 29.2536 26.3443 29.2812 26.3272C29.3081 26.3106 29.3301 26.2544 29.3301 26.2022C29.3301 26.1501 29.3081 26.1075 29.2812 26.1075C29.2544 26.1075 29.2324 26.1637 29.2324 26.2324ZM60.3448 26.3313C60.216 26.4216 60.1993 26.5216 60.3237 26.4576C60.3707 26.4334 60.4346 26.4228 60.4657 26.434C60.5507 26.4647 60.5882 26.3703 60.5152 26.3097C60.4684 26.2709 60.4228 26.2766 60.3448 26.3313ZM59.4842 26.4276C59.4381 26.4978 59.4101 26.5652 59.4221 26.5771C59.434 26.589 59.4815 26.5412 59.5275 26.4709C59.5736 26.4007 59.6016 26.3333 59.5896 26.3214C59.5777 26.3095 59.5302 26.3573 59.4842 26.4276ZM60.0251 26.442C59.9297 26.5474 59.91 26.6994 60.0039 26.6055C60.1048 26.5046 60.1355 26.541 60.0884 26.7053C60.0634 26.7924 60.043 26.8803 60.043 26.9006C60.043 26.9792 60.1876 26.9323 60.2589 26.8304C60.3252 26.7358 60.3255 26.714 60.2617 26.6435C60.222 26.5995 60.1894 26.5282 60.1894 26.4849C60.1894 26.364 60.1136 26.3443 60.0251 26.442ZM39.2229 26.7442C39.0724 26.9366 38.95 27.1192 38.9511 27.15C38.9532 27.2147 39.2381 26.9018 39.4233 26.6314C39.6479 26.3035 39.5046 26.3842 39.2229 26.7442ZM50.4564 26.4818C50.3971 26.5411 50.4226 26.6934 50.4918 26.6934C50.5558 26.6934 50.6191 26.5943 50.6191 26.4941C50.6191 26.4423 50.5045 26.4337 50.4564 26.4818ZM60.5801 26.5498C60.5801 26.5782 60.602 26.5879 60.6289 26.5713C60.6558 26.5547 60.6777 26.5315 60.6777 26.5196C60.6777 26.5077 60.6558 26.4981 60.6289 26.4981C60.602 26.4981 60.5801 26.5214 60.5801 26.5498ZM54.0187 26.7685C54.002 26.8121 53.9902 26.8845 53.9925 26.9293C53.9948 26.9741 54.016 26.946 54.0397 26.8667C54.0857 26.7126 54.0694 26.6364 54.0187 26.7685ZM60.4871 27.0811C60.4133 27.1267 60.4473 27.2793 60.5312 27.2793C60.6027 27.2793 60.6517 27.1361 60.5983 27.0827C60.5739 27.0583 60.5252 27.0576 60.4871 27.0811ZM24.9502 27.4226C24.8437 27.5494 24.7055 27.6385 24.4971 27.7145C24.1319 27.8477 23.99 28.0301 24.0255 28.3207C24.0797 28.7643 24.5313 28.9086 24.8699 28.5905C24.9327 28.5316 24.9925 28.4926 25.0028 28.5039C25.0415 28.546 24.8789 29.0662 24.7679 29.2557L24.6528 29.4522H25.0627C25.2882 29.4522 25.4726 29.4494 25.4726 29.4459C25.4726 29.4424 25.4187 29.3216 25.3529 29.1773C25.287 29.0331 25.2177 28.818 25.1988 28.6993L25.1645 28.4835L25.3385 28.6162C25.4341 28.6891 25.5903 28.7615 25.6856 28.7769C25.8331 28.8009 25.8808 28.783 26.0075 28.6563C26.1186 28.5452 26.1562 28.4627 26.1562 28.3305C26.1562 28.0249 26.0474 27.8908 25.6442 27.6994C25.4019 27.5844 25.2473 27.4765 25.1902 27.3825L25.1035 27.24L24.9502 27.4226ZM31.3676 27.6491C30.7496 27.7421 30.4555 27.857 30.0466 28.1648C29.3127 28.7172 28.7645 29.364 28.3135 30.209C27.9838 30.8269 27.1593 33.1413 27.1931 33.3542C27.2197 33.5212 27.4872 33.0616 27.6966 32.4893C28.0868 31.4229 28.2412 31.1537 28.8854 30.4165C29.31 29.9307 29.3239 30.0129 28.9304 30.6819C28.8011 30.9017 28.6953 31.1055 28.6953 31.1348C28.6953 31.1641 28.8249 31.0392 28.9833 30.8573C29.2681 30.5303 30.226 29.5824 30.0333 29.8184C29.9785 29.8855 29.7034 30.2151 29.4221 30.5508C29.1407 30.8865 28.8656 31.2271 28.8107 31.3077C28.6297 31.5735 28.2862 32.2576 28.3178 32.2892C28.3349 32.3063 28.5861 32.1827 28.8761 32.0144C29.539 31.6299 29.5245 31.6365 29.3789 31.7858C29.3118 31.8546 29.081 32.0192 28.8662 32.1515L28.4756 32.3921L28.4413 32.7653C28.4224 32.9706 28.3841 33.221 28.3561 33.3217C28.3281 33.4225 28.3051 33.61 28.305 33.7384C28.3046 34.02 28.059 34.6886 27.9014 34.8368L27.792 34.9397L27.8074 34.1491C27.825 33.2412 27.7686 33.1764 27.6507 33.9688C27.5699 34.5114 27.4126 35.0365 27.0529 35.9644C26.9319 36.2767 26.734 36.8041 26.6132 37.1364C26.398 37.7284 26.3946 37.747 26.4433 38.0641C26.5346 38.6584 26.5463 38.8186 26.6191 40.4629C26.659 41.3626 26.7141 42.3953 26.7416 42.7578C26.7691 43.1204 26.8002 43.5412 26.8107 43.6931C26.8211 43.8449 26.8504 44.0061 26.8757 44.0513C26.9059 44.1053 26.9331 43.6933 26.9551 42.8474C26.9997 41.1377 27.0661 40.1549 27.159 39.8282C27.2846 39.3864 27.3075 38.6307 27.2075 38.2227C27.1527 37.999 27.098 37.875 27.0543 37.875C26.9651 37.875 26.9683 38.0082 27.0637 38.2717C27.144 38.4936 27.1326 38.96 27.0393 39.2666C27.0029 39.3862 26.9939 39.3455 26.9905 39.045C26.9882 38.8425 26.9534 38.5503 26.9131 38.3956C26.7763 37.8705 26.7683 37.8903 27.4168 37.1439C27.8365 36.661 27.8998 36.5504 28.0167 36.0969C28.0737 35.8761 28.1445 35.7239 28.2214 35.6574C28.2938 35.5947 28.4278 35.3215 28.5706 34.9453C28.6981 34.6097 28.8439 34.2899 28.8948 34.2348C28.9928 34.1285 29.0454 33.9071 29.1319 33.2364C29.2397 32.4 29.181 32.5087 29.7855 32.0255C30.761 31.2456 31.0344 31.1523 31.5328 31.4296C32.3886 31.9057 32.4602 31.9334 32.8945 31.9564C33.1228 31.9685 33.3405 32.0033 33.3783 32.0337C33.4161 32.064 33.6005 32.2726 33.7881 32.4973C34.6253 33.4993 34.9547 33.7937 36.0683 34.5352C37.2167 35.2999 37.6921 35.6666 37.8619 35.9185C37.9941 36.1147 38.0138 36.5591 37.9021 36.8264C37.833 36.9916 37.5954 37.2699 37.5564 37.2309C37.5456 37.2202 37.5689 37.1045 37.6082 36.9739C37.6475 36.8433 37.6775 36.5807 37.6749 36.3902L37.6701 36.044L37.6107 36.3453C37.56 36.6025 37.3403 37.045 37.2634 37.045C37.25 37.045 37.2531 36.9515 37.2703 36.8374C37.2961 36.6661 37.2902 36.6406 37.2367 36.691C37.2011 36.7245 37.1555 36.752 37.1355 36.752C37.1156 36.752 37.1121 36.5245 37.1278 36.2465C37.1652 35.5869 37.0933 35.5265 36.9283 36.079C36.6553 36.9932 36.4786 37.6797 36.5164 37.6797C36.5385 37.6797 36.6024 37.6339 36.6583 37.578C36.7143 37.5221 36.7679 37.4841 36.7774 37.4936C36.787 37.5032 36.7055 37.7082 36.5964 37.9494C36.4872 38.1905 36.3743 38.5249 36.3454 38.6926C36.2972 38.9716 36.3023 39.0172 36.405 39.2297C36.6632 39.7637 37.1617 40.229 37.6558 40.3974C37.8274 40.4559 37.9267 40.5376 38.1002 40.763C38.2754 40.9907 38.3376 41.0416 38.389 40.999C38.4379 40.9583 38.4852 40.9648 38.5768 41.0249C38.6995 41.1053 39.1456 41.6188 39.1433 41.677C39.1426 41.6941 38.9986 41.8162 38.8231 41.9484C38.5266 42.1719 38.3737 42.3451 38.4263 42.3977C38.4385 42.4099 38.5557 42.3378 38.6866 42.2375C39.0682 41.9453 39.929 41.4393 40.0419 41.4409C40.1626 41.4426 40.1762 41.4292 39.3116 42.1567C38.771 42.6116 37.6379 43.7309 37.5469 43.8999C37.5157 43.9579 37.4741 43.978 37.435 43.9538C37.3467 43.8993 37.4019 43.1868 37.5561 42.3916C37.7036 41.6306 37.7086 41.5015 37.574 41.9278C37.5188 42.1023 37.4597 42.2561 37.4424 42.2696C37.4252 42.283 37.4078 42.3489 37.4037 42.416C37.3995 42.4832 37.3691 42.637 37.3359 42.7578C37.2642 43.019 37.1675 43.1487 37.2083 42.9287C37.2233 42.8482 37.25 42.4746 37.2675 42.0987C37.3049 41.297 37.2422 41.252 37.0942 41.9745C37.0432 42.2234 36.9922 42.4362 36.9808 42.4475C36.9695 42.4589 36.9465 42.374 36.9297 42.259C36.8318 41.5897 36.6754 40.8047 36.64 40.8047C36.5964 40.8047 36.6295 41.3804 36.7059 41.9522C36.8402 42.9557 36.8948 44.9392 36.791 45.043C36.7454 45.0886 36.7471 45.1016 36.7983 45.1016C36.8532 45.1016 36.8598 45.4868 36.8373 47.3843C36.812 49.5282 36.836 50.4754 36.9176 50.557C37.0399 50.6793 37.0887 50.0468 36.9917 49.5948C36.9524 49.4112 36.9541 49.2173 36.9984 48.8477C37.0313 48.5733 37.065 47.6565 37.0733 46.8106C37.0816 45.9646 37.1097 45.2023 37.1357 45.1164C37.1889 44.9413 37.403 44.6117 37.7003 44.2471C38.1187 43.7341 39.9309 41.9087 40.2981 41.6304C40.5096 41.4701 40.7098 41.2902 40.7429 41.2306C40.8196 41.0926 40.8237 40.7559 40.7486 40.7559C40.6708 40.7559 39.9111 41.1717 39.5745 41.3986C39.4215 41.5016 39.2856 41.586 39.2724 41.586C39.2592 41.586 39.0999 41.3388 38.9184 41.0367C38.737 40.7346 38.5213 40.424 38.4392 40.3465C38.2708 40.1874 37.7501 39.9162 37.3153 39.7611C37.0685 39.6731 37.0032 39.6233 36.8864 39.434C36.8106 39.3112 36.7374 39.1244 36.7237 39.019L36.6987 38.8272L36.7662 39.0038C36.865 39.2625 37.0312 39.5151 37.1557 39.5955C37.3203 39.7019 37.8701 39.8757 37.8982 39.8302C37.9117 39.8082 37.8081 39.7527 37.668 39.7069C37.337 39.5986 37.1731 39.4785 37.0753 39.2724C36.8652 38.8296 37.05 38.3486 37.6591 37.753C38.1151 37.3071 38.1535 37.2086 38.2019 36.3614C38.2493 35.5326 38.1891 35.4293 36.8456 34.0354C36.3111 33.4809 35.7505 32.8705 35.5997 32.6791C35.3315 32.3383 34.4897 30.8925 34.5338 30.8484C34.5461 30.8361 34.6283 30.8959 34.7164 30.9814C34.8046 31.0668 34.8948 31.1368 34.917 31.1368C34.9392 31.1368 34.9471 30.9445 34.9346 30.7095C34.9072 30.1931 34.7046 29.4981 34.4904 29.186L34.3412 28.9687L34.4861 29.0719C34.7262 29.2429 35.0559 29.6223 35.369 30.088C35.6844 30.5569 35.9152 30.8147 35.737 30.4988C35.6849 30.4066 35.5497 30.1553 35.4364 29.9405L35.2306 29.5498L35.4091 29.7207C35.5073 29.8147 35.6236 29.9521 35.6676 30.0259C35.807 30.2599 35.836 30.1706 35.7011 29.9228C35.4868 29.529 34.9493 28.8427 34.5075 28.3987C34.1856 28.0752 34.0035 27.9369 33.7068 27.7904L33.3229 27.6008L32.5838 27.589C32.1212 27.5816 31.6662 27.6041 31.3676 27.6491ZM45.7363 27.7858C45.7363 27.9041 45.2682 28.5655 45.0061 28.8174C44.686 29.125 44.6133 29.2641 44.6133 29.5683C44.6133 29.7773 44.6364 29.8359 44.7777 29.9858C44.9191 30.1357 44.9731 30.1602 45.1625 30.1602C45.3459 30.1602 45.4085 30.1341 45.5352 30.0044C45.619 29.9188 45.6875 29.8604 45.6875 29.8747C45.6875 29.9539 45.4755 30.4979 45.3737 30.6801L45.2549 30.8926H45.7627H46.2705L46.1533 30.7199C46.0323 30.5416 45.8063 29.9275 45.8468 29.887C45.8593 29.8744 45.9056 29.9192 45.9497 29.9865C46.1747 30.3298 46.7663 30.1751 46.9116 29.7348C47.0063 29.4479 46.9323 29.2543 46.5882 28.8879C46.2592 28.5376 45.8993 28.0211 45.8515 27.8308C45.8211 27.7096 45.7363 27.6764 45.7363 27.7858ZM27.8652 27.8351C27.8652 27.8754 27.8872 27.9219 27.9141 27.9385C27.9409 27.9551 27.9629 27.9357 27.9629 27.8954C27.9629 27.8552 27.9409 27.8086 27.9141 27.792C27.8872 27.7754 27.8652 27.7948 27.8652 27.8351ZM28.1094 27.8164C28.1094 27.8433 28.1313 27.8653 28.1582 27.8653C28.1851 27.8653 28.207 27.8433 28.207 27.8164C28.207 27.7896 28.1851 27.7676 28.1582 27.7676C28.1313 27.7676 28.1094 27.7896 28.1094 27.8164ZM49.3354 28.2375C49.2766 28.2964 49.2971 28.4362 49.374 28.5C49.472 28.5813 49.6043 28.4762 49.5839 28.3334C49.5695 28.2324 49.4043 28.1686 49.3354 28.2375ZM43.4795 29.1248C43.3791 29.2948 43.4394 29.4516 43.5585 29.3301C43.598 29.2898 43.6451 29.1964 43.6632 29.1226C43.7079 28.9406 43.5875 28.942 43.4795 29.1248ZM52.2439 29.5855C51.5786 30.4743 50.172 32.762 49.6563 33.7942C49.5346 34.0379 49.1641 34.7537 48.833 35.3848C48.1787 36.632 48.0662 36.8992 47.4849 38.583C46.8508 40.4196 46.8063 40.5911 46.7763 41.3174C46.7454 42.0628 46.8154 42.8017 46.9591 43.2461C47.1228 43.7526 47.3117 44.0229 47.6771 44.274C47.8575 44.3978 48.0707 44.598 48.1592 44.7264C48.4985 45.2187 48.5575 46.138 48.3013 46.9403C48.1668 47.3614 48.1467 47.5901 48.2363 47.6797C48.3184 47.7618 48.4494 47.7527 48.5436 47.6584C48.6096 47.5924 48.6217 47.4833 48.6126 47.0358C48.6016 46.4937 48.6567 46.081 48.779 45.7902C48.8277 45.6745 48.8318 45.5774 48.7956 45.4007C48.7367 45.113 48.7747 44.9915 48.9172 45.0127C49.1099 45.0413 49.2229 45.2652 49.2403 45.6525C49.2623 46.1423 49.2852 46.2246 49.3994 46.2246C49.4834 46.2246 49.4961 46.1912 49.4964 45.9683C49.4968 45.5813 49.5806 45.1483 49.6752 45.0437C49.7721 44.9366 49.98 44.9418 50.0356 45.0528C50.0558 45.0931 50.0975 45.3238 50.1283 45.5655C50.208 46.1914 50.2645 46.3807 50.3655 46.3615C50.4364 46.3479 50.4517 46.2584 50.4726 45.7358C50.5019 45.0056 50.5529 44.8776 51.0563 44.2708C51.4393 43.8091 51.5988 43.6979 51.7673 43.7747C51.8693 43.8211 51.879 43.8634 51.9 44.3534C51.9125 44.644 51.901 44.9978 51.8743 45.1395C51.8369 45.3382 51.8435 45.4777 51.9033 45.7498C51.9852 46.1229 52.0508 46.9342 52.0583 47.6651C52.0608 47.9068 52.0808 48.271 52.1027 48.4745C52.1333 48.7578 52.1232 48.94 52.0594 49.253C52.0071 49.5092 51.9886 49.7355 52.0097 49.8597C52.0281 49.9685 52.0398 50.2692 52.0355 50.5277C52.0284 50.9562 52.0414 51.0295 52.1822 51.3577C52.2997 51.6314 52.3471 51.8336 52.3797 52.2001C52.4232 52.6872 52.5076 52.9141 52.6455 52.9141C52.773 52.9141 52.8673 52.6901 52.915 52.2734C52.9705 51.7896 53.0004 51.6777 53.1945 51.2281C53.329 50.9166 53.3441 50.8251 53.3727 50.1494C53.3931 49.6702 53.3848 49.3216 53.3493 49.156C53.2843 48.8529 53.2775 48.4355 53.3231 47.543C53.3668 46.6874 53.4318 46.0478 53.4969 45.8344C53.5671 45.6036 53.5627 44.662 53.4897 44.3085C53.4198 43.9699 53.4631 43.8637 53.6803 43.8418C53.8076 43.8289 53.8532 43.8627 54.0365 44.1055C54.1521 44.2587 54.3518 44.5 54.4802 44.6417C54.6086 44.7835 54.7426 44.9505 54.7779 45.0128C54.8188 45.0849 54.8555 45.4188 54.8788 45.9317C54.8989 46.3748 54.9286 46.9881 54.9446 47.2945C54.9669 47.7189 54.9538 47.9548 54.8899 48.2843C54.7514 48.9972 54.8551 49.3718 55.1821 49.3398C55.3088 49.3274 55.3417 49.2943 55.4028 49.1178C55.4682 48.9285 55.4648 48.8516 55.3646 48.2389C55.2336 47.4374 55.2321 47.4049 55.2814 46.3467C55.3292 45.3191 55.4355 45.0406 55.7799 45.0406C56.0857 45.0406 56.1763 45.4279 56.0957 46.3922C56.0426 47.0284 56.0725 47.2638 56.2134 47.3178C56.3225 47.3597 56.4206 47.3017 56.4648 47.1692C56.4879 47.0999 56.4798 46.8244 56.4459 46.5264C56.3199 45.4168 56.5155 45.0179 57.408 44.5644C57.924 44.3023 58.2265 43.8589 58.4425 43.0477C58.5346 42.7019 58.5522 42.5104 58.5519 41.8545C58.5515 40.9131 58.5001 40.6035 58.1574 39.4788C57.6087 37.678 56.9584 36.1461 55.8022 33.9309C55.2013 32.7795 54.732 31.9957 54.1583 31.1856C53.5073 30.2662 53.2795 29.9123 53.0336 29.4383C52.9053 29.1908 52.7756 28.9883 52.7456 28.9883C52.7155 28.9883 52.4898 29.257 52.2439 29.5855ZM42.6601 29.6719C42.6601 29.7262 42.6927 29.7696 42.7334 29.7696C42.7741 29.7696 42.8066 29.7262 42.8066 29.6719C42.8066 29.6177 42.7741 29.5743 42.7334 29.5743C42.6927 29.5743 42.6601 29.6177 42.6601 29.6719ZM50.4407 29.8449C50.4247 29.8864 50.4245 29.933 50.4401 29.9486C50.4893 29.9979 50.6191 29.9223 50.6191 29.8443C50.6191 29.7469 50.4781 29.7473 50.4407 29.8449ZM61.4935 30.2074C61.42 30.4142 61.4043 30.679 61.387 32.0123C61.3744 32.9736 61.3468 33.6118 61.3151 33.6709C61.2169 33.8543 61.2616 34.1106 61.4712 34.5669L61.6787 35.0186L61.6698 35.7071C61.6577 36.6476 61.5872 37.1148 61.3546 37.7961C61.1738 38.3258 61.1582 38.411 61.1754 38.7727C61.1918 39.1182 61.2212 39.2253 61.4047 39.6084C61.7885 40.4098 61.7865 40.8372 61.395 41.7405C61.1519 42.3013 61.0466 42.7241 61.0972 42.9354C61.1157 43.0123 61.2363 43.273 61.3654 43.5147C61.7535 44.2416 61.7697 44.6459 61.4555 45.7608C61.3546 46.1186 61.2875 46.5016 61.2545 46.9082C61.1783 47.8475 61.1818 47.8884 61.3643 48.2075L61.5266 48.4911L61.5883 48.3467C61.6222 48.2672 61.6501 48.1363 61.6505 48.0557L61.651 47.9092L61.5568 48.0223L61.4625 48.1354L61.4393 48.0223C61.3765 47.7163 61.3798 47.5926 61.4636 47.1011C61.5134 46.8093 61.6219 46.3023 61.7047 45.9744C62.0861 44.4635 62.119 44.0833 61.9167 43.526C61.6576 42.8118 61.635 42.6769 61.6945 42.1954C61.7244 41.9532 61.808 41.5357 61.8804 41.2677C62.0767 40.5401 62.0622 40.1641 61.8072 39.3742C61.5753 38.6558 61.5593 38.4223 61.7004 37.8179C61.8534 37.1632 61.9192 36.4511 61.921 35.4336C61.9226 34.5579 61.9112 34.4286 61.7789 33.8223C61.6314 33.146 61.6161 32.8131 61.6403 30.8072C61.6466 30.2839 61.6331 29.9649 61.6047 29.9649C61.5909 29.9649 61.5408 30.074 61.4935 30.2074ZM30.7483 30.6851C30.4013 30.8881 29.8724 31.3521 29.9259 31.4065C29.9635 31.4447 30.3638 31.1704 30.6728 30.8949C30.7803 30.7991 30.9341 30.6723 31.0146 30.6129C31.2463 30.4424 31.0914 30.4844 30.7483 30.6851ZM31.2344 30.5311C31.2344 30.6627 32.2082 31.2484 32.9624 31.5703C33.0411 31.6039 32.9413 31.3095 32.8468 31.2292C32.796 31.186 32.6157 31.1234 32.4461 31.0901C32.0869 31.0194 32.0252 30.9911 31.6982 30.7467C31.4857 30.5879 31.2344 30.471 31.2344 30.5311ZM41.1831 30.6766C41.1629 30.697 41.1465 30.7582 41.1465 30.8129C41.1465 30.8847 41.1612 30.8974 41.1999 30.8587C41.2292 30.8294 41.2457 30.7681 41.2365 30.7225C41.2273 30.677 41.2033 30.6563 41.1831 30.6766ZM36.9986 30.8147C36.9613 30.8844 36.9437 30.9542 36.9595 30.97C36.9969 31.0073 37.1052 30.8049 37.0832 30.7389C37.0739 30.711 37.0358 30.7452 36.9986 30.8147ZM33.308 30.9399C33.4804 31.0536 33.5631 31.1526 33.8481 31.5865C34.1462 32.0405 34.7599 32.8436 34.9279 32.9999C35.0912 33.1517 35.8809 33.6843 35.9058 33.6593C35.9509 33.6142 35.5276 33.1499 34.9081 32.565C34.5313 32.2091 34.1508 31.8026 34.0626 31.6617C33.8178 31.2705 33.5852 30.9965 33.4302 30.9162C33.2265 30.8109 33.1382 30.828 33.308 30.9399ZM49.0398 31.0796C48.9291 31.2019 48.9384 31.3153 49.0619 31.3476C49.2127 31.387 49.3916 31.3028 49.4557 31.1621C49.5241 31.0121 49.6853 31.0003 49.8021 31.1368C49.8909 31.2404 49.9844 31.2661 49.9844 31.1869C49.9844 31.002 49.1915 30.9119 49.0398 31.0796ZM35.5632 31.2588C35.669 31.7492 35.9472 32.6111 36.0803 32.8608C36.2233 33.129 36.9332 33.9503 36.9808 33.9027C36.9921 33.8914 36.8144 33.5987 36.586 33.2523C36.3284 32.8616 36.1067 32.4563 36.0019 32.1848C35.7862 31.6256 35.5221 31.0681 35.5632 31.2588ZM36.2402 31.8896C36.3023 32.2738 36.6692 33.041 36.7907 33.041C36.8133 33.041 36.8162 32.9098 36.7973 32.7495C36.7608 32.4402 36.6226 32.1606 36.3621 31.8692L36.2093 31.6983L36.2402 31.8896ZM48.7474 31.8529C48.6963 31.904 48.7094 32.1133 48.7637 32.1133C48.7905 32.1133 48.8125 32.0474 48.8125 31.9668C48.8125 31.8151 48.8025 31.7977 48.7474 31.8529ZM28.8499 32.8294C28.7433 32.9922 28.7368 33.1792 28.8401 33.1153C28.8884 33.0855 29.0083 32.7031 28.9787 32.6734C28.9699 32.6646 28.912 32.7348 28.8499 32.8294ZM48.0084 32.9896C47.9655 33.0591 48.0203 33.1387 48.1109 33.1387C48.1537 33.1387 48.1782 33.1044 48.1691 33.0573C48.1501 32.9592 48.0526 32.9182 48.0084 32.9896ZM52.7694 33.3076C52.7089 33.372 52.6677 33.4493 52.6777 33.4794C52.6877 33.5095 52.7578 33.4695 52.8334 33.3906C52.909 33.3117 52.9503 33.2344 52.9251 33.2188C52.9 33.2033 52.8299 33.2432 52.7694 33.3076ZM42.882 33.4771C42.8458 33.5356 42.9377 33.5934 43.0027 33.5533C43.0574 33.5195 43.0215 33.4317 42.9531 33.4317C42.9294 33.4317 42.8974 33.4521 42.882 33.4771ZM44.5821 33.5049C44.5383 33.6191 44.6001 33.7246 44.7109 33.7246C44.8351 33.7246 44.8892 33.602 44.808 33.5043C44.7306 33.4109 44.6181 33.4112 44.5821 33.5049ZM50.8413 33.5741C50.9163 33.6465 51.0711 33.6564 51.0942 33.5904C51.1085 33.5496 51.0623 33.5293 50.9552 33.5293C50.8569 33.5293 50.8128 33.5466 50.8413 33.5741ZM49.4106 33.7369C49.4218 33.7704 49.4724 33.8059 49.523 33.8157C49.6026 33.8311 49.6062 33.8229 49.5496 33.7547C49.4722 33.6614 49.3816 33.6497 49.4106 33.7369ZM47.9946 33.757C47.9611 33.7705 47.9336 33.8143 47.9336 33.8544C47.9336 33.9555 48.0993 33.9156 48.1197 33.8096C48.1362 33.724 48.1068 33.7117 47.9946 33.757ZM53.8429 33.87C53.7496 33.9633 53.7542 34.1153 53.8502 34.1153C53.9682 34.1153 54.0859 34.0046 54.0859 33.8938C54.0859 33.7464 53.9772 33.7357 53.8429 33.87ZM59.2617 34.2618C59.2617 34.2886 59.2837 34.3106 59.3105 34.3106C59.3374 34.3106 59.3594 34.2886 59.3594 34.2618C59.3594 34.2349 59.3374 34.2129 59.3105 34.2129C59.2837 34.2129 59.2617 34.2349 59.2617 34.2618ZM43.6947 34.4601C43.7064 34.4953 43.7449 34.5338 43.7802 34.5456C43.8168 34.5578 43.8351 34.5395 43.8229 34.5029C43.8111 34.4676 43.7726 34.4291 43.7374 34.4174C43.7008 34.4052 43.6825 34.4235 43.6947 34.4601ZM31.5803 34.8111C31.4621 35.0834 31.316 35.2121 30.9632 35.3546C30.429 35.5702 30.1644 35.5996 29.6183 35.5036C29.3517 35.4568 29.1187 35.4333 29.1006 35.4515C29.0825 35.4696 29.1432 35.5491 29.2355 35.628C29.4255 35.7904 29.3556 35.8219 29.0701 35.7026C28.8753 35.6213 28.8066 35.6673 28.8901 35.8232C28.9495 35.9342 28.9271 35.9449 28.7897 35.8714C28.6254 35.7834 28.6753 35.9963 28.863 36.184C29.0434 36.3644 29.3096 36.4769 29.4879 36.4481C29.5812 36.4331 29.5625 36.4127 29.3692 36.3183C29.243 36.2568 29.114 36.1754 29.0824 36.1374C28.9637 35.9944 29.8322 36.0714 30.2756 36.2432C30.352 36.2728 30.3614 36.2616 30.3334 36.1734C30.2877 36.0297 30.361 36.0417 30.5117 36.2027C30.6447 36.3449 30.7594 36.5505 30.8181 36.752C30.8516 36.8668 30.8454 36.8648 30.7144 36.7178C30.5989 36.588 30.5275 36.5559 30.2944 36.529C30.14 36.5112 30.0137 36.5124 30.0137 36.5317C30.0137 36.551 30.1126 36.6768 30.2336 36.8114C30.381 36.9753 30.4792 37.1441 30.5311 37.3227C30.6101 37.5943 30.5952 37.6949 30.4913 37.591C30.4596 37.5592 30.4074 37.5332 30.3753 37.5332C30.2975 37.5332 30.2454 37.6782 30.2985 37.747C30.3219 37.7771 30.344 37.9436 30.3478 38.117C30.3551 38.4533 30.432 38.5959 30.5761 38.5406C30.6415 38.5155 30.6533 38.4629 30.635 38.2776C30.6225 38.1502 30.5962 37.998 30.5767 37.9394C30.5468 37.8497 30.5565 37.8369 30.6382 37.8582C30.7196 37.8795 30.7385 37.9347 30.7554 38.2C30.7761 38.5248 30.8262 38.6052 31.0089 38.6067C31.0928 38.6074 31.0987 38.5757 31.0772 38.2412C31.0559 37.909 31.0621 37.875 31.144 37.875C31.2244 37.875 31.2344 37.9181 31.2344 38.2657V38.6563H31.4342H31.634L31.61 38.3999C31.5969 38.259 31.5703 38.0831 31.551 38.0093C31.5182 37.8836 31.5259 37.875 31.6716 37.875H31.8273L31.7937 38.1558C31.7562 38.4691 31.7578 38.4442 31.7657 38.5982C31.7708 38.6979 31.7928 38.7093 31.9546 38.6958L32.1377 38.6807L32.12 38.2535C32.1049 37.8924 32.1139 37.8262 32.1779 37.8262C32.254 37.8262 32.2548 37.7739 32.1853 37.3257C32.1581 37.1501 32.2668 37.1473 32.4027 37.3201C32.5289 37.4806 32.5311 37.6037 32.4099 37.7249C32.3542 37.7806 32.3261 37.858 32.3409 37.9147C32.3546 37.9674 32.342 38.0253 32.3128 38.0433C32.2552 38.0789 32.2428 38.3684 32.2912 38.5491C32.3145 38.6359 32.3505 38.6581 32.4493 38.6467C32.5475 38.6353 32.5728 38.6093 32.5584 38.5342C32.5481 38.4805 32.5423 38.2278 32.5455 37.9727C32.5497 37.6434 32.5288 37.4569 32.4733 37.3298C32.4015 37.1653 32.4015 37.1415 32.4739 37.0381C32.5936 36.8672 32.5676 36.5807 32.3851 36.0606C32.2227 35.5977 32.1502 35.2975 32.0892 34.8355L32.0584 34.6035H31.8644C31.6828 34.6035 31.6646 34.6168 31.5803 34.8111ZM48.0094 34.6482C47.9937 34.6737 48.0017 34.7073 48.0271 34.723C48.0525 34.7388 48.0862 34.7308 48.1019 34.7054C48.1176 34.6799 48.1097 34.6463 48.0842 34.6306C48.0588 34.6148 48.0251 34.6228 48.0094 34.6482ZM24.0566 35.1435C24.0566 35.172 24.0786 35.1817 24.1055 35.1651C24.1323 35.1485 24.1543 35.1252 24.1543 35.1134C24.1543 35.1015 24.1323 35.0918 24.1055 35.0918C24.0786 35.0918 24.0566 35.1151 24.0566 35.1435ZM49.8906 35.218C49.8929 35.2748 49.9045 35.2864 49.9201 35.2475C49.9342 35.2122 49.9324 35.1701 49.9162 35.1539C49.9 35.1377 49.8885 35.1665 49.8906 35.218ZM44.5913 35.2832C44.5511 35.3482 44.7148 35.4981 44.768 35.445C44.7921 35.4208 44.7977 35.3645 44.7806 35.3197C44.7468 35.2318 44.6363 35.2104 44.5913 35.2832ZM45.4434 35.34C45.4434 35.459 45.5575 35.4422 45.5812 35.3197C45.5906 35.2715 45.5657 35.2383 45.5202 35.2383C45.4749 35.2383 45.4434 35.2801 45.4434 35.34ZM48.373 35.336C48.373 35.3628 48.3963 35.3848 48.4247 35.3848C48.4532 35.3848 48.4629 35.3628 48.4463 35.336C48.4297 35.3091 48.4064 35.2871 48.3946 35.2871C48.3827 35.2871 48.373 35.3091 48.373 35.336ZM27.5582 35.6622C27.3102 35.9706 26.7566 36.978 26.8073 37.0286C26.8544 37.0758 27.2798 36.4916 27.4267 36.1779C27.5115 35.9968 27.6477 35.7434 27.7293 35.6149C27.9539 35.2612 27.8598 35.2872 27.5582 35.6622ZM31.6933 35.4222C31.5939 35.4886 31.5329 35.6593 31.4322 36.1535C31.2894 36.8544 31.2905 36.8617 31.5683 37.0399C31.6981 37.1232 31.819 37.1914 31.8368 37.1914C31.8546 37.1914 31.8713 37.1201 31.874 37.0327C31.8804 36.8232 31.9391 36.6184 31.9753 36.6792C31.9912 36.7058 32.0194 36.799 32.0382 36.8863C32.072 37.0439 32.1654 37.088 32.2933 37.0066C32.3932 36.9431 32.4586 36.6986 32.4251 36.514C32.3875 36.3065 32.1378 35.6533 32.0354 35.4947C31.9658 35.3868 31.7992 35.3515 31.6933 35.4222ZM34.2861 35.6778C34.1787 35.7275 34.0029 35.7702 33.8955 35.7725C33.6559 35.7779 33.5112 35.8505 33.6409 35.9002C33.8078 35.9643 34.3901 35.7767 34.481 35.6296C34.5185 35.5689 34.5245 35.5675 34.2861 35.6778ZM33.0475 35.8508C32.9356 35.9448 32.8924 36.0306 32.8691 36.2048C32.8522 36.3312 32.8071 36.5319 32.7688 36.6508C32.6752 36.9416 32.6809 37.0619 32.7996 37.2944C32.8548 37.4026 32.9127 37.5994 32.9285 37.7319C32.9729 38.1073 33.0296 38.0159 33.0484 37.5386C33.0653 37.1086 33.0674 37.1021 33.2729 36.8584C33.3871 36.7231 33.4805 36.5885 33.4805 36.5592C33.4805 36.4619 33.2161 36.5617 33.0742 36.7125C32.9984 36.7931 32.9247 36.8473 32.9104 36.8329C32.8961 36.8186 32.9071 36.6353 32.9349 36.4255C32.9815 36.0727 32.9991 36.032 33.1678 35.8853C33.284 35.7842 33.3221 35.7266 33.2726 35.7266C33.2299 35.7266 33.1286 35.7825 33.0475 35.8508ZM45.2312 35.8119C45.2171 35.8348 45.2499 35.8813 45.3042 35.9152C45.3896 35.9685 45.4006 35.9655 45.3865 35.8924C45.3682 35.7981 45.2709 35.7477 45.2312 35.8119ZM60.9682 35.7836C60.9442 35.9418 60.9516 36.2637 60.9792 36.2637C61.108 36.2637 61.156 35.8282 61.0317 35.7873C60.9982 35.7763 60.9696 35.7746 60.9682 35.7836ZM60.7271 35.9457C60.6605 36.0259 60.7033 36.2108 60.7715 36.1376C60.8387 36.0655 60.8838 35.8731 60.8335 35.8731C60.8081 35.8731 60.7602 35.9057 60.7271 35.9457ZM45.7363 35.9736C45.7363 36.002 45.7583 36.0118 45.7851 35.9952C45.812 35.9785 45.834 35.9553 45.834 35.9434C45.834 35.9316 45.812 35.9219 45.7851 35.9219C45.7583 35.9219 45.7363 35.9452 45.7363 35.9736ZM25.7168 36.0684C25.7168 36.0952 25.7388 36.1172 25.7656 36.1172C25.7925 36.1172 25.8144 36.0952 25.8144 36.0684C25.8144 36.0415 25.7925 36.0196 25.7656 36.0196C25.7388 36.0196 25.7168 36.0415 25.7168 36.0684ZM45.3346 36.1683C45.2605 36.2986 45.2593 36.3199 45.3245 36.345C45.4248 36.3834 45.4582 36.3405 45.4634 36.1663C45.4689 35.9814 45.4408 35.9818 45.3346 36.1683ZM48.6271 36.2566C48.5765 36.2887 48.5789 36.3094 48.6393 36.3595C48.7034 36.4127 48.7148 36.4065 48.7148 36.3185C48.7148 36.2017 48.7142 36.2013 48.6271 36.2566ZM25.8928 36.9273C25.8764 36.97 25.8747 37.024 25.8891 37.0473C25.933 37.1183 26.0586 37.0404 26.0586 36.9421C26.0586 36.83 25.9344 36.8189 25.8928 36.9273ZM49.2031 36.9014C49.2031 36.9298 49.2251 36.9395 49.2519 36.9229C49.2788 36.9063 49.3008 36.883 49.3008 36.8712C49.3008 36.8593 49.2788 36.8496 49.2519 36.8496C49.2251 36.8496 49.2031 36.8729 49.2031 36.9014ZM46.3223 37.045C46.3223 37.0718 46.3442 37.0938 46.3711 37.0938C46.3979 37.0938 46.4199 37.0718 46.4199 37.045C46.4199 37.0181 46.3979 36.9961 46.3711 36.9961C46.3442 36.9961 46.3223 37.0181 46.3223 37.045ZM31.2344 37.1886C31.2344 37.2707 31.2563 37.3379 31.2832 37.3379C31.31 37.3379 31.332 37.2843 31.332 37.2187C31.332 37.1532 31.31 37.086 31.2832 37.0694C31.2547 37.0517 31.2344 37.1014 31.2344 37.1886ZM56.2586 37.143C56.2418 37.17 56.2635 37.2057 56.3066 37.2223C56.4001 37.2581 56.4522 37.2186 56.4073 37.1459C56.3667 37.0803 56.2981 37.0789 56.2586 37.143ZM33.4561 37.3135C33.5197 37.6856 33.5451 37.7774 33.5845 37.7774C33.6575 37.7774 33.6286 37.5661 33.5277 37.3623C33.4397 37.1845 33.4333 37.1802 33.4561 37.3135ZM24.1055 37.7041C24.1055 37.7444 24.1274 37.7774 24.1543 37.7774C24.1811 37.7774 24.2031 37.7444 24.2031 37.7041C24.2031 37.6639 24.1811 37.6309 24.1543 37.6309C24.1274 37.6309 24.1055 37.6639 24.1055 37.7041ZM48.0388 37.7449C47.9769 37.8108 47.9469 37.8775 47.9722 37.8932C48.0305 37.9292 48.1938 37.7525 48.1696 37.6796C48.1593 37.6487 48.1026 37.677 48.0388 37.7449ZM32.825 37.8411C32.7839 38.0321 32.8079 38.4882 32.8619 38.5422C32.8785 38.5589 32.9269 38.5437 32.9695 38.5084C33.0283 38.4596 33.0389 38.3966 33.014 38.2451C32.9959 38.1355 32.9636 38.024 32.9421 37.9971C32.9207 37.9702 32.8946 37.8824 32.8841 37.8018C32.8652 37.6564 32.8647 37.6567 32.825 37.8411ZM29.3789 37.7444C29.3789 37.7558 29.4785 37.9797 29.6002 38.2419C29.796 38.6638 29.8733 38.7701 30.2716 39.1653C30.5191 39.4109 30.7884 39.71 30.87 39.8299C30.9524 39.9512 31.0641 40.0545 31.1215 40.0629C31.2079 40.0754 31.2303 40.0455 31.258 39.8815C31.2763 39.7736 31.2771 39.6625 31.2599 39.6347C31.2427 39.6068 31.248 39.584 31.2717 39.584C31.2955 39.584 31.3472 39.6884 31.3867 39.816C31.4366 39.977 31.4975 40.0666 31.5857 40.1093C31.7758 40.201 31.8613 40.1389 31.946 39.8473C31.9881 39.7025 32.039 39.584 32.059 39.584C32.079 39.584 32.116 39.6994 32.141 39.8404C32.178 40.049 32.2047 40.0967 32.2842 40.0967C32.3531 40.0967 32.4177 40.0235 32.5039 39.8475C32.571 39.7104 32.6577 39.5601 32.6965 39.5136C32.7626 39.4344 32.7697 39.436 32.8082 39.54L32.8493 39.651L32.9573 39.5428C33.0534 39.4467 33.0642 39.3905 33.0544 39.0385C33.0483 38.8206 33.0333 38.6323 33.021 38.62C32.9534 38.5524 32.8945 38.6945 32.8945 38.9252C32.8945 39.1663 32.8808 39.1989 32.7312 39.313C32.6414 39.3815 32.5535 39.4375 32.5359 39.4375C32.4621 39.4375 32.5119 39.2977 32.6084 39.2336L32.7129 39.1641L32.5962 38.9846C32.4236 38.7189 32.3574 38.7156 32.3574 38.9724C32.3574 39.1397 32.3331 39.2049 32.2489 39.2639C32.1023 39.3665 32.0505 39.3596 32.1116 39.2454C32.2377 39.0097 32.1453 38.7806 31.9442 38.8311C31.8159 38.8633 31.8104 38.8762 31.8381 39.0781C31.8594 39.2338 31.8505 39.291 31.8047 39.291C31.6919 39.291 31.625 39.1771 31.625 38.9851C31.625 38.8079 31.6167 38.7973 31.4907 38.8118C31.3705 38.8256 31.3549 38.849 31.3414 39.0347C31.3218 39.3066 31.249 39.3 31.2074 39.0225C31.1793 38.8354 31.1578 38.8028 31.0622 38.8028C30.9693 38.8028 30.9443 38.8364 30.917 38.9981C30.8715 39.2672 30.7666 39.2482 30.7144 38.9615C30.6803 38.774 30.6512 38.7265 30.5627 38.7139C30.4301 38.6951 30.4193 38.7911 30.53 39.0051C30.5722 39.0868 30.5971 39.1634 30.5851 39.1753C30.5522 39.2082 30.3346 38.925 30.0132 38.4313C29.854 38.1868 29.6462 37.9275 29.5514 37.8551C29.4565 37.7828 29.3789 37.7329 29.3789 37.7444ZM33.238 37.9206C33.1627 38.0615 33.1767 38.1919 33.2768 38.2825C33.3259 38.3269 33.3798 38.3633 33.3965 38.3633C33.4209 38.3633 33.4158 38.0258 33.3889 37.8628C33.3773 37.7927 33.2882 37.8268 33.238 37.9206ZM33.4812 37.8599C33.4816 37.8817 33.5033 37.9324 33.5293 37.9727C33.5701 38.0358 33.5767 38.0345 33.5774 37.9634C33.5778 37.918 33.5561 37.8672 33.5293 37.8506C33.5024 37.834 33.4808 37.8382 33.4812 37.8599ZM24.081 38.0215C24.0644 38.0484 24.0742 38.0703 24.1026 38.0703C24.131 38.0703 24.1543 38.0484 24.1543 38.0215C24.1543 37.9947 24.1446 37.9727 24.1328 37.9727C24.1209 37.9727 24.0976 37.9947 24.081 38.0215ZM28.3896 38.4732C28.4051 38.7109 28.5011 39.116 28.6818 39.7061C29.0092 40.7753 29.0512 40.8832 29.3118 41.3246C29.4251 41.5165 29.5929 41.8351 29.6848 42.0326C29.858 42.4051 31.148 44.3788 31.3147 44.5263C31.3668 44.5724 31.6005 44.6997 31.834 44.8091C32.1516 44.9579 32.2803 44.9964 32.3451 44.9617C32.4615 44.8994 34.0302 43.2973 34.336 42.9285C34.4697 42.7671 34.7523 42.3606 34.9641 42.0251C35.1758 41.6896 35.391 41.3541 35.4424 41.2796C35.6506 40.9779 35.9219 40.3424 35.9219 40.1563C35.9219 39.932 35.8226 39.9279 35.7587 40.1495C35.7361 40.2279 35.6768 40.3689 35.6271 40.4629C35.5774 40.5569 35.4835 40.7437 35.4185 40.878C35.3535 41.0122 35.2396 41.177 35.1654 41.2442C35.0912 41.3113 34.967 41.5065 34.8893 41.6779C34.7941 41.8883 34.6327 42.1105 34.3926 42.3615C33.8171 42.9633 33.5768 43.2521 33.4555 43.4881C33.3927 43.6101 33.1218 43.9274 32.8535 44.1932L32.3657 44.6765L32.0773 44.6503C31.9186 44.6359 31.6981 44.5779 31.5872 44.5213C31.4163 44.4341 31.3514 44.3521 31.1597 43.9808C31.0353 43.7402 30.7753 43.3171 30.5818 43.0407C29.9753 42.1743 29.408 41.1667 29.1519 40.5011C28.7926 39.567 28.6023 38.9778 28.574 38.7113C28.5221 38.224 28.4968 38.1192 28.431 38.1192C28.3814 38.1192 28.3719 38.2007 28.3896 38.4732ZM34.0718 38.3872C33.8197 38.7608 33.8075 38.8374 34.0394 38.5905C34.1617 38.4604 34.2617 38.312 34.2617 38.2609C34.2617 38.1263 34.2367 38.1429 34.0718 38.3872ZM33.4904 38.3655C33.4576 38.418 33.4506 38.461 33.4748 38.461C33.5186 38.461 33.5941 38.3142 33.5652 38.2853C33.5568 38.2769 33.5232 38.313 33.4904 38.3655ZM24.5312 38.3795C24.4768 38.5179 24.4857 38.5885 24.5495 38.5247C24.5788 38.4954 24.5947 38.4306 24.5847 38.3807C24.5671 38.2933 24.5652 38.2932 24.5312 38.3795ZM33.2049 38.5837C33.1893 38.6243 33.2014 38.6874 33.2317 38.724C33.262 38.7605 33.2737 38.8316 33.2576 38.882C33.2299 38.9688 33.2325 38.9686 33.3056 38.8789C33.4069 38.7546 33.4085 38.5098 33.308 38.5098C33.2669 38.5098 33.2205 38.5431 33.2049 38.5837ZM38.3755 39.0304C38.2688 39.0734 38.3059 39.125 38.6904 39.4682C39.0338 39.7746 39.1085 39.8077 38.9052 39.5635C38.7604 39.3897 38.9695 39.5104 39.5306 39.9246C39.8225 40.1401 40.0803 40.3164 40.1034 40.3163C40.1648 40.3161 39.7561 39.9607 39.3887 39.6946C39.2141 39.5682 38.9346 39.3598 38.7675 39.2315C38.6004 39.1031 38.4576 38.9998 38.4501 39.0019C38.4426 39.004 38.4091 39.0169 38.3755 39.0304ZM25.1044 39.1478C25.0519 39.2328 25.1117 39.2509 25.1787 39.1702C25.2172 39.1238 25.2209 39.0957 25.1885 39.0957C25.16 39.0957 25.1221 39.1192 25.1044 39.1478ZM54.4738 39.5946C54.2487 39.8675 54.072 40.1211 54.1072 40.1211C54.137 40.1211 54.4154 39.8215 54.5799 39.6122C54.7532 39.392 54.6546 39.3756 54.4738 39.5946ZM25.2487 39.9653C24.4271 40.239 23.9959 40.4489 23.8905 40.6265C23.8457 40.7021 23.8609 40.7342 23.983 40.8219C24.288 41.0411 24.8629 41.6249 25.1307 41.9875C25.3976 42.3488 26.6455 43.6803 26.6435 43.6015C26.643 43.5807 26.5895 43.357 26.5248 43.1047C26.3934 42.5929 26.4721 42.6981 25.3756 41.5683L24.8135 40.9892L25.4238 41.4799C25.7595 41.7498 26.1275 42.0507 26.2417 42.1485C26.3559 42.2464 26.4492 42.3082 26.4491 42.2858C26.449 42.2635 26.4054 41.8387 26.3522 41.3418C26.299 40.845 26.2551 40.3244 26.2547 40.185L26.2539 39.9315L25.7965 40.1437C25.2736 40.3865 24.6402 40.6233 24.6058 40.589C24.5556 40.5388 25.2029 40.1711 25.6388 40.0021C26.0652 39.8369 26.3222 39.6772 26.15 39.6845C26.1132 39.6861 25.7076 39.8124 25.2487 39.9653ZM51.5967 40.0979C51.6307 40.1388 51.6685 40.1622 51.6808 40.15C51.7146 40.1161 51.6458 40.0235 51.5869 40.0235C51.5544 40.0235 51.5581 40.0515 51.5967 40.0979ZM52.5254 40.6803C52.493 40.7193 52.4747 40.7907 52.4847 40.839C52.4978 40.903 52.5181 40.8838 52.5594 40.7681C52.6217 40.5934 52.614 40.5735 52.5254 40.6803ZM28.0221 41.1465C27.9142 41.4855 27.8164 41.9209 27.7211 42.4872C27.6677 42.8046 27.6123 43.0758 27.5981 43.09C27.5839 43.1043 27.5721 42.9749 27.5718 42.8026C27.5713 42.3851 27.5198 41.9766 27.4678 41.9766C27.4447 41.9766 27.423 42.059 27.4197 42.1597L27.4136 42.3428L27.3745 42.1231C27.353 42.0022 27.3322 41.7715 27.3283 41.6104C27.3221 41.3516 27.2517 41.041 27.2287 41.1709C27.2239 41.1978 27.2169 41.9715 27.213 42.8902C27.2069 44.3549 27.1964 44.5703 27.1274 44.6395C27.055 44.712 27.0378 44.6995 26.9116 44.4827C26.6597 44.0497 25.6772 42.8138 25.3192 42.4795C25.0658 42.2429 25.9802 43.9443 26.6185 44.8973L27.2503 45.8405L27.2901 46.9414C27.3121 47.547 27.3118 48.4905 27.2894 49.0381C27.2403 50.2464 27.3412 52.7467 27.4591 53.2437C27.5027 53.4274 27.5624 53.3678 27.622 53.0809C27.6685 52.8565 27.6642 52.7301 27.5974 52.3668C27.5524 52.1218 27.5203 51.727 27.5253 51.4798C27.5302 51.2347 27.518 50.812 27.4982 50.5405C27.4756 50.2311 27.4873 49.7116 27.5294 49.1489C27.5664 48.6551 27.5897 47.9568 27.5812 47.5973C27.5597 46.6908 27.7663 44.0068 28.0166 41.9415C28.1197 41.0912 28.1214 40.8345 28.0221 41.1465ZM49.3277 41.0949C49.1999 41.2361 49.2566 41.3371 49.3893 41.2045C49.4983 41.0954 49.5289 41 49.4548 41C49.4321 41 49.3749 41.0427 49.3277 41.0949ZM28.6284 41.1852C28.6085 41.2172 28.6153 41.4083 28.6433 41.6098C28.6795 41.8702 28.6785 42.1213 28.6398 42.4769C28.5936 42.9003 28.5638 43.7341 28.5432 45.1748C28.5408 45.336 28.5411 45.7744 28.5438 46.1491C28.5466 46.544 28.5281 46.8508 28.4999 46.879C28.4731 46.9058 28.4527 46.9619 28.4546 47.0035C28.4572 47.0597 28.4672 47.0557 28.4939 46.9879C28.5177 46.9274 28.5591 47.0675 28.6165 47.4029C28.7396 48.1205 28.7468 48.1458 28.8106 48.082C28.849 48.0436 28.8659 47.177 28.8686 45.112C28.8721 42.4737 28.8638 42.1499 28.7821 41.708C28.6714 41.1094 28.6726 41.1136 28.6284 41.1852ZM50.3835 41.3083C50.2055 41.4979 50.2659 41.625 50.493 41.5387C50.5903 41.5017 50.6191 41.4569 50.6191 41.3431C50.6191 41.1642 50.5311 41.1513 50.3835 41.3083ZM35.9027 41.3214C35.8864 41.3639 35.8725 41.7099 35.8718 42.0905C35.8711 42.4709 35.8497 42.9965 35.8242 43.2584C35.7987 43.5203 35.7791 44.0696 35.7807 44.4791C35.7822 44.8886 35.782 45.3116 35.7803 45.419C35.7577 46.8266 35.8067 48.1796 35.9049 48.8612C35.9298 49.0341 35.9446 49.06 35.9746 48.9832C36.0285 48.8453 36.0289 45.2556 35.9751 45.0681C35.9476 44.9723 35.9489 44.8417 35.9783 44.7265C36.0548 44.4274 36.1073 42.9744 36.0618 42.416C36.0388 42.1341 36.0179 41.755 36.0153 41.5738C36.0108 41.2579 35.9658 41.157 35.9027 41.3214ZM47.5227 41.2807C47.5084 41.295 47.5085 41.3255 47.5227 41.3486C47.5569 41.4039 47.7383 41.403 47.7383 41.3475C47.7383 41.2973 47.561 41.2424 47.5227 41.2807ZM23.5866 41.7553L23.1898 42.2168L23.2041 42.6431C23.2184 43.0671 23.2194 43.0702 23.4056 43.245C23.6447 43.4693 24.2932 44.2212 24.6509 44.6889C25.046 45.2054 25.1301 45.4614 25.2096 46.3911C25.2868 47.2926 25.2689 49.4687 25.1799 50.0233C25.1352 50.3009 25.1357 50.3953 25.1821 50.4511C25.305 50.5992 25.3593 50.4355 25.3903 49.8243C25.4072 49.4904 25.4539 49.1302 25.4955 49.0122C25.5861 48.7554 25.5897 48.3851 25.513 47.1973C25.4743 46.5984 25.4699 46.1918 25.5001 46.0013C25.5662 45.5848 25.6575 45.593 25.9167 46.0387C26.1735 46.4801 26.4327 46.8318 26.6635 47.0521C26.8581 47.2378 26.8918 47.2075 26.7422 46.9815C26.6888 46.9009 26.645 46.798 26.6449 46.7529C26.6447 46.7077 26.5804 46.6251 26.502 46.5693C26.3996 46.4963 26.311 46.3435 26.1866 46.0245C26.0466 45.6658 25.9044 45.435 25.4418 44.8164C25.1274 44.3959 24.6486 43.7995 24.3779 43.4911L23.8857 42.9305L24.4736 43.4251C25.1516 43.9955 25.561 44.4188 25.891 44.8905C26.2703 45.4325 26.3602 45.5487 26.383 45.5259C26.4078 45.5011 25.8614 44.1159 25.7076 43.8133C25.6513 43.7028 25.3063 43.1324 24.9408 42.5458L24.2764 41.4792L23.9424 41.8378C23.5964 42.2092 23.5914 42.1328 23.9307 41.6594C24.0268 41.5252 24.1055 41.3878 24.1055 41.3542C24.1055 41.2092 23.9583 41.323 23.5866 41.7553ZM54.6963 41.4883C54.6797 41.5152 54.6894 41.5371 54.7178 41.5371C54.7462 41.5371 54.7695 41.5152 54.7695 41.4883C54.7695 41.4615 54.7599 41.4395 54.748 41.4395C54.7361 41.4395 54.7129 41.4615 54.6963 41.4883ZM51.9863 41.586C51.9863 41.6128 52.007 41.6348 52.0323 41.6348C52.0576 41.6348 52.0918 41.6128 52.1084 41.586C52.125 41.5591 52.1043 41.5371 52.0624 41.5371C52.0206 41.5371 51.9863 41.5591 51.9863 41.586ZM35.1102 42.3018C34.7807 42.9185 34.6696 43.0783 34.335 43.417C34.1201 43.6345 33.6386 44.1452 33.2649 44.552C32.8913 44.9589 32.5237 45.3173 32.4481 45.3486C32.3711 45.3805 32.2299 45.3921 32.1266 45.375C32.0253 45.3583 31.8832 45.3451 31.811 45.3457C31.712 45.3466 31.5847 45.2535 31.2943 44.9679C30.8245 44.5057 30.6032 44.1956 29.9787 43.1241C29.18 41.7535 29.1185 41.6606 28.9995 41.6436C28.8434 41.6213 28.8595 41.7412 29.0562 42.0679C29.1472 42.2191 29.3155 42.5296 29.4301 42.7578L29.6384 43.1729L29.5834 43.7588C29.5484 44.1324 29.5435 44.5129 29.5699 44.8086C29.5927 45.0638 29.6001 46.448 29.5864 47.8848C29.5655 50.0663 29.5744 50.626 29.6402 51.2784C29.6921 51.794 29.7162 52.4498 29.7109 53.2071C29.7032 54.3057 29.7298 54.6719 29.8176 54.6719C29.8397 54.6719 29.8581 54.3478 29.8584 53.9517C29.859 53.2655 29.9145 47.3358 29.9276 46.5664C29.931 46.365 29.9172 45.6619 29.8969 45.0039C29.8725 44.2112 29.8768 43.7834 29.9098 43.7358C29.9705 43.6482 29.9392 43.6126 30.3043 44.1846L30.6072 44.6591L30.5966 46.2842C30.5908 47.1779 30.6025 47.9914 30.6226 48.0919C30.6427 48.1923 30.6622 49.7238 30.666 51.4952C30.6713 53.9758 30.6867 54.7297 30.733 54.7761C30.7662 54.8092 30.8101 54.8194 30.8307 54.7988C30.8513 54.7782 30.8602 53.966 30.8506 52.9939C30.836 51.5308 30.8462 51.1595 30.9098 50.8374C30.972 50.5227 30.983 50.1868 30.9674 49.0811C30.9569 48.3291 30.9395 47.604 30.9289 47.4698C30.8493 46.4646 30.8329 45.4776 30.8928 45.2962C30.9281 45.1891 30.9736 45.1016 30.9939 45.1016C31.0142 45.1016 31.1177 45.2003 31.2239 45.321L31.417 45.5404L31.4441 46.7492C31.459 47.414 31.4948 48.1072 31.5237 48.2894C31.5527 48.4724 31.5852 49.5871 31.5962 50.7796C31.6072 51.967 31.6317 52.988 31.6507 53.0484C31.7542 53.3775 31.8505 52.9597 31.7928 52.4319C31.7704 52.2271 31.7595 51.8618 31.7685 51.6201C31.7908 51.0278 31.7897 48.1466 31.7668 47.1768C31.7567 46.7471 31.7659 46.2911 31.7873 46.1636C31.8259 45.9341 31.8282 45.9317 32.0134 45.9317C32.236 45.9317 32.2598 45.9746 32.2598 46.3772C32.2598 46.5372 32.2962 46.8376 32.3408 47.0446C32.3854 47.2515 32.4175 47.5857 32.4122 47.7871C32.3924 48.5422 32.3974 48.8007 32.4409 49.2631C32.4654 49.5244 32.4996 49.7523 32.517 49.7696C32.5343 49.787 32.5838 49.7876 32.6269 49.7711C32.687 49.748 32.7044 49.6753 32.7016 49.4598C32.6995 49.3053 32.7146 48.7102 32.7351 48.1376C32.7557 47.565 32.7544 47.0487 32.7323 46.9902C32.7102 46.9317 32.6803 46.6092 32.6658 46.2735L32.6394 45.6631L32.968 45.2823C33.2766 44.9246 33.4054 44.8281 33.2924 45.0392C33.249 45.1202 33.2263 46.0078 33.2451 46.8838C33.2485 47.045 33.2359 47.6053 33.2169 48.1289C33.198 48.6526 33.182 49.5974 33.1812 50.2285C33.1801 51.2642 33.1915 51.429 33.2984 51.9201C33.3636 52.2194 33.4012 52.4941 33.382 52.5305C33.3249 52.6386 33.2841 53.2747 33.3295 53.3473C33.3526 53.3841 33.4011 53.4044 33.4372 53.3924C33.4916 53.3743 33.5031 52.6224 33.5039 49.0243L33.5049 44.6783L33.6477 44.4721C33.7711 44.294 34.0089 44.0762 34.0799 44.0762C34.1604 44.0762 34.1855 44.9734 34.1869 47.8945C34.1881 50.4562 34.2021 51.2138 34.249 51.2607C34.2971 51.3088 34.3032 51.1968 34.2788 50.7139C34.2598 50.3383 34.2684 50.0118 34.3014 49.8586C34.3308 49.7222 34.3686 48.9752 34.3857 48.1984C34.4028 47.4187 34.4457 46.6105 34.4814 46.394C34.5315 46.0898 34.5365 45.7393 34.5032 44.8315C34.4546 43.5012 34.4372 43.5756 34.8903 43.1706L35.1039 42.9796L35.0726 44.2237C35.028 46.0014 35.0285 46.5832 35.0754 47.4942C35.0983 47.9373 35.0986 48.5965 35.0761 48.959C35.0199 49.8657 35.0707 52.6369 35.1461 52.778L35.204 52.8861L35.2502 52.7658C35.3124 52.604 35.3757 47.3231 35.3324 45.9073C35.3209 45.5313 35.3304 44.5645 35.3535 43.7588C35.3933 42.3699 35.4015 42.2805 35.5116 42.0329C35.6125 41.8063 35.619 41.7593 35.5613 41.6769C35.5003 41.5898 35.4634 41.6409 35.1102 42.3018ZM52.2549 42.2696C52.2383 42.2964 52.248 42.3184 52.2764 42.3184C52.3048 42.3184 52.3281 42.2964 52.3281 42.2696C52.3281 42.2427 52.3185 42.2207 52.3066 42.2207C52.2947 42.2207 52.2715 42.2427 52.2549 42.2696ZM29.0859 42.6631C29.0859 42.7183 29.1079 42.75 29.1348 42.7334C29.1616 42.7168 29.1836 42.6716 29.1836 42.6329C29.1836 42.5942 29.1616 42.5625 29.1348 42.5625C29.1079 42.5625 29.0859 42.6078 29.0859 42.6631ZM40.9749 42.7277C40.7342 42.8911 40.4619 43.1485 40.5298 43.1485C40.6132 43.1485 41.293 42.651 41.267 42.6089C41.2297 42.5485 41.2532 42.5389 40.9749 42.7277ZM55.2446 42.6409C55.225 42.6604 55.2097 42.7223 55.2104 42.7782C55.2118 42.8721 55.2159 42.8732 55.2627 42.7926C55.3174 42.6988 55.3034 42.5821 55.2446 42.6409ZM40.9747 43.0841C40.2872 43.547 39.2989 44.4338 38.8622 44.9795C38.7119 45.1675 38.5181 45.3982 38.4316 45.4922C38.1628 45.7843 37.7857 46.5575 37.654 47.0866C37.5273 47.5957 37.506 47.7871 37.5761 47.7871C37.6534 47.7871 37.7281 47.6586 37.8914 47.2439C38.0826 46.7588 38.4312 46.1703 38.9986 45.3751C39.427 44.7745 39.7779 44.4291 40.5012 43.8959C41.0957 43.4576 41.2441 43.3015 41.2441 43.1141C41.2441 43.0256 41.2272 42.9532 41.2066 42.9532C41.186 42.9532 41.0816 43.0121 40.9747 43.0841ZM28.3142 43.5147C28.3152 43.5952 28.3261 43.6223 28.3385 43.5748C28.3509 43.5273 28.3501 43.4614 28.3367 43.4283C28.3233 43.3953 28.3132 43.4341 28.3142 43.5147ZM38.4666 44.2078C37.8836 44.866 37.7297 45.1228 37.8205 45.2852C37.8512 45.3399 37.8991 45.3079 38.0327 45.1433C38.3041 44.8087 39.1508 43.5391 39.1025 43.5391C39.0785 43.5391 38.7924 43.84 38.4666 44.2078ZM23.2553 43.7916C23.2374 43.9037 23.1553 44.1491 23.0728 44.337L22.9228 44.6786L23.3071 45.0488C23.5185 45.2524 23.7701 45.5398 23.8663 45.6875C24.6258 46.854 25.0147 47.3825 25.0717 47.3254C25.0866 47.3106 25.0525 47.2491 24.996 47.1888C24.8649 47.0488 24.7145 46.6971 24.5969 46.2549C24.546 46.0637 24.4284 45.7425 24.3355 45.541C24.2427 45.3396 24.1175 45.0244 24.0573 44.8407C23.9972 44.6569 23.8877 44.4372 23.8142 44.3524C23.6451 44.1577 23.5684 44.0121 23.5684 43.886C23.5684 43.7943 23.3973 43.5879 23.3212 43.5879C23.3029 43.5879 23.2732 43.6796 23.2553 43.7916ZM43.7439 44.4912C43.7449 44.5718 43.7558 44.5989 43.7682 44.5514C43.7806 44.5038 43.7798 44.4379 43.7664 44.4049C43.753 44.3718 43.7429 44.4107 43.7439 44.4912ZM40.7898 45.3091C40.8047 45.6113 40.8323 45.8755 40.8511 45.8963C40.87 45.9172 40.9266 45.7688 40.9768 45.5667C41.0714 45.1871 41.1141 45.1386 41.225 45.2847C41.2861 45.3652 41.2899 45.3647 41.2914 45.2764C41.2929 45.1844 40.895 44.7598 40.8072 44.7598C40.7814 44.7598 40.774 44.9906 40.7898 45.3091ZM51.1562 44.9551C51.1562 44.982 51.1905 45.0039 51.2324 45.0039C51.2742 45.0039 51.2949 44.982 51.2783 44.9551C51.2617 44.9283 51.2275 44.9063 51.2022 44.9063C51.1769 44.9063 51.1562 44.9283 51.1562 44.9551ZM36.2637 45.1016C36.2637 45.1285 36.2856 45.1504 36.3125 45.1504C36.3393 45.1504 36.3613 45.1285 36.3613 45.1016C36.3613 45.0747 36.3393 45.0528 36.3125 45.0528C36.2856 45.0528 36.2637 45.0747 36.2637 45.1016ZM40.0437 45.1626C40.0243 45.223 39.9911 45.3933 39.9698 45.541C39.9327 45.7988 39.9318 45.7952 39.9465 45.4536C39.9633 45.0637 39.919 45.0236 39.7726 45.2966C39.696 45.4395 39.6845 45.5786 39.6883 46.3194C39.6907 46.791 39.6765 47.4006 39.6567 47.6742C39.6206 48.1722 39.6445 48.4219 39.7281 48.4219C39.7526 48.4219 39.7873 48.3758 39.8053 48.3193C39.8232 48.2629 39.854 48.2354 39.8739 48.2583C39.9354 48.3291 40.1347 48.9208 40.1921 49.2032C40.2366 49.4218 40.2667 49.4746 40.354 49.4872C40.4609 49.5027 40.4611 49.5009 40.432 48.8768C40.4097 48.3994 40.3745 48.167 40.2833 47.8967C40.167 47.5518 40.1642 47.5096 40.1791 46.2975C40.1905 45.3634 40.1799 45.0527 40.1366 45.0527C40.1048 45.0528 40.063 45.1022 40.0437 45.1626ZM22.8848 45.441C22.8848 45.8618 22.9583 46.2173 23.1177 46.5664C23.2488 46.8535 23.2761 47.2025 23.2039 47.6651C23.1558 47.9735 23.2032 47.9321 23.4728 47.4301C23.6331 47.1318 23.6832 46.9804 23.7029 46.7353L23.7281 46.4219L23.4284 45.9785C23.2636 45.7346 23.1042 45.4375 23.0742 45.3183C22.9864 44.9696 22.8848 45.0354 22.8848 45.441ZM53.718 45.3396C53.7524 45.5909 53.8279 45.7507 53.8931 45.7104C53.9814 45.6558 53.9384 45.4183 53.8139 45.2725L53.6888 45.126L53.718 45.3396ZM26.8351 45.7664C26.7785 45.8347 26.7821 45.8429 26.8618 45.8274C26.9124 45.8176 26.963 45.7822 26.9741 45.7486C27.0031 45.6615 26.9126 45.6731 26.8351 45.7664ZM30.2212 45.8663C30.1876 45.8799 30.1601 45.9237 30.1601 45.9638C30.1601 46.0649 30.3258 46.025 30.3463 45.9189C30.3627 45.8334 30.3334 45.8211 30.2212 45.8663ZM41.0663 46.2006C41.036 46.2796 41.1682 46.5176 41.2424 46.5176C41.3329 46.5176 41.3438 46.4191 41.2693 46.2749C41.1857 46.1134 41.1104 46.0858 41.0663 46.2006ZM39.2269 46.3711C39.209 46.4383 39.1766 46.6031 39.1548 46.7373C39.1195 46.9551 39.1029 46.9801 39.001 46.9686C38.89 46.9562 38.8877 46.9635 38.9192 47.2314C38.9554 47.5392 38.9887 47.6131 39.0957 47.623C39.136 47.6267 39.2074 47.6456 39.2544 47.6649C39.3325 47.6969 39.3394 47.6587 39.3355 47.2186C39.3302 46.6193 39.2752 46.1901 39.2269 46.3711ZM38.9542 46.4106C38.9211 46.4724 38.9028 46.5492 38.9135 46.5812C38.9245 46.6142 38.9589 46.5907 38.993 46.527C39.0261 46.4651 39.0445 46.3884 39.0338 46.3563C39.0228 46.3234 38.9883 46.3469 38.9542 46.4106ZM29.1348 46.4932C29.1002 46.5348 29.083 46.5798 29.0964 46.5932C29.1099 46.6066 29.1491 46.5836 29.1836 46.542C29.2181 46.5004 29.2353 46.4555 29.2219 46.442C29.2085 46.4286 29.1693 46.4516 29.1348 46.4932ZM31.9678 46.7362C31.9292 46.7826 31.9255 46.8106 31.9579 46.8106C32.0169 46.8106 32.0857 46.718 32.0519 46.6841C32.0396 46.6718 32.0017 46.6952 31.9678 46.7362ZM24.0685 47.1402C24.0148 47.2677 23.943 47.46 23.909 47.5674C23.875 47.6748 23.7515 47.945 23.6346 48.1677C23.389 48.6352 23.3603 48.91 23.5121 49.341C23.5903 49.5632 23.6108 49.587 23.6661 49.5204C23.7194 49.4562 23.7117 49.4049 23.619 49.2071C23.4871 48.9253 23.5046 48.8451 23.8504 48.1534C24.1079 47.6383 24.2519 47.2413 24.2519 47.0471C24.2519 46.8412 24.1789 46.8783 24.0685 47.1402ZM46.491 47.1402C46.5265 47.2858 46.6921 47.4824 46.7393 47.4351C46.781 47.3935 46.5751 47.0059 46.5113 47.0059C46.4779 47.0059 46.4704 47.0559 46.491 47.1402ZM50.2934 47.5502C50.239 47.6179 50.1153 48.0291 50.0642 48.312C50.0337 48.4813 50.0994 48.7134 50.195 48.7742C50.3005 48.8413 50.4562 48.8139 50.5483 48.7122C50.7054 48.5387 50.6335 47.8387 50.4333 47.5914C50.3623 47.5037 50.3368 47.4962 50.2934 47.5502ZM28.7267 48.2504C28.6723 48.3923 28.635 48.8092 28.6659 48.932C28.6984 49.0617 28.8158 49.1017 28.8524 48.9956C28.864 48.9621 28.864 48.7643 28.8523 48.5562C28.8322 48.1968 28.7883 48.0899 28.7267 48.2504ZM61.6188 48.7007C61.5486 48.808 61.5322 48.9393 61.5322 49.3965C61.5322 49.8961 61.5528 50.0347 61.7138 50.6192C61.8137 50.9817 61.9303 51.553 61.9728 51.8887C62.0627 52.597 62.0884 52.7188 62.1478 52.7188C62.254 52.7188 62.1522 51.7226 61.8438 49.7454C61.7625 49.2246 61.7091 48.7467 61.7249 48.6834C61.763 48.5318 61.7253 48.5379 61.6188 48.7007ZM35.8726 49.3618C35.8724 49.4492 35.8583 49.6359 35.8414 49.7769C35.816 49.9881 35.8238 50.0332 35.8855 50.0332C35.9471 50.0332 35.96 49.9595 35.9585 49.6182C35.9575 49.3899 35.9378 49.2032 35.9148 49.2032C35.8918 49.2032 35.8728 49.2745 35.8726 49.3618ZM44.2722 49.62C44.2736 49.704 44.3628 49.8117 44.4002 49.7743C44.4202 49.7543 44.3994 49.7008 44.354 49.6554C44.3086 49.61 44.2718 49.594 44.2722 49.62ZM58.6835 49.8857C58.6482 49.9869 58.6484 50.0408 58.6842 50.0628C58.7494 50.1032 58.8205 49.993 58.8215 49.8501C58.8225 49.6938 58.7433 49.7142 58.6835 49.8857ZM58.9982 49.9156C58.9576 50.0216 59.0175 50.1118 59.0718 50.0263C59.1267 49.9394 59.1267 49.8379 59.0716 49.8379C59.0476 49.8379 59.0146 49.8729 58.9982 49.9156ZM44.8781 50.2408C44.925 50.5352 45.0248 50.668 45.1991 50.668C45.3098 50.668 45.3607 50.6341 45.4189 50.5215C45.4606 50.441 45.5258 50.375 45.5639 50.375C45.6558 50.375 45.7962 50.1713 45.7418 50.1169C45.7179 50.093 45.6426 50.1314 45.5686 50.2054C45.4512 50.3228 45.4292 50.3288 45.3551 50.2639C45.2502 50.1721 44.9778 50.0332 44.9024 50.0332C44.8622 50.0332 44.8548 50.0953 44.8781 50.2408ZM44.1606 50.1623C44.1467 50.1853 44.1659 50.2325 44.2034 50.2671C44.2788 50.3368 44.2933 50.2897 44.228 50.1867C44.2049 50.1503 44.1746 50.1393 44.1606 50.1623ZM36.8938 50.7046C36.8567 50.9968 36.8596 51.4981 36.8983 51.4981C36.9272 51.4981 36.9473 51.3276 36.9473 51.083C36.9473 50.8548 36.9363 50.668 36.9228 50.668C36.9094 50.668 36.8963 50.6845 36.8938 50.7046ZM38.7704 51.0779C38.8747 51.2371 39.0469 51.7589 39.0469 51.9159V52.0439L38.8966 51.9175C38.6149 51.6804 38.3366 51.7077 38.0937 51.9964C37.8259 52.3148 37.9968 52.6913 38.5331 52.9643C38.8204 53.1106 38.8897 53.1717 38.9909 53.3684L39.1102 53.6002L39.1949 53.411C39.2907 53.1972 39.4516 53.0699 39.7977 52.9342C39.9287 52.8828 40.099 52.7787 40.1761 52.7028C40.4893 52.3946 40.2762 51.791 39.8541 51.791C39.6573 51.791 39.5191 51.8488 39.352 52.001C39.2457 52.0978 39.2422 52.098 39.2428 52.0071C39.2434 51.9269 39.4435 51.3175 39.5582 51.0464C39.5912 50.9686 39.5542 50.961 39.1441 50.961H38.6938L38.7704 51.0779ZM44.7484 51.0668C44.7768 51.0952 44.8288 51.1088 44.8641 51.0971C44.9007 51.0849 44.8785 51.0628 44.8125 51.0455C44.7313 51.0243 44.7122 51.0306 44.7484 51.0668ZM28.5 51.2051C28.5 51.232 28.5329 51.2539 28.5732 51.2539C28.6135 51.2539 28.6465 51.232 28.6465 51.2051C28.6465 51.1783 28.6135 51.1563 28.5732 51.1563C28.5329 51.1563 28.5 51.1783 28.5 51.2051ZM43.8809 51.5498C43.8809 51.7997 43.8987 51.9323 43.9297 51.9131C43.9565 51.8965 43.9785 51.7195 43.9785 51.5196C43.9785 51.3099 43.9579 51.1563 43.9297 51.1563C43.9012 51.1563 43.8809 51.32 43.8809 51.5498ZM52.5042 51.4207C52.5205 51.4633 52.5553 51.4981 52.5815 51.4981C52.6457 51.4981 52.6056 51.3871 52.5326 51.3628C52.4969 51.3509 52.486 51.3732 52.5042 51.4207ZM59.2129 51.4265C59.2129 51.441 59.2455 51.5025 59.2854 51.5635C59.3691 51.6912 59.5547 52.2111 59.5547 52.318C59.5547 52.3635 59.5173 52.3427 59.4535 52.2615C59.3722 52.1582 59.311 52.1328 59.1427 52.1328C58.7969 52.1328 58.5293 52.4208 58.5293 52.7928C58.5293 53.0376 58.5837 53.1232 59.0449 53.6041C59.2672 53.8359 59.4986 54.1216 59.559 54.2388L59.6688 54.4522L59.708 54.3057C59.7512 54.1445 60.1338 53.6635 60.3534 53.4945C60.4301 53.4354 60.5565 53.2993 60.6342 53.1921C60.862 52.8776 60.808 52.4103 60.5206 52.2091C60.3597 52.0963 59.9821 52.109 59.8718 52.2308C59.823 52.2847 59.7748 52.3204 59.7646 52.3102C59.7369 52.2825 59.9747 51.6708 60.0694 51.5263L60.1518 51.4004H59.6824C59.4242 51.4004 59.2129 51.4122 59.2129 51.4265ZM34.2129 51.5684C34.2129 51.6371 34.2349 51.6934 34.2617 51.6934C34.2886 51.6934 34.3105 51.6508 34.3105 51.5986C34.3105 51.5465 34.2886 51.4903 34.2617 51.4737C34.234 51.4565 34.2129 51.4976 34.2129 51.5684ZM28.2549 51.6701C28.2209 51.7111 28.2083 51.7598 28.2268 51.7783C28.2676 51.819 28.4134 51.7336 28.4401 51.6533C28.468 51.5698 28.3275 51.5826 28.2549 51.6701ZM36.115 52.1598C36.0709 52.213 36.0681 52.2498 36.1052 52.2869C36.1678 52.3495 36.2637 52.3006 36.2637 52.2061C36.2637 52.1017 36.1838 52.0769 36.115 52.1598ZM43.4955 52.567C43.3623 52.7002 43.3258 52.8649 43.3613 53.1727C43.3774 53.3124 43.4043 53.5486 43.4212 53.6975C43.4397 53.8616 43.4217 54.1502 43.3755 54.43C43.2799 55.0081 43.178 56.715 43.2214 57.0127C43.2957 57.5235 43.8115 58.1682 44.3447 58.417L44.6377 58.5537L45.8053 58.5394C46.4845 58.531 47.1205 58.5474 47.3259 58.5785C47.6162 58.6225 47.756 58.6177 48.1115 58.551C48.3977 58.4973 48.6925 58.4774 48.9834 58.492C49.3621 58.5109 49.4802 58.54 49.8379 58.702C50.1497 58.8433 50.3345 58.8951 50.581 58.9104C50.8815 58.9291 50.9428 58.915 51.3108 58.7423C51.7918 58.5166 51.9556 58.5102 52.4937 58.6965C52.858 58.8226 53.5776 58.9152 54.2202 58.9188C54.4767 58.9202 54.4934 58.8373 54.2446 58.7972C53.5914 58.6919 53.2217 58.5962 52.792 58.4212C51.8946 58.0558 51.458 58.0061 50.9516 58.2119C50.7863 58.2791 50.5599 58.334 50.4484 58.334C50.337 58.334 50.0622 58.2791 49.8379 58.2119C49.358 58.0683 48.7047 58.0479 48.2754 58.1631C47.7923 58.2928 47.6634 58.2682 47.1252 57.9442C46.4738 57.552 46.2445 57.5016 45.7459 57.6413C45.5392 57.6993 45.3108 57.76 45.2384 57.7764C45.0568 57.8175 44.7809 57.7172 44.6629 57.5671C44.5009 57.3612 44.5362 57.2305 44.833 56.9361C44.9807 56.7895 45.1016 56.6494 45.1016 56.6246C45.1016 56.5398 44.7977 56.2336 44.6857 56.2054C44.6221 56.1895 44.5242 56.2098 44.4592 56.2523C44.3718 56.3096 44.2995 56.3171 44.1532 56.2841C43.89 56.2247 43.7317 56.0946 43.5916 55.8223C43.4751 55.5959 43.474 55.5824 43.5354 55.1438C43.5699 54.8977 43.6505 54.5315 43.7144 54.3301C43.8617 53.8667 43.8613 53.701 43.7125 53.4075C43.564 53.1143 43.5009 52.7015 43.5886 52.5958C43.6856 52.4789 43.6078 52.4548 43.4955 52.567ZM35.1219 53.0484C35.0788 53.1934 35.0937 53.7618 35.1393 53.7148C35.1901 53.6624 35.2285 52.9627 35.1805 52.9628C35.1622 52.9629 35.1358 53.0014 35.1219 53.0484ZM31.6767 53.3535C31.6359 53.5986 31.6317 54.1836 31.6708 54.1836C31.7506 54.1836 31.7572 54.1212 31.7226 53.6953C31.7041 53.4671 31.6834 53.3133 31.6767 53.3535ZM27.4565 53.5122C27.4114 53.6806 27.4203 53.8418 27.4746 53.8418C27.5015 53.8418 27.5234 53.743 27.5234 53.6221C27.5234 53.3802 27.5016 53.3442 27.4565 53.5122ZM55.1601 53.8145C55.1601 53.8564 55.1821 53.8907 55.209 53.8907C55.2358 53.8907 55.2578 53.87 55.2578 53.8447C55.2578 53.8194 55.2358 53.7852 55.209 53.7686C55.1821 53.752 55.1601 53.7727 55.1601 53.8145ZM27.4258 54.1104C27.4258 54.2312 27.4477 54.3301 27.4746 54.3301C27.5015 54.3301 27.5234 54.2312 27.5234 54.1104C27.5234 53.9895 27.5015 53.8907 27.4746 53.8907C27.4477 53.8907 27.4258 53.9895 27.4258 54.1104ZM38.0064 54.0215C37.8859 54.0414 37.8711 54.0627 37.8844 54.1974C37.8957 54.3132 37.9283 54.3575 38.0174 54.3783C38.125 54.4034 38.175 54.5314 38.581 55.8206L39.0266 57.2354L39.2298 57.2503L39.433 57.2652L39.5363 56.9085C39.5931 56.7123 39.6622 56.4969 39.6899 56.4297C39.7176 56.3626 39.7489 56.2417 39.7595 56.1612C39.7701 56.0806 39.8844 55.6521 40.0135 55.209C40.238 54.4388 40.2541 54.4027 40.38 54.3879C40.4935 54.3746 40.5117 54.35 40.5117 54.2105C40.5117 54.0838 40.4878 54.0421 40.4018 54.0191C40.2586 53.9807 39.809 53.98 39.71 54.018C39.6078 54.0572 39.6046 54.3712 39.706 54.4101C39.7813 54.439 39.7987 54.5703 39.7508 54.7486C39.7296 54.8276 39.6181 54.882 39.2397 54.9979L38.7557 55.1462L38.6571 54.8828C38.5331 54.5515 38.5329 54.4458 38.6562 54.4136C38.731 54.3941 38.7539 54.347 38.7539 54.2126C38.7539 54.0539 38.7411 54.0371 38.6196 54.0366C38.5458 54.0363 38.4084 54.0277 38.3144 54.0174C38.2204 54.0072 38.0818 54.009 38.0064 54.0215ZM58.3665 54.558C58.3486 54.5759 58.334 54.6626 58.334 54.7506C58.334 54.8755 58.3626 54.9247 58.4641 54.9744C58.5801 55.0313 58.63 55.1535 58.9288 56.1123C59.113 56.7032 59.3084 57.3361 59.3632 57.5188L59.4627 57.8511L59.6674 57.8362L59.8721 57.8213L60.0918 57.0846C60.2126 56.6794 60.3982 56.049 60.5042 55.6837C60.672 55.1056 60.7117 55.0158 60.8111 54.9908C60.9651 54.9522 61.0477 54.767 60.9731 54.6276C60.9201 54.5285 60.8862 54.5229 60.4187 54.536L59.9209 54.5498V54.7451C59.9209 54.9009 59.9432 54.9502 60.0308 54.9887C60.1553 55.0433 60.1625 55.0829 60.087 55.2994L60.0334 55.4532H59.6332H59.2331L59.1799 55.2541C59.13 55.0671 59.1339 55.0519 59.2443 55.0016C59.3844 54.9378 59.4375 54.769 59.3618 54.6276C59.3123 54.5351 59.2639 54.5254 58.8531 54.5254C58.6034 54.5254 58.3844 54.5401 58.3665 54.558ZM29.7729 55.0015C29.7711 55.0888 29.7915 55.1602 29.8183 55.1602C29.8763 55.1602 29.8763 55.0754 29.8183 54.9405C29.7832 54.8586 29.7758 54.8685 29.7729 55.0015ZM30.7339 54.9443C30.7137 54.9645 30.6973 55.1576 30.6973 55.3734C30.6973 55.6461 30.7128 55.7501 30.7483 55.7146C30.7777 55.6852 30.7932 55.5034 30.7849 55.2855C30.777 55.0775 30.754 54.924 30.7339 54.9443ZM56.5273 54.9893C56.5273 55.0296 56.5493 55.0625 56.5762 55.0625C56.603 55.0625 56.625 55.0296 56.625 54.9893C56.625 54.949 56.603 54.916 56.5762 54.916C56.5493 54.916 56.5273 54.949 56.5273 54.9893ZM61.8056 55.0431C61.6677 55.2184 61.6338 55.4505 61.6827 55.8868C61.7606 56.5831 61.7343 56.882 61.5646 57.2266C61.3616 57.639 60.9762 57.9997 60.507 58.2165C60.0615 58.4223 59.8885 58.46 59.7137 58.3894C59.5746 58.3332 59.1808 58.2808 58.151 58.1815C57.5852 58.1269 57.529 58.1298 57.108 58.235C56.6717 58.3441 56.6576 58.3446 56.3805 58.2607C56.0843 58.171 55.9815 58.1729 55.0536 58.2851C54.6943 58.3285 54.4775 58.3287 54.1503 58.2858C53.9135 58.2547 53.6241 58.2168 53.5073 58.2015C53.3179 58.1767 53.2967 58.1838 53.312 58.2661C53.3214 58.3169 53.417 58.4024 53.5244 58.4561C53.7007 58.5442 53.8198 58.5539 54.7451 58.5557C55.5624 58.5574 55.8484 58.5759 56.1546 58.6473C56.5757 58.7456 56.9423 58.734 57.5039 58.6045C57.8892 58.5157 58.6327 58.5096 59.6655 58.5867C60.3572 58.6384 60.4623 58.6357 60.6996 58.561C61.26 58.3843 61.813 57.8178 62.0286 57.1994C62.1034 56.9848 62.1182 56.7885 62.1182 56.0101C62.1182 55.2917 62.1028 55.0592 62.0512 54.9969C61.9604 54.8874 61.9225 54.8945 61.8056 55.0431ZM39.2422 55.356C38.8148 55.5151 38.8257 55.4661 39.0545 56.2027C39.1888 56.6348 39.2132 56.6805 39.2527 56.5748C39.3164 56.4039 39.6336 55.2421 39.6198 55.2299C39.6135 55.2243 39.4436 55.2811 39.2422 55.356ZM23.6416 55.5508C23.6582 55.5777 23.6814 55.5996 23.6933 55.5996C23.7052 55.5996 23.7148 55.5777 23.7148 55.5508C23.7148 55.524 23.6915 55.502 23.6631 55.502C23.6347 55.502 23.625 55.524 23.6416 55.5508ZM59.4973 56.3816C59.5657 56.6237 59.6381 56.805 59.6582 56.7844C59.6927 56.7493 59.8965 56.0603 59.8965 55.979C59.8965 55.9584 59.7787 55.9414 59.6347 55.9414H59.3729L59.4973 56.3816ZM45.6912 56.8639C45.5708 57.033 45.5662 57.0645 45.6618 57.0645C45.7484 57.0645 45.9019 56.7891 45.8375 56.7493C45.8128 56.734 45.747 56.7856 45.6912 56.8639ZM45.9805 57.165C45.9805 57.1934 46.0024 57.2032 46.0293 57.1866C46.0561 57.17 46.0781 57.1467 46.0781 57.1348C46.0781 57.123 46.0561 57.1133 46.0293 57.1133C46.0024 57.1133 45.9805 57.1366 45.9805 57.165ZM49.875 57.303C49.806 57.3805 49.7223 57.453 49.6892 57.464C49.6495 57.4772 49.6729 57.5317 49.7578 57.6232C49.8287 57.6997 49.8867 57.7787 49.8867 57.7987C49.8867 57.842 50.2479 57.9922 50.352 57.9922C50.4117 57.9922 50.4141 57.9753 50.3654 57.8973C50.3165 57.8191 50.3215 57.7853 50.3934 57.7058C50.4762 57.6143 50.4765 57.6 50.3981 57.4349C50.3285 57.2881 50.297 57.2653 50.1982 57.2901C50.1042 57.3137 50.0869 57.3038 50.1111 57.2408C50.1613 57.1099 50.012 57.1493 49.875 57.303ZM49.5693 57.6504C49.5859 57.6773 49.6092 57.6993 49.621 57.6993C49.6329 57.6993 49.6426 57.6773 49.6426 57.6504C49.6426 57.6236 49.6193 57.6016 49.5909 57.6016C49.5624 57.6016 49.5527 57.6236 49.5693 57.6504ZM50.5038 57.6355C50.4489 57.6905 50.4704 57.7481 50.5459 57.7481C50.5862 57.7481 50.6191 57.7274 50.6191 57.7021C50.6191 57.6406 50.5429 57.5965 50.5038 57.6355ZM16.086 65.9857C16.1468 65.9974 16.2347 65.997 16.2813 65.9847C16.328 65.9725 16.2783 65.963 16.1709 65.9635C16.0635 65.964 16.0253 65.9741 16.086 65.9857ZM16.673 65.9872C16.8149 65.9972 17.0346 65.9971 17.1613 65.987C17.288 65.977 17.1719 65.9689 16.9033 65.969C16.6348 65.9692 16.5311 65.9774 16.673 65.9872Z" fill="white"/>
</svg>
