<svg width="83" height="82" viewBox="0 0 83 82" fill="none" xmlns="http://www.w3.org/2000/svg">
<mask id="path-1-inside-1_987_3744" fill="white">
<path d="M36.5153 3.37235C36.6286 3.72653 36.5617 3.85053 36.2157 3.91141L35.9159 3.96034L36.0932 4.07953C36.2124 4.16556 36.2497 4.21948 36.2165 4.25269C36.1667 4.30252 35.5462 4.6037 35.182 4.76262C35.0871 4.80054 35.0315 4.93595 34.9987 5.18544L34.9409 5.55113L33.9491 6.5771C33.4042 7.14484 32.9496 7.6451 32.949 7.70267C32.9386 7.75869 32.7398 7.99168 32.4876 8.22108C32.2453 8.45203 31.9043 8.85004 31.7267 9.09599C31.4807 9.45609 31.3229 9.61385 30.996 9.8267C30.6873 10.0328 30.5088 10.2113 30.2721 10.5392C30.1029 10.7769 29.7639 11.2185 29.5184 11.521C29.2771 11.8194 29.0092 12.2241 28.9277 12.4083C28.8041 12.6915 28.7392 12.7678 28.5799 12.8244C28.3102 12.9117 27.635 13.5983 27.1963 14.2308C26.7343 14.8981 25.1059 16.4581 24.3161 16.997C23.8518 17.3131 23.6841 17.4693 23.395 17.8611C22.8401 18.6098 20.5903 20.9851 16.7884 24.8555L15.0602 26.6064L14.8585 26.5459L14.651 26.4796L14.6182 26.7291C14.588 26.9646 14.5231 27.0409 13.8563 27.6279C13.4614 27.9886 12.9866 28.3607 12.8014 28.4661C12.5145 28.6276 12.4081 28.7454 12.0769 29.2362C11.7981 29.6633 11.6268 29.8573 11.4624 29.942C11.107 30.1263 9.58528 31.7848 9.44296 32.1324C9.26428 32.5848 7.95294 33.7479 7.54523 33.8135C7.25112 33.8681 7.01347 34.0373 6.89092 34.2967C6.82964 34.4264 6.80163 34.4316 6.62847 34.3083C6.53048 34.2352 6.32566 34.155 6.18355 34.1374L5.91335 34.0997L5.78288 34.5837C5.67633 34.9753 5.61765 35.091 5.44643 35.1938C5.32814 35.2665 5.17142 35.4004 5.08424 35.4876C4.9986 35.5846 4.84139 35.6848 4.73244 35.7254C4.57318 35.782 4.5 35.8666 4.35254 36.1509C4.25284 36.3418 4.08152 36.6272 3.97147 36.7828C3.79394 37.0288 3.73687 37.0631 3.55535 37.0393C3.43711 37.0207 3.282 37.0732 3.17665 37.1671C3.02824 37.2927 3.00278 37.3752 3.03063 37.6438C3.08224 38.094 2.97629 38.3368 2.60268 38.6192C2.03451 39.0391 2.05371 39.0085 2.19621 39.2423C2.40918 39.5882 2.40602 39.6597 2.16683 39.8191C2.03763 39.9141 1.90787 40.0667 1.85385 40.2119C1.76606 40.448 1.7619 40.4521 1.42273 40.4036C1.24121 40.3798 1.01823 40.3063 0.927493 40.2488L0.765735 40.1368L0.842854 40.4132C0.908072 40.6445 0.88676 40.7228 0.749753 40.8598C0.596139 41.0135 0.595088 41.0373 0.734039 41.1265C1.23592 41.4457 1.40593 41.6406 1.72713 42.2773C2.03383 42.8829 2.06959 42.927 2.93159 43.8554C3.42971 44.3951 3.95269 45.0011 4.12214 45.2536C4.40769 45.6637 4.44916 45.7134 4.67679 45.8165C4.87331 45.9051 4.92878 45.9523 4.97849 46.085C5.02821 46.2178 5.08368 46.2649 5.24339 46.3333C5.39895 46.4058 5.48293 46.4815 5.60521 46.6785C5.73891 46.8869 5.82289 46.9626 6.12725 47.1258C6.78574 47.4937 6.98265 47.7985 7.12218 48.6854C7.17334 49.0106 7.28772 49.4322 7.36904 49.6131L7.52289 49.9496L7.93094 50.1916C8.15752 50.3186 8.74803 50.743 9.2395 51.1182C9.79785 51.552 10.2106 51.8236 10.3262 51.8562C10.4361 51.8831 10.7644 51.954 11.0616 52.0103C11.3587 52.0667 11.6802 52.1557 11.771 52.2132C11.8757 52.2681 12.1826 52.5999 12.5615 53.0535C13.0518 53.6352 13.2871 53.8788 13.6567 54.182C14.086 54.5282 14.1332 54.5837 14.2051 54.7968C14.2672 55.0084 14.2958 55.0369 14.498 55.1312C14.7567 55.2488 16.0449 56.5037 16.3817 56.9651C16.4921 57.117 16.7056 57.4053 16.8533 57.6111C17.0052 57.8128 17.1394 58.0549 17.1507 58.1576C17.1714 58.3194 17.1843 58.3407 17.3622 58.4023C17.5458 58.4696 17.5758 58.508 17.811 59.0255C18.0923 59.6223 18.4877 60.2419 18.7842 60.5384C19.0009 60.755 20.108 61.1647 20.4477 61.1556C20.567 61.1504 20.8045 61.1637 20.9845 61.1776C21.263 61.207 21.3195 61.2303 21.3521 61.346C21.3687 61.4207 21.3178 61.5856 21.2368 61.7122C21.1117 61.8944 21.1075 61.9898 21.1955 62.2439C21.342 62.6561 21.725 63.2882 22.0505 63.6469C22.3019 63.9315 22.3174 63.9387 22.4663 63.8469C22.6111 63.7591 22.6422 63.7736 22.9351 64.0167C23.1114 64.1598 23.4644 64.3883 23.7206 64.5199C24.1478 64.7312 24.209 64.7841 24.4453 65.0952C24.762 65.5198 27.1392 67.8638 27.6748 68.2748C27.8837 68.4422 28.3337 68.8589 28.6773 69.2109C29.1978 69.7396 29.3528 69.8697 29.6499 70.0174C29.9584 70.1764 30.0024 70.2122 30.0853 70.403C30.1418 70.5176 30.3398 70.7986 30.5243 71.0246C30.8902 71.457 32.1219 72.5973 32.6388 72.9814C33.0846 73.311 33.3101 73.553 33.3836 73.776C33.4452 73.9539 33.4851 73.9938 33.8952 74.2794C34.3152 74.5665 34.3836 74.6349 34.9387 75.3228C35.5125 76.0377 35.527 76.0688 35.4719 76.238C35.4225 76.4128 35.494 76.5922 35.577 76.5092C35.5978 76.4884 35.6875 76.4785 35.772 76.4966C35.91 76.5183 35.9328 76.5411 36.0271 76.7433C36.1519 77.0176 36.4557 77.3297 36.7274 77.4685C36.8788 77.5452 36.9373 77.6121 37.0042 77.7619C37.0767 77.9175 37.1337 77.9745 37.3178 78.0755C37.506 78.1724 37.5589 78.2336 37.6371 78.3949C37.7055 78.5546 37.7853 78.6344 38.0393 78.8137C38.2166 78.9329 38.5718 79.205 38.8263 79.418C39.0808 79.631 39.4982 79.9321 39.7377 80.0803C39.9944 80.2456 40.3568 80.5333 40.5947 80.7629C40.8269 80.9868 41.1758 81.3108 41.3806 81.4824L41.7476 81.7996L42.1685 81.3901C42.4965 81.0621 42.6578 80.9578 42.9291 80.8803C43.2705 80.7899 43.3078 80.7525 45.6136 78.4582C48.3179 75.7652 48.3843 75.6988 48.4903 75.456C48.5391 75.3388 48.618 75.2599 48.7077 75.25C48.9095 75.2193 51.0694 73.0365 51.1059 72.8404C51.1168 72.7268 51.1973 72.6578 51.4063 72.5514C51.6476 72.4356 51.7016 72.3816 51.7795 72.144C51.8548 71.9204 51.9114 71.8524 52.0624 71.8041C52.2232 71.7573 52.2574 71.7003 52.2929 71.4368C52.3194 71.2391 52.3916 71.0871 52.5042 71.0087C52.6459 70.9013 52.7034 70.9007 52.9119 71.0344C53.1882 71.2028 53.3127 71.1696 53.3471 70.9299C53.3887 70.7058 56.666 67.3487 57.2721 66.9251C57.6571 66.6542 57.7303 66.5696 57.8316 66.2972C57.9141 66.0892 57.9884 65.9807 58.0781 65.9708C58.2757 65.9443 58.4989 65.7439 58.8487 65.28C59.0636 64.9967 59.3781 64.7051 59.8238 64.362C60.543 63.8024 60.9624 63.2918 61.1894 62.6885C61.2907 62.4161 61.3364 62.3704 61.4863 62.346C61.632 62.3257 62.0062 61.9857 63.1977 60.7942C64.4682 59.5238 64.7624 59.1953 64.9732 58.8248C65.1129 58.5825 65.2998 58.3044 65.3953 58.2089C65.5738 58.0304 66.0043 57.8963 66.3529 57.9127C66.5271 57.9209 66.5868 57.8727 66.8707 57.5089C67.0457 57.277 68.2336 56.032 69.5108 54.7434L71.8327 52.3987L71.795 52.1285L71.7557 51.8485L71.9683 51.8867C72.1753 51.9193 72.2043 51.8902 74.0829 50.0572C75.1281 49.0348 76.2314 47.9543 76.5319 47.6653C76.9445 47.2641 77.1168 47.0462 77.2295 46.7852C77.4669 46.2171 77.5608 46.1118 77.9021 46.0214C78.4562 45.8779 78.8033 45.6106 79.3167 44.9033C79.6182 44.4991 79.9457 44.1374 80.2342 43.8945C80.6198 43.566 80.6956 43.4674 80.7772 43.1919C80.8416 42.9906 80.9169 42.8583 81.0051 42.8386C81.0736 42.8157 81.2043 42.7306 81.2915 42.6434L81.4591 42.4872L80.9675 42.3858C80.6942 42.3284 80.3965 42.2383 80.3016 42.185C79.8951 41.9528 79.6251 41.55 79.5704 41.0801C79.5307 40.7663 79.6194 40.7803 79.8463 41.1235C80.3941 41.9785 81.05 42.2691 81.7291 41.9435C82.2479 41.6984 82.44 41.3922 82.3641 40.9094C82.2912 40.4463 82.0456 40.0761 81.3976 39.4696C80.9461 39.043 80.8382 38.9684 80.4597 38.8224C79.9287 38.6235 79.8561 38.5592 79.8957 38.2916C79.9659 37.9134 79.3533 37.226 77.6063 35.7115C76.3756 34.6386 75.9915 34.213 75.3884 33.2196C75.0028 32.6016 74.8551 32.3958 74.6592 32.2496C74.3424 32.0076 74.3625 32.1357 74.7103 32.5748C75.0809 33.0367 75.0274 33.1244 74.5909 32.7626C74.2467 32.4682 74.0109 32.1909 73.9617 32.0005C73.9425 31.9399 73.6704 31.676 73.265 31.3287C72.4159 30.6042 71.4082 29.6048 69.0771 27.1575C67.5522 25.5578 67.0633 25.0773 66.4133 24.5185C65.9737 24.137 65.4086 23.6301 65.1577 23.3792C64.8099 23.0314 64.6352 22.8982 64.4459 22.8252C64.196 22.733 64.1846 22.7216 63.9613 22.3405C63.7742 22.0372 63.557 21.7868 62.9111 21.1327L62.0958 20.3173L62.0207 19.9931C61.9483 19.655 61.7975 19.4295 61.7466 19.5945C61.7305 19.6448 61.7107 19.733 61.6946 19.7833C61.665 19.8699 61.5385 19.7683 60.4727 18.8271C60.1254 18.5129 60.031 18.402 59.9134 18.1433C59.7943 17.8747 59.7414 17.8135 59.405 17.5684C59.1763 17.3978 58.5056 16.7686 57.6202 15.8749L56.2061 14.4608L56.185 14.174C56.1717 13.8452 56.0287 13.6689 55.9015 13.8075C55.82 13.9004 55.7718 13.8688 54.8858 13.124C54.2047 12.5507 53.6251 12.0127 52.7382 11.1092C51.4236 9.778 47.5022 5.95617 47.2637 5.78411C47.187 5.72399 46.992 5.64527 46.8369 5.60646L46.5481 5.54179L46.5311 5.25083L46.51 4.96402L46.0777 4.5981C45.8345 4.39648 45.694 4.2975 45.7541 4.37422C45.976 4.65417 45.7883 4.591 45.4803 4.2831C45.3093 4.11204 45.1875 3.94873 45.2083 3.92797C45.2332 3.90306 45.2995 3.92792 45.3509 3.97923C45.6754 4.27054 44.9181 3.39703 44.3593 2.83823C43.4283 1.89896 42.6518 1.23863 42.28 1.07443C41.9378 0.914883 41.3481 0.831716 41.2526 0.927204C41.2194 0.960417 41.0477 0.93822 40.8797 0.878152C40.1952 0.650338 39.6152 0.842579 39.1958 1.44447C39.0224 1.68627 38.9778 1.70808 38.7304 1.69318C38.3269 1.66334 38.1837 1.76093 38.0424 2.17594C37.9307 2.50432 37.899 2.54739 37.7502 2.54799C37.6309 2.55325 37.524 2.63734 37.3641 2.84282C37.1518 3.11213 37.1295 3.12303 36.8422 3.06822C36.4662 2.99946 36.4164 3.04928 36.5153 3.37235ZM38.634 4.19579C38.68 4.45769 38.8172 4.99339 38.9482 5.39839C39.2935 6.43292 39.3157 6.69588 39.0831 7.01966C38.9715 7.16547 38.8889 7.3735 38.8909 7.50835C38.8929 7.73449 38.8887 7.73863 38.7804 7.6303C38.5637 7.41362 38.5292 6.98056 38.6996 6.4452C38.7838 6.15573 38.8416 5.88133 38.8198 5.83466C38.8079 5.78955 38.6644 5.57957 38.5068 5.37219C38.2876 5.07824 38.2208 4.92838 38.2048 4.70485C38.1796 4.33091 38.2513 4.0539 38.4242 3.86967L38.5653 3.72851L38.634 4.19579ZM9.53566 33.2714C9.58128 33.317 9.58382 33.3943 9.53815 33.4399C9.45512 33.523 9.36749 33.4851 9.35304 33.3628C9.32873 33.2388 9.45013 33.1858 9.53566 33.2714ZM41.8369 1.31224C41.9542 1.26342 41.9951 1.27947 42.1568 1.48269C42.4274 1.82797 42.4076 1.91615 42.0741 1.87329C41.6914 1.82269 41.3793 1.51893 41.6081 1.41558C41.6569 1.38962 41.7601 1.3434 41.8369 1.31224ZM36.0319 7.72162C36.0801 7.75323 36.0879 7.8025 36.0505 7.83987C36.0132 7.87723 35.9442 7.86638 35.8929 7.81506C35.7959 7.71813 35.9044 7.6439 36.0319 7.72162ZM8.43466 35.7408C8.50933 35.7574 8.60162 35.8248 8.63063 35.887C8.71561 36.0301 8.39177 36.3539 8.0826 36.435C7.77343 36.5161 7.71491 36.3579 7.98317 36.1695C8.09577 36.0911 8.19386 35.9816 8.19856 35.9199C8.20592 35.7529 8.2796 35.702 8.43466 35.7408ZM9.4543 49.2157C9.54553 49.3069 9.65177 49.4629 9.67557 49.5532C9.72424 49.7098 9.72008 49.7139 9.57543 49.6191C9.42663 49.5284 9.14208 49.1857 9.07371 49.026C9.03125 48.9088 9.26613 49.0275 9.4543 49.2157ZM20.2542 58.5209C20.3854 58.6521 20.3931 58.7926 20.2702 58.7445C20.153 58.702 20.0462 58.5122 20.1044 58.4541C20.1251 58.4334 20.1972 58.4639 20.2542 58.5209ZM74.5311 33.0847C74.6508 33.2045 74.6958 33.3989 74.617 33.4778C74.5422 33.5526 74.408 33.4017 74.3785 33.2145C74.346 33.0076 74.4056 32.9593 74.5311 33.0847ZM75.0712 44.4276C75.1412 44.4146 75.289 44.4378 75.4005 44.4746C75.5841 44.5419 75.6297 44.5875 75.9546 45.0951C76.4173 45.807 76.5443 46.0336 76.4944 46.0834C76.3616 46.2162 76.1141 46.2926 76.0457 46.2242C76.0058 46.1843 75.9006 46.0044 75.8209 45.8332C75.7033 45.5745 75.6188 45.4651 75.3202 45.2163C74.9988 44.9447 74.9558 44.8851 74.9263 44.6979C74.8891 44.4614 74.8974 44.4531 75.0712 44.4276ZM80.2098 39.4942L80.4246 39.4847L80.1194 39.7442C79.9114 39.9181 79.7972 40.0779 79.7519 40.2486C79.6667 40.5619 79.6018 40.6382 79.5724 40.451C79.4995 39.9878 79.8182 39.5095 80.2098 39.4942ZM73.1844 46.8503C73.3213 46.9872 73.3596 47.1085 73.3273 47.3004C73.3028 47.4504 73.2888 47.453 73.1292 47.2933C73.0265 47.1907 72.9644 47.0704 72.9758 46.9905C72.9925 46.7913 73.0761 46.742 73.1844 46.8503ZM74.854 45.979C74.9773 46.2435 75.0077 46.4981 74.919 46.4842C74.8444 46.4676 74.6937 46.0595 74.6881 45.8713C74.6923 45.6845 74.7405 45.7161 74.854 45.979ZM64.2699 57.9886C64.4036 58.1971 64.5154 58.5414 64.4671 58.6011C64.3857 58.6939 64.2281 58.4866 64.1551 58.206C64.0786 57.872 64.1305 57.7745 64.2699 57.9886ZM71.2222 51.5723C71.3252 51.8 71.2665 52.007 71.1083 51.9484C71.0207 51.9106 70.8198 51.3361 70.8562 51.2313C70.905 51.114 71.103 51.3037 71.2222 51.5723ZM60.5012 61.7345C60.5909 61.7246 60.6194 61.7531 60.6334 61.8418C60.6473 61.9305 60.6183 61.9596 60.5156 61.9482C60.2879 61.9364 60.2724 61.7466 60.5012 61.7345ZM81.8766 40.7126C82.0715 40.9739 82.1003 41.4012 81.9121 41.2131C81.8437 41.1447 81.6667 40.569 81.704 40.5317C81.7165 40.5192 81.7963 40.5991 81.8766 40.7126ZM68.1706 54.6239C68.2504 54.795 68.2208 54.8816 68.1036 54.8391C68.016 54.8013 67.9689 54.6546 68.0094 54.5456C68.0567 54.4185 68.0878 54.433 68.1706 54.6239Z"/>
</mask>
<path d="M36.5153 3.37235C36.6286 3.72653 36.5617 3.85053 36.2157 3.91141L35.9159 3.96034L36.0932 4.07953C36.2124 4.16556 36.2497 4.21948 36.2165 4.25269C36.1667 4.30252 35.5462 4.6037 35.182 4.76262C35.0871 4.80054 35.0315 4.93595 34.9987 5.18544L34.9409 5.55113L33.9491 6.5771C33.4042 7.14484 32.9496 7.6451 32.949 7.70267C32.9386 7.75869 32.7398 7.99168 32.4876 8.22108C32.2453 8.45203 31.9043 8.85004 31.7267 9.09599C31.4807 9.45609 31.3229 9.61385 30.996 9.8267C30.6873 10.0328 30.5088 10.2113 30.2721 10.5392C30.1029 10.7769 29.7639 11.2185 29.5184 11.521C29.2771 11.8194 29.0092 12.2241 28.9277 12.4083C28.8041 12.6915 28.7392 12.7678 28.5799 12.8244C28.3102 12.9117 27.635 13.5983 27.1963 14.2308C26.7343 14.8981 25.1059 16.4581 24.3161 16.997C23.8518 17.3131 23.6841 17.4693 23.395 17.8611C22.8401 18.6098 20.5903 20.9851 16.7884 24.8555L15.0602 26.6064L14.8585 26.5459L14.651 26.4796L14.6182 26.7291C14.588 26.9646 14.5231 27.0409 13.8563 27.6279C13.4614 27.9886 12.9866 28.3607 12.8014 28.4661C12.5145 28.6276 12.4081 28.7454 12.0769 29.2362C11.7981 29.6633 11.6268 29.8573 11.4624 29.942C11.107 30.1263 9.58528 31.7848 9.44296 32.1324C9.26428 32.5848 7.95294 33.7479 7.54523 33.8135C7.25112 33.8681 7.01347 34.0373 6.89092 34.2967C6.82964 34.4264 6.80163 34.4316 6.62847 34.3083C6.53048 34.2352 6.32566 34.155 6.18355 34.1374L5.91335 34.0997L5.78288 34.5837C5.67633 34.9753 5.61765 35.091 5.44643 35.1938C5.32814 35.2665 5.17142 35.4004 5.08424 35.4876C4.9986 35.5846 4.84139 35.6848 4.73244 35.7254C4.57318 35.782 4.5 35.8666 4.35254 36.1509C4.25284 36.3418 4.08152 36.6272 3.97147 36.7828C3.79394 37.0288 3.73687 37.0631 3.55535 37.0393C3.43711 37.0207 3.282 37.0732 3.17665 37.1671C3.02824 37.2927 3.00278 37.3752 3.03063 37.6438C3.08224 38.094 2.97629 38.3368 2.60268 38.6192C2.03451 39.0391 2.05371 39.0085 2.19621 39.2423C2.40918 39.5882 2.40602 39.6597 2.16683 39.8191C2.03763 39.9141 1.90787 40.0667 1.85385 40.2119C1.76606 40.448 1.7619 40.4521 1.42273 40.4036C1.24121 40.3798 1.01823 40.3063 0.927493 40.2488L0.765735 40.1368L0.842854 40.4132C0.908072 40.6445 0.88676 40.7228 0.749753 40.8598C0.596139 41.0135 0.595088 41.0373 0.734039 41.1265C1.23592 41.4457 1.40593 41.6406 1.72713 42.2773C2.03383 42.8829 2.06959 42.927 2.93159 43.8554C3.42971 44.3951 3.95269 45.0011 4.12214 45.2536C4.40769 45.6637 4.44916 45.7134 4.67679 45.8165C4.87331 45.9051 4.92878 45.9523 4.97849 46.085C5.02821 46.2178 5.08368 46.2649 5.24339 46.3333C5.39895 46.4058 5.48293 46.4815 5.60521 46.6785C5.73891 46.8869 5.82289 46.9626 6.12725 47.1258C6.78574 47.4937 6.98265 47.7985 7.12218 48.6854C7.17334 49.0106 7.28772 49.4322 7.36904 49.6131L7.52289 49.9496L7.93094 50.1916C8.15752 50.3186 8.74803 50.743 9.2395 51.1182C9.79785 51.552 10.2106 51.8236 10.3262 51.8562C10.4361 51.8831 10.7644 51.954 11.0616 52.0103C11.3587 52.0667 11.6802 52.1557 11.771 52.2132C11.8757 52.2681 12.1826 52.5999 12.5615 53.0535C13.0518 53.6352 13.2871 53.8788 13.6567 54.182C14.086 54.5282 14.1332 54.5837 14.2051 54.7968C14.2672 55.0084 14.2958 55.0369 14.498 55.1312C14.7567 55.2488 16.0449 56.5037 16.3817 56.9651C16.4921 57.117 16.7056 57.4053 16.8533 57.6111C17.0052 57.8128 17.1394 58.0549 17.1507 58.1576C17.1714 58.3194 17.1843 58.3407 17.3622 58.4023C17.5458 58.4696 17.5758 58.508 17.811 59.0255C18.0923 59.6223 18.4877 60.2419 18.7842 60.5384C19.0009 60.755 20.108 61.1647 20.4477 61.1556C20.567 61.1504 20.8045 61.1637 20.9845 61.1776C21.263 61.207 21.3195 61.2303 21.3521 61.346C21.3687 61.4207 21.3178 61.5856 21.2368 61.7122C21.1117 61.8944 21.1075 61.9898 21.1955 62.2439C21.342 62.6561 21.725 63.2882 22.0505 63.6469C22.3019 63.9315 22.3174 63.9387 22.4663 63.8469C22.6111 63.7591 22.6422 63.7736 22.9351 64.0167C23.1114 64.1598 23.4644 64.3883 23.7206 64.5199C24.1478 64.7312 24.209 64.7841 24.4453 65.0952C24.762 65.5198 27.1392 67.8638 27.6748 68.2748C27.8837 68.4422 28.3337 68.8589 28.6773 69.2109C29.1978 69.7396 29.3528 69.8697 29.6499 70.0174C29.9584 70.1764 30.0024 70.2122 30.0853 70.403C30.1418 70.5176 30.3398 70.7986 30.5243 71.0246C30.8902 71.457 32.1219 72.5973 32.6388 72.9814C33.0846 73.311 33.3101 73.553 33.3836 73.776C33.4452 73.9539 33.4851 73.9938 33.8952 74.2794C34.3152 74.5665 34.3836 74.6349 34.9387 75.3228C35.5125 76.0377 35.527 76.0688 35.4719 76.238C35.4225 76.4128 35.494 76.5922 35.577 76.5092C35.5978 76.4884 35.6875 76.4785 35.772 76.4966C35.91 76.5183 35.9328 76.5411 36.0271 76.7433C36.1519 77.0176 36.4557 77.3297 36.7274 77.4685C36.8788 77.5452 36.9373 77.6121 37.0042 77.7619C37.0767 77.9175 37.1337 77.9745 37.3178 78.0755C37.506 78.1724 37.5589 78.2336 37.6371 78.3949C37.7055 78.5546 37.7853 78.6344 38.0393 78.8137C38.2166 78.9329 38.5718 79.205 38.8263 79.418C39.0808 79.631 39.4982 79.9321 39.7377 80.0803C39.9944 80.2456 40.3568 80.5333 40.5947 80.7629C40.8269 80.9868 41.1758 81.3108 41.3806 81.4824L41.7476 81.7996L42.1685 81.3901C42.4965 81.0621 42.6578 80.9578 42.9291 80.8803C43.2705 80.7899 43.3078 80.7525 45.6136 78.4582C48.3179 75.7652 48.3843 75.6988 48.4903 75.456C48.5391 75.3388 48.618 75.2599 48.7077 75.25C48.9095 75.2193 51.0694 73.0365 51.1059 72.8404C51.1168 72.7268 51.1973 72.6578 51.4063 72.5514C51.6476 72.4356 51.7016 72.3816 51.7795 72.144C51.8548 71.9204 51.9114 71.8524 52.0624 71.8041C52.2232 71.7573 52.2574 71.7003 52.2929 71.4368C52.3194 71.2391 52.3916 71.0871 52.5042 71.0087C52.6459 70.9013 52.7034 70.9007 52.9119 71.0344C53.1882 71.2028 53.3127 71.1696 53.3471 70.9299C53.3887 70.7058 56.666 67.3487 57.2721 66.9251C57.6571 66.6542 57.7303 66.5696 57.8316 66.2972C57.9141 66.0892 57.9884 65.9807 58.0781 65.9708C58.2757 65.9443 58.4989 65.7439 58.8487 65.28C59.0636 64.9967 59.3781 64.7051 59.8238 64.362C60.543 63.8024 60.9624 63.2918 61.1894 62.6885C61.2907 62.4161 61.3364 62.3704 61.4863 62.346C61.632 62.3257 62.0062 61.9857 63.1977 60.7942C64.4682 59.5238 64.7624 59.1953 64.9732 58.8248C65.1129 58.5825 65.2998 58.3044 65.3953 58.2089C65.5738 58.0304 66.0043 57.8963 66.3529 57.9127C66.5271 57.9209 66.5868 57.8727 66.8707 57.5089C67.0457 57.277 68.2336 56.032 69.5108 54.7434L71.8327 52.3987L71.795 52.1285L71.7557 51.8485L71.9683 51.8867C72.1753 51.9193 72.2043 51.8902 74.0829 50.0572C75.1281 49.0348 76.2314 47.9543 76.5319 47.6653C76.9445 47.2641 77.1168 47.0462 77.2295 46.7852C77.4669 46.2171 77.5608 46.1118 77.9021 46.0214C78.4562 45.8779 78.8033 45.6106 79.3167 44.9033C79.6182 44.4991 79.9457 44.1374 80.2342 43.8945C80.6198 43.566 80.6956 43.4674 80.7772 43.1919C80.8416 42.9906 80.9169 42.8583 81.0051 42.8386C81.0736 42.8157 81.2043 42.7306 81.2915 42.6434L81.4591 42.4872L80.9675 42.3858C80.6942 42.3284 80.3965 42.2383 80.3016 42.185C79.8951 41.9528 79.6251 41.55 79.5704 41.0801C79.5307 40.7663 79.6194 40.7803 79.8463 41.1235C80.3941 41.9785 81.05 42.2691 81.7291 41.9435C82.2479 41.6984 82.44 41.3922 82.3641 40.9094C82.2912 40.4463 82.0456 40.0761 81.3976 39.4696C80.9461 39.043 80.8382 38.9684 80.4597 38.8224C79.9287 38.6235 79.8561 38.5592 79.8957 38.2916C79.9659 37.9134 79.3533 37.226 77.6063 35.7115C76.3756 34.6386 75.9915 34.213 75.3884 33.2196C75.0028 32.6016 74.8551 32.3958 74.6592 32.2496C74.3424 32.0076 74.3625 32.1357 74.7103 32.5748C75.0809 33.0367 75.0274 33.1244 74.5909 32.7626C74.2467 32.4682 74.0109 32.1909 73.9617 32.0005C73.9425 31.9399 73.6704 31.676 73.265 31.3287C72.4159 30.6042 71.4082 29.6048 69.0771 27.1575C67.5522 25.5578 67.0633 25.0773 66.4133 24.5185C65.9737 24.137 65.4086 23.6301 65.1577 23.3792C64.8099 23.0314 64.6352 22.8982 64.4459 22.8252C64.196 22.733 64.1846 22.7216 63.9613 22.3405C63.7742 22.0372 63.557 21.7868 62.9111 21.1327L62.0958 20.3173L62.0207 19.9931C61.9483 19.655 61.7975 19.4295 61.7466 19.5945C61.7305 19.6448 61.7107 19.733 61.6946 19.7833C61.665 19.8699 61.5385 19.7683 60.4727 18.8271C60.1254 18.5129 60.031 18.402 59.9134 18.1433C59.7943 17.8747 59.7414 17.8135 59.405 17.5684C59.1763 17.3978 58.5056 16.7686 57.6202 15.8749L56.2061 14.4608L56.185 14.174C56.1717 13.8452 56.0287 13.6689 55.9015 13.8075C55.82 13.9004 55.7718 13.8688 54.8858 13.124C54.2047 12.5507 53.6251 12.0127 52.7382 11.1092C51.4236 9.778 47.5022 5.95617 47.2637 5.78411C47.187 5.72399 46.992 5.64527 46.8369 5.60646L46.5481 5.54179L46.5311 5.25083L46.51 4.96402L46.0777 4.5981C45.8345 4.39648 45.694 4.2975 45.7541 4.37422C45.976 4.65417 45.7883 4.591 45.4803 4.2831C45.3093 4.11204 45.1875 3.94873 45.2083 3.92797C45.2332 3.90306 45.2995 3.92792 45.3509 3.97923C45.6754 4.27054 44.9181 3.39703 44.3593 2.83823C43.4283 1.89896 42.6518 1.23863 42.28 1.07443C41.9378 0.914883 41.3481 0.831716 41.2526 0.927204C41.2194 0.960417 41.0477 0.93822 40.8797 0.878152C40.1952 0.650338 39.6152 0.842579 39.1958 1.44447C39.0224 1.68627 38.9778 1.70808 38.7304 1.69318C38.3269 1.66334 38.1837 1.76093 38.0424 2.17594C37.9307 2.50432 37.899 2.54739 37.7502 2.54799C37.6309 2.55325 37.524 2.63734 37.3641 2.84282C37.1518 3.11213 37.1295 3.12303 36.8422 3.06822C36.4662 2.99946 36.4164 3.04928 36.5153 3.37235ZM38.634 4.19579C38.68 4.45769 38.8172 4.99339 38.9482 5.39839C39.2935 6.43292 39.3157 6.69588 39.0831 7.01966C38.9715 7.16547 38.8889 7.3735 38.8909 7.50835C38.8929 7.73449 38.8887 7.73863 38.7804 7.6303C38.5637 7.41362 38.5292 6.98056 38.6996 6.4452C38.7838 6.15573 38.8416 5.88133 38.8198 5.83466C38.8079 5.78955 38.6644 5.57957 38.5068 5.37219C38.2876 5.07824 38.2208 4.92838 38.2048 4.70485C38.1796 4.33091 38.2513 4.0539 38.4242 3.86967L38.5653 3.72851L38.634 4.19579ZM9.53566 33.2714C9.58128 33.317 9.58382 33.3943 9.53815 33.4399C9.45512 33.523 9.36749 33.4851 9.35304 33.3628C9.32873 33.2388 9.45013 33.1858 9.53566 33.2714ZM41.8369 1.31224C41.9542 1.26342 41.9951 1.27947 42.1568 1.48269C42.4274 1.82797 42.4076 1.91615 42.0741 1.87329C41.6914 1.82269 41.3793 1.51893 41.6081 1.41558C41.6569 1.38962 41.7601 1.3434 41.8369 1.31224ZM36.0319 7.72162C36.0801 7.75323 36.0879 7.8025 36.0505 7.83987C36.0132 7.87723 35.9442 7.86638 35.8929 7.81506C35.7959 7.71813 35.9044 7.6439 36.0319 7.72162ZM8.43466 35.7408C8.50933 35.7574 8.60162 35.8248 8.63063 35.887C8.71561 36.0301 8.39177 36.3539 8.0826 36.435C7.77343 36.5161 7.71491 36.3579 7.98317 36.1695C8.09577 36.0911 8.19386 35.9816 8.19856 35.9199C8.20592 35.7529 8.2796 35.702 8.43466 35.7408ZM9.4543 49.2157C9.54553 49.3069 9.65177 49.4629 9.67557 49.5532C9.72424 49.7098 9.72008 49.7139 9.57543 49.6191C9.42663 49.5284 9.14208 49.1857 9.07371 49.026C9.03125 48.9088 9.26613 49.0275 9.4543 49.2157ZM20.2542 58.5209C20.3854 58.6521 20.3931 58.7926 20.2702 58.7445C20.153 58.702 20.0462 58.5122 20.1044 58.4541C20.1251 58.4334 20.1972 58.4639 20.2542 58.5209ZM74.5311 33.0847C74.6508 33.2045 74.6958 33.3989 74.617 33.4778C74.5422 33.5526 74.408 33.4017 74.3785 33.2145C74.346 33.0076 74.4056 32.9593 74.5311 33.0847ZM75.0712 44.4276C75.1412 44.4146 75.289 44.4378 75.4005 44.4746C75.5841 44.5419 75.6297 44.5875 75.9546 45.0951C76.4173 45.807 76.5443 46.0336 76.4944 46.0834C76.3616 46.2162 76.1141 46.2926 76.0457 46.2242C76.0058 46.1843 75.9006 46.0044 75.8209 45.8332C75.7033 45.5745 75.6188 45.4651 75.3202 45.2163C74.9988 44.9447 74.9558 44.8851 74.9263 44.6979C74.8891 44.4614 74.8974 44.4531 75.0712 44.4276ZM80.2098 39.4942L80.4246 39.4847L80.1194 39.7442C79.9114 39.9181 79.7972 40.0779 79.7519 40.2486C79.6667 40.5619 79.6018 40.6382 79.5724 40.451C79.4995 39.9878 79.8182 39.5095 80.2098 39.4942ZM73.1844 46.8503C73.3213 46.9872 73.3596 47.1085 73.3273 47.3004C73.3028 47.4504 73.2888 47.453 73.1292 47.2933C73.0265 47.1907 72.9644 47.0704 72.9758 46.9905C72.9925 46.7913 73.0761 46.742 73.1844 46.8503ZM74.854 45.979C74.9773 46.2435 75.0077 46.4981 74.919 46.4842C74.8444 46.4676 74.6937 46.0595 74.6881 45.8713C74.6923 45.6845 74.7405 45.7161 74.854 45.979ZM64.2699 57.9886C64.4036 58.1971 64.5154 58.5414 64.4671 58.6011C64.3857 58.6939 64.2281 58.4866 64.1551 58.206C64.0786 57.872 64.1305 57.7745 64.2699 57.9886ZM71.2222 51.5723C71.3252 51.8 71.2665 52.007 71.1083 51.9484C71.0207 51.9106 70.8198 51.3361 70.8562 51.2313C70.905 51.114 71.103 51.3037 71.2222 51.5723ZM60.5012 61.7345C60.5909 61.7246 60.6194 61.7531 60.6334 61.8418C60.6473 61.9305 60.6183 61.9596 60.5156 61.9482C60.2879 61.9364 60.2724 61.7466 60.5012 61.7345ZM81.8766 40.7126C82.0715 40.9739 82.1003 41.4012 81.9121 41.2131C81.8437 41.1447 81.6667 40.569 81.704 40.5317C81.7165 40.5192 81.7963 40.5991 81.8766 40.7126ZM68.1706 54.6239C68.2504 54.795 68.2208 54.8816 68.1036 54.8391C68.016 54.8013 67.9689 54.6546 68.0094 54.5456C68.0567 54.4185 68.0878 54.433 68.1706 54.6239Z" fill="black" stroke="white" stroke-width="4" mask="url(#path-1-inside-1_987_3744)"/>
<path fill-rule="evenodd" clip-rule="evenodd" d="M37.6865 18.3774C37.6865 18.4218 37.7228 18.458 37.7671 18.458C37.8114 18.458 37.8477 18.4218 37.8477 18.3774C37.8477 18.3331 37.8114 18.2969 37.7671 18.2969C37.7228 18.2969 37.6865 18.3331 37.6865 18.3774ZM41.1547 18.6018C41.1351 18.6528 41.1559 18.7277 41.2026 18.7745C41.2769 18.8487 41.294 18.8482 41.3731 18.7691C41.4214 18.7208 41.4464 18.643 41.4285 18.5965C41.3854 18.4842 41.1984 18.4879 41.1547 18.6018ZM43.1204 18.7315C43.102 19.1999 42.9087 19.577 42.6275 19.6936C42.3821 19.7952 41.9303 19.7318 41.2583 19.5015C40.7697 19.334 40.5734 19.2949 40.1239 19.2755C39.2204 19.2364 38.5913 19.4902 37.9014 20.172L37.4986 20.5701L37.8631 20.639C38.4771 20.755 39.1269 21.1064 39.2575 21.3931C39.3124 21.5137 39.2886 21.553 38.9604 21.8844C38.7321 22.1149 38.5744 22.3277 38.5226 22.4753C38.2317 23.3036 38.517 24.2978 39.277 25.1037C39.4656 25.3036 39.62 25.4737 39.62 25.4815C39.6203 25.524 38.9709 25.1576 38.7897 25.0131C37.8905 24.2956 37.6956 23.025 38.3043 21.8488C38.4077 21.6491 38.4922 21.4434 38.4922 21.3916C38.4922 21.1004 38.2135 20.9926 38.0035 21.2026C37.8572 21.3488 37.6683 21.7799 37.5192 22.3074C37.4538 22.5388 37.3801 22.751 37.3554 22.7791C37.283 22.8614 37.3077 21.7908 37.3864 21.439C37.426 21.2617 37.4762 21.0744 37.4977 21.0227C37.5259 20.9551 37.5118 20.9287 37.4476 20.9287C37.3249 20.9287 37.1174 21.4029 37.0379 21.8651C36.9546 22.3495 37.007 23.0844 37.1709 23.7301C37.241 24.0061 37.2918 24.2392 37.2838 24.2482C37.2457 24.2905 36.9349 23.4321 36.8526 23.0571C36.5815 21.8227 37.0537 20.3817 37.9728 19.638C38.3633 19.3221 38.5482 19.2274 39.076 19.0731C39.4486 18.9642 39.4616 18.9554 39.2976 18.9226C38.7547 18.814 38.3834 18.9537 37.8318 19.4741C37.4503 19.834 37.2355 20.1119 36.9773 20.5796C36.7489 20.9934 36.8 20.8092 37.0435 20.3413C37.3088 19.8314 37.7522 19.2909 38.0819 19.0757C38.2176 18.9871 38.3292 18.9007 38.3299 18.8839C38.3319 18.8322 37.628 18.9345 37.3403 19.0278C36.9134 19.1661 36.3874 19.4597 36.013 19.7686C35.5003 20.1915 34.8786 20.9681 34.5751 21.565C34.3945 21.9202 34.3826 21.7928 34.5599 21.4019C34.7837 20.9082 35.15 20.3746 35.5992 19.8877C35.9396 19.5188 35.9659 19.4766 35.8042 19.5597C34.8786 20.0351 34.1983 20.7146 33.7618 21.5997C33.4798 22.1714 33.446 22.1962 33.5829 21.7307C33.8166 20.9363 34.4315 20.1138 35.0621 19.7521C35.4026 19.5569 35.3912 19.5519 34.9303 19.6942C34.0556 19.9644 33.3536 20.8306 33.0603 22.0016C32.9652 22.3809 32.9508 22.5599 32.9738 23.0758C32.989 23.4163 33.029 23.7646 33.0627 23.85C33.0965 23.9353 33.1131 24.0162 33.0995 24.0297C33.0561 24.0732 32.6153 23.7408 32.3847 23.4906C31.8834 22.9467 31.7248 22.2936 31.9774 21.8125C32.1363 21.5101 32.4936 21.1969 32.9587 20.9525L33.3538 20.7449L33.1703 20.6698C33.0449 20.6185 32.8477 20.602 32.547 20.6177C32.1738 20.6371 32.0457 20.671 31.7008 20.8414C30.8723 21.2509 30.2873 22.0262 30.1723 22.867C30.0776 23.559 30.2688 24.0269 30.894 24.633C31.1082 24.8408 31.2728 25.0107 31.2597 25.0107C31.2466 25.0107 31.1586 24.9715 31.064 24.9235C30.7815 24.7801 30.4583 24.4923 30.2737 24.2197L30.1 23.9634L30.1333 24.1514C30.1516 24.2548 30.2628 24.5353 30.3805 24.7748C30.5465 25.113 30.6802 25.2913 30.978 25.5723C31.3712 25.9432 31.9909 26.2965 32.2602 26.3032L32.396 26.3066L32.2617 26.3617C32.0434 26.4514 31.5174 26.3705 31.1507 26.1908C30.8012 26.0194 30.4227 25.6501 30.2113 25.274C30.1465 25.1588 30.0732 25.0645 30.0483 25.0645C29.9427 25.0645 29.504 25.5757 29.3891 25.8327C29.3205 25.9862 29.248 26.2749 29.228 26.4744C29.2035 26.719 29.1688 26.8369 29.1213 26.8369C29.0826 26.8369 28.9056 26.9439 28.7281 27.0745C28.4727 27.2626 28.3698 27.3843 28.2354 27.6572C27.981 28.174 27.9961 28.4973 28.3161 29.3886C28.5223 29.9628 28.5717 30.1731 28.5949 30.5755C28.6309 31.1983 28.5366 31.5123 28.2177 31.8304C27.8744 32.1728 27.7376 32.2271 27.3075 32.191C26.7152 32.1414 26.147 31.8301 25.9459 31.4453C25.7115 30.9965 26.0704 30.5533 26.6254 30.6062C26.845 30.6271 26.846 30.6264 26.7295 30.5321C26.1402 30.055 25.0965 30.5385 24.8197 31.4167L24.731 31.6978H24.0518C23.4183 31.6978 23.3522 31.7078 23.0695 31.8465C22.221 32.2633 21.7961 33.322 22.1078 34.243C22.2553 34.6789 22.5077 35.0718 22.8303 35.3676C23.126 35.6388 23.3696 35.7529 23.6528 35.7529L23.856 35.7528L23.6371 35.6445C23.5167 35.5849 23.3639 35.4627 23.2975 35.3729C23.1641 35.1924 23.07 34.7959 23.1762 34.8615C23.2551 34.9103 23.2553 34.8656 23.1767 34.7398C23.1001 34.6171 23.1535 34.3875 23.2906 34.2505C23.5409 34.0001 24.1449 34.0078 24.7145 34.2686C25.0427 34.4189 25.0896 34.487 25.1407 34.8879C25.1887 35.2645 25.3344 35.5421 25.6746 35.9057C25.926 36.1743 25.9347 36.1914 25.7714 36.0976C25.3484 35.8547 24.988 35.3103 24.9077 34.7931L24.8691 34.5444L24.8001 34.8616C24.6896 35.3696 24.7814 35.7076 25.1553 36.1692C25.2692 36.3098 25.3118 36.3975 25.2661 36.3975C25.1437 36.3975 24.9186 36.1221 24.7633 35.7825C24.6353 35.5026 24.6168 35.3945 24.6146 34.9114C24.612 34.3288 24.583 34.3077 24.4419 34.7861C24.3809 34.9929 24.3617 35.2145 24.3777 35.5247C24.3903 35.7684 24.3808 35.9678 24.3566 35.9678C24.3323 35.9678 24.3125 35.9919 24.3125 36.0215C24.3125 36.051 24.3461 36.0752 24.3871 36.0752C24.428 36.0752 24.544 36.214 24.6446 36.3836C24.9574 36.9109 25.6722 37.3993 26.438 37.609C26.6131 37.6569 26.992 37.7093 27.28 37.7254C27.8697 37.7583 27.8611 37.7491 27.7003 38.1725C27.5172 38.6543 27.1616 39.0036 26.7086 39.1465C26.6167 39.1756 26.4932 39.2212 26.4341 39.2481C26.009 39.441 25.1376 39.5134 24.8229 39.382C24.5043 39.2488 24.5179 38.9054 24.8486 38.7344C25.0473 38.6316 25.231 38.6317 25.4773 38.7346C25.5842 38.7793 25.6834 38.8042 25.6977 38.79C25.7461 38.7415 25.5474 38.4947 25.3997 38.4199C24.8349 38.134 24.1007 38.3613 23.773 38.9235C23.6438 39.1453 23.6348 39.1973 23.6715 39.5083C23.7236 39.95 23.909 40.2193 24.3674 40.5189C24.5588 40.6439 24.7669 40.7818 24.8298 40.8253C24.8927 40.8689 24.9566 40.9841 24.9718 41.0814C24.987 41.1787 24.9782 41.9938 24.9521 42.8928C24.9146 44.1888 24.8866 44.5748 24.8171 44.7569C24.7669 44.8885 24.7439 45.0445 24.7635 45.1223C24.8094 45.3056 25.0302 45.3611 25.1787 45.2268C25.2741 45.1404 25.2837 45.0887 25.2519 44.8339C25.2043 44.4529 25.1725 41.7198 25.2114 41.3486C25.2547 40.9351 25.4118 40.7255 25.6939 40.7049C25.865 40.6923 25.929 40.7111 25.9686 40.7854C26.0321 40.9045 26.0676 44.3809 26.0089 44.7308C25.9543 45.0561 26.0048 45.2175 26.1545 45.1957L26.2686 45.1792L26.2526 43.001C26.2345 40.5465 26.2168 40.6546 26.6286 40.7099C26.9054 40.747 27.1408 40.9636 27.2187 41.2528C27.2633 41.4186 27.257 41.5735 27.1909 41.9345C27.0805 42.5384 27.0815 43.0877 27.1937 43.3865C27.3343 43.7611 27.3616 45.2989 27.237 45.828C27.1338 46.2663 27.1603 46.4625 27.3371 46.5701C27.4768 46.6552 27.666 46.4225 27.6146 46.2289C27.5946 46.1538 27.5662 45.6627 27.5514 45.1375C27.5285 44.3169 27.5369 44.164 27.6118 44.0497L27.6989 43.9168L28.0179 44.0777C28.1933 44.1663 28.3586 44.2812 28.3852 44.333C28.4118 44.3848 28.4484 44.9469 28.4664 45.582C28.4844 46.2172 28.5497 47.2408 28.6115 47.8569L28.7239 48.9768L28.6129 49.3422C28.4799 49.7801 28.4763 49.872 28.5856 50.0281C28.7765 50.3006 29.0396 50.0668 29.0384 49.6257C29.0379 49.4843 28.9771 48.8853 28.9031 48.2944C28.6791 46.5061 28.5442 44.4004 28.6538 44.4004C28.7133 44.4004 28.9026 44.6118 28.9836 44.7688C29.0219 44.8427 29.0683 45.3011 29.0952 45.8699C29.1402 46.8217 29.2454 47.6085 29.3674 47.905C29.4515 48.1096 29.5052 48.0897 29.4789 47.864C29.4512 47.6269 29.5411 47.5156 29.7602 47.5156C30.1974 47.5156 30.8786 48.0747 31.0483 48.5729C31.168 48.924 31.1555 49.1759 30.9926 49.6984C30.8005 50.3144 30.826 50.7839 31.0801 51.3098L31.258 51.6782L31.2811 52.8599C31.313 54.4956 31.2069 59.1619 31.127 59.6368C31.0557 60.0611 31.0988 60.3287 31.2543 60.4268C31.328 60.4732 31.3722 60.4602 31.4687 60.3636C31.5806 60.2516 31.5882 60.2063 31.5635 59.8003C31.5121 58.9554 31.5554 53.5164 31.6173 53.0517C31.7197 52.2815 31.8747 52.0789 32.1431 52.3645C32.4376 52.678 32.4962 53.2965 32.3087 54.111C32.1964 54.5986 32.1959 54.6183 32.288 54.9703C32.5166 55.8439 32.528 55.9566 32.528 57.3447C32.528 58.3742 32.5079 58.801 32.4471 59.0635C32.242 59.9492 32.3076 60.5674 32.6069 60.5674C32.8565 60.5674 32.9361 60.3537 32.9058 59.7648C32.8913 59.4825 32.8849 58.4901 32.8917 57.5596C32.9075 55.3692 32.9944 54.6055 33.2277 54.6055C33.4749 54.6055 33.6737 55.4799 33.649 56.4585C33.6318 57.1398 33.6342 57.1571 33.7476 57.1733C33.9094 57.1963 33.9394 57.0603 33.8741 56.5998C33.8234 56.2427 33.8596 55.8364 33.9501 55.7459C34.0308 55.6652 34.1539 55.9095 34.1934 56.2284C34.2172 56.4199 34.2636 56.627 34.2965 56.6886C34.3808 56.846 34.3711 57.1693 34.2693 57.5965C34.2214 57.7978 34.1823 58.1678 34.1825 58.4189C34.1828 58.8276 34.2081 58.9432 34.4235 59.52C34.7369 60.3595 34.7588 60.5345 34.6482 61.3142C34.5411 62.0694 34.5675 62.2819 34.7921 62.4709C34.9946 62.6413 35.0576 62.6425 35.2109 62.4793C35.3968 62.2815 35.4357 62.0058 35.348 61.5096C35.2224 60.8003 35.2441 60.4151 35.4376 59.9132C35.6822 59.2792 35.7516 58.9769 35.7523 58.5436C35.7531 58.0856 35.8379 57.9448 36.0459 58.0566C36.2949 58.1904 37.6257 59.3625 37.677 59.4932C37.7747 59.7419 37.8635 61.6817 37.7961 62.0939C37.7626 62.2983 37.7227 62.4859 37.7074 62.5106C37.6538 62.5973 37.7485 62.7758 37.8388 62.7584C37.918 62.743 37.9283 62.6368 37.9288 61.8288C37.9294 60.9262 37.9311 60.9134 38.0853 60.6211C38.171 60.4586 38.268 60.2359 38.3009 60.1261L38.3607 59.9267L38.8026 60.2786C39.0767 60.4969 39.2597 60.6848 39.2846 60.7735C39.3409 60.9742 39.3348 63.7191 39.2768 64.284C39.2235 64.8027 39.2813 65.0496 39.4702 65.1095C39.6925 65.1801 39.7007 65.1079 39.7007 63.0652C39.7007 61.698 39.7187 61.0923 39.7606 61.0502C39.8049 61.0057 39.9175 61.0524 40.1903 61.2284C40.672 61.5389 41.1288 61.7659 41.5177 61.8879C41.8854 62.0033 41.9699 62.1029 42.2356 62.7338C42.5171 63.4021 42.7204 63.5564 43.0889 63.3815C43.3008 63.2809 43.4923 63.0257 43.7696 62.4741C43.8735 62.2673 44.0036 62.0442 44.0586 61.9784C44.1137 61.9125 44.4659 61.7055 44.8415 61.5184L45.5242 61.1782L45.55 61.316C45.6284 61.7352 45.6379 62.537 45.5779 63.6768C45.5032 65.097 45.5242 65.2639 45.7859 65.3296C45.8905 65.3558 45.9469 65.3337 46.0268 65.2349C46.1231 65.1161 46.1276 65.0597 46.0849 64.5151C46.0594 64.1902 46.0386 63.308 46.0386 62.5547V61.1851L46.2166 60.7726C46.3709 60.415 46.4424 60.3207 46.7537 60.0648C47.2041 59.6944 47.231 59.7254 47.138 60.5074C47.0769 61.0211 47.0791 61.0966 47.1599 61.2529C47.2684 61.4627 47.4247 61.4798 47.5457 61.2951C47.6189 61.1833 47.6253 61.0795 47.5873 60.6102C47.5379 60 47.5496 59.622 47.6274 59.3228C47.6704 59.1574 47.8013 59.0254 48.4422 58.5017C48.8622 58.1584 49.2643 57.8629 49.3359 57.8449C49.5646 57.7875 49.6187 57.94 49.5782 58.5274C49.5367 59.1299 49.5849 59.4006 49.8574 60.0968C50.0775 60.6591 50.1055 61.0605 49.9611 61.5879C49.8582 61.9635 49.8568 62.3561 49.9575 62.5508C50.0922 62.8112 50.3774 62.8479 50.5812 62.631C50.6979 62.507 50.7111 62.4467 50.7081 62.0536C50.7062 61.8122 50.6856 61.3972 50.6623 61.1313L50.6199 60.6479L50.873 59.9766L51.126 59.3052L51.0909 58.4458C51.0647 57.8045 51.0756 57.4685 51.1338 57.1218C51.2049 56.6984 51.2346 56.6291 51.4674 56.3433C51.7714 55.9701 51.9875 55.5236 51.9639 55.3178C51.9479 55.1787 51.9362 55.188 51.7778 55.4648C51.6847 55.6273 51.5244 55.8409 51.4212 55.9395L51.2338 56.1187L51.2821 55.8589C51.3086 55.716 51.3554 55.5225 51.3862 55.4288C51.5221 55.0146 52.0241 54.5469 52.1457 54.7213C52.2093 54.8124 52.15 57.3223 52.0761 57.6669C52.0103 57.9737 52.081 58.2041 52.2409 58.2041C52.3007 58.2041 52.3512 58.186 52.3531 58.1638C52.355 58.1416 52.3646 57.6039 52.3743 56.9688C52.3915 55.8604 52.4732 54.6584 52.544 54.4739C52.6104 54.3009 52.6979 54.4321 52.7602 54.7976C52.795 55.0021 52.8986 55.3715 52.9903 55.6186C53.0985 55.91 53.1782 56.2591 53.2172 56.6123C53.2835 57.2137 53.2497 58.8691 53.1484 59.9834C53.0802 60.7325 53.1015 60.9108 53.2701 61.001C53.4232 61.083 53.6382 60.923 53.7422 60.6496C53.8097 60.4723 53.8079 60.366 53.7271 59.7691C53.6054 58.8695 53.5586 57.493 53.6289 56.8825C53.6628 56.589 53.7422 56.2561 53.8278 56.05C54.0227 55.5805 54.0472 55.1774 53.9321 54.3374C53.8528 53.7583 53.8461 53.5635 53.8946 53.2501C53.9587 52.836 54.0917 52.6014 54.2781 52.5737C54.4365 52.5503 54.5438 52.6483 54.6786 52.9397C54.7875 53.175 54.7904 53.2481 54.7769 55.438C54.7669 57.0572 54.7393 57.8985 54.6791 58.4189C54.6168 58.9577 54.6102 59.1823 54.6532 59.2931C54.7328 59.4974 54.858 59.5331 54.9994 59.3918C55.097 59.2942 55.1139 59.2216 55.1043 58.9412C55.098 58.7574 55.0781 57.6522 55.06 56.4854C55.0325 54.7104 55.0396 54.3398 55.1034 54.2172C55.1587 54.111 55.1681 54.0003 55.1374 53.8144C55.0245 53.128 55.1009 52.3587 55.384 51.3308C55.5267 50.8125 55.4771 50.359 55.2029 49.6755C54.9856 49.1341 55.1121 48.4725 55.5048 48.0972C55.7624 47.8509 55.8957 47.7842 56.1297 47.7842C56.3649 47.7842 56.4847 47.9367 56.4871 48.2393L56.4888 48.4556L56.6171 48.3097C56.9235 47.9617 56.9407 46.8854 56.6514 46.158C56.4422 45.6319 56.4353 45.3277 56.6238 44.9493C56.8485 44.4986 57.3178 44.1867 57.7998 44.168C58.2217 44.1517 58.3808 44.4474 58.2543 45.0127C58.1939 45.2829 58.1967 45.3237 58.283 45.419C58.3599 45.504 58.4001 45.5134 58.487 45.467C58.5884 45.4127 58.5929 45.3746 58.5597 44.861C58.5402 44.5596 58.5415 44.2958 58.5625 44.2747C58.5835 44.2537 58.6082 44.1879 58.6173 44.1286C58.6263 44.0692 58.7537 43.864 58.9005 43.6726C59.1498 43.3474 59.3309 42.9225 59.3329 42.6584C59.3333 42.5974 59.3544 42.5145 59.3799 42.4745C59.4773 42.3207 59.5203 42.5574 59.5386 43.35C59.55 43.8444 59.5323 44.2697 59.4925 44.4575C59.4569 44.6251 59.4434 44.8116 59.4625 44.8718C59.5086 45.0169 59.6545 45.0677 59.7502 44.972C59.8153 44.9069 59.818 44.786 59.7676 44.1835C59.7348 43.7921 59.7076 43.2397 59.7072 42.9559C59.7064 42.4148 59.6869 42.3515 59.4148 42.0093C59.2001 41.7393 59.1543 41.2269 59.3254 41.01C59.5758 40.6926 60.1437 40.588 60.3728 40.8171C60.492 40.9364 60.4974 40.9866 60.5617 42.5762C60.5981 43.4761 60.6362 44.2547 60.6464 44.3064C60.6565 44.3581 60.6432 44.5719 60.6169 44.7815C60.5604 45.2319 60.6089 45.3672 60.8271 45.3672C61.1089 45.3672 61.166 45.1965 61.026 44.7725C60.9341 44.4937 60.7285 42.2109 60.7285 41.4683C60.7285 40.8766 60.7795 40.7357 60.9875 40.7521C61.1348 40.7637 61.1794 40.7508 61.5736 40.5831C62.2771 40.2837 62.6463 39.6096 62.4186 39.0403C62.1238 38.3037 60.9976 38.0298 60.5164 38.5779C60.3152 38.807 60.3022 38.9156 60.4941 38.7647C60.8029 38.5217 61.5158 38.6715 61.643 39.006C61.7661 39.3298 61.5005 39.4433 60.7542 39.3859C59.5879 39.2963 58.7554 38.7382 58.6068 37.9464L58.5709 37.7547L59.126 37.7257C60.1253 37.6736 60.8838 37.3676 61.4859 36.7739C61.9481 36.3181 62.0921 35.9751 62.0951 35.3232C62.097 34.8907 61.9748 34.349 61.8591 34.2775C61.8356 34.263 61.8286 34.4654 61.8435 34.7273C61.8796 35.3598 61.7365 35.8635 61.4289 36.1869C61.1535 36.4764 61.0297 36.4127 61.2957 36.1183C61.5956 35.7863 61.6934 35.5229 61.6904 35.0547C61.687 34.5354 61.6199 34.3369 61.5702 34.6993C61.5004 35.2087 61.1495 35.7419 60.7199 35.9914C60.5581 36.0853 60.5688 36.0645 60.8296 35.7779C61.1623 35.4123 61.2943 35.14 61.3483 34.7079C61.3737 34.5041 61.4235 34.3673 61.4972 34.2987C61.7847 34.0308 62.6496 33.8693 62.9463 34.0282C63.4125 34.2777 63.3173 35.1296 62.781 35.506L62.544 35.6724L62.7067 35.6889C62.9767 35.7164 63.3802 35.5027 63.7085 35.1585C64.959 33.8476 64.2705 31.7524 62.549 31.6292C62.2298 31.6064 61.8941 31.6517 61.629 31.7535C61.5685 31.7767 61.5399 31.7277 61.5124 31.553C61.4364 31.0715 61.1283 30.6586 60.8164 30.6202C60.7533 30.6124 60.6118 30.5676 60.502 30.5208C60.2708 30.4221 60.033 30.413 59.7484 30.4921C59.5041 30.5599 59.246 30.7695 59.2998 30.8564C59.3589 30.9521 59.4462 30.9308 59.4284 30.825C59.4157 30.7493 59.4586 30.7277 59.6483 30.7141C60.1629 30.6772 60.3836 30.9248 60.1909 31.3229C59.8412 32.0452 58.4486 32.2926 57.9654 31.7183C57.7592 31.4733 57.7053 31.2123 57.732 30.5904C57.7529 30.1052 57.7894 29.932 58.0129 29.2582C58.2193 28.6357 58.2649 28.433 58.2449 28.2256C58.207 27.831 57.9284 27.3199 57.5753 26.9971C57.1439 26.6029 56.8984 26.521 56.8404 26.7519C56.8225 26.8233 56.6879 27.013 56.5414 27.1733C56.2568 27.4847 55.8313 27.7133 55.438 27.7662C55.2562 27.7906 55.2438 27.7867 55.3574 27.7407C56.1036 27.4387 56.4024 27.201 56.6446 26.7164C56.778 26.4493 56.8072 26.3258 56.8053 26.0361C56.804 25.8414 56.7713 25.5935 56.7326 25.4852C56.6608 25.2843 56.2903 24.7417 56.2257 24.7428C56.206 24.7432 56.1416 24.845 56.0825 24.9693C55.7891 25.5862 55.1413 26.2018 54.5928 26.3852C54.2718 26.4925 53.5108 26.5157 53.4162 26.421C53.3724 26.3773 53.4191 26.3452 53.5916 26.3008C54.7003 26.0152 55.3673 25.5287 55.7813 24.7035C55.9006 24.4658 56.0709 23.8802 56.0321 23.8413C56.0196 23.8289 55.9615 23.9117 55.903 24.0253C55.7275 24.3658 55.4383 24.659 55.1002 24.8392L54.781 25.0093L55.1947 24.5938C55.7645 24.0214 55.9777 23.5888 55.9685 23.0243C55.9533 22.1051 55.2656 21.0694 54.4738 20.7732C54.1952 20.6689 53.4776 20.5592 53.4776 20.6208C53.4776 20.6368 53.5826 20.7115 53.7109 20.7866C53.9501 20.9269 54.1459 21.1465 54.3021 21.4497C54.4547 21.7459 54.3994 21.7491 54.1621 21.458C53.9128 21.1522 53.3177 20.7139 53.1519 20.7139C52.9677 20.7139 53.0406 20.8521 53.3299 21.0514C53.8822 21.4319 54.2832 21.9452 54.2832 22.2718C54.2832 22.5603 53.9641 23.1599 53.6343 23.4911C53.334 23.7925 52.9552 24.0766 52.9115 24.033C52.8967 24.0182 52.9239 23.8393 52.9718 23.6356C53.0867 23.1473 53.0487 22.1213 52.8982 21.6481C52.578 20.6414 51.8355 19.852 51.032 19.664C50.8918 19.6312 50.9028 19.6472 51.124 19.7969C51.8313 20.2757 52.3536 21.0683 52.5359 21.9393C52.6395 22.4341 52.6372 22.6651 52.5326 22.2715C52.3468 21.5721 51.9189 20.8719 51.3496 20.3358C50.9933 20.0003 50.8489 19.8955 50.3892 19.6386L50.0669 19.4586L50.4212 19.8368C50.8985 20.3463 51.2371 20.8312 51.4654 21.3322C51.6684 21.7776 51.6842 21.9537 51.4863 21.565C50.9804 20.5713 50.1048 19.6719 49.204 19.2205C48.8788 19.0576 48.2076 18.8877 47.889 18.8877H47.7208L47.9808 19.096C48.4431 19.4664 48.7465 19.8552 49.0696 20.4908C49.2359 20.8182 49.1757 20.8258 48.9983 20.4999C48.7788 20.0966 48.309 19.5341 47.9742 19.2738C47.5745 18.963 47.2752 18.8648 46.8821 18.9154L46.5757 18.9548L46.898 19.0445C47.3686 19.1756 47.7347 19.3951 48.103 19.7672C48.6486 20.3183 48.957 20.8751 49.1063 21.5783C49.2345 22.1819 49.1261 22.9981 48.923 22.959C48.8761 22.95 48.6826 22.6326 48.4861 22.2423C48.1326 21.5405 47.8614 21.1226 47.6011 20.8791C47.5246 20.8074 47.4619 20.7128 47.4619 20.6687C47.4619 20.6246 47.4475 20.6029 47.43 20.6205C47.4124 20.6381 47.2547 20.5469 47.0795 20.418C46.9043 20.289 46.6281 20.1337 46.4657 20.073C46.0606 19.9214 45.4789 19.8355 45.3112 19.9024L45.1792 19.9551L45.3135 19.9591C45.6554 19.9692 46.2469 20.2241 46.67 20.5436C47.2831 21.0065 47.4743 21.7302 47.0861 22.1184C46.9181 22.2864 46.695 22.3169 46.3957 22.2125C46.3027 22.1801 46.2267 22.1499 46.2268 22.1454C46.2269 22.1409 46.2873 22.0183 46.3611 21.873C46.4993 21.6005 46.5366 21.2371 46.4414 21.0898C46.4002 21.026 46.3892 21.0371 46.3884 21.1436C46.3878 21.2174 46.3402 21.3551 46.2826 21.4495C46.1085 21.7351 45.7873 21.7987 44.7227 21.7584C44.0124 21.7315 43.7573 21.7421 43.4377 21.8114C42.1195 22.0975 41.3559 23.0519 41.5553 24.1638C41.5885 24.349 41.7087 24.7383 41.8224 25.0288C41.9983 25.4786 42.0124 25.5425 41.9168 25.4585C41.6161 25.1943 41.4279 24.9495 41.2444 24.5835C41.0502 24.1967 41.0435 24.1642 41.0437 23.6167C41.044 23.0031 41.1036 22.8199 41.4303 22.4277L41.5806 22.2473L41.4139 22.3649C41.1933 22.5205 40.9886 22.7948 40.8119 23.1719C40.6853 23.4419 40.6675 23.5464 40.6675 24.0171C40.6675 24.4736 40.6903 24.6162 40.8195 24.9673C40.9031 25.1946 41.0997 25.5753 41.2563 25.8133C41.4129 26.0513 41.5168 26.2461 41.4872 26.2461C41.3634 26.2461 40.7581 25.827 40.4165 25.5048C40.0009 25.1127 39.628 24.5832 39.4172 24.0856C39.2886 23.7822 39.2742 23.6816 39.2727 23.0771C39.2711 22.4508 39.281 22.3855 39.4195 22.1036C39.5011 21.9373 39.6703 21.6929 39.7954 21.5602C40.1072 21.2298 40.4538 21.1108 41.3195 21.0368C42.6883 20.9197 43.213 20.7374 43.4779 20.2869C43.737 19.8462 43.6285 19.1016 43.2357 18.6246L43.1296 18.4957L43.1204 18.7315ZM53.9867 18.9968C53.9659 19.0306 53.9741 19.0835 54.005 19.1144C54.0772 19.1865 54.2455 19.1236 54.2161 19.0353C54.1862 18.9456 54.0342 18.92 53.9867 18.9968ZM32.5498 19.6126C32.5312 19.661 32.5408 19.7254 32.5712 19.7557C32.6587 19.8433 32.8257 19.7842 32.8257 19.6658C32.8257 19.5292 32.5986 19.4854 32.5498 19.6126ZM55.7974 19.59C55.808 19.6217 55.8396 19.6477 55.8677 19.6477C55.8958 19.6477 55.9274 19.6217 55.9379 19.59C55.9485 19.5582 55.9169 19.5322 55.8677 19.5322C55.8184 19.5322 55.7869 19.5582 55.7974 19.59ZM52.8545 19.7148C52.8349 19.7661 52.8453 19.8346 52.8778 19.8671C52.9208 19.91 52.9467 19.9007 52.9727 19.833C52.9923 19.7818 52.9819 19.7133 52.9494 19.6808C52.9064 19.6378 52.8805 19.6471 52.8545 19.7148ZM53.3164 19.6934C53.253 19.7326 53.2504 19.7562 53.3034 19.8093C53.3553 19.8612 53.3845 19.8616 53.4346 19.8115C53.5217 19.7244 53.4241 19.6268 53.3164 19.6934ZM54.9654 20.3025C54.924 20.4101 55.0123 20.5193 55.1103 20.4817C55.2342 20.4341 55.2215 20.2305 55.0946 20.2305C55.0387 20.2305 54.9805 20.2629 54.9654 20.3025ZM27.774 20.7723C27.7186 20.8618 27.8431 20.9645 27.9172 20.8904C27.9792 20.8284 27.9404 20.7139 27.8574 20.7139C27.8314 20.7139 27.7938 20.7401 27.774 20.7723ZM59.6364 21.2868C59.5746 21.3486 59.5973 21.4121 59.6812 21.4121C59.7255 21.4121 59.7617 21.3759 59.7617 21.3315C59.7617 21.2476 59.6982 21.225 59.6364 21.2868ZM57.9995 21.3987C58.0095 21.4504 58.0532 21.4927 58.0967 21.4927C58.1402 21.4927 58.1839 21.4504 58.1939 21.3987C58.2066 21.3327 58.1776 21.3047 58.0967 21.3047C58.0158 21.3047 57.9868 21.3327 57.9995 21.3987ZM29.9522 21.6807C29.9522 21.7102 29.9763 21.7344 30.0059 21.7344C30.0354 21.7344 30.0596 21.7102 30.0596 21.6807C30.0596 21.6511 30.0354 21.627 30.0059 21.627C29.9763 21.627 29.9522 21.6511 29.9522 21.6807ZM48.9121 21.8418C48.9121 21.8713 48.9363 21.8955 48.9658 21.8955C48.9954 21.8955 49.0196 21.8713 49.0196 21.8418C49.0196 21.8123 48.9954 21.7881 48.9658 21.7881C48.9363 21.7881 48.9121 21.8123 48.9121 21.8418ZM55.3078 22.8086C55.3008 23.2317 55.1746 23.6311 54.9325 23.996C54.8282 24.1532 54.8417 24.146 55.0308 23.9431C55.3548 23.5955 55.4982 22.9796 55.3574 22.54C55.327 22.445 55.3125 22.5235 55.3078 22.8086ZM30.6873 22.7433C30.6154 23.2398 30.7885 23.7496 31.1379 24.0708L31.3133 24.2319L31.2036 24.0708C30.9219 23.657 30.7955 23.3188 30.7619 22.8892L30.7283 22.4595L30.6873 22.7433ZM60.4083 22.9123C60.3662 22.9909 60.3737 23.0369 60.4395 23.1027C60.4872 23.1504 60.5518 23.1808 60.5832 23.1703C60.6779 23.1388 60.7478 22.99 60.7119 22.8965C60.6656 22.7759 60.476 22.7858 60.4083 22.9123ZM27.2252 22.9789C27.0626 23.1415 27.2739 23.3512 27.4606 23.2125C27.5415 23.1524 27.55 23.1175 27.5026 23.04C27.4281 22.9184 27.3114 22.8927 27.2252 22.9789ZM57.3179 23.1309C57.2965 23.1656 57.3031 23.2181 57.3326 23.2476C57.3684 23.2835 57.3993 23.2803 57.4253 23.2383C57.4467 23.2036 57.4401 23.1511 57.4106 23.1215C57.3748 23.0857 57.3439 23.0888 57.3179 23.1309ZM25.6016 23.4531C25.6016 23.4827 25.6272 23.5068 25.6585 23.5068C25.6897 23.5068 25.7004 23.4827 25.6821 23.4531C25.6639 23.4236 25.6383 23.3994 25.6253 23.3994C25.6122 23.3994 25.6016 23.4236 25.6016 23.4531ZM29.3727 23.9466C29.2785 24.0408 29.2927 24.1396 29.4094 24.2021C29.5447 24.2744 29.6779 24.132 29.5961 24.0024C29.5228 23.8861 29.4511 23.8683 29.3727 23.9466ZM28.3408 24.0439C28.3408 24.0735 28.365 24.0977 28.3945 24.0977C28.4241 24.0977 28.4483 24.0735 28.4483 24.0439C28.4483 24.0144 28.4241 23.9902 28.3945 23.9902C28.365 23.9902 28.3408 24.0144 28.3408 24.0439ZM26.3323 24.3208C26.188 24.5268 26.3952 24.7562 26.6179 24.637C26.7604 24.5608 26.765 24.3353 26.6256 24.2607C26.4753 24.1803 26.4232 24.191 26.3323 24.3208ZM58.2847 25.2793C58.3029 25.3088 58.3285 25.333 58.3416 25.333C58.3546 25.333 58.3653 25.3088 58.3653 25.2793C58.3653 25.2498 58.3396 25.2256 58.3084 25.2256C58.2771 25.2256 58.2664 25.2498 58.2847 25.2793ZM27.6262 25.3136C27.5832 25.3565 27.6317 25.4404 27.6995 25.4404C27.7273 25.4404 27.75 25.4042 27.75 25.3599C27.75 25.2768 27.6866 25.2531 27.6262 25.3136ZM28.8242 25.4941C28.8242 25.5237 28.8499 25.5479 28.8811 25.5479C28.9124 25.5479 28.9231 25.5237 28.9048 25.4941C28.8865 25.4646 28.861 25.4404 28.8479 25.4404C28.8349 25.4404 28.8242 25.4646 28.8242 25.4941ZM58.6032 25.715C58.5569 25.7899 58.6968 25.8824 58.7603 25.8188C58.8119 25.7672 58.7622 25.6553 58.6875 25.6553C58.6615 25.6553 58.6236 25.6821 58.6032 25.715ZM59.9224 25.7363C59.8717 25.7974 59.8685 25.8372 59.9108 25.8795C59.9923 25.961 60.1494 25.8896 60.1283 25.7807C60.1041 25.6563 60.0063 25.6352 59.9224 25.7363ZM45.582 25.8258C45.0951 25.8951 44.3977 26.1387 43.7457 26.467C42.9869 26.8491 42.7361 26.8652 41.6343 26.6028C40.4679 26.325 40.1171 26.2784 39.2173 26.2814C37.9182 26.2857 36.9234 26.5119 35.8335 27.0507C34.0718 27.9218 32.8709 29.5237 32.39 31.644C32.2549 32.24 32.2309 33.922 32.3406 35.1132C32.3906 35.6571 32.4493 36.1866 32.471 36.29C32.5075 36.4635 32.5134 36.451 32.5473 36.1289C32.5675 35.9369 32.6199 35.3326 32.6638 34.7861C32.7077 34.2396 32.7699 33.6112 32.8021 33.3896C32.9773 32.1836 33.3809 31.215 33.9636 30.6025L34.2502 30.3013L34.0106 30.6973C33.4357 31.6475 33.2378 32.593 33.1207 34.9473C32.9945 37.4885 32.8473 38.3906 32.1851 40.6816C31.7386 42.2264 31.6054 42.9376 31.599 43.8096C31.5949 44.3664 31.6162 44.6095 31.6908 44.8569C31.8657 45.4372 32.1459 45.9017 32.5853 46.3401C33.0671 46.8206 33.2292 46.8882 34.1148 46.9783C34.6923 47.037 34.9586 47.1115 36.1274 47.5412C36.4498 47.6598 36.5827 47.6824 36.8034 47.6565C37.0749 47.6246 38.5275 47.1547 38.8052 47.0091C38.8841 46.9677 39.1614 46.7125 39.4214 46.4422C39.9208 45.9228 40.2929 45.691 40.6289 45.69C40.9988 45.6889 40.8684 46.0625 40.4633 46.1645C40.2099 46.2284 39.9205 46.4961 39.7512 46.8235C39.6267 47.0643 39.6373 47.4598 39.7758 47.7462C39.8765 47.9541 40.7107 49.0195 40.7729 49.0195C40.7859 49.0195 40.7579 48.915 40.7105 48.7871C40.6016 48.4934 40.6474 48.2814 40.8294 48.2357C41.0622 48.1773 41.208 48.2558 41.6957 48.7019C42.3027 49.2573 42.5698 49.4165 42.892 49.4151C43.2175 49.4137 43.4854 49.269 44.0291 48.8007C44.5703 48.3345 44.7735 48.227 44.9783 48.2987C45.2033 48.3773 45.1966 48.5702 44.958 48.8827L44.7586 49.1438L44.9896 49.0145C45.5876 48.6798 46.1191 47.9209 46.1191 47.4013C46.1192 46.9008 45.7905 46.399 45.3571 46.2379C45.1533 46.1622 45.0579 46.0935 45.0233 45.9975C44.8617 45.5492 45.4157 45.5961 45.9351 46.0748C46.0738 46.2026 46.2945 46.4465 46.4255 46.6168C46.5566 46.7871 46.7536 46.9723 46.8633 47.0283C47.1769 47.1883 49.2068 47.7262 49.7147 47.7839C50.5413 47.8778 51.4476 47.7202 52.2154 47.3491C53.5352 46.7109 54.3379 45.3877 54.3365 43.8521C54.336 43.2887 54.2918 43.0149 53.9351 41.3657C53.2885 38.3772 53.0839 37.1076 52.9134 35.0278C52.6957 32.3713 52.5093 31.4956 51.9661 30.5772L51.7076 30.1401L51.9883 30.4439C52.6654 31.1765 52.9859 31.9631 53.4509 34.0342L53.6257 34.813L53.6725 34.3833C53.7564 33.6128 53.7274 32.1269 53.6186 31.6172C53.4112 30.6456 52.9351 29.6132 52.3182 28.7974C50.7317 26.6993 47.9775 25.4842 45.582 25.8258ZM26.4953 26.3371C26.4348 26.3976 26.4585 26.4609 26.5415 26.4609C26.5858 26.4609 26.6221 26.4382 26.6221 26.4104C26.6221 26.3427 26.5382 26.2942 26.4953 26.3371ZM26.1924 26.5146C26.1924 26.5442 26.2151 26.5684 26.2429 26.5684C26.2708 26.5684 26.3084 26.5442 26.3267 26.5146C26.3449 26.4851 26.3222 26.4609 26.2761 26.4609C26.2301 26.4609 26.1924 26.4851 26.1924 26.5146ZM23.5457 27.1664C23.4147 27.2397 23.4262 27.4657 23.5631 27.5091C23.6947 27.5508 23.8291 27.453 23.8291 27.3156C23.8291 27.1845 23.6665 27.0989 23.5457 27.1664ZM27.9261 27.2732C27.8436 27.3557 27.901 27.4814 28.0211 27.4814C28.1531 27.4814 28.204 27.3874 28.1241 27.2911C28.0461 27.1972 28.0057 27.1935 27.9261 27.2732ZM58.6338 27.562C58.6338 27.6063 58.6701 27.6426 58.7144 27.6426C58.7587 27.6426 58.7949 27.6063 58.7949 27.562C58.7949 27.5177 58.7587 27.4814 58.7144 27.4814C58.6701 27.4814 58.6338 27.5177 58.6338 27.562ZM25.709 27.75C25.709 27.7795 25.7332 27.8037 25.7627 27.8037C25.7923 27.8037 25.8164 27.7795 25.8164 27.75C25.8164 27.7205 25.7923 27.6963 25.7627 27.6963C25.7332 27.6963 25.709 27.7205 25.709 27.75ZM23.3827 28.2681C23.3089 28.3419 23.3471 28.4559 23.4397 28.438C23.4914 28.428 23.5337 28.386 23.5337 28.3446C23.5337 28.2598 23.439 28.2118 23.3827 28.2681ZM30.4478 28.3809C30.1463 28.4812 29.831 28.7029 29.7351 28.8821C29.688 28.97 29.7199 28.9598 29.9007 28.8287C30.4293 28.4459 31.216 28.3345 31.8505 28.5528C32.0176 28.6103 32.1543 28.6452 32.1543 28.6304C32.1543 28.6156 32.0154 28.5418 31.8455 28.4665C31.4356 28.2846 30.8456 28.2485 30.4478 28.3809ZM58.3115 28.3945C58.3115 28.4241 58.3372 28.4482 58.3684 28.4482C58.3997 28.4482 58.4104 28.4241 58.3921 28.3945C58.3738 28.365 58.3483 28.3408 58.3352 28.3408C58.3222 28.3408 58.3115 28.365 58.3115 28.3945ZM61.2764 28.459C61.116 28.6194 61.2939 28.8704 61.4925 28.7641C61.6108 28.7007 61.6179 28.4712 61.5029 28.4271C61.3831 28.3811 61.3495 28.3858 61.2764 28.459ZM25.144 28.9334C25.1231 28.9671 25.1313 29.02 25.1622 29.0509C25.2344 29.1231 25.4027 29.0601 25.3733 28.9719C25.3434 28.8821 25.1914 28.8566 25.144 28.9334ZM58.9881 29.5678C58.9696 29.5979 58.9805 29.6386 59.0125 29.6584C59.0951 29.7094 59.1484 29.6396 59.0794 29.5706C59.0408 29.532 59.0108 29.5311 58.9881 29.5678ZM37.3118 29.8972C37.181 30.028 37.1768 30.0792 37.2875 30.19C37.3999 30.3023 37.4888 30.2964 37.6041 30.169C37.7138 30.0479 37.6868 29.9311 37.5296 29.847C37.4416 29.7999 37.3994 29.8096 37.3118 29.8972ZM21.627 30.0538C21.627 30.1711 21.739 30.2306 21.8411 30.1674C21.9409 30.1058 21.8659 29.9521 21.7361 29.9521C21.6648 29.9521 21.627 29.9874 21.627 30.0538ZM46.7637 30.3013C46.7637 30.3566 46.7989 30.3829 46.8577 30.3716C46.9709 30.3498 46.9638 30.2545 46.8471 30.2302C46.7984 30.2201 46.7637 30.2497 46.7637 30.3013ZM59.2589 30.4728C59.1985 30.5333 59.2222 30.5967 59.3052 30.5967C59.3495 30.5967 59.3858 30.574 59.3858 30.5461C59.3858 30.4784 59.3019 30.4299 59.2589 30.4728ZM60.9071 30.825C61.4784 31.59 60.9977 32.7765 59.9008 33.3084C59.4836 33.5108 58.8655 33.6552 58.3809 33.6636L58.0698 33.669L58.2847 33.7218C58.6041 33.8003 59.2628 33.7353 59.6791 33.5841C61.0082 33.1018 61.6874 31.7525 61.0466 30.868C60.9599 30.7483 60.8637 30.6504 60.8329 30.6504C60.802 30.6504 60.8354 30.7289 60.9071 30.825ZM25.5518 31.0068C25.4752 31.104 25.4404 31.2267 25.4404 31.3991C25.4404 32.0852 26.3486 32.7532 27.2636 32.7401L27.6157 32.735L27.2512 32.6625C26.7667 32.5662 26.3613 32.3743 26.0648 32.101C25.6755 31.7422 25.5017 31.2596 25.6572 30.9691C25.7362 30.8214 25.6825 30.8406 25.5518 31.0068ZM60.4697 31.0531C60.5564 31.2435 60.4474 31.5714 60.2099 31.8343C59.9616 32.1091 59.3854 32.3935 58.8927 32.4845L58.4995 32.5571L58.9622 32.5725C59.724 32.5979 60.3239 32.3008 60.5903 31.766C60.7576 31.4303 60.7646 31.2478 60.6172 31.0605C60.4763 30.8813 60.3895 30.877 60.4697 31.0531ZM22.8086 31.0801C22.8086 31.1096 22.8328 31.1338 22.8623 31.1338C22.8919 31.1338 22.916 31.1096 22.916 31.0801C22.916 31.0505 22.8919 31.0264 22.8623 31.0264C22.8328 31.0264 22.8086 31.0505 22.8086 31.0801ZM27.5024 31.7477C27.4489 31.8871 27.5238 32.0022 27.6558 31.9835C27.7445 31.9709 27.7769 31.9305 27.7769 31.832C27.7769 31.7336 27.7445 31.6932 27.6558 31.6806C27.5831 31.6703 27.5217 31.6971 27.5024 31.7477ZM48.6663 32.4538C48.3819 32.7382 48.1967 33.0244 48.0892 33.3456C48.0687 33.4069 47.9763 33.4455 47.8007 33.4659C46.7743 33.5855 45.9647 33.8368 44.9787 34.3418C44.6025 34.5345 44.2317 34.6921 44.1546 34.6921C44.0574 34.6921 43.9252 34.6039 43.7219 34.4034C43.4224 34.108 43.3301 33.9045 43.2448 33.3509C43.1764 32.9076 42.839 32.6981 42.6523 32.983C42.6053 33.0548 42.532 33.3132 42.4894 33.5573C42.406 34.0353 42.3535 34.1413 42.0233 34.4995C41.7435 34.803 41.6378 34.7998 40.9783 34.4681C40.0984 34.0256 39.2829 33.8193 38.4129 33.8193C38.0575 33.8193 37.9549 33.8007 37.8849 33.7234C37.7595 33.5849 37.6328 33.2576 37.6328 33.0723C37.6328 32.9845 37.6087 32.8977 37.5791 32.8794C37.5496 32.8611 37.5234 32.757 37.5211 32.648L37.5167 32.4497L37.4485 32.604L37.3803 32.7583L37.309 32.4966C37.2517 32.2862 37.2338 32.2612 37.2178 32.3691C37.1804 32.6209 37.1381 32.6759 37.0937 32.5303C37.0597 32.4188 37.0516 32.4142 37.0459 32.5034C37.0412 32.579 37.0096 32.5472 36.9394 32.396L36.8395 32.1812L36.8684 32.4176C36.8911 32.6039 36.8823 32.6449 36.8269 32.6107C36.7747 32.5784 36.7642 32.5966 36.7863 32.681C36.8027 32.7437 36.7846 32.821 36.7462 32.8529C36.7077 32.8848 36.5973 33.1093 36.5008 33.3517C36.2818 33.9017 36.26 33.9337 35.9366 34.1779C34.8716 34.9819 34.0214 35.9978 33.5228 37.0622C33.1871 37.779 33.1812 37.871 33.4999 37.418C33.8945 36.8571 34.3858 36.2774 34.8491 35.826C35.2506 35.4349 35.9937 34.8398 36.0807 34.8398C36.1431 34.8398 36.1415 35.1986 36.0728 36.6122C36.0043 38.0244 35.9711 38.1403 35.5463 38.4477C35.3793 38.5685 35.0855 38.8297 34.8935 39.028C34.4505 39.4856 34.2969 39.5625 33.693 39.6289C33.4228 39.6587 33.1292 39.7026 33.0405 39.7266C32.88 39.7701 32.8802 39.7703 33.0837 39.7758C33.196 39.7788 33.4619 39.8224 33.6745 39.8728L34.0611 39.9643L33.6582 40.0189L33.2554 40.0734L33.5239 40.1039L33.7925 40.1346L33.4165 40.1831L33.0405 40.2316L33.3091 40.2967L33.5777 40.3618L33.1748 40.3685C32.7058 40.3765 32.7488 40.4369 33.3068 40.5539C33.5034 40.5951 33.6758 40.6403 33.6899 40.6544C33.704 40.6685 33.5637 40.6979 33.3781 40.7197L33.0405 40.7595L33.3897 40.8603C33.5817 40.9158 33.8431 40.9871 33.9705 41.0188C34.1094 41.0532 34.1933 41.102 34.1799 41.1405C34.1676 41.1757 34.2316 41.2408 34.3223 41.2852C34.4958 41.37 34.9111 41.9116 34.8626 41.9901C34.8471 42.0153 34.6916 41.9638 34.5172 41.8758C34.1729 41.702 33.3928 41.4252 33.3547 41.4634C33.3417 41.4764 33.447 41.5544 33.5887 41.6368C34.0348 41.8964 34.5879 42.3297 34.8756 42.645C35.2726 43.0799 35.354 43.3485 35.3349 44.1587C35.321 44.7456 35.3879 45.2602 35.4779 45.2596C35.4963 45.2594 35.5154 45.1776 35.5204 45.0777C35.5255 44.9779 35.5822 44.7931 35.6464 44.6671C35.7107 44.5411 35.7858 44.2791 35.8134 44.0847C35.8837 43.5882 35.9815 43.5262 36.1575 43.8666C36.22 43.9876 36.2431 44.2652 36.2562 45.0583C36.2756 46.2186 36.3301 46.4665 36.6379 46.7929C36.8101 46.9755 37.0346 47.0351 37.1822 46.9374C37.4002 46.7932 37.5787 45.9132 37.579 44.9813C37.5791 44.6361 37.6018 44.294 37.6296 44.2211C37.7152 43.9957 37.8991 43.8678 38.7608 43.4344C39.2186 43.2041 39.841 42.8692 40.1438 42.6901C40.4466 42.5111 40.6944 42.386 40.6944 42.4122C40.6944 42.4644 40.2224 43.1801 39.9763 43.5012C39.8916 43.6117 39.8369 43.7021 39.8549 43.7021C39.8909 43.7021 40.5636 43.2652 40.6985 43.1542C40.8723 43.0112 41.1581 42.5873 41.2542 42.33C41.3807 41.9912 41.4646 41.8971 41.7954 41.7229L42.064 41.5814L41.876 41.5665C41.5404 41.5399 41.4463 41.5025 41.4463 41.3959C41.4463 41.3221 41.5169 41.2698 41.7014 41.2072C41.8417 41.1595 42.0035 41.0851 42.0608 41.0417C42.1601 40.9667 42.1574 40.9629 42.0063 40.9629C41.7535 40.9629 41.543 40.8112 41.0093 40.2444C40.5447 39.751 40.5218 39.7165 40.6826 39.7518C41.1146 39.8467 41.4189 39.6298 41.6573 39.0572C41.9025 38.4681 41.9194 38.2475 41.7478 37.8727C41.5583 37.4588 41.0022 36.9168 40.4929 36.6496C40.2787 36.5372 40.1035 36.4562 40.1035 36.4695C40.1035 36.4828 40.2251 36.5717 40.3737 36.667C40.9169 37.0156 41.3389 37.6309 41.3389 38.0742C41.3389 38.2792 41.1621 38.6156 40.9784 38.7601C40.7847 38.9124 40.5813 38.8862 40.023 38.6368C39.7866 38.5313 39.3095 38.3717 38.9627 38.2822C38.1812 38.0805 38.0339 38.0069 37.9611 37.7814C37.8479 37.4305 37.7762 36.5615 37.7717 35.4844L37.7671 34.3833L38.3579 34.3895C39.2808 34.3992 40.2459 34.6796 41.1261 35.1938C41.967 35.685 42.2814 36.0331 42.5427 36.763C42.7016 37.2067 42.7185 37.2308 42.8802 37.2465C43.0821 37.2662 43.1339 37.1914 43.1895 36.8003C43.2733 36.2104 43.602 35.7709 44.3722 35.2191C45.4891 34.4189 46.4218 34.0566 47.5247 33.9945L48.0439 33.9653L48.0727 34.2012C48.1443 34.7882 48.1546 35.5 48.1043 36.3846C48.041 37.4981 47.9749 37.8234 47.7842 37.9607C47.7103 38.0139 47.3599 38.1209 47.0054 38.1984C46.6509 38.276 46.1665 38.4221 45.929 38.5232C45.3923 38.7516 45.2629 38.7537 45.0168 38.5376C44.2754 37.8865 44.5241 36.8504 45.5552 36.2949C45.6908 36.2219 45.7205 36.1916 45.6358 36.213C45.025 36.3664 44.3292 36.9572 44.1606 37.4656C44.0258 37.8718 44.0729 38.2141 44.3409 38.7755C44.6234 39.3674 44.813 39.5361 45.1503 39.496C45.2844 39.48 45.5089 39.4177 45.6492 39.3575C45.7895 39.2973 45.9043 39.2623 45.9043 39.2799C45.9043 39.35 44.4815 40.7792 44.3515 40.8396C44.275 40.8752 44.1283 40.9054 44.0254 40.9068L43.8384 40.9092L44.0254 41.0353C44.1283 41.1046 44.2849 41.185 44.3736 41.214C44.4751 41.2472 44.5409 41.3091 44.5516 41.3815C44.5736 41.5304 44.3701 41.5864 44.0772 41.512C43.8038 41.4426 43.8434 41.5079 44.221 41.7495C44.3828 41.853 44.5391 42.0008 44.5713 42.0808C44.7554 42.538 44.9526 42.8903 45.1089 43.0416C45.3064 43.2327 45.9708 43.7073 45.9999 43.6782C46.0101 43.6679 45.9263 43.5378 45.8137 43.389C45.5561 43.0485 45.2373 42.5251 45.2685 42.4939C45.2815 42.4809 45.6267 42.7211 46.0357 43.0276C46.964 43.7235 47.2303 43.8633 47.6282 43.8633C48.0087 43.8633 48.0407 43.9208 48.0648 44.6495C48.0818 45.1609 48.094 45.2115 48.2648 45.482C48.6292 46.0595 48.6546 46.137 48.785 47.0719C48.8368 47.443 49.2123 47.4026 49.4332 47.0021C49.5979 46.7035 49.6631 46.0602 49.6639 44.7227C49.6647 43.6255 49.705 43.2871 49.8494 43.1672C49.9104 43.1166 49.9447 43.1335 50.0223 43.252C50.1046 43.3776 50.1237 43.5622 50.1489 44.4775C50.1756 45.4501 50.19 45.5771 50.2965 45.7798C50.3614 45.9033 50.4356 46.0175 50.4614 46.0334C50.4871 46.0494 50.5244 45.8494 50.544 45.5891C50.5636 45.3288 50.6051 45.0334 50.6362 44.9327C50.6673 44.832 50.7124 44.4111 50.7363 43.9976C50.7996 42.9021 50.9849 42.4771 51.5714 42.0819L51.8636 41.8851L51.6732 41.7727C51.5313 41.689 51.4872 41.63 51.5 41.5409C51.514 41.4427 51.5699 41.4109 51.8125 41.3629L52.1079 41.3044L51.8799 41.2632C51.7546 41.2406 51.639 41.2011 51.6231 41.1754C51.5824 41.1095 51.7967 40.9832 52.0811 40.9057L52.3228 40.8398L52.1423 40.7909C52.0431 40.7639 51.9754 40.7284 51.9919 40.712C52.0083 40.6955 52.2577 40.6348 52.5459 40.5772C53.2552 40.4354 53.3356 40.377 52.833 40.3685L52.4302 40.3618L52.6987 40.2927L52.9673 40.2237L52.6987 40.2165C52.5039 40.2113 52.4523 40.195 52.5108 40.1572C52.5707 40.1184 52.5364 40.1033 52.3765 40.098C52.1687 40.0911 52.1669 40.0894 52.3228 40.0498C52.466 40.0134 52.454 40.0075 52.2154 39.9971L51.9468 39.9855L52.1616 39.9177C52.2798 39.8803 52.5656 39.8322 52.7967 39.8106C53.0279 39.789 53.2057 39.76 53.1919 39.7462C53.1781 39.7324 52.9164 39.6968 52.6105 39.6672C51.7501 39.5837 51.7065 39.565 51.1516 39.0383C50.88 38.7805 50.5731 38.512 50.4697 38.4416C50.1077 38.1953 49.9917 38.0552 49.9605 37.8262C49.9214 37.5391 49.7752 34.711 49.7983 34.6878C49.8297 34.6563 50.0588 34.7963 50.3856 35.0468C51.0643 35.5668 51.8917 36.505 52.4342 37.3696C52.7638 37.895 52.7114 37.6465 52.3248 36.8512C51.8263 35.8257 51.1041 34.9569 50.1089 34.1855C49.5581 33.7585 49.3418 33.5412 49.3418 33.4145C49.3418 33.377 49.2707 33.1325 49.1838 32.8712C49.0969 32.6098 49.0184 32.3356 49.0092 32.2617C48.9936 32.135 48.9745 32.1456 48.6663 32.4538ZM20.7273 32.5349C20.5862 32.5882 20.5716 32.7026 20.6908 32.8219C20.7918 32.9228 20.8841 32.9293 20.9717 32.8418C21.1397 32.6738 20.9593 32.4473 20.7273 32.5349ZM29.4419 33.3294C29.2269 33.3858 28.9855 33.5162 28.8377 33.6557C28.6618 33.8218 28.6895 33.8346 28.9061 33.6876C29.1041 33.5533 29.5112 33.4434 29.8108 33.4434C30.0494 33.4434 30.515 33.5866 30.5969 33.6852C30.6335 33.7294 30.6885 33.7656 30.719 33.7656C30.8164 33.7656 30.5773 33.5432 30.3615 33.433C30.1294 33.3146 29.6879 33.2648 29.4419 33.3294ZM35.0278 34.249C35.0096 34.2786 35.0203 34.3027 35.0515 34.3027C35.0828 34.3027 35.1084 34.2786 35.1084 34.249C35.1084 34.2195 35.0978 34.1953 35.0847 34.1953C35.0717 34.1953 35.0461 34.2195 35.0278 34.249ZM21.8121 35.2742C21.7567 35.3638 21.8812 35.4665 21.9553 35.3924C22.0173 35.3304 21.9785 35.2158 21.8955 35.2158C21.8695 35.2158 21.8319 35.2421 21.8121 35.2742ZM64.9912 35.5646C64.9727 35.6131 64.9832 35.6785 65.0147 35.71C65.0965 35.7918 65.2515 35.717 65.2302 35.606C65.2064 35.4824 65.0343 35.4525 64.9912 35.5646ZM57.5799 36.1183C57.6453 36.2241 58.2747 36.3872 58.7459 36.4203C59.0451 36.4414 59.1615 36.4351 59.0904 36.4017C59.0313 36.374 58.8983 36.3494 58.7949 36.3471C58.6135 36.3432 57.8552 36.1781 57.6448 36.0967C57.574 36.0693 57.5538 36.0761 57.5799 36.1183ZM28.7974 36.2437C28.6201 36.3009 28.2715 36.3833 28.0227 36.4267C27.4465 36.5273 27.3893 36.5818 27.9111 36.5329C28.3084 36.4956 29.0022 36.2947 29.1117 36.1851C29.1789 36.1179 29.1975 36.1145 28.7974 36.2437ZM20.5349 36.5944C20.4705 36.6588 20.4973 36.815 20.578 36.846C20.6981 36.8921 20.8411 36.7277 20.7629 36.6335C20.6965 36.5535 20.5934 36.5358 20.5349 36.5944ZM24.5643 36.647C24.4815 36.7297 24.5295 36.8809 24.6385 36.8809C24.7221 36.8809 24.7454 36.8519 24.7325 36.7642C24.7147 36.6431 24.6283 36.5829 24.5643 36.647ZM62.2505 36.9113C62.2057 37.028 62.3193 37.1377 62.4007 37.0563C62.4695 36.9876 62.4269 36.8271 62.3399 36.8271C62.3084 36.8271 62.2683 36.865 62.2505 36.9113ZM24.0671 36.9518C24.0241 37.0639 24.0778 37.1371 24.15 37.0648C24.1805 37.0343 24.1814 36.9831 24.152 36.9356C24.1108 36.8689 24.0979 36.8714 24.0671 36.9518ZM25.5582 37.8517C25.5688 37.8834 25.6004 37.9094 25.6284 37.9094C25.6565 37.9094 25.6881 37.8834 25.6987 37.8517C25.7093 37.8199 25.6777 37.7939 25.6284 37.7939C25.5792 37.7939 25.5476 37.8199 25.5582 37.8517ZM59.0098 37.9314C59.0098 37.9774 59.034 38.0002 59.0635 37.9819C59.093 37.9637 59.1172 37.926 59.1172 37.8982C59.1172 37.8704 59.093 37.8477 59.0635 37.8477C59.034 37.8477 59.0098 37.8854 59.0098 37.9314ZM59.9497 38.1699C59.9315 38.1995 59.9422 38.2236 59.9734 38.2236C60.0047 38.2236 60.0303 38.1995 60.0303 38.1699C60.0303 38.1404 60.0197 38.1162 60.0066 38.1162C59.9936 38.1162 59.968 38.1404 59.9497 38.1699ZM62.6964 38.3146C62.636 38.3751 62.6597 38.4385 62.7427 38.4385C62.787 38.4385 62.8233 38.4158 62.8233 38.3879C62.8233 38.3202 62.7394 38.2717 62.6964 38.3146ZM63.8462 38.3549C63.7012 38.5297 63.9413 38.74 64.1022 38.5791C64.1705 38.5107 64.1776 38.4687 64.1325 38.3972C64.0541 38.2727 63.9298 38.2543 63.8462 38.3549ZM25.6016 38.9187C25.6016 38.9465 25.6257 38.9842 25.6553 39.0024C25.6848 39.0207 25.709 38.9979 25.709 38.9519C25.709 38.9059 25.6848 38.8682 25.6553 38.8682C25.6257 38.8682 25.6016 38.8909 25.6016 38.9187ZM24.994 38.9566C24.9149 39.0356 24.9565 39.1984 25.051 39.1802C25.1028 39.1702 25.145 39.1161 25.145 39.0599C25.145 38.953 25.0574 38.8931 24.994 38.9566ZM59.2515 39.5961C59.566 39.8542 59.9509 39.9624 60.5674 39.966C61.0451 39.9688 61.1683 39.951 61.3731 39.8504L61.6148 39.7315L61.3999 39.7698C61.2818 39.7909 60.9071 39.8068 60.5674 39.8051C60.0053 39.8024 59.9111 39.7869 59.52 39.633C59.106 39.47 59.0962 39.4687 59.2515 39.5961ZM26.9541 39.6486C26.6549 39.7846 25.9997 39.9397 25.6978 39.9461C25.31 39.9544 25.3056 40.0422 25.6929 40.046C26.3086 40.0521 26.8608 39.8925 27.2398 39.5993C27.394 39.4799 27.2835 39.499 26.9541 39.6486ZM37.0342 40.4222C36.9389 40.5001 36.9229 40.541 36.9692 40.5882C37.0662 40.6869 37.2292 40.6275 37.2362 40.4909C37.2447 40.3223 37.1824 40.3011 37.0342 40.4222ZM37.3445 40.3561C37.2803 40.4202 37.3107 40.5904 37.3918 40.6215C37.4852 40.6573 37.6461 40.5444 37.6024 40.4737C37.5558 40.3983 37.3817 40.3189 37.3445 40.3561ZM48.3884 40.3839C48.2371 40.4569 48.2326 40.5685 48.379 40.6151C48.5104 40.6567 48.5108 40.6564 48.5565 40.4661C48.5949 40.306 48.5726 40.2951 48.3884 40.3839ZM48.6779 40.3556C48.659 40.3745 48.6436 40.4464 48.6436 40.5153C48.6436 40.6021 48.6746 40.6406 48.7444 40.6406C48.8866 40.6406 48.9881 40.51 48.8993 40.4412C48.7752 40.3452 48.7126 40.3209 48.6779 40.3556ZM36.4212 40.8069C36.4011 40.8393 36.3151 40.8556 36.23 40.8431C36.0933 40.823 36.0752 40.8367 36.0752 40.9603C36.0752 41.3152 36.5578 41.6822 37.1098 41.7471C37.6888 41.8152 38.3289 41.5024 38.2524 41.1889C38.2328 41.1089 38.1723 40.998 38.1178 40.9425C38.0211 40.8439 38.0168 40.8453 37.9352 41.0032C37.8891 41.0922 37.7763 41.2282 37.6843 41.3056C37.3494 41.5875 36.9314 41.4465 36.6575 40.9593C36.5343 40.74 36.4829 40.7069 36.4212 40.8069ZM49.1757 40.9978C48.9935 41.2926 48.7701 41.4463 48.5237 41.4463C48.3376 41.4463 48.2736 41.4136 48.0981 41.2292C47.9845 41.1098 47.8916 40.9769 47.8916 40.9338C47.8916 40.8142 47.7966 40.8404 47.7009 40.9863C47.5702 41.1859 47.6202 41.396 47.8326 41.5387C48.4276 41.9383 49.3967 41.7499 49.6892 41.1777C49.859 40.8457 49.8502 40.8224 49.555 40.8224C49.3071 40.8224 49.2749 40.8373 49.1757 40.9978ZM35.5381 41.1553C35.4347 41.2278 35.3501 41.3165 35.3501 41.3522C35.3501 41.4526 36.0943 41.962 36.4388 42.0975C36.686 42.1947 36.8577 42.2192 37.3106 42.2218C37.8335 42.2249 37.9001 42.213 38.2262 42.0584C38.4196 41.9668 38.6698 41.8111 38.7821 41.7125C38.9704 41.5472 38.9789 41.5278 38.8913 41.4638C38.8355 41.423 38.7725 41.4136 38.7383 41.441C38.7063 41.4666 38.4989 41.5553 38.2774 41.6381C37.9351 41.766 37.7937 41.7887 37.3374 41.789C36.5764 41.7893 36.1139 41.5936 35.806 41.1408L35.7261 41.0234L35.5381 41.1553ZM49.9999 41.2065C49.7525 41.5838 49.0063 41.8592 48.375 41.8061C48.0192 41.7762 47.6466 41.6711 47.2895 41.4999C47.1308 41.4238 47.0724 41.4175 47.0022 41.4688C46.924 41.526 46.937 41.5533 47.1183 41.7125C47.7714 42.2858 48.7075 42.3988 49.5835 42.01C49.8631 41.8859 50.5243 41.4228 50.5223 41.3524C50.5217 41.3302 50.4304 41.2478 50.3194 41.1694L50.1177 41.0268L49.9999 41.2065ZM23.7217 41.2551C23.7217 41.3012 23.7459 41.3389 23.7754 41.3389C23.8049 41.3389 23.8291 41.3161 23.8291 41.2883C23.8291 41.2605 23.8049 41.2229 23.7754 41.2046C23.7459 41.1863 23.7217 41.2091 23.7217 41.2551ZM29.7104 41.6269C29.5857 41.8171 29.5223 42.3537 29.5777 42.7488C29.6073 42.9603 29.7048 43.2435 29.841 43.5142C30.0853 43.9994 30.4303 44.8989 30.5725 45.4209C30.7009 45.8926 30.8671 46.2062 31.1416 46.4951L31.3714 46.7368L31.4223 46.4483C31.4556 46.26 31.454 46.0129 31.4176 45.7373C31.3722 45.3933 31.3201 45.2459 31.1372 44.9432C30.9435 44.6225 30.9066 44.5113 30.8684 44.1325L30.8242 43.6934L30.5493 43.4394C30.3077 43.2162 30.2744 43.1597 30.2744 42.9728C30.2744 42.8039 30.3186 42.7068 30.4893 42.5003C30.7297 42.2093 30.7375 42.1854 30.6231 42.0904C30.545 42.0256 30.3034 42.0383 30.1027 42.1178C30.0242 42.1488 30.0093 42.1103 29.9952 41.8409C29.9767 41.4828 29.8614 41.3963 29.7104 41.6269ZM55.8802 42.1639C55.8428 42.658 55.6776 43.0522 55.4047 43.2987L55.1963 43.487L55.1939 43.9303C55.1912 44.452 55.1237 44.6682 54.8454 45.0473C54.7323 45.2014 54.608 45.4503 54.569 45.6007C54.4954 45.8842 54.4819 46.5335 54.5448 46.7584C54.5797 46.8829 54.5894 46.8779 54.8278 46.6127C55.1288 46.278 55.2254 46.0819 55.3267 45.6005C55.3746 45.373 55.5494 44.9332 55.7786 44.464C55.9842 44.0429 56.1958 43.5241 56.2489 43.3109C56.3614 42.8588 56.3739 42.2568 56.2767 41.97C56.2198 41.8019 56.1838 41.7686 56.0593 41.7686C55.9123 41.7686 55.9096 41.7746 55.8802 42.1639ZM25.2465 41.9528C25.193 42.0922 25.2679 42.2073 25.3999 42.1886C25.4887 42.176 25.521 42.1356 25.521 42.0371C25.521 41.9387 25.4887 41.8983 25.3999 41.8856C25.3273 41.8753 25.2659 41.9022 25.2465 41.9528ZM23.2026 42.3361C23.1578 42.4528 23.2715 42.5625 23.3529 42.4811C23.4216 42.4124 23.379 42.252 23.292 42.252C23.2606 42.252 23.2204 42.2898 23.2026 42.3361ZM60.9971 42.6279C60.9971 42.6575 61.0333 42.6816 61.0777 42.6816C61.122 42.6816 61.1582 42.6575 61.1582 42.6279C61.1582 42.5984 61.122 42.5742 61.0777 42.5742C61.0333 42.5742 60.9971 42.5984 60.9971 42.6279ZM62.109 42.6619C62.0883 42.6826 62.0713 42.7456 62.0713 42.8017C62.0713 42.877 62.1032 42.8994 62.1922 42.8868C62.2712 42.8756 62.313 42.8327 62.313 42.763C62.313 42.6564 62.1802 42.5907 62.109 42.6619ZM42.9565 42.8159C42.9455 42.8932 42.6831 45.6016 42.6824 45.6457C42.682 45.666 42.5471 45.8352 42.3826 46.0217C41.7117 46.7826 41.6236 47.2891 42.0513 47.9255C42.299 48.2941 42.5219 48.4287 42.8847 48.4287C43.235 48.4287 43.4614 48.3081 43.6654 48.0127C44.127 47.3443 44.0693 46.8647 43.4321 46.074C43.1142 45.6796 43.133 45.7774 43.0333 43.9976C42.9952 43.3181 42.9607 42.7864 42.9565 42.8159ZM62.5216 42.8665C62.4633 43.0186 62.5254 43.1382 62.6629 43.1382C62.7627 43.1382 62.801 43.1058 62.8145 43.01C62.8414 42.82 62.5873 42.6955 62.5216 42.8665ZM24.2588 42.9502C24.2588 42.9797 24.283 43.0039 24.3125 43.0039C24.3421 43.0039 24.3662 42.9797 24.3662 42.9502C24.3662 42.9207 24.3421 42.8965 24.3125 42.8965C24.283 42.8965 24.2588 42.9207 24.2588 42.9502ZM51.9199 45.2061C51.8396 45.3562 51.94 45.5283 52.1079 45.5283C52.1834 45.5283 52.2627 45.4831 52.2959 45.4209C52.3763 45.2708 52.2758 45.0986 52.1079 45.0986C52.0324 45.0986 51.9532 45.1439 51.9199 45.2061ZM58.5359 45.7192C58.5602 45.8358 58.6555 45.843 58.6773 45.7297C58.6886 45.6709 58.6623 45.6357 58.607 45.6357C58.5553 45.6357 58.5257 45.6705 58.5359 45.7192ZM56.9151 46.6297C56.9151 46.6467 56.9695 46.7343 57.0359 46.8244C57.1554 46.9864 57.1568 47.0081 57.157 48.7329C57.1571 50.2487 57.168 50.4836 57.24 50.5239C57.3392 50.5794 57.4147 50.5371 57.4975 50.3799C57.5446 50.2904 57.5405 50.165 57.4798 49.8428C57.411 49.4769 57.3903 48.9544 57.4036 47.9185C57.4089 47.5031 57.3254 47.0121 57.2228 46.8556C57.136 46.7231 56.9151 46.5609 56.9151 46.6297ZM32.0782 46.9651C32.3947 48.366 33.1457 51.0638 33.392 51.6847C33.8265 52.7802 34.1299 53.2125 35.4648 54.6388C36.2501 55.478 37.2881 56.6566 37.5613 57.0195C37.5958 57.0654 37.6385 57.0884 37.6562 57.0707C37.6739 57.053 37.5921 56.8476 37.4744 56.6143C37.2688 56.2064 37.1321 56.02 36.2303 54.9168C35.4773 53.9957 34.6998 52.7202 34.1233 51.4598C33.7943 50.7405 33.4281 49.7295 33.4646 49.6414C33.4794 49.6058 33.4903 49.6093 33.4928 49.6503C33.509 49.9054 34.5236 51.8691 35.0956 52.7524C35.7004 53.6864 36.8853 55.239 36.9996 55.2473C37.0205 55.2488 36.8474 54.9527 36.6149 54.5892C35.7333 53.2113 35.1896 52.1347 34.4332 50.2695C33.5843 48.1758 33.2407 47.6038 32.5585 47.1474C32.109 46.8468 32.0461 46.8229 32.0782 46.9651ZM53.406 47.3401C52.8749 47.7021 52.3697 48.2686 52.0717 48.8365C51.9336 49.0997 51.5878 49.8588 51.3033 50.5234C50.4635 52.4855 50.0918 53.2017 48.8924 55.1694C48.7051 55.4767 49.4028 54.6871 49.8862 54.0448C50.5362 53.1811 51.1425 52.1972 51.7416 51.0337C52.0154 50.502 52.24 50.0861 52.2408 50.1095C52.2441 50.2096 51.8291 51.245 51.5472 51.8401C50.8941 53.2185 50.1891 54.3044 49.1763 55.4917C48.6248 56.1383 48.2802 56.6504 48.1869 56.962C48.129 57.1554 48.1977 57.0922 48.9586 56.2516C49.3401 55.8302 50.0076 55.1123 50.4419 54.6561C51.6287 53.4097 52.0756 52.7577 52.4804 51.6824C52.6281 51.2899 53.2514 49.232 53.5864 48.0309C53.7092 47.5905 53.8221 47.1977 53.8374 47.1581C53.8831 47.0388 53.7912 47.0776 53.406 47.3401ZM38.707 47.6527C38.515 47.6896 38.0885 47.8073 37.7591 47.9141C37.3659 48.0417 36.9392 48.1342 36.5162 48.1836C35.4898 48.3035 35.222 48.503 35.1039 49.2365C35.0314 49.6866 35.1278 50.4192 35.3498 51.106C35.5906 51.8508 36.1208 52.9112 36.9384 54.2832C37.7255 55.6041 37.8521 55.871 38.0643 56.6583C38.2676 57.4121 38.4304 57.7415 38.8038 58.1541C38.9648 58.332 39.1962 58.6638 39.3182 58.8914L39.5399 59.3052L40.3185 59.7191C40.7468 59.9468 41.3026 60.2005 41.5537 60.283C41.9553 60.415 42.0913 60.4331 42.6829 60.4331C43.2988 60.4331 43.3781 60.4215 43.6224 60.2959C43.7843 60.2126 43.9527 60.0682 44.0508 59.9285C44.1989 59.7176 44.2123 59.6617 44.211 59.2601C44.2098 58.9153 44.1845 58.7745 44.0925 58.6003C43.9428 58.3169 43.681 58.0967 43.4939 58.0967C43.4135 58.0967 43.3197 58.0687 43.2855 58.0345C43.2384 57.9874 43.2047 57.9878 43.1467 58.0359C43.0862 58.0862 43.063 58.0807 43.0359 58.0102C43.0044 57.9279 42.9935 57.9283 42.8965 58.0161C42.8053 58.0987 42.7871 58.1005 42.7601 58.0299C42.7328 57.959 42.7014 57.9617 42.5164 58.0511C42.1949 58.2064 41.9116 58.6465 41.7678 59.2139C41.6992 59.4845 41.6133 59.5347 41.4275 59.413C41.085 59.1885 41.0246 58.8561 41.2698 58.5443C41.4888 58.2655 41.5978 58.0419 41.6385 57.7871C41.6679 57.6035 41.6552 57.5615 41.5475 57.486C41.4787 57.4379 41.3597 57.3984 41.283 57.3984C41.2063 57.3984 41.0123 57.3596 40.8518 57.312C40.4848 57.2034 40.2618 56.9748 39.9543 56.392L39.7244 55.9565L40.0885 56.14C40.3955 56.2947 41.3798 56.5698 41.4336 56.516C41.4429 56.5067 41.1413 56.2997 40.7636 56.0561C39.1197 54.9958 38.6945 54.5569 37.6516 52.8427C37.4236 52.4681 36.8707 51.5695 36.4229 50.8457C35.975 50.1219 35.5879 49.494 35.5625 49.4503C35.5334 49.4 35.5672 49.4098 35.6546 49.4771C35.7305 49.5356 35.9899 49.7362 36.2309 49.9228C37.0879 50.5863 38.487 51.3448 39.3784 51.6293C40.2564 51.9094 41.2951 51.9097 41.9063 51.6298C42.2309 51.4813 42.3594 51.2912 42.3594 50.9599C42.3594 50.5929 42.1251 50.3602 41.0008 49.6104C40.4472 49.2411 39.8704 48.8181 39.7192 48.6704C39.4733 48.4302 39.1369 47.8658 39.1368 47.6934C39.1367 47.5882 39.073 47.5822 38.707 47.6527ZM46.7491 47.7138C46.7355 47.7378 46.6847 47.8782 46.6363 48.0259C46.4333 48.646 45.8983 49.106 44.9249 49.4972C44.02 49.8609 43.5293 50.2722 43.3714 50.7993C43.2436 51.2259 43.4978 51.6047 44.0181 51.7631C44.3842 51.8745 45.3107 51.8874 45.8017 51.7879C46.8348 51.5786 48.3004 50.8592 49.5756 49.9357C49.8606 49.7292 50.0938 49.5716 50.0938 49.5853C50.0938 49.599 49.8172 50.0442 49.4792 50.5746C49.1412 51.105 48.6538 51.8966 48.3961 52.3337C47.0677 54.5874 46.7053 54.9906 45.0986 56.0023C44.7589 56.2163 44.4474 56.4227 44.4063 56.4612C44.2699 56.5889 45.3173 56.3279 45.7029 56.1381C45.9023 56.04 46.0651 55.9752 46.0647 55.9942C46.0628 56.0804 45.6122 56.8502 45.4837 56.9868C45.284 57.1991 45.1828 57.2465 44.7227 57.3434L44.3198 57.4284L44.3266 57.7222C44.3318 57.9534 44.3915 58.1424 44.6067 58.6083C44.7571 58.9341 44.9096 59.3283 44.9457 59.4845C45.0072 59.7512 45.0195 59.7663 45.1489 59.7351C45.58 59.631 46.424 58.8669 46.788 58.2512C46.9343 58.0038 47.1558 57.6624 47.2803 57.4926C47.4287 57.2903 47.5663 57.0036 47.6799 56.6601C47.9002 55.994 48.1225 55.5524 48.8093 54.4175C49.9448 52.5408 50.5768 51.1024 50.8427 49.7899C50.9711 49.1555 50.9818 48.8162 50.8809 48.5747C50.7533 48.2695 50.6861 48.2459 49.8315 48.2054C49.1714 48.1741 48.9138 48.1343 48.2139 47.9558C47.3346 47.7315 46.7904 47.6416 46.7491 47.7138ZM39.7462 53.0768C39.7257 53.1301 39.7884 53.2247 39.9224 53.3431C40.1669 53.559 40.2356 53.5762 40.1911 53.4104C40.1733 53.344 40.1584 53.2511 40.158 53.2042C40.1576 53.1572 40.0957 53.0908 40.0204 53.0565C39.839 52.9738 39.7842 52.9778 39.7462 53.0768ZM45.7448 53.0894C45.656 53.1614 45.6315 53.2304 45.6449 53.3714L45.6626 53.5581L45.8729 53.365C46.0168 53.2328 46.0725 53.1437 46.0492 53.083C46.005 52.9678 45.8921 52.9702 45.7448 53.0894ZM40.4903 53.2734C40.4548 53.3089 40.4258 53.4163 40.4258 53.5122C40.4258 53.6628 40.4675 53.7163 40.733 53.9065C41.1182 54.1823 41.2415 54.1747 41.3054 53.8709C41.3742 53.5433 41.3149 53.377 41.097 53.286C40.8725 53.1922 40.5776 53.1861 40.4903 53.2734ZM44.7495 53.2597C44.5232 53.3524 44.4434 53.504 44.4828 53.7665C44.503 53.9011 44.5531 54.0391 44.5942 54.0731C44.769 54.2182 45.3672 53.7704 45.3672 53.4945C45.3672 53.4084 45.3382 53.3089 45.3028 53.2734C45.2302 53.2009 44.9125 53.193 44.7495 53.2597ZM38.8904 53.397C39.2885 54.0286 40.3132 55.0538 40.7672 55.2747C41.0623 55.4182 41.6093 55.5174 42.0908 55.5148L42.3862 55.5132L41.8955 55.3349C41.6255 55.2369 41.2306 55.0629 41.0178 54.9482C40.5636 54.7035 39.6957 54.0618 39.1642 53.5777C38.9008 53.3378 38.8191 53.2839 38.8904 53.397ZM46.71 53.484C45.4807 54.5862 44.8036 55.0292 43.8364 55.3644C43.4345 55.5037 43.4206 55.5135 43.6216 55.5155C44.0817 55.5203 44.7401 55.411 45.0179 55.2839C45.4462 55.0877 46.4721 54.064 46.8953 53.4104C47.0207 53.2167 46.9982 53.2256 46.71 53.484ZM41.6074 53.4238C41.4831 53.5482 41.4641 53.8824 41.5732 54.026C41.7468 54.2544 42.1656 54.2557 42.3382 54.0283C42.4358 53.8997 42.4312 53.5809 42.3295 53.4358C42.2149 53.2721 41.7666 53.2647 41.6074 53.4238ZM42.7006 53.3575C42.6336 53.4004 42.6122 53.5166 42.6218 53.7845C42.6292 53.9923 42.7778 54.0912 43.0071 54.0408C43.1554 54.0083 43.1651 53.9902 43.1651 53.7462C43.1651 53.3822 43.1291 53.3162 42.931 53.3172C42.8382 53.3177 42.7345 53.3358 42.7006 53.3575ZM43.4989 53.4383C43.2776 53.674 43.3798 54.0783 43.6864 54.1794C43.9419 54.2638 44.1746 54.1615 44.2752 53.9207C44.3436 53.757 44.3415 53.7171 44.2552 53.5405C44.1652 53.3566 44.1404 53.3422 43.8883 53.3274C43.6619 53.3142 43.5987 53.3321 43.4989 53.4383ZM49.1233 57.078C48.6698 57.4148 48.0833 58.0183 47.9229 58.3129C47.843 58.4598 47.7931 58.5801 47.8121 58.5801C47.8311 58.5801 47.9474 58.5 48.0706 58.4021C48.1937 58.3042 48.5776 57.9996 48.9236 57.7253C49.5595 57.2212 49.6721 57.081 49.5545 56.9393C49.4642 56.8305 49.4505 56.8349 49.1233 57.078ZM36.0853 57.5176C36.0996 57.6652 36.2105 57.7842 36.8421 58.3306C37.2492 58.6828 37.5975 58.9556 37.6161 58.9369C37.6348 58.9183 37.621 58.806 37.5854 58.6873C37.4728 58.3115 36.4664 57.3447 36.1877 57.3447C36.0857 57.3447 36.0709 57.3698 36.0853 57.5176ZM38.1888 59.0098C38.208 59.0836 38.2389 59.2349 38.2575 59.3459C38.2863 59.5184 38.3469 59.5894 38.6737 59.8333C39.1973 60.2242 39.1916 60.2217 39.14 60.0416C39.0406 59.6951 38.8819 59.4976 38.3097 59.0085L38.154 58.8755L38.1888 59.0098ZM46.781 59.5603C46.5818 59.7816 46.5819 59.8366 46.7814 59.6845C46.8898 59.6018 46.9785 59.5128 46.9785 59.4868C46.9785 59.4039 46.8933 59.4356 46.781 59.5603ZM39.9252 60.5885C39.9094 60.6297 39.9491 60.711 40.0134 60.7692C40.1799 60.9197 40.8425 61.2946 41.1714 61.4242C41.7593 61.656 41.6592 61.5267 40.7992 60.9438C40.1733 60.5196 39.9816 60.4416 39.9252 60.5885ZM44.9225 60.9959C44.342 61.4354 44.3673 61.4852 44.9979 61.1448C45.2778 60.9937 45.4208 60.8847 45.4209 60.8225C45.421 60.6694 45.2967 60.7127 44.9225 60.9959ZM14.0947 68.9843C14.1615 68.9971 14.2581 68.9966 14.3095 68.9832C14.3608 68.9698 14.3062 68.9592 14.188 68.9598C14.0698 68.9604 14.0278 68.9714 14.0947 68.9843ZM14.7404 68.9859C14.8964 68.9968 15.1381 68.9967 15.2775 68.9857C15.4168 68.9746 15.2891 68.9658 14.9937 68.9659C14.6983 68.9661 14.5843 68.9751 14.7404 68.9859Z" fill="white"/>
</svg>
