<svg width="70" height="70" viewBox="0 0 70 70" fill="none" xmlns="http://www.w3.org/2000/svg">
<g clip-path="url(#clip0_736_981)">
<path d="M31.192 0.168491C30.912 0.392491 31.01 1.31649 31.304 1.20449C31.402 1.16249 31.71 1.09249 31.976 1.03649C32.62 0.924491 32.69 0.784491 32.382 0.350491C32.102 -0.0275085 31.556 -0.111509 31.192 0.168491Z" fill="black"/>
<path d="M38.7381 0.825981C38.5141 0.965981 38.0801 1.13399 37.7581 1.18999C37.2821 1.27399 37.2261 1.30199 37.4501 1.39999C37.7161 1.49799 37.7021 1.51199 37.3801 1.58199C37.1841 1.62399 36.6941 1.70798 36.2741 1.74998C35.5881 1.83398 35.4901 1.80598 35.2241 1.48399C35.0561 1.30199 34.7061 1.10599 34.4401 1.04999C34.0341 0.965981 33.9781 0.97998 34.1321 1.13399C34.6221 1.65199 33.9501 1.88998 33.3201 1.39999C32.9841 1.14799 32.9701 1.14799 32.6901 1.39999C32.4661 1.59599 32.0181 1.69398 30.5621 1.80598C29.5541 1.90398 28.4201 2.05798 28.0421 2.16998C27.1181 2.44998 27.1041 2.42198 27.9721 2.02998C28.4061 1.83398 28.7001 1.60999 28.7001 1.46999C28.7001 1.23199 28.6021 1.18999 27.8321 1.04999C27.3421 0.97998 27.3001 0.99398 27.3001 1.31599C27.3001 1.55399 27.1461 1.76398 26.8521 1.97398C26.6001 2.14198 26.3621 2.30998 26.3341 2.33798C26.3061 2.35198 26.3621 2.63198 26.4601 2.95399C26.6281 3.45798 26.6981 3.51398 27.0341 3.47198C27.2581 3.42999 27.3841 3.47198 27.3421 3.54198C27.1881 3.80798 26.3061 4.05998 25.5921 4.05998C24.8641 4.04598 24.8501 4.04598 25.2701 3.86398L25.6901 3.68198L25.1721 3.42999C24.7381 3.21999 24.5841 3.20599 24.2761 3.34599C23.8421 3.54198 23.6881 3.45798 23.9401 3.14999C24.0381 3.02399 24.0941 2.91199 24.0661 2.88399C23.9961 2.82799 20.4681 3.84998 18.7601 4.40999C17.1221 4.94199 15.0641 6.01999 14.1681 6.80399C13.4261 7.44799 13.3841 7.62999 13.9301 7.72799C14.0841 7.75599 14.2101 7.83998 14.2101 7.90998C14.2241 7.99398 14.2801 8.20399 14.3361 8.38599L14.4481 8.72198L14.6301 8.28799C14.8541 7.76999 15.2461 7.50399 16.3101 7.12598C17.1781 6.81799 17.3881 6.85999 17.0381 7.23798C16.7861 7.53199 16.3241 8.66599 16.1701 9.37999L16.0721 9.86999L16.4921 9.30999C16.7161 9.00199 17.2901 8.38599 17.7661 7.95198C18.4801 7.27999 18.6201 7.06998 18.6341 6.64999C18.6481 6.38398 18.6621 6.07598 18.6761 5.97798C18.7041 5.57198 19.6701 5.30598 19.9921 5.62798C20.1181 5.75398 20.0061 5.94998 19.5301 6.45399C19.1801 6.83199 18.9001 7.23798 18.9001 7.36399C18.9001 7.53199 19.0681 7.41999 19.4601 6.99998C19.9221 6.49599 20.0621 6.42599 20.3841 6.49599C20.8041 6.60799 21.2801 6.32798 20.9721 6.14598C20.8741 6.08998 20.8321 6.00599 20.8601 5.97798C21.1681 5.73998 23.0861 4.61999 23.2121 4.61999C23.4501 4.61999 23.5621 5.20798 23.3941 5.61398C23.3241 5.82398 23.0161 6.10398 22.7221 6.25798C22.4281 6.41198 21.7001 6.78999 21.0981 7.11198C20.2441 7.57399 19.8661 7.69999 19.3201 7.69999C18.7321 7.69999 18.6201 7.74199 18.6201 7.96598C18.6201 8.10599 18.7181 8.30199 18.8301 8.39999C18.9421 8.49799 19.0401 8.65199 19.0401 8.76398C19.0401 9.04399 18.3261 9.49199 17.5561 9.67398C17.1781 9.77199 16.3801 10.08 15.7921 10.388C15.0221 10.766 14.7001 10.864 14.7001 10.724C14.7001 10.626 14.8541 10.108 15.0641 9.58998C15.2601 9.05799 15.4001 8.46999 15.3721 8.27399C15.3021 7.68599 14.9381 7.83998 14.7001 8.56799C14.5321 9.11399 14.4481 9.21199 14.2101 9.15599C14.0561 9.11399 13.6921 9.18399 13.3981 9.30999C13.1181 9.42199 12.8801 9.47799 12.8801 9.42199C12.8801 9.36599 13.1181 9.07199 13.3981 8.76398L13.9301 8.21799L13.0901 8.80598C12.6281 9.14199 11.6901 9.78599 10.9901 10.262C9.77207 11.088 8.12007 12.586 8.12007 12.838C8.12007 12.908 8.30207 12.95 8.54007 12.908C9.15607 12.824 9.08607 13.118 8.19007 14.21C7.77007 14.714 7.42007 15.176 7.42007 15.204C7.42007 15.33 7.57407 15.246 8.03607 14.84C8.31607 14.588 8.55407 14.476 8.61007 14.546C8.65207 14.63 7.95207 15.428 7.05607 16.31C5.44607 17.92 5.43207 17.948 5.53007 18.452C5.64207 19.04 5.88007 19.39 5.88007 18.956C5.88007 18.144 6.49607 16.8 6.87407 16.8C7.08407 16.8 7.01407 17.248 6.49607 19.264C6.21607 20.342 5.95007 21.714 5.89407 22.33L5.81007 23.45L5.29207 22.61C4.99807 22.148 4.76007 21.868 4.76007 21.994C4.76007 22.12 4.41007 22.652 3.99007 23.17C3.57007 23.674 3.22007 24.122 3.22007 24.15C3.22007 24.164 3.12207 24.416 3.01007 24.696C2.89807 24.976 2.82807 25.2 2.85607 25.2C2.88407 25.2 3.12207 24.878 3.37407 24.472L3.83607 23.758L4.01807 24.164C4.27007 24.752 4.24207 25.228 3.85007 27.3C3.50007 29.19 3.43007 30.366 3.64007 30.87C3.75207 31.122 3.76607 31.122 3.76607 30.786C3.78007 30.338 4.10207 29.89 4.31207 30.016C4.52207 30.142 4.52207 30.996 4.32607 31.906C4.11607 32.9 3.86407 33.012 3.94807 32.06L4.01807 31.332L3.55607 31.402C2.99607 31.5 2.99607 31.486 2.85607 29.61C2.81407 28.84 2.71607 28.07 2.64607 27.888C2.46407 27.412 2.12807 27.51 2.01607 28.07C1.89007 28.784 2.04407 29.666 2.66007 31.57C3.26207 33.446 3.45807 34.3 3.26207 34.3C3.19207 34.3 2.94007 34.034 2.68807 33.712C2.21207 33.096 2.14207 33.138 2.39407 33.852C2.47807 34.09 2.61807 34.272 2.70207 34.258C2.81407 34.244 2.87007 34.594 2.87007 35.462C2.87007 36.134 2.84207 36.68 2.80007 36.68C2.75807 36.68 2.52007 36.554 2.28207 36.4L1.82007 36.12L1.83407 36.512C1.84807 37.296 2.03007 38.15 2.17007 38.108C2.33807 38.052 3.09407 41.006 3.52807 43.428C3.71007 44.394 3.89207 45.136 3.93407 45.052C4.04607 44.87 4.41007 45.528 4.55007 46.186C4.71807 46.942 4.88607 46.41 4.81607 45.36L4.76007 44.45L4.97007 45.22C5.09607 45.64 5.25007 46.662 5.32007 47.488C5.39007 48.328 5.53007 49.294 5.61407 49.658L5.78207 50.302L6.03407 49.994L6.28607 49.686L6.48207 50.162C6.91607 51.198 6.93007 51.282 6.55207 51.212L6.20207 51.142L6.52407 51.632C6.70607 51.898 6.86007 52.262 6.86007 52.43C6.86007 52.71 7.37807 53.34 7.60207 53.34C7.65807 53.34 7.67207 53.172 7.61607 52.962C7.57407 52.738 7.82607 53.088 8.17607 53.718C8.52607 54.362 8.82007 55.02 8.82007 55.202C8.82007 55.86 9.43607 56.756 10.5001 57.61C11.0741 58.086 11.6201 58.604 11.7041 58.772C11.8581 59.08 13.8741 60.998 15.3161 62.188C16.3661 63.07 18.2561 64.33 19.6421 65.1C20.2861 65.45 20.6781 65.744 20.5801 65.8C20.4261 65.898 24.6121 68.292 26.0821 68.936C27.6781 69.636 29.0781 70 30.1841 70C30.7441 70 31.2201 69.958 31.2201 69.916C31.2201 69.874 31.1501 69.72 31.0801 69.566C30.9821 69.384 30.9821 69.3 31.0801 69.3C31.1501 69.3 31.2201 69.188 31.2201 69.048C31.2201 68.824 31.4441 68.81 34.0481 68.81C37.1001 68.81 38.7101 68.614 41.3281 67.97C42.1121 67.774 42.7701 67.62 42.7841 67.62C42.8121 67.62 42.8401 67.914 42.8401 68.292C42.8401 69.104 43.1341 69.58 43.6381 69.58H44.0021L43.6101 69.216C43.2881 68.922 43.2321 68.782 43.3021 68.362C43.4001 67.802 43.7081 67.41 44.2681 67.116C44.6321 66.92 44.6601 66.934 44.6601 67.186C44.6601 67.732 45.0661 67.76 47.1241 67.396C48.1881 67.214 49.2381 67.018 49.4621 66.976C49.7981 66.892 49.8401 66.92 49.8401 67.256C49.8401 67.676 49.8681 67.69 50.7641 67.41C51.1421 67.298 51.4641 67.2 51.4921 67.2C51.5061 67.2 51.5201 67.424 51.5201 67.69C51.5201 67.998 51.4361 68.222 51.2821 68.306C51.1421 68.39 51.0861 68.46 51.1421 68.46C51.3381 68.46 52.1081 67.872 52.0241 67.802C51.9821 67.76 52.0801 67.536 52.2341 67.326L52.5141 66.92H51.8981C51.5481 66.92 51.0861 66.878 50.8481 66.836C50.4701 66.766 50.4281 66.71 50.5401 66.486C50.6241 66.346 50.6801 66.024 50.6801 65.772V65.296L51.7441 65.394L52.8081 65.506L53.2281 65.03C53.4521 64.764 54.1241 64.288 54.7121 63.952C55.3001 63.63 56.0141 63.14 56.2661 62.874C56.5321 62.594 56.7001 62.468 56.6301 62.58C56.5601 62.706 56.6301 62.692 56.8121 62.524C57.1621 62.23 57.2461 62.02 56.9101 62.3C56.7561 62.426 56.7001 62.426 56.7001 62.314C56.7001 62.23 56.7981 62.118 56.9101 62.076C57.0221 62.02 57.1201 61.88 57.1201 61.74C57.1201 61.614 57.3021 61.25 57.5401 60.928L57.9461 60.354L57.2041 60.62C56.5461 60.844 54.8101 61.18 54.3061 61.18C54.2081 61.18 54.3341 60.956 54.6001 60.69C54.9641 60.312 55.1181 60.242 55.3141 60.354C55.5241 60.466 55.6501 60.382 56.0141 59.892C56.2521 59.556 56.5741 59.038 56.7281 58.73C57.0221 58.156 58.3941 56.238 58.7861 55.86C58.9121 55.734 59.4161 55.146 59.9201 54.53C60.4241 53.914 61.2641 52.906 61.7961 52.29C63.0421 50.834 64.6101 48.454 65.5201 46.648C66.0941 45.486 66.2901 45.206 66.5001 45.262C66.7241 45.318 66.7521 45.206 66.8081 44.366C66.8361 43.848 66.9061 43.372 66.9481 43.33C67.0041 43.274 67.1861 43.33 67.3681 43.456C67.9981 43.904 68.0821 43.778 67.9701 42.588C67.8301 41.076 67.8441 40.11 68.0261 39.802C68.1101 39.662 68.1801 39.62 68.1801 39.718C68.1801 39.928 68.6981 40.222 68.8801 40.11C68.9641 40.054 68.8661 39.732 68.6701 39.326C68.3761 38.766 68.3481 38.64 68.5301 38.64C68.6561 38.64 68.8661 38.374 69.0201 38.024C69.1601 37.688 69.3421 37.394 69.4261 37.366C69.5101 37.324 69.4121 36.68 69.1601 35.574C68.6561 33.502 68.6421 33.236 69.0341 33.138C69.3001 33.068 69.3141 33.096 69.2301 33.558C69.1741 33.908 69.2021 34.09 69.3281 34.174C69.9161 34.552 70.0141 34.076 69.5801 32.816C69.4121 32.368 69.2861 31.696 69.2861 31.346C69.2721 30.73 69.2581 30.702 68.9221 30.772L68.5581 30.842L68.6001 28.966C68.6701 26.11 68.6701 26.096 68.1941 25.816C67.8441 25.62 67.7041 25.326 67.2841 23.996C66.6681 22.092 65.6461 19.782 64.7641 18.298C64.4141 17.696 64.1201 17.108 64.1201 17.01C64.1201 16.912 63.8541 16.52 63.5181 16.156C63.1961 15.778 62.5521 14.994 62.0901 14.42C60.9561 12.992 58.8421 10.906 57.3861 9.77199C56.2941 8.91799 53.5361 7.08398 53.1581 6.95798C53.0741 6.92999 53.2281 6.63599 53.5361 6.25798C54.1241 5.54398 54.1521 5.12399 53.6481 4.78799C53.3261 4.57799 53.3261 4.57799 53.4941 4.94199C53.6341 5.24998 53.6201 5.37598 53.4241 5.65598C53.0881 6.17398 52.6821 6.34198 52.0381 6.24398C51.7161 6.18798 51.3941 6.08998 51.3101 6.03399C51.2401 5.96398 50.9321 5.83798 50.6381 5.73998C50.1481 5.58598 50.1201 5.55798 50.3161 5.33398C50.4421 5.19398 50.5401 5.01199 50.5401 4.92799C50.5401 4.59199 49.6581 3.79398 48.4121 2.96799C46.9981 2.04398 46.5781 1.97398 46.0881 2.58998L45.8361 2.89799L45.1641 2.11398C44.4921 1.34399 44.4641 1.32999 43.6941 1.31599C43.2601 1.31599 42.5041 1.17599 42.0001 1.02199C41.4961 0.867981 40.6561 0.699982 40.1101 0.643982C39.2981 0.587982 39.0601 0.615982 38.7381 0.825981ZM39.4381 0.783981C39.3961 0.825981 39.2701 0.839981 39.1721 0.797981C39.0601 0.755981 39.1021 0.713982 39.2561 0.713982C39.4101 0.699982 39.4941 0.741982 39.4381 0.783981ZM49.3921 5.01199C49.5881 5.30598 49.5881 5.31998 49.1541 5.16599C48.7201 5.01199 48.6361 4.89999 48.8181 4.70399C48.9581 4.56399 49.1681 4.67599 49.3921 5.01199ZM12.0121 10.388C11.9001 10.57 11.5361 11.186 11.2001 11.76C10.8641 12.334 10.5701 12.824 10.5561 12.852C10.5421 12.88 10.3741 12.824 10.2061 12.726L9.88407 12.558L10.2621 12.264C10.4721 12.096 10.6401 11.9 10.6401 11.83C10.6401 11.676 12.0121 10.08 12.1381 10.08C12.1801 10.08 12.1241 10.22 12.0121 10.388ZM9.80007 18.578C9.64607 18.816 9.64607 18.816 9.71607 18.578C9.75807 18.438 9.80007 18.242 9.81407 18.158C9.81407 18.032 9.84207 18.032 9.88407 18.158C9.92607 18.256 9.88407 18.438 9.80007 18.578ZM11.6201 19.446C11.6201 19.516 11.5221 19.642 11.4101 19.74C11.2421 19.88 11.2001 19.88 11.2001 19.712C11.2001 19.6 11.2421 19.46 11.2981 19.418C11.4241 19.278 11.6201 19.292 11.6201 19.446ZM9.94007 19.796C9.94007 19.824 9.98207 19.95 10.0241 20.062C10.0661 20.188 9.88407 20.426 9.54807 20.692L9.01607 21.126L9.22607 20.426C9.38007 19.936 9.50607 19.74 9.68807 19.74C9.82807 19.74 9.94007 19.768 9.94007 19.796ZM10.5981 20.384C10.5141 20.678 9.98207 21.602 9.42207 22.428C8.86207 23.268 8.13407 24.458 7.81207 25.088L7.21007 26.25L7.16807 24.262C7.14007 22.386 7.15407 22.246 7.44807 21.91C7.61607 21.714 7.82607 21.56 7.93807 21.56C8.03607 21.56 8.21807 21.406 8.34407 21.21C8.59607 20.818 8.82007 20.86 8.82007 21.294C8.82007 21.924 9.89807 21.196 10.3881 20.258C10.7241 19.586 10.8221 19.642 10.5981 20.384ZM68.4601 27.496C68.4601 28.112 68.2221 27.762 68.1241 27.02C68.0401 26.418 68.0401 26.404 68.2361 26.74C68.3621 26.936 68.4461 27.272 68.4601 27.496ZM6.38407 27.286C6.49607 27.188 6.62207 27.16 6.67807 27.202C6.81807 27.342 6.14607 28.84 5.93607 28.84C5.54407 28.84 5.23607 27.664 5.47407 27.048L5.61407 26.67L5.90807 27.062C6.13207 27.37 6.23007 27.412 6.38407 27.286ZM47.1801 66.15C47.1801 66.29 47.0401 66.36 46.7321 66.36L46.2701 66.346L46.6201 66.15C47.0681 65.898 47.1801 65.898 47.1801 66.15ZM45.9481 67.158C46.1441 67.41 45.7101 67.55 45.2481 67.396C44.7161 67.214 44.7161 66.948 45.2481 66.724C45.6681 66.542 45.7101 66.542 45.7661 66.752C45.7941 66.878 45.8781 67.074 45.9481 67.158ZM30.7301 68.754C30.9261 68.95 30.2261 68.894 29.7501 68.684C29.3301 68.488 29.3441 68.488 29.9601 68.558C30.3101 68.6 30.6461 68.684 30.7301 68.754Z" fill="black"/>
<path d="M35.7421 1.21826C35.9521 1.24626 36.2881 1.24626 36.5121 1.21826C36.7221 1.19026 36.5401 1.16226 36.1201 1.16226C35.7001 1.16226 35.5181 1.19026 35.7421 1.21826Z" fill="black"/>
<path d="M50.9319 4.95626C51.0999 5.18026 51.2399 5.47426 51.2399 5.62826C51.2399 5.78226 51.3099 5.85226 51.3799 5.81026C51.6599 5.64226 51.5059 5.19426 51.0719 4.87226L50.6099 4.55026L50.9319 4.95626Z" fill="black"/>
<path d="M4.64803 18.8023C4.32603 19.1523 4.25603 19.5303 4.48003 19.6703C4.56403 19.7123 4.62003 19.8943 4.62003 20.0623C4.63403 20.3702 4.63403 20.3702 4.84403 20.0903C5.02603 19.8383 5.02603 19.8103 4.84403 19.7683C4.56403 19.7123 4.56403 19.7123 4.83003 19.0823C5.09603 18.4663 5.04003 18.3823 4.64803 18.8023Z" fill="black"/>
<path d="M2.30988 20.7763C2.12788 21.2523 2.11388 21.4483 2.22588 21.6863C2.51988 22.2043 2.65988 21.9943 2.65988 21.0703C2.65988 20.5663 2.63188 20.1603 2.60388 20.1603C2.57588 20.1603 2.43588 20.4403 2.30988 20.7763Z" fill="black"/>
<path d="M1.63796 23.1003C1.41396 23.4923 1.18996 23.8003 1.13396 23.8003C0.993964 23.8003 0.615964 23.3663 0.531964 23.1003C0.489964 22.9883 0.433964 23.1283 0.405964 23.4083C0.363964 23.6883 0.391964 23.8843 0.447964 23.8563C0.503964 23.8143 0.559964 24.0103 0.559964 24.2763C0.559964 24.5563 0.629964 24.7803 0.699964 24.7803C0.783964 24.7803 0.839964 24.7243 0.839964 24.6543C0.839964 24.5703 1.21796 24.2203 1.67996 23.8703C2.50596 23.2263 2.68796 22.9043 2.35196 22.5683C2.09996 22.3163 2.05796 22.3443 1.63796 23.1003Z" fill="black"/>
<path d="M0.699951 25.6207C0.699951 25.7047 0.797951 25.7607 0.909951 25.7607C1.17595 25.7607 1.17595 25.6767 0.909951 25.5647C0.797951 25.5227 0.699951 25.5507 0.699951 25.6207Z" fill="black"/>
<path d="M67.788 44.1703C67.634 44.5203 67.55 46.3263 67.69 46.1723C67.774 46.0883 68.068 43.9463 67.998 43.8763C67.97 43.8483 67.872 43.9743 67.788 44.1703Z" fill="black"/>
<path d="M64.806 49.1684C64.68 49.6444 64.54 50.1484 64.484 50.2744C64.33 50.6104 65.002 50.4564 65.352 50.0644C65.842 49.5464 65.856 49.2104 65.422 48.7204L65.016 48.2724L64.806 49.1684Z" fill="black"/>
<path d="M63.9799 50.9742C63.8819 51.1282 63.8399 51.2962 63.8819 51.3242C63.9099 51.3522 64.0079 51.2262 64.0919 51.0302C64.2879 50.6102 64.1899 50.5682 63.9799 50.9742Z" fill="black"/>
<path d="M63.4339 52.3887C63.1259 53.3127 63.1679 53.3127 63.7559 52.4307L64.1199 51.8707V52.4307C64.1059 52.7387 64.0219 53.1447 63.9099 53.3407C63.4059 54.2227 63.8259 54.6147 64.5959 53.9987C64.9459 53.7047 64.9739 53.6347 64.8339 53.3547C64.7219 53.1727 64.6939 52.8227 64.7639 52.4307C64.8479 51.8427 64.8339 51.8007 64.4699 51.6607C63.8399 51.4227 63.7419 51.4927 63.4339 52.3887Z" fill="black"/>
<path d="M60.774 55.5239C60.774 55.6919 60.41 56.2099 59.99 56.6859C59.248 57.5119 59.052 57.9879 59.36 58.1699C59.612 58.3239 59.514 58.4919 59.122 58.5899L58.73 58.7019L59.136 58.8139C59.416 58.8979 59.626 58.8559 59.878 58.7019L60.228 58.4639L59.906 58.2399C59.416 57.8619 59.64 57.5399 60.41 57.5399H61.04L61.026 56.9379C61.026 56.2799 60.802 55.0619 60.774 55.5239Z" fill="black"/>
<path d="M62.37 55.5942C62.314 55.6782 62.3 55.7622 62.342 55.8042C62.37 55.8462 62.44 55.7762 62.482 55.6502C62.58 55.4122 62.496 55.3702 62.37 55.5942Z" fill="black"/>
<path d="M61.8099 56.7982C61.5999 57.1342 61.4599 57.4422 61.4879 57.4702C61.5019 57.4842 61.7259 57.5542 61.9639 57.5962C62.3419 57.6802 62.4539 57.6382 62.7059 57.3162C63.0979 56.8262 63.0839 56.6722 62.5799 56.3922L62.1739 56.1682L61.8099 56.7982Z" fill="black"/>
<path d="M58.7861 59.5985L58.3101 60.1025L58.7581 59.7945C59.2341 59.4725 59.4301 59.2485 59.3321 59.1365C59.3041 59.1085 59.0521 59.3185 58.7861 59.5985Z" fill="black"/>
<path d="M52.8501 66.6403C52.8081 66.7103 52.8361 66.7803 52.9061 66.7803C52.9901 66.7803 53.0601 66.7103 53.0601 66.6403C53.0601 66.5563 53.0321 66.5003 53.0041 66.5003C52.9621 66.5003 52.8921 66.5563 52.8501 66.6403Z" fill="black"/>
<path d="M48.37 68.1939C47.782 68.7959 47.726 68.8939 48.02 68.8099C48.622 68.6419 49.21 68.2499 49.252 67.9839C49.364 67.4239 49.028 67.5079 48.37 68.1939Z" fill="black"/>
<path d="M45.57 68.0399L45.01 68.2919L45.542 68.3059C45.892 68.3199 46.102 68.2499 46.158 68.1099C46.284 67.7739 46.172 67.7599 45.57 68.0399Z" fill="black"/>
<path d="M37.17 69.0203C35.784 69.1603 33.992 69.2863 33.18 69.3003L31.71 69.3283L33.11 69.5943C33.908 69.7623 35.434 69.9023 36.68 69.9583L38.85 70.0283L38.5 69.7483L38.15 69.4683L38.5 69.3143C38.696 69.2443 39.354 69.1323 39.97 69.0763C40.796 69.0063 40.992 68.9503 40.74 68.8663C40.25 68.7263 40.026 68.7403 37.17 69.0203Z" fill="black"/>
<path fill-rule="evenodd" clip-rule="evenodd" d="M35.6831 5.3961C35.7733 5.78889 35.7382 7.17408 35.624 7.72886C35.5431 8.12185 35.3743 8.52645 34.8778 9.51852C34.2491 10.7743 34.1077 11.1924 34.1697 11.6115C34.1908 11.7544 34.4532 12.077 34.5482 12.077C34.5781 12.077 34.6294 11.9575 34.6623 11.8115C34.7321 11.5017 34.8081 11.4582 35.0036 11.6165C35.1442 11.7304 35.1445 11.7351 35.043 12.127C34.941 12.5206 34.9414 12.525 35.1218 13.0646L35.3032 13.6069L34.9699 13.5652C34.7865 13.5423 34.6061 13.5424 34.5689 13.5653C34.4753 13.6232 34.7822 14.2149 35.0217 14.4386L35.2099 14.6144L35.1008 15.2659C35.0408 15.6242 34.9671 15.9828 34.9368 16.0628C34.892 16.1816 34.9019 16.2049 34.9907 16.1898C35.1647 16.1601 35.2351 16.6229 35.1362 17.1471C35.0715 17.49 35.071 17.6073 35.1336 17.7243C35.3393 18.1087 35.3277 18.4073 35.0873 18.9216C34.995 19.1191 34.9975 19.1545 35.1251 19.4624C35.2977 19.8788 35.3012 20.2951 35.1344 20.5687C35.0076 20.7767 35.0076 20.7768 35.1346 21.1538C35.2956 21.6319 35.2984 22.0866 35.1416 22.2905C35.0345 22.4298 35.0318 22.4712 35.1105 22.7666C35.2229 23.1886 35.2209 23.512 35.105 23.6652C34.9839 23.8254 34.9842 24.055 35.1061 24.3993C35.1993 24.6629 35.1972 24.6923 35.0659 24.9734L34.9275 25.2697L35.072 25.5035L35.2165 25.7374L35.0755 26.1911L34.9346 26.6449L35.0906 26.994L35.2466 27.3431L35.0898 27.6537C35.0035 27.8246 34.9455 28.0301 34.9609 28.1107C34.9776 28.198 34.9536 28.2707 34.9014 28.2908C34.7883 28.3342 34.5786 28.8258 34.4667 29.3103C34.3891 29.6462 34.3332 29.7349 33.9984 30.053C33.4757 30.5497 33.4305 30.5734 32.5322 30.8254C32.0958 30.9479 31.6907 31.0665 31.6319 31.0891C31.5378 31.1254 31.5287 31.0898 31.5555 30.7919L31.586 30.4535L31.3963 30.6688C31.2918 30.7873 31.0466 31.1063 30.8512 31.3778L30.4958 31.8713L30.7262 32.2314C30.8529 32.4295 30.9972 32.6889 31.047 32.8079C31.1366 33.0225 31.2626 33.1006 31.2626 32.9415C31.2626 32.896 31.3382 32.7071 31.4307 32.5216C31.7253 31.9303 32.3224 31.6758 32.8741 31.9063C33.6481 32.2297 34.3228 33.7881 34.5673 35.8172C34.6165 36.2253 34.6578 39.5808 34.6951 46.1957C34.7253 51.5721 34.7781 56.3986 34.8123 56.9211C34.9356 58.8039 35.4417 61.5251 36.1287 63.9982C36.1659 64.132 36.1935 64.0912 36.3221 63.7126C36.6406 62.7748 37.0281 61.045 37.2602 59.5257C37.5942 57.338 37.6184 56.9493 37.6762 52.829C37.7068 50.647 37.7303 46.805 37.7284 44.2914C37.7247 39.3086 37.7698 36.5182 37.8699 35.5316C38.0554 33.7032 38.5864 32.2866 39.2553 31.8359C39.7106 31.5291 40.5478 31.7282 40.7927 32.2016C40.8552 32.3224 40.9288 32.6481 40.9563 32.9254L41.0063 33.4294L41.3314 32.8619C41.5102 32.5497 41.7088 32.2048 41.7726 32.0954L41.8889 31.8964L41.5566 31.3971C41.1664 30.8106 40.6939 30.2638 40.7413 30.4535C40.7587 30.5233 40.7944 30.6947 40.8205 30.8343C40.8466 30.974 40.875 31.1231 40.8837 31.1659C40.8923 31.2086 40.7957 31.1731 40.6691 31.0871C40.4241 30.9206 39.9974 30.7685 39.1504 30.5458C38.7094 30.4298 38.5879 30.3675 38.375 30.1481C38.2361 30.0051 38.1041 29.801 38.0816 29.6947C38.0591 29.5883 37.9557 29.2338 37.8519 28.9068C37.7095 28.4585 37.6321 28.3042 37.5368 28.2793C37.4431 28.2548 37.4195 28.21 37.4458 28.1056C37.4652 28.0282 37.4414 27.8122 37.393 27.6256C37.3446 27.4389 37.318 27.199 37.3339 27.0925C37.3497 26.9859 37.3203 26.7417 37.2685 26.5497C37.1835 26.2347 37.1844 26.1715 37.2784 25.904C37.3756 25.6275 37.3753 25.5841 37.2743 25.2636C37.1441 24.8505 37.1352 24.4469 37.2513 24.2137C37.3249 24.0657 37.3193 23.9711 37.2098 23.5187C37.0878 23.0143 37.0872 22.986 37.1949 22.7473C37.2777 22.5636 37.2959 22.4198 37.265 22.1917C37.1678 21.4737 37.1562 21.0054 37.2322 20.8635C37.2951 20.7459 37.2883 20.6408 37.1962 20.3004C37.098 19.9375 37.0934 19.8349 37.162 19.5283C37.247 19.1485 37.202 18.3538 37.085 18.1663C37.0368 18.0892 37.0473 18.0217 37.1244 17.9115C37.2639 17.7125 37.2668 16.9957 37.1293 16.72C37.035 16.531 37.0387 16.3656 37.1458 15.9884C37.1763 15.8812 37.1949 15.8876 37.3293 16.0519L37.4788 16.2347L37.4811 16.0597C37.4823 15.9635 37.4406 15.6 37.3883 15.252L37.2933 14.6193L37.4835 14.332C37.5881 14.174 37.7589 13.9162 37.8629 13.7591L38.052 13.4735L37.72 13.4725C37.2203 13.4711 37.2124 13.4572 37.3606 12.837C37.4722 12.3694 37.4766 12.2926 37.3953 12.2331C37.3339 12.1882 37.3212 12.1339 37.3583 12.074C37.3944 12.0155 37.3797 11.93 37.3172 11.8345C37.2044 11.6624 37.2338 11.5418 37.4119 11.4465C37.6103 11.3403 37.7593 11.529 37.7184 11.8345C37.7005 11.9678 37.71 12.0919 37.7395 12.1101C37.8377 12.1708 38.228 11.7656 38.2691 11.5604C38.291 11.4504 38.2772 11.1772 38.2382 10.9535C38.1787 10.6115 38.0586 10.3656 37.4853 9.41144C36.8216 8.30669 36.7996 8.25781 36.6645 7.58997C36.4601 6.57943 36.1844 5.73671 35.957 5.42784C35.7069 5.08805 35.6097 5.07681 35.6831 5.3961ZM35.8629 6.45298C35.8604 7.72601 35.7761 8.03038 34.977 9.65379C34.2629 11.1046 34.1854 11.3343 34.3222 11.5953L34.4099 11.7627L34.4895 11.5423C34.6733 11.0342 35.3282 11.2535 35.3231 11.8214C35.322 11.9445 35.2792 12.1007 35.2279 12.1685C35.0967 12.342 35.1112 12.3813 35.2934 12.3465C35.4002 12.326 35.4545 12.2718 35.4595 12.1807C35.4653 12.0734 35.4728 12.0684 35.4958 12.1564C35.5291 12.2835 35.9226 12.3156 35.9958 12.1972C36.0272 12.1464 36.0518 12.1472 36.0845 12.2002C36.1164 12.2518 36.1564 12.2407 36.2194 12.163C36.2687 12.1023 36.2759 12.0725 36.2354 12.0967C36.1949 12.1211 36.1092 12.1207 36.045 12.096C35.9419 12.0564 35.9468 12.0459 36.0869 12.0069L36.2455 11.9627L36.071 11.9564C35.9749 11.9529 35.8964 11.9264 35.8964 11.8976C35.8964 11.7829 36.274 11.9034 36.3145 12.031C36.3552 12.1588 36.3585 12.1583 36.472 12.0082C36.6261 11.8042 36.6849 11.5949 36.5586 11.6997C36.5094 11.7406 36.4875 11.8037 36.51 11.8401C36.5337 11.8785 36.5201 11.8872 36.4774 11.8608C36.4222 11.8267 36.4219 11.7808 36.4762 11.6764L36.5484 11.5375L36.3929 11.6803C36.1952 11.8618 36.0738 11.8604 35.8571 11.674L35.6838 11.5249L35.8281 11.2773C35.9569 11.0563 35.9582 11.0467 35.8406 11.1883C35.7681 11.2756 35.6637 11.5001 35.6084 11.6871C35.5532 11.8741 35.4928 12.0119 35.4742 11.9933C35.4556 11.9747 35.4919 11.7931 35.5549 11.5898C35.618 11.3864 35.6667 11.1847 35.6632 11.1414C35.6597 11.0981 35.68 11.0771 35.7083 11.0946C35.7561 11.1241 35.9718 10.6223 36.0566 10.2847C36.0769 10.2038 36.0992 9.53782 36.106 8.80473L36.1186 7.47191L35.9748 7.98124C35.839 8.46221 35.3996 9.44311 35.3445 9.38801C35.3305 9.37405 35.4207 9.16565 35.5448 8.92495C35.7483 8.53063 35.9235 7.92894 36.069 7.12583L36.1208 6.84019L36.236 7.37974C36.4357 8.31475 36.4802 8.45376 36.6329 8.61855C36.7148 8.70691 36.7802 8.7952 36.7782 8.81476C36.7761 8.83431 36.7903 8.86604 36.8095 8.88534C36.8717 8.94748 36.7952 8.69072 36.6352 8.30015C36.5494 8.09068 36.4485 7.71718 36.4111 7.47007C36.3413 7.00967 36.0975 6.10564 35.9483 5.75474C35.8737 5.57923 35.8645 5.65445 35.8629 6.45298ZM36.2136 7.82408C36.2079 7.87644 36.1973 8.44773 36.1899 9.09361C36.1783 10.12 36.1594 10.3139 36.0399 10.6329C35.9322 10.9208 35.9219 10.9979 35.9913 10.9979C36.0398 10.9979 36.097 10.9693 36.1186 10.9344C36.1402 10.8995 36.1275 10.871 36.0906 10.871C36.0537 10.871 36.0234 10.8407 36.0234 10.8037C36.0234 10.7668 36.0493 10.7525 36.081 10.7721C36.1126 10.7917 36.1261 10.7434 36.111 10.6647L36.0836 10.5218L36.1584 10.6647C36.305 10.9444 36.4025 10.7877 36.2809 10.4679C36.2356 10.3487 36.2431 10.302 36.3119 10.2756C36.3618 10.2564 36.396 10.2611 36.3879 10.2861C36.3608 10.3685 36.5504 10.871 36.6086 10.871C36.64 10.871 36.6496 10.8969 36.63 10.9286C36.6105 10.9603 36.6166 11.0463 36.6438 11.1197C36.6902 11.245 36.6976 11.2416 36.7646 11.0642C36.8181 10.9225 36.8177 10.8786 36.7629 10.8889C36.7228 10.8965 36.6899 10.8598 36.6899 10.8075C36.6899 10.7551 36.7277 10.7201 36.7739 10.7297C36.8202 10.7393 36.846 10.725 36.8314 10.698C36.8166 10.6709 36.7831 10.5917 36.7568 10.5218C36.7114 10.4015 36.7058 10.4031 36.6485 10.552C36.5993 10.6802 36.5772 10.6919 36.5289 10.6155C36.4482 10.4878 36.4522 10.3461 36.5353 10.3974C36.6074 10.442 36.553 10.0068 36.4714 9.88707C36.4126 9.80067 36.425 9.72463 36.5283 9.53794C36.5766 9.45066 36.6091 9.36567 36.6006 9.3491C36.5921 9.33253 36.6159 9.30873 36.6534 9.29623C36.6909 9.28372 36.7216 9.30264 36.7216 9.33831C36.7216 9.37392 36.7744 9.39912 36.839 9.39423C36.9392 9.38668 36.9153 9.32181 36.6759 8.9518C36.4948 8.67181 36.3651 8.37842 36.3097 8.12356C36.2625 7.90647 36.2193 7.77171 36.2136 7.82408ZM36.4335 8.82161C36.4381 8.88394 36.469 8.93917 36.5024 8.94444C36.5688 8.95485 36.5506 8.83723 36.4736 8.75813C36.447 8.73065 36.4289 8.75921 36.4335 8.82161ZM36.8861 8.95732C36.8677 8.98709 36.8902 9.06282 36.9361 9.1256C36.9946 9.20552 37.0333 9.2177 37.0651 9.16622C37.0904 9.12522 37.0668 9.0759 37.0116 9.05476C36.9572 9.03388 36.9286 8.99128 36.9479 8.95999C36.9672 8.92876 36.9687 8.90318 36.9513 8.90318C36.9338 8.90318 36.9045 8.92755 36.8861 8.95732ZM37.0779 9.35913C37.0963 9.38877 37.1378 9.39665 37.1703 9.37652C37.2534 9.32523 37.244 9.30518 37.137 9.30518C37.0862 9.30518 37.0596 9.32949 37.0779 9.35913ZM35.107 9.77325C35.0726 9.86371 35.0799 9.87101 35.1426 9.8088C35.186 9.7657 35.2055 9.71447 35.1859 9.69498C35.1664 9.67543 35.1309 9.71066 35.107 9.77325ZM37.2294 9.9188C37.2668 9.98863 37.3116 10.0458 37.3291 10.0458C37.3465 10.0458 37.3303 9.98863 37.2929 9.9188C37.2555 9.84898 37.2107 9.79185 37.1933 9.79185C37.1758 9.79185 37.192 9.84898 37.2294 9.9188ZM35.2262 10.1462C35.1095 10.2412 35.1093 10.2445 35.2221 10.2085C35.2876 10.1876 35.3851 10.2067 35.4388 10.251C35.5246 10.3217 35.5272 10.3141 35.4603 10.1886C35.3696 10.0185 35.3804 10.0205 35.2262 10.1462ZM36.8486 10.1335C36.8486 10.1469 36.9058 10.1728 36.9756 10.1911C37.0455 10.2094 37.0867 10.1984 37.0671 10.1668C37.0329 10.1115 36.8486 10.0835 36.8486 10.1335ZM34.8569 10.3974C34.7957 10.5569 34.8137 10.5981 34.8885 10.4695C34.9256 10.4057 34.9426 10.3402 34.9262 10.3239C34.9099 10.3075 34.8786 10.3406 34.8569 10.3974ZM35.1136 10.342C35.0387 10.4168 35.0683 10.605 35.171 10.7078C35.2985 10.8352 35.4279 10.8352 35.4768 10.7077C35.5221 10.5896 35.4145 10.3631 35.3131 10.3631C35.274 10.3631 35.2931 10.4197 35.3557 10.4888C35.4631 10.6075 35.4633 10.6167 35.3591 10.6567C35.2272 10.7073 35.1377 10.5877 35.1816 10.4196C35.2138 10.2965 35.1882 10.2673 35.1136 10.342ZM36.8869 10.416C36.8689 10.4452 36.8945 10.469 36.9438 10.469C36.9931 10.469 37.0187 10.4452 37.0007 10.416C36.9828 10.3869 36.9571 10.3631 36.9438 10.3631C36.9305 10.3631 36.9048 10.3869 36.8869 10.416ZM34.8173 10.7916C34.8173 10.8517 35.3252 11.1883 35.4158 11.1883C35.5333 11.1883 35.4209 11.0629 35.2499 11.0033C35.1387 10.9646 34.9959 10.8859 34.9325 10.8286C34.8692 10.7712 34.8173 10.7546 34.8173 10.7916ZM36.3248 10.9081C36.2822 10.9507 36.3939 11.3166 36.4776 11.4085C36.5102 11.4444 36.5156 11.3783 36.4906 11.2498C36.467 11.1287 36.4233 11.0201 36.3938 11.0084C36.3642 10.9966 36.3561 10.961 36.3759 10.929C36.4159 10.8643 36.3823 10.8506 36.3248 10.9081ZM36.075 11.1047C36.1208 11.1231 36.1755 11.1208 36.1966 11.0997C36.2177 11.0786 36.1802 11.0637 36.1133 11.0664C36.0394 11.0694 36.0243 11.0845 36.075 11.1047ZM35.9565 11.3053C35.8327 11.4056 35.8295 11.4238 35.9216 11.5003C36.0091 11.5729 36.0234 11.5673 36.0234 11.4606C36.0234 11.2792 36.0941 11.238 36.1896 11.3639C36.265 11.4631 36.2735 11.4636 36.2753 11.3697C36.2783 11.2137 36.1112 11.18 35.9565 11.3053ZM36.0654 11.5175C36.0172 11.702 36.0658 11.7445 36.1868 11.6235C36.2704 11.5397 36.2713 11.5163 36.193 11.4513C36.1198 11.3906 36.0952 11.4033 36.0654 11.5175ZM35.4203 12.4558C35.1741 12.4886 35.1668 12.4965 35.1795 12.7191C35.1866 12.8454 35.2538 13.0527 35.3288 13.1798C35.4038 13.3071 35.4487 13.4544 35.4283 13.5074C35.3972 13.5883 35.4393 13.5973 35.6915 13.5636C36.0489 13.516 36.0651 13.505 35.9612 13.3798C35.8952 13.3003 35.8983 13.2831 35.9786 13.2831C36.0323 13.2831 36.0908 13.3123 36.1086 13.3481C36.1263 13.3839 36.1334 13.3768 36.1244 13.3323C36.1154 13.2878 36.0533 13.2414 35.9864 13.2293C35.9195 13.2172 35.8361 13.1783 35.8012 13.1428C35.7584 13.0993 35.7866 13.0931 35.888 13.1239C35.9708 13.1489 36.0264 13.145 36.0117 13.1152C35.997 13.0853 35.9361 12.9538 35.8764 12.8229C35.7605 12.5689 35.579 12.5011 35.579 12.7118C35.579 12.8674 35.481 12.8786 35.4238 12.7295C35.4007 12.6696 35.4001 12.6386 35.4223 12.6608C35.4445 12.683 35.5198 12.644 35.5896 12.5742C35.745 12.4188 35.7375 12.4136 35.4203 12.4558ZM36.0005 12.4435C35.9839 12.4704 36.0294 12.6293 36.1018 12.7964C36.2525 13.1445 36.3382 13.0968 36.3398 12.6642C36.3407 12.4202 36.3259 12.3944 36.1858 12.3944C36.1006 12.3944 36.0172 12.4165 36.0005 12.4435ZM35.706 12.8667C35.706 12.9211 35.7346 12.9657 35.7695 12.9657C35.8044 12.9657 35.8329 12.9388 35.8329 12.9059C35.8329 12.8731 35.8044 12.8286 35.7695 12.807C35.7346 12.7854 35.706 12.8123 35.706 12.8667ZM36.399 13.172C36.396 13.1807 36.3866 13.2516 36.3779 13.3296C36.3649 13.4464 36.3782 13.4579 36.4536 13.3954C36.5139 13.3453 36.5209 13.3114 36.4743 13.2958C36.4353 13.2829 36.4196 13.2461 36.4393 13.2142C36.4591 13.1823 36.4592 13.1561 36.4397 13.1561C36.4202 13.1561 36.4018 13.1633 36.399 13.172ZM36.3967 13.7202C36.3926 13.7416 36.3926 13.7806 36.3967 13.8067C36.4079 13.8775 36.291 13.8644 36.2449 13.7897C36.2191 13.7482 35.9631 13.7398 35.527 13.7664C35.1541 13.7891 34.8437 13.8117 34.8371 13.8165C34.79 13.8513 35.0582 14.2653 35.179 14.3445C35.3849 14.4794 35.4311 14.4044 35.2689 14.1983C35.1951 14.1044 35.1358 13.9815 35.1372 13.9251C35.1386 13.8688 35.1811 13.918 35.2318 14.0347C35.2824 14.1514 35.3812 14.2618 35.4515 14.2802C35.5216 14.2985 35.579 14.3404 35.579 14.3733C35.579 14.4062 35.6081 14.4152 35.6435 14.3933C35.679 14.3713 35.6929 14.3288 35.6743 14.2987C35.6126 14.1989 35.7537 14.1714 35.8335 14.2676C35.9202 14.3721 36.1176 14.3997 36.0551 14.2987C36.0335 14.2638 36.0462 14.2352 36.0831 14.2352C36.1201 14.2352 36.1503 14.1335 36.1503 14.0093C36.1503 13.8851 36.177 13.7999 36.2096 13.82C36.2422 13.8402 36.2534 13.9525 36.2344 14.0696C36.2144 14.1929 36.2292 14.3007 36.2695 14.3257C36.313 14.3525 36.3254 14.3326 36.3025 14.273C36.2723 14.1942 36.2991 14.1868 36.4543 14.2313C36.6258 14.2805 36.6401 14.2731 36.6132 14.1493C36.5892 14.0386 36.5964 14.0309 36.6517 14.1083C36.7089 14.1884 36.7198 14.1828 36.7207 14.0733C36.7212 14.0017 36.6859 13.9048 36.6423 13.8577C36.5782 13.7887 36.5798 13.7819 36.6505 13.8221C36.7101 13.8561 36.7287 13.8439 36.7087 13.7838C36.68 13.6978 36.4116 13.643 36.3967 13.7202ZM35.2959 14.8815C35.1716 15.2998 35.1656 15.5611 35.2867 15.2826C35.3322 15.1778 35.3578 15.0602 35.3436 15.021C35.3295 14.9819 35.3658 14.9314 35.4244 14.9089C35.5068 14.8773 35.5235 14.8962 35.4984 14.9924C35.4744 15.0842 35.5261 15.0578 35.697 14.8909C35.8241 14.7668 35.9853 14.6418 36.0551 14.6133C36.1429 14.5775 36.0891 14.5651 35.8807 14.573C35.6272 14.5826 35.5788 14.6045 35.5752 14.7113C35.5714 14.8278 35.5663 14.8265 35.5136 14.6954C35.482 14.6168 35.4421 14.5526 35.4249 14.5526C35.4077 14.5526 35.3496 14.7006 35.2959 14.8815ZM35.7449 15.2527C35.5082 15.496 35.3263 15.7308 35.3406 15.7745C35.374 15.8764 35.7643 15.9161 35.8537 15.8268C35.8912 15.7893 35.9661 15.7605 36.0202 15.7626C36.0744 15.7649 36.0476 15.795 35.9609 15.8296C35.8046 15.8919 35.8056 15.8937 36.0629 16.0089C36.2058 16.0729 36.3911 16.1457 36.4746 16.1707C36.624 16.2154 36.6244 16.2144 36.4995 16.1092C36.3888 16.0159 36.3872 16.0068 36.4869 16.0384C36.5498 16.0583 36.5851 16.0485 36.5655 16.0166C36.5457 15.9848 36.58 15.9456 36.6415 15.9295C36.7369 15.9046 36.7347 15.8991 36.6264 15.892C36.5206 15.885 36.5153 15.8734 36.5947 15.8221C36.6705 15.7731 36.6576 15.7593 36.5312 15.7546C36.4439 15.7513 36.4082 15.7342 36.4518 15.7166C36.4955 15.699 36.5312 15.6577 36.5312 15.6248C36.5312 15.5919 36.4384 15.6099 36.3249 15.6649C36.1783 15.7359 36.1505 15.7391 36.2287 15.6761C36.2892 15.6273 36.3178 15.5642 36.2921 15.5359C36.2666 15.5076 36.2815 15.5051 36.3253 15.5303C36.4069 15.5773 36.5154 15.4043 36.4471 15.336C36.4272 15.3161 36.1913 15.4182 35.9229 15.5629C35.6545 15.7077 35.4219 15.813 35.4059 15.7971C35.3691 15.7603 35.9869 15.4024 36.2624 15.301C36.5274 15.2034 36.4899 15.0901 36.1954 15.099C35.9682 15.1059 35.9681 15.1059 36.1068 14.9934C36.1831 14.9315 36.2297 14.865 36.2104 14.8456C36.1911 14.8262 35.9816 15.0094 35.7449 15.2527ZM35.2328 16.1554C35.2565 16.234 35.2997 16.3238 35.3288 16.355C35.3865 16.417 35.9599 16.2805 35.9599 16.2048C35.9599 16.1479 35.5158 16.0126 35.3294 16.0126C35.214 16.0126 35.1972 16.0374 35.2328 16.1554ZM35.8329 16.367C35.7108 16.4111 35.5465 16.4494 35.468 16.4521C35.3541 16.4559 35.3251 16.4939 35.3251 16.6394C35.3251 16.7397 35.3077 16.9183 35.2864 17.0361L35.2476 17.2503L35.3628 17.0917C35.5092 16.89 35.6037 16.8141 35.9757 16.5993C36.1415 16.5035 36.2772 16.4071 36.2772 16.385C36.2773 16.2997 36.0453 16.2903 35.8329 16.367ZM36.1042 16.8016C35.6652 17.0362 35.2014 17.3573 35.1995 17.4281C35.1988 17.4559 35.242 17.5635 35.2955 17.6669C35.4595 17.984 35.5179 18.4316 35.4146 18.579C35.2677 18.7887 35.3129 18.8225 35.4997 18.6426C35.5957 18.5502 35.8028 18.3885 35.9599 18.2834C36.1366 18.1652 36.1911 18.105 36.1027 18.1256C35.8816 18.1771 35.9974 18.0622 36.2507 17.9786C36.3747 17.9377 36.4634 17.8914 36.4477 17.8757C36.3829 17.8109 36.0556 17.948 35.7792 18.1556L35.4838 18.3775L35.6956 18.1543C35.8818 17.9582 36.141 17.8088 36.4732 17.706C36.554 17.681 36.5716 17.5889 36.5618 17.2404C36.5552 17.0015 36.5726 16.7608 36.6005 16.7055C36.6793 16.5495 36.5174 16.5808 36.1042 16.8016ZM36.3095 18.1066C36.2873 18.1425 36.3127 18.1532 36.3692 18.1315C36.4791 18.0893 36.4993 18.0438 36.408 18.0438C36.3751 18.0438 36.3308 18.0721 36.3095 18.1066ZM36.053 18.3533C35.9122 18.4173 35.6469 18.6158 35.4636 18.7944L35.1302 19.1191L35.2541 19.362C35.3223 19.4956 35.3973 19.7079 35.4209 19.8338L35.4639 20.0626L35.7912 19.9145C35.9713 19.833 36.2285 19.7464 36.3629 19.7221C36.5057 19.6962 36.5759 19.6584 36.5321 19.6312C36.4907 19.6057 36.4586 19.5598 36.4607 19.5292C36.4628 19.4987 36.3724 19.48 36.2598 19.4876L36.0551 19.5015L36.3043 19.4069C36.6185 19.2876 36.6845 19.2259 36.4358 19.2839C36.2534 19.3266 36.2508 19.3243 36.3725 19.2277L36.4995 19.127L36.3725 19.1209C36.2517 19.1152 36.2521 19.1122 36.3819 19.0599C36.4569 19.0296 36.5369 18.9746 36.5598 18.9377C36.5859 18.8953 36.561 18.8859 36.4923 18.9122C36.4185 18.9406 36.3981 18.9302 36.4293 18.8798C36.4546 18.8389 36.4433 18.8055 36.4042 18.8055C36.3652 18.8055 36.3509 18.777 36.3725 18.742C36.3941 18.7071 36.3601 18.6773 36.2969 18.6757C36.2179 18.6737 36.2415 18.6437 36.3725 18.5795C36.4772 18.5282 36.5114 18.5006 36.4485 18.5182C36.369 18.5404 36.3491 18.5262 36.3833 18.4716C36.5415 18.2183 36.4345 18.18 36.053 18.3533ZM36.075 18.7854C36.1208 18.8037 36.1755 18.8015 36.1966 18.7804C36.2177 18.7593 36.1802 18.7443 36.1133 18.7471C36.0394 18.7501 36.0243 18.7652 36.075 18.7854ZM35.9916 19.98C35.852 20.0294 35.6571 20.1593 35.5587 20.2689C35.3612 20.4885 35.3765 20.6075 35.5787 20.4246C35.6487 20.3611 35.706 20.3354 35.706 20.3673C35.706 20.4267 35.4957 20.5844 35.326 20.6524C35.2664 20.6763 35.4308 20.7835 35.7703 20.9421C36.2319 21.1579 36.3342 21.1844 36.4851 21.1278C36.635 21.0715 36.6445 21.0551 36.5486 21.0172C36.4866 20.9927 36.4645 20.9686 36.4995 20.9637C36.5344 20.9588 36.5058 20.9314 36.436 20.9028C36.3175 20.8542 36.3206 20.8462 36.4836 20.7819C36.7994 20.6572 36.6656 20.6506 36.309 20.7733C35.9029 20.913 35.8394 20.8839 36.2189 20.7321C36.3952 20.6616 36.4519 20.6123 36.3966 20.5781C36.3517 20.5504 36.2879 20.5446 36.2546 20.5651C36.2214 20.5857 36.2146 20.5695 36.2395 20.5292C36.2644 20.4889 36.3309 20.4559 36.3873 20.4559C36.4715 20.4559 36.4651 20.4296 36.3518 20.309C36.2003 20.1477 36.1684 20.0415 36.2932 20.1132C36.3368 20.1383 36.3513 20.1355 36.3255 20.1069C36.2996 20.0784 36.3102 20.0167 36.3491 19.9698C36.4422 19.8576 36.3286 19.8608 35.9916 19.98ZM35.1982 20.8518C35.1982 20.8664 35.2721 21.0602 35.3623 21.2824C35.4685 21.5435 35.5139 21.7497 35.4907 21.8653L35.455 22.0441L35.8594 21.8372C36.0818 21.7234 36.251 21.6092 36.2355 21.5833C36.22 21.5575 36.2515 21.5535 36.3057 21.5742C36.4854 21.6432 36.4069 21.5053 36.1976 21.3841C35.6712 21.0796 35.1982 20.8276 35.1982 20.8518ZM35.6344 21.6461C35.5538 21.7489 35.5568 21.7502 35.6743 21.6641C35.7441 21.6128 35.8131 21.5629 35.8277 21.553C35.8422 21.5431 35.8243 21.535 35.7878 21.535C35.7514 21.535 35.6823 21.585 35.6344 21.6461ZM36.2455 21.8446C35.5942 22.0797 35.2617 22.2991 35.2617 22.4939C35.2617 22.5565 35.2928 22.7529 35.3308 22.9302L35.3999 23.2526L35.6466 22.9983C35.7824 22.8585 36.0154 22.6556 36.1647 22.5475C36.3139 22.4394 36.4364 22.3031 36.4369 22.2446C36.4375 22.186 36.4606 22.1024 36.4883 22.0587C36.5177 22.0123 36.5089 21.9794 36.4669 21.9794C36.342 21.9794 36.5636 21.8024 36.7272 21.7716L36.8803 21.7427L36.7216 21.7364C36.6343 21.7329 36.4201 21.7816 36.2455 21.8446ZM36.303 22.5409C36.0968 22.6752 35.871 22.8511 35.8012 22.9318L35.6743 23.0784L35.8329 23.0312C35.9202 23.0052 36.1345 22.946 36.309 22.8996C36.4836 22.8533 36.589 22.8129 36.5433 22.8099C36.4976 22.807 36.4768 22.7778 36.497 22.7451C36.5181 22.7109 36.4588 22.699 36.3579 22.7171C36.232 22.7397 36.2014 22.7291 36.2502 22.6799C36.2877 22.6421 36.3856 22.5982 36.4677 22.5824C36.6082 22.5553 36.7184 22.4516 36.7207 22.3443C36.7221 22.2712 36.7038 22.2798 36.303 22.5409ZM35.9282 22.868C35.9066 22.9029 35.9192 22.9315 35.9562 22.9315C35.9931 22.9315 36.0234 22.9029 36.0234 22.868C36.0234 22.8331 36.0108 22.8045 35.9954 22.8045C35.98 22.8045 35.9497 22.8331 35.9282 22.868ZM35.7264 23.3422C35.3438 23.5161 35.1629 23.7865 35.2241 24.0927C35.2847 24.3955 35.3651 24.4596 35.5585 24.3593C35.6816 24.2954 35.7593 24.2915 35.8733 24.3435C35.998 24.4003 36.0497 24.3896 36.1668 24.2827C36.245 24.2114 36.3947 24.1078 36.4995 24.0526C36.6042 23.9974 36.6507 23.9511 36.6028 23.9497C36.5325 23.9476 36.531 23.9287 36.5947 23.8519C36.6598 23.7735 36.6542 23.7567 36.5629 23.7567C36.4721 23.7567 36.4663 23.7397 36.5306 23.6622C36.5941 23.5856 36.5893 23.5602 36.505 23.5279C36.4292 23.4988 36.4191 23.4662 36.4678 23.4074C36.565 23.2903 36.2346 23.2166 36.1006 23.3255C36.0144 23.3956 36.0057 23.3914 36.0412 23.2965C36.0641 23.2354 36.0766 23.1871 36.069 23.1891C36.0613 23.1911 35.9072 23.26 35.7264 23.3422ZM36.4201 24.215C36.3416 24.2529 36.2773 24.3059 36.2773 24.3328C36.2773 24.3597 36.363 24.339 36.4677 24.2867C36.6498 24.1959 36.7121 24.1327 36.6105 24.1419C36.5843 24.1442 36.4986 24.1772 36.4201 24.215ZM35.5006 24.733C35.4401 24.779 35.3512 24.9102 35.3031 25.0245C35.2287 25.2017 35.2289 25.2588 35.3051 25.4116C35.4025 25.6067 35.4537 25.6297 35.9282 25.692C36.1027 25.7148 36.304 25.7474 36.3755 25.7644C36.484 25.7902 36.5043 25.7657 36.4986 25.6171C36.4949 25.519 36.5076 25.4103 36.5269 25.3753C36.5463 25.3404 36.5643 25.2547 36.5671 25.1849C36.5698 25.1151 36.5933 24.9937 36.6194 24.9151C36.6594 24.7943 36.6441 24.7725 36.5196 24.7737C36.3305 24.7755 35.8646 24.987 35.5926 25.1945C35.4758 25.2836 35.3654 25.3415 35.3472 25.3234C35.329 25.3051 35.3878 25.242 35.4778 25.1831C35.5678 25.124 35.623 25.046 35.6004 25.0095C35.5766 24.9709 35.59 24.9621 35.6326 24.9883C35.7172 25.0406 36.2355 24.7517 36.1717 24.6879C36.0975 24.6136 35.6152 24.6461 35.5006 24.733ZM35.4203 25.8514C35.4419 25.8863 35.5007 25.9149 35.5511 25.9149C35.6014 25.9149 35.6425 25.8863 35.6425 25.8514C35.6425 25.8165 35.5837 25.7879 35.5118 25.7879C35.44 25.7879 35.3988 25.8165 35.4203 25.8514ZM35.8211 25.8948C35.8668 25.9131 35.9216 25.9108 35.9427 25.8898C35.9638 25.8687 35.9263 25.8537 35.8594 25.8564C35.7855 25.8595 35.7704 25.8745 35.8211 25.8948ZM35.4716 26.106C35.175 26.2254 35.0185 26.7527 35.3098 26.6513C35.4137 26.6151 35.4139 26.6179 35.3117 26.6976C35.2142 26.7736 35.2127 26.7961 35.2978 26.9176C35.3742 27.0266 35.422 27.0417 35.5446 26.995C35.6287 26.9631 35.8953 26.9585 36.1416 26.9848C36.3863 27.0109 36.5756 27.0146 36.5622 26.9929C36.5488 26.9711 36.5244 26.8796 36.5081 26.7893C36.4851 26.6627 36.5097 26.6147 36.6158 26.5794L36.7534 26.5335L36.6105 26.5054C36.4815 26.4801 36.4387 26.4159 36.4602 26.2799C36.4737 26.1941 36.1484 26.2301 35.9409 26.3373C35.7571 26.4323 35.7459 26.4325 35.8228 26.3397C35.8696 26.2834 35.9624 26.2199 36.0291 26.1987C36.0958 26.1776 36.1503 26.1336 36.1503 26.1011C36.1503 26.027 35.6588 26.0306 35.4716 26.106ZM35.5436 26.5214C35.4252 26.6162 35.426 26.6174 35.5632 26.5509C35.6417 26.5128 35.706 26.4684 35.706 26.4522C35.706 26.4037 35.673 26.4177 35.5436 26.5214ZM35.6677 27.3385C35.3155 27.4921 35.0696 27.9621 35.2729 28.0932C35.3559 28.1467 35.4965 28.111 35.9086 27.932C36.1997 27.8056 36.5151 27.6828 36.6096 27.659C36.7502 27.6237 36.7664 27.6011 36.699 27.5336C36.6158 27.4504 36.2165 27.4855 36.0185 27.5935C35.9688 27.6205 36.0139 27.5692 36.1186 27.4793C36.2957 27.3274 36.2994 27.3158 36.1714 27.3137C36.0957 27.3124 35.9957 27.2981 35.9492 27.2819C35.9027 27.2658 35.776 27.2912 35.6677 27.3385ZM35.9758 28.0115C35.8274 28.0774 35.7059 28.1397 35.7059 28.1498C35.7059 28.16 35.863 28.1585 36.0551 28.1465C36.2471 28.1346 36.4042 28.1155 36.4042 28.1041C36.4042 28.0371 36.3208 27.8834 36.2864 27.8872C36.2639 27.8896 36.1241 27.9456 35.9758 28.0115ZM35.4845 28.3862C35.0865 28.4145 34.973 28.4443 34.9577 28.5247C34.9427 28.6039 35.0076 28.6352 35.2428 28.6625C35.4103 28.6819 35.5745 28.6715 35.6076 28.6393C35.6454 28.6027 35.6395 28.5809 35.5917 28.5809C35.5498 28.5809 35.5165 28.5452 35.5177 28.5016C35.5189 28.4555 35.5656 28.4755 35.6287 28.5492C35.7379 28.6763 36.1298 28.7017 36.0525 28.5766C36.0323 28.544 36.0764 28.5174 36.1503 28.5174C36.2243 28.5174 36.2687 28.4913 36.2489 28.4594C36.2292 28.4274 36.2489 28.3869 36.2928 28.3692C36.343 28.349 36.3333 28.3352 36.2667 28.332C36.2085 28.3293 36.1465 28.3627 36.1289 28.4064C36.1033 28.4698 36.0959 28.4698 36.0919 28.4064C36.0891 28.3627 36.0655 28.3323 36.0392 28.3386C36.013 28.345 35.7634 28.3665 35.4845 28.3862ZM35.706 28.5174C35.706 28.5523 35.7346 28.5809 35.7695 28.5809C35.8044 28.5809 35.8329 28.5523 35.8329 28.5174C35.8329 28.4825 35.8044 28.454 35.7695 28.454C35.7346 28.454 35.706 28.4825 35.706 28.5174ZM36.1979 28.6229C36.2416 28.6406 36.313 28.6406 36.3566 28.6229C36.4003 28.6054 36.3646 28.5909 36.2773 28.5909C36.19 28.5909 36.1543 28.6054 36.1979 28.6229ZM34.9638 28.8791C34.8745 28.8965 34.8018 28.9787 34.7609 29.1085C34.6411 29.4896 34.6485 29.5539 34.8173 29.5953C34.9634 29.6312 34.9381 29.6599 34.4981 29.957C33.939 30.3345 33.8157 30.4611 33.9123 30.5578C33.9596 30.605 34.0948 30.5733 34.368 30.4506C34.5817 30.3547 34.7444 30.2641 34.7295 30.2493C34.7147 30.2345 34.5802 30.2815 34.4307 30.3538C34.1203 30.5038 34.0625 30.5164 34.1678 30.4111C34.2622 30.3167 34.68 30.1556 34.8589 30.1445C34.9341 30.1399 34.9841 30.1175 34.97 30.0947C34.956 30.0719 35.0447 29.9942 35.1671 29.9219C35.2896 29.8497 35.3824 29.7677 35.3733 29.7397C35.3643 29.7117 35.4854 29.5784 35.6425 29.4435L35.9282 29.1981L35.6609 29.4608C35.5139 29.6053 35.4169 29.7235 35.4454 29.7235C35.5008 29.7235 36.1503 29.0558 36.1503 28.9989C36.1503 28.9586 35.9133 29.0449 35.6262 29.1898C35.3036 29.3526 35.5107 29.182 35.8583 28.9988L36.1692 28.8348L35.6361 28.8435C35.3429 28.8482 35.0403 28.8643 34.9638 28.8791ZM36.5783 28.9672C36.5169 29.0029 36.4312 29.0142 36.3879 28.9922C36.2961 28.9458 36.5059 29.1199 36.6856 29.2392C36.7825 29.3036 36.7905 29.3318 36.7235 29.3732C36.6667 29.4083 36.6536 29.4014 36.6839 29.3525C36.7087 29.3122 36.6965 29.2792 36.6566 29.2792C36.5626 29.2792 36.6136 29.4354 36.711 29.4458C36.7518 29.4502 36.7994 29.4609 36.8168 29.4696C36.8343 29.4783 36.87 29.4895 36.8962 29.4943C37.0006 29.5139 37.1027 29.6083 37.0725 29.6572C37.0548 29.6857 37.0785 29.7408 37.1251 29.7794C37.1924 29.8353 37.2079 29.814 37.2005 29.6755C37.1953 29.5797 37.1641 29.5009 37.131 29.5004C37.0342 29.4988 36.912 29.4043 36.912 29.3311C36.912 29.288 36.9522 29.2924 37.0231 29.3431C37.0842 29.3869 37.0342 29.3271 36.912 29.2103C36.7899 29.0935 36.697 28.9755 36.7057 28.9481C36.7256 28.8857 36.7156 28.8872 36.5783 28.9672ZM36.5629 29.5331C36.6261 29.6029 36.6921 29.66 36.7096 29.66C36.727 29.66 36.6896 29.6029 36.6264 29.5331C36.5632 29.4632 36.4972 29.4061 36.4798 29.4061C36.4623 29.4061 36.4998 29.4632 36.5629 29.5331ZM36.1428 29.5051C36.1387 29.5379 36.1394 29.5884 36.1444 29.6171C36.1494 29.6459 36.1269 29.653 36.0944 29.6329C36.0619 29.6129 35.912 29.7436 35.7614 29.9236C35.4737 30.2672 35.0517 30.5035 34.5874 30.581C34.452 30.6036 34.2984 30.6367 34.246 30.6546C34.1937 30.6725 34.0223 30.6972 33.8652 30.7095C33.6104 30.7293 32.4781 31.0259 32.4146 31.0894C32.4008 31.1032 32.4076 31.1615 32.4296 31.2189C32.4645 31.3099 32.4844 31.305 32.585 31.1808C32.665 31.082 32.8061 31.0226 33.0448 30.9872C33.8084 30.8741 34.2151 30.7932 34.23 30.7514C34.2387 30.7272 34.4429 30.7168 34.6839 30.7282C35.1381 30.7498 35.1949 30.7993 35.0145 31.0166C34.9414 31.1048 34.9207 31.1054 34.8376 31.0224C34.6951 30.8798 34.6262 30.9709 34.7028 31.2007C34.8032 31.5018 34.8628 31.5371 34.9097 31.3233C34.9327 31.2187 35.0042 31.0854 35.0686 31.0271C35.1465 30.9567 35.1765 30.8623 35.1582 30.746C35.136 30.6056 35.163 30.5562 35.2943 30.4963C35.5095 30.3983 35.4993 30.3936 35.5472 30.6115C35.5765 30.745 35.6539 30.8321 35.808 30.9053C36.014 31.0031 36.0348 31.0024 36.1545 30.8941C36.2245 30.8307 36.2674 30.7413 36.2498 30.6955C36.2322 30.6497 36.2455 30.6122 36.2793 30.6122C36.3131 30.6122 36.3403 30.5621 36.3398 30.5011C36.339 30.4061 36.3298 30.4038 36.2773 30.4852C36.2238 30.568 36.2156 30.567 36.2148 30.4771C36.2133 30.3198 36.0751 30.2383 35.9134 30.2997C35.8172 30.3361 35.7843 30.3866 35.8111 30.4563C35.8421 30.5371 35.8616 30.5415 35.9018 30.4765C35.9299 30.4309 35.9729 30.4136 35.9972 30.4379C36.0215 30.4622 36.0017 30.5303 35.9531 30.5892C35.877 30.6814 35.8777 30.692 35.9581 30.6654C36.0095 30.6484 36.0683 30.5652 36.0887 30.4805C36.1249 30.3299 36.1266 30.3296 36.1625 30.464C36.2045 30.6216 36.0939 30.88 35.9742 30.9039C35.9297 30.9128 35.9237 30.9051 35.9609 30.8869C36 30.8677 35.9604 30.7905 35.8673 30.7043C35.7028 30.5518 35.6512 30.2727 35.7734 30.1972C35.8105 30.1742 35.8672 30.0861 35.8994 30.0013C35.9894 29.7645 36.134 29.7475 36.3446 29.9493C36.5745 30.1697 36.5827 30.3695 36.3773 30.7558C36.2412 31.0116 36.2339 31.0588 36.314 31.162C36.4005 31.2735 36.4026 31.273 36.3608 31.1517C36.3219 31.0391 36.3291 31.0346 36.4241 31.1119C36.4996 31.1733 36.5312 31.1769 36.5312 31.124C36.5312 31.0828 36.5598 31.0667 36.5947 31.0882C36.6296 31.1098 36.6581 31.0941 36.6581 31.0535C36.6581 31.0128 36.6181 30.9948 36.5692 31.0136C36.4332 31.0658 36.3927 30.9839 36.4973 30.8684C36.5486 30.8117 36.5971 30.6808 36.605 30.5776C36.6171 30.4192 36.6484 30.3878 36.8064 30.376C36.9093 30.3683 37.0394 30.3911 37.0956 30.4266C37.1777 30.4786 37.1701 30.4837 37.0573 30.453C36.8773 30.404 36.6581 30.5205 36.6581 30.6652C36.6581 30.7268 36.6239 30.8115 36.582 30.8534C36.5253 30.9101 36.5247 30.9295 36.5798 30.9295C36.6748 30.9295 36.7947 30.7079 36.7353 30.6421C36.7103 30.6144 36.7224 30.6104 36.7621 30.633C36.8017 30.6557 36.8677 30.6338 36.9087 30.5844C37.0235 30.4462 37.3743 30.5827 37.3226 30.7455C37.2539 30.962 37.3635 31.0178 37.5072 30.8395L37.642 30.6721L38.1372 30.8026C38.4096 30.8743 38.6576 30.9175 38.6883 30.8985C38.719 30.8795 38.7621 30.8931 38.784 30.9287C38.807 30.9658 38.9372 30.9778 39.0899 30.9571L39.3559 30.9209L39.1337 31.0258C38.6266 31.2652 38.3927 31.3592 38.1974 31.4021C38.084 31.4271 37.9911 31.4666 37.991 31.49C37.991 31.5134 37.9013 31.5389 37.7919 31.5466C37.5575 31.563 37.5757 31.5469 37.5221 31.7865C37.4986 31.8912 37.5017 31.9455 37.529 31.907C37.6016 31.8048 38.0989 31.5027 38.1351 31.539C38.1521 31.5561 38.3624 31.4791 38.6023 31.368C38.8422 31.2569 39.1956 31.0997 39.3876 31.0187C39.5797 30.9377 39.6939 30.8697 39.6415 30.8675C39.3678 30.8562 38.1575 30.673 37.7835 30.5862C37.5471 30.5313 37.2391 30.428 37.0989 30.3565C36.9588 30.285 36.8197 30.2416 36.7897 30.2602C36.7597 30.2787 36.717 30.2215 36.6948 30.133C36.6726 30.0446 36.6325 29.9858 36.6056 30.0023C36.5788 30.0189 36.5154 30.0063 36.4647 29.9742C36.3903 29.9271 36.3893 29.9157 36.4596 29.9149C36.5295 29.9141 36.5313 29.8953 36.4683 29.8194C36.4251 29.7674 36.3601 29.7433 36.3237 29.7658C36.2874 29.7882 36.2739 29.7804 36.2936 29.7484C36.3133 29.7165 36.2892 29.6352 36.2399 29.5678C36.1906 29.5004 36.147 29.4722 36.1428 29.5051ZM35.9599 29.9752C35.9599 30.0088 36.0148 30.0658 36.0819 30.1017C36.149 30.1376 36.249 30.2121 36.3041 30.2672C36.3844 30.3475 36.4042 30.3497 36.4042 30.2787C36.4042 30.173 36.1421 29.9139 36.0352 29.9139C35.9937 29.9139 35.9599 29.9415 35.9599 29.9752ZM35.2961 30.6713C35.276 30.7038 35.2839 30.7453 35.3135 30.7637C35.3432 30.782 35.3675 30.7554 35.3675 30.7046C35.3675 30.5976 35.3474 30.5882 35.2961 30.6713ZM37.0735 30.7347C37.0534 30.7672 37.063 30.8099 37.0948 30.8296C37.1266 30.8492 37.169 30.8227 37.1891 30.7705C37.2285 30.6676 37.1331 30.6381 37.0735 30.7347ZM40.9816 31.1608C41.0459 31.3927 41.1078 31.5917 41.1192 31.6031C41.1305 31.6145 41.2476 31.6688 41.3793 31.7238C41.5594 31.799 41.6058 31.8031 41.5665 31.7401C41.4073 31.4856 40.897 30.7391 40.8821 30.7391C40.8725 30.7391 40.9172 30.9288 40.9816 31.1608ZM31.2384 31.0565C31.0708 31.3098 31.0857 31.3814 31.2746 31.2311C31.363 31.1607 31.4937 30.8026 31.431 30.8026C31.4175 30.8026 31.3309 30.9169 31.2384 31.0565ZM35.3939 30.9834C35.1079 31.1216 34.916 31.4818 35.0045 31.7143C35.0394 31.8064 35.1045 31.8812 35.149 31.8807C35.2106 31.88 35.2094 31.8668 35.1438 31.8252C35.0813 31.7855 35.0715 31.712 35.1083 31.5564C35.1361 31.4386 35.1532 31.3201 35.1463 31.2931C35.1291 31.2258 35.4101 31.1251 35.5555 31.1464C35.648 31.16 35.6746 31.2188 35.6757 31.4117C35.6765 31.548 35.6514 31.6777 35.62 31.7C35.5885 31.7223 35.5851 31.7767 35.6124 31.8209C35.6878 31.9429 35.6717 32.3858 35.5888 32.4686C35.5335 32.524 35.5145 32.5116 35.5111 32.4181C35.5067 32.2977 35.5053 32.2978 35.4571 32.4212C35.4071 32.5493 35.5543 32.7297 35.657 32.6662C35.6831 32.6501 35.6875 32.6811 35.6668 32.7353C35.6459 32.7895 35.6018 32.8338 35.5685 32.8338C35.5352 32.8338 35.5286 32.7982 35.5537 32.7545C35.5789 32.7109 35.5757 32.6966 35.5467 32.7229C35.5178 32.7492 35.4447 32.7259 35.3842 32.6712C35.3063 32.6006 35.2613 32.5926 35.2298 32.6436C35.2041 32.6852 35.2959 32.8102 35.4479 32.9402C35.5922 33.0638 35.7685 33.2788 35.8396 33.4181C35.9106 33.5574 35.9812 33.6589 35.9963 33.6437C36.0464 33.5937 35.8813 33.1856 35.754 33.0448C35.62 32.8966 35.6503 32.753 35.8032 32.8117C35.885 32.843 35.9077 32.8068 35.8922 32.6694C35.8899 32.6487 35.9388 32.5947 36.0009 32.5493C36.0936 32.4815 36.0995 32.4494 36.0338 32.3703C35.8629 32.1644 36.0954 32.1976 36.3635 32.4173C36.6767 32.6739 36.7851 32.6995 36.7851 32.5165C36.7851 32.4459 36.7428 32.3895 36.6899 32.3895C36.6375 32.3895 36.5951 32.3395 36.5956 32.2784C36.5964 32.1835 36.6056 32.1812 36.6581 32.2626C36.7424 32.393 36.7436 32.2318 36.6595 32.0746C36.6142 31.99 36.6232 31.937 36.6929 31.8792C36.7621 31.8218 36.7781 31.7305 36.7511 31.5489C36.723 31.3609 36.733 31.31 36.7909 31.3458C36.8402 31.3762 36.8518 31.367 36.8229 31.3202C36.7581 31.2153 36.5514 31.2297 36.5082 31.3421C36.4882 31.3945 36.4994 31.4374 36.5332 31.4374C36.567 31.4374 36.5947 31.4659 36.5947 31.5008C36.5947 31.6136 36.4769 31.5686 36.3045 31.3898L36.1361 31.2152L36.1723 31.3744C36.2153 31.5634 36.1218 31.7532 36.0322 31.659C35.9992 31.6244 35.9619 31.5389 35.9493 31.4691C35.9367 31.3993 35.8867 31.3421 35.8382 31.3421C35.7896 31.3421 35.74 31.2921 35.7279 31.2311C35.652 30.8466 35.6618 30.8538 35.3939 30.9834ZM36.7851 30.9061C36.7851 30.9257 36.9 31.0724 37.0405 31.2319C37.3674 31.6033 37.3988 31.7402 37.2321 32.067C37.1581 32.2118 37.1175 32.3624 37.1416 32.4015C37.1661 32.441 37.1572 32.4551 37.1216 32.4331C37.0559 32.3924 36.6581 32.8951 36.6581 33.0187C36.6581 33.0567 36.6296 33.0877 36.5947 33.0877C36.5598 33.0877 36.5312 33.0544 36.5312 33.0137C36.5312 32.973 36.5146 32.9562 36.4943 32.9765C36.474 32.9968 36.4877 33.07 36.5247 33.1391C36.5759 33.2349 36.5697 33.2834 36.4981 33.3427C36.4089 33.4167 36.3788 33.3879 36.3976 33.2464C36.4023 33.2115 36.3485 33.2504 36.2782 33.3328C36.1928 33.4329 36.1503 33.5739 36.1503 33.7576C36.1503 34.066 36.237 34.1702 36.3376 33.9824C36.4214 33.8258 36.4225 33.7672 36.3408 33.8177C36.3024 33.8414 36.2773 33.7549 36.2773 33.5993C36.2773 33.3139 36.3187 33.2711 36.3952 33.4776C36.4411 33.6017 36.4579 33.5898 36.587 33.3421C36.6648 33.1928 36.8378 32.9388 36.9714 32.7777C37.3436 32.3287 37.4002 32.1899 37.429 31.6564C37.4422 31.4116 37.2808 31.1628 37.0021 30.9984C36.8827 30.928 36.7851 30.8864 36.7851 30.9061ZM39.8954 31.057C39.8211 31.1047 39.8373 31.1183 39.9696 31.119C40.0628 31.1195 40.1913 31.1384 40.2552 31.161C40.3346 31.1891 40.3513 31.1812 40.308 31.1365C40.206 31.0309 39.9985 30.9909 39.8954 31.057ZM32.9118 31.1207C32.8056 31.1864 32.7175 31.1476 33.7587 31.4937C34.343 31.688 34.5503 31.7314 34.6951 31.6899C34.8688 31.6401 34.8785 31.6465 34.8431 31.7877C34.7907 31.9965 35.1085 32.695 35.2097 32.5938C35.2633 32.5402 35.2629 32.4993 35.2082 32.4333C35.1678 32.3846 35.082 32.1783 35.0176 31.9749C34.9139 31.6474 34.8793 31.6025 34.7161 31.5827C34.5589 31.5636 33.1387 31.1423 33.0369 31.0846C33.0178 31.0738 32.9615 31.09 32.9118 31.1207ZM35.8964 31.148C35.8964 31.1983 35.9189 31.2533 35.9463 31.2703C35.9737 31.2872 35.9961 31.246 35.9961 31.1788C35.9961 31.1115 35.9737 31.0565 35.9463 31.0565C35.9189 31.0565 35.8964 31.0976 35.8964 31.148ZM39.4938 31.238C39.388 31.2798 39.3907 31.2898 39.5256 31.3533C39.6068 31.3915 39.7447 31.4247 39.832 31.427L39.9907 31.4312L39.832 31.3088C39.6563 31.1732 39.6577 31.1735 39.4938 31.238ZM31.5384 31.3449C31.4813 31.4938 31.543 31.5112 31.6305 31.371C31.6796 31.2924 31.6838 31.2469 31.642 31.2469C31.6057 31.2469 31.5591 31.291 31.5384 31.3449ZM40.4033 31.3104C40.4033 31.4341 40.4323 31.4688 40.5189 31.449C40.5677 31.4378 40.5879 31.4589 40.5646 31.4966C40.5397 31.5368 40.5802 31.5643 40.6645 31.5643H40.8063L40.6572 31.4056C40.5012 31.2396 40.4033 31.2029 40.4033 31.3104ZM32.5718 31.3554C32.505 31.4222 32.8094 31.5938 32.9597 31.5741C33.0676 31.5599 33.0935 31.5799 33.0647 31.655C33.016 31.7818 33.1264 31.7848 33.2304 31.6595C33.2739 31.6072 33.2988 31.5643 33.2858 31.5642C33.2728 31.5642 33.1156 31.5085 32.9364 31.4404C32.7572 31.3723 32.5931 31.3341 32.5718 31.3554ZM35.3799 31.3891C35.4704 31.5044 35.5827 31.4843 35.574 31.3543C35.5706 31.3024 35.5587 31.3044 35.5361 31.3607C35.5092 31.4276 35.484 31.4276 35.3983 31.3607C35.3047 31.2875 35.3027 31.2906 35.3799 31.3891ZM39.2032 31.3701C39.1507 31.4026 39.1376 31.4566 39.1695 31.5096C39.2116 31.5795 39.2032 31.5812 39.1257 31.5185C38.9902 31.4089 38.7289 31.5927 38.7741 31.7658C38.7995 31.8627 38.7883 31.874 38.7218 31.8188C38.6576 31.7655 38.6149 31.7808 38.5435 31.8828C38.4556 32.0081 38.4633 32.2626 38.5549 32.2626C38.6186 32.2626 38.9138 31.7525 38.8931 31.6782C38.8827 31.6412 38.9201 31.6296 38.9781 31.6519C39.1055 31.7008 39.3938 31.4866 39.333 31.3882C39.307 31.3461 39.254 31.3388 39.2032 31.3701ZM31.0565 31.5587C30.8533 31.6761 30.8267 31.7573 31.0066 31.7102C31.1305 31.6778 31.3037 31.5162 31.2558 31.4778C31.2421 31.4667 31.1524 31.5032 31.0565 31.5587ZM32.1989 31.5429C32.2426 31.5605 32.314 31.5605 32.3576 31.5429C32.4013 31.5253 32.3655 31.5109 32.2783 31.5109C32.191 31.5109 32.1553 31.5253 32.1989 31.5429ZM31.6509 31.6474C31.6462 31.7198 31.6142 31.7457 31.5641 31.7174C31.5012 31.6819 31.5009 31.6901 31.5631 31.7571C31.6604 31.862 31.7282 31.8033 31.6882 31.6486C31.6596 31.538 31.6579 31.5379 31.6509 31.6474ZM36.8175 31.6288C36.8394 31.6643 36.8839 31.6769 36.9164 31.6568C37.0045 31.6024 36.9881 31.5643 36.8766 31.5643C36.8222 31.5643 36.7956 31.5933 36.8175 31.6288ZM33.3256 31.7547C33.3022 31.8286 33.2528 31.866 33.21 31.8423C33.1688 31.8197 33.2271 31.8964 33.3395 32.0128C33.4518 32.1291 33.5556 32.2115 33.5701 32.1958C33.644 32.1159 33.6788 31.7547 33.6125 31.7547C33.5728 31.7547 33.556 31.7801 33.5751 31.811C33.5942 31.842 33.5661 31.9036 33.5127 31.948C33.4391 32.0091 33.3976 32.0108 33.342 31.9552C33.2913 31.9045 33.2901 31.8817 33.3379 31.8817C33.4281 31.8817 33.4956 31.7057 33.4226 31.6607C33.3918 31.6416 33.3481 31.6839 33.3256 31.7547ZM31.3261 31.7547C31.3261 31.7897 31.2816 31.8182 31.2272 31.8182C31.1728 31.8182 31.1462 31.8472 31.1681 31.8827C31.19 31.9182 31.2321 31.9323 31.2616 31.9141C31.2911 31.8958 31.3297 31.9168 31.3474 31.9607C31.3651 32.0045 31.3818 31.9618 31.3846 31.8658C31.3873 31.7698 31.3753 31.6913 31.3578 31.6913C31.3404 31.6913 31.3261 31.7198 31.3261 31.7547ZM40.9498 31.9805C41.0415 32.1007 41.131 32.1991 41.1485 32.1991C41.1661 32.1991 41.1444 32.1555 41.1002 32.1023C41.0561 32.0491 41.0399 31.9857 41.0642 31.9614C41.0885 31.937 41.135 31.9591 41.1675 32.0105C41.2 32.0618 41.2269 32.0717 41.2275 32.0323C41.2288 31.9358 41.0808 31.8192 40.917 31.7876C40.7896 31.7631 40.7912 31.7725 40.9498 31.9805ZM35.9007 31.969C35.7989 32.1592 35.8633 32.3056 35.9991 32.1929C36.0719 32.1324 36.1194 32.1432 36.2315 32.2452C36.3925 32.3915 36.5312 32.3701 36.5312 32.1989C36.5312 31.9622 36.4656 31.8857 36.3123 31.9439C36.2107 31.9826 36.1404 31.9715 36.0756 31.9067C35.9949 31.826 35.973 31.8339 35.9007 31.969ZM37.0179 31.8606C36.9946 31.8838 36.9755 31.9323 36.9755 31.9685C36.9755 32.0082 37.0051 32.0045 37.0506 31.9589C37.0919 31.9176 37.111 31.8691 37.093 31.851C37.0749 31.833 37.0411 31.8373 37.0179 31.8606ZM30.7548 32.0064C30.7548 32.0914 30.9977 32.2134 31.0735 32.1665C31.2116 32.0812 31.1328 31.9452 30.9453 31.9452C30.8405 31.9452 30.7548 31.9727 30.7548 32.0064ZM30.9453 32.0759C30.9453 32.1128 30.9738 32.1254 31.0087 32.1039C31.0436 32.0823 31.0722 32.0521 31.0722 32.0366C31.0722 32.0212 31.0436 32.0086 31.0087 32.0086C30.9738 32.0086 30.9453 32.0389 30.9453 32.0759ZM33.7294 32.1606C33.6448 32.2735 33.64 32.3196 33.7039 32.407C33.7472 32.4661 33.8057 32.4935 33.834 32.4678C33.8623 32.4423 33.8661 32.4552 33.8422 32.4968C33.7811 32.6035 34.0048 32.9466 34.112 32.9105C34.168 32.8917 34.1831 32.9086 34.1534 32.9567C34.1276 32.9984 34.1262 33.1374 34.1502 33.2656C34.1913 33.4847 34.1994 33.4913 34.2835 33.3763C34.3327 33.309 34.3727 33.1808 34.3723 33.0915C34.3715 32.8712 34.0734 32.2441 33.9931 32.2937C33.9577 32.3156 33.9286 32.2764 33.9286 32.2066C33.9286 32.0208 33.848 32.0023 33.7294 32.1606ZM35.1347 32.0721C35.1347 32.107 35.1616 32.1356 35.1944 32.1356C35.2273 32.1356 35.2718 32.107 35.2934 32.0721C35.315 32.0372 35.2881 32.0086 35.2337 32.0086C35.1793 32.0086 35.1347 32.0372 35.1347 32.0721ZM36.3575 32.1458C36.3498 32.248 36.3652 32.2635 36.4202 32.2085C36.4682 32.1605 36.4717 32.1142 36.4304 32.0729C36.3891 32.0316 36.3642 32.0564 36.3575 32.1458ZM41.2376 32.1832C41.1683 32.3451 41.1699 32.3488 41.2592 32.2346C41.3121 32.1668 41.3554 32.0882 41.3554 32.06C41.3554 31.9635 41.3124 32.0086 41.2376 32.1832ZM38.1359 32.4257C37.9976 32.6423 37.9971 32.6501 38.1107 32.837L38.2266 33.0275L38.3359 32.7413C38.5214 32.2556 38.3834 32.0379 38.1359 32.4257ZM35.7331 32.3736C35.6847 32.4539 35.689 32.5286 35.7486 32.6434C35.821 32.7826 35.8642 32.7742 35.8399 32.6258C35.8354 32.5986 35.8743 32.5601 35.9264 32.5401C35.9982 32.5125 36.0054 32.4746 35.9565 32.3832C35.8763 32.2333 35.8191 32.2309 35.7331 32.3736ZM37.4027 32.6496C37.292 32.8456 37.2926 32.8507 37.4427 32.9899L37.5952 33.1312L37.6603 32.9188C37.7131 32.7471 37.7054 32.682 37.6203 32.5785C37.5164 32.4522 37.5137 32.4531 37.4027 32.6496ZM34.6904 32.7069C34.6332 32.7438 34.6253 32.7688 34.6708 32.7694C34.7123 32.7699 34.764 32.7418 34.7856 32.7069C34.8343 32.6281 34.8123 32.6281 34.6904 32.7069ZM35.5473 32.9608C35.6837 33.1004 35.8095 33.2147 35.827 33.2147C35.8444 33.2147 35.7471 33.1004 35.6108 32.9608C35.4744 32.8211 35.3486 32.7069 35.3311 32.7069C35.3136 32.7069 35.411 32.8211 35.5473 32.9608ZM36.2151 32.8036C36.2593 32.8568 36.3084 32.8873 36.3244 32.8714C36.3684 32.8273 36.279 32.7069 36.2023 32.7069C36.1602 32.7069 36.165 32.7433 36.2151 32.8036ZM36.5629 32.7704C36.5413 32.8053 36.554 32.8338 36.5909 32.8338C36.6279 32.8338 36.6581 32.8053 36.6581 32.7704C36.6581 32.7355 36.6456 32.7069 36.6302 32.7069C36.6147 32.7069 36.5845 32.7355 36.5629 32.7704ZM35.9435 32.8896C35.9247 32.9617 35.949 33.0524 35.9982 33.0932C36.0688 33.1517 36.0867 33.1425 36.0859 33.0479C36.0853 32.9826 36.0608 32.8909 36.0312 32.8443C35.9902 32.7798 35.9694 32.7905 35.9435 32.8896ZM37.8733 32.9132C37.8451 32.9918 37.7586 33.2291 37.6812 33.4406L37.5404 33.8252L37.691 34.0904L37.8416 34.3554L38.0004 33.727C38.1394 33.1764 38.1484 33.0784 38.0731 32.9345C37.9678 32.7335 37.9388 32.7305 37.8733 32.9132ZM34.6904 32.8936C34.6904 32.9265 34.7186 32.9708 34.7532 32.9921C34.7891 33.0143 34.7997 32.9889 34.7781 32.9324C34.7359 32.8224 34.6904 32.8023 34.6904 32.8936ZM36.2202 33.0055C36.2664 33.0825 36.3179 33.1318 36.3346 33.1151C36.3513 33.0984 36.3135 33.0354 36.2506 32.9751C36.1413 32.8705 36.1399 32.8718 36.2202 33.0055ZM36.1227 33.1961C36.0883 33.2866 36.0955 33.2939 36.1582 33.2316C36.2016 33.1885 36.2211 33.1373 36.2016 33.1178C36.182 33.0983 36.1465 33.1335 36.1227 33.1961ZM36.9068 33.3702C36.8244 33.5256 36.7387 33.6232 36.7164 33.5871C36.6941 33.551 36.6728 33.6024 36.6691 33.7013C36.6581 33.9972 36.6327 34.1625 36.6028 34.1326C36.5873 34.1171 36.5387 34.1342 36.4949 34.1706C36.4376 34.2182 36.4131 34.5313 36.4073 35.291C36.4028 35.8709 36.3782 36.3828 36.3526 36.4286C36.327 36.4744 36.3171 36.0271 36.3307 35.4345C36.348 34.6806 36.3345 34.3573 36.2858 34.3573C36.2475 34.3573 36.203 34.4215 36.1867 34.5001C36.1527 34.665 36.0599 37.4995 36.0823 37.6898C36.0905 37.7596 36.1042 39.8232 36.1127 42.2755L36.1281 46.7343L36.3206 47.0045C36.4955 47.2499 36.5203 47.3489 36.5913 48.0807C36.6607 48.7961 36.6571 48.949 36.5592 49.4425C36.463 49.9276 36.4546 50.2203 36.4937 51.7389C36.529 53.108 36.5585 53.5098 36.6321 53.6222C36.7402 53.7872 36.7115 54.0913 36.5273 54.7333C36.4312 55.0681 36.3959 55.5345 36.3403 57.2088C36.2424 60.1506 36.2379 60.1638 36.2252 57.5522C36.2147 55.3834 36.2238 55.1588 36.3408 54.7015C36.4861 54.1333 36.5004 53.8323 36.3915 53.6341C36.2822 53.4352 36.2678 50.2024 36.3724 49.3666C36.48 48.5079 36.3764 47.3705 36.1646 47.0843C35.9587 46.8061 35.9341 46.0754 36.0142 42.6092C36.081 39.7182 36.0495 37.4245 35.9515 38.0389C35.9264 38.196 35.8999 38.8816 35.8927 39.5624L35.8796 40.8002L35.7919 39.975C35.7436 39.5211 35.6846 39.0069 35.6607 38.8324L35.6173 38.515L35.5754 38.7689C35.5341 39.0196 35.5334 39.0184 35.5171 38.6737L35.5006 38.3246L35.4341 38.6419C35.3976 38.8165 35.3696 39.3164 35.3719 39.7528C35.3762 40.5474 35.3377 40.5251 35.2283 39.6696C35.1832 39.3168 35.0608 39.2961 35.0003 39.6308L34.961 39.848L34.9426 39.5941C34.9313 39.4379 34.9059 39.5599 34.8766 39.9115C34.8161 40.638 34.8178 51.2304 34.8785 52.1625L34.924 52.8607L34.9351 52.0672C34.9419 51.5794 34.9678 51.3079 35.0023 51.3623C35.0503 51.4381 35.0625 51.4381 35.0867 51.3623C35.1023 51.3136 35.1059 51.3452 35.0947 51.4325C35.0836 51.5198 35.0993 51.6911 35.1298 51.8133L35.1852 52.0355L35.1917 51.8165C35.2003 51.5262 35.3087 51.6385 35.342 51.972C35.3642 52.1956 35.3691 52.1842 35.3824 51.8768C35.3937 51.6169 35.4115 51.5601 35.4521 51.6546C35.4885 51.7394 35.5096 51.5919 35.5156 51.2103C35.5205 50.8961 35.5485 50.5819 35.5778 50.5121C35.6179 50.4167 35.6292 50.4483 35.6232 50.639C35.6188 50.7787 35.6251 51.15 35.6372 51.4642C35.6543 51.9063 35.6698 51.9852 35.706 51.8133C35.7393 51.655 35.7552 51.7691 35.7611 52.2101C35.766 52.5748 35.7956 52.829 35.8329 52.829C35.9086 52.829 35.9056 52.8639 35.9111 51.9086L35.9155 51.1468L35.9558 51.7181L35.9961 52.2894L36.029 51.8451C36.0472 51.6007 36.0679 52.6576 36.0752 54.1937C36.0995 59.3721 36.1128 60.3516 36.1559 60.1605C36.1795 60.0558 36.2022 60.796 36.2063 61.8056C36.2104 62.8152 36.2288 63.6261 36.2471 63.6079C36.3077 63.5473 36.5175 62.7117 36.6825 61.8744C37.0118 60.2019 37.1535 59.1969 37.2909 57.558C37.3869 56.412 37.4813 49.6654 37.4863 43.5931L37.4908 38.1976L37.3443 37.8802C37.2003 37.5686 37.1978 37.5265 37.2044 35.5338C37.2099 33.9034 37.1943 33.4878 37.1251 33.4187C36.9977 33.2914 37.0204 33.1785 37.1501 33.2942C37.2379 33.3725 37.2762 33.3768 37.3331 33.3146C37.3876 33.255 37.3763 33.218 37.2864 33.1618C37.1032 33.0475 37.0676 33.0671 36.9068 33.3702ZM34.3875 33.3515C34.318 33.5346 34.3262 33.6446 34.4477 34.1511L34.5885 34.7384L34.7109 34.5451C34.8642 34.303 34.8336 33.9432 34.62 33.4732L34.4682 33.1392L34.3875 33.3515ZM35.5156 33.3265C35.5156 33.3589 35.5794 33.4399 35.6573 33.5064C35.7964 33.6251 35.7973 33.6251 35.7049 33.5064C35.6531 33.44 35.62 33.3693 35.6314 33.3493C35.6428 33.3294 35.6213 33.3029 35.5838 33.2904C35.5463 33.2779 35.5156 33.2941 35.5156 33.3265ZM37.3551 33.4384C37.3109 33.4916 37.2871 33.5474 37.3021 33.5625C37.3172 33.5775 37.3643 33.534 37.4069 33.4658C37.4991 33.3182 37.4684 33.302 37.3551 33.4384ZM35.3912 33.6003C35.4866 33.7786 35.6859 33.8675 35.8179 33.7906C35.9191 33.7317 35.9177 33.7256 35.8012 33.7169C35.7314 33.7117 35.6529 33.7108 35.6266 33.715C35.6004 33.7191 35.579 33.683 35.579 33.6347C35.579 33.5864 35.5224 33.5321 35.4532 33.514C35.3466 33.4861 35.3371 33.4993 35.3912 33.6003ZM37.3102 34.0399C37.3102 34.197 37.3226 34.2613 37.3377 34.1827C37.3528 34.1041 37.3528 33.9757 37.3377 33.8971C37.3226 33.8185 37.3102 33.8828 37.3102 34.0399ZM35.8825 33.9231C35.8689 33.9636 35.8703 34.0808 35.8853 34.1834C35.9187 34.411 36.0209 34.2921 36.0224 34.024C36.0234 33.8504 35.9293 33.7826 35.8825 33.9231ZM37.4584 34.1403C37.3764 34.3539 37.4207 34.6045 37.5572 34.7002C37.8243 34.8873 37.8875 34.6386 37.6675 34.2657C37.5151 34.0075 37.5104 34.0047 37.4584 34.1403ZM34.7549 34.6413C34.6691 34.7801 34.626 34.9388 34.6386 35.0697L34.6586 35.2777L34.8021 35.035C34.881 34.9014 34.9392 34.7086 34.9315 34.6065C34.9236 34.5043 34.9114 34.4208 34.9042 34.4208C34.8971 34.4208 34.8298 34.52 34.7549 34.6413ZM37.3564 34.8903C37.3564 35.073 37.6071 35.2904 37.6806 35.1714C37.7426 35.0711 37.6955 34.9801 37.5124 34.8462C37.3579 34.7333 37.3564 34.7338 37.3564 34.8903ZM34.8555 35.1925C34.7912 35.2843 34.7546 35.4666 34.7559 35.6886L34.7578 36.0394L34.9131 35.863C35.0472 35.7105 35.063 35.646 35.0291 35.3869C35.0075 35.2221 34.9826 35.0782 34.9735 35.0673C34.9646 35.0563 34.9115 35.1126 34.8555 35.1925ZM37.342 35.5447C37.361 35.7138 37.4211 35.8833 37.4774 35.9263C37.5662 35.9942 37.5612 36.0039 37.4357 36.0056C37.2704 36.008 37.2333 36.2251 37.3881 36.2846C37.4405 36.3046 37.4811 36.372 37.4783 36.4342C37.4754 36.5006 37.4601 36.5145 37.4413 36.4679C37.3996 36.3645 37.3007 36.3649 37.3158 36.4683C37.3223 36.5122 37.3731 36.6132 37.4288 36.6926C37.5256 36.8308 37.5321 36.811 37.5746 36.2479C37.5991 35.9238 37.6336 35.5982 37.6512 35.5244C37.6731 35.4326 37.6466 35.3774 37.5674 35.3497C37.5037 35.3275 37.4193 35.2938 37.3797 35.2748C37.3291 35.2506 37.318 35.3303 37.342 35.5447ZM34.9367 36.0477C34.8282 36.173 34.74 36.5155 34.8163 36.5155C34.928 36.5155 35.079 36.2587 35.0601 36.101C35.0403 35.9357 35.0356 35.9337 34.9367 36.0477ZM34.9179 36.6365C34.8498 36.7118 34.8161 36.8334 34.8288 36.9582L34.8491 37.159L34.9919 37.0252C35.0777 36.9448 35.1347 36.8164 35.1347 36.7034C35.1347 36.4856 35.0719 36.4663 34.9179 36.6365ZM37.3761 37.182C37.3856 37.5623 37.4183 37.7296 37.5063 37.8485C37.6236 38.0069 37.6238 38.0063 37.5886 37.5415C37.5692 37.2854 37.5263 37.0426 37.4934 37.002C37.4605 36.9613 37.4178 36.871 37.3985 36.8011C37.3793 36.7313 37.3692 36.9027 37.3761 37.182ZM34.9284 37.2575C34.8324 37.2826 34.8172 37.3696 34.8164 37.9007C34.816 38.2386 34.7975 38.5864 34.7754 38.6737C34.7532 38.761 34.7558 38.8135 34.7811 38.7905C34.9035 38.679 35.1961 37.2069 35.0931 37.2211C35.0636 37.2252 34.9895 37.2415 34.9284 37.2575ZM35.3302 37.5046C35.3332 37.5786 35.3482 37.5936 35.3685 37.543C35.3868 37.4972 35.3846 37.4424 35.3635 37.4214C35.3424 37.4003 35.3274 37.4377 35.3302 37.5046ZM35.6525 39.6258C35.6525 39.7131 35.667 39.7489 35.6845 39.7052C35.7022 39.6616 35.7022 39.5902 35.6845 39.5465C35.667 39.5029 35.6525 39.5386 35.6525 39.6258ZM35.716 41.0223C35.716 41.1096 35.7304 41.1453 35.748 41.1017C35.7657 41.0581 35.7657 40.9866 35.748 40.943C35.7304 40.8994 35.716 40.935 35.716 41.0223ZM35.2717 50.0995C35.2717 50.1867 35.2861 50.2225 35.3037 50.1788C35.3213 50.1352 35.3213 50.0638 35.3037 50.0201C35.2861 49.9765 35.2717 50.0122 35.2717 50.0995ZM35.5841 50.2634C35.5871 50.3374 35.6021 50.3524 35.6224 50.3018C35.6407 50.256 35.6385 50.2012 35.6174 50.1801C35.5963 50.1591 35.5813 50.1965 35.5841 50.2634ZM35.2179 50.766C35.2182 50.9754 35.23 51.0535 35.2442 50.9394C35.2583 50.8253 35.258 50.6539 35.2436 50.5585C35.229 50.4631 35.2175 50.5565 35.2179 50.766ZM34.9331 50.8641C34.9196 51.0053 34.9305 51.1553 34.9572 51.1974C34.9839 51.2394 35.0062 51.1239 35.0068 50.9405C35.0079 50.5448 34.9676 50.5029 34.9331 50.8641ZM35.9088 50.9564C35.9101 51.0611 35.9243 51.0963 35.9404 51.0345C35.9565 50.9728 35.9555 50.8871 35.9381 50.8441C35.9207 50.8011 35.9075 50.8517 35.9088 50.9564ZM36.0284 51.0886C36.0314 51.1626 36.0465 51.1776 36.0667 51.127C36.0851 51.0812 36.0828 51.0264 36.0617 51.0053C36.0406 50.9843 36.0257 51.0217 36.0284 51.0886ZM35.4668 52.0038C35.4668 52.126 35.4799 52.1759 35.4958 52.1148C35.5118 52.0538 35.5118 51.9537 35.4958 51.8927C35.4799 51.8316 35.4668 51.8816 35.4668 52.0038ZM35.8489 53.1781C35.8496 53.3177 35.8627 53.3674 35.8778 53.2884C35.893 53.2094 35.8924 53.0952 35.8766 53.0345C35.8607 52.9738 35.8482 53.0384 35.8489 53.1781ZM2.11179 67.9813C2.19075 67.9964 2.30501 67.9959 2.36569 67.98C2.42637 67.9641 2.36176 67.9517 2.22211 67.9524C2.08246 67.9531 2.03282 67.9661 2.11179 67.9813ZM2.80927 67.9832C2.99259 67.996 3.29251 67.996 3.47577 67.9832C3.65909 67.9703 3.50909 67.9599 3.14252 67.9599C2.77594 67.9599 2.62601 67.9703 2.80927 67.9832Z" fill="white"/>
</g>
<defs>
<clipPath id="clip0_736_981">
<rect width="70" height="70" fill="white"/>
</clipPath>
</defs>
</svg>
