<svg width="70" height="71" viewBox="0 0 70 71" fill="none" xmlns="http://www.w3.org/2000/svg">
<path d="M30.8062 0.16605C30.5262 0.39005 30.6242 1.31405 30.9182 1.20205C31.0162 1.16005 31.3242 1.09005 31.5902 1.03405C32.2342 0.92205 32.3042 0.78205 31.9962 0.34805C31.7162 -0.0299499 31.1702 -0.11395 30.8062 0.16605Z" fill="black"/>
<path d="M38.3523 0.824028C38.1283 0.964027 37.6943 1.13203 37.3723 1.18803C36.8963 1.27203 36.8403 1.30003 37.0643 1.39803C37.3303 1.49603 37.3163 1.51003 36.9943 1.58003C36.7983 1.62203 36.3083 1.70603 35.8883 1.74803C35.2023 1.83203 35.1043 1.80403 34.8383 1.48203C34.6703 1.30003 34.3203 1.10403 34.0543 1.04803C33.6483 0.964027 33.5923 0.978027 33.7463 1.13203C34.2363 1.65003 33.5643 1.88803 32.9343 1.39803C32.5983 1.14603 32.5843 1.14603 32.3043 1.39803C32.0803 1.59403 31.6323 1.69203 30.1763 1.80403C29.1683 1.90203 28.0343 2.05603 27.6563 2.16803C26.7323 2.44803 26.7183 2.42003 27.5863 2.02803C28.0203 1.83203 28.3143 1.60803 28.3143 1.46803C28.3143 1.23003 28.2163 1.18803 27.4463 1.04803C26.9563 0.978027 26.9143 0.992027 26.9143 1.31403C26.9143 1.55203 26.7603 1.76203 26.4663 1.97203C26.2143 2.14003 25.9763 2.30803 25.9483 2.33603C25.9203 2.35003 25.9763 2.63003 26.0743 2.95203C26.2423 3.45603 26.3123 3.51203 26.6483 3.47003C26.8723 3.42803 26.9983 3.47003 26.9563 3.54003C26.8023 3.80603 25.9203 4.05803 25.2063 4.05803C24.4783 4.04403 24.4643 4.04403 24.8843 3.86203L25.3043 3.68003L24.7863 3.42803C24.3523 3.21803 24.1983 3.20403 23.8903 3.34403C23.4563 3.54003 23.3023 3.45603 23.5543 3.14803C23.6523 3.02203 23.7083 2.91003 23.6803 2.88203C23.6103 2.82603 20.0823 3.84803 18.3743 4.40804C16.7363 4.94003 14.6783 6.01803 13.7823 6.80203C13.0403 7.44603 12.9983 7.62803 13.5443 7.72603C13.6983 7.75403 13.8243 7.83803 13.8243 7.90803C13.8383 7.99203 13.8943 8.20203 13.9503 8.38403L14.0623 8.72003L14.2443 8.28603C14.4683 7.76803 14.8603 7.50203 15.9243 7.12403C16.7923 6.81603 17.0023 6.85803 16.6523 7.23603C16.4003 7.53003 15.9383 8.66403 15.7843 9.37803L15.6863 9.86803L16.1063 9.30803C16.3303 9.00003 16.9043 8.38403 17.3803 7.95003C18.0943 7.27803 18.2343 7.06803 18.2483 6.64803C18.2623 6.38203 18.2763 6.07403 18.2903 5.97603C18.3183 5.57003 19.2843 5.30403 19.6063 5.62603C19.7323 5.75203 19.6203 5.94803 19.1443 6.45203C18.7943 6.83003 18.5143 7.23603 18.5143 7.36203C18.5143 7.53003 18.6823 7.41803 19.0743 6.99803C19.5363 6.49403 19.6763 6.42403 19.9983 6.49403C20.4183 6.60603 20.8943 6.32603 20.5863 6.14403C20.4883 6.08803 20.4463 6.00403 20.4743 5.97603C20.7823 5.73803 22.7003 4.61803 22.8263 4.61803C23.0643 4.61803 23.1763 5.20603 23.0083 5.61203C22.9383 5.82203 22.6303 6.10203 22.3363 6.25603C22.0423 6.41003 21.3143 6.78803 20.7123 7.11003C19.8583 7.57203 19.4803 7.69803 18.9343 7.69803C18.3463 7.69803 18.2343 7.74003 18.2343 7.96403C18.2343 8.10403 18.3323 8.30003 18.4443 8.39803C18.5563 8.49603 18.6543 8.65003 18.6543 8.76203C18.6543 9.04203 17.9403 9.49003 17.1703 9.67203C16.7923 9.77003 15.9943 10.078 15.4063 10.386C14.6363 10.764 14.3143 10.862 14.3143 10.722C14.3143 10.624 14.4683 10.106 14.6783 9.58803C14.8743 9.05603 15.0143 8.46803 14.9863 8.27203C14.9163 7.68403 14.5523 7.83803 14.3143 8.56603C14.1463 9.11203 14.0623 9.21003 13.8243 9.15403C13.6703 9.11203 13.3063 9.18203 13.0123 9.30803C12.7323 9.42003 12.4943 9.47603 12.4943 9.42003C12.4943 9.36403 12.7323 9.07003 13.0123 8.76203L13.5443 8.21603L12.7043 8.80403C12.2423 9.14003 11.3043 9.78403 10.6043 10.26C9.38633 11.086 7.73433 12.584 7.73433 12.836C7.73433 12.906 7.91633 12.948 8.15433 12.906C8.77033 12.822 8.70033 13.116 7.80433 14.208C7.38433 14.712 7.03433 15.174 7.03433 15.202C7.03433 15.328 7.18833 15.244 7.65033 14.838C7.93033 14.586 8.16833 14.474 8.22433 14.544C8.26633 14.628 7.56633 15.426 6.67033 16.308C5.06033 17.918 5.04633 17.946 5.14433 18.45C5.25633 19.038 5.49433 19.388 5.49433 18.954C5.49433 18.142 6.11033 16.798 6.48833 16.798C6.69833 16.798 6.62833 17.246 6.11033 19.262C5.83033 20.34 5.56433 21.712 5.50833 22.328L5.42433 23.448L4.90633 22.608C4.61233 22.146 4.37433 21.866 4.37433 21.992C4.37433 22.118 4.02433 22.65 3.60433 23.168C3.18433 23.672 2.83433 24.12 2.83433 24.148C2.83433 24.162 2.73633 24.414 2.62433 24.694C2.51233 24.974 2.44233 25.198 2.47033 25.198C2.49833 25.198 2.73633 24.876 2.98833 24.47L3.45033 23.756L3.63233 24.162C3.88433 24.75 3.85633 25.226 3.46433 27.298C3.11433 29.188 3.04433 30.364 3.25433 30.868C3.36633 31.12 3.38033 31.12 3.38033 30.784C3.39433 30.336 3.71633 29.888 3.92633 30.014C4.13633 30.14 4.13633 30.994 3.94033 31.904C3.73033 32.898 3.47833 33.01 3.56233 32.058L3.63233 31.33L3.17033 31.4C2.61033 31.498 2.61033 31.484 2.47033 29.608C2.42833 28.838 2.33033 28.068 2.26033 27.886C2.07833 27.41 1.74233 27.508 1.63033 28.068C1.50433 28.782 1.65833 29.664 2.27433 31.568C2.87633 33.444 3.07233 34.298 2.87633 34.298C2.80633 34.298 2.55433 34.032 2.30233 33.71C1.82633 33.094 1.75633 33.136 2.00833 33.85C2.09233 34.088 2.23233 34.27 2.31633 34.256C2.42833 34.242 2.48433 34.592 2.48433 35.46C2.48433 36.132 2.45633 36.678 2.41433 36.678C2.37233 36.678 2.13433 36.552 1.89633 36.398L1.43433 36.118L1.44833 36.51C1.46233 37.294 1.64433 38.148 1.78433 38.106C1.95233 38.05 2.70833 41.004 3.14233 43.426C3.32433 44.392 3.50633 45.134 3.54833 45.05C3.66033 44.868 4.02433 45.526 4.16433 46.184C4.33233 46.94 4.50033 46.408 4.43033 45.358L4.37433 44.448L4.58433 45.218C4.71033 45.638 4.86433 46.66 4.93433 47.486C5.00433 48.326 5.14433 49.292 5.22833 49.656L5.39633 50.3L5.64833 49.992L5.90033 49.684L6.09633 50.16C6.53033 51.196 6.54433 51.28 6.16633 51.21L5.81633 51.14L6.13833 51.63C6.32033 51.896 6.47433 52.26 6.47433 52.428C6.47433 52.708 6.99233 53.338 7.21633 53.338C7.27233 53.338 7.28633 53.17 7.23033 52.96C7.18833 52.736 7.44033 53.086 7.79033 53.716C8.14033 54.36 8.43433 55.018 8.43433 55.2C8.43433 55.858 9.05033 56.754 10.1143 57.608C10.6883 58.084 11.2343 58.602 11.3183 58.77C11.4723 59.078 13.4883 60.996 14.9303 62.186C15.9803 63.068 17.8703 64.328 19.2563 65.098C19.9003 65.448 20.2923 65.742 20.1943 65.798C20.0403 65.896 24.2263 68.29 25.6963 68.934C27.2923 69.634 28.6923 69.998 29.7983 69.998C30.3583 69.998 30.8343 69.956 30.8343 69.914C30.8343 69.872 30.7643 69.718 30.6943 69.564C30.5963 69.382 30.5963 69.298 30.6943 69.298C30.7643 69.298 30.8343 69.186 30.8343 69.046C30.8343 68.822 31.0583 68.808 33.6623 68.808C36.7143 68.808 38.3243 68.612 40.9423 67.968C41.7263 67.772 42.3843 67.618 42.3983 67.618C42.4263 67.618 42.4543 67.912 42.4543 68.29C42.4543 69.102 42.7483 69.578 43.2523 69.578H43.6163L43.2243 69.214C42.9023 68.92 42.8463 68.78 42.9163 68.36C43.0143 67.8 43.3223 67.408 43.8823 67.114C44.2463 66.918 44.2743 66.932 44.2743 67.184C44.2743 67.73 44.6803 67.758 46.7383 67.394C47.8023 67.212 48.8523 67.016 49.0763 66.974C49.4123 66.89 49.4543 66.918 49.4543 67.254C49.4543 67.674 49.4823 67.688 50.3783 67.408C50.7563 67.296 51.0783 67.198 51.1063 67.198C51.1203 67.198 51.1343 67.422 51.1343 67.688C51.1343 67.996 51.0503 68.22 50.8963 68.304C50.7563 68.388 50.7003 68.458 50.7563 68.458C50.9523 68.458 51.7223 67.87 51.6383 67.8C51.5963 67.758 51.6943 67.534 51.8483 67.324L52.1283 66.918H51.5123C51.1623 66.918 50.7003 66.876 50.4623 66.834C50.0843 66.764 50.0423 66.708 50.1543 66.484C50.2383 66.344 50.2943 66.022 50.2943 65.77V65.294L51.3583 65.392L52.4223 65.504L52.8423 65.028C53.0663 64.762 53.7383 64.286 54.3263 63.95C54.9143 63.628 55.6283 63.138 55.8803 62.872C56.1463 62.592 56.3143 62.466 56.2443 62.578C56.1743 62.704 56.2443 62.69 56.4263 62.522C56.7763 62.228 56.8603 62.018 56.5243 62.298C56.3703 62.424 56.3143 62.424 56.3143 62.312C56.3143 62.228 56.4123 62.116 56.5243 62.074C56.6363 62.018 56.7343 61.878 56.7343 61.738C56.7343 61.612 56.9163 61.248 57.1543 60.926L57.5603 60.352L56.8183 60.618C56.1603 60.842 54.4243 61.178 53.9203 61.178C53.8223 61.178 53.9483 60.954 54.2143 60.688C54.5783 60.31 54.7323 60.24 54.9283 60.352C55.1383 60.464 55.2643 60.38 55.6283 59.89C55.8663 59.554 56.1883 59.036 56.3423 58.728C56.6363 58.154 58.0083 56.236 58.4003 55.858C58.5263 55.732 59.0303 55.144 59.5343 54.528C60.0383 53.912 60.8783 52.904 61.4103 52.288C62.6563 50.832 64.2243 48.452 65.1343 46.646C65.7083 45.484 65.9043 45.204 66.1143 45.26C66.3383 45.316 66.3663 45.204 66.4223 44.364C66.4503 43.846 66.5203 43.37 66.5623 43.328C66.6183 43.272 66.8003 43.328 66.9823 43.454C67.6123 43.902 67.6963 43.776 67.5843 42.586C67.4443 41.074 67.4583 40.108 67.6403 39.8C67.7243 39.66 67.7943 39.618 67.7943 39.716C67.7943 39.926 68.3123 40.22 68.4943 40.108C68.5783 40.052 68.4803 39.73 68.2843 39.324C67.9903 38.764 67.9623 38.638 68.1443 38.638C68.2703 38.638 68.4803 38.372 68.6343 38.022C68.7743 37.686 68.9563 37.392 69.0403 37.364C69.1243 37.322 69.0263 36.678 68.7743 35.572C68.2703 33.5 68.2563 33.234 68.6483 33.136C68.9143 33.066 68.9283 33.094 68.8443 33.556C68.7883 33.906 68.8163 34.088 68.9423 34.172C69.5303 34.55 69.6283 34.074 69.1943 32.814C69.0263 32.366 68.9003 31.694 68.9003 31.344C68.8863 30.728 68.8723 30.7 68.5363 30.77L68.1723 30.84L68.2143 28.964C68.2843 26.108 68.2843 26.094 67.8083 25.814C67.4583 25.618 67.3183 25.324 66.8983 23.994C66.2823 22.09 65.2603 19.78 64.3783 18.296C64.0283 17.694 63.7343 17.106 63.7343 17.008C63.7343 16.91 63.4683 16.518 63.1323 16.154C62.8103 15.776 62.1663 14.992 61.7043 14.418C60.5703 12.99 58.4563 10.904 57.0003 9.77003C55.9083 8.91603 53.1503 7.08203 52.7723 6.95603C52.6883 6.92803 52.8423 6.63403 53.1503 6.25603C53.7383 5.54203 53.7663 5.12203 53.2623 4.78603C52.9403 4.57603 52.9403 4.57603 53.1083 4.94003C53.2483 5.24803 53.2343 5.37403 53.0383 5.65403C52.7023 6.17203 52.2963 6.34003 51.6523 6.24203C51.3303 6.18603 51.0083 6.08803 50.9243 6.03203C50.8543 5.96203 50.5463 5.83603 50.2523 5.73803C49.7623 5.58403 49.7343 5.55603 49.9303 5.33203C50.0563 5.19203 50.1543 5.01003 50.1543 4.92603C50.1543 4.59003 49.2723 3.79203 48.0263 2.96603C46.6123 2.04203 46.1923 1.97203 45.7023 2.58803L45.4503 2.89603L44.7783 2.11203C44.1063 1.34203 44.0783 1.32803 43.3083 1.31403C42.8743 1.31403 42.1183 1.17403 41.6143 1.02003C41.1103 0.866028 40.2703 0.698029 39.7243 0.642029C38.9123 0.586029 38.6743 0.614029 38.3523 0.824028ZM39.0523 0.782028C39.0103 0.824028 38.8843 0.838028 38.7863 0.796028C38.6743 0.754028 38.7163 0.712029 38.8703 0.712029C39.0243 0.698029 39.1083 0.740028 39.0523 0.782028ZM49.0063 5.01003C49.2023 5.30403 49.2023 5.31803 48.7683 5.16403C48.3343 5.01003 48.2503 4.89803 48.4323 4.70203C48.5723 4.56203 48.7823 4.67403 49.0063 5.01003ZM11.6263 10.386C11.5143 10.568 11.1503 11.184 10.8143 11.758C10.4783 12.332 10.1843 12.822 10.1703 12.85C10.1563 12.878 9.98833 12.822 9.82033 12.724L9.49833 12.556L9.87633 12.262C10.0863 12.094 10.2543 11.898 10.2543 11.828C10.2543 11.674 11.6263 10.078 11.7523 10.078C11.7943 10.078 11.7383 10.218 11.6263 10.386ZM9.41433 18.576C9.26033 18.814 9.26033 18.814 9.33033 18.576C9.37233 18.436 9.41433 18.24 9.42833 18.156C9.42833 18.03 9.45633 18.03 9.49833 18.156C9.54033 18.254 9.49833 18.436 9.41433 18.576ZM11.2343 19.444C11.2343 19.514 11.1363 19.64 11.0243 19.738C10.8563 19.878 10.8143 19.878 10.8143 19.71C10.8143 19.598 10.8563 19.458 10.9123 19.416C11.0383 19.276 11.2343 19.29 11.2343 19.444ZM9.55433 19.794C9.55433 19.822 9.59633 19.948 9.63833 20.06C9.68033 20.186 9.49833 20.424 9.16233 20.69L8.63033 21.124L8.84033 20.424C8.99433 19.934 9.12033 19.738 9.30233 19.738C9.44233 19.738 9.55433 19.766 9.55433 19.794ZM10.2123 20.382C10.1283 20.676 9.59633 21.6 9.03633 22.426C8.47633 23.266 7.74833 24.456 7.42633 25.086L6.82433 26.248L6.78233 24.26C6.75433 22.384 6.76833 22.244 7.06233 21.908C7.23033 21.712 7.44033 21.558 7.55233 21.558C7.65033 21.558 7.83233 21.404 7.95833 21.208C8.21033 20.816 8.43433 20.858 8.43433 21.292C8.43433 21.922 9.51233 21.194 10.0023 20.256C10.3383 19.584 10.4363 19.64 10.2123 20.382ZM68.0743 27.494C68.0743 28.11 67.8363 27.76 67.7383 27.018C67.6543 26.416 67.6543 26.402 67.8503 26.738C67.9763 26.934 68.0603 27.27 68.0743 27.494ZM5.99833 27.284C6.11033 27.186 6.23633 27.158 6.29233 27.2C6.43233 27.34 5.76033 28.838 5.55033 28.838C5.15833 28.838 4.85033 27.662 5.08833 27.046L5.22833 26.668L5.52233 27.06C5.74633 27.368 5.84433 27.41 5.99833 27.284ZM46.7943 66.148C46.7943 66.288 46.6543 66.358 46.3463 66.358L45.8843 66.344L46.2343 66.148C46.6823 65.896 46.7943 65.896 46.7943 66.148ZM45.5623 67.156C45.7583 67.408 45.3243 67.548 44.8623 67.394C44.3303 67.212 44.3303 66.946 44.8623 66.722C45.2823 66.54 45.3243 66.54 45.3803 66.75C45.4083 66.876 45.4923 67.072 45.5623 67.156ZM30.3443 68.752C30.5403 68.948 29.8403 68.892 29.3643 68.682C28.9443 68.486 28.9583 68.486 29.5743 68.556C29.9243 68.598 30.2603 68.682 30.3443 68.752Z" fill="black"/>
<path d="M35.3563 1.21582C35.5663 1.24382 35.9023 1.24382 36.1263 1.21582C36.3363 1.18782 36.1543 1.15982 35.7343 1.15982C35.3143 1.15982 35.1323 1.18782 35.3563 1.21582Z" fill="black"/>
<path d="M50.5461 4.95382C50.7141 5.17782 50.8541 5.47182 50.8541 5.62582C50.8541 5.77982 50.9241 5.84982 50.9941 5.80782C51.2741 5.63982 51.1201 5.19182 50.6861 4.86982L50.2241 4.54782L50.5461 4.95382Z" fill="black"/>
<path d="M4.26229 18.7998C3.94029 19.1498 3.87029 19.5278 4.09429 19.6678C4.17829 19.7098 4.23429 19.8918 4.23429 20.0598C4.24829 20.3678 4.24829 20.3678 4.45829 20.0878C4.64029 19.8358 4.64029 19.8078 4.45829 19.7658C4.17829 19.7098 4.17829 19.7098 4.44429 19.0798C4.71029 18.4638 4.65429 18.3798 4.26229 18.7998Z" fill="black"/>
<path d="M1.92414 20.7739C1.74214 21.2499 1.72814 21.4459 1.84014 21.6839C2.13414 22.2019 2.27414 21.9919 2.27414 21.0679C2.27414 20.5639 2.24614 20.1579 2.21814 20.1579C2.19014 20.1579 2.05014 20.4379 1.92414 20.7739Z" fill="black"/>
<path d="M1.25222 23.0978C1.02822 23.4898 0.804222 23.7978 0.748222 23.7978C0.608222 23.7978 0.230222 23.3638 0.146222 23.0978C0.104222 22.9858 0.0482222 23.1258 0.0202222 23.4058C-0.0217778 23.6858 0.00622223 23.8818 0.0622222 23.8538C0.118222 23.8118 0.174222 24.0078 0.174222 24.2738C0.174222 24.5538 0.244222 24.7778 0.314222 24.7778C0.398222 24.7778 0.454222 24.7218 0.454222 24.6518C0.454222 24.5678 0.832222 24.2178 1.29422 23.8678C2.12022 23.2238 2.30222 22.9018 1.96622 22.5658C1.71422 22.3138 1.67222 22.3418 1.25222 23.0978Z" fill="black"/>
<path d="M0.314209 25.6178C0.314209 25.7018 0.412209 25.7578 0.524209 25.7578C0.790209 25.7578 0.790209 25.6738 0.524209 25.5618C0.412209 25.5198 0.314209 25.5478 0.314209 25.6178Z" fill="black"/>
<path d="M67.4022 44.1679C67.2482 44.5179 67.1642 46.3239 67.3042 46.1699C67.3882 46.0859 67.6822 43.9439 67.6122 43.8739C67.5842 43.8459 67.4862 43.9719 67.4022 44.1679Z" fill="black"/>
<path d="M64.4203 49.1659C64.2943 49.6419 64.1543 50.1459 64.0983 50.2719C63.9443 50.6079 64.6163 50.4539 64.9663 50.0619C65.4563 49.5439 65.4703 49.2079 65.0363 48.7179L64.6303 48.2699L64.4203 49.1659Z" fill="black"/>
<path d="M63.5942 50.9718C63.4962 51.1258 63.4542 51.2938 63.4962 51.3218C63.5242 51.3498 63.6222 51.2238 63.7062 51.0278C63.9022 50.6078 63.8042 50.5658 63.5942 50.9718Z" fill="black"/>
<path d="M63.0482 52.3857C62.7402 53.3097 62.7822 53.3097 63.3702 52.4277L63.7342 51.8677V52.4277C63.7202 52.7357 63.6362 53.1417 63.5242 53.3377C63.0202 54.2197 63.4402 54.6117 64.2102 53.9957C64.5602 53.7017 64.5882 53.6317 64.4482 53.3517C64.3362 53.1697 64.3082 52.8197 64.3782 52.4277C64.4622 51.8397 64.4482 51.7977 64.0842 51.6577C63.4542 51.4197 63.3562 51.4897 63.0482 52.3857Z" fill="black"/>
<path d="M60.3882 55.522C60.3882 55.69 60.0242 56.208 59.6042 56.684C58.8622 57.51 58.6662 57.986 58.9742 58.168C59.2262 58.322 59.1282 58.49 58.7362 58.588L58.3442 58.7L58.7502 58.812C59.0302 58.896 59.2402 58.854 59.4922 58.7L59.8422 58.462L59.5202 58.238C59.0302 57.86 59.2542 57.538 60.0242 57.538H60.6542L60.6402 56.936C60.6402 56.278 60.4162 55.06 60.3882 55.522Z" fill="black"/>
<path d="M61.9843 55.5918C61.9283 55.6758 61.9143 55.7598 61.9563 55.8018C61.9843 55.8438 62.0543 55.7738 62.0963 55.6478C62.1943 55.4098 62.1103 55.3678 61.9843 55.5918Z" fill="black"/>
<path d="M61.4242 56.7958C61.2142 57.1318 61.0742 57.4398 61.1022 57.4678C61.1162 57.4818 61.3402 57.5518 61.5782 57.5938C61.9562 57.6778 62.0682 57.6358 62.3202 57.3138C62.7122 56.8238 62.6982 56.6698 62.1942 56.3898L61.7882 56.1658L61.4242 56.7958Z" fill="black"/>
<path d="M58.4003 59.5961L57.9243 60.1001L58.3723 59.7921C58.8483 59.4701 59.0443 59.2461 58.9463 59.1341C58.9183 59.1061 58.6663 59.3161 58.4003 59.5961Z" fill="black"/>
<path d="M52.4643 66.6378C52.4223 66.7078 52.4503 66.7778 52.5203 66.7778C52.6043 66.7778 52.6743 66.7078 52.6743 66.6378C52.6743 66.5538 52.6463 66.4978 52.6183 66.4978C52.5763 66.4978 52.5063 66.5538 52.4643 66.6378Z" fill="black"/>
<path d="M47.9843 68.192C47.3963 68.794 47.3403 68.892 47.6343 68.808C48.2363 68.64 48.8243 68.248 48.8663 67.982C48.9783 67.422 48.6423 67.506 47.9843 68.192Z" fill="black"/>
<path d="M45.1843 68.0379L44.6243 68.2899L45.1563 68.3039C45.5063 68.3179 45.7163 68.2479 45.7723 68.1079C45.8983 67.7719 45.7863 67.7579 45.1843 68.0379Z" fill="black"/>
<path d="M36.7842 69.0179C35.3982 69.1579 33.6062 69.2839 32.7942 69.2979L31.3242 69.3259L32.7242 69.5919C33.5222 69.7599 35.0482 69.8999 36.2942 69.9559L38.4642 70.0259L38.1142 69.7459L37.7642 69.4659L38.1142 69.3119C38.3102 69.2419 38.9682 69.1299 39.5842 69.0739C40.4102 69.0039 40.6062 68.9479 40.3542 68.8639C39.8642 68.7239 39.6402 68.7379 36.7842 69.0179Z" fill="black"/>
<g clip-path="url(#clip0_734_123)">
<path d="M10.9023 10.2757C11.0049 10.4319 11.2344 10.6956 11.4053 10.8567C11.7764 11.218 12.6064 11.8675 12.8555 11.9993C13.1631 12.1507 13.1729 12.1848 13.0557 12.6341C13.002 12.8489 12.9287 13.2542 12.8994 13.5325C12.8262 14.1819 12.8994 14.4163 13.2412 14.6555C13.3633 14.7385 13.6172 14.9241 13.8076 15.0608C14.0811 15.2659 14.1934 15.3196 14.3398 15.3196C14.7256 15.3196 15.6191 15.9055 15.9365 16.3694C16.1172 16.6331 16.4102 16.7503 16.6689 16.6673C16.8008 16.6233 16.8643 16.5598 16.9521 16.3743L17.0645 16.1399L17.2793 16.4231C17.3965 16.5842 17.7139 16.9846 17.9824 17.3216C18.7686 18.2981 19.7158 19.6165 20.2822 20.5149C20.5703 20.9739 20.9463 21.5696 21.1221 21.8382C21.5078 22.4387 21.7275 22.8245 21.6934 22.8587C21.6836 22.8733 21.5566 22.8294 21.415 22.7561C21.1074 22.6048 20.6387 22.5559 20.2773 22.6438C19.999 22.7122 19.6816 22.9612 19.4961 23.2639C19.3496 23.4983 19.208 23.9964 19.208 24.2796C19.208 24.7825 19.5156 25.6077 19.7793 25.8176C19.8965 25.9104 19.96 25.9251 20.2432 25.9007C20.6045 25.8762 20.5557 25.8518 21.0391 26.3059C21.1221 26.3792 21.5273 26.6233 21.9424 26.843C22.7969 27.302 23.1143 27.5022 23.1143 27.595C23.1143 27.6292 23.0361 27.7854 22.9385 27.9465C22.8408 28.1028 22.6846 28.3616 22.5967 28.5178C22.5039 28.679 22.3477 28.8987 22.2451 29.0159C21.9619 29.3382 21.8447 29.6116 21.8447 29.9583C21.8447 30.3245 22.0498 31.0081 22.2109 31.1692C22.3623 31.3157 22.6406 31.3645 22.9189 31.2864C23.041 31.2522 23.251 31.2083 23.3828 31.1839C23.5195 31.1594 23.6758 31.1301 23.7295 31.1155C23.8125 31.096 23.8613 31.135 23.9688 31.2913C24.0713 31.4475 24.1201 31.6184 24.1885 32.0676C24.2959 32.7805 24.4375 33.0589 24.7646 33.2005C25.0234 33.3176 25.1846 33.2981 25.5898 33.1223C25.9316 32.971 26.2344 32.9368 26.2881 33.0442C26.3125 33.0833 26.4004 33.2688 26.4834 33.4592C26.7324 34.0208 26.8398 34.094 27.5283 34.1673C28.0508 34.2258 28.1094 34.2112 28.4902 33.8938L28.7051 33.7132L28.7393 34.011C28.7734 34.343 29.0811 34.9924 29.3008 35.2122C29.4229 35.3342 29.6572 35.388 29.6572 35.2952C29.6572 35.2708 29.7598 35.2366 29.8916 35.2219C30.0186 35.2024 30.1992 35.1633 30.292 35.1341C30.5166 35.0657 31.249 34.5823 31.293 34.4749C31.3125 34.426 31.3467 34.2356 31.3613 34.0549L31.3906 33.718L31.5518 33.9426C31.6348 34.0696 31.752 34.1868 31.8008 34.2063C31.9521 34.2649 32.7139 35.1536 32.8994 35.4905C33.124 35.9007 33.1631 36.1253 33.041 36.2473C32.9873 36.301 32.875 36.4426 32.792 36.5647C32.5527 36.9212 32.1572 37.3313 31.918 37.4729C31.7812 37.551 31.6152 37.6048 31.459 37.6096C30.9805 37.634 30.9365 37.8782 31.3369 38.2932C31.4834 38.4397 31.6445 38.5618 31.6934 38.5618C31.8643 38.5618 32.3086 38.4055 32.4844 38.2883C32.582 38.2249 32.6797 38.1712 32.709 38.1712C32.7334 38.1712 32.8213 38.2835 32.8945 38.4153C32.9727 38.552 33.0947 38.6887 33.168 38.7278C33.2461 38.7717 33.3438 38.8987 33.417 39.0549C33.5146 39.2551 33.5781 39.3235 33.7295 39.387C33.8809 39.4553 33.9346 39.5139 34.0029 39.6848C34.0518 39.8215 34.1445 39.9436 34.2373 40.0022C34.335 40.0657 34.4033 40.1536 34.4229 40.2561C34.4424 40.3635 34.4912 40.427 34.5986 40.471C34.9111 40.5979 35.1895 41.1643 35.2725 41.8479C35.4434 43.2298 35.4678 43.5911 35.4678 45.0071C35.4727 45.8274 35.4971 46.8577 35.5264 47.302C35.5557 47.7464 35.5801 48.4007 35.585 48.7571C35.5947 49.4456 35.6484 49.6214 35.79 49.4309C35.8633 49.3284 35.8584 48.7473 35.7607 46.9358C35.7021 45.8469 35.8438 43.6546 36.0342 42.6878C36.1367 42.1507 36.166 42.1165 36.2881 42.3508C36.4053 42.5803 36.4395 42.8733 36.498 44.0403C36.5664 45.4075 36.625 46.4329 36.6836 47.1555C36.7129 47.5169 36.752 48.0051 36.7715 48.2395C36.7861 48.4739 36.8203 48.6546 36.8398 48.6399C36.8984 48.6057 36.8936 48.137 36.8301 47.7171C36.8057 47.5266 36.7666 47.1018 36.7471 46.7649C36.7129 46.1399 36.7031 45.8225 36.6592 43.8206L36.6348 42.6585L36.7715 42.6731C36.874 42.6829 36.9326 42.7366 37.0156 42.8831C37.1084 43.0589 37.1328 43.2102 37.1914 44.2014C37.2256 44.8215 37.25 45.4612 37.2354 45.6321C37.2158 45.9299 37.2793 46.1155 37.377 46.0569C37.3965 46.0423 37.4062 45.4856 37.3867 44.8215C37.3574 43.5032 37.377 43.3469 37.5869 43.3469C37.7676 43.3469 38.1875 43.7034 38.2266 43.8938C38.2461 43.9817 38.3291 44.1135 38.4121 44.1917L38.5635 44.3284L38.5977 45.6077C38.6318 46.76 38.6758 47.2044 38.7588 47.2874C38.8076 47.3411 38.8271 47.2874 38.876 46.926C38.9053 46.7356 38.915 46.2278 38.9004 45.803C38.8711 44.9534 38.9053 44.4553 38.998 44.4846C39.0322 44.4944 39.1104 44.6067 39.1787 44.7337C39.2715 44.9094 39.3643 44.9973 39.5645 45.1048C39.916 45.3001 39.96 45.3391 40.0576 45.5735C40.1064 45.6858 40.1895 45.8176 40.2432 45.8665C40.4043 46.0178 40.4434 46.5696 40.4678 49.0061L40.4873 51.2669L40.2578 51.2376C40.1357 51.218 39.8672 51.179 39.667 51.1546C39.3105 51.1008 37.3916 51.0618 34.1982 51.0423C33.3193 51.0374 32.4307 51.0032 32.123 50.969C31.8301 50.9348 31.459 50.9153 31.3027 50.9299C31.1074 50.9495 30.9805 50.9348 30.8877 50.886C30.7949 50.8372 30.6045 50.8176 30.2432 50.8225C29.5986 50.8274 29.6084 50.8274 29.6182 50.7639C29.6377 50.6858 29.3887 50.6223 29.1201 50.6272C28.998 50.6272 28.8076 50.6028 28.6904 50.5686C28.5244 50.5149 28.4414 50.5149 28.251 50.5686C28.124 50.6028 27.9189 50.6419 27.7969 50.6516C27.6748 50.6614 27.4697 50.6907 27.3477 50.72C27.0938 50.7737 25.8193 50.7053 25.4873 50.6174C25.3604 50.5833 25.1602 50.5784 24.9453 50.6028C24.7598 50.6223 24.4814 50.6467 24.335 50.6516C24.1885 50.6614 23.8564 50.6858 23.6025 50.7102C23.3486 50.7395 22.9189 50.7542 22.6504 50.7444C22.3818 50.7395 21.9863 50.7298 21.7764 50.7298L21.3857 50.72L21.498 50.6174C21.5908 50.5296 21.6006 50.5051 21.542 50.471C21.498 50.4465 21.3955 50.4514 21.3027 50.4807C21.21 50.5051 20.8193 50.5344 20.4287 50.5442C19.7549 50.5589 19.7305 50.5589 19.9307 50.4905C20.3066 50.3587 20.1309 50.2805 19.6621 50.3733C19.4814 50.4075 19.4521 50.4026 19.4277 50.3245C19.4082 50.2708 19.3203 50.2122 19.2031 50.1829C19.1006 50.1536 19.0127 50.1048 19.0127 50.0755C19.0127 50.0462 18.998 50.0315 18.9834 50.051C18.9639 50.0657 18.8711 50.0413 18.7734 49.9924C18.5488 49.8801 18.2314 49.8167 18.2314 49.8899C18.2314 49.9143 18.251 49.9387 18.2803 49.9387C18.3047 49.9387 18.3145 49.968 18.2998 50.0022C18.2852 50.0413 18.3975 50.1145 18.6172 50.2073C18.8027 50.2854 18.9492 50.3587 18.9395 50.3684C18.9297 50.3831 18.8125 50.3635 18.6855 50.3342C18.5146 50.2903 18.4072 50.2903 18.3145 50.3245C18.1631 50.3831 18.1436 50.4954 18.2705 50.5686C18.3389 50.6077 18.3438 50.6174 18.2803 50.637C18.1924 50.6663 17.6113 50.7542 17.2793 50.7932C17.1475 50.8079 16.9033 50.8421 16.7422 50.8665C16.5811 50.8909 15.9219 50.9202 15.2725 50.9299C14.1494 50.9495 13.8369 50.9885 13.9053 51.1057C13.9199 51.1301 14.0225 51.1594 14.1348 51.179C14.2471 51.1985 14.4033 51.2473 14.4863 51.2913C14.6133 51.3548 14.8281 51.3694 15.6631 51.3792C16.3906 51.384 16.6934 51.3987 16.708 51.4426C16.7178 51.4817 16.9814 51.4915 17.6846 51.4719C18.6855 51.4475 18.8564 51.511 17.9629 51.5696C17.6943 51.5891 17.3965 51.6233 17.3037 51.6477C17.2109 51.6721 17.0059 51.7161 16.8545 51.7454C16.6982 51.7747 16.5713 51.8235 16.5713 51.8479C16.5713 51.9163 16.835 51.9016 17.4258 51.7942C17.9824 51.6965 19.0029 51.6575 18.8662 51.7454C18.7246 51.8333 18.8711 51.8528 19.2959 51.7991C19.8525 51.7307 19.8916 51.7307 19.8916 51.8186C19.8916 51.9456 20.0576 51.9309 20.4092 51.7649C20.5459 51.7014 20.7314 51.6477 20.8242 51.6477C21.0488 51.6526 20.9902 51.6819 20.1113 52.0139C19.7109 52.1653 19.2617 52.3557 19.125 52.4339C18.9834 52.512 18.7979 52.5755 18.7148 52.5755C18.6172 52.5755 18.5732 52.595 18.5879 52.634C18.6221 52.7317 18.9541 52.6878 19.2324 52.5559C19.75 52.302 20.3701 52.0432 20.6924 51.9407C20.8779 51.8821 21.1367 51.7844 21.2637 51.7161C21.498 51.5989 21.5029 51.5989 22.6357 51.6282C23.2559 51.6428 23.8076 51.677 23.8516 51.7014C23.9004 51.7258 24.0176 51.7454 24.1201 51.7454C24.374 51.7454 24.3105 51.7796 23.9492 51.8381C23.4902 51.9114 23.4316 52.009 23.8711 51.97C24.2373 51.9358 24.4668 51.9993 24.1982 52.0628C24.1152 52.0774 24.0225 52.1262 23.9883 52.1653C23.9199 52.2483 23.9395 52.2483 24.3594 52.1604C24.5498 52.1214 24.8037 52.0872 24.9258 52.0872C25.0479 52.0872 25.1602 52.0725 25.1748 52.0579C25.1943 52.0432 25.3652 52.0286 25.5605 52.0237C25.9902 52.0139 26.0488 52.0872 25.7021 52.2141C25.4287 52.3118 25.375 52.3899 25.6191 52.3508C25.9854 52.2825 26.1855 52.2141 26.5518 52.0237C26.7666 51.9114 27.0498 51.804 27.1865 51.7844C27.8115 51.6819 28.5293 51.6428 28.9736 51.6868L29.4375 51.7307L29.0859 51.7405C28.8076 51.7454 28.7295 51.76 28.7295 51.8186C28.7295 51.926 28.9053 51.9505 29.6035 51.9309C29.9551 51.9212 30.2432 51.9309 30.2432 51.9456C30.2432 51.9651 30.1113 52.0286 29.9502 52.0872C29.7842 52.1506 29.6621 52.2092 29.6719 52.219C29.6865 52.2288 29.8574 52.1946 30.0527 52.136C30.248 52.0823 30.5312 52.0383 30.6729 52.0383C30.8779 52.0383 30.9316 52.0237 30.9121 51.97C30.873 51.8772 31.3516 51.8333 32.123 51.8723C32.4844 51.887 33.0947 51.8772 33.5391 51.843C34.5254 51.7649 34.5254 51.7649 35.3408 51.8626C35.8145 51.9212 36.0342 51.9309 36.0732 51.8919C36.1514 51.8137 36.0146 51.7112 35.7119 51.6331L35.4434 51.5598L35.9512 51.5891C36.332 51.6087 36.4492 51.5989 36.4248 51.5598C36.3809 51.4915 36.2979 51.4915 38.0801 51.4817C39.3105 51.4719 39.5449 51.4817 39.8623 51.5598C40.0625 51.6087 40.2773 51.6477 40.3408 51.6477C40.4385 51.6477 40.4482 51.6673 40.4482 51.9553C40.4482 52.3948 40.6143 52.5999 40.8096 52.3997C40.8682 52.346 40.8877 52.2288 40.8877 51.9846V51.6477L41.2197 51.6428C41.5469 51.638 41.835 51.6233 42.1572 51.594C42.2891 51.5842 42.3623 51.6087 42.4404 51.6868C42.5674 51.8137 42.4648 51.8137 44.623 51.7405C46.2588 51.6868 47.7139 51.6819 49.374 51.7258C49.916 51.7405 50.3604 51.7356 50.3604 51.721C50.3604 51.7014 50.1357 51.3206 49.8574 50.8714C49.5791 50.427 49.1836 49.7874 48.9736 49.4505C48.1582 48.1272 46.8936 46.4329 45.9072 45.3391C45.7217 45.134 45.5264 44.9046 45.4678 44.8264C45.4092 44.7532 45.2285 44.5481 45.0674 44.3723C44.9014 44.1965 44.5303 43.7913 44.2324 43.4739C43.9395 43.1565 43.5195 42.7073 43.2998 42.4729C42.7188 41.8528 41.5664 40.6077 41.0342 40.0217C40.1553 39.0549 37.2109 36.0374 36.3564 35.2317C36.1074 34.9973 35.9072 34.7874 35.9072 34.763C35.9072 34.7337 35.6387 34.4456 35.3066 34.1135C34.9795 33.7815 34.5645 33.3518 34.3838 33.1663C34.208 32.9758 33.9688 32.7561 33.8613 32.6682C33.6221 32.4876 32.709 31.5208 32.5918 31.3352C32.5234 31.218 32.5186 31.0862 32.5479 30.2317C32.582 29.2893 32.6211 28.9329 32.6699 29.0891C32.6846 29.1282 32.7871 29.3723 32.9043 29.6262C33.0215 29.8801 33.1777 30.3098 33.251 30.5735C33.4023 31.096 33.5879 31.4329 33.9736 31.8577C34.2861 32.2044 34.6182 32.3313 35.126 32.302C35.5361 32.2776 35.7461 32.1848 35.8779 31.97C35.9902 31.7747 35.9756 31.6819 35.7852 31.3303C35.6875 31.1594 35.5117 30.8176 35.3896 30.5784L35.1699 30.1389L35.1846 29.4065L35.1992 28.6741L34.8721 27.9905C34.5303 27.2825 34.3984 26.8626 34.3008 26.1594C34.2666 25.9299 34.2227 25.593 34.1934 25.4124C34.1152 24.846 33.7197 24.2112 33.3926 24.1282C33.1436 24.0647 31.9814 23.4251 31.8008 23.2493C31.7031 23.1565 31.5273 23.01 31.4053 22.9221C31.2832 22.8342 30.8682 22.5364 30.4824 22.2581C30.0967 21.9798 29.667 21.6917 29.5303 21.6087C29.3008 21.4817 29.252 21.4231 28.998 20.9446C28.8467 20.6565 28.6465 20.2024 28.5537 19.9339C28.373 19.4309 28.1143 18.9085 27.8018 18.4446C27.7041 18.2981 27.5674 18.0784 27.499 17.9563C27.3525 17.7024 26.8594 17.0872 26.166 16.2864C25.8975 15.9788 25.5996 15.5882 25.5068 15.4221C25.4141 15.2561 25.2285 14.9436 25.0967 14.719C24.7402 14.1184 24.5791 13.8352 24.5791 13.7913C24.5791 13.7717 24.6084 13.7571 24.6475 13.7571C24.6865 13.7571 24.7305 13.6936 24.75 13.6106C24.8135 13.3225 24.5107 12.9124 23.4023 11.7796C23.168 11.5354 22.8848 11.2229 22.7725 11.0862L22.5771 10.8274L22.6699 10.5491C22.7188 10.3928 22.7725 10.2073 22.792 10.1292L22.8213 9.99733H16.7666H10.707L10.9023 10.2757ZM12.3525 10.886L12.4941 11.0471L12.3232 10.9007C12.2305 10.8176 12.1426 10.7493 12.1328 10.7395C12.123 10.7346 12.1328 10.7298 12.1572 10.7298C12.1865 10.7298 12.2695 10.803 12.3525 10.886ZM24.7451 14.6116C24.9941 14.9583 25.4092 15.5735 25.6729 15.9739C25.9365 16.3743 26.3076 16.9016 26.5029 17.1458C26.9082 17.6585 27.7188 18.8303 27.9385 19.2258C28.0166 19.3723 28.1582 19.6799 28.2461 19.9094C28.334 20.1389 28.4854 20.4465 28.583 20.593C28.6807 20.7395 28.8711 21.0618 29.0127 21.301C29.1982 21.6331 29.3057 21.7649 29.4229 21.8235C29.5107 21.8674 29.8184 22.0774 30.1016 22.2923C31.2441 23.1516 32.2207 23.7913 33.002 24.1819C33.5146 24.4407 33.6025 24.5042 33.7197 24.6946C34.0176 25.1731 34.0908 25.3928 34.1982 26.0862C34.3594 27.1458 34.4375 27.4143 34.8135 28.1712L34.9795 28.4983L34.8184 28.5813C34.584 28.6985 34.4424 28.8499 34.4424 28.9768C34.4424 29.1135 34.6426 29.2551 34.7744 29.2112C34.877 29.1819 34.9551 28.9915 34.8672 28.9915C34.8281 28.9915 34.8281 28.9768 34.8672 28.9378C34.9941 28.8108 35.0283 28.9573 35.0283 29.5823C35.0283 30.1048 35.0137 30.2122 34.9551 30.2122C34.8525 30.2122 34.7842 30.3733 34.7842 30.6223C34.7842 30.7444 34.7646 30.8469 34.7451 30.8469C34.6426 30.8469 34.1494 29.6214 34.1494 29.3626C34.1494 29.2161 34.1348 29.1819 34.0762 29.2063C34.0371 29.221 34.0029 29.221 34.0029 29.2063C34.0029 29.138 34.3105 28.7473 34.4863 28.5862C34.7207 28.3762 34.7305 28.3274 34.5645 28.2883C34.4131 28.2493 34.3301 28.2932 34.3643 28.386C34.3789 28.4202 34.3691 28.4641 34.3447 28.4788C34.3203 28.4934 34.2471 28.4153 34.1836 28.303L34.0615 28.1028L34.0273 28.259C33.9785 28.4739 33.9199 28.3958 33.8076 27.9856C33.7588 27.8001 33.6904 27.5755 33.6465 27.4827C33.5928 27.3557 33.583 27.1897 33.6025 26.7796L33.627 26.2424L33.5146 26.2717C33.417 26.2962 33.4121 26.2864 33.4365 26.1692C33.5049 25.8518 33.5732 25.2708 33.5439 25.2073C33.5293 25.1682 33.4951 25.1341 33.4707 25.1341C33.4072 25.1341 33.3389 25.3635 33.2217 25.969C33.0605 26.8089 32.9531 27.1018 32.8604 26.9505C32.8457 26.926 32.8701 26.7014 32.9092 26.4475C33.0068 25.8518 32.9873 25.1243 32.8701 25.0022C32.7871 24.9241 32.7773 24.9339 32.6748 25.1731C32.6113 25.3098 32.5479 25.427 32.5332 25.427C32.5137 25.427 32.4893 25.3001 32.4697 25.1438C32.4111 24.6458 32.2451 24.6067 32.2451 25.095C32.2451 25.2219 32.2256 25.3391 32.1963 25.3538C32.1719 25.3684 32.1475 25.344 32.1475 25.2952C32.1475 25.2024 32.0596 25.0852 31.9961 25.0852C31.9766 25.0852 31.8789 25.3245 31.7812 25.6223C31.6836 25.9153 31.5908 26.1594 31.5762 26.1594C31.5615 26.1594 31.5615 26.052 31.5811 25.9153C31.6299 25.5393 31.5615 24.6409 31.4785 24.6116C31.3857 24.5725 31.376 24.5921 31.2979 24.9436C31.2344 25.2317 31.2295 25.2415 31.2246 25.0608C31.2197 24.9534 31.1953 24.7825 31.166 24.6751C31.1221 24.5091 31.1025 24.4895 30.9854 24.5139C30.9121 24.5286 30.8145 24.5579 30.7705 24.5725C30.6924 24.6018 30.6826 24.5725 30.6826 24.2551C30.6826 23.9524 30.6729 23.9085 30.6143 23.9622C30.5752 23.9915 30.5117 24.0989 30.4775 24.1966L30.4189 24.3772L30.3848 24.2307C30.3652 24.1477 30.3506 23.9866 30.3457 23.8645C30.3408 23.6741 30.3311 23.6594 30.2676 23.718C30.1943 23.7962 30.0479 24.2991 30.0479 24.4993C30.0479 24.5676 30.0283 24.6507 30.0039 24.6897C29.9502 24.7678 29.9209 24.5286 29.8672 23.6936C29.8477 23.3714 29.8232 23.1663 29.8135 23.2444C29.7939 23.4055 29.7061 23.3714 29.7061 23.2053C29.7061 23.0589 29.6182 23.0003 29.5791 23.1174C29.457 23.4788 28.9492 24.7092 28.8906 24.7776C28.8271 24.8557 28.8271 24.8508 28.8516 24.7044C28.8711 24.6165 29.0371 24.1135 29.2178 23.5813C29.4033 23.054 29.5449 22.6096 29.5303 22.5999C29.5205 22.5901 29.4668 22.6389 29.4082 22.7122C29.2764 22.8782 29.1836 22.8147 29.1836 22.551C29.1836 22.2971 29.125 22.2092 29.0371 22.3264C29.0029 22.3801 28.9736 22.3899 28.9736 22.3606C28.9736 22.3264 28.9199 22.302 28.8516 22.302C28.7588 22.302 28.7295 22.3264 28.7246 22.4094C28.7197 22.4973 28.71 22.4827 28.6758 22.3606C28.6172 22.1702 28.5684 22.1897 28.4268 22.4632L28.3193 22.6682L28.29 22.4729C28.2656 22.2581 28.2266 22.2825 28.1631 22.5462L28.124 22.7171L28.0947 22.551C28.0605 22.3069 27.9678 22.3118 27.9287 22.5559C27.8604 23.0003 27.7383 23.4837 27.709 23.4299C27.6699 23.3714 27.5527 23.718 27.4551 24.1721C27.4209 24.3284 27.377 24.4651 27.3525 24.4798C27.2939 24.5188 27.3037 24.2991 27.3818 23.9524C27.4551 23.635 27.5332 22.9758 27.582 22.2483C27.6162 21.7405 27.5527 21.6721 27.2842 21.9114C26.835 22.302 26.8789 21.9163 27.3672 21.1741C27.5234 20.9397 27.5967 20.7737 27.5771 20.7249C27.543 20.6321 27.4795 20.6174 27.4355 20.6907C27.4111 20.7298 26.8838 21.0276 26.6641 21.1253C26.6396 21.135 26.6445 21.096 26.6738 21.0374C26.8008 20.8079 27.5674 20.4954 27.6553 20.6419C27.6846 20.6858 27.6992 20.6858 27.7285 20.637C27.7822 20.5491 27.5283 20.3587 27.2988 20.3147L27.1084 20.2757L27.333 20.1194C27.5771 19.9436 27.5967 19.9046 27.4795 19.8069C27.416 19.7532 27.3672 19.7532 27.1865 19.8215C26.9912 19.8899 26.9717 19.8899 26.9717 19.8167C26.9717 19.7727 26.9229 19.6604 26.8643 19.5676C26.8105 19.4749 26.708 19.2747 26.6445 19.1282L26.5225 18.8596L26.7129 19.0403C26.8154 19.1428 26.918 19.2258 26.9326 19.2258C26.9912 19.2258 26.6689 18.5715 26.3271 17.9905C26.1367 17.6731 25.9951 17.4046 26.0049 17.3899C26.0195 17.3801 26.1318 17.5169 26.2539 17.6975C26.3809 17.8831 26.5859 18.176 26.7129 18.3567C26.8447 18.5374 27.0352 18.8206 27.1377 18.9817C27.2988 19.2356 27.5088 19.4407 27.5088 19.3479C27.5088 19.3333 27.4209 19.1868 27.3135 19.0305C27.2061 18.8743 27.1182 18.7278 27.1182 18.7083C27.1182 18.6936 27.0645 18.6106 26.9912 18.5325C26.9229 18.4495 26.8105 18.2688 26.7422 18.1321C26.6055 17.8538 26.3857 17.4827 26.0391 16.9309C25.917 16.7307 25.6973 16.3694 25.5557 16.1301C25.4141 15.8958 25.0039 15.2561 24.6426 14.7141C24.2812 14.177 23.9736 13.6985 23.959 13.6594C23.915 13.5178 24.3008 13.9866 24.7451 14.6116ZM25.0186 16.0032C25.0479 16.0569 25.0576 16.1008 25.0479 16.1008C25.0332 16.1008 24.999 16.0569 24.9697 16.0032C24.9404 15.9495 24.9307 15.9055 24.9404 15.9055C24.9551 15.9055 24.9893 15.9495 25.0186 16.0032ZM23.9443 16.2473C23.9736 16.301 23.9834 16.345 23.9736 16.345C23.959 16.345 23.9248 16.301 23.8955 16.2473C23.8662 16.1936 23.8564 16.1497 23.8662 16.1497C23.8809 16.1497 23.915 16.1936 23.9443 16.2473ZM16.5078 16.4231C16.4932 16.4378 16.4492 16.4426 16.415 16.428C16.376 16.4133 16.3906 16.3987 16.4443 16.3987C16.498 16.3938 16.5273 16.4085 16.5078 16.4231ZM25.6582 17.1116C25.7217 17.1897 25.7168 17.1946 25.6436 17.1311C25.5947 17.0969 25.5557 17.0579 25.5557 17.0481C25.5557 17.0091 25.5947 17.0335 25.6582 17.1116ZM26.2393 18.3958C26.2686 18.4495 26.2783 18.4934 26.2686 18.4934C26.2539 18.4934 26.2197 18.4495 26.1904 18.3958C26.1611 18.3421 26.1514 18.2981 26.1611 18.2981C26.1758 18.2981 26.21 18.3421 26.2393 18.3958ZM26.3857 18.6399C26.415 18.6936 26.4248 18.7376 26.415 18.7376C26.4004 18.7376 26.3662 18.6936 26.3369 18.6399C26.3076 18.5862 26.2979 18.5423 26.3076 18.5423C26.3223 18.5423 26.3564 18.5862 26.3857 18.6399ZM21.166 19.2405C21.1611 19.2991 21.0928 19.2844 21.0732 19.221C21.0586 19.1917 21.0781 19.1721 21.1123 19.1819C21.1416 19.1965 21.166 19.221 21.166 19.2405ZM25.5312 20.3147C25.7998 20.7102 25.9707 20.9202 25.9951 20.886C26.0391 20.8128 26.0928 21.0716 26.1172 21.511C26.1318 21.6917 26.1465 21.8723 26.1514 21.9114C26.1611 21.9505 26.1465 21.9895 26.1221 21.9993C26.0928 22.0091 26.0195 21.8626 25.9512 21.6721C25.7998 21.2669 25.7754 21.2376 25.668 21.3352C25.4238 21.5403 25.3262 21.4426 25.5605 21.2278L25.7168 21.0813L25.6289 20.8469C25.5801 20.72 25.4238 20.4026 25.2773 20.1438C25.0381 19.7044 24.96 19.5335 25.0625 19.6409C25.082 19.6702 25.2969 19.9729 25.5312 20.3147ZM25.751 21.5452C25.7168 21.5842 25.668 21.6184 25.6436 21.6184C25.6143 21.6184 25.6191 21.5842 25.6533 21.5452C25.6875 21.5061 25.7363 21.4719 25.7607 21.4719C25.79 21.4719 25.7852 21.5061 25.751 21.5452ZM24.8135 21.6428C24.7988 21.6575 24.7695 21.6331 24.7549 21.5842C24.7256 21.5159 24.7305 21.511 24.7793 21.5549C24.8135 21.5891 24.8281 21.6282 24.8135 21.6428ZM25.7803 21.6917C25.7266 21.7307 25.6631 21.7649 25.6338 21.7649C25.6094 21.7649 25.6289 21.7307 25.6826 21.6917C25.7314 21.6526 25.7998 21.6233 25.8242 21.6233C25.8535 21.6233 25.8291 21.6526 25.7803 21.6917ZM23.7637 22.678C23.7295 22.6878 23.6709 22.6878 23.6416 22.678C23.6074 22.6633 23.6318 22.6536 23.7002 22.6536C23.7686 22.6536 23.793 22.6633 23.7637 22.678ZM21.5322 23.0589C21.6982 23.1516 21.8643 23.2298 21.9033 23.2298C21.9668 23.2298 22.4844 23.7229 23.3047 24.5628C23.6172 24.8801 23.7197 24.9583 24.4668 25.4466C24.6621 25.5735 24.833 25.72 24.8477 25.7737C24.8965 25.9202 24.8281 26.0569 24.6768 26.135C24.4961 26.2278 24.4863 26.2278 24.5156 26.1204C24.5303 26.0471 24.4033 25.9544 23.8516 25.6516C23.3389 25.3635 23.1631 25.2464 23.1533 25.1682C23.1387 25.0608 22.9189 24.9778 22.9189 25.0803C22.9189 25.1096 22.8945 25.1341 22.8652 25.1341C22.8408 25.1341 22.8262 25.1145 22.8408 25.095C22.8506 25.0755 22.8457 25.0266 22.8213 24.9876C22.7871 24.929 22.7627 24.929 22.7139 24.9778C22.6016 25.0901 22.5625 25.0364 22.5918 24.8167C22.626 24.5725 22.582 24.5383 22.3916 24.6751C22.2988 24.7385 22.2793 24.7385 22.2549 24.6751C22.2402 24.636 22.25 24.5579 22.2842 24.5042C22.3428 24.387 22.2744 24.3674 22.1865 24.4749C22.0547 24.636 21.8496 24.47 21.9521 24.2844C21.9912 24.2112 21.9863 24.2014 21.9131 24.2258C21.8447 24.2454 21.8008 24.2112 21.7373 24.0842C21.6885 23.9915 21.6641 23.8792 21.6836 23.8352C21.7471 23.6692 21.2881 23.9768 20.9072 24.3528C20.5508 24.7141 20.4336 24.7727 20.502 24.5481C20.541 24.426 21.0293 23.9817 21.2588 23.8645C21.3564 23.8157 21.5518 23.7571 21.6934 23.7376C21.9717 23.7034 22.0254 23.6594 21.918 23.5716C21.8447 23.513 21.4248 23.5325 21.2344 23.6008C21.166 23.6301 21.166 23.6155 21.2393 23.4592C21.3174 23.2932 21.3174 23.2786 21.2148 23.1077C21.1611 23.01 21.1123 22.9221 21.1123 22.9075C21.1123 22.8538 21.249 22.9026 21.5322 23.0589ZM22.1133 22.9856C22.1279 23.01 22.1182 23.0344 22.0938 23.0344C22.0645 23.0344 22.04 23.01 22.04 22.9856C22.04 22.9563 22.0498 22.9368 22.0596 22.9368C22.0742 22.9368 22.0986 22.9563 22.1133 22.9856ZM20.5312 23.1712C20.4727 23.2835 20.3359 23.4007 20.3066 23.3665C20.292 23.3518 20.3262 23.2835 20.3848 23.2151C20.502 23.0637 20.6045 23.0344 20.5312 23.1712ZM20.043 23.8303C19.9941 23.8743 19.9893 23.8694 20.0186 23.801C20.0332 23.7522 20.0625 23.7278 20.0771 23.7424C20.0918 23.7571 20.0771 23.7962 20.043 23.8303ZM24.9893 24.1575L25.2822 24.3479L24.5254 24.3626C24.1104 24.3723 23.7637 24.3723 23.7539 24.3674C23.749 24.3626 23.832 24.3333 23.9395 24.304C24.1592 24.2454 24.1689 24.1575 23.9541 24.1575C23.7686 24.1575 23.8857 24.0549 24.125 24.011C24.54 23.928 24.6865 23.9524 24.9893 24.1575ZM24.3789 24.5188C24.3691 24.5286 24.2373 24.5481 24.0908 24.5628C23.915 24.5823 23.8662 24.5774 23.9443 24.5481C24.0664 24.5091 24.418 24.4846 24.3789 24.5188ZM26.3418 24.9241C26.4053 25.0022 26.4004 25.0071 26.3271 24.9436C26.2783 24.9094 26.2393 24.8704 26.2393 24.8606C26.2393 24.8216 26.2783 24.846 26.3418 24.9241ZM24.9209 24.9583C24.9209 24.968 24.8867 24.9876 24.8477 25.0071C24.8086 25.0217 24.7744 25.012 24.7744 24.9876C24.7744 24.9583 24.8086 24.9387 24.8477 24.9387C24.8867 24.9387 24.9209 24.9485 24.9209 24.9583ZM25.4824 24.9876C25.6436 25.012 25.751 25.0071 25.79 24.9729C25.8389 24.9339 25.8828 24.9534 25.9609 25.0462C26.3857 25.5589 26.8545 26.0667 26.918 26.0862C27.0352 26.1301 27.8652 27.136 27.8213 27.1848C27.8066 27.1995 27.5771 27.2532 27.3135 27.3069C26.8398 27.4094 26.8105 27.3997 26.9619 27.219C27.0303 27.1409 27.0254 27.136 26.874 27.136C26.7861 27.136 26.7275 27.1214 26.7422 27.1067C26.8008 27.0432 26.6787 26.9016 26.5908 26.926C26.5322 26.9407 26.4834 26.9163 26.4639 26.8674C26.4443 26.8137 26.4053 26.7991 26.3418 26.8186C26.2734 26.8382 26.2393 26.8137 26.2002 26.6966C26.1514 26.5647 26.1318 26.5549 26 26.5794C25.8584 26.6087 25.834 26.594 25.8389 26.4524C25.8389 26.4378 25.8535 26.3743 25.873 26.3108C25.9023 26.2083 25.8975 26.1985 25.8047 26.2229C25.6826 26.2522 25.6729 26.179 25.7803 26.0569C25.8535 25.9739 25.8535 25.9495 25.751 25.7444C25.6484 25.5296 25.6387 25.5247 25.5508 25.6028C25.4775 25.6663 25.4434 25.676 25.3994 25.6321C25.3555 25.5882 25.3701 25.5393 25.4531 25.4221C25.5947 25.2317 25.5557 25.1926 25.3311 25.2952C25.1162 25.4026 25.0674 25.3733 25.1016 25.1633C25.1211 25.0266 25.1113 24.9924 25.0381 24.9729C24.877 24.9339 25.2236 24.9436 25.4824 24.9876ZM24.9697 25.0559C24.9697 25.0657 24.9355 25.0901 24.8916 25.1048C24.8525 25.1194 24.833 25.1145 24.8477 25.0852C24.877 25.0364 24.9697 25.0169 24.9697 25.0559ZM29.1787 25.3245C29.1885 25.4075 29.1836 25.4612 29.1592 25.4466C29.1201 25.4221 29.1006 25.1829 29.1396 25.1829C29.1494 25.1829 29.1689 25.2464 29.1787 25.3245ZM23.4072 25.5637C23.4072 25.6321 23.3975 25.637 23.3633 25.5784C23.3242 25.5149 23.3047 25.5149 23.2266 25.5735C23.1436 25.637 23.1484 25.637 23.2314 25.5393C23.3291 25.4221 23.4072 25.4319 23.4072 25.5637ZM23.8955 25.8811C23.8955 25.9348 23.7295 25.8421 23.6465 25.7395C23.5879 25.6614 23.5977 25.6614 23.7393 25.7444C23.8223 25.7981 23.8955 25.8567 23.8955 25.8811ZM29.291 26.428C29.3838 26.5012 29.3789 26.5012 29.2324 26.4329C29.1494 26.3889 29.0615 26.3303 29.042 26.301C29.0029 26.2376 29.1445 26.3059 29.291 26.428ZM22.5283 26.5061C22.6016 26.6428 22.5527 26.6184 22.4551 26.4719C22.4111 26.3987 22.3965 26.3596 22.4258 26.3743C22.4551 26.3938 22.5039 26.4524 22.5283 26.5061ZM22.9531 26.843C23.1875 26.9944 23.168 27.0481 22.9238 26.9212C22.7969 26.8528 22.6309 26.6966 22.6895 26.6966C22.709 26.6966 22.8262 26.76 22.9531 26.843ZM30.7363 26.926C30.7998 27.0042 30.7949 27.0091 30.7217 26.9456C30.6729 26.9114 30.6338 26.8723 30.6338 26.8626C30.6338 26.8235 30.6729 26.8479 30.7363 26.926ZM25.043 27.3801C25.2578 27.5266 25.4092 27.6975 25.4092 27.7903C25.4092 27.8196 25.375 27.7903 25.3311 27.7268C25.2871 27.6633 25.1162 27.5266 24.9551 27.4241C24.7939 27.3216 24.7012 27.2337 24.7451 27.2337C24.7939 27.2337 24.9258 27.302 25.043 27.3801ZM31.5469 27.3606C31.5322 27.3753 31.4883 27.3801 31.4541 27.3655C31.415 27.3508 31.4297 27.3362 31.4834 27.3362C31.5371 27.3313 31.5664 27.346 31.5469 27.3606ZM25.0332 27.6389C25.4141 27.8831 25.4482 27.9368 25.3359 28.137C25.2871 28.2298 25.1455 28.4202 25.0234 28.5569C24.7695 28.8401 24.7598 28.8401 24.3984 28.5715L24.2422 28.4544L24.3643 28.1028C24.4277 27.9124 24.4814 27.678 24.4814 27.5852C24.4814 27.4241 24.4863 27.4192 24.6279 27.4485C24.7109 27.4632 24.8916 27.551 25.0332 27.6389ZM27.7432 27.6048C27.7822 27.6731 27.8115 27.678 27.9629 27.6194C28.1143 27.5657 28.1484 27.5706 28.2656 27.6536C28.583 27.8782 28.8174 28.0198 29.0469 28.1272C29.1836 28.1907 29.4473 28.3665 29.6377 28.513C29.8232 28.6594 30.1211 28.8645 30.2969 28.9671C30.7607 29.2356 30.9463 29.4016 31.2393 29.7874C31.3857 29.9827 31.5811 30.2122 31.6738 30.3001L31.8398 30.4612L31.9229 30.3391C32.0449 30.1438 32.0205 30.051 31.7324 29.6702C31.5859 29.4749 31.4639 29.2991 31.4639 29.2747C31.4639 29.2503 31.4443 29.2405 31.4248 29.2551C31.4004 29.2698 31.3174 29.2112 31.2393 29.1233L31.0977 28.9671L31.2588 29.1087C31.3418 29.1917 31.415 29.2307 31.415 29.2014C31.415 29.1721 31.498 29.0501 31.6055 28.9378C31.8154 28.7034 31.7617 28.7034 32.1377 28.9719C32.2402 29.0501 32.2451 29.0452 32.2451 28.9524C32.2451 28.8987 32.1621 28.7473 32.0547 28.6155L31.8691 28.3762L32.084 28.2981L32.2988 28.22L32.3574 28.3518C32.4209 28.4885 32.416 30.1829 32.3525 30.7395L32.3184 31.0423L32.0352 30.7786C31.8203 30.5784 31.6982 30.5003 31.5078 30.4563C31.2344 30.388 30.9121 30.4221 30.7461 30.5344C30.6045 30.6223 30.6045 30.5882 30.7412 30.3684C30.8389 30.2122 30.8389 30.1829 30.7803 29.9485C30.7461 29.8118 30.6924 29.6311 30.6582 29.5432C30.5703 29.3284 30.2285 29.0891 30.0039 29.0842C29.8477 29.0842 29.8379 29.0794 29.9404 29.0354C30.082 28.9817 30.0332 28.8938 29.8623 28.8938C29.6279 28.8938 29.3643 28.9915 29.1934 29.1477C29.0957 29.2307 29.0322 29.2649 29.0469 29.2307C29.0615 29.1917 29.1787 29.0842 29.3008 28.9915L29.5303 28.8206L29.374 28.8059C29.2812 28.7962 29.1885 28.8206 29.1396 28.8645C29.0469 28.9622 28.9883 28.9671 29.0664 28.8743C29.1104 28.8255 29.1104 28.7962 29.0713 28.7717C28.9736 28.7132 28.876 28.7913 28.8711 28.928C28.8711 29.0452 28.8467 29.0208 28.7246 28.7717C28.4854 28.2835 28.251 28.093 27.7676 27.9661C27.5723 27.9173 27.5625 27.9075 27.582 27.7464C27.6016 27.5999 27.5918 27.5803 27.4697 27.5608C27.3623 27.5462 27.3721 27.5413 27.5186 27.5315C27.6406 27.5266 27.7139 27.551 27.7432 27.6048ZM25.1357 28.928C24.8428 29.4846 24.4717 30.0169 24.374 30.0169C24.3545 30.0169 24.374 29.9436 24.418 29.8508C24.4912 29.6946 24.4912 29.6702 24.4131 29.5042C24.3643 29.4065 24.1641 29.1673 23.9639 28.9768C23.7637 28.7815 23.6025 28.6008 23.6025 28.5764C23.6025 28.5471 23.7686 28.6887 23.9785 28.8792C24.1836 29.0745 24.3691 29.2356 24.3887 29.2356C24.4033 29.2356 24.4473 29.1673 24.4814 29.0891C24.5352 28.9573 24.5645 28.9426 24.6768 28.9671C24.8379 29.0012 25.043 28.845 25.2676 28.5227C25.3457 28.4055 25.4238 28.3079 25.4385 28.3079C25.4482 28.3079 25.3115 28.5862 25.1357 28.928ZM27.0986 28.6057C26.918 29.011 26.9082 29.1331 27.0352 29.3528C27.0938 29.4602 27.1768 29.5628 27.2158 29.5823C27.5967 29.7776 27.7334 29.8264 27.8311 29.802C27.8896 29.7874 28.0605 29.636 28.2119 29.47C28.5195 29.1331 28.5635 29.1477 28.3291 29.509C28.2461 29.6409 28.0752 29.9241 27.9482 30.1389C27.8164 30.3538 27.6113 30.6565 27.4844 30.8128L27.25 31.0911L27.0986 30.8909C27.0156 30.7835 26.7861 30.593 26.5957 30.471C26.4004 30.3489 26.2393 30.2317 26.2393 30.2024C26.2393 30.178 26.2539 30.1633 26.2783 30.1731C26.2979 30.1829 26.3711 30.2219 26.4492 30.2561C26.6396 30.3538 26.6641 30.2903 26.5127 30.095C26.4053 29.9485 26.3906 29.9094 26.4395 29.802L26.498 29.6799L26.5811 29.7874C26.6982 29.929 26.7568 29.8606 26.6787 29.6751C26.625 29.5432 26.6299 29.4944 26.7275 29.2698C27.0303 28.5813 27.1719 28.2981 27.1914 28.3176C27.2061 28.3323 27.1621 28.4592 27.0986 28.6057ZM28.085 28.4299C28.5244 28.635 28.5293 28.8206 28.1094 29.387C27.8896 29.6897 27.8262 29.719 27.6162 29.6018C27.3379 29.4505 27.3428 29.4895 27.543 28.8743C27.6455 28.5618 27.7529 28.3079 27.7773 28.3079C27.8066 28.3079 27.9434 28.3616 28.085 28.4299ZM30.3408 29.509C30.4482 29.6067 30.5361 29.7044 30.5361 29.7239C30.5361 29.7434 30.4141 29.9632 30.2627 30.2073C29.8867 30.8323 30.0039 30.8811 30.4238 30.2757C30.5264 30.1292 30.6143 30.0315 30.624 30.0559C30.6338 30.0852 30.4434 30.4856 30.2041 30.9544C29.6133 32.1018 29.4473 32.3899 29.4229 32.3069C29.4082 32.2678 29.3545 32.1848 29.2959 32.1165L29.1934 31.9944L29.3008 32.0872C29.5156 32.2678 29.584 32.0335 29.4033 31.7307C29.3447 31.6331 29.2568 31.5061 29.208 31.4524C29.1152 31.3499 29.1152 31.345 29.2178 31.1741C29.3203 31.0032 29.3252 30.9983 29.4375 31.0715C29.6426 31.2083 29.6963 31.1204 29.5156 30.9544C29.2959 30.7542 29.3545 30.6956 29.6035 30.8665C29.7842 30.9934 29.9014 31.0032 29.9014 30.8958C29.9014 30.8714 29.8281 30.8176 29.7354 30.7737C29.5596 30.6907 29.3643 30.5051 29.4521 30.5051C29.4814 30.5051 29.5693 30.5637 29.6523 30.6321C29.833 30.7835 29.8574 30.72 29.6816 30.554C29.6133 30.4905 29.5596 30.4173 29.5596 30.388C29.5596 30.3587 29.6475 30.1096 29.7598 29.8313C29.9893 29.26 30.0332 29.2356 30.3408 29.509ZM23.3877 29.7581C23.5391 29.968 23.6953 30.1682 23.7393 30.1975C23.832 30.2757 23.7783 30.2805 23.6465 30.2122C23.5537 30.1585 23.0654 29.4993 23.0654 29.4212C23.0654 29.3382 23.1191 29.3919 23.3877 29.7581ZM35.4385 31.0423C35.7119 31.4964 35.8096 31.7014 35.7852 31.7747C35.7461 31.8967 35.6533 31.8528 35.3604 31.5891C35.082 31.3352 34.9795 31.1106 34.9795 30.7249C34.9795 30.5491 34.999 30.4075 35.0186 30.4075C35.0381 30.4075 35.2285 30.6907 35.4385 31.0423ZM31.498 30.7053C31.5713 30.7298 31.7373 30.8372 31.8691 30.9348C32.1523 31.1497 33.5146 32.6633 33.5146 32.761C33.5146 32.8001 33.4609 32.8831 33.3926 32.9466L33.2656 33.0637L33.2363 32.9563C33.207 32.8294 33.1826 32.8245 33.0557 32.9221C32.8994 33.0442 32.8555 33.0051 32.8408 32.7415C32.8359 32.6048 32.8164 32.4778 32.8018 32.4632C32.7871 32.4485 32.7236 32.4876 32.6699 32.5559C32.6113 32.6243 32.5234 32.7073 32.4795 32.7415C32.4062 32.8001 32.4014 32.7903 32.4551 32.6243C32.499 32.4827 32.499 32.4387 32.4502 32.4192C32.4111 32.4094 32.4014 32.3362 32.4209 32.1995C32.4551 31.9993 32.4551 31.9944 32.3574 32.0823C32.2598 32.1653 32.2549 32.1653 32.1963 32.0237C32.1621 31.9309 32.1133 31.887 32.0693 31.9065C32.0156 31.926 32.001 31.8674 32.001 31.6282C32.001 31.4085 31.9717 31.2766 31.9033 31.1643C31.7959 30.9885 31.3955 30.7542 31.1904 30.7444L31.0488 30.7395L31.1953 30.7005C31.2783 30.6809 31.3467 30.6614 31.3516 30.6565C31.3564 30.6565 31.4199 30.676 31.498 30.7053ZM31.6201 31.1253C31.7568 31.2913 31.7617 31.3889 31.6396 31.5989C31.4639 31.9016 31.3369 32.0139 31.2197 31.9846C31.0732 31.9456 31.0635 31.8967 31.1367 31.6428C31.3125 31.0569 31.4395 30.9202 31.6201 31.1253ZM31.4932 32.6536C31.3467 33.0979 31.2148 33.5764 31.1953 33.718C31.166 33.9426 31.1367 33.9915 31.0049 34.0745C30.9121 34.1331 30.7705 34.1673 30.6338 34.1624H30.4141L30.6533 34.0989C30.9609 34.0159 31.0586 33.8596 31.0684 33.4446C31.0732 33.2981 31.0488 33.2298 31 33.2102C30.9365 33.1858 30.9512 33.137 31.0732 32.9124C31.1953 32.7024 31.2148 32.6292 31.166 32.5755C31.1221 32.5217 31.1221 32.4924 31.1709 32.4339C31.2539 32.3362 31.2002 32.2239 31.0439 32.1653C30.8633 32.0969 30.917 32.0628 31.1318 32.1116C31.3516 32.1653 31.4639 32.0969 31.6201 31.8137C31.8301 31.4378 31.7764 31.804 31.4932 32.6536ZM31.1709 32.6536C31.1709 32.678 31.1514 32.7024 31.1221 32.7024C31.0977 32.7024 31.0732 32.678 31.0732 32.6536C31.0732 32.6243 31.0977 32.6048 31.1221 32.6048C31.1514 32.6048 31.1709 32.6243 31.1709 32.6536ZM33.9053 33.0149C33.9053 33.0882 33.1484 33.8303 32.9775 33.9231C32.8018 34.0208 32.875 33.9085 33.334 33.4104C33.7393 32.9758 33.9053 32.8587 33.9053 33.0149ZM34.7256 33.7132C34.9062 33.8987 35.1895 34.2014 35.3555 34.3919L35.6582 34.7385L34.96 35.4173C34.5791 35.7932 34.0176 36.3645 33.7148 36.6917C33.4121 37.0237 33.1484 37.2923 33.124 37.2923C33.0166 37.2923 33.1436 37.1018 33.5 36.7405C33.9443 36.2864 34.2568 35.8958 34.3984 35.6272C34.5205 35.388 34.5156 35.344 34.3936 35.5003C34.335 35.5686 34.2666 35.6174 34.2324 35.6028C34.1494 35.5735 34.1348 35.344 34.2031 35.2561C34.252 35.2024 34.2422 35.1975 34.1689 35.2219C34.0908 35.2512 34.0859 35.2464 34.1396 35.1878C34.2324 35.0901 34.208 35.0364 34.1006 35.095C34.0322 35.1341 34.0029 35.1341 34.0029 35.095C34.0029 35.0657 33.9834 35.051 33.959 35.0657C33.9346 35.0803 33.8906 35.0608 33.8564 35.0217C33.8223 34.9827 33.8174 34.9485 33.8418 34.9485C33.8955 34.9485 34.0176 34.7044 33.9834 34.6702C33.9736 34.6555 33.915 34.6751 33.8516 34.7044C33.7588 34.7532 33.7148 34.7483 33.5781 34.6799L33.4219 34.5921L33.6123 34.3967C33.7197 34.2942 33.8076 34.1624 33.8076 34.1184C33.8076 34.0354 33.7881 34.0403 33.583 34.1526C33.4609 34.221 33.3535 34.2649 33.3389 34.2503C33.2949 34.2063 34.2178 33.386 34.3105 33.386C34.3594 33.386 34.5449 33.5325 34.7256 33.7132ZM39.0273 38.1956C40.5459 39.7532 41.2051 40.4465 42.7188 42.0774C43.2021 42.595 43.8418 43.2786 44.1396 43.596C44.4375 43.9085 44.7891 44.304 44.9209 44.4749C45.0527 44.6409 45.3213 44.9534 45.5215 45.1682C46.3516 46.0764 47.7578 47.9124 48.6709 49.2796C49.1592 50.0169 49.8721 51.2083 49.8721 51.2913C49.8721 51.3059 49.8379 51.2913 49.7988 51.2571C49.7598 51.2229 49.7256 51.1741 49.7256 51.1497C49.7256 51.0569 49.1543 50.1292 48.5586 49.2551C47.8945 48.2835 47.499 47.8245 47.4258 47.9417C47.377 48.0247 47.416 48.303 47.5137 48.4837C47.5479 48.5618 47.5674 48.6204 47.5527 48.6204C47.543 48.6204 47.4746 48.5081 47.4014 48.3665C47.3086 48.1809 47.2793 48.0686 47.2988 47.9319C47.3135 47.8001 47.2988 47.7268 47.25 47.6878C47.1572 47.6048 47.0938 47.7024 47.0889 47.9368L47.084 48.1077L46.9229 47.9221C46.8057 47.7952 46.7471 47.6682 46.7227 47.5071C46.6738 47.1653 46.5713 46.9944 46.4346 47.0188C46.332 47.0383 46.3125 47.0042 46.2148 46.7014C46.0586 46.2229 45.6338 45.8225 45.502 46.0325C45.458 46.1008 45.3799 46.0911 45.3799 46.0178C45.3799 45.9153 45.0625 45.4954 44.9111 45.3928C44.8135 45.3294 44.75 45.3196 44.6865 45.3538C44.6035 45.3977 44.6182 45.4319 44.8477 45.7737C45.0869 46.1253 45.0918 46.1399 44.9453 46.0374C44.7598 45.9055 44.6328 45.7395 44.3301 45.2415C44.0811 44.8264 43.7637 44.4651 43.7295 44.5579C43.7197 44.5872 43.7588 44.6751 43.8125 44.7434C43.8662 44.8167 43.9053 44.8899 43.8906 44.9094C43.876 44.929 43.9004 44.9632 43.9443 44.9778C43.9883 44.9973 44.0127 45.0413 43.9932 45.0803C43.9785 45.1194 43.9834 45.1536 44.0078 45.1536C44.0469 45.1536 44.208 45.5296 44.208 45.6174C44.208 45.6467 44.1592 45.5686 44.1055 45.4465C44.0518 45.3294 43.9541 45.1585 43.8857 45.0706C43.7588 44.8997 43.7344 44.8362 43.832 44.8899C43.8613 44.9094 43.8711 44.9046 43.8516 44.885C43.7979 44.8264 43.6709 44.8118 43.6709 44.8655C43.6709 44.8899 43.7539 45.0315 43.8564 45.1829C43.9541 45.3342 44.0664 45.5149 44.1055 45.5882C44.1445 45.6565 44.2031 45.7444 44.2422 45.7786C44.3545 45.8909 44.3105 45.9348 44.0908 45.9348H43.8809L43.8467 45.676C43.8271 45.5393 43.8076 45.3733 43.8027 45.3147C43.7979 45.2561 43.7832 45.2219 43.7734 45.2317C43.7588 45.2415 43.7197 45.1829 43.6855 45.0999C43.6221 44.9436 43.5244 44.9485 43.5244 45.1048C43.5244 45.1926 43.5098 45.1878 43.3193 45.0803C43.1289 44.9729 43.1045 44.968 43.0264 45.0364C42.9385 45.1194 42.8311 45.0901 42.8701 44.9924C42.8848 44.9534 42.8262 44.9046 42.7334 44.8704C42.6406 44.8362 42.499 44.7092 42.4014 44.5823C42.2939 44.4358 42.2256 44.3821 42.2158 44.4309C42.1963 44.5237 42.3672 44.9778 42.499 45.1926C42.5869 45.3391 42.6113 45.3489 42.7871 45.3196C43.0264 45.2805 43.1631 45.3538 43.2559 45.5735C43.3291 45.7493 43.3145 45.8665 43.2266 45.8079C43.2021 45.7932 43.1484 45.803 43.1094 45.8372C43.0703 45.8714 43.0361 45.8714 43.0166 45.8421C42.958 45.7542 42.8359 45.8421 42.8701 45.9446C42.8896 46.0178 42.8848 46.0325 42.8408 46.0081C42.8018 45.9837 42.7871 45.9885 42.8115 46.0227C42.8262 46.052 42.9092 46.0667 42.9922 46.0569C43.0947 46.0423 43.1338 46.0569 43.1191 46.096C43.1094 46.1301 43.0605 46.1497 43.0166 46.1497C42.9727 46.1448 42.9385 46.1594 42.9385 46.1839C42.9385 46.2083 42.9141 46.2278 42.8848 46.2278C42.8604 46.2278 42.8457 46.2083 42.8604 46.1839C42.8799 46.1594 42.8701 46.1301 42.8408 46.1204C42.8164 46.1155 42.7139 45.9837 42.6211 45.8372C42.4258 45.5393 42.4307 45.6614 42.626 46.0471C42.6895 46.179 42.7285 46.3108 42.709 46.3352C42.6943 46.3645 42.7041 46.3743 42.7285 46.3596C42.7578 46.3401 42.8066 46.3889 42.8311 46.4671L42.8799 46.6087L42.7188 46.5159C42.5967 46.4426 42.4893 46.2864 42.2793 45.8811C42.04 45.427 41.752 45.0559 41.6885 45.1194C41.6787 45.1292 41.7031 45.2317 41.7422 45.3489C41.8398 45.6321 41.835 45.637 41.6738 45.4173C41.5957 45.3147 41.4639 45.1585 41.376 45.0803C41.2197 44.9339 41.2197 44.9339 41.2539 45.0559C41.2734 45.1243 41.3516 45.2903 41.4297 45.427C41.5078 45.5637 41.5713 45.7053 41.5713 45.7346C41.5713 45.8128 41.3955 45.7981 41.3223 45.7102C41.1416 45.4905 40.7852 45.4465 40.5898 45.6223C40.5117 45.6907 40.502 45.6907 40.4482 45.593C40.4141 45.5296 40.4092 45.427 40.4287 45.3342C40.4824 45.1048 40.4727 44.9924 40.375 44.846C40.2285 44.6165 39.9941 44.509 39.6914 44.5286L39.4229 44.5432V44.2356C39.4229 44.0696 39.4375 43.9378 39.4619 43.9378C39.6523 43.9671 39.6328 43.8743 39.3984 43.6204C39.2715 43.4788 39.2666 43.4788 38.8564 43.513L38.4463 43.5423L38.4414 43.3616C38.4365 43.259 38.4316 43.1516 38.4219 43.1272C38.417 43.0979 38.4072 43.054 38.4072 43.0198C38.4023 42.9905 38.3389 42.8977 38.2705 42.8147C38.1289 42.6438 37.9238 42.6145 37.6504 42.7317L37.4941 42.7952L37.4795 42.5266C37.4697 42.3801 37.4355 42.1799 37.4062 42.0823L37.3477 41.9065L36.9521 41.9163L36.5566 41.9212L36.4736 41.7551C36.4297 41.6624 36.3955 41.5354 36.4004 41.4768C36.4004 41.4182 36.415 41.3987 36.4297 41.428C36.4395 41.4622 36.4736 41.4915 36.498 41.4915C36.5713 41.4915 36.4053 41.1399 36.2686 41.0032C36.1611 40.8909 36.1123 40.8811 35.79 40.8909L35.4287 40.8958L35.4092 40.6467C35.3994 40.5051 35.3994 40.3538 35.4189 40.3049C35.4434 40.2317 35.4629 40.2464 35.5264 40.388C35.5752 40.4807 35.6533 40.5833 35.7119 40.6126C35.8828 40.7053 35.8828 40.5442 35.7168 40.3001C35.5459 40.0559 35.4678 39.9876 35.4678 40.0852C35.4629 40.1194 35.4336 40.0901 35.3896 40.0169C35.2822 39.8118 35.1602 39.7727 34.7988 39.8118L34.4766 39.846L34.5059 39.6848C34.5254 39.5969 34.54 39.4846 34.54 39.4358C34.54 39.3626 34.5645 39.3528 34.6865 39.3723C34.7695 39.3919 34.833 39.3967 34.833 39.3821C34.833 39.3723 34.7549 39.1819 34.6621 38.9622C34.5693 38.7424 34.4619 38.3811 34.4229 38.1614C34.3838 37.9368 34.3057 37.6389 34.2471 37.4973C34.1641 37.2776 34.1543 37.2044 34.1982 37.0481C34.2275 36.9407 34.2959 36.8333 34.3447 36.804C34.3984 36.7747 34.4766 36.6965 34.5205 36.6331C34.584 36.5354 34.5889 36.4964 34.54 36.4378C34.4863 36.3743 34.4961 36.3401 34.5645 36.3743C34.5742 36.3841 34.6182 36.345 34.6572 36.2913C34.7012 36.2376 34.7354 36.2132 34.7354 36.2424C34.7354 36.2669 34.7598 36.2571 34.7842 36.218C34.8232 36.1546 34.833 36.1594 34.833 36.2278C34.833 36.3694 34.9746 36.3303 35.0088 36.179C35.0771 35.8567 35.0967 35.8518 35.2432 36.0716C35.3604 36.2473 35.3896 36.2669 35.4287 36.2034C35.4531 36.1594 35.4629 35.969 35.4482 35.7786L35.4287 35.4319L35.5361 35.5296C35.6631 35.6516 35.7119 35.6565 35.7119 35.5589C35.7119 35.4563 35.7803 35.4661 35.8828 35.5833C36.0049 35.72 36.2979 35.8958 36.332 35.8567C36.3516 35.8421 36.3418 35.7249 36.3125 35.593L36.2588 35.3635L37.2109 36.3401C37.7383 36.8772 38.5537 37.7122 39.0273 38.1956ZM34.6377 36.0374C34.6377 36.0471 34.5791 36.1057 34.5107 36.1741C34.3887 36.2815 34.3838 36.2864 34.4375 36.1839C34.4814 36.096 34.5303 36.0569 34.6279 36.0276C34.6328 36.0227 34.6377 36.0276 34.6377 36.0374ZM33.0264 37.2092C33.0264 37.219 32.9775 37.2678 32.9189 37.3215L32.8066 37.4143L32.8994 37.302C32.9873 37.1995 33.0264 37.1702 33.0264 37.2092ZM33.9639 37.3899C33.9785 37.468 33.9688 37.5364 33.9443 37.5364C33.9248 37.5364 33.9053 37.468 33.9053 37.3899C33.9053 37.3069 33.915 37.2434 33.9248 37.2434C33.9346 37.2434 33.9541 37.3069 33.9639 37.3899ZM33.1924 37.4973C33.0947 37.6633 32.9531 37.8294 32.9141 37.8294C32.8896 37.8294 32.9434 37.7415 33.0264 37.634C33.1729 37.4485 33.2656 37.3704 33.1924 37.4973ZM34.0957 38.1467C34.0908 38.2493 33.9639 37.8489 33.959 37.7317C33.959 37.6633 33.9883 37.7122 34.0273 37.8538C34.0664 37.9856 34.0957 38.1174 34.0957 38.1467ZM32.3232 38.0491C32.2158 38.1419 32.1084 38.22 32.0791 38.22C32.0498 38.22 32.1133 38.1419 32.2207 38.0491C32.3281 37.9563 32.4404 37.8831 32.4648 37.8831C32.4941 37.8831 32.4258 37.9563 32.3232 38.0491ZM34.1934 38.4153C34.1934 38.4641 34.1787 38.4544 34.1494 38.3909C34.0908 38.259 34.0908 38.1809 34.1494 38.2688C34.1738 38.3079 34.1934 38.3762 34.1934 38.4153ZM33.9248 38.8352C33.9395 38.8743 33.9346 38.8987 33.9102 38.884C33.8857 38.8694 33.8564 38.8987 33.8418 38.9524C33.8027 39.1038 33.6611 39.0745 33.6611 38.9133C33.6611 38.8108 33.6709 38.7962 33.71 38.8548C33.7441 38.9085 33.7588 38.9085 33.7588 38.8645C33.7588 38.8303 33.7832 38.8157 33.8076 38.8303C33.8369 38.845 33.8564 38.8352 33.8564 38.8108C33.8564 38.7327 33.8906 38.7473 33.9248 38.8352ZM35.9316 41.1985C35.9463 41.2229 35.9414 41.2473 35.9121 41.2473C35.8877 41.2473 35.8486 41.2229 35.834 41.1985C35.8193 41.1692 35.8242 41.1497 35.8535 41.1497C35.8779 41.1497 35.917 41.1692 35.9316 41.1985ZM37.1865 42.3948C37.2012 42.4632 37.1963 42.5169 37.1768 42.5169C37.1182 42.5169 36.9814 42.3411 37.0156 42.3069C37.084 42.2337 37.167 42.2776 37.1865 42.3948ZM37.9775 43.0003C37.9922 43.0198 37.9482 43.0296 37.8848 43.0149C37.8164 43.0051 37.7627 42.9856 37.7627 42.9758C37.7627 42.9368 37.9531 42.9563 37.9775 43.0003ZM38.8857 43.8352C38.9443 43.8743 38.9297 43.8792 38.8271 43.8743C38.7539 43.8694 38.71 43.845 38.7197 43.8255C38.7539 43.7766 38.7979 43.7766 38.8857 43.8352ZM43.4561 45.2903C43.5439 45.3489 43.6318 45.5442 43.6025 45.6223C43.5879 45.6614 43.5977 45.6907 43.6172 45.6907C43.6416 45.6907 43.6758 45.7298 43.6904 45.7737C43.71 45.8225 43.6123 45.7542 43.4805 45.6174C43.3438 45.4856 43.2314 45.3489 43.2314 45.3147C43.2314 45.2464 43.3682 45.2317 43.4561 45.2903ZM43.2998 46.0618C43.3145 46.1008 43.3096 46.1204 43.2803 46.1057C43.251 46.0911 43.2314 46.0569 43.2314 46.0276C43.2314 45.9592 43.2656 45.9739 43.2998 46.0618ZM43.7539 46.3108C43.71 46.3548 43.6074 46.2522 43.5928 46.1497C43.583 46.0813 43.5977 46.0862 43.6855 46.1692C43.7393 46.2278 43.7734 46.2913 43.7539 46.3108ZM45.8682 46.428C45.8682 46.4524 45.8242 46.4329 45.7705 46.3889C45.7168 46.3401 45.6729 46.2815 45.6729 46.2571C45.6729 46.2327 45.7168 46.2522 45.7705 46.301C45.8242 46.3499 45.8682 46.4085 45.8682 46.428ZM43.1338 46.3499C43.168 46.3889 43.1777 46.4573 43.1631 46.5012C43.1436 46.5598 43.1533 46.5745 43.207 46.5501C43.2461 46.5354 43.2803 46.5452 43.2803 46.5696C43.2803 46.5989 43.2363 46.6184 43.1826 46.6184C43.124 46.6184 43.085 46.5891 43.0898 46.5549C43.1045 46.4426 43.0752 46.301 43.0508 46.3645C43.0264 46.428 42.9385 46.3987 42.9385 46.3206C42.9385 46.2522 43.0654 46.2669 43.1338 46.3499ZM43.6074 46.4524C43.5732 46.4866 43.4268 46.4182 43.4268 46.3694C43.4268 46.3401 43.4707 46.345 43.5293 46.3743C43.583 46.4085 43.6221 46.4426 43.6074 46.4524ZM41.0781 46.4671C41.1074 46.5159 41.1416 46.9602 41.1562 47.4534C41.166 47.9417 41.1953 48.3616 41.2197 48.386C41.2441 48.4104 41.293 48.3958 41.3271 48.3518C41.376 48.2932 41.3809 48.22 41.3369 48.0198C41.2783 47.7219 41.2588 46.7942 41.3125 46.8235C41.332 46.8333 41.4346 46.8723 41.542 46.9114C41.6982 46.97 41.752 47.0335 41.8887 47.302C42.0303 47.5901 42.0498 47.678 42.0791 48.2053C42.0986 48.5276 42.1475 49.0061 42.1914 49.2698C42.25 49.6507 42.2549 49.7874 42.2109 49.9339C42.0889 50.3538 42.1865 50.7346 42.3672 50.5344C42.4404 50.4563 42.4502 50.2903 42.4355 49.094C42.4307 48.2005 42.4453 47.7317 42.4795 47.6975C42.543 47.6292 42.9189 47.8977 42.9629 48.0393C42.9824 48.0979 43.0703 48.1516 43.2119 48.1858C43.4072 48.2346 43.4512 48.2737 43.583 48.5081C43.666 48.6546 43.7539 48.762 43.7881 48.7522C43.8174 48.7376 43.915 48.762 44.0078 48.7962C44.0957 48.8352 44.2227 48.8645 44.2861 48.8645C44.3691 48.8645 44.4473 48.9378 44.584 49.1428C44.6963 49.3089 44.8184 49.4309 44.8916 49.4553C44.96 49.4749 45.126 49.5188 45.2578 49.553C45.4482 49.6018 45.5605 49.6751 45.7803 49.8997C45.9365 50.0559 46.1025 50.1829 46.1465 50.1829C46.2051 50.1829 46.1807 50.1487 46.0781 50.0852C45.7803 49.9046 45.9121 49.929 46.249 50.1145C46.4297 50.2122 46.6543 50.3342 46.7471 50.3831C47.0352 50.5344 48.2461 50.9934 48.9492 51.2278C49.5156 51.4085 50.1064 51.6575 49.7988 51.5794C48.9248 51.3548 48.6367 51.3059 48.2119 51.3059C47.4062 51.3059 45.6729 51.2083 45.0381 51.1301C44.457 51.052 42.0693 50.9934 41.9229 51.052C41.8154 51.0911 41.957 51.1594 42.1475 51.1594C42.2305 51.1594 42.3037 51.179 42.3037 51.2083C42.3037 51.2376 42.0303 51.2571 41.5762 51.2571H40.8535L40.8193 50.095C40.7852 49.0354 40.8535 46.5159 40.917 46.4133C40.9609 46.345 41.0293 46.3694 41.0781 46.4671ZM43.7783 46.4426C43.8125 46.4231 43.8174 46.4329 43.7979 46.4622C43.7441 46.5501 43.6709 46.5305 43.6758 46.4329C43.6758 46.384 43.6904 46.3743 43.7051 46.4133C43.7148 46.4426 43.7539 46.4573 43.7783 46.4426ZM41.7178 46.6477C41.7178 46.7258 41.6738 46.7307 41.5762 46.6721C41.5371 46.6477 41.5225 46.594 41.542 46.5452C41.5664 46.4768 41.5859 46.4719 41.6445 46.5208C41.6836 46.5549 41.7178 46.6135 41.7178 46.6477ZM43.6221 46.9651C43.6221 46.9895 43.6025 47.0042 43.5781 46.9846C43.5537 46.97 43.5146 46.9846 43.4951 47.0139C43.4756 47.0481 43.4805 47.0628 43.5049 47.0481C43.5293 47.0335 43.5928 47.0383 43.6465 47.0628C43.7393 47.0969 43.7393 47.1018 43.6367 47.1018C43.5781 47.1067 43.5195 47.1262 43.5 47.1507C43.4854 47.1799 43.5195 47.1897 43.5781 47.1799C43.6611 47.1653 43.6709 47.1702 43.6221 47.2288C43.5586 47.302 43.4268 47.2776 43.4268 47.1848C43.4268 47.1555 43.4072 47.1604 43.3828 47.1995C43.3438 47.2581 43.3193 47.2532 43.2363 47.1507C43.1094 46.9993 43.1045 46.9212 43.2314 47.0335C43.4023 47.1897 43.5586 47.1653 43.417 47.0139C43.3682 46.9602 43.3682 46.9505 43.417 46.9798C43.4463 46.9993 43.4756 46.9895 43.4756 46.9651C43.4756 46.9358 43.5098 46.9114 43.5488 46.9114C43.5879 46.9114 43.6221 46.9358 43.6221 46.9651ZM43.1436 47.0921C43.1924 47.136 43.2314 47.1946 43.2314 47.2239C43.2314 47.2532 43.207 47.2434 43.1826 47.2044C43.1533 47.1555 43.1338 47.1507 43.1338 47.1897C43.1338 47.2678 43.0068 47.2727 42.9629 47.2044C42.9434 47.1751 42.9482 47.1555 42.9727 47.1604C43.0703 47.1751 43.0947 47.1507 43.0361 47.0823C42.9531 46.9846 43.0312 46.9895 43.1436 47.0921ZM42.3525 47.4046C42.3525 47.4339 42.333 47.4387 42.3037 47.4241C42.2793 47.4094 42.2549 47.3704 42.2549 47.346C42.2549 47.3167 42.2793 47.3118 42.3037 47.3264C42.333 47.3411 42.3525 47.3801 42.3525 47.4046ZM43.915 47.4973C43.915 47.5217 43.8809 47.5315 43.8418 47.5169C43.8027 47.4973 43.7686 47.4778 43.7686 47.468C43.7686 47.4583 43.8027 47.4485 43.8418 47.4485C43.8809 47.4485 43.915 47.468 43.915 47.4973ZM43.1338 47.595C43.0703 47.634 43.0752 47.6438 43.1484 47.6438C43.1924 47.6438 43.2314 47.678 43.2314 47.7171C43.2314 47.8294 43.1143 47.8049 43.0557 47.678C43.0117 47.5803 43.0215 47.5657 43.1045 47.5559C43.1875 47.551 43.1924 47.5608 43.1338 47.595ZM44.0371 48.1321C44.0811 48.2102 44.0957 48.2786 44.0762 48.2786C44.0518 48.2835 44.0908 48.3274 44.1543 48.3762C44.2178 48.4299 44.2471 48.4739 44.2275 48.4739C44.2031 48.4739 44.2178 48.4983 44.2568 48.5227C44.3105 48.5569 44.2764 48.5715 44.1348 48.5715C43.8027 48.5715 43.7734 48.5081 43.8955 48.0686C43.9297 47.9563 43.9492 47.9612 44.0371 48.1321ZM45.0039 49.1087C44.9893 49.1624 44.96 49.1917 44.9307 49.177C44.9062 49.1624 44.9111 49.1184 44.9453 49.0794C45.0234 48.9866 45.0332 48.9915 45.0039 49.1087ZM48.168 49.1428C48.2314 49.221 48.2266 49.2258 48.1533 49.1624C48.1045 49.1282 48.0654 49.0891 48.0654 49.0794C48.0654 49.0403 48.1045 49.0647 48.168 49.1428ZM29.3057 51.096C29.2568 51.1057 29.1787 51.1057 29.1348 51.096C29.0859 51.0813 29.125 51.0715 29.2178 51.0715C29.3105 51.0715 29.3496 51.0813 29.3057 51.096ZM34.6035 51.1936C34.5156 51.2034 34.3691 51.2034 34.2861 51.1936C34.1982 51.1839 34.2666 51.1741 34.4424 51.1741C34.6182 51.1741 34.6865 51.1839 34.6035 51.1936ZM32.1475 51.262C32.0254 51.2815 31.7178 51.2962 31.4639 51.2913L31 51.2864L31.4395 51.2571C31.6836 51.2424 31.9912 51.2229 32.123 51.2229H32.3672L32.1475 51.262ZM43.1338 51.4524C43.1338 51.4768 43.0801 51.5012 43.0117 51.5012C42.9434 51.5012 42.8896 51.4768 42.8896 51.4524C42.8896 51.4231 42.9434 51.4036 43.0117 51.4036C43.0801 51.4036 43.1338 51.4231 43.1338 51.4524ZM43.832 51.4378C43.7979 51.4475 43.7393 51.4475 43.71 51.4378C43.6758 51.4231 43.7002 51.4133 43.7686 51.4133C43.8369 51.4133 43.8613 51.4231 43.832 51.4378ZM26.0928 51.5012C25.9268 51.5549 25.7998 51.5549 25.9219 51.5012C25.9756 51.4768 26.0635 51.4622 26.1172 51.4622C26.1953 51.4622 26.1904 51.4719 26.0928 51.5012ZM26.5322 51.9407C26.5322 51.9651 26.5273 51.9895 26.5225 51.9895C26.5127 51.9895 26.4004 52.0237 26.2734 52.0628C26.0146 52.1409 26.0049 52.0725 26.2588 51.9602C26.4395 51.8821 26.5322 51.8772 26.5322 51.9407Z" fill="white"/>
<path d="M31.9569 24.7534C31.952 24.8315 31.9765 24.8901 32.0009 24.8901C32.0595 24.8901 32.0595 24.8511 32.0009 24.7192C31.9618 24.6313 31.9569 24.6362 31.9569 24.7534Z" fill="white"/>
<path d="M31.5519 29.27C31.586 29.2846 31.63 29.2797 31.6446 29.2651C31.6642 29.2504 31.6349 29.2358 31.5812 29.2407C31.5274 29.2407 31.5128 29.2553 31.5519 29.27Z" fill="white"/>
<path d="M36.371 36.6334C36.4247 36.6725 36.4979 36.7262 36.5321 36.7555C36.5663 36.7896 36.5907 36.7896 36.5907 36.7603C36.5907 36.7017 36.3954 36.5601 36.3222 36.5601C36.2977 36.5601 36.3173 36.5943 36.371 36.6334Z" fill="white"/>
<path d="M35.4678 37.2144C35.4678 37.2583 35.502 37.2925 35.5459 37.2925C35.5898 37.2925 35.6143 37.2681 35.6045 37.2339C35.5752 37.146 35.4678 37.1313 35.4678 37.2144Z" fill="white"/>
<path d="M34.291 37.4294C34.3496 37.5417 34.4912 37.6637 34.4912 37.6002C34.4912 37.5758 34.457 37.5075 34.413 37.4489C34.3203 37.317 34.2226 37.3024 34.291 37.4294Z" fill="white"/>
<path d="M35.4775 37.9956C35.4823 38.0444 35.5165 38.0786 35.5409 38.0786C35.6142 38.0737 35.5995 37.9614 35.5263 37.937C35.4823 37.9224 35.4628 37.9468 35.4775 37.9956Z" fill="white"/>
<path d="M34.789 38.2006C34.6572 38.3714 34.6572 38.4838 34.8037 38.6742C34.8671 38.7621 34.9697 38.9281 35.0283 39.0404C35.0869 39.1576 35.1455 39.2455 35.1552 39.2308C35.1699 39.2162 35.1259 39.0941 35.0576 38.9574C34.9208 38.6937 34.9111 38.6547 34.9697 38.6644C34.9892 38.6693 35.0429 38.6693 35.0917 38.6644C35.2333 38.6547 35.1601 38.5472 35.0087 38.5375C34.8183 38.5326 34.7646 38.4154 34.8916 38.2836C34.9648 38.2006 34.9843 38.1566 34.9453 38.1175C34.9111 38.0834 34.8623 38.1078 34.789 38.2006Z" fill="white"/>
<path d="M37.5186 38.689C37.5186 38.7524 37.626 38.9038 37.6699 38.9038C37.6992 38.9038 37.6992 38.8745 37.6699 38.811C37.6406 38.7622 37.6357 38.7085 37.6504 38.689C37.665 38.6743 37.6455 38.6597 37.6016 38.6597C37.5576 38.6597 37.5186 38.6743 37.5186 38.689Z" fill="white"/>
<path d="M35.6631 39.0602C35.6875 39.1774 35.7314 39.4459 35.7656 39.6608C35.8438 40.1881 35.9854 40.5641 36.1025 40.5641C36.1855 40.5641 36.376 40.7496 36.4932 40.9449C36.5371 41.0231 36.5469 41.0182 36.6299 40.9254L36.7227 40.818L36.8789 41.1061C37.0303 41.3795 37.1963 41.5358 37.2646 41.4674C37.3086 41.4283 36.9863 40.8131 36.708 40.3932C36.5811 40.2076 36.4053 39.9195 36.3125 39.7584L36.1416 39.4654L36.1709 39.7486C36.1904 39.9049 36.249 40.1295 36.3027 40.2516C36.3613 40.3736 36.3955 40.4859 36.376 40.5006C36.3613 40.5152 36.3711 40.5592 36.4004 40.5983C36.4443 40.6422 36.4395 40.6617 36.4004 40.6617C36.2783 40.6617 36.0586 40.2076 35.9561 39.7438C35.8291 39.192 35.7217 38.8551 35.6631 38.8551C35.6436 38.8551 35.6436 38.9479 35.6631 39.0602ZM36.4785 40.3297C36.4639 40.3688 36.4492 40.3541 36.4492 40.3004C36.4443 40.2467 36.459 40.2174 36.4736 40.2369C36.4883 40.2516 36.4932 40.2955 36.4785 40.3297Z" fill="white"/>
<path d="M39.0811 40.5393C39.0811 40.6174 39.1885 40.6858 39.2715 40.6516C39.2959 40.6467 39.2617 40.5979 39.1982 40.5491C39.0957 40.4709 39.0811 40.4709 39.0811 40.5393Z" fill="white"/>
<path d="M37.04 40.7347C37.1572 41.0228 37.5186 41.7112 37.4893 41.5892C37.4355 41.3792 37.1963 40.8567 37.0889 40.72L36.9814 40.5882L37.04 40.7347Z" fill="white"/>
<path d="M37.3282 41.0231C37.3624 41.0964 37.4014 41.1354 37.4112 41.1013C37.4258 41.0671 37.3965 41.0085 37.3477 40.9645C37.2745 40.8864 37.2696 40.8913 37.3282 41.0231Z" fill="white"/>
<path d="M38.3243 41.5405C38.3096 41.5649 38.3194 41.5894 38.3438 41.5894C38.3731 41.5894 38.3975 41.5649 38.3975 41.5405C38.3975 41.5112 38.3877 41.4917 38.378 41.4917C38.3633 41.4917 38.3389 41.5112 38.3243 41.5405Z" fill="white"/>
<path d="M37.3721 41.8775C37.3721 41.9556 37.5674 42.1656 37.665 42.19C37.8066 42.2242 37.7871 42.1705 37.6016 41.9898C37.4404 41.8336 37.3721 41.7994 37.3721 41.8775Z" fill="white"/>
<path d="M39.9111 42.2485C39.9111 42.2827 40.1211 42.4683 40.165 42.4683C40.1895 42.4683 40.1699 42.4146 40.126 42.3462C40.0576 42.2437 39.9111 42.1753 39.9111 42.2485Z" fill="white"/>
<path d="M41.0196 42.4048C40.9659 42.4927 41.0343 42.6148 41.1856 42.6881C41.3761 42.7857 41.3907 42.7808 41.2638 42.649C41.2052 42.5855 41.1319 42.4927 41.1026 42.4439C41.0685 42.3853 41.0392 42.3707 41.0196 42.4048Z" fill="white"/>
<path d="M38.4951 42.561C38.4951 42.6489 38.7832 42.9077 38.8809 42.9077C39.0322 42.9077 39.0078 42.8345 38.8027 42.6685C38.6221 42.5171 38.4951 42.4731 38.4951 42.561Z" fill="white"/>
<path d="M39.5254 42.6731C39.4619 42.8489 39.5254 43.0198 39.6914 43.1321C39.8575 43.2395 39.9063 43.1809 39.7647 43.0295C39.7061 42.9661 39.667 42.8831 39.6817 42.8489C39.6963 42.8098 39.6768 42.7268 39.6426 42.6585L39.5791 42.5413L39.5254 42.6731Z" fill="white"/>
<path d="M42.8651 43.0005C42.8505 43.0249 42.8602 43.0591 42.8895 43.0786C42.914 43.0933 42.9384 43.0737 42.9384 43.0347C42.9384 42.9468 42.9091 42.9321 42.8651 43.0005Z" fill="white"/>
<path d="M42.5479 43.3472C42.6065 43.4644 42.6847 43.5425 42.7335 43.5425C42.7872 43.5425 42.797 43.5278 42.7628 43.5034C42.7335 43.4839 42.67 43.396 42.6261 43.3081C42.5821 43.2251 42.5235 43.1519 42.4991 43.1519C42.4698 43.1519 42.4942 43.2397 42.5479 43.3472Z" fill="white"/>
<path d="M40.8486 43.4009C40.8584 43.4351 40.8974 43.4741 40.9316 43.4839C40.9707 43.4986 40.9902 43.479 40.9756 43.44C40.9658 43.4058 40.9267 43.3667 40.8926 43.357C40.8535 43.3423 40.834 43.3618 40.8486 43.4009Z" fill="white"/>
<path d="M43.085 43.9284C43.085 43.9528 43.1387 44.0065 43.207 44.0505C43.3291 44.1286 43.3291 44.1286 43.2705 44.0065C43.2168 43.8893 43.085 43.8356 43.085 43.9284Z" fill="white"/>
<path d="M40.375 43.9869C40.3506 44.026 40.3946 44.0992 40.4922 44.1871C40.7657 44.4312 40.8438 44.3433 40.5752 44.0846C40.458 43.9674 40.3994 43.943 40.375 43.9869Z" fill="white"/>
<path d="M43.3877 44.0552C43.4023 44.1187 43.3926 44.1821 43.373 44.187C43.2949 44.2163 43.3877 44.4214 43.4805 44.4214C43.5879 44.4214 43.6074 44.2505 43.5146 44.0552C43.4463 43.8989 43.3584 43.894 43.3877 44.0552Z" fill="white"/>
<path d="M41.3271 44.0114C41.3271 44.0309 41.4004 44.1335 41.4883 44.2458C41.5811 44.3581 41.6885 44.5094 41.7324 44.5924C41.8105 44.7389 41.8105 44.7389 41.8154 44.6169C41.8154 44.4753 41.6836 44.2604 41.4932 44.0993C41.3516 43.9772 41.3271 43.9626 41.3271 44.0114Z" fill="white"/>
<path d="M41.874 44.0404C41.8984 44.1136 42.0107 44.1527 42.0107 44.0892C42.0107 44.0648 41.9766 44.0257 41.9326 44.0111C41.8838 43.9915 41.8643 44.0062 41.874 44.0404Z" fill="white"/>
<path d="M40.3945 44.6022C40.5849 44.8561 40.6191 44.8952 40.7265 44.9489C40.9267 45.0563 40.9072 45.0075 40.6435 44.7389C40.3603 44.4557 40.2285 44.3825 40.3945 44.6022Z" fill="white"/>
<path d="M46.1611 51.062C46.1611 51.0864 46.1953 51.1108 46.2344 51.1108C46.2734 51.1108 46.3076 51.0864 46.3076 51.062C46.3076 51.0327 46.2734 51.0132 46.2344 51.0132C46.1953 51.0132 46.1611 51.0327 46.1611 51.062Z" fill="white"/>
<path d="M31.7568 22.4976C31.7568 22.522 31.7812 22.5464 31.8105 22.5464C31.835 22.5464 31.8447 22.522 31.8301 22.4976C31.8154 22.4683 31.791 22.4487 31.7764 22.4487C31.7666 22.4487 31.7568 22.4683 31.7568 22.4976Z" fill="white"/>
<path d="M34.2177 23.8209C34.2031 23.8502 34.208 23.8942 34.2275 23.9137C34.2861 23.9723 34.4131 23.8893 34.374 23.8209C34.3301 23.7526 34.2617 23.7526 34.2177 23.8209Z" fill="white"/>
<path d="M35.4433 24.8901C35.4042 24.9536 35.4628 25.0464 35.5214 25.0122C35.58 24.9731 35.58 24.8413 35.5214 24.8413C35.4921 24.8413 35.458 24.8608 35.4433 24.8901Z" fill="white"/>
<path d="M35.6972 26.0476C35.6875 26.072 35.663 26.1501 35.6435 26.2282C35.6093 26.3601 35.6142 26.365 35.7509 26.3406C35.8681 26.3161 35.8974 26.3308 35.9414 26.4577C36.0146 26.6433 36.1464 26.6384 36.288 26.4382C36.3906 26.2917 36.3906 26.2771 36.3125 26.2185C36.2392 26.1648 36.0976 26.1404 35.9169 26.1452C35.8681 26.1501 35.8681 26.1355 35.9121 26.0818C35.956 26.0281 35.9462 26.0134 35.8437 26.0134C35.7753 26.0134 35.707 26.0281 35.6972 26.0476Z" fill="white"/>
<path d="M36.7423 29.3776C36.6348 29.4655 36.5958 29.524 36.6299 29.5485C36.6641 29.568 36.6885 29.5533 36.6885 29.5192C36.6885 29.485 36.7423 29.4313 36.8106 29.402C36.9229 29.3483 36.9278 29.3483 36.8497 29.4606C36.7667 29.5875 36.7911 29.6071 36.9376 29.5289C37.045 29.4703 37.0596 29.3678 36.9669 29.2946C36.9229 29.2555 36.8643 29.2799 36.7423 29.3776Z" fill="white"/>
<path d="M36.0878 30.4225C36.0487 30.5201 36.1317 30.6227 36.2196 30.5885C36.3319 30.5446 36.3222 30.359 36.205 30.359C36.1562 30.359 36.1024 30.3883 36.0878 30.4225Z" fill="white"/>
<path d="M36.835 31.8677C36.835 31.8873 36.7812 31.9605 36.7178 32.024C36.6348 32.107 36.5957 32.2095 36.5811 32.3609L36.5664 32.5757L36.7617 32.6148C36.9131 32.6392 37.001 32.6246 37.167 32.5416C37.3721 32.4341 37.4111 32.3902 37.3281 32.3414C37.3037 32.3267 37.2939 32.2681 37.3086 32.2193C37.3525 32.0484 37.2158 32.0484 37.0742 32.2193C37.001 32.3121 36.9277 32.3707 36.9082 32.356C36.8936 32.3365 36.9375 32.2584 37.0059 32.1754C37.1133 32.0484 37.123 32.0045 37.0791 31.9215C37.0303 31.8287 36.835 31.7798 36.835 31.8677Z" fill="white"/>
<path d="M38.3095 32.5269C38.3144 32.5757 38.3486 32.6099 38.373 32.6099C38.4462 32.605 38.4316 32.4927 38.3583 32.4683C38.3144 32.4536 38.2948 32.478 38.3095 32.5269Z" fill="white"/>
<path d="M37.8358 33.772C37.8212 33.7964 37.8309 33.8306 37.8602 33.8501C37.8847 33.8648 37.9091 33.8452 37.9091 33.8062C37.9091 33.7183 37.8798 33.7036 37.8358 33.772Z" fill="white"/>
<path d="M50.9072 45.2907C50.6972 45.4079 50.5752 45.5983 50.624 45.7253C50.6679 45.8327 50.7363 45.7985 50.9463 45.5446C51.2099 45.2321 51.1953 45.1345 50.9072 45.2907Z" fill="white"/>
<path d="M52.582 45.9205C52.5039 45.9596 52.3721 46.0573 52.289 46.1305C52.1133 46.2916 51.3369 46.7116 51.0683 46.7897C50.9609 46.8239 50.8681 46.8825 50.8584 46.9313C50.8291 47.0778 51.0195 47.0143 51.4883 46.7262C51.7422 46.57 52.1035 46.3502 52.289 46.2379C52.709 45.9889 52.9043 45.8375 52.8017 45.8424C52.7627 45.8424 52.665 45.8766 52.582 45.9205Z" fill="white"/>
<path d="M22.2402 47.3363C22.2646 47.4145 22.3427 47.5365 22.4111 47.6195C22.5282 47.7611 22.5331 47.7611 22.4989 47.6439C22.4599 47.4828 22.289 47.2045 22.2353 47.2045C22.2109 47.2045 22.2109 47.2631 22.2402 47.3363Z" fill="white"/>
<path d="M20.5264 47.5757C20.5264 47.5903 20.5703 47.6636 20.624 47.7319C20.6826 47.8052 20.8145 47.981 20.9219 48.1177C21.0293 48.2593 21.1465 48.3765 21.1855 48.3765C21.2881 48.3765 21.2783 48.3374 21.127 48.1372C20.8242 47.7368 20.5264 47.4585 20.5264 47.5757Z" fill="white"/>
<path d="M25.8096 47.7903C25.8096 47.8587 25.8193 47.8831 25.834 47.8489C25.8438 47.8196 25.8438 47.761 25.834 47.7268C25.8193 47.6976 25.8096 47.722 25.8096 47.7903Z" fill="white"/>
<path d="M38.7393 48.0835C38.7393 48.1616 38.7637 48.23 38.7881 48.23C38.8174 48.23 38.8369 48.1616 38.8369 48.0835C38.8369 48.0005 38.8174 47.937 38.7881 47.937C38.7637 47.937 38.7393 48.0005 38.7393 48.0835Z" fill="white"/>
<path d="M24.9893 49.3874C25.0088 49.6267 25.0479 49.8366 25.0723 49.861C25.126 49.9196 25.1309 49.7585 25.082 49.2898C25.0674 49.1091 25.0332 48.9626 25.0039 48.9626C24.9746 48.9626 24.9697 49.1189 24.9893 49.3874Z" fill="white"/>
<path d="M36.835 49.1577C36.835 49.2651 36.8594 49.353 36.8838 49.353C36.9131 49.353 36.9326 49.2651 36.9326 49.1577C36.9326 49.0503 36.9131 48.9624 36.8838 48.9624C36.8594 48.9624 36.835 49.0503 36.835 49.1577Z" fill="white"/>
<path d="M38.8222 49.0796C38.8076 49.1138 38.7783 49.2456 38.7636 49.3726C38.7343 49.5581 38.7441 49.602 38.8124 49.6265C38.9492 49.6802 38.9931 49.5776 38.9589 49.2847C38.9248 49.021 38.8759 48.9429 38.8222 49.0796Z" fill="white"/>
<path d="M26.5372 49.1284C26.4981 49.1724 26.4835 49.2212 26.503 49.2407C26.5469 49.2847 26.6446 49.1773 26.6202 49.1089C26.6104 49.0698 26.5811 49.0747 26.5372 49.1284Z" fill="white"/>
<path d="M22.5186 49.1333C22.5039 49.1479 22.5039 49.2163 22.5186 49.2846C22.5479 49.436 22.6504 49.4116 22.6504 49.2554C22.6504 49.1479 22.5771 49.0796 22.5186 49.1333Z" fill="white"/>
<path d="M25.6437 49.1627C25.5216 49.231 25.4484 49.3873 25.4825 49.4996C25.5265 49.6363 25.59 49.6216 25.6778 49.4459C25.7804 49.2505 25.7609 49.0943 25.6437 49.1627Z" fill="white"/>
<path d="M21.1612 49.4996C21.5274 49.8414 21.6641 49.9146 21.8008 49.8414C22.0108 49.7291 21.8497 49.5484 21.4249 49.4215C21.2979 49.3824 21.1417 49.3189 21.0782 49.2799C20.8243 49.109 20.8682 49.231 21.1612 49.4996Z" fill="white"/>
<path d="M20.1358 49.5774C20.0821 49.636 20.087 49.6653 20.1505 49.7336C20.2286 49.8069 20.2481 49.8069 20.4483 49.7336C20.6436 49.6604 20.668 49.6604 20.7413 49.7336C20.7852 49.7776 20.8194 49.7922 20.8194 49.7629C20.8194 49.6897 20.4581 49.4993 20.3165 49.4993C20.253 49.4993 20.17 49.5334 20.1358 49.5774Z" fill="white"/>
<path d="M51.7275 49.5483C51.7275 49.5972 51.9814 49.7437 52.0693 49.7437C52.0938 49.7437 52.1182 49.7192 52.1182 49.6948C52.1182 49.6655 52.0889 49.646 52.0498 49.646C52.0156 49.646 51.957 49.6118 51.9229 49.5728C51.8545 49.4897 51.7275 49.4751 51.7275 49.5483Z" fill="white"/>
<path d="M36.8643 49.6704C36.8496 49.7144 36.835 49.8169 36.835 49.895C36.835 50.0024 36.8594 50.0366 36.9326 50.0366C37.0596 50.0366 37.1084 49.9146 37.0498 49.7534C36.9961 49.6021 36.9082 49.563 36.8643 49.6704Z" fill="white"/>
<path d="M53.0703 49.8314C52.7236 49.973 52.6309 50.0316 52.6309 50.1098C52.6309 50.1879 52.6699 50.2123 52.8018 50.2221C52.9385 50.2318 53.0117 50.1976 53.1484 50.0756C53.2461 49.9877 53.3975 49.8558 53.4902 49.7826C53.7197 49.6019 53.5928 49.6166 53.0703 49.8314Z" fill="white"/>
<path d="M17.919 50.0708C17.8506 50.1392 17.8946 50.2808 17.9824 50.2808C18.0801 50.2808 18.2119 50.1538 18.1485 50.1196C18.0508 50.0708 17.9434 50.0464 17.919 50.0708Z" fill="white"/>
<path d="M54.54 50.5786C53.9785 50.8716 53.3877 50.9058 51.874 50.7251C51.3711 50.6616 49.9209 50.603 49.9209 50.6421C49.9209 50.6616 49.999 50.8276 50.0918 51.0132L50.2627 51.355L50.668 51.3647C50.8877 51.3696 51.21 51.3696 51.3857 51.3599C51.5615 51.355 51.6836 51.3647 51.6641 51.3843C51.6445 51.4038 51.3369 51.4331 50.9854 51.4478C50.375 51.4771 50.3457 51.4819 50.4287 51.5601C50.4971 51.6284 50.5996 51.6479 50.9365 51.6479C51.293 51.6479 51.4395 51.6772 51.8496 51.8188C52.4502 52.0239 52.5039 52.0288 52.1914 51.8384L51.9473 51.6919L52.2402 51.7114C52.8164 51.7603 53.7588 51.897 53.9688 51.9653C54.2617 52.063 54.7354 52.063 54.7744 51.9653C54.7939 51.9067 54.7695 51.897 54.6133 51.9214C54.4766 51.9409 54.3398 51.9214 54.1396 51.8433C53.9248 51.7651 53.71 51.731 53.3145 51.7114C53.0215 51.7017 52.6455 51.6577 52.4844 51.6235C52.3232 51.5845 52.1377 51.5454 52.0693 51.5308C52.001 51.521 52.1133 51.5112 52.3135 51.5063C52.8896 51.4917 53.1924 51.4673 53.5342 51.4087C53.9346 51.3354 54.6133 51.2622 55.1162 51.228C55.3311 51.2183 55.6289 51.1694 55.7754 51.1255C56.0781 51.0376 56.3271 51.0327 56.9668 51.0815C57.2256 51.106 57.3916 51.1011 57.3916 51.0718C57.3916 50.9985 56.7568 50.9155 56.2002 50.9155C55.7461 50.9155 55.6875 50.9058 55.7168 50.8374C55.7412 50.769 55.7168 50.7593 55.5557 50.7837C55.0283 50.8667 54.7891 50.8813 54.8232 50.8276C54.8428 50.7983 54.9307 50.7593 55.0234 50.7397C55.1846 50.7104 55.2627 50.6226 55.1357 50.6226C55.0918 50.6226 55.0967 50.6079 55.1455 50.5737C55.2383 50.5151 55.1943 50.4761 54.9941 50.4517C54.8721 50.4321 54.75 50.4663 54.54 50.5786Z" fill="white"/>
<path d="M23.0459 51.7408C23.0263 51.775 23.0215 51.8141 23.0361 51.8287C23.0801 51.8727 23.1289 51.8092 23.1045 51.7408C23.0849 51.6871 23.0752 51.6871 23.0459 51.7408Z" fill="white"/>
<path d="M47.626 51.8677C47.626 51.9117 47.6504 51.941 47.6797 51.9312C47.709 51.9215 47.7334 51.8922 47.7334 51.8677C47.7334 51.8433 47.709 51.814 47.6797 51.8043C47.6504 51.7945 47.626 51.8238 47.626 51.8677Z" fill="white"/>
<path d="M48.7002 51.892C48.7002 51.9213 48.7637 52.0141 48.8467 52.0971C49.0664 52.3119 49.2959 52.224 49.1055 51.9994C49.0029 51.8774 48.7002 51.7944 48.7002 51.892Z" fill="white"/>
<path d="M50.8291 51.9312C50.7851 51.9996 50.9316 52.1021 51.0244 52.0679C51.0634 52.0533 51.0927 52.0093 51.083 51.9751C51.0537 51.9019 50.8681 51.8677 50.8291 51.9312Z" fill="white"/>
<path d="M27.7774 52.0823C27.7286 52.1702 27.8604 52.1946 27.9385 52.1165C28.0118 52.0433 28.0118 52.0384 27.9141 52.0384C27.8555 52.0384 27.7969 52.0579 27.7774 52.0823Z" fill="white"/>
<path d="M46.2149 52.3707C46.0098 52.7125 45.9658 52.8444 46.0781 52.8102C46.1367 52.7907 46.5518 52.151 46.5518 52.0778C46.5518 52.0582 46.5225 52.0387 46.4834 52.0387C46.4492 52.0387 46.3272 52.1901 46.2149 52.3707Z" fill="white"/>
<path d="M51.6299 52.2096C51.6299 52.3024 51.9082 52.444 52.0107 52.405C52.084 52.3757 52.0742 52.3561 51.957 52.2536C51.8057 52.1218 51.6299 52.0973 51.6299 52.2096Z" fill="white"/>
<path d="M21.9669 53.0494C21.9083 53.1031 21.9034 53.1422 21.9425 53.1813C21.9962 53.235 22.1427 53.1764 22.172 53.0787C22.2013 52.9908 22.045 52.9664 21.9669 53.0494Z" fill="white"/>
<path d="M23.3096 53.0737C23.1631 53.1274 22.7236 53.5474 22.7236 53.6353C22.7236 53.8061 23.1289 53.5522 23.3389 53.2544C23.4902 53.0347 23.4854 53.0054 23.3096 53.0737Z" fill="white"/>
<path d="M24.164 53.3081C24.1494 53.3325 24.1689 53.3569 24.208 53.3569C24.2471 53.3569 24.2959 53.3325 24.3105 53.3081C24.3252 53.2788 24.3056 53.2593 24.2666 53.2593C24.2275 53.2593 24.1787 53.2788 24.164 53.3081Z" fill="white"/>
</g>
<defs>
<clipPath id="clip0_734_123">
<rect width="50" height="50" fill="white" transform="translate(10.6143 9.99756)"/>
</clipPath>
</defs>
</svg>
