<svg width="72" height="71" viewBox="0 0 72 71" fill="none" xmlns="http://www.w3.org/2000/svg">
<path d="M32.8062 0.16605C32.5262 0.39005 32.6242 1.31405 32.9182 1.20205C33.0162 1.16005 33.3242 1.09005 33.5902 1.03405C34.2342 0.92205 34.3042 0.78205 33.9962 0.34805C33.7162 -0.0299499 33.1702 -0.11395 32.8062 0.16605Z" fill="black"/>
<path d="M40.3522 0.824028C40.1282 0.964027 39.6942 1.13203 39.3722 1.18803C38.8962 1.27203 38.8402 1.30003 39.0642 1.39803C39.3302 1.49603 39.3162 1.51003 38.9942 1.58003C38.7982 1.62203 38.3082 1.70603 37.8882 1.74803C37.2022 1.83203 37.1042 1.80403 36.8382 1.48203C36.6702 1.30003 36.3202 1.10403 36.0542 1.04803C35.6482 0.964027 35.5922 0.978027 35.7462 1.13203C36.2362 1.65003 35.5642 1.88803 34.9342 1.39803C34.5982 1.14603 34.5842 1.14603 34.3042 1.39803C34.0802 1.59403 33.6322 1.69203 32.1762 1.80403C31.1682 1.90203 30.0342 2.05603 29.6562 2.16803C28.7322 2.44803 28.7182 2.42003 29.5862 2.02803C30.0202 1.83203 30.3142 1.60803 30.3142 1.46803C30.3142 1.23003 30.2162 1.18803 29.4462 1.04803C28.9562 0.978027 28.9142 0.992027 28.9142 1.31403C28.9142 1.55203 28.7602 1.76203 28.4662 1.97203C28.2142 2.14003 27.9762 2.30803 27.9482 2.33603C27.9202 2.35003 27.9762 2.63003 28.0742 2.95203C28.2422 3.45603 28.3122 3.51203 28.6482 3.47003C28.8722 3.42803 28.9982 3.47003 28.9562 3.54003C28.8022 3.80603 27.9202 4.05803 27.2062 4.05803C26.4782 4.04403 26.4642 4.04403 26.8842 3.86203L27.3042 3.68003L26.7862 3.42803C26.3522 3.21803 26.1982 3.20403 25.8902 3.34403C25.4562 3.54003 25.3022 3.45603 25.5542 3.14803C25.6522 3.02203 25.7082 2.91003 25.6802 2.88203C25.6102 2.82603 22.0822 3.84803 20.3742 4.40804C18.7362 4.94003 16.6782 6.01803 15.7822 6.80203C15.0402 7.44603 14.9982 7.62803 15.5442 7.72603C15.6982 7.75403 15.8242 7.83803 15.8242 7.90803C15.8382 7.99203 15.8942 8.20203 15.9502 8.38403L16.0622 8.72003L16.2442 8.28603C16.4682 7.76803 16.8602 7.50203 17.9242 7.12403C18.7922 6.81603 19.0022 6.85803 18.6522 7.23603C18.4002 7.53003 17.9382 8.66403 17.7842 9.37803L17.6862 9.86803L18.1062 9.30803C18.3302 9.00003 18.9042 8.38403 19.3802 7.95003C20.0942 7.27803 20.2342 7.06803 20.2482 6.64803C20.2622 6.38203 20.2762 6.07403 20.2902 5.97603C20.3182 5.57003 21.2842 5.30403 21.6062 5.62603C21.7322 5.75203 21.6202 5.94803 21.1442 6.45203C20.7942 6.83003 20.5142 7.23603 20.5142 7.36203C20.5142 7.53003 20.6822 7.41803 21.0742 6.99803C21.5362 6.49403 21.6762 6.42403 21.9982 6.49403C22.4182 6.60603 22.8942 6.32603 22.5862 6.14403C22.4882 6.08803 22.4462 6.00403 22.4742 5.97603C22.7822 5.73803 24.7002 4.61803 24.8262 4.61803C25.0642 4.61803 25.1762 5.20603 25.0082 5.61203C24.9382 5.82203 24.6302 6.10203 24.3362 6.25603C24.0422 6.41003 23.3142 6.78803 22.7122 7.11003C21.8582 7.57203 21.4802 7.69803 20.9342 7.69803C20.3462 7.69803 20.2342 7.74003 20.2342 7.96403C20.2342 8.10403 20.3322 8.30003 20.4442 8.39803C20.5562 8.49603 20.6542 8.65003 20.6542 8.76203C20.6542 9.04203 19.9402 9.49003 19.1702 9.67203C18.7922 9.77003 17.9942 10.078 17.4062 10.386C16.6362 10.764 16.3142 10.862 16.3142 10.722C16.3142 10.624 16.4682 10.106 16.6782 9.58803C16.8742 9.05603 17.0142 8.46803 16.9862 8.27203C16.9162 7.68403 16.5522 7.83803 16.3142 8.56603C16.1462 9.11203 16.0622 9.21003 15.8242 9.15403C15.6702 9.11203 15.3062 9.18203 15.0122 9.30803C14.7322 9.42003 14.4942 9.47603 14.4942 9.42003C14.4942 9.36403 14.7322 9.07003 15.0122 8.76203L15.5442 8.21603L14.7042 8.80403C14.2422 9.14003 13.3042 9.78403 12.6042 10.26C11.3862 11.086 9.7342 12.584 9.7342 12.836C9.7342 12.906 9.9162 12.948 10.1542 12.906C10.7702 12.822 10.7002 13.116 9.8042 14.208C9.3842 14.712 9.0342 15.174 9.0342 15.202C9.0342 15.328 9.1882 15.244 9.6502 14.838C9.9302 14.586 10.1682 14.474 10.2242 14.544C10.2662 14.628 9.5662 15.426 8.6702 16.308C7.0602 17.918 7.0462 17.946 7.1442 18.45C7.2562 19.038 7.4942 19.388 7.4942 18.954C7.4942 18.142 8.1102 16.798 8.4882 16.798C8.6982 16.798 8.6282 17.246 8.1102 19.262C7.8302 20.34 7.5642 21.712 7.5082 22.328L7.4242 23.448L6.9062 22.608C6.6122 22.146 6.3742 21.866 6.3742 21.992C6.3742 22.118 6.0242 22.65 5.6042 23.168C5.1842 23.672 4.8342 24.12 4.8342 24.148C4.8342 24.162 4.7362 24.414 4.6242 24.694C4.5122 24.974 4.4422 25.198 4.4702 25.198C4.4982 25.198 4.7362 24.876 4.9882 24.47L5.4502 23.756L5.6322 24.162C5.8842 24.75 5.8562 25.226 5.4642 27.298C5.1142 29.188 5.0442 30.364 5.2542 30.868C5.3662 31.12 5.3802 31.12 5.3802 30.784C5.3942 30.336 5.7162 29.888 5.9262 30.014C6.1362 30.14 6.1362 30.994 5.9402 31.904C5.7302 32.898 5.4782 33.01 5.5622 32.058L5.6322 31.33L5.1702 31.4C4.6102 31.498 4.6102 31.484 4.4702 29.608C4.4282 28.838 4.3302 28.068 4.2602 27.886C4.0782 27.41 3.7422 27.508 3.6302 28.068C3.5042 28.782 3.6582 29.664 4.2742 31.568C4.8762 33.444 5.0722 34.298 4.8762 34.298C4.8062 34.298 4.5542 34.032 4.3022 33.71C3.8262 33.094 3.7562 33.136 4.0082 33.85C4.0922 34.088 4.2322 34.27 4.3162 34.256C4.4282 34.242 4.4842 34.592 4.4842 35.46C4.4842 36.132 4.4562 36.678 4.4142 36.678C4.3722 36.678 4.1342 36.552 3.8962 36.398L3.4342 36.118L3.4482 36.51C3.4622 37.294 3.6442 38.148 3.7842 38.106C3.9522 38.05 4.7082 41.004 5.1422 43.426C5.3242 44.392 5.5062 45.134 5.5482 45.05C5.6602 44.868 6.0242 45.526 6.1642 46.184C6.3322 46.94 6.5002 46.408 6.4302 45.358L6.3742 44.448L6.5842 45.218C6.7102 45.638 6.8642 46.66 6.9342 47.486C7.0042 48.326 7.1442 49.292 7.2282 49.656L7.3962 50.3L7.6482 49.992L7.9002 49.684L8.0962 50.16C8.5302 51.196 8.5442 51.28 8.1662 51.21L7.8162 51.14L8.1382 51.63C8.3202 51.896 8.4742 52.26 8.4742 52.428C8.4742 52.708 8.9922 53.338 9.2162 53.338C9.2722 53.338 9.2862 53.17 9.2302 52.96C9.1882 52.736 9.4402 53.086 9.7902 53.716C10.1402 54.36 10.4342 55.018 10.4342 55.2C10.4342 55.858 11.0502 56.754 12.1142 57.608C12.6882 58.084 13.2342 58.602 13.3182 58.77C13.4722 59.078 15.4882 60.996 16.9302 62.186C17.9802 63.068 19.8702 64.328 21.2562 65.098C21.9002 65.448 22.2922 65.742 22.1942 65.798C22.0402 65.896 26.2262 68.29 27.6962 68.934C29.2922 69.634 30.6922 69.998 31.7982 69.998C32.3582 69.998 32.8342 69.956 32.8342 69.914C32.8342 69.872 32.7642 69.718 32.6942 69.564C32.5962 69.382 32.5962 69.298 32.6942 69.298C32.7642 69.298 32.8342 69.186 32.8342 69.046C32.8342 68.822 33.0582 68.808 35.6622 68.808C38.7142 68.808 40.3242 68.612 42.9422 67.968C43.7262 67.772 44.3842 67.618 44.3982 67.618C44.4262 67.618 44.4542 67.912 44.4542 68.29C44.4542 69.102 44.7482 69.578 45.2522 69.578H45.6162L45.2242 69.214C44.9022 68.92 44.8462 68.78 44.9162 68.36C45.0142 67.8 45.3222 67.408 45.8822 67.114C46.2462 66.918 46.2742 66.932 46.2742 67.184C46.2742 67.73 46.6802 67.758 48.7382 67.394C49.8022 67.212 50.8522 67.016 51.0762 66.974C51.4122 66.89 51.4542 66.918 51.4542 67.254C51.4542 67.674 51.4822 67.688 52.3782 67.408C52.7562 67.296 53.0782 67.198 53.1062 67.198C53.1202 67.198 53.1342 67.422 53.1342 67.688C53.1342 67.996 53.0502 68.22 52.8962 68.304C52.7562 68.388 52.7002 68.458 52.7562 68.458C52.9522 68.458 53.7222 67.87 53.6382 67.8C53.5962 67.758 53.6942 67.534 53.8482 67.324L54.1282 66.918H53.5122C53.1622 66.918 52.7002 66.876 52.4622 66.834C52.0842 66.764 52.0422 66.708 52.1542 66.484C52.2382 66.344 52.2942 66.022 52.2942 65.77V65.294L53.3582 65.392L54.4222 65.504L54.8422 65.028C55.0662 64.762 55.7382 64.286 56.3262 63.95C56.9142 63.628 57.6282 63.138 57.8802 62.872C58.1462 62.592 58.3142 62.466 58.2442 62.578C58.1742 62.704 58.2442 62.69 58.4262 62.522C58.7762 62.228 58.8602 62.018 58.5242 62.298C58.3702 62.424 58.3142 62.424 58.3142 62.312C58.3142 62.228 58.4122 62.116 58.5242 62.074C58.6362 62.018 58.7342 61.878 58.7342 61.738C58.7342 61.612 58.9162 61.248 59.1542 60.926L59.5602 60.352L58.8182 60.618C58.1602 60.842 56.4242 61.178 55.9202 61.178C55.8222 61.178 55.9482 60.954 56.2142 60.688C56.5782 60.31 56.7322 60.24 56.9282 60.352C57.1382 60.464 57.2642 60.38 57.6282 59.89C57.8662 59.554 58.1882 59.036 58.3422 58.728C58.6362 58.154 60.0082 56.236 60.4002 55.858C60.5262 55.732 61.0302 55.144 61.5342 54.528C62.0382 53.912 62.8782 52.904 63.4102 52.288C64.6562 50.832 66.2242 48.452 67.1342 46.646C67.7082 45.484 67.9042 45.204 68.1142 45.26C68.3382 45.316 68.3662 45.204 68.4222 44.364C68.4502 43.846 68.5202 43.37 68.5622 43.328C68.6182 43.272 68.8002 43.328 68.9822 43.454C69.6122 43.902 69.6962 43.776 69.5842 42.586C69.4442 41.074 69.4582 40.108 69.6402 39.8C69.7242 39.66 69.7942 39.618 69.7942 39.716C69.7942 39.926 70.3122 40.22 70.4942 40.108C70.5782 40.052 70.4802 39.73 70.2842 39.324C69.9902 38.764 69.9622 38.638 70.1442 38.638C70.2702 38.638 70.4802 38.372 70.6342 38.022C70.7742 37.686 70.9562 37.392 71.0402 37.364C71.1242 37.322 71.0262 36.678 70.7742 35.572C70.2702 33.5 70.2562 33.234 70.6482 33.136C70.9142 33.066 70.9282 33.094 70.8442 33.556C70.7882 33.906 70.8162 34.088 70.9422 34.172C71.5302 34.55 71.6282 34.074 71.1942 32.814C71.0262 32.366 70.9002 31.694 70.9002 31.344C70.8862 30.728 70.8722 30.7 70.5362 30.77L70.1722 30.84L70.2142 28.964C70.2842 26.108 70.2842 26.094 69.8082 25.814C69.4582 25.618 69.3182 25.324 68.8982 23.994C68.2822 22.09 67.2602 19.78 66.3782 18.296C66.0282 17.694 65.7342 17.106 65.7342 17.008C65.7342 16.91 65.4682 16.518 65.1322 16.154C64.8102 15.776 64.1662 14.992 63.7042 14.418C62.5702 12.99 60.4562 10.904 59.0002 9.77003C57.9082 8.91603 55.1502 7.08203 54.7722 6.95603C54.6882 6.92803 54.8422 6.63403 55.1502 6.25603C55.7382 5.54203 55.7662 5.12203 55.2622 4.78603C54.9402 4.57603 54.9402 4.57603 55.1082 4.94003C55.2482 5.24803 55.2342 5.37403 55.0382 5.65403C54.7022 6.17203 54.2962 6.34003 53.6522 6.24203C53.3302 6.18603 53.0082 6.08803 52.9242 6.03203C52.8542 5.96203 52.5462 5.83603 52.2522 5.73803C51.7622 5.58403 51.7342 5.55603 51.9302 5.33203C52.0562 5.19203 52.1542 5.01003 52.1542 4.92603C52.1542 4.59003 51.2722 3.79203 50.0262 2.96603C48.6122 2.04203 48.1922 1.97203 47.7022 2.58803L47.4502 2.89603L46.7782 2.11203C46.1062 1.34203 46.0782 1.32803 45.3082 1.31403C44.8742 1.31403 44.1182 1.17403 43.6142 1.02003C43.1102 0.866028 42.2702 0.698029 41.7242 0.642029C40.9122 0.586029 40.6742 0.614029 40.3522 0.824028ZM41.0522 0.782028C41.0102 0.824028 40.8842 0.838028 40.7862 0.796028C40.6742 0.754028 40.7162 0.712029 40.8702 0.712029C41.0242 0.698029 41.1082 0.740028 41.0522 0.782028ZM51.0062 5.01003C51.2022 5.30403 51.2022 5.31803 50.7682 5.16403C50.3342 5.01003 50.2502 4.89803 50.4322 4.70203C50.5722 4.56203 50.7822 4.67403 51.0062 5.01003ZM13.6262 10.386C13.5142 10.568 13.1502 11.184 12.8142 11.758C12.4782 12.332 12.1842 12.822 12.1702 12.85C12.1562 12.878 11.9882 12.822 11.8202 12.724L11.4982 12.556L11.8762 12.262C12.0862 12.094 12.2542 11.898 12.2542 11.828C12.2542 11.674 13.6262 10.078 13.7522 10.078C13.7942 10.078 13.7382 10.218 13.6262 10.386ZM11.4142 18.576C11.2602 18.814 11.2602 18.814 11.3302 18.576C11.3722 18.436 11.4142 18.24 11.4282 18.156C11.4282 18.03 11.4562 18.03 11.4982 18.156C11.5402 18.254 11.4982 18.436 11.4142 18.576ZM13.2342 19.444C13.2342 19.514 13.1362 19.64 13.0242 19.738C12.8562 19.878 12.8142 19.878 12.8142 19.71C12.8142 19.598 12.8562 19.458 12.9122 19.416C13.0382 19.276 13.2342 19.29 13.2342 19.444ZM11.5542 19.794C11.5542 19.822 11.5962 19.948 11.6382 20.06C11.6802 20.186 11.4982 20.424 11.1622 20.69L10.6302 21.124L10.8402 20.424C10.9942 19.934 11.1202 19.738 11.3022 19.738C11.4422 19.738 11.5542 19.766 11.5542 19.794ZM12.2122 20.382C12.1282 20.676 11.5962 21.6 11.0362 22.426C10.4762 23.266 9.7482 24.456 9.4262 25.086L8.8242 26.248L8.7822 24.26C8.7542 22.384 8.7682 22.244 9.0622 21.908C9.2302 21.712 9.4402 21.558 9.5522 21.558C9.6502 21.558 9.8322 21.404 9.9582 21.208C10.2102 20.816 10.4342 20.858 10.4342 21.292C10.4342 21.922 11.5122 21.194 12.0022 20.256C12.3382 19.584 12.4362 19.64 12.2122 20.382ZM70.0742 27.494C70.0742 28.11 69.8362 27.76 69.7382 27.018C69.6542 26.416 69.6542 26.402 69.8502 26.738C69.9762 26.934 70.0602 27.27 70.0742 27.494ZM7.9982 27.284C8.1102 27.186 8.2362 27.158 8.2922 27.2C8.4322 27.34 7.7602 28.838 7.5502 28.838C7.1582 28.838 6.8502 27.662 7.0882 27.046L7.2282 26.668L7.5222 27.06C7.7462 27.368 7.8442 27.41 7.9982 27.284ZM48.7942 66.148C48.7942 66.288 48.6542 66.358 48.3462 66.358L47.8842 66.344L48.2342 66.148C48.6822 65.896 48.7942 65.896 48.7942 66.148ZM47.5622 67.156C47.7582 67.408 47.3242 67.548 46.8622 67.394C46.3302 67.212 46.3302 66.946 46.8622 66.722C47.2822 66.54 47.3242 66.54 47.3802 66.75C47.4082 66.876 47.4922 67.072 47.5622 67.156ZM32.3442 68.752C32.5402 68.948 31.8402 68.892 31.3642 68.682C30.9442 68.486 30.9582 68.486 31.5742 68.556C31.9242 68.598 32.2602 68.682 32.3442 68.752Z" fill="black"/>
<path d="M37.3562 1.21582C37.5662 1.24382 37.9022 1.24382 38.1262 1.21582C38.3362 1.18782 38.1542 1.15982 37.7342 1.15982C37.3142 1.15982 37.1322 1.18782 37.3562 1.21582Z" fill="black"/>
<path d="M52.5461 4.95382C52.7141 5.17782 52.8541 5.47182 52.8541 5.62582C52.8541 5.77982 52.9241 5.84982 52.9941 5.80782C53.2741 5.63982 53.1201 5.19182 52.6861 4.86982L52.2241 4.54782L52.5461 4.95382Z" fill="black"/>
<path d="M6.26229 18.7998C5.94029 19.1498 5.87029 19.5278 6.09429 19.6678C6.17829 19.7098 6.23429 19.8918 6.23429 20.0598C6.24829 20.3678 6.24829 20.3678 6.45829 20.0878C6.64029 19.8358 6.64029 19.8078 6.45829 19.7658C6.17829 19.7098 6.17829 19.7098 6.44429 19.0798C6.71029 18.4638 6.65429 18.3798 6.26229 18.7998Z" fill="black"/>
<path d="M3.92426 20.7739C3.74226 21.2499 3.72826 21.4459 3.84026 21.6839C4.13426 22.2019 4.27426 21.9919 4.27426 21.0679C4.27426 20.5639 4.24626 20.1579 4.21826 20.1579C4.19026 20.1579 4.05026 20.4379 3.92426 20.7739Z" fill="black"/>
<path d="M3.25222 23.0978C3.02822 23.4898 2.80422 23.7978 2.74822 23.7978C2.60822 23.7978 2.23022 23.3638 2.14622 23.0978C2.10422 22.9858 2.04822 23.1258 2.02022 23.4058C1.97822 23.6858 2.00622 23.8818 2.06222 23.8538C2.11822 23.8118 2.17422 24.0078 2.17422 24.2738C2.17422 24.5538 2.24422 24.7778 2.31422 24.7778C2.39822 24.7778 2.45422 24.7218 2.45422 24.6518C2.45422 24.5678 2.83222 24.2178 3.29422 23.8678C4.12022 23.2238 4.30222 22.9018 3.96622 22.5658C3.71422 22.3138 3.67222 22.3418 3.25222 23.0978Z" fill="black"/>
<path d="M2.31421 25.6178C2.31421 25.7018 2.41221 25.7578 2.52421 25.7578C2.79021 25.7578 2.79021 25.6738 2.52421 25.5618C2.41221 25.5198 2.31421 25.5478 2.31421 25.6178Z" fill="black"/>
<path d="M69.4022 44.1679C69.2482 44.5179 69.1642 46.3239 69.3042 46.1699C69.3882 46.0859 69.6822 43.9439 69.6122 43.8739C69.5842 43.8459 69.4862 43.9719 69.4022 44.1679Z" fill="black"/>
<path d="M66.4203 49.1659C66.2943 49.6419 66.1543 50.1459 66.0983 50.2719C65.9443 50.6079 66.6163 50.4539 66.9663 50.0619C67.4563 49.5439 67.4703 49.2079 67.0363 48.7179L66.6303 48.2699L66.4203 49.1659Z" fill="black"/>
<path d="M65.5942 50.9718C65.4962 51.1258 65.4542 51.2938 65.4962 51.3218C65.5242 51.3498 65.6222 51.2238 65.7062 51.0278C65.9022 50.6078 65.8042 50.5658 65.5942 50.9718Z" fill="black"/>
<path d="M65.0482 52.3857C64.7402 53.3097 64.7822 53.3097 65.3702 52.4277L65.7342 51.8677V52.4277C65.7202 52.7357 65.6362 53.1417 65.5242 53.3377C65.0202 54.2197 65.4402 54.6117 66.2102 53.9957C66.5602 53.7017 66.5882 53.6317 66.4482 53.3517C66.3362 53.1697 66.3082 52.8197 66.3782 52.4277C66.4622 51.8397 66.4482 51.7977 66.0842 51.6577C65.4542 51.4197 65.3562 51.4897 65.0482 52.3857Z" fill="black"/>
<path d="M62.3882 55.522C62.3882 55.69 62.0242 56.208 61.6042 56.684C60.8622 57.51 60.6662 57.986 60.9742 58.168C61.2262 58.322 61.1282 58.49 60.7362 58.588L60.3442 58.7L60.7502 58.812C61.0302 58.896 61.2402 58.854 61.4922 58.7L61.8422 58.462L61.5202 58.238C61.0302 57.86 61.2542 57.538 62.0242 57.538H62.6542L62.6402 56.936C62.6402 56.278 62.4162 55.06 62.3882 55.522Z" fill="black"/>
<path d="M63.9843 55.5918C63.9283 55.6758 63.9143 55.7598 63.9563 55.8018C63.9843 55.8438 64.0543 55.7738 64.0963 55.6478C64.1943 55.4098 64.1103 55.3678 63.9843 55.5918Z" fill="black"/>
<path d="M63.4242 56.7958C63.2142 57.1318 63.0742 57.4398 63.1022 57.4678C63.1162 57.4818 63.3402 57.5518 63.5782 57.5938C63.9562 57.6778 64.0682 57.6358 64.3202 57.3138C64.7122 56.8238 64.6982 56.6698 64.1942 56.3898L63.7882 56.1658L63.4242 56.7958Z" fill="black"/>
<path d="M60.4002 59.5961L59.9242 60.1001L60.3722 59.7921C60.8482 59.4701 61.0442 59.2461 60.9462 59.1341C60.9182 59.1061 60.6662 59.3161 60.4002 59.5961Z" fill="black"/>
<path d="M54.4642 66.6378C54.4222 66.7078 54.4502 66.7778 54.5202 66.7778C54.6042 66.7778 54.6742 66.7078 54.6742 66.6378C54.6742 66.5538 54.6462 66.4978 54.6182 66.4978C54.5762 66.4978 54.5062 66.5538 54.4642 66.6378Z" fill="black"/>
<path d="M49.9843 68.192C49.3963 68.794 49.3403 68.892 49.6343 68.808C50.2363 68.64 50.8243 68.248 50.8663 67.982C50.9783 67.422 50.6423 67.506 49.9843 68.192Z" fill="black"/>
<path d="M47.1843 68.0379L46.6243 68.2899L47.1563 68.3039C47.5063 68.3179 47.7163 68.2479 47.7723 68.1079C47.8983 67.7719 47.7863 67.7579 47.1843 68.0379Z" fill="black"/>
<path d="M38.7842 69.0179C37.3982 69.1579 35.6062 69.2839 34.7942 69.2979L33.3242 69.3259L34.7242 69.5919C35.5222 69.7599 37.0482 69.8999 38.2942 69.9559L40.4642 70.0259L40.1142 69.7459L39.7642 69.4659L40.1142 69.3119C40.3102 69.2419 40.9682 69.1299 41.5842 69.0739C42.4102 69.0039 42.6062 68.9479 42.3542 68.8639C41.8642 68.7239 41.6402 68.7379 38.7842 69.0179Z" fill="black"/>
<path fill-rule="evenodd" clip-rule="evenodd" d="M38.1869 6.36119C37.685 7.01929 36.8958 8.86697 36.4739 10.3716C36.1839 11.4058 35.3865 15.4855 35.1355 17.2196L35.0585 17.751L35.371 18.3607C35.7206 19.0425 35.7784 19.4857 35.5701 19.8875C35.4593 20.1012 35.4264 20.3645 35.3889 21.3367C35.3788 21.5999 35.3179 21.9624 35.2536 22.1423C35.082 22.6223 35.1065 22.8176 35.4138 23.4208C35.6683 23.9202 35.6851 23.9859 35.6193 24.223C35.4995 24.6543 35.5321 24.9908 35.7254 25.3207C35.9331 25.6752 35.919 25.9622 35.677 26.302C35.4012 26.6892 35.3524 27.07 35.2417 29.7002C35.209 30.4744 35.1919 30.5611 35.0347 30.7479C34.9404 30.86 34.8632 31.0103 34.8632 31.0819C34.8632 31.2024 34.8133 31.1941 34.1967 30.9708C33.2113 30.6138 33.0507 30.588 32.5773 30.7101C32.354 30.7677 32.0581 30.8727 31.9198 30.9432C31.5926 31.1102 30.9199 31.7266 30.7893 31.9793L30.687 32.1772L31.0209 32.008C31.5606 31.7345 32.1666 31.5564 32.5576 31.5564C33.0209 31.5564 33.552 31.8107 33.8351 32.1681C34.0882 32.4877 34.4529 33.2459 34.453 33.4525C34.4531 33.5366 34.527 33.8904 34.6174 34.2386C34.9895 35.6734 35.0557 36.8927 34.9305 39.9988C34.8563 41.8377 34.7904 42.6129 34.5819 44.0966L34.4383 45.1182L34.6593 45.9161L34.8803 46.714L34.5753 47.2871L34.2703 47.8601L34.2799 51.5515C34.2902 55.4877 34.3093 55.8045 34.6951 58.4558C34.9404 60.1416 35.1633 61.1872 35.579 62.603C35.9609 63.9038 36.3629 65.0796 36.4097 65.0327C36.4637 64.9787 37.0483 62.9394 37.3152 61.8738C37.8857 59.5955 38.1426 57.6471 38.1444 55.5847C38.1454 54.4081 38.1647 54.1556 38.2835 53.7732C38.4809 53.1373 38.5531 52.2481 38.6009 49.8639C38.6422 47.7991 38.6404 47.7596 38.4878 47.3514L38.3327 46.9367L38.5494 46.316L38.7661 45.6954L38.5935 44.2827C38.0293 39.6627 38.0135 37.4421 38.5278 35.004C38.662 34.3673 38.7945 33.585 38.8221 33.2654C38.8498 32.9458 38.9214 32.5921 38.9814 32.4793C39.1729 32.1195 39.6577 31.7119 40.0415 31.5881C40.6006 31.4077 40.9486 31.4752 42.1264 31.9925C42.858 32.3138 41.8356 31.302 41.0012 30.8789C40.4524 30.6007 40.3824 30.5821 40.0124 30.6165C39.7934 30.6368 39.3719 30.7502 39.0758 30.8684C38.7796 30.9866 38.5292 31.0744 38.5194 31.0635C38.5095 31.0526 38.3867 30.8926 38.2465 30.7078C38.0061 30.391 37.994 30.3514 38.034 30.0112C38.0573 29.8128 38.0532 29.6363 38.025 29.6188C37.9597 29.5783 37.9739 27.5735 38.0419 27.2363C38.082 27.0373 38.0641 26.9441 37.9576 26.798C37.8321 26.6256 37.8297 26.5939 37.9238 26.3542C38.0185 26.1131 38.0157 26.081 37.8812 25.8697C37.5516 25.3518 37.5524 25.3605 37.7896 24.9292C37.9095 24.7108 38.0078 24.4638 38.0078 24.3803C38.0078 24.2968 37.8949 24.0456 37.757 23.822L37.5062 23.4157L37.6218 23.0492C37.7133 22.7586 37.7211 22.6469 37.6591 22.5109C37.5906 22.3605 37.6123 22.2876 37.8338 21.9228C38.0259 21.6066 38.0768 21.4612 38.0454 21.3182C38.0182 21.1941 38.0649 20.9806 38.1827 20.6904C38.4073 20.1377 38.386 20.0251 37.8927 19.1615L37.5068 18.4858L37.7207 18.0655C37.8382 17.8344 38.0201 17.5 38.1246 17.3225L38.3148 16.9998L37.999 16.3655C37.6485 15.6613 37.6166 15.5149 37.5278 14.1996C37.4068 12.4069 37.6071 9.88368 38.0085 8.14332C38.2105 7.26764 38.4215 6.1758 38.3939 6.14832C38.3801 6.13438 38.2869 6.23022 38.1869 6.36119ZM37.3979 8.90095C37.4012 8.98059 37.4174 8.99679 37.4392 8.94231C37.459 8.89295 37.4565 8.83396 37.4338 8.81126C37.4111 8.78857 37.395 8.8289 37.3979 8.90095ZM37.1633 9.68496C36.8771 10.6412 36.6398 12.648 36.6446 14.0721C36.6487 15.3307 36.7014 15.8101 36.8325 15.7826C36.9289 15.7624 37.3242 16.2881 37.3242 16.4365C37.3242 16.4935 37.3448 16.5195 37.3699 16.4944C37.3951 16.4693 37.4764 16.5026 37.5507 16.5685C37.6545 16.6605 37.6438 16.621 37.5045 16.3983C37.151 15.833 36.7773 14.3843 36.7773 13.5791C36.7773 12.7525 37.0609 10.5368 37.2927 9.55187C37.4446 8.90649 37.3749 8.97819 37.1633 9.68496ZM36.4045 17.1398C36.7787 17.3692 37.1465 17.6064 37.2216 17.6668C37.2968 17.7272 37.2815 17.6945 37.1875 17.5941C37.0099 17.4046 35.9206 16.7224 35.7955 16.7224C35.7563 16.7224 36.0303 16.9102 36.4045 17.1398ZM35.8829 17.6453C36.0351 17.9579 36.4171 18.4644 36.4894 18.4493C36.5332 18.4402 36.5499 18.4783 36.5277 18.5363C36.4862 18.6445 36.8677 19.0519 37.1415 19.1918C37.2377 19.2409 37.2056 19.1853 37.0507 19.0342C36.6045 18.5988 36.6045 18.5326 37.0507 18.9017C37.3895 19.1819 37.3232 19.1005 36.7721 18.5598C36.3745 18.1696 35.9967 17.7734 35.9327 17.6795C35.8687 17.5855 35.8463 17.5701 35.8829 17.6453ZM36.4355 17.7689C36.4355 17.8182 36.4807 17.9181 36.5359 17.9911C36.6335 18.1202 36.6363 18.1195 36.6384 17.9659C36.6398 17.8625 36.613 17.8251 36.5606 17.8575C36.5068 17.8908 36.4949 17.8697 36.5243 17.7932C36.5483 17.7307 36.5381 17.6795 36.5018 17.6795C36.4653 17.6795 36.4355 17.7197 36.4355 17.7689ZM36.2988 19.5163C36.6989 19.8475 37.6209 20.4914 37.502 20.3567C37.3323 20.1645 36.747 19.7245 36.4013 19.5293C36.1539 19.3896 36.1441 19.3884 36.2988 19.5163ZM36.3672 19.8189C36.3672 19.8924 36.8847 20.2602 37.0507 20.3047C37.2004 20.3448 37.1961 20.3361 37.0166 20.235C36.9038 20.1715 36.7115 20.0437 36.5893 19.951C36.4671 19.8582 36.3672 19.7988 36.3672 19.8189ZM35.9815 20.4665C36.0981 20.6552 37.555 21.3679 37.6434 21.2795C37.6587 21.2642 37.4623 21.1646 37.2072 21.058C36.952 20.9514 36.6355 20.7985 36.5039 20.7182C36.1172 20.4821 35.9376 20.3956 35.9815 20.4665ZM36.0254 20.7826C36.2114 20.998 37.0097 21.3979 37.3925 21.4675C37.5811 21.5018 37.538 21.4666 37.1892 21.3014C36.9457 21.1862 36.6996 21.0839 36.6423 21.0742C36.4931 21.049 36.2238 20.8987 36.0254 20.73L35.8545 20.5847L36.0254 20.7826ZM36.0336 21.5206C36.8342 22.2525 37.2655 22.6104 37.2005 22.4889C37.0892 22.2809 36.259 21.5249 36.0069 21.402L35.7861 21.2942L36.0336 21.5206ZM35.6868 22.2809C35.6819 22.5775 36.0022 23.1836 36.3557 23.5466C36.7222 23.9229 37.264 24.2636 37.4414 24.2294C37.5273 24.2129 37.4656 24.1493 37.2298 24.011C36.5761 23.628 36.0654 23.0483 35.8128 22.4025C35.7054 22.128 35.6896 22.1128 35.6868 22.2809ZM36.1312 24.7888C36.1617 24.8452 36.258 24.9865 36.3452 25.1029C36.4325 25.2192 36.5039 25.3373 36.5039 25.3652C36.5039 25.4966 36.9492 26.0205 37.0333 25.9881C37.0889 25.9668 37.1076 25.9827 37.0797 26.0277C37.0542 26.0691 37.0756 26.1298 37.1274 26.1626C37.2791 26.2587 37.3426 26.2339 37.3057 26.0928C37.2801 25.9948 37.2998 25.9699 37.3832 25.9952C37.4447 26.0138 37.3584 25.9116 37.1913 25.7679C37.0242 25.6242 36.7049 25.322 36.4818 25.0964C36.2586 24.8709 36.1009 24.7324 36.1312 24.7888ZM36.4728 26.7364C36.7753 26.7838 37.1595 26.8923 37.3266 26.9776C37.5435 27.0882 37.6047 27.1015 37.5403 27.0238C37.3431 26.7861 36.8877 26.6343 36.3968 26.6424L35.9228 26.6502L36.4728 26.7364ZM36.4355 27.7927C36.2488 27.8351 36.3263 27.849 36.7888 27.856C37.1147 27.861 37.4377 27.8849 37.5066 27.9092C37.6032 27.9434 37.6141 27.9342 37.5543 27.8693C37.4593 27.7662 36.7623 27.7185 36.4355 27.7927ZM36.5551 27.9828C36.6774 27.998 36.8773 27.998 36.9995 27.9828C37.1217 27.9677 37.0217 27.9552 36.7773 27.9552C36.5329 27.9552 36.4329 27.9677 36.5551 27.9828ZM37.3114 28.0484C37.3607 28.0682 37.4197 28.0657 37.4424 28.043C37.4651 28.0203 37.4247 28.0042 37.3527 28.0071C37.273 28.0104 37.2568 28.0266 37.3114 28.0484ZM36.6258 28.7358C36.8244 28.7496 37.132 28.7495 37.3094 28.7355C37.4867 28.7214 37.3242 28.7101 36.9482 28.7103C36.5722 28.7105 36.4272 28.722 36.6258 28.7358ZM36.207 29.0442C36.2243 29.0724 36.5154 29.0955 36.8537 29.0955C37.2586 29.0955 37.4541 29.0714 37.4254 29.025C37.3994 28.9828 37.1401 28.9622 36.7787 28.9737C36.4469 28.9843 36.1897 29.016 36.207 29.0442ZM36.6577 29.5559C36.8362 29.57 37.1285 29.57 37.3071 29.5559C37.4856 29.5418 37.3396 29.5302 36.9824 29.5302C36.6252 29.5302 36.4791 29.5418 36.6577 29.5559ZM37.3719 29.7541C37.348 29.778 37.2584 29.8048 37.1726 29.8137C37.0868 29.8227 36.9243 29.8391 36.8115 29.8502C36.6873 29.8624 36.7683 29.8865 37.0166 29.9112C37.4493 29.9542 37.5988 29.9327 37.4605 29.8472C37.3966 29.8077 37.399 29.7869 37.4703 29.7586C37.5215 29.7382 37.5301 29.719 37.4894 29.7161C37.4487 29.7132 37.3958 29.7303 37.3719 29.7541ZM36.25 30.5132C36.4676 30.5268 36.806 30.5267 37.002 30.513C37.198 30.4992 37.02 30.4881 36.6064 30.4882C36.1928 30.4884 36.0325 30.4996 36.25 30.5132ZM39.6484 30.7965C39.0797 30.9909 38.3786 31.298 37.7514 31.6274C37.3183 31.8549 37.092 31.9305 36.7772 31.9533L36.3672 31.983L36.3686 32.5729C36.37 33.163 36.5264 34.238 36.7651 35.2991C36.8349 35.6093 36.8739 35.8628 36.8517 35.8626C36.8296 35.8624 36.7591 35.7701 36.6951 35.6576C36.5361 35.3781 36.4051 35.3881 36.4641 35.6751C36.4892 35.7973 36.5244 36.0972 36.5422 36.3416L36.5746 36.7859L36.4683 36.5125C36.227 35.8921 36.2741 35.1713 36.549 35.2767C36.6661 35.3217 36.6654 35.2216 36.5469 34.988C36.4954 34.8865 36.4292 34.6497 36.3998 34.4617L36.3462 34.1199L36.2518 34.6668C36.1275 35.3862 36.1758 35.9464 36.4374 36.8201L36.6524 37.5379L36.6294 40.4602C36.6079 43.1945 36.614 43.3826 36.7247 43.3826C36.8777 43.3826 36.9497 43.6667 36.8459 43.8606C36.8021 43.9425 36.782 44.0252 36.8012 44.0445C36.8204 44.0637 36.9004 43.9534 36.979 43.7994C37.0576 43.6454 37.1372 43.5193 37.156 43.5193C37.2426 43.5193 37.0713 43.9567 36.728 44.613L36.3524 45.3308L36.417 46.3904L36.4816 47.45L36.4927 46.4115C36.4992 45.8055 36.5323 45.3555 36.5722 45.3308C36.6816 45.2632 36.6544 47.1343 36.5343 47.9432C36.4758 48.337 36.4391 48.7101 36.4525 48.7724C36.4661 48.8346 36.3339 49.1008 36.1588 49.364C35.7851 49.9257 35.5903 50.2882 35.6647 50.2836C35.6939 50.2818 35.8254 50.1101 35.957 49.9021C36.2553 49.4305 36.8922 48.7383 36.9627 48.8089C36.9917 48.8379 36.9643 48.8902 36.9017 48.9252C36.8391 48.9602 36.7273 49.0887 36.6532 49.2106C36.5342 49.4065 36.5261 49.4841 36.5843 49.8767C36.6204 50.1211 36.6289 50.5825 36.6031 50.9021C36.5773 51.2217 36.5367 52.1324 36.5129 52.9258L36.4697 54.3684L36.2133 54.652C35.9249 54.9713 35.8925 55.0448 36.0958 54.9188C36.3654 54.7517 36.5765 54.3535 36.6351 53.9017C36.6662 53.6618 36.6969 53.5271 36.7033 53.6023C36.7129 53.7135 36.7327 53.7007 36.809 53.5339C36.8945 53.3471 36.9034 53.3429 36.9085 53.4861C36.9115 53.5725 36.8661 53.7417 36.8076 53.8621L36.7012 54.0808L36.9083 53.8416C37.1591 53.5519 37.1719 53.5905 36.9566 53.9868C36.6257 54.5959 36.5474 55.1007 36.5914 56.342C36.6221 57.2081 36.6091 57.5473 36.536 57.7903C36.4835 57.9649 36.4503 58.1174 36.4622 58.1293C36.4741 58.1413 36.5683 57.9632 36.6713 57.7335C36.8117 57.4207 36.8477 57.2576 36.8149 57.0827C36.7637 56.81 36.8835 56.7601 36.9799 57.0139C37.0421 57.1772 36.9177 57.61 36.6726 58.0841C36.535 58.3501 36.503 60.9794 36.6343 61.2177C36.7141 61.3624 36.7118 61.3768 36.6143 61.3394C36.5149 61.3012 36.5044 61.4277 36.5093 62.6108L36.5147 63.9246L36.8134 62.5916C37.4554 59.727 37.7343 57.5533 37.7343 55.414C37.7343 54.2149 37.7516 53.9942 37.8721 53.6519C38.0467 53.1556 38.1279 52.2482 38.2141 49.8283L38.2828 47.9L38.1038 47.3816L37.9247 46.8632L38.148 46.2441L38.3712 45.625L38.2168 44.3842C38.0068 42.6969 37.8759 41.3867 37.8639 40.8533L37.854 40.4089L37.7529 40.9385C37.6579 41.4365 37.6606 41.5116 37.7981 42.195C37.8786 42.5947 37.9283 42.938 37.9086 42.9577C37.8365 43.0298 37.6078 42.3776 37.5277 41.8716C37.4588 41.4365 37.4632 41.2395 37.5548 40.6612C37.6721 39.9205 37.6593 39.6694 37.4537 38.6782C37.1859 37.3867 37.2141 36.6021 37.5743 35.3229C37.7401 34.7342 37.7459 34.6734 37.6435 34.5985C37.5431 34.5251 37.5745 34.4234 37.9521 33.6006C38.6184 32.1485 38.843 31.841 39.5947 31.3513C40.3082 30.8864 40.1618 30.8498 39.3226 31.2832C38.8605 31.5219 38.6445 31.5384 38.8247 31.3212C38.9312 31.1929 40.0127 30.7359 40.2071 30.7371C40.2946 30.7375 40.4414 30.7581 40.5334 30.7827C40.6883 30.8241 40.6908 30.8313 40.5676 30.8795C40.446 30.9271 40.4482 30.932 40.5923 30.9364C40.6791 30.939 40.8927 31.0209 41.0672 31.1182C41.2595 31.2256 41.3488 31.2525 41.2942 31.1866C41.2445 31.1268 41.1721 31.0779 41.1333 31.0779C41.0945 31.0779 40.9564 30.9968 40.8265 30.8978C40.5207 30.6645 40.132 30.6311 39.6484 30.7965ZM32.8181 30.7614C32.8339 30.7753 33.0543 30.9278 33.3081 31.1002L33.7695 31.4137V31.1849C33.7695 30.9815 33.7389 30.9438 33.4947 30.8461C33.2601 30.7522 32.7336 30.6863 32.8181 30.7614ZM36.6784 31.3342C36.7046 31.5505 36.7366 31.7391 36.7496 31.7536C36.8217 31.8346 37.1226 31.5207 37.1837 31.3007C37.2849 30.9365 37.288 30.9412 36.9433 30.9412H36.6307L36.6784 31.3342ZM38.151 32.2139C38.1134 32.3499 38.0331 32.5161 37.9724 32.5831C37.9009 32.6622 37.8873 32.7205 37.9339 32.7493C38.0325 32.8103 38.2807 32.3851 38.2809 32.1546C38.2813 31.8966 38.2324 31.919 38.151 32.2139ZM36.6655 32.3386C36.4955 32.4588 36.3967 32.7754 36.4975 32.8762C36.5447 32.9235 36.5896 32.8868 36.637 32.7621C36.7801 32.3858 37.2155 32.4681 37.2939 32.8863C37.3521 33.1963 37.4609 33.2008 37.4609 32.8932C37.4609 32.4553 36.9772 32.118 36.6655 32.3386ZM38.3881 32.9036C38.3511 33.001 38.3589 33.0088 38.4264 32.9418C38.4732 32.8954 38.4942 32.8403 38.4731 32.8193C38.452 32.7982 38.4138 32.8362 38.3881 32.9036ZM38.2239 33.2342C38.1094 33.4855 38.1313 33.5392 38.2551 33.3106C38.3129 33.2039 38.3475 33.1038 38.3319 33.0881C38.3162 33.0726 38.2677 33.1382 38.2239 33.2342ZM38.4289 33.1186C38.4229 33.1695 38.2911 33.4771 38.1361 33.8022C37.9501 34.1923 37.8578 34.4762 37.8647 34.6372C37.8704 34.7713 37.7948 35.1712 37.6966 35.5258C37.4481 36.4234 37.4018 37.5757 37.5801 38.4265L37.7091 39.0418L37.7574 38.0505C37.8156 36.8596 37.9387 35.9877 38.255 34.53C38.3855 33.9285 38.4804 33.344 38.466 33.2312C38.4516 33.1184 38.4349 33.0678 38.4289 33.1186ZM38.0392 33.6118C38.0143 33.6518 38.0087 33.6993 38.0266 33.7172C38.0446 33.7352 38.0774 33.7023 38.0997 33.6443C38.1459 33.5239 38.1066 33.5027 38.0392 33.6118ZM37.7529 39.3494C37.7529 39.5186 37.7663 39.5877 37.7826 39.5032C37.7989 39.4186 37.7989 39.2801 37.7826 39.1956C37.7663 39.111 37.7529 39.1802 37.7529 39.3494ZM36.914 41.7363C36.914 41.8202 36.9582 41.8787 37.0216 41.8787C37.0853 41.8787 37.1201 41.8322 37.107 41.7647C37.0738 41.5932 36.914 41.5697 36.914 41.7363ZM36.6461 43.8508C36.5564 44.0183 36.5534 44.0662 36.6326 44.0662C36.6949 44.0662 36.7922 43.7848 36.7459 43.7386C36.7317 43.7243 36.6868 43.7748 36.6461 43.8508ZM36.2738 44.3909C36.2549 44.4566 36.2618 44.6336 36.2892 44.7839L36.3389 45.0574L36.4628 44.7379C36.531 44.5623 36.5663 44.3853 36.5413 44.3449C36.4707 44.2307 36.3118 44.258 36.2738 44.3909ZM35.7486 50.4986C35.67 50.6526 35.6174 50.7903 35.6317 50.8047C35.646 50.8191 35.7247 50.693 35.8065 50.5246C35.9928 50.1412 35.9424 50.1185 35.7486 50.4986ZM37.4379 56.0632C37.4681 56.176 37.4934 56.4304 37.494 56.6285C37.4949 56.9336 37.5081 56.9708 37.5805 56.8718C37.7182 56.6835 37.6867 56.2045 37.5245 56.0196L37.383 55.8582L37.4379 56.0632ZM37.0337 58.8146C36.8894 58.8474 36.8721 59.1052 37.0142 59.1052C37.1242 59.1052 37.2872 58.8559 37.2048 58.8138C37.1765 58.7993 37.0994 58.7997 37.0337 58.8146ZM0.120412 70.9797C0.205451 70.9961 0.328498 70.9955 0.39385 70.9784C0.459201 70.9613 0.389611 70.9479 0.239221 70.9486C0.08883 70.9494 0.035373 70.9634 0.120412 70.9797ZM0.942228 70.9819C1.14081 70.9957 1.44843 70.9956 1.62582 70.9816C1.80315 70.9675 1.64059 70.9562 1.26461 70.9564C0.888635 70.9566 0.743576 70.968 0.942228 70.9819Z" fill="white"/>
</svg>
