<svg width="70" height="71" viewBox="0 0 70 71" fill="none" xmlns="http://www.w3.org/2000/svg">
<path d="M30.8062 0.16605C30.5262 0.39005 30.6242 1.31405 30.9182 1.20205C31.0162 1.16005 31.3242 1.09005 31.5902 1.03405C32.2342 0.92205 32.3042 0.78205 31.9962 0.34805C31.7162 -0.0299499 31.1702 -0.11395 30.8062 0.16605Z" fill="black"/>
<path d="M38.3522 0.824028C38.1282 0.964027 37.6942 1.13203 37.3722 1.18803C36.8962 1.27203 36.8402 1.30003 37.0642 1.39803C37.3302 1.49603 37.3162 1.51003 36.9942 1.58003C36.7982 1.62203 36.3082 1.70603 35.8882 1.74803C35.2022 1.83203 35.1042 1.80403 34.8382 1.48203C34.6702 1.30003 34.3202 1.10403 34.0542 1.04803C33.6482 0.964027 33.5922 0.978027 33.7462 1.13203C34.2362 1.65003 33.5642 1.88803 32.9342 1.39803C32.5982 1.14603 32.5842 1.14603 32.3042 1.39803C32.0802 1.59403 31.6322 1.69203 30.1762 1.80403C29.1682 1.90203 28.0342 2.05603 27.6562 2.16803C26.7322 2.44803 26.7182 2.42003 27.5862 2.02803C28.0202 1.83203 28.3142 1.60803 28.3142 1.46803C28.3142 1.23003 28.2162 1.18803 27.4462 1.04803C26.9562 0.978027 26.9142 0.992027 26.9142 1.31403C26.9142 1.55203 26.7602 1.76203 26.4662 1.97203C26.2142 2.14003 25.9762 2.30803 25.9482 2.33603C25.9202 2.35003 25.9762 2.63003 26.0742 2.95203C26.2422 3.45603 26.3122 3.51203 26.6482 3.47003C26.8722 3.42803 26.9982 3.47003 26.9562 3.54003C26.8022 3.80603 25.9202 4.05803 25.2062 4.05803C24.4782 4.04403 24.4642 4.04403 24.8842 3.86203L25.3042 3.68003L24.7862 3.42803C24.3522 3.21803 24.1982 3.20403 23.8902 3.34403C23.4562 3.54003 23.3022 3.45603 23.5542 3.14803C23.6522 3.02203 23.7082 2.91003 23.6802 2.88203C23.6102 2.82603 20.0822 3.84803 18.3742 4.40804C16.7362 4.94003 14.6782 6.01803 13.7822 6.80203C13.0402 7.44603 12.9982 7.62803 13.5442 7.72603C13.6982 7.75403 13.8242 7.83803 13.8242 7.90803C13.8382 7.99203 13.8942 8.20203 13.9502 8.38403L14.0622 8.72003L14.2442 8.28603C14.4682 7.76803 14.8602 7.50203 15.9242 7.12403C16.7922 6.81603 17.0022 6.85803 16.6522 7.23603C16.4002 7.53003 15.9382 8.66403 15.7842 9.37803L15.6862 9.86803L16.1062 9.30803C16.3302 9.00003 16.9042 8.38403 17.3802 7.95003C18.0942 7.27803 18.2342 7.06803 18.2482 6.64803C18.2622 6.38203 18.2762 6.07403 18.2902 5.97603C18.3182 5.57003 19.2842 5.30403 19.6062 5.62603C19.7322 5.75203 19.6202 5.94803 19.1442 6.45203C18.7942 6.83003 18.5142 7.23603 18.5142 7.36203C18.5142 7.53003 18.6822 7.41803 19.0742 6.99803C19.5362 6.49403 19.6762 6.42403 19.9982 6.49403C20.4182 6.60603 20.8942 6.32603 20.5862 6.14403C20.4882 6.08803 20.4462 6.00403 20.4742 5.97603C20.7822 5.73803 22.7002 4.61803 22.8262 4.61803C23.0642 4.61803 23.1762 5.20603 23.0082 5.61203C22.9382 5.82203 22.6302 6.10203 22.3362 6.25603C22.0422 6.41003 21.3142 6.78803 20.7122 7.11003C19.8582 7.57203 19.4802 7.69803 18.9342 7.69803C18.3462 7.69803 18.2342 7.74003 18.2342 7.96403C18.2342 8.10403 18.3322 8.30003 18.4442 8.39803C18.5562 8.49603 18.6542 8.65003 18.6542 8.76203C18.6542 9.04203 17.9402 9.49003 17.1702 9.67203C16.7922 9.77003 15.9942 10.078 15.4062 10.386C14.6362 10.764 14.3142 10.862 14.3142 10.722C14.3142 10.624 14.4682 10.106 14.6782 9.58803C14.8742 9.05603 15.0142 8.46803 14.9862 8.27203C14.9162 7.68403 14.5522 7.83803 14.3142 8.56603C14.1462 9.11203 14.0622 9.21003 13.8242 9.15403C13.6702 9.11203 13.3062 9.18203 13.0122 9.30803C12.7322 9.42003 12.4942 9.47603 12.4942 9.42003C12.4942 9.36403 12.7322 9.07003 13.0122 8.76203L13.5442 8.21603L12.7042 8.80403C12.2422 9.14003 11.3042 9.78403 10.6042 10.26C9.3862 11.086 7.7342 12.584 7.7342 12.836C7.7342 12.906 7.9162 12.948 8.1542 12.906C8.7702 12.822 8.7002 13.116 7.8042 14.208C7.3842 14.712 7.0342 15.174 7.0342 15.202C7.0342 15.328 7.1882 15.244 7.6502 14.838C7.9302 14.586 8.1682 14.474 8.2242 14.544C8.2662 14.628 7.5662 15.426 6.6702 16.308C5.0602 17.918 5.0462 17.946 5.1442 18.45C5.2562 19.038 5.4942 19.388 5.4942 18.954C5.4942 18.142 6.1102 16.798 6.4882 16.798C6.6982 16.798 6.6282 17.246 6.1102 19.262C5.8302 20.34 5.5642 21.712 5.5082 22.328L5.4242 23.448L4.9062 22.608C4.6122 22.146 4.3742 21.866 4.3742 21.992C4.3742 22.118 4.0242 22.65 3.6042 23.168C3.1842 23.672 2.8342 24.12 2.8342 24.148C2.8342 24.162 2.7362 24.414 2.6242 24.694C2.5122 24.974 2.4422 25.198 2.4702 25.198C2.4982 25.198 2.7362 24.876 2.9882 24.47L3.4502 23.756L3.6322 24.162C3.8842 24.75 3.8562 25.226 3.4642 27.298C3.1142 29.188 3.0442 30.364 3.2542 30.868C3.3662 31.12 3.3802 31.12 3.3802 30.784C3.3942 30.336 3.7162 29.888 3.9262 30.014C4.1362 30.14 4.1362 30.994 3.9402 31.904C3.7302 32.898 3.4782 33.01 3.5622 32.058L3.6322 31.33L3.1702 31.4C2.6102 31.498 2.6102 31.484 2.4702 29.608C2.4282 28.838 2.3302 28.068 2.2602 27.886C2.0782 27.41 1.7422 27.508 1.6302 28.068C1.5042 28.782 1.6582 29.664 2.2742 31.568C2.8762 33.444 3.0722 34.298 2.8762 34.298C2.8062 34.298 2.5542 34.032 2.3022 33.71C1.8262 33.094 1.7562 33.136 2.0082 33.85C2.0922 34.088 2.2322 34.27 2.3162 34.256C2.4282 34.242 2.4842 34.592 2.4842 35.46C2.4842 36.132 2.4562 36.678 2.4142 36.678C2.3722 36.678 2.1342 36.552 1.8962 36.398L1.4342 36.118L1.4482 36.51C1.4622 37.294 1.6442 38.148 1.7842 38.106C1.9522 38.05 2.7082 41.004 3.1422 43.426C3.3242 44.392 3.5062 45.134 3.5482 45.05C3.6602 44.868 4.0242 45.526 4.1642 46.184C4.3322 46.94 4.5002 46.408 4.4302 45.358L4.3742 44.448L4.5842 45.218C4.7102 45.638 4.8642 46.66 4.9342 47.486C5.0042 48.326 5.1442 49.292 5.2282 49.656L5.3962 50.3L5.6482 49.992L5.9002 49.684L6.0962 50.16C6.5302 51.196 6.5442 51.28 6.1662 51.21L5.8162 51.14L6.1382 51.63C6.3202 51.896 6.4742 52.26 6.4742 52.428C6.4742 52.708 6.9922 53.338 7.2162 53.338C7.2722 53.338 7.2862 53.17 7.2302 52.96C7.1882 52.736 7.4402 53.086 7.7902 53.716C8.1402 54.36 8.4342 55.018 8.4342 55.2C8.4342 55.858 9.0502 56.754 10.1142 57.608C10.6882 58.084 11.2342 58.602 11.3182 58.77C11.4722 59.078 13.4882 60.996 14.9302 62.186C15.9802 63.068 17.8702 64.328 19.2562 65.098C19.9002 65.448 20.2922 65.742 20.1942 65.798C20.0402 65.896 24.2262 68.29 25.6962 68.934C27.2922 69.634 28.6922 69.998 29.7982 69.998C30.3582 69.998 30.8342 69.956 30.8342 69.914C30.8342 69.872 30.7642 69.718 30.6942 69.564C30.5962 69.382 30.5962 69.298 30.6942 69.298C30.7642 69.298 30.8342 69.186 30.8342 69.046C30.8342 68.822 31.0582 68.808 33.6622 68.808C36.7142 68.808 38.3242 68.612 40.9422 67.968C41.7262 67.772 42.3842 67.618 42.3982 67.618C42.4262 67.618 42.4542 67.912 42.4542 68.29C42.4542 69.102 42.7482 69.578 43.2522 69.578H43.6162L43.2242 69.214C42.9022 68.92 42.8462 68.78 42.9162 68.36C43.0142 67.8 43.3222 67.408 43.8822 67.114C44.2462 66.918 44.2742 66.932 44.2742 67.184C44.2742 67.73 44.6802 67.758 46.7382 67.394C47.8022 67.212 48.8522 67.016 49.0762 66.974C49.4122 66.89 49.4542 66.918 49.4542 67.254C49.4542 67.674 49.4822 67.688 50.3782 67.408C50.7562 67.296 51.0782 67.198 51.1062 67.198C51.1202 67.198 51.1342 67.422 51.1342 67.688C51.1342 67.996 51.0502 68.22 50.8962 68.304C50.7562 68.388 50.7002 68.458 50.7562 68.458C50.9522 68.458 51.7222 67.87 51.6382 67.8C51.5962 67.758 51.6942 67.534 51.8482 67.324L52.1282 66.918H51.5122C51.1622 66.918 50.7002 66.876 50.4622 66.834C50.0842 66.764 50.0422 66.708 50.1542 66.484C50.2382 66.344 50.2942 66.022 50.2942 65.77V65.294L51.3582 65.392L52.4222 65.504L52.8422 65.028C53.0662 64.762 53.7382 64.286 54.3262 63.95C54.9142 63.628 55.6282 63.138 55.8802 62.872C56.1462 62.592 56.3142 62.466 56.2442 62.578C56.1742 62.704 56.2442 62.69 56.4262 62.522C56.7762 62.228 56.8602 62.018 56.5242 62.298C56.3702 62.424 56.3142 62.424 56.3142 62.312C56.3142 62.228 56.4122 62.116 56.5242 62.074C56.6362 62.018 56.7342 61.878 56.7342 61.738C56.7342 61.612 56.9162 61.248 57.1542 60.926L57.5602 60.352L56.8182 60.618C56.1602 60.842 54.4242 61.178 53.9202 61.178C53.8222 61.178 53.9482 60.954 54.2142 60.688C54.5782 60.31 54.7322 60.24 54.9282 60.352C55.1382 60.464 55.2642 60.38 55.6282 59.89C55.8662 59.554 56.1882 59.036 56.3422 58.728C56.6362 58.154 58.0082 56.236 58.4002 55.858C58.5262 55.732 59.0302 55.144 59.5342 54.528C60.0382 53.912 60.8782 52.904 61.4102 52.288C62.6562 50.832 64.2242 48.452 65.1342 46.646C65.7082 45.484 65.9042 45.204 66.1142 45.26C66.3382 45.316 66.3662 45.204 66.4222 44.364C66.4502 43.846 66.5202 43.37 66.5622 43.328C66.6182 43.272 66.8002 43.328 66.9822 43.454C67.6122 43.902 67.6962 43.776 67.5842 42.586C67.4442 41.074 67.4582 40.108 67.6402 39.8C67.7242 39.66 67.7942 39.618 67.7942 39.716C67.7942 39.926 68.3122 40.22 68.4942 40.108C68.5782 40.052 68.4802 39.73 68.2842 39.324C67.9902 38.764 67.9622 38.638 68.1442 38.638C68.2702 38.638 68.4802 38.372 68.6342 38.022C68.7742 37.686 68.9562 37.392 69.0402 37.364C69.1242 37.322 69.0262 36.678 68.7742 35.572C68.2702 33.5 68.2562 33.234 68.6482 33.136C68.9142 33.066 68.9282 33.094 68.8442 33.556C68.7882 33.906 68.8162 34.088 68.9422 34.172C69.5302 34.55 69.6282 34.074 69.1942 32.814C69.0262 32.366 68.9002 31.694 68.9002 31.344C68.8862 30.728 68.8722 30.7 68.5362 30.77L68.1722 30.84L68.2142 28.964C68.2842 26.108 68.2842 26.094 67.8082 25.814C67.4582 25.618 67.3182 25.324 66.8982 23.994C66.2822 22.09 65.2602 19.78 64.3782 18.296C64.0282 17.694 63.7342 17.106 63.7342 17.008C63.7342 16.91 63.4682 16.518 63.1322 16.154C62.8102 15.776 62.1662 14.992 61.7042 14.418C60.5702 12.99 58.4562 10.904 57.0002 9.77003C55.9082 8.91603 53.1502 7.08203 52.7722 6.95603C52.6882 6.92803 52.8422 6.63403 53.1502 6.25603C53.7382 5.54203 53.7662 5.12203 53.2622 4.78603C52.9402 4.57603 52.9402 4.57603 53.1082 4.94003C53.2482 5.24803 53.2342 5.37403 53.0382 5.65403C52.7022 6.17203 52.2962 6.34003 51.6522 6.24203C51.3302 6.18603 51.0082 6.08803 50.9242 6.03203C50.8542 5.96203 50.5462 5.83603 50.2522 5.73803C49.7622 5.58403 49.7342 5.55603 49.9302 5.33203C50.0562 5.19203 50.1542 5.01003 50.1542 4.92603C50.1542 4.59003 49.2722 3.79203 48.0262 2.96603C46.6122 2.04203 46.1922 1.97203 45.7022 2.58803L45.4502 2.89603L44.7782 2.11203C44.1062 1.34203 44.0782 1.32803 43.3082 1.31403C42.8742 1.31403 42.1182 1.17403 41.6142 1.02003C41.1102 0.866028 40.2702 0.698029 39.7242 0.642029C38.9122 0.586029 38.6742 0.614029 38.3522 0.824028ZM39.0522 0.782028C39.0102 0.824028 38.8842 0.838028 38.7862 0.796028C38.6742 0.754028 38.7162 0.712029 38.8702 0.712029C39.0242 0.698029 39.1082 0.740028 39.0522 0.782028ZM49.0062 5.01003C49.2022 5.30403 49.2022 5.31803 48.7682 5.16403C48.3342 5.01003 48.2502 4.89803 48.4322 4.70203C48.5722 4.56203 48.7822 4.67403 49.0062 5.01003ZM11.6262 10.386C11.5142 10.568 11.1502 11.184 10.8142 11.758C10.4782 12.332 10.1842 12.822 10.1702 12.85C10.1562 12.878 9.9882 12.822 9.8202 12.724L9.4982 12.556L9.8762 12.262C10.0862 12.094 10.2542 11.898 10.2542 11.828C10.2542 11.674 11.6262 10.078 11.7522 10.078C11.7942 10.078 11.7382 10.218 11.6262 10.386ZM9.4142 18.576C9.2602 18.814 9.2602 18.814 9.3302 18.576C9.3722 18.436 9.4142 18.24 9.4282 18.156C9.4282 18.03 9.4562 18.03 9.4982 18.156C9.5402 18.254 9.4982 18.436 9.4142 18.576ZM11.2342 19.444C11.2342 19.514 11.1362 19.64 11.0242 19.738C10.8562 19.878 10.8142 19.878 10.8142 19.71C10.8142 19.598 10.8562 19.458 10.9122 19.416C11.0382 19.276 11.2342 19.29 11.2342 19.444ZM9.5542 19.794C9.5542 19.822 9.5962 19.948 9.6382 20.06C9.6802 20.186 9.4982 20.424 9.1622 20.69L8.6302 21.124L8.8402 20.424C8.9942 19.934 9.1202 19.738 9.3022 19.738C9.4422 19.738 9.5542 19.766 9.5542 19.794ZM10.2122 20.382C10.1282 20.676 9.5962 21.6 9.0362 22.426C8.4762 23.266 7.7482 24.456 7.4262 25.086L6.8242 26.248L6.7822 24.26C6.7542 22.384 6.7682 22.244 7.0622 21.908C7.2302 21.712 7.4402 21.558 7.5522 21.558C7.6502 21.558 7.8322 21.404 7.9582 21.208C8.2102 20.816 8.4342 20.858 8.4342 21.292C8.4342 21.922 9.5122 21.194 10.0022 20.256C10.3382 19.584 10.4362 19.64 10.2122 20.382ZM68.0742 27.494C68.0742 28.11 67.8362 27.76 67.7382 27.018C67.6542 26.416 67.6542 26.402 67.8502 26.738C67.9762 26.934 68.0602 27.27 68.0742 27.494ZM5.9982 27.284C6.1102 27.186 6.2362 27.158 6.2922 27.2C6.4322 27.34 5.7602 28.838 5.5502 28.838C5.1582 28.838 4.8502 27.662 5.0882 27.046L5.2282 26.668L5.5222 27.06C5.7462 27.368 5.8442 27.41 5.9982 27.284ZM46.7942 66.148C46.7942 66.288 46.6542 66.358 46.3462 66.358L45.8842 66.344L46.2342 66.148C46.6822 65.896 46.7942 65.896 46.7942 66.148ZM45.5622 67.156C45.7582 67.408 45.3242 67.548 44.8622 67.394C44.3302 67.212 44.3302 66.946 44.8622 66.722C45.2822 66.54 45.3242 66.54 45.3802 66.75C45.4082 66.876 45.4922 67.072 45.5622 67.156ZM30.3442 68.752C30.5402 68.948 29.8402 68.892 29.3642 68.682C28.9442 68.486 28.9582 68.486 29.5742 68.556C29.9242 68.598 30.2602 68.682 30.3442 68.752Z" fill="black"/>
<path d="M35.3562 1.21582C35.5662 1.24382 35.9022 1.24382 36.1262 1.21582C36.3362 1.18782 36.1542 1.15982 35.7342 1.15982C35.3142 1.15982 35.1322 1.18782 35.3562 1.21582Z" fill="black"/>
<path d="M50.5461 4.95382C50.7141 5.17782 50.8541 5.47182 50.8541 5.62582C50.8541 5.77982 50.9241 5.84982 50.9941 5.80782C51.2741 5.63982 51.1201 5.19182 50.6861 4.86982L50.2241 4.54782L50.5461 4.95382Z" fill="black"/>
<path d="M4.26229 18.7998C3.94029 19.1498 3.87029 19.5278 4.09429 19.6678C4.17829 19.7098 4.23429 19.8918 4.23429 20.0598C4.24829 20.3678 4.24829 20.3678 4.45829 20.0878C4.64029 19.8358 4.64029 19.8078 4.45829 19.7658C4.17829 19.7098 4.17829 19.7098 4.44429 19.0798C4.71029 18.4638 4.65429 18.3798 4.26229 18.7998Z" fill="black"/>
<path d="M1.92426 20.7739C1.74226 21.2499 1.72826 21.4459 1.84026 21.6839C2.13426 22.2019 2.27426 21.9919 2.27426 21.0679C2.27426 20.5639 2.24626 20.1579 2.21826 20.1579C2.19026 20.1579 2.05026 20.4379 1.92426 20.7739Z" fill="black"/>
<path d="M1.25222 23.0978C1.02822 23.4898 0.804222 23.7978 0.748222 23.7978C0.608222 23.7978 0.230222 23.3638 0.146222 23.0978C0.104222 22.9858 0.0482222 23.1258 0.0202222 23.4058C-0.0217778 23.6858 0.00622223 23.8818 0.0622222 23.8538C0.118222 23.8118 0.174222 24.0078 0.174222 24.2738C0.174222 24.5538 0.244222 24.7778 0.314222 24.7778C0.398222 24.7778 0.454222 24.7218 0.454222 24.6518C0.454222 24.5678 0.832222 24.2178 1.29422 23.8678C2.12022 23.2238 2.30222 22.9018 1.96622 22.5658C1.71422 22.3138 1.67222 22.3418 1.25222 23.0978Z" fill="black"/>
<path d="M0.314209 25.6178C0.314209 25.7018 0.412209 25.7578 0.524209 25.7578C0.790209 25.7578 0.790209 25.6738 0.524209 25.5618C0.412209 25.5198 0.314209 25.5478 0.314209 25.6178Z" fill="black"/>
<path d="M67.4022 44.1679C67.2482 44.5179 67.1642 46.3239 67.3042 46.1699C67.3882 46.0859 67.6822 43.9439 67.6122 43.8739C67.5842 43.8459 67.4862 43.9719 67.4022 44.1679Z" fill="black"/>
<path d="M64.4203 49.1659C64.2943 49.6419 64.1543 50.1459 64.0983 50.2719C63.9443 50.6079 64.6163 50.4539 64.9663 50.0619C65.4563 49.5439 65.4703 49.2079 65.0363 48.7179L64.6303 48.2699L64.4203 49.1659Z" fill="black"/>
<path d="M63.5942 50.9718C63.4962 51.1258 63.4542 51.2938 63.4962 51.3218C63.5242 51.3498 63.6222 51.2238 63.7062 51.0278C63.9022 50.6078 63.8042 50.5658 63.5942 50.9718Z" fill="black"/>
<path d="M63.0482 52.3857C62.7402 53.3097 62.7822 53.3097 63.3702 52.4277L63.7342 51.8677V52.4277C63.7202 52.7357 63.6362 53.1417 63.5242 53.3377C63.0202 54.2197 63.4402 54.6117 64.2102 53.9957C64.5602 53.7017 64.5882 53.6317 64.4482 53.3517C64.3362 53.1697 64.3082 52.8197 64.3782 52.4277C64.4622 51.8397 64.4482 51.7977 64.0842 51.6577C63.4542 51.4197 63.3562 51.4897 63.0482 52.3857Z" fill="black"/>
<path d="M60.3882 55.522C60.3882 55.69 60.0242 56.208 59.6042 56.684C58.8622 57.51 58.6662 57.986 58.9742 58.168C59.2262 58.322 59.1282 58.49 58.7362 58.588L58.3442 58.7L58.7502 58.812C59.0302 58.896 59.2402 58.854 59.4922 58.7L59.8422 58.462L59.5202 58.238C59.0302 57.86 59.2542 57.538 60.0242 57.538H60.6542L60.6402 56.936C60.6402 56.278 60.4162 55.06 60.3882 55.522Z" fill="black"/>
<path d="M61.9843 55.5918C61.9283 55.6758 61.9143 55.7598 61.9563 55.8018C61.9843 55.8438 62.0543 55.7738 62.0963 55.6478C62.1943 55.4098 62.1103 55.3678 61.9843 55.5918Z" fill="black"/>
<path d="M61.4242 56.7958C61.2142 57.1318 61.0742 57.4398 61.1022 57.4678C61.1162 57.4818 61.3402 57.5518 61.5782 57.5938C61.9562 57.6778 62.0682 57.6358 62.3202 57.3138C62.7122 56.8238 62.6982 56.6698 62.1942 56.3898L61.7882 56.1658L61.4242 56.7958Z" fill="black"/>
<path d="M58.4002 59.5961L57.9242 60.1001L58.3722 59.7921C58.8482 59.4701 59.0442 59.2461 58.9462 59.1341C58.9182 59.1061 58.6662 59.3161 58.4002 59.5961Z" fill="black"/>
<path d="M52.4642 66.6378C52.4222 66.7078 52.4502 66.7778 52.5202 66.7778C52.6042 66.7778 52.6742 66.7078 52.6742 66.6378C52.6742 66.5538 52.6462 66.4978 52.6182 66.4978C52.5762 66.4978 52.5062 66.5538 52.4642 66.6378Z" fill="black"/>
<path d="M47.9843 68.192C47.3963 68.794 47.3403 68.892 47.6343 68.808C48.2363 68.64 48.8243 68.248 48.8663 67.982C48.9783 67.422 48.6423 67.506 47.9843 68.192Z" fill="black"/>
<path d="M45.1843 68.0379L44.6243 68.2899L45.1563 68.3039C45.5063 68.3179 45.7163 68.2479 45.7723 68.1079C45.8983 67.7719 45.7863 67.7579 45.1843 68.0379Z" fill="black"/>
<path d="M36.7842 69.0179C35.3982 69.1579 33.6062 69.2839 32.7942 69.2979L31.3242 69.3259L32.7242 69.5919C33.5222 69.7599 35.0482 69.8999 36.2942 69.9559L38.4642 70.0259L38.1142 69.7459L37.7642 69.4659L38.1142 69.3119C38.3102 69.2419 38.9682 69.1299 39.5842 69.0739C40.4102 69.0039 40.6062 68.9479 40.3542 68.8639C39.8642 68.7239 39.6402 68.7379 36.7842 69.0179Z" fill="black"/>
<path fill-rule="evenodd" clip-rule="evenodd" d="M58.6522 12.9543C58.5991 13.0129 58.5288 13.2027 58.496 13.376C58.4325 13.7104 58.2528 13.961 58.0764 13.961C58.0179 13.961 57.821 13.826 57.6388 13.661C57.1739 13.24 56.8829 13.1229 56.2403 13.0985C55.938 13.0871 55.5763 13.111 55.3929 13.1544L55.0728 13.2303L55.0073 13.5574C54.8787 14.1994 54.5378 14.8144 54.2337 14.953C54.0835 15.0214 53.996 15.095 53.545 15.5319C53.4161 15.6567 53.2633 15.7845 53.2056 15.8158C53.1478 15.8471 52.9896 15.9709 52.854 16.0909C52.2522 16.6236 51.8565 16.9493 51.8111 16.9493C51.784 16.9493 51.6681 17.0316 51.5536 17.1322C51.3953 17.2711 51.3605 17.3335 51.4086 17.3915C51.4577 17.4507 51.4151 17.4932 51.2194 17.5801C51.0805 17.6417 50.8714 17.7982 50.7547 17.9277C50.6381 18.0572 50.4772 18.1796 50.3972 18.1997C50.2103 18.2466 49.7987 18.7635 49.8819 18.8468C49.9791 18.9439 49.9504 18.9855 49.8054 18.9578C49.6337 18.9249 49.1516 19.2089 49.0682 19.392C49.0346 19.4657 49.0224 19.5659 49.0411 19.6146C49.0658 19.6789 49.0354 19.7032 48.9304 19.7032C48.7774 19.7032 48.4755 19.918 48.1239 20.2773C48.0071 20.3966 47.7996 20.5677 47.6627 20.6577C47.5258 20.7475 47.3695 20.899 47.3153 20.9942C47.2611 21.0894 47.1718 21.1674 47.1169 21.1676C46.9633 21.1682 46.6744 21.3881 46.1767 21.8834C45.7249 22.333 45.6696 22.4173 45.7813 22.4864C45.8979 22.5584 45.8395 22.6298 45.7055 22.5789C45.5145 22.5062 45.2669 22.6263 44.9276 22.956C44.7703 23.1089 44.5402 23.298 44.4162 23.3763C44.29 23.4559 44.1643 23.5945 44.1307 23.6909C44.0977 23.7857 44.0368 23.8633 43.9956 23.8633C43.9544 23.8633 43.8874 23.9033 43.8468 23.9523C43.8062 24.0012 43.6854 24.0828 43.5784 24.1335C43.4715 24.1843 43.3521 24.2978 43.3131 24.3858C43.2742 24.4737 43.1425 24.6031 43.0206 24.6733C42.8987 24.7435 42.7252 24.8998 42.6352 25.0206C42.4403 25.2819 42.3778 25.332 42.3033 25.286C42.2726 25.267 42.2639 25.2779 42.2838 25.3101C42.3489 25.4153 41.9907 25.6979 41.7816 25.7065C41.6746 25.7108 41.5243 25.7585 41.4474 25.8123L41.3076 25.9102L41.4497 25.9645C41.5597 26.0064 41.6192 25.9936 41.7128 25.9078C41.7793 25.8468 41.8562 25.7969 41.8837 25.7969C41.9112 25.7969 41.8323 25.8844 41.7085 25.9915L41.4834 26.1861L41.2598 26.0647C41.1368 25.998 41.036 25.9296 41.0357 25.9127C41.0354 25.8959 41.1247 25.8339 41.2342 25.775C41.3579 25.7084 41.4951 25.5542 41.5966 25.3677C41.7995 24.9948 41.8119 24.5193 41.6309 24.0474C41.5121 23.738 41.2727 23.3371 41.2062 23.3364C41.1874 23.3361 41.1837 23.4771 41.198 23.6496C41.2332 24.0739 41.0702 24.4393 40.7385 24.6796C40.602 24.7785 40.4668 24.8594 40.4382 24.8594C40.4096 24.8594 40.1511 24.7014 39.8638 24.5082C39.5025 24.2653 39.2429 24.0334 39.0216 23.756C38.6178 23.25 38.4885 23.1425 37.7764 22.7209C37.3662 22.478 37.0863 22.2584 36.8164 21.9677C36.0688 21.1621 35.8625 20.9782 35.5414 20.8312C35.2287 20.6881 35.2129 20.6864 35.1373 20.7898C35.094 20.849 35.0586 21.0288 35.0586 21.1893C35.0586 21.463 35.0756 21.4962 35.3296 21.7201C36.3127 22.5866 36.6854 23.0448 37.6556 24.5794C37.8348 24.8629 37.9302 24.9463 38.2726 25.1187C38.7844 25.3764 38.8874 25.474 38.8068 25.6246C38.6732 25.8742 38.2399 25.9781 37.8268 25.8596C37.6594 25.8116 37.6368 25.8185 37.6368 25.918C37.6368 26.0524 37.9933 26.4617 38.2344 26.6041C38.3973 26.7003 38.4036 26.719 38.3669 26.9981C38.3063 27.4587 38.1527 27.7534 37.9141 27.8666C37.6574 27.9884 37.1118 27.9946 36.7232 27.8801L36.4356 27.7954L36.6681 27.9934C36.796 28.1023 37.0908 28.2919 37.3232 28.4148L37.7458 28.6381L37.5315 28.8142C37.4136 28.911 36.13 30.043 34.6791 31.3296C33.2282 32.6162 31.8301 33.8552 31.5723 34.0831C31.3145 34.3108 30.7212 34.8416 30.2539 35.2626C29.7867 35.6835 28.521 36.816 27.4414 37.7793C24.2326 40.6423 23.0949 41.7018 21.5808 43.2368C17.0569 47.8231 15.4391 49.9276 14.3573 52.6328C14.0165 53.4851 13.6462 54.5603 13.6815 54.5955C13.6934 54.6075 13.8956 54.5399 14.1309 54.4453C14.6181 54.2496 14.6297 54.247 14.5792 54.3467C14.5588 54.387 14.5774 54.3774 14.6204 54.3253C14.6634 54.2732 14.8697 54.1446 15.0789 54.0394C15.8355 53.6587 17.1203 52.8977 18.0957 52.2525C20.8067 50.4594 22.8656 48.6567 28.2332 43.3764C30.812 40.8396 31.907 39.7756 34.3848 37.3992C35.6094 36.2247 36.9014 34.9843 37.2559 34.6429C39.4792 32.5016 42.0797 30.1319 42.2985 30.0479C42.4084 30.0058 42.466 30.0151 42.5377 30.0868C42.6245 30.1736 42.6145 30.2228 42.4125 30.699C42.0654 31.5173 42.0222 31.599 41.9572 31.5588C41.9217 31.5369 41.9135 31.5492 41.9375 31.5882C41.9603 31.6251 41.9521 31.7017 41.9191 31.7584C41.886 31.815 41.8579 31.835 41.8564 31.8028C41.8549 31.7705 41.7523 31.9287 41.6284 32.1543C41.5045 32.3799 41.4116 32.5744 41.422 32.5867C41.4711 32.6444 42.0686 32.1905 42.369 31.8675C42.5539 31.6686 42.6524 31.5727 42.5879 31.6544L42.4707 31.8028L42.6301 31.6624C42.7177 31.5852 42.7777 31.5031 42.7633 31.4798C42.6809 31.3466 43.2528 31.0773 43.6276 31.0729C43.8389 31.0705 43.8586 31.0883 44.1599 31.5537C44.6777 32.3537 44.9623 32.6453 45.6035 33.0332C45.9439 33.2392 46.3741 33.5677 46.6422 33.8262C47.489 34.6434 47.6113 34.7023 47.9864 34.4735C48.2314 34.3242 48.5327 33.9308 48.4288 33.8962C48.3866 33.8821 48.0733 33.6869 47.7326 33.4624C46.977 32.9643 46.1643 32.1692 45.7069 31.4805C45.2902 30.853 45.249 30.7045 45.4542 30.5701C45.582 30.4864 45.6223 30.4828 45.7083 30.5479C45.7938 30.6126 45.7991 30.6123 45.7406 30.5463C45.6844 30.483 45.7428 30.3968 46.0367 30.1097C46.4324 29.7231 46.543 29.481 46.543 29.0016C46.543 28.7444 46.4322 28.5609 46.377 28.7266C46.263 29.0685 45.3785 29.6641 44.9847 29.6641C44.7054 29.6641 44.5644 29.5965 43.997 29.1907C43.6071 28.9118 43.4938 28.8005 43.5155 28.7176C43.5311 28.658 43.5199 28.624 43.4907 28.6421C43.4614 28.6602 43.4375 28.6206 43.4375 28.5543C43.4375 28.4714 43.4754 28.4336 43.5586 28.4336C43.7459 28.4336 43.8999 28.3296 44.269 27.9535C44.4564 27.7627 44.6366 27.6232 44.6695 27.6435C44.7025 27.6639 44.7223 27.6485 44.7134 27.6092C44.7046 27.5699 44.9 27.4031 45.1478 27.2386C45.5481 26.9728 45.5952 26.9226 45.5701 26.7881C45.5473 26.6657 45.5931 26.5896 45.8095 26.3901C45.9567 26.2543 46.0993 26.157 46.1264 26.1738C46.2202 26.2317 46.243 26.6221 46.1674 26.8734C46.1256 27.0122 45.982 27.2868 45.8484 27.4835C45.7148 27.6803 45.6055 27.8617 45.6055 27.8867C45.6055 27.9641 46.371 27.1832 46.4595 27.0157C46.5589 26.8272 46.5674 26.3854 46.4779 26.0626C46.4264 25.8773 46.4292 25.8251 46.4916 25.8043C46.6335 25.7569 47.1744 25.2083 47.2435 25.0416C47.2808 24.9516 47.3977 24.8367 47.5035 24.7863C47.6998 24.6928 48.0634 24.3626 49.1606 23.282C49.5015 22.9461 49.7525 22.7237 49.7183 22.7877C49.6841 22.8516 49.5357 23.0148 49.3886 23.1504C49.2415 23.286 49.1211 23.4072 49.1211 23.4196C49.1211 23.432 49.2141 23.4137 49.3277 23.3788C49.6337 23.2849 49.986 22.957 50.0653 22.6924C50.1125 22.5348 50.1745 22.4554 50.2687 22.4318C50.3433 22.413 50.5283 22.2462 50.6797 22.0611L50.9551 21.7246L50.9137 22.0469C50.8513 22.5342 50.6334 22.9459 50.1917 23.4111L49.795 23.8289L50.1164 23.5678C50.6068 23.1694 50.9177 22.8431 51.0435 22.5945C51.1659 22.3526 51.2891 21.8482 51.2891 21.5891C51.2891 21.4133 51.4917 21.1755 51.815 20.9715C51.9271 20.9008 52.0754 20.7588 52.1447 20.656C52.3326 20.3772 53.2552 19.6575 53.3293 19.7318C53.3512 19.7538 53.3673 19.9079 53.365 20.0743C53.3593 20.4766 53.1837 20.804 52.7013 21.311C52.2973 21.7357 52.3497 21.7112 53.033 21.1559C53.2592 20.9721 53.5 20.7316 53.5679 20.6216C53.7582 20.3138 53.7865 19.949 53.645 19.629L53.5264 19.361L53.8478 19.1477C54.0445 19.017 54.1995 18.8618 54.2475 18.7474C54.2906 18.6447 54.5456 18.3559 54.8143 18.1057C55.083 17.8556 55.4346 17.5252 55.5957 17.3715C56.0094 16.977 56.6253 16.5505 56.9327 16.4458C57.0766 16.3968 57.4674 16.3242 57.8013 16.2846L58.4082 16.2124L58.4003 15.5994L58.3923 14.9864L58.6927 14.9689C59.1321 14.9434 59.3129 14.812 59.5509 14.3456C59.8083 13.841 59.929 13.7764 60.2884 13.951C60.5375 14.0721 60.5482 14.0728 60.4909 13.9658C60.4046 13.8046 60.1406 13.6094 60.0087 13.6094C59.7772 13.6094 59.5689 13.7819 59.3859 14.1253C59.1312 14.6032 59.0908 14.6287 58.6552 14.588C58.4541 14.5693 58.2438 14.5364 58.1878 14.5149C58.0447 14.4599 58.0611 14.2928 58.2163 14.2239C58.4145 14.136 58.6066 13.805 58.6502 13.4765C58.7018 13.0876 58.8464 12.9403 59.1326 12.9849C59.3292 13.0156 59.3369 13.0115 59.232 12.9329C59.074 12.8145 58.7685 12.8258 58.6522 12.9543ZM56.649 13.3514C56.7772 13.3983 56.909 13.464 56.942 13.4974C56.9823 13.5382 56.9479 13.5377 56.8371 13.4959C56.5862 13.4012 56.3196 13.4214 56.1064 13.5513C55.8837 13.6872 55.8187 13.8121 55.9123 13.9248C55.9816 14.0083 55.9753 14.1743 55.8982 14.2979C55.8731 14.3382 55.8686 14.3972 55.8883 14.4291C55.9088 14.4622 55.8853 14.4721 55.8332 14.4521C55.6638 14.3871 55.741 14.4819 56.0059 14.6641C56.1509 14.7639 56.2696 14.8284 56.2696 14.8075C56.2696 14.7866 56.4167 14.904 56.5966 15.0684C56.7764 15.2327 56.9544 15.367 56.9921 15.3668C57.0298 15.3666 56.9815 15.3146 56.8848 15.2513C56.7881 15.1879 56.563 14.9792 56.3844 14.7874C56.0398 14.4173 55.9695 14.2 56.091 13.8804C56.1287 13.7814 56.1291 13.7266 56.0923 13.7266C56.0609 13.7266 56.0352 13.7661 56.0352 13.8145C56.0352 13.8628 56.0069 13.9024 55.9723 13.9024C55.9377 13.9024 55.9179 13.8591 55.9284 13.8062C55.9578 13.6567 56.4277 13.5376 56.6728 13.6176C57.0064 13.7264 57.3135 14.0523 57.4167 14.4073C57.5125 14.7368 57.4917 14.9078 57.332 15.1035C57.2372 15.2197 57.2375 15.2197 57.3679 15.1094C57.6397 14.8794 57.6455 14.3071 57.3797 13.9406L57.2458 13.7559L57.3792 13.8731C57.6038 14.0705 57.7401 14.4125 57.7724 14.8597C57.8117 15.4027 57.8573 15.5176 57.9157 15.2207C58.0514 14.5311 57.5418 13.6259 56.8781 13.3776C56.7021 13.3117 56.5261 13.2597 56.4871 13.2619C56.448 13.2642 56.5209 13.3045 56.649 13.3514ZM56.5332 13.9472C56.3377 13.9867 56.2706 14.1209 56.3409 14.3319C56.4293 14.5972 56.4698 14.625 56.7051 14.5808C57.0744 14.5115 57.2099 14.0877 56.8965 13.9822C56.7245 13.9243 56.6716 13.9193 56.5332 13.9472ZM55.4156 14.8252C55.5455 14.9804 55.5022 14.9944 55.3007 14.8624C55.1071 14.7355 55.1171 14.811 55.3174 14.9873C55.5086 15.1556 55.5939 15.172 55.54 15.0303C55.492 14.9044 55.5247 14.9402 55.8875 15.4112C56.0427 15.6126 56.1806 15.7774 56.194 15.7774C56.2526 15.7774 55.7193 15.076 55.5224 14.894C55.403 14.7837 55.3549 14.7527 55.4156 14.8252ZM54.9224 14.879C54.9226 14.9058 55.0346 14.991 55.1714 15.0682C55.3081 15.1454 55.522 15.2886 55.6468 15.3863C55.8067 15.5117 55.8522 15.5298 55.8011 15.448C55.7613 15.3843 55.5693 15.2279 55.3744 15.1006C54.9667 14.8343 54.9217 14.8122 54.9224 14.879ZM54.9523 15.2877C55.0806 15.3729 55.3438 15.5769 55.5371 15.7409C55.8547 16.0105 55.8741 16.0196 55.7378 15.8351C55.5869 15.6308 54.9118 15.1328 54.7858 15.1328C54.749 15.1328 54.8239 15.2025 54.9523 15.2877ZM53.8672 15.7926C53.9476 15.874 54.7631 16.2493 54.7034 16.1773C54.6652 16.1313 54.5207 16.0384 54.3824 15.9709C54.1283 15.8468 53.8133 15.7378 53.8672 15.7926ZM53.3399 16.2428C53.3399 16.2699 53.4053 16.3084 53.4853 16.3285C53.5653 16.3486 53.7301 16.449 53.8515 16.5516L54.0723 16.7383L53.8729 16.5241C53.6827 16.3198 53.3399 16.1389 53.3399 16.2428ZM55.0977 16.9527C55.0977 17.019 55.1241 17.0571 55.1563 17.0371C55.1885 17.0172 55.2149 16.963 55.2149 16.9165C55.2149 16.87 55.1885 16.8321 55.1563 16.8321C55.1241 16.8321 55.0977 16.8864 55.0977 16.9527ZM52.5196 16.9686C52.5196 16.9793 52.6448 17.0755 52.7979 17.1826C52.9509 17.2896 53.208 17.4984 53.3692 17.6466L53.6621 17.916L53.3692 17.6033C53.0324 17.2437 52.5196 16.8607 52.5196 16.9686ZM54.2774 17.499C54.2774 17.5473 54.3037 17.6032 54.336 17.6231C54.3682 17.643 54.3946 17.6197 54.3946 17.5714C54.3946 17.5231 54.3682 17.4672 54.336 17.4473C54.3037 17.4274 54.2774 17.4506 54.2774 17.499ZM52.1396 17.7169C52.268 17.7846 52.5049 17.9488 52.6661 18.0819L52.959 18.3237L52.7832 18.1128C52.5686 17.8552 52.1868 17.5938 52.0253 17.5938C51.9417 17.5938 51.9758 17.6305 52.1396 17.7169ZM50.9082 18.1797C51.0693 18.2489 51.1618 18.2489 51.0547 18.1797C51.0064 18.1485 50.9273 18.1243 50.8789 18.1262C50.821 18.1283 50.831 18.1465 50.9082 18.1797ZM51.2137 18.6763C51.3818 18.7554 51.6323 18.8884 51.7704 18.9717C51.9722 19.0935 51.9929 19.0985 51.8756 18.9969C51.7066 18.8506 51.2674 18.6215 51.0547 18.5687C50.9742 18.5488 51.0457 18.5972 51.2137 18.6763ZM50.7325 19.3307C50.7647 19.3593 50.87 19.4482 50.9664 19.5283C51.1356 19.6687 51.1377 19.669 51.0257 19.5366C50.9618 19.4611 50.8565 19.3722 50.7917 19.339C50.7269 19.3058 50.7002 19.3021 50.7325 19.3307ZM52.9929 19.3858C52.9958 19.454 53.0096 19.4679 53.0283 19.4212C53.0453 19.3789 53.0432 19.3283 53.0237 19.3089C53.0043 19.2894 52.9904 19.324 52.9929 19.3858ZM49.5995 19.8741C49.9181 19.9987 50.1734 20.166 50.4929 20.4594L50.7221 20.67L50.5963 20.4864C50.316 20.0772 49.8277 19.7588 49.4892 19.7645C49.3489 19.7668 49.3643 19.7821 49.5995 19.8741ZM52.3182 19.9204C52.2865 20.0039 52.2932 20.0106 52.3511 19.9532C52.3911 19.9134 52.4091 19.8661 52.3911 19.8481C52.373 19.8301 52.3403 19.8626 52.3182 19.9204ZM48.8711 20.8237C48.9109 20.8638 48.9582 20.8818 48.9762 20.8637C48.9942 20.8457 48.9617 20.8129 48.9039 20.7909C48.8204 20.7591 48.8137 20.7658 48.8711 20.8237ZM49.0625 20.8667C49.0625 20.9269 49.24 21.01 49.281 20.9691C49.2953 20.9548 49.252 20.9137 49.1848 20.8777C49.1175 20.8418 49.0625 20.8368 49.0625 20.8667ZM35.212 21.0834C35.1921 21.1352 35.1758 21.1859 35.1758 21.196C35.1758 21.2061 35.4359 21.4396 35.7538 21.7149C36.0738 21.992 36.4839 22.4197 36.6726 22.6732C36.86 22.9249 37.2063 23.3187 37.4422 23.5483C37.6781 23.7778 37.8711 23.9798 37.8711 23.9971C37.8711 24.0403 37.7421 24.0174 37.6455 23.9571C37.5826 23.9178 37.579 23.9311 37.6279 24.0225C37.7008 24.1588 38.1449 24.5278 38.3092 24.5886C38.4109 24.6263 38.4079 24.6133 38.2843 24.4818C38.1773 24.3679 38.1654 24.3321 38.2346 24.3321C38.2846 24.3321 38.3598 24.3734 38.4017 24.4238C38.4436 24.4743 38.5508 24.5533 38.64 24.5994C38.7292 24.6455 39.0607 24.953 39.3767 25.2826C40.1647 26.1048 40.8457 26.7912 40.7147 26.6315C40.5129 26.3855 40.668 26.4339 40.8817 26.6835C40.9984 26.8198 41.0938 26.9034 41.0938 26.8693C41.0938 26.8352 41.0502 26.7712 40.9969 26.727C40.9437 26.6828 40.689 26.3829 40.4309 26.0606C39.8677 25.3571 39.8292 25.3155 39.9178 25.5039C39.9795 25.6351 39.971 25.632 39.8371 25.4746C39.7547 25.378 39.7003 25.2645 39.7161 25.2226C39.7319 25.1806 39.723 25.1598 39.6964 25.1762C39.6698 25.1926 39.5461 25.1018 39.4215 24.9742C39.232 24.7802 39.214 24.7422 39.3111 24.7422C39.4588 24.7422 39.6875 24.9006 39.6875 25.003C39.6875 25.046 39.7307 25.0978 39.7834 25.118C39.87 25.1513 39.8709 25.142 39.792 25.0218C39.6504 24.8057 39.2324 24.5157 38.9998 24.4721C38.8416 24.4424 38.6052 24.2772 38.1161 23.8546C37.7488 23.5372 37.3765 23.1787 37.2887 23.0578C37.106 22.8063 36.9336 22.6498 36.9336 22.7353C36.9336 22.832 37.9366 23.866 37.9953 23.8297C38.0253 23.8112 38.0426 23.8252 38.0337 23.8609C38.0249 23.8965 38.1363 24.0322 38.2813 24.1624C38.4263 24.2926 38.4966 24.3752 38.4374 24.3458C38.1049 24.181 36.7593 22.7681 36.8491 22.6783C36.865 22.6625 36.8377 22.6162 36.7886 22.5754C36.7395 22.5346 36.6993 22.482 36.6993 22.4583C36.6993 22.3975 37.1335 22.7754 37.5329 23.1838C37.7189 23.374 37.8711 23.501 37.8711 23.4659C37.8711 23.3952 36.0025 21.4655 35.9986 21.5322C35.9972 21.5552 36.08 21.6739 36.1826 21.7958C36.2852 21.9178 36.16 21.8182 35.9043 21.5746C35.288 20.9871 35.2573 20.9653 35.212 21.0834ZM50.5928 21.1792C50.5843 21.3034 50.6808 21.3687 50.7374 21.2771C50.7629 21.236 50.7546 21.2241 50.7166 21.2476C50.6819 21.269 50.6413 21.2401 50.6265 21.1834C50.6024 21.0911 50.5989 21.0906 50.5928 21.1792ZM48.1223 21.6088C48.5364 21.8319 48.5595 21.8405 48.5052 21.7528C48.458 21.6765 47.9187 21.402 47.8194 21.4037C47.778 21.4044 47.9143 21.4967 48.1223 21.6088ZM49.7071 21.9263C49.7071 21.9926 49.7334 22.0469 49.7657 22.0469C49.7979 22.0469 49.8243 22.0089 49.8243 21.9625C49.8243 21.916 49.7979 21.8618 49.7657 21.8418C49.7334 21.8219 49.7071 21.8599 49.7071 21.9263ZM46.9686 22.0128C47.1544 22.0892 47.3719 22.1946 47.452 22.2471C47.5321 22.2996 47.5977 22.3295 47.5977 22.3135C47.5977 22.2261 46.9618 21.8713 46.8074 21.8725C46.6552 21.8737 46.6774 21.893 46.9686 22.0128ZM36.4649 22.1862C36.4649 22.1984 36.5111 22.2445 36.5674 22.2888C36.6604 22.3616 36.6624 22.3596 36.5896 22.2666C36.513 22.169 36.4649 22.138 36.4649 22.1862ZM47.6563 22.362C47.6563 22.3742 47.7025 22.4203 47.7588 22.4646C47.8518 22.5374 47.8538 22.5353 47.781 22.4424C47.7044 22.3448 47.6563 22.3138 47.6563 22.362ZM48.8868 22.5966C48.8868 22.645 48.9131 22.7008 48.9454 22.7207C48.9776 22.7407 49.0039 22.7174 49.0039 22.6691C49.0039 22.6207 48.9776 22.5649 48.9454 22.545C48.9131 22.525 48.8868 22.5483 48.8868 22.5966ZM46.4844 22.9969C46.5005 23.0138 46.6719 23.1535 46.8653 23.3074C47.143 23.5285 47.1772 23.5453 47.0282 23.3874C46.9244 23.2774 46.753 23.1377 46.6473 23.0769C46.5416 23.016 46.4683 22.98 46.4844 22.9969ZM45.1737 23.2064C45.158 23.2318 45.265 23.2805 45.4116 23.3145C45.6765 23.3759 45.6773 23.3757 45.5392 23.2696C45.3936 23.1576 45.2222 23.128 45.1737 23.2064ZM45.3174 23.5341C45.3771 23.5887 46.0743 23.9206 46.0743 23.8943C46.0743 23.8614 45.3973 23.5118 45.3338 23.5118C45.3113 23.5118 45.304 23.5218 45.3174 23.5341ZM44.6681 23.953C44.668 23.9863 44.8319 24.1709 45.0322 24.3632C45.4115 24.7275 45.3476 24.6126 44.9171 24.1565C44.7801 24.0113 44.6681 23.9198 44.6681 23.953ZM44.2579 24.0297C44.2579 24.0567 44.3238 24.1089 44.4043 24.1456C44.5735 24.2227 44.5981 24.1758 44.4483 24.0621C44.3294 23.9718 44.2579 23.9596 44.2579 24.0297ZM37.8139 24.1287C37.8527 24.1754 37.906 24.2003 37.9323 24.184C37.9587 24.1677 37.9968 24.1812 38.017 24.2139C38.0372 24.2467 38.0843 24.2735 38.1215 24.2735C38.2344 24.2735 38.0239 24.0978 37.8773 24.0696C37.766 24.0481 37.7554 24.0581 37.8139 24.1287ZM41.2761 24.4784C41.151 24.7142 41.0223 24.8267 40.5289 25.1319C40.4246 25.1965 40.4245 25.2012 40.5257 25.242C40.6766 25.3027 41.0795 25.1052 41.2398 24.8918C41.3508 24.744 41.504 24.2149 41.4357 24.2149C41.4248 24.2149 41.353 24.3334 41.2761 24.4784ZM38.0464 24.6537C38.1366 24.7623 38.4894 24.9591 38.4344 24.8701C38.4148 24.8385 38.3016 24.7552 38.1827 24.6851C38.028 24.5938 37.9893 24.5849 38.0464 24.6537ZM44.1403 24.9217C44.3172 25.0193 44.5413 25.1704 44.6383 25.2574C44.7791 25.384 44.7733 25.371 44.6094 25.1926C44.4966 25.0699 44.2889 24.9184 44.1479 24.8558C43.7746 24.6905 43.7714 24.7184 44.1403 24.9217ZM46.4258 24.7974C46.4258 24.8277 46.4522 24.8688 46.4844 24.8887C46.5166 24.9086 46.543 24.8838 46.543 24.8336C46.543 24.7834 46.5166 24.7422 46.4844 24.7422C46.4522 24.7422 46.4258 24.767 46.4258 24.7974ZM39.3067 25.3868C39.563 25.6446 39.7859 25.8555 39.802 25.8555C39.8181 25.8555 39.6216 25.6446 39.3653 25.3868C39.109 25.1289 38.8861 24.918 38.87 24.918C38.8539 24.918 39.0504 25.1289 39.3067 25.3868ZM45.6641 25.4419C45.6641 25.5082 45.6905 25.5625 45.7227 25.5625C45.7549 25.5625 45.7813 25.5246 45.7813 25.4781C45.7813 25.4316 45.7549 25.3774 45.7227 25.3575C45.6905 25.3375 45.6641 25.3756 45.6641 25.4419ZM43.4023 25.5896C43.5601 25.6669 43.8356 25.8704 44.0145 26.0419L44.3398 26.3535L44.1315 26.0899C43.85 25.7335 43.464 25.4449 43.2718 25.4472C43.1371 25.4487 43.1554 25.4686 43.4023 25.5896ZM39.9808 25.6397C39.9805 25.6861 40.2174 25.9951 40.4984 26.3148C40.5738 26.4005 40.553 26.3521 40.4521 26.2071C40.2025 25.8482 39.9812 25.5817 39.9808 25.6397ZM38.9354 25.9374C38.7189 26.0923 38.6293 26.1192 38.3298 26.1192H37.9782L38.203 26.2209C38.4686 26.3411 38.6762 26.3135 39.0284 26.111C39.2566 25.9797 39.3431 25.84 39.2334 25.7797C39.2092 25.7664 39.0752 25.8373 38.9354 25.9374ZM45.0196 26.002C45.0196 26.0503 45.0459 26.0899 45.0782 26.0899C45.1104 26.0899 45.1368 26.0503 45.1368 26.002C45.1368 25.9536 45.1104 25.9141 45.0782 25.9141C45.0459 25.9141 45.0196 25.9536 45.0196 26.002ZM42.4258 26.2729C42.4656 26.313 42.5129 26.331 42.5309 26.3129C42.5489 26.2949 42.5164 26.2621 42.4586 26.2401C42.3751 26.2084 42.3684 26.215 42.4258 26.2729ZM42.6172 26.3482C42.6172 26.3624 42.7622 26.4526 42.9394 26.5485C43.1167 26.6446 43.2466 26.6988 43.2283 26.669C43.191 26.6087 42.6172 26.3074 42.6172 26.3482ZM40.3225 26.5994C40.4368 26.813 41.2804 27.4697 41.2648 27.333C41.2603 27.2931 40.8855 26.9681 40.4551 26.6309C40.2779 26.4921 40.2632 26.4886 40.3225 26.5994ZM44.2579 26.7275C44.2579 26.7597 44.2842 26.8024 44.3164 26.8223C44.3487 26.8422 44.375 26.8321 44.375 26.7999C44.375 26.7677 44.3487 26.725 44.3164 26.7051C44.2842 26.6852 44.2579 26.6953 44.2579 26.7275ZM45.2798 26.879C45.1817 26.9533 45.1795 26.9653 45.2638 26.9669C45.4142 26.9698 45.5499 26.9039 45.5138 26.8454C45.4682 26.7717 45.4109 26.7799 45.2798 26.879ZM41.4855 27.1885C41.5753 27.3094 41.7834 27.5796 41.9479 27.7891C42.1124 27.9986 42.3431 28.3171 42.4606 28.497C42.8497 29.093 42.9156 29.0582 42.5988 28.4241C42.362 27.9501 42.2054 27.726 41.879 27.3936C41.433 26.9395 41.2166 26.8267 41.4855 27.1885ZM39.663 27.293C39.569 27.3421 39.2921 27.5727 39.0478 27.8056C38.6649 28.1704 38.1263 28.6437 36.666 29.8985C35.7229 30.7089 30.1575 35.6533 25.9184 39.4468C22.7128 42.3155 20.7625 44.2658 18.365 46.9999C16.5587 49.0599 15.3571 50.9142 14.5015 52.9621C14.1672 53.7624 14.1001 53.9805 14.1884 53.9805C14.3625 53.9805 16.68 52.638 17.8614 51.8528C20.4704 50.1186 22.4799 48.3505 28.4961 42.4951C30.6754 40.3742 33.8839 37.3047 35.3223 35.9647C35.8379 35.4844 36.5367 34.8258 36.875 34.5011C37.2134 34.1765 37.873 33.5552 38.3408 33.1205C38.8086 32.6858 39.8567 31.7113 40.6699 30.955C41.6171 30.074 42.1485 29.5392 42.1485 29.4667C42.1485 29.3021 41.8574 28.7512 41.6293 28.4841C41.5211 28.3572 41.2838 28.1522 41.102 28.0284C40.9202 27.9046 40.7188 27.7434 40.6543 27.6701C40.5025 27.4975 40.0423 27.203 39.9251 27.2035C39.875 27.2037 39.7571 27.244 39.663 27.293ZM39.7037 27.3844C39.578 27.4466 39.0459 27.9064 38.5212 28.4061C37.9966 28.906 37.4755 29.3848 37.3634 29.4704L37.1593 29.626L37.2955 29.7016L37.4317 29.7771L37.282 29.7792C37.0481 29.7825 36.6187 30.0897 36.0042 30.6934C35.5817 31.1083 35.4821 31.2326 35.6088 31.1868C35.9227 31.0734 35.8214 31.1649 35.3305 31.4382C34.8218 31.7214 34.3553 32.0587 33.8575 32.5033L33.5645 32.7649L33.9312 32.6799C34.6719 32.5082 36.64 31.9526 36.799 31.8702C36.994 31.7692 37.7539 31.0826 37.7539 31.0076C37.7539 30.9505 36.9875 30.9743 36.6114 31.043C36.4825 31.0666 36.3926 31.0689 36.4118 31.0482C36.4309 31.0275 36.7341 30.9695 37.0856 30.9193C37.4828 30.8626 37.8356 30.7744 38.0176 30.6863C38.3678 30.5166 39.8868 29.2457 39.6289 29.338C39.5806 29.3553 39.2906 29.3804 38.9844 29.3938C38.6783 29.4072 38.3516 29.4478 38.2585 29.4842C38.1655 29.5205 38.078 29.539 38.0644 29.5253C38.0101 29.471 38.9841 29.1966 39.4498 29.1349C39.7219 29.099 40.0252 29.031 40.1237 28.9841L40.3028 28.8986L40.1006 29.0616C39.8446 29.2681 39.1487 29.8832 38.0155 30.9048C37.5267 31.3454 36.2988 32.4491 35.287 33.3574C31.0213 37.1867 25.1895 42.548 23.3742 44.3091C22.9903 44.6816 22.7327 44.9073 22.8019 44.8106C22.871 44.7139 23.0483 44.47 23.1958 44.2686C23.3433 44.0672 23.4507 43.9024 23.4346 43.9024C23.4185 43.9024 23.1467 44.2115 22.8306 44.5893C22.5145 44.9671 21.2116 46.3184 19.9354 47.5922C18.6591 48.866 17.4366 50.106 17.2187 50.3477C17.0007 50.5894 16.9287 50.6553 17.0586 50.4942C17.1885 50.333 17.6408 49.8189 18.0636 49.3516C18.971 48.3486 19.181 48.0552 19.384 47.5059L19.5356 47.0957L19.3446 47.3301C19.2394 47.459 18.9398 47.7886 18.6787 48.0625C18.4175 48.3365 18.0782 48.732 17.9245 48.9414C17.7709 49.1509 17.6346 49.3332 17.6217 49.3465C17.5832 49.3861 17.8937 48.6384 18.0211 48.3848C18.1785 48.0715 18.5435 47.5352 18.9284 47.0518C19.1016 46.8343 19.2187 46.6563 19.1886 46.6563C19.1585 46.6563 18.9254 46.8766 18.6705 47.1458C18.1467 47.6992 17.8955 48.1331 17.5083 49.1538C17.3667 49.5269 17.1355 50.0207 16.9945 50.2511C16.8534 50.4815 16.6635 50.8018 16.5724 50.9629C16.4812 51.1241 16.1445 51.5591 15.8239 51.9297C15.2654 52.5755 14.5508 53.5357 14.5508 53.6402C14.5508 53.6677 14.7288 53.5429 14.9463 53.3629C15.1828 53.1673 15.6482 52.8829 16.1036 52.6558C16.7825 52.3173 16.9226 52.2198 17.3926 51.7594C17.6827 51.4754 18.1309 51.0836 18.3887 50.8889C18.6465 50.6942 19.1079 50.334 19.4141 50.0885C19.7311 49.8342 20.2361 49.5058 20.5871 49.3255C21.3615 48.9279 22.5346 48.0517 23.0183 47.5097C24.0685 46.3327 24.7774 45.4832 24.9282 45.2207C25.1403 44.8517 25.1558 45.031 24.951 45.4844L24.8054 45.8067L25.0157 45.5723C25.2675 45.2916 25.4483 44.948 25.7208 44.2318C25.9257 43.6935 26.5513 42.4534 26.8314 42.03C27.0335 41.7247 27.3061 41.6156 27.1532 41.9013C27.0723 42.0525 27.0717 42.1627 27.1521 42.113C27.1863 42.0919 27.1166 42.2683 26.9973 42.5051C26.7623 42.9712 26.3856 43.8302 26.3886 43.8929C26.393 43.9838 26.5899 43.6603 26.8288 43.17C26.9702 42.8799 27.2297 42.4053 27.4056 42.1153C27.5814 41.8252 27.879 41.3301 28.0668 41.0151C28.4769 40.327 28.6018 40.1524 28.6839 40.1524C28.7441 40.1524 28.7338 40.3126 28.6422 40.7969C28.591 41.0677 28.7047 40.9197 28.793 40.6006C28.8273 40.4765 28.8679 40.3874 28.8831 40.4027C28.9367 40.4562 28.7829 41.2262 28.6134 41.7535C28.5192 42.0463 28.4493 42.2931 28.4581 42.3018C28.4948 42.3386 29.4868 40.9655 29.7281 40.5438C29.8723 40.2919 30.1263 39.8751 30.2924 39.6175C30.5044 39.2891 30.6248 39.0235 30.6958 38.728C30.7515 38.4962 30.819 38.2671 30.8459 38.2188C30.9257 38.0755 30.9074 38.6104 30.8162 39.0891C30.771 39.3261 30.7559 39.4975 30.7826 39.47C30.9071 39.3417 31.3152 38.5474 31.3789 38.3093C31.4181 38.1628 31.4747 38.043 31.5047 38.043C31.5962 38.043 31.5014 38.5894 31.3417 38.9824C31.2592 39.1856 31.2048 39.365 31.2209 39.381C31.3223 39.4825 32.0477 38.8232 32.2737 38.4243C32.3468 38.2951 32.4667 38.0313 32.5402 37.8379C32.6137 37.6446 32.7112 37.3995 32.7568 37.2935C32.8025 37.1874 32.8758 37.0028 32.9198 36.8833L32.9996 36.666L33.0063 37.0762L33.013 37.4864L33.1378 37.252C33.2063 37.1231 33.2947 36.8726 33.3342 36.6953L33.406 36.3731L33.412 36.8234C33.4153 37.071 33.3916 37.3431 33.3593 37.428L33.3006 37.5823L33.471 37.461C33.5648 37.3943 33.7164 37.224 33.8081 37.0826C34.0956 36.6387 34.1255 36.6018 34.026 36.8125L33.9293 37.0176L34.0508 36.9094C34.1955 36.7804 34.3151 36.4768 34.232 36.4491C34.2011 36.4388 34.2175 36.3779 34.2686 36.3138C34.3613 36.1976 34.3615 36.1976 34.3306 36.3145C34.2701 36.5431 34.3779 36.5882 34.5737 36.4163C34.7149 36.2925 34.8052 36.1089 34.97 35.6114C35.0873 35.2569 35.2054 34.8877 35.2322 34.791C35.2762 34.6326 35.2816 34.6436 35.287 34.9034C35.2939 35.236 35.3253 35.222 35.5133 34.803L35.65 34.4981L35.6147 34.8155C35.5952 34.9902 35.5426 35.2208 35.4977 35.3282C35.3688 35.6367 35.4504 35.5559 35.6407 35.1866C35.7362 35.0012 35.8648 34.7753 35.9266 34.6845C36.0326 34.5286 36.0407 34.5261 36.0707 34.6405C36.1327 34.8779 36.2754 34.7703 36.4151 34.3809C36.4903 34.1714 36.5718 34 36.5962 34C36.6537 34 36.6524 34.0202 36.5822 34.2046C36.5015 34.417 36.6144 34.3393 36.7358 34.0989C36.7877 33.9962 36.8864 33.8504 36.9551 33.775L37.0801 33.6378L37.1094 33.8163C37.136 33.9781 37.1817 33.914 37.5968 33.1332C38.019 32.3391 38.6708 31.3232 38.724 31.3764C38.7364 31.3888 38.7237 31.5426 38.6957 31.718C38.6676 31.8935 38.652 32.0449 38.6609 32.0544C38.6927 32.0882 38.9698 31.5647 39.0422 31.334C39.1443 31.0089 39.2215 30.9462 39.1802 31.2219L39.1459 31.4512L39.4115 31.0756C39.5576 30.869 39.7192 30.6764 39.7706 30.6477C39.8221 30.6189 39.9183 30.4891 39.9846 30.3592C40.0644 30.2029 40.1335 30.134 40.1892 30.1555C40.2448 30.1767 40.301 30.1218 40.3543 29.9943C40.3987 29.888 40.5108 29.7411 40.6033 29.6681L40.7715 29.5352L40.7909 29.6629C40.8085 29.7794 40.8302 29.769 41.0364 29.5456C41.2924 29.2684 41.3885 29.2672 41.4789 29.5406L41.5417 29.7306L41.7279 29.5566C41.8365 29.4552 41.9136 29.3253 41.9128 29.2451C41.9111 29.0587 41.7327 28.68 41.538 28.4494L41.3783 28.2602L41.0896 28.4065C40.7447 28.5812 40.7036 28.5543 41.0328 28.3694C41.1604 28.2976 41.2511 28.2168 41.2344 28.1898C41.1929 28.1226 40.9027 28.1279 40.7021 28.1995L40.5371 28.2585L40.669 28.1462C40.8592 27.9843 40.8342 27.8869 40.5343 27.623C40.1585 27.2922 39.9887 27.2435 39.7037 27.3844ZM38.3245 27.7654C38.2355 27.8688 38.0509 28.0086 37.9143 28.0763C37.7046 28.1801 37.6888 28.1991 37.8125 28.199C38.0001 28.1988 38.3059 28.0126 38.4301 27.8231C38.5794 27.5953 38.5056 27.5551 38.3245 27.7654ZM43.9237 27.6852C43.7909 27.8568 43.7827 27.9263 43.9096 27.8054C43.9847 27.7338 44.0317 27.6606 44.0139 27.6428C43.9961 27.625 43.9556 27.6441 43.9237 27.6852ZM42.7883 28.5955C42.879 28.7718 43.3716 29.3757 43.5227 29.4958C43.5887 29.5483 43.7054 29.7065 43.782 29.8474L43.9214 30.1035L43.7355 29.8985L43.5496 29.6934L43.7021 29.9571L43.8547 30.2207L43.671 30.0157C43.5701 29.9029 43.5118 29.8596 43.5416 29.9195C43.6159 30.0687 44.1594 30.7114 44.2147 30.7155C44.2393 30.7173 44.219 30.6199 44.1697 30.4991L44.0799 30.2793L44.2205 30.4551C44.5796 30.9039 44.6243 30.9372 44.4562 30.6309C44.3678 30.4698 44.1801 30.1569 44.0392 29.9358C43.8982 29.7146 43.7929 29.5236 43.8052 29.5113C43.8174 29.499 43.9441 29.5836 44.0866 29.6991L44.3457 29.9093L44.088 29.6684C43.9463 29.536 43.8174 29.4405 43.8016 29.4563C43.7859 29.472 43.7 29.4329 43.6109 29.3694C43.5217 29.3059 43.4231 29.2539 43.3917 29.2539C43.3603 29.2539 43.2207 29.1024 43.0815 28.917C42.7672 28.4985 42.7011 28.426 42.7883 28.5955ZM40.6175 28.6534C40.5447 28.7463 40.5468 28.7483 40.6397 28.6755C40.6961 28.6313 40.7422 28.5851 40.7422 28.573C40.7422 28.5247 40.6941 28.5557 40.6175 28.6534ZM40.3832 28.8291C40.3103 28.9221 40.3124 28.9241 40.4053 28.8513C40.5029 28.7747 40.5339 28.7266 40.4857 28.7266C40.4736 28.7266 40.4274 28.7728 40.3832 28.8291ZM46.0743 29.3759C45.9615 29.4725 45.6274 29.6751 45.3318 29.826C44.8218 30.0864 44.7151 30.1914 44.9602 30.1914C45.1018 30.1914 45.8272 29.8135 46.006 29.6465C46.1221 29.538 46.3465 29.1902 46.2955 29.1977C46.2866 29.199 46.187 29.2792 46.0743 29.3759ZM43.0826 30.6034C42.8515 30.666 42.6843 30.7693 42.6204 30.8886C42.564 30.994 42.5685 30.9941 42.7689 30.8919C42.8826 30.8339 43.0795 30.7689 43.2066 30.7475C43.3336 30.726 43.4375 30.6875 43.4375 30.6619C43.4375 30.5896 43.2485 30.5584 43.0826 30.6034ZM44.5571 31.4073C44.7745 31.7664 45.1655 32.2536 45.4622 32.5352C45.7258 32.7853 45.7207 32.7748 45.3632 32.3301C45.1559 32.0723 44.8743 31.7098 44.7374 31.5244C44.4547 31.1418 44.3586 31.0794 44.5571 31.4073ZM45.5791 32.0957C46.1886 32.9314 46.7322 33.4379 47.378 33.7717C47.7018 33.939 47.6401 33.8288 47.2597 33.5606C47.0769 33.4317 46.5855 32.9966 46.1678 32.5938C45.7501 32.191 45.4852 31.9668 45.5791 32.0957ZM35.7946 32.3389C35.571 32.3868 35.2283 32.4999 35.0329 32.59C34.8376 32.6802 34.5064 32.8106 34.2969 32.8799C33.9636 32.9901 33.6833 33.1177 33.7696 33.1201C33.7857 33.1206 34.023 33.0815 34.2969 33.0332C34.5708 32.985 34.9476 32.9455 35.1342 32.9454C35.5315 32.9453 35.7895 32.831 36.172 32.4853C36.4747 32.2117 36.4438 32.1997 35.7946 32.3389ZM46.5666 33.4401C47.1726 34.0319 47.5247 34.2655 47.7182 34.2041C47.838 34.166 47.8762 34.0586 47.77 34.0586C47.7359 34.0586 47.7231 34.0341 47.7417 34.0041C47.7602 33.9741 47.7445 33.9305 47.7068 33.9072C47.664 33.8807 47.6539 33.8901 47.68 33.9324C47.703 33.9696 47.6997 34 47.6727 34C47.6074 34 46.5929 33.3424 46.2544 33.0806C46.107 32.9666 46.2475 33.1283 46.5666 33.4401ZM33.7109 33.4064C32.9935 33.636 32.2461 34.1401 32.2461 34.3944C32.2461 34.4279 32.0681 34.562 31.8506 34.6923C31.6331 34.8226 31.2448 35.142 30.9877 35.4021C30.5328 35.8624 30.4812 35.9587 30.7813 35.7871C30.8619 35.7411 30.9541 35.7029 30.9864 35.7024C31.0186 35.7018 30.9003 35.781 30.7236 35.8785C30.3964 36.0588 29.5801 36.6592 29.5117 36.7698C29.4911 36.8032 29.5903 36.751 29.7322 36.6537C30.1193 36.3883 30.6014 36.1586 30.6753 36.2043C30.7117 36.2267 30.7246 36.2185 30.7043 36.1857C30.6738 36.1364 31.9522 35.5206 32.5619 35.291C32.8351 35.1881 32.7111 35.1716 32.3027 35.2565C32.0944 35.2998 31.9167 35.3287 31.9079 35.3206C31.8991 35.3126 32.0178 35.2595 32.1716 35.2027C32.3253 35.1459 32.54 35.0489 32.6486 34.987C32.7571 34.9253 32.9416 34.8357 33.0587 34.7879L33.2715 34.7012L33.0079 34.9435C32.7905 35.1432 32.7699 35.1784 32.8907 35.1435C33.1086 35.0805 33.4755 34.8574 33.7403 34.6269L33.9746 34.4228L33.6343 34.38C33.4471 34.3565 33.1307 34.3526 32.9312 34.3713C32.6484 34.3979 32.7365 34.3664 33.3301 34.2285C34.1529 34.0375 34.5295 33.8869 34.9414 33.5845C35.2005 33.3943 35.2026 33.3902 35.0586 33.3498C34.7763 33.2704 34.0389 33.3014 33.7109 33.4064ZM33.3853 34.6185C33.276 34.706 33.2767 34.7071 33.4034 34.6457C33.4759 34.6106 33.5352 34.5696 33.5352 34.5546C33.5352 34.5098 33.5048 34.5227 33.3853 34.6185ZM31.4461 35.9042C31.2478 35.9473 31.0105 36.026 30.9187 36.079C30.827 36.1321 30.8047 36.1588 30.8692 36.1385C31.0089 36.0943 31.3269 36.0164 31.8067 35.9085C32.033 35.8576 32.0956 35.8287 31.9825 35.8276C31.8858 35.8266 31.6444 35.861 31.4461 35.9042ZM33.3054 36.2608C33.3083 36.329 33.3221 36.3429 33.3408 36.2962C33.3578 36.2539 33.3557 36.2033 33.3362 36.1839C33.3168 36.1644 33.3029 36.199 33.3054 36.2608ZM26.9058 42.3879C26.7153 42.7509 26.5822 43.0435 26.534 43.2056C26.511 43.2827 26.6268 43.0843 26.7912 42.7648C26.9556 42.4453 27.0787 42.1725 27.0648 42.1586C27.0509 42.1446 26.9793 42.2478 26.9058 42.3879ZM22.9357 42.9287C22.6715 43.2311 22.3032 43.7015 22.1172 43.974C21.825 44.4023 20.8416 45.6016 20.7826 45.6016C20.7713 45.6016 20.8952 45.4104 21.058 45.1768L21.3539 44.752L21.0139 45.1075C20.4676 45.6786 19.9335 46.6682 19.8039 47.3492C19.7685 47.5354 19.7941 47.5187 20.3912 46.9683C20.7346 46.6517 21.176 46.2331 21.372 46.0382C21.8091 45.6037 22.8205 44.4181 22.7847 44.3823C22.7703 44.368 22.6243 44.4687 22.4602 44.6061L22.1617 44.856L22.2026 44.6868C22.3005 44.2818 22.7051 43.465 23.0661 42.9436C23.2812 42.633 23.4479 42.3789 23.4366 42.3789C23.4253 42.3789 23.1999 42.6263 22.9357 42.9287ZM23.5082 43.7705C23.4353 43.8635 23.4374 43.8655 23.5303 43.7927C23.6279 43.7161 23.6589 43.668 23.6107 43.668C23.5986 43.668 23.5524 43.7142 23.5082 43.7705ZM17.0198 49.547C16.8773 49.7186 16.4197 50.7113 16.44 50.8047C16.4648 50.919 16.7026 50.485 16.9552 49.8643C17.1216 49.4554 17.13 49.4142 17.0198 49.547ZM14.614 54.9522C14.6169 55.0204 14.6307 55.0343 14.6494 54.9876C14.6664 54.9453 14.6643 54.8947 14.6448 54.8753C14.6254 54.8558 14.6115 54.8904 14.614 54.9522ZM5.10328 63.9829C5.17617 63.9969 5.28164 63.9963 5.33766 63.9817C5.39367 63.967 5.33402 63.9556 5.20512 63.9562C5.07621 63.9569 5.03039 63.9689 5.10328 63.9829ZM5.80769 63.9847C5.97791 63.9966 6.24158 63.9965 6.39363 63.9844C6.54562 63.9724 6.40629 63.9627 6.08402 63.9628C5.76176 63.963 5.63742 63.9728 5.80769 63.9847Z" fill="white"/>
</svg>
