<svg width="70" height="71" viewBox="0 0 70 71" fill="none" xmlns="http://www.w3.org/2000/svg">
<path d="M30.8062 0.16605C30.5262 0.39005 30.6242 1.31405 30.9182 1.20205C31.0162 1.16005 31.3242 1.09005 31.5902 1.03405C32.2342 0.92205 32.3042 0.78205 31.9962 0.34805C31.7162 -0.0299499 31.1702 -0.11395 30.8062 0.16605Z" fill="black"/>
<path d="M38.3522 0.824028C38.1282 0.964027 37.6942 1.13203 37.3722 1.18803C36.8962 1.27203 36.8402 1.30003 37.0642 1.39803C37.3302 1.49603 37.3162 1.51003 36.9942 1.58003C36.7982 1.62203 36.3082 1.70603 35.8882 1.74803C35.2022 1.83203 35.1042 1.80403 34.8382 1.48203C34.6702 1.30003 34.3202 1.10403 34.0542 1.04803C33.6482 0.964027 33.5922 0.978027 33.7462 1.13203C34.2362 1.65003 33.5642 1.88803 32.9342 1.39803C32.5982 1.14603 32.5842 1.14603 32.3042 1.39803C32.0802 1.59403 31.6322 1.69203 30.1762 1.80403C29.1682 1.90203 28.0342 2.05603 27.6562 2.16803C26.7322 2.44803 26.7182 2.42003 27.5862 2.02803C28.0202 1.83203 28.3142 1.60803 28.3142 1.46803C28.3142 1.23003 28.2162 1.18803 27.4462 1.04803C26.9562 0.978027 26.9142 0.992027 26.9142 1.31403C26.9142 1.55203 26.7602 1.76203 26.4662 1.97203C26.2142 2.14003 25.9762 2.30803 25.9482 2.33603C25.9202 2.35003 25.9762 2.63003 26.0742 2.95203C26.2422 3.45603 26.3122 3.51203 26.6482 3.47003C26.8722 3.42803 26.9982 3.47003 26.9562 3.54003C26.8022 3.80603 25.9202 4.05803 25.2062 4.05803C24.4782 4.04403 24.4642 4.04403 24.8842 3.86203L25.3042 3.68003L24.7862 3.42803C24.3522 3.21803 24.1982 3.20403 23.8902 3.34403C23.4562 3.54003 23.3022 3.45603 23.5542 3.14803C23.6522 3.02203 23.7082 2.91003 23.6802 2.88203C23.6102 2.82603 20.0822 3.84803 18.3742 4.40804C16.7362 4.94003 14.6782 6.01803 13.7822 6.80203C13.0402 7.44603 12.9982 7.62803 13.5442 7.72603C13.6982 7.75403 13.8242 7.83803 13.8242 7.90803C13.8382 7.99203 13.8942 8.20203 13.9502 8.38403L14.0622 8.72003L14.2442 8.28603C14.4682 7.76803 14.8602 7.50203 15.9242 7.12403C16.7922 6.81603 17.0022 6.85803 16.6522 7.23603C16.4002 7.53003 15.9382 8.66403 15.7842 9.37803L15.6862 9.86803L16.1062 9.30803C16.3302 9.00003 16.9042 8.38403 17.3802 7.95003C18.0942 7.27803 18.2342 7.06803 18.2482 6.64803C18.2622 6.38203 18.2762 6.07403 18.2902 5.97603C18.3182 5.57003 19.2842 5.30403 19.6062 5.62603C19.7322 5.75203 19.6202 5.94803 19.1442 6.45203C18.7942 6.83003 18.5142 7.23603 18.5142 7.36203C18.5142 7.53003 18.6822 7.41803 19.0742 6.99803C19.5362 6.49403 19.6762 6.42403 19.9982 6.49403C20.4182 6.60603 20.8942 6.32603 20.5862 6.14403C20.4882 6.08803 20.4462 6.00403 20.4742 5.97603C20.7822 5.73803 22.7002 4.61803 22.8262 4.61803C23.0642 4.61803 23.1762 5.20603 23.0082 5.61203C22.9382 5.82203 22.6302 6.10203 22.3362 6.25603C22.0422 6.41003 21.3142 6.78803 20.7122 7.11003C19.8582 7.57203 19.4802 7.69803 18.9342 7.69803C18.3462 7.69803 18.2342 7.74003 18.2342 7.96403C18.2342 8.10403 18.3322 8.30003 18.4442 8.39803C18.5562 8.49603 18.6542 8.65003 18.6542 8.76203C18.6542 9.04203 17.9402 9.49003 17.1702 9.67203C16.7922 9.77003 15.9942 10.078 15.4062 10.386C14.6362 10.764 14.3142 10.862 14.3142 10.722C14.3142 10.624 14.4682 10.106 14.6782 9.58803C14.8742 9.05603 15.0142 8.46803 14.9862 8.27203C14.9162 7.68403 14.5522 7.83803 14.3142 8.56603C14.1462 9.11203 14.0622 9.21003 13.8242 9.15403C13.6702 9.11203 13.3062 9.18203 13.0122 9.30803C12.7322 9.42003 12.4942 9.47603 12.4942 9.42003C12.4942 9.36403 12.7322 9.07003 13.0122 8.76203L13.5442 8.21603L12.7042 8.80403C12.2422 9.14003 11.3042 9.78403 10.6042 10.26C9.3862 11.086 7.7342 12.584 7.7342 12.836C7.7342 12.906 7.9162 12.948 8.1542 12.906C8.7702 12.822 8.7002 13.116 7.8042 14.208C7.3842 14.712 7.0342 15.174 7.0342 15.202C7.0342 15.328 7.1882 15.244 7.6502 14.838C7.9302 14.586 8.1682 14.474 8.2242 14.544C8.2662 14.628 7.5662 15.426 6.6702 16.308C5.0602 17.918 5.0462 17.946 5.1442 18.45C5.2562 19.038 5.4942 19.388 5.4942 18.954C5.4942 18.142 6.1102 16.798 6.4882 16.798C6.6982 16.798 6.6282 17.246 6.1102 19.262C5.8302 20.34 5.5642 21.712 5.5082 22.328L5.4242 23.448L4.9062 22.608C4.6122 22.146 4.3742 21.866 4.3742 21.992C4.3742 22.118 4.0242 22.65 3.6042 23.168C3.1842 23.672 2.8342 24.12 2.8342 24.148C2.8342 24.162 2.7362 24.414 2.6242 24.694C2.5122 24.974 2.4422 25.198 2.4702 25.198C2.4982 25.198 2.7362 24.876 2.9882 24.47L3.4502 23.756L3.6322 24.162C3.8842 24.75 3.8562 25.226 3.4642 27.298C3.1142 29.188 3.0442 30.364 3.2542 30.868C3.3662 31.12 3.3802 31.12 3.3802 30.784C3.3942 30.336 3.7162 29.888 3.9262 30.014C4.1362 30.14 4.1362 30.994 3.9402 31.904C3.7302 32.898 3.4782 33.01 3.5622 32.058L3.6322 31.33L3.1702 31.4C2.6102 31.498 2.6102 31.484 2.4702 29.608C2.4282 28.838 2.3302 28.068 2.2602 27.886C2.0782 27.41 1.7422 27.508 1.6302 28.068C1.5042 28.782 1.6582 29.664 2.2742 31.568C2.8762 33.444 3.0722 34.298 2.8762 34.298C2.8062 34.298 2.5542 34.032 2.3022 33.71C1.8262 33.094 1.7562 33.136 2.0082 33.85C2.0922 34.088 2.2322 34.27 2.3162 34.256C2.4282 34.242 2.4842 34.592 2.4842 35.46C2.4842 36.132 2.4562 36.678 2.4142 36.678C2.3722 36.678 2.1342 36.552 1.8962 36.398L1.4342 36.118L1.4482 36.51C1.4622 37.294 1.6442 38.148 1.7842 38.106C1.9522 38.05 2.7082 41.004 3.1422 43.426C3.3242 44.392 3.5062 45.134 3.5482 45.05C3.6602 44.868 4.0242 45.526 4.1642 46.184C4.3322 46.94 4.5002 46.408 4.4302 45.358L4.3742 44.448L4.5842 45.218C4.7102 45.638 4.8642 46.66 4.9342 47.486C5.0042 48.326 5.1442 49.292 5.2282 49.656L5.3962 50.3L5.6482 49.992L5.9002 49.684L6.0962 50.16C6.5302 51.196 6.5442 51.28 6.1662 51.21L5.8162 51.14L6.1382 51.63C6.3202 51.896 6.4742 52.26 6.4742 52.428C6.4742 52.708 6.9922 53.338 7.2162 53.338C7.2722 53.338 7.2862 53.17 7.2302 52.96C7.1882 52.736 7.4402 53.086 7.7902 53.716C8.1402 54.36 8.4342 55.018 8.4342 55.2C8.4342 55.858 9.0502 56.754 10.1142 57.608C10.6882 58.084 11.2342 58.602 11.3182 58.77C11.4722 59.078 13.4882 60.996 14.9302 62.186C15.9802 63.068 17.8702 64.328 19.2562 65.098C19.9002 65.448 20.2922 65.742 20.1942 65.798C20.0402 65.896 24.2262 68.29 25.6962 68.934C27.2922 69.634 28.6922 69.998 29.7982 69.998C30.3582 69.998 30.8342 69.956 30.8342 69.914C30.8342 69.872 30.7642 69.718 30.6942 69.564C30.5962 69.382 30.5962 69.298 30.6942 69.298C30.7642 69.298 30.8342 69.186 30.8342 69.046C30.8342 68.822 31.0582 68.808 33.6622 68.808C36.7142 68.808 38.3242 68.612 40.9422 67.968C41.7262 67.772 42.3842 67.618 42.3982 67.618C42.4262 67.618 42.4542 67.912 42.4542 68.29C42.4542 69.102 42.7482 69.578 43.2522 69.578H43.6162L43.2242 69.214C42.9022 68.92 42.8462 68.78 42.9162 68.36C43.0142 67.8 43.3222 67.408 43.8822 67.114C44.2462 66.918 44.2742 66.932 44.2742 67.184C44.2742 67.73 44.6802 67.758 46.7382 67.394C47.8022 67.212 48.8522 67.016 49.0762 66.974C49.4122 66.89 49.4542 66.918 49.4542 67.254C49.4542 67.674 49.4822 67.688 50.3782 67.408C50.7562 67.296 51.0782 67.198 51.1062 67.198C51.1202 67.198 51.1342 67.422 51.1342 67.688C51.1342 67.996 51.0502 68.22 50.8962 68.304C50.7562 68.388 50.7002 68.458 50.7562 68.458C50.9522 68.458 51.7222 67.87 51.6382 67.8C51.5962 67.758 51.6942 67.534 51.8482 67.324L52.1282 66.918H51.5122C51.1622 66.918 50.7002 66.876 50.4622 66.834C50.0842 66.764 50.0422 66.708 50.1542 66.484C50.2382 66.344 50.2942 66.022 50.2942 65.77V65.294L51.3582 65.392L52.4222 65.504L52.8422 65.028C53.0662 64.762 53.7382 64.286 54.3262 63.95C54.9142 63.628 55.6282 63.138 55.8802 62.872C56.1462 62.592 56.3142 62.466 56.2442 62.578C56.1742 62.704 56.2442 62.69 56.4262 62.522C56.7762 62.228 56.8602 62.018 56.5242 62.298C56.3702 62.424 56.3142 62.424 56.3142 62.312C56.3142 62.228 56.4122 62.116 56.5242 62.074C56.6362 62.018 56.7342 61.878 56.7342 61.738C56.7342 61.612 56.9162 61.248 57.1542 60.926L57.5602 60.352L56.8182 60.618C56.1602 60.842 54.4242 61.178 53.9202 61.178C53.8222 61.178 53.9482 60.954 54.2142 60.688C54.5782 60.31 54.7322 60.24 54.9282 60.352C55.1382 60.464 55.2642 60.38 55.6282 59.89C55.8662 59.554 56.1882 59.036 56.3422 58.728C56.6362 58.154 58.0082 56.236 58.4002 55.858C58.5262 55.732 59.0302 55.144 59.5342 54.528C60.0382 53.912 60.8782 52.904 61.4102 52.288C62.6562 50.832 64.2242 48.452 65.1342 46.646C65.7082 45.484 65.9042 45.204 66.1142 45.26C66.3382 45.316 66.3662 45.204 66.4222 44.364C66.4502 43.846 66.5202 43.37 66.5622 43.328C66.6182 43.272 66.8002 43.328 66.9822 43.454C67.6122 43.902 67.6962 43.776 67.5842 42.586C67.4442 41.074 67.4582 40.108 67.6402 39.8C67.7242 39.66 67.7942 39.618 67.7942 39.716C67.7942 39.926 68.3122 40.22 68.4942 40.108C68.5782 40.052 68.4802 39.73 68.2842 39.324C67.9902 38.764 67.9622 38.638 68.1442 38.638C68.2702 38.638 68.4802 38.372 68.6342 38.022C68.7742 37.686 68.9562 37.392 69.0402 37.364C69.1242 37.322 69.0262 36.678 68.7742 35.572C68.2702 33.5 68.2562 33.234 68.6482 33.136C68.9142 33.066 68.9282 33.094 68.8442 33.556C68.7882 33.906 68.8162 34.088 68.9422 34.172C69.5302 34.55 69.6282 34.074 69.1942 32.814C69.0262 32.366 68.9002 31.694 68.9002 31.344C68.8862 30.728 68.8722 30.7 68.5362 30.77L68.1722 30.84L68.2142 28.964C68.2842 26.108 68.2842 26.094 67.8082 25.814C67.4582 25.618 67.3182 25.324 66.8982 23.994C66.2822 22.09 65.2602 19.78 64.3782 18.296C64.0282 17.694 63.7342 17.106 63.7342 17.008C63.7342 16.91 63.4682 16.518 63.1322 16.154C62.8102 15.776 62.1662 14.992 61.7042 14.418C60.5702 12.99 58.4562 10.904 57.0002 9.77003C55.9082 8.91603 53.1502 7.08203 52.7722 6.95603C52.6882 6.92803 52.8422 6.63403 53.1502 6.25603C53.7382 5.54203 53.7662 5.12203 53.2622 4.78603C52.9402 4.57603 52.9402 4.57603 53.1082 4.94003C53.2482 5.24803 53.2342 5.37403 53.0382 5.65403C52.7022 6.17203 52.2962 6.34003 51.6522 6.24203C51.3302 6.18603 51.0082 6.08803 50.9242 6.03203C50.8542 5.96203 50.5462 5.83603 50.2522 5.73803C49.7622 5.58403 49.7342 5.55603 49.9302 5.33203C50.0562 5.19203 50.1542 5.01003 50.1542 4.92603C50.1542 4.59003 49.2722 3.79203 48.0262 2.96603C46.6122 2.04203 46.1922 1.97203 45.7022 2.58803L45.4502 2.89603L44.7782 2.11203C44.1062 1.34203 44.0782 1.32803 43.3082 1.31403C42.8742 1.31403 42.1182 1.17403 41.6142 1.02003C41.1102 0.866028 40.2702 0.698029 39.7242 0.642029C38.9122 0.586029 38.6742 0.614029 38.3522 0.824028ZM39.0522 0.782028C39.0102 0.824028 38.8842 0.838028 38.7862 0.796028C38.6742 0.754028 38.7162 0.712029 38.8702 0.712029C39.0242 0.698029 39.1082 0.740028 39.0522 0.782028ZM49.0062 5.01003C49.2022 5.30403 49.2022 5.31803 48.7682 5.16403C48.3342 5.01003 48.2502 4.89803 48.4322 4.70203C48.5722 4.56203 48.7822 4.67403 49.0062 5.01003ZM11.6262 10.386C11.5142 10.568 11.1502 11.184 10.8142 11.758C10.4782 12.332 10.1842 12.822 10.1702 12.85C10.1562 12.878 9.9882 12.822 9.8202 12.724L9.4982 12.556L9.8762 12.262C10.0862 12.094 10.2542 11.898 10.2542 11.828C10.2542 11.674 11.6262 10.078 11.7522 10.078C11.7942 10.078 11.7382 10.218 11.6262 10.386ZM9.4142 18.576C9.2602 18.814 9.2602 18.814 9.3302 18.576C9.3722 18.436 9.4142 18.24 9.4282 18.156C9.4282 18.03 9.4562 18.03 9.4982 18.156C9.5402 18.254 9.4982 18.436 9.4142 18.576ZM11.2342 19.444C11.2342 19.514 11.1362 19.64 11.0242 19.738C10.8562 19.878 10.8142 19.878 10.8142 19.71C10.8142 19.598 10.8562 19.458 10.9122 19.416C11.0382 19.276 11.2342 19.29 11.2342 19.444ZM9.5542 19.794C9.5542 19.822 9.5962 19.948 9.6382 20.06C9.6802 20.186 9.4982 20.424 9.1622 20.69L8.6302 21.124L8.8402 20.424C8.9942 19.934 9.1202 19.738 9.3022 19.738C9.4422 19.738 9.5542 19.766 9.5542 19.794ZM10.2122 20.382C10.1282 20.676 9.5962 21.6 9.0362 22.426C8.4762 23.266 7.7482 24.456 7.4262 25.086L6.8242 26.248L6.7822 24.26C6.7542 22.384 6.7682 22.244 7.0622 21.908C7.2302 21.712 7.4402 21.558 7.5522 21.558C7.6502 21.558 7.8322 21.404 7.9582 21.208C8.2102 20.816 8.4342 20.858 8.4342 21.292C8.4342 21.922 9.5122 21.194 10.0022 20.256C10.3382 19.584 10.4362 19.64 10.2122 20.382ZM68.0742 27.494C68.0742 28.11 67.8362 27.76 67.7382 27.018C67.6542 26.416 67.6542 26.402 67.8502 26.738C67.9762 26.934 68.0602 27.27 68.0742 27.494ZM5.9982 27.284C6.1102 27.186 6.2362 27.158 6.2922 27.2C6.4322 27.34 5.7602 28.838 5.5502 28.838C5.1582 28.838 4.8502 27.662 5.0882 27.046L5.2282 26.668L5.5222 27.06C5.7462 27.368 5.8442 27.41 5.9982 27.284ZM46.7942 66.148C46.7942 66.288 46.6542 66.358 46.3462 66.358L45.8842 66.344L46.2342 66.148C46.6822 65.896 46.7942 65.896 46.7942 66.148ZM45.5622 67.156C45.7582 67.408 45.3242 67.548 44.8622 67.394C44.3302 67.212 44.3302 66.946 44.8622 66.722C45.2822 66.54 45.3242 66.54 45.3802 66.75C45.4082 66.876 45.4922 67.072 45.5622 67.156ZM30.3442 68.752C30.5402 68.948 29.8402 68.892 29.3642 68.682C28.9442 68.486 28.9582 68.486 29.5742 68.556C29.9242 68.598 30.2602 68.682 30.3442 68.752Z" fill="black"/>
<path d="M35.3562 1.21582C35.5662 1.24382 35.9022 1.24382 36.1262 1.21582C36.3362 1.18782 36.1542 1.15982 35.7342 1.15982C35.3142 1.15982 35.1322 1.18782 35.3562 1.21582Z" fill="black"/>
<path d="M50.5461 4.95382C50.7141 5.17782 50.8541 5.47182 50.8541 5.62582C50.8541 5.77982 50.9241 5.84982 50.9941 5.80782C51.2741 5.63982 51.1201 5.19182 50.6861 4.86982L50.2241 4.54782L50.5461 4.95382Z" fill="black"/>
<path d="M4.26229 18.7998C3.94029 19.1498 3.87029 19.5278 4.09429 19.6678C4.17829 19.7098 4.23429 19.8918 4.23429 20.0598C4.24829 20.3678 4.24829 20.3678 4.45829 20.0878C4.64029 19.8358 4.64029 19.8078 4.45829 19.7658C4.17829 19.7098 4.17829 19.7098 4.44429 19.0798C4.71029 18.4638 4.65429 18.3798 4.26229 18.7998Z" fill="black"/>
<path d="M1.92426 20.7739C1.74226 21.2499 1.72826 21.4459 1.84026 21.6839C2.13426 22.2019 2.27426 21.9919 2.27426 21.0679C2.27426 20.5639 2.24626 20.1579 2.21826 20.1579C2.19026 20.1579 2.05026 20.4379 1.92426 20.7739Z" fill="black"/>
<path d="M1.25222 23.0978C1.02822 23.4898 0.804222 23.7978 0.748222 23.7978C0.608222 23.7978 0.230222 23.3638 0.146222 23.0978C0.104222 22.9858 0.0482222 23.1258 0.0202222 23.4058C-0.0217778 23.6858 0.00622223 23.8818 0.0622222 23.8538C0.118222 23.8118 0.174222 24.0078 0.174222 24.2738C0.174222 24.5538 0.244222 24.7778 0.314222 24.7778C0.398222 24.7778 0.454222 24.7218 0.454222 24.6518C0.454222 24.5678 0.832222 24.2178 1.29422 23.8678C2.12022 23.2238 2.30222 22.9018 1.96622 22.5658C1.71422 22.3138 1.67222 22.3418 1.25222 23.0978Z" fill="black"/>
<path d="M0.314209 25.6178C0.314209 25.7018 0.412209 25.7578 0.524209 25.7578C0.790209 25.7578 0.790209 25.6738 0.524209 25.5618C0.412209 25.5198 0.314209 25.5478 0.314209 25.6178Z" fill="black"/>
<path d="M67.4022 44.1679C67.2482 44.5179 67.1642 46.3239 67.3042 46.1699C67.3882 46.0859 67.6822 43.9439 67.6122 43.8739C67.5842 43.8459 67.4862 43.9719 67.4022 44.1679Z" fill="black"/>
<path d="M64.4203 49.1659C64.2943 49.6419 64.1543 50.1459 64.0983 50.2719C63.9443 50.6079 64.6163 50.4539 64.9663 50.0619C65.4563 49.5439 65.4703 49.2079 65.0363 48.7179L64.6303 48.2699L64.4203 49.1659Z" fill="black"/>
<path d="M63.5942 50.9718C63.4962 51.1258 63.4542 51.2938 63.4962 51.3218C63.5242 51.3498 63.6222 51.2238 63.7062 51.0278C63.9022 50.6078 63.8042 50.5658 63.5942 50.9718Z" fill="black"/>
<path d="M63.0482 52.3857C62.7402 53.3097 62.7822 53.3097 63.3702 52.4277L63.7342 51.8677V52.4277C63.7202 52.7357 63.6362 53.1417 63.5242 53.3377C63.0202 54.2197 63.4402 54.6117 64.2102 53.9957C64.5602 53.7017 64.5882 53.6317 64.4482 53.3517C64.3362 53.1697 64.3082 52.8197 64.3782 52.4277C64.4622 51.8397 64.4482 51.7977 64.0842 51.6577C63.4542 51.4197 63.3562 51.4897 63.0482 52.3857Z" fill="black"/>
<path d="M60.3882 55.522C60.3882 55.69 60.0242 56.208 59.6042 56.684C58.8622 57.51 58.6662 57.986 58.9742 58.168C59.2262 58.322 59.1282 58.49 58.7362 58.588L58.3442 58.7L58.7502 58.812C59.0302 58.896 59.2402 58.854 59.4922 58.7L59.8422 58.462L59.5202 58.238C59.0302 57.86 59.2542 57.538 60.0242 57.538H60.6542L60.6402 56.936C60.6402 56.278 60.4162 55.06 60.3882 55.522Z" fill="black"/>
<path d="M61.9843 55.5918C61.9283 55.6758 61.9143 55.7598 61.9563 55.8018C61.9843 55.8438 62.0543 55.7738 62.0963 55.6478C62.1943 55.4098 62.1103 55.3678 61.9843 55.5918Z" fill="black"/>
<path d="M61.4242 56.7958C61.2142 57.1318 61.0742 57.4398 61.1022 57.4678C61.1162 57.4818 61.3402 57.5518 61.5782 57.5938C61.9562 57.6778 62.0682 57.6358 62.3202 57.3138C62.7122 56.8238 62.6982 56.6698 62.1942 56.3898L61.7882 56.1658L61.4242 56.7958Z" fill="black"/>
<path d="M58.4002 59.5961L57.9242 60.1001L58.3722 59.7921C58.8482 59.4701 59.0442 59.2461 58.9462 59.1341C58.9182 59.1061 58.6662 59.3161 58.4002 59.5961Z" fill="black"/>
<path d="M52.4642 66.6378C52.4222 66.7078 52.4502 66.7778 52.5202 66.7778C52.6042 66.7778 52.6742 66.7078 52.6742 66.6378C52.6742 66.5538 52.6462 66.4978 52.6182 66.4978C52.5762 66.4978 52.5062 66.5538 52.4642 66.6378Z" fill="black"/>
<path d="M47.9843 68.192C47.3963 68.794 47.3403 68.892 47.6343 68.808C48.2363 68.64 48.8243 68.248 48.8663 67.982C48.9783 67.422 48.6423 67.506 47.9843 68.192Z" fill="black"/>
<path d="M45.1843 68.0379L44.6243 68.2899L45.1563 68.3039C45.5063 68.3179 45.7163 68.2479 45.7723 68.1079C45.8983 67.7719 45.7863 67.7579 45.1843 68.0379Z" fill="black"/>
<path d="M36.7842 69.0179C35.3982 69.1579 33.6062 69.2839 32.7942 69.2979L31.3242 69.3259L32.7242 69.5919C33.5222 69.7599 35.0482 69.8999 36.2942 69.9559L38.4642 70.0259L38.1142 69.7459L37.7642 69.4659L38.1142 69.3119C38.3102 69.2419 38.9682 69.1299 39.5842 69.0739C40.4102 69.0039 40.6062 68.9479 40.3542 68.8639C39.8642 68.7239 39.6402 68.7379 36.7842 69.0179Z" fill="black"/>
<path fill-rule="evenodd" clip-rule="evenodd" d="M15.1368 13.3133C15.1368 13.3456 15.1624 13.388 15.1938 13.4073C15.2251 13.4267 15.2803 13.5535 15.3164 13.6891C15.3998 14.0025 15.4736 14.0824 15.9198 14.3434C16.12 14.4604 16.32 14.6143 16.3643 14.6852C16.4224 14.7782 16.3845 14.7611 16.2281 14.6238C15.9734 14.4002 15.6595 14.2579 15.4207 14.2579C15.1831 14.2579 14.8654 14.4011 14.7899 14.5421C14.6574 14.7897 14.7535 15.2603 14.9542 15.347C15.0456 15.3865 15.6055 15.4797 15.6055 15.4555C15.6055 15.4489 15.4605 15.3726 15.2833 15.2859C14.9482 15.122 14.8535 14.9729 14.9306 14.7303C14.9804 14.5731 15.2534 14.4327 15.5 14.4374C15.6692 14.4407 15.6775 14.4476 15.5667 14.4923C15.4327 14.5463 15.3388 14.7442 15.4001 14.8434C15.4621 14.9437 15.5956 14.9087 15.6359 14.7818C15.6952 14.595 15.9979 14.6877 16.2647 14.9743C16.3856 15.104 16.4844 15.2221 16.4844 15.2365C16.4844 15.251 16.7437 15.5707 17.0606 15.9469C17.3774 16.3231 17.6989 16.7619 17.7751 16.922C17.8577 17.0958 18.1139 17.4142 18.4116 17.713C18.6855 17.988 18.832 18.1471 18.7371 18.0665L18.5645 17.9201L18.7048 18.0794C18.7821 18.167 18.8636 18.2274 18.886 18.2135C18.9084 18.1996 19.0167 18.2856 19.1265 18.4045C19.2414 18.5289 19.265 18.5714 19.182 18.5048C19.1027 18.441 19.1604 18.5315 19.3103 18.706C19.4981 18.9246 19.5952 19.0977 19.6225 19.2627C19.6443 19.3943 19.688 19.5514 19.7197 19.6117C19.7604 19.6891 19.7584 19.7096 19.7129 19.6815C19.6775 19.6596 19.6485 19.6532 19.6485 19.6673C19.6485 19.7461 19.8316 20.1109 19.941 20.2499C20.0845 20.4324 20.6504 20.7321 21.0335 20.8286C21.1733 20.8638 21.2732 20.9159 21.2556 20.9444C21.238 20.9729 21.2845 20.997 21.3589 20.9981C21.4925 20.9999 21.4928 21.001 21.377 21.092C21.262 21.1824 21.2624 21.1834 21.3945 21.1439C21.4757 21.1197 21.5673 21.1347 21.6254 21.1818C21.7068 21.2478 21.714 21.2469 21.6715 21.1766C21.6417 21.127 21.682 21.1388 21.7714 21.2059C21.854 21.2679 21.912 21.3344 21.9002 21.3538C21.8744 21.3964 22.3673 21.7579 22.451 21.7579C22.4834 21.7579 22.5186 21.7782 22.5294 21.8029C22.5401 21.8277 22.6249 21.9068 22.7179 21.9787C22.8109 22.0507 22.8525 22.1095 22.8104 22.1095C22.7683 22.1095 22.6855 22.0657 22.6264 22.0122C22.5672 21.9587 22.5054 21.9283 22.489 21.9447C22.4726 21.9611 22.6056 22.0718 22.7845 22.1905C22.9635 22.3094 23.0984 22.4254 23.0844 22.4485C23.0704 22.4715 23.1612 22.5546 23.2861 22.6332C23.5289 22.7859 23.5567 22.8644 23.3303 22.7576C23.2091 22.7005 23.2066 22.7016 23.3085 22.7675C23.5128 22.8996 23.8672 23.2609 23.8672 23.337C23.8672 23.3777 23.9326 23.4624 24.0126 23.5254C24.0925 23.5882 24.1519 23.6679 24.1444 23.7025C24.137 23.737 24.1918 23.7708 24.2662 23.7774C24.3407 23.7842 24.4593 23.8523 24.5299 23.9288C24.6364 24.0444 24.6384 24.0525 24.5411 23.9766C24.3956 23.863 24.2774 23.7947 24.2774 23.8241C24.2774 23.8363 24.4508 23.9853 24.6627 24.1551C24.8746 24.3249 25.0335 24.4784 25.0157 24.4962C24.9979 24.514 24.9377 24.4918 24.8819 24.447C24.8261 24.4021 24.8549 24.4643 24.9461 24.5851C25.0371 24.7059 25.1348 24.8048 25.1633 24.8048C25.1916 24.8048 25.2149 24.8305 25.2149 24.8619C25.2149 24.8987 25.1626 24.8992 25.0684 24.8634C24.9878 24.8328 24.9219 24.8216 24.9219 24.8386C24.9219 24.8556 25.001 24.8971 25.0977 24.9308C25.1944 24.9645 25.2735 25.0187 25.2735 25.0512C25.2735 25.0837 25.2273 25.0943 25.1709 25.0746C25.1003 25.0501 25.1113 25.0753 25.2063 25.156C25.2822 25.2203 25.372 25.2558 25.4058 25.2349C25.44 25.2137 25.4501 25.2247 25.4286 25.2595C25.4074 25.294 25.4099 25.3333 25.4343 25.3469C25.4832 25.3742 25.3877 25.3511 25.2295 25.2974C25.1556 25.2723 25.1483 25.2778 25.2029 25.3171C25.2447 25.3472 25.2848 25.4645 25.2921 25.5778C25.2994 25.6912 25.3751 25.8894 25.4604 26.0184L25.6155 26.2527L25.3006 26.5492C25.0351 26.7991 24.9991 26.8567 25.071 26.9164C25.2064 27.0287 25.1775 27.0872 24.8087 27.4469C24.415 27.831 24.1546 27.9351 23.1202 28.1219C22.7899 28.1816 22.5196 28.2474 22.5196 28.2683C22.5196 28.3303 23.3684 28.4376 23.8584 28.4376C24.218 28.4376 24.4146 28.4007 24.7952 28.2618C25.4365 28.0278 25.4668 28.0297 25.3553 28.2966L25.2673 28.5072L25.4902 28.3808C25.8782 28.1607 25.9996 28.038 25.922 27.9444C25.8698 27.8816 25.8704 27.8518 25.9242 27.8186C25.9673 27.7919 25.9794 27.7997 25.9554 27.8386C25.8588 27.9949 26.0456 27.9482 26.3064 27.7509C26.4634 27.632 26.5556 27.5798 26.5114 27.6347C26.392 27.7829 26.4749 27.7562 26.7476 27.5587C26.9827 27.3885 27.1717 27.3365 27.227 27.4269C27.2419 27.4511 27.0701 27.5968 26.8453 27.7506C26.6205 27.9045 26.4554 27.9999 26.4785 27.9627C26.5044 27.9207 26.4894 27.9059 26.4388 27.9236C26.3941 27.9393 26.3611 27.9952 26.3655 28.0478C26.3699 28.1004 26.3531 28.1308 26.3282 28.1154C26.2573 28.0715 26.1466 28.2373 26.1832 28.3326C26.2032 28.3848 26.1808 28.4181 26.1256 28.4181C26.0118 28.4181 26.012 28.3796 26.1264 28.2163C26.1766 28.1447 26.2033 28.0861 26.1857 28.0861C26.1682 28.0861 26.0848 28.1982 26.0003 28.3351C25.9158 28.472 25.632 28.8062 25.3696 29.0777C24.9702 29.491 24.9427 29.5306 25.2001 29.3214C25.3692 29.184 25.5226 29.0471 25.541 29.0173C25.5595 28.9875 25.5996 28.9785 25.6301 28.9974C25.661 29.0165 25.6335 29.0981 25.5683 29.181C25.4576 29.3217 25.4564 29.4725 25.5664 29.4044C25.5942 29.3873 25.6325 29.3984 25.6515 29.4292C25.6706 29.4599 25.6406 29.5105 25.5851 29.5417C25.5048 29.5866 25.4984 29.6154 25.5541 29.6825C25.5925 29.7289 25.6045 29.7883 25.5806 29.8147C25.5567 29.8411 25.5677 29.8452 25.6052 29.8237C25.6426 29.8023 25.6663 29.7388 25.6578 29.6825C25.6494 29.6263 25.7268 29.4747 25.8299 29.3458C25.933 29.2169 26.079 28.9335 26.1543 28.716C26.2296 28.4985 26.3119 28.3204 26.3372 28.3204C26.3624 28.3204 26.3684 28.3587 26.3504 28.4055C26.3325 28.4523 26.4143 28.3995 26.5322 28.2883C26.6502 28.1771 26.7752 28.0861 26.8102 28.0861C26.9253 28.0861 27.2687 27.7868 27.2284 27.7216C27.2067 27.6865 27.214 27.6733 27.2447 27.6923C27.2754 27.7112 27.3385 27.7033 27.3849 27.6746C27.4416 27.6396 27.5486 27.669 27.7113 27.7643C27.8444 27.8424 27.9669 27.8927 27.9833 27.8762C28.016 27.8435 29.2458 28.6768 29.6653 29.0158C29.8088 29.1318 29.9021 29.1876 29.8726 29.1398C29.8051 29.0305 30.2659 29.3921 30.375 29.534C30.4192 29.5916 30.3772 29.5729 30.2815 29.4923L30.1075 29.3458L30.2478 29.5052C30.325 29.5928 30.4066 29.653 30.4293 29.6391C30.4519 29.6251 30.5453 29.6918 30.6368 29.7874C30.7283 29.8829 30.7805 29.9611 30.7528 29.9611C30.6792 29.9611 30.9172 30.2064 31.5011 30.7323C31.7841 30.9873 32.0419 31.1799 32.0738 31.1601C32.1057 31.1404 32.1246 31.1502 32.1158 31.182C32.086 31.2887 34.1214 33.1845 34.5877 33.4844C34.6695 33.537 34.8653 33.7018 35.0228 33.8506C35.316 34.1276 35.5175 34.2245 35.3167 33.992C35.2164 33.8758 35.224 33.8773 35.3916 34.0066C35.5594 34.1362 35.721 34.3511 35.5894 34.2698C35.5597 34.2515 35.5181 34.2646 35.4969 34.2989C35.4703 34.3419 35.4281 34.3386 35.361 34.2883C35.3075 34.2481 35.3945 34.3523 35.5545 34.5198C35.7144 34.6873 35.8582 34.8244 35.874 34.8244C35.8898 34.8244 35.7997 34.7189 35.6739 34.59C35.548 34.4611 35.4707 34.3556 35.5022 34.3556C35.5337 34.3556 35.7697 34.5729 36.0268 34.8385C36.2839 35.1041 36.3651 35.2029 36.2074 35.0582C36.0497 34.9135 35.9372 34.8249 35.9575 34.8613C35.9778 34.8978 36.2123 35.1205 36.4787 35.3563C36.7805 35.6235 36.8856 35.6965 36.7579 35.5499C36.6451 35.4204 36.6978 35.4655 36.875 35.6499C37.2849 36.0763 37.693 36.4148 37.7529 36.3777C37.7784 36.362 37.8352 36.395 37.8792 36.451C37.9531 36.5453 37.9504 36.5464 37.8418 36.465C37.7323 36.3828 37.7301 36.384 37.8077 36.4828C37.8534 36.541 37.9457 36.6178 38.0128 36.6535C38.1267 36.7142 38.1291 36.7111 38.0477 36.6064C37.9997 36.5447 38.0706 36.5983 38.2052 36.7254C38.3398 36.8525 38.437 36.9774 38.4212 37.003C38.4053 37.0286 38.4272 37.0362 38.4697 37.0199C38.5122 37.0036 38.6904 37.1355 38.8662 37.3135C39.1668 37.6179 39.3877 37.7592 39.2113 37.5343C39.1388 37.4418 39.1407 37.4395 39.2316 37.5106C39.2869 37.554 39.3265 37.6114 39.3195 37.6381C39.2989 37.7163 39.935 38.2802 39.999 38.2407C40.031 38.2209 40.04 38.2325 40.019 38.2665C39.9787 38.3318 40.4118 38.7328 41.1691 39.3316C41.4199 39.53 41.6122 39.7132 41.5964 39.7388C41.5635 39.7921 41.8772 40.0981 42.4707 40.5914C42.934 40.9765 42.6135 40.6588 42.0104 40.1352C41.7928 39.9462 41.6299 39.7765 41.6483 39.7581C41.6668 39.7397 41.7803 39.8172 41.9005 39.9303C42.0208 40.0435 42.2378 40.2257 42.3829 40.3351C42.5279 40.4445 42.6664 40.5655 42.6906 40.604C42.7149 40.6424 42.9127 40.8127 43.1301 40.9823C43.3475 41.1519 43.5518 41.3155 43.584 41.346C43.6922 41.448 43.3521 41.2545 43.1153 41.0793C42.9022 40.9217 42.8968 40.9203 43.0567 41.0647C43.1534 41.1521 43.3496 41.3328 43.4929 41.4663C43.6362 41.5998 43.7321 41.6696 43.7062 41.6212C43.6803 41.5729 43.7253 41.6124 43.8064 41.7091C43.8875 41.8058 43.9893 41.8849 44.0326 41.8849C44.0759 41.8849 44.1114 41.9163 44.1114 41.9546C44.1114 42.0248 45.3358 43.1303 46.6162 44.2163C46.9949 44.5375 47.3047 44.8101 47.3047 44.8221C47.3047 44.8738 47.238 44.8288 46.9475 44.5809C46.7781 44.4362 46.626 44.3312 46.6097 44.3475C46.5934 44.3638 46.493 44.2929 46.3866 44.1897C46.2802 44.0866 46.1752 44.0203 46.1531 44.0424C46.1311 44.0644 46.0582 44.0364 45.9911 43.9801C45.8996 43.9035 45.9043 43.9176 46.0095 44.0368C46.0867 44.1242 46.1684 44.1843 46.191 44.1703C46.2584 44.1287 46.5592 44.4773 46.5161 44.5471C46.4942 44.5825 46.4452 44.5957 46.4071 44.5765C46.369 44.5573 46.6755 44.874 47.088 45.2803C47.5173 45.7029 47.8658 46.0018 47.9027 45.979C47.9387 45.9568 47.951 45.9656 47.9304 45.9989C47.8907 46.063 48.0846 46.271 48.1361 46.2195C48.153 46.2026 48.2037 46.2355 48.2485 46.2927C48.3243 46.3892 48.3217 46.3905 48.2129 46.3105C48.1264 46.2469 48.1329 46.2661 48.2378 46.3837C48.3847 46.5485 48.4562 46.5937 48.3831 46.4754C48.357 46.4332 48.3671 46.4237 48.4099 46.4502C48.4477 46.4735 48.4661 46.5127 48.451 46.5372C48.4169 46.5923 49.0276 47.203 49.0722 47.1585C49.09 47.1407 49.1412 47.173 49.186 47.2302C49.2616 47.3264 49.2589 47.3279 49.1504 47.25C49.086 47.2038 49.4143 47.5522 49.88 48.0243C50.3457 48.4964 50.739 48.8706 50.7538 48.8558C50.7686 48.841 50.8753 48.9001 50.991 48.9872C51.1066 49.0742 51.165 49.1005 51.1208 49.0455C51.064 48.9749 51.0608 48.9454 51.1096 48.9454C51.1482 48.9454 51.1604 48.913 51.137 48.8722C51.114 48.8319 51.1784 48.8764 51.28 48.9711C51.3817 49.0657 51.4658 49.1184 51.4668 49.0882C51.4679 49.0581 51.5154 49.0861 51.5723 49.1505C51.6292 49.215 51.7536 49.3334 51.8487 49.4137C51.997 49.5389 51.9929 49.5285 51.8196 49.3404C51.6317 49.1365 51.6304 49.0299 51.8178 49.1945C51.8637 49.2348 51.8511 49.2078 51.7899 49.1345C51.7052 49.0331 51.6665 49.0191 51.6279 49.0759C51.5906 49.1308 51.5817 49.1253 51.5943 49.0548C51.6037 49.0022 51.5043 48.8572 51.3735 48.7326C51.2428 48.6079 51.2032 48.5602 51.2856 48.6265C51.3681 48.6928 51.5933 48.863 51.786 49.0048C52.3678 49.4328 53.4623 50.3713 53.8672 50.7893C54.4138 51.3535 54.9608 51.8783 55.3321 52.1946C55.7201 52.5252 56.5916 53.0136 56.6877 52.9542C56.7295 52.9283 56.7408 52.937 56.7165 52.9764C56.6944 53.012 56.7282 53.0688 56.7914 53.1027C56.9616 53.1937 57.0115 53.1773 56.8813 53.0731C56.7705 52.9843 56.7708 52.9835 56.8905 53.041C56.9774 53.0829 57.0371 53.0795 57.0946 53.0296C57.1393 52.9908 57.1567 52.9831 57.1334 53.0123C57.11 53.0416 57.1236 53.1075 57.1637 53.1588C57.228 53.2414 57.2245 53.2428 57.1338 53.1717C57.0775 53.1275 57.0313 53.118 57.0313 53.1508C57.0313 53.2299 57.1948 53.29 57.2347 53.2255C57.252 53.1976 57.2489 53.1262 57.2279 53.0669C57.1965 52.978 57.2123 52.9823 57.3182 53.0913C57.3889 53.164 57.5112 53.2658 57.59 53.3175C57.6689 53.3691 57.7164 53.4389 57.6956 53.4726C57.6723 53.5103 57.6864 53.5162 57.7322 53.4878C57.785 53.4552 57.7245 53.3715 57.5244 53.2005C57.3691 53.0677 57.2144 52.9579 57.1806 52.9565C57.1468 52.955 57.1267 52.9193 57.1359 52.877C57.1555 52.7869 57.0434 52.6368 56.9565 52.6368C56.9232 52.6368 56.9437 52.6896 57.002 52.754C57.0678 52.8268 57.081 52.8712 57.0369 52.8712C56.9966 52.8712 56.9841 52.9029 57.0079 52.9445C57.0324 52.987 57.0277 52.9973 56.9967 52.9689C56.9674 52.942 56.9434 52.8937 56.9434 52.8616C56.9434 52.8294 56.8247 52.6975 56.6797 52.5684C56.4764 52.3874 56.4643 52.3684 56.6266 52.4853C56.9804 52.7399 56.9629 52.652 56.5918 52.3101C56.2458 51.9913 56.2485 51.9926 56.7676 52.3905C57.0577 52.6128 57.5191 52.9477 57.793 53.1347C58.0669 53.3216 58.3327 53.5102 58.3836 53.5537C58.5507 53.6969 58.5395 53.6384 58.3116 53.1788C58.1878 52.9291 57.9245 52.3356 57.7265 51.8601C57.5285 51.3845 57.1453 50.5934 56.875 50.1023C56.6047 49.611 56.2553 48.9586 56.0985 48.6525C55.8805 48.2267 55.7258 48.0132 55.4401 47.7443C53.2371 45.67 52.1208 44.5799 52.1504 44.532C52.1712 44.4984 52.1559 44.4929 52.1136 44.519C52.0672 44.5477 51.9205 44.4407 51.7045 44.2204C51.3008 43.8086 50.9162 43.442 48.8868 41.5343C48.0328 40.7315 46.9385 39.6907 46.4551 39.2214C44.8376 37.6511 42.5455 35.5677 40.9473 34.215C37.7883 31.5413 34.5864 28.6495 34.0441 27.9804C33.8002 27.6794 33.6128 27.5116 33.4126 27.4151C33.0192 27.2253 31.8188 26.2852 30.6257 25.2327C30.2103 24.8662 30.2071 24.8611 30.2674 24.6644C30.3082 24.5315 30.3982 24.4266 30.5401 24.3467C30.6567 24.281 30.831 24.1398 30.9277 24.0327L31.1033 23.838L30.8691 24.0431L30.6348 24.2482L30.8381 24.0271C30.9498 23.9055 31.0742 23.8187 31.1145 23.8341C31.2066 23.8694 31.2732 23.7713 31.1914 23.7208C31.1582 23.7003 31.1496 23.6523 31.1725 23.6143C31.1953 23.5762 31.1677 23.5826 31.1112 23.6285C31.0185 23.7037 31.0202 23.6806 31.1278 23.3941C31.2468 23.0771 31.2468 23.0767 31.129 23.2228C31.064 23.3034 30.9165 23.5143 30.8012 23.6915C30.4058 24.2994 30.0424 24.6841 30.0928 24.4414C30.1008 24.4026 30.057 24.3696 29.9953 24.3681C29.8775 24.3652 29.785 24.2189 29.901 24.2189C29.9378 24.2189 29.9516 24.2452 29.9317 24.2775C29.8849 24.3532 29.9459 24.3529 30.0367 24.2768C30.0756 24.2443 30.18 24.1632 30.2686 24.0968C30.4274 23.9778 30.499 23.8199 30.3565 23.9032C30.3162 23.9268 30.3325 23.8898 30.3928 23.8211C30.453 23.7524 30.5207 23.7017 30.5432 23.7085C30.5824 23.7203 30.9987 23.2339 31.2083 22.9314C31.2635 22.8518 31.3086 22.8122 31.3086 22.8435C31.3086 22.9088 31.7592 22.4288 31.8405 22.2767C32.0004 21.9781 31.7254 22.1481 31.2207 22.6599C30.9952 22.8887 30.8765 22.9986 30.9571 22.904C31.0447 22.8013 30.969 22.8463 30.7689 23.016C30.5848 23.1721 30.4505 23.3261 30.4703 23.3583C30.4911 23.3919 30.4767 23.3983 30.4362 23.3733C30.3976 23.3494 30.325 23.3639 30.2747 23.4056C30.1485 23.5104 30.0294 23.5196 30.0435 23.4235C30.0499 23.3794 30.0719 23.3267 30.0923 23.3063C30.1126 23.286 30.1036 23.2018 30.0722 23.1193C30.0231 22.99 30.0414 22.9422 30.2047 22.7737C30.3584 22.6152 30.374 22.5783 30.2876 22.5783C30.1995 22.5783 30.1937 22.563 30.2539 22.4904C30.2958 22.4399 30.4236 22.4025 30.5541 22.4025C30.7678 22.4025 30.8494 22.3343 30.7266 22.2584C30.6529 22.2129 30.7027 21.8938 30.882 21.2634C31.0046 20.832 31.0252 20.6614 30.9984 20.2966C30.9805 20.053 30.931 19.7614 30.8883 19.6486C30.8128 19.4494 30.8096 19.4598 30.7775 20.0055C30.7489 20.4915 30.7162 20.6263 30.5354 21.0016C30.4203 21.2403 30.165 21.6466 29.968 21.9044C29.75 22.1898 29.5965 22.4534 29.5758 22.5783C29.517 22.9318 29.5099 22.9416 29.3728 22.8579C29.2677 22.7937 29.2391 22.7996 29.1672 22.9005C29.1213 22.965 29.0291 23.0809 28.9624 23.1582L28.8411 23.2987L28.8802 23.1432C28.9127 23.0137 28.8799 22.9482 28.6853 22.7536C28.4824 22.5507 28.4167 22.5197 28.1901 22.5197C28.0464 22.5197 27.7994 22.5589 27.6412 22.6069C27.2518 22.725 27.1934 22.7193 26.9965 22.5435C26.9028 22.4599 26.7326 22.3478 26.6182 22.2944C26.5038 22.241 26.4088 22.171 26.4071 22.1388C26.4053 22.1066 26.2683 21.9988 26.1026 21.8993C25.9369 21.7998 25.8185 21.7013 25.8394 21.6804C25.8603 21.6594 25.7811 21.602 25.6634 21.5529C25.5456 21.5036 25.4493 21.4394 25.4493 21.4101C25.4493 21.3808 25.3584 21.3269 25.2473 21.2902C25.1331 21.2525 25.057 21.1933 25.0721 21.1538C25.0868 21.1155 24.9834 21.0229 24.8423 20.9482C24.7012 20.8735 24.4571 20.6925 24.2998 20.5459C24.1424 20.3994 24.0507 20.2998 24.096 20.3246C24.1513 20.355 24.1644 20.3472 24.1357 20.3008C24.1123 20.2629 23.943 20.1561 23.7596 20.0635C23.4284 19.8964 22.4024 19.0908 22.4024 18.998C22.4024 18.9713 22.3233 18.8594 22.2266 18.7493C22.1299 18.6392 22.0508 18.4846 22.0508 18.4057C22.0508 18.2112 21.7238 17.7307 21.5195 17.625C21.2833 17.5029 20.9604 17.5188 20.6995 17.6655L20.4749 17.7917L20.3188 17.6508C20.2329 17.5733 20.0279 17.3649 19.8633 17.1876C19.1927 16.4658 18.8046 16.1336 18.6315 16.1333C18.5242 16.1331 18.3558 16.047 18.1627 15.8936C17.6259 15.4671 16.836 14.7634 16.836 14.7116C16.836 14.6839 16.8602 14.6762 16.8898 14.6945C16.9495 14.7313 17.1289 14.575 17.1289 14.4862C17.1289 14.396 16.8718 14.3213 16.8222 14.3972C16.7936 14.441 16.7783 14.4336 16.7764 14.3751C16.7742 14.3045 16.7581 14.3077 16.6945 14.3915C16.6216 14.4877 16.6126 14.4882 16.5778 14.3977C16.4884 14.1647 16.9072 13.9907 17.1914 14.1428C17.2852 14.193 17.3047 14.1841 17.3047 14.0909C17.3047 13.9754 16.9982 13.7892 16.808 13.7892C16.6645 13.7892 16.3672 14.11 16.3672 14.2649C16.3672 14.371 16.3311 14.3411 16.1893 14.1175C16.0717 13.9322 15.9825 13.848 15.9263 13.8695C15.878 13.888 15.8473 13.8715 15.8552 13.831C15.8629 13.7919 15.8393 13.7655 15.8029 13.7723C15.7663 13.7791 15.74 13.7402 15.7443 13.6859C15.7492 13.6231 15.64 13.5266 15.4444 13.4208C15.2752 13.3293 15.1368 13.2809 15.1368 13.3133ZM16.836 15.1599C16.836 15.1725 16.8769 15.1986 16.9269 15.2178C16.9791 15.2378 17.0026 15.228 16.982 15.1948C16.9477 15.1391 16.836 15.1124 16.836 15.1599ZM17.1875 15.3952C17.1875 15.4063 17.2271 15.4483 17.2754 15.4884C17.3261 15.5305 17.3633 15.5362 17.3633 15.5018C17.3633 15.4691 17.3238 15.4272 17.2754 15.4086C17.2271 15.3901 17.1875 15.3841 17.1875 15.3952ZM17.4219 15.5733C17.4219 15.5957 17.4615 15.6535 17.5098 15.7019C17.5581 15.7502 17.5977 15.7647 17.5977 15.7342C17.5977 15.7036 17.5581 15.6457 17.5098 15.6056C17.4615 15.5655 17.4219 15.5509 17.4219 15.5733ZM17.7705 15.9834C17.8446 16.0622 17.9613 16.1347 18.0298 16.1445C18.119 16.1572 18.1522 16.2011 18.1469 16.2995C18.1401 16.4236 18.1481 16.428 18.2306 16.3455C18.3268 16.2492 18.3343 16.2587 17.8942 15.9151C17.72 15.7791 17.6269 15.8305 17.7705 15.9834ZM17.5684 16.3673C17.6267 16.4318 17.6876 16.4845 17.7037 16.4845C17.7199 16.4845 17.6853 16.4318 17.627 16.3673C17.5687 16.3029 17.5078 16.2501 17.4916 16.2501C17.4755 16.2501 17.5101 16.3029 17.5684 16.3673ZM18.5736 16.5331C18.5203 16.592 18.4775 16.6645 18.4785 16.6942C18.4796 16.7239 18.5324 16.686 18.5957 16.6098C18.6686 16.5224 18.711 16.5019 18.711 16.5542C18.711 16.5996 18.678 16.6724 18.6377 16.7158C18.5887 16.7685 18.5873 16.7818 18.6335 16.7559C18.6731 16.7337 18.7179 16.7658 18.7387 16.831C18.7732 16.9398 18.7825 16.9405 18.9503 16.8465L19.1257 16.7482L18.9352 16.587C18.7096 16.3963 18.6988 16.3946 18.5736 16.5331ZM19.0202 16.9093C18.8719 17.1011 18.8863 17.1269 19.0864 17.0273C19.2006 16.9705 19.2947 16.9042 19.2954 16.88C19.2979 16.8074 19.0812 16.8305 19.0202 16.9093ZM19.196 17.2023C19.05 17.3911 19.0536 17.4375 19.2051 17.3184C19.4096 17.1575 19.4973 17.1498 19.4029 17.301C19.3639 17.3634 19.3128 17.4025 19.2892 17.388C19.2657 17.3734 19.2274 17.3924 19.204 17.4301C19.1787 17.471 19.1869 17.4831 19.2243 17.46C19.2587 17.4387 19.2989 17.4544 19.3135 17.4949C19.329 17.5377 19.3717 17.5013 19.4156 17.4078C19.479 17.2728 19.506 17.2586 19.5844 17.3189C19.6417 17.363 19.6347 17.3402 19.5662 17.2599C19.4425 17.1149 19.2829 17.09 19.196 17.2023ZM19.4662 17.5538C19.4003 17.6793 19.4024 17.6811 19.5081 17.5908C19.5692 17.5386 19.6587 17.4814 19.7071 17.4635C19.7654 17.4421 19.7514 17.4297 19.6652 17.4266C19.587 17.4238 19.5079 17.4744 19.4662 17.5538ZM19.5899 17.6271C19.5478 17.6778 19.5421 17.715 19.5765 17.715C19.6092 17.715 19.6511 17.6754 19.6697 17.6271C19.6882 17.5787 19.6942 17.5392 19.6831 17.5392C19.672 17.5392 19.63 17.5787 19.5899 17.6271ZM19.7382 17.7276L19.6307 17.9096L19.7842 17.7977C19.9455 17.6801 19.973 17.6242 19.8936 17.5751C19.8673 17.5589 19.7974 17.6275 19.7382 17.7276ZM20.9439 17.7745C20.6988 17.8316 20.0583 18.434 20.2903 18.3893C20.3676 18.3744 20.4493 18.3324 20.4718 18.296C20.4997 18.2509 20.5248 18.2493 20.5506 18.2911C20.5714 18.3248 20.5492 18.3743 20.5013 18.401C20.4454 18.4323 20.4265 18.4971 20.4486 18.5817C20.4778 18.693 20.4974 18.7019 20.5748 18.6391C20.6535 18.5752 20.6604 18.5808 20.6237 18.6785C20.5822 18.7892 20.5843 18.7893 20.6992 18.6853C20.7643 18.6264 20.801 18.5513 20.7806 18.5184C20.7603 18.4855 20.7722 18.4763 20.8073 18.4979C20.8423 18.5195 20.9677 18.4716 21.0859 18.3913C21.2041 18.311 21.3918 18.2284 21.503 18.2075C21.7396 18.1631 21.7471 18.0458 21.5235 17.8871C21.3267 17.7476 21.1812 17.7193 20.9439 17.7745ZM21.092 17.8618C21.0735 17.91 21.0824 17.9493 21.1117 17.9493C21.1911 17.9493 21.2405 17.8452 21.179 17.8073C21.1496 17.7891 21.1105 17.8136 21.092 17.8618ZM20.0163 17.9054C19.8879 18.0714 19.8775 18.1251 19.9736 18.1251C20.0353 18.1251 20.059 18.0935 20.0382 18.0391C20.02 17.9918 20.0344 17.935 20.0702 17.9129C20.1097 17.8885 20.1189 17.8993 20.0935 17.9403C20.0705 17.9775 20.0797 18.0079 20.1138 18.0079C20.1479 18.0079 20.1758 17.9684 20.1758 17.9201C20.1758 17.8132 20.0935 17.8056 20.0163 17.9054ZM21.4649 18.5425C21.3028 18.6072 21.0547 18.8216 21.0547 18.897C21.0547 18.9236 21.1097 18.8904 21.1771 18.8231C21.2443 18.7558 21.3894 18.6632 21.4993 18.6173C21.6093 18.5713 21.6993 18.5209 21.6993 18.5052C21.6993 18.4648 21.6336 18.4753 21.4649 18.5425ZM21.4838 18.7518C21.4136 18.7655 21.3235 18.8161 21.2835 18.8643C21.2197 18.9412 21.2317 18.943 21.3818 18.8789C21.524 18.8183 21.7252 18.6926 21.6377 18.719C21.6232 18.7234 21.5539 18.7382 21.4838 18.7518ZM21.6179 18.9202C21.5955 18.9784 21.5426 18.9994 21.4734 18.9774C21.4058 18.956 21.3343 18.9823 21.2855 19.0466C21.2185 19.1352 21.219 19.1397 21.289 19.0773C21.3836 18.993 21.4875 18.9786 21.4394 19.0565C21.4215 19.0854 21.4494 19.1252 21.5011 19.1451C21.5815 19.176 21.5836 19.1953 21.5154 19.278C21.4428 19.366 21.4482 19.3681 21.5753 19.3003C21.6728 19.2483 21.6935 19.2125 21.6437 19.1817C21.5915 19.1494 21.5985 19.1274 21.6698 19.1001C21.8043 19.0485 21.8293 19.053 21.7871 19.1212C21.7672 19.1535 21.7779 19.1798 21.8109 19.1798C21.8439 19.1798 21.8991 19.1271 21.9336 19.0627C21.9874 18.9623 21.9795 18.9481 21.8786 18.9635C21.8139 18.9734 21.7426 18.9998 21.7203 19.0221C21.698 19.0443 21.6512 19.0618 21.6162 19.0607C21.5814 19.0596 21.615 19.0068 21.6911 18.9435C21.7875 18.8632 21.8027 18.8283 21.7413 18.8283C21.6929 18.8283 21.6373 18.8696 21.6179 18.9202ZM21.7951 19.3013C21.7102 19.368 21.6407 19.4478 21.6407 19.4785C21.6407 19.5381 21.8861 19.4239 22.0801 19.274C22.1967 19.184 22.1967 19.1835 22.0734 19.1817C22.0052 19.1806 21.88 19.2345 21.7951 19.3013ZM21.9853 19.5969C21.8887 19.6935 21.8782 19.7315 21.9379 19.7684C22.0386 19.8306 22.3608 19.6649 22.3073 19.5784C22.2838 19.5404 22.2936 19.5297 22.3307 19.5526C22.3656 19.5742 22.4108 19.5651 22.4311 19.5323C22.5036 19.4149 22.1103 19.4718 21.9853 19.5969ZM22.4208 19.7662C22.3505 19.7945 22.2634 19.8728 22.2274 19.9401C22.1672 20.0524 22.1743 20.0594 22.3121 20.0248C22.4345 19.994 22.4556 20.0046 22.4258 20.0822C22.3976 20.1558 22.4139 20.1681 22.4984 20.1369C22.5584 20.1147 22.6206 20.0792 22.6368 20.058C22.6529 20.0368 22.7188 19.9871 22.7832 19.9475C22.8884 19.8829 22.8824 19.8791 22.7246 19.9101L22.5489 19.9445L22.6954 19.8272L22.8418 19.7097L22.6954 19.7122C22.6148 19.7135 22.4913 19.7378 22.4208 19.7662ZM22.8266 20.0318C22.7222 20.0757 22.6368 20.1371 22.6368 20.1683C22.6368 20.1995 22.6192 20.2707 22.5977 20.3267C22.562 20.4197 22.575 20.4188 22.7481 20.3168C23.1415 20.0851 23.1993 19.8751 22.8266 20.0318ZM23.0062 20.376C22.9158 20.4538 22.8626 20.5384 22.8881 20.5639C22.9511 20.627 23.3399 20.4113 23.3399 20.3132C23.3399 20.1913 23.1875 20.22 23.0062 20.376ZM23.3399 20.5123C23.2378 20.552 23.1097 20.7062 23.1083 20.7911C23.1077 20.8234 23.1329 20.8102 23.1641 20.7618C23.2043 20.6997 23.2212 20.696 23.2218 20.7495C23.2225 20.8034 23.2437 20.8076 23.2959 20.7641C23.3362 20.7306 23.4351 20.6513 23.5157 20.588C23.6491 20.4831 23.6517 20.473 23.545 20.4754C23.4805 20.4769 23.3882 20.4935 23.3399 20.5123ZM23.6621 20.6871C23.5223 20.7214 23.3985 20.8149 23.3985 20.8862C23.3985 20.9662 23.5503 20.9471 23.7776 20.8387C23.9207 20.7705 23.9622 20.7253 23.9115 20.6932C23.871 20.6675 23.8247 20.6491 23.8086 20.6523C23.7925 20.6556 23.7266 20.6712 23.6621 20.6871ZM23.7933 20.9832C23.7365 20.9952 23.7059 21.0307 23.7253 21.0621C23.7446 21.0934 23.7923 21.0981 23.8312 21.0723C23.8702 21.0466 23.8547 21.0693 23.7967 21.1228C23.6455 21.2625 23.667 21.3079 23.833 21.1991C24.0884 21.0319 24.0686 20.9246 23.7933 20.9832ZM30.5652 21.3408C30.4957 21.4615 30.3224 21.7036 30.18 21.8788C29.8538 22.2803 29.7797 22.419 29.6967 22.7833C29.6423 23.0221 29.606 23.0775 29.501 23.083C29.43 23.0867 29.3471 23.0472 29.3167 22.9951C29.267 22.9101 29.2612 22.911 29.2596 23.0031C29.2587 23.0594 29.2563 23.1253 29.2543 23.1495C29.2523 23.1737 29.1988 23.2487 29.1354 23.3162C29.0607 23.3958 29.0345 23.4764 29.0611 23.5456C29.0915 23.6248 29.0821 23.6399 29.0244 23.6042C28.9738 23.5729 28.9608 23.5789 28.987 23.6213C29.0091 23.6571 29.0658 23.6716 29.1129 23.6536C29.1601 23.6355 29.1815 23.593 29.1606 23.5592C29.1397 23.5253 29.1498 23.5145 29.1831 23.535C29.2164 23.5557 29.3193 23.5376 29.4119 23.4949C29.5044 23.4522 29.646 23.3882 29.7266 23.3526C29.872 23.2884 29.8719 23.2881 29.6973 23.3064C29.6006 23.3165 29.5545 23.3131 29.5948 23.2988C29.6351 23.2845 29.668 23.2204 29.668 23.1565C29.668 23.0925 29.6884 23.0527 29.7133 23.0681C29.7382 23.0835 29.8349 22.9105 29.9282 22.6838C30.0507 22.3861 30.1479 22.241 30.2784 22.1615C30.4068 22.0833 30.4286 22.0513 30.3537 22.0511C30.2623 22.0509 30.2707 22.018 30.4176 21.8019C30.572 21.5747 30.746 21.1758 30.7073 21.1371C30.6986 21.1284 30.6346 21.2201 30.5652 21.3408ZM23.9707 21.3457C23.7951 21.5051 23.7906 21.5173 23.9166 21.4945C24.0265 21.4746 24.0461 21.4895 24.0154 21.5697C23.9896 21.6368 24.0313 21.6191 24.1418 21.5161C24.2325 21.4316 24.3462 21.3463 24.3946 21.3265C24.4429 21.3067 24.3902 21.3047 24.2774 21.3219C24.0843 21.3515 24.0789 21.348 24.186 21.2627C24.2486 21.2128 24.2688 21.172 24.2309 21.172C24.193 21.172 24.0759 21.2502 23.9707 21.3457ZM24.603 21.5652C24.5648 21.6647 24.6378 21.661 24.7789 21.5563C24.8896 21.4741 24.8891 21.472 24.7623 21.4807C24.6906 21.4857 24.619 21.5237 24.603 21.5652ZM24.3705 21.635C24.2621 21.7548 24.3187 21.841 24.4518 21.7588C24.5392 21.7047 24.5884 21.5236 24.5157 21.5236C24.4912 21.5236 24.426 21.5737 24.3705 21.635ZM24.7239 21.8355C24.467 21.9823 24.4224 22.0814 24.6062 22.0966C24.6831 22.103 24.7461 22.0806 24.7461 22.0468C24.7461 22.013 24.7695 21.9999 24.7981 22.0175C24.8266 22.0351 24.8824 22.0107 24.9219 21.963C24.9615 21.9154 25.0109 21.887 25.0318 21.8999C25.0528 21.9129 25.1354 21.8871 25.2156 21.8428C25.2958 21.7984 25.335 21.757 25.3028 21.7509C25.0768 21.7075 24.9036 21.7328 24.7239 21.8355ZM25.2892 22.1286C25.1235 22.1888 24.834 22.4777 24.9615 22.4556C25.0923 22.4329 25.1657 22.4692 25.1375 22.5427C25.1191 22.5905 25.2036 22.5607 25.3406 22.4709C25.5985 22.3021 25.5557 22.2188 25.2917 22.3759L25.127 22.4738L25.2563 22.3575C25.3275 22.2935 25.3719 22.2274 25.355 22.2105C25.3381 22.1936 25.359 22.1813 25.4014 22.1832C25.6406 22.1936 25.8035 22.1612 25.7715 22.1095C25.7248 22.0339 25.5285 22.0417 25.2892 22.1286ZM31.3342 22.5929L31.1621 22.7833L31.3526 22.6112C31.5301 22.4508 31.57 22.4025 31.5247 22.4025C31.5146 22.4025 31.4289 22.4881 31.3342 22.5929ZM25.7125 22.519C25.7322 22.5508 25.7123 22.5631 25.6683 22.5462C25.6243 22.5293 25.539 22.57 25.4788 22.6366C25.3791 22.7468 25.3775 22.766 25.4614 22.8499C25.5453 22.9338 25.5704 22.927 25.7395 22.7748C25.8417 22.6828 26.0225 22.5766 26.1414 22.5388L26.3575 22.4701L26.0171 22.4656C25.8067 22.4628 25.6904 22.4832 25.7125 22.519ZM31.7188 22.5799C31.7188 22.6264 31.3779 23.3925 31.2742 23.5792C31.2637 23.598 31.297 23.6134 31.3482 23.6134C31.4031 23.6134 31.497 23.4914 31.5773 23.3155C31.7133 23.0176 31.8249 22.5197 31.7556 22.5197C31.7354 22.5197 31.7188 22.5468 31.7188 22.5799ZM27.6907 22.7928C27.3792 22.903 26.4709 23.7825 26.2783 24.1603C26.2044 24.3053 26.1853 24.3727 26.236 24.3102C26.3266 24.1984 26.3282 24.1987 26.3282 24.3214C26.3282 24.4841 26.4214 24.5399 26.4744 24.409C26.511 24.3184 26.5215 24.3218 26.5665 24.4387C26.5945 24.5112 26.6024 24.6167 26.5842 24.673C26.5659 24.7294 26.6302 24.6437 26.7271 24.4826C26.8239 24.3214 27.01 24.0864 27.1406 23.9603C27.2712 23.8343 27.3618 23.705 27.3421 23.673C27.3219 23.6402 27.3359 23.6332 27.3742 23.6569C27.4133 23.681 27.4591 23.6552 27.4817 23.5962C27.5044 23.5371 27.4918 23.4837 27.452 23.4705C27.3306 23.43 27.3779 23.3496 27.5037 23.3826C27.5851 23.4038 27.6531 23.3734 27.7121 23.2892C27.7603 23.2204 27.8517 23.1642 27.9154 23.1642C27.9792 23.1642 28.0571 23.105 28.0891 23.0324C28.1428 22.9102 28.1454 22.9125 28.124 23.0651C28.1064 23.1904 28.1212 23.2218 28.1861 23.1969C28.233 23.1789 28.2956 23.1642 28.3252 23.1642C28.3547 23.1642 28.3789 23.1362 28.3789 23.1021C28.3789 23.068 28.346 23.0594 28.3057 23.0829C28.2654 23.1065 28.2827 23.0685 28.3441 22.9985C28.4596 22.8667 28.5302 22.8272 28.4668 22.9298C28.4469 22.962 28.4651 22.9888 28.5073 22.9893C28.5633 22.9899 28.5605 23.0051 28.4969 23.0453C28.4284 23.0886 28.4378 23.0983 28.5408 23.0905C28.711 23.0777 28.7061 23.0431 28.5076 22.8529C28.318 22.6712 28.0828 22.654 27.6907 22.7928ZM25.9539 22.9278C25.8135 23.0925 25.7886 23.1652 25.8853 23.1281C25.9352 23.1089 25.9586 23.0652 25.9373 23.0309C25.9136 22.9924 25.9343 22.9821 25.9914 23.0041C26.0457 23.0249 26.0981 23.0032 26.1178 22.9517C26.1364 22.9033 26.1781 22.8802 26.2106 22.9003C26.243 22.9203 26.2696 22.9104 26.2696 22.8783C26.2696 22.7898 26.0409 22.8257 25.9539 22.9278ZM26.6797 22.9884C26.6314 23.0196 26.6145 23.0456 26.6423 23.0461C26.67 23.0466 26.6304 23.102 26.5544 23.1691C26.4543 23.2575 26.4444 23.2823 26.5186 23.2588C26.6787 23.2083 26.6389 23.2775 26.4711 23.3413C26.3886 23.3727 26.3363 23.4229 26.3549 23.453C26.3735 23.4831 26.3619 23.5242 26.3291 23.5445C26.2963 23.5647 26.2696 23.6252 26.2696 23.6788C26.2696 23.7504 26.2951 23.7379 26.3661 23.6314C26.4191 23.5517 26.5829 23.3612 26.7301 23.2081C26.9453 22.9842 26.9751 22.93 26.8826 22.9307C26.8194 22.9312 26.7281 22.9572 26.6797 22.9884ZM26.2157 23.2008C26.0786 23.3752 26.0573 23.4798 26.167 23.4411C26.2073 23.4269 26.2366 23.3723 26.2322 23.3196C26.2278 23.2671 26.2446 23.2367 26.2696 23.2521C26.2945 23.2675 26.3455 23.2432 26.3829 23.1981C26.4253 23.1471 26.4295 23.1027 26.3943 23.0809C26.3631 23.0617 26.2827 23.1156 26.2157 23.2008ZM29.3319 23.3494C29.3248 23.4437 29.339 23.458 29.3897 23.4073C29.4341 23.3629 29.4373 23.3202 29.3992 23.2821C29.361 23.2439 29.3381 23.2669 29.3319 23.3494ZM31.4275 23.3649C31.3404 23.594 31.3576 23.63 31.462 23.4374C31.5116 23.3458 31.5377 23.2565 31.5199 23.2388C31.5022 23.221 31.4606 23.2778 31.4275 23.3649ZM30.2858 23.4531C30.2672 23.4831 30.2745 23.5215 30.3018 23.5384C30.3292 23.5554 30.3516 23.5308 30.3516 23.4839C30.3516 23.3851 30.3331 23.3765 30.2858 23.4531ZM23.8672 23.5379C23.8672 23.55 23.9134 23.5962 23.9698 23.6404C24.0627 23.7133 24.0647 23.7112 23.9919 23.6183C23.9153 23.5207 23.8672 23.4897 23.8672 23.5379ZM26.0132 23.6059C25.9566 23.7532 25.9733 23.7913 26.0423 23.6725C26.0766 23.6137 26.0922 23.5532 26.0771 23.5381C26.062 23.523 26.0332 23.5535 26.0132 23.6059ZM21.4979 23.8128C21.6203 23.9481 21.6212 23.9483 21.6212 23.8423C21.6212 23.7963 21.5703 23.7454 21.5083 23.7292C21.4004 23.701 21.4 23.7047 21.4979 23.8128ZM28.8574 24.2224C28.7862 24.2887 28.743 24.3675 28.7616 24.3975C28.7802 24.4277 28.7481 24.436 28.6896 24.4162C28.5114 24.3559 28.902 24.6948 29.3477 24.9873C29.5743 25.1359 29.8217 25.2773 29.8974 25.3013C29.9837 25.3286 30.0101 25.3604 29.9682 25.3863C29.9187 25.4169 29.9248 25.5637 29.9919 25.9512C30.114 26.6563 30.1931 26.8719 30.2976 26.7851C30.3417 26.7485 30.372 26.7428 30.365 26.7725C30.3579 26.802 30.3836 26.9025 30.4219 26.9956C30.4603 27.0886 30.4789 27.1775 30.4634 27.193C30.4027 27.2537 30.0494 26.9893 30.0659 26.8954C30.0949 26.7307 29.9668 26.5626 29.8124 26.5626C29.6177 26.5626 29.6191 26.7559 29.8145 26.8449C29.8951 26.8817 29.961 26.9419 29.961 26.9787C29.961 27.0273 29.9375 27.0262 29.8757 26.9749C29.8287 26.936 29.7606 26.9225 29.7244 26.9448C29.6882 26.9673 29.5881 26.9202 29.5021 26.8404C29.4161 26.7605 29.2178 26.6475 29.0613 26.5893C28.9049 26.5311 28.7467 26.4545 28.7098 26.4192C28.6728 26.3838 28.4663 26.2807 28.2509 26.1901C27.9932 26.0817 27.8692 25.999 27.8886 25.9486C27.9047 25.9063 27.8895 25.7659 27.8547 25.6366C27.8101 25.4709 27.7627 25.4056 27.6945 25.4156C27.6412 25.4234 27.5915 25.4717 27.584 25.523C27.5747 25.586 27.6063 25.6093 27.6817 25.5947C27.7429 25.5829 27.793 25.6009 27.793 25.6347C27.793 25.6686 27.7567 25.6823 27.7123 25.6653C27.6679 25.6482 27.6019 25.6639 27.5658 25.7C27.5172 25.7486 27.5 25.7455 27.5 25.6883C27.5 25.6301 27.4805 25.6271 27.4214 25.676C27.3782 25.7119 27.3254 25.724 27.3042 25.7028C27.283 25.6816 27.2657 25.695 27.2657 25.7325C27.2657 25.7702 27.3118 25.8013 27.3682 25.8018C27.4493 25.8025 27.4539 25.8134 27.39 25.8539C27.3411 25.8848 27.3278 25.9365 27.3561 25.9848C27.3819 26.0287 27.3457 26.0144 27.2757 25.953C27.2057 25.8916 27.1485 25.8564 27.1485 25.8749C27.1485 25.8933 27.3792 26.0873 27.6612 26.306C28.2351 26.7511 29.9198 28.1135 30.9609 28.9745C31.3375 29.2858 31.7793 29.6367 31.9427 29.7541C32.1247 29.8848 32.228 29.9986 32.2092 30.0477C32.1609 30.1736 32.2902 30.3606 32.5306 30.5123C32.652 30.589 33.1458 31.0303 33.6278 31.4929C34.9478 32.7597 37.5836 35.1486 37.643 35.132C37.6718 35.1239 37.6891 35.1371 37.6815 35.1613C37.6485 35.2654 41.2206 38.5591 41.8555 39.0098C42.0328 39.1357 42.2738 39.329 42.391 39.4394C42.5745 39.6121 42.6215 39.6309 42.7279 39.5739C42.7959 39.5375 42.8516 39.4895 42.8516 39.4672C42.8516 39.4449 42.6604 39.2291 42.4268 38.9876L42.002 38.5483L42.4512 38.9728L42.9005 39.3974L43.0958 39.3143C43.7203 39.0487 44.0235 38.9403 44.0235 38.9826C44.0235 39.009 43.9795 39.0474 43.9258 39.0681C43.8483 39.0978 43.8431 39.1203 43.9007 39.1769C43.9579 39.2331 43.9972 39.2189 44.0862 39.1098C44.2062 38.963 44.2386 38.8361 44.1407 38.8966C44.0534 38.9505 44.0698 38.8712 44.1658 38.7753C44.2731 38.6679 44.3522 38.6658 44.2635 38.7726C44.2117 38.835 44.2165 38.8614 44.2841 38.8874C44.3334 38.9063 44.3975 38.8772 44.4303 38.8209C44.4624 38.7659 44.4895 38.7513 44.4905 38.7886C44.4918 38.839 44.545 38.8401 44.6988 38.793C44.8124 38.7581 44.8767 38.7119 44.8416 38.6902C44.8066 38.6686 44.8969 38.6534 45.0423 38.6566C45.5078 38.6666 45.4988 38.5751 44.9838 38.0639C44.1075 37.1942 41.5145 34.8741 38.8093 32.5392C35.8826 30.0132 34.1984 28.4785 33.8804 28.0482C33.7333 27.849 33.5479 27.683 33.3722 27.5931C33.0459 27.426 32.9968 27.3882 31.5778 26.2111C30.5015 25.3184 29.012 24.1017 28.9955 24.1017C28.9908 24.1017 28.9287 24.156 28.8574 24.2224ZM27.3625 24.3848C27.2714 24.4854 27.2844 24.5704 27.3908 24.5704C27.4166 24.5704 27.4209 24.5266 27.4004 24.4729C27.378 24.4148 27.3867 24.3901 27.4217 24.4118C27.454 24.4318 27.4805 24.4097 27.4805 24.3628C27.4805 24.2554 27.4794 24.2556 27.3625 24.3848ZM29.6094 24.2945C29.6094 24.3545 30.04 24.7429 30.1075 24.7438C30.1397 24.7441 30.1301 24.7217 30.0862 24.6938C30.0301 24.6583 30.0261 24.6337 30.073 24.6112C30.1138 24.5916 30.1107 24.5861 30.065 24.5969C30.0239 24.6067 29.9046 24.5336 29.7998 24.4346C29.6951 24.3355 29.6094 24.2725 29.6094 24.2945ZM27.9613 24.7316C27.8885 24.8245 27.8905 24.8266 27.9834 24.7537C28.0811 24.6771 28.112 24.629 28.0638 24.629C28.0517 24.629 28.0055 24.6752 27.9613 24.7316ZM28.4683 24.7604C28.3789 24.8647 28.3778 24.8764 28.4597 24.845C28.512 24.8249 28.5547 24.8328 28.5547 24.8624C28.5547 24.892 28.7275 25.0129 28.9386 25.131C29.1497 25.249 29.3079 25.3602 29.2901 25.378C29.2723 25.3959 29.1969 25.3779 29.1227 25.3382C29.0484 25.2985 28.9508 25.2743 28.9057 25.2844C28.8606 25.2945 28.8192 25.2699 28.8137 25.2296C28.8083 25.1894 28.8005 25.14 28.7964 25.1199C28.7924 25.0998 28.7495 25.1162 28.7012 25.1564C28.6291 25.2163 28.6133 25.2118 28.6133 25.1317C28.6133 25.0712 28.5743 25.0406 28.5108 25.0513C28.4544 25.0608 28.4145 25.0365 28.4222 24.9974C28.4303 24.9562 28.3993 24.9403 28.3489 24.9597C28.2127 25.0119 28.2447 25.0597 28.4968 25.1805C28.6253 25.242 28.7305 25.3271 28.7305 25.3694C28.7305 25.4286 28.7666 25.4327 28.8865 25.3871C28.9986 25.3445 29.0605 25.3473 29.1063 25.3972C29.153 25.4481 29.1504 25.4555 29.0962 25.4249C29.0558 25.402 28.9839 25.4219 28.9366 25.4692C28.8611 25.5447 28.8615 25.5593 28.9402 25.5894C28.9911 25.609 29.0142 25.5989 28.9938 25.5659C28.9068 25.4252 29.0914 25.5253 29.2068 25.6814C29.2774 25.7768 29.3572 25.8412 29.3844 25.8245C29.4115 25.8077 29.4336 25.8335 29.4336 25.8819C29.4336 25.9965 29.3337 26.0575 29.3017 25.9624C29.282 25.9039 29.258 25.9044 29.1847 25.9649C29.1227 26.016 29.08 26.0208 29.0545 25.9796C29.0337 25.9458 28.977 25.9181 28.9287 25.9181C28.8803 25.9181 28.8574 25.9449 28.8776 25.9776C28.8979 26.0104 28.9367 26.0234 28.9639 26.0066C28.9912 25.9898 29.0223 25.9971 29.0331 26.0229C29.0439 26.0487 29.1684 26.1294 29.3098 26.2023L29.5668 26.3347L29.5257 26.0253C29.5032 25.8552 29.4602 25.6865 29.4303 25.6505C29.4005 25.6145 29.3956 25.5644 29.4195 25.5392C29.4434 25.514 29.4058 25.5109 29.336 25.5323C29.2662 25.5538 29.194 25.5468 29.1755 25.517C29.1571 25.4871 29.199 25.4478 29.2687 25.4295C29.4463 25.3831 29.5311 25.5224 29.6113 25.9922C29.6597 26.2762 29.7105 26.4055 29.7906 26.4484C29.9258 26.5207 29.9309 26.4355 29.8256 25.8595C29.7401 25.3924 29.7099 25.344 29.3575 25.1093C29.0384 24.8968 28.9758 24.8773 29.0856 25.0245C29.1278 25.0809 29.0783 25.0398 28.9757 24.9331C28.8684 24.8215 28.7605 24.7569 28.7215 24.7811C28.6819 24.8055 28.6696 24.7974 28.6918 24.7614C28.7657 24.6419 28.5705 24.641 28.4683 24.7604ZM30.5054 24.7914C30.5012 24.8477 30.489 24.9239 30.4784 24.9606C30.4678 24.9974 30.4854 25.0367 30.5176 25.048C30.5922 25.0741 30.6325 24.8083 30.5643 24.7402C30.5352 24.7111 30.5098 24.7331 30.5054 24.7914ZM28.183 25.3175C28.1681 25.3417 28.1471 25.4648 28.1362 25.591C28.119 25.7921 28.1325 25.8218 28.245 25.83C28.3216 25.8357 28.3581 25.8147 28.3354 25.7779C28.3145 25.744 28.3045 25.6167 28.3133 25.4949C28.3276 25.2975 28.2557 25.1996 28.183 25.3175ZM28.5103 25.2994C28.5342 25.3276 28.5274 25.3823 28.4953 25.421C28.419 25.513 28.6535 25.8205 28.7668 25.777C28.8113 25.76 28.8477 25.7716 28.8477 25.8027C28.8477 25.834 28.8756 25.8595 28.9097 25.8595C28.9438 25.8595 28.9578 25.8369 28.9408 25.8094C28.9237 25.7818 28.9815 25.773 29.0692 25.7898C29.1568 25.8065 29.1956 25.8313 29.1553 25.8448C29.1151 25.8583 29.0821 25.8967 29.0821 25.9302C29.0821 25.966 29.1194 25.9601 29.1729 25.9156C29.2925 25.8164 29.1827 25.7006 28.9356 25.6652C28.8266 25.6496 28.7657 25.6094 28.7753 25.5594C28.7851 25.5084 28.7608 25.5169 28.7092 25.5825C28.6318 25.6812 28.6262 25.6806 28.5974 25.5707C28.5808 25.5071 28.5936 25.4461 28.626 25.4353C28.6583 25.4246 28.6357 25.378 28.5758 25.3319C28.5159 25.2859 28.4864 25.2712 28.5103 25.2994ZM28.0366 25.4493C28.0366 25.5299 28.0499 25.5629 28.0662 25.5226C28.0825 25.4823 28.0825 25.4164 28.0662 25.3761C28.0499 25.3359 28.0366 25.3688 28.0366 25.4493ZM24.5634 25.8467C24.5441 25.9632 24.5527 26.0178 24.5852 25.9853C24.6147 25.9558 24.6291 25.8692 24.617 25.793C24.5986 25.6758 24.5904 25.684 24.5634 25.8467ZM25.3339 25.7165C25.3349 25.7468 25.3708 25.8178 25.4136 25.8742C25.5024 25.991 25.7074 26.0148 25.6665 25.9035C25.6518 25.8632 25.6044 25.8386 25.5613 25.849C25.5183 25.8593 25.4491 25.8213 25.4075 25.7645C25.3661 25.7078 25.3329 25.6861 25.3339 25.7165ZM27.9706 25.7716C27.9706 25.8038 27.9962 25.8698 28.0274 25.9181C28.0586 25.9664 28.0842 25.9796 28.0842 25.9474C28.0842 25.9152 28.0586 25.8493 28.0274 25.8009C27.9962 25.7526 27.9706 25.7394 27.9706 25.7716ZM28.2032 25.8961C28.2032 26.0344 29.0595 26.4601 29.3377 26.4601C29.4359 26.4601 29.4731 26.4858 29.4524 26.5396C29.4293 26.5999 29.3938 26.6041 29.3055 26.5568C29.092 26.4425 29.1453 26.5334 29.3664 26.6607C29.576 26.7812 29.5843 26.7818 29.5843 26.6744C29.5843 26.6129 29.5644 26.5626 29.5401 26.5626C29.5158 26.5626 29.5097 26.5268 29.5265 26.4829C29.5631 26.3875 29.1729 26.1842 29.0723 26.2463C29.0284 26.2735 29.0215 26.2616 29.0524 26.2117C29.0878 26.1544 29.0615 26.1427 28.9461 26.1648C28.8617 26.181 28.8066 26.1715 28.8237 26.1439C28.8408 26.1163 28.7898 26.069 28.7104 26.0388C28.6311 26.0086 28.5509 25.9592 28.5322 25.9291C28.5005 25.8777 28.2032 25.848 28.2032 25.8961ZM28.4375 26.0007C28.4375 26.0118 28.4771 26.0537 28.5254 26.0939C28.5761 26.136 28.6133 26.1416 28.6133 26.1073C28.6133 26.0746 28.5738 26.0326 28.5254 26.0141C28.4771 25.9956 28.4375 25.9895 28.4375 26.0007ZM30.1672 26.3106C30.2625 26.5388 30.3125 26.6152 30.3125 26.5326C30.3125 26.4273 30.1694 26.0939 30.1242 26.0939C30.098 26.0939 30.1174 26.1914 30.1672 26.3106ZM26.2505 26.2348C26.2286 26.292 26.2232 26.3593 26.2387 26.3843C26.2542 26.4093 26.2147 26.477 26.151 26.5346C26.0873 26.5922 26.0352 26.6105 26.0352 26.5752C26.0352 26.5398 26.0592 26.4961 26.0886 26.478C26.1534 26.4379 26.1374 26.2901 26.0613 26.2274C26.0309 26.2023 26.0249 26.2052 26.0482 26.2339C26.0715 26.2625 26.0238 26.3652 25.9424 26.462C25.7626 26.6756 25.8336 26.8109 26.0469 26.6612C26.3875 26.4222 26.4081 26.3947 26.3481 26.2601C26.296 26.1433 26.2866 26.1409 26.2505 26.2348ZM30.6641 26.2046C30.6641 26.2332 30.7165 26.3189 30.7806 26.395L30.8972 26.5333L30.8057 26.3429C30.7148 26.154 30.6641 26.1044 30.6641 26.2046ZM25.5518 26.5875C25.3141 26.8448 25.2922 26.8911 25.3492 27.0164C25.413 27.1562 25.4136 27.156 25.5259 26.9329C25.5878 26.8098 25.6911 26.6517 25.7553 26.5814C25.8195 26.5112 25.8599 26.419 25.8452 26.3764C25.828 26.3269 25.7221 26.4031 25.5518 26.5875ZM30.9571 26.5262C30.9571 26.5383 31.0032 26.5845 31.0596 26.6287C31.1525 26.7016 31.1546 26.6995 31.0818 26.6066C31.0052 26.509 30.9571 26.478 30.9571 26.5262ZM25.6761 27.0167C25.6033 27.1097 25.6054 27.1117 25.6983 27.0389C25.7959 26.9623 25.8269 26.9142 25.7787 26.9142C25.7665 26.9142 25.7204 26.9604 25.6761 27.0167ZM24.9179 27.5941C24.6444 27.8788 24.3446 28.0223 23.7524 28.152L23.252 28.2616L23.7793 28.2395C24.2182 28.2211 24.3899 28.1828 24.8027 28.0115C25.2186 27.839 25.3058 27.7794 25.3423 27.6433C25.4114 27.3847 25.332 27.3559 25.1773 27.5836C25.0989 27.6988 25.0087 27.7931 24.9766 27.7931C24.9446 27.7931 24.9766 27.7143 25.0478 27.618C25.2352 27.3646 25.1529 27.3494 24.9179 27.5941ZM25.6602 27.5939C25.6393 27.6482 25.6361 27.7065 25.6529 27.7234C25.6698 27.7402 25.6836 27.7241 25.6836 27.6875C25.6836 27.6507 25.7293 27.6357 25.7862 27.654C25.8466 27.6735 25.8647 27.6664 25.8301 27.6368C25.7979 27.6092 25.755 27.566 25.7348 27.5409C25.7146 27.5157 25.6811 27.5396 25.6602 27.5939ZM26.3456 27.8063C26.2127 27.978 26.2045 28.0475 26.3315 27.9266C26.4066 27.855 26.4536 27.7818 26.4358 27.764C26.418 27.7462 26.3774 27.7653 26.3456 27.8063ZM25.5337 28.2358C25.4245 28.3233 25.4252 28.3244 25.5518 28.263C25.6243 28.2279 25.6836 28.1868 25.6836 28.1719C25.6836 28.1271 25.6532 28.14 25.5337 28.2358ZM25.9478 28.486C25.932 28.5018 25.9489 28.5507 25.9854 28.5947C26.0369 28.6568 26.0329 28.6674 25.9674 28.6423C25.8626 28.6021 25.5978 28.8735 25.6536 28.9638C25.6828 29.0111 25.7334 29.0044 25.8312 28.9404C25.9344 28.8727 25.975 28.8684 25.9969 28.9226C26.0189 28.9769 26.027 28.976 26.0306 28.9192C26.0331 28.8779 25.9958 28.829 25.9477 28.8105C25.8995 28.792 25.8739 28.7544 25.8909 28.727C25.9079 28.6996 25.9651 28.6937 26.018 28.714C26.0903 28.7418 26.1048 28.7266 26.0765 28.6529C26.0558 28.5989 26.0644 28.5548 26.0956 28.5548C26.1268 28.5548 26.1524 28.5328 26.1524 28.506C26.1524 28.4536 25.9955 28.4382 25.9478 28.486ZM33.5562 28.7758C33.6026 28.8508 33.9454 29.1045 33.9454 29.0638C33.9454 29.0494 33.8486 28.9636 33.7303 28.8734C33.612 28.7832 33.5336 28.7393 33.5562 28.7758ZM25.7359 29.0968C25.6878 29.1371 25.6112 29.2228 25.5655 29.2872C25.5198 29.3517 25.5055 29.3849 25.5337 29.361C25.5619 29.3371 25.6269 29.349 25.6782 29.3874C25.7562 29.4459 25.7596 29.4439 25.6987 29.3757C25.6397 29.3094 25.65 29.2682 25.7528 29.1587C25.8892 29.0136 25.879 28.9767 25.7359 29.0968ZM34.0918 29.1994C34.1501 29.2638 34.2111 29.3165 34.2272 29.3165C34.2433 29.3165 34.2087 29.2638 34.1504 29.1994C34.0921 29.1349 34.0312 29.0822 34.0151 29.0822C33.999 29.0822 34.0335 29.1349 34.0918 29.1994ZM25.8594 29.6147C25.7332 29.718 25.7307 29.7259 25.8415 29.6717C25.9122 29.6372 25.9863 29.5827 26.0061 29.5506C26.059 29.465 26.0235 29.4805 25.8594 29.6147ZM24.7386 29.6535C24.6658 29.7464 24.6679 29.7484 24.7608 29.6756C24.8171 29.6314 24.8633 29.5852 24.8633 29.5731C24.8633 29.5248 24.8152 29.5558 24.7386 29.6535ZM24.5043 29.8292C24.4314 29.9222 24.4335 29.9242 24.5264 29.8514C24.624 29.7748 24.655 29.7267 24.6068 29.7267C24.5947 29.7267 24.5485 29.7729 24.5043 29.8292ZM25.3032 29.7846C25.2827 29.8178 25.3062 29.8277 25.3583 29.8077C25.4598 29.7687 25.4784 29.7267 25.3941 29.7267C25.3638 29.7267 25.3229 29.7528 25.3032 29.7846ZM25.031 29.9645L24.8926 30.0852L25.0537 29.9871C25.1423 29.9331 25.2149 29.8789 25.2149 29.8664C25.2149 29.8207 25.166 29.8468 25.031 29.9645ZM32.44 29.9802C32.4366 30.0502 32.4461 30.0761 32.461 30.0376C32.4759 29.9992 32.5259 29.9822 32.5722 29.9999C32.6924 30.0461 32.6763 29.9759 32.5512 29.909C32.4657 29.8632 32.4451 29.8764 32.44 29.9802ZM25.083 30.0822C24.9622 30.146 24.8633 30.2113 24.8633 30.2273C24.8633 30.2433 24.9688 30.2026 25.0977 30.1369C25.2266 30.0711 25.3321 30.0046 25.3321 29.9892C25.3321 29.9509 25.3317 29.951 25.083 30.0822ZM30.7813 29.9765C30.7813 29.9913 31.0516 30.2494 31.3819 30.5499C31.7122 30.8505 31.8638 30.9706 31.7188 30.8168C31.4399 30.5212 30.7813 29.9308 30.7813 29.9765ZM32.7272 30.2856C32.6639 30.3573 32.6707 30.3712 32.7693 30.3712C32.8498 30.3712 32.8764 30.3435 32.8533 30.2833C32.8132 30.1789 32.8214 30.1788 32.7272 30.2856ZM23.8965 30.6056C23.8226 30.6374 23.8119 30.6559 23.8672 30.6559C23.9156 30.6559 24.0079 30.6333 24.0723 30.6056C24.1462 30.5738 24.157 30.5553 24.1016 30.5553C24.0533 30.5553 23.961 30.5779 23.8965 30.6056ZM23.6219 30.7042C23.6641 30.7211 23.7147 30.719 23.7342 30.6996C23.7536 30.6801 23.719 30.6663 23.6573 30.6688C23.589 30.6716 23.5751 30.6855 23.6219 30.7042ZM32.7064 31.4441C32.7856 31.5405 33.3594 31.9147 33.3594 31.87C33.3594 31.857 33.1946 31.7341 32.9932 31.5969C32.7918 31.4597 32.6627 31.3909 32.7064 31.4441ZM33.3008 31.5724C33.3765 31.653 33.4516 31.7189 33.4678 31.7189C33.4839 31.7189 33.4351 31.653 33.3594 31.5724C33.2837 31.4918 33.2086 31.4259 33.1925 31.4259C33.1764 31.4259 33.2251 31.4918 33.3008 31.5724ZM33.7242 32.2802C33.7799 32.3382 33.838 32.3731 33.8534 32.3577C33.8688 32.3423 33.8233 32.2948 33.7523 32.2521C33.6288 32.178 33.6276 32.1793 33.7242 32.2802ZM37.4024 32.4513C37.4024 32.5387 37.4276 32.5891 37.461 32.5685C37.4932 32.5486 37.5196 32.4958 37.5196 32.4513C37.5196 32.4068 37.4932 32.354 37.461 32.3341C37.4276 32.3135 37.4024 32.3639 37.4024 32.4513ZM33.5938 32.3856C33.5938 32.3977 33.64 32.4439 33.6963 32.4881C33.7893 32.5609 33.7913 32.5589 33.7185 32.466C33.6419 32.3683 33.5938 32.3373 33.5938 32.3856ZM35.9668 33.2423C36.2879 33.5646 36.5637 33.8283 36.5798 33.8283C36.596 33.8283 36.3465 33.5646 36.0254 33.2423C35.7044 32.9201 35.4285 32.6564 35.4124 32.6564C35.3963 32.6564 35.6458 32.9201 35.9668 33.2423ZM34.8829 33.673C34.8829 33.6865 34.952 33.7429 35.0365 33.7983C35.1211 33.8537 35.1724 33.87 35.1504 33.8346C35.1087 33.767 34.8829 33.6306 34.8829 33.673ZM38.4559 33.9761C38.4151 34.0252 38.3981 34.0818 38.418 34.1017C38.4606 34.1443 38.6329 34.0132 38.6329 33.9383C38.6329 33.8576 38.5373 33.878 38.4559 33.9761ZM35.0293 34.0626C35.0876 34.1271 35.1486 34.1798 35.1647 34.1798C35.1808 34.1798 35.1462 34.1271 35.0879 34.0626C35.0296 33.9982 34.9687 33.9454 34.9526 33.9454C34.9365 33.9454 34.971 33.9982 35.0293 34.0626ZM37.6954 34.5497C37.6954 34.5598 37.781 34.6455 37.8858 34.7402L38.0762 34.9122L37.9041 34.7218C37.7437 34.5443 37.6954 34.5044 37.6954 34.5497ZM36.9922 34.9051C36.9922 34.9172 37.0384 34.9634 37.0948 35.0076C37.1877 35.0805 37.1897 35.0784 37.1169 34.9855C37.0403 34.8879 36.9922 34.8569 36.9922 34.9051ZM38.2251 35.036C38.2277 35.0934 38.5743 35.5142 38.5743 35.4601C38.5743 35.4416 38.4952 35.3269 38.3985 35.2052C38.3018 35.0836 38.2238 35.0074 38.2251 35.036ZM37.8101 35.2608C37.9076 35.3784 38.5199 35.7185 38.5607 35.6778C38.5789 35.6596 38.5615 35.6447 38.522 35.6447C38.4825 35.6447 38.469 35.6142 38.4919 35.577C38.5158 35.5385 38.5082 35.5251 38.4745 35.546C38.4419 35.5661 38.2632 35.4911 38.0773 35.3792C37.8915 35.2673 37.7712 35.214 37.8101 35.2608ZM38.1348 35.9376C38.3586 36.1632 38.555 36.3478 38.5711 36.3478C38.5872 36.3478 38.4172 36.1632 38.1934 35.9376C37.9696 35.712 37.7732 35.5275 37.7571 35.5275C37.741 35.5275 37.911 35.712 38.1348 35.9376ZM38.6329 35.6447C38.6674 35.7091 38.7087 35.7619 38.7248 35.7619C38.741 35.7619 38.726 35.7091 38.6914 35.6447C38.6569 35.5802 38.6156 35.5275 38.5995 35.5275C38.5833 35.5275 38.5983 35.5802 38.6329 35.6447ZM37.1094 35.8426C37.1094 35.8547 37.1556 35.9009 37.212 35.9451C37.3049 36.018 37.3069 36.0159 37.2341 35.923C37.1575 35.8254 37.1094 35.7944 37.1094 35.8426ZM37.461 36.1356C37.461 36.1477 37.5071 36.1939 37.5635 36.2381C37.6564 36.3109 37.6585 36.3089 37.5857 36.216C37.5091 36.1183 37.461 36.0873 37.461 36.1356ZM39.7553 36.3592C39.8409 36.4335 40.0193 36.5687 40.1516 36.6597C40.2839 36.7508 40.3771 36.8496 40.3587 36.8795C40.305 36.9664 40.2573 36.9452 40.0245 36.7313C39.9036 36.6204 39.8052 36.548 39.8058 36.5705C39.8073 36.6291 40.6154 37.3526 40.8594 37.5138C41.016 37.6172 40.9963 37.5879 40.7765 37.3899C40.6181 37.2473 40.482 37.0862 40.474 37.0321C40.4546 36.8999 40.4917 36.9075 40.7221 37.0832C41.0749 37.3523 40.9273 37.1888 40.5225 36.8621C40.1016 36.5224 39.455 36.0985 39.7553 36.3592ZM38.8086 36.5529C38.918 36.6657 39.0206 36.7579 39.0367 36.7579C39.0528 36.7579 38.9766 36.6657 38.8672 36.5529C38.7579 36.4401 38.6553 36.3478 38.6392 36.3478C38.6231 36.3478 38.6993 36.4401 38.8086 36.5529ZM40.3639 36.9297C40.3453 36.9597 40.3526 36.9981 40.3799 37.015C40.4073 37.0319 40.4297 37.0074 40.4297 36.9604C40.4297 36.8617 40.4112 36.853 40.3639 36.9297ZM41.0645 37.3439C41.1228 37.4083 41.1837 37.4611 41.1998 37.4611C41.216 37.4611 41.1814 37.4083 41.1231 37.3439C41.0648 37.2794 41.0038 37.2267 40.9877 37.2267C40.9716 37.2267 41.0062 37.2794 41.0645 37.3439ZM41.1817 37.754C41.24 37.8185 41.3009 37.8712 41.317 37.8712C41.3331 37.8712 41.2986 37.8185 41.2403 37.754C41.182 37.6896 41.121 37.6369 41.1049 37.6369C41.0888 37.6369 41.1234 37.6896 41.1817 37.754ZM39.6289 37.8348C39.6289 37.8469 39.6751 37.8931 39.7315 37.9373C39.8244 38.0102 39.8265 38.0081 39.7536 37.9152C39.6771 37.8176 39.6289 37.7866 39.6289 37.8348ZM40.1563 37.831C40.1563 37.841 40.242 37.9268 40.3467 38.0214L40.5371 38.1935L40.3651 38.0031C40.2046 37.8256 40.1563 37.7857 40.1563 37.831ZM41.5956 38.24C41.6176 38.2977 41.6504 38.3302 41.6684 38.3122C41.6865 38.2942 41.6685 38.2469 41.6284 38.2071C41.5705 38.1497 41.5638 38.1565 41.5956 38.24ZM41.6797 38.6295C41.6797 38.6598 41.7058 38.7007 41.7377 38.7204C41.7708 38.7409 41.7807 38.7174 41.7607 38.6653C41.7217 38.5638 41.6797 38.5452 41.6797 38.6295ZM45.4444 38.7329C45.3719 38.7469 45.3125 38.7745 45.3125 38.7944C45.3125 38.8142 45.3719 38.8973 45.4444 38.9789C45.5561 39.1049 45.5583 39.1148 45.459 39.0442C45.3946 38.9984 45.311 38.9246 45.2734 38.8802C45.1517 38.7366 44.3978 38.9796 43.9063 39.3209C43.782 39.4071 43.7712 39.4081 43.8346 39.3276C43.8967 39.2485 43.8926 39.2261 43.8099 39.1944C43.7084 39.1555 43.6158 39.2448 43.6142 39.3835C43.6137 39.4279 43.6441 39.4428 43.6866 39.4188C43.7371 39.3903 43.7417 39.3973 43.7012 39.4417C43.669 39.4769 43.4929 39.5448 43.3099 39.5924C43.1269 39.6401 42.9193 39.71 42.8486 39.7478C42.7233 39.8149 42.7228 39.8191 42.8298 39.9212C43.1541 40.2304 45.2292 42.0536 45.6076 42.3619C45.8504 42.5597 46.0856 42.7654 46.1301 42.8191C46.1746 42.8728 46.266 42.9459 46.3331 42.9817C46.4428 43.0401 46.447 43.0368 46.3747 42.9492C46.2984 42.8566 46.3252 42.8235 46.4551 42.8496C46.4873 42.856 46.4498 42.7933 46.3717 42.71C46.2195 42.5479 46.1558 42.5128 46.2303 42.632C46.2554 42.6723 46.2804 42.7336 46.2857 42.7684C46.3015 42.872 45.1747 41.6857 45.066 41.4844C45.0109 41.3824 44.9648 41.3323 44.9634 41.373C44.9612 41.4413 45.0683 41.668 45.1368 41.7398C45.4014 42.0173 45.6084 42.2707 45.5176 42.2061C45.3206 42.0658 44.8731 41.6529 44.8731 41.6114C44.8731 41.59 44.8533 41.5526 44.8291 41.5285C44.7553 41.4546 44.7802 41.2841 44.8699 41.2497C44.9363 41.2242 44.9426 41.1757 44.8992 41.0241C44.8162 40.735 44.8402 40.6807 44.9357 40.9412C44.9817 41.0668 45.049 41.2052 45.0852 41.2489C45.1704 41.3515 45.2914 41.3574 45.2104 41.255C45.1784 41.2148 45.1374 41.0368 45.1191 40.8595C45.0977 40.6512 45.1032 40.589 45.1348 40.6837C45.1617 40.7643 45.1863 40.9096 45.1895 41.0066C45.198 41.2618 45.4763 41.5455 45.6831 41.5095C45.7097 41.5049 45.7147 41.5282 45.6943 41.5612C45.6739 41.5942 45.6752 41.6504 45.6973 41.6861C45.7252 41.7313 45.7526 41.7269 45.7877 41.6714C45.8275 41.6086 45.8383 41.6125 45.839 41.6897C45.8401 41.8094 46.3539 42.4185 46.4349 42.3961C46.4669 42.3873 46.4777 42.405 46.4588 42.4356C46.4399 42.4661 46.5069 42.5499 46.6077 42.6217L46.7909 42.7521L46.7227 42.6245C46.685 42.5543 46.6252 42.5148 46.5896 42.5369C46.5512 42.5606 46.5414 42.5501 46.5656 42.5109C46.5881 42.4746 46.5657 42.3664 46.5161 42.2704C46.4168 42.0783 46.3954 41.8885 46.479 41.9401C46.5081 41.9582 46.5177 41.9179 46.5001 41.8507C46.4758 41.7578 46.4563 41.7473 46.4186 41.8067C46.3847 41.8602 46.3688 41.833 46.3681 41.7207C46.3676 41.6304 46.3252 41.3714 46.2737 41.1453C46.1593 40.6421 46.2004 40.5494 46.3301 41.0179C46.4217 41.3483 46.4235 41.3503 46.3966 41.0939C46.3815 40.9489 46.3553 40.7247 46.3386 40.5958C46.3219 40.4669 46.3548 40.546 46.4118 40.7716C46.4813 41.0467 46.5438 41.1818 46.6017 41.1818C46.6491 41.1818 46.6962 41.2345 46.7065 41.299C46.7218 41.3956 46.7145 41.4007 46.6642 41.3283C46.6111 41.2515 46.6033 41.2524 46.6025 41.3358C46.602 41.3882 46.6412 41.4639 46.6895 41.504C46.7378 41.5442 46.777 41.6067 46.7765 41.643C46.776 41.6794 46.75 41.6696 46.7188 41.6212C46.6703 41.5461 46.6618 41.5482 46.6611 41.6359C46.6606 41.6922 46.6841 41.7384 46.7133 41.7384C46.7425 41.7384 46.7538 41.7868 46.7382 41.846C46.7195 41.9178 46.7637 41.9887 46.8711 42.0591C47.0229 42.1586 47.026 42.169 46.9254 42.2426C46.8084 42.3282 46.6937 42.2952 46.7562 42.194C46.7784 42.1581 46.7685 42.1472 46.7333 42.1688C46.6372 42.2283 46.7156 42.4271 46.849 42.4619C46.924 42.4816 46.9562 42.525 46.9354 42.579C46.9173 42.6263 46.9475 42.7056 47.0025 42.7554C47.0954 42.8395 47.1025 42.8278 47.1011 42.591C47.1003 42.4508 47.0817 42.347 47.0597 42.3604C47.0378 42.3739 47.0044 42.3599 46.9856 42.3293C46.9667 42.2988 46.9765 42.2583 47.0073 42.2392C47.0411 42.2184 47.0282 42.1206 46.9748 41.9928C46.9261 41.8762 46.8841 41.7064 46.8816 41.6152C46.879 41.5241 46.8561 41.4623 46.8306 41.478C46.8053 41.4937 46.7854 41.4599 46.7864 41.4028C46.7875 41.3457 46.7702 41.233 46.7481 41.1525C46.6383 40.7537 46.5891 40.2157 46.6924 40.5435C46.7116 40.6045 46.7681 40.7467 46.818 40.8595C46.8678 40.9723 46.9171 41.1493 46.9276 41.2528C46.9381 41.3563 46.9798 41.5013 47.0203 41.5751C47.0608 41.6488 47.0908 41.7945 47.0869 41.899C47.083 42.0034 47.104 42.1039 47.1337 42.1222C47.1633 42.1405 47.1875 42.2083 47.1875 42.2728C47.1875 42.4036 47.3671 42.9846 47.3979 42.9538C47.4087 42.943 47.3801 42.7918 47.3341 42.6178C47.2805 42.4145 47.2707 42.2775 47.3065 42.2343C47.3372 42.1973 47.3442 42.149 47.3221 42.1268C47.2999 42.1047 47.2762 42.0544 47.2693 42.015C47.2109 41.679 47.194 41.5399 47.1684 41.1818L47.1391 40.7716L47.2018 41.1525C47.2363 41.3619 47.2884 41.5491 47.3176 41.5684C47.3467 41.5876 47.373 41.6874 47.376 41.7902C47.3789 41.8929 47.4077 41.9933 47.44 42.0132C47.4756 42.0352 47.48 42.0194 47.4512 41.9728C47.4196 41.9216 47.4267 41.9102 47.4724 41.9385C47.5102 41.9618 47.527 42.0036 47.5098 42.0314C47.4926 42.0592 47.5054 42.0984 47.5382 42.1187C47.6281 42.1743 47.6096 41.9863 47.503 41.7617C47.4509 41.6519 47.4207 41.4973 47.4359 41.418C47.4511 41.3386 47.4427 41.2663 47.4173 41.2571C47.392 41.2479 47.3612 41.1314 47.349 40.9983C47.3368 40.8651 47.2842 40.7134 47.2321 40.6613C47.1196 40.5488 47.0464 40.5364 47.1048 40.6398C47.1377 40.6981 47.1302 40.6982 47.0678 40.6404C47.0248 40.6004 46.9836 40.5278 46.9765 40.4789C46.9591 40.3602 47.1985 40.5311 47.4805 40.8385C47.6066 40.976 47.6292 41.0176 47.5391 40.9466L47.3926 40.831L47.525 40.9814C47.5978 41.0642 47.6374 41.1539 47.6129 41.1809C47.5884 41.2078 47.5995 41.212 47.6376 41.1902C47.7032 41.1526 47.7836 41.2294 47.8129 41.3576C47.8526 41.5323 48.0035 41.872 48.0079 41.797C48.0108 41.7487 48.0507 41.7882 48.0967 41.8849C48.1786 42.0573 48.1795 42.0551 48.146 41.7677C48.1193 41.5391 48.065 41.4239 47.8987 41.2433C47.7815 41.116 47.9361 41.2333 48.2422 41.504C48.9269 42.1094 48.9377 42.1195 48.8337 42.0602C48.7782 42.0285 48.7652 42.0355 48.7939 42.0819C48.8172 42.1196 48.8568 42.1378 48.882 42.1223C48.9246 42.0959 49.0578 42.2065 49.2202 42.4032C49.2585 42.4496 49.2717 42.5079 49.2495 42.5326C49.2272 42.5573 49.238 42.5611 49.2733 42.5409C49.3447 42.5002 49.6677 42.8072 49.62 42.8704C49.6034 42.8924 49.6069 42.8977 49.6276 42.8823C49.6795 42.8438 49.8673 43.012 51.6144 44.662C53.5529 46.4927 54.4045 47.2755 54.4577 47.2755C54.5361 47.2755 55.2009 47.9438 55.1638 47.9854C55.1436 48.0081 55.1579 48.009 55.1957 47.9874C55.236 47.9643 55.3488 48.0516 55.4675 48.1977C55.8101 48.619 57.1595 51.1515 57.4985 52.0091C57.5722 52.1955 57.6423 52.3384 57.6542 52.3264C57.6898 52.2908 57.2349 51.2111 56.9902 50.7507C55.8708 48.6442 55.655 48.2893 55.2744 47.9286C55.0655 47.7305 54.2745 46.9595 53.5166 46.215C52.7588 45.4707 51.7963 44.5346 51.3778 44.135C50.9593 43.7353 50.3896 43.1897 50.1118 42.9225C49.7754 42.5991 49.5353 42.417 49.3932 42.3778C49.2758 42.3454 49.1797 42.2945 49.1797 42.2648C49.1797 42.2351 49.2193 42.226 49.2676 42.2445C49.316 42.2631 49.3555 42.2656 49.3555 42.2501C49.3555 42.2345 48.7619 41.6523 48.0364 40.9564C46.7822 39.7531 46.7101 39.6941 46.5715 39.7572C46.4205 39.826 46.3954 39.872 46.4687 39.9453C46.4923 39.9689 46.5146 40.0854 46.5185 40.2041C46.5224 40.3229 46.5461 40.5585 46.5711 40.7277C46.5962 40.8969 46.6025 41.0353 46.5851 41.0353C46.5678 41.0353 46.524 40.8441 46.4878 40.6105C46.4516 40.3769 46.3859 40.1066 46.3417 40.0099C46.2975 39.9132 46.2441 39.7814 46.2229 39.7169C46.1921 39.6229 46.1991 39.6142 46.2583 39.673C46.3449 39.759 46.4237 39.7643 46.538 39.692C46.6056 39.6491 46.5915 39.6037 46.4604 39.4439C46.2913 39.2377 45.6584 38.6859 45.6066 38.6995C45.5899 38.7039 45.5169 38.7189 45.4444 38.7329ZM39.2443 38.8026C39.2661 38.8378 39.3384 38.8959 39.4049 38.9314C39.4916 38.9778 39.5147 38.978 39.4863 38.9321C39.4645 38.8968 39.3922 38.8388 39.3257 38.8032C39.2389 38.7568 39.2159 38.7566 39.2443 38.8026ZM44.9619 39.0447C44.9623 39.0599 45.0008 39.1779 45.0472 39.3068C45.0936 39.4357 45.1328 39.6321 45.1342 39.7433C45.1358 39.8697 45.1574 39.9246 45.1917 39.8898C45.2596 39.8211 45.1555 39.2966 45.0414 39.1326C44.9972 39.0691 44.9614 39.0295 44.9619 39.0447ZM45.3169 39.1163C45.3193 39.1567 45.3701 39.2951 45.4297 39.424C45.558 39.7012 45.5866 39.5444 45.462 39.2463C45.3765 39.0415 45.3088 38.981 45.3169 39.1163ZM44.5495 39.3034C44.5809 39.3858 44.5954 39.4533 44.5818 39.4533C44.5682 39.4533 44.5919 39.5785 44.6344 39.7316C44.677 39.8846 44.7434 40.1615 44.782 40.3468C44.8206 40.5321 44.8728 40.6837 44.898 40.6837C44.9232 40.6837 44.9098 40.5528 44.8683 40.3928C44.8269 40.2327 44.7807 40.0284 44.7657 39.9387C44.7124 39.6178 44.5941 39.2164 44.5438 39.1853C44.5156 39.1678 44.5182 39.221 44.5495 39.3034ZM43.3713 39.3561C43.4071 39.3993 43.4178 39.4535 43.3949 39.4764C43.372 39.4993 43.3979 39.5009 43.4525 39.48C43.5376 39.4473 43.5401 39.4302 43.4695 39.3597C43.3647 39.2548 43.2848 39.2519 43.3713 39.3561ZM44.3408 39.424C44.4352 39.7931 44.499 40.1505 44.5226 40.4417C44.5374 40.6231 44.5619 40.8333 44.5771 40.9087C44.6099 41.0718 44.5961 41.0624 44.0581 40.5519C43.5708 40.0896 43.5098 40.1267 43.9702 40.6053C44.1768 40.8199 44.429 41.0861 44.5308 41.1968C44.6893 41.3692 44.7192 41.3825 44.7393 41.2899C44.7521 41.2304 44.727 41.0368 44.6834 40.8595C44.6399 40.6823 44.5945 40.445 44.5825 40.3322C44.5456 39.9838 44.4383 39.5092 44.373 39.4056C44.3186 39.319 44.3146 39.3212 44.3408 39.424ZM44.8376 39.5425C44.9378 39.8569 44.9626 39.8958 44.9312 39.6894C44.9141 39.5777 44.8736 39.4596 44.8411 39.4271C44.8014 39.3874 44.8003 39.4252 44.8376 39.5425ZM45.7296 39.5253C45.7258 39.6133 45.7595 39.7847 45.8047 39.9062C45.8497 40.0277 45.9186 40.3644 45.9578 40.6544C46.037 41.2414 46.1743 41.8387 46.2608 41.9728C46.309 42.0476 46.3131 42.0464 46.2882 41.9649C46.1443 41.4945 46.0382 40.8349 45.9379 39.7878C45.9323 39.7302 45.9016 39.6906 45.8698 39.6999C45.8378 39.7093 45.7948 39.6378 45.7741 39.5411L45.7366 39.3654L45.7296 39.5253ZM45.8445 39.7804C45.8473 39.8486 45.8612 39.8625 45.8799 39.8158C45.8968 39.7735 45.8947 39.723 45.8753 39.7035C45.8558 39.6841 45.842 39.7186 45.8445 39.7804ZM46.0203 39.8976C46.0231 39.9658 46.037 39.9797 46.0557 39.933C46.0726 39.8907 46.0705 39.8402 46.0511 39.8207C46.0316 39.8012 46.0178 39.8358 46.0203 39.8976ZM44.9656 40.0148C44.9684 40.083 44.9823 40.0969 45.001 40.0502C45.0179 40.0079 45.0158 39.9573 44.9964 39.9379C44.9769 39.9184 44.9631 39.953 44.9656 40.0148ZM46.0857 40.1857C46.0869 40.2824 46.1 40.3148 46.1149 40.2578C46.1297 40.2008 46.1287 40.1217 46.1127 40.082C46.0966 40.0424 46.0845 40.089 46.0857 40.1857ZM46.6895 40.1564C46.7478 40.2208 46.8087 40.2736 46.8248 40.2736C46.841 40.2736 46.8064 40.2208 46.7481 40.1564C46.6898 40.0919 46.6288 40.0392 46.6127 40.0392C46.5966 40.0392 46.6312 40.0919 46.6895 40.1564ZM45.2393 40.1857C45.2738 40.2501 45.3486 40.5217 45.4055 40.7891C45.4623 41.0566 45.531 41.2891 45.5581 41.3059C45.5852 41.3226 45.5897 41.365 45.5681 41.4C45.5445 41.4382 45.5561 41.4467 45.5974 41.4211C45.6352 41.3978 45.6465 41.3476 45.6227 41.3096C45.5988 41.2715 45.5776 41.214 45.5756 41.1818C45.5735 41.1495 45.5267 40.98 45.4715 40.8049C45.4163 40.6299 45.3711 40.4288 45.3711 40.358C45.3711 40.2872 45.3274 40.1931 45.2738 40.1489C45.1867 40.0769 45.1831 40.0808 45.2393 40.1857ZM45.0332 40.3322C45.0332 40.445 45.0452 40.4911 45.0599 40.4347C45.0747 40.3783 45.0747 40.286 45.0599 40.2296C45.0452 40.1733 45.0332 40.2194 45.0332 40.3322ZM45.7859 40.2491C45.7887 40.3174 45.8026 40.3313 45.8213 40.2846C45.8382 40.2423 45.8361 40.1917 45.8167 40.1723C45.7972 40.1528 45.7834 40.1874 45.7859 40.2491ZM44.2816 40.2841C44.297 40.3381 44.3271 40.4757 44.3484 40.5896C44.3698 40.7035 44.4226 40.826 44.4656 40.8617C44.5302 40.9153 44.5329 40.8927 44.481 40.7319C44.4128 40.5205 44.2359 40.1232 44.2816 40.2841ZM43.2618 40.5958C43.3711 40.7086 43.4737 40.8009 43.4898 40.8009C43.5059 40.8009 43.4297 40.7086 43.3204 40.5958C43.211 40.483 43.1084 40.3908 43.0923 40.3908C43.0762 40.3908 43.1524 40.483 43.2618 40.5958ZM46.1421 40.5079C46.1421 40.5885 46.1554 40.6215 46.1716 40.5812C46.1879 40.5409 46.1879 40.475 46.1716 40.4347C46.1554 40.3944 46.1421 40.4274 46.1421 40.5079ZM46.8043 40.4533C46.783 40.4876 46.7782 40.5283 46.7936 40.5437C46.8089 40.559 46.8371 40.5309 46.8562 40.4812C46.8958 40.3779 46.862 40.3598 46.8043 40.4533ZM45.6183 40.5372C45.6189 40.6017 45.6395 40.7335 45.6641 40.8302C45.7043 40.9881 45.7089 40.9911 45.7099 40.8595C45.7105 40.7789 45.6899 40.6471 45.6641 40.5665C45.6274 40.4518 45.6174 40.4454 45.6183 40.5372ZM42.2071 40.5887C42.2071 40.6008 42.2532 40.647 42.3096 40.6912C42.4025 40.7641 42.4046 40.762 42.3318 40.6691C42.2552 40.5715 42.2071 40.5405 42.2071 40.5887ZM47.021 40.9767C47.021 41.0573 47.0343 41.0902 47.0505 41.0499C47.0668 41.0097 47.0668 40.9438 47.0505 40.9035C47.0343 40.8632 47.021 40.8961 47.021 40.9767ZM47.4919 41.5333C47.4931 41.63 47.5062 41.6625 47.5211 41.6055C47.536 41.5485 47.535 41.4694 47.5189 41.4297C47.5029 41.39 47.4908 41.4367 47.4919 41.5333ZM44.4336 41.6396C44.4336 41.6496 44.5193 41.7354 44.6241 41.83L44.8145 42.0021L44.6424 41.8117C44.482 41.6342 44.4336 41.5943 44.4336 41.6396ZM48.3547 41.7238C48.3848 41.7801 48.4276 41.879 48.4498 41.9435C48.4764 42.0205 48.4999 42.0347 48.5184 41.985C48.5411 41.9242 48.5657 41.9237 48.6434 41.9825C48.6967 42.0226 48.6494 41.9578 48.5384 41.8384C48.314 41.5971 48.2734 41.5718 48.3547 41.7238ZM48.0125 42.0437C48.01 42.0989 48.0656 42.1978 48.1361 42.2635C48.2066 42.3292 48.2374 42.3829 48.2044 42.3829C48.1715 42.3829 48.1446 42.426 48.1446 42.4786C48.1446 42.5615 48.1549 42.5601 48.2225 42.4676C48.2892 42.3765 48.2845 42.3433 48.191 42.2401C48.1307 42.1736 48.0669 42.0797 48.0492 42.0314C48.0234 41.9607 48.0162 41.9631 48.0125 42.0437ZM47.3619 42.1003C47.3987 42.1446 47.3989 42.1936 47.3626 42.2373C47.286 42.3297 47.6109 43.3593 47.7534 43.4755C47.8128 43.5239 47.8287 43.547 47.7888 43.5268C47.742 43.5032 47.728 43.5208 47.7494 43.5766C47.7676 43.6241 47.823 43.6785 47.8724 43.6974C47.9456 43.7255 47.9541 43.7019 47.9179 43.5701C47.8935 43.4812 47.8676 43.3424 47.8604 43.2619C47.8531 43.1813 47.8416 43.1154 47.8348 43.1154C47.828 43.1154 47.8098 43.0363 47.7944 42.9396C47.779 42.8429 47.7315 42.6935 47.6889 42.6075C47.6415 42.5118 47.6325 42.4302 47.6657 42.397C47.6988 42.3638 47.6804 42.3109 47.6182 42.2604C47.5343 42.1922 47.5251 42.1919 47.5653 42.2587C47.599 42.3146 47.5889 42.3312 47.5326 42.3124C47.4878 42.2975 47.4512 42.2559 47.4512 42.2199C47.4512 42.1839 47.4183 42.1268 47.378 42.0929C47.3242 42.0477 47.3199 42.0497 47.3619 42.1003ZM43.1739 42.2072C43.2322 42.2716 43.2931 42.3244 43.3092 42.3244C43.3253 42.3244 43.2908 42.2716 43.2325 42.2072C43.1742 42.1427 43.1132 42.09 43.0971 42.09C43.081 42.09 43.1156 42.1427 43.1739 42.2072ZM47.7508 42.2765C47.7677 42.3038 47.8061 42.3111 47.8361 42.2925C47.9128 42.2452 47.9041 42.2267 47.8054 42.2267C47.7584 42.2267 47.7339 42.2491 47.7508 42.2765ZM45.6346 42.3241C45.6544 42.3561 45.7285 42.4127 45.7992 42.4497C45.9269 42.5167 45.927 42.5163 45.8162 42.3915C45.7043 42.2655 45.5669 42.2145 45.6346 42.3241ZM46.8653 42.3829C46.8852 42.4152 46.9131 42.4415 46.9273 42.4415C46.9416 42.4415 46.9532 42.4152 46.9532 42.3829C46.9532 42.3507 46.9252 42.3244 46.8911 42.3244C46.857 42.3244 46.8454 42.3507 46.8653 42.3829ZM47.8027 42.4801C47.8139 42.5394 47.8251 42.6078 47.8276 42.632C47.8301 42.6562 47.8617 42.6759 47.8978 42.6759C47.9406 42.6759 47.9354 42.642 47.8832 42.579C47.839 42.5257 47.8116 42.4708 47.8223 42.4569C47.8331 42.4431 47.8284 42.4184 47.812 42.402C47.7957 42.3856 47.7915 42.4207 47.8027 42.4801ZM45.4883 42.5809C45.4883 42.593 45.5345 42.6392 45.5909 42.6834C45.6838 42.7562 45.6858 42.7542 45.613 42.6613C45.5364 42.5636 45.4883 42.5326 45.4883 42.5809ZM47.9493 42.8517C47.9838 42.9161 48.0251 42.9689 48.0413 42.9689C48.0574 42.9689 48.0424 42.9161 48.0079 42.8517C47.9733 42.7872 47.932 42.7345 47.9159 42.7345C47.8997 42.7345 47.9147 42.7872 47.9493 42.8517ZM46.6016 43.2326C46.6773 43.3131 46.7524 43.379 46.7685 43.379C46.7846 43.379 46.7359 43.3131 46.6602 43.2326C46.5845 43.152 46.5094 43.0861 46.4933 43.0861C46.4771 43.0861 46.5259 43.152 46.6016 43.2326ZM45.9571 43.8113C45.9571 43.8235 46.0032 43.8696 46.0596 43.9139C46.1525 43.9867 46.1546 43.9847 46.0818 43.8917C46.0052 43.7941 45.9571 43.7631 45.9571 43.8113ZM46.4258 44.1629C46.4258 44.175 46.472 44.2212 46.5284 44.2654C46.6213 44.3383 46.6233 44.3362 46.5505 44.2433C46.4739 44.1457 46.4258 44.1147 46.4258 44.1629ZM44.0821 44.3387C44.0821 44.3508 44.1282 44.397 44.1846 44.4412C44.2775 44.5141 44.2796 44.512 44.2068 44.4191C44.1302 44.3215 44.0821 44.2905 44.0821 44.3387ZM46.6895 44.5509C46.7478 44.6154 46.8087 44.6681 46.8248 44.6681C46.841 44.6681 46.8064 44.6154 46.7481 44.5509C46.6898 44.4865 46.6288 44.4337 46.6127 44.4337C46.5966 44.4337 46.6312 44.4865 46.6895 44.5509ZM46.5222 44.5957C46.5044 44.6246 46.6401 44.7911 46.8237 44.9658C47.0074 45.1404 47.0583 45.1762 46.937 45.0453C46.8157 44.9143 46.7303 44.7933 46.7473 44.7764C46.7642 44.7594 46.7278 44.7 46.6663 44.6444C46.6049 44.5888 46.5401 44.5668 46.5222 44.5957ZM44.8731 45.0783C44.9989 45.2072 45.1151 45.3126 45.1312 45.3126C45.1474 45.3126 45.0575 45.2072 44.9317 45.0783C44.8058 44.9493 44.6896 44.8439 44.6735 44.8439C44.6574 44.8439 44.7472 44.9493 44.8731 45.0783ZM47.4512 45.0008C47.4834 45.0305 47.6354 45.1544 47.7888 45.2761C47.9423 45.3978 48.0555 45.5173 48.0405 45.5416C48.0254 45.566 48.1498 45.7156 48.317 45.8741C48.4841 46.0326 48.5574 46.0898 48.4799 46.0011C48.3103 45.8071 48.3817 45.7872 48.5848 45.9718C48.6646 46.0443 48.7103 46.0698 48.6865 46.0285C48.6261 45.9239 47.6585 45.0829 47.5123 45.0081C47.4465 44.9743 47.419 44.971 47.4512 45.0008ZM45.5762 45.7228C45.7349 45.8839 45.878 46.0158 45.8941 46.0158C45.9102 46.0158 45.7935 45.8839 45.6348 45.7228C45.4761 45.5617 45.333 45.4298 45.3169 45.4298C45.3008 45.4298 45.4175 45.5617 45.5762 45.7228ZM48.1792 45.6858C48.3378 45.858 48.3691 45.8748 48.3271 45.7654C48.3114 45.7245 48.2398 45.6551 48.1679 45.6113C48.0432 45.5353 48.0437 45.5387 48.1792 45.6858ZM46.0157 46.0936C46.0157 46.1092 46.5233 46.5901 47.1436 47.1625C47.7639 47.7348 48.4836 48.4031 48.7427 48.6475C49.1664 49.047 49.1604 49.0387 48.6836 48.5646C48.0689 47.9534 46.0157 46.0518 46.0157 46.0936ZM48.8962 46.4064C49.0003 46.5138 49.0907 46.6017 49.097 46.6017C49.1496 46.6017 49.1602 46.4208 49.1095 46.3895C49.0701 46.3651 49.0609 46.3759 49.0863 46.4168C49.1092 46.454 49.1042 46.4845 49.0751 46.4845C49.0044 46.4845 48.82 46.2778 48.8573 46.2405C48.8735 46.2243 48.8463 46.211 48.7968 46.211C48.7359 46.211 48.7679 46.274 48.8962 46.4064ZM49.2383 46.7017C49.2383 46.7313 49.3174 46.8313 49.4141 46.924C49.5108 47.0166 49.5899 47.0771 49.5899 47.0583C49.5899 47.0396 49.5108 46.9395 49.4141 46.8361C49.3174 46.7326 49.2383 46.6721 49.2383 46.7017ZM49.6485 47.0926C49.6485 47.1047 49.6946 47.1509 49.751 47.1951C49.8439 47.268 49.846 47.2659 49.7732 47.173C49.6966 47.0754 49.6485 47.0444 49.6485 47.0926ZM49.8829 47.327C49.8829 47.3391 49.929 47.3853 49.9854 47.4295C50.0783 47.5023 50.0804 47.5003 50.0075 47.4074C49.931 47.3097 49.8829 47.2787 49.8829 47.327ZM50 48.0958C50.4019 48.4987 50.7439 48.8283 50.76 48.8283C50.7761 48.8283 50.4605 48.4987 50.0586 48.0958C49.6568 47.693 49.3148 47.3634 49.2987 47.3634C49.2826 47.3634 49.5982 47.693 50 48.0958ZM56.2403 47.8563C56.4336 48.0382 56.6446 48.216 56.709 48.2512C56.8545 48.3307 56.8116 48.2904 56.2989 47.8654L55.8887 47.5254L56.2403 47.8563ZM50.3516 47.7371C50.3516 47.7493 50.3978 47.7954 50.4541 47.8397C50.5471 47.9125 50.5491 47.9104 50.4763 47.8175C50.3997 47.7199 50.3516 47.6889 50.3516 47.7371ZM50.6213 47.881C50.6047 47.9079 50.6283 47.9298 50.6739 47.9298C50.7194 47.9298 50.743 47.9079 50.7264 47.881C50.7098 47.8541 50.6862 47.8322 50.6739 47.8322C50.6616 47.8322 50.6379 47.8541 50.6213 47.881ZM50.9082 48.2423C50.9665 48.3068 51.0275 48.3595 51.0436 48.3595C51.0597 48.3595 51.0251 48.3068 50.9668 48.2423C50.9085 48.1779 50.8476 48.1251 50.8315 48.1251C50.8154 48.1251 50.8499 48.1779 50.9082 48.2423ZM50.8734 48.7593C50.909 48.8259 50.967 48.8982 51.0023 48.92C51.0482 48.9484 51.048 48.9253 51.0016 48.8386C50.9661 48.7721 50.9081 48.6998 50.8728 48.678C50.8269 48.6495 50.827 48.6726 50.8734 48.7593ZM51.5235 49.3134C51.5235 49.3269 51.741 49.5089 52.0069 49.7179C52.2728 49.9269 52.7012 50.292 52.959 50.5292C53.6211 51.1382 53.8085 51.2968 53.6668 51.1281C53.6059 51.0556 53.5825 50.9962 53.6147 50.9962C53.6899 50.9962 53.877 51.2013 53.8377 51.2406C53.8213 51.257 53.8669 51.3208 53.9391 51.3823C54.0453 51.4729 54.0551 51.4748 53.9909 51.3917C53.9472 51.3354 53.9283 51.2892 53.949 51.2892C53.9837 51.2892 55.5527 52.5567 56.2549 53.152C56.4241 53.2954 56.5625 53.3992 56.5625 53.3825C56.5625 53.3658 56.2923 53.119 55.962 52.834C55.6316 52.549 55.1768 52.1408 54.9512 51.927C54.7256 51.7131 54.0952 51.1592 53.5503 50.6959C52.3747 49.6964 52.0193 49.4096 52.461 49.8166C52.6382 49.98 52.7544 50.1144 52.7191 50.1154C52.6838 50.1165 52.6082 50.0656 52.551 50.0025C52.4938 49.9393 52.4304 49.8907 52.4101 49.8945C52.3206 49.9115 52.1722 49.8064 52.2067 49.7506C52.2276 49.7167 52.2201 49.7042 52.1901 49.7228C52.16 49.7414 52.0703 49.7052 51.9906 49.6424C51.7066 49.4183 51.5235 49.2894 51.5235 49.3134ZM52.4024 49.9637C52.4024 49.9758 52.4486 50.022 52.5049 50.0662C52.5979 50.1391 52.5999 50.137 52.5271 50.0441C52.4505 49.9465 52.4024 49.9155 52.4024 49.9637ZM52.7762 50.1984C52.7931 50.3133 53.1807 50.7242 53.4278 50.8889C53.5245 50.9533 53.4454 50.8606 53.252 50.6828C53.0586 50.5051 52.9004 50.3328 52.9004 50.3C52.9004 50.2672 52.8693 50.2093 52.8312 50.1712C52.7781 50.118 52.7653 50.1243 52.7762 50.1984ZM56.0352 51.8387C56.0352 51.8508 56.0814 51.897 56.1377 51.9412C56.2307 52.0141 56.2327 52.012 56.1599 51.9191C56.0833 51.8215 56.0352 51.7905 56.0352 51.8387ZM53.8086 52.6004C53.8086 52.6125 53.8548 52.6587 53.9112 52.7029C54.0041 52.7758 54.0062 52.7737 53.9333 52.6808C53.8567 52.5832 53.8086 52.5522 53.8086 52.6004ZM54.1016 52.8348C54.1016 52.8469 54.1478 52.8931 54.2041 52.9373C54.2971 53.0101 54.2991 53.0081 54.2263 52.9152C54.1497 52.8176 54.1016 52.7866 54.1016 52.8348ZM54.336 53.0106C54.336 53.0227 54.3821 53.0689 54.4385 53.1131C54.5314 53.1859 54.5335 53.1839 54.4607 53.091C54.3841 52.9933 54.336 52.9623 54.336 53.0106ZM58.9114 53.0562C58.9086 53.0774 58.9812 53.2619 59.0728 53.4664C59.1643 53.6708 59.2851 53.9764 59.3411 54.1456C59.4334 54.4241 59.5559 54.5634 59.5474 54.38C59.5435 54.2965 58.9194 52.9973 58.9114 53.0562ZM57.3243 53.2449C57.3243 53.2571 57.3704 53.3032 57.4268 53.3475C57.5197 53.4203 57.5218 53.4183 57.4489 53.3253C57.3724 53.2277 57.3243 53.1967 57.3243 53.2449ZM57.793 53.541C57.793 53.5571 57.8457 53.5984 57.9102 53.6329C57.9746 53.6675 58.0274 53.6825 58.0274 53.6663C58.0274 53.6502 57.9746 53.6089 57.9102 53.5743C57.8457 53.5398 57.793 53.5248 57.793 53.541ZM56.2989 54.9461C56.3955 55.0292 56.4988 55.0973 56.5284 55.0975C56.5919 55.0978 56.5913 55.0973 56.3282 54.9275L56.1231 54.7952L56.2989 54.9461ZM5.10328 64.983C5.17617 64.997 5.28164 64.9964 5.33766 64.9818C5.39367 64.9671 5.33402 64.9557 5.20512 64.9563C5.07621 64.9569 5.03039 64.969 5.10328 64.983ZM5.74711 64.9847C5.91633 64.9966 6.19318 64.9966 6.36234 64.9847C6.53156 64.9729 6.3931 64.9632 6.05473 64.9632C5.71635 64.9632 5.57795 64.9729 5.74711 64.9847Z" fill="white"/>
</svg>
