<svg width="40" height="43" viewBox="0 0 40 43" fill="none" xmlns="http://www.w3.org/2000/svg">
<path d="M35.6239 1.07706C35.5104 1.29747 35.4203 1.32435 35.2285 1.18996L35.0641 1.07169L35.0915 1.21146C35.1072 1.30823 35.0994 1.35123 35.0681 1.35123C35.0211 1.35123 34.5866 1.20071 34.34 1.10394C34.2774 1.07706 34.1873 1.11469 34.0543 1.21684L33.8546 1.36198L32.9035 1.37811C32.3789 1.38886 31.9288 1.41037 31.9014 1.43725C31.8701 1.45875 31.6665 1.47488 31.4395 1.46413C31.2164 1.45875 30.868 1.48563 30.6684 1.51788C30.3827 1.57164 30.2339 1.57164 29.9795 1.51788C29.7368 1.4695 29.5685 1.4695 29.3023 1.51251C29.1105 1.54477 28.7426 1.59315 28.4842 1.62003C28.2298 1.64691 27.9127 1.71142 27.7875 1.7598C27.5957 1.83506 27.5291 1.84044 27.4274 1.79205C27.2591 1.70604 26.6171 1.71142 26.1122 1.80281C25.5798 1.89957 24.0767 1.86732 23.4505 1.74905C23.0825 1.67916 22.9299 1.67379 22.6089 1.72217C21.9944 1.81356 19.8141 1.87269 16.1973 1.90495L14.5572 1.9157L14.4907 1.79205L14.4241 1.66303L14.291 1.76517C14.1658 1.86194 14.0992 1.86732 13.5082 1.82969C13.152 1.81356 12.7527 1.76517 12.6157 1.72755C12.4044 1.66841 12.2987 1.67379 11.9112 1.74905C11.5784 1.81894 11.4062 1.82969 11.2888 1.79205C11.0344 1.71142 9.53519 1.77593 9.30425 1.8727C9.00676 2.00172 7.84031 1.93183 7.61719 1.77055C7.45279 1.65766 7.26099 1.6254 7.08094 1.68991C6.99091 1.72217 6.97525 1.71142 6.95176 1.57164C6.94002 1.491 6.88131 1.35661 6.82259 1.28135L6.71299 1.1362L6.42334 1.30285C6.18848 1.43725 6.10628 1.46413 5.97711 1.43187C5.88708 1.41037 5.75008 1.39962 5.66788 1.39962C5.58177 1.40499 5.46042 1.37811 5.38997 1.34586C5.28819 1.29747 5.21382 1.30285 5.01028 1.36736C4.87328 1.41037 4.658 1.46413 4.53274 1.48563C4.33311 1.51789 4.29005 1.50713 4.21568 1.41037C4.16871 1.34586 4.07085 1.29747 3.97691 1.2921C3.84774 1.28135 3.79685 1.30823 3.68334 1.448C3.49545 1.68454 3.33105 1.74905 3.02183 1.70604C2.55603 1.63615 2.57951 1.63078 2.53645 1.80818C2.47383 2.0716 2.4386 2.10386 2.25071 2.06622C2.14503 2.0501 2.01194 2.06085 1.918 2.10386C1.76534 2.17374 1.76143 2.17374 1.62443 1.99096C1.55006 1.8942 1.4796 1.75443 1.46394 1.68454L1.44046 1.55552L1.34651 1.72217C1.26823 1.86194 1.22126 1.88882 1.09208 1.88882C0.947256 1.88882 0.935513 1.89957 0.958999 2.00709C1.04511 2.39415 1.03337 2.56618 0.884628 3.01776C0.743714 3.44783 0.739799 3.48546 0.708485 4.32948C0.688914 4.81868 0.649771 5.35089 0.610628 5.5498C0.551914 5.87773 0.547999 5.92073 0.606714 6.07664C0.657599 6.21103 0.661514 6.25941 0.622371 6.34543C0.583228 6.43144 0.587142 6.47983 0.630199 6.58735C0.669342 6.69486 0.673256 6.77013 0.638028 6.92065C0.602799 7.08193 0.606714 7.15719 0.673257 7.3776C0.810256 7.86143 0.759371 8.09797 0.407085 8.5818C0.277914 8.7592 0.133086 9.01187 0.0861142 9.13552L0 9.36668L0.0782856 9.6731C0.125257 9.83975 0.203543 10.3182 0.258343 10.7268C0.317057 11.1945 0.3836 11.517 0.422742 11.5869C0.461885 11.6514 0.583228 11.8396 0.696742 12.0062C0.810256 12.1729 0.919856 12.3664 0.935513 12.4363C0.958999 12.5116 0.947256 12.8126 0.912028 13.2051C0.868971 13.7104 0.865056 13.9362 0.896371 14.2534C0.935513 14.6189 0.931599 14.6673 0.865056 14.8017C0.794599 14.9307 0.794599 14.9576 0.845485 15.0974C0.912028 15.2748 0.927685 16.4736 0.868971 16.8499C0.849399 16.9736 0.814171 17.2101 0.786771 17.3767C0.763285 17.5434 0.712399 17.7208 0.669342 17.7746C0.602799 17.8606 0.598885 17.8767 0.653685 17.9896C0.708485 18.1079 0.704571 18.1401 0.571485 18.4949C0.422742 18.9089 0.317057 19.3873 0.317057 19.6669C0.317057 19.8712 0.645856 20.5861 0.810256 20.7421C0.868971 20.7958 0.974656 20.9141 1.05294 21.0055C1.17037 21.1506 1.18603 21.1882 1.14688 21.2581C1.11948 21.3011 1.01771 21.3549 0.919856 21.3764C0.775028 21.4033 0.728056 21.4463 0.649771 21.6076C0.524514 21.871 0.407085 22.3494 0.391428 22.672C0.375771 22.9247 0.379685 22.9354 0.4932 22.9623C0.602799 22.9892 0.610628 23.0107 0.634114 23.2633C0.649771 23.4139 0.708485 23.688 0.767199 23.8708C0.868971 24.1719 0.872885 24.2256 0.837656 24.4837C0.786771 24.8331 0.802428 27.0587 0.861142 27.5049C0.880713 27.6823 0.896371 28.0909 0.892456 28.4188C0.888542 28.9134 0.900285 29.0478 0.970742 29.2575C1.0412 29.4779 1.04511 29.5155 0.994228 29.6445C0.966828 29.7252 0.927685 29.9509 0.908113 30.1445C0.876799 30.5208 0.919856 31.639 0.982485 32.0637C1.03728 32.4292 1.02946 32.6496 0.958999 32.7894C0.904199 32.9023 0.904199 32.9399 0.962913 33.2679C1.02554 33.6012 1.02554 33.6657 0.962913 34.2516C0.896371 34.8591 0.888542 34.8806 0.782856 34.9344C0.677171 34.9935 0.626285 35.1118 0.704571 35.1118C0.724142 35.1118 0.771114 35.1494 0.802428 35.1978C0.857228 35.2731 0.857228 35.2946 0.806342 35.4343C0.735885 35.6225 0.731971 35.9128 0.794599 36.1063C0.829828 36.2138 0.825913 36.273 0.786771 36.3751C0.747628 36.4826 0.747628 36.5364 0.786771 36.6708C0.829828 36.8052 0.825913 36.859 0.786771 36.9718C0.743714 37.0794 0.743713 37.1546 0.778942 37.3589C0.806342 37.4987 0.845485 37.7944 0.865056 38.0148C0.884628 38.2352 0.939428 38.5739 0.982485 38.7566C1.02554 38.9555 1.06077 39.262 1.06468 39.4824C1.0686 39.6974 1.08034 40.0146 1.096 40.192L1.11948 40.5146L1.51091 40.5199C1.82014 40.5199 1.9454 40.5468 2.1098 40.6382C2.31334 40.7565 2.34857 40.7565 4.51708 40.7618C7.06136 40.7672 7.12399 40.7672 7.28839 40.7027C7.36668 40.6705 7.44105 40.6705 7.48802 40.7081C7.59762 40.7887 9.64479 40.778 9.75439 40.7027C9.8131 40.6543 9.88356 40.6597 10.0323 40.7081C10.2006 40.7672 10.2515 40.7672 10.4002 40.692C10.5412 40.6221 10.5999 40.6167 10.6938 40.6651C10.7917 40.7188 10.8347 40.7081 10.9756 40.6006C11.0813 40.5199 11.187 40.4823 11.277 40.4984C11.3945 40.5146 11.4219 40.5414 11.4571 40.7027C11.508 40.9124 11.5824 40.9554 11.7115 40.8586C11.8368 40.7726 14.9643 40.735 15.4497 40.821C15.7589 40.8747 15.8333 40.8694 16.0094 40.7887C16.1464 40.7296 16.2325 40.7135 16.2795 40.7511C16.3852 40.8317 16.5848 40.8425 16.9684 40.7887C17.2033 40.7565 17.489 40.7672 17.8609 40.8156C18.4637 40.8909 18.9021 40.8479 19.2935 40.6705C19.4696 40.5898 19.5127 40.5898 19.5949 40.6489C19.6732 40.7081 20.0098 40.7242 21.1332 40.7242C22.331 40.7242 22.6245 40.7081 22.8985 40.6328C23.0786 40.5844 23.2978 40.5414 23.3878 40.5414C23.5561 40.5414 23.8223 40.6812 23.9789 40.8532C24.0572 40.9392 24.1081 40.9446 24.4134 40.907C24.6052 40.8801 25.7521 40.8532 26.9616 40.8479L29.1614 40.8371L29.271 40.692L29.3845 40.5414L29.4667 40.6597C29.5489 40.7726 29.5763 40.7726 31.326 40.7941C32.3007 40.8049 33.3301 40.8156 33.608 40.821C33.9916 40.8264 34.1756 40.8049 34.3517 40.735C34.7314 40.5791 34.8254 40.5737 35.0289 40.692C35.3577 40.8855 35.6474 40.9231 36.2228 40.8317C36.5555 40.7833 36.8804 40.7672 37.1309 40.7887C37.4675 40.8156 37.5497 40.8049 37.718 40.7135C37.8433 40.6489 37.9411 40.6221 37.992 40.6543C38.0351 40.6758 38.1368 40.6973 38.219 40.6973L38.3717 40.7027L38.1877 40.4232C38.086 40.2673 37.9881 40.0845 37.9685 40.0146C37.8863 39.7135 37.949 39.3964 38.1447 39.1491C38.2738 38.9824 38.3091 39.0308 38.2543 39.2996C38.1094 39.9608 38.2817 40.407 38.7553 40.5737C39.1154 40.7027 39.3503 40.6489 39.5421 40.3855C39.726 40.1329 39.7848 39.8426 39.7652 39.2512C39.7534 38.8373 39.7378 38.7513 39.6282 38.504C39.4716 38.1599 39.4677 38.0954 39.6125 37.9879C39.8239 37.8427 39.8591 37.2299 39.7495 35.6924C39.6752 34.6065 39.6947 34.2248 39.8787 33.4721C39.9883 32.9991 40.0157 32.8324 39.9922 32.6711C39.957 32.4077 39.9061 32.4776 39.863 32.8485C39.82 33.241 39.7534 33.2571 39.7182 32.8808C39.6947 32.5797 39.7143 32.3378 39.7808 32.2249C39.8004 32.1873 39.7965 31.9346 39.7691 31.5798C39.7104 30.838 39.7065 29.8918 39.7613 27.6393C39.7965 26.1663 39.7926 25.7094 39.7495 25.1395C39.7221 24.7525 39.6947 24.2471 39.6947 24.0106C39.6947 23.6827 39.6752 23.5375 39.6204 23.4139C39.546 23.2526 39.546 23.2418 39.6204 22.9569C39.6752 22.7257 39.6908 22.5053 39.6947 21.8925V21.1237L39.8122 20.9356C39.9374 20.742 39.9726 20.5646 39.8709 20.6184C39.8396 20.6345 39.7887 20.6668 39.7574 20.6829C39.7026 20.7098 39.6908 20.6023 39.6321 19.6561C39.6164 19.3443 39.6243 19.2476 39.6908 19.0701C39.7613 18.8874 39.7652 18.8336 39.7221 18.5594C39.6947 18.3713 39.6752 17.7584 39.6791 16.9198V15.5866L39.8043 15.4414C39.9531 15.2801 39.9687 15.1296 39.8435 15.135C39.7613 15.1404 39.7534 15.1027 39.6869 14.334C39.636 13.7426 39.6164 13.2158 39.6243 12.3718C39.6321 11.1246 39.5851 7.47437 39.5538 7.28083C39.546 7.21632 39.4912 7.0873 39.4364 6.99591L39.3307 6.82926L39.4599 6.68411L39.5851 6.53896L39.5538 6.16265C39.5342 5.95299 39.5147 5.8401 39.5068 5.90461C39.4794 6.14114 39.4207 6.02288 39.4207 5.73258C39.4207 5.5713 39.4403 5.4369 39.4599 5.4369C39.4834 5.4369 39.5029 5.47991 39.5029 5.5283C39.5186 5.8186 39.5734 5.04984 39.5734 4.523C39.5773 3.64136 39.5225 2.964 39.4246 2.71133C39.3385 2.47479 39.0998 2.15762 39.0097 2.15762C38.9784 2.15762 38.908 2.06623 38.8571 1.95871C38.6418 1.52864 38.2778 1.34586 37.7963 1.43187C37.6006 1.46413 37.5693 1.45337 37.4597 1.32973C37.2835 1.12545 37.17 1.10394 36.9078 1.23296C36.7003 1.33511 36.6651 1.34048 36.5946 1.2706C36.5359 1.21684 36.4459 1.20609 36.2737 1.22759C36.0466 1.25447 36.031 1.24909 35.9214 1.08781C35.7765 0.878155 35.7296 0.878155 35.6239 1.07706ZM36.2345 2.46404C36.1327 2.60919 35.9449 2.92636 35.8157 3.17903C35.4908 3.82951 35.3773 3.96391 35.115 4.00692C34.9937 4.02305 34.8567 4.08218 34.7941 4.14669C34.6884 4.25421 34.6845 4.25421 34.6845 4.15207C34.6845 3.94778 34.8723 3.72738 35.2051 3.55534C35.3812 3.45858 35.5378 3.35644 35.5495 3.32418C35.5652 3.2973 35.5965 3.13065 35.62 2.95862C35.6552 2.71671 35.6943 2.61457 35.7922 2.50167C35.9566 2.31351 36.121 2.21675 36.2893 2.21137H36.4224L36.2345 2.46404ZM8.81105 2.45329C8.81105 2.4963 8.77582 2.53393 8.73276 2.53393C8.65448 2.53393 8.63099 2.47479 8.68188 2.41028C8.72885 2.3404 8.81105 2.37265 8.81105 2.45329ZM39.1037 2.61457C39.182 2.64682 39.1937 2.6737 39.1741 2.84573C39.1389 3.13603 39.088 3.16828 38.951 2.99088C38.7944 2.78659 38.7905 2.4963 38.9471 2.55543C38.9823 2.56618 39.0528 2.59306 39.1037 2.61457ZM33.3458 2.89949C33.3536 2.93712 33.334 2.964 33.2988 2.964C33.2636 2.964 33.2362 2.92637 33.2362 2.87798C33.2362 2.78659 33.3223 2.80272 33.3458 2.89949ZM7.12791 3.0984C7.15531 3.1414 7.16705 3.21667 7.15139 3.25967C7.12399 3.36719 6.81868 3.36719 6.63471 3.25967C6.45074 3.15216 6.49771 3.05001 6.71299 3.08764C6.80302 3.10377 6.90088 3.0984 6.93219 3.07152C7.01439 2.99625 7.07311 3.007 7.12791 3.0984ZM1.25648 9.93114C1.25648 10.0172 1.233 10.1408 1.20168 10.1946C1.1508 10.2913 1.14688 10.2913 1.1234 10.1784C1.096 10.0655 1.1234 9.76987 1.16646 9.66235C1.20168 9.58709 1.25648 9.75374 1.25648 9.93114ZM1.96106 19.4088C1.96106 19.5325 1.89843 19.6024 1.8632 19.5217C1.82797 19.4465 1.86711 19.3067 1.92191 19.3067C1.94148 19.3067 1.96106 19.3551 1.96106 19.4088ZM39.5382 33.0044C39.5382 33.1173 39.4677 33.2302 39.3933 33.2302C39.3229 33.2302 39.3307 33.0958 39.4051 32.9937C39.4873 32.8808 39.5382 32.8862 39.5382 33.0044ZM34.4457 38.6061C34.4848 38.633 34.5435 38.7136 34.5788 38.7835C34.6336 38.9018 34.6336 38.9448 34.5475 39.3372C34.43 39.8909 34.3831 40.0576 34.3361 40.0576C34.2108 40.0576 34.0582 39.977 34.0582 39.9125C34.0582 39.8748 34.0934 39.7404 34.1365 39.6222C34.203 39.4448 34.2147 39.3534 34.1913 39.0953C34.1678 38.8158 34.1756 38.7674 34.25 38.6652C34.3439 38.5362 34.3517 38.5362 34.4457 38.6061ZM39.1937 38.7029L39.2994 38.7996L39.0332 38.7781C38.8532 38.762 38.724 38.7835 38.6222 38.8427C38.4343 38.9502 38.3678 38.9555 38.4422 38.8534C38.6261 38.6007 39.0019 38.5255 39.1937 38.7029ZM32.4142 38.8588C32.4142 38.9878 32.375 39.0631 32.2693 39.1383C32.1871 39.1975 32.1793 39.1921 32.1793 39.0416C32.1793 38.9448 32.2067 38.8588 32.2498 38.8265C32.3515 38.7405 32.4142 38.7566 32.4142 38.8588ZM33.6119 39.2351C33.5454 39.4179 33.4397 39.5523 33.4045 39.5039C33.3771 39.4609 33.4984 39.1975 33.5845 39.1061C33.6746 39.0201 33.6824 39.0577 33.6119 39.2351ZM22.9612 39.9071C22.9259 40.0684 22.8163 40.2834 22.7655 40.2888C22.6833 40.2941 22.7067 40.1221 22.8046 39.9555C22.9259 39.7619 22.9964 39.7404 22.9612 39.9071ZM29.2632 40.1597C29.2045 40.3156 29.0792 40.3855 29.0322 40.2834C29.0087 40.2243 29.1849 39.8587 29.2514 39.8264C29.3297 39.7942 29.3336 39.977 29.2632 40.1597ZM19.4188 39.8963C19.4657 39.934 19.4657 39.9608 19.4305 40.0092C19.3953 40.0576 19.3679 40.0576 19.3248 40.0038C19.223 39.8909 19.3052 39.7942 19.4188 39.8963ZM39.4051 40.063C39.3738 40.278 39.1859 40.493 39.1859 40.3156C39.1859 40.2511 39.3738 39.8963 39.409 39.8963C39.4207 39.8963 39.4207 39.9716 39.4051 40.063ZM26.3862 40.1597C26.3431 40.278 26.2883 40.3049 26.2531 40.2296C26.2296 40.1705 26.2766 40.0791 26.347 40.0469C26.4292 40.0092 26.4371 40.0307 26.3862 40.1597Z" fill="black"/>
<path d="M33.7524 7.02313C33.5107 7.07301 33.0348 7.27255 32.8008 7.42605C32.4861 7.62559 32.2751 7.8328 31.8568 8.35468C31.3503 8.97632 31.2582 9.04539 30.8437 9.09144L30.6173 9.11446L30.5559 9.30633C30.4715 9.58262 30.4101 9.6632 30.1722 9.78983C29.8883 9.94332 29.6772 10.0738 29.6273 10.1237C29.6043 10.1467 29.5698 10.2618 29.5544 10.3808C29.5391 10.4997 29.4968 10.6379 29.4623 10.6916C29.3741 10.8259 29.0287 11.0408 28.833 11.0868C28.5951 11.1406 28.4761 11.2403 28.3994 11.4591C28.315 11.7046 28.0847 11.908 27.8008 12.0001C27.5744 12.073 27.5628 12.0884 27.5053 12.3685C27.4938 12.4261 27.3787 12.5796 27.2443 12.7177C27.0256 12.9364 26.9757 12.9671 26.6687 13.0669L26.3311 13.1743L26.1507 13.0707C25.978 12.971 25.6096 12.7906 25.0648 12.5412C24.9266 12.4798 24.7463 12.3685 24.6657 12.2956C24.5122 12.1651 24.4278 12.1268 24.4776 12.2112C24.9343 12.9633 25.437 13.5734 25.7248 13.7231C25.7862 13.7538 25.8361 13.7921 25.8361 13.8037C25.8361 13.819 25.5559 14.1183 25.2106 14.4675C24.869 14.8167 24.0287 15.6878 23.3418 16.4054C22.6549 17.1229 21.1008 18.7116 19.8882 19.9357C16.968 22.8866 14.7078 25.235 13.6104 26.4591C11.5919 28.7116 11.1507 29.2066 10.6595 29.7784C10.0417 30.4998 9.21665 31.5282 8.63722 32.2995C7.87359 33.3164 7.18288 34.3525 7.2366 34.4062C7.32102 34.4944 10.3064 32.2304 12.0025 30.7953C14.7769 28.4468 19.4891 23.892 23.0578 20.1084C26.6457 16.3017 26.9335 15.9871 27.2827 15.4959C27.3978 15.3309 27.5053 15.1966 27.5245 15.1966C27.5437 15.1966 27.5667 15.2311 27.582 15.2733C27.6242 15.4077 27.9658 15.9027 28.173 16.1252C28.3725 16.344 28.8599 16.7162 28.8944 16.6778C28.9289 16.6433 28.833 15.8528 28.7869 15.7607C28.7639 15.7146 28.6219 15.4844 28.48 15.2503C28.2612 14.8973 28.2152 14.7937 28.2152 14.6594C28.2152 14.4675 28.2881 14.2987 28.4684 14.0915C28.5414 14.007 28.5989 13.8958 28.5989 13.8459C28.5989 13.7192 28.6296 13.6885 28.8483 13.6041C29.021 13.535 29.0479 13.5082 29.0978 13.3509C29.1745 13.1129 29.2206 13.0631 29.47 12.971C29.9228 12.8021 30.0187 12.6947 30.0187 12.3455C30.0187 12.1651 30.153 11.9195 30.3411 11.7469C30.3948 11.6931 30.4408 11.6126 30.4408 11.5665C30.4408 11.5013 30.4907 11.4514 30.6404 11.3708C30.8015 11.2825 30.8476 11.2365 30.8744 11.1291C30.955 10.8182 30.9704 10.7952 31.1584 10.7722C31.3695 10.7492 31.5038 10.6571 31.6035 10.4652C31.6419 10.3846 31.8031 10.2043 31.9527 10.0623C32.1945 9.83972 32.2405 9.77448 32.2981 9.57494C32.3518 9.4061 32.4132 9.29865 32.536 9.1797C32.6857 9.03004 32.7164 9.01469 32.8583 9.02621L33.0195 9.03772L33.0962 8.83434C33.1845 8.59643 33.361 8.40456 33.5836 8.30479C33.668 8.26258 33.7409 8.20502 33.7409 8.17432C33.7448 8.04002 33.8982 7.78675 34.0172 7.71384C34.1784 7.61791 34.2513 7.61791 34.4623 7.71768C34.6849 7.82896 34.777 7.98246 34.777 8.25107C34.777 8.55422 34.7233 8.71922 34.4662 9.17202C34.282 9.50203 34.2359 9.62866 34.2014 9.85506C34.1592 10.1505 34.1976 10.5726 34.2781 10.6954C34.3203 10.7607 34.3203 10.7607 34.2973 10.6878C34.259 10.5765 34.2705 10.0431 34.3165 9.85123C34.3741 9.59029 34.4163 9.49819 34.6388 9.16051C34.8921 8.77294 34.965 8.6041 34.9957 8.32398C35.0379 7.90955 34.7616 7.29558 34.4355 7.0922C34.3012 7.00778 33.9827 6.97324 33.7524 7.02313ZM33.7985 7.13825C33.787 7.15743 33.7448 7.17662 33.7064 7.17662C33.6718 7.17662 33.622 7.19581 33.5951 7.22267C33.5606 7.2572 33.549 7.2572 33.549 7.22267C33.549 7.19965 33.6066 7.16127 33.6757 7.14209C33.7409 7.1229 33.8023 7.10371 33.81 7.10371C33.8177 7.09987 33.81 7.11522 33.7985 7.13825ZM32.4362 7.93257C32.4362 7.96711 32.4247 7.98246 32.4094 7.96711C32.3902 7.95176 32.3595 8.04769 32.3365 8.182C32.3134 8.31247 32.2904 8.3777 32.2866 8.3163C32.2866 8.25874 32.2712 8.2127 32.2559 8.2127C32.206 8.2127 32.1484 8.26642 32.1446 8.3163C32.1408 8.34316 32.1369 8.41224 32.1331 8.4698L32.1216 8.57724L32.0909 8.48131C32.0371 8.31247 32.0487 8.26642 32.2137 8.06304C32.3825 7.85966 32.4362 7.82513 32.4362 7.93257ZM31.9796 8.53887C31.9527 8.7269 31.9527 8.7269 31.922 8.60794C31.9067 8.53119 31.9105 8.45445 31.9374 8.40456C31.9988 8.28944 32.0064 8.3163 31.9796 8.53887ZM31.8568 8.64247C31.8568 8.70003 31.8453 8.71155 31.8338 8.67317C31.8031 8.6041 31.711 8.91109 31.7033 9.09528L31.6995 9.22958L31.6688 9.11446C31.6419 9.00318 31.6381 9.00318 31.6304 9.09528C31.6227 9.149 31.6227 9.2411 31.6227 9.30633C31.6304 9.4061 31.6266 9.40994 31.5959 9.34087C31.5767 9.29482 31.5498 9.18354 31.5345 9.09144C31.5153 8.93411 31.5229 8.91109 31.6688 8.73841C31.757 8.63864 31.8338 8.55805 31.8453 8.55805C31.853 8.55805 31.8606 8.59643 31.8568 8.64247ZM31.2774 9.31017C31.2658 9.36389 31.2582 9.35621 31.239 9.27563C31.2275 9.20272 31.2313 9.1797 31.2543 9.20272C31.2774 9.22575 31.285 9.27179 31.2774 9.31017ZM31.0394 9.29482C31.0394 9.3447 31.0548 9.49436 31.0701 9.6325C31.1047 9.94716 31.051 9.90111 30.9512 9.52889C30.8744 9.25644 30.8821 9.22191 30.9972 9.21423C31.0203 9.2104 31.0356 9.24877 31.0394 9.29482ZM31.216 9.40226C31.2236 9.48668 31.216 9.55575 31.2045 9.55575C31.1891 9.55575 31.1699 9.47901 31.1661 9.38691C31.1584 9.29482 31.1622 9.22575 31.1738 9.23342C31.1891 9.2411 31.2083 9.31784 31.216 9.40226ZM30.8783 9.56727C30.9013 9.8589 30.8629 9.87041 30.7632 9.61331C30.7094 9.47133 30.7056 9.42145 30.744 9.33703C30.8092 9.19121 30.8514 9.26796 30.8783 9.56727ZM30.5444 9.94332C30.5521 9.98553 30.5406 10.0124 30.5214 9.99705C30.4984 9.98553 30.4869 9.94332 30.4907 9.90111C30.4984 9.81285 30.5291 9.83588 30.5444 9.94332ZM30.3104 9.90879C30.3295 9.93565 30.3219 9.93949 30.2873 9.9203C30.2528 9.89728 30.2451 9.9203 30.2681 10.0124C30.2988 10.1582 30.2605 10.1697 30.2067 10.0277C30.1799 9.951 30.1837 9.9203 30.2183 9.89344C30.2835 9.85506 30.2797 9.85506 30.3104 9.90879ZM30.1722 10.1774C30.1914 10.2695 30.2144 10.3769 30.2298 10.4191C30.2413 10.4614 30.1991 10.3923 30.1377 10.2657C30.0533 10.1045 30.0341 10.0316 30.0686 10.0086C30.13 9.97018 30.1377 9.98553 30.1722 10.1774ZM29.9957 10.4191C30.107 10.6993 30.1108 10.7223 30.0571 10.6878C30.0072 10.6571 30.0072 10.6762 30.0571 10.8067C30.0916 10.8873 30.0878 10.9027 30.0494 10.872C30.0226 10.8528 29.9727 10.8374 29.942 10.8413C29.9113 10.8413 29.846 10.7837 29.7962 10.7069L29.7079 10.5726L29.7271 10.8566C29.7463 11.1866 29.7271 11.2672 29.6503 11.202C29.6081 11.1674 29.5966 11.1713 29.5966 11.2096C29.5928 11.2442 29.5621 11.225 29.5122 11.1674L29.4316 11.0715L29.4585 11.2058L29.4853 11.3401L29.4048 11.1751L29.3203 11.0139L29.47 10.8489C29.5813 10.73 29.6388 10.6225 29.6734 10.4729C29.7655 10.0853 29.8576 10.07 29.9957 10.4191ZM31.4155 10.5343C31.3579 10.6264 31.2236 10.6954 31.1814 10.6571C31.1661 10.6417 31.4193 10.4498 31.4692 10.4422C31.4731 10.4383 31.45 10.4805 31.4155 10.5343ZM28.9443 11.248C28.9443 11.2672 28.9251 11.2749 28.8982 11.2595C28.8714 11.2442 28.8675 11.248 28.8829 11.2749C28.8982 11.3017 28.8982 11.3401 28.8829 11.3631C28.8675 11.3938 28.8483 11.39 28.8253 11.3555C28.7716 11.271 28.7831 11.3593 28.8637 11.6394C28.9059 11.7814 28.9328 11.8965 28.9251 11.8965C28.879 11.8965 28.5644 11.4322 28.5797 11.3862C28.6028 11.3324 28.81 11.2135 28.8982 11.2096C28.9212 11.2058 28.9443 11.225 28.9443 11.248ZM29.4431 12.1037C29.4431 12.1766 29.3395 11.9963 29.2781 11.8044C29.2397 11.7008 29.2129 11.5627 29.2129 11.4974C29.2167 11.413 29.2474 11.4782 29.328 11.72C29.3932 11.908 29.4431 12.0807 29.4431 12.1037ZM28.5836 11.6202C28.5874 11.6548 28.5989 11.743 28.6143 11.8121L28.6411 11.9387L28.5414 11.8505C28.4531 11.766 28.4493 11.7469 28.4876 11.6356C28.5337 11.5051 28.5682 11.5013 28.5836 11.6202ZM28.4531 11.8581C28.4493 11.885 28.4646 11.9349 28.4915 11.9694C28.5183 12.004 28.4915 11.9886 28.4339 11.9349L28.3265 11.839L28.3648 11.9464C28.3879 12.004 28.3955 12.05 28.384 12.05C28.3687 12.05 28.384 12.0807 28.4109 12.1152C28.4608 12.1805 28.4569 12.1805 28.3879 12.1229C28.2497 12.0116 28.2267 12.0078 28.242 12.1037C28.2536 12.1651 28.242 12.192 28.1998 12.192C28.1691 12.192 28.1461 12.1805 28.1499 12.169C28.1538 12.1575 28.1423 12.1459 28.1193 12.1459C28.1001 12.1459 28.0847 12.1536 28.0886 12.1651C28.1461 12.3532 28.077 12.4146 27.9849 12.2572C27.9312 12.169 27.9351 12.1575 28.0041 12.1191C28.0463 12.0922 28.1499 12.0078 28.2344 11.9272C28.3802 11.7891 28.4761 11.7584 28.4531 11.8581ZM27.9082 12.357C27.9965 12.5297 28.0041 12.5642 27.9389 12.5258C27.912 12.5105 27.9082 12.5143 27.9235 12.545C27.9389 12.568 27.9658 12.5796 27.9849 12.568C28.0003 12.5565 28.0463 12.5987 28.0847 12.6563C28.1308 12.7292 28.1346 12.7446 28.0962 12.7139C28.0502 12.6755 28.0272 12.6755 27.9926 12.71C27.9658 12.7369 27.9427 12.7446 27.9427 12.7292C27.9389 12.7139 27.9351 12.6793 27.9312 12.6525C27.9274 12.6294 27.9005 12.6103 27.8698 12.6179C27.8391 12.6256 27.8238 12.6218 27.8391 12.6064C27.8545 12.5911 27.843 12.5527 27.8123 12.522C27.7701 12.4836 27.7662 12.4453 27.7931 12.3723C27.8161 12.3186 27.8238 12.2572 27.8084 12.238C27.7969 12.2188 27.7969 12.2035 27.8084 12.2035C27.8199 12.2035 27.866 12.2726 27.9082 12.357ZM28.4991 12.4184C28.5107 12.4491 28.5068 12.4644 28.4838 12.4529C28.4608 12.4414 28.4454 12.4146 28.4454 12.3915C28.4454 12.3378 28.4723 12.3493 28.4991 12.4184ZM29.8691 12.5987C29.8499 12.6525 29.8115 12.7062 29.7885 12.7215C29.7693 12.733 29.777 12.6832 29.8153 12.6103C29.8883 12.4568 29.9266 12.4491 29.8691 12.5987ZM25.2489 12.7906C25.3717 12.8827 25.5674 13.0132 25.6826 13.0861C26.8453 13.7921 26.9374 13.8612 27.1829 14.2027C27.275 14.3332 27.4669 14.5865 27.6127 14.7707C27.7547 14.951 27.9235 15.1774 27.9888 15.2733L28.1077 15.446L27.9773 15.2925C27.9082 15.2081 27.7816 15.0623 27.6933 14.9664C27.6051 14.8704 27.4324 14.6709 27.3057 14.5174C26.9527 14.0915 26.2735 13.5466 26.1737 13.608C26.1507 13.6233 26.143 13.6195 26.1545 13.5964C26.1891 13.5427 26.0011 13.4199 25.9435 13.4545C25.9205 13.4698 25.9128 13.466 25.9243 13.443C25.9397 13.4199 25.7631 13.2703 25.5329 13.1129C25.3065 12.9518 25.0878 12.7753 25.0532 12.7215C25.0187 12.6678 24.9995 12.6256 25.011 12.6256C25.0187 12.6256 25.13 12.6985 25.2489 12.7906ZM27.5475 12.7215C27.536 12.7561 27.5475 12.7906 27.5782 12.8021C27.6051 12.8136 27.6281 12.8443 27.6281 12.8712C27.6281 12.9211 27.4823 12.9211 27.4017 12.8712C27.3863 12.8597 27.371 12.8712 27.371 12.8904C27.371 12.9134 27.3902 12.9326 27.4093 12.9326C27.4324 12.9326 27.4477 12.9518 27.4477 12.9786C27.4477 13.0093 27.4247 13.0055 27.3863 12.9633C27.3288 12.9057 27.3326 12.8942 27.4132 12.7829C27.5053 12.6601 27.5859 12.6218 27.5475 12.7215ZM25.0878 12.8942C25.1377 12.9748 25.5713 13.2434 25.6135 13.2166C25.6365 13.2012 25.6442 13.205 25.6288 13.2319C25.602 13.2779 26.3311 13.7845 26.3809 13.7538C26.3963 13.7423 26.4116 13.7499 26.4116 13.7691C26.4116 13.7845 26.4654 13.842 26.5306 13.8881C26.5997 13.938 26.638 13.9572 26.6189 13.9265C26.6035 13.8996 26.6649 13.9495 26.757 14.0416C26.8529 14.1337 26.9681 14.2334 27.0179 14.2641C27.0678 14.2987 27.1254 14.3601 27.1484 14.4023C27.1753 14.4598 27.1407 14.4445 27.0218 14.3486C26.8069 14.1797 26.6342 14.0684 26.1776 13.819C25.978 13.7077 25.6979 13.5312 25.5598 13.4276C25.3065 13.2396 24.9496 12.8558 25.0225 12.8558C25.0456 12.8558 25.0763 12.875 25.0878 12.8942ZM27.2175 13.1245C27.2175 13.1436 27.2098 13.1628 27.2021 13.1628C27.1906 13.1628 27.1714 13.1436 27.1599 13.1245C27.1484 13.1014 27.1561 13.0861 27.1753 13.0861C27.1983 13.0861 27.2175 13.1014 27.2175 13.1245ZM27.1714 13.3202C27.3403 13.4967 27.5552 13.842 27.4285 13.7384C27.3633 13.6809 27.3595 13.6847 27.4247 13.8113C27.5245 14.0032 27.4324 13.9188 27.206 13.6118C27.0909 13.4583 26.9719 13.3125 26.9335 13.2818C26.8836 13.2396 26.8798 13.2204 26.9182 13.1974C26.9949 13.1475 27.0064 13.1513 27.1714 13.3202ZM27.1369 13.7231C27.2866 13.8804 27.4362 14.149 27.3978 14.1836C27.3748 14.2104 27.0909 13.9034 27.0793 13.842C27.0755 13.8075 27.0333 13.7269 26.9872 13.6617C26.8645 13.489 26.9565 13.5235 27.1369 13.7231ZM27.6818 13.6118C27.7317 13.6732 27.7278 13.677 27.6703 13.6271C27.6319 13.6003 27.6012 13.5696 27.6012 13.5619C27.6012 13.5312 27.6319 13.5504 27.6818 13.6118ZM27.8084 14.0531C27.8583 14.1452 27.912 14.268 27.9235 14.3332C27.9427 14.4253 27.9351 14.4215 27.889 14.2987C27.8583 14.2181 27.7969 14.0953 27.7509 14.0224C27.7087 13.9495 27.6818 13.8919 27.6933 13.8919C27.7048 13.8919 27.7547 13.9648 27.8084 14.0531ZM26.1814 14.1183C26.1814 14.1375 26.1545 14.1605 26.1238 14.1759C26.0893 14.1874 26.0663 14.1759 26.0663 14.1413C26.0663 14.1106 26.0932 14.0838 26.1238 14.0838C26.1545 14.0838 26.1814 14.0991 26.1814 14.1183ZM26.3503 14.2219C26.3618 14.2526 26.3579 14.268 26.3349 14.2565C26.3119 14.2449 26.2965 14.2181 26.2965 14.1951C26.2965 14.1413 26.3234 14.1529 26.3503 14.2219ZM25.7593 14.3447C25.7593 14.3793 25.8092 14.4522 25.8706 14.5059C25.9358 14.5558 25.978 14.6095 25.9665 14.6248C25.9588 14.6402 25.9857 14.6671 26.0318 14.6786C26.1085 14.7054 26.1085 14.7054 26.0394 14.786C26.0049 14.8321 25.9972 14.8474 26.0279 14.8205C26.097 14.763 26.1584 14.7591 26.12 14.8205C26.1008 14.8512 26.1123 14.8551 26.1661 14.8359C26.2044 14.8205 26.2236 14.8205 26.2083 14.8359C26.1929 14.8512 26.2006 14.8858 26.2236 14.9126C26.2505 14.9433 26.2466 14.9664 26.2159 14.9894C26.1891 15.0047 26.1814 15.0009 26.1968 14.974C26.2083 14.951 26.2044 14.9242 26.1814 14.9088C26.1622 14.8973 26.143 14.905 26.143 14.9242C26.143 14.9472 26.1315 14.9625 26.1162 14.9587C26.0855 14.9472 25.9588 15.0316 25.7555 15.1889C25.6941 15.2388 25.6442 15.2657 25.6442 15.2503C25.6442 15.235 25.579 15.2849 25.4984 15.3616C25.4178 15.4422 25.3372 15.4921 25.318 15.4767C25.3027 15.4575 25.2988 15.4652 25.3103 15.4882C25.3219 15.5113 25.2873 15.565 25.2298 15.6072C25.1722 15.6494 25.0954 15.7415 25.0571 15.8067L24.9842 15.9295L25.176 15.7952C25.2796 15.7185 25.3871 15.6302 25.4139 15.5995C25.4408 15.5688 25.4792 15.5535 25.5022 15.5688C25.5214 15.5803 25.5291 15.5727 25.5176 15.5535C25.4869 15.5036 25.579 15.4192 25.648 15.4345C25.6749 15.4422 25.6979 15.4268 25.7017 15.4C25.7017 15.377 25.7478 15.3194 25.8092 15.2733C25.8667 15.2273 25.9051 15.1774 25.8974 15.1621C25.8859 15.1467 25.9358 15.1352 26.0011 15.139C26.0855 15.139 26.1238 15.1199 26.1238 15.0815C26.1238 15.0508 26.1469 15.0239 26.1737 15.0239C26.2044 15.0239 26.2466 14.9971 26.2735 14.9625C26.3119 14.905 26.3272 14.905 26.3925 14.951C26.4462 14.9894 26.4769 14.9932 26.5229 14.9587C26.7033 14.8321 26.2428 15.2273 25.7478 15.6264C25.437 15.8758 25.1914 16.0984 25.2029 16.1137C25.2106 16.1329 25.1914 16.1713 25.153 16.1981C25.0916 16.248 25.0916 16.2442 25.1453 16.1751C25.1991 16.0984 25.1991 16.0984 25.1185 16.1713C25.0686 16.2097 25.0417 16.2595 25.0532 16.2787C25.0648 16.2941 25.0609 16.3056 25.0417 16.3017C24.9957 16.2864 24.6465 16.6586 24.4546 16.9349C24.2935 17.1613 24.2896 17.169 24.3971 17.0999C24.4623 17.0577 24.6004 16.9694 24.704 16.908C24.9535 16.7546 25.0686 16.6701 25.6442 16.2327C26.1852 15.8182 26.3349 15.7185 26.3349 15.7684C26.3349 15.8336 25.2605 16.697 24.7271 17.0577C24.2628 17.3762 23.9481 17.687 23.5183 18.2665C23.4723 18.324 23.6488 18.2242 24.0133 17.9863C24.3664 17.7523 25.0839 17.169 25.5214 16.7584C25.7401 16.5512 25.9281 16.3862 25.9435 16.3862C25.9857 16.3862 25.4139 16.9503 25.0302 17.2879C24.539 17.7177 24.0248 18.0976 23.6027 18.3432C23.3073 18.5197 23.2228 18.5926 23.0502 18.8305C22.935 18.984 22.7739 19.1644 22.6895 19.2296C22.5168 19.3678 22.5091 19.4292 22.6779 19.314C22.7355 19.2718 22.889 19.1836 23.0156 19.1145C23.3303 18.938 24.2704 18.278 24.5429 18.0401C24.7539 17.8559 24.8 17.8213 24.8 17.8597C24.8 17.8674 24.658 17.994 24.4853 18.1398C24.0133 18.5389 23.3149 19.0186 22.6895 19.3793C22.3825 19.5558 22.0947 19.7208 22.0525 19.7477C22.0064 19.7745 21.8759 19.9318 21.7608 20.0969C21.4999 20.4652 21.1238 20.8912 21.0471 20.9027C20.9742 20.9104 20.4024 21.4783 20.4331 21.509C20.4446 21.5205 20.5981 21.39 20.7708 21.2212C20.9435 21.0523 21.0778 20.9411 21.0624 20.9756C21.0509 21.0101 21.1277 20.9564 21.239 20.8566C21.4231 20.6916 21.8644 20.4077 22.0256 20.354C22.064 20.3386 21.9642 20.4192 21.8069 20.5266C21.4231 20.7952 21.1967 21.0178 20.648 21.6701C20.3986 21.9695 20.176 22.2266 20.1568 22.2381C20.1376 22.2496 20.0839 22.3148 20.0379 22.3839L19.9535 22.5067L20.0647 22.4069C20.1261 22.3532 20.3372 22.1613 20.5367 21.9771C20.7363 21.7929 20.9051 21.651 20.9166 21.6625C20.9512 21.697 20.5866 22.0539 20.1261 22.4299C19.7616 22.7292 19.6618 22.8367 19.5006 23.0938C19.2704 23.4737 18.9251 23.8267 18.5605 24.0685C18.3149 24.2296 18.2689 24.2795 18.1269 24.5443C17.9005 24.9587 17.7163 25.1659 17.1906 25.588C16.8452 25.8643 16.6534 26.0524 16.3963 26.3785C16.0356 26.8352 15.5636 27.3072 14.7654 28.0132C14.493 28.255 14.1553 28.5581 14.0171 28.6886C13.5873 29.0915 13.265 29.3064 12.5973 29.6441L11.9488 29.9741L11.3425 30.5612C10.7324 31.1521 10.3026 31.5359 9.9112 31.8467C9.64259 32.0578 9.8076 31.9004 10.4177 31.3632C10.8936 30.9411 11.5881 30.2082 11.4692 30.2504C11.4308 30.2657 11.3195 30.2964 11.2197 30.3233C11.1238 30.3463 11.0125 30.3808 10.978 30.4C10.9358 30.4192 10.9089 30.4192 10.9089 30.4C10.9089 30.377 10.9473 30.354 10.9933 30.3425C11.0394 30.3271 11.0701 30.3118 11.0586 30.3003C11.0279 30.2657 10.8322 30.331 10.8437 30.3732C10.8475 30.3924 10.8168 30.4154 10.7746 30.4192L10.6979 30.4307L10.7746 30.3962C10.8475 30.3655 10.8437 30.3617 10.7554 30.3463C10.6825 30.3348 10.717 30.3156 10.8897 30.2772C11.0164 30.2465 11.1622 30.2197 11.2159 30.2197C11.354 30.212 11.6303 30.0585 11.8222 29.882C11.9143 29.8014 12.1484 29.6594 12.3402 29.5673C12.935 29.2949 13.856 28.7615 13.8138 28.7155C13.8022 28.7078 13.7447 28.727 13.6833 28.7615C13.5835 28.8229 13.5797 28.8229 13.6526 28.7615C13.6948 28.727 13.8061 28.6541 13.902 28.5965C14.1092 28.4775 14.4085 28.255 14.5927 28.09C14.7654 27.9326 14.7078 27.9633 14.1514 28.3202C13.8982 28.4852 13.6065 28.6617 13.4991 28.7155C13.3955 28.7692 13.2727 28.8421 13.2305 28.8766C13.1883 28.9112 13.219 28.9035 13.2996 28.8574C13.549 28.7116 13.4953 28.7999 13.2228 28.9802C12.935 29.1683 12.5973 29.364 12.7508 29.2527C12.8007 29.2143 12.889 29.1452 12.9427 29.0992L13.0386 29.0186L12.9158 29.0263C12.8506 29.0339 12.7662 29.0685 12.7316 29.103C12.6933 29.1376 12.6395 29.1606 12.6088 29.1491C12.5781 29.1376 12.5628 29.1414 12.5743 29.1606C12.5973 29.1951 12.5014 29.2488 12.4055 29.2565C12.3748 29.2604 12.3517 29.2795 12.3556 29.3064C12.3632 29.3333 12.3441 29.3448 12.3134 29.3333C12.2827 29.3217 12.2481 29.3294 12.2366 29.3524C12.2213 29.3755 12.1867 29.3831 12.1522 29.3678C12.1177 29.3563 12.0985 29.3678 12.1061 29.3947C12.1138 29.4215 12.0793 29.4484 12.0294 29.4561C11.9795 29.4637 11.9104 29.4983 11.8797 29.5328C11.8107 29.6019 11.4231 29.7784 11.3425 29.7784C11.3118 29.7784 11.3003 29.7937 11.3118 29.8168C11.3272 29.8398 11.308 29.8436 11.2696 29.8283C11.2274 29.8129 11.2121 29.8168 11.2274 29.8436C11.2466 29.8705 11.2274 29.8782 11.1775 29.8666C11.1353 29.8551 11.0777 29.8628 11.0509 29.882C11.0279 29.905 10.955 29.9357 10.8897 29.9511C10.7938 29.9741 10.7861 29.9818 10.8475 30.0048C10.9051 30.0278 10.8859 30.047 10.7324 30.1122C10.4062 30.2504 10.3333 30.2619 10.4945 30.1468C10.5751 30.093 10.6633 30.0585 10.694 30.07C10.7247 30.0815 10.7516 30.0585 10.7631 30.0201C10.7746 29.9741 10.9166 29.8897 11.1737 29.7822C11.5728 29.6095 12.1138 29.3217 12.1906 29.2373C12.2136 29.2105 12.1714 29.2258 12.0946 29.268C11.922 29.364 11.2888 29.575 11.0624 29.6095C10.9089 29.6364 10.8936 29.6326 10.9396 29.5788C11.001 29.5059 11.1238 29.4561 11.4423 29.3755C11.7186 29.3064 12.1061 29.1222 12.0332 29.0992C12.0064 29.0877 11.8529 29.1107 11.6917 29.1414C11.1507 29.2527 11.1814 29.1874 11.7723 28.9726C11.9642 28.9035 12.2251 28.7922 12.3594 28.7231C12.5666 28.6157 12.5896 28.5965 12.5129 28.5735C12.3786 28.5389 12.2059 28.5466 12.2289 28.585C12.2443 28.6042 12.2136 28.6118 12.1675 28.5965C12.1215 28.585 12.0946 28.5927 12.11 28.6157C12.1253 28.6387 12.0831 28.6464 12.0102 28.6349L11.8874 28.6157L12.0217 28.5658L12.156 28.5121L11.9834 28.5351L11.8107 28.5581L11.922 28.4392C12.0064 28.3509 12.0908 28.3087 12.2558 28.278C12.3786 28.255 12.605 28.1706 12.7585 28.0938C13.4914 27.7293 13.8943 27.4952 14.0171 27.3686C14.09 27.2918 14.1207 27.2534 14.0862 27.2803C14.0478 27.3072 13.9903 27.3225 13.9596 27.3072C13.925 27.2956 13.9058 27.2995 13.9212 27.3187C13.9327 27.3379 13.8867 27.3954 13.8176 27.4415C13.7524 27.4914 13.7101 27.5029 13.7293 27.4722C13.76 27.4261 13.7524 27.4261 13.6986 27.4683C13.6641 27.499 13.5989 27.5144 13.549 27.5105C13.4991 27.5029 13.4108 27.5259 13.3456 27.5566C13.2842 27.5873 13.1921 27.6103 13.1422 27.6065C13.0962 27.6026 13.0463 27.618 13.0348 27.6333C13.0233 27.6525 12.9849 27.6679 12.9504 27.6679C12.8928 27.6679 12.8928 27.6602 12.9427 27.6257C12.9849 27.595 12.9619 27.5911 12.8467 27.6103C12.7623 27.6257 12.6817 27.6564 12.6664 27.6794C12.6472 27.7101 12.6357 27.7101 12.6357 27.6832C12.6357 27.6218 12.8736 27.4146 13.0002 27.3647C13.077 27.3379 13.0847 27.3263 13.0271 27.3379C12.9081 27.3609 12.9542 27.3187 13.1077 27.2534C13.2228 27.2112 13.2228 27.2074 13.1269 27.2189C13.0693 27.2266 13.0309 27.2189 13.0425 27.1997C13.077 27.146 13.7715 26.4169 14.351 25.826C14.6541 25.5228 14.8997 25.2619 14.9035 25.2504C14.9035 25.2235 15.2719 24.9395 15.387 24.8743C15.5252 24.7976 15.4907 24.74 15.3525 24.8129C15.2834 24.8474 15.2412 24.8628 15.2566 24.8436C15.2758 24.8244 15.387 24.6978 15.506 24.5596C16.0509 23.938 17.0755 22.8866 20.1568 19.7822C21.3502 18.5773 22.9466 16.9579 23.7063 16.179C25.3832 14.456 25.7593 14.1222 25.7593 14.3447ZM26.8645 14.5481C26.9105 14.6172 26.9067 14.621 26.8453 14.5865C26.6764 14.4905 26.6572 14.4675 26.7378 14.4675C26.78 14.4675 26.8376 14.502 26.8645 14.5481ZM26.1047 14.9817C26.1047 14.9894 26.074 15.0201 26.0394 15.0469C25.978 15.0968 25.9742 15.093 26.0241 15.0316C26.074 14.9702 26.1047 14.951 26.1047 14.9817ZM26.7186 15.0968C26.7186 15.1083 26.5805 15.2081 26.4116 15.3271C26.2428 15.4422 26.1047 15.5304 26.1047 15.5228C26.1047 15.4998 26.6572 15.0815 26.6918 15.0815C26.7071 15.0815 26.7186 15.0892 26.7186 15.0968ZM28.3879 15.9641C28.5337 16.1291 28.6488 16.3094 28.6258 16.3324C28.5912 16.3708 28.2305 15.9257 28.1691 15.7684L28.1001 15.5995L28.1883 15.7146C28.2344 15.776 28.3265 15.8912 28.3879 15.9641ZM28.714 15.8643C28.714 15.9103 28.6948 15.8912 28.6411 15.7722C28.5989 15.6801 28.5989 15.6801 28.6526 15.7492C28.6872 15.7914 28.714 15.8413 28.714 15.8643ZM13.4607 27.618C13.3456 27.6986 13.265 27.6794 13.3686 27.595C13.4185 27.5527 13.4761 27.5297 13.4953 27.5412C13.5144 27.5566 13.4991 27.5873 13.4607 27.618ZM12.8467 27.6679C12.8352 27.6871 12.793 27.7062 12.7585 27.7024C12.7048 27.7024 12.7086 27.6947 12.77 27.6679C12.8736 27.6257 12.8736 27.6257 12.8467 27.6679ZM13.1154 27.783C13.1038 27.8022 13.0731 27.8214 13.054 27.8214C13.0309 27.8214 13.0271 27.8022 13.0386 27.783C13.0501 27.76 13.0808 27.7446 13.1 27.7446C13.123 27.7446 13.1269 27.76 13.1154 27.783ZM11.945 28.7231C11.945 28.75 11.8107 28.7999 11.6572 28.8344C11.5421 28.8574 11.5421 28.8574 11.6764 28.7807C11.803 28.7116 11.945 28.6809 11.945 28.7231ZM13.0386 29.5098C13.0002 29.552 12.9542 29.5865 12.9312 29.5865C12.912 29.5865 12.935 29.552 12.9849 29.5098C13.1038 29.4138 13.1269 29.4138 13.0386 29.5098ZM12.7892 29.7132C12.7892 29.7208 12.7316 29.7746 12.6664 29.8398L12.5398 29.9511L12.651 29.8244C12.7585 29.7093 12.7892 29.6825 12.7892 29.7132ZM11.0624 29.9703C11.0317 29.9894 10.9895 30.0086 10.9665 30.0086C10.9473 30.0086 10.955 29.9894 10.9857 29.9703C11.0164 29.9511 11.0624 29.9319 11.0816 29.9319C11.1046 29.9319 11.0931 29.9511 11.0624 29.9703ZM9.68097 32.0194C9.68097 32.0271 9.65027 32.0578 9.61573 32.0846C9.55433 32.1345 9.5505 32.1307 9.60038 32.0693C9.65027 32.0079 9.68097 31.9887 9.68097 32.0194Z" fill="white"/>
<path d="M25.7248 14.9391C25.6288 15.0465 25.602 15.0964 25.6595 15.0427C25.7593 14.9544 25.932 14.7357 25.9051 14.7357C25.8974 14.7357 25.8169 14.8278 25.7248 14.9391Z" fill="white"/>
<path d="M25.5943 15.1735C25.5176 15.2425 25.4523 15.3154 25.4523 15.3346C25.4523 15.35 25.4907 15.3269 25.5406 15.2809C25.5905 15.2348 25.6404 15.2042 25.6519 15.2157C25.6595 15.2272 25.6902 15.1926 25.7133 15.1389C25.7363 15.0852 25.7516 15.043 25.7478 15.043C25.7401 15.043 25.6711 15.1005 25.5943 15.1735Z" fill="white"/>
<path d="M24.7424 15.8414C24.6388 15.9412 24.516 16.064 24.4738 16.1139L24.3971 16.2021L24.5352 16.1216C24.6081 16.0794 24.7079 16.0026 24.7501 15.9566C24.8345 15.8645 24.9727 15.6573 24.9496 15.6573C24.942 15.6611 24.8499 15.7417 24.7424 15.8414Z" fill="white"/>
<path d="M23.6948 17.4725C23.1845 17.9445 22.8813 18.2899 22.8813 18.3935C22.8813 18.5278 23.526 17.91 23.9558 17.3651C24.0901 17.1962 24.2244 17.0274 24.2551 16.989C24.3817 16.8432 24.2551 16.9507 23.6948 17.4725Z" fill="white"/>
<path d="M23.7946 17.2847C23.6718 17.396 23.572 17.5034 23.572 17.5188C23.572 17.5533 23.9136 17.2463 23.9865 17.1466C24.0671 17.0353 24.0287 17.0621 23.7946 17.2847Z" fill="white"/>
<path d="M24.2014 17.276L24.1285 17.3643L24.2244 17.2875C24.2781 17.2453 24.328 17.2069 24.3357 17.2031C24.3433 17.1954 24.3357 17.1916 24.3126 17.1916C24.2935 17.1916 24.2436 17.23 24.2014 17.276Z" fill="white"/>
<path d="M22.8391 18.7765C22.678 18.8725 22.5053 19.0221 22.4209 19.1296C22.3863 19.1756 22.4324 19.1564 22.5436 19.0797C22.6434 19.0106 22.7317 18.9569 22.747 18.9569C22.77 18.9569 22.4592 19.237 22.2827 19.3675C22.2213 19.4135 22.2789 19.3905 22.4093 19.3138C22.6204 19.1948 22.8276 18.9799 22.9734 18.7343C23.0118 18.6729 23.0003 18.6768 22.8391 18.7765Z" fill="white"/>
<path d="M21.5728 19.5831C21.4769 19.6752 21.3809 19.7442 21.3541 19.7327C21.3272 19.7251 21.2773 19.7711 21.2428 19.8363C21.1967 19.9131 21.1545 19.9476 21.1162 19.9323C21.0855 19.9208 21.0739 19.9246 21.0893 19.94C21.1046 19.9553 21.0931 19.9937 21.0663 20.0282C21.0432 20.0627 21.0816 20.0436 21.1545 19.986C21.2274 19.9284 21.285 19.867 21.2812 19.844C21.2735 19.821 21.2927 19.8133 21.3195 19.8248C21.3464 19.8325 21.4615 19.7481 21.5766 19.6291C21.8222 19.3797 21.8222 19.349 21.5728 19.5831Z" fill="white"/>
<path d="M21.4807 20.1011C20.836 20.623 20.483 20.9492 20.3103 21.1756C20.0532 21.5171 20.0993 21.59 20.4024 21.3252C20.5291 21.2139 20.7401 21.0413 20.8667 20.9453C21.1162 20.7535 21.331 20.5424 21.3042 20.5155C21.2888 20.4964 20.8591 20.8417 20.4178 21.2254C20.295 21.3329 20.1952 21.402 20.1952 21.3828C20.1952 21.3252 20.7862 20.788 21.3272 20.3582C21.5114 20.2086 21.6764 20.0397 21.7416 19.9323C21.7877 19.8517 21.7723 19.8632 21.4807 20.1011Z" fill="white"/>
<path d="M20.9243 20.1086C20.8936 20.1278 20.8782 20.1546 20.8897 20.1661C20.9051 20.1777 20.9358 20.1623 20.9627 20.1278C21.0164 20.0625 21.0049 20.0549 20.9243 20.1086Z" fill="white"/>
<path d="M20.1453 21.9463C20.0033 22.0921 19.8882 22.2341 19.8882 22.2648C19.8882 22.3147 20.0801 22.1152 20.3142 21.8235C20.4907 21.6086 20.4293 21.6508 20.1453 21.9463Z" fill="white"/>
<path d="M19.4086 22.1114L19.2167 22.3032L19.4393 22.1229C19.5582 22.0231 19.658 21.9348 19.658 21.9272C19.658 21.885 19.5812 21.9425 19.4086 22.1114Z" fill="white"/>
<path d="M18.998 22.9361C18.6526 23.2661 18.3648 23.5462 18.3533 23.5577C18.2957 23.6191 18.6603 23.339 18.7677 23.243C18.833 23.1778 18.8905 23.1394 18.8905 23.1586C18.8905 23.2008 19.4277 22.679 19.5889 22.4756C19.8268 22.1801 19.6004 22.3528 18.998 22.9361Z" fill="white"/>
<path d="M19.2896 23.0713C19.2052 23.1634 19.0517 23.3399 18.9519 23.4665C18.8483 23.5932 18.6948 23.762 18.6066 23.8464L18.4492 23.9961L18.6871 23.8311C18.902 23.6853 19.2666 23.29 19.4393 23.0137C19.539 22.8602 19.4661 22.8871 19.2896 23.0713Z" fill="white"/>
<path d="M18.6181 23.5509C18.5682 23.6123 18.572 23.6161 18.6334 23.5662C18.6948 23.5163 18.714 23.4856 18.6833 23.4856C18.6756 23.4856 18.6449 23.5163 18.6181 23.5509Z" fill="white"/>
<path d="M18.4876 23.6389C18.4761 23.6581 18.4838 23.6772 18.503 23.6772C18.526 23.6772 18.5452 23.6581 18.5452 23.6389C18.5452 23.6158 18.5375 23.6005 18.5298 23.6005C18.5183 23.6005 18.4991 23.6158 18.4876 23.6389Z" fill="white"/>
<path d="M17.8851 24.4941C17.793 24.5632 17.7201 24.6476 17.7201 24.6822C17.7201 24.732 17.5206 25.0083 17.3825 25.1542C17.2788 25.2616 17.4592 24.993 17.5743 24.8625C17.6472 24.7819 17.6933 24.7129 17.6741 24.7129C17.6165 24.7129 17.4515 24.9086 17.3518 25.0966C17.298 25.1925 17.2213 25.3192 17.1829 25.3844L17.1062 25.4995L17.2597 25.3882C17.5053 25.2079 17.6626 25.0544 17.8161 24.828C17.9657 24.6054 18.1 24.3675 18.0693 24.3675C18.0617 24.3675 17.9772 24.4251 17.8851 24.4941Z" fill="white"/>
<path d="M16.2351 26.2982C16.143 26.3673 15.9396 26.5131 15.7746 26.6244C15.3755 26.893 14.4891 27.7027 14.1975 28.071L14.0747 28.2207L14.42 27.9866C14.6119 27.86 14.8959 27.6681 15.0532 27.5684C15.364 27.365 15.9588 26.7932 16.2543 26.4095C16.3579 26.279 16.4308 26.1716 16.4193 26.1716C16.4116 26.1716 16.3272 26.2291 16.2351 26.2982Z" fill="white"/>
<path d="M15.2796 26.5434L15.1875 26.6509L15.2949 26.5588C15.3909 26.4705 15.4177 26.4398 15.387 26.4398C15.3794 26.4398 15.3333 26.4859 15.2796 26.5434Z" fill="white"/>
<path d="M14.1821 26.7895C14.0709 26.8547 13.9788 26.9161 13.9788 26.9238C13.9788 26.9507 14.3548 26.7511 14.3817 26.7089C14.4162 26.6552 14.4047 26.659 14.1821 26.7895Z" fill="white"/>
<path d="M13.8176 26.9239C13.8061 26.9354 13.6871 26.9699 13.5567 27.0006C13.4262 27.0313 13.2765 27.0774 13.219 27.1081C13.123 27.158 13.123 27.1618 13.2036 27.1848C13.2535 27.204 13.3725 27.1772 13.5145 27.1196C13.6449 27.0659 13.737 27.039 13.7293 27.0544C13.7178 27.0736 13.6296 27.1158 13.5375 27.1541C13.4415 27.1887 13.3725 27.227 13.3801 27.2386C13.4147 27.2731 13.8253 27.0505 13.8023 27.0122C13.7907 26.9891 13.8099 26.9776 13.8445 26.9853C13.8828 26.993 13.9212 26.9738 13.9289 26.9469C13.9481 26.9009 13.8598 26.8817 13.8176 26.9239Z" fill="white"/>
<path d="M14.5735 27.0773C14.4584 27.1809 14.4508 27.1962 14.539 27.1387C14.6465 27.0658 14.7769 26.9353 14.7424 26.9391C14.7347 26.943 14.658 27.0044 14.5735 27.0773Z" fill="white"/>
<path d="M13.7715 27.7486C13.6488 27.8139 13.5567 27.8752 13.5682 27.8829C13.5912 27.9059 13.8445 27.7832 13.9596 27.6911C14.0709 27.6066 14.0248 27.6181 13.7715 27.7486Z" fill="white"/>
<path d="M13.2113 28.0785C13.0731 28.1553 12.8698 28.255 12.7585 28.3049L12.5513 28.3893L12.7048 28.4047C12.7892 28.4124 12.8544 28.4085 12.8467 28.397C12.8391 28.3855 12.9158 28.3395 13.0117 28.2934C13.1691 28.2205 13.5375 27.9404 13.4799 27.9404C13.4684 27.9365 13.3494 28.0018 13.2113 28.0785Z" fill="white"/>
<path d="M13.691 28.3584C13.6795 28.3776 13.6449 28.3853 13.6142 28.3737C13.5106 28.3315 12.6472 28.7038 12.4707 28.8611C12.3594 28.9609 12.3287 29.0069 12.3748 29.0107C12.4093 29.0107 12.4477 28.9954 12.4592 28.98C12.4861 28.934 13.1499 28.6615 13.2612 28.65C13.3725 28.6347 13.5605 28.5119 13.5336 28.4697C13.5221 28.4505 13.5375 28.4428 13.5643 28.4543C13.5912 28.4658 13.6564 28.439 13.7102 28.3968C13.7639 28.3546 13.7869 28.32 13.76 28.32C13.737 28.32 13.7063 28.3354 13.691 28.3584Z" fill="white"/>
<path d="M13.879 28.6465C13.8406 28.6772 13.8253 28.7002 13.8444 28.7002C13.8675 28.7002 13.9174 28.6772 13.9557 28.6465C13.9979 28.6158 14.0133 28.5889 13.9941 28.5889C13.9711 28.5889 13.9212 28.6158 13.879 28.6465Z" fill="white"/>
<path d="M13.077 28.7493C12.9312 28.8261 12.6856 28.9988 12.77 28.9681C12.8429 28.9412 13.2497 28.6956 13.2497 28.6803C13.2497 28.6572 13.2458 28.6611 13.077 28.7493Z" fill="white"/>
<path d="M12.4822 29.0683C12.4285 29.099 12.4055 29.1221 12.4247 29.1221C12.4477 29.1221 12.5052 29.099 12.559 29.0683C12.6127 29.0376 12.6395 29.0146 12.6165 29.0146C12.5973 29.0146 12.5359 29.0376 12.4822 29.0683Z" fill="white"/>
<path d="M27.9619 8.83472C27.9274 8.90379 27.8698 9.00356 27.8391 9.05728C27.7892 9.14938 27.7892 9.14554 27.8775 9.04961C27.9581 8.95368 28.077 8.71193 28.0387 8.71193C28.031 8.71193 27.9965 8.76949 27.9619 8.83472Z" fill="white"/>
<path d="M28.2919 9.42188C28.0924 9.67898 28.0694 9.75189 28.2075 9.67514C28.2881 9.63293 28.5452 9.22234 28.5107 9.1878C28.503 9.17629 28.4032 9.28374 28.2919 9.42188Z" fill="white"/>
<path d="M27.417 10.112C27.4324 10.1274 27.4285 10.1734 27.4055 10.2118C27.3556 10.3077 27.2175 10.3039 27.1906 10.208C27.1791 10.1657 27.1599 10.1312 27.1446 10.1312C27.11 10.135 26.7493 10.9025 26.7724 10.9294C26.7839 10.9409 26.7954 10.9294 26.7954 10.9025C26.7954 10.8756 26.8146 10.868 26.8338 10.8795C26.8568 10.891 26.8721 10.9524 26.8721 11.0176C26.8721 11.079 26.8875 11.1289 26.9067 11.1289C26.9642 11.1289 27.0333 10.9025 27.0141 10.7759C26.9988 10.6684 27.0755 10.3 27.1254 10.2502C27.1331 10.2425 27.183 10.2809 27.2367 10.3384C27.3173 10.4228 27.3441 10.4344 27.4094 10.3998C27.4976 10.3538 27.5168 10.1542 27.4401 10.1082C27.4132 10.0928 27.4017 10.0928 27.417 10.112Z" fill="white"/>
<path d="M26.404 10.3498C26.2428 10.534 26.1661 10.8218 26.2774 10.8218C26.3157 10.8218 26.3349 10.7834 26.3349 10.7067C26.3349 10.6414 26.3694 10.5186 26.4117 10.438C26.4961 10.2692 26.4961 10.2462 26.404 10.3498Z" fill="white"/>
<path d="M26.7225 11.3473C26.6841 11.4471 26.6841 11.4509 26.7378 11.3818C26.7685 11.3396 26.7954 11.2936 26.7954 11.2744C26.7954 11.2168 26.7685 11.2437 26.7225 11.3473Z" fill="white"/>
<path d="M26.427 12.0539C26.3541 12.1383 26.3541 12.1383 26.4385 12.0922C26.5306 12.0462 26.5882 11.9733 26.5345 11.9733C26.5153 11.9733 26.4692 12.0117 26.427 12.0539Z" fill="white"/>
<path d="M31.0817 12.6063C31.0164 12.7445 30.9934 12.8519 31.0433 12.802C31.074 12.7713 31.1699 12.4989 31.1546 12.4835C31.1507 12.4759 31.1162 12.5334 31.0817 12.6063Z" fill="white"/>
<path d="M24.3165 12.9707C24.2474 13.1011 24.2167 13.1817 24.2474 13.1587C24.3357 13.0858 24.4623 12.8594 24.4469 12.798C24.4393 12.7673 24.3817 12.844 24.3165 12.9707Z" fill="white"/>
<path d="M31.0279 13.0974C30.8207 13.2662 30.7862 13.3161 30.8821 13.3161C30.955 13.3161 30.955 13.3353 30.8783 13.4504C30.7517 13.6423 30.249 13.9416 30.249 13.8226C30.249 13.8034 30.295 13.719 30.3487 13.6384L30.4485 13.4888L30.3257 13.6039C30.2068 13.7113 30.0955 13.9109 30.0955 14.0106C30.0955 14.1526 30.6864 13.861 30.8668 13.6269C30.909 13.577 30.9397 13.554 30.9397 13.577C30.9397 13.6768 30.8476 13.8456 30.7171 13.9876L30.5751 14.1411L30.721 14.0068C30.9128 13.8341 30.9627 13.7305 30.9934 13.4504C31.0164 13.2777 31.051 13.1818 31.1354 13.0743C31.2006 12.9976 31.2467 12.9324 31.239 12.9362C31.2313 12.9362 31.1392 13.0091 31.0279 13.0974Z" fill="white"/>
<path d="M23.4109 13.32C23.3303 13.3622 23.265 13.4044 23.265 13.4121C23.265 13.4236 23.3303 13.4006 23.4109 13.3622C23.4876 13.32 23.5797 13.2778 23.6104 13.2662C23.6603 13.2471 23.6603 13.2471 23.6104 13.2432C23.5797 13.2432 23.4876 13.2778 23.4109 13.32Z" fill="white"/>
<path d="M31.3157 13.3967C31.2812 13.4773 31.2659 13.5464 31.2812 13.5464C31.3119 13.5464 31.4155 13.2816 31.3925 13.2586C31.3886 13.2509 31.3503 13.3123 31.3157 13.3967Z" fill="white"/>
<path d="M24.1591 13.4967C24.1937 13.5044 24.2474 13.5044 24.2743 13.4967C24.2973 13.4852 24.2704 13.4775 24.2052 13.4775C24.1438 13.4775 24.1208 13.4852 24.1591 13.4967Z" fill="white"/>
<path d="M24.2282 13.7305C24.1591 13.8571 24.2321 13.8955 24.4201 13.8341L24.5889 13.7766L24.4201 13.7957C24.2666 13.8149 24.2551 13.8111 24.2743 13.7382C24.2973 13.6422 24.2781 13.6384 24.2282 13.7305Z" fill="white"/>
<path d="M31.3311 13.8998C31.2697 13.9766 31.1661 14.2452 31.2083 14.2183C31.2582 14.1876 31.4117 13.8883 31.3886 13.8691C31.381 13.8576 31.3541 13.873 31.3311 13.8998Z" fill="white"/>
<path d="M24.7616 13.9493C24.7309 13.9838 24.7309 14.0068 24.7539 14.0068C24.823 14.0068 24.9151 13.9608 24.9151 13.9263C24.9151 13.8725 24.8153 13.8879 24.7616 13.9493Z" fill="white"/>
<path d="M24.0632 14.3566C23.8752 14.5139 23.8368 14.583 23.9289 14.583C24.0248 14.583 24.3011 14.3566 24.3011 14.276C24.3011 14.1686 24.2666 14.1801 24.0632 14.3566Z" fill="white"/>
<path d="M30.4792 14.2948C30.4523 14.3255 30.3794 14.36 30.3104 14.3716C30.1684 14.3984 30.0801 14.4598 30.0456 14.5519C30.0149 14.6325 30.011 14.6325 30.1761 14.5788C30.3142 14.5289 30.4639 14.4138 30.5214 14.3025C30.5675 14.2219 30.5444 14.2181 30.4792 14.2948Z" fill="white"/>
<path d="M24.1668 14.6211C24.0517 14.7401 24.0594 14.7669 24.186 14.6979C24.2666 14.6557 24.3625 14.506 24.3088 14.506C24.2934 14.506 24.2282 14.5559 24.1668 14.6211Z" fill="white"/>
<path d="M23.4799 14.8744C23.3802 14.9473 23.3073 15.0049 23.3226 15.0049C23.361 15.0049 23.6833 14.8092 23.7102 14.7708C23.7486 14.7056 23.668 14.7439 23.4799 14.8744Z" fill="white"/>
<path d="M22.7585 15.143C22.6089 15.2235 22.6242 15.2504 22.7777 15.1737C22.9197 15.1007 22.9466 15.0816 22.8967 15.0816C22.8775 15.0854 22.8161 15.1123 22.7585 15.143Z" fill="white"/>
<path d="M23.242 15.2002C23.2037 15.2462 23.1001 15.3153 23.0156 15.3537C22.8775 15.4151 22.8737 15.4228 22.9619 15.4228C23.0694 15.4266 23.242 15.3115 23.3034 15.1925C23.3572 15.0966 23.3341 15.1004 23.242 15.2002Z" fill="white"/>
<path d="M22.5283 15.6071C22.4899 15.6148 22.4592 15.6416 22.4592 15.6608C22.4592 15.6838 22.4899 15.68 22.536 15.657C22.5782 15.6339 22.6127 15.6071 22.6127 15.5994C22.6127 15.5879 22.6089 15.5841 22.605 15.5841C22.5974 15.5879 22.5628 15.5956 22.5283 15.6071Z" fill="white"/>
<path d="M27.4669 15.6187C27.4362 15.6685 27.4631 15.7107 27.5206 15.6916C27.5437 15.6801 27.5475 15.6532 27.5283 15.6225C27.5053 15.5841 27.4899 15.5841 27.4669 15.6187Z" fill="white"/>
<path d="M21.826 15.8107C21.8145 15.8299 21.8184 15.8491 21.8414 15.8491C21.8606 15.8491 21.8913 15.8299 21.9028 15.8107C21.9143 15.7877 21.9105 15.7724 21.8874 15.7724C21.8683 15.7724 21.8376 15.7877 21.826 15.8107Z" fill="white"/>
<path d="M27.6434 15.9141C27.6396 15.9371 27.6281 15.9908 27.6166 16.0292C27.5974 16.0944 27.5974 16.0944 27.6396 16.0292C27.6626 15.9908 27.6741 15.9409 27.6626 15.9141C27.6511 15.8795 27.6434 15.8795 27.6434 15.9141Z" fill="white"/>
<path d="M27.4938 16.321C27.4669 16.3824 27.4477 16.4669 27.4516 16.5129C27.4516 16.582 27.4631 16.5743 27.5091 16.4669C27.5398 16.3978 27.559 16.3095 27.5513 16.275C27.5398 16.2289 27.5245 16.2443 27.4938 16.321Z" fill="white"/>
<path d="M22.2865 16.7663C22.275 16.7855 22.2021 16.8238 22.1215 16.8507C21.9719 16.9006 21.5613 17.1615 21.5152 17.2344C21.4999 17.2613 21.5651 17.2268 21.6572 17.1654C21.7493 17.1001 21.9412 16.9965 22.087 16.9313C22.229 16.8661 22.3441 16.7931 22.3441 16.774C22.3441 16.7241 22.3172 16.7202 22.2865 16.7663Z" fill="white"/>
<path d="M27.3211 16.9505C27.3057 16.962 27.2942 16.9927 27.2942 17.0157C27.2942 17.0388 27.3096 17.0349 27.3288 17.0081C27.3748 16.9352 27.4592 17.1616 27.4401 17.3035C27.4324 17.3688 27.4362 17.411 27.4554 17.3995C27.5053 17.3688 27.4899 17.1577 27.4285 17.0388C27.3633 16.916 27.3595 16.9121 27.3211 16.9505Z" fill="white"/>
<path d="M27.064 17.1883C27.064 17.2075 27.0026 17.2996 26.9259 17.3917C26.6879 17.6719 26.6419 17.8292 26.6918 18.1477C26.734 18.4316 26.7532 18.4585 26.8338 18.3626C26.8683 18.3204 26.8721 18.2167 26.853 17.9788C26.8299 17.6719 26.8338 17.6412 26.9297 17.48C27.0371 17.2958 27.0602 17.2804 27.1331 17.3534C27.1714 17.3879 27.1945 17.3841 27.2482 17.3303C27.3096 17.2651 27.3096 17.2613 27.2367 17.2843C27.1945 17.2958 27.1331 17.2881 27.1024 17.2689C27.064 17.2459 27.0602 17.2306 27.0947 17.2306C27.1177 17.2306 27.1407 17.2114 27.1407 17.1922C27.1407 17.1692 27.1254 17.1538 27.1024 17.1538C27.0832 17.1538 27.064 17.1692 27.064 17.1883Z" fill="white"/>
<path d="M20.5751 17.6417C20.5252 17.7031 20.5291 17.7069 20.5905 17.657C20.625 17.6302 20.6557 17.5995 20.6557 17.5918C20.6557 17.5611 20.625 17.5803 20.5751 17.6417Z" fill="white"/>
<path d="M21.1315 17.8248C21.0931 17.8555 21.0778 17.8785 21.097 17.8823C21.1545 17.8823 21.2505 17.8133 21.2274 17.7902C21.2159 17.7787 21.1737 17.7941 21.1315 17.8248Z" fill="white"/>
<path d="M26.1545 18.2357C26.1085 18.2933 26.0625 18.4199 26.0855 18.4199C26.0932 18.4199 26.1239 18.3662 26.1584 18.3048C26.2159 18.182 26.2159 18.159 26.1545 18.2357Z" fill="white"/>
<path d="M26.4347 18.2938C26.3771 18.4013 26.3733 18.4013 26.3503 18.313C26.3387 18.267 26.308 18.2286 26.2889 18.2286C26.2697 18.2286 26.2658 18.267 26.2773 18.313C26.3349 18.501 26.4155 18.4972 26.4807 18.3053C26.5344 18.1633 26.5076 18.1557 26.4347 18.2938Z" fill="white"/>
<path d="M26.0663 18.8842C26.0663 18.9265 26.0855 18.9495 26.1047 18.938C26.1277 18.9265 26.143 18.8881 26.143 18.8574C26.143 18.8267 26.1277 18.8037 26.1047 18.8037C26.0855 18.8037 26.0663 18.8382 26.0663 18.8842Z" fill="white"/>
<path d="M21.4347 23.305C21.2812 23.4969 20.978 23.8576 20.7554 24.0994C20.5329 24.3411 20.3487 24.5522 20.3487 24.5675C20.3487 24.6366 20.4983 24.5905 20.6518 24.4793C20.7861 24.3795 21.3003 23.6581 21.7071 22.9942C21.78 22.8714 21.6879 22.9789 21.4347 23.305Z" fill="white"/>
<path d="M12.5896 24.6438C12.5283 24.6861 12.4822 24.7398 12.4822 24.7628C12.4822 24.7897 12.4208 24.9048 12.3479 25.0199C12.275 25.135 12.2136 25.2386 12.2136 25.2501C12.2136 25.3 12.5551 24.9432 12.6587 24.7897C12.7815 24.6055 12.7431 24.5287 12.5896 24.6438Z" fill="white"/>
<path d="M17.8046 26.7932C17.582 27.0963 17.2673 27.4916 17.1062 27.6758C16.8644 27.952 16.7954 28.0096 16.7263 27.9904C16.6265 27.9674 16.5459 28.048 16.3809 28.3396C16.3157 28.4547 15.978 28.8884 15.6326 29.3066L15.0033 30.0664L15.648 29.4026C16.001 29.038 16.4193 28.6351 16.5689 28.5123C16.7992 28.3243 16.922 28.1708 17.3096 27.6029C17.5628 27.2268 17.8775 26.7702 18.0041 26.5821C18.1346 26.3979 18.2305 26.2483 18.2228 26.2483C18.2152 26.2483 18.0271 26.4939 17.8046 26.7932Z" fill="white"/>
<path d="M10.176 27.8864C9.47375 28.8304 9.27037 29.1028 9.16293 29.2678C9.04397 29.452 8.99025 29.4751 8.99025 29.3446C8.99025 29.2333 9.12072 29.0223 9.27421 28.8803C9.42386 28.746 9.30107 28.8266 9.05548 29.0223C8.82524 29.2103 8.66024 29.5058 8.81757 29.4482C8.8828 29.4213 8.89815 29.5288 8.83676 29.5672C8.77536 29.6055 8.83292 29.6631 8.92885 29.6631C9.04781 29.6631 9.26653 29.5134 9.53898 29.2487C9.70399 29.0837 9.75771 29.0069 9.75771 28.9225C9.75771 28.7882 10.057 28.1972 10.3678 27.7137C10.4945 27.5219 10.5904 27.3607 10.5827 27.3607C10.5751 27.3607 10.3909 27.5986 10.176 27.8864Z" fill="white"/>
<path d="M7.99639 30.5038C7.91197 30.5882 7.89278 30.6611 7.95034 30.6611C7.99255 30.6611 8.11918 30.4693 8.09616 30.4424C8.08465 30.4347 8.0386 30.4616 7.99639 30.5038Z" fill="white"/>
<path d="M8.58734 30.6569C8.4799 30.7183 8.36862 30.7989 8.33792 30.8334C8.31106 30.8679 8.37629 30.8372 8.48374 30.7682C8.58734 30.6991 8.71014 30.6223 8.74851 30.5955C8.88282 30.5072 8.77537 30.5494 8.58734 30.6569Z" fill="white"/>
<path d="M8.18058 30.9571C8.13069 31.0185 8.13453 31.0224 8.19593 30.9725C8.23046 30.9456 8.26116 30.9149 8.26116 30.9072C8.26116 30.8765 8.23046 30.8957 8.18058 30.9571Z" fill="white"/>
<path d="M6.35403 32.641C5.83983 33.1398 5.42156 33.5274 5.42156 33.5044C5.42156 33.4852 5.43691 33.4583 5.45609 33.4468C5.50598 33.4123 5.65563 33.1552 5.6211 33.1552C5.60575 33.1552 5.51365 33.2242 5.42156 33.3087C5.32946 33.3931 5.23737 33.466 5.21434 33.4737C5.16062 33.4928 5.31411 33.6885 5.38319 33.6924C5.41388 33.6924 5.6211 33.5005 5.84366 33.2626C6.06623 33.0285 6.48833 32.5872 6.7838 32.2841C7.07544 31.9809 7.30952 31.7354 7.30184 31.7354C7.29033 31.7354 6.86439 32.1421 6.35403 32.641Z" fill="white"/>
<path d="M13.43 32.0118C13.1921 32.3303 13.077 32.5375 13.0425 32.7332C13.0233 32.8329 13.0501 32.7984 13.1461 32.595C13.219 32.4454 13.3686 32.1921 13.4761 32.0309C13.5835 31.8659 13.6679 31.7355 13.6564 31.7355C13.6487 31.7355 13.5451 31.8621 13.43 32.0118Z" fill="white"/>
<path d="M6.16983 32.3416C5.95878 32.545 5.60959 32.875 5.39086 33.0707C5.03015 33.4007 4.94573 33.5005 5.03015 33.5005C5.04934 33.5005 5.29493 33.2702 5.57889 32.9901C6.15448 32.426 6.59961 31.9656 6.57275 31.9656C6.56124 31.9656 6.38089 32.1344 6.16983 32.3416Z" fill="white"/>
<path d="M13.549 32.3108C13.4953 32.4068 13.3686 32.5603 13.2727 32.6562C13.1 32.8212 13.0501 32.9248 13.1461 32.9248C13.1691 32.921 13.3456 32.7751 13.5336 32.5948C13.7946 32.3454 13.856 32.2725 13.7792 32.2916C13.6948 32.3147 13.6756 32.3032 13.6641 32.2264C13.6526 32.1497 13.6411 32.1573 13.549 32.3108Z" fill="white"/>
<path d="M12.2098 33.9573C12.1599 33.9995 12.1292 34.0417 12.1407 34.0533C12.1522 34.0648 12.2021 34.0341 12.252 33.9803C12.3594 33.8652 12.3364 33.8537 12.2098 33.9573Z" fill="white"/>
</svg>
