<svg width="70" height="71" viewBox="0 0 70 71" fill="none" xmlns="http://www.w3.org/2000/svg">
<path d="M30.8062 0.16605C30.5262 0.39005 30.6242 1.31405 30.9182 1.20205C31.0162 1.16005 31.3242 1.09005 31.5902 1.03405C32.2342 0.92205 32.3042 0.78205 31.9962 0.34805C31.7162 -0.0299499 31.1702 -0.11395 30.8062 0.16605Z" fill="black"/>
<path d="M38.3523 0.824028C38.1283 0.964027 37.6943 1.13203 37.3723 1.18803C36.8963 1.27203 36.8403 1.30003 37.0643 1.39803C37.3303 1.49603 37.3163 1.51003 36.9943 1.58003C36.7983 1.62203 36.3083 1.70603 35.8883 1.74803C35.2023 1.83203 35.1043 1.80403 34.8383 1.48203C34.6703 1.30003 34.3203 1.10403 34.0543 1.04803C33.6483 0.964027 33.5923 0.978027 33.7463 1.13203C34.2363 1.65003 33.5643 1.88803 32.9343 1.39803C32.5983 1.14603 32.5843 1.14603 32.3043 1.39803C32.0803 1.59403 31.6323 1.69203 30.1763 1.80403C29.1683 1.90203 28.0343 2.05603 27.6563 2.16803C26.7323 2.44803 26.7183 2.42003 27.5863 2.02803C28.0203 1.83203 28.3143 1.60803 28.3143 1.46803C28.3143 1.23003 28.2163 1.18803 27.4463 1.04803C26.9563 0.978027 26.9143 0.992027 26.9143 1.31403C26.9143 1.55203 26.7603 1.76203 26.4663 1.97203C26.2143 2.14003 25.9763 2.30803 25.9483 2.33603C25.9203 2.35003 25.9763 2.63003 26.0743 2.95203C26.2423 3.45603 26.3123 3.51203 26.6483 3.47003C26.8723 3.42803 26.9983 3.47003 26.9563 3.54003C26.8023 3.80603 25.9203 4.05803 25.2063 4.05803C24.4783 4.04403 24.4643 4.04403 24.8843 3.86203L25.3043 3.68003L24.7863 3.42803C24.3523 3.21803 24.1983 3.20403 23.8903 3.34403C23.4563 3.54003 23.3023 3.45603 23.5543 3.14803C23.6523 3.02203 23.7083 2.91003 23.6803 2.88203C23.6103 2.82603 20.0823 3.84803 18.3743 4.40804C16.7363 4.94003 14.6783 6.01803 13.7823 6.80203C13.0403 7.44603 12.9983 7.62803 13.5443 7.72603C13.6983 7.75403 13.8243 7.83803 13.8243 7.90803C13.8383 7.99203 13.8943 8.20203 13.9503 8.38403L14.0623 8.72003L14.2443 8.28603C14.4683 7.76803 14.8603 7.50203 15.9243 7.12403C16.7923 6.81603 17.0023 6.85803 16.6523 7.23603C16.4003 7.53003 15.9383 8.66403 15.7843 9.37803L15.6863 9.86803L16.1063 9.30803C16.3303 9.00003 16.9043 8.38403 17.3803 7.95003C18.0943 7.27803 18.2343 7.06803 18.2483 6.64803C18.2623 6.38203 18.2763 6.07403 18.2903 5.97603C18.3183 5.57003 19.2843 5.30403 19.6063 5.62603C19.7323 5.75203 19.6203 5.94803 19.1443 6.45203C18.7943 6.83003 18.5143 7.23603 18.5143 7.36203C18.5143 7.53003 18.6823 7.41803 19.0743 6.99803C19.5363 6.49403 19.6763 6.42403 19.9983 6.49403C20.4183 6.60603 20.8943 6.32603 20.5863 6.14403C20.4883 6.08803 20.4463 6.00403 20.4743 5.97603C20.7823 5.73803 22.7003 4.61803 22.8263 4.61803C23.0643 4.61803 23.1763 5.20603 23.0083 5.61203C22.9383 5.82203 22.6303 6.10203 22.3363 6.25603C22.0423 6.41003 21.3143 6.78803 20.7123 7.11003C19.8583 7.57203 19.4803 7.69803 18.9343 7.69803C18.3463 7.69803 18.2343 7.74003 18.2343 7.96403C18.2343 8.10403 18.3323 8.30003 18.4443 8.39803C18.5563 8.49603 18.6543 8.65003 18.6543 8.76203C18.6543 9.04203 17.9403 9.49003 17.1703 9.67203C16.7923 9.77003 15.9943 10.078 15.4063 10.386C14.6363 10.764 14.3143 10.862 14.3143 10.722C14.3143 10.624 14.4683 10.106 14.6783 9.58803C14.8743 9.05603 15.0143 8.46803 14.9863 8.27203C14.9163 7.68403 14.5523 7.83803 14.3143 8.56603C14.1463 9.11203 14.0623 9.21003 13.8243 9.15403C13.6703 9.11203 13.3063 9.18203 13.0123 9.30803C12.7323 9.42003 12.4943 9.47603 12.4943 9.42003C12.4943 9.36403 12.7323 9.07003 13.0123 8.76203L13.5443 8.21603L12.7043 8.80403C12.2423 9.14003 11.3043 9.78403 10.6043 10.26C9.38633 11.086 7.73433 12.584 7.73433 12.836C7.73433 12.906 7.91633 12.948 8.15433 12.906C8.77033 12.822 8.70033 13.116 7.80433 14.208C7.38433 14.712 7.03433 15.174 7.03433 15.202C7.03433 15.328 7.18833 15.244 7.65033 14.838C7.93033 14.586 8.16833 14.474 8.22433 14.544C8.26633 14.628 7.56633 15.426 6.67033 16.308C5.06033 17.918 5.04633 17.946 5.14433 18.45C5.25633 19.038 5.49433 19.388 5.49433 18.954C5.49433 18.142 6.11033 16.798 6.48833 16.798C6.69833 16.798 6.62833 17.246 6.11033 19.262C5.83033 20.34 5.56433 21.712 5.50833 22.328L5.42433 23.448L4.90633 22.608C4.61233 22.146 4.37433 21.866 4.37433 21.992C4.37433 22.118 4.02433 22.65 3.60433 23.168C3.18433 23.672 2.83433 24.12 2.83433 24.148C2.83433 24.162 2.73633 24.414 2.62433 24.694C2.51233 24.974 2.44233 25.198 2.47033 25.198C2.49833 25.198 2.73633 24.876 2.98833 24.47L3.45033 23.756L3.63233 24.162C3.88433 24.75 3.85633 25.226 3.46433 27.298C3.11433 29.188 3.04433 30.364 3.25433 30.868C3.36633 31.12 3.38033 31.12 3.38033 30.784C3.39433 30.336 3.71633 29.888 3.92633 30.014C4.13633 30.14 4.13633 30.994 3.94033 31.904C3.73033 32.898 3.47833 33.01 3.56233 32.058L3.63233 31.33L3.17033 31.4C2.61033 31.498 2.61033 31.484 2.47033 29.608C2.42833 28.838 2.33033 28.068 2.26033 27.886C2.07833 27.41 1.74233 27.508 1.63033 28.068C1.50433 28.782 1.65833 29.664 2.27433 31.568C2.87633 33.444 3.07233 34.298 2.87633 34.298C2.80633 34.298 2.55433 34.032 2.30233 33.71C1.82633 33.094 1.75633 33.136 2.00833 33.85C2.09233 34.088 2.23233 34.27 2.31633 34.256C2.42833 34.242 2.48433 34.592 2.48433 35.46C2.48433 36.132 2.45633 36.678 2.41433 36.678C2.37233 36.678 2.13433 36.552 1.89633 36.398L1.43433 36.118L1.44833 36.51C1.46233 37.294 1.64433 38.148 1.78433 38.106C1.95233 38.05 2.70833 41.004 3.14233 43.426C3.32433 44.392 3.50633 45.134 3.54833 45.05C3.66033 44.868 4.02433 45.526 4.16433 46.184C4.33233 46.94 4.50033 46.408 4.43033 45.358L4.37433 44.448L4.58433 45.218C4.71033 45.638 4.86433 46.66 4.93433 47.486C5.00433 48.326 5.14433 49.292 5.22833 49.656L5.39633 50.3L5.64833 49.992L5.90033 49.684L6.09633 50.16C6.53033 51.196 6.54433 51.28 6.16633 51.21L5.81633 51.14L6.13833 51.63C6.32033 51.896 6.47433 52.26 6.47433 52.428C6.47433 52.708 6.99233 53.338 7.21633 53.338C7.27233 53.338 7.28633 53.17 7.23033 52.96C7.18833 52.736 7.44033 53.086 7.79033 53.716C8.14033 54.36 8.43433 55.018 8.43433 55.2C8.43433 55.858 9.05033 56.754 10.1143 57.608C10.6883 58.084 11.2343 58.602 11.3183 58.77C11.4723 59.078 13.4883 60.996 14.9303 62.186C15.9803 63.068 17.8703 64.328 19.2563 65.098C19.9003 65.448 20.2923 65.742 20.1943 65.798C20.0403 65.896 24.2263 68.29 25.6963 68.934C27.2923 69.634 28.6923 69.998 29.7983 69.998C30.3583 69.998 30.8343 69.956 30.8343 69.914C30.8343 69.872 30.7643 69.718 30.6943 69.564C30.5963 69.382 30.5963 69.298 30.6943 69.298C30.7643 69.298 30.8343 69.186 30.8343 69.046C30.8343 68.822 31.0583 68.808 33.6623 68.808C36.7143 68.808 38.3243 68.612 40.9423 67.968C41.7263 67.772 42.3843 67.618 42.3983 67.618C42.4263 67.618 42.4543 67.912 42.4543 68.29C42.4543 69.102 42.7483 69.578 43.2523 69.578H43.6163L43.2243 69.214C42.9023 68.92 42.8463 68.78 42.9163 68.36C43.0143 67.8 43.3223 67.408 43.8823 67.114C44.2463 66.918 44.2743 66.932 44.2743 67.184C44.2743 67.73 44.6803 67.758 46.7383 67.394C47.8023 67.212 48.8523 67.016 49.0763 66.974C49.4123 66.89 49.4543 66.918 49.4543 67.254C49.4543 67.674 49.4823 67.688 50.3783 67.408C50.7563 67.296 51.0783 67.198 51.1063 67.198C51.1203 67.198 51.1343 67.422 51.1343 67.688C51.1343 67.996 51.0503 68.22 50.8963 68.304C50.7563 68.388 50.7003 68.458 50.7563 68.458C50.9523 68.458 51.7223 67.87 51.6383 67.8C51.5963 67.758 51.6943 67.534 51.8483 67.324L52.1283 66.918H51.5123C51.1623 66.918 50.7003 66.876 50.4623 66.834C50.0843 66.764 50.0423 66.708 50.1543 66.484C50.2383 66.344 50.2943 66.022 50.2943 65.77V65.294L51.3583 65.392L52.4223 65.504L52.8423 65.028C53.0663 64.762 53.7383 64.286 54.3263 63.95C54.9143 63.628 55.6283 63.138 55.8803 62.872C56.1463 62.592 56.3143 62.466 56.2443 62.578C56.1743 62.704 56.2443 62.69 56.4263 62.522C56.7763 62.228 56.8603 62.018 56.5243 62.298C56.3703 62.424 56.3143 62.424 56.3143 62.312C56.3143 62.228 56.4123 62.116 56.5243 62.074C56.6363 62.018 56.7343 61.878 56.7343 61.738C56.7343 61.612 56.9163 61.248 57.1543 60.926L57.5603 60.352L56.8183 60.618C56.1603 60.842 54.4243 61.178 53.9203 61.178C53.8223 61.178 53.9483 60.954 54.2143 60.688C54.5783 60.31 54.7323 60.24 54.9283 60.352C55.1383 60.464 55.2643 60.38 55.6283 59.89C55.8663 59.554 56.1883 59.036 56.3423 58.728C56.6363 58.154 58.0083 56.236 58.4003 55.858C58.5263 55.732 59.0303 55.144 59.5343 54.528C60.0383 53.912 60.8783 52.904 61.4103 52.288C62.6563 50.832 64.2243 48.452 65.1343 46.646C65.7083 45.484 65.9043 45.204 66.1143 45.26C66.3383 45.316 66.3663 45.204 66.4223 44.364C66.4503 43.846 66.5203 43.37 66.5623 43.328C66.6183 43.272 66.8003 43.328 66.9823 43.454C67.6123 43.902 67.6963 43.776 67.5843 42.586C67.4443 41.074 67.4583 40.108 67.6403 39.8C67.7243 39.66 67.7943 39.618 67.7943 39.716C67.7943 39.926 68.3123 40.22 68.4943 40.108C68.5783 40.052 68.4803 39.73 68.2843 39.324C67.9903 38.764 67.9623 38.638 68.1443 38.638C68.2703 38.638 68.4803 38.372 68.6343 38.022C68.7743 37.686 68.9563 37.392 69.0403 37.364C69.1243 37.322 69.0263 36.678 68.7743 35.572C68.2703 33.5 68.2563 33.234 68.6483 33.136C68.9143 33.066 68.9283 33.094 68.8443 33.556C68.7883 33.906 68.8163 34.088 68.9423 34.172C69.5303 34.55 69.6283 34.074 69.1943 32.814C69.0263 32.366 68.9003 31.694 68.9003 31.344C68.8863 30.728 68.8723 30.7 68.5363 30.77L68.1723 30.84L68.2143 28.964C68.2843 26.108 68.2843 26.094 67.8083 25.814C67.4583 25.618 67.3183 25.324 66.8983 23.994C66.2823 22.09 65.2603 19.78 64.3783 18.296C64.0283 17.694 63.7343 17.106 63.7343 17.008C63.7343 16.91 63.4683 16.518 63.1323 16.154C62.8103 15.776 62.1663 14.992 61.7043 14.418C60.5703 12.99 58.4563 10.904 57.0003 9.77003C55.9083 8.91603 53.1503 7.08203 52.7723 6.95603C52.6883 6.92803 52.8423 6.63403 53.1503 6.25603C53.7383 5.54203 53.7663 5.12203 53.2623 4.78603C52.9403 4.57603 52.9403 4.57603 53.1083 4.94003C53.2483 5.24803 53.2343 5.37403 53.0383 5.65403C52.7023 6.17203 52.2963 6.34003 51.6523 6.24203C51.3303 6.18603 51.0083 6.08803 50.9243 6.03203C50.8543 5.96203 50.5463 5.83603 50.2523 5.73803C49.7623 5.58403 49.7343 5.55603 49.9303 5.33203C50.0563 5.19203 50.1543 5.01003 50.1543 4.92603C50.1543 4.59003 49.2723 3.79203 48.0263 2.96603C46.6123 2.04203 46.1923 1.97203 45.7023 2.58803L45.4503 2.89603L44.7783 2.11203C44.1063 1.34203 44.0783 1.32803 43.3083 1.31403C42.8743 1.31403 42.1183 1.17403 41.6143 1.02003C41.1103 0.866028 40.2703 0.698029 39.7243 0.642029C38.9123 0.586029 38.6743 0.614029 38.3523 0.824028ZM39.0523 0.782028C39.0103 0.824028 38.8843 0.838028 38.7863 0.796028C38.6743 0.754028 38.7163 0.712029 38.8703 0.712029C39.0243 0.698029 39.1083 0.740028 39.0523 0.782028ZM49.0063 5.01003C49.2023 5.30403 49.2023 5.31803 48.7683 5.16403C48.3343 5.01003 48.2503 4.89803 48.4323 4.70203C48.5723 4.56203 48.7823 4.67403 49.0063 5.01003ZM11.6263 10.386C11.5143 10.568 11.1503 11.184 10.8143 11.758C10.4783 12.332 10.1843 12.822 10.1703 12.85C10.1563 12.878 9.98833 12.822 9.82033 12.724L9.49833 12.556L9.87633 12.262C10.0863 12.094 10.2543 11.898 10.2543 11.828C10.2543 11.674 11.6263 10.078 11.7523 10.078C11.7943 10.078 11.7383 10.218 11.6263 10.386ZM9.41433 18.576C9.26033 18.814 9.26033 18.814 9.33033 18.576C9.37233 18.436 9.41433 18.24 9.42833 18.156C9.42833 18.03 9.45633 18.03 9.49833 18.156C9.54033 18.254 9.49833 18.436 9.41433 18.576ZM11.2343 19.444C11.2343 19.514 11.1363 19.64 11.0243 19.738C10.8563 19.878 10.8143 19.878 10.8143 19.71C10.8143 19.598 10.8563 19.458 10.9123 19.416C11.0383 19.276 11.2343 19.29 11.2343 19.444ZM9.55433 19.794C9.55433 19.822 9.59633 19.948 9.63833 20.06C9.68033 20.186 9.49833 20.424 9.16233 20.69L8.63033 21.124L8.84033 20.424C8.99433 19.934 9.12033 19.738 9.30233 19.738C9.44233 19.738 9.55433 19.766 9.55433 19.794ZM10.2123 20.382C10.1283 20.676 9.59633 21.6 9.03633 22.426C8.47633 23.266 7.74833 24.456 7.42633 25.086L6.82433 26.248L6.78233 24.26C6.75433 22.384 6.76833 22.244 7.06233 21.908C7.23033 21.712 7.44033 21.558 7.55233 21.558C7.65033 21.558 7.83233 21.404 7.95833 21.208C8.21033 20.816 8.43433 20.858 8.43433 21.292C8.43433 21.922 9.51233 21.194 10.0023 20.256C10.3383 19.584 10.4363 19.64 10.2123 20.382ZM68.0743 27.494C68.0743 28.11 67.8363 27.76 67.7383 27.018C67.6543 26.416 67.6543 26.402 67.8503 26.738C67.9763 26.934 68.0603 27.27 68.0743 27.494ZM5.99833 27.284C6.11033 27.186 6.23633 27.158 6.29233 27.2C6.43233 27.34 5.76033 28.838 5.55033 28.838C5.15833 28.838 4.85033 27.662 5.08833 27.046L5.22833 26.668L5.52233 27.06C5.74633 27.368 5.84433 27.41 5.99833 27.284ZM46.7943 66.148C46.7943 66.288 46.6543 66.358 46.3463 66.358L45.8843 66.344L46.2343 66.148C46.6823 65.896 46.7943 65.896 46.7943 66.148ZM45.5623 67.156C45.7583 67.408 45.3243 67.548 44.8623 67.394C44.3303 67.212 44.3303 66.946 44.8623 66.722C45.2823 66.54 45.3243 66.54 45.3803 66.75C45.4083 66.876 45.4923 67.072 45.5623 67.156ZM30.3443 68.752C30.5403 68.948 29.8403 68.892 29.3643 68.682C28.9443 68.486 28.9583 68.486 29.5743 68.556C29.9243 68.598 30.2603 68.682 30.3443 68.752Z" fill="black"/>
<path d="M35.3563 1.21582C35.5663 1.24382 35.9023 1.24382 36.1263 1.21582C36.3363 1.18782 36.1543 1.15982 35.7343 1.15982C35.3143 1.15982 35.1323 1.18782 35.3563 1.21582Z" fill="black"/>
<path d="M50.5461 4.95382C50.7141 5.17782 50.8541 5.47182 50.8541 5.62582C50.8541 5.77982 50.9241 5.84982 50.9941 5.80782C51.2741 5.63982 51.1201 5.19182 50.6861 4.86982L50.2241 4.54782L50.5461 4.95382Z" fill="black"/>
<path d="M4.26229 18.7998C3.94029 19.1498 3.87029 19.5278 4.09429 19.6678C4.17829 19.7098 4.23429 19.8918 4.23429 20.0598C4.24829 20.3678 4.24829 20.3678 4.45829 20.0878C4.64029 19.8358 4.64029 19.8078 4.45829 19.7658C4.17829 19.7098 4.17829 19.7098 4.44429 19.0798C4.71029 18.4638 4.65429 18.3798 4.26229 18.7998Z" fill="black"/>
<path d="M1.92414 20.7739C1.74214 21.2499 1.72814 21.4459 1.84014 21.6839C2.13414 22.2019 2.27414 21.9919 2.27414 21.0679C2.27414 20.5639 2.24614 20.1579 2.21814 20.1579C2.19014 20.1579 2.05014 20.4379 1.92414 20.7739Z" fill="black"/>
<path d="M1.25222 23.0978C1.02822 23.4898 0.804222 23.7978 0.748222 23.7978C0.608222 23.7978 0.230222 23.3638 0.146222 23.0978C0.104222 22.9858 0.0482222 23.1258 0.0202222 23.4058C-0.0217778 23.6858 0.00622223 23.8818 0.0622222 23.8538C0.118222 23.8118 0.174222 24.0078 0.174222 24.2738C0.174222 24.5538 0.244222 24.7778 0.314222 24.7778C0.398222 24.7778 0.454222 24.7218 0.454222 24.6518C0.454222 24.5678 0.832222 24.2178 1.29422 23.8678C2.12022 23.2238 2.30222 22.9018 1.96622 22.5658C1.71422 22.3138 1.67222 22.3418 1.25222 23.0978Z" fill="black"/>
<path d="M0.314209 25.6178C0.314209 25.7018 0.412209 25.7578 0.524209 25.7578C0.790209 25.7578 0.790209 25.6738 0.524209 25.5618C0.412209 25.5198 0.314209 25.5478 0.314209 25.6178Z" fill="black"/>
<path d="M67.4022 44.1679C67.2482 44.5179 67.1642 46.3239 67.3042 46.1699C67.3882 46.0859 67.6822 43.9439 67.6122 43.8739C67.5842 43.8459 67.4862 43.9719 67.4022 44.1679Z" fill="black"/>
<path d="M64.4203 49.1659C64.2943 49.6419 64.1543 50.1459 64.0983 50.2719C63.9443 50.6079 64.6163 50.4539 64.9663 50.0619C65.4563 49.5439 65.4703 49.2079 65.0363 48.7179L64.6303 48.2699L64.4203 49.1659Z" fill="black"/>
<path d="M63.5942 50.9718C63.4962 51.1258 63.4542 51.2938 63.4962 51.3218C63.5242 51.3498 63.6222 51.2238 63.7062 51.0278C63.9022 50.6078 63.8042 50.5658 63.5942 50.9718Z" fill="black"/>
<path d="M63.0482 52.3857C62.7402 53.3097 62.7822 53.3097 63.3702 52.4277L63.7342 51.8677V52.4277C63.7202 52.7357 63.6362 53.1417 63.5242 53.3377C63.0202 54.2197 63.4402 54.6117 64.2102 53.9957C64.5602 53.7017 64.5882 53.6317 64.4482 53.3517C64.3362 53.1697 64.3082 52.8197 64.3782 52.4277C64.4622 51.8397 64.4482 51.7977 64.0842 51.6577C63.4542 51.4197 63.3562 51.4897 63.0482 52.3857Z" fill="black"/>
<path d="M60.3882 55.522C60.3882 55.69 60.0242 56.208 59.6042 56.684C58.8622 57.51 58.6662 57.986 58.9742 58.168C59.2262 58.322 59.1282 58.49 58.7362 58.588L58.3442 58.7L58.7502 58.812C59.0302 58.896 59.2402 58.854 59.4922 58.7L59.8422 58.462L59.5202 58.238C59.0302 57.86 59.2542 57.538 60.0242 57.538H60.6542L60.6402 56.936C60.6402 56.278 60.4162 55.06 60.3882 55.522Z" fill="black"/>
<path d="M61.9843 55.5918C61.9283 55.6758 61.9143 55.7598 61.9563 55.8018C61.9843 55.8438 62.0543 55.7738 62.0963 55.6478C62.1943 55.4098 62.1103 55.3678 61.9843 55.5918Z" fill="black"/>
<path d="M61.4242 56.7958C61.2142 57.1318 61.0742 57.4398 61.1022 57.4678C61.1162 57.4818 61.3402 57.5518 61.5782 57.5938C61.9562 57.6778 62.0682 57.6358 62.3202 57.3138C62.7122 56.8238 62.6982 56.6698 62.1942 56.3898L61.7882 56.1658L61.4242 56.7958Z" fill="black"/>
<path d="M58.4003 59.5961L57.9243 60.1001L58.3723 59.7921C58.8483 59.4701 59.0443 59.2461 58.9463 59.1341C58.9183 59.1061 58.6663 59.3161 58.4003 59.5961Z" fill="black"/>
<path d="M52.4643 66.6378C52.4223 66.7078 52.4503 66.7778 52.5203 66.7778C52.6043 66.7778 52.6743 66.7078 52.6743 66.6378C52.6743 66.5538 52.6463 66.4978 52.6183 66.4978C52.5763 66.4978 52.5063 66.5538 52.4643 66.6378Z" fill="black"/>
<path d="M47.9843 68.192C47.3963 68.794 47.3403 68.892 47.6343 68.808C48.2363 68.64 48.8243 68.248 48.8663 67.982C48.9783 67.422 48.6423 67.506 47.9843 68.192Z" fill="black"/>
<path d="M45.1843 68.0379L44.6243 68.2899L45.1563 68.3039C45.5063 68.3179 45.7163 68.2479 45.7723 68.1079C45.8983 67.7719 45.7863 67.7579 45.1843 68.0379Z" fill="black"/>
<path d="M36.7842 69.0179C35.3982 69.1579 33.6062 69.2839 32.7942 69.2979L31.3242 69.3259L32.7242 69.5919C33.5222 69.7599 35.0482 69.8999 36.2942 69.9559L38.4642 70.0259L38.1142 69.7459L37.7642 69.4659L38.1142 69.3119C38.3102 69.2419 38.9682 69.1299 39.5842 69.0739C40.4102 69.0039 40.6062 68.9479 40.3542 68.8639C39.8642 68.7239 39.6402 68.7379 36.7842 69.0179Z" fill="black"/>
<path d="M55.3153 13.2008C54.9461 13.2769 54.2196 13.5816 53.8622 13.816C53.3817 14.1207 53.0594 14.4371 52.4207 15.234C51.6473 16.1832 51.5067 16.2887 50.8739 16.359L50.5282 16.3941L50.4344 16.6871C50.3055 17.109 50.2118 17.232 49.8485 17.4254C49.4149 17.6597 49.0926 17.859 49.0165 17.9351C48.9813 17.9703 48.9286 18.1461 48.9051 18.3277C48.8817 18.5094 48.8172 18.7203 48.7645 18.8023C48.6297 19.0074 48.1024 19.3355 47.8036 19.4058C47.4403 19.4879 47.2586 19.6402 47.1415 19.9742C47.0125 20.3492 46.661 20.6597 46.2274 20.8004C45.8817 20.9117 45.8641 20.9351 45.7762 21.3629C45.7586 21.4508 45.5829 21.6851 45.3778 21.8961C45.0438 22.2301 44.9676 22.2769 44.4989 22.4293L43.9832 22.5933L43.7079 22.4351C43.4442 22.2828 42.8817 22.0074 42.0497 21.6265C41.8387 21.5328 41.5633 21.3629 41.4403 21.2515C41.2059 21.0523 41.077 20.9937 41.1532 21.1226C41.8504 22.2711 42.618 23.2027 43.0575 23.4312C43.1512 23.4781 43.2274 23.5367 43.2274 23.5543C43.2274 23.5777 42.7997 24.0347 42.2723 24.568C41.7508 25.1012 40.4676 26.4312 39.4188 27.5269C38.37 28.6226 35.9969 31.0484 34.1454 32.9176C29.6864 37.4234 26.2352 41.0094 24.5594 42.8785C21.4774 46.318 20.8036 47.0738 20.0536 47.9469C19.1102 49.0484 17.8504 50.6187 16.9657 51.7965C15.7997 53.3492 14.745 54.9312 14.827 55.0133C14.9559 55.148 19.5145 51.691 22.1043 49.4996C26.3407 45.9137 33.536 38.9586 38.9852 33.1812C44.4637 27.3687 44.9032 26.8883 45.4364 26.1383C45.6122 25.8863 45.7762 25.6812 45.8055 25.6812C45.8348 25.6812 45.87 25.734 45.8934 25.7984C45.9579 26.0035 46.4793 26.7594 46.7957 27.0992C47.1004 27.4332 47.8446 28.0015 47.8973 27.943C47.95 27.8902 47.8036 26.6832 47.7332 26.5426C47.6981 26.4722 47.4813 26.1207 47.2645 25.7633C46.9305 25.2242 46.8602 25.066 46.8602 24.8609C46.8602 24.568 46.9715 24.3101 47.2469 23.9937C47.3582 23.8648 47.4461 23.6949 47.4461 23.6187C47.4461 23.4254 47.493 23.3785 47.827 23.2496C48.0907 23.1441 48.1317 23.1031 48.2079 22.8629C48.325 22.4996 48.3954 22.4234 48.7762 22.2828C49.4676 22.025 49.6141 21.8609 49.6141 21.3277C49.6141 21.0523 49.8192 20.6773 50.1063 20.4137C50.1883 20.3316 50.2586 20.2086 50.2586 20.1383C50.2586 20.0387 50.3348 19.9625 50.5633 19.8394C50.8094 19.7047 50.8797 19.6344 50.9207 19.4703C51.0438 18.9957 51.0672 18.9605 51.3543 18.9254C51.6766 18.8902 51.8817 18.7496 52.034 18.4566C52.0926 18.3336 52.3387 18.0582 52.5672 17.8414C52.9364 17.5015 53.0067 17.4019 53.0946 17.0972C53.1766 16.8394 53.2704 16.6754 53.4579 16.4937C53.6864 16.2652 53.7332 16.2418 53.95 16.2594L54.1961 16.2769L54.3133 15.9664C54.4481 15.6031 54.7176 15.3101 55.0575 15.1578C55.1864 15.0933 55.2977 15.0055 55.2977 14.9586C55.3036 14.7535 55.5379 14.3668 55.7196 14.2555C55.9657 14.109 56.077 14.109 56.3993 14.2613C56.7391 14.4312 56.8797 14.6656 56.8797 15.0758C56.8797 15.5387 56.7977 15.7906 56.4051 16.482C56.1239 16.9859 56.0536 17.1793 56.0008 17.525C55.9364 17.9762 55.995 18.6207 56.118 18.8082C56.1825 18.9078 56.1825 18.9078 56.1473 18.7965C56.0887 18.6265 56.1063 17.8121 56.1766 17.5191C56.2645 17.1207 56.329 16.9801 56.6688 16.4644C57.0555 15.8726 57.1668 15.6148 57.2137 15.1871C57.2782 14.5543 56.8563 13.6168 56.3582 13.3062C56.1532 13.1773 55.6668 13.1246 55.3153 13.2008ZM55.3856 13.3765C55.368 13.4058 55.3036 13.4351 55.245 13.4351C55.1922 13.4351 55.1161 13.4644 55.075 13.5055C55.0223 13.5582 55.0047 13.5582 55.0047 13.5055C55.0047 13.4703 55.0926 13.4117 55.1981 13.3824C55.2977 13.3531 55.3915 13.3238 55.4032 13.3238C55.4149 13.318 55.4032 13.3414 55.3856 13.3765ZM53.3055 14.5894C53.3055 14.6422 53.2879 14.6656 53.2645 14.6422C53.2352 14.6187 53.1883 14.7652 53.1532 14.9703C53.118 15.1695 53.0829 15.2691 53.077 15.1754C53.077 15.0875 53.0536 15.0172 53.0301 15.0172C52.954 15.0172 52.8661 15.0992 52.8602 15.1754C52.8543 15.2164 52.8485 15.3219 52.8426 15.4097L52.825 15.5738L52.7782 15.4273C52.6961 15.1695 52.7137 15.0992 52.9657 14.7887C53.2235 14.4781 53.3055 14.4254 53.3055 14.5894ZM52.6082 15.5152C52.5672 15.8023 52.5672 15.8023 52.5204 15.6207C52.4969 15.5035 52.5028 15.3863 52.5438 15.3101C52.6375 15.1344 52.6493 15.1754 52.6082 15.5152ZM52.4207 15.6734C52.4207 15.7613 52.4032 15.7789 52.3856 15.7203C52.3387 15.6148 52.1981 16.0836 52.1864 16.3648L52.1805 16.5699L52.1336 16.3941C52.0926 16.2242 52.0868 16.2242 52.075 16.3648C52.0633 16.4469 52.0633 16.5875 52.0633 16.6871C52.075 16.8394 52.0692 16.8453 52.0223 16.7398C51.993 16.6695 51.952 16.4996 51.9286 16.359C51.8993 16.1187 51.911 16.0836 52.1336 15.8199C52.2684 15.6676 52.3856 15.5445 52.4032 15.5445C52.4149 15.5445 52.4266 15.6031 52.4207 15.6734ZM51.536 16.693C51.5184 16.775 51.5067 16.7633 51.4774 16.6402C51.4598 16.5289 51.4657 16.4937 51.5008 16.5289C51.536 16.564 51.5477 16.6344 51.536 16.693ZM51.1727 16.6695C51.1727 16.7457 51.1961 16.9742 51.2196 17.1851C51.2723 17.6656 51.1903 17.5953 51.0379 17.0269C50.9207 16.6109 50.9325 16.5582 51.1082 16.5465C51.1434 16.5406 51.1668 16.5992 51.1727 16.6695ZM51.4422 16.8336C51.454 16.9625 51.4422 17.068 51.4247 17.068C51.4012 17.068 51.3719 16.9508 51.3661 16.8101C51.3543 16.6695 51.3602 16.564 51.3778 16.5758C51.4012 16.5875 51.4305 16.7047 51.4422 16.8336ZM50.9266 17.0855C50.9618 17.5308 50.9032 17.5484 50.7508 17.1558C50.6688 16.939 50.6629 16.8629 50.7215 16.734C50.8211 16.5113 50.8856 16.6285 50.9266 17.0855ZM50.4168 17.6597C50.4286 17.7242 50.411 17.7652 50.3817 17.7418C50.3465 17.7242 50.329 17.6597 50.3348 17.5953C50.3465 17.4605 50.3934 17.4957 50.4168 17.6597ZM50.0594 17.607C50.0887 17.648 50.077 17.6539 50.0243 17.6246C49.9715 17.5894 49.9598 17.6246 49.995 17.7652C50.0418 17.9879 49.9832 18.0055 49.9012 17.7887C49.8602 17.6715 49.8661 17.6246 49.9188 17.5836C50.0184 17.525 50.0125 17.525 50.0594 17.607ZM49.8485 18.0172C49.8778 18.1578 49.9129 18.3219 49.9364 18.3863C49.954 18.4508 49.8895 18.3453 49.7957 18.1519C49.6668 17.9058 49.6375 17.7945 49.6903 17.7594C49.784 17.7008 49.7957 17.7242 49.8485 18.0172ZM49.579 18.3863C49.7489 18.814 49.7547 18.8492 49.6727 18.7965C49.5965 18.7496 49.5965 18.7789 49.6727 18.9781C49.7254 19.1012 49.7196 19.1246 49.661 19.0777C49.62 19.0484 49.5438 19.025 49.4969 19.0308C49.45 19.0308 49.3504 18.943 49.2743 18.8258L49.1395 18.6207L49.1688 19.0543C49.1981 19.5582 49.1688 19.6812 49.0516 19.5816C48.9872 19.5289 48.9696 19.5347 48.9696 19.5933C48.9637 19.6461 48.9168 19.6168 48.8407 19.5289L48.7176 19.3824L48.7586 19.5875L48.7997 19.7926L48.6766 19.5406L48.5477 19.2945L48.7762 19.0426C48.9461 18.8609 49.034 18.6969 49.0868 18.4683C49.2274 17.8765 49.368 17.8531 49.579 18.3863ZM51.7469 18.5621C51.659 18.7027 51.454 18.8082 51.3895 18.7496C51.3661 18.7262 51.7528 18.4332 51.829 18.4215C51.8348 18.4156 51.7997 18.4801 51.7469 18.5621ZM47.9735 19.6519C47.9735 19.6812 47.9442 19.693 47.9032 19.6695C47.8622 19.6461 47.8563 19.6519 47.8797 19.693C47.9032 19.734 47.9032 19.7926 47.8797 19.8277C47.8563 19.8746 47.827 19.8687 47.7918 19.816C47.7098 19.6871 47.7274 19.8219 47.8504 20.2496C47.9149 20.4664 47.9559 20.6422 47.9442 20.6422C47.8739 20.6422 47.3934 19.9332 47.4168 19.8629C47.452 19.7808 47.7684 19.5992 47.9032 19.5933C47.9383 19.5875 47.9735 19.6168 47.9735 19.6519ZM48.7352 20.9586C48.7352 21.0699 48.577 20.7945 48.4832 20.5015C48.4247 20.3433 48.3836 20.1324 48.3836 20.0328C48.3895 19.9039 48.4364 20.0035 48.5594 20.3726C48.659 20.6597 48.7352 20.9234 48.7352 20.9586ZM47.4227 20.2203C47.4286 20.273 47.4461 20.4078 47.4696 20.5133L47.5106 20.7066L47.3582 20.5719C47.2235 20.443 47.2176 20.4137 47.2762 20.2437C47.3465 20.0445 47.3993 20.0387 47.4227 20.2203ZM47.2235 20.5836C47.2176 20.6246 47.2411 20.7008 47.2821 20.7535C47.3231 20.8062 47.2821 20.7828 47.1942 20.7008L47.0301 20.5543L47.0887 20.7183C47.1239 20.8062 47.1356 20.8765 47.118 20.8765C47.0946 20.8765 47.118 20.9234 47.159 20.9762C47.2352 21.0758 47.2293 21.0758 47.1239 20.9879C46.9129 20.818 46.8778 20.8121 46.9012 20.9586C46.9188 21.0523 46.9012 21.0933 46.8368 21.0933C46.7899 21.0933 46.7547 21.0758 46.7606 21.0582C46.7665 21.0406 46.7489 21.023 46.7137 21.023C46.6844 21.023 46.661 21.0347 46.6668 21.0523C46.7547 21.3394 46.6493 21.4332 46.5086 21.193C46.4266 21.0582 46.4325 21.0406 46.5379 20.982C46.6024 20.941 46.7606 20.8121 46.8895 20.689C47.1122 20.4781 47.2586 20.4312 47.2235 20.5836ZM46.3915 21.3453C46.5262 21.609 46.5379 21.6617 46.4383 21.6031C46.3973 21.5797 46.3915 21.5855 46.4149 21.6324C46.4383 21.6676 46.4793 21.6851 46.5086 21.6676C46.5321 21.65 46.6024 21.7144 46.661 21.8023C46.7313 21.9137 46.7372 21.9371 46.6786 21.8902C46.6082 21.8316 46.5731 21.8316 46.5204 21.8844C46.4793 21.9254 46.4442 21.9371 46.4442 21.9137C46.4383 21.8902 46.4325 21.8375 46.4266 21.7965C46.4207 21.7613 46.3797 21.732 46.3329 21.7437C46.286 21.7555 46.2625 21.7496 46.286 21.7262C46.3094 21.7027 46.2918 21.6441 46.245 21.5972C46.1805 21.5387 46.1747 21.4801 46.2157 21.3687C46.2508 21.2867 46.2625 21.193 46.2391 21.1637C46.2215 21.1344 46.2215 21.1109 46.2391 21.1109C46.2567 21.1109 46.327 21.2164 46.3915 21.3453ZM47.2938 21.439C47.3114 21.4859 47.3055 21.5094 47.2704 21.4918C47.2352 21.4742 47.2118 21.4332 47.2118 21.398C47.2118 21.316 47.2528 21.3336 47.2938 21.439ZM49.3856 21.7144C49.3563 21.7965 49.2977 21.8785 49.2625 21.9019C49.2332 21.9195 49.245 21.8433 49.3036 21.732C49.4149 21.4976 49.4735 21.4859 49.3856 21.7144ZM42.3309 22.0074C42.5184 22.148 42.8172 22.3472 42.993 22.4586C44.7684 23.5367 44.909 23.6422 45.284 24.1637C45.4247 24.3629 45.7176 24.7496 45.9403 25.0308C46.1571 25.3062 46.4149 25.6519 46.5145 25.7984L46.6961 26.0621L46.4969 25.8277C46.3915 25.6988 46.1981 25.4762 46.0633 25.3297C45.9286 25.1832 45.6649 24.8785 45.4715 24.6441C44.9325 23.9937 43.8954 23.1617 43.743 23.2555C43.7079 23.2789 43.6961 23.273 43.7137 23.2379C43.7665 23.1558 43.4793 22.9683 43.3915 23.0211C43.3563 23.0445 43.3446 23.0387 43.3622 23.0035C43.3856 22.9683 43.1161 22.7398 42.7645 22.4996C42.4188 22.2535 42.0848 21.984 42.0321 21.9019C41.9793 21.8199 41.95 21.7555 41.9676 21.7555C41.9793 21.7555 42.1493 21.8668 42.3309 22.0074ZM45.8407 21.9019C45.8231 21.9547 45.8407 22.0074 45.8875 22.025C45.9286 22.0426 45.9637 22.0894 45.9637 22.1305C45.9637 22.2066 45.7411 22.2066 45.618 22.1305C45.5946 22.1129 45.5711 22.1305 45.5711 22.1597C45.5711 22.1949 45.6004 22.2242 45.6297 22.2242C45.6649 22.2242 45.6883 22.2535 45.6883 22.2945C45.6883 22.3414 45.6532 22.3355 45.5946 22.2711C45.5067 22.1832 45.5125 22.1656 45.6356 21.9957C45.7762 21.8082 45.8993 21.7496 45.8407 21.9019ZM42.0848 22.1656C42.161 22.2887 42.8231 22.6988 42.8875 22.6578C42.9227 22.6344 42.9344 22.6402 42.911 22.6812C42.87 22.7515 43.9832 23.525 44.0594 23.4781C44.0829 23.4605 44.1063 23.4722 44.1063 23.5015C44.1063 23.525 44.1883 23.6129 44.2879 23.6832C44.3934 23.7594 44.452 23.7887 44.4227 23.7418C44.3993 23.7008 44.493 23.7769 44.6336 23.9176C44.7801 24.0582 44.9559 24.2105 45.0321 24.2574C45.1082 24.3101 45.1961 24.4039 45.2313 24.4683C45.2723 24.5562 45.2196 24.5328 45.0379 24.3863C44.7098 24.1285 44.4461 23.9586 43.7489 23.5777C43.4442 23.4078 43.0165 23.1383 42.8055 22.9801C42.4188 22.693 41.8739 22.107 41.9852 22.107C42.0204 22.107 42.0672 22.1363 42.0848 22.1656ZM45.3368 22.5172C45.3368 22.5465 45.325 22.5758 45.3133 22.5758C45.2957 22.5758 45.2665 22.5465 45.2489 22.5172C45.2313 22.482 45.243 22.4586 45.2723 22.4586C45.3075 22.4586 45.3368 22.482 45.3368 22.5172ZM45.2665 22.816C45.5243 23.0855 45.8524 23.6129 45.659 23.4547C45.5594 23.3668 45.5536 23.3726 45.6532 23.566C45.8055 23.859 45.6649 23.7301 45.3192 23.2613C45.1434 23.0269 44.9618 22.8043 44.9032 22.7574C44.827 22.693 44.8211 22.6637 44.8797 22.6285C44.9969 22.5523 45.0145 22.5582 45.2665 22.816ZM45.2137 23.4312C45.4422 23.6715 45.6707 24.0816 45.6122 24.1344C45.577 24.1754 45.1434 23.7066 45.1258 23.6129C45.12 23.5601 45.0555 23.4371 44.9852 23.3375C44.7977 23.0738 44.9383 23.1265 45.2137 23.4312ZM46.0457 23.2613C46.1219 23.3551 46.1161 23.3609 46.0282 23.2847C45.9696 23.2437 45.9227 23.1969 45.9227 23.1851C45.9227 23.1383 45.9696 23.1676 46.0457 23.2613ZM46.2391 23.9351C46.3153 24.0758 46.3973 24.2633 46.4149 24.3629C46.4442 24.5035 46.4325 24.4976 46.3622 24.3101C46.3153 24.1871 46.2215 23.9996 46.1512 23.8883C46.0868 23.7769 46.0457 23.689 46.0633 23.689C46.0809 23.689 46.1571 23.8004 46.2391 23.9351ZM43.7547 24.0347C43.7547 24.064 43.7137 24.0992 43.6668 24.1226C43.6141 24.1402 43.579 24.1226 43.579 24.0699C43.579 24.023 43.62 23.982 43.6668 23.982C43.7137 23.982 43.7547 24.0055 43.7547 24.0347ZM44.0125 24.193C44.0301 24.2398 44.0243 24.2633 43.9891 24.2457C43.954 24.2281 43.9305 24.1871 43.9305 24.1519C43.9305 24.0699 43.9715 24.0875 44.0125 24.193ZM43.1102 24.3805C43.1102 24.4332 43.1864 24.5445 43.2801 24.6265C43.3797 24.7027 43.4442 24.7847 43.4266 24.8082C43.4149 24.8316 43.4559 24.8726 43.5262 24.8902C43.6434 24.9312 43.6434 24.9312 43.5379 25.0543C43.4852 25.1246 43.4735 25.148 43.5204 25.107C43.6258 25.0191 43.7196 25.0133 43.661 25.107C43.6317 25.1539 43.6493 25.1597 43.7313 25.1305C43.7899 25.107 43.8192 25.107 43.7957 25.1305C43.7723 25.1539 43.784 25.2066 43.8192 25.2476C43.8602 25.2945 43.8543 25.3297 43.8075 25.3648C43.7665 25.3883 43.7547 25.3824 43.7782 25.3414C43.7957 25.3062 43.7899 25.2652 43.7547 25.2418C43.7254 25.2242 43.6961 25.2359 43.6961 25.2652C43.6961 25.3004 43.6786 25.3238 43.6551 25.318C43.6082 25.3004 43.4149 25.4293 43.1043 25.6695C43.0106 25.7457 42.9344 25.7867 42.9344 25.7633C42.9344 25.7398 42.8348 25.816 42.7118 25.9332C42.5887 26.0562 42.4657 26.1324 42.4364 26.109C42.4129 26.0797 42.4071 26.0914 42.4247 26.1265C42.4422 26.1617 42.3895 26.2437 42.3016 26.3082C42.2137 26.3726 42.0965 26.5133 42.0379 26.6129L41.9266 26.8004L42.2196 26.5953C42.3778 26.4781 42.5418 26.3433 42.5829 26.2965C42.6239 26.2496 42.6825 26.2262 42.7176 26.2496C42.7469 26.2672 42.7586 26.2555 42.7411 26.2262C42.6942 26.15 42.8348 26.0211 42.9403 26.0445C42.9813 26.0562 43.0165 26.0328 43.0223 25.9918C43.0223 25.9566 43.0926 25.8687 43.1864 25.7984C43.2743 25.7281 43.3329 25.6519 43.3211 25.6285C43.3036 25.6051 43.3797 25.5875 43.4793 25.5933C43.6082 25.5933 43.6668 25.564 43.6668 25.5055C43.6668 25.4586 43.702 25.4176 43.743 25.4176C43.7899 25.4176 43.8543 25.3765 43.8954 25.3238C43.954 25.2359 43.9774 25.2359 44.077 25.3062C44.159 25.3648 44.2059 25.3707 44.2762 25.318C44.5516 25.1246 43.8485 25.7281 43.0926 26.3375C42.618 26.7183 42.243 27.0582 42.2606 27.0816C42.2723 27.1109 42.243 27.1695 42.1844 27.2105C42.0907 27.2867 42.0907 27.2808 42.1727 27.1754C42.2547 27.0582 42.2547 27.0582 42.1317 27.1695C42.0555 27.2281 42.0145 27.3043 42.0321 27.3336C42.0497 27.357 42.0438 27.3746 42.0145 27.3687C41.9442 27.3453 41.411 27.9137 41.118 28.3355C40.8719 28.6812 40.8661 28.693 41.0301 28.5875C41.1297 28.523 41.3407 28.3883 41.4989 28.2945C41.8797 28.0601 42.0555 27.9312 42.9344 27.2633C43.7606 26.6305 43.9891 26.4781 43.9891 26.5543C43.9891 26.6539 42.3485 27.9722 41.534 28.523C40.825 29.0094 40.3446 29.484 39.6883 30.3687C39.618 30.4566 39.8875 30.3043 40.4442 29.941C40.9832 29.5836 42.079 28.693 42.7469 28.066C43.0809 27.7496 43.368 27.4976 43.3915 27.4976C43.4559 27.4976 42.5829 28.359 41.9969 28.8746C41.2469 29.5308 40.4618 30.1109 39.8172 30.4859C39.3661 30.7555 39.2372 30.8668 38.9735 31.2301C38.7977 31.4644 38.5516 31.7398 38.4227 31.8394C38.159 32.0504 38.1473 32.1441 38.4051 31.9683C38.493 31.9039 38.7274 31.7691 38.9207 31.6637C39.4012 31.3941 40.8368 30.3863 41.2528 30.023C41.575 29.7418 41.6454 29.689 41.6454 29.7476C41.6454 29.7594 41.4286 29.9527 41.1649 30.1754C40.4442 30.7847 39.3778 31.5172 38.4227 32.068C37.954 32.3375 37.5145 32.5894 37.45 32.6305C37.3797 32.6715 37.1805 32.9117 37.0047 33.1637C36.6063 33.7262 36.0321 34.3765 35.9149 34.3941C35.8036 34.4058 34.9305 35.273 34.9774 35.3199C34.995 35.3375 35.2293 35.1383 35.493 34.8805C35.7567 34.6226 35.9618 34.4527 35.9383 34.5055C35.9207 34.5582 36.0379 34.4762 36.2079 34.3238C36.4891 34.0719 37.1629 33.6383 37.409 33.5562C37.4676 33.5328 37.3153 33.6558 37.075 33.8199C36.4891 34.2301 36.1434 34.5699 35.3055 35.566C34.9247 36.023 34.5848 36.4156 34.5555 36.4332C34.5262 36.4508 34.4442 36.5504 34.3739 36.6558L34.245 36.8433L34.4149 36.691C34.5086 36.609 34.8309 36.316 35.1356 36.0347C35.4403 35.7535 35.6981 35.5367 35.7157 35.5543C35.7684 35.607 35.2118 36.1519 34.5086 36.7262C33.952 37.1832 33.7997 37.3472 33.5536 37.7398C33.202 38.3199 32.6747 38.859 32.118 39.2281C31.743 39.4742 31.6727 39.5504 31.4559 39.9547C31.1102 40.5875 30.829 40.9039 30.0262 41.5484C29.4989 41.9703 29.2059 42.2574 28.8133 42.7555C28.2625 43.4527 27.5418 44.1734 26.3231 45.2515C25.9071 45.6207 25.3915 46.0836 25.1805 46.2828C24.5243 46.898 24.0321 47.2262 23.0125 47.7418L22.0223 48.2457L21.0965 49.1422C20.1649 50.0445 19.5086 50.6305 18.911 51.1051C18.5008 51.4273 18.7528 51.1871 19.6844 50.3668C20.411 49.7222 21.4715 48.6031 21.2899 48.6676C21.2313 48.691 21.0614 48.7379 20.909 48.7789C20.7625 48.814 20.5926 48.8668 20.5399 48.8961C20.4754 48.9254 20.4344 48.9254 20.4344 48.8961C20.4344 48.8609 20.493 48.8258 20.5633 48.8082C20.6336 48.7847 20.6805 48.7613 20.6629 48.7437C20.6161 48.691 20.3172 48.7906 20.3348 48.8551C20.3407 48.8844 20.2938 48.9195 20.2293 48.9254L20.1122 48.943L20.2293 48.8902C20.3407 48.8433 20.3348 48.8375 20.2 48.814C20.0887 48.7965 20.1415 48.7672 20.4051 48.7086C20.5985 48.6617 20.8211 48.6207 20.9032 48.6207C21.1141 48.609 21.536 48.3746 21.829 48.1051C21.9696 47.982 22.327 47.7652 22.62 47.6246C23.5282 47.2086 24.9344 46.3941 24.87 46.3238C24.8524 46.3121 24.7645 46.3414 24.6707 46.3941C24.5184 46.4879 24.5125 46.4879 24.6239 46.3941C24.6883 46.3414 24.8582 46.2301 25.0047 46.1422C25.3211 45.9605 25.7782 45.6207 26.0594 45.3687C26.3231 45.1285 26.2352 45.1754 25.3856 45.7203C24.9989 45.9722 24.5536 46.2418 24.3895 46.3238C24.2313 46.4058 24.0438 46.5172 23.9793 46.5699C23.9149 46.6226 23.9618 46.6109 24.0848 46.5406C24.4657 46.318 24.3836 46.4527 23.9676 46.7281C23.5282 47.0152 23.0125 47.314 23.2469 47.1441C23.3231 47.0855 23.4579 46.9801 23.5399 46.9097L23.6864 46.7867L23.4989 46.7984C23.3993 46.8101 23.2704 46.8629 23.2176 46.9156C23.159 46.9683 23.077 47.0035 23.0301 46.9859C22.9832 46.9683 22.9598 46.9742 22.9774 47.0035C23.0125 47.0562 22.8661 47.1383 22.7196 47.15C22.6727 47.1558 22.6375 47.1851 22.6434 47.2262C22.6551 47.2672 22.6258 47.2847 22.579 47.2672C22.5321 47.2496 22.4793 47.2613 22.4618 47.2965C22.4383 47.3316 22.3856 47.3433 22.3329 47.3199C22.2801 47.3023 22.2508 47.3199 22.2625 47.3609C22.2743 47.4019 22.2215 47.443 22.1454 47.4547C22.0692 47.4664 21.9637 47.5191 21.9168 47.5719C21.8114 47.6773 21.2196 47.9469 21.0965 47.9469C21.0497 47.9469 21.0321 47.9703 21.0497 48.0055C21.0731 48.0406 21.0438 48.0465 20.9852 48.023C20.9207 47.9996 20.8973 48.0055 20.9207 48.0465C20.95 48.0875 20.9207 48.0992 20.8446 48.0816C20.7801 48.064 20.6922 48.0758 20.6512 48.1051C20.6161 48.1402 20.5047 48.1871 20.4051 48.2105C20.2586 48.2457 20.2469 48.2574 20.3407 48.2926C20.4286 48.3277 20.3993 48.357 20.1649 48.4566C19.6668 48.6676 19.5555 48.6851 19.8016 48.5094C19.9247 48.4273 20.0594 48.3746 20.1063 48.3922C20.1532 48.4097 20.1942 48.3746 20.2118 48.316C20.2293 48.2457 20.4461 48.1168 20.8387 47.9527C21.4481 47.689 22.2743 47.2496 22.3915 47.1207C22.4266 47.0797 22.3622 47.1031 22.245 47.1676C21.9813 47.314 21.0145 47.6363 20.6688 47.689C20.4344 47.7301 20.411 47.7242 20.4813 47.6422C20.575 47.5308 20.7625 47.4547 21.2489 47.3316C21.6707 47.2262 22.2625 46.9449 22.1512 46.9097C22.1102 46.8922 21.8758 46.9273 21.6297 46.9742C20.8036 47.1441 20.8504 47.0445 21.7528 46.7164C22.0457 46.6109 22.4442 46.441 22.6493 46.3355C22.9657 46.1715 23.0008 46.1422 22.8836 46.107C22.6786 46.0543 22.4149 46.066 22.45 46.1246C22.4735 46.1539 22.4266 46.1656 22.3563 46.1422C22.286 46.1246 22.245 46.1363 22.2684 46.1715C22.2918 46.2066 22.2274 46.2183 22.1161 46.2008L21.9286 46.1715L22.1336 46.0953L22.3387 46.0133L22.075 46.0484L21.8114 46.0836L21.9813 45.9019C22.1102 45.7672 22.2391 45.7027 22.4911 45.6558C22.6786 45.6207 23.0243 45.4918 23.2586 45.3746C24.3778 44.818 24.993 44.4605 25.1805 44.2672C25.2918 44.15 25.3387 44.0914 25.286 44.1324C25.2274 44.1734 25.1395 44.1969 25.0926 44.1734C25.0399 44.1558 25.0106 44.1617 25.034 44.191C25.0516 44.2203 24.9813 44.3082 24.8758 44.3785C24.7762 44.4547 24.7118 44.4722 24.7411 44.4254C24.7879 44.3551 24.7762 44.3551 24.6942 44.4195C24.6415 44.4664 24.5418 44.4898 24.4657 44.484C24.3895 44.4722 24.2547 44.5074 24.1551 44.5543C24.0614 44.6012 23.9207 44.6363 23.8446 44.6305C23.7743 44.6246 23.6981 44.648 23.6805 44.6715C23.6629 44.7008 23.6043 44.7242 23.5516 44.7242C23.4637 44.7242 23.4637 44.7125 23.5399 44.6597C23.6043 44.6129 23.5692 44.607 23.3934 44.6363C23.2645 44.6597 23.1415 44.7066 23.118 44.7418C23.0887 44.7887 23.0711 44.7887 23.0711 44.7476C23.0711 44.6539 23.4344 44.3375 23.6278 44.2613C23.745 44.2203 23.7567 44.2027 23.6688 44.2203C23.4872 44.2555 23.5575 44.191 23.7918 44.0914C23.9676 44.0269 23.9676 44.0211 23.8211 44.0387C23.7332 44.0504 23.6747 44.0387 23.6922 44.0094C23.745 43.9273 24.8055 42.814 25.6903 41.9117C26.1532 41.4488 26.5282 41.0504 26.534 41.0328C26.534 40.9918 27.0965 40.5582 27.2723 40.4586C27.4832 40.3414 27.4305 40.2535 27.2196 40.3648C27.1141 40.4176 27.0497 40.441 27.0731 40.4117C27.1024 40.3824 27.2723 40.189 27.454 39.9781C28.286 39.0289 29.8504 37.4234 34.5555 32.6832C36.3778 30.8433 38.8153 28.3707 39.9754 27.1812C42.536 24.5504 43.1102 24.0406 43.1102 24.3805ZM44.7977 24.691C44.868 24.7965 44.8622 24.8023 44.7684 24.7496C44.5106 24.6031 44.4813 24.568 44.6043 24.568C44.6688 24.568 44.7567 24.6207 44.7977 24.691ZM43.6375 25.3531C43.6375 25.3648 43.5907 25.4117 43.5379 25.4527C43.4442 25.5289 43.4383 25.523 43.5145 25.4293C43.5907 25.3355 43.6375 25.3062 43.6375 25.3531ZM44.575 25.5289C44.575 25.5465 44.3641 25.6988 44.1063 25.8805C43.8485 26.0562 43.6375 26.191 43.6375 26.1793C43.6375 26.1441 44.4813 25.5055 44.534 25.5055C44.5575 25.5055 44.575 25.5172 44.575 25.5289ZM47.1239 26.8531C47.3465 27.1051 47.5223 27.3805 47.4872 27.4156C47.4344 27.4742 46.8836 26.7945 46.7899 26.5543L46.6844 26.2965L46.8192 26.4722C46.8895 26.566 47.0301 26.7418 47.1239 26.8531ZM47.6219 26.7008C47.6219 26.7711 47.5926 26.7418 47.5106 26.5601C47.4461 26.4195 47.4461 26.4195 47.5282 26.525C47.5809 26.5894 47.6219 26.6656 47.6219 26.7008ZM24.3309 44.648C24.1551 44.7711 24.0321 44.7418 24.1903 44.6129C24.2665 44.5484 24.3543 44.5133 24.3836 44.5308C24.4129 44.5543 24.3895 44.6012 24.3309 44.648ZM23.3934 44.7242C23.3758 44.7535 23.3114 44.7828 23.2586 44.7769C23.1766 44.7769 23.1825 44.7652 23.2762 44.7242C23.4344 44.6597 23.4344 44.6597 23.3934 44.7242ZM23.8036 44.9C23.786 44.9293 23.7391 44.9586 23.7098 44.9586C23.6747 44.9586 23.6688 44.9293 23.6864 44.9C23.704 44.8648 23.7508 44.8414 23.7801 44.8414C23.8153 44.8414 23.8211 44.8648 23.8036 44.9ZM22.0165 46.3355C22.0165 46.3765 21.8114 46.4527 21.577 46.5055C21.4012 46.5406 21.4012 46.5406 21.6063 46.4234C21.7997 46.318 22.0165 46.2711 22.0165 46.3355ZM23.6864 47.5367C23.6278 47.6012 23.5575 47.6539 23.5223 47.6539C23.493 47.6539 23.5282 47.6012 23.6043 47.5367C23.786 47.3902 23.8211 47.3902 23.6864 47.5367ZM23.3055 47.8472C23.3055 47.859 23.2176 47.941 23.118 48.0406L22.9247 48.2105L23.0946 48.0172C23.2586 47.8414 23.3055 47.8004 23.3055 47.8472ZM20.6688 48.2398C20.6219 48.2691 20.5575 48.2984 20.5223 48.2984C20.493 48.2984 20.5047 48.2691 20.5516 48.2398C20.5985 48.2105 20.6688 48.1812 20.6981 48.1812C20.7332 48.1812 20.7157 48.2105 20.6688 48.2398ZM18.5594 51.3687C18.5594 51.3805 18.5125 51.4273 18.4598 51.4683C18.3661 51.5445 18.3602 51.5387 18.4364 51.4449C18.5125 51.3512 18.5594 51.3219 18.5594 51.3687Z" fill="white"/>
<path d="M43.0576 25.2885C42.9112 25.4526 42.8701 25.5288 42.958 25.4467C43.1104 25.312 43.374 24.978 43.333 24.978C43.3213 24.978 43.1983 25.1186 43.0576 25.2885Z" fill="white"/>
<path d="M42.8584 25.6461C42.7412 25.7516 42.6416 25.8629 42.6416 25.8922C42.6416 25.9156 42.7002 25.8805 42.7764 25.8102C42.8525 25.7398 42.9287 25.693 42.9463 25.7105C42.958 25.7281 43.0049 25.6754 43.04 25.5934C43.0752 25.5113 43.0986 25.4469 43.0928 25.4469C43.0811 25.4469 42.9756 25.5348 42.8584 25.6461Z" fill="white"/>
<path d="M41.5576 26.6655C41.3994 26.8179 41.2119 27.0054 41.1475 27.0815L41.0303 27.2163L41.2412 27.0933C41.3525 27.0288 41.5049 26.9116 41.5693 26.8413C41.6982 26.7007 41.9092 26.3843 41.874 26.3843C41.8623 26.3901 41.7217 26.5132 41.5576 26.6655Z" fill="white"/>
<path d="M39.958 29.1556C39.1787 29.8763 38.7158 30.4037 38.7158 30.5619C38.7158 30.767 39.7002 29.8236 40.3564 28.9916C40.5615 28.7338 40.7666 28.476 40.8135 28.4174C41.0068 28.1947 40.8135 28.3588 39.958 29.1556Z" fill="white"/>
<path d="M40.1104 28.8689C39.9229 29.0389 39.7705 29.2029 39.7705 29.2264C39.7705 29.2791 40.292 28.8103 40.4033 28.658C40.5264 28.4881 40.4678 28.5291 40.1104 28.8689Z" fill="white"/>
<path d="M40.7314 28.8569L40.6201 28.9917L40.7666 28.8745C40.8486 28.8101 40.9248 28.7515 40.9365 28.7456C40.9482 28.7339 40.9365 28.728 40.9014 28.728C40.8721 28.728 40.7959 28.7866 40.7314 28.8569Z" fill="white"/>
<path d="M38.6514 31.148C38.4053 31.2945 38.1416 31.523 38.0127 31.6871C37.96 31.7574 38.0303 31.7281 38.2002 31.6109C38.3525 31.5054 38.4873 31.4234 38.5107 31.4234C38.5459 31.4234 38.0713 31.8511 37.8018 32.0503C37.708 32.1207 37.7959 32.0855 37.9951 31.9683C38.3174 31.7867 38.6338 31.4586 38.8564 31.0836C38.915 30.9898 38.8975 30.9957 38.6514 31.148Z" fill="white"/>
<path d="M36.7177 32.3785C36.5712 32.5191 36.4247 32.6246 36.3837 32.607C36.3427 32.5953 36.2665 32.6656 36.2138 32.7652C36.1435 32.8824 36.079 32.9352 36.0204 32.9117C35.9736 32.8941 35.956 32.9 35.9794 32.9234C36.0029 32.9469 35.9853 33.0055 35.9443 33.0582C35.9091 33.1109 35.9677 33.0816 36.079 32.9938C36.1904 32.9059 36.2782 32.8121 36.2724 32.777C36.2607 32.7418 36.29 32.7301 36.331 32.7477C36.372 32.7594 36.5478 32.6305 36.7236 32.4488C37.0986 32.068 37.0986 32.0211 36.7177 32.3785Z" fill="white"/>
<path d="M36.5771 33.1695C35.5928 33.9664 35.0537 34.4645 34.79 34.8102C34.3974 35.3316 34.4678 35.443 34.9306 35.0387C35.124 34.8688 35.4463 34.6051 35.6396 34.4586C36.0205 34.1656 36.3486 33.8434 36.3076 33.8023C36.2842 33.7731 35.6279 34.3004 34.9541 34.8863C34.7666 35.0504 34.6142 35.1559 34.6142 35.1266C34.6142 35.0387 35.5166 34.2184 36.3428 33.5621C36.624 33.3336 36.876 33.0758 36.9756 32.9117C37.0459 32.7887 37.0224 32.8063 36.5771 33.1695Z" fill="white"/>
<path d="M35.7275 33.1812C35.6806 33.2105 35.6572 33.2516 35.6748 33.2691C35.6982 33.2867 35.7451 33.2633 35.7861 33.2105C35.8681 33.1109 35.8506 33.0992 35.7275 33.1812Z" fill="white"/>
<path d="M34.5381 35.9878C34.3213 36.2105 34.1455 36.4273 34.1455 36.4742C34.1455 36.5503 34.4385 36.2456 34.7959 35.8003C35.0654 35.4722 34.9717 35.5367 34.5381 35.9878Z" fill="white"/>
<path d="M33.4131 36.2397L33.1201 36.5327L33.46 36.2573C33.6416 36.105 33.7939 35.9702 33.7939 35.9585C33.7939 35.894 33.6768 35.9819 33.4131 36.2397Z" fill="white"/>
<path d="M32.786 37.4994C32.2586 38.0033 31.8192 38.431 31.8016 38.4486C31.7137 38.5424 32.2703 38.1146 32.4344 37.9682C32.534 37.8685 32.6219 37.8099 32.6219 37.8392C32.6219 37.9037 33.4422 37.1068 33.6883 36.7963C34.0516 36.3451 33.7059 36.6088 32.786 37.4994Z" fill="white"/>
<path d="M33.2314 37.7046C33.1025 37.8452 32.8682 38.1147 32.7158 38.3081C32.5576 38.5015 32.3232 38.7593 32.1885 38.8882L31.9482 39.1167L32.3115 38.8647C32.6396 38.6421 33.1963 38.0386 33.46 37.6167C33.6123 37.3823 33.501 37.4233 33.2314 37.7046Z" fill="white"/>
<path d="M32.206 38.4373C32.1299 38.531 32.1357 38.5369 32.2295 38.4607C32.3232 38.3845 32.3525 38.3377 32.3056 38.3377C32.2939 38.3377 32.2471 38.3845 32.206 38.4373Z" fill="white"/>
<path d="M32.0068 38.5718C31.9892 38.6011 32.0009 38.6304 32.0302 38.6304C32.0654 38.6304 32.0947 38.6011 32.0947 38.5718C32.0947 38.5366 32.083 38.5132 32.0712 38.5132C32.0537 38.5132 32.0244 38.5366 32.0068 38.5718Z" fill="white"/>
<path d="M31.0869 39.8784C30.9463 39.9839 30.835 40.1128 30.835 40.1655C30.835 40.2417 30.5303 40.6636 30.3193 40.8862C30.1611 41.0503 30.4365 40.6401 30.6123 40.4409C30.7236 40.3179 30.7939 40.2124 30.7646 40.2124C30.6768 40.2124 30.4248 40.5112 30.2725 40.7983C30.1904 40.9448 30.0732 41.1382 30.0146 41.2378L29.8975 41.4136L30.1318 41.2437C30.5068 40.9683 30.7471 40.7339 30.9814 40.3882C31.21 40.0483 31.415 39.6851 31.3682 39.6851C31.3564 39.6851 31.2275 39.7729 31.0869 39.8784Z" fill="white"/>
<path d="M28.5674 42.6323C28.4268 42.7378 28.1162 42.9604 27.8643 43.1304C27.2549 43.5405 25.9014 44.7769 25.4561 45.3394L25.2686 45.5679L25.7959 45.2104C26.0889 45.0171 26.5225 44.7241 26.7627 44.5718C27.2373 44.2612 28.1455 43.3882 28.5967 42.8022C28.7549 42.603 28.8662 42.439 28.8486 42.439C28.8369 42.439 28.708 42.5269 28.5674 42.6323Z" fill="white"/>
<path d="M27.1084 43.0073L26.9678 43.1714L27.1318 43.0308C27.2783 42.896 27.3193 42.8491 27.2725 42.8491C27.2607 42.8491 27.1904 42.9194 27.1084 43.0073Z" fill="white"/>
<path d="M25.4326 43.3824C25.2627 43.4821 25.1221 43.5758 25.1221 43.5875C25.1221 43.6285 25.6963 43.3239 25.7373 43.2594C25.79 43.1774 25.7725 43.1832 25.4326 43.3824Z" fill="white"/>
<path d="M24.8759 43.5877C24.8583 43.6053 24.6767 43.658 24.4775 43.7049C24.2783 43.7518 24.0498 43.8221 23.9619 43.869C23.8154 43.9451 23.8154 43.951 23.9384 43.9862C24.0146 44.0155 24.1962 43.9744 24.413 43.8866C24.6123 43.8045 24.7529 43.7635 24.7412 43.7869C24.7236 43.8162 24.5888 43.8807 24.4482 43.9393C24.3017 43.992 24.1962 44.0506 24.208 44.0682C24.2607 44.1209 24.8876 43.7811 24.8525 43.7225C24.8349 43.6873 24.8642 43.6698 24.9169 43.6815C24.9755 43.6932 25.0341 43.6639 25.0458 43.6229C25.0751 43.5526 24.9404 43.5233 24.8759 43.5877Z" fill="white"/>
<path d="M26.0301 43.8219C25.8543 43.9801 25.8426 44.0035 25.9773 43.9156C26.1414 43.8043 26.3406 43.6051 26.2879 43.6109C26.2762 43.6168 26.159 43.7105 26.0301 43.8219Z" fill="white"/>
<path d="M24.8054 44.8473C24.6179 44.9469 24.4773 45.0406 24.4949 45.0523C24.53 45.0875 24.9168 44.9 25.0925 44.7594C25.2625 44.6305 25.1922 44.648 24.8054 44.8473Z" fill="white"/>
<path d="M23.9502 45.3513C23.7393 45.4685 23.4287 45.6209 23.2588 45.697L22.9424 45.8259L23.1768 45.8494C23.3057 45.8611 23.4053 45.8552 23.3936 45.8377C23.3818 45.8201 23.499 45.7498 23.6455 45.6795C23.8857 45.5681 24.4482 45.1404 24.3604 45.1404C24.3428 45.1345 24.1611 45.2341 23.9502 45.3513Z" fill="white"/>
<path d="M24.6826 45.7788C24.665 45.8081 24.6123 45.8198 24.5654 45.8022C24.4072 45.7378 23.0889 46.3062 22.8193 46.5464C22.6494 46.6987 22.6025 46.769 22.6728 46.7749C22.7256 46.7749 22.7842 46.7515 22.8017 46.728C22.8428 46.6577 23.8564 46.2417 24.0264 46.2241C24.1963 46.2007 24.4834 46.0132 24.4424 45.9487C24.4248 45.9194 24.4482 45.9077 24.4892 45.9253C24.5303 45.9429 24.6299 45.9019 24.7119 45.8374C24.7939 45.7729 24.8291 45.7202 24.7881 45.7202C24.7529 45.7202 24.706 45.7437 24.6826 45.7788Z" fill="white"/>
<path d="M24.9696 46.2183C24.9111 46.2651 24.8876 46.3003 24.9169 46.3003C24.9521 46.3003 25.0282 46.2651 25.0868 46.2183C25.1513 46.1714 25.1747 46.1304 25.1454 46.1304C25.1103 46.1304 25.0341 46.1714 24.9696 46.2183Z" fill="white"/>
<path d="M23.7451 46.3763C23.5224 46.4935 23.1474 46.7572 23.2763 46.7103C23.3876 46.6693 24.0087 46.2943 24.0087 46.2708C24.0087 46.2357 24.0029 46.2415 23.7451 46.3763Z" fill="white"/>
<path d="M22.8369 46.8628C22.7548 46.9097 22.7197 46.9448 22.749 46.9448C22.7841 46.9448 22.872 46.9097 22.9541 46.8628C23.0361 46.8159 23.0771 46.7808 23.0419 46.7808C23.0126 46.7808 22.9189 46.8159 22.8369 46.8628Z" fill="white"/>
<path d="M46.4735 15.9665C46.4207 16.0719 46.3328 16.2243 46.286 16.3063C46.2098 16.4469 46.2098 16.4411 46.3446 16.2946C46.4676 16.1481 46.6493 15.779 46.5907 15.779C46.5789 15.779 46.5262 15.8668 46.4735 15.9665Z" fill="white"/>
<path d="M46.9773 16.863C46.6726 17.2556 46.6375 17.3669 46.8484 17.2497C46.9715 17.1853 47.364 16.5583 47.3113 16.5056C47.2996 16.488 47.1472 16.6521 46.9773 16.863Z" fill="white"/>
<path d="M45.6415 17.9175C45.6649 17.9409 45.6591 18.0112 45.6239 18.0698C45.5478 18.2163 45.3368 18.2104 45.2958 18.064C45.2782 17.9995 45.2489 17.9468 45.2255 17.9468C45.1728 17.9526 44.622 19.1245 44.6571 19.1655C44.6747 19.1831 44.6923 19.1655 44.6923 19.1245C44.6923 19.0835 44.7216 19.0718 44.7509 19.0894C44.786 19.1069 44.8095 19.2007 44.8095 19.3003C44.8095 19.394 44.8329 19.4702 44.8622 19.4702C44.9501 19.4702 45.0556 19.1245 45.0263 18.9312C45.0028 18.7671 45.12 18.2046 45.1962 18.1284C45.2079 18.1167 45.2841 18.1753 45.3661 18.2632C45.4892 18.3921 45.5302 18.4097 45.6298 18.3569C45.7646 18.2866 45.7938 17.9819 45.6767 17.9116C45.6356 17.8882 45.6181 17.8882 45.6415 17.9175Z" fill="white"/>
<path d="M44.0945 18.2808C43.8484 18.562 43.7312 19.0015 43.9012 19.0015C43.9598 19.0015 43.9891 18.9429 43.9891 18.8257C43.9891 18.7261 44.0418 18.5386 44.1062 18.4155C44.2352 18.1577 44.2352 18.1226 44.0945 18.2808Z" fill="white"/>
<path d="M44.5809 19.8044C44.5223 19.9568 44.5223 19.9626 44.6044 19.8571C44.6512 19.7927 44.6923 19.7224 44.6923 19.6931C44.6923 19.6052 44.6512 19.6462 44.5809 19.8044Z" fill="white"/>
<path d="M44.1298 20.8826C44.0184 21.0115 44.0184 21.0115 44.1473 20.9412C44.288 20.8709 44.3759 20.7596 44.2938 20.7596C44.2645 20.7596 44.1942 20.8182 44.1298 20.8826Z" fill="white"/>
<path d="M51.2372 21.7261C51.1376 21.9371 51.1025 22.1011 51.1787 22.025C51.2255 21.9781 51.372 21.5621 51.3486 21.5386C51.3427 21.5269 51.29 21.6148 51.2372 21.7261Z" fill="white"/>
<path d="M40.9071 22.2826C40.8016 22.4818 40.7547 22.6049 40.8016 22.5697C40.9364 22.4584 41.1297 22.1127 41.1063 22.0189C41.0946 21.9721 41.0067 22.0892 40.9071 22.2826Z" fill="white"/>
<path d="M51.1553 22.4761C50.8389 22.7339 50.7861 22.8101 50.9326 22.8101C51.0439 22.8101 51.0439 22.8394 50.9268 23.0151C50.7334 23.3081 49.9658 23.7651 49.9658 23.5835C49.9658 23.5542 50.0361 23.4253 50.1182 23.3022L50.2705 23.0737L50.083 23.2495C49.9014 23.4136 49.7314 23.7183 49.7314 23.8706C49.7314 24.0874 50.6338 23.6421 50.9092 23.2847C50.9736 23.2085 51.0205 23.1733 51.0205 23.2085C51.0205 23.3608 50.8799 23.6187 50.6807 23.8354L50.4639 24.0698L50.6865 23.8647C50.9795 23.6011 51.0557 23.4429 51.1025 23.0151C51.1377 22.7515 51.1904 22.605 51.3193 22.4409C51.4189 22.3237 51.4893 22.2241 51.4775 22.23C51.4658 22.23 51.3252 22.3413 51.1553 22.4761Z" fill="white"/>
<path d="M39.5244 22.8158C39.4014 22.8802 39.3018 22.9447 39.3018 22.9564C39.3018 22.974 39.4014 22.9388 39.5244 22.8802C39.6416 22.8158 39.7822 22.7513 39.8291 22.7337C39.9053 22.7044 39.9053 22.7044 39.8291 22.6986C39.7822 22.6986 39.6416 22.7513 39.5244 22.8158Z" fill="white"/>
<path d="M51.5945 22.9331C51.5418 23.0562 51.5184 23.1616 51.5418 23.1616C51.5887 23.1616 51.7469 22.7573 51.7117 22.7222C51.7059 22.7104 51.6473 22.8042 51.5945 22.9331Z" fill="white"/>
<path d="M40.6668 23.0854C40.7196 23.0972 40.8016 23.0972 40.8426 23.0854C40.8778 23.0679 40.8368 23.0562 40.7371 23.0562C40.6434 23.0562 40.6082 23.0679 40.6668 23.0854Z" fill="white"/>
<path d="M40.7722 23.443C40.6668 23.6364 40.7781 23.695 41.0652 23.6012L41.323 23.5133L41.0652 23.5426C40.8308 23.5719 40.8133 23.5661 40.8426 23.4547C40.8777 23.3083 40.8484 23.3024 40.7722 23.443Z" fill="white"/>
<path d="M51.618 23.7007C51.5243 23.8179 51.3661 24.2281 51.4305 24.1871C51.5067 24.1402 51.7411 23.6832 51.7059 23.6539C51.6942 23.6363 51.6532 23.6597 51.618 23.7007Z" fill="white"/>
<path d="M41.5868 23.7769C41.54 23.8296 41.54 23.8647 41.5751 23.8647C41.6806 23.8647 41.8212 23.7944 41.8212 23.7417C41.8212 23.6597 41.6689 23.6831 41.5868 23.7769Z" fill="white"/>
<path d="M40.5205 24.3979C40.2334 24.6382 40.1748 24.7437 40.3154 24.7437C40.4619 24.7437 40.8838 24.3979 40.8838 24.2749C40.8838 24.1108 40.831 24.1284 40.5205 24.3979Z" fill="white"/>
<path d="M50.3173 24.3042C50.2763 24.351 50.165 24.4038 50.0595 24.4213C49.8427 24.4624 49.7079 24.5561 49.6552 24.6967C49.6083 24.8198 49.6025 24.8198 49.8544 24.7378C50.0654 24.6616 50.2939 24.4858 50.3818 24.3159C50.4521 24.1928 50.4169 24.187 50.3173 24.3042Z" fill="white"/>
<path d="M40.6786 24.8021C40.5029 24.9838 40.5146 25.0248 40.7079 24.9193C40.831 24.8549 40.9775 24.6264 40.8954 24.6264C40.872 24.6264 40.7724 24.7025 40.6786 24.8021Z" fill="white"/>
<path d="M39.6298 25.189C39.4775 25.3003 39.3662 25.3882 39.3896 25.3882C39.4482 25.3882 39.9404 25.0894 39.9814 25.0308C40.04 24.9312 39.9169 24.9897 39.6298 25.189Z" fill="white"/>
<path d="M38.5282 25.5993C38.2996 25.7224 38.3231 25.7634 38.5574 25.6462C38.7742 25.5349 38.8153 25.5056 38.7391 25.5056C38.7098 25.5114 38.616 25.5525 38.5282 25.5993Z" fill="white"/>
<path d="M39.2665 25.6869C39.2079 25.7572 39.0497 25.8627 38.9208 25.9212C38.7099 26.015 38.704 26.0267 38.8388 26.0267C39.0028 26.0326 39.2665 25.8568 39.3603 25.6752C39.4423 25.5287 39.4071 25.5345 39.2665 25.6869Z" fill="white"/>
<path d="M38.1768 26.3084C38.1182 26.3201 38.0713 26.3611 38.0713 26.3904C38.0713 26.4256 38.1182 26.4197 38.1885 26.3846C38.2529 26.3494 38.3057 26.3084 38.3057 26.2967C38.3057 26.2791 38.2998 26.2733 38.2939 26.2733C38.2822 26.2791 38.2295 26.2908 38.1768 26.3084Z" fill="white"/>
<path d="M45.7176 26.3258C45.6707 26.402 45.7117 26.4664 45.7996 26.4371C45.8348 26.4195 45.8407 26.3785 45.8114 26.3317C45.7762 26.2731 45.7528 26.2731 45.7176 26.3258Z" fill="white"/>
<path d="M37.1043 26.6187C37.0867 26.6479 37.0926 26.6772 37.1278 26.6772C37.1571 26.6772 37.2039 26.6479 37.2215 26.6187C37.2391 26.5835 37.2332 26.5601 37.1981 26.5601C37.1688 26.5601 37.1219 26.5835 37.1043 26.6187Z" fill="white"/>
<path d="M45.9871 26.7769C45.9812 26.812 45.9637 26.894 45.9461 26.9526C45.9168 27.0522 45.9168 27.0522 45.9812 26.9526C46.0164 26.894 46.034 26.8179 46.0164 26.7769C45.9988 26.7241 45.9871 26.7241 45.9871 26.7769Z" fill="white"/>
<path d="M45.7588 27.398C45.7178 27.4918 45.6885 27.6207 45.6944 27.691C45.6944 27.7965 45.7119 27.7848 45.7822 27.6207C45.8291 27.5152 45.8584 27.3805 45.8467 27.3277C45.8291 27.2574 45.8057 27.2808 45.7588 27.398Z" fill="white"/>
<path d="M37.8076 28.0777C37.79 28.107 37.6787 28.1656 37.5557 28.2066C37.3272 28.2828 36.7002 28.6812 36.6299 28.7926C36.6065 28.8336 36.7061 28.7809 36.8467 28.6871C36.9873 28.5875 37.2803 28.4293 37.5029 28.3297C37.7197 28.2301 37.8955 28.1187 37.8955 28.0894C37.8955 28.0133 37.8545 28.0074 37.8076 28.0777Z" fill="white"/>
<path d="M45.4951 28.3589C45.4717 28.3765 45.4541 28.4234 45.4541 28.4585C45.4541 28.4937 45.4775 28.4878 45.5068 28.4468C45.5771 28.3355 45.7061 28.6812 45.6768 28.898C45.665 28.9976 45.6709 29.0621 45.7002 29.0445C45.7764 28.9976 45.7529 28.6753 45.6592 28.4937C45.5596 28.3062 45.5537 28.3003 45.4951 28.3589Z" fill="white"/>
<path d="M45.1025 28.7224C45.1025 28.7517 45.0087 28.8924 44.8915 29.033C44.5283 29.4607 44.458 29.7009 44.5341 30.1873C44.5986 30.6209 44.6279 30.6619 44.7509 30.5154C44.8037 30.4509 44.8095 30.2927 44.7802 29.9295C44.7451 29.4607 44.7509 29.4138 44.8974 29.1677C45.0615 28.8865 45.0966 28.8631 45.208 28.9744C45.2665 29.0271 45.3017 29.0213 45.3837 28.9392C45.4775 28.8396 45.4775 28.8338 45.3662 28.8689C45.3017 28.8865 45.208 28.8748 45.1611 28.8455C45.1025 28.8103 45.0966 28.7869 45.1494 28.7869C45.1845 28.7869 45.2197 28.7576 45.2197 28.7283C45.2197 28.6931 45.1962 28.6697 45.1611 28.6697C45.1318 28.6697 45.1025 28.6931 45.1025 28.7224Z" fill="white"/>
<path d="M35.1943 29.4138C35.1181 29.5076 35.124 29.5134 35.2178 29.4373C35.2705 29.3963 35.3174 29.3494 35.3174 29.3377C35.3174 29.2908 35.2705 29.3201 35.1943 29.4138Z" fill="white"/>
<path d="M36.0439 29.6948C35.9853 29.7417 35.9618 29.7769 35.9911 29.7827C36.079 29.7827 36.2255 29.6772 36.1903 29.6421C36.1728 29.6245 36.1083 29.6479 36.0439 29.6948Z" fill="white"/>
<path d="M43.7137 30.3218C43.6434 30.4097 43.5731 30.603 43.6082 30.603C43.6199 30.603 43.6668 30.521 43.7196 30.4272C43.8074 30.2397 43.8074 30.2046 43.7137 30.3218Z" fill="white"/>
<path d="M44.1415 30.4099C44.0536 30.5739 44.0477 30.5739 44.0126 30.4392C43.995 30.3688 43.9481 30.3103 43.9188 30.3103C43.8895 30.3103 43.8837 30.3688 43.9012 30.4392C43.9891 30.7263 44.1122 30.7204 44.2118 30.4274C44.2938 30.2106 44.2528 30.1989 44.1415 30.4099Z" fill="white"/>
<path d="M43.5791 31.3119C43.5791 31.3763 43.6084 31.4115 43.6377 31.3939C43.6729 31.3763 43.6963 31.3178 43.6963 31.2709C43.6963 31.224 43.6729 31.1888 43.6377 31.1888C43.6084 31.1888 43.5791 31.2416 43.5791 31.3119Z" fill="white"/>
<path d="M36.5068 38.0621C36.2725 38.355 35.8096 38.9058 35.4697 39.275C35.1299 39.6441 34.8486 39.9664 34.8486 39.9898C34.8486 40.0953 35.0771 40.025 35.3115 39.855C35.5166 39.7027 36.3018 38.6011 36.9229 37.5875C37.0342 37.4 36.8936 37.564 36.5068 38.0621Z" fill="white"/>
<path d="M23.001 40.107C22.9072 40.1715 22.8369 40.2535 22.8369 40.2887C22.8369 40.3297 22.7432 40.5055 22.6318 40.6812C22.5205 40.857 22.4268 41.0152 22.4268 41.0328C22.4268 41.109 22.9482 40.5641 23.1064 40.3297C23.2939 40.0484 23.2354 39.9312 23.001 40.107Z" fill="white"/>
<path d="M30.9639 43.3882C30.624 43.8511 30.1436 44.4546 29.8975 44.7358C29.5283 45.1577 29.4229 45.2456 29.3174 45.2163C29.165 45.1812 29.042 45.3042 28.79 45.7495C28.6904 45.9253 28.1748 46.5874 27.6475 47.2261L26.6865 48.3862L27.6709 47.3726C28.21 46.8159 28.8486 46.2007 29.0771 46.0132C29.4287 45.7261 29.6162 45.4917 30.208 44.6245C30.5947 44.0503 31.0752 43.353 31.2686 43.0659C31.4678 42.7847 31.6143 42.5562 31.6025 42.5562C31.5908 42.5562 31.3037 42.9312 30.9639 43.3882Z" fill="white"/>
<path d="M19.3154 45.0581C18.2431 46.4995 17.9326 46.9155 17.7685 47.1675C17.5869 47.4487 17.5049 47.4839 17.5049 47.2847C17.5049 47.1147 17.7041 46.7925 17.9384 46.5757C18.167 46.3706 17.9795 46.4937 17.6045 46.7925C17.2529 47.0796 17.0009 47.5308 17.2412 47.4429C17.3408 47.4019 17.3642 47.5659 17.2705 47.6245C17.1767 47.6831 17.2646 47.771 17.4111 47.771C17.5927 47.771 17.9267 47.5425 18.3427 47.1382C18.5947 46.8862 18.6767 46.769 18.6767 46.6401C18.6767 46.4351 19.1338 45.5327 19.6084 44.7944C19.8017 44.5015 19.9482 44.2554 19.9365 44.2554C19.9248 44.2554 19.6435 44.6187 19.3154 45.0581Z" fill="white"/>
<path d="M15.9872 49.0542C15.8583 49.1831 15.829 49.2944 15.9169 49.2944C15.9813 49.2944 16.1747 49.0015 16.1395 48.9604C16.1219 48.9487 16.0516 48.9897 15.9872 49.0542Z" fill="white"/>
<path d="M16.8896 49.2888C16.7255 49.3825 16.5556 49.5056 16.5087 49.5583C16.4677 49.611 16.5673 49.5642 16.7314 49.4587C16.8896 49.3532 17.0771 49.236 17.1357 49.195C17.3408 49.0603 17.1767 49.1247 16.8896 49.2888Z" fill="white"/>
<path d="M16.2685 49.7459C16.1924 49.8396 16.1982 49.8455 16.292 49.7693C16.3447 49.7283 16.3916 49.6814 16.3916 49.6697C16.3916 49.6228 16.3447 49.6521 16.2685 49.7459Z" fill="white"/>
<path d="M13.4795 52.3179C12.6943 53.0796 12.0557 53.6714 12.0557 53.6362C12.0557 53.6069 12.0791 53.5659 12.1084 53.5483C12.1846 53.4956 12.4131 53.103 12.3603 53.103C12.3369 53.103 12.1963 53.2085 12.0557 53.3374C11.915 53.4663 11.7744 53.5776 11.7393 53.5894C11.6572 53.6187 11.8916 53.9175 11.9971 53.9233C12.0439 53.9233 12.3603 53.6304 12.7002 53.2671C13.04 52.9097 13.6846 52.2358 14.1357 51.7729C14.581 51.3101 14.9385 50.9351 14.9268 50.9351C14.9092 50.9351 14.2588 51.5562 13.4795 52.3179Z" fill="white"/>
<path d="M24.284 51.3571C23.9207 51.8434 23.7449 52.1598 23.6922 52.4587C23.6629 52.611 23.7039 52.5583 23.8504 52.2477C23.9617 52.0192 24.1903 51.6325 24.3543 51.3864C24.5184 51.1344 24.6473 50.9352 24.6297 50.9352C24.618 50.9352 24.4598 51.1286 24.284 51.3571Z" fill="white"/>
<path d="M13.1981 51.8608C12.8759 52.1714 12.3427 52.6753 12.0087 52.9741C11.4579 53.478 11.329 53.6304 11.4579 53.6304C11.4872 53.6304 11.8622 53.2788 12.2958 52.8511C13.1747 51.9897 13.8544 51.2866 13.8134 51.2866C13.7958 51.2866 13.5204 51.5444 13.1981 51.8608Z" fill="white"/>
<path d="M24.4657 51.814C24.3836 51.9604 24.1903 52.1948 24.0438 52.3413C23.7801 52.5933 23.704 52.7515 23.8504 52.7515C23.8856 52.7456 24.1551 52.5229 24.4422 52.2476C24.8407 51.8667 24.9344 51.7554 24.8172 51.7847C24.6883 51.8198 24.659 51.8022 24.6415 51.6851C24.6239 51.5679 24.6063 51.5796 24.4657 51.814Z" fill="white"/>
<path d="M22.4207 54.3279C22.3445 54.3923 22.2976 54.4568 22.3152 54.4744C22.3328 54.4919 22.409 54.4451 22.4851 54.363C22.6492 54.1872 22.614 54.1697 22.4207 54.3279Z" fill="white"/>
</svg>
