<svg width="368" height="365" viewBox="0 0 368 365" fill="none" xmlns="http://www.w3.org/2000/svg">
<path d="M272.19 0.702881C271.16 1.34442 269.835 3.0285 269.246 4.39182C268.437 6.39667 267.995 6.71744 266.302 6.39667C264.094 5.9155 260.93 8.16095 260.194 10.7272C259.531 12.8924 254.821 12.0103 252.686 9.28366C251.214 7.35901 250.92 7.27881 249.154 8.32132C248.05 8.96289 246.872 10.0856 246.504 10.8875C245.768 12.4112 241.426 12.9726 241.426 11.5291C241.426 10.246 238.776 10.5668 237.083 12.0905C236.2 12.8924 235.464 14.4963 235.39 15.6992C235.243 17.7041 234.949 17.9446 232.446 17.9446C230.974 17.9446 228.84 17.5437 227.736 17.1427C226.411 16.5813 225.528 16.5813 224.866 17.1427C224.13 17.7842 222.51 17.6239 218.978 16.5813C215.15 15.4586 213.899 14.7369 213.384 13.3736C212.648 11.2083 212.648 11.2083 210.219 12.4112C208.453 13.2934 206.098 18.105 206.098 20.7514C206.098 22.2751 204.184 22.3553 203.374 20.9118C202.712 19.6287 199.474 18.5862 199.474 19.6287C199.474 20.8316 198.075 20.4307 196.53 18.7466C194.616 16.6615 193.88 16.7417 191.819 18.9872C190.421 20.5109 189.758 20.7514 188.36 20.1099C187.403 19.7089 184.606 19.308 182.251 19.2278L177.835 19.1476V16.3408C177.762 14.0151 177.467 13.4538 176.069 13.2934C175.112 13.133 173.566 13.6142 172.536 14.3359C170.254 15.9398 163.41 15.218 163.41 13.2934C163.41 12.4112 162.894 12.2509 161.128 12.6518C159.288 13.0528 158.258 12.732 156.344 11.1281C154.43 9.52423 153.106 9.12326 149.72 9.12326C146.702 9.12326 145.304 8.72229 144.642 7.84018C143.832 6.63727 143.611 6.63727 141.477 7.84018C140.152 8.56192 138.606 10.0054 138.018 11.0479C137.208 12.4112 136.398 12.8122 135.074 12.4914C134.043 12.3311 133.234 11.6895 133.234 11.1281C133.234 9.60443 130.731 7.51938 128.744 7.51938C127.714 7.51938 126.168 8.08075 125.285 8.80249C123.739 9.92523 123.592 9.84503 121.973 7.84018L120.28 5.67493L118.661 7.51938C117.778 8.56192 117.042 9.04309 117.042 8.56192C117.042 8.08075 116.379 7.51938 115.496 7.27881C114.686 7.03824 113.803 6.0759 113.582 5.19376C113.067 3.0285 111.742 2.62753 107.768 3.42947C104.235 4.15125 101.586 3.83044 101.586 2.62753C101.586 1.50482 99.8929 1.82559 96.8017 3.50967C93.3425 5.43433 91.9441 8.24115 94.2257 8.88269C96.4337 9.52423 95.9921 11.9301 93.0481 15.5388C90.5457 18.506 88.3377 19.7089 88.3377 18.0248C88.3377 15.5388 76.2673 14.4963 73.2497 16.6615C72.0721 17.5437 70.6001 17.8644 69.5697 17.6239C68.4657 17.3031 67.5089 17.7041 66.6257 18.7466C65.5217 20.1099 64.7121 20.2703 61.6945 19.8693C58.8977 19.4683 57.7937 19.6287 56.7633 20.6712C55.7329 21.7138 54.6289 21.8742 51.2433 21.4732C47.7841 20.992 46.6801 20.4307 44.4721 18.0248C41.9697 15.1378 41.8961 15.1378 39.8353 16.421C38.5105 17.3031 37.3329 17.4635 36.7441 17.0625C35.1985 16.02 33.8737 16.1804 33.8737 17.3833C33.8737 19.6287 30.3409 22.1949 26.9553 22.3553C22.5393 22.5157 21.1409 23.879 21.7297 27.3274C22.0241 29.3322 21.8769 29.9738 21.1409 29.9738C20.5521 29.9738 19.8897 31.0163 19.5953 32.3796C19.3009 34.1439 18.7857 34.7854 17.6081 34.7854C16.7985 34.7854 15.4737 35.5874 14.6641 36.5497C13.1921 38.5546 12.8241 41.201 14.0753 41.201C14.5905 41.201 14.8113 42.6445 14.5905 45.2107C14.5169 47.4561 14.6641 49.2204 14.9585 49.2204C15.2529 49.2204 15.3265 50.5035 15.0321 52.0272C14.5905 54.5132 14.8113 54.9142 16.8721 56.1973C18.4913 57.2398 19.1537 58.2021 19.1537 59.7259C19.1537 63.7356 15.6209 68.7878 13.5601 67.9057C12.9713 67.6651 12.2353 69.1086 11.4993 71.755C9.95366 77.2884 10.0273 78.0101 11.9409 80.2556C13.5601 82.1001 13.5601 82.2604 12.3825 84.5059L11.1313 86.9117L14.4433 90.6006C16.9457 93.4876 17.6817 94.9311 17.6817 97.0162C17.6817 98.5399 17.9761 99.7428 18.3441 99.7428C18.6385 99.7428 19.8161 100.465 20.9201 101.427C22.7601 103.031 22.7601 103.111 21.6561 105.597C20.6993 107.522 20.6257 108.404 21.2881 109.526C21.7297 110.328 21.9505 111.852 21.6561 112.975C21.2881 114.659 21.4353 114.98 22.7601 114.98C24.9681 114.98 24.9681 119.39 22.7601 120.032C21.5825 120.353 21.2881 120.914 21.6561 121.957C22.3185 123.721 22.3185 123.56 22.1713 126.768C22.0977 128.533 21.7297 129.415 20.9937 129.415C20.4049 129.415 19.8897 129.735 19.8897 130.217C19.8897 130.618 19.2273 131.019 18.4177 131.019C16.2833 131.019 13.2657 132.703 13.2657 133.986C13.2657 134.547 13.6337 135.028 14.0017 135.028C14.4433 135.028 14.7377 135.349 14.7377 135.83C14.7377 136.231 14.2961 136.632 13.7073 136.632C13.1921 136.632 11.9409 137.915 10.9841 139.439C10.0273 140.963 8.92326 142.246 8.55526 142.246C8.11366 142.246 6.78886 143.048 5.46406 144.01C3.62406 145.373 2.96166 146.576 2.59366 149.223C2.37286 151.147 1.63686 153.152 1.04806 153.794C-0.718336 155.799 -0.203136 158.846 2.22566 160.851C4.50726 162.695 5.02246 164.54 3.62406 166.063C2.96166 166.785 2.96166 167.667 3.69766 169.432C4.21286 170.795 4.87526 171.918 5.24326 171.918C5.61126 171.918 5.90566 172.88 5.90566 174.083C5.90566 175.286 6.56806 177.05 7.45126 178.012C8.33446 179.055 9.14406 181.461 9.51206 184.107C9.80646 186.433 10.3217 188.839 10.6161 189.4C10.9105 189.961 10.6897 191.325 9.95366 192.447C9.07046 193.971 8.99686 194.773 9.58566 195.575C10.1745 196.377 9.73286 197.5 7.74566 200.306C4.87526 204.476 4.58086 205.599 6.49446 205.599C8.48166 205.679 10.7633 208.246 12.5297 212.336C14.0753 215.784 14.0753 216.185 12.9713 217.548C11.8673 218.831 11.8673 219.072 13.2657 220.435C14.0753 221.237 14.7377 222.36 14.7377 223.001C14.7377 223.723 15.1793 223.964 16.1361 223.643C17.3137 223.242 17.5345 223.803 17.9025 227.733C18.1969 231.021 18.8593 232.865 20.1105 234.389C21.9505 236.554 23.3489 242.489 21.9505 242.489C21.5089 242.489 21.2881 244.173 21.4353 246.659C21.5825 249.064 21.2881 251.711 20.6993 252.753C20.1841 253.796 19.9633 255.159 20.1841 255.881C20.4785 256.683 19.8897 257.324 18.4177 257.966C17.2401 258.447 16.2097 259.089 16.2097 259.41C16.2097 260.372 20.6993 264.141 21.8033 264.141C23.4225 264.141 22.9809 265.264 20.6257 267.188C18.7857 268.712 18.5649 269.354 18.9329 271.358C19.1537 272.722 18.9329 274.245 18.4913 274.887C17.9025 275.609 17.9025 276.571 18.3441 278.095C18.9329 279.699 19.7425 280.26 22.0977 280.661C24.4529 281.062 25.0417 281.543 25.0417 282.906C25.0417 285.232 26.1457 287.077 26.8081 285.874C27.5441 284.591 29.1633 284.751 30.5617 286.275C31.3713 287.237 31.5185 287.879 30.9297 288.6C30.3409 289.322 30.4145 289.964 31.2241 290.846C31.8129 291.487 32.1809 292.69 31.9601 293.492C31.4449 295.898 32.6961 297.341 34.9041 296.7C36.1553 296.379 36.8177 295.657 36.8177 294.615C36.8177 292.369 39.4673 292.53 40.6449 294.775C41.1601 295.818 41.4545 297.341 41.3073 298.143C41.1601 299.346 41.4545 299.587 42.7057 299.186C45.2081 298.464 46.4593 299.346 45.9441 301.431C45.5761 303.035 45.7969 303.196 47.3425 302.875C48.2993 302.634 49.5505 303.035 50.1393 303.597C51.8321 305.441 57.7201 308.248 59.9281 308.248C61.4737 308.248 62.1361 308.809 62.7985 310.573C63.4609 312.578 64.0497 312.979 66.9201 313.3C69.7905 313.701 70.8209 313.38 73.6913 311.375C75.5313 310.092 77.8129 308.168 78.7697 307.045C79.7265 305.922 81.0513 305.04 81.7873 305.04C83.1857 305.04 86.1297 309.932 86.1297 312.338C86.1297 313.14 86.6449 313.861 87.2337 313.861C87.8225 313.861 88.3377 313.3 88.3377 312.659C88.3377 311.215 89.5153 311.055 90.2513 312.418C90.5457 312.899 90.3985 313.541 89.9569 313.701C88.6321 314.182 88.9265 315.225 90.4721 315.706C92.9009 316.347 93.6369 315.305 92.6801 312.418C91.5761 308.97 92.9009 305.04 94.9617 305.601C96.5809 306.083 97.6113 304.399 96.5073 303.196C94.5201 301.03 96.4337 300.309 99.6721 301.913C100.702 302.474 101.806 303.837 102.248 305.12C102.763 306.804 103.573 307.446 105.486 307.847C106.958 308.168 108.798 308.168 109.682 307.847C110.712 307.526 111.742 307.767 112.699 308.729C114.024 310.012 114.171 310.012 115.57 308.649C116.379 307.847 118.293 307.045 119.838 306.885C123.445 306.484 124.843 304.96 123.739 302.795C122.782 300.87 121.31 301.111 118.734 303.677C116.968 305.441 115.79 304.96 114.76 302.073C114.392 301.03 113.73 300.389 113.288 300.629C112.846 300.95 112.699 301.672 112.92 302.233C113.288 303.436 111.154 305.842 109.755 305.842C108.651 305.842 109.314 301.832 110.418 301.03C110.786 300.79 111.522 299.186 112.037 297.422C112.846 294.695 113.362 294.214 115.349 293.973C116.968 293.813 118.146 294.214 119.176 295.337C120.059 296.299 121.016 297.021 121.384 297.021C121.752 297.021 122.194 297.582 122.488 298.224C123.003 299.908 125.653 299.747 126.61 297.983C127.272 296.7 127.419 296.78 128.818 298.544C129.922 299.908 130.731 300.309 132.13 299.908C134.338 299.266 134.411 299.908 132.571 302.634C131.173 304.479 131.099 304.559 129.701 303.196C127.125 300.629 124.328 301.913 125.874 304.96C126.389 306.002 126.389 306.724 125.874 307.045C124.254 308.087 125.285 309.852 128.082 310.734C130.069 311.375 131.026 312.177 131.026 313.14C131.026 315.064 132.203 315.706 133.896 314.663C134.853 314.102 135.221 313.38 134.926 312.418C134.558 311.375 134.706 311.295 135.442 312.017C136.472 313.06 138.386 312.498 139.563 310.814C140.152 309.932 140.52 309.852 140.888 310.493C141.624 311.857 144.274 311.696 144.715 310.253C145.378 308.408 146.261 308.809 147.144 311.536C147.586 313.06 148.248 313.781 148.763 313.46C149.352 312.979 149.278 312.659 148.616 312.097C147.806 311.456 147.806 311.215 148.542 310.894C149.058 310.734 149.941 310.012 150.456 309.371C151.045 308.729 152.002 308.248 152.517 308.248C153.106 308.248 153.915 307.847 154.283 307.446C155.166 306.484 157.522 307.205 157.522 308.328C157.522 308.729 158.184 309.05 158.92 309.05C159.656 309.05 160.466 309.531 160.686 310.173C161.128 311.375 168.12 311.536 169.886 310.413C171.211 309.451 170.99 307.686 169.224 305.922C167.752 304.399 167.752 304.399 169.15 303.356C169.886 302.714 171.138 301.03 171.8 299.587C173.272 296.539 174.45 295.818 177.026 296.539C178.203 296.86 178.645 297.422 178.424 298.224C177.614 300.389 178.939 301.111 180.264 299.346C181.442 297.662 181.736 297.662 183.87 298.705C185.195 299.346 186.226 300.148 186.226 300.549C186.226 300.87 186.741 301.03 187.33 300.71C187.992 300.469 188.728 300.95 189.17 301.832C189.906 303.356 190.053 303.356 191.746 302.153C193.954 300.549 199.842 301.271 199.179 303.115C198.958 303.677 199.106 304.399 199.474 304.639C199.842 304.88 199.474 306.323 198.664 307.847C197.781 309.371 197.413 310.654 197.854 310.654C198.222 310.654 198.811 311.536 199.032 312.578C199.621 315.145 203.301 316.829 205.73 315.626C206.76 315.064 207.57 314.343 207.57 313.861C207.57 313.3 208.158 313.14 209.042 313.46C210.072 313.781 210.514 313.621 210.514 312.819C210.514 312.097 210.219 311.456 209.925 311.295C208.968 310.974 208.158 306.644 208.968 306.644C210.808 306.644 211.986 307.847 211.986 309.772C211.986 311.295 212.795 312.498 214.93 314.102C217.653 316.187 218.094 316.267 220.45 315.465C223.909 314.182 225.528 311.456 224.939 307.847C224.424 305.2 225.381 301.832 226.558 301.832C226.926 301.832 227.883 303.436 228.766 305.441C229.65 307.446 230.827 309.05 231.416 309.05C233.035 309.05 233.55 312.979 232.226 315.145C231.269 316.829 230.68 317.069 228.693 316.668C225.454 315.946 222.805 318.272 223.762 320.838C224.645 323.244 226.485 323.164 228.325 320.598C229.429 319.154 230.091 318.833 230.606 319.395C231.048 319.876 232.152 320.277 233.109 320.277C234.139 320.277 234.802 320.758 234.802 321.48C234.802 322.121 235.317 322.683 235.979 322.683C236.642 322.683 237.598 323.244 238.04 323.966C239.07 325.49 241.573 324.607 241.278 322.763C241.131 321.881 240.248 321.48 238.629 321.4C236.126 321.4 234.139 320.036 235.39 319.154C236.2 318.593 235.611 314.663 234.728 314.663C233.403 314.663 234.139 312.498 236.2 310.333C238.04 308.408 238.261 307.767 237.746 306.163C237.157 304.559 237.304 304.238 238.334 304.238C240.469 304.238 241.499 305.521 241.278 307.847C240.984 310.493 242.53 311.456 243.266 309.13C243.707 307.526 245.474 306.885 246.062 308.087C246.21 308.408 246.578 309.611 246.872 310.814C247.314 312.739 247.093 313.06 245.694 313.06C244.738 313.06 243.56 313.38 243.045 313.781C242.235 314.343 242.309 314.583 243.266 314.984C243.928 315.225 245.253 315.465 246.21 315.465C247.24 315.465 248.05 316.027 248.27 316.989C248.491 318.112 249.522 318.673 252.318 319.074C254.821 319.395 256.514 320.197 257.691 321.56C259.31 323.405 259.31 323.485 260.341 321.881C260.93 320.999 261.886 320.277 262.475 320.277C263.138 320.277 263.506 319.395 263.506 317.47C263.506 315.546 263.874 314.663 264.61 314.663C265.198 314.663 265.714 315.385 265.714 316.267C265.714 317.149 266.229 317.871 266.818 317.871C267.406 317.871 267.922 317.23 267.922 316.428C267.922 315.706 268.952 314.423 270.203 313.701C272.19 312.418 272.632 312.418 274.546 313.46C275.87 314.182 276.827 314.343 277.122 313.861C277.416 313.38 278.814 313.3 280.507 313.541C283.378 314.102 283.378 314.022 283.378 311.375C283.378 307.767 285.954 306.243 289.045 308.007C290.885 309.05 291.474 309.05 294.565 307.847C296.478 307.125 298.392 306.724 298.907 307.045C299.496 307.446 299.57 306.965 299.202 305.12C298.466 301.431 299.938 302.073 301.483 306.163C302.219 308.087 303.102 309.531 303.397 309.371C303.691 309.13 303.765 308.488 303.47 307.847C303.25 307.125 303.544 306.644 304.206 306.644C304.795 306.644 305.458 306.083 305.752 305.441C305.973 304.799 306.635 304.238 307.224 304.238C307.813 304.238 308.622 303.677 308.99 303.035C309.506 301.913 309.874 301.993 311.493 303.436C313.038 304.719 313.774 304.88 315.394 304.238C318.043 303.115 318.043 303.196 317.528 305.521C317.086 307.286 317.234 307.526 318.411 307.286C319.294 307.125 319.736 306.484 319.589 305.441C319.368 304.078 319.442 304.078 320.546 305.04C321.502 305.922 322.091 305.922 323.195 305.2C324.152 304.559 325.918 304.399 328.274 304.719C331.365 305.2 331.954 305.521 331.954 306.965C331.954 308.328 332.101 308.408 332.69 307.446C333.058 306.804 333.426 305.441 333.426 304.399C333.426 302.875 333.646 302.714 334.824 303.436C337.032 304.719 337.842 304.399 337.842 302.394C337.842 301.351 338.136 300.228 338.504 299.827C338.872 299.346 339.314 298.143 339.461 297.101C339.534 295.978 340.123 294.936 340.712 294.775C341.448 294.535 341.595 294.775 341.301 295.738C341.006 296.459 341.154 297.021 341.448 297.021C341.816 297.021 342.258 296.459 342.552 295.818C342.773 295.176 343.435 294.615 344.024 294.615C345.57 294.615 346.894 288.6 346.379 284.109C346.011 281.383 346.158 280.18 346.968 279.458C347.557 278.897 347.851 277.934 347.704 277.373C347.483 276.732 348.146 274.165 349.102 271.599C350.133 269.033 351.163 265.985 351.384 264.783C351.678 263.499 352.341 262.537 353.003 262.537C353.592 262.537 354.77 261.334 355.506 259.891C356.315 258.367 357.787 256.763 358.818 256.282C360.29 255.56 360.658 254.758 360.658 252.272C360.658 250.588 361.026 248.824 361.467 248.343C362.718 246.979 361.909 243.772 360.142 242.89C358.008 241.847 358.008 241.205 360.29 239.602C362.424 238.078 362.718 234.95 360.952 232.143C359.995 230.7 359.922 229.898 360.584 228.374C361.246 226.69 361.173 226.289 360.069 225.969C357.198 225.006 356.61 224.204 356.83 221.638C356.904 220.195 356.61 218.51 356.168 217.949C355.506 217.067 355.579 216.425 356.61 215.223C357.714 213.859 357.787 213.298 357.125 211.534C356.61 210.411 355.285 209.128 354.107 208.727C351.531 207.764 350.574 204.316 352.341 202.231C353.445 200.868 353.077 197.58 351.752 197.58C350.133 197.58 351.31 194.693 353.371 193.65C355.947 192.447 358.082 188.197 356.904 186.593C356.389 185.952 356.978 185.069 358.67 183.626C361.099 181.621 361.173 181.3 360.437 178.734C359.774 176.408 359.922 175.687 361.026 174.323C362.866 172.078 362.056 167.908 358.818 162.775C357.419 160.53 356.242 158.044 356.242 157.242C356.242 156.52 355.8 155.879 355.211 155.879C354.475 155.879 354.181 154.997 354.328 152.671C354.475 150.265 354.99 148.822 356.61 147.298C358.597 145.213 358.744 145.213 360.805 146.496C362.792 147.779 362.939 147.699 364.043 145.854C364.706 144.732 365.074 143.048 364.853 142.166C364.558 141.043 365 139.84 366.178 138.557C367.723 136.873 367.87 136.151 367.502 132.542C367.134 129.415 366.693 128.292 365.442 127.65C364.558 127.249 362.571 125.084 361.026 122.919C359.112 120.112 357.787 118.989 356.536 118.989C355.285 118.989 354.77 119.471 354.77 120.433C354.77 121.235 353.739 122.759 352.488 123.721L350.133 125.646L348.808 123.721C347.483 121.796 346.674 118.588 346.674 115.22C346.674 113.777 346.158 113.215 344.466 112.814C343.288 112.574 342.258 111.932 342.258 111.291C342.258 109.687 340.859 109.126 339.682 110.168C338.578 111.211 338.283 110.81 338.578 108.324C338.651 107.522 338.283 106.319 337.842 105.677C337.032 104.715 337.4 104.554 339.976 104.554C343.288 104.554 345.938 103.432 345.938 102.068C345.938 101.667 345.275 100.465 344.466 99.5022C342.699 97.4973 342.994 94.6906 345.275 92.1243C346.6 90.4402 346.6 90.4402 345.128 89.077C343.95 87.9542 343.73 87.0721 344.098 85.0672C344.76 81.7793 345.054 81.2981 346.379 81.2981C347.778 81.2981 347.704 79.2932 346.232 77.7696C345.422 76.8072 345.128 75.3637 345.349 72.6371C345.57 69.3492 345.349 68.7878 343.95 68.066C342.552 67.4245 342.258 66.7028 342.258 63.6554C342.331 60.4476 342.626 59.806 345.202 57.6408C348.293 54.9944 348.366 54.9944 348.366 44.8097C348.366 39.4367 348.587 38.2338 349.691 37.3517C351.458 35.9883 351.458 34.2241 349.691 33.0211C348.514 32.2994 348.44 31.7381 349.102 30.2144C350.206 27.568 349.176 26.766 344.245 26.2047C340.565 25.8037 340.197 25.5631 340.786 24.28C341.227 23.4781 341.522 22.1147 341.522 21.1524C341.522 20.2703 342.037 19.308 342.626 19.0674C343.288 18.7466 343.73 17.5437 343.73 15.7794C343.73 14.0151 343.435 13.2132 342.92 13.534C342.478 13.8547 341.963 13.3736 341.742 12.4112C341.522 11.2885 340.786 10.7272 339.608 10.7272C338.062 10.7272 337.842 10.3262 337.842 7.92035C337.842 2.46716 333.794 3.34927 329.23 9.84503C327.685 12.0103 326.066 13.8547 325.55 13.8547C325.109 13.9349 324.078 12.9726 323.342 11.8499C322.238 10.246 321.282 9.76483 319 9.76483C316.056 9.68463 311.198 11.3687 309.726 12.9726C308.77 14.0151 304.722 14.3359 304.722 13.2934C304.722 12.9726 303.323 12.2509 301.63 11.6895C298.834 10.7272 298.392 10.8073 296.552 12.2509C295.374 13.2132 293.976 13.9349 293.387 13.9349C292.136 13.9349 290.443 11.0479 291.106 9.92523C291.547 9.20346 289.266 7.51938 287.867 7.51938C287.426 7.51938 287.058 8.08075 287.058 8.72229C287.058 10.9677 284.997 9.92523 284.482 7.51938C284.187 5.9155 283.525 5.11356 282.642 5.11356C281.906 5.11356 281.022 4.71259 280.728 4.23141C280.507 3.75027 279.33 3.50967 278.152 3.83044C276.68 4.15125 276.018 3.91064 276.018 3.2691C276.018 2.70773 275.576 1.58502 275.134 0.863281C274.251 -0.25946 273.957 -0.25946 272.19 0.702881Z" fill="black"/>
<path d="M355.506 281.784C355.506 283.628 357.346 283.949 357.934 282.265C358.45 280.982 357.861 280.18 356.462 280.18C355.947 280.18 355.506 280.902 355.506 281.784Z" fill="black"/>
<path d="M351.458 287.397C351.163 287.878 351.237 288.68 351.678 289.161C352.12 289.643 352.562 289.643 352.93 289.001C353.224 288.52 353.15 287.718 352.709 287.237C352.267 286.756 351.826 286.756 351.458 287.397Z" fill="black"/>
<path d="M114.098 296.138C114.098 297.021 116.379 298.063 116.968 297.422C117.189 297.181 116.894 296.62 116.306 296.219C114.907 295.256 114.098 295.256 114.098 296.138Z" fill="black"/>
<path d="M345.938 297.021C345.938 297.422 346.306 297.823 346.674 297.823C347.115 297.823 347.41 297.422 347.41 297.021C347.41 296.54 347.115 296.219 346.674 296.219C346.306 296.219 345.938 296.54 345.938 297.021Z" fill="black"/>
<path d="M173.861 301.592C170.843 301.993 171.138 303.516 174.523 304.799C175.922 305.361 176.731 305.842 176.29 305.922C175.922 306.002 175.259 306.163 174.818 306.243C174.45 306.403 173.64 306.483 173.198 306.564C171.506 306.724 172.168 308.087 174.891 309.932C177.688 311.776 178.792 311.295 178.866 308.168C178.866 307.446 179.381 306.644 179.97 306.323C180.558 306.083 181.074 305.281 181.074 304.559C181.074 303.516 180.632 303.356 178.792 303.757C176.731 304.158 176.51 304.078 176.878 302.634C177.099 301.752 177.026 301.11 176.805 301.191C176.51 301.191 175.186 301.431 173.861 301.592Z" fill="black"/>
<path d="M345.202 304.238C345.202 304.639 345.57 305.04 345.938 305.04C346.379 305.04 346.674 304.639 346.674 304.238C346.674 303.757 346.379 303.436 345.938 303.436C345.57 303.436 345.202 303.757 345.202 304.238Z" fill="black"/>
<path d="M225.234 305.361C225.234 306.083 225.602 306.644 225.97 306.644C226.411 306.644 226.706 306.323 226.706 305.922C226.706 305.441 226.411 304.88 225.97 304.639C225.602 304.399 225.234 304.719 225.234 305.361Z" fill="black"/>
<path d="M97.2433 307.767C96.8017 308.328 96.5809 309.451 96.8753 310.172C97.3905 311.696 97.5377 311.696 99.4513 310.654C100.555 309.932 100.702 309.451 100.114 308.248C99.1569 306.403 98.4209 306.243 97.2433 307.767Z" fill="black"/>
<path d="M189.685 307.526C187.992 308.568 188.066 309.852 189.832 309.852C191.525 309.852 192.261 308.969 191.525 307.686C191.157 307.045 190.568 307.045 189.685 307.526Z" fill="black"/>
<path d="M14.0017 308.649C14.0017 309.29 14.5169 309.852 15.1057 309.852C15.6945 309.852 16.2097 309.29 16.2097 308.649C16.2097 308.007 15.6945 307.446 15.1057 307.446C14.5169 307.446 14.0017 308.007 14.0017 308.649Z" fill="black"/>
<path d="M78.0337 310.092C78.0337 311.616 78.7697 312.258 79.9473 311.696C81.4929 311.055 81.1985 309.05 79.5057 309.05C78.6961 309.05 78.0337 309.531 78.0337 310.092Z" fill="black"/>
<path d="M108.578 309.852C108.798 310.253 109.387 310.654 109.755 310.654C110.197 310.654 110.27 310.253 110.05 309.852C109.829 309.371 109.24 309.05 108.872 309.05C108.43 309.05 108.357 309.371 108.578 309.852Z" fill="black"/>
<path d="M305.163 309.692C305.016 310.012 305.09 310.814 305.384 311.295C306.12 312.659 308.402 311.616 307.887 310.173C307.445 308.97 305.752 308.649 305.163 309.692Z" fill="black"/>
<path d="M54.4817 312.178C54.4817 312.659 54.8497 313.22 55.2177 313.461C55.6593 313.701 55.9537 313.38 55.9537 312.739C55.9537 312.017 55.6593 311.456 55.2177 311.456C54.8497 311.456 54.4817 311.777 54.4817 312.178Z" fill="black"/>
<path d="M169.077 311.937C168.488 312.579 169.15 313.862 170.107 313.862C170.475 313.862 170.77 313.3 170.77 312.659C170.77 311.456 169.886 311.055 169.077 311.937Z" fill="black"/>
<path d="M297.509 312.578C297.582 313.38 298.098 313.941 298.466 313.941C299.57 313.861 299.349 312.017 298.245 311.616C297.582 311.375 297.288 311.776 297.509 312.578Z" fill="black"/>
<path d="M77.5185 315.305C75.7521 317.791 76.3409 320.277 78.6961 320.277C80.9777 320.277 81.7873 318.433 80.9041 315.546C79.9473 312.579 79.5793 312.499 77.5185 315.305Z" fill="black"/>
<path d="M110.786 313.861C111.08 314.342 111.595 314.503 111.963 314.262C112.994 313.54 112.773 313.059 111.448 313.059C110.859 313.059 110.565 313.46 110.786 313.861Z" fill="black"/>
<path d="M150.162 314.583C150.162 315.465 150.456 316.347 150.824 316.588C151.707 317.229 153.326 314.904 152.738 313.861C151.928 312.498 150.162 312.979 150.162 314.583Z" fill="black"/>
<path d="M316.056 313.942C315.541 314.904 317.16 316.428 318.338 316.027C318.779 315.867 319.147 315.145 319.294 314.423C319.589 312.899 316.939 312.498 316.056 313.942Z" fill="black"/>
<path d="M337.474 313.861C337.694 314.262 338.21 314.663 338.651 314.663C339.019 314.663 339.314 314.262 339.314 313.861C339.314 313.38 338.798 313.059 338.136 313.059C337.547 313.059 337.253 313.38 337.474 313.861Z" fill="black"/>
<path d="M303.986 315.866C303.47 316.508 302.146 316.989 300.747 316.829C298.834 316.668 298.392 316.989 298.245 318.593C297.95 320.357 298.171 320.437 300.821 320.036C302.366 319.716 304.133 319.876 304.648 320.277C307.15 321.961 309.653 317.951 307.518 315.626C306.341 314.343 305.09 314.423 303.986 315.866Z" fill="black"/>
<path d="M20.6257 316.267C20.6257 316.668 20.9201 317.069 21.2881 317.069C21.7297 317.069 22.2449 316.668 22.4657 316.267C22.6865 315.786 22.3921 315.465 21.8033 315.465C21.1409 315.465 20.6257 315.786 20.6257 316.267Z" fill="black"/>
<path d="M38.6576 316.187C38.1424 317.149 39.5408 318.112 40.4976 317.47C41.3072 316.909 40.792 315.465 39.7616 315.465C39.3936 315.465 38.952 315.786 38.6576 316.187Z" fill="black"/>
<path d="M83.9216 316.908C83.9216 319.074 85.6144 321.159 86.7184 320.357C87.4544 319.876 87.528 319.314 86.792 317.63C85.7616 315.144 83.9216 314.743 83.9216 316.908Z" fill="black"/>
<path d="M120.501 316.427C118.734 317.149 118.44 317.55 118.882 319.234C119.397 321.72 117.557 324.286 115.054 324.286C112.92 324.286 112.699 327.173 114.834 327.895C116.747 328.537 117.778 327.815 117.778 325.73C117.778 324.447 118.072 324.206 119.47 324.607C127.566 327.173 131.467 324.206 128.67 317.47C128.008 315.866 127.346 315.465 125.211 315.545C123.739 315.545 121.605 315.946 120.501 316.427Z" fill="black"/>
<path d="M174.45 316.267C174.45 316.668 174.744 317.069 175.112 317.069C175.554 317.069 176.069 316.668 176.29 316.267C176.511 315.786 176.216 315.465 175.627 315.465C174.965 315.465 174.45 315.786 174.45 316.267Z" fill="black"/>
<path d="M192.334 316.428C192.482 316.989 193.07 317.47 193.586 317.47C194.101 317.47 194.69 316.989 194.91 316.428C195.058 315.866 194.542 315.465 193.586 315.465C192.629 315.465 192.114 315.866 192.334 316.428Z" fill="black"/>
<path d="M237.746 316.508C237.746 318.032 238.482 318.673 239.586 318.112C240.837 317.631 240.174 315.465 238.776 315.465C238.187 315.465 237.746 315.947 237.746 316.508Z" fill="black"/>
<path d="M71.4097 318.272C71.4097 320.437 73.3233 321.079 74.8689 319.395C76.1201 318.031 75.1633 316.267 73.1761 316.267C71.7777 316.267 71.4097 316.668 71.4097 318.272Z" fill="black"/>
<path d="M100.408 317.47C100.114 318.192 100.114 318.913 100.261 319.154C100.923 319.795 103.131 318.512 102.837 317.63C102.395 316.187 100.85 316.026 100.408 317.47Z" fill="black"/>
<path d="M161.79 316.829C161.054 316.989 160.466 317.47 160.466 317.791C160.466 318.914 164.219 320.277 165.397 319.636C166.354 318.994 166.354 318.753 165.25 317.631C163.998 316.187 163.925 316.187 161.79 316.829Z" fill="black"/>
<path d="M181.81 317.069C181.81 317.55 182.325 317.871 182.914 317.871C183.502 317.871 184.018 317.711 184.018 317.55C184.018 317.39 183.502 317.069 182.914 316.748C182.325 316.508 181.81 316.668 181.81 317.069Z" fill="black"/>
<path d="M196.677 317.23C197.045 318.433 198.738 318.673 198.811 317.47C198.811 316.989 198.296 316.508 197.56 316.428C196.824 316.187 196.456 316.508 196.677 317.23Z" fill="black"/>
<path d="M310.61 317.47C310.61 318.112 311.051 318.673 311.64 318.673C312.229 318.673 312.818 318.112 313.112 317.47C313.406 316.668 313.038 316.268 312.082 316.268C311.272 316.268 310.61 316.829 310.61 317.47Z" fill="black"/>
<path d="M327.317 316.829C326.286 317.871 326.875 319.475 328.274 319.475C329.23 319.475 329.746 318.914 329.746 317.871C329.746 316.348 328.274 315.706 327.317 316.829Z" fill="black"/>
<path d="M242.162 317.871C242.162 318.272 242.53 318.673 242.898 318.673C243.339 318.673 243.634 318.272 243.634 317.871C243.634 317.39 243.339 317.069 242.898 317.069C242.53 317.069 242.162 317.39 242.162 317.871Z" fill="black"/>
<path d="M148.837 319.635C147.659 320.918 146.997 321.159 146.408 320.517C145.231 319.234 142.802 320.196 142.802 321.961C142.802 323.966 144.495 324.687 146.408 323.565C147.365 323.003 148.027 322.923 148.322 323.484C148.984 324.687 151.855 324.447 153.547 323.083C154.872 321.961 154.872 321.881 152.811 319.876C151.634 318.753 150.603 317.871 150.603 317.871C150.53 317.871 149.72 318.673 148.837 319.635Z" fill="black"/>
<path d="M42.0433 320.518C40.9393 322.041 42.7793 324.768 44.4721 324.046C46.0177 323.405 46.0177 320.598 44.4721 319.956C42.9265 319.315 43.0001 319.315 42.0433 320.518Z" fill="black"/>
<path d="M92.0177 320.277C92.0177 320.678 92.5329 321.079 93.1217 321.079C93.7105 321.079 94.2257 320.678 94.2257 320.277C94.2257 319.796 93.7105 319.475 93.1217 319.475C92.5329 319.475 92.0177 319.796 92.0177 320.277Z" fill="black"/>
<path d="M110.418 320.678C110.418 321.399 110.786 321.88 111.227 321.72C111.669 321.56 112.037 321.079 112.037 320.678C112.037 320.277 111.669 319.795 111.227 319.635C110.786 319.475 110.418 319.956 110.418 320.678Z" fill="black"/>
<path d="M155.682 320.277C155.166 321.239 155.829 322.683 156.859 322.683C157.227 322.683 157.522 321.961 157.522 321.079C157.522 319.395 156.418 318.913 155.682 320.277Z" fill="black"/>
<path d="M196.162 320.838C194.616 322.522 195.131 323.886 197.339 323.886C198.59 323.886 199.179 323.405 199.326 322.202C199.621 320.036 197.634 319.154 196.162 320.838Z" fill="black"/>
<path d="M80.6832 320.919C80.4624 321.4 80.6096 322.041 81.0512 322.282C82.1552 323.084 82.8912 322.041 81.9344 320.999C81.4192 320.437 80.9776 320.437 80.6832 320.919Z" fill="black"/>
<path d="M171.726 321.48C171.506 322.202 171.506 322.924 171.726 323.244C172.462 324.046 174.45 322.763 174.45 321.48C174.45 319.876 172.315 319.876 171.726 321.48Z" fill="black"/>
<path d="M268.879 321.56C268.658 322.202 268.805 323.164 269.247 323.645C270.424 324.928 272.338 323.806 272.338 321.881C272.338 319.956 269.541 319.636 268.879 321.56Z" fill="black"/>
<path d="M307.077 322.041C307.518 323.485 309.138 323.725 309.138 322.362C309.138 321.64 308.622 321.079 307.96 321.079C307.298 321.079 306.93 321.48 307.077 322.041Z" fill="black"/>
<path d="M159.288 323.084C158.699 324.688 159.582 325.891 161.275 325.891C162.306 325.891 162.674 325.329 162.674 323.886C162.674 322.442 162.306 321.881 161.202 321.881C160.392 321.881 159.509 322.442 159.288 323.084Z" fill="black"/>
<path d="M152.37 326.292C152.37 326.933 152.002 327.494 151.56 327.494C151.192 327.494 150.971 327.815 151.266 328.296C151.781 329.178 154.504 326.612 154.062 325.65C153.547 324.607 152.37 325.008 152.37 326.292Z" fill="black"/>
<path d="M193.07 327.173C192.85 327.815 192.997 328.777 193.438 329.259C194.616 330.542 196.53 329.419 196.53 327.494C196.53 325.57 193.733 325.249 193.07 327.173Z" fill="black"/>
<path d="M63.7553 330.542C63.6081 330.863 63.7553 331.665 64.1233 332.306C64.7121 333.349 64.8593 333.349 65.4481 332.306C66.1841 331.104 65.8897 329.901 64.7857 329.901C64.4177 329.901 63.9761 330.221 63.7553 330.542Z" fill="black"/>
<path d="M218.021 331.023C218.094 331.825 218.61 332.386 218.978 332.386C220.082 332.306 219.861 330.462 218.757 330.061C218.094 329.82 217.8 330.221 218.021 331.023Z" fill="black"/>
<path d="M290.738 331.905C290.738 333.268 290.885 333.349 292.504 332.627C293.829 332.065 293.387 330.702 291.768 330.702C291.179 330.702 290.738 331.263 290.738 331.905Z" fill="black"/>
<path d="M30.1936 332.627C30.1936 333.268 30.488 333.99 30.7824 334.231C31.7392 334.872 33.3584 333.349 32.8432 332.386C32.1072 331.103 30.1936 331.264 30.1936 332.627Z" fill="black"/>
<path d="M109.314 332.306C109.535 332.707 109.903 333.108 110.123 333.108C110.271 333.108 110.418 332.707 110.418 332.306C110.418 331.825 110.05 331.504 109.608 331.504C109.24 331.504 109.093 331.825 109.314 332.306Z" fill="black"/>
<path d="M184.312 332.787C184.533 333.509 184.754 334.151 184.754 334.391C184.754 334.552 185.269 334.471 185.858 334.231C187.551 333.509 187.183 331.504 185.416 331.504C184.312 331.504 184.018 331.825 184.312 332.787Z" fill="black"/>
<path d="M257.397 331.985C257.176 332.226 257.25 333.108 257.618 333.83C257.986 334.552 258.427 336.075 258.648 337.278C259.016 338.882 259.458 339.283 260.488 338.962C262.549 338.401 262.991 336.476 261.298 335.354C260.488 334.792 259.826 333.669 259.826 332.948C259.826 331.584 258.354 331.023 257.397 331.985Z" fill="black"/>
<path d="M263.506 332.386C263.506 332.787 263.874 332.947 264.242 332.707C264.683 332.466 264.978 332.065 264.978 331.825C264.978 331.664 264.683 331.504 264.242 331.504C263.874 331.504 263.506 331.905 263.506 332.386Z" fill="black"/>
<path d="M336.37 332.306C336.37 332.707 336.738 333.108 337.106 333.108C337.547 333.108 337.842 332.707 337.842 332.306C337.842 331.825 337.547 331.504 337.106 331.504C336.738 331.504 336.37 331.825 336.37 332.306Z" fill="black"/>
<path d="M135.589 335.033C135.662 335.835 136.178 336.396 136.546 336.396C137.65 336.316 137.429 334.471 136.325 334.07C135.662 333.83 135.368 334.231 135.589 335.033Z" fill="black"/>
<path d="M103.278 335.273C102.322 335.434 101.586 335.915 101.586 336.316C101.586 337.439 104.162 338.722 106.37 338.722C107.989 338.722 108.283 338.401 108.062 336.877C107.842 335.033 106.443 334.552 103.278 335.273Z" fill="black"/>
<path d="M331.586 335.514C330.776 336.877 331.954 339.604 333.278 339.363C334.971 339.042 334.971 335.193 333.278 334.872C332.616 334.712 331.88 335.033 331.586 335.514Z" fill="black"/>
<path d="M181.074 336.316C181.074 336.717 181.442 337.118 181.81 337.118C182.251 337.118 182.546 336.717 182.546 336.316C182.546 335.835 182.251 335.514 181.81 335.514C181.442 335.514 181.074 335.835 181.074 336.316Z" fill="black"/>
<path d="M62.5776 337.117C62.5776 337.518 62.9456 337.919 63.3136 337.919C63.7552 337.919 64.0496 337.518 64.0496 337.117C64.0496 336.636 63.7552 336.316 63.3136 336.316C62.9456 336.316 62.5776 336.636 62.5776 337.117Z" fill="black"/>
<path d="M216.402 337.117C216.402 337.518 216.77 337.919 217.138 337.919C217.579 337.919 217.874 337.518 217.874 337.117C217.874 336.636 217.579 336.316 217.138 336.316C216.77 336.316 216.402 336.636 216.402 337.117Z" fill="black"/>
<path d="M289.634 337.117C289.413 337.518 289.707 337.919 290.37 337.919C291.032 337.919 291.326 337.518 291.106 337.117C290.885 336.636 290.517 336.316 290.37 336.316C290.222 336.316 289.854 336.636 289.634 337.117Z" fill="black"/>
<path d="M176.142 339.925C175.922 340.647 176.216 341.769 176.805 342.571C177.467 343.293 177.762 344.416 177.614 344.977C176.658 347.704 181.442 349.548 183.208 347.222C184.238 345.859 183.576 344.015 180.779 340.727C178.866 338.481 176.805 338.08 176.142 339.925Z" fill="black"/>
<path d="M89.2208 346.099C87.9696 347.463 88.1168 349.467 89.736 351.071C90.84 352.194 91.4288 352.274 93.048 351.472C94.9616 350.51 95.4032 348.906 94.52 346.42C94.0048 344.896 90.472 344.736 89.2208 346.099Z" fill="black"/>
<path d="M300.085 345.619C299.054 346.822 299.643 348.345 301.115 348.345C302.146 348.345 302.514 347.944 302.366 346.982C302.146 345.538 300.894 344.817 300.085 345.619Z" fill="black"/>
<path d="M287.941 355.242C285.806 356.846 285.806 360.454 288.014 363.261C289.634 365.266 289.928 365.346 292.357 364.464C296.11 363.101 297.067 359.652 294.638 356.525C292.798 354.279 289.854 353.718 287.941 355.242Z" fill="black"/>
<path d="M175.186 360.294C175.186 362.379 176.437 363.181 177.762 361.978C179.086 360.775 178.35 358.77 176.584 358.77C175.701 358.77 175.186 359.332 175.186 360.294Z" fill="black"/>
</svg>
