<svg width="45" height="45" viewBox="0 0 45 45" fill="none" xmlns="http://www.w3.org/2000/svg">
<rect width="45" height="45" transform="matrix(-1 0 0 -1 45 45)" fill="#ECECEC"/>
<circle cx="22.75" cy="22.75" r="19.25" transform="rotate(180 22.75 22.75)" fill="black"/>
<path d="M23 13.8333C20.8029 13.8238 18.6918 14.686 17.1296 16.2309C15.5674 17.7757 14.6817 19.8771 14.6667 22.0742C14.6662 23.2436 14.917 24.3994 15.4023 25.4633C15.8876 26.5273 16.5958 27.4745 17.4792 28.2408V29.48C17.4827 30.1952 17.7699 30.8798 18.2776 31.3835C18.7854 31.8872 19.4723 32.1689 20.1875 32.1667H25.8125C26.5276 32.1689 27.2143 31.8873 27.7221 31.3838C28.2298 30.8803 28.5171 30.1959 28.5208 29.4808V28.2417C29.4043 27.4753 30.1126 26.5279 30.5979 25.4638C31.0831 24.3997 31.3339 23.2437 31.3333 22.0742C31.3183 19.8771 30.4326 17.7757 28.8704 16.2309C27.3082 14.686 25.197 13.8238 23 13.8333ZM27.1667 27.1975C27.0682 27.2755 26.9886 27.3748 26.9339 27.488C26.8792 27.6011 26.8508 27.7252 26.8508 27.8508V29.4808C26.8473 29.7534 26.7362 30.0134 26.5417 30.2044C26.3472 30.3953 26.085 30.5016 25.8125 30.5H25.5V28C25.5 27.779 25.4122 27.567 25.2559 27.4107C25.0996 27.2545 24.8877 27.1667 24.6667 27.1667C24.4457 27.1667 24.2337 27.2545 24.0774 27.4107C23.9211 27.567 23.8333 27.779 23.8333 28V30.5H22.1667V28C22.1667 27.779 22.0789 27.567 21.9226 27.4107C21.7663 27.2545 21.5543 27.1667 21.3333 27.1667C21.1123 27.1667 20.9004 27.2545 20.7441 27.4107C20.5878 27.567 20.5 27.779 20.5 28V30.5H20.1875C19.9144 30.5024 19.6514 30.3966 19.4562 30.2055C19.2609 30.0145 19.1493 29.7539 19.1458 29.4808V27.8508C19.1463 27.7254 19.1184 27.6016 19.0643 27.4884C19.0102 27.3753 18.9312 27.2759 18.8333 27.1975C18.0553 26.5891 17.4259 25.8116 16.9928 24.924C16.5597 24.0364 16.3342 23.0618 16.3333 22.0742C16.3333 20.3061 17.0357 18.6104 18.286 17.3601C19.5362 16.1099 21.2319 15.4075 23 15.4075C24.7681 15.4075 26.4638 16.1099 27.714 17.3601C28.9643 18.6104 29.6667 20.3061 29.6667 22.0742C29.6658 23.0618 29.4403 24.0364 29.0072 24.924C28.5741 25.8116 27.9447 26.5891 27.1667 27.1975Z" fill="white"/>
<path d="M20.5 25.5C21.4205 25.5 22.1667 24.7538 22.1667 23.8333C22.1667 22.9129 21.4205 22.1667 20.5 22.1667C19.5795 22.1667 18.8333 22.9129 18.8333 23.8333C18.8333 24.7538 19.5795 25.5 20.5 25.5Z" fill="white"/>
<path d="M25.5 25.5C26.4205 25.5 27.1667 24.7538 27.1667 23.8333C27.1667 22.9129 26.4205 22.1667 25.5 22.1667C24.5795 22.1667 23.8333 22.9129 23.8333 23.8333C23.8333 24.7538 24.5795 25.5 25.5 25.5Z" fill="white"/>
</svg>
