<svg width="20" height="20" viewBox="0 0 20 20" fill="none" xmlns="http://www.w3.org/2000/svg">
<path d="M10 0.833334C7.80295 0.823795 5.6918 1.68601 4.12959 3.23088C2.56738 4.77575 1.68165 6.87715 1.66666 9.07417C1.66617 10.2436 1.91705 11.3994 2.4023 12.4634C2.88755 13.5273 3.59584 14.4745 4.47916 15.2408V16.48C4.48269 17.1952 4.76986 17.8798 5.27763 18.3835C5.78539 18.8872 6.47227 19.1689 7.1875 19.1667H12.8125C13.5276 19.1689 14.2143 18.8873 14.7221 18.3838C15.2298 17.8803 15.5171 17.1959 15.5208 16.4808V15.2417C16.4043 14.4753 17.1126 13.5279 17.5979 12.4638C18.0831 11.3997 18.3339 10.2437 18.3333 9.07417C18.3183 6.87715 17.4326 4.77575 15.8704 3.23088C14.3082 1.68601 12.197 0.823795 10 0.833334ZM14.1667 14.1975C14.0682 14.2755 13.9886 14.3748 13.9339 14.488C13.8792 14.6011 13.8508 14.7252 13.8508 14.8508V16.4808C13.8473 16.7534 13.7362 17.0134 13.5417 17.2044C13.3472 17.3953 13.085 17.5016 12.8125 17.5H12.5V15C12.5 14.779 12.4122 14.567 12.2559 14.4107C12.0996 14.2545 11.8877 14.1667 11.6667 14.1667C11.4456 14.1667 11.2337 14.2545 11.0774 14.4107C10.9211 14.567 10.8333 14.779 10.8333 15V17.5H9.16666V15C9.16666 14.779 9.07887 14.567 8.92259 14.4107C8.7663 14.2545 8.55434 14.1667 8.33333 14.1667C8.11232 14.1667 7.90035 14.2545 7.74407 14.4107C7.58779 14.567 7.5 14.779 7.5 15V17.5H7.1875C6.91437 17.5024 6.6514 17.3966 6.45617 17.2056C6.26094 17.0145 6.14935 16.7539 6.14583 16.4808V14.8508C6.14625 14.7254 6.11837 14.6016 6.06426 14.4884C6.01016 14.3753 5.93122 14.2759 5.83333 14.1975C5.05532 13.5891 4.42593 12.8116 3.9928 11.924C3.55967 11.0364 3.33415 10.0618 3.33333 9.07417C3.33333 7.30606 4.03571 5.61036 5.28595 4.36012C6.53619 3.10988 8.23189 2.4075 10 2.4075C11.7681 2.4075 13.4638 3.10988 14.714 4.36012C15.9643 5.61036 16.6667 7.30606 16.6667 9.07417C16.6658 10.0618 16.4403 11.0364 16.0072 11.924C15.5741 12.8116 14.9447 13.5891 14.1667 14.1975Z" fill="white"/>
<path d="M7.5 12.5C8.42048 12.5 9.16667 11.7538 9.16667 10.8333C9.16667 9.91286 8.42048 9.16667 7.5 9.16667C6.57953 9.16667 5.83334 9.91286 5.83334 10.8333C5.83334 11.7538 6.57953 12.5 7.5 12.5Z" fill="white"/>
<path d="M12.5 12.5C13.4205 12.5 14.1667 11.7538 14.1667 10.8333C14.1667 9.91286 13.4205 9.16667 12.5 9.16667C11.5795 9.16667 10.8333 9.91286 10.8333 10.8333C10.8333 11.7538 11.5795 12.5 12.5 12.5Z" fill="white"/>
</svg>
