<svg width="20" height="19" viewBox="0 0 20 19" fill="none" xmlns="http://www.w3.org/2000/svg">
<path d="M10.2639 14.3677C11.9787 22.373 21.6541 15.8196 12.0449 10.2433C22.6355 16.3901 22.6607 1.7118 12.0663 7.85379C22.6607 1.71228 10.0106 -5.62973 10.0082 6.65901C10.0106 -5.62973 -2.64152 1.70656 7.94767 7.85379C-2.64152 1.70609 -2.65391 16.3849 7.93863 10.2424C-1.6758 15.8158 7.97767 22.3769 9.69294 14.3553L10.2639 14.3677ZM8.73387 9.04905C8.73337 8.88137 8.76592 8.71524 8.82965 8.56015C8.89338 8.40506 8.98705 8.26405 9.10531 8.14518C9.22356 8.0263 9.36408 7.9319 9.51884 7.86736C9.67359 7.80282 9.83955 7.7694 10.0072 7.76903C10.1749 7.76947 10.3408 7.80292 10.4955 7.86749C10.6502 7.93206 10.7906 8.02648 10.9088 8.14535C11.027 8.26421 11.1207 8.4052 11.1844 8.56026C11.2481 8.71532 11.2806 8.88141 11.2801 9.04905C11.2806 9.21668 11.2481 9.38277 11.1844 9.53783C11.1207 9.69289 11.027 9.83388 10.9088 9.95275C10.7906 10.0716 10.6502 10.166 10.4955 10.2306C10.3408 10.2952 10.1749 10.3286 10.0072 10.3291C9.66871 10.3279 9.34447 10.1925 9.10573 9.9525C8.86698 9.7125 8.73324 9.38757 8.73387 9.04905Z" fill="black"/>
</svg>
