<svg width="45" height="45" viewBox="0 0 45 45" fill="none" xmlns="http://www.w3.org/2000/svg">
<rect width="45" height="45" fill="#ECECEC"/>
<rect x="3" y="2" width="40" height="40" rx="10" fill="#22E55D"/>
<path d="M23.2639 27.3677C24.9787 35.373 34.6541 28.8196 25.0449 23.2433C35.6355 29.3901 35.6607 14.7118 25.0663 20.8538C35.6607 14.7123 23.0106 7.37027 23.0082 19.659C23.0106 7.37027 10.3585 14.7066 20.9477 20.8538C10.3585 14.7061 10.3461 29.3849 20.9386 23.2424C11.3242 28.8158 20.9777 35.3769 22.6929 27.3553L23.2639 27.3677ZM21.7339 22.049C21.7334 21.8814 21.7659 21.7152 21.8297 21.5602C21.8934 21.4051 21.9871 21.2641 22.1053 21.1452C22.2236 21.0263 22.3641 20.9319 22.5188 20.8674C22.6736 20.8028 22.8396 20.7694 23.0072 20.769C23.1749 20.7695 23.3408 20.8029 23.4955 20.8675C23.6502 20.9321 23.7906 21.0265 23.9088 21.1453C24.027 21.2642 24.1207 21.4052 24.1844 21.5603C24.2481 21.7153 24.2806 21.8814 24.2801 22.049C24.2806 22.2167 24.2481 22.3828 24.1844 22.5378C24.1207 22.6929 24.027 22.8339 23.9088 22.9527C23.7906 23.0716 23.6502 23.166 23.4955 23.2306C23.3408 23.2952 23.1749 23.3286 23.0072 23.3291C22.6687 23.3279 22.3445 23.1925 22.1057 22.9525C21.867 22.7125 21.7332 22.3876 21.7339 22.049Z" fill="black"/>
</svg>
