<svg width="45" height="45" viewBox="0 0 45 45" fill="none" xmlns="http://www.w3.org/2000/svg">
<rect width="45" height="45" fill="#ECECEC"/>
<circle cx="22.25" cy="22.25" r="19.25" fill="#22E55D"/>
<path d="M22.2639 27.3677C23.9787 35.373 33.6541 28.8196 24.0449 23.2433C34.6355 29.3901 34.6607 14.7118 24.0663 20.8538C34.6607 14.7123 22.0106 7.37027 22.0082 19.659C22.0106 7.37027 9.35848 14.7066 19.9477 20.8538C9.35848 14.7061 9.34609 29.3849 19.9386 23.2424C10.3242 28.8158 19.9777 35.3769 21.6929 27.3553L22.2639 27.3677ZM20.7339 22.049C20.7334 21.8814 20.7659 21.7152 20.8297 21.5602C20.8934 21.4051 20.9871 21.2641 21.1053 21.1452C21.2236 21.0263 21.3641 20.9319 21.5188 20.8674C21.6736 20.8028 21.8396 20.7694 22.0072 20.769C22.1749 20.7695 22.3408 20.8029 22.4955 20.8675C22.6502 20.9321 22.7906 21.0265 22.9088 21.1453C23.027 21.2642 23.1207 21.4052 23.1844 21.5603C23.2481 21.7153 23.2806 21.8814 23.2801 22.049C23.2806 22.2167 23.2481 22.3828 23.1844 22.5378C23.1207 22.6929 23.027 22.8339 22.9088 22.9527C22.7906 23.0716 22.6502 23.166 22.4955 23.2306C22.3408 23.2952 22.1749 23.3286 22.0072 23.3291C21.6687 23.3279 21.3445 23.1925 21.1057 22.9525C20.867 22.7125 20.7332 22.3876 20.7339 22.049Z" fill="black"/>
</svg>
