<svg width="45" height="45" viewBox="0 0 45 45" fill="none" xmlns="http://www.w3.org/2000/svg">
<rect width="45" height="45" transform="matrix(-1 0 0 -1 44.9999 45)" fill="#ECECEC"/>
<circle cx="22.7499" cy="22.75" r="19.25" transform="rotate(180 22.7499 22.75)" fill="#E522AA"/>
<path d="M32.9999 19.641C33.0999 19.141 32.6999 18.541 32.1999 18.541L26.4999 17.741L23.8999 12.541C23.7999 12.341 23.6999 12.241 23.4999 12.141C22.9999 11.841 22.3999 12.041 22.0999 12.541L19.5999 17.741L13.8999 18.541C13.5999 18.541 13.3999 18.641 13.2999 18.841C12.8999 19.241 12.8999 19.841 13.2999 20.241L17.3999 24.241L16.3999 29.941C16.3999 30.141 16.3999 30.341 16.4999 30.541C16.7999 31.041 17.3999 31.241 17.8999 30.941L22.9999 28.241L28.0999 30.941C28.1999 31.041 28.3999 31.041 28.5999 31.041C28.6999 31.041 28.6999 31.041 28.7999 31.041C29.2999 30.941 29.6999 30.441 29.5999 29.841L28.5999 24.141L32.6999 20.141C32.8999 20.041 32.9999 19.841 32.9999 19.641Z" fill="black"/>
</svg>
