<svg width="70" height="70" viewBox="0 0 70 70" fill="none" xmlns="http://www.w3.org/2000/svg">
<g clip-path="url(#clip0_736_956)">
<path d="M31.192 0.168491C30.912 0.392491 31.01 1.31649 31.304 1.20449C31.402 1.16249 31.71 1.09249 31.976 1.03649C32.62 0.924491 32.69 0.784491 32.382 0.350491C32.102 -0.0275085 31.556 -0.111509 31.192 0.168491Z" fill="black"/>
<path d="M38.7381 0.825981C38.5141 0.965981 38.0801 1.13399 37.7581 1.18999C37.2821 1.27399 37.2261 1.30199 37.4501 1.39999C37.7161 1.49799 37.7021 1.51199 37.3801 1.58199C37.1841 1.62399 36.6941 1.70798 36.2741 1.74998C35.5881 1.83398 35.4901 1.80598 35.2241 1.48399C35.0561 1.30199 34.7061 1.10599 34.4401 1.04999C34.0341 0.965981 33.9781 0.97998 34.1321 1.13399C34.6221 1.65199 33.9501 1.88998 33.3201 1.39999C32.9841 1.14799 32.9701 1.14799 32.6901 1.39999C32.4661 1.59599 32.0181 1.69398 30.5621 1.80598C29.5541 1.90398 28.4201 2.05798 28.0421 2.16998C27.1181 2.44998 27.1041 2.42198 27.9721 2.02998C28.4061 1.83398 28.7001 1.60999 28.7001 1.46999C28.7001 1.23199 28.6021 1.18999 27.8321 1.04999C27.3421 0.97998 27.3001 0.99398 27.3001 1.31599C27.3001 1.55399 27.1461 1.76398 26.8521 1.97398C26.6001 2.14198 26.3621 2.30998 26.3341 2.33798C26.3061 2.35198 26.3621 2.63198 26.4601 2.95399C26.6281 3.45798 26.6981 3.51398 27.0341 3.47198C27.2581 3.42999 27.3841 3.47198 27.3421 3.54198C27.1881 3.80798 26.3061 4.05998 25.5921 4.05998C24.8641 4.04598 24.8501 4.04598 25.2701 3.86398L25.6901 3.68198L25.1721 3.42999C24.7381 3.21999 24.5841 3.20599 24.2761 3.34599C23.8421 3.54198 23.6881 3.45798 23.9401 3.14999C24.0381 3.02399 24.0941 2.91199 24.0661 2.88399C23.9961 2.82799 20.4681 3.84998 18.7601 4.40999C17.1221 4.94199 15.0641 6.01999 14.1681 6.80399C13.4261 7.44799 13.3841 7.62999 13.9301 7.72799C14.0841 7.75599 14.2101 7.83998 14.2101 7.90998C14.2241 7.99398 14.2801 8.20399 14.3361 8.38599L14.4481 8.72198L14.6301 8.28799C14.8541 7.76999 15.2461 7.50399 16.3101 7.12598C17.1781 6.81799 17.3881 6.85999 17.0381 7.23798C16.7861 7.53199 16.3241 8.66599 16.1701 9.37999L16.0721 9.86999L16.4921 9.30999C16.7161 9.00199 17.2901 8.38599 17.7661 7.95198C18.4801 7.27999 18.6201 7.06998 18.6341 6.64999C18.6481 6.38398 18.6621 6.07598 18.6761 5.97798C18.7041 5.57198 19.6701 5.30598 19.9921 5.62798C20.1181 5.75398 20.0061 5.94998 19.5301 6.45399C19.1801 6.83199 18.9001 7.23798 18.9001 7.36399C18.9001 7.53199 19.0681 7.41999 19.4601 6.99998C19.9221 6.49599 20.0621 6.42599 20.3841 6.49599C20.8041 6.60799 21.2801 6.32798 20.9721 6.14598C20.8741 6.08998 20.8321 6.00599 20.8601 5.97798C21.1681 5.73998 23.0861 4.61999 23.2121 4.61999C23.4501 4.61999 23.5621 5.20798 23.3941 5.61398C23.3241 5.82398 23.0161 6.10398 22.7221 6.25798C22.4281 6.41198 21.7001 6.78999 21.0981 7.11198C20.2441 7.57399 19.8661 7.69999 19.3201 7.69999C18.7321 7.69999 18.6201 7.74199 18.6201 7.96598C18.6201 8.10599 18.7181 8.30199 18.8301 8.39999C18.9421 8.49799 19.0401 8.65199 19.0401 8.76398C19.0401 9.04399 18.3261 9.49199 17.5561 9.67398C17.1781 9.77199 16.3801 10.08 15.7921 10.388C15.0221 10.766 14.7001 10.864 14.7001 10.724C14.7001 10.626 14.8541 10.108 15.0641 9.58998C15.2601 9.05799 15.4001 8.46999 15.3721 8.27399C15.3021 7.68599 14.9381 7.83998 14.7001 8.56799C14.5321 9.11399 14.4481 9.21199 14.2101 9.15599C14.0561 9.11399 13.6921 9.18399 13.3981 9.30999C13.1181 9.42199 12.8801 9.47799 12.8801 9.42199C12.8801 9.36599 13.1181 9.07199 13.3981 8.76398L13.9301 8.21799L13.0901 8.80598C12.6281 9.14199 11.6901 9.78599 10.9901 10.262C9.77207 11.088 8.12007 12.586 8.12007 12.838C8.12007 12.908 8.30207 12.95 8.54007 12.908C9.15607 12.824 9.08607 13.118 8.19007 14.21C7.77007 14.714 7.42007 15.176 7.42007 15.204C7.42007 15.33 7.57407 15.246 8.03607 14.84C8.31607 14.588 8.55407 14.476 8.61007 14.546C8.65207 14.63 7.95207 15.428 7.05607 16.31C5.44607 17.92 5.43207 17.948 5.53007 18.452C5.64207 19.04 5.88007 19.39 5.88007 18.956C5.88007 18.144 6.49607 16.8 6.87407 16.8C7.08407 16.8 7.01407 17.248 6.49607 19.264C6.21607 20.342 5.95007 21.714 5.89407 22.33L5.81007 23.45L5.29207 22.61C4.99807 22.148 4.76007 21.868 4.76007 21.994C4.76007 22.12 4.41007 22.652 3.99007 23.17C3.57007 23.674 3.22007 24.122 3.22007 24.15C3.22007 24.164 3.12207 24.416 3.01007 24.696C2.89807 24.976 2.82807 25.2 2.85607 25.2C2.88407 25.2 3.12207 24.878 3.37407 24.472L3.83607 23.758L4.01807 24.164C4.27007 24.752 4.24207 25.228 3.85007 27.3C3.50007 29.19 3.43007 30.366 3.64007 30.87C3.75207 31.122 3.76607 31.122 3.76607 30.786C3.78007 30.338 4.10207 29.89 4.31207 30.016C4.52207 30.142 4.52207 30.996 4.32607 31.906C4.11607 32.9 3.86407 33.012 3.94807 32.06L4.01807 31.332L3.55607 31.402C2.99607 31.5 2.99607 31.486 2.85607 29.61C2.81407 28.84 2.71607 28.07 2.64607 27.888C2.46407 27.412 2.12807 27.51 2.01607 28.07C1.89007 28.784 2.04407 29.666 2.66007 31.57C3.26207 33.446 3.45807 34.3 3.26207 34.3C3.19207 34.3 2.94007 34.034 2.68807 33.712C2.21207 33.096 2.14207 33.138 2.39407 33.852C2.47807 34.09 2.61807 34.272 2.70207 34.258C2.81407 34.244 2.87007 34.594 2.87007 35.462C2.87007 36.134 2.84207 36.68 2.80007 36.68C2.75807 36.68 2.52007 36.554 2.28207 36.4L1.82007 36.12L1.83407 36.512C1.84807 37.296 2.03007 38.15 2.17007 38.108C2.33807 38.052 3.09407 41.006 3.52807 43.428C3.71007 44.394 3.89207 45.136 3.93407 45.052C4.04607 44.87 4.41007 45.528 4.55007 46.186C4.71807 46.942 4.88607 46.41 4.81607 45.36L4.76007 44.45L4.97007 45.22C5.09607 45.64 5.25007 46.662 5.32007 47.488C5.39007 48.328 5.53007 49.294 5.61407 49.658L5.78207 50.302L6.03407 49.994L6.28607 49.686L6.48207 50.162C6.91607 51.198 6.93007 51.282 6.55207 51.212L6.20207 51.142L6.52407 51.632C6.70607 51.898 6.86007 52.262 6.86007 52.43C6.86007 52.71 7.37807 53.34 7.60207 53.34C7.65807 53.34 7.67207 53.172 7.61607 52.962C7.57407 52.738 7.82607 53.088 8.17607 53.718C8.52607 54.362 8.82007 55.02 8.82007 55.202C8.82007 55.86 9.43607 56.756 10.5001 57.61C11.0741 58.086 11.6201 58.604 11.7041 58.772C11.8581 59.08 13.8741 60.998 15.3161 62.188C16.3661 63.07 18.2561 64.33 19.6421 65.1C20.2861 65.45 20.6781 65.744 20.5801 65.8C20.4261 65.898 24.6121 68.292 26.0821 68.936C27.6781 69.636 29.0781 70 30.1841 70C30.7441 70 31.2201 69.958 31.2201 69.916C31.2201 69.874 31.1501 69.72 31.0801 69.566C30.9821 69.384 30.9821 69.3 31.0801 69.3C31.1501 69.3 31.2201 69.188 31.2201 69.048C31.2201 68.824 31.4441 68.81 34.0481 68.81C37.1001 68.81 38.7101 68.614 41.3281 67.97C42.1121 67.774 42.7701 67.62 42.7841 67.62C42.8121 67.62 42.8401 67.914 42.8401 68.292C42.8401 69.104 43.1341 69.58 43.6381 69.58H44.0021L43.6101 69.216C43.2881 68.922 43.2321 68.782 43.3021 68.362C43.4001 67.802 43.7081 67.41 44.2681 67.116C44.6321 66.92 44.6601 66.934 44.6601 67.186C44.6601 67.732 45.0661 67.76 47.1241 67.396C48.1881 67.214 49.2381 67.018 49.4621 66.976C49.7981 66.892 49.8401 66.92 49.8401 67.256C49.8401 67.676 49.8681 67.69 50.7641 67.41C51.1421 67.298 51.4641 67.2 51.4921 67.2C51.5061 67.2 51.5201 67.424 51.5201 67.69C51.5201 67.998 51.4361 68.222 51.2821 68.306C51.1421 68.39 51.0861 68.46 51.1421 68.46C51.3381 68.46 52.1081 67.872 52.0241 67.802C51.9821 67.76 52.0801 67.536 52.2341 67.326L52.5141 66.92H51.8981C51.5481 66.92 51.0861 66.878 50.8481 66.836C50.4701 66.766 50.4281 66.71 50.5401 66.486C50.6241 66.346 50.6801 66.024 50.6801 65.772V65.296L51.7441 65.394L52.8081 65.506L53.2281 65.03C53.4521 64.764 54.1241 64.288 54.7121 63.952C55.3001 63.63 56.0141 63.14 56.2661 62.874C56.5321 62.594 56.7001 62.468 56.6301 62.58C56.5601 62.706 56.6301 62.692 56.8121 62.524C57.1621 62.23 57.2461 62.02 56.9101 62.3C56.7561 62.426 56.7001 62.426 56.7001 62.314C56.7001 62.23 56.7981 62.118 56.9101 62.076C57.0221 62.02 57.1201 61.88 57.1201 61.74C57.1201 61.614 57.3021 61.25 57.5401 60.928L57.9461 60.354L57.2041 60.62C56.5461 60.844 54.8101 61.18 54.3061 61.18C54.2081 61.18 54.3341 60.956 54.6001 60.69C54.9641 60.312 55.1181 60.242 55.3141 60.354C55.5241 60.466 55.6501 60.382 56.0141 59.892C56.2521 59.556 56.5741 59.038 56.7281 58.73C57.0221 58.156 58.3941 56.238 58.7861 55.86C58.9121 55.734 59.4161 55.146 59.9201 54.53C60.4241 53.914 61.2641 52.906 61.7961 52.29C63.0421 50.834 64.6101 48.454 65.5201 46.648C66.0941 45.486 66.2901 45.206 66.5001 45.262C66.7241 45.318 66.7521 45.206 66.8081 44.366C66.8361 43.848 66.9061 43.372 66.9481 43.33C67.0041 43.274 67.1861 43.33 67.3681 43.456C67.9981 43.904 68.0821 43.778 67.9701 42.588C67.8301 41.076 67.8441 40.11 68.0261 39.802C68.1101 39.662 68.1801 39.62 68.1801 39.718C68.1801 39.928 68.6981 40.222 68.8801 40.11C68.9641 40.054 68.8661 39.732 68.6701 39.326C68.3761 38.766 68.3481 38.64 68.5301 38.64C68.6561 38.64 68.8661 38.374 69.0201 38.024C69.1601 37.688 69.3421 37.394 69.4261 37.366C69.5101 37.324 69.4121 36.68 69.1601 35.574C68.6561 33.502 68.6421 33.236 69.0341 33.138C69.3001 33.068 69.3141 33.096 69.2301 33.558C69.1741 33.908 69.2021 34.09 69.3281 34.174C69.9161 34.552 70.0141 34.076 69.5801 32.816C69.4121 32.368 69.2861 31.696 69.2861 31.346C69.2721 30.73 69.2581 30.702 68.9221 30.772L68.5581 30.842L68.6001 28.966C68.6701 26.11 68.6701 26.096 68.1941 25.816C67.8441 25.62 67.7041 25.326 67.2841 23.996C66.6681 22.092 65.6461 19.782 64.7641 18.298C64.4141 17.696 64.1201 17.108 64.1201 17.01C64.1201 16.912 63.8541 16.52 63.5181 16.156C63.1961 15.778 62.5521 14.994 62.0901 14.42C60.9561 12.992 58.8421 10.906 57.3861 9.77199C56.2941 8.91799 53.5361 7.08398 53.1581 6.95798C53.0741 6.92999 53.2281 6.63599 53.5361 6.25798C54.1241 5.54398 54.1521 5.12399 53.6481 4.78799C53.3261 4.57799 53.3261 4.57799 53.4941 4.94199C53.6341 5.24998 53.6201 5.37598 53.4241 5.65598C53.0881 6.17398 52.6821 6.34198 52.0381 6.24398C51.7161 6.18798 51.3941 6.08998 51.3101 6.03399C51.2401 5.96398 50.9321 5.83798 50.6381 5.73998C50.1481 5.58598 50.1201 5.55798 50.3161 5.33398C50.4421 5.19398 50.5401 5.01199 50.5401 4.92799C50.5401 4.59199 49.6581 3.79398 48.4121 2.96799C46.9981 2.04398 46.5781 1.97398 46.0881 2.58998L45.8361 2.89799L45.1641 2.11398C44.4921 1.34399 44.4641 1.32999 43.6941 1.31599C43.2601 1.31599 42.5041 1.17599 42.0001 1.02199C41.4961 0.867981 40.6561 0.699982 40.1101 0.643982C39.2981 0.587982 39.0601 0.615982 38.7381 0.825981ZM39.4381 0.783981C39.3961 0.825981 39.2701 0.839981 39.1721 0.797981C39.0601 0.755981 39.1021 0.713982 39.2561 0.713982C39.4101 0.699982 39.4941 0.741982 39.4381 0.783981ZM49.3921 5.01199C49.5881 5.30598 49.5881 5.31998 49.1541 5.16599C48.7201 5.01199 48.6361 4.89999 48.8181 4.70399C48.9581 4.56399 49.1681 4.67599 49.3921 5.01199ZM12.0121 10.388C11.9001 10.57 11.5361 11.186 11.2001 11.76C10.8641 12.334 10.5701 12.824 10.5561 12.852C10.5421 12.88 10.3741 12.824 10.2061 12.726L9.88407 12.558L10.2621 12.264C10.4721 12.096 10.6401 11.9 10.6401 11.83C10.6401 11.676 12.0121 10.08 12.1381 10.08C12.1801 10.08 12.1241 10.22 12.0121 10.388ZM9.80007 18.578C9.64607 18.816 9.64607 18.816 9.71607 18.578C9.75807 18.438 9.80007 18.242 9.81407 18.158C9.81407 18.032 9.84207 18.032 9.88407 18.158C9.92607 18.256 9.88407 18.438 9.80007 18.578ZM11.6201 19.446C11.6201 19.516 11.5221 19.642 11.4101 19.74C11.2421 19.88 11.2001 19.88 11.2001 19.712C11.2001 19.6 11.2421 19.46 11.2981 19.418C11.4241 19.278 11.6201 19.292 11.6201 19.446ZM9.94007 19.796C9.94007 19.824 9.98207 19.95 10.0241 20.062C10.0661 20.188 9.88407 20.426 9.54807 20.692L9.01607 21.126L9.22607 20.426C9.38007 19.936 9.50607 19.74 9.68807 19.74C9.82807 19.74 9.94007 19.768 9.94007 19.796ZM10.5981 20.384C10.5141 20.678 9.98207 21.602 9.42207 22.428C8.86207 23.268 8.13407 24.458 7.81207 25.088L7.21007 26.25L7.16807 24.262C7.14007 22.386 7.15407 22.246 7.44807 21.91C7.61607 21.714 7.82607 21.56 7.93807 21.56C8.03607 21.56 8.21807 21.406 8.34407 21.21C8.59607 20.818 8.82007 20.86 8.82007 21.294C8.82007 21.924 9.89807 21.196 10.3881 20.258C10.7241 19.586 10.8221 19.642 10.5981 20.384ZM68.4601 27.496C68.4601 28.112 68.2221 27.762 68.1241 27.02C68.0401 26.418 68.0401 26.404 68.2361 26.74C68.3621 26.936 68.4461 27.272 68.4601 27.496ZM6.38407 27.286C6.49607 27.188 6.62207 27.16 6.67807 27.202C6.81807 27.342 6.14607 28.84 5.93607 28.84C5.54407 28.84 5.23607 27.664 5.47407 27.048L5.61407 26.67L5.90807 27.062C6.13207 27.37 6.23007 27.412 6.38407 27.286ZM47.1801 66.15C47.1801 66.29 47.0401 66.36 46.7321 66.36L46.2701 66.346L46.6201 66.15C47.0681 65.898 47.1801 65.898 47.1801 66.15ZM45.9481 67.158C46.1441 67.41 45.7101 67.55 45.2481 67.396C44.7161 67.214 44.7161 66.948 45.2481 66.724C45.6681 66.542 45.7101 66.542 45.7661 66.752C45.7941 66.878 45.8781 67.074 45.9481 67.158ZM30.7301 68.754C30.9261 68.95 30.2261 68.894 29.7501 68.684C29.3301 68.488 29.3441 68.488 29.9601 68.558C30.3101 68.6 30.6461 68.684 30.7301 68.754Z" fill="black"/>
<path d="M35.7421 1.21826C35.9521 1.24626 36.2881 1.24626 36.5121 1.21826C36.7221 1.19026 36.5401 1.16226 36.1201 1.16226C35.7001 1.16226 35.5181 1.19026 35.7421 1.21826Z" fill="black"/>
<path d="M50.9319 4.95626C51.0999 5.18026 51.2399 5.47426 51.2399 5.62826C51.2399 5.78226 51.3099 5.85226 51.3799 5.81026C51.6599 5.64226 51.5059 5.19426 51.0719 4.87226L50.6099 4.55026L50.9319 4.95626Z" fill="black"/>
<path d="M4.64803 18.8023C4.32603 19.1523 4.25603 19.5303 4.48003 19.6703C4.56403 19.7123 4.62003 19.8943 4.62003 20.0623C4.63403 20.3702 4.63403 20.3702 4.84403 20.0903C5.02603 19.8383 5.02603 19.8103 4.84403 19.7683C4.56403 19.7123 4.56403 19.7123 4.83003 19.0823C5.09603 18.4663 5.04003 18.3823 4.64803 18.8023Z" fill="black"/>
<path d="M2.30988 20.7768C2.12788 21.2528 2.11388 21.4488 2.22588 21.6868C2.51988 22.2048 2.65988 21.9948 2.65988 21.0708C2.65988 20.5668 2.63188 20.1608 2.60388 20.1608C2.57588 20.1608 2.43588 20.4408 2.30988 20.7768Z" fill="black"/>
<path d="M1.63796 23.1003C1.41396 23.4923 1.18996 23.8003 1.13396 23.8003C0.993964 23.8003 0.615964 23.3663 0.531964 23.1003C0.489964 22.9883 0.433964 23.1283 0.405964 23.4083C0.363964 23.6883 0.391964 23.8843 0.447964 23.8563C0.503964 23.8143 0.559964 24.0103 0.559964 24.2763C0.559964 24.5563 0.629964 24.7803 0.699964 24.7803C0.783964 24.7803 0.839964 24.7243 0.839964 24.6543C0.839964 24.5703 1.21796 24.2203 1.67996 23.8703C2.50596 23.2263 2.68796 22.9043 2.35196 22.5683C2.09996 22.3163 2.05796 22.3443 1.63796 23.1003Z" fill="black"/>
<path d="M0.699951 25.6207C0.699951 25.7047 0.797951 25.7607 0.909951 25.7607C1.17595 25.7607 1.17595 25.6767 0.909951 25.5647C0.797951 25.5227 0.699951 25.5507 0.699951 25.6207Z" fill="black"/>
<path d="M67.788 44.1703C67.634 44.5203 67.55 46.3263 67.69 46.1723C67.774 46.0883 68.068 43.9463 67.998 43.8763C67.97 43.8483 67.872 43.9743 67.788 44.1703Z" fill="black"/>
<path d="M64.806 49.1684C64.68 49.6444 64.54 50.1484 64.484 50.2744C64.33 50.6104 65.002 50.4564 65.352 50.0644C65.842 49.5464 65.856 49.2104 65.422 48.7204L65.016 48.2724L64.806 49.1684Z" fill="black"/>
<path d="M63.9799 50.9742C63.8819 51.1282 63.8399 51.2962 63.8819 51.3242C63.9099 51.3522 64.0079 51.2262 64.0919 51.0302C64.2879 50.6102 64.1899 50.5682 63.9799 50.9742Z" fill="black"/>
<path d="M63.4339 52.3887C63.1259 53.3127 63.1679 53.3127 63.7559 52.4307L64.1199 51.8707V52.4307C64.1059 52.7387 64.0219 53.1447 63.9099 53.3407C63.4059 54.2227 63.8259 54.6147 64.5959 53.9987C64.9459 53.7047 64.9739 53.6347 64.8339 53.3547C64.7219 53.1727 64.6939 52.8227 64.7639 52.4307C64.8479 51.8427 64.8339 51.8007 64.4699 51.6607C63.8399 51.4227 63.7419 51.4927 63.4339 52.3887Z" fill="black"/>
<path d="M60.774 55.5239C60.774 55.6919 60.41 56.2099 59.99 56.6859C59.248 57.5119 59.052 57.9879 59.36 58.1699C59.612 58.3239 59.514 58.4919 59.122 58.5899L58.73 58.7019L59.136 58.8139C59.416 58.8979 59.626 58.8559 59.878 58.7019L60.228 58.4639L59.906 58.2399C59.416 57.8619 59.64 57.5399 60.41 57.5399H61.04L61.026 56.9379C61.026 56.2799 60.802 55.0619 60.774 55.5239Z" fill="black"/>
<path d="M62.37 55.5942C62.314 55.6782 62.3 55.7622 62.342 55.8042C62.37 55.8462 62.44 55.7762 62.482 55.6502C62.58 55.4122 62.496 55.3702 62.37 55.5942Z" fill="black"/>
<path d="M61.8099 56.7982C61.5999 57.1342 61.4599 57.4422 61.4879 57.4702C61.5019 57.4842 61.7259 57.5542 61.9639 57.5962C62.3419 57.6802 62.4539 57.6382 62.7059 57.3162C63.0979 56.8262 63.0839 56.6722 62.5799 56.3922L62.1739 56.1682L61.8099 56.7982Z" fill="black"/>
<path d="M58.7861 59.5985L58.3101 60.1025L58.7581 59.7945C59.2341 59.4725 59.4301 59.2485 59.3321 59.1365C59.3041 59.1085 59.0521 59.3185 58.7861 59.5985Z" fill="black"/>
<path d="M52.8501 66.6403C52.8081 66.7103 52.8361 66.7803 52.9061 66.7803C52.9901 66.7803 53.0601 66.7103 53.0601 66.6403C53.0601 66.5563 53.0321 66.5003 53.0041 66.5003C52.9621 66.5003 52.8921 66.5563 52.8501 66.6403Z" fill="black"/>
<path d="M48.37 68.1939C47.782 68.7959 47.726 68.8939 48.02 68.8099C48.622 68.6419 49.21 68.2499 49.252 67.9839C49.364 67.4239 49.028 67.5079 48.37 68.1939Z" fill="black"/>
<path d="M45.57 68.0399L45.01 68.2919L45.542 68.3059C45.892 68.3199 46.102 68.2499 46.158 68.1099C46.284 67.7739 46.172 67.7599 45.57 68.0399Z" fill="black"/>
<path d="M37.17 69.0203C35.784 69.1603 33.992 69.2863 33.18 69.3003L31.71 69.3283L33.11 69.5943C33.908 69.7623 35.434 69.9023 36.68 69.9583L38.85 70.0283L38.5 69.7483L38.15 69.4683L38.5 69.3143C38.696 69.2443 39.354 69.1323 39.97 69.0763C40.796 69.0063 40.992 68.9503 40.74 68.8663C40.25 68.7263 40.026 68.7403 37.17 69.0203Z" fill="black"/>
<path fill-rule="evenodd" clip-rule="evenodd" d="M57.7637 19.0272C57.6026 19.104 57.2598 19.2889 57.002 19.438C56.7442 19.587 56.1905 19.8426 55.7715 20.0058C54.5254 20.4913 54.2696 20.6475 53.5556 21.3596L52.9217 21.9918H52.6041C52.0345 21.9918 51.3906 22.3341 51.1119 22.785C51.0121 22.9466 50.9488 22.9881 50.8009 22.9892C50.6988 22.9899 50.5021 23.0419 50.3637 23.1047C50.165 23.1948 50.0849 23.2777 49.9828 23.4989C49.8605 23.7638 49.8404 23.7795 49.6095 23.7895C49.2287 23.806 49.0074 23.9519 48.8701 24.277C48.7578 24.5428 48.7399 24.5577 48.5676 24.5298C48.1202 24.4572 47.6563 24.7472 47.6563 25.0996C47.6563 25.2619 47.6562 25.2619 47.3156 25.231C47.0641 25.2082 46.9254 25.2258 46.7857 25.2981C46.5875 25.4005 46.3678 25.701 46.3675 25.8702C46.3672 26.0073 46.2927 26.0404 46.0803 25.9979C45.9303 25.9679 45.8985 25.9336 45.8985 25.8017C45.8985 25.4778 45.5956 25.1707 45.1807 25.074C44.925 25.0144 44.9937 25.1301 45.2786 25.2389C45.4211 25.2933 45.5688 25.3753 45.6068 25.421C45.6632 25.4891 45.6237 25.487 45.3916 25.4097C45.0187 25.2855 44.961 25.234 44.961 25.026C44.961 24.9004 44.9279 24.8433 44.8421 24.8208C44.7653 24.8007 44.7339 24.7561 44.7532 24.6945C44.7697 24.6421 44.7888 24.3883 44.7957 24.1305C44.8072 23.7027 44.7938 23.6399 44.6424 23.4126C44.4155 23.0719 44.1725 22.9355 43.7234 22.8971C43.5179 22.8794 43.2772 22.8538 43.1885 22.84C43.0791 22.8231 43.0274 22.8408 43.0274 22.8952C43.0274 23.0062 43.1568 23.0451 43.4195 23.013C43.5898 22.9922 43.6149 22.9989 43.5254 23.0413C43.3645 23.1176 43.1021 23.1178 42.9601 23.0418C42.8497 22.9827 42.8483 22.9715 42.9386 22.8717C43.1623 22.6245 43.2697 21.6631 43.1339 21.1242L43.0646 20.8492L42.9913 21.2842C42.9152 21.7352 42.8116 21.9289 42.5362 22.1346C42.3565 22.2689 41.8631 22.2968 41.2696 22.2063L40.9473 22.1572L41.2191 22.3327C41.6737 22.6263 42.4091 23.3095 42.8217 23.8214C43.8275 25.0695 46.2167 28.9618 47.3414 31.1846C48.1099 32.7034 48.6209 34.1659 48.7663 35.2624C48.8048 35.552 48.8453 35.7979 48.8563 35.8091C48.8674 35.8202 48.9054 35.6755 48.9408 35.4876C49.0885 34.7032 49.1302 34.5412 49.2112 34.4362C49.2863 34.3388 49.287 34.35 49.2165 34.5309C49.1726 34.6436 49.1201 34.815 49.0997 34.9117C49.0664 35.0697 49.0752 35.0638 49.1864 34.8531C49.5043 34.2508 49.7848 34.1595 50.2845 34.4958L50.5808 34.6952L50.5475 34.5105C50.47 34.0793 50.344 33.9262 49.8829 33.702C49.5155 33.5235 49.4383 33.461 49.4122 33.3212C49.3852 33.1759 49.3582 33.1564 49.2071 33.1728L49.0332 33.1918L49.1879 33.0263C49.6118 32.5731 49.7362 31.9697 49.5394 31.3218C49.3939 30.8428 49.1194 30.5281 48.6546 30.3074L48.3594 30.1673V29.8588C48.3594 29.6892 48.3434 29.5504 48.3239 29.5504C48.3044 29.5504 48.2365 29.6163 48.1731 29.6969C48.1098 29.7774 48.0283 29.8434 47.9921 29.8434C47.9559 29.8434 48.0086 29.7577 48.1091 29.6529C48.2109 29.5469 48.3091 29.3684 48.3308 29.25C48.3673 29.0511 48.3863 29.0353 48.6292 29.002C48.772 28.9824 48.9686 28.9251 49.0661 28.8747C49.2623 28.7733 49.4719 28.4723 49.4729 28.2906C49.4734 28.1927 49.5168 28.1715 49.7368 28.1615C50.2264 28.1393 50.6437 27.818 50.6443 27.4627C50.6446 27.3521 50.6845 27.335 50.9969 27.3124C51.4017 27.2832 51.6112 27.158 51.7842 26.842C51.8859 26.6564 51.9295 26.6304 52.1794 26.6063C52.3486 26.5901 52.5711 26.5114 52.7389 26.4085C52.9656 26.2695 53.0339 26.187 53.1049 25.9661C53.1892 25.7042 53.2019 25.6933 53.4639 25.6585C53.8317 25.6097 54.3747 25.329 54.6534 25.0436C54.7795 24.9144 55.0039 24.6298 55.1521 24.4111L55.4216 24.0133L55.9289 23.914C56.8484 23.7342 57.3686 23.3726 58.4683 22.1488C58.7728 21.81 59.0783 21.5413 59.3556 21.3685C59.7129 21.1458 59.7939 21.0647 59.8775 20.8458C60.0481 20.3992 59.9074 19.9725 59.41 19.4283C59.2461 19.2489 59.0063 19.0541 58.8773 18.9955C58.5462 18.8451 58.1201 18.8572 57.7637 19.0272ZM56.9434 19.9819C56.5889 20.1622 55.9232 20.4478 55.4641 20.6166C54.534 20.9584 54.2882 21.0886 54.3867 21.1871C54.432 21.2324 54.4962 21.2293 54.6127 21.1761C54.7022 21.1353 55.1446 20.9698 55.5957 20.8083C56.0469 20.6469 56.6998 20.3725 57.0465 20.1986C57.3933 20.0247 57.7499 19.8824 57.8391 19.8824C58.1615 19.8824 58.4375 20.2313 58.4375 20.6388C58.4375 20.8353 58.5241 20.9257 58.5779 20.7855C58.6423 20.6175 58.6138 20.4426 58.4725 20.1392C58.1899 19.5323 57.8884 19.5013 56.9434 19.9819ZM57.2071 20.4977C57.2828 20.5782 57.3579 20.6441 57.374 20.6441C57.3901 20.6441 57.3414 20.5782 57.2657 20.4977C57.19 20.4171 57.1148 20.3512 57.0987 20.3512C57.0826 20.3512 57.1314 20.4171 57.2071 20.4977ZM56.6797 20.8492C56.7554 20.9298 56.8305 20.9957 56.8467 20.9957C56.8628 20.9957 56.814 20.9298 56.7383 20.8492C56.6626 20.7686 56.5875 20.7027 56.5714 20.7027C56.5553 20.7027 56.604 20.7686 56.6797 20.8492ZM55.9818 21.3473C56.2163 21.6702 56.3041 21.7665 56.2222 21.6109C56.1883 21.5465 56.0772 21.4015 55.9754 21.2887L55.7902 21.0836L55.9818 21.3473ZM55.5079 21.4352C55.5836 21.5157 55.6587 21.5816 55.6748 21.5816C55.6909 21.5816 55.6421 21.5157 55.5664 21.4352C55.4907 21.3546 55.4156 21.2887 55.3995 21.2887C55.3834 21.2887 55.4321 21.3546 55.5079 21.4352ZM56.5039 21.3694C56.5039 21.3815 56.5501 21.4277 56.6065 21.4719C56.6994 21.5448 56.7015 21.5427 56.6286 21.4498C56.5521 21.3522 56.5039 21.3212 56.5039 21.3694ZM53.5075 21.8157L53.3692 21.9326L53.6275 22.1579C53.8028 22.3108 53.8704 22.4079 53.8381 22.4602C53.8081 22.5088 53.8134 22.5231 53.8526 22.4989C53.8867 22.4778 54.0419 22.6179 54.1976 22.8102C54.3603 23.0112 54.5024 23.1378 54.532 23.1082C54.5942 23.0461 54.5248 22.9144 54.4532 22.9586C54.4254 22.9758 54.387 22.9644 54.3677 22.9333C54.3482 22.9016 54.3864 22.8871 54.4545 22.9002C54.5251 22.9139 54.5901 22.8873 54.6094 22.8371C54.6367 22.766 54.6591 22.7639 54.7346 22.8252C54.804 22.8817 54.7988 22.851 54.7131 22.6998C54.5529 22.4172 53.8554 21.6988 53.7411 21.6988C53.6888 21.6988 53.5836 21.7514 53.5075 21.8157ZM54.8071 22.1914C54.9172 22.3448 55.0326 22.4858 55.0635 22.5049C55.0944 22.5241 55.0296 22.4142 54.9195 22.2609C54.8094 22.1076 54.694 21.9665 54.6631 21.9474C54.6322 21.9283 54.697 22.0381 54.8071 22.1914ZM42.8579 22.1265C42.7598 22.3097 42.5909 22.4058 42.2712 22.4598L42.002 22.5054L42.2539 22.5122C42.5651 22.5208 42.806 22.4022 42.901 22.1937C42.9906 21.9969 42.9561 21.943 42.8579 22.1265ZM52.6485 22.4137C52.5393 22.5229 52.5608 22.5604 52.8139 22.7028C52.9488 22.7785 53.2148 23.0436 53.4353 23.3218C53.6473 23.5893 53.8345 23.8082 53.8512 23.8082C53.8679 23.8082 53.8555 23.7753 53.8237 23.735C53.7918 23.6947 53.7516 23.5831 53.7342 23.487C53.7052 23.3274 53.7094 23.3218 53.783 23.4224C53.8273 23.4829 53.8507 23.5531 53.8351 23.5784C53.8195 23.6036 53.8337 23.641 53.8667 23.6614C53.8997 23.6818 53.9424 23.6574 53.9617 23.6072C53.981 23.5569 54.0269 23.534 54.0638 23.5561C54.1423 23.6031 54.1436 23.605 53.6656 22.9979C53.2098 22.4189 52.8499 22.2122 52.6485 22.4137ZM41.786 22.442C41.8282 22.4589 41.8788 22.4568 41.8982 22.4373C41.9177 22.4179 41.8831 22.4041 41.8213 22.4066C41.7531 22.4094 41.7392 22.4233 41.786 22.442ZM51.5674 23.0154C51.4358 23.1965 51.4383 23.2388 51.5892 23.3743C51.6576 23.4357 51.8974 23.743 52.122 24.0572C52.5045 24.5919 52.6512 24.762 52.6312 24.6475C52.6106 24.5286 52.6417 24.4489 52.6958 24.4823C52.7282 24.5024 52.7705 24.4777 52.7898 24.4275C52.8091 24.3773 52.8508 24.3523 52.8826 24.3719C52.9412 24.4081 52.743 24.0872 52.4442 23.6617C52.2621 23.4026 51.764 22.8696 51.7065 22.8725C51.6864 22.8736 51.6238 22.9378 51.5674 23.0154ZM42.2472 23.4859C42.679 23.9943 43.3116 24.8554 43.4485 25.121C43.5498 25.3177 43.5543 25.3565 43.48 25.3981C43.4123 25.4359 43.404 25.5006 43.4416 25.6967C43.5013 26.0078 43.6761 26.5141 43.8828 26.9747C43.9696 27.1681 44.0302 27.3344 44.0174 27.3444C43.7936 27.5194 39.2261 30.6015 36.3238 32.5359C32.6159 35.0075 29.0878 37.3932 23.3692 41.2958C18.8831 44.3573 11.4906 49.2747 9.87586 50.2714C9.44771 50.5356 9.11812 50.764 9.14344 50.7789C9.33105 50.8894 10.1253 50.9505 10.9856 50.9205C12.5 50.8678 13.8163 50.6024 15.7032 49.9693C17.9724 49.2079 20.7263 47.8265 25.0098 45.3009C29.9556 42.3847 36.5103 38.1116 41.6504 34.4527C42.0694 34.1545 43.0977 33.4265 43.9356 32.835C44.7735 32.2436 45.5689 31.6712 45.7032 31.5632C45.8376 31.4552 45.9997 31.3668 46.0636 31.3668C46.1274 31.3668 46.3142 31.4573 46.4787 31.568L46.7776 31.7692L46.9568 31.6184C47.0608 31.5309 47.1575 31.4895 47.1872 31.5197C47.3551 31.6905 47.9237 32.9864 48.2769 34.0035C48.4937 34.6276 48.5428 34.6411 48.3529 34.0243C47.9069 32.5758 47.1473 31.0411 45.4858 28.232C43.9505 25.6362 42.6615 23.7487 42.0845 23.2516C42.0097 23.1871 42.0829 23.2926 42.2472 23.4859ZM50.5501 23.6635C50.4537 23.8106 50.4559 23.8148 50.8298 24.2055C51.0371 24.422 51.2668 24.6852 51.3403 24.7903C51.4137 24.8955 51.4979 24.9666 51.5273 24.9484C51.5567 24.9303 51.5684 24.9497 51.5534 24.9917C51.5384 25.0336 51.5981 25.1474 51.686 25.2446C51.7738 25.3417 51.826 25.3957 51.8018 25.3647C51.7776 25.3336 51.7579 25.2871 51.7579 25.2613C51.7579 25.2355 51.7776 25.2176 51.8018 25.2214C51.9251 25.2409 51.9922 25.2049 51.9922 25.1194C51.9922 25.0375 52.0059 25.0355 52.0906 25.1048C52.2525 25.2371 51.46 24.1759 51.1408 23.8329C50.8117 23.4793 50.6931 23.4453 50.5501 23.6635ZM49.543 24.4059C49.4262 24.5227 49.463 24.7333 49.6199 24.8455C49.7009 24.9034 49.9397 25.1801 50.1507 25.4603C50.5338 25.969 50.594 26.0054 50.7964 25.8504C50.8317 25.8235 50.8813 25.821 50.9069 25.8449C50.9325 25.8687 50.9234 25.8304 50.8866 25.7597C50.8498 25.689 50.7869 25.6126 50.7468 25.59C50.6892 25.5575 50.6892 25.5653 50.7471 25.6277C50.8392 25.7269 50.843 25.8213 50.7527 25.7655C50.708 25.7378 50.7011 25.7496 50.7325 25.8004C50.7616 25.8475 50.7568 25.8628 50.7201 25.8402C50.6873 25.8198 50.6684 25.7303 50.6781 25.6411C50.6916 25.5193 50.614 25.3701 50.3657 25.0402C49.8613 24.3701 49.7018 24.2471 49.543 24.4059ZM44.6387 24.9215C44.6188 24.9537 44.6421 24.9801 44.6904 24.9801C44.7387 24.9801 44.7946 24.9537 44.8145 24.9215C44.8344 24.8893 44.8111 24.8629 44.7628 24.8629C44.7145 24.8629 44.6586 24.8893 44.6387 24.9215ZM51.8604 25.0204C51.804 25.0352 51.7579 25.0732 51.7579 25.105C51.7579 25.1368 51.7249 25.1438 51.6846 25.1206C51.6444 25.0974 51.6319 25.1011 51.657 25.1286C51.7421 25.2222 51.8761 25.2047 51.9363 25.0922C51.9694 25.0305 51.9888 24.9831 51.9796 24.9869C51.9704 24.9906 51.9168 25.0057 51.8604 25.0204ZM48.2806 25.1458C48.1264 25.3162 48.162 25.4234 48.5244 25.8794C48.7118 26.1152 48.9254 26.4058 48.9992 26.5251C49.098 26.6851 49.1524 26.7263 49.2059 26.6819C49.2946 26.6083 49.3588 26.6611 49.316 26.7726C49.2988 26.8176 49.257 26.8373 49.2231 26.8164C49.189 26.7953 49.1788 26.8062 49.2002 26.8408C49.2664 26.9479 49.4389 26.8803 49.4765 26.7325C49.4963 26.6549 49.5433 26.5981 49.581 26.6063C49.6325 26.6174 49.6319 26.5926 49.5788 26.5075C49.5398 26.445 49.4827 26.4095 49.4519 26.4285C49.4206 26.4478 49.4152 26.4319 49.4397 26.3923C49.5289 26.248 48.6224 25.0387 48.425 25.0387C48.399 25.0387 48.3339 25.0869 48.2806 25.1458ZM47.0551 25.7879C46.8604 26.0097 46.8786 26.1237 47.1608 26.4527C47.3092 26.6257 47.5639 26.9716 47.7268 27.2213C48.0306 27.6871 48.0865 27.7516 48.0309 27.5728C48.0008 27.4759 48.0026 27.4759 48.0652 27.5733C48.1016 27.63 48.1131 27.7058 48.0909 27.7418C48.0618 27.7889 48.0804 27.7906 48.1567 27.7479C48.2152 27.7152 48.267 27.634 48.2719 27.5674C48.2768 27.5009 48.2643 27.4567 48.2441 27.4691C48.2239 27.4817 48.169 27.4677 48.1222 27.438C48.0523 27.3938 48.056 27.3841 48.1431 27.3833C48.2085 27.3828 48.235 27.3543 48.2122 27.3092C48.1918 27.2689 48.246 27.315 48.3326 27.4117C48.4568 27.5503 48.431 27.4759 48.2108 27.0602C47.8404 26.3611 47.493 25.8685 47.3002 25.7687C47.1616 25.6971 47.1329 25.6993 47.0551 25.7879ZM43.9334 28.1605C43.2374 28.6991 43.0015 28.8996 43.0307 28.9278C43.0773 28.973 44.4922 27.906 44.4922 27.8257C44.4922 27.7479 44.3777 27.8165 43.9334 28.1605ZM44.7492 29.0815C44.5595 29.2103 44.3582 29.3158 44.3018 29.3159C44.2454 29.316 44.1993 29.3424 44.1993 29.3746C44.1993 29.4812 44.3472 29.4357 44.6707 29.2296C45.0388 28.9952 45.2478 28.9715 45.406 29.1466C45.4969 29.2471 45.5176 29.3604 45.5176 29.7568C45.5176 30.2045 45.5033 30.2639 45.3394 30.497C45.2414 30.6365 45.0568 30.8097 44.9292 30.8819C44.8017 30.9542 44.74 31.0138 44.7922 31.0143C44.8444 31.0148 45.0182 30.9109 45.1784 30.7833C45.3741 30.6275 45.4891 30.5707 45.5288 30.6103C45.6194 30.701 45.6799 29.7096 45.6015 29.4184C45.5406 29.1921 45.2674 28.8473 45.1492 28.8473C45.1188 28.8473 44.9388 28.9527 44.7492 29.0815ZM41.324 29.6553C40.859 29.9708 39.9908 30.5849 39.3946 31.0199C38.7984 31.455 37.9151 32.058 37.4317 32.3599C36.2561 33.0943 33.8033 34.7339 30.459 37.0212C25.2657 40.5732 23.4816 41.7814 20.4102 43.8262C17.3668 45.8525 17.0353 46.0705 15.4334 47.0992C12.7543 48.8196 11.3839 49.682 10.6836 50.0881C9.44724 50.8051 9.52933 50.7493 9.64541 50.7938C9.92156 50.8998 10.5642 50.6058 11.9141 49.7559C13.3241 48.8681 18.7982 45.3483 19.9685 44.5769C20.095 44.4935 20.1293 44.4863 20.0953 44.5504C20.0695 44.5987 20.1058 44.5724 20.1758 44.4918C20.2458 44.4112 20.2863 44.3779 20.2658 44.4179C20.2411 44.4657 20.2592 44.4786 20.3189 44.4557C20.3688 44.4365 20.3961 44.3992 20.3796 44.3725C20.3631 44.3459 20.3747 44.3087 20.4052 44.2898C20.4357 44.271 20.4761 44.2805 20.495 44.311C20.5138 44.3416 20.5021 44.3833 20.4688 44.4039C20.3782 44.4599 20.4667 44.5637 20.5709 44.5237C20.6457 44.495 20.6485 44.5043 20.5871 44.5783C20.5347 44.6415 20.5327 44.6676 20.5802 44.6676C20.6427 44.6676 20.7786 44.915 20.7894 45.0484C20.792 45.0807 20.8175 45.1445 20.8461 45.1902C20.8843 45.2512 20.8747 45.2645 20.8104 45.2397C20.7589 45.22 20.7227 45.2391 20.7227 45.2859C20.7227 45.3494 20.7561 45.3461 20.8855 45.2696C20.9751 45.2167 21.0325 45.1478 21.0132 45.1165C20.9936 45.0848 21.0084 45.0784 21.0468 45.1021C21.1591 45.1715 24.3014 43.2227 29.8731 39.6279C32.8536 37.7049 37.9748 34.4747 38.3881 34.2572C38.6053 34.1428 38.8443 34.0621 38.9657 34.0621C39.1404 34.0621 39.1659 34.0461 39.129 33.9596C39.0617 33.8016 39.0224 33.1829 39.0799 33.1853C39.1079 33.1865 39.1836 33.2973 39.2481 33.4317C39.3125 33.566 39.3986 33.6861 39.4393 33.6984C39.4799 33.7107 39.6062 33.6278 39.7198 33.5142C39.9264 33.3076 39.9264 33.3075 39.8365 33.0923C39.7871 32.974 39.6662 32.768 39.5677 32.6346C39.3981 32.4048 39.3951 32.3912 39.5088 32.3735C39.5747 32.3632 39.7045 32.4086 39.797 32.4746C39.8895 32.5404 40.0346 32.6207 40.1193 32.6529C40.2401 32.6989 40.2735 32.751 40.2735 32.8933V33.0752L40.5184 32.8655C40.6531 32.7502 40.7869 32.6559 40.8158 32.6559C40.8783 32.6559 40.6638 32.3608 40.4266 32.1206C40.3335 32.0264 40.2725 31.9342 40.291 31.9157C40.3533 31.8534 40.9203 31.9634 41.0127 32.0558C41.0701 32.1132 41.0961 32.2182 41.0824 32.3364C41.0558 32.5635 41.135 32.5501 41.2989 32.2997C41.3633 32.2012 41.482 32.0843 41.5625 32.0399L41.709 31.9591L41.5186 31.9193C41.3684 31.8879 41.3282 31.8501 41.3282 31.7403C41.3282 31.6386 41.2955 31.6012 41.2067 31.6012C40.9843 31.6012 41.1013 31.4059 41.3553 31.3531C41.669 31.2879 41.7199 31.3187 41.7679 31.603L41.8092 31.8473L42.0318 31.6301L42.2542 31.4127L42.1362 31.2127C42.0714 31.1027 41.964 30.9747 41.8978 30.9284C41.7789 30.8451 41.7795 30.8432 41.9374 30.7831C42.1734 30.6934 42.2873 30.7083 42.3693 30.8394C42.4729 31.0053 42.5657 30.9861 42.793 30.7516C42.9023 30.6388 43.0118 30.5465 43.0363 30.5465C43.0608 30.5465 43.0431 30.6531 42.9972 30.7835C42.9512 30.9139 42.8967 31.1478 42.876 31.3033C42.829 31.6578 42.8063 31.6932 42.5568 31.8014L42.3536 31.8896L42.5309 31.8919C42.702 31.8941 42.7075 31.9023 42.686 32.1276C42.6737 32.256 42.6909 32.439 42.7242 32.5344C42.7805 32.6962 42.7709 32.7159 42.5804 32.8284C42.468 32.8946 42.3645 32.9488 42.3502 32.9488C42.3359 32.9488 42.3243 32.817 42.3243 32.6559C42.3243 32.3547 42.3006 32.3315 42.0606 32.396C41.9571 32.4238 41.9439 32.4749 41.9481 32.8344C41.9522 33.2 41.9387 33.2506 41.8146 33.3319C41.6123 33.4644 41.545 33.387 41.5765 33.0584C41.5916 32.9015 41.5955 32.773 41.5853 32.773C41.575 32.773 41.4748 32.8537 41.3626 32.9522C41.1703 33.1211 41.1599 33.1489 41.181 33.4398C41.202 33.7272 41.1921 33.755 41.0371 33.8466C40.9455 33.9007 40.8517 33.9449 40.8287 33.9449C40.8056 33.9449 40.7982 33.7867 40.8122 33.5934C40.8343 33.2876 40.8242 33.2418 40.7348 33.2418C40.6782 33.2418 40.6158 33.2679 40.5962 33.2997C40.5756 33.3329 40.5991 33.3427 40.6513 33.3228C40.7795 33.2735 40.7643 33.3794 40.625 33.5055C40.5461 33.5769 40.5079 33.6859 40.5079 33.8394C40.5079 34.0047 40.4674 34.1079 40.3609 34.2144C40.1649 34.4104 40.075 34.3451 40.1234 34.0419L40.1617 33.8022L40.0089 33.9457C39.8756 34.071 39.858 34.1301 39.8709 34.4089C39.8796 34.5958 39.8598 34.7371 39.8233 34.7493C39.789 34.7607 39.6813 34.7031 39.5839 34.6211C39.4866 34.5393 39.3795 34.4723 39.346 34.4723C39.3125 34.4723 38.4857 35.0038 37.5088 35.6533C35.2776 37.1369 32.5596 38.8919 30.8106 39.9784C30.0694 40.4389 29.2652 40.9404 29.0235 41.0931C27.3392 42.1564 24.0047 44.1524 22.0597 45.2613C21.3386 45.6725 20.736 46.0215 20.7205 46.037C20.6947 46.0628 20.8897 46.0391 20.9229 46.0124C20.9309 46.0059 20.9573 45.9969 20.9815 45.9924C21.0057 45.9879 21.0521 45.9671 21.0847 45.9463C21.1172 45.9255 21.1832 45.9396 21.2311 45.9777C21.3371 46.0617 21.4993 46.3364 21.4106 46.2816C21.376 46.2602 21.3477 46.2722 21.3477 46.3082C21.3477 46.3442 21.3172 46.3549 21.28 46.3319C21.235 46.3041 21.2285 46.316 21.2604 46.3677C21.2955 46.4245 21.2814 46.435 21.2078 46.4067C21.1525 46.3855 21.1199 46.3886 21.1353 46.4136C21.1508 46.4386 21.0335 46.5321 20.8747 46.6214C20.7159 46.7107 20.586 46.7966 20.586 46.8125C20.586 46.8869 24.6732 44.5384 27.5293 42.8228C31.807 40.2534 35.7991 37.6895 38.5743 35.7296C39.0415 35.3996 39.5953 35.0301 39.8047 34.9086C40.0142 34.787 40.5754 34.4216 41.0518 34.0965C42.231 33.2919 42.8682 32.8841 43.3215 32.6436L43.7036 32.4409L43.5134 32.1822C43.4088 32.0399 43.3226 31.9086 43.3218 31.8903C43.321 31.8722 43.4139 31.8126 43.5282 31.7581L43.7361 31.6589L43.822 31.8644C43.8692 31.9775 43.9283 32.0699 43.9532 32.0699C43.9782 32.0699 44.0882 31.9952 44.1976 31.9038L44.3965 31.7377L44.2686 31.5307C44.0999 31.2578 44.106 31.219 44.3311 31.1295C44.5869 31.0278 45.1191 30.5749 45.2262 30.3678C45.2737 30.2759 45.3124 30.1137 45.3122 30.0074C45.3117 29.7269 45.2019 29.3746 45.1149 29.3746C45.0737 29.3746 44.8838 29.4926 44.6929 29.6367C44.502 29.7809 44.3288 29.8995 44.3081 29.9004C44.2875 29.9012 44.2538 29.8352 44.2334 29.7536C44.1421 29.3903 43.2936 29.2306 42.8596 29.4952C42.7513 29.5612 42.6575 29.6073 42.6512 29.5975C42.553 29.4438 42.245 29.0816 42.2126 29.0816C42.1889 29.0816 41.789 29.3398 41.324 29.6553ZM48.2545 30.5148C48.1288 30.5842 48.1417 30.5931 48.4596 30.6559C48.6462 30.6927 48.8912 30.7787 49.0039 30.847L49.209 30.9713L49.0918 30.8404C48.9942 30.7315 48.4601 30.416 48.4053 30.435C48.3962 30.4382 48.3284 30.4741 48.2545 30.5148ZM49.2518 33.685C49.3253 33.753 49.8793 33.9094 49.9161 33.8726C49.9266 33.8621 49.7647 33.8001 49.5563 33.7349C49.3479 33.6696 49.2109 33.6471 49.2518 33.685ZM48.4812 34.6822C48.484 34.7505 48.4979 34.7643 48.5166 34.7177C48.5336 34.6753 48.5314 34.6248 48.512 34.6053C48.4925 34.5859 48.4787 34.6204 48.4812 34.6822ZM20.4946 45.4618C20.3854 45.5493 20.3861 45.5504 20.5127 45.4891C20.5853 45.4539 20.6446 45.4129 20.6446 45.3979C20.6446 45.3531 20.6142 45.3661 20.4946 45.4618ZM5.10328 64.9824C5.17617 64.9964 5.28164 64.9959 5.33766 64.9813C5.39367 64.9666 5.33402 64.9551 5.20512 64.9558C5.07621 64.9564 5.03039 64.9684 5.10328 64.9824ZM5.80769 64.9843C5.97791 64.9961 6.24158 64.996 6.39363 64.984C6.54562 64.9719 6.40629 64.9623 6.08402 64.9624C5.76176 64.9626 5.63742 64.9724 5.80769 64.9843Z" fill="#0075FF"/>
</g>
<defs>
<clipPath id="clip0_736_956">
<rect width="70" height="70" fill="white"/>
</clipPath>
</defs>
</svg>
