<svg width="70" height="70" viewBox="0 0 70 70" fill="none" xmlns="http://www.w3.org/2000/svg">
<g clip-path="url(#clip0_649_1463)">
<path d="M31.192 0.168491C30.912 0.392491 31.01 1.31649 31.304 1.20449C31.402 1.16249 31.71 1.09249 31.976 1.03649C32.62 0.924491 32.69 0.784491 32.382 0.350491C32.102 -0.0275085 31.556 -0.111509 31.192 0.168491Z" fill="black"/>
<path d="M38.738 0.825981C38.514 0.965981 38.08 1.13399 37.758 1.18999C37.282 1.27399 37.226 1.30199 37.45 1.39999C37.716 1.49799 37.702 1.51199 37.38 1.58199C37.184 1.62399 36.694 1.70798 36.274 1.74998C35.588 1.83398 35.49 1.80598 35.224 1.48399C35.056 1.30199 34.706 1.10599 34.44 1.04999C34.034 0.965981 33.978 0.97998 34.132 1.13399C34.622 1.65199 33.95 1.88998 33.32 1.39999C32.984 1.14799 32.97 1.14799 32.69 1.39999C32.466 1.59599 32.018 1.69398 30.562 1.80598C29.554 1.90398 28.42 2.05798 28.042 2.16998C27.118 2.44998 27.104 2.42198 27.972 2.02998C28.406 1.83398 28.7 1.60999 28.7 1.46999C28.7 1.23199 28.602 1.18999 27.832 1.04999C27.342 0.97998 27.3 0.99398 27.3 1.31599C27.3 1.55399 27.146 1.76398 26.852 1.97398C26.6 2.14198 26.362 2.30998 26.334 2.33798C26.306 2.35198 26.362 2.63198 26.46 2.95399C26.628 3.45798 26.698 3.51398 27.034 3.47198C27.258 3.42999 27.384 3.47198 27.342 3.54198C27.188 3.80798 26.306 4.05998 25.592 4.05998C24.864 4.04598 24.85 4.04598 25.27 3.86398L25.69 3.68198L25.172 3.42999C24.738 3.21999 24.584 3.20599 24.276 3.34599C23.842 3.54198 23.688 3.45798 23.94 3.14999C24.038 3.02399 24.094 2.91199 24.066 2.88399C23.996 2.82799 20.468 3.84998 18.76 4.40999C17.122 4.94199 15.064 6.01999 14.168 6.80399C13.426 7.44799 13.384 7.62999 13.93 7.72799C14.084 7.75599 14.21 7.83998 14.21 7.90998C14.224 7.99398 14.28 8.20399 14.336 8.38599L14.448 8.72198L14.63 8.28799C14.854 7.76999 15.246 7.50399 16.31 7.12598C17.178 6.81799 17.388 6.85999 17.038 7.23798C16.786 7.53199 16.324 8.66599 16.17 9.37999L16.072 9.86999L16.492 9.30999C16.716 9.00199 17.29 8.38599 17.766 7.95198C18.48 7.27999 18.62 7.06998 18.634 6.64999C18.648 6.38398 18.662 6.07598 18.676 5.97798C18.704 5.57198 19.67 5.30598 19.992 5.62798C20.118 5.75398 20.006 5.94998 19.53 6.45399C19.18 6.83199 18.9 7.23798 18.9 7.36399C18.9 7.53199 19.068 7.41999 19.46 6.99998C19.922 6.49599 20.062 6.42599 20.384 6.49599C20.804 6.60799 21.28 6.32798 20.972 6.14598C20.874 6.08998 20.832 6.00599 20.86 5.97798C21.168 5.73998 23.086 4.61999 23.212 4.61999C23.45 4.61999 23.562 5.20798 23.394 5.61398C23.324 5.82398 23.016 6.10398 22.722 6.25798C22.428 6.41198 21.7 6.78999 21.098 7.11198C20.244 7.57399 19.866 7.69999 19.32 7.69999C18.732 7.69999 18.62 7.74199 18.62 7.96598C18.62 8.10599 18.718 8.30199 18.83 8.39999C18.942 8.49799 19.04 8.65199 19.04 8.76398C19.04 9.04399 18.326 9.49199 17.556 9.67398C17.178 9.77199 16.38 10.08 15.792 10.388C15.022 10.766 14.7 10.864 14.7 10.724C14.7 10.626 14.854 10.108 15.064 9.58998C15.26 9.05799 15.4 8.46999 15.372 8.27399C15.302 7.68599 14.938 7.83998 14.7 8.56799C14.532 9.11399 14.448 9.21199 14.21 9.15599C14.056 9.11399 13.692 9.18399 13.398 9.30999C13.118 9.42199 12.88 9.47799 12.88 9.42199C12.88 9.36599 13.118 9.07199 13.398 8.76398L13.93 8.21799L13.09 8.80598C12.628 9.14199 11.69 9.78599 10.99 10.262C9.77199 11.088 8.11999 12.586 8.11999 12.838C8.11999 12.908 8.30199 12.95 8.53999 12.908C9.15599 12.824 9.08599 13.118 8.18999 14.21C7.76999 14.714 7.41999 15.176 7.41999 15.204C7.41999 15.33 7.57399 15.246 8.03599 14.84C8.31599 14.588 8.55399 14.476 8.60999 14.546C8.65199 14.63 7.95199 15.428 7.05599 16.31C5.44599 17.92 5.43199 17.948 5.52999 18.452C5.64199 19.04 5.87999 19.39 5.87999 18.956C5.87999 18.144 6.49599 16.8 6.87399 16.8C7.08399 16.8 7.01399 17.248 6.49599 19.264C6.21599 20.342 5.94999 21.714 5.89399 22.33L5.80999 23.45L5.29199 22.61C4.99799 22.148 4.75999 21.868 4.75999 21.994C4.75999 22.12 4.40999 22.652 3.98999 23.17C3.56999 23.674 3.21999 24.122 3.21999 24.15C3.21999 24.164 3.12199 24.416 3.00999 24.696C2.89799 24.976 2.82799 25.2 2.85599 25.2C2.88399 25.2 3.12199 24.878 3.37399 24.472L3.83599 23.758L4.01799 24.164C4.26999 24.752 4.24199 25.228 3.84999 27.3C3.49999 29.19 3.42999 30.366 3.63999 30.87C3.75199 31.122 3.76599 31.122 3.76599 30.786C3.77999 30.338 4.10199 29.89 4.31199 30.016C4.52199 30.142 4.52199 30.996 4.32599 31.906C4.11599 32.9 3.86399 33.012 3.94799 32.06L4.01799 31.332L3.55599 31.402C2.99599 31.5 2.99599 31.486 2.85599 29.61C2.81399 28.84 2.71599 28.07 2.64599 27.888C2.46399 27.412 2.12799 27.51 2.01599 28.07C1.88999 28.784 2.04399 29.666 2.65999 31.57C3.26199 33.446 3.45799 34.3 3.26199 34.3C3.19199 34.3 2.93999 34.034 2.68799 33.712C2.21199 33.096 2.14199 33.138 2.39399 33.852C2.47799 34.09 2.61799 34.272 2.70199 34.258C2.81399 34.244 2.86999 34.594 2.86999 35.462C2.86999 36.134 2.84199 36.68 2.79999 36.68C2.75799 36.68 2.51999 36.554 2.28199 36.4L1.81999 36.12L1.83399 36.512C1.84799 37.296 2.02999 38.15 2.16999 38.108C2.33799 38.052 3.09399 41.006 3.52799 43.428C3.70999 44.394 3.89199 45.136 3.93399 45.052C4.04599 44.87 4.40999 45.528 4.54999 46.186C4.71799 46.942 4.88599 46.41 4.81599 45.36L4.75999 44.45L4.96999 45.22C5.09599 45.64 5.24999 46.662 5.31999 47.488C5.38999 48.328 5.52999 49.294 5.61399 49.658L5.78199 50.302L6.03399 49.994L6.28599 49.686L6.48199 50.162C6.91599 51.198 6.92999 51.282 6.55199 51.212L6.20199 51.142L6.52399 51.632C6.70599 51.898 6.85999 52.262 6.85999 52.43C6.85999 52.71 7.37799 53.34 7.60199 53.34C7.65799 53.34 7.67199 53.172 7.61599 52.962C7.57399 52.738 7.82599 53.088 8.17599 53.718C8.52599 54.362 8.81999 55.02 8.81999 55.202C8.81999 55.86 9.43599 56.756 10.5 57.61C11.074 58.086 11.62 58.604 11.704 58.772C11.858 59.08 13.874 60.998 15.316 62.188C16.366 63.07 18.256 64.33 19.642 65.1C20.286 65.45 20.678 65.744 20.58 65.8C20.426 65.898 24.612 68.292 26.082 68.936C27.678 69.636 29.078 70 30.184 70C30.744 70 31.22 69.958 31.22 69.916C31.22 69.874 31.15 69.72 31.08 69.566C30.982 69.384 30.982 69.3 31.08 69.3C31.15 69.3 31.22 69.188 31.22 69.048C31.22 68.824 31.444 68.81 34.048 68.81C37.1 68.81 38.71 68.614 41.328 67.97C42.112 67.774 42.77 67.62 42.784 67.62C42.812 67.62 42.84 67.914 42.84 68.292C42.84 69.104 43.134 69.58 43.638 69.58H44.002L43.61 69.216C43.288 68.922 43.232 68.782 43.302 68.362C43.4 67.802 43.708 67.41 44.268 67.116C44.632 66.92 44.66 66.934 44.66 67.186C44.66 67.732 45.066 67.76 47.124 67.396C48.188 67.214 49.238 67.018 49.462 66.976C49.798 66.892 49.84 66.92 49.84 67.256C49.84 67.676 49.868 67.69 50.764 67.41C51.142 67.298 51.464 67.2 51.492 67.2C51.506 67.2 51.52 67.424 51.52 67.69C51.52 67.998 51.436 68.222 51.282 68.306C51.142 68.39 51.086 68.46 51.142 68.46C51.338 68.46 52.108 67.872 52.024 67.802C51.982 67.76 52.08 67.536 52.234 67.326L52.514 66.92H51.898C51.548 66.92 51.086 66.878 50.848 66.836C50.47 66.766 50.428 66.71 50.54 66.486C50.624 66.346 50.68 66.024 50.68 65.772V65.296L51.744 65.394L52.808 65.506L53.228 65.03C53.452 64.764 54.124 64.288 54.712 63.952C55.3 63.63 56.014 63.14 56.266 62.874C56.532 62.594 56.7 62.468 56.63 62.58C56.56 62.706 56.63 62.692 56.812 62.524C57.162 62.23 57.246 62.02 56.91 62.3C56.756 62.426 56.7 62.426 56.7 62.314C56.7 62.23 56.798 62.118 56.91 62.076C57.022 62.02 57.12 61.88 57.12 61.74C57.12 61.614 57.302 61.25 57.54 60.928L57.946 60.354L57.204 60.62C56.546 60.844 54.81 61.18 54.306 61.18C54.208 61.18 54.334 60.956 54.6 60.69C54.964 60.312 55.118 60.242 55.314 60.354C55.524 60.466 55.65 60.382 56.014 59.892C56.252 59.556 56.574 59.038 56.728 58.73C57.022 58.156 58.394 56.238 58.786 55.86C58.912 55.734 59.416 55.146 59.92 54.53C60.424 53.914 61.264 52.906 61.796 52.29C63.042 50.834 64.61 48.454 65.52 46.648C66.094 45.486 66.29 45.206 66.5 45.262C66.724 45.318 66.752 45.206 66.808 44.366C66.836 43.848 66.906 43.372 66.948 43.33C67.004 43.274 67.186 43.33 67.368 43.456C67.998 43.904 68.082 43.778 67.97 42.588C67.83 41.076 67.844 40.11 68.026 39.802C68.11 39.662 68.18 39.62 68.18 39.718C68.18 39.928 68.698 40.222 68.88 40.11C68.964 40.054 68.866 39.732 68.67 39.326C68.376 38.766 68.348 38.64 68.53 38.64C68.656 38.64 68.866 38.374 69.02 38.024C69.16 37.688 69.342 37.394 69.426 37.366C69.51 37.324 69.412 36.68 69.16 35.574C68.656 33.502 68.642 33.236 69.034 33.138C69.3 33.068 69.314 33.096 69.23 33.558C69.174 33.908 69.202 34.09 69.328 34.174C69.916 34.552 70.014 34.076 69.58 32.816C69.412 32.368 69.286 31.696 69.286 31.346C69.272 30.73 69.258 30.702 68.922 30.772L68.558 30.842L68.6 28.966C68.67 26.11 68.67 26.096 68.194 25.816C67.844 25.62 67.704 25.326 67.284 23.996C66.668 22.092 65.646 19.782 64.764 18.298C64.414 17.696 64.12 17.108 64.12 17.01C64.12 16.912 63.854 16.52 63.518 16.156C63.196 15.778 62.552 14.994 62.09 14.42C60.956 12.992 58.842 10.906 57.386 9.77199C56.294 8.91799 53.536 7.08398 53.158 6.95798C53.074 6.92999 53.228 6.63599 53.536 6.25798C54.124 5.54398 54.152 5.12399 53.648 4.78799C53.326 4.57799 53.326 4.57799 53.494 4.94199C53.634 5.24998 53.62 5.37598 53.424 5.65598C53.088 6.17398 52.682 6.34198 52.038 6.24398C51.716 6.18798 51.394 6.08998 51.31 6.03399C51.24 5.96398 50.932 5.83798 50.638 5.73998C50.148 5.58598 50.12 5.55798 50.316 5.33398C50.442 5.19398 50.54 5.01199 50.54 4.92799C50.54 4.59199 49.658 3.79398 48.412 2.96799C46.998 2.04398 46.578 1.97398 46.088 2.58998L45.836 2.89799L45.164 2.11398C44.492 1.34399 44.464 1.32999 43.694 1.31599C43.26 1.31599 42.504 1.17599 42 1.02199C41.496 0.867981 40.656 0.699982 40.11 0.643982C39.298 0.587982 39.06 0.615982 38.738 0.825981ZM39.438 0.783981C39.396 0.825981 39.27 0.839981 39.172 0.797981C39.06 0.755981 39.102 0.713982 39.256 0.713982C39.41 0.699982 39.494 0.741982 39.438 0.783981ZM49.392 5.01199C49.588 5.30598 49.588 5.31998 49.154 5.16599C48.72 5.01199 48.636 4.89999 48.818 4.70399C48.958 4.56399 49.168 4.67599 49.392 5.01199ZM12.012 10.388C11.9 10.57 11.536 11.186 11.2 11.76C10.864 12.334 10.57 12.824 10.556 12.852C10.542 12.88 10.374 12.824 10.206 12.726L9.88399 12.558L10.262 12.264C10.472 12.096 10.64 11.9 10.64 11.83C10.64 11.676 12.012 10.08 12.138 10.08C12.18 10.08 12.124 10.22 12.012 10.388ZM9.79999 18.578C9.64599 18.816 9.64599 18.816 9.71599 18.578C9.75799 18.438 9.79999 18.242 9.81399 18.158C9.81399 18.032 9.84199 18.032 9.88399 18.158C9.92599 18.256 9.88399 18.438 9.79999 18.578ZM11.62 19.446C11.62 19.516 11.522 19.642 11.41 19.74C11.242 19.88 11.2 19.88 11.2 19.712C11.2 19.6 11.242 19.46 11.298 19.418C11.424 19.278 11.62 19.292 11.62 19.446ZM9.93999 19.796C9.93999 19.824 9.98199 19.95 10.024 20.062C10.066 20.188 9.88399 20.426 9.54799 20.692L9.01599 21.126L9.22599 20.426C9.37999 19.936 9.50599 19.74 9.68799 19.74C9.82799 19.74 9.93999 19.768 9.93999 19.796ZM10.598 20.384C10.514 20.678 9.98199 21.602 9.42199 22.428C8.86199 23.268 8.13399 24.458 7.81199 25.088L7.20999 26.25L7.16799 24.262C7.13999 22.386 7.15399 22.246 7.44799 21.91C7.61599 21.714 7.82599 21.56 7.93799 21.56C8.03599 21.56 8.21799 21.406 8.34399 21.21C8.59599 20.818 8.81999 20.86 8.81999 21.294C8.81999 21.924 9.89799 21.196 10.388 20.258C10.724 19.586 10.822 19.642 10.598 20.384ZM68.46 27.496C68.46 28.112 68.222 27.762 68.124 27.02C68.04 26.418 68.04 26.404 68.236 26.74C68.362 26.936 68.446 27.272 68.46 27.496ZM6.38399 27.286C6.49599 27.188 6.62199 27.16 6.67799 27.202C6.81799 27.342 6.14599 28.84 5.93599 28.84C5.54399 28.84 5.23599 27.664 5.47399 27.048L5.61399 26.67L5.90799 27.062C6.13199 27.37 6.22999 27.412 6.38399 27.286ZM47.18 66.15C47.18 66.29 47.04 66.36 46.732 66.36L46.27 66.346L46.62 66.15C47.068 65.898 47.18 65.898 47.18 66.15ZM45.948 67.158C46.144 67.41 45.71 67.55 45.248 67.396C44.716 67.214 44.716 66.948 45.248 66.724C45.668 66.542 45.71 66.542 45.766 66.752C45.794 66.878 45.878 67.074 45.948 67.158ZM30.73 68.754C30.926 68.95 30.226 68.894 29.75 68.684C29.33 68.488 29.344 68.488 29.96 68.558C30.31 68.6 30.646 68.684 30.73 68.754Z" fill="black"/>
<path d="M35.742 1.21826C35.952 1.24626 36.288 1.24626 36.512 1.21826C36.722 1.19026 36.54 1.16226 36.12 1.16226C35.7 1.16226 35.518 1.19026 35.742 1.21826Z" fill="black"/>
<path d="M50.932 4.95626C51.1 5.18026 51.24 5.47426 51.24 5.62826C51.24 5.78226 51.31 5.85226 51.38 5.81026C51.66 5.64226 51.506 5.19426 51.072 4.87226L50.61 4.55026L50.932 4.95626Z" fill="black"/>
<path d="M4.648 18.8023C4.326 19.1523 4.256 19.5303 4.48 19.6703C4.564 19.7123 4.62 19.8943 4.62 20.0623C4.634 20.3702 4.634 20.3702 4.844 20.0903C5.026 19.8383 5.026 19.8103 4.844 19.7683C4.564 19.7123 4.564 19.7123 4.83 19.0823C5.096 18.4663 5.04 18.3823 4.648 18.8023Z" fill="black"/>
<path d="M2.31 20.7768C2.128 21.2528 2.114 21.4488 2.226 21.6868C2.52 22.2048 2.66 21.9948 2.66 21.0708C2.66 20.5668 2.632 20.1608 2.604 20.1608C2.576 20.1608 2.436 20.4408 2.31 20.7768Z" fill="black"/>
<path d="M1.63799 23.1003C1.41399 23.4923 1.18999 23.8003 1.13399 23.8003C0.993995 23.8003 0.615995 23.3663 0.531995 23.1003C0.489995 22.9883 0.433995 23.1283 0.405995 23.4083C0.363995 23.6883 0.391995 23.8843 0.447995 23.8563C0.503995 23.8143 0.559995 24.0103 0.559995 24.2763C0.559995 24.5563 0.629995 24.7803 0.699995 24.7803C0.783995 24.7803 0.839995 24.7243 0.839995 24.6543C0.839995 24.5703 1.21799 24.2203 1.67999 23.8703C2.506 23.2263 2.68799 22.9043 2.35199 22.5683C2.09999 22.3163 2.05799 22.3443 1.63799 23.1003Z" fill="black"/>
<path d="M0.699997 25.6207C0.699997 25.7047 0.797997 25.7607 0.909997 25.7607C1.176 25.7607 1.176 25.6767 0.909997 25.5647C0.797997 25.5227 0.699997 25.5507 0.699997 25.6207Z" fill="black"/>
<path d="M67.788 44.1703C67.634 44.5203 67.55 46.3263 67.69 46.1723C67.774 46.0883 68.068 43.9463 67.998 43.8763C67.97 43.8483 67.872 43.9743 67.788 44.1703Z" fill="black"/>
<path d="M64.806 49.1684C64.68 49.6444 64.54 50.1484 64.484 50.2744C64.33 50.6104 65.002 50.4564 65.352 50.0644C65.842 49.5464 65.856 49.2104 65.422 48.7204L65.016 48.2724L64.806 49.1684Z" fill="black"/>
<path d="M63.98 50.9742C63.882 51.1282 63.84 51.2962 63.882 51.3242C63.91 51.3522 64.008 51.2262 64.092 51.0302C64.288 50.6102 64.19 50.5682 63.98 50.9742Z" fill="black"/>
<path d="M63.434 52.3887C63.126 53.3127 63.168 53.3127 63.756 52.4307L64.12 51.8707V52.4307C64.106 52.7387 64.022 53.1447 63.91 53.3407C63.406 54.2227 63.826 54.6147 64.596 53.9987C64.946 53.7047 64.974 53.6347 64.834 53.3547C64.722 53.1727 64.694 52.8227 64.764 52.4307C64.848 51.8427 64.834 51.8007 64.47 51.6607C63.84 51.4227 63.742 51.4927 63.434 52.3887Z" fill="black"/>
<path d="M60.774 55.5239C60.774 55.6919 60.41 56.2099 59.99 56.6859C59.248 57.5119 59.052 57.9879 59.36 58.1699C59.612 58.3239 59.514 58.4919 59.122 58.5899L58.73 58.7019L59.136 58.8139C59.416 58.8979 59.626 58.8559 59.878 58.7019L60.228 58.4639L59.906 58.2399C59.416 57.8619 59.64 57.5399 60.41 57.5399H61.04L61.026 56.9379C61.026 56.2799 60.802 55.0619 60.774 55.5239Z" fill="black"/>
<path d="M62.37 55.5942C62.314 55.6782 62.3 55.7622 62.342 55.8042C62.37 55.8462 62.44 55.7762 62.482 55.6502C62.58 55.4122 62.496 55.3702 62.37 55.5942Z" fill="black"/>
<path d="M61.81 56.7982C61.6 57.1342 61.46 57.4422 61.488 57.4702C61.502 57.4842 61.726 57.5542 61.964 57.5962C62.342 57.6802 62.454 57.6382 62.706 57.3162C63.098 56.8262 63.084 56.6722 62.58 56.3922L62.174 56.1682L61.81 56.7982Z" fill="black"/>
<path d="M58.786 59.5985L58.31 60.1025L58.758 59.7945C59.234 59.4725 59.43 59.2485 59.332 59.1365C59.304 59.1085 59.052 59.3185 58.786 59.5985Z" fill="black"/>
<path d="M52.85 66.6403C52.808 66.7103 52.836 66.7803 52.906 66.7803C52.99 66.7803 53.06 66.7103 53.06 66.6403C53.06 66.5563 53.032 66.5003 53.004 66.5003C52.962 66.5003 52.892 66.5563 52.85 66.6403Z" fill="black"/>
<path d="M48.37 68.1939C47.782 68.7959 47.726 68.8939 48.02 68.8099C48.622 68.6419 49.21 68.2499 49.252 67.9839C49.364 67.4239 49.028 67.5079 48.37 68.1939Z" fill="black"/>
<path d="M45.57 68.0399L45.01 68.2919L45.542 68.3059C45.892 68.3199 46.102 68.2499 46.158 68.1099C46.284 67.7739 46.172 67.7599 45.57 68.0399Z" fill="black"/>
<path d="M37.17 69.0203C35.784 69.1603 33.992 69.2863 33.18 69.3003L31.71 69.3283L33.11 69.5943C33.908 69.7623 35.434 69.9023 36.68 69.9583L38.85 70.0283L38.5 69.7483L38.15 69.4683L38.5 69.3143C38.696 69.2443 39.354 69.1323 39.97 69.0763C40.796 69.0063 40.992 68.9503 40.74 68.8663C40.25 68.7263 40.026 68.7403 37.17 69.0203Z" fill="black"/>
<path fill-rule="evenodd" clip-rule="evenodd" d="M32.6585 16.8662C32.5578 16.9876 32.5933 17.1042 33.1046 18.3333C33.8468 20.1175 34.405 21.9195 35.1236 24.8514C35.3151 25.6324 35.4839 26.3047 35.4988 26.3455C35.5143 26.3882 35.3996 26.4944 35.2288 26.5955C34.8069 26.8452 34.3205 27.3784 34.1207 27.8102C34.0272 28.0122 33.9495 28.1545 33.948 28.1264C33.9443 28.0563 33.7695 28.2065 33.7695 28.2797C33.7695 28.312 33.8132 28.3021 33.8666 28.2579C33.9547 28.185 33.9603 28.1965 33.9273 28.3826C33.8396 28.8758 33.8253 29.1932 33.8786 29.4665C33.91 29.6276 33.9296 29.7654 33.9223 29.7728C33.9149 29.7801 33.7732 29.5956 33.6073 29.3627C33.4415 29.1298 33.0058 28.5437 32.6392 28.0603C31.9946 27.2105 31.9466 27.1625 31.1865 26.6093C30.7541 26.2948 30.3362 25.9878 30.2578 25.9272L30.1153 25.8171L30.3941 25.6203C30.5474 25.5121 31.1257 25.1641 31.6792 24.847C32.8227 24.1918 32.9468 24.097 32.8361 23.9636C32.7294 23.835 32.5356 23.9286 31.585 24.5676C31.1488 24.8607 30.605 25.1956 30.3765 25.3117C30.1479 25.4278 29.9609 25.5598 29.9609 25.605C29.9609 25.7203 29.9121 25.7086 29.6921 25.5408C29.4716 25.3726 29.4336 25.3629 29.4336 25.4751C29.4336 25.552 30.7412 26.725 31.4224 27.2593C31.7751 27.5359 31.8313 27.6135 32.7451 29.0857C33.0952 29.6497 33.4753 30.2271 33.5899 30.369L33.7981 30.6268L33.4909 30.5972C33.3219 30.581 33.1836 30.5903 33.1836 30.6177C33.1836 30.6452 33.2033 30.6646 33.2275 30.6608C33.2517 30.6569 33.2847 30.6589 33.3008 30.6651C33.3698 30.6917 33.6364 30.7348 33.7988 30.7455C33.9087 30.7529 33.9686 30.786 33.9585 30.834C33.9497 30.8763 33.9676 30.8952 33.9984 30.8762C34.0292 30.8572 34.0733 30.8722 34.0965 30.9097C34.1258 30.9572 34.0961 30.9671 33.998 30.9428C33.1517 30.7324 32.745 30.6704 32.2461 30.6758C31.6423 30.6823 31.6504 30.6868 32.5977 30.8701L33.0371 30.9551L32.2754 30.9262C31.8565 30.9104 30.9336 30.8725 30.2246 30.8419C28.5107 30.7682 24.2124 30.77 23.2304 30.845C21.5816 30.9707 20.134 31.2234 18.9931 31.5844C18.3049 31.8022 17.7734 32.0386 17.7734 32.1271C17.7734 32.2506 18.9579 32.6599 19.3153 32.6599C19.4271 32.6599 19.4277 32.6649 19.33 32.7729C19.2318 32.8814 19.2343 32.8892 19.3941 32.9716C19.6541 33.1056 22.1467 33.738 23.1348 33.9207C23.2637 33.9445 23.3362 33.976 23.2959 33.9906C23.1929 34.0282 23.2045 34.1105 23.3394 34.3C23.4409 34.4424 23.5276 34.477 23.9986 34.5626C24.2969 34.6169 24.9818 34.7503 25.5204 34.8591C26.7761 35.1128 28.2845 35.2624 28.7396 35.1782C28.9197 35.1449 29.4461 34.9849 29.9095 34.8225C30.3729 34.6601 30.897 34.4788 31.0742 34.4195C31.2515 34.3602 31.5773 34.2435 31.7982 34.16C32.082 34.0527 32.1908 34.0318 32.169 34.0885C32.1521 34.1327 32.1691 34.1679 32.2068 34.1668C32.4829 34.159 32.7734 34.191 32.7734 34.2293C32.7734 34.2545 32.6614 34.2793 32.5244 34.2842C32.3875 34.2892 32.22 34.3101 32.1523 34.3308C32.0787 34.3532 31.9956 34.3346 31.9456 34.2846C31.8734 34.2124 31.8513 34.2124 31.7843 34.284C31.7417 34.3297 31.6685 34.3524 31.6218 34.3345C31.5751 34.3165 31.5514 34.3253 31.569 34.3539C31.6289 34.4507 32.1873 34.5483 32.4532 34.5084C32.5971 34.4868 32.7149 34.4834 32.7149 34.5008C32.7149 34.5183 32.6094 34.5864 32.4805 34.6521C32.3516 34.7178 32.2461 34.7527 32.2461 34.7294C32.2461 34.7062 32.2157 34.7177 32.1785 34.7548C32.1303 34.8031 32.0782 34.8049 31.9963 34.761C31.9332 34.7273 31.7812 34.7092 31.6586 34.7209C31.536 34.7326 31.4465 34.7246 31.4597 34.7033C31.4729 34.6819 31.4399 34.6475 31.3862 34.627C31.3326 34.6064 31.2701 34.6196 31.2474 34.6564C31.2173 34.705 31.1951 34.7055 31.1659 34.6582C31.1376 34.6123 31.0922 34.6111 31.0121 34.654C30.9335 34.696 30.8633 34.696 30.7848 34.654C30.6181 34.5648 30.577 34.6841 30.736 34.7955C30.8089 34.8465 30.8762 34.8654 30.8856 34.8373C30.9079 34.7702 31.1914 34.8253 31.1914 34.8968C31.1914 34.9271 31.2166 34.9365 31.2473 34.9174C31.2781 34.8984 31.3695 34.8995 31.4506 34.9199C31.5821 34.9529 31.5885 34.9665 31.5098 35.0453C31.4249 35.1302 31.2794 35.1266 31.0596 35.0343C30.9959 35.0075 30.957 35.017 30.957 35.0594C30.957 35.097 30.9868 35.1094 31.0232 35.0869C31.0636 35.0619 31.0784 35.0777 31.0611 35.1274C31.0432 35.1786 30.9536 35.2063 30.8191 35.2021C30.7016 35.1984 30.6055 35.2159 30.6055 35.241C30.6055 35.266 30.4934 35.2763 30.3565 35.2638C30.1598 35.2457 30.1351 35.2526 30.2393 35.2962C30.4118 35.3685 30.4061 35.3927 30.1905 35.5042C30.0475 35.5782 29.9721 35.5845 29.8294 35.5348C29.6149 35.46 29.5303 35.5036 29.7327 35.5846L29.8731 35.6408L29.7266 35.6491C29.5892 35.6569 29.6007 35.6665 29.8379 35.7422C29.9005 35.7623 29.8878 35.8026 29.7837 35.9134C29.6849 36.0186 29.5821 36.0599 29.4088 36.0642C29.2103 36.0691 29.1947 36.0772 29.3164 36.1121L29.4629 36.1542L29.2754 36.2528C29.1722 36.307 29.0172 36.3513 28.9307 36.3513C28.8443 36.3513 28.6909 36.4025 28.5897 36.465C28.4886 36.5275 28.3141 36.5807 28.202 36.5832C27.6768 36.5951 27.6891 36.592 27.9014 36.6602C28.0591 36.7108 28.16 36.7019 28.4157 36.615C28.6474 36.5363 28.7513 36.5245 28.7983 36.5715C28.8454 36.6186 28.8012 36.6473 28.6356 36.6772C28.5105 36.6997 28.3741 36.7453 28.3323 36.7785C28.2906 36.8117 28.1341 36.8343 27.9848 36.8286C27.8353 36.8229 27.7292 36.8344 27.7487 36.854C27.7684 36.8736 27.9841 36.8876 28.2282 36.8851C28.4722 36.8826 28.6719 36.9036 28.6719 36.9318C28.6719 36.9942 28.5502 37.0253 27.9248 37.1224C27.4419 37.1974 27.2292 37.3168 27.6792 37.2603C27.8118 37.2436 27.9027 37.2536 27.8846 37.2828C27.843 37.35 27.9866 37.4046 28.2226 37.4112C28.4052 37.4163 28.4037 37.4185 28.1311 37.5431C27.9787 37.6127 27.8534 37.6928 27.8527 37.7212C27.8521 37.7495 27.9834 37.7552 28.1445 37.7338C28.32 37.7105 28.4375 37.7176 28.4375 37.7513C28.4375 37.8224 28.1713 38.0341 28.0225 38.0814C27.9607 38.101 27.9102 38.1436 27.9102 38.1762C27.9102 38.2366 28.4103 38.2135 28.7673 38.1367C29.0682 38.072 29.0527 38.2055 28.7329 38.4353C28.3702 38.6958 28.3506 38.7509 28.6917 38.551C29.0413 38.3462 29.0816 38.3642 28.8445 38.6194L28.6426 38.8366L28.8918 38.6194C29.0288 38.4999 29.1607 38.4023 29.1848 38.4026C29.2088 38.4028 29.2599 38.4706 29.2982 38.5532C29.3593 38.6849 29.3315 38.7988 29.073 39.4756C28.7637 40.2855 28.6897 40.4321 28.7499 40.116C28.7698 40.0112 28.7781 39.9255 28.7683 39.9255C28.6934 39.9255 28.3947 40.4594 28.3913 40.5994C28.3863 40.8027 28.1727 41.3112 28.1034 41.2844C28.0405 41.26 27.9815 41.4845 27.9755 41.7712L27.9706 42.0056L28.1578 41.642C28.2608 41.4421 28.3531 41.2864 28.3628 41.2962C28.3725 41.3059 28.3076 41.5205 28.2186 41.773C28.1296 42.0255 28.0482 42.1878 28.0377 42.1335C28.0108 41.9935 27.9301 42.0114 27.8885 42.1667C27.8306 42.3828 27.8445 42.515 27.9201 42.4682C27.9687 42.4382 27.9747 42.4585 27.9409 42.538C27.9015 42.6303 27.7084 43.2391 27.575 43.6911C27.5513 43.7713 27.568 43.7854 27.65 43.754C27.7489 43.716 27.7496 43.7219 27.6612 43.8481C27.6093 43.9222 27.238 44.2958 26.8359 44.6784C26.2947 45.1934 26.0505 45.473 25.8954 45.7553C25.6351 46.2288 25.5775 46.4294 25.702 46.4294C25.8076 46.4294 26.1947 46.0001 26.2929 45.7739C26.3306 45.6872 26.752 45.2181 27.2294 44.7314C27.913 44.0344 28.1141 43.8603 28.1761 43.9118C28.259 43.9806 28.2932 43.8932 28.4349 43.2518C28.5266 42.8366 29.1205 40.6359 29.3483 39.8669C29.7204 38.6116 29.7042 38.6406 29.8987 38.8809L30.0018 39.0082L30.042 38.8663C30.0642 38.7882 30.2462 38.5874 30.4465 38.42C30.6467 38.2526 30.9663 37.9824 31.1566 37.8194C31.3469 37.6565 31.5301 37.5232 31.5638 37.5232C31.6013 37.5232 31.5978 37.5504 31.5547 37.5935C31.463 37.6852 31.464 37.8748 31.5563 37.8748C31.5958 37.8748 31.4198 38.0843 31.165 38.3406C30.9103 38.5968 30.6762 38.7905 30.6447 38.7709C30.6132 38.7515 30.6051 38.7642 30.6267 38.7991C30.6483 38.8341 30.6392 38.8793 30.6064 38.8996C30.485 38.9746 30.5512 39.0422 30.686 38.9808C30.7848 38.9357 30.8588 38.9355 30.9419 38.98C31.0401 39.0325 31.0647 39.1249 31.0956 39.5573C31.1447 40.2461 31.243 42.8244 31.2476 43.5472C31.2491 43.7781 31.272 43.9032 31.3086 43.8806C31.3408 43.8607 31.3672 43.8747 31.3672 43.9117C31.3672 43.9486 30.8156 45.0381 30.1414 46.3326C28.8999 48.7165 28.7508 49.0411 28.9291 48.9726C29.0826 48.9138 29.0432 49.0075 28.6458 49.6469C28.4221 50.0069 28.2071 50.4439 28.1185 50.7187C27.9653 51.1935 27.926 51.5271 28.0234 51.5271C28.1107 51.5271 28.2985 51.2282 28.4004 50.9272C28.452 50.7745 28.5167 50.6031 28.5443 50.5464C28.5718 50.4896 28.6647 50.2981 28.7506 50.1208C29.0385 49.5276 29.3754 49.0431 29.449 49.1167C29.5582 49.2259 29.5781 49.2013 29.7252 48.7771C29.8466 48.4272 29.8803 48.3785 29.9683 48.4256C30.132 48.5132 30.163 48.4892 30.0489 48.3631C29.9458 48.2492 29.953 48.2205 30.3102 47.3249C30.6665 46.431 31.315 44.8851 31.6303 44.1776L31.7853 43.8301L31.9257 44.0018L32.0661 44.1736L32.0682 43.9504C32.0695 43.817 32.0939 43.7418 32.1289 43.7634C32.2016 43.8083 32.2017 43.6614 32.1291 43.3473C32.0235 42.89 31.4847 39.6025 31.4845 39.4147C31.4844 39.2754 31.5062 39.2345 31.568 39.2582C31.626 39.2804 31.6439 39.2575 31.6263 39.1831C31.6092 39.1106 31.7903 38.8583 32.1872 38.4021C32.5095 38.0315 32.9513 37.5125 33.1689 37.2487C33.3865 36.985 33.5783 36.7675 33.5953 36.7653C33.6123 36.7632 33.619 36.8736 33.6101 37.0105C33.5979 37.2005 33.6069 37.2318 33.6484 37.1423C33.6782 37.0779 33.7046 36.9414 33.7068 36.8389C33.7091 36.7365 33.7524 36.6112 33.803 36.5606C33.9143 36.4493 33.9331 36.4465 33.9296 36.5417C33.9281 36.5821 33.9348 36.7073 33.9444 36.8201L33.962 37.0251L33.9976 36.8041L34.0332 36.5831L34.2822 36.8255C34.5606 37.0965 34.5693 37.0867 34.4393 36.649C34.3419 36.3211 34.3582 36.1755 34.4922 36.1755C34.5782 36.1755 34.584 36.2041 34.7408 37.406C34.8874 38.53 35.0496 38.9994 35.5588 39.7735C35.7036 39.9936 35.7654 40.1657 35.7942 40.4285C35.8298 40.7535 35.8163 40.8203 35.6406 41.1846C35.4862 41.5046 35.447 41.6599 35.4436 41.9649C35.4391 42.3849 35.5253 42.4951 35.659 42.2399L35.7396 42.0861L35.819 42.2509C35.8627 42.3416 35.9144 42.6267 35.934 42.8845L35.9696 43.3533L36.1147 43.1189L36.2598 42.8845L36.2754 43.1775C36.3116 43.8555 36.6541 49.3351 36.7497 50.7654C36.8496 52.2592 36.855 52.297 36.8935 51.7615C36.9376 51.1483 37.0071 49.5401 37.1656 45.4626L37.2704 42.7673L37.5754 42.0935C38.0403 41.0665 38.2905 40.397 38.3372 40.0551C38.3898 39.6697 38.3414 39.7193 38.1388 40.2592C37.9643 40.7241 37.6633 41.3085 37.5681 41.3673C37.5304 41.3906 37.5196 41.363 37.5399 41.2952C37.558 41.2348 37.6112 40.9612 37.6582 40.6873C37.7075 40.3998 37.8571 39.9123 38.0121 39.5343C38.3106 38.8065 38.4012 38.4528 38.427 37.9154C38.4463 37.5143 38.4763 37.2869 38.5676 36.8494C38.6012 36.6882 38.6448 36.4288 38.6644 36.2729C38.6996 35.9937 38.7018 35.991 38.8175 36.0957C38.9227 36.1909 38.9312 36.2502 38.8994 36.6659C38.8797 36.921 38.8509 37.1506 38.8352 37.176C38.8195 37.2013 38.8335 37.2387 38.8663 37.2589C38.8994 37.2794 38.9258 37.2408 38.9258 37.1716C38.9258 37.1034 38.9508 37.063 38.9814 37.0819C39.034 37.1144 39.0965 36.8924 39.1172 36.6003C39.1223 36.5279 39.1429 36.4685 39.1628 36.4685C39.2006 36.4685 41.5397 38.9859 41.7481 39.2508C41.8133 39.3338 41.8518 39.4404 41.8336 39.4878C41.7883 39.6059 41.8554 39.5963 41.9474 39.4714C42.0188 39.3744 42.0252 39.3748 42.0656 39.4792C42.1111 39.5965 41.8762 41.5501 41.6438 42.9881C41.5668 43.4641 41.5039 43.8653 41.5039 43.8799C41.5039 43.8944 41.5435 43.891 41.5918 43.8725C41.6475 43.8511 41.6797 43.8733 41.6797 43.9329C41.6797 43.9847 41.7061 44.0271 41.7383 44.0271C41.7705 44.0271 41.7969 43.9891 41.7969 43.9427C41.7969 43.7213 41.9336 43.8517 42.373 44.4921C42.8619 45.2047 42.9277 45.3286 43.0585 45.7849C43.1001 45.9299 43.1364 46.0024 43.1393 45.946C43.1483 45.7692 43.2515 45.8329 43.462 46.1455C43.6115 46.3676 43.6571 46.4888 43.6342 46.6036C43.5956 46.7962 43.8891 47.195 43.9726 47.0634C44.0106 47.0035 44.0219 47.0076 44.0226 47.0815C44.023 47.1339 44.0608 47.2079 44.1066 47.2458C44.1523 47.2837 44.303 47.5128 44.4415 47.7548C44.6501 48.1195 44.7045 48.1795 44.7591 48.1048C44.8163 48.0265 44.8443 48.0357 44.9725 48.1743C45.2739 48.5 45.8984 49.3805 45.8984 49.4796C45.8984 49.5783 46.2596 50.2671 46.3714 50.3816C46.4057 50.4167 46.4501 50.4129 46.4915 50.3716C46.54 50.323 46.5245 50.1983 46.4321 49.894C46.3633 49.6676 46.281 49.4662 46.2492 49.4466C46.2174 49.4269 46.1914 49.3654 46.1914 49.3099C46.1914 49.2544 45.9673 48.9151 45.6934 48.5558C45.4194 48.1965 45.1953 47.8874 45.1953 47.8691C45.1953 47.8507 45.2349 47.8357 45.2832 47.8357C45.3316 47.8357 45.3711 47.8066 45.3711 47.7711C45.3711 47.7142 44.4031 46.3945 43.5704 45.3162C43.4063 45.1036 43.2528 44.8319 43.223 44.7013C43.1665 44.4535 42.9957 44.3477 42.9569 44.5365C42.9409 44.6143 42.8544 44.5336 42.6306 44.2322C42.3097 43.8001 42.2788 43.7341 42.3975 43.7342C42.4542 43.7342 42.4672 43.4604 42.4551 42.5184C42.4465 41.8496 42.4596 40.8411 42.4844 40.2771C42.5283 39.2739 42.5322 39.2513 42.6611 39.233C42.7336 39.2227 42.793 39.1907 42.793 39.1619C42.793 39.1331 41.9781 38.3542 40.9821 37.431C39.2376 35.8141 39.1703 35.7437 39.1458 35.51C39.1319 35.3765 39.1263 35.2594 39.1334 35.2498C39.1407 35.24 39.3265 35.3851 39.5465 35.572C39.7665 35.7589 40.0442 35.9778 40.1635 36.0584C40.2828 36.1389 40.5607 36.3549 40.781 36.5382C41.0014 36.7216 41.5145 37.1435 41.9213 37.4757C42.328 37.808 42.8459 38.2448 43.0721 38.4464C43.4082 38.746 43.4902 38.795 43.5211 38.7146C43.5552 38.6256 43.5665 38.6272 43.639 38.7308C43.7826 38.9357 44.699 41.2438 45.2825 42.8699C45.4417 43.3136 45.4994 43.3895 45.5793 43.2603C45.6042 43.22 45.6863 43.2598 45.8025 43.3687C45.9036 43.4633 46.3605 43.8355 46.8179 44.1957C47.2752 44.556 47.6649 44.8996 47.6839 44.9594C47.7337 45.1163 48.3483 45.6816 48.4204 45.6369C48.5127 45.5799 48.4305 45.3835 48.1465 44.9825C47.9498 44.7049 47.6615 44.4446 46.9197 43.8748C46.2776 43.3816 45.9748 43.1149 46.0231 43.085C46.079 43.0505 46.0582 42.9387 45.9351 42.6106C45.8464 42.3745 45.7495 42.1418 45.7196 42.0935C45.47 41.6895 45.4077 41.5011 45.3681 41.0306C45.3157 40.4079 45.1832 40.1071 45.2084 40.668C45.2173 40.8668 45.2188 41.0236 45.2117 41.0164C45.2046 41.0092 44.961 40.5169 44.6703 39.9224C44.3797 39.3279 44.0887 38.7384 44.0237 38.6122C43.9131 38.3976 43.9118 38.376 44.0032 38.275C44.0569 38.2156 44.0894 38.1555 44.0752 38.1414C44.0202 38.0863 43.6063 37.8162 43.577 37.8162C43.545 37.8162 42.7891 37.2927 41.5039 36.3807C41.1011 36.0949 40.376 35.5874 39.8926 35.253C39.4092 34.9186 39.0052 34.6212 38.9949 34.5922C38.9846 34.5631 39.0061 34.4922 39.0429 34.4346C39.1026 34.3409 39.1067 34.3437 39.0818 34.4617C39.0665 34.5343 39.0778 34.5789 39.107 34.5608C39.1363 34.5428 39.1602 34.5051 39.1602 34.4771C39.1602 34.3648 39.5642 33.5617 39.6662 33.4714C39.7677 33.3814 39.7939 33.3816 40.0391 33.473C40.2361 33.5464 40.3272 33.6227 40.3995 33.7748C40.495 33.9755 40.4966 33.9762 40.5167 33.8257L40.5371 33.6731L41.7676 34.1654C43.9725 35.0474 44.5568 35.238 45.0551 35.238C45.8061 35.238 47.1259 35.071 48.4858 34.804C49.2058 34.6626 49.8951 34.5296 50.0175 34.5084C50.1817 34.48 50.2691 34.4221 50.3513 34.2869C50.4482 34.1275 50.4514 34.0957 50.376 34.0406C50.3092 33.9917 50.4337 33.9463 50.9211 33.8416C52.137 33.5806 53.9249 33.1321 54.09 33.0467C54.1816 32.9994 54.2908 32.9193 54.3327 32.8689C54.3965 32.792 54.3935 32.7771 54.3138 32.7771C54.2615 32.7771 54.2188 32.7507 54.2188 32.7185C54.2188 32.6863 54.2786 32.6599 54.3518 32.6599C54.5495 32.6599 55.3109 32.4387 55.5724 32.3053C55.698 32.2412 55.8008 32.1534 55.8008 32.1102C55.8008 31.9273 54.305 31.4361 52.9331 31.1686C51.6897 30.9262 50.5865 30.8365 48.418 30.8017C47.3062 30.7838 46.3306 30.7724 46.25 30.7763C46.1694 30.7803 45.6948 30.8069 45.1953 30.8356C43.7011 30.9214 41.8823 30.9729 41.927 30.9283C41.9499 30.9053 41.8971 30.8309 41.8095 30.7629C41.5104 30.5304 41.3281 30.3554 41.3281 30.3007C41.3281 30.25 41.4521 30.3121 41.8898 30.5819C42.0402 30.6746 42.036 30.6653 41.8555 30.504C41.7427 30.4034 41.6307 30.3199 41.6065 30.3186C41.4832 30.3119 41.5861 30.2088 41.7383 30.1865C41.8405 30.1715 41.9144 30.1871 41.915 30.2238C41.9155 30.2584 41.9398 30.249 41.9691 30.2027C42.0093 30.1391 42.0417 30.1347 42.102 30.1847C42.1457 30.2211 42.2598 30.2791 42.3555 30.3138L42.5293 30.3767L42.3828 30.2599L42.2363 30.143L42.4707 30.1399C42.6594 30.1374 42.685 30.1251 42.6021 30.0768C42.5454 30.0438 42.4748 30.0319 42.445 30.0503C42.4153 30.0687 42.3719 30.0528 42.3485 30.0151C42.3204 29.9696 42.3338 29.9609 42.3884 29.9892C42.4337 30.0126 42.4195 29.9904 42.357 29.9396C42.2482 29.8515 42.2521 29.8472 42.4449 29.8424L42.6465 29.8373L42.4707 29.7841C42.374 29.7548 42.2562 29.7452 42.2088 29.7629C42.1615 29.7806 42.141 29.7767 42.1633 29.7544C42.1856 29.7321 42.1189 29.6708 42.015 29.6183C41.9111 29.5657 41.8123 29.5416 41.7954 29.5648C41.7784 29.5879 41.7256 29.5823 41.6782 29.5523C41.6025 29.5044 41.6026 29.497 41.6797 29.4923C41.728 29.4893 41.8203 29.4756 41.8848 29.4618C41.9492 29.4479 42.1338 29.4335 42.2949 29.4298C42.4561 29.4261 42.7133 29.3836 42.8666 29.3354C43.0895 29.2653 43.1628 29.2623 43.2328 29.3204C43.2862 29.3647 43.3203 29.3692 43.3203 29.3319C43.3203 29.2983 43.4983 29.2523 43.7158 29.2298C43.9333 29.2073 44.148 29.1691 44.1927 29.1451C44.3083 29.0828 43.6241 29.0845 43.4602 29.1468C43.3776 29.1782 43.3108 29.1763 43.2896 29.1421C43.2705 29.1111 43.17 29.0857 43.0662 29.0857C42.9625 29.0857 42.8175 29.0436 42.744 28.9921C42.617 28.9031 42.6156 28.8947 42.7163 28.8205C42.8182 28.7455 42.8181 28.7409 42.7123 28.6999C42.6465 28.6744 42.4346 28.7136 42.1849 28.7976C41.6352 28.9824 41.5631 28.9962 41.6934 28.8918C41.7493 28.847 41.7757 28.789 41.752 28.7629C41.7284 28.7368 41.7377 28.7317 41.7729 28.7517C41.8326 28.7857 42.2597 28.5929 42.3242 28.5028C42.3403 28.4803 42.3997 28.4449 42.4561 28.4241C42.5124 28.4033 42.5586 28.3627 42.5586 28.3339C42.5586 28.2673 42.2632 28.3189 42.1518 28.4051C42.0868 28.4554 42.0778 28.4531 42.1128 28.3949C42.1671 28.3046 41.9218 28.3509 41.668 28.4787C41.4947 28.5659 41.3275 28.5835 41.3292 28.5144C41.3298 28.4902 41.4086 28.3254 41.5044 28.1482C41.6679 27.8458 41.6697 27.8361 41.5327 27.9903C41.4524 28.0808 41.3867 28.1355 41.3867 28.1119C41.3867 28.0884 41.3181 28.1331 41.2341 28.2112L41.0816 28.3533L41.2195 28.1253C41.2954 28 41.8123 27.4431 42.3682 26.8878C42.9241 26.3324 43.3789 25.8351 43.3789 25.7826C43.3789 25.7302 43.3663 25.6873 43.3509 25.6873C43.3356 25.6873 43.0784 25.8844 42.7796 26.1254L42.2363 26.5636L42.071 26.3835C41.9791 26.2833 41.9203 26.1656 41.9386 26.1181C41.9566 26.0712 41.9476 26.0474 41.9188 26.0652C41.852 26.1065 41.4801 25.5192 41.1237 24.8096C40.7586 24.0827 40.5835 23.8123 40.4778 23.8123C40.2793 23.8123 40.3981 24.1534 40.8664 24.9289C41.128 25.3621 41.4729 25.9539 41.6329 26.2439L41.9236 26.7712L41.6423 27.0056C41.3757 27.2277 41.2359 27.3705 40.7319 27.9357L40.5164 28.1773L40.5991 27.8258C40.6738 27.5084 40.7208 26.4508 40.6575 26.5142C40.6431 26.5285 40.6165 26.7241 40.5985 26.9487C40.5432 27.635 40.5031 27.8782 40.4201 28.031C40.3378 28.1824 40.316 28.1631 40.2544 27.8845C40.2401 27.8201 40.2254 27.8662 40.2216 27.9871C40.2128 28.2725 40.0723 28.2804 39.94 28.003C39.8635 27.8427 39.826 27.8132 39.7639 27.8648C39.7011 27.9169 39.6921 27.9075 39.7199 27.8195C39.749 27.7274 39.7449 27.7242 39.6951 27.8004C39.6532 27.8646 39.6591 27.9613 39.7148 28.1227C39.7585 28.2495 39.7858 28.3618 39.7756 28.3723C39.7654 28.3827 39.6781 28.3504 39.5817 28.3005C39.4419 28.2283 39.3939 28.2248 39.3452 28.2835C39.2533 28.3943 39.3607 28.5422 39.4682 28.453C39.532 28.4 39.5508 28.4016 39.5508 28.46C39.5508 28.5015 39.4917 28.5633 39.4195 28.5974C39.2964 28.6556 39.2859 28.6436 39.2502 28.4054C39.2292 28.2657 39.1375 28.0036 39.0463 27.8229C38.9552 27.6422 38.887 27.4503 38.8948 27.3964C38.9026 27.3426 38.8985 27.3271 38.8857 27.3619C38.8729 27.3967 38.6837 27.2495 38.4652 27.0349C38.1923 26.7668 37.9616 26.6006 37.7283 26.5039L37.3885 26.3631L37.4204 26.012C37.4379 25.8189 37.4803 25.6515 37.5147 25.64C37.5552 25.6266 37.5582 25.5838 37.5232 25.5184C37.4755 25.4291 37.6029 24.1196 37.6654 24.057C37.6771 24.0453 37.7288 24.1173 37.7804 24.217C37.832 24.3166 37.8892 24.3982 37.9077 24.3982C37.9262 24.3982 37.8859 24.3044 37.8183 24.1898C37.6562 23.915 37.6606 23.8362 37.9042 22.6697C38.1637 21.4269 38.1997 21.1459 38.1066 21.0884C38.0676 21.0642 38.0019 21.0806 37.9606 21.1247C37.7569 21.3422 37.369 23.8387 37.2516 25.6873L37.2126 26.3025L36.6966 26.2822C36.4128 26.271 36.0635 26.2868 35.9206 26.3173L35.6606 26.3727L35.5899 26.074C35.551 25.9096 35.3898 25.1857 35.2316 24.4653C34.5181 21.217 33.5997 18.1611 33.0202 17.1073C32.8433 16.7855 32.7675 16.7349 32.6585 16.8662ZM36.7845 18.5538C36.747 18.6516 36.8935 19.3008 36.9906 19.4673C37.0693 19.602 37.0697 19.2988 36.9913 18.8858C36.9258 18.5403 36.8416 18.4051 36.7845 18.5538ZM40.6252 20.2671C40.5497 20.3476 40.5026 20.4282 40.5207 20.4463C40.5388 20.4643 40.6111 20.3985 40.6812 20.3C40.8357 20.083 40.8115 20.0688 40.6252 20.2671ZM39.725 20.9137C39.5365 21.1104 39.2261 21.5726 39.077 21.8787C38.9892 22.0587 39.017 22.0409 39.3051 21.7322C39.7318 21.2747 39.9369 20.9747 39.9119 20.8446C39.8946 20.7549 39.8677 20.7649 39.725 20.9137ZM36.9336 22.2888C36.9336 22.321 36.9616 22.3474 36.9957 22.3474C37.0298 22.3474 37.0414 22.321 37.0215 22.2888C37.0016 22.2566 36.9737 22.2302 36.9594 22.2302C36.9452 22.2302 36.9336 22.2566 36.9336 22.2888ZM32.5399 22.4465C32.5395 22.5171 32.5654 22.5912 32.5977 22.6111C32.6723 22.6572 32.6723 22.5214 32.5977 22.406C32.5515 22.3346 32.5407 22.3421 32.5399 22.4465ZM33.1258 22.9431C33.127 23.1455 33.1896 23.3435 33.2524 23.3435C33.3345 23.3435 33.2834 22.8585 33.1982 22.8305C33.1536 22.8158 33.1253 22.8597 33.1258 22.9431ZM34.1503 23.7631C34.1665 24.1389 34.2066 24.5081 34.2396 24.5834C34.3207 24.7687 34.2652 23.4984 34.1816 23.2556C34.1361 23.1234 34.1284 23.2491 34.1503 23.7631ZM32.3114 23.4021C32.3087 23.4827 32.3321 23.5881 32.3633 23.6365C32.4138 23.7146 32.4195 23.7146 32.4151 23.6365C32.4124 23.5881 32.3891 23.4827 32.3633 23.4021L32.3164 23.2556L32.3114 23.4021ZM37.0801 23.6365C37.1384 23.7009 37.1993 23.7537 37.2154 23.7537C37.2316 23.7537 37.197 23.7009 37.1387 23.6365C37.0804 23.572 37.0194 23.5193 37.0033 23.5193C36.9872 23.5193 37.0218 23.572 37.0801 23.6365ZM36.0657 23.9148C36.0764 23.9712 36.1442 24.0258 36.2164 24.0361C36.3607 24.0567 36.3865 23.9917 36.2774 23.8826C36.1724 23.7776 36.0433 23.7973 36.0657 23.9148ZM39.6582 24.9255C39.6781 24.9578 39.706 24.9841 39.7203 24.9841C39.7345 24.9841 39.7461 24.9578 39.7461 24.9255C39.7461 24.8933 39.7182 24.8669 39.6841 24.8669C39.6499 24.8669 39.6383 24.8933 39.6582 24.9255ZM35.9375 25.2185C35.9858 25.2497 36.0518 25.2753 36.084 25.2753C36.1162 25.2753 36.103 25.2497 36.0547 25.2185C36.0064 25.1873 35.9404 25.1617 35.9082 25.1617C35.876 25.1617 35.8892 25.1873 35.9375 25.2185ZM49.1469 25.251C49.0397 25.337 49.0416 25.3382 49.1797 25.2724C49.3591 25.187 49.3923 25.1599 49.3179 25.1599C49.2864 25.1599 49.2095 25.2009 49.1469 25.251ZM31.8378 25.3064C31.8378 25.3386 31.8633 25.4045 31.8945 25.4529C31.9258 25.5012 31.9513 25.5144 31.9513 25.4822C31.9513 25.45 31.9258 25.384 31.8945 25.3357C31.8633 25.2874 31.8378 25.2742 31.8378 25.3064ZM33.6574 25.5701C33.6556 25.6184 33.6797 25.6975 33.7109 25.7459C33.7801 25.853 33.7801 25.7604 33.7109 25.5994C33.6777 25.5221 33.6595 25.5121 33.6574 25.5701ZM32.7753 25.7786C32.7743 25.8772 32.8122 26.009 32.8595 26.0716C32.9412 26.1796 32.9456 26.1763 32.9473 26.0061C32.9484 25.9075 32.9105 25.7757 32.8632 25.7131C32.7815 25.6051 32.7771 25.6083 32.7753 25.7786ZM38.8136 25.7751C38.8197 25.8861 38.9174 26.073 38.9207 25.9802C38.9226 25.9319 38.8984 25.8528 38.8672 25.8044C38.836 25.7561 38.8118 25.7429 38.8136 25.7751ZM35.6445 25.9154C35.6445 26.0011 35.8099 26.0391 36.162 26.0341C36.4912 26.0293 36.4926 26.0286 36.3184 25.9488C36.121 25.8585 35.6445 25.8348 35.6445 25.9154ZM32.0273 26.2703C32.0676 26.5703 32.2455 27.0349 32.3202 27.0349C32.3956 27.0349 32.3257 26.4956 32.2165 26.2341C32.101 25.9576 31.9883 25.9792 32.0273 26.2703ZM43.7891 26.0974C43.7891 26.1296 43.8154 26.156 43.8477 26.156C43.8799 26.156 43.9063 26.1296 43.9063 26.0974C43.9063 26.0652 43.8799 26.0388 43.8477 26.0388C43.8154 26.0388 43.7891 26.0652 43.7891 26.0974ZM39.4238 26.156C39.4438 26.1882 39.4716 26.2146 39.4859 26.2146C39.5001 26.2146 39.5117 26.1882 39.5117 26.156C39.5117 26.1238 39.4838 26.0974 39.4497 26.0974C39.4156 26.0974 39.4039 26.1238 39.4238 26.156ZM38.8086 26.3318C38.8086 26.364 38.8366 26.3904 38.8707 26.3904C38.9048 26.3904 38.9164 26.364 38.8965 26.3318C38.8766 26.2996 38.8487 26.2732 38.8344 26.2732C38.8202 26.2732 38.8086 26.2996 38.8086 26.3318ZM41.0717 26.4806C41.0152 26.6279 41.0318 26.6659 41.1009 26.5471C41.1351 26.4883 41.1508 26.4278 41.1357 26.4128C41.1206 26.3976 41.0918 26.4282 41.0717 26.4806ZM31.7824 26.5662C31.7806 26.6145 31.8047 26.6936 31.8359 26.7419C31.9051 26.8491 31.9051 26.7565 31.8359 26.5955C31.8027 26.5182 31.7845 26.5082 31.7824 26.5662ZM40.3953 26.6589C40.3981 26.7272 40.412 26.7411 40.4307 26.6944C40.4476 26.6521 40.4455 26.6015 40.426 26.582C40.4066 26.5626 40.3927 26.5972 40.3953 26.6589ZM39.9017 27.0056C39.9214 27.1345 39.9471 27.251 39.959 27.2644C40.0033 27.3148 39.9701 27.0009 39.9191 26.8884C39.8822 26.8067 39.8769 26.8423 39.9017 27.0056ZM46.3672 26.9177C46.3672 26.95 46.4199 26.9763 46.4844 26.9763C46.5488 26.9763 46.6016 26.95 46.6016 26.9177C46.6016 26.8855 46.5488 26.8591 46.4844 26.8591C46.4199 26.8591 46.3672 26.8855 46.3672 26.9177ZM39.3121 27.4158C39.3335 27.4802 39.3639 27.5923 39.3796 27.6648C39.3954 27.7373 39.4513 27.7962 39.5039 27.7958C39.559 27.7952 39.5747 27.7766 39.5409 27.7518C39.5086 27.7281 39.4351 27.6165 39.3777 27.5037C39.3202 27.3909 39.2907 27.3513 39.3121 27.4158ZM49.6211 27.6108C49.2998 27.6964 49.0801 27.7748 49.1328 27.7849C49.2358 27.8047 50.1105 27.6085 50.3516 27.5115L50.4981 27.4525L50.3516 27.4538C50.271 27.4545 49.9423 27.5252 49.6211 27.6108ZM32.6563 27.5517C32.6563 27.6224 32.7674 27.705 32.8081 27.6644C32.8228 27.6496 32.7947 27.6042 32.7456 27.5634C32.6899 27.5172 32.6563 27.5127 32.6563 27.5517ZM45.9277 27.7592C45.4988 27.9205 45.1929 28.0841 45.3142 28.0873C45.4666 28.0912 46.333 27.792 46.4237 27.7041C46.4987 27.6313 46.495 27.6213 46.3944 27.6239C46.3311 27.6256 46.1211 27.6865 45.9277 27.7592ZM42.0069 27.7756C41.976 27.856 41.9846 27.8597 42.0592 27.7977C42.1609 27.7134 42.1715 27.6794 42.0961 27.6794C42.0674 27.6794 42.0272 27.7227 42.0069 27.7756ZM39.3359 27.8774C39.3359 27.8895 39.3821 27.9357 39.4385 27.9799C39.5314 28.0527 39.5335 28.0507 39.4606 27.9578C39.3841 27.8601 39.3359 27.8292 39.3359 27.8774ZM44.6973 28.2657C43.7908 28.5079 43.2081 28.7016 43.0859 28.8013C42.9661 28.8991 42.9608 28.9138 43.0566 28.8822C43.1211 28.861 43.4902 28.7513 43.877 28.6384C44.2637 28.5256 44.6856 28.3836 44.8145 28.3229C45.0565 28.209 45.0046 28.1836 44.6973 28.2657ZM45.8984 28.8748C45.6648 28.9384 45.6481 28.9534 45.752 29.0071C45.8164 29.0403 45.9826 29.0555 46.1212 29.0409C46.3146 29.0204 46.369 28.992 46.3549 28.9188C46.3313 28.7961 46.2248 28.7859 45.8984 28.8748ZM42.0606 28.9099C42.0406 28.9421 42.0523 28.9685 42.0864 28.9685C42.1205 28.9685 42.1484 28.9421 42.1484 28.9099C42.1484 28.8777 42.1368 28.8513 42.1226 28.8513C42.1084 28.8513 42.0805 28.8777 42.0606 28.9099ZM42.002 29.0521C41.5202 29.2496 41.5125 29.2659 41.9148 29.2372C42.3548 29.2057 42.5139 29.1572 42.4833 29.0638C42.4532 28.972 42.2117 28.966 42.002 29.0521ZM44.624 29.0685C44.42 29.1077 44.4685 29.2029 44.6925 29.2029C44.9251 29.2029 45.0781 29.1539 45.0781 29.0794C45.0781 29.0267 44.8674 29.0216 44.624 29.0685ZM44.7559 29.4373C44.7359 29.4695 44.7592 29.4959 44.8075 29.4959C44.8559 29.4959 44.9117 29.4695 44.9316 29.4373C44.9516 29.405 44.9283 29.3787 44.88 29.3787C44.8316 29.3787 44.7758 29.405 44.7559 29.4373ZM28.2324 29.4959C28.2125 29.5281 28.2242 29.5544 28.2583 29.5544C28.2924 29.5544 28.3203 29.5281 28.3203 29.4959C28.3203 29.4636 28.3087 29.4373 28.2945 29.4373C28.2802 29.4373 28.2523 29.4636 28.2324 29.4959ZM26.4453 29.9028C26.5879 29.9516 27.3095 29.9867 27.2608 29.9425C27.2474 29.9302 27.0254 29.9051 26.7676 29.8864C26.4768 29.8655 26.3544 29.8717 26.4453 29.9028ZM30.2393 29.8862C30.2796 29.9025 30.3455 29.9025 30.3857 29.8862C30.4261 29.87 30.3931 29.8567 30.3125 29.8567C30.2319 29.8567 30.199 29.87 30.2393 29.8862ZM33.0078 29.9265C33.0078 29.9401 33.077 29.9964 33.1615 30.0518C33.2461 30.1072 33.2973 30.1236 33.2754 30.0882C33.2336 30.0206 33.0078 29.8841 33.0078 29.9265ZM42.0789 29.946C42.1211 29.963 42.1717 29.9609 42.1912 29.9414C42.2106 29.9219 42.176 29.9081 42.1143 29.9106C42.046 29.9134 42.0321 29.9273 42.0789 29.946ZM28.368 30.0046C28.4102 30.0216 28.4608 30.0194 28.4802 30C28.4997 29.9805 28.4651 29.9667 28.4033 29.9692C28.3351 29.972 28.3212 29.9859 28.368 30.0046ZM28.8916 30.0646C28.9641 30.0785 29.0827 30.0785 29.1553 30.0646C29.2278 30.0506 29.1685 30.0391 29.0234 30.0391C28.8784 30.0391 28.8191 30.0506 28.8916 30.0646ZM30.4883 30.0818C30.4883 30.114 30.4443 30.1404 30.3906 30.1404C30.1439 30.1404 30.424 30.207 31.3692 30.3731C31.9321 30.472 32.4585 30.5664 32.5391 30.5828C32.6515 30.6057 32.6651 30.5989 32.5977 30.5532C32.5201 30.5007 32.5205 30.4936 32.6006 30.4928C32.6505 30.4924 32.7231 30.5236 32.7617 30.5623C32.8095 30.61 32.832 30.6118 32.832 30.568C32.832 30.5325 32.9111 30.4758 33.0078 30.4421C33.1145 30.4049 33.1836 30.4026 33.1836 30.4364C33.1836 30.4669 33.2429 30.4898 33.3154 30.4873C33.402 30.4843 33.417 30.4716 33.3594 30.4504C33.311 30.4326 33.2319 30.3848 33.1836 30.3442C33.0789 30.2562 32.8953 30.2257 31.7774 30.1108C30.78 30.0083 30.4883 30.0017 30.4883 30.0818ZM29.8914 30.1218C29.9336 30.1387 29.9842 30.1366 30.0037 30.1172C30.0231 30.0977 29.9885 30.0839 29.9268 30.0864C29.8585 30.0892 29.8446 30.1031 29.8914 30.1218ZM42.793 30.199C42.9077 30.2732 42.9853 30.2732 42.9395 30.199C42.9195 30.1667 42.8587 30.1408 42.8042 30.1413C42.7188 30.1421 42.7172 30.1501 42.793 30.199ZM42.0313 30.3162C42.0313 30.3484 42.0592 30.3748 42.0933 30.3748C42.1274 30.3748 42.1391 30.3484 42.1191 30.3162C42.0992 30.2839 42.0713 30.2576 42.0571 30.2576C42.0429 30.2576 42.0313 30.2839 42.0313 30.3162ZM43.1336 30.2976C43.1758 30.3145 43.2264 30.3124 43.2458 30.293C43.2653 30.2735 43.2307 30.2597 43.169 30.2622C43.1007 30.265 43.0868 30.2789 43.1336 30.2976ZM43.383 30.3137C43.3344 30.3436 43.366 30.3699 43.4761 30.391C43.6801 30.4302 43.6973 30.4188 43.5614 30.334C43.5036 30.2979 43.4233 30.2887 43.383 30.3137ZM30.0039 30.4406C30.0437 30.4807 30.091 30.4987 30.109 30.4806C30.127 30.4626 30.0945 30.4298 30.0367 30.4078C29.9532 30.376 29.9465 30.3827 30.0039 30.4406ZM41.1542 30.6907C41.2497 30.8323 41.3678 30.9634 41.4165 30.9821C41.5465 31.0319 41.8636 30.9558 41.8386 30.8808C41.8143 30.8079 41.1608 30.4377 41.0518 30.4351C41.012 30.4341 41.0573 30.5471 41.1542 30.6907ZM42.3877 30.4547C42.4012 30.4665 42.478 30.5075 42.5586 30.5459C42.6967 30.6116 42.6986 30.6104 42.5914 30.5245C42.498 30.4497 42.3073 30.3844 42.3877 30.4547ZM44.2906 30.4977C44.3339 30.5676 44.731 30.7346 44.7996 30.7117C44.8283 30.7022 44.7179 30.6378 44.5543 30.5687C44.3907 30.4996 44.2721 30.4676 44.2906 30.4977ZM44.7742 30.4734C44.8165 30.4903 44.867 30.4882 44.8865 30.4687C44.9059 30.4493 44.8714 30.4355 44.8096 30.438C44.7413 30.4408 44.7274 30.4547 44.7742 30.4734ZM40.6634 30.5991C40.5307 30.7457 40.5417 30.8435 40.6908 30.8435C40.8004 30.8435 40.8057 30.8314 40.7358 30.741C40.6732 30.6602 40.6845 30.6625 40.7892 30.7519C40.8623 30.8143 40.9088 30.9001 40.8926 30.9424C40.8714 30.9976 40.9246 31.0188 41.0809 31.0174L41.2988 31.0154L41.1695 30.9074C41.0983 30.848 41.0566 30.783 41.0767 30.7629C41.0968 30.7428 41.0711 30.7263 41.0196 30.7263C40.968 30.7263 40.9091 30.6736 40.8887 30.6091C40.8426 30.4638 40.788 30.4614 40.6634 30.5991ZM57.5293 30.7263C57.5094 30.7585 57.521 30.7849 57.5551 30.7849C57.5892 30.7849 57.6172 30.7585 57.6172 30.7263C57.6172 30.6941 57.6056 30.6677 57.5914 30.6677C57.5771 30.6677 57.5492 30.6941 57.5293 30.7263ZM26.6797 31.4562C27.1148 31.4998 28.0903 31.5776 28.8477 31.6291C29.605 31.6807 30.5806 31.7499 31.0156 31.7829C31.9999 31.8575 33.4039 31.8627 33.594 31.7924C33.743 31.7373 33.4476 31.7058 32.0996 31.6331C31.7774 31.6157 31.3291 31.5903 31.1035 31.5767C30.6186 31.5473 28.0174 31.4441 26.7676 31.4047L25.8887 31.3769L26.6797 31.4562ZM44.8731 31.4919C43.1532 31.5478 40.1306 31.7193 39.8633 31.776C39.6962 31.8115 39.7615 31.8274 40.2149 31.8619C40.961 31.9187 44.9407 31.7068 46.6309 31.5203L47.334 31.4427L46.7774 31.4454C46.4712 31.4468 45.6143 31.4678 44.8731 31.4919ZM31.239 31.7038C31.2813 31.7208 31.3319 31.7187 31.3513 31.6992C31.3708 31.6798 31.3362 31.6659 31.2744 31.6684C31.2062 31.6713 31.1923 31.6851 31.239 31.7038ZM26.9141 32.2791C27.3026 32.4801 27.4765 32.5374 27.7051 32.5394C27.9969 32.542 29.3997 32.386 30.4012 32.2397L30.9277 32.1627L29.375 32.0945C28.521 32.057 27.5059 32.0252 27.1191 32.0238L26.416 32.0212L26.9141 32.2791ZM44.3457 32.1064C43.54 32.1464 42.8545 32.1851 42.8223 32.1925C42.6328 32.2356 45.7258 32.6158 45.9863 32.5813C46.2238 32.5499 47.1177 32.1401 47.1249 32.0593C47.1302 32.0009 46.1343 32.0177 44.3457 32.1064ZM39.3153 32.2313C39.2945 32.2522 39.2774 32.3544 39.2774 32.4585V32.6476L40.3467 33.0047C41.4662 33.3785 41.6925 33.4382 42.4878 33.5694C43.336 33.7093 45.3969 33.838 45.3041 33.7452C45.2706 33.7117 43.3438 33.1394 42.5586 32.9297C42.2524 32.8479 41.4614 32.6614 40.8008 32.5151C40.1401 32.3688 39.5442 32.2366 39.4765 32.2212C39.4088 32.2059 39.3362 32.2104 39.3153 32.2313ZM32.8027 32.4241C31.5129 32.6846 30.512 32.964 28.7012 33.5684L28.291 33.7053L28.877 33.71C29.6404 33.7162 30.7357 33.5988 30.7033 33.5143C30.69 33.4795 30.7456 33.4469 30.827 33.4419C30.934 33.4354 30.9522 33.4474 30.8928 33.485C30.7121 33.5993 31.2718 33.5324 31.8789 33.3669C32.5651 33.1799 33.811 32.7471 33.9175 32.6586C33.9541 32.6283 33.9723 32.5239 33.958 32.4267C33.9254 32.2046 33.8894 32.2046 32.8027 32.4241ZM33.5938 32.4255C33.541 32.4596 33.5337 32.4827 33.5757 32.4833C33.614 32.4837 33.6617 32.4578 33.6816 32.4255C33.7266 32.3528 33.7063 32.3528 33.5938 32.4255ZM25.7715 32.5785C24.8775 32.7543 24.7461 32.7873 24.7461 32.8357C24.7461 32.9154 25.3785 33.028 25.8594 33.0339C26.1462 33.0375 26.4107 33.0015 26.6211 32.9303C27.0512 32.7848 27.0932 32.7373 26.9141 32.5994C26.7395 32.4651 26.3812 32.4586 25.7715 32.5785ZM33.2129 32.5427C33.193 32.575 33.2046 32.6013 33.2387 32.6013C33.2728 32.6013 33.3008 32.575 33.3008 32.5427C33.3008 32.5105 33.2892 32.4841 33.2749 32.4841C33.2607 32.4841 33.2328 32.5105 33.2129 32.5427ZM46.7334 32.5807C46.6286 32.6323 46.543 32.697 46.543 32.7245C46.543 32.8132 46.7977 32.943 47.1779 33.0481C47.5031 33.138 47.6095 33.142 48.0354 33.0804C48.6245 32.9952 48.9365 32.8972 48.8208 32.8335C48.7096 32.7725 47.2624 32.4838 47.0756 32.4855C46.9922 32.4862 46.8382 32.5291 46.7334 32.5807ZM32.5977 32.6013C32.5449 32.6354 32.5376 32.6584 32.5796 32.659C32.6179 32.6595 32.6656 32.6335 32.6856 32.6013C32.7305 32.5285 32.7102 32.5285 32.5977 32.6013ZM28.584 32.757C27.7281 32.8588 27.0238 32.979 26.5687 33.1008C25.9419 33.2685 25.591 33.2788 24.5026 33.1616C23.5845 33.0627 21.5818 32.9336 21.5445 32.9709C21.466 33.0494 25.1861 33.4839 25.9452 33.485C26.3038 33.4855 26.5208 33.449 26.8555 33.332C27.0972 33.2475 27.6773 33.0769 28.1445 32.953C28.9375 32.7427 29.0225 32.7048 28.584 32.757ZM45.1953 32.9234C45.5015 33.0056 46.042 33.163 46.3965 33.2733C47.4832 33.6112 47.3921 33.6064 49.0545 33.4152C51.1179 33.1779 52.4748 32.9744 52.0936 32.9593C51.7981 32.9476 49.4546 33.1319 48.7988 33.2185C47.9044 33.3365 47.5739 33.3262 47.0307 33.1636C46.5145 33.0091 45.6866 32.8605 45.0488 32.8079L44.6387 32.7741L45.1953 32.9234ZM31.5906 32.9343C31.6329 32.9512 31.6834 32.9491 31.7029 32.9297C31.7223 32.9102 31.6878 32.8964 31.626 32.8989C31.5577 32.9017 31.5439 32.9156 31.5906 32.9343ZM31.8799 32.9948C31.7913 33.0083 31.7188 33.0402 31.7188 33.0659C31.7188 33.1259 32.0033 33.0724 32.0454 33.0045C32.0629 32.9761 32.0691 32.9568 32.0591 32.9617C32.0492 32.9665 31.9685 32.9814 31.8799 32.9948ZM39.0756 33.2589C39.0255 33.3305 38.9844 33.435 38.9844 33.491C38.9844 33.5792 39.0192 33.5716 39.2449 33.4341C39.4746 33.294 39.494 33.2665 39.4095 33.2019C39.2704 33.0957 39.1789 33.1114 39.0756 33.2589ZM33.7695 33.3458C33.5553 33.4551 33.5388 33.4734 33.6816 33.4434C33.7783 33.4231 33.8804 33.3856 33.9085 33.3601C33.9366 33.3345 33.9959 33.3275 34.0404 33.3446C34.0848 33.3616 34.1211 33.3479 34.1211 33.3142C34.1211 33.2022 34.036 33.2099 33.7695 33.3458ZM30.4482 33.3585C30.4541 33.4365 30.4985 33.511 30.5469 33.5241C30.6049 33.5397 30.6122 33.5313 30.5683 33.4993C30.5318 33.4727 30.4874 33.3982 30.4696 33.3337C30.4442 33.2413 30.4397 33.2466 30.4482 33.3585ZM33.9003 33.6464C33.8464 33.6806 33.8676 33.7159 33.9771 33.7745C34.0603 33.8191 34.2059 33.9608 34.3005 34.0895C34.5058 34.3687 34.5358 34.2401 34.3571 33.8464C34.243 33.5951 34.0881 33.5272 33.9003 33.6464ZM33.0939 33.7761C33.0767 33.804 33.0239 33.8118 32.9766 33.7936C32.9294 33.7755 32.8445 33.7806 32.7881 33.8051C32.7317 33.8295 32.6475 33.8571 32.6011 33.8664C32.2079 33.9451 32.2052 33.9539 32.5384 34.0712C32.7552 34.1476 32.9053 34.1687 33.0021 34.1364L33.1452 34.0887L32.9593 34.0117C32.8571 33.9694 32.7734 33.9099 32.7734 33.8795C32.7734 33.8491 32.8817 33.8851 33.0139 33.9594L33.2543 34.0946L33.0389 34.1896C32.874 34.2624 32.8462 34.2934 32.9204 34.3219C33.0989 34.3904 33.3621 34.3616 33.3974 34.2697C33.4227 34.2036 33.4515 34.1968 33.508 34.2437C33.5648 34.2909 33.6 34.28 33.6458 34.2012C33.6998 34.1086 33.7076 34.1075 33.7092 34.1925C33.7107 34.2743 33.7331 34.2791 33.8522 34.2228C34.0349 34.1366 33.965 33.9877 33.6981 33.8947C33.538 33.8389 33.4957 33.8434 33.4375 33.9231C33.3818 33.9993 33.3467 34.0046 33.2611 33.9499C33.1659 33.889 33.1654 33.885 33.2568 33.9134C33.3197 33.9329 33.3594 33.9146 33.3594 33.8661C33.3594 33.7747 33.1406 33.7006 33.0939 33.7761ZM39.2113 33.9343C39.1384 34.0273 39.1405 34.0293 39.2334 33.9565C39.331 33.8799 39.362 33.8318 39.3138 33.8318C39.3017 33.8318 39.2555 33.878 39.2113 33.9343ZM30.3418 33.9617C30.2129 33.9936 29.2637 34.0256 28.2324 34.0328C26.672 34.0438 26.3181 34.0618 26.1231 34.1399C25.9253 34.219 25.9115 34.2344 26.0352 34.2386C26.1157 34.2413 26.6299 34.2821 27.1777 34.3294C28.6007 34.4521 28.9759 34.4433 29.6188 34.2717C30.4556 34.0482 31.0861 33.778 30.3418 33.9617ZM43.3745 34.1547C44.4261 34.506 44.503 34.5131 46.002 34.3972C47.5227 34.2796 47.6712 34.2585 47.53 34.1794C47.3174 34.0605 46.6254 34.0142 45.868 34.0683C45.1731 34.118 44.0575 34.0832 43.0566 33.9807C42.8018 33.9546 42.8433 33.9773 43.3745 34.1547ZM28.4961 34.265C28.4961 34.2776 28.5357 34.3032 28.584 34.3218C28.6323 34.3403 28.6719 34.3299 28.6719 34.2987C28.6719 34.2675 28.6323 34.2419 28.584 34.2419C28.5357 34.2419 28.4961 34.2523 28.4961 34.265ZM53.794 34.2807C53.8343 34.297 53.9002 34.297 53.9404 34.2807C53.9808 34.2645 53.9478 34.2512 53.8672 34.2512C53.7866 34.2512 53.7537 34.2645 53.794 34.2807ZM56.5267 34.4072C56.5412 34.4307 56.7662 34.5401 57.0266 34.6501C57.3574 34.79 57.4956 34.8778 57.4854 34.9416C57.4762 34.9984 57.5225 35.0403 57.6078 35.0524C57.8502 35.0867 57.7293 34.8707 57.4115 34.7015C57.1098 34.5409 56.4798 34.3313 56.5267 34.4072ZM31.8506 34.9253C31.7486 34.9665 31.7588 35.0623 31.8652 35.0623C31.9136 35.0623 31.9531 35.0227 31.9531 34.9744C31.9531 34.926 31.9465 34.8886 31.9385 34.8911C31.9305 34.8936 31.8909 34.909 31.8506 34.9253ZM29.9868 35.0883C30.0494 35.1384 30.168 35.1786 30.2505 35.1777C30.3845 35.176 30.3891 35.1693 30.2935 35.1137C30.2346 35.0795 30.1719 35.0662 30.154 35.0841C30.136 35.102 30.0655 35.0899 29.9972 35.057C29.8765 34.9989 29.8762 34.9997 29.9868 35.0883ZM28.7305 35.4138C28.8458 35.4884 29.1239 35.4884 29.1699 35.4138C29.1922 35.3778 29.0975 35.3556 28.9244 35.3561C28.7208 35.3568 28.667 35.3728 28.7305 35.4138ZM27.7149 35.5701C27.6934 35.5915 27.6758 35.6477 27.6758 35.6948C27.6758 35.7643 27.7339 35.7728 27.9823 35.7398C28.3303 35.6937 28.3827 35.6649 28.26 35.5873C28.1606 35.5244 27.7728 35.5121 27.7149 35.5701ZM39.2774 35.5452C39.2774 35.5553 39.3301 35.6087 39.3945 35.6639C39.459 35.7191 39.5117 35.7391 39.5117 35.7083C39.5117 35.6775 39.459 35.6241 39.3945 35.5896C39.3301 35.5551 39.2774 35.5351 39.2774 35.5452ZM28.5547 35.771C28.5547 35.8039 28.5811 35.8146 28.6133 35.7947C28.6455 35.7748 28.6719 35.7855 28.6719 35.8187C28.6719 35.8518 28.7117 35.8636 28.7604 35.8449C28.8264 35.8196 28.8388 35.8376 28.8089 35.9155C28.7772 35.9981 28.7904 36.0118 28.8716 35.9807C28.9282 35.9589 29.0265 35.9412 29.0903 35.9412C29.1575 35.9412 29.1899 35.9149 29.1675 35.8786C29.1462 35.8441 29.0919 35.8301 29.0468 35.8474C29.0017 35.8648 28.9649 35.8556 28.9649 35.827C28.9649 35.7985 28.9978 35.7637 29.0381 35.7497C29.0784 35.7356 28.9861 35.7212 28.833 35.7176C28.6782 35.714 28.5547 35.7377 28.5547 35.771ZM34.4149 35.8645C34.4155 35.8905 34.4414 35.9514 34.4727 35.9998C34.5216 36.0755 34.5296 36.0739 34.5304 35.9886C34.5308 35.9341 34.5049 35.8732 34.4727 35.8533C34.4404 35.8334 34.4145 35.8384 34.4149 35.8645ZM39.7758 35.9984C39.7357 36.1249 39.7778 36.2341 39.8667 36.2341C39.9381 36.2341 39.9388 35.9585 39.8675 35.9144C39.8376 35.896 39.7964 35.9337 39.7758 35.9984ZM28.9539 36.0984C28.9961 36.1153 29.0467 36.1132 29.0662 36.0937C29.0856 36.0743 29.051 36.0605 28.9893 36.063C28.921 36.0658 28.9071 36.0797 28.9539 36.0984ZM23.4713 36.3902C23.4308 36.4066 23.4111 36.4416 23.4274 36.468C23.4649 36.5286 23.6914 36.4728 23.6914 36.4031C23.6914 36.3477 23.5913 36.3418 23.4713 36.3902ZM27.729 36.4144C27.669 36.4525 27.6904 36.467 27.8076 36.4676C27.9826 36.4686 28.0141 36.4399 27.8902 36.3923C27.847 36.3758 27.7745 36.3857 27.729 36.4144ZM28.0713 36.4487C28.1116 36.465 28.1775 36.465 28.2178 36.4487C28.2581 36.4325 28.2251 36.4192 28.1445 36.4192C28.064 36.4192 28.031 36.4325 28.0713 36.4487ZM27.1234 36.5247C27.0161 36.5632 27.0158 36.5672 27.1172 36.6061C27.2336 36.6508 27.2896 36.6238 27.2571 36.5386C27.2457 36.5087 27.1855 36.5024 27.1234 36.5247ZM24.6037 36.5791C24.5605 36.649 24.7258 36.7809 24.7996 36.7353C24.8318 36.7154 24.8433 36.6604 24.8251 36.6131C24.7888 36.5183 24.6541 36.4975 24.6037 36.5791ZM25.7312 36.5671C25.7735 36.5841 25.8241 36.5819 25.8435 36.5625C25.863 36.543 25.8284 36.5292 25.7666 36.5317C25.6984 36.5345 25.6845 36.5484 25.7312 36.5671ZM26.167 36.5675C26.2234 36.5822 26.3157 36.5822 26.3721 36.5675C26.4284 36.5528 26.3823 36.5407 26.2695 36.5407C26.1567 36.5407 26.1106 36.5528 26.167 36.5675ZM37.9316 36.7486C37.9306 36.8222 37.9704 36.8979 38.0201 36.917C38.1642 36.9724 38.1765 36.9066 38.0503 36.7551L37.9336 36.615L37.9316 36.7486ZM36.1409 37.0251C36.2045 37.3366 36.4729 37.6483 36.8604 37.8605C37.2967 38.0995 37.3431 38.028 36.9396 37.7382C36.7818 37.6248 36.5775 37.4351 36.4855 37.3167C36.3936 37.1982 36.2704 37.0447 36.2117 36.9753L36.1051 36.8494L36.1409 37.0251ZM38.6073 37.0959C38.5755 37.1794 38.5822 37.1861 38.6401 37.1287C38.6802 37.0889 38.6982 37.0416 38.6801 37.0236C38.6621 37.0056 38.6293 37.0381 38.6073 37.0959ZM26.8944 37.2336C26.6742 37.2592 26.4566 37.2944 26.411 37.3119C26.3655 37.3294 26.3281 37.3159 26.3281 37.2818C26.3281 37.2256 26.1973 37.2341 25.7553 37.3191C25.6998 37.3297 25.6081 37.3404 25.5518 37.3429C25.4954 37.3454 25.4492 37.3863 25.4492 37.4338C25.4492 37.4954 25.4956 37.5128 25.6104 37.4941C26.009 37.4296 26.6247 37.35 26.9873 37.3163C27.2048 37.296 27.3828 37.2552 27.3828 37.2255C27.3828 37.1959 27.3631 37.1751 27.3389 37.1793C27.3147 37.1836 27.1147 37.208 26.8944 37.2336ZM41.2695 37.2561C41.2695 37.3025 41.2934 37.3553 41.3227 37.3733C41.3519 37.3914 41.362 37.3534 41.3451 37.2889C41.3093 37.1521 41.2695 37.1348 41.2695 37.2561ZM33.2418 37.4758C33.2416 37.6147 33.2247 37.9128 33.2043 38.1384C33.1839 38.364 33.184 38.5334 33.2045 38.5147C33.2249 38.496 33.256 38.2851 33.2736 38.0459C33.2912 37.8068 33.3168 37.5396 33.3306 37.4522C33.3443 37.3649 33.33 37.2776 33.2989 37.2584C33.2657 37.2378 33.242 37.3282 33.2418 37.4758ZM35.6874 37.2655C35.552 37.4009 35.6999 38.1867 35.8821 38.3005C35.9739 38.3579 35.9961 38.4383 35.9961 38.7141C35.9961 38.9618 36.0163 39.0497 36.0693 39.0322C36.1182 39.016 36.1483 38.8461 36.1597 38.5236C36.1755 38.077 36.1636 38.0178 36.0085 37.7665C35.9158 37.6166 35.8154 37.4328 35.7852 37.3583C35.755 37.2837 35.711 37.2419 35.6874 37.2655ZM25.2441 37.3892C25.032 37.4402 25.0066 37.5232 25.2031 37.5232C25.3307 37.5232 25.3906 37.4951 25.3906 37.4353C25.3906 37.387 25.384 37.3505 25.376 37.3542C25.368 37.358 25.3086 37.3737 25.2441 37.3892ZM33.536 37.45C33.5367 37.531 33.5476 37.5356 33.5881 37.4718C33.6163 37.4273 33.6686 37.4091 33.7044 37.4313C33.7402 37.4534 33.7695 37.4436 33.7695 37.4095C33.7695 37.3754 33.7168 37.3474 33.6524 37.3474C33.5795 37.3474 33.5355 37.3862 33.536 37.45ZM38.8132 37.4792C38.8158 37.5517 38.8315 37.577 38.8482 37.5354C38.8729 37.474 38.8968 37.4738 38.9754 37.5344C39.0426 37.5862 39.0381 37.569 38.9607 37.4783C38.8216 37.3153 38.8075 37.3154 38.8132 37.4792ZM39.8047 37.5232C39.8047 37.5876 39.8286 37.6404 39.8578 37.6404C39.887 37.6404 39.8971 37.5876 39.8803 37.5232C39.8634 37.4587 39.8395 37.406 39.8271 37.406C39.8148 37.406 39.8047 37.4587 39.8047 37.5232ZM33.5698 37.7147C33.5748 37.7866 33.6093 37.9114 33.6465 37.9919C33.708 38.1255 33.7115 38.1183 33.6853 37.9091C33.6546 37.6641 33.5545 37.4954 33.5698 37.7147ZM27.0166 37.6792C27.0569 37.6955 27.1228 37.6955 27.1631 37.6792C27.2034 37.6629 27.1704 37.6496 27.0899 37.6496C27.0093 37.6496 26.9764 37.6629 27.0166 37.6792ZM34.4727 37.8713C34.4727 37.9017 34.4987 37.9425 34.5306 37.9622C34.5638 37.9827 34.5736 37.9592 34.5536 37.9071C34.5147 37.8056 34.4727 37.787 34.4727 37.8713ZM35.1172 37.8472C35.1172 37.9799 35.3128 38.7004 35.3561 38.7272C35.387 38.7463 35.4102 38.5986 35.4102 38.383C35.4102 38.0449 35.3949 37.9954 35.2637 37.9094C35.1831 37.8567 35.1172 37.8286 35.1172 37.8472ZM37.8325 38.0035C37.8511 38.0744 37.8399 38.164 37.8077 38.2028C37.7366 38.2885 37.818 38.8416 37.9017 38.8416C37.9897 38.8416 38.0985 38.464 38.1022 38.1459C38.105 37.8986 38.0937 37.8702 38.0176 37.9334C37.9569 37.9837 37.9297 37.986 37.9297 37.9405C37.9297 37.9043 37.9003 37.8748 37.8642 37.8748C37.8258 37.8748 37.8127 37.9277 37.8325 38.0035ZM30.981 38.1866C30.6469 38.7002 30.632 38.7282 30.7357 38.6461C30.8425 38.5617 31.1563 38.0545 31.1226 38.0208C31.1114 38.0096 31.0476 38.0841 30.981 38.1866ZM27.047 38.0911C27.104 38.106 27.1831 38.105 27.2228 38.089C27.2625 38.0729 27.2158 38.0608 27.1191 38.062C27.0225 38.0631 26.99 38.0763 27.047 38.0911ZM39.7792 38.1263C39.8012 38.1841 39.8339 38.2166 39.852 38.1985C39.87 38.1806 39.852 38.1333 39.812 38.0935C39.7541 38.0361 39.7474 38.0428 39.7792 38.1263ZM38.5742 38.1608C38.5742 38.193 38.6006 38.2357 38.6328 38.2556C38.665 38.2755 38.6914 38.2655 38.6914 38.2332C38.6914 38.201 38.665 38.1584 38.6328 38.1384C38.6006 38.1185 38.5742 38.1286 38.5742 38.1608ZM34.5899 38.3108C34.5899 38.3894 34.6162 38.4701 34.6484 38.49C34.6826 38.5111 34.707 38.4516 34.707 38.347C34.707 38.2484 34.6807 38.1677 34.6484 38.1677C34.6162 38.1677 34.5899 38.2321 34.5899 38.3108ZM42.0899 38.2485C42.0899 38.2606 42.136 38.3068 42.1924 38.351C42.2853 38.4238 42.2874 38.4218 42.2145 38.3289C42.138 38.2312 42.0899 38.2002 42.0899 38.2485ZM37.0508 38.7537C37.0508 38.8346 37.0899 38.8709 37.1771 38.8709C37.2996 38.8709 37.3002 38.8674 37.1973 38.7537C37.139 38.6892 37.0821 38.6365 37.071 38.6365C37.0599 38.6365 37.0508 38.6892 37.0508 38.7537ZM26.7928 38.8465C26.7362 38.9147 26.7324 38.9651 26.7788 39.0369C26.8509 39.1488 27.02 39.136 27.1484 39.0091C27.2265 38.932 27.2236 38.9129 27.1226 38.838C26.9758 38.7292 26.8883 38.7315 26.7928 38.8465ZM32.1289 38.8157C32.1289 38.8498 32.1553 38.8615 32.1875 38.8416C32.2197 38.8216 32.2461 38.7937 32.2461 38.7795C32.2461 38.7653 32.2197 38.7537 32.1875 38.7537C32.1553 38.7537 32.1289 38.7816 32.1289 38.8157ZM27.8612 39.4287C27.013 40.1335 26.9987 40.147 27.0463 40.1945C27.0664 40.2146 27.3286 40.0107 27.629 39.7414C27.9294 39.4721 28.2766 39.1644 28.4004 39.0576C28.5243 38.9509 28.6162 38.8556 28.6048 38.8458C28.5934 38.836 28.2587 39.0983 27.8612 39.4287ZM38.6328 38.9553C38.6328 39.0017 38.6567 39.0545 38.686 39.0725C38.7151 39.0906 38.7253 39.0526 38.7084 38.9881C38.6726 38.8513 38.6328 38.834 38.6328 38.9553ZM38.8672 38.9748C38.8672 39.0428 38.8936 39.1147 38.926 39.1346C38.9597 39.1554 38.977 39.12 38.9665 39.0517C38.9408 38.8834 38.8672 38.8264 38.8672 38.9748ZM37.0235 39.2581C37.075 39.6823 37.1052 39.739 37.2062 39.6009C37.2947 39.4799 37.3149 38.988 37.2314 38.988C37.2018 38.988 37.1335 38.9711 37.0796 38.9505C36.9922 38.9169 36.9862 38.95 37.0235 39.2581ZM41.2402 39.1638C41.2602 39.196 41.2881 39.2224 41.3023 39.2224C41.3165 39.2224 41.3281 39.196 41.3281 39.1638C41.3281 39.1316 41.3002 39.1052 41.2661 39.1052C41.232 39.1052 41.2203 39.1316 41.2402 39.1638ZM32.3047 39.2845C32.3047 39.3186 32.3311 39.3302 32.3633 39.3103C32.3955 39.2904 32.4219 39.2625 32.4219 39.2483C32.4219 39.234 32.3955 39.2224 32.3633 39.2224C32.3311 39.2224 32.3047 39.2504 32.3047 39.2845ZM38.6923 39.696C38.6929 39.8961 38.7119 39.984 38.7436 39.9339C38.79 39.8606 38.7681 39.4594 38.7146 39.4031C38.7018 39.3896 38.6918 39.5215 38.6923 39.696ZM30.5469 39.5774C30.5469 39.6115 30.5732 39.6232 30.6055 39.6033C30.6377 39.5834 30.6641 39.5555 30.6641 39.5412C30.6641 39.527 30.6377 39.5154 30.6055 39.5154C30.5732 39.5154 30.5469 39.5433 30.5469 39.5774ZM33.6524 39.8376C33.6524 39.886 33.6919 39.9255 33.7402 39.9255C33.7886 39.9255 33.8281 39.886 33.8281 39.8376C33.8281 39.7893 33.7886 39.7498 33.7402 39.7498C33.6919 39.7498 33.6524 39.7893 33.6524 39.8376ZM44.7266 39.8084C44.7266 39.8406 44.7545 39.8669 44.7886 39.8669C44.8227 39.8669 44.8344 39.8406 44.8145 39.8084C44.7945 39.7761 44.7666 39.7498 44.7524 39.7498C44.7382 39.7498 44.7266 39.7761 44.7266 39.8084ZM29.3457 40.1013C29.3258 40.1335 29.3374 40.1599 29.3715 40.1599C29.4057 40.1599 29.4336 40.1335 29.4336 40.1013C29.4336 40.0691 29.422 40.0427 29.4078 40.0427C29.3935 40.0427 29.3656 40.0691 29.3457 40.1013ZM31.9531 40.3581C31.9531 40.4386 31.9795 40.5209 32.0117 40.5408C32.0448 40.5612 32.0703 40.5132 32.0703 40.4305C32.0703 40.3499 32.044 40.2677 32.0117 40.2478C31.9786 40.2274 31.9531 40.2753 31.9531 40.3581ZM38.8086 40.5408C38.8086 40.5891 38.819 40.6287 38.8316 40.6287C38.8443 40.6287 38.8698 40.5891 38.8884 40.5408C38.9069 40.4924 38.8966 40.4529 38.8654 40.4529C38.8341 40.4529 38.8086 40.4924 38.8086 40.5408ZM39.0869 41.1707C39.0558 41.6443 39.1479 42.5623 39.2266 42.5623C39.288 42.5623 39.289 42.544 39.2777 41.633C39.2728 41.2347 39.2547 40.8721 39.2375 40.8273C39.1675 40.6451 39.1133 40.7688 39.0869 41.1707ZM28.1079 40.949C28.0462 41.1098 28.1193 41.17 28.1894 41.0161C28.2332 40.92 28.2372 40.863 28.2 40.863C28.1675 40.863 28.126 40.9017 28.1079 40.949ZM38.8477 41.0779C38.7896 41.136 38.8004 41.3904 38.8609 41.3904C38.9193 41.3904 38.9844 41.249 38.9844 41.1219C38.9844 41.0345 38.9138 41.0117 38.8477 41.0779ZM36.8856 41.4986C36.8431 41.6387 36.8212 41.7662 36.8369 41.782C36.8928 41.8379 36.9991 41.5578 36.9812 41.4022C36.965 41.2615 36.9543 41.2722 36.8856 41.4986ZM38.2006 41.422C38.1408 41.5779 38.0301 42.6237 38.0693 42.6628C38.1367 42.7302 38.156 42.6493 38.2244 42.0152C38.2892 41.4132 38.2811 41.2121 38.2006 41.422ZM36.1133 41.4327C36.1133 41.5065 36.2808 41.6526 36.3201 41.6132C36.3357 41.5977 36.2955 41.5371 36.2308 41.4786C36.1662 41.4201 36.1133 41.3995 36.1133 41.4327ZM40.2781 41.4831C40.2809 41.5514 40.2948 41.5653 40.3135 41.5186C40.3304 41.4763 40.3283 41.4257 40.3088 41.4063C40.2894 41.3868 40.2756 41.4214 40.2781 41.4831ZM29.1406 42.5071C29.1406 42.5412 29.167 42.5529 29.1992 42.533C29.2315 42.513 29.2578 42.4851 29.2578 42.4709C29.2578 42.4567 29.2315 42.4451 29.1992 42.4451C29.167 42.4451 29.1406 42.473 29.1406 42.5071ZM37.9762 43.2214C37.9484 43.6744 38.0007 43.8568 38.056 43.4998C38.115 43.1183 38.1134 42.8552 38.0521 42.8552C38.0227 42.8552 37.9886 43.0201 37.9762 43.2214ZM39.8747 43.2361C39.8759 43.3328 39.889 43.3652 39.9039 43.3082C39.9188 43.2512 39.9178 43.1721 39.9017 43.1324C39.8857 43.0928 39.8735 43.1394 39.8747 43.2361ZM34.7656 43.7293C34.7656 43.8012 34.8035 43.8513 34.8578 43.8513C34.9124 43.8513 34.9423 43.8115 34.931 43.7536C34.9026 43.6066 34.7656 43.5865 34.7656 43.7293ZM38.9028 43.8854C38.8418 44.0444 38.8628 44.2141 38.9404 44.1886C39.0265 44.1603 39.0766 43.7927 38.9943 43.7927C38.9635 43.7927 38.9223 43.8344 38.9028 43.8854ZM39.6711 44.2223C39.6058 44.3883 39.6165 44.4731 39.693 44.3966C39.7282 44.3614 39.7473 44.2836 39.7352 44.2237C39.7141 44.1189 39.7118 44.1188 39.6711 44.2223ZM35.7078 46.6444C35.7052 46.682 35.688 46.7611 35.6694 46.8202C35.6373 46.9222 35.639 46.9223 35.7028 46.8227C35.7398 46.7651 35.757 46.686 35.7412 46.6469C35.7204 46.5957 35.7111 46.595 35.7078 46.6444ZM35.1328 47.4855C34.9573 47.8423 34.8948 48.1536 35.0058 48.118C35.1037 48.0865 35.306 47.5159 35.2808 47.3423C35.267 47.2472 35.2345 47.2787 35.1328 47.4855ZM35.1212 51.1023C35.0147 51.5454 34.9169 52.0793 34.904 52.2888C34.891 52.4983 34.8701 52.8234 34.8574 53.0112C34.8449 53.1991 34.8456 53.3416 34.8593 53.328C34.9642 53.223 35.4259 50.2966 35.3374 50.2966C35.3251 50.2966 35.2278 50.6592 35.1212 51.1023ZM5.10325 65.9826C5.17614 65.9966 5.28161 65.9961 5.33762 65.9814C5.39364 65.9668 5.33399 65.9553 5.20509 65.9559C5.07618 65.9566 5.03036 65.9686 5.10325 65.9826ZM5.80766 65.9844C5.97788 65.9963 6.24155 65.9962 6.3936 65.9842C6.54559 65.9721 6.40626 65.9624 6.08399 65.9626C5.76173 65.9627 5.63739 65.9726 5.80766 65.9844Z" fill="white"/>
</g>
<defs>
<clipPath id="clip0_649_1463">
<rect width="70" height="70" fill="white"/>
</clipPath>
</defs>
</svg>
