<svg width="20" height="20" viewBox="0 0 20 20" fill="none" xmlns="http://www.w3.org/2000/svg">
<g clip-path="url(#clip0_1082_3)">
<path d="M10 0.833574C7.80295 0.824035 5.6918 1.68625 4.12959 3.23112C2.56738 4.77599 1.68165 6.87739 1.66667 9.07441C1.66617 10.2438 1.91705 11.3996 2.4023 12.4636C2.88755 13.5276 3.59584 14.4748 4.47917 15.2411V16.4802C4.48269 17.1955 4.76986 17.8801 5.27763 18.3838C5.7854 18.8875 6.47228 19.1691 7.1875 19.1669H12.8125C13.5276 19.1691 14.2143 18.8876 14.7221 18.3841C15.2298 17.8805 15.5171 17.1961 15.5208 16.4811V15.2419C16.4043 14.4755 17.1126 13.5282 17.5979 12.464C18.0831 11.3999 18.3339 10.2439 18.3333 9.07441C18.3183 6.87739 17.4326 4.77599 15.8704 3.23112C14.3082 1.68625 12.197 0.824035 10 0.833574ZM14.1667 14.1977C14.0682 14.2758 13.9886 14.3751 13.9339 14.4882C13.8792 14.6014 13.8508 14.7254 13.8508 14.8511V16.4811C13.8473 16.7536 13.7362 17.0137 13.5417 17.2046C13.3472 17.3955 13.085 17.5018 12.8125 17.5002H12.5V15.0002C12.5 14.7792 12.4122 14.5673 12.2559 14.411C12.0996 14.2547 11.8877 14.1669 11.6667 14.1669C11.4457 14.1669 11.2337 14.2547 11.0774 14.411C10.9211 14.5673 10.8333 14.7792 10.8333 15.0002V17.5002H9.16667V15.0002C9.16667 14.7792 9.07887 14.5673 8.92259 14.411C8.76631 14.2547 8.55435 14.1669 8.33333 14.1669C8.11232 14.1669 7.90036 14.2547 7.74408 14.411C7.5878 14.5673 7.5 14.7792 7.5 15.0002V17.5002H7.1875C6.91437 17.5027 6.65141 17.3968 6.45617 17.2058C6.26094 17.0148 6.14935 16.7542 6.14583 16.4811V14.8511C6.14626 14.7257 6.11837 14.6018 6.06427 14.4887C6.01016 14.3756 5.93122 14.2761 5.83333 14.1977C5.05532 13.5893 4.42593 12.8119 3.9928 11.9242C3.55967 11.0366 3.33416 10.0621 3.33333 9.07441C3.33333 7.3063 4.03571 5.6106 5.28595 4.36036C6.5362 3.11012 8.23189 2.40774 10 2.40774C11.7681 2.40774 13.4638 3.11012 14.714 4.36036C15.9643 5.6106 16.6667 7.3063 16.6667 9.07441C16.6658 10.0621 16.4403 11.0366 16.0072 11.9242C15.5741 12.8119 14.9447 13.5893 14.1667 14.1977Z" fill="white"/>
<path d="M7.5 12.4998C8.42047 12.4998 9.16667 11.7536 9.16667 10.8332C9.16667 9.9127 8.42047 9.1665 7.5 9.1665C6.57953 9.1665 5.83333 9.9127 5.83333 10.8332C5.83333 11.7536 6.57953 12.4998 7.5 12.4998Z" fill="white"/>
<path d="M12.5 12.4998C13.4205 12.4998 14.1667 11.7536 14.1667 10.8332C14.1667 9.9127 13.4205 9.1665 12.5 9.1665C11.5795 9.1665 10.8333 9.9127 10.8333 10.8332C10.8333 11.7536 11.5795 12.4998 12.5 12.4998Z" fill="white"/>
</g>
<defs>
<clipPath id="clip0_1082_3">
<rect width="20" height="20" fill="white"/>
</clipPath>
</defs>
</svg>
