<svg width="153" height="225" viewBox="0 0 153 225" fill="none" xmlns="http://www.w3.org/2000/svg">
<g clip-path="url(#clip0_887_7717)">
<path d="M129.602 19.4708C126.692 19.8129 124.207 20.231 124.116 20.459C123.965 20.6871 122.51 20.7251 119.873 20.497C115.054 20.1169 94.7479 20.0409 94.9297 20.421C95.1419 20.8391 93.8386 20.9151 91.2928 20.6491C89.9592 20.535 87.7771 20.573 86.4435 20.7631C81.6852 21.4852 79.3212 21.5992 78.8969 21.1432C78.5635 20.8391 78.1088 20.8771 77.0481 21.2572C75.6842 21.7893 74.6234 21.7133 73.9567 21.0671C73.7748 20.8771 72.5019 20.9151 71.138 21.1051C69.7742 21.2952 66.2282 21.3712 63.2883 21.2952C60.3484 21.1812 53.7716 21.0291 48.6799 20.9151C43.5882 20.8011 37.8903 20.535 36.0112 20.307C34.1321 20.0789 32.3137 20.0409 31.9803 20.155C31.6469 20.307 30.7074 20.193 29.8891 19.9649C28.2827 19.4708 26.4643 19.9269 26.04 20.9151C25.7672 21.4852 21.615 21.7893 20.7361 21.2952C19.9784 20.9151 4.52138 21.5992 4.15769 22.0553C4.00615 22.2454 3.76368 25.628 3.61214 29.5808C3.39999 35.548 3.4303 36.6882 3.79399 36.6882C4.12738 36.6882 4.15769 37.1823 3.97584 39.2347C3.8243 40.679 3.70307 43.1875 3.67276 44.8598C3.61214 47.8244 2.76352 52.2713 2.24829 52.2713C1.82398 52.2713 1.97552 54.2097 2.46045 54.7798C3.0666 55.54 3.0363 56.6802 2.43014 56.9843C2.00583 57.2123 1.94521 57.6684 2.09675 60.1769C2.21798 61.7732 2.36952 64.4717 2.46045 66.1441C2.58168 67.8164 2.79383 69.5267 2.97568 69.9828C3.15753 70.5149 3.15753 71.9592 2.94537 74.4297C2.70291 77.0902 2.70291 79.6367 2.97568 83.8936C3.15753 87.0862 3.27876 90.3169 3.21814 91.039C3.12722 92.4073 3.09691 94.8778 3.09691 100.731C3.09691 102.593 3.09691 107.154 3.09691 110.803C3.09691 114.452 3.12722 117.948 3.15753 118.594C3.18783 119.203 3.12722 121.141 3.0363 122.889C2.94537 124.6 3.00599 127.184 3.18783 128.59C3.39999 130.377 3.39999 132.239 3.18783 134.558C3.0363 136.458 2.88476 140.715 2.88476 144.06C2.88476 147.404 2.73322 153.257 2.55137 157.096C2.21798 164.318 2.21798 164.166 3.49091 170.475C3.73338 171.577 3.76368 171.615 3.79399 170.855L3.8243 169.905L4.27892 171.007C4.582 171.729 4.67292 172.565 4.52138 173.629C4.36984 174.846 4.27892 175.036 4.09707 174.466C3.94553 173.857 3.85461 173.819 3.73338 174.276C3.46061 175.112 2.91506 192.633 2.91506 199.817V206.088L4.76384 206.354C7.76432 206.734 14.9473 206.62 14.432 206.202C14.0987 205.936 14.523 205.86 15.7959 205.86C17.2507 205.898 17.4628 205.974 16.8567 206.24C16.2808 206.506 16.3717 206.506 17.3113 206.354C17.9781 206.24 19.1298 206.088 19.8875 205.974L21.2513 205.822L20.3421 206.392L19.4328 207L20.3421 206.772C24.2215 205.784 24.8276 205.708 25.7672 206.126C26.9189 206.658 31.8894 206.734 30.9498 206.202C30.1921 205.784 29.2223 205.822 43.9519 205.708C52.9533 205.632 55.772 205.518 55.8932 205.138C56.0447 204.568 57.6814 204.53 57.8329 205.138C58.0147 205.822 65.5614 206.392 68.0466 205.936C69.1377 205.708 70.1985 205.67 70.35 205.822C70.8047 206.24 88.7469 206.62 88.5347 206.24C88.2317 205.594 89.1106 205.556 90.7775 206.088C92.1111 206.544 92.6869 206.544 93.7174 206.202C94.6569 205.86 99.5971 205.822 113.114 206.012C123.116 206.126 131.966 206.278 132.845 206.278C133.693 206.316 134.603 206.126 134.815 205.898C135.118 205.594 135.815 205.594 137.149 205.822C139.028 206.164 146.877 205.86 145.968 205.518C145.726 205.404 145.453 205.214 145.362 205.062C145.271 204.91 144.453 204.301 143.544 203.693C141.695 202.515 139.937 202.249 134.391 202.211C132.633 202.211 131.208 202.135 131.269 202.021C131.329 201.907 129.784 201.907 127.844 201.945C125.874 202.021 121.328 201.907 117.661 201.641C112.963 201.337 110.932 201.337 110.72 201.603C110.478 201.907 110.538 202.021 110.963 202.021C111.266 202.021 111.447 202.135 111.357 202.249C111.235 202.363 110.538 202.173 109.75 201.831C108.689 201.413 108.205 201.337 107.932 201.641C107.629 201.945 106.144 201.983 102.87 201.717C100.325 201.565 97.2331 201.451 96.0208 201.527C94.7782 201.603 93.6265 201.527 93.4446 201.337C93.1112 200.995 80.6547 201.261 63.6823 201.945C58.53 202.173 56.8024 202.135 56.0447 201.755C54.984 201.223 53.4686 201.375 51.0136 202.249C50.2256 202.515 49.377 202.667 49.1648 202.553C48.9224 202.439 48.0131 202.515 47.1342 202.705C45.9219 203.009 45.437 202.971 45.1642 202.591C44.9521 202.325 44.8611 201.983 44.9824 201.831C45.1036 201.679 43.1639 201.641 40.6483 201.717C38.1631 201.831 35.7385 201.793 35.2838 201.603C34.8292 201.451 34.3746 201.451 34.2837 201.603C34.1321 201.945 35.7082 202.363 37.3145 202.439C38.1934 202.477 38.2237 202.477 37.466 202.781C36.1325 203.313 33.7381 203.161 31.4044 202.401C29.5254 201.755 27.9494 201.603 22.4636 201.527C18.7964 201.451 16.6142 201.527 17.6144 201.641C18.6145 201.793 19.3116 201.945 19.1298 201.983C18.9782 202.059 19.1601 202.211 19.5844 202.363C20.1602 202.591 19.7359 202.743 17.9175 202.971C16.2202 203.161 15.4928 203.123 15.4019 202.819C15.3413 202.591 14.8564 202.401 14.3411 202.401C13.4319 202.363 13.4016 202.363 13.9774 201.831C14.4927 201.299 14.2805 201.261 11.8559 201.299C10.3405 201.337 8.73417 201.147 8.21894 200.919C7.46124 200.539 7.27939 200.539 6.97632 201.071C6.40047 202.059 6.27924 200.919 6.76416 198.98C7.24909 197.042 7.58247 186.704 7.12786 187.616C6.94601 187.996 6.85508 187.768 6.85508 186.818C6.85508 186.096 6.73385 184.842 6.58231 184.043C6.43077 183.245 6.43077 182.561 6.58231 182.409C6.94601 182.143 6.9157 178.95 6.55201 178.646C6.37016 178.532 6.24893 177.772 6.24893 177.012C6.24893 175.91 6.33985 175.72 6.58231 176.176C6.82478 176.632 6.88539 176.48 6.79447 175.53C6.70355 174.846 6.76416 174.39 6.88539 174.504C7.27939 174.808 7.03693 167.662 6.64293 167.13C6.21862 166.56 6.18831 164.127 6.55201 162.303C6.76416 161.315 6.79447 161.467 6.82478 163.139C6.82478 164.242 7.00662 165.154 7.15816 165.154C7.58247 165.154 7.52186 162.037 7.00662 158.502C6.58231 155.424 6.70355 150.939 7.18847 151.927C7.49155 152.535 7.58247 149.571 7.46124 140.639C7.24909 124.638 7.3097 120.495 7.7037 119.203C7.91586 118.518 8.00678 117.834 7.88555 117.682C7.76432 117.568 7.61278 117.682 7.55217 117.948C7.46124 118.176 7.27939 118.328 7.12786 118.176C6.70355 117.872 6.79447 113.539 7.21878 113.387C7.49155 113.273 7.49155 112.475 7.21878 110.005C7.00662 108.256 6.88539 106.128 6.88539 105.292C6.9157 103.848 6.94601 103.81 7.12786 104.912C7.52186 106.85 7.85524 102.251 7.64309 98.5645C7.52186 96.8162 7.43093 94.7257 7.46124 93.8896C7.46124 93.0534 7.24909 91.153 6.94601 89.6327C6.58231 87.5803 6.5217 86.5161 6.73385 85.2619C6.97632 83.7796 6.85508 78.1925 6.43077 70.705C6.33985 69.0327 6.37016 68.3105 6.55201 68.8046C6.70355 69.2227 6.82478 70.0589 6.85508 70.705C6.85508 71.6172 6.9157 71.7312 7.15816 71.1991C7.37032 70.819 7.37032 69.3367 7.15816 67.0182C6.79447 62.6474 6.79447 62.6094 7.15816 63.2935C7.3097 63.5976 7.46124 64.2817 7.46124 64.8138C7.52186 66.5242 7.97648 64.5098 8.12801 61.7732L8.30986 59.3027L7.85524 60.899C7.61278 61.8112 7.3097 62.5334 7.15816 62.5334C7.03693 62.5334 6.94601 61.2791 7.00662 59.7588C7.03693 58.2765 7.09755 56.1101 7.12786 55.0079C7.15816 53.6016 7.24909 53.0695 7.49155 53.2595C7.76432 53.4496 7.79463 53.2215 7.64309 52.4234C7.12786 49.6868 7.09755 47.4444 7.58247 46.2661C8.21894 44.7458 8.21894 44.0237 7.61278 44.6698C7.21878 45.0879 7.15816 44.7078 7.12786 41.7812C7.06724 33.3436 6.82478 28.7447 6.40047 27.6805C6.158 27.1103 5.94585 26.2362 5.94585 25.8181C5.94585 25.0579 6.09739 24.9819 8.18863 25.0199C9.43125 25.0579 10.3708 25.21 10.3102 25.362C10.098 25.7801 10.4617 25.7421 13.9168 25.0579C15.5837 24.7159 17.4628 24.5258 18.0993 24.6018C18.8267 24.6779 19.3116 24.5638 19.4025 24.2598C19.4935 24.0317 20.1602 23.6897 20.9179 23.5756C22.3424 23.3096 22.7364 22.8155 21.7969 22.5114C21.4938 22.3974 21.7969 22.3214 22.4636 22.2834C23.1304 22.2454 24.0093 22.1313 24.4033 21.9793C24.9186 21.8273 25.0701 21.8653 24.9186 22.1694C24.7973 22.4354 24.8883 22.6254 25.161 22.6254C25.4338 22.6254 25.646 22.7775 25.646 22.9675C25.646 23.4616 24.6761 23.6897 23.979 23.3856C23.3729 23.0815 21.7059 23.8797 21.7059 24.4498C21.7059 24.6398 22.2515 24.7159 22.8879 24.6398C23.5547 24.6018 24.1912 24.7159 24.2821 24.9059C24.4033 25.1339 24.5549 25.21 24.6761 25.1339C24.7973 25.0579 25.9793 25.1339 27.3129 25.286C29.3738 25.552 30.3437 25.438 33.9806 24.5258C36.3143 23.9177 39.0723 23.3476 40.0725 23.2336C41.891 22.9675 41.9213 23.0055 41.8 23.8417C41.6788 24.6779 41.497 24.7159 38.7389 24.8299C36.0719 24.9059 35.3445 25.0579 35.6778 25.438C35.7385 25.514 36.7689 25.4 37.9812 25.248C39.3148 25.0199 40.6786 25.0199 41.4666 25.248C42.4062 25.514 42.8002 25.514 42.982 25.172C43.2245 24.6779 47.9525 24.4118 52.7715 24.6018C57.8026 24.7919 65.1977 24.7159 66.804 24.4498C68.2285 24.2218 68.38 24.2598 68.077 24.7159C67.6526 25.362 67.592 25.362 72.5322 23.0815C74.6234 22.0933 75.0174 21.9793 75.169 22.4734C75.5024 23.5376 75.3508 24.6398 74.8356 25.1339C74.3507 25.59 74.4719 25.628 75.6842 25.666C77.2299 25.666 77.6239 25.4 77.139 24.6398C76.7147 24.0317 76.8359 24.0317 79.4424 24.7159C80.5941 25.0199 81.6246 25.1339 81.7155 24.9439C81.9276 24.5258 83.1096 23.7657 83.5036 23.7657C83.6855 23.7657 83.837 24.1077 83.837 24.4878C83.837 25.172 83.8976 25.172 85.3827 24.6398C86.8072 24.1077 86.9284 24.1077 87.2921 24.7539C87.6558 25.324 88.0498 25.362 90.6866 25.172C92.3535 25.0579 94.4448 24.6018 95.354 24.2218C96.2633 23.8417 97.6574 23.3856 98.4151 23.2716C99.688 23.0435 99.779 23.0815 99.779 23.8797C99.7486 25.172 100.809 25.0959 103.295 23.6517C104.507 22.9295 106.113 22.1313 106.871 21.8653C108.083 21.4472 113.084 21.0671 112.811 21.3712C112.629 21.5992 105.871 24.4118 104.81 24.7159C103.507 25.0579 103.871 25.666 105.447 25.7041C106.477 25.7041 106.598 25.7801 106.113 26.0841C105.325 26.5402 110.72 26.2362 112.629 25.7041C113.721 25.4 113.387 25.362 110.963 25.514C108.477 25.666 108.053 25.628 108.538 25.248C109.508 24.4878 112.326 23.7657 114.387 23.7657C116.266 23.7657 116.721 24.1458 115.751 24.9059C115.327 25.248 115.66 25.286 117.115 25.0959C118.6 24.9059 118.994 24.9819 118.812 25.324C118.661 25.628 118.812 25.7041 119.328 25.552C121.873 24.7539 124.995 24.9439 127.147 25.9701C127.45 26.1221 127.389 25.8181 126.935 25.1339C126.298 24.0697 126.026 21.7133 126.51 21.3712C126.723 21.1812 131.693 22.0553 132.724 22.4734C133.451 22.7775 133.36 23.3476 132.481 23.8417C131.178 24.5638 131.633 24.7919 134.087 24.6018C135.36 24.5258 137.421 24.4498 138.634 24.4878C139.816 24.4878 140.816 24.3738 140.816 24.1838C140.816 23.4236 145.029 22.0553 145.514 22.6635C145.665 22.8535 146.514 23.0055 147.393 23.0055H148.999L148.817 27.8325C148.726 30.531 148.514 33.3056 148.362 34.0277C148.15 35.0539 148.211 35.396 148.544 35.662C149.454 36.2702 150.726 45.0499 150.181 46.8362C149.817 47.9765 149.878 51.2071 150.363 53.6016C150.848 56.0721 150.969 60.899 150.575 61.6972C150.423 61.9632 150.09 62.0773 149.757 61.9252C149.302 61.6972 149.241 61.3171 149.363 58.9606C149.423 57.4784 149.423 55.654 149.302 54.9319C149.211 54.2097 149.06 57.8584 148.969 63.1035C148.878 68.3105 148.908 73.0234 149.029 73.5555C149.241 74.4297 149.241 74.3917 149.302 73.1755C149.363 72.3013 149.423 72.1113 149.514 72.6054C149.605 73.0234 149.817 73.5555 149.969 73.8216C150.423 74.5057 150.666 82.9054 150.242 83.2095C150.06 83.3615 149.938 84.3497 149.938 85.4519C149.969 86.5541 150.029 87.1242 150.12 86.7442C150.423 85.2999 150.757 86.2501 151.09 89.5947C151.302 91.5331 151.545 93.2054 151.636 93.3195C151.727 93.4335 151.727 91.4571 151.636 88.9486C151.545 86.4401 151.575 83.2095 151.727 81.7652C151.999 79.0666 151.818 76.1781 151.424 76.9762C151.151 77.5463 150.817 71.8832 150.939 68.9186C150.969 67.7404 151.211 66.4861 151.424 66.1441C151.908 65.3839 151.969 60.595 151.666 43.9097C151.575 37.7524 151.575 33.1155 151.727 33.6476L151.969 34.5978L151.999 33.6476C151.999 33.1155 151.878 31.4052 151.696 29.8469C151.514 27.8325 151.514 25.9321 151.757 23.4616C151.939 21.5232 152.06 19.8509 151.969 19.7749C151.818 19.5848 144.513 19.1288 138.997 19.0147C136.755 18.9387 132.511 19.1668 129.602 19.4708ZM21.615 202.249C21.5241 202.363 21.2513 202.401 21.0392 202.287C20.7967 202.173 20.8876 202.059 21.221 202.059C21.5544 202.021 21.7362 202.135 21.615 202.249Z" fill="black"/>
<path d="M24.3981 208.524C27.3077 208.178 29.7929 207.756 29.8838 207.525C30.0354 207.295 31.4902 207.257 34.1269 207.487C38.9459 207.871 59.2521 207.948 59.0703 207.564C58.8581 207.141 60.1614 207.065 62.7072 207.333C64.0408 207.449 66.2229 207.41 67.5565 207.218C72.3148 206.488 74.6788 206.373 75.1031 206.834C75.4365 207.141 75.8912 207.103 76.9519 206.719C78.3158 206.181 79.3766 206.258 80.0433 206.911C80.2252 207.103 81.4981 207.065 82.862 206.872C84.2258 206.68 87.7718 206.604 90.7117 206.68C93.6516 206.796 100.228 206.949 105.32 207.065C110.412 207.18 116.11 207.449 117.989 207.679C119.868 207.91 121.686 207.948 122.02 207.833C122.353 207.679 123.293 207.794 124.111 208.025C125.717 208.524 127.536 208.063 127.96 207.065C128.233 206.488 132.385 206.181 133.264 206.68C134.022 207.065 149.479 206.373 149.842 205.912C149.994 205.72 150.236 202.301 150.388 198.307C150.6 192.276 150.57 191.124 150.206 191.124C149.873 191.124 149.842 190.624 150.024 188.55C150.176 187.09 150.297 184.555 150.327 182.865C150.388 179.869 151.236 175.375 151.752 175.375C152.176 175.375 152.024 173.416 151.54 172.84C150.933 172.071 150.964 170.919 151.57 170.612C151.994 170.381 152.055 169.92 151.903 167.385C151.782 165.772 151.63 163.045 151.54 161.354C151.418 159.664 151.206 157.936 151.024 157.475C150.842 156.937 150.842 155.477 151.055 152.981C151.297 150.292 151.297 147.718 151.024 143.416C150.842 140.189 150.721 136.924 150.782 136.195C150.873 134.812 150.903 132.315 150.903 126.4C150.903 124.517 150.903 119.908 150.903 116.22C150.903 112.533 150.873 108.999 150.842 108.346C150.812 107.731 150.873 105.772 150.964 104.005C151.055 102.277 150.994 99.6649 150.812 98.2437C150.6 96.4383 150.6 94.5562 150.812 92.213C150.964 90.2924 151.115 85.9903 151.115 82.6101C151.115 79.2298 151.267 73.3144 151.449 69.4348C151.782 62.1365 151.782 62.2902 150.509 55.9138C150.267 54.7999 150.236 54.7615 150.206 55.5297L150.176 56.49L149.721 55.376C149.418 54.6462 149.327 53.8012 149.479 52.7256C149.63 51.4964 149.721 51.3044 149.903 51.8806C150.054 52.4952 150.145 52.5336 150.267 52.0726C150.539 51.2276 151.085 33.5197 151.085 26.2598V19.9219L149.236 19.653C146.236 19.2689 139.053 19.3841 139.568 19.8066C139.901 20.0755 139.477 20.1524 138.204 20.1524C136.749 20.1139 136.537 20.0371 137.143 19.7682C137.719 19.4994 137.628 19.4994 136.689 19.653C136.022 19.7682 134.87 19.9219 134.113 20.0371L132.749 20.1908L133.658 19.6146L134.567 19L133.658 19.2305C129.779 20.2292 129.172 20.306 128.233 19.8835C127.081 19.3457 122.111 19.2689 123.05 19.8066C123.808 20.2292 124.778 20.1908 110.048 20.306C101.047 20.3828 98.228 20.4981 98.1068 20.8822C97.9553 21.4584 96.3186 21.4968 96.1671 20.8822C95.9853 20.1908 88.4386 19.6146 85.9534 20.0755C84.8623 20.306 83.8015 20.3444 83.65 20.1908C83.1953 19.7682 65.2531 19.3841 65.4653 19.7682C65.7683 20.4212 64.8894 20.4597 63.2225 19.9219C61.8889 19.4609 61.3131 19.4609 60.2826 19.8066C59.3431 20.1524 54.4029 20.1908 40.8856 19.9987C30.884 19.8835 22.0341 19.7298 21.1552 19.7298C20.3065 19.6914 19.3973 19.8835 19.1852 20.1139C18.8821 20.4212 18.185 20.4212 16.8515 20.1908C14.9724 19.8451 7.12263 20.1524 8.03188 20.4981C8.27434 20.6133 8.5471 20.8054 8.63803 20.959C8.72896 21.1127 9.54727 21.7272 10.4565 22.3418C12.3053 23.5326 14.0631 23.8015 19.6095 23.8399C21.3673 23.8399 22.7918 23.9167 22.7312 24.032C22.6706 24.1472 24.2163 24.1472 26.156 24.1088C28.126 24.032 32.6722 24.1472 36.3394 24.4161C41.0371 24.7234 43.0677 24.7234 43.2799 24.4545C43.5224 24.1472 43.4618 24.032 43.0374 24.032C42.7344 24.032 42.5525 23.9167 42.6434 23.8015C42.7647 23.6862 43.4618 23.8783 44.2498 24.224C45.3105 24.6465 45.7955 24.7234 46.0682 24.4161C46.3713 24.1088 47.8564 24.0704 51.1296 24.3393C53.6755 24.4929 56.7669 24.6081 57.9792 24.5313C59.2218 24.4545 60.3735 24.5313 60.5554 24.7234C60.8888 25.0691 73.3453 24.8002 90.3177 24.1088C95.47 23.8783 97.1976 23.9167 97.9553 24.3008C99.016 24.8386 100.531 24.685 102.986 23.8015C103.774 23.5326 104.623 23.379 104.835 23.4942C105.078 23.6094 105.987 23.5326 106.866 23.3405C108.078 23.0332 108.563 23.0717 108.836 23.4558C109.048 23.7247 109.139 24.0704 109.018 24.224C108.896 24.3777 110.836 24.4161 113.352 24.3393C115.837 24.224 118.262 24.2624 118.716 24.4545C119.171 24.6081 119.625 24.6081 119.716 24.4545C119.868 24.1088 118.292 23.6862 116.686 23.6094C115.807 23.571 115.776 23.571 116.534 23.2637C117.868 22.726 120.262 22.8796 122.596 23.6478C124.475 24.3008 126.051 24.4545 131.536 24.5313C135.204 24.6081 137.386 24.5313 136.386 24.4161C135.385 24.2624 134.688 24.1088 134.87 24.0704C135.022 23.9935 134.84 23.8399 134.416 23.6862C133.84 23.4558 134.264 23.3021 136.083 23.0717C137.78 22.8796 138.507 22.918 138.598 23.2253C138.659 23.4558 139.144 23.6478 139.659 23.6478C140.568 23.6862 140.598 23.6862 140.023 24.224C139.507 24.7618 139.719 24.8002 142.144 24.7618C143.66 24.7234 145.266 24.9154 145.781 25.1459C146.539 25.53 146.721 25.53 147.024 24.9923C147.6 23.9935 147.721 25.1459 147.236 27.1049C146.751 29.0639 146.418 39.5119 146.872 38.5901C147.054 38.2059 147.145 38.4364 147.145 39.3967C147.145 40.1265 147.266 41.3941 147.418 42.2008C147.569 43.0074 147.569 43.6988 147.418 43.8525C147.054 44.1214 147.084 47.348 147.448 47.6553C147.63 47.7705 147.751 48.5387 147.751 49.307C147.751 50.4209 147.66 50.613 147.418 50.152C147.175 49.6911 147.115 49.8447 147.206 50.805C147.296 51.4964 147.236 51.9574 147.115 51.8421C146.721 51.5349 146.963 58.7563 147.357 59.2941C147.781 59.8702 147.812 62.3286 147.448 64.1724C147.236 65.1711 147.206 65.0174 147.175 63.3273C147.175 62.2134 146.993 61.2915 146.842 61.2915C146.418 61.2915 146.478 64.4412 146.993 68.0135C147.418 71.1249 147.296 75.6575 146.812 74.6588C146.508 74.0442 146.418 77.0403 146.539 86.0671C146.751 102.239 146.69 106.425 146.296 107.731C146.084 108.423 145.993 109.114 146.114 109.268C146.236 109.383 146.387 109.268 146.448 108.999C146.539 108.769 146.721 108.615 146.872 108.769C147.296 109.076 147.206 113.455 146.781 113.608C146.508 113.724 146.508 114.53 146.781 117.027C146.993 118.794 147.115 120.945 147.115 121.79C147.084 123.25 147.054 123.288 146.872 122.174C146.478 120.215 146.145 124.863 146.357 128.589C146.478 130.356 146.569 132.469 146.539 133.314C146.539 134.159 146.751 136.079 147.054 137.616C147.418 139.69 147.478 140.766 147.266 142.033C147.024 143.531 147.145 149.178 147.569 156.745C147.66 158.435 147.63 159.165 147.448 158.666C147.296 158.243 147.175 157.398 147.145 156.745C147.145 155.823 147.084 155.708 146.842 156.246C146.63 156.63 146.63 158.128 146.842 160.471C147.206 164.888 147.206 164.927 146.842 164.235C146.69 163.928 146.539 163.237 146.539 162.699C146.478 160.97 146.024 163.006 145.872 165.772L145.69 168.269L146.145 166.655C146.387 165.733 146.69 165.004 146.842 165.004C146.963 165.004 147.054 166.271 146.993 167.808C146.963 169.306 146.902 171.495 146.872 172.609C146.842 174.03 146.751 174.568 146.508 174.376C146.236 174.184 146.205 174.414 146.357 175.221C146.872 177.987 146.902 180.253 146.418 181.444C145.781 182.98 145.781 183.71 146.387 183.057C146.781 182.635 146.842 183.019 146.872 185.976C146.933 194.504 147.175 199.152 147.6 200.227C147.842 200.803 148.054 201.687 148.054 202.109C148.054 202.878 147.903 202.954 145.811 202.916C144.569 202.878 143.629 202.724 143.69 202.57C143.902 202.148 143.538 202.186 140.083 202.878C138.416 203.223 136.537 203.415 135.901 203.339C135.173 203.262 134.688 203.377 134.597 203.684C134.507 203.915 133.84 204.26 133.082 204.376C131.658 204.645 131.264 205.144 132.203 205.451C132.506 205.566 132.203 205.643 131.536 205.682C130.87 205.72 129.991 205.835 129.597 205.989C129.081 206.143 128.93 206.104 129.081 205.797C129.203 205.528 129.112 205.336 128.839 205.336C128.566 205.336 128.354 205.182 128.354 204.99C128.354 204.491 129.324 204.26 130.021 204.568C130.627 204.875 132.294 204.068 132.294 203.492C132.294 203.3 131.749 203.223 131.112 203.3C130.445 203.339 129.809 203.223 129.718 203.031C129.597 202.801 129.445 202.724 129.324 202.801C129.203 202.878 128.021 202.801 126.687 202.647C124.626 202.378 123.656 202.493 120.019 203.415C117.686 204.03 114.928 204.606 113.928 204.721C112.109 204.99 112.079 204.952 112.2 204.107C112.321 203.262 112.503 203.223 115.261 203.108C117.928 203.031 118.656 202.878 118.322 202.493C118.262 202.417 117.231 202.532 116.019 202.686C114.685 202.916 113.321 202.916 112.533 202.686C111.594 202.417 111.2 202.417 111.018 202.762C110.775 203.262 106.047 203.531 101.229 203.339C96.1974 203.147 88.8023 203.223 87.196 203.492C85.7715 203.723 85.62 203.684 85.923 203.223C86.3474 202.57 86.408 202.57 81.4678 204.875C79.3766 205.874 78.9826 205.989 78.831 205.49C78.4976 204.414 78.6492 203.3 79.1644 202.801C79.6493 202.34 79.5281 202.301 78.3158 202.263C76.7701 202.263 76.3761 202.532 76.861 203.3C77.2853 203.915 77.1641 203.915 74.5576 203.223C73.4059 202.916 72.3754 202.801 72.2845 202.993C72.0724 203.415 70.8904 204.184 70.4964 204.184C70.3145 204.184 70.163 203.838 70.163 203.454C70.163 202.762 70.1024 202.762 68.6173 203.3C67.1928 203.838 67.0716 203.838 66.7079 203.185C66.3442 202.609 65.9502 202.57 63.3134 202.762C61.6465 202.878 59.5552 203.339 58.646 203.723C57.7367 204.107 56.3426 204.568 55.5849 204.683C54.312 204.913 54.221 204.875 54.221 204.068C54.2514 202.762 53.1906 202.839 50.7053 204.299C49.493 205.029 47.8867 205.835 47.129 206.104C45.9167 206.527 40.9159 206.911 41.1887 206.604C41.3705 206.373 48.1292 203.531 49.1899 203.223C50.4932 202.878 50.1295 202.263 48.5535 202.225C47.523 202.225 47.4018 202.148 47.8867 201.84C48.6747 201.38 43.2799 201.687 41.3705 202.225C40.2794 202.532 40.6128 202.57 43.0374 202.417C45.5227 202.263 45.947 202.301 45.4621 202.686C44.4922 203.454 41.6736 204.184 39.6127 204.184C37.7336 204.184 37.279 203.8 38.2488 203.031C38.6731 202.686 38.3397 202.647 36.8849 202.839C35.3999 203.031 35.0059 202.954 35.1877 202.609C35.3392 202.301 35.1877 202.225 34.6725 202.378C32.1266 203.185 29.0049 202.993 26.8531 201.956C26.55 201.802 26.6106 202.109 27.0652 202.801C27.7017 203.876 27.9744 206.258 27.4895 206.604C27.2774 206.796 22.3069 205.912 21.2764 205.49C20.549 205.182 20.6399 204.606 21.5189 204.107C22.8221 203.377 22.3675 203.147 19.9126 203.339C18.6396 203.415 16.5787 203.492 15.3664 203.454C14.1844 203.454 13.1842 203.569 13.1842 203.761C13.1842 204.529 8.97142 205.912 8.4865 205.298C8.33495 205.106 7.48633 204.952 6.60741 204.952H5.00108L5.18294 200.074C5.27386 197.346 5.48601 194.542 5.63756 193.812C5.8497 192.775 5.78909 192.43 5.4557 192.161C4.54646 191.546 3.27354 182.673 3.81908 180.868C4.18277 179.715 4.12216 176.45 3.63724 174.03C3.15231 171.534 3.03108 166.655 3.42508 165.849C3.57661 165.58 3.91 165.464 4.24339 165.618C4.69801 165.849 4.75862 166.233 4.63739 168.614C4.57678 170.112 4.57678 171.956 4.69801 172.686C4.78894 173.416 4.94048 169.728 5.0314 164.427C5.12231 159.165 5.09201 154.402 4.97078 153.864C4.75862 152.981 4.75862 153.019 4.69801 154.248C4.63739 155.132 4.57678 155.324 4.48586 154.824C4.39493 154.402 4.18277 153.864 4.03123 153.595C3.57661 152.904 3.33415 144.415 3.75847 144.107C3.94031 143.954 4.06154 142.955 4.06154 141.841C4.03123 140.727 3.97063 140.151 3.8797 140.535C3.57661 141.995 3.24324 141.035 2.90985 137.654C2.69769 135.695 2.45523 134.005 2.3643 133.89C2.27338 133.775 2.27338 135.772 2.3643 138.307C2.45523 140.842 2.42493 144.107 2.27338 145.567C2.00061 148.294 2.18246 151.214 2.57646 150.407C2.84923 149.831 3.18262 155.554 3.06139 158.55C3.03108 159.741 2.78862 161.009 2.57646 161.354C2.09154 162.123 2.03091 166.963 2.334 183.825C2.42493 190.048 2.42493 194.734 2.27338 194.197L2.03091 193.236L2.00061 194.197C2.00061 194.734 2.12184 196.463 2.3037 198.038C2.48553 200.074 2.48553 201.994 2.24307 204.491C2.06123 206.45 1.94 208.14 2.03091 208.217C2.18246 208.409 9.48665 208.87 15.0027 208.985C17.2455 209.062 21.4886 208.831 24.3981 208.524ZM132.385 23.8015C132.476 23.6862 132.749 23.6478 132.961 23.7631C133.203 23.8783 133.112 23.9935 132.779 23.9935C132.446 24.032 132.264 23.9167 132.385 23.8015Z" fill="black"/>
<g clip-path="url(#clip1_887_7717)">
<path d="M34.0254 34.1932C33.957 34.4666 34.2402 34.5643 34.4062 34.3299C34.6016 34.0663 34.5723 33.9881 34.3086 33.9881C34.1621 33.9881 34.0547 34.0565 34.0254 34.1932Z" fill="black"/>
<path d="M31.8574 35.2284C31.8184 35.3847 31.7598 35.6679 31.7207 35.8632C31.6719 36.0585 31.6621 36.2538 31.6914 36.2831C31.8379 36.4296 32.0039 36.2831 32.1895 35.8339C32.3945 35.3651 32.3945 35.3261 32.2383 35.1503C32.0137 34.8964 31.916 34.9159 31.8574 35.2284Z" fill="black"/>
<path d="M127.316 68.7441C127.131 69.1055 127.258 70.1211 127.502 70.1211C127.551 70.1211 127.658 69.9648 127.756 69.7793C128.049 69.1445 127.639 68.1582 127.316 68.7441Z" fill="black"/>
<path d="M74.9708 5.39907C75.0275 5.57616 74.994 5.63816 74.821 5.6686L74.6711 5.69307L74.7598 5.75266C74.8194 5.79568 74.8381 5.82264 74.8215 5.83924C74.7965 5.86415 74.4863 6.01475 74.3042 6.09421C74.2567 6.11317 74.2289 6.18087 74.2125 6.30562L74.1836 6.48846L73.6878 7.00145C73.4153 7.28532 73.188 7.53545 73.1877 7.56423C73.1825 7.59224 73.0831 7.70874 72.957 7.82344C72.8358 7.93891 72.6653 8.13792 72.5766 8.26089C72.4535 8.44094 72.3747 8.51982 72.2112 8.62624C72.0569 8.72929 71.9676 8.81855 71.8492 8.98252C71.7646 9.10134 71.5952 9.32213 71.4724 9.47339C71.3517 9.62258 71.2178 9.82493 71.177 9.91702C71.1152 10.0587 71.0828 10.0968 71.0032 10.1251C70.8683 10.1688 70.5307 10.512 70.3114 10.8283C70.0804 11.1619 69.2661 11.942 68.8713 12.2114C68.6391 12.3694 68.5553 12.4475 68.4107 12.6434C68.1333 13.0178 67.0084 14.2054 65.1074 16.1406L64.2433 17.0161L64.1424 16.9858L64.0387 16.9527L64.0223 17.0774C64.0072 17.1952 63.9748 17.2333 63.6414 17.5268C63.4439 17.7072 63.2065 17.8933 63.1139 17.946C62.9704 18.0267 62.9172 18.0856 62.7516 18.331C62.6123 18.5445 62.5266 18.6416 62.4444 18.6839C62.2667 18.776 61.5058 19.6053 61.4347 19.7791C61.3453 20.0053 60.6897 20.5868 60.4858 20.6196C60.3388 20.647 60.2199 20.7316 60.1587 20.8613C60.128 20.9261 60.114 20.9287 60.0274 20.867C59.9784 20.8305 59.876 20.7904 59.805 20.7816L59.6699 20.7627L59.6046 21.0047C59.5514 21.2006 59.522 21.2584 59.4364 21.3098C59.3773 21.3462 59.2989 21.4131 59.2553 21.4567C59.2125 21.5052 59.1339 21.5553 59.0794 21.5756C58.9998 21.6039 58.9632 21.6462 58.8895 21.7883C58.8396 21.8838 58.754 22.0265 58.6989 22.1043C58.6102 22.2273 58.5816 22.2444 58.4909 22.2325C58.4318 22.2232 58.3542 22.2495 58.3015 22.2964C58.2273 22.3592 58.2146 22.4005 58.2285 22.5348C58.2543 22.7599 58.2013 22.8813 58.0145 23.0225C57.7305 23.2324 57.7401 23.2171 57.8113 23.3341C57.9178 23.507 57.9162 23.5428 57.7966 23.6224C57.732 23.6699 57.6671 23.7462 57.6401 23.8189C57.5962 23.9369 57.5942 23.9389 57.4246 23.9147C57.3338 23.9028 57.2223 23.866 57.177 23.8373L57.0961 23.7813L57.1346 23.9195C57.1672 24.0351 57.1566 24.0743 57.0881 24.1428C57.0113 24.2196 57.0108 24.2316 57.0802 24.2761C57.3312 24.4357 57.4162 24.5332 57.5768 24.8515C57.7301 25.1544 57.748 25.1764 58.179 25.6406C58.4281 25.9104 58.6895 26.2134 58.7743 26.3397C58.9171 26.5447 58.9378 26.5696 59.0516 26.6211C59.1499 26.6654 59.1776 26.689 59.2025 26.7554C59.2273 26.8218 59.255 26.8454 59.3349 26.8795C59.4127 26.9158 59.4547 26.9536 59.5158 27.0521C59.5827 27.1564 59.6246 27.1942 59.7768 27.2758C60.1061 27.4597 60.2045 27.6122 60.2743 28.0556C60.2999 28.2182 60.3571 28.429 60.3977 28.5195L60.4746 28.6877L60.6787 28.8087C60.792 28.8722 61.0872 29.0844 61.333 29.272C61.6121 29.4889 61.8185 29.6247 61.8763 29.641C61.9313 29.6544 62.0954 29.6899 62.244 29.7181C62.3926 29.7462 62.5533 29.7907 62.5987 29.8195C62.6511 29.847 62.8045 30.0128 62.9939 30.2396C63.2391 30.5305 63.3568 30.6523 63.5416 30.8039C63.7562 30.977 63.7798 31.0047 63.8158 31.1113C63.8468 31.2171 63.8611 31.2313 63.9622 31.2785C64.0916 31.3373 64.7356 31.9647 64.9041 32.1955C64.9593 32.2714 65.066 32.4155 65.1399 32.5184C65.2158 32.6193 65.2829 32.7404 65.2886 32.7917C65.2989 32.8726 65.3054 32.8832 65.3943 32.914C65.4861 32.9477 65.5011 32.9669 65.6187 33.2256C65.7594 33.524 65.957 33.8338 66.1053 33.9821C66.2136 34.0904 66.7672 34.2952 66.9371 34.2907C66.9967 34.2881 67.1155 34.2948 67.2055 34.3017C67.3447 34.3164 67.373 34.3281 67.3893 34.3859C67.3976 34.4232 67.3721 34.5057 67.3316 34.569C67.269 34.6601 67.2669 34.7078 67.311 34.8348C67.3842 35.041 67.5757 35.357 67.7384 35.5363C67.8641 35.6786 67.8719 35.6823 67.9464 35.6363C68.0187 35.5924 68.0343 35.5997 68.1808 35.7212C68.2689 35.7928 68.4454 35.907 68.5735 35.9728C68.7871 36.0785 68.8177 36.1049 68.9359 36.2605C69.0942 36.4728 70.2828 37.6448 70.5506 37.8503C70.6551 37.934 70.88 38.1424 71.0519 38.3183C71.3121 38.5827 71.3896 38.6478 71.5381 38.7216C71.6924 38.8011 71.7144 38.819 71.7559 38.9144C71.7841 38.9717 71.8831 39.1122 71.9753 39.2252C72.1583 39.4414 72.7741 40.0116 73.0326 40.2036C73.2555 40.3684 73.3683 40.4894 73.405 40.6009C73.4358 40.6898 73.4558 40.7098 73.6608 40.8526C73.8708 40.9961 73.905 41.0303 74.1826 41.3743C74.4694 41.7318 74.4767 41.7473 74.4491 41.8319C74.4245 41.9193 74.4602 42.009 74.5017 41.9675C74.5121 41.9571 74.557 41.9521 74.5992 41.9612C74.6682 41.972 74.6796 41.9834 74.7267 42.0846C74.7892 42.2217 74.941 42.3777 75.0769 42.4472C75.1526 42.4855 75.1819 42.5189 75.2153 42.5939C75.2515 42.6716 75.2801 42.7001 75.3721 42.7507C75.4662 42.7991 75.4926 42.8297 75.5317 42.9103C75.5659 42.9902 75.6058 43.0301 75.7329 43.1197C75.8215 43.1793 75.9991 43.3154 76.1264 43.4219C76.2536 43.5284 76.4623 43.679 76.5821 43.7531C76.7104 43.8357 76.8916 43.9795 77.0105 44.0943C77.1267 44.2063 77.3011 44.3683 77.4035 44.4541L77.587 44.6127L77.7974 44.4079C77.9614 44.2439 78.0421 44.1918 78.1778 44.1531C78.3484 44.1078 78.3671 44.0891 79.52 42.942C80.8722 41.5955 80.9054 41.5623 80.9583 41.4409C80.9828 41.3823 81.0222 41.3428 81.0671 41.3379C81.168 41.3225 82.2479 40.2311 82.2661 40.1331C82.2716 40.0763 82.3118 40.0418 82.4164 39.9886C82.537 39.9307 82.564 39.9037 82.603 39.7849C82.6406 39.6731 82.6689 39.6391 82.7444 39.6149C82.8248 39.5916 82.8419 39.563 82.8596 39.4313C82.8729 39.3325 82.909 39.2565 82.9653 39.2173C83.0361 39.1635 83.0649 39.1633 83.1691 39.2301C83.3073 39.3143 83.3696 39.2977 83.3867 39.1779C83.4076 39.0658 85.0462 37.3872 85.3492 37.1755C85.5417 37.04 85.5783 36.9977 85.629 36.8615C85.6703 36.7575 85.7074 36.7033 85.7523 36.6983C85.8511 36.685 85.9626 36.5849 86.1376 36.3529C86.245 36.2113 86.4022 36.0654 86.6251 35.8939C86.9847 35.6141 87.1944 35.3588 87.3079 35.0571C87.3586 34.9209 87.3814 34.8981 87.4563 34.8859C87.5292 34.8757 87.7163 34.7058 88.3121 34.11C88.9473 33.4748 89.0944 33.3105 89.1998 33.1253C89.2696 33.0042 89.3631 32.8651 89.4108 32.8174C89.5001 32.7281 89.7154 32.6611 89.8896 32.6693C89.9768 32.6734 90.0066 32.6492 90.1486 32.4673C90.236 32.3514 90.83 31.7289 91.4686 31.0846L92.6295 29.9123L92.6107 29.7772L92.5911 29.6371L92.6974 29.6563C92.8008 29.6725 92.8154 29.658 93.7547 28.7415C94.2773 28.2303 94.8289 27.6901 94.9792 27.5455C95.1854 27.3449 95.2716 27.236 95.328 27.1055C95.4466 26.8215 95.4936 26.7688 95.6643 26.7236C95.9413 26.6518 96.1148 26.5182 96.3715 26.1646C96.5223 25.9625 96.6861 25.7816 96.8303 25.6601C97.0231 25.4959 97.061 25.4466 97.1018 25.3089C97.134 25.2082 97.1716 25.1421 97.2157 25.1322C97.25 25.1208 97.3154 25.0782 97.3589 25.0346L97.4428 24.9565L97.1969 24.9058C97.0603 24.8771 96.9115 24.8321 96.864 24.8054C96.6608 24.6893 96.5258 24.4879 96.4984 24.2529C96.4785 24.0961 96.5229 24.103 96.6364 24.2747C96.9102 24.7021 97.2382 24.8474 97.5778 24.6846C97.8372 24.5621 97.9332 24.409 97.8952 24.1676C97.8588 23.936 97.736 23.7509 97.412 23.4477C97.1862 23.2344 97.1323 23.1971 96.9431 23.1241C96.6776 23.0246 96.6413 22.9925 96.6611 22.8587C96.6962 22.6696 96.3898 22.3259 95.5163 21.5687C94.901 21.0322 94.709 20.8194 94.4074 20.3227C94.2146 20.0137 94.1408 19.9108 94.0428 19.8377C93.8844 19.7167 93.8945 19.7807 94.0684 20.0003C94.2536 20.2312 94.2269 20.2751 94.0087 20.0942C93.8365 19.947 93.7186 19.8083 93.6941 19.7132C93.6845 19.6828 93.5484 19.5509 93.3457 19.3773C92.9211 19.015 92.4173 18.5153 91.2518 17.2916C90.4893 16.4918 90.2449 16.2515 89.9198 15.9722C89.7 15.7814 89.4175 15.528 89.2921 15.4025C89.1182 15.2286 89.0308 15.162 88.9362 15.1255C88.8112 15.0794 88.8055 15.0737 88.6938 14.8832C88.6003 14.7315 88.4917 14.6063 88.1688 14.2792L87.7611 13.8715L87.7236 13.7095C87.6874 13.5404 87.612 13.4276 87.5865 13.5101C87.5784 13.5353 87.5686 13.5794 87.5605 13.6045C87.5457 13.6478 87.4825 13.5971 86.9495 13.1264C86.7759 12.9694 86.7287 12.9139 86.6699 12.7845C86.6104 12.6502 86.5839 12.6196 86.4157 12.4971C86.3014 12.4118 85.966 12.0972 85.5233 11.6504L84.8163 10.9433L84.8057 10.7999C84.7991 10.6355 84.7275 10.5474 84.664 10.6166C84.6232 10.6631 84.5991 10.6473 84.1561 10.2749C83.8155 9.98825 83.5258 9.71923 83.0823 9.26748C82.425 8.60189 80.4643 6.69098 80.345 6.60495C80.3067 6.57489 80.2092 6.53553 80.1317 6.51612L79.9872 6.48379L79.9788 6.33831L79.9682 6.19491L79.752 6.01194C79.6305 5.91113 79.5602 5.86164 79.5903 5.90001C79.7012 6.03998 79.6073 6.0084 79.4534 5.85444C79.3678 5.76892 79.307 5.68726 79.3173 5.67688C79.3298 5.66443 79.363 5.67685 79.3886 5.70251C79.5509 5.84816 79.1723 5.41141 78.8929 5.13201C78.4274 4.66237 78.0391 4.33221 77.8532 4.25011C77.6821 4.17034 77.3872 4.12875 77.3395 4.1765C77.3229 4.19311 77.2371 4.182 77.1531 4.15197C76.8108 4.03806 76.5208 4.13419 76.3111 4.43513C76.2244 4.55603 76.2021 4.56694 76.0784 4.55949C75.8767 4.54456 75.8051 4.59336 75.7344 4.80086C75.6785 4.96506 75.6627 4.98659 75.5883 4.98689C75.5286 4.98952 75.4752 5.03156 75.3953 5.13431C75.2891 5.26896 75.278 5.27441 75.1343 5.24701C74.9463 5.21262 74.9214 5.23753 74.9708 5.39907ZM76.0302 5.81079C76.0532 5.94174 76.1218 6.20959 76.1873 6.41209C76.36 6.92936 76.371 7.06083 76.2548 7.22272C76.199 7.29563 76.1577 7.39964 76.1587 7.46707C76.1596 7.58014 76.1576 7.58221 76.1034 7.52804C75.9951 7.41971 75.9778 7.20318 76.063 6.93549C76.1051 6.79076 76.134 6.65356 76.1231 6.63023C76.1172 6.60767 76.0454 6.50268 75.9666 6.39899C75.857 6.25202 75.8236 6.17709 75.8156 6.06532C75.803 5.87835 75.8389 5.73985 75.9253 5.64773L75.9959 5.57715L76.0302 5.81079ZM61.481 20.3486C61.5038 20.3714 61.5051 20.41 61.4823 20.4329C61.4408 20.4744 61.397 20.4555 61.3897 20.3943C61.3776 20.3323 61.4383 20.3058 61.481 20.3486ZM77.6317 4.36901C77.6903 4.3446 77.7108 4.35263 77.7916 4.45424C77.9269 4.62688 77.917 4.67097 77.7503 4.64954C77.5589 4.62424 77.4029 4.47236 77.5173 4.42069C77.5416 4.40771 77.5933 4.3846 77.6317 4.36901ZM74.7292 7.57371C74.7533 7.58951 74.7572 7.61415 74.7385 7.63283C74.7198 7.65151 74.6853 7.64609 74.6596 7.62043C74.6112 7.57196 74.6654 7.53485 74.7292 7.57371ZM60.9305 21.5833C60.9679 21.5916 61.014 21.6253 61.0285 21.6564C61.071 21.7279 60.9091 21.8899 60.7545 21.9304C60.5999 21.9709 60.5707 21.8919 60.7048 21.7977C60.7611 21.7585 60.8101 21.7037 60.8125 21.6729C60.8162 21.5893 60.853 21.5639 60.9305 21.5833ZM61.4404 28.3207C61.486 28.3663 61.5391 28.4444 61.551 28.4895C61.5753 28.5678 61.5732 28.5699 61.5009 28.5224C61.4265 28.4771 61.2842 28.3058 61.2501 28.2259C61.2288 28.1673 61.3463 28.2266 61.4404 28.3207ZM66.8403 32.9734C66.9059 33.0389 66.9097 33.1092 66.8483 33.0851C66.7897 33.0639 66.7363 32.969 66.7654 32.94C66.7758 32.9296 66.8118 32.9449 66.8403 32.9734ZM93.9787 20.2553C94.0386 20.3151 94.0611 20.4124 94.0217 20.4518C93.9843 20.4892 93.9172 20.4137 93.9025 20.3201C93.8862 20.2167 93.916 20.1925 93.9787 20.2553ZM94.2488 25.9267C94.2838 25.9202 94.3577 25.9318 94.4134 25.9502C94.5052 25.9839 94.528 26.0067 94.6905 26.2605C94.9219 26.6164 94.9853 26.7297 94.9604 26.7546C94.894 26.821 94.7703 26.8592 94.7361 26.825C94.7161 26.805 94.6635 26.7151 94.6236 26.6295C94.5648 26.5001 94.5226 26.4455 94.3733 26.3211C94.2126 26.1853 94.1911 26.1555 94.1763 26.0618C94.1577 25.9436 94.1619 25.9394 94.2488 25.9267ZM96.8181 23.46L96.9255 23.4553L96.7729 23.585C96.6689 23.6719 96.6118 23.7519 96.5892 23.8372C96.5465 23.9938 96.5141 24.032 96.4994 23.9384C96.4629 23.7068 96.6223 23.4676 96.8181 23.46ZM93.3054 27.1381C93.3738 27.2065 93.393 27.2672 93.3768 27.3631C93.3646 27.4381 93.3576 27.4394 93.2778 27.3595C93.2265 27.3082 93.1954 27.2481 93.2011 27.2081C93.2095 27.1085 93.2512 27.0839 93.3054 27.1381ZM94.1402 26.7024C94.2018 26.8346 94.2171 26.962 94.1727 26.955C94.1354 26.9467 94.06 26.7427 94.0572 26.6485C94.0594 26.5552 94.0835 26.571 94.1402 26.7024ZM88.8481 32.7072C88.915 32.8114 88.9709 32.9836 88.9468 33.0134C88.906 33.0599 88.8273 32.9562 88.7908 32.8159C88.7525 32.6489 88.7784 32.6001 88.8481 32.7072ZM92.3243 29.4991C92.3758 29.6129 92.3465 29.7164 92.2674 29.6871C92.2236 29.6682 92.1231 29.3809 92.1413 29.3285C92.1657 29.2699 92.2647 29.3648 92.3243 29.4991ZM86.9638 34.5802C87.0087 34.5752 87.0229 34.5895 87.0299 34.6338C87.0369 34.6781 87.0223 34.6927 86.971 34.687C86.8571 34.6811 86.8494 34.5862 86.9638 34.5802ZM97.6515 24.0692C97.7489 24.1998 97.7633 24.4135 97.6693 24.3194C97.6351 24.2852 97.5465 23.9974 97.5652 23.9787C97.5714 23.9725 97.6114 24.0124 97.6515 24.0692ZM90.7985 31.0248C90.8384 31.1104 90.8236 31.1537 90.765 31.1325C90.7212 31.1136 90.6976 31.0402 90.7179 30.9857C90.7415 30.9222 90.7571 30.9294 90.7985 31.0248Z" fill="black"/>
</g>
</g>
<path d="M74.7576 185.186C74.8143 185.363 74.7808 185.425 74.6078 185.456L74.4579 185.48L74.5466 185.54C74.6062 185.583 74.6249 185.61 74.6083 185.626C74.5833 185.651 74.2731 185.802 74.091 185.881C74.0435 185.9 74.0157 185.968 73.9993 186.093L73.9704 186.276L73.4746 186.789C73.2021 187.072 72.9748 187.323 72.9745 187.351C72.9693 187.379 72.8699 187.496 72.7438 187.611C72.6226 187.726 72.4521 187.925 72.3634 188.048C72.2403 188.228 72.1615 188.307 71.998 188.413C71.8437 188.516 71.7544 188.606 71.636 188.77C71.5514 188.888 71.382 189.109 71.2592 189.26C71.1385 189.41 71.0046 189.612 70.9638 189.704C70.902 189.846 70.8696 189.884 70.79 189.912C70.6551 189.956 70.3175 190.299 70.0982 190.615C69.8672 190.949 69.0529 191.729 68.6581 191.998C68.4259 192.157 68.3421 192.235 68.1975 192.431C67.9201 192.805 66.7952 193.993 64.8942 195.928L64.0301 196.803L63.9292 196.773L63.8255 196.74L63.8091 196.865C63.794 196.982 63.7616 197.02 63.4281 197.314C63.2307 197.494 62.9933 197.68 62.9007 197.733C62.7572 197.814 62.704 197.873 62.5384 198.118C62.399 198.332 62.3134 198.429 62.2312 198.471C62.0535 198.563 61.2926 199.392 61.2215 199.566C61.1321 199.792 60.4765 200.374 60.2726 200.407C60.1256 200.434 60.0067 200.519 59.9455 200.648C59.9148 200.713 59.9008 200.716 59.8142 200.654C59.7652 200.618 59.6628 200.577 59.5918 200.569L59.4567 200.55L59.3914 200.792C59.3382 200.988 59.3088 201.046 59.2232 201.097C59.1641 201.133 59.0857 201.2 59.0421 201.244C58.9993 201.292 58.9207 201.342 58.8662 201.363C58.7866 201.391 58.75 201.433 58.6763 201.575C58.6264 201.671 58.5408 201.814 58.4857 201.891C58.397 202.014 58.3684 202.032 58.2777 202.02C58.2186 202.01 58.141 202.037 58.0883 202.084C58.0141 202.146 58.0014 202.188 58.0153 202.322C58.0411 202.547 57.9881 202.668 57.8013 202.81C57.5173 203.02 57.5269 203.004 57.5981 203.121C57.7046 203.294 57.703 203.33 57.5834 203.41C57.5188 203.457 57.4539 203.533 57.4269 203.606C57.383 203.724 57.381 203.726 57.2114 203.702C57.1206 203.69 57.0091 203.653 56.9637 203.624L56.8829 203.568L56.9214 203.707C56.954 203.822 56.9434 203.861 56.8749 203.93C56.7981 204.007 56.7975 204.019 56.867 204.063C57.118 204.223 57.203 204.32 57.3636 204.639C57.5169 204.941 57.5348 204.963 57.9658 205.428C58.2149 205.698 58.4763 206.001 58.5611 206.127C58.7038 206.332 58.7246 206.357 58.8384 206.408C58.9367 206.453 58.9644 206.476 58.9892 206.543C59.0141 206.609 59.0418 206.632 59.1217 206.667C59.1995 206.703 59.2415 206.741 59.3026 206.839C59.3695 206.943 59.4114 206.981 59.5636 207.063C59.8929 207.247 59.9913 207.399 60.0611 207.843C60.0867 208.005 60.1439 208.216 60.1845 208.307L60.2614 208.475L60.4655 208.596C60.5788 208.659 60.874 208.872 61.1198 209.059C61.3989 209.276 61.6053 209.412 61.6631 209.428C61.7181 209.442 61.8822 209.477 62.0308 209.505C62.1794 209.533 62.3401 209.578 62.3855 209.607C62.4379 209.634 62.5913 209.8 62.7807 210.027C63.0259 210.318 63.1436 210.439 63.3284 210.591C63.543 210.764 63.5666 210.792 63.6026 210.898C63.6336 211.004 63.6479 211.018 63.749 211.066C63.8784 211.124 64.5224 211.752 64.6909 211.983C64.7461 212.059 64.8528 212.203 64.9267 212.306C65.0026 212.406 65.0697 212.527 65.0754 212.579C65.0857 212.66 65.0922 212.67 65.1811 212.701C65.2729 212.735 65.2879 212.754 65.4055 213.013C65.5461 213.311 65.7438 213.621 65.8921 213.769C66.0004 213.878 66.554 214.082 66.7238 214.078C66.7835 214.075 66.9023 214.082 66.9923 214.089C67.1315 214.104 67.1598 214.115 67.1761 214.173C67.1843 214.21 67.1589 214.293 67.1184 214.356C67.0558 214.447 67.0537 214.495 67.0977 214.622C67.171 214.828 67.3625 215.144 67.5252 215.323C67.6509 215.466 67.6587 215.469 67.7332 215.423C67.8055 215.38 67.8211 215.387 67.9676 215.508C68.0557 215.58 68.2322 215.694 68.3603 215.76C68.5739 215.866 68.6045 215.892 68.7227 216.048C68.881 216.26 70.0696 217.432 70.3374 217.637C70.4418 217.721 70.6668 217.929 70.8387 218.105C71.0989 218.37 71.1764 218.435 71.3249 218.509C71.4792 218.588 71.5012 218.606 71.5427 218.702C71.5709 218.759 71.6699 218.899 71.7621 219.012C71.9451 219.228 72.5609 219.799 72.8194 219.991C73.0423 220.155 73.155 220.277 73.1918 220.388C73.2226 220.477 73.2426 220.497 73.4476 220.64C73.6576 220.783 73.6918 220.817 73.9694 221.161C74.2562 221.519 74.2635 221.534 74.2359 221.619C74.2113 221.706 74.247 221.796 74.2885 221.755C74.2989 221.744 74.3438 221.739 74.386 221.748C74.455 221.759 74.4664 221.771 74.5135 221.872C74.576 222.009 74.7278 222.165 74.8637 222.234C74.9394 222.273 74.9687 222.306 75.0021 222.381C75.0383 222.459 75.0669 222.487 75.1589 222.538C75.253 222.586 75.2794 222.617 75.3185 222.697C75.3527 222.777 75.3926 222.817 75.5197 222.907C75.6083 222.966 75.7859 223.102 75.9132 223.209C76.0404 223.316 76.2491 223.466 76.3689 223.54C76.4972 223.623 76.6784 223.767 76.7973 223.881C76.9135 223.993 77.0879 224.155 77.1903 224.241L77.3738 224.4L77.5842 224.195C77.7482 224.031 77.8289 223.979 77.9646 223.94C78.1352 223.895 78.1539 223.876 79.3068 222.729C80.659 221.383 80.6922 221.349 80.7451 221.228C80.7696 221.169 80.809 221.13 80.8539 221.125C80.9547 221.11 82.0347 220.018 82.0529 219.92C82.0584 219.863 82.0986 219.829 82.2032 219.776C82.3238 219.718 82.3508 219.691 82.3897 219.572C82.4274 219.46 82.4557 219.426 82.5312 219.402C82.6116 219.379 82.6287 219.35 82.6464 219.218C82.6597 219.12 82.6958 219.044 82.7521 219.004C82.8229 218.951 82.8517 218.95 82.9559 219.017C83.0941 219.101 83.1564 219.085 83.1735 218.965C83.1944 218.853 84.833 217.174 85.136 216.963C85.3285 216.827 85.3651 216.785 85.4158 216.649C85.4571 216.545 85.4942 216.49 85.5391 216.485C85.6379 216.472 85.7494 216.372 85.9244 216.14C86.0318 215.998 86.189 215.853 86.4119 215.681C86.7715 215.401 86.9812 215.146 87.0947 214.844C87.1453 214.708 87.1682 214.685 87.2431 214.673C87.316 214.663 87.5031 214.493 88.0989 213.897C88.7341 213.262 88.8812 213.098 88.9866 212.912C89.0564 212.791 89.1499 212.652 89.1976 212.604C89.2869 212.515 89.5022 212.448 89.6764 212.456C89.7636 212.46 89.7934 212.436 89.9354 212.254C90.0228 212.138 90.6168 211.516 91.2554 210.872L92.4163 209.699L92.3975 209.564L92.3778 209.424L92.4842 209.443C92.5876 209.46 92.6022 209.445 93.5415 208.529C94.0641 208.017 94.6157 207.477 94.766 207.333C94.9722 207.132 95.0584 207.023 95.1148 206.893C95.2334 206.609 95.2804 206.556 95.4511 206.511C95.7281 206.439 95.9016 206.305 96.1583 205.952C96.3091 205.75 96.4729 205.569 96.6171 205.447C96.8099 205.283 96.8478 205.234 96.8886 205.096C96.9208 204.995 96.9584 204.929 97.0025 204.919C97.0368 204.908 97.1022 204.865 97.1457 204.822L97.2296 204.744L96.9837 204.693C96.8471 204.664 96.6983 204.619 96.6508 204.592C96.4476 204.476 96.3126 204.275 96.2852 204.04C96.2653 203.883 96.3097 203.89 96.4232 204.062C96.697 204.489 97.025 204.635 97.3646 204.472C97.624 204.349 97.72 204.196 97.682 203.955C97.6456 203.723 97.5228 203.538 97.1988 203.235C96.973 203.022 96.9191 202.984 96.7299 202.911C96.4644 202.812 96.4281 202.78 96.4479 202.646C96.483 202.457 96.1766 202.113 95.3031 201.356C94.6878 200.819 94.4957 200.607 94.1942 200.11C94.0014 199.801 93.9276 199.698 93.8296 199.625C93.6712 199.504 93.6813 199.568 93.8552 199.787C94.0404 200.018 94.0137 200.062 93.7955 199.881C93.6233 199.734 93.5054 199.595 93.4808 199.5C93.4713 199.47 93.3352 199.338 93.1325 199.164C92.7079 198.802 92.2041 198.302 91.0386 197.079C90.2761 196.279 90.0317 196.039 89.7066 195.759C89.4868 195.569 89.2043 195.315 89.0789 195.19C88.905 195.016 88.8176 194.949 88.723 194.913C88.598 194.867 88.5923 194.861 88.4806 194.67C88.3871 194.519 88.2785 194.393 87.9556 194.066L87.5479 193.659L87.5104 193.497C87.4742 193.328 87.3988 193.215 87.3733 193.297C87.3652 193.322 87.3554 193.366 87.3473 193.392C87.3325 193.435 87.2693 193.384 86.7363 192.914C86.5627 192.756 86.5155 192.701 86.4567 192.572C86.3972 192.437 86.3707 192.407 86.2025 192.284C86.0882 192.199 85.7528 191.884 85.3101 191.437L84.6031 190.73L84.5925 190.587C84.5859 190.423 84.5143 190.334 84.4508 190.404C84.41 190.45 84.3859 190.434 83.9429 190.062C83.6023 189.775 83.3125 189.506 82.8691 189.055C82.2118 188.389 80.2511 186.478 80.1318 186.392C80.0935 186.362 79.996 186.323 79.9185 186.303L79.774 186.271L79.7656 186.125L79.755 185.982L79.5388 185.799C79.4173 185.698 79.347 185.649 79.3771 185.687C79.488 185.827 79.3941 185.796 79.2402 185.642C79.1546 185.556 79.0937 185.474 79.1041 185.464C79.1166 185.452 79.1498 185.464 79.1754 185.49C79.3377 185.635 78.9591 185.199 78.6797 184.919C78.2142 184.449 77.8259 184.119 77.64 184.037C77.4689 183.957 77.174 183.916 77.1263 183.964C77.1097 183.98 77.0239 183.969 76.9399 183.939C76.5976 183.825 76.3076 183.921 76.0979 184.222C76.0112 184.343 75.9889 184.354 75.8652 184.347C75.6635 184.332 75.5918 184.38 75.5212 184.588C75.4653 184.752 75.4495 184.774 75.3751 184.774C75.3154 184.777 75.262 184.819 75.182 184.921C75.0759 185.056 75.0648 185.062 74.9211 185.034C74.7331 185 74.7082 185.025 74.7576 185.186ZM75.817 185.598C75.84 185.729 75.9086 185.997 75.9741 186.199C76.1468 186.716 76.1578 186.848 76.0416 187.01C75.9858 187.083 75.9445 187.187 75.9455 187.254C75.9464 187.367 75.9444 187.369 75.8902 187.315C75.7819 187.207 75.7646 186.99 75.8498 186.723C75.8919 186.578 75.9208 186.441 75.9099 186.417C75.9039 186.395 75.8322 186.29 75.7534 186.186C75.6438 186.039 75.6104 185.964 75.6024 185.852C75.5898 185.665 75.6257 185.527 75.7121 185.435L75.7827 185.364L75.817 185.598ZM61.2678 200.136C61.2906 200.158 61.2919 200.197 61.2691 200.22C61.2276 200.261 61.1837 200.243 61.1765 200.181C61.1644 200.119 61.2251 200.093 61.2678 200.136ZM77.4185 184.156C77.4771 184.132 77.4976 184.14 77.5784 184.241C77.7137 184.414 77.7038 184.458 77.5371 184.437C77.3457 184.411 77.1897 184.259 77.3041 184.208C77.3284 184.195 77.3801 184.172 77.4185 184.156ZM74.516 187.361C74.5401 187.377 74.5439 187.401 74.5253 187.42C74.5066 187.439 74.4721 187.433 74.4464 187.408C74.398 187.359 74.4522 187.322 74.516 187.361ZM60.7173 201.37C60.7547 201.379 60.8008 201.412 60.8153 201.443C60.8578 201.515 60.6959 201.677 60.5413 201.718C60.3867 201.758 60.3575 201.679 60.4916 201.585C60.5479 201.546 60.5969 201.491 60.5993 201.46C60.603 201.376 60.6398 201.351 60.7173 201.37ZM61.2271 208.108C61.2728 208.153 61.3259 208.231 61.3378 208.277C61.3621 208.355 61.36 208.357 61.2877 208.31C61.2133 208.264 61.071 208.093 61.0369 208.013C61.0156 207.954 61.1331 208.014 61.2271 208.108ZM66.6271 212.76C66.6927 212.826 66.6965 212.896 66.6351 212.872C66.5765 212.851 66.5231 212.756 66.5522 212.727C66.5626 212.717 66.5986 212.732 66.6271 212.76ZM93.7655 200.042C93.8254 200.102 93.8479 200.199 93.8085 200.239C93.7711 200.276 93.704 200.201 93.6893 200.107C93.673 200.004 93.7028 199.98 93.7655 200.042ZM94.0356 205.714C94.0706 205.707 94.1445 205.719 94.2002 205.737C94.292 205.771 94.3148 205.794 94.4773 206.048C94.7087 206.403 94.7721 206.517 94.7472 206.542C94.6808 206.608 94.5571 206.646 94.5229 206.612C94.5029 206.592 94.4503 206.502 94.4104 206.417C94.3516 206.287 94.3094 206.233 94.1601 206.108C93.9994 205.972 93.9779 205.943 93.9631 205.849C93.9445 205.731 93.9487 205.727 94.0356 205.714ZM96.6049 203.247L96.7123 203.242L96.5597 203.372C96.4557 203.459 96.3986 203.539 96.376 203.624C96.3333 203.781 96.3009 203.819 96.2862 203.725C96.2497 203.494 96.4091 203.255 96.6049 203.247ZM93.0922 206.925C93.1606 206.994 93.1798 207.054 93.1636 207.15C93.1514 207.225 93.1444 207.226 93.0646 207.147C93.0133 207.095 92.9822 207.035 92.9879 206.995C92.9963 206.896 93.038 206.871 93.0922 206.925ZM93.927 206.49C93.9886 206.622 94.0039 206.749 93.9595 206.742C93.9222 206.734 93.8468 206.53 93.844 206.436C93.8462 206.342 93.8703 206.358 93.927 206.49ZM88.6349 212.494C88.7018 212.599 88.7577 212.771 88.7336 212.801C88.6928 212.847 88.6141 212.743 88.5776 212.603C88.5393 212.436 88.5652 212.387 88.6349 212.494ZM92.1111 209.286C92.1626 209.4 92.1333 209.503 92.0542 209.474C92.0104 209.455 91.9099 209.168 91.9281 209.116C91.9525 209.057 92.0515 209.152 92.1111 209.286ZM86.7506 214.367C86.7955 214.362 86.8097 214.377 86.8167 214.421C86.8237 214.465 86.8091 214.48 86.7578 214.474C86.6439 214.468 86.6362 214.373 86.7506 214.367ZM97.4383 203.856C97.5357 203.987 97.5501 204.201 97.4561 204.107C97.4219 204.072 97.3333 203.785 97.352 203.766C97.3582 203.76 97.3982 203.8 97.4383 203.856ZM90.5853 210.812C90.6252 210.897 90.6104 210.941 90.5518 210.92C90.508 210.901 90.4844 210.827 90.5047 210.773C90.5283 210.709 90.5439 210.717 90.5853 210.812Z" fill="black"/>
<path d="M136.261 3.07763C135.827 3.19334 135.483 3.20745 134.749 3.1369L134.12 3.07481L134.225 3.14819C134.285 3.19899 134.255 3.22157 134.135 3.22157C133.956 3.22157 132.294 3.14254 131.35 3.09174C131.111 3.07763 130.767 3.09738 130.258 3.15101L129.494 3.22721L125.856 3.23568C123.849 3.24132 122.128 3.25261 122.023 3.26672C121.903 3.27801 121.125 3.28648 120.256 3.28084C119.403 3.27801 118.07 3.29213 117.307 3.30906C116.214 3.33728 115.645 3.33728 114.672 3.30906C113.743 3.28366 113.099 3.28366 112.081 3.30624C111.348 3.32317 109.94 3.34857 108.952 3.36268C107.979 3.37679 106.766 3.41066 106.287 3.43606C105.554 3.47558 105.299 3.4784 104.91 3.453C104.266 3.40784 101.81 3.41066 99.8791 3.45864C97.8429 3.50945 92.0936 3.49251 89.698 3.43042C88.2906 3.39373 87.7067 3.39091 86.479 3.41631C84.1284 3.46429 75.7889 3.49533 61.9547 3.51227L55.6813 3.51791L55.4268 3.453L55.1723 3.38526L54.6632 3.43889C54.1841 3.48969 53.9296 3.49251 51.6688 3.47276C50.3064 3.46429 48.7792 3.43889 48.2552 3.41913C47.4467 3.38808 47.0424 3.39091 45.5602 3.43042C44.2876 3.46711 43.6288 3.47276 43.1796 3.453C42.2064 3.41066 36.4721 3.44453 35.5887 3.49533C34.4509 3.56307 29.9892 3.52638 29.1358 3.44171C28.5069 3.38244 27.7733 3.36551 27.0846 3.39937C26.7402 3.41631 26.6803 3.41066 26.5905 3.33728C26.5456 3.29495 26.321 3.22439 26.0964 3.18488L25.6772 3.10867L24.5693 3.19617C23.6709 3.26672 23.3565 3.28084 22.8624 3.2639C22.5181 3.25261 21.9941 3.24697 21.6796 3.24697C21.3503 3.24979 20.8861 3.23568 20.6166 3.21874C20.2273 3.19334 19.9429 3.19617 19.1643 3.23003C18.6403 3.25261 17.8168 3.28084 17.3377 3.29213C16.5741 3.30906 16.4095 3.30342 16.125 3.25261C15.9453 3.21874 15.571 3.19334 15.2117 3.19052C14.7176 3.18488 14.523 3.19899 14.0888 3.27237C13.3701 3.39655 12.7413 3.43042 11.5585 3.40784C9.7768 3.37115 9.86663 3.36833 9.70194 3.46147C9.46239 3.59976 9.32764 3.61669 8.60897 3.59694C8.20473 3.58847 7.69567 3.59412 7.33634 3.6167C6.75243 3.65339 6.73746 3.65339 6.21343 3.55742C5.92896 3.50662 5.65946 3.43324 5.59958 3.39655L5.50974 3.32882L5.15041 3.41631C4.85097 3.48969 4.6713 3.5038 4.17722 3.5038C3.62326 3.5038 3.57834 3.50945 3.66817 3.56589C3.99756 3.7691 3.95264 3.85942 3.3837 4.09649C2.8447 4.32228 2.82973 4.34204 2.70996 4.78514C2.63509 5.04198 2.48537 5.32139 2.33565 5.42581C2.11107 5.59798 2.0961 5.62056 2.32068 5.7024C2.51532 5.77296 2.53029 5.79836 2.38057 5.84352C2.23085 5.88868 2.24582 5.91408 2.41051 5.97053C2.56023 6.02697 2.57521 6.06649 2.44046 6.14551C2.30571 6.23018 2.32068 6.26969 2.57521 6.38541C3.09923 6.63942 2.90459 6.7636 1.5571 7.01761C1.06302 7.11075 0.509052 7.2434 0.329387 7.30832L0 7.42968L0.299443 7.59055C0.479108 7.67804 0.778551 7.92923 0.98816 8.14373C1.21274 8.38927 1.46727 8.55861 1.61699 8.5953C1.76671 8.62917 2.23085 8.72795 2.66504 8.81544C3.09923 8.90294 3.51845 9.00454 3.57834 9.04123C3.66817 9.08074 3.62326 9.2388 3.48851 9.44483C3.32381 9.71013 3.30884 9.82866 3.42862 9.99518C3.57834 10.1871 3.56337 10.2125 3.30884 10.2831C3.03934 10.3508 3.03934 10.3649 3.23398 10.4383C3.48851 10.5314 3.54839 11.1608 3.32381 11.3584C3.24895 11.4233 3.1142 11.5475 3.0094 11.635C2.91957 11.7225 2.72493 11.8156 2.56023 11.8438C2.30571 11.889 2.29074 11.8974 2.50035 11.9567C2.70996 12.0188 2.69498 12.0357 2.18593 12.222C1.61699 12.4393 1.21274 12.6905 1.21274 12.8373C1.21274 12.9445 2.4704 13.3199 3.09923 13.4017C3.32381 13.43 3.72806 13.4921 4.0275 13.54C4.47667 13.6162 4.53655 13.636 4.38683 13.6727C4.28203 13.6953 3.89275 13.7235 3.51845 13.7348C2.96448 13.7489 2.78482 13.7715 2.48537 13.8561C2.00627 13.9944 1.5571 14.2456 1.49721 14.415C1.43732 14.5476 1.4523 14.5533 1.88649 14.5674C2.30571 14.5815 2.33565 14.5928 2.42548 14.7254C2.48537 14.8044 2.70996 14.9484 2.93454 15.0443C3.32381 15.2024 3.33878 15.2306 3.20404 15.3661C3.0094 15.5495 3.06929 16.718 3.29387 16.9522C3.36873 17.0454 3.42862 17.2599 3.41365 17.432C3.39867 17.6917 3.44359 17.7623 3.71309 17.8723C3.98259 17.988 3.99756 18.0078 3.80292 18.0755C3.69812 18.1179 3.54839 18.2364 3.47353 18.338C3.35376 18.5356 3.51845 19.1226 3.758 19.3456C3.96761 19.5375 3.93767 19.6532 3.66817 19.7266C3.45856 19.7859 3.45856 19.8056 3.68314 19.9778C3.9227 20.1528 3.9227 20.1867 3.68314 20.4943C3.42862 20.8132 3.39867 20.8245 2.99443 20.8527C2.59018 20.8838 2.39554 20.9459 2.69498 20.9459C2.76984 20.9459 2.94951 20.9656 3.06929 20.991C3.2789 21.0305 3.2789 21.0418 3.08426 21.1152C2.81476 21.214 2.79979 21.3664 3.03934 21.468C3.17409 21.5244 3.15912 21.5555 3.0094 21.6091C2.85968 21.6656 2.85968 21.6938 3.0094 21.7643C3.17409 21.8349 3.15912 21.8631 3.0094 21.9224C2.8447 21.9788 2.8447 22.0183 2.97945 22.1256C3.08426 22.199 3.23398 22.3542 3.30884 22.4699C3.3837 22.5856 3.59331 22.7634 3.758 22.8594C3.9227 22.9638 4.05745 23.1247 4.07242 23.2404C4.08739 23.3533 4.13231 23.5198 4.1922 23.613L4.28203 23.7823L5.77924 23.7851C6.96204 23.7851 7.44115 23.7992 8.06998 23.8472C8.84853 23.9093 8.98328 23.9093 17.2778 23.9121C27.0097 23.915 27.2493 23.915 27.8781 23.8811C28.1775 23.8642 28.462 23.8642 28.6417 23.8839C29.0609 23.9262 36.8913 23.9206 37.3105 23.8811C37.5351 23.8557 37.8046 23.8585 38.3736 23.8839C39.0174 23.915 39.212 23.915 39.7809 23.8754C40.3199 23.8388 40.5445 23.8359 40.9039 23.8613C41.2782 23.8896 41.4429 23.8839 41.9818 23.8275C42.3861 23.7851 42.7903 23.7654 43.1347 23.7738C43.5839 23.7823 43.6887 23.7964 43.8234 23.8811C44.0181 23.9912 44.3025 24.0137 44.7966 23.9629C45.2757 23.9178 57.2384 23.898 59.095 23.9432C60.2778 23.9714 60.5623 23.9686 61.236 23.9262C61.76 23.8952 62.0894 23.8867 62.2691 23.9065C62.6733 23.9488 63.4369 23.9545 64.9042 23.9262C65.8025 23.9093 66.8955 23.915 68.3178 23.9404C70.6235 23.9799 72.3004 23.9573 73.7976 23.8642C74.4714 23.8218 74.6361 23.8218 74.9505 23.8529C75.2499 23.8839 76.5375 23.8924 80.8345 23.8924C85.416 23.8924 86.5389 23.8839 87.5869 23.8444C88.2757 23.819 89.1141 23.7964 89.4585 23.7964C90.1023 23.7964 91.1204 23.8698 91.7193 23.9601C92.0187 24.0053 92.2133 24.0081 93.3812 23.9883C94.1148 23.9742 98.5016 23.9601 103.128 23.9573L111.542 23.9517L111.962 23.8754L112.396 23.7964L112.71 23.8585C113.025 23.9178 113.129 23.9178 119.822 23.9291C123.55 23.9347 127.488 23.9404 128.551 23.9432C130.018 23.946 130.722 23.9347 131.395 23.898C132.848 23.8162 133.207 23.8134 133.986 23.8754C135.243 23.9771 136.351 23.9968 138.552 23.9488C139.825 23.9234 141.067 23.915 142.026 23.9262C143.313 23.9404 143.628 23.9347 144.271 23.8867C144.751 23.8529 145.125 23.8388 145.319 23.8557C145.484 23.867 145.873 23.8783 146.188 23.8783L146.772 23.8811L146.068 23.7343C145.679 23.6525 145.305 23.5565 145.23 23.5198C144.915 23.3618 145.155 23.1953 145.903 23.0654C146.397 22.9779 146.532 23.0033 146.323 23.1445C145.769 23.4916 146.427 23.7259 148.239 23.8134C149.616 23.8811 150.515 23.8529 151.248 23.7146C151.952 23.5819 152.177 23.4295 152.102 23.1191C152.057 22.9017 151.997 22.8566 151.578 22.7268C150.979 22.5461 150.964 22.5123 151.518 22.4558C152.326 22.3796 152.461 22.0579 152.042 21.2507C151.758 20.6806 151.832 20.4802 152.536 20.085C152.955 19.8367 153.06 19.7492 152.97 19.6645C152.835 19.5262 152.641 19.5629 152.476 19.7577C152.311 19.9637 152.057 19.9722 151.922 19.7746C151.832 19.6165 151.907 19.4895 152.162 19.4303C152.237 19.4105 152.222 19.2779 152.117 19.0916C151.892 18.7021 151.877 18.2054 152.087 17.0228C152.222 16.2495 152.207 16.0096 152.042 15.7104C151.937 15.5072 151.832 15.2419 151.832 15.1177C151.832 14.9456 151.757 14.8694 151.548 14.8044C151.263 14.7198 151.263 14.7141 151.548 14.5645C151.757 14.4432 151.817 14.3275 151.832 14.0057V13.6021L152.282 13.5034C152.761 13.4017 152.895 13.3086 152.506 13.3368C152.386 13.3453 152.192 13.3622 152.072 13.3707C151.862 13.3848 151.817 13.3284 151.593 12.8316C151.533 12.6679 151.563 12.6171 151.817 12.524C152.087 12.428 152.102 12.3998 151.937 12.2559C151.832 12.1571 151.757 11.8353 151.772 11.3951V10.6951L152.252 10.6189C152.821 10.5342 152.88 10.4552 152.401 10.458C152.087 10.4609 152.057 10.4411 151.802 10.0375C151.608 9.72706 151.533 9.45047 151.563 9.00736C151.593 8.35258 151.413 6.43621 151.293 6.33461C151.263 6.30074 151.054 6.233 150.844 6.18502L150.44 6.09753L150.934 6.02133L151.413 5.94513L151.293 5.74756C151.219 5.63749 151.144 5.57822 151.114 5.61209C151.009 5.73627 150.784 5.67418 150.784 5.52177C150.784 5.4371 150.859 5.36654 150.934 5.36654C151.024 5.36654 151.099 5.38912 151.099 5.41453C151.159 5.56693 151.368 5.16334 151.368 4.88675C151.383 4.42388 151.174 4.06827 150.799 3.93562C150.47 3.81144 149.557 3.64492 149.212 3.64492C149.092 3.64492 148.823 3.59694 148.628 3.54049C147.805 3.3147 146.412 3.21874 144.571 3.2639C143.822 3.28084 143.702 3.27519 143.283 3.21028C142.61 3.10303 142.175 3.09174 141.172 3.15948C140.379 3.2131 140.244 3.21592 139.974 3.17923C139.75 3.15101 139.405 3.14536 138.747 3.15665C137.878 3.17076 137.818 3.16794 137.399 3.08327C136.845 2.9732 136.666 2.9732 136.261 3.07763ZM138.597 3.80579C138.208 3.88199 137.489 4.04851 136.995 4.18116C135.752 4.52267 135.318 4.59323 134.315 4.6158C133.851 4.62427 133.327 4.65532 133.087 4.68918C132.683 4.74563 132.668 4.74563 132.668 4.69201C132.668 4.58476 133.387 4.46904 134.659 4.37873C135.333 4.32792 135.932 4.2743 135.977 4.25736C136.037 4.24325 136.157 4.15576 136.246 4.06545C136.381 3.93844 136.531 3.88482 136.905 3.82555C137.534 3.72677 138.163 3.67596 138.807 3.67314H139.316L138.597 3.80579ZM33.7023 3.80015C33.7023 3.82273 33.5675 3.84248 33.4028 3.84248C33.1034 3.84248 33.0135 3.81144 33.2082 3.77757C33.3878 3.74088 33.7023 3.75781 33.7023 3.80015ZM149.572 3.88482C149.871 3.90175 149.916 3.91586 149.841 4.00618C149.706 4.15858 149.512 4.17552 148.988 4.08238C148.389 3.97513 148.374 3.82273 148.973 3.85377C149.107 3.85942 149.377 3.87353 149.572 3.88482ZM127.548 4.0344C127.578 4.05416 127.503 4.06827 127.368 4.06827C127.233 4.06827 127.128 4.04851 127.128 4.02311C127.128 3.97513 127.458 3.9836 127.548 4.0344ZM27.2642 4.13883C27.3691 4.16141 27.414 4.20092 27.3541 4.2235C27.2493 4.27995 26.0814 4.27995 25.3778 4.2235C24.6741 4.16705 24.8537 4.11343 25.6772 4.13318C26.0216 4.14165 26.3959 4.13883 26.5156 4.12472C26.8301 4.0852 27.0546 4.09085 27.2642 4.13883ZM4.80605 7.72602C4.80605 7.77118 4.71622 7.83609 4.59644 7.86432C4.40181 7.91512 4.38683 7.91512 4.297 7.85585C4.1922 7.79658 4.297 7.64135 4.46169 7.5849C4.59644 7.54539 4.80605 7.63288 4.80605 7.72602ZM7.50104 12.7018C7.50104 12.7667 7.26148 12.8034 7.12673 12.7611C6.99198 12.7216 7.14171 12.6482 7.35132 12.6482C7.42618 12.6482 7.50104 12.6736 7.50104 12.7018ZM151.233 19.8395C151.233 19.8988 150.964 19.958 150.68 19.958C150.41 19.958 150.44 19.8875 150.724 19.8339C151.039 19.7746 151.233 19.7774 151.233 19.8395ZM131.755 22.7804C131.904 22.7945 132.129 22.8368 132.264 22.8735C132.473 22.9356 132.473 22.9582 132.144 23.1642C131.695 23.4549 131.515 23.5424 131.336 23.5424C130.856 23.5424 130.272 23.5001 130.272 23.4662C130.272 23.4465 130.407 23.3759 130.572 23.3138C130.826 23.2207 130.871 23.1727 130.782 23.0372C130.692 22.8905 130.722 22.8651 131.006 22.8114C131.365 22.7437 131.395 22.7437 131.755 22.7804ZM149.916 22.8312L150.32 22.882L149.302 22.8707C148.613 22.8622 148.119 22.8735 147.73 22.9046C147.011 22.961 146.757 22.9638 147.041 22.9102C147.745 22.7776 149.182 22.738 149.916 22.8312ZM123.984 22.913C123.984 22.9808 123.834 23.0203 123.43 23.0598C123.116 23.0908 123.086 23.088 123.086 23.009C123.086 22.9582 123.191 22.913 123.355 22.8961C123.745 22.8509 123.984 22.8594 123.984 22.913ZM128.566 23.1106C128.311 23.2066 127.907 23.2771 127.772 23.2517C127.667 23.2291 128.131 23.0908 128.461 23.0429C128.805 22.9977 128.835 23.0175 128.566 23.1106ZM87.8265 23.4634C87.6918 23.5481 87.2725 23.6609 87.0779 23.6638C86.7635 23.6666 86.8533 23.5763 87.2276 23.4888C87.6918 23.3872 87.9613 23.3759 87.8265 23.4634ZM111.932 23.596C111.707 23.6779 111.228 23.7146 111.048 23.6609C110.958 23.6299 111.632 23.438 111.887 23.4211C112.186 23.4041 112.201 23.5001 111.932 23.596ZM74.2767 23.4577C74.4564 23.4775 74.4564 23.4916 74.3216 23.517C74.1869 23.5424 74.0821 23.5424 73.9174 23.5142C73.5281 23.4549 73.8425 23.4041 74.2767 23.4577ZM150.724 23.5452C150.605 23.6581 149.886 23.771 149.886 23.6779C149.886 23.644 150.605 23.4577 150.739 23.4577C150.784 23.4577 150.784 23.4973 150.724 23.5452ZM100.927 23.596C100.762 23.6581 100.553 23.6722 100.418 23.6327C100.328 23.6017 100.508 23.5537 100.777 23.5368C101.092 23.517 101.122 23.5283 100.927 23.596Z" fill="black"/>
<defs>
<clipPath id="clip0_887_7717">
<rect width="186" height="150" fill="white" transform="matrix(0 -1 1 0 2 207)"/>
</clipPath>
<clipPath id="clip1_887_7717">
<rect width="100" height="100" fill="white" transform="translate(28 21)"/>
</clipPath>
</defs>
</svg>
