<svg width="44" height="42" viewBox="0 0 44 42" fill="none" xmlns="http://www.w3.org/2000/svg">
<path d="M39.6239 1.07706C39.5104 1.29747 39.4203 1.32435 39.2285 1.18996L39.0641 1.07169L39.0915 1.21146C39.1072 1.30823 39.0994 1.35123 39.0681 1.35123C39.0211 1.35123 38.5866 1.20071 38.34 1.10394C38.2774 1.07706 38.1873 1.11469 38.0543 1.21684L37.8546 1.36198L36.9035 1.37811C36.3789 1.38886 35.9288 1.41037 35.9014 1.43725C35.8701 1.45875 35.6665 1.47488 35.4395 1.46413C35.2164 1.45875 34.868 1.48563 34.6684 1.51788C34.3827 1.57164 34.2339 1.57164 33.9795 1.51788C33.7368 1.4695 33.5685 1.4695 33.3023 1.51251C33.1105 1.54477 32.7426 1.59315 32.4842 1.62003C32.2298 1.64691 31.9127 1.71142 31.7875 1.7598C31.5957 1.83506 31.5291 1.84044 31.4274 1.79205C31.2591 1.70604 30.6171 1.71142 30.1122 1.80281C29.5798 1.89957 28.0767 1.86732 27.4505 1.74905C27.0825 1.67916 26.9299 1.67379 26.6089 1.72217C25.9944 1.81356 23.8141 1.87269 20.1973 1.90495L18.5572 1.9157L18.4907 1.79205L18.4241 1.66303L18.291 1.76517C18.1658 1.86194 18.0992 1.86732 17.5082 1.82969C17.152 1.81356 16.7527 1.76517 16.6157 1.72755C16.4044 1.66841 16.2987 1.67379 15.9112 1.74905C15.5784 1.81894 15.4062 1.82969 15.2888 1.79205C15.0344 1.71142 13.5352 1.77593 13.3042 1.8727C13.0068 2.00172 11.8403 1.93183 11.6172 1.77055C11.4528 1.65766 11.261 1.6254 11.0809 1.68991C10.9909 1.72217 10.9753 1.71142 10.9518 1.57164C10.94 1.491 10.8813 1.35661 10.8226 1.28135L10.713 1.1362L10.4233 1.30285C10.1885 1.43725 10.1063 1.46413 9.97711 1.43187C9.88708 1.41037 9.75008 1.39962 9.66788 1.39962C9.58177 1.40499 9.46042 1.37811 9.38997 1.34586C9.28819 1.29747 9.21382 1.30285 9.01028 1.36736C8.87328 1.41037 8.658 1.46413 8.53274 1.48563C8.33311 1.51789 8.29005 1.50713 8.21568 1.41037C8.16871 1.34586 8.07085 1.29747 7.97691 1.2921C7.84774 1.28135 7.79685 1.30823 7.68334 1.448C7.49545 1.68454 7.33105 1.74905 7.02183 1.70604C6.55603 1.63615 6.57951 1.63078 6.53645 1.80818C6.47383 2.0716 6.4386 2.10386 6.25071 2.06622C6.14503 2.0501 6.01194 2.06085 5.918 2.10386C5.76534 2.17374 5.76143 2.17374 5.62443 1.99096C5.55006 1.8942 5.4796 1.75443 5.46394 1.68454L5.44046 1.55552L5.34651 1.72217C5.26823 1.86194 5.22126 1.88882 5.09208 1.88882C4.94726 1.88882 4.93551 1.89957 4.959 2.00709C5.04511 2.39415 5.03337 2.56618 4.88463 3.01776C4.74371 3.44783 4.7398 3.48546 4.70849 4.32948C4.68891 4.81868 4.64977 5.35089 4.61063 5.5498C4.55191 5.87773 4.548 5.92073 4.60671 6.07664C4.6576 6.21103 4.66151 6.25941 4.62237 6.34543C4.58323 6.43144 4.58714 6.47983 4.6302 6.58735C4.66934 6.69486 4.67326 6.77013 4.63803 6.92065C4.6028 7.08193 4.60671 7.15719 4.67326 7.3776C4.81026 7.86143 4.75937 8.09797 4.40709 8.5818C4.27791 8.7592 4.13309 9.01187 4.08611 9.13552L4 9.36668L4.07829 9.6731C4.12526 9.83975 4.20354 10.3182 4.25834 10.7268C4.31706 11.1945 4.3836 11.517 4.42274 11.5869C4.46189 11.6514 4.58323 11.8396 4.69674 12.0062C4.81026 12.1729 4.91986 12.3664 4.93551 12.4363C4.959 12.5116 4.94726 12.8126 4.91203 13.2051C4.86897 13.7104 4.86506 13.9362 4.89637 14.2534C4.93551 14.6189 4.9316 14.6673 4.86506 14.8017C4.7946 14.9307 4.7946 14.9576 4.84548 15.0974C4.91203 15.2748 4.92768 16.4736 4.86897 16.8499C4.8494 16.9736 4.81417 17.2101 4.78677 17.3767C4.76328 17.5434 4.7124 17.7208 4.66934 17.7746C4.6028 17.8606 4.59889 17.8767 4.65369 17.9896C4.70849 18.1079 4.70457 18.1401 4.57149 18.4949C4.42274 18.9089 4.31706 19.3873 4.31706 19.6669C4.31706 19.8712 4.64586 20.5861 4.81026 20.7421C4.86897 20.7958 4.97466 20.9141 5.05294 21.0055C5.17037 21.1506 5.18603 21.1882 5.14688 21.2581C5.11948 21.3011 5.01771 21.3549 4.91986 21.3764C4.77503 21.4033 4.72806 21.4463 4.64977 21.6076C4.52451 21.871 4.40709 22.3494 4.39143 22.672C4.37577 22.9247 4.37969 22.9354 4.4932 22.9623C4.6028 22.9892 4.61063 23.0107 4.63411 23.2633C4.64977 23.4139 4.70849 23.688 4.7672 23.8708C4.86897 24.1719 4.87288 24.2256 4.83766 24.4837C4.78677 24.8331 4.80243 27.0587 4.86114 27.5049C4.88071 27.6823 4.89637 28.0909 4.89246 28.4188C4.88854 28.9134 4.90028 29.0478 4.97074 29.2575C5.0412 29.4779 5.04511 29.5155 4.99423 29.6445C4.96683 29.7252 4.92768 29.9509 4.90811 30.1445C4.8768 30.5208 4.91986 31.639 4.98248 32.0637C5.03728 32.4292 5.02946 32.6496 4.959 32.7894C4.9042 32.9023 4.9042 32.9399 4.96291 33.2679C5.02554 33.6012 5.02554 33.6657 4.96291 34.2516C4.89637 34.8591 4.88854 34.8806 4.78286 34.9344C4.67717 34.9935 4.62629 35.1118 4.70457 35.1118C4.72414 35.1118 4.77111 35.1494 4.80243 35.1978C4.85723 35.2731 4.85723 35.2946 4.80634 35.4343C4.73589 35.6225 4.73197 35.9128 4.7946 36.1063C4.82983 36.2138 4.82591 36.273 4.78677 36.3751C4.74763 36.4826 4.74763 36.5364 4.78677 36.6708C4.82983 36.8052 4.82591 36.859 4.78677 36.9718C4.74371 37.0794 4.74371 37.1546 4.77894 37.3589C4.80634 37.4987 4.84548 37.7944 4.86506 38.0148C4.88463 38.2352 4.93943 38.5739 4.98248 38.7566C5.02554 38.9555 5.06077 39.262 5.06468 39.4824C5.0686 39.6974 5.08034 40.0146 5.096 40.192L5.11948 40.5146L5.51091 40.5199C5.82014 40.5199 5.9454 40.5468 6.1098 40.6382C6.31334 40.7565 6.34857 40.7565 8.51708 40.7618C11.0614 40.7672 11.124 40.7672 11.2884 40.7027C11.3667 40.6705 11.4411 40.6705 11.488 40.7081C11.5976 40.7887 13.6448 40.778 13.7544 40.7027C13.8131 40.6543 13.8836 40.6597 14.0323 40.7081C14.2006 40.7672 14.2515 40.7672 14.4002 40.692C14.5412 40.6221 14.5999 40.6167 14.6938 40.6651C14.7917 40.7188 14.8347 40.7081 14.9756 40.6006C15.0813 40.5199 15.187 40.4823 15.277 40.4984C15.3945 40.5146 15.4219 40.5414 15.4571 40.7027C15.508 40.9124 15.5824 40.9554 15.7115 40.8586C15.8368 40.7726 18.9643 40.735 19.4497 40.821C19.7589 40.8747 19.8333 40.8694 20.0094 40.7887C20.1464 40.7296 20.2325 40.7135 20.2795 40.7511C20.3852 40.8317 20.5848 40.8425 20.9684 40.7887C21.2033 40.7565 21.489 40.7672 21.8609 40.8156C22.4637 40.8909 22.9021 40.8479 23.2935 40.6705C23.4696 40.5898 23.5127 40.5898 23.5949 40.6489C23.6732 40.7081 24.0098 40.7242 25.1332 40.7242C26.331 40.7242 26.6245 40.7081 26.8985 40.6328C27.0786 40.5844 27.2978 40.5414 27.3878 40.5414C27.5561 40.5414 27.8223 40.6812 27.9789 40.8532C28.0572 40.9392 28.1081 40.9446 28.4134 40.907C28.6052 40.8801 29.7521 40.8532 30.9616 40.8479L33.1614 40.8371L33.271 40.692L33.3845 40.5414L33.4667 40.6597C33.5489 40.7726 33.5763 40.7726 35.326 40.7941C36.3007 40.8049 37.3301 40.8156 37.608 40.821C37.9916 40.8264 38.1756 40.8049 38.3517 40.735C38.7314 40.5791 38.8254 40.5737 39.0289 40.692C39.3577 40.8855 39.6474 40.9231 40.2228 40.8317C40.5555 40.7833 40.8804 40.7672 41.1309 40.7887C41.4675 40.8156 41.5497 40.8049 41.718 40.7135C41.8433 40.6489 41.9411 40.6221 41.992 40.6543C42.0351 40.6758 42.1368 40.6973 42.219 40.6973L42.3717 40.7027L42.1877 40.4232C42.086 40.2673 41.9881 40.0845 41.9685 40.0146C41.8863 39.7135 41.949 39.3964 42.1447 39.1491C42.2738 38.9824 42.3091 39.0308 42.2543 39.2996C42.1094 39.9608 42.2817 40.407 42.7553 40.5737C43.1154 40.7027 43.3503 40.6489 43.5421 40.3855C43.726 40.1329 43.7848 39.8426 43.7652 39.2512C43.7534 38.8373 43.7378 38.7513 43.6282 38.504C43.4716 38.1599 43.4677 38.0954 43.6125 37.9879C43.8239 37.8427 43.8591 37.2299 43.7495 35.6924C43.6752 34.6065 43.6947 34.2248 43.8787 33.4721C43.9883 32.9991 44.0157 32.8324 43.9922 32.6711C43.957 32.4077 43.9061 32.4776 43.863 32.8485C43.82 33.241 43.7534 33.2571 43.7182 32.8808C43.6947 32.5797 43.7143 32.3378 43.7808 32.2249C43.8004 32.1873 43.7965 31.9346 43.7691 31.5798C43.7104 30.838 43.7065 29.8918 43.7613 27.6393C43.7965 26.1663 43.7926 25.7094 43.7495 25.1395C43.7221 24.7525 43.6947 24.2471 43.6947 24.0106C43.6947 23.6827 43.6752 23.5375 43.6204 23.4139C43.546 23.2526 43.546 23.2418 43.6204 22.9569C43.6752 22.7257 43.6908 22.5053 43.6947 21.8925V21.1237L43.8122 20.9356C43.9374 20.742 43.9726 20.5646 43.8709 20.6184C43.8396 20.6345 43.7887 20.6668 43.7574 20.6829C43.7026 20.7098 43.6908 20.6023 43.6321 19.6561C43.6164 19.3443 43.6243 19.2476 43.6908 19.0701C43.7613 18.8874 43.7652 18.8336 43.7221 18.5594C43.6947 18.3713 43.6752 17.7584 43.6791 16.9198V15.5866L43.8043 15.4414C43.9531 15.2801 43.9687 15.1296 43.8435 15.135C43.7613 15.1404 43.7534 15.1027 43.6869 14.334C43.636 13.7426 43.6164 13.2158 43.6243 12.3718C43.6321 11.1246 43.5851 7.47437 43.5538 7.28083C43.546 7.21632 43.4912 7.0873 43.4364 6.99591L43.3307 6.82926L43.4599 6.68411L43.5851 6.53896L43.5538 6.16265C43.5342 5.95299 43.5147 5.8401 43.5068 5.90461C43.4794 6.14114 43.4207 6.02288 43.4207 5.73258C43.4207 5.5713 43.4403 5.4369 43.4599 5.4369C43.4834 5.4369 43.5029 5.47991 43.5029 5.5283C43.5186 5.8186 43.5734 5.04984 43.5734 4.523C43.5773 3.64136 43.5225 2.964 43.4246 2.71133C43.3385 2.47479 43.0998 2.15762 43.0097 2.15762C42.9784 2.15762 42.908 2.06623 42.8571 1.95871C42.6418 1.52864 42.2778 1.34586 41.7963 1.43187C41.6006 1.46413 41.5693 1.45337 41.4597 1.32973C41.2835 1.12545 41.17 1.10394 40.9078 1.23296C40.7003 1.33511 40.6651 1.34048 40.5946 1.2706C40.5359 1.21684 40.4459 1.20609 40.2737 1.22759C40.0466 1.25447 40.031 1.24909 39.9214 1.08781C39.7765 0.878155 39.7296 0.878155 39.6239 1.07706ZM40.2345 2.46404C40.1327 2.60919 39.9449 2.92636 39.8157 3.17903C39.4908 3.82951 39.3773 3.96391 39.115 4.00692C38.9937 4.02305 38.8567 4.08218 38.7941 4.14669C38.6884 4.25421 38.6845 4.25421 38.6845 4.15207C38.6845 3.94778 38.8723 3.72738 39.2051 3.55534C39.3812 3.45858 39.5378 3.35644 39.5495 3.32418C39.5652 3.2973 39.5965 3.13065 39.62 2.95862C39.6552 2.71671 39.6943 2.61457 39.7922 2.50167C39.9566 2.31351 40.121 2.21675 40.2893 2.21137H40.4224L40.2345 2.46404ZM12.811 2.45329C12.811 2.4963 12.7758 2.53393 12.7328 2.53393C12.6545 2.53393 12.631 2.47479 12.6819 2.41028C12.7288 2.3404 12.811 2.37265 12.811 2.45329ZM43.1037 2.61457C43.182 2.64682 43.1937 2.6737 43.1741 2.84573C43.1389 3.13603 43.088 3.16828 42.951 2.99088C42.7944 2.78659 42.7905 2.4963 42.9471 2.55543C42.9823 2.56618 43.0528 2.59306 43.1037 2.61457ZM37.3458 2.89949C37.3536 2.93712 37.334 2.964 37.2988 2.964C37.2636 2.964 37.2362 2.92637 37.2362 2.87798C37.2362 2.78659 37.3223 2.80272 37.3458 2.89949ZM11.1279 3.0984C11.1553 3.1414 11.167 3.21667 11.1514 3.25967C11.124 3.36719 10.8187 3.36719 10.6347 3.25967C10.4507 3.15216 10.4977 3.05001 10.713 3.08764C10.803 3.10377 10.9009 3.0984 10.9322 3.07152C11.0144 2.99625 11.0731 3.007 11.1279 3.0984ZM5.25648 9.93114C5.25648 10.0172 5.233 10.1408 5.20168 10.1946C5.1508 10.2913 5.14688 10.2913 5.1234 10.1784C5.096 10.0655 5.1234 9.76987 5.16646 9.66235C5.20168 9.58709 5.25648 9.75374 5.25648 9.93114ZM5.96106 19.4088C5.96106 19.5325 5.89843 19.6024 5.8632 19.5217C5.82797 19.4465 5.86711 19.3067 5.92191 19.3067C5.94148 19.3067 5.96106 19.3551 5.96106 19.4088ZM43.5382 33.0044C43.5382 33.1173 43.4677 33.2302 43.3933 33.2302C43.3229 33.2302 43.3307 33.0958 43.4051 32.9937C43.4873 32.8808 43.5382 32.8862 43.5382 33.0044ZM38.4457 38.6061C38.4848 38.633 38.5435 38.7136 38.5788 38.7835C38.6336 38.9018 38.6336 38.9448 38.5475 39.3372C38.43 39.8909 38.3831 40.0576 38.3361 40.0576C38.2108 40.0576 38.0582 39.977 38.0582 39.9125C38.0582 39.8748 38.0934 39.7404 38.1365 39.6222C38.203 39.4448 38.2147 39.3534 38.1913 39.0953C38.1678 38.8158 38.1756 38.7674 38.25 38.6652C38.3439 38.5362 38.3517 38.5362 38.4457 38.6061ZM43.1937 38.7029L43.2994 38.7996L43.0332 38.7781C42.8532 38.762 42.724 38.7835 42.6222 38.8427C42.4343 38.9502 42.3678 38.9555 42.4422 38.8534C42.6261 38.6007 43.0019 38.5255 43.1937 38.7029ZM36.4142 38.8588C36.4142 38.9878 36.375 39.0631 36.2693 39.1383C36.1871 39.1975 36.1793 39.1921 36.1793 39.0416C36.1793 38.9448 36.2067 38.8588 36.2498 38.8265C36.3515 38.7405 36.4142 38.7566 36.4142 38.8588ZM37.6119 39.2351C37.5454 39.4179 37.4397 39.5523 37.4045 39.5039C37.3771 39.4609 37.4984 39.1975 37.5845 39.1061C37.6746 39.0201 37.6824 39.0577 37.6119 39.2351ZM26.9612 39.9071C26.9259 40.0684 26.8163 40.2834 26.7655 40.2888C26.6833 40.2941 26.7067 40.1221 26.8046 39.9555C26.9259 39.7619 26.9964 39.7404 26.9612 39.9071ZM33.2632 40.1597C33.2045 40.3156 33.0792 40.3855 33.0322 40.2834C33.0087 40.2243 33.1849 39.8587 33.2514 39.8264C33.3297 39.7942 33.3336 39.977 33.2632 40.1597ZM23.4188 39.8963C23.4657 39.934 23.4657 39.9608 23.4305 40.0092C23.3953 40.0576 23.3679 40.0576 23.3248 40.0038C23.223 39.8909 23.3052 39.7942 23.4188 39.8963ZM43.4051 40.063C43.3738 40.278 43.1859 40.493 43.1859 40.3156C43.1859 40.2511 43.3738 39.8963 43.409 39.8963C43.4207 39.8963 43.4207 39.9716 43.4051 40.063ZM30.3862 40.1597C30.3431 40.278 30.2883 40.3049 30.2531 40.2296C30.2296 40.1705 30.2766 40.0791 30.347 40.0469C30.4292 40.0092 30.4371 40.0307 30.3862 40.1597Z" fill="black"/>
<path fill-rule="evenodd" clip-rule="evenodd" d="M24.2971 7.02939C24.1731 7.07654 23.8636 7.39766 23.7237 7.62435C23.4348 8.09239 23.3741 8.73075 23.4624 10.3732C23.5251 11.5379 23.4838 12.5208 23.3223 13.7103C23.2136 14.5109 23.1926 15.509 23.2592 16.7045C23.2867 17.1974 23.2817 17.7361 23.2434 18.4182C23.2127 18.9653 23.2009 19.4524 23.2171 19.5005C23.2575 19.6195 23.5621 19.778 23.9154 19.8636C24.51 20.0078 25.3757 19.8698 25.6831 19.5817C25.8005 19.4717 25.8083 19.4449 25.7824 19.2409C25.7238 18.779 25.6865 16.9719 25.7235 16.386C25.7447 16.0499 25.7632 15.538 25.7645 15.2483C25.7668 14.7716 25.7399 14.4866 25.5701 13.1836C25.516 12.7683 25.4992 11.0906 25.5325 9.41247C25.5532 8.36379 25.5269 8.1596 25.3207 7.76917C25.011 7.18289 24.6257 6.90445 24.2971 7.02939ZM18.9429 9.23908C18.7791 9.30755 18.5535 9.55241 18.4242 9.80194C18.2095 10.2163 18.2232 12.3879 18.4477 13.5207C18.619 14.3856 18.6505 14.6994 18.7033 16.07L18.752 17.334L19.0165 18.3242C19.4264 19.8592 19.5511 20.6628 19.5527 21.7811C19.5538 22.4682 19.6957 22.8983 20.1082 23.4648C20.3963 23.8604 21.3025 24.6769 21.7618 24.9548L21.879 25.0257L21.9812 24.7614C22.2388 24.0948 22.8146 23.0739 23.3898 22.264C23.7211 21.7975 24.467 20.855 24.5062 20.8535C24.5361 20.8524 25.0097 21.4335 25.3636 21.9058C25.9334 22.6662 26.6102 23.8336 26.933 24.6129C27.0169 24.8156 27.1017 24.9815 27.1213 24.9816C27.1982 24.9819 27.691 24.6083 28.0896 24.2473C28.4837 23.8905 28.9921 23.3056 29.2186 22.9487L29.3189 22.7907L28.6969 22.7901C28.0893 22.7897 27.802 22.7484 27.4903 22.6171C27.3706 22.5665 27.4673 22.5577 28.3523 22.5385C28.9005 22.5265 29.3601 22.5064 29.3736 22.4938C29.387 22.4812 29.4184 22.0071 29.4433 21.4404C29.4723 20.7762 29.5206 20.2377 29.5791 19.9254C29.8017 18.7346 29.897 18.3127 30.0497 17.8418C30.2125 17.3394 30.213 17.3356 30.2565 16.1985C30.3074 14.8695 30.3541 14.3887 30.5049 13.6383C30.693 12.7031 30.7532 11.4854 30.6622 10.4548C30.6259 10.044 30.6009 9.94617 30.4759 9.72647C30.0987 9.06321 29.605 9.01222 29.1891 9.59357C28.8325 10.0921 28.72 10.5819 28.6152 12.0919C28.5342 13.2593 28.3384 14.5044 28.0691 15.5643C27.8341 16.4895 27.6897 17.2757 27.5585 18.3453C27.5073 18.7625 27.4361 19.2128 27.4002 19.346C27.2151 20.0323 26.9323 20.1824 26.5143 19.8161C26.2542 19.5881 26.2462 19.5885 25.7364 19.8615C25.2975 20.0964 25.0301 20.177 24.5899 20.2067C24.1404 20.2372 23.7906 20.1489 23.2117 19.859C22.9607 19.7333 22.7337 19.6305 22.7073 19.6305C22.6809 19.6305 22.5567 19.7158 22.4314 19.8201C22.1704 20.0372 22.006 20.0645 21.8599 19.9149C21.6337 19.683 21.5666 19.4383 21.441 18.3874C21.3051 17.2495 21.1438 16.337 20.9454 15.5827C20.6448 14.4399 20.5223 13.6728 20.3843 12.067C20.2616 10.6388 20.1168 10.042 19.7828 9.58713C19.5357 9.25071 19.224 9.12152 18.9429 9.23908ZM14.8071 17.0657C14.6502 17.1371 14.6045 17.2597 14.5609 17.7262C14.4979 18.4008 14.3955 19.0048 14.174 20.0097C14.0642 20.5079 13.9622 21.0686 13.9473 21.2556L13.9203 21.5955L14.2858 22.2238C14.4868 22.5693 14.659 22.8714 14.6683 22.8951C14.6907 22.9516 14.7387 22.9202 15.1905 22.5537C15.6039 22.2183 15.8714 22.0761 16.1502 22.0436L16.3382 22.0217L16.1359 22.2211C16.0246 22.3307 15.7059 22.5991 15.4276 22.8173C15.1494 23.0356 14.9218 23.2253 14.9218 23.2389C14.9218 23.2524 15.0001 23.3515 15.0958 23.459C15.299 23.6872 15.6806 24.235 15.955 24.6926C16.0612 24.8695 16.3297 25.2108 16.5518 25.451C16.9168 25.8458 16.9943 25.9624 17.3605 26.6672C17.9067 27.7183 18.2278 28.4113 18.637 29.4214C19.0799 30.5149 19.308 30.9703 19.6621 31.4676C20.1862 32.2037 20.2927 32.2847 23.3533 34.2739C23.749 34.5311 24.0988 34.7561 24.1307 34.774C24.1626 34.7918 24.0412 34.601 23.8609 34.35L23.5331 33.8935L23.5082 32.4609L23.4832 31.0282L23.3205 30.4594C23.0415 29.4835 22.7064 28.4914 22.3529 27.5942C21.9735 26.6314 21.8616 26.2739 21.8197 25.8902L21.7912 25.6294L21.5604 25.5103C20.9921 25.2169 19.9994 24.0823 19.6454 23.3217L19.4946 22.9976L19.3651 23.2195C19.1431 23.5999 18.9287 23.7598 18.6405 23.7598C18.4218 23.7598 18.2121 23.6104 17.9796 23.2892C17.8683 23.1354 17.6529 22.8859 17.5009 22.7348C17.3027 22.5377 17.2025 22.3966 17.1463 22.2356C17.0125 21.8527 16.9012 21.6851 16.562 21.3563C16.1455 20.9527 16.1294 20.88 16.2712 20.0398C16.3445 19.6059 16.365 19.3513 16.3455 19.1154C16.2958 18.5111 15.9791 17.8333 15.5256 17.3606C15.2219 17.0441 15.0287 16.9648 14.8071 17.0657ZM33.49 17.3075C33.2748 17.5174 33.1358 17.7058 32.9848 17.9922C32.6326 18.6605 32.5702 19.1145 32.7152 19.9538C32.8037 20.4659 32.784 20.5778 32.5094 21.125C32.303 21.5364 32.03 21.9387 31.5194 22.5842C31.3067 22.8531 31.0399 23.1955 30.9265 23.3452C30.4766 23.9386 29.9722 23.89 29.5644 23.2139L29.4512 23.0261L29.3594 23.2267C28.9921 24.0297 28.0589 25.1257 27.4208 25.5034L27.2164 25.6244L27.1653 25.9761C27.1135 26.3315 26.9916 26.689 26.5716 27.7168C26.3171 28.3397 25.8292 29.7845 25.6513 30.4423C25.4836 31.062 25.445 31.4918 25.4446 32.7449L25.4443 33.8716L25.2359 34.1775C25.1212 34.3457 24.9678 34.5545 24.8948 34.6414C24.8219 34.7283 24.7735 34.7994 24.7873 34.7994C24.8011 34.7994 25.1869 34.5577 25.6447 34.2622C28.4694 32.4388 28.8155 32.1752 29.3098 31.4707C29.6761 30.9487 29.8204 30.6759 30.298 29.6025C31.087 27.8296 31.5521 26.9399 31.9549 26.4328C32.3736 25.9058 32.5213 25.672 32.9458 24.8639C33.3611 24.0734 33.4111 23.9957 33.8001 23.5349C33.9339 23.3764 34.0259 23.2316 34.0045 23.2129C33.9832 23.1943 33.7634 23.0277 33.5161 22.8427C33.2687 22.6576 32.9762 22.4186 32.8659 22.3114L32.6654 22.1165L32.8209 22.1169C33.1113 22.1177 33.4189 22.2967 34.1735 22.9038C34.2388 22.9563 34.2855 22.8954 34.6232 22.3182L35 21.6741L34.9939 21.358C34.9903 21.1721 34.9037 20.6517 34.7834 20.094C34.5546 19.0324 34.513 18.7834 34.4152 17.8886C34.3776 17.5447 34.3264 17.2276 34.3014 17.1838C34.2395 17.0753 34.113 17.018 33.9355 17.018C33.8107 17.018 33.7396 17.0642 33.49 17.3075ZM24.0621 22.6295C23.4648 23.5704 22.8101 24.721 22.7037 25.0169C22.6366 25.2037 22.6114 25.3809 22.6118 25.6651C22.6125 26.1208 22.6609 26.3089 22.9424 26.9475C23.3911 27.9654 23.9003 29.5095 24.1354 30.5647C24.2643 31.1434 24.2672 31.1863 24.2913 32.819C24.3083 33.9737 24.3357 34.5972 24.381 34.855C24.4764 35.399 24.4902 35.3913 24.5921 34.7362C24.6211 34.5508 24.6592 33.6122 24.6771 32.6505L24.7095 30.9018L24.9423 30.0648C25.2259 29.0455 25.5822 28.0146 25.9711 27.0885C26.1317 26.7061 26.2933 26.2606 26.3302 26.0983C26.4139 25.7302 26.3851 25.297 26.2553 24.9734C26.0766 24.5277 24.863 22.4686 24.551 22.0818L24.4721 21.9839L24.0621 22.6295ZM24.2659 23.3875C23.8231 24.1298 23.3678 24.9706 23.2837 25.2016C23.1081 25.6833 23.1345 25.8076 23.73 27.3096C23.9969 27.9828 24.2404 28.7353 24.3864 29.3385C24.4855 29.7483 24.4906 29.7579 24.5215 29.5956C24.6515 28.9134 25.0093 27.8307 25.4902 26.6648C25.7569 26.0181 25.8175 25.7406 25.7594 25.4315C25.7166 25.2036 24.7699 23.3809 24.5775 23.1558L24.4754 23.0363L24.2659 23.3875ZM0.0266127 41.9923C0.082553 42.0024 0.163496 42.002 0.206485 41.9915C0.249475 41.981 0.203697 41.9727 0.104767 41.9732C0.00583747 41.9736 -0.0293276 41.9823 0.0266127 41.9923ZM0.567219 41.9936C0.697851 42.0022 0.900208 42.0021 1.0169 41.9935C1.13355 41.9848 1.02661 41.9778 0.779288 41.9779C0.531964 41.978 0.436542 41.9851 0.567219 41.9936Z" fill="white"/>
</svg>
