<svg width="20" height="18" viewBox="0 0 20 18" fill="none" xmlns="http://www.w3.org/2000/svg">
<path d="M10.5404 2.61825L10.8409 2.31856C11.7077 1.47759 12.8704 1.01088 14.0782 1.01921C15.288 1.02755 16.4459 1.51181 17.3014 2.36724L18.0085 1.6601L17.3014 2.36724C18.1569 3.22267 18.6413 4.3805 18.6498 5.5903C18.6582 6.79789 18.1918 7.96036 17.3513 8.82719L17.0513 9.12717L9.83428 16.3442L2.61725 9.12717L2.31545 8.82538C1.46719 7.95972 0.994479 6.79439 1.00005 5.5823C1.00562 4.36873 1.49019 3.20645 2.34832 2.34832C3.20645 1.49019 4.36873 1.00562 5.5823 1.00005C6.79439 0.994479 7.95972 1.46718 8.82538 2.31545L9.12717 2.61725L9.83328 3.32335L10.5404 2.61825Z" fill="#E2222A" stroke="black" stroke-width="2"/>
</svg>
