<svg width="115" height="114" viewBox="0 0 115 114" fill="none" xmlns="http://www.w3.org/2000/svg">
<path d="M51.2439 0.275762C50.7839 0.643762 50.9449 2.16176 51.4279 1.97776C51.5889 1.90876 52.0949 1.79376 52.5319 1.70176C53.5899 1.51776 53.7049 1.28776 53.1989 0.574762C52.7389 -0.0462377 51.8419 -0.184238 51.2439 0.275762Z" fill="black"/>
<path d="M63.641 1.35703C63.273 1.58703 62.56 1.86303 62.031 1.95502C61.249 2.09303 61.157 2.13903 61.525 2.30003C61.962 2.46103 61.939 2.48402 61.41 2.59903C61.088 2.66803 60.283 2.80603 59.593 2.87503C58.466 3.01302 58.305 2.96703 57.868 2.43803C57.592 2.13903 57.017 1.81702 56.58 1.72503C55.913 1.58703 55.821 1.61003 56.074 1.86303C56.879 2.71403 55.775 3.10503 54.74 2.30003C54.188 1.88602 54.165 1.88602 53.705 2.30003C53.337 2.62202 52.601 2.78303 50.209 2.96703C48.553 3.12803 46.69 3.38103 46.069 3.56503C44.551 4.02502 44.528 3.97903 45.954 3.33503C46.667 3.01302 47.15 2.64503 47.15 2.41502C47.15 2.02402 46.989 1.95502 45.724 1.72503C44.919 1.61003 44.85 1.63303 44.85 2.16203C44.85 2.55302 44.597 2.89803 44.114 3.24303C43.7 3.51903 43.309 3.79503 43.263 3.84103C43.217 3.86403 43.309 4.32403 43.47 4.85303C43.746 5.68102 43.861 5.77303 44.413 5.70403C44.781 5.63503 44.988 5.70403 44.919 5.81902C44.666 6.25603 43.217 6.67003 42.044 6.67003C40.848 6.64703 40.825 6.64703 41.515 6.34802L42.205 6.04903L41.354 5.63503C40.641 5.29002 40.388 5.26703 39.882 5.49702C39.169 5.81902 38.916 5.68102 39.33 5.17503C39.491 4.96803 39.583 4.78403 39.537 4.73803C39.422 4.64603 33.626 6.32503 30.82 7.24503C28.129 8.11903 24.748 9.89002 23.276 11.178C22.057 12.236 21.988 12.535 22.885 12.696C23.138 12.742 23.345 12.88 23.345 12.995C23.368 13.133 23.46 13.478 23.552 13.777L23.736 14.329L24.035 13.616C24.403 12.765 25.047 12.328 26.795 11.707C28.221 11.201 28.566 11.27 27.991 11.891C27.577 12.374 26.818 14.237 26.565 15.41L26.404 16.215L27.094 15.295C27.462 14.789 28.405 13.777 29.187 13.064C30.36 11.96 30.59 11.615 30.613 10.925C30.636 10.488 30.659 9.98203 30.682 9.82102C30.728 9.15402 32.315 8.71703 32.844 9.24603C33.051 9.45303 32.867 9.77502 32.085 10.603C31.51 11.224 31.05 11.891 31.05 12.098C31.05 12.374 31.326 12.19 31.97 11.5C32.729 10.672 32.959 10.557 33.488 10.672C34.178 10.856 34.96 10.396 34.454 10.097C34.293 10.005 34.224 9.86703 34.27 9.82102C34.776 9.43002 37.927 7.59003 38.134 7.59003C38.525 7.59003 38.709 8.55602 38.433 9.22302C38.318 9.56802 37.812 10.028 37.329 10.281C36.846 10.534 35.65 11.155 34.661 11.684C33.258 12.443 32.637 12.65 31.74 12.65C30.774 12.65 30.59 12.719 30.59 13.087C30.59 13.317 30.751 13.639 30.935 13.8C31.119 13.961 31.28 14.214 31.28 14.398C31.28 14.858 30.107 15.594 28.842 15.893C28.221 16.054 26.91 16.56 25.944 17.066C24.679 17.687 24.15 17.848 24.15 17.618C24.15 17.457 24.403 16.606 24.748 15.755C25.07 14.881 25.3 13.915 25.254 13.593C25.139 12.627 24.541 12.88 24.15 14.076C23.874 14.973 23.736 15.134 23.345 15.042C23.092 14.973 22.494 15.088 22.011 15.295C21.551 15.479 21.16 15.571 21.16 15.479C21.16 15.387 21.551 14.904 22.011 14.398L22.885 13.501L21.505 14.467C20.746 15.019 19.205 16.077 18.055 16.859C16.054 18.216 13.34 20.677 13.34 21.091C13.34 21.206 13.639 21.275 14.03 21.206C15.042 21.068 14.927 21.551 13.455 23.345C12.765 24.173 12.19 24.932 12.19 24.978C12.19 25.185 12.443 25.047 13.202 24.38C13.662 23.966 14.053 23.782 14.145 23.897C14.214 24.035 13.064 25.346 11.592 26.795C8.94699 29.44 8.92399 29.486 9.08499 30.314C9.26899 31.28 9.65999 31.855 9.65999 31.142C9.65999 29.808 10.672 27.6 11.293 27.6C11.638 27.6 11.523 28.336 10.672 31.648C10.212 33.419 9.77499 35.673 9.68299 36.685L9.54499 38.525L8.69399 37.145C8.21099 36.386 7.81999 35.926 7.81999 36.133C7.81999 36.34 7.24499 37.214 6.55499 38.065C5.86499 38.893 5.28999 39.629 5.28999 39.675C5.28999 39.698 5.12899 40.112 4.94499 40.572C4.76099 41.032 4.64599 41.4 4.69199 41.4C4.73799 41.4 5.12899 40.871 5.54299 40.204L6.30199 39.031L6.60099 39.698C7.01499 40.664 6.96899 41.446 6.32499 44.85C5.74999 47.955 5.63499 49.887 5.97999 50.715C6.16399 51.129 6.18699 51.129 6.18699 50.577C6.20999 49.841 6.73899 49.105 7.08399 49.312C7.42899 49.519 7.42899 50.922 7.10699 52.417C6.76199 54.05 6.34799 54.234 6.48599 52.67L6.60099 51.474L5.84199 51.589C4.92199 51.75 4.92199 51.727 4.69199 48.645C4.62299 47.38 4.46199 46.115 4.34699 45.816C4.04799 45.034 3.49599 45.195 3.31199 46.115C3.10499 47.288 3.35799 48.737 4.36999 51.865C5.35899 54.947 5.68099 56.35 5.35899 56.35C5.24399 56.35 4.82999 55.913 4.41599 55.384C3.63399 54.372 3.51899 54.441 3.93299 55.614C4.07099 56.005 4.30099 56.304 4.43899 56.281C4.62299 56.258 4.71499 56.833 4.71499 58.259C4.71499 59.363 4.66899 60.26 4.59999 60.26C4.53099 60.26 4.13999 60.053 3.74899 59.8L2.98999 59.34L3.01299 59.984C3.03599 61.272 3.33499 62.675 3.56499 62.606C3.84099 62.514 5.08299 67.367 5.79599 71.346C6.09499 72.933 6.39399 74.152 6.46299 74.014C6.64699 73.715 7.24499 74.796 7.47499 75.877C7.75099 77.119 8.02699 76.245 7.91199 74.52L7.81999 73.025L8.16499 74.29C8.37199 74.98 8.62499 76.659 8.73999 78.016C8.85499 79.396 9.08499 80.983 9.22299 81.581L9.49899 82.639L9.91299 82.133L10.327 81.627L10.649 82.409C11.362 84.111 11.385 84.249 10.764 84.134L10.189 84.019L10.718 84.824C11.017 85.261 11.27 85.859 11.27 86.135C11.27 86.595 12.121 87.63 12.489 87.63C12.581 87.63 12.604 87.354 12.512 87.009C12.443 86.641 12.857 87.216 13.432 88.251C14.007 89.309 14.49 90.39 14.49 90.689C14.49 91.77 15.502 93.242 17.25 94.645C18.193 95.427 19.09 96.278 19.228 96.554C19.481 97.06 22.793 100.211 25.162 102.166C26.887 103.615 29.992 105.685 32.269 106.95C33.327 107.525 33.971 108.008 33.81 108.1C33.557 108.261 40.434 112.194 42.849 113.252C45.471 114.402 47.771 115 49.588 115C50.508 115 51.29 114.931 51.29 114.862C51.29 114.793 51.175 114.54 51.06 114.287C50.899 113.988 50.899 113.85 51.06 113.85C51.175 113.85 51.29 113.666 51.29 113.436C51.29 113.068 51.658 113.045 55.936 113.045C60.95 113.045 63.595 112.723 67.896 111.665C69.184 111.343 70.265 111.09 70.288 111.09C70.334 111.09 70.38 111.573 70.38 112.194C70.38 113.528 70.863 114.31 71.691 114.31H72.289L71.645 113.712C71.116 113.229 71.024 112.999 71.139 112.309C71.3 111.389 71.806 110.745 72.726 110.262C73.324 109.94 73.37 109.963 73.37 110.377C73.37 111.274 74.037 111.32 77.418 110.722C79.166 110.423 80.891 110.101 81.259 110.032C81.811 109.894 81.88 109.94 81.88 110.492C81.88 111.182 81.926 111.205 83.398 110.745C84.019 110.561 84.548 110.4 84.594 110.4C84.617 110.4 84.64 110.768 84.64 111.205C84.64 111.711 84.502 112.079 84.249 112.217C84.019 112.355 83.927 112.47 84.019 112.47C84.341 112.47 85.606 111.504 85.468 111.389C85.399 111.32 85.56 110.952 85.813 110.607L86.273 109.94H85.261C84.686 109.94 83.927 109.871 83.536 109.802C82.915 109.687 82.846 109.595 83.03 109.227C83.168 108.997 83.26 108.468 83.26 108.054V107.272L85.008 107.433L86.756 107.617L87.446 106.835C87.814 106.398 88.918 105.616 89.884 105.064C90.85 104.535 92.023 103.73 92.437 103.293C92.874 102.833 93.15 102.626 93.035 102.81C92.92 103.017 93.035 102.994 93.334 102.718C93.909 102.235 94.047 101.89 93.495 102.35C93.242 102.557 93.15 102.557 93.15 102.373C93.15 102.235 93.311 102.051 93.495 101.982C93.679 101.89 93.84 101.66 93.84 101.43C93.84 101.223 94.139 100.625 94.53 100.096L95.197 99.153L93.978 99.59C92.897 99.958 90.045 100.51 89.217 100.51C89.056 100.51 89.263 100.142 89.7 99.705C90.298 99.084 90.551 98.969 90.873 99.153C91.218 99.337 91.425 99.199 92.023 98.394C92.414 97.842 92.943 96.991 93.196 96.485C93.679 95.542 95.933 92.391 96.577 91.77C96.784 91.563 97.612 90.597 98.44 89.585C99.268 88.573 100.648 86.917 101.522 85.905C103.569 83.513 106.145 79.603 107.64 76.636C108.583 74.727 108.905 74.267 109.25 74.359C109.618 74.451 109.664 74.267 109.756 72.887C109.802 72.036 109.917 71.254 109.986 71.185C110.078 71.093 110.377 71.185 110.676 71.392C111.711 72.128 111.849 71.921 111.665 69.966C111.435 67.482 111.458 65.895 111.757 65.389C111.895 65.159 112.01 65.09 112.01 65.251C112.01 65.596 112.861 66.079 113.16 65.895C113.298 65.803 113.137 65.274 112.815 64.607C112.332 63.687 112.286 63.48 112.585 63.48C112.792 63.48 113.137 63.043 113.39 62.468C113.62 61.916 113.919 61.433 114.057 61.387C114.195 61.318 114.034 60.26 113.62 58.443C112.792 55.039 112.769 54.602 113.413 54.441C113.85 54.326 113.873 54.372 113.735 55.131C113.643 55.706 113.689 56.005 113.896 56.143C114.862 56.764 115.023 55.982 114.31 53.912C114.034 53.176 113.827 52.072 113.827 51.497C113.804 50.485 113.781 50.439 113.229 50.554L112.631 50.669L112.7 47.587C112.815 42.895 112.815 42.872 112.033 42.412C111.458 42.09 111.228 41.607 110.538 39.422C109.526 36.294 107.847 32.499 106.398 30.061C105.823 29.072 105.34 28.106 105.34 27.945C105.34 27.784 104.903 27.14 104.351 26.542C103.822 25.921 102.764 24.633 102.005 23.69C100.142 21.344 96.669 17.917 94.277 16.054C92.483 14.651 87.952 11.638 87.331 11.431C87.193 11.385 87.446 10.902 87.952 10.281C88.918 9.10802 88.964 8.41802 88.136 7.86603C87.607 7.52103 87.607 7.52103 87.883 8.11903C88.113 8.62502 88.09 8.83202 87.768 9.29202C87.216 10.143 86.549 10.419 85.491 10.258C84.962 10.166 84.433 10.005 84.295 9.91302C84.18 9.79803 83.674 9.59103 83.191 9.43002C82.386 9.17702 82.34 9.13103 82.662 8.76302C82.869 8.53303 83.03 8.23402 83.03 8.09602C83.03 7.54403 81.581 6.23302 79.534 4.87603C77.211 3.35802 76.521 3.24303 75.716 4.25503L75.302 4.76102L74.198 3.47303C73.094 2.20803 73.048 2.18503 71.783 2.16203C71.07 2.16203 69.828 1.93203 69 1.67902C68.172 1.42603 66.792 1.15002 65.895 1.05803C64.561 0.966026 64.17 1.01202 63.641 1.35703ZM64.791 1.28802C64.722 1.35703 64.515 1.38003 64.354 1.31103C64.17 1.24203 64.239 1.17303 64.492 1.17303C64.745 1.15002 64.883 1.21902 64.791 1.28802ZM81.144 8.23402C81.466 8.71703 81.466 8.74003 80.753 8.48702C80.04 8.23402 79.902 8.05003 80.201 7.72803C80.431 7.49802 80.776 7.68202 81.144 8.23402ZM19.734 17.066C19.55 17.365 18.952 18.377 18.4 19.32C17.848 20.263 17.365 21.068 17.342 21.114C17.319 21.16 17.043 21.068 16.767 20.907L16.238 20.631L16.859 20.148C17.204 19.872 17.48 19.55 17.48 19.435C17.48 19.182 19.734 16.56 19.941 16.56C20.01 16.56 19.918 16.79 19.734 17.066ZM16.1 30.521C15.847 30.912 15.847 30.912 15.962 30.521C16.031 30.291 16.1 29.969 16.123 29.831C16.123 29.624 16.169 29.624 16.238 29.831C16.307 29.992 16.238 30.291 16.1 30.521ZM19.09 31.947C19.09 32.062 18.929 32.269 18.745 32.43C18.469 32.66 18.4 32.66 18.4 32.384C18.4 32.2 18.469 31.97 18.561 31.901C18.768 31.671 19.09 31.694 19.09 31.947ZM16.33 32.522C16.33 32.568 16.399 32.775 16.468 32.959C16.537 33.166 16.238 33.557 15.686 33.994L14.812 34.707L15.157 33.557C15.41 32.752 15.617 32.43 15.916 32.43C16.146 32.43 16.33 32.476 16.33 32.522ZM17.411 33.488C17.273 33.971 16.399 35.489 15.479 36.846C14.559 38.226 13.363 40.181 12.834 41.216L11.845 43.125L11.776 39.859C11.73 36.777 11.753 36.547 12.236 35.995C12.512 35.673 12.857 35.42 13.041 35.42C13.202 35.42 13.501 35.167 13.708 34.845C14.122 34.201 14.49 34.27 14.49 34.983C14.49 36.018 16.261 34.822 17.066 33.281C17.618 32.177 17.779 32.269 17.411 33.488ZM112.47 45.172C112.47 46.184 112.079 45.609 111.918 44.39C111.78 43.401 111.78 43.378 112.102 43.93C112.309 44.252 112.447 44.804 112.47 45.172ZM10.488 44.827C10.672 44.666 10.879 44.62 10.971 44.689C11.201 44.919 10.097 47.38 9.75199 47.38C9.10799 47.38 8.60199 45.448 8.99299 44.436L9.22299 43.815L9.70599 44.459C10.074 44.965 10.235 45.034 10.488 44.827ZM77.51 108.675C77.51 108.905 77.28 109.02 76.774 109.02L76.015 108.997L76.59 108.675C77.326 108.261 77.51 108.261 77.51 108.675ZM75.486 110.331C75.808 110.745 75.095 110.975 74.336 110.722C73.462 110.423 73.462 109.986 74.336 109.618C75.026 109.319 75.095 109.319 75.187 109.664C75.233 109.871 75.371 110.193 75.486 110.331ZM50.485 112.953C50.807 113.275 49.657 113.183 48.875 112.838C48.185 112.516 48.208 112.516 49.22 112.631C49.795 112.7 50.347 112.838 50.485 112.953Z" fill="black"/>
<path d="M58.7189 2.00066C59.0639 2.04666 59.6159 2.04666 59.9839 2.00066C60.3289 1.95466 60.0299 1.90866 59.3399 1.90866C58.6499 1.90866 58.3509 1.95466 58.7189 2.00066Z" fill="black"/>
<path d="M83.674 8.14173C83.95 8.50973 84.18 8.99273 84.18 9.24573C84.18 9.49873 84.295 9.61373 84.41 9.54473C84.87 9.26873 84.617 8.53273 83.904 8.00373L83.145 7.47473L83.674 8.14173Z" fill="black"/>
<path d="M7.63602 30.8888C7.10702 31.4638 6.99202 32.0848 7.36002 32.3148C7.49802 32.3838 7.59002 32.6828 7.59002 32.9588C7.61302 33.4648 7.61302 33.4648 7.95802 33.0048C8.25702 32.5908 8.25702 32.5448 7.95802 32.4758C7.49802 32.3838 7.49802 32.3838 7.93502 31.3488C8.37202 30.3368 8.28002 30.1988 7.63602 30.8888Z" fill="black"/>
<path d="M3.79499 34.1319C3.49599 34.9139 3.47299 35.2359 3.65699 35.6269C4.13999 36.4779 4.36999 36.1329 4.36999 34.6149C4.36999 33.7868 4.32399 33.1198 4.27799 33.1198C4.23199 33.1198 4.00199 33.5798 3.79499 34.1319Z" fill="black"/>
<path d="M2.69101 37.95C2.32301 38.594 1.95501 39.1 1.86301 39.1C1.63301 39.1 1.01201 38.387 0.874011 37.95C0.805011 37.766 0.713011 37.996 0.667011 38.456C0.598011 38.916 0.644011 39.238 0.736011 39.192C0.828011 39.123 0.920011 39.445 0.920011 39.882C0.920011 40.342 1.03501 40.71 1.15001 40.71C1.28801 40.71 1.38001 40.618 1.38001 40.503C1.38001 40.365 2.00101 39.79 2.76001 39.215C4.11701 38.157 4.41601 37.628 3.86401 37.076C3.45001 36.662 3.38101 36.708 2.69101 37.95Z" fill="black"/>
<path d="M1.1499 42.0898C1.1499 42.2278 1.3109 42.3198 1.4949 42.3198C1.9319 42.3198 1.9319 42.1818 1.4949 41.9978C1.3109 41.9288 1.1499 41.9748 1.1499 42.0898Z" fill="black"/>
<path d="M111.366 72.5649C111.113 73.1399 110.975 76.1069 111.205 75.8539C111.343 75.7159 111.826 72.1969 111.711 72.0819C111.665 72.0359 111.504 72.2429 111.366 72.5649Z" fill="black"/>
<path d="M106.467 80.7757C106.26 81.5577 106.03 82.3857 105.938 82.5927C105.685 83.1447 106.789 82.8917 107.364 82.2477C108.169 81.3967 108.192 80.8447 107.479 80.0397L106.812 79.3037L106.467 80.7757Z" fill="black"/>
<path d="M105.11 83.7428C104.949 83.9958 104.88 84.2718 104.949 84.3178C104.995 84.3638 105.156 84.1568 105.294 83.8348C105.616 83.1448 105.455 83.0758 105.11 83.7428Z" fill="black"/>
<path d="M104.213 86.0661C103.707 87.5841 103.776 87.5841 104.742 86.1351L105.34 85.2151V86.1351C105.317 86.6411 105.179 87.3081 104.995 87.6301C104.167 89.0791 104.857 89.7231 106.122 88.7111C106.697 88.2281 106.743 88.1131 106.513 87.6531C106.329 87.3541 106.283 86.7791 106.398 86.1351C106.536 85.1691 106.513 85.1001 105.915 84.8701C104.88 84.4791 104.719 84.5941 104.213 86.0661Z" fill="black"/>
<path d="M99.8429 91.218C99.8429 91.494 99.2449 92.345 98.5549 93.127C97.3359 94.484 97.0139 95.266 97.5199 95.565C97.9339 95.818 97.7729 96.094 97.1289 96.255L96.4849 96.439L97.1519 96.623C97.6119 96.761 97.9569 96.692 98.3709 96.439L98.9459 96.048L98.4169 95.68C97.6119 95.059 97.9799 94.53 99.2449 94.53H100.28L100.257 93.541C100.257 92.46 99.8889 90.459 99.8429 91.218Z" fill="black"/>
<path d="M102.465 91.3327C102.373 91.4707 102.35 91.6087 102.419 91.6777C102.465 91.7467 102.58 91.6317 102.649 91.4247C102.81 91.0337 102.672 90.9647 102.465 91.3327Z" fill="black"/>
<path d="M101.545 93.3109C101.2 93.8629 100.97 94.3689 101.016 94.4149C101.039 94.4379 101.407 94.5529 101.798 94.6219C102.419 94.7599 102.603 94.6909 103.017 94.1619C103.661 93.3569 103.638 93.1039 102.81 92.6439L102.143 92.2759L101.545 93.3109Z" fill="black"/>
<path d="M96.5769 97.9108L95.7949 98.7388L96.5309 98.2328C97.3129 97.7038 97.6349 97.3358 97.4739 97.1518C97.4279 97.1058 97.0139 97.4508 96.5769 97.9108Z" fill="black"/>
<path d="M86.8249 109.48C86.7559 109.595 86.8019 109.71 86.9169 109.71C87.0549 109.71 87.1699 109.595 87.1699 109.48C87.1699 109.342 87.1239 109.25 87.0779 109.25C87.0089 109.25 86.8939 109.342 86.8249 109.48Z" fill="black"/>
<path d="M79.4651 112.033C78.4991 113.022 78.4071 113.183 78.8901 113.045C79.8791 112.769 80.8451 112.125 80.9141 111.688C81.0981 110.768 80.5461 110.906 79.4651 112.033Z" fill="black"/>
<path d="M74.8651 111.78L73.9451 112.194L74.8191 112.217C75.3941 112.24 75.7391 112.125 75.8311 111.895C76.0381 111.343 75.8541 111.32 74.8651 111.78Z" fill="black"/>
<path d="M61.065 113.39C58.788 113.62 55.844 113.827 54.51 113.85L52.095 113.896L54.395 114.333C55.706 114.609 58.213 114.839 60.26 114.931L63.825 115.046L63.25 114.586L62.675 114.126L63.25 113.873C63.572 113.758 64.653 113.574 65.665 113.482C67.022 113.367 67.344 113.275 66.93 113.137C66.125 112.907 65.757 112.93 61.065 113.39Z" fill="black"/>
</svg>
