<svg width="45" height="45" viewBox="0 0 45 45" fill="none" xmlns="http://www.w3.org/2000/svg">
<path d="M39.6916 24.705C39.7841 23.985 39.8535 23.265 39.8535 22.5C39.8535 21.735 39.7841 21.015 39.6916 20.295L44.5723 16.5825C45.0118 16.245 45.1274 15.6375 44.8498 15.1425L40.2236 7.3575C39.946 6.8625 39.3215 6.6825 38.8126 6.8625L33.0529 9.1125C31.8501 8.2125 30.5548 7.47 29.1438 6.9075L28.2648 0.945C28.1954 0.405 27.7096 0 27.1313 0H17.8789C17.3006 0 16.8148 0.405 16.7454 0.945L15.8665 6.9075C14.4555 7.47 13.1601 8.235 11.9573 9.1125L6.19761 6.8625C5.6656 6.66 5.06419 6.8625 4.78661 7.3575L0.160372 15.1425C-0.140333 15.6375 -0.00154586 16.245 0.437947 16.5825L5.31863 20.295C5.22611 21.015 5.15671 21.7575 5.15671 22.5C5.15671 23.2425 5.22611 23.985 5.31863 24.705L0.437947 28.4175C-0.00154586 28.755 -0.117202 29.3625 0.160372 29.8575L4.78661 37.6425C5.06419 38.1375 5.68873 38.3175 6.19761 38.1375L11.9573 35.8875C13.1601 36.7875 14.4555 37.53 15.8665 38.0925L16.7454 44.055C16.8148 44.595 17.3006 45 17.8789 45H27.1313C27.7096 45 28.1954 44.595 28.2648 44.055L29.1438 38.0925C30.5548 37.53 31.8501 36.765 33.0529 35.8875L38.8126 38.1375C39.3446 38.34 39.946 38.1375 40.2236 37.6425L44.8498 29.8575C45.1274 29.3625 45.0118 28.755 44.5723 28.4175L39.6916 24.705ZM22.5051 30.375C18.0408 30.375 14.4092 26.8425 14.4092 22.5C14.4092 18.1575 18.0408 14.625 22.5051 14.625C26.9694 14.625 30.601 18.1575 30.601 22.5C30.601 26.8425 26.9694 30.375 22.5051 30.375Z" fill="black"/>
</svg>
