<svg width="83" height="82" viewBox="0 0 83 82" fill="none" xmlns="http://www.w3.org/2000/svg">
<mask id="path-1-inside-1_938_2363" fill="white">
<path d="M36.5153 3.37235C36.6286 3.72653 36.5617 3.85053 36.2157 3.91141L35.9159 3.96034L36.0932 4.07953C36.2124 4.16556 36.2497 4.21948 36.2165 4.25269C36.1667 4.30252 35.5462 4.6037 35.182 4.76262C35.0871 4.80054 35.0315 4.93595 34.9987 5.18544L34.9409 5.55113L33.9491 6.5771C33.4042 7.14484 32.9496 7.6451 32.949 7.70267C32.9386 7.75869 32.7398 7.99168 32.4876 8.22108C32.2453 8.45203 31.9043 8.85004 31.7267 9.09599C31.4807 9.45609 31.3229 9.61385 30.996 9.8267C30.6873 10.0328 30.5088 10.2113 30.2721 10.5392C30.1029 10.7769 29.7639 11.2185 29.5184 11.521C29.2771 11.8194 29.0092 12.2241 28.9277 12.4083C28.8041 12.6915 28.7392 12.7678 28.5799 12.8244C28.3102 12.9117 27.635 13.5983 27.1963 14.2308C26.7343 14.8981 25.1059 16.4581 24.3161 16.997C23.8518 17.3131 23.6841 17.4693 23.395 17.8611C22.8401 18.6098 20.5903 20.9851 16.7884 24.8555L15.0602 26.6064L14.8585 26.5459L14.651 26.4796L14.6182 26.7291C14.588 26.9646 14.5231 27.0409 13.8563 27.6279C13.4614 27.9886 12.9866 28.3607 12.8014 28.4661C12.5145 28.6276 12.4081 28.7454 12.0769 29.2362C11.7981 29.6633 11.6268 29.8573 11.4624 29.942C11.107 30.1263 9.58528 31.7848 9.44296 32.1324C9.26428 32.5848 7.95294 33.7479 7.54523 33.8135C7.25112 33.8681 7.01347 34.0373 6.89092 34.2967C6.82964 34.4264 6.80163 34.4316 6.62847 34.3083C6.53048 34.2352 6.32566 34.155 6.18355 34.1374L5.91335 34.0997L5.78288 34.5837C5.67633 34.9753 5.61765 35.091 5.44643 35.1938C5.32814 35.2665 5.17142 35.4004 5.08424 35.4876C4.9986 35.5846 4.84139 35.6848 4.73244 35.7254C4.57318 35.782 4.5 35.8666 4.35254 36.1509C4.25284 36.3418 4.08152 36.6272 3.97147 36.7828C3.79394 37.0288 3.73687 37.0631 3.55535 37.0393C3.43711 37.0207 3.282 37.0732 3.17665 37.1671C3.02824 37.2927 3.00278 37.3752 3.03063 37.6438C3.08224 38.094 2.97629 38.3368 2.60268 38.6192C2.03451 39.0391 2.05371 39.0085 2.19621 39.2423C2.40918 39.5882 2.40602 39.6597 2.16683 39.8191C2.03763 39.9141 1.90787 40.0667 1.85385 40.2119C1.76606 40.448 1.7619 40.4521 1.42273 40.4036C1.24121 40.3798 1.01823 40.3063 0.927493 40.2488L0.765735 40.1368L0.842854 40.4132C0.908072 40.6445 0.88676 40.7228 0.749753 40.8598C0.596139 41.0135 0.595088 41.0373 0.734039 41.1265C1.23592 41.4457 1.40593 41.6406 1.72713 42.2773C2.03383 42.8829 2.06959 42.927 2.93159 43.8554C3.42971 44.3951 3.95269 45.0011 4.12214 45.2536C4.40769 45.6637 4.44916 45.7134 4.67679 45.8165C4.87331 45.9051 4.92878 45.9523 4.97849 46.085C5.02821 46.2178 5.08368 46.2649 5.24339 46.3333C5.39895 46.4058 5.48293 46.4815 5.60521 46.6785C5.73891 46.8869 5.82289 46.9626 6.12725 47.1258C6.78574 47.4937 6.98265 47.7985 7.12218 48.6854C7.17334 49.0106 7.28772 49.4322 7.36904 49.6131L7.52289 49.9496L7.93094 50.1916C8.15752 50.3186 8.74803 50.743 9.2395 51.1182C9.79785 51.552 10.2106 51.8236 10.3262 51.8562C10.4361 51.8831 10.7644 51.954 11.0616 52.0103C11.3587 52.0667 11.6802 52.1557 11.771 52.2132C11.8757 52.2681 12.1826 52.5999 12.5615 53.0535C13.0518 53.6352 13.2871 53.8788 13.6567 54.182C14.086 54.5282 14.1332 54.5837 14.2051 54.7968C14.2672 55.0084 14.2958 55.0369 14.498 55.1312C14.7567 55.2488 16.0449 56.5037 16.3817 56.9651C16.4921 57.117 16.7056 57.4053 16.8533 57.6111C17.0052 57.8128 17.1394 58.0549 17.1507 58.1576C17.1714 58.3194 17.1843 58.3407 17.3622 58.4023C17.5458 58.4696 17.5758 58.508 17.811 59.0255C18.0923 59.6223 18.4877 60.2419 18.7842 60.5384C19.0009 60.755 20.108 61.1647 20.4477 61.1556C20.567 61.1504 20.8045 61.1637 20.9845 61.1776C21.263 61.207 21.3195 61.2303 21.3521 61.346C21.3687 61.4207 21.3178 61.5856 21.2368 61.7122C21.1117 61.8944 21.1075 61.9898 21.1955 62.2439C21.342 62.6561 21.725 63.2882 22.0505 63.6469C22.3019 63.9315 22.3174 63.9387 22.4663 63.8469C22.6111 63.7591 22.6422 63.7736 22.9351 64.0167C23.1114 64.1598 23.4644 64.3883 23.7206 64.5199C24.1478 64.7312 24.209 64.7841 24.4453 65.0952C24.762 65.5198 27.1392 67.8638 27.6748 68.2748C27.8837 68.4422 28.3337 68.8589 28.6773 69.2109C29.1978 69.7396 29.3528 69.8697 29.6499 70.0174C29.9584 70.1764 30.0024 70.2122 30.0853 70.403C30.1418 70.5176 30.3398 70.7986 30.5243 71.0246C30.8902 71.457 32.1219 72.5973 32.6388 72.9814C33.0846 73.311 33.3101 73.553 33.3836 73.776C33.4452 73.9539 33.4851 73.9938 33.8952 74.2794C34.3152 74.5665 34.3836 74.6349 34.9387 75.3228C35.5125 76.0377 35.527 76.0688 35.4719 76.238C35.4225 76.4128 35.494 76.5922 35.577 76.5092C35.5978 76.4884 35.6875 76.4785 35.772 76.4966C35.91 76.5183 35.9328 76.5411 36.0271 76.7433C36.1519 77.0176 36.4557 77.3297 36.7274 77.4685C36.8788 77.5452 36.9373 77.6121 37.0042 77.7619C37.0767 77.9175 37.1337 77.9745 37.3178 78.0755C37.506 78.1724 37.5589 78.2336 37.6371 78.3949C37.7055 78.5546 37.7853 78.6344 38.0393 78.8137C38.2166 78.9329 38.5718 79.205 38.8263 79.418C39.0808 79.631 39.4982 79.9321 39.7377 80.0803C39.9944 80.2456 40.3568 80.5333 40.5947 80.7629C40.8269 80.9868 41.1758 81.3108 41.3806 81.4824L41.7476 81.7996L42.1685 81.3901C42.4965 81.0621 42.6578 80.9578 42.9291 80.8803C43.2705 80.7899 43.3078 80.7525 45.6136 78.4582C48.3179 75.7652 48.3843 75.6988 48.4903 75.456C48.5391 75.3388 48.618 75.2599 48.7077 75.25C48.9095 75.2193 51.0694 73.0365 51.1059 72.8404C51.1168 72.7268 51.1973 72.6578 51.4063 72.5514C51.6476 72.4356 51.7016 72.3816 51.7795 72.144C51.8548 71.9204 51.9114 71.8524 52.0624 71.8041C52.2232 71.7573 52.2574 71.7003 52.2929 71.4368C52.3194 71.2391 52.3916 71.0871 52.5042 71.0087C52.6459 70.9013 52.7034 70.9007 52.9119 71.0344C53.1882 71.2028 53.3127 71.1696 53.3471 70.9299C53.3887 70.7058 56.666 67.3487 57.2721 66.9251C57.6571 66.6542 57.7303 66.5696 57.8316 66.2972C57.9141 66.0892 57.9884 65.9807 58.0781 65.9708C58.2757 65.9443 58.4989 65.7439 58.8487 65.28C59.0636 64.9967 59.3781 64.7051 59.8238 64.362C60.543 63.8024 60.9624 63.2918 61.1894 62.6885C61.2907 62.4161 61.3364 62.3704 61.4863 62.346C61.632 62.3257 62.0062 61.9857 63.1977 60.7942C64.4682 59.5238 64.7624 59.1953 64.9732 58.8248C65.1129 58.5825 65.2998 58.3044 65.3953 58.2089C65.5738 58.0304 66.0043 57.8963 66.3529 57.9127C66.5271 57.9209 66.5868 57.8727 66.8707 57.5089C67.0457 57.277 68.2336 56.032 69.5108 54.7434L71.8327 52.3987L71.795 52.1285L71.7557 51.8485L71.9683 51.8867C72.1753 51.9193 72.2043 51.8902 74.0829 50.0572C75.1281 49.0348 76.2314 47.9543 76.5319 47.6653C76.9445 47.2641 77.1168 47.0462 77.2295 46.7852C77.4669 46.2171 77.5608 46.1118 77.9021 46.0214C78.4562 45.8779 78.8033 45.6106 79.3167 44.9033C79.6182 44.4991 79.9457 44.1374 80.2342 43.8945C80.6198 43.566 80.6956 43.4674 80.7772 43.1919C80.8416 42.9906 80.9169 42.8583 81.0051 42.8386C81.0736 42.8157 81.2043 42.7306 81.2915 42.6434L81.4591 42.4872L80.9675 42.3858C80.6942 42.3284 80.3965 42.2383 80.3016 42.185C79.8951 41.9528 79.6251 41.55 79.5704 41.0801C79.5307 40.7663 79.6194 40.7803 79.8463 41.1235C80.3941 41.9785 81.05 42.2691 81.7291 41.9435C82.2479 41.6984 82.44 41.3922 82.3641 40.9094C82.2912 40.4463 82.0456 40.0761 81.3976 39.4696C80.9461 39.043 80.8382 38.9684 80.4597 38.8224C79.9287 38.6235 79.8561 38.5592 79.8957 38.2916C79.9659 37.9134 79.3533 37.226 77.6063 35.7115C76.3756 34.6386 75.9915 34.213 75.3884 33.2196C75.0028 32.6016 74.8551 32.3958 74.6592 32.2496C74.3424 32.0076 74.3625 32.1357 74.7103 32.5748C75.0809 33.0367 75.0274 33.1244 74.5909 32.7626C74.2467 32.4682 74.0109 32.1909 73.9617 32.0005C73.9425 31.9399 73.6704 31.676 73.265 31.3287C72.4159 30.6042 71.4082 29.6048 69.0771 27.1575C67.5522 25.5578 67.0633 25.0773 66.4133 24.5185C65.9737 24.137 65.4086 23.6301 65.1577 23.3792C64.8099 23.0314 64.6352 22.8982 64.4459 22.8252C64.196 22.733 64.1846 22.7216 63.9613 22.3405C63.7742 22.0372 63.557 21.7868 62.9111 21.1327L62.0958 20.3173L62.0207 19.9931C61.9483 19.655 61.7975 19.4295 61.7466 19.5945C61.7305 19.6448 61.7107 19.733 61.6946 19.7833C61.665 19.8699 61.5385 19.7683 60.4727 18.8271C60.1254 18.5129 60.031 18.402 59.9134 18.1433C59.7943 17.8747 59.7414 17.8135 59.405 17.5684C59.1763 17.3978 58.5056 16.7686 57.6202 15.8749L56.2061 14.4608L56.185 14.174C56.1717 13.8452 56.0287 13.6689 55.9015 13.8075C55.82 13.9004 55.7718 13.8688 54.8858 13.124C54.2047 12.5507 53.6251 12.0127 52.7382 11.1092C51.4236 9.778 47.5022 5.95617 47.2637 5.78411C47.187 5.72399 46.992 5.64527 46.8369 5.60646L46.5481 5.54179L46.5311 5.25083L46.51 4.96402L46.0777 4.5981C45.8345 4.39648 45.694 4.2975 45.7541 4.37422C45.976 4.65417 45.7883 4.591 45.4803 4.2831C45.3093 4.11204 45.1875 3.94873 45.2083 3.92797C45.2332 3.90306 45.2995 3.92792 45.3509 3.97923C45.6754 4.27054 44.9181 3.39703 44.3593 2.83823C43.4283 1.89896 42.6518 1.23863 42.28 1.07443C41.9378 0.914883 41.3481 0.831716 41.2526 0.927204C41.2194 0.960417 41.0477 0.93822 40.8797 0.878152C40.1952 0.650338 39.6152 0.842579 39.1958 1.44447C39.0224 1.68627 38.9778 1.70808 38.7304 1.69318C38.3269 1.66334 38.1837 1.76093 38.0424 2.17594C37.9307 2.50432 37.899 2.54739 37.7502 2.54799C37.6309 2.55325 37.524 2.63734 37.3641 2.84282C37.1518 3.11213 37.1295 3.12303 36.8422 3.06822C36.4662 2.99946 36.4164 3.04928 36.5153 3.37235ZM38.634 4.19579C38.68 4.45769 38.8172 4.99339 38.9482 5.39839C39.2935 6.43292 39.3157 6.69588 39.0831 7.01966C38.9715 7.16547 38.8889 7.3735 38.8909 7.50835C38.8929 7.73449 38.8887 7.73863 38.7804 7.6303C38.5637 7.41362 38.5292 6.98056 38.6996 6.4452C38.7838 6.15573 38.8416 5.88133 38.8198 5.83466C38.8079 5.78955 38.6644 5.57957 38.5068 5.37219C38.2876 5.07824 38.2208 4.92838 38.2048 4.70485C38.1796 4.33091 38.2513 4.0539 38.4242 3.86967L38.5653 3.72851L38.634 4.19579ZM9.53566 33.2714C9.58128 33.317 9.58382 33.3943 9.53815 33.4399C9.45512 33.523 9.36749 33.4851 9.35304 33.3628C9.32873 33.2388 9.45013 33.1858 9.53566 33.2714ZM41.8369 1.31224C41.9542 1.26342 41.9951 1.27947 42.1568 1.48269C42.4274 1.82797 42.4076 1.91615 42.0741 1.87329C41.6914 1.82269 41.3793 1.51893 41.6081 1.41558C41.6569 1.38962 41.7601 1.3434 41.8369 1.31224ZM36.0319 7.72162C36.0801 7.75323 36.0879 7.8025 36.0505 7.83987C36.0132 7.87723 35.9442 7.86638 35.8929 7.81506C35.7959 7.71813 35.9044 7.6439 36.0319 7.72162ZM8.43466 35.7408C8.50933 35.7574 8.60162 35.8248 8.63063 35.887C8.71561 36.0301 8.39177 36.3539 8.0826 36.435C7.77343 36.5161 7.71491 36.3579 7.98317 36.1695C8.09577 36.0911 8.19386 35.9816 8.19856 35.9199C8.20592 35.7529 8.2796 35.702 8.43466 35.7408ZM9.4543 49.2157C9.54553 49.3069 9.65177 49.4629 9.67557 49.5532C9.72424 49.7098 9.72008 49.7139 9.57543 49.6191C9.42663 49.5284 9.14208 49.1857 9.07371 49.026C9.03125 48.9088 9.26613 49.0275 9.4543 49.2157ZM20.2542 58.5209C20.3854 58.6521 20.3931 58.7926 20.2702 58.7445C20.153 58.702 20.0462 58.5122 20.1044 58.4541C20.1251 58.4334 20.1972 58.4639 20.2542 58.5209ZM74.5311 33.0847C74.6508 33.2045 74.6958 33.3989 74.617 33.4778C74.5422 33.5526 74.408 33.4017 74.3785 33.2145C74.346 33.0076 74.4056 32.9593 74.5311 33.0847ZM75.0712 44.4276C75.1412 44.4146 75.289 44.4378 75.4005 44.4746C75.5841 44.5419 75.6297 44.5875 75.9546 45.0951C76.4173 45.807 76.5443 46.0336 76.4944 46.0834C76.3616 46.2162 76.1141 46.2926 76.0457 46.2242C76.0058 46.1843 75.9006 46.0044 75.8209 45.8332C75.7033 45.5745 75.6188 45.4651 75.3202 45.2163C74.9988 44.9447 74.9558 44.8851 74.9263 44.6979C74.8891 44.4614 74.8974 44.4531 75.0712 44.4276ZM80.2098 39.4942L80.4246 39.4847L80.1194 39.7442C79.9114 39.9181 79.7972 40.0779 79.7519 40.2486C79.6667 40.5619 79.6018 40.6382 79.5724 40.451C79.4995 39.9878 79.8182 39.5095 80.2098 39.4942ZM73.1844 46.8503C73.3213 46.9872 73.3596 47.1085 73.3273 47.3004C73.3028 47.4504 73.2888 47.453 73.1292 47.2933C73.0265 47.1907 72.9644 47.0704 72.9758 46.9905C72.9925 46.7913 73.0761 46.742 73.1844 46.8503ZM74.854 45.979C74.9773 46.2435 75.0077 46.4981 74.919 46.4842C74.8444 46.4676 74.6937 46.0595 74.6881 45.8713C74.6923 45.6845 74.7405 45.7161 74.854 45.979ZM64.2699 57.9886C64.4036 58.1971 64.5154 58.5414 64.4671 58.6011C64.3857 58.6939 64.2281 58.4866 64.1551 58.206C64.0786 57.872 64.1305 57.7745 64.2699 57.9886ZM71.2222 51.5723C71.3252 51.8 71.2665 52.007 71.1083 51.9484C71.0207 51.9106 70.8198 51.3361 70.8562 51.2313C70.905 51.114 71.103 51.3037 71.2222 51.5723ZM60.5012 61.7345C60.5909 61.7246 60.6194 61.7531 60.6334 61.8418C60.6473 61.9305 60.6183 61.9596 60.5156 61.9482C60.2879 61.9364 60.2724 61.7466 60.5012 61.7345ZM81.8766 40.7126C82.0715 40.9739 82.1003 41.4012 81.9121 41.2131C81.8437 41.1447 81.6667 40.569 81.704 40.5317C81.7165 40.5192 81.7963 40.5991 81.8766 40.7126ZM68.1706 54.6239C68.2504 54.795 68.2208 54.8816 68.1036 54.8391C68.016 54.8013 67.9689 54.6546 68.0094 54.5456C68.0567 54.4185 68.0878 54.433 68.1706 54.6239Z"/>
</mask>
<path d="M36.5153 3.37235C36.6286 3.72653 36.5617 3.85053 36.2157 3.91141L35.9159 3.96034L36.0932 4.07953C36.2124 4.16556 36.2497 4.21948 36.2165 4.25269C36.1667 4.30252 35.5462 4.6037 35.182 4.76262C35.0871 4.80054 35.0315 4.93595 34.9987 5.18544L34.9409 5.55113L33.9491 6.5771C33.4042 7.14484 32.9496 7.6451 32.949 7.70267C32.9386 7.75869 32.7398 7.99168 32.4876 8.22108C32.2453 8.45203 31.9043 8.85004 31.7267 9.09599C31.4807 9.45609 31.3229 9.61385 30.996 9.8267C30.6873 10.0328 30.5088 10.2113 30.2721 10.5392C30.1029 10.7769 29.7639 11.2185 29.5184 11.521C29.2771 11.8194 29.0092 12.2241 28.9277 12.4083C28.8041 12.6915 28.7392 12.7678 28.5799 12.8244C28.3102 12.9117 27.635 13.5983 27.1963 14.2308C26.7343 14.8981 25.1059 16.4581 24.3161 16.997C23.8518 17.3131 23.6841 17.4693 23.395 17.8611C22.8401 18.6098 20.5903 20.9851 16.7884 24.8555L15.0602 26.6064L14.8585 26.5459L14.651 26.4796L14.6182 26.7291C14.588 26.9646 14.5231 27.0409 13.8563 27.6279C13.4614 27.9886 12.9866 28.3607 12.8014 28.4661C12.5145 28.6276 12.4081 28.7454 12.0769 29.2362C11.7981 29.6633 11.6268 29.8573 11.4624 29.942C11.107 30.1263 9.58528 31.7848 9.44296 32.1324C9.26428 32.5848 7.95294 33.7479 7.54523 33.8135C7.25112 33.8681 7.01347 34.0373 6.89092 34.2967C6.82964 34.4264 6.80163 34.4316 6.62847 34.3083C6.53048 34.2352 6.32566 34.155 6.18355 34.1374L5.91335 34.0997L5.78288 34.5837C5.67633 34.9753 5.61765 35.091 5.44643 35.1938C5.32814 35.2665 5.17142 35.4004 5.08424 35.4876C4.9986 35.5846 4.84139 35.6848 4.73244 35.7254C4.57318 35.782 4.5 35.8666 4.35254 36.1509C4.25284 36.3418 4.08152 36.6272 3.97147 36.7828C3.79394 37.0288 3.73687 37.0631 3.55535 37.0393C3.43711 37.0207 3.282 37.0732 3.17665 37.1671C3.02824 37.2927 3.00278 37.3752 3.03063 37.6438C3.08224 38.094 2.97629 38.3368 2.60268 38.6192C2.03451 39.0391 2.05371 39.0085 2.19621 39.2423C2.40918 39.5882 2.40602 39.6597 2.16683 39.8191C2.03763 39.9141 1.90787 40.0667 1.85385 40.2119C1.76606 40.448 1.7619 40.4521 1.42273 40.4036C1.24121 40.3798 1.01823 40.3063 0.927493 40.2488L0.765735 40.1368L0.842854 40.4132C0.908072 40.6445 0.88676 40.7228 0.749753 40.8598C0.596139 41.0135 0.595088 41.0373 0.734039 41.1265C1.23592 41.4457 1.40593 41.6406 1.72713 42.2773C2.03383 42.8829 2.06959 42.927 2.93159 43.8554C3.42971 44.3951 3.95269 45.0011 4.12214 45.2536C4.40769 45.6637 4.44916 45.7134 4.67679 45.8165C4.87331 45.9051 4.92878 45.9523 4.97849 46.085C5.02821 46.2178 5.08368 46.2649 5.24339 46.3333C5.39895 46.4058 5.48293 46.4815 5.60521 46.6785C5.73891 46.8869 5.82289 46.9626 6.12725 47.1258C6.78574 47.4937 6.98265 47.7985 7.12218 48.6854C7.17334 49.0106 7.28772 49.4322 7.36904 49.6131L7.52289 49.9496L7.93094 50.1916C8.15752 50.3186 8.74803 50.743 9.2395 51.1182C9.79785 51.552 10.2106 51.8236 10.3262 51.8562C10.4361 51.8831 10.7644 51.954 11.0616 52.0103C11.3587 52.0667 11.6802 52.1557 11.771 52.2132C11.8757 52.2681 12.1826 52.5999 12.5615 53.0535C13.0518 53.6352 13.2871 53.8788 13.6567 54.182C14.086 54.5282 14.1332 54.5837 14.2051 54.7968C14.2672 55.0084 14.2958 55.0369 14.498 55.1312C14.7567 55.2488 16.0449 56.5037 16.3817 56.9651C16.4921 57.117 16.7056 57.4053 16.8533 57.6111C17.0052 57.8128 17.1394 58.0549 17.1507 58.1576C17.1714 58.3194 17.1843 58.3407 17.3622 58.4023C17.5458 58.4696 17.5758 58.508 17.811 59.0255C18.0923 59.6223 18.4877 60.2419 18.7842 60.5384C19.0009 60.755 20.108 61.1647 20.4477 61.1556C20.567 61.1504 20.8045 61.1637 20.9845 61.1776C21.263 61.207 21.3195 61.2303 21.3521 61.346C21.3687 61.4207 21.3178 61.5856 21.2368 61.7122C21.1117 61.8944 21.1075 61.9898 21.1955 62.2439C21.342 62.6561 21.725 63.2882 22.0505 63.6469C22.3019 63.9315 22.3174 63.9387 22.4663 63.8469C22.6111 63.7591 22.6422 63.7736 22.9351 64.0167C23.1114 64.1598 23.4644 64.3883 23.7206 64.5199C24.1478 64.7312 24.209 64.7841 24.4453 65.0952C24.762 65.5198 27.1392 67.8638 27.6748 68.2748C27.8837 68.4422 28.3337 68.8589 28.6773 69.2109C29.1978 69.7396 29.3528 69.8697 29.6499 70.0174C29.9584 70.1764 30.0024 70.2122 30.0853 70.403C30.1418 70.5176 30.3398 70.7986 30.5243 71.0246C30.8902 71.457 32.1219 72.5973 32.6388 72.9814C33.0846 73.311 33.3101 73.553 33.3836 73.776C33.4452 73.9539 33.4851 73.9938 33.8952 74.2794C34.3152 74.5665 34.3836 74.6349 34.9387 75.3228C35.5125 76.0377 35.527 76.0688 35.4719 76.238C35.4225 76.4128 35.494 76.5922 35.577 76.5092C35.5978 76.4884 35.6875 76.4785 35.772 76.4966C35.91 76.5183 35.9328 76.5411 36.0271 76.7433C36.1519 77.0176 36.4557 77.3297 36.7274 77.4685C36.8788 77.5452 36.9373 77.6121 37.0042 77.7619C37.0767 77.9175 37.1337 77.9745 37.3178 78.0755C37.506 78.1724 37.5589 78.2336 37.6371 78.3949C37.7055 78.5546 37.7853 78.6344 38.0393 78.8137C38.2166 78.9329 38.5718 79.205 38.8263 79.418C39.0808 79.631 39.4982 79.9321 39.7377 80.0803C39.9944 80.2456 40.3568 80.5333 40.5947 80.7629C40.8269 80.9868 41.1758 81.3108 41.3806 81.4824L41.7476 81.7996L42.1685 81.3901C42.4965 81.0621 42.6578 80.9578 42.9291 80.8803C43.2705 80.7899 43.3078 80.7525 45.6136 78.4582C48.3179 75.7652 48.3843 75.6988 48.4903 75.456C48.5391 75.3388 48.618 75.2599 48.7077 75.25C48.9095 75.2193 51.0694 73.0365 51.1059 72.8404C51.1168 72.7268 51.1973 72.6578 51.4063 72.5514C51.6476 72.4356 51.7016 72.3816 51.7795 72.144C51.8548 71.9204 51.9114 71.8524 52.0624 71.8041C52.2232 71.7573 52.2574 71.7003 52.2929 71.4368C52.3194 71.2391 52.3916 71.0871 52.5042 71.0087C52.6459 70.9013 52.7034 70.9007 52.9119 71.0344C53.1882 71.2028 53.3127 71.1696 53.3471 70.9299C53.3887 70.7058 56.666 67.3487 57.2721 66.9251C57.6571 66.6542 57.7303 66.5696 57.8316 66.2972C57.9141 66.0892 57.9884 65.9807 58.0781 65.9708C58.2757 65.9443 58.4989 65.7439 58.8487 65.28C59.0636 64.9967 59.3781 64.7051 59.8238 64.362C60.543 63.8024 60.9624 63.2918 61.1894 62.6885C61.2907 62.4161 61.3364 62.3704 61.4863 62.346C61.632 62.3257 62.0062 61.9857 63.1977 60.7942C64.4682 59.5238 64.7624 59.1953 64.9732 58.8248C65.1129 58.5825 65.2998 58.3044 65.3953 58.2089C65.5738 58.0304 66.0043 57.8963 66.3529 57.9127C66.5271 57.9209 66.5868 57.8727 66.8707 57.5089C67.0457 57.277 68.2336 56.032 69.5108 54.7434L71.8327 52.3987L71.795 52.1285L71.7557 51.8485L71.9683 51.8867C72.1753 51.9193 72.2043 51.8902 74.0829 50.0572C75.1281 49.0348 76.2314 47.9543 76.5319 47.6653C76.9445 47.2641 77.1168 47.0462 77.2295 46.7852C77.4669 46.2171 77.5608 46.1118 77.9021 46.0214C78.4562 45.8779 78.8033 45.6106 79.3167 44.9033C79.6182 44.4991 79.9457 44.1374 80.2342 43.8945C80.6198 43.566 80.6956 43.4674 80.7772 43.1919C80.8416 42.9906 80.9169 42.8583 81.0051 42.8386C81.0736 42.8157 81.2043 42.7306 81.2915 42.6434L81.4591 42.4872L80.9675 42.3858C80.6942 42.3284 80.3965 42.2383 80.3016 42.185C79.8951 41.9528 79.6251 41.55 79.5704 41.0801C79.5307 40.7663 79.6194 40.7803 79.8463 41.1235C80.3941 41.9785 81.05 42.2691 81.7291 41.9435C82.2479 41.6984 82.44 41.3922 82.3641 40.9094C82.2912 40.4463 82.0456 40.0761 81.3976 39.4696C80.9461 39.043 80.8382 38.9684 80.4597 38.8224C79.9287 38.6235 79.8561 38.5592 79.8957 38.2916C79.9659 37.9134 79.3533 37.226 77.6063 35.7115C76.3756 34.6386 75.9915 34.213 75.3884 33.2196C75.0028 32.6016 74.8551 32.3958 74.6592 32.2496C74.3424 32.0076 74.3625 32.1357 74.7103 32.5748C75.0809 33.0367 75.0274 33.1244 74.5909 32.7626C74.2467 32.4682 74.0109 32.1909 73.9617 32.0005C73.9425 31.9399 73.6704 31.676 73.265 31.3287C72.4159 30.6042 71.4082 29.6048 69.0771 27.1575C67.5522 25.5578 67.0633 25.0773 66.4133 24.5185C65.9737 24.137 65.4086 23.6301 65.1577 23.3792C64.8099 23.0314 64.6352 22.8982 64.4459 22.8252C64.196 22.733 64.1846 22.7216 63.9613 22.3405C63.7742 22.0372 63.557 21.7868 62.9111 21.1327L62.0958 20.3173L62.0207 19.9931C61.9483 19.655 61.7975 19.4295 61.7466 19.5945C61.7305 19.6448 61.7107 19.733 61.6946 19.7833C61.665 19.8699 61.5385 19.7683 60.4727 18.8271C60.1254 18.5129 60.031 18.402 59.9134 18.1433C59.7943 17.8747 59.7414 17.8135 59.405 17.5684C59.1763 17.3978 58.5056 16.7686 57.6202 15.8749L56.2061 14.4608L56.185 14.174C56.1717 13.8452 56.0287 13.6689 55.9015 13.8075C55.82 13.9004 55.7718 13.8688 54.8858 13.124C54.2047 12.5507 53.6251 12.0127 52.7382 11.1092C51.4236 9.778 47.5022 5.95617 47.2637 5.78411C47.187 5.72399 46.992 5.64527 46.8369 5.60646L46.5481 5.54179L46.5311 5.25083L46.51 4.96402L46.0777 4.5981C45.8345 4.39648 45.694 4.2975 45.7541 4.37422C45.976 4.65417 45.7883 4.591 45.4803 4.2831C45.3093 4.11204 45.1875 3.94873 45.2083 3.92797C45.2332 3.90306 45.2995 3.92792 45.3509 3.97923C45.6754 4.27054 44.9181 3.39703 44.3593 2.83823C43.4283 1.89896 42.6518 1.23863 42.28 1.07443C41.9378 0.914883 41.3481 0.831716 41.2526 0.927204C41.2194 0.960417 41.0477 0.93822 40.8797 0.878152C40.1952 0.650338 39.6152 0.842579 39.1958 1.44447C39.0224 1.68627 38.9778 1.70808 38.7304 1.69318C38.3269 1.66334 38.1837 1.76093 38.0424 2.17594C37.9307 2.50432 37.899 2.54739 37.7502 2.54799C37.6309 2.55325 37.524 2.63734 37.3641 2.84282C37.1518 3.11213 37.1295 3.12303 36.8422 3.06822C36.4662 2.99946 36.4164 3.04928 36.5153 3.37235ZM38.634 4.19579C38.68 4.45769 38.8172 4.99339 38.9482 5.39839C39.2935 6.43292 39.3157 6.69588 39.0831 7.01966C38.9715 7.16547 38.8889 7.3735 38.8909 7.50835C38.8929 7.73449 38.8887 7.73863 38.7804 7.6303C38.5637 7.41362 38.5292 6.98056 38.6996 6.4452C38.7838 6.15573 38.8416 5.88133 38.8198 5.83466C38.8079 5.78955 38.6644 5.57957 38.5068 5.37219C38.2876 5.07824 38.2208 4.92838 38.2048 4.70485C38.1796 4.33091 38.2513 4.0539 38.4242 3.86967L38.5653 3.72851L38.634 4.19579ZM9.53566 33.2714C9.58128 33.317 9.58382 33.3943 9.53815 33.4399C9.45512 33.523 9.36749 33.4851 9.35304 33.3628C9.32873 33.2388 9.45013 33.1858 9.53566 33.2714ZM41.8369 1.31224C41.9542 1.26342 41.9951 1.27947 42.1568 1.48269C42.4274 1.82797 42.4076 1.91615 42.0741 1.87329C41.6914 1.82269 41.3793 1.51893 41.6081 1.41558C41.6569 1.38962 41.7601 1.3434 41.8369 1.31224ZM36.0319 7.72162C36.0801 7.75323 36.0879 7.8025 36.0505 7.83987C36.0132 7.87723 35.9442 7.86638 35.8929 7.81506C35.7959 7.71813 35.9044 7.6439 36.0319 7.72162ZM8.43466 35.7408C8.50933 35.7574 8.60162 35.8248 8.63063 35.887C8.71561 36.0301 8.39177 36.3539 8.0826 36.435C7.77343 36.5161 7.71491 36.3579 7.98317 36.1695C8.09577 36.0911 8.19386 35.9816 8.19856 35.9199C8.20592 35.7529 8.2796 35.702 8.43466 35.7408ZM9.4543 49.2157C9.54553 49.3069 9.65177 49.4629 9.67557 49.5532C9.72424 49.7098 9.72008 49.7139 9.57543 49.6191C9.42663 49.5284 9.14208 49.1857 9.07371 49.026C9.03125 48.9088 9.26613 49.0275 9.4543 49.2157ZM20.2542 58.5209C20.3854 58.6521 20.3931 58.7926 20.2702 58.7445C20.153 58.702 20.0462 58.5122 20.1044 58.4541C20.1251 58.4334 20.1972 58.4639 20.2542 58.5209ZM74.5311 33.0847C74.6508 33.2045 74.6958 33.3989 74.617 33.4778C74.5422 33.5526 74.408 33.4017 74.3785 33.2145C74.346 33.0076 74.4056 32.9593 74.5311 33.0847ZM75.0712 44.4276C75.1412 44.4146 75.289 44.4378 75.4005 44.4746C75.5841 44.5419 75.6297 44.5875 75.9546 45.0951C76.4173 45.807 76.5443 46.0336 76.4944 46.0834C76.3616 46.2162 76.1141 46.2926 76.0457 46.2242C76.0058 46.1843 75.9006 46.0044 75.8209 45.8332C75.7033 45.5745 75.6188 45.4651 75.3202 45.2163C74.9988 44.9447 74.9558 44.8851 74.9263 44.6979C74.8891 44.4614 74.8974 44.4531 75.0712 44.4276ZM80.2098 39.4942L80.4246 39.4847L80.1194 39.7442C79.9114 39.9181 79.7972 40.0779 79.7519 40.2486C79.6667 40.5619 79.6018 40.6382 79.5724 40.451C79.4995 39.9878 79.8182 39.5095 80.2098 39.4942ZM73.1844 46.8503C73.3213 46.9872 73.3596 47.1085 73.3273 47.3004C73.3028 47.4504 73.2888 47.453 73.1292 47.2933C73.0265 47.1907 72.9644 47.0704 72.9758 46.9905C72.9925 46.7913 73.0761 46.742 73.1844 46.8503ZM74.854 45.979C74.9773 46.2435 75.0077 46.4981 74.919 46.4842C74.8444 46.4676 74.6937 46.0595 74.6881 45.8713C74.6923 45.6845 74.7405 45.7161 74.854 45.979ZM64.2699 57.9886C64.4036 58.1971 64.5154 58.5414 64.4671 58.6011C64.3857 58.6939 64.2281 58.4866 64.1551 58.206C64.0786 57.872 64.1305 57.7745 64.2699 57.9886ZM71.2222 51.5723C71.3252 51.8 71.2665 52.007 71.1083 51.9484C71.0207 51.9106 70.8198 51.3361 70.8562 51.2313C70.905 51.114 71.103 51.3037 71.2222 51.5723ZM60.5012 61.7345C60.5909 61.7246 60.6194 61.7531 60.6334 61.8418C60.6473 61.9305 60.6183 61.9596 60.5156 61.9482C60.2879 61.9364 60.2724 61.7466 60.5012 61.7345ZM81.8766 40.7126C82.0715 40.9739 82.1003 41.4012 81.9121 41.2131C81.8437 41.1447 81.6667 40.569 81.704 40.5317C81.7165 40.5192 81.7963 40.5991 81.8766 40.7126ZM68.1706 54.6239C68.2504 54.795 68.2208 54.8816 68.1036 54.8391C68.016 54.8013 67.9689 54.6546 68.0094 54.5456C68.0567 54.4185 68.0878 54.433 68.1706 54.6239Z" fill="black" stroke="white" stroke-width="4" mask="url(#path-1-inside-1_938_2363)"/>
<path d="M42.5996 19.9646C42.2188 20.0466 42.1367 20.1052 41.334 20.8963L40.5899 21.6345L40.2383 22.572C40.0449 23.0877 39.8516 23.6736 39.8106 23.8845L39.7344 24.2595L39.582 24.0017C39.4941 23.8611 39.3535 23.6736 39.2598 23.5916C38.9844 23.3279 38.1641 22.7947 37.707 22.5838C37.1094 22.2966 36.9219 22.2556 37.25 22.4724C37.3965 22.5662 37.6074 22.7244 37.7188 22.824L37.9238 22.9998L37.543 22.9119C37.1621 22.824 36.7051 22.8299 35.8145 22.9412C35.4629 22.9822 35.4688 22.9822 36.0488 23.0115L36.6348 23.0408L36.2539 23.1111L35.8731 23.1814L36.2539 23.1638C36.4649 23.1521 36.6816 23.158 36.7461 23.1814C36.834 23.2166 36.8106 23.24 36.5996 23.322C36.1777 23.4744 35.3984 23.5974 34.5254 23.6502C34.0684 23.6736 33.6465 23.7263 33.5879 23.7615C33.4766 23.8259 33.4824 23.8259 33.6231 23.8318C33.7051 23.8318 34.0977 23.9197 34.4902 24.031C35.6621 24.3591 35.668 24.3591 36.7402 23.9841C37.2441 23.8084 37.6602 23.6736 37.6602 23.6912C37.6602 23.7088 37.4961 23.7966 37.2969 23.8845C36.7344 24.1365 36.6231 24.1892 36.7402 24.1541C36.8633 24.1189 37.5488 24.6345 37.5195 24.74C37.5137 24.7693 37.1387 24.9041 36.6875 25.0388C36.2422 25.1677 35.6914 25.3552 35.4629 25.4548C34.877 25.7068 34.7715 25.7244 34.4961 25.6131C34.2676 25.5193 34.2441 25.5252 33.8457 25.6716C33.6231 25.7537 33.3887 25.824 33.3301 25.824C33.2656 25.824 33.0899 25.7185 32.9375 25.5896C32.3281 25.0916 31.8125 25.3728 31.4844 26.3806C31.3965 26.6619 31.3672 26.6912 31.0098 26.867C30.6524 27.0427 30.6113 27.0486 30.3359 26.99C30.0957 26.9373 29.9902 26.867 29.6856 26.5564C29.4863 26.3513 29.1524 25.9119 28.9473 25.5779C28.7422 25.2439 28.502 24.9099 28.4199 24.8279C28.2676 24.6756 28.291 24.7693 28.4551 24.9627C28.5078 25.0271 28.3672 24.9802 28.0859 24.8338C27.5879 24.5818 26.9785 24.4119 26.5742 24.4236C26.3281 24.4295 26.3281 24.4295 26.6914 24.5115C26.8965 24.5525 27.1836 24.6463 27.3301 24.7107C27.6992 24.8748 28.291 25.3084 28.4785 25.5545C28.6133 25.7302 29.293 27.0662 29.2637 27.0896C29.2578 27.0955 29.0176 27.2185 28.7363 27.3709C28.2266 27.6345 28.2031 27.6404 27.6875 27.6404C27.0606 27.6404 26.1524 27.4646 25.5488 27.2302C25.3145 27.1423 25.1211 27.0779 25.1211 27.0896C25.1211 27.1423 25.8418 27.4646 26.2637 27.5994C26.8262 27.7752 27.6289 27.9041 27.9102 27.8572C28.0508 27.8338 28.0977 27.8455 28.0742 27.8865C28.0449 27.9334 28.0684 27.9392 28.1445 27.9099C28.2266 27.8748 28.6777 27.74 28.8418 27.699C28.8477 27.699 28.7012 27.8513 28.5195 28.033C28.1797 28.3904 28.0156 28.6716 27.957 28.9998C27.9277 29.1697 27.9336 29.1814 27.9981 29.0759C28.1387 28.8357 28.3906 28.6072 29.0586 28.1091C29.7559 27.5818 29.9785 27.4822 30.2129 27.5701C30.3418 27.617 30.3359 27.6228 30.1016 27.7869C29.6563 28.0974 29.5742 28.2381 29.5742 28.7185C29.5742 29.0818 29.5449 29.199 29.3633 29.574C29.2461 29.8142 29.0469 30.2654 28.9238 30.5701C28.7949 30.8748 28.6133 31.2088 28.5137 31.3025C28.3965 31.4256 28.3438 31.5427 28.3438 31.6716V31.8533L27.8633 31.6248C27.5996 31.4959 27.2949 31.3787 27.1777 31.3552C27.0606 31.3377 26.8145 31.2732 26.627 31.2088C26.2402 31.0799 26.1231 31.0681 26.3809 31.1853L26.5566 31.2674L26.3984 31.2732C26.3106 31.2732 26.2227 31.2966 26.2051 31.3318C26.1875 31.3611 26.0703 31.3904 25.9531 31.3904C25.8008 31.3904 26.0645 31.5017 26.8789 31.7771C27.5059 31.9939 28.0332 32.1756 28.0449 32.1873C28.0625 32.2049 27.9922 32.2986 27.8867 32.4041C27.7871 32.5037 27.5469 32.8259 27.3535 33.1189C27.0723 33.5291 26.9961 33.6931 26.9961 33.8631C26.9961 33.9861 26.9785 34.0857 26.9551 34.0857C26.9375 34.0857 26.832 34.0154 26.7207 33.9334C26.5449 33.8045 26.4512 33.7576 26.2871 33.74C26.2402 33.7341 25.332 33.1424 25.0332 32.9197C24.7578 32.7146 24.002 32.2693 23.9316 32.2693C23.8613 32.2693 24.5352 32.8552 24.7695 32.9959L24.9746 33.1189L24.4766 33.1599C24.002 33.1951 23.9492 33.1892 23.252 32.9607C22.6191 32.7498 22.4258 32.6502 21.7578 32.2049C20.6445 31.4607 20.1641 31.0564 19.0566 29.9138C18.5117 29.3572 18.084 28.9353 18.1133 28.9705C18.1367 29.0174 18.1191 29.0466 18.0606 29.0466C18.0078 29.0466 17.9785 29.0232 17.9961 28.9998C18.0137 28.9705 17.9902 28.947 17.9434 28.947C17.8438 28.947 17.9551 29.0818 19.291 30.5994C19.8301 31.2088 20.5274 32.0408 20.8438 32.4451C21.459 33.2302 22.332 34.156 22.9531 34.6775L23.334 34.9939L22.8945 34.4841C22.6484 34.2029 22.4024 33.8865 22.3438 33.7869C22.2324 33.5994 22.2324 33.5994 22.3438 33.6463C22.4024 33.6697 22.8594 33.8455 23.3574 34.0388C24.2188 34.367 24.7168 34.6131 24.9746 34.8533C25.1445 35.0056 26.2344 35.7791 26.4277 35.8787C26.75 36.0486 26.5391 36.0193 25.8477 35.7966C25.1328 35.5681 24.7695 35.5213 24.7285 35.6502C24.7109 35.6912 24.7461 35.7263 24.7988 35.7263C24.8516 35.7263 24.8809 35.7498 24.8574 35.7791C24.8399 35.8142 24.916 35.8787 25.0274 35.9314C25.1445 35.99 25.2207 36.0603 25.2031 36.1013C25.1738 36.1834 25.625 36.5525 26.0938 36.8279C26.4043 37.0095 27.9688 37.7185 29.2813 38.2752C30.1543 38.6443 30.4063 38.7673 30.2891 38.7732C30.1016 38.7791 29.0352 38.5271 28.7832 38.4216C28.4082 38.2634 28.502 38.3631 29.0059 38.6736C29.7207 39.1189 29.5508 39.1013 31.9824 38.9724C33.2129 38.908 34.0098 39.0896 35.1289 39.6814C35.4395 39.8455 35.75 39.9685 35.9141 39.9861L36.1953 40.0213L35.9961 40.2381C35.8848 40.3611 35.7617 40.5193 35.7266 40.5896C35.6563 40.7185 35.6621 40.7185 35.9375 40.6834C37.1211 40.5193 39.9981 39.9099 41.3457 39.5349C41.8086 39.4002 42.1953 39.3064 42.207 39.3181C42.2188 39.3298 41.8672 39.4529 41.4219 39.5935C40.9824 39.7283 39.9336 40.0681 39.0957 40.3377C38.2578 40.6131 37.3438 40.8826 37.0566 40.947C36.4063 41.0935 34.3965 41.2341 33.1484 41.2283C32.0293 41.2224 32.1406 41.1756 33.7051 41.0115L34.6426 40.9119L34.3086 40.8064C33.5586 40.5662 33.1484 40.5369 31.2734 40.572C29.627 40.6072 29.4688 40.6013 29.2813 40.5017C29.0703 40.3963 28.5547 40.0271 27.4707 39.2127C27.1309 38.9548 26.627 38.6209 26.3516 38.4627C26.0762 38.3045 25.6602 38.0291 25.4199 37.8591C25.1856 37.6834 24.9629 37.5603 24.9277 37.5838C24.8984 37.6013 24.8867 37.5896 24.9043 37.5603C24.9277 37.5252 24.834 37.4256 24.7051 37.3377C24.5703 37.2498 24.4824 37.2146 24.5059 37.2498C24.5352 37.2966 24.5234 37.3142 24.4707 37.2966C24.4238 37.2791 24.3887 37.2381 24.3887 37.2029C24.3887 37.1736 24.3652 37.1209 24.3418 37.0916C24.3125 37.0681 24.2949 37.074 24.3008 37.1033C24.3301 37.2381 24.2949 37.3025 24.2129 37.2732C24.166 37.2498 24.1426 37.2146 24.1602 37.1853C24.1777 37.156 24.166 37.1326 24.1309 37.1326C24.1016 37.1326 24.0606 37.1795 24.0488 37.2322C24.0254 37.3201 24.0195 37.3259 24.0137 37.2439C24.002 37.0974 23.8086 37.074 23.6504 37.197L23.5098 37.3025L23.668 37.2849C23.7559 37.2732 23.8555 37.2908 23.9024 37.3201C23.9609 37.3611 23.9492 37.367 23.8789 37.3435C23.8203 37.3259 23.7734 37.3318 23.7734 37.3611C23.7734 37.3904 23.832 37.4256 23.9082 37.449C23.9844 37.4666 24.0488 37.5193 24.0488 37.572C24.0488 37.6834 24.0547 37.6834 23.7734 37.5369C23.5391 37.4138 23.4336 37.4138 23.5098 37.5427C23.5332 37.5779 23.5977 37.5896 23.6621 37.572C23.7441 37.5427 23.7617 37.5545 23.7383 37.6248C23.7207 37.6775 23.7324 37.7185 23.7734 37.7185C23.8086 37.7185 23.8203 37.7478 23.7969 37.7888C23.7734 37.824 23.7793 37.8357 23.8203 37.8123C23.8555 37.7947 23.9141 37.8123 23.9609 37.8533C24.043 37.9353 24.3008 38.0935 24.3652 38.0994C24.3828 38.0994 24.4414 38.1463 24.5 38.2048C24.5586 38.2576 24.6289 38.2927 24.6582 38.2752C24.6875 38.2517 24.7109 38.2693 24.7109 38.2986C24.7109 38.3338 24.7461 38.3631 24.793 38.3631C24.8399 38.3631 24.8867 38.3865 24.8984 38.4099C24.9102 38.4334 25.1035 38.5564 25.3262 38.6795C25.8066 38.9431 26.334 39.3298 26.416 39.4939C26.5039 39.6521 26.416 39.7224 26.1055 39.7341C25.7774 39.7517 25.3555 39.8748 25.3555 39.9509C25.3555 39.9861 25.332 39.9978 25.3027 39.9802C25.2734 39.9627 25.2207 39.9861 25.1797 40.033C25.127 40.0974 25.127 40.1209 25.1738 40.1209C25.2149 40.1209 25.2324 40.1384 25.2149 40.1677C25.168 40.2439 25.3438 40.4314 25.4199 40.3787C25.4668 40.3552 25.4785 40.3611 25.4492 40.408C25.4258 40.4431 25.4375 40.5134 25.4727 40.5603C25.5137 40.6072 25.5254 40.6482 25.502 40.6482C25.4785 40.6482 25.4961 40.6951 25.5371 40.7478C25.6133 40.8416 25.6074 40.8474 25.5195 40.7713C25.4609 40.7302 25.4316 40.6716 25.4492 40.6423C25.4668 40.6131 25.4375 40.5896 25.3848 40.5896C25.332 40.5896 25.2734 40.6423 25.2559 40.7068C25.2383 40.7713 25.2031 40.8064 25.1738 40.7888C25.1445 40.7713 25.1211 40.7888 25.1211 40.824C25.1211 40.8591 25.0977 40.8767 25.0684 40.8591C25.0391 40.8416 25.0039 40.865 24.9805 40.9119C24.9629 40.9588 24.8867 40.9998 24.8164 40.9998C24.7051 41.0056 24.7168 41.0232 24.916 41.1463C25.0449 41.2283 25.1856 41.281 25.2266 41.2634C25.2676 41.2459 25.291 41.2576 25.2734 41.2869C25.2324 41.3513 25.5254 41.4802 25.6016 41.4334C25.6426 41.4099 25.6484 41.4216 25.625 41.4568C25.584 41.5271 25.6309 41.5447 25.8359 41.5447C25.8945 41.5447 25.9238 41.5623 25.9121 41.5857C25.8711 41.6502 26.0527 41.7146 26.1348 41.6619C26.1758 41.6443 26.1875 41.6443 26.1641 41.6736C26.0996 41.7439 27.3477 42.2654 27.8984 42.4002C28.5781 42.5701 29.8262 42.7927 30.7461 42.9041C31.1797 42.9627 31.5488 43.0154 31.5606 43.0271C31.6309 43.0916 31.168 43.1912 30.6816 43.2146C30.0371 43.2381 29.4805 43.156 27.084 42.6638C24.6582 42.1658 24.1074 42.0134 22.1563 41.2576C21.1016 40.8533 20.0293 40.5017 19.9824 40.5486C19.9707 40.5603 20.3633 40.7244 20.8555 40.9119C22.0918 41.3806 23.2344 41.908 23.9902 42.3591C24.3418 42.5701 24.8867 42.8396 25.209 42.9568C26.1465 43.3025 26.4102 43.408 26.9024 43.6482C27.1602 43.7713 27.4238 43.8709 27.4883 43.8709C27.7051 43.8709 29.1406 44.3806 29.8145 44.697C30.4473 44.99 30.4824 45.0017 30.8574 44.9666C31.0684 44.949 31.4668 44.8787 31.7422 44.8142C32.3926 44.656 33.2891 44.5271 34.0098 44.4802C34.6191 44.4392 35.1582 44.5154 35.3516 44.6619C35.4629 44.7498 35.4629 44.7498 35.3516 44.8377C35.1758 44.9724 34.3906 45.2127 33.6348 45.365C33.0957 45.4705 33.002 45.4998 33.207 45.5056C33.5527 45.5115 34.8477 45.3591 35.416 45.242C36.5059 45.0252 38.0938 44.5095 38.334 44.3045L38.5098 44.1521L38.5274 44.322C38.5332 44.4099 38.6387 44.6795 38.7617 44.9197L38.9785 45.3591V46.1795C38.9785 46.9588 38.9902 47.0173 39.1191 47.1931C39.2539 47.3748 39.2598 47.4041 39.2188 48.0427C39.2012 48.406 39.166 48.8396 39.1484 49.0037L39.1133 49.3025L39.4238 49.4724C39.6113 49.5779 39.8047 49.742 39.9102 49.8943C40.0801 50.1404 40.0859 50.1463 39.9863 50.3103C39.8281 50.5857 39.8574 50.7029 40.1387 50.867C40.2734 50.949 40.5195 51.0427 40.6777 51.0838C40.8418 51.1189 41.1406 51.2478 41.3516 51.365C41.5625 51.4822 41.8027 51.6052 41.8965 51.6463C42.0313 51.7048 42.0547 51.7517 42.0547 51.9509C42.0547 52.3904 42.6465 53.3045 43.2149 53.7322C43.6133 54.0369 43.9766 54.0896 44.3281 53.8904C44.5918 53.7439 44.7617 53.4685 45.0078 52.8123C45.1484 52.4373 45.1602 52.3494 45.1426 51.6287C45.125 50.949 45.1367 50.8318 45.2305 50.7146C45.3184 50.6033 45.3418 50.5916 45.3887 50.6677C45.4473 50.7556 45.6524 51.4002 45.7168 51.6814C45.7344 51.7693 45.8399 51.9392 45.9453 52.0623C46.1856 52.3318 46.3613 52.6716 46.4551 53.0466C46.543 53.4275 46.6426 53.574 46.8828 53.6853C47.1992 53.8377 47.5625 54.2595 47.5625 54.4763C47.5625 54.6228 47.5918 54.6697 47.7324 54.7166C47.9199 54.781 48.4766 55.4841 48.7168 55.9646C48.7988 56.1287 48.916 56.3338 48.9746 56.4158C49.0508 56.5271 49.0742 56.6267 49.0508 56.7498C49.0215 56.908 49.0391 56.9373 49.2031 57.0252C49.3555 57.1072 49.3848 57.1482 49.3555 57.2654C49.3262 57.3709 49.3555 57.4353 49.4609 57.5291C49.5488 57.6052 49.6309 57.7634 49.666 57.9451C49.7305 58.2205 49.7188 58.2498 49.4668 58.7537C49.3203 59.0408 49.2031 59.3162 49.2031 59.3631C49.2031 59.4158 49.1563 59.4744 49.1035 59.5095C49.0098 59.5564 47.6621 59.6736 47.5508 59.6443C47.5215 59.6384 47.5039 59.6736 47.5039 59.7205C47.5039 59.7673 47.5332 59.8084 47.5625 59.8084C47.5977 59.8084 47.6211 59.7791 47.6211 59.7498C47.6211 59.7146 47.6504 59.6912 47.6856 59.6912C47.7324 59.6912 47.7324 59.7205 47.6797 59.7791C47.6387 59.8318 47.5449 59.8552 47.4512 59.8377C47.2637 59.8084 47.0938 59.8904 47.2402 59.9431C47.293 59.9666 47.3164 59.9607 47.2988 59.9256C47.2813 59.8904 47.293 59.867 47.3223 59.867C47.3574 59.867 47.3867 59.8845 47.3867 59.908C47.3867 59.9373 47.7793 59.9548 48.2656 59.9607C49.0449 59.9607 49.3731 60.0076 49.1621 60.0838C49.1035 60.1072 49.1035 60.1306 49.168 60.1951C49.2149 60.2361 49.2617 60.3064 49.2734 60.3474C49.3086 60.4412 50.6973 60.4177 51.6875 60.3006C52.1094 60.2478 52.8711 60.2068 53.375 60.2068C53.9727 60.2068 54.3125 60.1834 54.3418 60.1423C54.3652 60.1013 54.3418 60.0955 54.2656 60.1248C54.1836 60.1541 54.1719 60.1482 54.2246 60.0955C54.3008 60.0193 54.4414 60.0779 54.3887 60.1658C54.3652 60.1951 54.4063 60.2185 54.4707 60.2185C54.5352 60.2185 54.6055 60.1892 54.6231 60.1599C54.6406 60.1248 54.6875 60.1013 54.7168 60.1013C54.752 60.1013 54.7637 60.1248 54.7461 60.1482C54.7285 60.1775 54.752 60.2009 54.7988 60.2009C54.8457 60.2009 54.875 60.1834 54.8633 60.1658C54.8516 60.1482 54.8809 60.0896 54.9336 60.0486C55.0156 59.9724 55.0215 59.9724 54.9922 60.0779C54.9688 60.1834 54.9981 60.1951 55.3203 60.2009C55.5195 60.2009 55.6309 60.1951 55.5723 60.1775C55.4727 60.1541 55.4727 60.1423 55.5606 60.0838C55.6367 60.0252 55.5957 60.0134 55.3731 60.031C55.1621 60.0427 55.1152 60.031 55.1797 59.99C55.2441 59.9431 55.1797 59.9256 54.9277 59.9256C54.6289 59.9256 54.1836 59.8084 54.1836 59.7263C54.1836 59.6853 54.7344 59.5798 55.2676 59.5154C55.6953 59.4685 56.0586 59.3396 56.791 58.9822C56.8555 58.9529 56.9668 58.9177 57.0371 58.9119C57.1074 58.9119 57.1602 58.8884 57.1543 58.8709C57.1484 58.8533 57.1543 58.8416 57.1719 58.8416C57.1895 58.8416 57.2656 58.7947 57.3477 58.7361C57.4238 58.6834 57.5703 58.6306 57.6699 58.6306C58.0215 58.6131 57.2656 58.531 56.7207 58.5252C56.1524 58.5193 55.959 58.4373 56.3516 58.3728C56.4805 58.3494 56.6035 58.3377 56.6211 58.3435C56.6445 58.3494 56.6797 58.3318 56.6973 58.3025C56.7149 58.2791 56.7852 58.2146 56.8438 58.1677C56.9492 58.0916 56.9551 58.0916 56.9082 58.1677C56.8789 58.2205 56.9199 58.2029 57.002 58.1326C57.0781 58.0681 57.2012 58.0213 57.2774 58.0271C57.3652 58.033 57.4004 58.0095 57.3828 57.9627C57.3652 57.9158 57.3945 57.8923 57.4531 57.9041C57.5059 57.9099 57.5879 57.8923 57.6231 57.8631C57.6641 57.8279 57.752 57.8162 57.8164 57.8338C57.8809 57.8513 57.9219 57.8396 57.8984 57.8103C57.8809 57.781 57.8984 57.7576 57.9395 57.7576C58.0508 57.7576 57.9395 57.6697 57.7988 57.6521C57.7285 57.6404 57.3594 57.617 56.9844 57.6052C56.3867 57.5759 56.293 57.5877 56.293 57.6638C56.293 57.7166 56.2637 57.7576 56.2285 57.7576C56.1992 57.7576 56.1816 57.781 56.1992 57.8103C56.2168 57.8396 56.1465 57.8513 56.041 57.8396C55.5078 57.7693 53.9961 57.7459 53.9316 57.8103C53.8965 57.8455 53.8379 57.8748 53.8086 57.8748C53.7734 57.8748 53.7852 57.8455 53.832 57.8162C53.8965 57.7752 53.9024 57.7576 53.8438 57.7576C53.8027 57.7576 53.7266 57.7986 53.6797 57.8455C53.627 57.8923 53.5566 57.9334 53.5215 57.9334C53.4805 57.9334 53.5039 57.8923 53.5625 57.8455C53.627 57.7986 53.668 57.7576 53.6504 57.7576C53.5918 57.7576 53.1289 57.9978 53.1289 58.0271C53.1289 58.0388 53.1816 58.0271 53.2402 57.992C53.3047 57.9627 53.375 57.9334 53.4043 57.9334C53.4277 57.9392 53.3867 57.9744 53.3047 58.0213C53.1934 58.0798 53.1406 58.0857 53.0762 58.033C53.0117 57.9802 53 57.9802 53.0293 58.0271C53.0762 58.1033 52.7656 58.2556 52.6484 58.2088C52.6074 58.197 52.5254 58.2088 52.4727 58.2381C52.3965 58.2732 52.3496 58.2498 52.2852 58.1267C52.1563 57.8631 51.9629 57.1658 51.9981 57.0779C52.0156 57.031 51.9746 56.9256 51.8984 56.8494C51.8164 56.7615 51.7813 56.6736 51.8047 56.6033C51.8281 56.5271 51.7637 56.3806 51.5938 56.1463C51.3066 55.742 51.0313 54.9334 50.9844 54.3298C50.9609 54.031 50.8965 53.8084 50.75 53.5095C50.5508 53.0994 50.5508 53.0994 50.6387 52.8123C50.6856 52.6541 50.7266 52.3728 50.7266 52.1853C50.7266 51.8982 50.6856 51.7634 50.4688 51.3474C50.3281 51.072 50.1992 50.7322 50.1875 50.5916C50.1699 50.4451 50.0234 50.0584 49.8594 49.7302L49.5664 49.1267L49.8184 48.8572C50.0762 48.5818 50.5508 47.7791 50.5508 47.615C50.5508 47.4978 50.1055 46.8533 49.5723 46.2029C49.3438 45.9216 49.0215 45.4705 48.8574 45.1951C48.5586 44.7088 48.0664 44.1873 47.7324 44.0115C47.6387 43.9646 47.5625 43.9119 47.5625 43.9002C47.5625 43.8826 47.7383 43.9588 47.9609 44.0701C48.3711 44.281 48.5117 44.4099 49.0156 45.0427C49.2852 45.3826 49.5371 45.6111 49.584 45.5584C49.5899 45.5466 49.6367 45.0662 49.6895 44.4861L49.7774 43.4314L49.625 43.0857L49.4727 42.7459L49.6836 42.3298C49.8945 41.9256 49.8945 41.9138 49.8125 41.6502C49.7129 41.3103 49.707 41.1756 49.8066 41.1756C49.9531 41.1756 51.4356 44.4099 51.3887 44.6384C51.3711 44.7263 51.4063 44.8318 51.4766 44.9138C51.541 44.9841 51.6113 45.1365 51.6289 45.2478C51.6524 45.3709 51.7285 45.4939 51.834 45.5642C52.0977 45.7517 52.1504 45.9568 52.1211 46.6775C52.1094 47.0291 52.1211 47.2869 52.1445 47.2517C52.168 47.2107 52.1914 47.1404 52.1914 47.0935C52.1914 46.9646 52.4785 46.3787 52.6016 46.2439C52.7012 46.1384 52.707 46.0974 52.6484 45.8923C52.6016 45.74 52.5957 45.658 52.6367 45.6463C52.6719 45.6345 52.6895 45.4295 52.6836 45.1423C52.6777 44.6619 52.5723 44.2986 52.3906 44.0994C52.3438 44.0466 52.1914 43.7068 52.0508 43.3377C51.9102 42.9685 51.5117 42.0017 51.1719 41.1814C50.8262 40.367 50.5566 39.6873 50.5742 39.6697C50.5918 39.6521 50.9668 39.7576 51.4121 39.9041C51.8574 40.0506 52.4141 40.2263 52.6484 40.2966C52.9121 40.3728 53.1524 40.49 53.2813 40.6013L53.4863 40.783L53.6445 40.6423C53.7324 40.5662 53.8262 40.4841 53.8555 40.4607C53.9258 40.408 53.7266 40.1795 53.6152 40.1795C53.3457 40.1795 51.8106 39.4412 51.1543 38.9959C50.6094 38.6326 50.1875 38.2517 50.2344 38.1756C50.2988 38.0759 49.959 37.7888 49.6895 37.7127C49.5195 37.6658 49.4082 37.6013 49.3906 37.531C49.3789 37.4724 49.3262 37.4256 49.2852 37.4256C49.2383 37.4256 49.2031 37.3787 49.2031 37.3142C49.2031 37.2556 49.1856 37.1267 49.168 37.033C49.1328 36.8689 49.1621 36.8396 49.5957 36.5349C50.0352 36.2185 50.627 35.6677 50.5215 35.6677C50.4512 35.6677 49.8828 35.99 49.5371 36.2302C49.3789 36.3416 49.2266 36.4295 49.2031 36.4295C49.1797 36.4295 49.1445 36.3064 49.1328 36.1482C49.1094 35.8787 49.1152 35.8611 49.4492 35.5095C49.8242 35.1111 49.8125 35.1463 49.7363 34.947C49.6836 34.8181 49.7246 34.7478 50.0527 34.3611L50.4277 33.9216L50.3457 33.658C50.2637 33.3826 50.0996 33.031 50.0527 33.031C50.0293 33.031 49.543 33.7341 49.4141 33.9509C49.3145 34.1209 49.4375 34.0037 49.7012 33.6756C49.9941 33.3064 50.0938 33.2537 49.9473 33.5408C49.8477 33.7224 49.4961 34.0681 49.2441 34.2263C49.0859 34.3259 49.0742 34.3259 49.0039 34.2263C48.9395 34.1384 48.957 34.0857 49.1211 33.8631C49.2324 33.7224 49.3027 33.5818 49.2852 33.5525C49.2676 33.5174 49.2149 33.3064 49.1738 33.072C49.1328 32.8377 49.0801 32.6091 49.0625 32.5564C49.0156 32.4451 49.3438 31.947 49.7715 31.4783C50.0059 31.2263 50.1055 31.156 50.1934 31.1853C50.2578 31.2029 50.8379 31.3084 51.4824 31.4138C52.1328 31.5193 52.7012 31.6424 52.7481 31.6834C52.8828 31.7947 53.375 32.7263 53.5156 33.1482L53.6445 33.5291L53.8672 33.5232C53.9961 33.5174 54.2129 33.4763 54.3477 33.4353C54.582 33.365 54.6113 33.365 54.6816 33.4588C54.7227 33.5115 54.7695 33.6814 54.793 33.822C54.8399 34.1912 55.1914 34.9295 55.3731 35.0525C55.4551 35.1052 55.6953 35.1756 55.9121 35.2107L56.3106 35.2752L56.5566 35.6619C56.9609 36.2947 57.0195 36.4236 56.9434 36.5877C56.8613 36.7693 56.8613 36.7634 56.9961 36.7986C57.0606 36.8162 57.1426 36.8982 57.1836 36.9861C57.2481 37.1267 57.2422 37.156 57.1426 37.2322C57.0254 37.3142 57.0313 37.3201 57.1836 37.4314C57.2891 37.5076 57.3711 37.6541 57.4356 37.865C57.5234 38.1697 57.5234 38.1873 57.3828 38.5037L57.2363 38.8318L57.4473 39.1306C57.752 39.5818 57.834 39.7986 57.7285 39.8865C57.6055 39.9861 57.6172 40.033 57.8164 40.3318C57.9688 40.5486 58.0391 40.5955 58.2441 40.6306C58.4024 40.6541 58.543 40.7244 58.6484 40.8357C58.7305 40.9236 58.8184 40.9998 58.8359 40.9998C58.8535 40.9998 59.0645 40.8533 59.2988 40.6775C59.6094 40.4431 59.7852 40.2498 59.9668 39.9627C60.2012 39.5759 60.207 39.5525 60.1543 39.2713C60.1191 39.1072 60.1133 38.9021 60.125 38.8142C60.1543 38.6619 60.0899 38.281 59.9199 37.6482C59.8789 37.4959 59.8848 37.3904 59.9258 37.3025C60.0195 37.1326 59.9024 36.9744 59.4277 36.6228C59.1113 36.3884 59.0469 36.3181 59.0762 36.2127C59.0996 36.1013 59.0762 36.072 58.918 36.031L58.7246 35.9783L58.8887 35.9314C59.0762 35.8787 59.0762 35.8787 58.9356 35.6795C58.8242 35.5154 58.5899 34.9881 58.4024 34.4549L58.2969 34.156L58.4492 34.115C58.6191 34.074 58.9883 33.7517 58.9883 33.6463C58.9883 33.5174 58.3965 33.031 58.2441 33.031C58.2031 33.031 58.0684 33.1189 57.9512 33.2244C57.8281 33.3299 57.5469 33.5174 57.3184 33.6404C57.0957 33.7634 56.8027 33.9451 56.6738 34.0447C56.4512 34.2146 56.4512 34.2088 56.7324 33.9158C56.8965 33.7459 57.2422 33.4646 57.5059 33.283C58.0039 32.9549 58.1563 32.8142 57.957 32.8787C57.8926 32.8963 57.6524 32.9607 57.4121 33.0252C56.9961 33.1424 56.9844 33.1424 57.084 33.0369C57.1367 32.9724 57.3652 32.8259 57.5879 32.7088C58.0215 32.4802 58.0391 32.4451 57.9102 32.0759C57.7754 31.7009 57.6641 31.6189 57.3477 31.6599L57.0723 31.6951L57.0313 31.4431C57.0078 31.3025 56.9316 31.1091 56.8555 31.0095C56.7793 30.9158 56.6504 30.699 56.5625 30.5291C56.3867 30.1716 56.0996 29.8318 55.9414 29.7791C55.7774 29.7263 55.5195 29.8845 55.0625 30.3064C54.7051 30.6287 54.2891 30.8689 54.207 30.7927C54.1953 30.7752 54.3008 30.6756 54.4473 30.5701C54.5938 30.4646 54.7754 30.2771 54.8516 30.1658C55.0215 29.9197 55.168 29.3631 55.0859 29.281C55.0274 29.2224 54.4649 29.492 53.7559 29.9314C53.4981 30.0896 53.2813 30.2127 53.2695 30.2009C53.2578 30.1892 53.5039 30.0076 53.8203 29.7966C54.1309 29.5799 54.4531 29.3396 54.5352 29.2517C54.6758 29.0935 54.6816 29.0877 54.5645 29.0232C54.5 28.9881 54.2891 28.8123 54.0957 28.6306C53.9024 28.4549 53.6387 28.2439 53.5098 28.1677C53.1641 27.9685 52.8594 27.658 52.5723 27.2302C52.3203 26.8435 51.9395 26.4509 51.5352 26.1521L51.3125 25.9939V26.3923C51.3125 27.3064 50.9492 28.0857 49.7305 29.8084C49.4902 30.1482 49.1797 30.5642 49.0391 30.74C48.8984 30.9158 48.6641 31.2381 48.5176 31.4607C48.3711 31.6775 48.2422 31.8591 48.2305 31.8591C48.1543 31.8591 48.8223 30.617 49.1152 30.2185C49.4258 29.7966 49.3731 29.8318 48.6348 30.5349C48.4004 30.7634 48.0137 31.0857 47.7793 31.2615C47.1406 31.7361 45.957 32.533 46.0039 32.4509C46.0274 32.4099 46.4024 32.117 46.8359 31.7947C47.5625 31.2498 47.8086 31.0095 48.4004 30.242C48.5645 30.031 48.4766 30.072 48.2305 30.3181C48.1074 30.4412 48.0723 30.4705 48.1484 30.3767C48.2246 30.2888 48.2656 30.2185 48.2422 30.2185C48.1543 30.2185 47.8086 30.4236 47.4922 30.6697C47.3047 30.8103 47.1524 30.9158 47.1524 30.9041C47.1524 30.8924 47.4102 30.658 47.7266 30.3884C48.9512 29.3396 49.7832 28.408 49.9356 27.9334C49.9649 27.8513 50.0293 27.4177 50.0879 26.9666L50.1875 26.1463L50.1934 27.0545C50.1992 27.8982 50.1875 27.9861 50.0586 28.2673C49.918 28.572 49.4082 29.3572 49.1797 29.6326C49.1152 29.7146 49.2383 29.6091 49.4551 29.3982C49.9356 28.9412 50.0234 28.8064 50.2285 28.197C50.3164 27.9451 50.4512 27.6052 50.5332 27.4529C50.709 27.1131 50.6914 26.9841 50.3691 26.322L50.1406 25.8591L50.5684 26.281L50.9902 26.7029L51.125 26.3631C51.1953 26.1756 51.2539 26.0056 51.2539 25.9822C51.2539 25.9177 50.4395 25.4138 50.1992 25.3259C50.0879 25.2849 49.6426 25.2088 49.2207 25.1502L48.4473 25.0447L48.3594 24.7459C48.2656 24.4295 48.0488 24.1834 47.6797 23.9666C47.4277 23.8142 46.332 23.4041 46.291 23.4451C46.2734 23.4568 46.291 23.615 46.332 23.7849C46.4141 24.1775 46.4727 25.6365 46.3906 25.3845C46.3613 25.2849 46.2559 24.7927 46.1563 24.283C45.8106 22.5134 45.2598 21.1892 44.5801 20.492C44.3047 20.2049 44.1289 20.0701 43.959 20.0291C43.6309 19.9353 42.8926 19.9002 42.5996 19.9646ZM44.5098 21.1599C44.8731 21.6111 45.2481 22.3963 45.5352 23.2752C45.8106 24.1365 45.8516 24.3299 45.8926 25.1209C45.9102 25.49 45.9395 25.8884 45.9512 25.9998C45.9746 26.1814 45.9688 26.1931 45.9043 26.0935C45.7637 25.8767 45.4941 25.5838 45.377 25.5193C45.2598 25.4607 45.2598 25.4724 45.2949 25.9412C45.3184 26.2107 45.3242 26.4158 45.3125 26.4041C45.2949 26.3923 45.207 26.0525 45.1074 25.6482C44.7852 24.365 44.6445 23.9724 44.3281 23.5213C44.2637 23.4334 44.2285 23.3631 44.2402 23.3631C44.2578 23.3631 44.3984 23.5388 44.5508 23.7556C44.9316 24.2947 45.7461 25.3142 45.7461 25.2556C45.7461 25.2322 45.6641 24.9158 45.5703 24.5525C45.4766 24.1951 45.4121 23.8494 45.4297 23.7908C45.459 23.7029 45.4531 23.697 45.3945 23.7732C45.3418 23.8435 45.3301 23.8318 45.3594 23.7088C45.377 23.615 45.3301 23.3806 45.2422 23.1228C45.1543 22.8826 45.0899 22.6365 45.0957 22.572C45.1016 22.4256 44.6504 21.4998 44.3809 21.0896C44.2637 20.9256 44.1816 20.7849 44.1934 20.7849C44.2051 20.7849 44.3457 20.9549 44.5098 21.1599ZM36.0664 23.6853C35.9492 23.7322 35.7207 23.7791 35.5684 23.7966L35.2871 23.8259L35.5215 23.7674C35.6504 23.7381 35.8379 23.6853 35.9316 23.6619C36.2129 23.5799 36.3066 23.5974 36.0664 23.6853ZM38.3164 23.9314C38.4277 24.0545 38.6563 24.5056 38.6563 24.5935C38.6563 24.6873 38.4981 24.6638 38.1992 24.5173C38.0469 24.4412 37.7481 24.3299 37.5313 24.2771C37.3086 24.2185 37.1328 24.1541 37.1328 24.1306C37.1328 24.0662 37.8359 23.8435 38.0469 23.8377C38.1524 23.8318 38.2637 23.8728 38.3164 23.9314ZM43.4785 25.1443C44.0293 25.6013 44.252 25.7361 44.0352 25.49C43.9883 25.4314 43.9238 25.3435 43.9004 25.2966C43.8535 25.2205 43.8594 25.2205 43.9531 25.2908C44.0117 25.3377 44.2285 25.6423 44.4395 25.9646C44.6504 26.2927 44.9258 26.7088 45.0547 26.8904C45.1777 27.0779 45.3477 27.365 45.4238 27.5349C45.5586 27.8338 45.5586 27.8572 45.4766 28.1677C45.4297 28.3435 45.3945 28.5427 45.3887 28.6072C45.3887 28.6716 45.3301 28.5252 45.2539 28.2849C45.0664 27.6697 44.7149 26.7791 44.5332 26.4685C44.4453 26.322 44.0176 25.8591 43.584 25.4314C43.1445 25.0037 42.8106 24.6521 42.834 24.6521C42.8574 24.6521 43.1504 24.8748 43.4785 25.1443ZM41.5977 24.9802C41.7324 25.0506 41.7559 25.0916 41.709 25.1384C41.6328 25.2146 41.3516 25.0916 41.3047 24.9568C41.2754 24.8631 41.3809 24.8689 41.5977 24.9802ZM48.8457 26.2341C48.875 26.2341 48.9805 26.1345 49.0801 26.0173L49.2617 25.7947V26.0408C49.2617 26.6033 48.3535 27.9216 47.2344 28.9822C46.502 29.6736 46.1797 29.908 46.6074 29.4392C46.7774 29.2517 47 28.9412 47.1055 28.742C47.2168 28.5252 47.4102 28.2908 47.5859 28.1443C48.2481 27.5994 48.3008 27.5232 48.3418 27.1306C48.3652 26.9314 48.4238 26.6619 48.4766 26.5271C48.541 26.3631 48.5645 26.1814 48.5469 25.9588L48.5176 25.6248L48.6524 25.9295C48.7285 26.0994 48.8106 26.2341 48.8457 26.2341ZM35.1055 26.0408C35.0176 26.2869 34.9941 26.99 35.082 26.7908C35.1172 26.7088 35.1289 26.7908 35.1289 27.0545C35.1289 27.3591 35.1172 27.4002 35.0762 27.2595C35.041 27.1189 35.0352 27.1541 35.0469 27.406C35.0527 27.5818 35.082 27.781 35.1113 27.8455C35.1348 27.9099 35.0762 27.8631 34.9766 27.7341C34.6777 27.3709 34.6016 26.9666 34.7539 26.5388C34.8242 26.3396 35.1231 25.824 35.1699 25.824C35.1816 25.824 35.1524 25.9236 35.1055 26.0408ZM37.168 26.8787C37.291 26.99 37.4785 27.1423 37.5723 27.2185C37.7422 27.3474 37.7422 27.3533 37.6016 27.3123C37.5195 27.2888 37.332 27.2127 37.1797 27.1365C37.0215 27.0545 36.8984 27.0017 36.8984 27.0193C36.8984 27.031 37.0449 27.1423 37.2207 27.2595C37.3965 27.3826 37.543 27.4939 37.543 27.5056C37.543 27.5525 36.957 27.2068 36.8633 27.1072C36.7344 26.9666 36.6113 26.5974 36.6055 26.3572V26.1521L36.7695 26.4158C36.8633 26.5564 37.0391 26.7673 37.168 26.8787ZM32.6152 26.7732C32.6035 27.0603 32.6035 27.072 32.5625 26.8787C32.5391 26.7556 32.5156 26.7205 32.5098 26.7908C32.4981 26.867 32.4863 26.8787 32.4629 26.8318C32.4336 26.7615 32.5508 26.4685 32.6035 26.4685C32.6152 26.4685 32.6152 26.6091 32.6152 26.7732ZM35.8965 27.1834C35.9785 27.4002 35.9258 27.3943 35.8145 27.1716C35.7676 27.0779 35.7324 26.8728 35.7324 26.7205L35.7383 26.4392L35.7852 26.7322C35.8086 26.8904 35.8613 27.0955 35.8965 27.1834ZM47.8262 26.8142C47.709 27.6638 46.6895 28.9646 45.7344 29.4861C45.5 29.615 43.2266 30.4002 43.1856 30.3709C43.1738 30.3591 44.8145 29.5857 45.4766 29.2869C45.6992 29.1873 46.0508 28.9588 46.25 28.783C46.8184 28.2791 47.5566 27.242 47.7383 26.6853C47.832 26.3865 47.8789 26.4509 47.8262 26.8142ZM36.7637 27.9861C37.0508 28.2498 37.0684 28.2849 36.8984 28.1912C36.7871 28.1326 36.5586 27.9451 36.3945 27.7869C36.1133 27.5056 36.0781 27.447 35.8555 26.7615C35.8438 26.7146 35.9609 26.8963 36.1309 27.1716C36.2949 27.447 36.5762 27.8103 36.7637 27.9861ZM34.1445 26.99C34.1152 27.0955 34.1094 27.2244 34.1211 27.2771C34.1504 27.365 34.1445 27.365 34.0918 27.2888C34.0098 27.1716 34.0098 27.0193 34.0977 26.8787C34.1973 26.7263 34.209 26.7615 34.1445 26.99ZM51.7285 28.0213C51.793 28.3435 51.7871 28.4197 51.6465 28.9295C51.5645 29.2341 51.4649 29.5623 51.4238 29.6619L51.3477 29.8377L51.3242 29.6736C51.3125 29.5857 51.3477 29.3279 51.3945 29.1052C51.4473 28.8709 51.4883 28.408 51.4941 28.0095C51.5 27.3826 51.5059 27.3357 51.5762 27.4939C51.6172 27.5935 51.6875 27.8338 51.7285 28.0213ZM52.3672 27.9451C52.5723 28.3728 52.5899 28.6775 52.4316 29.0232C52.3027 29.3103 52.1563 29.4334 52.209 29.2166C52.3262 28.7127 52.3086 28.0623 52.1621 27.6814C52.1387 27.6287 52.1387 27.5818 52.1563 27.5818C52.1797 27.5818 52.2734 27.7459 52.3672 27.9451ZM49.584 28.0447C49.4609 28.2966 49.4141 28.2732 49.5371 28.0213C49.5899 27.9099 49.6426 27.8279 49.6602 27.8396C49.6719 27.8513 49.6367 27.9451 49.584 28.0447ZM52.0449 29.158C52.0215 29.2576 51.9863 29.3513 51.9629 29.3689C51.9336 29.3806 51.9453 29.2927 51.9746 29.1638C52.0508 28.8943 52.1035 28.8943 52.0449 29.158ZM50.0879 29.6736C50.0586 29.7322 49.9883 29.8318 49.9356 29.8963C49.8418 30.0076 49.8359 30.0076 49.918 29.867C50.0703 29.5974 50.0879 29.574 50.1172 29.574C50.1348 29.574 50.1172 29.6209 50.0879 29.6736ZM35.0938 29.9666C35.3223 30.1189 35.3809 30.1306 35.8672 30.1189C36.3828 30.1013 36.3945 30.1072 36.834 30.3533C37.0801 30.4881 37.3555 30.6345 37.4492 30.6873C37.6953 30.8162 38.3047 31.9998 38.3047 32.3513C38.3047 32.5388 38.3516 32.6677 38.4863 32.8552C38.5918 32.9959 38.75 33.2771 38.8438 33.4822C38.9902 33.7927 39.0137 33.8924 38.9727 34.074C38.9492 34.1912 38.9316 34.3494 38.9375 34.4197C38.9551 34.5427 38.9082 34.531 38.1758 34.2263C36.6758 33.5994 36.4297 33.4998 36.3301 33.4998C36.2715 33.4998 36.4414 33.617 36.7109 33.7634C37.2852 34.0681 38.4043 34.7888 38.5684 34.9529C38.6328 35.0174 38.7324 35.1521 38.7852 35.2459L38.8906 35.4216L38.2871 35.4978C37.0039 35.6619 36.7871 35.5799 35.832 34.5369C35.252 33.9099 34.9473 33.4588 34.8184 33.0427C34.7774 32.908 34.7774 32.908 34.9766 33.0017L35.1699 33.0955L35.0234 32.9724C34.9414 32.9021 34.6777 32.697 34.4375 32.5154C34.0449 32.2166 32.8672 31.2966 32.7969 31.2322C32.7852 31.2205 32.832 31.197 32.9024 31.1736C33.0488 31.1384 33.0547 31.1033 33.0313 30.5818L33.0195 30.2185H33.2422C33.3652 30.2185 33.5469 30.2478 33.6524 30.2888C33.8106 30.3416 33.8867 30.3357 34.1152 30.2478C34.2676 30.1892 34.4785 30.072 34.5781 29.9783C34.6777 29.8845 34.7774 29.8084 34.8066 29.8084C34.8301 29.8084 34.959 29.8787 35.0938 29.9666ZM54.8867 30.6931C54.6348 30.8924 54.4941 30.9451 54.7109 30.7576C54.8223 30.658 54.9453 30.5759 54.9746 30.5759C55.0098 30.5759 54.9688 30.6228 54.8867 30.6931ZM56.1758 31.0623C56.1231 31.2966 55.9297 31.6306 55.7774 31.7478C55.6836 31.824 55.6836 31.824 55.7774 31.7127C55.9531 31.5017 56.1172 31.074 56.1231 30.8045C56.1289 30.5759 56.1348 30.5584 56.1758 30.699C56.1992 30.7869 56.2051 30.9509 56.1758 31.0623ZM33.0781 31.7302C33.4238 32.0174 33.8281 32.4158 33.9688 32.615C34.332 33.1131 34.6777 33.6873 34.6367 33.7283C34.6191 33.7459 34.4258 33.5759 34.2149 33.3533C33.8926 33.0134 33.8516 32.9841 33.9688 33.1775C34.0449 33.3064 34.2852 33.6463 34.502 33.9392C34.7188 34.2263 34.877 34.4724 34.8477 34.4841C34.8242 34.4959 34.4785 34.3963 34.0801 34.2674C33.6816 34.1443 33.1602 33.9802 32.9199 33.9099C32.6856 33.8396 32.3399 33.7166 32.1582 33.6404C31.9766 33.5584 31.7363 33.4822 31.625 33.4646L31.4199 33.4412L31.7715 33.7634C32.082 34.0447 32.1055 34.0799 31.9824 34.0857C31.9004 34.0857 31.6895 34.0447 31.5137 33.9978C31.332 33.9509 31.0625 33.8982 30.916 33.8806C30.7578 33.8631 30.459 33.74 30.1602 33.5701C29.7031 33.3123 29.6797 33.2947 29.8555 33.2771C30.1191 33.2478 30.4649 32.8611 30.418 32.6326C30.3652 32.3806 30.834 31.7244 31.3145 31.367C31.5488 31.197 31.6016 31.1853 32.0117 31.1912L32.4512 31.2029L33.0781 31.7302ZM30.8633 34.3963C31.5547 34.8357 32.4981 35.4978 32.8789 35.8084C33.1426 36.0252 33.4414 36.4998 33.4414 36.7048C33.4414 36.9334 32.3867 36.6052 30.9863 35.9373C30.3535 35.6326 29.6914 35.3279 29.5156 35.2576C29.3399 35.1814 29.1699 35.0994 29.1406 35.0759C29.1113 35.0525 29.1992 34.824 29.3399 34.572C29.5391 34.2029 29.5801 34.074 29.5566 33.8982C29.5391 33.781 29.5391 33.6697 29.5566 33.6521C29.5859 33.6228 30.0547 33.8865 30.8633 34.3963ZM26.3399 35.6619C26.6035 35.8318 26.8203 35.9841 26.8203 35.9959C26.8203 36.0662 25.9531 35.5037 25.7363 35.2986C25.6602 35.2224 25.7481 35.2752 26.3399 35.6619ZM58.3438 36.4353C58.1914 36.5349 57.6875 36.7869 57.6699 36.7693C57.6641 36.7576 57.6348 36.6931 57.6172 36.6228C57.582 36.5115 57.5996 36.4881 57.7402 36.4529C57.8281 36.4353 57.9336 36.4119 57.9629 36.4002C57.9981 36.3884 58.1152 36.3767 58.2266 36.3767C58.3848 36.3709 58.4141 36.3884 58.3438 36.4353ZM43.4141 36.7283C43.8594 36.7986 44.2109 36.8748 44.1934 36.8865C44.1816 36.8982 43.8125 36.8689 43.3672 36.8103C42.9277 36.7576 42.4883 36.7283 42.3945 36.7459C42.2949 36.7634 41.9785 36.8865 41.6914 37.0154C41.0996 37.2791 41.1172 37.2732 41.1172 37.1912C41.1172 37.0857 42.3008 36.5349 42.4649 36.5701C42.5469 36.5818 42.9746 36.658 43.4141 36.7283ZM47.2109 36.7869C46.877 36.9392 46.2207 37.115 45.8047 37.1619C45.3535 37.2205 45.459 37.1502 45.9395 37.074C46.1621 37.0388 46.5664 36.9334 46.8477 36.8455C47.4453 36.6463 47.5801 36.6287 47.2109 36.7869ZM44.3047 37.7185C44.2402 38.2693 44.1992 37.9705 44.2578 37.3728C44.293 37.0037 44.3106 36.9334 44.3281 37.1033C44.3399 37.2322 44.3281 37.5076 44.3047 37.7185ZM45.084 37.3494C45.0723 37.4431 45.0606 37.3787 45.0606 37.2205C45.0606 37.0564 45.0723 36.9861 45.084 37.0564C45.0957 37.1326 45.0957 37.2615 45.084 37.3494ZM47.9375 37.1384C47.9024 37.2029 47.5508 37.367 47.4629 37.367C47.4219 37.3611 47.9082 37.0857 47.9609 37.074C47.9727 37.074 47.9609 37.1033 47.9375 37.1384ZM24.5176 37.4021C24.5 37.4197 24.4473 37.4256 24.4063 37.408C24.3594 37.3904 24.377 37.3728 24.4414 37.3728C24.5059 37.367 24.541 37.3845 24.5176 37.4021ZM24.7402 37.4256C24.7578 37.4548 24.7344 37.4841 24.6816 37.4841C24.6289 37.4841 24.6055 37.4548 24.6231 37.4256C24.6406 37.3904 24.6699 37.367 24.6816 37.367C24.6934 37.367 24.7227 37.3904 24.7402 37.4256ZM45.1602 37.8064C45.1602 37.8884 45.1367 37.9529 45.1074 37.9529C45.084 37.9529 45.0723 37.8884 45.0899 37.8064C45.1016 37.7244 45.125 37.6599 45.1367 37.6599C45.1484 37.6599 45.1602 37.7244 45.1602 37.8064ZM48.3594 37.947C48.582 38.0408 48.8809 38.1463 49.0274 38.1873C49.1738 38.2283 49.3965 38.3103 49.5254 38.3748C49.8008 38.5154 50.8555 39.1892 50.832 39.2127C50.8086 39.2302 49.3203 38.7498 48.6465 38.5095C48.1719 38.3396 48.0313 38.3162 47.2754 38.2869C46.127 38.2459 46.0274 38.1345 47.1289 38.117C47.5742 38.117 48.0078 38.1111 48.0899 38.117C48.3184 38.1287 47.8262 37.906 47.5215 37.8591C47.375 37.8357 47.2871 37.8006 47.3047 37.7654C47.3691 37.6658 47.9258 37.7654 48.3594 37.947ZM46.3965 38.7791C46.666 38.8142 46.9238 38.867 46.9649 38.8904C47.0352 38.9256 46.4844 38.9841 45.1016 39.0955C44.9258 39.1072 44.6856 39.1365 44.5742 39.1541C44.416 39.1775 44.3984 39.1716 44.4863 39.1306C44.709 39.0252 44.4395 39.0662 43.707 39.242C43.3086 39.3357 42.9688 39.4177 42.9453 39.4177C42.875 39.4119 43.7305 39.0252 44.0293 38.9256C44.6738 38.7088 45.4941 38.6619 46.3965 38.7791ZM47.7969 39.2713C47.7969 39.2888 47.5274 39.4822 47.1934 39.699C46.6074 40.0857 46.4902 40.1384 45.3652 40.4666C45.1367 40.531 44.6211 40.7478 44.2227 40.9412C43.8184 41.1345 43.543 41.2517 43.6074 41.199C43.8184 41.0291 44.709 40.6072 45.5703 40.2673C46.0391 40.0798 46.7246 39.7752 47.0938 39.5877C47.8438 39.2127 47.7969 39.2302 47.7969 39.2713ZM50.791 41.7791C51.1426 42.617 51.418 43.3142 51.4063 43.3259C51.3828 43.3494 51.3594 43.2908 50.5859 41.4509C50.2754 40.7127 50.0234 40.0916 50.0234 40.074C50.0293 39.9802 50.1934 40.3435 50.791 41.7791ZM25.8477 40.9529C25.8301 40.9763 25.7832 40.9822 25.7363 40.9588C25.6133 40.9177 25.625 40.8884 25.7598 40.9002C25.8242 40.9002 25.8652 40.9295 25.8477 40.9529ZM42.8457 40.9763C42.4238 41.3045 39.2422 42.7166 39.1484 42.6228C39.1309 42.6111 39.2363 42.5525 39.3711 42.4998C39.5117 42.447 40.3613 42.0662 41.2637 41.6502C42.166 41.2341 42.916 40.8884 42.9336 40.8884C42.9512 40.8884 42.9102 40.9295 42.8457 40.9763ZM26.2637 41.0525C26.2813 41.0818 26.2754 41.1228 26.2461 41.1404C26.2168 41.158 26.1934 41.1345 26.1934 41.0877C26.1934 40.9881 26.2109 40.9763 26.2637 41.0525ZM45.4238 41.4568C45.084 41.6619 44.3047 41.99 43.666 42.1951C42.3301 42.617 42.4238 42.5525 44.1406 41.8845C45.5352 41.3396 45.7168 41.281 45.4238 41.4568ZM48.8633 42.6697C48.9922 42.9275 49.127 43.1795 49.168 43.2322C49.2031 43.2791 49.1328 43.2205 49.0156 43.0916C48.8984 42.9685 48.7402 42.7166 48.6758 42.5349C48.6055 42.3533 48.5117 42.1365 48.4649 42.0545L48.377 41.908L48.5059 42.0545C48.5703 42.1365 48.7344 42.4119 48.8633 42.6697ZM51.5996 43.7244C51.5996 43.7537 51.5645 43.7185 51.5176 43.6365C51.4707 43.5545 51.4356 43.4607 51.4356 43.4314C51.4356 43.3963 51.4707 43.4373 51.5176 43.5193C51.5645 43.6013 51.5996 43.6892 51.5996 43.7244ZM52.4199 44.3572C52.3027 44.4509 51.6055 44.7966 51.6055 44.7615C51.6055 44.7146 52.291 44.3513 52.3906 44.3455C52.4199 44.3396 52.4316 44.3455 52.4199 44.3572ZM48.043 46.0974C48.3125 46.0974 48.5938 46.2498 48.9395 46.572C49.1152 46.742 49.2617 46.9002 49.2617 46.9236C49.2617 47.0056 48.6641 46.8006 48.2949 46.5955C48.1016 46.49 47.7266 46.2439 47.4688 46.0564C47.2051 45.8689 46.9414 45.6814 46.8828 45.6463C46.8184 45.6052 47.0176 45.6931 47.3223 45.8338C47.627 45.9802 47.9492 46.0974 48.043 46.0974ZM57.6992 57.7224C57.6992 57.7341 57.6582 57.7634 57.6055 57.781C57.5586 57.7986 57.5352 57.7927 57.5527 57.7576C57.5879 57.699 57.6992 57.6756 57.6992 57.7224ZM53.2695 58.3494C53.252 58.3787 53.2109 58.3904 53.1816 58.367C53.1524 58.3494 53.1406 58.3084 53.1641 58.2791C53.1816 58.2498 53.2227 58.2381 53.252 58.2615C53.2813 58.2791 53.293 58.3201 53.2695 58.3494ZM52.9649 58.4256C52.9356 58.531 52.9238 58.5369 52.9063 58.4431C52.8945 58.3904 52.8594 58.3552 52.8301 58.3787C52.8008 58.3963 52.7891 58.4373 52.8066 58.4666C52.8301 58.4959 52.8008 58.5193 52.7539 58.5193C52.707 58.5193 52.6484 58.49 52.625 58.449C52.6016 58.4138 52.6074 58.4021 52.6426 58.4197C52.6777 58.4431 52.7363 58.4256 52.7715 58.3845C52.8711 58.2556 53 58.2849 52.9649 58.4256ZM53.5391 58.4314C53.5391 58.4724 53.3633 58.5076 53.3399 58.4724C53.3223 58.449 53.3633 58.4197 53.4277 58.4197C53.4863 58.4138 53.5391 58.4197 53.5391 58.4314ZM53.3047 59.1052C53.3047 59.1463 53.0176 59.2224 52.8594 59.2224C52.8125 59.2224 52.7774 59.1814 52.7774 59.1345C52.7774 59.0759 52.8477 59.0525 53.041 59.0584C53.1875 59.0584 53.3047 59.0818 53.3047 59.1052Z" fill="white"/>
<path d="M48.9687 38.3105C49.0801 38.3867 49.6719 38.6562 49.7246 38.6562C49.7773 38.6504 49.0097 38.252 48.9394 38.252C48.9101 38.2461 48.9219 38.2754 48.9687 38.3105Z" fill="white"/>
<path d="M34.9824 24.3418C35.0703 24.3535 35.1992 24.3535 35.2754 24.3418C35.3457 24.3301 35.2754 24.3184 35.1113 24.3184C34.9531 24.3184 34.8887 24.3301 34.9824 24.3418Z" fill="white"/>
<path d="M50.0938 27.5235C50.0938 27.6348 50.1055 27.6817 50.123 27.6231C50.1348 27.5703 50.1348 27.4766 50.123 27.418C50.1055 27.3653 50.0938 27.4121 50.0938 27.5235Z" fill="white"/>
<path d="M15.5762 28.5192C15.7871 28.8297 16.4492 29.6852 16.5078 29.7203C16.7891 29.8961 16.1035 28.9703 15.5527 28.4313C15.459 28.3317 15.459 28.3492 15.5762 28.5192ZM16.4785 29.5738C16.5371 29.6383 16.5723 29.691 16.5547 29.691C16.5371 29.691 16.4785 29.6383 16.4199 29.5738C16.3613 29.5094 16.3262 29.4567 16.3438 29.4567C16.3613 29.4567 16.4199 29.5094 16.4785 29.5738Z" fill="white"/>
<path d="M24.5938 29.8262C24.5938 29.9961 24.8223 30.2188 24.9922 30.2188C25.0977 30.2188 25.1211 30.1836 25.1211 30.0371C25.1211 29.8906 25.0859 29.8496 24.916 29.7734C24.6406 29.6621 24.5938 29.668 24.5938 29.8262Z" fill="white"/>
<path d="M22.6602 31.8245C22.6602 31.8362 22.707 31.8831 22.7656 31.9241C22.8535 32.0003 22.8594 31.9944 22.7832 31.9006C22.707 31.8069 22.6602 31.7776 22.6602 31.8245Z" fill="white"/>
<path d="M23.0703 32.176C23.0703 32.1878 23.1172 32.2346 23.1758 32.2756C23.2637 32.3518 23.2695 32.346 23.1934 32.2522C23.1172 32.1585 23.0703 32.1292 23.0703 32.176Z" fill="white"/>
<path d="M23.539 32.3867C23.5859 32.416 23.6562 32.4453 23.6855 32.4453C23.7207 32.4453 23.7031 32.416 23.6562 32.3867C23.6094 32.3574 23.5449 32.3281 23.5097 32.3281C23.4804 32.3281 23.4922 32.3574 23.539 32.3867Z" fill="white"/>
<path d="M23.832 32.5625C23.832 32.5918 23.8613 32.6211 23.8965 32.6211C23.9258 32.6211 23.9375 32.5918 23.9199 32.5625C23.9023 32.5273 23.873 32.5039 23.8555 32.5039C23.8438 32.5039 23.832 32.5273 23.832 32.5625Z" fill="white"/>
<path d="M57.2304 32.9727C57.1836 33.002 57.1719 33.0312 57.2012 33.0312C57.2363 33.0312 57.3008 33.002 57.3476 32.9727C57.3945 32.9434 57.4121 32.9141 57.3769 32.9141C57.3476 32.9141 57.2773 32.9434 57.2304 32.9727Z" fill="white"/>
<path d="M18.7637 33.465C18.6641 33.5353 18.6641 33.5411 18.7813 33.5294C18.9336 33.5177 18.9981 33.465 18.9219 33.4181C18.8926 33.4005 18.8223 33.424 18.7637 33.465Z" fill="white"/>
<path d="M26.2109 33.5819C26.2285 33.6288 26.2871 33.6815 26.3399 33.705C26.416 33.7343 26.416 33.7167 26.3223 33.6171C26.1992 33.4764 26.1699 33.4706 26.2109 33.5819Z" fill="white"/>
<path d="M19.1152 33.7817C19.2148 33.852 19.2148 33.9867 19.1152 33.9457C19.0625 33.9281 19.039 33.934 19.0566 33.9692C19.0976 34.0395 19.2383 34.0453 19.2793 33.9809C19.291 33.9574 19.2968 33.9692 19.2851 34.0043C19.2793 34.0395 19.3027 34.1098 19.3379 34.1508C19.3965 34.2153 19.3906 34.2153 19.3086 34.1508C19.2148 34.0805 19.2031 34.0922 19.2207 34.2446C19.2265 34.3793 19.3203 34.4906 19.584 34.7133C19.7773 34.8774 20 35.0766 20.0761 35.1645C20.2461 35.3461 20.2988 35.352 20.4804 35.2113C20.6152 35.1059 20.6152 35.0942 20.5273 34.8891C20.4746 34.7543 20.3808 34.6488 20.2871 34.6137C20.1992 34.5785 20.0058 34.4672 19.8593 34.3676C19.707 34.2621 19.5605 34.186 19.5254 34.1918C19.4961 34.2035 19.4843 34.1918 19.5136 34.1684C19.5605 34.1156 19.2148 33.7348 19.1211 33.7348C19.0801 33.7348 19.0742 33.7524 19.1152 33.7817Z" fill="white"/>
<path d="M17.7969 36.0718C17.7969 36.1597 18.4355 36.7163 18.875 37.0093C19.1035 37.1675 19.7422 37.5483 20.2871 37.8647C20.8379 38.1753 21.3125 38.4624 21.3535 38.4917C21.4062 38.5327 21.459 38.521 21.5176 38.4565C21.6348 38.3394 21.7051 38.3335 21.6113 38.4448C21.5527 38.5151 21.5586 38.521 21.6582 38.4976C21.8164 38.4565 21.8691 38.3042 21.7227 38.3042C21.6641 38.3042 21.5938 38.2749 21.5762 38.2456C21.5527 38.2104 21.5117 38.1987 21.4824 38.2163C21.4531 38.2397 21.4297 38.2222 21.4297 38.187C21.4297 38.1519 21.4004 38.1401 21.3594 38.1636C21.3008 38.1987 21.3008 38.187 21.3594 38.1167C21.418 38.0405 21.418 38.0112 21.3652 37.9761C21.3184 37.9526 21.3125 37.9585 21.3359 37.9995C21.3652 38.0464 21.3301 38.0698 21.248 38.0698C21.1484 38.0698 21.1367 38.0522 21.1895 37.9878C21.2422 37.9233 21.1953 37.8706 20.9492 37.7124C20.1699 37.2261 19.4551 36.728 19.1797 36.4819C18.916 36.2476 18.6758 36.0776 18.5996 36.0776C18.5586 36.0776 18.5879 36.3354 18.6348 36.4116C18.7461 36.5874 18.4297 36.4585 18.084 36.189C17.8555 36.0073 17.7969 35.9839 17.7969 36.0718Z" fill="white"/>
<path d="M21.0195 36.1188C21.0195 36.1833 21.6758 36.5466 21.7344 36.5114C21.7754 36.488 21.7812 36.4938 21.7578 36.5349C21.7227 36.5993 21.7578 36.6169 21.875 36.5993C21.8926 36.5993 21.9746 36.6403 22.0566 36.6931C22.1797 36.7751 22.2148 36.7809 22.2559 36.7165C22.2969 36.652 22.3086 36.652 22.3086 36.7106C22.3086 36.7516 22.3379 36.7692 22.3672 36.7516C22.4023 36.7341 22.4258 36.7458 22.4258 36.7751C22.4258 36.8102 22.502 36.8395 22.5957 36.8395C22.6895 36.8395 22.7773 36.863 22.7891 36.8923C22.8008 36.9157 22.9121 36.9567 23.041 36.9802C23.1699 37.0036 23.252 37.0036 23.2285 36.9743C23.1992 36.9509 23.1582 36.9274 23.1406 36.9216C23.0059 36.904 22.7246 36.7341 22.7598 36.6931C22.7891 36.6696 22.7715 36.6638 22.7305 36.6872C22.6836 36.7165 22.6016 36.6872 22.5312 36.6227C22.4492 36.5524 22.4258 36.5466 22.4551 36.6052C22.4961 36.6755 22.4902 36.6813 22.4199 36.6286C22.373 36.5876 22.25 36.5407 22.1504 36.5173C22.0449 36.4997 21.957 36.4528 21.957 36.4235C21.957 36.3884 22.0039 36.3884 22.0684 36.4294C22.1328 36.4587 22.2207 36.488 22.2617 36.4821C22.3027 36.4821 22.2676 36.4528 22.1738 36.4177C22.0859 36.3884 22.0332 36.3356 22.0508 36.3063C22.0684 36.2712 22.0273 36.2653 21.9395 36.2829C21.8574 36.3063 21.7754 36.2946 21.752 36.2595C21.7344 36.2243 21.6875 36.2067 21.6582 36.2243C21.6289 36.2477 21.6055 36.236 21.6055 36.2067C21.6055 36.1774 21.5703 36.154 21.5352 36.1481C21.1133 36.1071 21.0195 36.1013 21.0195 36.1188Z" fill="white"/>
<path d="M23.6446 36.7106C23.7793 36.7692 23.8731 36.8336 23.8496 36.8629C23.8262 36.8864 23.8321 36.8981 23.8613 36.8922C23.8965 36.8805 23.9785 36.904 24.0547 36.945C24.2656 37.0622 24.2012 36.986 23.9434 36.8043C23.8086 36.7165 23.6328 36.6344 23.5449 36.6227C23.4336 36.611 23.4571 36.6344 23.6446 36.7106Z" fill="white"/>
<path d="M23.2695 37.0862C23.2461 37.1272 23.2461 37.1448 23.2754 37.1213C23.2988 37.0979 23.3633 37.1096 23.416 37.1506C23.498 37.2151 23.498 37.2092 23.4277 37.1155C23.334 36.9983 23.3223 36.9924 23.2695 37.0862Z" fill="white"/>
<path d="M17.0234 37.8004C16.9648 37.8414 16.918 37.8942 16.918 37.9059C16.918 37.9469 17.4922 38.3805 17.6738 38.4801C17.791 38.5387 17.8203 38.5387 17.8672 38.4567C17.8965 38.4039 17.9961 38.3629 18.0898 38.3629C18.1895 38.3629 18.2656 38.3453 18.2656 38.316C18.2598 38.2867 17.3398 37.8004 17.1582 37.736C17.1406 37.7301 17.0762 37.7594 17.0234 37.8004Z" fill="white"/>
<path d="M21.8574 38.5093C21.8574 38.5503 21.9102 38.6031 21.9688 38.6148C22.0273 38.6324 22.0742 38.6206 22.0742 38.5914C22.0742 38.5621 22.0801 38.521 22.0918 38.4976C22.0977 38.48 22.0508 38.4566 21.9805 38.4449C21.9043 38.4331 21.8574 38.4566 21.8574 38.5093Z" fill="white"/>
<path d="M21.6641 38.6031C21.6641 38.6324 21.6934 38.6441 21.7227 38.6265C21.7578 38.6089 21.7812 38.5796 21.7812 38.5621C21.7812 38.5503 21.7578 38.5386 21.7227 38.5386C21.6934 38.5386 21.6641 38.5679 21.6641 38.6031Z" fill="white"/>
<path d="M18.3242 40.098C18.3242 40.139 19.8242 40.8597 20.0234 40.9124C20.3105 40.9886 19.8066 40.7015 19.0801 40.3792C18.3477 40.0511 18.3242 40.0394 18.3242 40.098Z" fill="white"/>
<path d="M25.1504 43.9178C25.2559 44.0233 25.9649 44.3866 26.1465 44.4217C26.3164 44.4569 26.3164 44.4569 26.2051 44.3631C25.9942 44.1932 25.0098 43.7772 25.1504 43.9178Z" fill="white"/>
<path d="M24.3008 44.5688C24.5762 44.8149 24.6055 44.8676 24.5176 44.9028C24.459 44.9204 24.4238 44.9731 24.4414 45.0141C24.4824 45.1254 24.3242 45.1664 24.1484 45.0961C23.914 45.0082 23.9199 45.0668 24.166 45.2368C24.4414 45.4184 25.9824 46.2739 26.0762 46.2914C26.1172 46.2973 26.1758 46.3442 26.2168 46.3969C26.2578 46.4497 26.3574 46.4789 26.4687 46.4731C26.6094 46.4614 26.6387 46.4789 26.5859 46.5375C26.539 46.5903 26.5508 46.6196 26.6152 46.6489C26.668 46.6664 26.6914 46.7133 26.668 46.7485C26.6445 46.7954 26.6504 46.8012 26.6973 46.7778C26.7441 46.7485 26.75 46.7075 26.709 46.6606C26.668 46.6137 26.6797 46.5903 26.7617 46.5903C26.8203 46.5903 26.8555 46.6137 26.8437 46.6372C26.8262 46.6606 26.8555 46.684 26.9082 46.684C26.9609 46.684 27.0723 46.7309 27.1543 46.7836C27.2422 46.8422 27.2949 46.8598 27.2773 46.8247C27.2539 46.7895 27.2715 46.7602 27.3183 46.7602C27.3652 46.7602 27.3887 46.7836 27.3711 46.8129C27.3535 46.8364 27.3711 46.8598 27.4004 46.8598C27.4355 46.8598 27.4648 46.8305 27.4648 46.8012C27.4648 46.7661 27.4941 46.7426 27.5293 46.7426C27.5586 46.7426 27.5703 46.7661 27.5527 46.8012C27.5293 46.8422 27.5644 46.8422 27.664 46.8012C27.8164 46.7426 27.916 46.8071 27.8457 46.9184C27.8281 46.9477 27.8398 46.977 27.8691 46.977C27.9805 46.977 27.9394 46.8247 27.7988 46.6957C27.7109 46.6137 27.6172 46.5786 27.5234 46.602C27.4062 46.6196 27.4004 46.6196 27.4883 46.5786C27.582 46.5375 27.5586 46.5024 27.2832 46.3032C27.1074 46.1801 26.9433 46.0571 26.914 46.0278C26.8437 45.9692 27.1308 46.0512 27.4297 46.1801C27.5527 46.2329 27.6758 46.2563 27.7051 46.2387C27.7344 46.2211 27.7519 46.2329 27.7461 46.268C27.7344 46.3032 27.8398 46.3969 27.9746 46.4789C28.1562 46.5903 28.2148 46.6079 28.1914 46.5434C28.1738 46.4907 28.1387 46.4614 28.1152 46.4731C28.0976 46.4848 28.0273 46.4614 27.9629 46.4145C27.9043 46.3676 27.8808 46.3325 27.916 46.3325C27.957 46.3325 27.998 46.3559 28.0215 46.3852C28.0508 46.4438 28.1504 46.4379 28.373 46.3618C28.4551 46.3383 28.4433 46.35 28.3437 46.4145C28.2031 46.4965 28.2031 46.5141 28.3379 46.5317C28.3672 46.5317 28.414 46.5551 28.4375 46.5786C28.4609 46.6079 28.5195 46.6254 28.5723 46.6254C28.625 46.6254 28.6426 46.6079 28.6074 46.5786C28.5781 46.5551 28.543 46.4848 28.5312 46.4204C28.5137 46.3207 28.5371 46.3325 28.6601 46.4731C28.7539 46.5786 28.8125 46.6137 28.8125 46.5551C28.8125 46.5082 28.8476 46.4262 28.8887 46.3676C28.959 46.2739 28.9707 46.268 29.0469 46.3618C29.0879 46.4145 29.0996 46.4497 29.0703 46.4438C28.9648 46.4262 28.8711 46.4497 28.8711 46.5024C28.8711 46.5317 28.9355 46.5668 29.0176 46.5786C29.0937 46.5961 29.1465 46.5844 29.1289 46.561C29.1113 46.5317 29.1699 46.5141 29.2519 46.52C29.4043 46.5317 29.4394 46.6899 29.293 46.7192C29.2519 46.725 29.2461 46.7192 29.2812 46.7016C29.3105 46.6899 29.3223 46.6489 29.3047 46.6137C29.2871 46.5844 29.2285 46.6137 29.1816 46.6782C29.1348 46.7485 29.0703 46.7836 29.0351 46.7661C28.9941 46.7368 28.9883 46.7543 29.0176 46.8012C29.0527 46.8598 29.041 46.8715 28.9707 46.8422C28.9062 46.8188 28.8711 46.8364 28.8711 46.895C28.8711 46.9477 28.8418 46.9653 28.8008 46.9418C28.7598 46.9184 28.7539 46.9243 28.7773 46.9653C28.8008 47.0004 28.8594 47.0122 28.9121 46.9946C28.9824 46.9653 28.9941 46.977 28.959 47.0356C28.9297 47.0883 28.9355 47.1 28.9824 47.0707C29.0176 47.0473 29.0351 47.0004 29.0176 46.9711C28.9941 46.9418 29.0058 46.9184 29.0351 46.9184C29.1289 46.9184 29.164 46.9946 29.1055 47.0649C29.0644 47.1176 29.0762 47.1645 29.1465 47.2172C29.2402 47.2934 29.2461 47.2875 29.1699 47.1938C29.0996 47.1059 29.1055 47.0942 29.1875 47.0942C29.2461 47.0942 29.2695 47.0649 29.2519 47.0356C29.2344 47.0004 29.2754 46.9477 29.3515 46.9184L29.4863 46.8598L29.3398 46.8774C29.2578 46.8832 29.1933 46.8598 29.1875 46.8305C29.1816 46.7602 29.3984 46.7895 29.4922 46.8657C29.5273 46.895 29.5683 46.9008 29.5918 46.8832C29.6094 46.8657 29.6738 46.8774 29.7324 46.9125C29.7969 46.9477 29.8086 46.977 29.7617 46.977C29.7207 46.977 29.6973 47.0004 29.7148 47.0297C29.7324 47.0532 29.6914 47.0766 29.6152 47.0707C29.5449 47.0707 29.4922 47.0942 29.498 47.1293C29.5039 47.1704 29.4687 47.1879 29.4043 47.1704C29.3398 47.1528 29.2988 47.1762 29.2988 47.2348C29.2988 47.311 29.3164 47.311 29.3926 47.2524C29.4629 47.1938 29.4746 47.1997 29.4394 47.2817C29.4219 47.3403 29.4277 47.3989 29.4629 47.4164C29.4922 47.4399 29.5156 47.434 29.5098 47.4047C29.4746 47.1997 29.668 47.1059 29.8789 47.2172C30.0019 47.2817 30.0078 47.2817 29.9316 47.1938C29.8789 47.1235 29.873 47.0942 29.9199 47.0942C29.9609 47.0942 29.9726 47.0649 29.9492 47.018C29.9199 46.977 29.9492 46.9829 30.0137 47.0356C30.0723 47.0825 30.1308 47.1176 30.1426 47.1059C30.1484 47.1 30.1777 47.0942 30.207 47.0942C30.2305 47.0942 30.1719 47.1645 30.0723 47.2524C29.9785 47.3344 29.9375 47.3872 29.9902 47.3696C30.043 47.352 30.1191 47.3696 30.1601 47.4047C30.2187 47.4575 30.2246 47.4575 30.1953 47.3989C30.1719 47.3637 30.1836 47.3286 30.2129 47.3286C30.248 47.3286 30.2773 47.3579 30.2773 47.3872C30.2773 47.4282 30.3125 47.4282 30.3828 47.3989C30.5586 47.3051 30.8164 47.2582 30.7754 47.3286C30.7519 47.3637 30.8105 47.4047 30.916 47.4223C31.0156 47.4457 31.0976 47.4868 31.0976 47.5161C31.0976 47.5454 31.039 47.5512 30.9687 47.5336C30.8633 47.5043 30.8515 47.5102 30.9219 47.5571C30.9687 47.5922 31.0801 47.6039 31.168 47.5864C31.25 47.5688 31.3379 47.5864 31.3613 47.6157C31.3789 47.6508 31.4492 47.6801 31.5137 47.6801C31.5898 47.6801 31.625 47.7211 31.625 47.8032C31.625 47.9086 31.6015 47.9204 31.4668 47.8911C31.1738 47.8207 30.8926 47.7856 30.9219 47.8149C30.9512 47.8442 31.1738 47.8911 31.3613 47.9086C31.3965 47.9145 31.3789 47.9379 31.332 47.9731C31.2734 48.0082 31.3086 48.02 31.4609 48.0141C31.5781 48.0082 31.6601 47.9848 31.6484 47.9614C31.6367 47.9379 31.6484 47.9086 31.6777 47.8911C31.748 47.8442 31.9238 47.9145 31.8887 47.9672C31.8769 47.9907 31.9004 48.0141 31.9473 48.0141C31.9941 48.0141 32.2754 48.1254 32.5625 48.2661C32.8555 48.4008 33.1074 48.5004 33.125 48.4829C33.1426 48.4653 33.0078 48.3422 32.8262 48.2075C32.6445 48.0727 32.5039 47.9497 32.5215 47.9379C32.5332 47.9262 32.8203 48.0434 33.1543 48.1957C33.4883 48.3539 33.9629 48.5532 34.209 48.6411C34.6777 48.8051 35.2695 49.1391 35.9023 49.5903C36.1133 49.7368 36.2246 49.8012 36.1484 49.7368C36.0723 49.6723 36.0254 49.5903 36.043 49.561C36.1601 49.3735 32.5332 46.7075 31.2734 46.0571C31.1269 45.9809 30.875 45.9106 30.7109 45.9047C30.5527 45.893 30.3945 45.8754 30.3652 45.8579C30.3301 45.8403 30.248 45.8344 30.1777 45.8403C30.1015 45.8403 30.043 45.8286 30.043 45.811C30.043 45.7875 29.9726 45.7641 29.8848 45.7582C29.7969 45.7524 29.5098 45.6821 29.2461 45.6C28.6953 45.4301 28.4726 45.4184 28.4258 45.5414C28.4023 45.5883 28.3437 45.6293 28.291 45.6293C28.2148 45.6293 28.209 45.6411 28.2851 45.6821C28.332 45.7172 28.3906 45.7231 28.4258 45.7055C28.4551 45.6879 28.4609 45.6997 28.4375 45.7348C28.4199 45.77 28.5019 45.8696 28.6367 45.9633C28.8711 46.1274 28.9238 46.2329 28.8125 46.3032C28.7773 46.3266 28.7656 46.3676 28.7832 46.3969C28.8066 46.4262 28.7949 46.4497 28.7598 46.4497C28.7305 46.4497 28.6953 46.4204 28.6836 46.3852C28.6543 46.2973 27.6172 46.0219 27.5937 46.0981C27.582 46.1332 27.5469 46.1567 27.5176 46.1567C27.4824 46.1567 27.4707 46.1332 27.4883 46.1039C27.5058 46.0747 27.4883 46.0512 27.4473 46.0571C27.2715 46.0629 27.1543 46.0336 27.1894 45.9985C27.2422 45.9516 27.0137 45.811 26.2051 45.395C25.8535 45.2075 25.2558 44.9028 24.8867 44.7094C23.9902 44.2465 23.9199 44.2289 24.3008 44.5688ZM30.4531 47.2114C30.5469 47.27 30.5293 47.2758 30.2656 47.2934C30.1426 47.3051 30.1191 47.2875 30.1719 47.2289C30.2422 47.1411 30.3301 47.1352 30.4531 47.2114Z" fill="white"/>
<path d="M23.2754 45.043C23.3223 45.1191 23.8965 45.4531 23.9785 45.4531C24.0664 45.4473 23.8379 45.2891 23.5156 45.125C23.3633 45.043 23.252 45.0078 23.2754 45.043Z" fill="white"/>
<path d="M25.1797 46.4197C25.1797 46.4256 25.2851 46.5017 25.414 46.5896C25.7656 46.824 25.6953 46.8943 25.3144 46.6892C25.1328 46.5896 24.9687 46.5193 24.957 46.5369C24.9101 46.5779 25.3027 46.9177 25.3613 46.8826C25.3906 46.865 25.414 46.8767 25.414 46.906C25.414 46.9353 25.4843 47.0056 25.5664 47.0642C25.6718 47.1345 25.707 47.1404 25.6777 47.0877C25.6543 47.0408 25.6894 47.0584 25.748 47.1228C25.8066 47.1931 25.9004 47.281 25.9531 47.322C26.0351 47.3865 26.0468 47.3748 26.0175 47.2635C25.9941 47.1931 26.0058 47.1463 26.0351 47.1638C26.123 47.2166 26.3633 47.0994 26.3164 47.0232C26.2871 46.9763 26.3047 46.9705 26.375 46.9939C26.4336 47.0174 26.4922 47.0349 26.5097 47.0349C26.5273 47.0349 26.5039 47.076 26.4629 47.1345C26.3867 47.2224 26.3925 47.2224 26.5156 47.1463C26.6386 47.0701 26.6972 46.9646 26.6035 46.9881C26.5097 47.0115 26.2929 46.906 26.3222 46.8533C26.3457 46.824 26.334 46.8006 26.2988 46.8006C26.2695 46.8006 26.2343 46.8592 26.2226 46.9295C26.205 47.076 25.959 47.1345 25.959 46.9939C25.959 46.9412 25.9824 46.9353 26.0234 46.9763C26.1054 47.0584 26.1582 47.0525 26.1582 46.947C26.1582 46.8943 26.0996 46.8592 26.0058 46.8533C25.9062 46.8474 25.8886 46.8357 25.959 46.8181C26.0117 46.8064 26.0586 46.7654 26.0586 46.7361C26.0586 46.701 26.0117 46.7068 25.9414 46.742C25.8476 46.7947 25.8125 46.7888 25.7832 46.7127C25.7539 46.6365 25.7422 46.6306 25.7011 46.6951C25.6601 46.7537 25.6484 46.7478 25.6484 46.6658C25.6484 46.6072 25.625 46.5779 25.5898 46.5955C25.5605 46.6131 25.5312 46.6072 25.5312 46.5838C25.5312 46.5545 25.455 46.5017 25.3554 46.4666C25.2617 46.4314 25.1797 46.408 25.1797 46.4197ZM25.8242 46.865C25.8242 46.9002 25.8008 46.906 25.7656 46.8885C25.7363 46.8709 25.707 46.824 25.707 46.7947C25.707 46.7595 25.7363 46.7537 25.7656 46.7713C25.8008 46.7888 25.8242 46.8357 25.8242 46.865Z" fill="white"/>
<path d="M28.5957 46.771C28.5957 46.8355 28.6191 46.8413 28.6777 46.7944C28.7188 46.7593 28.7539 46.7183 28.7539 46.7066C28.7539 46.6948 28.7188 46.6831 28.6777 46.6831C28.6309 46.6831 28.5957 46.7241 28.5957 46.771Z" fill="white"/>
<path d="M26.8672 46.7832C26.9023 46.7949 26.9726 46.7949 27.0136 46.7832C27.0488 46.7656 27.0195 46.7539 26.9375 46.7539C26.8554 46.7539 26.8261 46.7656 26.8672 46.7832Z" fill="white"/>
<path d="M29.375 46.9763C29.3106 46.9938 29.2871 47.029 29.3164 47.0524C29.375 47.0876 29.5625 46.9997 29.5156 46.9587C29.4981 46.9411 29.4336 46.9528 29.375 46.9763Z" fill="white"/>
<path d="M29.7148 47.2515C29.7383 47.2983 29.7266 47.3276 29.6738 47.3276C29.6328 47.3276 29.5918 47.3687 29.5918 47.4155C29.5918 47.48 29.6152 47.4858 29.668 47.439C29.709 47.4038 29.7734 47.3921 29.8086 47.4155C29.9082 47.4741 29.873 47.3511 29.7676 47.2632C29.7031 47.2046 29.6855 47.2046 29.7148 47.2515Z" fill="white"/>
<path d="M29.9199 47.457C29.873 47.627 29.8906 47.6562 30.0488 47.6328C30.1484 47.6152 30.2187 47.6328 30.2187 47.6738C30.2187 47.709 30.2773 47.7324 30.3535 47.7324C30.4472 47.7266 30.459 47.7207 30.3828 47.6973C30.3242 47.6855 30.2773 47.6445 30.2773 47.6152C30.2773 47.5859 30.1894 47.5625 30.0898 47.5566C29.9258 47.5566 29.914 47.5449 30.0136 47.5039C30.1133 47.4629 30.1133 47.4512 30.0312 47.4512C29.9726 47.4453 29.9258 47.4512 29.9199 47.457Z" fill="white"/>
<path d="M30.6875 47.5569C30.6113 47.7093 30.6113 47.7386 30.7051 47.7034C30.7461 47.6917 30.7812 47.6273 30.7871 47.5628C30.7988 47.4163 30.7695 47.4163 30.6875 47.5569Z" fill="white"/>
<path d="M31.6074 48.1721C31.5898 48.2131 31.6074 48.2834 31.6426 48.3186C31.6895 48.3655 31.6602 48.383 31.5312 48.383C31.4258 48.383 31.3496 48.4123 31.3496 48.4592C31.3496 48.5002 31.3965 48.5354 31.4551 48.5354C31.5137 48.5354 31.543 48.5119 31.5312 48.4885C31.5137 48.4651 31.5254 48.4416 31.5547 48.4416C31.584 48.4416 31.625 48.4944 31.6426 48.5647C31.666 48.6467 31.7012 48.6701 31.7539 48.6408C31.8184 48.6057 31.8184 48.6115 31.7539 48.6877C31.6895 48.7698 31.7129 48.799 31.9004 48.9162C32.0234 48.9924 32.1465 49.051 32.1699 49.0393C32.1992 49.0334 32.2051 49.051 32.1875 49.0803C32.1523 49.133 32.8027 49.6487 33.3242 49.9768C33.6406 50.176 34.291 50.4865 34.8887 50.7209C35.0586 50.7854 35.3633 50.926 35.5625 51.0198C36.1367 51.301 35.7617 51.0256 34.9062 50.5451C34.2031 50.1408 33.0781 49.385 33.002 49.2561C32.8848 49.0686 33.1777 49.1389 33.459 49.3674L33.6465 49.5198L33.4414 49.303C33.166 49.0041 32.5859 48.553 32.5391 48.5998C32.5215 48.6174 32.5039 48.6057 32.5039 48.5647C32.5039 48.5237 32.4746 48.5119 32.4336 48.5354C32.3984 48.5588 32.3867 48.553 32.4043 48.5178C32.4277 48.4826 32.3516 48.4006 32.2344 48.3303C32 48.1897 31.9707 48.1838 31.9941 48.2717C32 48.3069 31.9707 48.3537 31.9238 48.3713C31.8652 48.3889 31.8594 48.3713 31.8945 48.3186C31.9297 48.2541 31.9121 48.26 31.8301 48.3244C31.7656 48.3772 31.7363 48.383 31.7656 48.3362C31.7891 48.2951 31.7715 48.2658 31.7187 48.2658C31.6602 48.2658 31.6426 48.2307 31.6602 48.178C31.6836 48.1311 31.6836 48.0901 31.666 48.0901C31.6484 48.0901 31.625 48.1252 31.6074 48.1721Z" fill="white"/>
<path d="M31.2851 48.2482C31.2148 48.26 31.168 48.301 31.1855 48.3303C31.209 48.3596 31.2617 48.3596 31.3262 48.3244C31.3847 48.2951 31.4551 48.2893 31.4785 48.3127C31.5078 48.3361 31.5078 48.3186 31.4844 48.2775C31.4609 48.2424 31.4375 48.2131 31.4316 48.2131C31.4258 48.2189 31.3613 48.2365 31.2851 48.2482Z" fill="white"/>
<path d="M64.5488 49.7014C64.543 49.7307 64.543 49.7834 64.5488 49.8069C64.5547 49.8362 64.5313 49.842 64.4961 49.8186C64.4609 49.801 64.4551 49.7542 64.4785 49.7131C64.4961 49.678 64.4316 49.7073 64.332 49.7834C64.0977 49.9475 64.0977 49.9827 64.3145 49.9534C64.4141 49.9417 64.4727 49.9534 64.4551 49.9827C64.4375 50.012 64.4785 50.0061 64.5488 49.9651C64.6191 49.9299 64.6602 49.8772 64.6426 49.8538C64.6309 49.8245 64.6602 49.8069 64.707 49.8127C64.7598 49.8127 64.8125 49.7776 64.8184 49.7249C64.8301 49.6545 64.7949 49.6311 64.6953 49.637C64.6191 49.637 64.5488 49.6663 64.5488 49.7014Z" fill="white"/>
<path d="M65.668 50.1175C65.0937 50.4397 65.0762 50.4573 65.3808 50.4983C65.6035 50.5335 65.6797 50.5159 65.9199 50.3636C66.125 50.2288 66.1953 50.1526 66.1836 50.0647C66.1543 49.8831 66.0781 49.889 65.668 50.1175Z" fill="white"/>
<path d="M33.8574 53.8732C33.8633 53.9435 35.7617 54.8692 36.3418 55.086C36.6348 55.1915 36.916 55.3028 36.9805 55.3263C37.0625 55.3614 37.0859 55.3556 37.0625 55.2911C37.0098 55.1153 35.5156 54.1896 34.9004 53.9493C34.6133 53.8321 33.8457 53.7794 33.8574 53.8732Z" fill="white"/>
<path d="M38.9492 53.8846C38.9492 53.9256 38.9258 53.9373 38.8906 53.9198C38.8613 53.9022 38.832 53.908 38.832 53.9373C38.832 53.9666 38.7441 54.0311 38.6445 54.0721C38.5391 54.1131 38.4219 54.1893 38.3867 54.2362C38.3516 54.283 38.293 54.3006 38.2578 54.2772C38.2168 54.2537 38.1875 54.2479 38.1875 54.2655C38.1875 54.283 38.2578 54.3358 38.3516 54.3826C38.4395 54.4295 38.6094 54.5584 38.7266 54.6698C38.8906 54.8162 38.9375 54.8983 38.9082 54.992C38.8906 55.0799 38.9023 55.1209 38.9551 55.1209C39.0195 55.1209 39.0195 55.1326 38.9551 55.1737C38.8906 55.2147 38.9316 55.244 39.1016 55.2909C39.8691 55.4901 40.0801 55.5369 40.1094 55.5076C40.127 55.4901 40.1035 55.4725 40.0566 55.4725C40.0098 55.4666 40.0391 55.4315 40.1152 55.3905C40.332 55.2733 40.3262 54.992 40.1035 54.7869C39.8809 54.576 39.5937 54.1307 39.5937 53.9959C39.5937 53.9373 39.5527 53.8905 39.4941 53.8905C39.4355 53.8905 39.2891 53.8729 39.1719 53.8553C39.0195 53.826 38.9492 53.8377 38.9492 53.8846Z" fill="white"/>
<path d="M35.4922 53.9317C35.4922 53.9844 36.8047 54.7051 36.8516 54.6758C36.8926 54.6465 36.8984 54.6641 36.8691 54.7109C36.834 54.7695 36.8457 54.7813 36.9219 54.752C36.9746 54.7285 37.0098 54.7344 36.9922 54.7637C36.9512 54.8281 37.4141 55.0801 37.4961 55.0274C37.5371 55.0039 37.543 55.0098 37.5195 55.0567C37.4844 55.1035 37.5312 55.1152 37.6719 55.0918C37.8066 55.0684 37.8418 55.0801 37.7773 55.1152C37.7305 55.1445 37.666 55.1621 37.6309 55.1445C37.4961 55.0859 37.7891 55.2676 38.627 55.7598C39.1133 56.0469 39.6172 56.3809 39.7578 56.5039C39.9863 56.6973 40.0039 56.7266 39.9219 56.8086C39.8457 56.8906 39.7871 56.8906 39.582 56.8379C39.4414 56.8027 39.3242 56.7793 39.3125 56.7852C39.3066 56.7969 39.623 56.9844 40.0156 57.2012C40.4141 57.418 40.8828 57.6817 41.0586 57.7813C41.2461 57.8809 41.3457 57.916 41.3047 57.8633C41.2402 57.7813 41.2461 57.7695 41.3457 57.7988C41.6094 57.8692 41.4453 57.6875 40.8828 57.2891C40.5605 57.0606 40.2969 56.8555 40.2969 56.8379C40.2969 56.8027 40.8652 56.8496 41.2051 56.9141C41.375 56.9434 41.375 56.9434 41.2637 56.8496C41.1992 56.7969 40.9121 56.6328 40.6191 56.4863C39.8105 56.082 38.3164 55.2442 37.9297 54.9863C37.7363 54.8574 37.5488 54.752 37.5078 54.752C37.4668 54.752 37.4375 54.7344 37.4434 54.7109C37.4609 54.6465 36.8926 54.1543 36.6641 54.0371C36.5176 53.9609 36.3242 53.9258 35.9727 53.9258C35.709 53.9199 35.4922 53.9258 35.4922 53.9317Z" fill="white"/>
<path d="M64.7949 54.5706C64.5195 54.7053 64.3144 54.8225 64.3437 54.8225C64.3789 54.8284 64.3437 54.8811 64.2676 54.9514C64.1973 55.0217 64.1445 55.0862 64.1562 55.0979C64.1914 55.1331 64.4375 55.051 64.414 55.01C64.4023 54.9924 64.4609 54.9749 64.543 54.969C64.7832 54.9573 65.4746 54.6233 65.5508 54.4768C65.5976 54.3889 65.5976 54.3596 65.5566 54.3831C65.5215 54.4065 65.4922 54.4006 65.4922 54.3713C65.4922 54.2659 65.2871 54.3245 64.7949 54.5706Z" fill="white"/>
<path d="M62.5332 55.0681C62.5098 55.1033 62.5039 55.1384 62.5215 55.156C62.5332 55.1736 62.5625 55.1443 62.5801 55.0916C62.6211 54.992 62.586 54.9744 62.5332 55.0681Z" fill="white"/>
<path d="M61.4902 56.2168C61.0801 56.3633 60.7461 56.4922 60.7578 56.498C60.7695 56.5098 60.8867 56.5273 61.0156 56.5391C61.1504 56.5508 61.3262 56.6094 61.4141 56.6621C61.5488 56.7559 61.5605 56.7559 61.5254 56.6621C61.4961 56.5801 61.5195 56.5742 61.6719 56.6035C61.7715 56.627 61.8711 56.6152 61.8887 56.5859C61.9062 56.5566 61.959 56.5449 62.0059 56.5684C62.0527 56.5859 62.0937 56.5684 62.0937 56.5273C62.0937 56.4746 62.1172 56.4746 62.1934 56.5332C62.2578 56.5918 62.2754 56.5918 62.2461 56.5391C62.2227 56.498 62.2402 56.4688 62.2988 56.4688C62.3516 56.4688 62.375 56.4395 62.3574 56.4102C62.3398 56.375 62.3457 56.3516 62.375 56.3516C62.4746 56.3516 62.5039 56.4277 62.4277 56.5156C62.3926 56.5625 62.4687 56.5273 62.6035 56.4336C62.8613 56.2578 62.9258 56.1582 62.7559 56.2109C62.6973 56.2227 62.709 56.2051 62.7852 56.1699C62.9785 56.0645 62.9434 56 62.6973 56C62.5742 56 62.4219 55.9883 62.3574 55.9766C62.293 55.9648 61.9004 56.0762 61.4902 56.2168Z" fill="white"/>
<path d="M62.5625 56.5328C62.5625 56.5621 62.5918 56.5738 62.6211 56.5562C62.6562 56.5386 62.6797 56.5093 62.6797 56.4917C62.6797 56.48 62.6562 56.4683 62.6211 56.4683C62.5918 56.4683 62.5625 56.4976 62.5625 56.5328Z" fill="white"/>
<path d="M62.2578 56.6857C62.2988 56.7033 62.3516 56.6974 62.3691 56.6798C62.3926 56.6622 62.3574 56.6447 62.293 56.6505C62.2285 56.6505 62.2109 56.6681 62.2578 56.6857Z" fill="white"/>
<path d="M61.8477 56.8435C61.7598 56.8904 61.6836 56.9197 61.6719 56.9197C61.6602 56.9139 61.6719 56.9314 61.6953 56.9607C61.7188 56.99 61.7715 56.9842 61.8184 56.949C61.8653 56.908 61.9121 56.8963 61.9297 56.9139C61.9473 56.9256 61.9766 56.9021 61.9942 56.8494C62.041 56.7439 62.041 56.7439 61.8477 56.8435Z" fill="white"/>
<path d="M61.1914 57.0075C61.1387 57.0368 61.1094 57.0896 61.1328 57.1189C61.1562 57.154 61.1914 57.154 61.2441 57.113C61.2851 57.0778 61.3437 57.0544 61.3672 57.0603C61.4726 57.0778 61.5664 57.0544 61.5664 57.0075C61.5664 56.9431 61.3086 56.9431 61.1914 57.0075Z" fill="white"/>
<path d="M45.3652 57.8454C45.2363 57.8922 45.0664 57.9274 44.9902 57.9274C44.914 57.9333 44.8144 57.9801 44.7734 58.0329C44.6972 58.1325 44.6914 58.1325 44.7265 58.0329C44.7676 57.9157 44.5801 57.8922 44.4687 58.0036C44.4219 58.0505 44.3984 58.0505 44.3984 58.0094C44.3984 57.9743 44.334 57.9626 44.2461 57.9801C44.1406 57.9977 44.1172 58.0212 44.1699 58.0563C44.2109 58.0797 44.2695 58.0856 44.293 58.0739C44.3164 58.0563 44.3398 58.068 44.3398 58.1032C44.3398 58.1325 44.3047 58.1676 44.2695 58.1852C44.2285 58.1969 44.2637 58.2087 44.3515 58.2028C44.4453 58.2028 44.5156 58.1794 44.5156 58.1501C44.5156 58.1266 44.539 58.109 44.5742 58.109C44.6035 58.109 44.6152 58.1501 44.5976 58.1969C44.5742 58.2497 44.4863 58.2848 44.3808 58.2848C44.0234 58.2848 44.2637 58.3317 44.8262 58.3669C45.2246 58.3962 45.3945 58.3903 45.3945 58.3434C45.3945 58.3083 45.4238 58.2965 45.4707 58.3258C45.5937 58.402 46.2793 58.402 46.2676 58.3258C46.25 58.1735 46.2793 58.1149 46.3555 58.1442C46.4023 58.1618 46.4551 58.1501 46.4726 58.1208C46.5254 58.0329 46.2148 58.0915 46.1035 58.1911C46.0156 58.2731 46.0039 58.2672 45.998 58.1501C45.9863 58.0505 45.998 58.0387 46.039 58.109C46.0859 58.1794 46.0976 58.1676 46.0976 58.0563C46.0976 57.945 46.0742 57.9274 45.9746 57.9508C45.8808 57.9743 45.8691 57.9684 45.9277 57.8981C45.9863 57.8278 45.9746 57.8278 45.834 57.8981C45.6406 57.9977 45.4765 57.9626 45.5762 57.8395C45.6113 57.7926 45.6347 57.7575 45.623 57.7633C45.6113 57.7692 45.4941 57.8044 45.3652 57.8454ZM45.4707 57.945C45.4883 57.9977 45.4355 58.0212 45.3183 58.027L45.1426 58.0329L45.2832 57.9567C45.3594 57.9157 45.4297 57.8805 45.4297 57.8747C45.4355 57.8747 45.4531 57.9098 45.4707 57.945ZM44.8906 58.238C44.873 58.2614 44.8027 58.2848 44.7324 58.2848C44.6445 58.2848 44.6269 58.2672 44.6797 58.238C44.7793 58.1735 44.9316 58.1735 44.8906 58.238Z" fill="white"/>
<path d="M47.0879 58.0448C47.1523 58.0858 47.1523 58.0975 47.0879 58.1268C47.0117 58.1561 47.0234 58.162 47.1933 58.1678C47.2988 58.1737 47.2402 58.0155 47.1289 58.0037C47.041 57.9979 47.0293 58.0096 47.0879 58.0448Z" fill="white"/>
<path d="M46.7715 58.1502C46.6778 58.2029 46.5781 58.2733 46.5547 58.3084C46.5254 58.3494 46.5078 58.3494 46.5078 58.3084C46.5078 58.2791 46.5371 58.2205 46.5781 58.1795C46.6309 58.1268 46.6133 58.1268 46.502 58.1795C46.209 58.3143 46.3262 58.3904 46.9121 58.4315C47.2227 58.4549 47.5215 58.4842 47.5801 58.4959C47.668 58.5076 47.6738 58.4959 47.627 58.4373C47.5918 58.3963 47.586 58.3436 47.6094 58.3201C47.6328 58.2967 47.627 58.2791 47.5918 58.285C47.5625 58.2908 47.4922 58.2967 47.4453 58.285C47.3809 58.2791 47.3867 58.2615 47.4746 58.2205C47.5742 58.1737 47.5684 58.1678 47.4453 58.2029C47.1758 58.2674 46.9824 58.2674 47.0176 58.2088C47.041 58.1678 47.0117 58.1619 46.9473 58.1912C46.8594 58.2205 46.8535 58.2147 46.918 58.1385C47.0059 58.0272 46.9942 58.033 46.7715 58.1502Z" fill="white"/>
<path d="M57.5234 58.133C57.5234 58.1447 57.5645 58.174 57.6172 58.1916C57.6641 58.2092 57.6875 58.2033 57.6699 58.1681C57.6348 58.1095 57.5234 58.0861 57.5234 58.133Z" fill="white"/>
<path d="M57.4063 58.2265C57.4063 58.2558 57.3711 58.2675 57.3242 58.2499C57.2774 58.2323 57.2246 58.244 57.2012 58.2792C57.1602 58.3554 57.3184 58.3554 57.4883 58.2909C57.5938 58.2499 57.5938 58.244 57.5059 58.2089C57.4531 58.1913 57.4063 58.1972 57.4063 58.2265Z" fill="white"/>
<path d="M56.8965 58.3262C56.9492 58.3379 57.0313 58.3379 57.0723 58.3262C57.1074 58.3086 57.0664 58.2969 56.9668 58.2969C56.8731 58.2969 56.8379 58.3086 56.8965 58.3262Z" fill="white"/>
<path d="M58.5312 58.643C58.2851 58.7016 57.6875 59.018 57.7402 59.0707C57.7637 59.0941 57.7871 59.1469 57.7871 59.182C57.7871 59.223 57.8398 59.2582 57.9043 59.2699C57.9687 59.2816 57.998 59.2699 57.9629 59.2406C57.9336 59.2172 57.8984 59.1527 57.8867 59.1059C57.8691 59.0473 57.9043 59.0531 57.998 59.1352C58.0683 59.1996 58.1094 59.2172 58.0801 59.1703C58.0449 59.1059 58.0566 59.0941 58.1328 59.1234C58.1914 59.1469 58.2207 59.141 58.1972 59.1059C58.1562 59.0414 58.332 59.0531 58.4433 59.1234C58.4785 59.1469 58.5312 59.1352 58.5547 59.1C58.584 59.0531 58.5722 59.0473 58.5195 59.0766C58.4726 59.1059 58.4551 59.1 58.4785 59.0648C58.5019 59.0297 58.5898 59.0121 58.6777 59.0238C58.8008 59.0414 58.8125 59.0355 58.7304 59.0004C58.6426 58.9594 58.6601 58.9418 58.8476 58.8832C59.041 58.8305 59.0586 58.8305 58.9765 58.8949C58.9179 58.9359 58.8711 58.9945 58.8711 59.018C58.8711 59.0414 58.9062 59.0297 58.9531 58.9945C58.9941 58.9594 59.0703 58.9418 59.1172 58.9594C59.1699 58.9828 59.2461 58.9535 59.2929 58.9066C59.3457 58.8539 59.4394 58.8305 59.5215 58.848C59.6387 58.8773 59.6445 58.8715 59.5742 58.8129C59.5039 58.7602 59.5215 58.7543 59.6562 58.766C59.75 58.7777 59.8379 58.7543 59.8496 58.7133C59.8789 58.6371 58.8183 58.5785 58.5312 58.643ZM59.2519 58.8715C59.2344 58.9008 59.1875 58.9301 59.1582 58.9301C59.123 58.9301 59.1172 58.9008 59.1347 58.8715C59.1523 58.8363 59.1992 58.8129 59.2285 58.8129C59.2637 58.8129 59.2695 58.8363 59.2519 58.8715Z" fill="white"/>
<path d="M57.5 59.0883C57.4765 59.1176 57.4355 59.1352 57.418 59.141C57.3945 59.141 57.2715 59.1879 57.1426 59.2465C56.9668 59.3227 56.9316 59.3578 56.9961 59.3988C57.043 59.4281 57.0957 59.4398 57.1133 59.4281C57.1367 59.4164 57.2715 59.3988 57.4238 59.393C57.6113 59.3813 57.6992 59.352 57.6992 59.2992C57.6992 59.2523 57.6699 59.2348 57.6289 59.2523C57.5879 59.2758 57.5996 59.2523 57.6523 59.2055C57.7578 59.1234 57.7344 59.0473 57.6113 59.0473C57.5762 59.0473 57.5234 59.0648 57.5 59.0883Z" fill="white"/>
<path d="M47.0762 59.7324C47.0586 59.7617 47.1348 59.7793 47.2461 59.7793C47.3574 59.7793 47.4453 59.7617 47.4453 59.7324C47.4453 59.709 47.3692 59.6914 47.2754 59.6914C47.1758 59.6914 47.0879 59.709 47.0762 59.7324Z" fill="white"/>
<path d="M46.8476 59.7967C46.9121 59.8377 46.9121 59.8553 46.8301 59.8904C46.7773 59.908 46.748 59.949 46.7715 59.9783C46.8242 60.0662 46.9648 59.99 46.9531 59.8787C46.9414 59.826 46.9004 59.7732 46.8535 59.7615C46.7891 59.7439 46.7832 59.7498 46.8476 59.7967Z" fill="white"/>
<path d="M45.7168 59.9843C45.6523 60.0136 45.6348 60.037 45.6816 60.037C45.7227 60.0429 45.8516 60.119 45.9629 60.2187C46.0684 60.3124 46.209 60.3944 46.2617 60.3944C46.3203 60.3944 46.3965 60.4237 46.4375 60.4648C46.4902 60.5175 46.5078 60.5116 46.5137 60.4179C46.5137 60.3593 46.5312 60.3417 46.5488 60.3769C46.5781 60.4589 46.7422 60.4823 46.7422 60.4062C46.7422 60.3476 46.5312 60.1542 46.332 60.037C46.1621 59.9374 45.8867 59.914 45.7168 59.9843Z" fill="white"/>
<path d="M55.748 60.084C55.6894 60.1367 55.6953 60.2188 55.7539 60.2188C55.7832 60.2188 55.8066 60.1777 55.8066 60.1309C55.8066 60.0312 55.8008 60.0254 55.748 60.084Z" fill="white"/>
<path d="M45.5703 60.1366C45.5703 60.1425 45.6172 60.1835 45.6699 60.2245C45.7227 60.2714 45.752 60.2773 45.7285 60.2362C45.7051 60.2011 45.7227 60.1601 45.7578 60.1425C45.7988 60.1249 45.7754 60.1191 45.7051 60.1191C45.6289 60.1249 45.5703 60.1308 45.5703 60.1366Z" fill="white"/>
<path d="M47.041 60.8398C46.8945 60.8809 46.7598 60.9043 46.7305 60.8867C46.707 60.8691 46.6836 60.8691 46.6836 60.8809C46.6836 60.9512 47.3867 61.4258 47.7207 61.5723L48.0957 61.748L49.2324 61.7305C49.8535 61.7188 50.3516 61.7305 50.334 61.7539C50.3223 61.7832 50.375 61.8008 50.457 61.8008C50.5391 61.8008 50.6094 61.7715 50.6094 61.7422C50.6094 61.6602 50.7734 61.6719 50.7969 61.7539C50.8145 61.7949 50.8379 61.7891 50.8613 61.7246C50.8848 61.6602 50.8672 61.625 50.8086 61.625C50.7617 61.625 50.7324 61.6016 50.7559 61.5723C50.7734 61.543 50.5273 61.4609 50.2168 61.3906C49.4609 61.2207 49.127 61.1152 48.7285 60.916C48.4414 60.7754 48.3418 60.7578 47.8496 60.7578C47.5449 60.7637 47.1816 60.7988 47.041 60.8398Z" fill="white"/>
</svg>
