<svg width="83" height="82" viewBox="0 0 83 82" fill="none" xmlns="http://www.w3.org/2000/svg">
<mask id="path-1-inside-1_991_4290" fill="white">
<path d="M36.5153 3.37235C36.6286 3.72653 36.5617 3.85053 36.2157 3.91141L35.9159 3.96034L36.0932 4.07953C36.2124 4.16556 36.2497 4.21948 36.2165 4.25269C36.1667 4.30252 35.5462 4.6037 35.182 4.76262C35.0871 4.80054 35.0315 4.93595 34.9987 5.18544L34.9409 5.55113L33.9491 6.5771C33.4042 7.14484 32.9496 7.6451 32.949 7.70267C32.9386 7.75869 32.7398 7.99168 32.4876 8.22108C32.2453 8.45203 31.9043 8.85004 31.7267 9.09599C31.4807 9.45609 31.3229 9.61385 30.996 9.8267C30.6873 10.0328 30.5088 10.2113 30.2721 10.5392C30.1029 10.7769 29.7639 11.2185 29.5184 11.521C29.2771 11.8194 29.0092 12.2241 28.9277 12.4083C28.8041 12.6915 28.7392 12.7678 28.5799 12.8244C28.3102 12.9117 27.635 13.5983 27.1963 14.2308C26.7343 14.8981 25.1059 16.4581 24.3161 16.997C23.8518 17.3131 23.6841 17.4693 23.395 17.8611C22.8401 18.6098 20.5903 20.9851 16.7884 24.8555L15.0602 26.6064L14.8585 26.5459L14.651 26.4796L14.6182 26.7291C14.588 26.9646 14.5231 27.0409 13.8563 27.6279C13.4614 27.9886 12.9866 28.3607 12.8014 28.4661C12.5145 28.6276 12.4081 28.7454 12.0769 29.2362C11.7981 29.6633 11.6268 29.8573 11.4624 29.942C11.107 30.1263 9.58528 31.7848 9.44296 32.1324C9.26428 32.5848 7.95294 33.7479 7.54523 33.8135C7.25112 33.8681 7.01347 34.0373 6.89092 34.2967C6.82964 34.4264 6.80163 34.4316 6.62847 34.3083C6.53048 34.2352 6.32566 34.155 6.18355 34.1374L5.91335 34.0997L5.78288 34.5837C5.67633 34.9753 5.61765 35.091 5.44643 35.1938C5.32814 35.2665 5.17142 35.4004 5.08424 35.4876C4.9986 35.5846 4.84139 35.6848 4.73244 35.7254C4.57318 35.782 4.5 35.8666 4.35254 36.1509C4.25284 36.3418 4.08152 36.6272 3.97147 36.7828C3.79394 37.0288 3.73687 37.0631 3.55535 37.0393C3.43711 37.0207 3.282 37.0732 3.17665 37.1671C3.02824 37.2927 3.00278 37.3752 3.03063 37.6438C3.08224 38.094 2.97629 38.3368 2.60268 38.6192C2.03451 39.0391 2.05371 39.0085 2.19621 39.2423C2.40918 39.5882 2.40602 39.6597 2.16683 39.8191C2.03763 39.9141 1.90787 40.0667 1.85385 40.2119C1.76606 40.448 1.7619 40.4521 1.42273 40.4036C1.24121 40.3798 1.01823 40.3063 0.927493 40.2488L0.765735 40.1368L0.842854 40.4132C0.908072 40.6445 0.88676 40.7228 0.749753 40.8598C0.596139 41.0135 0.595088 41.0373 0.734039 41.1265C1.23592 41.4457 1.40593 41.6406 1.72713 42.2773C2.03383 42.8829 2.06959 42.927 2.93159 43.8554C3.42971 44.3951 3.95269 45.0011 4.12214 45.2536C4.40769 45.6637 4.44916 45.7134 4.67679 45.8165C4.87331 45.9051 4.92878 45.9523 4.97849 46.085C5.02821 46.2178 5.08368 46.2649 5.24339 46.3333C5.39895 46.4058 5.48293 46.4815 5.60521 46.6785C5.73891 46.8869 5.82289 46.9626 6.12725 47.1258C6.78574 47.4937 6.98265 47.7985 7.12218 48.6854C7.17334 49.0106 7.28772 49.4322 7.36904 49.6131L7.52289 49.9496L7.93094 50.1916C8.15752 50.3186 8.74803 50.743 9.2395 51.1182C9.79785 51.552 10.2106 51.8236 10.3262 51.8562C10.4361 51.8831 10.7644 51.954 11.0616 52.0103C11.3587 52.0667 11.6802 52.1557 11.771 52.2132C11.8757 52.2681 12.1826 52.5999 12.5615 53.0535C13.0518 53.6352 13.2871 53.8788 13.6567 54.182C14.086 54.5282 14.1332 54.5837 14.2051 54.7968C14.2672 55.0084 14.2958 55.0369 14.498 55.1312C14.7567 55.2488 16.0449 56.5037 16.3817 56.9651C16.4921 57.117 16.7056 57.4053 16.8533 57.6111C17.0052 57.8128 17.1394 58.0549 17.1507 58.1576C17.1714 58.3194 17.1843 58.3407 17.3622 58.4023C17.5458 58.4696 17.5758 58.508 17.811 59.0255C18.0923 59.6223 18.4877 60.2419 18.7842 60.5384C19.0009 60.755 20.108 61.1647 20.4477 61.1556C20.567 61.1504 20.8045 61.1637 20.9845 61.1776C21.263 61.207 21.3195 61.2303 21.3521 61.346C21.3687 61.4207 21.3178 61.5856 21.2368 61.7122C21.1117 61.8944 21.1075 61.9898 21.1955 62.2439C21.342 62.6561 21.725 63.2882 22.0505 63.6469C22.3019 63.9315 22.3174 63.9387 22.4663 63.8469C22.6111 63.7591 22.6422 63.7736 22.9351 64.0167C23.1114 64.1598 23.4644 64.3883 23.7206 64.5199C24.1478 64.7312 24.209 64.7841 24.4453 65.0952C24.762 65.5198 27.1392 67.8638 27.6748 68.2748C27.8837 68.4422 28.3337 68.8589 28.6773 69.2109C29.1978 69.7396 29.3528 69.8697 29.6499 70.0174C29.9584 70.1764 30.0024 70.2122 30.0853 70.403C30.1418 70.5176 30.3398 70.7986 30.5243 71.0246C30.8902 71.457 32.1219 72.5973 32.6388 72.9814C33.0846 73.311 33.3101 73.553 33.3836 73.776C33.4452 73.9539 33.4851 73.9938 33.8952 74.2794C34.3152 74.5665 34.3836 74.6349 34.9387 75.3228C35.5125 76.0377 35.527 76.0688 35.4719 76.238C35.4225 76.4128 35.494 76.5922 35.577 76.5092C35.5978 76.4884 35.6875 76.4785 35.772 76.4966C35.91 76.5183 35.9328 76.5411 36.0271 76.7433C36.1519 77.0176 36.4557 77.3297 36.7274 77.4685C36.8788 77.5452 36.9373 77.6121 37.0042 77.7619C37.0767 77.9175 37.1337 77.9745 37.3178 78.0755C37.506 78.1724 37.5589 78.2336 37.6371 78.3949C37.7055 78.5546 37.7853 78.6344 38.0393 78.8137C38.2166 78.9329 38.5718 79.205 38.8263 79.418C39.0808 79.631 39.4982 79.9321 39.7377 80.0803C39.9944 80.2456 40.3568 80.5333 40.5947 80.7629C40.8269 80.9868 41.1758 81.3108 41.3806 81.4824L41.7476 81.7996L42.1685 81.3901C42.4965 81.0621 42.6578 80.9578 42.9291 80.8803C43.2705 80.7899 43.3078 80.7525 45.6136 78.4582C48.3179 75.7652 48.3843 75.6988 48.4903 75.456C48.5391 75.3388 48.618 75.2599 48.7077 75.25C48.9095 75.2193 51.0694 73.0365 51.1059 72.8404C51.1168 72.7268 51.1973 72.6578 51.4063 72.5514C51.6476 72.4356 51.7016 72.3816 51.7795 72.144C51.8548 71.9204 51.9114 71.8524 52.0624 71.8041C52.2232 71.7573 52.2574 71.7003 52.2929 71.4368C52.3194 71.2391 52.3916 71.0871 52.5042 71.0087C52.6459 70.9013 52.7034 70.9007 52.9119 71.0344C53.1882 71.2028 53.3127 71.1696 53.3471 70.9299C53.3887 70.7058 56.666 67.3487 57.2721 66.9251C57.6571 66.6542 57.7303 66.5696 57.8316 66.2972C57.9141 66.0892 57.9884 65.9807 58.0781 65.9708C58.2757 65.9443 58.4989 65.7439 58.8487 65.28C59.0636 64.9967 59.3781 64.7051 59.8238 64.362C60.543 63.8024 60.9624 63.2918 61.1894 62.6885C61.2907 62.4161 61.3364 62.3704 61.4863 62.346C61.632 62.3257 62.0062 61.9857 63.1977 60.7942C64.4682 59.5238 64.7624 59.1953 64.9732 58.8248C65.1129 58.5825 65.2998 58.3044 65.3953 58.2089C65.5738 58.0304 66.0043 57.8963 66.3529 57.9127C66.5271 57.9209 66.5868 57.8727 66.8707 57.5089C67.0457 57.277 68.2336 56.032 69.5108 54.7434L71.8327 52.3987L71.795 52.1285L71.7557 51.8485L71.9683 51.8867C72.1753 51.9193 72.2043 51.8902 74.0829 50.0572C75.1281 49.0348 76.2314 47.9543 76.5319 47.6653C76.9445 47.2641 77.1168 47.0462 77.2295 46.7852C77.4669 46.2171 77.5608 46.1118 77.9021 46.0214C78.4562 45.8779 78.8033 45.6106 79.3167 44.9033C79.6182 44.4991 79.9457 44.1374 80.2342 43.8945C80.6198 43.566 80.6956 43.4674 80.7772 43.1919C80.8416 42.9906 80.9169 42.8583 81.0051 42.8386C81.0736 42.8157 81.2043 42.7306 81.2915 42.6434L81.4591 42.4872L80.9675 42.3858C80.6942 42.3284 80.3965 42.2383 80.3016 42.185C79.8951 41.9528 79.6251 41.55 79.5704 41.0801C79.5307 40.7663 79.6194 40.7803 79.8463 41.1235C80.3941 41.9785 81.05 42.2691 81.7291 41.9435C82.2479 41.6984 82.44 41.3922 82.3641 40.9094C82.2912 40.4463 82.0456 40.0761 81.3976 39.4696C80.9461 39.043 80.8382 38.9684 80.4597 38.8224C79.9287 38.6235 79.8561 38.5592 79.8957 38.2916C79.9659 37.9134 79.3533 37.226 77.6063 35.7115C76.3756 34.6386 75.9915 34.213 75.3884 33.2196C75.0028 32.6016 74.8551 32.3958 74.6592 32.2496C74.3424 32.0076 74.3625 32.1357 74.7103 32.5748C75.0809 33.0367 75.0274 33.1244 74.5909 32.7626C74.2467 32.4682 74.0109 32.1909 73.9617 32.0005C73.9425 31.9399 73.6704 31.676 73.265 31.3287C72.4159 30.6042 71.4082 29.6048 69.0771 27.1575C67.5522 25.5578 67.0633 25.0773 66.4133 24.5185C65.9737 24.137 65.4086 23.6301 65.1577 23.3792C64.8099 23.0314 64.6352 22.8982 64.4459 22.8252C64.196 22.733 64.1846 22.7216 63.9613 22.3405C63.7742 22.0372 63.557 21.7868 62.9111 21.1327L62.0958 20.3173L62.0207 19.9931C61.9483 19.655 61.7975 19.4295 61.7466 19.5945C61.7305 19.6448 61.7107 19.733 61.6946 19.7833C61.665 19.8699 61.5385 19.7683 60.4727 18.8271C60.1254 18.5129 60.031 18.402 59.9134 18.1433C59.7943 17.8747 59.7414 17.8135 59.405 17.5684C59.1763 17.3978 58.5056 16.7686 57.6202 15.8749L56.2061 14.4608L56.185 14.174C56.1717 13.8452 56.0287 13.6689 55.9015 13.8075C55.82 13.9004 55.7718 13.8688 54.8858 13.124C54.2047 12.5507 53.6251 12.0127 52.7382 11.1092C51.4236 9.778 47.5022 5.95617 47.2637 5.78411C47.187 5.72399 46.992 5.64527 46.8369 5.60646L46.5481 5.54179L46.5311 5.25083L46.51 4.96402L46.0777 4.5981C45.8345 4.39648 45.694 4.2975 45.7541 4.37422C45.976 4.65417 45.7883 4.591 45.4803 4.2831C45.3093 4.11204 45.1875 3.94873 45.2083 3.92797C45.2332 3.90306 45.2995 3.92792 45.3509 3.97923C45.6754 4.27054 44.9181 3.39703 44.3593 2.83823C43.4283 1.89896 42.6518 1.23863 42.28 1.07443C41.9378 0.914883 41.3481 0.831716 41.2526 0.927204C41.2194 0.960417 41.0477 0.93822 40.8797 0.878152C40.1952 0.650338 39.6152 0.842579 39.1958 1.44447C39.0224 1.68627 38.9778 1.70808 38.7304 1.69318C38.3269 1.66334 38.1837 1.76093 38.0424 2.17594C37.9307 2.50432 37.899 2.54739 37.7502 2.54799C37.6309 2.55325 37.524 2.63734 37.3641 2.84282C37.1518 3.11213 37.1295 3.12303 36.8422 3.06822C36.4662 2.99946 36.4164 3.04928 36.5153 3.37235ZM38.634 4.19579C38.68 4.45769 38.8172 4.99339 38.9482 5.39839C39.2935 6.43292 39.3157 6.69588 39.0831 7.01966C38.9715 7.16547 38.8889 7.3735 38.8909 7.50835C38.8929 7.73449 38.8887 7.73863 38.7804 7.6303C38.5637 7.41362 38.5292 6.98056 38.6996 6.4452C38.7838 6.15573 38.8416 5.88133 38.8198 5.83466C38.8079 5.78955 38.6644 5.57957 38.5068 5.37219C38.2876 5.07824 38.2208 4.92838 38.2048 4.70485C38.1796 4.33091 38.2513 4.0539 38.4242 3.86967L38.5653 3.72851L38.634 4.19579ZM9.53566 33.2714C9.58128 33.317 9.58382 33.3943 9.53815 33.4399C9.45512 33.523 9.36749 33.4851 9.35304 33.3628C9.32873 33.2388 9.45013 33.1858 9.53566 33.2714ZM41.8369 1.31224C41.9542 1.26342 41.9951 1.27947 42.1568 1.48269C42.4274 1.82797 42.4076 1.91615 42.0741 1.87329C41.6914 1.82269 41.3793 1.51893 41.6081 1.41558C41.6569 1.38962 41.7601 1.3434 41.8369 1.31224ZM36.0319 7.72162C36.0801 7.75323 36.0879 7.8025 36.0505 7.83987C36.0132 7.87723 35.9442 7.86638 35.8929 7.81506C35.7959 7.71813 35.9044 7.6439 36.0319 7.72162ZM8.43466 35.7408C8.50933 35.7574 8.60162 35.8248 8.63063 35.887C8.71561 36.0301 8.39177 36.3539 8.0826 36.435C7.77343 36.5161 7.71491 36.3579 7.98317 36.1695C8.09577 36.0911 8.19386 35.9816 8.19856 35.9199C8.20592 35.7529 8.2796 35.702 8.43466 35.7408ZM9.4543 49.2157C9.54553 49.3069 9.65177 49.4629 9.67557 49.5532C9.72424 49.7098 9.72008 49.7139 9.57543 49.6191C9.42663 49.5284 9.14208 49.1857 9.07371 49.026C9.03125 48.9088 9.26613 49.0275 9.4543 49.2157ZM20.2542 58.5209C20.3854 58.6521 20.3931 58.7926 20.2702 58.7445C20.153 58.702 20.0462 58.5122 20.1044 58.4541C20.1251 58.4334 20.1972 58.4639 20.2542 58.5209ZM74.5311 33.0847C74.6508 33.2045 74.6958 33.3989 74.617 33.4778C74.5422 33.5526 74.408 33.4017 74.3785 33.2145C74.346 33.0076 74.4056 32.9593 74.5311 33.0847ZM75.0712 44.4276C75.1412 44.4146 75.289 44.4378 75.4005 44.4746C75.5841 44.5419 75.6297 44.5875 75.9546 45.0951C76.4173 45.807 76.5443 46.0336 76.4944 46.0834C76.3616 46.2162 76.1141 46.2926 76.0457 46.2242C76.0058 46.1843 75.9006 46.0044 75.8209 45.8332C75.7033 45.5745 75.6188 45.4651 75.3202 45.2163C74.9988 44.9447 74.9558 44.8851 74.9263 44.6979C74.8891 44.4614 74.8974 44.4531 75.0712 44.4276ZM80.2098 39.4942L80.4246 39.4847L80.1194 39.7442C79.9114 39.9181 79.7972 40.0779 79.7519 40.2486C79.6667 40.5619 79.6018 40.6382 79.5724 40.451C79.4995 39.9878 79.8182 39.5095 80.2098 39.4942ZM73.1844 46.8503C73.3213 46.9872 73.3596 47.1085 73.3273 47.3004C73.3028 47.4504 73.2888 47.453 73.1292 47.2933C73.0265 47.1907 72.9644 47.0704 72.9758 46.9905C72.9925 46.7913 73.0761 46.742 73.1844 46.8503ZM74.854 45.979C74.9773 46.2435 75.0077 46.4981 74.919 46.4842C74.8444 46.4676 74.6937 46.0595 74.6881 45.8713C74.6923 45.6845 74.7405 45.7161 74.854 45.979ZM64.2699 57.9886C64.4036 58.1971 64.5154 58.5414 64.4671 58.6011C64.3857 58.6939 64.2281 58.4866 64.1551 58.206C64.0786 57.872 64.1305 57.7745 64.2699 57.9886ZM71.2222 51.5723C71.3252 51.8 71.2665 52.007 71.1083 51.9484C71.0207 51.9106 70.8198 51.3361 70.8562 51.2313C70.905 51.114 71.103 51.3037 71.2222 51.5723ZM60.5012 61.7345C60.5909 61.7246 60.6194 61.7531 60.6334 61.8418C60.6473 61.9305 60.6183 61.9596 60.5156 61.9482C60.2879 61.9364 60.2724 61.7466 60.5012 61.7345ZM81.8766 40.7126C82.0715 40.9739 82.1003 41.4012 81.9121 41.2131C81.8437 41.1447 81.6667 40.569 81.704 40.5317C81.7165 40.5192 81.7963 40.5991 81.8766 40.7126ZM68.1706 54.6239C68.2504 54.795 68.2208 54.8816 68.1036 54.8391C68.016 54.8013 67.9689 54.6546 68.0094 54.5456C68.0567 54.4185 68.0878 54.433 68.1706 54.6239Z"/>
</mask>
<path d="M36.5153 3.37235C36.6286 3.72653 36.5617 3.85053 36.2157 3.91141L35.9159 3.96034L36.0932 4.07953C36.2124 4.16556 36.2497 4.21948 36.2165 4.25269C36.1667 4.30252 35.5462 4.6037 35.182 4.76262C35.0871 4.80054 35.0315 4.93595 34.9987 5.18544L34.9409 5.55113L33.9491 6.5771C33.4042 7.14484 32.9496 7.6451 32.949 7.70267C32.9386 7.75869 32.7398 7.99168 32.4876 8.22108C32.2453 8.45203 31.9043 8.85004 31.7267 9.09599C31.4807 9.45609 31.3229 9.61385 30.996 9.8267C30.6873 10.0328 30.5088 10.2113 30.2721 10.5392C30.1029 10.7769 29.7639 11.2185 29.5184 11.521C29.2771 11.8194 29.0092 12.2241 28.9277 12.4083C28.8041 12.6915 28.7392 12.7678 28.5799 12.8244C28.3102 12.9117 27.635 13.5983 27.1963 14.2308C26.7343 14.8981 25.1059 16.4581 24.3161 16.997C23.8518 17.3131 23.6841 17.4693 23.395 17.8611C22.8401 18.6098 20.5903 20.9851 16.7884 24.8555L15.0602 26.6064L14.8585 26.5459L14.651 26.4796L14.6182 26.7291C14.588 26.9646 14.5231 27.0409 13.8563 27.6279C13.4614 27.9886 12.9866 28.3607 12.8014 28.4661C12.5145 28.6276 12.4081 28.7454 12.0769 29.2362C11.7981 29.6633 11.6268 29.8573 11.4624 29.942C11.107 30.1263 9.58528 31.7848 9.44296 32.1324C9.26428 32.5848 7.95294 33.7479 7.54523 33.8135C7.25112 33.8681 7.01347 34.0373 6.89092 34.2967C6.82964 34.4264 6.80163 34.4316 6.62847 34.3083C6.53048 34.2352 6.32566 34.155 6.18355 34.1374L5.91335 34.0997L5.78288 34.5837C5.67633 34.9753 5.61765 35.091 5.44643 35.1938C5.32814 35.2665 5.17142 35.4004 5.08424 35.4876C4.9986 35.5846 4.84139 35.6848 4.73244 35.7254C4.57318 35.782 4.5 35.8666 4.35254 36.1509C4.25284 36.3418 4.08152 36.6272 3.97147 36.7828C3.79394 37.0288 3.73687 37.0631 3.55535 37.0393C3.43711 37.0207 3.282 37.0732 3.17665 37.1671C3.02824 37.2927 3.00278 37.3752 3.03063 37.6438C3.08224 38.094 2.97629 38.3368 2.60268 38.6192C2.03451 39.0391 2.05371 39.0085 2.19621 39.2423C2.40918 39.5882 2.40602 39.6597 2.16683 39.8191C2.03763 39.9141 1.90787 40.0667 1.85385 40.2119C1.76606 40.448 1.7619 40.4521 1.42273 40.4036C1.24121 40.3798 1.01823 40.3063 0.927493 40.2488L0.765735 40.1368L0.842854 40.4132C0.908072 40.6445 0.88676 40.7228 0.749753 40.8598C0.596139 41.0135 0.595088 41.0373 0.734039 41.1265C1.23592 41.4457 1.40593 41.6406 1.72713 42.2773C2.03383 42.8829 2.06959 42.927 2.93159 43.8554C3.42971 44.3951 3.95269 45.0011 4.12214 45.2536C4.40769 45.6637 4.44916 45.7134 4.67679 45.8165C4.87331 45.9051 4.92878 45.9523 4.97849 46.085C5.02821 46.2178 5.08368 46.2649 5.24339 46.3333C5.39895 46.4058 5.48293 46.4815 5.60521 46.6785C5.73891 46.8869 5.82289 46.9626 6.12725 47.1258C6.78574 47.4937 6.98265 47.7985 7.12218 48.6854C7.17334 49.0106 7.28772 49.4322 7.36904 49.6131L7.52289 49.9496L7.93094 50.1916C8.15752 50.3186 8.74803 50.743 9.2395 51.1182C9.79785 51.552 10.2106 51.8236 10.3262 51.8562C10.4361 51.8831 10.7644 51.954 11.0616 52.0103C11.3587 52.0667 11.6802 52.1557 11.771 52.2132C11.8757 52.2681 12.1826 52.5999 12.5615 53.0535C13.0518 53.6352 13.2871 53.8788 13.6567 54.182C14.086 54.5282 14.1332 54.5837 14.2051 54.7968C14.2672 55.0084 14.2958 55.0369 14.498 55.1312C14.7567 55.2488 16.0449 56.5037 16.3817 56.9651C16.4921 57.117 16.7056 57.4053 16.8533 57.6111C17.0052 57.8128 17.1394 58.0549 17.1507 58.1576C17.1714 58.3194 17.1843 58.3407 17.3622 58.4023C17.5458 58.4696 17.5758 58.508 17.811 59.0255C18.0923 59.6223 18.4877 60.2419 18.7842 60.5384C19.0009 60.755 20.108 61.1647 20.4477 61.1556C20.567 61.1504 20.8045 61.1637 20.9845 61.1776C21.263 61.207 21.3195 61.2303 21.3521 61.346C21.3687 61.4207 21.3178 61.5856 21.2368 61.7122C21.1117 61.8944 21.1075 61.9898 21.1955 62.2439C21.342 62.6561 21.725 63.2882 22.0505 63.6469C22.3019 63.9315 22.3174 63.9387 22.4663 63.8469C22.6111 63.7591 22.6422 63.7736 22.9351 64.0167C23.1114 64.1598 23.4644 64.3883 23.7206 64.5199C24.1478 64.7312 24.209 64.7841 24.4453 65.0952C24.762 65.5198 27.1392 67.8638 27.6748 68.2748C27.8837 68.4422 28.3337 68.8589 28.6773 69.2109C29.1978 69.7396 29.3528 69.8697 29.6499 70.0174C29.9584 70.1764 30.0024 70.2122 30.0853 70.403C30.1418 70.5176 30.3398 70.7986 30.5243 71.0246C30.8902 71.457 32.1219 72.5973 32.6388 72.9814C33.0846 73.311 33.3101 73.553 33.3836 73.776C33.4452 73.9539 33.4851 73.9938 33.8952 74.2794C34.3152 74.5665 34.3836 74.6349 34.9387 75.3228C35.5125 76.0377 35.527 76.0688 35.4719 76.238C35.4225 76.4128 35.494 76.5922 35.577 76.5092C35.5978 76.4884 35.6875 76.4785 35.772 76.4966C35.91 76.5183 35.9328 76.5411 36.0271 76.7433C36.1519 77.0176 36.4557 77.3297 36.7274 77.4685C36.8788 77.5452 36.9373 77.6121 37.0042 77.7619C37.0767 77.9175 37.1337 77.9745 37.3178 78.0755C37.506 78.1724 37.5589 78.2336 37.6371 78.3949C37.7055 78.5546 37.7853 78.6344 38.0393 78.8137C38.2166 78.9329 38.5718 79.205 38.8263 79.418C39.0808 79.631 39.4982 79.9321 39.7377 80.0803C39.9944 80.2456 40.3568 80.5333 40.5947 80.7629C40.8269 80.9868 41.1758 81.3108 41.3806 81.4824L41.7476 81.7996L42.1685 81.3901C42.4965 81.0621 42.6578 80.9578 42.9291 80.8803C43.2705 80.7899 43.3078 80.7525 45.6136 78.4582C48.3179 75.7652 48.3843 75.6988 48.4903 75.456C48.5391 75.3388 48.618 75.2599 48.7077 75.25C48.9095 75.2193 51.0694 73.0365 51.1059 72.8404C51.1168 72.7268 51.1973 72.6578 51.4063 72.5514C51.6476 72.4356 51.7016 72.3816 51.7795 72.144C51.8548 71.9204 51.9114 71.8524 52.0624 71.8041C52.2232 71.7573 52.2574 71.7003 52.2929 71.4368C52.3194 71.2391 52.3916 71.0871 52.5042 71.0087C52.6459 70.9013 52.7034 70.9007 52.9119 71.0344C53.1882 71.2028 53.3127 71.1696 53.3471 70.9299C53.3887 70.7058 56.666 67.3487 57.2721 66.9251C57.6571 66.6542 57.7303 66.5696 57.8316 66.2972C57.9141 66.0892 57.9884 65.9807 58.0781 65.9708C58.2757 65.9443 58.4989 65.7439 58.8487 65.28C59.0636 64.9967 59.3781 64.7051 59.8238 64.362C60.543 63.8024 60.9624 63.2918 61.1894 62.6885C61.2907 62.4161 61.3364 62.3704 61.4863 62.346C61.632 62.3257 62.0062 61.9857 63.1977 60.7942C64.4682 59.5238 64.7624 59.1953 64.9732 58.8248C65.1129 58.5825 65.2998 58.3044 65.3953 58.2089C65.5738 58.0304 66.0043 57.8963 66.3529 57.9127C66.5271 57.9209 66.5868 57.8727 66.8707 57.5089C67.0457 57.277 68.2336 56.032 69.5108 54.7434L71.8327 52.3987L71.795 52.1285L71.7557 51.8485L71.9683 51.8867C72.1753 51.9193 72.2043 51.8902 74.0829 50.0572C75.1281 49.0348 76.2314 47.9543 76.5319 47.6653C76.9445 47.2641 77.1168 47.0462 77.2295 46.7852C77.4669 46.2171 77.5608 46.1118 77.9021 46.0214C78.4562 45.8779 78.8033 45.6106 79.3167 44.9033C79.6182 44.4991 79.9457 44.1374 80.2342 43.8945C80.6198 43.566 80.6956 43.4674 80.7772 43.1919C80.8416 42.9906 80.9169 42.8583 81.0051 42.8386C81.0736 42.8157 81.2043 42.7306 81.2915 42.6434L81.4591 42.4872L80.9675 42.3858C80.6942 42.3284 80.3965 42.2383 80.3016 42.185C79.8951 41.9528 79.6251 41.55 79.5704 41.0801C79.5307 40.7663 79.6194 40.7803 79.8463 41.1235C80.3941 41.9785 81.05 42.2691 81.7291 41.9435C82.2479 41.6984 82.44 41.3922 82.3641 40.9094C82.2912 40.4463 82.0456 40.0761 81.3976 39.4696C80.9461 39.043 80.8382 38.9684 80.4597 38.8224C79.9287 38.6235 79.8561 38.5592 79.8957 38.2916C79.9659 37.9134 79.3533 37.226 77.6063 35.7115C76.3756 34.6386 75.9915 34.213 75.3884 33.2196C75.0028 32.6016 74.8551 32.3958 74.6592 32.2496C74.3424 32.0076 74.3625 32.1357 74.7103 32.5748C75.0809 33.0367 75.0274 33.1244 74.5909 32.7626C74.2467 32.4682 74.0109 32.1909 73.9617 32.0005C73.9425 31.9399 73.6704 31.676 73.265 31.3287C72.4159 30.6042 71.4082 29.6048 69.0771 27.1575C67.5522 25.5578 67.0633 25.0773 66.4133 24.5185C65.9737 24.137 65.4086 23.6301 65.1577 23.3792C64.8099 23.0314 64.6352 22.8982 64.4459 22.8252C64.196 22.733 64.1846 22.7216 63.9613 22.3405C63.7742 22.0372 63.557 21.7868 62.9111 21.1327L62.0958 20.3173L62.0207 19.9931C61.9483 19.655 61.7975 19.4295 61.7466 19.5945C61.7305 19.6448 61.7107 19.733 61.6946 19.7833C61.665 19.8699 61.5385 19.7683 60.4727 18.8271C60.1254 18.5129 60.031 18.402 59.9134 18.1433C59.7943 17.8747 59.7414 17.8135 59.405 17.5684C59.1763 17.3978 58.5056 16.7686 57.6202 15.8749L56.2061 14.4608L56.185 14.174C56.1717 13.8452 56.0287 13.6689 55.9015 13.8075C55.82 13.9004 55.7718 13.8688 54.8858 13.124C54.2047 12.5507 53.6251 12.0127 52.7382 11.1092C51.4236 9.778 47.5022 5.95617 47.2637 5.78411C47.187 5.72399 46.992 5.64527 46.8369 5.60646L46.5481 5.54179L46.5311 5.25083L46.51 4.96402L46.0777 4.5981C45.8345 4.39648 45.694 4.2975 45.7541 4.37422C45.976 4.65417 45.7883 4.591 45.4803 4.2831C45.3093 4.11204 45.1875 3.94873 45.2083 3.92797C45.2332 3.90306 45.2995 3.92792 45.3509 3.97923C45.6754 4.27054 44.9181 3.39703 44.3593 2.83823C43.4283 1.89896 42.6518 1.23863 42.28 1.07443C41.9378 0.914883 41.3481 0.831716 41.2526 0.927204C41.2194 0.960417 41.0477 0.93822 40.8797 0.878152C40.1952 0.650338 39.6152 0.842579 39.1958 1.44447C39.0224 1.68627 38.9778 1.70808 38.7304 1.69318C38.3269 1.66334 38.1837 1.76093 38.0424 2.17594C37.9307 2.50432 37.899 2.54739 37.7502 2.54799C37.6309 2.55325 37.524 2.63734 37.3641 2.84282C37.1518 3.11213 37.1295 3.12303 36.8422 3.06822C36.4662 2.99946 36.4164 3.04928 36.5153 3.37235ZM38.634 4.19579C38.68 4.45769 38.8172 4.99339 38.9482 5.39839C39.2935 6.43292 39.3157 6.69588 39.0831 7.01966C38.9715 7.16547 38.8889 7.3735 38.8909 7.50835C38.8929 7.73449 38.8887 7.73863 38.7804 7.6303C38.5637 7.41362 38.5292 6.98056 38.6996 6.4452C38.7838 6.15573 38.8416 5.88133 38.8198 5.83466C38.8079 5.78955 38.6644 5.57957 38.5068 5.37219C38.2876 5.07824 38.2208 4.92838 38.2048 4.70485C38.1796 4.33091 38.2513 4.0539 38.4242 3.86967L38.5653 3.72851L38.634 4.19579ZM9.53566 33.2714C9.58128 33.317 9.58382 33.3943 9.53815 33.4399C9.45512 33.523 9.36749 33.4851 9.35304 33.3628C9.32873 33.2388 9.45013 33.1858 9.53566 33.2714ZM41.8369 1.31224C41.9542 1.26342 41.9951 1.27947 42.1568 1.48269C42.4274 1.82797 42.4076 1.91615 42.0741 1.87329C41.6914 1.82269 41.3793 1.51893 41.6081 1.41558C41.6569 1.38962 41.7601 1.3434 41.8369 1.31224ZM36.0319 7.72162C36.0801 7.75323 36.0879 7.8025 36.0505 7.83987C36.0132 7.87723 35.9442 7.86638 35.8929 7.81506C35.7959 7.71813 35.9044 7.6439 36.0319 7.72162ZM8.43466 35.7408C8.50933 35.7574 8.60162 35.8248 8.63063 35.887C8.71561 36.0301 8.39177 36.3539 8.0826 36.435C7.77343 36.5161 7.71491 36.3579 7.98317 36.1695C8.09577 36.0911 8.19386 35.9816 8.19856 35.9199C8.20592 35.7529 8.2796 35.702 8.43466 35.7408ZM9.4543 49.2157C9.54553 49.3069 9.65177 49.4629 9.67557 49.5532C9.72424 49.7098 9.72008 49.7139 9.57543 49.6191C9.42663 49.5284 9.14208 49.1857 9.07371 49.026C9.03125 48.9088 9.26613 49.0275 9.4543 49.2157ZM20.2542 58.5209C20.3854 58.6521 20.3931 58.7926 20.2702 58.7445C20.153 58.702 20.0462 58.5122 20.1044 58.4541C20.1251 58.4334 20.1972 58.4639 20.2542 58.5209ZM74.5311 33.0847C74.6508 33.2045 74.6958 33.3989 74.617 33.4778C74.5422 33.5526 74.408 33.4017 74.3785 33.2145C74.346 33.0076 74.4056 32.9593 74.5311 33.0847ZM75.0712 44.4276C75.1412 44.4146 75.289 44.4378 75.4005 44.4746C75.5841 44.5419 75.6297 44.5875 75.9546 45.0951C76.4173 45.807 76.5443 46.0336 76.4944 46.0834C76.3616 46.2162 76.1141 46.2926 76.0457 46.2242C76.0058 46.1843 75.9006 46.0044 75.8209 45.8332C75.7033 45.5745 75.6188 45.4651 75.3202 45.2163C74.9988 44.9447 74.9558 44.8851 74.9263 44.6979C74.8891 44.4614 74.8974 44.4531 75.0712 44.4276ZM80.2098 39.4942L80.4246 39.4847L80.1194 39.7442C79.9114 39.9181 79.7972 40.0779 79.7519 40.2486C79.6667 40.5619 79.6018 40.6382 79.5724 40.451C79.4995 39.9878 79.8182 39.5095 80.2098 39.4942ZM73.1844 46.8503C73.3213 46.9872 73.3596 47.1085 73.3273 47.3004C73.3028 47.4504 73.2888 47.453 73.1292 47.2933C73.0265 47.1907 72.9644 47.0704 72.9758 46.9905C72.9925 46.7913 73.0761 46.742 73.1844 46.8503ZM74.854 45.979C74.9773 46.2435 75.0077 46.4981 74.919 46.4842C74.8444 46.4676 74.6937 46.0595 74.6881 45.8713C74.6923 45.6845 74.7405 45.7161 74.854 45.979ZM64.2699 57.9886C64.4036 58.1971 64.5154 58.5414 64.4671 58.6011C64.3857 58.6939 64.2281 58.4866 64.1551 58.206C64.0786 57.872 64.1305 57.7745 64.2699 57.9886ZM71.2222 51.5723C71.3252 51.8 71.2665 52.007 71.1083 51.9484C71.0207 51.9106 70.8198 51.3361 70.8562 51.2313C70.905 51.114 71.103 51.3037 71.2222 51.5723ZM60.5012 61.7345C60.5909 61.7246 60.6194 61.7531 60.6334 61.8418C60.6473 61.9305 60.6183 61.9596 60.5156 61.9482C60.2879 61.9364 60.2724 61.7466 60.5012 61.7345ZM81.8766 40.7126C82.0715 40.9739 82.1003 41.4012 81.9121 41.2131C81.8437 41.1447 81.6667 40.569 81.704 40.5317C81.7165 40.5192 81.7963 40.5991 81.8766 40.7126ZM68.1706 54.6239C68.2504 54.795 68.2208 54.8816 68.1036 54.8391C68.016 54.8013 67.9689 54.6546 68.0094 54.5456C68.0567 54.4185 68.0878 54.433 68.1706 54.6239Z" fill="black" stroke="white" stroke-width="4" mask="url(#path-1-inside-1_991_4290)"/>
<path fill-rule="evenodd" clip-rule="evenodd" d="M49.1641 15.665C49.1267 15.7349 49.1104 15.792 49.1279 15.792C49.1453 15.792 49.1902 15.7349 49.2275 15.665C49.2649 15.5952 49.2812 15.5381 49.2637 15.5381C49.2463 15.5381 49.2015 15.5952 49.1641 15.665ZM51.3259 19.6669C50.9352 20.2619 50.3974 21.0117 50.1309 21.3331C49.8643 21.6545 48.5537 23.0135 47.2184 24.3531C44.5339 27.046 44.7013 26.8143 45.5459 26.6681C45.6681 26.6469 45.7538 26.6428 45.7363 26.6588C45.7189 26.6749 45.1185 27.2285 44.4021 27.8892C43.6858 28.5498 42.9145 29.2557 42.6883 29.4577C42.4236 29.6941 42.3335 29.8044 42.4355 29.7672C42.6387 29.693 44.2764 29.4183 44.3107 29.4527C44.3249 29.4669 43.4387 30.2612 42.3414 31.2179C41.2441 32.1745 40.3522 32.9632 40.3595 32.9705C40.3668 32.9778 40.9869 32.8617 41.7374 32.7124C42.488 32.5631 43.1095 32.4468 43.1187 32.4539C43.1279 32.461 42.6137 32.9619 41.9762 33.5671C41.3385 34.1722 40.2309 35.2264 39.5146 35.9096C38.7984 36.5928 37.3618 37.9481 36.3222 38.9212C35.2827 39.8944 34.4444 40.7029 34.4593 40.7178C34.4743 40.7328 35.868 40.4871 37.5565 40.1719C39.245 39.8567 40.7073 39.584 40.8061 39.5661C40.9049 39.5481 40.9763 39.5588 40.9648 39.5899C40.9184 39.7153 35.4322 45.4364 32.6657 48.2444C32.0208 48.899 31.5234 49.4346 31.5605 49.4346C31.5976 49.4346 32.7385 49.2227 34.0959 48.9637C36.8177 48.4445 37.5479 48.3084 37.5479 48.3204C37.5479 48.3247 37.2596 48.9414 36.9072 49.6908C36.555 50.4401 35.9442 51.7531 35.5501 52.6084C35.1561 53.4637 34.4841 54.9062 34.0569 55.814C33.6297 56.7217 32.9812 58.1193 32.6157 58.9197C32.2502 59.7202 31.5937 61.0913 31.1568 61.9666C30.7199 62.842 30.3909 63.5295 30.4257 63.4946C30.4604 63.4597 30.9105 62.6599 31.4259 61.7173C32.4301 59.8806 32.7283 59.3815 33.474 58.2896C34.7521 56.4181 35.4382 55.466 35.9722 54.823C37.101 53.4637 38.4516 51.9583 39.5647 50.819C40.0281 50.3446 40.2723 50.0492 40.2419 49.9999C40.2148 49.956 40.2208 49.9391 40.2558 49.9608C40.3434 50.0149 44.9001 45.4034 44.8291 45.3324C44.8116 45.3148 44.473 45.3589 44.0766 45.4302C43.3886 45.5541 39.7591 46.1338 39.6719 46.1338C39.5383 46.1338 44.4385 40.9779 47.8462 37.5327C49.3312 36.0315 50.5392 34.7954 50.5306 34.7858C50.5221 34.7762 49.5613 34.9393 48.3955 35.1482C43.9782 35.9396 43.3688 36.0433 43.3348 36.0092C43.3155 35.99 43.4569 35.8107 43.6489 35.6109C43.841 35.4111 44.5105 34.7048 45.1367 34.0415C45.7631 33.3782 46.8581 32.2279 47.5703 31.4852C48.2824 30.7426 48.8533 30.1231 48.8387 30.1086C48.8243 30.0941 48.4274 30.1538 47.9567 30.2412C46.4352 30.5236 45.8318 30.631 45.82 30.6213C45.8136 30.6161 46.5206 29.8611 47.391 28.9436C48.2614 28.0261 48.9736 27.2669 48.9736 27.2566C48.9736 27.2463 48.5952 27.3018 48.1326 27.3798C47.67 27.4579 47.2813 27.5122 47.2688 27.5005C47.223 27.4574 49.7096 22.724 50.4854 21.3779C50.8173 20.8019 51.2589 20.0306 51.4665 19.6641C51.6741 19.2975 51.9003 18.9047 51.9692 18.7913C52.038 18.6778 52.0813 18.585 52.0655 18.585C52.0496 18.585 51.7168 19.0718 51.3259 19.6669ZM37.6237 20.0132C37.625 20.1179 37.6392 20.1531 37.6553 20.0913C37.6714 20.0296 37.6704 19.9439 37.653 19.9009C37.6356 19.8579 37.6224 19.9084 37.6237 20.0132ZM40.225 20.7114C40.2179 20.886 40.1963 21.1002 40.1769 21.1875C40.1468 21.323 40.152 21.3299 40.2127 21.2351C40.252 21.1735 40.2735 20.9612 40.2608 20.759L40.2379 20.394L40.225 20.7114ZM44.5625 23.5232C44.1279 24.4455 43.3315 25.763 42.7168 26.5765C42.435 26.9494 42.2173 27.2931 42.233 27.3402C42.2487 27.3873 42.2336 27.4086 42.1994 27.3874C42.1651 27.3662 42.0416 27.4194 41.9249 27.5055C41.8081 27.5917 41.676 27.6621 41.6312 27.6621C41.4596 27.6621 41.3245 27.3172 41.2596 26.713L41.1944 26.1069L41.0795 27.0908C40.8805 28.7945 40.7095 29.3331 40.1699 29.9552C40.0719 30.0683 39.8537 30.3197 39.685 30.5142C39.5164 30.7086 39.2759 30.9605 39.1508 31.074C39.0256 31.1875 38.9582 31.2803 39.001 31.2803C39.0438 31.2803 39.0594 31.3117 39.0356 31.3501C39.0086 31.3938 39.0488 31.3899 39.143 31.3397C39.2801 31.2666 39.2858 31.2688 39.2064 31.3651C39.1404 31.445 39.1385 31.4707 39.1982 31.4707C39.261 31.4707 39.2609 31.4904 39.1976 31.5667C39.1532 31.6201 39.0865 31.6408 39.047 31.6133C39.008 31.5862 38.9189 31.5652 38.8491 31.5666C38.7793 31.5681 38.6888 31.5257 38.648 31.4725C38.6072 31.4192 38.5547 31.3949 38.5311 31.4184C38.4725 31.4771 38.5599 31.7343 38.6249 31.6941C38.6536 31.6764 38.6948 31.708 38.7165 31.7643C38.7467 31.8431 38.7261 31.8591 38.6278 31.8334C38.5574 31.815 38.5155 31.8252 38.5346 31.8562C38.5537 31.8871 38.5401 31.9672 38.5042 32.0341C38.449 32.1374 38.4653 32.1628 38.6124 32.202C38.7077 32.2273 38.75 32.2612 38.7063 32.2773C38.6627 32.2934 38.627 32.35 38.627 32.4032C38.627 32.4653 38.591 32.4861 38.5265 32.4614C38.4713 32.4402 38.4071 32.4218 38.3837 32.4206C38.3604 32.4194 38.4127 32.3774 38.5 32.3273L38.6587 32.2362L38.4766 32.2488C38.3764 32.2557 38.2796 32.3001 38.2615 32.3474C38.234 32.4189 38.2193 32.4192 38.1747 32.3488C38.1452 32.3022 38.1211 32.2356 38.1211 32.2007C38.1211 32.1658 38.1488 32.1801 38.1826 32.2324C38.2196 32.2896 38.2445 32.2975 38.2451 32.252C38.2456 32.2105 38.2171 32.1585 38.1816 32.1366C38.1461 32.1146 38.1377 32.0629 38.163 32.0217C38.1883 31.9805 38.1388 31.9944 38.0529 32.0528C37.9672 32.1111 37.9048 32.1917 37.9144 32.232C37.924 32.2723 37.9007 32.2861 37.8627 32.2626C37.8157 32.2335 37.8256 32.1843 37.8938 32.109C37.9855 32.0077 37.9843 31.9849 37.8804 31.8455C37.8179 31.7616 37.7284 31.6072 37.6816 31.5024C37.5602 31.2308 37.5195 31.1459 37.4073 30.9312C37.3526 30.8264 37.1579 30.3979 36.9745 29.979C36.7913 29.5601 36.5214 28.9602 36.375 28.646C36.2285 28.3318 36.028 27.8675 35.9294 27.6141C35.8308 27.3608 35.7397 27.164 35.7268 27.1768C35.6724 27.2312 36.3512 29.211 36.4527 29.2942C36.5139 29.3444 36.5283 29.3673 36.4846 29.3452C36.3747 29.2895 36.3724 29.2776 36.685 30.3847C36.8388 30.9297 37.001 31.5326 37.0454 31.7246C37.0899 31.9166 37.1695 32.1095 37.2223 32.1531C37.2875 32.207 37.293 32.2324 37.2394 32.2324C37.1832 32.2324 37.1705 32.3156 37.1949 32.523C37.2336 32.8527 37.2766 32.9489 37.3618 32.8962C37.4403 32.8477 37.4375 32.9488 37.3577 33.0452C37.3229 33.0872 37.3405 33.0814 37.3969 33.0322C37.4931 32.9483 37.4658 32.7685 37.3662 32.83C37.341 32.8456 37.3161 32.8029 37.311 32.7352C37.3026 32.6241 37.3114 32.6217 37.3998 32.71C37.4758 32.7861 37.5179 32.7915 37.5871 32.734C37.6595 32.6739 37.6612 32.6415 37.5962 32.5628C37.5263 32.4779 37.5334 32.4747 37.6523 32.5381C37.7578 32.5943 37.804 32.5918 37.858 32.5268C37.8963 32.4806 37.9109 32.4263 37.8906 32.4059C37.8599 32.3752 37.9182 32.3784 38.111 32.418C38.124 32.4207 38.0973 32.4679 38.0517 32.5229C37.9829 32.6059 37.9842 32.6328 38.0597 32.6806C38.1355 32.7286 38.1329 32.7385 38.0444 32.7393C37.9859 32.7398 37.895 32.8264 37.8424 32.9317C37.7899 33.0371 37.7736 33.1068 37.8061 33.0867C37.8926 33.0332 37.8783 33.1451 37.7859 33.2447C37.738 33.2963 37.7353 33.3141 37.7792 33.2894C37.8192 33.2671 37.869 33.2932 37.8899 33.3476C37.9111 33.4029 37.9603 33.4264 38.0015 33.401C38.0484 33.372 38.0581 33.3832 38.0281 33.4317C37.9919 33.4902 37.9599 33.4907 37.8913 33.4338C37.7854 33.3459 37.7696 33.4444 37.873 33.5478C37.9121 33.5869 37.9907 33.6042 38.0475 33.5863C38.1341 33.5588 38.1359 33.5641 38.0587 33.6187C38.008 33.6546 37.9479 33.6725 37.9252 33.6584C37.9024 33.6444 37.8528 33.701 37.8148 33.7842C37.7604 33.9038 37.7651 33.943 37.8373 33.9707C37.9204 34.0026 37.9584 33.9355 37.9347 33.7988C37.9297 33.77 37.9536 33.7637 37.9879 33.7849C38.0221 33.8061 38.0359 33.8606 38.0184 33.906C38.0006 33.9524 38.0308 33.9886 38.0874 33.9886C38.1428 33.9886 38.175 33.9545 38.159 33.9129C38.1415 33.8672 38.1844 33.841 38.2674 33.8467C38.343 33.852 38.3976 33.8907 38.3889 33.933C38.3658 34.0449 38.3932 34.0302 38.5887 33.8261L38.7647 33.6424L38.5375 33.6577C38.368 33.669 38.3261 33.6537 38.3728 33.5974C38.4073 33.556 38.4142 33.497 38.3883 33.4665C38.3625 33.4359 38.3899 33.4481 38.4493 33.4934C38.5826 33.5952 38.7952 33.5351 38.8831 33.3707C38.9193 33.3033 38.9775 33.248 39.0127 33.248C39.0479 33.248 39.1369 33.1919 39.2105 33.1233C39.2842 33.0547 39.3758 33.0139 39.4141 33.0328C39.4525 33.0517 39.4268 33.0205 39.3569 32.9635C39.2334 32.8629 39.2347 32.8609 39.4064 32.8915C39.5349 32.9144 39.6037 32.8895 39.6597 32.7998C39.702 32.7322 39.7711 32.6768 39.8134 32.6768C39.8556 32.6768 39.913 32.6387 39.9409 32.5923C39.9688 32.5458 40.3345 32.2027 40.7534 31.8297C42.6997 30.097 42.5954 30.2012 42.3841 30.2012C42.3208 30.2012 42.1994 30.263 42.1143 30.3385C42.0291 30.4141 41.877 30.5497 41.7762 30.64L41.5929 30.8042L41.7023 30.6324C41.7625 30.5379 41.9022 30.3999 42.0126 30.3258C42.1978 30.2015 42.2011 30.1936 42.0547 30.2235C41.9674 30.2414 41.7817 30.2744 41.6421 30.2968C41.5024 30.3194 41.3106 30.3672 41.2158 30.4032C41.0796 30.455 41.0222 30.4473 40.9416 30.3667C40.8648 30.2898 40.8606 30.2646 40.9246 30.2646C41.0336 30.2646 41.6472 29.7574 41.6262 29.6847C41.6175 29.6546 41.6437 29.6371 41.6845 29.6458C41.7253 29.6545 41.7921 29.5975 41.833 29.5192C41.8739 29.4409 41.9253 29.3947 41.9473 29.4167C41.9692 29.4386 41.9753 29.3949 41.9608 29.3194C41.9463 29.2439 41.9595 29.1977 41.9901 29.2167C42.0208 29.2356 42.0638 29.222 42.0858 29.1866C42.1077 29.1511 42.0919 29.1221 42.0507 29.1221C41.994 29.1221 41.9935 29.1006 42.0485 29.0343C42.1047 28.9666 42.0994 28.9381 42.0256 28.9097C41.9698 28.8883 41.9458 28.8315 41.968 28.7735C42.0017 28.6859 42.0165 28.6875 42.0919 28.787C42.139 28.8491 42.1785 28.9499 42.1796 29.011C42.1831 29.2022 42.292 29.1366 42.7777 28.6509C43.1797 28.2489 43.2642 28.1255 43.3537 27.8098C43.4113 27.6064 43.6987 26.6973 43.9922 25.7896C44.6308 23.8154 44.9178 22.8865 44.8957 22.8658C44.8868 22.8573 44.7368 23.1532 44.5625 23.5232ZM31.9622 23.5714C31.9625 23.6357 32.2732 24.0359 32.277 23.9769C32.2783 23.9576 32.2079 23.8449 32.1206 23.7266C32.0333 23.6082 31.962 23.5384 31.9622 23.5714ZM32.5361 23.859C32.5751 23.9318 32.6196 23.9787 32.6351 23.9633C32.6795 23.9188 32.5894 23.7266 32.5242 23.7266C32.4918 23.7266 32.4971 23.7861 32.5361 23.859ZM55.8845 24.282C55.8056 24.3827 55.8078 24.3849 55.9084 24.306C56.0142 24.223 56.0478 24.1709 55.9955 24.1709C55.9824 24.1709 55.9324 24.2209 55.8845 24.282ZM55.3565 24.9644C54.0012 26.722 53.8523 26.9352 54.3061 26.4676C54.6133 26.1512 54.6933 26.1458 54.4636 26.4571C54.2502 26.7463 54.2632 26.7984 54.4791 26.5195C54.5738 26.3973 54.8082 26.126 55 25.9165C55.1918 25.707 55.464 25.4099 55.6048 25.2562C55.7456 25.1025 55.8014 25.0169 55.7287 25.0658C55.6561 25.1147 55.5061 25.2586 55.3954 25.3855C55.2847 25.5123 55.1352 25.6315 55.0632 25.6503C54.9355 25.6837 54.935 25.6803 55.0421 25.5149C55.1026 25.4216 55.3046 25.1382 55.491 24.885C55.6775 24.6319 55.8171 24.4248 55.8012 24.4248C55.7854 24.4248 55.5853 24.6676 55.3565 24.9644ZM57.9238 25.058C57.9238 25.0913 57.981 25.1491 58.0508 25.1865C58.1206 25.2239 58.1777 25.2456 58.1777 25.2346C58.1777 25.2237 58.1206 25.1658 58.0508 25.106C57.981 25.0462 57.9238 25.0246 57.9238 25.058ZM54.623 26.1424C54.623 26.1794 54.6516 26.192 54.6865 26.1704C54.7214 26.1488 54.75 26.1186 54.75 26.1032C54.75 26.0878 54.7214 26.0752 54.6865 26.0752C54.6516 26.0752 54.623 26.1055 54.623 26.1424ZM35.582 26.8687C35.582 26.9036 35.6097 26.975 35.6436 27.0273C35.6774 27.0797 35.7051 27.094 35.7051 27.0591C35.7051 27.0242 35.6774 26.9528 35.6436 26.9004C35.6097 26.848 35.582 26.8337 35.582 26.8687ZM37.2149 27.3765C37.2316 27.4637 37.2562 27.5352 37.2696 27.5352C37.283 27.5352 37.2939 27.4637 37.2939 27.3765C37.2939 27.2892 37.2693 27.2178 37.2393 27.2178C37.2092 27.2178 37.1982 27.2892 37.2149 27.3765ZM31.109 27.5538C31.1329 27.6163 31.1684 27.6516 31.1879 27.632C31.2075 27.6125 31.188 27.5613 31.1446 27.5182C31.0819 27.456 31.0746 27.4633 31.109 27.5538ZM57.6651 27.7097L57.5112 27.8843L57.6858 27.7304C57.7818 27.6457 57.8604 27.5672 57.8604 27.5558C57.8604 27.506 57.8089 27.5466 57.6651 27.7097ZM39.7061 28.2969C39.7061 28.3318 39.7363 28.3604 39.7733 28.3604C39.8102 28.3604 39.8229 28.3318 39.8013 28.2969C39.7797 28.262 39.7495 28.2334 39.734 28.2334C39.7186 28.2334 39.7061 28.262 39.7061 28.2969ZM58.9948 28.6619C58.9159 28.7625 58.9181 28.7648 59.0188 28.6859C59.1246 28.6029 59.1581 28.5508 59.1059 28.5508C59.0928 28.5508 59.0427 28.6008 58.9948 28.6619ZM35.2627 28.7375C35.2627 28.7703 35.2909 28.8147 35.3255 28.836C35.3614 28.8582 35.3721 28.8327 35.3504 28.7762C35.3082 28.6663 35.2627 28.6462 35.2627 28.7375ZM48.5847 28.8523C48.5057 28.953 48.508 28.9552 48.6086 28.8763C48.7144 28.7933 48.748 28.7412 48.6957 28.7412C48.6826 28.7412 48.6326 28.7912 48.5847 28.8523ZM53.5727 29.0745L53.3218 29.3442L53.5916 29.0933C53.8424 28.86 53.8905 28.8047 53.8425 28.8047C53.8321 28.8047 53.7107 28.9261 53.5727 29.0745ZM36.5427 29.4316C36.4779 29.4727 36.488 29.4932 36.5856 29.5187C36.6764 29.5424 36.7034 29.5267 36.6794 29.464C36.6399 29.3612 36.6501 29.3636 36.5427 29.4316ZM52.9044 29.741L52.7505 29.9155L52.925 29.7617C53.0211 29.677 53.0996 29.5985 53.0996 29.5871C53.0996 29.5373 53.0482 29.5778 52.9044 29.741ZM32.3289 29.7303C32.3677 29.803 32.4484 29.903 32.5084 29.9525C32.6077 30.0344 32.6112 30.0305 32.547 29.9103C32.5083 29.8376 32.4276 29.7377 32.3676 29.6882C32.2683 29.6063 32.2648 29.6101 32.3289 29.7303ZM27.9857 29.8693C28.0359 29.9506 28.4072 30.2254 28.4072 30.1813C28.4072 30.1656 28.3024 30.0728 28.1742 29.975C28.046 29.8773 27.9612 29.8297 27.9857 29.8693ZM33.2314 30.3204C33.2314 30.351 33.279 30.4153 33.3371 30.4632C33.4328 30.5422 33.4356 30.537 33.3666 30.4075C33.2879 30.2598 33.2314 30.2234 33.2314 30.3204ZM56.1147 30.7794C55.7209 31.0975 55.5426 31.2808 55.7974 31.1056C56.0192 30.953 56.5104 30.524 56.4639 30.5234C56.4464 30.5233 56.2893 30.6385 56.1147 30.7794ZM52.2744 30.7725C52.2172 30.8094 52.2094 30.8343 52.2548 30.835C52.2964 30.8355 52.348 30.8074 52.3696 30.7725C52.4183 30.6936 52.3964 30.6936 52.2744 30.7725ZM37.5161 30.8359C37.4945 30.8708 37.5072 30.8994 37.5441 30.8994C37.5811 30.8994 37.6113 30.8708 37.6113 30.8359C37.6113 30.801 37.5988 30.7725 37.5833 30.7725C37.5679 30.7725 37.5377 30.801 37.5161 30.8359ZM39.7318 31.2266C39.705 31.2699 39.7142 31.2828 39.7543 31.2579C39.7916 31.2349 39.8366 31.2519 39.8543 31.2958C39.8737 31.3439 39.8884 31.3314 39.8915 31.2644C39.8971 31.1388 39.8002 31.1159 39.7318 31.2266ZM40.1821 31.2803C40.1605 31.3152 40.1732 31.3438 40.2101 31.3438C40.2471 31.3438 40.2773 31.3152 40.2773 31.2803C40.2773 31.2454 40.2648 31.2168 40.2494 31.2168C40.2339 31.2168 40.2037 31.2454 40.1821 31.2803ZM38.9167 31.6545C38.8974 31.6858 38.9228 31.7271 38.9732 31.7464C39.0343 31.7699 39.0531 31.751 39.0295 31.6896C38.9886 31.583 38.9653 31.5758 38.9167 31.6545ZM39.23 31.7246C39.2516 31.7595 39.2818 31.7881 39.2972 31.7881C39.3126 31.7881 39.3252 31.7595 39.3252 31.7246C39.3252 31.6897 39.2949 31.6611 39.258 31.6611C39.221 31.6611 39.2084 31.6897 39.23 31.7246ZM37.167 31.9468C37.167 31.9991 37.1947 32.042 37.2285 32.042C37.2623 32.042 37.2735 31.9991 37.2534 31.9468C37.2333 31.8944 37.2057 31.8516 37.1919 31.8516C37.1782 31.8516 37.167 31.8944 37.167 31.9468ZM25.8163 32.3959C25.928 32.5237 26.3125 32.771 26.3125 32.7152C26.3125 32.6974 26.1768 32.5908 26.011 32.4783C25.845 32.3657 25.7575 32.3287 25.8163 32.3959ZM38.6904 32.4266C38.6904 32.4635 38.719 32.4762 38.7539 32.4546C38.7888 32.433 38.8174 32.4028 38.8174 32.3874C38.8174 32.3719 38.7888 32.3594 38.7539 32.3594C38.719 32.3594 38.6904 32.3897 38.6904 32.4266ZM34.6679 32.9199C34.803 33.0536 35.0786 33.3524 35.2803 33.5838C35.5421 33.884 35.6783 33.9944 35.7564 33.9694C35.8488 33.9398 35.851 33.9447 35.7705 34.0017C35.6878 34.0602 35.6922 34.0861 35.8045 34.1985C35.9178 34.3122 35.9547 34.3183 36.1055 34.2482C36.2794 34.1675 36.3535 34.0308 36.1893 34.0938C36.1403 34.1126 36.0475 34.085 35.983 34.0324C35.9185 33.9799 35.9015 33.955 35.9451 33.9771C36.1222 34.0668 36.0012 33.9438 35.5792 33.6052C35.3343 33.4088 35.101 33.248 35.0608 33.248C35.0205 33.248 35.0049 33.2308 35.0261 33.2096C35.0625 33.1732 34.533 32.6768 34.4577 32.6768C34.4382 32.6768 34.5328 32.7862 34.6679 32.9199ZM37.6699 32.6926C37.6673 32.7013 37.6553 32.7601 37.6433 32.8231C37.6257 32.9157 37.6389 32.9233 37.7116 32.8629C37.8161 32.7763 37.8303 32.6768 37.7383 32.6768C37.7034 32.6768 37.6726 32.6839 37.6699 32.6926ZM38.0946 33.3231C38.1129 33.3528 38.1545 33.3607 38.187 33.3405C38.27 33.2892 38.2607 33.2692 38.1537 33.2692C38.1028 33.2692 38.0762 33.2935 38.0946 33.3231ZM40.0641 33.5459C40.0399 33.5701 39.9572 33.5995 39.8801 33.6113C39.6656 33.6439 38.501 34.214 38.5354 34.2694C38.5519 34.2964 38.5321 34.339 38.4912 34.3643C38.4448 34.393 38.4339 34.3828 38.4622 34.337C38.4871 34.2967 38.4763 34.2637 38.4383 34.2637C38.4002 34.2637 38.3527 34.3063 38.3327 34.3585C38.3126 34.4107 38.2739 34.4396 38.2466 34.4227C38.2193 34.4058 38.2009 34.441 38.2057 34.5008C38.2152 34.6205 37.9933 34.6575 37.9138 34.5493C37.8845 34.5094 37.8668 34.5139 37.8662 34.5614C37.8657 34.603 37.8942 34.655 37.9297 34.6769C37.9652 34.6989 37.9775 34.7438 37.9571 34.7769C37.9366 34.8099 37.8927 34.8202 37.8593 34.7995C37.8259 34.7789 37.8039 34.7856 37.8103 34.8144C37.8308 34.9068 37.7268 35.0892 37.6725 35.0557C37.6437 35.0379 37.6019 35.0528 37.5796 35.0889C37.5573 35.1249 37.5053 35.1342 37.4641 35.1094C37.4214 35.0839 37.4267 35.1107 37.4762 35.1719C37.5331 35.2419 37.5386 35.2793 37.4921 35.2793C37.453 35.2793 37.428 35.3125 37.4368 35.353C37.4455 35.3936 37.3812 35.4478 37.2939 35.4737C37.1224 35.5243 37.1249 35.5289 37.3454 35.5698C37.4283 35.5853 37.4759 35.5708 37.4547 35.5366C37.4106 35.4651 37.6523 35.3214 37.7329 35.3712C37.7635 35.3901 37.8043 35.3643 37.8236 35.3139C37.8466 35.2538 37.8282 35.234 37.7698 35.2564C37.654 35.3009 37.5343 35.2257 37.5865 35.1412C37.6139 35.0968 37.6417 35.0988 37.6718 35.1475C37.7024 35.1971 37.7733 35.1748 37.8989 35.076C37.9992 34.9971 38.0596 34.9677 38.033 35.0107C38.0064 35.0537 38.0135 35.0889 38.0487 35.0889C38.084 35.0889 38.1382 35.0435 38.1693 34.9879C38.2003 34.9325 38.2446 34.8896 38.2677 34.8927C38.3826 34.9083 38.4307 34.8865 38.5985 34.7423C38.6984 34.6564 38.7922 34.5982 38.8068 34.6129C38.8215 34.6275 38.9565 34.555 39.1066 34.4516C39.4172 34.238 39.5057 34.2134 39.3837 34.3748C39.3111 34.4707 39.3122 34.4745 39.3917 34.4033C39.4424 34.3579 39.4839 34.2952 39.4839 34.2639C39.4839 34.2326 39.641 34.0657 39.833 33.893C40.025 33.7202 40.1654 33.5616 40.1451 33.5404C40.1247 33.5193 40.0883 33.5218 40.0641 33.5459ZM37.6496 33.6395C37.6676 33.6686 37.6568 33.6924 37.6257 33.6924C37.5946 33.6924 37.5747 33.7566 37.5816 33.8352C37.5979 34.0228 37.5015 34.1386 37.3687 34.091C37.2907 34.0631 37.3017 34.0963 37.4098 34.215C37.5663 34.387 37.5099 34.5015 37.3068 34.4242C37.133 34.3581 37.3053 34.4848 37.5043 34.5695C37.6089 34.614 37.6664 34.6188 37.643 34.5809C37.621 34.5454 37.6617 34.4418 37.7333 34.3508C37.8049 34.2597 37.8441 34.1529 37.8204 34.1134C37.7886 34.0603 37.8013 34.06 37.8689 34.1122C37.9763 34.1952 38.2135 34.2057 38.1316 34.1238C38.1012 34.0934 37.9952 34.0539 37.8959 34.0359C37.6384 33.9892 37.5943 33.9481 37.6848 33.839C37.7955 33.7056 37.8037 33.5866 37.7022 33.5866C37.6553 33.5866 37.6316 33.6104 37.6496 33.6395ZM38.5018 33.7534C38.4505 33.7859 38.425 33.829 38.4452 33.8492C38.4654 33.8694 38.518 33.8423 38.5622 33.7891C38.6538 33.6788 38.6362 33.6684 38.5018 33.7534ZM40.0888 33.7534C40.0374 33.7859 40.0119 33.829 40.0321 33.8492C40.0523 33.8694 40.1049 33.8423 40.1491 33.7891C40.2407 33.6788 40.2231 33.6684 40.0888 33.7534ZM39.805 34.0309C39.7078 34.1021 39.7054 34.1156 39.7902 34.1156C39.8456 34.1156 39.9056 34.0775 39.9235 34.0309C39.9414 33.9844 39.948 33.9463 39.9384 33.9463C39.9287 33.9463 39.8687 33.9844 39.805 34.0309ZM37.5456 34.1076C37.4851 34.1806 37.4827 34.2239 37.5364 34.2776C37.59 34.3312 37.5885 34.3749 37.5305 34.4494C37.4616 34.5378 37.4656 34.5392 37.5652 34.4609C37.6272 34.4123 37.6631 34.3578 37.6452 34.3398C37.6271 34.3218 37.6443 34.2688 37.6831 34.2219C37.7355 34.1588 37.7343 34.1367 37.6788 34.1367C37.6376 34.1367 37.6215 34.1082 37.6431 34.0732C37.7041 33.9745 37.6362 33.9985 37.5456 34.1076ZM36.3773 34.234C36.2889 34.3008 36.28 34.3274 36.3455 34.3281C36.4877 34.3296 36.6165 34.4326 36.5701 34.5077C36.547 34.545 36.4864 34.5595 36.4354 34.5399C36.3843 34.5203 36.3583 34.4787 36.3777 34.4474C36.397 34.4162 36.3794 34.3906 36.3387 34.3906C36.2981 34.3906 36.2805 34.4316 36.2997 34.4817C36.3189 34.5319 36.3046 34.5829 36.2678 34.5951C36.2293 34.608 36.2443 34.6535 36.3031 34.7022C36.3891 34.7736 36.4053 34.7724 36.4053 34.6946C36.4053 34.6438 36.4481 34.6022 36.5005 34.6022C36.6159 34.6022 36.6264 34.6856 36.5164 34.728C36.4727 34.7448 36.4991 34.7556 36.575 34.7519C36.6916 34.7462 36.7027 34.726 36.647 34.6217C36.5927 34.5204 36.5989 34.5052 36.6815 34.5369C36.8225 34.591 36.8548 34.507 36.7487 34.3619C36.6995 34.2945 36.6592 34.2726 36.6592 34.313C36.6592 34.3536 36.6148 34.3696 36.5603 34.3487C36.5059 34.3278 36.4765 34.2716 36.4948 34.2237C36.5357 34.1172 36.531 34.1176 36.3773 34.234ZM37.011 34.2593C36.9909 34.2918 36.9988 34.3334 37.0284 34.3517C37.0581 34.3701 37.0824 34.3435 37.0824 34.2926C37.0824 34.1856 37.0623 34.1763 37.011 34.2593ZM36.094 34.3515C36.0381 34.4189 36.0426 34.4475 36.1138 34.4748C36.1768 34.499 36.2034 34.4709 36.1971 34.387C36.186 34.24 36.1865 34.2401 36.094 34.3515ZM38.9965 34.6071C38.9029 34.6559 38.8055 34.6772 38.7799 34.6543C38.7544 34.6315 38.7541 34.6485 38.7792 34.6921C38.8075 34.7412 38.7871 34.7715 38.7259 34.7715C38.6715 34.7715 38.627 34.7989 38.627 34.8325C38.627 34.8661 38.5627 34.9558 38.4841 35.032L38.3413 35.1704L38.5457 35.0536C38.7372 34.9442 39.254 34.5171 39.1939 34.518C39.1788 34.5182 39.09 34.5583 38.9965 34.6071ZM37.1353 34.835C37.1568 34.8699 37.203 34.8984 37.238 34.8984C37.2729 34.8984 37.2838 34.8699 37.2622 34.835C37.2406 34.8 37.1944 34.7715 37.1595 34.7715C37.1246 34.7715 37.1137 34.8 37.1353 34.835ZM31.0425 35.4547C31.0779 35.4954 31.4662 35.794 31.9055 36.1181C32.3447 36.4423 32.9088 36.8629 33.159 37.0528L33.6138 37.3981L33.4241 37.5938L33.2344 37.7896L33.3665 38.0103C33.4392 38.1317 33.5569 38.2942 33.628 38.3716L33.7574 38.5124L33.9376 38.384C34.0367 38.3135 34.1112 38.2216 34.1031 38.1799C34.095 38.1382 34.1276 38.1123 34.1755 38.1225C34.235 38.135 34.249 38.1055 34.2198 38.0292C34.1962 37.9677 34.1961 37.9366 34.2195 37.9601C34.243 37.9835 34.3037 37.9612 34.3543 37.9105C34.4673 37.7977 34.5894 37.7885 34.5255 37.8977C34.5 37.9414 34.5405 37.9232 34.6156 37.8575C34.6905 37.7917 34.7377 37.715 34.7203 37.6868C34.703 37.6587 34.7393 37.6063 34.8012 37.5703C34.863 37.5343 34.885 37.5048 34.8501 37.5049C34.7225 37.5051 34.5518 37.6831 34.5992 37.7665C34.6381 37.8353 34.6309 37.8353 34.5579 37.7663C34.4826 37.6953 34.4963 37.6592 34.6479 37.5279C34.7675 37.4242 34.7989 37.3644 34.7431 37.3467C34.6972 37.3321 34.5575 37.2889 34.4326 37.2506C34.2184 37.1849 31.3074 35.6284 31.0828 35.4594C31.0176 35.4104 31.0023 35.4086 31.0425 35.4547ZM37.04 35.6602C37.04 35.6951 37.0686 35.7236 37.1035 35.7236C37.1384 35.7236 37.167 35.6951 37.167 35.6602C37.167 35.6252 37.1384 35.5967 37.1035 35.5967C37.0686 35.5967 37.04 35.6252 37.04 35.6602ZM36.695 35.9961C36.7188 36.0587 36.7543 36.094 36.7739 36.0744C36.7934 36.0549 36.7739 36.0037 36.7305 35.9606C36.6678 35.8984 36.6606 35.9057 36.695 35.9961ZM28.5342 36.7393C28.6564 36.8062 28.7849 36.8609 28.8198 36.8609C28.8547 36.8609 28.7833 36.8062 28.6611 36.7393C28.5389 36.6724 28.4104 36.6176 28.3755 36.6176C28.3406 36.6176 28.412 36.6724 28.5342 36.7393ZM53.3853 37.1834C53.2107 37.2094 52.9536 37.2629 52.814 37.302C52.5095 37.3875 52.4468 37.3912 52.4902 37.3209C52.5083 37.2917 52.2314 37.3052 51.875 37.351C51.5187 37.3968 51.0248 37.46 50.7776 37.4915C50.4258 37.5363 50.2927 37.5841 50.1648 37.712C50.075 37.8019 50.0245 37.8839 50.0526 37.8945C50.0807 37.9049 50.0637 37.9504 50.0147 37.9954C49.9563 38.0492 49.9258 38.0531 49.9258 38.0068C49.9258 37.966 49.8857 37.9763 49.8308 38.0313C49.7755 38.0865 49.7534 38.1726 49.7781 38.2367C49.807 38.3121 49.7968 38.3324 49.7457 38.3008C49.7033 38.2746 49.6545 38.2974 49.633 38.3535C49.6121 38.4079 49.5624 38.4341 49.5224 38.4117C49.4785 38.3871 49.4811 38.4049 49.5291 38.4565C49.6464 38.583 49.6257 38.6396 49.4729 38.6102C49.3983 38.5958 49.3555 38.6023 49.3778 38.6245C49.4 38.6468 49.3682 38.7204 49.307 38.788C49.207 38.8986 49.2263 38.8963 49.4973 38.7647C49.6985 38.667 49.7778 38.5971 49.7354 38.5547C49.7004 38.5198 49.6719 38.4629 49.6719 38.4283C49.6719 38.3937 49.7103 38.4179 49.7572 38.4821C49.8373 38.5916 49.8596 38.5927 50.1222 38.4999C50.276 38.4455 51.0588 38.167 51.8618 37.881C52.6648 37.595 53.4932 37.309 53.7026 37.2454C54.114 37.1206 53.9803 37.0945 53.3853 37.1834ZM50.5329 37.6728C50.4985 37.7633 50.5057 37.7706 50.5684 37.7084C50.6118 37.6653 50.6313 37.614 50.6118 37.5945C50.5922 37.575 50.5567 37.6102 50.5329 37.6728ZM49.8623 38.3299C49.8623 38.3669 49.8909 38.3795 49.9258 38.3579C49.9607 38.3363 49.9893 38.3061 49.9893 38.2907C49.9893 38.2753 49.9607 38.2627 49.9258 38.2627C49.8909 38.2627 49.8623 38.293 49.8623 38.3299ZM39.23 39.2783C39.2084 39.3132 39.221 39.3418 39.258 39.3418C39.2949 39.3418 39.3252 39.3132 39.3252 39.2783C39.3252 39.2434 39.3126 39.2148 39.2972 39.2148C39.2818 39.2148 39.2516 39.2434 39.23 39.2783ZM37.1035 39.7227C37.0463 39.7596 37.0385 39.7845 37.0839 39.7852C37.1255 39.7857 37.1771 39.7576 37.1987 39.7227C37.2474 39.6438 37.2255 39.6438 37.1035 39.7227ZM48.3071 39.7227C48.2855 39.7576 48.2982 39.7861 48.3351 39.7861C48.3721 39.7861 48.4023 39.7576 48.4023 39.7227C48.4023 39.6877 48.3898 39.6592 48.3744 39.6592C48.3589 39.6592 48.3287 39.6877 48.3071 39.7227ZM30.0576 39.9508C30.2845 40.0028 30.6281 40.0821 30.8211 40.1272C31.0934 40.1909 31.2285 40.1928 31.4241 40.1358L31.6763 40.0623L31.4858 40.0222C31.3811 40.0001 31.0669 39.9654 30.7876 39.945C30.5083 39.9246 30.137 39.8963 29.9624 39.8821C29.653 39.857 29.6554 39.8587 30.0576 39.9508ZM48.2044 39.9078C48.2002 39.9282 48.201 39.9684 48.206 39.9972C48.211 40.026 48.1613 40.0325 48.0955 40.0117C48.0222 39.9884 47.9417 40.0159 47.8876 40.0825C47.8291 40.1547 47.826 40.1753 47.8787 40.1437C47.9223 40.1175 47.958 40.1263 47.958 40.1632C47.958 40.2002 47.9294 40.234 47.8945 40.2384C47.8596 40.2428 47.7954 40.25 47.7517 40.2545C47.7081 40.2589 47.6722 40.3196 47.6721 40.3894C47.672 40.4662 47.6292 40.5164 47.5634 40.5169C47.3999 40.518 47.2961 40.6457 47.4496 40.6573C47.5182 40.6625 47.6319 40.5935 47.7023 40.504C47.8143 40.3615 47.8438 40.3522 47.9381 40.4287C48.03 40.5032 48.0379 40.503 47.9921 40.4269C47.9533 40.3626 47.9615 40.3521 48.0215 40.3892C48.0786 40.4244 48.0893 40.4158 48.0559 40.3617C48.0259 40.3131 48.0836 40.2041 48.207 40.0769C48.3434 39.9361 48.3759 39.8707 48.3093 39.8707C48.2558 39.8707 48.2086 39.8874 48.2044 39.9078ZM48.4845 40.0103C48.4435 40.0541 48.4297 40.1101 48.4538 40.1346C48.4779 40.159 48.4539 40.1692 48.4004 40.1572C48.3471 40.1451 48.2958 40.1638 48.2864 40.1987C48.2772 40.2336 48.1847 40.3498 48.0809 40.4568C47.9772 40.5638 47.9142 40.6756 47.941 40.705C47.9678 40.7345 47.9564 40.7395 47.9155 40.7161C47.8747 40.6928 47.7982 40.7168 47.7455 40.7694C47.6928 40.8221 47.6137 40.8652 47.5695 40.8652C47.524 40.8652 47.5426 40.9067 47.6126 40.9613C47.6979 41.0279 47.7065 41.0524 47.6406 41.0407C47.5883 41.0315 47.5533 41.0618 47.5629 41.108C47.5725 41.1542 47.5506 41.1737 47.5142 41.1512C47.4779 41.1287 47.4659 41.0817 47.4875 41.0466C47.5092 41.0115 47.4668 41.0204 47.3934 41.0663C47.3199 41.1122 47.2598 41.1714 47.2598 41.1979C47.2598 41.2244 47.2605 41.2611 47.2613 41.2795C47.2621 41.2978 47.1907 41.3797 47.1026 41.4613C47.0145 41.543 46.9424 41.626 46.9424 41.6459C46.9424 41.7017 47.2835 41.6273 47.355 41.5559C47.3973 41.5136 47.3835 41.5058 47.3138 41.5323C47.2562 41.5542 47.1903 41.5416 47.1672 41.5043C47.1259 41.4374 47.1986 41.4134 47.3888 41.4309C47.4424 41.4358 47.5471 41.3831 47.6215 41.3138C47.7002 41.2405 47.8144 41.1989 47.8947 41.2144C48.0023 41.2351 48.0176 41.2227 47.9642 41.1584C47.9265 41.1129 47.9124 41.0589 47.933 41.0383C47.9841 40.9873 48.1548 41.0575 48.1193 41.115C48.1036 41.1403 48.1522 41.1565 48.2271 41.1509C48.3021 41.1454 48.3745 41.1075 48.3881 41.0665C48.4112 40.9973 48.33 40.9657 48.1802 40.9856C48.1453 40.9902 48.1715 40.9512 48.2384 40.8989C48.3199 40.8354 48.3849 40.8244 48.4347 40.8657C48.4757 40.8998 48.5343 40.9064 48.5648 40.8805C48.5953 40.8547 48.59 40.8763 48.5529 40.9287C48.5158 40.9811 48.4677 41.0741 48.4458 41.1353C48.4102 41.2351 48.4307 41.2329 48.6422 41.1141C48.7722 41.0411 49.0702 40.8759 49.3045 40.7469L49.7307 40.5125L49.4144 40.4002C49.2406 40.3384 49.0706 40.3051 49.0367 40.3259C49.002 40.3474 48.9916 40.321 49.0129 40.2655C49.0475 40.1752 48.9399 40.1302 48.7626 40.161C48.7338 40.166 48.7249 40.1466 48.7426 40.1178C48.8026 40.0207 48.5666 39.9224 48.4845 40.0103ZM48.7272 40.3416C48.7561 40.5244 48.5673 40.6596 48.3389 40.6195C48.2865 40.6103 48.3103 40.6509 48.3918 40.7096C48.5009 40.7882 48.5587 40.7978 48.6108 40.7456C48.6498 40.7067 48.6616 40.6748 48.6372 40.6748C48.6128 40.6748 48.6499 40.6177 48.7197 40.5479C48.8564 40.4112 48.8857 40.2939 48.7832 40.2939C48.7483 40.2939 48.7231 40.3153 48.7272 40.3416ZM53.0243 40.4643C53.07 40.4826 53.1248 40.4803 53.1459 40.4592C53.167 40.4382 53.1295 40.4232 53.0626 40.4259C52.9887 40.429 52.9736 40.444 53.0243 40.4643ZM49.291 40.5479C49.291 40.5828 49.3213 40.6113 49.3582 40.6113C49.3952 40.6113 49.4078 40.5828 49.3862 40.5479C49.3647 40.5129 49.3344 40.4844 49.319 40.4844C49.3036 40.4844 49.291 40.5129 49.291 40.5479ZM52.5767 40.5293C52.6557 40.5444 52.7699 40.5439 52.8306 40.528C52.8913 40.5121 52.8267 40.4997 52.687 40.5004C52.5474 40.5011 52.4977 40.5141 52.5767 40.5293ZM48.7116 40.7859C48.6327 40.8866 48.6349 40.8888 48.7356 40.8099C48.8414 40.7269 48.8749 40.6748 48.8227 40.6748C48.8095 40.6748 48.7595 40.7248 48.7116 40.7859ZM51.8131 40.9366C51.8562 40.98 51.9075 40.9995 51.9269 40.9799C51.9465 40.9604 51.9113 40.9249 51.8487 40.901C51.7582 40.8666 51.7509 40.8739 51.8131 40.9366ZM48.625 40.9915C48.6027 41.0274 48.6282 41.0381 48.6847 41.0164C48.7946 40.9742 48.8148 40.9287 48.7235 40.9287C48.6906 40.9287 48.6463 40.957 48.625 40.9915ZM48.2119 42.0675C48.2119 42.1045 48.2405 42.1348 48.2754 42.1348C48.3103 42.1348 48.3389 42.1753 48.3389 42.2247C48.3389 42.2742 48.3746 42.329 48.4182 42.3467C48.4677 42.3666 48.4578 42.3805 48.3917 42.3837C48.3336 42.3864 48.2691 42.4244 48.2485 42.468C48.228 42.5117 48.2247 42.4748 48.2411 42.3861C48.2645 42.2604 48.2439 42.2229 48.1476 42.2156C48.0796 42.2105 48.0047 42.2375 47.9812 42.2756C47.9566 42.3155 47.9676 42.3268 48.0073 42.3022C48.0452 42.2788 48.093 42.2869 48.1136 42.3202C48.1351 42.355 48.0836 42.3685 47.9927 42.352C47.8735 42.3304 47.8431 42.3461 47.8696 42.4155C47.8895 42.4672 47.9515 42.4928 48.0109 42.4739C48.0965 42.4466 48.0996 42.4523 48.0269 42.504C47.9775 42.539 47.8853 42.5578 47.8219 42.5456C47.7586 42.5334 47.6899 42.5507 47.6693 42.5841C47.6487 42.6174 47.6056 42.6284 47.5735 42.6086C47.5408 42.5884 47.534 42.6229 47.558 42.6869C47.5971 42.791 47.5898 42.7928 47.4779 42.7071C47.3574 42.6149 47.3573 42.6157 47.4727 42.7512C47.569 42.8642 47.6115 42.8761 47.7066 42.8167C47.7706 42.7768 47.8049 42.7141 47.783 42.6775C47.7611 42.6408 47.7896 42.6485 47.8464 42.6944C47.9324 42.7642 47.975 42.7613 48.1035 42.6771C48.2328 42.5924 48.269 42.5901 48.3293 42.6628C48.3689 42.7105 48.3801 42.774 48.3542 42.8041C48.3283 42.8341 48.3785 42.8124 48.4658 42.7558C48.5531 42.6991 48.6193 42.6277 48.6129 42.5969C48.6065 42.5662 48.6689 42.541 48.7516 42.541C48.8343 42.541 48.8878 42.5639 48.8705 42.5918C48.8533 42.6197 48.8766 42.643 48.9223 42.6435C48.9826 42.6442 48.9793 42.6614 48.9102 42.7061C48.8578 42.7399 48.8435 42.7698 48.8784 42.7726C48.9133 42.7753 48.8712 42.8058 48.7847 42.8403C48.665 42.888 48.6482 42.9157 48.7141 42.9565C48.7839 42.9996 48.7751 43.0375 48.6686 43.1519C48.5959 43.2298 48.4971 43.2786 48.4489 43.2601C48.4008 43.2416 48.3295 43.2777 48.2904 43.3403C48.2075 43.4732 48.248 43.5378 48.3822 43.4863C48.459 43.4568 48.4608 43.4402 48.3918 43.3964C48.3314 43.3581 48.3492 43.3425 48.4537 43.3418C48.5542 43.3411 48.5853 43.3658 48.5526 43.4202C48.5198 43.4748 48.5382 43.4725 48.6116 43.413C48.6703 43.3654 48.7039 43.3031 48.6863 43.2745C48.6686 43.246 48.6832 43.2047 48.7187 43.1828C48.7542 43.1609 48.7832 43.1748 48.7832 43.2139C48.7832 43.2529 48.8107 43.2679 48.8443 43.2471C48.8831 43.2231 48.8816 43.147 48.8403 43.0384C48.8045 42.9443 48.7964 42.8885 48.8222 42.9143C48.8479 42.94 48.94 42.8966 49.0268 42.8177C49.1135 42.7389 49.1639 42.7101 49.1388 42.7537C49.0873 42.8432 49.2005 42.8647 49.2554 42.7758C49.2748 42.7444 49.3746 42.7245 49.4771 42.7316C49.5796 42.7387 49.6583 42.7144 49.6518 42.6777C49.6454 42.6409 49.7187 42.612 49.8147 42.6133C49.9107 42.6147 49.9893 42.5933 49.9893 42.5657C49.9893 42.5382 50.0797 42.5156 50.1903 42.5156C50.5037 42.5156 50.3704 42.4594 49.9632 42.4199C49.7245 42.3967 49.5635 42.4104 49.5051 42.4589C49.4324 42.5192 49.4228 42.5135 49.455 42.4294C49.4797 42.3652 49.462 42.3232 49.4089 42.3199C49.176 42.3056 48.3865 42.1082 48.2671 42.0345C48.2368 42.0157 48.2119 42.0306 48.2119 42.0675ZM35.8022 42.3983C35.6277 42.4662 35.4563 42.559 35.4214 42.6044C35.3576 42.6873 35.3167 42.7061 35.1992 42.7061C35.1643 42.7061 35.1357 42.7524 35.1357 42.809C35.1357 42.8931 35.1183 42.8976 35.0413 42.8336C34.9648 42.7702 34.9393 42.7747 34.9077 42.8573C34.8862 42.9133 34.843 42.9435 34.8117 42.9241C34.7805 42.9048 34.7549 42.9193 34.7549 42.9562C34.7549 42.9932 34.7335 43.0203 34.7073 43.0166C34.6179 43.0037 34.374 43.1016 34.374 43.1504C34.374 43.1772 34.3196 43.2133 34.2532 43.2307C34.1185 43.2659 32.3554 44.4518 32.0571 44.7077L31.8667 44.8711L32.2476 44.8248C32.7554 44.7629 33.4219 44.7502 33.4219 44.8022C33.4219 44.8253 33.3825 44.9749 33.3343 45.1349C33.2692 45.3513 33.2652 45.4454 33.3185 45.5033C33.3721 45.5615 33.371 45.5704 33.314 45.5383C33.2251 45.4883 33.1045 45.6839 33.1045 45.8779C33.1045 45.9917 33.1232 46.0013 33.2315 45.9433C33.3014 45.9059 33.5595 45.6822 33.8051 45.4461C34.0507 45.2101 34.2626 45.0279 34.276 45.0412C34.2893 45.0546 34.3347 44.9988 34.3767 44.9173C34.4591 44.7574 34.7006 44.4842 35.104 44.0941C35.2436 43.9591 35.3293 43.8477 35.2944 43.8467C35.2595 43.8456 35.2815 43.8153 35.3434 43.7793C35.4052 43.7433 35.4388 43.6864 35.418 43.6527C35.3972 43.6191 35.418 43.5994 35.4643 43.609C35.5156 43.6197 35.5463 43.5702 35.5431 43.4815C35.5395 43.3819 35.5582 43.3571 35.6034 43.4022C35.7122 43.511 35.7925 43.4758 35.6989 43.3604C35.6493 43.2992 35.6441 43.2723 35.6868 43.2979C35.7952 43.363 35.8669 43.2115 35.7628 43.1373C35.695 43.089 35.7004 43.083 35.7864 43.1107C35.8474 43.1303 35.8975 43.1171 35.8975 43.0812C35.8975 43.0453 35.9332 43.0374 35.9768 43.0636C36.0363 43.0994 36.0355 43.0858 35.9737 43.0095C35.9239 42.948 35.9155 42.8929 35.9524 42.87C35.9861 42.8492 36.0267 42.8681 36.0428 42.912C36.0655 42.974 36.0914 42.972 36.1593 42.903C36.2073 42.8543 36.218 42.8302 36.1831 42.8494C36.1482 42.8686 36.1196 42.8193 36.1196 42.7398C36.1196 42.6603 36.1492 42.6066 36.1853 42.6205C36.2743 42.6546 36.5445 42.3964 36.4981 42.3214C36.4415 42.2298 36.1532 42.2617 35.8022 42.3983ZM33.1275 42.6098C32.6339 42.6887 32.1967 42.7739 32.1557 42.7992C32.1148 42.8245 31.9836 43.0459 31.8642 43.2912C31.7449 43.5365 31.6109 43.7816 31.5665 43.8358C31.3873 44.0548 30.4839 44.6676 29.7226 45.0864C29.2784 45.3308 28.915 45.5553 28.915 45.5852C28.915 45.6151 28.9651 45.6196 29.0261 45.5953C29.0872 45.5709 29.7326 45.3551 30.4603 45.1156C31.9318 44.6312 31.8287 44.6907 33.3584 43.4431C34.3781 42.6113 34.3738 42.6153 34.3206 42.5418C34.253 42.4482 34.075 42.4583 33.1275 42.6098ZM48.4609 42.468C48.4267 42.58 48.4208 42.7088 48.4513 42.6783C48.4976 42.632 48.5299 42.4521 48.492 42.4521C48.4776 42.4521 48.4637 42.4593 48.4609 42.468ZM50.4971 42.5156C50.4971 42.5505 50.5542 42.5791 50.624 42.5791C50.6938 42.5791 50.751 42.5505 50.751 42.5156C50.751 42.4807 50.6938 42.4521 50.624 42.4521C50.5542 42.4521 50.4971 42.4807 50.4971 42.5156ZM50.8477 42.5775C50.7349 42.7021 50.6021 42.7163 50.4479 42.6202C50.3961 42.5879 50.3732 42.5999 50.3844 42.6538C50.395 42.7048 50.3458 42.7358 50.259 42.7328C50.1805 42.73 50.1162 42.7495 50.1162 42.7761C50.1162 42.8243 49.854 42.9286 49.8045 42.9001C49.7902 42.8919 49.7531 42.9305 49.722 42.986C49.691 43.0415 49.6027 43.0874 49.5259 43.0879C49.422 43.0886 49.4086 43.103 49.4734 43.1441C49.5232 43.1756 49.6594 43.1744 49.7908 43.1413C50.5121 42.9596 50.5506 42.9446 50.5174 42.8578C50.4955 42.801 50.5277 42.7695 50.6074 42.7695C50.6756 42.7695 50.7824 42.7131 50.8449 42.6441C50.9073 42.5751 50.9876 42.5366 51.0232 42.5587C51.0603 42.5816 51.0686 42.5674 51.0427 42.5255C50.9836 42.4299 50.9805 42.4307 50.8477 42.5775ZM51.5444 42.5156C51.335 42.5388 51.2028 42.5625 51.2507 42.5684C51.3229 42.5773 51.3235 42.5963 51.2545 42.6794C51.2065 42.7374 51.1101 42.768 51.0265 42.7521C50.9455 42.7366 50.8981 42.7508 50.9189 42.7844C50.9579 42.8475 51.1345 42.8244 51.8618 42.6609C52.2024 42.5843 52.2765 42.5493 52.1792 42.511C52.1094 42.4836 52.0237 42.4639 51.9888 42.4673C51.9539 42.4707 51.7539 42.4925 51.5444 42.5156ZM48.698 42.6711C48.6745 42.7325 48.6932 42.7514 48.7543 42.7279C48.8047 42.7086 48.8302 42.6672 48.8108 42.6359C48.7622 42.5572 48.739 42.5644 48.698 42.6711ZM35.4531 42.7061C35.4531 42.741 35.4817 42.7695 35.5166 42.7695C35.5515 42.7695 35.5801 42.741 35.5801 42.7061C35.5801 42.6711 35.5515 42.6426 35.5166 42.6426C35.4817 42.6426 35.4531 42.6711 35.4531 42.7061ZM48.1194 42.8286C48.0993 42.8611 48.1072 42.9027 48.1368 42.9211C48.1665 42.9394 48.1908 42.9128 48.1908 42.862C48.1908 42.7549 48.1707 42.7456 48.1194 42.8286ZM49.2566 42.8373C49.2336 42.8746 49.1757 42.8901 49.1279 42.8719C48.9828 42.8162 48.8737 43.0731 49.0033 43.1653C49.0455 43.1953 49.0405 43.2123 48.9895 43.2129C48.9459 43.2134 48.9102 43.2377 48.9102 43.2667C48.9102 43.2959 48.9523 43.3197 49.0038 43.3197C49.0631 43.3197 49.0929 43.2653 49.0852 43.1715C49.0784 43.0901 49.0458 43.0234 49.0127 43.0234C48.9796 43.0234 48.9675 43.0083 48.986 42.9899C49.0044 42.9715 49.0965 42.9857 49.1906 43.0215C49.2847 43.0573 49.346 43.061 49.3268 43.0299C49.289 42.9688 49.4724 42.8669 49.5767 42.891C49.6116 42.899 49.6008 42.8678 49.5529 42.8216C49.4842 42.7556 49.4594 42.7547 49.4365 42.8171C49.4205 42.8608 49.3795 42.8965 49.3455 42.8965C49.3114 42.8965 49.3012 42.8679 49.3228 42.833C49.3443 42.7981 49.3477 42.7695 49.3302 42.7695C49.3128 42.7695 49.2797 42.8001 49.2566 42.8373ZM48.0768 43.1345C47.9979 43.2352 48.0002 43.2374 48.1008 43.1585C48.2066 43.0756 48.2402 43.0234 48.1879 43.0234C48.1748 43.0234 48.1248 43.0735 48.0768 43.1345ZM35.0786 43.8039C34.9983 43.9376 34.9997 43.939 35.109 43.8343C35.1719 43.774 35.2098 43.711 35.1931 43.6943C35.1764 43.6776 35.1249 43.7269 35.0786 43.8039ZM47.5771 43.9136C47.455 43.9766 47.2487 44.1266 47.1187 44.2469C46.9887 44.3672 46.8611 44.4482 46.8351 44.4269C46.8091 44.4056 46.8262 44.4382 46.8729 44.4993C46.9197 44.5603 46.933 44.6137 46.9025 44.6177C46.8721 44.6217 46.8068 44.6288 46.7574 44.6335C46.708 44.6382 46.6544 44.6818 46.6381 44.7303C46.6184 44.7891 46.6357 44.8017 46.6901 44.7681C46.7454 44.7339 46.756 44.7429 46.7231 44.7961C46.6939 44.8432 46.6128 44.8591 46.5195 44.8356C46.377 44.7998 46.3704 44.8078 46.4376 44.9333C46.4821 45.0166 46.485 45.0541 46.4448 45.0293C46.4085 45.0069 46.3531 45.0346 46.3217 45.0908C46.2902 45.147 46.2456 45.1905 46.2226 45.1874C46.0957 45.1701 46.067 45.1924 46.0862 45.2927C46.0979 45.3538 46.1096 45.4269 46.1123 45.4552C46.115 45.4834 46.1438 45.4901 46.1763 45.47C46.2088 45.4499 46.2537 45.4632 46.2762 45.4995C46.2987 45.5359 46.2828 45.5578 46.2409 45.5482C46.1991 45.5386 46.1504 45.5704 46.1327 45.6189C46.1105 45.6802 46.1274 45.691 46.1883 45.6544C46.2626 45.6097 46.2625 45.6181 46.1881 45.7098C46.1213 45.7922 46.0798 45.8009 46.0142 45.7465C45.9669 45.7072 45.9466 45.6453 45.969 45.609C45.9928 45.5706 45.9791 45.5619 45.9364 45.5883C45.885 45.62 45.8821 45.6694 45.9266 45.7526C46.0133 45.9145 46.0068 45.9457 45.8954 45.903C45.8432 45.8829 45.8161 45.8414 45.8352 45.8105C45.8543 45.7797 45.8247 45.7717 45.7695 45.7929C45.6786 45.8278 45.6788 45.8385 45.7719 45.9066C45.8658 45.9753 45.866 45.9891 45.7738 46.0656C45.6583 46.1614 45.6355 46.2913 45.7462 46.223C45.7881 46.197 45.8023 46.2053 45.7794 46.2424C45.7574 46.2779 45.6673 46.2992 45.5792 46.2895C45.3917 46.2689 45.36 46.4105 45.53 46.5096C45.5911 46.5452 45.6148 46.5751 45.5827 46.5762C45.5505 46.5772 45.4713 46.5303 45.4066 46.4717C45.3141 46.3881 45.2724 46.3819 45.2117 46.4426C45.1509 46.5034 45.1546 46.5327 45.229 46.5798C45.3018 46.6258 45.2833 46.6399 45.1492 46.6406C45.0531 46.6412 44.9746 46.6719 44.9746 46.7088C44.9746 46.7458 45.0076 46.7557 45.0479 46.7308C45.0933 46.7027 45.104 46.7133 45.0759 46.7587C45.051 46.799 44.9891 46.832 44.9386 46.832C44.8879 46.832 44.7641 46.9106 44.6633 47.0066C44.5625 47.1026 44.3904 47.2608 44.2808 47.3582C44.1707 47.456 44.1011 47.5669 44.1253 47.606C44.1507 47.6473 44.1404 47.6591 44.1004 47.6344C44.0618 47.6106 43.8044 47.8486 43.5104 48.1801C43.2236 48.5034 42.8917 48.8654 42.7728 48.9845C42.6369 49.1205 42.5708 49.2376 42.5947 49.2999C42.6156 49.3544 42.6119 49.3781 42.5864 49.3527C42.561 49.3273 42.4741 49.3685 42.3935 49.4443C42.2729 49.5576 42.2607 49.5995 42.3252 49.6793C42.3806 49.7477 42.3817 49.7631 42.3288 49.7313C42.2865 49.7059 42.2148 49.7419 42.1644 49.814C42.1152 49.8842 42.0516 49.9204 42.023 49.8944C41.9944 49.8684 41.9889 49.8972 42.0108 49.9583C42.0372 50.0317 42.0191 50.0693 41.9575 50.0693C41.9062 50.0693 41.8643 50.0925 41.8643 50.1208C41.8643 50.1492 41.8142 50.2292 41.7532 50.2986C41.5819 50.4933 41.4753 50.7032 41.515 50.7674C41.5348 50.7993 41.4772 50.8738 41.387 50.9329C41.2962 50.9923 41.2378 51.0786 41.256 51.1261C41.2742 51.1733 41.2613 51.2119 41.2275 51.2119C41.1937 51.2119 41.166 51.2398 41.166 51.2741C41.166 51.3573 41.4749 51.2232 41.6604 51.0594C41.7404 50.9889 41.9485 50.7087 42.1229 50.4368C42.2974 50.1649 42.4676 49.9424 42.5012 49.9424C42.5821 49.9424 42.5798 50.0511 42.498 50.1017C42.4625 50.1237 42.4501 50.1684 42.4703 50.2012C42.4906 50.234 42.4411 50.2874 42.3603 50.3198C42.2777 50.3529 42.2551 50.3809 42.3086 50.3837C42.365 50.3866 42.3779 50.4077 42.3403 50.4353C42.2673 50.489 42.1514 50.666 42.0396 50.8945C41.997 50.9818 41.9376 51.0707 41.9077 51.0921C41.8665 51.1215 41.5567 53.5027 41.5494 53.8462C41.5486 53.8811 41.6426 53.6353 41.7583 53.2999C42.019 52.5435 42.2638 52.1142 42.4628 52.0643C42.783 51.984 43.2504 52.3758 43.8475 53.2249C44.0245 53.4767 44.1978 53.6651 44.2327 53.6435C44.2675 53.622 44.2774 53.6346 44.2546 53.6714C44.2318 53.7082 44.4522 54.2053 44.7443 54.7762C45.0364 55.347 45.3847 56.0773 45.5184 56.3992C45.652 56.721 45.7698 56.9759 45.7803 56.9656C45.7906 56.9551 45.6529 56.4919 45.4744 55.936C45.2957 55.3801 45.0317 54.5226 44.8875 54.0303C44.7434 53.5381 44.6017 53.1335 44.5726 53.1311C44.4824 53.1238 44.4409 53.0527 44.5268 53.0527C44.5865 53.0527 44.5956 52.99 44.5612 52.8147C44.5355 52.6838 44.5171 52.2767 44.5202 51.9102C44.5265 51.194 44.5677 50.8335 44.6919 50.4098C44.714 50.3347 44.6997 50.2543 44.66 50.2297C44.5841 50.1828 44.3875 50.3091 44.4291 50.378C44.4425 50.4002 44.4136 50.4553 44.3649 50.5003C44.2321 50.623 44.2583 50.4902 44.4033 50.3059C44.4731 50.2172 44.5303 50.1164 44.5303 50.082C44.5303 50.0476 44.5713 50.0037 44.6216 49.9844C44.7606 49.9311 44.9226 49.2137 45.0681 48.0063C45.1225 47.5552 45.1543 47.4788 45.3074 47.4302C45.4349 47.3897 45.8531 47.3521 46.2699 47.3436C46.4494 47.34 46.4513 47.3366 46.3407 47.2144C46.2783 47.1454 46.1953 47.108 46.1563 47.1314C46.1068 47.161 46.1073 47.1462 46.1582 47.0823C46.2148 47.011 46.1995 46.9451 46.0889 46.785C46.0107 46.6718 45.9316 46.5944 45.9131 46.6129C45.8946 46.6314 45.8642 46.5883 45.8456 46.5172C45.8269 46.446 45.8376 46.3877 45.8692 46.3877C45.9009 46.3877 45.9268 46.4163 45.9268 46.4512C45.9268 46.4861 45.9713 46.5146 46.0257 46.5146C46.0801 46.5146 46.107 46.5432 46.0854 46.5781C46.0639 46.613 46.0955 46.6416 46.1558 46.6416C46.216 46.6416 46.2465 46.6604 46.2235 46.6834C46.2005 46.7063 46.2121 46.7616 46.2491 46.8063C46.3168 46.8878 46.9504 46.8826 47.9572 46.7922L48.369 46.7552L48.1794 46.604C48.0751 46.5208 47.8366 46.3706 47.6495 46.2701L47.3092 46.0876L47.586 45.9353C47.829 45.8016 47.8653 45.7533 47.8829 45.5395C47.8939 45.4055 47.8796 45.3103 47.8511 45.3279C47.8226 45.3455 47.7959 45.2984 47.7917 45.2232C47.7723 44.8741 47.6953 44.3896 47.6543 44.3589C47.5626 44.29 47.5909 44.1118 47.6876 44.1489C47.7614 44.1772 47.7721 44.1534 47.7363 44.0407C47.7051 43.9421 47.7128 43.91 47.7608 43.9397C47.8007 43.9643 47.8311 43.9403 47.8311 43.8841C47.8311 43.8297 47.8239 43.7883 47.8152 43.7921C47.8064 43.7959 47.6993 43.8505 47.5771 43.9136ZM33.9686 44.1142C33.9869 44.1438 34.0285 44.1517 34.061 44.1315C34.144 44.0803 34.1347 44.0602 34.0277 44.0602C33.9769 44.0602 33.9503 44.0845 33.9686 44.1142ZM53.1461 44.1104C53.1892 44.1538 53.2405 44.1733 53.26 44.1538C53.2795 44.1342 53.2443 44.0987 53.1817 44.0749C53.0912 44.0405 53.0839 44.0477 53.1461 44.1104ZM47.3867 44.293C47.3295 44.3299 47.3217 44.3549 47.3671 44.3555C47.4087 44.356 47.4604 44.3279 47.4819 44.293C47.5306 44.2141 47.5087 44.2141 47.3867 44.293ZM34.5563 44.7214C34.4774 44.8221 34.4796 44.8243 34.5803 44.7454C34.6861 44.6625 34.7197 44.6104 34.6674 44.6104C34.6543 44.6104 34.6043 44.6604 34.5563 44.7214ZM47.4873 44.7921C47.4657 44.827 47.4776 44.8737 47.5137 44.896C47.5497 44.9183 47.5601 44.9675 47.5367 45.0054C47.5125 45.0445 47.5233 45.0562 47.5617 45.0325C47.6308 44.9898 47.6322 44.8347 47.5642 44.7666C47.5434 44.7459 47.5088 44.7574 47.4873 44.7921ZM47.1792 45.0496C47.1516 45.1552 47.1599 45.18 47.207 45.1329C47.2439 45.0959 47.2615 45.0283 47.2463 44.9825C47.2304 44.935 47.2017 44.9638 47.1792 45.0496ZM33.5976 45.0867C33.4593 45.1961 33.4784 45.2983 33.6303 45.2612C33.7077 45.2423 33.8022 45.2026 33.8403 45.173C33.8785 45.1434 33.9249 45.1345 33.9435 45.1532C33.9622 45.1719 33.9916 45.1502 34.009 45.105C34.0473 45.0052 33.7191 44.9906 33.5976 45.0867ZM46.9635 45.2106C46.9635 45.2614 46.9878 45.288 47.0175 45.2697C47.0471 45.2513 47.055 45.2098 47.0349 45.1773C46.9836 45.0942 46.9635 45.1036 46.9635 45.2106ZM28.6135 45.6914C28.5349 45.723 28.4707 45.7614 28.4707 45.7767C28.4707 45.8239 28.7245 45.741 28.7611 45.6818C28.8015 45.6165 28.7998 45.6166 28.6135 45.6914ZM52.5918 45.785C52.5918 45.82 52.9485 46.0068 53.0154 46.0068C53.0802 46.0068 52.8442 45.8485 52.7029 45.7972C52.6418 45.775 52.5918 45.7696 52.5918 45.785ZM32.9886 46.3442C32.8303 46.5127 32.8018 46.6342 32.9493 46.5118C33.0457 46.4317 33.195 46.1973 33.1495 46.1973C33.1369 46.1973 33.0645 46.2634 32.9886 46.3442ZM45.0804 47.0013C45.0571 47.0246 45.0381 47.1014 45.0381 47.1721C45.0381 47.2988 45.0395 47.2988 45.1313 47.1774C45.1826 47.1097 45.2254 47.0328 45.2265 47.0066C45.229 46.9476 45.1374 46.9443 45.0804 47.0013ZM44.889 47.1156C44.8693 47.1669 44.8746 47.222 44.9007 47.2382C44.9269 47.2543 44.9524 47.2124 44.9575 47.145C44.9685 46.9992 44.9386 46.9864 44.889 47.1156ZM45.2298 47.2462C45.274 47.2993 45.3232 47.3298 45.3392 47.3139C45.3831 47.2698 45.2937 47.1494 45.217 47.1494C45.1749 47.1494 45.1797 47.1858 45.2298 47.2462ZM49.103 47.6456C49.251 47.7742 49.4896 47.957 49.6332 48.0517C49.7766 48.1466 50.0181 48.3162 50.1698 48.4288C50.3282 48.5463 50.5385 48.6407 50.6638 48.6506C50.7837 48.6601 50.9095 48.6849 50.9434 48.7058C50.9772 48.7267 51.0049 48.7292 51.0049 48.7112C51.0049 48.6932 50.8049 48.5597 50.5605 48.4146C50.3162 48.2693 50.1162 48.1391 50.1162 48.125C50.1162 48.111 50.2661 48.1748 50.4495 48.2668C50.8572 48.4716 50.8273 48.4325 50.3344 48.1165C49.9126 47.846 49.2104 47.4975 48.983 47.4458C48.8624 47.4184 48.8855 47.4567 49.103 47.6456ZM43.5744 47.8657C43.3454 48.0827 43.1026 48.3308 43.0348 48.417C42.9671 48.5032 43.1615 48.3319 43.467 48.0362C43.7725 47.7404 44.0225 47.4914 44.0225 47.4827C44.0225 47.4458 43.9705 47.4903 43.5744 47.8657ZM44.6255 47.6572C44.6471 47.6921 44.6773 47.7207 44.6927 47.7207C44.7081 47.7207 44.7207 47.6921 44.7207 47.6572C44.7207 47.6223 44.6904 47.5938 44.6535 47.5938C44.6165 47.5938 44.6039 47.6223 44.6255 47.6572ZM26.6414 48.5844C26.4906 48.6748 26.3809 48.7624 26.3975 48.779C26.4268 48.8083 26.9473 48.4895 26.9473 48.4422C26.9473 48.4038 26.9269 48.4134 26.6414 48.5844ZM42.8081 49.4187C42.728 49.5497 42.6243 49.6958 42.5777 49.7436C42.5311 49.7914 42.511 49.8485 42.5329 49.8705C42.5549 49.8925 42.6156 49.8534 42.6679 49.7836C42.7886 49.6223 43.0184 49.1807 42.9816 49.1807C42.9663 49.1807 42.8882 49.2878 42.8081 49.4187ZM43.6733 49.2441C43.6518 49.2791 43.6644 49.3076 43.7013 49.3076C43.7383 49.3076 43.7686 49.2791 43.7686 49.2441C43.7686 49.2092 43.756 49.1807 43.7406 49.1807C43.7251 49.1807 43.6949 49.2092 43.6733 49.2441ZM44.2764 49.7202C44.3584 49.8075 44.4361 49.8789 44.4491 49.8789C44.5018 49.8789 44.2402 49.5653 44.186 49.5635C44.1537 49.5624 44.1944 49.6329 44.2764 49.7202ZM51.957 49.7759C51.957 49.7891 52.0071 49.8391 52.0681 49.887C52.1688 49.9659 52.171 49.9637 52.0921 49.863C52.0091 49.7573 51.957 49.7237 51.957 49.7759ZM42.1816 49.8827C42.1816 49.9196 42.2102 49.9322 42.2451 49.9106C42.28 49.8891 42.3086 49.8588 42.3086 49.8434C42.3086 49.828 42.28 49.8154 42.2451 49.8154C42.2102 49.8154 42.1816 49.8457 42.1816 49.8827ZM43.2317 49.938C43.2116 49.9705 43.2195 50.0121 43.2491 50.0304C43.2788 50.0488 43.3031 50.0222 43.3031 49.9713C43.3031 49.8643 43.283 49.855 43.2317 49.938ZM39.6426 50.4502C39.6426 50.4851 39.6729 50.5137 39.7098 50.5137C39.7467 50.5137 39.7594 50.4851 39.7378 50.4502C39.7162 50.4153 39.686 50.3867 39.6706 50.3867C39.6551 50.3867 39.6426 50.4153 39.6426 50.4502ZM50.9097 50.8311C50.9728 50.9009 51.0388 50.958 51.0563 50.958C51.0738 50.958 51.0363 50.9009 50.9731 50.8311C50.91 50.7612 50.844 50.7041 50.8265 50.7041C50.8091 50.7041 50.8465 50.7612 50.9097 50.8311ZM32.5638 51.0292C32.3899 51.173 32.119 51.3789 31.9619 51.4866C31.7094 51.6598 31.0314 52.1879 30.9463 52.2777C30.9288 52.2962 30.9646 52.2933 31.0256 52.2714C31.0867 52.2494 31.1367 52.2533 31.1367 52.28C31.1367 52.3287 30.6831 52.6862 30.3591 52.8926C30.2632 52.9538 30.1846 53.0305 30.1846 53.063C30.1846 53.0956 30.2988 53.0304 30.4385 52.9182C30.5781 52.8059 30.7056 52.7274 30.7218 52.7437C30.7534 52.7752 30.6277 52.9249 30.0637 53.5274C29.7786 53.8319 29.8104 53.81 30.2249 53.4163C30.5089 53.1465 30.7644 52.9258 30.7927 52.9258C30.8466 52.9258 30.7036 53.0894 29.9635 53.8742C29.1985 54.6854 29.726 54.2202 30.7048 53.2204C31.2178 52.6963 31.6278 52.2514 31.616 52.2317C31.6041 52.2119 31.6375 52.1559 31.6902 52.1072C31.7738 52.0298 31.7804 52.036 31.7423 52.1559C31.7051 52.2733 32.1396 51.8558 32.4562 51.4701C32.7347 51.1307 32.8506 50.9625 32.8506 50.8975C32.8506 50.8568 32.8836 50.8439 32.9239 50.8688C32.9693 50.8969 32.98 50.8863 32.9518 50.8409C32.8931 50.7457 32.9255 50.73 32.5638 51.0292ZM43.912 50.9934C43.8624 51.0468 43.8566 51.0926 43.8961 51.1171C43.9307 51.1385 43.961 51.1185 43.9634 51.0728C43.9659 51.0271 43.9924 51.0469 44.0225 51.1167C44.0585 51.2004 44.0782 51.2112 44.0805 51.1484C44.0867 50.9791 43.9996 50.899 43.912 50.9934ZM30.9382 51.2595C30.8593 51.3602 30.8615 51.3624 30.9622 51.2835C31.0232 51.2356 31.0732 51.1856 31.0732 51.1724C31.0732 51.1202 31.0211 51.1538 30.9382 51.2595ZM27.6743 52.048L27.4233 52.3128L27.7249 52.0721C27.8907 51.9397 28.0264 51.8205 28.0264 51.8073C28.0264 51.7261 27.8927 51.8175 27.6743 52.048ZM47.1198 52.1006C47.2223 52.2577 47.3785 52.5291 47.467 52.7036C47.6597 53.084 47.9566 53.4581 48.0862 53.4842C48.1379 53.4947 48.2516 53.5814 48.3389 53.6772C48.5471 53.9054 48.4943 53.8204 48.0622 53.2307C47.6538 52.6735 47.5989 52.5353 47.9306 52.8993C48.2529 53.253 48.1314 53.0449 47.6608 52.437C47.2518 51.9087 47.0556 51.7107 47.1899 51.9618C47.3092 52.1845 47.2665 52.2044 47.0963 52.0054C46.9533 51.8382 46.9562 51.8499 47.1198 52.1006ZM39.9587 52.0704C39.9145 52.1236 39.8907 52.1794 39.9057 52.1945C39.9207 52.2094 39.9679 52.166 40.0105 52.0977C40.1027 51.9501 40.0719 51.934 39.9587 52.0704ZM27.2269 52.2434L27.106 52.3862L27.2488 52.2653C27.383 52.1517 27.4205 52.1006 27.3697 52.1006C27.3576 52.1006 27.2934 52.1649 27.2269 52.2434ZM39.4476 52.6254C39.258 52.8407 39.1018 53.0463 39.1002 53.0824C39.0986 53.1184 39.0557 53.1387 39.005 53.1276C38.9322 53.1115 38.929 53.1238 38.9898 53.1858C39.051 53.2481 39.1172 53.2074 39.3072 52.9905C39.4393 52.8398 39.5486 52.6851 39.5502 52.6466C39.5518 52.6081 39.5947 52.5862 39.6454 52.5978C39.6962 52.6095 39.7176 52.5987 39.6929 52.5741C39.6682 52.5494 39.7085 52.4801 39.7825 52.4202C39.8578 52.3593 39.8896 52.2942 39.8546 52.2726C39.8203 52.2513 39.6371 52.4101 39.4476 52.6254ZM38.4919 52.4656C38.413 52.5662 38.4152 52.5685 38.5159 52.4896C38.6216 52.4066 38.6552 52.3545 38.603 52.3545C38.5898 52.3545 38.5398 52.4045 38.4919 52.4656ZM38.7081 52.5397C38.7279 52.609 38.4863 52.9248 38.4368 52.8942C38.4096 52.8774 38.3543 52.9037 38.3137 52.9526C38.2571 53.0207 38.2592 53.0534 38.3223 53.0929C38.4846 53.1942 38.57 53.1714 38.5507 53.0317C38.54 52.9538 38.5635 52.9001 38.605 52.9079C38.6453 52.9155 38.7167 52.8743 38.7637 52.8163C38.8238 52.7422 38.8256 52.7251 38.7698 52.7586C38.7257 52.7852 38.6904 52.7756 38.6904 52.7371C38.6904 52.699 38.7333 52.6514 38.7856 52.6314C38.907 52.5848 38.9092 52.5026 38.7892 52.5026C38.7387 52.5026 38.7022 52.5193 38.7081 52.5397ZM38.2718 52.7512L38.1509 52.894L38.2937 52.7731C38.4279 52.6595 38.4654 52.6084 38.4146 52.6084C38.4026 52.6084 38.3383 52.6727 38.2718 52.7512ZM37.7493 53.5764C37.5287 53.8645 37.3322 54.0899 37.3124 54.0773C37.2738 54.0529 36.8754 54.5341 36.8306 54.6594C36.8157 54.7009 36.7829 54.7158 36.7577 54.6924C36.7324 54.6691 36.8586 54.4549 37.0381 54.2163L37.3643 53.7827L37.0707 54.1001C36.2543 54.9824 35.6705 55.9346 35.4433 56.7543C35.377 56.9939 35.2504 57.3325 35.1621 57.5068C34.8837 58.0561 35.0237 57.9569 35.5166 57.2555C35.8165 56.8287 36.3101 56.2604 36.8504 55.7199C38.1977 54.3722 38.4542 54.0868 38.3671 54.0329C38.3197 54.0036 38.3064 54.0118 38.3326 54.0541C38.356 54.092 38.3461 54.141 38.3106 54.1629C38.2751 54.1848 38.2452 54.1654 38.2441 54.1197C38.2428 54.0676 38.208 54.0816 38.1509 54.157C38.1007 54.2233 38.078 54.309 38.1004 54.3475C38.1227 54.386 38.0861 54.3695 38.0189 54.3109C37.9293 54.2326 37.8671 54.221 37.7845 54.2672C37.7227 54.3018 37.6916 54.364 37.7154 54.4055C37.7392 54.447 37.7354 54.4599 37.7071 54.4344C37.6788 54.4087 37.6228 54.4327 37.5825 54.4877C37.5168 54.5776 37.5002 54.5759 37.4175 54.4708C37.3347 54.3655 37.3358 54.3619 37.4293 54.435C37.5159 54.5025 37.5412 54.4973 37.5826 54.4033C37.6098 54.3412 37.6346 54.263 37.6376 54.2293C37.6406 54.1956 37.7202 54.1671 37.8145 54.1659C37.9087 54.1646 38.0216 54.1279 38.0652 54.0842C38.1287 54.0208 38.1279 54.0049 38.0613 54.0049C38.0149 54.0049 38.0444 53.9487 38.128 53.8778C38.2104 53.8079 38.234 53.7658 38.1803 53.7842C38.1146 53.8067 38.0829 53.7773 38.0829 53.6937C38.0829 53.6256 38.0998 53.5803 38.1206 53.5932C38.1414 53.6061 38.2327 53.5378 38.3235 53.4416C38.4794 53.2764 38.4821 53.2625 38.3728 53.1942C38.2182 53.0977 38.0813 53.2384 38.2 53.3718C38.2647 53.4444 38.2608 53.4464 38.1768 53.3834C38.1212 53.3418 38.0528 53.3289 38.0248 53.3548C37.9968 53.3807 38.0242 53.3233 38.0856 53.2273C38.2915 52.9053 38.1536 53.0484 37.7493 53.5764ZM27.6712 53.3165L27.5503 53.4533L27.7249 53.3409C27.9049 53.2251 27.9389 53.1797 27.8458 53.1797C27.8163 53.1797 27.7377 53.2413 27.6712 53.3165ZM46.9424 53.6838C46.9424 53.7166 46.9706 53.7609 47.0052 53.7823C47.0411 53.8045 47.0518 53.779 47.0301 53.7225C46.9879 53.6126 46.9424 53.5925 46.9424 53.6838ZM32.8014 53.8621C32.5276 54.1021 31.6699 55.128 31.5676 55.3379C31.5081 55.4601 31.3539 55.7029 31.2249 55.8774C31.0532 56.1099 31.1371 56.042 31.5383 55.6235C31.9928 55.1497 33.0517 53.751 32.956 53.751C32.9407 53.751 32.8711 53.801 32.8014 53.8621ZM37.7936 53.989C37.7147 54.0897 37.717 54.0919 37.8176 54.013C37.9234 53.93 37.957 53.8779 37.9047 53.8779C37.8916 53.8779 37.8416 53.9279 37.7936 53.989ZM29.6052 54.0525C29.5263 54.1532 29.5285 54.1554 29.6292 54.0765C29.7349 53.9935 29.7685 53.9414 29.7162 53.9414C29.7031 53.9414 29.6531 53.9914 29.6052 54.0525ZM37.897 54.4492C37.9186 54.4841 37.9488 54.5127 37.9642 54.5127C37.9796 54.5127 37.9922 54.4841 37.9922 54.4492C37.9922 54.4143 37.9619 54.3857 37.925 54.3857C37.888 54.3857 37.8754 54.4143 37.897 54.4492ZM48.3389 54.4492C48.3389 54.4841 48.3691 54.5127 48.4061 54.5127C48.443 54.5127 48.4557 54.4841 48.4341 54.4492C48.4125 54.4143 48.3823 54.3857 48.3669 54.3857C48.3514 54.3857 48.3389 54.4143 48.3389 54.4492ZM37.0843 54.9156C37.0571 54.9864 37.0821 55.0051 37.1792 54.9864C37.3475 54.954 37.3834 54.9171 37.2982 54.8644C37.2609 54.8414 37.23 54.86 37.2295 54.9057C37.2287 54.973 37.2183 54.9726 37.1749 54.9041C37.1313 54.8353 37.1142 54.8375 37.0843 54.9156ZM53.0044 55.5283C53.0676 55.5981 53.1336 55.6553 53.151 55.6553C53.1685 55.6553 53.131 55.5981 53.0679 55.5283C53.0047 55.4585 52.9387 55.4014 52.9212 55.4014C52.9038 55.4014 52.9412 55.4585 53.0044 55.5283ZM27.5942 55.7582L27.2964 56.0514L27.5564 55.8557C27.8285 55.651 28.0089 55.4648 27.9352 55.4648C27.9115 55.4648 27.758 55.5968 27.5942 55.7582ZM37.5507 55.9605C37.4095 56.1982 37.2939 56.4147 37.2939 56.4417C37.2939 56.4687 37.188 56.6242 37.0584 56.7872C36.8403 57.0617 36.8375 57.0702 37.0204 56.9032L37.2177 56.7228L37.0657 57.1571C36.8874 57.6663 36.8765 57.7556 37.0135 57.5876C37.1194 57.4576 37.1197 57.452 37.0023 57.7976C36.9705 57.8912 36.9754 57.8936 37.0331 57.8135C37.0708 57.7611 37.1484 57.5754 37.2056 57.4009C37.2628 57.2263 37.4059 56.8479 37.5236 56.5599C37.7197 56.0801 37.8834 55.5283 37.8296 55.5283C37.8174 55.5283 37.6919 55.7228 37.5507 55.9605ZM35.7705 56.1631C35.7705 56.198 35.7991 56.2266 35.834 56.2266C35.8689 56.2266 35.8975 56.198 35.8975 56.1631C35.8975 56.1282 35.8689 56.0996 35.834 56.0996C35.7991 56.0996 35.7705 56.1282 35.7705 56.1631ZM36.8551 57.8135C36.8531 57.8658 36.8793 57.9515 36.9131 58.0039C36.9881 58.1199 36.9881 58.0197 36.9131 57.8452C36.8771 57.7615 36.8574 57.7507 36.8551 57.8135ZM49.134 58.2578C49.421 58.9256 49.4789 59.1523 49.2581 58.7435C48.939 58.153 49.0409 58.4967 49.45 59.3914C49.6768 59.8873 49.8623 60.3152 49.8623 60.3424C49.8623 60.3696 49.9045 60.4472 49.9559 60.515C50.0074 60.5827 49.936 60.3572 49.7972 60.0139C49.5138 59.3127 49.4909 59.2206 49.6681 59.4956C50.0389 60.0707 49.9977 59.8862 49.5407 58.9243C48.987 57.7588 48.7586 57.3846 49.134 58.2578ZM46.7539 58.1626C46.7539 58.1975 46.7816 58.2689 46.8154 58.3213C46.8493 58.3737 46.8769 58.3879 46.8769 58.353C46.8769 58.3181 46.8493 58.2467 46.8154 58.1943C46.7816 58.142 46.7539 58.1277 46.7539 58.1626ZM43.3944 58.6069C43.3918 58.6768 43.4301 58.8624 43.4796 59.0195C43.5963 59.3897 43.6025 59.2112 43.4874 58.7974C43.4388 58.6228 43.3969 58.5371 43.3944 58.6069ZM44.0315 59.3687C44.0322 59.5011 44.2003 59.9875 44.2071 59.8765C44.2092 59.8416 44.1705 59.6844 44.121 59.5273C44.0715 59.3702 44.0312 59.2988 44.0315 59.3687ZM47.3917 60.3261C47.3948 60.4 47.4098 60.4151 47.4301 60.3645C47.4484 60.3186 47.4461 60.2639 47.4251 60.2428C47.404 60.2217 47.389 60.2592 47.3917 60.3261ZM33.9102 61.4154C33.5535 62.1782 33.3468 62.8131 33.6261 62.2886C33.7913 61.9783 34.1916 60.9742 34.1619 60.9445C34.1501 60.9327 34.0369 61.1446 33.9102 61.4154ZM39.9282 61.3682C39.9044 61.4433 39.8992 61.519 39.9166 61.5364C39.9341 61.5539 39.9679 61.5067 39.9917 61.4316C40.0155 61.3565 40.0208 61.2808 40.0033 61.2634C39.9859 61.2459 39.952 61.2931 39.9282 61.3682ZM6.11185 73.9814C6.19081 73.9966 6.30507 73.996 6.36575 73.9801C6.42644 73.9643 6.36182 73.9518 6.22217 73.9525C6.08252 73.9532 6.03288 73.9662 6.11185 73.9814ZM6.87496 73.9834C7.05936 73.9963 7.34501 73.9961 7.50973 73.9831C7.67439 73.97 7.52344 73.9596 7.17432 73.9597C6.8252 73.9599 6.6905 73.9705 6.87496 73.9834Z" fill="white"/>
</svg>
