<svg width="83" height="82" viewBox="0 0 83 82" fill="none" xmlns="http://www.w3.org/2000/svg">
<mask id="path-1-inside-1_938_1407" fill="white">
<path d="M36.5153 3.37235C36.6286 3.72653 36.5617 3.85053 36.2157 3.91141L35.9159 3.96034L36.0932 4.07953C36.2124 4.16556 36.2497 4.21948 36.2165 4.25269C36.1667 4.30252 35.5462 4.6037 35.182 4.76262C35.0871 4.80054 35.0315 4.93595 34.9987 5.18544L34.9409 5.55113L33.9491 6.5771C33.4042 7.14484 32.9496 7.6451 32.949 7.70267C32.9386 7.75869 32.7398 7.99168 32.4876 8.22108C32.2453 8.45203 31.9043 8.85004 31.7267 9.09599C31.4807 9.45609 31.3229 9.61385 30.996 9.8267C30.6873 10.0328 30.5088 10.2113 30.2721 10.5392C30.1029 10.7769 29.7639 11.2185 29.5184 11.521C29.2771 11.8194 29.0092 12.2241 28.9277 12.4083C28.8041 12.6915 28.7392 12.7678 28.5799 12.8244C28.3102 12.9117 27.635 13.5983 27.1963 14.2308C26.7343 14.8981 25.1059 16.4581 24.3161 16.997C23.8518 17.3131 23.6841 17.4693 23.395 17.8611C22.8401 18.6098 20.5903 20.9851 16.7884 24.8555L15.0602 26.6064L14.8585 26.5459L14.651 26.4796L14.6182 26.7291C14.588 26.9646 14.5231 27.0409 13.8563 27.6279C13.4614 27.9886 12.9866 28.3607 12.8014 28.4661C12.5145 28.6276 12.4081 28.7454 12.0769 29.2362C11.7981 29.6633 11.6268 29.8573 11.4624 29.942C11.107 30.1263 9.58528 31.7848 9.44296 32.1324C9.26428 32.5848 7.95294 33.7479 7.54523 33.8135C7.25112 33.8681 7.01347 34.0373 6.89092 34.2967C6.82964 34.4264 6.80163 34.4316 6.62847 34.3083C6.53048 34.2352 6.32566 34.155 6.18355 34.1374L5.91335 34.0997L5.78288 34.5837C5.67633 34.9753 5.61765 35.091 5.44643 35.1938C5.32814 35.2665 5.17142 35.4004 5.08424 35.4876C4.9986 35.5846 4.84139 35.6848 4.73244 35.7254C4.57318 35.782 4.5 35.8666 4.35254 36.1509C4.25284 36.3418 4.08152 36.6272 3.97147 36.7828C3.79394 37.0288 3.73687 37.0631 3.55535 37.0393C3.43711 37.0207 3.282 37.0732 3.17665 37.1671C3.02824 37.2927 3.00278 37.3752 3.03063 37.6438C3.08224 38.094 2.97629 38.3368 2.60268 38.6192C2.03451 39.0391 2.05371 39.0085 2.19621 39.2423C2.40918 39.5882 2.40602 39.6597 2.16683 39.8191C2.03763 39.9141 1.90787 40.0667 1.85385 40.2119C1.76606 40.448 1.7619 40.4521 1.42273 40.4036C1.24121 40.3798 1.01823 40.3063 0.927493 40.2488L0.765735 40.1368L0.842854 40.4132C0.908072 40.6445 0.88676 40.7228 0.749753 40.8598C0.596139 41.0135 0.595088 41.0373 0.734039 41.1265C1.23592 41.4457 1.40593 41.6406 1.72713 42.2773C2.03383 42.8829 2.06959 42.927 2.93159 43.8554C3.42971 44.3951 3.95269 45.0011 4.12214 45.2536C4.40769 45.6637 4.44916 45.7134 4.67679 45.8165C4.87331 45.9051 4.92878 45.9523 4.97849 46.085C5.02821 46.2178 5.08368 46.2649 5.24339 46.3333C5.39895 46.4058 5.48293 46.4815 5.60521 46.6785C5.73891 46.8869 5.82289 46.9626 6.12725 47.1258C6.78574 47.4937 6.98265 47.7985 7.12218 48.6854C7.17334 49.0106 7.28772 49.4322 7.36904 49.6131L7.52289 49.9496L7.93094 50.1916C8.15752 50.3186 8.74803 50.743 9.2395 51.1182C9.79785 51.552 10.2106 51.8236 10.3262 51.8562C10.4361 51.8831 10.7644 51.954 11.0616 52.0103C11.3587 52.0667 11.6802 52.1557 11.771 52.2132C11.8757 52.2681 12.1826 52.5999 12.5615 53.0535C13.0518 53.6352 13.2871 53.8788 13.6567 54.182C14.086 54.5282 14.1332 54.5837 14.2051 54.7968C14.2672 55.0084 14.2958 55.0369 14.498 55.1312C14.7567 55.2488 16.0449 56.5037 16.3817 56.9651C16.4921 57.117 16.7056 57.4053 16.8533 57.6111C17.0052 57.8128 17.1394 58.0549 17.1507 58.1576C17.1714 58.3194 17.1843 58.3407 17.3622 58.4023C17.5458 58.4696 17.5758 58.508 17.811 59.0255C18.0923 59.6223 18.4877 60.2419 18.7842 60.5384C19.0009 60.755 20.108 61.1647 20.4477 61.1556C20.567 61.1504 20.8045 61.1637 20.9845 61.1776C21.263 61.207 21.3195 61.2303 21.3521 61.346C21.3687 61.4207 21.3178 61.5856 21.2368 61.7122C21.1117 61.8944 21.1075 61.9898 21.1955 62.2439C21.342 62.6561 21.725 63.2882 22.0505 63.6469C22.3019 63.9315 22.3174 63.9387 22.4663 63.8469C22.6111 63.7591 22.6422 63.7736 22.9351 64.0167C23.1114 64.1598 23.4644 64.3883 23.7206 64.5199C24.1478 64.7312 24.209 64.7841 24.4453 65.0952C24.762 65.5198 27.1392 67.8638 27.6748 68.2748C27.8837 68.4422 28.3337 68.8589 28.6773 69.2109C29.1978 69.7396 29.3528 69.8697 29.6499 70.0174C29.9584 70.1764 30.0024 70.2122 30.0853 70.403C30.1418 70.5176 30.3398 70.7986 30.5243 71.0246C30.8902 71.457 32.1219 72.5973 32.6388 72.9814C33.0846 73.311 33.3101 73.553 33.3836 73.776C33.4452 73.9539 33.4851 73.9938 33.8952 74.2794C34.3152 74.5665 34.3836 74.6349 34.9387 75.3228C35.5125 76.0377 35.527 76.0688 35.4719 76.238C35.4225 76.4128 35.494 76.5922 35.577 76.5092C35.5978 76.4884 35.6875 76.4785 35.772 76.4966C35.91 76.5183 35.9328 76.5411 36.0271 76.7433C36.1519 77.0176 36.4557 77.3297 36.7274 77.4685C36.8788 77.5452 36.9373 77.6121 37.0042 77.7619C37.0767 77.9175 37.1337 77.9745 37.3178 78.0755C37.506 78.1724 37.5589 78.2336 37.6371 78.3949C37.7055 78.5546 37.7853 78.6344 38.0393 78.8137C38.2166 78.9329 38.5718 79.205 38.8263 79.418C39.0808 79.631 39.4982 79.9321 39.7377 80.0803C39.9944 80.2456 40.3568 80.5333 40.5947 80.7629C40.8269 80.9868 41.1758 81.3108 41.3806 81.4824L41.7476 81.7996L42.1685 81.3901C42.4965 81.0621 42.6578 80.9578 42.9291 80.8803C43.2705 80.7899 43.3078 80.7525 45.6136 78.4582C48.3179 75.7652 48.3843 75.6988 48.4903 75.456C48.5391 75.3388 48.618 75.2599 48.7077 75.25C48.9095 75.2193 51.0694 73.0365 51.1059 72.8404C51.1168 72.7268 51.1973 72.6578 51.4063 72.5514C51.6476 72.4356 51.7016 72.3816 51.7795 72.144C51.8548 71.9204 51.9114 71.8524 52.0624 71.8041C52.2232 71.7573 52.2574 71.7003 52.2929 71.4368C52.3194 71.2391 52.3916 71.0871 52.5042 71.0087C52.6459 70.9013 52.7034 70.9007 52.9119 71.0344C53.1882 71.2028 53.3127 71.1696 53.3471 70.9299C53.3887 70.7058 56.666 67.3487 57.2721 66.9251C57.6571 66.6542 57.7303 66.5696 57.8316 66.2972C57.9141 66.0892 57.9884 65.9807 58.0781 65.9708C58.2757 65.9443 58.4989 65.7439 58.8487 65.28C59.0636 64.9967 59.3781 64.7051 59.8238 64.362C60.543 63.8024 60.9624 63.2918 61.1894 62.6885C61.2907 62.4161 61.3364 62.3704 61.4863 62.346C61.632 62.3257 62.0062 61.9857 63.1977 60.7942C64.4682 59.5238 64.7624 59.1953 64.9732 58.8248C65.1129 58.5825 65.2998 58.3044 65.3953 58.2089C65.5738 58.0304 66.0043 57.8963 66.3529 57.9127C66.5271 57.9209 66.5868 57.8727 66.8707 57.5089C67.0457 57.277 68.2336 56.032 69.5108 54.7434L71.8327 52.3987L71.795 52.1285L71.7557 51.8485L71.9683 51.8867C72.1753 51.9193 72.2043 51.8902 74.0829 50.0572C75.1281 49.0348 76.2314 47.9543 76.5319 47.6653C76.9445 47.2641 77.1168 47.0462 77.2295 46.7852C77.4669 46.2171 77.5608 46.1118 77.9021 46.0214C78.4562 45.8779 78.8033 45.6106 79.3167 44.9033C79.6182 44.4991 79.9457 44.1374 80.2342 43.8945C80.6198 43.566 80.6956 43.4674 80.7772 43.1919C80.8416 42.9906 80.9169 42.8583 81.0051 42.8386C81.0736 42.8157 81.2043 42.7306 81.2915 42.6434L81.4591 42.4872L80.9675 42.3858C80.6942 42.3284 80.3965 42.2383 80.3016 42.185C79.8951 41.9528 79.6251 41.55 79.5704 41.0801C79.5307 40.7663 79.6194 40.7803 79.8463 41.1235C80.3941 41.9785 81.05 42.2691 81.7291 41.9435C82.2479 41.6984 82.44 41.3922 82.3641 40.9094C82.2912 40.4463 82.0456 40.0761 81.3976 39.4696C80.9461 39.043 80.8382 38.9684 80.4597 38.8224C79.9287 38.6235 79.8561 38.5592 79.8957 38.2916C79.9659 37.9134 79.3533 37.226 77.6063 35.7115C76.3756 34.6386 75.9915 34.213 75.3884 33.2196C75.0028 32.6016 74.8551 32.3958 74.6592 32.2496C74.3424 32.0076 74.3625 32.1357 74.7103 32.5748C75.0809 33.0367 75.0274 33.1244 74.5909 32.7626C74.2467 32.4682 74.0109 32.1909 73.9617 32.0005C73.9425 31.9399 73.6704 31.676 73.265 31.3287C72.4159 30.6042 71.4082 29.6048 69.0771 27.1575C67.5522 25.5578 67.0633 25.0773 66.4133 24.5185C65.9737 24.137 65.4086 23.6301 65.1577 23.3792C64.8099 23.0314 64.6352 22.8982 64.4459 22.8252C64.196 22.733 64.1846 22.7216 63.9613 22.3405C63.7742 22.0372 63.557 21.7868 62.9111 21.1327L62.0958 20.3173L62.0207 19.9931C61.9483 19.655 61.7975 19.4295 61.7466 19.5945C61.7305 19.6448 61.7107 19.733 61.6946 19.7833C61.665 19.8699 61.5385 19.7683 60.4727 18.8271C60.1254 18.5129 60.031 18.402 59.9134 18.1433C59.7943 17.8747 59.7414 17.8135 59.405 17.5684C59.1763 17.3978 58.5056 16.7686 57.6202 15.8749L56.2061 14.4608L56.185 14.174C56.1717 13.8452 56.0287 13.6689 55.9015 13.8075C55.82 13.9004 55.7718 13.8688 54.8858 13.124C54.2047 12.5507 53.6251 12.0127 52.7382 11.1092C51.4236 9.778 47.5022 5.95617 47.2637 5.78411C47.187 5.72399 46.992 5.64527 46.8369 5.60646L46.5481 5.54179L46.5311 5.25083L46.51 4.96402L46.0777 4.5981C45.8345 4.39648 45.694 4.2975 45.7541 4.37422C45.976 4.65417 45.7883 4.591 45.4803 4.2831C45.3093 4.11204 45.1875 3.94873 45.2083 3.92797C45.2332 3.90306 45.2995 3.92792 45.3509 3.97923C45.6754 4.27054 44.9181 3.39703 44.3593 2.83823C43.4283 1.89896 42.6518 1.23863 42.28 1.07443C41.9378 0.914883 41.3481 0.831716 41.2526 0.927204C41.2194 0.960417 41.0477 0.93822 40.8797 0.878152C40.1952 0.650338 39.6152 0.842579 39.1958 1.44447C39.0224 1.68627 38.9778 1.70808 38.7304 1.69318C38.3269 1.66334 38.1837 1.76093 38.0424 2.17594C37.9307 2.50432 37.899 2.54739 37.7502 2.54799C37.6309 2.55325 37.524 2.63734 37.3641 2.84282C37.1518 3.11213 37.1295 3.12303 36.8422 3.06822C36.4662 2.99946 36.4164 3.04928 36.5153 3.37235ZM38.634 4.19579C38.68 4.45769 38.8172 4.99339 38.9482 5.39839C39.2935 6.43292 39.3157 6.69588 39.0831 7.01966C38.9715 7.16547 38.8889 7.3735 38.8909 7.50835C38.8929 7.73449 38.8887 7.73863 38.7804 7.6303C38.5637 7.41362 38.5292 6.98056 38.6996 6.4452C38.7838 6.15573 38.8416 5.88133 38.8198 5.83466C38.8079 5.78955 38.6644 5.57957 38.5068 5.37219C38.2876 5.07824 38.2208 4.92838 38.2048 4.70485C38.1796 4.33091 38.2513 4.0539 38.4242 3.86967L38.5653 3.72851L38.634 4.19579ZM9.53566 33.2714C9.58128 33.317 9.58382 33.3943 9.53815 33.4399C9.45512 33.523 9.36749 33.4851 9.35304 33.3628C9.32873 33.2388 9.45013 33.1858 9.53566 33.2714ZM41.8369 1.31224C41.9542 1.26342 41.9951 1.27947 42.1568 1.48269C42.4274 1.82797 42.4076 1.91615 42.0741 1.87329C41.6914 1.82269 41.3793 1.51893 41.6081 1.41558C41.6569 1.38962 41.7601 1.3434 41.8369 1.31224ZM36.0319 7.72162C36.0801 7.75323 36.0879 7.8025 36.0505 7.83987C36.0132 7.87723 35.9442 7.86638 35.8929 7.81506C35.7959 7.71813 35.9044 7.6439 36.0319 7.72162ZM8.43466 35.7408C8.50933 35.7574 8.60162 35.8248 8.63063 35.887C8.71561 36.0301 8.39177 36.3539 8.0826 36.435C7.77343 36.5161 7.71491 36.3579 7.98317 36.1695C8.09577 36.0911 8.19386 35.9816 8.19856 35.9199C8.20592 35.7529 8.2796 35.702 8.43466 35.7408ZM9.4543 49.2157C9.54553 49.3069 9.65177 49.4629 9.67557 49.5532C9.72424 49.7098 9.72008 49.7139 9.57543 49.6191C9.42663 49.5284 9.14208 49.1857 9.07371 49.026C9.03125 48.9088 9.26613 49.0275 9.4543 49.2157ZM20.2542 58.5209C20.3854 58.6521 20.3931 58.7926 20.2702 58.7445C20.153 58.702 20.0462 58.5122 20.1044 58.4541C20.1251 58.4334 20.1972 58.4639 20.2542 58.5209ZM74.5311 33.0847C74.6508 33.2045 74.6958 33.3989 74.617 33.4778C74.5422 33.5526 74.408 33.4017 74.3785 33.2145C74.346 33.0076 74.4056 32.9593 74.5311 33.0847ZM75.0712 44.4276C75.1412 44.4146 75.289 44.4378 75.4005 44.4746C75.5841 44.5419 75.6297 44.5875 75.9546 45.0951C76.4173 45.807 76.5443 46.0336 76.4944 46.0834C76.3616 46.2162 76.1141 46.2926 76.0457 46.2242C76.0058 46.1843 75.9006 46.0044 75.8209 45.8332C75.7033 45.5745 75.6188 45.4651 75.3202 45.2163C74.9988 44.9447 74.9558 44.8851 74.9263 44.6979C74.8891 44.4614 74.8974 44.4531 75.0712 44.4276ZM80.2098 39.4942L80.4246 39.4847L80.1194 39.7442C79.9114 39.9181 79.7972 40.0779 79.7519 40.2486C79.6667 40.5619 79.6018 40.6382 79.5724 40.451C79.4995 39.9878 79.8182 39.5095 80.2098 39.4942ZM73.1844 46.8503C73.3213 46.9872 73.3596 47.1085 73.3273 47.3004C73.3028 47.4504 73.2888 47.453 73.1292 47.2933C73.0265 47.1907 72.9644 47.0704 72.9758 46.9905C72.9925 46.7913 73.0761 46.742 73.1844 46.8503ZM74.854 45.979C74.9773 46.2435 75.0077 46.4981 74.919 46.4842C74.8444 46.4676 74.6937 46.0595 74.6881 45.8713C74.6923 45.6845 74.7405 45.7161 74.854 45.979ZM64.2699 57.9886C64.4036 58.1971 64.5154 58.5414 64.4671 58.6011C64.3857 58.6939 64.2281 58.4866 64.1551 58.206C64.0786 57.872 64.1305 57.7745 64.2699 57.9886ZM71.2222 51.5723C71.3252 51.8 71.2665 52.007 71.1083 51.9484C71.0207 51.9106 70.8198 51.3361 70.8562 51.2313C70.905 51.114 71.103 51.3037 71.2222 51.5723ZM60.5012 61.7345C60.5909 61.7246 60.6194 61.7531 60.6334 61.8418C60.6473 61.9305 60.6183 61.9596 60.5156 61.9482C60.2879 61.9364 60.2724 61.7466 60.5012 61.7345ZM81.8766 40.7126C82.0715 40.9739 82.1003 41.4012 81.9121 41.2131C81.8437 41.1447 81.6667 40.569 81.704 40.5317C81.7165 40.5192 81.7963 40.5991 81.8766 40.7126ZM68.1706 54.6239C68.2504 54.795 68.2208 54.8816 68.1036 54.8391C68.016 54.8013 67.9689 54.6546 68.0094 54.5456C68.0567 54.4185 68.0878 54.433 68.1706 54.6239Z"/>
</mask>
<path d="M36.5153 3.37235C36.6286 3.72653 36.5617 3.85053 36.2157 3.91141L35.9159 3.96034L36.0932 4.07953C36.2124 4.16556 36.2497 4.21948 36.2165 4.25269C36.1667 4.30252 35.5462 4.6037 35.182 4.76262C35.0871 4.80054 35.0315 4.93595 34.9987 5.18544L34.9409 5.55113L33.9491 6.5771C33.4042 7.14484 32.9496 7.6451 32.949 7.70267C32.9386 7.75869 32.7398 7.99168 32.4876 8.22108C32.2453 8.45203 31.9043 8.85004 31.7267 9.09599C31.4807 9.45609 31.3229 9.61385 30.996 9.8267C30.6873 10.0328 30.5088 10.2113 30.2721 10.5392C30.1029 10.7769 29.7639 11.2185 29.5184 11.521C29.2771 11.8194 29.0092 12.2241 28.9277 12.4083C28.8041 12.6915 28.7392 12.7678 28.5799 12.8244C28.3102 12.9117 27.635 13.5983 27.1963 14.2308C26.7343 14.8981 25.1059 16.4581 24.3161 16.997C23.8518 17.3131 23.6841 17.4693 23.395 17.8611C22.8401 18.6098 20.5903 20.9851 16.7884 24.8555L15.0602 26.6064L14.8585 26.5459L14.651 26.4796L14.6182 26.7291C14.588 26.9646 14.5231 27.0409 13.8563 27.6279C13.4614 27.9886 12.9866 28.3607 12.8014 28.4661C12.5145 28.6276 12.4081 28.7454 12.0769 29.2362C11.7981 29.6633 11.6268 29.8573 11.4624 29.942C11.107 30.1263 9.58528 31.7848 9.44296 32.1324C9.26428 32.5848 7.95294 33.7479 7.54523 33.8135C7.25112 33.8681 7.01347 34.0373 6.89092 34.2967C6.82964 34.4264 6.80163 34.4316 6.62847 34.3083C6.53048 34.2352 6.32566 34.155 6.18355 34.1374L5.91335 34.0997L5.78288 34.5837C5.67633 34.9753 5.61765 35.091 5.44643 35.1938C5.32814 35.2665 5.17142 35.4004 5.08424 35.4876C4.9986 35.5846 4.84139 35.6848 4.73244 35.7254C4.57318 35.782 4.5 35.8666 4.35254 36.1509C4.25284 36.3418 4.08152 36.6272 3.97147 36.7828C3.79394 37.0288 3.73687 37.0631 3.55535 37.0393C3.43711 37.0207 3.282 37.0732 3.17665 37.1671C3.02824 37.2927 3.00278 37.3752 3.03063 37.6438C3.08224 38.094 2.97629 38.3368 2.60268 38.6192C2.03451 39.0391 2.05371 39.0085 2.19621 39.2423C2.40918 39.5882 2.40602 39.6597 2.16683 39.8191C2.03763 39.9141 1.90787 40.0667 1.85385 40.2119C1.76606 40.448 1.7619 40.4521 1.42273 40.4036C1.24121 40.3798 1.01823 40.3063 0.927493 40.2488L0.765735 40.1368L0.842854 40.4132C0.908072 40.6445 0.88676 40.7228 0.749753 40.8598C0.596139 41.0135 0.595088 41.0373 0.734039 41.1265C1.23592 41.4457 1.40593 41.6406 1.72713 42.2773C2.03383 42.8829 2.06959 42.927 2.93159 43.8554C3.42971 44.3951 3.95269 45.0011 4.12214 45.2536C4.40769 45.6637 4.44916 45.7134 4.67679 45.8165C4.87331 45.9051 4.92878 45.9523 4.97849 46.085C5.02821 46.2178 5.08368 46.2649 5.24339 46.3333C5.39895 46.4058 5.48293 46.4815 5.60521 46.6785C5.73891 46.8869 5.82289 46.9626 6.12725 47.1258C6.78574 47.4937 6.98265 47.7985 7.12218 48.6854C7.17334 49.0106 7.28772 49.4322 7.36904 49.6131L7.52289 49.9496L7.93094 50.1916C8.15752 50.3186 8.74803 50.743 9.2395 51.1182C9.79785 51.552 10.2106 51.8236 10.3262 51.8562C10.4361 51.8831 10.7644 51.954 11.0616 52.0103C11.3587 52.0667 11.6802 52.1557 11.771 52.2132C11.8757 52.2681 12.1826 52.5999 12.5615 53.0535C13.0518 53.6352 13.2871 53.8788 13.6567 54.182C14.086 54.5282 14.1332 54.5837 14.2051 54.7968C14.2672 55.0084 14.2958 55.0369 14.498 55.1312C14.7567 55.2488 16.0449 56.5037 16.3817 56.9651C16.4921 57.117 16.7056 57.4053 16.8533 57.6111C17.0052 57.8128 17.1394 58.0549 17.1507 58.1576C17.1714 58.3194 17.1843 58.3407 17.3622 58.4023C17.5458 58.4696 17.5758 58.508 17.811 59.0255C18.0923 59.6223 18.4877 60.2419 18.7842 60.5384C19.0009 60.755 20.108 61.1647 20.4477 61.1556C20.567 61.1504 20.8045 61.1637 20.9845 61.1776C21.263 61.207 21.3195 61.2303 21.3521 61.346C21.3687 61.4207 21.3178 61.5856 21.2368 61.7122C21.1117 61.8944 21.1075 61.9898 21.1955 62.2439C21.342 62.6561 21.725 63.2882 22.0505 63.6469C22.3019 63.9315 22.3174 63.9387 22.4663 63.8469C22.6111 63.7591 22.6422 63.7736 22.9351 64.0167C23.1114 64.1598 23.4644 64.3883 23.7206 64.5199C24.1478 64.7312 24.209 64.7841 24.4453 65.0952C24.762 65.5198 27.1392 67.8638 27.6748 68.2748C27.8837 68.4422 28.3337 68.8589 28.6773 69.2109C29.1978 69.7396 29.3528 69.8697 29.6499 70.0174C29.9584 70.1764 30.0024 70.2122 30.0853 70.403C30.1418 70.5176 30.3398 70.7986 30.5243 71.0246C30.8902 71.457 32.1219 72.5973 32.6388 72.9814C33.0846 73.311 33.3101 73.553 33.3836 73.776C33.4452 73.9539 33.4851 73.9938 33.8952 74.2794C34.3152 74.5665 34.3836 74.6349 34.9387 75.3228C35.5125 76.0377 35.527 76.0688 35.4719 76.238C35.4225 76.4128 35.494 76.5922 35.577 76.5092C35.5978 76.4884 35.6875 76.4785 35.772 76.4966C35.91 76.5183 35.9328 76.5411 36.0271 76.7433C36.1519 77.0176 36.4557 77.3297 36.7274 77.4685C36.8788 77.5452 36.9373 77.6121 37.0042 77.7619C37.0767 77.9175 37.1337 77.9745 37.3178 78.0755C37.506 78.1724 37.5589 78.2336 37.6371 78.3949C37.7055 78.5546 37.7853 78.6344 38.0393 78.8137C38.2166 78.9329 38.5718 79.205 38.8263 79.418C39.0808 79.631 39.4982 79.9321 39.7377 80.0803C39.9944 80.2456 40.3568 80.5333 40.5947 80.7629C40.8269 80.9868 41.1758 81.3108 41.3806 81.4824L41.7476 81.7996L42.1685 81.3901C42.4965 81.0621 42.6578 80.9578 42.9291 80.8803C43.2705 80.7899 43.3078 80.7525 45.6136 78.4582C48.3179 75.7652 48.3843 75.6988 48.4903 75.456C48.5391 75.3388 48.618 75.2599 48.7077 75.25C48.9095 75.2193 51.0694 73.0365 51.1059 72.8404C51.1168 72.7268 51.1973 72.6578 51.4063 72.5514C51.6476 72.4356 51.7016 72.3816 51.7795 72.144C51.8548 71.9204 51.9114 71.8524 52.0624 71.8041C52.2232 71.7573 52.2574 71.7003 52.2929 71.4368C52.3194 71.2391 52.3916 71.0871 52.5042 71.0087C52.6459 70.9013 52.7034 70.9007 52.9119 71.0344C53.1882 71.2028 53.3127 71.1696 53.3471 70.9299C53.3887 70.7058 56.666 67.3487 57.2721 66.9251C57.6571 66.6542 57.7303 66.5696 57.8316 66.2972C57.9141 66.0892 57.9884 65.9807 58.0781 65.9708C58.2757 65.9443 58.4989 65.7439 58.8487 65.28C59.0636 64.9967 59.3781 64.7051 59.8238 64.362C60.543 63.8024 60.9624 63.2918 61.1894 62.6885C61.2907 62.4161 61.3364 62.3704 61.4863 62.346C61.632 62.3257 62.0062 61.9857 63.1977 60.7942C64.4682 59.5238 64.7624 59.1953 64.9732 58.8248C65.1129 58.5825 65.2998 58.3044 65.3953 58.2089C65.5738 58.0304 66.0043 57.8963 66.3529 57.9127C66.5271 57.9209 66.5868 57.8727 66.8707 57.5089C67.0457 57.277 68.2336 56.032 69.5108 54.7434L71.8327 52.3987L71.795 52.1285L71.7557 51.8485L71.9683 51.8867C72.1753 51.9193 72.2043 51.8902 74.0829 50.0572C75.1281 49.0348 76.2314 47.9543 76.5319 47.6653C76.9445 47.2641 77.1168 47.0462 77.2295 46.7852C77.4669 46.2171 77.5608 46.1118 77.9021 46.0214C78.4562 45.8779 78.8033 45.6106 79.3167 44.9033C79.6182 44.4991 79.9457 44.1374 80.2342 43.8945C80.6198 43.566 80.6956 43.4674 80.7772 43.1919C80.8416 42.9906 80.9169 42.8583 81.0051 42.8386C81.0736 42.8157 81.2043 42.7306 81.2915 42.6434L81.4591 42.4872L80.9675 42.3858C80.6942 42.3284 80.3965 42.2383 80.3016 42.185C79.8951 41.9528 79.6251 41.55 79.5704 41.0801C79.5307 40.7663 79.6194 40.7803 79.8463 41.1235C80.3941 41.9785 81.05 42.2691 81.7291 41.9435C82.2479 41.6984 82.44 41.3922 82.3641 40.9094C82.2912 40.4463 82.0456 40.0761 81.3976 39.4696C80.9461 39.043 80.8382 38.9684 80.4597 38.8224C79.9287 38.6235 79.8561 38.5592 79.8957 38.2916C79.9659 37.9134 79.3533 37.226 77.6063 35.7115C76.3756 34.6386 75.9915 34.213 75.3884 33.2196C75.0028 32.6016 74.8551 32.3958 74.6592 32.2496C74.3424 32.0076 74.3625 32.1357 74.7103 32.5748C75.0809 33.0367 75.0274 33.1244 74.5909 32.7626C74.2467 32.4682 74.0109 32.1909 73.9617 32.0005C73.9425 31.9399 73.6704 31.676 73.265 31.3287C72.4159 30.6042 71.4082 29.6048 69.0771 27.1575C67.5522 25.5578 67.0633 25.0773 66.4133 24.5185C65.9737 24.137 65.4086 23.6301 65.1577 23.3792C64.8099 23.0314 64.6352 22.8982 64.4459 22.8252C64.196 22.733 64.1846 22.7216 63.9613 22.3405C63.7742 22.0372 63.557 21.7868 62.9111 21.1327L62.0958 20.3173L62.0207 19.9931C61.9483 19.655 61.7975 19.4295 61.7466 19.5945C61.7305 19.6448 61.7107 19.733 61.6946 19.7833C61.665 19.8699 61.5385 19.7683 60.4727 18.8271C60.1254 18.5129 60.031 18.402 59.9134 18.1433C59.7943 17.8747 59.7414 17.8135 59.405 17.5684C59.1763 17.3978 58.5056 16.7686 57.6202 15.8749L56.2061 14.4608L56.185 14.174C56.1717 13.8452 56.0287 13.6689 55.9015 13.8075C55.82 13.9004 55.7718 13.8688 54.8858 13.124C54.2047 12.5507 53.6251 12.0127 52.7382 11.1092C51.4236 9.778 47.5022 5.95617 47.2637 5.78411C47.187 5.72399 46.992 5.64527 46.8369 5.60646L46.5481 5.54179L46.5311 5.25083L46.51 4.96402L46.0777 4.5981C45.8345 4.39648 45.694 4.2975 45.7541 4.37422C45.976 4.65417 45.7883 4.591 45.4803 4.2831C45.3093 4.11204 45.1875 3.94873 45.2083 3.92797C45.2332 3.90306 45.2995 3.92792 45.3509 3.97923C45.6754 4.27054 44.9181 3.39703 44.3593 2.83823C43.4283 1.89896 42.6518 1.23863 42.28 1.07443C41.9378 0.914883 41.3481 0.831716 41.2526 0.927204C41.2194 0.960417 41.0477 0.93822 40.8797 0.878152C40.1952 0.650338 39.6152 0.842579 39.1958 1.44447C39.0224 1.68627 38.9778 1.70808 38.7304 1.69318C38.3269 1.66334 38.1837 1.76093 38.0424 2.17594C37.9307 2.50432 37.899 2.54739 37.7502 2.54799C37.6309 2.55325 37.524 2.63734 37.3641 2.84282C37.1518 3.11213 37.1295 3.12303 36.8422 3.06822C36.4662 2.99946 36.4164 3.04928 36.5153 3.37235ZM38.634 4.19579C38.68 4.45769 38.8172 4.99339 38.9482 5.39839C39.2935 6.43292 39.3157 6.69588 39.0831 7.01966C38.9715 7.16547 38.8889 7.3735 38.8909 7.50835C38.8929 7.73449 38.8887 7.73863 38.7804 7.6303C38.5637 7.41362 38.5292 6.98056 38.6996 6.4452C38.7838 6.15573 38.8416 5.88133 38.8198 5.83466C38.8079 5.78955 38.6644 5.57957 38.5068 5.37219C38.2876 5.07824 38.2208 4.92838 38.2048 4.70485C38.1796 4.33091 38.2513 4.0539 38.4242 3.86967L38.5653 3.72851L38.634 4.19579ZM9.53566 33.2714C9.58128 33.317 9.58382 33.3943 9.53815 33.4399C9.45512 33.523 9.36749 33.4851 9.35304 33.3628C9.32873 33.2388 9.45013 33.1858 9.53566 33.2714ZM41.8369 1.31224C41.9542 1.26342 41.9951 1.27947 42.1568 1.48269C42.4274 1.82797 42.4076 1.91615 42.0741 1.87329C41.6914 1.82269 41.3793 1.51893 41.6081 1.41558C41.6569 1.38962 41.7601 1.3434 41.8369 1.31224ZM36.0319 7.72162C36.0801 7.75323 36.0879 7.8025 36.0505 7.83987C36.0132 7.87723 35.9442 7.86638 35.8929 7.81506C35.7959 7.71813 35.9044 7.6439 36.0319 7.72162ZM8.43466 35.7408C8.50933 35.7574 8.60162 35.8248 8.63063 35.887C8.71561 36.0301 8.39177 36.3539 8.0826 36.435C7.77343 36.5161 7.71491 36.3579 7.98317 36.1695C8.09577 36.0911 8.19386 35.9816 8.19856 35.9199C8.20592 35.7529 8.2796 35.702 8.43466 35.7408ZM9.4543 49.2157C9.54553 49.3069 9.65177 49.4629 9.67557 49.5532C9.72424 49.7098 9.72008 49.7139 9.57543 49.6191C9.42663 49.5284 9.14208 49.1857 9.07371 49.026C9.03125 48.9088 9.26613 49.0275 9.4543 49.2157ZM20.2542 58.5209C20.3854 58.6521 20.3931 58.7926 20.2702 58.7445C20.153 58.702 20.0462 58.5122 20.1044 58.4541C20.1251 58.4334 20.1972 58.4639 20.2542 58.5209ZM74.5311 33.0847C74.6508 33.2045 74.6958 33.3989 74.617 33.4778C74.5422 33.5526 74.408 33.4017 74.3785 33.2145C74.346 33.0076 74.4056 32.9593 74.5311 33.0847ZM75.0712 44.4276C75.1412 44.4146 75.289 44.4378 75.4005 44.4746C75.5841 44.5419 75.6297 44.5875 75.9546 45.0951C76.4173 45.807 76.5443 46.0336 76.4944 46.0834C76.3616 46.2162 76.1141 46.2926 76.0457 46.2242C76.0058 46.1843 75.9006 46.0044 75.8209 45.8332C75.7033 45.5745 75.6188 45.4651 75.3202 45.2163C74.9988 44.9447 74.9558 44.8851 74.9263 44.6979C74.8891 44.4614 74.8974 44.4531 75.0712 44.4276ZM80.2098 39.4942L80.4246 39.4847L80.1194 39.7442C79.9114 39.9181 79.7972 40.0779 79.7519 40.2486C79.6667 40.5619 79.6018 40.6382 79.5724 40.451C79.4995 39.9878 79.8182 39.5095 80.2098 39.4942ZM73.1844 46.8503C73.3213 46.9872 73.3596 47.1085 73.3273 47.3004C73.3028 47.4504 73.2888 47.453 73.1292 47.2933C73.0265 47.1907 72.9644 47.0704 72.9758 46.9905C72.9925 46.7913 73.0761 46.742 73.1844 46.8503ZM74.854 45.979C74.9773 46.2435 75.0077 46.4981 74.919 46.4842C74.8444 46.4676 74.6937 46.0595 74.6881 45.8713C74.6923 45.6845 74.7405 45.7161 74.854 45.979ZM64.2699 57.9886C64.4036 58.1971 64.5154 58.5414 64.4671 58.6011C64.3857 58.6939 64.2281 58.4866 64.1551 58.206C64.0786 57.872 64.1305 57.7745 64.2699 57.9886ZM71.2222 51.5723C71.3252 51.8 71.2665 52.007 71.1083 51.9484C71.0207 51.9106 70.8198 51.3361 70.8562 51.2313C70.905 51.114 71.103 51.3037 71.2222 51.5723ZM60.5012 61.7345C60.5909 61.7246 60.6194 61.7531 60.6334 61.8418C60.6473 61.9305 60.6183 61.9596 60.5156 61.9482C60.2879 61.9364 60.2724 61.7466 60.5012 61.7345ZM81.8766 40.7126C82.0715 40.9739 82.1003 41.4012 81.9121 41.2131C81.8437 41.1447 81.6667 40.569 81.704 40.5317C81.7165 40.5192 81.7963 40.5991 81.8766 40.7126ZM68.1706 54.6239C68.2504 54.795 68.2208 54.8816 68.1036 54.8391C68.016 54.8013 67.9689 54.6546 68.0094 54.5456C68.0567 54.4185 68.0878 54.433 68.1706 54.6239Z" fill="black" stroke="white" stroke-width="4" mask="url(#path-1-inside-1_938_1407)"/>
<path d="M32.7827 21.1714C32.729 21.3862 32.6914 21.6172 32.6914 21.6763C32.6914 21.7837 32.686 21.7837 32.5625 21.6655C32.4712 21.5796 32.396 21.5527 32.3208 21.5796C32.1704 21.6226 32.1811 21.7354 32.3477 22.0684L32.4873 22.3477L32.0308 23.9482C31.6172 25.3823 31.4883 25.8657 31.3809 26.3384C31.354 26.4565 31.2681 26.5103 30.7954 26.7036L30.2422 26.9238L29.1948 25.8657C28.6147 25.2803 27.9326 24.5767 27.6694 24.3027C27.4116 24.0342 27.186 23.8193 27.1753 23.8301C27.1645 23.8408 27.5298 24.7109 27.9917 25.769C28.4482 26.8218 28.8242 27.708 28.8242 27.7241C28.8242 27.7456 28.7114 27.8477 28.5718 27.9497C28.4268 28.0464 28.0991 28.3203 27.8413 28.5566L27.3633 28.981L26.4126 28.5137C25.8862 28.2612 25.4189 28.0518 25.3706 28.0518C25.3223 28.0518 25.2793 28.0947 25.2793 28.1431C25.2793 28.2236 25.2578 28.2129 25.1719 28.1055C25.0806 27.9873 25.0537 27.9819 24.9624 28.0356C24.8281 28.1216 24.7959 28.1216 24.7959 28.0518C24.7959 28.0195 24.8335 27.998 24.8765 27.998C24.9517 27.998 25.1182 27.7402 25.1182 27.6221C25.1182 27.5361 24.9463 27.5576 24.7476 27.6812C24.6509 27.7402 24.5596 27.7832 24.5488 27.7725C24.5381 27.7617 24.6186 27.6274 24.7261 27.4771C24.8872 27.2407 24.9087 27.1816 24.8496 27.1118C24.7368 26.9775 24.6025 27.0205 24.4951 27.2192C24.4414 27.3213 24.3769 27.4072 24.3555 27.4072C24.3286 27.4072 24.0386 27.2729 23.7109 27.1064L23.1094 26.8057L23.2651 27.0098C23.3511 27.1279 23.7378 27.606 24.1245 28.0786C25.3437 29.5664 26.1387 30.5762 26.1387 30.6353C26.1387 30.6675 26.0474 30.8286 25.9292 30.9951C25.8164 31.1616 25.6821 31.3818 25.6338 31.4731C25.521 31.6934 25.6177 31.6934 23.335 31.4893C22.352 31.3979 21.5303 31.3281 21.5034 31.3281C21.4766 31.3281 21.4658 31.2422 21.4766 31.1401C21.5034 30.9092 21.3745 30.7642 21.1973 30.8179C21.0952 30.8501 21.0845 30.8823 21.1113 31.0649C21.1489 31.312 21.2134 31.3013 20.2627 31.2153C19.9136 31.1885 19.6182 31.1724 19.6074 31.1831C19.5913 31.1938 19.9028 31.4087 20.2949 31.6504C21.0093 32.1016 22.6528 33.1597 23.7378 33.8633C24.0547 34.0728 24.3125 34.2554 24.3125 34.2769C24.3125 34.3735 24.1567 35.4746 24.1406 35.4854C24.1245 35.4961 21.1704 36.1621 20.4614 36.3179C20.2466 36.3608 20.0693 36.4146 20.0693 36.4307C20.0693 36.4468 20.2197 36.5005 20.4077 36.5488C20.5903 36.5972 21.4712 36.8228 22.3628 37.0483L23.9849 37.4673L23.9526 38.0903C23.9365 38.4341 23.915 38.7188 23.9097 38.7241C23.9043 38.7349 22.7334 38.9927 21.2993 39.3042C19.8706 39.6157 18.6406 39.8896 18.5708 39.9111C18.4526 39.9487 19.7041 40.2441 23.3779 41.0337L24.2964 41.2271L24.4307 41.8501C24.5059 42.1938 24.5542 42.4893 24.5435 42.5107C24.5327 42.5269 23.7002 42.9727 22.6851 43.499C21.6753 44.02 20.7891 44.4819 20.7139 44.5249C20.6011 44.584 20.9287 44.5894 22.8354 44.5625L25.0913 44.5303L25.3545 45.207C25.5801 45.7925 25.6069 45.8999 25.5425 45.959C25.4995 45.9966 25.0107 46.3672 24.4468 46.7754C23.2705 47.6455 22.959 47.8765 22.5132 48.2148L22.1909 48.4619L22.0513 48.2954C21.9331 48.145 21.9009 48.1343 21.7988 48.188C21.6484 48.2686 21.6484 48.4082 21.7935 48.5908C21.8579 48.6714 21.9009 48.7466 21.8901 48.7573C21.8794 48.7681 21.7773 48.8486 21.6592 48.9399C21.5464 49.0312 21.4712 49.1064 21.498 49.1064C21.5679 49.1064 24.0654 48.6606 24.0869 48.6445C24.1245 48.6177 23.9634 48.2417 23.8935 48.1826C23.8452 48.1396 23.7324 48.1343 23.5068 48.1719C23.2436 48.2148 23.1631 48.2095 23.0503 48.145C22.9751 48.0967 22.916 48.043 22.916 48.0161C22.916 47.9893 22.9751 48.0161 23.0503 48.0752C23.1792 48.1772 23.206 48.1772 23.4961 48.1074C23.6626 48.0698 23.8345 48.0376 23.8721 48.0322C23.9043 48.0322 23.9365 48 23.9365 47.957C23.9365 47.8496 24.1352 47.624 24.1836 47.6724C24.2051 47.6938 24.1943 47.7422 24.1621 47.7744C24.1245 47.812 24.0977 47.9463 24.0977 48.0698C24.0977 48.2524 24.1299 48.3384 24.2373 48.4458L24.3823 48.5908L24.479 48.4673C24.6025 48.3169 24.6079 48.0269 24.5005 47.8174C24.4521 47.7261 24.4414 47.6562 24.4683 47.6562C24.5649 47.6562 24.6885 47.9678 24.6885 48.2202C24.6885 48.521 24.6348 48.521 26.0366 48.2739C26.6274 48.1719 27.1269 48.0859 27.1484 48.0859C27.1753 48.0859 27.2773 48.1987 27.374 48.3384C27.4707 48.4834 27.6855 48.7573 27.8413 48.9561L28.1313 49.3105L27.331 50.7554C26.8852 51.5449 26.5361 52.2002 26.5415 52.2109C26.5522 52.2217 27.2559 51.9263 28.1045 51.5503L29.646 50.8735L29.7856 50.9971C29.8608 51.0615 30.0273 51.2119 30.1509 51.3301L30.3765 51.5396L30.1294 52.0283C29.9951 52.2969 29.6782 52.9038 29.4311 53.3765C29.1787 53.8491 28.8779 54.4131 28.7651 54.6279C28.6523 54.8428 28.5879 55.0039 28.6255 54.9824C28.7168 54.9233 30.3013 53.5376 30.9351 52.9575L31.456 52.4741L31.7407 52.7373C31.8911 52.8823 32.1274 53.0918 32.2563 53.1992L32.4873 53.3979L31.9985 54.7837C31.73 55.5464 31.4829 56.2231 31.456 56.293C31.4292 56.3574 31.4185 56.4111 31.4292 56.4111C31.456 56.4111 33.5239 55.208 33.9214 54.9556L34.1631 54.8105L34.4209 55.0254C34.5605 55.1489 34.6787 55.2778 34.6787 55.3208C34.6787 55.396 33.8516 59.8057 33.771 60.1816C33.7441 60.2944 33.7334 60.3857 33.7388 60.3857C33.7495 60.3857 34.206 59.7896 34.7593 59.0645C35.9463 57.5015 36.666 56.5723 36.6875 56.5723C36.6982 56.5723 36.8647 56.6636 37.0474 56.7817C37.2353 56.8945 37.52 57.0503 37.6758 57.1309C37.9014 57.2437 37.9551 57.2974 37.9282 57.3672C37.7134 57.915 36.7627 60.8745 36.7895 60.9067C36.8057 60.9175 37.7241 59.7734 38.4814 58.7905C38.7822 58.4038 39.0561 58.0654 39.0884 58.0493C39.1797 57.9902 39.7812 58.3018 39.8081 58.4253C39.8296 58.5327 39.9424 60.1602 39.9424 60.3428C39.9424 60.4287 39.8833 60.4395 39.459 60.4395C39.1958 60.4395 38.9756 60.4502 38.9756 60.4609C38.9756 60.4717 39.0615 60.7349 39.1689 61.041C39.416 61.7554 39.8135 62.5181 40.2378 63.082C40.603 63.5654 41.3442 64.3066 41.4678 64.3066C41.5859 64.3066 42.2895 63.6245 42.6226 63.1841C43.1811 62.4429 43.5195 61.8091 43.8149 60.9282C43.9009 60.6758 43.9707 60.4556 43.9707 60.4287C43.9707 60.4072 43.7397 60.3857 43.4604 60.3857C42.9663 60.3857 42.9502 60.3804 42.9556 60.2622C42.9609 59.9399 43.0952 58.3447 43.1167 58.334C43.1274 58.3232 43.2886 58.2427 43.4712 58.146L43.7988 57.9741L44.9429 59.4512C45.5713 60.2568 46.0923 60.9121 46.103 60.9014C46.1406 60.8691 45.5928 59.0698 45.2866 58.2104C45.1255 57.7539 44.9912 57.3457 44.9912 57.3081C44.9912 57.2651 45.0664 57.2007 45.1577 57.1577C45.2544 57.1201 45.5229 56.9751 45.7593 56.8301C45.9956 56.6904 46.2051 56.5723 46.2212 56.5723C46.2373 56.5776 46.9033 57.4209 47.6929 58.4575C48.4878 59.4941 49.1484 60.3267 49.1645 60.3159C49.1753 60.2998 49.1377 60.0151 49.0786 59.6821C48.9443 58.9624 48.9443 58.9355 49.0356 58.9355C49.0786 58.9355 49.1645 58.8765 49.229 58.8066C49.3311 58.6992 49.3418 58.6562 49.2935 58.5649C49.2183 58.4307 49.2183 58.4307 49.0195 58.5327C48.9282 58.5811 48.8584 58.5972 48.8584 58.5703C48.8584 58.5435 48.7241 57.813 48.563 56.9482C48.4019 56.0835 48.2676 55.3369 48.2676 55.2886C48.2676 55.2402 48.375 55.1113 48.5039 54.9985L48.7402 54.8052L50.0991 55.6055C50.8457 56.0459 51.4687 56.4004 51.4741 56.3896C51.4956 56.3735 50.8135 54.397 50.561 53.731L50.4321 53.3818L50.9639 52.936C51.4258 52.5547 51.5171 52.4956 51.5869 52.5547C51.6353 52.5923 52.167 53.0703 52.7739 53.6128C53.3809 54.1553 53.9985 54.6978 54.1436 54.8213L54.4121 55.0415L54.0576 54.3701C53.8589 53.9995 53.4453 53.2153 53.1284 52.6245L52.5644 51.5503L52.9136 51.2119C53.1123 51.0293 53.2895 50.8789 53.311 50.8789C53.3379 50.8789 53.5474 50.9648 53.7783 51.0723C54.4175 51.3677 56.394 52.2217 56.4102 52.2056C56.4155 52.2002 56.2759 51.9316 56.0986 51.6147L55.771 51.0347L55.916 50.8843C56.0825 50.707 56.0933 50.6318 55.9429 50.5566C55.8569 50.5083 55.8086 50.5137 55.728 50.5889C55.5884 50.7124 55.5723 50.6909 55.1265 49.9175L54.772 49.3052L55.0835 48.9238C55.25 48.7144 55.4595 48.4404 55.5508 48.3169C55.6367 48.188 55.728 48.0859 55.7495 48.0859C55.771 48.0859 56.2812 48.1719 56.8774 48.2739C57.4736 48.376 58.0107 48.4619 58.0698 48.4619C58.1611 48.4619 58.1772 48.4243 58.1826 48.2202C58.188 47.9839 58.3169 47.71 58.4243 47.71C58.4512 47.71 58.4404 47.7637 58.3975 47.8281C58.3061 47.957 58.2847 48.333 58.3599 48.4565C58.4297 48.5693 58.6123 48.478 58.709 48.2793C58.7734 48.145 58.7788 48.0591 58.7412 47.9194C58.6768 47.6938 58.6768 47.6562 58.7358 47.6562C58.7627 47.6562 58.8325 47.7422 58.897 47.8442C59.0903 48.1719 59.4824 48.2632 59.7886 48.0591L60.0034 47.9141L59.8423 48.0859C59.6704 48.2686 59.6758 48.2686 59.1064 48.1611C58.9023 48.1235 58.9023 48.1289 58.7895 48.3813C58.7305 48.5156 58.6875 48.6392 58.6982 48.6445C58.7197 48.6606 61.3301 49.1064 61.3945 49.1064C61.4214 49.1064 61.1904 48.9077 60.8843 48.6714C60.5781 48.4297 60.2935 48.2041 60.2559 48.1665C60.1968 48.1128 60.2129 48.0537 60.374 47.8442C60.4814 47.71 60.5674 47.5596 60.5674 47.5166C60.5674 47.3823 60.3579 47.436 60.1377 47.6348C60.0034 47.7583 59.9014 47.812 59.8584 47.7852C59.7832 47.7368 57.4521 46.002 57.3823 45.9375C57.3555 45.916 57.4575 45.5991 57.6025 45.2339L57.8657 44.5679L60.1162 44.584C61.3516 44.5947 62.356 44.5894 62.3398 44.5786C62.3237 44.5679 61.4321 44.1006 60.3525 43.5474C59.2729 42.9888 58.3813 42.5269 58.3706 42.5161C58.3599 42.5107 58.4028 42.2153 58.4727 41.8608L58.5962 41.2217L58.8701 41.168C59.8154 40.9692 62.4902 40.3999 62.5708 40.373C62.6406 40.3516 62.6621 40.373 62.6621 40.4697C62.6621 40.5396 62.6943 40.647 62.7373 40.7007C62.8394 40.8457 62.9736 40.7275 62.9951 40.4697L63.0112 40.2764L63.4409 40.1851C63.6772 40.1367 64.0103 40.0669 64.1821 40.0293C64.354 39.9971 64.4829 39.9541 64.4722 39.938C64.4561 39.9272 64.2305 39.8682 63.9673 39.8091C63.2153 39.6426 59.5469 38.8477 59.2407 38.7832L58.9561 38.7241V38.0957V37.4619L59.8315 37.2417C60.8735 36.9785 62.6567 36.5005 62.7695 36.4521C62.834 36.4253 60.4277 35.8506 59.1064 35.5767L58.8057 35.5122L58.7412 34.9912C58.709 34.7065 58.666 34.4219 58.6553 34.3574C58.6284 34.2661 58.7412 34.1694 59.3696 33.7612C59.7778 33.4927 60.7769 32.8428 61.5879 32.311C62.3989 31.7793 63.1401 31.3013 63.2261 31.2529C63.3872 31.1616 63.3818 31.1616 62.9844 31.1938C62.2324 31.2476 57.8013 31.6504 57.6348 31.6772C57.479 31.7041 57.4521 31.688 57.3179 31.4517C57.2319 31.3066 57.0815 31.0649 56.9795 30.9092L56.7915 30.6245L56.9741 30.3989C57.0708 30.2754 57.7529 29.4321 58.4834 28.5244C59.2139 27.6167 59.8154 26.8647 59.8154 26.8486C59.8154 26.8271 59.4932 26.9775 59.0957 27.1763C58.6982 27.3804 58.3813 27.563 58.3921 27.5952C58.4028 27.6221 58.4243 27.6919 58.4458 27.7456C58.4834 27.8369 58.4727 27.8369 58.3061 27.7349C58.2041 27.6704 58.0537 27.6221 57.9731 27.6221C57.8335 27.6221 57.8228 27.6328 57.855 27.7993C57.8818 27.939 57.8657 27.998 57.7744 28.0786C57.6831 28.1592 57.6509 28.1646 57.6186 28.1108C57.5596 28.0142 57.479 28.0464 56.4316 28.5405L55.54 28.9648L55.25 28.6909C55.0889 28.5405 54.7666 28.272 54.541 28.0894C54.3101 27.9121 54.1221 27.7402 54.1221 27.708C54.1221 27.6812 54.4336 26.9131 54.8203 26.0054C55.2017 25.0977 55.5669 24.2222 55.626 24.0664L55.7388 23.7817L55.3198 24.2114C55.0889 24.4478 54.4014 25.1514 53.7891 25.7798L52.6826 26.9185L52.124 26.6929L51.5708 26.4619L51.4741 26.0913C51.4204 25.8818 51.2324 25.2319 51.0605 24.6411C50.8833 24.0503 50.7007 23.4165 50.6523 23.2339L50.561 22.9009L50.7329 22.6484C50.8242 22.5088 50.8994 22.3799 50.8994 22.3584C50.8994 22.3369 50.8403 22.2886 50.7651 22.251C50.647 22.1865 50.6201 22.1919 50.5234 22.2778C50.3945 22.3906 50.4214 22.4497 50.1797 21.5044C49.9971 20.79 49.9971 20.79 49.9648 21.0479C49.8628 21.8696 49.2827 26.1343 49.2559 26.2686C49.2236 26.4189 49.2075 26.4297 48.8584 26.4619C48.6543 26.478 48.3159 26.5317 48.1011 26.5747C47.7412 26.6499 47.7144 26.6499 47.6445 26.564C47.6016 26.5103 46.9839 25.5972 46.2749 24.5337C45.5605 23.4702 44.9912 22.6484 45.0073 22.7075C45.0933 22.9761 45.8667 27.4072 45.8345 27.4395C45.7915 27.4824 42.977 29.3354 42.9717 29.3247C42.9663 29.3193 42.9287 28.7876 42.8911 28.1484C42.832 27.1709 42.8374 26.9507 42.8965 26.7573C42.9609 26.5586 42.9609 26.5156 42.8804 26.376L42.7891 26.2148L43.0254 25.9517C43.3208 25.6187 43.4497 25.2642 43.4443 24.7593C43.439 24.2651 43.2295 23.814 42.8374 23.4648C42.4453 23.1157 42.0747 22.9814 41.4463 22.9814C40.979 22.9761 40.9038 22.9922 40.5762 23.1479C40.1411 23.3521 39.8135 23.6689 39.6255 24.0718C39.5073 24.3296 39.4858 24.4424 39.4858 24.856C39.4858 25.4307 39.5986 25.7207 39.9316 26.0483L40.1465 26.2578L40.0391 26.4351C39.9263 26.6069 39.9263 26.6177 40.0176 26.7842C40.1035 26.9453 40.1035 27.0527 40.0498 28.1108C40.0176 28.7446 39.9853 29.2817 39.98 29.3032C39.9639 29.3623 37.1279 27.4771 37.1064 27.3965C37.1011 27.3589 37.2622 26.3062 37.4717 25.0547C37.6758 23.8086 37.8477 22.7559 37.8477 22.7183C37.8477 22.686 37.7187 22.8472 37.5684 23.0835C36.6123 24.5444 35.3501 26.4297 35.2642 26.5264C35.1621 26.6338 35.1567 26.6338 34.6357 26.5425C34.3511 26.4888 34.0181 26.4458 33.8945 26.4404H33.6743L33.5615 25.6187C33.4971 25.1729 33.3198 23.9214 33.1748 22.8418C33.0244 21.7622 32.8955 20.8545 32.8848 20.8276C32.8794 20.7954 32.831 20.9512 32.7827 21.1714ZM41.8061 23.5454C42.021 23.626 42.1982 23.8086 42.1982 23.9536C42.1982 24.1309 41.9834 24.2544 41.7524 24.2114C41.4785 24.1577 41.2583 24.2222 40.9897 24.4316C40.7104 24.6411 40.5601 24.6626 40.4795 24.5015C40.3291 24.2222 40.6836 23.7603 41.1885 23.5884C41.5215 23.4702 41.602 23.4648 41.8061 23.5454ZM32.6968 24.4639C32.5571 24.856 32.6914 25.5757 32.96 25.9194L33.0674 26.0537L32.831 26.0698C32.6055 26.0913 32.6001 26.0859 32.6699 25.9785C32.7344 25.8818 32.729 25.8066 32.6269 25.4146L32.5088 24.958L32.6162 24.48C32.6807 24.1631 32.7236 24.0503 32.7344 24.147C32.7451 24.2329 32.729 24.3726 32.6968 24.4639ZM50.3569 25.0171C50.3569 25.1621 50.3247 25.3823 50.2817 25.5005C50.1904 25.7529 50.1797 25.9355 50.2549 25.9839C50.373 26.0537 50.2978 26.0913 50.0615 26.0752L49.8198 26.0537L49.9272 25.9355C50.228 25.6133 50.3677 25.001 50.2334 24.5444C50.1851 24.3833 50.1475 24.2061 50.1528 24.147C50.1582 23.9321 50.3569 24.7646 50.3569 25.0171ZM36.9077 25.3447C36.8809 25.6724 36.8594 25.7368 36.8003 25.6885C36.7412 25.6401 36.7412 25.6025 36.8057 25.4844C36.8486 25.4038 36.8809 25.2158 36.8862 25.0708C36.8862 24.9204 36.9023 24.8345 36.9185 24.8721C36.9346 24.915 36.9292 25.1245 36.9077 25.3447ZM46.0869 25.5327C46.1084 25.5757 46.0977 25.6724 46.0708 25.7476C46.0171 25.8765 46.0171 25.8765 46.0117 25.7153C46.0063 25.624 45.9956 25.3823 45.9902 25.1782L45.9687 24.8022L46.0063 25.1245C46.0278 25.3018 46.0654 25.4844 46.0869 25.5327ZM31.9824 25.4468C31.9502 25.522 31.9126 25.5757 31.9072 25.5649C31.875 25.5327 31.9556 25.3125 31.9985 25.3125C32.0254 25.3125 32.0146 25.3716 31.9824 25.4468ZM50.9961 25.5273C51.0283 25.6133 51.0444 25.6885 51.0337 25.6885C51.0068 25.6885 50.8457 25.3877 50.8457 25.3394C50.8457 25.2588 50.9478 25.3823 50.9961 25.5273ZM36.6714 26.0591C36.564 26.1665 36.5371 26.2793 36.5532 26.5264C36.564 26.6392 36.3491 27.0259 36.2793 27.0312C36.231 27.0312 36.2847 26.8809 36.3921 26.7144C36.4351 26.6445 36.478 26.5103 36.4834 26.4189C36.4941 26.1772 36.6606 25.8228 36.7305 25.8926C36.7681 25.9302 36.7466 25.9839 36.6714 26.0591ZM46.2856 26.0215C46.436 26.2041 46.4092 26.2524 46.2319 26.1074C46.1514 26.0376 46.0923 25.9678 46.103 25.9409C46.1406 25.8818 46.1782 25.8979 46.2856 26.0215ZM46.4307 26.478C46.4199 26.5317 46.4629 26.666 46.5327 26.7734C46.667 26.9883 46.6777 27.0312 46.6133 27.0312C46.5381 27.0312 46.3286 26.5693 46.3662 26.478C46.4092 26.3599 46.4575 26.3599 46.4307 26.478ZM42.4185 26.5801C42.6172 26.6768 42.6064 26.811 42.397 26.9131L42.2519 26.9829L42.2466 27.7993C42.2412 28.7339 42.166 28.5835 42.1392 27.5791L42.123 26.9775H41.8115H41.5L41.4893 28.0625C41.4839 29.04 41.4785 29.0938 41.4463 28.5889C41.4248 28.2773 41.4033 27.7886 41.3979 27.4985L41.3926 26.9775H41.1025H40.8125L40.7749 27.4985C40.7212 28.3203 40.7104 28.3418 40.6997 27.6328L40.6943 26.9775L40.5493 26.9185C40.27 26.8164 40.2485 26.6768 40.4956 26.5747C40.7534 26.4619 42.1982 26.4619 42.4185 26.5801ZM30.7041 27.8208C30.1724 28.1753 29.6138 28.6533 28.9316 29.3408C27.562 30.7158 26.5576 32.1606 25.9077 33.6968C25.5102 34.6206 25.5102 34.6421 25.6875 35.0288C25.7842 35.249 25.8486 35.3403 25.8755 35.292C25.897 35.2544 26.0259 34.9429 26.1602 34.6045C26.9228 32.7192 27.9326 31.1401 28.9853 30.1895L29.3237 29.8833L29.5977 30.1089C30.0703 30.4956 31.8052 31.9351 31.8535 31.978C31.8804 31.9995 31.6602 32.2573 31.3647 32.5527C30.4141 33.5034 29.8394 34.2983 29.2378 35.4961L28.9424 36.0815L27.8306 37.0591C27.2183 37.6016 26.7026 38.042 26.6811 38.042C26.665 38.042 26.5952 37.9131 26.5361 37.7573C26.4717 37.6069 26.1494 36.8389 25.8164 36.0547C25.3706 34.9912 25.2256 34.5938 25.2471 34.481C25.3545 33.96 26.187 32.3379 26.8477 31.3711C27.8789 29.8672 28.9102 28.8574 30.3281 27.9766C30.9297 27.6006 31.1982 27.4878 30.7041 27.8208ZM53.021 28.2075C53.8481 28.75 54.8149 29.6631 55.5293 30.5815C56.2544 31.5107 57.1621 33.1274 57.5381 34.1587L57.6831 34.5562L57.479 35.0771C57.2856 35.5659 56.2705 37.9937 56.2383 38.0312C56.2329 38.042 55.8301 37.7036 55.3467 37.2793C54.8686 36.855 54.3584 36.4146 54.2187 36.2964C54.0146 36.1245 53.8965 35.9473 53.6226 35.3833C53.0371 34.2017 52.2744 33.1543 51.4097 32.3594L51.0068 31.9941L51.1841 31.8652C51.3828 31.7148 52.8276 30.5278 53.2788 30.1357L53.585 29.8726L53.7891 30.0283C54.2295 30.3774 54.9385 31.2153 55.4272 31.9727C55.8086 32.5635 56.3296 33.6162 56.7324 34.5991L57.0439 35.3726L57.1997 35.0288C57.3394 34.7173 57.3501 34.6636 57.2964 34.4595C57.1943 34.0674 56.668 32.9019 56.3188 32.3057C55.438 30.7856 53.8696 28.9863 52.6719 28.1162C52.4194 27.9336 52.167 27.7456 52.1079 27.7026C51.936 27.563 52.6128 27.939 53.021 28.2075ZM58.1504 28.127C58.0806 28.1968 57.9624 28.0894 58.0161 27.998C58.043 27.9551 58.0752 27.9551 58.1289 28.0034C58.1826 28.0464 58.1934 28.084 58.1504 28.127ZM35.9409 28.5352C37.6006 28.8843 39.0024 29.6846 40.7642 31.2959L41.4463 31.9243L41.9189 31.4946C43.4658 30.0767 44.8193 29.1958 46.0654 28.7822C46.8872 28.5083 47.5264 28.4116 48.4824 28.4062C49.519 28.4009 50.1045 28.4922 51.0713 28.8037C51.834 29.0562 52.7256 29.4429 52.7202 29.5234C52.7202 29.5557 52.6558 29.6362 52.5752 29.6953L52.4302 29.8135L51.8018 29.502C50.1582 28.6909 48.5146 28.4922 46.9517 28.9111C46.5166 29.0239 45.6196 29.3462 45.6465 29.373C45.6572 29.3838 45.856 29.3301 46.0869 29.2603C47.854 28.6963 49.7446 28.9863 51.4687 30.082C51.689 30.2217 51.8608 30.3506 51.8501 30.3721C51.8447 30.3882 51.5117 30.6997 51.1143 31.0542L50.3892 31.7041L49.9595 31.6665C49.7231 31.6396 49.0356 31.6235 48.4287 31.6235C47.231 31.6235 46.9087 31.6719 46.0225 31.978C45.1792 32.2681 44.1641 32.8428 43.6001 33.3477C43.1489 33.7505 43.1113 33.627 43.5356 33.1436L43.7612 32.8911L43.4658 32.9771C43.3047 33.02 43.1328 33.0469 43.0845 33.0254C43.0361 33.0093 42.9448 32.8696 42.8857 32.7192L42.7676 32.4453L42.6978 32.6924C42.6064 33.0039 42.4614 33.0952 42.3003 32.9341C42.209 32.8428 42.1929 32.7837 42.2251 32.6279C42.3003 32.2144 42.5098 31.8706 43.0146 31.3496L43.5142 30.8286L42.8159 31.3604C42.4346 31.6504 41.9619 32.0156 41.7739 32.1714L41.4302 32.4507L41.1294 32.1929C40.9629 32.0532 40.4795 31.6611 40.0498 31.3281C39.3247 30.7642 39.2978 30.748 39.6577 31.0918C39.8726 31.3013 40.0605 31.5322 40.082 31.6128C40.1519 31.8975 40.0713 32.6279 39.9263 33.0415C39.7222 33.6216 39.7061 33.627 39.3247 33.3101C38.1001 32.2896 36.564 31.6772 34.9473 31.5698C34.4477 31.5322 33.1909 31.6128 32.7827 31.7041C32.584 31.7471 32.5625 31.7363 32.2187 31.4355C32.02 31.2637 31.6763 30.9521 31.456 30.748C30.9888 30.3076 30.9727 30.3506 31.6602 29.9424C32.2402 29.5879 32.7881 29.3623 33.5508 29.1636C34.0879 29.0239 34.2651 29.0024 34.9473 28.9971C35.7852 28.9917 36.2632 29.0669 36.999 29.314C37.2139 29.3838 37.3911 29.4375 37.4019 29.4268C37.4287 29.4053 36.4888 29.0454 36.1289 28.9434C34.4961 28.4761 32.7397 28.6802 31.0478 29.5288L30.4624 29.8242L30.3066 29.6685L30.1509 29.5127L30.5215 29.3247C31.3271 28.9219 32.5088 28.5566 33.4165 28.4331C34.0019 28.3525 35.3179 28.4062 35.9409 28.5352ZM25.333 28.562C25.4082 28.605 25.4458 28.6372 25.4136 28.6372C25.3867 28.6372 25.3008 28.605 25.2256 28.562C25.1504 28.519 25.1182 28.4868 25.145 28.4868C25.1772 28.4868 25.2578 28.519 25.333 28.562ZM57.8281 28.519C57.7852 28.5352 57.6831 28.5835 57.6025 28.6265C57.5166 28.6641 57.4521 28.6855 57.4521 28.6748C57.4521 28.6265 57.7422 28.4868 57.8281 28.4868C57.8979 28.4922 57.8979 28.4922 57.8281 28.519ZM26.3696 29.1099C26.332 29.1206 26.2676 29.1206 26.2353 29.1099C26.1977 29.0938 26.2246 29.083 26.2998 29.083C26.375 29.083 26.4019 29.0938 26.3696 29.1099ZM56.6841 29.1045C56.668 29.1206 56.6196 29.126 56.582 29.1099C56.5391 29.0938 56.5552 29.0776 56.6143 29.0776C56.6733 29.0723 56.7056 29.0884 56.6841 29.1045ZM26.6919 29.4697C26.708 29.5127 26.708 29.561 26.6919 29.5771C26.6435 29.6255 26.5093 29.4966 26.5469 29.4429C26.5898 29.373 26.6597 29.3838 26.6919 29.4697ZM56.3779 29.4751C56.3779 29.5181 56.3403 29.5557 56.2974 29.5557C56.2114 29.5557 56.1899 29.4912 56.2544 29.4321C56.3135 29.3677 56.3779 29.3892 56.3779 29.4751ZM22.3413 31.9834C22.4058 32.0156 22.6904 32.123 22.9697 32.2197L23.4746 32.397H23.1738C22.9644 32.3916 22.8784 32.3701 22.8945 32.3271C22.9321 32.2305 22.395 32.064 22.019 32.0586C21.831 32.0532 21.6807 32.0479 21.6807 32.0371C21.6807 32.0317 21.7344 31.9995 21.8042 31.9727C21.9707 31.9028 22.207 31.9082 22.3413 31.9834ZM61.1528 31.9941C61.271 32.0586 61.2603 32.064 61.0132 32.0425C60.6641 32.0049 60.0034 32.209 60.0518 32.3325C60.0786 32.3916 60.0625 32.4023 59.998 32.3809C59.9551 32.3647 59.8369 32.3486 59.7456 32.3486C59.606 32.3486 59.6436 32.3218 59.9497 32.209C60.1592 32.1338 60.4116 32.0425 60.5137 31.9995C60.7554 31.9082 60.9917 31.9028 61.1528 31.9941ZM24.7261 32.2681C25.2471 32.499 25.1772 32.5151 24.624 32.2896C24.3931 32.1982 24.1675 32.1338 24.1245 32.1553C24.0332 32.1875 24.0171 32.3809 24.0977 32.4292C24.1299 32.4453 24.1514 32.4883 24.1514 32.5259C24.1514 32.5688 24.1352 32.5688 24.0869 32.5205C24.0493 32.4829 23.915 32.4561 23.7808 32.4507C23.5283 32.4453 23.5283 32.4346 23.7915 32.3809C23.8721 32.3594 23.9258 32.3218 23.9097 32.2949C23.8721 32.2358 24.0923 32.0801 24.2158 32.0801C24.2642 32.0801 24.4951 32.166 24.7261 32.2681ZM58.9668 32.209C59.0527 32.3003 59.1709 32.3486 59.332 32.3647L59.5737 32.3862L59.2998 32.3916C59.1064 32.397 58.9668 32.4399 58.8271 32.5366L58.6284 32.6709L58.7734 32.4829C58.9238 32.2842 58.9131 32.1338 58.7519 32.1338C58.6929 32.1338 58.4727 32.2036 58.2578 32.2949C57.8496 32.4614 57.7261 32.499 57.9087 32.3916C58.1128 32.2734 58.6069 32.0801 58.7197 32.0801C58.7842 32.0801 58.8916 32.1392 58.9668 32.209ZM23.5068 33.0791C23.625 33.1597 23.7217 33.2295 23.7217 33.2402C23.7217 33.2778 23.1846 33.0146 23.1846 32.9771C23.1846 32.9019 23.292 32.9395 23.5068 33.0791ZM59.7026 33.02C59.6865 33.0308 59.5791 33.0845 59.4609 33.1328C59.23 33.2295 59.2676 33.1543 59.52 33.0254C59.6597 32.9556 59.7725 32.9502 59.7026 33.02ZM46.71 33.9707C47.7197 34.1587 48.7886 34.8516 49.4707 35.7539C49.7983 36.189 50.2817 37.043 50.0078 36.6992C49.7822 36.4146 49.0034 35.6196 48.9014 35.5659C48.8477 35.5391 48.9336 35.7271 49.1001 36.0063C49.3686 36.4629 49.6641 37.1235 49.6641 37.2793C49.6641 37.3115 49.7446 37.376 49.8413 37.4189C50.1797 37.5586 50.4106 38.0098 50.3408 38.3857C50.3193 38.4878 50.2173 38.6758 50.1152 38.7993C49.9111 39.0464 49.7178 39.3955 49.6157 39.7124C49.5566 39.895 49.562 39.9272 49.7124 40.1528C50.0186 40.604 50.0615 41.1948 49.8037 41.4526C49.7124 41.5386 49.6694 41.6621 49.6479 41.8931C49.605 42.3174 49.5674 42.3926 49.4277 42.3926C49.2827 42.3926 49.1807 42.2046 49.1807 41.936C49.1807 41.5762 49.0732 41.4849 48.9443 41.7373C48.8853 41.8555 48.853 42.4517 48.8047 44.729C48.6973 49.4824 48.6758 49.6973 48.6274 46.3027C48.606 44.6538 48.5737 43.2681 48.5576 43.2251C48.5361 43.1768 48.4824 43.1445 48.4341 43.1553C48.3159 43.1768 48.2891 43.4292 48.2461 45.019C48.2031 46.394 48.1709 46.6357 47.999 46.6357C47.7949 46.6357 47.7788 46.5229 47.7842 45.2017C47.7949 42.1885 47.7842 40.835 47.7358 40.835C47.709 40.835 47.6553 41.0928 47.6177 41.4043C47.5532 41.9683 47.5532 41.9683 47.4189 41.936C47.3437 41.9199 47.2363 41.936 47.1611 41.9897C46.9194 42.1455 47.043 42.5 47.3384 42.5C47.4082 42.5 47.4619 42.5161 47.4512 42.5376C47.2632 42.8975 47.2363 43.0264 47.2578 43.4453C47.2686 43.7998 47.2954 43.918 47.3975 44.0522C47.6875 44.4443 47.4082 45.1855 47.0806 44.8848C46.8926 44.7129 46.812 44.2993 46.7637 43.166C46.7368 42.5752 46.6885 41.979 46.6616 41.8447C46.5918 41.5386 46.6133 41.4688 46.8496 41.2915C47.0107 41.168 47.0322 41.125 47.0322 40.9102C47.0322 40.4214 46.7368 40.083 46.3179 40.083C46.0386 40.083 45.8022 40.2173 45.7163 40.4214L45.6465 40.5933L45.6143 40.3516C45.5981 40.2173 45.5605 39.4707 45.5283 38.6865C45.4746 37.2524 45.3779 35.6465 45.3403 35.5444C45.3188 35.4854 45.3188 35.5015 45.2705 37.1182C45.2383 38.0796 45.2222 38.2192 45.1362 38.2622C45.0073 38.3374 44.8838 38.5952 44.8838 38.8047C44.8838 38.9014 44.9429 39.127 45.0181 39.3042C45.0933 39.4868 45.1523 39.7339 45.1523 39.8735C45.1523 40.083 45.1309 40.1367 45.0127 40.2173C44.7119 40.4106 44.6421 40.8779 44.8569 41.2969C45.0127 41.603 45.0234 41.8931 44.9375 43.542C44.8569 45.062 44.7441 45.5078 44.4541 45.5078C44.2446 45.5078 44.1909 45.2017 44.0996 43.5742C44.0566 42.7095 44.0029 42.8115 43.9438 43.875C43.8633 45.5347 43.8257 45.8784 43.7075 46.0234C43.5571 46.2168 43.5571 46.582 43.7021 46.7163C43.8418 46.8452 43.8418 47.0439 43.6968 47.1191C43.5464 47.2051 43.4014 47.0654 43.3101 46.7593C43.2402 46.5283 43.2402 46.5229 43.1436 46.6304C43.0898 46.6895 43.0361 46.8291 43.02 46.9473C42.9985 47.1245 43.02 47.2212 43.1597 47.4575C43.2563 47.6294 43.3262 47.8281 43.3262 47.9355C43.3262 48.1558 43.1543 48.4082 42.9985 48.4082C42.9072 48.4082 42.8965 48.4512 42.8965 48.8755C42.8911 49.1387 42.8696 50.3364 42.8428 51.5503C42.7998 53.6396 42.7676 54.0479 42.6333 54.0479C42.4883 54.0479 42.4561 53.6128 42.4131 50.9863C42.3486 47.2266 42.3325 46.9902 42.1392 46.5767L41.9834 46.249L41.9243 43.8481C41.8437 40.3516 41.7686 40.2549 41.688 43.5474C41.6719 44.2241 41.6343 45.3145 41.602 45.9644C41.5322 47.5811 41.4033 50.9863 41.355 52.6782L41.312 54.0747L41.2798 52.9468C41.2637 52.3237 41.2422 50.7017 41.2368 49.3374C41.2314 46.8882 41.1562 43.6172 41.0757 42.543C41.0327 41.9414 41.0327 42.0327 40.9092 46.9526C40.8608 48.8218 40.8447 49.0903 40.7588 49.2085C40.7051 49.2891 40.646 49.5415 40.6138 49.7993C40.5815 50.0732 40.5332 50.2612 40.4956 50.2773C40.4473 50.2881 40.4258 50.2397 40.4258 50.1377C40.4258 49.9175 40.2378 49.6973 40.0552 49.6973C39.8081 49.6973 39.6523 49.9175 39.6523 50.2612C39.6523 50.5889 39.7705 50.7715 39.98 50.7715C40.1465 50.7715 40.1572 51.0078 39.9907 51.0938C39.792 51.2012 39.6362 51.1152 39.5342 50.8521C39.459 50.6426 39.4482 50.4976 39.4805 49.8584C39.5181 49.1226 39.5127 49.1064 39.3945 48.9829C39.271 48.8594 39.271 48.854 39.3623 48.6982C39.4268 48.5854 39.4644 48.3599 39.4912 47.9463C39.5342 47.2266 39.4912 46.8989 39.3301 46.7056C39.2334 46.5928 39.2012 46.4854 39.1958 46.2705C39.1958 46.1147 39.1797 45.959 39.1636 45.9321C39.1421 45.9053 39.1636 45.8677 39.2065 45.8516C39.3569 45.7979 39.416 45.5186 39.4214 44.8794C39.4321 44.3369 39.416 44.2241 39.3301 44.0952L39.228 43.9448L39.4482 43.7192C39.9531 43.2036 39.9692 42.5537 39.4805 42.1294L39.2871 41.9575V41.3452C39.2871 40.7544 39.2925 40.7222 39.4321 40.5557C39.7705 40.1528 39.8135 39.6318 39.5449 39.2236C39.4214 39.0356 39.3999 38.9175 39.3247 38.0098C39.2764 37.4512 39.228 36.9893 39.2173 36.9731C39.2012 36.9624 39.1904 37.6392 39.1904 38.4878C39.1904 39.4438 39.1689 40.0776 39.1313 40.1743C39.1045 40.2549 38.981 40.4375 38.8628 40.5771L38.6533 40.8296V42.2529C38.6533 43.6602 38.6211 43.9502 38.4707 43.9502C38.2827 43.9502 38.2559 43.7998 38.2129 42.3765C38.1753 41.0874 38.1377 40.7974 38.0249 40.9102C37.998 40.9316 37.9604 41.5601 37.939 42.3013C37.896 43.6709 37.8638 44.0039 37.7671 44.02C37.6811 44.0361 37.6436 43.5742 37.5522 41.5601C37.4717 39.8252 37.332 37.7251 37.2891 37.6821C37.2783 37.6714 37.2568 38.1763 37.2353 38.8047C37.2192 39.4331 37.187 40.1689 37.1709 40.4429C37.1387 40.9209 37.1279 40.937 36.9829 40.9961C36.6875 41.1196 36.521 41.5547 36.623 41.9521C36.6821 42.1831 36.9346 42.5107 37.0957 42.5645C37.1602 42.5859 37.144 42.6289 37.0205 42.7686L36.8701 42.9512L36.9077 43.687C36.9399 44.3638 36.9346 44.4443 36.8325 44.6753L36.7197 44.9277L36.8486 45.0942C37.0474 45.3521 37.1064 45.54 37.0151 45.6152C36.9775 45.6475 36.9077 45.7549 36.8594 45.8569C36.7788 46.0234 36.7788 46.0718 36.8755 46.5122C37.0957 47.5112 37.1172 48.5962 36.9185 48.9829C36.6982 49.4019 36.1504 49.2139 36.1934 48.7358C36.2095 48.5747 36.2417 48.5264 36.4082 48.4512C36.6606 48.333 36.7734 48.1665 36.7734 47.9194C36.7734 47.4575 36.231 47.1943 35.9731 47.5273C35.8872 47.6401 35.8603 47.7476 35.8603 48.0107C35.8603 48.3706 35.7905 48.4673 35.7314 48.188C35.6777 47.9194 35.6938 47.7852 35.8066 47.4468C35.9302 47.0923 35.9033 46.9365 35.6777 46.7539C35.5649 46.668 35.5435 46.6196 35.5703 46.4854C35.5918 46.3833 35.5703 46.2544 35.5166 46.147C35.4683 46.0503 35.436 45.9697 35.4414 45.9697C35.6294 45.9053 35.8013 45.7603 35.8818 45.5938C35.9785 45.4004 35.9785 45.3735 35.8979 45.2178C35.8442 45.1157 35.8013 44.8311 35.7852 44.4604C35.7476 43.7676 35.6885 43.5259 35.5112 43.311C35.4092 43.1929 35.3769 43.0908 35.3769 42.8975C35.3716 42.7524 35.3447 42.5645 35.3071 42.4785C35.2427 42.3389 35.2534 42.312 35.3877 42.1724C35.5596 42.0005 35.5649 41.9629 35.479 40.9585C35.4521 40.5771 35.3877 40.1636 35.3394 40.04C35.2642 39.8198 35.2642 39.7822 35.3769 39.4009C35.5166 38.939 35.5005 38.6006 35.3232 38.1333C35.1782 37.7573 35.189 37.666 35.3823 37.4028C35.5273 37.1987 35.5381 37.1611 35.4683 37.0859C35.334 36.9302 35.248 36.7368 35.189 36.4307C35.1245 36.1353 35.1245 36.1353 34.9419 36.1514C34.6787 36.1782 34.3779 36.3931 34.2383 36.6616C34.1309 36.8657 34.1201 37 34.0825 38.1494C34.0557 38.8423 34.0234 40.2817 34.0019 41.3398C33.9858 42.4033 33.9482 43.2358 33.9268 43.1929C33.9053 43.1499 33.873 42.0972 33.8623 40.8511C33.8354 38.4019 33.8569 38.5845 33.54 38.1924C33.3789 37.9883 33.3896 37.5317 33.5723 37.0913C33.6475 36.9033 33.7119 36.6509 33.7119 36.5273C33.7119 36.3662 33.7817 36.1567 33.9429 35.8237C34.0664 35.5659 34.1631 35.3564 34.1523 35.3564C34.0395 35.3564 33.2339 36.2051 32.8364 36.7529C32.7827 36.8281 32.8149 36.7422 32.9116 36.5649C33.6313 35.2114 34.6733 34.3521 35.9893 34.0137C36.5049 33.8848 37.3965 33.8687 37.9443 33.9868C39.2978 34.2715 40.3882 35.1738 40.6675 36.2427C40.7642 36.6187 40.7695 36.9033 40.689 37.3867C40.6353 37.7144 40.6138 37.752 40.458 37.8271C40.1411 37.9775 40.1357 38.4233 40.4526 38.5737C40.7373 38.7134 40.8286 38.606 41.4463 37.3706C42.0801 36.1084 42.397 35.5874 42.8052 35.1577C43.7612 34.1426 45.2383 33.6968 46.71 33.9707ZM24.0977 36.1621C24.1514 36.1997 24.103 36.2051 23.9365 36.1836C23.6357 36.1406 23.5928 36.1084 23.8345 36.1084C23.9365 36.1084 24.0547 36.1353 24.0977 36.1621ZM59.332 36.2427C59.332 36.3179 59.3105 36.377 59.2837 36.377C59.2568 36.377 59.2461 36.3286 59.2622 36.2695C59.2837 36.1836 59.2622 36.1621 59.1494 36.1621C59.0688 36.1621 58.9561 36.189 58.897 36.2158C58.8379 36.2534 58.7949 36.2534 58.7949 36.2212C58.7949 36.1514 58.897 36.1191 59.1333 36.1138C59.3105 36.1084 59.332 36.1245 59.332 36.2427ZM23.6304 36.4951C23.7969 36.5811 23.6948 36.6025 23.4477 36.5327C23.3188 36.5005 22.9536 36.4683 22.6367 36.4629C22.3198 36.4629 22.0996 36.4414 22.1533 36.4199C22.2769 36.3662 23.5068 36.4307 23.6304 36.4951ZM60.852 36.436C61.1528 36.5166 61.0776 36.5327 60.6855 36.4683C60.417 36.4199 60.2397 36.4253 59.7993 36.5005C59.4932 36.5488 59.1978 36.6025 59.1387 36.6187C59.042 36.6509 59.042 36.6509 59.1333 36.5918C59.2568 36.5112 59.9658 36.3931 60.3525 36.3823C60.5137 36.3823 60.7393 36.4038 60.852 36.436ZM57.6885 38.5791C57.6938 39.7178 57.6724 40.1206 57.5918 40.5933C57.4897 41.2056 57.0708 42.7256 56.7163 43.7783L56.5068 44.3906L56.2222 43.9233C55.959 43.4883 55.9429 43.4453 56.0019 43.3003L56.0718 43.1445L56.1899 43.397C56.4424 43.9287 56.4316 43.9287 56.7217 43.1338C56.9795 42.4248 57.2642 41.4365 57.2266 41.3936C57.2158 41.3828 57.1138 41.6406 57.001 41.9683C56.8882 42.2905 56.727 42.645 56.6411 42.7471C56.5605 42.8545 56.4746 42.9834 56.4585 43.0371C56.4316 43.1284 56.4155 43.1284 56.2651 43.0532C56.1738 43.0103 56.1147 42.9458 56.1255 42.9082C56.1899 42.7417 56.437 41.9414 56.5391 41.5977C56.6411 41.2432 56.668 41.2056 56.77 41.2324C57.0332 41.2969 57.1406 40.8887 56.8882 40.7705C56.7378 40.7007 56.7378 40.6846 56.8076 40.1904C56.8345 39.9971 56.8828 39.4653 56.9097 39.0034C56.9634 38.1816 56.9687 38.1548 57.2104 37.5962C57.3447 37.2847 57.479 36.957 57.5112 36.8765L57.5757 36.7261L57.6294 36.9409C57.667 37.0645 57.6885 37.7573 57.6885 38.5791ZM25.623 37.5586C25.9023 38.2246 26.0205 38.6919 26.0312 39.1538C26.0312 39.2236 25.897 39.4331 25.7144 39.6533L25.3921 40.0347L25.478 40.3086C25.521 40.459 25.5801 40.647 25.6123 40.7222L25.666 40.8618L25.8701 40.6309C25.9829 40.5073 26.0903 40.4214 26.1011 40.4429C26.1172 40.4644 26.2192 40.835 26.3267 41.2593C26.4341 41.6836 26.5845 42.1992 26.6543 42.4087C26.8154 42.8813 26.8154 42.8867 26.6328 42.9941L26.4824 43.0854L26.418 42.8438C26.3643 42.6558 26.3213 42.5913 26.2031 42.5483C26.0796 42.5054 26.042 42.4409 25.956 42.1348C25.897 41.936 25.8057 41.6782 25.7519 41.5601C25.6982 41.4419 25.666 41.3882 25.6821 41.4419C25.6982 41.501 25.7949 41.8716 25.897 42.269C26.0957 43.0317 26.2192 43.3325 26.2998 43.2788C26.332 43.2573 26.3535 43.3057 26.3535 43.3755C26.3535 43.4453 26.3804 43.585 26.4126 43.6763L26.4717 43.8481L26.6597 43.5903C26.8423 43.3325 26.9819 43.252 26.9551 43.4238C26.9282 43.6064 26.4394 44.3745 26.3965 44.3101C26.3159 44.1865 25.7036 42.2744 25.5264 41.5654C25.4243 41.1733 25.3061 40.6416 25.2685 40.373C25.1558 39.5889 25.1826 36.6885 25.3061 36.812C25.3115 36.8228 25.4565 37.1611 25.623 37.5586ZM28.4214 37.8755C28.2495 38.8477 28.2602 40.1206 28.4536 41.082L28.5073 41.3613L28.04 42.0918C27.7822 42.4946 27.5566 42.8223 27.5405 42.8223C27.4653 42.8223 27.0947 41.5386 26.998 40.9531C26.896 40.3301 26.7832 39.3525 26.7832 39.0625C26.7832 38.939 26.9175 38.7886 27.6265 38.1602C28.0937 37.7412 28.4805 37.4082 28.4858 37.4189C28.4912 37.4243 28.4644 37.6284 28.4214 37.8755ZM55.4058 38.23L56.1577 38.8745V39.1162C56.1631 39.4814 56.0127 40.7383 55.8838 41.3452C55.7817 41.8394 55.4971 42.7417 55.4111 42.8384C55.395 42.8599 55.1533 42.5537 54.8848 42.1562L54.3906 41.4312L54.4819 40.9048C54.6377 40.0078 54.6001 38.2729 54.4067 37.5103L54.3745 37.376L54.5142 37.4834C54.5894 37.5371 54.9922 37.8755 55.4058 38.23ZM23.5928 39.9648C23.4961 40.0508 23.4961 40.0508 23.5605 39.9326C23.5928 39.8628 23.6357 39.8198 23.6572 39.8359C23.6733 39.8574 23.6465 39.9111 23.5928 39.9648ZM59.3965 39.9487C59.4126 40.0186 59.4072 40.0669 59.3857 40.0562C59.3267 40.0186 59.2783 39.8145 59.332 39.8145C59.3535 39.8145 59.3857 39.8735 59.3965 39.9487ZM21.9922 39.9595C21.8794 39.9702 21.686 39.9702 21.5625 39.9595C21.4336 39.9487 21.5249 39.938 21.7612 39.938C21.9976 39.938 22.0996 39.9487 21.9922 39.9595ZM61.3569 39.9595C61.2495 39.9702 61.0776 39.9702 60.981 39.9595C60.8896 39.9487 60.981 39.938 61.1851 39.938C61.3945 39.938 61.4697 39.9487 61.3569 39.9595ZM22.959 40.0132C22.814 40.0239 22.5884 40.0239 22.4487 40.0132C22.3037 40.0024 22.4219 39.9971 22.7012 39.9971C22.9805 39.9971 23.0986 40.0024 22.959 40.0132ZM58.9023 39.9971C58.9023 40.0078 58.8647 40.0347 58.8164 40.0508C58.7734 40.0669 58.7519 40.0615 58.7681 40.0293C58.8003 39.9756 58.9023 39.9541 58.9023 39.9971ZM60.5298 40.0132C60.374 40.0239 60.1162 40.0239 59.9658 40.0132C59.8101 40.0024 59.9336 39.9971 60.2451 39.9971C60.5566 39.9971 60.6802 40.0024 60.5298 40.0132ZM29.9575 41.9575L30.5054 42.5645L30.4033 42.7363C30.21 43.0693 27.8413 46.7163 27.7822 46.7861C27.7285 46.8452 27.6372 46.7163 27.3257 46.1523C27.1108 45.7656 26.9443 45.438 26.9551 45.4219C26.9658 45.4111 27.1055 45.5938 27.2612 45.8301C27.417 46.0664 27.562 46.2705 27.5835 46.2812C27.605 46.2974 27.7822 46.0396 27.981 45.7119C28.3086 45.1533 28.3301 45.105 28.2656 44.9761C28.2227 44.9009 28.1743 44.7559 28.1528 44.6538C28.1152 44.4766 28.1206 44.4712 28.2012 44.5571C28.3623 44.7183 28.5449 44.729 28.6953 44.5894C28.9531 44.3477 28.8242 44.0952 28.3569 43.9072C28.0615 43.7891 28.0185 43.7998 28.0185 43.9717C28.0185 44.063 28.0078 44.0684 27.9648 44.0039C27.9058 43.918 27.7607 44.0522 27.331 44.5679C27.229 44.686 27.1645 44.7559 27.1753 44.729C27.272 44.5303 28.9424 41.8447 29.2109 41.4634C29.27 41.3828 29.3398 41.3184 29.3613 41.3291C29.3882 41.3398 29.6567 41.6191 29.9575 41.9575ZM53.9985 41.9736C54.2349 42.3389 54.6216 42.9243 54.8472 43.2788L55.2554 43.9233L55.0996 43.9609C54.9976 43.9878 54.917 44.0576 54.874 44.165C54.7612 44.439 54.6807 44.4658 54.5195 44.2778C54.3799 44.106 54.1758 44.0522 54.1758 44.1812C54.1758 44.2241 54.2725 44.4067 54.396 44.5947C54.5142 44.7773 54.6592 45.0566 54.7129 45.207C54.772 45.3574 54.9277 45.6689 55.0674 45.9053L55.3144 46.3242L55.5776 45.959C55.9644 45.4219 56.0073 45.3682 55.9912 45.4326C55.9644 45.5293 55.2285 46.8506 55.1963 46.8506C55.1694 46.8506 52.4517 42.6987 52.4141 42.6021C52.3979 42.5591 53.4722 41.3184 53.5312 41.3184C53.5474 41.3184 53.7568 41.6138 53.9985 41.9736ZM24.7153 43.252C24.7314 43.2788 24.7153 43.3057 24.6724 43.3057C24.6294 43.3057 24.2964 43.4238 23.9311 43.5688C23.206 43.8535 22.8516 43.9663 23.2383 43.7837L23.48 43.6709L23.292 43.5098C23.1147 43.3486 23.1362 43.3594 23.4853 43.5742C23.5874 43.6387 23.6572 43.6226 24.0225 43.4722C24.2588 43.3809 24.4844 43.2788 24.5273 43.252C24.6294 43.1875 24.6724 43.1875 24.7153 43.252ZM58.8486 43.4399C59.1816 43.5742 59.4717 43.6655 59.4985 43.6494C59.5254 43.6333 59.5469 43.644 59.5469 43.6763C59.5469 43.7031 59.6113 43.7515 59.6973 43.7783C59.7778 43.8105 59.8154 43.8374 59.7832 43.8374C59.751 43.8428 59.4019 43.7192 59.0098 43.5688C58.6177 43.4238 58.2632 43.311 58.2256 43.3271C58.1504 43.3594 58.1235 43.2949 58.188 43.2358C58.231 43.1875 58.1719 43.166 58.8486 43.4399ZM30.8061 45.5991C30.9458 45.9966 31.6709 47.4253 32.0146 47.9678C32.7397 49.1172 33.7871 50.3042 34.9311 51.2764L35.4253 51.6953L35.624 52.2915C35.7314 52.6245 35.9409 53.2153 36.0806 53.6074C36.2256 54.0049 36.3437 54.3379 36.3437 54.354C36.3437 54.3647 36.2148 54.2734 36.0644 54.1392C35.9087 54.0103 35.6401 53.8008 35.4736 53.6772L35.1675 53.4463L34.6465 53.6074L34.1309 53.7686L33.6367 53.3496C33.0835 52.877 32.1973 52.1196 31.1016 51.1743C30.6934 50.8252 29.9951 50.1807 29.5547 49.751L28.7598 48.9668L28.8779 48.7305L28.9961 48.4941L29.1143 48.6553C29.6084 49.3374 30.8599 50.6104 32.0415 51.6255C33.1372 52.5654 34.1362 53.3496 34.2436 53.3496C34.3887 53.3496 35.0063 53.1294 34.9902 53.0811C34.9795 53.0596 34.7217 52.8286 34.4102 52.5708C32.3477 50.8359 30.7739 49.3374 30.833 49.1763C30.9834 48.7896 30.9888 48.6392 30.876 48.4028C30.7578 48.1611 30.2207 47.4468 30.1562 47.4414C30.1348 47.4414 30.0327 47.5864 29.9199 47.7637L29.7212 48.0806L29.5762 47.8818L29.4258 47.6831L29.6782 47.2266C30.355 45.9805 30.6826 45.4004 30.7041 45.4004C30.7256 45.4004 30.7685 45.4917 30.8061 45.5991ZM52.8545 46.5552L53.4722 47.6777L53.3701 47.8389C53.3164 47.9302 53.2466 48.0107 53.2251 48.0161C53.2036 48.0269 53.0962 47.8979 52.9995 47.7368C52.8975 47.5757 52.8008 47.4414 52.7847 47.4414C52.7632 47.4468 52.5644 47.7153 52.3335 48.043C51.8877 48.6875 51.6353 49.3052 51.748 49.4878C51.7964 49.563 51.6943 49.6812 51.1787 50.1914C50.4536 50.9004 48.7241 52.4097 48.0957 52.8877C47.9829 52.9736 47.8916 53.0542 47.8916 53.0757C47.8916 53.1187 48.5845 53.3496 48.708 53.3496C48.8638 53.3496 50.5664 51.9478 51.9307 50.7017C52.457 50.2183 53.3271 49.2729 53.6924 48.7842L53.8965 48.5103L54.0093 48.6929C54.0737 48.7949 54.1221 48.9077 54.1221 48.9399C54.1221 49.0474 52.7524 50.3848 51.8394 51.1743C51.3667 51.5771 50.4966 52.3291 49.9004 52.8447L48.8262 53.7739L48.3428 53.6128C48.0796 53.5269 47.8271 53.457 47.7788 53.457C47.7305 53.457 47.4189 53.6772 47.0859 53.9512C46.7476 54.2251 46.4951 54.397 46.522 54.3433C46.5435 54.2842 46.7744 53.6611 47.0376 52.9521C47.4673 51.7759 47.521 51.6577 47.709 51.502C48.939 50.4976 50.0561 49.2568 50.8726 47.9785C51.1572 47.5381 51.8125 46.2759 52.0488 45.728C52.124 45.54 52.2046 45.395 52.2153 45.4111C52.2261 45.4219 52.5161 45.9375 52.8545 46.5552ZM56.9634 46.7217C56.8828 46.8184 56.8452 46.7915 56.8936 46.668C56.9097 46.6196 56.9473 46.5981 56.9795 46.6143C57.0063 46.6304 57.001 46.6787 56.9634 46.7217ZM26.0742 46.7485C26.0957 46.8076 26.085 46.8076 26.0259 46.7593C25.9722 46.7056 25.9399 46.7056 25.8755 46.7593C25.8003 46.8184 25.8003 46.813 25.8647 46.7271C25.9507 46.6196 26.0366 46.6304 26.0742 46.7485ZM25.6445 46.8345C25.5854 46.8506 25.5478 46.9097 25.5478 46.9902C25.5478 47.103 25.5317 47.1191 25.4136 47.0869C25.3061 47.0601 25.2363 47.0923 25.0644 47.2695C24.9463 47.3877 24.8496 47.4736 24.8496 47.4575C24.8496 47.3608 24.9946 47.2104 25.1934 47.0923C25.3276 47.0171 25.4619 46.9204 25.4941 46.8774C25.5317 46.8345 25.6016 46.8022 25.6499 46.8022C25.7197 46.8076 25.7197 46.813 25.6445 46.8345ZM57.4521 46.8989C57.4521 46.9258 57.5596 47.0117 57.6885 47.0869C57.8174 47.1621 57.9624 47.2803 58.0107 47.3555C58.1504 47.5703 58.1128 47.5596 57.8872 47.3232C57.7422 47.1621 57.6348 47.0977 57.5273 47.0923C57.4092 47.0923 57.3662 47.0654 57.3555 46.9688C57.3447 46.9043 57.3608 46.8506 57.3931 46.8506C57.4253 46.8506 57.4521 46.8721 57.4521 46.8989ZM28.4482 50.3149C28.3784 50.3901 28.3032 50.4492 28.2764 50.4492C28.228 50.4492 28.5019 50.186 28.5503 50.1807C28.5664 50.1807 28.5181 50.2397 28.4482 50.3149ZM54.6323 50.4385C54.6162 50.4546 54.5732 50.4385 54.5356 50.4009C54.4873 50.3472 54.4927 50.3418 54.5679 50.374C54.6216 50.3901 54.6484 50.4224 54.6323 50.4385ZM28.0991 51.1475C27.9541 51.2119 27.8682 51.2119 27.9648 51.1475C28.0078 51.1206 28.083 51.0991 28.126 51.0991C28.1797 51.0991 28.1689 51.1152 28.0991 51.1475ZM55.1265 51.2334C55.0996 51.2603 54.8203 51.1636 54.8203 51.126C54.8203 51.1099 54.8955 51.126 54.9868 51.1582C55.0728 51.1904 55.1372 51.2227 55.1265 51.2334ZM46.1353 53.7739L45.7217 55.0684L44.9644 55.7344C44.5508 56.0996 43.6431 56.873 42.9502 57.4585C42.2573 58.0439 41.6343 58.5703 41.5698 58.6294C41.4517 58.7314 41.4517 58.7314 41.2959 58.6079C40.8447 58.2427 38.4277 56.1802 37.8477 55.6699L37.1763 55.0737L36.7627 53.7954C36.5371 53.0972 36.3599 52.5063 36.376 52.4956C36.3867 52.4795 36.5264 52.5923 36.6821 52.7373C36.8325 52.8877 37.4556 53.4409 38.0571 53.9727C38.6587 54.499 39.2603 55.0361 39.3999 55.165L39.647 55.396L39.3784 55.2241C39.0615 55.02 38.2021 54.3647 37.4502 53.7578C37.1548 53.5215 36.9292 53.3657 36.9507 53.4141C36.9668 53.4624 37.0581 53.7847 37.1548 54.123C37.3428 54.8052 37.3105 54.7622 38.186 55.5518C38.3257 55.6753 38.4385 55.8096 38.4385 55.8472C38.4385 55.8848 38.6587 56.0996 38.9272 56.3198C39.1958 56.5454 39.8618 57.1201 40.4043 57.6035C40.9521 58.0869 41.4194 58.479 41.4463 58.479C41.4839 58.479 43.3208 56.8892 44.1855 56.0996L44.481 55.8311L44.3252 55.6646C44.2124 55.5464 44.1855 55.4819 44.2231 55.4336C44.2554 55.396 44.2983 55.251 44.3144 55.1113C44.3467 54.8965 44.395 54.8213 44.5991 54.644C44.8354 54.4346 45.3188 54.209 45.5283 54.209C45.5874 54.209 45.668 54.1553 45.7109 54.0854C45.7861 53.9619 45.9795 53.3496 45.9473 53.3228C45.9365 53.312 45.6519 53.5269 45.3135 53.8008C44.1103 54.7676 43.1113 55.5518 43.1113 55.5303C43.1113 55.5142 43.7827 54.9072 44.5991 54.1714C45.4209 53.4409 46.1836 52.748 46.3071 52.6406C46.4253 52.5332 46.5273 52.4526 46.5381 52.4634C46.5488 52.4688 46.3662 53.0596 46.1353 53.7739ZM32.8848 54.252C32.7935 54.3379 32.7881 54.3379 32.8579 54.2251C32.8955 54.1606 32.9385 54.1177 32.9546 54.1338C32.9707 54.1445 32.9385 54.1982 32.8848 54.252ZM50.1689 54.354L50.373 54.6118L50.1582 54.3916C49.9917 54.2197 49.9272 54.1821 49.8735 54.2305C49.8198 54.2734 49.8198 54.2627 49.8735 54.1929C49.9111 54.1445 49.9487 54.1016 49.9541 54.1016C49.9595 54.1016 50.0561 54.2144 50.1689 54.354ZM32.7988 54.3916C32.7988 54.4023 32.7559 54.4453 32.7075 54.4829C32.6216 54.5527 32.6162 54.5474 32.686 54.4614C32.7559 54.3755 32.7988 54.3486 32.7988 54.3916ZM40.3506 55.9976C40.6782 56.293 40.7212 56.3521 40.6675 56.4272C40.5762 56.5562 40.5225 56.54 40.3613 56.3359C40.2808 56.2339 40.1089 56.1104 39.9692 56.062C39.835 56.0083 39.7275 55.9492 39.7275 55.9277C39.7275 55.9062 39.7436 55.8149 39.7598 55.7236C39.8027 55.5142 39.835 55.5303 40.3506 55.9976ZM35.3232 55.7666C35.3232 55.7935 35.2964 55.8203 35.2642 55.8203C35.2266 55.8203 35.2158 55.8687 35.2319 55.9438C35.2695 56.0835 35.1943 56.2393 35.1406 56.1479C35.1191 56.1157 35.1353 56.0889 35.1728 56.0889C35.2319 56.0889 35.2319 56.0781 35.1728 56.0405C35.1191 56.0083 35.1138 55.9707 35.1675 55.8579C35.2319 55.7129 35.3232 55.6646 35.3232 55.7666ZM47.7144 55.9868C47.7519 56.0728 47.7573 56.1533 47.7251 56.2017C47.6875 56.2607 47.6768 56.25 47.6768 56.1641C47.6768 56.0996 47.6445 56.019 47.6016 55.9814C47.5586 55.9492 47.5371 55.8848 47.5532 55.8418C47.5854 55.7505 47.6284 55.7881 47.7144 55.9868ZM35.0815 56.8408C35.0117 57.061 34.9526 57.2061 34.9473 57.1577C34.9473 57.1094 34.9687 57.002 35.001 56.916C35.0278 56.8301 35.0815 56.6528 35.1138 56.5186C35.1514 56.3843 35.189 56.3145 35.1997 56.3574C35.2104 56.4004 35.1567 56.6206 35.0815 56.8408ZM47.7305 56.4702C47.7305 56.4971 47.8433 56.7656 47.9775 57.061C48.1118 57.3564 48.2139 57.6089 48.2031 57.625C48.1709 57.6519 47.8218 56.9106 47.709 56.583C47.6606 56.4541 47.6499 56.3682 47.6768 56.3843C47.709 56.4004 47.7305 56.4434 47.7305 56.4702ZM34.8721 57.4424L35.0278 57.6196L34.856 57.4639C34.6894 57.3135 34.6519 57.2705 34.6948 57.2705C34.7056 57.2705 34.7808 57.3511 34.8721 57.4424ZM34.9204 57.8506C34.9043 57.8667 34.8613 57.8506 34.8237 57.813C34.7754 57.7593 34.7808 57.7539 34.856 57.7861C34.9097 57.8022 34.9365 57.8345 34.9204 57.8506ZM37.7134 59.0913C37.5254 59.4673 37.4985 59.4351 37.6758 59.0483C37.7563 58.8765 37.8262 58.7529 37.8369 58.7798C37.8477 58.8013 37.7939 58.9409 37.7134 59.0913ZM45.2329 59.0591C45.3027 59.2256 45.3564 59.3652 45.3403 59.3652C45.3027 59.3652 45.0449 58.8442 45.0449 58.769C45.0449 58.667 45.0825 58.7261 45.2329 59.0591ZM40.7051 61.5083C41.0757 61.7446 41.4141 61.9434 41.4517 61.9434C41.4893 61.9434 41.8437 61.7339 42.2412 61.4707C42.644 61.2129 43.0039 60.9819 43.0522 60.9551C43.1006 60.9336 42.9502 61.1001 42.7192 61.3311C42.4399 61.6104 42.2895 61.8091 42.2519 61.938C42.2251 62.0454 42.1821 62.2012 42.1606 62.2925C42.123 62.4375 42.1177 62.4214 42.1016 62.1689L42.0854 61.8896L41.8491 62.0562C41.7202 62.1475 41.602 62.2549 41.5859 62.2925C41.5752 62.3301 41.543 62.647 41.5215 62.9961C41.4678 63.9253 41.4141 63.9521 41.3711 63.0659L41.3335 62.2925L41.1348 62.1206C41.0273 62.0239 40.9199 61.9487 40.8984 61.9434C40.8716 61.9434 40.8555 62.0669 40.8555 62.2173C40.8555 62.5718 40.7695 62.5127 40.7212 62.1206C40.6836 61.8252 40.6621 61.793 40.2432 61.3525C40.0068 61.1055 39.8564 60.9336 39.9155 60.9819C39.9746 61.0303 40.3291 61.2666 40.7051 61.5083Z" fill="white"/>
<path d="M28.7651 30.9894C27.8628 31.9186 27.3257 32.6867 26.7563 33.8629C26.3857 34.631 26.0312 35.5548 26.0312 35.7536C26.0312 35.8234 26.1548 36.1403 26.3052 36.4626C26.5039 36.8922 26.5898 37.0212 26.6221 36.9621C26.6489 36.9191 26.7295 36.6129 26.8047 36.2799C26.9819 35.4904 27.1646 34.964 27.4814 34.2926C27.938 33.3366 28.647 32.3322 29.4795 31.4567L29.9683 30.9464L29.7104 30.6833C29.5654 30.5329 29.4204 30.4147 29.3828 30.4147C29.3506 30.4147 29.0713 30.6725 28.7651 30.9894Z" fill="white"/>
<path d="M29.2969 32.1605C29.2378 32.2894 29.2432 32.3163 29.3345 32.3808C29.4634 32.4774 29.5386 32.4076 29.5117 32.2089C29.4902 32.0102 29.3774 31.9833 29.2969 32.1605Z" fill="white"/>
<path d="M30.5806 32.4127C30.4356 32.4879 30.3926 32.5416 30.4302 32.5792C30.5 32.649 30.8653 32.4664 30.8653 32.3644C30.8653 32.2731 30.8223 32.2784 30.5806 32.4127Z" fill="white"/>
<path d="M29.9683 32.8159C29.8716 32.8481 29.8823 32.9932 29.9736 32.9932C30.0757 32.9932 30.1401 32.8911 30.0811 32.832C30.0542 32.8105 30.0005 32.8052 29.9683 32.8159Z" fill="white"/>
<path d="M29.3667 32.9606C29.2754 33.0681 29.3399 33.2453 29.501 33.3527C29.6299 33.4333 29.6406 33.4333 29.7534 33.3259L29.8662 33.2077L29.7588 33.0627C29.6299 32.8908 29.4634 32.8478 29.3667 32.9606Z" fill="white"/>
<path d="M27.8413 36.1997C27.7876 36.248 27.7929 36.4307 27.8467 36.4307C27.8735 36.4307 27.9487 36.3716 28.0185 36.2964L28.1421 36.1621H28.0078C27.938 36.1621 27.8574 36.1782 27.8413 36.1997Z" fill="white"/>
<path d="M26.8476 36.9082C26.8047 36.9351 26.7832 37.0264 26.7939 37.1499L26.81 37.3486L27.0142 37.1821C27.2505 36.978 27.272 36.8599 27.0679 36.8599C26.9819 36.8599 26.8852 36.8813 26.8476 36.9082Z" fill="white"/>
<path d="M53.209 30.657L52.9189 30.9471L53.3755 31.4197C54.8525 32.9559 55.7065 34.492 56.0825 36.2913C56.1577 36.6458 56.2383 36.9573 56.2705 36.9896C56.3618 37.0809 56.8291 36.0228 56.8237 35.7327C56.8237 35.2654 56.0557 33.493 55.4648 32.5906C54.96 31.8226 54.0522 30.7645 53.6333 30.469L53.4937 30.367L53.209 30.657Z" fill="white"/>
<path d="M53.2519 32.1712C53.1123 32.3377 53.0962 32.3914 53.1606 32.5311C53.2412 32.6976 53.3647 32.7459 53.5473 32.6761C53.73 32.6063 53.789 32.3914 53.6709 32.2142C53.5688 32.0584 53.3701 32.0369 53.2519 32.1712Z" fill="white"/>
<path d="M54.8794 36.1026C54.7881 36.1617 54.8364 36.3121 54.9599 36.3604C55.0727 36.4034 55.207 36.2584 55.164 36.1456C55.1264 36.0489 54.9975 36.0274 54.8794 36.1026Z" fill="white"/>
<path d="M55.7925 36.855C55.728 36.9409 55.6797 37.0215 55.6797 37.0376C55.6797 37.0698 56.0234 37.29 56.0771 37.29C56.1416 37.29 56.1094 37.0161 56.0288 36.8604C55.9805 36.769 55.9375 36.6992 55.9214 36.6992C55.9106 36.6992 55.8516 36.769 55.7925 36.855Z" fill="white"/>
<path d="M45.4209 29.4482C45.3779 29.4751 45.3672 29.502 45.394 29.502C45.4263 29.502 45.4853 29.4751 45.5283 29.4482C45.5713 29.4214 45.5874 29.3945 45.5552 29.3945C45.5283 29.3945 45.4639 29.4214 45.4209 29.4482Z" fill="white"/>
<path d="M32.7666 30.1139C32.6108 30.2697 32.584 30.3341 32.584 30.5436C32.584 30.7477 32.6162 30.8229 32.7612 30.984C33.0889 31.3439 33.5776 31.2633 33.7871 30.8175C33.9858 30.4039 33.6689 29.9313 33.1909 29.9313C32.9868 29.9313 32.9224 29.9581 32.7666 30.1139ZM33.2822 30.1998C33.3413 30.2428 33.3252 30.2482 33.2231 30.2267C33.0298 30.1784 32.8525 30.3663 32.8472 30.6242C32.8472 30.796 32.8418 30.8014 32.7988 30.694C32.7451 30.5704 32.8042 30.3502 32.917 30.216C32.9868 30.1354 33.1694 30.1246 33.2822 30.1998Z" fill="white"/>
<path d="M49.3203 30.098C48.751 30.5975 49.3095 31.4139 50.0185 31.1239C50.228 31.0325 50.3623 30.8016 50.3623 30.5223C50.3623 30.3397 50.3301 30.2645 50.1797 30.1141C50.0239 29.9583 49.9594 29.9315 49.75 29.9315C49.5566 29.9315 49.4707 29.9637 49.3203 30.098ZM50.0722 30.2806C50.1689 30.431 50.1904 30.6619 50.1098 30.7425C50.083 30.7694 50.0722 30.721 50.083 30.6082C50.1098 30.3719 49.9326 30.1678 49.7715 30.2537C49.6264 30.3289 49.5888 30.3182 49.664 30.2269C49.7661 30.1033 49.9702 30.1302 50.0722 30.2806Z" fill="white"/>
<path d="M47.2525 35.5503C46.9194 35.9746 47.4727 36.4365 47.8218 36.0283C47.9185 35.9209 47.9453 35.8403 47.9185 35.7382C47.8433 35.4106 47.4512 35.3032 47.2525 35.5503Z" fill="white"/>
<path d="M49.6479 37.8059C49.5781 37.8757 49.6103 38.0798 49.6963 38.155C49.8198 38.2571 49.9594 38.1497 49.9594 37.9563C49.9594 37.8274 49.9326 37.7952 49.8252 37.7844C49.75 37.7737 49.6694 37.7844 49.6479 37.8059Z" fill="white"/>
<path d="M46.001 38.7456C45.8882 38.8101 45.8721 39.1162 45.9688 39.2129C46.0064 39.2505 46.0977 39.2773 46.1729 39.2773C46.3608 39.2773 46.4414 39.186 46.4414 38.9712C46.4414 38.7295 46.2212 38.6167 46.001 38.7456Z" fill="white"/>
<path d="M49.3633 40.9106C49.3096 41.0502 49.3848 41.1684 49.5137 41.1469C49.605 41.1361 49.6372 41.0932 49.6372 40.9965C49.6372 40.8998 49.605 40.8568 49.5137 40.8461C49.4439 40.8354 49.3794 40.8622 49.3633 40.9106Z" fill="white"/>
<path d="M57.0869 40.0942C57.0171 40.164 57.001 40.4165 57.06 40.4756C57.103 40.5239 57.3447 40.3037 57.3447 40.2124C57.3447 40.105 57.1567 40.0244 57.0869 40.0942Z" fill="white"/>
<path d="M25.6822 39.063C25.6553 39.1435 25.6822 39.2026 25.7735 39.2724C25.8433 39.3315 25.9024 39.3691 25.9077 39.3637C25.9346 39.3369 25.7949 38.9555 25.7573 38.9555C25.7359 38.9555 25.6983 39.0039 25.6822 39.063Z" fill="white"/>
<path d="M27.895 38.7402C27.8735 39.0195 27.8413 39.7822 27.8252 40.4321C27.8037 41.082 27.7661 41.6567 27.7392 41.7158C27.7016 41.7856 27.6479 41.8071 27.5351 41.7803C27.3901 41.7534 27.3847 41.7588 27.4277 41.8984C27.4492 41.979 27.4975 42.1133 27.5298 42.1992L27.5888 42.3496L27.6855 42.2261C28.0293 41.7695 28.04 41.748 28.0239 41.3237C28.0132 41.0981 27.9917 40.3086 27.9702 39.5728C27.9433 38.3857 27.9326 38.2891 27.895 38.7402Z" fill="white"/>
<path d="M54.9922 39.2557C54.9868 39.6693 54.9546 40.389 54.9224 40.8455C54.8633 41.7586 54.8687 41.7909 55.1641 42.1453C55.3091 42.3172 55.3843 42.3011 55.4273 42.0916C55.4434 41.9896 55.4112 41.9036 55.2984 41.7747C55.148 41.6029 55.1426 41.5814 55.1426 41.0335C55.1426 40.5824 55.1587 40.4642 55.2232 40.4373C55.336 40.3944 55.3252 40.2171 55.2017 40.1312C55.1104 40.0667 55.0889 39.9539 55.0459 39.2772L54.9976 38.4984L54.9922 39.2557Z" fill="white"/>
<path d="M29.3989 42.1135C29.2754 42.2478 29.2861 42.425 29.4204 42.5593C29.5601 42.6989 29.6406 42.6721 29.7212 42.4411C29.8233 42.135 29.5923 41.8986 29.3989 42.1135Z" fill="white"/>
<path d="M29.5762 42.9031C29.5762 43.1179 29.6245 43.1394 29.7266 42.9783C29.7803 42.8923 29.7803 42.8494 29.7319 42.7903C29.6299 42.6667 29.5762 42.7043 29.5762 42.9031Z" fill="white"/>
<path d="M29.2002 43.3321C29.2002 43.3858 29.2378 43.4127 29.2969 43.402C29.4097 43.3805 29.3989 43.2838 29.2861 43.2623C29.2324 43.2516 29.2002 43.2784 29.2002 43.3321Z" fill="white"/>
<path d="M53.3111 42.0864C53.2627 42.1992 53.2573 42.2637 53.3057 42.3657C53.4238 42.6182 53.3862 42.7524 53.2036 42.79C53.0855 42.8115 53.0425 42.8438 53.0694 42.9028C53.1284 43.064 53.5474 43.5742 53.6172 43.5742C53.6548 43.5742 53.7139 43.4722 53.7515 43.3486C53.7998 43.1499 53.7945 43.0854 53.7031 42.8652C53.6333 42.6987 53.6172 42.5967 53.6494 42.5645C53.7246 42.4893 53.6655 42.2905 53.5098 42.1025L53.3755 41.9414L53.3111 42.0864Z" fill="white"/>
<path d="M30.5591 46.5549L30.4678 46.7429L30.6826 46.9255C30.7954 47.0276 30.8975 47.1028 30.9028 47.0974C30.9243 47.0813 30.6987 46.3669 30.6719 46.3669C30.6611 46.3669 30.6074 46.4529 30.5591 46.5549Z" fill="white"/>
<path d="M33.6045 50.6802C33.9429 51.0239 34.2544 51.3086 34.292 51.3086C34.3404 51.3086 34.3457 51.3677 34.3242 51.5127C34.2866 51.7651 34.3565 51.8296 34.6787 51.8564L34.9151 51.8726L35.1514 52.4365C35.4468 53.1562 35.4575 53.1938 35.3823 53.2422C35.334 53.269 35.3823 53.3335 35.5274 53.4517C35.6455 53.543 35.7529 53.6182 35.7691 53.6182C35.7798 53.6182 35.6885 53.3604 35.565 53.0381C35.4414 52.7212 35.2964 52.3452 35.2427 52.2002C35.1192 51.8672 34.8775 51.5986 34.0611 50.9058C33.0513 50.0518 32.9385 49.998 33.6045 50.6802Z" fill="white"/>
<path d="M52.1401 46.7167C52.0757 46.9155 52.0273 47.1034 52.0273 47.1357C52.0273 47.1679 52.124 47.0981 52.2422 46.9853C52.4893 46.7436 52.4946 46.7221 52.355 46.5073L52.2529 46.3515L52.1401 46.7167Z" fill="white"/>
<path d="M49.0464 50.6806L47.8647 51.771L47.4995 52.6572C47.3008 53.1406 47.1396 53.5542 47.1396 53.5756C47.1396 53.624 47.6177 53.3339 47.623 53.2802C47.623 53.2587 47.5854 53.2426 47.5425 53.2426C47.4136 53.2426 47.4458 53.146 47.7734 52.5175L48.085 51.9267L48.2729 51.9428C48.418 51.9536 48.5093 51.9267 48.6221 51.8247C48.7671 51.7065 48.7778 51.6635 48.7671 51.3681C48.7617 51.1855 48.7671 51.0405 48.7832 51.0405C48.7939 51.0405 48.853 51.0727 48.9121 51.1049C48.9819 51.1479 49.0356 51.1533 49.0679 51.1211C49.2397 50.9384 50.2979 49.5903 50.2656 49.5903C50.2441 49.5903 49.6963 50.0844 49.0464 50.6806Z" fill="white"/>
<path d="M45.0181 55.186L44.6421 55.5781L45.0342 55.2021C45.2437 54.998 45.4209 54.8208 45.4209 54.8154C45.4209 54.7725 45.3618 54.8262 45.0181 55.186Z" fill="white"/>
</svg>
