<svg width="104" height="37" viewBox="0 0 104 37" fill="none" xmlns="http://www.w3.org/2000/svg">
<path d="M85.7206 0.169319C85.6581 0.279266 84.8237 0.38921 83.8851 0.416698C81.257 0.526642 81.0275 0.554131 81.0275 0.746536C81.0275 0.85648 80.3392 0.85648 79.5257 0.774021C77.7319 0.581615 76.5013 0.636589 72.6842 1.04889C70.5358 1.29626 69.5763 1.29626 68.6794 1.0214C67.4696 0.691563 66.4476 0.85648 66.1764 1.40621C66.0721 1.6261 65.0709 1.73605 63.2563 1.79102C61.7336 1.81851 59.7312 1.92845 58.8134 2.0384C57.8957 2.12086 56.5607 2.20332 55.8516 2.17583C55.1424 2.14835 54.3289 2.28578 54.0786 2.4507C53.8075 2.6431 52.6394 2.83551 51.4088 2.89048C48.5929 3.02791 47.7794 3.11037 47.5083 3.33026C47.3831 3.44021 46.361 3.41272 45.2556 3.2478C43.6495 3.02791 43.0237 3.0554 42.1685 3.35775C41.4176 3.63261 38.8521 3.8525 33.8878 4.04491C29.9247 4.20983 25.1065 4.42972 23.1458 4.53967C21.206 4.64961 19.4539 4.73207 19.287 4.6771C18.8907 4.59464 18.849 4.59464 16.0748 4.59464C14.5939 4.59464 13.6761 4.4847 13.4675 4.2648C13.2798 4.0724 12.1952 3.90748 10.5474 3.82502C8.77443 3.77005 7.79409 3.60513 7.50207 3.35775C7.25177 3.13786 7.00147 3.0554 6.9389 3.13786C6.85547 3.22032 6.37572 3.33026 5.83341 3.41272C4.51934 3.55016 3.22612 4.34726 1.64089 6.02394C-0.00690937 7.75558 -0.0903424 8.38777 1.18201 9.48723C1.80776 10.0644 2.32922 10.2569 3.10097 10.2843C4.58191 10.3393 4.6862 10.3668 4.6862 10.6417C4.6862 10.7516 4.16475 11.5762 3.539 12.4558C2.57952 13.7476 2.39179 14.1874 2.47523 14.7646C2.5378 15.1494 2.64209 16.1939 2.70467 17.0735C2.82982 18.5303 2.80896 18.6677 2.45437 18.5853C2.18321 18.5303 2.09978 18.2829 2.14149 17.8156C2.20407 17.2659 2.16235 17.2109 1.97463 17.4583C1.82862 17.6232 1.66175 18.6952 1.62004 19.7947C1.51575 21.4713 1.41145 21.9386 0.97343 22.5708C0.556264 23.148 0.493689 23.3954 0.681414 23.6428C1.036 24.11 0.994288 24.4124 0.535406 24.4124C-0.23635 24.4124 -0.173776 25.3744 0.723131 27.1885C1.18201 28.1231 1.55746 29.0301 1.55746 29.195C1.55746 29.9647 2.93411 31.6138 4.18561 32.3835C4.91564 32.8507 5.60397 33.2081 5.72912 33.2081C5.83341 33.2081 6.29229 33.6204 6.70946 34.0876C7.64808 35.1596 9.50447 36.3965 9.96335 36.2591C10.0468 36.2591 10.3179 36.3415 10.5265 36.5064C10.9645 36.8088 12.9669 37.0562 13.1338 36.8088C13.1964 36.7263 14.135 36.6988 15.2196 36.7538C16.8883 36.8088 17.2012 36.7538 17.2012 36.3965C17.2012 36.1766 17.3055 35.6543 17.4515 35.2695C17.6601 34.6648 17.8061 34.5824 18.703 34.5824C19.3496 34.5824 19.7459 34.4449 19.8293 34.2251C19.871 34.0326 20.2465 33.8677 20.6428 33.8402C21.2685 33.8128 21.3311 33.8952 21.3103 34.5549C21.2894 35.0222 21.3728 35.2695 21.5814 35.297C21.7483 35.297 22.1446 35.407 22.4575 35.5169C22.7703 35.6269 23.1875 35.5994 23.4169 35.4345C23.7298 35.2146 23.8967 35.2421 24.0844 35.5444C24.293 35.8742 24.2721 35.9842 24.001 36.1216C23.8132 36.2041 23.5421 36.2316 23.4169 36.1766C23.2709 36.0941 22.8746 36.2041 22.52 36.3965C21.936 36.7263 21.9777 36.7538 23.4378 36.7813H24.9813L24.8562 35.6818C24.731 34.4724 25.0439 34.1976 25.5028 35.1321C25.7113 35.5994 25.8365 35.6269 26.1702 35.407C26.3997 35.2421 26.5874 34.8847 26.5874 34.6099C26.5874 34.1426 26.796 34.1151 29.6744 34.1976C31.3639 34.2251 32.7406 34.3075 32.7406 34.3075C32.7406 34.335 33.3455 34.4175 34.0755 34.4724C34.889 34.5549 35.4939 34.4724 35.6816 34.28C35.8693 34.0876 36.2865 34.0326 36.7662 34.1151C37.2251 34.2251 37.8926 34.1426 38.414 33.8952C39.0815 33.5929 39.4361 33.5654 39.9158 33.7853C40.3747 34.0052 40.7502 34.0052 41.1882 33.7853C41.5428 33.6204 42.106 33.5654 42.4188 33.6478C42.7734 33.7578 43.274 33.6204 43.6912 33.3455C44.1292 33.0431 44.5672 32.9607 44.9218 33.0706C45.2138 33.1806 46.0482 33.263 46.7574 33.2355C48.134 33.2081 48.572 33.5379 47.9463 34.1701C47.5708 34.5274 47.5917 34.5549 48.2174 34.5824C48.9892 34.5824 49.2812 34.1701 48.7598 33.7853C48.1757 33.373 48.5303 33.2081 49.3646 33.4829C49.7818 33.6478 50.1781 33.9502 50.2407 34.1976C50.3033 34.4175 50.4493 34.5549 50.5536 34.4724C50.8247 34.2525 51.4088 34.5824 51.4088 34.9672C51.4088 35.1596 52.0554 35.297 53.2443 35.3795C56.5816 35.5719 56.7902 35.5444 57.2074 35.0496C57.4159 34.8023 57.9374 34.5824 58.3546 34.5824C58.7717 34.5824 59.1472 34.4724 59.2306 34.3075C59.314 34.1426 59.5435 34.1426 59.8772 34.3075C60.4612 34.6099 62.3593 34.2525 69.5555 32.4934C73.7688 31.4489 74.9786 31.0091 74.9786 30.4319C74.9786 30.1845 75.3332 30.1571 76.2092 30.267C77.1062 30.4044 77.5442 30.3495 77.7319 30.1021C77.8779 29.8822 78.5662 29.6898 79.3171 29.6623C80.0263 29.6348 81.0692 29.4149 81.6115 29.2225C82.1539 29.0026 83.4053 28.8102 84.4065 28.8102C86.1586 28.8102 87.7022 28.2605 87.7022 27.6558C87.7022 27.5184 87.9316 27.4909 88.2236 27.6008C88.5574 27.7108 88.7451 27.6558 88.7451 27.4634C88.7451 27.271 88.9328 27.216 89.2248 27.2985C89.496 27.4084 90.1426 27.271 90.6849 27.0236C91.2272 26.7762 91.7695 26.6663 91.8738 26.7487C92.2076 27.0236 94.3768 26.254 94.3768 25.8692C94.3768 25.6768 94.6063 25.5118 94.8774 25.5118C95.1486 25.5118 95.5449 25.4294 95.7535 25.3194C96.0038 25.2095 96.0663 25.237 95.962 25.4569C95.8786 25.6493 95.8995 25.7867 96.0246 25.7867C96.1289 25.7867 96.2541 25.6218 96.3166 25.4294C96.3792 25.1545 96.5044 25.1545 96.8589 25.4294C97.5264 25.9791 97.9853 25.8967 97.8601 25.237C97.7767 24.7972 97.8601 24.6872 98.2147 24.6872C98.4859 24.6872 98.8613 24.4399 99.0699 24.1375C99.3828 23.6702 99.4037 23.5053 99.1742 22.7632C98.9656 22.076 98.9656 21.7737 99.1742 21.2514C99.6957 19.9871 99.3411 19.6847 97.5473 19.7397C96.6712 19.7947 95.67 19.7947 95.3154 19.7672C94.6897 19.7122 94.6897 19.7122 95.5866 19.135C96.6921 18.4478 96.7129 18.0905 95.6283 18.0905C95.1694 18.0905 94.794 17.9806 94.794 17.8156C94.794 17.4583 96.0455 17.0735 97.881 16.8536C98.6945 16.7437 99.4454 16.5513 99.5079 16.4138C99.5705 16.2764 99.8208 16.1664 100.05 16.1664C100.301 16.1664 100.447 16.084 100.363 16.0015C100.301 15.8916 99.5079 15.7816 98.611 15.7267C96.8589 15.5892 96.7964 15.5892 95.4823 15.6442C94.9817 15.6442 94.3977 15.4793 94.1265 15.2319C93.8762 14.9845 93.5008 14.7921 93.2922 14.7921C93.0836 14.7921 92.9167 14.6547 92.9167 14.5173C92.9167 14.3523 93.1045 14.2424 93.3339 14.2424C93.5633 14.2424 93.7511 14.0775 93.7511 13.8851C93.7511 13.1979 93.5008 13.1704 93.1045 13.7751C92.729 14.3523 92.6873 14.3523 92.4161 13.8851C92.145 13.4178 92.1033 13.4453 91.9155 14.1599L91.707 14.9296L91.6861 14.1874C91.6652 13.7751 91.5192 13.3353 91.3315 13.1979C91.0395 12.978 91.0603 12.923 91.5192 12.7581C91.8112 12.6757 92.1867 12.6757 92.3536 12.7581C92.5204 12.8406 92.7916 12.7306 92.9376 12.5107C93.1462 12.2084 93.313 12.1809 93.5842 12.4008C93.8345 12.6207 94.0222 12.5932 94.2517 12.3458C94.8148 11.7411 94.6271 11.4937 93.6468 11.4937C93.0627 11.4937 92.7082 11.6037 92.7082 11.8236C92.7082 12.071 92.6456 12.071 92.4787 11.8511C92.1033 11.3563 92.4161 10.6691 93.0002 10.6691C93.6468 10.6691 93.8345 10.2843 93.4382 9.84455C93.2087 9.59718 92.9585 9.56969 92.6456 9.73461C92.3953 9.87204 91.8738 9.9545 91.5192 9.89953C90.9769 9.81707 90.8309 9.67964 90.8309 9.21237C90.8309 8.77258 90.8935 8.71761 91.0812 8.96499C91.3732 9.3498 93.2922 9.40477 93.7511 9.01996C94.1265 8.71761 94.1057 8.69012 92.6664 7.9205C91.6861 7.39826 91.3732 7.34329 90.9561 7.59067C90.6223 7.78307 90.226 7.81056 89.788 7.64564C89.0788 7.37077 81.7784 7.50821 81.1944 7.78307C81.0067 7.89302 80.6729 7.83804 80.4643 7.67312C80.068 7.37077 80.1515 7.34329 81.7575 7.23334C83.3845 7.1234 83.6557 7.06842 83.9477 6.82104C84.198 6.60115 84.198 6.51869 83.8851 6.05142C83.6974 5.77656 83.5305 5.19934 83.5305 4.81453C83.5305 4.01743 83.3845 3.96245 81.8827 4.0724C81.3821 4.09988 81.2152 4.01743 81.2778 3.74256C81.3404 3.49518 81.9453 3.33026 83.1133 3.22032C84.6151 3.0554 84.9072 2.94545 85.22 2.39572C85.4286 2.0384 85.6163 1.90097 85.6163 2.06588C85.6163 2.56064 86.0335 2.50567 86.0335 2.0384C86.0335 1.79102 86.2004 1.70856 86.555 1.81851C86.847 1.87348 87.3059 1.73605 87.5979 1.48867C87.869 1.24129 88.2862 1.04889 88.5156 1.04889C88.7451 1.04889 88.9954 0.911453 89.058 0.774021C89.1414 0.609104 88.9328 0.499157 88.5574 0.499157C88.2236 0.499157 87.8899 0.38921 87.8273 0.279266C87.7022 0.00440216 85.9083 -0.0780602 85.7206 0.169319ZM74.2694 3.16534C74.7492 3.82502 76.0424 3.87999 76.1675 3.2478C76.2301 2.91796 76.4178 2.80802 76.7724 2.91796C77.4399 3.08289 77.565 3.38523 77.273 4.09988C77.0853 4.56715 76.8976 4.64961 76.4178 4.51218C76.0632 4.42972 75.6252 4.4847 75.4166 4.6771C75.1872 4.86951 74.8743 4.89699 74.6449 4.75956C74.4154 4.62213 74.1651 4.56715 74.04 4.62213C73.3308 4.86951 69.4094 5.06191 69.2426 4.84202C69.0131 4.53967 70.8278 3.52267 72.0376 3.27529C72.7676 3.11037 73.4142 2.91796 73.4768 2.83551C73.6645 2.58813 73.894 2.67059 74.2694 3.16534ZM79.6091 3.35775C79.8594 3.8525 79.7969 4.12737 79.4423 4.01743C79.2546 3.96245 78.9417 3.63261 78.7748 3.27529C78.4411 2.6431 78.4411 2.61562 78.9417 2.83551C79.2337 2.94545 79.5257 3.19283 79.6091 3.35775ZM44.7341 6.82104C43.9832 7.1234 43.6912 7.1234 43.6912 6.82104C43.6912 6.65613 44.0458 6.54618 44.4838 6.57367C45.1721 6.60115 45.193 6.62864 44.7341 6.82104Z" fill="black"/>
<path d="M92.5204 0.196748C92.2284 0.306694 91.9781 0.526585 91.9156 0.718991C91.853 0.966369 92.2076 1.04883 93.1045 1.04883C94.0431 1.04883 94.3768 0.938882 94.3768 0.664018C94.3768 0.00434256 93.5842 -0.188063 92.5204 0.196748Z" fill="black"/>
<path d="M89.8923 0.773963C89.8089 0.938882 90.0592 1.04883 90.4972 1.04883C90.9143 1.04883 91.2481 0.911396 91.2481 0.773963C91.2481 0.609045 90.9769 0.499099 90.6432 0.499099C90.2886 0.499099 89.9549 0.609045 89.8923 0.773963Z" fill="black"/>
<path d="M92.3953 1.59891C92.3119 1.76383 92.4996 1.87378 92.8125 1.87378C93.1253 1.87378 93.3131 1.76383 93.2296 1.59891C93.1671 1.434 92.9793 1.32405 92.8125 1.32405C92.6456 1.32405 92.4579 1.434 92.3953 1.59891Z" fill="black"/>
<path d="M87.9107 3.44061C87.0138 3.79793 86.9929 3.79793 87.2432 4.12777C87.3892 4.32017 87.4935 4.70498 87.4727 5.00734C87.4727 5.33717 87.4101 5.41963 87.3475 5.22723C87.1598 4.59504 86.0334 5.03482 86.0334 5.77696C86.0334 6.07931 88.5782 6.05182 88.9536 5.72198C89.2039 5.52958 89.183 5.44712 88.8493 5.2822C88.0358 4.89739 87.869 4.59504 88.2653 4.18274C88.6825 3.79793 88.4322 3.2482 87.9107 3.44061Z" fill="black"/>
<path d="M84.1563 4.21099C84.3023 4.43089 84.5526 4.62329 84.6986 4.62329C84.8655 4.62329 84.9907 4.43089 84.9907 4.21099C84.9907 3.93613 84.7821 3.7987 84.4483 3.7987C83.9895 3.7987 83.9269 3.85367 84.1563 4.21099Z" fill="black"/>
<path d="M84.3649 5.97039C84.4901 6.30023 84.6778 6.54761 84.7821 6.54761C85.1575 6.54761 85.0115 6.02536 84.5526 5.72301C84.1563 5.42066 84.1355 5.44815 84.3649 5.97039Z" fill="black"/>
<path d="M96.1706 9.37786C95.8786 9.65272 95.8368 9.81764 96.0246 9.98256C96.3374 10.2299 96.7546 9.76267 96.6503 9.32289C96.5877 9.10299 96.4417 9.13048 96.1706 9.37786Z" fill="black"/>
<path d="M94.6897 9.59762C94.4811 10.0099 94.6479 10.1199 95.1694 9.92746C95.4197 9.845 95.5657 9.68008 95.5031 9.54265C95.3571 9.21281 94.8565 9.2403 94.6897 9.59762Z" fill="black"/>
<path d="M95.8369 11.9879C95.1903 12.73 94.9609 13.1698 95.0651 13.4996C95.232 14.1043 95.4197 14.0768 96.2749 13.3347C96.9841 12.7025 97.297 11.658 96.9424 11.1908C96.8172 11.0258 96.3792 11.3282 95.8369 11.9879Z" fill="black"/>
<path d="M101.177 21.6367C101.01 21.9666 102.303 22.1865 103.346 22.0216C103.93 21.9116 104.118 21.7742 103.93 21.6367C103.575 21.3344 101.323 21.3344 101.177 21.6367Z" fill="black"/>
<path d="M45.8396 33.9491C45.4224 34.169 45.5267 34.5813 45.9856 34.5813C46.215 34.5813 46.4027 34.3889 46.4027 34.169C46.4027 33.7567 46.2776 33.7017 45.8396 33.9491Z" fill="black"/>
<path d="M41.9182 34.5833C41.9808 34.7207 42.0851 34.8582 42.1476 34.8582C42.1894 34.8582 42.2311 34.7207 42.2311 34.5833C42.2311 34.4184 42.1268 34.3084 42.0016 34.3084C41.8973 34.3084 41.8556 34.4184 41.9182 34.5833Z" fill="black"/>
<path d="M30.1542 35.0243C30.1542 35.3267 30.2168 35.4091 30.2794 35.1892C30.342 34.9968 30.3211 34.7495 30.2585 34.667C30.196 34.5571 30.1334 34.722 30.1542 35.0243Z" fill="black"/>
<path d="M32.532 35.6821C31.6351 35.8745 31.7394 36.012 33.1578 36.4792C33.8253 36.7266 34.0547 36.6991 34.2841 36.3693C34.451 36.1494 34.5553 35.9295 34.4927 35.8745C34.2841 35.5997 33.3038 35.5172 32.532 35.6821Z" fill="black"/>
<path d="M36.1823 35.5153C36.1823 35.5702 36.3283 35.7626 36.4951 35.955C36.7454 36.2299 36.808 36.2299 36.808 35.8451C36.808 35.5977 36.662 35.4053 36.4951 35.4053C36.3283 35.4053 36.1823 35.4603 36.1823 35.5153Z" fill="black"/>
<path d="M29.9248 36.0661C29.9248 36.6982 30.488 36.7807 30.8843 36.2035C31.2389 35.7087 31.218 35.6812 30.5923 35.6812C30.1542 35.6812 29.9248 35.8187 29.9248 36.0661Z" fill="black"/>
<path d="M18.9533 36.2585C18.849 36.5059 20.6011 36.6708 21.206 36.4784C21.498 36.3684 21.1852 36.286 20.3717 36.2035C19.6416 36.1485 18.995 36.176 18.9533 36.2585Z" fill="black"/>
<path d="M25.8574 36.2314C25.5445 36.3963 25.6697 36.4788 26.3789 36.4788C27.0881 36.4788 27.2132 36.3963 26.9003 36.2314C26.6709 36.0939 26.4414 35.984 26.3789 35.984C26.3163 35.984 26.0869 36.0939 25.8574 36.2314Z" fill="black"/>
</svg>
