<svg width="100" height="98" viewBox="0 0 100 98" fill="none" xmlns="http://www.w3.org/2000/svg">
<path d="M30.82 1.39991C30.46 1.91991 30.32 1.97991 29.98 1.77991C29.36 1.45991 29.12 1.65991 29.08 2.53991C29.02 3.71991 28.84 4.15991 28.34 4.29991C28.1 4.37991 27.3 5.05991 26.58 5.83991C25.36 7.11991 25.22 7.21991 24.84 6.97991C24.3 6.63991 24.2 6.75991 24.1 7.81991C24.04 8.39991 23.86 8.81991 23.58 9.03991C23.02 9.51991 22.6 9.49991 22.6 9.01991C22.6 8.11991 20.9 7.65991 20.38 8.37991C20.12 8.75991 20.04 8.75991 19.3 8.49991C17.88 7.97991 17.38 8.59991 18.16 9.89991C18.82 10.9799 18.84 11.1999 18.3 11.3999C17.7 11.6199 17.64 12.3599 18.12 13.0999C18.72 13.9999 17.98 14.3399 17.22 13.5199C16.96 13.2399 16.52 12.9999 16.24 12.9599C15.94 12.9199 15.62 12.6999 15.48 12.4599C15.1 11.6799 14.56 11.1999 14.06 11.1999C13.66 11.1999 13.62 11.1199 13.72 10.6999C13.88 10.0799 13.36 9.81991 12.88 10.2799C12.64 10.5399 12.5 10.5599 12.28 10.3799C12.06 10.1999 12 10.2199 12 10.4799C12 10.6399 12.22 10.9399 12.48 11.1199C12.78 11.2999 12.94 11.5399 12.86 11.7199C12.8 11.8799 12.9 12.2199 13.08 12.4999C13.34 12.8999 13.36 13.0799 13.16 13.4999C12.96 13.9399 13 14.0599 13.36 14.4199C13.84 14.8399 13.8 15.6399 13.28 16.1799C13.06 16.4199 12.92 16.3599 12.3 15.8199C11.76 15.3599 11.46 15.2199 11.14 15.3199C10.44 15.5199 10.18 15.9799 10.44 16.4799C10.64 16.8599 10.64 16.8799 10.34 16.6399C10.06 16.3999 9.91996 16.4199 9.41996 16.7799C9.09996 17.0199 8.63996 17.1999 8.41996 17.1999C8.09996 17.1999 7.99996 17.3199 7.99996 17.6999C7.99996 18.0599 7.85996 18.2599 7.47996 18.3999C7.15996 18.5199 6.99996 18.7199 7.03996 18.9399C7.05996 19.1399 7.01996 19.4199 6.91996 19.5599C6.71996 19.8999 6.83996 20.0199 7.61996 20.1799C8.39996 20.3399 8.63996 20.7999 7.95996 20.7999C7.65996 20.7999 7.25996 21.0999 6.83996 21.5999L6.17996 22.3999L6.57996 23.3199C7.01996 24.2999 7.11996 25.1999 6.81996 25.1999C6.69996 25.1999 6.63996 25.4399 6.65996 25.7399C6.69996 26.2799 6.65996 26.2999 5.73996 26.3599C4.87996 26.4199 4.69996 26.3399 3.97996 25.7199C3.07996 24.8799 2.67996 24.7999 2.89996 25.4399C2.97996 25.6999 3.07996 26.1599 3.13996 26.4999C3.19996 26.8199 3.37996 27.2199 3.53996 27.3599C4.17996 28.0199 2.47996 29.0599 1.55996 28.5799C1.05996 28.2999 0.479958 28.3599 0.199958 28.6999C-0.0200424 28.9599 0.0199576 29.1199 0.359958 29.5999C0.619958 29.9399 0.799958 30.4799 0.799958 30.9199C0.799958 31.4599 0.939958 31.7799 1.39996 32.1999C1.73996 32.5199 1.99996 32.9599 1.99996 33.2399C1.99996 33.7999 2.33996 34.1999 2.81996 34.1999C3.23996 34.1999 3.33996 34.3399 3.47996 35.0999C3.59996 35.7399 3.75996 35.9399 4.43996 36.2799C5.09996 36.6199 5.13996 37.1799 4.51996 37.6799C4.09996 38.0199 3.97996 38.2999 3.93996 39.0799C3.91996 39.7199 3.97996 40.0799 4.15996 40.1399C4.29996 40.1999 4.39996 40.0399 4.39996 39.7399C4.39996 39.1199 4.85996 38.7199 5.39996 38.8999C5.71996 38.9999 5.85996 38.9399 5.93996 38.6199C5.99996 38.3799 6.07996 38.1999 6.11996 38.1999C6.15996 38.1999 6.55996 38.5599 7.01996 39.0199C7.59996 39.5999 7.77996 39.8999 7.61996 40.0799C7.47996 40.2399 7.49996 40.4999 7.71996 40.8999C7.87996 41.2199 7.95996 41.5999 7.91996 41.7399C7.85996 41.8799 7.97996 42.1599 8.17996 42.3399C8.57996 42.7199 9.59996 44.5199 9.59996 44.8599C9.59996 44.9799 9.41996 44.8999 9.21996 44.7199C8.43996 43.9999 8.21996 44.9199 8.71996 46.7399C8.81996 47.1199 8.75996 47.1999 8.41996 47.1999C8.17996 47.1999 7.75996 47.0599 7.47996 46.8599L6.95996 46.5399L7.03996 47.2199C7.07996 47.6999 7.23996 47.9599 7.55996 48.0999C7.79996 48.1999 7.99996 48.4399 7.99996 48.6399C7.99996 48.8199 8.09996 49.1999 8.21996 49.4799C8.45996 49.9799 8.37996 50.1999 7.25996 52.2799C6.97996 52.7999 6.97996 52.9399 7.27996 53.8399C7.45996 54.3999 7.59996 54.9599 7.59996 55.1199C7.59996 55.4399 8.21996 55.7999 8.79996 55.7999C9.03996 55.7999 9.15996 55.8799 9.09996 55.9999C9.01996 56.1199 9.31996 56.3599 9.71996 56.5199C10.42 56.8199 10.52 56.8199 11.04 56.4999C11.5 56.2399 11.68 56.2199 11.9 56.3999C12.06 56.5399 12.2 56.7799 12.2 56.9199C12.2 57.1199 12.34 57.1799 12.7 57.0799C13.32 56.9199 13.74 57.2399 13.9 58.0399C14.12 58.9999 13.72 59.1599 13.02 58.4199C12.44 57.7999 12.4 57.7799 11.9 58.1199C11.26 58.5399 11.26 58.9399 11.94 59.6399C12.46 60.1799 13.44 60.3999 13.68 60.0399C13.9 59.6799 14.92 60.0399 15.34 60.6599C15.86 61.3799 15.84 61.4199 15.24 61.2599C15 61.1999 14.8 60.9999 14.8 60.7999C14.8 60.4199 14.3 60.1199 13.98 60.3199C13.7 60.4799 13.76 60.7799 14.22 61.4199C14.58 61.9399 14.6 62.0199 14.3 62.1199C14.12 62.1999 13.68 62.0799 13.3 61.8799C12.74 61.5799 12.58 61.5599 12.32 61.7799C12.14 61.9399 12 62.1599 12 62.2799C12 62.6599 13.24 63.4999 13.8 63.4999C14.14 63.4999 14.3 63.6199 14.3 63.8399C14.3 64.5999 14.7 64.2399 14.8 63.3999C14.88 62.6399 14.96 62.5199 15.3 62.5599C15.52 62.5999 15.8 62.7199 15.94 62.8399C16.08 62.9399 16.28 62.9799 16.4 62.8999C16.76 62.6799 16.62 63.1799 16.2 63.5999C15.96 63.8399 15.64 63.9799 15.44 63.9599C15 63.8799 15.08 64.4999 15.58 65.1999C16.22 66.0799 16.92 65.7799 16.52 64.7999C16.44 64.6199 16.52 64.3199 16.66 64.0999C16.94 63.7399 16.96 63.7599 17.32 64.2799C17.66 64.8399 17.66 64.8599 17.28 65.1399C16.9 65.4199 16.92 65.4199 17.4 65.8199C17.72 66.0599 18.14 66.1799 18.6 66.1599C19.3 66.0999 19.3 66.0999 19.34 66.9399C19.36 67.6999 19.32 67.7799 18.86 67.8399C18.56 67.8799 18.16 68.1399 17.96 68.4199C17.22 69.3999 18.06 70.9999 19.3 70.9999C19.7 70.9999 20.14 70.2599 20.3 69.3599C20.44 68.6799 20.48 68.6199 20.88 68.8199C21.1 68.9399 21.44 69.2199 21.62 69.4399C21.98 69.8999 23.24 70.3999 24.06 70.3999C24.36 70.3999 24.6 70.4799 24.6 70.5799C24.6 70.7799 27.04 71.9999 27.44 71.9999C27.6 71.9999 27.92 72.1399 28.18 72.3199C28.6 72.6199 28.68 72.6199 28.82 72.3599C28.92 72.1599 29.18 72.0799 29.46 72.1399C29.8 72.1999 30.16 72.0399 30.66 71.5999L31.38 70.9599L32.14 71.5199C32.56 71.8199 33.26 72.4199 33.7 72.8199C34.9 73.9399 35.38 73.9999 36.38 73.0999C37.22 72.3399 37.36 72.3199 36.98 73.0199C36.88 73.2399 36.84 73.5999 36.9 73.7999C37 74.1399 37.14 74.1799 37.78 74.0799C38.42 73.9799 38.54 74.0199 38.74 74.4599C38.9 74.8199 39.18 74.9799 39.76 75.0799C40.62 75.1999 41.74 75.0599 41.92 74.7799C42.08 74.5199 43.56 74.5599 43.72 74.8199C43.88 75.0799 44.74 74.8799 45.14 74.4999C45.32 74.2999 45.54 74.2599 45.76 74.3799C46.28 74.6399 47.4 74.8199 47.4 74.6399C47.4 74.5399 47.54 74.2999 47.7 74.0799C48 73.6999 48.02 73.6999 47.96 74.0999C47.92 74.3999 48.08 74.5399 48.6 74.7199C49 74.8399 49.46 75.1999 49.7 75.5599C49.92 75.8999 50.18 76.1799 50.26 76.1999C50.74 76.2199 51.78 76.8799 51.86 77.2199C51.92 77.4399 52.14 77.5999 52.38 77.5999C52.72 77.5999 52.8 77.7199 52.8 78.2799C52.8 79.0799 53.2 79.4799 53.8 79.2999C54.12 79.1999 54.26 79.2599 54.34 79.5799C54.54 80.3399 55 80.0799 55 79.2199C55 78.7799 55.1 78.3599 55.2 78.2999C55.32 78.2199 55.36 77.9999 55.3 77.7799C55.22 77.5399 55.28 77.3599 55.5 77.2799C56.04 77.0599 56.38 76.1399 56.26 75.2399C56.14 74.3399 56.28 74.2199 56.92 74.6999C57.46 75.1199 57.94 75.0599 58.36 74.5599C58.54 74.3399 59 73.7999 59.36 73.3999C59.7 72.9799 60 72.4799 60 72.2599C60 71.6399 60.5 71.3599 61.6 71.3599C62.92 71.3599 63.24 70.9399 63 69.4999C62.92 68.9399 62.88 68.4599 62.92 68.4199C62.96 68.3799 63.22 68.6199 63.48 68.9399C63.92 69.4799 64.22 69.5799 65.64 69.7999C66.56 69.9399 67.7 70.0599 68.2 70.0399C68.7 70.0399 69.36 70.1199 69.66 70.2399C70.32 70.4999 70.56 70.3399 70.2 69.8999C69.76 69.3799 70.22 69.1799 71.1 69.4999C71.54 69.6599 72.1 69.7799 72.34 69.7999C72.88 69.7999 74.2 70.3999 74.2 70.6399C74.2 70.7199 74.34 70.7999 74.5 70.7999C74.66 70.7999 74.8 70.7199 74.8 70.5999C74.8 70.1999 76 69.7999 77.58 69.6799C78.94 69.5599 79.26 69.5999 79.56 69.8799C79.86 70.1399 80.28 70.1999 81.58 70.1599C83.16 70.0999 83.22 70.0799 83.32 69.5999C83.36 69.3199 83.5 68.8199 83.6 68.4999C83.76 68.0199 83.74 67.8599 83.46 67.6399C83.28 67.5199 83.02 67.3999 82.88 67.3999C82.5 67.3999 81.2 66.5999 81.2 66.3599C81.2 66.2399 81 66.1999 80.72 66.2799C79.96 66.4599 79.96 66.1799 80.74 65.6599L81.44 65.1799L82.18 65.5599C82.74 65.8599 83.02 65.8999 83.28 65.7599C83.54 65.6199 83.78 65.6399 84.12 65.8199C84.56 66.0399 84.66 66.0199 85.16 65.5399C85.48 65.2399 85.86 64.9999 86.02 64.9999C86.5 64.9999 87.06 64.4999 87.1 64.0199C87.12 63.5599 88.28 62.5999 88.82 62.5999C89.22 62.5999 90.78 61.3999 90.78 61.0599C90.8 60.7999 90.58 60.7199 89.1 60.3799C87.98 60.1399 84.8 59.7399 83.02 59.6199C82.78 59.6199 82.24 59.2799 81.86 58.8999C81.48 58.5199 81.04 58.1999 80.9 58.1999C80.54 58.1999 80.42 56.5599 80.68 55.2399C80.82 54.4799 80.98 54.1999 81.22 54.1999C81.4 54.1999 81.78 54.0199 82.06 53.7799C82.36 53.5599 82.74 53.3999 82.92 53.4399C83.24 53.4999 83.86 52.7399 84.12 51.9399C84.28 51.5199 84.8 51.4799 84.8 51.8799C84.8 52.3399 85.24 52.4999 85.5 52.1399C85.7 51.8399 85.78 51.8799 86.18 52.4199C86.42 52.7399 86.72 52.9599 86.82 52.8799C86.94 52.7999 86.94 52.6599 86.8 52.4999C86.46 52.0999 86.74 51.7799 87.36 51.8399C87.86 51.8999 87.9 51.8399 87.92 51.1999C87.94 50.8199 88 50.2199 88.1 49.8599C88.22 49.3199 88.18 49.1999 87.7 48.8799C87.18 48.5399 87.16 48.4799 87.3 47.4199C87.68 44.3399 87.7 43.6599 87.48 41.7999C87.32 40.4599 86.44 39.1999 85.68 39.1999C85.4 39.1999 84.84 39.0199 84.42 38.8199C83.82 38.4999 83.5 38.1199 82.88 36.8799C82.14 35.4199 82.12 35.3399 82.48 35.1199C82.7 34.9999 83.08 34.6999 83.32 34.4399C83.96 33.7799 84.42 33.8999 85.5 34.9999C86.04 35.5399 86.56 35.9999 86.64 35.9999C86.72 35.9999 86.96 36.1399 87.16 36.2999C88.44 37.4199 89.06 37.8399 89.62 37.9999C90.2 38.1799 90.36 38.1199 90.8 37.6999C91.44 37.0999 91.62 37.0799 92.1 37.5999C92.5 38.0399 93.02 38.0999 93.6 37.7999C93.84 37.6799 94.16 37.6599 94.46 37.7799C95.06 37.9999 95.66 37.5799 96.48 36.3399C97.22 35.2599 97.14 34.9399 96.02 34.1399C95.34 33.6399 95.02 33.2599 94.94 32.8199C94.72 31.7999 93.86 30.8399 92.94 30.5799C92.2 30.3799 92.08 30.3999 91.78 30.7799C91.58 31.0199 91.36 31.1999 91.24 31.1999C91.14 31.1999 90.9 31.3799 90.7 31.5999C90.5 31.8199 90.18 31.9999 89.98 31.9999C89.68 31.9999 89.64 31.8799 89.74 31.3199C89.82 30.7599 89.78 30.6199 89.44 30.4999C89.2 30.4399 88.82 30.4799 88.6 30.5999C88.16 30.8399 86.32 30.7199 85.4 30.3999C85.12 30.2999 84.54 30.1199 84.08 30.0199C83.62 29.8999 82.9 29.4599 82.4 28.9999C81.8 28.4599 81.42 28.2399 81.16 28.3199C80.74 28.4399 80.74 28.3999 81 26.9799C81.16 26.1599 81.14 25.6599 80.9 24.7599C80.68 23.8799 80.66 23.4799 80.82 23.1199C81.02 22.7199 80.98 22.5399 80.62 22.0799C80.4 21.7799 80.2 21.3999 80.2 21.2399C80.2 21.0599 80.08 20.7799 79.94 20.6199C79.6 20.2199 79.2 18.8399 79.2 18.0599C79.2 17.3199 78.76 16.9199 78.12 17.0799C77.8 17.1599 77.46 17.5799 77 18.4799C76.18 20.0599 75.6 20.2799 74.46 19.3599C73.72 18.7799 73.3 18.6599 73.1 18.9999C72.88 19.3599 72.6 19.1999 72.6 18.6999C72.6 18.3399 72.5 18.1999 72.22 18.1999C72 18.1999 71.76 18.2999 71.7 18.3999C71.64 18.5199 71.36 18.5399 71.1 18.4799C70.82 18.4199 70.34 18.4599 70 18.5599C69.48 18.7599 69.4 18.7399 69.4 18.4199C69.4 18.1999 69.22 17.8399 69.02 17.5799C68.7 17.1999 68.58 17.1599 68.38 17.3399C68.18 17.5399 68.18 17.6999 68.38 18.1199C68.58 18.5799 68.56 18.7199 68.3 18.9799C68 19.2799 67.94 19.2599 67.58 18.8199C67.16 18.2999 67.16 18.2999 66.8 18.9799C66.58 19.3999 66.62 19.4999 67.18 20.0199C67.52 20.3199 67.82 20.7199 67.84 20.8799C67.84 21.0599 67.86 21.2999 67.88 21.4399C67.92 21.7799 67.2 21.8199 66.24 21.4999C65.78 21.3399 65.08 21.1999 64.72 21.1999C64.26 21.1999 63.86 21.0199 63.42 20.6199C62.98 20.1999 62.68 20.0799 62.3 20.1599C61.88 20.2399 61.76 20.1399 61.58 19.6399C61.46 19.2799 61.2 18.9999 60.92 18.9199C60.28 18.7599 59.84 17.7199 60.22 17.2599C60.48 16.9599 60.44 16.9399 59.98 17.0599C59.6 17.1599 59.3 17.0799 58.94 16.7999C58.68 16.5799 58.22 16.3199 57.94 16.2199C57.62 16.0999 57.4 15.8199 57.3 15.4199C57.2 14.9199 57.06 14.8199 56.54 14.7599C56.08 14.7199 55.84 14.5599 55.64 14.1599C55.5 13.8599 55.08 13.4399 54.7 13.1999C54.32 12.9599 53.78 12.4999 53.5 12.1599C53 11.5799 53 11.5399 53.34 11.1599C53.54 10.9399 53.94 10.6399 54.24 10.4799C54.56 10.3199 54.82 9.97991 54.9 9.61991C54.96 9.29991 55.16 8.91991 55.32 8.77991C55.68 8.47991 55.68 7.77991 55.3 7.27991C55.14 7.07991 55 6.51991 55 6.07991C55 5.13991 54.6 4.61991 54.22 5.07991C54.1 5.23991 53.8 5.31991 53.6 5.25991C53.04 5.11991 52.6 5.53991 52.6 6.21991C52.6 6.51991 52.46 6.85991 52.3 6.95991C52.04 7.09991 52.08 7.15991 52.5 7.35991C53.3 7.73991 53 8.09991 51.84 8.15991C51.02 8.19991 50.74 8.31991 50.5 8.67991C50.34 8.93991 49.84 9.41991 49.42 9.75991L48.64 10.3999L48.22 9.67991C47.74 8.85991 47.18 8.81991 47 9.59991C46.86 10.2199 46.32 10.2599 46.24 9.65991C46.2 9.37991 46.3 9.19991 46.58 9.09991C47.02 8.95991 47.12 8.49991 46.82 8.01991C46.6 7.65991 46.76 7.19991 47.1 7.19991C47.54 7.19991 47.68 6.77991 47.36 6.45991C46.92 6.03991 46.02 6.31991 45.88 6.93991C45.76 7.35991 44.82 7.99991 44.32 7.99991C44.1 7.99991 44.04 7.33991 44.24 6.99991C44.42 6.71991 44.42 6.55991 44.22 6.33991C44.1 6.15991 44.04 5.81991 44.1 5.53991C44.2 5.15991 44.14 5.03991 43.82 4.93991C43.56 4.87991 43.4 4.67991 43.4 4.43991C43.4 3.91991 43.04 3.67991 42.74 3.97991C42.44 4.27991 41.4 4.25991 41.38 3.93991C41.36 3.81991 41.36 3.29991 41.38 2.81991C41.42 1.95991 41.4 1.93991 41.04 2.25991C40.84 2.43991 40.46 2.59991 40.2 2.59991C39.96 2.59991 39.62 2.75991 39.48 2.93991C39.24 3.25991 39.22 3.23991 39.2 2.73991C39.2 2.43991 39.12 2.19991 39 2.19991C38.9 2.19991 38.8 2.33991 38.8 2.49991C38.8 3.01991 38.22 3.07991 37.7 2.59991C37.02 1.95991 36.3 2.11991 36.3 2.89991C36.3 3.39991 36.2 3.53991 35.66 3.69991C34.88 3.95991 34 4.69991 34 5.09991C34 5.45991 33.26 5.85991 32.86 5.71991C32.62 5.61991 32.58 5.39991 32.68 4.69991C32.82 3.77991 32.78 3.69991 31.98 3.77991C31.34 3.83991 31.28 2.51991 31.9 2.07991C32.32 1.77991 32.28 1.25991 31.82 0.999908C31.3 0.739906 31.34 0.71991 30.82 1.39991ZM81.4 53.1799C81.4 53.5199 81.16 53.9999 80.98 53.9999C80.88 53.9999 80.8 53.7799 80.8 53.4999C80.8 53.1799 80.92 52.9999 81.1 52.9999C81.26 52.9999 81.4 53.0799 81.4 53.1799Z" fill="black"/>
<path d="M43.3999 3.0999C43.3999 3.2599 43.5399 3.3999 43.6999 3.3999C43.8599 3.3999 43.9999 3.2599 43.9999 3.0999C43.9999 2.9399 43.8599 2.7999 43.6999 2.7999C43.5399 2.7999 43.3999 2.9399 43.3999 3.0999Z" fill="black"/>
<path d="M21.12 4.78C20.96 5.02 21.18 6 21.4 6C21.76 6 22.08 5.36 21.88 5.04C21.62 4.64 21.28 4.52 21.12 4.78Z" fill="black"/>
<path d="M19.6399 7.03994C19.6999 7.17994 19.8999 7.33994 20.0799 7.35994C20.3199 7.41994 20.4199 7.33994 20.3599 7.15994C20.2999 7.01994 20.0999 6.85994 19.9199 6.83994C19.6799 6.77994 19.5799 6.85994 19.6399 7.03994Z" fill="black"/>
<path d="M1 22.68C1 22.86 1.14 23 1.32 23C1.66 23 1.6 22.56 1.24 22.44C1.1 22.4 1 22.5 1 22.68Z" fill="black"/>
<path d="M3.19995 36.2801C3.19995 36.6001 3.67995 37.0401 3.85995 36.8801C4.01995 36.7001 3.63995 36.0001 3.39995 36.0001C3.27995 36.0001 3.19995 36.1201 3.19995 36.2801Z" fill="black"/>
<path d="M2.3999 38.8C2.3999 38.9 2.4999 39 2.5999 39C2.7199 39 2.7999 38.9 2.7999 38.8C2.7999 38.68 2.7199 38.6 2.5999 38.6C2.4999 38.6 2.3999 38.68 2.3999 38.8Z" fill="black"/>
<path d="M5.83991 43.2C5.89991 43.94 5.97991 44.08 6.55991 44.32C7.13991 44.56 7.25991 44.54 7.57991 44.22C7.87991 43.92 7.91991 43.68 7.81991 43.18C7.69991 42.54 7.63991 42.5 6.73991 42.44L5.77991 42.38L5.83991 43.2Z" fill="black"/>
<path d="M91.78 52.9201C91.56 53.2001 91.58 53.2401 91.96 53.1601C92.22 53.1401 92.42 53.0201 92.42 52.9001C92.44 52.5601 92.08 52.5801 91.78 52.9201Z" fill="black"/>
<path d="M98.6 57.8C98.38 58.02 98.2 58.28 98.2 58.36C98.2 58.66 98.7 59.16 99.12 59.28C99.72 59.46 100.1 58.44 99.68 57.82C99.3 57.3 99.1 57.3 98.6 57.8Z" fill="black"/>
<path d="M63.8999 74.6C63.8199 74.74 63.8399 74.92 63.9399 75.02C64.1799 75.26 64.8399 75.02 64.7399 74.72C64.6399 74.42 64.0599 74.34 63.8999 74.6Z" fill="black"/>
<path d="M63.6 76.8801C63.48 77.0401 63.14 77.2001 62.84 77.2401C62.46 77.2801 62.28 77.4601 62.18 77.8801C61.72 79.6201 63.52 79.6201 64.36 77.8801C64.6 77.3801 64.8 76.9001 64.8 76.8001C64.8 76.5001 63.88 76.5601 63.6 76.8801Z" fill="black"/>
<path d="M3.31991 77.18C2.81991 77.74 3.03991 78.24 3.73991 78.16C4.21991 78.1 4.29991 78 4.29991 77.5C4.29991 76.78 3.81991 76.62 3.31991 77.18Z" fill="black"/>
<path d="M14.82 77.0799C14.64 77.2799 14.66 77.3999 14.88 77.5999C15.26 77.8999 15.6 77.6999 15.6 77.1799C15.6 76.7399 15.16 76.6799 14.82 77.0799Z" fill="black"/>
<path d="M41.66 77.84C41 78.16 41.1 78.44 41.86 78.36C42.24 78.32 42.5 78.2 42.5 78.02C42.5 77.64 42.2 77.58 41.66 77.84Z" fill="black"/>
<path d="M69.2599 79.0401C68.9999 79.1601 68.7999 79.3401 68.7999 79.4401C68.7999 79.7001 69.1599 80.3601 69.5599 80.8201C69.8799 81.1801 69.8999 81.1801 70.3399 80.7601C70.8999 80.2401 70.9199 80.0001 70.3799 79.3201C69.9199 78.7401 69.8999 78.7401 69.2599 79.0401Z" fill="black"/>
<path d="M39 80.1801C38.72 80.7201 38.74 81.1001 39.12 81.4001C39.38 81.6201 39.5 81.5801 39.94 81.1601C40.36 80.7201 40.4 80.5801 40.22 80.2201C39.92 79.7001 39.28 79.6801 39 80.1801Z" fill="black"/>
<path d="M15.1999 80.8001C14.9599 80.9401 14.9599 81.0601 15.1199 81.3401C15.5999 82.1201 16.5999 81.7401 16.1799 80.9601C15.9599 80.5601 15.6599 80.5001 15.1999 80.8001Z" fill="black"/>
<path d="M55.76 81.3401C55.4 81.7401 54.9 82.3001 54.64 82.5601C53.64 83.6001 53.44 85.6201 54.32 85.7601C54.52 85.8001 54.88 86.0401 55.1 86.2801C55.32 86.5201 55.86 86.8401 56.32 86.9801C57.04 87.2201 57.2 87.2001 57.66 86.9201C58.08 86.6401 58.24 86.6201 58.56 86.8201C58.9 87.0401 59.04 86.9801 59.54 86.5001C60.08 85.9601 60.1 85.8801 59.86 85.3801C59.62 84.9001 59.64 84.6801 59.92 83.7801L60.28 82.7201L59.7 82.3201C59.38 82.0801 58.8 81.6001 58.38 81.2401C57.36 80.3401 56.62 80.3801 55.76 81.3401Z" fill="black"/>
<path d="M45.74 83.2201C45.34 83.4401 45.4 84.2201 45.84 84.7401C46.2 85.1801 46.96 85.0401 47.32 84.5001C48.02 83.4401 46.9 82.5601 45.74 83.2201Z" fill="black"/>
<path d="M61.64 84.9799C61.32 85.1799 61.4 86.0399 61.72 86.1399C61.84 86.1799 62.16 86.0399 62.42 85.8199C62.82 85.4999 62.84 85.3999 62.62 85.1199C62.32 84.7599 62.04 84.7199 61.64 84.9799Z" fill="black"/>
<path d="M66.4599 85.74C66.0799 85.88 66.1399 86.5 66.5999 86.9C67.0999 87.34 67.5999 87.16 67.5999 86.52C67.5999 86.1 67.0599 85.54 66.7599 85.62C66.7199 85.62 66.5799 85.68 66.4599 85.74Z" fill="black"/>
<path d="M37.0599 86.8199C36.2999 87.0399 35.7999 87.6799 35.7999 88.4599C35.7999 89.8199 36.6999 90.1999 37.7799 89.2799C38.2999 88.8599 38.3999 88.6199 38.3999 87.9199C38.3999 87.4599 38.2999 86.9799 38.1599 86.8399C37.8799 86.5599 37.9199 86.5799 37.0599 86.8199Z" fill="black"/>
<path d="M81.4599 88.72C81.2999 89.12 81.6199 89.44 81.9799 89.22C82.2799 89.02 82.1399 88.4 81.7999 88.4C81.6799 88.4 81.5399 88.54 81.4599 88.72Z" fill="black"/>
<path d="M48.7199 90.9201C48.4599 91.6201 48.5799 92.0001 49.0999 92.0001C49.3799 92.0001 49.6599 92.0201 49.7599 92.0401C50.0599 92.1601 50.0199 91.2401 49.6999 90.9201C49.2799 90.5201 48.8799 90.5001 48.7199 90.9201Z" fill="black"/>
<path d="M47.66 93.94C47.6 94.14 47.38 94.44 47.16 94.6C46.82 94.88 46.8 95.04 46.98 95.78C47.08 96.26 47.3 96.8 47.48 96.96C47.74 97.22 47.84 97.22 48.44 96.94C48.98 96.68 49.16 96.44 49.36 95.7C49.7 94.4 49.68 94.2 49.12 94.2C48.86 94.2 48.54 94.06 48.4 93.9C48.08 93.5 47.82 93.52 47.66 93.94Z" fill="black"/>
</svg>
