<svg width="230" height="46" viewBox="0 0 230 46" fill="none" xmlns="http://www.w3.org/2000/svg">
<path d="M39.4305 0.835453C38.9221 1.29495 38.5062 1.838 38.5062 2.08863C38.5062 2.71523 40.2623 4.17727 41.0479 4.17727C41.4177 4.17727 41.7412 4.34436 41.7412 4.595C41.7412 4.97095 47.3331 6.64186 48.9506 6.72541C49.4127 6.76718 48.9968 6.93427 47.9801 7.18491C46.8709 7.43554 42.8041 7.47731 37.813 7.26845C28.8936 6.97604 21.4531 7.01781 19.5121 7.352C18.4954 7.51909 18.2182 7.85327 18.0795 9.10645C17.8022 11.1533 18.0333 11.6546 19.5121 11.947C20.1591 12.1141 20.9448 12.49 21.2683 12.8242C21.8229 13.4926 25.3351 13.9103 34.0234 14.4116C36.9349 14.5787 38.9683 14.8711 38.8759 15.1217C38.7835 15.3306 35.7795 15.623 32.0362 15.7065C28.3391 15.8319 24.5033 16.0825 23.4866 16.2914C22.4699 16.5002 20.8524 16.7091 19.9281 16.7091C17.7098 16.7091 17.3863 17.2521 18.9114 18.3382C19.6046 18.8395 20.0205 19.3408 19.8819 19.5079C19.697 19.6332 15.3529 19.7167 10.2231 19.675C5.04712 19.675 0.564344 19.8003 0.287059 19.9674C-0.59101 20.4686 0.702987 21.8889 2.0432 21.9307C2.64398 21.9725 3.79934 22.3066 4.53876 22.6408C5.46305 23.1003 7.68132 23.351 11.3785 23.4763C16.5544 23.6434 16.8779 23.7269 18.0795 24.7712C19.2811 25.8573 19.2811 25.8991 18.3106 25.8991C17.756 25.8991 17.0166 26.2333 16.6931 26.6092C16.2772 27.1105 15.3529 27.4029 13.874 27.4447C12.6262 27.5282 11.1936 27.7789 10.639 28.0713C9.66853 28.5308 9.76096 28.6143 11.933 29.2409C13.227 29.5751 14.7521 30.1599 15.3991 30.4941C16.0461 30.8283 16.9704 31.1207 17.4787 31.2042C17.9871 31.246 20.4364 31.5802 22.8858 31.9144C25.3813 32.2903 28.3391 32.5827 29.4944 32.5827C30.8346 32.5827 31.5278 32.7498 31.343 33.0005C31.2043 33.2511 30.5573 33.2929 29.9103 33.1675C29.2633 33.0005 28.4777 33.1258 28.0156 33.46C27.5072 33.8777 25.3351 34.1283 20.991 34.2536C17.2014 34.379 14.7521 34.6296 14.7521 34.8802C14.8907 35.6739 17.0628 36.8018 18.8652 37.0106C23.3479 37.5537 23.9025 37.679 23.2555 38.0132C22.932 38.1803 19.0962 38.2638 14.7521 38.1385C10.0845 38.055 6.57219 38.1385 6.20247 38.3474C5.3244 38.9322 5.9714 39.6841 7.40404 39.6841C8.05104 39.6841 9.62232 39.9765 10.9163 40.3107C13.4119 40.9373 39.985 41.8563 54.4501 41.8563H61.3822L55.6054 42.3993C52.4166 42.6917 47.5641 43.1512 44.7913 43.4436C41.9722 43.6943 38.46 43.8614 36.9349 43.8196C35.3636 43.7778 30.28 43.9449 25.5662 44.1955C20.8524 44.4462 16.6931 44.6133 16.3234 44.6133C15.9537 44.6133 13.5505 44.7386 11.0087 44.9057C4.72362 45.3234 6.52597 45.8665 14.4748 45.95C25.0116 46.0753 41.2328 45.95 46.8247 45.7411C51.3537 45.574 60.7814 45.3234 78.7125 44.9057C85.1363 44.7386 106.903 43.9031 110.138 43.6525C111.802 43.5272 115.314 43.3183 117.995 43.193C124.095 42.9424 154.642 41.1044 162.36 40.5195C165.549 40.2689 174.699 39.7259 182.694 39.2664C190.689 38.8069 200.256 38.222 203.907 37.9714C207.604 37.7208 212.502 37.5955 214.767 37.7625C218.603 37.9714 219.204 37.8879 221.93 36.8435C223.594 36.217 224.98 35.5068 225.073 35.298C225.165 35.0473 224.38 34.4207 223.363 33.8359C222.346 33.2511 221.514 32.6663 221.514 32.4992C221.514 32.3739 222.3 31.9979 223.27 31.7055C225.766 30.9954 225.812 30.9536 224.934 29.7422C224.195 28.7396 224.195 28.6561 225.027 28.113C225.489 27.8206 225.997 27.57 226.228 27.57C226.413 27.57 226.598 27.1523 226.598 26.6092C226.598 25.8991 226.228 25.5649 225.119 25.2725C223.409 24.813 223.27 24.0611 224.842 23.894C227.199 23.6434 227.984 23.351 228.493 22.4737C228.955 21.7218 228.862 21.4712 228.169 21.0117C227.337 20.4269 227.337 20.3851 228.354 19.7167C229.879 18.6724 229.278 17.7952 225.905 16.0825C223.039 14.6205 222.993 14.6205 219.851 15.0382C218.094 15.247 215.506 15.623 214.12 15.8736C211.07 16.4167 187.685 16.5002 185.698 15.9572C184.589 15.6648 185.56 15.4977 190.32 15.08C193.647 14.8293 197.806 14.4951 199.563 14.4116C201.365 14.2863 205.108 14.0356 207.881 13.8268C210.7 13.6179 215.368 13.4926 218.279 13.5344C221.976 13.6179 223.964 13.4926 224.749 13.1166C225.396 12.8242 226.783 12.3647 227.846 12.1141C230.48 11.5293 230.665 11.028 228.585 10.2343C227.615 9.85836 226.043 8.81404 225.119 7.89504C223.964 6.76718 223.132 6.26591 222.577 6.39122C222.115 6.51654 218.094 6.72541 213.658 6.8925C209.221 7.05959 203.306 7.39377 200.487 7.68618C196.975 8.06213 185.097 8.22923 162.129 8.22923C132.644 8.271 129.04 8.22923 130.426 7.68618C131.581 7.22668 134.77 7.01781 142.442 6.8925C148.172 6.76718 157.692 6.47477 163.515 6.26591C181.862 5.55577 193.508 5.22159 195.08 5.3469C195.958 5.43045 196.928 5.26336 197.298 4.97095C197.622 4.72031 198.269 4.595 198.638 4.76209C199.424 5.01272 200.718 4.67854 200.718 4.17727C200.718 4.01018 199.886 3.75954 198.916 3.59245C197.899 3.46713 197.021 3.17472 196.928 2.92409C196.882 2.71523 195.449 2.38104 193.786 2.25573C192.122 2.08863 190.32 1.71268 189.765 1.3785C188.887 0.835453 188.61 0.877224 187.639 1.46204C186.761 1.96332 186.114 2.04686 184.728 1.75445C182.648 1.33673 159.218 1.58736 158.201 2.04686C157.184 2.50636 147.063 2.17218 145.631 1.62914C144.937 1.3785 144.059 1.25318 143.69 1.3785C143.32 1.50382 129.964 1.75445 113.974 1.87977C84.7665 2.17218 75.3851 2.00509 51.9083 0.626591C46.1777 0.292408 41.2328 0 40.9555 0C40.632 0 39.9388 0.375954 39.4305 0.835453ZM172.666 34.9638C171.557 35.0473 169.801 35.0473 168.738 34.9638C167.629 34.8802 168.507 34.7967 170.679 34.7967C172.851 34.7967 173.729 34.8802 172.666 34.9638ZM113.234 39.517C113.096 39.6423 112.68 39.6841 112.356 39.5588C111.987 39.4335 112.125 39.3081 112.634 39.3081C113.142 39.2664 113.419 39.3917 113.234 39.517ZM103.252 39.9765C104.408 40.1854 104.592 40.3107 103.945 40.5195C102.836 40.8537 99.9248 40.5195 100.248 40.06C100.526 39.6005 101.173 39.6005 103.252 39.9765ZM64.9869 41.6474C64.6634 41.731 64.1088 41.731 63.8315 41.6474C63.508 41.5221 63.7391 41.4385 64.3861 41.4385C65.0331 41.4385 65.2642 41.5221 64.9869 41.6474ZM71.4569 41.6474C70.625 41.731 69.2386 41.731 68.4529 41.6474C67.6211 41.5639 68.2681 41.4803 69.9318 41.4803C71.5955 41.4803 72.2425 41.5639 71.4569 41.6474ZM80.0989 41.5221C80.0989 41.898 77.7882 42.0234 77.2336 41.731C76.8639 41.4803 77.2799 41.355 78.389 41.355C79.3133 41.355 80.0989 41.4385 80.0989 41.5221ZM86.2454 41.6474C85.6446 41.731 84.7203 41.731 84.1658 41.6474C83.565 41.5639 84.0271 41.4803 85.1825 41.4803C86.3378 41.4803 86.8 41.5639 86.2454 41.6474Z" fill="black"/>
</svg>
