<svg width="274" height="61" viewBox="0 0 274 61" fill="none" xmlns="http://www.w3.org/2000/svg">
<path d="M47.1279 8.22607C46.5251 8.72987 46.0319 9.32528 46.0319 9.60007C46.0319 10.2871 48.1143 11.8901 49.0459 11.8901C49.4843 11.8901 49.8679 12.0733 49.8679 12.3481C49.8679 12.7603 56.4987 14.5923 58.4167 14.6839C58.9647 14.7297 58.4715 14.9129 57.2659 15.1877C55.9507 15.4625 51.1283 15.5083 45.2099 15.2793C34.6335 14.9587 25.8107 15.0045 23.5091 15.3709C22.3035 15.5541 21.9747 15.9205 21.8103 17.2945C21.4815 19.5387 21.7555 20.0883 23.5091 20.4089C24.2763 20.5921 25.2079 21.0043 25.5915 21.3707C26.2491 22.1035 30.4139 22.5615 40.7163 23.1111C44.1687 23.2943 46.5799 23.6149 46.4703 23.8897C46.3607 24.1187 42.7987 24.4393 38.3599 24.5309C33.9759 24.6683 29.4275 24.9431 28.2219 25.1721C27.0163 25.4011 25.0983 25.6301 24.0023 25.6301C21.3719 25.6301 20.9883 26.2255 22.7967 27.4163C23.6187 27.9659 24.1119 28.5155 23.9475 28.6987C23.7283 28.8361 18.5771 28.9277 12.4943 28.8819C6.35674 28.8819 1.04114 29.0193 0.712338 29.2025C-0.328861 29.7521 1.20554 31.3093 2.79474 31.3551C3.50714 31.4009 4.87714 31.7673 5.75394 32.1337C6.84994 32.6375 9.48033 32.9123 13.8643 33.0497C20.0019 33.2329 20.3855 33.3245 21.8103 34.4695C23.2351 35.6603 23.2351 35.7061 22.0843 35.7061C21.4267 35.7061 20.5499 36.0725 20.1663 36.4847C19.6731 37.0343 18.5771 37.3549 16.8235 37.4007C15.3439 37.4923 13.6451 37.7671 12.9875 38.0877C11.8367 38.5915 11.9463 38.6831 14.5219 39.3701C16.0563 39.7365 17.8647 40.3777 18.6319 40.7441C19.3991 41.1105 20.4951 41.4311 21.0979 41.5227C21.7007 41.5685 24.6051 41.9349 27.5095 42.3013C30.4687 42.7135 33.9759 43.0341 35.3459 43.0341C36.9351 43.0341 37.7571 43.2173 37.5379 43.4921C37.3735 43.7669 36.6063 43.8127 35.8391 43.6753C35.0719 43.4921 34.1403 43.6295 33.5923 43.9959C32.9895 44.4539 30.4139 44.7287 25.2627 44.8661C20.7691 45.0035 17.8647 45.2783 17.8647 45.5531C18.0291 46.4233 20.6047 47.6599 22.7419 47.8889C28.0575 48.4843 28.7151 48.6217 27.9479 48.9881C27.5643 49.1713 23.0159 49.2629 17.8647 49.1255C12.3299 49.0339 8.16513 49.1255 7.72674 49.3545C6.68554 49.9957 7.45274 50.8201 9.15153 50.8201C9.91873 50.8201 11.7819 51.1407 13.3163 51.5071C16.2755 52.1941 47.7855 53.2017 64.9379 53.2017H73.1579L66.3079 53.7971C62.5267 54.1177 56.7727 54.6215 53.4847 54.9421C50.1419 55.2169 45.9771 55.4001 44.1687 55.3543C42.3055 55.3085 36.2775 55.4917 30.6879 55.7665C25.0983 56.0413 20.1663 56.2245 19.7279 56.2245C19.2895 56.2245 16.4399 56.3619 13.4259 56.5451C5.97314 57.0031 8.11033 57.5985 17.5359 57.6901C30.0303 57.8275 49.2651 57.6901 55.8959 57.4611C61.2663 57.2779 72.4455 57.0031 93.7079 56.5451C101.325 56.3619 127.136 55.4459 130.972 55.1711C132.945 55.0337 137.109 54.8047 140.288 54.6673C147.521 54.3925 183.744 52.3773 192.896 51.7361C196.677 51.4613 207.527 50.8659 217.008 50.3621C226.488 49.8583 237.832 49.2171 242.161 48.9423C246.545 48.6675 252.354 48.5301 255.039 48.7133C259.587 48.9423 260.3 48.8507 263.533 47.7057C265.506 47.0187 267.15 46.2401 267.259 46.0111C267.369 45.7363 266.437 45.0493 265.232 44.4081C264.026 43.7669 263.04 43.1257 263.04 42.9425C263.04 42.8051 263.971 42.3929 265.122 42.0723C268.081 41.2937 268.136 41.2479 267.095 39.9197C266.218 38.8205 266.218 38.7289 267.205 38.1335C267.753 37.8129 268.355 37.5381 268.629 37.5381C268.849 37.5381 269.068 37.0801 269.068 36.4847C269.068 35.7061 268.629 35.3397 267.314 35.0191C265.287 34.5153 265.122 33.6909 266.985 33.5077C269.78 33.2329 270.712 32.9123 271.315 31.9505C271.863 31.1261 271.753 30.8513 270.931 30.3475C269.945 29.7063 269.945 29.6605 271.15 28.9277C272.959 27.7827 272.246 26.8209 268.246 24.9431C264.848 23.3401 264.793 23.3401 261.067 23.7981C258.985 24.0271 255.916 24.4393 254.272 24.7141C250.655 25.3095 222.926 25.4011 220.57 24.8057C219.255 24.4851 220.405 24.3019 226.05 23.8439C229.995 23.5691 234.927 23.2027 237.01 23.1111C239.147 22.9737 243.586 22.6989 246.874 22.4699C250.217 22.2409 255.751 22.1035 259.204 22.1493C263.588 22.2409 265.944 22.1035 266.876 21.6913C267.643 21.3707 269.287 20.8669 270.547 20.5921C273.671 19.9509 273.89 19.4013 271.424 18.5311C270.273 18.1189 268.41 16.9739 267.314 15.9663C265.944 14.7297 264.958 14.1801 264.3 14.3175C263.752 14.4549 258.985 14.6839 253.724 14.8671C248.463 15.0503 241.449 15.4167 238.106 15.7373C233.941 16.1495 219.857 16.3327 192.622 16.3327C157.659 16.3785 153.385 16.3327 155.029 15.7373C156.399 15.2335 160.18 15.0045 169.277 14.8671C176.072 14.7297 187.361 14.4091 194.266 14.1801C216.021 13.4015 229.831 13.0351 231.694 13.1725C232.735 13.2641 233.886 13.0809 234.325 12.7603C234.708 12.4855 235.475 12.3481 235.914 12.5313C236.845 12.8061 238.38 12.4397 238.38 11.8901C238.38 11.7069 237.393 11.4321 236.243 11.2489C235.037 11.1115 233.996 10.7909 233.886 10.5161C233.831 10.2871 232.133 9.92067 230.16 9.78328C228.187 9.60007 226.05 9.18787 225.392 8.82148C224.351 8.22607 224.022 8.27187 222.871 8.91307C221.83 9.46267 221.063 9.55428 219.419 9.23367C216.953 8.77567 189.169 9.05048 187.964 9.55428C186.758 10.0581 174.757 9.69167 173.058 9.09628C172.236 8.82148 171.195 8.68407 170.757 8.82148C170.318 8.95887 154.481 9.23367 135.52 9.37107C100.887 9.69167 89.7623 9.50847 61.9239 7.99707C55.1287 7.63068 49.2651 7.31007 48.9363 7.31007C48.5527 7.31007 47.7307 7.72227 47.1279 8.22607ZM205.116 45.6447C203.801 45.7363 201.719 45.7363 200.458 45.6447C199.143 45.5531 200.184 45.4615 202.76 45.4615C205.335 45.4615 206.377 45.5531 205.116 45.6447ZM134.643 50.6369C134.479 50.7743 133.986 50.8201 133.602 50.6827C133.164 50.5453 133.328 50.4079 133.931 50.4079C134.534 50.3621 134.863 50.4995 134.643 50.6369ZM122.807 51.1407C124.177 51.3697 124.396 51.5071 123.629 51.7361C122.313 52.1025 118.861 51.7361 119.245 51.2323C119.573 50.7285 120.341 50.7285 122.807 51.1407ZM77.4323 52.9727C77.0487 53.0643 76.3911 53.0643 76.0623 52.9727C75.6787 52.8353 75.9527 52.7437 76.7199 52.7437C77.4871 52.7437 77.7611 52.8353 77.4323 52.9727ZM85.1043 52.9727C84.1179 53.0643 82.4739 53.0643 81.5423 52.9727C80.5559 52.8811 81.3231 52.7895 83.2959 52.7895C85.2687 52.7895 86.0359 52.8811 85.1043 52.9727ZM95.3519 52.8353C95.3519 53.2475 92.6119 53.3849 91.9543 53.0643C91.5159 52.7895 92.0091 52.6521 93.3243 52.6521C94.4203 52.6521 95.3519 52.7437 95.3519 52.8353ZM102.64 52.9727C101.928 53.0643 100.832 53.0643 100.174 52.9727C99.4619 52.8811 100.01 52.7895 101.38 52.7895C102.75 52.7895 103.298 52.8811 102.64 52.9727Z" fill="black"/>
<path d="M243.21 0.500221C243.048 0.680748 240.888 0.861271 238.458 0.906403C231.654 1.08693 231.06 1.13206 231.06 1.44798C231.06 1.62851 229.278 1.62851 227.172 1.49311C222.528 1.17719 219.342 1.26746 209.46 1.94443C203.898 2.35061 201.414 2.35061 199.092 1.8993C195.96 1.35772 193.314 1.62851 192.612 2.53114C192.342 2.89219 189.75 3.07271 185.052 3.16298C181.11 3.2081 175.926 3.38863 173.55 3.56916C171.174 3.70455 167.718 3.83994 165.882 3.79481C164.046 3.74968 161.94 3.97534 161.292 4.24613C160.59 4.56205 157.566 4.87797 154.38 4.96823C147.09 5.19389 144.984 5.32928 144.282 5.69033C143.958 5.87086 141.312 5.82573 138.45 5.55494C134.292 5.19389 132.672 5.23902 130.458 5.73546C128.514 6.18678 121.872 6.54783 109.02 6.86375C98.76 7.13454 86.2859 7.49559 81.21 7.67611C76.188 7.85664 71.652 7.99203 71.22 7.90177C70.194 7.76638 70.086 7.76638 62.904 7.76638C59.07 7.76638 56.694 7.58585 56.154 7.2248C55.668 6.90888 52.86 6.63809 48.594 6.5027C44.004 6.41243 41.466 6.14164 40.71 5.73546C40.062 5.37441 39.414 5.23902 39.252 5.37441C39.036 5.50981 37.794 5.69033 36.39 5.82573C32.988 6.05138 29.64 7.36019 25.536 10.1132C21.27 12.9565 21.054 13.9945 24.348 15.7998C25.968 16.7475 27.318 17.0634 29.316 17.1086C33.15 17.1988 33.42 17.244 33.42 17.6953C33.42 17.8758 32.07 19.2297 30.45 20.674C27.966 22.7951 27.48 23.5172 27.696 24.465C27.858 25.0968 28.128 26.8118 28.29 28.256C28.614 30.648 28.56 30.8736 27.642 30.7383C26.94 30.648 26.724 30.2418 26.832 29.4746C26.994 28.5719 26.886 28.4817 26.4 28.8879C26.022 29.1587 25.59 30.9188 25.482 32.724C25.212 35.477 24.942 36.2443 23.808 37.2823C22.728 38.2301 22.566 38.6362 23.052 39.0424C23.97 39.8097 23.862 40.3061 22.674 40.3061C20.676 40.3061 20.838 41.8857 23.16 44.8644C24.348 46.3988 25.32 47.8882 25.32 48.159C25.32 49.4226 28.884 52.1305 32.124 53.3942C34.014 54.1614 35.796 54.7482 36.12 54.7482C36.39 54.7482 37.578 55.4251 38.658 56.1924C41.088 57.9525 45.894 59.9834 47.082 59.7577C47.298 59.7577 48 59.8931 48.54 60.1639C49.674 60.6604 54.858 61.0665 55.29 60.6604C55.452 60.525 57.882 60.4798 60.69 60.5701C65.01 60.6604 65.82 60.5701 65.82 59.9834C65.82 59.6223 66.09 58.7648 66.468 58.133C67.008 57.1401 67.386 57.0047 69.708 57.0047C71.382 57.0047 72.408 56.7791 72.624 56.418C72.732 56.1021 73.704 55.8313 74.73 55.7862C76.35 55.741 76.512 55.8764 76.458 56.9596C76.404 57.7268 76.62 58.133 77.16 58.1781C77.592 58.1781 78.618 58.3587 79.428 58.5392C80.238 58.7197 81.318 58.6746 81.912 58.4038C82.722 58.0427 83.154 58.0879 83.64 58.5843C84.18 59.1259 84.126 59.3064 83.424 59.5321C82.938 59.6675 82.236 59.7126 81.912 59.6223C81.534 59.4869 80.508 59.6675 79.59 59.9834C78.078 60.525 78.186 60.5701 81.966 60.6152H85.962L85.638 58.81C85.3139 56.8242 86.124 56.3729 87.312 57.9073C87.852 58.6746 88.176 58.7197 89.04 58.3587C89.634 58.0879 90.12 57.5012 90.12 57.0499C90.12 56.2826 90.66 56.2375 98.112 56.3729C102.486 56.418 106.05 56.5534 106.05 56.5534C106.05 56.5985 107.616 56.7339 109.506 56.8242C111.612 56.9596 113.178 56.8242 113.664 56.5083C114.15 56.1924 115.23 56.1021 116.472 56.2375C117.66 56.418 119.388 56.2826 120.738 55.8764C122.466 55.38 123.384 55.3349 124.626 55.6959C125.814 56.057 126.786 56.057 127.92 55.6959C128.838 55.4251 130.296 55.3349 131.106 55.4703C132.024 55.6508 133.32 55.4251 134.4 54.9738C135.534 54.4774 136.668 54.342 137.586 54.5225C138.342 54.703 140.502 54.8384 142.338 54.7933C145.902 54.7482 147.036 55.2897 145.416 56.3277C144.444 56.9145 144.498 56.9596 146.118 57.0047C148.116 57.0047 148.872 56.3277 147.522 55.6959C146.01 55.0189 146.928 54.7482 149.088 55.1995C150.168 55.4703 151.194 55.9667 151.356 56.3729C151.518 56.7339 151.896 56.9596 152.166 56.8242C152.868 56.4631 154.38 57.0047 154.38 57.6366C154.38 57.9525 156.054 58.1781 159.132 58.3135C167.772 58.6295 168.312 58.5843 169.392 57.772C169.932 57.3658 171.282 57.0047 172.362 57.0047C173.442 57.0047 174.414 56.8242 174.63 56.5534C174.846 56.2826 175.44 56.2826 176.304 56.5534C177.816 57.0499 182.73 56.4631 201.36 53.5747C212.268 51.8597 215.4 51.1376 215.4 50.1899C215.4 49.7837 216.318 49.7386 218.586 49.9191C220.908 50.1447 222.042 50.0545 222.528 49.6483C222.906 49.2873 224.688 48.9713 226.632 48.9262C228.468 48.8811 231.168 48.52 232.572 48.2041C233.976 47.843 237.216 47.5271 239.808 47.5271C244.344 47.5271 248.34 46.6245 248.34 45.6316C248.34 45.406 248.934 45.3608 249.69 45.5413C250.554 45.7219 251.04 45.6316 251.04 45.3157C251.04 44.9998 251.526 44.9095 252.282 45.0449C252.984 45.2254 254.658 44.9998 256.062 44.5936C257.466 44.1874 258.87 44.0069 259.14 44.1423C260.004 44.5936 265.62 43.3299 265.62 42.6981C265.62 42.3822 266.214 42.1114 266.916 42.1114C267.618 42.1114 268.644 41.976 269.184 41.7954C269.832 41.6149 269.994 41.66 269.724 42.0211C269.508 42.337 269.562 42.5627 269.886 42.5627C270.156 42.5627 270.48 42.2919 270.642 41.976C270.804 41.5247 271.128 41.5247 272.046 41.976C273.774 42.8786 274.962 42.7432 274.638 41.66C274.422 40.9379 274.638 40.7574 275.556 40.7574C276.258 40.7574 277.23 40.3512 277.77 39.8548C278.58 39.0876 278.634 38.8168 278.04 37.5982C277.5 36.4699 277.5 35.9735 278.04 35.116C279.39 33.04 278.472 32.5435 273.828 32.6338C271.56 32.724 268.968 32.724 268.05 32.6789C266.43 32.5886 266.43 32.5886 268.752 31.6409C271.614 30.5126 271.668 29.9259 268.86 29.9259C267.672 29.9259 266.7 29.7454 266.7 29.4746C266.7 28.8879 269.94 28.256 274.692 27.895C276.798 27.7145 278.742 27.3985 278.904 27.1729C279.066 26.9472 279.714 26.7667 280.308 26.7667C280.956 26.7667 281.334 26.6313 281.118 26.4959C280.956 26.3154 278.904 26.1348 276.582 26.0446C272.046 25.8189 271.884 25.8189 268.482 25.9092C267.186 25.9092 265.674 25.6384 264.972 25.2322C264.324 24.826 263.352 24.5101 262.812 24.5101C262.272 24.5101 261.84 24.2845 261.84 24.0588C261.84 23.788 262.326 23.6075 262.92 23.6075C263.514 23.6075 264 23.3367 264 23.0208C264 21.8925 263.352 21.8474 262.326 22.8403C261.354 23.788 261.246 23.788 260.544 23.0208C259.842 22.2536 259.734 22.2987 259.248 23.4721L258.708 24.7358L258.654 23.5172C258.6 22.8403 258.222 22.1182 257.736 21.8925C256.98 21.5314 257.034 21.4412 258.222 21.1704C258.978 21.035 259.95 21.035 260.382 21.1704C260.814 21.3058 261.516 21.1253 261.894 20.7642C262.434 20.2678 262.866 20.2226 263.568 20.5837C264.216 20.9447 264.702 20.8996 265.296 20.4934C266.754 19.5005 266.268 19.0944 263.73 19.0944C262.218 19.0944 261.3 19.2749 261.3 19.6359C261.3 20.0421 261.138 20.0421 260.706 19.6811C259.734 18.8687 260.544 17.7404 262.056 17.7404C263.73 17.7404 264.216 17.1086 263.19 16.3865C262.596 15.9803 261.948 15.9352 261.138 16.2059C260.49 16.4316 259.14 16.567 258.222 16.4767C256.818 16.3413 256.44 16.1157 256.44 15.3484C256.44 14.6263 256.602 14.5361 257.088 14.9423C257.844 15.5741 262.812 15.6644 264 15.0325C264.972 14.5361 264.918 14.491 261.192 13.2273C258.654 12.3698 257.844 12.2795 256.764 12.6857C255.9 13.0016 254.874 13.0467 253.74 12.776C251.904 12.3246 233.004 12.5503 231.492 13.0016C231.006 13.1821 230.142 13.0919 229.602 12.8211C228.576 12.3246 228.792 12.2795 232.95 12.099C237.162 11.9185 237.864 11.8282 238.62 11.422C239.268 11.061 239.268 10.9256 238.458 10.1583C237.972 9.70702 237.54 8.75927 237.54 8.12743C237.54 6.81861 237.162 6.72835 233.274 6.90888C231.978 6.95401 231.546 6.81861 231.708 6.3673C231.87 5.96112 233.436 5.69033 236.46 5.50981C240.348 5.23902 241.104 5.05849 241.914 4.15586C242.454 3.56916 242.94 3.3435 242.94 3.61429C242.94 4.42665 244.02 4.33639 244.02 3.56916C244.02 3.16298 244.452 3.02758 245.37 3.2081C246.126 3.29837 247.314 3.07271 248.07 2.66653C248.772 2.26035 249.852 1.94443 250.446 1.94443C251.04 1.94443 251.688 1.71877 251.85 1.49311C252.066 1.22232 251.526 1.0418 250.554 1.0418C249.69 1.0418 248.826 0.861271 248.664 0.680748C248.34 0.229435 243.696 0.0940399 243.21 0.500221ZM213.564 5.41954C214.806 6.5027 218.154 6.59296 218.478 5.55494C218.64 5.01336 219.126 4.83284 220.044 5.01336C221.772 5.28415 222.096 5.78059 221.34 6.95401C220.854 7.72124 220.368 7.85664 219.126 7.63098C218.208 7.49559 217.074 7.58585 216.534 7.90177C215.94 8.21769 215.13 8.26282 214.536 8.03716C213.942 7.81151 213.294 7.72124 212.97 7.81151C211.134 8.21769 200.982 8.53361 200.55 8.17256C199.956 7.67611 204.654 6.00625 207.786 5.60007C209.676 5.32928 211.35 5.01336 211.512 4.87797C211.998 4.47178 212.592 4.60718 213.564 5.41954ZM227.388 5.73546C228.036 6.54783 227.874 6.99914 226.956 6.81861C226.47 6.72835 225.66 6.18678 225.228 5.60007C224.364 4.56205 224.364 4.51691 225.66 4.87797C226.416 5.05849 227.172 5.46468 227.388 5.73546ZM137.1 11.422C135.156 11.9185 134.4 11.9185 134.4 11.422C134.4 11.1512 135.318 10.9707 136.452 11.0158C138.234 11.061 138.288 11.1061 137.1 11.422Z" fill="black"/>
<path d="M260.814 0.545263C260.058 0.725789 259.41 1.08684 259.248 1.40276C259.086 1.80894 260.004 1.94434 262.326 1.94434C264.756 1.94434 265.62 1.76381 265.62 1.3125C265.62 0.229343 263.568 -0.0865762 260.814 0.545263Z" fill="black"/>
<path d="M254.01 1.49302C253.794 1.76381 254.442 1.94434 255.576 1.94434C256.656 1.94434 257.52 1.71868 257.52 1.49302C257.52 1.22223 256.818 1.04171 255.954 1.04171C255.036 1.04171 254.172 1.22223 254.01 1.49302Z" fill="black"/>
<path d="M260.49 2.84703C260.274 3.11781 260.76 3.29834 261.57 3.29834C262.38 3.29834 262.866 3.11781 262.65 2.84703C262.488 2.57624 262.002 2.39571 261.57 2.39571C261.138 2.39571 260.652 2.57624 260.49 2.84703Z" fill="black"/>
<path d="M248.88 5.87078C246.558 6.45749 246.504 6.45749 247.152 6.99907C247.53 7.31499 247.8 7.94683 247.746 8.44327C247.746 8.98485 247.584 9.12025 247.422 8.80433C246.936 7.7663 244.02 8.48841 244.02 9.70695C244.02 10.2034 250.608 10.1583 251.58 9.61669C252.228 9.30077 252.174 9.16538 251.31 8.89459C249.204 8.26275 248.772 7.7663 249.798 7.08933C250.878 6.45749 250.23 5.55487 248.88 5.87078Z" fill="black"/>
<path d="M239.16 7.13455C239.538 7.4956 240.186 7.81152 240.564 7.81152C240.996 7.81152 241.32 7.4956 241.32 7.13455C241.32 6.68324 240.78 6.45758 239.916 6.45758C238.728 6.45758 238.566 6.54784 239.16 7.13455Z" fill="black"/>
<path d="M239.7 10.0229C240.024 10.5645 240.51 10.9707 240.78 10.9707C241.752 10.9707 241.374 10.1132 240.186 9.61676C239.16 9.12032 239.106 9.16545 239.7 10.0229Z" fill="black"/>
<path d="M270.264 15.6191C269.508 16.0705 269.4 16.3412 269.886 16.612C270.696 17.0182 271.776 16.251 271.506 15.5289C271.344 15.1678 270.966 15.213 270.264 15.6191Z" fill="black"/>
<path d="M266.43 15.9803C265.89 16.6572 266.322 16.8377 267.672 16.5218C268.32 16.3864 268.698 16.1156 268.536 15.89C268.158 15.3484 266.862 15.3935 266.43 15.9803Z" fill="black"/>
<path d="M269.4 19.9068C267.726 21.1253 267.132 21.8474 267.402 22.389C267.834 23.3819 268.32 23.3368 270.534 22.1182C272.37 21.0802 273.18 19.3652 272.262 18.598C271.938 18.3272 270.804 18.8236 269.4 19.9068Z" fill="black"/>
<path d="M139.962 55.9666C138.882 56.3277 139.152 57.0046 140.34 57.0046C140.934 57.0046 141.42 56.6887 141.42 56.3277C141.42 55.6507 141.096 55.5604 139.962 55.9666Z" fill="black"/>
<path d="M129.81 57.0047C129.972 57.2304 130.242 57.4561 130.404 57.4561C130.512 57.4561 130.62 57.2304 130.62 57.0047C130.62 56.734 130.35 56.5534 130.026 56.5534C129.756 56.5534 129.648 56.734 129.81 57.0047Z" fill="black"/>
<path d="M99.354 57.7269C99.354 58.2233 99.516 58.3587 99.678 57.9977C99.84 57.6818 99.786 57.2756 99.624 57.1402C99.462 56.9597 99.3 57.2304 99.354 57.7269Z" fill="black"/>
<path d="M105.51 58.8099C103.188 59.1258 103.458 59.3515 107.13 60.1187C108.858 60.5249 109.452 60.4798 110.046 59.9382C110.478 59.5771 110.748 59.2161 110.586 59.1258C110.046 58.6745 107.508 58.5391 105.51 58.8099Z" fill="black"/>
<path d="M114.96 58.5392C114.96 58.6295 115.338 58.9454 115.77 59.2613C116.418 59.7126 116.58 59.7126 116.58 59.0808C116.58 58.6746 116.202 58.3587 115.77 58.3587C115.338 58.3587 114.96 58.449 114.96 58.5392Z" fill="black"/>
<path d="M98.76 59.4418C98.76 60.4798 100.218 60.6152 101.244 59.6674C102.162 58.8551 102.108 58.8099 100.488 58.8099C99.354 58.8099 98.76 59.0356 98.76 59.4418Z" fill="black"/>
<path d="M70.3559 59.7576C70.0859 60.1638 74.6219 60.4346 76.1879 60.1187C76.9439 59.9382 76.1339 59.8028 74.0279 59.6674C72.1379 59.5771 70.4639 59.6223 70.3559 59.7576Z" fill="black"/>
<path d="M88.23 59.7127C87.42 59.9835 87.744 60.1189 89.58 60.1189C91.416 60.1189 91.74 59.9835 90.93 59.7127C90.336 59.4871 89.742 59.3065 89.58 59.3065C89.418 59.3065 88.824 59.4871 88.23 59.7127Z" fill="black"/>
</svg>
