<svg width="70" height="70" viewBox="0 0 70 70" fill="none" xmlns="http://www.w3.org/2000/svg">
<g clip-path="url(#clip0_634_369)">
<path d="M31.192 0.168491C30.912 0.392491 31.01 1.31649 31.304 1.20449C31.402 1.16249 31.71 1.09249 31.976 1.03649C32.62 0.924491 32.69 0.784491 32.382 0.350491C32.102 -0.0275085 31.556 -0.111509 31.192 0.168491Z" fill="black"/>
<path d="M38.738 0.825981C38.514 0.965981 38.08 1.13399 37.758 1.18999C37.282 1.27399 37.226 1.30199 37.45 1.39999C37.716 1.49799 37.702 1.51199 37.38 1.58199C37.184 1.62399 36.694 1.70798 36.274 1.74998C35.588 1.83398 35.49 1.80598 35.224 1.48399C35.056 1.30199 34.706 1.10599 34.44 1.04999C34.034 0.965981 33.978 0.97998 34.132 1.13399C34.622 1.65199 33.95 1.88998 33.32 1.39999C32.984 1.14799 32.97 1.14799 32.69 1.39999C32.466 1.59599 32.018 1.69398 30.562 1.80598C29.554 1.90398 28.42 2.05798 28.042 2.16998C27.118 2.44998 27.104 2.42198 27.972 2.02998C28.406 1.83398 28.7 1.60999 28.7 1.46999C28.7 1.23199 28.602 1.18999 27.832 1.04999C27.342 0.97998 27.3 0.99398 27.3 1.31599C27.3 1.55399 27.146 1.76398 26.852 1.97398C26.6 2.14198 26.362 2.30998 26.334 2.33798C26.306 2.35198 26.362 2.63198 26.46 2.95399C26.628 3.45798 26.698 3.51398 27.034 3.47198C27.258 3.42999 27.384 3.47198 27.342 3.54198C27.188 3.80798 26.306 4.05998 25.592 4.05998C24.864 4.04598 24.85 4.04598 25.27 3.86398L25.69 3.68198L25.172 3.42999C24.738 3.21999 24.584 3.20599 24.276 3.34599C23.842 3.54198 23.688 3.45798 23.94 3.14999C24.038 3.02399 24.094 2.91199 24.066 2.88399C23.996 2.82799 20.468 3.84998 18.76 4.40999C17.122 4.94199 15.064 6.01999 14.168 6.80399C13.426 7.44799 13.384 7.62999 13.93 7.72799C14.084 7.75599 14.21 7.83998 14.21 7.90998C14.224 7.99398 14.28 8.20399 14.336 8.38599L14.448 8.72198L14.63 8.28799C14.854 7.76999 15.246 7.50399 16.31 7.12598C17.178 6.81799 17.388 6.85999 17.038 7.23798C16.786 7.53199 16.324 8.66599 16.17 9.37999L16.072 9.86999L16.492 9.30999C16.716 9.00199 17.29 8.38599 17.766 7.95198C18.48 7.27999 18.62 7.06998 18.634 6.64999C18.648 6.38398 18.662 6.07598 18.676 5.97798C18.704 5.57198 19.67 5.30598 19.992 5.62798C20.118 5.75398 20.006 5.94998 19.53 6.45399C19.18 6.83199 18.9 7.23798 18.9 7.36399C18.9 7.53199 19.068 7.41999 19.46 6.99998C19.922 6.49599 20.062 6.42599 20.384 6.49599C20.804 6.60799 21.28 6.32798 20.972 6.14598C20.874 6.08998 20.832 6.00599 20.86 5.97798C21.168 5.73998 23.086 4.61999 23.212 4.61999C23.45 4.61999 23.562 5.20798 23.394 5.61398C23.324 5.82398 23.016 6.10398 22.722 6.25798C22.428 6.41198 21.7 6.78999 21.098 7.11198C20.244 7.57399 19.866 7.69999 19.32 7.69999C18.732 7.69999 18.62 7.74199 18.62 7.96598C18.62 8.10599 18.718 8.30199 18.83 8.39999C18.942 8.49799 19.04 8.65199 19.04 8.76398C19.04 9.04399 18.326 9.49199 17.556 9.67398C17.178 9.77199 16.38 10.08 15.792 10.388C15.022 10.766 14.7 10.864 14.7 10.724C14.7 10.626 14.854 10.108 15.064 9.58998C15.26 9.05799 15.4 8.46999 15.372 8.27399C15.302 7.68599 14.938 7.83998 14.7 8.56799C14.532 9.11399 14.448 9.21199 14.21 9.15599C14.056 9.11399 13.692 9.18399 13.398 9.30999C13.118 9.42199 12.88 9.47799 12.88 9.42199C12.88 9.36599 13.118 9.07199 13.398 8.76398L13.93 8.21799L13.09 8.80598C12.628 9.14199 11.69 9.78599 10.99 10.262C9.77199 11.088 8.11999 12.586 8.11999 12.838C8.11999 12.908 8.30199 12.95 8.53999 12.908C9.15599 12.824 9.08599 13.118 8.18999 14.21C7.76999 14.714 7.41999 15.176 7.41999 15.204C7.41999 15.33 7.57399 15.246 8.03599 14.84C8.31599 14.588 8.55399 14.476 8.60999 14.546C8.65199 14.63 7.95199 15.428 7.05599 16.31C5.44599 17.92 5.43199 17.948 5.52999 18.452C5.64199 19.04 5.87999 19.39 5.87999 18.956C5.87999 18.144 6.49599 16.8 6.87399 16.8C7.08399 16.8 7.01399 17.248 6.49599 19.264C6.21599 20.342 5.94999 21.714 5.89399 22.33L5.80999 23.45L5.29199 22.61C4.99799 22.148 4.75999 21.868 4.75999 21.994C4.75999 22.12 4.40999 22.652 3.98999 23.17C3.56999 23.674 3.21999 24.122 3.21999 24.15C3.21999 24.164 3.12199 24.416 3.00999 24.696C2.89799 24.976 2.82799 25.2 2.85599 25.2C2.88399 25.2 3.12199 24.878 3.37399 24.472L3.83599 23.758L4.01799 24.164C4.26999 24.752 4.24199 25.228 3.84999 27.3C3.49999 29.19 3.42999 30.366 3.63999 30.87C3.75199 31.122 3.76599 31.122 3.76599 30.786C3.77999 30.338 4.10199 29.89 4.31199 30.016C4.52199 30.142 4.52199 30.996 4.32599 31.906C4.11599 32.9 3.86399 33.012 3.94799 32.06L4.01799 31.332L3.55599 31.402C2.99599 31.5 2.99599 31.486 2.85599 29.61C2.81399 28.84 2.71599 28.07 2.64599 27.888C2.46399 27.412 2.12799 27.51 2.01599 28.07C1.88999 28.784 2.04399 29.666 2.65999 31.57C3.26199 33.446 3.45799 34.3 3.26199 34.3C3.19199 34.3 2.93999 34.034 2.68799 33.712C2.21199 33.096 2.14199 33.138 2.39399 33.852C2.47799 34.09 2.61799 34.272 2.70199 34.258C2.81399 34.244 2.86999 34.594 2.86999 35.462C2.86999 36.134 2.84199 36.68 2.79999 36.68C2.75799 36.68 2.51999 36.554 2.28199 36.4L1.81999 36.12L1.83399 36.512C1.84799 37.296 2.02999 38.15 2.16999 38.108C2.33799 38.052 3.09399 41.006 3.52799 43.428C3.70999 44.394 3.89199 45.136 3.93399 45.052C4.04599 44.87 4.40999 45.528 4.54999 46.186C4.71799 46.942 4.88599 46.41 4.81599 45.36L4.75999 44.45L4.96999 45.22C5.09599 45.64 5.24999 46.662 5.31999 47.488C5.38999 48.328 5.52999 49.294 5.61399 49.658L5.78199 50.302L6.03399 49.994L6.28599 49.686L6.48199 50.162C6.91599 51.198 6.92999 51.282 6.55199 51.212L6.20199 51.142L6.52399 51.632C6.70599 51.898 6.85999 52.262 6.85999 52.43C6.85999 52.71 7.37799 53.34 7.60199 53.34C7.65799 53.34 7.67199 53.172 7.61599 52.962C7.57399 52.738 7.82599 53.088 8.17599 53.718C8.52599 54.362 8.81999 55.02 8.81999 55.202C8.81999 55.86 9.43599 56.756 10.5 57.61C11.074 58.086 11.62 58.604 11.704 58.772C11.858 59.08 13.874 60.998 15.316 62.188C16.366 63.07 18.256 64.33 19.642 65.1C20.286 65.45 20.678 65.744 20.58 65.8C20.426 65.898 24.612 68.292 26.082 68.936C27.678 69.636 29.078 70 30.184 70C30.744 70 31.22 69.958 31.22 69.916C31.22 69.874 31.15 69.72 31.08 69.566C30.982 69.384 30.982 69.3 31.08 69.3C31.15 69.3 31.22 69.188 31.22 69.048C31.22 68.824 31.444 68.81 34.048 68.81C37.1 68.81 38.71 68.614 41.328 67.97C42.112 67.774 42.77 67.62 42.784 67.62C42.812 67.62 42.84 67.914 42.84 68.292C42.84 69.104 43.134 69.58 43.638 69.58H44.002L43.61 69.216C43.288 68.922 43.232 68.782 43.302 68.362C43.4 67.802 43.708 67.41 44.268 67.116C44.632 66.92 44.66 66.934 44.66 67.186C44.66 67.732 45.066 67.76 47.124 67.396C48.188 67.214 49.238 67.018 49.462 66.976C49.798 66.892 49.84 66.92 49.84 67.256C49.84 67.676 49.868 67.69 50.764 67.41C51.142 67.298 51.464 67.2 51.492 67.2C51.506 67.2 51.52 67.424 51.52 67.69C51.52 67.998 51.436 68.222 51.282 68.306C51.142 68.39 51.086 68.46 51.142 68.46C51.338 68.46 52.108 67.872 52.024 67.802C51.982 67.76 52.08 67.536 52.234 67.326L52.514 66.92H51.898C51.548 66.92 51.086 66.878 50.848 66.836C50.47 66.766 50.428 66.71 50.54 66.486C50.624 66.346 50.68 66.024 50.68 65.772V65.296L51.744 65.394L52.808 65.506L53.228 65.03C53.452 64.764 54.124 64.288 54.712 63.952C55.3 63.63 56.014 63.14 56.266 62.874C56.532 62.594 56.7 62.468 56.63 62.58C56.56 62.706 56.63 62.692 56.812 62.524C57.162 62.23 57.246 62.02 56.91 62.3C56.756 62.426 56.7 62.426 56.7 62.314C56.7 62.23 56.798 62.118 56.91 62.076C57.022 62.02 57.12 61.88 57.12 61.74C57.12 61.614 57.302 61.25 57.54 60.928L57.946 60.354L57.204 60.62C56.546 60.844 54.81 61.18 54.306 61.18C54.208 61.18 54.334 60.956 54.6 60.69C54.964 60.312 55.118 60.242 55.314 60.354C55.524 60.466 55.65 60.382 56.014 59.892C56.252 59.556 56.574 59.038 56.728 58.73C57.022 58.156 58.394 56.238 58.786 55.86C58.912 55.734 59.416 55.146 59.92 54.53C60.424 53.914 61.264 52.906 61.796 52.29C63.042 50.834 64.61 48.454 65.52 46.648C66.094 45.486 66.29 45.206 66.5 45.262C66.724 45.318 66.752 45.206 66.808 44.366C66.836 43.848 66.906 43.372 66.948 43.33C67.004 43.274 67.186 43.33 67.368 43.456C67.998 43.904 68.082 43.778 67.97 42.588C67.83 41.076 67.844 40.11 68.026 39.802C68.11 39.662 68.18 39.62 68.18 39.718C68.18 39.928 68.698 40.222 68.88 40.11C68.964 40.054 68.866 39.732 68.67 39.326C68.376 38.766 68.348 38.64 68.53 38.64C68.656 38.64 68.866 38.374 69.02 38.024C69.16 37.688 69.342 37.394 69.426 37.366C69.51 37.324 69.412 36.68 69.16 35.574C68.656 33.502 68.642 33.236 69.034 33.138C69.3 33.068 69.314 33.096 69.23 33.558C69.174 33.908 69.202 34.09 69.328 34.174C69.916 34.552 70.014 34.076 69.58 32.816C69.412 32.368 69.286 31.696 69.286 31.346C69.272 30.73 69.258 30.702 68.922 30.772L68.558 30.842L68.6 28.966C68.67 26.11 68.67 26.096 68.194 25.816C67.844 25.62 67.704 25.326 67.284 23.996C66.668 22.092 65.646 19.782 64.764 18.298C64.414 17.696 64.12 17.108 64.12 17.01C64.12 16.912 63.854 16.52 63.518 16.156C63.196 15.778 62.552 14.994 62.09 14.42C60.956 12.992 58.842 10.906 57.386 9.77199C56.294 8.91799 53.536 7.08398 53.158 6.95798C53.074 6.92999 53.228 6.63599 53.536 6.25798C54.124 5.54398 54.152 5.12399 53.648 4.78799C53.326 4.57799 53.326 4.57799 53.494 4.94199C53.634 5.24998 53.62 5.37598 53.424 5.65598C53.088 6.17398 52.682 6.34198 52.038 6.24398C51.716 6.18798 51.394 6.08998 51.31 6.03399C51.24 5.96398 50.932 5.83798 50.638 5.73998C50.148 5.58598 50.12 5.55798 50.316 5.33398C50.442 5.19398 50.54 5.01199 50.54 4.92799C50.54 4.59199 49.658 3.79398 48.412 2.96799C46.998 2.04398 46.578 1.97398 46.088 2.58998L45.836 2.89799L45.164 2.11398C44.492 1.34399 44.464 1.32999 43.694 1.31599C43.26 1.31599 42.504 1.17599 42 1.02199C41.496 0.867981 40.656 0.699982 40.11 0.643982C39.298 0.587982 39.06 0.615982 38.738 0.825981ZM39.438 0.783981C39.396 0.825981 39.27 0.839981 39.172 0.797981C39.06 0.755981 39.102 0.713982 39.256 0.713982C39.41 0.699982 39.494 0.741982 39.438 0.783981ZM49.392 5.01199C49.588 5.30598 49.588 5.31998 49.154 5.16599C48.72 5.01199 48.636 4.89999 48.818 4.70399C48.958 4.56399 49.168 4.67599 49.392 5.01199ZM12.012 10.388C11.9 10.57 11.536 11.186 11.2 11.76C10.864 12.334 10.57 12.824 10.556 12.852C10.542 12.88 10.374 12.824 10.206 12.726L9.88399 12.558L10.262 12.264C10.472 12.096 10.64 11.9 10.64 11.83C10.64 11.676 12.012 10.08 12.138 10.08C12.18 10.08 12.124 10.22 12.012 10.388ZM9.79999 18.578C9.64599 18.816 9.64599 18.816 9.71599 18.578C9.75799 18.438 9.79999 18.242 9.81399 18.158C9.81399 18.032 9.84199 18.032 9.88399 18.158C9.92599 18.256 9.88399 18.438 9.79999 18.578ZM11.62 19.446C11.62 19.516 11.522 19.642 11.41 19.74C11.242 19.88 11.2 19.88 11.2 19.712C11.2 19.6 11.242 19.46 11.298 19.418C11.424 19.278 11.62 19.292 11.62 19.446ZM9.93999 19.796C9.93999 19.824 9.98199 19.95 10.024 20.062C10.066 20.188 9.88399 20.426 9.54799 20.692L9.01599 21.126L9.22599 20.426C9.37999 19.936 9.50599 19.74 9.68799 19.74C9.82799 19.74 9.93999 19.768 9.93999 19.796ZM10.598 20.384C10.514 20.678 9.98199 21.602 9.42199 22.428C8.86199 23.268 8.13399 24.458 7.81199 25.088L7.20999 26.25L7.16799 24.262C7.13999 22.386 7.15399 22.246 7.44799 21.91C7.61599 21.714 7.82599 21.56 7.93799 21.56C8.03599 21.56 8.21799 21.406 8.34399 21.21C8.59599 20.818 8.81999 20.86 8.81999 21.294C8.81999 21.924 9.89799 21.196 10.388 20.258C10.724 19.586 10.822 19.642 10.598 20.384ZM68.46 27.496C68.46 28.112 68.222 27.762 68.124 27.02C68.04 26.418 68.04 26.404 68.236 26.74C68.362 26.936 68.446 27.272 68.46 27.496ZM6.38399 27.286C6.49599 27.188 6.62199 27.16 6.67799 27.202C6.81799 27.342 6.14599 28.84 5.93599 28.84C5.54399 28.84 5.23599 27.664 5.47399 27.048L5.61399 26.67L5.90799 27.062C6.13199 27.37 6.22999 27.412 6.38399 27.286ZM47.18 66.15C47.18 66.29 47.04 66.36 46.732 66.36L46.27 66.346L46.62 66.15C47.068 65.898 47.18 65.898 47.18 66.15ZM45.948 67.158C46.144 67.41 45.71 67.55 45.248 67.396C44.716 67.214 44.716 66.948 45.248 66.724C45.668 66.542 45.71 66.542 45.766 66.752C45.794 66.878 45.878 67.074 45.948 67.158ZM30.73 68.754C30.926 68.95 30.226 68.894 29.75 68.684C29.33 68.488 29.344 68.488 29.96 68.558C30.31 68.6 30.646 68.684 30.73 68.754Z" fill="black"/>
<path d="M35.742 1.21826C35.952 1.24626 36.288 1.24626 36.512 1.21826C36.722 1.19026 36.54 1.16226 36.12 1.16226C35.7 1.16226 35.518 1.19026 35.742 1.21826Z" fill="black"/>
<path d="M50.932 4.95626C51.1 5.18026 51.24 5.47426 51.24 5.62826C51.24 5.78226 51.31 5.85226 51.38 5.81026C51.66 5.64226 51.506 5.19426 51.072 4.87226L50.61 4.55026L50.932 4.95626Z" fill="black"/>
<path d="M4.648 18.8023C4.326 19.1523 4.256 19.5303 4.48 19.6703C4.564 19.7123 4.62 19.8943 4.62 20.0623C4.634 20.3702 4.634 20.3702 4.844 20.0903C5.026 19.8383 5.026 19.8103 4.844 19.7683C4.564 19.7123 4.564 19.7123 4.83 19.0823C5.096 18.4663 5.04 18.3823 4.648 18.8023Z" fill="black"/>
<path d="M2.31 20.7768C2.128 21.2528 2.114 21.4488 2.226 21.6868C2.52 22.2048 2.66 21.9948 2.66 21.0708C2.66 20.5668 2.632 20.1608 2.604 20.1608C2.576 20.1608 2.436 20.4408 2.31 20.7768Z" fill="black"/>
<path d="M1.63799 23.1003C1.41399 23.4923 1.18999 23.8003 1.13399 23.8003C0.993995 23.8003 0.615995 23.3663 0.531995 23.1003C0.489995 22.9883 0.433995 23.1283 0.405995 23.4083C0.363995 23.6883 0.391995 23.8843 0.447995 23.8563C0.503995 23.8143 0.559995 24.0103 0.559995 24.2763C0.559995 24.5563 0.629995 24.7803 0.699995 24.7803C0.783995 24.7803 0.839995 24.7243 0.839995 24.6543C0.839995 24.5703 1.21799 24.2203 1.67999 23.8703C2.506 23.2263 2.68799 22.9043 2.35199 22.5683C2.09999 22.3163 2.05799 22.3443 1.63799 23.1003Z" fill="black"/>
<path d="M0.699997 25.6207C0.699997 25.7047 0.797997 25.7607 0.909997 25.7607C1.176 25.7607 1.176 25.6767 0.909997 25.5647C0.797997 25.5227 0.699997 25.5507 0.699997 25.6207Z" fill="black"/>
<path d="M67.788 44.1703C67.634 44.5203 67.55 46.3263 67.69 46.1723C67.774 46.0883 68.068 43.9463 67.998 43.8763C67.97 43.8483 67.872 43.9743 67.788 44.1703Z" fill="black"/>
<path d="M64.806 49.1684C64.68 49.6444 64.54 50.1484 64.484 50.2744C64.33 50.6104 65.002 50.4564 65.352 50.0644C65.842 49.5464 65.856 49.2104 65.422 48.7204L65.016 48.2724L64.806 49.1684Z" fill="black"/>
<path d="M63.98 50.9742C63.882 51.1282 63.84 51.2962 63.882 51.3242C63.91 51.3522 64.008 51.2262 64.092 51.0302C64.288 50.6102 64.19 50.5682 63.98 50.9742Z" fill="black"/>
<path d="M63.434 52.3887C63.126 53.3127 63.168 53.3127 63.756 52.4307L64.12 51.8707V52.4307C64.106 52.7387 64.022 53.1447 63.91 53.3407C63.406 54.2227 63.826 54.6147 64.596 53.9987C64.946 53.7047 64.974 53.6347 64.834 53.3547C64.722 53.1727 64.694 52.8227 64.764 52.4307C64.848 51.8427 64.834 51.8007 64.47 51.6607C63.84 51.4227 63.742 51.4927 63.434 52.3887Z" fill="black"/>
<path d="M60.774 55.5239C60.774 55.6919 60.41 56.2099 59.99 56.6859C59.248 57.5119 59.052 57.9879 59.36 58.1699C59.612 58.3239 59.514 58.4919 59.122 58.5899L58.73 58.7019L59.136 58.8139C59.416 58.8979 59.626 58.8559 59.878 58.7019L60.228 58.4639L59.906 58.2399C59.416 57.8619 59.64 57.5399 60.41 57.5399H61.04L61.026 56.9379C61.026 56.2799 60.802 55.0619 60.774 55.5239Z" fill="black"/>
<path d="M62.37 55.5942C62.314 55.6782 62.3 55.7622 62.342 55.8042C62.37 55.8462 62.44 55.7762 62.482 55.6502C62.58 55.4122 62.496 55.3702 62.37 55.5942Z" fill="black"/>
<path d="M61.81 56.7982C61.6 57.1342 61.46 57.4422 61.488 57.4702C61.502 57.4842 61.726 57.5542 61.964 57.5962C62.342 57.6802 62.454 57.6382 62.706 57.3162C63.098 56.8262 63.084 56.6722 62.58 56.3922L62.174 56.1682L61.81 56.7982Z" fill="black"/>
<path d="M58.786 59.5985L58.31 60.1025L58.758 59.7945C59.234 59.4725 59.43 59.2485 59.332 59.1365C59.304 59.1085 59.052 59.3185 58.786 59.5985Z" fill="black"/>
<path d="M52.85 66.6403C52.808 66.7103 52.836 66.7803 52.906 66.7803C52.99 66.7803 53.06 66.7103 53.06 66.6403C53.06 66.5563 53.032 66.5003 53.004 66.5003C52.962 66.5003 52.892 66.5563 52.85 66.6403Z" fill="black"/>
<path d="M48.37 68.1939C47.782 68.7959 47.726 68.8939 48.02 68.8099C48.622 68.6419 49.21 68.2499 49.252 67.9839C49.364 67.4239 49.028 67.5079 48.37 68.1939Z" fill="black"/>
<path d="M45.57 68.0399L45.01 68.2919L45.542 68.3059C45.892 68.3199 46.102 68.2499 46.158 68.1099C46.284 67.7739 46.172 67.7599 45.57 68.0399Z" fill="black"/>
<path d="M37.17 69.0203C35.784 69.1603 33.992 69.2863 33.18 69.3003L31.71 69.3283L33.11 69.5943C33.908 69.7623 35.434 69.9023 36.68 69.9583L38.85 70.0283L38.5 69.7483L38.15 69.4683L38.5 69.3143C38.696 69.2443 39.354 69.1323 39.97 69.0763C40.796 69.0063 40.992 68.9503 40.74 68.8663C40.25 68.7263 40.026 68.7403 37.17 69.0203Z" fill="black"/>
<path d="M29.2871 18.9782C28.4258 19.113 27.1484 19.529 26.5801 19.863C26.252 20.0563 25.6133 20.6012 24.5586 21.5856C23.2637 22.7985 22.8184 23.1091 21.6172 23.6364L20.9785 23.9177L20.7324 24.6149C20.5977 24.9958 20.3105 25.7048 20.0996 26.1911L19.707 27.0759L19.8184 27.3923C19.9297 27.7145 20.4219 28.8571 20.7559 29.5661C20.9023 29.8884 20.9258 29.988 20.8789 30.111C20.8027 30.3161 20.8027 30.6442 20.8906 31.2243C20.9551 31.6872 20.9551 31.7048 20.7617 32.279C20.6562 32.6013 20.5566 32.9001 20.5449 32.9352C20.4922 33.0759 21.1953 33.7204 21.9395 34.2126C22.8125 34.7868 23.0645 35.0036 23.2637 35.3141C23.3809 35.5016 23.9844 36.9313 23.9844 37.0192C23.9844 37.0368 23.791 36.8552 23.5566 36.6208C22.9648 36.0407 22.502 35.7419 21.8867 35.5602C21.043 35.3024 20.6504 35.0212 20.0527 34.236C19.5781 33.6091 19.209 33.3044 18.5176 32.947C17.457 32.4079 17 32.1149 16.6016 31.7458C16.1445 31.3122 15.9277 30.9196 15.834 30.3454C15.7754 29.9763 15.7871 29.8708 15.916 29.2907C15.998 28.9333 16.0566 28.6403 16.0508 28.6286C16.0391 28.6227 15.9512 28.822 15.8516 29.0798C15.5117 29.947 15.4824 30.527 15.7285 31.277C15.9863 32.0388 16.4961 32.6188 17.6445 33.4391C18.4824 34.0427 18.7695 34.3532 19.1211 35.0095C19.2734 35.2966 19.5195 35.6364 19.7129 35.8356C20.1113 36.2399 20.9375 36.7907 21.6816 37.1423C22.7363 37.6462 22.959 37.8864 23.6504 39.2516C23.9609 39.861 24.1426 40.1364 24.5703 40.6286C26.041 42.322 26.1758 42.5095 27.2949 44.32C28.0156 45.4977 28.6426 46.4177 29.1992 47.1325C29.6797 47.7419 29.6797 47.736 29.9668 48.5739C30.4355 49.945 30.834 50.777 31.2969 51.3513C31.4141 51.4977 31.748 51.861 32.0352 52.1598C32.627 52.7692 32.7148 52.8102 33.9102 53.0563C34.8945 53.2614 35.7148 53.197 36.9863 52.8161C37.3965 52.6989 37.4551 52.652 37.8945 52.2067C38.8613 51.2341 39.2715 50.5309 39.9453 48.7263C40.2324 47.947 40.3789 47.6423 40.5723 47.3962C41.1992 46.5993 41.9434 45.5212 42.6172 44.4255C43.6719 42.7028 44.0469 42.1638 44.8789 41.2145C45.7402 40.2243 45.998 39.8669 46.2617 39.2751C46.7949 38.068 47.1758 37.6579 48.2539 37.1305C49.1269 36.7028 49.918 36.1872 50.3047 35.7829C50.457 35.6305 50.7031 35.279 50.8555 35.0036C51.248 34.2829 51.4473 34.0661 52.3203 33.4098C53.9023 32.2263 54.3945 31.4294 54.3242 30.1696C54.3008 29.8122 54.2422 29.572 54.0781 29.1442C53.8027 28.4294 53.7207 28.3532 53.9141 28.9802C54.1367 29.6891 54.1309 30.4509 53.9141 30.9196C53.7148 31.3356 53.2051 31.8805 52.6953 32.2145C52.4844 32.3552 51.9746 32.6481 51.5644 32.8649C50.6973 33.3278 50.4219 33.5563 49.9414 34.1833C49.3203 34.9977 48.8105 35.3552 47.9844 35.5661C47.4863 35.6891 47 35.9997 46.4141 36.5798C46.1621 36.8259 45.957 37.0075 45.957 36.9782C45.957 36.8727 46.3906 35.7712 46.5605 35.4548C46.7715 35.0505 46.9414 34.904 48.0312 34.1833C48.8105 33.6677 49.4141 33.1462 49.4141 32.988C49.4141 32.947 49.332 32.6833 49.2383 32.3903C49.0215 31.7634 49.0156 31.6579 49.1211 31.0368C49.1855 30.6559 49.1855 30.4743 49.1328 30.193C49.0684 29.8415 49.0742 29.8239 49.2617 29.443C49.584 28.7927 50.2344 27.2399 50.2344 27.111C50.2344 27.0466 50.0937 26.695 49.918 26.3259C49.748 25.9567 49.4785 25.3122 49.3262 24.8962C49.1738 24.4743 49.0332 24.0817 49.0039 24.0114C48.9746 23.9352 48.7461 23.8005 48.3242 23.613C47.1465 23.0973 46.625 22.7282 45.1953 21.3805C44.7617 20.9704 44.2051 20.4782 43.9648 20.279C42.7578 19.3063 40.4082 18.7087 38.6738 18.943C37.5254 19.0954 36.2949 19.5407 35.9199 19.9333L35.75 20.1091L36.043 19.9626C36.7695 19.6052 38.1406 19.4177 39.2246 19.5231C40.332 19.6403 41.5098 20.0036 42.0019 20.3845C42.1484 20.5016 42.125 20.5192 41.3691 20.7946C41.0586 20.9118 40.6367 21.0876 40.4316 21.1813L40.0684 21.3513L40.3848 21.3161C40.8359 21.2634 40.7539 21.3805 40.1855 21.6091C39.8105 21.7614 38.5859 22.4645 38.6973 22.4645C38.7148 22.4645 38.9551 22.3708 39.2363 22.2595C39.5117 22.1481 40.0859 21.9665 40.5078 21.8552C41.3516 21.6325 41.293 21.6266 41.9492 21.943C42.2891 22.1071 42.3652 22.1247 42.6758 22.0895C42.8926 22.0661 43.0273 22.072 43.0273 22.1071C43.0273 22.1833 42.7109 22.3649 42.3652 22.4938C42.2129 22.5524 42.0957 22.6052 42.1016 22.611C42.1133 22.6227 42.3184 22.5934 42.5644 22.5524C42.8047 22.5114 43.2207 22.4587 43.4785 22.4352C43.9473 22.3942 43.9648 22.3942 44.4453 22.6169C44.7148 22.7399 44.9492 22.8513 44.9727 22.8688C44.9961 22.8864 44.6914 22.904 44.2988 22.904C43.7129 22.904 43.5019 22.9274 43.1445 23.0388C42.1777 23.3434 41.082 23.9294 40.0801 24.6852C39.2422 25.3122 38.9902 25.6169 38.5508 26.5134C38.2285 27.1813 37.8125 28.1657 37.8125 28.2653C37.8125 28.2829 37.9355 28.0778 38.082 27.8141C38.5684 26.9528 38.873 26.6598 40.7598 25.2302C41.1055 24.9665 41.416 24.7497 41.4512 24.7497C41.4863 24.7497 41.4277 24.8552 41.3281 24.9841L41.1406 25.2243L41.6269 24.8727C42.1426 24.5036 43.1445 23.947 43.1445 24.029C43.1445 24.0524 43.0508 24.1403 42.9453 24.2223C42.834 24.3044 42.7519 24.3747 42.7578 24.3864C42.7695 24.3923 42.9629 24.322 43.1914 24.2223C43.5195 24.0817 43.6894 24.0466 44.0059 24.0466L44.4043 24.0524L44.1699 24.2634C44.041 24.3805 43.543 24.7673 43.0566 25.1305C42.5762 25.4938 42.1309 25.8454 42.0723 25.9098C42.0137 25.9743 41.8789 26.2497 41.7793 26.5192C41.2402 27.9313 40.6191 28.7165 39.623 29.2321C39.1133 29.4958 39.0137 29.5134 39.1895 29.3259C39.3184 29.1794 39.7461 28.3766 39.6699 28.4235C39.6289 28.4411 39.4414 28.57 39.248 28.7048C38.5977 29.1618 38.082 29.4313 37.3086 29.7243C36.1777 30.1462 36.1133 30.1872 35.9023 30.5739L35.8086 30.7438L35.9902 30.6149C36.1191 30.5212 36.2129 30.4977 36.3008 30.527C36.6113 30.6208 38.0469 31.3063 38.3633 31.5114C38.5508 31.6286 38.7148 31.7223 38.7266 31.7106C38.7324 31.6989 38.5625 31.4704 38.334 31.2009C38.1113 30.9313 37.9297 30.6911 37.9297 30.6677C37.9297 30.5446 38.1758 30.4391 38.5449 30.404C39.0312 30.3571 39.5293 30.2516 40.2324 30.0466C40.5195 29.9645 40.7656 29.9059 40.7773 29.9235C40.7949 29.9411 40.625 30.0524 40.3906 30.1696C40.1621 30.2927 39.9863 30.3981 39.998 30.4157C40.0098 30.4274 40.2676 30.3688 40.5723 30.2809C40.8769 30.1989 41.1758 30.1169 41.2402 30.1052C41.3047 30.0876 41.1406 30.193 40.8711 30.3337C40.0742 30.7438 39.6641 31.236 39.0137 32.5427C38.8262 32.9118 38.5684 33.3864 38.4336 33.5973C38.2988 33.8083 38.1699 34.0134 38.1406 34.0485C38.0293 34.236 38.1875 34.072 38.7207 33.4509C39.7344 32.2555 40.6894 31.4352 41.5918 30.9782C41.9727 30.7848 42.0664 30.7614 42.8809 30.6911C44.8965 30.5095 44.7676 30.4977 45.0957 30.8903L45.2539 31.0895V30.8845C45.2539 30.5973 45.6348 29.8708 45.9629 29.5427C46.1094 29.3962 46.373 29.197 46.5488 29.1149C46.9355 28.9157 47.4805 28.7282 47.5391 28.7634C47.6035 28.8044 47.7734 29.5602 47.7734 29.8063C47.7734 30.0407 47.3457 30.7497 46.7363 31.5348L46.3437 32.0446L46.7305 31.693C46.9414 31.4997 47.2402 31.2009 47.3926 31.0309C47.5449 30.8669 47.6914 30.738 47.7207 30.7614C47.75 30.779 47.7734 30.8962 47.7734 31.0192C47.7734 31.2888 47.5039 31.652 46.9941 32.0915C46.5137 32.4958 46.584 32.5544 47.082 32.1677C47.4746 31.8571 47.6562 31.7751 47.6562 31.8923C47.6562 31.9216 47.4863 32.1032 47.2754 32.2966C47.0176 32.5368 46.7246 32.7419 46.3555 32.9177L45.8105 33.1872L45.4004 33.0934C45.1777 33.0466 44.7441 32.9704 44.4512 32.9235C43.9766 32.8532 43.8652 32.8532 43.5723 32.9294C43.0273 33.07 42.5937 33.3454 41.8144 34.0485C41.3926 34.4235 40.6602 34.9977 40.1269 35.3552C39.6113 35.7067 39.0371 36.1345 38.8496 36.2985L38.5156 36.5973V36.0114C38.5156 35.695 38.498 35.2614 38.4746 35.0563L38.4336 34.6813L38.3926 34.945C38.3691 35.0915 38.3457 35.3434 38.3457 35.5075C38.3398 35.7712 38.3047 35.8591 38.0879 36.152C37.7832 36.5622 37.4316 36.8903 37.127 37.0485C36.7109 37.2595 36.6934 37.2477 36.5879 36.7907L36.4941 36.3805L36.3535 36.738C36.2832 36.9372 36.1484 37.1833 36.0664 37.2888L35.9082 37.4763L35.0059 37.4704C34.5078 37.4645 34.0566 37.4352 33.9922 37.4001C33.9277 37.3649 33.7754 37.1305 33.6523 36.8727L33.4238 36.3981L33.3594 36.6559C33.3301 36.7966 33.2773 36.9782 33.2539 37.0661L33.2129 37.2243L32.9199 37.0778C32.4922 36.861 32.2812 36.6794 31.918 36.2458C31.6309 35.8942 31.6016 35.8356 31.5957 35.5661C31.5957 35.402 31.5723 35.1501 31.5488 35.0036C31.5078 34.7634 31.502 34.7868 31.4609 35.3141C31.4316 35.6247 31.4258 36.0407 31.4375 36.2341C31.4492 36.4274 31.4434 36.5856 31.4199 36.5856C31.3965 36.5856 31.3672 36.5622 31.3555 36.5329C31.3145 36.4216 30.6582 35.9059 29.9902 35.4548C29.0586 34.8337 28.6895 34.5466 28.0391 33.9489C27.4004 33.3513 26.9844 33.0934 26.4746 32.947C26.0996 32.8415 26.0879 32.8415 25.3203 32.988C24.8926 33.07 24.4648 33.1462 24.3652 33.1638C23.9844 33.2282 22.6719 32.4255 22.8535 32.2438C22.9004 32.197 23.0117 32.2438 23.2578 32.4196C23.4395 32.5485 23.6211 32.6598 23.6562 32.6598C23.7266 32.6598 23.5449 32.4958 22.9824 32.068C22.6074 31.7868 22.5898 31.7634 22.5254 31.4235C22.4844 31.2243 22.4609 31.0544 22.4727 31.0485C22.4844 31.0368 22.7949 31.2829 23.1641 31.5934C23.832 32.1501 23.832 32.1559 23.5391 31.8102C23.1348 31.3298 22.7187 30.7731 22.4141 30.3044L22.1621 29.9177L22.2559 29.3669C22.3086 29.068 22.3672 28.8044 22.3906 28.7809C22.4492 28.7223 23.4219 29.1149 23.7207 29.32C24.1777 29.6364 24.6406 30.3337 24.7227 30.8376L24.7637 31.0837L24.8633 30.9196C25.1035 30.527 25.1211 30.5212 26.082 30.6032C27.9336 30.7614 27.9512 30.7614 28.3672 30.9958C29.293 31.4997 30.2129 32.32 31.5605 33.8317L31.8945 34.2126L31.5664 33.6852C31.3848 33.3923 31.1094 32.8942 30.9453 32.572C30.582 31.8513 30.1074 31.1247 29.7969 30.8259C29.6738 30.7028 29.3457 30.486 29.0762 30.3454C28.8066 30.1989 28.6016 30.0817 28.6309 30.0817C28.6543 30.0817 28.9531 30.1638 29.293 30.2634C29.6328 30.363 29.9199 30.4333 29.9316 30.4216C29.9492 30.4098 29.7793 30.2927 29.5508 30.1696C29.3281 30.0407 29.1582 29.9294 29.1699 29.9177C29.1816 29.9059 29.4746 29.9821 29.8262 30.0817C30.1719 30.1813 30.7637 30.3044 31.1328 30.3513C31.502 30.404 31.8477 30.4626 31.8945 30.486C32.0586 30.5739 32.0234 30.7321 31.7656 31.0368C31.625 31.2067 31.4434 31.4352 31.3672 31.5466L31.2207 31.7516L31.4258 31.6169C31.7598 31.3942 33.541 30.5388 33.6758 30.5329C33.7402 30.5329 33.8457 30.5505 33.9102 30.5798C34.0098 30.6266 34.0098 30.6149 33.9219 30.445C33.7812 30.1696 33.6055 30.0641 32.791 29.7595C31.9355 29.443 31.502 29.2204 30.7402 28.7048L30.207 28.3415L30.418 28.7282C30.5293 28.9391 30.6758 29.1794 30.7344 29.2555C30.793 29.3317 30.8281 29.4079 30.8105 29.4255C30.793 29.443 30.582 29.3552 30.3301 29.2321C29.6504 28.8981 29.0176 28.2419 28.6309 27.4743C28.4668 27.152 28.2617 26.6891 28.1797 26.4489C28.0918 26.2087 27.9922 25.9743 27.9512 25.9274C27.9102 25.8805 27.4883 25.5524 27.002 25.1891C26.5215 24.8317 26.0059 24.4274 25.8594 24.2927L25.5957 24.0524L26.041 24.0466C26.4336 24.0466 26.5098 24.0641 26.7559 24.2223C26.9082 24.3161 27.0488 24.4391 27.0664 24.486C27.1191 24.6208 27.2012 24.5915 27.2422 24.4216C27.2891 24.2341 27.3066 24.2458 27.9805 24.7263C28.2793 24.9489 28.959 25.3942 29.4922 25.7282C30.0254 26.0622 30.5937 26.4255 30.7637 26.5368C31.1855 26.8239 31.6543 27.3923 32.0176 28.0544C32.1113 28.2184 32.1875 28.3356 32.1875 28.3122C32.1934 28.1423 31.4902 26.6423 31.0918 25.9626C30.9043 25.6462 30.2246 25.1305 29.5156 24.7673C28.877 24.4391 28.9531 24.1638 29.6035 24.4567C30.3418 24.7966 29.5039 24.2341 28.4082 23.6598C27.377 23.1208 26.7559 22.9274 25.8945 22.8805L25.1914 22.8454L25.7187 22.5993C26.1699 22.3825 26.3105 22.3415 26.7676 22.3122C27.3008 22.2712 27.6582 22.1774 27.2832 22.1716C27.1836 22.1716 27.0781 22.1423 27.0547 22.1013C27.0254 22.0544 27.1602 22.0485 27.5937 22.072C27.9102 22.0954 28.2559 22.1247 28.3496 22.1423C28.5312 22.1774 27.7812 21.779 27.207 21.5446C26.7207 21.3395 26.873 21.2751 27.8047 21.2692C28.6602 21.2692 29.7617 21.4333 30.3477 21.6501C30.5234 21.7204 30.6816 21.7614 30.6992 21.7497C30.7344 21.7087 29.8965 21.2575 29.6035 21.1579C29.4629 21.111 29.082 21.0407 28.7656 20.9997C27.916 20.9001 27.6934 20.7829 28.1035 20.6598C28.4668 20.5485 28.8418 20.5251 29.3398 20.5895C30.1074 20.695 30.1191 20.6305 29.3633 20.4489C28.9883 20.361 28.6367 20.2555 28.5781 20.2145C28.4844 20.1442 28.4844 20.1325 28.6191 20.0446C28.8418 19.8981 30.0664 19.6052 30.7578 19.5348C31.7598 19.4294 33.1016 19.5876 33.8867 19.9098L34.25 20.0563L34.1211 19.9157C33.7871 19.5583 32.6445 19.1247 31.6602 18.9723C30.9922 18.8727 29.9316 18.8727 29.2871 18.9782ZM43.8769 26.8473C43.6602 27.5915 43.1855 28.1481 42.4766 28.4997C42.1894 28.6403 42.0019 28.6872 41.6445 28.7106L41.1816 28.7399L41.4805 28.57C42.5293 27.9782 43.2793 27.1345 43.7715 25.9977L43.9355 25.6169L43.9531 26.068C43.9648 26.361 43.9355 26.6364 43.8769 26.8473ZM26.9434 27.2106C27.1895 27.5446 27.8633 28.1481 28.373 28.488L28.7598 28.7516L28.3203 28.7223C27.1777 28.652 26.2051 27.7263 26.041 26.5544C26.0117 26.3376 26 26.0563 26.0176 25.9274L26.0527 25.6872L26.3984 26.32C26.5918 26.6657 26.8379 27.0641 26.9434 27.2106ZM46.168 27.5329C46.3203 27.6325 46.4668 27.9665 46.3906 28.0192C46.3555 28.0427 46.1738 28.1716 45.9746 28.3063C45.5937 28.57 45.3359 28.8454 45.248 29.0739C45.2187 29.1559 45.166 29.4196 45.1309 29.6657C45.0957 29.9118 45.043 30.1345 45.0195 30.1638C44.9844 30.1989 44.9199 30.1052 44.8496 29.9411C44.7852 29.7946 44.6914 29.654 44.6504 29.6364C44.6035 29.6188 44.2871 29.6481 43.9473 29.695C43.6133 29.7477 43.2617 29.7888 43.168 29.7888C43.0156 29.7888 43.0391 29.7653 43.3496 29.5954C43.543 29.4899 43.7656 29.361 43.8477 29.3024C44.1289 29.1091 44.6328 28.5817 44.9375 28.1657C45.1777 27.8434 45.3184 27.7145 45.5586 27.5973C45.9219 27.4216 46.0039 27.4157 46.168 27.5329ZM24.418 27.6032C24.6348 27.6852 24.7402 27.7673 24.8516 27.943C25.3027 28.6696 25.8652 29.2087 26.5742 29.5895C26.9023 29.7653 26.9258 29.7888 26.7676 29.7888C26.6738 29.7888 26.3223 29.7477 25.9941 29.7009C25.6602 29.654 25.3555 29.6305 25.3086 29.6481C25.2617 29.6657 25.1738 29.8005 25.1211 29.9411C24.9629 30.3513 24.9336 30.3161 24.7988 29.5602C24.6934 28.9098 24.5 28.6462 23.8203 28.2126C23.6562 28.1071 23.5156 27.9899 23.5156 27.9548C23.5156 27.8434 23.8848 27.5036 24.0078 27.5036C24.0781 27.5036 24.2598 27.5505 24.418 27.6032ZM42.7051 34.4587C42.6523 34.6403 42.5469 34.9157 42.4648 35.0622C42.3066 35.3669 42.0547 35.6833 42.1133 35.5134C42.1309 35.4548 42.1484 35.197 42.1484 34.9391C42.1484 34.5348 42.166 34.4645 42.2773 34.3708C42.3418 34.318 42.4824 34.2009 42.582 34.113C42.8105 33.9138 42.8398 33.9958 42.7051 34.4587ZM27.5 34.2243L27.793 34.4411V34.8044C27.793 35.0036 27.8105 35.2555 27.834 35.361C27.8633 35.5309 27.8574 35.5485 27.7812 35.4899C27.6348 35.3669 27.3945 34.8747 27.2715 34.4294C27.207 34.2009 27.166 34.0075 27.1836 34.0075C27.1953 34.0075 27.3418 34.1071 27.5 34.2243ZM29 35.4548L29.2988 35.5895L29.2168 36.0173C29.1348 36.4274 29.1406 37.4059 29.2285 37.7575C29.2637 37.8864 29.2402 37.8747 29.0586 37.6696C28.6309 37.1891 28.3145 36.4391 28.1738 35.5602C28.0332 34.7106 28.0332 34.7106 28.3965 35.0388C28.5605 35.1911 28.8359 35.3786 29 35.4548ZM41.8262 35.1911C41.7324 36.0759 41.5156 36.7321 41.123 37.3473C40.8652 37.7575 40.625 38.0095 40.707 37.7868C40.8359 37.4352 40.8008 36.0817 40.6484 35.6891C40.6309 35.6423 40.7422 35.5602 40.9297 35.4606C41.0996 35.3786 41.3691 35.2028 41.5332 35.068C41.6914 34.9391 41.832 34.8278 41.8437 34.8278C41.8555 34.8278 41.8496 34.9919 41.8262 35.1911ZM30.3418 36.2634C30.5352 36.4157 30.7754 36.6149 30.875 36.7028L31.0566 36.861V37.9098C31.0508 38.8122 31.0684 39.0231 31.1797 39.4216C31.25 39.6794 31.3086 39.902 31.3086 39.9196C31.3027 39.9372 31.1562 39.7966 30.9805 39.6032C30.3711 38.9411 29.9492 37.7516 29.8672 36.4802C29.832 35.947 29.8379 35.8649 29.9082 35.9177C29.9551 35.9528 30.1484 36.111 30.3418 36.2634ZM40.0742 36.4509C39.9746 37.8747 39.5703 38.9235 38.8086 39.7497C38.668 39.902 38.5801 39.9665 38.6035 39.8962C38.8027 39.3102 38.8789 38.8415 38.8906 38.197C38.8906 37.8102 38.8848 37.3591 38.8672 37.195L38.8379 36.8962L39.377 36.4509C39.6699 36.2048 39.9277 35.9763 39.9512 35.9411C39.9687 35.9118 40.0156 35.8825 40.0508 35.8825C40.0977 35.8825 40.1035 36.0583 40.0742 36.4509ZM32.6094 37.5759C32.7148 37.6403 32.9023 37.7106 33.0254 37.7282C33.1426 37.7516 33.2422 37.7868 33.2422 37.8102C33.2422 37.8278 33.3125 38.2263 33.3945 38.6891L33.5527 39.5329L33.4121 39.9665C33.3418 40.2067 33.2539 40.4177 33.2246 40.4352C33.1484 40.4821 32.8906 40.2184 32.7441 39.9255C32.4688 39.3864 32.2402 38.6188 32.2051 38.1266C32.1582 37.4352 32.2168 37.3473 32.6094 37.5759ZM37.7656 37.6227C37.8535 38.4138 37.4141 39.8493 36.9453 40.3005C36.7402 40.488 36.752 40.4997 36.5293 39.8903L36.4004 39.5388L36.5469 38.7126C36.6348 38.2555 36.6992 37.8747 36.6992 37.8571C36.6992 37.8395 36.8223 37.7809 36.9805 37.7282C37.1328 37.6813 37.3203 37.5993 37.4023 37.5524C37.6309 37.4235 37.7422 37.4411 37.7656 37.6227ZM34.4844 38.0798L34.7539 38.1149L34.7949 38.7126C34.8301 39.2809 34.7949 39.6091 34.6484 40.1716C34.5723 40.4352 34.5137 40.447 34.2266 40.2477C33.8105 39.9665 33.4238 38.9118 33.5117 38.3141C33.5762 37.8688 33.5586 37.8805 33.9043 37.9684C34.0684 38.0095 34.332 38.0622 34.4844 38.0798ZM36.3887 38.0329C36.4648 38.3083 36.4238 38.9997 36.3184 39.3102C36.2656 39.4684 36.1426 39.7263 36.043 39.8786C35.8672 40.1598 35.5156 40.4294 35.416 40.3708C35.3867 40.3473 35.3105 40.1013 35.2402 39.82C35.1465 39.4098 35.1289 39.193 35.1582 38.7184L35.1934 38.1208L35.627 38.0563C35.873 38.0212 36.1133 37.9626 36.166 37.9333C36.3125 37.8454 36.3418 37.863 36.3887 38.0329ZM30.4004 42.0641C30.4531 42.2223 30.541 42.4216 30.5879 42.4977C30.6641 42.6208 30.6641 42.6677 30.5703 42.9606C30.4824 43.2419 30.4766 43.4294 30.5059 44.3259C30.5293 44.8942 30.5645 45.404 30.582 45.4567C30.5996 45.5095 30.5937 45.5505 30.5645 45.5505C30.4531 45.5505 30.0195 44.6188 29.9023 44.1384C29.8379 43.8688 29.7676 43.3298 29.7441 42.943C29.7031 42.1286 29.8086 41.4782 30.0664 40.8923L30.2246 40.5407L30.2656 41.1559C30.2832 41.4958 30.3477 41.9001 30.4004 42.0641ZM40.1387 41.7829C40.3086 42.7438 40.1504 44.0739 39.7754 44.8884C39.3887 45.7263 39.3887 45.7263 39.4297 44.4313C39.4648 43.4352 39.459 43.236 39.3711 42.9723C39.2773 42.6794 39.2773 42.6618 39.3945 42.4157C39.5586 42.0817 39.6816 41.4489 39.6934 40.9509L39.6992 40.5407L39.875 40.904C39.9687 41.1091 40.0918 41.5016 40.1387 41.7829ZM31.6074 45.8727C31.666 46.3063 31.8887 46.8454 32.1758 47.2614C32.3457 47.5075 32.3457 47.5251 32.3281 48.1696C32.3164 48.527 32.2812 48.9372 32.2461 49.0778C32.2168 49.2184 32.1875 49.4352 32.1875 49.5641C32.1875 49.7634 32.1758 49.7809 32.1055 49.7106C31.9121 49.5114 31.6016 48.9138 31.6016 48.738C31.6016 48.6266 31.5664 48.5388 31.5195 48.5212C31.4141 48.4802 31.2207 47.8473 31.127 47.2497C31.0273 46.5817 31.1504 45.697 31.4199 45.2399L31.5137 45.07L31.5312 45.2692C31.5371 45.3747 31.5723 45.6442 31.6074 45.8727ZM38.668 45.5856C38.8496 46.0778 38.9082 46.7868 38.8145 47.3434C38.7266 47.8708 38.5273 48.4919 38.416 48.5798C38.3691 48.6149 38.3457 48.6735 38.3691 48.7087C38.416 48.7966 38.2227 49.2126 37.9824 49.5348L37.7832 49.7985L37.7422 49.4177C37.7187 49.2067 37.6836 48.6911 37.666 48.2751L37.6309 47.5134L37.8359 47.1618C38.1934 46.57 38.3984 45.8962 38.3984 45.2868C38.3984 44.9821 38.4863 45.07 38.668 45.5856ZM33.4414 48.5095C33.5 48.7028 33.6055 48.9899 33.6699 49.1481L33.793 49.4352L33.8984 49.1833L34.0098 48.9255L34.1211 49.113C34.2266 49.2888 34.2617 49.3005 34.5605 49.3005C34.9297 49.3005 34.918 49.2595 34.7949 49.945C34.748 50.2204 34.707 50.5544 34.707 50.6891V50.9411H34.4082C34.0039 50.9411 33.9102 50.8766 33.8281 50.5309C33.7344 50.1325 33.6523 50.1091 33.6523 50.4723C33.6523 50.7595 33.6465 50.7712 33.5234 50.7302C33.3242 50.6716 33.0898 50.5427 32.9902 50.443C32.7559 50.2145 32.8203 48.9489 33.0957 48.3864C33.1836 48.2048 33.2715 48.0817 33.2949 48.111C33.3184 48.1345 33.3828 48.3161 33.4414 48.5095ZM36.8047 48.404C37.0098 48.8845 37.0684 49.195 37.0625 49.7634C37.0625 50.2614 37.0508 50.3259 36.9219 50.4489C36.8516 50.5251 36.6875 50.6247 36.5703 50.6774L36.3477 50.7653V50.6071C36.3477 50.5134 36.3301 50.3786 36.3066 50.3024C36.2773 50.1852 36.2539 50.2204 36.1602 50.5134C36.043 50.9001 35.9902 50.9411 35.5508 50.9411H35.3105L35.2109 50.3083C35.1582 49.9626 35.0996 49.5934 35.0762 49.488L35.0469 49.3005H35.375C35.6914 49.3005 35.7148 49.2946 35.7676 49.1247C35.8496 48.8962 35.9199 48.902 36.0371 49.154C36.0898 49.2653 36.1484 49.3591 36.1719 49.3591C36.1895 49.3591 36.2949 49.0837 36.4062 48.7438C36.5176 48.404 36.623 48.1286 36.6465 48.1286C36.6641 48.1286 36.7402 48.2516 36.8047 48.404Z" fill="white"/>
<path d="M32.7148 22.9571C32.7148 22.9688 32.8262 23.045 32.9668 23.127C33.4063 23.3848 33.8164 23.7539 34.1211 24.1524C34.5195 24.6856 34.6484 25.043 34.6484 25.6348C34.6484 26.168 34.5898 26.3321 34.3906 26.3321C34.1621 26.3321 33.3008 25.9043 32.8613 25.5704C32.4102 25.2305 32.4688 25.3184 33.1016 25.9512C33.4355 26.2852 33.5293 26.4141 33.5938 26.6543C33.7168 27.1231 33.9219 27.5508 34.2969 28.1192C34.6602 28.6758 34.8418 29.1797 34.918 29.8536C34.9414 30.0469 34.9766 30.1875 35 30.1582C35.0234 30.1348 35.0703 29.9121 35.1055 29.6719C35.2109 28.9688 35.3223 28.6758 35.75 28.0196C35.9727 27.6739 36.1836 27.3223 36.2188 27.2286C36.2539 27.1407 36.3535 26.877 36.4414 26.6543C36.5586 26.3321 36.6816 26.1563 36.9863 25.834C37.4434 25.3536 37.6309 25.1075 37.3438 25.3711C36.8047 25.8516 35.7031 26.4434 35.5391 26.3379C35.3633 26.2325 35.3047 25.7051 35.416 25.2246C35.5625 24.5801 36.1426 23.7657 36.793 23.2969C36.998 23.1504 37.1504 23.0157 37.1387 23.0039C37.127 22.9922 36.752 23.1387 36.3066 23.3321C34.9473 23.918 35.0234 23.9121 33.9922 23.4551C33.4238 23.1973 32.7793 22.9336 32.7324 22.9336C32.7207 22.9336 32.7148 22.9454 32.7148 22.9571Z" fill="white"/>
<path d="M32.6152 32.4141C32.4863 32.502 32.416 32.7129 32.4805 32.8301C32.5098 32.8945 32.5391 33.0762 32.5391 33.2344C32.5391 33.5156 32.5508 33.5391 32.8379 33.7676C33.0078 33.9023 33.1836 34.0078 33.2422 34.0078C33.3887 34.0078 33.4531 34.1133 33.5703 34.5234C33.623 34.7227 33.6875 34.8867 33.7109 34.8867C33.7344 34.8867 33.7695 34.6641 33.7871 34.3945C33.8047 34.1133 33.8633 33.8145 33.916 33.709L34.0156 33.5215L33.5234 33.041C33.0254 32.5547 32.7266 32.3438 32.6152 32.4141Z" fill="white"/>
<path d="M37.0215 32.4961C36.7402 32.7012 36.3945 33.0176 36.1602 33.293C35.9492 33.5332 35.9434 33.5508 36.0313 33.6855C36.084 33.7676 36.1309 34.0254 36.1543 34.3535C36.1719 34.6465 36.207 34.8867 36.2246 34.8867C36.248 34.8867 36.3242 34.6875 36.3945 34.4473C36.5176 34.0371 36.5352 34.0078 36.6875 34.0078C36.9043 34.0078 37.4023 33.5801 37.4023 33.3926C37.4023 33.3164 37.4316 33.123 37.4668 32.9648C37.5313 32.707 37.5254 32.6602 37.4258 32.5254C37.291 32.3379 37.2441 32.3379 37.0215 32.4961Z" fill="white"/>
<path d="M17.832 34.828C17.6563 35.5839 17.7734 36.5272 18.1016 37.1014C18.4648 37.7225 18.8223 37.9921 20.3281 38.7479C20.9844 39.076 21.4883 39.3749 21.6758 39.5389C22.0801 39.8964 22.3027 40.3475 22.4316 41.0507C22.6016 42.0292 22.9883 42.6678 24.0195 43.6757C24.6465 44.2909 24.6523 44.285 24.1133 43.5292C23.6563 42.8905 23.4277 42.4452 23.3047 41.9706C23.2285 41.6718 23.2227 41.537 23.2813 41.0858C23.3984 40.1835 23.293 39.8202 22.7422 39.2401C22.0977 38.5721 21.2422 38.0624 20.0879 37.6757C19.291 37.4003 18.9395 37.2186 18.6699 36.9198C18.3008 36.5038 18.125 35.9764 17.9668 34.7987L17.9199 34.4471L17.832 34.828Z" fill="white"/>
<path d="M51.9746 34.5938C51.9512 34.6759 51.9336 34.8575 51.9336 35.004C51.9277 35.7481 51.5762 36.668 51.1543 37.0255C50.832 37.3067 50.6387 37.4005 49.7949 37.6993C48.6406 38.1094 47.9727 38.4903 47.3164 39.129C46.6895 39.7325 46.5605 40.1192 46.6719 41.0567C46.7188 41.4962 46.7188 41.7012 46.666 41.9415C46.5664 42.3927 46.2617 42.9903 45.8574 43.5352C45.2832 44.3028 45.3125 44.3321 45.9746 43.6641C47.0293 42.5919 47.3281 42.0821 47.5391 41.0098C47.6855 40.2481 47.8145 40.0079 48.3008 39.5509C48.582 39.293 48.8809 39.1114 49.6543 38.7305C51.1133 38.004 51.5879 37.629 51.8984 36.9669C52.0977 36.5333 52.1738 36.1759 52.168 35.6016C52.168 35.004 52.0449 34.3536 51.9746 34.5938Z" fill="white"/>
</g>
<defs>
<clipPath id="clip0_634_369">
<rect width="70" height="70" fill="white"/>
</clipPath>
</defs>
</svg>
