<svg width="70" height="70" viewBox="0 0 70 70" fill="none" xmlns="http://www.w3.org/2000/svg">
<g clip-path="url(#clip0_634_463)">
<path d="M31.192 0.168491C30.912 0.392491 31.01 1.31649 31.304 1.20449C31.402 1.16249 31.71 1.09249 31.976 1.03649C32.62 0.924491 32.69 0.784491 32.382 0.350491C32.102 -0.0275085 31.556 -0.111509 31.192 0.168491Z" fill="black"/>
<path d="M38.738 0.825981C38.514 0.965981 38.08 1.13399 37.758 1.18999C37.282 1.27399 37.226 1.30199 37.45 1.39999C37.716 1.49799 37.702 1.51199 37.38 1.58199C37.184 1.62399 36.694 1.70798 36.274 1.74998C35.588 1.83398 35.49 1.80598 35.224 1.48399C35.056 1.30199 34.706 1.10599 34.44 1.04999C34.034 0.965981 33.978 0.97998 34.132 1.13399C34.622 1.65199 33.95 1.88998 33.32 1.39999C32.984 1.14799 32.97 1.14799 32.69 1.39999C32.466 1.59599 32.018 1.69398 30.562 1.80598C29.554 1.90398 28.42 2.05798 28.042 2.16998C27.118 2.44998 27.104 2.42198 27.972 2.02998C28.406 1.83398 28.7 1.60999 28.7 1.46999C28.7 1.23199 28.602 1.18999 27.832 1.04999C27.342 0.97998 27.3 0.99398 27.3 1.31599C27.3 1.55399 27.146 1.76398 26.852 1.97398C26.6 2.14198 26.362 2.30998 26.334 2.33798C26.306 2.35198 26.362 2.63198 26.46 2.95399C26.628 3.45798 26.698 3.51398 27.034 3.47198C27.258 3.42999 27.384 3.47198 27.342 3.54198C27.188 3.80798 26.306 4.05998 25.592 4.05998C24.864 4.04598 24.85 4.04598 25.27 3.86398L25.69 3.68198L25.172 3.42999C24.738 3.21999 24.584 3.20599 24.276 3.34599C23.842 3.54198 23.688 3.45798 23.94 3.14999C24.038 3.02399 24.094 2.91199 24.066 2.88399C23.996 2.82799 20.468 3.84998 18.76 4.40999C17.122 4.94199 15.064 6.01999 14.168 6.80399C13.426 7.44799 13.384 7.62999 13.93 7.72799C14.084 7.75599 14.21 7.83998 14.21 7.90998C14.224 7.99398 14.28 8.20399 14.336 8.38599L14.448 8.72198L14.63 8.28799C14.854 7.76999 15.246 7.50399 16.31 7.12598C17.178 6.81799 17.388 6.85999 17.038 7.23798C16.786 7.53199 16.324 8.66599 16.17 9.37999L16.072 9.86999L16.492 9.30999C16.716 9.00199 17.29 8.38599 17.766 7.95198C18.48 7.27999 18.62 7.06998 18.634 6.64999C18.648 6.38398 18.662 6.07598 18.676 5.97798C18.704 5.57198 19.67 5.30598 19.992 5.62798C20.118 5.75398 20.006 5.94998 19.53 6.45399C19.18 6.83199 18.9 7.23798 18.9 7.36399C18.9 7.53199 19.068 7.41999 19.46 6.99998C19.922 6.49599 20.062 6.42599 20.384 6.49599C20.804 6.60799 21.28 6.32798 20.972 6.14598C20.874 6.08998 20.832 6.00599 20.86 5.97798C21.168 5.73998 23.086 4.61999 23.212 4.61999C23.45 4.61999 23.562 5.20798 23.394 5.61398C23.324 5.82398 23.016 6.10398 22.722 6.25798C22.428 6.41198 21.7 6.78999 21.098 7.11198C20.244 7.57399 19.866 7.69999 19.32 7.69999C18.732 7.69999 18.62 7.74199 18.62 7.96598C18.62 8.10599 18.718 8.30199 18.83 8.39999C18.942 8.49799 19.04 8.65199 19.04 8.76398C19.04 9.04399 18.326 9.49199 17.556 9.67398C17.178 9.77199 16.38 10.08 15.792 10.388C15.022 10.766 14.7 10.864 14.7 10.724C14.7 10.626 14.854 10.108 15.064 9.58998C15.26 9.05799 15.4 8.46999 15.372 8.27399C15.302 7.68599 14.938 7.83998 14.7 8.56799C14.532 9.11399 14.448 9.21199 14.21 9.15599C14.056 9.11399 13.692 9.18399 13.398 9.30999C13.118 9.42199 12.88 9.47799 12.88 9.42199C12.88 9.36599 13.118 9.07199 13.398 8.76398L13.93 8.21799L13.09 8.80598C12.628 9.14199 11.69 9.78599 10.99 10.262C9.772 11.088 8.12 12.586 8.12 12.838C8.12 12.908 8.302 12.95 8.54 12.908C9.156 12.824 9.086 13.118 8.19 14.21C7.77 14.714 7.42 15.176 7.42 15.204C7.42 15.33 7.574 15.246 8.036 14.84C8.316 14.588 8.554 14.476 8.61 14.546C8.652 14.63 7.952 15.428 7.056 16.31C5.446 17.92 5.432 17.948 5.53 18.452C5.642 19.04 5.88 19.39 5.88 18.956C5.88 18.144 6.496 16.8 6.874 16.8C7.084 16.8 7.014 17.248 6.496 19.264C6.216 20.342 5.95 21.714 5.894 22.33L5.81 23.45L5.292 22.61C4.998 22.148 4.76 21.868 4.76 21.994C4.76 22.12 4.41 22.652 3.99 23.17C3.57 23.674 3.22 24.122 3.22 24.15C3.22 24.164 3.122 24.416 3.01 24.696C2.898 24.976 2.828 25.2 2.856 25.2C2.884 25.2 3.122 24.878 3.374 24.472L3.836 23.758L4.018 24.164C4.27 24.752 4.242 25.228 3.85 27.3C3.5 29.19 3.43 30.366 3.64 30.87C3.752 31.122 3.766 31.122 3.766 30.786C3.78 30.338 4.102 29.89 4.312 30.016C4.522 30.142 4.522 30.996 4.326 31.906C4.116 32.9 3.864 33.012 3.948 32.06L4.018 31.332L3.556 31.402C2.996 31.5 2.996 31.486 2.856 29.61C2.814 28.84 2.716 28.07 2.646 27.888C2.464 27.412 2.128 27.51 2.016 28.07C1.89 28.784 2.044 29.666 2.66 31.57C3.262 33.446 3.458 34.3 3.262 34.3C3.192 34.3 2.94 34.034 2.688 33.712C2.212 33.096 2.142 33.138 2.394 33.852C2.478 34.09 2.618 34.272 2.702 34.258C2.814 34.244 2.87 34.594 2.87 35.462C2.87 36.134 2.842 36.68 2.8 36.68C2.758 36.68 2.52 36.554 2.282 36.4L1.82 36.12L1.834 36.512C1.848 37.296 2.03 38.15 2.17 38.108C2.338 38.052 3.094 41.006 3.528 43.428C3.71 44.394 3.892 45.136 3.934 45.052C4.046 44.87 4.41 45.528 4.55 46.186C4.718 46.942 4.886 46.41 4.816 45.36L4.76 44.45L4.97 45.22C5.096 45.64 5.25 46.662 5.32 47.488C5.39 48.328 5.53 49.294 5.614 49.658L5.782 50.302L6.034 49.994L6.286 49.686L6.482 50.162C6.916 51.198 6.93 51.282 6.552 51.212L6.202 51.142L6.524 51.632C6.706 51.898 6.86 52.262 6.86 52.43C6.86 52.71 7.378 53.34 7.602 53.34C7.658 53.34 7.672 53.172 7.616 52.962C7.574 52.738 7.826 53.088 8.176 53.718C8.526 54.362 8.82 55.02 8.82 55.202C8.82 55.86 9.436 56.756 10.5 57.61C11.074 58.086 11.62 58.604 11.704 58.772C11.858 59.08 13.874 60.998 15.316 62.188C16.366 63.07 18.256 64.33 19.642 65.1C20.286 65.45 20.678 65.744 20.58 65.8C20.426 65.898 24.612 68.292 26.082 68.936C27.678 69.636 29.078 70 30.184 70C30.744 70 31.22 69.958 31.22 69.916C31.22 69.874 31.15 69.72 31.08 69.566C30.982 69.384 30.982 69.3 31.08 69.3C31.15 69.3 31.22 69.188 31.22 69.048C31.22 68.824 31.444 68.81 34.048 68.81C37.1 68.81 38.71 68.614 41.328 67.97C42.112 67.774 42.77 67.62 42.784 67.62C42.812 67.62 42.84 67.914 42.84 68.292C42.84 69.104 43.134 69.58 43.638 69.58H44.002L43.61 69.216C43.288 68.922 43.232 68.782 43.302 68.362C43.4 67.802 43.708 67.41 44.268 67.116C44.632 66.92 44.66 66.934 44.66 67.186C44.66 67.732 45.066 67.76 47.124 67.396C48.188 67.214 49.238 67.018 49.462 66.976C49.798 66.892 49.84 66.92 49.84 67.256C49.84 67.676 49.868 67.69 50.764 67.41C51.142 67.298 51.464 67.2 51.492 67.2C51.506 67.2 51.52 67.424 51.52 67.69C51.52 67.998 51.436 68.222 51.282 68.306C51.142 68.39 51.086 68.46 51.142 68.46C51.338 68.46 52.108 67.872 52.024 67.802C51.982 67.76 52.08 67.536 52.234 67.326L52.514 66.92H51.898C51.548 66.92 51.086 66.878 50.848 66.836C50.47 66.766 50.428 66.71 50.54 66.486C50.624 66.346 50.68 66.024 50.68 65.772V65.296L51.744 65.394L52.808 65.506L53.228 65.03C53.452 64.764 54.124 64.288 54.712 63.952C55.3 63.63 56.014 63.14 56.266 62.874C56.532 62.594 56.7 62.468 56.63 62.58C56.56 62.706 56.63 62.692 56.812 62.524C57.162 62.23 57.246 62.02 56.91 62.3C56.756 62.426 56.7 62.426 56.7 62.314C56.7 62.23 56.798 62.118 56.91 62.076C57.022 62.02 57.12 61.88 57.12 61.74C57.12 61.614 57.302 61.25 57.54 60.928L57.946 60.354L57.204 60.62C56.546 60.844 54.81 61.18 54.306 61.18C54.208 61.18 54.334 60.956 54.6 60.69C54.964 60.312 55.118 60.242 55.314 60.354C55.524 60.466 55.65 60.382 56.014 59.892C56.252 59.556 56.574 59.038 56.728 58.73C57.022 58.156 58.394 56.238 58.786 55.86C58.912 55.734 59.416 55.146 59.92 54.53C60.424 53.914 61.264 52.906 61.796 52.29C63.042 50.834 64.61 48.454 65.52 46.648C66.094 45.486 66.29 45.206 66.5 45.262C66.724 45.318 66.752 45.206 66.808 44.366C66.836 43.848 66.906 43.372 66.948 43.33C67.004 43.274 67.186 43.33 67.368 43.456C67.998 43.904 68.082 43.778 67.97 42.588C67.83 41.076 67.844 40.11 68.026 39.802C68.11 39.662 68.18 39.62 68.18 39.718C68.18 39.928 68.698 40.222 68.88 40.11C68.964 40.054 68.866 39.732 68.67 39.326C68.376 38.766 68.348 38.64 68.53 38.64C68.656 38.64 68.866 38.374 69.02 38.024C69.16 37.688 69.342 37.394 69.426 37.366C69.51 37.324 69.412 36.68 69.16 35.574C68.656 33.502 68.642 33.236 69.034 33.138C69.3 33.068 69.314 33.096 69.23 33.558C69.174 33.908 69.202 34.09 69.328 34.174C69.916 34.552 70.014 34.076 69.58 32.816C69.412 32.368 69.286 31.696 69.286 31.346C69.272 30.73 69.258 30.702 68.922 30.772L68.558 30.842L68.6 28.966C68.67 26.11 68.67 26.096 68.194 25.816C67.844 25.62 67.704 25.326 67.284 23.996C66.668 22.092 65.646 19.782 64.764 18.298C64.414 17.696 64.12 17.108 64.12 17.01C64.12 16.912 63.854 16.52 63.518 16.156C63.196 15.778 62.552 14.994 62.09 14.42C60.956 12.992 58.842 10.906 57.386 9.77199C56.294 8.91799 53.536 7.08398 53.158 6.95798C53.074 6.92999 53.228 6.63599 53.536 6.25798C54.124 5.54398 54.152 5.12399 53.648 4.78799C53.326 4.57799 53.326 4.57799 53.494 4.94199C53.634 5.24998 53.62 5.37598 53.424 5.65598C53.088 6.17398 52.682 6.34198 52.038 6.24398C51.716 6.18798 51.394 6.08998 51.31 6.03399C51.24 5.96398 50.932 5.83798 50.638 5.73998C50.148 5.58598 50.12 5.55798 50.316 5.33398C50.442 5.19398 50.54 5.01199 50.54 4.92799C50.54 4.59199 49.658 3.79398 48.412 2.96799C46.998 2.04398 46.578 1.97398 46.088 2.58998L45.836 2.89799L45.164 2.11398C44.492 1.34399 44.464 1.32999 43.694 1.31599C43.26 1.31599 42.504 1.17599 42 1.02199C41.496 0.867981 40.656 0.699982 40.11 0.643982C39.298 0.587982 39.06 0.615982 38.738 0.825981ZM39.438 0.783981C39.396 0.825981 39.27 0.839981 39.172 0.797981C39.06 0.755981 39.102 0.713982 39.256 0.713982C39.41 0.699982 39.494 0.741982 39.438 0.783981ZM49.392 5.01199C49.588 5.30598 49.588 5.31998 49.154 5.16599C48.72 5.01199 48.636 4.89999 48.818 4.70399C48.958 4.56399 49.168 4.67599 49.392 5.01199ZM12.012 10.388C11.9 10.57 11.536 11.186 11.2 11.76C10.864 12.334 10.57 12.824 10.556 12.852C10.542 12.88 10.374 12.824 10.206 12.726L9.884 12.558L10.262 12.264C10.472 12.096 10.64 11.9 10.64 11.83C10.64 11.676 12.012 10.08 12.138 10.08C12.18 10.08 12.124 10.22 12.012 10.388ZM9.8 18.578C9.646 18.816 9.646 18.816 9.716 18.578C9.758 18.438 9.8 18.242 9.814 18.158C9.814 18.032 9.842 18.032 9.884 18.158C9.926 18.256 9.884 18.438 9.8 18.578ZM11.62 19.446C11.62 19.516 11.522 19.642 11.41 19.74C11.242 19.88 11.2 19.88 11.2 19.712C11.2 19.6 11.242 19.46 11.298 19.418C11.424 19.278 11.62 19.292 11.62 19.446ZM9.94 19.796C9.94 19.824 9.982 19.95 10.024 20.062C10.066 20.188 9.884 20.426 9.548 20.692L9.016 21.126L9.226 20.426C9.38 19.936 9.506 19.74 9.688 19.74C9.828 19.74 9.94 19.768 9.94 19.796ZM10.598 20.384C10.514 20.678 9.982 21.602 9.422 22.428C8.862 23.268 8.134 24.458 7.812 25.088L7.21 26.25L7.168 24.262C7.14 22.386 7.154 22.246 7.448 21.91C7.616 21.714 7.826 21.56 7.938 21.56C8.036 21.56 8.218 21.406 8.344 21.21C8.596 20.818 8.82 20.86 8.82 21.294C8.82 21.924 9.898 21.196 10.388 20.258C10.724 19.586 10.822 19.642 10.598 20.384ZM68.46 27.496C68.46 28.112 68.222 27.762 68.124 27.02C68.04 26.418 68.04 26.404 68.236 26.74C68.362 26.936 68.446 27.272 68.46 27.496ZM6.384 27.286C6.496 27.188 6.622 27.16 6.678 27.202C6.818 27.342 6.146 28.84 5.936 28.84C5.544 28.84 5.236 27.664 5.474 27.048L5.614 26.67L5.908 27.062C6.132 27.37 6.23 27.412 6.384 27.286ZM47.18 66.15C47.18 66.29 47.04 66.36 46.732 66.36L46.27 66.346L46.62 66.15C47.068 65.898 47.18 65.898 47.18 66.15ZM45.948 67.158C46.144 67.41 45.71 67.55 45.248 67.396C44.716 67.214 44.716 66.948 45.248 66.724C45.668 66.542 45.71 66.542 45.766 66.752C45.794 66.878 45.878 67.074 45.948 67.158ZM30.73 68.754C30.926 68.95 30.226 68.894 29.75 68.684C29.33 68.488 29.344 68.488 29.96 68.558C30.31 68.6 30.646 68.684 30.73 68.754Z" fill="black"/>
<path d="M35.742 1.21826C35.952 1.24626 36.288 1.24626 36.512 1.21826C36.722 1.19026 36.54 1.16226 36.12 1.16226C35.7 1.16226 35.518 1.19026 35.742 1.21826Z" fill="black"/>
<path d="M50.932 4.95626C51.1 5.18026 51.24 5.47426 51.24 5.62826C51.24 5.78226 51.31 5.85226 51.38 5.81026C51.66 5.64226 51.506 5.19426 51.072 4.87226L50.61 4.55026L50.932 4.95626Z" fill="black"/>
<path d="M4.648 18.8023C4.326 19.1523 4.256 19.5303 4.48 19.6703C4.564 19.7123 4.62 19.8943 4.62 20.0623C4.634 20.3702 4.634 20.3702 4.844 20.0903C5.026 19.8383 5.026 19.8103 4.844 19.7683C4.564 19.7123 4.564 19.7123 4.83 19.0823C5.096 18.4663 5.04 18.3823 4.648 18.8023Z" fill="black"/>
<path d="M2.31 20.7768C2.128 21.2528 2.114 21.4488 2.226 21.6868C2.52 22.2048 2.66 21.9948 2.66 21.0708C2.66 20.5668 2.632 20.1608 2.604 20.1608C2.576 20.1608 2.436 20.4408 2.31 20.7768Z" fill="black"/>
<path d="M1.638 23.1003C1.414 23.4923 1.19 23.8003 1.134 23.8003C0.993999 23.8003 0.615999 23.3663 0.531999 23.1003C0.489999 22.9883 0.433999 23.1283 0.405999 23.4083C0.363999 23.6883 0.391999 23.8843 0.447999 23.8563C0.503999 23.8143 0.559999 24.0103 0.559999 24.2763C0.559999 24.5563 0.629999 24.7803 0.699999 24.7803C0.783999 24.7803 0.839999 24.7243 0.839999 24.6543C0.839999 24.5703 1.218 24.2203 1.68 23.8703C2.506 23.2263 2.688 22.9043 2.352 22.5683C2.1 22.3163 2.058 22.3443 1.638 23.1003Z" fill="black"/>
<path d="M0.699997 25.6207C0.699997 25.7047 0.797997 25.7607 0.909997 25.7607C1.176 25.7607 1.176 25.6767 0.909997 25.5647C0.797997 25.5227 0.699997 25.5507 0.699997 25.6207Z" fill="black"/>
<path d="M67.788 44.1703C67.634 44.5203 67.55 46.3263 67.69 46.1723C67.774 46.0883 68.068 43.9463 67.998 43.8763C67.97 43.8483 67.872 43.9743 67.788 44.1703Z" fill="black"/>
<path d="M64.806 49.1684C64.68 49.6444 64.54 50.1484 64.484 50.2744C64.33 50.6104 65.002 50.4564 65.352 50.0644C65.842 49.5464 65.856 49.2104 65.422 48.7204L65.016 48.2724L64.806 49.1684Z" fill="black"/>
<path d="M63.98 50.9742C63.882 51.1282 63.84 51.2962 63.882 51.3242C63.91 51.3522 64.008 51.2262 64.092 51.0302C64.288 50.6102 64.19 50.5682 63.98 50.9742Z" fill="black"/>
<path d="M63.434 52.3887C63.126 53.3127 63.168 53.3127 63.756 52.4307L64.12 51.8707V52.4307C64.106 52.7387 64.022 53.1447 63.91 53.3407C63.406 54.2227 63.826 54.6147 64.596 53.9987C64.946 53.7047 64.974 53.6347 64.834 53.3547C64.722 53.1727 64.694 52.8227 64.764 52.4307C64.848 51.8427 64.834 51.8007 64.47 51.6607C63.84 51.4227 63.742 51.4927 63.434 52.3887Z" fill="black"/>
<path d="M60.774 55.5239C60.774 55.6919 60.41 56.2099 59.99 56.6859C59.248 57.5119 59.052 57.9879 59.36 58.1699C59.612 58.3239 59.514 58.4919 59.122 58.5899L58.73 58.7019L59.136 58.8139C59.416 58.8979 59.626 58.8559 59.878 58.7019L60.228 58.4639L59.906 58.2399C59.416 57.8619 59.64 57.5399 60.41 57.5399H61.04L61.026 56.9379C61.026 56.2799 60.802 55.0619 60.774 55.5239Z" fill="black"/>
<path d="M62.37 55.5942C62.314 55.6782 62.3 55.7622 62.342 55.8042C62.37 55.8462 62.44 55.7762 62.482 55.6502C62.58 55.4122 62.496 55.3702 62.37 55.5942Z" fill="black"/>
<path d="M61.81 56.7982C61.6 57.1342 61.46 57.4422 61.488 57.4702C61.502 57.4842 61.726 57.5542 61.964 57.5962C62.342 57.6802 62.454 57.6382 62.706 57.3162C63.098 56.8262 63.084 56.6722 62.58 56.3922L62.174 56.1682L61.81 56.7982Z" fill="black"/>
<path d="M58.786 59.5985L58.31 60.1025L58.758 59.7945C59.234 59.4725 59.43 59.2485 59.332 59.1365C59.304 59.1085 59.052 59.3185 58.786 59.5985Z" fill="black"/>
<path d="M52.85 66.6403C52.808 66.7103 52.836 66.7803 52.906 66.7803C52.99 66.7803 53.06 66.7103 53.06 66.6403C53.06 66.5563 53.032 66.5003 53.004 66.5003C52.962 66.5003 52.892 66.5563 52.85 66.6403Z" fill="black"/>
<path d="M48.37 68.1939C47.782 68.7959 47.726 68.8939 48.02 68.8099C48.622 68.6419 49.21 68.2499 49.252 67.9839C49.364 67.4239 49.028 67.5079 48.37 68.1939Z" fill="black"/>
<path d="M45.57 68.0399L45.01 68.2919L45.542 68.3059C45.892 68.3199 46.102 68.2499 46.158 68.1099C46.284 67.7739 46.172 67.7599 45.57 68.0399Z" fill="black"/>
<path d="M37.17 69.0203C35.784 69.1603 33.992 69.2863 33.18 69.3003L31.71 69.3283L33.11 69.5943C33.908 69.7623 35.434 69.9023 36.68 69.9583L38.85 70.0283L38.5 69.7483L38.15 69.4683L38.5 69.3143C38.696 69.2443 39.354 69.1323 39.97 69.0763C40.796 69.0063 40.992 68.9503 40.74 68.8663C40.25 68.7263 40.026 68.7403 37.17 69.0203Z" fill="black"/>
<path d="M45.4648 14.9709C44.8086 15.0939 44.2871 15.5217 43.5898 16.506C43.2383 17.0041 42.8398 17.4553 42.3066 17.9826C41.4805 18.7912 41.3984 18.8967 41.3984 19.1779C41.3984 19.2775 41.3867 19.3596 41.3691 19.3596C41.3516 19.3596 41.082 19.2892 40.7715 19.2072C40.2793 19.0783 40.1211 19.0607 39.6523 19.09C39.3594 19.1076 39.0547 19.1017 38.9785 19.0724C38.9082 19.0431 38.668 18.8849 38.4395 18.715C37.8066 18.2404 37.3672 18.0529 36.8047 18.0236L36.3301 18.0002L36.5352 18.2228C36.6465 18.3517 36.9512 18.674 37.209 18.9435C37.4668 19.2131 37.6543 19.424 37.6191 19.4123C37.5898 19.4006 36.8223 19.0959 35.9199 18.7326C33.9629 17.9533 32.3809 17.4084 31.6133 17.2502C31.2207 17.174 30.5938 17.1213 29.4746 17.0803C28.6074 17.0451 27.7344 17.0041 27.541 16.9806C26.6328 16.8986 25.7715 16.6642 24.6113 16.1955C23.75 15.8439 23.3984 15.7736 22.502 15.7619C21.7461 15.7502 21.6406 15.7385 21.1426 15.5627C20.8496 15.4572 20.4395 15.3576 20.2344 15.34L19.8652 15.3049L20.2754 15.5392C20.5039 15.6623 20.9258 15.9318 21.2129 16.1428L21.7402 16.5178L22.2969 16.5002C23.0176 16.4767 23.5684 16.6174 24.3535 17.0217C24.9863 17.3439 25.3672 17.6135 27.7637 19.3888L29.2637 20.5021L29.0469 20.5666C28.7305 20.6603 28.4609 20.8068 28.0918 21.0998C27.5176 21.551 27.3125 21.5451 26.5449 21.0529C26.1055 20.7775 26.0586 20.7599 25.7656 20.7834C25.4844 20.801 25.4551 20.7951 25.4258 20.6721C25.3203 20.2502 25.543 20.0978 26.2812 20.092C26.5566 20.092 26.8613 20.1154 26.9551 20.1388L27.1309 20.1857L26.9551 20.0627C26.6035 19.8224 26.0703 19.6935 25.5723 19.7228C25.1445 19.7463 25.0449 19.7814 24.3887 20.1037C23.5449 20.5197 23.4219 20.5666 22.7656 20.6486C22.2207 20.7248 21.8574 20.8537 21.6875 21.0529L21.5762 21.176L21.7461 21.1408C22.1387 21.0646 23.8789 22.3713 24.3359 23.0803C24.5293 23.3791 24.5352 23.7424 24.3535 24.3517L24.2188 24.797L23.416 24.7678C22.4727 24.7326 21.8164 24.8263 20.9199 25.131C20.1934 25.3713 18.1719 26.2795 18.2363 26.3322C18.2598 26.3556 18.4707 26.4025 18.6934 26.4435C19.9238 26.672 21.0547 27.258 21.5352 27.926C21.8516 28.3595 21.7109 28.6935 21.1895 28.7697C20.5215 28.8635 20.5625 29.0802 21.3301 29.5021C21.5234 29.6076 21.9629 29.8713 22.3027 30.0939C22.8887 30.4689 22.9648 30.5041 23.5918 30.633C24.6641 30.8615 25.1328 31.0783 25.0977 31.3361C25.0801 31.4416 24.9219 31.5119 23.9961 31.8283C22.5547 32.3146 22.168 32.3908 21.2773 32.3498C20.6914 32.3263 20.4043 32.2795 19.6309 32.0744C18.834 31.8576 18.582 31.8166 17.9609 31.7931C17.1934 31.7697 16.5605 31.8635 16.3906 32.0392C16.3262 32.1037 16.3613 32.1095 16.6191 32.0685C17.2578 31.9689 18.4941 32.2853 18.7754 32.6252C18.9863 32.8771 18.623 33.2111 18.043 33.3049C17.8438 33.34 17.6562 33.4103 17.5742 33.4865C17.498 33.5627 17.3633 33.8674 17.2285 34.2892C16.918 35.2502 16.8477 35.3791 16.2559 35.9416C15.793 36.3869 15.7109 36.4924 15.5293 36.9318L15.3242 37.424L15.541 37.2599C16.291 36.6974 16.748 36.3224 16.9062 36.1291C17.0117 36.0119 17.1875 35.672 17.3105 35.3849C17.6797 34.4826 17.9844 34.131 18.582 33.8908C18.7754 33.8146 19.1445 33.6154 19.4082 33.4396C20.0762 33.006 20.1055 33.0002 20.8672 33.3576C21.5938 33.6916 21.8809 33.7677 22.3965 33.7736C22.8945 33.7736 23.2812 33.6799 23.5332 33.4924C23.6504 33.4045 24.2129 32.9181 24.7812 32.4084C25.5898 31.6818 25.8477 31.4181 25.9648 31.1779C26.1875 30.7385 26.791 29.7541 27.0488 29.4025C27.2539 29.1271 27.2949 29.0978 27.541 29.0744C27.6875 29.0627 27.8047 29.0627 27.8047 29.0744C27.8047 29.0861 27.6641 29.2678 27.4941 29.4728C27.2305 29.7892 27.1484 29.9474 26.9902 30.4513C26.8906 30.7795 26.8086 31.1076 26.8086 31.1779C26.8086 31.301 27.207 31.6349 27.9043 32.0978L28.1504 32.2619L28.4609 32.1623C28.8594 32.0334 28.9824 31.922 28.9414 31.7463C28.9062 31.6174 28.918 31.6174 29.1113 31.676C29.375 31.758 29.5039 31.7052 29.5039 31.5236C29.5039 31.4299 29.6328 31.2424 29.8848 30.967C30.0957 30.7385 30.2656 30.5158 30.2656 30.4748C30.2656 30.299 30.0664 29.7541 29.8789 29.4142C29.7676 29.2092 29.6797 28.9806 29.6797 28.8928C29.6797 28.676 29.9023 28.1135 30.1191 27.7678C30.4414 27.2638 31.25 26.5607 31.6133 26.467C31.7773 26.426 31.8418 26.3615 31.9473 26.1447C32.0176 25.9982 32.1055 25.8576 32.1406 25.8342C32.1758 25.8107 32.3926 25.84 32.627 25.8928C33.2129 26.0275 33.3711 25.9689 33.3711 25.6115V25.3537L33.9629 25.3127C34.291 25.2951 34.625 25.2599 34.707 25.2365C34.8418 25.2013 34.8535 25.2131 34.8125 25.3713C34.5723 26.4084 34.5078 26.6662 34.4668 26.7248C34.4434 26.7599 34.1094 26.9006 33.7168 27.0412C33.1367 27.2463 32.9961 27.3166 32.9316 27.4455C32.7148 27.8674 32.4336 29.2385 32.4336 29.8888V30.2521L31.8652 30.5568C30.7227 31.1662 30.2832 31.4299 29.7969 31.8107C28.9297 32.4904 28.6602 32.5842 26.9785 32.801C25.7891 32.9592 25.3906 33.047 24.7871 33.2873C24.3887 33.4455 24.377 33.4572 24.3359 33.6974C24.2773 34.0373 24.1484 34.2951 23.7852 34.7931C23.6152 35.0217 23.5039 35.2209 23.5332 35.2267C23.6914 35.2853 24.1895 35.092 24.4238 34.881C24.6582 34.6818 24.6875 34.6174 24.7285 34.3302L24.7637 34.008L25.0684 33.9201C25.4316 33.8205 26.4277 33.6213 26.8379 33.5744L27.1309 33.5392L26.9258 33.6506C26.8145 33.715 26.5566 33.8263 26.3574 33.8908C26.0938 33.9787 25.9355 34.0842 25.7656 34.2658C25.4902 34.5588 25.3555 34.7814 25.4727 34.7404C25.5723 34.7052 27.541 34.2424 27.5879 34.2424C27.6113 34.2424 27.4473 34.4181 27.2246 34.6349C26.9961 34.8693 26.791 35.1271 26.75 35.2502C26.7031 35.3732 26.627 35.4845 26.5801 35.5021C26.5273 35.5256 25.8828 35.7482 25.1387 36.0119C22.5312 36.9201 21.9395 37.2248 20.7031 38.2912C20.1582 38.7599 19.7422 39.0236 19.3438 39.1467C19.1621 39.2052 19.0156 39.2697 19.0156 39.2931C19.0156 39.3869 19.877 39.4045 20.2988 39.3166C21.084 39.1525 21.5176 38.883 22.8652 37.7404C23.75 36.9845 24.0195 36.9904 25.291 37.7931C25.5664 37.9689 25.8418 38.1095 25.8945 38.1095C26.0352 38.1095 26.4102 37.9103 26.9609 37.5529C27.5586 37.1545 28.25 36.4338 28.5664 35.8771C28.7012 35.6369 28.7949 35.4963 28.7773 35.5607C28.7598 35.6252 28.7012 35.8771 28.6543 36.1174L28.5605 36.5568L28.0273 37.0607C27.5703 37.4943 27.5 37.5881 27.5293 37.7052C27.6641 38.1974 27.6523 38.2736 27.4121 38.5021C27.2891 38.6252 27.0957 38.7892 26.9902 38.8713C26.8145 39.006 26.7852 39.0588 26.7617 39.3576C26.75 39.5392 26.6973 39.7209 26.6562 39.756C26.6094 39.7912 26.3867 39.8205 26.1465 39.8146C25.7539 39.8088 25.7012 39.8205 25.5723 39.9611C25.4961 40.0431 25.3262 40.1662 25.1973 40.2248C24.9219 40.3537 24.7578 40.5939 24.7578 40.8576C24.7578 41.0099 24.7344 41.0392 24.6113 41.0392C24.5176 41.0392 24.3242 41.1623 24.084 41.3674C23.7148 41.672 23.6855 41.6896 23.5156 41.631C23.0996 41.4845 22.6602 41.59 22.4258 41.8888C22.3203 42.0177 22.2617 42.0353 21.9102 42.0412C21.6875 42.0412 21.459 42.0646 21.4004 42.0881C21.3066 42.1232 21.3242 42.1525 21.5293 42.3166C21.6641 42.422 21.7695 42.5275 21.7695 42.551C21.7695 42.6095 20.9551 44.0978 20.4629 44.9357C19.8359 46.0021 19.1211 47.0744 18.7812 47.4435C18.4824 47.7717 18.4707 47.7775 18.1426 47.7775C17.7266 47.7775 17.3867 47.9592 17.2461 48.2463C17.1875 48.3635 17.0996 48.674 17.0527 48.9435C16.918 49.6291 16.7891 49.8693 16.291 50.3439C15.9219 50.6955 15.8398 50.8068 15.7637 51.0822C15.6523 51.4572 15.6348 52.2189 15.7285 52.5588C15.8047 52.84 16.0859 53.2502 16.2676 53.3498C16.9414 53.7072 17.5156 53.3732 17.8145 52.4533C18.0312 51.8029 18.2363 51.4455 18.6992 50.9474C18.9395 50.6896 19.1035 50.4494 19.1445 50.3146C19.1738 50.1916 19.3496 49.9045 19.5312 49.6818C20.0176 49.0724 21.3242 47.7541 21.8223 47.3791L22.2559 47.0451L22.6719 47.0568L23.082 47.0685L23.6621 46.6291C24.1777 46.2365 24.623 45.9611 24.7344 45.9611C24.7578 45.9611 24.7637 46.301 24.7461 46.7228C24.7285 47.2619 24.7402 47.4845 24.7812 47.4845C24.957 47.4845 25.1152 47.2795 25.2266 46.9045C25.3555 46.4709 25.4785 46.2951 25.543 46.465C25.6016 46.6174 25.7246 46.5236 25.707 46.3361C25.6953 46.2424 25.7188 46.0431 25.748 45.9025C25.8008 45.6799 25.7949 45.6271 25.707 45.5627C25.6191 45.4982 25.625 45.4806 25.7656 45.3459C25.8594 45.258 25.9121 45.1642 25.8945 45.1115C25.8711 45.0646 25.8652 45.0236 25.877 45.0236C25.959 45.0236 27.1133 44.672 27.2188 44.6135C27.2949 44.5724 27.5762 44.3732 27.8398 44.174C28.1035 43.9689 28.543 43.6701 28.8242 43.5002C29.0996 43.3302 29.3281 43.1838 29.3281 43.1779C29.3281 43.172 29.1348 43.2013 28.9062 43.2424C28.4551 43.3244 27.4238 43.3361 27.1309 43.2717C26.9902 43.2365 27.0547 43.2189 27.4238 43.1838C28.4668 43.09 29.8262 42.7736 30.5176 42.4631C30.8984 42.2873 31.2031 41.9826 31.2031 41.7658C31.2031 41.4025 31.5781 41.0158 32.4336 40.4826C33.1484 40.0431 34.1562 39.5627 34.8652 39.3283L35.4277 39.1408L35.8086 39.5217C36.2832 39.9845 36.8574 40.7404 37.1562 41.2853C37.3262 41.5959 37.4492 41.7424 37.6426 41.8595L37.9004 42.0236L37.584 42.1115C36.8223 42.3283 36.7344 42.34 36.2129 42.3049C35.4629 42.258 35.2988 42.3166 35.0176 42.7267C34.8945 42.9142 34.6836 43.1662 34.5488 43.2834C34.0742 43.7111 32.832 44.426 31.8945 44.8127L31.3906 45.0236L31.0566 44.8713C30.7578 44.7306 30.6699 44.7189 30.207 44.7424C29.2988 44.7834 28.8887 45.1174 28.5137 46.131C28.3145 46.676 28.0156 47.2267 27.7871 47.4787C27.7168 47.5549 27.4648 47.7599 27.2305 47.9357C26.5156 48.4689 26.1934 49.0959 26.1992 49.9455C26.2051 50.7365 26.7324 51.2814 27.3301 51.1174C27.6875 51.0236 27.9512 50.7541 28.25 50.1799C28.5137 49.6642 28.7363 49.4123 29.5684 48.7092C29.7676 48.5392 29.9609 48.299 30.0781 48.0881C30.2598 47.7424 30.2715 47.7365 30.8926 47.4435C31.7188 47.0568 32.5918 46.7814 33.1191 46.7404C33.4414 46.717 33.6523 46.7345 34.0566 46.84C34.6895 47.0041 35.2812 46.9806 36.4766 46.758C36.9102 46.676 37.4141 46.5998 37.5898 46.5939L37.9121 46.5763L37.8945 47.0744C37.8594 47.8595 37.9941 48.047 38.6504 48.1232C38.9902 48.1642 39.002 48.1642 38.9668 48.047C38.8906 47.8068 38.8613 47.0744 38.9258 47.0744C38.9609 47.0744 39.002 47.1213 39.0195 47.1799C39.0664 47.3205 39.4062 47.8537 39.4355 47.8302C39.4473 47.8185 39.418 47.6486 39.3711 47.4552C39.248 46.9338 39.2656 46.5119 39.4062 46.3713C39.4707 46.3068 39.541 46.2541 39.5703 46.2541C39.9102 46.2482 41.6211 46.0724 41.7969 46.0256C42.1602 45.926 42.5762 45.6154 42.7754 45.2931C42.9277 45.0412 42.9512 44.9357 42.9746 44.5138C42.9922 43.9689 42.9395 43.6877 42.6758 43.0197L42.5 42.5685L40.9355 41.5314C39.3359 40.4709 38.0586 39.5861 38.0586 39.5392C38.0586 39.5275 38.1172 39.551 38.1934 39.5978C38.2637 39.6388 38.7969 39.9494 39.377 40.2775C40.6543 41.0099 41.5273 41.5197 42.0723 41.8654C42.5938 42.1994 43.1562 42.5158 43.1562 42.4748C43.1562 42.4572 42.8926 41.924 42.5762 41.2853L41.9902 40.131L41.2695 39.7092C40.8711 39.4806 40.4609 39.2521 40.3613 39.1994C40.2559 39.1467 40.168 39.0939 40.168 39.0881C40.168 39.0588 41.0527 39.1584 41.3984 39.2287C41.5801 39.2638 41.832 39.3693 41.9785 39.4689L42.2363 39.6506L41.9492 39.1291C41.7969 38.842 41.4629 38.2443 41.2168 37.799C40.9648 37.3595 40.7949 37.0138 40.8301 37.0373C40.8711 37.0549 41.0176 37.172 41.1641 37.2892C41.3105 37.4064 41.6445 37.6584 41.9141 37.8459C42.8223 38.4904 43.0391 38.8361 43.0918 39.7209C43.1328 40.3654 43.2031 40.5177 43.7363 41.0978C43.9766 41.3556 43.9824 41.3615 43.877 41.1564C43.8008 41.0099 43.7715 40.8166 43.7715 40.4533C43.7715 40.0021 43.7949 39.9084 43.9941 39.4689C44.1289 39.1701 44.2109 38.8947 44.2109 38.7482C44.2109 38.133 43.6367 37.5881 41.3867 36.0646C41.0352 35.8302 40.7539 35.6252 40.7539 35.6076C40.7539 35.5959 40.9766 35.7013 41.252 35.8478C41.5273 35.9943 41.7617 36.1174 41.7793 36.1174C41.791 36.1174 41.7207 35.883 41.6211 35.59L41.4453 35.0627L41.1758 34.9806C41.0234 34.9338 40.2031 34.6877 39.3477 34.424C38.4922 34.1662 37.4902 33.8615 37.1211 33.7502L36.4473 33.5392L32.873 33.5334C28.8652 33.5217 29.1758 33.4572 33.5762 33.3869L36.1543 33.3459L35.627 33.1818C34.7129 32.9006 34.2207 32.7306 34.291 32.7248C34.332 32.7189 34.9648 32.8771 35.6973 33.0705C37.7656 33.6154 38.7383 33.8205 39.1133 33.7912C39.2891 33.7795 39.5703 33.8088 39.7285 33.8498C39.9629 33.9142 40.0156 33.9552 40.0039 34.0431C39.9453 34.383 39.9336 34.3713 40.6602 34.6642C41.041 34.8224 41.3691 34.9396 41.3809 34.9279C41.3926 34.9162 41.2812 34.7404 41.1289 34.5353C40.8477 34.1545 40.8477 34.1603 41.123 34.0021C41.1992 33.9611 41.2227 33.8849 41.2109 33.756C41.1992 33.6095 41.1582 33.5685 41.0059 33.5275C40.9004 33.4982 40.8125 33.4513 40.8125 33.4162C40.8125 33.381 40.8887 33.176 40.9824 32.965C41.0703 32.7482 41.1641 32.5256 41.1875 32.467C41.2285 32.3439 41.1758 32.3146 42.4238 33.2404L43.0098 33.6681L43.4199 33.6213C44.2637 33.5217 44.3574 33.5392 45.0371 33.9318C45.7578 34.3478 46.0977 34.4767 46.4902 34.4767C46.8359 34.4767 47.1406 34.4181 47.1406 34.3595C47.1406 34.2892 44.7148 32.9006 44.2578 32.7072L43.8594 32.5373L43.4961 32.6369C42.8984 32.7892 42.7168 32.7189 41.8496 32.0275L41.4512 31.7111L41.4688 31.4123L41.4863 31.1135L42.0078 30.8908C42.2949 30.7677 42.6055 30.6095 42.7051 30.5392C42.8691 30.422 43.7539 29.1447 43.707 29.092C43.6953 29.0803 43.6367 29.1095 43.584 29.1623C43.4609 29.2678 41.5684 30.3342 41.5449 30.3049C41.5332 30.2931 41.9492 29.9826 42.4648 29.6193C43.5312 28.8517 44.5801 28.0256 44.9785 27.6388L45.248 27.381L46.0039 28.172C46.4141 28.6056 46.9473 29.1271 47.1816 29.3263C47.6211 29.7013 47.8965 30.0705 48.0137 30.4396C48.125 30.7912 48.2246 30.8381 48.6641 30.7736C48.9512 30.7326 49.1035 30.7385 49.2793 30.797C49.4961 30.8674 49.5312 30.9142 49.9238 31.676C50.1465 32.1213 50.3516 32.4845 50.3691 32.4845C50.4102 32.4845 50.5391 31.9338 50.5391 31.7463C50.5391 31.5646 50.5801 31.5705 50.832 31.7814C50.9434 31.881 51.0664 31.9572 51.1074 31.9572C51.2363 31.9572 52.7773 32.6838 53.1172 32.9006C53.5977 33.2111 54.1543 33.6916 54.3184 33.9377C54.3945 34.0549 54.5 34.342 54.5469 34.5763C54.6055 34.8342 54.752 35.2092 54.9336 35.5549C55.0918 35.8654 55.2266 36.1701 55.2266 36.2345C55.2266 36.381 55.4375 36.3927 55.5137 36.2463C55.6367 36.0177 55.6484 35.7072 55.5547 35.467L55.4551 35.2267L55.8828 35.2502C56.252 35.2677 56.3516 35.297 56.6152 35.4728C56.7852 35.5842 57.043 35.7541 57.1953 35.8478C57.4297 35.9943 57.5059 36.0939 57.6934 36.4982C57.9512 37.049 58.0918 37.2013 58.2734 37.1427C58.3906 37.1076 58.3965 37.0724 58.3672 36.8674C58.3438 36.7385 58.2324 36.4455 58.1211 36.217C58.0039 35.9826 57.9336 35.8185 57.9629 35.8537C57.9922 35.883 58.1387 36.0646 58.2969 36.2463C58.5723 36.5802 58.7188 36.6623 58.7773 36.5099C58.8066 36.4279 58.7422 36.2287 58.5137 35.6486L58.3789 35.3263L58.5488 35.4787C58.748 35.6662 58.9766 35.7482 58.9766 35.6369C58.9766 35.508 58.2441 34.5705 57.9688 34.3361C57.8223 34.2131 57.3359 33.9201 56.8906 33.6857C56.082 33.258 55.9121 33.1291 56.1758 33.1291C56.498 33.1232 56.4688 33.0353 56.041 32.6896C54.6289 31.547 53.5039 30.3927 53.2109 29.7951C53.0645 29.4904 52.9941 29.4025 52.8828 29.3908C52.7129 29.3732 52.3906 29.5724 51.875 30.0236L51.5059 30.3459L51.8223 29.9416C52.1973 29.467 52.1973 29.4553 51.6348 29.1154C51.4238 28.9865 51.2539 28.881 51.2598 28.8693C51.2715 28.8635 51.4648 28.8986 51.6992 28.9455C52.168 29.0392 52.7129 29.0334 52.748 28.9338C52.7598 28.8986 52.6367 28.84 52.4492 28.8049C52.1855 28.7521 52.0273 28.6642 51.5996 28.3185C51.3066 28.09 51.0664 27.8615 51.0664 27.8146C51.0664 27.674 50.9844 27.7678 50.498 28.4826C50.2344 28.8635 49.9297 29.2795 49.8125 29.4084L49.6016 29.6427L49.7715 29.3498C49.8652 29.1857 50.0762 28.8342 50.2402 28.5646C50.4043 28.2951 50.5391 28.049 50.5391 28.0256C50.5391 28.0021 50.4395 27.9728 50.3223 27.9611L50.0996 27.9435L50.3457 27.797C50.6211 27.633 50.6504 27.5685 50.4922 27.4279C50.3516 27.299 49.959 27.1408 49.8945 27.1818C49.8652 27.1994 49.7305 27.3986 49.5957 27.6271C49.4609 27.8498 49.3379 28.0256 49.3262 28.008C49.3086 27.9963 49.3906 27.7736 49.5078 27.5158C49.625 27.258 49.7188 27.0295 49.7188 27.006C49.7188 26.965 49.5898 26.9767 49.0098 27.0705C48.8457 27.0998 48.752 27.0705 48.5879 26.9592C48.4648 26.8771 48.166 26.7599 47.9141 26.7013L47.4629 26.5959L47.873 26.5549C48.2422 26.5197 48.3125 26.5256 48.5586 26.6545C48.7109 26.7365 48.9219 26.801 49.0273 26.801H49.2148L48.9746 26.549C48.6641 26.2267 48.5469 25.9865 48.5469 25.6584C48.5469 25.5119 48.5352 25.3947 48.5176 25.3947C48.5 25.3947 47.0352 25.881 45.2539 26.4787C43.4785 27.0763 42.0195 27.5568 42.0078 27.5451C42.002 27.5392 42.5645 27.2697 43.2617 26.9533C45.7637 25.8107 46.4785 25.4709 47.3574 25.0021C47.8496 24.7443 48.2656 24.5451 48.2773 24.5627C48.2949 24.5803 48.2949 24.6916 48.2773 24.8088C48.2188 25.1662 48.3477 25.1428 48.6055 24.7443C48.7344 24.5451 48.8398 24.3517 48.8398 24.3107C48.8398 24.2756 48.7344 24.1467 48.6055 24.0236C48.4707 23.9006 48.3711 23.7541 48.3711 23.6838C48.3711 23.5314 47.8906 23.051 47.7383 23.051C47.6855 23.051 47.3809 23.2853 47.0645 23.5666C46.7539 23.8537 46.3496 24.1584 46.168 24.2463C45.7109 24.4748 45.1426 24.5803 44.7852 24.5158C44.4512 24.4513 44.3398 24.3928 43.5195 23.8888C42.418 23.2092 42.0781 22.9572 41.4395 22.3478C40.877 21.8146 39.916 20.7775 40.1973 21.006C40.2617 21.0588 40.7363 21.4689 41.252 21.9084C42.3535 22.8576 42.6406 23.051 43.6543 23.5549C45.166 24.299 45.5938 24.2697 46.8652 23.3381C47.1172 23.1506 47.4043 22.9806 47.4922 22.9631C47.7559 22.9045 47.791 22.8224 47.6914 22.4767C47.5332 21.9494 47.5625 21.9025 48.2539 21.4748C48.9102 21.0646 49.6895 20.3556 49.7539 20.1037C49.7773 19.9924 49.6895 19.7228 49.4082 19.0842C49.1973 18.6096 48.957 18.0471 48.8691 17.8361C48.3242 16.5353 47.7969 15.7971 47.0703 15.34C46.584 15.0295 45.9277 14.8771 45.4648 14.9709ZM28.7129 18.0763C29.5566 18.1467 30.1367 18.3283 31.0391 18.7971C31.7656 19.1721 31.9121 19.1896 32.9492 19.0373C33.6465 18.9318 34.0801 18.9787 34.5195 19.2013C34.8535 19.3713 36.3242 20.4787 36.3125 20.5549C36.3125 20.5842 35.8262 20.8361 35.2344 21.1232C34.1504 21.6388 34.0625 21.6974 33.7637 22.0549L33.5996 22.2482L32.8848 22.2072L32.1699 22.1662L31.8125 22.3888C31.1621 22.7931 31.168 22.7873 31.2559 23.0041C31.332 23.1916 31.4492 23.6955 31.5137 24.1056C31.5371 24.258 31.4902 24.1935 31.3262 23.8361C31.0332 23.215 30.8047 22.9689 30.4238 22.84L30.125 22.7404L29.9023 22.9982C29.7793 23.1388 29.6797 23.2853 29.6797 23.3205C29.6797 23.3498 29.7734 23.4728 29.8906 23.5842C30.2598 23.9357 30.7051 24.7267 30.8809 25.3361C30.9043 25.4181 30.7168 25.1428 30.4648 24.7209C30.2188 24.3049 29.8965 23.8361 29.75 23.6838C29.5098 23.426 29.4922 23.3908 29.5566 23.2443C29.5918 23.1506 29.709 22.9806 29.8145 22.8517L30.0078 22.6291L30.4355 22.717L30.8691 22.8049L31.2324 22.5178C31.8008 22.0724 31.9297 22.0373 32.7383 22.0842L33.4238 22.1252L33.7695 21.7678C34.0215 21.5041 34.2324 21.3576 34.5781 21.1935L35.041 20.9767L34.6719 20.9357C33.6875 20.8185 32.7324 20.4846 31.2793 19.7463C30.7402 19.4709 29.9551 19.131 29.5332 18.9846C29.1172 18.8439 28.6719 18.6857 28.5488 18.633C28.1797 18.4748 27.7461 18.1818 27.7461 18.0939C27.7461 17.9943 27.7988 17.9943 28.7129 18.0763ZM41.3457 23.9006C41.5449 24.1877 41.8965 24.674 42.1191 24.967L42.5234 25.5119H42.8281C42.9922 25.5119 43.6426 25.4474 44.2695 25.3654C44.8965 25.2892 45.4121 25.2306 45.4238 25.2424C45.459 25.2775 42.6055 26.0392 42.418 26.0392C42.2832 26.0392 42.043 25.8049 41.9023 25.5295C41.6914 25.1076 40.8711 23.2619 40.9238 23.3146C40.9531 23.3498 41.1406 23.6076 41.3457 23.9006ZM48.2539 23.5197C48.2539 23.549 48.1191 23.6428 47.9609 23.7248C47.6211 23.8947 46.4316 24.3635 46.1738 24.422C46.0039 24.4631 46.0918 24.3986 46.9004 23.9123C47.1523 23.7599 47.9434 23.467 48.125 23.467C48.1953 23.4611 48.2539 23.4845 48.2539 23.5197ZM30.1191 24.9494C30.5293 25.3595 30.6055 25.4709 30.6992 25.7756C30.875 26.3674 30.8633 26.3791 30.6113 25.9045C30.4766 25.6584 30.1953 25.2599 29.9844 25.0256C29.7734 24.797 29.5449 24.5392 29.4805 24.4631L29.3574 24.3224L29.5039 24.3986C29.5859 24.4396 29.8613 24.6857 30.1191 24.9494ZM22.8359 26.215C23.6387 26.2736 24.166 26.4142 24.834 26.7482C25.1562 26.9123 25.25 26.9357 25.7598 26.9416C26.0703 26.9416 26.3105 26.9709 26.2988 27.0002C26.2285 27.1056 25.0625 27.6154 24.7227 27.6857C24.4062 27.7502 24.3125 27.7443 23.9844 27.6564C23.1875 27.4396 21.5938 26.5431 21.5938 26.3088C21.5938 26.1506 21.793 26.1388 22.8359 26.215ZM34.3848 27.9494C34.4141 28.4767 34.4141 28.4885 34.2734 28.5529C34.1973 28.5881 34.1328 28.6525 34.1328 28.7053C34.1328 28.7521 34.0273 28.8459 33.9043 28.9045C33.6172 29.051 33.418 29.3674 33.3828 29.7306C33.3594 29.9709 33.3359 30.0177 33.2188 30.0412L33.0781 30.0646V29.3791C33.0781 28.506 33.1602 28.09 33.3652 27.8849C33.4941 27.7678 34.3145 27.3635 34.3438 27.4045C34.3496 27.4103 34.3672 27.6564 34.3848 27.9494ZM49.8945 28.9045C49.8945 28.9631 49.543 29.1095 49.25 29.174C48.9688 29.2326 49.0508 29.1623 49.4668 28.9924C49.8477 28.84 49.8945 28.8283 49.8945 28.9045ZM50.6328 29.508C50.5684 30.2697 50.4746 30.5217 50.5098 29.8478C50.5332 29.3088 50.5801 29.0275 50.6445 29.0275C50.6562 29.0275 50.6562 29.2443 50.6328 29.508ZM37.9824 30.1935C40.0801 30.967 40.8184 31.2424 40.8418 31.2658C40.8535 31.2775 40.8887 31.3888 40.9238 31.5177C40.9766 31.717 40.9707 31.7638 40.8887 31.8224C40.7012 31.9631 40.543 31.9338 38.6562 31.3654C38.4277 31.2951 38.2402 31.2248 38.252 31.2131C38.2637 31.2013 38.6035 31.2424 39.002 31.3068C39.8926 31.4474 40.4434 31.5119 40.4023 31.4709C40.3848 31.4533 39.9512 31.2541 39.4355 31.0314C37.5371 30.2052 36.125 29.5666 36.1953 29.5607C36.2129 29.5549 37.0215 29.842 37.9824 30.1935ZM29.1172 30.4396C29.0234 30.6213 29.0176 30.6271 28.9414 30.5217C28.8184 30.3576 28.8418 30.2697 29.0234 30.176C29.2285 30.0705 29.2637 30.1642 29.1172 30.4396ZM35.1875 32.0685C37.127 32.5549 39.3828 33.1642 40.1914 33.4103C40.5723 33.5217 40.6953 33.6564 40.4199 33.6564C40.332 33.6564 40.0977 33.6271 39.9043 33.592C39.7109 33.5568 39.3535 33.5217 39.1133 33.5158C38.7148 33.5041 38.4277 33.422 35.8906 32.5549C34.3613 32.0334 33.0547 31.5763 32.9902 31.547L32.873 31.4885L32.9902 31.5119C33.0547 31.5295 34.0449 31.7756 35.1875 32.0685ZM38.5684 41.7951L39.2188 42.3342L39.3125 42.8439C39.3652 43.1252 39.4062 43.3771 39.4062 43.4123C39.4062 43.4416 39.3008 43.2541 39.1719 42.9845C38.9258 42.4631 38.873 42.3927 38.1172 41.5607C37.8477 41.256 37.6895 41.0627 37.7656 41.133C37.8477 41.1974 38.2051 41.4963 38.5684 41.7951ZM36.207 42.6916C36.1719 42.7502 35.2168 43.8283 35.0234 44.0275C34.7832 44.2736 35.6855 43.1135 35.9727 42.8088C36.1426 42.6271 36.2891 42.551 36.207 42.6916ZM38.5859 43.2658C38.5859 43.3654 39.459 44.2502 40.0215 44.7189C40.7773 45.3517 40.7832 45.3635 40.168 44.9943C39.5059 44.5959 38.3516 43.7463 38.3516 43.6584C38.3516 43.547 38.4922 43.2072 38.5391 43.2072C38.5625 43.2072 38.5859 43.2365 38.5859 43.2658ZM23.7617 44.924C23.8613 45.0119 24.1367 45.1349 24.3652 45.2052C24.5996 45.2697 24.8281 45.34 24.875 45.3576C24.9219 45.3752 24.4648 45.4865 23.8496 45.6154C23.2402 45.7443 22.7129 45.8381 22.6836 45.8263C22.6543 45.8146 22.9238 45.7209 23.2871 45.6095C23.6504 45.5041 23.9551 45.3927 23.9668 45.3693C23.9844 45.3517 23.9199 45.299 23.8262 45.258C23.5801 45.1584 23.3105 44.8478 23.2402 44.5842C23.1348 44.1916 23.1641 44.1623 23.375 44.4728C23.4863 44.6369 23.6621 44.842 23.7617 44.924ZM37.0801 44.9299C37.168 44.9885 37.2793 45.0236 37.3262 45.0002C37.4082 44.9709 37.4082 44.9474 37.332 44.7599C37.2148 44.4787 37.291 44.5431 37.6836 45.0295C37.8887 45.2873 38.1582 45.5392 38.416 45.7092C38.6387 45.8556 38.8203 45.9845 38.8203 45.9963C38.8203 46.008 38.6152 45.926 38.3691 45.8088C37.4375 45.3927 36.6113 44.8068 36.4121 44.4318C36.3652 44.3381 36.4355 44.3791 36.6289 44.5607C36.7871 44.7072 36.9922 44.8771 37.0801 44.9299ZM36.125 44.7951C36.0547 45.006 36.0605 45.0295 36.2539 45.299C36.5938 45.7736 36.5703 45.7736 36.0723 45.2873C35.8145 45.0295 35.5977 44.801 35.5977 44.7834C35.5977 44.7599 35.7207 44.6603 35.8789 44.5666C36.1953 44.3732 36.248 44.4201 36.125 44.7951Z" fill="white"/>
</g>
<defs>
<clipPath id="clip0_634_463">
<rect width="70" height="70" fill="white"/>
</clipPath>
</defs>
</svg>
