<svg width="70" height="70" viewBox="0 0 70 70" fill="none" xmlns="http://www.w3.org/2000/svg">
<g clip-path="url(#clip0_734_501)">
<path d="M31.192 0.168491C30.912 0.392491 31.01 1.31649 31.304 1.20449C31.402 1.16249 31.71 1.09249 31.976 1.03649C32.62 0.924491 32.69 0.784491 32.382 0.350491C32.102 -0.0275085 31.556 -0.111509 31.192 0.168491Z" fill="black"/>
<path d="M38.7381 0.825981C38.5141 0.965981 38.0801 1.13399 37.7581 1.18999C37.2821 1.27399 37.2261 1.30199 37.4501 1.39999C37.7161 1.49799 37.7021 1.51199 37.3801 1.58199C37.1841 1.62399 36.6941 1.70798 36.2741 1.74998C35.5881 1.83398 35.4901 1.80598 35.2241 1.48399C35.0561 1.30199 34.7061 1.10599 34.4401 1.04999C34.0341 0.965981 33.9781 0.97998 34.1321 1.13399C34.6221 1.65199 33.9501 1.88998 33.3201 1.39999C32.9841 1.14799 32.9701 1.14799 32.6901 1.39999C32.4661 1.59599 32.0181 1.69398 30.5621 1.80598C29.5541 1.90398 28.4201 2.05798 28.0421 2.16998C27.1181 2.44998 27.1041 2.42198 27.9721 2.02998C28.4061 1.83398 28.7001 1.60999 28.7001 1.46999C28.7001 1.23199 28.6021 1.18999 27.8321 1.04999C27.3421 0.97998 27.3001 0.99398 27.3001 1.31599C27.3001 1.55399 27.1461 1.76398 26.8521 1.97398C26.6001 2.14198 26.3621 2.30998 26.3341 2.33798C26.3061 2.35198 26.3621 2.63198 26.4601 2.95399C26.6281 3.45798 26.6981 3.51398 27.0341 3.47198C27.2581 3.42999 27.3841 3.47198 27.3421 3.54198C27.1881 3.80798 26.3061 4.05998 25.5921 4.05998C24.8641 4.04598 24.8501 4.04598 25.2701 3.86398L25.6901 3.68198L25.1721 3.42999C24.7381 3.21999 24.5841 3.20599 24.2761 3.34599C23.8421 3.54198 23.6881 3.45798 23.9401 3.14999C24.0381 3.02399 24.0941 2.91199 24.0661 2.88399C23.9961 2.82799 20.4681 3.84998 18.7601 4.40999C17.1221 4.94199 15.0641 6.01999 14.1681 6.80399C13.4261 7.44799 13.3841 7.62999 13.9301 7.72799C14.0841 7.75599 14.2101 7.83998 14.2101 7.90998C14.2241 7.99398 14.2801 8.20399 14.3361 8.38599L14.4481 8.72198L14.6301 8.28799C14.8541 7.76999 15.2461 7.50399 16.3101 7.12598C17.1781 6.81799 17.3881 6.85999 17.0381 7.23798C16.7861 7.53199 16.3241 8.66599 16.1701 9.37999L16.0721 9.86999L16.4921 9.30999C16.7161 9.00199 17.2901 8.38599 17.7661 7.95198C18.4801 7.27999 18.6201 7.06998 18.6341 6.64999C18.6481 6.38398 18.6621 6.07598 18.6761 5.97798C18.7041 5.57198 19.6701 5.30598 19.9921 5.62798C20.1181 5.75398 20.0061 5.94998 19.5301 6.45399C19.1801 6.83199 18.9001 7.23798 18.9001 7.36399C18.9001 7.53199 19.0681 7.41999 19.4601 6.99998C19.9221 6.49599 20.0621 6.42599 20.3841 6.49599C20.8041 6.60799 21.2801 6.32798 20.9721 6.14598C20.8741 6.08998 20.8321 6.00599 20.8601 5.97798C21.1681 5.73998 23.0861 4.61999 23.2121 4.61999C23.4501 4.61999 23.5621 5.20798 23.3941 5.61398C23.3241 5.82398 23.0161 6.10398 22.7221 6.25798C22.4281 6.41198 21.7001 6.78999 21.0981 7.11198C20.2441 7.57399 19.8661 7.69999 19.3201 7.69999C18.7321 7.69999 18.6201 7.74199 18.6201 7.96598C18.6201 8.10599 18.7181 8.30199 18.8301 8.39999C18.9421 8.49799 19.0401 8.65199 19.0401 8.76398C19.0401 9.04399 18.3261 9.49199 17.5561 9.67398C17.1781 9.77199 16.3801 10.08 15.7921 10.388C15.0221 10.766 14.7001 10.864 14.7001 10.724C14.7001 10.626 14.8541 10.108 15.0641 9.58998C15.2601 9.05799 15.4001 8.46999 15.3721 8.27399C15.3021 7.68599 14.9381 7.83998 14.7001 8.56799C14.5321 9.11399 14.4481 9.21199 14.2101 9.15599C14.0561 9.11399 13.6921 9.18399 13.3981 9.30999C13.1181 9.42199 12.8801 9.47799 12.8801 9.42199C12.8801 9.36599 13.1181 9.07199 13.3981 8.76398L13.9301 8.21799L13.0901 8.80598C12.6281 9.14199 11.6901 9.78599 10.9901 10.262C9.77207 11.088 8.12007 12.586 8.12007 12.838C8.12007 12.908 8.30207 12.95 8.54007 12.908C9.15607 12.824 9.08607 13.118 8.19007 14.21C7.77007 14.714 7.42007 15.176 7.42007 15.204C7.42007 15.33 7.57407 15.246 8.03607 14.84C8.31607 14.588 8.55407 14.476 8.61007 14.546C8.65207 14.63 7.95207 15.428 7.05607 16.31C5.44607 17.92 5.43207 17.948 5.53007 18.452C5.64207 19.04 5.88007 19.39 5.88007 18.956C5.88007 18.144 6.49607 16.8 6.87407 16.8C7.08407 16.8 7.01407 17.248 6.49607 19.264C6.21607 20.342 5.95007 21.714 5.89407 22.33L5.81007 23.45L5.29207 22.61C4.99807 22.148 4.76007 21.868 4.76007 21.994C4.76007 22.12 4.41007 22.652 3.99007 23.17C3.57007 23.674 3.22007 24.122 3.22007 24.15C3.22007 24.164 3.12207 24.416 3.01007 24.696C2.89807 24.976 2.82807 25.2 2.85607 25.2C2.88407 25.2 3.12207 24.878 3.37407 24.472L3.83607 23.758L4.01807 24.164C4.27007 24.752 4.24207 25.228 3.85007 27.3C3.50007 29.19 3.43007 30.366 3.64007 30.87C3.75207 31.122 3.76607 31.122 3.76607 30.786C3.78007 30.338 4.10207 29.89 4.31207 30.016C4.52207 30.142 4.52207 30.996 4.32607 31.906C4.11607 32.9 3.86407 33.012 3.94807 32.06L4.01807 31.332L3.55607 31.402C2.99607 31.5 2.99607 31.486 2.85607 29.61C2.81407 28.84 2.71607 28.07 2.64607 27.888C2.46407 27.412 2.12807 27.51 2.01607 28.07C1.89007 28.784 2.04407 29.666 2.66007 31.57C3.26207 33.446 3.45807 34.3 3.26207 34.3C3.19207 34.3 2.94007 34.034 2.68807 33.712C2.21207 33.096 2.14207 33.138 2.39407 33.852C2.47807 34.09 2.61807 34.272 2.70207 34.258C2.81407 34.244 2.87007 34.594 2.87007 35.462C2.87007 36.134 2.84207 36.68 2.80007 36.68C2.75807 36.68 2.52007 36.554 2.28207 36.4L1.82007 36.12L1.83407 36.512C1.84807 37.296 2.03007 38.15 2.17007 38.108C2.33807 38.052 3.09407 41.006 3.52807 43.428C3.71007 44.394 3.89207 45.136 3.93407 45.052C4.04607 44.87 4.41007 45.528 4.55007 46.186C4.71807 46.942 4.88607 46.41 4.81607 45.36L4.76007 44.45L4.97007 45.22C5.09607 45.64 5.25007 46.662 5.32007 47.488C5.39007 48.328 5.53007 49.294 5.61407 49.658L5.78207 50.302L6.03407 49.994L6.28607 49.686L6.48207 50.162C6.91607 51.198 6.93007 51.282 6.55207 51.212L6.20207 51.142L6.52407 51.632C6.70607 51.898 6.86007 52.262 6.86007 52.43C6.86007 52.71 7.37807 53.34 7.60207 53.34C7.65807 53.34 7.67207 53.172 7.61607 52.962C7.57407 52.738 7.82607 53.088 8.17607 53.718C8.52607 54.362 8.82007 55.02 8.82007 55.202C8.82007 55.86 9.43607 56.756 10.5001 57.61C11.0741 58.086 11.6201 58.604 11.7041 58.772C11.8581 59.08 13.8741 60.998 15.3161 62.188C16.3661 63.07 18.2561 64.33 19.6421 65.1C20.2861 65.45 20.6781 65.744 20.5801 65.8C20.4261 65.898 24.6121 68.292 26.0821 68.936C27.6781 69.636 29.0781 70 30.1841 70C30.7441 70 31.2201 69.958 31.2201 69.916C31.2201 69.874 31.1501 69.72 31.0801 69.566C30.9821 69.384 30.9821 69.3 31.0801 69.3C31.1501 69.3 31.2201 69.188 31.2201 69.048C31.2201 68.824 31.4441 68.81 34.0481 68.81C37.1001 68.81 38.7101 68.614 41.3281 67.97C42.1121 67.774 42.7701 67.62 42.7841 67.62C42.8121 67.62 42.8401 67.914 42.8401 68.292C42.8401 69.104 43.1341 69.58 43.6381 69.58H44.0021L43.6101 69.216C43.2881 68.922 43.2321 68.782 43.3021 68.362C43.4001 67.802 43.7081 67.41 44.2681 67.116C44.6321 66.92 44.6601 66.934 44.6601 67.186C44.6601 67.732 45.0661 67.76 47.1241 67.396C48.1881 67.214 49.2381 67.018 49.4621 66.976C49.7981 66.892 49.8401 66.92 49.8401 67.256C49.8401 67.676 49.8681 67.69 50.7641 67.41C51.1421 67.298 51.4641 67.2 51.4921 67.2C51.5061 67.2 51.5201 67.424 51.5201 67.69C51.5201 67.998 51.4361 68.222 51.2821 68.306C51.1421 68.39 51.0861 68.46 51.1421 68.46C51.3381 68.46 52.1081 67.872 52.0241 67.802C51.9821 67.76 52.0801 67.536 52.2341 67.326L52.5141 66.92H51.8981C51.5481 66.92 51.0861 66.878 50.8481 66.836C50.4701 66.766 50.4281 66.71 50.5401 66.486C50.6241 66.346 50.6801 66.024 50.6801 65.772V65.296L51.7441 65.394L52.8081 65.506L53.2281 65.03C53.4521 64.764 54.1241 64.288 54.7121 63.952C55.3001 63.63 56.0141 63.14 56.2661 62.874C56.5321 62.594 56.7001 62.468 56.6301 62.58C56.5601 62.706 56.6301 62.692 56.8121 62.524C57.1621 62.23 57.2461 62.02 56.9101 62.3C56.7561 62.426 56.7001 62.426 56.7001 62.314C56.7001 62.23 56.7981 62.118 56.9101 62.076C57.0221 62.02 57.1201 61.88 57.1201 61.74C57.1201 61.614 57.3021 61.25 57.5401 60.928L57.9461 60.354L57.2041 60.62C56.5461 60.844 54.8101 61.18 54.3061 61.18C54.2081 61.18 54.3341 60.956 54.6001 60.69C54.9641 60.312 55.1181 60.242 55.3141 60.354C55.5241 60.466 55.6501 60.382 56.0141 59.892C56.2521 59.556 56.5741 59.038 56.7281 58.73C57.0221 58.156 58.3941 56.238 58.7861 55.86C58.9121 55.734 59.4161 55.146 59.9201 54.53C60.4241 53.914 61.2641 52.906 61.7961 52.29C63.0421 50.834 64.6101 48.454 65.5201 46.648C66.0941 45.486 66.2901 45.206 66.5001 45.262C66.7241 45.318 66.7521 45.206 66.8081 44.366C66.8361 43.848 66.9061 43.372 66.9481 43.33C67.0041 43.274 67.1861 43.33 67.3681 43.456C67.9981 43.904 68.0821 43.778 67.9701 42.588C67.8301 41.076 67.8441 40.11 68.0261 39.802C68.1101 39.662 68.1801 39.62 68.1801 39.718C68.1801 39.928 68.6981 40.222 68.8801 40.11C68.9641 40.054 68.8661 39.732 68.6701 39.326C68.3761 38.766 68.3481 38.64 68.5301 38.64C68.6561 38.64 68.8661 38.374 69.0201 38.024C69.1601 37.688 69.3421 37.394 69.4261 37.366C69.5101 37.324 69.4121 36.68 69.1601 35.574C68.6561 33.502 68.6421 33.236 69.0341 33.138C69.3001 33.068 69.3141 33.096 69.2301 33.558C69.1741 33.908 69.2021 34.09 69.3281 34.174C69.9161 34.552 70.0141 34.076 69.5801 32.816C69.4121 32.368 69.2861 31.696 69.2861 31.346C69.2721 30.73 69.2581 30.702 68.9221 30.772L68.5581 30.842L68.6001 28.966C68.6701 26.11 68.6701 26.096 68.1941 25.816C67.8441 25.62 67.7041 25.326 67.2841 23.996C66.6681 22.092 65.6461 19.782 64.7641 18.298C64.4141 17.696 64.1201 17.108 64.1201 17.01C64.1201 16.912 63.8541 16.52 63.5181 16.156C63.1961 15.778 62.5521 14.994 62.0901 14.42C60.9561 12.992 58.8421 10.906 57.3861 9.77199C56.2941 8.91799 53.5361 7.08398 53.1581 6.95798C53.0741 6.92999 53.2281 6.63599 53.5361 6.25798C54.1241 5.54398 54.1521 5.12399 53.6481 4.78799C53.3261 4.57799 53.3261 4.57799 53.4941 4.94199C53.6341 5.24998 53.6201 5.37598 53.4241 5.65598C53.0881 6.17398 52.6821 6.34198 52.0381 6.24398C51.7161 6.18798 51.3941 6.08998 51.3101 6.03399C51.2401 5.96398 50.9321 5.83798 50.6381 5.73998C50.1481 5.58598 50.1201 5.55798 50.3161 5.33398C50.4421 5.19398 50.5401 5.01199 50.5401 4.92799C50.5401 4.59199 49.6581 3.79398 48.4121 2.96799C46.9981 2.04398 46.5781 1.97398 46.0881 2.58998L45.8361 2.89799L45.1641 2.11398C44.4921 1.34399 44.4641 1.32999 43.6941 1.31599C43.2601 1.31599 42.5041 1.17599 42.0001 1.02199C41.4961 0.867981 40.6561 0.699982 40.1101 0.643982C39.2981 0.587982 39.0601 0.615982 38.7381 0.825981ZM39.4381 0.783981C39.3961 0.825981 39.2701 0.839981 39.1721 0.797981C39.0601 0.755981 39.1021 0.713982 39.2561 0.713982C39.4101 0.699982 39.4941 0.741982 39.4381 0.783981ZM49.3921 5.01199C49.5881 5.30598 49.5881 5.31998 49.1541 5.16599C48.7201 5.01199 48.6361 4.89999 48.8181 4.70399C48.9581 4.56399 49.1681 4.67599 49.3921 5.01199ZM12.0121 10.388C11.9001 10.57 11.5361 11.186 11.2001 11.76C10.8641 12.334 10.5701 12.824 10.5561 12.852C10.5421 12.88 10.3741 12.824 10.2061 12.726L9.88407 12.558L10.2621 12.264C10.4721 12.096 10.6401 11.9 10.6401 11.83C10.6401 11.676 12.0121 10.08 12.1381 10.08C12.1801 10.08 12.1241 10.22 12.0121 10.388ZM9.80007 18.578C9.64607 18.816 9.64607 18.816 9.71607 18.578C9.75807 18.438 9.80007 18.242 9.81407 18.158C9.81407 18.032 9.84207 18.032 9.88407 18.158C9.92607 18.256 9.88407 18.438 9.80007 18.578ZM11.6201 19.446C11.6201 19.516 11.5221 19.642 11.4101 19.74C11.2421 19.88 11.2001 19.88 11.2001 19.712C11.2001 19.6 11.2421 19.46 11.2981 19.418C11.4241 19.278 11.6201 19.292 11.6201 19.446ZM9.94007 19.796C9.94007 19.824 9.98207 19.95 10.0241 20.062C10.0661 20.188 9.88407 20.426 9.54807 20.692L9.01607 21.126L9.22607 20.426C9.38007 19.936 9.50607 19.74 9.68807 19.74C9.82807 19.74 9.94007 19.768 9.94007 19.796ZM10.5981 20.384C10.5141 20.678 9.98207 21.602 9.42207 22.428C8.86207 23.268 8.13407 24.458 7.81207 25.088L7.21007 26.25L7.16807 24.262C7.14007 22.386 7.15407 22.246 7.44807 21.91C7.61607 21.714 7.82607 21.56 7.93807 21.56C8.03607 21.56 8.21807 21.406 8.34407 21.21C8.59607 20.818 8.82007 20.86 8.82007 21.294C8.82007 21.924 9.89807 21.196 10.3881 20.258C10.7241 19.586 10.8221 19.642 10.5981 20.384ZM68.4601 27.496C68.4601 28.112 68.2221 27.762 68.1241 27.02C68.0401 26.418 68.0401 26.404 68.2361 26.74C68.3621 26.936 68.4461 27.272 68.4601 27.496ZM6.38407 27.286C6.49607 27.188 6.62207 27.16 6.67807 27.202C6.81807 27.342 6.14607 28.84 5.93607 28.84C5.54407 28.84 5.23607 27.664 5.47407 27.048L5.61407 26.67L5.90807 27.062C6.13207 27.37 6.23007 27.412 6.38407 27.286ZM47.1801 66.15C47.1801 66.29 47.0401 66.36 46.7321 66.36L46.2701 66.346L46.6201 66.15C47.0681 65.898 47.1801 65.898 47.1801 66.15ZM45.9481 67.158C46.1441 67.41 45.7101 67.55 45.2481 67.396C44.7161 67.214 44.7161 66.948 45.2481 66.724C45.6681 66.542 45.7101 66.542 45.7661 66.752C45.7941 66.878 45.8781 67.074 45.9481 67.158ZM30.7301 68.754C30.9261 68.95 30.2261 68.894 29.7501 68.684C29.3301 68.488 29.3441 68.488 29.9601 68.558C30.3101 68.6 30.6461 68.684 30.7301 68.754Z" fill="black"/>
<path d="M35.7421 1.21826C35.9521 1.24626 36.2881 1.24626 36.5121 1.21826C36.7221 1.19026 36.5401 1.16226 36.1201 1.16226C35.7001 1.16226 35.5181 1.19026 35.7421 1.21826Z" fill="black"/>
<path d="M50.9319 4.95626C51.0999 5.18026 51.2399 5.47426 51.2399 5.62826C51.2399 5.78226 51.3099 5.85226 51.3799 5.81026C51.6599 5.64226 51.5059 5.19426 51.0719 4.87226L50.6099 4.55026L50.9319 4.95626Z" fill="black"/>
<path d="M4.64803 18.8023C4.32603 19.1523 4.25603 19.5303 4.48003 19.6703C4.56403 19.7123 4.62003 19.8943 4.62003 20.0623C4.63403 20.3702 4.63403 20.3702 4.84403 20.0903C5.02603 19.8383 5.02603 19.8103 4.84403 19.7683C4.56403 19.7123 4.56403 19.7123 4.83003 19.0823C5.09603 18.4663 5.04003 18.3823 4.64803 18.8023Z" fill="black"/>
<path d="M2.30988 20.7768C2.12788 21.2528 2.11388 21.4488 2.22588 21.6868C2.51988 22.2048 2.65988 21.9948 2.65988 21.0708C2.65988 20.5668 2.63188 20.1608 2.60388 20.1608C2.57588 20.1608 2.43588 20.4408 2.30988 20.7768Z" fill="black"/>
<path d="M1.63796 23.1003C1.41396 23.4923 1.18996 23.8003 1.13396 23.8003C0.993964 23.8003 0.615964 23.3663 0.531964 23.1003C0.489964 22.9883 0.433964 23.1283 0.405964 23.4083C0.363964 23.6883 0.391964 23.8843 0.447964 23.8563C0.503964 23.8143 0.559964 24.0103 0.559964 24.2763C0.559964 24.5563 0.629964 24.7803 0.699964 24.7803C0.783964 24.7803 0.839964 24.7243 0.839964 24.6543C0.839964 24.5703 1.21796 24.2203 1.67996 23.8703C2.50596 23.2263 2.68796 22.9043 2.35196 22.5683C2.09996 22.3163 2.05796 22.3443 1.63796 23.1003Z" fill="black"/>
<path d="M0.699951 25.6207C0.699951 25.7047 0.797951 25.7607 0.909951 25.7607C1.17595 25.7607 1.17595 25.6767 0.909951 25.5647C0.797951 25.5227 0.699951 25.5507 0.699951 25.6207Z" fill="black"/>
<path d="M67.788 44.1703C67.634 44.5203 67.55 46.3263 67.69 46.1723C67.774 46.0883 68.068 43.9463 67.998 43.8763C67.97 43.8483 67.872 43.9743 67.788 44.1703Z" fill="black"/>
<path d="M64.806 49.1684C64.68 49.6444 64.54 50.1484 64.484 50.2744C64.33 50.6104 65.002 50.4564 65.352 50.0644C65.842 49.5464 65.856 49.2104 65.422 48.7204L65.016 48.2724L64.806 49.1684Z" fill="black"/>
<path d="M63.9799 50.9742C63.8819 51.1282 63.8399 51.2962 63.8819 51.3242C63.9099 51.3522 64.0079 51.2262 64.0919 51.0302C64.2879 50.6102 64.1899 50.5682 63.9799 50.9742Z" fill="black"/>
<path d="M63.4339 52.3887C63.1259 53.3127 63.1679 53.3127 63.7559 52.4307L64.1199 51.8707V52.4307C64.1059 52.7387 64.0219 53.1447 63.9099 53.3407C63.4059 54.2227 63.8259 54.6147 64.5959 53.9987C64.9459 53.7047 64.9739 53.6347 64.8339 53.3547C64.7219 53.1727 64.6939 52.8227 64.7639 52.4307C64.8479 51.8427 64.8339 51.8007 64.4699 51.6607C63.8399 51.4227 63.7419 51.4927 63.4339 52.3887Z" fill="black"/>
<path d="M60.774 55.5239C60.774 55.6919 60.41 56.2099 59.99 56.6859C59.248 57.5119 59.052 57.9879 59.36 58.1699C59.612 58.3239 59.514 58.4919 59.122 58.5899L58.73 58.7019L59.136 58.8139C59.416 58.8979 59.626 58.8559 59.878 58.7019L60.228 58.4639L59.906 58.2399C59.416 57.8619 59.64 57.5399 60.41 57.5399H61.04L61.026 56.9379C61.026 56.2799 60.802 55.0619 60.774 55.5239Z" fill="black"/>
<path d="M62.37 55.5942C62.314 55.6782 62.3 55.7622 62.342 55.8042C62.37 55.8462 62.44 55.7762 62.482 55.6502C62.58 55.4122 62.496 55.3702 62.37 55.5942Z" fill="black"/>
<path d="M61.8099 56.7982C61.5999 57.1342 61.4599 57.4422 61.4879 57.4702C61.5019 57.4842 61.7259 57.5542 61.9639 57.5962C62.3419 57.6802 62.4539 57.6382 62.7059 57.3162C63.0979 56.8262 63.0839 56.6722 62.5799 56.3922L62.1739 56.1682L61.8099 56.7982Z" fill="black"/>
<path d="M58.7861 59.5985L58.3101 60.1025L58.7581 59.7945C59.2341 59.4725 59.4301 59.2485 59.3321 59.1365C59.3041 59.1085 59.0521 59.3185 58.7861 59.5985Z" fill="black"/>
<path d="M52.8501 66.6403C52.8081 66.7103 52.8361 66.7803 52.9061 66.7803C52.9901 66.7803 53.0601 66.7103 53.0601 66.6403C53.0601 66.5563 53.0321 66.5003 53.0041 66.5003C52.9621 66.5003 52.8921 66.5563 52.8501 66.6403Z" fill="black"/>
<path d="M48.37 68.1939C47.782 68.7959 47.726 68.8939 48.02 68.8099C48.622 68.6419 49.21 68.2499 49.252 67.9839C49.364 67.4239 49.028 67.5079 48.37 68.1939Z" fill="black"/>
<path d="M45.57 68.0399L45.01 68.2919L45.542 68.3059C45.892 68.3199 46.102 68.2499 46.158 68.1099C46.284 67.7739 46.172 67.7599 45.57 68.0399Z" fill="black"/>
<path d="M37.17 69.0203C35.784 69.1603 33.992 69.2863 33.18 69.3003L31.71 69.3283L33.11 69.5943C33.908 69.7623 35.434 69.9023 36.68 69.9583L38.85 70.0283L38.5 69.7483L38.15 69.4683L38.5 69.3143C38.696 69.2443 39.354 69.1323 39.97 69.0763C40.796 69.0063 40.992 68.9503 40.74 68.8663C40.25 68.7263 40.026 68.7403 37.17 69.0203Z" fill="black"/>
<path fill-rule="evenodd" clip-rule="evenodd" d="M35.6676 7.98672C35.6277 8.14592 35.6595 8.48463 35.7397 8.75231C35.7684 8.84816 35.7264 8.94864 35.5936 9.10143C35.249 9.49803 35.2353 9.56437 35.4168 9.96078C35.612 10.3871 35.6125 10.3979 35.4515 10.6985C35.3319 10.9216 35.3273 10.9975 35.3786 11.9036C35.4288 12.7884 35.4342 12.8187 35.4428 12.2596C35.4479 11.9236 35.4703 11.5576 35.4926 11.4463L35.5331 11.2438L35.6453 11.415C35.7102 11.5139 35.7504 11.6763 35.7407 11.7999C35.7313 11.9174 35.7449 12.0137 35.7709 12.0137C35.7969 12.0137 35.8347 12.0771 35.855 12.1547C35.8868 12.2761 35.8705 12.2695 35.7377 12.1071C35.653 12.0033 35.5777 11.847 35.5705 11.7598C35.5633 11.6725 35.5392 11.9153 35.5169 12.2993C35.4946 12.6833 35.4987 13.0615 35.5259 13.1398C35.5589 13.2345 35.5514 13.2769 35.5036 13.2668C35.4629 13.2581 35.4199 13.3606 35.4046 13.5028L35.3774 13.7542L35.7369 13.3759L36.0963 12.9976L35.7686 13.4257C35.5884 13.6612 35.4194 13.8672 35.393 13.8836C35.3665 13.8999 35.3413 13.4248 35.3369 12.8279C35.3326 12.2309 35.3112 11.7249 35.2893 11.7035C35.2675 11.6821 35.2676 12.4358 35.2896 13.3784C35.3444 15.7284 35.3379 16.8411 35.2688 16.9254C35.2366 16.9645 35.1969 17.0537 35.1805 17.1235C35.1641 17.1934 35.1623 17.1505 35.1765 17.0283C35.1906 16.9061 35.2132 16.1635 35.2267 15.3779L35.2511 13.9497L35.1977 15.0288C35.1232 16.5357 35.0687 18.3675 35.0419 20.2656C35.0293 21.1566 34.9867 22.0253 34.9469 22.1979C34.8821 22.4801 34.8878 22.5291 35.0048 22.6873C35.165 22.9041 35.1819 23.4794 35.037 23.7848C34.9416 23.9858 34.9447 23.9986 35.1678 24.3302C35.4403 24.735 35.428 24.8621 35.0759 25.2803L34.8353 25.5659L34.1757 25.6122C33.1468 25.6844 33.1311 25.7001 34.0873 25.7007C35.0574 25.7012 35.2427 25.7494 35.717 26.1248C35.86 26.2379 35.9828 26.2909 36.0344 26.2616C36.1001 26.2243 36.1021 26.2317 36.0434 26.2951C35.9852 26.3582 35.9904 26.4139 36.0668 26.5425L36.1654 26.7085L36.0358 26.5515C35.9083 26.397 35.9039 26.3964 35.7744 26.5137C35.6208 26.6526 35.5959 26.5796 35.7418 26.4183C35.8332 26.3174 35.8239 26.2955 35.6264 26.1448C35.1807 25.8049 34.9866 25.7746 33.2182 25.7692C32.3212 25.7664 31.6011 25.7419 31.618 25.7145C31.6349 25.6872 31.5793 25.6474 31.4943 25.6261C31.4095 25.6048 31.2583 25.502 31.1585 25.3977C30.9995 25.2316 30.9781 25.1635 30.9857 24.8501C30.9942 24.4986 30.9927 24.4953 30.9011 24.6703C30.7727 24.9153 30.7837 25.3608 30.9241 25.5986C30.9881 25.707 31.2529 25.9399 31.5125 26.1161C31.7722 26.2922 32.0987 26.5638 32.2381 26.7197C32.4045 26.9055 32.5297 26.993 32.6022 26.974C32.727 26.9414 32.9911 27.0865 33.259 27.3348C33.499 27.5572 33.4101 27.5465 33.0609 27.3108C32.816 27.1456 32.7618 27.1309 32.6595 27.2025C32.549 27.28 32.5478 27.2988 32.6412 27.4916C32.6962 27.6051 32.8686 27.8101 33.0243 27.9472L33.3075 28.1965L33.2848 28.6957C33.2658 29.1142 33.2341 29.2354 33.089 29.4447C32.8275 29.8221 32.6008 29.929 32.0788 29.9211C31.799 29.9169 31.5694 29.9491 31.4536 30.009C31.1642 30.1586 31.1797 30.2144 31.5028 30.1865C31.6675 30.1722 32.0468 30.2139 32.3458 30.2791C32.8686 30.3931 32.9087 30.3933 33.3932 30.2864C34.0138 30.1494 34.2096 30.1428 34.3031 30.2554C34.4009 30.3734 34.1876 30.4289 33.8265 30.3793C33.6787 30.3591 33.4201 30.3632 33.2519 30.3884L32.9462 30.4342L33.1359 30.5308C33.6735 30.8045 33.9905 31.3536 33.9915 32.0127C33.9922 32.4811 33.8898 32.6502 33.5091 32.8092C33.052 33.0002 32.6238 32.8761 32.2545 32.4456C32.0569 32.2151 32.0319 32.2001 32.109 32.3579C32.2598 32.6667 32.5101 32.8947 32.8758 33.0564C33.2156 33.2067 33.4308 33.4256 33.6342 33.828C33.719 33.9959 33.7229 34.0633 33.6575 34.2406C33.5479 34.5385 33.5555 36.4404 33.6681 36.8965C33.7155 37.0885 33.9149 37.5884 34.1113 38.0073L34.4682 38.769L34.4634 39.499C34.454 40.9163 33.9843 42.0339 33.2067 42.4888L32.8813 42.6791L33.2621 42.6409C33.4716 42.6199 33.7072 42.5894 33.7858 42.5731C33.9943 42.5298 33.9632 42.5795 33.644 42.7992C33.4874 42.9069 33.3326 43.0449 33.3 43.1058C33.2673 43.1667 33.2249 43.4792 33.2057 43.8001C33.1763 44.2911 33.1439 44.4243 33.0016 44.6392C32.9086 44.7797 32.7349 44.955 32.6156 45.0288C32.4962 45.1025 32.4127 45.1771 32.43 45.1943C32.4796 45.244 32.8254 44.9755 33.044 44.7175C33.1537 44.5879 33.2128 44.5391 33.1753 44.6089C33.0068 44.9222 32.5259 45.3182 32.4047 45.2433C32.2847 45.1691 31.6756 45.3401 31.4842 45.5018L31.2944 45.6621L31.4942 45.5657C31.6041 45.5127 31.8754 45.4525 32.0972 45.432C32.6754 45.3785 32.8573 45.3061 33.1391 45.0173C33.4637 44.6848 33.7067 44.558 33.8012 44.6719C33.9109 44.804 33.9515 45.3629 33.8694 45.6116C33.7367 46.0139 33.1399 46.4406 33.0082 46.2275C32.9867 46.1926 32.9269 46.1641 32.8753 46.1641C32.8016 46.1641 32.796 46.1909 32.8488 46.2896C32.9414 46.4627 33.1558 46.5659 33.4032 46.5566L33.6113 46.5488L33.5103 46.7849C33.4548 46.9147 33.3953 47.0547 33.3782 47.0959C33.3612 47.1371 33.2566 47.2041 33.146 47.2446L32.9448 47.3184L33.2098 47.4349C33.5184 47.5704 33.6113 47.7126 33.6113 48.0494C33.6113 48.6044 33.0185 49.0608 32.3676 49.0068C32.0801 48.9829 31.9823 48.9412 31.8001 48.7646C31.6791 48.6473 31.58 48.5157 31.58 48.4723C31.58 48.4288 31.5533 48.3767 31.5206 48.3565C31.4838 48.3338 31.4835 48.3973 31.5196 48.5232C31.6107 48.8409 31.9368 49.1271 32.4161 49.3103C33.1245 49.581 33.1013 49.5395 33.1679 50.6527C33.2391 51.8434 33.3611 52.5648 33.6436 53.4656C33.7635 53.848 33.9061 54.4397 33.9606 54.7804C34.3783 57.3927 35.808 60.2743 37.6794 62.2758C37.8858 62.4965 38.0546 62.6618 38.0546 62.6432C38.0546 62.6245 37.995 62.4582 37.922 62.2736C37.7408 61.8148 37.3944 60.4419 37.2368 59.5576C37.0248 58.3681 36.8973 57.0538 36.8887 55.9712C36.8817 55.071 36.8978 54.9007 37.0299 54.473C37.2224 53.8494 37.1925 53.6286 36.9744 54.064C36.7784 54.4554 36.6784 54.4933 36.6229 54.1975C36.5551 53.8359 36.6492 53.4234 36.9145 52.9196C37.0791 52.6072 37.1953 52.2699 37.2631 51.9079C37.4013 51.1708 37.3576 51.0563 37.1425 51.5913C37.0443 51.8357 36.9345 52.0714 36.8985 52.115C36.787 52.2501 36.5959 52.206 36.5288 52.0295C36.4459 51.8113 36.5452 51.4486 36.8255 50.9463C37.0047 50.6251 37.0436 50.4888 37.0434 50.1845C37.0431 49.5495 37.1112 49.1388 37.2378 49.0121C37.3262 48.9238 37.3336 48.8936 37.2668 48.8936C37.1041 48.8936 36.8594 49.2655 36.7844 49.627C36.6619 50.2167 36.3783 50.1616 36.4215 49.5564C36.4393 49.3074 36.5167 49.1153 36.7669 48.6995C37.1534 48.0574 37.2416 47.8525 37.3967 47.237C37.5068 46.7999 37.5137 46.5056 37.495 43.022C37.4727 38.855 37.5043 38.2676 37.8015 37.3091C37.9098 36.96 38.0255 36.4396 38.0587 36.1529C38.1338 35.5025 38.3384 34.6331 38.447 34.5023C38.492 34.448 38.6391 34.3341 38.7738 34.249C38.9085 34.1639 39.0066 34.0823 38.9919 34.0674C38.977 34.0526 38.8101 34.0864 38.6208 34.1424C38.3566 34.2207 38.2053 34.3201 37.9688 34.5706L37.6608 34.897L37.6964 34.4844C37.716 34.2574 37.7771 33.9219 37.8323 33.7387C37.9204 33.4459 37.9762 33.3767 38.2927 33.1672C38.6561 32.9267 38.9449 32.5834 38.9414 32.3961C38.9397 32.3087 38.9303 32.31 38.8747 32.4055C38.7901 32.5508 38.4835 32.707 38.2829 32.707C37.8677 32.707 37.6095 32.3979 37.6117 31.9038C37.6131 31.5988 37.7854 31.1129 37.9221 31.0283C37.9612 31.0041 37.9764 30.9571 37.9557 30.9237C37.9351 30.8904 37.956 30.8709 38.0023 30.8805C38.0485 30.8901 38.0806 30.8663 38.0735 30.8277C38.0662 30.788 38.13 30.765 38.2198 30.7749C38.3476 30.7889 38.3648 30.7753 38.3073 30.7061C38.1721 30.5431 38.6335 30.5182 38.9766 30.6699C39.1417 30.743 39.3286 30.8027 39.3919 30.8027C39.5595 30.8027 39.6015 30.6918 39.4521 30.6444C39.3817 30.622 39.3242 30.5754 39.3242 30.5408C39.3242 30.5062 39.2976 30.4943 39.2651 30.5144C39.2326 30.5345 39.1896 30.5244 39.1696 30.492C39.1496 30.4596 39.2495 30.4135 39.3916 30.3894C39.5338 30.3654 39.8028 30.2921 39.9894 30.2266C40.2987 30.1178 40.3557 30.1153 40.6329 30.1988C40.8 30.2491 40.9479 30.2792 40.9615 30.2656C40.9751 30.2521 40.866 30.1614 40.7191 30.0642C40.4748 29.9026 40.4073 29.8887 39.931 29.9019C39.48 29.9146 39.3813 29.8972 39.196 29.7723C38.8642 29.5486 38.7286 29.262 38.7246 28.7761C38.7204 28.2637 38.83 27.9874 39.105 27.8175C39.2454 27.7307 39.3452 27.5989 39.4058 27.4202C39.4688 27.2345 39.5302 27.1558 39.6068 27.1627C39.6675 27.1681 39.7747 27.1149 39.8452 27.0444C39.9724 26.9171 40.1613 26.9119 40.4985 27.0265C40.6009 27.0612 40.607 27.0563 40.5302 27.0011C40.4456 26.9402 40.4456 26.9319 40.5302 26.9265C40.6773 26.9171 40.1384 26.6806 39.9589 26.6759C39.8023 26.6717 39.803 26.6693 40.0174 26.4859C40.137 26.3837 40.4248 26.2002 40.6572 26.0781C41.2259 25.7793 41.419 25.5787 41.4185 25.2875C41.4181 24.9976 41.3136 24.6155 41.2115 24.5307C41.1509 24.4803 41.1381 24.5345 41.1548 24.7713C41.1839 25.1837 41.0916 25.326 40.6676 25.5219C40.3104 25.687 40.2992 25.688 38.9478 25.67C37.6569 25.6527 37.5723 25.644 37.2871 25.4995C36.7261 25.2152 36.5577 24.7898 36.8149 24.3062C36.9737 24.0074 36.9744 23.9996 36.8713 23.6842C36.7784 23.4002 36.7765 23.3141 36.8538 22.9101C36.9018 22.6601 36.9372 22.4178 36.9328 22.3717C36.8371 21.387 36.723 19.3942 36.6615 17.6313C36.6149 16.2971 36.5728 12.8372 36.5984 12.458C36.6123 12.2532 36.5298 11.3011 36.493 11.2416C36.4607 11.1892 36.8802 10.8394 36.9755 10.8394C37.047 10.8394 37.0528 10.7904 36.998 10.6477C36.9755 10.5891 36.916 10.5641 36.8495 10.5852C36.7883 10.6046 36.6632 10.5919 36.5713 10.5569C36.436 10.5055 36.4042 10.4523 36.4042 10.2774C36.4042 9.99182 36.5146 9.90485 36.7803 9.98103C36.8945 10.0138 37.0334 10.0774 37.0891 10.1226C37.1637 10.183 37.1779 10.1839 37.1432 10.1261C37.0927 10.0421 36.5668 9.66504 36.5001 9.66504C36.4782 9.66504 36.4779 9.6936 36.4994 9.72852C36.521 9.76343 36.5105 9.79199 36.4761 9.79199C36.4417 9.79199 36.4012 9.82773 36.3863 9.87134C36.3712 9.91501 36.3715 9.89355 36.3869 9.82373C36.4741 9.42687 36.3278 8.91944 35.981 8.41595C35.8312 8.19841 35.7646 8.04004 35.787 7.95447C35.8057 7.88281 35.7957 7.82422 35.7647 7.82422C35.7337 7.82422 35.6901 7.89734 35.6676 7.98672ZM35.8411 8.83984C35.8345 8.92712 35.7586 9.11279 35.6726 9.25244C35.481 9.5636 35.4798 9.58607 35.6556 9.577C35.7657 9.57135 35.8069 9.51568 35.8486 9.31592C35.8777 9.17627 35.8907 8.97632 35.8774 8.87158C35.8566 8.70692 35.8516 8.70261 35.8411 8.83984ZM35.5299 9.9557C35.5902 10.0186 35.6532 10.0564 35.6699 10.0397C35.6866 10.023 35.6372 9.97157 35.5603 9.92529C35.4266 9.845 35.4252 9.84639 35.5299 9.9557ZM35.6231 10.1503C35.6647 10.1672 35.6831 10.222 35.6639 10.2722C35.6114 10.409 35.6916 10.3818 35.7695 10.2363C35.8284 10.1262 35.8182 10.11 35.6923 10.1144C35.6126 10.1171 35.5814 10.1332 35.6231 10.1503ZM35.8607 10.3157L35.6743 10.522L35.8806 10.3355C35.994 10.233 36.0868 10.1402 36.0868 10.1292C36.0868 10.0802 36.0345 10.1234 35.8607 10.3157ZM35.6508 10.6389C35.612 10.6857 35.5989 10.7429 35.6219 10.7658C35.6449 10.7888 35.6106 10.8076 35.5458 10.8076C35.4401 10.8076 35.4383 10.8159 35.5284 10.887C35.5837 10.9306 35.6758 11.052 35.7332 11.1567C35.8217 11.3182 35.8307 11.323 35.7921 11.1885C35.7671 11.1012 35.7469 10.9227 35.7474 10.7917C35.7483 10.523 35.7477 10.5222 35.6508 10.6389ZM35.9669 11.2907C35.8932 11.5255 35.8443 11.7289 35.8582 11.7427C35.872 11.7565 35.9464 11.5785 36.0234 11.3472C36.1004 11.1158 36.1493 10.9124 36.1321 10.8952C36.115 10.878 36.0406 11.056 35.9669 11.2907ZM35.4046 11.2837C35.4053 11.4233 35.4183 11.473 35.4335 11.394C35.4487 11.315 35.4481 11.2008 35.4322 11.1401C35.4163 11.0794 35.4039 11.144 35.4046 11.2837ZM36.5865 11.1726C36.5076 11.2733 36.5099 11.2755 36.6105 11.1966C36.7163 11.1136 36.7499 11.0615 36.6976 11.0615C36.6845 11.0615 36.6345 11.1115 36.5865 11.1726ZM35.7745 11.4794C35.7775 11.5533 35.7926 11.5684 35.8128 11.5178C35.8312 11.472 35.8289 11.4172 35.8078 11.3961C35.7867 11.375 35.7718 11.4125 35.7745 11.4794ZM35.9916 12.458C36.0548 12.5278 36.1208 12.585 36.1383 12.585C36.1557 12.585 36.1183 12.5278 36.0551 12.458C35.992 12.3882 35.9259 12.3311 35.9085 12.3311C35.891 12.3311 35.9285 12.3882 35.9916 12.458ZM35.6202 12.4428C35.6037 12.4694 35.6306 12.5463 35.6799 12.6137C35.758 12.7205 35.7695 12.7225 35.7695 12.6288C35.7695 12.5698 35.7392 12.5215 35.7022 12.5215C35.6653 12.5215 35.6527 12.4929 35.6743 12.458C35.6958 12.4231 35.6992 12.3945 35.6817 12.3945C35.6643 12.3945 35.6365 12.4162 35.6202 12.4428ZM35.6447 12.9616C35.5643 13.1119 35.5606 13.1752 35.6348 13.1293C35.6909 13.0946 35.7782 12.8389 35.7341 12.8389C35.721 12.8389 35.6809 12.8941 35.6447 12.9616ZM35.9723 13.5688C35.9735 13.6736 35.9878 13.7088 36.0039 13.647C36.02 13.5852 36.0189 13.4995 36.0015 13.4566C35.9841 13.4136 35.971 13.4641 35.9723 13.5688ZM35.7446 13.6908C35.7234 13.7753 35.7234 13.8895 35.7446 13.9447C35.7969 14.081 35.7235 14.2536 35.6362 14.1997C35.5853 14.1683 35.5871 14.1427 35.6425 14.1084C35.6892 14.0795 35.6952 14.0457 35.6577 14.0226C35.6238 14.0016 35.5443 14.0416 35.4811 14.1114C35.3336 14.2744 35.4353 14.4098 35.6278 14.3067C35.7506 14.241 35.7531 14.2573 35.7274 14.9673C35.7102 15.4448 35.7239 15.6953 35.7671 15.6953C35.81 15.6953 35.8329 15.3195 35.8329 14.6162C35.8329 14.0227 35.8218 13.5371 35.8081 13.5371C35.7944 13.5371 35.7659 13.6062 35.7446 13.6908ZM36.0334 14.0449C36.0334 14.1322 36.0478 14.1679 36.0654 14.1243C36.083 14.0807 36.083 14.0092 36.0654 13.9656C36.0478 13.922 36.0334 13.9576 36.0334 14.0449ZM36.0431 14.6479C36.0434 14.8574 36.0552 14.9354 36.0694 14.8214C36.0835 14.7073 36.0832 14.5359 36.0688 14.4405C36.0542 14.3451 36.0427 14.4385 36.0431 14.6479ZM35.4926 14.7114C35.4725 14.7638 35.4838 14.8066 35.5175 14.8066C35.5514 14.8066 35.579 14.7638 35.579 14.7114C35.579 14.6591 35.5678 14.6162 35.5541 14.6162C35.5404 14.6162 35.5127 14.6591 35.4926 14.7114ZM35.502 15.124C35.4867 15.2288 35.4977 15.3145 35.5265 15.3145C35.5554 15.3145 35.579 15.2288 35.579 15.124C35.579 15.0193 35.568 14.9336 35.5545 14.9336C35.541 14.9336 35.5174 15.0193 35.502 15.124ZM35.7205 15.9175C35.7045 16.1112 35.7739 16.1217 35.8858 15.9426C35.9317 15.8691 35.9386 15.8279 35.9011 15.8511C35.8636 15.8743 35.8329 15.863 35.8329 15.826C35.8329 15.6851 35.733 15.7664 35.7205 15.9175ZM35.5256 16.0127C35.5256 16.1 35.54 16.1357 35.5576 16.092C35.5752 16.0484 35.5752 15.977 35.5576 15.9333C35.54 15.8897 35.5256 15.9254 35.5256 16.0127ZM35.7151 16.3777C35.6459 16.5396 35.6475 16.5433 35.7367 16.429C35.7897 16.3612 35.8329 16.2827 35.8329 16.2545C35.8329 16.158 35.7899 16.2031 35.7151 16.3777ZM35.4655 16.5141C35.3637 16.7999 35.3685 16.8314 35.4883 16.6604C35.543 16.5821 35.5776 16.4687 35.5651 16.4082C35.5496 16.3333 35.518 16.3669 35.4655 16.5141ZM35.7635 16.7278C35.3966 17.0712 35.1555 17.3876 35.2152 17.4473C35.234 17.4662 35.341 17.3484 35.453 17.1857C35.5811 16.9994 35.6788 16.9122 35.7167 16.9501C35.8241 17.0576 35.8567 17.7061 35.7659 17.9306C35.6641 18.182 35.4357 18.5499 35.3807 18.551C35.3588 18.5514 35.2952 18.4589 35.2393 18.3455C35.1753 18.2156 35.1371 18.1811 35.1362 18.2523C35.1343 18.4016 35.3048 18.8057 35.3695 18.8054C35.3975 18.8053 35.4918 18.6788 35.579 18.5244L35.7377 18.2437L35.739 18.9214C35.7398 19.2976 35.7715 19.6528 35.8103 19.7197C35.865 19.8138 35.8764 19.7372 35.8627 19.3705C35.8449 18.9008 35.8443 18.6611 35.8576 17.5413C35.8629 17.0928 35.8434 16.9365 35.7795 16.9152C35.7217 16.896 35.7718 16.8076 35.9352 16.6402C36.2805 16.2867 36.1802 16.3378 35.7635 16.7278ZM36.0381 16.8379C36.0381 16.9601 36.0512 17.0101 36.0671 16.949C36.0831 16.8878 36.0831 16.7879 36.0671 16.7268C36.0512 16.6657 36.0381 16.7157 36.0381 16.8379ZM35.4926 17.3599C35.51 17.3882 35.5509 17.3948 35.5834 17.3747C35.6793 17.3155 35.6524 17.4344 35.4838 17.8157C35.3965 18.013 35.326 18.2237 35.3269 18.2838C35.3279 18.3439 35.4032 18.2074 35.4943 17.9805C35.5854 17.7535 35.687 17.5334 35.7201 17.4913C35.8018 17.3875 35.7304 17.2883 35.5822 17.2994C35.5155 17.3044 35.4751 17.3317 35.4926 17.3599ZM35.1397 17.6366C35.1428 17.7106 35.1578 17.7256 35.1781 17.675C35.1964 17.6292 35.1941 17.5744 35.173 17.5533C35.152 17.5323 35.137 17.5697 35.1397 17.6366ZM35.1075 18.9961C35.1291 19.1183 35.2342 19.3754 35.3411 19.5674C35.533 19.9122 35.5344 19.9219 35.4608 20.353C35.3736 20.8633 35.1968 21.2272 35.1246 21.0447C35.0952 20.9703 35.0787 21.0148 35.0757 21.1761L35.0712 21.4199L35.4045 21.1229C35.7702 20.7969 35.8892 20.5931 35.8936 20.2852C35.8965 20.0718 35.7762 19.9219 35.7601 20.1191C35.7549 20.1822 35.7448 20.2767 35.7377 20.3291C35.7306 20.3815 35.7205 20.487 35.7154 20.5636C35.7102 20.6402 35.6369 20.783 35.5524 20.881L35.3988 21.0591L35.495 20.6465C35.6082 20.1613 35.5751 19.6681 35.4098 19.3761C35.3458 19.263 35.2427 19.0813 35.1809 18.9722L35.0683 18.7739L35.1075 18.9961ZM35.1478 20.0752C35.1478 20.5083 35.1536 20.5298 35.2111 20.3132C35.253 20.1552 35.253 19.9952 35.2111 19.8372C35.1536 19.6206 35.1478 19.6421 35.1478 20.0752ZM35.0813 20.71C35.0813 20.7972 35.0957 20.833 35.1132 20.7893C35.1309 20.7457 35.1309 20.6743 35.1132 20.6306C35.0957 20.587 35.0813 20.6227 35.0813 20.71ZM35.8883 21.0115C35.8094 21.1121 35.8116 21.1144 35.9123 21.0355C36.018 20.9525 36.0516 20.9004 35.9994 20.9004C35.9862 20.9004 35.9362 20.9504 35.8883 21.0115ZM35.5317 21.2661C35.4285 21.3626 35.2969 21.5326 35.2394 21.6439C35.1291 21.857 35.0962 22.0117 35.1939 21.8574C35.2324 21.7965 35.2511 21.8675 35.2511 22.0747C35.2511 22.282 35.2324 22.3529 35.1939 22.2921C35.15 22.2227 35.1364 22.235 35.1357 22.3445C35.1351 22.4231 35.1602 22.4873 35.1914 22.4873C35.2811 22.4873 35.3251 22.3129 35.3251 21.957C35.3251 21.6827 35.3579 21.5878 35.5206 21.3904C35.6282 21.2599 35.7469 21.1721 35.7844 21.1952C35.8248 21.2202 35.8341 21.2076 35.8072 21.1641C35.7464 21.0657 35.7462 21.0658 35.5317 21.2661ZM35.6621 21.3923C35.6402 21.4534 35.5707 21.5536 35.5077 21.6148C35.4203 21.6999 35.3972 21.8067 35.4099 22.0666C35.425 22.3756 35.6037 22.8012 35.6844 22.7205C35.7019 22.7031 35.6669 22.6136 35.6067 22.5217C35.4997 22.3584 35.5013 22.3502 35.681 22.1512L35.8647 21.9478L35.6532 22.1382L35.4416 22.3286L35.4627 22.1382C35.4793 21.9893 35.5115 21.9518 35.6108 21.9663C35.6979 21.979 35.7127 21.9677 35.6579 21.9305C35.5941 21.8871 35.596 21.8163 35.6675 21.5787C35.7521 21.2977 35.7479 21.1535 35.6621 21.3923ZM35.4944 21.7044C35.4711 21.7277 35.4521 21.7762 35.4521 21.8124C35.4521 21.8521 35.4817 21.8484 35.5272 21.8028C35.5685 21.7615 35.5875 21.713 35.5695 21.6949C35.5515 21.6769 35.5177 21.6812 35.4944 21.7044ZM35.9282 21.7891C35.9066 21.824 35.9192 21.8525 35.9562 21.8525C35.9931 21.8525 36.0234 21.824 36.0234 21.7891C36.0234 21.7542 36.0108 21.7256 35.9954 21.7256C35.98 21.7256 35.9497 21.7542 35.9282 21.7891ZM35.0029 22.2993C34.9513 22.531 34.9905 22.6018 35.2667 22.7762C35.6077 22.9914 35.6527 22.9712 35.3389 22.7439C35.1407 22.6004 35.0748 22.5069 35.0592 22.3471C35.0402 22.1539 35.036 22.1503 35.0029 22.2993ZM35.8132 22.2985C35.7901 22.3849 35.7737 22.527 35.7767 22.6143C35.7806 22.7283 35.7987 22.7026 35.8408 22.5233C35.9052 22.2484 35.8805 22.0469 35.8132 22.2985ZM35.3092 23.1059C35.3699 23.1263 35.3662 23.1644 35.2933 23.2684C35.167 23.4488 35.1614 23.6058 35.2855 23.4899C35.3334 23.445 35.3598 23.3747 35.344 23.3336C35.3087 23.2417 35.5562 23.0972 35.6073 23.1799C35.627 23.2119 35.5003 23.3944 35.3255 23.5857C35.1507 23.7769 35.0077 23.964 35.0077 24.0015C35.0077 24.077 35.2631 24.2368 35.3457 24.2131C35.3745 24.2048 35.3815 24.2248 35.3613 24.2575C35.3411 24.2902 35.3703 24.3979 35.4261 24.497C35.5019 24.6315 35.5119 24.7176 35.4657 24.8359C35.4317 24.9232 35.3991 25.0232 35.3933 25.0581C35.3875 25.093 35.2987 25.2084 35.1958 25.3144C35.0139 25.5021 35.0127 25.5075 35.1504 25.5179C35.2515 25.5255 35.267 25.5132 35.2048 25.4748C35.1419 25.4359 35.1728 25.4089 35.3159 25.3775C35.4249 25.3536 35.5288 25.3103 35.5467 25.2813C35.5646 25.2523 35.5149 25.2438 35.4363 25.2624C35.2953 25.2957 35.2951 25.2947 35.4203 25.195C35.4956 25.1351 35.6896 25.0887 35.8964 25.0812L36.2455 25.0685L35.8647 25.0264C35.6476 25.0024 35.5657 24.9778 35.6743 24.9692C35.8587 24.9548 35.8602 24.9522 35.7219 24.8854C35.567 24.8107 35.5308 24.7096 35.6584 24.708C35.7117 24.7073 35.7154 24.6918 35.6696 24.6604C35.539 24.571 35.5123 24.3919 35.6286 24.3866C35.7163 24.3826 35.7191 24.3747 35.6425 24.3462C35.5041 24.2947 35.3258 24.0947 35.3746 24.0459C35.3976 24.0229 35.3745 24.0195 35.3232 24.0385C35.2719 24.0574 35.1871 24.0454 35.1347 24.0119C35.0535 23.9598 35.0597 23.9366 35.1767 23.8541C35.4075 23.6916 35.7095 23.2688 35.6696 23.1644C35.6462 23.1035 35.5573 23.0696 35.4311 23.0733C35.3204 23.0766 35.2656 23.0913 35.3092 23.1059ZM31.6782 26.0137C31.9209 26.1727 32.2444 26.4227 32.397 26.5691C32.5496 26.7156 32.6441 26.7783 32.6073 26.7085C32.5029 26.5111 32.1985 26.2532 31.7441 25.9772C31.1782 25.6333 31.1345 25.6576 31.6782 26.0137ZM40.8476 25.7881C40.7904 25.825 40.7825 25.85 40.828 25.8506C40.8696 25.8511 40.9212 25.823 40.9428 25.7881C40.9915 25.7092 40.9695 25.7092 40.8476 25.7881ZM32.7861 25.8506C32.6686 25.8876 32.7124 25.8983 32.9545 25.8919C33.1344 25.8872 33.2487 25.8623 33.2084 25.8366C33.1198 25.7802 32.9972 25.7843 32.7861 25.8506ZM34.4999 25.915C34.4427 25.952 34.4349 25.9769 34.4803 25.9776C34.5219 25.9781 34.5736 25.95 34.5951 25.915C34.6438 25.8362 34.6219 25.8362 34.4999 25.915ZM32.2956 26.017C32.3171 26.0385 32.5577 26.1529 32.8302 26.2711C33.1767 26.4216 33.4031 26.5704 33.5833 26.7662C33.7935 26.9947 33.8958 27.0544 34.1396 27.091C34.4499 27.1375 35.1311 27.1019 35.364 27.027C35.4532 26.9984 35.5098 27.0145 35.5331 27.0753C35.56 27.1454 35.5215 27.1615 35.3673 27.1445C35.2387 27.1303 35.1971 27.1419 35.2516 27.1767C35.3168 27.2183 35.293 27.2623 35.1506 27.3636C34.9755 27.4884 34.9553 27.4901 34.8115 27.3924L34.6586 27.2885L34.7808 27.4284L34.903 27.5682L34.6856 27.4794C34.566 27.4306 34.3254 27.37 34.1508 27.3448C33.7983 27.2939 33.6551 27.2329 33.4208 27.0338L33.2621 26.8989L33.4112 27.0684C33.5889 27.2703 33.7694 27.3471 34.2748 27.436C34.6157 27.4959 34.9083 27.6289 34.6993 27.6289C34.6554 27.6289 34.637 27.6575 34.6586 27.6924C34.6802 27.7273 34.7264 27.7559 34.7613 27.7559C34.7962 27.7559 34.8072 27.7273 34.7856 27.6924C34.7258 27.5956 34.8344 27.6165 35.0095 27.7356C35.165 27.8413 35.1654 27.8411 35.054 27.7132C34.9443 27.5874 34.9482 27.5797 35.2045 27.4101C35.4235 27.2651 35.481 27.2503 35.5494 27.3214C35.6824 27.4598 36.0234 28.5064 36.0234 28.7766C36.0234 28.9134 36.0542 29.0254 36.0919 29.0254C36.1352 29.0254 36.1456 28.9493 36.1202 28.8191C36.0064 28.2349 35.9405 27.9667 35.884 27.8588C35.8497 27.7931 35.8109 27.6545 35.7977 27.5506C35.7639 27.2837 35.4925 26.8462 35.2223 26.6236C34.9314 26.3837 34.6548 26.3175 33.7074 26.2609C33.2411 26.2329 32.8132 26.1694 32.6015 26.0966C32.4117 26.0313 32.2741 25.9955 32.2956 26.017ZM35.1098 26.0789C35.055 26.2216 35.0613 26.2463 35.1451 26.2184C35.2292 26.1903 35.2771 25.9785 35.1994 25.9785C35.1713 25.9785 35.131 26.0237 35.1098 26.0789ZM32.3752 26.2528C32.7239 26.4862 33.0009 26.6304 32.9295 26.5412C32.8861 26.4872 32.8718 26.4195 32.8977 26.391C32.9236 26.3624 32.9081 26.3601 32.8633 26.386C32.818 26.4121 32.6827 26.3744 32.5582 26.3009C32.3115 26.1554 32.1768 26.1199 32.3752 26.2528ZM35.419 26.2974C35.3234 26.403 35.3208 26.4229 35.4028 26.4229C35.5246 26.4229 35.6697 26.2567 35.5906 26.2079C35.5587 26.1881 35.4814 26.2284 35.419 26.2974ZM37.568 26.3276C37.1316 26.4225 36.9346 26.5104 36.7671 26.685C36.658 26.7987 36.6614 26.8076 36.8623 26.9301C36.9769 27 37.1028 27.0572 37.142 27.0574C37.1812 27.0575 37.3311 26.9298 37.4751 26.7736C37.619 26.6173 37.8441 26.4329 37.9751 26.3638C38.2595 26.2136 38.1408 26.2031 37.568 26.3276ZM31.8947 26.5657C32.1578 26.8459 32.2148 26.8963 32.2148 26.8487C32.2148 26.8385 32.0791 26.7028 31.9133 26.5471L31.6118 26.2642L31.8947 26.5657ZM38.6083 26.3619C38.2723 26.4183 37.8476 26.644 37.6214 26.8862C37.4438 27.0763 37.4741 27.1 37.9616 27.1522C38.4538 27.2048 38.8142 27.0317 39.1158 26.5974L39.3252 26.2959L39.1184 26.3034C39.0046 26.3075 38.7751 26.3338 38.6083 26.3619ZM39.6969 26.407C39.618 26.5077 39.6202 26.5099 39.7209 26.431C39.8266 26.348 39.8602 26.2959 39.808 26.2959C39.7948 26.2959 39.7448 26.3459 39.6969 26.407ZM33.1688 26.5775C33.2541 26.69 33.2518 26.6966 33.1421 26.6554C33.0387 26.6166 33.0335 26.6242 33.1047 26.71C33.1707 26.7895 33.198 26.793 33.2397 26.7273C33.2905 26.6472 33.3219 26.7075 33.2961 26.8354C33.2891 26.8704 33.3045 26.8777 33.3304 26.8519C33.3562 26.826 33.411 26.8327 33.452 26.8667C33.5035 26.9095 33.5266 26.8994 33.5266 26.8344C33.5266 26.7826 33.4975 26.7402 33.462 26.7402C33.4264 26.7402 33.3249 26.676 33.2364 26.5974C33.1141 26.4888 33.0979 26.484 33.1688 26.5775ZM39.947 26.7836C39.9928 26.8019 40.0476 26.7996 40.0687 26.7786C40.0897 26.7575 40.0523 26.7425 39.9854 26.7452C39.9114 26.7483 39.8964 26.7633 39.947 26.7836ZM40.2446 26.8672C40.4191 26.9422 40.5193 26.9422 40.4033 26.8672C40.3509 26.8334 40.2652 26.8072 40.2128 26.8092C40.15 26.8115 40.1608 26.8312 40.2446 26.8672ZM32.1078 27.0548C32.0021 27.1191 31.9001 27.2308 31.8811 27.3032C31.8476 27.4316 31.8525 27.4324 32.0784 27.3345C32.2058 27.2794 32.36 27.2197 32.4211 27.202C32.5646 27.1604 32.5626 27.0784 32.4161 27C32.3313 26.9545 32.2483 26.9693 32.1078 27.0548ZM35.9369 27.1528C35.9169 27.2052 35.9281 27.248 35.9619 27.248C35.9957 27.248 36.0234 27.2052 36.0234 27.1528C36.0234 27.1005 36.0121 27.0576 35.9984 27.0576C35.9847 27.0576 35.957 27.1005 35.9369 27.1528ZM34.6785 27.2279C34.7243 27.2463 34.779 27.244 34.8001 27.2229C34.8212 27.2018 34.7837 27.1869 34.7168 27.1896C34.6429 27.1926 34.6278 27.2077 34.6785 27.2279ZM32.3164 27.3464C32.2502 27.3948 32.1753 27.4216 32.1499 27.4059C32.1246 27.3902 32.0306 27.4453 31.9411 27.5282C31.8515 27.6112 31.7662 27.6669 31.7514 27.6521C31.6869 27.5877 31.5666 28.2248 31.5984 28.462C31.6472 28.8254 31.7442 28.8925 31.7164 28.5437C31.686 28.1602 31.7875 27.9436 32.1622 27.5932C32.4715 27.3038 32.553 27.1734 32.3164 27.3464ZM37.2778 27.2929C37.3568 27.3081 37.471 27.3075 37.5317 27.2917C37.5924 27.2758 37.5278 27.2633 37.3881 27.264C37.2485 27.2647 37.1988 27.2778 37.2778 27.2929ZM37.7848 27.3535C37.8285 27.3712 37.8999 27.3712 37.9435 27.3535C37.9872 27.336 37.9515 27.3216 37.8642 27.3216C37.7769 27.3216 37.7412 27.336 37.7848 27.3535ZM35.8647 27.4385C35.8431 27.4734 35.8557 27.502 35.8927 27.502C35.9296 27.502 35.9599 27.4734 35.9599 27.4385C35.9599 27.4036 35.9473 27.375 35.9319 27.375C35.9165 27.375 35.8863 27.4036 35.8647 27.4385ZM33.6747 27.5625C33.7271 27.598 33.8247 27.6274 33.8916 27.628C34.054 27.6292 34.0034 27.5929 33.77 27.5407C33.6309 27.5096 33.6052 27.5155 33.6747 27.5625ZM34.1667 27.6737C34.2453 27.6888 34.3737 27.6888 34.4523 27.6737C34.5308 27.6586 34.4666 27.6462 34.3095 27.6462C34.1524 27.6462 34.0881 27.6586 34.1667 27.6737ZM35.1982 27.6562C35.1982 27.6737 35.2553 27.7185 35.3251 27.7559C35.395 27.7932 35.4521 27.8095 35.4521 27.792C35.4521 27.7746 35.395 27.7298 35.3251 27.6924C35.2553 27.655 35.1982 27.6387 35.1982 27.6562ZM33.4955 27.8944C33.4597 28.0102 33.4115 28.3335 33.3883 28.6128C33.3333 29.2753 33.1875 29.6027 32.8472 29.8279C32.6318 29.9705 32.5102 30.0044 32.2226 30.002C31.9735 29.9999 31.9136 30.013 32.0243 30.0454C32.4679 30.1752 33.0235 30.0212 33.2778 29.698C33.3506 29.6053 33.427 29.4232 33.4474 29.2933C33.5051 28.9262 33.6067 27.7302 33.5823 27.7057C33.5703 27.6937 33.5312 27.7786 33.4955 27.8944ZM34.7356 28.0891C34.6505 28.2724 34.477 28.5752 34.35 28.762C34.223 28.9488 34.1191 29.1416 34.1191 29.1904C34.1191 29.2393 34.0893 29.2793 34.0529 29.2793C34.0091 29.2793 34.0011 29.1132 34.0291 28.7874C34.0607 28.4193 34.053 28.3125 33.9987 28.3634C33.9587 28.4008 33.9086 28.6169 33.8875 28.8437C33.8559 29.1818 33.873 29.3105 33.9825 29.558C34.0694 29.7544 34.1422 29.8438 34.1909 29.8137C34.2339 29.7871 34.2488 29.7947 34.226 29.8315C34.2043 29.8668 34.2498 29.9527 34.3273 30.0224C34.5343 30.2086 34.6859 30.2678 34.4999 30.0898C34.3218 29.9192 34.3059 29.8769 34.262 29.4584C34.2343 29.1955 34.2641 29.1004 34.5216 28.628C34.8096 28.0997 34.9649 27.7559 34.9156 27.7559C34.9016 27.7559 34.8206 27.9059 34.7356 28.0891ZM35.1982 27.8466C35.1982 27.8641 35.2553 27.9089 35.3251 27.9463C35.395 27.9837 35.4521 27.9999 35.4521 27.9825C35.4521 27.965 35.395 27.9202 35.3251 27.8828C35.2553 27.8454 35.1982 27.8292 35.1982 27.8466ZM34.9191 28.5705C34.8972 28.6058 34.9763 28.6177 35.1118 28.5995C35.2627 28.5791 35.3623 28.5979 35.4017 28.6541C35.4501 28.7231 35.4568 28.7211 35.4362 28.6445C35.4071 28.5367 34.9779 28.4753 34.9191 28.5705ZM34.1241 28.8085C34.1271 28.8824 34.1422 28.8975 34.1624 28.8469C34.1808 28.8011 34.1785 28.7463 34.1574 28.7252C34.1363 28.7041 34.1214 28.7416 34.1241 28.8085ZM34.6923 29.0431C34.6061 29.0868 34.4918 29.2006 34.4384 29.2962C34.3491 29.4561 34.3515 29.4892 34.4682 29.7079C34.5472 29.8559 34.689 29.9916 34.8437 30.0672C35.0641 30.1747 35.1105 30.1783 35.2512 30.0989C35.3387 30.0496 35.4212 29.9664 35.4348 29.9141C35.4515 29.8498 35.4366 29.8549 35.3891 29.9299C35.2998 30.071 34.9593 30.0762 34.7639 29.9394C34.56 29.7965 34.487 29.5721 34.5752 29.3586C34.6149 29.2627 34.6421 29.1605 34.6356 29.1318C34.6291 29.103 34.6542 29.0983 34.6916 29.1214C34.7289 29.1444 34.8008 29.129 34.8513 29.087C34.9018 29.0451 35.0276 29.0232 35.1308 29.0383C35.234 29.0535 35.304 29.0425 35.2863 29.0139C35.2377 28.9353 34.8696 28.9534 34.6923 29.0431ZM35.8796 29.4882C35.7831 29.6981 35.715 29.8807 35.7283 29.8941C35.7622 29.928 36.0966 29.2113 36.0738 29.1537C36.0635 29.1278 35.9761 29.2783 35.8796 29.4882ZM35.4571 29.6972C35.4601 29.7711 35.4752 29.7862 35.4954 29.7356C35.5138 29.6897 35.5115 29.635 35.4904 29.6139C35.4694 29.5928 35.4544 29.6303 35.4571 29.6972ZM33.5265 30.0846C33.3577 30.1362 33.2309 30.1896 33.2446 30.2033C33.2583 30.2171 33.4536 30.1741 33.6785 30.1078C33.9033 30.0415 34.0302 29.988 33.9604 29.989C33.8906 29.99 33.6953 30.033 33.5265 30.0846ZM33.5217 30.6102C33.9271 30.876 34.2745 31.8868 34.1208 32.3528C33.9984 32.7235 33.6089 32.9587 33.1099 32.9628C32.9569 32.9642 32.9128 32.9817 32.9765 33.016C33.0289 33.0442 33.1574 33.0634 33.2621 33.0588C34.205 33.0171 34.6369 32.4513 34.408 31.5579C34.2831 31.0704 34.0108 30.6188 33.8176 30.5785C33.739 30.5622 33.5962 30.5337 33.5002 30.5152L33.3256 30.4817L33.5217 30.6102ZM34.3571 30.5274C34.4008 30.545 34.4722 30.545 34.5158 30.5274C34.5595 30.5098 34.5237 30.4954 34.4365 30.4954C34.3492 30.4954 34.3135 30.5098 34.3571 30.5274ZM34.6745 30.5908C34.7182 30.6085 34.7896 30.6085 34.8332 30.5908C34.8769 30.5733 34.8411 30.5589 34.7538 30.5589C34.6666 30.5589 34.6309 30.5733 34.6745 30.5908ZM35.2423 30.8906C35.0107 31.1028 34.9285 31.381 35.0712 31.4692C35.1066 31.4911 35.1347 31.4429 35.1347 31.3602C35.1347 31.0326 35.4357 30.8245 35.6426 31.009C35.7183 31.0765 35.7191 31.0718 35.6475 30.9773C35.6013 30.9162 35.5206 30.8662 35.4683 30.8662C35.3908 30.8662 35.3878 30.8484 35.4521 30.771C35.5861 30.6095 35.4884 30.6652 35.2423 30.8906ZM35.8687 31.2657C35.8926 31.3283 35.9281 31.3635 35.9476 31.3439C35.9672 31.3244 35.9477 31.2732 35.9043 31.2301C35.8416 31.1679 35.8343 31.1752 35.8687 31.2657ZM35.9699 31.5645C35.9699 31.6517 35.9843 31.6875 36.0019 31.6438C36.0196 31.6002 36.0196 31.5288 36.0019 31.4851C35.9843 31.4415 35.9699 31.4772 35.9699 31.5645ZM35.579 31.6846C35.579 31.7273 35.5524 31.7459 35.5199 31.7259C35.4874 31.7058 35.4402 31.7228 35.415 31.7636C35.3863 31.81 35.3965 31.821 35.4422 31.7927C35.4832 31.7674 35.5164 31.784 35.5175 31.8305C35.5186 31.8796 35.5469 31.8662 35.5868 31.7977C35.6239 31.734 35.6372 31.665 35.6166 31.6443C35.5959 31.6237 35.579 31.6418 35.579 31.6846ZM35.9023 31.8501C35.8974 31.9199 35.826 32.1409 35.7436 32.3412C35.6613 32.5415 35.6173 32.6909 35.6458 32.6733C35.7311 32.6206 35.9676 31.934 35.9383 31.8245C35.9184 31.7502 35.9088 31.7571 35.9023 31.8501ZM35.3969 32.1112C35.3552 32.2028 35.1984 32.4385 35.0486 32.6352C34.8988 32.8318 34.7561 33.0271 34.7314 33.0691C34.6648 33.1825 34.754 33.4688 34.8559 33.4688C34.9641 33.4688 34.966 33.4383 34.8673 33.2804C34.8016 33.175 34.8192 33.1223 34.989 32.9163C35.0981 32.7837 35.2155 32.6814 35.2498 32.689C35.2841 32.6966 35.2987 32.6516 35.2824 32.5891C35.2661 32.5266 35.3154 32.3693 35.392 32.2395C35.4686 32.1096 35.5181 31.9902 35.502 31.9741C35.4859 31.9579 35.4386 32.0197 35.3969 32.1112ZM35.9957 32.371C35.9613 32.4615 35.9685 32.4688 36.0312 32.4066C36.0747 32.3635 36.0942 32.3123 36.0746 32.2928C36.055 32.2732 36.0196 32.3085 35.9957 32.371ZM35.6124 33.0212C35.5592 33.1243 35.5156 33.2634 35.5156 33.3304C35.5156 33.4345 35.4526 33.4585 35.086 33.4946C34.8063 33.5223 34.5303 33.6006 34.2953 33.7191L33.9342 33.9013L33.7485 33.5739C33.5643 33.2492 33.5639 33.2463 33.6981 33.206C33.7943 33.1771 33.7675 33.1662 33.6054 33.1683C33.4799 33.1699 33.3423 33.1495 33.2995 33.1231C33.2162 33.0716 33.7907 33.8549 33.8843 33.9203C33.9149 33.9418 33.8775 34.0819 33.8011 34.2316C33.5941 34.6375 33.638 35.3188 33.9081 35.8918C34.018 36.1247 34.0889 36.338 34.0658 36.3658C34.0427 36.3935 34.0785 36.3743 34.1454 36.3231C34.2593 36.2358 34.2622 36.2385 34.1926 36.3692C34.1267 36.493 34.1327 36.5057 34.2474 36.4836C34.3183 36.47 34.3619 36.4822 34.3442 36.5108C34.3265 36.5394 34.5185 36.7431 34.771 36.9633C35.4852 37.5863 35.5926 37.663 35.1218 37.2139C34.5293 36.6487 34.3518 36.3972 34.4535 36.2668C34.5217 36.1793 34.5182 36.177 34.4254 36.2496C34.3329 36.322 34.298 36.3016 34.154 36.0909C33.9551 35.7997 33.7382 35.1309 33.7382 34.8085C33.7382 34.4737 33.9797 34.0397 34.2769 33.8404C34.5248 33.6742 35.0417 33.5322 35.3992 33.5322C35.5496 33.5322 35.579 33.5058 35.579 33.3704C35.579 33.2814 35.6226 33.1243 35.6759 33.0212C35.7292 32.9183 35.7584 32.834 35.741 32.834C35.7235 32.834 35.6657 32.9183 35.6124 33.0212ZM34.8528 33.9469C34.6944 34.0667 34.7531 34.0659 34.9846 33.9452C35.0846 33.8931 35.1236 33.8511 35.0712 33.852C35.0189 33.8529 34.9205 33.8956 34.8528 33.9469ZM34.804 34.2335C34.6634 34.3077 34.5002 34.4745 34.3988 34.6474C34.2521 34.8978 34.2336 34.9862 34.2622 35.3014C34.3155 35.89 34.5835 36.3333 35.2711 36.9705C35.5976 37.273 35.8931 37.5444 35.9279 37.5735C35.9628 37.6027 35.6746 37.2978 35.2877 36.8962C34.7151 36.3017 34.5586 36.0976 34.4468 35.7988C34.2156 35.1809 34.2849 34.8018 34.6291 34.8018C34.9405 34.8018 35.0745 34.9953 35.058 35.4211C35.0495 35.6407 35.0809 35.8604 35.1369 35.9737C35.2261 36.1541 35.5924 36.4521 35.7248 36.4521C35.7597 36.4521 35.6938 36.3878 35.5784 36.3093C35.1986 36.0508 35.1009 35.8578 35.1201 35.4038C35.1348 35.0558 35.1177 34.9813 34.997 34.8689C34.859 34.7402 34.7665 34.7127 34.5475 34.735C34.4188 34.7481 34.4032 34.67 34.5126 34.5605C34.6311 34.442 35.0024 34.4707 35.2383 34.6165C35.4213 34.7296 35.4521 34.7839 35.4521 34.9938C35.4521 35.1626 35.4146 35.2652 35.3315 35.3233C35.2156 35.4045 35.217 35.4106 35.3679 35.4818C35.4981 35.5433 35.5127 35.5413 35.4536 35.4701C35.4117 35.4195 35.4066 35.3694 35.4414 35.3479C35.5322 35.2918 35.5727 34.9838 35.5107 34.8209C35.4356 34.6233 35.0887 34.422 34.8173 34.4186L34.5951 34.4158L34.7791 34.3162C34.9083 34.2462 35.0747 34.2246 35.3385 34.2437C35.6699 34.2677 35.6967 34.2613 35.5671 34.1895C35.3579 34.0734 35.0765 34.0896 34.804 34.2335ZM35.7695 34.3814C35.7695 34.3946 35.8195 34.4446 35.8806 34.4925C35.9812 34.5714 35.9834 34.5692 35.9045 34.4685C35.8216 34.3628 35.7695 34.3292 35.7695 34.3814ZM36.0334 34.9922C36.0334 35.0795 36.0478 35.1152 36.0654 35.0715C36.083 35.0279 36.083 34.9565 36.0654 34.9128C36.0478 34.8692 36.0334 34.9049 36.0334 34.9922ZM35.8776 35.3475C35.8149 35.4314 35.7865 35.5 35.8147 35.5C35.8701 35.5 36.0453 35.2462 36.0119 35.2144C36.0008 35.2038 35.9403 35.2637 35.8776 35.3475ZM36.0153 35.5476C35.9363 35.6483 35.9386 35.6505 36.0392 35.5716C36.1003 35.5237 36.1503 35.4737 36.1503 35.4605C36.1503 35.4083 36.0982 35.4419 36.0153 35.5476ZM35.1982 35.529C35.1982 35.5544 35.2553 35.6478 35.3251 35.7366C35.395 35.8254 35.4521 35.8772 35.4521 35.8519C35.4521 35.8265 35.395 35.733 35.3251 35.6443C35.2553 35.5555 35.1982 35.5036 35.1982 35.529ZM35.6425 35.627C35.6949 35.6608 35.7806 35.6869 35.8329 35.685C35.8957 35.6827 35.8849 35.6629 35.8012 35.627C35.6267 35.552 35.5265 35.552 35.6425 35.627ZM33.7138 36.103C33.8014 36.5693 33.8992 36.729 34.4326 37.2769C34.7573 37.6103 35.0535 37.9817 35.14 38.164C35.3249 38.5536 35.3823 38.5358 35.2084 38.1427C35.1384 37.9843 34.8575 37.6172 34.5842 37.3267C34.1397 36.8543 33.9649 36.5928 33.745 36.0713C33.681 35.9195 33.6797 35.9208 33.7138 36.103ZM33.6779 36.5499C33.6681 36.758 33.908 37.4308 34.209 38.0397C34.6087 38.8481 34.6725 39.1835 34.5656 39.9168C34.4736 40.5482 34.2086 41.5478 34.0517 41.8553C33.986 41.984 33.825 42.1777 33.6938 42.2858C33.5627 42.3939 33.4833 42.4823 33.5174 42.4822C33.6513 42.4817 33.9994 42.2197 34.1118 42.0348C34.223 41.8518 34.6045 40.5155 34.7602 39.7628C34.8889 39.1412 34.7104 38.4729 34.2411 37.8196C34.1326 37.6684 33.9621 37.306 33.8624 37.0143C33.7626 36.7226 33.6796 36.5136 33.6779 36.5499ZM34.4355 36.9907C34.5534 37.1124 34.6626 37.1993 34.6781 37.1838C34.7165 37.1454 34.3566 36.7695 34.2814 36.7695C34.2482 36.7695 34.3176 36.8691 34.4355 36.9907ZM35.3301 38.6474C35.3332 38.7213 35.3482 38.7364 35.3685 38.6858C35.3868 38.6399 35.3845 38.5852 35.3635 38.5641C35.3424 38.543 35.3274 38.5805 35.3301 38.6474ZM35.4068 39.1499C35.4073 39.3245 35.4196 39.3883 35.4342 39.2918C35.4487 39.1954 35.4483 39.0525 35.4333 38.9745C35.4183 38.8964 35.4063 38.9753 35.4068 39.1499ZM34.9443 40.4512C34.9069 40.521 34.8906 40.5781 34.9081 40.5781C34.9255 40.5781 34.9704 40.521 35.0077 40.4512C35.0451 40.3813 35.0614 40.3242 35.0439 40.3242C35.0265 40.3242 34.9817 40.3813 34.9443 40.4512ZM34.7509 40.774C34.7119 40.8468 34.692 40.9184 34.7067 40.933C34.7213 40.9476 34.7658 40.888 34.8056 40.8005C34.8931 40.6086 34.8505 40.5879 34.7509 40.774ZM34.5074 41.4108C34.434 41.6283 34.3848 41.8171 34.3981 41.8305C34.4115 41.8438 34.4825 41.6768 34.5559 41.4593C34.6294 41.2418 34.6786 41.053 34.6652 41.0396C34.6518 41.0263 34.5809 41.1933 34.5074 41.4108ZM35.0339 41.4509C34.7749 41.7947 34.1347 42.5614 34.0136 42.6729C33.9567 42.7252 33.815 42.849 33.6988 42.9478C33.4676 43.1445 33.3539 43.4511 33.3655 43.8472C33.3719 44.0686 33.3798 44.0533 33.4272 43.7283C33.4931 43.2773 33.6493 42.9921 33.9001 42.8647C34.0031 42.8124 34.1863 42.7132 34.3072 42.6442C34.5072 42.5301 34.5149 42.5157 34.3921 42.4847C34.2672 42.4532 34.2792 42.4264 34.5531 42.1246C34.8552 41.7918 35.2923 41.2129 35.2414 41.2129C35.2259 41.2129 35.1325 41.32 35.0339 41.4509ZM35.317 41.5779C35.2381 41.6786 35.2403 41.6808 35.341 41.6019C35.4468 41.5189 35.4803 41.4668 35.4281 41.4668C35.415 41.4668 35.3649 41.5168 35.317 41.5779ZM34.2752 41.9789C34.2521 42.0161 34.2469 42.0602 34.2635 42.0768C34.2802 42.0934 34.3107 42.063 34.3314 42.0091C34.3743 41.8972 34.3378 41.8776 34.2752 41.9789ZM34.97 42.054L34.8491 42.1968L34.9919 42.0759C35.1261 41.9622 35.1636 41.9111 35.1128 41.9111C35.1007 41.9111 35.0365 41.9754 34.97 42.054ZM34.7715 42.3079C34.6763 42.4309 34.6165 42.5459 34.6476 42.5459C34.6631 42.5459 34.7225 42.4745 34.7797 42.3872C34.8868 42.2239 34.8808 42.1666 34.7715 42.3079ZM35.395 42.882C35.3147 43.0158 35.3161 43.0171 35.4254 42.9124C35.4883 42.8521 35.5261 42.7891 35.5094 42.7724C35.4927 42.7557 35.4412 42.8051 35.395 42.882ZM34.8953 43.217C34.8169 43.3366 34.7743 43.4344 34.8009 43.4342C34.852 43.4337 35.0881 43.0495 35.0566 43.0179C35.0463 43.0077 34.9738 43.0973 34.8953 43.217ZM35.1982 43.1807C35.1608 43.2505 35.1445 43.3076 35.162 43.3076C35.1795 43.3076 35.2243 43.2505 35.2617 43.1807C35.299 43.1108 35.3153 43.0537 35.2978 43.0537C35.2804 43.0537 35.2356 43.1108 35.1982 43.1807ZM35.0463 43.4715C34.9775 43.6507 35.0055 43.9152 35.1065 44.0413C35.2001 44.1582 35.2014 44.1567 35.1311 44.0126C35.0903 43.929 35.0717 43.7505 35.0898 43.6159C35.1246 43.3563 35.1096 43.3065 35.0463 43.4715ZM34.603 43.6592C34.5813 43.7159 34.5653 43.7957 34.5674 43.8365C34.5696 43.8773 34.5988 43.8422 34.6323 43.7586C34.6657 43.675 34.6817 43.5952 34.6678 43.5813C34.6539 43.5674 34.6247 43.6025 34.603 43.6592ZM34.7623 43.7874C34.7573 43.9387 34.7951 44.0959 34.8538 44.1683C34.9087 44.236 34.9309 44.2487 34.903 44.1963C34.8751 44.1439 34.834 43.9725 34.8116 43.8154L34.7708 43.5298L34.7623 43.7874ZM34.5049 44.0429C34.508 44.1168 34.523 44.1319 34.5433 44.0813C34.5616 44.0354 34.5593 43.9807 34.5383 43.9596C34.5172 43.9385 34.5022 43.976 34.5049 44.0429ZM33.2989 44.1752C33.2962 44.216 33.2774 44.3017 33.2573 44.3656C33.2226 44.4762 33.2244 44.4763 33.2936 44.3684C33.3336 44.306 33.3523 44.2203 33.3351 44.178C33.3126 44.1225 33.3025 44.1217 33.2989 44.1752ZM34.4256 44.5137C34.4123 44.6533 34.4236 44.7676 34.4507 44.7676C34.4778 44.7676 34.4999 44.6533 34.4999 44.5137C34.4999 44.374 34.4886 44.2598 34.4749 44.2598C34.4611 44.2598 34.4389 44.374 34.4256 44.5137ZM33.9115 44.4251C33.8885 44.448 33.9026 44.5274 33.9429 44.6013C34.0536 44.8043 34.0359 45.5311 33.914 45.7877C33.8067 46.0139 33.6113 46.221 33.3891 46.3439C33.3176 46.3834 33.2995 46.4149 33.3476 46.4161C33.5069 46.4196 33.8099 46.1968 33.9489 45.9736C34.0645 45.7882 34.0873 45.657 34.0873 45.1802C34.0873 44.651 34.0114 44.3251 33.9115 44.4251ZM33.5197 44.5078C33.5001 44.5394 33.5413 44.5504 33.6112 44.5321C33.7594 44.4933 33.7781 44.4502 33.6467 44.4502C33.5964 44.4502 33.5393 44.4761 33.5197 44.5078ZM34.4428 45.0585C34.4463 45.1952 34.4725 45.3785 34.5011 45.4658C34.5335 45.5644 34.5397 45.4802 34.5177 45.2437C34.4767 44.8026 34.4335 44.696 34.4428 45.0585ZM35.2201 44.9925C35.1994 45.0464 35.1967 45.1046 35.214 45.122C35.2314 45.1393 35.2608 45.0952 35.2794 45.024C35.319 44.8728 35.275 44.8494 35.2201 44.9925ZM35.4645 45.1802C35.4657 45.2849 35.4799 45.3201 35.4961 45.2583C35.5122 45.1966 35.5111 45.1109 35.4937 45.0679C35.4763 45.0249 35.4632 45.0754 35.4645 45.1802ZM34.7558 45.561C34.7558 45.5959 34.7835 45.6674 34.8173 45.7197C34.8512 45.7721 34.8788 45.7864 34.8788 45.7515C34.8788 45.7166 34.8512 45.6451 34.8173 45.5928C34.7835 45.5404 34.7558 45.5261 34.7558 45.561ZM34.562 46.1985C34.5145 46.2872 34.3239 46.4894 34.1385 46.6479C33.9531 46.8063 33.7175 47.0197 33.615 47.1222L33.4287 47.3085L33.5835 47.4756C33.6686 47.5674 33.7382 47.6192 33.7382 47.5907C33.7382 47.5621 33.6905 47.4862 33.6323 47.4218C33.5316 47.3105 33.5552 47.2768 34.1083 46.7423C34.4285 46.433 34.6904 46.1478 34.6904 46.1085C34.6904 45.9985 34.6562 46.0224 34.562 46.1985ZM33.9039 47.4653C33.9561 47.6987 33.9924 47.7494 33.9912 47.587C33.9906 47.5201 33.9612 47.4225 33.9257 47.3701C33.8787 47.3006 33.8728 47.3263 33.9039 47.4653ZM34.1191 47.4119C34.1191 47.4466 34.1977 47.5442 34.2936 47.6288L34.4682 47.7827L34.3095 47.5923C34.2222 47.4875 34.1436 47.39 34.1349 47.3754C34.1262 47.3609 34.1191 47.3773 34.1191 47.4119ZM34.538 47.5986C34.5154 47.6575 34.5112 47.7199 34.5287 47.7374C34.5461 47.7548 34.5789 47.721 34.6015 47.6621C34.6241 47.6033 34.6283 47.5408 34.6108 47.5233C34.5934 47.5059 34.5606 47.5398 34.538 47.5986ZM33.7554 47.8779C33.7582 48.099 33.6457 48.4003 33.4474 48.7031C33.3728 48.8172 33.39 48.8082 33.5085 48.6714C33.7254 48.4209 33.8755 47.9791 33.8058 47.796C33.7608 47.6776 33.7529 47.6904 33.7554 47.8779ZM34.4829 47.9465C34.5053 48.0323 34.5341 48.0611 34.55 48.0136C34.5652 47.9678 34.5475 47.9001 34.5106 47.8632C34.4635 47.8161 34.4552 47.8409 34.4829 47.9465ZM34.5253 48.4746C34.4066 48.5933 34.3106 48.7432 34.312 48.8079C34.3136 48.8833 34.3464 48.852 34.4036 48.7203C34.4526 48.6075 34.5872 48.4576 34.7026 48.3872C34.8181 48.3169 34.874 48.2592 34.8268 48.259C34.7797 48.2589 34.644 48.3559 34.5253 48.4746ZM33.1926 49.0364L33.0717 49.1792L33.2145 49.0583C33.2931 48.9918 33.3574 48.9275 33.3574 48.9155C33.3574 48.8647 33.3063 48.9022 33.1926 49.0364ZM34.251 49.0575C34.2541 49.1315 34.2691 49.1465 34.2894 49.0959C34.3077 49.0501 34.3054 48.9953 34.2844 48.9742C34.2633 48.9532 34.2483 48.9906 34.251 49.0575ZM33.7358 49.2155L33.516 49.4105L33.7541 49.2397C33.9644 49.0888 34.0329 49.0205 33.9738 49.0205C33.9638 49.0205 33.8567 49.1082 33.7358 49.2155ZM33.9257 49.3538C33.9186 49.38 33.9088 49.4228 33.9039 49.449C33.899 49.4752 33.8699 49.5394 33.8394 49.5918C33.7975 49.6636 33.8112 49.6612 33.8953 49.5821C33.9567 49.5245 33.9915 49.4388 33.9728 49.3917C33.954 49.3447 33.9328 49.3275 33.9257 49.3538ZM33.2157 49.539C33.2526 49.5759 33.3202 49.5936 33.3661 49.5783C33.4136 49.5625 33.3848 49.5337 33.299 49.5112C33.1934 49.4836 33.1686 49.4919 33.2157 49.539ZM33.3153 50.4171C33.3379 50.8361 33.4014 51.4002 33.4566 51.6708C33.5728 52.2409 33.8943 53.2038 34.0011 53.3016C34.0553 53.3513 34.0621 53.3356 34.0274 53.2417C33.9615 53.0628 33.9805 51.744 34.0559 51.2721C34.0905 51.0553 34.162 50.7554 34.2149 50.6058C34.3407 50.249 34.2945 50.2071 34.1624 50.5584C33.9898 51.0174 33.9321 51.3751 33.9239 52.0356L33.9161 52.6704L33.7628 52.1943C33.5534 51.5441 33.4208 50.7534 33.4208 50.1548C33.4208 49.8197 33.3967 49.6553 33.3476 49.6553C33.2941 49.6553 33.2854 49.8602 33.3153 50.4171ZM34.3649 50.1472C34.286 50.2479 34.2882 50.2501 34.3889 50.1712C34.4946 50.0882 34.5282 50.0361 34.4759 50.0361C34.4628 50.0361 34.4128 50.0862 34.3649 50.1472ZM34.5592 52.1741C34.4463 52.4644 34.4144 52.6793 34.4101 53.1782C34.4049 53.7899 34.4137 53.832 34.6532 54.3376C34.7898 54.6261 34.9398 54.8938 34.9864 54.9325C35.1179 55.0416 35.0879 54.9369 34.8863 54.5825C34.5851 54.0528 34.4786 53.5845 34.5176 52.9595C34.5362 52.6609 34.5972 52.2906 34.6533 52.1368C34.8065 51.7165 34.7244 51.7489 34.5592 52.1741ZM35.2082 55.3682C35.2082 55.4554 35.2226 55.4912 35.2402 55.4475C35.2578 55.4039 35.2578 55.3325 35.2402 55.2888C35.2226 55.2452 35.2082 55.2809 35.2082 55.3682ZM35.2667 55.7226C35.2697 55.7965 35.2848 55.8115 35.305 55.761C35.3234 55.7151 35.3211 55.6603 35.3 55.6393C35.2789 55.6182 35.2639 55.6557 35.2667 55.7226ZM2.11179 67.9814C2.19075 67.9966 2.30501 67.996 2.36569 67.9801C2.42637 67.9643 2.36176 67.9518 2.22211 67.9525C2.08246 67.9532 2.03282 67.9662 2.11179 67.9814ZM2.80927 67.9833C2.99259 67.9961 3.29251 67.9961 3.47577 67.9833C3.65909 67.9705 3.50909 67.96 3.14252 67.96C2.77594 67.96 2.62601 67.9705 2.80927 67.9833Z" fill="#E522AA"/>
</g>
<defs>
<clipPath id="clip0_734_501">
<rect width="70" height="70" fill="white"/>
</clipPath>
</defs>
</svg>
