<svg width="70" height="70" viewBox="0 0 70 70" fill="none" xmlns="http://www.w3.org/2000/svg">
<g clip-path="url(#clip0_734_528)">
<path d="M31.192 0.168491C30.912 0.392491 31.01 1.31649 31.304 1.20449C31.402 1.16249 31.71 1.09249 31.976 1.03649C32.62 0.924491 32.69 0.784491 32.382 0.350491C32.102 -0.0275085 31.556 -0.111509 31.192 0.168491Z" fill="black"/>
<path d="M38.7381 0.825981C38.5141 0.965981 38.0801 1.13399 37.7581 1.18999C37.2821 1.27399 37.2261 1.30199 37.4501 1.39999C37.7161 1.49799 37.7021 1.51199 37.3801 1.58199C37.1841 1.62399 36.6941 1.70798 36.2741 1.74998C35.5881 1.83398 35.4901 1.80598 35.2241 1.48399C35.0561 1.30199 34.7061 1.10599 34.4401 1.04999C34.0341 0.965981 33.9781 0.97998 34.1321 1.13399C34.6221 1.65199 33.9501 1.88998 33.3201 1.39999C32.9841 1.14799 32.9701 1.14799 32.6901 1.39999C32.4661 1.59599 32.0181 1.69398 30.5621 1.80598C29.5541 1.90398 28.4201 2.05798 28.0421 2.16998C27.1181 2.44998 27.1041 2.42198 27.9721 2.02998C28.4061 1.83398 28.7001 1.60999 28.7001 1.46999C28.7001 1.23199 28.6021 1.18999 27.8321 1.04999C27.3421 0.97998 27.3001 0.99398 27.3001 1.31599C27.3001 1.55399 27.1461 1.76398 26.8521 1.97398C26.6001 2.14198 26.3621 2.30998 26.3341 2.33798C26.3061 2.35198 26.3621 2.63198 26.4601 2.95399C26.6281 3.45798 26.6981 3.51398 27.0341 3.47198C27.2581 3.42999 27.3841 3.47198 27.3421 3.54198C27.1881 3.80798 26.3061 4.05998 25.5921 4.05998C24.8641 4.04598 24.8501 4.04598 25.2701 3.86398L25.6901 3.68198L25.1721 3.42999C24.7381 3.21999 24.5841 3.20599 24.2761 3.34599C23.8421 3.54198 23.6881 3.45798 23.9401 3.14999C24.0381 3.02399 24.0941 2.91199 24.0661 2.88399C23.9961 2.82799 20.4681 3.84998 18.7601 4.40999C17.1221 4.94199 15.0641 6.01999 14.1681 6.80399C13.4261 7.44799 13.3841 7.62999 13.9301 7.72799C14.0841 7.75599 14.2101 7.83998 14.2101 7.90998C14.2241 7.99398 14.2801 8.20399 14.3361 8.38599L14.4481 8.72198L14.6301 8.28799C14.8541 7.76999 15.2461 7.50399 16.3101 7.12598C17.1781 6.81799 17.3881 6.85999 17.0381 7.23798C16.7861 7.53199 16.3241 8.66599 16.1701 9.37999L16.0721 9.86999L16.4921 9.30999C16.7161 9.00199 17.2901 8.38599 17.7661 7.95198C18.4801 7.27999 18.6201 7.06998 18.6341 6.64999C18.6481 6.38398 18.6621 6.07598 18.6761 5.97798C18.7041 5.57198 19.6701 5.30598 19.9921 5.62798C20.1181 5.75398 20.0061 5.94998 19.5301 6.45399C19.1801 6.83199 18.9001 7.23798 18.9001 7.36399C18.9001 7.53199 19.0681 7.41999 19.4601 6.99998C19.9221 6.49599 20.0621 6.42599 20.3841 6.49599C20.8041 6.60799 21.2801 6.32798 20.9721 6.14598C20.8741 6.08998 20.8321 6.00599 20.8601 5.97798C21.1681 5.73998 23.0861 4.61999 23.2121 4.61999C23.4501 4.61999 23.5621 5.20798 23.3941 5.61398C23.3241 5.82398 23.0161 6.10398 22.7221 6.25798C22.4281 6.41198 21.7001 6.78999 21.0981 7.11198C20.2441 7.57399 19.8661 7.69999 19.3201 7.69999C18.7321 7.69999 18.6201 7.74199 18.6201 7.96598C18.6201 8.10599 18.7181 8.30199 18.8301 8.39999C18.9421 8.49799 19.0401 8.65199 19.0401 8.76398C19.0401 9.04399 18.3261 9.49199 17.5561 9.67398C17.1781 9.77199 16.3801 10.08 15.7921 10.388C15.0221 10.766 14.7001 10.864 14.7001 10.724C14.7001 10.626 14.8541 10.108 15.0641 9.58998C15.2601 9.05799 15.4001 8.46999 15.3721 8.27399C15.3021 7.68599 14.9381 7.83998 14.7001 8.56799C14.5321 9.11399 14.4481 9.21199 14.2101 9.15599C14.0561 9.11399 13.6921 9.18399 13.3981 9.30999C13.1181 9.42199 12.8801 9.47799 12.8801 9.42199C12.8801 9.36599 13.1181 9.07199 13.3981 8.76398L13.9301 8.21799L13.0901 8.80598C12.6281 9.14199 11.6901 9.78599 10.9901 10.262C9.77207 11.088 8.12007 12.586 8.12007 12.838C8.12007 12.908 8.30207 12.95 8.54007 12.908C9.15607 12.824 9.08607 13.118 8.19007 14.21C7.77007 14.714 7.42007 15.176 7.42007 15.204C7.42007 15.33 7.57407 15.246 8.03607 14.84C8.31607 14.588 8.55407 14.476 8.61007 14.546C8.65207 14.63 7.95207 15.428 7.05607 16.31C5.44607 17.92 5.43207 17.948 5.53007 18.452C5.64207 19.04 5.88007 19.39 5.88007 18.956C5.88007 18.144 6.49607 16.8 6.87407 16.8C7.08407 16.8 7.01407 17.248 6.49607 19.264C6.21607 20.342 5.95007 21.714 5.89407 22.33L5.81007 23.45L5.29207 22.61C4.99807 22.148 4.76007 21.868 4.76007 21.994C4.76007 22.12 4.41007 22.652 3.99007 23.17C3.57007 23.674 3.22007 24.122 3.22007 24.15C3.22007 24.164 3.12207 24.416 3.01007 24.696C2.89807 24.976 2.82807 25.2 2.85607 25.2C2.88407 25.2 3.12207 24.878 3.37407 24.472L3.83607 23.758L4.01807 24.164C4.27007 24.752 4.24207 25.228 3.85007 27.3C3.50007 29.19 3.43007 30.366 3.64007 30.87C3.75207 31.122 3.76607 31.122 3.76607 30.786C3.78007 30.338 4.10207 29.89 4.31207 30.016C4.52207 30.142 4.52207 30.996 4.32607 31.906C4.11607 32.9 3.86407 33.012 3.94807 32.06L4.01807 31.332L3.55607 31.402C2.99607 31.5 2.99607 31.486 2.85607 29.61C2.81407 28.84 2.71607 28.07 2.64607 27.888C2.46407 27.412 2.12807 27.51 2.01607 28.07C1.89007 28.784 2.04407 29.666 2.66007 31.57C3.26207 33.446 3.45807 34.3 3.26207 34.3C3.19207 34.3 2.94007 34.034 2.68807 33.712C2.21207 33.096 2.14207 33.138 2.39407 33.852C2.47807 34.09 2.61807 34.272 2.70207 34.258C2.81407 34.244 2.87007 34.594 2.87007 35.462C2.87007 36.134 2.84207 36.68 2.80007 36.68C2.75807 36.68 2.52007 36.554 2.28207 36.4L1.82007 36.12L1.83407 36.512C1.84807 37.296 2.03007 38.15 2.17007 38.108C2.33807 38.052 3.09407 41.006 3.52807 43.428C3.71007 44.394 3.89207 45.136 3.93407 45.052C4.04607 44.87 4.41007 45.528 4.55007 46.186C4.71807 46.942 4.88607 46.41 4.81607 45.36L4.76007 44.45L4.97007 45.22C5.09607 45.64 5.25007 46.662 5.32007 47.488C5.39007 48.328 5.53007 49.294 5.61407 49.658L5.78207 50.302L6.03407 49.994L6.28607 49.686L6.48207 50.162C6.91607 51.198 6.93007 51.282 6.55207 51.212L6.20207 51.142L6.52407 51.632C6.70607 51.898 6.86007 52.262 6.86007 52.43C6.86007 52.71 7.37807 53.34 7.60207 53.34C7.65807 53.34 7.67207 53.172 7.61607 52.962C7.57407 52.738 7.82607 53.088 8.17607 53.718C8.52607 54.362 8.82007 55.02 8.82007 55.202C8.82007 55.86 9.43607 56.756 10.5001 57.61C11.0741 58.086 11.6201 58.604 11.7041 58.772C11.8581 59.08 13.8741 60.998 15.3161 62.188C16.3661 63.07 18.2561 64.33 19.6421 65.1C20.2861 65.45 20.6781 65.744 20.5801 65.8C20.4261 65.898 24.6121 68.292 26.0821 68.936C27.6781 69.636 29.0781 70 30.1841 70C30.7441 70 31.2201 69.958 31.2201 69.916C31.2201 69.874 31.1501 69.72 31.0801 69.566C30.9821 69.384 30.9821 69.3 31.0801 69.3C31.1501 69.3 31.2201 69.188 31.2201 69.048C31.2201 68.824 31.4441 68.81 34.0481 68.81C37.1001 68.81 38.7101 68.614 41.3281 67.97C42.1121 67.774 42.7701 67.62 42.7841 67.62C42.8121 67.62 42.8401 67.914 42.8401 68.292C42.8401 69.104 43.1341 69.58 43.6381 69.58H44.0021L43.6101 69.216C43.2881 68.922 43.2321 68.782 43.3021 68.362C43.4001 67.802 43.7081 67.41 44.2681 67.116C44.6321 66.92 44.6601 66.934 44.6601 67.186C44.6601 67.732 45.0661 67.76 47.1241 67.396C48.1881 67.214 49.2381 67.018 49.4621 66.976C49.7981 66.892 49.8401 66.92 49.8401 67.256C49.8401 67.676 49.8681 67.69 50.7641 67.41C51.1421 67.298 51.4641 67.2 51.4921 67.2C51.5061 67.2 51.5201 67.424 51.5201 67.69C51.5201 67.998 51.4361 68.222 51.2821 68.306C51.1421 68.39 51.0861 68.46 51.1421 68.46C51.3381 68.46 52.1081 67.872 52.0241 67.802C51.9821 67.76 52.0801 67.536 52.2341 67.326L52.5141 66.92H51.8981C51.5481 66.92 51.0861 66.878 50.8481 66.836C50.4701 66.766 50.4281 66.71 50.5401 66.486C50.6241 66.346 50.6801 66.024 50.6801 65.772V65.296L51.7441 65.394L52.8081 65.506L53.2281 65.03C53.4521 64.764 54.1241 64.288 54.7121 63.952C55.3001 63.63 56.0141 63.14 56.2661 62.874C56.5321 62.594 56.7001 62.468 56.6301 62.58C56.5601 62.706 56.6301 62.692 56.8121 62.524C57.1621 62.23 57.2461 62.02 56.9101 62.3C56.7561 62.426 56.7001 62.426 56.7001 62.314C56.7001 62.23 56.7981 62.118 56.9101 62.076C57.0221 62.02 57.1201 61.88 57.1201 61.74C57.1201 61.614 57.3021 61.25 57.5401 60.928L57.9461 60.354L57.2041 60.62C56.5461 60.844 54.8101 61.18 54.3061 61.18C54.2081 61.18 54.3341 60.956 54.6001 60.69C54.9641 60.312 55.1181 60.242 55.3141 60.354C55.5241 60.466 55.6501 60.382 56.0141 59.892C56.2521 59.556 56.5741 59.038 56.7281 58.73C57.0221 58.156 58.3941 56.238 58.7861 55.86C58.9121 55.734 59.4161 55.146 59.9201 54.53C60.4241 53.914 61.2641 52.906 61.7961 52.29C63.0421 50.834 64.6101 48.454 65.5201 46.648C66.0941 45.486 66.2901 45.206 66.5001 45.262C66.7241 45.318 66.7521 45.206 66.8081 44.366C66.8361 43.848 66.9061 43.372 66.9481 43.33C67.0041 43.274 67.1861 43.33 67.3681 43.456C67.9981 43.904 68.0821 43.778 67.9701 42.588C67.8301 41.076 67.8441 40.11 68.0261 39.802C68.1101 39.662 68.1801 39.62 68.1801 39.718C68.1801 39.928 68.6981 40.222 68.8801 40.11C68.9641 40.054 68.8661 39.732 68.6701 39.326C68.3761 38.766 68.3481 38.64 68.5301 38.64C68.6561 38.64 68.8661 38.374 69.0201 38.024C69.1601 37.688 69.3421 37.394 69.4261 37.366C69.5101 37.324 69.4121 36.68 69.1601 35.574C68.6561 33.502 68.6421 33.236 69.0341 33.138C69.3001 33.068 69.3141 33.096 69.2301 33.558C69.1741 33.908 69.2021 34.09 69.3281 34.174C69.9161 34.552 70.0141 34.076 69.5801 32.816C69.4121 32.368 69.2861 31.696 69.2861 31.346C69.2721 30.73 69.2581 30.702 68.9221 30.772L68.5581 30.842L68.6001 28.966C68.6701 26.11 68.6701 26.096 68.1941 25.816C67.8441 25.62 67.7041 25.326 67.2841 23.996C66.6681 22.092 65.6461 19.782 64.7641 18.298C64.4141 17.696 64.1201 17.108 64.1201 17.01C64.1201 16.912 63.8541 16.52 63.5181 16.156C63.1961 15.778 62.5521 14.994 62.0901 14.42C60.9561 12.992 58.8421 10.906 57.3861 9.77199C56.2941 8.91799 53.5361 7.08398 53.1581 6.95798C53.0741 6.92999 53.2281 6.63599 53.5361 6.25798C54.1241 5.54398 54.1521 5.12399 53.6481 4.78799C53.3261 4.57799 53.3261 4.57799 53.4941 4.94199C53.6341 5.24998 53.6201 5.37598 53.4241 5.65598C53.0881 6.17398 52.6821 6.34198 52.0381 6.24398C51.7161 6.18798 51.3941 6.08998 51.3101 6.03399C51.2401 5.96398 50.9321 5.83798 50.6381 5.73998C50.1481 5.58598 50.1201 5.55798 50.3161 5.33398C50.4421 5.19398 50.5401 5.01199 50.5401 4.92799C50.5401 4.59199 49.6581 3.79398 48.4121 2.96799C46.9981 2.04398 46.5781 1.97398 46.0881 2.58998L45.8361 2.89799L45.1641 2.11398C44.4921 1.34399 44.4641 1.32999 43.6941 1.31599C43.2601 1.31599 42.5041 1.17599 42.0001 1.02199C41.4961 0.867981 40.6561 0.699982 40.1101 0.643982C39.2981 0.587982 39.0601 0.615982 38.7381 0.825981ZM39.4381 0.783981C39.3961 0.825981 39.2701 0.839981 39.1721 0.797981C39.0601 0.755981 39.1021 0.713982 39.2561 0.713982C39.4101 0.699982 39.4941 0.741982 39.4381 0.783981ZM49.3921 5.01199C49.5881 5.30598 49.5881 5.31998 49.1541 5.16599C48.7201 5.01199 48.6361 4.89999 48.8181 4.70399C48.9581 4.56399 49.1681 4.67599 49.3921 5.01199ZM12.0121 10.388C11.9001 10.57 11.5361 11.186 11.2001 11.76C10.8641 12.334 10.5701 12.824 10.5561 12.852C10.5421 12.88 10.3741 12.824 10.2061 12.726L9.88407 12.558L10.2621 12.264C10.4721 12.096 10.6401 11.9 10.6401 11.83C10.6401 11.676 12.0121 10.08 12.1381 10.08C12.1801 10.08 12.1241 10.22 12.0121 10.388ZM9.80007 18.578C9.64607 18.816 9.64607 18.816 9.71607 18.578C9.75807 18.438 9.80007 18.242 9.81407 18.158C9.81407 18.032 9.84207 18.032 9.88407 18.158C9.92607 18.256 9.88407 18.438 9.80007 18.578ZM11.6201 19.446C11.6201 19.516 11.5221 19.642 11.4101 19.74C11.2421 19.88 11.2001 19.88 11.2001 19.712C11.2001 19.6 11.2421 19.46 11.2981 19.418C11.4241 19.278 11.6201 19.292 11.6201 19.446ZM9.94007 19.796C9.94007 19.824 9.98207 19.95 10.0241 20.062C10.0661 20.188 9.88407 20.426 9.54807 20.692L9.01607 21.126L9.22607 20.426C9.38007 19.936 9.50607 19.74 9.68807 19.74C9.82807 19.74 9.94007 19.768 9.94007 19.796ZM10.5981 20.384C10.5141 20.678 9.98207 21.602 9.42207 22.428C8.86207 23.268 8.13407 24.458 7.81207 25.088L7.21007 26.25L7.16807 24.262C7.14007 22.386 7.15407 22.246 7.44807 21.91C7.61607 21.714 7.82607 21.56 7.93807 21.56C8.03607 21.56 8.21807 21.406 8.34407 21.21C8.59607 20.818 8.82007 20.86 8.82007 21.294C8.82007 21.924 9.89807 21.196 10.3881 20.258C10.7241 19.586 10.8221 19.642 10.5981 20.384ZM68.4601 27.496C68.4601 28.112 68.2221 27.762 68.1241 27.02C68.0401 26.418 68.0401 26.404 68.2361 26.74C68.3621 26.936 68.4461 27.272 68.4601 27.496ZM6.38407 27.286C6.49607 27.188 6.62207 27.16 6.67807 27.202C6.81807 27.342 6.14607 28.84 5.93607 28.84C5.54407 28.84 5.23607 27.664 5.47407 27.048L5.61407 26.67L5.90807 27.062C6.13207 27.37 6.23007 27.412 6.38407 27.286ZM47.1801 66.15C47.1801 66.29 47.0401 66.36 46.7321 66.36L46.2701 66.346L46.6201 66.15C47.0681 65.898 47.1801 65.898 47.1801 66.15ZM45.9481 67.158C46.1441 67.41 45.7101 67.55 45.2481 67.396C44.7161 67.214 44.7161 66.948 45.2481 66.724C45.6681 66.542 45.7101 66.542 45.7661 66.752C45.7941 66.878 45.8781 67.074 45.9481 67.158ZM30.7301 68.754C30.9261 68.95 30.2261 68.894 29.7501 68.684C29.3301 68.488 29.3441 68.488 29.9601 68.558C30.3101 68.6 30.6461 68.684 30.7301 68.754Z" fill="black"/>
<path d="M35.7421 1.21826C35.9521 1.24626 36.2881 1.24626 36.5121 1.21826C36.7221 1.19026 36.5401 1.16226 36.1201 1.16226C35.7001 1.16226 35.5181 1.19026 35.7421 1.21826Z" fill="black"/>
<path d="M50.9319 4.95626C51.0999 5.18026 51.2399 5.47426 51.2399 5.62826C51.2399 5.78226 51.3099 5.85226 51.3799 5.81026C51.6599 5.64226 51.5059 5.19426 51.0719 4.87226L50.6099 4.55026L50.9319 4.95626Z" fill="black"/>
<path d="M4.64803 18.8023C4.32603 19.1523 4.25603 19.5303 4.48003 19.6703C4.56403 19.7123 4.62003 19.8943 4.62003 20.0623C4.63403 20.3702 4.63403 20.3702 4.84403 20.0903C5.02603 19.8383 5.02603 19.8103 4.84403 19.7683C4.56403 19.7123 4.56403 19.7123 4.83003 19.0823C5.09603 18.4663 5.04003 18.3823 4.64803 18.8023Z" fill="black"/>
<path d="M2.30988 20.7768C2.12788 21.2528 2.11388 21.4488 2.22588 21.6868C2.51988 22.2048 2.65988 21.9948 2.65988 21.0708C2.65988 20.5668 2.63188 20.1608 2.60388 20.1608C2.57588 20.1608 2.43588 20.4408 2.30988 20.7768Z" fill="black"/>
<path d="M1.63796 23.1003C1.41396 23.4923 1.18996 23.8003 1.13396 23.8003C0.993964 23.8003 0.615964 23.3663 0.531964 23.1003C0.489964 22.9883 0.433964 23.1283 0.405964 23.4083C0.363964 23.6883 0.391964 23.8843 0.447964 23.8563C0.503964 23.8143 0.559964 24.0103 0.559964 24.2763C0.559964 24.5563 0.629964 24.7803 0.699964 24.7803C0.783964 24.7803 0.839964 24.7243 0.839964 24.6543C0.839964 24.5703 1.21796 24.2203 1.67996 23.8703C2.50596 23.2263 2.68796 22.9043 2.35196 22.5683C2.09996 22.3163 2.05796 22.3443 1.63796 23.1003Z" fill="black"/>
<path d="M0.699951 25.6207C0.699951 25.7047 0.797951 25.7607 0.909951 25.7607C1.17595 25.7607 1.17595 25.6767 0.909951 25.5647C0.797951 25.5227 0.699951 25.5507 0.699951 25.6207Z" fill="black"/>
<path d="M67.788 44.1703C67.634 44.5203 67.55 46.3263 67.69 46.1723C67.774 46.0883 68.068 43.9463 67.998 43.8763C67.97 43.8483 67.872 43.9743 67.788 44.1703Z" fill="black"/>
<path d="M64.806 49.1684C64.68 49.6444 64.54 50.1484 64.484 50.2744C64.33 50.6104 65.002 50.4564 65.352 50.0644C65.842 49.5464 65.856 49.2104 65.422 48.7204L65.016 48.2724L64.806 49.1684Z" fill="black"/>
<path d="M63.9799 50.9742C63.8819 51.1282 63.8399 51.2962 63.8819 51.3242C63.9099 51.3522 64.0079 51.2262 64.0919 51.0302C64.2879 50.6102 64.1899 50.5682 63.9799 50.9742Z" fill="black"/>
<path d="M63.4339 52.3887C63.1259 53.3127 63.1679 53.3127 63.7559 52.4307L64.1199 51.8707V52.4307C64.1059 52.7387 64.0219 53.1447 63.9099 53.3407C63.4059 54.2227 63.8259 54.6147 64.5959 53.9987C64.9459 53.7047 64.9739 53.6347 64.8339 53.3547C64.7219 53.1727 64.6939 52.8227 64.7639 52.4307C64.8479 51.8427 64.8339 51.8007 64.4699 51.6607C63.8399 51.4227 63.7419 51.4927 63.4339 52.3887Z" fill="black"/>
<path d="M60.774 55.5239C60.774 55.6919 60.41 56.2099 59.99 56.6859C59.248 57.5119 59.052 57.9879 59.36 58.1699C59.612 58.3239 59.514 58.4919 59.122 58.5899L58.73 58.7019L59.136 58.8139C59.416 58.8979 59.626 58.8559 59.878 58.7019L60.228 58.4639L59.906 58.2399C59.416 57.8619 59.64 57.5399 60.41 57.5399H61.04L61.026 56.9379C61.026 56.2799 60.802 55.0619 60.774 55.5239Z" fill="black"/>
<path d="M62.37 55.5942C62.314 55.6782 62.3 55.7622 62.342 55.8042C62.37 55.8462 62.44 55.7762 62.482 55.6502C62.58 55.4122 62.496 55.3702 62.37 55.5942Z" fill="black"/>
<path d="M61.8099 56.7982C61.5999 57.1342 61.4599 57.4422 61.4879 57.4702C61.5019 57.4842 61.7259 57.5542 61.9639 57.5962C62.3419 57.6802 62.4539 57.6382 62.7059 57.3162C63.0979 56.8262 63.0839 56.6722 62.5799 56.3922L62.1739 56.1682L61.8099 56.7982Z" fill="black"/>
<path d="M58.7861 59.5985L58.3101 60.1025L58.7581 59.7945C59.2341 59.4725 59.4301 59.2485 59.3321 59.1365C59.3041 59.1085 59.0521 59.3185 58.7861 59.5985Z" fill="black"/>
<path d="M52.8501 66.6403C52.8081 66.7103 52.8361 66.7803 52.9061 66.7803C52.9901 66.7803 53.0601 66.7103 53.0601 66.6403C53.0601 66.5563 53.0321 66.5003 53.0041 66.5003C52.9621 66.5003 52.8921 66.5563 52.8501 66.6403Z" fill="black"/>
<path d="M48.37 68.1939C47.782 68.7959 47.726 68.8939 48.02 68.8099C48.622 68.6419 49.21 68.2499 49.252 67.9839C49.364 67.4239 49.028 67.5079 48.37 68.1939Z" fill="black"/>
<path d="M45.57 68.0399L45.01 68.2919L45.542 68.3059C45.892 68.3199 46.102 68.2499 46.158 68.1099C46.284 67.7739 46.172 67.7599 45.57 68.0399Z" fill="black"/>
<path d="M37.17 69.0203C35.784 69.1603 33.992 69.2863 33.18 69.3003L31.71 69.3283L33.11 69.5943C33.908 69.7623 35.434 69.9023 36.68 69.9583L38.85 70.0283L38.5 69.7483L38.15 69.4683L38.5 69.3143C38.696 69.2443 39.354 69.1323 39.97 69.0763C40.796 69.0063 40.992 68.9503 40.74 68.8663C40.25 68.7263 40.026 68.7403 37.17 69.0203Z" fill="black"/>
<path fill-rule="evenodd" clip-rule="evenodd" d="M35.8166 5.96761C35.8014 6.16838 35.7111 6.51338 35.616 6.73428C35.4991 7.00589 35.443 7.2464 35.443 7.4767C35.443 7.80785 35.4369 7.81947 35.2274 7.8886C34.9651 7.97518 34.6768 8.30126 34.703 8.48191C34.7161 8.57287 34.7944 8.63457 34.9538 8.67945C35.3486 8.79066 35.4521 8.93272 35.4521 9.36367C35.4521 9.60386 35.4131 9.80673 35.3448 9.92245C35.2598 10.0664 35.2521 10.1345 35.3079 10.2497C35.4177 10.476 35.4564 10.8847 35.3771 10.9803C35.3246 11.0436 35.3277 11.1309 35.3891 11.317C35.4522 11.508 35.4629 11.892 35.4339 12.9177C35.4052 13.9364 35.4134 14.2361 35.4675 14.1406C35.5069 14.071 35.5452 13.731 35.5526 13.3851C35.5666 12.7254 35.6099 12.6315 35.91 12.6103C36.008 12.6034 36.0064 12.6184 35.8941 12.7611C35.7421 12.9544 35.7252 13.4203 35.8652 13.5604C35.9178 13.613 35.9348 13.6722 35.9029 13.6919C35.8183 13.7441 35.8971 13.9878 35.983 13.9398C36.0253 13.9161 36.0223 13.9348 35.9758 13.9849C35.8814 14.0865 35.8689 14.2599 35.9599 14.2037C35.9948 14.1821 36.0234 14.193 36.0234 14.2279C36.0234 14.2628 35.9948 14.3091 35.9599 14.3306C35.925 14.3522 35.8964 14.6141 35.8964 14.9125C35.8964 15.3687 35.9116 15.4492 35.9916 15.4185C36.1223 15.3684 36.1121 15.4189 35.9283 15.7326C35.8411 15.8814 35.7859 16.0453 35.8057 16.0968C35.8255 16.1482 35.8111 16.2092 35.7738 16.2323C35.7365 16.2553 35.707 16.3082 35.7083 16.3498C35.7095 16.3913 35.7808 16.3397 35.8667 16.2349C35.9525 16.1302 36.0229 16.0767 36.0231 16.1161C36.0233 16.1555 35.9837 16.2206 35.9352 16.2608C35.8362 16.343 35.766 16.6282 35.8141 16.7534C35.8368 16.8124 35.8785 16.818 35.9621 16.7733C36.1653 16.6645 36.1664 16.7057 35.9648 16.8754C35.8574 16.9657 35.7695 17.0756 35.7695 17.1195C35.7695 17.2358 35.5787 17.5997 35.5177 17.5997C35.4891 17.5997 35.4491 17.5566 35.4289 17.5039C35.4087 17.4512 35.3597 17.4155 35.3201 17.4246C35.2786 17.434 35.2373 17.3334 35.2228 17.1871C35.2089 17.0474 35.1823 16.8665 35.1636 16.785C35.1449 16.7036 35.1522 16.6506 35.1798 16.6675C35.2073 16.6843 35.2363 16.5796 35.2441 16.4348L35.2584 16.1715L35.0979 16.5523C34.9666 16.8639 34.9451 16.9909 34.9798 17.2506C35.0521 17.7935 35.0539 19.2735 34.9823 19.3913C34.9344 19.4701 34.9375 19.5226 34.9935 19.5786C35.0846 19.6697 35.0978 20.0863 35.0123 20.1737C34.9759 20.2109 34.9805 20.3516 35.0241 20.5408C35.0753 20.762 35.0759 20.8785 35.0262 20.958C34.9883 21.0187 34.972 21.1983 34.9899 21.3572C35.0213 21.6363 35.0122 21.6554 34.7199 21.9239C34.445 22.1763 34.0558 22.8316 34.0557 23.0421C34.0556 23.0853 33.8242 23.237 33.5415 23.3792C33.2587 23.5214 32.8311 23.7805 32.5911 23.955C31.5718 24.6964 30.2794 24.8684 29.7448 24.3338C29.5838 24.1728 29.5666 23.7856 29.7133 23.6235C29.807 23.52 29.8046 23.5144 29.6808 23.5467C29.6074 23.566 29.4753 23.6673 29.3873 23.7718L29.2273 23.962L29.1051 23.8212C28.953 23.6458 28.8268 23.2755 28.8757 23.148C28.8978 23.0905 28.8859 23.0686 28.8459 23.0933C28.7247 23.1682 28.6527 23.4619 28.6947 23.7103C28.7476 24.0232 29.1663 24.487 29.352 24.4384C29.4291 24.4183 29.4914 24.4431 29.5144 24.503C29.5349 24.5565 29.569 24.5831 29.59 24.562C29.6111 24.5409 29.7125 24.5673 29.8155 24.6204C30.1546 24.7958 30.8073 24.8075 31.3334 24.6477C31.9136 24.4715 32.1668 24.3434 32.8495 23.8808C33.5208 23.4258 33.9332 23.2822 34.4228 23.3327C34.6208 23.3531 34.8121 23.407 34.8479 23.4523C34.8837 23.4977 34.9532 23.5434 35.0024 23.554C35.1478 23.5855 35.6412 23.9617 35.6077 24.0158C35.5908 24.0431 35.6104 24.0862 35.6513 24.1114C35.6948 24.1383 35.7087 24.13 35.6848 24.0913C35.6623 24.0549 35.6841 23.9918 35.7332 23.9511C35.8064 23.8904 35.8194 23.9054 35.8053 24.0335C35.7944 24.1333 35.8155 24.1796 35.8634 24.1612C35.9049 24.1453 35.9388 24.1764 35.9388 24.2303C35.9388 24.3843 35.8522 24.3474 35.5839 24.0791C35.2903 23.7855 35.0946 23.6677 35.042 23.7529C35.0217 23.7857 35.0522 23.8389 35.1098 23.8712C35.3215 23.9897 35.0895 23.9972 34.7508 23.8829C34.456 23.7834 34.3284 23.7743 33.9273 23.8241C33.4118 23.8881 33.3803 23.8983 32.4252 24.3076C31.5091 24.7001 30.5302 24.9817 30.2495 24.9335C30.0858 24.9053 30.0507 24.9124 30.1201 24.9597C30.2352 25.0381 30.6206 25.0407 31.0087 24.9657C31.3966 24.8907 31.3965 24.9249 31.0083 25.0645C30.7581 25.1545 30.7104 25.1913 30.7989 25.2262C30.8731 25.2555 30.817 25.273 30.6395 25.2759C30.3608 25.2804 30.1776 25.215 29.9757 25.0388C29.8875 24.9618 29.8806 24.928 29.944 24.8823C30.0022 24.8403 29.9948 24.8337 29.9176 24.8583C29.8585 24.8771 29.7094 24.8241 29.586 24.7405C29.3646 24.5902 28.621 24.4096 28.5434 24.4873C28.5213 24.5093 28.5655 24.5754 28.6416 24.634L28.7799 24.7408L28.5328 24.8943C28.2834 25.0493 28.1667 25.2435 28.1483 25.5343C28.1314 25.8011 28.1482 25.8222 28.2558 25.6686C28.3839 25.4858 28.7111 25.3438 29.0047 25.3438C29.1267 25.3438 29.4775 25.4025 29.7843 25.4743C30.4108 25.6208 30.9126 25.6547 31.3058 25.577L31.5711 25.5246L31.5026 25.7479C31.4557 25.9005 31.3756 25.9953 31.2489 26.0478C30.8461 26.2146 31.4161 26.2564 31.8513 26.092C31.9665 26.0484 32.1467 25.8442 32.3729 25.5007C32.7496 24.9286 32.9784 24.7478 33.5018 24.6085C33.9113 24.4994 34.6899 24.4922 34.9163 24.5954C35.0691 24.665 35.0819 24.6975 35.0539 24.946C35.0177 25.2675 34.773 25.6485 34.4987 25.8105C34.352 25.8972 34.2404 25.9146 34.0443 25.8815C33.7863 25.8379 33.7847 25.8388 33.8277 26.0099C33.8935 26.2722 34.0465 26.4717 34.2514 26.5625C34.3532 26.6075 34.4386 26.6588 34.4413 26.6765C34.444 26.6941 34.4581 26.7657 34.4726 26.8355C34.5352 27.1349 34.5199 27.6541 34.448 27.6781C34.4068 27.6918 34.3729 27.7364 34.3727 27.7771C34.3725 27.8178 34.2535 27.9511 34.1083 28.0733C33.7238 28.3968 33.6151 28.5206 33.4729 28.7965C33.3654 29.005 33.3614 29.0375 33.4474 29.0045C33.6228 28.9372 33.9172 29.0274 33.9001 29.1432C33.8916 29.2006 33.9244 29.2768 33.973 29.3123C34.0216 29.3479 34.066 29.4388 34.0716 29.5142C34.0773 29.5897 34.1026 29.6387 34.1277 29.6232C34.1529 29.6076 34.1833 29.6596 34.1954 29.7386C34.2074 29.8177 34.2452 29.8777 34.2793 29.8719C34.3134 29.8661 34.3487 29.9689 34.3579 30.1003C34.3877 30.5259 33.9648 30.8537 33.7382 30.5806C33.4881 30.2792 33.4876 30.6661 33.7375 31.1589C33.8418 31.3645 33.9446 31.624 33.966 31.7355C33.9929 31.8755 34.0454 31.9442 34.136 31.9577C34.2198 31.9701 34.2959 32.0574 34.347 32.1993C34.3909 32.3215 34.4308 32.3929 34.4356 32.358C34.4405 32.3231 34.4692 32.3556 34.4994 32.4304C34.5295 32.5051 34.5611 34.4535 34.5695 36.7602C34.5806 39.7853 34.604 40.928 34.6535 40.8604C34.6987 40.7986 34.7082 40.5454 34.6812 40.117C34.6353 39.3866 34.6254 32.3596 34.6706 32.5325C34.6866 32.5936 34.7278 32.6436 34.7622 32.6436C34.7966 32.6436 34.8034 32.608 34.7771 32.5643C34.7448 32.5104 34.7639 32.5129 34.8369 32.572C34.9532 32.6664 34.9841 32.7392 34.8808 32.6754C34.8459 32.6538 34.8173 32.6629 34.8173 32.6956C34.8173 32.7817 34.9803 32.9039 35.0295 32.8547C35.0524 32.8317 35.0712 32.8622 35.0712 32.9224C35.0712 32.9932 35.0431 33.0151 34.9919 32.9843C34.9372 32.9515 34.9394 32.9698 34.999 33.0432C35.0465 33.1019 35.0673 33.1971 35.0451 33.2548C35.0114 33.3427 35.0206 33.3468 35.1015 33.2796C35.2912 33.1222 35.1941 33.2743 34.9699 33.4858L34.7416 33.7012L34.9453 33.8725C35.0973 34.0005 35.1698 34.0265 35.2314 33.9754C35.3347 33.8897 35.414 33.9988 35.4276 34.2455C35.4338 34.3582 35.4119 34.4051 35.3653 34.3791C35.3138 34.3503 35.3142 34.3614 35.3665 34.4181C35.4134 34.469 35.4212 34.5613 35.3882 34.6765C35.3599 34.7751 35.3413 34.8651 35.3468 34.8764C35.3524 34.8878 35.3452 34.8901 35.331 34.8818C35.3168 34.8733 35.2651 34.8995 35.2164 34.94C35.1423 35.0015 35.1536 35.0354 35.2844 35.1458C35.3799 35.2262 35.5066 35.4716 35.6083 35.7732L35.7754 36.2685L35.7647 39.1672C35.7579 41.0216 35.7302 42.1183 35.6878 42.2113C35.6393 42.3178 35.6439 42.3983 35.7051 42.5126C35.7728 42.6391 35.7733 42.687 35.7078 42.766C35.6604 42.823 35.6541 42.8634 35.6925 42.8634C35.7648 42.8634 35.7603 43.4014 35.6875 43.4743C35.6221 43.5397 35.6323 43.6389 35.7001 43.597C35.7317 43.5774 35.7426 43.6187 35.7243 43.6888C35.706 43.7589 35.727 43.8596 35.7709 43.9125C35.8374 43.9925 35.8339 44.0023 35.7504 43.9703C35.6951 43.9491 35.6411 43.8721 35.6303 43.7993C35.6122 43.6769 35.6039 43.6798 35.52 43.8377C35.4459 43.9772 35.4443 44.0228 35.5113 44.0866C35.5777 44.1498 35.5848 44.1344 35.5486 44.0059L35.5038 43.8472L35.6093 43.9911C35.6672 44.0702 35.7485 44.1182 35.7897 44.0975C35.8309 44.0769 35.8093 44.1049 35.7417 44.1598C35.6284 44.2517 35.6072 44.2487 35.4739 44.1235C35.3942 44.0487 35.3412 43.9678 35.356 43.9438C35.3709 43.9198 35.3414 43.9001 35.2906 43.9001C35.2398 43.9001 35.1982 43.9065 35.1982 43.9144C35.1982 43.9222 35.3085 44.0621 35.4433 44.2252C35.7038 44.5405 35.7283 44.6716 35.7355 45.7833C35.739 46.3298 35.4287 46.6655 35.1768 46.3879C35.0701 46.2703 35.0705 46.2755 35.1809 46.4498C35.2474 46.5545 35.2906 46.6902 35.277 46.7513C35.2426 46.9064 35.1364 46.8912 35.1664 46.7354C35.1799 46.6656 35.1609 46.6085 35.1243 46.6085C35.0876 46.6085 35.0738 46.6504 35.0934 46.7017C35.1131 46.7529 35.1014 46.812 35.0674 46.833C35.0335 46.854 35.0203 46.8948 35.0381 46.9236C35.0736 46.981 34.895 47.069 34.8275 47.0275C34.8044 47.0133 34.7796 47.0847 34.7723 47.1862L34.7589 47.3707L35.222 47.1165C35.4767 46.9768 35.7225 46.8624 35.7682 46.8624C35.9627 46.8624 35.6243 48.568 35.4273 48.5808C35.3885 48.5834 35.2712 48.6889 35.1664 48.8152C35.0111 49.0028 34.9994 49.0363 35.103 48.9973C35.2048 48.959 35.2142 48.9654 35.1506 49.0295C35.022 49.159 34.8979 48.9964 35.0125 48.8487C35.0917 48.7467 35.0864 48.7472 34.9619 48.8533C34.8387 48.9582 34.8337 48.9825 34.9175 49.0663C34.9903 49.1392 34.9952 49.1814 34.9387 49.2495C34.8983 49.2982 34.8894 49.338 34.9189 49.338C34.9484 49.338 34.909 49.3825 34.8315 49.4368C34.7538 49.4911 34.6904 49.5679 34.6904 49.6074C34.6904 49.6468 34.7689 49.6079 34.8649 49.5208C34.961 49.4337 35.1564 49.2881 35.2992 49.1973C35.445 49.1046 35.5961 48.9423 35.6437 48.8273C35.7211 48.6405 35.7328 48.6339 35.7766 48.7525C35.8031 48.8239 35.8295 50.5059 35.8354 52.4903C35.8444 55.4967 35.8319 56.0948 35.7602 56.0778C35.6952 56.0624 35.6921 56.0756 35.7473 56.1319C35.7974 56.1828 35.8022 56.2692 35.7626 56.4061C35.7242 56.5391 35.7292 56.6655 35.7778 56.7836C35.8232 56.8939 35.8373 57.1402 35.815 57.4342C35.7954 57.6944 35.7985 57.9073 35.822 57.9073C35.8568 57.9073 35.8671 61.1779 35.8337 61.6207C35.8284 61.6905 35.7525 61.5621 35.6649 61.3354C35.4866 60.8736 35.4189 60.7644 35.4877 61.0495C35.5502 61.3083 35.8879 62.1442 35.898 62.065C35.9183 61.907 35.9616 61.7629 36.2082 61.0321C36.5197 60.1094 36.9367 58.4679 37.0464 57.7327C37.0893 57.4447 37.1441 57.2091 37.168 57.2091C37.2183 57.2091 37.3426 56.4641 37.3851 55.9078C37.4011 55.6983 37.4441 55.3555 37.4807 55.1461C37.6204 54.3442 37.6559 53.844 37.6403 52.8927C37.6294 52.2286 37.6477 51.879 37.6966 51.8172C37.7548 51.7436 37.7504 51.7369 37.6738 51.783C37.5932 51.8316 37.594 51.8164 37.6794 51.6841C37.7987 51.4995 37.8845 51.1153 37.8066 51.1153C37.7766 51.1153 37.7371 51.0581 37.7188 50.9883C37.7006 50.9184 37.7115 50.8772 37.7431 50.8968C37.7748 50.9164 37.8007 50.8433 37.8007 50.7345C37.8007 50.5995 37.7771 50.5511 37.7265 50.5824C37.6772 50.6129 37.6653 50.5943 37.691 50.5273C37.7122 50.4718 37.6886 50.3922 37.6383 50.3505C37.5879 50.3087 37.5468 50.1924 37.5468 50.0919C37.5468 49.9886 37.5123 49.9088 37.4675 49.9083C37.4107 49.9076 37.4086 49.8941 37.4601 49.8607C37.5043 49.832 37.5288 49.6345 37.5236 49.3477C37.5189 49.0913 37.534 48.8698 37.5571 48.8555C37.5802 48.8413 37.5885 48.7511 37.5754 48.6553C37.5181 48.2327 37.5005 47.3702 37.5494 47.3702C37.5789 47.3702 37.5912 47.3089 37.5768 47.2341C37.5624 47.1593 37.5704 47.0665 37.5946 47.0278C37.6634 46.9181 37.6635 46.4804 37.5948 46.5228C37.5614 46.5435 37.5697 46.494 37.6131 46.4129C37.7058 46.2396 37.7249 43.2697 37.6338 43.179C37.6034 43.1488 37.5968 42.7155 37.619 42.2161C37.6413 41.7167 37.6647 40.6369 37.6711 39.8165C37.6781 38.9178 37.7044 38.3752 37.7372 38.4517C37.7852 38.5634 37.7923 38.5572 37.7963 38.4004C37.7989 38.2968 37.7741 38.2385 37.7372 38.2613C37.7004 38.2841 37.6756 38.2258 37.6782 38.1222C37.682 37.9745 37.6909 37.9649 37.7306 38.0662C37.801 38.2459 37.8474 38.0748 37.8283 37.7059C37.8198 37.5401 37.8386 37.4044 37.8702 37.4044C37.9018 37.4044 37.9277 37.7662 37.9277 38.2084C37.9277 39.6156 37.9762 39.0225 38.0091 37.2139C38.0292 36.1046 38.0679 35.399 38.1152 35.2779C38.1695 35.1388 38.17 35.1068 38.1171 35.1591C38.0772 35.1986 38.0269 35.3557 38.0052 35.5083L37.9659 35.7857L37.9234 35.5377C37.8983 35.391 37.9161 35.1577 37.967 34.9664C38.0721 34.5719 38.0826 34.4054 37.9936 34.5461C37.9296 34.6472 37.8476 34.6006 37.8256 34.4506C37.8174 34.3945 37.8415 34.3746 37.8857 34.4011C37.9344 34.4304 37.9326 34.4122 37.8803 34.3475C37.8167 34.269 37.8188 34.1907 37.8908 33.9515C37.9401 33.7875 38.0132 33.6139 38.0532 33.5658C38.0932 33.5176 38.1196 33.4404 38.1119 33.3942C38.0934 33.2817 38.1838 33.0819 38.2381 33.1154C38.2619 33.1301 38.2813 33.0905 38.2813 33.0275C38.2813 32.9601 38.2411 32.919 38.1839 32.9279C38.1302 32.9362 38.0628 32.9114 38.0339 32.8727C38.0003 32.8275 37.9917 32.8364 38.0101 32.8975C38.0259 32.9499 38.0697 32.986 38.1075 32.9778C38.1453 32.9695 38.1175 33.0624 38.0457 33.1841C37.8948 33.4398 37.8642 33.4551 37.8642 33.2747C37.8642 33.2028 37.8898 33.1598 37.921 33.1791C37.9523 33.1984 37.9955 33.1683 38.017 33.1123C38.044 33.0417 38.0285 33.0209 37.9663 33.0448C37.8262 33.0986 37.7984 33.0235 37.9007 32.8675C37.952 32.7891 37.9771 32.681 37.9566 32.6273C37.9359 32.5735 37.9468 32.5123 37.9809 32.4913C38.0149 32.4703 38.0266 32.3915 38.007 32.3163C37.9849 32.2321 37.996 32.1948 38.0357 32.2194C38.0748 32.2435 38.0929 32.1922 38.0816 32.0895C38.0714 31.9961 38.0819 31.8898 38.1051 31.8532C38.1283 31.8167 38.1552 31.603 38.165 31.3784C38.1755 31.137 38.2197 30.9293 38.2732 30.8702C38.3631 30.7709 38.3755 30.1503 38.2894 30.0642C38.2677 30.0426 38.3547 29.8969 38.4828 29.7406C38.6109 29.5843 38.7219 29.4141 38.7294 29.3623C38.7371 29.3106 38.7883 29.2185 38.8433 29.1578C38.9564 29.0327 38.9712 28.962 38.8841 28.962C38.8515 28.962 38.8076 29.012 38.7866 29.0731C38.7656 29.1341 38.6589 29.2841 38.5496 29.4063C38.3827 29.593 38.3686 29.5997 38.4618 29.4484C38.5227 29.3494 38.5559 29.2517 38.5355 29.2313C38.5152 29.2109 38.5421 29.1277 38.5955 29.0464C38.6867 28.9071 38.6717 28.8687 38.5358 28.8946C38.5037 28.9007 38.5144 28.8612 38.5595 28.8069C38.6046 28.7525 38.6202 28.7081 38.5942 28.7081C38.5682 28.7081 38.5861 28.6598 38.634 28.6007C38.6932 28.5277 38.6957 28.5086 38.6418 28.541C38.5918 28.571 38.5624 28.5519 38.5624 28.4897C38.5624 28.3907 38.6889 28.379 38.7576 28.4716C38.7776 28.4985 38.849 28.4562 38.9163 28.3774C39.0171 28.2593 39.0188 28.2495 38.9259 28.3215C38.7528 28.4556 38.7348 28.3677 38.8932 28.1624C39.0221 27.9952 39.008 28.0003 38.7407 28.2161C38.559 28.3628 38.4363 28.4249 38.4207 28.378C38.4048 28.3303 38.38 28.3418 38.3542 28.409C38.3316 28.468 38.3335 28.5093 38.3584 28.501C38.3834 28.4927 38.4037 28.5138 38.4037 28.548C38.4037 28.5821 38.3679 28.6153 38.3241 28.6218C38.2803 28.6282 38.2582 28.6112 38.275 28.5841C38.3203 28.5107 38.0855 28.3191 38.0184 28.3747C37.9867 28.401 38.0149 28.3582 38.081 28.2796C38.1472 28.201 38.179 28.1368 38.1519 28.1368C38.1248 28.1368 38.134 28.099 38.1723 28.0528C38.2234 27.9912 38.2212 27.9475 38.1642 27.8896C38.1209 27.8455 38.1163 27.8194 38.1539 27.8308C38.191 27.8419 38.3146 27.7583 38.4286 27.6449C38.6142 27.46 38.6276 27.4091 38.4854 27.4303C38.4604 27.434 38.4566 27.3938 38.4769 27.3409C38.5073 27.2618 38.532 27.2591 38.6175 27.3258C38.7092 27.3975 38.7114 27.3944 38.6363 27.2985C38.5358 27.1702 38.5924 27.0471 38.7404 27.0718C38.8514 27.0904 38.8903 26.9458 38.8054 26.8302C38.7397 26.7408 38.4624 26.7656 38.4831 26.8591C38.4918 26.8985 38.4561 26.9307 38.4037 26.9307C38.2579 26.9307 38.2902 26.8304 38.475 26.7093C38.5667 26.6492 38.6194 26.6361 38.5922 26.6801C38.5601 26.7319 38.5685 26.7441 38.6163 26.7145C38.6665 26.6835 38.6703 26.6328 38.6283 26.5544C38.5946 26.4912 38.5831 26.4235 38.6027 26.4038C38.6225 26.384 38.6148 26.3303 38.5856 26.2844C38.5565 26.2383 38.5309 26.1722 38.5288 26.1373C38.5266 26.1024 38.4953 26.0794 38.459 26.0861C38.4228 26.0929 38.3932 26.0567 38.3932 26.0057C38.3932 25.9371 38.4314 25.9488 38.5393 26.0502C38.6197 26.1257 38.6724 26.2086 38.6564 26.2345C38.6404 26.2604 38.6695 26.3166 38.7211 26.3595C38.7727 26.4023 38.7988 26.4634 38.7792 26.4952C38.7595 26.527 38.7812 26.5452 38.8275 26.5356C38.8737 26.526 38.9058 26.5496 38.8988 26.5881C38.8918 26.6266 38.9915 26.7551 39.1204 26.8737C39.2493 26.9924 39.2905 27.0159 39.2119 26.926C39.1334 26.8362 39.0824 26.7493 39.0988 26.7329C39.1151 26.7166 39.0456 26.6063 38.9443 26.4876C38.8431 26.369 38.7754 26.2474 38.7939 26.2174C38.8441 26.1363 39.012 26.2984 38.965 26.3825C38.9392 26.4288 38.9544 26.4271 39.0076 26.3779C39.0736 26.3168 39.1556 26.3556 39.4097 26.5683C39.5852 26.7153 39.7377 26.8284 39.7486 26.8197C39.8233 26.7599 39.8325 26.8234 39.7625 26.9149C39.7157 26.9759 39.7009 27.0063 39.7295 26.9824C39.7581 26.9584 39.849 26.9645 39.9314 26.9959C40.026 27.0318 40.096 27.0293 40.1209 26.989C40.1683 26.9122 40.0293 26.7286 39.9573 26.7731C39.9294 26.7903 39.9148 26.7543 39.9248 26.693C39.9349 26.6318 39.9019 26.5345 39.8517 26.4768C39.7796 26.3943 39.7771 26.3616 39.84 26.3228C39.8852 26.2948 39.9305 26.3058 39.9446 26.3482C39.9583 26.3893 40.0014 26.4229 40.0404 26.4229C40.0896 26.4229 40.088 26.3997 40.0351 26.3468C39.9932 26.3049 39.9589 26.2345 39.9589 26.1904C39.9589 26.1325 40.0431 26.146 40.2604 26.239L40.562 26.3681L40.3492 26.1778C40.2321 26.0731 40.1533 25.9601 40.1739 25.9267C40.1946 25.8934 40.1546 25.8512 40.0852 25.833C40.0157 25.8149 39.9589 25.7526 39.9589 25.6946C39.9589 25.6146 39.9929 25.6 40.1 25.634C40.3507 25.7135 41.0595 25.6698 41.4506 25.5506C41.7436 25.4613 41.8859 25.4485 42.0674 25.4951C42.2303 25.5369 42.3481 25.5332 42.4482 25.4832C42.5832 25.4157 42.5801 25.4131 42.4028 25.4458C42.2568 25.4728 42.2346 25.4653 42.3076 25.4134C42.5028 25.2747 42.8785 25.3652 43.0502 25.5922C43.1151 25.678 43.121 25.6714 43.09 25.5482C43.0237 25.2853 42.8319 25.2112 42.3076 25.2461C41.8178 25.2786 41.8416 25.2584 42.498 25.0847C42.6551 25.0432 42.8241 24.9978 42.8736 24.984C43.051 24.9343 42.8265 24.8167 42.5423 24.8104L42.2633 24.8043L42.4118 24.58C42.6023 24.2919 42.7201 23.7139 42.6529 23.3963C42.6058 23.174 42.5976 23.1969 42.5544 23.6717C42.5061 24.2027 42.4097 24.4722 42.2029 24.6542C42.0286 24.8077 41.6082 25.0052 41.3554 25.0524L41.1332 25.0939L41.3554 24.9868C41.4776 24.9279 41.6011 24.8848 41.6299 24.8912C41.6587 24.8975 41.6676 24.8789 41.6496 24.8499C41.6317 24.821 41.7174 24.7432 41.8399 24.6773C42.1094 24.5321 42.4101 24.1665 42.4696 23.9119C42.5091 23.7423 42.5049 23.7358 42.4238 23.8408C42.3747 23.9043 42.307 23.9509 42.2734 23.9443C42.114 23.913 42.0535 23.9615 42.0516 24.1219C42.0505 24.2179 42.0144 24.3428 41.9713 24.3994C41.8276 24.588 41.4033 24.8361 41.2354 24.8295C41.0757 24.8233 41.0766 24.8214 41.2602 24.777C41.8343 24.6385 42.201 24.0744 41.8867 23.8135C41.7937 23.7363 41.7877 23.748 41.8275 23.929C41.9246 24.3712 41.6168 24.5992 40.8981 24.6173C40.5588 24.6258 40.4179 24.6098 40.4755 24.5692C40.5362 24.5265 40.5126 24.519 40.3965 24.5441C40.178 24.5914 39.2562 24.1414 38.6577 23.6953C38.4133 23.5131 38.1321 23.3218 38.0329 23.2702C37.9336 23.2185 37.8697 23.1589 37.8909 23.1378C37.9121 23.1166 37.8505 23.0127 37.754 22.9068C37.6529 22.7959 37.6324 22.7533 37.7055 22.8061C37.8303 22.8962 37.8305 22.8955 37.7152 22.7601C37.649 22.6824 37.6187 22.5886 37.6456 22.5451C37.6745 22.4983 37.6669 22.4841 37.6263 22.5092C37.5883 22.5327 37.5293 22.465 37.4903 22.3533C37.4434 22.2187 37.3916 22.1673 37.3275 22.1918C37.2758 22.2117 37.2139 22.1962 37.1899 22.1574C37.162 22.1122 37.1755 22.1049 37.2278 22.1373C37.2795 22.1692 37.3 22.1594 37.2837 22.1106C37.2696 22.0682 37.2403 22.0428 37.2186 22.0542C37.197 22.0655 37.1241 22.0248 37.0567 21.9638C36.9708 21.8861 36.9424 21.7956 36.9619 21.6623C36.9774 21.5575 36.9614 21.4718 36.9265 21.4718C36.8915 21.4718 36.8506 21.3876 36.8355 21.2847C36.8205 21.1818 36.8314 21.112 36.8601 21.1297C36.8886 21.1474 36.912 21.1347 36.912 21.1014C36.912 21.0682 36.8629 21.0222 36.8027 20.999C36.7108 20.9638 36.708 20.9481 36.7847 20.9007C36.8397 20.8668 36.9065 20.8695 36.9524 20.9076C37.0077 20.9535 37.0241 20.9394 37.0116 20.8564C37.0008 20.7837 36.9446 20.7446 36.8581 20.7494C36.7135 20.7575 36.6715 20.6216 36.7949 20.5453C36.8434 20.5153 36.8508 20.5281 36.8168 20.5831C36.7822 20.6391 36.7902 20.6509 36.8413 20.6193C36.8831 20.5935 36.8998 20.5176 36.8785 20.4505C36.8573 20.3835 36.8329 20.2633 36.8244 20.1834C36.8159 20.1035 36.789 20.0061 36.7648 19.9669C36.7405 19.9276 36.7495 19.8198 36.7847 19.7273C36.8274 19.6151 36.8275 19.5197 36.7851 19.4405C36.7021 19.2855 36.7036 18.9126 36.7874 18.8288C36.8329 18.7833 36.8326 18.7086 36.7865 18.5873C36.6993 18.3579 36.7732 17.395 36.8734 17.455C36.9121 17.4781 36.9075 17.4522 36.8631 17.3974C36.8032 17.3234 36.7994 17.2529 36.8484 17.1239C36.9014 16.9847 36.8837 16.8598 36.7599 16.4973C36.6748 16.2483 36.574 15.8303 36.536 15.5684C36.4586 15.0369 36.4136 11.6774 36.4762 11.1092C36.504 10.8564 36.4943 10.7436 36.4444 10.7423C36.4049 10.7412 36.4225 10.7113 36.4836 10.6757C36.5446 10.6401 36.5947 10.5678 36.5947 10.5151C36.5947 10.4624 36.5683 10.4357 36.5361 10.4555C36.5015 10.4769 36.5029 10.4 36.5393 10.268C36.5733 10.1449 36.581 10.0117 36.5563 9.97183C36.5288 9.92727 36.5398 9.9168 36.5848 9.94473C36.6319 9.97374 36.6581 9.9394 36.6581 9.84901C36.6581 9.59205 36.8736 9.00077 37.0181 8.8615C37.1389 8.74496 37.1453 8.71862 37.0607 8.68618C36.9807 8.65546 36.9764 8.62962 37.0389 8.55434C37.0829 8.50134 37.0995 8.39222 37.0771 8.30297C37.034 8.13139 36.6336 7.8243 36.453 7.8243C36.3631 7.8243 36.3408 7.77009 36.3408 7.55198C36.3408 7.23568 36.2035 6.67016 36.0603 6.39607C36.0055 6.29134 35.9605 6.06993 35.9603 5.90413C35.9597 5.47941 35.8499 5.5279 35.8166 5.96761ZM35.7457 6.76538C35.6163 7.12326 35.5297 7.70413 35.6399 7.47517C35.6735 7.40535 35.7466 7.23396 35.8022 7.09431L35.9035 6.84041L36.0264 7.09431C36.1572 7.36466 36.1333 7.22051 35.9665 6.73364L35.8647 6.43644L35.7457 6.76538ZM35.7924 7.57312C35.7564 7.74914 35.7507 7.90796 35.7799 7.92598C35.8091 7.94401 35.835 7.93563 35.8374 7.90739C35.8399 7.87914 35.8561 7.72032 35.8734 7.55452C35.9145 7.16077 35.875 7.16979 35.7924 7.57312ZM35.0418 8.10035C34.9354 8.17824 34.9421 8.18351 35.1144 8.15818C35.3627 8.12175 35.6825 8.42796 35.7452 8.76222L35.7892 8.9969L35.9292 8.62194C36.0208 8.37629 36.1105 8.23778 36.1891 8.22039C36.5449 8.14149 36.7221 8.13679 36.8572 8.20255C36.9956 8.26996 36.9982 8.26831 36.8903 8.18148C36.826 8.12974 36.6607 8.06836 36.5231 8.04513C36.2452 7.99816 36.1371 8.05732 35.9549 8.35597L35.8437 8.53847L35.7101 8.27663C35.5944 8.04989 35.5484 8.01472 35.3677 8.01472C35.2529 8.01472 35.1063 8.05326 35.0418 8.10035ZM34.8447 8.46382C34.7268 8.59414 34.7273 8.59509 34.8854 8.55542C35.0129 8.52343 35.1047 8.56773 35.34 8.77486L35.6348 9.03435L35.5778 8.83579C35.4417 8.36112 35.0963 8.18586 34.8447 8.46382ZM36.6264 8.44414C36.5915 8.46979 36.5555 8.52736 36.5464 8.57199C36.5347 8.62943 36.5766 8.62264 36.6892 8.54882C36.7769 8.49143 36.8486 8.43348 36.8486 8.42002C36.8486 8.37826 36.6932 8.39514 36.6264 8.44414ZM36.3804 8.6837C36.3191 8.84328 36.3371 8.88448 36.412 8.75581C36.4491 8.69208 36.466 8.62658 36.4496 8.61026C36.4333 8.59389 36.4021 8.62696 36.3804 8.6837ZM37.0741 8.91927C37.0606 8.96294 37.052 9.04952 37.0549 9.11179C37.0617 9.25836 37.1819 9.14607 37.2091 8.96776C37.2302 8.82989 37.1143 8.78831 37.0741 8.91927ZM36.4953 9.03702C36.4809 9.06037 36.5091 9.11262 36.558 9.15318C36.6188 9.2037 36.6598 9.20593 36.688 9.16041C36.7106 9.12379 36.706 9.09338 36.6778 9.09287C36.6495 9.0923 36.6689 9.06501 36.7208 9.03219C36.7944 8.98566 36.7829 8.97493 36.6684 8.98357C36.5876 8.98966 36.5097 9.01372 36.4953 9.03702ZM35.6027 9.63173C35.5457 9.78014 35.6002 9.80578 35.8666 9.75576C36.1069 9.71069 36.0867 9.6655 35.785 9.5732C35.6833 9.5421 35.6305 9.55905 35.6027 9.63173ZM35.7377 9.91553C35.5981 9.98161 35.5124 10.0359 35.5473 10.0361C35.6339 10.0367 36.1348 9.80229 36.0551 9.79842C36.0202 9.79677 35.8774 9.84945 35.7377 9.91553ZM35.6108 10.1126C35.4304 10.1494 35.4355 10.1539 35.7097 10.1993C35.8689 10.2256 36.0831 10.2376 36.1858 10.2259C36.3545 10.2067 36.3451 10.1984 36.0869 10.1392C35.9297 10.1032 35.7155 10.0912 35.6108 10.1126ZM35.6584 10.7228C35.5169 10.7799 35.5735 10.8814 35.7219 10.8366C35.924 10.7755 36.0128 10.6796 35.8615 10.6858C35.7934 10.6885 35.7021 10.7052 35.6584 10.7228ZM35.579 11.2524C35.579 11.2921 35.705 11.3013 35.9123 11.2767C36.3631 11.2233 36.3735 11.1886 35.9388 11.1886C35.7399 11.1886 35.579 11.2171 35.579 11.2524ZM35.5818 11.7864C35.5246 11.8932 35.5134 12.0499 35.5448 12.3013L35.59 12.6627L35.6831 12.483C35.8043 12.2496 35.8458 11.6329 35.7404 11.6329C35.6984 11.6329 35.627 11.702 35.5818 11.7864ZM35.4077 14.9337C35.4077 15.1257 35.4195 15.2042 35.4341 15.1082C35.4486 15.0123 35.4486 14.8551 35.4341 14.7591C35.4195 14.6631 35.4077 14.7417 35.4077 14.9337ZM35.0762 16.9384C35.0793 17.0124 35.0943 17.0274 35.1146 16.9769C35.1329 16.931 35.1306 16.8762 35.1096 16.8552C35.0885 16.8341 35.0735 16.8715 35.0762 16.9384ZM35.4534 17.9475C35.2999 18.1039 35.1869 18.2435 35.2021 18.2577C35.2174 18.2719 35.3536 18.144 35.5049 17.9734C35.8488 17.5854 35.822 17.5719 35.4534 17.9475ZM35.2617 19.1528C35.2617 19.2291 35.3166 19.2503 35.4848 19.239C35.7572 19.2207 35.7415 19.099 35.4631 19.0715C35.3127 19.0567 35.2617 19.0773 35.2617 19.1528ZM35.3329 19.6883C35.1911 19.7781 35.3141 19.8899 35.5036 19.8436C35.5975 19.8206 35.6888 19.78 35.7066 19.7533C35.7243 19.7266 35.8386 19.6927 35.9605 19.678C36.1062 19.6604 36.0516 19.6481 35.8012 19.642C35.5917 19.637 35.381 19.6578 35.3329 19.6883ZM35.2811 20.3066C35.1687 20.3523 35.2567 20.5196 35.3932 20.5196C35.4581 20.5196 35.5417 20.4625 35.579 20.3927C35.6379 20.2825 35.6277 20.2663 35.5019 20.2707C35.4221 20.2734 35.3228 20.2896 35.2811 20.3066ZM35.3727 21.0077C35.3117 21.0237 35.2617 21.0806 35.2617 21.1342C35.2617 21.2523 35.5417 21.2008 35.6864 21.056C35.7669 20.9756 35.7599 20.9649 35.6312 20.9713C35.5502 20.9754 35.4338 20.9917 35.3727 21.0077ZM35.3736 21.6927C34.9294 21.8055 34.493 22.229 34.3254 22.7096C34.2889 22.8143 34.2387 22.95 34.214 23.0111C34.1892 23.0721 34.1957 23.1221 34.2284 23.1221C34.2611 23.1221 34.3536 22.9818 34.4339 22.8103C34.5974 22.461 34.9364 22.0832 35.2156 21.9388C35.4786 21.8029 36.0008 21.7286 36.0879 21.8149C36.1387 21.8654 36.1463 21.854 36.1155 21.7733C36.0923 21.7122 36.0406 21.6598 36.0007 21.6569C35.9608 21.654 35.867 21.6447 35.7923 21.6363C35.7175 21.6278 35.5291 21.6532 35.3736 21.6927ZM37.0655 21.7098C37.09 21.7536 37.0763 21.7891 37.035 21.7891C36.98 21.7891 36.9817 21.8153 37.0412 21.887C37.098 21.9554 37.1426 21.9648 37.1891 21.9183C37.2356 21.8719 37.2203 21.8183 37.1384 21.7411C37.0739 21.6802 37.0411 21.6662 37.0655 21.7098ZM35.2226 22.4344C34.7743 22.7711 34.3485 23.2575 34.6875 23.0457C34.7558 23.0031 34.7988 22.9555 34.7832 22.94C34.7442 22.9009 34.8828 22.7413 34.9558 22.7413C34.9885 22.7413 34.9978 22.7695 34.9765 22.8041C34.9538 22.8407 34.9808 22.8502 35.0415 22.8269C35.1246 22.7951 35.1284 22.7764 35.0607 22.7334C34.9958 22.6923 35.002 22.6795 35.0871 22.6788C35.1482 22.6783 35.1911 22.6457 35.1823 22.6064C35.1736 22.5671 35.2027 22.5217 35.247 22.5055C35.3115 22.4819 35.3122 22.5099 35.2506 22.6449C35.1875 22.7836 35.1901 22.8243 35.2653 22.8717C35.4024 22.9584 35.4864 22.9057 35.4633 22.7474C35.452 22.6701 35.4775 22.565 35.5199 22.5139C35.5839 22.4368 35.5766 22.4275 35.4769 22.4594C35.3621 22.4961 35.3622 22.4934 35.4801 22.3974C35.6786 22.2356 35.4421 22.2697 35.2226 22.4344ZM35.7695 22.3957C35.8912 22.4679 35.9001 22.4859 35.8078 22.4727C35.7416 22.4633 35.6735 22.4957 35.6565 22.5446C35.6336 22.6102 35.6635 22.6237 35.7701 22.5958C35.8787 22.5674 35.8966 22.5761 35.8421 22.6306C35.7432 22.7295 35.7508 22.8048 35.8597 22.8048C35.9214 22.8048 35.9453 22.743 35.9351 22.6096C35.921 22.4244 35.8138 22.2973 35.6743 22.3002C35.6393 22.3009 35.6822 22.3439 35.7695 22.3957ZM35.5549 22.8599C35.4488 22.9771 35.4503 22.9868 35.5894 23.0842C35.7266 23.1803 35.7377 23.1783 35.786 23.0474C35.8199 22.9559 35.8082 22.8797 35.7515 22.8231C35.6795 22.7511 35.648 22.757 35.5549 22.8599ZM33.0876 22.8468C33.1313 22.8644 33.2027 22.8644 33.2463 22.8468C33.2899 22.8292 33.2542 22.8148 33.1669 22.8148C33.0797 22.8148 33.044 22.8292 33.0876 22.8468ZM37.9455 23.4762C38.1452 23.601 38.3085 23.7126 38.3085 23.7241C38.3085 23.7355 38.0838 23.7295 37.8091 23.7107C37.365 23.6802 37.2701 23.6946 36.9522 23.8401C36.7555 23.9301 36.5947 24.0202 36.5947 24.0403C36.5947 24.0605 36.7161 24.0135 36.8644 23.936C37.0699 23.8288 37.2403 23.7957 37.5786 23.7972C38.1143 23.7996 38.505 23.8409 38.6111 23.9064C38.6542 23.9331 38.6894 23.9383 38.6894 23.9181C38.6894 23.865 37.7341 23.2491 37.6517 23.2491C37.6137 23.2491 37.7459 23.3513 37.9455 23.4762ZM33.7701 23.5077C33.6305 23.5773 33.478 23.6726 33.4312 23.7194C33.36 23.7906 33.3911 23.7999 33.6215 23.7763C34.3113 23.7056 34.7344 23.7296 34.9195 23.8501C35.0285 23.9211 35.0741 23.9328 35.0317 23.8791C34.9926 23.8293 34.9678 23.7445 34.9767 23.6905C34.9861 23.6329 34.9427 23.5886 34.8716 23.5832C34.805 23.5782 34.6612 23.5295 34.552 23.4751C34.2907 23.3447 34.0792 23.3535 33.7701 23.5077ZM36.5196 23.6597C36.2871 23.8157 36.0754 23.9799 36.0492 24.0247C36.023 24.0694 36.0564 24.0592 36.1235 24.0019C36.1906 23.9447 36.4285 23.7804 36.6521 23.6369C36.8757 23.4934 37.0325 23.3761 37.0005 23.3761C36.9686 23.3761 36.7522 23.5037 36.5196 23.6597ZM35.706 23.4638C35.706 23.4772 35.7632 23.5031 35.833 23.5214C35.9029 23.5397 35.9441 23.5287 35.9245 23.4971C35.8903 23.4418 35.706 23.4138 35.706 23.4638ZM28.7877 23.6173C28.7873 23.6975 28.8293 23.845 28.881 23.9449C28.982 24.1401 29.2923 24.4154 29.3483 24.3594C29.3671 24.3406 29.3168 24.2793 29.2367 24.2231C29.1565 24.167 29.0228 23.9748 28.9396 23.7961C28.8329 23.5671 28.7881 23.5143 28.7877 23.6173ZM35.5331 23.6885C35.5409 23.773 35.587 23.8552 35.6355 23.8712C35.689 23.8889 35.7062 23.8721 35.6793 23.8286C35.651 23.7828 35.6909 23.7569 35.7897 23.7569C35.8748 23.7569 35.9822 23.7069 36.0284 23.6458C36.0999 23.5513 36.0992 23.5466 36.0235 23.6141C35.9746 23.6578 35.8814 23.6934 35.8165 23.6934C35.739 23.6934 35.7149 23.6662 35.7462 23.6141C35.7822 23.554 35.7692 23.5547 35.6926 23.6168C35.6099 23.6837 35.5848 23.6837 35.5551 23.6168C35.5352 23.5716 35.5253 23.6039 35.5331 23.6885ZM33.6113 23.6934C33.5541 23.7304 33.5462 23.7553 33.5917 23.756C33.6332 23.7565 33.6849 23.7283 33.7065 23.6934C33.7552 23.6146 33.7332 23.6146 33.6113 23.6934ZM29.4218 23.8521C29.3849 23.9491 29.3691 24.0427 29.3865 24.0601C29.404 24.0776 29.4484 24.0126 29.4853 23.9156C29.5222 23.8186 29.538 23.725 29.5206 23.7076C29.5031 23.6901 29.4587 23.7551 29.4218 23.8521ZM36.3961 23.9315C36.3172 24.0321 36.3194 24.0344 36.4201 23.9555C36.5259 23.8725 36.5594 23.8204 36.5072 23.8204C36.4941 23.8204 36.444 23.8704 36.3961 23.9315ZM35.2193 24.1695C35.2193 24.2069 35.2669 24.2375 35.3251 24.2375C35.3833 24.2375 35.431 24.2069 35.431 24.1695C35.431 24.1321 35.3833 24.1015 35.3251 24.1015C35.2669 24.1015 35.2193 24.1321 35.2193 24.1695ZM36.1979 24.1741C35.9607 24.3028 35.9751 24.3564 36.2138 24.233C36.3185 24.1788 36.4042 24.121 36.4042 24.1044C36.4042 24.0636 36.3974 24.0659 36.1979 24.1741ZM39.7365 24.1913C39.8057 24.273 39.9198 24.3694 39.99 24.4053C40.1248 24.4744 40.1051 24.4531 39.8007 24.2003C39.6174 24.0481 39.6151 24.0478 39.7365 24.1913ZM35.2445 24.3666C35.2263 24.3847 35.3297 24.5097 35.4741 24.6445C35.6662 24.8237 35.758 24.8719 35.8159 24.8238C35.8594 24.7877 35.8766 24.7284 35.8541 24.692C35.8317 24.6557 35.8425 24.644 35.8781 24.666C35.9138 24.6881 35.996 24.6425 36.0608 24.5647C36.1256 24.487 36.138 24.4592 36.0883 24.5028C35.9603 24.6152 35.8938 24.6011 35.9391 24.471C35.9756 24.3666 35.9711 24.3664 35.8639 24.4673C35.7566 24.5682 35.7356 24.5674 35.5135 24.4541C35.3837 24.3879 35.2625 24.3485 35.2445 24.3666ZM32.5322 24.6773C32.4449 24.7272 32.402 24.768 32.437 24.768C32.4719 24.768 32.5718 24.7272 32.6591 24.6773C32.7464 24.6274 32.7892 24.5866 32.7543 24.5866C32.7194 24.5866 32.6194 24.6274 32.5322 24.6773ZM28.6099 24.9451C28.4591 25.0428 28.3181 25.1962 28.2809 25.3029C28.1922 25.5573 28.1974 25.5706 28.3362 25.4449C28.5382 25.2622 29.0722 25.2492 29.9253 25.4065C30.7689 25.562 30.9053 25.5528 31.4623 25.3028C31.8964 25.108 31.9229 25.0522 31.5144 25.1929C30.796 25.4405 30.2495 25.4349 29.5805 25.1734C29.3026 25.0647 28.9359 25.0561 28.607 25.1504C28.4394 25.1985 28.4092 25.1945 28.4616 25.1313C28.498 25.0874 28.6496 25.0444 28.7983 25.0356C29.1274 25.0162 29.1348 25.0101 28.9895 24.8786C28.8812 24.7807 28.8567 24.785 28.6099 24.9451ZM32.1793 24.8712C32.061 24.9661 32.0617 24.9672 32.1989 24.9008C32.2775 24.8627 32.3417 24.8182 32.3417 24.8021C32.3417 24.7535 32.3088 24.7675 32.1793 24.8712ZM42.3393 24.9595C42.2695 24.9876 42.1941 25.0002 42.1719 24.9875C42.1497 24.9748 42.0981 25.0045 42.0573 25.0537C41.9938 25.1303 42.0224 25.1313 42.2574 25.0605C42.4082 25.0151 42.5883 24.9637 42.6576 24.9461C42.7593 24.9204 42.753 24.9136 42.6249 24.9113C42.5377 24.9097 42.4091 24.9314 42.3393 24.9595ZM35.2076 25.097C35.1758 25.1804 35.1411 25.2772 35.1302 25.3121C35.1193 25.347 35.0088 25.4865 34.8845 25.6222C34.634 25.8956 34.3313 26.0512 34.1264 26.0117C34.0526 25.9975 33.9921 26.0108 33.9921 26.0414C33.9921 26.1243 34.3447 26.3595 34.4689 26.3595C34.5284 26.3595 34.5646 26.3952 34.5495 26.4388C34.5344 26.4825 34.5588 26.6324 34.6037 26.7721L34.6853 27.026L34.6543 26.6927C34.6306 26.4375 34.6438 26.3595 34.7105 26.3595C34.828 26.3595 35.0201 26.5786 34.9603 26.6445C34.934 26.6735 34.9474 26.6772 34.9901 26.6527C35.0328 26.6281 35.1407 26.656 35.2301 26.7145C35.3195 26.7731 35.4087 26.8049 35.4284 26.7851C35.4482 26.7654 35.5567 26.8012 35.6698 26.8647C35.8256 26.9523 35.8753 26.9598 35.8753 26.8955C35.8753 26.8489 35.8586 26.815 35.8382 26.8202C35.8179 26.8252 35.687 26.7705 35.5473 26.6985C35.4077 26.6264 35.2537 26.5816 35.2052 26.5987C35.1511 26.6178 35.1343 26.6019 35.1616 26.5577C35.1869 26.5168 35.1563 26.4674 35.0911 26.4439C35.0278 26.421 34.9002 26.3498 34.8075 26.2856C34.7149 26.2215 34.572 26.1684 34.4902 26.1676C34.3582 26.1663 34.3652 26.1544 34.5513 26.0626C34.7976 25.9412 35.2274 25.4424 35.1681 25.3466C35.1456 25.3101 35.1541 25.2804 35.187 25.2804C35.2501 25.2804 35.3396 25.0198 35.2926 24.9728C35.2776 24.9577 35.2393 25.0136 35.2076 25.097ZM35.6002 25.0554C35.6002 25.1062 35.6245 25.1328 35.6541 25.1145C35.6838 25.0961 35.6916 25.0546 35.6715 25.0221C35.6202 24.939 35.6002 24.9484 35.6002 25.0554ZM35.8506 25.0423C35.7334 25.194 35.6988 25.2804 35.7555 25.2804C35.7869 25.2804 35.8451 25.2089 35.8849 25.1217C35.9631 24.9499 35.9484 24.9158 35.8506 25.0423ZM32.2701 25.201C32.1912 25.3017 32.1935 25.3039 32.2941 25.225C32.3999 25.142 32.4335 25.0899 32.3812 25.0899C32.3681 25.0899 32.3181 25.1399 32.2701 25.201ZM36.5362 25.1904C36.5392 25.2644 36.5543 25.2794 36.5745 25.2288C36.5929 25.183 36.5906 25.1282 36.5695 25.1071C36.5485 25.086 36.5335 25.1235 36.5362 25.1904ZM39.4511 25.1139C39.4511 25.1271 39.5011 25.1771 39.5622 25.225C39.6629 25.3039 39.6651 25.3017 39.5862 25.201C39.5032 25.0953 39.4511 25.0617 39.4511 25.1139ZM40.5183 25.1333C40.5641 25.1516 40.6189 25.1493 40.64 25.1283C40.661 25.1072 40.6236 25.0922 40.5567 25.0949C40.4827 25.098 40.4677 25.113 40.5183 25.1333ZM41.6093 25.3438C41.5569 25.3777 41.5427 25.4053 41.5776 25.4053C41.6125 25.4053 41.6839 25.3777 41.7363 25.3438C41.7886 25.31 41.8029 25.2823 41.768 25.2823C41.7331 25.2823 41.6617 25.31 41.6093 25.3438ZM36.5987 25.4146C36.5965 25.471 36.6508 25.5886 36.7195 25.6759C36.7882 25.7632 36.8286 25.8504 36.8093 25.8697C36.7692 25.9099 36.9821 26.0402 37.2612 26.1461L37.4516 26.2184L37.2929 26.2849C37.2056 26.3215 37.1771 26.3523 37.2294 26.3533C37.3144 26.355 37.6103 26.153 37.6103 26.0934C37.6103 26.0803 37.5379 26.0638 37.4495 26.0565C37.1218 26.0293 36.7897 25.7806 36.6655 25.4694C36.6275 25.3742 36.6011 25.3526 36.5987 25.4146ZM39.5688 25.4712C39.4658 25.5586 39.4539 25.5859 39.5305 25.5593C39.6073 25.5326 39.6415 25.5533 39.6415 25.6264C39.6415 25.6846 39.613 25.7145 39.5781 25.6929C39.4747 25.6291 39.5057 25.702 39.622 25.7963C39.6811 25.8441 39.7111 25.8528 39.6887 25.8153C39.6664 25.7779 39.6875 25.6713 39.7357 25.5784C39.8476 25.3627 39.7618 25.3076 39.5688 25.4712ZM31.8893 25.5184C31.8104 25.6191 31.8126 25.6213 31.9133 25.5424C32.019 25.4594 32.0526 25.4073 32.0004 25.4073C31.9872 25.4073 31.9372 25.4573 31.8893 25.5184ZM31.9021 25.7508C31.8513 25.812 31.8488 25.8534 31.8943 25.8815C31.983 25.9363 32.0878 25.8664 32.0878 25.7527C32.0878 25.6361 31.998 25.6352 31.9021 25.7508ZM35.3689 25.7534C35.3183 25.8041 35.2591 25.8279 35.2375 25.8063C35.2159 25.7847 35.1982 25.8004 35.1982 25.841C35.1982 25.8818 35.2216 25.9151 35.2502 25.9151C35.2789 25.9151 35.4289 26.0218 35.5835 26.1522C35.7382 26.2826 35.8347 26.3468 35.7979 26.295C35.7056 26.1646 35.6809 25.7882 35.7647 25.7882C35.8022 25.7882 35.8329 25.7596 35.8329 25.7247C35.8329 25.6271 35.4729 25.6494 35.3689 25.7534ZM37.8627 25.7269C37.7938 25.7705 37.791 25.7864 37.8521 25.7872C37.9005 25.7878 37.9161 25.8213 37.8895 25.8675C37.8644 25.9112 37.8675 25.9254 37.8965 25.8991C37.9255 25.8728 38.0005 25.8979 38.0633 25.9547C38.1533 26.0362 38.1632 26.0849 38.1097 26.1847C38.0725 26.2543 38.0673 26.2957 38.0983 26.2765C38.1293 26.2573 38.1924 26.327 38.2385 26.4312C38.2847 26.5353 38.3376 26.6054 38.3563 26.5868C38.3749 26.5682 38.354 26.5094 38.3098 26.4562C38.2656 26.403 38.2508 26.3595 38.2768 26.3595C38.3028 26.3595 38.2896 26.3179 38.2473 26.267C38.2052 26.2162 38.1879 26.1467 38.2089 26.1127C38.2299 26.0787 38.2176 26.0326 38.1816 26.0103C38.1455 25.9881 38.1301 25.947 38.1473 25.9192C38.2051 25.8257 37.964 25.6629 37.8627 25.7269ZM37.9277 25.7487C37.9277 25.7618 37.9777 25.8118 38.0388 25.8598C38.1394 25.9387 38.1417 25.9364 38.0628 25.8358C37.9798 25.73 37.9277 25.6964 37.9277 25.7487ZM35.4339 25.8297C35.4111 25.8665 35.47 25.9651 35.5647 26.0487C35.6843 26.1544 35.7056 26.162 35.6345 26.0738C35.5782 26.004 35.5194 25.9054 35.5038 25.8548C35.4858 25.7967 35.46 25.7874 35.4339 25.8297ZM34.8808 25.9786C34.8236 26.0155 34.8157 26.0405 34.8612 26.0411C34.9028 26.0416 34.9544 26.0135 34.976 25.9786C35.0247 25.8998 35.0027 25.8998 34.8808 25.9786ZM36.5947 25.9391C36.5947 25.9522 36.6447 26.0023 36.7057 26.0502C36.8064 26.1291 36.8086 26.1269 36.7297 26.0262C36.6468 25.9204 36.5947 25.8869 36.5947 25.9391ZM36.8486 26.2325C36.8486 26.2674 36.8789 26.296 36.9158 26.296C36.9527 26.296 36.9654 26.2674 36.9438 26.2325C36.9222 26.1976 36.892 26.169 36.8766 26.169C36.8611 26.169 36.8486 26.1976 36.8486 26.2325ZM39.5463 26.2325C39.5679 26.2674 39.5981 26.296 39.6136 26.296C39.629 26.296 39.6415 26.2674 39.6415 26.2325C39.6415 26.1976 39.6113 26.169 39.5743 26.169C39.5374 26.169 39.5247 26.1976 39.5463 26.2325ZM36.1956 26.4712C35.9586 26.6009 35.7961 26.7175 35.8343 26.7302C35.8725 26.7429 35.9521 26.712 36.0112 26.6615C36.0703 26.611 36.2742 26.4938 36.4643 26.4011C36.6545 26.3084 36.7687 26.2331 36.7182 26.2339C36.6677 26.2347 36.4325 26.3414 36.1956 26.4712ZM36.9416 26.4025C36.8705 26.4166 36.7736 26.4913 36.7263 26.5684C36.6426 26.7046 36.6437 26.7055 36.7652 26.5975C36.834 26.5364 36.9221 26.4864 36.9609 26.4864C36.9997 26.4864 37.0492 26.4578 37.0707 26.4229C37.0923 26.388 37.1011 26.3633 37.0904 26.3681C37.0796 26.3728 37.0126 26.3883 36.9416 26.4025ZM39.1972 26.5426C39.1972 26.5735 39.2757 26.649 39.3718 26.7104L39.5463 26.8221L39.3925 26.6542C39.226 26.4728 39.1972 26.4563 39.1972 26.5426ZM37.0866 26.7109C36.928 26.9229 36.9487 26.982 37.1097 26.7773C37.1835 26.6834 37.2335 26.5967 37.2208 26.5845C37.2081 26.5723 37.1477 26.6292 37.0866 26.7109ZM39.9951 26.6062C39.9598 26.6633 40.0406 26.7465 40.2128 26.8303C40.2652 26.8558 40.2509 26.8297 40.1811 26.7723C40.1113 26.7149 40.0612 26.6414 40.07 26.6089C40.0902 26.5339 40.0409 26.5321 39.9951 26.6062ZM34.217 26.7359C34.1969 26.7684 34.2139 26.8157 34.2548 26.8409C34.2991 26.8683 34.3122 26.8595 34.2872 26.819C34.2641 26.7817 34.2811 26.7367 34.325 26.719C34.3821 26.696 34.3832 26.6854 34.3291 26.6819C34.2875 26.6791 34.2371 26.7034 34.217 26.7359ZM36.5312 26.8741C36.5312 27.0477 36.6401 27.0746 36.6718 26.9088C36.6898 26.8145 36.6696 26.7614 36.6156 26.7614C36.5691 26.7614 36.5312 26.8122 36.5312 26.8741ZM35.4677 26.8824C35.4766 26.9265 35.446 26.9546 35.3998 26.945C35.3535 26.9354 35.3338 26.9569 35.3559 26.9926C35.378 27.0284 35.3611 27.0577 35.3183 27.0577C35.2755 27.0577 35.2562 27.0734 35.2754 27.0926C35.2947 27.1118 35.4004 27.0904 35.5103 27.045C35.7029 26.9655 35.7056 26.9596 35.5809 26.8824C35.4769 26.8181 35.4548 26.8181 35.4677 26.8824ZM38.5329 26.8709C38.5755 26.9397 38.4002 27.0635 38.3365 27.0095C38.306 26.9837 38.3198 27.0132 38.3673 27.0751C38.4472 27.1794 38.4623 27.1801 38.5675 27.0848C38.6302 27.0282 38.7093 26.999 38.7433 27.0201C38.7774 27.0411 38.7982 27.0103 38.7896 26.9518C38.781 26.8932 38.7134 26.8408 38.6394 26.8353C38.5654 26.8299 38.5175 26.8459 38.5329 26.8709ZM36.0787 26.9783C35.9998 27.079 36.002 27.0812 36.1027 27.0023C36.1638 26.9544 36.2138 26.9044 36.2138 26.8913C36.2138 26.839 36.1617 26.8726 36.0787 26.9783ZM38.4908 27.0418C38.4119 27.1425 38.4142 27.1447 38.5148 27.0658C38.6206 26.9829 38.6542 26.9307 38.6019 26.9307C38.5888 26.9307 38.5388 26.9808 38.4908 27.0418ZM35.0712 27.1846C35.014 27.2216 35.0062 27.2465 35.0516 27.2472C35.0932 27.2477 35.1449 27.2196 35.1664 27.1846C35.2151 27.1058 35.1932 27.1058 35.0712 27.1846ZM35.6539 27.3788C35.5064 27.5205 35.4051 27.6678 35.4287 27.706C35.4523 27.7443 35.4435 27.7582 35.4091 27.7368C35.3746 27.7156 35.209 27.8378 35.0409 28.0084C34.8612 28.1909 34.7789 28.3123 34.8411 28.3032C34.8992 28.2947 35.0703 28.1665 35.2212 28.0184L35.4956 27.7491L35.6044 27.8953C35.6673 27.98 35.7003 27.9981 35.6828 27.9382C35.6661 27.8814 35.6859 27.7971 35.7268 27.7509C35.7885 27.6812 35.7823 27.6812 35.6909 27.7503C35.505 27.8908 35.4688 27.6551 35.6472 27.4653L35.7949 27.3081L35.8752 27.4527C35.9193 27.5322 35.9564 27.5723 35.9577 27.5419C35.9589 27.5114 36.0099 27.5246 36.071 27.5712C36.132 27.6177 36.1009 27.567 36.0017 27.4584C35.8324 27.2729 35.8285 27.2568 35.9383 27.193C36.0026 27.1556 36.0252 27.1242 35.9885 27.1231C35.952 27.1221 35.8013 27.2371 35.6539 27.3788ZM38.8082 27.2323C38.7293 27.3329 38.7315 27.3351 38.8322 27.2562C38.938 27.1733 38.9715 27.1212 38.9193 27.1212C38.9062 27.1212 38.8561 27.1712 38.8082 27.2323ZM34.7796 27.4544L34.6586 27.5972L34.8015 27.4763C34.9356 27.3627 34.9732 27.3116 34.9224 27.3116C34.9103 27.3116 34.8461 27.3758 34.7796 27.4544ZM36.8795 27.629C36.9053 27.7163 36.9502 27.8133 36.9793 27.8446C37.0088 27.8764 36.9618 27.9572 36.8732 28.0267L36.7141 28.1519L36.554 28.0015C36.4661 27.9188 36.382 27.8583 36.3674 27.867C36.3528 27.8757 36.3479 27.8615 36.3566 27.8353C36.3654 27.8091 36.3988 27.7964 36.4308 27.8071C36.463 27.8178 36.456 27.7867 36.4155 27.7378C36.375 27.689 36.3598 27.6311 36.3818 27.6091C36.4037 27.5872 36.3485 27.6038 36.2591 27.646C36.1513 27.6968 36.1161 27.7464 36.1546 27.7928C36.1865 27.8313 36.1915 27.8862 36.1656 27.9148C36.1398 27.9433 36.1514 27.948 36.1915 27.925C36.232 27.9019 36.3533 27.9844 36.464 28.1105L36.6634 28.3376L36.7877 28.1796C36.8731 28.071 36.9526 28.0323 37.0422 28.0558C37.1712 28.0895 37.1711 28.087 37.0313 27.8118C36.8573 27.4694 36.8189 27.4232 36.8795 27.629ZM34.6904 27.6699C34.6904 27.7033 34.7239 27.7641 34.7651 27.8053C34.8223 27.8625 34.8084 27.8739 34.7052 27.854C34.6142 27.8365 34.581 27.8548 34.6024 27.9106C34.6242 27.9675 34.5837 27.9876 34.4721 27.9754C34.2776 27.954 34.1965 28.0455 34.3696 28.0908C34.4815 28.1201 34.7794 28.007 34.8982 27.8901C34.9252 27.8635 34.8895 27.7895 34.8188 27.7255C34.7482 27.6616 34.6904 27.6366 34.6904 27.6699ZM38.629 27.6892C38.5782 27.7213 38.5178 27.7358 38.4946 27.7215C38.4714 27.7072 38.4013 27.7519 38.3389 27.8209C38.2765 27.8899 38.2476 27.9464 38.2747 27.9464C38.3019 27.9464 38.2851 27.9933 38.2374 28.0507C38.1599 28.1442 38.1674 28.1501 38.309 28.1071C38.3961 28.0807 38.4958 28.032 38.5307 27.9989C38.5715 27.9603 38.5567 27.9531 38.4895 27.9787C38.4319 28.0006 38.3633 27.9836 38.3369 27.9409C38.3105 27.8982 38.3148 27.8793 38.3464 27.8988C38.378 27.9183 38.4895 27.8658 38.5942 27.782C38.7843 27.6299 38.8034 27.5789 38.629 27.6892ZM35.1313 27.994L34.9125 28.232L35.1506 28.0133C35.3721 27.8096 35.4178 27.7559 35.3693 27.7559C35.3587 27.7559 35.2516 27.8631 35.1313 27.994ZM35.7368 28.3245C35.8574 28.6665 35.8576 28.7504 35.7377 28.7504C35.6854 28.7504 35.6425 28.7252 35.6425 28.6945C35.6425 28.6637 35.564 28.5638 35.468 28.4725C35.3719 28.3812 35.3291 28.3271 35.3727 28.3523C35.4164 28.3776 35.4521 28.3679 35.4521 28.331C35.4521 28.2318 35.2892 28.2493 35.1988 28.3582C35.1341 28.4362 35.1602 28.4924 35.3498 28.6819C35.4758 28.808 35.5782 28.944 35.5771 28.9842C35.5761 29.0244 35.5449 29.0052 35.5079 28.9415C35.4452 28.8338 35.4326 28.833 35.3251 28.9303C35.2172 29.0279 35.2069 29.0261 35.1678 28.9028C35.0945 28.6719 34.8205 28.3935 34.7087 28.4363C34.6424 28.4618 34.6216 28.4506 34.65 28.4047C34.7175 28.2954 34.4475 28.1838 34.2235 28.2283C33.9922 28.2742 33.8098 28.4129 33.6403 28.6716C33.5491 28.8108 33.5426 28.8467 33.6134 28.8211C33.6646 28.8026 33.6992 28.7549 33.6904 28.7153C33.6646 28.6002 34.0665 28.391 34.3095 28.393C34.5663 28.395 34.7896 28.5354 34.7187 28.6502C34.689 28.6981 34.6972 28.7114 34.7399 28.6849C34.7993 28.6483 35.1291 28.9084 35.1332 28.9952C35.1341 29.0118 35.1347 29.059 35.1347 29.1C35.1347 29.141 35.2013 29.112 35.2827 29.0355L35.4308 28.8964L35.5036 29.0562C35.5436 29.144 35.6008 29.2159 35.6306 29.2159C35.7357 29.2159 35.7643 29.1344 35.7009 29.0158C35.6223 28.8691 35.6764 28.7642 35.8051 28.8136C35.916 28.8561 35.8736 29.0573 35.7161 29.2365C35.6315 29.3327 35.6301 29.3488 35.7078 29.3317C35.881 29.2935 36.0442 28.6407 35.9024 28.5531C35.8708 28.5335 35.8582 28.4664 35.8745 28.404C35.8914 28.3396 35.8472 28.2389 35.7724 28.1712L35.6406 28.0519L35.7368 28.3245ZM36.9438 28.2768C36.8391 28.3135 36.6928 28.3983 36.6189 28.4655C36.4569 28.6126 36.1369 29.1859 36.1142 29.3697C36.1052 29.4422 36.0521 29.6087 35.9963 29.7396C35.7973 30.2059 35.951 29.967 36.2695 29.3149C36.639 28.5585 36.8905 28.305 37.2421 28.3347C37.3573 28.3444 37.492 28.3824 37.5414 28.4191C37.6113 28.4711 37.576 28.4952 37.3827 28.5275L37.1342 28.5691L37.4013 28.5618C37.5481 28.5578 37.6886 28.5748 37.7134 28.5996C37.7381 28.6244 37.7322 28.647 37.7002 28.6499C37.4387 28.6737 37.35 28.6939 37.3088 28.7393C37.2826 28.7682 37.3183 28.7716 37.3881 28.7471C37.4593 28.7219 37.4105 28.7892 37.277 28.9002C37.1462 29.0091 37.0399 29.1318 37.0409 29.1729C37.042 29.214 37.0725 29.1968 37.1086 29.1347C37.2023 28.9736 37.6688 28.6926 37.7749 28.7333C37.9397 28.7966 37.8663 28.6613 37.6101 28.4298C37.3432 28.1887 37.2544 28.1683 36.9438 28.2768ZM38.1569 28.2523C38.1363 28.2856 38.1597 28.3462 38.2089 28.3871C38.2795 28.4456 38.2953 28.4408 38.2841 28.3644C38.2649 28.2333 38.2026 28.1784 38.1569 28.2523ZM34.7538 28.4782C34.7538 28.4913 34.8039 28.5413 34.8649 28.5893C34.9656 28.6682 34.9678 28.6659 34.8889 28.5653C34.806 28.4595 34.7538 28.4259 34.7538 28.4782ZM37.9031 28.5293C37.9215 28.5589 37.963 28.5668 37.9955 28.5467C38.0786 28.4954 38.0692 28.4753 37.9622 28.4753C37.9114 28.4753 37.8848 28.4996 37.9031 28.5293ZM35.3596 28.5768C35.3395 28.6093 35.3474 28.6508 35.377 28.6692C35.4066 28.6875 35.431 28.6609 35.431 28.6101C35.431 28.5031 35.4109 28.4937 35.3596 28.5768ZM38.9687 28.7379C38.9687 28.8217 38.989 28.8778 39.0138 28.8624C39.0618 28.8328 39.0527 28.6694 39.0002 28.6168C38.9828 28.5995 38.9687 28.654 38.9687 28.7379ZM38.6617 28.753C38.6273 28.8434 38.6346 28.8507 38.6973 28.7885C38.7407 28.7454 38.7602 28.6942 38.7406 28.6747C38.7211 28.6551 38.6856 28.6904 38.6617 28.753ZM34.1575 28.8932C34.4165 29.0229 34.6036 29.1718 34.7215 29.342C34.8187 29.4821 34.9092 29.5968 34.9228 29.5968C34.9977 29.5968 34.728 29.2054 34.5498 29.0555C34.4351 28.959 34.3412 28.858 34.3412 28.8311C34.3412 28.8042 34.3152 28.7584 34.2835 28.7292C34.2493 28.6979 34.2468 28.7128 34.2775 28.7657C34.3167 28.8333 34.2999 28.8459 34.2083 28.8175C33.8269 28.6989 33.8126 28.7204 34.1575 28.8932ZM35.2488 29.1864C35.229 29.2062 35.2769 29.3566 35.3553 29.5207C35.5225 29.8708 35.6704 30.4524 35.615 30.542C35.5937 30.5765 35.5949 30.7211 35.6177 30.8634C35.6502 31.0666 35.6768 31.1073 35.7419 31.0532C35.8543 30.9599 35.927 30.607 35.8442 30.5559C35.8081 30.5335 35.6909 30.2443 35.5837 29.9132C35.3792 29.281 35.3082 29.127 35.2488 29.1864ZM35.0432 29.3111C35.1785 29.715 35.3104 30.0475 35.3517 30.0888C35.4421 30.1792 35.3061 29.7536 35.1539 29.4698C35.0696 29.3127 35.0198 29.2413 35.0432 29.3111ZM34.3737 29.4081C34.3741 29.4246 34.4176 29.5808 34.4705 29.7551C34.5862 30.1366 34.5497 30.3436 34.322 30.5976C34.1822 30.7535 34.1072 30.7858 33.9132 30.7737C33.7203 30.7617 33.6888 30.775 33.7463 30.8443C33.9143 31.0467 34.3966 30.8306 34.5937 30.4647C34.7432 30.1871 34.6992 29.7043 34.5069 29.5121C34.4333 29.4384 34.3733 29.3916 34.3737 29.4081ZM35.7184 29.565C35.7196 29.6698 35.7339 29.7049 35.75 29.6432C35.7661 29.5814 35.765 29.4957 35.7476 29.4527C35.7302 29.4098 35.7171 29.4603 35.7184 29.565ZM37.1127 29.695C37.0721 29.7839 37.039 29.98 37.039 30.1307C37.039 30.3954 37.1148 30.5426 37.4289 30.8879C37.5442 31.0146 37.7799 31.0042 37.7515 30.8737C37.7419 30.8295 37.7614 30.8102 37.7948 30.8309C37.8281 30.8515 37.8712 30.8429 37.8904 30.8118C37.9096 30.7807 37.8109 30.7369 37.6711 30.7145C37.3087 30.6566 37.1507 30.3926 37.1824 29.8983C37.1953 29.6975 37.2014 29.5333 37.196 29.5333C37.1907 29.5333 37.1532 29.606 37.1127 29.695ZM38.5801 29.9935C38.4263 30.154 38.3867 30.2463 38.4015 30.4091C38.4119 30.5243 38.4427 30.6386 38.4698 30.663C38.497 30.6875 38.5016 30.6585 38.4801 30.5985C38.4586 30.5386 38.4666 30.4737 38.4978 30.4544C38.5291 30.4351 38.5426 30.3567 38.5278 30.2801C38.5105 30.1901 38.5607 30.0787 38.6706 29.9642C38.7638 29.8668 38.8261 29.7872 38.8089 29.7872C38.7918 29.7872 38.6888 29.88 38.5801 29.9935ZM38.3639 29.9617C38.285 30.0624 38.2872 30.0646 38.3879 29.9857C38.4936 29.9028 38.5272 29.8507 38.475 29.8507C38.4618 29.8507 38.4118 29.9007 38.3639 29.9617ZM35.9014 30.1416C35.9045 30.2155 35.9195 30.2306 35.9398 30.18C35.9581 30.1341 35.9558 30.0794 35.9348 30.0583C35.9137 30.0372 35.8987 30.0747 35.9014 30.1416ZM35.3477 30.3206C35.3527 30.4046 35.3783 30.46 35.4045 30.4439C35.4717 30.4023 35.4639 30.168 35.3953 30.168C35.3641 30.168 35.3427 30.2367 35.3477 30.3206ZM35.086 30.6124C35.086 30.7346 35.099 30.7845 35.115 30.7235C35.131 30.6624 35.131 30.5624 35.115 30.5013C35.099 30.4402 35.086 30.4902 35.086 30.6124ZM36.5366 30.9362C36.5279 31.4067 36.7382 31.8819 36.9551 31.8819C37.0241 31.8819 37.0206 31.8494 36.9383 31.7238C36.8813 31.6368 36.8164 31.5769 36.794 31.5907C36.7716 31.6046 36.7487 31.5543 36.7429 31.4792C36.7372 31.4039 36.6896 31.1853 36.6373 30.9932L36.542 30.6441L36.5366 30.9362ZM34.5368 30.9876C34.4764 31.0543 34.3363 31.1536 34.2254 31.2083C34.1007 31.2699 34.0662 31.3083 34.1349 31.3092C34.196 31.31 34.246 31.3409 34.246 31.3778C34.246 31.4148 34.2175 31.4274 34.1826 31.4058C34.1467 31.3837 34.1191 31.4357 34.1191 31.5253C34.1191 31.719 34.2043 31.7792 34.4065 31.7284C34.5911 31.6821 34.6995 31.4981 34.7555 31.1361C34.802 30.8351 34.7232 30.7816 34.5368 30.9876ZM34.9666 31.0408C34.9427 31.1368 34.8573 31.3579 34.7768 31.5319L34.6305 31.8485L34.8482 32.0715C34.968 32.1942 35.0653 32.3088 35.0645 32.3263C35.0595 32.4338 35.1588 32.5727 35.2156 32.5376C35.2583 32.5112 35.2679 32.5357 35.2418 32.6039C35.216 32.6711 35.2363 32.7257 35.2956 32.7485C35.348 32.7686 35.3846 32.8175 35.3769 32.8572C35.3691 32.8968 35.4254 33.0678 35.502 33.2373C35.8003 33.8975 35.8238 34.2509 35.606 34.7953C35.4927 35.0785 35.5176 35.1857 35.6678 35.0611C35.7428 34.9988 35.7655 35.0118 35.7913 35.1314C35.8087 35.212 35.8118 35.1065 35.7982 34.8971C35.7814 34.6395 35.793 34.547 35.834 34.6114C35.8672 34.6638 35.8959 34.7495 35.8974 34.8018C35.9021 34.9485 36.0697 35.1373 36.1509 35.0872C36.2013 35.056 36.1857 35.0009 36.0996 34.9063C36.0315 34.8314 35.94 34.701 35.8964 34.6166C35.8162 34.4614 35.7908 33.898 35.8562 33.7227C35.8757 33.6704 35.9534 33.4452 36.0288 33.2223C36.1791 32.7787 36.4616 32.3187 36.6762 32.1684C36.8312 32.0598 36.7758 32.0389 36.5927 32.1369C36.4106 32.2343 35.9565 33.0419 35.8734 33.4159L35.8001 33.746L35.5868 33.1843C35.4694 32.8754 35.3089 32.5582 35.2301 32.4794C35.1221 32.3713 35.1044 32.317 35.1584 32.2584C35.2093 32.2031 35.2095 32.1921 35.1593 32.2201C35.1204 32.2418 34.9984 32.1603 34.888 32.039C34.7776 31.9177 34.716 31.8184 34.7511 31.8184C34.7862 31.8184 34.8337 31.7399 34.8566 31.6439C34.8795 31.5479 34.9264 31.4336 34.9608 31.39C34.9952 31.3464 35.007 31.3106 34.987 31.3106C34.9671 31.3106 34.9925 31.2106 35.0436 31.0885C35.0968 30.9611 35.1094 30.8663 35.0733 30.8663C35.0386 30.8663 34.9906 30.9449 34.9666 31.0408ZM35.3437 31.056C35.3251 31.1272 35.2793 31.1643 35.2386 31.141C35.1989 31.1184 35.1879 31.1235 35.2142 31.1525C35.2405 31.1814 35.2121 31.2645 35.1511 31.3372C35.063 31.4423 35.0748 31.439 35.2085 31.321C35.3585 31.1887 35.4909 30.9298 35.4085 30.9298C35.391 30.9298 35.3619 30.9866 35.3437 31.056ZM38.2768 31.1837C38.2984 31.2186 38.3286 31.2471 38.344 31.2471C38.3594 31.2471 38.372 31.2186 38.372 31.1837C38.372 31.1488 38.3417 31.1202 38.3048 31.1202C38.2678 31.1202 38.2552 31.1488 38.2768 31.1837ZM35.6505 31.3297C35.6461 31.4274 35.5998 31.59 35.5476 31.691C35.4778 31.8259 35.472 31.8867 35.5256 31.9199C35.5738 31.9497 35.5812 31.9368 35.5473 31.8819C35.5133 31.8269 35.5208 31.8141 35.5694 31.8442C35.6217 31.8765 35.624 31.9249 35.5773 32.0121C35.5062 32.145 35.4084 32.1491 35.2745 32.0247C35.2275 31.9811 35.1555 31.9463 35.1143 31.9474C35.0731 31.9485 35.1252 32.0226 35.2299 32.1121C35.3347 32.2016 35.5132 32.3601 35.6266 32.4644C35.7565 32.5836 35.8329 32.6208 35.8329 32.5647C35.8329 32.4437 35.5512 32.1861 35.4848 32.2463C35.4556 32.2728 35.4522 32.259 35.4772 32.2155C35.5022 32.1721 35.5816 32.1049 35.6537 32.0664C35.7363 32.0221 35.7699 32.0204 35.7443 32.0616C35.7221 32.0976 35.727 32.1413 35.7553 32.1588C35.7835 32.1763 35.8107 32.1354 35.8158 32.068C35.8209 32.0006 35.7966 31.9454 35.7618 31.9454C35.727 31.9454 35.7122 31.9233 35.7288 31.8963C35.7455 31.8693 35.7365 31.6908 35.7087 31.4996C35.681 31.3084 35.6548 31.2319 35.6505 31.3297ZM37.4595 31.4997C37.3163 31.8577 37.3384 31.911 37.4892 31.5711C37.5572 31.4177 37.6017 31.2808 37.5878 31.267C37.574 31.2532 37.5163 31.3579 37.4595 31.4997ZM34.9734 31.5688C34.9504 31.606 34.9452 31.6501 34.9618 31.6667C34.9784 31.6834 35.009 31.6529 35.0297 31.599C35.0726 31.4872 35.036 31.4675 34.9734 31.5688ZM37.1025 31.563C37.1025 31.6029 37.1286 31.6194 37.1606 31.5996C37.1925 31.5799 37.2332 31.5932 37.251 31.6292C37.2688 31.6652 37.2766 31.66 37.2683 31.6177C37.2486 31.517 37.1025 31.4688 37.1025 31.563ZM36.116 32.0766C36.0509 32.182 36.1093 32.1966 36.2004 32.0977C36.2455 32.0489 36.2543 32.0089 36.22 32.0089C36.1858 32.0089 36.139 32.0393 36.116 32.0766ZM37.098 32.5854C37.0945 32.7079 37.0847 32.7166 37.0498 32.6283C37.0158 32.5425 36.9743 32.5871 36.8639 32.8275C36.7348 33.109 36.7302 33.1535 36.8134 33.3139C36.9042 33.4889 36.9053 33.4872 36.9244 33.1298C36.9352 32.9296 36.972 32.7765 37.0073 32.7857C37.0422 32.7948 37.0646 32.8452 37.057 32.8975C37.0495 32.9499 37.0304 33.1213 37.0146 33.2784C36.9988 33.4355 36.9409 33.6497 36.8859 33.7545C36.8309 33.8592 36.7857 33.9914 36.7855 34.0482C36.785 34.1781 36.9481 34.3185 37.0362 34.264C37.0772 34.2387 37.1025 34.3041 37.1025 34.4354C37.1025 34.6027 37.0766 34.6477 36.98 34.6477C36.9127 34.6477 36.8627 34.6273 36.8689 34.6023C36.8752 34.5773 36.8309 34.5192 36.7704 34.4731C36.7099 34.4269 36.6512 34.3257 36.6398 34.2481C36.6102 34.0459 36.5496 34.0091 36.5005 34.1636C36.4729 34.2507 36.5148 34.3976 36.6217 34.589C36.8092 34.9244 36.822 34.975 36.6924 34.8674C36.6156 34.8036 36.6041 34.8131 36.6253 34.923C36.6734 35.1729 36.8666 35.4372 36.9504 35.3677C37.0852 35.2558 37.1066 35.3962 37.0215 35.8333C37.0095 35.8944 36.9555 35.9801 36.9013 36.0238C36.8472 36.0674 36.783 36.1595 36.7587 36.2285C36.7197 36.3394 36.7336 36.3362 36.8768 36.2016C36.966 36.1178 37.039 36.0793 37.039 36.116C37.039 36.1527 36.9965 36.2181 36.9445 36.2612C36.8925 36.3044 36.8698 36.3721 36.8941 36.4118C36.9966 36.5791 36.6141 36.2624 36.4846 36.0729C36.3638 35.8959 36.3365 35.8817 36.3 35.9767C36.2765 36.038 36.287 36.1359 36.3234 36.1941C36.3598 36.2523 36.3807 36.3808 36.3698 36.4794C36.3566 36.5999 36.4202 36.7655 36.5634 36.984C36.725 37.2303 36.7725 37.3657 36.7592 37.5424C36.7457 37.7221 36.7678 37.7825 36.8551 37.8054C36.9248 37.8236 36.9784 37.7948 36.9941 37.7308C37.0109 37.6626 37.0176 37.6703 37.0135 37.7529C37.0053 37.9187 36.6903 37.937 36.6891 37.7718C36.6887 37.712 36.6531 37.6278 36.6098 37.5845C36.5665 37.5413 36.5312 37.5304 36.5312 37.5602C36.5312 37.59 36.4741 37.5627 36.4042 37.4996C36.3344 37.4364 36.2782 37.3534 36.2794 37.3152C36.2806 37.277 36.3377 37.3131 36.4063 37.3956C36.4813 37.4855 36.5316 37.5109 36.5321 37.459C36.5329 37.3921 36.547 37.394 36.5947 37.4679C36.6418 37.5408 36.656 37.5186 36.6552 37.3726C36.6544 37.2113 36.6443 37.1994 36.5888 37.2946C36.515 37.4215 36.3917 37.3838 36.4431 37.2501C36.4614 37.2023 36.4459 37.1444 36.4086 37.1214C36.3713 37.0984 36.3408 37.0378 36.3408 36.9868C36.3408 36.9358 36.2638 36.7732 36.1698 36.6255L35.9989 36.357L35.9531 36.5759C35.9279 36.6964 35.9089 37.1391 35.9108 37.5598C35.9126 37.9805 35.9268 38.2391 35.9421 38.1344C35.9575 38.0296 36.027 37.8827 36.0966 37.808C36.1741 37.7246 36.1956 37.6628 36.1522 37.6483C36.1131 37.6353 36.0766 37.5628 36.0709 37.4871C36.0651 37.4115 36.0378 37.3637 36.0102 37.3808C35.9826 37.3979 35.9599 37.3474 35.9599 37.2687C35.9599 37.134 35.9729 37.1382 36.1823 37.3412C36.3292 37.4835 36.3927 37.5944 36.3695 37.6678C36.3298 37.7929 36.5027 38.171 36.635 38.2486C36.6826 38.2765 36.7216 38.3487 36.7216 38.409C36.7216 38.4693 36.7661 38.5822 36.8205 38.6599C36.8749 38.7376 36.899 38.834 36.8742 38.8742C36.8478 38.917 36.8567 38.9303 36.8956 38.9062C36.9322 38.8836 36.9784 38.9074 36.9983 38.9592C37.0191 39.0134 37.0018 39.0468 36.9574 39.0381C36.901 39.0271 36.8829 39.1763 36.8898 39.5943C36.895 39.9085 36.9034 40.1942 36.9084 40.2291C36.9133 40.264 36.9075 40.3842 36.8954 40.4961C36.8778 40.6588 36.9086 40.7257 37.0488 40.8294L37.2243 40.9591L37.1878 36.722C37.1677 34.3916 37.1402 32.4731 37.1269 32.4585C37.1135 32.4439 37.1004 32.5011 37.098 32.5854ZM36.3831 33.1938C36.3131 33.2637 36.3353 33.4487 36.4223 33.5209C36.5224 33.6041 36.6925 33.5123 36.6289 33.4093C36.5949 33.3544 36.558 33.3567 36.4833 33.4181C36.3952 33.4907 36.3884 33.4796 36.4266 33.326C36.4706 33.1493 36.46 33.1169 36.3831 33.1938ZM37.0514 33.9449C37.0527 34.0496 37.0669 34.0848 37.083 34.023C37.0991 33.9613 37.098 33.8756 37.0806 33.8326C37.0633 33.7896 37.0501 33.8402 37.0514 33.9449ZM36.6581 33.9169C36.6581 33.9539 36.6867 33.9665 36.7216 33.9449C36.7565 33.9233 36.7851 33.8931 36.7851 33.8777C36.7851 33.8623 36.7565 33.8497 36.7216 33.8497C36.6867 33.8497 36.6581 33.88 36.6581 33.9169ZM35.5508 34.2827C35.5248 34.3986 35.5191 34.5091 35.5382 34.5283C35.586 34.576 35.6616 34.2553 35.6265 34.1539C35.6109 34.1088 35.5768 34.1668 35.5508 34.2827ZM36.7574 34.3126C36.7813 34.3752 36.8168 34.4104 36.8363 34.3909C36.8559 34.3714 36.8364 34.3202 36.793 34.2771C36.7303 34.2149 36.723 34.2222 36.7574 34.3126ZM36.2773 34.72C36.2773 34.7564 36.3273 34.8255 36.3884 34.8734C36.4911 34.954 36.4925 34.951 36.4063 34.8336C36.3551 34.7638 36.3052 34.6948 36.2952 34.6802C36.2853 34.6656 36.2773 34.6836 36.2773 34.72ZM37.8131 34.8336C37.8144 34.9383 37.8286 34.9735 37.8447 34.9117C37.8608 34.8499 37.8598 34.7643 37.8424 34.7213C37.825 34.6783 37.8118 34.7288 37.8131 34.8336ZM37.6788 34.8388C37.6818 34.9128 37.6969 34.9278 37.7171 34.8772C37.7355 34.8314 37.7332 34.7766 37.7121 34.7556C37.691 34.7345 37.6761 34.7719 37.6788 34.8388ZM35.9599 34.8893C35.9599 34.9024 36.0099 34.9525 36.071 35.0004C36.1717 35.0793 36.1739 35.0771 36.095 34.9764C36.012 34.8706 35.9599 34.8371 35.9599 34.8893ZM37.044 35.1562C37.0471 35.2302 37.0621 35.2452 37.0824 35.1946C37.1007 35.1488 37.0984 35.094 37.0773 35.0729C37.0563 35.0519 37.0413 35.0893 37.044 35.1562ZM36.5555 35.1915C36.3492 35.5134 36.339 35.5732 36.4611 35.7447C36.5269 35.8371 36.5817 35.9405 36.5829 35.9746C36.5872 36.0935 36.7165 36.0789 36.8297 35.9466C36.8924 35.8733 36.9385 35.8005 36.932 35.7848C36.9255 35.7692 36.9456 35.6677 36.9767 35.5594C37.023 35.3979 37.0179 35.3751 36.9482 35.4329C36.8822 35.4878 36.8351 35.459 36.737 35.3043C36.6405 35.1517 36.598 35.1253 36.5555 35.1915ZM36.4387 35.4957C36.3954 35.5658 36.4955 35.6416 36.5541 35.583C36.6144 35.5226 36.6032 35.4366 36.5349 35.4366C36.5021 35.4366 36.4588 35.4632 36.4387 35.4957ZM36.6264 35.9444C36.6048 35.9793 36.6157 36.0079 36.6507 36.0079C36.6856 36.0079 36.7318 35.9793 36.7534 35.9444C36.7749 35.9095 36.764 35.8809 36.7291 35.8809C36.6942 35.8809 36.648 35.9095 36.6264 35.9444ZM36.0318 36.9817C35.9464 37.0845 36.114 37.2619 36.2932 37.2584C36.4344 37.2556 36.4338 37.2523 36.2537 37.058C36.1304 36.925 36.0903 36.9112 36.0318 36.9817ZM37.6928 37.5948C37.6928 37.7868 37.7047 37.8654 37.7192 37.7694C37.7338 37.6733 37.7338 37.5163 37.7192 37.4202C37.7047 37.3242 37.6928 37.4028 37.6928 37.5948ZM35.9766 37.732C35.9689 37.8342 35.9843 37.8497 36.0393 37.7947C36.0874 37.7466 36.0909 37.7004 36.0495 37.659C36.0082 37.6177 35.9833 37.6426 35.9766 37.732ZM36.9571 38.2296C36.9754 38.2994 37.0013 38.3565 37.0147 38.3565C37.028 38.3565 37.039 38.2994 37.039 38.2296C37.039 38.1597 37.0131 38.1026 36.9815 38.1026C36.9498 38.1026 36.9389 38.1597 36.9571 38.2296ZM36.3733 38.7939C36.3988 39.0692 36.3581 39.1481 36.2406 39.0506C36.1917 39.0101 36.1701 38.9472 36.1926 38.9108C36.217 38.8712 36.2024 38.8639 36.156 38.8926C36.0978 38.9286 36.1053 38.9699 36.1864 39.0596C36.2457 39.1251 36.319 39.1634 36.3493 39.1447C36.45 39.0824 36.4059 39.3285 36.2932 39.4574C36.2321 39.5273 36.2178 39.5635 36.2614 39.538C36.3165 39.5058 36.3408 39.5424 36.3408 39.6578C36.3408 39.7492 36.3682 39.807 36.4018 39.7863C36.4394 39.763 36.4409 39.6909 36.4059 39.5986C36.3396 39.4242 36.3759 39.3653 36.5167 39.4193C36.595 39.4493 36.6059 39.4312 36.5666 39.3356C36.451 39.0536 36.4019 38.7214 36.4648 38.6457C36.5102 38.5909 36.5032 38.5681 36.4407 38.5681C36.3778 38.5681 36.3583 38.6332 36.3733 38.7939ZM36.5362 38.9013C36.5392 38.9753 36.5543 38.9903 36.5745 38.9397C36.5929 38.8939 36.5906 38.8391 36.5695 38.8181C36.5485 38.797 36.5335 38.8344 36.5362 38.9013ZM36.7317 39.0548C36.7317 39.142 36.7461 39.1778 36.7636 39.1341C36.7813 39.0905 36.7813 39.0191 36.7636 38.9754C36.7461 38.9318 36.7317 38.9675 36.7317 39.0548ZM36.1193 39.2056C36.1793 39.2972 36.2404 39.3721 36.2551 39.3721C36.301 39.3721 36.1532 39.1275 36.0799 39.0822C36.0416 39.0585 36.0593 39.1141 36.1193 39.2056ZM36.9805 39.2187C36.9836 39.2927 36.9986 39.3077 37.0189 39.2571C37.0372 39.2113 37.0349 39.1565 37.0139 39.1354C36.9928 39.1144 36.9778 39.1518 36.9805 39.2187ZM37.8802 39.4674C37.8809 39.607 37.8939 39.6566 37.9091 39.5777C37.9242 39.4987 37.9237 39.3845 37.9078 39.3238C37.8919 39.2631 37.8795 39.3277 37.8802 39.4674ZM36.7176 39.3245C36.7154 39.3333 36.6987 39.551 36.6806 39.8083C36.6623 40.0657 36.6098 40.4012 36.5638 40.5541C36.5179 40.7069 36.5031 40.8178 36.5311 40.8004C36.6434 40.731 36.8531 39.3087 36.751 39.3087C36.7348 39.3087 36.7198 39.3158 36.7176 39.3245ZM34.8571 39.753C34.8877 40.1269 34.9624 40.5132 35.0465 40.7323C35.0665 40.7844 35.0098 40.8286 34.8923 40.852C34.79 40.8725 34.6906 40.9305 34.6712 40.981C34.6431 41.0541 34.6845 41.0662 34.8761 41.0405C35.0841 41.0126 35.1211 41.027 35.1529 41.1487C35.1829 41.2634 35.1675 41.2832 35.0682 41.2573C34.9627 41.2297 34.9513 41.2525 34.98 41.4336C35.0248 41.715 34.8589 41.7851 34.7193 41.5439C34.6209 41.3739 34.6201 41.3737 34.6591 41.5303C34.7278 41.807 34.7243 41.8799 34.6428 41.8636C34.5847 41.852 34.5666 41.9624 34.5752 42.2762C34.5865 42.6903 34.5877 42.6932 34.6105 42.3633C34.6366 41.9858 34.7556 41.7921 34.8739 41.9347C34.912 41.9806 34.922 42.0415 34.8961 42.07C34.8703 42.0986 34.8828 42.1027 34.924 42.079C34.9652 42.0554 35.0166 42.0645 35.038 42.0993C35.0852 42.1756 34.9768 42.3976 34.7952 42.5969C34.6897 42.7126 34.6796 42.754 34.7464 42.7953C34.802 42.8297 34.8081 42.8616 34.7641 42.8887C34.6605 42.9528 34.6864 43.8004 34.7932 43.8414C34.8414 43.8599 34.8808 43.8513 34.8808 43.8223C34.8808 43.7934 34.9484 43.7826 35.031 43.7984C35.2409 43.8385 35.4399 43.54 35.5249 43.0573C35.5907 42.6838 35.588 42.6701 35.3958 42.4089C35.213 42.1604 35.2066 42.1341 35.3025 42.0281C35.3592 41.9654 35.4348 41.9322 35.4704 41.9542C35.506 41.9763 35.5161 41.9635 35.4929 41.9259C35.4697 41.8883 35.5109 41.7553 35.5846 41.6305C35.6589 41.5045 35.6875 41.4034 35.6488 41.4034C35.6104 41.4034 35.579 41.4405 35.579 41.4859C35.579 41.5313 35.544 41.6035 35.5012 41.6463C35.4396 41.7078 35.386 41.5938 35.2458 41.1036C35.1482 40.7623 35.0131 40.2259 34.9457 39.9117C34.8234 39.3415 34.8233 39.3412 34.8571 39.753ZM37.8692 39.8535C37.8723 39.9274 37.8873 39.9425 37.9076 39.8919C37.9259 39.8461 37.9236 39.7913 37.9025 39.7702C37.8815 39.7491 37.8665 39.7866 37.8692 39.8535ZM35.9599 39.9893C35.9599 40.1082 36.0234 40.2631 36.1186 40.3762C36.2059 40.4799 36.2768 40.5892 36.2763 40.6191C36.2758 40.649 36.2476 40.6306 36.2138 40.5782C36.18 40.5258 36.1523 40.5116 36.1523 40.5465C36.1523 40.6356 36.2498 40.7794 36.3104 40.7797C36.3926 40.7802 36.4885 40.5673 36.426 40.523C36.3424 40.4637 36.1257 40.1155 36.1096 40.0145C36.102 39.9663 36.0651 39.8963 36.0278 39.8589C35.9796 39.8108 35.9599 39.8486 35.9599 39.9893ZM36.3797 40.2724C36.398 40.3021 36.4396 40.3099 36.4721 40.2898C36.5551 40.2385 36.5458 40.2185 36.4388 40.2185C36.3879 40.2185 36.3613 40.2428 36.3797 40.2724ZM34.7589 40.5517C34.7619 40.6257 34.777 40.6407 34.7972 40.5901C34.8155 40.5443 34.8133 40.4895 34.7922 40.4684C34.7711 40.4474 34.7561 40.4848 34.7589 40.5517ZM35.9649 40.8691C35.968 40.9431 35.983 40.9581 36.0033 40.9075C36.0216 40.8617 36.0193 40.8069 35.9982 40.7858C35.9772 40.7648 35.9622 40.8022 35.9649 40.8691ZM36.5817 41.0067C36.4432 41.1668 36.4044 41.3851 36.4774 41.5943C36.5742 41.8721 36.7208 41.776 36.6534 41.4789C36.5883 41.1918 36.6949 41.0496 36.9309 41.1089C37.2244 41.1825 37.1986 41.6178 36.8805 41.9607C36.7923 42.0556 36.7044 42.1834 36.6849 42.2445C36.6655 42.3055 36.6273 42.3555 36.6 42.3555C36.528 42.3555 36.3609 42.7775 36.2735 43.1807C36.2318 43.3728 36.1513 43.5865 36.0947 43.6557C35.9991 43.7725 35.9993 43.7757 36.0976 43.6998C36.1865 43.6312 36.2151 43.6365 36.2749 43.7327C36.3338 43.8272 36.3396 43.8121 36.3079 43.6463C36.2868 43.5357 36.3018 43.3253 36.3413 43.1788C36.4211 42.8826 36.7403 42.3319 36.7986 42.3901C36.8191 42.4107 36.8574 42.3926 36.8837 42.35C36.9166 42.2969 36.9052 42.2888 36.8476 42.3244C36.7857 42.3627 36.7747 42.347 36.806 42.2655C36.8295 42.2046 36.8486 42.1428 36.8486 42.1282C36.8486 42.1136 36.8734 42.1016 36.9038 42.1016C36.9341 42.1016 36.9929 42.2737 37.0342 42.4841C37.0756 42.6944 37.1365 42.8498 37.1694 42.8295C37.2499 42.7798 37.2466 42.1038 37.166 42.0937C37.131 42.0893 37.0763 42.0822 37.0443 42.0778C36.9077 42.0592 36.916 41.9807 37.0674 41.8617C37.18 41.7731 37.2294 41.6731 37.2294 41.5339C37.2294 41.0461 36.8293 40.7204 36.5817 41.0067ZM36.0664 41.0903C36.1148 41.1391 36.122 41.2157 36.0869 41.3082C36.042 41.4262 36.0726 41.4879 36.2647 41.6652C36.3923 41.7831 36.4411 41.8132 36.3731 41.7321C36.3051 41.6511 36.2463 41.5368 36.2425 41.4782C36.2386 41.4196 36.2306 41.3105 36.2247 41.2356C36.2187 41.1608 36.1638 41.0806 36.1027 41.0573C36.0173 41.0248 36.0089 41.0324 36.0664 41.0903ZM34.5684 41.25C34.5715 41.3239 34.5865 41.339 34.6068 41.2884C34.6251 41.2425 34.6228 41.1878 34.6018 41.1667C34.5807 41.1456 34.5657 41.1831 34.5684 41.25ZM36.7049 41.2509C36.684 41.2718 36.6818 41.3276 36.7 41.375C36.7259 41.4426 36.7509 41.4447 36.8159 41.3847C36.8615 41.3426 36.8858 41.2868 36.8699 41.2606C36.8352 41.2033 36.757 41.1987 36.7049 41.2509ZM35.0441 41.4608C35.1001 41.5169 35.2617 41.5201 35.2617 41.4652C35.2617 41.4356 35.2057 41.4155 35.1374 41.4207C35.0691 41.4258 35.0271 41.4439 35.0441 41.4608ZM35.9183 41.5514C35.9412 41.6153 35.9599 41.7028 35.9599 41.7457C35.9599 41.7887 36.0154 41.8834 36.0833 41.9562C36.2056 42.0875 36.2056 42.089 36.0783 42.1223C35.9836 42.147 35.9593 42.1312 35.9859 42.062C36.0062 42.0092 35.9945 41.985 35.9592 42.0069C35.9247 42.0282 35.8964 42.0874 35.8964 42.1383C35.8964 42.2043 35.94 42.2201 36.0482 42.1929C36.2518 42.1418 36.2956 42.2358 36.178 42.4715C36.0313 42.7656 36.0173 42.9298 36.1293 43.0418C36.222 43.1345 36.2266 43.1299 36.1832 42.9873C36.1318 42.8187 36.1312 42.8141 36.1438 42.6729C36.1513 42.5883 36.1595 42.5883 36.2176 42.6729C36.268 42.7464 36.2788 42.7245 36.265 42.5777C36.2532 42.4528 36.274 42.3927 36.3256 42.4032C36.4334 42.4249 36.4245 42.3245 36.3104 42.2297C36.2419 42.1729 36.2334 42.1202 36.2791 42.0349C36.3236 41.9515 36.318 41.9033 36.2596 41.867C36.2144 41.839 36.1098 41.7303 36.0271 41.6256C35.9443 41.5208 35.8953 41.4874 35.9183 41.5514ZM35.0235 41.6853C34.8856 41.7616 34.8847 41.7681 34.9968 41.8695C35.0607 41.9273 35.1429 41.9747 35.1795 41.9747C35.2899 41.9747 35.3934 41.8072 35.3512 41.6971C35.3053 41.5776 35.2236 41.5747 35.0235 41.6853ZM35.0468 42.3851C34.9261 42.5693 34.9158 42.6345 35.0176 42.5717C35.063 42.5436 35.0736 42.5542 35.0455 42.5996C35.0206 42.6399 34.952 42.6752 34.8929 42.6779C34.8052 42.682 34.803 42.6896 34.8808 42.7196C34.9332 42.7397 35.0644 42.8231 35.1724 42.905C35.4268 43.0976 35.4521 43.0931 35.4521 42.855C35.4521 42.6931 35.2419 42.2286 35.1685 42.2286C35.158 42.2286 35.1032 42.299 35.0468 42.3851ZM35.711 42.3291C35.7141 42.403 35.7291 42.4181 35.7493 42.3675C35.7677 42.3216 35.7654 42.2669 35.7443 42.2458C35.7233 42.2247 35.7083 42.2622 35.711 42.3291ZM34.7917 42.9101C34.6966 43.0052 34.7615 43.3733 34.8955 43.4981C35.2254 43.8055 35.4979 43.4112 35.1773 43.0906C35.0914 43.0048 35.0312 42.9245 35.0435 42.9122C35.0557 42.9 35.0126 42.886 34.9477 42.8811C34.8828 42.8762 34.8126 42.8893 34.7917 42.9101ZM36.6057 42.9806C36.5 43.0495 36.4302 43.5309 36.518 43.5852C36.5577 43.6097 36.5695 43.574 36.5483 43.4932C36.5024 43.3175 36.863 42.9692 36.9787 43.0776C37.0361 43.1314 37.0478 43.1256 37.0262 43.0538C36.9933 42.9447 36.7308 42.899 36.6057 42.9806ZM34.5634 45.32C34.546 46.6187 34.5535 47.6595 34.5801 47.6329C34.6067 47.6062 34.621 46.5436 34.6118 45.2715L34.5951 42.9586L34.5634 45.32ZM36.0643 43.2442C36.1145 43.518 36.1506 43.5696 36.1494 43.3659C36.1488 43.2815 36.1203 43.1696 36.086 43.1173C36.042 43.0503 36.0356 43.0879 36.0643 43.2442ZM34.9848 43.276C35.0049 43.3283 35.0326 43.3712 35.0463 43.3712C35.06 43.3712 35.0712 43.3283 35.0712 43.276C35.0712 43.2236 35.0436 43.1807 35.0097 43.1807C34.976 43.1807 34.9647 43.2236 34.9848 43.276ZM37.1232 43.5528C37.0853 43.6978 36.6236 43.9671 36.4966 43.9184C36.4458 43.8989 36.4042 43.9107 36.4042 43.9444C36.4042 43.9783 36.4363 44.0059 36.4755 44.0059C36.5226 44.0059 36.5261 44.0328 36.4859 44.0853C36.3832 44.2192 35.9518 45.0216 35.9825 45.0216C35.9984 45.0216 36.0893 44.8858 36.1846 44.72C36.3981 44.3486 36.595 44.1256 36.6689 44.1713C36.6997 44.1903 36.7169 44.1718 36.7073 44.1302C36.6978 44.0887 36.7827 44.0014 36.8962 43.9364L37.1025 43.8181V44.97C37.1025 45.6035 37.113 46.1099 37.1259 46.0954C37.1642 46.052 37.2258 43.4346 37.1884 43.4346C37.1695 43.4346 37.1402 43.4878 37.1232 43.5528ZM37.5468 44.581C37.5468 44.6179 37.5754 44.6305 37.6103 44.609C37.6452 44.5874 37.6738 44.5572 37.6738 44.5417C37.6738 44.5263 37.6452 44.5137 37.6103 44.5137C37.5754 44.5137 37.5468 44.544 37.5468 44.581ZM36.7216 45.5331C36.7216 45.5701 36.7502 45.5827 36.7851 45.5611C36.82 45.5395 36.8486 45.5093 36.8486 45.4939C36.8486 45.4785 36.82 45.4659 36.7851 45.4659C36.7502 45.4659 36.7216 45.4962 36.7216 45.5331ZM37.565 46.0054C37.5655 46.18 37.5778 46.2439 37.5924 46.1474C37.6069 46.0509 37.6065 45.9081 37.5915 45.83C37.5765 45.7519 37.5645 45.8309 37.565 46.0054ZM36.6468 46.1085C36.6892 46.1652 36.7069 46.2651 36.6862 46.3306C36.6497 46.4462 36.6508 46.4462 36.7237 46.332C36.785 46.2361 36.7777 46.1949 36.6844 46.1098C36.5818 46.0163 36.5778 46.0161 36.6468 46.1085ZM34.8173 46.7989C34.8173 46.8338 34.8476 46.8624 34.8845 46.8624C34.9215 46.8624 34.9341 46.8338 34.9125 46.7989C34.891 46.764 34.8607 46.7354 34.8453 46.7354C34.8299 46.7354 34.8173 46.764 34.8173 46.7989ZM37.4833 46.9259C37.4833 46.9608 37.5119 46.9893 37.5468 46.9893C37.5817 46.9893 37.6103 46.9608 37.6103 46.9259C37.6103 46.8909 37.5817 46.8624 37.5468 46.8624C37.5119 46.8624 37.4833 46.8909 37.4833 46.9259ZM35.4812 47.311C35.4129 47.4215 35.4907 47.4449 35.5778 47.34C35.6279 47.2797 35.6327 47.2432 35.5905 47.2432C35.5535 47.2432 35.5042 47.2737 35.4812 47.311ZM37.6263 47.8463C37.627 47.9859 37.64 48.0356 37.6552 47.9566C37.6703 47.8776 37.6698 47.7634 37.6539 47.7027C37.638 47.642 37.6256 47.7066 37.6263 47.8463ZM37.6153 48.2324C37.6184 48.3063 37.6334 48.3214 37.6536 48.2708C37.672 48.225 37.6697 48.1702 37.6486 48.1491C37.6276 48.128 37.6126 48.1655 37.6153 48.2324ZM35.9619 48.4913C35.9583 48.624 36.5964 50.0552 36.6907 50.1259C36.7413 50.1639 36.7913 50.252 36.8019 50.3219C36.8305 50.5117 37.0548 50.8614 37.1479 50.8614C37.306 50.8614 37.2418 50.4359 37.05 50.213C36.7678 49.8851 36.5018 49.4707 36.2221 48.923C36.0801 48.645 35.963 48.4508 35.9619 48.4913ZM37.01 48.6988C36.9899 48.7313 36.9977 48.7729 37.0274 48.7912C37.057 48.8096 37.0813 48.783 37.0813 48.7321C37.0813 48.6251 37.0613 48.6158 37.01 48.6988ZM35.4805 49.3749C35.0793 50.2786 34.4523 51.168 34.3421 50.9897C34.3181 50.951 34.3331 50.8777 34.3753 50.8269C34.4236 50.7687 34.4273 50.7345 34.3854 50.7345C34.3487 50.7345 34.2611 50.8077 34.1907 50.8972C34.0392 51.0899 34.0865 51.3031 34.3025 51.401C34.3919 51.4415 34.4321 51.5046 34.4137 51.5756C34.3978 51.6368 34.4108 51.6708 34.4424 51.6512C34.474 51.6316 34.4999 51.5689 34.4999 51.5117C34.4999 51.3523 34.8216 50.9242 34.937 50.9299C34.9991 50.9329 35.0092 50.9472 34.9624 50.9661C34.903 50.9903 34.9024 51.0247 34.96 51.1168C35.0306 51.23 35.0405 51.2273 35.1477 51.0647C35.2956 50.8405 35.2914 50.7345 35.1347 50.7345C35.0649 50.7345 35.0078 50.763 35.0078 50.7979C35.0078 50.8328 34.9789 50.8614 34.9436 50.8614C34.9083 50.8614 34.9787 50.7115 35.1 50.5282C35.3197 50.196 35.7931 48.9963 35.7525 48.8745C35.7408 48.8393 35.6184 49.0645 35.4805 49.3749ZM37.049 49.2745C37.049 49.3618 37.0634 49.3975 37.081 49.3538C37.0987 49.3102 37.0987 49.2388 37.081 49.1951C37.0634 49.1515 37.049 49.1872 37.049 49.2745ZM37.1524 49.4649C37.1371 49.5697 37.1481 49.6553 37.1769 49.6553C37.2058 49.6553 37.2294 49.5697 37.2294 49.4649C37.2294 49.3602 37.2184 49.2745 37.2049 49.2745C37.1914 49.2745 37.1678 49.3602 37.1524 49.4649ZM37.6227 49.4332C37.6239 49.5379 37.6382 49.5731 37.6543 49.5113C37.6704 49.4496 37.6693 49.3639 37.6519 49.3209C37.6345 49.2779 37.6214 49.3284 37.6227 49.4332ZM36.0284 49.5654C36.0314 49.6394 36.0465 49.6544 36.0667 49.6038C36.0851 49.558 36.0828 49.5032 36.0617 49.4821C36.0406 49.461 36.0257 49.4985 36.0284 49.5654ZM34.9801 49.8272C34.9457 49.9176 34.9529 49.9249 35.0156 49.8627C35.059 49.8196 35.0785 49.7684 35.059 49.7489C35.0394 49.7294 35.0039 49.7646 34.9801 49.8272ZM34.5891 50.6234L34.4682 50.7662L34.611 50.6453C34.7452 50.5316 34.7827 50.4805 34.7319 50.4805C34.7199 50.4805 34.6557 50.5448 34.5891 50.6234ZM36.7739 50.876C36.8549 50.9652 36.9301 51.0912 36.9409 51.1561C36.9518 51.2209 36.9915 51.2672 37.0293 51.2589C37.067 51.2506 37.0815 51.2866 37.0613 51.3391C37.0412 51.3914 37.0563 51.4723 37.0948 51.5187C37.1333 51.5651 37.1437 51.6264 37.1178 51.655C37.0919 51.6836 37.1045 51.6876 37.1458 51.6639C37.1939 51.6364 37.2303 51.684 37.2473 51.7966C37.2666 51.9242 37.2765 51.9 37.2834 51.7082C37.2913 51.4888 37.2504 51.3904 37.0419 51.1265C36.9039 50.9519 36.7539 50.7876 36.7087 50.7615C36.6634 50.7353 36.6927 50.7869 36.7739 50.876ZM34.5679 51.5755C34.572 51.7067 34.5762 51.7084 34.6204 51.5956C34.6528 51.5129 34.6834 51.4969 34.7141 51.5467C34.7392 51.5873 34.7325 51.6713 34.6993 51.7334C34.6536 51.8188 34.6768 51.8906 34.7948 52.0277C34.998 52.2639 35.0317 52.2178 34.9003 51.8833C34.8162 51.6695 34.8109 51.6028 34.8746 51.5635C34.9311 51.5285 34.9111 51.502 34.8069 51.4741C34.5814 51.4137 34.563 51.4215 34.5679 51.5755ZM34.3896 52.1258C34.3953 52.2682 34.4272 52.3848 34.4605 52.3848C34.4938 52.3848 34.5039 52.3676 34.4829 52.3466C34.4618 52.3256 34.4698 52.242 34.5006 52.1611C34.5402 52.0567 34.5307 51.9924 34.4679 51.9403C34.3943 51.8792 34.381 51.9107 34.3896 52.1258ZM34.378 52.5488C34.381 52.6228 34.3961 52.6378 34.4163 52.5872C34.4347 52.5414 34.4324 52.4866 34.4113 52.4655C34.3903 52.4444 34.3753 52.4819 34.378 52.5488ZM35.033 52.6048C34.9401 52.6733 34.9297 52.7111 34.9876 52.7698C35.0807 52.8643 35.2617 52.8025 35.2617 52.6762C35.2617 52.535 35.1674 52.5055 35.033 52.6048ZM37.2112 52.8788C37.1914 53.0456 37.166 53.2206 37.1547 53.2675C37.1434 53.3145 37.17 53.3659 37.2136 53.3819C37.272 53.4034 37.2929 53.3007 37.2929 52.9931C37.2929 52.7633 37.2826 52.5753 37.27 52.5753C37.2574 52.5753 37.231 52.7118 37.2112 52.8788ZM34.4194 52.8977C34.4419 52.9836 34.4706 53.0124 34.4865 52.9648C34.5017 52.919 34.4841 52.8514 34.4471 52.8144C34.4 52.7674 34.3918 52.7922 34.4194 52.8977ZM34.5157 54.2891C34.514 55.0444 34.5274 55.2113 34.5731 55.0075C34.6097 54.8444 34.6105 54.4649 34.5753 54.0236L34.5179 53.3053L34.5157 54.2891ZM36.8638 53.8735C36.6881 54.1387 36.6647 54.2571 36.7146 54.6261C36.7185 54.6544 36.7546 54.6571 36.7949 54.6322C36.8385 54.6053 36.8511 54.6146 36.8259 54.6555C36.7744 54.7386 36.9076 55.0509 36.9944 55.0509C37.0334 55.0509 37.038 54.9151 37.0068 54.6859C36.9435 54.2212 36.9609 53.8437 37.0505 53.7357C37.089 53.6893 37.1057 53.6365 37.0876 53.6183C37.0695 53.6002 36.9687 53.715 36.8638 53.8735ZM36.7534 54.1621C36.7319 54.1969 36.7588 54.2889 36.8132 54.3666C36.8944 54.4826 36.912 54.4883 36.912 54.3985C36.912 54.3383 36.8844 54.2891 36.8505 54.2891C36.8168 54.2891 36.8055 54.2463 36.8256 54.1939C36.8665 54.0873 36.814 54.064 36.7534 54.1621ZM37.4957 54.3209C37.497 54.4256 37.5112 54.4608 37.5273 54.399C37.5434 54.3373 37.5424 54.2516 37.525 54.2086C37.5076 54.1656 37.4944 54.2161 37.4957 54.3209ZM37.4322 54.7017C37.4335 54.8065 37.4477 54.8416 37.4639 54.7799C37.48 54.7181 37.4789 54.6324 37.4615 54.5894C37.4441 54.5465 37.431 54.597 37.4322 54.7017ZM34.5926 56.3204C34.6136 57.1241 34.8274 58.6733 34.8691 58.3247C34.8857 58.1858 34.9058 58.1618 34.9486 58.2295C34.9907 58.2961 35.006 58.2984 35.0068 58.2383C35.0073 58.1935 34.9664 58.0935 34.9159 58.0162C34.8245 57.8763 34.7333 57.2805 34.6273 56.13L34.5717 55.5269L34.5926 56.3204ZM36.9532 56.2252C36.9296 56.5045 36.8926 56.9329 36.8712 57.1773C36.8497 57.4217 36.8472 57.6074 36.8658 57.5899C36.9135 57.5451 37.0593 55.9051 37.0248 55.8022C37.0091 55.7556 36.9769 55.9459 36.9532 56.2252ZM35.5783 56.1352C35.578 56.1498 35.5351 56.3022 35.4829 56.474C35.4308 56.6458 35.4092 56.7653 35.4349 56.7396C35.4994 56.6751 35.6437 56.1734 35.608 56.1378C35.5921 56.1218 35.5787 56.1207 35.5783 56.1352ZM35.5156 57.5504C35.5156 57.5636 35.5656 57.6136 35.6266 57.6615C35.7273 57.7404 35.7295 57.7382 35.6506 57.6375C35.5677 57.5318 35.5156 57.4982 35.5156 57.5504ZM34.925 58.8595C34.9443 59.0166 35.0433 59.4722 35.1449 59.872C35.3183 60.5547 35.3886 60.7596 35.3886 60.582C35.3886 60.4793 35.087 59.2156 34.9775 58.8595L34.8897 58.5738L34.925 58.8595ZM36.6632 58.7695C36.6662 58.8435 36.6812 58.8585 36.7015 58.8079C36.7198 58.7621 36.7176 58.7073 36.6965 58.6862C36.6754 58.6651 36.6604 58.7026 36.6632 58.7695ZM35.5841 58.833C35.5871 58.9069 35.6021 58.922 35.6224 58.8714C35.6407 58.8256 35.6385 58.7708 35.6174 58.7497C35.5963 58.7286 35.5813 58.7661 35.5841 58.833ZM35.55 59.4264C35.5299 59.4589 35.5378 59.5004 35.5674 59.5188C35.5971 59.5371 35.6214 59.5105 35.6214 59.4597C35.6214 59.3527 35.6013 59.3433 35.55 59.4264ZM2.11179 67.9815C2.19075 67.9966 2.30501 67.9961 2.36569 67.9802C2.42637 67.9643 2.36176 67.9519 2.22211 67.9526C2.08246 67.9533 2.03282 67.9663 2.11179 67.9815ZM2.80927 67.9834C2.99259 67.9962 3.29251 67.9962 3.47577 67.9834C3.65909 67.9706 3.50909 67.9601 3.14252 67.9601C2.77594 67.9601 2.62601 67.9706 2.80927 67.9834Z" fill="#E522AA"/>
</g>
<defs>
<clipPath id="clip0_734_528">
<rect width="70" height="70" fill="white"/>
</clipPath>
</defs>
</svg>
