<svg width="70" height="70" viewBox="0 0 70 70" fill="none" xmlns="http://www.w3.org/2000/svg">
<g clip-path="url(#clip0_630_3406)">
<path d="M31.192 0.168491C30.912 0.392491 31.01 1.31649 31.304 1.20449C31.402 1.16249 31.71 1.09249 31.976 1.03649C32.62 0.924491 32.69 0.784491 32.382 0.350491C32.102 -0.0275085 31.556 -0.111509 31.192 0.168491Z" fill="black"/>
<path d="M38.738 0.825981C38.514 0.965981 38.08 1.13399 37.758 1.18999C37.282 1.27399 37.226 1.30199 37.45 1.39999C37.716 1.49799 37.702 1.51199 37.38 1.58199C37.184 1.62399 36.694 1.70798 36.274 1.74998C35.588 1.83398 35.49 1.80598 35.224 1.48399C35.056 1.30199 34.706 1.10599 34.44 1.04999C34.034 0.965981 33.978 0.97998 34.132 1.13399C34.622 1.65199 33.95 1.88998 33.32 1.39999C32.984 1.14799 32.97 1.14799 32.69 1.39999C32.466 1.59599 32.018 1.69398 30.562 1.80598C29.554 1.90398 28.42 2.05798 28.042 2.16998C27.118 2.44998 27.104 2.42198 27.972 2.02998C28.406 1.83398 28.7 1.60999 28.7 1.46999C28.7 1.23199 28.602 1.18999 27.832 1.04999C27.342 0.97998 27.3 0.99398 27.3 1.31599C27.3 1.55399 27.146 1.76398 26.852 1.97398C26.6 2.14198 26.362 2.30998 26.334 2.33798C26.306 2.35198 26.362 2.63198 26.46 2.95399C26.628 3.45798 26.698 3.51398 27.034 3.47198C27.258 3.42999 27.384 3.47198 27.342 3.54198C27.188 3.80798 26.306 4.05998 25.592 4.05998C24.864 4.04598 24.85 4.04598 25.27 3.86398L25.69 3.68198L25.172 3.42999C24.738 3.21999 24.584 3.20599 24.276 3.34599C23.842 3.54198 23.688 3.45798 23.94 3.14999C24.038 3.02399 24.094 2.91199 24.066 2.88399C23.996 2.82799 20.468 3.84998 18.76 4.40999C17.122 4.94199 15.064 6.01999 14.168 6.80399C13.426 7.44799 13.384 7.62999 13.93 7.72799C14.084 7.75599 14.21 7.83998 14.21 7.90998C14.224 7.99398 14.28 8.20399 14.336 8.38599L14.448 8.72198L14.63 8.28799C14.854 7.76999 15.246 7.50399 16.31 7.12598C17.178 6.81799 17.388 6.85999 17.038 7.23798C16.786 7.53199 16.324 8.66599 16.17 9.37999L16.072 9.86999L16.492 9.30999C16.716 9.00199 17.29 8.38599 17.766 7.95198C18.48 7.27999 18.62 7.06998 18.634 6.64999C18.648 6.38398 18.662 6.07598 18.676 5.97798C18.704 5.57198 19.67 5.30598 19.992 5.62798C20.118 5.75398 20.006 5.94998 19.53 6.45399C19.18 6.83199 18.9 7.23798 18.9 7.36399C18.9 7.53199 19.068 7.41999 19.46 6.99998C19.922 6.49599 20.062 6.42599 20.384 6.49599C20.804 6.60799 21.28 6.32798 20.972 6.14598C20.874 6.08998 20.832 6.00599 20.86 5.97798C21.168 5.73998 23.086 4.61999 23.212 4.61999C23.45 4.61999 23.562 5.20798 23.394 5.61398C23.324 5.82398 23.016 6.10398 22.722 6.25798C22.428 6.41198 21.7 6.78999 21.098 7.11198C20.244 7.57399 19.866 7.69999 19.32 7.69999C18.732 7.69999 18.62 7.74199 18.62 7.96598C18.62 8.10599 18.718 8.30199 18.83 8.39999C18.942 8.49799 19.04 8.65199 19.04 8.76398C19.04 9.04399 18.326 9.49199 17.556 9.67398C17.178 9.77199 16.38 10.08 15.792 10.388C15.022 10.766 14.7 10.864 14.7 10.724C14.7 10.626 14.854 10.108 15.064 9.58998C15.26 9.05799 15.4 8.46999 15.372 8.27399C15.302 7.68599 14.938 7.83998 14.7 8.56799C14.532 9.11399 14.448 9.21199 14.21 9.15599C14.056 9.11399 13.692 9.18399 13.398 9.30999C13.118 9.42199 12.88 9.47799 12.88 9.42199C12.88 9.36599 13.118 9.07199 13.398 8.76398L13.93 8.21799L13.09 8.80598C12.628 9.14199 11.69 9.78599 10.99 10.262C9.77199 11.088 8.11999 12.586 8.11999 12.838C8.11999 12.908 8.30199 12.95 8.53999 12.908C9.15599 12.824 9.08599 13.118 8.18999 14.21C7.76999 14.714 7.41999 15.176 7.41999 15.204C7.41999 15.33 7.57399 15.246 8.03599 14.84C8.31599 14.588 8.55399 14.476 8.60999 14.546C8.65199 14.63 7.95199 15.428 7.05599 16.31C5.44599 17.92 5.43199 17.948 5.52999 18.452C5.64199 19.04 5.87999 19.39 5.87999 18.956C5.87999 18.144 6.49599 16.8 6.87399 16.8C7.08399 16.8 7.01399 17.248 6.49599 19.264C6.21599 20.342 5.94999 21.714 5.89399 22.33L5.80999 23.45L5.29199 22.61C4.99799 22.148 4.75999 21.868 4.75999 21.994C4.75999 22.12 4.40999 22.652 3.98999 23.17C3.56999 23.674 3.21999 24.122 3.21999 24.15C3.21999 24.164 3.12199 24.416 3.00999 24.696C2.89799 24.976 2.82799 25.2 2.85599 25.2C2.88399 25.2 3.12199 24.878 3.37399 24.472L3.83599 23.758L4.01799 24.164C4.26999 24.752 4.24199 25.228 3.84999 27.3C3.49999 29.19 3.42999 30.366 3.63999 30.87C3.75199 31.122 3.76599 31.122 3.76599 30.786C3.77999 30.338 4.10199 29.89 4.31199 30.016C4.52199 30.142 4.52199 30.996 4.32599 31.906C4.11599 32.9 3.86399 33.012 3.94799 32.06L4.01799 31.332L3.55599 31.402C2.99599 31.5 2.99599 31.486 2.85599 29.61C2.81399 28.84 2.71599 28.07 2.64599 27.888C2.46399 27.412 2.12799 27.51 2.01599 28.07C1.88999 28.784 2.04399 29.666 2.65999 31.57C3.26199 33.446 3.45799 34.3 3.26199 34.3C3.19199 34.3 2.93999 34.034 2.68799 33.712C2.21199 33.096 2.14199 33.138 2.39399 33.852C2.47799 34.09 2.61799 34.272 2.70199 34.258C2.81399 34.244 2.86999 34.594 2.86999 35.462C2.86999 36.134 2.84199 36.68 2.79999 36.68C2.75799 36.68 2.51999 36.554 2.28199 36.4L1.81999 36.12L1.83399 36.512C1.84799 37.296 2.02999 38.15 2.16999 38.108C2.33799 38.052 3.09399 41.006 3.52799 43.428C3.70999 44.394 3.89199 45.136 3.93399 45.052C4.04599 44.87 4.40999 45.528 4.54999 46.186C4.71799 46.942 4.88599 46.41 4.81599 45.36L4.75999 44.45L4.96999 45.22C5.09599 45.64 5.24999 46.662 5.31999 47.488C5.38999 48.328 5.52999 49.294 5.61399 49.658L5.78199 50.302L6.03399 49.994L6.28599 49.686L6.48199 50.162C6.91599 51.198 6.92999 51.282 6.55199 51.212L6.20199 51.142L6.52399 51.632C6.70599 51.898 6.85999 52.262 6.85999 52.43C6.85999 52.71 7.37799 53.34 7.60199 53.34C7.65799 53.34 7.67199 53.172 7.61599 52.962C7.57399 52.738 7.82599 53.088 8.17599 53.718C8.52599 54.362 8.81999 55.02 8.81999 55.202C8.81999 55.86 9.43599 56.756 10.5 57.61C11.074 58.086 11.62 58.604 11.704 58.772C11.858 59.08 13.874 60.998 15.316 62.188C16.366 63.07 18.256 64.33 19.642 65.1C20.286 65.45 20.678 65.744 20.58 65.8C20.426 65.898 24.612 68.292 26.082 68.936C27.678 69.636 29.078 70 30.184 70C30.744 70 31.22 69.958 31.22 69.916C31.22 69.874 31.15 69.72 31.08 69.566C30.982 69.384 30.982 69.3 31.08 69.3C31.15 69.3 31.22 69.188 31.22 69.048C31.22 68.824 31.444 68.81 34.048 68.81C37.1 68.81 38.71 68.614 41.328 67.97C42.112 67.774 42.77 67.62 42.784 67.62C42.812 67.62 42.84 67.914 42.84 68.292C42.84 69.104 43.134 69.58 43.638 69.58H44.002L43.61 69.216C43.288 68.922 43.232 68.782 43.302 68.362C43.4 67.802 43.708 67.41 44.268 67.116C44.632 66.92 44.66 66.934 44.66 67.186C44.66 67.732 45.066 67.76 47.124 67.396C48.188 67.214 49.238 67.018 49.462 66.976C49.798 66.892 49.84 66.92 49.84 67.256C49.84 67.676 49.868 67.69 50.764 67.41C51.142 67.298 51.464 67.2 51.492 67.2C51.506 67.2 51.52 67.424 51.52 67.69C51.52 67.998 51.436 68.222 51.282 68.306C51.142 68.39 51.086 68.46 51.142 68.46C51.338 68.46 52.108 67.872 52.024 67.802C51.982 67.76 52.08 67.536 52.234 67.326L52.514 66.92H51.898C51.548 66.92 51.086 66.878 50.848 66.836C50.47 66.766 50.428 66.71 50.54 66.486C50.624 66.346 50.68 66.024 50.68 65.772V65.296L51.744 65.394L52.808 65.506L53.228 65.03C53.452 64.764 54.124 64.288 54.712 63.952C55.3 63.63 56.014 63.14 56.266 62.874C56.532 62.594 56.7 62.468 56.63 62.58C56.56 62.706 56.63 62.692 56.812 62.524C57.162 62.23 57.246 62.02 56.91 62.3C56.756 62.426 56.7 62.426 56.7 62.314C56.7 62.23 56.798 62.118 56.91 62.076C57.022 62.02 57.12 61.88 57.12 61.74C57.12 61.614 57.302 61.25 57.54 60.928L57.946 60.354L57.204 60.62C56.546 60.844 54.81 61.18 54.306 61.18C54.208 61.18 54.334 60.956 54.6 60.69C54.964 60.312 55.118 60.242 55.314 60.354C55.524 60.466 55.65 60.382 56.014 59.892C56.252 59.556 56.574 59.038 56.728 58.73C57.022 58.156 58.394 56.238 58.786 55.86C58.912 55.734 59.416 55.146 59.92 54.53C60.424 53.914 61.264 52.906 61.796 52.29C63.042 50.834 64.61 48.454 65.52 46.648C66.094 45.486 66.29 45.206 66.5 45.262C66.724 45.318 66.752 45.206 66.808 44.366C66.836 43.848 66.906 43.372 66.948 43.33C67.004 43.274 67.186 43.33 67.368 43.456C67.998 43.904 68.082 43.778 67.97 42.588C67.83 41.076 67.844 40.11 68.026 39.802C68.11 39.662 68.18 39.62 68.18 39.718C68.18 39.928 68.698 40.222 68.88 40.11C68.964 40.054 68.866 39.732 68.67 39.326C68.376 38.766 68.348 38.64 68.53 38.64C68.656 38.64 68.866 38.374 69.02 38.024C69.16 37.688 69.342 37.394 69.426 37.366C69.51 37.324 69.412 36.68 69.16 35.574C68.656 33.502 68.642 33.236 69.034 33.138C69.3 33.068 69.314 33.096 69.23 33.558C69.174 33.908 69.202 34.09 69.328 34.174C69.916 34.552 70.014 34.076 69.58 32.816C69.412 32.368 69.286 31.696 69.286 31.346C69.272 30.73 69.258 30.702 68.922 30.772L68.558 30.842L68.6 28.966C68.67 26.11 68.67 26.096 68.194 25.816C67.844 25.62 67.704 25.326 67.284 23.996C66.668 22.092 65.646 19.782 64.764 18.298C64.414 17.696 64.12 17.108 64.12 17.01C64.12 16.912 63.854 16.52 63.518 16.156C63.196 15.778 62.552 14.994 62.09 14.42C60.956 12.992 58.842 10.906 57.386 9.77199C56.294 8.91799 53.536 7.08398 53.158 6.95798C53.074 6.92999 53.228 6.63599 53.536 6.25798C54.124 5.54398 54.152 5.12399 53.648 4.78799C53.326 4.57799 53.326 4.57799 53.494 4.94199C53.634 5.24998 53.62 5.37598 53.424 5.65598C53.088 6.17398 52.682 6.34198 52.038 6.24398C51.716 6.18798 51.394 6.08998 51.31 6.03399C51.24 5.96398 50.932 5.83798 50.638 5.73998C50.148 5.58598 50.12 5.55798 50.316 5.33398C50.442 5.19398 50.54 5.01199 50.54 4.92799C50.54 4.59199 49.658 3.79398 48.412 2.96799C46.998 2.04398 46.578 1.97398 46.088 2.58998L45.836 2.89799L45.164 2.11398C44.492 1.34399 44.464 1.32999 43.694 1.31599C43.26 1.31599 42.504 1.17599 42 1.02199C41.496 0.867981 40.656 0.699982 40.11 0.643982C39.298 0.587982 39.06 0.615982 38.738 0.825981ZM39.438 0.783981C39.396 0.825981 39.27 0.839981 39.172 0.797981C39.06 0.755981 39.102 0.713982 39.256 0.713982C39.41 0.699982 39.494 0.741982 39.438 0.783981ZM49.392 5.01199C49.588 5.30598 49.588 5.31998 49.154 5.16599C48.72 5.01199 48.636 4.89999 48.818 4.70399C48.958 4.56399 49.168 4.67599 49.392 5.01199ZM12.012 10.388C11.9 10.57 11.536 11.186 11.2 11.76C10.864 12.334 10.57 12.824 10.556 12.852C10.542 12.88 10.374 12.824 10.206 12.726L9.88399 12.558L10.262 12.264C10.472 12.096 10.64 11.9 10.64 11.83C10.64 11.676 12.012 10.08 12.138 10.08C12.18 10.08 12.124 10.22 12.012 10.388ZM9.79999 18.578C9.64599 18.816 9.64599 18.816 9.71599 18.578C9.75799 18.438 9.79999 18.242 9.81399 18.158C9.81399 18.032 9.84199 18.032 9.88399 18.158C9.92599 18.256 9.88399 18.438 9.79999 18.578ZM11.62 19.446C11.62 19.516 11.522 19.642 11.41 19.74C11.242 19.88 11.2 19.88 11.2 19.712C11.2 19.6 11.242 19.46 11.298 19.418C11.424 19.278 11.62 19.292 11.62 19.446ZM9.93999 19.796C9.93999 19.824 9.98199 19.95 10.024 20.062C10.066 20.188 9.88399 20.426 9.54799 20.692L9.01599 21.126L9.22599 20.426C9.37999 19.936 9.50599 19.74 9.68799 19.74C9.82799 19.74 9.93999 19.768 9.93999 19.796ZM10.598 20.384C10.514 20.678 9.98199 21.602 9.42199 22.428C8.86199 23.268 8.13399 24.458 7.81199 25.088L7.20999 26.25L7.16799 24.262C7.13999 22.386 7.15399 22.246 7.44799 21.91C7.61599 21.714 7.82599 21.56 7.93799 21.56C8.03599 21.56 8.21799 21.406 8.34399 21.21C8.59599 20.818 8.81999 20.86 8.81999 21.294C8.81999 21.924 9.89799 21.196 10.388 20.258C10.724 19.586 10.822 19.642 10.598 20.384ZM68.46 27.496C68.46 28.112 68.222 27.762 68.124 27.02C68.04 26.418 68.04 26.404 68.236 26.74C68.362 26.936 68.446 27.272 68.46 27.496ZM6.38399 27.286C6.49599 27.188 6.62199 27.16 6.67799 27.202C6.81799 27.342 6.14599 28.84 5.93599 28.84C5.54399 28.84 5.23599 27.664 5.47399 27.048L5.61399 26.67L5.90799 27.062C6.13199 27.37 6.22999 27.412 6.38399 27.286ZM47.18 66.15C47.18 66.29 47.04 66.36 46.732 66.36L46.27 66.346L46.62 66.15C47.068 65.898 47.18 65.898 47.18 66.15ZM45.948 67.158C46.144 67.41 45.71 67.55 45.248 67.396C44.716 67.214 44.716 66.948 45.248 66.724C45.668 66.542 45.71 66.542 45.766 66.752C45.794 66.878 45.878 67.074 45.948 67.158ZM30.73 68.754C30.926 68.95 30.226 68.894 29.75 68.684C29.33 68.488 29.344 68.488 29.96 68.558C30.31 68.6 30.646 68.684 30.73 68.754Z" fill="black"/>
<path d="M35.742 1.21826C35.952 1.24626 36.288 1.24626 36.512 1.21826C36.722 1.19026 36.54 1.16226 36.12 1.16226C35.7 1.16226 35.518 1.19026 35.742 1.21826Z" fill="black"/>
<path d="M50.932 4.95626C51.1 5.18026 51.24 5.47426 51.24 5.62826C51.24 5.78226 51.31 5.85226 51.38 5.81026C51.66 5.64226 51.506 5.19426 51.072 4.87226L50.61 4.55026L50.932 4.95626Z" fill="black"/>
<path d="M4.648 18.8023C4.326 19.1523 4.256 19.5303 4.48 19.6703C4.564 19.7123 4.62 19.8943 4.62 20.0623C4.634 20.3702 4.634 20.3702 4.844 20.0903C5.026 19.8383 5.026 19.8103 4.844 19.7683C4.564 19.7123 4.564 19.7123 4.83 19.0823C5.096 18.4663 5.04 18.3823 4.648 18.8023Z" fill="black"/>
<path d="M2.31 20.7768C2.128 21.2528 2.114 21.4488 2.226 21.6868C2.52 22.2048 2.66 21.9948 2.66 21.0708C2.66 20.5668 2.632 20.1608 2.604 20.1608C2.576 20.1608 2.436 20.4408 2.31 20.7768Z" fill="black"/>
<path d="M1.63799 23.1003C1.41399 23.4923 1.18999 23.8003 1.13399 23.8003C0.993995 23.8003 0.615995 23.3663 0.531995 23.1003C0.489995 22.9883 0.433995 23.1283 0.405995 23.4083C0.363995 23.6883 0.391995 23.8843 0.447995 23.8563C0.503995 23.8143 0.559995 24.0103 0.559995 24.2763C0.559995 24.5563 0.629995 24.7803 0.699995 24.7803C0.783995 24.7803 0.839995 24.7243 0.839995 24.6543C0.839995 24.5703 1.21799 24.2203 1.67999 23.8703C2.506 23.2263 2.68799 22.9043 2.35199 22.5683C2.09999 22.3163 2.05799 22.3443 1.63799 23.1003Z" fill="black"/>
<path d="M0.699997 25.6207C0.699997 25.7047 0.797997 25.7607 0.909997 25.7607C1.176 25.7607 1.176 25.6767 0.909997 25.5647C0.797997 25.5227 0.699997 25.5507 0.699997 25.6207Z" fill="black"/>
<path d="M67.788 44.1703C67.634 44.5203 67.55 46.3263 67.69 46.1723C67.774 46.0883 68.068 43.9463 67.998 43.8763C67.97 43.8483 67.872 43.9743 67.788 44.1703Z" fill="black"/>
<path d="M64.806 49.1684C64.68 49.6444 64.54 50.1484 64.484 50.2744C64.33 50.6104 65.002 50.4564 65.352 50.0644C65.842 49.5464 65.856 49.2104 65.422 48.7204L65.016 48.2724L64.806 49.1684Z" fill="black"/>
<path d="M63.98 50.9742C63.882 51.1282 63.84 51.2962 63.882 51.3242C63.91 51.3522 64.008 51.2262 64.092 51.0302C64.288 50.6102 64.19 50.5682 63.98 50.9742Z" fill="black"/>
<path d="M63.434 52.3887C63.126 53.3127 63.168 53.3127 63.756 52.4307L64.12 51.8707V52.4307C64.106 52.7387 64.022 53.1447 63.91 53.3407C63.406 54.2227 63.826 54.6147 64.596 53.9987C64.946 53.7047 64.974 53.6347 64.834 53.3547C64.722 53.1727 64.694 52.8227 64.764 52.4307C64.848 51.8427 64.834 51.8007 64.47 51.6607C63.84 51.4227 63.742 51.4927 63.434 52.3887Z" fill="black"/>
<path d="M60.774 55.5239C60.774 55.6919 60.41 56.2099 59.99 56.6859C59.248 57.5119 59.052 57.9879 59.36 58.1699C59.612 58.3239 59.514 58.4919 59.122 58.5899L58.73 58.7019L59.136 58.8139C59.416 58.8979 59.626 58.8559 59.878 58.7019L60.228 58.4639L59.906 58.2399C59.416 57.8619 59.64 57.5399 60.41 57.5399H61.04L61.026 56.9379C61.026 56.2799 60.802 55.0619 60.774 55.5239Z" fill="black"/>
<path d="M62.37 55.5942C62.314 55.6782 62.3 55.7622 62.342 55.8042C62.37 55.8462 62.44 55.7762 62.482 55.6502C62.58 55.4122 62.496 55.3702 62.37 55.5942Z" fill="black"/>
<path d="M61.81 56.7982C61.6 57.1342 61.46 57.4422 61.488 57.4702C61.502 57.4842 61.726 57.5542 61.964 57.5962C62.342 57.6802 62.454 57.6382 62.706 57.3162C63.098 56.8262 63.084 56.6722 62.58 56.3922L62.174 56.1682L61.81 56.7982Z" fill="black"/>
<path d="M58.786 59.5985L58.31 60.1025L58.758 59.7945C59.234 59.4725 59.43 59.2485 59.332 59.1365C59.304 59.1085 59.052 59.3185 58.786 59.5985Z" fill="black"/>
<path d="M52.85 66.6403C52.808 66.7103 52.836 66.7803 52.906 66.7803C52.99 66.7803 53.06 66.7103 53.06 66.6403C53.06 66.5563 53.032 66.5003 53.004 66.5003C52.962 66.5003 52.892 66.5563 52.85 66.6403Z" fill="black"/>
<path d="M48.37 68.1939C47.782 68.7959 47.726 68.8939 48.02 68.8099C48.622 68.6419 49.21 68.2499 49.252 67.9839C49.364 67.4239 49.028 67.5079 48.37 68.1939Z" fill="black"/>
<path d="M45.57 68.0399L45.01 68.2919L45.542 68.3059C45.892 68.3199 46.102 68.2499 46.158 68.1099C46.284 67.7739 46.172 67.7599 45.57 68.0399Z" fill="black"/>
<path d="M37.17 69.0203C35.784 69.1603 33.992 69.2863 33.18 69.3003L31.71 69.3283L33.11 69.5943C33.908 69.7623 35.434 69.9023 36.68 69.9583L38.85 70.0283L38.5 69.7483L38.15 69.4683L38.5 69.3143C38.696 69.2443 39.354 69.1323 39.97 69.0763C40.796 69.0063 40.992 68.9503 40.74 68.8663C40.25 68.7263 40.026 68.7403 37.17 69.0203Z" fill="black"/>
<path d="M55.7012 13.2032C55.332 13.2794 54.6055 13.5841 54.2481 13.8184C53.7676 14.1231 53.4453 14.4395 52.8066 15.2364C52.0332 16.1856 51.8926 16.2911 51.2598 16.3614L50.9141 16.3966L50.8203 16.6895C50.6914 17.1114 50.5977 17.2345 50.2344 17.4278C49.8008 17.6622 49.4785 17.8614 49.4023 17.9376C49.3672 17.9727 49.3145 18.1485 49.291 18.3302C49.2676 18.5118 49.2031 18.7227 49.1504 18.8048C49.0156 19.0098 48.4883 19.338 48.1895 19.4083C47.8262 19.4903 47.6445 19.6427 47.5273 19.9766C47.3984 20.3516 47.0469 20.6622 46.6133 20.8028C46.2676 20.9141 46.25 20.9376 46.1621 21.3653C46.1445 21.4532 45.9688 21.6876 45.7637 21.8985C45.4297 22.2325 45.3535 22.2794 44.8848 22.4317L44.3691 22.5958L44.0938 22.4376C43.8301 22.2852 43.2676 22.0098 42.4356 21.629C42.2246 21.5352 41.9492 21.3653 41.8262 21.254C41.5918 21.0548 41.4629 20.9962 41.5391 21.1251C42.2363 22.2735 43.0039 23.2052 43.4434 23.4337C43.5371 23.4805 43.6133 23.5391 43.6133 23.5567C43.6133 23.5802 43.1856 24.0372 42.6582 24.5704C42.1367 25.1036 40.8535 26.4337 39.8047 27.5294C38.7559 28.6251 36.3828 31.0509 34.5313 32.92C30.0723 37.4259 26.6211 41.0118 24.9453 42.8809C21.8633 46.3204 21.1895 47.0763 20.4395 47.9493C19.4961 49.0509 18.2363 50.6212 17.3516 51.7989C16.1856 53.3516 15.1309 54.9337 15.2129 55.0157C15.3418 55.1505 19.9004 51.6934 22.4902 49.502C26.7266 45.9161 33.9219 38.961 39.3711 33.1837C44.8496 27.3712 45.2891 26.8907 45.8223 26.1407C45.9981 25.8888 46.1621 25.6837 46.1914 25.6837C46.2207 25.6837 46.2559 25.7364 46.2793 25.8009C46.3438 26.0059 46.8652 26.7618 47.1816 27.1016C47.4863 27.4356 48.2305 28.004 48.2832 27.9454C48.3359 27.8927 48.1895 26.6856 48.1191 26.545C48.084 26.4747 47.8672 26.1231 47.6504 25.7657C47.3164 25.2266 47.2461 25.0684 47.2461 24.8634C47.2461 24.5704 47.3574 24.3126 47.6328 23.9962C47.7441 23.8673 47.832 23.6973 47.832 23.6212C47.832 23.4278 47.8789 23.3809 48.2129 23.252C48.4766 23.1466 48.5176 23.1055 48.5938 22.8653C48.7109 22.502 48.7813 22.4259 49.1621 22.2852C49.8535 22.0274 50 21.8634 50 21.3302C50 21.0548 50.2051 20.6798 50.4922 20.4161C50.5742 20.3341 50.6445 20.211 50.6445 20.1407C50.6445 20.0411 50.7207 19.9649 50.9492 19.8419C51.1953 19.7071 51.2656 19.6368 51.3066 19.4727C51.4297 18.9981 51.4531 18.963 51.7402 18.9278C52.0625 18.8927 52.2676 18.752 52.4199 18.4591C52.4785 18.336 52.7246 18.0606 52.9531 17.8438C53.3223 17.504 53.3926 17.4044 53.4805 17.0997C53.5625 16.8419 53.6563 16.6778 53.8438 16.4962C54.0723 16.2677 54.1191 16.2442 54.3359 16.2618L54.582 16.2794L54.6992 15.9688C54.834 15.6055 55.1035 15.3126 55.4434 15.1602C55.5723 15.0958 55.6836 15.0079 55.6836 14.961C55.6895 14.7559 55.9238 14.3692 56.1055 14.2579C56.3516 14.1114 56.4629 14.1114 56.7852 14.2638C57.125 14.4337 57.2656 14.668 57.2656 15.0782C57.2656 15.5411 57.1836 15.793 56.791 16.4845C56.5098 16.9884 56.4395 17.1817 56.3867 17.5274C56.3223 17.9786 56.3809 18.6231 56.5039 18.8106C56.5684 18.9102 56.5684 18.9102 56.5332 18.7989C56.4746 18.629 56.4922 17.8145 56.5625 17.5216C56.6504 17.1231 56.7148 16.9825 57.0547 16.4669C57.4414 15.8751 57.5527 15.6173 57.5996 15.1895C57.6641 14.5567 57.2422 13.6192 56.7441 13.3087C56.5391 13.1798 56.0527 13.127 55.7012 13.2032ZM55.7715 13.379C55.7539 13.4083 55.6895 13.4376 55.6309 13.4376C55.5781 13.4376 55.502 13.4669 55.4609 13.5079C55.4082 13.5606 55.3906 13.5606 55.3906 13.5079C55.3906 13.4727 55.4785 13.4141 55.584 13.3848C55.6836 13.3555 55.7773 13.3263 55.7891 13.3263C55.8008 13.3204 55.7891 13.3438 55.7715 13.379ZM53.6914 14.5919C53.6914 14.6446 53.6738 14.668 53.6504 14.6446C53.6211 14.6212 53.5742 14.7677 53.5391 14.9727C53.5039 15.172 53.4688 15.2716 53.4629 15.1778C53.4629 15.0899 53.4395 15.0196 53.416 15.0196C53.3398 15.0196 53.252 15.1016 53.2461 15.1778C53.2402 15.2188 53.2344 15.3243 53.2285 15.4122L53.2109 15.5763L53.1641 15.4298C53.082 15.172 53.0996 15.1016 53.3516 14.7911C53.6094 14.4805 53.6914 14.4278 53.6914 14.5919ZM52.9941 15.5177C52.9531 15.8048 52.9531 15.8048 52.9063 15.6231C52.8828 15.5059 52.8887 15.3888 52.9297 15.3126C53.0234 15.1368 53.0352 15.1778 52.9941 15.5177ZM52.8066 15.6759C52.8066 15.7638 52.7891 15.7813 52.7715 15.7227C52.7246 15.6173 52.584 16.086 52.5723 16.3673L52.5664 16.5723L52.5195 16.3966C52.4785 16.2266 52.4727 16.2266 52.4609 16.3673C52.4492 16.4493 52.4492 16.5899 52.4492 16.6895C52.4609 16.8419 52.4551 16.8477 52.4082 16.7423C52.3789 16.672 52.3379 16.502 52.3145 16.3614C52.2852 16.1212 52.2969 16.086 52.5195 15.8223C52.6543 15.67 52.7715 15.547 52.7891 15.547C52.8008 15.547 52.8125 15.6055 52.8066 15.6759ZM51.9219 16.6954C51.9043 16.7774 51.8926 16.7657 51.8633 16.6427C51.8457 16.5313 51.8516 16.4962 51.8867 16.5313C51.9219 16.5665 51.9336 16.6368 51.9219 16.6954ZM51.5586 16.672C51.5586 16.7481 51.582 16.9766 51.6055 17.1876C51.6582 17.668 51.5762 17.5977 51.4238 17.0294C51.3066 16.6134 51.3184 16.5606 51.4941 16.5489C51.5293 16.543 51.5527 16.6016 51.5586 16.672ZM51.8281 16.836C51.8398 16.9649 51.8281 17.0704 51.8106 17.0704C51.7871 17.0704 51.7578 16.9532 51.752 16.8126C51.7402 16.672 51.7461 16.5665 51.7637 16.5782C51.7871 16.5899 51.8164 16.7071 51.8281 16.836ZM51.3125 17.088C51.3477 17.5333 51.2891 17.5509 51.1367 17.1583C51.0547 16.9415 51.0488 16.8653 51.1074 16.7364C51.207 16.5138 51.2715 16.6309 51.3125 17.088ZM50.8027 17.6622C50.8145 17.7266 50.7969 17.7677 50.7676 17.7442C50.7324 17.7266 50.7148 17.6622 50.7207 17.5977C50.7324 17.463 50.7793 17.4981 50.8027 17.6622ZM50.4453 17.6095C50.4746 17.6505 50.4629 17.6563 50.4102 17.627C50.3574 17.5919 50.3457 17.627 50.3809 17.7677C50.4277 17.9903 50.3691 18.0079 50.2871 17.7911C50.2461 17.6739 50.252 17.627 50.3047 17.586C50.4043 17.5274 50.3984 17.5274 50.4453 17.6095ZM50.2344 18.0196C50.2637 18.1602 50.2988 18.3243 50.3223 18.3888C50.3398 18.4532 50.2754 18.3477 50.1816 18.1544C50.0527 17.9083 50.0234 17.797 50.0762 17.7618C50.1699 17.7032 50.1816 17.7266 50.2344 18.0196ZM49.9648 18.3888C50.1348 18.8165 50.1406 18.8516 50.0586 18.7989C49.9824 18.752 49.9824 18.7813 50.0586 18.9805C50.1113 19.1036 50.1055 19.127 50.0469 19.0802C50.0059 19.0509 49.9297 19.0274 49.8828 19.0333C49.8359 19.0333 49.7363 18.9454 49.6602 18.8282L49.5254 18.6231L49.5547 19.0567C49.584 19.5606 49.5547 19.6837 49.4375 19.5841C49.3731 19.5313 49.3555 19.5372 49.3555 19.5958C49.3496 19.6485 49.3027 19.6192 49.2266 19.5313L49.1035 19.3848L49.1445 19.5899L49.1856 19.795L49.0625 19.543L48.9336 19.297L49.1621 19.045C49.332 18.8634 49.4199 18.6993 49.4727 18.4708C49.6133 17.879 49.7539 17.8555 49.9648 18.3888ZM52.1328 18.5645C52.0449 18.7052 51.8398 18.8106 51.7754 18.752C51.752 18.7286 52.1387 18.4356 52.2148 18.4239C52.2207 18.418 52.1856 18.4825 52.1328 18.5645ZM48.3594 19.6544C48.3594 19.6837 48.3301 19.6954 48.2891 19.672C48.2481 19.6485 48.2422 19.6544 48.2656 19.6954C48.2891 19.7364 48.2891 19.795 48.2656 19.8302C48.2422 19.877 48.2129 19.8712 48.1777 19.8184C48.0957 19.6895 48.1133 19.8243 48.2363 20.252C48.3008 20.4688 48.3418 20.6446 48.3301 20.6446C48.2598 20.6446 47.7793 19.9356 47.8027 19.8653C47.8379 19.7833 48.1543 19.6016 48.2891 19.5958C48.3242 19.5899 48.3594 19.6192 48.3594 19.6544ZM49.1211 20.961C49.1211 21.0723 48.9629 20.797 48.8691 20.504C48.8106 20.3458 48.7695 20.1348 48.7695 20.0352C48.7754 19.9063 48.8223 20.0059 48.9453 20.3751C49.0449 20.6622 49.1211 20.9259 49.1211 20.961ZM47.8086 20.2227C47.8145 20.2755 47.832 20.4102 47.8555 20.5157L47.8965 20.7091L47.7441 20.5743C47.6094 20.4454 47.6035 20.4161 47.6621 20.2462C47.7324 20.047 47.7852 20.0411 47.8086 20.2227ZM47.6094 20.586C47.6035 20.627 47.627 20.7032 47.668 20.7559C47.709 20.8087 47.668 20.7852 47.5801 20.7032L47.416 20.5567L47.4746 20.7208C47.5098 20.8087 47.5215 20.879 47.5039 20.879C47.4805 20.879 47.5039 20.9259 47.5449 20.9786C47.6211 21.0782 47.6152 21.0782 47.5098 20.9903C47.2988 20.8204 47.2637 20.8145 47.2871 20.961C47.3047 21.0548 47.2871 21.0958 47.2227 21.0958C47.1758 21.0958 47.1406 21.0782 47.1465 21.0606C47.1523 21.043 47.1348 21.0255 47.0996 21.0255C47.0703 21.0255 47.0469 21.0372 47.0527 21.0548C47.1406 21.3419 47.0352 21.4356 46.8945 21.1954C46.8125 21.0606 46.8184 21.043 46.9238 20.9845C46.9883 20.9434 47.1465 20.8145 47.2754 20.6915C47.4981 20.4805 47.6445 20.4337 47.6094 20.586ZM46.7773 21.3477C46.9121 21.6114 46.9238 21.6641 46.8242 21.6055C46.7832 21.5821 46.7773 21.588 46.8008 21.6348C46.8242 21.67 46.8652 21.6876 46.8945 21.67C46.918 21.6524 46.9883 21.7169 47.0469 21.8048C47.1172 21.9161 47.1231 21.9395 47.0645 21.8927C46.9941 21.8341 46.959 21.8341 46.9063 21.8868C46.8652 21.9278 46.8301 21.9395 46.8301 21.9161C46.8242 21.8927 46.8184 21.8399 46.8125 21.7989C46.8066 21.7638 46.7656 21.7345 46.7188 21.7462C46.6719 21.7579 46.6484 21.752 46.6719 21.7286C46.6953 21.7052 46.6777 21.6466 46.6309 21.5997C46.5664 21.5411 46.5606 21.4825 46.6016 21.3712C46.6367 21.2891 46.6484 21.1954 46.625 21.1661C46.6074 21.1368 46.6074 21.1134 46.625 21.1134C46.6426 21.1134 46.7129 21.2188 46.7773 21.3477ZM47.6797 21.4415C47.6973 21.4884 47.6914 21.5118 47.6563 21.4942C47.6211 21.4766 47.5977 21.4356 47.5977 21.4005C47.5977 21.3184 47.6387 21.336 47.6797 21.4415ZM49.7715 21.7169C49.7422 21.7989 49.6836 21.8809 49.6484 21.9044C49.6191 21.922 49.6309 21.8458 49.6895 21.7345C49.8008 21.5001 49.8594 21.4884 49.7715 21.7169ZM42.7168 22.0098C42.9043 22.1505 43.2031 22.3497 43.3789 22.461C45.1543 23.5391 45.2949 23.6446 45.6699 24.1661C45.8106 24.3653 46.1035 24.752 46.3262 25.0333C46.543 25.3087 46.8008 25.6544 46.9004 25.8009L47.082 26.0645L46.8828 25.8302C46.7773 25.7013 46.584 25.4786 46.4492 25.3321C46.3145 25.1856 46.0508 24.8809 45.8574 24.6466C45.3184 23.9962 44.2813 23.1641 44.1289 23.2579C44.0938 23.2813 44.082 23.2755 44.0996 23.2403C44.1523 23.1583 43.8652 22.9708 43.7773 23.0235C43.7422 23.047 43.7305 23.0411 43.7481 23.0059C43.7715 22.9708 43.502 22.7423 43.1504 22.502C42.8047 22.2559 42.4707 21.9864 42.418 21.9044C42.3652 21.8223 42.3359 21.7579 42.3535 21.7579C42.3652 21.7579 42.5352 21.8692 42.7168 22.0098ZM46.2266 21.9044C46.209 21.9571 46.2266 22.0098 46.2734 22.0274C46.3145 22.045 46.3496 22.0919 46.3496 22.1329C46.3496 22.2091 46.127 22.2091 46.0039 22.1329C45.9805 22.1153 45.957 22.1329 45.957 22.1622C45.957 22.1973 45.9863 22.2266 46.0156 22.2266C46.0508 22.2266 46.0742 22.2559 46.0742 22.297C46.0742 22.3438 46.0391 22.338 45.9805 22.2735C45.8926 22.1856 45.8984 22.168 46.0215 21.9981C46.1621 21.8106 46.2852 21.752 46.2266 21.9044ZM42.4707 22.168C42.5469 22.2911 43.209 22.7013 43.2734 22.6602C43.3086 22.6368 43.3203 22.6427 43.2969 22.6837C43.2559 22.754 44.3691 23.5274 44.4453 23.4805C44.4688 23.463 44.4922 23.4747 44.4922 23.504C44.4922 23.5274 44.5742 23.6153 44.6738 23.6856C44.7793 23.7618 44.8379 23.7911 44.8086 23.7442C44.7852 23.7032 44.8789 23.7794 45.0195 23.92C45.166 24.0606 45.3418 24.213 45.418 24.2598C45.4941 24.3126 45.582 24.4063 45.6172 24.4708C45.6582 24.5587 45.6055 24.5352 45.4238 24.3888C45.0957 24.1309 44.832 23.961 44.1348 23.5802C43.8301 23.4102 43.4023 23.1407 43.1914 22.9825C42.8047 22.6954 42.2598 22.1095 42.3711 22.1095C42.4063 22.1095 42.4531 22.1388 42.4707 22.168ZM45.7227 22.5196C45.7227 22.5489 45.7109 22.5782 45.6992 22.5782C45.6816 22.5782 45.6523 22.5489 45.6348 22.5196C45.6172 22.4845 45.6289 22.461 45.6582 22.461C45.6934 22.461 45.7227 22.4845 45.7227 22.5196ZM45.6523 22.8184C45.9102 23.088 46.2383 23.6153 46.0449 23.4571C45.9453 23.3692 45.9395 23.3751 46.0391 23.5684C46.1914 23.8614 46.0508 23.7325 45.7051 23.2638C45.5293 23.0294 45.3477 22.8067 45.2891 22.7598C45.2129 22.6954 45.207 22.6661 45.2656 22.6309C45.3828 22.5548 45.4004 22.5606 45.6523 22.8184ZM45.5996 23.4337C45.8281 23.6739 46.0566 24.0841 45.9981 24.1368C45.9629 24.1778 45.5293 23.7091 45.5117 23.6153C45.5059 23.5626 45.4414 23.4395 45.3711 23.3399C45.1836 23.0763 45.3242 23.129 45.5996 23.4337ZM46.4316 23.2638C46.5078 23.3575 46.502 23.3634 46.4141 23.2872C46.3555 23.2462 46.3086 23.1993 46.3086 23.1876C46.3086 23.1407 46.3555 23.17 46.4316 23.2638ZM46.625 23.9376C46.7012 24.0782 46.7832 24.2657 46.8008 24.3653C46.8301 24.5059 46.8184 24.5001 46.7481 24.3126C46.7012 24.1895 46.6074 24.002 46.5371 23.8907C46.4727 23.7794 46.4316 23.6915 46.4492 23.6915C46.4668 23.6915 46.543 23.8028 46.625 23.9376ZM44.1406 24.0372C44.1406 24.0665 44.0996 24.1016 44.0527 24.1251C44 24.1427 43.9648 24.1251 43.9648 24.0723C43.9648 24.0255 44.0059 23.9845 44.0527 23.9845C44.0996 23.9845 44.1406 24.0079 44.1406 24.0372ZM44.3984 24.1954C44.416 24.2423 44.4102 24.2657 44.375 24.2481C44.3398 24.2305 44.3164 24.1895 44.3164 24.1544C44.3164 24.0723 44.3574 24.0899 44.3984 24.1954ZM43.4961 24.3829C43.4961 24.4356 43.5723 24.547 43.666 24.629C43.7656 24.7052 43.8301 24.7872 43.8125 24.8106C43.8008 24.8341 43.8418 24.8751 43.9121 24.8927C44.0293 24.9337 44.0293 24.9337 43.9238 25.0567C43.8711 25.127 43.8594 25.1505 43.9063 25.1095C44.0117 25.0216 44.1055 25.0157 44.0469 25.1095C44.0176 25.1563 44.0352 25.1622 44.1172 25.1329C44.1758 25.1095 44.2051 25.1095 44.1816 25.1329C44.1582 25.1563 44.1699 25.2091 44.2051 25.2501C44.2461 25.297 44.2402 25.3321 44.1934 25.3673C44.1523 25.3907 44.1406 25.3848 44.1641 25.3438C44.1816 25.3087 44.1758 25.2677 44.1406 25.2442C44.1113 25.2266 44.082 25.2384 44.082 25.2677C44.082 25.3028 44.0645 25.3263 44.041 25.3204C43.9941 25.3028 43.8008 25.4317 43.4902 25.672C43.3965 25.7481 43.3203 25.7891 43.3203 25.7657C43.3203 25.7423 43.2207 25.8184 43.0977 25.9356C42.9746 26.0587 42.8516 26.1348 42.8223 26.1114C42.7988 26.0821 42.793 26.0938 42.8106 26.129C42.8281 26.1641 42.7754 26.2462 42.6875 26.3106C42.5996 26.3751 42.4824 26.5157 42.4238 26.6153L42.3125 26.8028L42.6055 26.5977C42.7637 26.4805 42.9277 26.3458 42.9688 26.2989C43.0098 26.252 43.0684 26.2286 43.1035 26.252C43.1328 26.2696 43.1445 26.2579 43.127 26.2286C43.0801 26.1524 43.2207 26.0235 43.3262 26.047C43.3672 26.0587 43.4023 26.0352 43.4082 25.9942C43.4082 25.9591 43.4785 25.8712 43.5723 25.8009C43.6602 25.7305 43.7188 25.6544 43.707 25.6309C43.6895 25.6075 43.7656 25.5899 43.8652 25.5958C43.9941 25.5958 44.0527 25.5665 44.0527 25.5079C44.0527 25.461 44.0879 25.42 44.1289 25.42C44.1758 25.42 44.2402 25.379 44.2813 25.3263C44.3398 25.2384 44.3633 25.2384 44.4629 25.3087C44.5449 25.3673 44.5918 25.3731 44.6621 25.3204C44.9375 25.127 44.2344 25.7305 43.4785 26.3399C43.0039 26.7208 42.6289 27.0606 42.6465 27.0841C42.6582 27.1134 42.6289 27.172 42.5703 27.213C42.4766 27.2891 42.4766 27.2833 42.5586 27.1778C42.6406 27.0606 42.6406 27.0606 42.5176 27.172C42.4414 27.2305 42.4004 27.3067 42.418 27.336C42.4356 27.3595 42.4297 27.377 42.4004 27.3712C42.3301 27.3477 41.7969 27.9161 41.5039 28.338C41.2578 28.6837 41.252 28.6954 41.416 28.5899C41.5156 28.5255 41.7266 28.3907 41.8848 28.297C42.2656 28.0626 42.4414 27.9337 43.3203 27.2657C44.1465 26.6329 44.375 26.4805 44.375 26.5567C44.375 26.6563 42.7344 27.9747 41.9199 28.5255C41.2109 29.0118 40.7305 29.4864 40.0742 30.3712C40.0039 30.4591 40.2734 30.3067 40.8301 29.9434C41.3691 29.586 42.4648 28.6954 43.1328 28.0684C43.4668 27.752 43.7539 27.5001 43.7773 27.5001C43.8418 27.5001 42.9688 28.3614 42.3828 28.877C41.6328 29.5333 40.8477 30.1134 40.2031 30.4884C39.752 30.7579 39.6231 30.8692 39.3594 31.2325C39.1836 31.4669 38.9375 31.7423 38.8086 31.8419C38.5449 32.0528 38.5332 32.1466 38.791 31.9708C38.8789 31.9063 39.1133 31.7716 39.3066 31.6661C39.7871 31.3966 41.2227 30.3888 41.6387 30.0255C41.9609 29.7442 42.0313 29.6915 42.0313 29.7501C42.0313 29.7618 41.8145 29.9552 41.5508 30.1778C40.8301 30.7872 39.7637 31.5196 38.8086 32.0704C38.3398 32.3399 37.9004 32.5919 37.8359 32.6329C37.7656 32.6739 37.5664 32.9141 37.3906 33.1661C36.9922 33.7286 36.418 34.379 36.3008 34.3966C36.1895 34.4083 35.3164 35.2755 35.3633 35.3223C35.3809 35.3399 35.6152 35.1407 35.8789 34.8829C36.1426 34.6251 36.3477 34.4552 36.3242 34.5079C36.3066 34.5606 36.4238 34.4786 36.5938 34.3263C36.875 34.0743 37.5488 33.6407 37.7949 33.5587C37.8535 33.5352 37.7012 33.6583 37.4609 33.8223C36.875 34.2325 36.5293 34.5723 35.6914 35.5684C35.3106 36.0255 34.9707 36.418 34.9414 36.4356C34.9121 36.4532 34.8301 36.5528 34.7598 36.6583L34.6309 36.8458L34.8008 36.6934C34.8945 36.6114 35.2168 36.3184 35.5215 36.0372C35.8262 35.7559 36.084 35.5391 36.1016 35.5567C36.1543 35.6095 35.5977 36.1544 34.8945 36.7286C34.3379 37.1856 34.1856 37.3497 33.9395 37.7423C33.5879 38.3223 33.0606 38.8614 32.5039 39.2305C32.1289 39.4766 32.0586 39.5528 31.8418 39.9571C31.4961 40.5899 31.2148 40.9063 30.4121 41.5509C29.8848 41.9727 29.5918 42.2598 29.1992 42.7579C28.6484 43.4552 27.9277 44.1759 26.709 45.254C26.293 45.6231 25.7773 46.086 25.5664 46.2852C24.9102 46.9005 24.418 47.2286 23.3984 47.7442L22.4082 48.2481L21.4824 49.1446C20.5508 50.047 19.8945 50.6329 19.2969 51.1075C18.8867 51.4298 19.1387 51.1895 20.0703 50.3692C20.7969 49.7247 21.8574 48.6055 21.6758 48.67C21.6172 48.6934 21.4473 48.7403 21.2949 48.7813C21.1484 48.8165 20.9785 48.8692 20.9258 48.8985C20.8613 48.9278 20.8203 48.9278 20.8203 48.8985C20.8203 48.8634 20.8789 48.8282 20.9492 48.8106C21.0195 48.7872 21.0664 48.7638 21.0488 48.7462C21.002 48.6934 20.7031 48.793 20.7207 48.8575C20.7266 48.8868 20.6797 48.922 20.6152 48.9278L20.4981 48.9454L20.6152 48.8927C20.7266 48.8458 20.7207 48.8399 20.5859 48.8165C20.4746 48.7989 20.5273 48.7696 20.791 48.711C20.9844 48.6641 21.207 48.6231 21.2891 48.6231C21.5 48.6114 21.9219 48.377 22.2148 48.1075C22.3555 47.9845 22.7129 47.7677 23.0059 47.627C23.9141 47.211 25.3203 46.3966 25.2559 46.3263C25.2383 46.3145 25.1504 46.3438 25.0566 46.3966C24.9043 46.4903 24.8984 46.4903 25.0098 46.3966C25.0742 46.3438 25.2441 46.2325 25.3906 46.1446C25.707 45.963 26.1641 45.6231 26.4453 45.3712C26.709 45.1309 26.6211 45.1778 25.7715 45.7227C25.3848 45.9747 24.9395 46.2442 24.7754 46.3263C24.6172 46.4083 24.4297 46.5196 24.3652 46.5723C24.3008 46.6251 24.3477 46.6134 24.4707 46.543C24.8516 46.3204 24.7695 46.4552 24.3535 46.7305C23.9141 47.0177 23.3984 47.3165 23.6328 47.1466C23.709 47.088 23.8438 46.9825 23.9258 46.9122L24.0723 46.7891L23.8848 46.8009C23.7852 46.8126 23.6563 46.8653 23.6035 46.918C23.5449 46.9708 23.4629 47.0059 23.416 46.9884C23.3691 46.9708 23.3457 46.9766 23.3633 47.0059C23.3984 47.0587 23.252 47.1407 23.1055 47.1524C23.0586 47.1583 23.0234 47.1876 23.0293 47.2286C23.041 47.2696 23.0117 47.2872 22.9648 47.2696C22.918 47.252 22.8652 47.2638 22.8477 47.2989C22.8242 47.3341 22.7715 47.3458 22.7188 47.3223C22.666 47.3048 22.6367 47.3223 22.6484 47.3634C22.6602 47.4044 22.6074 47.4454 22.5313 47.4571C22.4551 47.4688 22.3496 47.5216 22.3027 47.5743C22.1973 47.6798 21.6055 47.9493 21.4824 47.9493C21.4355 47.9493 21.418 47.9727 21.4355 48.0079C21.459 48.043 21.4297 48.0489 21.3711 48.0255C21.3066 48.002 21.2832 48.0079 21.3066 48.0489C21.3359 48.0899 21.3066 48.1016 21.2305 48.0841C21.166 48.0665 21.0781 48.0782 21.0371 48.1075C21.002 48.1427 20.8906 48.1895 20.791 48.213C20.6445 48.2481 20.6328 48.2598 20.7266 48.295C20.8145 48.3302 20.7852 48.3595 20.5508 48.4591C20.0527 48.67 19.9414 48.6876 20.1875 48.5118C20.3106 48.4298 20.4453 48.377 20.4922 48.3946C20.5391 48.4122 20.5801 48.377 20.5977 48.3184C20.6152 48.2481 20.832 48.1192 21.2246 47.9552C21.834 47.6915 22.6602 47.252 22.7773 47.1231C22.8125 47.0821 22.748 47.1055 22.6309 47.17C22.3672 47.3165 21.4004 47.6388 21.0547 47.6915C20.8203 47.7325 20.7969 47.7266 20.8672 47.6446C20.9609 47.5333 21.1484 47.4571 21.6348 47.3341C22.0566 47.2286 22.6484 46.9473 22.5371 46.9122C22.4961 46.8946 22.2617 46.9298 22.0156 46.9766C21.1895 47.1466 21.2363 47.047 22.1387 46.7188C22.4316 46.6134 22.8301 46.4434 23.0352 46.338C23.3516 46.1739 23.3867 46.1446 23.2695 46.1095C23.0645 46.0567 22.8008 46.0684 22.8359 46.127C22.8594 46.1563 22.8125 46.168 22.7422 46.1446C22.6719 46.127 22.6309 46.1388 22.6543 46.1739C22.6777 46.2091 22.6133 46.2208 22.502 46.2032L22.3145 46.1739L22.5195 46.0977L22.7246 46.0157L22.4609 46.0509L22.1973 46.086L22.3672 45.9044C22.4961 45.7696 22.625 45.7052 22.877 45.6583C23.0645 45.6231 23.4102 45.4942 23.6445 45.377C24.7637 44.8204 25.3789 44.463 25.5664 44.2696C25.6777 44.1524 25.7246 44.0938 25.6719 44.1348C25.6133 44.1759 25.5254 44.1993 25.4785 44.1759C25.4258 44.1583 25.3965 44.1641 25.4199 44.1934C25.4375 44.2227 25.3672 44.3106 25.2617 44.3809C25.1621 44.4571 25.0977 44.4747 25.127 44.4278C25.1738 44.3575 25.1621 44.3575 25.0801 44.422C25.0273 44.4688 24.9277 44.4923 24.8516 44.4864C24.7754 44.4747 24.6406 44.5098 24.541 44.5567C24.4473 44.6036 24.3066 44.6388 24.2305 44.6329C24.1602 44.627 24.084 44.6505 24.0664 44.6739C24.0488 44.7032 23.9902 44.7266 23.9375 44.7266C23.8496 44.7266 23.8496 44.7149 23.9258 44.6622C23.9902 44.6153 23.9551 44.6095 23.7793 44.6388C23.6504 44.6622 23.5273 44.7091 23.5039 44.7442C23.4746 44.7911 23.457 44.7911 23.457 44.7501C23.457 44.6563 23.8203 44.3399 24.0137 44.2638C24.1309 44.2227 24.1426 44.2052 24.0547 44.2227C23.873 44.2579 23.9434 44.1934 24.1777 44.0938C24.3535 44.0294 24.3535 44.0235 24.207 44.0411C24.1191 44.0528 24.0605 44.0411 24.0781 44.0118C24.1309 43.9298 25.1914 42.8165 26.0762 41.9141C26.5391 41.4513 26.9141 41.0528 26.9199 41.0352C26.9199 40.9942 27.4824 40.5606 27.6582 40.461C27.8691 40.3438 27.8164 40.2559 27.6055 40.3673C27.5 40.42 27.4355 40.4434 27.459 40.4141C27.4883 40.3848 27.6582 40.1915 27.8398 39.9805C28.6719 39.0313 30.2363 37.4259 34.9414 32.6856C36.7637 30.8458 39.2012 28.3731 40.3613 27.1837C42.9219 24.5528 43.4961 24.043 43.4961 24.3829ZM45.1836 24.6934C45.2539 24.7989 45.2481 24.8048 45.1543 24.752C44.8965 24.6055 44.8672 24.5704 44.9902 24.5704C45.0547 24.5704 45.1426 24.6231 45.1836 24.6934ZM44.0234 25.3555C44.0234 25.3673 43.9766 25.4141 43.9238 25.4552C43.8301 25.5313 43.8242 25.5255 43.9004 25.4317C43.9766 25.338 44.0234 25.3087 44.0234 25.3555ZM44.9609 25.5313C44.9609 25.5489 44.75 25.7013 44.4922 25.8829C44.2344 26.0587 44.0234 26.1934 44.0234 26.1817C44.0234 26.1466 44.8672 25.5079 44.9199 25.5079C44.9434 25.5079 44.9609 25.5196 44.9609 25.5313ZM47.5098 26.8555C47.7324 27.1075 47.9082 27.3829 47.8731 27.418C47.8203 27.4766 47.2695 26.797 47.1758 26.5567L47.0703 26.2989L47.2051 26.4747C47.2754 26.5684 47.416 26.7442 47.5098 26.8555ZM48.0078 26.7032C48.0078 26.7735 47.9785 26.7442 47.8965 26.5626C47.832 26.422 47.832 26.422 47.9141 26.5274C47.9668 26.5919 48.0078 26.668 48.0078 26.7032ZM24.7168 44.6505C24.541 44.7735 24.418 44.7442 24.5762 44.6153C24.6523 44.5509 24.7402 44.5157 24.7695 44.5333C24.7988 44.5567 24.7754 44.6036 24.7168 44.6505ZM23.7793 44.7266C23.7617 44.7559 23.6973 44.7852 23.6445 44.7794C23.5625 44.7794 23.5684 44.7677 23.6621 44.7266C23.8203 44.6622 23.8203 44.6622 23.7793 44.7266ZM24.1895 44.9024C24.1719 44.9317 24.125 44.961 24.0957 44.961C24.0605 44.961 24.0547 44.9317 24.0723 44.9024C24.0898 44.8673 24.1367 44.8438 24.166 44.8438C24.2012 44.8438 24.207 44.8673 24.1895 44.9024ZM22.4023 46.338C22.4023 46.379 22.1973 46.4552 21.9629 46.5079C21.7871 46.543 21.7871 46.543 21.9922 46.4259C22.1855 46.3204 22.4023 46.2735 22.4023 46.338ZM24.0723 47.5391C24.0137 47.6036 23.9434 47.6563 23.9082 47.6563C23.8789 47.6563 23.9141 47.6036 23.9902 47.5391C24.1719 47.3927 24.207 47.3927 24.0723 47.5391ZM23.6914 47.8497C23.6914 47.8614 23.6035 47.9434 23.5039 48.043L23.3105 48.213L23.4805 48.0196C23.6445 47.8438 23.6914 47.8028 23.6914 47.8497ZM21.0547 48.2423C21.0078 48.2716 20.9434 48.3009 20.9082 48.3009C20.8789 48.3009 20.8906 48.2716 20.9375 48.2423C20.9844 48.213 21.0547 48.1837 21.084 48.1837C21.1191 48.1837 21.1016 48.213 21.0547 48.2423ZM18.9453 51.3712C18.9453 51.3829 18.8984 51.4298 18.8457 51.4708C18.752 51.547 18.7461 51.5411 18.8223 51.4473C18.8984 51.3536 18.9453 51.3243 18.9453 51.3712Z" fill="white"/>
<path d="M43.4434 25.291C43.2969 25.455 43.2559 25.5312 43.3438 25.4492C43.4961 25.3144 43.7598 24.9804 43.7188 24.9804C43.707 24.9804 43.584 25.1211 43.4434 25.291Z" fill="white"/>
<path d="M43.2441 25.648C43.127 25.7535 43.0273 25.8648 43.0273 25.8941C43.0273 25.9176 43.0859 25.8824 43.1621 25.8121C43.2383 25.7418 43.3145 25.6949 43.332 25.7125C43.3438 25.7301 43.3906 25.6773 43.4258 25.5953C43.4609 25.5133 43.4844 25.4488 43.4785 25.4488C43.4668 25.4488 43.3613 25.5367 43.2441 25.648Z" fill="white"/>
<path d="M41.9434 26.668C41.7852 26.8203 41.5977 27.0078 41.5332 27.084L41.416 27.2188L41.627 27.0957C41.7383 27.0312 41.8906 26.9141 41.9551 26.8438C42.084 26.7031 42.2949 26.3867 42.2598 26.3867C42.248 26.3926 42.1074 26.5156 41.9434 26.668Z" fill="white"/>
<path d="M40.3438 29.1581C39.5645 29.8788 39.1016 30.4061 39.1016 30.5643C39.1016 30.7694 40.0859 29.8261 40.7422 28.994C40.9473 28.7362 41.1523 28.4784 41.1992 28.4198C41.3926 28.1972 41.1992 28.3612 40.3438 29.1581Z" fill="white"/>
<path d="M40.4961 28.8709C40.3086 29.0408 40.1562 29.2049 40.1562 29.2283C40.1562 29.281 40.6777 28.8123 40.7891 28.6599C40.9121 28.49 40.8535 28.531 40.4961 28.8709Z" fill="white"/>
<path d="M41.1172 28.8594L41.0059 28.9941L41.1523 28.877C41.2344 28.8125 41.3105 28.7539 41.3223 28.748C41.334 28.7363 41.3223 28.7305 41.2871 28.7305C41.2578 28.7305 41.1816 28.7891 41.1172 28.8594Z" fill="white"/>
<path d="M39.0371 31.1504C38.791 31.2969 38.5273 31.5254 38.3984 31.6895C38.3457 31.7598 38.416 31.7305 38.5859 31.6133C38.7383 31.5079 38.873 31.4258 38.8965 31.4258C38.9316 31.4258 38.457 31.8536 38.1875 32.0528C38.0938 32.1231 38.1816 32.0879 38.3809 31.9708C38.7031 31.7891 39.0195 31.461 39.2422 31.086C39.3008 30.9922 39.2832 30.9981 39.0371 31.1504Z" fill="white"/>
<path d="M37.1035 32.381C36.957 32.5216 36.8105 32.6271 36.7695 32.6095C36.7285 32.5978 36.6523 32.6681 36.5996 32.7677C36.5293 32.8849 36.4648 32.9376 36.4062 32.9142C36.3594 32.8966 36.3418 32.9024 36.3652 32.9259C36.3887 32.9493 36.3711 33.0079 36.3301 33.0607C36.2949 33.1134 36.3535 33.0841 36.4648 32.9962C36.5762 32.9083 36.6641 32.8146 36.6582 32.7794C36.6465 32.7442 36.6758 32.7325 36.7168 32.7501C36.7578 32.7618 36.9336 32.6329 37.1094 32.4513C37.4844 32.0704 37.4844 32.0235 37.1035 32.381Z" fill="white"/>
<path d="M36.9629 33.1715C35.9785 33.9684 35.4395 34.4664 35.1758 34.8121C34.7832 35.3336 34.8535 35.4449 35.3164 35.0406C35.5098 34.8707 35.832 34.607 36.0254 34.4606C36.4063 34.1676 36.7344 33.8453 36.6934 33.8043C36.6699 33.775 36.0137 34.3023 35.3399 34.8883C35.1524 35.0523 35 35.1578 35 35.1285C35 35.0406 35.9024 34.2203 36.7285 33.5641C37.0098 33.3356 37.2617 33.0777 37.3613 32.9137C37.4316 32.7906 37.4082 32.8082 36.9629 33.1715Z" fill="white"/>
<path d="M36.1133 33.1837C36.0664 33.213 36.043 33.254 36.0606 33.2716C36.084 33.2892 36.1309 33.2657 36.1719 33.213C36.2539 33.1134 36.2363 33.1017 36.1133 33.1837Z" fill="white"/>
<path d="M34.9238 35.9903C34.707 36.2129 34.5312 36.4297 34.5312 36.4766C34.5312 36.5528 34.8242 36.2481 35.1816 35.8028C35.4512 35.4746 35.3574 35.5391 34.9238 35.9903Z" fill="white"/>
<path d="M33.7988 36.2422L33.5059 36.5352L33.8457 36.2598C34.0273 36.1074 34.1797 35.9727 34.1797 35.9609C34.1797 35.8965 34.0625 35.9844 33.7988 36.2422Z" fill="white"/>
<path d="M33.1719 37.5023C32.6445 38.0062 32.2051 38.434 32.1875 38.4515C32.0996 38.5453 32.6563 38.1176 32.8203 37.9711C32.9199 37.8715 33.0078 37.8129 33.0078 37.8422C33.0078 37.9066 33.8281 37.1098 34.0742 36.7992C34.4375 36.348 34.0918 36.6117 33.1719 37.5023Z" fill="white"/>
<path d="M33.6172 37.707C33.4883 37.8477 33.2539 38.1172 33.1016 38.3105C32.9434 38.5039 32.709 38.7617 32.5742 38.8906L32.334 39.1191L32.6973 38.8672C33.0254 38.6445 33.582 38.041 33.8457 37.6191C33.998 37.3848 33.8867 37.4258 33.6172 37.707Z" fill="white"/>
<path d="M32.5918 38.4397C32.5156 38.5335 32.5215 38.5393 32.6152 38.4631C32.709 38.387 32.7383 38.3401 32.6914 38.3401C32.6797 38.3401 32.6328 38.387 32.5918 38.4397Z" fill="white"/>
<path d="M32.3926 38.5742C32.375 38.6035 32.3867 38.6328 32.416 38.6328C32.4512 38.6328 32.4805 38.6035 32.4805 38.5742C32.4805 38.5391 32.4688 38.5156 32.457 38.5156C32.4395 38.5156 32.4102 38.5391 32.3926 38.5742Z" fill="white"/>
<path d="M31.4727 39.8809C31.332 39.9863 31.2207 40.1152 31.2207 40.168C31.2207 40.2441 30.916 40.666 30.7051 40.8887C30.5469 41.0527 30.8223 40.6426 30.998 40.4434C31.1094 40.3203 31.1797 40.2148 31.1504 40.2148C31.0625 40.2148 30.8105 40.5137 30.6582 40.8008C30.5762 40.9473 30.459 41.1406 30.4004 41.2402L30.2832 41.416L30.5176 41.2461C30.8926 40.9707 31.1328 40.7363 31.3672 40.3906C31.5957 40.0508 31.8008 39.6875 31.7539 39.6875C31.7422 39.6875 31.6133 39.7754 31.4727 39.8809Z" fill="white"/>
<path d="M28.9531 42.6348C28.8125 42.7402 28.502 42.9629 28.25 43.1328C27.6406 43.543 26.2871 44.7793 25.8418 45.3418L25.6543 45.5703L26.1816 45.2129C26.4746 45.0195 26.9082 44.7266 27.1484 44.5742C27.623 44.2637 28.5313 43.3906 28.9824 42.8047C29.1406 42.6055 29.252 42.4414 29.2344 42.4414C29.2227 42.4414 29.0938 42.5293 28.9531 42.6348Z" fill="white"/>
<path d="M27.4941 43.0098L27.3535 43.1738L27.5176 43.0332C27.6641 42.8984 27.7051 42.8516 27.6582 42.8516C27.6465 42.8516 27.5762 42.9219 27.4941 43.0098Z" fill="white"/>
<path d="M25.8184 43.3849C25.6484 43.4845 25.5078 43.5782 25.5078 43.59C25.5078 43.631 26.082 43.3263 26.123 43.2618C26.1758 43.1798 26.1582 43.1857 25.8184 43.3849Z" fill="white"/>
<path d="M25.2617 43.5902C25.2441 43.6077 25.0625 43.6605 24.8633 43.7074C24.6641 43.7542 24.4356 43.8245 24.3477 43.8714C24.2012 43.9476 24.2012 43.9534 24.3242 43.9886C24.4004 44.0179 24.582 43.9769 24.7988 43.889C24.9981 43.807 25.1387 43.7659 25.127 43.7894C25.1094 43.8187 24.9746 43.8831 24.834 43.9417C24.6875 43.9945 24.582 44.0531 24.5938 44.0706C24.6465 44.1234 25.2734 43.7835 25.2383 43.7249C25.2207 43.6898 25.25 43.6722 25.3027 43.6839C25.3613 43.6956 25.4199 43.6663 25.4316 43.6253C25.4609 43.555 25.3262 43.5257 25.2617 43.5902Z" fill="white"/>
<path d="M26.416 43.8243C26.2402 43.9825 26.2285 44.006 26.3633 43.9181C26.5273 43.8067 26.7266 43.6075 26.6738 43.6134C26.6621 43.6192 26.5449 43.713 26.416 43.8243Z" fill="white"/>
<path d="M25.1914 44.8492C25.0039 44.9488 24.8633 45.0426 24.8809 45.0543C24.916 45.0894 25.3027 44.9019 25.4785 44.7613C25.6484 44.6324 25.5781 44.65 25.1914 44.8492Z" fill="white"/>
<path d="M24.3359 45.3533C24.125 45.4705 23.8145 45.6228 23.6445 45.699L23.3281 45.8279L23.5625 45.8513C23.6914 45.863 23.791 45.8572 23.7793 45.8396C23.7676 45.822 23.8848 45.7517 24.0312 45.6814C24.2715 45.5701 24.834 45.1423 24.7461 45.1423C24.7285 45.1365 24.5469 45.2361 24.3359 45.3533Z" fill="white"/>
<path d="M25.0684 45.7812C25.0508 45.8105 24.9981 45.8223 24.9512 45.8047C24.793 45.7402 23.4746 46.3086 23.2051 46.5488C23.0352 46.7012 22.9883 46.7715 23.0586 46.7773C23.1113 46.7773 23.1699 46.7539 23.1875 46.7305C23.2285 46.6602 24.2422 46.2441 24.4121 46.2266C24.582 46.2031 24.8691 46.0156 24.8281 45.9512C24.8106 45.9219 24.834 45.9102 24.875 45.9277C24.916 45.9453 25.0156 45.9043 25.0977 45.8398C25.1797 45.7754 25.2148 45.7227 25.1738 45.7227C25.1387 45.7227 25.0918 45.7461 25.0684 45.7812Z" fill="white"/>
<path d="M25.3555 46.2207C25.2969 46.2676 25.2734 46.3027 25.3027 46.3027C25.3379 46.3027 25.4141 46.2676 25.4727 46.2207C25.5371 46.1738 25.5606 46.1328 25.5313 46.1328C25.4961 46.1328 25.4199 46.1738 25.3555 46.2207Z" fill="white"/>
<path d="M24.1309 46.3792C23.9082 46.4964 23.5332 46.7601 23.6621 46.7132C23.7734 46.6722 24.3945 46.2972 24.3945 46.2738C24.3945 46.2386 24.3887 46.2445 24.1309 46.3792Z" fill="white"/>
<path d="M23.2227 46.8652C23.1406 46.9121 23.1055 46.9473 23.1348 46.9473C23.1699 46.9473 23.2578 46.9121 23.3399 46.8652C23.4219 46.8184 23.4629 46.7832 23.4277 46.7832C23.3984 46.7832 23.3047 46.8184 23.2227 46.8652Z" fill="white"/>
<path d="M46.8594 15.9684C46.8066 16.0739 46.7188 16.2262 46.6719 16.3082C46.5957 16.4489 46.5957 16.443 46.7305 16.2965C46.8535 16.15 47.0352 15.7809 46.9766 15.7809C46.9648 15.7809 46.9121 15.8688 46.8594 15.9684Z" fill="white"/>
<path d="M47.3633 16.865C47.0586 17.2575 47.0234 17.3689 47.2344 17.2517C47.3574 17.1872 47.75 16.5603 47.6973 16.5075C47.6855 16.49 47.5332 16.654 47.3633 16.865Z" fill="white"/>
<path d="M46.0273 17.9199C46.0508 17.9434 46.0449 18.0137 46.0098 18.0723C45.9336 18.2187 45.7227 18.2129 45.6816 18.0664C45.6641 18.002 45.6348 17.9492 45.6113 17.9492C45.5586 17.9551 45.0078 19.127 45.043 19.168C45.0605 19.1855 45.0781 19.168 45.0781 19.127C45.0781 19.0859 45.1074 19.0742 45.1367 19.0918C45.1719 19.1094 45.1953 19.2031 45.1953 19.3027C45.1953 19.3965 45.2187 19.4727 45.248 19.4727C45.3359 19.4727 45.4414 19.127 45.4121 18.9336C45.3887 18.7695 45.5059 18.207 45.582 18.1309C45.5937 18.1191 45.6699 18.1777 45.7519 18.2656C45.875 18.3945 45.916 18.4121 46.0156 18.3594C46.1504 18.2891 46.1797 17.9844 46.0625 17.9141C46.0215 17.8906 46.0039 17.8906 46.0273 17.9199Z" fill="white"/>
<path d="M44.4805 18.2832C44.2344 18.5645 44.1172 19.0039 44.2871 19.0039C44.3457 19.0039 44.375 18.9453 44.375 18.8281C44.375 18.7285 44.4277 18.541 44.4922 18.418C44.6211 18.1602 44.6211 18.125 44.4805 18.2832Z" fill="white"/>
<path d="M44.9668 19.8064C44.9082 19.9587 44.9082 19.9646 44.9902 19.8591C45.0371 19.7946 45.0781 19.7243 45.0781 19.695C45.0781 19.6071 45.0371 19.6482 44.9668 19.8064Z" fill="white"/>
<path d="M44.5156 20.8846C44.4043 21.0135 44.4043 21.0135 44.5332 20.9432C44.6738 20.8729 44.7617 20.7615 44.6797 20.7615C44.6504 20.7615 44.5801 20.8201 44.5156 20.8846Z" fill="white"/>
<path d="M51.6231 21.7291C51.5234 21.94 51.4883 22.1041 51.5645 22.0279C51.6113 21.981 51.7578 21.565 51.7344 21.5416C51.7285 21.5299 51.6758 21.6177 51.6231 21.7291Z" fill="white"/>
<path d="M41.293 22.285C41.1875 22.4843 41.1406 22.6073 41.1875 22.5721C41.3223 22.4608 41.5156 22.1151 41.4922 22.0214C41.4805 21.9745 41.3926 22.0917 41.293 22.285Z" fill="white"/>
<path d="M51.541 22.4785C51.2246 22.7363 51.1719 22.8125 51.3184 22.8125C51.4297 22.8125 51.4297 22.8418 51.3125 23.0176C51.1191 23.3105 50.3516 23.7676 50.3516 23.5859C50.3516 23.5566 50.4219 23.4277 50.5039 23.3047L50.6562 23.0762L50.4688 23.252C50.2871 23.416 50.1172 23.7207 50.1172 23.873C50.1172 24.0898 51.0195 23.6445 51.2949 23.2871C51.3594 23.2109 51.4062 23.1758 51.4062 23.2109C51.4062 23.3633 51.2656 23.6211 51.0664 23.8379L50.8496 24.0723L51.0723 23.8672C51.3652 23.6035 51.4414 23.4453 51.4883 23.0176C51.5234 22.7539 51.5762 22.6074 51.7051 22.4434C51.8047 22.3262 51.875 22.2266 51.8633 22.2324C51.8516 22.2324 51.7109 22.3437 51.541 22.4785Z" fill="white"/>
<path d="M39.9102 22.8187C39.7871 22.8832 39.6875 22.9476 39.6875 22.9593C39.6875 22.9769 39.7871 22.9417 39.9102 22.8832C40.0273 22.8187 40.168 22.7542 40.2148 22.7367C40.291 22.7074 40.291 22.7074 40.2148 22.7015C40.168 22.7015 40.0273 22.7542 39.9102 22.8187Z" fill="white"/>
<path d="M51.9805 22.9355C51.9277 23.0586 51.9043 23.1641 51.9277 23.1641C51.9746 23.1641 52.1328 22.7598 52.0977 22.7246C52.0918 22.7129 52.0332 22.8066 51.9805 22.9355Z" fill="white"/>
<path d="M41.0527 23.0879C41.1055 23.0996 41.1875 23.0996 41.2285 23.0879C41.2637 23.0703 41.2227 23.0586 41.1231 23.0586C41.0293 23.0586 40.9941 23.0703 41.0527 23.0879Z" fill="white"/>
<path d="M41.1582 23.4455C41.0527 23.6388 41.1641 23.6974 41.4512 23.6037L41.709 23.5158L41.4512 23.5451C41.2168 23.5744 41.1992 23.5685 41.2285 23.4572C41.2637 23.3107 41.2344 23.3048 41.1582 23.4455Z" fill="white"/>
<path d="M52.0039 23.7032C51.9102 23.8204 51.752 24.2305 51.8164 24.1895C51.8926 24.1426 52.127 23.6856 52.0918 23.6563C52.0801 23.6387 52.0391 23.6622 52.0039 23.7032Z" fill="white"/>
<path d="M41.9727 23.7793C41.9258 23.832 41.9258 23.8672 41.9609 23.8672C42.0664 23.8672 42.207 23.7969 42.207 23.7441C42.207 23.6621 42.0547 23.6855 41.9727 23.7793Z" fill="white"/>
<path d="M40.9062 24.4004C40.6191 24.6406 40.5605 24.7461 40.7012 24.7461C40.8477 24.7461 41.2695 24.4004 41.2695 24.2773C41.2695 24.1133 41.2168 24.1309 40.9062 24.4004Z" fill="white"/>
<path d="M50.7031 24.3071C50.6621 24.354 50.5508 24.4067 50.4453 24.4243C50.2285 24.4653 50.0937 24.559 50.041 24.6997C49.9941 24.8227 49.9883 24.8227 50.2402 24.7407C50.4512 24.6645 50.6797 24.4887 50.7676 24.3188C50.8379 24.1958 50.8027 24.1899 50.7031 24.3071Z" fill="white"/>
<path d="M41.0645 24.8051C40.8887 24.9867 40.9004 25.0277 41.0937 24.9223C41.2168 24.8578 41.3633 24.6293 41.2812 24.6293C41.2578 24.6293 41.1582 24.7055 41.0645 24.8051Z" fill="white"/>
<path d="M40.0156 25.1914C39.8633 25.3027 39.752 25.3906 39.7754 25.3906C39.834 25.3906 40.3262 25.0918 40.3672 25.0332C40.4258 24.9336 40.3027 24.9922 40.0156 25.1914Z" fill="white"/>
<path d="M38.9141 25.6013C38.6855 25.7243 38.709 25.7654 38.9434 25.6482C39.1602 25.5368 39.2012 25.5075 39.125 25.5075C39.0957 25.5134 39.002 25.5544 38.9141 25.6013Z" fill="white"/>
<path d="M39.6523 25.6893C39.5938 25.7596 39.4356 25.8651 39.3066 25.9237C39.0957 26.0174 39.0898 26.0292 39.2246 26.0292C39.3887 26.035 39.6523 25.8592 39.7461 25.6776C39.8281 25.5311 39.793 25.537 39.6523 25.6893Z" fill="white"/>
<path d="M38.5625 26.3104C38.5039 26.3221 38.457 26.3631 38.457 26.3924C38.457 26.4276 38.5039 26.4217 38.5742 26.3865C38.6387 26.3514 38.6914 26.3104 38.6914 26.2986C38.6914 26.2811 38.6855 26.2752 38.6797 26.2752C38.668 26.2811 38.6152 26.2928 38.5625 26.3104Z" fill="white"/>
<path d="M46.1035 26.3277C46.0566 26.4039 46.0977 26.4684 46.1856 26.4391C46.2207 26.4215 46.2266 26.3805 46.1973 26.3336C46.1621 26.275 46.1387 26.275 46.1035 26.3277Z" fill="white"/>
<path d="M37.4902 26.6211C37.4727 26.6504 37.4785 26.6797 37.5137 26.6797C37.543 26.6797 37.5898 26.6504 37.6074 26.6211C37.625 26.5859 37.6191 26.5625 37.584 26.5625C37.5547 26.5625 37.5078 26.5859 37.4902 26.6211Z" fill="white"/>
<path d="M46.373 26.7798C46.3672 26.8149 46.3496 26.897 46.332 26.9556C46.3027 27.0552 46.3027 27.0552 46.3672 26.9556C46.4023 26.897 46.4199 26.8208 46.4023 26.7798C46.3848 26.7271 46.373 26.7271 46.373 26.7798Z" fill="white"/>
<path d="M46.1445 27.4005C46.1035 27.4942 46.0742 27.6231 46.0801 27.6934C46.0801 27.7989 46.0977 27.7872 46.168 27.6231C46.2149 27.5177 46.2442 27.3829 46.2324 27.3302C46.2149 27.2599 46.1914 27.2833 46.1445 27.4005Z" fill="white"/>
<path d="M38.1934 28.0797C38.1758 28.109 38.0645 28.1676 37.9414 28.2086C37.7129 28.2848 37.0859 28.6832 37.0156 28.7945C36.9922 28.8355 37.0918 28.7828 37.2324 28.6891C37.3731 28.5894 37.666 28.4312 37.8887 28.3316C38.1055 28.232 38.2813 28.1207 38.2813 28.0914C38.2813 28.0152 38.2402 28.0094 38.1934 28.0797Z" fill="white"/>
<path d="M45.8809 28.3614C45.8574 28.379 45.8398 28.4258 45.8398 28.461C45.8398 28.4961 45.8633 28.4903 45.8926 28.4493C45.9629 28.3379 46.0918 28.6836 46.0625 28.9004C46.0508 29 46.0566 29.0645 46.0859 29.0469C46.1621 29 46.1387 28.6778 46.0449 28.4961C45.9453 28.3086 45.9395 28.3028 45.8809 28.3614Z" fill="white"/>
<path d="M45.4883 28.7244C45.4883 28.7537 45.3945 28.8943 45.2774 29.0349C44.9141 29.4627 44.8438 29.7029 44.9199 30.1892C44.9844 30.6228 45.0137 30.6638 45.1367 30.5174C45.1895 30.4529 45.1953 30.2947 45.166 29.9314C45.1309 29.4627 45.1367 29.4158 45.2832 29.1697C45.4473 28.8884 45.4824 28.865 45.5938 28.9763C45.6524 29.0291 45.6875 29.0232 45.7695 28.9412C45.8633 28.8416 45.8633 28.8357 45.752 28.8709C45.6875 28.8884 45.5938 28.8767 45.5469 28.8474C45.4883 28.8123 45.4824 28.7888 45.5352 28.7888C45.5703 28.7888 45.6055 28.7595 45.6055 28.7302C45.6055 28.6951 45.582 28.6717 45.5469 28.6717C45.5176 28.6717 45.4883 28.6951 45.4883 28.7244Z" fill="white"/>
<path d="M35.5801 29.4163C35.5039 29.51 35.5098 29.5159 35.6035 29.4397C35.6563 29.3987 35.7031 29.3518 35.7031 29.3401C35.7031 29.2932 35.6563 29.3225 35.5801 29.4163Z" fill="white"/>
<path d="M36.4297 29.6973C36.3711 29.7441 36.3477 29.7793 36.377 29.7852C36.4649 29.7852 36.6113 29.6797 36.5762 29.6445C36.5586 29.627 36.4941 29.6504 36.4297 29.6973Z" fill="white"/>
<path d="M44.0996 30.3242C44.0293 30.4121 43.959 30.6055 43.9942 30.6055C44.0059 30.6055 44.0527 30.5234 44.1055 30.4297C44.1934 30.2422 44.1934 30.207 44.0996 30.3242Z" fill="white"/>
<path d="M44.5273 30.4123C44.4395 30.5764 44.4336 30.5764 44.3984 30.4416C44.3809 30.3713 44.334 30.3127 44.3047 30.3127C44.2754 30.3127 44.2695 30.3713 44.2871 30.4416C44.375 30.7287 44.498 30.7229 44.5977 30.4299C44.6797 30.2131 44.6387 30.2014 44.5273 30.4123Z" fill="white"/>
<path d="M43.9648 31.3148C43.9648 31.3793 43.9941 31.4144 44.0234 31.3969C44.0586 31.3793 44.082 31.3207 44.082 31.2738C44.082 31.2269 44.0586 31.1918 44.0234 31.1918C43.9941 31.1918 43.9648 31.2445 43.9648 31.3148Z" fill="white"/>
<path d="M36.8926 38.0645C36.6582 38.3575 36.1953 38.9083 35.8555 39.2774C35.5156 39.6465 35.2344 39.9688 35.2344 39.9922C35.2344 40.0977 35.4629 40.0274 35.6973 39.8575C35.9023 39.7051 36.6875 38.6036 37.3086 37.5899C37.4199 37.4024 37.2793 37.5665 36.8926 38.0645Z" fill="white"/>
<path d="M23.3867 40.109C23.293 40.1734 23.2227 40.2555 23.2227 40.2906C23.2227 40.3316 23.1289 40.5074 23.0176 40.6832C22.9062 40.859 22.8125 41.0172 22.8125 41.0348C22.8125 41.1109 23.334 40.566 23.4922 40.3316C23.6797 40.0504 23.6211 39.9332 23.3867 40.109Z" fill="white"/>
<path d="M31.3496 43.3906C31.0098 43.8535 30.5293 44.457 30.2832 44.7383C29.9141 45.1602 29.8086 45.248 29.7031 45.2188C29.5508 45.1836 29.4277 45.3066 29.1758 45.752C29.0762 45.9277 28.5605 46.5898 28.0332 47.2285L27.0723 48.3887L28.0566 47.375C28.5957 46.8184 29.2344 46.2031 29.4629 46.0156C29.8145 45.7285 30.002 45.4941 30.5938 44.627C30.9805 44.0527 31.4609 43.3555 31.6543 43.0684C31.8535 42.7871 32 42.5586 31.9883 42.5586C31.9766 42.5586 31.6895 42.9336 31.3496 43.3906Z" fill="white"/>
<path d="M19.7012 45.0605C18.6289 46.502 18.3184 46.918 18.1543 47.1699C17.9727 47.4512 17.8906 47.4863 17.8906 47.2871C17.8906 47.1172 18.0898 46.7949 18.3242 46.5781C18.5527 46.373 18.3652 46.4961 17.9902 46.7949C17.6387 47.082 17.3867 47.5332 17.627 47.4453C17.7266 47.4043 17.75 47.5684 17.6562 47.627C17.5625 47.6855 17.6504 47.7734 17.7969 47.7734C17.9785 47.7734 18.3125 47.5449 18.7285 47.1406C18.9805 46.8887 19.0625 46.7715 19.0625 46.6426C19.0625 46.4375 19.5195 45.5352 19.9941 44.7969C20.1875 44.5039 20.334 44.2578 20.3223 44.2578C20.3105 44.2578 20.0293 44.6211 19.7012 45.0605Z" fill="white"/>
<path d="M16.3731 49.0566C16.2441 49.1855 16.2149 49.2969 16.3027 49.2969C16.3672 49.2969 16.5606 49.0039 16.5254 48.9629C16.5078 48.9512 16.4375 48.9922 16.3731 49.0566Z" fill="white"/>
<path d="M17.2754 49.2907C17.1113 49.3845 16.9414 49.5075 16.8945 49.5603C16.8535 49.613 16.9531 49.5661 17.1172 49.4607C17.2754 49.3552 17.4629 49.238 17.5215 49.197C17.7266 49.0622 17.5625 49.1267 17.2754 49.2907Z" fill="white"/>
<path d="M16.6543 49.7483C16.5781 49.8421 16.584 49.8479 16.6777 49.7717C16.7305 49.7307 16.7773 49.6839 16.7773 49.6721C16.7773 49.6253 16.7305 49.6546 16.6543 49.7483Z" fill="white"/>
<path d="M13.8652 52.3203C13.0801 53.082 12.4414 53.6738 12.4414 53.6387C12.4414 53.6094 12.4649 53.5684 12.4942 53.5508C12.5703 53.498 12.7988 53.1055 12.7461 53.1055C12.7227 53.1055 12.582 53.2109 12.4414 53.3398C12.3008 53.4688 12.1602 53.5801 12.125 53.5918C12.043 53.6211 12.2774 53.9199 12.3828 53.9258C12.4297 53.9258 12.7461 53.6328 13.0859 53.2695C13.4258 52.9121 14.0703 52.2383 14.5215 51.7754C14.9668 51.3125 15.3242 50.9375 15.3125 50.9375C15.2949 50.9375 14.6445 51.5586 13.8652 52.3203Z" fill="white"/>
<path d="M24.6699 51.3591C24.3067 51.8454 24.1309 52.1618 24.0781 52.4606C24.0488 52.613 24.0899 52.5602 24.2363 52.2497C24.3477 52.0212 24.5762 51.6344 24.7402 51.3884C24.9043 51.1364 25.0332 50.9372 25.0156 50.9372C25.0039 50.9372 24.8457 51.1305 24.6699 51.3591Z" fill="white"/>
<path d="M13.584 51.8633C13.2617 52.1738 12.7285 52.6777 12.3945 52.9766C11.8438 53.4805 11.7148 53.6328 11.8438 53.6328C11.8731 53.6328 12.2481 53.2812 12.6816 52.8535C13.5606 51.9922 14.2402 51.2891 14.1992 51.2891C14.1816 51.2891 13.9063 51.5469 13.584 51.8633Z" fill="white"/>
<path d="M24.8516 51.8164C24.7695 51.9629 24.5762 52.1973 24.4297 52.3438C24.166 52.5957 24.0898 52.7539 24.2363 52.7539C24.2715 52.748 24.541 52.5254 24.8281 52.25C25.2266 51.8691 25.3203 51.7578 25.2031 51.7871C25.0742 51.8223 25.0449 51.8047 25.0273 51.6875C25.0098 51.5703 24.9922 51.582 24.8516 51.8164Z" fill="white"/>
<path d="M22.8066 54.3303C22.7305 54.3948 22.6836 54.4592 22.7012 54.4768C22.7187 54.4944 22.7949 54.4475 22.8711 54.3655C23.0352 54.1897 23 54.1721 22.8066 54.3303Z" fill="white"/>
</g>
<defs>
<clipPath id="clip0_630_3406">
<rect width="70" height="70" fill="white"/>
</clipPath>
</defs>
</svg>
