<svg width="180" height="56" viewBox="0 0 180 56" fill="none" xmlns="http://www.w3.org/2000/svg">
<path d="M57.564 1.21577C57.132 1.75577 56.484 1.79177 51.66 1.50377C43.92 1.07177 33.372 1.21577 27.54 1.86377C22.392 2.43977 17.964 2.90777 11.808 3.51977C8.02798 3.91577 5.29198 4.74377 3.63598 6.07577C3.05998 6.54377 2.15998 7.22777 1.65598 7.58777C-0.108023 8.81177 0.467977 9.85577 3.74398 11.4398C5.75998 12.4118 5.93998 13.0238 5.00398 15.2918C4.57198 16.3358 4.60798 16.5518 5.25598 17.4518C5.68798 18.0278 6.37198 18.4958 6.80398 18.5678C7.19998 18.6398 7.55998 18.9278 7.55998 19.2158C7.55998 19.5038 7.95598 19.8998 8.42398 20.0798C9.14398 20.3318 10.08 21.7718 9.64798 21.9878C9.61198 22.0238 9.07198 22.3118 8.45998 22.5998C7.88398 22.9238 7.23598 23.4998 7.01998 23.9318C6.80398 24.3278 6.40798 24.9398 6.15598 25.2278C5.29198 26.2718 5.83198 27.7118 7.34398 28.5038C10.44 30.1598 11.16 33.1838 9.10798 35.8118C8.45998 36.6038 7.91998 37.5398 7.91998 37.8638C7.91998 38.5118 9.10798 39.3758 10.512 39.6998C11.556 39.9518 11.916 40.5998 11.016 40.5998C10.224 40.5998 9.93598 41.2838 10.44 41.8598C11.052 42.6158 10.296 43.4798 9.03598 43.4798C7.77598 43.4798 6.65998 44.3078 6.91198 44.9918C7.05598 45.3518 7.84798 45.6038 9.17998 45.7478C11.268 45.9638 12.24 46.4318 12.24 47.2958C12.24 47.6198 12.636 47.7998 13.32 47.7998C14.184 47.7998 14.4 47.9438 14.4 48.5918C14.4 50.4638 17.316 53.4518 19.476 53.7758C20.52 53.9558 21.06 54.2438 21.312 54.8558C21.852 56.0078 22.176 55.9358 22.644 54.6398C23.04 53.4518 23.58 53.3078 25.056 54.0638C25.596 54.3518 26.208 54.4958 26.424 54.3518C26.64 54.2078 28.62 54.0998 30.78 54.0638C33.552 54.0278 35.172 53.8478 36.144 53.4158C36.9 53.0918 38.16 52.8398 38.916 52.8398C40.356 52.8398 40.716 52.2998 39.924 51.5078C39.6 51.1838 39.708 51.0398 40.428 50.8598C41.796 50.4998 42.66 50.7878 42.768 51.6518C42.912 52.6598 44.496 52.8398 48.96 52.4078C51.264 52.1918 53.352 52.1918 55.512 52.4798C57.708 52.7678 59.616 52.8038 61.668 52.5518C63.288 52.3718 67.752 52.2278 71.568 52.2638C76.752 52.2998 78.624 52.1918 78.912 51.8318C79.2 51.5078 79.092 51.3998 78.516 51.3998C77.652 51.3998 77.472 50.3918 78.264 50.1038C78.552 49.9958 78.696 49.6718 78.624 49.4198C78.336 48.6998 79.164 48.3758 81.72 48.3038C83.016 48.2318 84.636 47.9798 85.32 47.6918C86.076 47.4038 87.48 47.2598 88.92 47.3318C90.216 47.3678 92.088 47.4398 93.132 47.4038C94.176 47.4038 95.364 47.6198 95.832 47.9078C96.516 48.3398 97.092 48.3758 98.856 48.0518C100.044 47.8718 101.484 47.7998 102.096 47.9798L103.14 48.2318L101.7 48.6638C100.548 48.9878 100.224 49.2758 100.152 49.9958C100.08 50.7158 100.224 51.0038 100.8 51.1478C101.232 51.2558 101.52 51.5078 101.412 51.6518C101.052 52.2638 101.736 52.8038 102.528 52.5878C103.284 52.4078 103.32 52.3358 102.744 51.7238C102.204 51.1118 102.204 51.0758 103.14 50.8238C103.932 50.6438 104.256 50.7518 104.94 51.6158C105.768 52.6598 105.804 52.6598 109.872 52.7318C112.104 52.7318 114.192 52.8398 114.48 52.9118C114.768 52.9838 115.128 52.5878 115.38 51.9038L115.74 50.7878L116.388 51.6518C116.748 52.1198 117.216 52.4078 117.396 52.2638C117.612 52.1558 118.332 52.3358 119.016 52.6598C120.636 53.4158 122.112 53.2358 122.58 52.1918C123.012 51.1838 124.416 51.1118 124.74 52.1198C125.028 52.9838 124.776 52.9118 128.16 53.0198C129.636 53.0558 131.076 52.9478 131.292 52.7318C131.868 52.3358 134.172 52.7318 135.144 53.4158C136.08 54.0638 137.448 54.0638 139.032 53.4158C140.544 52.7678 141.588 52.9838 143.424 54.3158C144.18 54.8918 144.972 55.2518 145.152 55.1438C145.296 55.0358 145.44 54.1718 145.44 53.1638V51.3998H146.808C147.528 51.3998 149.112 51.2558 150.3 51.0758C154.224 50.4638 157.14 50.3198 158.364 50.6438C159.264 50.9318 159.876 50.8958 160.884 50.4278C162.18 49.8518 166.5 49.3118 171.252 49.0958C173.916 48.9878 175.32 48.3398 175.32 47.1878C175.32 46.8638 175.86 46.7198 177.048 46.6838C177.984 46.6838 179.064 46.5398 179.424 46.3958C180.036 46.1798 179.964 46.0718 178.956 45.6758C178.344 45.3878 177.372 45.2798 176.796 45.3878C175.896 45.5678 175.752 45.4958 175.572 44.7038C175.464 43.9838 175.608 43.7318 176.22 43.4798C176.688 43.2998 177.156 43.0118 177.264 42.7958C177.552 42.3278 176.22 40.9598 175.536 40.9598C175.248 40.9598 174.888 40.7798 174.744 40.5638C174.6 40.3118 174.744 40.2398 175.248 40.3838C175.896 40.5998 176.112 40.4198 176.58 39.3038C177.228 37.6838 177.228 37.7198 176.58 37.7198C176.292 37.7198 175.752 38.0798 175.356 38.4758C174.96 38.9078 174.42 39.1598 174.168 39.0158C172.332 38.0798 171 37.0718 171 36.6398C171 36.4598 172.08 36.2438 173.448 36.0998C177.084 35.7758 178.2 35.5598 178.2 35.1998C178.2 34.9838 177.912 34.8398 177.516 34.8398C177.156 34.8398 176.364 34.6598 175.716 34.4438C174.816 34.1198 174.6 33.8678 174.6 33.0038C174.6 32.1758 174.456 31.9598 173.808 31.9598C172.98 31.9238 172.98 31.9238 173.7 31.3838C174.204 30.9878 174.276 30.7358 173.988 30.6278C173.052 30.2678 173.592 29.5478 175.032 29.2238C175.86 29.0438 176.616 28.6838 176.688 28.3958C176.832 27.9998 176.4 27.9278 174.42 28.0718C172.368 28.2518 171.9 28.1798 171.324 27.6038C170.964 27.2438 170.424 26.9198 170.172 26.9198C169.92 26.9198 169.524 26.5958 169.272 26.1998C168.876 25.5518 168.948 25.4438 169.74 25.1198C170.28 24.9038 170.856 24.7598 171.072 24.7598C171.432 24.7598 171.36 24.1478 170.856 22.9238C170.676 22.4918 171.036 22.2398 172.332 21.8078L174.06 21.2318L172.656 21.1958C171.54 21.1598 171.324 21.0518 171.504 20.5838C171.684 20.1158 171.54 20.0438 170.784 20.1878C170.244 20.2958 169.344 20.1878 168.768 20.0078C167.976 19.7198 167.544 19.7918 166.824 20.2598C166.212 20.6558 165.78 20.7278 165.636 20.5118C165.528 20.2958 164.772 20.0798 163.98 20.0078C162.864 19.8998 162.684 19.8278 163.26 19.6118C163.656 19.4318 164.448 19.0718 164.988 18.7838C165.564 18.5318 166.248 18.2798 166.536 18.2798C167.436 18.2798 167.076 16.5518 165.96 15.2558C164.52 13.6358 162.9 13.3118 160.74 14.2838C159.588 14.7878 158.868 14.9318 158.292 14.7158C157.824 14.5358 155.808 14.3918 153.792 14.3558C149.868 14.3558 149.4 14.2478 149.4 13.3838C149.4 13.0598 149.76 12.8798 150.444 12.8798C150.984 12.8798 151.992 12.6998 152.64 12.4478C153.612 12.1238 153.9 12.1598 154.224 12.5918C155.232 13.9238 156.744 14.1038 158.04 13.0598C158.688 12.5198 162.36 12.1238 162.36 12.5918C162.36 13.4918 163.584 12.5198 163.98 11.2958C164.412 10.0358 164.412 9.81977 163.872 9.42377C163.548 9.20777 163.08 9.06377 162.828 9.17177C162.576 9.27977 162.36 9.17177 162.36 8.95577C162.36 8.73977 161.82 8.55977 161.136 8.55977C160.488 8.55977 159.408 8.37977 158.76 8.16377L157.572 7.73177L158.544 7.22777C159.588 6.68777 159.768 5.85977 158.904 5.53577C158.472 5.35577 158.364 4.95977 158.472 4.05977C158.58 3.08777 158.472 2.79977 158.04 2.76377C157.752 2.76377 156.312 2.72777 154.908 2.65577C152.748 2.58377 152.028 2.69177 150.912 3.33977C149.616 4.05977 149.472 4.05977 148.392 3.55577C147.78 3.23177 147.24 2.79977 147.24 2.58377C147.24 2.04377 146.304 1.68377 145.62 1.93577C145.188 2.11577 145.152 2.29577 145.44 2.65577C145.764 3.01577 145.584 3.15977 144.468 3.33977C143.712 3.44777 142.668 3.66377 142.128 3.84377C141.336 4.09577 141.12 4.05977 141.12 3.62777C141.12 3.19577 140.832 3.12377 139.824 3.26777C138.888 3.41177 138.492 3.33977 138.348 2.94377C138.168 2.47577 137.448 2.40377 133.956 2.47577C131.4 2.51177 129.384 2.40377 128.772 2.15177C126.828 1.32377 125.424 1.61177 124.38 2.97977L123.408 4.20377L122.004 3.51977C120.456 2.72777 118.8 2.58377 118.152 3.23177C117.864 3.51977 117.612 3.51977 117.18 3.15977C116.784 2.83577 115.956 2.76377 114.372 2.90777C112.752 3.05177 111.96 2.97977 111.456 2.58377C110.556 1.93577 102.6 1.86377 101.988 2.47577C101.664 2.79977 101.412 2.76377 101.016 2.36777C100.368 1.68377 94.212 1.35977 83.52 1.35977C79.452 1.35977 72.828 1.21577 68.76 1.03577C58.68 0.531769 58.14 0.531769 57.564 1.21577ZM155.88 7.37177C155.88 7.73177 155.16 8.81177 155.16 8.48777C155.16 8.37977 155.052 8.01977 154.944 7.69577C154.8 7.29977 154.908 7.11977 155.304 7.11977C155.628 7.11977 155.88 7.22777 155.88 7.37177ZM93.96 12.3398C93.96 12.4118 93.708 12.5198 93.42 12.6638C93.096 12.7718 92.88 12.6638 92.88 12.3398C92.88 12.0158 93.096 11.9078 93.42 12.0158C93.708 12.1598 93.96 12.2678 93.96 12.3398ZM96.84 12.5558C96.84 13.1318 96.696 13.2398 96.228 13.0598C95.868 12.9158 95.292 12.6998 94.932 12.5918C94.068 12.3758 94.824 11.7998 96.048 11.7998C96.624 11.7998 96.84 12.0158 96.84 12.5558ZM124.38 12.8438L127.26 13.0598L123.66 13.3478C121.644 13.5278 119.808 13.7798 119.52 13.9598C119.196 14.1758 118.872 14.0678 118.62 13.7078C118.26 13.2398 118.008 13.2038 117.036 13.5278C115.992 13.8878 115.884 13.8518 115.992 13.3118C116.064 12.8438 116.604 12.6638 118.26 12.4838C119.448 12.3758 120.672 12.3758 120.96 12.4478C121.248 12.5558 122.796 12.7358 124.38 12.8438ZM145.584 12.5198C147.132 13.0958 146.628 13.4198 144.108 13.4918C142.74 13.4918 141.264 13.5998 140.796 13.6718C140.328 13.7078 139.86 13.5638 139.788 13.3118C139.68 12.9878 140.184 12.8798 141.624 12.8798C142.704 12.8798 143.712 12.6998 143.82 12.5198C144.108 12.0518 144.432 12.0518 145.584 12.5198ZM160.74 19.3598C160.884 19.5758 160.56 19.7198 160.02 19.7198C159.48 19.7198 159.156 19.5758 159.3 19.3598C159.408 19.1438 159.732 18.9998 160.02 18.9998C160.308 18.9998 160.632 19.1438 160.74 19.3598Z" fill="white"/>
<path d="M169.488 12.5919C168.876 12.8079 168.48 13.2039 168.48 13.5999C168.48 13.9599 168.156 14.3199 167.724 14.4279C166.752 14.6799 167.184 15.3999 168.336 15.3999C168.984 15.3999 169.2 15.2199 169.128 14.7519C169.02 14.0679 169.2 14.0679 170.928 14.7519C171.864 15.1119 172.224 15.1119 172.8 14.7519C173.196 14.5359 174.096 14.3199 174.78 14.3199C175.68 14.3199 176.04 14.1759 176.04 13.7439C176.04 13.4559 175.932 13.2759 175.752 13.3839C175.608 13.4559 174.852 13.2399 174.06 12.8799C172.476 12.1239 171 12.0159 169.488 12.5919Z" fill="white"/>
<path d="M169.668 16.012C168.624 16.408 169.308 16.732 171.18 16.696C172.512 16.66 173.16 16.516 173.16 16.192C173.16 15.76 170.604 15.616 169.668 16.012Z" fill="white"/>
<path d="M171.864 23.8598C171.72 24.1838 171.756 24.5438 171.864 24.6878C172.188 24.9758 173.376 24.2558 173.268 23.8238C173.124 23.2478 172.08 23.2478 171.864 23.8598Z" fill="white"/>
<path d="M7.19995 32.4996C7.19995 32.7876 7.37995 33.0396 7.55995 33.0396C7.77595 33.0396 7.91995 32.7876 7.91995 32.4996C7.91995 32.2116 7.77595 31.9596 7.55995 31.9596C7.37995 31.9596 7.19995 32.2116 7.19995 32.4996Z" fill="white"/>
<path d="M85.0679 49.1318C84.3119 49.2758 83.8799 50.2478 84.5279 50.3558C85.9679 50.6078 89.6399 50.4998 89.5319 50.2118C89.4599 49.9598 85.8599 48.6998 85.8599 48.9518C85.8599 48.9518 85.4999 49.0598 85.0679 49.1318Z" fill="white"/>
<path d="M82.08 51.7596C81.648 52.0476 81.756 52.1196 82.548 52.1196C83.124 52.1196 83.484 51.9756 83.34 51.7596C83.052 51.3276 82.764 51.3276 82.08 51.7596Z" fill="white"/>
</svg>
