<svg width="70" height="70" viewBox="0 0 70 70" fill="none" xmlns="http://www.w3.org/2000/svg">
<g clip-path="url(#clip0_759_2)">
<path d="M31.192 0.168003C30.912 0.392003 31.01 1.316 31.304 1.204C31.402 1.162 31.71 1.092 31.976 1.036C32.62 0.924003 32.69 0.784003 32.382 0.350003C32.102 -0.0279968 31.556 -0.111997 31.192 0.168003Z" fill="black"/>
<path d="M38.738 0.825981C38.514 0.965981 38.08 1.13399 37.758 1.18999C37.282 1.27399 37.226 1.30199 37.45 1.39999C37.716 1.49799 37.702 1.51199 37.38 1.58199C37.184 1.62399 36.694 1.70798 36.274 1.74998C35.588 1.83398 35.49 1.80598 35.224 1.48399C35.056 1.30199 34.706 1.10599 34.44 1.04999C34.034 0.965981 33.978 0.97998 34.132 1.13399C34.622 1.65199 33.95 1.88998 33.32 1.39999C32.984 1.14799 32.97 1.14799 32.69 1.39999C32.466 1.59599 32.018 1.69398 30.562 1.80598C29.554 1.90398 28.42 2.05798 28.042 2.16998C27.118 2.44998 27.104 2.42198 27.972 2.02998C28.406 1.83398 28.7 1.60999 28.7 1.46999C28.7 1.23199 28.602 1.18999 27.832 1.04999C27.342 0.97998 27.3 0.99398 27.3 1.31599C27.3 1.55399 27.146 1.76398 26.852 1.97398C26.6 2.14198 26.362 2.30998 26.334 2.33798C26.306 2.35198 26.362 2.63198 26.46 2.95399C26.628 3.45798 26.698 3.51398 27.034 3.47198C27.258 3.42999 27.384 3.47198 27.342 3.54198C27.188 3.80798 26.306 4.05998 25.592 4.05998C24.864 4.04598 24.85 4.04598 25.27 3.86398L25.69 3.68198L25.172 3.42999C24.738 3.21999 24.584 3.20599 24.276 3.34599C23.842 3.54198 23.688 3.45798 23.94 3.14999C24.038 3.02399 24.094 2.91199 24.066 2.88399C23.996 2.82799 20.468 3.84998 18.76 4.40999C17.122 4.94199 15.064 6.01999 14.168 6.80399C13.426 7.44799 13.384 7.62999 13.93 7.72799C14.084 7.75599 14.21 7.83998 14.21 7.90998C14.224 7.99398 14.28 8.20399 14.336 8.38599L14.448 8.72198L14.63 8.28799C14.854 7.76999 15.246 7.50399 16.31 7.12598C17.178 6.81799 17.388 6.85999 17.038 7.23798C16.786 7.53199 16.324 8.66599 16.17 9.37999L16.072 9.86999L16.492 9.30999C16.716 9.00199 17.29 8.38599 17.766 7.95198C18.48 7.27999 18.62 7.06998 18.634 6.64999C18.648 6.38398 18.662 6.07598 18.676 5.97798C18.704 5.57198 19.67 5.30598 19.992 5.62798C20.118 5.75398 20.006 5.94998 19.53 6.45399C19.18 6.83199 18.9 7.23798 18.9 7.36399C18.9 7.53199 19.068 7.41999 19.46 6.99998C19.922 6.49599 20.062 6.42599 20.384 6.49599C20.804 6.60799 21.28 6.32798 20.972 6.14598C20.874 6.08998 20.832 6.00599 20.86 5.97798C21.168 5.73998 23.086 4.61999 23.212 4.61999C23.45 4.61999 23.562 5.20798 23.394 5.61398C23.324 5.82398 23.016 6.10398 22.722 6.25798C22.428 6.41198 21.7 6.78999 21.098 7.11198C20.244 7.57399 19.866 7.69999 19.32 7.69999C18.732 7.69999 18.62 7.74199 18.62 7.96598C18.62 8.10599 18.718 8.30199 18.83 8.39999C18.942 8.49799 19.04 8.65199 19.04 8.76398C19.04 9.04399 18.326 9.49199 17.556 9.67398C17.178 9.77199 16.38 10.08 15.792 10.388C15.022 10.766 14.7 10.864 14.7 10.724C14.7 10.626 14.854 10.108 15.064 9.58998C15.26 9.05799 15.4 8.46999 15.372 8.27399C15.302 7.68599 14.938 7.83998 14.7 8.56799C14.532 9.11399 14.448 9.21199 14.21 9.15599C14.056 9.11399 13.692 9.18399 13.398 9.30999C13.118 9.42199 12.88 9.47799 12.88 9.42199C12.88 9.36599 13.118 9.07199 13.398 8.76398L13.93 8.21799L13.09 8.80598C12.628 9.14199 11.69 9.78599 10.99 10.262C9.77201 11.088 8.12001 12.586 8.12001 12.838C8.12001 12.908 8.30201 12.95 8.54001 12.908C9.15601 12.824 9.08601 13.118 8.19001 14.21C7.77001 14.714 7.42001 15.176 7.42001 15.204C7.42001 15.33 7.57401 15.246 8.03601 14.84C8.31601 14.588 8.55401 14.476 8.61001 14.546C8.65201 14.63 7.95201 15.428 7.05601 16.31C5.44601 17.92 5.43201 17.948 5.53001 18.452C5.64201 19.04 5.88001 19.39 5.88001 18.956C5.88001 18.144 6.49601 16.8 6.87401 16.8C7.08401 16.8 7.01401 17.248 6.49601 19.264C6.21601 20.342 5.95001 21.714 5.89401 22.33L5.81001 23.45L5.29201 22.61C4.99801 22.148 4.76001 21.868 4.76001 21.994C4.76001 22.12 4.41001 22.652 3.99001 23.17C3.57001 23.674 3.22001 24.122 3.22001 24.15C3.22001 24.164 3.12201 24.416 3.01001 24.696C2.89801 24.976 2.82801 25.2 2.85601 25.2C2.88401 25.2 3.12201 24.878 3.37401 24.472L3.83601 23.758L4.01801 24.164C4.27001 24.752 4.24201 25.228 3.85001 27.3C3.50001 29.19 3.43001 30.366 3.64001 30.87C3.75201 31.122 3.76601 31.122 3.76601 30.786C3.78001 30.338 4.10201 29.89 4.31201 30.016C4.52201 30.142 4.52201 30.996 4.32601 31.906C4.11601 32.9 3.86401 33.012 3.94801 32.06L4.01801 31.332L3.55601 31.402C2.99601 31.5 2.99601 31.486 2.85601 29.61C2.81401 28.84 2.71601 28.07 2.64601 27.888C2.46401 27.412 2.12801 27.51 2.01601 28.07C1.89001 28.784 2.04401 29.666 2.66001 31.57C3.26201 33.446 3.45801 34.3 3.26201 34.3C3.19201 34.3 2.94001 34.034 2.68801 33.712C2.21201 33.096 2.14201 33.138 2.39401 33.852C2.47801 34.09 2.61801 34.272 2.70201 34.258C2.81401 34.244 2.87001 34.594 2.87001 35.462C2.87001 36.134 2.84201 36.68 2.80001 36.68C2.75801 36.68 2.52001 36.554 2.28201 36.4L1.82001 36.12L1.83401 36.512C1.84801 37.296 2.03001 38.15 2.17001 38.108C2.33801 38.052 3.09401 41.006 3.52801 43.428C3.71001 44.394 3.89201 45.136 3.93401 45.052C4.04601 44.87 4.41001 45.528 4.55001 46.186C4.71801 46.942 4.88601 46.41 4.81601 45.36L4.76001 44.45L4.97001 45.22C5.09601 45.64 5.25001 46.662 5.32001 47.488C5.39001 48.328 5.53001 49.294 5.61401 49.658L5.78201 50.302L6.03401 49.994L6.28601 49.686L6.48201 50.162C6.91601 51.198 6.93001 51.282 6.55201 51.212L6.20201 51.142L6.52401 51.632C6.70601 51.898 6.86001 52.262 6.86001 52.43C6.86001 52.71 7.37801 53.34 7.60201 53.34C7.65801 53.34 7.67201 53.172 7.61601 52.962C7.57401 52.738 7.82601 53.088 8.17601 53.718C8.52601 54.362 8.82001 55.02 8.82001 55.202C8.82001 55.86 9.43601 56.756 10.5 57.61C11.074 58.086 11.62 58.604 11.704 58.772C11.858 59.08 13.874 60.998 15.316 62.188C16.366 63.07 18.256 64.33 19.642 65.1C20.286 65.45 20.678 65.744 20.58 65.8C20.426 65.898 24.612 68.292 26.082 68.936C27.678 69.636 29.078 70 30.184 70C30.744 70 31.22 69.958 31.22 69.916C31.22 69.874 31.15 69.72 31.08 69.566C30.982 69.384 30.982 69.3 31.08 69.3C31.15 69.3 31.22 69.188 31.22 69.048C31.22 68.824 31.444 68.81 34.048 68.81C37.1 68.81 38.71 68.614 41.328 67.97C42.112 67.774 42.77 67.62 42.784 67.62C42.812 67.62 42.84 67.914 42.84 68.292C42.84 69.104 43.134 69.58 43.638 69.58H44.002L43.61 69.216C43.288 68.922 43.232 68.782 43.302 68.362C43.4 67.802 43.708 67.41 44.268 67.116C44.632 66.92 44.66 66.934 44.66 67.186C44.66 67.732 45.066 67.76 47.124 67.396C48.188 67.214 49.238 67.018 49.462 66.976C49.798 66.892 49.84 66.92 49.84 67.256C49.84 67.676 49.868 67.69 50.764 67.41C51.142 67.298 51.464 67.2 51.492 67.2C51.506 67.2 51.52 67.424 51.52 67.69C51.52 67.998 51.436 68.222 51.282 68.306C51.142 68.39 51.086 68.46 51.142 68.46C51.338 68.46 52.108 67.872 52.024 67.802C51.982 67.76 52.08 67.536 52.234 67.326L52.514 66.92H51.898C51.548 66.92 51.086 66.878 50.848 66.836C50.47 66.766 50.428 66.71 50.54 66.486C50.624 66.346 50.68 66.024 50.68 65.772V65.296L51.744 65.394L52.808 65.506L53.228 65.03C53.452 64.764 54.124 64.288 54.712 63.952C55.3 63.63 56.014 63.14 56.266 62.874C56.532 62.594 56.7 62.468 56.63 62.58C56.56 62.706 56.63 62.692 56.812 62.524C57.162 62.23 57.246 62.02 56.91 62.3C56.756 62.426 56.7 62.426 56.7 62.314C56.7 62.23 56.798 62.118 56.91 62.076C57.022 62.02 57.12 61.88 57.12 61.74C57.12 61.614 57.302 61.25 57.54 60.928L57.946 60.354L57.204 60.62C56.546 60.844 54.81 61.18 54.306 61.18C54.208 61.18 54.334 60.956 54.6 60.69C54.964 60.312 55.118 60.242 55.314 60.354C55.524 60.466 55.65 60.382 56.014 59.892C56.252 59.556 56.574 59.038 56.728 58.73C57.022 58.156 58.394 56.238 58.786 55.86C58.912 55.734 59.416 55.146 59.92 54.53C60.424 53.914 61.264 52.906 61.796 52.29C63.042 50.834 64.61 48.454 65.52 46.648C66.094 45.486 66.29 45.206 66.5 45.262C66.724 45.318 66.752 45.206 66.808 44.366C66.836 43.848 66.906 43.372 66.948 43.33C67.004 43.274 67.186 43.33 67.368 43.456C67.998 43.904 68.082 43.778 67.97 42.588C67.83 41.076 67.844 40.11 68.026 39.802C68.11 39.662 68.18 39.62 68.18 39.718C68.18 39.928 68.698 40.222 68.88 40.11C68.964 40.054 68.866 39.732 68.67 39.326C68.376 38.766 68.348 38.64 68.53 38.64C68.656 38.64 68.866 38.374 69.02 38.024C69.16 37.688 69.342 37.394 69.426 37.366C69.51 37.324 69.412 36.68 69.16 35.574C68.656 33.502 68.642 33.236 69.034 33.138C69.3 33.068 69.314 33.096 69.23 33.558C69.174 33.908 69.202 34.09 69.328 34.174C69.916 34.552 70.014 34.076 69.58 32.816C69.412 32.368 69.286 31.696 69.286 31.346C69.272 30.73 69.258 30.702 68.922 30.772L68.558 30.842L68.6 28.966C68.67 26.11 68.67 26.096 68.194 25.816C67.844 25.62 67.704 25.326 67.284 23.996C66.668 22.092 65.646 19.782 64.764 18.298C64.414 17.696 64.12 17.108 64.12 17.01C64.12 16.912 63.854 16.52 63.518 16.156C63.196 15.778 62.552 14.994 62.09 14.42C60.956 12.992 58.842 10.906 57.386 9.77199C56.294 8.91799 53.536 7.08398 53.158 6.95798C53.074 6.92999 53.228 6.63599 53.536 6.25798C54.124 5.54398 54.152 5.12399 53.648 4.78799C53.326 4.57799 53.326 4.57799 53.494 4.94199C53.634 5.24998 53.62 5.37598 53.424 5.65598C53.088 6.17398 52.682 6.34198 52.038 6.24398C51.716 6.18798 51.394 6.08998 51.31 6.03399C51.24 5.96398 50.932 5.83798 50.638 5.73998C50.148 5.58598 50.12 5.55798 50.316 5.33398C50.442 5.19398 50.54 5.01199 50.54 4.92799C50.54 4.59199 49.658 3.79398 48.412 2.96799C46.998 2.04398 46.578 1.97398 46.088 2.58998L45.836 2.89799L45.164 2.11398C44.492 1.34399 44.464 1.32999 43.694 1.31599C43.26 1.31599 42.504 1.17599 42 1.02199C41.496 0.867981 40.656 0.699982 40.11 0.643982C39.298 0.587982 39.06 0.615982 38.738 0.825981ZM39.438 0.783981C39.396 0.825981 39.27 0.839981 39.172 0.797981C39.06 0.755981 39.102 0.713982 39.256 0.713982C39.41 0.699982 39.494 0.741982 39.438 0.783981ZM49.392 5.01199C49.588 5.30598 49.588 5.31998 49.154 5.16599C48.72 5.01199 48.636 4.89999 48.818 4.70399C48.958 4.56399 49.168 4.67599 49.392 5.01199ZM12.012 10.388C11.9 10.57 11.536 11.186 11.2 11.76C10.864 12.334 10.57 12.824 10.556 12.852C10.542 12.88 10.374 12.824 10.206 12.726L9.88401 12.558L10.262 12.264C10.472 12.096 10.64 11.9 10.64 11.83C10.64 11.676 12.012 10.08 12.138 10.08C12.18 10.08 12.124 10.22 12.012 10.388ZM9.80001 18.578C9.64601 18.816 9.64601 18.816 9.71601 18.578C9.75801 18.438 9.80001 18.242 9.81401 18.158C9.81401 18.032 9.84201 18.032 9.88401 18.158C9.92601 18.256 9.88401 18.438 9.80001 18.578ZM11.62 19.446C11.62 19.516 11.522 19.642 11.41 19.74C11.242 19.88 11.2 19.88 11.2 19.712C11.2 19.6 11.242 19.46 11.298 19.418C11.424 19.278 11.62 19.292 11.62 19.446ZM9.94001 19.796C9.94001 19.824 9.98201 19.95 10.024 20.062C10.066 20.188 9.88401 20.426 9.54801 20.692L9.01601 21.126L9.22601 20.426C9.38001 19.936 9.50601 19.74 9.68801 19.74C9.82801 19.74 9.94001 19.768 9.94001 19.796ZM10.598 20.384C10.514 20.678 9.98201 21.602 9.42201 22.428C8.86201 23.268 8.13401 24.458 7.81201 25.088L7.21001 26.25L7.16801 24.262C7.14001 22.386 7.15401 22.246 7.44801 21.91C7.61601 21.714 7.82601 21.56 7.93801 21.56C8.03601 21.56 8.21801 21.406 8.34401 21.21C8.59601 20.818 8.82001 20.86 8.82001 21.294C8.82001 21.924 9.89801 21.196 10.388 20.258C10.724 19.586 10.822 19.642 10.598 20.384ZM68.46 27.496C68.46 28.112 68.222 27.762 68.124 27.02C68.04 26.418 68.04 26.404 68.236 26.74C68.362 26.936 68.446 27.272 68.46 27.496ZM6.38401 27.286C6.49601 27.188 6.62201 27.16 6.67801 27.202C6.81801 27.342 6.14601 28.84 5.93601 28.84C5.54401 28.84 5.23601 27.664 5.47401 27.048L5.61401 26.67L5.90801 27.062C6.13201 27.37 6.23001 27.412 6.38401 27.286ZM47.18 66.15C47.18 66.29 47.04 66.36 46.732 66.36L46.27 66.346L46.62 66.15C47.068 65.898 47.18 65.898 47.18 66.15ZM45.948 67.158C46.144 67.41 45.71 67.55 45.248 67.396C44.716 67.214 44.716 66.948 45.248 66.724C45.668 66.542 45.71 66.542 45.766 66.752C45.794 66.878 45.878 67.074 45.948 67.158ZM30.73 68.754C30.926 68.95 30.226 68.894 29.75 68.684C29.33 68.488 29.344 68.488 29.96 68.558C30.31 68.6 30.646 68.684 30.73 68.754Z" fill="black"/>
<path d="M35.742 1.21777C35.952 1.24577 36.288 1.24577 36.512 1.21777C36.722 1.18977 36.54 1.16177 36.12 1.16177C35.7 1.16177 35.518 1.18977 35.742 1.21777Z" fill="black"/>
<path d="M50.932 4.95577C51.1 5.17977 51.24 5.47377 51.24 5.62777C51.24 5.78177 51.31 5.85177 51.38 5.80977C51.66 5.64177 51.506 5.19377 51.072 4.87177L50.61 4.54977L50.932 4.95577Z" fill="black"/>
<path d="M4.64803 18.8018C4.32603 19.1518 4.25603 19.5298 4.48003 19.6698C4.56403 19.7118 4.62003 19.8938 4.62003 20.0618C4.63403 20.3698 4.63403 20.3698 4.84403 20.0898C5.02603 19.8378 5.02603 19.8098 4.84403 19.7678C4.56403 19.7118 4.56403 19.7118 4.83003 19.0818C5.09603 18.4658 5.04003 18.3818 4.64803 18.8018Z" fill="black"/>
<path d="M2.31 20.7758C2.128 21.2518 2.114 21.4478 2.226 21.6858C2.52 22.2038 2.66 21.9938 2.66 21.0698C2.66 20.5658 2.632 20.1598 2.604 20.1598C2.576 20.1598 2.436 20.4398 2.31 20.7758Z" fill="black"/>
<path d="M1.63803 23.0998C1.41403 23.4918 1.19003 23.7998 1.13403 23.7998C0.994025 23.7998 0.616025 23.3658 0.532025 23.0998C0.490025 22.9878 0.434025 23.1278 0.406025 23.4078C0.364025 23.6878 0.392025 23.8838 0.448025 23.8558C0.504025 23.8138 0.560025 24.0098 0.560025 24.2758C0.560025 24.5558 0.630025 24.7798 0.700025 24.7798C0.784025 24.7798 0.840025 24.7238 0.840025 24.6538C0.840025 24.5698 1.21803 24.2198 1.68003 23.8698C2.50603 23.2258 2.68803 22.9038 2.35203 22.5678C2.10003 22.3158 2.05803 22.3438 1.63803 23.0998Z" fill="black"/>
<path d="M0.700012 25.6198C0.700012 25.7038 0.798012 25.7598 0.910012 25.7598C1.17601 25.7598 1.17601 25.6758 0.910012 25.5638C0.798012 25.5218 0.700012 25.5498 0.700012 25.6198Z" fill="black"/>
<path d="M67.788 44.1699C67.634 44.5199 67.55 46.3259 67.69 46.1719C67.774 46.0879 68.068 43.9459 67.998 43.8759C67.97 43.8479 67.872 43.9739 67.788 44.1699Z" fill="black"/>
<path d="M64.806 49.1679C64.68 49.6439 64.54 50.1479 64.484 50.2739C64.33 50.6099 65.002 50.4559 65.352 50.0639C65.842 49.5459 65.856 49.2099 65.422 48.7199L65.016 48.2719L64.806 49.1679Z" fill="black"/>
<path d="M63.98 50.9738C63.882 51.1278 63.84 51.2958 63.882 51.3238C63.91 51.3518 64.008 51.2258 64.092 51.0298C64.288 50.6098 64.19 50.5678 63.98 50.9738Z" fill="black"/>
<path d="M63.434 52.3877C63.126 53.3117 63.168 53.3117 63.756 52.4297L64.12 51.8697V52.4297C64.106 52.7377 64.022 53.1437 63.91 53.3397C63.406 54.2217 63.826 54.6137 64.596 53.9977C64.946 53.7037 64.974 53.6337 64.834 53.3537C64.722 53.1717 64.694 52.8217 64.764 52.4297C64.848 51.8417 64.834 51.7997 64.47 51.6597C63.84 51.4217 63.742 51.4917 63.434 52.3877Z" fill="black"/>
<path d="M60.774 55.5239C60.774 55.6919 60.41 56.2099 59.99 56.6859C59.248 57.5119 59.052 57.9879 59.36 58.1699C59.612 58.3239 59.514 58.4919 59.122 58.5899L58.73 58.7019L59.136 58.8139C59.416 58.8979 59.626 58.8559 59.878 58.7019L60.228 58.4639L59.906 58.2399C59.416 57.8619 59.64 57.5399 60.41 57.5399H61.04L61.026 56.9379C61.026 56.2799 60.802 55.0619 60.774 55.5239Z" fill="black"/>
<path d="M62.37 55.5937C62.314 55.6777 62.3 55.7617 62.342 55.8037C62.37 55.8457 62.44 55.7757 62.482 55.6497C62.58 55.4117 62.496 55.3697 62.37 55.5937Z" fill="black"/>
<path d="M61.81 56.7977C61.6 57.1337 61.46 57.4417 61.488 57.4697C61.502 57.4837 61.726 57.5537 61.964 57.5957C62.342 57.6797 62.454 57.6377 62.706 57.3157C63.098 56.8257 63.084 56.6717 62.58 56.3917L62.174 56.1677L61.81 56.7977Z" fill="black"/>
<path d="M58.786 59.5981L58.31 60.1021L58.758 59.7941C59.234 59.4721 59.43 59.2481 59.332 59.1361C59.304 59.1081 59.052 59.3181 58.786 59.5981Z" fill="black"/>
<path d="M52.8501 66.6398C52.8081 66.7098 52.8361 66.7798 52.9061 66.7798C52.9901 66.7798 53.0601 66.7098 53.0601 66.6398C53.0601 66.5558 53.0321 66.4998 53.0041 66.4998C52.9621 66.4998 52.8921 66.5558 52.8501 66.6398Z" fill="black"/>
<path d="M48.37 68.1939C47.782 68.7959 47.726 68.8939 48.02 68.8099C48.622 68.6419 49.21 68.2499 49.252 67.9839C49.364 67.4239 49.028 67.5079 48.37 68.1939Z" fill="black"/>
<path d="M45.57 68.0399L45.01 68.2919L45.542 68.3059C45.892 68.3199 46.102 68.2499 46.158 68.1099C46.284 67.7739 46.172 67.7599 45.57 68.0399Z" fill="black"/>
<path d="M37.17 69.0198C35.784 69.1598 33.992 69.2858 33.18 69.2998L31.71 69.3278L33.11 69.5938C33.908 69.7618 35.434 69.9018 36.68 69.9578L38.85 70.0278L38.5 69.7478L38.15 69.4678L38.5 69.3138C38.696 69.2438 39.354 69.1318 39.97 69.0758C40.796 69.0058 40.992 68.9498 40.74 68.8658C40.25 68.7258 40.026 68.7398 37.17 69.0198Z" fill="black"/>
<path d="M36.5996 13.9646C36.2188 14.0466 36.1367 14.1052 35.334 14.8963L34.5899 15.6345L34.2383 16.572C34.0449 17.0877 33.8516 17.6736 33.8106 17.8845L33.7344 18.2595L33.582 18.0017C33.4941 17.8611 33.3535 17.6736 33.2598 17.5916C32.9844 17.3279 32.1641 16.7947 31.707 16.5838C31.1094 16.2966 30.9219 16.2556 31.25 16.4724C31.3965 16.5662 31.6074 16.7244 31.7188 16.824L31.9238 16.9998L31.543 16.9119C31.1621 16.824 30.7051 16.8299 29.8145 16.9412C29.4629 16.9822 29.4688 16.9822 30.0488 17.0115L30.6348 17.0408L30.2539 17.1111L29.8731 17.1814L30.2539 17.1638C30.4649 17.1521 30.6816 17.158 30.7461 17.1814C30.834 17.2166 30.8106 17.24 30.5996 17.322C30.1777 17.4744 29.3984 17.5974 28.5254 17.6502C28.0684 17.6736 27.6465 17.7263 27.5879 17.7615C27.4766 17.8259 27.4824 17.8259 27.6231 17.8318C27.7051 17.8318 28.0977 17.9197 28.4902 18.031C29.6621 18.3591 29.668 18.3591 30.7402 17.9841C31.2441 17.8084 31.6602 17.6736 31.6602 17.6912C31.6602 17.7088 31.4961 17.7966 31.2969 17.8845C30.7344 18.1365 30.6231 18.1892 30.7402 18.1541C30.8633 18.1189 31.5488 18.6345 31.5195 18.74C31.5137 18.7693 31.1387 18.9041 30.6875 19.0388C30.2422 19.1677 29.6914 19.3552 29.4629 19.4548C28.877 19.7068 28.7715 19.7244 28.4961 19.6131C28.2676 19.5193 28.2441 19.5252 27.8457 19.6716C27.6231 19.7537 27.3887 19.824 27.3301 19.824C27.2656 19.824 27.0899 19.7185 26.9375 19.5896C26.3281 19.0916 25.8125 19.3728 25.4844 20.3806C25.3965 20.6619 25.3672 20.6912 25.0098 20.867C24.6524 21.0427 24.6113 21.0486 24.3359 20.99C24.0957 20.9373 23.9902 20.867 23.6856 20.5564C23.4863 20.3513 23.1524 19.9119 22.9473 19.5779C22.7422 19.2439 22.502 18.9099 22.4199 18.8279C22.2676 18.6756 22.291 18.7693 22.4551 18.9627C22.5078 19.0271 22.3672 18.9802 22.0859 18.8338C21.5879 18.5818 20.9785 18.4119 20.5742 18.4236C20.3281 18.4295 20.3281 18.4295 20.6914 18.5115C20.8965 18.5525 21.1836 18.6463 21.3301 18.7107C21.6992 18.8748 22.291 19.3084 22.4785 19.5545C22.6133 19.7302 23.293 21.0662 23.2637 21.0896C23.2578 21.0955 23.0176 21.2185 22.7363 21.3709C22.2266 21.6345 22.2031 21.6404 21.6875 21.6404C21.0606 21.6404 20.1524 21.4646 19.5488 21.2302C19.3145 21.1423 19.1211 21.0779 19.1211 21.0896C19.1211 21.1423 19.8418 21.4646 20.2637 21.5994C20.8262 21.7752 21.6289 21.9041 21.9102 21.8572C22.0508 21.8338 22.0977 21.8455 22.0742 21.8865C22.0449 21.9334 22.0684 21.9392 22.1445 21.9099C22.2266 21.8748 22.6777 21.74 22.8418 21.699C22.8477 21.699 22.7012 21.8513 22.5195 22.033C22.1797 22.3904 22.0156 22.6716 21.957 22.9998C21.9277 23.1697 21.9336 23.1814 21.9981 23.0759C22.1387 22.8357 22.3906 22.6072 23.0586 22.1091C23.7559 21.5818 23.9785 21.4822 24.2129 21.5701C24.3418 21.617 24.3359 21.6228 24.1016 21.7869C23.6563 22.0974 23.5742 22.2381 23.5742 22.7185C23.5742 23.0818 23.5449 23.199 23.3633 23.574C23.2461 23.8142 23.0469 24.2654 22.9238 24.5701C22.7949 24.8748 22.6133 25.2088 22.5137 25.3025C22.3965 25.4256 22.3438 25.5427 22.3438 25.6716V25.8533L21.8633 25.6248C21.5996 25.4959 21.2949 25.3787 21.1777 25.3552C21.0606 25.3377 20.8145 25.2732 20.627 25.2088C20.2402 25.0799 20.1231 25.0681 20.3809 25.1853L20.5566 25.2674L20.3984 25.2732C20.3106 25.2732 20.2227 25.2966 20.2051 25.3318C20.1875 25.3611 20.0703 25.3904 19.9531 25.3904C19.8008 25.3904 20.0645 25.5017 20.8789 25.7771C21.5059 25.9939 22.0332 26.1756 22.0449 26.1873C22.0625 26.2049 21.9922 26.2986 21.8867 26.4041C21.7871 26.5037 21.5469 26.8259 21.3535 27.1189C21.0723 27.5291 20.9961 27.6931 20.9961 27.8631C20.9961 27.9861 20.9785 28.0857 20.9551 28.0857C20.9375 28.0857 20.832 28.0154 20.7207 27.9334C20.5449 27.8045 20.4512 27.7576 20.2871 27.74C20.2402 27.7341 19.332 27.1424 19.0332 26.9197C18.7578 26.7146 18.002 26.2693 17.9316 26.2693C17.8613 26.2693 18.5352 26.8552 18.7695 26.9959L18.9746 27.1189L18.4766 27.1599C18.002 27.1951 17.9492 27.1892 17.252 26.9607C16.6191 26.7498 16.4258 26.6502 15.7578 26.2049C14.6445 25.4607 14.1641 25.0564 13.0566 23.9138C12.5117 23.3572 12.084 22.9353 12.1133 22.9705C12.1367 23.0174 12.1191 23.0466 12.0606 23.0466C12.0078 23.0466 11.9785 23.0232 11.9961 22.9998C12.0137 22.9705 11.9902 22.947 11.9434 22.947C11.8438 22.947 11.9551 23.0818 13.291 24.5994C13.8301 25.2088 14.5274 26.0408 14.8438 26.4451C15.459 27.2302 16.332 28.156 16.9531 28.6775L17.334 28.9939L16.8945 28.4841C16.6484 28.2029 16.4024 27.8865 16.3438 27.7869C16.2324 27.5994 16.2324 27.5994 16.3438 27.6463C16.4024 27.6697 16.8594 27.8455 17.3574 28.0388C18.2188 28.367 18.7168 28.6131 18.9746 28.8533C19.1445 29.0056 20.2344 29.7791 20.4277 29.8787C20.75 30.0486 20.5391 30.0193 19.8477 29.7966C19.1328 29.5681 18.7695 29.5213 18.7285 29.6502C18.7109 29.6912 18.7461 29.7263 18.7988 29.7263C18.8516 29.7263 18.8809 29.7498 18.8574 29.7791C18.8399 29.8142 18.916 29.8787 19.0274 29.9314C19.1445 29.99 19.2207 30.0603 19.2031 30.1013C19.1738 30.1834 19.625 30.5525 20.0938 30.8279C20.4043 31.0095 21.9688 31.7185 23.2813 32.2752C24.1543 32.6443 24.4063 32.7673 24.2891 32.7732C24.1016 32.7791 23.0352 32.5271 22.7832 32.4216C22.4082 32.2634 22.502 32.3631 23.0059 32.6736C23.7207 33.1189 23.5508 33.1013 25.9824 32.9724C27.2129 32.908 28.0098 33.0896 29.1289 33.6814C29.4395 33.8455 29.75 33.9685 29.9141 33.9861L30.1953 34.0213L29.9961 34.2381C29.8848 34.3611 29.7617 34.5193 29.7266 34.5896C29.6563 34.7185 29.6621 34.7185 29.9375 34.6834C31.1211 34.5193 33.9981 33.9099 35.3457 33.5349C35.8086 33.4002 36.1953 33.3064 36.207 33.3181C36.2188 33.3298 35.8672 33.4529 35.4219 33.5935C34.9824 33.7283 33.9336 34.0681 33.0957 34.3377C32.2578 34.6131 31.3438 34.8826 31.0566 34.947C30.4063 35.0935 28.3965 35.2341 27.1484 35.2283C26.0293 35.2224 26.1406 35.1756 27.7051 35.0115L28.6426 34.9119L28.3086 34.8064C27.5586 34.5662 27.1484 34.5369 25.2734 34.572C23.627 34.6072 23.4688 34.6013 23.2813 34.5017C23.0703 34.3963 22.5547 34.0271 21.4707 33.2127C21.1309 32.9548 20.627 32.6209 20.3516 32.4627C20.0762 32.3045 19.6602 32.0291 19.4199 31.8591C19.1856 31.6834 18.9629 31.5603 18.9277 31.5838C18.8984 31.6013 18.8867 31.5896 18.9043 31.5603C18.9277 31.5252 18.834 31.4256 18.7051 31.3377C18.5703 31.2498 18.4824 31.2146 18.5059 31.2498C18.5352 31.2966 18.5234 31.3142 18.4707 31.2966C18.4238 31.2791 18.3887 31.2381 18.3887 31.2029C18.3887 31.1736 18.3652 31.1209 18.3418 31.0916C18.3125 31.0681 18.2949 31.074 18.3008 31.1033C18.3301 31.2381 18.2949 31.3025 18.2129 31.2732C18.166 31.2498 18.1426 31.2146 18.1602 31.1853C18.1777 31.156 18.166 31.1326 18.1309 31.1326C18.1016 31.1326 18.0606 31.1795 18.0488 31.2322C18.0254 31.3201 18.0195 31.3259 18.0137 31.2439C18.002 31.0974 17.8086 31.074 17.6504 31.197L17.5098 31.3025L17.668 31.2849C17.7559 31.2732 17.8555 31.2908 17.9024 31.3201C17.9609 31.3611 17.9492 31.367 17.8789 31.3435C17.8203 31.3259 17.7734 31.3318 17.7734 31.3611C17.7734 31.3904 17.832 31.4256 17.9082 31.449C17.9844 31.4666 18.0488 31.5193 18.0488 31.572C18.0488 31.6834 18.0547 31.6834 17.7734 31.5369C17.5391 31.4138 17.4336 31.4138 17.5098 31.5427C17.5332 31.5779 17.5977 31.5896 17.6621 31.572C17.7441 31.5427 17.7617 31.5545 17.7383 31.6248C17.7207 31.6775 17.7324 31.7185 17.7734 31.7185C17.8086 31.7185 17.8203 31.7478 17.7969 31.7888C17.7734 31.824 17.7793 31.8357 17.8203 31.8123C17.8555 31.7947 17.9141 31.8123 17.9609 31.8533C18.043 31.9353 18.3008 32.0935 18.3652 32.0994C18.3828 32.0994 18.4414 32.1463 18.5 32.2048C18.5586 32.2576 18.6289 32.2927 18.6582 32.2752C18.6875 32.2517 18.7109 32.2693 18.7109 32.2986C18.7109 32.3338 18.7461 32.3631 18.793 32.3631C18.8399 32.3631 18.8867 32.3865 18.8984 32.4099C18.9102 32.4334 19.1035 32.5564 19.3262 32.6795C19.8066 32.9431 20.334 33.3298 20.416 33.4939C20.5039 33.6521 20.416 33.7224 20.1055 33.7341C19.7774 33.7517 19.3555 33.8748 19.3555 33.9509C19.3555 33.9861 19.332 33.9978 19.3027 33.9802C19.2734 33.9627 19.2207 33.9861 19.1797 34.033C19.127 34.0974 19.127 34.1209 19.1738 34.1209C19.2149 34.1209 19.2324 34.1384 19.2149 34.1677C19.168 34.2439 19.3438 34.4314 19.4199 34.3787C19.4668 34.3552 19.4785 34.3611 19.4492 34.408C19.4258 34.4431 19.4375 34.5134 19.4727 34.5603C19.5137 34.6072 19.5254 34.6482 19.502 34.6482C19.4785 34.6482 19.4961 34.6951 19.5371 34.7478C19.6133 34.8416 19.6074 34.8474 19.5195 34.7713C19.4609 34.7302 19.4316 34.6716 19.4492 34.6423C19.4668 34.6131 19.4375 34.5896 19.3848 34.5896C19.332 34.5896 19.2734 34.6423 19.2559 34.7068C19.2383 34.7713 19.2031 34.8064 19.1738 34.7888C19.1445 34.7713 19.1211 34.7888 19.1211 34.824C19.1211 34.8591 19.0977 34.8767 19.0684 34.8591C19.0391 34.8416 19.0039 34.865 18.9805 34.9119C18.9629 34.9588 18.8867 34.9998 18.8164 34.9998C18.7051 35.0056 18.7168 35.0232 18.916 35.1463C19.0449 35.2283 19.1856 35.281 19.2266 35.2634C19.2676 35.2459 19.291 35.2576 19.2734 35.2869C19.2324 35.3513 19.5254 35.4802 19.6016 35.4334C19.6426 35.4099 19.6484 35.4216 19.625 35.4568C19.584 35.5271 19.6309 35.5447 19.8359 35.5447C19.8945 35.5447 19.9238 35.5623 19.9121 35.5857C19.8711 35.6502 20.0527 35.7146 20.1348 35.6619C20.1758 35.6443 20.1875 35.6443 20.1641 35.6736C20.0996 35.7439 21.3477 36.2654 21.8984 36.4002C22.5781 36.5701 23.8262 36.7927 24.7461 36.9041C25.1797 36.9627 25.5488 37.0154 25.5606 37.0271C25.6309 37.0916 25.168 37.1912 24.6816 37.2146C24.0371 37.2381 23.4805 37.156 21.084 36.6638C18.6582 36.1658 18.1074 36.0134 16.1563 35.2576C15.1016 34.8533 14.0293 34.5017 13.9824 34.5486C13.9707 34.5603 14.3633 34.7244 14.8555 34.9119C16.0918 35.3806 17.2344 35.908 17.9902 36.3591C18.3418 36.5701 18.8867 36.8396 19.209 36.9568C20.1465 37.3025 20.4102 37.408 20.9024 37.6482C21.1602 37.7713 21.4238 37.8709 21.4883 37.8709C21.7051 37.8709 23.1406 38.3806 23.8145 38.697C24.4473 38.99 24.4824 39.0017 24.8574 38.9666C25.0684 38.949 25.4668 38.8787 25.7422 38.8142C26.3926 38.656 27.2891 38.5271 28.0098 38.4802C28.6191 38.4392 29.1582 38.5154 29.3516 38.6619C29.4629 38.7498 29.4629 38.7498 29.3516 38.8377C29.1758 38.9724 28.3906 39.2127 27.6348 39.365C27.0957 39.4705 27.002 39.4998 27.207 39.5056C27.5527 39.5115 28.8477 39.3591 29.416 39.242C30.5059 39.0252 32.0938 38.5095 32.334 38.3045L32.5098 38.1521L32.5274 38.322C32.5332 38.4099 32.6387 38.6795 32.7617 38.9197L32.9785 39.3591V40.1795C32.9785 40.9588 32.9902 41.0173 33.1191 41.1931C33.2539 41.3748 33.2598 41.4041 33.2188 42.0427C33.2012 42.406 33.166 42.8396 33.1484 43.0037L33.1133 43.3025L33.4238 43.4724C33.6113 43.5779 33.8047 43.742 33.9102 43.8943C34.0801 44.1404 34.0859 44.1463 33.9863 44.3103C33.8281 44.5857 33.8574 44.7029 34.1387 44.867C34.2734 44.949 34.5195 45.0427 34.6777 45.0838C34.8418 45.1189 35.1406 45.2478 35.3516 45.365C35.5625 45.4822 35.8027 45.6052 35.8965 45.6463C36.0313 45.7048 36.0547 45.7517 36.0547 45.9509C36.0547 46.3904 36.6465 47.3045 37.2149 47.7322C37.6133 48.0369 37.9766 48.0896 38.3281 47.8904C38.5918 47.7439 38.7617 47.4685 39.0078 46.8123C39.1484 46.4373 39.1602 46.3494 39.1426 45.6287C39.125 44.949 39.1367 44.8318 39.2305 44.7146C39.3184 44.6033 39.3418 44.5916 39.3887 44.6677C39.4473 44.7556 39.6524 45.4002 39.7168 45.6814C39.7344 45.7693 39.8399 45.9392 39.9453 46.0623C40.1856 46.3318 40.3613 46.6716 40.4551 47.0466C40.543 47.4275 40.6426 47.574 40.8828 47.6853C41.1992 47.8377 41.5625 48.2595 41.5625 48.4763C41.5625 48.6228 41.5918 48.6697 41.7324 48.7166C41.9199 48.781 42.4766 49.4841 42.7168 49.9646C42.7988 50.1287 42.916 50.3338 42.9746 50.4158C43.0508 50.5271 43.0742 50.6267 43.0508 50.7498C43.0215 50.908 43.0391 50.9373 43.2031 51.0252C43.3555 51.1072 43.3848 51.1482 43.3555 51.2654C43.3262 51.3709 43.3555 51.4353 43.4609 51.5291C43.5488 51.6052 43.6309 51.7634 43.666 51.9451C43.7305 52.2205 43.7188 52.2498 43.4668 52.7537C43.3203 53.0408 43.2031 53.3162 43.2031 53.3631C43.2031 53.4158 43.1563 53.4744 43.1035 53.5095C43.0098 53.5564 41.6621 53.6736 41.5508 53.6443C41.5215 53.6384 41.5039 53.6736 41.5039 53.7205C41.5039 53.7673 41.5332 53.8084 41.5625 53.8084C41.5977 53.8084 41.6211 53.7791 41.6211 53.7498C41.6211 53.7146 41.6504 53.6912 41.6856 53.6912C41.7324 53.6912 41.7324 53.7205 41.6797 53.7791C41.6387 53.8318 41.5449 53.8552 41.4512 53.8377C41.2637 53.8084 41.0938 53.8904 41.2402 53.9431C41.293 53.9666 41.3164 53.9607 41.2988 53.9256C41.2813 53.8904 41.293 53.867 41.3223 53.867C41.3574 53.867 41.3867 53.8845 41.3867 53.908C41.3867 53.9373 41.7793 53.9548 42.2656 53.9607C43.0449 53.9607 43.3731 54.0076 43.1621 54.0838C43.1035 54.1072 43.1035 54.1306 43.168 54.1951C43.2149 54.2361 43.2617 54.3064 43.2734 54.3474C43.3086 54.4412 44.6973 54.4177 45.6875 54.3006C46.1094 54.2478 46.8711 54.2068 47.375 54.2068C47.9727 54.2068 48.3125 54.1834 48.3418 54.1423C48.3652 54.1013 48.3418 54.0955 48.2656 54.1248C48.1836 54.1541 48.1719 54.1482 48.2246 54.0955C48.3008 54.0193 48.4414 54.0779 48.3887 54.1658C48.3652 54.1951 48.4063 54.2185 48.4707 54.2185C48.5352 54.2185 48.6055 54.1892 48.6231 54.1599C48.6406 54.1248 48.6875 54.1013 48.7168 54.1013C48.752 54.1013 48.7637 54.1248 48.7461 54.1482C48.7285 54.1775 48.752 54.2009 48.7988 54.2009C48.8457 54.2009 48.875 54.1834 48.8633 54.1658C48.8516 54.1482 48.8809 54.0896 48.9336 54.0486C49.0156 53.9724 49.0215 53.9724 48.9922 54.0779C48.9688 54.1834 48.9981 54.1951 49.3203 54.2009C49.5195 54.2009 49.6309 54.1951 49.5723 54.1775C49.4727 54.1541 49.4727 54.1423 49.5606 54.0838C49.6367 54.0252 49.5957 54.0134 49.3731 54.031C49.1621 54.0427 49.1152 54.031 49.1797 53.99C49.2441 53.9431 49.1797 53.9256 48.9277 53.9256C48.6289 53.9256 48.1836 53.8084 48.1836 53.7263C48.1836 53.6853 48.7344 53.5798 49.2676 53.5154C49.6953 53.4685 50.0586 53.3396 50.791 52.9822C50.8555 52.9529 50.9668 52.9177 51.0371 52.9119C51.1074 52.9119 51.1602 52.8884 51.1543 52.8709C51.1484 52.8533 51.1543 52.8416 51.1719 52.8416C51.1895 52.8416 51.2656 52.7947 51.3477 52.7361C51.4238 52.6834 51.5703 52.6306 51.6699 52.6306C52.0215 52.6131 51.2656 52.531 50.7207 52.5252C50.1524 52.5193 49.959 52.4373 50.3516 52.3728C50.4805 52.3494 50.6035 52.3377 50.6211 52.3435C50.6445 52.3494 50.6797 52.3318 50.6973 52.3025C50.7149 52.2791 50.7852 52.2146 50.8438 52.1677C50.9492 52.0916 50.9551 52.0916 50.9082 52.1677C50.8789 52.2205 50.9199 52.2029 51.002 52.1326C51.0781 52.0681 51.2012 52.0213 51.2774 52.0271C51.3652 52.033 51.4004 52.0095 51.3828 51.9627C51.3652 51.9158 51.3945 51.8923 51.4531 51.9041C51.5059 51.9099 51.5879 51.8923 51.6231 51.8631C51.6641 51.8279 51.752 51.8162 51.8164 51.8338C51.8809 51.8513 51.9219 51.8396 51.8984 51.8103C51.8809 51.781 51.8984 51.7576 51.9395 51.7576C52.0508 51.7576 51.9395 51.6697 51.7988 51.6521C51.7285 51.6404 51.3594 51.617 50.9844 51.6052C50.3867 51.5759 50.293 51.5877 50.293 51.6638C50.293 51.7166 50.2637 51.7576 50.2285 51.7576C50.1992 51.7576 50.1816 51.781 50.1992 51.8103C50.2168 51.8396 50.1465 51.8513 50.041 51.8396C49.5078 51.7693 47.9961 51.7459 47.9316 51.8103C47.8965 51.8455 47.8379 51.8748 47.8086 51.8748C47.7734 51.8748 47.7852 51.8455 47.832 51.8162C47.8965 51.7752 47.9024 51.7576 47.8438 51.7576C47.8027 51.7576 47.7266 51.7986 47.6797 51.8455C47.627 51.8923 47.5566 51.9334 47.5215 51.9334C47.4805 51.9334 47.5039 51.8923 47.5625 51.8455C47.627 51.7986 47.668 51.7576 47.6504 51.7576C47.5918 51.7576 47.1289 51.9978 47.1289 52.0271C47.1289 52.0388 47.1816 52.0271 47.2402 51.992C47.3047 51.9627 47.375 51.9334 47.4043 51.9334C47.4277 51.9392 47.3867 51.9744 47.3047 52.0213C47.1934 52.0798 47.1406 52.0857 47.0762 52.033C47.0117 51.9802 47 51.9802 47.0293 52.0271C47.0762 52.1033 46.7656 52.2556 46.6484 52.2088C46.6074 52.197 46.5254 52.2088 46.4727 52.2381C46.3965 52.2732 46.3496 52.2498 46.2852 52.1267C46.1563 51.8631 45.9629 51.1658 45.9981 51.0779C46.0156 51.031 45.9746 50.9256 45.8984 50.8494C45.8164 50.7615 45.7813 50.6736 45.8047 50.6033C45.8281 50.5271 45.7637 50.3806 45.5938 50.1463C45.3066 49.742 45.0313 48.9334 44.9844 48.3298C44.9609 48.031 44.8965 47.8084 44.75 47.5095C44.5508 47.0994 44.5508 47.0994 44.6387 46.8123C44.6856 46.6541 44.7266 46.3728 44.7266 46.1853C44.7266 45.8982 44.6856 45.7634 44.4688 45.3474C44.3281 45.072 44.1992 44.7322 44.1875 44.5916C44.1699 44.4451 44.0234 44.0584 43.8594 43.7302L43.5664 43.1267L43.8184 42.8572C44.0762 42.5818 44.5508 41.7791 44.5508 41.615C44.5508 41.4978 44.1055 40.8533 43.5723 40.2029C43.3438 39.9216 43.0215 39.4705 42.8574 39.1951C42.5586 38.7088 42.0664 38.1873 41.7324 38.0115C41.6387 37.9646 41.5625 37.9119 41.5625 37.9002C41.5625 37.8826 41.7383 37.9588 41.9609 38.0701C42.3711 38.281 42.5117 38.4099 43.0156 39.0427C43.2852 39.3826 43.5371 39.6111 43.584 39.5584C43.5899 39.5466 43.6367 39.0662 43.6895 38.4861L43.7774 37.4314L43.625 37.0857L43.4727 36.7459L43.6836 36.3298C43.8945 35.9256 43.8945 35.9138 43.8125 35.6502C43.7129 35.3103 43.707 35.1756 43.8066 35.1756C43.9531 35.1756 45.4356 38.4099 45.3887 38.6384C45.3711 38.7263 45.4063 38.8318 45.4766 38.9138C45.541 38.9841 45.6113 39.1365 45.6289 39.2478C45.6524 39.3709 45.7285 39.4939 45.834 39.5642C46.0977 39.7517 46.1504 39.9568 46.1211 40.6775C46.1094 41.0291 46.1211 41.2869 46.1445 41.2517C46.168 41.2107 46.1914 41.1404 46.1914 41.0935C46.1914 40.9646 46.4785 40.3787 46.6016 40.2439C46.7012 40.1384 46.707 40.0974 46.6484 39.8923C46.6016 39.74 46.5957 39.658 46.6367 39.6463C46.6719 39.6345 46.6895 39.4295 46.6836 39.1423C46.6777 38.6619 46.5723 38.2986 46.3906 38.0994C46.3438 38.0466 46.1914 37.7068 46.0508 37.3377C45.9102 36.9685 45.5117 36.0017 45.1719 35.1814C44.8262 34.367 44.5566 33.6873 44.5742 33.6697C44.5918 33.6521 44.9668 33.7576 45.4121 33.9041C45.8574 34.0506 46.4141 34.2263 46.6484 34.2966C46.9121 34.3728 47.1524 34.49 47.2813 34.6013L47.4863 34.783L47.6445 34.6423C47.7324 34.5662 47.8262 34.4841 47.8555 34.4607C47.9258 34.408 47.7266 34.1795 47.6152 34.1795C47.3457 34.1795 45.8106 33.4412 45.1543 32.9959C44.6094 32.6326 44.1875 32.2517 44.2344 32.1756C44.2988 32.0759 43.959 31.7888 43.6895 31.7127C43.5195 31.6658 43.4082 31.6013 43.3906 31.531C43.3789 31.4724 43.3262 31.4256 43.2852 31.4256C43.2383 31.4256 43.2031 31.3787 43.2031 31.3142C43.2031 31.2556 43.1856 31.1267 43.168 31.033C43.1328 30.8689 43.1621 30.8396 43.5957 30.5349C44.0352 30.2185 44.627 29.6677 44.5215 29.6677C44.4512 29.6677 43.8828 29.99 43.5371 30.2302C43.3789 30.3416 43.2266 30.4295 43.2031 30.4295C43.1797 30.4295 43.1445 30.3064 43.1328 30.1482C43.1094 29.8787 43.1152 29.8611 43.4492 29.5095C43.8242 29.1111 43.8125 29.1463 43.7363 28.947C43.6836 28.8181 43.7246 28.7478 44.0527 28.3611L44.4277 27.9216L44.3457 27.658C44.2637 27.3826 44.0996 27.031 44.0527 27.031C44.0293 27.031 43.543 27.7341 43.4141 27.9509C43.3145 28.1209 43.4375 28.0037 43.7012 27.6756C43.9941 27.3064 44.0938 27.2537 43.9473 27.5408C43.8477 27.7224 43.4961 28.0681 43.2441 28.2263C43.0859 28.3259 43.0742 28.3259 43.0039 28.2263C42.9395 28.1384 42.957 28.0857 43.1211 27.8631C43.2324 27.7224 43.3027 27.5818 43.2852 27.5525C43.2676 27.5174 43.2149 27.3064 43.1738 27.072C43.1328 26.8377 43.0801 26.6091 43.0625 26.5564C43.0156 26.4451 43.3438 25.947 43.7715 25.4783C44.0059 25.2263 44.1055 25.156 44.1934 25.1853C44.2578 25.2029 44.8379 25.3084 45.4824 25.4138C46.1328 25.5193 46.7012 25.6424 46.7481 25.6834C46.8828 25.7947 47.375 26.7263 47.5156 27.1482L47.6445 27.5291L47.8672 27.5232C47.9961 27.5174 48.2129 27.4763 48.3477 27.4353C48.582 27.365 48.6113 27.365 48.6816 27.4588C48.7227 27.5115 48.7695 27.6814 48.793 27.822C48.8399 28.1912 49.1914 28.9295 49.3731 29.0525C49.4551 29.1052 49.6953 29.1756 49.9121 29.2107L50.3106 29.2752L50.5566 29.6619C50.9609 30.2947 51.0195 30.4236 50.9434 30.5877C50.8613 30.7693 50.8613 30.7634 50.9961 30.7986C51.0606 30.8162 51.1426 30.8982 51.1836 30.9861C51.2481 31.1267 51.2422 31.156 51.1426 31.2322C51.0254 31.3142 51.0313 31.3201 51.1836 31.4314C51.2891 31.5076 51.3711 31.6541 51.4356 31.865C51.5234 32.1697 51.5234 32.1873 51.3828 32.5037L51.2363 32.8318L51.4473 33.1306C51.752 33.5818 51.834 33.7986 51.7285 33.8865C51.6055 33.9861 51.6172 34.033 51.8164 34.3318C51.9688 34.5486 52.0391 34.5955 52.2441 34.6306C52.4024 34.6541 52.543 34.7244 52.6484 34.8357C52.7305 34.9236 52.8184 34.9998 52.8359 34.9998C52.8535 34.9998 53.0645 34.8533 53.2988 34.6775C53.6094 34.4431 53.7852 34.2498 53.9668 33.9627C54.2012 33.5759 54.207 33.5525 54.1543 33.2713C54.1191 33.1072 54.1133 32.9021 54.125 32.8142C54.1543 32.6619 54.0899 32.281 53.9199 31.6482C53.8789 31.4959 53.8848 31.3904 53.9258 31.3025C54.0195 31.1326 53.9024 30.9744 53.4277 30.6228C53.1113 30.3884 53.0469 30.3181 53.0762 30.2127C53.0996 30.1013 53.0762 30.072 52.918 30.031L52.7246 29.9783L52.8887 29.9314C53.0762 29.8787 53.0762 29.8787 52.9356 29.6795C52.8242 29.5154 52.5899 28.9881 52.4024 28.4549L52.2969 28.156L52.4492 28.115C52.6191 28.074 52.9883 27.7517 52.9883 27.6463C52.9883 27.5174 52.3965 27.031 52.2441 27.031C52.2031 27.031 52.0684 27.1189 51.9512 27.2244C51.8281 27.3299 51.5469 27.5174 51.3184 27.6404C51.0957 27.7634 50.8027 27.9451 50.6738 28.0447C50.4512 28.2146 50.4512 28.2088 50.7324 27.9158C50.8965 27.7459 51.2422 27.4646 51.5059 27.283C52.0039 26.9549 52.1563 26.8142 51.957 26.8787C51.8926 26.8963 51.6524 26.9607 51.4121 27.0252C50.9961 27.1424 50.9844 27.1424 51.084 27.0369C51.1367 26.9724 51.3652 26.8259 51.5879 26.7088C52.0215 26.4802 52.0391 26.4451 51.9102 26.0759C51.7754 25.7009 51.6641 25.6189 51.3477 25.6599L51.0723 25.6951L51.0313 25.4431C51.0078 25.3025 50.9316 25.1091 50.8555 25.0095C50.7793 24.9158 50.6504 24.699 50.5625 24.5291C50.3867 24.1716 50.0996 23.8318 49.9414 23.7791C49.7774 23.7263 49.5195 23.8845 49.0625 24.3064C48.7051 24.6287 48.2891 24.8689 48.207 24.7927C48.1953 24.7752 48.3008 24.6756 48.4473 24.5701C48.5938 24.4646 48.7754 24.2771 48.8516 24.1658C49.0215 23.9197 49.168 23.3631 49.0859 23.281C49.0274 23.2224 48.4649 23.492 47.7559 23.9314C47.4981 24.0896 47.2813 24.2127 47.2695 24.2009C47.2578 24.1892 47.5039 24.0076 47.8203 23.7966C48.1309 23.5799 48.4531 23.3396 48.5352 23.2517C48.6758 23.0935 48.6816 23.0877 48.5645 23.0232C48.5 22.9881 48.2891 22.8123 48.0957 22.6306C47.9024 22.4549 47.6387 22.2439 47.5098 22.1677C47.1641 21.9685 46.8594 21.658 46.5723 21.2302C46.3203 20.8435 45.9395 20.4509 45.5352 20.1521L45.3125 19.9939V20.3923C45.3125 21.3064 44.9492 22.0857 43.7305 23.8084C43.4902 24.1482 43.1797 24.5642 43.0391 24.74C42.8984 24.9158 42.6641 25.2381 42.5176 25.4607C42.3711 25.6775 42.2422 25.8591 42.2305 25.8591C42.1543 25.8591 42.8223 24.617 43.1152 24.2185C43.4258 23.7966 43.3731 23.8318 42.6348 24.5349C42.4004 24.7634 42.0137 25.0857 41.7793 25.2615C41.1406 25.7361 39.957 26.533 40.0039 26.4509C40.0274 26.4099 40.4024 26.117 40.8359 25.7947C41.5625 25.2498 41.8086 25.0095 42.4004 24.242C42.5645 24.031 42.4766 24.072 42.2305 24.3181C42.1074 24.4412 42.0723 24.4705 42.1484 24.3767C42.2246 24.2888 42.2656 24.2185 42.2422 24.2185C42.1543 24.2185 41.8086 24.4236 41.4922 24.6697C41.3047 24.8103 41.1524 24.9158 41.1524 24.9041C41.1524 24.8924 41.4102 24.658 41.7266 24.3884C42.9512 23.3396 43.7832 22.408 43.9356 21.9334C43.9649 21.8513 44.0293 21.4177 44.0879 20.9666L44.1875 20.1463L44.1934 21.0545C44.1992 21.8982 44.1875 21.9861 44.0586 22.2673C43.918 22.572 43.4082 23.3572 43.1797 23.6326C43.1152 23.7146 43.2383 23.6091 43.4551 23.3982C43.9356 22.9412 44.0234 22.8064 44.2285 22.197C44.3164 21.9451 44.4512 21.6052 44.5332 21.4529C44.709 21.1131 44.6914 20.9841 44.3691 20.322L44.1406 19.8591L44.5684 20.281L44.9902 20.7029L45.125 20.3631C45.1953 20.1756 45.2539 20.0056 45.2539 19.9822C45.2539 19.9177 44.4395 19.4138 44.1992 19.3259C44.0879 19.2849 43.6426 19.2088 43.2207 19.1502L42.4473 19.0447L42.3594 18.7459C42.2656 18.4295 42.0488 18.1834 41.6797 17.9666C41.4277 17.8142 40.332 17.4041 40.291 17.4451C40.2734 17.4568 40.291 17.615 40.332 17.7849C40.4141 18.1775 40.4727 19.6365 40.3906 19.3845C40.3613 19.2849 40.2559 18.7927 40.1563 18.283C39.8106 16.5134 39.2598 15.1892 38.5801 14.492C38.3047 14.2049 38.1289 14.0701 37.959 14.0291C37.6309 13.9353 36.8926 13.9002 36.5996 13.9646ZM38.5098 15.1599C38.8731 15.6111 39.2481 16.3963 39.5352 17.2752C39.8106 18.1365 39.8516 18.3299 39.8926 19.1209C39.9102 19.49 39.9395 19.8884 39.9512 19.9998C39.9746 20.1814 39.9688 20.1931 39.9043 20.0935C39.7637 19.8767 39.4941 19.5838 39.377 19.5193C39.2598 19.4607 39.2598 19.4724 39.2949 19.9412C39.3184 20.2107 39.3242 20.4158 39.3125 20.4041C39.2949 20.3923 39.207 20.0525 39.1074 19.6482C38.7852 18.365 38.6445 17.9724 38.3281 17.5213C38.2637 17.4334 38.2285 17.3631 38.2402 17.3631C38.2578 17.3631 38.3984 17.5388 38.5508 17.7556C38.9316 18.2947 39.7461 19.3142 39.7461 19.2556C39.7461 19.2322 39.6641 18.9158 39.5703 18.5525C39.4766 18.1951 39.4121 17.8494 39.4297 17.7908C39.459 17.7029 39.4531 17.697 39.3945 17.7732C39.3418 17.8435 39.3301 17.8318 39.3594 17.7088C39.377 17.615 39.3301 17.3806 39.2422 17.1228C39.1543 16.8826 39.0899 16.6365 39.0957 16.572C39.1016 16.4256 38.6504 15.4998 38.3809 15.0896C38.2637 14.9256 38.1816 14.7849 38.1934 14.7849C38.2051 14.7849 38.3457 14.9549 38.5098 15.1599ZM30.0664 17.6853C29.9492 17.7322 29.7207 17.7791 29.5684 17.7966L29.2871 17.8259L29.5215 17.7674C29.6504 17.7381 29.8379 17.6853 29.9316 17.6619C30.2129 17.5799 30.3066 17.5974 30.0664 17.6853ZM32.3164 17.9314C32.4277 18.0545 32.6563 18.5056 32.6563 18.5935C32.6563 18.6873 32.4981 18.6638 32.1992 18.5173C32.0469 18.4412 31.7481 18.3299 31.5313 18.2771C31.3086 18.2185 31.1328 18.1541 31.1328 18.1306C31.1328 18.0662 31.8359 17.8435 32.0469 17.8377C32.1524 17.8318 32.2637 17.8728 32.3164 17.9314ZM37.4785 19.1443C38.0293 19.6013 38.252 19.7361 38.0352 19.49C37.9883 19.4314 37.9238 19.3435 37.9004 19.2966C37.8535 19.2205 37.8594 19.2205 37.9531 19.2908C38.0117 19.3377 38.2285 19.6423 38.4395 19.9646C38.6504 20.2927 38.9258 20.7088 39.0547 20.8904C39.1777 21.0779 39.3477 21.365 39.4238 21.5349C39.5586 21.8338 39.5586 21.8572 39.4766 22.1677C39.4297 22.3435 39.3945 22.5427 39.3887 22.6072C39.3887 22.6716 39.3301 22.5252 39.2539 22.2849C39.0664 21.6697 38.7149 20.7791 38.5332 20.4685C38.4453 20.322 38.0176 19.8591 37.584 19.4314C37.1445 19.0037 36.8106 18.6521 36.834 18.6521C36.8574 18.6521 37.1504 18.8748 37.4785 19.1443ZM35.5977 18.9802C35.7324 19.0506 35.7559 19.0916 35.709 19.1384C35.6328 19.2146 35.3516 19.0916 35.3047 18.9568C35.2754 18.8631 35.3809 18.8689 35.5977 18.9802ZM42.8457 20.2341C42.875 20.2341 42.9805 20.1345 43.0801 20.0173L43.2617 19.7947V20.0408C43.2617 20.6033 42.3535 21.9216 41.2344 22.9822C40.502 23.6736 40.1797 23.908 40.6074 23.4392C40.7774 23.2517 41 22.9412 41.1055 22.742C41.2168 22.5252 41.4102 22.2908 41.5859 22.1443C42.2481 21.5994 42.3008 21.5232 42.3418 21.1306C42.3652 20.9314 42.4238 20.6619 42.4766 20.5271C42.541 20.3631 42.5645 20.1814 42.5469 19.9588L42.5176 19.6248L42.6524 19.9295C42.7285 20.0994 42.8106 20.2341 42.8457 20.2341ZM29.1055 20.0408C29.0176 20.2869 28.9941 20.99 29.082 20.7908C29.1172 20.7088 29.1289 20.7908 29.1289 21.0545C29.1289 21.3591 29.1172 21.4002 29.0762 21.2595C29.041 21.1189 29.0352 21.1541 29.0469 21.406C29.0527 21.5818 29.082 21.781 29.1113 21.8455C29.1348 21.9099 29.0762 21.8631 28.9766 21.7341C28.6777 21.3709 28.6016 20.9666 28.7539 20.5388C28.8242 20.3396 29.1231 19.824 29.1699 19.824C29.1816 19.824 29.1524 19.9236 29.1055 20.0408ZM31.168 20.8787C31.291 20.99 31.4785 21.1423 31.5723 21.2185C31.7422 21.3474 31.7422 21.3533 31.6016 21.3123C31.5195 21.2888 31.332 21.2127 31.1797 21.1365C31.0215 21.0545 30.8984 21.0017 30.8984 21.0193C30.8984 21.031 31.0449 21.1423 31.2207 21.2595C31.3965 21.3826 31.543 21.4939 31.543 21.5056C31.543 21.5525 30.957 21.2068 30.8633 21.1072C30.7344 20.9666 30.6113 20.5974 30.6055 20.3572V20.1521L30.7695 20.4158C30.8633 20.5564 31.0391 20.7673 31.168 20.8787ZM26.6152 20.7732C26.6035 21.0603 26.6035 21.072 26.5625 20.8787C26.5391 20.7556 26.5156 20.7205 26.5098 20.7908C26.4981 20.867 26.4863 20.8787 26.4629 20.8318C26.4336 20.7615 26.5508 20.4685 26.6035 20.4685C26.6152 20.4685 26.6152 20.6091 26.6152 20.7732ZM29.8965 21.1834C29.9785 21.4002 29.9258 21.3943 29.8145 21.1716C29.7676 21.0779 29.7324 20.8728 29.7324 20.7205L29.7383 20.4392L29.7852 20.7322C29.8086 20.8904 29.8613 21.0955 29.8965 21.1834ZM41.8262 20.8142C41.709 21.6638 40.6895 22.9646 39.7344 23.4861C39.5 23.615 37.2266 24.4002 37.1856 24.3709C37.1738 24.3591 38.8145 23.5857 39.4766 23.2869C39.6992 23.1873 40.0508 22.9588 40.25 22.783C40.8184 22.2791 41.5566 21.242 41.7383 20.6853C41.832 20.3865 41.8789 20.4509 41.8262 20.8142ZM30.7637 21.9861C31.0508 22.2498 31.0684 22.2849 30.8984 22.1912C30.7871 22.1326 30.5586 21.9451 30.3945 21.7869C30.1133 21.5056 30.0781 21.447 29.8555 20.7615C29.8438 20.7146 29.9609 20.8963 30.1309 21.1716C30.2949 21.447 30.5762 21.8103 30.7637 21.9861ZM28.1445 20.99C28.1152 21.0955 28.1094 21.2244 28.1211 21.2771C28.1504 21.365 28.1445 21.365 28.0918 21.2888C28.0098 21.1716 28.0098 21.0193 28.0977 20.8787C28.1973 20.7263 28.209 20.7615 28.1445 20.99ZM45.7285 22.0213C45.793 22.3435 45.7871 22.4197 45.6465 22.9295C45.5645 23.2341 45.4649 23.5623 45.4238 23.6619L45.3477 23.8377L45.3242 23.6736C45.3125 23.5857 45.3477 23.3279 45.3945 23.1052C45.4473 22.8709 45.4883 22.408 45.4941 22.0095C45.5 21.3826 45.5059 21.3357 45.5762 21.4939C45.6172 21.5935 45.6875 21.8338 45.7285 22.0213ZM46.3672 21.9451C46.5723 22.3728 46.5899 22.6775 46.4316 23.0232C46.3027 23.3103 46.1563 23.4334 46.209 23.2166C46.3262 22.7127 46.3086 22.0623 46.1621 21.6814C46.1387 21.6287 46.1387 21.5818 46.1563 21.5818C46.1797 21.5818 46.2734 21.7459 46.3672 21.9451ZM43.584 22.0447C43.4609 22.2966 43.4141 22.2732 43.5371 22.0213C43.5899 21.9099 43.6426 21.8279 43.6602 21.8396C43.6719 21.8513 43.6367 21.9451 43.584 22.0447ZM46.0449 23.158C46.0215 23.2576 45.9863 23.3513 45.9629 23.3689C45.9336 23.3806 45.9453 23.2927 45.9746 23.1638C46.0508 22.8943 46.1035 22.8943 46.0449 23.158ZM44.0879 23.6736C44.0586 23.7322 43.9883 23.8318 43.9356 23.8963C43.8418 24.0076 43.8359 24.0076 43.918 23.867C44.0703 23.5974 44.0879 23.574 44.1172 23.574C44.1348 23.574 44.1172 23.6209 44.0879 23.6736ZM29.0938 23.9666C29.3223 24.1189 29.3809 24.1306 29.8672 24.1189C30.3828 24.1013 30.3945 24.1072 30.834 24.3533C31.0801 24.4881 31.3555 24.6345 31.4492 24.6873C31.6953 24.8162 32.3047 25.9998 32.3047 26.3513C32.3047 26.5388 32.3516 26.6677 32.4863 26.8552C32.5918 26.9959 32.75 27.2771 32.8438 27.4822C32.9902 27.7927 33.0137 27.8924 32.9727 28.074C32.9492 28.1912 32.9316 28.3494 32.9375 28.4197C32.9551 28.5427 32.9082 28.531 32.1758 28.2263C30.6758 27.5994 30.4297 27.4998 30.3301 27.4998C30.2715 27.4998 30.4414 27.617 30.7109 27.7634C31.2852 28.0681 32.4043 28.7888 32.5684 28.9529C32.6328 29.0174 32.7324 29.1521 32.7852 29.2459L32.8906 29.4216L32.2871 29.4978C31.0039 29.6619 30.7871 29.5799 29.832 28.5369C29.252 27.9099 28.9473 27.4588 28.8184 27.0427C28.7774 26.908 28.7774 26.908 28.9766 27.0017L29.1699 27.0955L29.0234 26.9724C28.9414 26.9021 28.6777 26.697 28.4375 26.5154C28.0449 26.2166 26.8672 25.2966 26.7969 25.2322C26.7852 25.2205 26.832 25.197 26.9024 25.1736C27.0488 25.1384 27.0547 25.1033 27.0313 24.5818L27.0195 24.2185H27.2422C27.3652 24.2185 27.5469 24.2478 27.6524 24.2888C27.8106 24.3416 27.8867 24.3357 28.1152 24.2478C28.2676 24.1892 28.4785 24.072 28.5781 23.9783C28.6777 23.8845 28.7774 23.8084 28.8066 23.8084C28.8301 23.8084 28.959 23.8787 29.0938 23.9666ZM48.8867 24.6931C48.6348 24.8924 48.4941 24.9451 48.7109 24.7576C48.8223 24.658 48.9453 24.5759 48.9746 24.5759C49.0098 24.5759 48.9688 24.6228 48.8867 24.6931ZM50.1758 25.0623C50.1231 25.2966 49.9297 25.6306 49.7774 25.7478C49.6836 25.824 49.6836 25.824 49.7774 25.7127C49.9531 25.5017 50.1172 25.074 50.1231 24.8045C50.1289 24.5759 50.1348 24.5584 50.1758 24.699C50.1992 24.7869 50.2051 24.9509 50.1758 25.0623ZM27.0781 25.7302C27.4238 26.0174 27.8281 26.4158 27.9688 26.615C28.332 27.1131 28.6777 27.6873 28.6367 27.7283C28.6191 27.7459 28.4258 27.5759 28.2149 27.3533C27.8926 27.0134 27.8516 26.9841 27.9688 27.1775C28.0449 27.3064 28.2852 27.6463 28.502 27.9392C28.7188 28.2263 28.877 28.4724 28.8477 28.4841C28.8242 28.4959 28.4785 28.3963 28.0801 28.2674C27.6816 28.1443 27.1602 27.9802 26.9199 27.9099C26.6856 27.8396 26.3399 27.7166 26.1582 27.6404C25.9766 27.5584 25.7363 27.4822 25.625 27.4646L25.4199 27.4412L25.7715 27.7634C26.082 28.0447 26.1055 28.0799 25.9824 28.0857C25.9004 28.0857 25.6895 28.0447 25.5137 27.9978C25.332 27.9509 25.0625 27.8982 24.916 27.8806C24.7578 27.8631 24.459 27.74 24.1602 27.5701C23.7031 27.3123 23.6797 27.2947 23.8555 27.2771C24.1191 27.2478 24.4649 26.8611 24.418 26.6326C24.3652 26.3806 24.834 25.7244 25.3145 25.367C25.5488 25.197 25.6016 25.1853 26.0117 25.1912L26.4512 25.2029L27.0781 25.7302ZM24.8633 28.3963C25.5547 28.8357 26.4981 29.4978 26.8789 29.8084C27.1426 30.0252 27.4414 30.4998 27.4414 30.7048C27.4414 30.9334 26.3867 30.6052 24.9863 29.9373C24.3535 29.6326 23.6914 29.3279 23.5156 29.2576C23.3399 29.1814 23.1699 29.0994 23.1406 29.0759C23.1113 29.0525 23.1992 28.824 23.3399 28.572C23.5391 28.2029 23.5801 28.074 23.5566 27.8982C23.5391 27.781 23.5391 27.6697 23.5566 27.6521C23.5859 27.6228 24.0547 27.8865 24.8633 28.3963ZM20.3399 29.6619C20.6035 29.8318 20.8203 29.9841 20.8203 29.9959C20.8203 30.0662 19.9531 29.5037 19.7363 29.2986C19.6602 29.2224 19.7481 29.2752 20.3399 29.6619ZM52.3438 30.4353C52.1914 30.5349 51.6875 30.7869 51.6699 30.7693C51.6641 30.7576 51.6348 30.6931 51.6172 30.6228C51.582 30.5115 51.5996 30.4881 51.7402 30.4529C51.8281 30.4353 51.9336 30.4119 51.9629 30.4002C51.9981 30.3884 52.1152 30.3767 52.2266 30.3767C52.3848 30.3709 52.4141 30.3884 52.3438 30.4353ZM37.4141 30.7283C37.8594 30.7986 38.2109 30.8748 38.1934 30.8865C38.1816 30.8982 37.8125 30.8689 37.3672 30.8103C36.9277 30.7576 36.4883 30.7283 36.3945 30.7459C36.2949 30.7634 35.9785 30.8865 35.6914 31.0154C35.0996 31.2791 35.1172 31.2732 35.1172 31.1912C35.1172 31.0857 36.3008 30.5349 36.4649 30.5701C36.5469 30.5818 36.9746 30.658 37.4141 30.7283ZM41.2109 30.7869C40.877 30.9392 40.2207 31.115 39.8047 31.1619C39.3535 31.2205 39.459 31.1502 39.9395 31.074C40.1621 31.0388 40.5664 30.9334 40.8477 30.8455C41.4453 30.6463 41.5801 30.6287 41.2109 30.7869ZM38.3047 31.7185C38.2402 32.2693 38.1992 31.9705 38.2578 31.3728C38.293 31.0037 38.3106 30.9334 38.3281 31.1033C38.3399 31.2322 38.3281 31.5076 38.3047 31.7185ZM39.084 31.3494C39.0723 31.4431 39.0606 31.3787 39.0606 31.2205C39.0606 31.0564 39.0723 30.9861 39.084 31.0564C39.0957 31.1326 39.0957 31.2615 39.084 31.3494ZM41.9375 31.1384C41.9024 31.2029 41.5508 31.367 41.4629 31.367C41.4219 31.3611 41.9082 31.0857 41.9609 31.074C41.9727 31.074 41.9609 31.1033 41.9375 31.1384ZM18.5176 31.4021C18.5 31.4197 18.4473 31.4256 18.4063 31.408C18.3594 31.3904 18.377 31.3728 18.4414 31.3728C18.5059 31.367 18.541 31.3845 18.5176 31.4021ZM18.7402 31.4256C18.7578 31.4548 18.7344 31.4841 18.6816 31.4841C18.6289 31.4841 18.6055 31.4548 18.6231 31.4256C18.6406 31.3904 18.6699 31.367 18.6816 31.367C18.6934 31.367 18.7227 31.3904 18.7402 31.4256ZM39.1602 31.8064C39.1602 31.8884 39.1367 31.9529 39.1074 31.9529C39.084 31.9529 39.0723 31.8884 39.0899 31.8064C39.1016 31.7244 39.125 31.6599 39.1367 31.6599C39.1484 31.6599 39.1602 31.7244 39.1602 31.8064ZM42.3594 31.947C42.582 32.0408 42.8809 32.1463 43.0274 32.1873C43.1738 32.2283 43.3965 32.3103 43.5254 32.3748C43.8008 32.5154 44.8555 33.1892 44.832 33.2127C44.8086 33.2302 43.3203 32.7498 42.6465 32.5095C42.1719 32.3396 42.0313 32.3162 41.2754 32.2869C40.127 32.2459 40.0274 32.1345 41.1289 32.117C41.5742 32.117 42.0078 32.1111 42.0899 32.117C42.3184 32.1287 41.8262 31.906 41.5215 31.8591C41.375 31.8357 41.2871 31.8006 41.3047 31.7654C41.3691 31.6658 41.9258 31.7654 42.3594 31.947ZM40.3965 32.7791C40.666 32.8142 40.9238 32.867 40.9649 32.8904C41.0352 32.9256 40.4844 32.9841 39.1016 33.0955C38.9258 33.1072 38.6856 33.1365 38.5742 33.1541C38.416 33.1775 38.3984 33.1716 38.4863 33.1306C38.709 33.0252 38.4395 33.0662 37.707 33.242C37.3086 33.3357 36.9688 33.4177 36.9453 33.4177C36.875 33.4119 37.7305 33.0252 38.0293 32.9256C38.6738 32.7088 39.4941 32.6619 40.3965 32.7791ZM41.7969 33.2713C41.7969 33.2888 41.5274 33.4822 41.1934 33.699C40.6074 34.0857 40.4902 34.1384 39.3652 34.4666C39.1367 34.531 38.6211 34.7478 38.2227 34.9412C37.8184 35.1345 37.543 35.2517 37.6074 35.199C37.8184 35.0291 38.709 34.6072 39.5703 34.2673C40.0391 34.0798 40.7246 33.7752 41.0938 33.5877C41.8438 33.2127 41.7969 33.2302 41.7969 33.2713ZM44.791 35.7791C45.1426 36.617 45.418 37.3142 45.4063 37.3259C45.3828 37.3494 45.3594 37.2908 44.5859 35.4509C44.2754 34.7127 44.0234 34.0916 44.0234 34.074C44.0293 33.9802 44.1934 34.3435 44.791 35.7791ZM19.8477 34.9529C19.8301 34.9763 19.7832 34.9822 19.7363 34.9588C19.6133 34.9177 19.625 34.8884 19.7598 34.9002C19.8242 34.9002 19.8652 34.9295 19.8477 34.9529ZM36.8457 34.9763C36.4238 35.3045 33.2422 36.7166 33.1484 36.6228C33.1309 36.6111 33.2363 36.5525 33.3711 36.4998C33.5117 36.447 34.3613 36.0662 35.2637 35.6502C36.166 35.2341 36.916 34.8884 36.9336 34.8884C36.9512 34.8884 36.9102 34.9295 36.8457 34.9763ZM20.2637 35.0525C20.2813 35.0818 20.2754 35.1228 20.2461 35.1404C20.2168 35.158 20.1934 35.1345 20.1934 35.0877C20.1934 34.9881 20.2109 34.9763 20.2637 35.0525ZM39.4238 35.4568C39.084 35.6619 38.3047 35.99 37.666 36.1951C36.3301 36.617 36.4238 36.5525 38.1406 35.8845C39.5352 35.3396 39.7168 35.281 39.4238 35.4568ZM42.8633 36.6697C42.9922 36.9275 43.127 37.1795 43.168 37.2322C43.2031 37.2791 43.1328 37.2205 43.0156 37.0916C42.8984 36.9685 42.7402 36.7166 42.6758 36.5349C42.6055 36.3533 42.5117 36.1365 42.4649 36.0545L42.377 35.908L42.5059 36.0545C42.5703 36.1365 42.7344 36.4119 42.8633 36.6697ZM45.5996 37.7244C45.5996 37.7537 45.5645 37.7185 45.5176 37.6365C45.4707 37.5545 45.4356 37.4607 45.4356 37.4314C45.4356 37.3963 45.4707 37.4373 45.5176 37.5193C45.5645 37.6013 45.5996 37.6892 45.5996 37.7244ZM46.4199 38.3572C46.3027 38.4509 45.6055 38.7966 45.6055 38.7615C45.6055 38.7146 46.291 38.3513 46.3906 38.3455C46.4199 38.3396 46.4316 38.3455 46.4199 38.3572ZM42.043 40.0974C42.3125 40.0974 42.5938 40.2498 42.9395 40.572C43.1152 40.742 43.2617 40.9002 43.2617 40.9236C43.2617 41.0056 42.6641 40.8006 42.2949 40.5955C42.1016 40.49 41.7266 40.2439 41.4688 40.0564C41.2051 39.8689 40.9414 39.6814 40.8828 39.6463C40.8184 39.6052 41.0176 39.6931 41.3223 39.8338C41.627 39.9802 41.9492 40.0974 42.043 40.0974ZM51.6992 51.7224C51.6992 51.7341 51.6582 51.7634 51.6055 51.781C51.5586 51.7986 51.5352 51.7927 51.5527 51.7576C51.5879 51.699 51.6992 51.6756 51.6992 51.7224ZM47.2695 52.3494C47.252 52.3787 47.2109 52.3904 47.1816 52.367C47.1524 52.3494 47.1406 52.3084 47.1641 52.2791C47.1816 52.2498 47.2227 52.2381 47.252 52.2615C47.2813 52.2791 47.293 52.3201 47.2695 52.3494ZM46.9649 52.4256C46.9356 52.531 46.9238 52.5369 46.9063 52.4431C46.8945 52.3904 46.8594 52.3552 46.8301 52.3787C46.8008 52.3963 46.7891 52.4373 46.8066 52.4666C46.8301 52.4959 46.8008 52.5193 46.7539 52.5193C46.707 52.5193 46.6484 52.49 46.625 52.449C46.6016 52.4138 46.6074 52.4021 46.6426 52.4197C46.6777 52.4431 46.7363 52.4256 46.7715 52.3845C46.8711 52.2556 47 52.2849 46.9649 52.4256ZM47.5391 52.4314C47.5391 52.4724 47.3633 52.5076 47.3399 52.4724C47.3223 52.449 47.3633 52.4197 47.4277 52.4197C47.4863 52.4138 47.5391 52.4197 47.5391 52.4314ZM47.3047 53.1052C47.3047 53.1463 47.0176 53.2224 46.8594 53.2224C46.8125 53.2224 46.7774 53.1814 46.7774 53.1345C46.7774 53.0759 46.8477 53.0525 47.041 53.0584C47.1875 53.0584 47.3047 53.0818 47.3047 53.1052Z" fill="white"/>
<path d="M42.9687 32.3105C43.0801 32.3867 43.6719 32.6562 43.7246 32.6562C43.7773 32.6504 43.0097 32.252 42.9394 32.252C42.9101 32.2461 42.9219 32.2754 42.9687 32.3105Z" fill="white"/>
<path d="M28.9824 18.3418C29.0703 18.3535 29.1992 18.3535 29.2754 18.3418C29.3457 18.3301 29.2754 18.3184 29.1113 18.3184C28.9531 18.3184 28.8887 18.3301 28.9824 18.3418Z" fill="white"/>
<path d="M44.0938 21.5235C44.0938 21.6348 44.1055 21.6817 44.123 21.6231C44.1348 21.5703 44.1348 21.4766 44.123 21.418C44.1055 21.3653 44.0938 21.4121 44.0938 21.5235Z" fill="white"/>
<path d="M9.57617 22.5196C9.78711 22.8302 10.4492 23.6857 10.5078 23.7208C10.7891 23.8966 10.1035 22.9708 9.55273 22.4318C9.45898 22.3321 9.45898 22.3497 9.57617 22.5196ZM10.4785 23.5743C10.5371 23.6388 10.5723 23.6915 10.5547 23.6915C10.5371 23.6915 10.4785 23.6388 10.4199 23.5743C10.3613 23.5099 10.3262 23.4571 10.3438 23.4571C10.3613 23.4571 10.4199 23.5099 10.4785 23.5743Z" fill="white"/>
<path d="M18.5938 23.8262C18.5938 23.9961 18.8223 24.2188 18.9922 24.2188C19.0977 24.2188 19.1211 24.1836 19.1211 24.0371C19.1211 23.8906 19.0859 23.8496 18.916 23.7734C18.6406 23.6621 18.5938 23.668 18.5938 23.8262Z" fill="white"/>
<path d="M16.6602 25.824C16.6602 25.8357 16.707 25.8826 16.7656 25.9236C16.8535 25.9998 16.8594 25.9939 16.7832 25.9002C16.707 25.8064 16.6602 25.7771 16.6602 25.824Z" fill="white"/>
<path d="M17.0703 26.1756C17.0703 26.1873 17.1172 26.2341 17.1758 26.2752C17.2637 26.3513 17.2695 26.3455 17.1934 26.2517C17.1172 26.158 17.0703 26.1287 17.0703 26.1756Z" fill="white"/>
<path d="M17.539 26.3867C17.5859 26.416 17.6562 26.4453 17.6855 26.4453C17.7207 26.4453 17.7031 26.416 17.6562 26.3867C17.6094 26.3574 17.5449 26.3281 17.5097 26.3281C17.4804 26.3281 17.4922 26.3574 17.539 26.3867Z" fill="white"/>
<path d="M17.832 26.5625C17.832 26.5918 17.8613 26.6211 17.8965 26.6211C17.9258 26.6211 17.9375 26.5918 17.9199 26.5625C17.9023 26.5273 17.873 26.5039 17.8555 26.5039C17.8438 26.5039 17.832 26.5273 17.832 26.5625Z" fill="white"/>
<path d="M51.2304 26.9727C51.1836 27.002 51.1719 27.0312 51.2012 27.0312C51.2363 27.0312 51.3008 27.002 51.3476 26.9727C51.3945 26.9434 51.4121 26.9141 51.3769 26.9141C51.3476 26.9141 51.2773 26.9434 51.2304 26.9727Z" fill="white"/>
<path d="M12.7637 27.465C12.6641 27.5353 12.6641 27.5411 12.7813 27.5294C12.9336 27.5177 12.9981 27.465 12.9219 27.4181C12.8926 27.4005 12.8223 27.424 12.7637 27.465Z" fill="white"/>
<path d="M20.2109 27.5819C20.2285 27.6288 20.2871 27.6815 20.3399 27.705C20.416 27.7343 20.416 27.7167 20.3223 27.6171C20.1992 27.4764 20.1699 27.4706 20.2109 27.5819Z" fill="white"/>
<path d="M13.1152 27.7812C13.2148 27.8515 13.2148 27.9862 13.1152 27.9452C13.0625 27.9277 13.039 27.9335 13.0566 27.9687C13.0976 28.039 13.2383 28.0448 13.2793 27.9804C13.291 27.957 13.2968 27.9687 13.2851 28.0038C13.2793 28.039 13.3027 28.1093 13.3379 28.1503C13.3965 28.2148 13.3906 28.2148 13.3086 28.1503C13.2148 28.08 13.2031 28.0917 13.2207 28.2441C13.2265 28.3788 13.3203 28.4902 13.584 28.7128C13.7773 28.8769 14 29.0761 14.0761 29.164C14.2461 29.3456 14.2988 29.3515 14.4804 29.2109C14.6152 29.1054 14.6152 29.0937 14.5273 28.8886C14.4746 28.7538 14.3808 28.6484 14.2871 28.6132C14.1992 28.578 14.0058 28.4667 13.8593 28.3671C13.707 28.2616 13.5605 28.1855 13.5254 28.1913C13.4961 28.203 13.4843 28.1913 13.5136 28.1679C13.5605 28.1152 13.2148 27.7343 13.1211 27.7343C13.0801 27.7343 13.0742 27.7519 13.1152 27.7812Z" fill="white"/>
<path d="M11.7969 30.0723C11.7969 30.1602 12.4355 30.7168 12.875 31.0098C13.1035 31.168 13.7422 31.5488 14.2871 31.8652C14.8379 32.1758 15.3125 32.4629 15.3535 32.4922C15.4062 32.5332 15.459 32.5215 15.5176 32.457C15.6348 32.3398 15.7051 32.334 15.6113 32.4453C15.5527 32.5156 15.5586 32.5215 15.6582 32.498C15.8164 32.457 15.8691 32.3047 15.7227 32.3047C15.6641 32.3047 15.5938 32.2754 15.5762 32.2461C15.5527 32.2109 15.5117 32.1992 15.4824 32.2168C15.4531 32.2402 15.4297 32.2227 15.4297 32.1875C15.4297 32.1523 15.4004 32.1406 15.3594 32.1641C15.3008 32.1992 15.3008 32.1875 15.3594 32.1172C15.418 32.041 15.418 32.0117 15.3652 31.9766C15.3184 31.9531 15.3125 31.959 15.3359 32C15.3652 32.0469 15.3301 32.0703 15.248 32.0703C15.1484 32.0703 15.1367 32.0527 15.1895 31.9883C15.2422 31.9238 15.1953 31.8711 14.9492 31.7129C14.1699 31.2266 13.4551 30.7285 13.1797 30.4824C12.916 30.248 12.6758 30.0781 12.5996 30.0781C12.5586 30.0781 12.5879 30.3359 12.6348 30.4121C12.7461 30.5879 12.4297 30.459 12.084 30.1895C11.8555 30.0078 11.7969 29.9844 11.7969 30.0723Z" fill="white"/>
<path d="M15.0195 30.1193C15.0195 30.1838 15.6758 30.5471 15.7344 30.5119C15.7754 30.4885 15.7812 30.4943 15.7578 30.5353C15.7227 30.5998 15.7578 30.6174 15.875 30.5998C15.8926 30.5998 15.9746 30.6408 16.0566 30.6935C16.1797 30.7756 16.2148 30.7814 16.2559 30.717C16.2969 30.6525 16.3086 30.6525 16.3086 30.7111C16.3086 30.7521 16.3379 30.7697 16.3672 30.7521C16.4023 30.7346 16.4258 30.7463 16.4258 30.7756C16.4258 30.8107 16.502 30.84 16.5957 30.84C16.6895 30.84 16.7773 30.8635 16.7891 30.8928C16.8008 30.9162 16.9121 30.9572 17.041 30.9807C17.1699 31.0041 17.252 31.0041 17.2285 30.9748C17.1992 30.9514 17.1582 30.9279 17.1406 30.9221C17.0059 30.9045 16.7246 30.7346 16.7598 30.6935C16.7891 30.6701 16.7715 30.6642 16.7305 30.6877C16.6836 30.717 16.6016 30.6877 16.5312 30.6232C16.4492 30.5529 16.4258 30.5471 16.4551 30.6057C16.4961 30.676 16.4902 30.6818 16.4199 30.6291C16.373 30.5881 16.25 30.5412 16.1504 30.5178C16.0449 30.5002 15.957 30.4533 15.957 30.424C15.957 30.3889 16.0039 30.3889 16.0684 30.4299C16.1328 30.4592 16.2207 30.4885 16.2617 30.4826C16.3027 30.4826 16.2676 30.4533 16.1738 30.4182C16.0859 30.3889 16.0332 30.3361 16.0508 30.3068C16.0684 30.2717 16.0273 30.2658 15.9395 30.2834C15.8574 30.3068 15.7754 30.2951 15.752 30.2599C15.7344 30.2248 15.6875 30.2072 15.6582 30.2248C15.6289 30.2482 15.6055 30.2365 15.6055 30.2072C15.6055 30.1779 15.5703 30.1545 15.5352 30.1486C15.1133 30.1076 15.0195 30.1017 15.0195 30.1193Z" fill="white"/>
<path d="M17.6446 30.7111C17.7793 30.7697 17.8731 30.8341 17.8496 30.8634C17.8262 30.8869 17.8321 30.8986 17.8613 30.8927C17.8965 30.881 17.9785 30.9044 18.0547 30.9455C18.2656 31.0626 18.2012 30.9865 17.9434 30.8048C17.8086 30.7169 17.6328 30.6349 17.5449 30.6232C17.4336 30.6115 17.4571 30.6349 17.6446 30.7111Z" fill="white"/>
<path d="M17.2695 31.0862C17.2461 31.1272 17.2461 31.1448 17.2754 31.1213C17.2988 31.0979 17.3633 31.1096 17.416 31.1506C17.498 31.2151 17.498 31.2092 17.4277 31.1155C17.334 30.9983 17.3223 30.9924 17.2695 31.0862Z" fill="white"/>
<path d="M11.0234 31.8009C10.9648 31.8419 10.918 31.8947 10.918 31.9064C10.918 31.9474 11.4922 32.381 11.6738 32.4806C11.791 32.5392 11.8203 32.5392 11.8672 32.4572C11.8965 32.4044 11.9961 32.3634 12.0898 32.3634C12.1895 32.3634 12.2656 32.3458 12.2656 32.3165C12.2598 32.2872 11.3398 31.8009 11.1582 31.7364C11.1406 31.7306 11.0762 31.7599 11.0234 31.8009Z" fill="white"/>
<path d="M15.8574 32.5098C15.8574 32.5508 15.9102 32.6036 15.9688 32.6153C16.0273 32.6329 16.0742 32.6211 16.0742 32.5918C16.0742 32.5625 16.0801 32.5215 16.0918 32.4981C16.0977 32.4805 16.0508 32.4571 15.9805 32.4454C15.9043 32.4336 15.8574 32.4571 15.8574 32.5098Z" fill="white"/>
<path d="M15.6641 32.6036C15.6641 32.6329 15.6934 32.6446 15.7227 32.627C15.7578 32.6094 15.7812 32.5801 15.7812 32.5625C15.7812 32.5508 15.7578 32.5391 15.7227 32.5391C15.6934 32.5391 15.6641 32.5684 15.6641 32.6036Z" fill="white"/>
<path d="M12.3242 34.0975C12.3242 34.1385 13.8242 34.8592 14.0234 34.9119C14.3105 34.9881 13.8066 34.701 13.0801 34.3787C12.3477 34.0506 12.3242 34.0389 12.3242 34.0975Z" fill="white"/>
<path d="M19.1504 37.9178C19.2559 38.0233 19.9649 38.3866 20.1465 38.4217C20.3164 38.4569 20.3164 38.4569 20.2051 38.3631C19.9942 38.1932 19.0098 37.7772 19.1504 37.9178Z" fill="white"/>
<path d="M18.3008 38.5683C18.5762 38.8144 18.6055 38.8671 18.5176 38.9023C18.459 38.9199 18.4238 38.9726 18.4414 39.0136C18.4824 39.1249 18.3242 39.166 18.1484 39.0956C17.914 39.0078 17.9199 39.0664 18.166 39.2363C18.4414 39.4179 19.9824 40.2734 20.0762 40.291C20.1172 40.2968 20.1758 40.3437 20.2168 40.3964C20.2578 40.4492 20.3574 40.4785 20.4687 40.4726C20.6094 40.4609 20.6387 40.4785 20.5859 40.5371C20.539 40.5898 20.5508 40.6191 20.6152 40.6484C20.668 40.666 20.6914 40.7128 20.668 40.748C20.6445 40.7949 20.6504 40.8007 20.6973 40.7773C20.7441 40.748 20.75 40.707 20.709 40.6601C20.668 40.6132 20.6797 40.5898 20.7617 40.5898C20.8203 40.5898 20.8555 40.6132 20.8437 40.6367C20.8262 40.6601 20.8555 40.6835 20.9082 40.6835C20.9609 40.6835 21.0723 40.7304 21.1543 40.7831C21.2422 40.8417 21.2949 40.8593 21.2773 40.8242C21.2539 40.789 21.2715 40.7597 21.3183 40.7597C21.3652 40.7597 21.3887 40.7831 21.3711 40.8124C21.3535 40.8359 21.3711 40.8593 21.4004 40.8593C21.4355 40.8593 21.4648 40.83 21.4648 40.8007C21.4648 40.7656 21.4941 40.7421 21.5293 40.7421C21.5586 40.7421 21.5703 40.7656 21.5527 40.8007C21.5293 40.8417 21.5644 40.8417 21.664 40.8007C21.8164 40.7421 21.916 40.8066 21.8457 40.9179C21.8281 40.9472 21.8398 40.9765 21.8691 40.9765C21.9805 40.9765 21.9394 40.8242 21.7988 40.6953C21.7109 40.6132 21.6172 40.5781 21.5234 40.6015C21.4062 40.6191 21.4004 40.6191 21.4883 40.5781C21.582 40.5371 21.5586 40.5019 21.2832 40.3027C21.1074 40.1796 20.9433 40.0566 20.914 40.0273C20.8437 39.9687 21.1308 40.0507 21.4297 40.1796C21.5527 40.2324 21.6758 40.2558 21.7051 40.2382C21.7344 40.2206 21.7519 40.2324 21.7461 40.2675C21.7344 40.3027 21.8398 40.3964 21.9746 40.4785C22.1562 40.5898 22.2148 40.6074 22.1914 40.5429C22.1738 40.4902 22.1387 40.4609 22.1152 40.4726C22.0976 40.4843 22.0273 40.4609 21.9629 40.414C21.9043 40.3671 21.8808 40.332 21.916 40.332C21.957 40.332 21.998 40.3554 22.0215 40.3847C22.0508 40.4433 22.1504 40.4374 22.373 40.3613C22.4551 40.3378 22.4433 40.3496 22.3437 40.414C22.2031 40.496 22.2031 40.5136 22.3379 40.5312C22.3672 40.5312 22.414 40.5546 22.4375 40.5781C22.4609 40.6074 22.5195 40.6249 22.5723 40.6249C22.625 40.6249 22.6426 40.6074 22.6074 40.5781C22.5781 40.5546 22.543 40.4843 22.5312 40.4199C22.5137 40.3203 22.5371 40.332 22.6601 40.4726C22.7539 40.5781 22.8125 40.6132 22.8125 40.5546C22.8125 40.5078 22.8476 40.4257 22.8887 40.3671C22.959 40.2734 22.9707 40.2675 23.0469 40.3613C23.0879 40.414 23.0996 40.4492 23.0703 40.4433C22.9648 40.4257 22.8711 40.4492 22.8711 40.5019C22.8711 40.5312 22.9355 40.5664 23.0176 40.5781C23.0937 40.5956 23.1465 40.5839 23.1289 40.5605C23.1113 40.5312 23.1699 40.5136 23.2519 40.5195C23.4043 40.5312 23.4394 40.6894 23.293 40.7187C23.2519 40.7246 23.2461 40.7187 23.2812 40.7011C23.3105 40.6894 23.3223 40.6484 23.3047 40.6132C23.2871 40.5839 23.2285 40.6132 23.1816 40.6777C23.1348 40.748 23.0703 40.7831 23.0351 40.7656C22.9941 40.7363 22.9883 40.7539 23.0176 40.8007C23.0527 40.8593 23.041 40.871 22.9707 40.8417C22.9062 40.8183 22.8711 40.8359 22.8711 40.8945C22.8711 40.9472 22.8418 40.9648 22.8008 40.9414C22.7598 40.9179 22.7539 40.9238 22.7773 40.9648C22.8008 40.9999 22.8594 41.0117 22.9121 40.9941C22.9824 40.9648 22.9941 40.9765 22.959 41.0351C22.9297 41.0878 22.9355 41.0996 22.9824 41.0703C23.0176 41.0468 23.0351 40.9999 23.0176 40.9706C22.9941 40.9414 23.0058 40.9179 23.0351 40.9179C23.1289 40.9179 23.164 40.9941 23.1055 41.0644C23.0644 41.1171 23.0762 41.164 23.1465 41.2167C23.2402 41.2929 23.2461 41.2871 23.1699 41.1933C23.0996 41.1054 23.1055 41.0937 23.1875 41.0937C23.2461 41.0937 23.2695 41.0644 23.2519 41.0351C23.2344 40.9999 23.2754 40.9472 23.3515 40.9179L23.4863 40.8593L23.3398 40.8769C23.2578 40.8828 23.1933 40.8593 23.1875 40.83C23.1816 40.7597 23.3984 40.789 23.4922 40.8652C23.5273 40.8945 23.5683 40.9003 23.5918 40.8828C23.6094 40.8652 23.6738 40.8769 23.7324 40.9121C23.7969 40.9472 23.8086 40.9765 23.7617 40.9765C23.7207 40.9765 23.6973 40.9999 23.7148 41.0292C23.7324 41.0527 23.6914 41.0761 23.6152 41.0703C23.5449 41.0703 23.4922 41.0937 23.498 41.1289C23.5039 41.1699 23.4687 41.1874 23.4043 41.1699C23.3398 41.1523 23.2988 41.1757 23.2988 41.2343C23.2988 41.3105 23.3164 41.3105 23.3926 41.2519C23.4629 41.1933 23.4746 41.1992 23.4394 41.2812C23.4219 41.3398 23.4277 41.3984 23.4629 41.416C23.4922 41.4394 23.5156 41.4335 23.5098 41.4042C23.4746 41.1992 23.668 41.1054 23.8789 41.2167C24.0019 41.2812 24.0078 41.2812 23.9316 41.1933C23.8789 41.123 23.873 41.0937 23.9199 41.0937C23.9609 41.0937 23.9726 41.0644 23.9492 41.0175C23.9199 40.9765 23.9492 40.9824 24.0137 41.0351C24.0723 41.082 24.1308 41.1171 24.1426 41.1054C24.1484 41.0996 24.1777 41.0937 24.207 41.0937C24.2305 41.0937 24.1719 41.164 24.0723 41.2519C23.9785 41.3339 23.9375 41.3867 23.9902 41.3691C24.043 41.3515 24.1191 41.3691 24.1601 41.4042C24.2187 41.457 24.2246 41.457 24.1953 41.3984C24.1719 41.3632 24.1836 41.3281 24.2129 41.3281C24.248 41.3281 24.2773 41.3574 24.2773 41.3867C24.2773 41.4277 24.3125 41.4277 24.3828 41.3984C24.5586 41.3046 24.8164 41.2578 24.7754 41.3281C24.7519 41.3632 24.8105 41.4042 24.916 41.4218C25.0156 41.4453 25.0976 41.4863 25.0976 41.5156C25.0976 41.5449 25.039 41.5507 24.9687 41.5331C24.8633 41.5039 24.8515 41.5097 24.9219 41.5566C24.9687 41.5917 25.0801 41.6035 25.168 41.5859C25.25 41.5683 25.3379 41.5859 25.3613 41.6152C25.3789 41.6503 25.4492 41.6796 25.5137 41.6796C25.5898 41.6796 25.625 41.7206 25.625 41.8027C25.625 41.9081 25.6015 41.9199 25.4668 41.8906C25.1738 41.8203 24.8926 41.7851 24.9219 41.8144C24.9512 41.8437 25.1738 41.8906 25.3613 41.9081C25.3965 41.914 25.3789 41.9374 25.332 41.9726C25.2734 42.0078 25.3086 42.0195 25.4609 42.0136C25.5781 42.0078 25.6601 41.9843 25.6484 41.9609C25.6367 41.9374 25.6484 41.9081 25.6777 41.8906C25.748 41.8437 25.9238 41.914 25.8887 41.9667C25.8769 41.9902 25.9004 42.0136 25.9473 42.0136C25.9941 42.0136 26.2754 42.1249 26.5625 42.2656C26.8555 42.4003 27.1074 42.4999 27.125 42.4824C27.1426 42.4648 27.0078 42.3417 26.8262 42.207C26.6445 42.0722 26.5039 41.9492 26.5215 41.9374C26.5332 41.9257 26.8203 42.0429 27.1543 42.1953C27.4883 42.3535 27.9629 42.5527 28.209 42.6406C28.6777 42.8046 29.2695 43.1386 29.9023 43.5898C30.1133 43.7363 30.2246 43.8007 30.1484 43.7363C30.0723 43.6718 30.0254 43.5898 30.043 43.5605C30.1601 43.373 26.5332 40.707 25.2734 40.0566C25.1269 39.9804 24.875 39.9101 24.7109 39.9042C24.5527 39.8925 24.3945 39.8749 24.3652 39.8574C24.3301 39.8398 24.248 39.8339 24.1777 39.8398C24.1015 39.8398 24.043 39.8281 24.043 39.8105C24.043 39.7871 23.9726 39.7636 23.8848 39.7578C23.7969 39.7519 23.5098 39.6816 23.2461 39.5996C22.6953 39.4296 22.4726 39.4179 22.4258 39.541C22.4023 39.5878 22.3437 39.6289 22.291 39.6289C22.2148 39.6289 22.209 39.6406 22.2851 39.6816C22.332 39.7167 22.3906 39.7226 22.4258 39.705C22.4551 39.6874 22.4609 39.6992 22.4375 39.7343C22.4199 39.7695 22.5019 39.8691 22.6367 39.9628C22.8711 40.1269 22.9238 40.2324 22.8125 40.3027C22.7773 40.3261 22.7656 40.3671 22.7832 40.3964C22.8066 40.4257 22.7949 40.4492 22.7598 40.4492C22.7305 40.4492 22.6953 40.4199 22.6836 40.3847C22.6543 40.2968 21.6172 40.0214 21.5937 40.0976C21.582 40.1328 21.5469 40.1562 21.5176 40.1562C21.4824 40.1562 21.4707 40.1328 21.4883 40.1035C21.5058 40.0742 21.4883 40.0507 21.4473 40.0566C21.2715 40.0624 21.1543 40.0331 21.1894 39.998C21.2422 39.9511 21.0137 39.8105 20.2051 39.3945C19.8535 39.207 19.2558 38.9023 18.8867 38.7089C17.9902 38.246 17.9199 38.2285 18.3008 38.5683ZM24.4531 41.2109C24.5469 41.2695 24.5293 41.2753 24.2656 41.2929C24.1426 41.3046 24.1191 41.2871 24.1719 41.2285C24.2422 41.1406 24.3301 41.1347 24.4531 41.2109Z" fill="white"/>
<path d="M17.2754 39.043C17.3223 39.1191 17.8965 39.4531 17.9785 39.4531C18.0664 39.4473 17.8379 39.2891 17.5156 39.125C17.3633 39.043 17.252 39.0078 17.2754 39.043Z" fill="white"/>
<path d="M19.1797 40.4197C19.1797 40.4256 19.2851 40.5017 19.414 40.5896C19.7656 40.824 19.6953 40.8943 19.3144 40.6892C19.1328 40.5896 18.9687 40.5193 18.957 40.5369C18.9101 40.5779 19.3027 40.9177 19.3613 40.8826C19.3906 40.865 19.414 40.8767 19.414 40.906C19.414 40.9353 19.4843 41.0056 19.5664 41.0642C19.6718 41.1345 19.707 41.1404 19.6777 41.0877C19.6543 41.0408 19.6894 41.0584 19.748 41.1228C19.8066 41.1931 19.9004 41.281 19.9531 41.322C20.0351 41.3865 20.0468 41.3748 20.0175 41.2635C19.9941 41.1931 20.0058 41.1463 20.0351 41.1638C20.123 41.2166 20.3633 41.0994 20.3164 41.0232C20.2871 40.9763 20.3047 40.9705 20.375 40.9939C20.4336 41.0174 20.4922 41.0349 20.5097 41.0349C20.5273 41.0349 20.5039 41.076 20.4629 41.1345C20.3867 41.2224 20.3925 41.2224 20.5156 41.1463C20.6386 41.0701 20.6972 40.9646 20.6035 40.9881C20.5097 41.0115 20.2929 40.906 20.3222 40.8533C20.3457 40.824 20.334 40.8006 20.2988 40.8006C20.2695 40.8006 20.2343 40.8592 20.2226 40.9295C20.205 41.076 19.959 41.1345 19.959 40.9939C19.959 40.9412 19.9824 40.9353 20.0234 40.9763C20.1054 41.0584 20.1582 41.0525 20.1582 40.947C20.1582 40.8943 20.0996 40.8592 20.0058 40.8533C19.9062 40.8474 19.8886 40.8357 19.959 40.8181C20.0117 40.8064 20.0586 40.7654 20.0586 40.7361C20.0586 40.701 20.0117 40.7068 19.9414 40.742C19.8476 40.7947 19.8125 40.7888 19.7832 40.7127C19.7539 40.6365 19.7422 40.6306 19.7011 40.6951C19.6601 40.7537 19.6484 40.7478 19.6484 40.6658C19.6484 40.6072 19.625 40.5779 19.5898 40.5955C19.5605 40.6131 19.5312 40.6072 19.5312 40.5838C19.5312 40.5545 19.455 40.5017 19.3554 40.4666C19.2617 40.4314 19.1797 40.408 19.1797 40.4197ZM19.8242 40.865C19.8242 40.9002 19.8008 40.906 19.7656 40.8885C19.7363 40.8709 19.707 40.824 19.707 40.7947C19.707 40.7595 19.7363 40.7537 19.7656 40.7713C19.8008 40.7888 19.8242 40.8357 19.8242 40.865Z" fill="white"/>
<path d="M22.5957 40.7715C22.5957 40.8359 22.6191 40.8418 22.6777 40.7949C22.7188 40.7598 22.7539 40.7188 22.7539 40.707C22.7539 40.6953 22.7188 40.6836 22.6777 40.6836C22.6309 40.6836 22.5957 40.7246 22.5957 40.7715Z" fill="white"/>
<path d="M20.8672 40.7832C20.9023 40.7949 20.9726 40.7949 21.0136 40.7832C21.0488 40.7656 21.0195 40.7539 20.9375 40.7539C20.8554 40.7539 20.8261 40.7656 20.8672 40.7832Z" fill="white"/>
<path d="M23.375 40.9767C23.3106 40.9943 23.2871 41.0295 23.3164 41.0529C23.375 41.0881 23.5625 41.0002 23.5156 40.9592C23.4981 40.9416 23.4336 40.9533 23.375 40.9767Z" fill="white"/>
<path d="M23.7148 41.252C23.7383 41.2988 23.7266 41.3281 23.6738 41.3281C23.6328 41.3281 23.5918 41.3691 23.5918 41.416C23.5918 41.4805 23.6152 41.4863 23.668 41.4395C23.709 41.4043 23.7734 41.3926 23.8086 41.416C23.9082 41.4746 23.873 41.3516 23.7676 41.2637C23.7031 41.2051 23.6855 41.2051 23.7148 41.252Z" fill="white"/>
<path d="M23.9199 41.457C23.873 41.627 23.8906 41.6562 24.0488 41.6328C24.1484 41.6152 24.2187 41.6328 24.2187 41.6738C24.2187 41.709 24.2773 41.7324 24.3535 41.7324C24.4472 41.7266 24.459 41.7207 24.3828 41.6973C24.3242 41.6855 24.2773 41.6445 24.2773 41.6152C24.2773 41.5859 24.1894 41.5625 24.0898 41.5566C23.9258 41.5566 23.914 41.5449 24.0136 41.5039C24.1133 41.4629 24.1133 41.4512 24.0312 41.4512C23.9726 41.4453 23.9258 41.4512 23.9199 41.457Z" fill="white"/>
<path d="M24.6875 41.5565C24.6113 41.7088 24.6113 41.7381 24.7051 41.7029C24.7461 41.6912 24.7812 41.6268 24.7871 41.5623C24.7988 41.4158 24.7695 41.4158 24.6875 41.5565Z" fill="white"/>
<path d="M25.6074 42.1721C25.5898 42.2131 25.6074 42.2834 25.6426 42.3186C25.6895 42.3655 25.6602 42.383 25.5312 42.383C25.4258 42.383 25.3496 42.4123 25.3496 42.4592C25.3496 42.5002 25.3965 42.5354 25.4551 42.5354C25.5137 42.5354 25.543 42.5119 25.5312 42.4885C25.5137 42.4651 25.5254 42.4416 25.5547 42.4416C25.584 42.4416 25.625 42.4944 25.6426 42.5647C25.666 42.6467 25.7012 42.6701 25.7539 42.6408C25.8184 42.6057 25.8184 42.6115 25.7539 42.6877C25.6895 42.7698 25.7129 42.799 25.9004 42.9162C26.0234 42.9924 26.1465 43.051 26.1699 43.0393C26.1992 43.0334 26.2051 43.051 26.1875 43.0803C26.1523 43.133 26.8027 43.6487 27.3242 43.9768C27.6406 44.176 28.291 44.4865 28.8887 44.7209C29.0586 44.7854 29.3633 44.926 29.5625 45.0198C30.1367 45.301 29.7617 45.0256 28.9062 44.5451C28.2031 44.1408 27.0781 43.385 27.002 43.2561C26.8848 43.0686 27.1777 43.1389 27.459 43.3674L27.6465 43.5198L27.4414 43.303C27.166 43.0041 26.5859 42.553 26.5391 42.5998C26.5215 42.6174 26.5039 42.6057 26.5039 42.5647C26.5039 42.5237 26.4746 42.5119 26.4336 42.5354C26.3984 42.5588 26.3867 42.553 26.4043 42.5178C26.4277 42.4826 26.3516 42.4006 26.2344 42.3303C26 42.1897 25.9707 42.1838 25.9941 42.2717C26 42.3069 25.9707 42.3537 25.9238 42.3713C25.8652 42.3889 25.8594 42.3713 25.8945 42.3186C25.9297 42.2541 25.9121 42.26 25.8301 42.3244C25.7656 42.3772 25.7363 42.383 25.7656 42.3362C25.7891 42.2951 25.7715 42.2658 25.7187 42.2658C25.6602 42.2658 25.6426 42.2307 25.6602 42.178C25.6836 42.1311 25.6836 42.0901 25.666 42.0901C25.6484 42.0901 25.625 42.1252 25.6074 42.1721Z" fill="white"/>
<path d="M25.2851 42.2482C25.2148 42.26 25.168 42.301 25.1855 42.3303C25.209 42.3596 25.2617 42.3596 25.3262 42.3244C25.3847 42.2951 25.4551 42.2893 25.4785 42.3127C25.5078 42.3361 25.5078 42.3186 25.4844 42.2775C25.4609 42.2424 25.4375 42.2131 25.4316 42.2131C25.4258 42.2189 25.3613 42.2365 25.2851 42.2482Z" fill="white"/>
<path d="M58.5488 43.7009C58.543 43.7302 58.543 43.783 58.5488 43.8064C58.5547 43.8357 58.5313 43.8416 58.4961 43.8181C58.4609 43.8005 58.4551 43.7537 58.4785 43.7126C58.4961 43.6775 58.4316 43.7068 58.332 43.783C58.0977 43.947 58.0977 43.9822 58.3145 43.9529C58.4141 43.9412 58.4727 43.9529 58.4551 43.9822C58.4375 44.0115 58.4785 44.0056 58.5488 43.9646C58.6191 43.9294 58.6602 43.8767 58.6426 43.8533C58.6309 43.824 58.6602 43.8064 58.707 43.8123C58.7598 43.8123 58.8125 43.7771 58.8184 43.7244C58.8301 43.6541 58.7949 43.6306 58.6953 43.6365C58.6191 43.6365 58.5488 43.6658 58.5488 43.7009Z" fill="white"/>
<path d="M59.668 44.117C59.0937 44.4393 59.0762 44.4568 59.3808 44.4978C59.6035 44.533 59.6797 44.5154 59.9199 44.3631C60.125 44.2283 60.1953 44.1521 60.1836 44.0643C60.1543 43.8826 60.0781 43.8885 59.668 44.117Z" fill="white"/>
<path d="M27.8574 47.8732C27.8633 47.9435 29.7617 48.8692 30.3418 49.086C30.6348 49.1915 30.916 49.3028 30.9805 49.3263C31.0625 49.3614 31.0859 49.3556 31.0625 49.2911C31.0098 49.1153 29.5156 48.1896 28.9004 47.9493C28.6133 47.8321 27.8457 47.7794 27.8574 47.8732Z" fill="white"/>
<path d="M32.9492 47.8846C32.9492 47.9256 32.9258 47.9373 32.8906 47.9198C32.8613 47.9022 32.832 47.908 32.832 47.9373C32.832 47.9666 32.7441 48.0311 32.6445 48.0721C32.5391 48.1131 32.4219 48.1893 32.3867 48.2362C32.3516 48.283 32.293 48.3006 32.2578 48.2772C32.2168 48.2537 32.1875 48.2479 32.1875 48.2655C32.1875 48.283 32.2578 48.3358 32.3516 48.3826C32.4395 48.4295 32.6094 48.5584 32.7266 48.6698C32.8906 48.8162 32.9375 48.8983 32.9082 48.992C32.8906 49.0799 32.9023 49.1209 32.9551 49.1209C33.0195 49.1209 33.0195 49.1326 32.9551 49.1737C32.8906 49.2147 32.9316 49.244 33.1016 49.2909C33.8691 49.4901 34.0801 49.5369 34.1094 49.5076C34.127 49.4901 34.1035 49.4725 34.0566 49.4725C34.0098 49.4666 34.0391 49.4315 34.1152 49.3905C34.332 49.2733 34.3262 48.992 34.1035 48.7869C33.8809 48.576 33.5937 48.1307 33.5937 47.9959C33.5937 47.9373 33.5527 47.8905 33.4941 47.8905C33.4355 47.8905 33.2891 47.8729 33.1719 47.8553C33.0195 47.826 32.9492 47.8377 32.9492 47.8846Z" fill="white"/>
<path d="M29.4922 47.9317C29.4922 47.9844 30.8047 48.7051 30.8516 48.6758C30.8926 48.6465 30.8984 48.6641 30.8691 48.7109C30.834 48.7695 30.8457 48.7813 30.9219 48.752C30.9746 48.7285 31.0098 48.7344 30.9922 48.7637C30.9512 48.8281 31.4141 49.0801 31.4961 49.0274C31.5371 49.0039 31.543 49.0098 31.5195 49.0567C31.4844 49.1035 31.5312 49.1152 31.6719 49.0918C31.8066 49.0684 31.8418 49.0801 31.7773 49.1152C31.7305 49.1445 31.666 49.1621 31.6309 49.1445C31.4961 49.0859 31.7891 49.2676 32.627 49.7598C33.1133 50.0469 33.6172 50.3809 33.7578 50.5039C33.9863 50.6973 34.0039 50.7266 33.9219 50.8086C33.8457 50.8906 33.7871 50.8906 33.582 50.8379C33.4414 50.8027 33.3242 50.7793 33.3125 50.7852C33.3066 50.7969 33.623 50.9844 34.0156 51.2012C34.4141 51.418 34.8828 51.6817 35.0586 51.7813C35.2461 51.8809 35.3457 51.916 35.3047 51.8633C35.2402 51.7813 35.2461 51.7695 35.3457 51.7988C35.6094 51.8692 35.4453 51.6875 34.8828 51.2891C34.5605 51.0606 34.2969 50.8555 34.2969 50.8379C34.2969 50.8027 34.8652 50.8496 35.2051 50.9141C35.375 50.9434 35.375 50.9434 35.2637 50.8496C35.1992 50.7969 34.9121 50.6328 34.6191 50.4863C33.8105 50.082 32.3164 49.2442 31.9297 48.9863C31.7363 48.8574 31.5488 48.752 31.5078 48.752C31.4668 48.752 31.4375 48.7344 31.4434 48.7109C31.4609 48.6465 30.8926 48.1543 30.6641 48.0371C30.5176 47.9609 30.3242 47.9258 29.9727 47.9258C29.709 47.9199 29.4922 47.9258 29.4922 47.9317Z" fill="white"/>
<path d="M58.7949 48.5701C58.5195 48.7048 58.3144 48.822 58.3437 48.822C58.3789 48.8279 58.3437 48.8806 58.2676 48.9509C58.1973 49.0212 58.1445 49.0857 58.1562 49.0974C58.1914 49.1326 58.4375 49.0505 58.414 49.0095C58.4023 48.9919 58.4609 48.9744 58.543 48.9685C58.7832 48.9568 59.4746 48.6228 59.5508 48.4763C59.5976 48.3884 59.5976 48.3591 59.5566 48.3826C59.5215 48.406 59.4922 48.4001 59.4922 48.3708C59.4922 48.2654 59.2871 48.324 58.7949 48.5701Z" fill="white"/>
<path d="M56.5332 49.0681C56.5098 49.1033 56.5039 49.1384 56.5215 49.156C56.5332 49.1736 56.5625 49.1443 56.5801 49.0916C56.6211 48.992 56.586 48.9744 56.5332 49.0681Z" fill="white"/>
<path d="M55.4902 50.2168C55.0801 50.3633 54.7461 50.4922 54.7578 50.498C54.7695 50.5098 54.8867 50.5273 55.0156 50.5391C55.1504 50.5508 55.3262 50.6094 55.4141 50.6621C55.5488 50.7559 55.5605 50.7559 55.5254 50.6621C55.4961 50.5801 55.5195 50.5742 55.6719 50.6035C55.7715 50.627 55.8711 50.6152 55.8887 50.5859C55.9062 50.5566 55.959 50.5449 56.0059 50.5684C56.0527 50.5859 56.0937 50.5684 56.0937 50.5273C56.0937 50.4746 56.1172 50.4746 56.1934 50.5332C56.2578 50.5918 56.2754 50.5918 56.2461 50.5391C56.2227 50.498 56.2402 50.4688 56.2988 50.4688C56.3516 50.4688 56.375 50.4395 56.3574 50.4102C56.3398 50.375 56.3457 50.3516 56.375 50.3516C56.4746 50.3516 56.5039 50.4277 56.4277 50.5156C56.3926 50.5625 56.4687 50.5273 56.6035 50.4336C56.8613 50.2578 56.9258 50.1582 56.7559 50.2109C56.6973 50.2227 56.709 50.2051 56.7852 50.1699C56.9785 50.0645 56.9434 50 56.6973 50C56.5742 50 56.4219 49.9883 56.3574 49.9766C56.293 49.9648 55.9004 50.0762 55.4902 50.2168Z" fill="white"/>
<path d="M56.5625 50.5332C56.5625 50.5625 56.5918 50.5743 56.6211 50.5567C56.6562 50.5391 56.6797 50.5098 56.6797 50.4922C56.6797 50.4805 56.6562 50.4688 56.6211 50.4688C56.5918 50.4688 56.5625 50.4981 56.5625 50.5332Z" fill="white"/>
<path d="M56.2578 50.6857C56.2988 50.7033 56.3516 50.6974 56.3691 50.6798C56.3926 50.6622 56.3574 50.6447 56.293 50.6505C56.2285 50.6505 56.2109 50.6681 56.2578 50.6857Z" fill="white"/>
<path d="M55.8477 50.8435C55.7598 50.8904 55.6836 50.9197 55.6719 50.9197C55.6602 50.9139 55.6719 50.9314 55.6953 50.9607C55.7188 50.99 55.7715 50.9842 55.8184 50.949C55.8653 50.908 55.9121 50.8963 55.9297 50.9139C55.9473 50.9256 55.9766 50.9021 55.9942 50.8494C56.041 50.7439 56.041 50.7439 55.8477 50.8435Z" fill="white"/>
<path d="M55.1914 51.008C55.1387 51.0373 55.1094 51.09 55.1328 51.1193C55.1562 51.1545 55.1914 51.1545 55.2441 51.1135C55.2851 51.0783 55.3437 51.0549 55.3672 51.0607C55.4726 51.0783 55.5664 51.0549 55.5664 51.008C55.5664 50.9436 55.3086 50.9436 55.1914 51.008Z" fill="white"/>
<path d="M39.3652 51.8459C39.2363 51.8927 39.0664 51.9279 38.9902 51.9279C38.914 51.9338 38.8144 51.9806 38.7734 52.0334C38.6972 52.133 38.6914 52.133 38.7265 52.0334C38.7676 51.9162 38.5801 51.8927 38.4687 52.0041C38.4219 52.0509 38.3984 52.0509 38.3984 52.0099C38.3984 51.9748 38.334 51.963 38.2461 51.9806C38.1406 51.9982 38.1172 52.0216 38.1699 52.0568C38.2109 52.0802 38.2695 52.0861 38.293 52.0744C38.3164 52.0568 38.3398 52.0685 38.3398 52.1037C38.3398 52.133 38.3047 52.1681 38.2695 52.1857C38.2285 52.1974 38.2637 52.2091 38.3515 52.2033C38.4453 52.2033 38.5156 52.1798 38.5156 52.1505C38.5156 52.1271 38.539 52.1095 38.5742 52.1095C38.6035 52.1095 38.6152 52.1505 38.5976 52.1974C38.5742 52.2502 38.4863 52.2853 38.3808 52.2853C38.0234 52.2853 38.2637 52.3322 38.8262 52.3673C39.2246 52.3966 39.3945 52.3908 39.3945 52.3439C39.3945 52.3088 39.4238 52.297 39.4707 52.3263C39.5937 52.4025 40.2793 52.4025 40.2676 52.3263C40.25 52.174 40.2793 52.1154 40.3555 52.1447C40.4023 52.1623 40.4551 52.1505 40.4726 52.1213C40.5254 52.0334 40.2148 52.092 40.1035 52.1916C40.0156 52.2736 40.0039 52.2677 39.998 52.1505C39.9863 52.0509 39.998 52.0392 40.039 52.1095C40.0859 52.1798 40.0976 52.1681 40.0976 52.0568C40.0976 51.9455 40.0742 51.9279 39.9746 51.9513C39.8808 51.9748 39.8691 51.9689 39.9277 51.8986C39.9863 51.8283 39.9746 51.8283 39.834 51.8986C39.6406 51.9982 39.4765 51.963 39.5762 51.84C39.6113 51.7931 39.6347 51.758 39.623 51.7638C39.6113 51.7697 39.4941 51.8048 39.3652 51.8459ZM39.4707 51.9455C39.4883 51.9982 39.4355 52.0216 39.3183 52.0275L39.1426 52.0334L39.2832 51.9572C39.3594 51.9162 39.4297 51.881 39.4297 51.8752C39.4355 51.8752 39.4531 51.9103 39.4707 51.9455ZM38.8906 52.2384C38.873 52.2619 38.8027 52.2853 38.7324 52.2853C38.6445 52.2853 38.6269 52.2677 38.6797 52.2384C38.7793 52.174 38.9316 52.174 38.8906 52.2384Z" fill="white"/>
<path d="M41.0879 52.0448C41.1523 52.0858 41.1523 52.0975 41.0879 52.1268C41.0117 52.1561 41.0234 52.162 41.1933 52.1678C41.2988 52.1737 41.2402 52.0155 41.1289 52.0037C41.041 51.9979 41.0293 52.0096 41.0879 52.0448Z" fill="white"/>
<path d="M40.7715 52.1502C40.6778 52.2029 40.5781 52.2733 40.5547 52.3084C40.5254 52.3494 40.5078 52.3494 40.5078 52.3084C40.5078 52.2791 40.5371 52.2205 40.5781 52.1795C40.6309 52.1268 40.6133 52.1268 40.502 52.1795C40.209 52.3143 40.3262 52.3904 40.9121 52.4315C41.2227 52.4549 41.5215 52.4842 41.5801 52.4959C41.668 52.5076 41.6738 52.4959 41.627 52.4373C41.5918 52.3963 41.586 52.3436 41.6094 52.3201C41.6328 52.2967 41.627 52.2791 41.5918 52.285C41.5625 52.2908 41.4922 52.2967 41.4453 52.285C41.3809 52.2791 41.3867 52.2615 41.4746 52.2205C41.5742 52.1737 41.5684 52.1678 41.4453 52.2029C41.1758 52.2674 40.9824 52.2674 41.0176 52.2088C41.041 52.1678 41.0117 52.1619 40.9473 52.1912C40.8594 52.2205 40.8535 52.2147 40.918 52.1385C41.0059 52.0272 40.9942 52.033 40.7715 52.1502Z" fill="white"/>
<path d="M51.5234 52.133C51.5234 52.1447 51.5645 52.174 51.6172 52.1916C51.6641 52.2092 51.6875 52.2033 51.6699 52.1681C51.6348 52.1095 51.5234 52.0861 51.5234 52.133Z" fill="white"/>
<path d="M51.4063 52.2265C51.4063 52.2558 51.3711 52.2675 51.3242 52.2499C51.2774 52.2323 51.2246 52.244 51.2012 52.2792C51.1602 52.3554 51.3184 52.3554 51.4883 52.2909C51.5938 52.2499 51.5938 52.244 51.5059 52.2089C51.4531 52.1913 51.4063 52.1972 51.4063 52.2265Z" fill="white"/>
<path d="M50.8965 52.3262C50.9492 52.3379 51.0313 52.3379 51.0723 52.3262C51.1074 52.3086 51.0664 52.2969 50.9668 52.2969C50.8731 52.2969 50.8379 52.3086 50.8965 52.3262Z" fill="white"/>
<path d="M52.5312 52.6425C52.2851 52.7011 51.6875 53.0175 51.7402 53.0702C51.7637 53.0937 51.7871 53.1464 51.7871 53.1815C51.7871 53.2226 51.8398 53.2577 51.9043 53.2694C51.9687 53.2812 51.998 53.2694 51.9629 53.2401C51.9336 53.2167 51.8984 53.1522 51.8867 53.1054C51.8691 53.0468 51.9043 53.0526 51.998 53.1347C52.0683 53.1991 52.1094 53.2167 52.0801 53.1698C52.0449 53.1054 52.0566 53.0937 52.1328 53.123C52.1914 53.1464 52.2207 53.1405 52.1972 53.1054C52.1562 53.0409 52.332 53.0526 52.4433 53.123C52.4785 53.1464 52.5312 53.1347 52.5547 53.0995C52.584 53.0526 52.5722 53.0468 52.5195 53.0761C52.4726 53.1054 52.4551 53.0995 52.4785 53.0644C52.5019 53.0292 52.5898 53.0116 52.6777 53.0233C52.8008 53.0409 52.8125 53.0351 52.7304 52.9999C52.6426 52.9589 52.6601 52.9413 52.8476 52.8827C53.041 52.83 53.0586 52.83 52.9765 52.8944C52.9179 52.9355 52.8711 52.994 52.8711 53.0175C52.8711 53.0409 52.9062 53.0292 52.9531 52.994C52.9941 52.9589 53.0703 52.9413 53.1172 52.9589C53.1699 52.9823 53.2461 52.953 53.2929 52.9062C53.3457 52.8534 53.4394 52.83 53.5215 52.8476C53.6387 52.8769 53.6445 52.871 53.5742 52.8124C53.5039 52.7597 53.5215 52.7538 53.6562 52.7655C53.75 52.7772 53.8379 52.7538 53.8496 52.7128C53.8789 52.6366 52.8183 52.578 52.5312 52.6425ZM53.2519 52.871C53.2344 52.9003 53.1875 52.9296 53.1582 52.9296C53.123 52.9296 53.1172 52.9003 53.1347 52.871C53.1523 52.8358 53.1992 52.8124 53.2285 52.8124C53.2637 52.8124 53.2695 52.8358 53.2519 52.871Z" fill="white"/>
<path d="M51.5 53.0878C51.4765 53.1171 51.4355 53.1347 51.418 53.1405C51.3945 53.1405 51.2715 53.1874 51.1426 53.246C50.9668 53.3222 50.9316 53.3573 50.9961 53.3983C51.043 53.4276 51.0957 53.4394 51.1133 53.4276C51.1367 53.4159 51.2715 53.3983 51.4238 53.3925C51.6113 53.3808 51.6992 53.3515 51.6992 53.2987C51.6992 53.2519 51.6699 53.2343 51.6289 53.2519C51.5879 53.2753 51.5996 53.2519 51.6523 53.205C51.7578 53.123 51.7344 53.0468 51.6113 53.0468C51.5762 53.0468 51.5234 53.0644 51.5 53.0878Z" fill="white"/>
<path d="M41.0762 53.7324C41.0586 53.7617 41.1348 53.7793 41.2461 53.7793C41.3574 53.7793 41.4453 53.7617 41.4453 53.7324C41.4453 53.709 41.3692 53.6914 41.2754 53.6914C41.1758 53.6914 41.0879 53.709 41.0762 53.7324Z" fill="white"/>
<path d="M40.8476 53.7967C40.9121 53.8377 40.9121 53.8553 40.8301 53.8904C40.7773 53.908 40.748 53.949 40.7715 53.9783C40.8242 54.0662 40.9648 53.99 40.9531 53.8787C40.9414 53.826 40.9004 53.7732 40.8535 53.7615C40.7891 53.7439 40.7832 53.7498 40.8476 53.7967Z" fill="white"/>
<path d="M39.7168 53.9843C39.6523 54.0136 39.6348 54.037 39.6816 54.037C39.7227 54.0429 39.8516 54.119 39.9629 54.2187C40.0684 54.3124 40.209 54.3944 40.2617 54.3944C40.3203 54.3944 40.3965 54.4237 40.4375 54.4648C40.4902 54.5175 40.5078 54.5116 40.5137 54.4179C40.5137 54.3593 40.5312 54.3417 40.5488 54.3769C40.5781 54.4589 40.7422 54.4823 40.7422 54.4062C40.7422 54.3476 40.5312 54.1542 40.332 54.037C40.1621 53.9374 39.8867 53.914 39.7168 53.9843Z" fill="white"/>
<path d="M49.748 54.084C49.6894 54.1367 49.6953 54.2188 49.7539 54.2188C49.7832 54.2188 49.8066 54.1777 49.8066 54.1309C49.8066 54.0312 49.8008 54.0254 49.748 54.084Z" fill="white"/>
<path d="M39.5703 54.1366C39.5703 54.1425 39.6172 54.1835 39.6699 54.2245C39.7227 54.2714 39.752 54.2773 39.7285 54.2362C39.7051 54.2011 39.7227 54.1601 39.7578 54.1425C39.7988 54.1249 39.7754 54.1191 39.7051 54.1191C39.6289 54.1249 39.5703 54.1308 39.5703 54.1366Z" fill="white"/>
<path d="M41.041 54.8398C40.8945 54.8809 40.7598 54.9043 40.7305 54.8867C40.707 54.8691 40.6836 54.8691 40.6836 54.8809C40.6836 54.9512 41.3867 55.4258 41.7207 55.5723L42.0957 55.748L43.2324 55.7305C43.8535 55.7188 44.3516 55.7305 44.334 55.7539C44.3223 55.7832 44.375 55.8008 44.457 55.8008C44.5391 55.8008 44.6094 55.7715 44.6094 55.7422C44.6094 55.6602 44.7734 55.6719 44.7969 55.7539C44.8145 55.7949 44.8379 55.7891 44.8613 55.7246C44.8848 55.6602 44.8672 55.625 44.8086 55.625C44.7617 55.625 44.7324 55.6016 44.7559 55.5723C44.7734 55.543 44.5273 55.4609 44.2168 55.3906C43.4609 55.2207 43.127 55.1152 42.7285 54.916C42.4414 54.7754 42.3418 54.7578 41.8496 54.7578C41.5449 54.7637 41.1816 54.7988 41.041 54.8398Z" fill="white"/>
</g>
<defs>
<clipPath id="clip0_759_2">
<rect width="70" height="70" fill="white"/>
</clipPath>
</defs>
</svg>
