<svg width="70" height="70" viewBox="0 0 70 70" fill="none" xmlns="http://www.w3.org/2000/svg">
<g clip-path="url(#clip0_759_89)">
<path d="M31.192 0.168003C30.912 0.392003 31.01 1.316 31.304 1.204C31.402 1.162 31.71 1.092 31.976 1.036C32.62 0.924003 32.69 0.784003 32.382 0.350003C32.102 -0.0279968 31.556 -0.111997 31.192 0.168003Z" fill="black"/>
<path d="M38.738 0.825981C38.514 0.965981 38.08 1.13399 37.758 1.18999C37.282 1.27399 37.226 1.30199 37.45 1.39999C37.716 1.49799 37.702 1.51199 37.38 1.58199C37.184 1.62399 36.694 1.70798 36.274 1.74998C35.588 1.83398 35.49 1.80598 35.224 1.48399C35.056 1.30199 34.706 1.10599 34.44 1.04999C34.034 0.965981 33.978 0.97998 34.132 1.13399C34.622 1.65199 33.95 1.88998 33.32 1.39999C32.984 1.14799 32.97 1.14799 32.69 1.39999C32.466 1.59599 32.018 1.69398 30.562 1.80598C29.554 1.90398 28.42 2.05798 28.042 2.16998C27.118 2.44998 27.104 2.42198 27.972 2.02998C28.406 1.83398 28.7 1.60999 28.7 1.46999C28.7 1.23199 28.602 1.18999 27.832 1.04999C27.342 0.97998 27.3 0.99398 27.3 1.31599C27.3 1.55399 27.146 1.76398 26.852 1.97398C26.6 2.14198 26.362 2.30998 26.334 2.33798C26.306 2.35198 26.362 2.63198 26.46 2.95399C26.628 3.45798 26.698 3.51398 27.034 3.47198C27.258 3.42999 27.384 3.47198 27.342 3.54198C27.188 3.80798 26.306 4.05998 25.592 4.05998C24.864 4.04598 24.85 4.04598 25.27 3.86398L25.69 3.68198L25.172 3.42999C24.738 3.21999 24.584 3.20599 24.276 3.34599C23.842 3.54198 23.688 3.45798 23.94 3.14999C24.038 3.02399 24.094 2.91199 24.066 2.88399C23.996 2.82799 20.468 3.84998 18.76 4.40999C17.122 4.94199 15.064 6.01999 14.168 6.80399C13.426 7.44799 13.384 7.62999 13.93 7.72799C14.084 7.75599 14.21 7.83998 14.21 7.90998C14.224 7.99398 14.28 8.20399 14.336 8.38599L14.448 8.72198L14.63 8.28799C14.854 7.76999 15.246 7.50399 16.31 7.12598C17.178 6.81799 17.388 6.85999 17.038 7.23798C16.786 7.53199 16.324 8.66599 16.17 9.37999L16.072 9.86999L16.492 9.30999C16.716 9.00199 17.29 8.38599 17.766 7.95198C18.48 7.27999 18.62 7.06998 18.634 6.64999C18.648 6.38398 18.662 6.07598 18.676 5.97798C18.704 5.57198 19.67 5.30598 19.992 5.62798C20.118 5.75398 20.006 5.94998 19.53 6.45399C19.18 6.83199 18.9 7.23798 18.9 7.36399C18.9 7.53199 19.068 7.41999 19.46 6.99998C19.922 6.49599 20.062 6.42599 20.384 6.49599C20.804 6.60799 21.28 6.32798 20.972 6.14598C20.874 6.08998 20.832 6.00599 20.86 5.97798C21.168 5.73998 23.086 4.61999 23.212 4.61999C23.45 4.61999 23.562 5.20798 23.394 5.61398C23.324 5.82398 23.016 6.10398 22.722 6.25798C22.428 6.41198 21.7 6.78999 21.098 7.11198C20.244 7.57399 19.866 7.69999 19.32 7.69999C18.732 7.69999 18.62 7.74199 18.62 7.96598C18.62 8.10599 18.718 8.30199 18.83 8.39999C18.942 8.49799 19.04 8.65199 19.04 8.76398C19.04 9.04399 18.326 9.49199 17.556 9.67398C17.178 9.77199 16.38 10.08 15.792 10.388C15.022 10.766 14.7 10.864 14.7 10.724C14.7 10.626 14.854 10.108 15.064 9.58998C15.26 9.05799 15.4 8.46999 15.372 8.27399C15.302 7.68599 14.938 7.83998 14.7 8.56799C14.532 9.11399 14.448 9.21199 14.21 9.15599C14.056 9.11399 13.692 9.18399 13.398 9.30999C13.118 9.42199 12.88 9.47799 12.88 9.42199C12.88 9.36599 13.118 9.07199 13.398 8.76398L13.93 8.21799L13.09 8.80598C12.628 9.14199 11.69 9.78599 10.99 10.262C9.77201 11.088 8.12001 12.586 8.12001 12.838C8.12001 12.908 8.30201 12.95 8.54001 12.908C9.15601 12.824 9.08601 13.118 8.19001 14.21C7.77001 14.714 7.42001 15.176 7.42001 15.204C7.42001 15.33 7.57401 15.246 8.03601 14.84C8.31601 14.588 8.55401 14.476 8.61001 14.546C8.65201 14.63 7.95201 15.428 7.05601 16.31C5.44601 17.92 5.43201 17.948 5.53001 18.452C5.64201 19.04 5.88001 19.39 5.88001 18.956C5.88001 18.144 6.49601 16.8 6.87401 16.8C7.08401 16.8 7.01401 17.248 6.49601 19.264C6.21601 20.342 5.95001 21.714 5.89401 22.33L5.81001 23.45L5.29201 22.61C4.99801 22.148 4.76001 21.868 4.76001 21.994C4.76001 22.12 4.41001 22.652 3.99001 23.17C3.57001 23.674 3.22001 24.122 3.22001 24.15C3.22001 24.164 3.12201 24.416 3.01001 24.696C2.89801 24.976 2.82801 25.2 2.85601 25.2C2.88401 25.2 3.12201 24.878 3.37401 24.472L3.83601 23.758L4.01801 24.164C4.27001 24.752 4.24201 25.228 3.85001 27.3C3.50001 29.19 3.43001 30.366 3.64001 30.87C3.75201 31.122 3.76601 31.122 3.76601 30.786C3.78001 30.338 4.10201 29.89 4.31201 30.016C4.52201 30.142 4.52201 30.996 4.32601 31.906C4.11601 32.9 3.86401 33.012 3.94801 32.06L4.01801 31.332L3.55601 31.402C2.99601 31.5 2.99601 31.486 2.85601 29.61C2.81401 28.84 2.71601 28.07 2.64601 27.888C2.46401 27.412 2.12801 27.51 2.01601 28.07C1.89001 28.784 2.04401 29.666 2.66001 31.57C3.26201 33.446 3.45801 34.3 3.26201 34.3C3.19201 34.3 2.94001 34.034 2.68801 33.712C2.21201 33.096 2.14201 33.138 2.39401 33.852C2.47801 34.09 2.61801 34.272 2.70201 34.258C2.81401 34.244 2.87001 34.594 2.87001 35.462C2.87001 36.134 2.84201 36.68 2.80001 36.68C2.75801 36.68 2.52001 36.554 2.28201 36.4L1.82001 36.12L1.83401 36.512C1.84801 37.296 2.03001 38.15 2.17001 38.108C2.33801 38.052 3.09401 41.006 3.52801 43.428C3.71001 44.394 3.89201 45.136 3.93401 45.052C4.04601 44.87 4.41001 45.528 4.55001 46.186C4.71801 46.942 4.88601 46.41 4.81601 45.36L4.76001 44.45L4.97001 45.22C5.09601 45.64 5.25001 46.662 5.32001 47.488C5.39001 48.328 5.53001 49.294 5.61401 49.658L5.78201 50.302L6.03401 49.994L6.28601 49.686L6.48201 50.162C6.91601 51.198 6.93001 51.282 6.55201 51.212L6.20201 51.142L6.52401 51.632C6.70601 51.898 6.86001 52.262 6.86001 52.43C6.86001 52.71 7.37801 53.34 7.60201 53.34C7.65801 53.34 7.67201 53.172 7.61601 52.962C7.57401 52.738 7.82601 53.088 8.17601 53.718C8.52601 54.362 8.82001 55.02 8.82001 55.202C8.82001 55.86 9.43601 56.756 10.5 57.61C11.074 58.086 11.62 58.604 11.704 58.772C11.858 59.08 13.874 60.998 15.316 62.188C16.366 63.07 18.256 64.33 19.642 65.1C20.286 65.45 20.678 65.744 20.58 65.8C20.426 65.898 24.612 68.292 26.082 68.936C27.678 69.636 29.078 70 30.184 70C30.744 70 31.22 69.958 31.22 69.916C31.22 69.874 31.15 69.72 31.08 69.566C30.982 69.384 30.982 69.3 31.08 69.3C31.15 69.3 31.22 69.188 31.22 69.048C31.22 68.824 31.444 68.81 34.048 68.81C37.1 68.81 38.71 68.614 41.328 67.97C42.112 67.774 42.77 67.62 42.784 67.62C42.812 67.62 42.84 67.914 42.84 68.292C42.84 69.104 43.134 69.58 43.638 69.58H44.002L43.61 69.216C43.288 68.922 43.232 68.782 43.302 68.362C43.4 67.802 43.708 67.41 44.268 67.116C44.632 66.92 44.66 66.934 44.66 67.186C44.66 67.732 45.066 67.76 47.124 67.396C48.188 67.214 49.238 67.018 49.462 66.976C49.798 66.892 49.84 66.92 49.84 67.256C49.84 67.676 49.868 67.69 50.764 67.41C51.142 67.298 51.464 67.2 51.492 67.2C51.506 67.2 51.52 67.424 51.52 67.69C51.52 67.998 51.436 68.222 51.282 68.306C51.142 68.39 51.086 68.46 51.142 68.46C51.338 68.46 52.108 67.872 52.024 67.802C51.982 67.76 52.08 67.536 52.234 67.326L52.514 66.92H51.898C51.548 66.92 51.086 66.878 50.848 66.836C50.47 66.766 50.428 66.71 50.54 66.486C50.624 66.346 50.68 66.024 50.68 65.772V65.296L51.744 65.394L52.808 65.506L53.228 65.03C53.452 64.764 54.124 64.288 54.712 63.952C55.3 63.63 56.014 63.14 56.266 62.874C56.532 62.594 56.7 62.468 56.63 62.58C56.56 62.706 56.63 62.692 56.812 62.524C57.162 62.23 57.246 62.02 56.91 62.3C56.756 62.426 56.7 62.426 56.7 62.314C56.7 62.23 56.798 62.118 56.91 62.076C57.022 62.02 57.12 61.88 57.12 61.74C57.12 61.614 57.302 61.25 57.54 60.928L57.946 60.354L57.204 60.62C56.546 60.844 54.81 61.18 54.306 61.18C54.208 61.18 54.334 60.956 54.6 60.69C54.964 60.312 55.118 60.242 55.314 60.354C55.524 60.466 55.65 60.382 56.014 59.892C56.252 59.556 56.574 59.038 56.728 58.73C57.022 58.156 58.394 56.238 58.786 55.86C58.912 55.734 59.416 55.146 59.92 54.53C60.424 53.914 61.264 52.906 61.796 52.29C63.042 50.834 64.61 48.454 65.52 46.648C66.094 45.486 66.29 45.206 66.5 45.262C66.724 45.318 66.752 45.206 66.808 44.366C66.836 43.848 66.906 43.372 66.948 43.33C67.004 43.274 67.186 43.33 67.368 43.456C67.998 43.904 68.082 43.778 67.97 42.588C67.83 41.076 67.844 40.11 68.026 39.802C68.11 39.662 68.18 39.62 68.18 39.718C68.18 39.928 68.698 40.222 68.88 40.11C68.964 40.054 68.866 39.732 68.67 39.326C68.376 38.766 68.348 38.64 68.53 38.64C68.656 38.64 68.866 38.374 69.02 38.024C69.16 37.688 69.342 37.394 69.426 37.366C69.51 37.324 69.412 36.68 69.16 35.574C68.656 33.502 68.642 33.236 69.034 33.138C69.3 33.068 69.314 33.096 69.23 33.558C69.174 33.908 69.202 34.09 69.328 34.174C69.916 34.552 70.014 34.076 69.58 32.816C69.412 32.368 69.286 31.696 69.286 31.346C69.272 30.73 69.258 30.702 68.922 30.772L68.558 30.842L68.6 28.966C68.67 26.11 68.67 26.096 68.194 25.816C67.844 25.62 67.704 25.326 67.284 23.996C66.668 22.092 65.646 19.782 64.764 18.298C64.414 17.696 64.12 17.108 64.12 17.01C64.12 16.912 63.854 16.52 63.518 16.156C63.196 15.778 62.552 14.994 62.09 14.42C60.956 12.992 58.842 10.906 57.386 9.77199C56.294 8.91799 53.536 7.08398 53.158 6.95798C53.074 6.92999 53.228 6.63599 53.536 6.25798C54.124 5.54398 54.152 5.12399 53.648 4.78799C53.326 4.57799 53.326 4.57799 53.494 4.94199C53.634 5.24998 53.62 5.37598 53.424 5.65598C53.088 6.17398 52.682 6.34198 52.038 6.24398C51.716 6.18798 51.394 6.08998 51.31 6.03399C51.24 5.96398 50.932 5.83798 50.638 5.73998C50.148 5.58598 50.12 5.55798 50.316 5.33398C50.442 5.19398 50.54 5.01199 50.54 4.92799C50.54 4.59199 49.658 3.79398 48.412 2.96799C46.998 2.04398 46.578 1.97398 46.088 2.58998L45.836 2.89799L45.164 2.11398C44.492 1.34399 44.464 1.32999 43.694 1.31599C43.26 1.31599 42.504 1.17599 42 1.02199C41.496 0.867981 40.656 0.699982 40.11 0.643982C39.298 0.587982 39.06 0.615982 38.738 0.825981ZM39.438 0.783981C39.396 0.825981 39.27 0.839981 39.172 0.797981C39.06 0.755981 39.102 0.713982 39.256 0.713982C39.41 0.699982 39.494 0.741982 39.438 0.783981ZM49.392 5.01199C49.588 5.30598 49.588 5.31998 49.154 5.16599C48.72 5.01199 48.636 4.89999 48.818 4.70399C48.958 4.56399 49.168 4.67599 49.392 5.01199ZM12.012 10.388C11.9 10.57 11.536 11.186 11.2 11.76C10.864 12.334 10.57 12.824 10.556 12.852C10.542 12.88 10.374 12.824 10.206 12.726L9.88401 12.558L10.262 12.264C10.472 12.096 10.64 11.9 10.64 11.83C10.64 11.676 12.012 10.08 12.138 10.08C12.18 10.08 12.124 10.22 12.012 10.388ZM9.80001 18.578C9.64601 18.816 9.64601 18.816 9.71601 18.578C9.75801 18.438 9.80001 18.242 9.81401 18.158C9.81401 18.032 9.84201 18.032 9.88401 18.158C9.92601 18.256 9.88401 18.438 9.80001 18.578ZM11.62 19.446C11.62 19.516 11.522 19.642 11.41 19.74C11.242 19.88 11.2 19.88 11.2 19.712C11.2 19.6 11.242 19.46 11.298 19.418C11.424 19.278 11.62 19.292 11.62 19.446ZM9.94001 19.796C9.94001 19.824 9.98201 19.95 10.024 20.062C10.066 20.188 9.88401 20.426 9.54801 20.692L9.01601 21.126L9.22601 20.426C9.38001 19.936 9.50601 19.74 9.68801 19.74C9.82801 19.74 9.94001 19.768 9.94001 19.796ZM10.598 20.384C10.514 20.678 9.98201 21.602 9.42201 22.428C8.86201 23.268 8.13401 24.458 7.81201 25.088L7.21001 26.25L7.16801 24.262C7.14001 22.386 7.15401 22.246 7.44801 21.91C7.61601 21.714 7.82601 21.56 7.93801 21.56C8.03601 21.56 8.21801 21.406 8.34401 21.21C8.59601 20.818 8.82001 20.86 8.82001 21.294C8.82001 21.924 9.89801 21.196 10.388 20.258C10.724 19.586 10.822 19.642 10.598 20.384ZM68.46 27.496C68.46 28.112 68.222 27.762 68.124 27.02C68.04 26.418 68.04 26.404 68.236 26.74C68.362 26.936 68.446 27.272 68.46 27.496ZM6.38401 27.286C6.49601 27.188 6.62201 27.16 6.67801 27.202C6.81801 27.342 6.14601 28.84 5.93601 28.84C5.54401 28.84 5.23601 27.664 5.47401 27.048L5.61401 26.67L5.90801 27.062C6.13201 27.37 6.23001 27.412 6.38401 27.286ZM47.18 66.15C47.18 66.29 47.04 66.36 46.732 66.36L46.27 66.346L46.62 66.15C47.068 65.898 47.18 65.898 47.18 66.15ZM45.948 67.158C46.144 67.41 45.71 67.55 45.248 67.396C44.716 67.214 44.716 66.948 45.248 66.724C45.668 66.542 45.71 66.542 45.766 66.752C45.794 66.878 45.878 67.074 45.948 67.158ZM30.73 68.754C30.926 68.95 30.226 68.894 29.75 68.684C29.33 68.488 29.344 68.488 29.96 68.558C30.31 68.6 30.646 68.684 30.73 68.754Z" fill="black"/>
<path d="M35.742 1.21777C35.952 1.24577 36.288 1.24577 36.512 1.21777C36.722 1.18977 36.54 1.16177 36.12 1.16177C35.7 1.16177 35.518 1.18977 35.742 1.21777Z" fill="black"/>
<path d="M50.932 4.95577C51.1 5.17977 51.24 5.47377 51.24 5.62777C51.24 5.78177 51.31 5.85177 51.38 5.80977C51.66 5.64177 51.506 5.19377 51.072 4.87177L50.61 4.54977L50.932 4.95577Z" fill="black"/>
<path d="M4.64803 18.8018C4.32603 19.1518 4.25603 19.5298 4.48003 19.6698C4.56403 19.7118 4.62003 19.8938 4.62003 20.0618C4.63403 20.3698 4.63403 20.3698 4.84403 20.0898C5.02603 19.8378 5.02603 19.8098 4.84403 19.7678C4.56403 19.7118 4.56403 19.7118 4.83003 19.0818C5.09603 18.4658 5.04003 18.3818 4.64803 18.8018Z" fill="black"/>
<path d="M2.31 20.7758C2.128 21.2518 2.114 21.4478 2.226 21.6858C2.52 22.2038 2.66 21.9938 2.66 21.0698C2.66 20.5658 2.632 20.1598 2.604 20.1598C2.576 20.1598 2.436 20.4398 2.31 20.7758Z" fill="black"/>
<path d="M1.63803 23.0998C1.41403 23.4918 1.19003 23.7998 1.13403 23.7998C0.994025 23.7998 0.616025 23.3658 0.532025 23.0998C0.490025 22.9878 0.434025 23.1278 0.406025 23.4078C0.364025 23.6878 0.392025 23.8838 0.448025 23.8558C0.504025 23.8138 0.560025 24.0098 0.560025 24.2758C0.560025 24.5558 0.630025 24.7798 0.700025 24.7798C0.784025 24.7798 0.840025 24.7238 0.840025 24.6538C0.840025 24.5698 1.21803 24.2198 1.68003 23.8698C2.50603 23.2258 2.68803 22.9038 2.35203 22.5678C2.10003 22.3158 2.05803 22.3438 1.63803 23.0998Z" fill="black"/>
<path d="M0.700012 25.6198C0.700012 25.7038 0.798012 25.7598 0.910012 25.7598C1.17601 25.7598 1.17601 25.6758 0.910012 25.5638C0.798012 25.5218 0.700012 25.5498 0.700012 25.6198Z" fill="black"/>
<path d="M67.788 44.1699C67.634 44.5199 67.55 46.3259 67.69 46.1719C67.774 46.0879 68.068 43.9459 67.998 43.8759C67.97 43.8479 67.872 43.9739 67.788 44.1699Z" fill="black"/>
<path d="M64.806 49.1679C64.68 49.6439 64.54 50.1479 64.484 50.2739C64.33 50.6099 65.002 50.4559 65.352 50.0639C65.842 49.5459 65.856 49.2099 65.422 48.7199L65.016 48.2719L64.806 49.1679Z" fill="black"/>
<path d="M63.98 50.9738C63.882 51.1278 63.84 51.2958 63.882 51.3238C63.91 51.3518 64.008 51.2258 64.092 51.0298C64.288 50.6098 64.19 50.5678 63.98 50.9738Z" fill="black"/>
<path d="M63.434 52.3877C63.126 53.3117 63.168 53.3117 63.756 52.4297L64.12 51.8697V52.4297C64.106 52.7377 64.022 53.1437 63.91 53.3397C63.406 54.2217 63.826 54.6137 64.596 53.9977C64.946 53.7037 64.974 53.6337 64.834 53.3537C64.722 53.1717 64.694 52.8217 64.764 52.4297C64.848 51.8417 64.834 51.7997 64.47 51.6597C63.84 51.4217 63.742 51.4917 63.434 52.3877Z" fill="black"/>
<path d="M60.774 55.5239C60.774 55.6919 60.41 56.2099 59.99 56.6859C59.248 57.5119 59.052 57.9879 59.36 58.1699C59.612 58.3239 59.514 58.4919 59.122 58.5899L58.73 58.7019L59.136 58.8139C59.416 58.8979 59.626 58.8559 59.878 58.7019L60.228 58.4639L59.906 58.2399C59.416 57.8619 59.64 57.5399 60.41 57.5399H61.04L61.026 56.9379C61.026 56.2799 60.802 55.0619 60.774 55.5239Z" fill="black"/>
<path d="M62.37 55.5937C62.314 55.6777 62.3 55.7617 62.342 55.8037C62.37 55.8457 62.44 55.7757 62.482 55.6497C62.58 55.4117 62.496 55.3697 62.37 55.5937Z" fill="black"/>
<path d="M61.81 56.7977C61.6 57.1337 61.46 57.4417 61.488 57.4697C61.502 57.4837 61.726 57.5537 61.964 57.5957C62.342 57.6797 62.454 57.6377 62.706 57.3157C63.098 56.8257 63.084 56.6717 62.58 56.3917L62.174 56.1677L61.81 56.7977Z" fill="black"/>
<path d="M58.786 59.5981L58.31 60.1021L58.758 59.7941C59.234 59.4721 59.43 59.2481 59.332 59.1361C59.304 59.1081 59.052 59.3181 58.786 59.5981Z" fill="black"/>
<path d="M52.8501 66.6398C52.8081 66.7098 52.8361 66.7798 52.9061 66.7798C52.9901 66.7798 53.0601 66.7098 53.0601 66.6398C53.0601 66.5558 53.0321 66.4998 53.0041 66.4998C52.9621 66.4998 52.8921 66.5558 52.8501 66.6398Z" fill="black"/>
<path d="M48.37 68.1939C47.782 68.7959 47.726 68.8939 48.02 68.8099C48.622 68.6419 49.21 68.2499 49.252 67.9839C49.364 67.4239 49.028 67.5079 48.37 68.1939Z" fill="black"/>
<path d="M45.57 68.0399L45.01 68.2919L45.542 68.3059C45.892 68.3199 46.102 68.2499 46.158 68.1099C46.284 67.7739 46.172 67.7599 45.57 68.0399Z" fill="black"/>
<path d="M37.17 69.0198C35.784 69.1598 33.992 69.2858 33.18 69.2998L31.71 69.3278L33.11 69.5938C33.908 69.7618 35.434 69.9018 36.68 69.9578L38.85 70.0278L38.5 69.7478L38.15 69.4678L38.5 69.3138C38.696 69.2438 39.354 69.1318 39.97 69.0758C40.796 69.0058 40.992 68.9498 40.74 68.8658C40.25 68.7258 40.026 68.7398 37.17 69.0198Z" fill="black"/>
<path d="M27.7827 15.1714C27.729 15.3862 27.6914 15.6172 27.6914 15.6763C27.6914 15.7837 27.686 15.7837 27.5625 15.6655C27.4712 15.5796 27.396 15.5527 27.3208 15.5796C27.1704 15.6226 27.1811 15.7354 27.3477 16.0684L27.4873 16.3477L27.0308 17.9482C26.6172 19.3823 26.4883 19.8657 26.3809 20.3384C26.354 20.4565 26.2681 20.5103 25.7954 20.7036L25.2422 20.9238L24.1948 19.8657C23.6147 19.2803 22.9326 18.5767 22.6694 18.3027C22.4116 18.0342 22.186 17.8193 22.1753 17.8301C22.1645 17.8408 22.5298 18.7109 22.9917 19.769C23.4482 20.8218 23.8242 21.708 23.8242 21.7241C23.8242 21.7456 23.7114 21.8477 23.5718 21.9497C23.4268 22.0464 23.0991 22.3203 22.8413 22.5566L22.3633 22.981L21.4126 22.5137C20.8862 22.2612 20.4189 22.0518 20.3706 22.0518C20.3223 22.0518 20.2793 22.0947 20.2793 22.1431C20.2793 22.2236 20.2578 22.2129 20.1719 22.1055C20.0806 21.9873 20.0537 21.9819 19.9624 22.0356C19.8281 22.1216 19.7959 22.1216 19.7959 22.0518C19.7959 22.0195 19.8335 21.998 19.8765 21.998C19.9517 21.998 20.1182 21.7402 20.1182 21.6221C20.1182 21.5361 19.9463 21.5576 19.7476 21.6812C19.6509 21.7402 19.5596 21.7832 19.5488 21.7725C19.5381 21.7617 19.6186 21.6274 19.7261 21.4771C19.8872 21.2407 19.9087 21.1816 19.8496 21.1118C19.7368 20.9775 19.6025 21.0205 19.4951 21.2192C19.4414 21.3213 19.3769 21.4072 19.3555 21.4072C19.3286 21.4072 19.0386 21.2729 18.7109 21.1064L18.1094 20.8057L18.2651 21.0098C18.3511 21.1279 18.7378 21.606 19.1245 22.0786C20.3437 23.5664 21.1387 24.5762 21.1387 24.6353C21.1387 24.6675 21.0474 24.8286 20.9292 24.9951C20.8164 25.1616 20.6821 25.3818 20.6338 25.4731C20.521 25.6934 20.6177 25.6934 18.335 25.4893C17.352 25.3979 16.5303 25.3281 16.5034 25.3281C16.4766 25.3281 16.4658 25.2422 16.4766 25.1401C16.5034 24.9092 16.3745 24.7642 16.1973 24.8179C16.0952 24.8501 16.0845 24.8823 16.1113 25.0649C16.1489 25.312 16.2134 25.3013 15.2627 25.2153C14.9136 25.1885 14.6182 25.1724 14.6074 25.1831C14.5913 25.1938 14.9028 25.4087 15.2949 25.6504C16.0093 26.1016 17.6528 27.1597 18.7378 27.8633C19.0547 28.0728 19.3125 28.2554 19.3125 28.2769C19.3125 28.3735 19.1567 29.4746 19.1406 29.4854C19.1245 29.4961 16.1704 30.1621 15.4614 30.3179C15.2466 30.3608 15.0693 30.4146 15.0693 30.4307C15.0693 30.4468 15.2197 30.5005 15.4077 30.5488C15.5903 30.5972 16.4712 30.8228 17.3628 31.0483L18.9849 31.4673L18.9526 32.0903C18.9365 32.4341 18.915 32.7188 18.9097 32.7241C18.9043 32.7349 17.7334 32.9927 16.2993 33.3042C14.8706 33.6157 13.6406 33.8896 13.5708 33.9111C13.4526 33.9487 14.7041 34.2441 18.3779 35.0337L19.2964 35.2271L19.4307 35.8501C19.5059 36.1938 19.5542 36.4893 19.5435 36.5107C19.5327 36.5269 18.7002 36.9727 17.6851 37.499C16.6753 38.02 15.7891 38.4819 15.7139 38.5249C15.6011 38.584 15.9287 38.5894 17.8354 38.5625L20.0913 38.5303L20.3545 39.207C20.5801 39.7925 20.6069 39.8999 20.5425 39.959C20.4995 39.9966 20.0107 40.3672 19.4468 40.7754C18.2705 41.6455 17.959 41.8765 17.5132 42.2148L17.1909 42.4619L17.0513 42.2954C16.9331 42.145 16.9009 42.1343 16.7988 42.188C16.6484 42.2686 16.6484 42.4082 16.7935 42.5908C16.8579 42.6714 16.9009 42.7466 16.8901 42.7573C16.8794 42.7681 16.7773 42.8486 16.6592 42.9399C16.5464 43.0312 16.4712 43.1064 16.498 43.1064C16.5679 43.1064 19.0654 42.6606 19.0869 42.6445C19.1245 42.6177 18.9634 42.2417 18.8935 42.1826C18.8452 42.1396 18.7324 42.1343 18.5068 42.1719C18.2436 42.2148 18.1631 42.2095 18.0503 42.145C17.9751 42.0967 17.916 42.043 17.916 42.0161C17.916 41.9893 17.9751 42.0161 18.0503 42.0752C18.1792 42.1772 18.206 42.1772 18.4961 42.1074C18.6626 42.0698 18.8345 42.0376 18.8721 42.0322C18.9043 42.0322 18.9365 42 18.9365 41.957C18.9365 41.8496 19.1352 41.624 19.1836 41.6724C19.2051 41.6938 19.1943 41.7422 19.1621 41.7744C19.1245 41.812 19.0977 41.9463 19.0977 42.0698C19.0977 42.2524 19.1299 42.3384 19.2373 42.4458L19.3823 42.5908L19.479 42.4673C19.6025 42.3169 19.6079 42.0269 19.5005 41.8174C19.4521 41.7261 19.4414 41.6562 19.4683 41.6562C19.5649 41.6562 19.6885 41.9678 19.6885 42.2202C19.6885 42.521 19.6348 42.521 21.0366 42.2739C21.6274 42.1719 22.1269 42.0859 22.1484 42.0859C22.1753 42.0859 22.2773 42.1987 22.374 42.3384C22.4707 42.4834 22.6855 42.7573 22.8413 42.9561L23.1313 43.3105L22.331 44.7554C21.8852 45.5449 21.5361 46.2002 21.5415 46.2109C21.5522 46.2217 22.2559 45.9263 23.1045 45.5503L24.646 44.8735L24.7856 44.9971C24.8608 45.0615 25.0273 45.2119 25.1509 45.3301L25.3765 45.5396L25.1294 46.0283C24.9951 46.2969 24.6782 46.9038 24.4311 47.3765C24.1787 47.8491 23.8779 48.4131 23.7651 48.6279C23.6523 48.8428 23.5879 49.0039 23.6255 48.9824C23.7168 48.9233 25.3013 47.5376 25.9351 46.9575L26.456 46.4741L26.7407 46.7373C26.8911 46.8823 27.1274 47.0918 27.2563 47.1992L27.4873 47.3979L26.9985 48.7837C26.73 49.5464 26.4829 50.2231 26.456 50.293C26.4292 50.3574 26.4185 50.4111 26.4292 50.4111C26.456 50.4111 28.5239 49.208 28.9214 48.9556L29.1631 48.8105L29.4209 49.0254C29.5605 49.1489 29.6787 49.2778 29.6787 49.3208C29.6787 49.396 28.8516 53.8057 28.771 54.1816C28.7441 54.2944 28.7334 54.3857 28.7388 54.3857C28.7495 54.3857 29.206 53.7896 29.7593 53.0645C30.9463 51.5015 31.666 50.5723 31.6875 50.5723C31.6982 50.5723 31.8647 50.6636 32.0474 50.7817C32.2353 50.8945 32.52 51.0503 32.6758 51.1309C32.9014 51.2437 32.9551 51.2974 32.9282 51.3672C32.7134 51.915 31.7627 54.8745 31.7895 54.9067C31.8057 54.9175 32.7241 53.7734 33.4814 52.7905C33.7822 52.4038 34.0561 52.0654 34.0884 52.0493C34.1797 51.9902 34.7812 52.3018 34.8081 52.4253C34.8296 52.5327 34.9424 54.1602 34.9424 54.3428C34.9424 54.4287 34.8833 54.4395 34.459 54.4395C34.1958 54.4395 33.9756 54.4502 33.9756 54.4609C33.9756 54.4717 34.0615 54.7349 34.1689 55.041C34.416 55.7554 34.8135 56.5181 35.2378 57.082C35.603 57.5654 36.3442 58.3066 36.4678 58.3066C36.5859 58.3066 37.2895 57.6245 37.6226 57.1841C38.1811 56.4429 38.5195 55.8091 38.8149 54.9282C38.9009 54.6758 38.9707 54.4556 38.9707 54.4287C38.9707 54.4072 38.7397 54.3857 38.4604 54.3857C37.9663 54.3857 37.9502 54.3804 37.9556 54.2622C37.9609 53.9399 38.0952 52.3447 38.1167 52.334C38.1274 52.3232 38.2886 52.2427 38.4712 52.146L38.7988 51.9741L39.9429 53.4512C40.5713 54.2568 41.0923 54.9121 41.103 54.9014C41.1406 54.8691 40.5928 53.0698 40.2866 52.2104C40.1255 51.7539 39.9912 51.3457 39.9912 51.3081C39.9912 51.2651 40.0664 51.2007 40.1577 51.1577C40.2544 51.1201 40.5229 50.9751 40.7593 50.8301C40.9956 50.6904 41.2051 50.5723 41.2212 50.5723C41.2373 50.5776 41.9033 51.4209 42.6929 52.4575C43.4878 53.4941 44.1484 54.3267 44.1645 54.3159C44.1753 54.2998 44.1377 54.0151 44.0786 53.6821C43.9443 52.9624 43.9443 52.9355 44.0356 52.9355C44.0786 52.9355 44.1645 52.8765 44.229 52.8066C44.3311 52.6992 44.3418 52.6562 44.2935 52.5649C44.2183 52.4307 44.2183 52.4307 44.0195 52.5327C43.9282 52.5811 43.8584 52.5972 43.8584 52.5703C43.8584 52.5435 43.7241 51.813 43.563 50.9482C43.4019 50.0835 43.2676 49.3369 43.2676 49.2886C43.2676 49.2402 43.375 49.1113 43.5039 48.9985L43.7402 48.8052L45.0991 49.6055C45.8457 50.0459 46.4687 50.4004 46.4741 50.3896C46.4956 50.3735 45.8135 48.397 45.561 47.731L45.4321 47.3818L45.9639 46.936C46.4258 46.5547 46.5171 46.4956 46.5869 46.5547C46.6353 46.5923 47.167 47.0703 47.7739 47.6128C48.3809 48.1553 48.9985 48.6978 49.1436 48.8213L49.4121 49.0415L49.0576 48.3701C48.8589 47.9995 48.4453 47.2153 48.1284 46.6245L47.5644 45.5503L47.9136 45.2119C48.1123 45.0293 48.2895 44.8789 48.311 44.8789C48.3379 44.8789 48.5474 44.9648 48.7783 45.0723C49.4175 45.3677 51.394 46.2217 51.4102 46.2056C51.4155 46.2002 51.2759 45.9316 51.0986 45.6147L50.771 45.0347L50.916 44.8843C51.0825 44.707 51.0933 44.6318 50.9429 44.5566C50.8569 44.5083 50.8086 44.5137 50.728 44.5889C50.5884 44.7124 50.5723 44.6909 50.1265 43.9175L49.772 43.3052L50.0835 42.9238C50.25 42.7144 50.4595 42.4404 50.5508 42.3169C50.6367 42.188 50.728 42.0859 50.7495 42.0859C50.771 42.0859 51.2812 42.1719 51.8774 42.2739C52.4736 42.376 53.0107 42.4619 53.0698 42.4619C53.1611 42.4619 53.1772 42.4243 53.1826 42.2202C53.188 41.9839 53.3169 41.71 53.4243 41.71C53.4512 41.71 53.4404 41.7637 53.3975 41.8281C53.3061 41.957 53.2847 42.333 53.3599 42.4565C53.4297 42.5693 53.6123 42.478 53.709 42.2793C53.7734 42.145 53.7788 42.0591 53.7412 41.9194C53.6768 41.6938 53.6768 41.6562 53.7358 41.6562C53.7627 41.6562 53.8325 41.7422 53.897 41.8442C54.0903 42.1719 54.4824 42.2632 54.7886 42.0591L55.0034 41.9141L54.8423 42.0859C54.6704 42.2686 54.6758 42.2686 54.1064 42.1611C53.9023 42.1235 53.9023 42.1289 53.7895 42.3813C53.7305 42.5156 53.6875 42.6392 53.6982 42.6445C53.7197 42.6606 56.3301 43.1064 56.3945 43.1064C56.4214 43.1064 56.1904 42.9077 55.8843 42.6714C55.5781 42.4297 55.2935 42.2041 55.2559 42.1665C55.1968 42.1128 55.2129 42.0537 55.374 41.8442C55.4814 41.71 55.5674 41.5596 55.5674 41.5166C55.5674 41.3823 55.3579 41.436 55.1377 41.6348C55.0034 41.7583 54.9014 41.812 54.8584 41.7852C54.7832 41.7368 52.4521 40.002 52.3823 39.9375C52.3555 39.916 52.4575 39.5991 52.6025 39.2339L52.8657 38.5679L55.1162 38.584C56.3516 38.5947 57.356 38.5894 57.3398 38.5786C57.3237 38.5679 56.4321 38.1006 55.3525 37.5474C54.2729 36.9888 53.3813 36.5269 53.3706 36.5161C53.3599 36.5107 53.4028 36.2153 53.4727 35.8608L53.5962 35.2217L53.8701 35.168C54.8154 34.9692 57.4902 34.3999 57.5708 34.373C57.6406 34.3516 57.6621 34.373 57.6621 34.4697C57.6621 34.5396 57.6943 34.647 57.7373 34.7007C57.8394 34.8457 57.9736 34.7275 57.9951 34.4697L58.0112 34.2764L58.4409 34.1851C58.6772 34.1367 59.0103 34.0669 59.1821 34.0293C59.354 33.9971 59.4829 33.9541 59.4722 33.938C59.4561 33.9272 59.2305 33.8682 58.9673 33.8091C58.2153 33.6426 54.5469 32.8477 54.2407 32.7832L53.9561 32.7241V32.0957V31.4619L54.8315 31.2417C55.8735 30.9785 57.6567 30.5005 57.7695 30.4521C57.834 30.4253 55.4277 29.8506 54.1064 29.5767L53.8057 29.5122L53.7412 28.9912C53.709 28.7065 53.666 28.4219 53.6553 28.3574C53.6284 28.2661 53.7412 28.1694 54.3696 27.7612C54.7778 27.4927 55.7769 26.8428 56.5879 26.311C57.3989 25.7793 58.1401 25.3013 58.2261 25.2529C58.3872 25.1616 58.3818 25.1616 57.9844 25.1938C57.2324 25.2476 52.8013 25.6504 52.6348 25.6772C52.479 25.7041 52.4521 25.688 52.3179 25.4517C52.2319 25.3066 52.0815 25.0649 51.9795 24.9092L51.7915 24.6245L51.9741 24.3989C52.0708 24.2754 52.7529 23.4321 53.4834 22.5244C54.2139 21.6167 54.8154 20.8647 54.8154 20.8486C54.8154 20.8271 54.4932 20.9775 54.0957 21.1763C53.6982 21.3804 53.3813 21.563 53.3921 21.5952C53.4028 21.6221 53.4243 21.6919 53.4458 21.7456C53.4834 21.8369 53.4727 21.8369 53.3061 21.7349C53.2041 21.6704 53.0537 21.6221 52.9731 21.6221C52.8335 21.6221 52.8228 21.6328 52.855 21.7993C52.8818 21.939 52.8657 21.998 52.7744 22.0786C52.6831 22.1592 52.6509 22.1646 52.6186 22.1108C52.5596 22.0142 52.479 22.0464 51.4316 22.5405L50.54 22.9648L50.25 22.6909C50.0889 22.5405 49.7666 22.272 49.541 22.0894C49.3101 21.9121 49.1221 21.7402 49.1221 21.708C49.1221 21.6812 49.4336 20.9131 49.8203 20.0054C50.2017 19.0977 50.5669 18.2222 50.626 18.0664L50.7388 17.7817L50.3198 18.2114C50.0889 18.4478 49.4014 19.1514 48.7891 19.7798L47.6826 20.9185L47.124 20.6929L46.5708 20.4619L46.4741 20.0913C46.4204 19.8818 46.2324 19.2319 46.0605 18.6411C45.8833 18.0503 45.7007 17.4165 45.6523 17.2339L45.561 16.9009L45.7329 16.6484C45.8242 16.5088 45.8994 16.3799 45.8994 16.3584C45.8994 16.3369 45.8403 16.2886 45.7651 16.251C45.647 16.1865 45.6201 16.1919 45.5234 16.2778C45.3945 16.3906 45.4214 16.4497 45.1797 15.5044C44.9971 14.79 44.9971 14.79 44.9648 15.0479C44.8628 15.8696 44.2827 20.1343 44.2559 20.2686C44.2236 20.4189 44.2075 20.4297 43.8584 20.4619C43.6543 20.478 43.3159 20.5317 43.1011 20.5747C42.7412 20.6499 42.7144 20.6499 42.6445 20.564C42.6016 20.5103 41.9839 19.5972 41.2749 18.5337C40.5605 17.4702 39.9912 16.6484 40.0073 16.7075C40.0933 16.9761 40.8667 21.4072 40.8345 21.4395C40.7915 21.4824 37.977 23.3354 37.9717 23.3247C37.9663 23.3193 37.9287 22.7876 37.8911 22.1484C37.832 21.1709 37.8374 20.9507 37.8965 20.7573C37.9609 20.5586 37.9609 20.5156 37.8804 20.376L37.7891 20.2148L38.0254 19.9517C38.3208 19.6187 38.4497 19.2642 38.4443 18.7593C38.439 18.2651 38.2295 17.814 37.8374 17.4648C37.4453 17.1157 37.0747 16.9814 36.4463 16.9814C35.979 16.9761 35.9038 16.9922 35.5762 17.1479C35.1411 17.3521 34.8135 17.6689 34.6255 18.0718C34.5073 18.3296 34.4858 18.4424 34.4858 18.856C34.4858 19.4307 34.5986 19.7207 34.9316 20.0483L35.1465 20.2578L35.0391 20.4351C34.9263 20.6069 34.9263 20.6177 35.0176 20.7842C35.1035 20.9453 35.1035 21.0527 35.0498 22.1108C35.0176 22.7446 34.9853 23.2817 34.98 23.3032C34.9639 23.3623 32.1279 21.4771 32.1064 21.3965C32.1011 21.3589 32.2622 20.3062 32.4717 19.0547C32.6758 17.8086 32.8477 16.7559 32.8477 16.7183C32.8477 16.686 32.7187 16.8472 32.5684 17.0835C31.6123 18.5444 30.3501 20.4297 30.2642 20.5264C30.1621 20.6338 30.1567 20.6338 29.6357 20.5425C29.3511 20.4888 29.0181 20.4458 28.8945 20.4404H28.6743L28.5615 19.6187C28.4971 19.1729 28.3198 17.9214 28.1748 16.8418C28.0244 15.7622 27.8955 14.8545 27.8848 14.8276C27.8794 14.7954 27.831 14.9512 27.7827 15.1714ZM36.8061 17.5454C37.021 17.626 37.1982 17.8086 37.1982 17.9536C37.1982 18.1309 36.9834 18.2544 36.7524 18.2114C36.4785 18.1577 36.2583 18.2222 35.9897 18.4316C35.7104 18.6411 35.5601 18.6626 35.4795 18.5015C35.3291 18.2222 35.6836 17.7603 36.1885 17.5884C36.5215 17.4702 36.602 17.4648 36.8061 17.5454ZM27.6968 18.4639C27.5571 18.856 27.6914 19.5757 27.96 19.9194L28.0674 20.0537L27.831 20.0698C27.6055 20.0913 27.6001 20.0859 27.6699 19.9785C27.7344 19.8818 27.729 19.8066 27.6269 19.4146L27.5088 18.958L27.6162 18.48C27.6807 18.1631 27.7236 18.0503 27.7344 18.147C27.7451 18.2329 27.729 18.3726 27.6968 18.4639ZM45.3569 19.0171C45.3569 19.1621 45.3247 19.3823 45.2817 19.5005C45.1904 19.7529 45.1797 19.9355 45.2549 19.9839C45.373 20.0537 45.2978 20.0913 45.0615 20.0752L44.8198 20.0537L44.9272 19.9355C45.228 19.6133 45.3677 19.001 45.2334 18.5444C45.1851 18.3833 45.1475 18.2061 45.1528 18.147C45.1582 17.9321 45.3569 18.7646 45.3569 19.0171ZM31.9077 19.3447C31.8809 19.6724 31.8594 19.7368 31.8003 19.6885C31.7412 19.6401 31.7412 19.6025 31.8057 19.4844C31.8486 19.4038 31.8809 19.2158 31.8862 19.0708C31.8862 18.9204 31.9023 18.8345 31.9185 18.8721C31.9346 18.915 31.9292 19.1245 31.9077 19.3447ZM41.0869 19.5327C41.1084 19.5757 41.0977 19.6724 41.0708 19.7476C41.0171 19.8765 41.0171 19.8765 41.0117 19.7153C41.0063 19.624 40.9956 19.3823 40.9902 19.1782L40.9687 18.8022L41.0063 19.1245C41.0278 19.3018 41.0654 19.4844 41.0869 19.5327ZM26.9824 19.4468C26.9502 19.522 26.9126 19.5757 26.9072 19.5649C26.875 19.5327 26.9556 19.3125 26.9985 19.3125C27.0254 19.3125 27.0146 19.3716 26.9824 19.4468ZM45.9961 19.5273C46.0283 19.6133 46.0444 19.6885 46.0337 19.6885C46.0068 19.6885 45.8457 19.3877 45.8457 19.3394C45.8457 19.2588 45.9478 19.3823 45.9961 19.5273ZM31.6714 20.0591C31.564 20.1665 31.5371 20.2793 31.5532 20.5264C31.564 20.6392 31.3491 21.0259 31.2793 21.0312C31.231 21.0312 31.2847 20.8809 31.3921 20.7144C31.4351 20.6445 31.478 20.5103 31.4834 20.4189C31.4941 20.1772 31.6606 19.8228 31.7305 19.8926C31.7681 19.9302 31.7466 19.9839 31.6714 20.0591ZM41.2856 20.0215C41.436 20.2041 41.4092 20.2524 41.2319 20.1074C41.1514 20.0376 41.0923 19.9678 41.103 19.9409C41.1406 19.8818 41.1782 19.8979 41.2856 20.0215ZM41.4307 20.478C41.4199 20.5317 41.4629 20.666 41.5327 20.7734C41.667 20.9883 41.6777 21.0312 41.6133 21.0312C41.5381 21.0312 41.3286 20.5693 41.3662 20.478C41.4092 20.3599 41.4575 20.3599 41.4307 20.478ZM37.4185 20.5801C37.6172 20.6768 37.6064 20.811 37.397 20.9131L37.2519 20.9829L37.2466 21.7993C37.2412 22.7339 37.166 22.5835 37.1392 21.5791L37.123 20.9775H36.8115H36.5L36.4893 22.0625C36.4839 23.04 36.4785 23.0938 36.4463 22.5889C36.4248 22.2773 36.4033 21.7886 36.3979 21.4985L36.3926 20.9775H36.1025H35.8125L35.7749 21.4985C35.7212 22.3203 35.7104 22.3418 35.6997 21.6328L35.6943 20.9775L35.5493 20.9185C35.27 20.8164 35.2485 20.6768 35.4956 20.5747C35.7534 20.4619 37.1982 20.4619 37.4185 20.5801ZM25.7041 21.8208C25.1724 22.1753 24.6138 22.6533 23.9316 23.3408C22.562 24.7158 21.5576 26.1606 20.9077 27.6968C20.5102 28.6206 20.5102 28.6421 20.6875 29.0288C20.7842 29.249 20.8486 29.3403 20.8755 29.292C20.897 29.2544 21.0259 28.9429 21.1602 28.6045C21.9228 26.7192 22.9326 25.1401 23.9853 24.1895L24.3237 23.8833L24.5977 24.1089C25.0703 24.4956 26.8052 25.9351 26.8535 25.978C26.8804 25.9995 26.6602 26.2573 26.3647 26.5527C25.4141 27.5034 24.8394 28.2983 24.2378 29.4961L23.9424 30.0815L22.8306 31.0591C22.2183 31.6016 21.7026 32.042 21.6811 32.042C21.665 32.042 21.5952 31.9131 21.5361 31.7573C21.4717 31.6069 21.1494 30.8389 20.8164 30.0547C20.3706 28.9912 20.2256 28.5938 20.2471 28.481C20.3545 27.96 21.187 26.3379 21.8477 25.3711C22.8789 23.8672 23.9102 22.8574 25.3281 21.9766C25.9297 21.6006 26.1982 21.4878 25.7041 21.8208ZM48.021 22.2075C48.8481 22.75 49.8149 23.6631 50.5293 24.5815C51.2544 25.5107 52.1621 27.1274 52.5381 28.1587L52.6831 28.5562L52.479 29.0771C52.2856 29.5659 51.2705 31.9937 51.2383 32.0312C51.2329 32.042 50.8301 31.7036 50.3467 31.2793C49.8686 30.855 49.3584 30.4146 49.2187 30.2964C49.0146 30.1245 48.8965 29.9473 48.6226 29.3833C48.0371 28.2017 47.2744 27.1543 46.4097 26.3594L46.0068 25.9941L46.1841 25.8652C46.3828 25.7148 47.8276 24.5278 48.2788 24.1357L48.585 23.8726L48.7891 24.0283C49.2295 24.3774 49.9385 25.2153 50.4272 25.9727C50.8086 26.5635 51.3296 27.6162 51.7324 28.5991L52.0439 29.3726L52.1997 29.0288C52.3394 28.7173 52.3501 28.6636 52.2964 28.4595C52.1943 28.0674 51.668 26.9019 51.3188 26.3057C50.438 24.7856 48.8696 22.9863 47.6719 22.1162C47.4194 21.9336 47.167 21.7456 47.1079 21.7026C46.936 21.563 47.6128 21.939 48.021 22.2075ZM53.1504 22.127C53.0806 22.1968 52.9624 22.0894 53.0161 21.998C53.043 21.9551 53.0752 21.9551 53.1289 22.0034C53.1826 22.0464 53.1934 22.084 53.1504 22.127ZM30.9409 22.5352C32.6006 22.8843 34.0024 23.6846 35.7642 25.2959L36.4463 25.9243L36.9189 25.4946C38.4658 24.0767 39.8193 23.1958 41.0654 22.7822C41.8872 22.5083 42.5264 22.4116 43.4824 22.4062C44.519 22.4009 45.1045 22.4922 46.0713 22.8037C46.834 23.0562 47.7256 23.4429 47.7202 23.5234C47.7202 23.5557 47.6558 23.6362 47.5752 23.6953L47.4302 23.8135L46.8018 23.502C45.1582 22.6909 43.5146 22.4922 41.9517 22.9111C41.5166 23.0239 40.6196 23.3462 40.6465 23.373C40.6572 23.3838 40.856 23.3301 41.0869 23.2603C42.854 22.6963 44.7446 22.9863 46.4687 24.082C46.689 24.2217 46.8608 24.3506 46.8501 24.3721C46.8447 24.3882 46.5117 24.6997 46.1143 25.0542L45.3892 25.7041L44.9595 25.6665C44.7231 25.6396 44.0356 25.6235 43.4287 25.6235C42.231 25.6235 41.9087 25.6719 41.0225 25.978C40.1792 26.2681 39.1641 26.8428 38.6001 27.3477C38.1489 27.7505 38.1113 27.627 38.5356 27.1436L38.7612 26.8911L38.4658 26.9771C38.3047 27.02 38.1328 27.0469 38.0845 27.0254C38.0361 27.0093 37.9448 26.8696 37.8857 26.7192L37.7676 26.4453L37.6978 26.6924C37.6064 27.0039 37.4614 27.0952 37.3003 26.9341C37.209 26.8428 37.1929 26.7837 37.2251 26.6279C37.3003 26.2144 37.5098 25.8706 38.0146 25.3496L38.5142 24.8286L37.8159 25.3604C37.4346 25.6504 36.9619 26.0156 36.7739 26.1714L36.4302 26.4507L36.1294 26.1929C35.9629 26.0532 35.4795 25.6611 35.0498 25.3281C34.3247 24.7642 34.2978 24.748 34.6577 25.0918C34.8726 25.3013 35.0605 25.5322 35.082 25.6128C35.1519 25.8975 35.0713 26.6279 34.9263 27.0415C34.7222 27.6216 34.7061 27.627 34.3247 27.3101C33.1001 26.2896 31.564 25.6772 29.9473 25.5698C29.4477 25.5322 28.1909 25.6128 27.7827 25.7041C27.584 25.7471 27.5625 25.7363 27.2187 25.4355C27.02 25.2637 26.6763 24.9521 26.456 24.748C25.9888 24.3076 25.9727 24.3506 26.6602 23.9424C27.2402 23.5879 27.7881 23.3623 28.5508 23.1636C29.0879 23.0239 29.2651 23.0024 29.9473 22.9971C30.7852 22.9917 31.2632 23.0669 31.999 23.314C32.2139 23.3838 32.3911 23.4375 32.4019 23.4268C32.4287 23.4053 31.4888 23.0454 31.1289 22.9434C29.4961 22.4761 27.7397 22.6802 26.0478 23.5288L25.4624 23.8242L25.3066 23.6685L25.1509 23.5127L25.5215 23.3247C26.3271 22.9219 27.5088 22.5566 28.4165 22.4331C29.0019 22.3525 30.3179 22.4062 30.9409 22.5352ZM20.333 22.562C20.4082 22.605 20.4458 22.6372 20.4136 22.6372C20.3867 22.6372 20.3008 22.605 20.2256 22.562C20.1504 22.519 20.1182 22.4868 20.145 22.4868C20.1772 22.4868 20.2578 22.519 20.333 22.562ZM52.8281 22.519C52.7852 22.5352 52.6831 22.5835 52.6025 22.6265C52.5166 22.6641 52.4521 22.6855 52.4521 22.6748C52.4521 22.6265 52.7422 22.4868 52.8281 22.4868C52.8979 22.4922 52.8979 22.4922 52.8281 22.519ZM21.3696 23.1099C21.332 23.1206 21.2676 23.1206 21.2353 23.1099C21.1977 23.0938 21.2246 23.083 21.2998 23.083C21.375 23.083 21.4019 23.0938 21.3696 23.1099ZM51.6841 23.1045C51.668 23.1206 51.6196 23.126 51.582 23.1099C51.5391 23.0938 51.5552 23.0776 51.6143 23.0776C51.6733 23.0723 51.7056 23.0884 51.6841 23.1045ZM21.6919 23.4697C21.708 23.5127 21.708 23.561 21.6919 23.5771C21.6435 23.6255 21.5093 23.4966 21.5469 23.4429C21.5898 23.373 21.6597 23.3838 21.6919 23.4697ZM51.3779 23.4751C51.3779 23.5181 51.3403 23.5557 51.2974 23.5557C51.2114 23.5557 51.1899 23.4912 51.2544 23.4321C51.3135 23.3677 51.3779 23.3892 51.3779 23.4751ZM17.3413 25.9834C17.4058 26.0156 17.6904 26.123 17.9697 26.2197L18.4746 26.397H18.1738C17.9644 26.3916 17.8784 26.3701 17.8945 26.3271C17.9321 26.2305 17.395 26.064 17.019 26.0586C16.831 26.0532 16.6807 26.0479 16.6807 26.0371C16.6807 26.0317 16.7344 25.9995 16.8042 25.9727C16.9707 25.9028 17.207 25.9082 17.3413 25.9834ZM56.1528 25.9941C56.271 26.0586 56.2603 26.064 56.0132 26.0425C55.6641 26.0049 55.0034 26.209 55.0518 26.3325C55.0786 26.3916 55.0625 26.4023 54.998 26.3809C54.9551 26.3647 54.8369 26.3486 54.7456 26.3486C54.606 26.3486 54.6436 26.3218 54.9497 26.209C55.1592 26.1338 55.4116 26.0425 55.5137 25.9995C55.7554 25.9082 55.9917 25.9028 56.1528 25.9941ZM19.7261 26.2681C20.2471 26.499 20.1772 26.5151 19.624 26.2896C19.3931 26.1982 19.1675 26.1338 19.1245 26.1553C19.0332 26.1875 19.0171 26.3809 19.0977 26.4292C19.1299 26.4453 19.1514 26.4883 19.1514 26.5259C19.1514 26.5688 19.1352 26.5688 19.0869 26.5205C19.0493 26.4829 18.915 26.4561 18.7808 26.4507C18.5283 26.4453 18.5283 26.4346 18.7915 26.3809C18.8721 26.3594 18.9258 26.3218 18.9097 26.2949C18.8721 26.2358 19.0923 26.0801 19.2158 26.0801C19.2642 26.0801 19.4951 26.166 19.7261 26.2681ZM53.9668 26.209C54.0527 26.3003 54.1709 26.3486 54.332 26.3647L54.5737 26.3862L54.2998 26.3916C54.1064 26.397 53.9668 26.4399 53.8271 26.5366L53.6284 26.6709L53.7734 26.4829C53.9238 26.2842 53.9131 26.1338 53.7519 26.1338C53.6929 26.1338 53.4727 26.2036 53.2578 26.2949C52.8496 26.4614 52.7261 26.499 52.9087 26.3916C53.1128 26.2734 53.6069 26.0801 53.7197 26.0801C53.7842 26.0801 53.8916 26.1392 53.9668 26.209ZM18.5068 27.0791C18.625 27.1597 18.7217 27.2295 18.7217 27.2402C18.7217 27.2778 18.1846 27.0146 18.1846 26.9771C18.1846 26.9019 18.292 26.9395 18.5068 27.0791ZM54.7026 27.02C54.6865 27.0308 54.5791 27.0845 54.4609 27.1328C54.23 27.2295 54.2676 27.1543 54.52 27.0254C54.6597 26.9556 54.7725 26.9502 54.7026 27.02ZM41.71 27.9707C42.7197 28.1587 43.7886 28.8516 44.4707 29.7539C44.7983 30.189 45.2817 31.043 45.0078 30.6992C44.7822 30.4146 44.0034 29.6196 43.9014 29.5659C43.8477 29.5391 43.9336 29.7271 44.1001 30.0063C44.3686 30.4629 44.6641 31.1235 44.6641 31.2793C44.6641 31.3115 44.7446 31.376 44.8413 31.4189C45.1797 31.5586 45.4106 32.0098 45.3408 32.3857C45.3193 32.4878 45.2173 32.6758 45.1152 32.7993C44.9111 33.0464 44.7178 33.3955 44.6157 33.7124C44.5566 33.895 44.562 33.9272 44.7124 34.1528C45.0186 34.604 45.0615 35.1948 44.8037 35.4526C44.7124 35.5386 44.6694 35.6621 44.6479 35.8931C44.605 36.3174 44.5674 36.3926 44.4277 36.3926C44.2827 36.3926 44.1807 36.2046 44.1807 35.936C44.1807 35.5762 44.0732 35.4849 43.9443 35.7373C43.8853 35.8555 43.853 36.4517 43.8047 38.729C43.6973 43.4824 43.6758 43.6973 43.6274 40.3027C43.606 38.6538 43.5737 37.2681 43.5576 37.2251C43.5361 37.1768 43.4824 37.1445 43.4341 37.1553C43.3159 37.1768 43.2891 37.4292 43.2461 39.019C43.2031 40.394 43.1709 40.6357 42.999 40.6357C42.7949 40.6357 42.7788 40.5229 42.7842 39.2017C42.7949 36.1885 42.7842 34.835 42.7358 34.835C42.709 34.835 42.6553 35.0928 42.6177 35.4043C42.5532 35.9683 42.5532 35.9683 42.4189 35.936C42.3437 35.9199 42.2363 35.936 42.1611 35.9897C41.9194 36.1455 42.043 36.5 42.3384 36.5C42.4082 36.5 42.4619 36.5161 42.4512 36.5376C42.2632 36.8975 42.2363 37.0264 42.2578 37.4453C42.2686 37.7998 42.2954 37.918 42.3975 38.0522C42.6875 38.4443 42.4082 39.1855 42.0806 38.8848C41.8926 38.7129 41.812 38.2993 41.7637 37.166C41.7368 36.5752 41.6885 35.979 41.6616 35.8447C41.5918 35.5386 41.6133 35.4688 41.8496 35.2915C42.0107 35.168 42.0322 35.125 42.0322 34.9102C42.0322 34.4214 41.7368 34.083 41.3179 34.083C41.0386 34.083 40.8022 34.2173 40.7163 34.4214L40.6465 34.5933L40.6143 34.3516C40.5981 34.2173 40.5605 33.4707 40.5283 32.6865C40.4746 31.2524 40.3779 29.6465 40.3403 29.5444C40.3188 29.4854 40.3188 29.5015 40.2705 31.1182C40.2383 32.0796 40.2222 32.2192 40.1362 32.2622C40.0073 32.3374 39.8838 32.5952 39.8838 32.8047C39.8838 32.9014 39.9429 33.127 40.0181 33.3042C40.0933 33.4868 40.1523 33.7339 40.1523 33.8735C40.1523 34.083 40.1309 34.1367 40.0127 34.2173C39.7119 34.4106 39.6421 34.8779 39.8569 35.2969C40.0127 35.603 40.0234 35.8931 39.9375 37.542C39.8569 39.062 39.7441 39.5078 39.4541 39.5078C39.2446 39.5078 39.1909 39.2017 39.0996 37.5742C39.0566 36.7095 39.0029 36.8115 38.9438 37.875C38.8633 39.5347 38.8257 39.8784 38.7075 40.0234C38.5571 40.2168 38.5571 40.582 38.7021 40.7163C38.8418 40.8452 38.8418 41.0439 38.6968 41.1191C38.5464 41.2051 38.4014 41.0654 38.3101 40.7593C38.2402 40.5283 38.2402 40.5229 38.1436 40.6304C38.0898 40.6895 38.0361 40.8291 38.02 40.9473C37.9985 41.1245 38.02 41.2212 38.1597 41.4575C38.2563 41.6294 38.3262 41.8281 38.3262 41.9355C38.3262 42.1558 38.1543 42.4082 37.9985 42.4082C37.9072 42.4082 37.8965 42.4512 37.8965 42.8755C37.8911 43.1387 37.8696 44.3364 37.8428 45.5503C37.7998 47.6396 37.7676 48.0479 37.6333 48.0479C37.4883 48.0479 37.4561 47.6128 37.4131 44.9863C37.3486 41.2266 37.3325 40.9902 37.1392 40.5767L36.9834 40.249L36.9243 37.8481C36.8437 34.3516 36.7686 34.2549 36.688 37.5474C36.6719 38.2241 36.6343 39.3145 36.602 39.9644C36.5322 41.5811 36.4033 44.9863 36.355 46.6782L36.312 48.0747L36.2798 46.9468C36.2637 46.3237 36.2422 44.7017 36.2368 43.3374C36.2314 40.8882 36.1562 37.6172 36.0757 36.543C36.0327 35.9414 36.0327 36.0327 35.9092 40.9526C35.8608 42.8218 35.8447 43.0903 35.7588 43.2085C35.7051 43.2891 35.646 43.5415 35.6138 43.7993C35.5815 44.0732 35.5332 44.2612 35.4956 44.2773C35.4473 44.2881 35.4258 44.2397 35.4258 44.1377C35.4258 43.9175 35.2378 43.6973 35.0552 43.6973C34.8081 43.6973 34.6523 43.9175 34.6523 44.2612C34.6523 44.5889 34.7705 44.7715 34.98 44.7715C35.1465 44.7715 35.1572 45.0078 34.9907 45.0938C34.792 45.2012 34.6362 45.1152 34.5342 44.8521C34.459 44.6426 34.4482 44.4976 34.4805 43.8584C34.5181 43.1226 34.5127 43.1064 34.3945 42.9829C34.271 42.8594 34.271 42.854 34.3623 42.6982C34.4268 42.5854 34.4644 42.3599 34.4912 41.9463C34.5342 41.2266 34.4912 40.8989 34.3301 40.7056C34.2334 40.5928 34.2012 40.4854 34.1958 40.2705C34.1958 40.1147 34.1797 39.959 34.1636 39.9321C34.1421 39.9053 34.1636 39.8677 34.2065 39.8516C34.3569 39.7979 34.416 39.5186 34.4214 38.8794C34.4321 38.3369 34.416 38.2241 34.3301 38.0952L34.228 37.9448L34.4482 37.7192C34.9531 37.2036 34.9692 36.5537 34.4805 36.1294L34.2871 35.9575V35.3452C34.2871 34.7544 34.2925 34.7222 34.4321 34.5557C34.7705 34.1528 34.8135 33.6318 34.5449 33.2236C34.4214 33.0356 34.3999 32.9175 34.3247 32.0098C34.2764 31.4512 34.228 30.9893 34.2173 30.9731C34.2012 30.9624 34.1904 31.6392 34.1904 32.4878C34.1904 33.4438 34.1689 34.0776 34.1313 34.1743C34.1045 34.2549 33.981 34.4375 33.8628 34.5771L33.6533 34.8296V36.2529C33.6533 37.6602 33.6211 37.9502 33.4707 37.9502C33.2827 37.9502 33.2559 37.7998 33.2129 36.3765C33.1753 35.0874 33.1377 34.7974 33.0249 34.9102C32.998 34.9316 32.9604 35.5601 32.939 36.3013C32.896 37.6709 32.8638 38.0039 32.7671 38.02C32.6811 38.0361 32.6436 37.5742 32.5522 35.5601C32.4717 33.8252 32.332 31.7251 32.2891 31.6821C32.2783 31.6714 32.2568 32.1763 32.2353 32.8047C32.2192 33.4331 32.187 34.1689 32.1709 34.4429C32.1387 34.9209 32.1279 34.937 31.9829 34.9961C31.6875 35.1196 31.521 35.5547 31.623 35.9521C31.6821 36.1831 31.9346 36.5107 32.0957 36.5645C32.1602 36.5859 32.144 36.6289 32.0205 36.7686L31.8701 36.9512L31.9077 37.687C31.9399 38.3638 31.9346 38.4443 31.8325 38.6753L31.7197 38.9277L31.8486 39.0942C32.0474 39.3521 32.1064 39.54 32.0151 39.6152C31.9775 39.6475 31.9077 39.7549 31.8594 39.8569C31.7788 40.0234 31.7788 40.0718 31.8755 40.5122C32.0957 41.5112 32.1172 42.5962 31.9185 42.9829C31.6982 43.4019 31.1504 43.2139 31.1934 42.7358C31.2095 42.5747 31.2417 42.5264 31.4082 42.4512C31.6606 42.333 31.7734 42.1665 31.7734 41.9194C31.7734 41.4575 31.231 41.1943 30.9731 41.5273C30.8872 41.6401 30.8603 41.7476 30.8603 42.0107C30.8603 42.3706 30.7905 42.4673 30.7314 42.188C30.6777 41.9194 30.6938 41.7852 30.8066 41.4468C30.9302 41.0923 30.9033 40.9365 30.6777 40.7539C30.5649 40.668 30.5435 40.6196 30.5703 40.4854C30.5918 40.3833 30.5703 40.2544 30.5166 40.147C30.4683 40.0503 30.436 39.9697 30.4414 39.9697C30.6294 39.9053 30.8013 39.7603 30.8818 39.5938C30.9785 39.4004 30.9785 39.3735 30.8979 39.2178C30.8442 39.1157 30.8013 38.8311 30.7852 38.4604C30.7476 37.7676 30.6885 37.5259 30.5112 37.311C30.4092 37.1929 30.3769 37.0908 30.3769 36.8975C30.3716 36.7524 30.3447 36.5645 30.3071 36.4785C30.2427 36.3389 30.2534 36.312 30.3877 36.1724C30.5596 36.0005 30.5649 35.9629 30.479 34.9585C30.4521 34.5771 30.3877 34.1636 30.3394 34.04C30.2642 33.8198 30.2642 33.7822 30.3769 33.4009C30.5166 32.939 30.5005 32.6006 30.3232 32.1333C30.1782 31.7573 30.189 31.666 30.3823 31.4028C30.5273 31.1987 30.5381 31.1611 30.4683 31.0859C30.334 30.9302 30.248 30.7368 30.189 30.4307C30.1245 30.1353 30.1245 30.1353 29.9419 30.1514C29.6787 30.1782 29.3779 30.3931 29.2383 30.6616C29.1309 30.8657 29.1201 31 29.0825 32.1494C29.0557 32.8423 29.0234 34.2817 29.0019 35.3398C28.9858 36.4033 28.9482 37.2358 28.9268 37.1929C28.9053 37.1499 28.873 36.0972 28.8623 34.8511C28.8354 32.4019 28.8569 32.5845 28.54 32.1924C28.3789 31.9883 28.3896 31.5317 28.5723 31.0913C28.6475 30.9033 28.7119 30.6509 28.7119 30.5273C28.7119 30.3662 28.7817 30.1567 28.9429 29.8237C29.0664 29.5659 29.1631 29.3564 29.1523 29.3564C29.0395 29.3564 28.2339 30.2051 27.8364 30.7529C27.7827 30.8281 27.8149 30.7422 27.9116 30.5649C28.6313 29.2114 29.6733 28.3521 30.9893 28.0137C31.5049 27.8848 32.3965 27.8687 32.9443 27.9868C34.2978 28.2715 35.3882 29.1738 35.6675 30.2427C35.7642 30.6187 35.7695 30.9033 35.689 31.3867C35.6353 31.7144 35.6138 31.752 35.458 31.8271C35.1411 31.9775 35.1357 32.4233 35.4526 32.5737C35.7373 32.7134 35.8286 32.606 36.4463 31.3706C37.0801 30.1084 37.397 29.5874 37.8052 29.1577C38.7612 28.1426 40.2383 27.6968 41.71 27.9707ZM19.0977 30.1621C19.1514 30.1997 19.103 30.2051 18.9365 30.1836C18.6357 30.1406 18.5928 30.1084 18.8345 30.1084C18.9365 30.1084 19.0547 30.1353 19.0977 30.1621ZM54.332 30.2427C54.332 30.3179 54.3105 30.377 54.2837 30.377C54.2568 30.377 54.2461 30.3286 54.2622 30.2695C54.2837 30.1836 54.2622 30.1621 54.1494 30.1621C54.0688 30.1621 53.9561 30.189 53.897 30.2158C53.8379 30.2534 53.7949 30.2534 53.7949 30.2212C53.7949 30.1514 53.897 30.1191 54.1333 30.1138C54.3105 30.1084 54.332 30.1245 54.332 30.2427ZM18.6304 30.4951C18.7969 30.5811 18.6948 30.6025 18.4477 30.5327C18.3188 30.5005 17.9536 30.4683 17.6367 30.4629C17.3198 30.4629 17.0996 30.4414 17.1533 30.4199C17.2769 30.3662 18.5068 30.4307 18.6304 30.4951ZM55.852 30.436C56.1528 30.5166 56.0776 30.5327 55.6855 30.4683C55.417 30.4199 55.2397 30.4253 54.7993 30.5005C54.4932 30.5488 54.1978 30.6025 54.1387 30.6187C54.042 30.6509 54.042 30.6509 54.1333 30.5918C54.2568 30.5112 54.9658 30.3931 55.3525 30.3823C55.5137 30.3823 55.7393 30.4038 55.852 30.436ZM52.6885 32.5791C52.6938 33.7178 52.6724 34.1206 52.5918 34.5933C52.4897 35.2056 52.0708 36.7256 51.7163 37.7783L51.5068 38.3906L51.2222 37.9233C50.959 37.4883 50.9429 37.4453 51.0019 37.3003L51.0718 37.1445L51.1899 37.397C51.4424 37.9287 51.4316 37.9287 51.7217 37.1338C51.9795 36.4248 52.2642 35.4365 52.2266 35.3936C52.2158 35.3828 52.1138 35.6406 52.001 35.9683C51.8882 36.2905 51.727 36.645 51.6411 36.7471C51.5605 36.8545 51.4746 36.9834 51.4585 37.0371C51.4316 37.1284 51.4155 37.1284 51.2651 37.0532C51.1738 37.0103 51.1147 36.9458 51.1255 36.9082C51.1899 36.7417 51.437 35.9414 51.5391 35.5977C51.6411 35.2432 51.668 35.2056 51.77 35.2324C52.0332 35.2969 52.1406 34.8887 51.8882 34.7705C51.7378 34.7007 51.7378 34.6846 51.8076 34.1904C51.8345 33.9971 51.8828 33.4653 51.9097 33.0034C51.9634 32.1816 51.9687 32.1548 52.2104 31.5962C52.3447 31.2847 52.479 30.957 52.5112 30.8765L52.5757 30.7261L52.6294 30.9409C52.667 31.0645 52.6885 31.7573 52.6885 32.5791ZM20.623 31.5586C20.9023 32.2246 21.0205 32.6919 21.0312 33.1538C21.0312 33.2236 20.897 33.4331 20.7144 33.6533L20.3921 34.0347L20.478 34.3086C20.521 34.459 20.5801 34.647 20.6123 34.7222L20.666 34.8618L20.8701 34.6309C20.9829 34.5073 21.0903 34.4214 21.1011 34.4429C21.1172 34.4644 21.2192 34.835 21.3267 35.2593C21.4341 35.6836 21.5845 36.1992 21.6543 36.4087C21.8154 36.8813 21.8154 36.8867 21.6328 36.9941L21.4824 37.0854L21.418 36.8438C21.3643 36.6558 21.3213 36.5913 21.2031 36.5483C21.0796 36.5054 21.042 36.4409 20.956 36.1348C20.897 35.936 20.8057 35.6782 20.7519 35.5601C20.6982 35.4419 20.666 35.3882 20.6821 35.4419C20.6982 35.501 20.7949 35.8716 20.897 36.269C21.0957 37.0317 21.2192 37.3325 21.2998 37.2788C21.332 37.2573 21.3535 37.3057 21.3535 37.3755C21.3535 37.4453 21.3804 37.585 21.4126 37.6763L21.4717 37.8481L21.6597 37.5903C21.8423 37.3325 21.9819 37.252 21.9551 37.4238C21.9282 37.6064 21.4394 38.3745 21.3965 38.3101C21.3159 38.1865 20.7036 36.2744 20.5264 35.5654C20.4243 35.1733 20.3061 34.6416 20.2685 34.373C20.1558 33.5889 20.1826 30.6885 20.3061 30.812C20.3115 30.8228 20.4565 31.1611 20.623 31.5586ZM23.4214 31.8755C23.2495 32.8477 23.2602 34.1206 23.4536 35.082L23.5073 35.3613L23.04 36.0918C22.7822 36.4946 22.5566 36.8223 22.5405 36.8223C22.4653 36.8223 22.0947 35.5386 21.998 34.9531C21.896 34.3301 21.7832 33.3525 21.7832 33.0625C21.7832 32.939 21.9175 32.7886 22.6265 32.1602C23.0937 31.7412 23.4805 31.4082 23.4858 31.4189C23.4912 31.4243 23.4644 31.6284 23.4214 31.8755ZM50.4058 32.23L51.1577 32.8745V33.1162C51.1631 33.4814 51.0127 34.7383 50.8838 35.3452C50.7817 35.8394 50.4971 36.7417 50.4111 36.8384C50.395 36.8599 50.1533 36.5537 49.8848 36.1562L49.3906 35.4312L49.4819 34.9048C49.6377 34.0078 49.6001 32.2729 49.4067 31.5103L49.3745 31.376L49.5142 31.4834C49.5894 31.5371 49.9922 31.8755 50.4058 32.23ZM18.5928 33.9648C18.4961 34.0508 18.4961 34.0508 18.5605 33.9326C18.5928 33.8628 18.6357 33.8198 18.6572 33.8359C18.6733 33.8574 18.6465 33.9111 18.5928 33.9648ZM54.3965 33.9487C54.4126 34.0186 54.4072 34.0669 54.3857 34.0562C54.3267 34.0186 54.2783 33.8145 54.332 33.8145C54.3535 33.8145 54.3857 33.8735 54.3965 33.9487ZM16.9922 33.9595C16.8794 33.9702 16.686 33.9702 16.5625 33.9595C16.4336 33.9487 16.5249 33.938 16.7612 33.938C16.9976 33.938 17.0996 33.9487 16.9922 33.9595ZM56.3569 33.9595C56.2495 33.9702 56.0776 33.9702 55.981 33.9595C55.8896 33.9487 55.981 33.938 56.1851 33.938C56.3945 33.938 56.4697 33.9487 56.3569 33.9595ZM17.959 34.0132C17.814 34.0239 17.5884 34.0239 17.4487 34.0132C17.3037 34.0024 17.4219 33.9971 17.7012 33.9971C17.9805 33.9971 18.0986 34.0024 17.959 34.0132ZM53.9023 33.9971C53.9023 34.0078 53.8647 34.0347 53.8164 34.0508C53.7734 34.0669 53.7519 34.0615 53.7681 34.0293C53.8003 33.9756 53.9023 33.9541 53.9023 33.9971ZM55.5298 34.0132C55.374 34.0239 55.1162 34.0239 54.9658 34.0132C54.8101 34.0024 54.9336 33.9971 55.2451 33.9971C55.5566 33.9971 55.6802 34.0024 55.5298 34.0132ZM24.9575 35.9575L25.5054 36.5645L25.4033 36.7363C25.21 37.0693 22.8413 40.7163 22.7822 40.7861C22.7285 40.8452 22.6372 40.7163 22.3257 40.1523C22.1108 39.7656 21.9443 39.438 21.9551 39.4219C21.9658 39.4111 22.1055 39.5938 22.2612 39.8301C22.417 40.0664 22.562 40.2705 22.5835 40.2812C22.605 40.2974 22.7822 40.0396 22.981 39.7119C23.3086 39.1533 23.3301 39.105 23.2656 38.9761C23.2227 38.9009 23.1743 38.7559 23.1528 38.6538C23.1152 38.4766 23.1206 38.4712 23.2012 38.5571C23.3623 38.7183 23.5449 38.729 23.6953 38.5894C23.9531 38.3477 23.8242 38.0952 23.3569 37.9072C23.0615 37.7891 23.0185 37.7998 23.0185 37.9717C23.0185 38.063 23.0078 38.0684 22.9648 38.0039C22.9058 37.918 22.7607 38.0522 22.331 38.5679C22.229 38.686 22.1645 38.7559 22.1753 38.729C22.272 38.5303 23.9424 35.8447 24.2109 35.4634C24.27 35.3828 24.3398 35.3184 24.3613 35.3291C24.3882 35.3398 24.6567 35.6191 24.9575 35.9575ZM48.9985 35.9736C49.2349 36.3389 49.6216 36.9243 49.8472 37.2788L50.2554 37.9233L50.0996 37.9609C49.9976 37.9878 49.917 38.0576 49.874 38.165C49.7612 38.439 49.6807 38.4658 49.5195 38.2778C49.3799 38.106 49.1758 38.0522 49.1758 38.1812C49.1758 38.2241 49.2725 38.4067 49.396 38.5947C49.5142 38.7773 49.6592 39.0566 49.7129 39.207C49.772 39.3574 49.9277 39.6689 50.0674 39.9053L50.3144 40.3242L50.5776 39.959C50.9644 39.4219 51.0073 39.3682 50.9912 39.4326C50.9644 39.5293 50.2285 40.8506 50.1963 40.8506C50.1694 40.8506 47.4517 36.6987 47.4141 36.6021C47.3979 36.5591 48.4722 35.3184 48.5312 35.3184C48.5474 35.3184 48.7568 35.6138 48.9985 35.9736ZM19.7153 37.252C19.7314 37.2788 19.7153 37.3057 19.6724 37.3057C19.6294 37.3057 19.2964 37.4238 18.9311 37.5688C18.206 37.8535 17.8516 37.9663 18.2383 37.7837L18.48 37.6709L18.292 37.5098C18.1147 37.3486 18.1362 37.3594 18.4853 37.5742C18.5874 37.6387 18.6572 37.6226 19.0225 37.4722C19.2588 37.3809 19.4844 37.2788 19.5273 37.252C19.6294 37.1875 19.6724 37.1875 19.7153 37.252ZM53.8486 37.4399C54.1816 37.5742 54.4717 37.6655 54.4985 37.6494C54.5254 37.6333 54.5469 37.644 54.5469 37.6763C54.5469 37.7031 54.6113 37.7515 54.6973 37.7783C54.7778 37.8105 54.8154 37.8374 54.7832 37.8374C54.751 37.8428 54.4019 37.7192 54.0098 37.5688C53.6177 37.4238 53.2632 37.311 53.2256 37.3271C53.1504 37.3594 53.1235 37.2949 53.188 37.2358C53.231 37.1875 53.1719 37.166 53.8486 37.4399ZM25.8061 39.5991C25.9458 39.9966 26.6709 41.4253 27.0146 41.9678C27.7397 43.1172 28.7871 44.3042 29.9311 45.2764L30.4253 45.6953L30.624 46.2915C30.7314 46.6245 30.9409 47.2153 31.0806 47.6074C31.2256 48.0049 31.3437 48.3379 31.3437 48.354C31.3437 48.3647 31.2148 48.2734 31.0644 48.1392C30.9087 48.0103 30.6401 47.8008 30.4736 47.6772L30.1675 47.4463L29.6465 47.6074L29.1309 47.7686L28.6367 47.3496C28.0835 46.877 27.1973 46.1196 26.1016 45.1743C25.6934 44.8252 24.9951 44.1807 24.5547 43.751L23.7598 42.9668L23.8779 42.7305L23.9961 42.4941L24.1143 42.6553C24.6084 43.3374 25.8599 44.6104 27.0415 45.6255C28.1372 46.5654 29.1362 47.3496 29.2436 47.3496C29.3887 47.3496 30.0063 47.1294 29.9902 47.0811C29.9795 47.0596 29.7217 46.8286 29.4102 46.5708C27.3477 44.8359 25.7739 43.3374 25.833 43.1763C25.9834 42.7896 25.9888 42.6392 25.876 42.4028C25.7578 42.1611 25.2207 41.4468 25.1562 41.4414C25.1348 41.4414 25.0327 41.5864 24.9199 41.7637L24.7212 42.0806L24.5762 41.8818L24.4258 41.6831L24.6782 41.2266C25.355 39.9805 25.6826 39.4004 25.7041 39.4004C25.7256 39.4004 25.7685 39.4917 25.8061 39.5991ZM47.8545 40.5552L48.4722 41.6777L48.3701 41.8389C48.3164 41.9302 48.2466 42.0107 48.2251 42.0161C48.2036 42.0269 48.0962 41.8979 47.9995 41.7368C47.8975 41.5757 47.8008 41.4414 47.7847 41.4414C47.7632 41.4468 47.5644 41.7153 47.3335 42.043C46.8877 42.6875 46.6353 43.3052 46.748 43.4878C46.7964 43.563 46.6943 43.6812 46.1787 44.1914C45.4536 44.9004 43.7241 46.4097 43.0957 46.8877C42.9829 46.9736 42.8916 47.0542 42.8916 47.0757C42.8916 47.1187 43.5845 47.3496 43.708 47.3496C43.8638 47.3496 45.5664 45.9478 46.9307 44.7017C47.457 44.2183 48.3271 43.2729 48.6924 42.7842L48.8965 42.5103L49.0093 42.6929C49.0737 42.7949 49.1221 42.9077 49.1221 42.9399C49.1221 43.0474 47.7524 44.3848 46.8394 45.1743C46.3667 45.5771 45.4966 46.3291 44.9004 46.8447L43.8262 47.7739L43.3428 47.6128C43.0796 47.5269 42.8271 47.457 42.7788 47.457C42.7305 47.457 42.4189 47.6772 42.0859 47.9512C41.7476 48.2251 41.4951 48.397 41.522 48.3433C41.5435 48.2842 41.7744 47.6611 42.0376 46.9521C42.4673 45.7759 42.521 45.6577 42.709 45.502C43.939 44.4976 45.0561 43.2568 45.8726 41.9785C46.1572 41.5381 46.8125 40.2759 47.0488 39.728C47.124 39.54 47.2046 39.395 47.2153 39.4111C47.2261 39.4219 47.5161 39.9375 47.8545 40.5552ZM51.9634 40.7217C51.8828 40.8184 51.8452 40.7915 51.8936 40.668C51.9097 40.6196 51.9473 40.5981 51.9795 40.6143C52.0063 40.6304 52.001 40.6787 51.9634 40.7217ZM21.0742 40.7485C21.0957 40.8076 21.085 40.8076 21.0259 40.7593C20.9722 40.7056 20.9399 40.7056 20.8755 40.7593C20.8003 40.8184 20.8003 40.813 20.8647 40.7271C20.9507 40.6196 21.0366 40.6304 21.0742 40.7485ZM20.6445 40.8345C20.5854 40.8506 20.5478 40.9097 20.5478 40.9902C20.5478 41.103 20.5317 41.1191 20.4136 41.0869C20.3061 41.0601 20.2363 41.0923 20.0644 41.2695C19.9463 41.3877 19.8496 41.4736 19.8496 41.4575C19.8496 41.3608 19.9946 41.2104 20.1934 41.0923C20.3276 41.0171 20.4619 40.9204 20.4941 40.8774C20.5317 40.8345 20.6016 40.8022 20.6499 40.8022C20.7197 40.8076 20.7197 40.813 20.6445 40.8345ZM52.4521 40.8989C52.4521 40.9258 52.5596 41.0117 52.6885 41.0869C52.8174 41.1621 52.9624 41.2803 53.0107 41.3555C53.1504 41.5703 53.1128 41.5596 52.8872 41.3232C52.7422 41.1621 52.6348 41.0977 52.5273 41.0923C52.4092 41.0923 52.3662 41.0654 52.3555 40.9688C52.3447 40.9043 52.3608 40.8506 52.3931 40.8506C52.4253 40.8506 52.4521 40.8721 52.4521 40.8989ZM23.4482 44.3149C23.3784 44.3901 23.3032 44.4492 23.2764 44.4492C23.228 44.4492 23.5019 44.186 23.5503 44.1807C23.5664 44.1807 23.5181 44.2397 23.4482 44.3149ZM49.6323 44.4385C49.6162 44.4546 49.5732 44.4385 49.5356 44.4009C49.4873 44.3472 49.4927 44.3418 49.5679 44.374C49.6216 44.3901 49.6484 44.4224 49.6323 44.4385ZM23.0991 45.1475C22.9541 45.2119 22.8682 45.2119 22.9648 45.1475C23.0078 45.1206 23.083 45.0991 23.126 45.0991C23.1797 45.0991 23.1689 45.1152 23.0991 45.1475ZM50.1265 45.2334C50.0996 45.2603 49.8203 45.1636 49.8203 45.126C49.8203 45.1099 49.8955 45.126 49.9868 45.1582C50.0728 45.1904 50.1372 45.2227 50.1265 45.2334ZM41.1353 47.7739L40.7217 49.0684L39.9644 49.7344C39.5508 50.0996 38.6431 50.873 37.9502 51.4585C37.2573 52.0439 36.6343 52.5703 36.5698 52.6294C36.4517 52.7314 36.4517 52.7314 36.2959 52.6079C35.8447 52.2427 33.4277 50.1802 32.8477 49.6699L32.1763 49.0737L31.7627 47.7954C31.5371 47.0972 31.3599 46.5063 31.376 46.4956C31.3867 46.4795 31.5264 46.5923 31.6821 46.7373C31.8325 46.8877 32.4556 47.4409 33.0571 47.9727C33.6587 48.499 34.2603 49.0361 34.3999 49.165L34.647 49.396L34.3784 49.2241C34.0615 49.02 33.2021 48.3647 32.4502 47.7578C32.1548 47.5215 31.9292 47.3657 31.9507 47.4141C31.9668 47.4624 32.0581 47.7847 32.1548 48.123C32.3428 48.8052 32.3105 48.7622 33.186 49.5518C33.3257 49.6753 33.4385 49.8096 33.4385 49.8472C33.4385 49.8848 33.6587 50.0996 33.9272 50.3198C34.1958 50.5454 34.8618 51.1201 35.4043 51.6035C35.9521 52.0869 36.4194 52.479 36.4463 52.479C36.4839 52.479 38.3208 50.8892 39.1855 50.0996L39.481 49.8311L39.3252 49.6646C39.2124 49.5464 39.1855 49.4819 39.2231 49.4336C39.2554 49.396 39.2983 49.251 39.3144 49.1113C39.3467 48.8965 39.395 48.8213 39.5991 48.644C39.8354 48.4346 40.3188 48.209 40.5283 48.209C40.5874 48.209 40.668 48.1553 40.7109 48.0854C40.7861 47.9619 40.9795 47.3496 40.9473 47.3228C40.9365 47.312 40.6519 47.5269 40.3135 47.8008C39.1103 48.7676 38.1113 49.5518 38.1113 49.5303C38.1113 49.5142 38.7827 48.9072 39.5991 48.1714C40.4209 47.4409 41.1836 46.748 41.3071 46.6406C41.4253 46.5332 41.5273 46.4526 41.5381 46.4634C41.5488 46.4688 41.3662 47.0596 41.1353 47.7739ZM27.8848 48.252C27.7935 48.3379 27.7881 48.3379 27.8579 48.2251C27.8955 48.1606 27.9385 48.1177 27.9546 48.1338C27.9707 48.1445 27.9385 48.1982 27.8848 48.252ZM45.1689 48.354L45.373 48.6118L45.1582 48.3916C44.9917 48.2197 44.9272 48.1821 44.8735 48.2305C44.8198 48.2734 44.8198 48.2627 44.8735 48.1929C44.9111 48.1445 44.9487 48.1016 44.9541 48.1016C44.9595 48.1016 45.0561 48.2144 45.1689 48.354ZM27.7988 48.3916C27.7988 48.4023 27.7559 48.4453 27.7075 48.4829C27.6216 48.5527 27.6162 48.5474 27.686 48.4614C27.7559 48.3755 27.7988 48.3486 27.7988 48.3916ZM35.3506 49.9976C35.6782 50.293 35.7212 50.3521 35.6675 50.4272C35.5762 50.5562 35.5225 50.54 35.3613 50.3359C35.2808 50.2339 35.1089 50.1104 34.9692 50.062C34.835 50.0083 34.7275 49.9492 34.7275 49.9277C34.7275 49.9062 34.7436 49.8149 34.7598 49.7236C34.8027 49.5142 34.835 49.5303 35.3506 49.9976ZM30.3232 49.7666C30.3232 49.7935 30.2964 49.8203 30.2642 49.8203C30.2266 49.8203 30.2158 49.8687 30.2319 49.9438C30.2695 50.0835 30.1943 50.2393 30.1406 50.1479C30.1191 50.1157 30.1353 50.0889 30.1728 50.0889C30.2319 50.0889 30.2319 50.0781 30.1728 50.0405C30.1191 50.0083 30.1138 49.9707 30.1675 49.8579C30.2319 49.7129 30.3232 49.6646 30.3232 49.7666ZM42.7144 49.9868C42.7519 50.0728 42.7573 50.1533 42.7251 50.2017C42.6875 50.2607 42.6768 50.25 42.6768 50.1641C42.6768 50.0996 42.6445 50.019 42.6016 49.9814C42.5586 49.9492 42.5371 49.8848 42.5532 49.8418C42.5854 49.7505 42.6284 49.7881 42.7144 49.9868ZM30.0815 50.8408C30.0117 51.061 29.9526 51.2061 29.9473 51.1577C29.9473 51.1094 29.9687 51.002 30.001 50.916C30.0278 50.8301 30.0815 50.6528 30.1138 50.5186C30.1514 50.3843 30.189 50.3145 30.1997 50.3574C30.2104 50.4004 30.1567 50.6206 30.0815 50.8408ZM42.7305 50.4702C42.7305 50.4971 42.8433 50.7656 42.9775 51.061C43.1118 51.3564 43.2139 51.6089 43.2031 51.625C43.1709 51.6519 42.8218 50.9106 42.709 50.583C42.6606 50.4541 42.6499 50.3682 42.6768 50.3843C42.709 50.4004 42.7305 50.4434 42.7305 50.4702ZM29.8721 51.4424L30.0278 51.6196L29.856 51.4639C29.6894 51.3135 29.6519 51.2705 29.6948 51.2705C29.7056 51.2705 29.7808 51.3511 29.8721 51.4424ZM29.9204 51.8506C29.9043 51.8667 29.8613 51.8506 29.8237 51.813C29.7754 51.7593 29.7808 51.7539 29.856 51.7861C29.9097 51.8022 29.9365 51.8345 29.9204 51.8506ZM32.7134 53.0913C32.5254 53.4673 32.4985 53.4351 32.6758 53.0483C32.7563 52.8765 32.8262 52.7529 32.8369 52.7798C32.8477 52.8013 32.7939 52.9409 32.7134 53.0913ZM40.2329 53.0591C40.3027 53.2256 40.3564 53.3652 40.3403 53.3652C40.3027 53.3652 40.0449 52.8442 40.0449 52.769C40.0449 52.667 40.0825 52.7261 40.2329 53.0591ZM35.7051 55.5083C36.0757 55.7446 36.4141 55.9434 36.4517 55.9434C36.4893 55.9434 36.8437 55.7339 37.2412 55.4707C37.644 55.2129 38.0039 54.9819 38.0522 54.9551C38.1006 54.9336 37.9502 55.1001 37.7192 55.3311C37.4399 55.6104 37.2895 55.8091 37.2519 55.938C37.2251 56.0454 37.1821 56.2012 37.1606 56.2925C37.123 56.4375 37.1177 56.4214 37.1016 56.1689L37.0854 55.8896L36.8491 56.0562C36.7202 56.1475 36.602 56.2549 36.5859 56.2925C36.5752 56.3301 36.543 56.647 36.5215 56.9961C36.4678 57.9253 36.4141 57.9521 36.3711 57.0659L36.3335 56.2925L36.1348 56.1206C36.0273 56.0239 35.9199 55.9487 35.8984 55.9434C35.8716 55.9434 35.8555 56.0669 35.8555 56.2173C35.8555 56.5718 35.7695 56.5127 35.7212 56.1206C35.6836 55.8252 35.6621 55.793 35.2432 55.3525C35.0068 55.1055 34.8564 54.9336 34.9155 54.9819C34.9746 55.0303 35.3291 55.2666 35.7051 55.5083Z" fill="white"/>
<path d="M23.7651 24.9899C22.8628 25.9191 22.3257 26.6872 21.7563 27.8634C21.3857 28.6315 21.0312 29.5553 21.0312 29.7541C21.0312 29.8239 21.1548 30.1408 21.3052 30.463C21.5039 30.8927 21.5898 31.0216 21.6221 30.9626C21.6489 30.9196 21.7295 30.6134 21.8047 30.2804C21.9819 29.4909 22.1646 28.9645 22.4814 28.2931C22.938 27.3371 23.647 26.3327 24.4795 25.4572L24.9683 24.9469L24.7104 24.6837C24.5654 24.5334 24.4204 24.4152 24.3828 24.4152C24.3506 24.4152 24.0713 24.673 23.7651 24.9899Z" fill="white"/>
<path d="M24.2969 26.1605C24.2378 26.2894 24.2432 26.3163 24.3345 26.3808C24.4634 26.4774 24.5386 26.4076 24.5117 26.2089C24.4902 26.0102 24.3774 25.9833 24.2969 26.1605Z" fill="white"/>
<path d="M25.5806 26.4132C25.4356 26.4884 25.3926 26.5421 25.4302 26.5797C25.5 26.6495 25.8653 26.4669 25.8653 26.3649C25.8653 26.2735 25.8223 26.2789 25.5806 26.4132Z" fill="white"/>
<path d="M24.9683 26.8159C24.8716 26.8481 24.8823 26.9932 24.9736 26.9932C25.0757 26.9932 25.1401 26.8911 25.0811 26.832C25.0542 26.8105 25.0005 26.8052 24.9683 26.8159Z" fill="white"/>
<path d="M24.3667 26.9611C24.2754 27.0685 24.3399 27.2458 24.501 27.3532C24.6299 27.4338 24.6406 27.4338 24.7534 27.3264L24.8662 27.2082L24.7588 27.0632C24.6299 26.8913 24.4634 26.8483 24.3667 26.9611Z" fill="white"/>
<path d="M22.8413 30.1997C22.7876 30.248 22.7929 30.4307 22.8467 30.4307C22.8735 30.4307 22.9487 30.3716 23.0185 30.2964L23.1421 30.1621H23.0078C22.938 30.1621 22.8574 30.1782 22.8413 30.1997Z" fill="white"/>
<path d="M21.8476 30.9087C21.8047 30.9355 21.7832 31.0269 21.7939 31.1504L21.81 31.3491L22.0142 31.1826C22.2505 30.9785 22.272 30.8604 22.0679 30.8604C21.9819 30.8604 21.8852 30.8818 21.8476 30.9087Z" fill="white"/>
<path d="M48.209 24.6565L47.9189 24.9466L48.3755 25.4192C49.8525 26.9554 50.7065 28.4915 51.0825 30.2908C51.1577 30.6453 51.2383 30.9568 51.2705 30.9891C51.3618 31.0804 51.8291 30.0223 51.8237 29.7322C51.8237 29.2649 51.0557 27.4925 50.4648 26.5901C49.96 25.8221 49.0522 24.764 48.6333 24.4686L48.4937 24.3665L48.209 24.6565Z" fill="white"/>
<path d="M48.2519 26.1712C48.1123 26.3377 48.0962 26.3914 48.1606 26.5311C48.2412 26.6976 48.3647 26.7459 48.5473 26.6761C48.73 26.6063 48.789 26.3914 48.6709 26.2142C48.5688 26.0584 48.3701 26.0369 48.2519 26.1712Z" fill="white"/>
<path d="M49.8794 30.1031C49.7881 30.1622 49.8364 30.3126 49.9599 30.3609C50.0727 30.4039 50.207 30.2589 50.164 30.1461C50.1264 30.0494 49.9975 30.0279 49.8794 30.1031Z" fill="white"/>
<path d="M50.7925 30.855C50.728 30.9409 50.6797 31.0215 50.6797 31.0376C50.6797 31.0698 51.0234 31.29 51.0771 31.29C51.1416 31.29 51.1094 31.0161 51.0288 30.8604C50.9805 30.769 50.9375 30.6992 50.9214 30.6992C50.9106 30.6992 50.8516 30.769 50.7925 30.855Z" fill="white"/>
<path d="M40.4209 23.4482C40.3779 23.4751 40.3672 23.502 40.394 23.502C40.4263 23.502 40.4853 23.4751 40.5283 23.4482C40.5713 23.4214 40.5874 23.3945 40.5552 23.3945C40.5283 23.3945 40.4639 23.4214 40.4209 23.4482Z" fill="white"/>
<path d="M27.7666 24.1144C27.6108 24.2702 27.584 24.3346 27.584 24.5441C27.584 24.7482 27.6162 24.8234 27.7612 24.9845C28.0889 25.3444 28.5776 25.2638 28.7871 24.818C28.9858 24.4044 28.6689 23.9318 28.1909 23.9318C27.9868 23.9318 27.9224 23.9586 27.7666 24.1144ZM28.2822 24.2003C28.3413 24.2433 28.3252 24.2487 28.2231 24.2272C28.0298 24.1788 27.8525 24.3668 27.8472 24.6246C27.8472 24.7965 27.8418 24.8019 27.7988 24.6945C27.7451 24.5709 27.8042 24.3507 27.917 24.2164C27.9868 24.1359 28.1694 24.1251 28.2822 24.2003Z" fill="white"/>
<path d="M44.3203 24.098C43.751 24.5975 44.3095 25.4139 45.0185 25.1239C45.228 25.0325 45.3623 24.8016 45.3623 24.5223C45.3623 24.3397 45.3301 24.2645 45.1797 24.1141C45.0239 23.9583 44.9594 23.9315 44.75 23.9315C44.5566 23.9315 44.4707 23.9637 44.3203 24.098ZM45.0722 24.2806C45.1689 24.431 45.1904 24.6619 45.1098 24.7425C45.083 24.7694 45.0722 24.721 45.083 24.6082C45.1098 24.3719 44.9326 24.1678 44.7715 24.2537C44.6264 24.3289 44.5888 24.3182 44.664 24.2269C44.7661 24.1033 44.9702 24.1302 45.0722 24.2806Z" fill="white"/>
<path d="M42.2525 29.5498C41.9194 29.9741 42.4727 30.436 42.8218 30.0278C42.9185 29.9204 42.9453 29.8398 42.9185 29.7378C42.8433 29.4101 42.4512 29.3027 42.2525 29.5498Z" fill="white"/>
<path d="M44.6479 31.8054C44.5781 31.8753 44.6103 32.0794 44.6963 32.1545C44.8198 32.2566 44.9594 32.1492 44.9594 31.9558C44.9594 31.8269 44.9326 31.7947 44.8252 31.7839C44.75 31.7732 44.6694 31.7839 44.6479 31.8054Z" fill="white"/>
<path d="M41.001 32.7456C40.8882 32.8101 40.8721 33.1162 40.9688 33.2129C41.0064 33.2505 41.0977 33.2773 41.1729 33.2773C41.3608 33.2773 41.4414 33.186 41.4414 32.9712C41.4414 32.7295 41.2212 32.6167 41.001 32.7456Z" fill="white"/>
<path d="M44.3633 34.9101C44.3096 35.0497 44.3848 35.1679 44.5137 35.1464C44.605 35.1356 44.6372 35.0927 44.6372 34.996C44.6372 34.8993 44.605 34.8564 44.5137 34.8456C44.4439 34.8349 44.3794 34.8617 44.3633 34.9101Z" fill="white"/>
<path d="M52.0869 34.0937C52.0171 34.1636 52.001 34.416 52.06 34.4751C52.103 34.5234 52.3447 34.3032 52.3447 34.2119C52.3447 34.1045 52.1567 34.0239 52.0869 34.0937Z" fill="white"/>
<path d="M20.6822 33.0625C20.6553 33.143 20.6822 33.2021 20.7735 33.272C20.8433 33.331 20.9024 33.3686 20.9077 33.3633C20.9346 33.3364 20.7949 32.9551 20.7573 32.9551C20.7359 32.9551 20.6983 33.0034 20.6822 33.0625Z" fill="white"/>
<path d="M22.895 32.7402C22.8735 33.0195 22.8413 33.7822 22.8252 34.4321C22.8037 35.082 22.7661 35.6567 22.7392 35.7158C22.7016 35.7856 22.6479 35.8071 22.5351 35.7803C22.3901 35.7534 22.3847 35.7588 22.4277 35.8984C22.4492 35.979 22.4975 36.1133 22.5298 36.1992L22.5888 36.3496L22.6855 36.2261C23.0293 35.7695 23.04 35.748 23.0239 35.3237C23.0132 35.0981 22.9917 34.3086 22.9702 33.5728C22.9433 32.3857 22.9326 32.2891 22.895 32.7402Z" fill="white"/>
<path d="M49.9922 33.2557C49.9868 33.6693 49.9546 34.389 49.9224 34.8455C49.8633 35.7586 49.8687 35.7909 50.1641 36.1453C50.3091 36.3172 50.3843 36.3011 50.4273 36.0916C50.4434 35.9896 50.4112 35.9036 50.2984 35.7747C50.148 35.6029 50.1426 35.5814 50.1426 35.0335C50.1426 34.5824 50.1587 34.4642 50.2232 34.4373C50.336 34.3944 50.3252 34.2171 50.2017 34.1312C50.1104 34.0667 50.0889 33.9539 50.0459 33.2772L49.9976 32.4984L49.9922 33.2557Z" fill="white"/>
<path d="M24.3989 36.1135C24.2754 36.2478 24.2861 36.425 24.4204 36.5593C24.5601 36.6989 24.6406 36.6721 24.7212 36.4411C24.8233 36.135 24.5923 35.8986 24.3989 36.1135Z" fill="white"/>
<path d="M24.5762 36.9031C24.5762 37.1179 24.6245 37.1394 24.7266 36.9783C24.7803 36.8923 24.7803 36.8494 24.7319 36.7903C24.6299 36.6667 24.5762 36.7043 24.5762 36.9031Z" fill="white"/>
<path d="M24.2002 37.3326C24.2002 37.3863 24.2378 37.4132 24.2969 37.4025C24.4097 37.381 24.3989 37.2843 24.2861 37.2628C24.2324 37.2521 24.2002 37.2789 24.2002 37.3326Z" fill="white"/>
<path d="M48.3111 36.0864C48.2627 36.1992 48.2573 36.2637 48.3057 36.3657C48.4238 36.6182 48.3862 36.7524 48.2036 36.79C48.0855 36.8115 48.0425 36.8438 48.0694 36.9028C48.1284 37.064 48.5474 37.5742 48.6172 37.5742C48.6548 37.5742 48.7139 37.4722 48.7515 37.3486C48.7998 37.1499 48.7945 37.0854 48.7031 36.8652C48.6333 36.6987 48.6172 36.5967 48.6494 36.5645C48.7246 36.4893 48.6655 36.2905 48.5098 36.1025L48.3755 35.9414L48.3111 36.0864Z" fill="white"/>
<path d="M25.5591 40.5554L25.4678 40.7434L25.6826 40.926C25.7954 41.028 25.8975 41.1032 25.9028 41.0979C25.9243 41.0818 25.6987 40.3674 25.6719 40.3674C25.6611 40.3674 25.6074 40.4533 25.5591 40.5554Z" fill="white"/>
<path d="M28.6045 44.6802C28.9429 45.0239 29.2544 45.3086 29.292 45.3086C29.3404 45.3086 29.3457 45.3677 29.3242 45.5127C29.2866 45.7651 29.3565 45.8296 29.6787 45.8564L29.9151 45.8726L30.1514 46.4365C30.4468 47.1562 30.4575 47.1938 30.3823 47.2422C30.334 47.269 30.3823 47.3335 30.5274 47.4517C30.6455 47.543 30.7529 47.6182 30.7691 47.6182C30.7798 47.6182 30.6885 47.3604 30.565 47.0381C30.4414 46.7212 30.2964 46.3452 30.2427 46.2002C30.1192 45.8672 29.8775 45.5986 29.0611 44.9058C28.0513 44.0518 27.9385 43.998 28.6045 44.6802Z" fill="white"/>
<path d="M47.1401 40.7162C47.0757 40.915 47.0273 41.103 47.0273 41.1352C47.0273 41.1674 47.124 41.0976 47.2422 40.9848C47.4893 40.7431 47.4946 40.7216 47.355 40.5068L47.2529 40.351L47.1401 40.7162Z" fill="white"/>
<path d="M44.0464 44.6801L42.8647 45.7705L42.4995 46.6567C42.3008 47.1401 42.1396 47.5537 42.1396 47.5752C42.1396 47.6235 42.6177 47.3335 42.623 47.2797C42.623 47.2583 42.5854 47.2421 42.5425 47.2421C42.4136 47.2421 42.4458 47.1455 42.7734 46.5171L43.085 45.9262L43.2729 45.9423C43.418 45.9531 43.5093 45.9262 43.6221 45.8242C43.7671 45.706 43.7778 45.663 43.7671 45.3676C43.7617 45.185 43.7671 45.04 43.7832 45.04C43.7939 45.04 43.853 45.0722 43.9121 45.1045C43.9819 45.1474 44.0356 45.1528 44.0679 45.1206C44.2397 44.9379 45.2979 43.5898 45.2656 43.5898C45.2441 43.5898 44.6963 44.0839 44.0464 44.6801Z" fill="white"/>
<path d="M40.0181 49.1865L39.6421 49.5786L40.0342 49.2026C40.2437 48.9985 40.4209 48.8213 40.4209 48.8159C40.4209 48.7729 40.3618 48.8267 40.0181 49.1865Z" fill="white"/>
</g>
<defs>
<clipPath id="clip0_759_89">
<rect width="70" height="70" fill="white"/>
</clipPath>
</defs>
</svg>
