<svg width="70" height="70" viewBox="0 0 70 70" fill="none" xmlns="http://www.w3.org/2000/svg">
<g clip-path="url(#clip0_759_312)">
<path d="M31.192 0.168003C30.912 0.392003 31.01 1.316 31.304 1.204C31.402 1.162 31.71 1.092 31.976 1.036C32.62 0.924003 32.69 0.784003 32.382 0.350003C32.102 -0.0279968 31.556 -0.111997 31.192 0.168003Z" fill="black"/>
<path d="M38.7379 0.825981C38.5139 0.965981 38.0799 1.13399 37.7579 1.18999C37.2819 1.27399 37.2259 1.30199 37.4499 1.39999C37.7159 1.49799 37.7019 1.51199 37.3799 1.58199C37.1839 1.62399 36.6939 1.70798 36.2739 1.74998C35.5879 1.83398 35.4899 1.80598 35.2239 1.48399C35.0559 1.30199 34.7059 1.10599 34.4399 1.04999C34.0339 0.965981 33.9779 0.97998 34.1319 1.13399C34.6219 1.65199 33.9499 1.88998 33.3199 1.39999C32.9839 1.14799 32.9699 1.14799 32.6899 1.39999C32.4659 1.59599 32.0179 1.69398 30.5619 1.80598C29.5539 1.90398 28.4199 2.05798 28.0419 2.16998C27.1179 2.44998 27.1039 2.42198 27.9719 2.02998C28.4059 1.83398 28.6999 1.60999 28.6999 1.46999C28.6999 1.23199 28.6019 1.18999 27.8319 1.04999C27.3419 0.97998 27.2999 0.99398 27.2999 1.31599C27.2999 1.55399 27.1459 1.76398 26.8519 1.97398C26.5999 2.14198 26.3619 2.30998 26.3339 2.33798C26.3059 2.35198 26.3619 2.63198 26.4599 2.95399C26.6279 3.45798 26.6979 3.51398 27.0339 3.47198C27.2579 3.42999 27.3839 3.47198 27.3419 3.54198C27.1879 3.80798 26.3059 4.05998 25.5919 4.05998C24.8639 4.04598 24.8499 4.04598 25.2699 3.86398L25.6899 3.68198L25.1719 3.42999C24.7379 3.21999 24.5839 3.20599 24.2759 3.34599C23.8419 3.54198 23.6879 3.45798 23.9399 3.14999C24.0379 3.02399 24.0939 2.91199 24.0659 2.88399C23.9959 2.82799 20.4679 3.84998 18.7599 4.40999C17.1219 4.94199 15.0639 6.01999 14.1679 6.80399C13.4259 7.44799 13.3839 7.62999 13.9299 7.72799C14.0839 7.75599 14.2099 7.83998 14.2099 7.90998C14.2239 7.99398 14.2799 8.20399 14.3359 8.38599L14.4479 8.72198L14.6299 8.28799C14.8539 7.76999 15.2459 7.50399 16.3099 7.12598C17.1779 6.81799 17.3879 6.85999 17.0379 7.23798C16.7859 7.53199 16.3239 8.66599 16.1699 9.37999L16.0719 9.86999L16.4919 9.30999C16.7159 9.00199 17.2899 8.38599 17.7659 7.95198C18.4799 7.27999 18.6199 7.06998 18.6339 6.64999C18.6479 6.38398 18.6619 6.07598 18.6759 5.97798C18.7039 5.57198 19.6699 5.30598 19.9919 5.62798C20.1179 5.75398 20.0059 5.94998 19.5299 6.45399C19.1799 6.83199 18.8999 7.23798 18.8999 7.36399C18.8999 7.53199 19.0679 7.41999 19.4599 6.99998C19.9219 6.49599 20.0619 6.42599 20.3839 6.49599C20.8039 6.60799 21.2799 6.32798 20.9719 6.14598C20.8739 6.08998 20.8319 6.00599 20.8599 5.97798C21.1679 5.73998 23.0859 4.61999 23.2119 4.61999C23.4499 4.61999 23.5619 5.20798 23.3939 5.61398C23.3239 5.82398 23.0159 6.10398 22.7219 6.25798C22.4279 6.41198 21.6999 6.78999 21.0979 7.11198C20.2439 7.57399 19.8659 7.69999 19.3199 7.69999C18.7319 7.69999 18.6199 7.74199 18.6199 7.96598C18.6199 8.10599 18.7179 8.30199 18.8299 8.39999C18.9419 8.49799 19.0399 8.65199 19.0399 8.76398C19.0399 9.04399 18.3259 9.49199 17.5559 9.67398C17.1779 9.77199 16.3799 10.08 15.7919 10.388C15.0219 10.766 14.6999 10.864 14.6999 10.724C14.6999 10.626 14.8539 10.108 15.0639 9.58998C15.2599 9.05799 15.3999 8.46999 15.3719 8.27399C15.3019 7.68599 14.9379 7.83998 14.6999 8.56799C14.5319 9.11399 14.4479 9.21199 14.2099 9.15599C14.0559 9.11399 13.6919 9.18399 13.3979 9.30999C13.1179 9.42199 12.8799 9.47799 12.8799 9.42199C12.8799 9.36599 13.1179 9.07199 13.3979 8.76398L13.9299 8.21799L13.0899 8.80598C12.6279 9.14199 11.6899 9.78599 10.9899 10.262C9.77195 11.088 8.11995 12.586 8.11995 12.838C8.11995 12.908 8.30195 12.95 8.53995 12.908C9.15595 12.824 9.08595 13.118 8.18995 14.21C7.76995 14.714 7.41995 15.176 7.41995 15.204C7.41995 15.33 7.57395 15.246 8.03595 14.84C8.31595 14.588 8.55395 14.476 8.60995 14.546C8.65195 14.63 7.95195 15.428 7.05595 16.31C5.44595 17.92 5.43195 17.948 5.52995 18.452C5.64195 19.04 5.87995 19.39 5.87995 18.956C5.87995 18.144 6.49595 16.8 6.87395 16.8C7.08395 16.8 7.01395 17.248 6.49595 19.264C6.21595 20.342 5.94995 21.714 5.89395 22.33L5.80995 23.45L5.29195 22.61C4.99795 22.148 4.75995 21.868 4.75995 21.994C4.75995 22.12 4.40995 22.652 3.98995 23.17C3.56995 23.674 3.21995 24.122 3.21995 24.15C3.21995 24.164 3.12195 24.416 3.00995 24.696C2.89795 24.976 2.82795 25.2 2.85595 25.2C2.88395 25.2 3.12195 24.878 3.37395 24.472L3.83595 23.758L4.01795 24.164C4.26995 24.752 4.24195 25.228 3.84995 27.3C3.49995 29.19 3.42995 30.366 3.63995 30.87C3.75195 31.122 3.76595 31.122 3.76595 30.786C3.77995 30.338 4.10195 29.89 4.31195 30.016C4.52195 30.142 4.52195 30.996 4.32595 31.906C4.11595 32.9 3.86395 33.012 3.94795 32.06L4.01795 31.332L3.55595 31.402C2.99595 31.5 2.99595 31.486 2.85595 29.61C2.81395 28.84 2.71595 28.07 2.64595 27.888C2.46395 27.412 2.12795 27.51 2.01595 28.07C1.88995 28.784 2.04395 29.666 2.65995 31.57C3.26195 33.446 3.45795 34.3 3.26195 34.3C3.19195 34.3 2.93995 34.034 2.68795 33.712C2.21195 33.096 2.14195 33.138 2.39395 33.852C2.47795 34.09 2.61795 34.272 2.70195 34.258C2.81395 34.244 2.86995 34.594 2.86995 35.462C2.86995 36.134 2.84195 36.68 2.79995 36.68C2.75795 36.68 2.51995 36.554 2.28195 36.4L1.81995 36.12L1.83395 36.512C1.84795 37.296 2.02995 38.15 2.16995 38.108C2.33795 38.052 3.09395 41.006 3.52795 43.428C3.70995 44.394 3.89195 45.136 3.93395 45.052C4.04595 44.87 4.40995 45.528 4.54995 46.186C4.71795 46.942 4.88595 46.41 4.81595 45.36L4.75995 44.45L4.96995 45.22C5.09595 45.64 5.24995 46.662 5.31995 47.488C5.38995 48.328 5.52995 49.294 5.61395 49.658L5.78195 50.302L6.03395 49.994L6.28595 49.686L6.48195 50.162C6.91595 51.198 6.92995 51.282 6.55195 51.212L6.20195 51.142L6.52395 51.632C6.70595 51.898 6.85995 52.262 6.85995 52.43C6.85995 52.71 7.37795 53.34 7.60195 53.34C7.65795 53.34 7.67195 53.172 7.61595 52.962C7.57395 52.738 7.82595 53.088 8.17595 53.718C8.52595 54.362 8.81995 55.02 8.81995 55.202C8.81995 55.86 9.43595 56.756 10.4999 57.61C11.0739 58.086 11.6199 58.604 11.7039 58.772C11.8579 59.08 13.8739 60.998 15.3159 62.188C16.3659 63.07 18.2559 64.33 19.6419 65.1C20.2859 65.45 20.6779 65.744 20.5799 65.8C20.4259 65.898 24.6119 68.292 26.0819 68.936C27.6779 69.636 29.0779 70 30.1839 70C30.7439 70 31.2199 69.958 31.2199 69.916C31.2199 69.874 31.1499 69.72 31.0799 69.566C30.9819 69.384 30.9819 69.3 31.0799 69.3C31.1499 69.3 31.2199 69.188 31.2199 69.048C31.2199 68.824 31.4439 68.81 34.0479 68.81C37.0999 68.81 38.7099 68.614 41.3279 67.97C42.1119 67.774 42.7699 67.62 42.7839 67.62C42.8119 67.62 42.8399 67.914 42.8399 68.292C42.8399 69.104 43.1339 69.58 43.6379 69.58H44.0019L43.6099 69.216C43.2879 68.922 43.2319 68.782 43.3019 68.362C43.3999 67.802 43.7079 67.41 44.2679 67.116C44.6319 66.92 44.6599 66.934 44.6599 67.186C44.6599 67.732 45.0659 67.76 47.1239 67.396C48.1879 67.214 49.2379 67.018 49.4619 66.976C49.7979 66.892 49.8399 66.92 49.8399 67.256C49.8399 67.676 49.8679 67.69 50.7639 67.41C51.1419 67.298 51.4639 67.2 51.4919 67.2C51.5059 67.2 51.5199 67.424 51.5199 67.69C51.5199 67.998 51.4359 68.222 51.2819 68.306C51.1419 68.39 51.0859 68.46 51.1419 68.46C51.3379 68.46 52.1079 67.872 52.0239 67.802C51.9819 67.76 52.0799 67.536 52.2339 67.326L52.5139 66.92H51.8979C51.5479 66.92 51.0859 66.878 50.8479 66.836C50.4699 66.766 50.4279 66.71 50.5399 66.486C50.6239 66.346 50.6799 66.024 50.6799 65.772V65.296L51.7439 65.394L52.8079 65.506L53.2279 65.03C53.4519 64.764 54.1239 64.288 54.7119 63.952C55.2999 63.63 56.0139 63.14 56.2659 62.874C56.5319 62.594 56.6999 62.468 56.6299 62.58C56.5599 62.706 56.6299 62.692 56.8119 62.524C57.1619 62.23 57.2459 62.02 56.9099 62.3C56.7559 62.426 56.6999 62.426 56.6999 62.314C56.6999 62.23 56.7979 62.118 56.9099 62.076C57.0219 62.02 57.1199 61.88 57.1199 61.74C57.1199 61.614 57.3019 61.25 57.5399 60.928L57.9459 60.354L57.2039 60.62C56.5459 60.844 54.8099 61.18 54.3059 61.18C54.2079 61.18 54.3339 60.956 54.5999 60.69C54.9639 60.312 55.1179 60.242 55.3139 60.354C55.5239 60.466 55.6499 60.382 56.0139 59.892C56.2519 59.556 56.5739 59.038 56.7279 58.73C57.0219 58.156 58.3939 56.238 58.7859 55.86C58.9119 55.734 59.4159 55.146 59.9199 54.53C60.4239 53.914 61.2639 52.906 61.7959 52.29C63.0419 50.834 64.6099 48.454 65.5199 46.648C66.0939 45.486 66.2899 45.206 66.4999 45.262C66.7239 45.318 66.7519 45.206 66.8079 44.366C66.8359 43.848 66.9059 43.372 66.9479 43.33C67.0039 43.274 67.1859 43.33 67.3679 43.456C67.9979 43.904 68.0819 43.778 67.9699 42.588C67.8299 41.076 67.8439 40.11 68.0259 39.802C68.1099 39.662 68.1799 39.62 68.1799 39.718C68.1799 39.928 68.6979 40.222 68.8799 40.11C68.9639 40.054 68.8659 39.732 68.6699 39.326C68.3759 38.766 68.3479 38.64 68.5299 38.64C68.6559 38.64 68.8659 38.374 69.0199 38.024C69.1599 37.688 69.3419 37.394 69.4259 37.366C69.5099 37.324 69.4119 36.68 69.1599 35.574C68.6559 33.502 68.6419 33.236 69.0339 33.138C69.2999 33.068 69.3139 33.096 69.2299 33.558C69.1739 33.908 69.2019 34.09 69.3279 34.174C69.9159 34.552 70.0139 34.076 69.5799 32.816C69.4119 32.368 69.2859 31.696 69.2859 31.346C69.2719 30.73 69.2579 30.702 68.9219 30.772L68.5579 30.842L68.5999 28.966C68.6699 26.11 68.6699 26.096 68.1939 25.816C67.8439 25.62 67.7039 25.326 67.2839 23.996C66.6679 22.092 65.6459 19.782 64.7639 18.298C64.4139 17.696 64.1199 17.108 64.1199 17.01C64.1199 16.912 63.8539 16.52 63.5179 16.156C63.1959 15.778 62.5519 14.994 62.0899 14.42C60.9559 12.992 58.8419 10.906 57.3859 9.77199C56.2939 8.91799 53.5359 7.08398 53.1579 6.95798C53.0739 6.92999 53.2279 6.63599 53.5359 6.25798C54.1239 5.54398 54.1519 5.12399 53.6479 4.78799C53.3259 4.57799 53.3259 4.57799 53.4939 4.94199C53.6339 5.24998 53.6199 5.37598 53.4239 5.65598C53.0879 6.17398 52.6819 6.34198 52.0379 6.24398C51.7159 6.18798 51.3939 6.08998 51.3099 6.03399C51.2399 5.96398 50.9319 5.83798 50.6379 5.73998C50.1479 5.58598 50.1199 5.55798 50.3159 5.33398C50.4419 5.19398 50.5399 5.01199 50.5399 4.92799C50.5399 4.59199 49.6579 3.79398 48.4119 2.96799C46.9979 2.04398 46.5779 1.97398 46.0879 2.58998L45.8359 2.89799L45.1639 2.11398C44.4919 1.34399 44.4639 1.32999 43.6939 1.31599C43.2599 1.31599 42.5039 1.17599 41.9999 1.02199C41.4959 0.867981 40.6559 0.699982 40.1099 0.643982C39.2979 0.587982 39.0599 0.615982 38.7379 0.825981ZM39.4379 0.783981C39.3959 0.825981 39.2699 0.839981 39.1719 0.797981C39.0599 0.755981 39.1019 0.713982 39.2559 0.713982C39.4099 0.699982 39.4939 0.741982 39.4379 0.783981ZM49.3919 5.01199C49.5879 5.30598 49.5879 5.31998 49.1539 5.16599C48.7199 5.01199 48.6359 4.89999 48.8179 4.70399C48.9579 4.56399 49.1679 4.67599 49.3919 5.01199ZM12.0119 10.388C11.8999 10.57 11.5359 11.186 11.1999 11.76C10.8639 12.334 10.5699 12.824 10.5559 12.852C10.5419 12.88 10.3739 12.824 10.2059 12.726L9.88395 12.558L10.2619 12.264C10.4719 12.096 10.6399 11.9 10.6399 11.83C10.6399 11.676 12.0119 10.08 12.1379 10.08C12.1799 10.08 12.1239 10.22 12.0119 10.388ZM9.79995 18.578C9.64595 18.816 9.64595 18.816 9.71595 18.578C9.75795 18.438 9.79995 18.242 9.81395 18.158C9.81395 18.032 9.84195 18.032 9.88395 18.158C9.92595 18.256 9.88395 18.438 9.79995 18.578ZM11.6199 19.446C11.6199 19.516 11.5219 19.642 11.4099 19.74C11.2419 19.88 11.1999 19.88 11.1999 19.712C11.1999 19.6 11.2419 19.46 11.2979 19.418C11.4239 19.278 11.6199 19.292 11.6199 19.446ZM9.93995 19.796C9.93995 19.824 9.98195 19.95 10.0239 20.062C10.0659 20.188 9.88395 20.426 9.54795 20.692L9.01595 21.126L9.22595 20.426C9.37995 19.936 9.50595 19.74 9.68795 19.74C9.82795 19.74 9.93995 19.768 9.93995 19.796ZM10.5979 20.384C10.5139 20.678 9.98195 21.602 9.42195 22.428C8.86195 23.268 8.13395 24.458 7.81195 25.088L7.20995 26.25L7.16795 24.262C7.13995 22.386 7.15395 22.246 7.44795 21.91C7.61595 21.714 7.82595 21.56 7.93795 21.56C8.03595 21.56 8.21795 21.406 8.34395 21.21C8.59595 20.818 8.81995 20.86 8.81995 21.294C8.81995 21.924 9.89795 21.196 10.3879 20.258C10.7239 19.586 10.8219 19.642 10.5979 20.384ZM68.4599 27.496C68.4599 28.112 68.2219 27.762 68.1239 27.02C68.0399 26.418 68.0399 26.404 68.2359 26.74C68.3619 26.936 68.4459 27.272 68.4599 27.496ZM6.38395 27.286C6.49595 27.188 6.62195 27.16 6.67795 27.202C6.81795 27.342 6.14595 28.84 5.93595 28.84C5.54395 28.84 5.23595 27.664 5.47395 27.048L5.61395 26.67L5.90795 27.062C6.13195 27.37 6.22995 27.412 6.38395 27.286ZM47.1799 66.15C47.1799 66.29 47.0399 66.36 46.7319 66.36L46.2699 66.346L46.6199 66.15C47.0679 65.898 47.1799 65.898 47.1799 66.15ZM45.9479 67.158C46.1439 67.41 45.7099 67.55 45.2479 67.396C44.7159 67.214 44.7159 66.948 45.2479 66.724C45.6679 66.542 45.7099 66.542 45.7659 66.752C45.7939 66.878 45.8779 67.074 45.9479 67.158ZM30.7299 68.754C30.9259 68.95 30.2259 68.894 29.7499 68.684C29.3299 68.488 29.3439 68.488 29.9599 68.558C30.3099 68.6 30.6459 68.684 30.7299 68.754Z" fill="black"/>
<path d="M35.7419 1.21777C35.9519 1.24577 36.2879 1.24577 36.5119 1.21777C36.7219 1.18977 36.5399 1.16177 36.1199 1.16177C35.6999 1.16177 35.5179 1.18977 35.7419 1.21777Z" fill="black"/>
<path d="M50.932 4.95577C51.1 5.17977 51.24 5.47377 51.24 5.62777C51.24 5.78177 51.31 5.85177 51.38 5.80977C51.66 5.64177 51.506 5.19377 51.072 4.87177L50.61 4.54977L50.932 4.95577Z" fill="black"/>
<path d="M4.64791 18.8018C4.32591 19.1518 4.25591 19.5298 4.47991 19.6698C4.56391 19.7118 4.61991 19.8938 4.61991 20.0618C4.63391 20.3698 4.63391 20.3698 4.84391 20.0898C5.02591 19.8378 5.02591 19.8098 4.84391 19.7678C4.56391 19.7118 4.56391 19.7118 4.82991 19.0818C5.09591 18.4658 5.03991 18.3818 4.64791 18.8018Z" fill="black"/>
<path d="M2.31 20.7758C2.128 21.2518 2.114 21.4478 2.226 21.6858C2.52 22.2038 2.66 21.9938 2.66 21.0698C2.66 20.5658 2.632 20.1598 2.604 20.1598C2.576 20.1598 2.436 20.4398 2.31 20.7758Z" fill="black"/>
<path d="M1.63796 23.0998C1.41396 23.4918 1.18996 23.7998 1.13396 23.7998C0.993964 23.7998 0.615964 23.3658 0.531964 23.0998C0.489964 22.9878 0.433964 23.1278 0.405964 23.4078C0.363964 23.6878 0.391964 23.8838 0.447964 23.8558C0.503964 23.8138 0.559964 24.0098 0.559964 24.2758C0.559964 24.5558 0.629964 24.7798 0.699964 24.7798C0.783964 24.7798 0.839964 24.7238 0.839964 24.6538C0.839964 24.5698 1.21796 24.2198 1.67996 23.8698C2.50596 23.2258 2.68796 22.9038 2.35196 22.5678C2.09996 22.3158 2.05796 22.3438 1.63796 23.0998Z" fill="black"/>
<path d="M0.699951 25.6198C0.699951 25.7038 0.797951 25.7598 0.909951 25.7598C1.17595 25.7598 1.17595 25.6758 0.909951 25.5638C0.797951 25.5218 0.699951 25.5498 0.699951 25.6198Z" fill="black"/>
<path d="M67.788 44.1699C67.634 44.5199 67.55 46.3259 67.69 46.1719C67.774 46.0879 68.068 43.9459 67.998 43.8759C67.97 43.8479 67.872 43.9739 67.788 44.1699Z" fill="black"/>
<path d="M64.806 49.1679C64.68 49.6439 64.54 50.1479 64.484 50.2739C64.33 50.6099 65.002 50.4559 65.352 50.0639C65.842 49.5459 65.856 49.2099 65.422 48.7199L65.016 48.2719L64.806 49.1679Z" fill="black"/>
<path d="M63.9799 50.9738C63.8819 51.1278 63.8399 51.2958 63.8819 51.3238C63.9099 51.3518 64.0079 51.2258 64.0919 51.0298C64.2879 50.6098 64.1899 50.5678 63.9799 50.9738Z" fill="black"/>
<path d="M63.4339 52.3877C63.1259 53.3117 63.1679 53.3117 63.7559 52.4297L64.1199 51.8697V52.4297C64.1059 52.7377 64.0219 53.1437 63.9099 53.3397C63.4059 54.2217 63.8259 54.6137 64.5959 53.9977C64.9459 53.7037 64.9739 53.6337 64.8339 53.3537C64.7219 53.1717 64.6939 52.8217 64.7639 52.4297C64.8479 51.8417 64.8339 51.7997 64.4699 51.6597C63.8399 51.4217 63.7419 51.4917 63.4339 52.3877Z" fill="black"/>
<path d="M60.774 55.5239C60.774 55.6919 60.41 56.2099 59.99 56.6859C59.248 57.5119 59.052 57.9879 59.36 58.1699C59.612 58.3239 59.514 58.4919 59.122 58.5899L58.73 58.7019L59.136 58.8139C59.416 58.8979 59.626 58.8559 59.878 58.7019L60.228 58.4639L59.906 58.2399C59.416 57.8619 59.64 57.5399 60.41 57.5399H61.04L61.026 56.9379C61.026 56.2799 60.802 55.0619 60.774 55.5239Z" fill="black"/>
<path d="M62.3699 55.5937C62.3139 55.6777 62.2999 55.7617 62.3419 55.8037C62.3699 55.8457 62.4399 55.7757 62.4819 55.6497C62.5799 55.4117 62.4959 55.3697 62.3699 55.5937Z" fill="black"/>
<path d="M61.8099 56.7977C61.5999 57.1337 61.4599 57.4417 61.4879 57.4697C61.5019 57.4837 61.7259 57.5537 61.9639 57.5957C62.3419 57.6797 62.4539 57.6377 62.7059 57.3157C63.0979 56.8257 63.0839 56.6717 62.5799 56.3917L62.1739 56.1677L61.8099 56.7977Z" fill="black"/>
<path d="M58.7859 59.5981L58.3099 60.1021L58.7579 59.7941C59.2339 59.4721 59.4299 59.2481 59.3319 59.1361C59.3039 59.1081 59.0519 59.3181 58.7859 59.5981Z" fill="black"/>
<path d="M52.8499 66.6398C52.8079 66.7098 52.8359 66.7798 52.9059 66.7798C52.9899 66.7798 53.0599 66.7098 53.0599 66.6398C53.0599 66.5558 53.0319 66.4998 53.0039 66.4998C52.9619 66.4998 52.8919 66.5558 52.8499 66.6398Z" fill="black"/>
<path d="M48.37 68.1939C47.782 68.7959 47.726 68.8939 48.02 68.8099C48.622 68.6419 49.21 68.2499 49.252 67.9839C49.364 67.4239 49.028 67.5079 48.37 68.1939Z" fill="black"/>
<path d="M45.57 68.0399L45.01 68.2919L45.542 68.3059C45.892 68.3199 46.102 68.2499 46.158 68.1099C46.284 67.7739 46.172 67.7599 45.57 68.0399Z" fill="black"/>
<path d="M37.17 69.0198C35.784 69.1598 33.992 69.2858 33.18 69.2998L31.71 69.3278L33.11 69.5938C33.908 69.7618 35.434 69.9018 36.68 69.9578L38.85 70.0278L38.5 69.7478L38.15 69.4678L38.5 69.3138C38.696 69.2438 39.354 69.1318 39.97 69.0758C40.796 69.0058 40.992 68.9498 40.74 68.8658C40.25 68.7258 40.026 68.7398 37.17 69.0198Z" fill="black"/>
<path d="M34.5488 11.2697C30.5 11.551 26.5742 13.3088 23.6504 16.1506C22.4551 17.3166 21.7578 18.2307 21.1191 19.4728C20.4453 20.7971 19.9707 22.3029 19.7305 23.8967C19.5723 24.9689 19.584 26.6857 19.7539 27.8225C19.8301 28.3029 19.8828 28.8185 19.8711 28.965L19.8535 29.2287L19.502 29.2228C19.3086 29.217 18.9512 29.1935 18.7109 29.1701L18.2715 29.1232L18.0723 29.3225C17.8027 29.592 17.5625 30.1252 17.4805 30.6174C17.3691 31.2619 17.4336 32.4514 17.6152 33.1252C17.6914 33.4299 17.7559 33.6877 17.75 33.6935C17.7383 33.7111 16.4785 32.7853 16.332 32.6506C16.2559 32.5803 16.1914 32.4865 16.1914 32.4396C16.1914 32.34 16.4258 32.34 16.5723 32.4396C16.8887 32.6506 17.1465 32.7912 17.1055 32.7209C16.9941 32.5451 16.1562 31.8889 15.9746 31.842C15.7344 31.7717 15.4883 31.8478 15.4883 31.9826C15.4883 32.0353 15.582 32.1584 15.6934 32.258C15.8398 32.381 15.8926 32.4689 15.8691 32.5451C15.8398 32.6271 15.9453 32.715 16.4082 32.9846C16.7246 33.1721 17.1816 33.4475 17.4277 33.5998L17.8672 33.8869L18.0254 34.3381C18.1133 34.59 18.2129 35.006 18.248 35.2639C18.4238 36.5471 18.4707 36.7228 18.7344 37.2678C18.9512 37.6955 19.1211 37.924 19.5898 38.4279C20.4805 39.3713 20.5801 39.6467 20.4453 40.7424C20.3984 41.1115 20.4043 41.135 20.6152 41.5334C20.9492 42.1486 21.043 42.6057 21.207 44.3459C21.4414 46.8596 21.418 48.7697 21.1309 49.5549C21.0137 49.8947 21.0254 50.6037 21.1953 52.6369C21.2891 53.6916 21.3301 54.5295 21.3066 54.7873C21.2773 55.1799 21.2832 55.215 21.4238 55.3557C21.6758 55.6076 22.0273 55.5432 22.2031 55.2033C22.3145 54.9924 22.3145 54.9221 22.2559 52.2209L22.2148 50.2463L22.3672 50.2756C22.5723 50.3166 22.6953 50.1994 22.6953 49.9592C22.6953 49.7951 22.6602 49.7424 22.4844 49.6369L22.2793 49.5139L22.3145 47.3107C22.3379 46.0978 22.373 44.4689 22.3965 43.6955C22.4375 42.3713 22.4492 42.2658 22.5723 42.0666C22.6484 41.9494 22.7246 41.8557 22.748 41.8557C22.7773 41.8557 22.8301 42.0197 22.8711 42.2189C22.918 42.4416 23.1113 42.8986 23.3457 43.3557C23.7793 44.2053 24.2949 45.4475 24.7168 46.6603C25.2441 48.1662 25.7598 49.0685 26.4219 49.6135C28.0684 50.9904 28.0566 50.9728 29.4219 53.006C30.043 53.9435 30.5 54.5588 30.6934 54.7346C31.666 55.6135 33.3066 56.3342 34.5605 56.4338L35.0879 56.4748L35.0762 56.9142C35.0703 57.1545 35.0117 57.6115 34.9473 57.9338C34.7773 58.7307 34.7832 58.9182 34.9941 59.1525C35.1406 59.3166 35.1934 59.34 35.4512 59.3342C35.8086 59.3283 35.9668 59.2521 36.1133 59.006C36.2656 58.76 36.2598 58.6017 36.084 58.0861C35.9316 57.6467 35.9023 57.2189 35.9844 56.6799L36.0254 56.4162L36.6523 56.3752C37.9062 56.299 38.8555 56.006 39.9746 55.3498C40.2734 55.174 40.543 55.051 40.5664 55.0803C40.5957 55.1037 40.625 55.7892 40.6426 56.5978C40.6602 57.5295 40.6953 58.1154 40.7363 58.1975C40.8301 58.3674 41.123 58.3674 41.2227 58.1857C41.2754 58.0978 41.3047 57.5646 41.3281 56.3869L41.3574 54.717L41.5977 54.2189C41.7266 53.9435 42.3711 52.7189 43.0273 51.4943C45.207 47.4162 45.6875 46.4377 46.4668 44.5217C47.6797 41.5334 48.0254 40.7072 48.0723 40.6545C48.1074 40.6193 48.1836 40.6603 48.2891 40.76L48.4473 40.9182V43.1916C48.4531 44.9435 48.4766 45.6467 48.5527 46.2795C48.6055 46.7307 48.6523 47.3342 48.6523 47.6154C48.6523 48.2014 48.7461 48.4767 48.9805 48.5881C49.1621 48.6701 49.3086 48.6701 49.4902 48.5881C49.7891 48.4533 49.8418 48.1603 49.7422 47.1232C49.7012 46.7365 49.7129 46.5432 49.7832 46.2443C49.8828 45.8517 49.877 45.7932 49.6777 44.9904C49.5898 44.6389 49.584 44.3986 49.6133 43.3732C49.6309 42.7111 49.6719 42.0959 49.707 42.008C49.7598 41.8615 49.7832 41.8498 49.959 41.8908C50.2578 41.9611 50.4277 41.926 50.5859 41.7678C50.7676 41.5861 50.7793 41.2228 50.6211 40.5666C50.4219 39.7287 50.5859 38.633 51.002 38.0178C51.1426 37.8127 51.3418 37.7072 51.4648 37.7834C51.5879 37.8596 51.8281 38.4162 51.9102 38.8322C51.9688 39.09 52.0098 39.7639 52.0332 40.6369L52.0684 42.0314H51.9336C51.8633 42.0314 51.7109 42.1252 51.5996 42.2365C51.3535 42.4826 51.3477 42.7111 51.5938 42.8459C51.7402 42.9279 51.7637 42.9279 51.9219 42.8107L52.0859 42.6877L52.1562 46.5666C52.2031 48.8752 52.2676 50.8088 52.3145 51.3478C52.3613 51.8459 52.4023 52.4435 52.4023 52.6721C52.4023 53.3166 52.5547 53.6154 52.7539 53.3693C52.8945 53.1994 52.9531 51.9338 52.877 50.7092C52.8242 49.842 52.8242 48.9807 52.8711 47.217C53.0645 39.5939 53.1113 36.8283 53.0645 35.5861C53.0059 33.9279 53.0234 33.5646 53.1992 32.6564C53.3926 31.6603 53.4277 31.1564 53.3398 30.7111C53.1055 29.5041 52.168 28.9533 51.0312 29.3635C50.8379 29.4338 50.668 29.4807 50.6562 29.4631C50.5508 29.3576 50.5332 28.7717 50.6094 27.8225C50.7676 25.9123 50.7734 25.6603 50.7031 24.7463C50.4863 21.7697 49.3965 18.8342 47.6211 16.4435C47.1699 15.8342 45.9922 14.6623 45.3711 14.2053C44.3691 13.467 43.0566 12.758 41.8379 12.301C39.7344 11.5158 36.8809 11.1115 34.5488 11.2697ZM32.4512 13.6076C32.791 13.7658 32.9199 13.9299 32.9199 14.2228C32.9199 14.6975 32.5332 15.0432 30.9277 16.0158C30.3828 16.3439 29.8027 16.7131 29.6387 16.8303C29.4805 16.9475 29.252 17.1115 29.1406 17.1877L28.9355 17.3342L29.0469 17.1584C29.5742 16.3557 29.5156 16.0861 28.9004 16.4728L28.6426 16.6369V16.4318C28.6426 16.2385 28.625 16.2209 28.4551 16.2033C28.2031 16.1799 27.5527 16.4846 26.8262 16.9767C25.7656 17.6975 25.0801 18.3478 24.2012 19.4553C24.0195 19.6838 23.8438 19.8889 23.8086 19.9123C23.7207 19.965 23.9023 19.5021 24.1367 19.0803C24.2598 18.8635 24.3242 18.7111 24.2832 18.7346C24.2422 18.7639 23.9316 19.1506 23.5977 19.6017C23.2637 20.0471 22.9883 20.3869 22.9883 20.3517C22.9883 20.2228 23.5742 19.1271 23.9141 18.6232C25.3555 16.467 27.5645 14.7209 29.9023 13.8771C30.9336 13.508 31.9883 13.3967 32.4512 13.6076ZM37.0098 16.9006C37.4199 17.0119 37.5137 17.5041 37.209 17.9553C36.9922 18.2775 36.1602 18.9572 35.498 19.3439C34.9355 19.6838 34.8359 19.7717 34.3027 20.3986C33.9863 20.7736 33.6523 21.1486 33.5645 21.2307C33.3066 21.4592 32.7148 22.2853 32.7148 22.4084C32.7148 22.5842 32.9551 22.6896 33.5586 22.7775C34.25 22.8713 34.3262 22.9299 34.4082 23.4455C34.4375 23.6447 34.5254 23.8908 34.5898 23.9846C34.918 24.4475 35.6035 24.4533 35.9316 23.9963C36.1074 23.7443 36.1309 23.5568 36.0547 23.0529C36.0137 22.8068 35.9961 22.5256 36.0195 22.4318C36.084 22.1857 36.3828 21.9338 37.0918 21.5236C37.4434 21.3303 37.9648 20.967 38.252 20.7267C39.1719 19.9533 40.1797 19.5549 40.6777 19.7658C40.9941 19.8947 41.0586 20.0705 41.0938 20.8381L41.123 21.5353L41.3223 21.7111C41.4922 21.8635 41.5566 21.881 41.75 21.8576C42.0254 21.8225 42.1426 21.7346 42.248 21.4709C42.3242 21.2892 42.3184 20.8908 42.2305 20.5744C42.1895 20.4221 42.4121 20.2346 42.6348 20.2346C42.8867 20.2346 43.502 20.5334 43.6602 20.7267C43.8184 20.9318 43.748 21.1603 43.4434 21.4123C43.168 21.6467 41.9375 22.2385 40.666 22.76C39.2422 23.34 37.918 24.008 36.9629 24.6291C35.9258 25.3029 35.75 25.3615 34.7363 25.3146C34.1504 25.2912 33.6758 25.2209 32.6855 25.01C30.5938 24.5705 30.1602 24.506 29.9023 24.5705C29.791 24.5939 29.9609 24.6584 30.5469 24.799C30.9805 24.9103 32.0996 25.2443 33.0254 25.5432C34.8184 26.1291 35.3281 26.2521 35.6562 26.1877C35.7676 26.1701 36.1602 25.9767 36.5293 25.7658C37.7188 25.0803 38.6914 24.6232 39.7695 24.2482C40.3555 24.049 41.0469 23.7853 41.3164 23.6623C41.5859 23.5451 41.8203 23.4572 41.832 23.4748C41.8496 23.4924 41.7031 23.6271 41.5098 23.7795C41.1875 24.0373 41.0293 24.2189 41.1465 24.2189C41.1699 24.2189 41.5215 24.0607 41.9199 23.8732C42.7051 23.4982 44.0586 23.006 44.1289 23.0705C44.252 23.1994 43.25 23.7736 42.043 24.2717C41.3691 24.5471 40.5898 24.9631 40.6426 25.0158C40.6543 25.0275 40.748 25.01 40.8477 24.9748C41.1992 24.8517 41.1582 24.9572 40.748 25.215C39.3125 26.1232 38.5684 26.6096 38.3926 26.756C38.2109 26.9025 38.2051 26.9142 38.3398 26.885C38.4219 26.8615 39.0137 26.592 39.6582 26.2873C41.0293 25.631 41.3516 25.508 42.2305 25.2678C42.6816 25.1506 43.168 24.9514 43.8184 24.635C44.334 24.383 44.8555 24.1428 44.9844 24.1017C45.3242 23.9963 46.1035 24.0549 46.4258 24.2072C46.6016 24.2951 46.6367 24.3244 46.5312 24.3068C45.6816 24.1486 45.1367 24.1428 45.1367 24.301C45.1367 24.342 45.0312 24.4182 44.9023 24.4709C44.7734 24.5178 44.668 24.5881 44.668 24.6174C44.668 24.6818 44.9668 24.8107 45.6875 25.0451C46.3145 25.2502 47.1055 25.6193 47.3047 25.7951L47.4512 25.924L47.0703 25.8947C46.8594 25.8771 46.373 25.8244 45.9863 25.7775C45.5996 25.7248 44.9727 25.6838 44.5918 25.6838C44 25.6838 43.8652 25.7014 43.6543 25.8068C43.5137 25.883 42.9102 26.4279 42.2656 27.0607C41.6387 27.6818 40.8887 28.3791 40.5957 28.6135C40.3086 28.8537 40.1211 29.0236 40.1855 29.0002C40.25 28.9767 40.9883 28.5959 41.8262 28.1447C42.6641 27.6994 43.7305 27.1486 44.1934 26.9201C44.9375 26.551 45.0723 26.5041 45.3711 26.5041C45.7754 26.5041 46.1855 26.6389 46.8887 27.0021C47.5332 27.3361 47.791 27.5764 47.9258 27.9807C47.9844 28.1623 48.125 28.3908 48.2773 28.5549C48.4883 28.7834 49.1445 29.9494 49.0918 30.008C49.0391 30.0666 48.6348 29.7795 48.1602 29.3517C47.498 28.7541 47 28.3791 46.6602 28.2033C46.4434 28.092 46.3438 28.0744 46.0098 28.1037C45.2363 28.1682 44.3398 28.5607 42.2363 29.756C40.1738 30.9279 38.668 31.6017 38.1113 31.6017C37.5547 31.6017 37.4023 31.3439 37.3555 30.301C37.332 29.6916 37.3848 29.0705 37.502 28.5666C37.5195 28.4963 37.5078 28.4377 37.4727 28.4377C37.373 28.4377 36.957 29.5861 36.7871 30.3244C36.7051 30.6994 36.5938 31.0568 36.5469 31.1154C36.4648 31.2092 36.459 31.1506 36.4883 30.5471C36.5059 30.0725 36.4941 29.7678 36.4355 29.5217C36.3887 29.3283 36.3477 29.0646 36.3477 28.9357C36.3359 28.3732 36.2363 29.0178 36.1484 30.2307C36.0957 30.9396 36.0254 31.7072 35.9902 31.9357C35.9023 32.4865 35.9434 32.715 36.1895 33.0549C36.3008 33.2072 36.4062 33.383 36.4297 33.4533C36.4531 33.5236 36.3887 33.8166 36.2773 34.1564C36.1191 34.6545 36.0898 34.842 36.0664 35.51C36.0547 35.9963 36.0664 36.3185 36.1074 36.3889C36.166 36.4885 36.166 36.4885 36.1719 36.3713C36.1719 36.1721 36.2891 35.8908 36.3887 35.8557C36.4707 35.8205 36.4766 36.0666 36.4355 38.2932C36.4004 40.4201 36.4062 40.8771 36.4883 41.5041C36.5879 42.2307 36.7402 42.9748 36.752 42.7756C36.7695 42.5178 37.2148 41.8732 37.4727 41.7326C37.625 41.6506 37.8125 41.7209 37.8125 41.8674C37.8125 41.9377 37.6133 42.2541 37.373 42.5705C37.127 42.8928 36.8516 43.3029 36.7637 43.4846C36.5645 43.883 36.4648 43.9767 36.084 44.1467C35.8496 44.2521 35.7324 44.2697 35.3926 44.2404C35.1699 44.2228 34.877 44.1525 34.7422 44.0822C34.3906 43.9123 33.043 42.7228 32.9258 42.4767C32.7852 42.1838 32.8027 41.7971 32.9668 41.5568C33.1309 41.3166 33.2188 41.3225 33.6348 41.5978C33.8047 41.7092 33.957 41.7971 33.9746 41.7971C34.0449 41.7971 33.9922 41.6623 33.7988 41.3576C33.3594 40.6721 33.0312 40.4084 32.6855 40.4728C32.2402 40.5607 31.4668 41.3986 31.3965 41.8791C31.332 42.3127 31.4375 42.5119 32.1523 43.256C32.8672 44.0119 32.9375 44.1291 33.2715 45.1955C33.3887 45.5646 33.5469 45.9807 33.6289 46.1154C33.7051 46.2502 33.7695 46.3732 33.7695 46.385C33.7695 46.4025 33.5645 46.4435 33.3125 46.4787C33.0664 46.5139 32.6504 46.5959 32.3926 46.6603L31.9238 46.7775L31.6953 46.5256C31.5723 46.3908 31.209 45.9514 30.8926 45.5529C30.5703 45.1545 30.3125 44.8439 30.3125 44.8615C30.3125 44.9201 31.3672 46.5549 31.4961 46.6955C31.5605 46.7658 31.584 46.842 31.5547 46.8596C31.4258 46.9357 30.7285 47.0705 30.4238 47.0705C29.8789 47.0705 29.6328 46.9006 28.3965 45.676C27.7871 45.0725 26.7207 44.0705 26.0176 43.4435C25.3203 42.8166 24.7461 42.2834 24.7461 42.2541C24.7461 42.1779 26.9609 43.3791 27.6406 43.8185C27.8398 43.9475 27.8398 43.8654 27.6523 43.4553C27.2891 42.676 26.4922 41.7678 25.5664 41.0705C25.2617 40.842 24.5469 40.3791 23.9844 40.0451C22.543 39.1838 22.3555 39.0549 22.2793 38.8088C22.1855 38.5392 22.1855 36.5471 22.2734 36.09C22.4141 35.3635 22.7188 35.0002 23.1816 35.0002C23.2988 35.0002 24.002 35.1467 24.7344 35.3283C26.3809 35.7326 26.2578 35.6975 26.1523 35.7619C26.0352 35.8381 25.2734 35.8322 24.8047 35.756C24.3594 35.6857 24.1426 35.7209 24.1719 35.8674C24.1953 36.008 24.6641 36.2307 24.9512 36.2365L25.1855 36.2424L24.9219 36.3244C24.4414 36.4826 24.3711 36.5236 24.4414 36.5939C24.5469 36.6994 25.5078 36.8693 26.2109 36.9103C26.5801 36.9338 26.9316 36.9748 26.9902 37.0041C27.1602 37.092 27.2656 37.4201 27.2656 37.842C27.2656 38.5041 27.0312 38.8146 26.4746 38.9025C26.2227 38.9377 26.0527 38.8908 24.8633 38.4338C24.5586 38.3166 24.1953 38.176 24.0547 38.1291C23.9199 38.0764 23.6797 37.9475 23.5273 37.842C22.9941 37.467 22.7715 37.3439 22.6719 37.3791C22.3906 37.4846 22.7363 37.7482 24.4238 38.7209C25.0801 39.1017 25.25 39.2189 25.8184 39.6994C26.0352 39.8869 26.2754 40.0392 26.3457 40.0451C26.416 40.051 26.6621 40.0451 26.8906 40.0392C27.3418 40.0275 27.6641 40.1271 27.8984 40.3498C28.0742 40.5139 28.3438 41.0412 28.4316 41.3986C28.5488 41.885 28.6719 43.1506 28.6719 43.883C28.6719 44.5568 28.6777 44.5978 28.8184 44.7502C28.918 44.8557 29.0176 44.9025 29.1641 44.9025C29.4512 44.9025 29.5449 44.8557 29.6504 44.6447C29.7266 44.4924 29.75 44.2346 29.7559 43.1389C29.7617 42.4123 29.7852 41.7853 29.8145 41.7385C29.8379 41.6975 29.8906 41.0353 29.9316 40.2736C30.0137 38.5685 30.0371 38.4982 30.7402 37.9709C30.9863 37.7892 31.3965 37.4846 31.6426 37.2971C31.8945 37.1154 32.1523 36.8752 32.2227 36.7697C32.4043 36.506 32.6562 35.7267 32.6562 35.4455C32.6562 35.2639 32.6973 35.1818 32.8789 34.9943C33.2773 34.6017 33.5938 34.6369 33.5938 35.0822C33.5938 35.1818 33.6348 35.5158 33.6875 35.8205C33.7344 36.1252 33.7988 36.6525 33.8281 36.9924C33.8633 37.467 33.8984 37.6193 33.9805 37.6779C34.1211 37.7834 34.1562 37.7775 34.3027 37.631C34.4258 37.508 34.4316 37.4728 34.3848 36.7932C34.3613 36.4006 34.3203 35.5803 34.2969 34.9709C34.2676 34.215 34.2207 33.7639 34.1562 33.5705C33.9922 33.0725 34.0156 33.0021 34.5547 32.2287C34.8711 31.7717 34.8887 31.5197 34.6543 30.9338C34.4551 30.4299 34.4434 30.3244 34.543 29.8439C34.6191 29.4514 34.584 29.2697 34.373 29.0236C34.0742 28.6662 32.457 27.5119 31.6016 27.0432C31.0449 26.7385 30.1719 26.4455 29.8203 26.4455C29.5273 26.4455 29.4746 26.5158 29.6855 26.6271C29.9199 26.7502 30.582 27.3068 31.1152 27.8342C32.5508 29.2404 33.125 30.6642 32.4688 31.1506C32.2285 31.3322 31.7188 31.3498 31.2793 31.1975C30.8516 31.0451 30.4355 30.7932 29.5508 30.1486C28.0801 29.0705 27.0371 28.4553 26.416 28.2971C25.7949 28.133 24.8105 28.2209 24.2891 28.4904C23.9902 28.6486 23.6035 29.0646 23.1289 29.756C22.7656 30.2892 22.2324 30.9279 22.1914 30.881C22.127 30.8166 22.4844 29.8439 22.6895 29.5275C22.8242 29.3225 23.0293 28.9182 23.1406 28.6369C23.252 28.3498 23.3984 28.0334 23.4688 27.9338C23.6035 27.7346 24.5762 27.0666 25.3027 26.674C25.625 26.4982 25.7773 26.4455 26.0117 26.4455C26.375 26.4455 27.0781 26.6154 27.7168 26.8674C28.127 27.0314 28.2031 27.0783 28.2324 27.2189C28.3555 27.7756 29.1113 27.9045 29.3047 27.4006C29.3398 27.3127 29.3809 26.674 29.3926 25.9767C29.4102 25.133 29.4453 24.5881 29.5098 24.3361C29.5625 24.1076 29.6152 23.4982 29.6328 22.8127C29.6738 21.5705 29.7148 21.3303 29.9434 20.9846C30.1133 20.7267 31.3145 19.7541 31.7188 19.5432C31.959 19.4142 32.0293 19.4084 32.5098 19.4377C32.8027 19.4553 33.125 19.4494 33.2363 19.4142C33.6055 19.3088 34.0449 18.7814 34.2441 18.2014C34.3086 18.0197 34.4141 17.8088 34.4785 17.7385C34.6426 17.5627 35.9844 16.9533 36.3359 16.8947C36.7285 16.8303 36.7637 16.8303 37.0098 16.9006ZM26.498 21.3127C27.4121 21.6232 27.7461 21.9924 27.9629 22.9357C28.1035 23.5392 28.168 24.1017 28.1035 24.1017C28.0742 24.1017 27.6992 24.0197 27.2656 23.926C26.2344 23.6916 25.4023 23.6447 24.7637 23.7736C24.2305 23.8791 23.0703 24.2834 22.2031 24.6642C21.5059 24.9689 21.5586 24.8576 22.3672 24.3244C23.0176 23.8967 23.5625 23.633 24.2598 23.4221C24.5586 23.3283 24.8047 23.2346 24.8047 23.2111C24.8047 23.1877 24.7051 23.1408 24.582 23.0998C24.4062 23.0471 24.2246 23.0529 23.7148 23.1291C23.3633 23.1818 23.0527 23.2228 23.0293 23.2228C22.9473 23.2228 22.9883 23.0646 23.1641 22.7072C23.4805 22.0861 24.4004 21.342 25.0742 21.1721C25.4141 21.09 26.0117 21.1486 26.498 21.3127ZM28.1504 24.4475C28.2148 24.5119 28.3145 26.3517 28.2676 26.6389C28.2441 26.7912 28.209 26.9318 28.1914 26.9494C28.1738 26.967 27.8633 26.8264 27.5059 26.6389C26.8613 26.3049 26.8438 26.299 26.3984 26.3107C25.8711 26.3166 25.2266 26.4045 23.041 26.7678C22.1621 26.9084 21.4355 27.0197 21.4238 27.008C21.377 26.9611 24.3359 25.2443 25.2441 24.7873C25.7656 24.5295 26.0527 24.4475 26.6797 24.3947C27.1953 24.3478 28.0859 24.383 28.1504 24.4475ZM19.5664 30.1955C19.8711 30.4006 20.2109 30.6701 20.3223 30.7932C20.7676 31.3205 20.8965 32.7912 20.5098 33.0314C20.3574 33.131 20.2344 33.0197 19.9824 32.5627C19.7129 32.0705 19.5254 31.8713 18.8926 31.3908C18.2539 30.9045 18.2129 30.84 18.2246 30.3771C18.2363 29.885 18.3418 29.7619 18.7227 29.7971C18.9395 29.8205 19.1211 29.9084 19.5664 30.1955ZM52.0859 30.1252C52.1973 30.1955 52.2852 30.4182 52.2852 30.6232C52.2852 30.8107 52.209 30.8928 51.377 31.6545C50.4219 32.5158 50.2168 32.633 50.1465 32.3459C50.0938 32.1467 50.2637 31.426 50.4395 31.0803C50.627 30.7053 50.9902 30.3361 51.3066 30.1896C51.5527 30.0783 51.9688 30.0432 52.0859 30.1252ZM25.6543 31.0744C25.6367 31.1037 25.3496 31.2971 25.0215 31.4963C24.6172 31.7424 24.3008 31.9943 24.043 32.2697C23.3105 33.0549 23.0469 33.301 22.959 33.301C22.8301 33.301 22.8477 33.1838 23.0527 32.7795C23.2812 32.3225 23.7676 31.7892 24.1426 31.5842C24.3594 31.467 25.5547 31.0217 25.6719 31.0158C25.6836 31.0158 25.6719 31.0392 25.6543 31.0744ZM29.293 32.0998C30.0898 32.6447 30.2129 33.6994 29.5625 34.3732C28.8066 35.1642 27.582 34.9885 27.1133 34.0217C26.7324 33.2482 27.0312 32.3752 27.8105 31.9826C28.0742 31.8478 28.1738 31.8303 28.5371 31.8478C28.918 31.8654 28.9883 31.8889 29.293 32.0998ZM43.6602 31.9592C44.5977 32.4162 44.832 33.5529 44.1465 34.3146C43.4316 35.1115 42.1777 34.9357 41.6621 33.9748C41.4863 33.6467 41.4863 33.0139 41.6621 32.6799C41.8203 32.3869 42.248 31.9943 42.5117 31.9123C42.8516 31.801 43.373 31.8244 43.6602 31.9592ZM49.0098 34.6076C49.0566 34.7131 49.0391 34.8244 48.9277 35.1232C48.8457 35.3342 48.7227 35.715 48.6523 35.9728C48.4824 36.6115 48.2188 37.0685 47.7734 37.5256C47.3457 37.965 47.1816 38.0412 45.957 38.3693C44.4512 38.7736 43.9648 39.0607 43.25 39.9807L43.0918 40.1857V39.6877C43.0918 38.7736 43.3496 37.7248 43.6895 37.2678C43.9004 36.9924 44.375 36.7228 44.7676 36.6642C45.1543 36.6057 45.1484 36.7287 44.709 37.3557C44.3164 37.924 44.0527 38.3869 44.0996 38.4396C44.1172 38.4514 44.4336 38.1584 44.8027 37.7892C45.1719 37.4142 45.5059 37.1096 45.541 37.1096C45.582 37.1096 45.4355 37.3088 45.2246 37.5607C45.0137 37.8068 44.8438 38.0295 44.8438 38.0588C44.8438 38.1525 45.0781 38.0471 45.7227 37.6779C46.5898 37.1799 46.7363 37.0627 47.1289 36.5471C47.6094 35.9084 47.6035 35.8029 47.1055 36.1193C46.9473 36.2131 46.8125 36.2834 46.8008 36.2717C46.7598 36.2307 47.3691 35.3869 47.6445 35.0939C48.0488 34.6721 48.3887 34.4728 48.6934 34.4728C48.9043 34.4728 48.957 34.4963 49.0098 34.6076ZM19.4609 34.965C19.7598 35.2463 20.1582 35.8557 20.0879 35.926C20.041 35.9787 19.4434 35.3517 19.1855 34.9767C18.9395 34.6193 19.0859 34.6135 19.4609 34.965ZM50.4395 35.6506C50.498 35.7326 50.1523 36.4123 49.959 36.6115C49.8008 36.7697 49.7949 36.7697 49.7773 36.6467C49.7656 36.5764 49.8008 36.3771 49.8535 36.2072C50 35.7502 50.3164 35.4455 50.4395 35.6506ZM20.2695 37.385C20.6797 37.6896 20.8203 37.883 20.8203 38.1057C20.8203 38.2463 20.8027 38.2463 20.5977 38.1408C20.3516 38.0119 19.7832 37.3674 19.5898 36.9924L19.5137 36.8517L19.6836 36.9572C19.7773 37.0158 20.041 37.2092 20.2695 37.385ZM49.8652 38.0295C49.7539 38.2463 49.6133 38.5685 49.5605 38.7326C49.5078 38.9025 49.4434 39.0549 49.4141 39.0725C49.25 39.1721 49.3555 38.5568 49.5547 38.2756C49.6074 38.1994 49.6484 38.0998 49.6484 38.0529C49.6484 37.965 50 37.5607 50.0469 37.6017C50.0586 37.6135 49.9766 37.8068 49.8652 38.0295ZM41.498 39.0373C41.8086 39.3478 41.9141 39.8576 41.9141 41.1115C41.9141 41.715 41.9375 42.0373 41.9961 42.1721C42.1777 42.6115 42.6758 42.758 43.0215 42.465C43.25 42.2717 43.332 41.9846 43.2559 41.6037C43.2266 41.4396 43.209 41.3049 43.2148 41.299C43.2266 41.2932 43.3555 41.2463 43.5137 41.1935C43.8066 41.0939 43.8594 41.1291 43.6719 41.299C43.6074 41.3576 43.5547 41.4807 43.5547 41.5744C43.5547 41.7326 43.5664 41.7385 43.8359 41.7385C43.9883 41.7385 44.2051 41.715 44.3164 41.6857C44.75 41.5744 44.8438 41.5627 44.8438 41.6154C44.8438 41.7502 44.1348 42.4182 43.4199 42.9572C42.6289 43.5549 41.2695 44.7502 41.2695 44.8439C41.2695 44.8791 41.3223 44.8791 41.4043 44.8498C41.5215 44.8029 43.0039 44.0119 44.0234 43.4494L44.4043 43.2385L43.7539 43.9416C43.4023 44.3225 42.7461 45.0549 42.3008 45.5646C41.8027 46.133 41.3926 46.5432 41.2285 46.6369C40.9414 46.8068 40.3965 46.8771 40.0156 46.7951L39.7871 46.7482L40.3145 46.2795C40.6074 46.0217 40.8418 45.8049 40.8359 45.799C40.8242 45.7873 40.5137 45.9865 40.1328 46.2443L39.4414 46.7014L38.9258 46.5959C38.6445 46.5373 38.1055 46.4728 37.7305 46.4494C37.25 46.4201 37.0508 46.385 37.0508 46.3381C37.0508 46.215 37.3965 45.9514 38.1055 45.5295C39.3535 44.7971 39.5527 44.5451 39.6348 43.5783C39.6699 43.1389 39.7344 42.8459 39.875 42.4885C40.0508 42.0256 40.0625 41.9435 40.0977 40.8889C40.1211 40.2619 40.1738 39.6994 40.209 39.5998C40.4199 39.0783 41.1992 38.7385 41.498 39.0373ZM37.5488 40.01C37.5312 40.1682 37.4727 40.3791 37.4258 40.4787C37.3438 40.6486 37.3438 40.6486 37.373 40.3322C37.3906 40.1564 37.4023 39.799 37.4082 39.5412L37.4141 39.0725L37.502 39.3947C37.5547 39.6057 37.5723 39.8225 37.5488 40.01ZM44.4336 40.092C44.4336 40.1506 43.8945 40.59 43.4727 40.8713C43.1621 41.0822 43.0742 41.0822 43.0977 40.8713C43.1152 40.7365 43.1973 40.6721 43.7598 40.3791C44.4922 39.9982 44.4336 40.0217 44.4336 40.092ZM44.6445 44.299C44.0645 45.0725 43.4727 45.9572 42.8926 46.9182C42.2598 47.9728 41.9199 48.4709 41.8438 48.4767C41.791 48.4767 41.9199 48.1662 42.2363 47.5392C42.7051 46.6135 43.7832 45.0725 44.4512 44.3869C44.6504 44.1877 44.8203 44.0236 44.832 44.0236C44.8438 44.0236 44.7617 44.1467 44.6445 44.299ZM26.3457 45.0725C26.9785 45.7287 27.3359 46.2736 28.1914 47.8967C28.5547 48.5881 28.9297 49.2326 29.0176 49.3322C29.1055 49.426 29.375 49.6662 29.6152 49.8537C30.3242 50.4162 31.3555 51.342 31.5312 51.5646C31.9004 52.051 32.0879 52.2209 32.3223 52.3029C32.4922 52.3557 32.6094 52.4494 32.709 52.5959C32.8789 52.8537 33.084 52.924 33.2949 52.8068C33.5938 52.6369 33.5117 52.4846 32.668 51.5881C32.2344 51.1369 31.748 50.6857 31.584 50.5803C31.4141 50.4748 31.2148 50.3517 31.1445 50.3107C30.9395 50.1877 31.0156 50.1701 31.3379 50.2639C31.748 50.3869 32.5859 50.5217 33.2715 50.5744L33.8574 50.6154L33.8926 51.0256C33.9219 51.3537 33.9863 51.5588 34.2266 52.051C34.3906 52.3908 34.5781 52.8361 34.6484 53.0471C34.8008 53.4924 34.8945 54.3947 34.8711 55.133L34.8535 55.6545L34.5664 55.6721C34.4082 55.6838 34.2148 55.6779 34.1387 55.6545C33.9277 55.6017 33.623 55.3029 33.3535 54.881C33.0723 54.4299 32.8965 54.2541 32.5684 54.09C32.1758 53.8908 31.748 53.5334 31.4492 53.1467C31.291 52.9475 30.998 52.5959 30.7988 52.3615C30.5938 52.133 30.4297 51.9221 30.4297 51.8986C30.4297 51.8752 30.5703 51.9924 30.7461 52.1623C31.0566 52.4494 31.2559 52.5314 31.3379 52.3967C31.4199 52.2736 31.3027 52.0627 31.0098 51.7814C30.8457 51.6232 30.5938 51.3361 30.4531 51.1486C30.3066 50.9435 29.9258 50.5803 29.5508 50.2814C29.1992 49.9943 28.8066 49.631 28.6777 49.4728C28.5547 49.3146 28.168 48.6935 27.8164 48.0842C27.4707 47.4807 26.8789 46.5197 26.5039 45.9572C25.8066 44.9084 25.5078 44.4279 25.5078 44.3517C25.5078 44.2639 25.8477 44.5568 26.3457 45.0725ZM44.0586 47.1701C43.7773 47.8967 43.584 48.1955 43.1445 48.6232C42.9805 48.7814 42.7578 49.0334 42.6582 49.1799C42.5586 49.3264 42.3359 49.59 42.166 49.7717C41.9199 50.0295 41.8145 50.2053 41.6797 50.5861C41.4336 51.2541 41.3691 51.3596 40.959 51.8107C40.5137 52.2971 40.0156 52.9299 40.0742 52.9299C40.1035 52.9299 40.2383 52.8185 40.373 52.6838C40.8535 52.2092 40.6191 52.5373 40.0684 53.1057C39.7637 53.4221 39.5117 53.7092 39.5117 53.7502C39.5117 53.7853 39.623 53.7443 39.7637 53.6623C40.1445 53.4221 40.502 53.2697 40.5723 53.3166C40.7598 53.4338 40.4082 54.2658 39.9453 54.7932C39.3828 55.4318 38.8203 55.6838 37.9473 55.6838C37.5078 55.6838 36.2656 55.5373 36.1836 55.4728C36.1602 55.4611 36.4824 53.3869 36.5996 52.7834C36.6582 52.4728 36.6641 52.256 36.623 51.9396C36.5938 51.7053 36.5879 51.424 36.6113 51.3127C36.6582 51.0549 36.9688 50.7443 37.3145 50.6154C37.6367 50.4865 37.7012 50.5275 37.7305 50.8908C37.7598 51.131 37.748 51.1486 37.4902 51.3361C37.1855 51.5588 37.1738 51.6584 37.4668 51.6994L37.666 51.7287L37.2734 52.0392C36.7578 52.4494 36.752 52.5373 37.2441 52.426C37.8066 52.2971 37.9707 52.2326 38.6211 51.9221C38.9551 51.758 39.2363 51.6408 39.2539 51.6584C39.2715 51.676 38.8965 52.092 38.4219 52.59C37.8594 53.176 37.5898 53.4924 37.6484 53.5041C37.9121 53.5568 40.2793 51.9162 40.7188 51.3713C40.8359 51.2307 41.0117 50.9025 41.1172 50.633C41.4395 49.8244 41.5273 49.6896 42.2012 49.0627C42.9863 48.3361 43.4082 47.8322 43.7246 47.2404C43.9531 46.8127 44.2344 46.4435 44.2871 46.4963C44.3047 46.508 44.1992 46.8127 44.0586 47.1701ZM26.2285 47.4455C26.5801 47.9787 27.0547 48.8225 27.0195 48.8576C26.9668 48.9103 26.5977 48.5588 26.3926 48.2541C26.1406 47.8791 25.8301 47.2814 25.707 46.9299L25.6191 46.6955L25.7715 46.8361C25.8477 46.9123 26.0586 47.1877 26.2285 47.4455ZM38.9141 47.8205C39.002 47.9318 39.0078 48.7287 38.9258 48.8928C38.7793 49.1564 38.0938 49.2971 38.0234 49.0744C37.9707 48.9162 37.9531 47.8498 38 47.7971C38.0645 47.7326 38.457 47.6799 38.6621 47.7033C38.7617 47.715 38.873 47.7678 38.9141 47.8205ZM41.5508 47.7267C41.5098 47.8381 41.0352 48.1193 40.8184 48.1603C40.6309 48.1955 40.625 48.1955 40.625 47.9963V47.7912L40.9941 47.7326C41.5156 47.6447 41.5742 47.6447 41.5508 47.7267ZM29.8438 47.885C30.0723 47.967 30.1074 48.008 30.125 48.1721C30.1484 48.4006 30.0723 48.4123 29.6973 48.2365C29.4453 48.1193 29.1992 47.885 29.1992 47.7619C29.1992 47.6975 29.4688 47.7502 29.8438 47.885ZM37.6074 47.7971C37.8008 47.8791 37.8125 47.9025 37.8125 48.1721C37.8125 49.0568 37.2266 49.6545 36.7871 49.2092C36.6523 49.0803 36.6406 49.0217 36.6406 48.5412C36.6406 48.2541 36.6641 47.9494 36.6992 47.8674C36.752 47.7267 36.7871 47.715 37.0801 47.715C37.2617 47.715 37.4961 47.756 37.6074 47.7971ZM40.4844 48.0197C40.4609 48.1603 40.4023 48.3303 40.3555 48.4006C40.2324 48.5881 39.9453 48.7228 39.6992 48.6994C39.4355 48.676 39.3359 48.5178 39.3359 48.0783V47.7736H39.9277H40.5254L40.4844 48.0197ZM33.0312 47.9553C33.1309 48.0549 33.2129 49.0568 33.1309 49.174C33.0547 49.2912 32.4922 49.3205 32.3047 49.2267C32.0176 49.0744 31.7598 48.3771 31.8945 48.1252C32.0059 47.9201 32.2461 47.8264 32.6152 47.8498C32.8086 47.8615 32.9844 47.9025 33.0312 47.9553ZM34.748 48.0432C34.8652 48.2014 34.9004 48.6057 34.8301 48.9807C34.7832 49.2443 34.7246 49.3615 34.5898 49.4846C34.3438 49.7072 33.998 49.7131 33.7988 49.4963C33.6113 49.2971 33.4121 48.7521 33.4004 48.424C33.3887 48.1896 33.4062 48.1545 33.5762 48.0549C33.957 47.8264 34.584 47.8264 34.748 48.0432ZM31.5078 48.0432C31.5957 48.2658 31.6133 48.7697 31.543 48.8576C31.3965 49.0334 30.9688 48.8869 30.8457 48.6115C30.7402 48.383 30.7637 48.0197 30.8867 47.9904C31.1387 47.926 31.4727 47.9494 31.5078 48.0432ZM30.5469 48.2189C30.5469 48.4006 30.5293 48.424 30.418 48.4064C30.3125 48.3947 30.2773 48.342 30.2656 48.1955C30.248 48.0256 30.2598 48.008 30.3945 48.008C30.5293 48.008 30.5469 48.0314 30.5469 48.2189ZM36.0254 48.6584C36.0781 48.758 36.125 48.9865 36.1309 49.1682C36.1426 49.4846 36.1367 49.5021 36.002 49.5021C35.9199 49.5021 35.8145 49.4435 35.7559 49.3557C35.6094 49.1623 35.5449 48.6818 35.6445 48.5646C35.7617 48.424 35.9258 48.4592 36.0254 48.6584ZM40.1855 49.8185C40.1211 49.883 39.7637 50.0939 39.3945 50.299C39.0254 50.4982 38.6504 50.715 38.5625 50.7736C38.3984 50.885 38.3984 50.885 38.3984 50.7619C38.3984 50.6975 38.4336 50.551 38.4805 50.4455C38.5449 50.2932 38.6094 50.2404 38.7559 50.2111C38.8672 50.1935 39.2305 50.0705 39.5703 49.9416C40.2734 49.6779 40.3438 49.6662 40.1855 49.8185ZM38.5449 51.1428C38.3633 51.2951 38.2812 51.3244 38.2812 51.2424C38.2812 51.2014 38.6094 51.008 38.6914 51.0021C38.709 51.0021 38.6445 51.0666 38.5449 51.1428Z" fill="white"/>
<path d="M39.6875 20.8789C39.6875 20.9082 39.7109 20.9375 39.7402 20.9375C39.7754 20.9375 39.8164 20.9082 39.834 20.8789C39.8516 20.8438 39.8281 20.8203 39.7812 20.8203C39.7285 20.8203 39.6875 20.8438 39.6875 20.8789Z" fill="white"/>
<path d="M36.6699 22.1094C36.6523 22.1387 36.6758 22.168 36.7226 22.168C36.7695 22.168 36.8281 22.1387 36.8457 22.1094C36.8633 22.0742 36.8398 22.0508 36.7929 22.0508C36.7461 22.0508 36.6875 22.0742 36.6699 22.1094Z" fill="white"/>
<path d="M33.3945 23.1992C33.3418 23.3398 33.3535 23.5156 33.418 23.5156C33.4766 23.5156 33.5938 23.2754 33.5938 23.1582C33.5938 23.0703 33.4356 23.0996 33.3945 23.1992Z" fill="white"/>
<path d="M32.0118 23.2227C31.9649 23.252 31.9414 23.293 31.9649 23.3106C32.0176 23.3633 32.2461 23.2871 32.2461 23.2168C32.2461 23.1465 32.1231 23.1524 32.0118 23.2227Z" fill="white"/>
<path d="M33.9453 23.2872C33.9453 23.3164 33.9746 23.3282 34.0039 23.3106C34.0391 23.293 34.0625 23.2637 34.0625 23.2461C34.0625 23.2344 34.0391 23.2227 34.0039 23.2227C33.9746 23.2227 33.9453 23.252 33.9453 23.2872Z" fill="white"/>
<path d="M38.9375 53.3223C38.6328 53.6973 38.3398 54.1075 38.3398 54.1719C38.3398 54.3125 38.4805 54.166 38.791 53.7032C39.1953 53.1172 39.2363 53.0469 39.2012 53.0469C39.1836 53.0469 39.0664 53.17 38.9375 53.3223Z" fill="white"/>
<path d="M17.5801 12.9571C17.4805 13.0626 17.4805 13.0802 17.5684 13.1681C17.6856 13.2853 17.8907 13.2911 18.043 13.1798C18.1309 13.1095 18.1426 13.0743 18.0899 12.9864C17.9962 12.8341 17.7032 12.8224 17.5801 12.9571Z" fill="white"/>
<path d="M14.9668 14.4865C14.8964 14.5333 14.8964 14.5626 14.9785 14.6915C15.1425 14.9435 15.3535 15.049 15.5175 14.9728C15.7461 14.8673 15.7168 14.6271 15.4589 14.5157C15.2304 14.422 15.0839 14.4103 14.9668 14.4865Z" fill="white"/>
<path d="M16.3672 14.961C16.2207 15.1075 16.2207 15.1543 16.3847 15.3418C16.5605 15.5469 16.9648 15.6114 17.1289 15.459C17.2461 15.3536 17.2812 15.1602 17.1992 15.043C17.0527 14.8262 16.5547 14.7735 16.3672 14.961Z" fill="white"/>
<path d="M17.6739 14.9026C17.4278 15.0022 17.4512 15.3479 17.7149 15.4885C17.8907 15.5823 18.2129 15.5589 18.3184 15.4417C18.6172 15.1135 18.1426 14.7151 17.6739 14.9026Z" fill="white"/>
<path d="M50.6152 15.0137C50.5742 15.084 50.7969 15.3536 50.8496 15.3008C50.9082 15.2422 50.8262 15.0372 50.7324 14.9961C50.6856 14.9786 50.6328 14.9903 50.6152 15.0137Z" fill="white"/>
<path d="M16.2265 15.8461C15.9101 16.0981 16.1386 16.4789 16.6425 16.5258C17.0761 16.5668 17.3339 16.3207 17.2109 15.9867C17.1113 15.7289 16.496 15.6352 16.2265 15.8461Z" fill="white"/>
<path d="M51.5938 16.0512C51.5996 16.1039 51.6465 16.1625 51.6875 16.1801C51.7403 16.1977 51.7637 16.1684 51.7461 16.098C51.7403 16.0453 51.6934 15.9867 51.6524 15.9691C51.5996 15.9516 51.5762 15.9809 51.5938 16.0512Z" fill="white"/>
<path d="M19.0274 16.2796C18.9688 16.4203 19.1211 16.5492 19.3145 16.5316C19.5254 16.5082 19.5723 16.4203 19.4434 16.2855C19.3203 16.1683 19.0684 16.1625 19.0274 16.2796Z" fill="white"/>
<path d="M13.9356 16.6897C13.7598 16.8596 13.7539 16.9593 13.8946 17.0882C14.0469 17.2229 14.2168 17.2112 14.3633 17.053C14.7032 16.6956 14.2813 16.3382 13.9356 16.6897Z" fill="white"/>
<path d="M17.1582 17.1875C17.1757 17.2168 17.205 17.2461 17.2226 17.2461C17.2343 17.2461 17.2461 17.2168 17.2461 17.1875C17.2461 17.1523 17.2168 17.1289 17.1816 17.1289C17.1523 17.1289 17.1406 17.1523 17.1582 17.1875Z" fill="white"/>
<path d="M15.8867 17.2871C15.7461 17.457 15.7226 17.5859 15.8164 17.6855C16.0039 17.873 16.3027 17.4804 16.1328 17.2753C16.039 17.164 15.9922 17.164 15.8867 17.2871Z" fill="white"/>
<path d="M10.9414 17.9141C10.8887 18.043 10.9531 18.1836 11.0645 18.1836C11.1348 18.1836 11.1524 18.1367 11.1406 18.0254C11.1231 17.8496 10.9942 17.7793 10.9414 17.9141Z" fill="white"/>
<path d="M15.0196 17.9494C14.9669 18.049 14.9845 18.0959 15.1075 18.2189C15.2716 18.383 15.4708 18.3888 15.5704 18.2306C15.6173 18.1486 15.6055 18.1017 15.5177 18.0138C15.3302 17.838 15.0958 17.8087 15.0196 17.9494Z" fill="white"/>
<path d="M18.7168 18.2071C18.5644 18.3887 18.8984 18.6348 19.0918 18.4766C19.2031 18.3829 19.2031 18.3301 19.0859 18.2188C18.9746 18.1016 18.8047 18.0958 18.7168 18.2071Z" fill="white"/>
<path d="M53.961 20.0059C53.5684 20.3165 53.9903 21.1544 54.5176 21.1016C54.9805 21.0547 55.0391 20.5157 54.6289 20.1055C54.377 19.8477 54.1954 19.8243 53.961 20.0059Z" fill="white"/>
<path d="M55.2207 22.4201C55.1856 22.467 55.1153 22.6018 55.0625 22.7248C54.9805 22.9182 54.9805 22.9592 55.0567 23.0354C55.1387 23.1115 55.1621 23.1057 55.2969 22.9709C55.4434 22.8244 55.4844 22.6252 55.4141 22.4377C55.3731 22.3264 55.3086 22.3205 55.2207 22.4201Z" fill="white"/>
<path d="M11.7442 23.0353C11.7032 23.1174 11.7032 23.176 11.7618 23.258C11.8321 23.3517 11.8555 23.3517 11.9375 23.2814C12.0606 23.1818 12.0372 22.965 11.9024 22.9416C11.8497 22.9299 11.7793 22.9709 11.7442 23.0353Z" fill="white"/>
<path d="M55.918 23.4336C55.918 23.4805 55.9473 23.5039 55.9766 23.4864C56.0117 23.4688 56.0352 23.4278 56.0352 23.3926C56.0352 23.3633 56.0117 23.3399 55.9766 23.3399C55.9473 23.3399 55.918 23.3809 55.918 23.4336Z" fill="white"/>
<path d="M53.6328 23.5449C53.6328 23.5918 53.6738 23.6328 53.7207 23.6328C53.7676 23.6328 53.8086 23.5918 53.8086 23.5449C53.8086 23.498 53.7676 23.457 53.7207 23.457C53.6738 23.457 53.6328 23.498 53.6328 23.5449Z" fill="white"/>
<path d="M55.0508 23.9551C54.9512 24.166 54.9629 24.2188 55.0977 24.2188C55.2266 24.2188 55.3555 24.0195 55.3086 23.8906C55.2559 23.7617 55.1211 23.7969 55.0508 23.9551Z" fill="white"/>
<path d="M16.9825 24.5703C16.8711 24.7461 17.1465 25.0215 17.3633 24.9512C17.4922 24.9101 17.5215 24.6933 17.4102 24.582C17.3223 24.4941 17.0352 24.4883 16.9825 24.5703Z" fill="white"/>
<path d="M14.7324 24.8516C14.6269 25.0509 14.9375 25.3555 15.1133 25.2091C15.2363 25.1094 15.2129 24.9395 15.0664 24.8399C14.8965 24.7169 14.8027 24.7227 14.7324 24.8516Z" fill="white"/>
<path d="M52.8008 25.0684C52.6601 25.3848 52.9531 25.707 53.1992 25.5019C53.2988 25.4199 53.2754 25.1445 53.1582 24.998C53.0527 24.875 52.8769 24.9101 52.8008 25.0684Z" fill="white"/>
<path d="M55.836 25.0686C55.6192 25.1623 55.5078 25.549 55.5489 26.0412C55.5782 26.3342 55.5664 26.3869 55.4492 26.4807C55.168 26.7151 55.1504 26.7385 55.2207 26.8615C55.2676 26.9553 55.3321 26.9729 55.5254 26.9611C55.7657 26.9436 55.7715 26.9377 55.9239 26.5568C56.0645 26.217 56.0762 26.1408 56.0176 25.9299C55.9649 25.7307 55.9707 25.6545 56.0586 25.4611C56.1641 25.2209 56.17 25.0334 56.0645 25.0041C56.0352 24.9983 55.9297 25.0217 55.836 25.0686Z" fill="white"/>
<path d="M54.6524 25.6253C54.4532 25.7015 54.4356 25.7894 54.5938 25.8949C54.7051 25.9652 54.7813 25.9769 54.9044 25.9359C55.0977 25.8714 55.1329 25.7835 55.0098 25.6605C54.9044 25.555 54.834 25.5492 54.6524 25.6253Z" fill="white"/>
<path d="M12.1602 26.8086C11.9903 26.9786 12.1133 27.3301 12.3829 27.4708C12.711 27.6407 12.9688 27.5293 12.9688 27.2071C12.9688 26.879 12.377 26.5918 12.1602 26.8086Z" fill="white"/>
<path d="M54.1016 27.0726C53.9141 27.137 53.8086 27.348 53.8086 27.6644C53.8086 27.9163 53.8379 27.9984 53.9551 28.1155C54.2773 28.4437 54.6289 28.1683 54.6289 27.5999C54.6289 27.2308 54.377 26.9788 54.1016 27.0726Z" fill="white"/>
<path d="M55.1387 27.5118C54.9688 27.6466 54.9102 27.8927 55.0098 28.1153C55.0918 28.3263 55.1328 28.3497 55.3028 28.2853C55.42 28.2384 55.5664 27.9571 55.5664 27.7755C55.5664 27.6349 55.4082 27.4415 55.2969 27.4415C55.2617 27.4415 55.1914 27.4767 55.1387 27.5118Z" fill="white"/>
<path d="M55.8711 27.5704C55.7715 27.6935 55.8887 27.84 56.0176 27.7579C56.0762 27.7228 56.123 27.6583 56.123 27.6114C56.123 27.5001 55.9531 27.4767 55.8711 27.5704Z" fill="white"/>
<path d="M13.0039 27.7697C12.8457 27.9279 12.916 28.1388 13.2383 28.4611C13.6895 28.9005 14.2403 29.1349 14.4219 28.9533C14.586 28.7892 14.5039 28.5548 14.1582 28.2091C13.6602 27.7169 13.2207 27.5529 13.0039 27.7697Z" fill="white"/>
<path d="M12.6113 28.965C12.7519 29.088 12.8516 29.1173 12.8516 29.0353C12.8516 28.9474 12.7109 28.8478 12.5937 28.8478C12.4766 28.8536 12.4766 28.8536 12.6113 28.965Z" fill="white"/>
<path d="M12.9219 29.3575C12.9336 29.463 13.0098 29.5626 13.1387 29.6505C13.3789 29.8146 13.4375 29.8204 13.4375 29.6798C13.4317 29.5567 13.3379 29.4337 13.1446 29.2989C12.9453 29.1642 12.8985 29.1759 12.9219 29.3575Z" fill="white"/>
<path d="M55.5137 29.5919C55.3789 29.756 55.3965 29.9376 55.5547 30.0607C55.6777 30.1603 55.7012 30.1603 55.8828 30.0138C56.0469 29.8849 56.0879 29.6271 55.9648 29.504C55.8477 29.3869 55.6426 29.4279 55.5137 29.5919Z" fill="white"/>
<path d="M54.7169 30.0199C54.5118 30.2484 54.752 30.5765 54.9688 30.3597C55.0977 30.2308 55.0157 29.9027 54.8634 29.9027C54.8399 29.9027 54.7755 29.9554 54.7169 30.0199Z" fill="white"/>
<path d="M14.8554 31.0859C14.7383 31.2031 14.7793 31.4082 14.9375 31.5371C15.1894 31.7363 15.4297 31.666 15.4297 31.3965C15.4297 31.1328 15.0254 30.916 14.8554 31.0859Z" fill="white"/>
<path d="M55.4492 32.2754C55.332 32.416 55.4258 32.6562 55.6016 32.6562C55.7656 32.6562 55.8301 32.5449 55.7774 32.334C55.7363 32.1699 55.5664 32.1348 55.4492 32.2754Z" fill="white"/>
<path d="M14.0234 35.6387C14.0234 35.7324 14.3223 36.0547 14.4102 36.0547C14.5449 36.0547 14.5039 35.8848 14.3398 35.7324C14.1816 35.5859 14.0234 35.5391 14.0234 35.6387Z" fill="white"/>
<path d="M15.0195 37.1566C15.0195 37.2386 15.3066 37.4847 15.3535 37.4437C15.3711 37.4202 15.3301 37.3382 15.2539 37.2562C15.1133 37.1097 15.0195 37.0687 15.0195 37.1566Z" fill="white"/>
<path d="M16.4258 38.3869C16.4258 38.4806 16.6836 38.715 16.707 38.6388C16.7187 38.5978 16.6836 38.5158 16.625 38.4513C16.5195 38.3341 16.4258 38.3048 16.4258 38.3869Z" fill="white"/>
<path d="M54.5 38.5449C54.4532 38.6504 54.4532 38.7148 54.4942 38.7558C54.6172 38.8789 54.9219 38.6035 54.8282 38.4511C54.7637 38.3457 54.5645 38.3984 54.5 38.5449Z" fill="white"/>
<path d="M54.8691 40.1328C54.7226 40.3203 54.7168 40.3906 54.834 40.3906C54.9394 40.3906 55.2148 40.1387 55.2148 40.0391C55.2148 39.9219 54.9863 39.9805 54.8691 40.1328Z" fill="white"/>
<path d="M18.2187 40.1918C18.166 40.3265 18.2832 40.5023 18.4472 40.5433C18.6171 40.5844 18.7109 40.5375 18.7109 40.3969C18.7109 40.1625 18.2949 39.9867 18.2187 40.1918Z" fill="white"/>
<path d="M54.418 41.164C54.254 41.2402 54.0196 41.6562 54.1016 41.7089C54.213 41.7792 54.8048 41.3281 54.8048 41.1699C54.8048 41.082 54.5938 41.0761 54.418 41.164Z" fill="white"/>
<path d="M51.4414 44.0176C51.3359 44.1289 51.3184 44.2578 51.4004 44.2578C51.4707 44.2578 51.6406 44.0879 51.6406 44.0234C51.6406 43.918 51.5352 43.9121 51.4414 44.0176Z" fill="white"/>
<path d="M50.961 45.0488C50.8496 45.3418 51.1895 45.6289 51.4414 45.459C51.6172 45.3477 51.6231 45.1719 51.4531 45.0547C51.2832 44.9375 51.002 44.9316 50.961 45.0488Z" fill="white"/>
<path d="M19.959 46.1683C19.9063 46.309 20.0176 46.4496 20.1875 46.473C20.3633 46.4965 20.4395 46.3558 20.3516 46.1859C20.2754 46.0511 20.0117 46.0394 19.959 46.1683Z" fill="white"/>
<path d="M47.4161 47.047C47.2755 47.2111 47.0587 47.6623 47.0997 47.7033C47.211 47.8205 47.5626 47.299 47.5274 47.0646C47.5098 46.9416 47.5098 46.9416 47.4161 47.047Z" fill="white"/>
<path d="M48.0195 47.5684C47.9492 47.6212 47.8496 47.7442 47.7969 47.8438C47.7148 48.002 47.7148 48.0313 47.7969 48.1134C47.873 48.1954 47.8965 48.1895 48.0312 48.1016C48.3301 47.9083 48.459 47.5333 48.2422 47.4923C48.1953 47.4864 48.0957 47.5216 48.0195 47.5684Z" fill="white"/>
<path d="M47.5977 49.0625C47.5274 49.1973 47.5626 49.2969 47.6856 49.2969C47.7911 49.2969 47.9493 49.1328 47.9493 49.0273C47.9493 48.8984 47.668 48.9277 47.5977 49.0625Z" fill="white"/>
<path d="M23.1055 49.5605C22.9942 49.6953 23.0586 49.8535 23.2227 49.8535C23.334 49.8535 23.375 49.8184 23.3868 49.7129C23.4161 49.5078 23.2344 49.4023 23.1055 49.5605Z" fill="white"/>
<path d="M23.7091 50.2345C23.5216 50.3458 23.4102 50.5802 23.4864 50.6974C23.504 50.7325 23.6094 50.7618 23.7149 50.7618C23.8204 50.7618 23.9434 50.797 23.9962 50.8321C24.1895 50.9962 24.3946 51.3361 24.3946 51.5118C24.3946 51.6114 24.4415 51.7345 24.4942 51.7872C24.6407 51.9396 25.1329 51.8693 25.3262 51.67L25.4727 51.5236L25.2735 51.3185C25.1622 51.2013 24.9688 51.0548 24.8516 50.9962C24.711 50.92 24.588 50.7853 24.5059 50.6271C24.2481 50.1173 24.0548 50.0177 23.7091 50.2345Z" fill="white"/>
<path d="M47.9492 50.3168C47.9082 50.3695 47.8906 50.4515 47.9141 50.4984C47.9785 50.6683 48.2656 50.557 48.2305 50.3754C48.207 50.2347 48.0488 50.2054 47.9492 50.3168Z" fill="white"/>
<path d="M45.2656 51.0079C45.1543 51.1192 45.1836 51.2247 45.3359 51.295C45.5234 51.3829 45.7343 51.2715 45.7109 51.0957C45.6992 51.002 45.6465 50.961 45.5176 50.9493C45.4179 50.9375 45.3066 50.9668 45.2656 51.0079Z" fill="white"/>
<path d="M25.8887 51.3773C25.5489 51.7113 25.8946 52.3441 26.4278 52.3617C26.7032 52.3676 26.9434 52.1156 26.8848 51.8812C26.8262 51.6527 26.6973 51.4711 26.4864 51.348C26.2344 51.1898 26.0587 51.2016 25.8887 51.3773Z" fill="white"/>
<path d="M22.6602 51.4355C22.6075 51.5703 22.7481 51.6992 22.9415 51.6992C23.129 51.6992 23.2169 51.5645 23.1055 51.4355C23.0118 51.3184 22.7012 51.3242 22.6602 51.4355Z" fill="white"/>
<path d="M46.9063 52.4434C46.8653 52.461 46.795 52.5489 46.7481 52.6368C46.6661 52.7891 46.6719 52.8126 46.7598 52.8595C46.8946 52.9356 47.0997 52.836 47.1817 52.6544C47.2813 52.4376 47.1583 52.338 46.9063 52.4434Z" fill="white"/>
<path d="M23.8906 53.17C23.873 53.2052 23.8847 53.2638 23.914 53.2931C23.9902 53.3692 24.1777 53.2462 24.125 53.1583C24.0839 53.088 23.9433 53.0938 23.8906 53.17Z" fill="white"/>
<path d="M22.8477 53.3342C22.8242 53.3635 22.836 53.4045 22.8653 53.4221C22.8945 53.4455 22.9356 53.4338 22.9531 53.4045C22.9766 53.3752 22.9649 53.3342 22.9356 53.3166C22.9063 53.2932 22.8653 53.3049 22.8477 53.3342Z" fill="white"/>
<path d="M45.7754 53.5508C45.6582 53.6914 45.7813 53.8379 46.0157 53.8379C46.2266 53.8379 46.3496 53.709 46.291 53.5508C46.2442 53.4277 45.8809 53.4219 45.7754 53.5508Z" fill="white"/>
<path d="M26.3574 54.3187C26.0761 54.389 25.9648 54.6234 26.0937 54.8695C26.2578 55.1742 26.9316 55.2621 27.1777 55.0101C27.3476 54.8461 27.3594 54.764 27.2304 54.5765C27.0664 54.3422 26.6972 54.2367 26.3574 54.3187Z" fill="white"/>
<path d="M28.9297 55.7131C28.8184 55.801 28.8184 55.801 28.9297 55.8889C29.0762 56.0002 29.2227 56.0002 29.3105 55.8948C29.3691 55.8303 29.3516 55.7952 29.2461 55.719C29.082 55.6018 29.0762 55.6018 28.9297 55.7131Z" fill="white"/>
<path d="M29.8906 56.8325C29.668 56.8969 29.791 57.0317 30.1836 57.1489C30.4004 57.2133 30.6758 57.3364 30.793 57.4243C31.2031 57.7055 31.3262 57.4653 30.9688 57.0844C30.7578 56.8559 30.7227 56.8442 30.3711 56.8266C30.1602 56.8149 29.9434 56.8149 29.8906 56.8325Z" fill="white"/>
<path d="M36.5 56.8734C36.3301 56.9964 36.4004 57.225 36.623 57.2894C36.9512 57.3773 37.25 57.0785 37.039 56.8675C36.9453 56.7738 36.6289 56.7796 36.5 56.8734Z" fill="white"/>
<path d="M42.5996 57.1309C42.5059 57.2188 42.5703 57.2715 42.7461 57.254C42.9863 57.2305 43.0391 57.0899 42.8106 57.0899C42.7109 57.0899 42.6172 57.1075 42.5996 57.1309Z" fill="white"/>
<path d="M31.9707 57.2426C31.8887 57.4535 32.4629 57.9047 32.7149 57.8227C32.961 57.7465 32.8145 57.4242 32.4629 57.2602C32.1641 57.1254 32.0176 57.1195 31.9707 57.2426Z" fill="white"/>
<path d="M33.5938 57.207C33.5938 57.2363 33.623 57.2656 33.6523 57.2656C33.6875 57.2656 33.7109 57.2363 33.7109 57.207C33.7109 57.1719 33.6875 57.1484 33.6523 57.1484C33.623 57.1484 33.5938 57.1719 33.5938 57.207Z" fill="white"/>
</g>
<defs>
<clipPath id="clip0_759_312">
<rect width="70" height="70" fill="white"/>
</clipPath>
</defs>
</svg>
