<svg width="70" height="70" viewBox="0 0 70 70" fill="none" xmlns="http://www.w3.org/2000/svg">
<g clip-path="url(#clip0_637_733)">
<path d="M31.192 0.168491C30.912 0.392491 31.01 1.31649 31.304 1.20449C31.402 1.16249 31.71 1.09249 31.976 1.03649C32.62 0.924491 32.69 0.784491 32.382 0.350491C32.102 -0.0275085 31.556 -0.111509 31.192 0.168491Z" fill="black"/>
<path d="M38.738 0.825981C38.514 0.965981 38.08 1.13399 37.758 1.18999C37.282 1.27399 37.226 1.30199 37.45 1.39999C37.716 1.49799 37.702 1.51199 37.38 1.58199C37.184 1.62399 36.694 1.70798 36.274 1.74998C35.588 1.83398 35.49 1.80598 35.224 1.48399C35.056 1.30199 34.706 1.10599 34.44 1.04999C34.034 0.965981 33.978 0.97998 34.132 1.13399C34.622 1.65199 33.95 1.88998 33.32 1.39999C32.984 1.14799 32.97 1.14799 32.69 1.39999C32.466 1.59599 32.018 1.69398 30.562 1.80598C29.554 1.90398 28.42 2.05798 28.042 2.16998C27.118 2.44998 27.104 2.42198 27.972 2.02998C28.406 1.83398 28.7 1.60999 28.7 1.46999C28.7 1.23199 28.602 1.18999 27.832 1.04999C27.342 0.97998 27.3 0.99398 27.3 1.31599C27.3 1.55399 27.146 1.76398 26.852 1.97398C26.6 2.14198 26.362 2.30998 26.334 2.33798C26.306 2.35198 26.362 2.63198 26.46 2.95399C26.628 3.45798 26.698 3.51398 27.034 3.47198C27.258 3.42999 27.384 3.47198 27.342 3.54198C27.188 3.80798 26.306 4.05998 25.592 4.05998C24.864 4.04598 24.85 4.04598 25.27 3.86398L25.69 3.68198L25.172 3.42999C24.738 3.21999 24.584 3.20599 24.276 3.34599C23.842 3.54198 23.688 3.45798 23.94 3.14999C24.038 3.02399 24.094 2.91199 24.066 2.88399C23.996 2.82799 20.468 3.84998 18.76 4.40999C17.122 4.94199 15.064 6.01999 14.168 6.80399C13.426 7.44799 13.384 7.62999 13.93 7.72799C14.084 7.75599 14.21 7.83998 14.21 7.90998C14.224 7.99398 14.28 8.20399 14.336 8.38599L14.448 8.72198L14.63 8.28799C14.854 7.76999 15.246 7.50399 16.31 7.12598C17.178 6.81799 17.388 6.85999 17.038 7.23798C16.786 7.53199 16.324 8.66599 16.17 9.37999L16.072 9.86999L16.492 9.30999C16.716 9.00199 17.29 8.38599 17.766 7.95198C18.48 7.27999 18.62 7.06998 18.634 6.64999C18.648 6.38398 18.662 6.07598 18.676 5.97798C18.704 5.57198 19.67 5.30598 19.992 5.62798C20.118 5.75398 20.006 5.94998 19.53 6.45399C19.18 6.83199 18.9 7.23798 18.9 7.36399C18.9 7.53199 19.068 7.41999 19.46 6.99998C19.922 6.49599 20.062 6.42599 20.384 6.49599C20.804 6.60799 21.28 6.32798 20.972 6.14598C20.874 6.08998 20.832 6.00599 20.86 5.97798C21.168 5.73998 23.086 4.61999 23.212 4.61999C23.45 4.61999 23.562 5.20798 23.394 5.61398C23.324 5.82398 23.016 6.10398 22.722 6.25798C22.428 6.41198 21.7 6.78999 21.098 7.11198C20.244 7.57399 19.866 7.69999 19.32 7.69999C18.732 7.69999 18.62 7.74199 18.62 7.96598C18.62 8.10599 18.718 8.30199 18.83 8.39999C18.942 8.49799 19.04 8.65199 19.04 8.76398C19.04 9.04399 18.326 9.49199 17.556 9.67398C17.178 9.77199 16.38 10.08 15.792 10.388C15.022 10.766 14.7 10.864 14.7 10.724C14.7 10.626 14.854 10.108 15.064 9.58998C15.26 9.05799 15.4 8.46999 15.372 8.27399C15.302 7.68599 14.938 7.83998 14.7 8.56799C14.532 9.11399 14.448 9.21199 14.21 9.15599C14.056 9.11399 13.692 9.18399 13.398 9.30999C13.118 9.42199 12.88 9.47799 12.88 9.42199C12.88 9.36599 13.118 9.07199 13.398 8.76398L13.93 8.21799L13.09 8.80598C12.628 9.14199 11.69 9.78599 10.99 10.262C9.77199 11.088 8.11999 12.586 8.11999 12.838C8.11999 12.908 8.30199 12.95 8.53999 12.908C9.15599 12.824 9.08599 13.118 8.18999 14.21C7.76999 14.714 7.41999 15.176 7.41999 15.204C7.41999 15.33 7.57399 15.246 8.03599 14.84C8.31599 14.588 8.55399 14.476 8.60999 14.546C8.65199 14.63 7.95199 15.428 7.05599 16.31C5.44599 17.92 5.43199 17.948 5.52999 18.452C5.64199 19.04 5.87999 19.39 5.87999 18.956C5.87999 18.144 6.49599 16.8 6.87399 16.8C7.08399 16.8 7.01399 17.248 6.49599 19.264C6.21599 20.342 5.94999 21.714 5.89399 22.33L5.80999 23.45L5.29199 22.61C4.99799 22.148 4.75999 21.868 4.75999 21.994C4.75999 22.12 4.40999 22.652 3.98999 23.17C3.56999 23.674 3.21999 24.122 3.21999 24.15C3.21999 24.164 3.12199 24.416 3.00999 24.696C2.89799 24.976 2.82799 25.2 2.85599 25.2C2.88399 25.2 3.12199 24.878 3.37399 24.472L3.83599 23.758L4.01799 24.164C4.26999 24.752 4.24199 25.228 3.84999 27.3C3.49999 29.19 3.42999 30.366 3.63999 30.87C3.75199 31.122 3.76599 31.122 3.76599 30.786C3.77999 30.338 4.10199 29.89 4.31199 30.016C4.52199 30.142 4.52199 30.996 4.32599 31.906C4.11599 32.9 3.86399 33.012 3.94799 32.06L4.01799 31.332L3.55599 31.402C2.99599 31.5 2.99599 31.486 2.85599 29.61C2.81399 28.84 2.71599 28.07 2.64599 27.888C2.46399 27.412 2.12799 27.51 2.01599 28.07C1.88999 28.784 2.04399 29.666 2.65999 31.57C3.26199 33.446 3.45799 34.3 3.26199 34.3C3.19199 34.3 2.93999 34.034 2.68799 33.712C2.21199 33.096 2.14199 33.138 2.39399 33.852C2.47799 34.09 2.61799 34.272 2.70199 34.258C2.81399 34.244 2.86999 34.594 2.86999 35.462C2.86999 36.134 2.84199 36.68 2.79999 36.68C2.75799 36.68 2.51999 36.554 2.28199 36.4L1.81999 36.12L1.83399 36.512C1.84799 37.296 2.02999 38.15 2.16999 38.108C2.33799 38.052 3.09399 41.006 3.52799 43.428C3.70999 44.394 3.89199 45.136 3.93399 45.052C4.04599 44.87 4.40999 45.528 4.54999 46.186C4.71799 46.942 4.88599 46.41 4.81599 45.36L4.75999 44.45L4.96999 45.22C5.09599 45.64 5.24999 46.662 5.31999 47.488C5.38999 48.328 5.52999 49.294 5.61399 49.658L5.78199 50.302L6.03399 49.994L6.28599 49.686L6.48199 50.162C6.91599 51.198 6.92999 51.282 6.55199 51.212L6.20199 51.142L6.52399 51.632C6.70599 51.898 6.85999 52.262 6.85999 52.43C6.85999 52.71 7.37799 53.34 7.60199 53.34C7.65799 53.34 7.67199 53.172 7.61599 52.962C7.57399 52.738 7.82599 53.088 8.17599 53.718C8.52599 54.362 8.81999 55.02 8.81999 55.202C8.81999 55.86 9.43599 56.756 10.5 57.61C11.074 58.086 11.62 58.604 11.704 58.772C11.858 59.08 13.874 60.998 15.316 62.188C16.366 63.07 18.256 64.33 19.642 65.1C20.286 65.45 20.678 65.744 20.58 65.8C20.426 65.898 24.612 68.292 26.082 68.936C27.678 69.636 29.078 70 30.184 70C30.744 70 31.22 69.958 31.22 69.916C31.22 69.874 31.15 69.72 31.08 69.566C30.982 69.384 30.982 69.3 31.08 69.3C31.15 69.3 31.22 69.188 31.22 69.048C31.22 68.824 31.444 68.81 34.048 68.81C37.1 68.81 38.71 68.614 41.328 67.97C42.112 67.774 42.77 67.62 42.784 67.62C42.812 67.62 42.84 67.914 42.84 68.292C42.84 69.104 43.134 69.58 43.638 69.58H44.002L43.61 69.216C43.288 68.922 43.232 68.782 43.302 68.362C43.4 67.802 43.708 67.41 44.268 67.116C44.632 66.92 44.66 66.934 44.66 67.186C44.66 67.732 45.066 67.76 47.124 67.396C48.188 67.214 49.238 67.018 49.462 66.976C49.798 66.892 49.84 66.92 49.84 67.256C49.84 67.676 49.868 67.69 50.764 67.41C51.142 67.298 51.464 67.2 51.492 67.2C51.506 67.2 51.52 67.424 51.52 67.69C51.52 67.998 51.436 68.222 51.282 68.306C51.142 68.39 51.086 68.46 51.142 68.46C51.338 68.46 52.108 67.872 52.024 67.802C51.982 67.76 52.08 67.536 52.234 67.326L52.514 66.92H51.898C51.548 66.92 51.086 66.878 50.848 66.836C50.47 66.766 50.428 66.71 50.54 66.486C50.624 66.346 50.68 66.024 50.68 65.772V65.296L51.744 65.394L52.808 65.506L53.228 65.03C53.452 64.764 54.124 64.288 54.712 63.952C55.3 63.63 56.014 63.14 56.266 62.874C56.532 62.594 56.7 62.468 56.63 62.58C56.56 62.706 56.63 62.692 56.812 62.524C57.162 62.23 57.246 62.02 56.91 62.3C56.756 62.426 56.7 62.426 56.7 62.314C56.7 62.23 56.798 62.118 56.91 62.076C57.022 62.02 57.12 61.88 57.12 61.74C57.12 61.614 57.302 61.25 57.54 60.928L57.946 60.354L57.204 60.62C56.546 60.844 54.81 61.18 54.306 61.18C54.208 61.18 54.334 60.956 54.6 60.69C54.964 60.312 55.118 60.242 55.314 60.354C55.524 60.466 55.65 60.382 56.014 59.892C56.252 59.556 56.574 59.038 56.728 58.73C57.022 58.156 58.394 56.238 58.786 55.86C58.912 55.734 59.416 55.146 59.92 54.53C60.424 53.914 61.264 52.906 61.796 52.29C63.042 50.834 64.61 48.454 65.52 46.648C66.094 45.486 66.29 45.206 66.5 45.262C66.724 45.318 66.752 45.206 66.808 44.366C66.836 43.848 66.906 43.372 66.948 43.33C67.004 43.274 67.186 43.33 67.368 43.456C67.998 43.904 68.082 43.778 67.97 42.588C67.83 41.076 67.844 40.11 68.026 39.802C68.11 39.662 68.18 39.62 68.18 39.718C68.18 39.928 68.698 40.222 68.88 40.11C68.964 40.054 68.866 39.732 68.67 39.326C68.376 38.766 68.348 38.64 68.53 38.64C68.656 38.64 68.866 38.374 69.02 38.024C69.16 37.688 69.342 37.394 69.426 37.366C69.51 37.324 69.412 36.68 69.16 35.574C68.656 33.502 68.642 33.236 69.034 33.138C69.3 33.068 69.314 33.096 69.23 33.558C69.174 33.908 69.202 34.09 69.328 34.174C69.916 34.552 70.014 34.076 69.58 32.816C69.412 32.368 69.286 31.696 69.286 31.346C69.272 30.73 69.258 30.702 68.922 30.772L68.558 30.842L68.6 28.966C68.67 26.11 68.67 26.096 68.194 25.816C67.844 25.62 67.704 25.326 67.284 23.996C66.668 22.092 65.646 19.782 64.764 18.298C64.414 17.696 64.12 17.108 64.12 17.01C64.12 16.912 63.854 16.52 63.518 16.156C63.196 15.778 62.552 14.994 62.09 14.42C60.956 12.992 58.842 10.906 57.386 9.77199C56.294 8.91799 53.536 7.08398 53.158 6.95798C53.074 6.92999 53.228 6.63599 53.536 6.25798C54.124 5.54398 54.152 5.12399 53.648 4.78799C53.326 4.57799 53.326 4.57799 53.494 4.94199C53.634 5.24998 53.62 5.37598 53.424 5.65598C53.088 6.17398 52.682 6.34198 52.038 6.24398C51.716 6.18798 51.394 6.08998 51.31 6.03399C51.24 5.96398 50.932 5.83798 50.638 5.73998C50.148 5.58598 50.12 5.55798 50.316 5.33398C50.442 5.19398 50.54 5.01199 50.54 4.92799C50.54 4.59199 49.658 3.79398 48.412 2.96799C46.998 2.04398 46.578 1.97398 46.088 2.58998L45.836 2.89799L45.164 2.11398C44.492 1.34399 44.464 1.32999 43.694 1.31599C43.26 1.31599 42.504 1.17599 42 1.02199C41.496 0.867981 40.656 0.699982 40.11 0.643982C39.298 0.587982 39.06 0.615982 38.738 0.825981ZM39.438 0.783981C39.396 0.825981 39.27 0.839981 39.172 0.797981C39.06 0.755981 39.102 0.713982 39.256 0.713982C39.41 0.699982 39.494 0.741982 39.438 0.783981ZM49.392 5.01199C49.588 5.30598 49.588 5.31998 49.154 5.16599C48.72 5.01199 48.636 4.89999 48.818 4.70399C48.958 4.56399 49.168 4.67599 49.392 5.01199ZM12.012 10.388C11.9 10.57 11.536 11.186 11.2 11.76C10.864 12.334 10.57 12.824 10.556 12.852C10.542 12.88 10.374 12.824 10.206 12.726L9.88399 12.558L10.262 12.264C10.472 12.096 10.64 11.9 10.64 11.83C10.64 11.676 12.012 10.08 12.138 10.08C12.18 10.08 12.124 10.22 12.012 10.388ZM9.79999 18.578C9.64599 18.816 9.64599 18.816 9.71599 18.578C9.75799 18.438 9.79999 18.242 9.81399 18.158C9.81399 18.032 9.84199 18.032 9.88399 18.158C9.92599 18.256 9.88399 18.438 9.79999 18.578ZM11.62 19.446C11.62 19.516 11.522 19.642 11.41 19.74C11.242 19.88 11.2 19.88 11.2 19.712C11.2 19.6 11.242 19.46 11.298 19.418C11.424 19.278 11.62 19.292 11.62 19.446ZM9.93999 19.796C9.93999 19.824 9.98199 19.95 10.024 20.062C10.066 20.188 9.88399 20.426 9.54799 20.692L9.01599 21.126L9.22599 20.426C9.37999 19.936 9.50599 19.74 9.68799 19.74C9.82799 19.74 9.93999 19.768 9.93999 19.796ZM10.598 20.384C10.514 20.678 9.98199 21.602 9.42199 22.428C8.86199 23.268 8.13399 24.458 7.81199 25.088L7.20999 26.25L7.16799 24.262C7.13999 22.386 7.15399 22.246 7.44799 21.91C7.61599 21.714 7.82599 21.56 7.93799 21.56C8.03599 21.56 8.21799 21.406 8.34399 21.21C8.59599 20.818 8.81999 20.86 8.81999 21.294C8.81999 21.924 9.89799 21.196 10.388 20.258C10.724 19.586 10.822 19.642 10.598 20.384ZM68.46 27.496C68.46 28.112 68.222 27.762 68.124 27.02C68.04 26.418 68.04 26.404 68.236 26.74C68.362 26.936 68.446 27.272 68.46 27.496ZM6.38399 27.286C6.49599 27.188 6.62199 27.16 6.67799 27.202C6.81799 27.342 6.14599 28.84 5.93599 28.84C5.54399 28.84 5.23599 27.664 5.47399 27.048L5.61399 26.67L5.90799 27.062C6.13199 27.37 6.22999 27.412 6.38399 27.286ZM47.18 66.15C47.18 66.29 47.04 66.36 46.732 66.36L46.27 66.346L46.62 66.15C47.068 65.898 47.18 65.898 47.18 66.15ZM45.948 67.158C46.144 67.41 45.71 67.55 45.248 67.396C44.716 67.214 44.716 66.948 45.248 66.724C45.668 66.542 45.71 66.542 45.766 66.752C45.794 66.878 45.878 67.074 45.948 67.158ZM30.73 68.754C30.926 68.95 30.226 68.894 29.75 68.684C29.33 68.488 29.344 68.488 29.96 68.558C30.31 68.6 30.646 68.684 30.73 68.754Z" fill="black"/>
<path d="M35.742 1.21826C35.952 1.24626 36.288 1.24626 36.512 1.21826C36.722 1.19026 36.54 1.16226 36.12 1.16226C35.7 1.16226 35.518 1.19026 35.742 1.21826Z" fill="black"/>
<path d="M50.932 4.95626C51.1 5.18026 51.24 5.47426 51.24 5.62826C51.24 5.78226 51.31 5.85226 51.38 5.81026C51.66 5.64226 51.506 5.19426 51.072 4.87226L50.61 4.55026L50.932 4.95626Z" fill="black"/>
<path d="M4.648 18.8023C4.326 19.1523 4.256 19.5303 4.48 19.6703C4.564 19.7123 4.62 19.8943 4.62 20.0623C4.634 20.3702 4.634 20.3702 4.844 20.0903C5.026 19.8383 5.026 19.8103 4.844 19.7683C4.564 19.7123 4.564 19.7123 4.83 19.0823C5.096 18.4663 5.04 18.3823 4.648 18.8023Z" fill="black"/>
<path d="M2.31 20.7768C2.128 21.2528 2.114 21.4488 2.226 21.6868C2.52 22.2048 2.66 21.9948 2.66 21.0708C2.66 20.5668 2.632 20.1608 2.604 20.1608C2.576 20.1608 2.436 20.4408 2.31 20.7768Z" fill="black"/>
<path d="M1.63799 23.1003C1.41399 23.4923 1.18999 23.8003 1.13399 23.8003C0.993995 23.8003 0.615995 23.3663 0.531995 23.1003C0.489995 22.9883 0.433995 23.1283 0.405995 23.4083C0.363995 23.6883 0.391995 23.8843 0.447995 23.8563C0.503995 23.8143 0.559995 24.0103 0.559995 24.2763C0.559995 24.5563 0.629995 24.7803 0.699995 24.7803C0.783995 24.7803 0.839995 24.7243 0.839995 24.6543C0.839995 24.5703 1.21799 24.2203 1.67999 23.8703C2.506 23.2263 2.68799 22.9043 2.35199 22.5683C2.09999 22.3163 2.05799 22.3443 1.63799 23.1003Z" fill="black"/>
<path d="M0.699997 25.6207C0.699997 25.7047 0.797997 25.7607 0.909997 25.7607C1.176 25.7607 1.176 25.6767 0.909997 25.5647C0.797997 25.5227 0.699997 25.5507 0.699997 25.6207Z" fill="black"/>
<path d="M67.788 44.1703C67.634 44.5203 67.55 46.3263 67.69 46.1723C67.774 46.0883 68.068 43.9463 67.998 43.8763C67.97 43.8483 67.872 43.9743 67.788 44.1703Z" fill="black"/>
<path d="M64.806 49.1684C64.68 49.6444 64.54 50.1484 64.484 50.2744C64.33 50.6104 65.002 50.4564 65.352 50.0644C65.842 49.5464 65.856 49.2104 65.422 48.7204L65.016 48.2724L64.806 49.1684Z" fill="black"/>
<path d="M63.98 50.9742C63.882 51.1282 63.84 51.2962 63.882 51.3242C63.91 51.3522 64.008 51.2262 64.092 51.0302C64.288 50.6102 64.19 50.5682 63.98 50.9742Z" fill="black"/>
<path d="M63.434 52.3887C63.126 53.3127 63.168 53.3127 63.756 52.4307L64.12 51.8707V52.4307C64.106 52.7387 64.022 53.1447 63.91 53.3407C63.406 54.2227 63.826 54.6147 64.596 53.9987C64.946 53.7047 64.974 53.6347 64.834 53.3547C64.722 53.1727 64.694 52.8227 64.764 52.4307C64.848 51.8427 64.834 51.8007 64.47 51.6607C63.84 51.4227 63.742 51.4927 63.434 52.3887Z" fill="black"/>
<path d="M60.774 55.5239C60.774 55.6919 60.41 56.2099 59.99 56.6859C59.248 57.5119 59.052 57.9879 59.36 58.1699C59.612 58.3239 59.514 58.4919 59.122 58.5899L58.73 58.7019L59.136 58.8139C59.416 58.8979 59.626 58.8559 59.878 58.7019L60.228 58.4639L59.906 58.2399C59.416 57.8619 59.64 57.5399 60.41 57.5399H61.04L61.026 56.9379C61.026 56.2799 60.802 55.0619 60.774 55.5239Z" fill="black"/>
<path d="M62.37 55.5942C62.314 55.6782 62.3 55.7622 62.342 55.8042C62.37 55.8462 62.44 55.7762 62.482 55.6502C62.58 55.4122 62.496 55.3702 62.37 55.5942Z" fill="black"/>
<path d="M61.81 56.7982C61.6 57.1342 61.46 57.4422 61.488 57.4702C61.502 57.4842 61.726 57.5542 61.964 57.5962C62.342 57.6802 62.454 57.6382 62.706 57.3162C63.098 56.8262 63.084 56.6722 62.58 56.3922L62.174 56.1682L61.81 56.7982Z" fill="black"/>
<path d="M58.786 59.5985L58.31 60.1025L58.758 59.7945C59.234 59.4725 59.43 59.2485 59.332 59.1365C59.304 59.1085 59.052 59.3185 58.786 59.5985Z" fill="black"/>
<path d="M52.85 66.6403C52.808 66.7103 52.836 66.7803 52.906 66.7803C52.99 66.7803 53.06 66.7103 53.06 66.6403C53.06 66.5563 53.032 66.5003 53.004 66.5003C52.962 66.5003 52.892 66.5563 52.85 66.6403Z" fill="black"/>
<path d="M48.37 68.1939C47.782 68.7959 47.726 68.8939 48.02 68.8099C48.622 68.6419 49.21 68.2499 49.252 67.9839C49.364 67.4239 49.028 67.5079 48.37 68.1939Z" fill="black"/>
<path d="M45.57 68.0399L45.01 68.2919L45.542 68.3059C45.892 68.3199 46.102 68.2499 46.158 68.1099C46.284 67.7739 46.172 67.7599 45.57 68.0399Z" fill="black"/>
<path d="M37.17 69.0203C35.784 69.1603 33.992 69.2863 33.18 69.3003L31.71 69.3283L33.11 69.5943C33.908 69.7623 35.434 69.9023 36.68 69.9583L38.85 70.0283L38.5 69.7483L38.15 69.4683L38.5 69.3143C38.696 69.2443 39.354 69.1323 39.97 69.0763C40.796 69.0063 40.992 68.9503 40.74 68.8663C40.25 68.7263 40.026 68.7403 37.17 69.0203Z" fill="black"/>
<path fill-rule="evenodd" clip-rule="evenodd" d="M31.442 20.9518C31.4086 20.9922 31.2904 21.2228 31.1792 21.4645C31.0681 21.7062 30.9059 21.9694 30.8189 22.0495C30.7318 22.1295 30.6086 22.2792 30.545 22.3821L30.4293 22.5693L30.165 22.4524C29.8403 22.3088 29.673 22.3414 29.9821 22.4881C30.2036 22.5933 30.3748 22.8288 30.3752 23.029C30.3754 23.087 30.4268 23.2187 30.4896 23.3217L30.6038 23.509L30.3282 23.548C29.7292 23.6326 29.3757 23.8821 29.1082 24.4089C29.0304 24.562 28.9437 24.6872 28.9156 24.6872C28.8064 24.6872 28.2885 24.2868 28.1677 24.109C27.9527 23.7927 27.964 24.0039 28.18 24.3391C28.2915 24.5123 28.3828 24.6812 28.3826 24.7145C28.3825 24.7478 28.2931 24.9525 28.1839 25.1693C28.0282 25.4785 28.0082 25.5512 28.0916 25.5066C28.15 25.4753 28.2597 25.3375 28.3354 25.2003C28.4654 24.9648 28.4875 24.9509 28.7339 24.9509H28.9948L29.0398 25.2143C29.0998 25.566 29.2232 25.8631 29.4686 26.2466C29.5804 26.4215 29.6719 26.5743 29.6719 26.5862C29.6719 26.6651 29.1 26.8604 28.9447 26.8345C28.8451 26.8179 28.5923 26.8246 28.3828 26.8494L28.002 26.8945L28.2429 26.9397C28.6369 27.0134 28.642 27.0226 28.5385 27.4778C28.4439 27.8943 28.3562 28.011 27.9881 28.2105C27.8503 28.2852 27.7854 28.3874 27.6912 28.6784C27.6249 28.8832 27.5791 29.0593 27.5896 29.0697C27.6 29.0802 27.6925 28.9419 27.7952 28.7624C27.9709 28.4554 28.2886 28.1442 28.4265 28.1442C28.5117 28.1442 28.6376 28.6993 28.5929 28.8777C28.5444 29.071 28.6383 29.064 28.7278 28.8677L28.7987 28.7122L28.8962 28.8514C28.9498 28.9279 29.0099 29.0968 29.0299 29.2266C29.0646 29.4523 29.0681 29.4557 29.1112 29.3035C29.1455 29.1822 29.113 29.0555 28.9746 28.7715C28.7473 28.3048 28.7393 28.1789 28.9395 28.2172C29.0733 28.2428 29.0859 28.2274 29.0859 28.038V27.8308L28.9504 27.9583C28.7131 28.1811 28.6594 28.129 28.705 27.7194C28.7274 27.518 28.7761 27.3216 28.8132 27.283C28.8893 27.2039 29.6447 26.8769 29.9776 26.7789C30.2111 26.7102 30.3104 26.7474 30.2167 26.8684C30.1849 26.9095 30.1415 26.9958 30.1203 27.0602C30.0922 27.1456 30.1145 27.1343 30.2025 27.0183C30.2804 26.9157 30.4 26.8467 30.5395 26.8239C30.6585 26.8045 30.8284 26.7752 30.917 26.7587C31.0728 26.7297 31.0781 26.7372 31.0781 26.9847C31.0781 27.5417 31.3393 28.2126 31.8204 28.8911C32.035 29.1938 32.084 29.3129 32.1033 29.5784C32.1345 30.006 32.0324 30.0859 31.5166 30.0377C31.0707 29.9961 30.9396 30.094 30.8763 30.5156C30.8456 30.7206 30.7767 30.857 30.6132 31.0362C30.2615 31.4217 30.1891 31.6247 30.5157 31.3095C30.8111 31.0244 31.0195 30.6556 31.0195 30.4181C31.0195 30.1869 31.1313 30.1377 31.6228 30.1524C32.0399 30.1648 32.0815 30.1549 32.2295 30.0073C32.3697 29.8676 32.3804 29.8312 32.3205 29.6997C32.2073 29.4512 32.332 29.5307 32.6554 29.9131C33.0146 30.3378 33.1032 30.5019 33.5099 31.4956L33.8143 32.2396L33.4863 32.2757C33.3059 32.2955 32.8492 32.3892 32.4715 32.4839C31.6473 32.6904 31.3158 32.7043 31.166 32.5388C31.0296 32.3881 30.9385 32.3873 31.0189 32.5376C31.0749 32.6422 31.0651 32.651 30.9184 32.6272C30.829 32.6126 30.5581 32.5705 30.3164 32.5335C28.3114 32.2265 26.9583 31.2107 26.0608 29.3386C25.7221 28.6322 25.7187 28.4227 26.0408 28.0909C26.1706 27.9571 26.3552 27.832 26.4509 27.8128C26.745 27.754 26.6621 27.6252 26.3174 27.6053L26.0098 27.5876L25.9922 27.2507C25.9825 27.0653 25.99 26.9138 26.0089 26.9138C26.0278 26.9138 26.1033 26.9531 26.1768 27.0012C26.2998 27.0819 26.3262 27.0769 26.5116 26.9385L26.7129 26.7882L26.5078 26.8229C26.1774 26.8789 26.1427 26.8212 26.2048 26.3203C26.238 26.0533 26.3213 25.7592 26.419 25.5637C26.507 25.3878 26.549 25.2723 26.5124 25.3071C26.4757 25.3419 26.3296 25.6379 26.1877 25.9649C26.0457 26.2919 25.8441 26.6659 25.7397 26.7959C25.5703 27.0066 25.5449 27.0877 25.5057 27.5443C25.4816 27.8259 25.4322 28.1739 25.3958 28.3177C25.3595 28.4615 25.3467 28.679 25.3674 28.8011C25.4138 29.0764 25.3409 29.086 25.1267 28.8327C24.8549 28.5114 24.6261 27.9488 24.5665 27.4553C24.4525 26.5116 24.3161 26.363 23.2372 26.0074C22.7185 25.8365 22.701 25.8189 22.5829 25.3503C22.4944 24.9994 22.1219 24.6917 21.5029 24.458C21.0439 24.2848 20.9987 24.2527 20.8866 24.0212C20.7291 23.6958 20.734 23.6002 20.9177 23.4165C21.0564 23.2778 21.059 23.2672 20.9469 23.2965C20.8683 23.317 20.8035 23.2936 20.7673 23.2316C20.7154 23.1426 20.7104 23.1431 20.7088 23.237C20.7065 23.3743 20.6652 23.3671 20.3991 23.1827C20.0926 22.9703 20.0376 22.8545 20.1448 22.6473C20.2647 22.4153 20.1796 22.0803 19.9423 21.8506L19.7554 21.6696L19.917 21.9521C20.0669 22.2143 20.0732 22.2508 20.0043 22.4596C19.9074 22.7533 19.9535 22.9142 20.2309 23.2499C20.3749 23.4242 20.4806 23.6271 20.5168 23.7992C20.5485 23.9492 20.5938 24.1181 20.6177 24.1745C20.6758 24.3122 20.5594 24.3079 20.1571 24.1573C19.9811 24.0915 19.7559 23.9546 19.6568 23.8532C19.5213 23.7146 19.4766 23.6934 19.4766 23.7679C19.4766 23.8437 19.4237 23.8669 19.2504 23.8669C19.1259 23.8669 18.9053 23.8832 18.7601 23.9031L18.4961 23.9393L18.4571 23.7315C18.4118 23.49 18.1307 23.1621 17.9736 23.1675C17.8815 23.1706 17.8844 23.1789 17.9933 23.2228C18.1645 23.2917 18.2461 23.4588 18.2461 23.7402C18.2461 23.9384 18.2138 23.9987 18.0264 24.1491C17.7463 24.374 17.7994 24.442 18.0924 24.2336L18.3132 24.0764L18.6065 24.2413L18.8997 24.4061L19.0308 24.283C19.1029 24.2153 19.2261 24.1613 19.3045 24.1631C19.5071 24.1678 19.996 24.3765 19.8867 24.4117C19.379 24.5751 18.4466 24.8044 18.2897 24.8044C17.774 24.8044 17.0998 24.4559 16.7796 24.0238C16.6141 23.8005 16.5997 23.746 16.6164 23.403C16.6386 22.9485 16.5288 22.8488 16.4295 23.2332C16.3019 23.7267 16.3306 23.6998 16.0988 23.5425C15.9843 23.4648 15.7944 23.384 15.6767 23.363C15.5591 23.3419 15.4168 23.2844 15.3604 23.2351C15.2274 23.1191 15.227 23.1832 15.3598 23.316C15.4374 23.3936 15.4435 23.4242 15.3852 23.4435C15.343 23.4576 15.2378 23.5337 15.1514 23.6125L14.9941 23.7559L15.1948 23.6582C15.5526 23.4837 16.1809 23.5866 15.8804 23.7704C15.82 23.8074 15.6839 23.8946 15.5779 23.9642C15.3758 24.097 14.9978 24.19 14.4082 24.2518C14.0577 24.2885 14.0558 24.2879 13.7637 24.0347L13.4707 23.7807L13.701 24.0435C13.8277 24.1881 13.9554 24.3226 13.9849 24.3425C14.0151 24.3629 13.9978 24.4573 13.945 24.5593C13.8149 24.8107 13.8266 24.8204 14.0228 24.6241C14.1701 24.4768 14.2387 24.4528 14.5125 24.4528C14.6924 24.4528 15.1033 24.3747 15.4574 24.2732L16.0839 24.0936L16.3301 24.2135C16.5992 24.3445 17.2066 24.9876 17.377 25.3218C17.4911 25.5455 17.5228 25.4989 17.4273 25.2477C17.3958 25.165 17.3837 25.0974 17.4003 25.0974C17.4695 25.0974 17.7774 25.3588 17.7774 25.4175C17.7774 25.4572 17.8717 25.4725 18.0264 25.458C18.2752 25.4347 18.2753 25.4348 18.1658 25.5568C18.0273 25.711 17.6461 25.8461 17.6148 25.7521C17.5905 25.6794 16.957 26.3027 16.957 26.3993C16.957 26.438 16.8607 26.4468 16.6934 26.4233C16.5483 26.4031 16.3044 26.3735 16.1514 26.3577L15.8731 26.329L16.2246 26.4457C16.9178 26.6756 16.9594 26.6713 17.2916 26.3339C17.5155 26.1064 17.6279 26.0349 17.7613 26.0349C17.9502 26.0349 18.6693 25.6931 18.6264 25.6238C18.5819 25.5518 18.8066 25.3887 19.1038 25.2772C19.6887 25.0579 19.672 25.0506 19.4449 25.4276C19.3334 25.6128 19.2422 25.7922 19.2421 25.8263C19.2421 25.8605 19.1658 26.0497 19.0724 26.247C18.8531 26.7107 18.5912 26.915 18.1424 26.9725C17.9577 26.9962 17.8677 27.0191 17.9424 27.0233C18.0169 27.0275 18.1287 27.058 18.1906 27.0912C18.3265 27.164 18.6707 27.0067 19.0518 26.6977L19.3008 26.4958L19.3011 26.8659C19.3015 27.3118 19.3773 27.6097 19.5326 27.7764L19.648 27.9003L19.4305 27.938C19.3108 27.9587 19.147 28.0138 19.0664 28.0604L18.9199 28.1452L19.0664 28.1188C19.5567 28.0304 19.6588 28.0306 19.9234 28.1204C20.0795 28.1735 20.4074 28.234 20.6521 28.255C20.9381 28.2796 21.1581 28.3333 21.2682 28.4054L21.4394 28.5176L21.0323 28.6204C20.3283 28.7981 20.1376 28.8915 20.0672 29.0936C20.0324 29.1934 20.0063 29.3436 20.0092 29.4274C20.0138 29.5611 20.0216 29.5547 20.0728 29.3747C20.1549 29.086 20.2728 28.9762 20.6078 28.8768C21.1035 28.7295 21.7378 28.7114 22.1902 28.8313L22.5894 28.9372L21.9636 29.2536C21.1965 29.6416 20.645 30.143 19.8977 31.1325C19.4914 31.6703 19.3328 31.8341 19.1121 31.9436C18.7368 32.1297 18.2516 32.1668 17.7778 32.0455C17.268 31.9149 16.9565 31.7213 16.4849 31.2421C16.2669 31.0207 16.0586 30.8395 16.0219 30.8395C15.9853 30.8395 16.0514 30.9385 16.1689 31.0593C16.2863 31.1802 16.4093 31.3292 16.4422 31.3904C16.4933 31.4858 16.4862 31.4953 16.3925 31.4567C16.3324 31.4318 16.1599 31.4159 16.0091 31.4212C15.788 31.429 15.6294 31.3779 15.1888 31.1567C14.8884 31.0058 14.5509 30.8068 14.4388 30.7144C14.3229 30.6189 14.1713 30.5495 14.0872 30.5534C13.9663 30.5589 13.9607 30.5653 14.0566 30.5885C14.202 30.6237 14.4375 30.8354 14.4375 30.931C14.4375 30.9701 14.365 31.017 14.2764 31.0352C13.3998 31.2158 12.8593 31.3917 13.3828 31.3262L13.6465 31.2932L13.4615 31.4782C13.3378 31.6018 13.2536 31.7644 13.2074 31.9691C13.1694 32.1374 13.1245 32.3245 13.1078 32.385C13.0386 32.6346 13.199 32.4004 13.3149 32.0828C13.3835 31.8946 13.5043 31.6797 13.5834 31.6054C13.7903 31.4111 14.3411 31.2933 14.6423 31.3788C14.9012 31.4524 15.4922 31.7789 15.4922 31.8484C15.4922 31.8726 15.3376 31.8763 15.1487 31.8566C14.915 31.8321 14.7918 31.8425 14.7629 31.8891C14.7331 31.9375 14.7637 31.9467 14.8678 31.9206C15.2203 31.8321 15.3967 32.1034 15.2501 32.5086C15.1838 32.6922 15.1874 32.7273 15.2826 32.8177C15.3856 32.9155 15.3887 32.9126 15.3597 32.7438C15.343 32.6472 15.3472 32.5201 15.369 32.4614C15.4027 32.371 15.4306 32.3886 15.5533 32.5783C15.6328 32.7012 15.799 32.8672 15.9226 32.9472L16.1472 33.0925L15.9922 33.2258C15.8665 33.3339 15.7676 33.3591 15.4683 33.3591C15.0256 33.3591 14.7532 33.2064 14.6322 32.8903C14.5505 32.677 14.5504 32.6746 14.6376 33.0954C14.6918 33.3571 14.8443 33.4928 15.3041 33.6886C15.3135 33.6926 15.2476 33.817 15.1576 33.9651C15.028 34.1786 14.9517 34.2423 14.7891 34.273C14.3895 34.3483 14.3946 34.4197 14.798 34.3993L15.1879 34.3797L15.2196 34.5749C15.2518 34.7741 15.4837 35.2035 15.5325 35.1547C15.5473 35.1399 15.521 35.0528 15.4741 34.9612C15.3565 34.7316 15.2973 34.2372 15.3659 34.0569C15.4123 33.9349 15.5038 33.8841 15.8671 33.7785C16.2089 33.6792 16.3796 33.589 16.6057 33.3882C17.1076 32.9425 17.1254 32.938 18.3253 32.9538C18.9865 32.9626 19.4777 32.9427 19.6239 32.9013C20.1235 32.7598 20.6445 32.3415 21.335 31.5276C21.5752 31.2445 21.9263 30.908 22.1151 30.7797C22.3039 30.6515 22.4664 30.5466 22.4763 30.5465C22.4861 30.5465 22.485 30.6784 22.4738 30.8397C22.4627 31.001 22.4794 31.207 22.511 31.2977C22.5847 31.5093 22.4745 31.846 22.2571 32.0728C22.127 32.2086 22.1069 32.2676 22.1448 32.4031L22.1909 32.5681L22.2258 32.3923C22.2505 32.2684 22.3236 32.1827 22.4739 32.1021C22.6502 32.0075 22.6923 31.9481 22.7177 31.7584C22.7401 31.5918 22.8107 31.4692 22.9754 31.3109C23.1073 31.1842 23.2332 30.99 23.2759 30.8473C23.3164 30.7123 23.3716 30.6155 23.3988 30.6322C23.4259 30.6491 23.4508 30.8385 23.454 31.0533C23.4608 31.5047 23.4898 31.5674 23.5829 31.3311C23.6468 31.1689 23.6168 30.9023 23.4899 30.5053C23.4556 30.3977 23.4767 30.3683 23.6159 30.3295C23.7079 30.3039 23.9432 30.2852 24.1386 30.2881C24.6444 30.2953 24.9681 30.4928 25.7593 31.2767C26.5209 32.0311 26.885 32.3282 27.4678 32.6707C27.6972 32.8055 27.898 32.9314 27.9141 32.9506C27.9302 32.9697 28.1148 33.041 28.3242 33.1089C28.6918 33.2281 28.6972 33.2326 28.4777 33.2371C28.3526 33.2398 27.9841 33.1996 27.6588 33.1478C27.0322 33.0482 26.6736 33.0663 26.3925 33.2116C26.0922 33.3669 25.8195 33.3156 25.5264 33.0486C25.3507 32.8886 25.3457 32.529 25.5166 32.3581C25.6712 32.2035 25.6168 32.1426 25.4187 32.2485C25.2588 32.3342 25.1016 32.5827 25.1016 32.75C25.1016 32.8405 25.0897 32.8393 24.9758 32.7383C24.7121 32.5042 24.5156 32.1721 24.5148 31.9587C24.514 31.801 24.4995 31.7699 24.457 31.8356C24.3676 31.974 24.3912 32.3121 24.5081 32.5681C24.6104 32.7919 24.9373 33.133 25.2997 33.3939C25.4602 33.5094 25.4652 33.5259 25.3992 33.7259C25.3027 34.0181 24.9714 34.4354 24.6724 34.6411C24.5021 34.7582 24.4004 34.8816 24.3567 35.024C24.2821 35.2671 24.3418 35.3029 24.4584 35.085C24.53 34.9513 24.7068 34.7996 25.2951 34.3673C25.3957 34.2934 25.5457 34.1088 25.6286 33.9571C25.7414 33.7507 25.8082 33.6864 25.8945 33.7016C25.9579 33.7127 26.0206 33.7323 26.0339 33.7452C26.0472 33.7581 26.0237 33.9502 25.9818 34.1721C25.8947 34.634 25.9181 34.7797 26.1248 35.0618C26.2061 35.1727 26.3249 35.3688 26.3889 35.4977C26.4941 35.7096 26.5054 35.7174 26.5065 35.5792C26.5072 35.4951 26.4434 35.3313 26.3648 35.2154C26.233 35.0212 26.0988 34.6569 26.098 34.4911C26.0978 34.4501 26.2086 34.484 26.371 34.5748L26.6443 34.7275L26.8597 34.6036L27.075 34.4796L27.2141 34.6078C27.3393 34.7233 27.3431 34.724 27.2527 34.6142C27.1975 34.5472 27.1524 34.4483 27.1524 34.3945C27.1524 34.2753 27.1003 34.2732 26.9507 34.3863C26.7806 34.5151 26.5461 34.4914 26.3947 34.3302C26.2358 34.1611 26.2675 34.0904 26.5557 33.9711C26.6744 33.922 26.8148 33.8253 26.8678 33.7562L26.964 33.6305L27.6295 33.7729C28.1981 33.8946 28.4399 33.9143 29.291 33.9082C31.1407 33.8951 32.8044 33.839 33.2168 33.7758C33.4424 33.7412 33.6401 33.7126 33.6563 33.7123C33.6724 33.7119 33.6925 33.8741 33.701 34.0727C33.7133 34.359 33.6936 34.4589 33.606 34.5556C33.5452 34.6226 33.4208 34.7924 33.3294 34.933L33.1633 35.1885L32.9949 34.9999C32.8681 34.8581 32.8354 34.7755 32.8628 34.6662C32.8838 34.5827 32.8761 34.5354 32.8448 34.5548C32.8148 34.5733 32.7728 34.6583 32.7514 34.7436C32.7209 34.8652 32.7478 34.9357 32.8757 35.0692C33.0124 35.2119 33.0249 35.2485 32.9521 35.2945C32.9043 35.3248 32.8174 35.3499 32.7588 35.3504C32.5927 35.3518 32.4454 35.4515 32.3032 35.6588C32.2313 35.7636 32.2063 35.8184 32.2477 35.7806C32.289 35.7429 32.3592 35.7259 32.4036 35.743C32.4511 35.7612 32.4844 35.736 32.4844 35.6819C32.4844 35.5708 32.6194 35.4924 32.9023 35.4393L33.113 35.3998L33.0641 35.7124C33.0002 36.1211 32.8455 36.5231 32.7521 36.5231C32.7114 36.5231 32.4631 36.3325 32.2003 36.0995C31.7528 35.7025 31.7226 35.661 31.7218 35.4403C31.7211 35.2667 31.706 35.2279 31.6641 35.2927C31.5078 35.5345 31.6144 35.8295 32.0097 36.2489L32.2207 36.4728L32.0449 36.435C31.9482 36.4141 31.7138 36.32 31.524 36.2257C31.1487 36.0394 30.9114 36.0161 30.6387 36.1387C30.471 36.214 30.478 36.2163 30.7884 36.1876C31.0413 36.1643 31.1654 36.1838 31.345 36.2752C31.4722 36.3399 31.7675 36.4497 32.0013 36.5192C32.4409 36.6498 32.6523 36.8337 32.5799 37.0224C32.5509 37.0981 32.5086 37.088 32.314 36.9592C31.8977 36.6837 31.301 36.7133 30.9263 37.0279L30.7559 37.1711L30.9734 37.0854C31.3149 36.9509 31.6905 36.9136 31.9248 36.991C32.1719 37.0725 32.4844 37.3195 32.4844 37.4332C32.4844 37.4769 32.3411 37.6815 32.166 37.8879C31.749 38.3794 31.3938 38.5453 30.8644 38.4959C30.6645 38.4772 30.4093 38.4236 30.2972 38.3768C30.0207 38.2613 29.7127 37.9166 29.4898 37.4731C29.3193 37.134 29.3077 37.0747 29.3435 36.725C29.4006 36.1679 29.4711 36.0449 29.7269 36.0564C30.0216 36.0696 30.0824 36.0472 29.877 36.0011C29.4382 35.9027 29.1681 36.1151 29.0965 36.6148L29.0551 36.904L28.9156 36.6782C28.6642 36.2717 28.2185 36.102 28.0848 36.362C28.0287 36.4708 28.0304 36.4811 28.0944 36.4206C28.2887 36.2369 28.6478 36.4733 28.8847 36.9409C29.0407 37.2486 29.0117 37.2937 28.777 37.1091C28.607 36.9754 28.4999 36.9584 28.5001 37.0651C28.5001 37.1175 28.4064 37.1325 28.1719 37.118C27.6765 37.0872 27.6362 37.2077 28.1274 37.2509C28.7678 37.3072 28.9761 37.3941 29.1226 37.6657C29.1922 37.7946 29.2664 37.9581 29.2877 38.0291L29.3264 38.158L28.973 38.0144C28.7786 37.9354 28.5714 37.8708 28.5126 37.8708C28.4538 37.8708 28.2401 37.7542 28.0378 37.6118C27.3578 37.1329 26.5728 36.8947 26.2771 37.0776C26.24 37.1005 26.1713 37.0873 26.1244 37.0484C26.0655 36.9995 26.0391 36.9976 26.0391 37.0425C26.0391 37.1362 25.359 37.4658 25.2511 37.4244C25.1905 37.4011 25.1602 37.3135 25.1602 37.1614C25.1602 37.036 25.1338 36.9333 25.1016 36.9333C25.0693 36.9333 25.043 37.0507 25.043 37.194C25.043 37.3811 25.0719 37.471 25.1452 37.512C25.2394 37.5647 25.2363 37.5809 25.1056 37.72C25.0277 37.8029 24.9092 37.8738 24.8424 37.8776C24.7374 37.8835 24.7354 37.8882 24.8275 37.912C24.9001 37.9307 24.9218 37.9709 24.8951 38.037C24.8736 38.0906 24.8148 38.3454 24.7645 38.6032C24.598 39.4575 24.5719 39.528 24.3431 39.7437C24.2222 39.8577 24.0599 39.9965 23.9825 40.0521C23.8463 40.1502 23.8495 40.1507 24.0879 40.0704C24.4873 39.9358 24.5782 39.8667 24.6951 39.6092L24.806 39.3649L24.8073 39.5509C24.8091 39.8056 25.0518 40.0794 25.3461 40.1587C25.6622 40.2438 25.6929 40.191 25.4109 40.0471C25.1211 39.8993 24.9918 39.7551 25.093 39.6925C25.1461 39.6597 25.1489 39.6066 25.1039 39.4881C25.0249 39.2803 25.0264 38.7239 25.1068 38.4343C25.186 38.1491 25.6395 37.6542 25.9512 37.5131C26.1849 37.4073 26.1857 37.4073 26.2243 37.5363L26.263 37.6657L26.3044 37.5339C26.3887 37.265 27.1036 37.3946 27.1237 37.6824C27.1289 37.7561 27.1657 37.8484 27.2054 37.8875C27.2627 37.9438 27.2695 37.9251 27.238 37.7976C27.1669 37.5096 27.3602 37.5891 27.9574 38.0935C28.1262 38.2361 28.2499 38.3761 28.2322 38.4047C28.2146 38.4334 28.2666 38.4567 28.3478 38.4567C28.5012 38.4567 29.389 38.6503 29.7086 38.7535L29.8919 38.8126L29.7425 38.9829C29.6264 39.1153 29.5701 39.1409 29.4898 39.0979C29.4331 39.0675 29.2434 39.0427 29.0684 39.0427C28.828 39.0427 28.7089 39.0106 28.5812 38.9112L28.4121 38.7797L28.5068 38.9253C28.5787 39.0358 28.6821 39.0852 28.9364 39.13C29.2275 39.1814 29.2935 39.2192 29.4423 39.4193C29.6457 39.6931 29.6511 39.7586 29.492 40.0161C29.2968 40.332 29.4284 40.3801 29.6319 40.0673C29.755 39.8782 29.81 39.7235 29.8059 39.5785C29.7956 39.2142 29.9697 39.0466 30.4482 38.9599C30.7143 38.9118 30.7189 38.9416 30.5204 39.4235C30.4407 39.6169 30.376 39.8146 30.3766 39.863C30.3776 39.9501 30.7813 40.6343 30.7838 40.5532C30.7846 40.53 30.7192 40.3669 30.6387 40.1908C30.5581 40.0146 30.4922 39.8424 30.4922 39.8081C30.4922 39.6786 30.6131 39.754 30.7591 39.9746C30.8982 40.1847 30.9073 40.2362 30.871 40.605C30.8332 40.989 30.8384 41.0135 30.9918 41.1669C31.1281 41.3032 31.1469 41.3603 31.1173 41.5473L31.0823 41.7673L31.1961 41.6208C31.3379 41.4382 31.3379 41.4316 31.1953 41.152C31.0629 40.8924 31.0393 40.6169 31.1514 40.6394C31.1987 40.6488 31.231 40.566 31.2426 40.406C31.2588 40.1816 31.2352 40.1309 30.9936 39.8726C30.8467 39.7156 30.7266 39.568 30.7266 39.5446C30.7266 39.5213 30.8047 39.5193 30.9001 39.5402C30.9956 39.5612 31.1174 39.5538 31.1711 39.5238C31.2527 39.4781 31.2382 39.4588 31.0809 39.404C30.9236 39.3491 30.8997 39.3172 30.9319 39.2053C30.953 39.132 30.9831 39.0259 30.9988 38.9695C31.0271 38.868 31.0818 38.8474 31.4998 38.7803C31.8085 38.7308 32.1157 38.873 32.2203 39.1137C32.293 39.2809 32.3043 39.2882 32.3063 39.1695C32.3077 39.09 32.2289 38.9551 32.1182 38.8476L31.9277 38.6625L32.308 38.2772L32.6882 37.8919L32.9708 38.3513C33.1263 38.6039 33.3981 38.9517 33.5748 39.1243L33.8961 39.438L33.6759 39.5679C33.4756 39.6861 33.4423 39.6901 33.307 39.6124C33.1543 39.5247 33.0117 39.5361 33.0117 39.636C33.0117 39.667 33.0569 39.6846 33.1122 39.6751C33.2987 39.6431 33.2646 39.8504 33.0665 39.9529C32.8873 40.0455 32.7701 40.0455 32.5137 39.953C32.4191 39.9188 32.4246 39.9335 32.5417 40.029C32.7387 40.1896 32.9442 40.2199 33.1768 40.1227C33.2838 40.078 33.3898 40.0474 33.4124 40.0548C33.435 40.0621 33.5307 39.9966 33.625 39.9093C33.9366 39.6208 34.0632 39.6011 34.4799 39.7765C35.2225 40.089 36.0738 40.0236 37.1286 39.573C37.4721 39.4262 37.8504 39.3134 38.1289 39.2747C38.5334 39.2185 38.603 39.224 38.8473 39.332C38.996 39.3978 39.3061 39.5922 39.5364 39.7641C40.1929 40.254 40.4806 40.4391 40.8764 40.6264L41.2441 40.8004L40.9473 40.8004C40.784 40.8005 40.4998 40.8283 40.3157 40.8624C39.997 40.9213 39.9662 40.9159 39.675 40.7506C39.2592 40.5146 38.0434 40.1919 37.766 40.244C37.4815 40.2973 37.2494 40.4238 36.9439 40.6919C36.6666 40.9352 36.53 40.9642 36.2783 40.8329C36.077 40.7279 36.0654 40.8225 36.2637 40.9524C36.4463 41.072 36.4541 41.2823 36.2819 41.4427C36.2114 41.5084 36.185 41.5622 36.2233 41.5622C36.329 41.5622 36.5198 41.349 36.561 41.1849C36.5811 41.1047 36.645 41.024 36.7028 41.0057C36.8568 40.9568 37.221 41.1494 37.2466 41.2934C37.2667 41.4061 37.2722 41.4074 37.3157 41.3097C37.35 41.2326 37.3191 41.158 37.2024 41.0361C37.0147 40.8401 37.0362 40.7846 37.3663 40.6124C37.7172 40.4294 38.1441 40.4455 38.6953 40.6626C38.9596 40.7666 39.1348 40.8693 39.1348 40.9202C39.1348 40.9698 38.9889 41.0605 38.7832 41.1389C38.2428 41.3449 38.1653 41.4005 37.7739 41.8633C37.5597 42.1167 37.318 42.3363 37.188 42.3956C36.7594 42.5913 36.0015 42.5022 35.6882 42.2192C35.5487 42.0931 35.3285 41.6629 35.2451 41.3534C35.2099 41.2224 35.0984 41.0401 34.995 40.9442L34.8084 40.7712L34.9355 40.9832C35.0053 41.0998 35.0625 41.2466 35.0625 41.3095C35.0625 41.5542 35.2508 42.0384 35.4449 42.2926C35.6674 42.5842 35.6851 42.6245 35.5752 42.5906C35.3841 42.5318 35.1545 42.494 35.1873 42.5269C35.2627 42.6022 35.9919 42.84 36.0326 42.8025C36.056 42.781 36.0563 42.8425 36.0333 42.9392L35.9915 43.1149L36.1152 42.9831C36.2148 42.877 36.3026 42.8513 36.5651 42.8513C36.7445 42.8513 37.0436 42.8118 37.2298 42.7635C37.527 42.6865 37.5977 42.6862 37.8096 42.761C37.9426 42.8079 38.0508 42.821 38.0508 42.7901C38.0508 42.7593 38.031 42.7335 38.0068 42.7328C37.9826 42.7321 37.8991 42.6824 37.821 42.6224L37.6792 42.5134L37.9531 42.1295C38.1038 41.9184 38.3005 41.6933 38.3903 41.6294C38.7561 41.3689 39.6806 41.1681 39.7792 41.3277C39.7991 41.3599 39.7743 41.4448 39.7241 41.5166C39.6069 41.6839 39.6077 41.9105 39.7263 42.0797C39.7848 42.1632 39.806 42.2678 39.783 42.3595C39.7497 42.4921 39.7574 42.4999 39.8653 42.4421C40.0104 42.3645 40.0151 42.2697 39.8849 42.043C39.7915 41.8802 39.7916 41.8606 39.8847 41.7184C39.9909 41.5563 40.6699 41.3023 40.8313 41.3642C40.8781 41.3821 40.9487 41.3768 40.9884 41.3522C41.0402 41.3202 41.0286 41.2951 40.9473 41.2633C40.8423 41.2221 40.8435 41.2185 40.9634 41.2147C41.0346 41.2125 41.2917 41.2402 41.5347 41.2764C41.9263 41.3346 41.9765 41.3562 41.9757 41.4668C41.974 41.7036 41.8979 41.7542 41.6477 41.6847C41.5225 41.6499 41.395 41.6213 41.3646 41.6211C41.3098 41.6208 41.6554 41.8944 41.7503 41.9264C41.8268 41.9523 41.6124 42.5583 41.5267 42.5583C41.4849 42.5583 41.3874 42.4594 41.3101 42.3386C41.2328 42.2177 41.0874 42.0414 40.987 41.9466C40.8095 41.7792 40.8022 41.7776 40.7206 41.888C40.6468 41.9881 40.6483 42.0042 40.7329 42.0229C40.8982 42.0595 41.0831 42.2061 41.3039 42.4756L41.5167 42.7353L41.3939 42.9338C41.3264 43.043 41.2191 43.2867 41.1554 43.4752C41.0503 43.7865 41.0493 43.8057 41.144 43.6839L41.2482 43.5497L41.3196 43.747C41.414 44.0081 41.6239 44.1978 41.883 44.2562C42.1642 44.3197 42.1463 44.2552 41.8426 44.111C41.549 43.9716 41.3518 43.6583 41.4106 43.4242C41.4316 43.3403 41.5304 43.1969 41.63 43.1054C41.8514 42.9023 42.1092 42.5135 42.0674 42.4458C42.034 42.3918 42.2091 41.8462 42.34 41.5964L42.4217 41.4404L42.5848 41.8582L42.748 42.2759L42.6056 42.5636C42.4703 42.8369 42.5022 42.9467 42.6685 42.7804C42.7239 42.725 42.7591 42.7378 42.83 42.839C42.8799 42.9102 42.9464 42.9685 42.9778 42.9685C43.0091 42.9685 42.9826 42.896 42.9189 42.8073C42.7703 42.6005 42.8142 42.3367 43.0096 42.2624C43.1893 42.1941 43.1863 42.101 43.002 42.031C42.8401 41.9694 42.8061 41.8118 42.9434 41.7592C43.075 41.7087 43.0494 41.6024 42.9141 41.6378C42.8379 41.6577 42.7969 41.6395 42.7969 41.586C42.7969 41.5407 42.8336 41.5036 42.8785 41.5036C42.9234 41.5036 42.9734 41.4692 42.9895 41.427C43.0057 41.3848 43.1943 41.318 43.4087 41.2785C43.9835 41.1726 44.3442 40.9877 44.9614 40.4823C45.5646 39.9884 45.9456 39.7683 46.293 39.713C46.4842 39.6825 46.5387 39.6997 46.6596 39.8287C46.8147 39.994 46.913 40.0276 46.8633 39.8983C46.7649 39.6417 48.3762 39.7587 49.2979 40.075C49.4445 40.1253 49.6131 40.1763 49.6725 40.1882C49.732 40.2002 50.0816 40.4227 50.4496 40.6827C51.1155 41.1532 52.2421 41.8868 52.3689 41.9324C52.4056 41.9455 52.4161 41.9772 52.3924 42.0027C52.3686 42.0281 52.0215 42.0189 51.621 41.982C50.6869 41.8961 50.1089 41.7141 49.5452 41.3286C49.3091 41.167 49.0726 41.0349 49.0195 41.0349C48.9493 41.0349 48.9625 41.0616 49.068 41.1332C49.3002 41.2909 49.6025 41.5622 49.5459 41.5622C49.5174 41.5622 49.4147 41.5345 49.3177 41.5007C49.1756 41.4512 49.0801 41.4629 48.8256 41.5613C48.5311 41.6751 48.4682 41.6788 47.8945 41.6167C47.5562 41.5801 47.1038 41.5001 46.8894 41.439C46.4523 41.3144 46.2205 41.2984 46.1646 41.3888C46.1404 41.428 46.1786 41.4368 46.2715 41.4134C46.3647 41.39 46.5055 41.4227 46.6677 41.5055L46.9193 41.6338L46.5744 41.8293C46.3847 41.9368 46.1296 42.0417 46.0075 42.0623C45.8854 42.0829 45.7381 42.1436 45.68 42.1972C45.622 42.2508 45.6022 42.2772 45.6359 42.2559C45.6697 42.2346 45.8006 42.1979 45.927 42.1743L46.1567 42.1314L46.0361 42.3009C45.9195 42.4649 45.8537 42.6597 45.7347 43.1926C45.6817 43.4302 45.6845 43.4404 45.7788 43.3551C45.8341 43.305 45.9271 43.1047 45.9854 42.91C46.1034 42.5163 46.3965 42.2069 46.7674 42.0844C47.0189 42.0015 47.9138 42.0432 48.1582 42.1493L48.334 42.2255L47.9658 42.2962C47.4874 42.388 47.4434 42.4411 47.8457 42.4411C48.023 42.4411 48.1833 42.4565 48.2022 42.4753C48.221 42.4941 48.1859 42.6565 48.1241 42.836C47.9939 43.2145 47.9957 43.2028 48.0647 43.2028C48.0939 43.2028 48.177 43.0597 48.2496 42.8848L48.3813 42.5667L48.635 42.7604C48.7744 42.8669 49.0077 42.984 49.1533 43.0207C49.2989 43.0573 49.418 43.1113 49.418 43.1405C49.418 43.2687 49.0364 43.5588 48.7596 43.6409C48.0648 43.8473 47.5612 43.7381 47.1365 43.2891C46.8292 42.9642 46.78 43.0142 47.0187 43.4089C47.1949 43.7005 47.3949 43.8505 47.7566 43.9624C47.9452 44.0207 48.0979 44.0913 48.0959 44.1191C48.0887 44.2171 47.8806 44.6388 47.8209 44.6763C47.7876 44.6973 47.6027 44.7454 47.41 44.7833C46.9275 44.8782 47.0627 44.9629 47.601 44.9029C47.8424 44.876 48.0565 44.8642 48.0768 44.8768C48.0972 44.8893 48.129 44.9756 48.1475 45.0685C48.1826 45.2437 48.4503 45.6052 48.5451 45.6052C48.5749 45.6052 48.5307 45.5015 48.4468 45.3747C48.3427 45.2173 48.2843 45.0339 48.2627 44.7962C48.2227 44.3545 48.3032 44.2642 48.8971 44.0838C49.4559 43.9142 49.6127 43.8302 49.9399 43.5259C50.4492 43.0521 50.8828 42.8333 50.8828 43.0501C50.8828 43.1776 51.0481 43.211 51.4724 43.1691C52.1737 43.1001 53.4783 43.4593 54.05 43.8789C54.744 44.3884 55.2765 45.1501 55.6457 46.1618C55.9178 46.9072 55.9504 46.875 55.2667 46.5379C54.6974 46.2573 54.6425 46.2419 54.3261 46.2731C54.012 46.3041 53.9767 46.2945 53.7841 46.1254C53.5839 45.9497 53.5337 45.7892 53.6137 45.5807C53.6333 45.5297 53.686 45.488 53.7309 45.488C53.7758 45.488 53.8125 45.4477 53.8125 45.3986C53.8125 45.3186 53.7942 45.3186 53.6385 45.3992C53.5427 45.4487 53.4355 45.5434 53.4 45.6096C53.3454 45.7116 53.3214 45.7182 53.2427 45.6529C53.1196 45.5508 52.9924 45.2387 52.9913 45.0358C52.9906 44.909 52.9778 44.8923 52.9336 44.9606C52.7754 45.2054 52.939 45.6602 53.3647 46.1589L53.5908 46.4237L53.4708 46.615C53.4049 46.7203 53.1995 46.8997 53.0145 47.0138C52.5615 47.2931 52.5292 47.4278 52.9702 47.199C53.1595 47.1008 53.369 47.0049 53.4358 46.986C53.5024 46.9671 53.6009 46.8596 53.6545 46.7472C53.7573 46.5316 53.7914 46.5125 53.9237 46.5963C53.9932 46.6403 53.991 46.6849 53.9091 46.8896C53.7801 47.2119 53.7878 47.5296 53.9297 47.7438C53.9937 47.8405 54.0463 47.9974 54.0465 48.0925C54.0468 48.2268 54.0625 48.2497 54.1171 48.1951C54.1716 48.1406 54.165 48.0628 54.0875 47.8465C54.0326 47.6933 53.9878 47.4836 53.988 47.3803L53.9883 47.1925L54.1386 47.3429C54.2592 47.4634 54.3251 47.486 54.4705 47.457C54.5985 47.4314 54.6844 47.4501 54.7621 47.5204C54.8653 47.6138 54.8698 47.6138 54.8341 47.5208C54.8132 47.4662 54.775 47.4216 54.7492 47.4216C54.7235 47.4216 54.7167 47.3622 54.7342 47.2897C54.7602 47.1817 54.7518 47.1711 54.6877 47.2311C54.5753 47.3363 54.3739 47.3214 54.2199 47.1967C54.0553 47.0635 54.1121 46.9528 54.3451 46.9528C54.4459 46.9528 54.5335 46.9158 54.553 46.8649C54.6004 46.7416 54.8063 46.7562 55.0137 46.8977C55.1104 46.9637 55.3664 47.1083 55.5827 47.2192C55.799 47.3301 56.0071 47.4791 56.0452 47.5503C56.1827 47.8071 56.2735 48.2854 56.3325 49.0622C56.4186 50.1981 56.5 50.3459 57.3867 50.9783C57.7573 51.2426 58.33 51.7238 58.6593 52.0476C58.9886 52.3715 59.2858 52.6364 59.3197 52.6364C59.3535 52.6364 59.489 52.7044 59.6207 52.7876C60.0621 53.0663 60.2775 53.0451 60.7467 52.6773C61.0249 52.4592 61.0138 52.3443 60.6595 51.7734C60.353 51.2794 60.0997 50.9562 59.6371 50.4685C59.3405 50.1557 59.2491 50.0091 59.1259 49.6481C58.6606 48.2857 58.7748 46.6769 59.494 44.4626C59.7474 43.6825 59.8774 42.8821 59.832 42.3815L59.8021 42.0526L60.0447 41.9023C60.531 41.6009 60.5514 41.5957 60.6589 41.7476C60.7122 41.8229 60.7565 41.9352 60.7572 41.9972C60.7579 42.0592 60.7908 42.1207 60.8304 42.1339C60.8718 42.1477 60.9024 42.1065 60.9024 42.0369C60.9024 41.9001 61.1117 41.8207 61.3083 41.8831C61.3762 41.9047 61.4297 41.8957 61.4297 41.8627C61.4297 41.8303 61.3119 41.7861 61.168 41.7645C60.9788 41.7361 60.896 41.6929 60.8692 41.6086C60.811 41.4253 60.9304 41.3627 61.3867 41.3369C61.8006 41.3135 61.8179 41.3061 62.1328 41.0197C62.31 40.8585 62.4761 40.6668 62.5019 40.5938C62.5505 40.4558 62.695 40.3925 62.9643 40.3911C63.051 40.3907 63.1383 40.364 63.1582 40.3317C63.1808 40.2952 63.0628 40.2731 62.8443 40.2731C62.5059 40.2731 62.4881 40.2809 62.3086 40.5075C62.1887 40.6589 62.0754 40.7419 61.9886 40.7419C61.9147 40.7419 61.8199 40.7832 61.778 40.8336C61.7084 40.9176 61.4171 41.0935 61.3478 41.0935C61.3317 41.0935 61.3463 41.0139 61.3802 40.9166C61.4587 40.6916 61.404 40.4738 61.2281 40.3108C61.152 40.2403 61.0787 40.1173 61.0652 40.0374L61.0407 39.8923L60.9956 40.0488C60.9616 40.1669 60.9821 40.2479 61.0791 40.3791C61.1775 40.5122 61.1981 40.5959 61.167 40.7373C61.1195 40.9536 60.9787 41.0534 60.5893 41.1469C60.4333 41.1844 60.2421 41.2566 60.1646 41.3074C60.026 41.3982 60.0242 41.397 60.0506 41.232C60.0654 41.1397 60.093 40.9409 60.112 40.7902C60.1344 40.6126 60.2073 40.4397 60.3193 40.2987C60.5167 40.0504 60.5548 39.8909 60.3691 40.0902C60.3014 40.1629 60.2377 40.2139 60.2274 40.2037C60.2172 40.1935 60.2462 40.0409 60.2919 39.8648C60.3376 39.6886 60.375 39.41 60.375 39.2456C60.375 38.3267 60.9812 37.5808 61.5526 37.7964C61.6465 37.8319 61.7098 37.8387 61.693 37.8116C61.6371 37.7211 61.2457 37.6234 61.0756 37.6575C60.852 37.7022 60.7002 37.5093 60.6339 37.0965L60.5841 36.7868L60.5644 37.0621C60.552 37.2354 60.5795 37.4048 60.6388 37.5195C60.7307 37.6972 60.7288 37.7063 60.56 37.8986C60.3938 38.0879 60.168 38.5983 60.0999 38.9386C60.0571 39.1527 59.9961 39.1441 59.9032 38.9108C59.8614 38.8061 59.7737 38.6429 59.7084 38.5482C59.6431 38.4535 59.5571 38.2558 59.5175 38.1087L59.4454 37.8415L59.4414 38.136C59.4393 38.2981 59.4733 38.4827 59.517 38.5462C59.6542 38.746 59.8634 39.3539 59.8894 39.6286C59.9104 39.8512 59.8849 39.9363 59.726 40.1751L59.5377 40.4579L59.4189 40.3391C59.3469 40.2672 59.2983 40.1384 59.2955 40.0125C59.2921 39.8541 59.2662 39.8047 59.1867 39.8046C58.997 39.8043 59.0159 39.9642 59.261 40.4339C59.445 40.7865 59.4938 40.9357 59.4641 41.0544C59.4072 41.2811 59.3433 41.2468 59.2685 40.9494C58.9727 39.775 57.8641 37.8165 57.027 36.9896C56.8376 36.8025 56.6064 36.4894 56.4854 36.2562C56.3692 36.0324 56.1674 35.6779 56.0369 35.4685C55.7507 35.0089 55.7074 34.8592 55.8072 34.6729C55.8781 34.5404 55.9119 34.5317 56.3116 34.5437C56.586 34.5518 56.7658 34.5308 56.8115 34.4851C56.8675 34.4291 56.837 34.4138 56.6689 34.4138C56.3854 34.4138 55.8991 34.3071 55.7847 34.2199C55.7048 34.1588 55.726 34.1071 55.9541 33.808C56.0975 33.6199 56.2149 33.4449 56.2149 33.419C56.2149 33.3932 56.1633 33.3098 56.1005 33.2337L55.986 33.0954L56.0162 33.3005C56.0417 33.4739 56.0099 33.5536 55.8103 33.8165C55.6335 34.0493 55.576 34.1776 55.5816 34.3265C55.5857 34.436 55.5611 34.5598 55.5267 34.6015C55.4925 34.6433 55.4552 34.7366 55.4441 34.8089C55.4242 34.9376 55.4125 34.9348 54.8965 34.6782C54.6065 34.534 54.3403 34.4155 54.305 34.4149C54.2081 34.4132 54.0464 34.2128 53.9899 34.0245L53.9398 33.8571L53.9347 34.0221C53.9266 34.2894 54.0285 34.4041 54.4447 34.5956L54.8379 34.7766L54.4459 34.8959L54.0537 35.0151L53.8059 34.886L53.5582 34.7568L53.6475 34.8929C53.6966 34.9678 53.8436 35.0669 53.9742 35.1132C54.1872 35.1887 54.2474 35.1865 54.5601 35.0919C54.8562 35.0022 54.9297 34.998 55.049 35.0637C55.1622 35.1261 55.1705 35.1451 55.0919 35.1616C54.9935 35.1823 54.8982 35.3432 54.9523 35.3973C54.9684 35.4134 55.0203 35.3944 55.0676 35.3551C55.115 35.3158 55.2137 35.2923 55.2869 35.3028C55.3933 35.3181 55.4517 35.4077 55.5772 35.7483C55.6636 35.9828 55.7665 36.2135 55.806 36.261C55.9098 36.386 55.8611 36.3734 55.2004 36.1038C54.0792 35.6464 53.6749 35.3359 53.12 34.5063C52.7569 33.9634 52.6398 33.5174 52.765 33.154C52.855 32.8927 52.9903 32.8485 53.0793 33.0515C53.1453 33.2018 53.2266 33.226 53.2266 33.0954C53.2266 33.0471 53.2529 33.0075 53.2852 33.0075C53.4046 33.0075 53.3388 32.9018 53.1973 32.8662C52.8633 32.7825 53.1188 32.3749 53.6234 32.1864C53.808 32.1175 54.0771 31.983 54.2215 31.8875C54.5682 31.6582 54.666 31.6391 55.1645 31.7035C55.5218 31.7496 55.57 31.7459 55.4792 31.6795C55.4203 31.6365 55.3442 31.6011 55.3101 31.6009C55.2759 31.6007 55.1458 31.5722 55.0208 31.5375L54.7937 31.4745L55.0501 31.2108C55.4975 30.7511 55.5624 30.722 56.3468 30.6306C56.8509 30.5718 57.1081 30.5148 57.2109 30.4388C57.4696 30.2478 57.7224 29.8612 57.7985 29.5403C57.8392 29.3687 57.9009 29.2099 57.9356 29.1874C57.9757 29.1615 57.9618 29.1325 57.8978 29.1079C57.8423 29.0866 57.7969 29.0391 57.7968 29.0022C57.7968 28.9654 57.743 28.8034 57.6773 28.6423C57.6115 28.4811 57.5735 28.4257 57.5927 28.5191L57.6277 28.6889L57.434 28.5296C57.3274 28.4419 57.1484 28.312 57.036 28.2409C56.9237 28.1697 56.7989 28.0463 56.7585 27.9667C56.7169 27.8844 56.685 27.8603 56.6845 27.9109C56.6831 28.0537 56.9476 28.4023 57.1752 28.5576C57.3918 28.7054 57.5625 29.0282 57.5625 29.2899C57.5625 29.469 57.4169 29.8302 57.2866 29.9741C57.1953 30.075 57.1864 30.0726 57.0853 29.9184L56.9794 29.757L57.0122 29.9614C57.0412 30.1422 57.0248 30.1775 56.8699 30.2683C56.6753 30.3822 56.4752 30.4017 56.4199 30.3122C56.3762 30.2414 56.0299 30.2381 55.7388 30.3058C55.5333 30.3535 55.5189 30.3457 55.2993 30.0678C55.1378 29.8634 55.0665 29.8081 55.0522 29.8763C55.0412 29.9291 55.1005 30.0435 55.1841 30.1308C55.2676 30.218 55.3359 30.3167 55.3359 30.3501C55.3359 30.3835 55.1712 30.5685 54.9697 30.7614C54.5739 31.1403 54.0278 31.4694 53.5262 31.6313C53.3527 31.6873 53.1045 31.8287 52.9748 31.9456L52.7391 32.1579L52.7731 31.825C52.824 31.3265 52.9584 31.093 53.2914 30.9243C53.6387 30.7483 53.6806 30.7474 53.8606 30.9128C53.997 31.0379 54.001 31.0385 53.9408 30.9226C53.906 30.8555 53.8368 30.7668 53.7871 30.7255C53.5262 30.5091 54.0411 30.4815 54.3556 30.6952C54.6586 30.9011 54.6316 30.7649 54.3252 30.5418C54.1217 30.3936 54.036 30.3658 53.8565 30.3894C53.672 30.4136 53.6367 30.401 53.6367 30.3109C53.6367 30.2518 53.7356 30.1213 53.8565 30.0208C53.9775 29.9202 54.0236 29.857 53.959 29.8803C53.6923 29.9765 53.5741 30.1007 53.5111 30.3508C53.4753 30.4928 53.3967 30.6355 53.3363 30.6677C53.2389 30.7199 53.2266 30.7037 53.2266 30.5231C53.2266 30.4113 53.2529 30.2507 53.285 30.1662C53.3171 30.0817 53.3196 30.0273 53.2905 30.0452C53.2614 30.0632 53.1951 30.2025 53.1432 30.3547C53.0556 30.6118 52.6838 31.0739 52.5644 31.0739C52.535 31.0739 52.5292 30.9249 52.5512 30.7353C52.5857 30.4382 52.5757 30.3832 52.4691 30.2868C52.3348 30.1652 52.3116 30.1975 52.4148 30.3628C52.4844 30.4741 52.4412 30.781 52.3559 30.781C52.3295 30.781 52.2785 30.7164 52.2425 30.6376C52.2066 30.5587 52.1099 30.4501 52.0277 30.3962C51.9019 30.3138 51.8508 30.3096 51.7047 30.3702C51.6093 30.4096 51.4974 30.4841 51.456 30.5354C51.3928 30.6141 51.4038 30.6131 51.5258 30.5291C51.7908 30.3467 52.1678 30.4617 52.1738 30.727C52.1748 30.7727 52.2154 30.8629 52.2641 30.9273C52.329 31.0132 52.3429 31.1221 52.3163 31.3374C52.2963 31.4987 52.2704 31.947 52.2587 32.3337C52.2469 32.7204 52.2159 33.1686 52.1899 33.3298L52.1426 33.6227L51.8698 33.3714C51.7198 33.2332 51.5517 33.0243 51.4961 32.9073C51.3998 32.7043 51.4001 32.691 51.5017 32.6167C51.5604 32.5738 51.6626 32.5386 51.729 32.5385C51.8397 32.5382 51.8365 32.5273 51.6913 32.4066C51.5354 32.2771 51.5343 32.2716 51.6219 32.0407C51.6708 31.9118 51.7269 31.7536 51.7464 31.6892C51.8112 31.4758 51.5919 31.7106 51.4325 32.0251C51.3532 32.1818 51.2452 32.3264 51.1925 32.3466C51.0438 32.4037 50.8083 32.0726 50.6534 31.5888C50.4824 31.0545 50.3453 30.7816 50.1178 30.5224L49.9393 30.3192L50.0595 30.0837C50.2151 29.7786 50.211 29.7007 50.0349 29.6205C49.8491 29.5358 49.7831 29.2847 49.8942 29.0858C49.9637 28.9615 50.0343 28.9293 50.2988 28.9009L50.6191 28.8665L50.3148 28.8569C50.0721 28.8493 49.9784 28.875 49.8522 28.9835C49.7132 29.103 49.6991 29.1465 49.7356 29.3414C49.7585 29.4634 49.8401 29.6215 49.9169 29.6927L50.0566 29.8221L49.9432 30.0086C49.8809 30.1111 49.8144 30.195 49.7956 30.195C49.7767 30.195 49.6379 30.1109 49.4871 30.008C48.7834 29.5283 48.41 28.8547 48.5473 28.3129C48.5863 28.1592 48.5953 27.9945 48.5682 27.932C48.5295 27.8429 48.5095 27.8693 48.4628 28.071C48.4311 28.2079 48.3694 28.3233 48.3257 28.3273C48.2819 28.3314 48.2153 28.3379 48.1777 28.342C48.0434 28.3564 48.0647 28.4922 48.2069 28.5278C48.3179 28.5557 48.3667 28.6231 48.4151 28.8154C48.4499 28.9536 48.4949 29.1099 48.5153 29.1628C48.5424 29.2334 48.5037 29.276 48.3699 29.3226C48.1334 29.405 48.1996 29.5136 48.4569 29.4654C48.6434 29.4304 48.6639 29.4438 48.8286 29.7092C48.9244 29.8636 49.1363 30.1038 49.2993 30.243C49.4623 30.3822 49.5832 30.5163 49.5679 30.5411C49.5024 30.647 49.4343 31.0739 49.4828 31.0739C49.5116 31.0739 49.5352 31.0467 49.5352 31.0134C49.5352 30.9802 49.575 30.8577 49.6236 30.7412C49.7115 30.5309 49.7129 30.5302 49.8349 30.6406C50.0034 30.793 50.1689 31.1324 50.2149 31.42L50.2532 31.6597L49.7053 31.9201C49.1835 32.168 49.0201 32.2101 49.1729 32.0573C49.2902 31.9399 49.2512 31.7646 49.0265 31.4006C48.8598 31.1305 48.8099 30.9873 48.8068 30.7696C48.8046 30.6148 48.783 30.488 48.7588 30.488C48.7346 30.488 48.7149 30.6334 48.7149 30.8111C48.7149 31.0619 48.7542 31.2041 48.8906 31.4458C49.1067 31.8285 49.1083 31.895 48.9065 32.0967C48.6577 32.3455 48.4886 32.4077 47.8744 32.4762C47.5405 32.5134 47.1588 32.5987 46.9546 32.6817C46.7626 32.7597 46.6055 32.8026 46.6055 32.7769C46.6055 32.6751 46.8529 32.4254 47.1304 32.2473C47.3521 32.1051 47.4373 32.0082 47.4815 31.8483C47.5536 31.5871 47.5212 31.5392 47.4165 31.7519C47.3732 31.8397 47.1797 32.0214 46.9863 32.1556C46.7568 32.315 46.5839 32.4922 46.4883 32.6661C46.1951 33.1992 46.014 33.2976 46.2103 32.8171C46.3051 32.5849 46.4814 32.3658 46.9291 31.9235C47.2553 31.6013 47.5952 31.2127 47.6842 31.0601C48.011 30.4999 48.0844 29.8821 47.9238 29.0429C47.8755 28.7903 47.8359 28.49 47.8359 28.3754C47.8359 28.1333 48.0647 27.7475 48.3899 27.4411L48.6076 27.236L48.567 26.4357C48.5182 25.4728 48.5563 25.3241 48.9451 24.9604C49.5459 24.3984 50.3136 24.4935 50.6414 25.1706C50.8968 25.6984 50.7665 26.3033 50.3414 26.5625L50.1504 26.679L50.3486 26.6792C50.6316 26.6795 51.0386 26.2689 51.0931 25.9279L51.1321 25.6836L51.2272 25.8492C51.2795 25.9403 51.3486 26.0561 51.3809 26.1066C51.4131 26.1571 51.6056 26.2955 51.8088 26.4143C52.1188 26.5954 52.2131 26.6241 52.3959 26.5933C52.7858 26.5274 52.8179 26.4469 52.4548 26.4459C52.1704 26.4451 52.0858 26.4172 51.8688 26.2526C51.7293 26.1468 51.5361 25.9217 51.4395 25.7523C51.3428 25.583 51.1674 25.2806 51.0498 25.0805C50.9322 24.8803 50.8415 24.7105 50.8482 24.7033C50.855 24.6959 51.083 24.7618 51.355 24.8497C51.8818 25.0199 52.017 25.1632 51.7514 25.2697L51.6152 25.3243L51.7647 25.328C51.8468 25.33 51.9397 25.3061 51.9711 25.2747C52.0082 25.2376 52.1172 25.2765 52.2816 25.3853C52.421 25.4776 52.6869 25.583 52.8725 25.6195C53.156 25.6753 53.2493 25.7279 53.4558 25.9483C53.7452 26.2569 53.8911 26.2763 54.5449 26.0929C54.9497 25.9793 54.9513 25.9781 54.6621 26.0031C54.501 26.017 54.2593 26.0462 54.125 26.068C53.8872 26.1066 53.8734 26.0995 53.5873 25.7929C53.291 25.4753 53.0387 25.3124 52.7432 25.2476C52.5223 25.1992 52.5412 25.116 52.7975 25.0089C52.9696 24.937 53.0224 24.9339 53.0603 24.9935C53.0965 25.0506 53.1082 25.0475 53.1103 24.9802C53.1118 24.9318 53.1792 24.8442 53.2599 24.7853L53.4068 24.6784L53.3692 24.8439C53.3382 24.981 53.3667 24.9592 53.5352 24.7165C53.6472 24.5554 53.8856 24.2851 54.0651 24.1159C54.4803 23.7245 54.6217 23.7066 55.2748 23.9623C55.4828 24.0438 55.8908 24.1397 56.1813 24.1755C56.6191 24.2294 56.7325 24.2652 56.8431 24.3845C56.9986 24.5523 57.0214 24.4843 56.8782 24.2799C56.7813 24.1415 56.7843 24.1353 57.0874 23.8567C57.2565 23.7012 57.3846 23.5739 57.3721 23.5739C57.3595 23.5739 57.2061 23.6811 57.0311 23.8122C56.7728 24.0056 56.6798 24.0443 56.5371 24.0176C56.4404 23.9995 56.1887 23.9596 55.9777 23.9289C55.7305 23.8929 55.432 23.7902 55.1384 23.64C54.7132 23.4226 54.6912 23.4024 54.8113 23.3381C54.9928 23.2409 55.2851 23.2526 55.5179 23.3663L55.7168 23.4634L55.5208 23.2801C55.3349 23.1063 55.3304 23.0927 55.4329 23.015C55.4924 22.97 55.5096 22.9323 55.4712 22.9313C55.4329 22.9302 55.3873 22.9522 55.3701 22.9801C55.3529 23.008 55.1825 23.0615 54.9915 23.0991C54.8004 23.1367 54.612 23.2062 54.5727 23.2535C54.4515 23.3995 54.3547 23.3494 54.314 23.1198C54.2525 22.7735 54.2202 22.695 54.1386 22.695C54.0807 22.695 54.0694 22.792 54.0915 23.0997L54.1204 23.5044L53.8419 23.8021C53.4864 24.1821 53.0497 24.3984 52.5579 24.4379C52.2445 24.463 52.0903 24.4383 51.6348 24.2898C51.334 24.1917 50.9824 24.0925 50.8535 24.0693C50.5128 24.0082 50.4839 23.9719 50.7103 23.8902C51.0905 23.7527 51.5274 23.8167 51.5274 24.0097C51.5274 24.0537 51.6104 24.1187 51.7119 24.1541C51.973 24.2452 51.9786 24.2384 51.7985 24.0505L51.6375 23.8824L51.8806 23.7852C52.1129 23.6922 52.1319 23.693 52.3126 23.8047C52.4165 23.8689 52.5373 23.9883 52.581 24.07C52.6247 24.1517 52.7021 24.2176 52.7531 24.2166C52.8309 24.215 52.8287 24.2018 52.7387 24.1336C52.6798 24.089 52.6259 24.0174 52.6187 23.9744C52.6115 23.9313 52.5049 23.7968 52.3817 23.6752C52.1875 23.4836 52.1626 23.4297 52.1948 23.2689C52.2376 23.055 52.3848 22.8708 52.513 22.8708C52.5617 22.8708 52.583 22.8522 52.5602 22.8294C52.5375 22.8066 52.4299 22.8359 52.3212 22.8945C52.1811 22.9699 52.088 23.0863 52.0016 23.2943C51.8887 23.5661 51.8677 23.5851 51.7181 23.5512C51.6293 23.5312 51.4183 23.498 51.249 23.4775C51.0798 23.4571 50.9414 23.4125 50.9414 23.3785C50.9414 23.3444 50.8558 23.3979 50.751 23.4973C50.5347 23.7025 50.3076 23.8269 49.9898 23.9141C49.786 23.9701 49.7747 23.9667 49.8287 23.8659C49.8606 23.8062 49.8867 23.6221 49.8867 23.4567C49.8867 23.0576 49.9545 22.948 50.2303 22.9014C50.3806 22.8761 50.5157 22.7994 50.6266 22.6766C50.7754 22.512 50.7772 22.5059 50.6422 22.6243C50.5145 22.7363 50.062 22.8776 50.0627 22.8052C50.0629 22.7929 50.1292 22.6525 50.21 22.4931C50.3306 22.2555 50.3551 22.1288 50.3464 21.7899C50.3401 21.5476 50.3664 21.3191 50.41 21.2377C50.4509 21.1613 50.4573 21.1156 50.4242 21.136C50.3361 21.1904 50.2533 21.5 50.211 21.9333C50.1826 22.2245 50.1251 22.3939 49.967 22.6529C49.8304 22.8766 49.7438 23.1076 49.7118 23.3332C49.6853 23.521 49.6281 23.7331 49.5847 23.8043C49.5414 23.8756 49.2911 24.0369 49.0286 24.1628C48.4872 24.4225 47.9211 24.9015 47.8676 25.1453C47.8481 25.2339 47.8726 25.4983 47.922 25.733C48.0286 26.24 48.037 26.6389 47.9447 26.8151C47.9078 26.8855 47.7866 27.0448 47.6753 27.1692C47.3534 27.5291 47.2886 27.745 47.3341 28.3053C47.3596 28.6197 47.3525 28.7888 47.3137 28.7888C47.2302 28.7888 47.1604 28.6358 47.0733 28.2614C47.0077 27.9796 46.9456 27.8877 46.5788 27.529C46.348 27.3034 46.0883 27.0134 46.0015 26.8845C45.9147 26.7556 45.6832 26.4787 45.487 26.2692C45.1393 25.898 45.1367 25.8966 45.3867 26.2106C45.5277 26.3879 45.6772 26.5778 45.719 26.6327C45.7608 26.6876 45.8707 26.9354 45.9632 27.1835C46.1587 27.7075 46.1334 27.8169 45.8023 27.879L45.5819 27.9203L45.7275 28.0009C45.9408 28.119 46.0556 28.1035 46.1848 27.9392C46.3318 27.7524 46.3464 27.7546 46.424 27.9772C46.5348 28.2952 46.5022 28.4659 46.2854 28.7026C46.1738 28.8244 46.0962 28.9464 46.1131 28.9736C46.1299 29.0009 46.2673 29.0235 46.4185 29.024C46.8761 29.0254 46.9754 29.1096 47.2469 29.7263C47.3047 29.8576 47.3087 29.8485 47.2854 29.6384C47.2638 29.4437 47.2698 29.4257 47.3206 29.532C47.4254 29.7515 47.3227 30.1647 47.0855 30.4781C46.9665 30.6353 46.606 30.9938 46.2844 31.2748C45.9627 31.5559 45.6038 31.9222 45.4867 32.0891C45.2687 32.3996 45.0234 32.98 45.0234 33.1855C45.0234 33.3781 44.9472 33.3118 44.6719 32.8801C44.1685 32.0907 43.7002 31.7415 42.2685 31.0878C41.7064 30.8311 41.3879 30.579 41.147 30.1998C40.9606 29.9065 40.9701 29.8793 41.3555 29.5993C41.5419 29.4638 41.6444 29.4334 41.9121 29.4336C42.0926 29.4338 42.3655 29.389 42.5185 29.3342L42.7968 29.2344L42.9957 29.4272C43.1051 29.5332 43.2099 29.6966 43.2287 29.7903C43.2707 30.0008 43.3828 30.0153 43.3828 29.8103C43.3828 29.6251 43.2976 29.4536 43.1002 29.242C42.9689 29.1012 42.9602 29.0695 43.0342 28.9987C43.1882 28.8512 43.583 28.6716 43.7628 28.6675C43.86 28.6652 43.9922 28.6385 44.0566 28.6081C44.1391 28.5693 44.0608 28.5595 43.7919 28.5751C43.417 28.5969 43.3538 28.6214 42.6012 29.0377C42.3532 29.1749 41.8119 29.1788 41.7601 29.0438C41.7397 28.9907 41.7704 28.757 41.8283 28.5244C41.8862 28.2919 41.9199 28.0123 41.9032 27.9032C41.8829 27.7715 41.903 27.6703 41.963 27.6022C42.04 27.5148 42.0407 27.4997 41.9681 27.4997C41.9212 27.4997 41.8494 27.5327 41.8084 27.5729C41.7488 27.6317 41.7054 27.6131 41.5889 27.4785C41.5091 27.3864 41.4274 27.2294 41.4074 27.1297C41.3762 26.9735 41.3651 26.9643 41.3265 27.063C41.2496 27.2595 41.2675 27.3171 41.4785 27.5506C41.6383 27.7273 41.6836 27.8276 41.6836 28.0036C41.6836 28.3575 41.415 28.9896 41.1752 29.2001C41.0613 29.3001 40.9556 29.3694 40.9402 29.354C40.8928 29.3066 40.9925 28.2614 41.0445 28.2614C41.0714 28.2614 41.1635 28.3603 41.249 28.4811C41.3346 28.602 41.3919 28.6613 41.3763 28.613C41.2674 28.2736 41.2634 28.2483 41.3258 28.2868C41.4666 28.3739 41.3805 28.2174 41.2237 28.1015C41.0752 27.9917 41.0525 27.9307 41.0175 27.5485C40.9925 27.2753 40.9245 27.0083 40.8307 26.8154C40.6555 26.4554 40.1321 25.9513 39.6509 25.6791C39.2176 25.434 38.6939 25.0358 38.4969 24.8016C38.3063 24.5751 38.2996 24.3344 38.4696 23.8068C38.5434 23.5776 38.5802 23.3558 38.5586 23.2699C38.4705 22.9187 37.8718 22.5451 37.5154 22.6189L37.3184 22.6597L37.582 22.7052C38.0251 22.7815 38.3462 23.2942 38.1796 23.6596C38.1253 23.7789 38.0873 23.7914 37.8577 23.7655C37.6874 23.7464 37.582 23.761 37.553 23.8078C37.5216 23.8587 37.5424 23.8688 37.6251 23.8425C37.8155 23.7821 37.9887 23.9751 37.9511 24.2056C37.9249 24.3662 37.9004 24.3916 37.8015 24.3602C37.6984 24.3275 37.6881 24.342 37.721 24.473C37.7501 24.5892 37.7186 24.6692 37.5825 24.8242C37.3989 25.0333 37.3593 25.2516 37.468 25.4547C37.5224 25.5566 37.4982 25.5839 37.2586 25.6899C36.9434 25.8293 36.8502 25.8103 36.7964 25.5957C36.7655 25.4728 36.7876 25.4161 36.9016 25.3265C37.0232 25.2308 37.0383 25.186 36.9971 25.0422C36.9702 24.9484 36.918 24.8235 36.8811 24.7648C36.8237 24.6734 36.8179 24.6833 36.841 24.8337C36.8558 24.9304 36.8867 25.0688 36.9096 25.1413C36.9468 25.2591 36.9314 25.2731 36.7647 25.2731C36.6622 25.2731 36.5272 25.2458 36.4649 25.2125C36.4025 25.1791 36.3516 25.1749 36.3516 25.2031C36.3516 25.2312 36.4175 25.2844 36.4981 25.3211C36.6224 25.3777 36.6445 25.4273 36.6445 25.6487V25.9095L36.469 25.8591C36.2665 25.8011 36.0306 25.6418 35.832 25.4289C35.7243 25.3135 35.699 25.2325 35.7185 25.0657C35.7404 24.8771 35.7342 24.8638 35.6667 24.9561C35.6244 25.0139 35.5899 25.1516 35.5899 25.2622C35.5899 25.4338 35.6472 25.5182 35.9804 25.837C36.2804 26.1239 36.413 26.2118 36.5517 26.2155C36.6857 26.2191 36.6425 26.2422 36.3846 26.3045C35.9377 26.4126 35.8838 26.472 36.2783 26.4216C36.4475 26.4001 36.5859 26.3993 36.5859 26.4199C36.5859 26.4405 36.52 26.5357 36.4395 26.6315C36.278 26.8234 36.2551 27.0591 36.3554 27.4944C36.3963 27.6718 36.3959 27.7718 36.354 27.8137C36.2422 27.9255 36.2912 27.9883 36.4078 27.8827C36.5091 27.7911 36.5187 27.7259 36.4897 27.3317L36.4567 26.8845L36.6825 26.673C37.0237 26.3533 37.9014 26.0172 38.4724 25.9876C38.8845 25.9662 38.9594 25.9808 39.3411 26.1567C39.8049 26.3704 40.1662 26.7235 40.2828 27.0768C40.3328 27.2283 40.3393 27.4973 40.3055 28.0239C40.2796 28.4285 40.2522 29.0458 40.2447 29.3957L40.231 30.0321L39.9492 30.3182C39.606 30.6666 39.4708 30.6976 38.7827 30.5861C38.3558 30.5169 38.1179 30.4327 37.5285 30.142C37.1285 29.9447 36.7659 29.754 36.7229 29.7183C36.6655 29.6707 36.6445 29.6708 36.6445 29.7187C36.6445 29.8102 37.0759 30.1177 37.4941 30.3244L37.8457 30.4982L37.2364 30.4605C36.6714 30.4256 36.5964 30.406 36.206 30.1917C35.6995 29.9138 35.5461 29.9054 34.8929 30.1208C34.351 30.2994 34.3781 30.3713 34.9332 30.2275C35.4458 30.0946 35.6905 30.1122 36.0894 30.3104C36.2819 30.406 36.5054 30.4872 36.5859 30.4908C36.7032 30.496 36.6824 30.5149 36.4818 30.5859C36.3236 30.6419 36.1529 30.7682 36.0191 30.9283C35.9025 31.0678 35.7516 31.2009 35.6838 31.2241C35.5737 31.2617 35.5792 31.269 35.7345 31.2924C35.8794 31.3142 35.937 31.283 36.0791 31.1059C36.4004 30.7054 36.6648 30.6475 37.7263 30.7452L38.2515 30.7935L38.0193 30.9059C37.7708 31.0263 37.5845 31.2239 37.5849 31.3669C37.585 31.4182 37.6249 31.3907 37.6807 31.3009C37.8614 31.0098 38.0345 30.9565 38.7922 30.959C39.4626 30.9612 39.4793 30.9643 39.2813 31.0494C39.0846 31.1338 38.8751 31.3384 38.8724 31.4487C38.8717 31.4776 38.9344 31.4329 39.0117 31.3495C39.0909 31.2641 39.295 31.1563 39.4792 31.1027C39.7434 31.0259 39.8566 30.95 40.0692 30.707C40.214 30.5416 40.3416 30.418 40.353 30.4324C40.3644 30.4469 40.4441 30.5816 40.53 30.7318C40.772 31.1545 41.2652 31.5503 42.0554 31.9558C42.8981 32.3883 43.418 32.7424 43.6428 33.0372C43.7696 33.2034 44.2617 34.0877 44.2617 34.1494C44.2617 34.1985 42.9887 33.9307 42.8782 33.8582C42.6894 33.7345 42.6945 33.4787 42.8905 33.2458L43.0427 33.0649L42.9052 32.9534C42.7511 32.8285 42.6832 32.8412 42.7937 32.9743C42.8525 33.0452 42.8394 33.0874 42.7226 33.2043C42.548 33.3789 42.4789 33.773 42.5959 33.9273C42.7177 34.088 42.6993 34.1163 42.4464 34.1567C42.3181 34.1772 42.1797 34.2352 42.1388 34.2856C42.0762 34.3627 42.0799 34.3713 42.1628 34.3403C42.2169 34.32 42.3597 34.285 42.4799 34.2624C42.676 34.2256 42.6943 34.2325 42.6573 34.3289C42.6183 34.4305 42.6229 34.4303 42.7395 34.3248C42.8593 34.2164 42.8735 34.2161 43.2254 34.3166C43.4248 34.3734 43.7725 34.468 43.9981 34.5267L44.4082 34.6335L44.1445 34.668C43.3587 34.7708 42.0457 34.8327 41.4199 34.7965C39.5074 34.6858 38.2115 34.267 36.9961 33.367C36.7544 33.1881 36.4187 32.9582 36.25 32.8561L35.9434 32.6706L36.1917 32.6011C36.447 32.5296 36.6506 32.2844 36.506 32.2227C36.4694 32.2071 36.7232 32.1955 37.07 32.197C37.5713 32.1992 37.7322 32.1791 37.8546 32.0989C37.964 32.0272 38.0825 32.0064 38.264 32.0268C38.4627 32.0492 38.5195 32.0365 38.5195 31.9696C38.5195 31.9018 38.4417 31.8861 38.1533 31.8956C37.683 31.9112 37.6726 31.9091 37.7501 31.8156C37.8281 31.7216 37.7791 31.6553 37.6642 31.6995C37.619 31.7168 37.582 31.81 37.582 31.9068C37.582 32.051 37.5636 32.0751 37.4795 32.041C37.4231 32.0182 37.1657 31.9822 36.9075 31.961C36.4841 31.9263 36.4018 31.8983 36.067 31.6748C35.546 31.3269 35.1737 31.2489 34.6569 31.3797C34.6209 31.3887 34.4632 31.0798 34.3065 30.6931C34.1498 30.3063 33.9663 29.8713 33.8988 29.7263C33.8139 29.544 33.7756 29.3434 33.7747 29.0764C33.774 28.864 33.7444 28.4743 33.7089 28.2106C33.6734 27.9468 33.6602 27.6676 33.6796 27.5902C33.7128 27.4582 33.7341 27.4515 34.0291 27.482C34.2318 27.5029 34.3578 27.491 34.3841 27.4485C34.4109 27.4052 34.3647 27.3825 34.2498 27.3825C33.8992 27.3825 33.8341 27.0997 34.0937 26.7035C34.1431 26.6281 34.1836 26.5299 34.1836 26.4854C34.1836 26.3946 33.9646 26.1757 33.9192 26.2211C33.9031 26.2372 33.9423 26.2978 34.0063 26.3558C34.1222 26.4607 34.1221 26.4623 33.98 26.7314C33.9015 26.88 33.8222 27.0676 33.8037 27.1481C33.7853 27.2287 33.694 27.3542 33.6009 27.4269L33.4317 27.5591L33.2615 27.3889C33.1129 27.2404 33.0322 27.2133 32.6267 27.1764C32.3712 27.1531 32.1249 27.1043 32.0793 27.0679C32.0093 27.0119 32.0073 27.0219 32.066 27.1321C32.1622 27.3127 32.3156 27.3825 32.6158 27.3825C32.7568 27.3825 32.9231 27.4198 32.9855 27.4654C33.0955 27.5459 33.0942 27.552 32.9381 27.6747C32.8497 27.7443 32.7774 27.8309 32.7774 27.8673C32.7774 27.9139 32.798 27.9126 32.8477 27.863C32.945 27.7657 33.1584 27.775 33.2459 27.8803C33.3263 27.9772 33.2759 28.9392 33.1876 28.9938C33.1134 29.0396 32.482 28.3892 32.2274 28.0049C31.9174 27.5366 31.8399 27.2397 31.8399 26.5203V25.9111L32.1051 25.7937C32.4079 25.6599 32.5041 25.6772 32.8112 25.9213C33.0992 26.1502 33.2263 26.1765 33.6368 26.0923C34.1844 25.98 34.1992 25.9187 33.6695 25.9579L33.1848 25.9938L32.8645 25.7733C32.5322 25.5444 32.4918 25.5395 31.9717 25.6644C31.8679 25.6893 31.8399 25.6707 31.8399 25.577C31.8399 25.438 32.5369 24.9216 32.7245 24.9216C32.789 24.9216 32.9225 24.9633 33.0211 25.0143C33.1284 25.0698 33.1832 25.0791 33.1574 25.0375C33.1338 24.9993 33.0056 24.9185 32.8727 24.8582C32.667 24.7648 32.6528 24.7479 32.7774 24.7452C32.9017 24.7426 32.9105 24.7313 32.8359 24.6707C32.7759 24.6219 32.7539 24.5179 32.7665 24.3422C32.7863 24.0652 32.7022 23.7989 32.5569 23.6784C32.4752 23.6107 32.4751 23.6206 32.555 23.779C32.6038 23.8757 32.6606 24.0252 32.6812 24.1113C32.7476 24.3885 32.5935 24.5872 32.5118 24.3297C32.4875 24.2531 32.452 24.2274 32.4178 24.2616C32.3836 24.2958 32.3859 24.3773 32.424 24.4775C32.4981 24.6723 32.4793 24.7062 32.1768 24.9254C31.9009 25.1253 31.8399 25.1371 31.8399 24.9908C31.8399 24.7375 31.6422 24.2588 31.3607 23.8304C31.1939 23.5765 31.0219 23.2766 30.9785 23.1638L30.8996 22.9587L30.9169 23.2047C30.9331 23.4348 30.9276 23.4447 30.8326 23.3587C30.6758 23.2168 30.5927 22.8935 30.637 22.5978L30.6766 22.3337L30.9615 22.3728C31.1183 22.3944 31.2858 22.39 31.3339 22.3631C31.3917 22.3307 31.3333 22.3122 31.161 22.3085C31.018 22.3054 30.8845 22.2866 30.8645 22.2665C30.8445 22.2465 30.9101 22.1369 31.0102 22.0229C31.1121 21.9068 31.2342 21.6674 31.2877 21.479C31.3402 21.2937 31.4206 21.083 31.4664 21.0104C31.556 20.8684 31.541 20.8323 31.442 20.9518ZM30.0618 23.9524C29.7824 24.052 29.5643 24.2483 29.4592 24.4949C29.3506 24.75 29.3515 24.7513 29.5765 24.6573C29.8349 24.5493 29.9001 24.6171 29.6557 24.7396C29.4802 24.8275 29.468 24.8528 29.4831 25.0976C29.5156 25.6232 30.0673 26.4525 30.4389 26.5341C30.534 26.555 30.7127 26.5551 30.8358 26.5343L31.0598 26.4964L31.1652 25.769C31.2779 24.9905 31.2633 24.6252 31.1034 24.2254C30.9591 23.8649 30.5834 23.7664 30.0618 23.9524ZM18.5204 24.3738C18.4483 24.4459 18.4787 24.57 18.5684 24.57C18.666 24.57 18.6782 24.5195 18.6074 24.408C18.5816 24.3672 18.5424 24.3519 18.5204 24.3738ZM37.7083 24.835C37.5523 24.9663 37.5234 25.031 37.5234 25.2491C37.5234 25.3912 37.5432 25.5072 37.5674 25.5069C37.5916 25.5065 37.7432 25.466 37.9043 25.4168C38.0889 25.3605 38.284 25.3415 38.4316 25.3655C38.5606 25.3866 38.6522 25.3941 38.6353 25.3824C38.6184 25.3706 38.4445 25.2077 38.2488 25.0202L37.8931 24.6795L37.7083 24.835ZM54.0775 24.9788C53.9306 25.1292 53.7654 25.2316 53.6115 25.2676C53.3834 25.3211 53.3889 25.323 53.7391 25.313C53.9546 25.3068 54.1052 25.2765 54.1053 25.2394C54.1056 25.1278 54.3882 24.9051 54.4833 24.9416C54.5915 24.9831 54.6026 24.9148 54.5039 24.8161C54.3915 24.7037 54.3193 24.7312 54.0775 24.9788ZM20.2337 25.1134C19.7934 25.4101 19.6344 25.86 19.7926 26.3618C19.9068 26.724 20.1614 26.9724 20.4186 26.9724C20.6639 26.9724 20.6306 27.0628 20.3791 27.0798C19.9584 27.1081 19.557 26.7417 19.4593 26.2399C19.4384 26.1331 19.4311 26.1357 19.376 26.2692C19.3312 26.3779 19.3436 26.556 19.4242 26.9594C19.558 27.6287 19.592 27.6938 19.9041 27.8767C20.1666 28.0305 20.8771 28.1601 20.8034 28.0407C20.7819 28.0059 20.6855 27.9602 20.5893 27.939C20.24 27.8623 20.1343 27.4988 20.3922 27.2609L20.5461 27.1188L20.4508 27.3063C20.3984 27.4095 20.3555 27.5322 20.3555 27.579C20.3555 27.7205 21.9575 28.4815 22.4013 28.5509C22.6692 28.5927 22.8213 28.6518 22.9307 28.7567C23.0721 28.8922 23.1145 28.9011 23.4631 28.8694C23.6714 28.8504 23.9807 28.8605 24.1504 28.8919L24.459 28.9489L24.3132 28.7578C24.1457 28.5381 24.051 28.1845 24.0469 27.7634C24.0432 27.3818 23.9613 27.0375 23.8471 26.9233C23.7969 26.8731 23.3699 26.738 22.8982 26.6231L22.0404 26.4142L21.9428 26.0266C21.7594 25.2982 21.4064 24.9802 20.781 24.9802C20.5144 24.9802 20.3845 25.0118 20.2337 25.1134ZM16.2776 25.2223C16.1676 25.3456 16.1677 25.3468 16.2837 25.3108C16.3718 25.2834 16.4422 25.3255 16.5645 25.4788C16.7076 25.6581 16.7602 25.6833 16.9923 25.6833C17.1538 25.6833 17.2428 25.6604 17.2207 25.6247C17.2008 25.5925 17.1184 25.5661 17.0376 25.5661C16.8274 25.5661 16.6787 25.4713 16.5753 25.2714C16.4682 25.0643 16.4252 25.0572 16.2776 25.2223ZM51.119 26.6104C51.1174 27.091 51.0989 27.1877 50.9649 27.4164C50.7848 27.7237 50.8948 27.7097 51.1381 27.3943C51.2982 27.1868 51.3039 27.1577 51.2715 26.7211C51.2196 26.0201 51.1211 25.9487 51.119 26.6104ZM33.2554 27.1481C33.2554 27.2287 33.2687 27.2617 33.2849 27.2214C33.3012 27.1811 33.3012 27.1152 33.2849 27.0749C33.2687 27.0346 33.2554 27.0676 33.2554 27.1481ZM46.2585 29.1209C46.256 29.1585 46.2387 29.2376 46.2202 29.2967C46.1881 29.3987 46.1898 29.3988 46.2536 29.2992C46.2906 29.2416 46.3078 29.1625 46.292 29.1235C46.2712 29.0722 46.2619 29.0715 46.2585 29.1209ZM55.6919 30.3887C55.5815 30.4272 55.4807 30.491 55.4678 30.5305C55.4403 30.6146 55.9548 30.4785 56.0593 30.374C56.1431 30.2902 55.9527 30.2978 55.6919 30.3887ZM51.3516 30.8077C51.3516 30.8223 51.4175 30.9315 51.4981 31.0502C51.5786 31.1689 51.6445 31.2887 51.6445 31.3165C51.6445 31.4094 51.3244 31.3677 51.1172 31.2478C50.9221 31.135 50.9249 31.141 51.1741 31.3701C51.3183 31.5026 51.4457 31.5825 51.4574 31.5475C51.469 31.5126 51.5291 31.4841 51.5908 31.4841C51.7532 31.4841 51.7345 31.272 51.5487 31.0038C51.4045 30.7958 51.3516 30.7431 51.3516 30.8077ZM50.1211 32.017C50.014 32.143 49.8621 32.22 49.5557 32.304C49.3253 32.3671 49.0688 32.4497 48.9857 32.4876C48.8399 32.554 48.8516 32.5636 49.3167 32.7597C49.947 33.0254 50.2426 33.1045 50.7152 33.1343L51.1042 33.1587L50.8261 32.7462C50.6732 32.5193 50.491 32.2216 50.4213 32.0847C50.3516 31.9477 50.2884 31.8377 50.2811 31.8403C50.2736 31.8428 50.2017 31.9224 50.1211 32.017ZM34.8905 32.126C35.0074 32.3349 35.081 32.3952 35.2969 32.4591C35.4419 32.5019 35.5672 32.5374 35.5752 32.5379C35.5832 32.5384 35.5307 32.4796 35.4585 32.4074L35.3272 32.2761L35.5024 32.2433C35.6603 32.2137 35.6506 32.2072 35.4048 32.1774C35.2546 32.1591 35.0454 32.0827 34.9398 32.0075L34.7478 31.8708L34.8905 32.126ZM15.4922 32.0656C15.4922 32.266 15.6436 32.5088 15.9116 32.7381C16.1565 32.9478 16.159 32.9485 16.2793 32.836C16.3459 32.7737 16.5543 32.6303 16.7425 32.5172L17.0846 32.3117L16.7718 32.1515C16.5287 32.0271 16.3514 31.9855 15.9756 31.9648C15.5101 31.9391 15.4922 31.9429 15.4922 32.0656ZM48.6634 33.015C48.7121 33.0914 48.8115 33.3028 48.8842 33.4848C49.04 33.8745 49.173 34.0064 49.5505 34.1454C49.7039 34.2019 49.8565 34.2986 49.8895 34.3603C49.9635 34.4987 49.9631 34.4986 49.6816 34.3552C49.5552 34.2907 49.3901 34.238 49.3148 34.238C49.2394 34.238 49.1017 34.1987 49.0088 34.1506C48.8462 34.0665 48.8292 34.0712 48.5628 34.2745C48.2823 34.4887 47.9531 34.6259 47.9531 34.5287C47.9531 34.4997 48.0982 34.3689 48.2754 34.238C48.6325 33.9741 48.6748 33.833 48.513 33.4456C48.3758 33.1173 48.1692 32.9489 47.9034 32.9489C47.5507 32.9489 46.958 33.1557 46.572 33.4135C45.9536 33.8264 45.9876 33.7487 46.1923 34.2797C46.3916 34.7964 46.5167 34.9362 47.0742 35.2651C47.9619 35.7888 48.5278 36.3148 49.6889 37.695C50.9808 39.2306 51.5865 39.7625 52.3001 39.9877C52.771 40.1363 53.9984 40.7428 54.4942 41.0719C54.6732 41.1908 54.9622 41.4183 55.1365 41.5776C55.5053 41.9146 56.2567 42.8973 56.6399 43.5438C56.9151 44.0081 57.4453 45.1933 57.4453 45.3441C57.4453 45.5966 57.5694 45.3439 57.7846 44.653C58.1713 43.4119 58.2134 43.2129 58.2469 42.4704C58.2837 41.6552 58.1596 40.9902 57.8615 40.4059C57.6662 40.023 57.4252 39.6827 57.5886 40.0204C57.6917 40.2337 57.6564 40.3903 57.505 40.3903C57.2917 40.3903 56.3906 40.009 56.3906 39.9188C56.3906 39.8964 56.2654 39.8615 56.1123 39.8411C55.9593 39.8209 55.6668 39.7252 55.4625 39.6286C55.2582 39.5319 55.0511 39.4528 55.0022 39.4528C54.9533 39.4528 54.8112 39.5337 54.6863 39.6326C54.5094 39.7727 54.393 39.8156 54.1597 39.8263C53.9009 39.8382 53.8744 39.8296 53.9648 39.7636C54.0223 39.7216 54.1187 39.6872 54.1791 39.6872C54.3513 39.6872 54.5162 39.5761 54.5756 39.42C54.6199 39.3033 54.6706 39.277 54.8513 39.277C54.973 39.277 55.2571 39.2243 55.4824 39.1599C55.9654 39.0218 56.4036 39.0123 56.8887 39.1294C57.082 39.1761 57.2584 39.2152 57.2805 39.2163C57.3503 39.22 56.7252 38.3312 56.4321 38.0101C56.2181 37.7756 55.9952 37.623 55.4946 37.3679C54.2752 36.7467 53.6216 36.3259 53.0801 35.8133L52.8457 35.5916L52.4186 35.8041C51.999 36.0128 51.9922 36.0198 52.0354 36.1966C52.1108 36.5054 52.0775 36.6893 51.902 36.9339C51.8087 37.064 51.6852 37.2554 51.6274 37.3594L51.5224 37.5485L51.5587 37.3727C51.5787 37.2761 51.6721 37.0804 51.7662 36.9379C51.9368 36.6799 51.9689 36.4736 51.8853 36.1716C51.8533 36.0558 51.7838 36.0097 51.5542 35.952C51.3944 35.9118 51.2285 35.8921 51.1855 35.9081C51.1407 35.9248 51.1181 35.906 51.1326 35.864C51.1501 35.813 51.2719 35.7961 51.533 35.8084C51.7956 35.8208 51.8824 35.8086 51.8223 35.7678C51.7525 35.7205 51.7668 35.698 51.8994 35.6476C51.989 35.6135 52.1236 35.5856 52.1985 35.5856C52.2734 35.5856 52.395 35.5368 52.4688 35.4771L52.6028 35.3685L52.484 35.1284C52.4037 34.9661 52.346 34.9076 52.3058 34.9478C52.1984 35.0552 52.0472 34.8364 52.0848 34.6277C52.1143 34.4633 52.0726 34.3901 51.704 33.9597C51.3073 33.4965 51.2796 33.4762 51.0424 33.4754C50.9063 33.475 50.7368 33.4591 50.6658 33.4401C50.546 33.4079 50.5386 33.4218 50.5638 33.6312C50.5891 33.8426 50.5868 33.8468 50.5272 33.6969C50.4791 33.5759 50.3945 33.5162 50.1813 33.4529C50.0262 33.4068 49.6921 33.278 49.4389 33.1668C49.1857 33.0555 48.8877 32.9446 48.7767 32.9203C48.5755 32.8761 48.5751 32.8764 48.6634 33.015ZM33.9346 33.7116C33.8649 33.7548 33.832 33.8493 33.832 34.0074C33.832 34.2056 33.86 34.2574 34.0225 34.3606C34.1426 34.4368 34.1666 34.4683 34.0875 34.4457C33.9902 34.418 33.9229 34.4597 33.7873 34.6316C33.4643 35.0411 33.3633 35.292 33.3633 35.6852C33.3633 35.8859 33.3062 36.2758 33.2363 36.5515L33.1093 37.0529L33.2763 37.2272L33.4432 37.4014L33.6091 37.2113L33.7751 37.0212L33.6759 37.2402C33.5606 37.4947 33.5842 37.5437 33.7855 37.4672C34.0007 37.3854 34.1247 37.238 34.1273 37.061C34.1295 36.9081 34.1318 36.9092 34.215 37.1008C34.2967 37.289 34.2941 37.3026 34.1541 37.4127C34.0737 37.4759 34.0078 37.5782 34.0078 37.64C34.0078 37.7214 33.9717 37.7484 33.876 37.7383C33.6805 37.7176 33.7319 37.9731 33.967 38.1907C34.07 38.286 34.1555 38.3783 34.1569 38.3957C34.1964 38.8686 34.424 39.1163 34.9124 39.2177C35.4667 39.3328 36.012 39.1739 36.6701 38.7056C37.025 38.4531 37.3872 38.2844 37.582 38.2809C37.7202 38.2784 37.7132 38.2635 37.4579 38.02C36.9324 37.5185 36.3072 37.618 36.2056 38.2194C36.1835 38.3499 36.1386 38.4567 36.1058 38.4567C36.073 38.4567 36.0621 38.415 36.0816 38.364C36.1012 38.3131 36.1172 38.191 36.1172 38.0926C36.1172 37.9636 36.1754 37.8591 36.3264 37.7166C36.4572 37.5932 36.5024 37.5192 36.4469 37.5192C36.3077 37.5192 36.0692 37.277 35.9708 37.0358C35.8528 36.7463 35.8961 36.7583 36.1145 37.0759C36.3131 37.3645 36.3624 37.3891 36.831 37.4336L37.1579 37.4646L37.137 37.1843L37.116 36.904L37.1795 37.1255C37.2208 37.2696 37.3176 37.4014 37.4565 37.5026C37.5738 37.5881 37.8083 37.7908 37.9775 37.9529C38.2865 38.249 38.3396 38.2653 38.2214 38.0281C38.1783 37.9416 38.2061 37.9572 38.3071 38.0759C38.3894 38.1726 38.4577 38.2672 38.4588 38.2863C38.46 38.3054 38.573 38.3541 38.71 38.3946C39.1685 38.5303 39.8334 38.9195 40.4145 39.3925C40.8202 39.7228 41.0787 39.8877 41.2891 39.9501C41.5899 40.0394 42.3536 40.0609 42.6162 39.9875L42.7579 39.9479L42.5869 39.8361C42.2377 39.6076 41.8102 39.1481 41.6963 38.8787C41.6322 38.7272 41.5619 38.4289 41.54 38.2159C41.5045 37.8699 41.4772 37.8066 41.2843 37.6221C41.1655 37.5085 40.9893 37.375 40.8926 37.3254C40.7376 37.246 40.7297 37.2302 40.8256 37.1928C40.8924 37.1667 41.0296 37.1966 41.1813 37.2703L41.4283 37.3903L41.3791 37.031C41.3521 36.8334 41.2964 36.6382 41.2555 36.5972C41.2143 36.5561 40.9169 36.4976 40.5915 36.4665C40.2673 36.4357 39.8728 36.3821 39.7149 36.3475C38.8973 36.1685 37.8646 35.6463 36.2344 34.5877C35.7026 34.2424 35.1587 33.9049 35.0255 33.8376C34.7411 33.694 34.0855 33.6182 33.9346 33.7116ZM41.5558 36.4928C41.5338 36.5158 41.526 36.565 41.5383 36.6021C41.5505 36.6392 41.5898 36.7834 41.6254 36.9225C41.7002 37.2145 41.7911 37.2169 41.8948 36.9298L41.9677 36.7282L41.9721 36.9243C41.9746 37.0352 41.9236 37.1947 41.8545 37.2917L41.7325 37.463L41.8863 37.7255C42.0474 38.0004 42.1181 38.0445 42.1722 37.9035C42.2404 37.726 42.488 37.6234 42.744 37.6667C43.0252 37.7142 42.9518 37.8098 42.6329 37.8113C42.502 37.8119 42.3952 37.8602 42.3017 37.9611L42.1637 38.11L42.4139 38.5324C42.5516 38.7647 42.7761 39.146 42.913 39.3796C43.1453 39.7762 43.1753 39.8044 43.3631 39.8044C43.6206 39.8044 43.8288 39.6939 44.0859 39.4208C44.4085 39.0784 45.1106 38.6479 45.631 38.4737C46.3953 38.2177 47.5103 38.2489 48.334 38.5493C48.4989 38.6094 48.2203 38.3112 47.6602 37.828C46.928 37.1966 45.9069 36.7738 44.6426 36.5788C44.1549 36.5036 41.6132 36.4328 41.5558 36.4928ZM33.1703 37.446C33.2138 37.7261 33.3804 38.0854 33.5711 38.3102L33.7202 38.486L33.6347 38.3082C33.5876 38.2104 33.5309 38.0258 33.5086 37.898C33.4733 37.6955 33.2306 37.2263 33.1611 37.2263C33.1474 37.2263 33.1516 37.3252 33.1703 37.446ZM24.7192 40.2689C24.8322 40.5892 24.8327 40.8638 24.7207 41.1318C24.6724 41.2475 24.6328 41.3782 24.6328 41.4223C24.6328 41.4663 24.7647 41.6479 24.9258 41.8259C25.0869 42.0038 25.2188 42.1798 25.2188 42.2171C25.2188 42.2544 25.2349 42.2687 25.2547 42.2489C25.3024 42.2012 25.0887 41.86 24.9001 41.6828C24.7184 41.5121 24.7177 41.496 24.8749 41.1165C25.0324 40.7367 24.9932 40.3569 24.7754 40.1523L24.6298 40.0155L24.7192 40.2689ZM48.8682 42.1474C48.6786 42.2079 48.4984 42.2826 48.4678 42.3132C48.39 42.391 48.738 42.6453 49.1528 42.8141L49.4899 42.9512L49.9248 42.6264C50.412 42.2625 50.4114 42.26 49.8203 42.1206C49.3531 42.0105 49.2913 42.0122 48.8682 42.1474ZM6.10325 64.9825C6.17614 64.9965 6.28161 64.996 6.33762 64.9814C6.39364 64.9667 6.33399 64.9552 6.20509 64.9559C6.07618 64.9565 6.03036 64.9685 6.10325 64.9825ZM6.80766 64.9843C6.97788 64.9962 7.24155 64.9961 7.3936 64.9841C7.54559 64.972 7.40626 64.9624 7.08399 64.9625C6.76173 64.9627 6.63739 64.9725 6.80766 64.9843Z" fill="white"/>
</g>
<defs>
<clipPath id="clip0_637_733">
<rect width="70" height="70" fill="white"/>
</clipPath>
</defs>
</svg>
