<svg width="70" height="70" viewBox="0 0 70 70" fill="none" xmlns="http://www.w3.org/2000/svg">
<g clip-path="url(#clip0_637_827)">
<path d="M31.192 0.168491C30.912 0.392491 31.01 1.31649 31.304 1.20449C31.402 1.16249 31.71 1.09249 31.976 1.03649C32.62 0.924491 32.69 0.784491 32.382 0.350491C32.102 -0.0275085 31.556 -0.111509 31.192 0.168491Z" fill="black"/>
<path d="M38.738 0.825981C38.514 0.965981 38.08 1.13399 37.758 1.18999C37.282 1.27399 37.226 1.30199 37.45 1.39999C37.716 1.49799 37.702 1.51199 37.38 1.58199C37.184 1.62399 36.694 1.70798 36.274 1.74998C35.588 1.83398 35.49 1.80598 35.224 1.48399C35.056 1.30199 34.706 1.10599 34.44 1.04999C34.034 0.965981 33.978 0.97998 34.132 1.13399C34.622 1.65199 33.95 1.88998 33.32 1.39999C32.984 1.14799 32.97 1.14799 32.69 1.39999C32.466 1.59599 32.018 1.69398 30.562 1.80598C29.554 1.90398 28.42 2.05798 28.042 2.16998C27.118 2.44998 27.104 2.42198 27.972 2.02998C28.406 1.83398 28.7 1.60999 28.7 1.46999C28.7 1.23199 28.602 1.18999 27.832 1.04999C27.342 0.97998 27.3 0.99398 27.3 1.31599C27.3 1.55399 27.146 1.76398 26.852 1.97398C26.6 2.14198 26.362 2.30998 26.334 2.33798C26.306 2.35198 26.362 2.63198 26.46 2.95399C26.628 3.45798 26.698 3.51398 27.034 3.47198C27.258 3.42999 27.384 3.47198 27.342 3.54198C27.188 3.80798 26.306 4.05998 25.592 4.05998C24.864 4.04598 24.85 4.04598 25.27 3.86398L25.69 3.68198L25.172 3.42999C24.738 3.21999 24.584 3.20599 24.276 3.34599C23.842 3.54198 23.688 3.45798 23.94 3.14999C24.038 3.02399 24.094 2.91199 24.066 2.88399C23.996 2.82799 20.468 3.84998 18.76 4.40999C17.122 4.94199 15.064 6.01999 14.168 6.80399C13.426 7.44799 13.384 7.62999 13.93 7.72799C14.084 7.75599 14.21 7.83998 14.21 7.90998C14.224 7.99398 14.28 8.20399 14.336 8.38599L14.448 8.72198L14.63 8.28799C14.854 7.76999 15.246 7.50399 16.31 7.12598C17.178 6.81799 17.388 6.85999 17.038 7.23798C16.786 7.53199 16.324 8.66599 16.17 9.37999L16.072 9.86999L16.492 9.30999C16.716 9.00199 17.29 8.38599 17.766 7.95198C18.48 7.27999 18.62 7.06998 18.634 6.64999C18.648 6.38398 18.662 6.07598 18.676 5.97798C18.704 5.57198 19.67 5.30598 19.992 5.62798C20.118 5.75398 20.006 5.94998 19.53 6.45399C19.18 6.83199 18.9 7.23798 18.9 7.36399C18.9 7.53199 19.068 7.41999 19.46 6.99998C19.922 6.49599 20.062 6.42599 20.384 6.49599C20.804 6.60799 21.28 6.32798 20.972 6.14598C20.874 6.08998 20.832 6.00599 20.86 5.97798C21.168 5.73998 23.086 4.61999 23.212 4.61999C23.45 4.61999 23.562 5.20798 23.394 5.61398C23.324 5.82398 23.016 6.10398 22.722 6.25798C22.428 6.41198 21.7 6.78999 21.098 7.11198C20.244 7.57399 19.866 7.69999 19.32 7.69999C18.732 7.69999 18.62 7.74199 18.62 7.96598C18.62 8.10599 18.718 8.30199 18.83 8.39999C18.942 8.49799 19.04 8.65199 19.04 8.76398C19.04 9.04399 18.326 9.49199 17.556 9.67398C17.178 9.77199 16.38 10.08 15.792 10.388C15.022 10.766 14.7 10.864 14.7 10.724C14.7 10.626 14.854 10.108 15.064 9.58998C15.26 9.05799 15.4 8.46999 15.372 8.27399C15.302 7.68599 14.938 7.83998 14.7 8.56799C14.532 9.11399 14.448 9.21199 14.21 9.15599C14.056 9.11399 13.692 9.18399 13.398 9.30999C13.118 9.42199 12.88 9.47799 12.88 9.42199C12.88 9.36599 13.118 9.07199 13.398 8.76398L13.93 8.21799L13.09 8.80598C12.628 9.14199 11.69 9.78599 10.99 10.262C9.772 11.088 8.12 12.586 8.12 12.838C8.12 12.908 8.302 12.95 8.54 12.908C9.156 12.824 9.086 13.118 8.19 14.21C7.77 14.714 7.42 15.176 7.42 15.204C7.42 15.33 7.574 15.246 8.036 14.84C8.316 14.588 8.554 14.476 8.61 14.546C8.652 14.63 7.952 15.428 7.056 16.31C5.446 17.92 5.432 17.948 5.53 18.452C5.642 19.04 5.88 19.39 5.88 18.956C5.88 18.144 6.496 16.8 6.874 16.8C7.084 16.8 7.014 17.248 6.496 19.264C6.216 20.342 5.95 21.714 5.894 22.33L5.81 23.45L5.292 22.61C4.998 22.148 4.76 21.868 4.76 21.994C4.76 22.12 4.41 22.652 3.99 23.17C3.57 23.674 3.22 24.122 3.22 24.15C3.22 24.164 3.122 24.416 3.01 24.696C2.898 24.976 2.828 25.2 2.856 25.2C2.884 25.2 3.122 24.878 3.374 24.472L3.836 23.758L4.018 24.164C4.27 24.752 4.242 25.228 3.85 27.3C3.5 29.19 3.43 30.366 3.64 30.87C3.752 31.122 3.766 31.122 3.766 30.786C3.78 30.338 4.102 29.89 4.312 30.016C4.522 30.142 4.522 30.996 4.326 31.906C4.116 32.9 3.864 33.012 3.948 32.06L4.018 31.332L3.556 31.402C2.996 31.5 2.996 31.486 2.856 29.61C2.814 28.84 2.716 28.07 2.646 27.888C2.464 27.412 2.128 27.51 2.016 28.07C1.89 28.784 2.044 29.666 2.66 31.57C3.262 33.446 3.458 34.3 3.262 34.3C3.192 34.3 2.94 34.034 2.688 33.712C2.212 33.096 2.142 33.138 2.394 33.852C2.478 34.09 2.618 34.272 2.702 34.258C2.814 34.244 2.87 34.594 2.87 35.462C2.87 36.134 2.842 36.68 2.8 36.68C2.758 36.68 2.52 36.554 2.282 36.4L1.82 36.12L1.834 36.512C1.848 37.296 2.03 38.15 2.17 38.108C2.338 38.052 3.094 41.006 3.528 43.428C3.71 44.394 3.892 45.136 3.934 45.052C4.046 44.87 4.41 45.528 4.55 46.186C4.718 46.942 4.886 46.41 4.816 45.36L4.76 44.45L4.97 45.22C5.096 45.64 5.25 46.662 5.32 47.488C5.39 48.328 5.53 49.294 5.614 49.658L5.782 50.302L6.034 49.994L6.286 49.686L6.482 50.162C6.916 51.198 6.93 51.282 6.552 51.212L6.202 51.142L6.524 51.632C6.706 51.898 6.86 52.262 6.86 52.43C6.86 52.71 7.378 53.34 7.602 53.34C7.658 53.34 7.672 53.172 7.616 52.962C7.574 52.738 7.826 53.088 8.176 53.718C8.526 54.362 8.82 55.02 8.82 55.202C8.82 55.86 9.436 56.756 10.5 57.61C11.074 58.086 11.62 58.604 11.704 58.772C11.858 59.08 13.874 60.998 15.316 62.188C16.366 63.07 18.256 64.33 19.642 65.1C20.286 65.45 20.678 65.744 20.58 65.8C20.426 65.898 24.612 68.292 26.082 68.936C27.678 69.636 29.078 70 30.184 70C30.744 70 31.22 69.958 31.22 69.916C31.22 69.874 31.15 69.72 31.08 69.566C30.982 69.384 30.982 69.3 31.08 69.3C31.15 69.3 31.22 69.188 31.22 69.048C31.22 68.824 31.444 68.81 34.048 68.81C37.1 68.81 38.71 68.614 41.328 67.97C42.112 67.774 42.77 67.62 42.784 67.62C42.812 67.62 42.84 67.914 42.84 68.292C42.84 69.104 43.134 69.58 43.638 69.58H44.002L43.61 69.216C43.288 68.922 43.232 68.782 43.302 68.362C43.4 67.802 43.708 67.41 44.268 67.116C44.632 66.92 44.66 66.934 44.66 67.186C44.66 67.732 45.066 67.76 47.124 67.396C48.188 67.214 49.238 67.018 49.462 66.976C49.798 66.892 49.84 66.92 49.84 67.256C49.84 67.676 49.868 67.69 50.764 67.41C51.142 67.298 51.464 67.2 51.492 67.2C51.506 67.2 51.52 67.424 51.52 67.69C51.52 67.998 51.436 68.222 51.282 68.306C51.142 68.39 51.086 68.46 51.142 68.46C51.338 68.46 52.108 67.872 52.024 67.802C51.982 67.76 52.08 67.536 52.234 67.326L52.514 66.92H51.898C51.548 66.92 51.086 66.878 50.848 66.836C50.47 66.766 50.428 66.71 50.54 66.486C50.624 66.346 50.68 66.024 50.68 65.772V65.296L51.744 65.394L52.808 65.506L53.228 65.03C53.452 64.764 54.124 64.288 54.712 63.952C55.3 63.63 56.014 63.14 56.266 62.874C56.532 62.594 56.7 62.468 56.63 62.58C56.56 62.706 56.63 62.692 56.812 62.524C57.162 62.23 57.246 62.02 56.91 62.3C56.756 62.426 56.7 62.426 56.7 62.314C56.7 62.23 56.798 62.118 56.91 62.076C57.022 62.02 57.12 61.88 57.12 61.74C57.12 61.614 57.302 61.25 57.54 60.928L57.946 60.354L57.204 60.62C56.546 60.844 54.81 61.18 54.306 61.18C54.208 61.18 54.334 60.956 54.6 60.69C54.964 60.312 55.118 60.242 55.314 60.354C55.524 60.466 55.65 60.382 56.014 59.892C56.252 59.556 56.574 59.038 56.728 58.73C57.022 58.156 58.394 56.238 58.786 55.86C58.912 55.734 59.416 55.146 59.92 54.53C60.424 53.914 61.264 52.906 61.796 52.29C63.042 50.834 64.61 48.454 65.52 46.648C66.094 45.486 66.29 45.206 66.5 45.262C66.724 45.318 66.752 45.206 66.808 44.366C66.836 43.848 66.906 43.372 66.948 43.33C67.004 43.274 67.186 43.33 67.368 43.456C67.998 43.904 68.082 43.778 67.97 42.588C67.83 41.076 67.844 40.11 68.026 39.802C68.11 39.662 68.18 39.62 68.18 39.718C68.18 39.928 68.698 40.222 68.88 40.11C68.964 40.054 68.866 39.732 68.67 39.326C68.376 38.766 68.348 38.64 68.53 38.64C68.656 38.64 68.866 38.374 69.02 38.024C69.16 37.688 69.342 37.394 69.426 37.366C69.51 37.324 69.412 36.68 69.16 35.574C68.656 33.502 68.642 33.236 69.034 33.138C69.3 33.068 69.314 33.096 69.23 33.558C69.174 33.908 69.202 34.09 69.328 34.174C69.916 34.552 70.014 34.076 69.58 32.816C69.412 32.368 69.286 31.696 69.286 31.346C69.272 30.73 69.258 30.702 68.922 30.772L68.558 30.842L68.6 28.966C68.67 26.11 68.67 26.096 68.194 25.816C67.844 25.62 67.704 25.326 67.284 23.996C66.668 22.092 65.646 19.782 64.764 18.298C64.414 17.696 64.12 17.108 64.12 17.01C64.12 16.912 63.854 16.52 63.518 16.156C63.196 15.778 62.552 14.994 62.09 14.42C60.956 12.992 58.842 10.906 57.386 9.77199C56.294 8.91799 53.536 7.08398 53.158 6.95798C53.074 6.92999 53.228 6.63599 53.536 6.25798C54.124 5.54398 54.152 5.12399 53.648 4.78799C53.326 4.57799 53.326 4.57799 53.494 4.94199C53.634 5.24998 53.62 5.37598 53.424 5.65598C53.088 6.17398 52.682 6.34198 52.038 6.24398C51.716 6.18798 51.394 6.08998 51.31 6.03399C51.24 5.96398 50.932 5.83798 50.638 5.73998C50.148 5.58598 50.12 5.55798 50.316 5.33398C50.442 5.19398 50.54 5.01199 50.54 4.92799C50.54 4.59199 49.658 3.79398 48.412 2.96799C46.998 2.04398 46.578 1.97398 46.088 2.58998L45.836 2.89799L45.164 2.11398C44.492 1.34399 44.464 1.32999 43.694 1.31599C43.26 1.31599 42.504 1.17599 42 1.02199C41.496 0.867981 40.656 0.699982 40.11 0.643982C39.298 0.587982 39.06 0.615982 38.738 0.825981ZM39.438 0.783981C39.396 0.825981 39.27 0.839981 39.172 0.797981C39.06 0.755981 39.102 0.713982 39.256 0.713982C39.41 0.699982 39.494 0.741982 39.438 0.783981ZM49.392 5.01199C49.588 5.30598 49.588 5.31998 49.154 5.16599C48.72 5.01199 48.636 4.89999 48.818 4.70399C48.958 4.56399 49.168 4.67599 49.392 5.01199ZM12.012 10.388C11.9 10.57 11.536 11.186 11.2 11.76C10.864 12.334 10.57 12.824 10.556 12.852C10.542 12.88 10.374 12.824 10.206 12.726L9.884 12.558L10.262 12.264C10.472 12.096 10.64 11.9 10.64 11.83C10.64 11.676 12.012 10.08 12.138 10.08C12.18 10.08 12.124 10.22 12.012 10.388ZM9.8 18.578C9.646 18.816 9.646 18.816 9.716 18.578C9.758 18.438 9.8 18.242 9.814 18.158C9.814 18.032 9.842 18.032 9.884 18.158C9.926 18.256 9.884 18.438 9.8 18.578ZM11.62 19.446C11.62 19.516 11.522 19.642 11.41 19.74C11.242 19.88 11.2 19.88 11.2 19.712C11.2 19.6 11.242 19.46 11.298 19.418C11.424 19.278 11.62 19.292 11.62 19.446ZM9.94 19.796C9.94 19.824 9.982 19.95 10.024 20.062C10.066 20.188 9.884 20.426 9.548 20.692L9.016 21.126L9.226 20.426C9.38 19.936 9.506 19.74 9.688 19.74C9.828 19.74 9.94 19.768 9.94 19.796ZM10.598 20.384C10.514 20.678 9.982 21.602 9.422 22.428C8.862 23.268 8.134 24.458 7.812 25.088L7.21 26.25L7.168 24.262C7.14 22.386 7.154 22.246 7.448 21.91C7.616 21.714 7.826 21.56 7.938 21.56C8.036 21.56 8.218 21.406 8.344 21.21C8.596 20.818 8.82 20.86 8.82 21.294C8.82 21.924 9.898 21.196 10.388 20.258C10.724 19.586 10.822 19.642 10.598 20.384ZM68.46 27.496C68.46 28.112 68.222 27.762 68.124 27.02C68.04 26.418 68.04 26.404 68.236 26.74C68.362 26.936 68.446 27.272 68.46 27.496ZM6.384 27.286C6.496 27.188 6.622 27.16 6.678 27.202C6.818 27.342 6.146 28.84 5.936 28.84C5.544 28.84 5.236 27.664 5.474 27.048L5.614 26.67L5.908 27.062C6.132 27.37 6.23 27.412 6.384 27.286ZM47.18 66.15C47.18 66.29 47.04 66.36 46.732 66.36L46.27 66.346L46.62 66.15C47.068 65.898 47.18 65.898 47.18 66.15ZM45.948 67.158C46.144 67.41 45.71 67.55 45.248 67.396C44.716 67.214 44.716 66.948 45.248 66.724C45.668 66.542 45.71 66.542 45.766 66.752C45.794 66.878 45.878 67.074 45.948 67.158ZM30.73 68.754C30.926 68.95 30.226 68.894 29.75 68.684C29.33 68.488 29.344 68.488 29.96 68.558C30.31 68.6 30.646 68.684 30.73 68.754Z" fill="black"/>
<path d="M35.742 1.21826C35.952 1.24626 36.288 1.24626 36.512 1.21826C36.722 1.19026 36.54 1.16226 36.12 1.16226C35.7 1.16226 35.518 1.19026 35.742 1.21826Z" fill="black"/>
<path d="M50.932 4.95626C51.1 5.18026 51.24 5.47426 51.24 5.62826C51.24 5.78226 51.31 5.85226 51.38 5.81026C51.66 5.64226 51.506 5.19426 51.072 4.87226L50.61 4.55026L50.932 4.95626Z" fill="black"/>
<path d="M4.648 18.8023C4.326 19.1523 4.256 19.5303 4.48 19.6703C4.564 19.7123 4.62 19.8943 4.62 20.0623C4.634 20.3702 4.634 20.3702 4.844 20.0903C5.026 19.8383 5.026 19.8103 4.844 19.7683C4.564 19.7123 4.564 19.7123 4.83 19.0823C5.096 18.4663 5.04 18.3823 4.648 18.8023Z" fill="black"/>
<path d="M2.31 20.7768C2.128 21.2528 2.114 21.4488 2.226 21.6868C2.52 22.2048 2.66 21.9948 2.66 21.0708C2.66 20.5668 2.632 20.1608 2.604 20.1608C2.576 20.1608 2.436 20.4408 2.31 20.7768Z" fill="black"/>
<path d="M1.638 23.1003C1.414 23.4923 1.19 23.8003 1.134 23.8003C0.994003 23.8003 0.616003 23.3663 0.532003 23.1003C0.490003 22.9883 0.434003 23.1283 0.406003 23.4083C0.364003 23.6883 0.392003 23.8843 0.448003 23.8563C0.504003 23.8143 0.560003 24.0103 0.560003 24.2763C0.560003 24.5563 0.630003 24.7803 0.700003 24.7803C0.784003 24.7803 0.840003 24.7243 0.840003 24.6543C0.840003 24.5703 1.218 24.2203 1.68 23.8703C2.506 23.2263 2.688 22.9043 2.352 22.5683C2.1 22.3163 2.058 22.3443 1.638 23.1003Z" fill="black"/>
<path d="M0.700005 25.6207C0.700005 25.7047 0.798005 25.7607 0.910004 25.7607C1.176 25.7607 1.176 25.6767 0.910004 25.5647C0.798005 25.5227 0.700005 25.5507 0.700005 25.6207Z" fill="black"/>
<path d="M67.788 44.1703C67.634 44.5203 67.55 46.3263 67.69 46.1723C67.774 46.0883 68.068 43.9463 67.998 43.8763C67.97 43.8483 67.872 43.9743 67.788 44.1703Z" fill="black"/>
<path d="M64.806 49.1684C64.68 49.6444 64.54 50.1484 64.484 50.2744C64.33 50.6104 65.002 50.4564 65.352 50.0644C65.842 49.5464 65.856 49.2104 65.422 48.7204L65.016 48.2724L64.806 49.1684Z" fill="black"/>
<path d="M63.98 50.9742C63.882 51.1282 63.84 51.2962 63.882 51.3242C63.91 51.3522 64.008 51.2262 64.092 51.0302C64.288 50.6102 64.19 50.5682 63.98 50.9742Z" fill="black"/>
<path d="M63.434 52.3887C63.126 53.3127 63.168 53.3127 63.756 52.4307L64.12 51.8707V52.4307C64.106 52.7387 64.022 53.1447 63.91 53.3407C63.406 54.2227 63.826 54.6147 64.596 53.9987C64.946 53.7047 64.974 53.6347 64.834 53.3547C64.722 53.1727 64.694 52.8227 64.764 52.4307C64.848 51.8427 64.834 51.8007 64.47 51.6607C63.84 51.4227 63.742 51.4927 63.434 52.3887Z" fill="black"/>
<path d="M60.774 55.5239C60.774 55.6919 60.41 56.2099 59.99 56.6859C59.248 57.5119 59.052 57.9879 59.36 58.1699C59.612 58.3239 59.514 58.4919 59.122 58.5899L58.73 58.7019L59.136 58.8139C59.416 58.8979 59.626 58.8559 59.878 58.7019L60.228 58.4639L59.906 58.2399C59.416 57.8619 59.64 57.5399 60.41 57.5399H61.04L61.026 56.9379C61.026 56.2799 60.802 55.0619 60.774 55.5239Z" fill="black"/>
<path d="M62.37 55.5942C62.314 55.6782 62.3 55.7622 62.342 55.8042C62.37 55.8462 62.44 55.7762 62.482 55.6502C62.58 55.4122 62.496 55.3702 62.37 55.5942Z" fill="black"/>
<path d="M61.81 56.7982C61.6 57.1342 61.46 57.4422 61.488 57.4702C61.502 57.4842 61.726 57.5542 61.964 57.5962C62.342 57.6802 62.454 57.6382 62.706 57.3162C63.098 56.8262 63.084 56.6722 62.58 56.3922L62.174 56.1682L61.81 56.7982Z" fill="black"/>
<path d="M58.786 59.5985L58.31 60.1025L58.758 59.7945C59.234 59.4725 59.43 59.2485 59.332 59.1365C59.304 59.1085 59.052 59.3185 58.786 59.5985Z" fill="black"/>
<path d="M52.85 66.6403C52.808 66.7103 52.836 66.7803 52.906 66.7803C52.99 66.7803 53.06 66.7103 53.06 66.6403C53.06 66.5563 53.032 66.5003 53.004 66.5003C52.962 66.5003 52.892 66.5563 52.85 66.6403Z" fill="black"/>
<path d="M48.37 68.1939C47.782 68.7959 47.726 68.8939 48.02 68.8099C48.622 68.6419 49.21 68.2499 49.252 67.9839C49.364 67.4239 49.028 67.5079 48.37 68.1939Z" fill="black"/>
<path d="M45.57 68.0399L45.01 68.2919L45.542 68.3059C45.892 68.3199 46.102 68.2499 46.158 68.1099C46.284 67.7739 46.172 67.7599 45.57 68.0399Z" fill="black"/>
<path d="M37.17 69.0203C35.784 69.1603 33.992 69.2863 33.18 69.3003L31.71 69.3283L33.11 69.5943C33.908 69.7623 35.434 69.9023 36.68 69.9583L38.85 70.0283L38.5 69.7483L38.15 69.4683L38.5 69.3143C38.696 69.2443 39.354 69.1323 39.97 69.0763C40.796 69.0063 40.992 68.9503 40.74 68.8663C40.25 68.7263 40.026 68.7403 37.17 69.0203Z" fill="black"/>
<path d="M27.7827 13.1714C27.729 13.3862 27.6914 13.6172 27.6914 13.6763C27.6914 13.7837 27.686 13.7837 27.5625 13.6655C27.4712 13.5796 27.396 13.5527 27.3208 13.5796C27.1704 13.6226 27.1811 13.7354 27.3477 14.0684L27.4873 14.3477L27.0308 15.9482C26.6172 17.3823 26.4883 17.8657 26.3809 18.3384C26.354 18.4565 26.2681 18.5103 25.7954 18.7036L25.2422 18.9238L24.1948 17.8657C23.6147 17.2803 22.9326 16.5767 22.6694 16.3027C22.4116 16.0342 22.186 15.8193 22.1753 15.8301C22.1645 15.8408 22.5298 16.7109 22.9917 17.769C23.4482 18.8218 23.8242 19.708 23.8242 19.7241C23.8242 19.7456 23.7114 19.8477 23.5718 19.9497C23.4268 20.0464 23.0991 20.3203 22.8413 20.5566L22.3633 20.981L21.4126 20.5137C20.8862 20.2612 20.4189 20.0518 20.3706 20.0518C20.3223 20.0518 20.2793 20.0947 20.2793 20.1431C20.2793 20.2236 20.2578 20.2129 20.1719 20.1055C20.0806 19.9873 20.0537 19.9819 19.9624 20.0356C19.8281 20.1216 19.7959 20.1216 19.7959 20.0518C19.7959 20.0195 19.8335 19.998 19.8765 19.998C19.9517 19.998 20.1182 19.7402 20.1182 19.6221C20.1182 19.5361 19.9463 19.5576 19.7476 19.6812C19.6509 19.7402 19.5596 19.7832 19.5488 19.7725C19.5381 19.7617 19.6186 19.6274 19.7261 19.4771C19.8872 19.2407 19.9087 19.1816 19.8496 19.1118C19.7368 18.9775 19.6025 19.0205 19.4951 19.2192C19.4414 19.3213 19.3769 19.4072 19.3555 19.4072C19.3286 19.4072 19.0386 19.2729 18.7109 19.1064L18.1094 18.8057L18.2651 19.0098C18.3511 19.1279 18.7378 19.606 19.1245 20.0786C20.3437 21.5664 21.1387 22.5762 21.1387 22.6353C21.1387 22.6675 21.0474 22.8286 20.9292 22.9951C20.8164 23.1616 20.6821 23.3818 20.6338 23.4731C20.521 23.6934 20.6177 23.6934 18.335 23.4893C17.352 23.3979 16.5303 23.3281 16.5034 23.3281C16.4766 23.3281 16.4658 23.2422 16.4766 23.1401C16.5034 22.9092 16.3745 22.7642 16.1973 22.8179C16.0952 22.8501 16.0845 22.8823 16.1113 23.0649C16.1489 23.312 16.2134 23.3013 15.2627 23.2153C14.9136 23.1885 14.6182 23.1724 14.6074 23.1831C14.5913 23.1938 14.9028 23.4087 15.2949 23.6504C16.0093 24.1016 17.6528 25.1597 18.7378 25.8633C19.0547 26.0728 19.3125 26.2554 19.3125 26.2769C19.3125 26.3735 19.1567 27.4746 19.1406 27.4854C19.1245 27.4961 16.1704 28.1621 15.4614 28.3179C15.2466 28.3608 15.0693 28.4146 15.0693 28.4307C15.0693 28.4468 15.2197 28.5005 15.4077 28.5488C15.5903 28.5972 16.4712 28.8228 17.3628 29.0483L18.9849 29.4673L18.9526 30.0903C18.9365 30.4341 18.915 30.7188 18.9097 30.7241C18.9043 30.7349 17.7334 30.9927 16.2993 31.3042C14.8706 31.6157 13.6406 31.8896 13.5708 31.9111C13.4526 31.9487 14.7041 32.2441 18.3779 33.0337L19.2964 33.2271L19.4307 33.8501C19.5059 34.1938 19.5542 34.4893 19.5435 34.5107C19.5327 34.5269 18.7002 34.9727 17.6851 35.499C16.6753 36.02 15.7891 36.4819 15.7139 36.5249C15.6011 36.584 15.9287 36.5894 17.8354 36.5625L20.0913 36.5303L20.3545 37.207C20.5801 37.7925 20.6069 37.8999 20.5425 37.959C20.4995 37.9966 20.0107 38.3672 19.4468 38.7754C18.2705 39.6455 17.959 39.8765 17.5132 40.2148L17.1909 40.4619L17.0513 40.2954C16.9331 40.145 16.9009 40.1343 16.7988 40.188C16.6484 40.2686 16.6484 40.4082 16.7935 40.5908C16.8579 40.6714 16.9009 40.7466 16.8901 40.7573C16.8794 40.7681 16.7773 40.8486 16.6592 40.9399C16.5464 41.0312 16.4712 41.1064 16.498 41.1064C16.5679 41.1064 19.0654 40.6606 19.0869 40.6445C19.1245 40.6177 18.9634 40.2417 18.8935 40.1826C18.8452 40.1396 18.7324 40.1343 18.5068 40.1719C18.2436 40.2148 18.1631 40.2095 18.0503 40.145C17.9751 40.0967 17.916 40.043 17.916 40.0161C17.916 39.9893 17.9751 40.0161 18.0503 40.0752C18.1792 40.1772 18.206 40.1772 18.4961 40.1074C18.6626 40.0698 18.8345 40.0376 18.8721 40.0322C18.9043 40.0322 18.9365 40 18.9365 39.957C18.9365 39.8496 19.1352 39.624 19.1836 39.6724C19.2051 39.6938 19.1943 39.7422 19.1621 39.7744C19.1245 39.812 19.0977 39.9463 19.0977 40.0698C19.0977 40.2524 19.1299 40.3384 19.2373 40.4458L19.3823 40.5908L19.479 40.4673C19.6025 40.3169 19.6079 40.0269 19.5005 39.8174C19.4521 39.7261 19.4414 39.6562 19.4683 39.6562C19.5649 39.6562 19.6885 39.9678 19.6885 40.2202C19.6885 40.521 19.6348 40.521 21.0366 40.2739C21.6274 40.1719 22.1269 40.0859 22.1484 40.0859C22.1753 40.0859 22.2773 40.1987 22.374 40.3384C22.4707 40.4834 22.6855 40.7573 22.8413 40.9561L23.1313 41.3105L22.331 42.7554C21.8852 43.5449 21.5361 44.2002 21.5415 44.2109C21.5522 44.2217 22.2559 43.9263 23.1045 43.5503L24.646 42.8735L24.7856 42.9971C24.8608 43.0615 25.0273 43.2119 25.1509 43.3301L25.3765 43.5396L25.1294 44.0283C24.9951 44.2969 24.6782 44.9038 24.4311 45.3765C24.1787 45.8491 23.8779 46.4131 23.7651 46.6279C23.6523 46.8428 23.5879 47.0039 23.6255 46.9824C23.7168 46.9233 25.3013 45.5376 25.9351 44.9575L26.456 44.4741L26.7407 44.7373C26.8911 44.8823 27.1274 45.0918 27.2563 45.1992L27.4873 45.3979L26.9985 46.7837C26.73 47.5464 26.4829 48.2231 26.456 48.293C26.4292 48.3574 26.4185 48.4111 26.4292 48.4111C26.456 48.4111 28.5239 47.208 28.9214 46.9556L29.1631 46.8105L29.4209 47.0254C29.5605 47.1489 29.6787 47.2778 29.6787 47.3208C29.6787 47.396 28.8516 51.8057 28.771 52.1816C28.7441 52.2944 28.7334 52.3857 28.7388 52.3857C28.7495 52.3857 29.206 51.7896 29.7593 51.0645C30.9463 49.5015 31.666 48.5723 31.6875 48.5723C31.6982 48.5723 31.8647 48.6636 32.0474 48.7817C32.2353 48.8945 32.52 49.0503 32.6758 49.1309C32.9014 49.2437 32.9551 49.2974 32.9282 49.3672C32.7134 49.915 31.7627 52.8745 31.7895 52.9067C31.8057 52.9175 32.7241 51.7734 33.4814 50.7905C33.7822 50.4038 34.0561 50.0654 34.0884 50.0493C34.1797 49.9902 34.7812 50.3018 34.8081 50.4253C34.8296 50.5327 34.9424 52.1602 34.9424 52.3428C34.9424 52.4287 34.8833 52.4395 34.459 52.4395C34.1958 52.4395 33.9756 52.4502 33.9756 52.4609C33.9756 52.4717 34.0615 52.7349 34.1689 53.041C34.416 53.7554 34.8135 54.5181 35.2378 55.082C35.603 55.5654 36.3442 56.3066 36.4678 56.3066C36.5859 56.3066 37.2895 55.6245 37.6226 55.1841C38.1811 54.4429 38.5195 53.8091 38.8149 52.9282C38.9009 52.6758 38.9707 52.4556 38.9707 52.4287C38.9707 52.4072 38.7397 52.3857 38.4604 52.3857C37.9663 52.3857 37.9502 52.3804 37.9556 52.2622C37.9609 51.9399 38.0952 50.3447 38.1167 50.334C38.1274 50.3232 38.2886 50.2427 38.4712 50.146L38.7988 49.9741L39.9429 51.4512C40.5713 52.2568 41.0923 52.9121 41.103 52.9014C41.1406 52.8691 40.5928 51.0698 40.2866 50.2104C40.1255 49.7539 39.9912 49.3457 39.9912 49.3081C39.9912 49.2651 40.0664 49.2007 40.1577 49.1577C40.2544 49.1201 40.5229 48.9751 40.7593 48.8301C40.9956 48.6904 41.2051 48.5723 41.2212 48.5723C41.2373 48.5776 41.9033 49.4209 42.6929 50.4575C43.4878 51.4941 44.1484 52.3267 44.1645 52.3159C44.1753 52.2998 44.1377 52.0151 44.0786 51.6821C43.9443 50.9624 43.9443 50.9355 44.0356 50.9355C44.0786 50.9355 44.1645 50.8765 44.229 50.8066C44.3311 50.6992 44.3418 50.6562 44.2935 50.5649C44.2183 50.4307 44.2183 50.4307 44.0195 50.5327C43.9282 50.5811 43.8584 50.5972 43.8584 50.5703C43.8584 50.5435 43.7241 49.813 43.563 48.9482C43.4019 48.0835 43.2676 47.3369 43.2676 47.2886C43.2676 47.2402 43.375 47.1113 43.5039 46.9985L43.7402 46.8052L45.0991 47.6055C45.8457 48.0459 46.4687 48.4004 46.4741 48.3896C46.4956 48.3735 45.8135 46.397 45.561 45.731L45.4321 45.3818L45.9639 44.936C46.4258 44.5547 46.5171 44.4956 46.5869 44.5547C46.6353 44.5923 47.167 45.0703 47.7739 45.6128C48.3809 46.1553 48.9985 46.6978 49.1436 46.8213L49.4121 47.0415L49.0576 46.3701C48.8589 45.9995 48.4453 45.2153 48.1284 44.6245L47.5644 43.5503L47.9136 43.2119C48.1123 43.0293 48.2895 42.8789 48.311 42.8789C48.3379 42.8789 48.5474 42.9648 48.7783 43.0723C49.4175 43.3677 51.394 44.2217 51.4102 44.2056C51.4155 44.2002 51.2759 43.9316 51.0986 43.6147L50.771 43.0347L50.916 42.8843C51.0825 42.707 51.0933 42.6318 50.9429 42.5566C50.8569 42.5083 50.8086 42.5137 50.728 42.5889C50.5884 42.7124 50.5723 42.6909 50.1265 41.9175L49.772 41.3052L50.0835 40.9238C50.25 40.7144 50.4595 40.4404 50.5508 40.3169C50.6367 40.188 50.728 40.0859 50.7495 40.0859C50.771 40.0859 51.2812 40.1719 51.8774 40.2739C52.4736 40.376 53.0107 40.4619 53.0698 40.4619C53.1611 40.4619 53.1772 40.4243 53.1826 40.2202C53.188 39.9839 53.3169 39.71 53.4243 39.71C53.4512 39.71 53.4404 39.7637 53.3975 39.8281C53.3061 39.957 53.2847 40.333 53.3599 40.4565C53.4297 40.5693 53.6123 40.478 53.709 40.2793C53.7734 40.145 53.7788 40.0591 53.7412 39.9194C53.6768 39.6938 53.6768 39.6562 53.7358 39.6562C53.7627 39.6562 53.8325 39.7422 53.897 39.8442C54.0903 40.1719 54.4824 40.2632 54.7886 40.0591L55.0034 39.9141L54.8423 40.0859C54.6704 40.2686 54.6758 40.2686 54.1064 40.1611C53.9023 40.1235 53.9023 40.1289 53.7895 40.3813C53.7305 40.5156 53.6875 40.6392 53.6982 40.6445C53.7197 40.6606 56.3301 41.1064 56.3945 41.1064C56.4214 41.1064 56.1904 40.9077 55.8843 40.6714C55.5781 40.4297 55.2935 40.2041 55.2559 40.1665C55.1968 40.1128 55.2129 40.0537 55.374 39.8442C55.4814 39.71 55.5674 39.5596 55.5674 39.5166C55.5674 39.3823 55.3579 39.436 55.1377 39.6348C55.0034 39.7583 54.9014 39.812 54.8584 39.7852C54.7832 39.7368 52.4521 38.002 52.3823 37.9375C52.3555 37.916 52.4575 37.5991 52.6025 37.2339L52.8657 36.5679L55.1162 36.584C56.3516 36.5947 57.356 36.5894 57.3398 36.5786C57.3237 36.5679 56.4321 36.1006 55.3525 35.5474C54.2729 34.9888 53.3813 34.5269 53.3706 34.5161C53.3599 34.5107 53.4028 34.2153 53.4727 33.8608L53.5962 33.2217L53.8701 33.168C54.8154 32.9692 57.4902 32.3999 57.5708 32.373C57.6406 32.3516 57.6621 32.373 57.6621 32.4697C57.6621 32.5396 57.6943 32.647 57.7373 32.7007C57.8394 32.8457 57.9736 32.7275 57.9951 32.4697L58.0112 32.2764L58.4409 32.1851C58.6772 32.1367 59.0103 32.0669 59.1821 32.0293C59.354 31.9971 59.4829 31.9541 59.4722 31.938C59.4561 31.9272 59.2305 31.8682 58.9673 31.8091C58.2153 31.6426 54.5469 30.8477 54.2407 30.7832L53.9561 30.7241V30.0957V29.4619L54.8315 29.2417C55.8735 28.9785 57.6567 28.5005 57.7695 28.4521C57.834 28.4253 55.4277 27.8506 54.1064 27.5767L53.8057 27.5122L53.7412 26.9912C53.709 26.7065 53.666 26.4219 53.6553 26.3574C53.6284 26.2661 53.7412 26.1694 54.3696 25.7612C54.7778 25.4927 55.7769 24.8428 56.5879 24.311C57.3989 23.7793 58.1401 23.3013 58.2261 23.2529C58.3872 23.1616 58.3818 23.1616 57.9844 23.1938C57.2324 23.2476 52.8013 23.6504 52.6348 23.6772C52.479 23.7041 52.4521 23.688 52.3179 23.4517C52.2319 23.3066 52.0815 23.0649 51.9795 22.9092L51.7915 22.6245L51.9741 22.3989C52.0708 22.2754 52.7529 21.4321 53.4834 20.5244C54.2139 19.6167 54.8154 18.8647 54.8154 18.8486C54.8154 18.8271 54.4932 18.9775 54.0957 19.1763C53.6982 19.3804 53.3813 19.563 53.3921 19.5952C53.4028 19.6221 53.4243 19.6919 53.4458 19.7456C53.4834 19.8369 53.4727 19.8369 53.3061 19.7349C53.2041 19.6704 53.0537 19.6221 52.9731 19.6221C52.8335 19.6221 52.8228 19.6328 52.855 19.7993C52.8818 19.939 52.8657 19.998 52.7744 20.0786C52.6831 20.1592 52.6509 20.1646 52.6186 20.1108C52.5596 20.0142 52.479 20.0464 51.4316 20.5405L50.54 20.9648L50.25 20.6909C50.0889 20.5405 49.7666 20.272 49.541 20.0894C49.3101 19.9121 49.1221 19.7402 49.1221 19.708C49.1221 19.6812 49.4336 18.9131 49.8203 18.0054C50.2017 17.0977 50.5669 16.2222 50.626 16.0664L50.7388 15.7817L50.3198 16.2114C50.0889 16.4478 49.4014 17.1514 48.7891 17.7798L47.6826 18.9185L47.124 18.6929L46.5708 18.4619L46.4741 18.0913C46.4204 17.8818 46.2324 17.2319 46.0605 16.6411C45.8833 16.0503 45.7007 15.4165 45.6523 15.2339L45.561 14.9009L45.7329 14.6484C45.8242 14.5088 45.8994 14.3799 45.8994 14.3584C45.8994 14.3369 45.8403 14.2886 45.7651 14.251C45.647 14.1865 45.6201 14.1919 45.5234 14.2778C45.3945 14.3906 45.4214 14.4497 45.1797 13.5044C44.9971 12.79 44.9971 12.79 44.9648 13.0479C44.8628 13.8696 44.2827 18.1343 44.2559 18.2686C44.2236 18.4189 44.2075 18.4297 43.8584 18.4619C43.6543 18.478 43.3159 18.5317 43.1011 18.5747C42.7412 18.6499 42.7144 18.6499 42.6445 18.564C42.6016 18.5103 41.9839 17.5972 41.2749 16.5337C40.5605 15.4702 39.9912 14.6484 40.0073 14.7075C40.0933 14.9761 40.8667 19.4072 40.8345 19.4395C40.7915 19.4824 37.977 21.3354 37.9717 21.3247C37.9663 21.3193 37.9287 20.7876 37.8911 20.1484C37.832 19.1709 37.8374 18.9507 37.8965 18.7573C37.9609 18.5586 37.9609 18.5156 37.8804 18.376L37.7891 18.2148L38.0254 17.9517C38.3208 17.6187 38.4497 17.2642 38.4443 16.7593C38.439 16.2651 38.2295 15.814 37.8374 15.4648C37.4453 15.1157 37.0747 14.9814 36.4463 14.9814C35.979 14.9761 35.9038 14.9922 35.5762 15.1479C35.1411 15.3521 34.8135 15.6689 34.6255 16.0718C34.5073 16.3296 34.4858 16.4424 34.4858 16.856C34.4858 17.4307 34.5986 17.7207 34.9316 18.0483L35.1465 18.2578L35.0391 18.4351C34.9263 18.6069 34.9263 18.6177 35.0176 18.7842C35.1035 18.9453 35.1035 19.0527 35.0498 20.1108C35.0176 20.7446 34.9853 21.2817 34.98 21.3032C34.9639 21.3623 32.1279 19.4771 32.1064 19.3965C32.1011 19.3589 32.2622 18.3062 32.4717 17.0547C32.6758 15.8086 32.8477 14.7559 32.8477 14.7183C32.8477 14.686 32.7187 14.8472 32.5684 15.0835C31.6123 16.5444 30.3501 18.4297 30.2642 18.5264C30.1621 18.6338 30.1567 18.6338 29.6357 18.5425C29.3511 18.4888 29.0181 18.4458 28.8945 18.4404H28.6743L28.5615 17.6187C28.4971 17.1729 28.3198 15.9214 28.1748 14.8418C28.0244 13.7622 27.8955 12.8545 27.8848 12.8276C27.8794 12.7954 27.831 12.9512 27.7827 13.1714ZM36.8061 15.5454C37.021 15.626 37.1982 15.8086 37.1982 15.9536C37.1982 16.1309 36.9834 16.2544 36.7524 16.2114C36.4785 16.1577 36.2583 16.2222 35.9897 16.4316C35.7104 16.6411 35.5601 16.6626 35.4795 16.5015C35.3291 16.2222 35.6836 15.7603 36.1885 15.5884C36.5215 15.4702 36.602 15.4648 36.8061 15.5454ZM27.6968 16.4639C27.5571 16.856 27.6914 17.5757 27.96 17.9194L28.0674 18.0537L27.831 18.0698C27.6055 18.0913 27.6001 18.0859 27.6699 17.9785C27.7344 17.8818 27.729 17.8066 27.6269 17.4146L27.5088 16.958L27.6162 16.48C27.6807 16.1631 27.7236 16.0503 27.7344 16.147C27.7451 16.2329 27.729 16.3726 27.6968 16.4639ZM45.3569 17.0171C45.3569 17.1621 45.3247 17.3823 45.2817 17.5005C45.1904 17.7529 45.1797 17.9355 45.2549 17.9839C45.373 18.0537 45.2978 18.0913 45.0615 18.0752L44.8198 18.0537L44.9272 17.9355C45.228 17.6133 45.3677 17.001 45.2334 16.5444C45.1851 16.3833 45.1475 16.2061 45.1528 16.147C45.1582 15.9321 45.3569 16.7646 45.3569 17.0171ZM31.9077 17.3447C31.8809 17.6724 31.8594 17.7368 31.8003 17.6885C31.7412 17.6401 31.7412 17.6025 31.8057 17.4844C31.8486 17.4038 31.8809 17.2158 31.8862 17.0708C31.8862 16.9204 31.9023 16.8345 31.9185 16.8721C31.9346 16.915 31.9292 17.1245 31.9077 17.3447ZM41.0869 17.5327C41.1084 17.5757 41.0977 17.6724 41.0708 17.7476C41.0171 17.8765 41.0171 17.8765 41.0117 17.7153C41.0063 17.624 40.9956 17.3823 40.9902 17.1782L40.9687 16.8022L41.0063 17.1245C41.0278 17.3018 41.0654 17.4844 41.0869 17.5327ZM26.9824 17.4468C26.9502 17.522 26.9126 17.5757 26.9072 17.5649C26.875 17.5327 26.9556 17.3125 26.9985 17.3125C27.0254 17.3125 27.0146 17.3716 26.9824 17.4468ZM45.9961 17.5273C46.0283 17.6133 46.0444 17.6885 46.0337 17.6885C46.0068 17.6885 45.8457 17.3877 45.8457 17.3394C45.8457 17.2588 45.9478 17.3823 45.9961 17.5273ZM31.6714 18.0591C31.564 18.1665 31.5371 18.2793 31.5532 18.5264C31.564 18.6392 31.3491 19.0259 31.2793 19.0312C31.231 19.0312 31.2847 18.8809 31.3921 18.7144C31.4351 18.6445 31.478 18.5103 31.4834 18.4189C31.4941 18.1772 31.6606 17.8228 31.7305 17.8926C31.7681 17.9302 31.7466 17.9839 31.6714 18.0591ZM41.2856 18.0215C41.436 18.2041 41.4092 18.2524 41.2319 18.1074C41.1514 18.0376 41.0923 17.9678 41.103 17.9409C41.1406 17.8818 41.1782 17.8979 41.2856 18.0215ZM41.4307 18.478C41.4199 18.5317 41.4629 18.666 41.5327 18.7734C41.667 18.9883 41.6777 19.0312 41.6133 19.0312C41.5381 19.0312 41.3286 18.5693 41.3662 18.478C41.4092 18.3599 41.4575 18.3599 41.4307 18.478ZM37.4185 18.5801C37.6172 18.6768 37.6064 18.811 37.397 18.9131L37.2519 18.9829L37.2466 19.7993C37.2412 20.7339 37.166 20.5835 37.1392 19.5791L37.123 18.9775H36.8115H36.5L36.4893 20.0625C36.4839 21.04 36.4785 21.0938 36.4463 20.5889C36.4248 20.2773 36.4033 19.7886 36.3979 19.4985L36.3926 18.9775H36.1025H35.8125L35.7749 19.4985C35.7212 20.3203 35.7104 20.3418 35.6997 19.6328L35.6943 18.9775L35.5493 18.9185C35.27 18.8164 35.2485 18.6768 35.4956 18.5747C35.7534 18.4619 37.1982 18.4619 37.4185 18.5801ZM25.7041 19.8208C25.1724 20.1753 24.6138 20.6533 23.9316 21.3408C22.562 22.7158 21.5576 24.1606 20.9077 25.6968C20.5102 26.6206 20.5102 26.6421 20.6875 27.0288C20.7842 27.249 20.8486 27.3403 20.8755 27.292C20.897 27.2544 21.0259 26.9429 21.1602 26.6045C21.9228 24.7192 22.9326 23.1401 23.9853 22.1895L24.3237 21.8833L24.5977 22.1089C25.0703 22.4956 26.8052 23.9351 26.8535 23.978C26.8804 23.9995 26.6602 24.2573 26.3647 24.5527C25.4141 25.5034 24.8394 26.2983 24.2378 27.4961L23.9424 28.0815L22.8306 29.0591C22.2183 29.6016 21.7026 30.042 21.6811 30.042C21.665 30.042 21.5952 29.9131 21.5361 29.7573C21.4717 29.6069 21.1494 28.8389 20.8164 28.0547C20.3706 26.9912 20.2256 26.5938 20.2471 26.481C20.3545 25.96 21.187 24.3379 21.8477 23.3711C22.8789 21.8672 23.9102 20.8574 25.3281 19.9766C25.9297 19.6006 26.1982 19.4878 25.7041 19.8208ZM48.021 20.2075C48.8481 20.75 49.8149 21.6631 50.5293 22.5815C51.2544 23.5107 52.1621 25.1274 52.5381 26.1587L52.6831 26.5562L52.479 27.0771C52.2856 27.5659 51.2705 29.9937 51.2383 30.0312C51.2329 30.042 50.8301 29.7036 50.3467 29.2793C49.8686 28.855 49.3584 28.4146 49.2187 28.2964C49.0146 28.1245 48.8965 27.9473 48.6226 27.3833C48.0371 26.2017 47.2744 25.1543 46.4097 24.3594L46.0068 23.9941L46.1841 23.8652C46.3828 23.7148 47.8276 22.5278 48.2788 22.1357L48.585 21.8726L48.7891 22.0283C49.2295 22.3774 49.9385 23.2153 50.4272 23.9727C50.8086 24.5635 51.3296 25.6162 51.7324 26.5991L52.0439 27.3726L52.1997 27.0288C52.3394 26.7173 52.3501 26.6636 52.2964 26.4595C52.1943 26.0674 51.668 24.9019 51.3188 24.3057C50.438 22.7856 48.8696 20.9863 47.6719 20.1162C47.4194 19.9336 47.167 19.7456 47.1079 19.7026C46.936 19.563 47.6128 19.939 48.021 20.2075ZM53.1504 20.127C53.0806 20.1968 52.9624 20.0894 53.0161 19.998C53.043 19.9551 53.0752 19.9551 53.1289 20.0034C53.1826 20.0464 53.1934 20.084 53.1504 20.127ZM30.9409 20.5352C32.6006 20.8843 34.0024 21.6846 35.7642 23.2959L36.4463 23.9243L36.9189 23.4946C38.4658 22.0767 39.8193 21.1958 41.0654 20.7822C41.8872 20.5083 42.5264 20.4116 43.4824 20.4062C44.519 20.4009 45.1045 20.4922 46.0713 20.8037C46.834 21.0562 47.7256 21.4429 47.7202 21.5234C47.7202 21.5557 47.6558 21.6362 47.5752 21.6953L47.4302 21.8135L46.8018 21.502C45.1582 20.6909 43.5146 20.4922 41.9517 20.9111C41.5166 21.0239 40.6196 21.3462 40.6465 21.373C40.6572 21.3838 40.856 21.3301 41.0869 21.2603C42.854 20.6963 44.7446 20.9863 46.4687 22.082C46.689 22.2217 46.8608 22.3506 46.8501 22.3721C46.8447 22.3882 46.5117 22.6997 46.1143 23.0542L45.3892 23.7041L44.9595 23.6665C44.7231 23.6396 44.0356 23.6235 43.4287 23.6235C42.231 23.6235 41.9087 23.6719 41.0225 23.978C40.1792 24.2681 39.1641 24.8428 38.6001 25.3477C38.1489 25.7505 38.1113 25.627 38.5356 25.1436L38.7612 24.8911L38.4658 24.9771C38.3047 25.02 38.1328 25.0469 38.0845 25.0254C38.0361 25.0093 37.9448 24.8696 37.8857 24.7192L37.7676 24.4453L37.6978 24.6924C37.6064 25.0039 37.4614 25.0952 37.3003 24.9341C37.209 24.8428 37.1929 24.7837 37.2251 24.6279C37.3003 24.2144 37.5098 23.8706 38.0146 23.3496L38.5142 22.8286L37.8159 23.3604C37.4346 23.6504 36.9619 24.0156 36.7739 24.1714L36.4302 24.4507L36.1294 24.1929C35.9629 24.0532 35.4795 23.6611 35.0498 23.3281C34.3247 22.7642 34.2978 22.748 34.6577 23.0918C34.8726 23.3013 35.0605 23.5322 35.082 23.6128C35.1519 23.8975 35.0713 24.6279 34.9263 25.0415C34.7222 25.6216 34.7061 25.627 34.3247 25.3101C33.1001 24.2896 31.564 23.6772 29.9473 23.5698C29.4477 23.5322 28.1909 23.6128 27.7827 23.7041C27.584 23.7471 27.5625 23.7363 27.2187 23.4355C27.02 23.2637 26.6763 22.9521 26.456 22.748C25.9888 22.3076 25.9727 22.3506 26.6602 21.9424C27.2402 21.5879 27.7881 21.3623 28.5508 21.1636C29.0879 21.0239 29.2651 21.0024 29.9473 20.9971C30.7852 20.9917 31.2632 21.0669 31.999 21.314C32.2139 21.3838 32.3911 21.4375 32.4019 21.4268C32.4287 21.4053 31.4888 21.0454 31.1289 20.9434C29.4961 20.4761 27.7397 20.6802 26.0478 21.5288L25.4624 21.8242L25.3066 21.6685L25.1509 21.5127L25.5215 21.3247C26.3271 20.9219 27.5088 20.5566 28.4165 20.4331C29.0019 20.3525 30.3179 20.4062 30.9409 20.5352ZM20.333 20.562C20.4082 20.605 20.4458 20.6372 20.4136 20.6372C20.3867 20.6372 20.3008 20.605 20.2256 20.562C20.1504 20.519 20.1182 20.4868 20.145 20.4868C20.1772 20.4868 20.2578 20.519 20.333 20.562ZM52.8281 20.519C52.7852 20.5352 52.6831 20.5835 52.6025 20.6265C52.5166 20.6641 52.4521 20.6855 52.4521 20.6748C52.4521 20.6265 52.7422 20.4868 52.8281 20.4868C52.8979 20.4922 52.8979 20.4922 52.8281 20.519ZM21.3696 21.1099C21.332 21.1206 21.2676 21.1206 21.2353 21.1099C21.1977 21.0938 21.2246 21.083 21.2998 21.083C21.375 21.083 21.4019 21.0938 21.3696 21.1099ZM51.6841 21.1045C51.668 21.1206 51.6196 21.126 51.582 21.1099C51.5391 21.0938 51.5552 21.0776 51.6143 21.0776C51.6733 21.0723 51.7056 21.0884 51.6841 21.1045ZM21.6919 21.4697C21.708 21.5127 21.708 21.561 21.6919 21.5771C21.6435 21.6255 21.5093 21.4966 21.5469 21.4429C21.5898 21.373 21.6597 21.3838 21.6919 21.4697ZM51.3779 21.4751C51.3779 21.5181 51.3403 21.5557 51.2974 21.5557C51.2114 21.5557 51.1899 21.4912 51.2544 21.4321C51.3135 21.3677 51.3779 21.3892 51.3779 21.4751ZM17.3413 23.9834C17.4058 24.0156 17.6904 24.123 17.9697 24.2197L18.4746 24.397H18.1738C17.9644 24.3916 17.8784 24.3701 17.8945 24.3271C17.9321 24.2305 17.395 24.064 17.019 24.0586C16.831 24.0532 16.6807 24.0479 16.6807 24.0371C16.6807 24.0317 16.7344 23.9995 16.8042 23.9727C16.9707 23.9028 17.207 23.9082 17.3413 23.9834ZM56.1528 23.9941C56.271 24.0586 56.2603 24.064 56.0132 24.0425C55.6641 24.0049 55.0034 24.209 55.0518 24.3325C55.0786 24.3916 55.0625 24.4023 54.998 24.3809C54.9551 24.3647 54.8369 24.3486 54.7456 24.3486C54.606 24.3486 54.6436 24.3218 54.9497 24.209C55.1592 24.1338 55.4116 24.0425 55.5137 23.9995C55.7554 23.9082 55.9917 23.9028 56.1528 23.9941ZM19.7261 24.2681C20.2471 24.499 20.1772 24.5151 19.624 24.2896C19.3931 24.1982 19.1675 24.1338 19.1245 24.1553C19.0332 24.1875 19.0171 24.3809 19.0977 24.4292C19.1299 24.4453 19.1514 24.4883 19.1514 24.5259C19.1514 24.5688 19.1352 24.5688 19.0869 24.5205C19.0493 24.4829 18.915 24.4561 18.7808 24.4507C18.5283 24.4453 18.5283 24.4346 18.7915 24.3809C18.8721 24.3594 18.9258 24.3218 18.9097 24.2949C18.8721 24.2358 19.0923 24.0801 19.2158 24.0801C19.2642 24.0801 19.4951 24.166 19.7261 24.2681ZM53.9668 24.209C54.0527 24.3003 54.1709 24.3486 54.332 24.3647L54.5737 24.3862L54.2998 24.3916C54.1064 24.397 53.9668 24.4399 53.8271 24.5366L53.6284 24.6709L53.7734 24.4829C53.9238 24.2842 53.9131 24.1338 53.7519 24.1338C53.6929 24.1338 53.4727 24.2036 53.2578 24.2949C52.8496 24.4614 52.7261 24.499 52.9087 24.3916C53.1128 24.2734 53.6069 24.0801 53.7197 24.0801C53.7842 24.0801 53.8916 24.1392 53.9668 24.209ZM18.5068 25.0791C18.625 25.1597 18.7217 25.2295 18.7217 25.2402C18.7217 25.2778 18.1846 25.0146 18.1846 24.9771C18.1846 24.9019 18.292 24.9395 18.5068 25.0791ZM54.7026 25.02C54.6865 25.0308 54.5791 25.0845 54.4609 25.1328C54.23 25.2295 54.2676 25.1543 54.52 25.0254C54.6597 24.9556 54.7725 24.9502 54.7026 25.02ZM41.71 25.9707C42.7197 26.1587 43.7886 26.8516 44.4707 27.7539C44.7983 28.189 45.2817 29.043 45.0078 28.6992C44.7822 28.4146 44.0034 27.6196 43.9014 27.5659C43.8477 27.5391 43.9336 27.7271 44.1001 28.0063C44.3686 28.4629 44.6641 29.1235 44.6641 29.2793C44.6641 29.3115 44.7446 29.376 44.8413 29.4189C45.1797 29.5586 45.4106 30.0098 45.3408 30.3857C45.3193 30.4878 45.2173 30.6758 45.1152 30.7993C44.9111 31.0464 44.7178 31.3955 44.6157 31.7124C44.5566 31.895 44.562 31.9272 44.7124 32.1528C45.0186 32.604 45.0615 33.1948 44.8037 33.4526C44.7124 33.5386 44.6694 33.6621 44.6479 33.8931C44.605 34.3174 44.5674 34.3926 44.4277 34.3926C44.2827 34.3926 44.1807 34.2046 44.1807 33.936C44.1807 33.5762 44.0732 33.4849 43.9443 33.7373C43.8853 33.8555 43.853 34.4517 43.8047 36.729C43.6973 41.4824 43.6758 41.6973 43.6274 38.3027C43.606 36.6538 43.5737 35.2681 43.5576 35.2251C43.5361 35.1768 43.4824 35.1445 43.4341 35.1553C43.3159 35.1768 43.2891 35.4292 43.2461 37.019C43.2031 38.394 43.1709 38.6357 42.999 38.6357C42.7949 38.6357 42.7788 38.5229 42.7842 37.2017C42.7949 34.1885 42.7842 32.835 42.7358 32.835C42.709 32.835 42.6553 33.0928 42.6177 33.4043C42.5532 33.9683 42.5532 33.9683 42.4189 33.936C42.3437 33.9199 42.2363 33.936 42.1611 33.9897C41.9194 34.1455 42.043 34.5 42.3384 34.5C42.4082 34.5 42.4619 34.5161 42.4512 34.5376C42.2632 34.8975 42.2363 35.0264 42.2578 35.4453C42.2686 35.7998 42.2954 35.918 42.3975 36.0522C42.6875 36.4443 42.4082 37.1855 42.0806 36.8848C41.8926 36.7129 41.812 36.2993 41.7637 35.166C41.7368 34.5752 41.6885 33.979 41.6616 33.8447C41.5918 33.5386 41.6133 33.4688 41.8496 33.2915C42.0107 33.168 42.0322 33.125 42.0322 32.9102C42.0322 32.4214 41.7368 32.083 41.3179 32.083C41.0386 32.083 40.8022 32.2173 40.7163 32.4214L40.6465 32.5933L40.6143 32.3516C40.5981 32.2173 40.5605 31.4707 40.5283 30.6865C40.4746 29.2524 40.3779 27.6465 40.3403 27.5444C40.3188 27.4854 40.3188 27.5015 40.2705 29.1182C40.2383 30.0796 40.2222 30.2192 40.1362 30.2622C40.0073 30.3374 39.8838 30.5952 39.8838 30.8047C39.8838 30.9014 39.9429 31.127 40.0181 31.3042C40.0933 31.4868 40.1523 31.7339 40.1523 31.8735C40.1523 32.083 40.1309 32.1367 40.0127 32.2173C39.7119 32.4106 39.6421 32.8779 39.8569 33.2969C40.0127 33.603 40.0234 33.8931 39.9375 35.542C39.8569 37.062 39.7441 37.5078 39.4541 37.5078C39.2446 37.5078 39.1909 37.2017 39.0996 35.5742C39.0566 34.7095 39.0029 34.8115 38.9438 35.875C38.8633 37.5347 38.8257 37.8784 38.7075 38.0234C38.5571 38.2168 38.5571 38.582 38.7021 38.7163C38.8418 38.8452 38.8418 39.0439 38.6968 39.1191C38.5464 39.2051 38.4014 39.0654 38.3101 38.7593C38.2402 38.5283 38.2402 38.5229 38.1436 38.6304C38.0898 38.6895 38.0361 38.8291 38.02 38.9473C37.9985 39.1245 38.02 39.2212 38.1597 39.4575C38.2563 39.6294 38.3262 39.8281 38.3262 39.9355C38.3262 40.1558 38.1543 40.4082 37.9985 40.4082C37.9072 40.4082 37.8965 40.4512 37.8965 40.8755C37.8911 41.1387 37.8696 42.3364 37.8428 43.5503C37.7998 45.6396 37.7676 46.0479 37.6333 46.0479C37.4883 46.0479 37.4561 45.6128 37.4131 42.9863C37.3486 39.2266 37.3325 38.9902 37.1392 38.5767L36.9834 38.249L36.9243 35.8481C36.8437 32.3516 36.7686 32.2549 36.688 35.5474C36.6719 36.2241 36.6343 37.3145 36.602 37.9644C36.5322 39.5811 36.4033 42.9863 36.355 44.6782L36.312 46.0747L36.2798 44.9468C36.2637 44.3237 36.2422 42.7017 36.2368 41.3374C36.2314 38.8882 36.1562 35.6172 36.0757 34.543C36.0327 33.9414 36.0327 34.0327 35.9092 38.9526C35.8608 40.8218 35.8447 41.0903 35.7588 41.2085C35.7051 41.2891 35.646 41.5415 35.6138 41.7993C35.5815 42.0732 35.5332 42.2612 35.4956 42.2773C35.4473 42.2881 35.4258 42.2397 35.4258 42.1377C35.4258 41.9175 35.2378 41.6973 35.0552 41.6973C34.8081 41.6973 34.6523 41.9175 34.6523 42.2612C34.6523 42.5889 34.7705 42.7715 34.98 42.7715C35.1465 42.7715 35.1572 43.0078 34.9907 43.0938C34.792 43.2012 34.6362 43.1152 34.5342 42.8521C34.459 42.6426 34.4482 42.4976 34.4805 41.8584C34.5181 41.1226 34.5127 41.1064 34.3945 40.9829C34.271 40.8594 34.271 40.854 34.3623 40.6982C34.4268 40.5854 34.4644 40.3599 34.4912 39.9463C34.5342 39.2266 34.4912 38.8989 34.3301 38.7056C34.2334 38.5928 34.2012 38.4854 34.1958 38.2705C34.1958 38.1147 34.1797 37.959 34.1636 37.9321C34.1421 37.9053 34.1636 37.8677 34.2065 37.8516C34.3569 37.7979 34.416 37.5186 34.4214 36.8794C34.4321 36.3369 34.416 36.2241 34.3301 36.0952L34.228 35.9448L34.4482 35.7192C34.9531 35.2036 34.9692 34.5537 34.4805 34.1294L34.2871 33.9575V33.3452C34.2871 32.7544 34.2925 32.7222 34.4321 32.5557C34.7705 32.1528 34.8135 31.6318 34.5449 31.2236C34.4214 31.0356 34.3999 30.9175 34.3247 30.0098C34.2764 29.4512 34.228 28.9893 34.2173 28.9731C34.2012 28.9624 34.1904 29.6392 34.1904 30.4878C34.1904 31.4438 34.1689 32.0776 34.1313 32.1743C34.1045 32.2549 33.981 32.4375 33.8628 32.5771L33.6533 32.8296V34.2529C33.6533 35.6602 33.6211 35.9502 33.4707 35.9502C33.2827 35.9502 33.2559 35.7998 33.2129 34.3765C33.1753 33.0874 33.1377 32.7974 33.0249 32.9102C32.998 32.9316 32.9604 33.5601 32.939 34.3013C32.896 35.6709 32.8638 36.0039 32.7671 36.02C32.6811 36.0361 32.6436 35.5742 32.5522 33.5601C32.4717 31.8252 32.332 29.7251 32.2891 29.6821C32.2783 29.6714 32.2568 30.1763 32.2353 30.8047C32.2192 31.4331 32.187 32.1689 32.1709 32.4429C32.1387 32.9209 32.1279 32.937 31.9829 32.9961C31.6875 33.1196 31.521 33.5547 31.623 33.9521C31.6821 34.1831 31.9346 34.5107 32.0957 34.5645C32.1602 34.5859 32.144 34.6289 32.0205 34.7686L31.8701 34.9512L31.9077 35.687C31.9399 36.3638 31.9346 36.4443 31.8325 36.6753L31.7197 36.9277L31.8486 37.0942C32.0474 37.3521 32.1064 37.54 32.0151 37.6152C31.9775 37.6475 31.9077 37.7549 31.8594 37.8569C31.7788 38.0234 31.7788 38.0718 31.8755 38.5122C32.0957 39.5112 32.1172 40.5962 31.9185 40.9829C31.6982 41.4019 31.1504 41.2139 31.1934 40.7358C31.2095 40.5747 31.2417 40.5264 31.4082 40.4512C31.6606 40.333 31.7734 40.1665 31.7734 39.9194C31.7734 39.4575 31.231 39.1943 30.9731 39.5273C30.8872 39.6401 30.8603 39.7476 30.8603 40.0107C30.8603 40.3706 30.7905 40.4673 30.7314 40.188C30.6777 39.9194 30.6938 39.7852 30.8066 39.4468C30.9302 39.0923 30.9033 38.9365 30.6777 38.7539C30.5649 38.668 30.5435 38.6196 30.5703 38.4854C30.5918 38.3833 30.5703 38.2544 30.5166 38.147C30.4683 38.0503 30.436 37.9697 30.4414 37.9697C30.6294 37.9053 30.8013 37.7603 30.8818 37.5938C30.9785 37.4004 30.9785 37.3735 30.8979 37.2178C30.8442 37.1157 30.8013 36.8311 30.7852 36.4604C30.7476 35.7676 30.6885 35.5259 30.5112 35.311C30.4092 35.1929 30.3769 35.0908 30.3769 34.8975C30.3716 34.7524 30.3447 34.5645 30.3071 34.4785C30.2427 34.3389 30.2534 34.312 30.3877 34.1724C30.5596 34.0005 30.5649 33.9629 30.479 32.9585C30.4521 32.5771 30.3877 32.1636 30.3394 32.04C30.2642 31.8198 30.2642 31.7822 30.3769 31.4009C30.5166 30.939 30.5005 30.6006 30.3232 30.1333C30.1782 29.7573 30.189 29.666 30.3823 29.4028C30.5273 29.1987 30.5381 29.1611 30.4683 29.0859C30.334 28.9302 30.248 28.7368 30.189 28.4307C30.1245 28.1353 30.1245 28.1353 29.9419 28.1514C29.6787 28.1782 29.3779 28.3931 29.2383 28.6616C29.1309 28.8657 29.1201 29 29.0825 30.1494C29.0557 30.8423 29.0234 32.2817 29.0019 33.3398C28.9858 34.4033 28.9482 35.2358 28.9268 35.1929C28.9053 35.1499 28.873 34.0972 28.8623 32.8511C28.8354 30.4019 28.8569 30.5845 28.54 30.1924C28.3789 29.9883 28.3896 29.5317 28.5723 29.0913C28.6475 28.9033 28.7119 28.6509 28.7119 28.5273C28.7119 28.3662 28.7817 28.1567 28.9429 27.8237C29.0664 27.5659 29.1631 27.3564 29.1523 27.3564C29.0395 27.3564 28.2339 28.2051 27.8364 28.7529C27.7827 28.8281 27.8149 28.7422 27.9116 28.5649C28.6313 27.2114 29.6733 26.3521 30.9893 26.0137C31.5049 25.8848 32.3965 25.8687 32.9443 25.9868C34.2978 26.2715 35.3882 27.1738 35.6675 28.2427C35.7642 28.6187 35.7695 28.9033 35.689 29.3867C35.6353 29.7144 35.6138 29.752 35.458 29.8271C35.1411 29.9775 35.1357 30.4233 35.4526 30.5737C35.7373 30.7134 35.8286 30.606 36.4463 29.3706C37.0801 28.1084 37.397 27.5874 37.8052 27.1577C38.7612 26.1426 40.2383 25.6968 41.71 25.9707ZM19.0977 28.1621C19.1514 28.1997 19.103 28.2051 18.9365 28.1836C18.6357 28.1406 18.5928 28.1084 18.8345 28.1084C18.9365 28.1084 19.0547 28.1353 19.0977 28.1621ZM54.332 28.2427C54.332 28.3179 54.3105 28.377 54.2837 28.377C54.2568 28.377 54.2461 28.3286 54.2622 28.2695C54.2837 28.1836 54.2622 28.1621 54.1494 28.1621C54.0688 28.1621 53.9561 28.189 53.897 28.2158C53.8379 28.2534 53.7949 28.2534 53.7949 28.2212C53.7949 28.1514 53.897 28.1191 54.1333 28.1138C54.3105 28.1084 54.332 28.1245 54.332 28.2427ZM18.6304 28.4951C18.7969 28.5811 18.6948 28.6025 18.4477 28.5327C18.3188 28.5005 17.9536 28.4683 17.6367 28.4629C17.3198 28.4629 17.0996 28.4414 17.1533 28.4199C17.2769 28.3662 18.5068 28.4307 18.6304 28.4951ZM55.852 28.436C56.1528 28.5166 56.0776 28.5327 55.6855 28.4683C55.417 28.4199 55.2397 28.4253 54.7993 28.5005C54.4932 28.5488 54.1978 28.6025 54.1387 28.6187C54.042 28.6509 54.042 28.6509 54.1333 28.5918C54.2568 28.5112 54.9658 28.3931 55.3525 28.3823C55.5137 28.3823 55.7393 28.4038 55.852 28.436ZM52.6885 30.5791C52.6938 31.7178 52.6724 32.1206 52.5918 32.5933C52.4897 33.2056 52.0708 34.7256 51.7163 35.7783L51.5068 36.3906L51.2222 35.9233C50.959 35.4883 50.9429 35.4453 51.0019 35.3003L51.0718 35.1445L51.1899 35.397C51.4424 35.9287 51.4316 35.9287 51.7217 35.1338C51.9795 34.4248 52.2642 33.4365 52.2266 33.3936C52.2158 33.3828 52.1138 33.6406 52.001 33.9683C51.8882 34.2905 51.727 34.645 51.6411 34.7471C51.5605 34.8545 51.4746 34.9834 51.4585 35.0371C51.4316 35.1284 51.4155 35.1284 51.2651 35.0532C51.1738 35.0103 51.1147 34.9458 51.1255 34.9082C51.1899 34.7417 51.437 33.9414 51.5391 33.5977C51.6411 33.2432 51.668 33.2056 51.77 33.2324C52.0332 33.2969 52.1406 32.8887 51.8882 32.7705C51.7378 32.7007 51.7378 32.6846 51.8076 32.1904C51.8345 31.9971 51.8828 31.4653 51.9097 31.0034C51.9634 30.1816 51.9687 30.1548 52.2104 29.5962C52.3447 29.2847 52.479 28.957 52.5112 28.8765L52.5757 28.7261L52.6294 28.9409C52.667 29.0645 52.6885 29.7573 52.6885 30.5791ZM20.623 29.5586C20.9023 30.2246 21.0205 30.6919 21.0312 31.1538C21.0312 31.2236 20.897 31.4331 20.7144 31.6533L20.3921 32.0347L20.478 32.3086C20.521 32.459 20.5801 32.647 20.6123 32.7222L20.666 32.8618L20.8701 32.6309C20.9829 32.5073 21.0903 32.4214 21.1011 32.4429C21.1172 32.4644 21.2192 32.835 21.3267 33.2593C21.4341 33.6836 21.5845 34.1992 21.6543 34.4087C21.8154 34.8813 21.8154 34.8867 21.6328 34.9941L21.4824 35.0854L21.418 34.8438C21.3643 34.6558 21.3213 34.5913 21.2031 34.5483C21.0796 34.5054 21.042 34.4409 20.956 34.1348C20.897 33.936 20.8057 33.6782 20.7519 33.5601C20.6982 33.4419 20.666 33.3882 20.6821 33.4419C20.6982 33.501 20.7949 33.8716 20.897 34.269C21.0957 35.0317 21.2192 35.3325 21.2998 35.2788C21.332 35.2573 21.3535 35.3057 21.3535 35.3755C21.3535 35.4453 21.3804 35.585 21.4126 35.6763L21.4717 35.8481L21.6597 35.5903C21.8423 35.3325 21.9819 35.252 21.9551 35.4238C21.9282 35.6064 21.4394 36.3745 21.3965 36.3101C21.3159 36.1865 20.7036 34.2744 20.5264 33.5654C20.4243 33.1733 20.3061 32.6416 20.2685 32.373C20.1558 31.5889 20.1826 28.6885 20.3061 28.812C20.3115 28.8228 20.4565 29.1611 20.623 29.5586ZM23.4214 29.8755C23.2495 30.8477 23.2602 32.1206 23.4536 33.082L23.5073 33.3613L23.04 34.0918C22.7822 34.4946 22.5566 34.8223 22.5405 34.8223C22.4653 34.8223 22.0947 33.5386 21.998 32.9531C21.896 32.3301 21.7832 31.3525 21.7832 31.0625C21.7832 30.939 21.9175 30.7886 22.6265 30.1602C23.0937 29.7412 23.4805 29.4082 23.4858 29.4189C23.4912 29.4243 23.4644 29.6284 23.4214 29.8755ZM50.4058 30.23L51.1577 30.8745V31.1162C51.1631 31.4814 51.0127 32.7383 50.8838 33.3452C50.7817 33.8394 50.4971 34.7417 50.4111 34.8384C50.395 34.8599 50.1533 34.5537 49.8848 34.1562L49.3906 33.4312L49.4819 32.9048C49.6377 32.0078 49.6001 30.2729 49.4067 29.5103L49.3745 29.376L49.5142 29.4834C49.5894 29.5371 49.9922 29.8755 50.4058 30.23ZM18.5928 31.9648C18.4961 32.0508 18.4961 32.0508 18.5605 31.9326C18.5928 31.8628 18.6357 31.8198 18.6572 31.8359C18.6733 31.8574 18.6465 31.9111 18.5928 31.9648ZM54.3965 31.9487C54.4126 32.0186 54.4072 32.0669 54.3857 32.0562C54.3267 32.0186 54.2783 31.8145 54.332 31.8145C54.3535 31.8145 54.3857 31.8735 54.3965 31.9487ZM16.9922 31.9595C16.8794 31.9702 16.686 31.9702 16.5625 31.9595C16.4336 31.9487 16.5249 31.938 16.7612 31.938C16.9976 31.938 17.0996 31.9487 16.9922 31.9595ZM56.3569 31.9595C56.2495 31.9702 56.0776 31.9702 55.981 31.9595C55.8896 31.9487 55.981 31.938 56.1851 31.938C56.3945 31.938 56.4697 31.9487 56.3569 31.9595ZM17.959 32.0132C17.814 32.0239 17.5884 32.0239 17.4487 32.0132C17.3037 32.0024 17.4219 31.9971 17.7012 31.9971C17.9805 31.9971 18.0986 32.0024 17.959 32.0132ZM53.9023 31.9971C53.9023 32.0078 53.8647 32.0347 53.8164 32.0508C53.7734 32.0669 53.7519 32.0615 53.7681 32.0293C53.8003 31.9756 53.9023 31.9541 53.9023 31.9971ZM55.5298 32.0132C55.374 32.0239 55.1162 32.0239 54.9658 32.0132C54.8101 32.0024 54.9336 31.9971 55.2451 31.9971C55.5566 31.9971 55.6802 32.0024 55.5298 32.0132ZM24.9575 33.9575L25.5054 34.5645L25.4033 34.7363C25.21 35.0693 22.8413 38.7163 22.7822 38.7861C22.7285 38.8452 22.6372 38.7163 22.3257 38.1523C22.1108 37.7656 21.9443 37.438 21.9551 37.4219C21.9658 37.4111 22.1055 37.5938 22.2612 37.8301C22.417 38.0664 22.562 38.2705 22.5835 38.2812C22.605 38.2974 22.7822 38.0396 22.981 37.7119C23.3086 37.1533 23.3301 37.105 23.2656 36.9761C23.2227 36.9009 23.1743 36.7559 23.1528 36.6538C23.1152 36.4766 23.1206 36.4712 23.2012 36.5571C23.3623 36.7183 23.5449 36.729 23.6953 36.5894C23.9531 36.3477 23.8242 36.0952 23.3569 35.9072C23.0615 35.7891 23.0185 35.7998 23.0185 35.9717C23.0185 36.063 23.0078 36.0684 22.9648 36.0039C22.9058 35.918 22.7607 36.0522 22.331 36.5679C22.229 36.686 22.1645 36.7559 22.1753 36.729C22.272 36.5303 23.9424 33.8447 24.2109 33.4634C24.27 33.3828 24.3398 33.3184 24.3613 33.3291C24.3882 33.3398 24.6567 33.6191 24.9575 33.9575ZM48.9985 33.9736C49.2349 34.3389 49.6216 34.9243 49.8472 35.2788L50.2554 35.9233L50.0996 35.9609C49.9976 35.9878 49.917 36.0576 49.874 36.165C49.7612 36.439 49.6807 36.4658 49.5195 36.2778C49.3799 36.106 49.1758 36.0522 49.1758 36.1812C49.1758 36.2241 49.2725 36.4067 49.396 36.5947C49.5142 36.7773 49.6592 37.0566 49.7129 37.207C49.772 37.3574 49.9277 37.6689 50.0674 37.9053L50.3144 38.3242L50.5776 37.959C50.9644 37.4219 51.0073 37.3682 50.9912 37.4326C50.9644 37.5293 50.2285 38.8506 50.1963 38.8506C50.1694 38.8506 47.4517 34.6987 47.4141 34.6021C47.3979 34.5591 48.4722 33.3184 48.5312 33.3184C48.5474 33.3184 48.7568 33.6138 48.9985 33.9736ZM19.7153 35.252C19.7314 35.2788 19.7153 35.3057 19.6724 35.3057C19.6294 35.3057 19.2964 35.4238 18.9311 35.5688C18.206 35.8535 17.8516 35.9663 18.2383 35.7837L18.48 35.6709L18.292 35.5098C18.1147 35.3486 18.1362 35.3594 18.4853 35.5742C18.5874 35.6387 18.6572 35.6226 19.0225 35.4722C19.2588 35.3809 19.4844 35.2788 19.5273 35.252C19.6294 35.1875 19.6724 35.1875 19.7153 35.252ZM53.8486 35.4399C54.1816 35.5742 54.4717 35.6655 54.4985 35.6494C54.5254 35.6333 54.5469 35.644 54.5469 35.6763C54.5469 35.7031 54.6113 35.7515 54.6973 35.7783C54.7778 35.8105 54.8154 35.8374 54.7832 35.8374C54.751 35.8428 54.4019 35.7192 54.0098 35.5688C53.6177 35.4238 53.2632 35.311 53.2256 35.3271C53.1504 35.3594 53.1235 35.2949 53.188 35.2358C53.231 35.1875 53.1719 35.166 53.8486 35.4399ZM25.8061 37.5991C25.9458 37.9966 26.6709 39.4253 27.0146 39.9678C27.7397 41.1172 28.7871 42.3042 29.9311 43.2764L30.4253 43.6953L30.624 44.2915C30.7314 44.6245 30.9409 45.2153 31.0806 45.6074C31.2256 46.0049 31.3437 46.3379 31.3437 46.354C31.3437 46.3647 31.2148 46.2734 31.0644 46.1392C30.9087 46.0103 30.6401 45.8008 30.4736 45.6772L30.1675 45.4463L29.6465 45.6074L29.1309 45.7686L28.6367 45.3496C28.0835 44.877 27.1973 44.1196 26.1016 43.1743C25.6934 42.8252 24.9951 42.1807 24.5547 41.751L23.7598 40.9668L23.8779 40.7305L23.9961 40.4941L24.1143 40.6553C24.6084 41.3374 25.8599 42.6104 27.0415 43.6255C28.1372 44.5654 29.1362 45.3496 29.2436 45.3496C29.3887 45.3496 30.0063 45.1294 29.9902 45.0811C29.9795 45.0596 29.7217 44.8286 29.4102 44.5708C27.3477 42.8359 25.7739 41.3374 25.833 41.1763C25.9834 40.7896 25.9888 40.6392 25.876 40.4028C25.7578 40.1611 25.2207 39.4468 25.1562 39.4414C25.1348 39.4414 25.0327 39.5864 24.9199 39.7637L24.7212 40.0806L24.5762 39.8818L24.4258 39.6831L24.6782 39.2266C25.355 37.9805 25.6826 37.4004 25.7041 37.4004C25.7256 37.4004 25.7685 37.4917 25.8061 37.5991ZM47.8545 38.5552L48.4722 39.6777L48.3701 39.8389C48.3164 39.9302 48.2466 40.0107 48.2251 40.0161C48.2036 40.0269 48.0962 39.8979 47.9995 39.7368C47.8975 39.5757 47.8008 39.4414 47.7847 39.4414C47.7632 39.4468 47.5644 39.7153 47.3335 40.043C46.8877 40.6875 46.6353 41.3052 46.748 41.4878C46.7964 41.563 46.6943 41.6812 46.1787 42.1914C45.4536 42.9004 43.7241 44.4097 43.0957 44.8877C42.9829 44.9736 42.8916 45.0542 42.8916 45.0757C42.8916 45.1187 43.5845 45.3496 43.708 45.3496C43.8638 45.3496 45.5664 43.9478 46.9307 42.7017C47.457 42.2183 48.3271 41.2729 48.6924 40.7842L48.8965 40.5103L49.0093 40.6929C49.0737 40.7949 49.1221 40.9077 49.1221 40.9399C49.1221 41.0474 47.7524 42.3848 46.8394 43.1743C46.3667 43.5771 45.4966 44.3291 44.9004 44.8447L43.8262 45.7739L43.3428 45.6128C43.0796 45.5269 42.8271 45.457 42.7788 45.457C42.7305 45.457 42.4189 45.6772 42.0859 45.9512C41.7476 46.2251 41.4951 46.397 41.522 46.3433C41.5435 46.2842 41.7744 45.6611 42.0376 44.9521C42.4673 43.7759 42.521 43.6577 42.709 43.502C43.939 42.4976 45.0561 41.2568 45.8726 39.9785C46.1572 39.5381 46.8125 38.2759 47.0488 37.728C47.124 37.54 47.2046 37.395 47.2153 37.4111C47.2261 37.4219 47.5161 37.9375 47.8545 38.5552ZM51.9634 38.7217C51.8828 38.8184 51.8452 38.7915 51.8936 38.668C51.9097 38.6196 51.9473 38.5981 51.9795 38.6143C52.0063 38.6304 52.001 38.6787 51.9634 38.7217ZM21.0742 38.7485C21.0957 38.8076 21.085 38.8076 21.0259 38.7593C20.9722 38.7056 20.9399 38.7056 20.8755 38.7593C20.8003 38.8184 20.8003 38.813 20.8647 38.7271C20.9507 38.6196 21.0366 38.6304 21.0742 38.7485ZM20.6445 38.8345C20.5854 38.8506 20.5478 38.9097 20.5478 38.9902C20.5478 39.103 20.5317 39.1191 20.4136 39.0869C20.3061 39.0601 20.2363 39.0923 20.0644 39.2695C19.9463 39.3877 19.8496 39.4736 19.8496 39.4575C19.8496 39.3608 19.9946 39.2104 20.1934 39.0923C20.3276 39.0171 20.4619 38.9204 20.4941 38.8774C20.5317 38.8345 20.6016 38.8022 20.6499 38.8022C20.7197 38.8076 20.7197 38.813 20.6445 38.8345ZM52.4521 38.8989C52.4521 38.9258 52.5596 39.0117 52.6885 39.0869C52.8174 39.1621 52.9624 39.2803 53.0107 39.3555C53.1504 39.5703 53.1128 39.5596 52.8872 39.3232C52.7422 39.1621 52.6348 39.0977 52.5273 39.0923C52.4092 39.0923 52.3662 39.0654 52.3555 38.9688C52.3447 38.9043 52.3608 38.8506 52.3931 38.8506C52.4253 38.8506 52.4521 38.8721 52.4521 38.8989ZM23.4482 42.3149C23.3784 42.3901 23.3032 42.4492 23.2764 42.4492C23.228 42.4492 23.5019 42.186 23.5503 42.1807C23.5664 42.1807 23.5181 42.2397 23.4482 42.3149ZM49.6323 42.4385C49.6162 42.4546 49.5732 42.4385 49.5356 42.4009C49.4873 42.3472 49.4927 42.3418 49.5679 42.374C49.6216 42.3901 49.6484 42.4224 49.6323 42.4385ZM23.0991 43.1475C22.9541 43.2119 22.8682 43.2119 22.9648 43.1475C23.0078 43.1206 23.083 43.0991 23.126 43.0991C23.1797 43.0991 23.1689 43.1152 23.0991 43.1475ZM50.1265 43.2334C50.0996 43.2603 49.8203 43.1636 49.8203 43.126C49.8203 43.1099 49.8955 43.126 49.9868 43.1582C50.0728 43.1904 50.1372 43.2227 50.1265 43.2334ZM41.1353 45.7739L40.7217 47.0684L39.9644 47.7344C39.5508 48.0996 38.6431 48.873 37.9502 49.4585C37.2573 50.0439 36.6343 50.5703 36.5698 50.6294C36.4517 50.7314 36.4517 50.7314 36.2959 50.6079C35.8447 50.2427 33.4277 48.1802 32.8477 47.6699L32.1763 47.0737L31.7627 45.7954C31.5371 45.0972 31.3599 44.5063 31.376 44.4956C31.3867 44.4795 31.5264 44.5923 31.6821 44.7373C31.8325 44.8877 32.4556 45.4409 33.0571 45.9727C33.6587 46.499 34.2603 47.0361 34.3999 47.165L34.647 47.396L34.3784 47.2241C34.0615 47.02 33.2021 46.3647 32.4502 45.7578C32.1548 45.5215 31.9292 45.3657 31.9507 45.4141C31.9668 45.4624 32.0581 45.7847 32.1548 46.123C32.3428 46.8052 32.3105 46.7622 33.186 47.5518C33.3257 47.6753 33.4385 47.8096 33.4385 47.8472C33.4385 47.8848 33.6587 48.0996 33.9272 48.3198C34.1958 48.5454 34.8618 49.1201 35.4043 49.6035C35.9521 50.0869 36.4194 50.479 36.4463 50.479C36.4839 50.479 38.3208 48.8892 39.1855 48.0996L39.481 47.8311L39.3252 47.6646C39.2124 47.5464 39.1855 47.4819 39.2231 47.4336C39.2554 47.396 39.2983 47.251 39.3144 47.1113C39.3467 46.8965 39.395 46.8213 39.5991 46.644C39.8354 46.4346 40.3188 46.209 40.5283 46.209C40.5874 46.209 40.668 46.1553 40.7109 46.0854C40.7861 45.9619 40.9795 45.3496 40.9473 45.3228C40.9365 45.312 40.6519 45.5269 40.3135 45.8008C39.1103 46.7676 38.1113 47.5518 38.1113 47.5303C38.1113 47.5142 38.7827 46.9072 39.5991 46.1714C40.4209 45.4409 41.1836 44.748 41.3071 44.6406C41.4253 44.5332 41.5273 44.4526 41.5381 44.4634C41.5488 44.4688 41.3662 45.0596 41.1353 45.7739ZM27.8848 46.252C27.7935 46.3379 27.7881 46.3379 27.8579 46.2251C27.8955 46.1606 27.9385 46.1177 27.9546 46.1338C27.9707 46.1445 27.9385 46.1982 27.8848 46.252ZM45.1689 46.354L45.373 46.6118L45.1582 46.3916C44.9917 46.2197 44.9272 46.1821 44.8735 46.2305C44.8198 46.2734 44.8198 46.2627 44.8735 46.1929C44.9111 46.1445 44.9487 46.1016 44.9541 46.1016C44.9595 46.1016 45.0561 46.2144 45.1689 46.354ZM27.7988 46.3916C27.7988 46.4023 27.7559 46.4453 27.7075 46.4829C27.6216 46.5527 27.6162 46.5474 27.686 46.4614C27.7559 46.3755 27.7988 46.3486 27.7988 46.3916ZM35.3506 47.9976C35.6782 48.293 35.7212 48.3521 35.6675 48.4272C35.5762 48.5562 35.5225 48.54 35.3613 48.3359C35.2808 48.2339 35.1089 48.1104 34.9692 48.062C34.835 48.0083 34.7275 47.9492 34.7275 47.9277C34.7275 47.9062 34.7436 47.8149 34.7598 47.7236C34.8027 47.5142 34.835 47.5303 35.3506 47.9976ZM30.3232 47.7666C30.3232 47.7935 30.2964 47.8203 30.2642 47.8203C30.2266 47.8203 30.2158 47.8687 30.2319 47.9438C30.2695 48.0835 30.1943 48.2393 30.1406 48.1479C30.1191 48.1157 30.1353 48.0889 30.1728 48.0889C30.2319 48.0889 30.2319 48.0781 30.1728 48.0405C30.1191 48.0083 30.1138 47.9707 30.1675 47.8579C30.2319 47.7129 30.3232 47.6646 30.3232 47.7666ZM42.7144 47.9868C42.7519 48.0728 42.7573 48.1533 42.7251 48.2017C42.6875 48.2607 42.6768 48.25 42.6768 48.1641C42.6768 48.0996 42.6445 48.019 42.6016 47.9814C42.5586 47.9492 42.5371 47.8848 42.5532 47.8418C42.5854 47.7505 42.6284 47.7881 42.7144 47.9868ZM30.0815 48.8408C30.0117 49.061 29.9526 49.2061 29.9473 49.1577C29.9473 49.1094 29.9687 49.002 30.001 48.916C30.0278 48.8301 30.0815 48.6528 30.1138 48.5186C30.1514 48.3843 30.189 48.3145 30.1997 48.3574C30.2104 48.4004 30.1567 48.6206 30.0815 48.8408ZM42.7305 48.4702C42.7305 48.4971 42.8433 48.7656 42.9775 49.061C43.1118 49.3564 43.2139 49.6089 43.2031 49.625C43.1709 49.6519 42.8218 48.9106 42.709 48.583C42.6606 48.4541 42.6499 48.3682 42.6768 48.3843C42.709 48.4004 42.7305 48.4434 42.7305 48.4702ZM29.8721 49.4424L30.0278 49.6196L29.856 49.4639C29.6894 49.3135 29.6519 49.2705 29.6948 49.2705C29.7056 49.2705 29.7808 49.3511 29.8721 49.4424ZM29.9204 49.8506C29.9043 49.8667 29.8613 49.8506 29.8237 49.813C29.7754 49.7593 29.7808 49.7539 29.856 49.7861C29.9097 49.8022 29.9365 49.8345 29.9204 49.8506ZM32.7134 51.0913C32.5254 51.4673 32.4985 51.4351 32.6758 51.0483C32.7563 50.8765 32.8262 50.7529 32.8369 50.7798C32.8477 50.8013 32.7939 50.9409 32.7134 51.0913ZM40.2329 51.0591C40.3027 51.2256 40.3564 51.3652 40.3403 51.3652C40.3027 51.3652 40.0449 50.8442 40.0449 50.769C40.0449 50.667 40.0825 50.7261 40.2329 51.0591ZM35.7051 53.5083C36.0757 53.7446 36.4141 53.9434 36.4517 53.9434C36.4893 53.9434 36.8437 53.7339 37.2412 53.4707C37.644 53.2129 38.0039 52.9819 38.0522 52.9551C38.1006 52.9336 37.9502 53.1001 37.7192 53.3311C37.4399 53.6104 37.2895 53.8091 37.2519 53.938C37.2251 54.0454 37.1821 54.2012 37.1606 54.2925C37.123 54.4375 37.1177 54.4214 37.1016 54.1689L37.0854 53.8896L36.8491 54.0562C36.7202 54.1475 36.602 54.2549 36.5859 54.2925C36.5752 54.3301 36.543 54.647 36.5215 54.9961C36.4678 55.9253 36.4141 55.9521 36.3711 55.0659L36.3335 54.2925L36.1348 54.1206C36.0273 54.0239 35.9199 53.9487 35.8984 53.9434C35.8716 53.9434 35.8555 54.0669 35.8555 54.2173C35.8555 54.5718 35.7695 54.5127 35.7212 54.1206C35.6836 53.8252 35.6621 53.793 35.2432 53.3525C35.0068 53.1055 34.8564 52.9336 34.9155 52.9819C34.9746 53.0303 35.3291 53.2666 35.7051 53.5083Z" fill="white"/>
<path d="M23.7651 22.9894C22.8628 23.9186 22.3257 24.6867 21.7563 25.8629C21.3857 26.631 21.0312 27.5548 21.0312 27.7536C21.0312 27.8234 21.1548 28.1403 21.3052 28.4626C21.5039 28.8922 21.5898 29.0212 21.6221 28.9621C21.6489 28.9191 21.7295 28.6129 21.8047 28.2799C21.9819 27.4904 22.1645 26.964 22.4814 26.2926C22.938 25.3366 23.647 24.3322 24.4795 23.4567L24.9683 22.9464L24.7104 22.6833C24.5654 22.5329 24.4204 22.4147 24.3828 22.4147C24.3506 22.4147 24.0713 22.6725 23.7651 22.9894Z" fill="white"/>
<path d="M24.2969 24.1605C24.2378 24.2894 24.2432 24.3163 24.3345 24.3808C24.4634 24.4774 24.5386 24.4076 24.5117 24.2089C24.4902 24.0102 24.3774 23.9833 24.2969 24.1605Z" fill="white"/>
<path d="M25.5806 24.4127C25.4355 24.4879 25.3926 24.5416 25.4302 24.5792C25.5 24.649 25.8652 24.4664 25.8652 24.3644C25.8652 24.2731 25.8223 24.2784 25.5806 24.4127Z" fill="white"/>
<path d="M24.9683 24.8159C24.8716 24.8481 24.8823 24.9932 24.9736 24.9932C25.0757 24.9932 25.1401 24.8911 25.0811 24.832C25.0542 24.8105 25.0005 24.8052 24.9683 24.8159Z" fill="white"/>
<path d="M24.3667 24.9606C24.2754 25.0681 24.3398 25.2453 24.501 25.3527C24.6299 25.4333 24.6406 25.4333 24.7534 25.3259L24.8662 25.2077L24.7588 25.0627C24.6299 24.8908 24.4634 24.8478 24.3667 24.9606Z" fill="white"/>
<path d="M22.8413 28.1997C22.7876 28.248 22.793 28.4307 22.8467 28.4307C22.8735 28.4307 22.9487 28.3716 23.0185 28.2964L23.1421 28.1621H23.0078C22.938 28.1621 22.8574 28.1782 22.8413 28.1997Z" fill="white"/>
<path d="M21.8476 28.9082C21.8047 28.9351 21.7832 29.0264 21.7939 29.1499L21.81 29.3486L22.0142 29.1821C22.2505 28.978 22.272 28.8599 22.0679 28.8599C21.9819 28.8599 21.8852 28.8813 21.8476 28.9082Z" fill="white"/>
<path d="M48.209 22.657L47.9189 22.9471L48.3755 23.4197C49.8525 24.9559 50.7065 26.492 51.0825 28.2913C51.1577 28.6458 51.2383 28.9573 51.2705 28.9896C51.3618 29.0809 51.8291 28.0228 51.8237 27.7327C51.8237 27.2654 51.0557 25.493 50.4648 24.5906C49.96 23.8226 49.0522 22.7645 48.6333 22.469L48.4936 22.367L48.209 22.657Z" fill="white"/>
<path d="M48.2519 24.1712C48.1123 24.3377 48.0962 24.3914 48.1606 24.5311C48.2412 24.6976 48.3647 24.7459 48.5474 24.6761C48.73 24.6063 48.7891 24.3914 48.6709 24.2142C48.5688 24.0584 48.3701 24.0369 48.2519 24.1712Z" fill="white"/>
<path d="M49.8794 28.1026C49.7881 28.1617 49.8364 28.3121 49.96 28.3604C50.0728 28.4034 50.207 28.2584 50.1641 28.1456C50.1265 28.0489 49.9976 28.0274 49.8794 28.1026Z" fill="white"/>
<path d="M50.7925 28.855C50.728 28.9409 50.6797 29.0215 50.6797 29.0376C50.6797 29.0698 51.0234 29.29 51.0771 29.29C51.1416 29.29 51.1094 29.0161 51.0288 28.8604C50.9805 28.769 50.9375 28.6992 50.9214 28.6992C50.9106 28.6992 50.8516 28.769 50.7925 28.855Z" fill="white"/>
<path d="M40.4209 21.4482C40.3779 21.4751 40.3672 21.502 40.394 21.502C40.4263 21.502 40.4853 21.4751 40.5283 21.4482C40.5713 21.4214 40.5874 21.3945 40.5552 21.3945C40.5283 21.3945 40.4639 21.4214 40.4209 21.4482Z" fill="white"/>
<path d="M27.7666 22.1139C27.6108 22.2697 27.584 22.3341 27.584 22.5436C27.584 22.7477 27.6162 22.8229 27.7612 22.984C28.0889 23.3439 28.5776 23.2633 28.7871 22.8175C28.9858 22.4039 28.6689 21.9313 28.1909 21.9313C27.9868 21.9313 27.9224 21.9581 27.7666 22.1139ZM28.2822 22.1998C28.3413 22.2428 28.3252 22.2482 28.2231 22.2267C28.0298 22.1784 27.8525 22.3663 27.8472 22.6242C27.8472 22.796 27.8418 22.8014 27.7988 22.694C27.7451 22.5704 27.8042 22.3502 27.917 22.216C27.9868 22.1354 28.1694 22.1246 28.2822 22.1998Z" fill="white"/>
<path d="M44.3203 22.098C43.751 22.5975 44.3096 23.4139 45.0186 23.1239C45.228 23.0325 45.3623 22.8016 45.3623 22.5223C45.3623 22.3397 45.3301 22.2645 45.1797 22.1141C45.0239 21.9583 44.9595 21.9315 44.75 21.9315C44.5566 21.9315 44.4707 21.9637 44.3203 22.098ZM45.0723 22.2806C45.1689 22.431 45.1904 22.6619 45.1099 22.7425C45.083 22.7694 45.0723 22.721 45.083 22.6082C45.1099 22.3719 44.9326 22.1678 44.7715 22.2537C44.6265 22.3289 44.5889 22.3182 44.6641 22.2269C44.7661 22.1033 44.9702 22.1302 45.0723 22.2806Z" fill="white"/>
<path d="M42.2524 27.5503C41.9194 27.9746 42.4727 28.4365 42.8218 28.0283C42.9185 27.9209 42.9453 27.8403 42.9185 27.7382C42.8433 27.4106 42.4512 27.3032 42.2524 27.5503Z" fill="white"/>
<path d="M44.6479 29.8059C44.5781 29.8757 44.6103 30.0798 44.6963 30.155C44.8198 30.2571 44.9595 30.1497 44.9595 29.9563C44.9595 29.8274 44.9326 29.7952 44.8252 29.7844C44.75 29.7737 44.6694 29.7844 44.6479 29.8059Z" fill="white"/>
<path d="M41.001 30.7456C40.8882 30.8101 40.8721 31.1162 40.9687 31.2129C41.0063 31.2505 41.0977 31.2773 41.1728 31.2773C41.3608 31.2773 41.4414 31.186 41.4414 30.9712C41.4414 30.7295 41.2212 30.6167 41.001 30.7456Z" fill="white"/>
<path d="M44.3633 32.9106C44.3096 33.0502 44.3848 33.1684 44.5137 33.1469C44.605 33.1361 44.6372 33.0932 44.6372 32.9965C44.6372 32.8998 44.605 32.8568 44.5137 32.8461C44.4438 32.8354 44.3794 32.8622 44.3633 32.9106Z" fill="white"/>
<path d="M52.0869 32.0942C52.0171 32.164 52.001 32.4165 52.0601 32.4756C52.103 32.5239 52.3447 32.3037 52.3447 32.2124C52.3447 32.105 52.1567 32.0244 52.0869 32.0942Z" fill="white"/>
<path d="M20.6821 31.063C20.6553 31.1435 20.6821 31.2026 20.7734 31.2724C20.8433 31.3315 20.9023 31.3691 20.9077 31.3637C20.9346 31.3369 20.7949 30.9555 20.7573 30.9555C20.7358 30.9555 20.6982 31.0039 20.6821 31.063Z" fill="white"/>
<path d="M22.895 30.7402C22.8735 31.0195 22.8413 31.7822 22.8252 32.4321C22.8037 33.082 22.7661 33.6567 22.7393 33.7158C22.7017 33.7856 22.6479 33.8071 22.5352 33.7803C22.3901 33.7534 22.3848 33.7588 22.4277 33.8984C22.4492 33.979 22.4976 34.1133 22.5298 34.1992L22.5889 34.3496L22.6855 34.2261C23.0293 33.7695 23.04 33.748 23.0239 33.3237C23.0132 33.0981 22.9917 32.3086 22.9702 31.5728C22.9434 30.3857 22.9326 30.2891 22.895 30.7402Z" fill="white"/>
<path d="M49.9922 31.2557C49.9868 31.6693 49.9546 32.389 49.9224 32.8455C49.8633 33.7586 49.8686 33.7909 50.1641 34.1453C50.3091 34.3172 50.3843 34.3011 50.4272 34.0916C50.4434 33.9896 50.4111 33.9036 50.2983 33.7747C50.1479 33.6029 50.1426 33.5814 50.1426 33.0335C50.1426 32.5824 50.1587 32.4642 50.2231 32.4373C50.3359 32.3944 50.3252 32.2171 50.2017 32.1312C50.1103 32.0667 50.0889 31.9539 50.0459 31.2772L49.9976 30.4984L49.9922 31.2557Z" fill="white"/>
<path d="M24.3989 34.1135C24.2754 34.2478 24.2861 34.425 24.4204 34.5593C24.5601 34.6989 24.6406 34.6721 24.7212 34.4411C24.8232 34.135 24.5923 33.8986 24.3989 34.1135Z" fill="white"/>
<path d="M24.5762 34.9031C24.5762 35.1179 24.6245 35.1394 24.7266 34.9783C24.7803 34.8923 24.7803 34.8494 24.7319 34.7903C24.6299 34.6667 24.5762 34.7043 24.5762 34.9031Z" fill="white"/>
<path d="M24.2002 35.3321C24.2002 35.3858 24.2378 35.4127 24.2969 35.402C24.4097 35.3805 24.3989 35.2838 24.2861 35.2623C24.2324 35.2516 24.2002 35.2784 24.2002 35.3321Z" fill="white"/>
<path d="M48.311 34.0864C48.2627 34.1992 48.2573 34.2637 48.3057 34.3657C48.4238 34.6182 48.3862 34.7524 48.2036 34.79C48.0854 34.8115 48.0425 34.8438 48.0693 34.9028C48.1284 35.064 48.5474 35.5742 48.6172 35.5742C48.6548 35.5742 48.7139 35.4722 48.7515 35.3486C48.7998 35.1499 48.7944 35.0854 48.7031 34.8652C48.6333 34.6987 48.6172 34.5967 48.6494 34.5645C48.7246 34.4893 48.6655 34.2905 48.5098 34.1025L48.3755 33.9414L48.311 34.0864Z" fill="white"/>
<path d="M25.5591 38.5549L25.4678 38.7429L25.6826 38.9255C25.7954 39.0276 25.8975 39.1028 25.9028 39.0974C25.9243 39.0813 25.6987 38.3669 25.6719 38.3669C25.6611 38.3669 25.6074 38.4529 25.5591 38.5549Z" fill="white"/>
<path d="M28.6045 42.6802C28.9429 43.0239 29.2544 43.3086 29.292 43.3086C29.3403 43.3086 29.3457 43.3677 29.3242 43.5127C29.2866 43.7651 29.3564 43.8296 29.6787 43.8564L29.915 43.8726L30.1514 44.4365C30.4468 45.1562 30.4575 45.1938 30.3823 45.2422C30.334 45.269 30.3823 45.3335 30.5273 45.4517C30.6455 45.543 30.7529 45.6182 30.769 45.6182C30.7798 45.6182 30.6885 45.3604 30.5649 45.0381C30.4414 44.7212 30.2964 44.3452 30.2427 44.2002C30.1191 43.8672 29.8774 43.5986 29.061 42.9058C28.0513 42.0518 27.9385 41.998 28.6045 42.6802Z" fill="white"/>
<path d="M47.1401 38.7167C47.0757 38.9155 47.0273 39.1034 47.0273 39.1357C47.0273 39.1679 47.124 39.0981 47.2422 38.9853C47.4893 38.7436 47.4946 38.7221 47.355 38.5073L47.2529 38.3515L47.1401 38.7167Z" fill="white"/>
<path d="M44.0464 42.6806L42.8647 43.771L42.4995 44.6572C42.3008 45.1406 42.1396 45.5542 42.1396 45.5756C42.1396 45.624 42.6177 45.3339 42.623 45.2802C42.623 45.2587 42.5854 45.2426 42.5425 45.2426C42.4136 45.2426 42.4458 45.146 42.7734 44.5175L43.085 43.9267L43.2729 43.9428C43.418 43.9536 43.5093 43.9267 43.6221 43.8247C43.7671 43.7065 43.7778 43.6635 43.7671 43.3681C43.7617 43.1855 43.7671 43.0405 43.7832 43.0405C43.7939 43.0405 43.853 43.0727 43.9121 43.1049C43.9819 43.1479 44.0356 43.1533 44.0679 43.1211C44.2397 42.9384 45.2978 41.5903 45.2656 41.5903C45.2441 41.5903 44.6963 42.0844 44.0464 42.6806Z" fill="white"/>
<path d="M40.0181 47.186L39.6421 47.5781L40.0342 47.2021C40.2436 46.998 40.4209 46.8208 40.4209 46.8154C40.4209 46.7725 40.3618 46.8262 40.0181 47.186Z" fill="white"/>
</g>
<defs>
<clipPath id="clip0_637_827">
<rect width="70" height="70" fill="white"/>
</clipPath>
</defs>
</svg>
