<svg width="170" height="170" viewBox="0 0 170 170" fill="none" xmlns="http://www.w3.org/2000/svg">
<g clip-path="url(#clip0_372_3693)" filter="url(#filter0_i_372_3693)">
<path d="M75.7518 0.408007C75.0718 0.952007 75.3098 3.19601 76.0238 2.92401C76.2618 2.82201 77.0098 2.65201 77.6558 2.51601C79.2198 2.24401 79.3898 1.90401 78.6418 0.850008C77.9618 -0.0679924 76.6358 -0.271993 75.7518 0.408007Z" fill="black"/>
<path d="M94.0779 2.00597C93.5339 2.34598 92.4799 2.75397 91.6979 2.88997C90.5419 3.09398 90.4059 3.16197 90.9499 3.39998C91.5959 3.63797 91.5619 3.67197 90.7799 3.84198C90.3039 3.94397 89.1139 4.14798 88.0939 4.24997C86.4279 4.45398 86.1899 4.38597 85.5439 3.60397C85.1359 3.16197 84.2859 2.68597 83.6399 2.54997C82.6539 2.34598 82.5179 2.37997 82.8919 2.75397C84.0819 4.01198 82.4499 4.58997 80.9199 3.39998C80.1039 2.78798 80.0699 2.78798 79.3899 3.39998C78.8459 3.87598 77.7579 4.11397 74.2219 4.38597C71.7739 4.62398 69.0199 4.99797 68.1019 5.26997C65.8579 5.94997 65.8239 5.88197 67.9319 4.92998C68.9859 4.45398 69.6999 3.90997 69.6999 3.56998C69.6999 2.99197 69.4619 2.88997 67.5919 2.54997C66.4019 2.37997 66.2999 2.41397 66.2999 3.19597C66.2999 3.77397 65.9259 4.28397 65.2119 4.79398C64.5999 5.20198 64.0219 5.60997 63.9539 5.67798C63.8859 5.71198 64.0219 6.39197 64.2599 7.17398C64.6679 8.39798 64.8379 8.53397 65.6539 8.43198C66.1979 8.32997 66.5039 8.43198 66.4019 8.60197C66.0279 9.24797 63.8859 9.85997 62.1519 9.85997C60.3839 9.82597 60.3499 9.82597 61.3699 9.38397L62.3899 8.94197L61.1319 8.32997C60.0779 7.81998 59.7039 7.78598 58.9559 8.12598C57.9019 8.60197 57.5279 8.39798 58.1399 7.64998C58.3779 7.34398 58.5139 7.07198 58.4459 7.00397C58.2759 6.86797 49.7079 9.34998 45.5599 10.71C41.5819 12.002 36.5839 14.62 34.4079 16.524C32.6059 18.088 32.5039 18.53 33.8299 18.768C34.2039 18.836 34.5099 19.04 34.5099 19.21C34.5439 19.414 34.6799 19.924 34.8159 20.366L35.0879 21.182L35.5299 20.128C36.0739 18.87 37.0259 18.224 39.6099 17.306C41.7179 16.558 42.2279 16.66 41.3779 17.578C40.7659 18.292 39.6439 21.046 39.2699 22.78L39.0319 23.97L40.0519 22.61C40.5959 21.862 41.9899 20.366 43.1459 19.312C44.8799 17.68 45.2199 17.17 45.2539 16.15C45.2879 15.504 45.3219 14.756 45.3559 14.518C45.4239 13.532 47.7699 12.886 48.5519 13.668C48.8579 13.974 48.5859 14.45 47.4299 15.674C46.5799 16.592 45.8999 17.578 45.8999 17.884C45.8999 18.292 46.3079 18.02 47.2599 17C48.3819 15.776 48.7219 15.606 49.5039 15.776C50.5239 16.048 51.6799 15.368 50.9319 14.926C50.6939 14.79 50.5919 14.586 50.6599 14.518C51.4079 13.94 56.0659 11.22 56.3719 11.22C56.9499 11.22 57.2219 12.648 56.8139 13.634C56.6439 14.144 55.8959 14.824 55.1819 15.198C54.4679 15.572 52.6999 16.49 51.2379 17.272C49.1639 18.394 48.2459 18.7 46.9199 18.7C45.4919 18.7 45.2199 18.802 45.2199 19.346C45.2199 19.686 45.4579 20.162 45.7299 20.4C46.0019 20.638 46.2399 21.012 46.2399 21.284C46.2399 21.964 44.5059 23.052 42.6359 23.494C41.7179 23.732 39.7799 24.48 38.3519 25.228C36.4819 26.146 35.6999 26.384 35.6999 26.044C35.6999 25.806 36.0739 24.548 36.5839 23.29C37.0599 21.998 37.3999 20.57 37.3319 20.094C37.1619 18.666 36.2779 19.04 35.6999 20.808C35.2919 22.134 35.0879 22.372 34.5099 22.236C34.1359 22.134 33.2519 22.304 32.5379 22.61C31.8579 22.882 31.2799 23.018 31.2799 22.882C31.2799 22.746 31.8579 22.032 32.5379 21.284L33.8299 19.958L31.7899 21.386C30.6679 22.202 28.3899 23.766 26.6899 24.922C23.7319 26.928 19.7199 30.566 19.7199 31.178C19.7199 31.348 20.1619 31.45 20.7399 31.348C22.2359 31.144 22.0659 31.858 19.8899 34.51C18.8699 35.734 18.0199 36.856 18.0199 36.924C18.0199 37.23 18.3939 37.026 19.5159 36.04C20.1959 35.428 20.7739 35.156 20.9099 35.326C21.0119 35.53 19.3119 37.468 17.1359 39.61C13.2259 43.52 13.1919 43.588 13.4299 44.812C13.7019 46.24 14.2799 47.09 14.2799 46.036C14.2799 44.064 15.7759 40.8 16.6939 40.8C17.2039 40.8 17.0339 41.888 15.7759 46.784C15.0959 49.402 14.4499 52.734 14.3139 54.23L14.1099 56.95L12.8519 54.91C12.1379 53.788 11.5599 53.108 11.5599 53.414C11.5599 53.72 10.7099 55.012 9.68992 56.27C8.66992 57.494 7.81992 58.582 7.81992 58.65C7.81992 58.684 7.58192 59.296 7.30992 59.976C7.03792 60.656 6.86792 61.2 6.93592 61.2C7.00392 61.2 7.58192 60.418 8.19392 59.432L9.31592 57.698L9.75792 58.684C10.3699 60.112 10.3019 61.268 9.34992 66.3C8.49992 70.89 8.32992 73.746 8.83992 74.97C9.11192 75.582 9.14592 75.582 9.14592 74.766C9.17992 73.678 9.96192 72.59 10.4719 72.896C10.9819 73.202 10.9819 75.276 10.5059 77.486C9.99592 79.9 9.38392 80.172 9.58792 77.86L9.75792 76.092L8.63592 76.262C7.27592 76.5 7.27592 76.466 6.93592 71.91C6.83392 70.04 6.59592 68.17 6.42592 67.728C5.98392 66.572 5.16792 66.81 4.89592 68.17C4.58992 69.904 4.96392 72.046 6.45992 76.67C7.92192 81.226 8.39792 83.3 7.92192 83.3C7.75192 83.3 7.13992 82.654 6.52792 81.872C5.37192 80.376 5.20192 80.478 5.81392 82.212C6.01792 82.79 6.35792 83.232 6.56192 83.198C6.83392 83.164 6.96992 84.014 6.96992 86.122C6.96992 87.754 6.90192 89.08 6.79992 89.08C6.69792 89.08 6.11992 88.774 5.54192 88.4L4.41992 87.72L4.45392 88.672C4.48792 90.576 4.92992 92.65 5.26992 92.548C5.67792 92.412 7.51392 99.586 8.56792 105.468C9.00992 107.814 9.45192 109.616 9.55392 109.412C9.82592 108.97 10.7099 110.568 11.0499 112.166C11.4579 114.002 11.8659 112.71 11.6959 110.16L11.5599 107.95L12.0699 109.82C12.3759 110.84 12.7499 113.322 12.9199 115.328C13.0899 117.368 13.4299 119.714 13.6339 120.598L14.0419 122.162L14.6539 121.414L15.2659 120.666L15.7419 121.822C16.7959 124.338 16.8299 124.542 15.9119 124.372L15.0619 124.202L15.8439 125.392C16.2859 126.038 16.6599 126.922 16.6599 127.33C16.6599 128.01 17.9179 129.54 18.4619 129.54C18.5979 129.54 18.6319 129.132 18.4959 128.622C18.3939 128.078 19.0059 128.928 19.8559 130.458C20.7059 132.022 21.4199 133.62 21.4199 134.062C21.4199 135.66 22.9159 137.836 25.4999 139.91C26.8939 141.066 28.2199 142.324 28.4239 142.732C28.7979 143.48 33.6939 148.138 37.1959 151.028C39.7459 153.17 44.3359 156.23 47.7019 158.1C49.2659 158.95 50.2179 159.664 49.9799 159.8C49.6059 160.038 59.7719 165.852 63.3419 167.416C67.2179 169.116 70.6179 170 73.3039 170C74.6639 170 75.8199 169.898 75.8199 169.796C75.8199 169.694 75.6499 169.32 75.4799 168.946C75.2419 168.504 75.2419 168.3 75.4799 168.3C75.6499 168.3 75.8199 168.028 75.8199 167.688C75.8199 167.144 76.3639 167.11 82.6879 167.11C90.0999 167.11 94.0099 166.634 100.368 165.07C102.272 164.594 103.87 164.22 103.904 164.22C103.972 164.22 104.04 164.934 104.04 165.852C104.04 167.824 104.754 168.98 105.978 168.98H106.862L105.91 168.096C105.128 167.382 104.992 167.042 105.162 166.022C105.4 164.662 106.148 163.71 107.508 162.996C108.392 162.52 108.46 162.554 108.46 163.166C108.46 164.492 109.446 164.56 114.444 163.676C117.028 163.234 119.578 162.758 120.122 162.656C120.938 162.452 121.04 162.52 121.04 163.336C121.04 164.356 121.108 164.39 123.284 163.71C124.202 163.438 124.984 163.2 125.052 163.2C125.086 163.2 125.12 163.744 125.12 164.39C125.12 165.138 124.916 165.682 124.542 165.886C124.202 166.09 124.066 166.26 124.202 166.26C124.678 166.26 126.548 164.832 126.344 164.662C126.242 164.56 126.48 164.016 126.854 163.506L127.534 162.52H126.038C125.188 162.52 124.066 162.418 123.488 162.316C122.57 162.146 122.468 162.01 122.74 161.466C122.944 161.126 123.08 160.344 123.08 159.732V158.576L125.664 158.814L128.248 159.086L129.268 157.93C129.812 157.284 131.444 156.128 132.872 155.312C134.3 154.53 136.034 153.34 136.646 152.694C137.292 152.014 137.7 151.708 137.53 151.98C137.36 152.286 137.53 152.252 137.972 151.844C138.822 151.13 139.026 150.62 138.21 151.3C137.836 151.606 137.7 151.606 137.7 151.334C137.7 151.13 137.938 150.858 138.21 150.756C138.482 150.62 138.72 150.28 138.72 149.94C138.72 149.634 139.162 148.75 139.74 147.968L140.726 146.574L138.924 147.22C137.326 147.764 133.11 148.58 131.886 148.58C131.648 148.58 131.954 148.036 132.6 147.39C133.484 146.472 133.858 146.302 134.334 146.574C134.844 146.846 135.15 146.642 136.034 145.452C136.612 144.636 137.394 143.378 137.768 142.63C138.482 141.236 141.814 136.578 142.766 135.66C143.072 135.354 144.296 133.926 145.52 132.43C146.744 130.934 148.784 128.486 150.076 126.99C153.102 123.454 156.91 117.674 159.12 113.288C160.514 110.466 160.99 109.786 161.5 109.922C162.044 110.058 162.112 109.786 162.248 107.746C162.316 106.488 162.486 105.332 162.588 105.23C162.724 105.094 163.166 105.23 163.608 105.536C165.138 106.624 165.342 106.318 165.07 103.428C164.73 99.756 164.764 97.41 165.206 96.662C165.41 96.322 165.58 96.22 165.58 96.458C165.58 96.968 166.838 97.682 167.28 97.41C167.484 97.274 167.246 96.492 166.77 95.506C166.056 94.146 165.988 93.84 166.43 93.84C166.736 93.84 167.246 93.194 167.62 92.344C167.96 91.528 168.402 90.814 168.606 90.746C168.81 90.644 168.572 89.08 167.96 86.394C166.736 81.362 166.702 80.716 167.654 80.478C168.3 80.308 168.334 80.376 168.13 81.498C167.994 82.348 168.062 82.79 168.368 82.994C169.796 83.912 170.034 82.756 168.98 79.696C168.572 78.608 168.266 76.976 168.266 76.126C168.232 74.63 168.198 74.562 167.382 74.732L166.498 74.902L166.6 70.346C166.77 63.41 166.77 63.376 165.614 62.696C164.764 62.22 164.424 61.506 163.404 58.276C161.908 53.652 159.426 48.042 157.284 44.438C156.434 42.976 155.72 41.548 155.72 41.31C155.72 41.072 155.074 40.12 154.258 39.236C153.476 38.318 151.912 36.414 150.79 35.02C148.036 31.552 142.902 26.486 139.366 23.732C136.714 21.658 130.016 17.204 129.098 16.898C128.894 16.83 129.268 16.116 130.016 15.198C131.444 13.464 131.512 12.444 130.288 11.628C129.506 11.118 129.506 11.118 129.914 12.002C130.254 12.75 130.22 13.056 129.744 13.736C128.928 14.994 127.942 15.402 126.378 15.164C125.596 15.028 124.814 14.79 124.61 14.654C124.44 14.484 123.692 14.178 122.978 13.94C121.788 13.566 121.72 13.498 122.196 12.954C122.502 12.614 122.74 12.172 122.74 11.968C122.74 11.152 120.598 9.21397 117.572 7.20798C114.138 4.96397 113.118 4.79398 111.928 6.28998L111.316 7.03798L109.684 5.13397C108.052 3.26398 107.984 3.22997 106.114 3.19597C105.06 3.19597 103.224 2.85597 102 2.48198C100.776 2.10797 98.7359 1.69997 97.4099 1.56396C95.4379 1.42798 94.8599 1.49597 94.0779 2.00597ZM95.7779 1.90398C95.6759 2.00597 95.3699 2.03998 95.1319 1.93797C94.8599 1.83597 94.9619 1.73398 95.3359 1.73398C95.7099 1.69997 95.9139 1.80197 95.7779 1.90398ZM119.952 12.172C120.428 12.886 120.428 12.92 119.374 12.546C118.32 12.172 118.116 11.9 118.558 11.424C118.898 11.084 119.408 11.356 119.952 12.172ZM29.1719 25.228C28.8999 25.67 28.0159 27.166 27.1999 28.56C26.3839 29.954 25.6699 31.144 25.6359 31.212C25.6019 31.28 25.1939 31.144 24.7859 30.906L24.0039 30.498L24.9219 29.784C25.4319 29.376 25.8399 28.9 25.8399 28.73C25.8399 28.356 29.1719 24.48 29.4779 24.48C29.5799 24.48 29.4439 24.82 29.1719 25.228ZM23.7999 45.118C23.4259 45.696 23.4259 45.696 23.5959 45.118C23.6979 44.778 23.7999 44.302 23.8339 44.098C23.8339 43.792 23.9019 43.792 24.0039 44.098C24.1059 44.336 24.0039 44.778 23.7999 45.118ZM28.2199 47.226C28.2199 47.396 27.9819 47.702 27.7099 47.94C27.3019 48.28 27.1999 48.28 27.1999 47.872C27.1999 47.6 27.3019 47.26 27.4379 47.158C27.7439 46.818 28.2199 46.852 28.2199 47.226ZM24.1399 48.076C24.1399 48.144 24.2419 48.45 24.3439 48.722C24.4459 49.028 24.0039 49.606 23.1879 50.252L21.8959 51.306L22.4059 49.606C22.7799 48.416 23.0859 47.94 23.5279 47.94C23.8679 47.94 24.1399 48.008 24.1399 48.076ZM25.7379 49.504C25.5339 50.218 24.2419 52.462 22.8819 54.468C21.5219 56.508 19.7539 59.398 18.9719 60.928L17.5099 63.75L17.4079 58.922C17.3399 54.366 17.3739 54.026 18.0879 53.21C18.4959 52.734 19.0059 52.36 19.2779 52.36C19.5159 52.36 19.9579 51.986 20.2639 51.51C20.8759 50.558 21.4199 50.66 21.4199 51.714C21.4199 53.244 24.0379 51.476 25.2279 49.198C26.0439 47.566 26.2819 47.702 25.7379 49.504ZM166.26 66.776C166.26 68.272 165.682 67.422 165.444 65.62C165.24 64.158 165.24 64.124 165.716 64.94C166.022 65.416 166.226 66.232 166.26 66.776ZM15.5039 66.266C15.7759 66.028 16.0819 65.96 16.2179 66.062C16.5579 66.402 14.9259 70.04 14.4159 70.04C13.4639 70.04 12.7159 67.184 13.2939 65.688L13.6339 64.77L14.3479 65.722C14.8919 66.47 15.1299 66.572 15.5039 66.266ZM114.58 160.65C114.58 160.99 114.24 161.16 113.492 161.16L112.37 161.126L113.22 160.65C114.308 160.038 114.58 160.038 114.58 160.65ZM111.588 163.098C112.064 163.71 111.01 164.05 109.888 163.676C108.596 163.234 108.596 162.588 109.888 162.044C110.908 161.602 111.01 161.602 111.146 162.112C111.214 162.418 111.418 162.894 111.588 163.098ZM74.6299 166.974C75.1059 167.45 73.4059 167.314 72.2499 166.804C71.2299 166.328 71.2639 166.328 72.7599 166.498C73.6099 166.6 74.4259 166.804 74.6299 166.974Z" fill="black"/>
<path d="M86.8019 2.95779C87.3119 3.02579 88.1279 3.02579 88.6719 2.95779C89.1819 2.88979 88.7399 2.82179 87.7199 2.82179C86.6999 2.82179 86.2579 2.88979 86.8019 2.95779Z" fill="black"/>
<path d="M123.692 12.036C124.1 12.58 124.44 13.294 124.44 13.668C124.44 14.042 124.61 14.212 124.78 14.11C125.46 13.702 125.086 12.614 124.032 11.832L122.91 11.05L123.692 12.036Z" fill="black"/>
<path d="M11.288 45.6617C10.506 46.5117 10.336 47.4297 10.88 47.7697C11.084 47.8717 11.22 48.3137 11.22 48.7217C11.254 49.4697 11.254 49.4697 11.764 48.7897C12.206 48.1777 12.206 48.1097 11.764 48.0077C11.084 47.8717 11.084 47.8717 11.73 46.3417C12.376 44.8457 12.24 44.6417 11.288 45.6617Z" fill="black"/>
<path d="M5.60991 50.456C5.16791 51.612 5.13391 52.088 5.40591 52.666C6.11991 53.924 6.45991 53.414 6.45991 51.17C6.45991 49.946 6.39191 48.96 6.32391 48.96C6.25591 48.96 5.91591 49.64 5.60991 50.456Z" fill="black"/>
<path d="M3.97788 56.0997C3.43388 57.0517 2.88988 57.7997 2.75388 57.7997C2.41388 57.7997 1.49588 56.7457 1.29188 56.0997C1.18988 55.8277 1.05388 56.1677 0.985879 56.8477C0.883879 57.5277 0.951879 58.0037 1.08788 57.9357C1.22388 57.8337 1.35988 58.3097 1.35988 58.9557C1.35988 59.6357 1.52988 60.1797 1.69988 60.1797C1.90388 60.1797 2.03988 60.0437 2.03988 59.8737C2.03988 59.6697 2.95788 58.8197 4.07988 57.9697C6.08588 56.4057 6.52788 55.6237 5.71188 54.8077C5.09988 54.1957 4.99788 54.2637 3.97788 56.0997Z" fill="black"/>
<path d="M1.69995 62.2201C1.69995 62.4241 1.93795 62.5601 2.20995 62.5601C2.85595 62.5601 2.85595 62.3561 2.20995 62.0841C1.93795 61.9821 1.69995 62.0501 1.69995 62.2201Z" fill="black"/>
<path d="M164.628 107.27C164.254 108.12 164.05 112.506 164.39 112.132C164.594 111.928 165.308 106.726 165.138 106.556C165.07 106.488 164.832 106.794 164.628 107.27Z" fill="black"/>
<path d="M157.386 119.408C157.08 120.564 156.74 121.788 156.604 122.094C156.23 122.91 157.862 122.536 158.712 121.584C159.902 120.326 159.936 119.51 158.882 118.32L157.896 117.232L157.386 119.408Z" fill="black"/>
<path d="M155.38 123.794C155.142 124.168 155.04 124.576 155.142 124.644C155.21 124.712 155.448 124.406 155.652 123.93C156.128 122.91 155.89 122.808 155.38 123.794Z" fill="black"/>
<path d="M154.054 127.228C153.306 129.472 153.408 129.472 154.836 127.33L155.72 125.97V127.33C155.686 128.078 155.482 129.064 155.21 129.54C153.986 131.682 155.006 132.634 156.876 131.138C157.726 130.424 157.794 130.254 157.454 129.574C157.182 129.132 157.114 128.282 157.284 127.33C157.488 125.902 157.454 125.8 156.57 125.46C155.04 124.882 154.802 125.052 154.054 127.228Z" fill="black"/>
<path d="M147.594 134.844C147.594 135.252 146.71 136.51 145.69 137.666C143.888 139.672 143.412 140.828 144.16 141.27C144.772 141.644 144.534 142.052 143.582 142.29L142.63 142.562L143.616 142.834C144.296 143.038 144.806 142.936 145.418 142.562L146.268 141.984L145.486 141.44C144.296 140.522 144.84 139.74 146.71 139.74H148.24L148.206 138.278C148.206 136.68 147.662 133.722 147.594 134.844Z" fill="black"/>
<path d="M151.47 135.014C151.334 135.218 151.3 135.422 151.402 135.524C151.47 135.626 151.64 135.456 151.742 135.15C151.98 134.572 151.776 134.47 151.47 135.014Z" fill="black"/>
<path d="M150.11 137.938C149.6 138.754 149.26 139.502 149.328 139.57C149.362 139.604 149.906 139.774 150.484 139.876C151.402 140.08 151.674 139.978 152.286 139.196C153.238 138.006 153.204 137.632 151.98 136.952L150.994 136.408L150.11 137.938Z" fill="black"/>
<path d="M142.766 144.738L141.61 145.962L142.698 145.214C143.854 144.432 144.33 143.888 144.092 143.616C144.024 143.548 143.412 144.058 142.766 144.738Z" fill="black"/>
<path d="M128.35 161.84C128.248 162.01 128.316 162.18 128.486 162.18C128.69 162.18 128.86 162.01 128.86 161.84C128.86 161.636 128.792 161.5 128.724 161.5C128.622 161.5 128.452 161.636 128.35 161.84Z" fill="black"/>
<path d="M117.47 165.614C116.042 167.076 115.906 167.314 116.62 167.11C118.082 166.702 119.51 165.75 119.612 165.104C119.884 163.744 119.068 163.948 117.47 165.614Z" fill="black"/>
<path d="M110.67 165.24L109.31 165.852L110.602 165.886C111.452 165.92 111.962 165.75 112.098 165.41C112.404 164.594 112.132 164.56 110.67 165.24Z" fill="black"/>
<path d="M90.2698 167.62C86.9038 167.96 82.5518 168.266 80.5798 168.3L77.0098 168.368L80.4098 169.014C82.3478 169.422 86.0538 169.762 89.0798 169.898L94.3498 170.068L93.4998 169.388L92.6498 168.708L93.4998 168.334C93.9758 168.164 95.5738 167.892 97.0698 167.756C99.0758 167.586 99.5518 167.45 98.9398 167.246C97.7498 166.906 97.2058 166.94 90.2698 167.62Z" fill="black"/>
</g>
<defs>
<filter id="filter0_i_372_3693" x="0" y="0" width="170" height="170" filterUnits="userSpaceOnUse" color-interpolation-filters="sRGB">
<feFlood flood-opacity="0" result="BackgroundImageFix"/>
<feBlend mode="normal" in="SourceGraphic" in2="BackgroundImageFix" result="shape"/>
<feColorMatrix in="SourceAlpha" type="matrix" values="0 0 0 0 0 0 0 0 0 0 0 0 0 0 0 0 0 0 127 0" result="hardAlpha"/>
<feOffset/>
<feGaussianBlur stdDeviation="7.5"/>
<feComposite in2="hardAlpha" operator="arithmetic" k2="-1" k3="1"/>
<feColorMatrix type="matrix" values="0 0 0 0 0 0 0 0 0 0 0 0 0 0 0 0 0 0 1 0"/>
<feBlend mode="normal" in2="shape" result="effect1_innerShadow_372_3693"/>
</filter>
<clipPath id="clip0_372_3693">
<rect width="170" height="170" fill="white"/>
</clipPath>
</defs>
</svg>
