<svg width="83" height="82" viewBox="0 0 83 82" fill="none" xmlns="http://www.w3.org/2000/svg">
<mask id="path-1-inside-1_994_4388" fill="white">
<path d="M36.5153 3.37235C36.6286 3.72653 36.5617 3.85053 36.2157 3.91141L35.9159 3.96034L36.0932 4.07953C36.2124 4.16556 36.2497 4.21948 36.2165 4.25269C36.1667 4.30252 35.5462 4.6037 35.182 4.76262C35.0871 4.80054 35.0315 4.93595 34.9987 5.18544L34.9409 5.55113L33.9491 6.5771C33.4042 7.14484 32.9496 7.6451 32.949 7.70267C32.9386 7.75869 32.7398 7.99168 32.4876 8.22108C32.2453 8.45203 31.9043 8.85004 31.7267 9.09599C31.4807 9.45609 31.3229 9.61385 30.996 9.8267C30.6873 10.0328 30.5088 10.2113 30.2721 10.5392C30.1029 10.7769 29.7639 11.2185 29.5184 11.521C29.2771 11.8194 29.0092 12.2241 28.9277 12.4083C28.8041 12.6915 28.7392 12.7678 28.5799 12.8244C28.3102 12.9117 27.635 13.5983 27.1963 14.2308C26.7343 14.8981 25.1059 16.4581 24.3161 16.997C23.8518 17.3131 23.6841 17.4693 23.395 17.8611C22.8401 18.6098 20.5903 20.9851 16.7884 24.8555L15.0602 26.6064L14.8585 26.5459L14.651 26.4796L14.6182 26.7291C14.588 26.9646 14.5231 27.0409 13.8563 27.6279C13.4614 27.9886 12.9866 28.3607 12.8014 28.4661C12.5145 28.6276 12.4081 28.7454 12.0769 29.2362C11.7981 29.6633 11.6268 29.8573 11.4624 29.942C11.107 30.1263 9.58528 31.7848 9.44296 32.1324C9.26428 32.5848 7.95294 33.7479 7.54523 33.8135C7.25112 33.8681 7.01347 34.0373 6.89092 34.2967C6.82964 34.4264 6.80163 34.4316 6.62847 34.3083C6.53048 34.2352 6.32566 34.155 6.18355 34.1374L5.91335 34.0997L5.78288 34.5837C5.67633 34.9753 5.61765 35.091 5.44643 35.1938C5.32814 35.2665 5.17142 35.4004 5.08424 35.4876C4.9986 35.5846 4.84139 35.6848 4.73244 35.7254C4.57318 35.782 4.5 35.8666 4.35254 36.1509C4.25284 36.3418 4.08152 36.6272 3.97147 36.7828C3.79394 37.0288 3.73687 37.0631 3.55535 37.0393C3.43711 37.0207 3.282 37.0732 3.17665 37.1671C3.02824 37.2927 3.00278 37.3752 3.03063 37.6438C3.08224 38.094 2.97629 38.3368 2.60268 38.6192C2.03451 39.0391 2.05371 39.0085 2.19621 39.2423C2.40918 39.5882 2.40602 39.6597 2.16683 39.8191C2.03763 39.9141 1.90787 40.0667 1.85385 40.2119C1.76606 40.448 1.7619 40.4521 1.42273 40.4036C1.24121 40.3798 1.01823 40.3063 0.927493 40.2488L0.765735 40.1368L0.842854 40.4132C0.908072 40.6445 0.88676 40.7228 0.749753 40.8598C0.596139 41.0135 0.595088 41.0373 0.734039 41.1265C1.23592 41.4457 1.40593 41.6406 1.72713 42.2773C2.03383 42.8829 2.06959 42.927 2.93159 43.8554C3.42971 44.3951 3.95269 45.0011 4.12214 45.2536C4.40769 45.6637 4.44916 45.7134 4.67679 45.8165C4.87331 45.9051 4.92878 45.9523 4.97849 46.085C5.02821 46.2178 5.08368 46.2649 5.24339 46.3333C5.39895 46.4058 5.48293 46.4815 5.60521 46.6785C5.73891 46.8869 5.82289 46.9626 6.12725 47.1258C6.78574 47.4937 6.98265 47.7985 7.12218 48.6854C7.17334 49.0106 7.28772 49.4322 7.36904 49.6131L7.52289 49.9496L7.93094 50.1916C8.15752 50.3186 8.74803 50.743 9.2395 51.1182C9.79785 51.552 10.2106 51.8236 10.3262 51.8562C10.4361 51.8831 10.7644 51.954 11.0616 52.0103C11.3587 52.0667 11.6802 52.1557 11.771 52.2132C11.8757 52.2681 12.1826 52.5999 12.5615 53.0535C13.0518 53.6352 13.2871 53.8788 13.6567 54.182C14.086 54.5282 14.1332 54.5837 14.2051 54.7968C14.2672 55.0084 14.2958 55.0369 14.498 55.1312C14.7567 55.2488 16.0449 56.5037 16.3817 56.9651C16.4921 57.117 16.7056 57.4053 16.8533 57.6111C17.0052 57.8128 17.1394 58.0549 17.1507 58.1576C17.1714 58.3194 17.1843 58.3407 17.3622 58.4023C17.5458 58.4696 17.5758 58.508 17.811 59.0255C18.0923 59.6223 18.4877 60.2419 18.7842 60.5384C19.0009 60.755 20.108 61.1647 20.4477 61.1556C20.567 61.1504 20.8045 61.1637 20.9845 61.1776C21.263 61.207 21.3195 61.2303 21.3521 61.346C21.3687 61.4207 21.3178 61.5856 21.2368 61.7122C21.1117 61.8944 21.1075 61.9898 21.1955 62.2439C21.342 62.6561 21.725 63.2882 22.0505 63.6469C22.3019 63.9315 22.3174 63.9387 22.4663 63.8469C22.6111 63.7591 22.6422 63.7736 22.9351 64.0167C23.1114 64.1598 23.4644 64.3883 23.7206 64.5199C24.1478 64.7312 24.209 64.7841 24.4453 65.0952C24.762 65.5198 27.1392 67.8638 27.6748 68.2748C27.8837 68.4422 28.3337 68.8589 28.6773 69.2109C29.1978 69.7396 29.3528 69.8697 29.6499 70.0174C29.9584 70.1764 30.0024 70.2122 30.0853 70.403C30.1418 70.5176 30.3398 70.7986 30.5243 71.0246C30.8902 71.457 32.1219 72.5973 32.6388 72.9814C33.0846 73.311 33.3101 73.553 33.3836 73.776C33.4452 73.9539 33.4851 73.9938 33.8952 74.2794C34.3152 74.5665 34.3836 74.6349 34.9387 75.3228C35.5125 76.0377 35.527 76.0688 35.4719 76.238C35.4225 76.4128 35.494 76.5922 35.577 76.5092C35.5978 76.4884 35.6875 76.4785 35.772 76.4966C35.91 76.5183 35.9328 76.5411 36.0271 76.7433C36.1519 77.0176 36.4557 77.3297 36.7274 77.4685C36.8788 77.5452 36.9373 77.6121 37.0042 77.7619C37.0767 77.9175 37.1337 77.9745 37.3178 78.0755C37.506 78.1724 37.5589 78.2336 37.6371 78.3949C37.7055 78.5546 37.7853 78.6344 38.0393 78.8137C38.2166 78.9329 38.5718 79.205 38.8263 79.418C39.0808 79.631 39.4982 79.9321 39.7377 80.0803C39.9944 80.2456 40.3568 80.5333 40.5947 80.7629C40.8269 80.9868 41.1758 81.3108 41.3806 81.4824L41.7476 81.7996L42.1685 81.3901C42.4965 81.0621 42.6578 80.9578 42.9291 80.8803C43.2705 80.7899 43.3078 80.7525 45.6136 78.4582C48.3179 75.7652 48.3843 75.6988 48.4903 75.456C48.5391 75.3388 48.618 75.2599 48.7077 75.25C48.9095 75.2193 51.0694 73.0365 51.1059 72.8404C51.1168 72.7268 51.1973 72.6578 51.4063 72.5514C51.6476 72.4356 51.7016 72.3816 51.7795 72.144C51.8548 71.9204 51.9114 71.8524 52.0624 71.8041C52.2232 71.7573 52.2574 71.7003 52.2929 71.4368C52.3194 71.2391 52.3916 71.0871 52.5042 71.0087C52.6459 70.9013 52.7034 70.9007 52.9119 71.0344C53.1882 71.2028 53.3127 71.1696 53.3471 70.9299C53.3887 70.7058 56.666 67.3487 57.2721 66.9251C57.6571 66.6542 57.7303 66.5696 57.8316 66.2972C57.9141 66.0892 57.9884 65.9807 58.0781 65.9708C58.2757 65.9443 58.4989 65.7439 58.8487 65.28C59.0636 64.9967 59.3781 64.7051 59.8238 64.362C60.543 63.8024 60.9624 63.2918 61.1894 62.6885C61.2907 62.4161 61.3364 62.3704 61.4863 62.346C61.632 62.3257 62.0062 61.9857 63.1977 60.7942C64.4682 59.5238 64.7624 59.1953 64.9732 58.8248C65.1129 58.5825 65.2998 58.3044 65.3953 58.2089C65.5738 58.0304 66.0043 57.8963 66.3529 57.9127C66.5271 57.9209 66.5868 57.8727 66.8707 57.5089C67.0457 57.277 68.2336 56.032 69.5108 54.7434L71.8327 52.3987L71.795 52.1285L71.7557 51.8485L71.9683 51.8867C72.1753 51.9193 72.2043 51.8902 74.0829 50.0572C75.1281 49.0348 76.2314 47.9543 76.5319 47.6653C76.9445 47.2641 77.1168 47.0462 77.2295 46.7852C77.4669 46.2171 77.5608 46.1118 77.9021 46.0214C78.4562 45.8779 78.8033 45.6106 79.3167 44.9033C79.6182 44.4991 79.9457 44.1374 80.2342 43.8945C80.6198 43.566 80.6956 43.4674 80.7772 43.1919C80.8416 42.9906 80.9169 42.8583 81.0051 42.8386C81.0736 42.8157 81.2043 42.7306 81.2915 42.6434L81.4591 42.4872L80.9675 42.3858C80.6942 42.3284 80.3965 42.2383 80.3016 42.185C79.8951 41.9528 79.6251 41.55 79.5704 41.0801C79.5307 40.7663 79.6194 40.7803 79.8463 41.1235C80.3941 41.9785 81.05 42.2691 81.7291 41.9435C82.2479 41.6984 82.44 41.3922 82.3641 40.9094C82.2912 40.4463 82.0456 40.0761 81.3976 39.4696C80.9461 39.043 80.8382 38.9684 80.4597 38.8224C79.9287 38.6235 79.8561 38.5592 79.8957 38.2916C79.9659 37.9134 79.3533 37.226 77.6063 35.7115C76.3756 34.6386 75.9915 34.213 75.3884 33.2196C75.0028 32.6016 74.8551 32.3958 74.6592 32.2496C74.3424 32.0076 74.3625 32.1357 74.7103 32.5748C75.0809 33.0367 75.0274 33.1244 74.5909 32.7626C74.2467 32.4682 74.0109 32.1909 73.9617 32.0005C73.9425 31.9399 73.6704 31.676 73.265 31.3287C72.4159 30.6042 71.4082 29.6048 69.0771 27.1575C67.5522 25.5578 67.0633 25.0773 66.4133 24.5185C65.9737 24.137 65.4086 23.6301 65.1577 23.3792C64.8099 23.0314 64.6352 22.8982 64.4459 22.8252C64.196 22.733 64.1846 22.7216 63.9613 22.3405C63.7742 22.0372 63.557 21.7868 62.9111 21.1327L62.0958 20.3173L62.0207 19.9931C61.9483 19.655 61.7975 19.4295 61.7466 19.5945C61.7305 19.6448 61.7107 19.733 61.6946 19.7833C61.665 19.8699 61.5385 19.7683 60.4727 18.8271C60.1254 18.5129 60.031 18.402 59.9134 18.1433C59.7943 17.8747 59.7414 17.8135 59.405 17.5684C59.1763 17.3978 58.5056 16.7686 57.6202 15.8749L56.2061 14.4608L56.185 14.174C56.1717 13.8452 56.0287 13.6689 55.9015 13.8075C55.82 13.9004 55.7718 13.8688 54.8858 13.124C54.2047 12.5507 53.6251 12.0127 52.7382 11.1092C51.4236 9.778 47.5022 5.95617 47.2637 5.78411C47.187 5.72399 46.992 5.64527 46.8369 5.60646L46.5481 5.54179L46.5311 5.25083L46.51 4.96402L46.0777 4.5981C45.8345 4.39648 45.694 4.2975 45.7541 4.37422C45.976 4.65417 45.7883 4.591 45.4803 4.2831C45.3093 4.11204 45.1875 3.94873 45.2083 3.92797C45.2332 3.90306 45.2995 3.92792 45.3509 3.97923C45.6754 4.27054 44.9181 3.39703 44.3593 2.83823C43.4283 1.89896 42.6518 1.23863 42.28 1.07443C41.9378 0.914883 41.3481 0.831716 41.2526 0.927204C41.2194 0.960417 41.0477 0.93822 40.8797 0.878152C40.1952 0.650338 39.6152 0.842579 39.1958 1.44447C39.0224 1.68627 38.9778 1.70808 38.7304 1.69318C38.3269 1.66334 38.1837 1.76093 38.0424 2.17594C37.9307 2.50432 37.899 2.54739 37.7502 2.54799C37.6309 2.55325 37.524 2.63734 37.3641 2.84282C37.1518 3.11213 37.1295 3.12303 36.8422 3.06822C36.4662 2.99946 36.4164 3.04928 36.5153 3.37235ZM38.634 4.19579C38.68 4.45769 38.8172 4.99339 38.9482 5.39839C39.2935 6.43292 39.3157 6.69588 39.0831 7.01966C38.9715 7.16547 38.8889 7.3735 38.8909 7.50835C38.8929 7.73449 38.8887 7.73863 38.7804 7.6303C38.5637 7.41362 38.5292 6.98056 38.6996 6.4452C38.7838 6.15573 38.8416 5.88133 38.8198 5.83466C38.8079 5.78955 38.6644 5.57957 38.5068 5.37219C38.2876 5.07824 38.2208 4.92838 38.2048 4.70485C38.1796 4.33091 38.2513 4.0539 38.4242 3.86967L38.5653 3.72851L38.634 4.19579ZM9.53566 33.2714C9.58128 33.317 9.58382 33.3943 9.53815 33.4399C9.45512 33.523 9.36749 33.4851 9.35304 33.3628C9.32873 33.2388 9.45013 33.1858 9.53566 33.2714ZM41.8369 1.31224C41.9542 1.26342 41.9951 1.27947 42.1568 1.48269C42.4274 1.82797 42.4076 1.91615 42.0741 1.87329C41.6914 1.82269 41.3793 1.51893 41.6081 1.41558C41.6569 1.38962 41.7601 1.3434 41.8369 1.31224ZM36.0319 7.72162C36.0801 7.75323 36.0879 7.8025 36.0505 7.83987C36.0132 7.87723 35.9442 7.86638 35.8929 7.81506C35.7959 7.71813 35.9044 7.6439 36.0319 7.72162ZM8.43466 35.7408C8.50933 35.7574 8.60162 35.8248 8.63063 35.887C8.71561 36.0301 8.39177 36.3539 8.0826 36.435C7.77343 36.5161 7.71491 36.3579 7.98317 36.1695C8.09577 36.0911 8.19386 35.9816 8.19856 35.9199C8.20592 35.7529 8.2796 35.702 8.43466 35.7408ZM9.4543 49.2157C9.54553 49.3069 9.65177 49.4629 9.67557 49.5532C9.72424 49.7098 9.72008 49.7139 9.57543 49.6191C9.42663 49.5284 9.14208 49.1857 9.07371 49.026C9.03125 48.9088 9.26613 49.0275 9.4543 49.2157ZM20.2542 58.5209C20.3854 58.6521 20.3931 58.7926 20.2702 58.7445C20.153 58.702 20.0462 58.5122 20.1044 58.4541C20.1251 58.4334 20.1972 58.4639 20.2542 58.5209ZM74.5311 33.0847C74.6508 33.2045 74.6958 33.3989 74.617 33.4778C74.5422 33.5526 74.408 33.4017 74.3785 33.2145C74.346 33.0076 74.4056 32.9593 74.5311 33.0847ZM75.0712 44.4276C75.1412 44.4146 75.289 44.4378 75.4005 44.4746C75.5841 44.5419 75.6297 44.5875 75.9546 45.0951C76.4173 45.807 76.5443 46.0336 76.4944 46.0834C76.3616 46.2162 76.1141 46.2926 76.0457 46.2242C76.0058 46.1843 75.9006 46.0044 75.8209 45.8332C75.7033 45.5745 75.6188 45.4651 75.3202 45.2163C74.9988 44.9447 74.9558 44.8851 74.9263 44.6979C74.8891 44.4614 74.8974 44.4531 75.0712 44.4276ZM80.2098 39.4942L80.4246 39.4847L80.1194 39.7442C79.9114 39.9181 79.7972 40.0779 79.7519 40.2486C79.6667 40.5619 79.6018 40.6382 79.5724 40.451C79.4995 39.9878 79.8182 39.5095 80.2098 39.4942ZM73.1844 46.8503C73.3213 46.9872 73.3596 47.1085 73.3273 47.3004C73.3028 47.4504 73.2888 47.453 73.1292 47.2933C73.0265 47.1907 72.9644 47.0704 72.9758 46.9905C72.9925 46.7913 73.0761 46.742 73.1844 46.8503ZM74.854 45.979C74.9773 46.2435 75.0077 46.4981 74.919 46.4842C74.8444 46.4676 74.6937 46.0595 74.6881 45.8713C74.6923 45.6845 74.7405 45.7161 74.854 45.979ZM64.2699 57.9886C64.4036 58.1971 64.5154 58.5414 64.4671 58.6011C64.3857 58.6939 64.2281 58.4866 64.1551 58.206C64.0786 57.872 64.1305 57.7745 64.2699 57.9886ZM71.2222 51.5723C71.3252 51.8 71.2665 52.007 71.1083 51.9484C71.0207 51.9106 70.8198 51.3361 70.8562 51.2313C70.905 51.114 71.103 51.3037 71.2222 51.5723ZM60.5012 61.7345C60.5909 61.7246 60.6194 61.7531 60.6334 61.8418C60.6473 61.9305 60.6183 61.9596 60.5156 61.9482C60.2879 61.9364 60.2724 61.7466 60.5012 61.7345ZM81.8766 40.7126C82.0715 40.9739 82.1003 41.4012 81.9121 41.2131C81.8437 41.1447 81.6667 40.569 81.704 40.5317C81.7165 40.5192 81.7963 40.5991 81.8766 40.7126ZM68.1706 54.6239C68.2504 54.795 68.2208 54.8816 68.1036 54.8391C68.016 54.8013 67.9689 54.6546 68.0094 54.5456C68.0567 54.4185 68.0878 54.433 68.1706 54.6239Z"/>
</mask>
<path d="M36.5153 3.37235C36.6286 3.72653 36.5617 3.85053 36.2157 3.91141L35.9159 3.96034L36.0932 4.07953C36.2124 4.16556 36.2497 4.21948 36.2165 4.25269C36.1667 4.30252 35.5462 4.6037 35.182 4.76262C35.0871 4.80054 35.0315 4.93595 34.9987 5.18544L34.9409 5.55113L33.9491 6.5771C33.4042 7.14484 32.9496 7.6451 32.949 7.70267C32.9386 7.75869 32.7398 7.99168 32.4876 8.22108C32.2453 8.45203 31.9043 8.85004 31.7267 9.09599C31.4807 9.45609 31.3229 9.61385 30.996 9.8267C30.6873 10.0328 30.5088 10.2113 30.2721 10.5392C30.1029 10.7769 29.7639 11.2185 29.5184 11.521C29.2771 11.8194 29.0092 12.2241 28.9277 12.4083C28.8041 12.6915 28.7392 12.7678 28.5799 12.8244C28.3102 12.9117 27.635 13.5983 27.1963 14.2308C26.7343 14.8981 25.1059 16.4581 24.3161 16.997C23.8518 17.3131 23.6841 17.4693 23.395 17.8611C22.8401 18.6098 20.5903 20.9851 16.7884 24.8555L15.0602 26.6064L14.8585 26.5459L14.651 26.4796L14.6182 26.7291C14.588 26.9646 14.5231 27.0409 13.8563 27.6279C13.4614 27.9886 12.9866 28.3607 12.8014 28.4661C12.5145 28.6276 12.4081 28.7454 12.0769 29.2362C11.7981 29.6633 11.6268 29.8573 11.4624 29.942C11.107 30.1263 9.58528 31.7848 9.44296 32.1324C9.26428 32.5848 7.95294 33.7479 7.54523 33.8135C7.25112 33.8681 7.01347 34.0373 6.89092 34.2967C6.82964 34.4264 6.80163 34.4316 6.62847 34.3083C6.53048 34.2352 6.32566 34.155 6.18355 34.1374L5.91335 34.0997L5.78288 34.5837C5.67633 34.9753 5.61765 35.091 5.44643 35.1938C5.32814 35.2665 5.17142 35.4004 5.08424 35.4876C4.9986 35.5846 4.84139 35.6848 4.73244 35.7254C4.57318 35.782 4.5 35.8666 4.35254 36.1509C4.25284 36.3418 4.08152 36.6272 3.97147 36.7828C3.79394 37.0288 3.73687 37.0631 3.55535 37.0393C3.43711 37.0207 3.282 37.0732 3.17665 37.1671C3.02824 37.2927 3.00278 37.3752 3.03063 37.6438C3.08224 38.094 2.97629 38.3368 2.60268 38.6192C2.03451 39.0391 2.05371 39.0085 2.19621 39.2423C2.40918 39.5882 2.40602 39.6597 2.16683 39.8191C2.03763 39.9141 1.90787 40.0667 1.85385 40.2119C1.76606 40.448 1.7619 40.4521 1.42273 40.4036C1.24121 40.3798 1.01823 40.3063 0.927493 40.2488L0.765735 40.1368L0.842854 40.4132C0.908072 40.6445 0.88676 40.7228 0.749753 40.8598C0.596139 41.0135 0.595088 41.0373 0.734039 41.1265C1.23592 41.4457 1.40593 41.6406 1.72713 42.2773C2.03383 42.8829 2.06959 42.927 2.93159 43.8554C3.42971 44.3951 3.95269 45.0011 4.12214 45.2536C4.40769 45.6637 4.44916 45.7134 4.67679 45.8165C4.87331 45.9051 4.92878 45.9523 4.97849 46.085C5.02821 46.2178 5.08368 46.2649 5.24339 46.3333C5.39895 46.4058 5.48293 46.4815 5.60521 46.6785C5.73891 46.8869 5.82289 46.9626 6.12725 47.1258C6.78574 47.4937 6.98265 47.7985 7.12218 48.6854C7.17334 49.0106 7.28772 49.4322 7.36904 49.6131L7.52289 49.9496L7.93094 50.1916C8.15752 50.3186 8.74803 50.743 9.2395 51.1182C9.79785 51.552 10.2106 51.8236 10.3262 51.8562C10.4361 51.8831 10.7644 51.954 11.0616 52.0103C11.3587 52.0667 11.6802 52.1557 11.771 52.2132C11.8757 52.2681 12.1826 52.5999 12.5615 53.0535C13.0518 53.6352 13.2871 53.8788 13.6567 54.182C14.086 54.5282 14.1332 54.5837 14.2051 54.7968C14.2672 55.0084 14.2958 55.0369 14.498 55.1312C14.7567 55.2488 16.0449 56.5037 16.3817 56.9651C16.4921 57.117 16.7056 57.4053 16.8533 57.6111C17.0052 57.8128 17.1394 58.0549 17.1507 58.1576C17.1714 58.3194 17.1843 58.3407 17.3622 58.4023C17.5458 58.4696 17.5758 58.508 17.811 59.0255C18.0923 59.6223 18.4877 60.2419 18.7842 60.5384C19.0009 60.755 20.108 61.1647 20.4477 61.1556C20.567 61.1504 20.8045 61.1637 20.9845 61.1776C21.263 61.207 21.3195 61.2303 21.3521 61.346C21.3687 61.4207 21.3178 61.5856 21.2368 61.7122C21.1117 61.8944 21.1075 61.9898 21.1955 62.2439C21.342 62.6561 21.725 63.2882 22.0505 63.6469C22.3019 63.9315 22.3174 63.9387 22.4663 63.8469C22.6111 63.7591 22.6422 63.7736 22.9351 64.0167C23.1114 64.1598 23.4644 64.3883 23.7206 64.5199C24.1478 64.7312 24.209 64.7841 24.4453 65.0952C24.762 65.5198 27.1392 67.8638 27.6748 68.2748C27.8837 68.4422 28.3337 68.8589 28.6773 69.2109C29.1978 69.7396 29.3528 69.8697 29.6499 70.0174C29.9584 70.1764 30.0024 70.2122 30.0853 70.403C30.1418 70.5176 30.3398 70.7986 30.5243 71.0246C30.8902 71.457 32.1219 72.5973 32.6388 72.9814C33.0846 73.311 33.3101 73.553 33.3836 73.776C33.4452 73.9539 33.4851 73.9938 33.8952 74.2794C34.3152 74.5665 34.3836 74.6349 34.9387 75.3228C35.5125 76.0377 35.527 76.0688 35.4719 76.238C35.4225 76.4128 35.494 76.5922 35.577 76.5092C35.5978 76.4884 35.6875 76.4785 35.772 76.4966C35.91 76.5183 35.9328 76.5411 36.0271 76.7433C36.1519 77.0176 36.4557 77.3297 36.7274 77.4685C36.8788 77.5452 36.9373 77.6121 37.0042 77.7619C37.0767 77.9175 37.1337 77.9745 37.3178 78.0755C37.506 78.1724 37.5589 78.2336 37.6371 78.3949C37.7055 78.5546 37.7853 78.6344 38.0393 78.8137C38.2166 78.9329 38.5718 79.205 38.8263 79.418C39.0808 79.631 39.4982 79.9321 39.7377 80.0803C39.9944 80.2456 40.3568 80.5333 40.5947 80.7629C40.8269 80.9868 41.1758 81.3108 41.3806 81.4824L41.7476 81.7996L42.1685 81.3901C42.4965 81.0621 42.6578 80.9578 42.9291 80.8803C43.2705 80.7899 43.3078 80.7525 45.6136 78.4582C48.3179 75.7652 48.3843 75.6988 48.4903 75.456C48.5391 75.3388 48.618 75.2599 48.7077 75.25C48.9095 75.2193 51.0694 73.0365 51.1059 72.8404C51.1168 72.7268 51.1973 72.6578 51.4063 72.5514C51.6476 72.4356 51.7016 72.3816 51.7795 72.144C51.8548 71.9204 51.9114 71.8524 52.0624 71.8041C52.2232 71.7573 52.2574 71.7003 52.2929 71.4368C52.3194 71.2391 52.3916 71.0871 52.5042 71.0087C52.6459 70.9013 52.7034 70.9007 52.9119 71.0344C53.1882 71.2028 53.3127 71.1696 53.3471 70.9299C53.3887 70.7058 56.666 67.3487 57.2721 66.9251C57.6571 66.6542 57.7303 66.5696 57.8316 66.2972C57.9141 66.0892 57.9884 65.9807 58.0781 65.9708C58.2757 65.9443 58.4989 65.7439 58.8487 65.28C59.0636 64.9967 59.3781 64.7051 59.8238 64.362C60.543 63.8024 60.9624 63.2918 61.1894 62.6885C61.2907 62.4161 61.3364 62.3704 61.4863 62.346C61.632 62.3257 62.0062 61.9857 63.1977 60.7942C64.4682 59.5238 64.7624 59.1953 64.9732 58.8248C65.1129 58.5825 65.2998 58.3044 65.3953 58.2089C65.5738 58.0304 66.0043 57.8963 66.3529 57.9127C66.5271 57.9209 66.5868 57.8727 66.8707 57.5089C67.0457 57.277 68.2336 56.032 69.5108 54.7434L71.8327 52.3987L71.795 52.1285L71.7557 51.8485L71.9683 51.8867C72.1753 51.9193 72.2043 51.8902 74.0829 50.0572C75.1281 49.0348 76.2314 47.9543 76.5319 47.6653C76.9445 47.2641 77.1168 47.0462 77.2295 46.7852C77.4669 46.2171 77.5608 46.1118 77.9021 46.0214C78.4562 45.8779 78.8033 45.6106 79.3167 44.9033C79.6182 44.4991 79.9457 44.1374 80.2342 43.8945C80.6198 43.566 80.6956 43.4674 80.7772 43.1919C80.8416 42.9906 80.9169 42.8583 81.0051 42.8386C81.0736 42.8157 81.2043 42.7306 81.2915 42.6434L81.4591 42.4872L80.9675 42.3858C80.6942 42.3284 80.3965 42.2383 80.3016 42.185C79.8951 41.9528 79.6251 41.55 79.5704 41.0801C79.5307 40.7663 79.6194 40.7803 79.8463 41.1235C80.3941 41.9785 81.05 42.2691 81.7291 41.9435C82.2479 41.6984 82.44 41.3922 82.3641 40.9094C82.2912 40.4463 82.0456 40.0761 81.3976 39.4696C80.9461 39.043 80.8382 38.9684 80.4597 38.8224C79.9287 38.6235 79.8561 38.5592 79.8957 38.2916C79.9659 37.9134 79.3533 37.226 77.6063 35.7115C76.3756 34.6386 75.9915 34.213 75.3884 33.2196C75.0028 32.6016 74.8551 32.3958 74.6592 32.2496C74.3424 32.0076 74.3625 32.1357 74.7103 32.5748C75.0809 33.0367 75.0274 33.1244 74.5909 32.7626C74.2467 32.4682 74.0109 32.1909 73.9617 32.0005C73.9425 31.9399 73.6704 31.676 73.265 31.3287C72.4159 30.6042 71.4082 29.6048 69.0771 27.1575C67.5522 25.5578 67.0633 25.0773 66.4133 24.5185C65.9737 24.137 65.4086 23.6301 65.1577 23.3792C64.8099 23.0314 64.6352 22.8982 64.4459 22.8252C64.196 22.733 64.1846 22.7216 63.9613 22.3405C63.7742 22.0372 63.557 21.7868 62.9111 21.1327L62.0958 20.3173L62.0207 19.9931C61.9483 19.655 61.7975 19.4295 61.7466 19.5945C61.7305 19.6448 61.7107 19.733 61.6946 19.7833C61.665 19.8699 61.5385 19.7683 60.4727 18.8271C60.1254 18.5129 60.031 18.402 59.9134 18.1433C59.7943 17.8747 59.7414 17.8135 59.405 17.5684C59.1763 17.3978 58.5056 16.7686 57.6202 15.8749L56.2061 14.4608L56.185 14.174C56.1717 13.8452 56.0287 13.6689 55.9015 13.8075C55.82 13.9004 55.7718 13.8688 54.8858 13.124C54.2047 12.5507 53.6251 12.0127 52.7382 11.1092C51.4236 9.778 47.5022 5.95617 47.2637 5.78411C47.187 5.72399 46.992 5.64527 46.8369 5.60646L46.5481 5.54179L46.5311 5.25083L46.51 4.96402L46.0777 4.5981C45.8345 4.39648 45.694 4.2975 45.7541 4.37422C45.976 4.65417 45.7883 4.591 45.4803 4.2831C45.3093 4.11204 45.1875 3.94873 45.2083 3.92797C45.2332 3.90306 45.2995 3.92792 45.3509 3.97923C45.6754 4.27054 44.9181 3.39703 44.3593 2.83823C43.4283 1.89896 42.6518 1.23863 42.28 1.07443C41.9378 0.914883 41.3481 0.831716 41.2526 0.927204C41.2194 0.960417 41.0477 0.93822 40.8797 0.878152C40.1952 0.650338 39.6152 0.842579 39.1958 1.44447C39.0224 1.68627 38.9778 1.70808 38.7304 1.69318C38.3269 1.66334 38.1837 1.76093 38.0424 2.17594C37.9307 2.50432 37.899 2.54739 37.7502 2.54799C37.6309 2.55325 37.524 2.63734 37.3641 2.84282C37.1518 3.11213 37.1295 3.12303 36.8422 3.06822C36.4662 2.99946 36.4164 3.04928 36.5153 3.37235ZM38.634 4.19579C38.68 4.45769 38.8172 4.99339 38.9482 5.39839C39.2935 6.43292 39.3157 6.69588 39.0831 7.01966C38.9715 7.16547 38.8889 7.3735 38.8909 7.50835C38.8929 7.73449 38.8887 7.73863 38.7804 7.6303C38.5637 7.41362 38.5292 6.98056 38.6996 6.4452C38.7838 6.15573 38.8416 5.88133 38.8198 5.83466C38.8079 5.78955 38.6644 5.57957 38.5068 5.37219C38.2876 5.07824 38.2208 4.92838 38.2048 4.70485C38.1796 4.33091 38.2513 4.0539 38.4242 3.86967L38.5653 3.72851L38.634 4.19579ZM9.53566 33.2714C9.58128 33.317 9.58382 33.3943 9.53815 33.4399C9.45512 33.523 9.36749 33.4851 9.35304 33.3628C9.32873 33.2388 9.45013 33.1858 9.53566 33.2714ZM41.8369 1.31224C41.9542 1.26342 41.9951 1.27947 42.1568 1.48269C42.4274 1.82797 42.4076 1.91615 42.0741 1.87329C41.6914 1.82269 41.3793 1.51893 41.6081 1.41558C41.6569 1.38962 41.7601 1.3434 41.8369 1.31224ZM36.0319 7.72162C36.0801 7.75323 36.0879 7.8025 36.0505 7.83987C36.0132 7.87723 35.9442 7.86638 35.8929 7.81506C35.7959 7.71813 35.9044 7.6439 36.0319 7.72162ZM8.43466 35.7408C8.50933 35.7574 8.60162 35.8248 8.63063 35.887C8.71561 36.0301 8.39177 36.3539 8.0826 36.435C7.77343 36.5161 7.71491 36.3579 7.98317 36.1695C8.09577 36.0911 8.19386 35.9816 8.19856 35.9199C8.20592 35.7529 8.2796 35.702 8.43466 35.7408ZM9.4543 49.2157C9.54553 49.3069 9.65177 49.4629 9.67557 49.5532C9.72424 49.7098 9.72008 49.7139 9.57543 49.6191C9.42663 49.5284 9.14208 49.1857 9.07371 49.026C9.03125 48.9088 9.26613 49.0275 9.4543 49.2157ZM20.2542 58.5209C20.3854 58.6521 20.3931 58.7926 20.2702 58.7445C20.153 58.702 20.0462 58.5122 20.1044 58.4541C20.1251 58.4334 20.1972 58.4639 20.2542 58.5209ZM74.5311 33.0847C74.6508 33.2045 74.6958 33.3989 74.617 33.4778C74.5422 33.5526 74.408 33.4017 74.3785 33.2145C74.346 33.0076 74.4056 32.9593 74.5311 33.0847ZM75.0712 44.4276C75.1412 44.4146 75.289 44.4378 75.4005 44.4746C75.5841 44.5419 75.6297 44.5875 75.9546 45.0951C76.4173 45.807 76.5443 46.0336 76.4944 46.0834C76.3616 46.2162 76.1141 46.2926 76.0457 46.2242C76.0058 46.1843 75.9006 46.0044 75.8209 45.8332C75.7033 45.5745 75.6188 45.4651 75.3202 45.2163C74.9988 44.9447 74.9558 44.8851 74.9263 44.6979C74.8891 44.4614 74.8974 44.4531 75.0712 44.4276ZM80.2098 39.4942L80.4246 39.4847L80.1194 39.7442C79.9114 39.9181 79.7972 40.0779 79.7519 40.2486C79.6667 40.5619 79.6018 40.6382 79.5724 40.451C79.4995 39.9878 79.8182 39.5095 80.2098 39.4942ZM73.1844 46.8503C73.3213 46.9872 73.3596 47.1085 73.3273 47.3004C73.3028 47.4504 73.2888 47.453 73.1292 47.2933C73.0265 47.1907 72.9644 47.0704 72.9758 46.9905C72.9925 46.7913 73.0761 46.742 73.1844 46.8503ZM74.854 45.979C74.9773 46.2435 75.0077 46.4981 74.919 46.4842C74.8444 46.4676 74.6937 46.0595 74.6881 45.8713C74.6923 45.6845 74.7405 45.7161 74.854 45.979ZM64.2699 57.9886C64.4036 58.1971 64.5154 58.5414 64.4671 58.6011C64.3857 58.6939 64.2281 58.4866 64.1551 58.206C64.0786 57.872 64.1305 57.7745 64.2699 57.9886ZM71.2222 51.5723C71.3252 51.8 71.2665 52.007 71.1083 51.9484C71.0207 51.9106 70.8198 51.3361 70.8562 51.2313C70.905 51.114 71.103 51.3037 71.2222 51.5723ZM60.5012 61.7345C60.5909 61.7246 60.6194 61.7531 60.6334 61.8418C60.6473 61.9305 60.6183 61.9596 60.5156 61.9482C60.2879 61.9364 60.2724 61.7466 60.5012 61.7345ZM81.8766 40.7126C82.0715 40.9739 82.1003 41.4012 81.9121 41.2131C81.8437 41.1447 81.6667 40.569 81.704 40.5317C81.7165 40.5192 81.7963 40.5991 81.8766 40.7126ZM68.1706 54.6239C68.2504 54.795 68.2208 54.8816 68.1036 54.8391C68.016 54.8013 67.9689 54.6546 68.0094 54.5456C68.0567 54.4185 68.0878 54.433 68.1706 54.6239Z" fill="black" stroke="white" stroke-width="4" mask="url(#path-1-inside-1_994_4388)"/>
<path d="M40.5488 17.2697C36.5 17.551 32.5742 19.3088 29.6504 22.1506C28.4551 23.3166 27.7578 24.2307 27.1191 25.4728C26.4453 26.7971 25.9707 28.3029 25.7305 29.8967C25.5723 30.9689 25.584 32.6857 25.7539 33.8225C25.8301 34.3029 25.8828 34.8185 25.8711 34.965L25.8535 35.2287L25.502 35.2228C25.3086 35.217 24.9512 35.1935 24.7109 35.1701L24.2715 35.1232L24.0723 35.3225C23.8027 35.592 23.5625 36.1252 23.4805 36.6174C23.3691 37.2619 23.4336 38.4514 23.6152 39.1252C23.6914 39.4299 23.7559 39.6877 23.75 39.6935C23.7383 39.7111 22.4785 38.7853 22.332 38.6506C22.2559 38.5803 22.1914 38.4865 22.1914 38.4396C22.1914 38.34 22.4258 38.34 22.5723 38.4396C22.8887 38.6506 23.1465 38.7912 23.1055 38.7209C22.9941 38.5451 22.1562 37.8889 21.9746 37.842C21.7344 37.7717 21.4883 37.8478 21.4883 37.9826C21.4883 38.0353 21.582 38.1584 21.6934 38.258C21.8398 38.381 21.8926 38.4689 21.8691 38.5451C21.8398 38.6271 21.9453 38.715 22.4082 38.9846C22.7246 39.1721 23.1816 39.4475 23.4277 39.5998L23.8672 39.8869L24.0254 40.3381C24.1133 40.59 24.2129 41.006 24.248 41.2639C24.4238 42.5471 24.4707 42.7228 24.7344 43.2678C24.9512 43.6955 25.1211 43.924 25.5898 44.4279C26.4805 45.3713 26.5801 45.6467 26.4453 46.7424C26.3984 47.1115 26.4043 47.135 26.6152 47.5334C26.9492 48.1486 27.043 48.6057 27.207 50.3459C27.4414 52.8596 27.418 54.7697 27.1309 55.5549C27.0137 55.8947 27.0254 56.6037 27.1953 58.6369C27.2891 59.6916 27.3301 60.5295 27.3066 60.7873C27.2773 61.1799 27.2832 61.215 27.4238 61.3557C27.6758 61.6076 28.0273 61.5432 28.2031 61.2033C28.3145 60.9924 28.3145 60.9221 28.2559 58.2209L28.2148 56.2463L28.3672 56.2756C28.5723 56.3166 28.6953 56.1994 28.6953 55.9592C28.6953 55.7951 28.6602 55.7424 28.4844 55.6369L28.2793 55.5139L28.3145 53.3107C28.3379 52.0978 28.373 50.4689 28.3965 49.6955C28.4375 48.3713 28.4492 48.2658 28.5723 48.0666C28.6484 47.9494 28.7246 47.8557 28.748 47.8557C28.7773 47.8557 28.8301 48.0197 28.8711 48.2189C28.918 48.4416 29.1113 48.8986 29.3457 49.3557C29.7793 50.2053 30.2949 51.4475 30.7168 52.6603C31.2441 54.1662 31.7598 55.0685 32.4219 55.6135C34.0684 56.9904 34.0566 56.9728 35.4219 59.006C36.043 59.9435 36.5 60.5588 36.6934 60.7346C37.666 61.6135 39.3066 62.3342 40.5605 62.4338L41.0879 62.4748L41.0762 62.9142C41.0703 63.1545 41.0117 63.6115 40.9473 63.9338C40.7773 64.7307 40.7832 64.9182 40.9941 65.1525C41.1406 65.3166 41.1934 65.34 41.4512 65.3342C41.8086 65.3283 41.9668 65.2521 42.1133 65.006C42.2656 64.76 42.2598 64.6017 42.084 64.0861C41.9316 63.6467 41.9023 63.2189 41.9844 62.6799L42.0254 62.4162L42.6523 62.3752C43.9062 62.299 44.8555 62.006 45.9746 61.3498C46.2734 61.174 46.543 61.051 46.5664 61.0803C46.5957 61.1037 46.625 61.7892 46.6426 62.5978C46.6602 63.5295 46.6953 64.1154 46.7363 64.1975C46.8301 64.3674 47.123 64.3674 47.2227 64.1857C47.2754 64.0978 47.3047 63.5646 47.3281 62.3869L47.3574 60.717L47.5977 60.2189C47.7266 59.9435 48.3711 58.7189 49.0273 57.4943C51.207 53.4162 51.6875 52.4377 52.4668 50.5217C53.6797 47.5334 54.0254 46.7072 54.0723 46.6545C54.1074 46.6193 54.1836 46.6603 54.2891 46.76L54.4473 46.9182V49.1916C54.4531 50.9435 54.4766 51.6467 54.5527 52.2795C54.6055 52.7307 54.6523 53.3342 54.6523 53.6154C54.6523 54.2014 54.7461 54.4767 54.9805 54.5881C55.1621 54.6701 55.3086 54.6701 55.4902 54.5881C55.7891 54.4533 55.8418 54.1603 55.7422 53.1232C55.7012 52.7365 55.7129 52.5432 55.7832 52.2443C55.8828 51.8517 55.877 51.7932 55.6777 50.9904C55.5898 50.6389 55.584 50.3986 55.6133 49.3732C55.6309 48.7111 55.6719 48.0959 55.707 48.008C55.7598 47.8615 55.7832 47.8498 55.959 47.8908C56.2578 47.9611 56.4277 47.926 56.5859 47.7678C56.7676 47.5861 56.7793 47.2228 56.6211 46.5666C56.4219 45.7287 56.5859 44.633 57.002 44.0178C57.1426 43.8127 57.3418 43.7072 57.4648 43.7834C57.5879 43.8596 57.8281 44.4162 57.9102 44.8322C57.9688 45.09 58.0098 45.7639 58.0332 46.6369L58.0684 48.0314H57.9336C57.8633 48.0314 57.7109 48.1252 57.5996 48.2365C57.3535 48.4826 57.3477 48.7111 57.5938 48.8459C57.7402 48.9279 57.7637 48.9279 57.9219 48.8107L58.0859 48.6877L58.1562 52.5666C58.2031 54.8752 58.2676 56.8088 58.3145 57.3478C58.3613 57.8459 58.4023 58.4435 58.4023 58.6721C58.4023 59.3166 58.5547 59.6154 58.7539 59.3693C58.8945 59.1994 58.9531 57.9338 58.877 56.7092C58.8242 55.842 58.8242 54.9807 58.8711 53.217C59.0645 45.5939 59.1113 42.8283 59.0645 41.5861C59.0059 39.9279 59.0234 39.5646 59.1992 38.6564C59.3926 37.6603 59.4277 37.1564 59.3398 36.7111C59.1055 35.5041 58.168 34.9533 57.0312 35.3635C56.8379 35.4338 56.668 35.4807 56.6562 35.4631C56.5508 35.3576 56.5332 34.7717 56.6094 33.8225C56.7676 31.9123 56.7734 31.6603 56.7031 30.7463C56.4863 27.7697 55.3965 24.8342 53.6211 22.4435C53.1699 21.8342 51.9922 20.6623 51.3711 20.2053C50.3691 19.467 49.0566 18.758 47.8379 18.301C45.7344 17.5158 42.8809 17.1115 40.5488 17.2697ZM38.4512 19.6076C38.791 19.7658 38.9199 19.9299 38.9199 20.2228C38.9199 20.6975 38.5332 21.0432 36.9277 22.0158C36.3828 22.3439 35.8027 22.7131 35.6387 22.8303C35.4805 22.9475 35.252 23.1115 35.1406 23.1877L34.9355 23.3342L35.0469 23.1584C35.5742 22.3557 35.5156 22.0861 34.9004 22.4728L34.6426 22.6369V22.4318C34.6426 22.2385 34.625 22.2209 34.4551 22.2033C34.2031 22.1799 33.5527 22.4846 32.8262 22.9767C31.7656 23.6975 31.0801 24.3478 30.2012 25.4553C30.0195 25.6838 29.8438 25.8889 29.8086 25.9123C29.7207 25.965 29.9023 25.5021 30.1367 25.0803C30.2598 24.8635 30.3242 24.7111 30.2832 24.7346C30.2422 24.7639 29.9316 25.1506 29.5977 25.6017C29.2637 26.0471 28.9883 26.3869 28.9883 26.3517C28.9883 26.2228 29.5742 25.1271 29.9141 24.6232C31.3555 22.467 33.5645 20.7209 35.9023 19.8771C36.9336 19.508 37.9883 19.3967 38.4512 19.6076ZM43.0098 22.9006C43.4199 23.0119 43.5137 23.5041 43.209 23.9553C42.9922 24.2775 42.1602 24.9572 41.498 25.3439C40.9355 25.6838 40.8359 25.7717 40.3027 26.3986C39.9863 26.7736 39.6523 27.1486 39.5645 27.2307C39.3066 27.4592 38.7148 28.2853 38.7148 28.4084C38.7148 28.5842 38.9551 28.6896 39.5586 28.7775C40.25 28.8713 40.3262 28.9299 40.4082 29.4455C40.4375 29.6447 40.5254 29.8908 40.5898 29.9846C40.918 30.4475 41.6035 30.4533 41.9316 29.9963C42.1074 29.7443 42.1309 29.5568 42.0547 29.0529C42.0137 28.8068 41.9961 28.5256 42.0195 28.4318C42.084 28.1857 42.3828 27.9338 43.0918 27.5236C43.4434 27.3303 43.9648 26.967 44.252 26.7267C45.1719 25.9533 46.1797 25.5549 46.6777 25.7658C46.9941 25.8947 47.0586 26.0705 47.0938 26.8381L47.123 27.5353L47.3223 27.7111C47.4922 27.8635 47.5566 27.881 47.75 27.8576C48.0254 27.8225 48.1426 27.7346 48.248 27.4709C48.3242 27.2892 48.3184 26.8908 48.2305 26.5744C48.1895 26.4221 48.4121 26.2346 48.6348 26.2346C48.8867 26.2346 49.502 26.5334 49.6602 26.7267C49.8184 26.9318 49.748 27.1603 49.4434 27.4123C49.168 27.6467 47.9375 28.2385 46.666 28.76C45.2422 29.34 43.918 30.008 42.9629 30.6291C41.9258 31.3029 41.75 31.3615 40.7363 31.3146C40.1504 31.2912 39.6758 31.2209 38.6855 31.01C36.5938 30.5705 36.1602 30.506 35.9023 30.5705C35.791 30.5939 35.9609 30.6584 36.5469 30.799C36.9805 30.9103 38.0996 31.2443 39.0254 31.5432C40.8184 32.1291 41.3281 32.2521 41.6562 32.1877C41.7676 32.1701 42.1602 31.9767 42.5293 31.7658C43.7188 31.0803 44.6914 30.6232 45.7695 30.2482C46.3555 30.049 47.0469 29.7853 47.3164 29.6623C47.5859 29.5451 47.8203 29.4572 47.832 29.4748C47.8496 29.4924 47.7031 29.6271 47.5098 29.7795C47.1875 30.0373 47.0293 30.2189 47.1465 30.2189C47.1699 30.2189 47.5215 30.0607 47.9199 29.8732C48.7051 29.4982 50.0586 29.006 50.1289 29.0705C50.252 29.1994 49.25 29.7736 48.043 30.2717C47.3691 30.5471 46.5898 30.9631 46.6426 31.0158C46.6543 31.0275 46.748 31.01 46.8477 30.9748C47.1992 30.8517 47.1582 30.9572 46.748 31.215C45.3125 32.1232 44.5684 32.6096 44.3926 32.756C44.2109 32.9025 44.2051 32.9142 44.3398 32.885C44.4219 32.8615 45.0137 32.592 45.6582 32.2873C47.0293 31.631 47.3516 31.508 48.2305 31.2678C48.6816 31.1506 49.168 30.9514 49.8184 30.635C50.334 30.383 50.8555 30.1428 50.9844 30.1017C51.3242 29.9963 52.1035 30.0549 52.4258 30.2072C52.6016 30.2951 52.6367 30.3244 52.5312 30.3068C51.6816 30.1486 51.1367 30.1428 51.1367 30.301C51.1367 30.342 51.0312 30.4182 50.9023 30.4709C50.7734 30.5178 50.668 30.5881 50.668 30.6174C50.668 30.6818 50.9668 30.8107 51.6875 31.0451C52.3145 31.2502 53.1055 31.6193 53.3047 31.7951L53.4512 31.924L53.0703 31.8947C52.8594 31.8771 52.373 31.8244 51.9863 31.7775C51.5996 31.7248 50.9727 31.6838 50.5918 31.6838C50 31.6838 49.8652 31.7014 49.6543 31.8068C49.5137 31.883 48.9102 32.4279 48.2656 33.0607C47.6387 33.6818 46.8887 34.3791 46.5957 34.6135C46.3086 34.8537 46.1211 35.0236 46.1855 35.0002C46.25 34.9767 46.9883 34.5959 47.8262 34.1447C48.6641 33.6994 49.7305 33.1486 50.1934 32.9201C50.9375 32.551 51.0723 32.5041 51.3711 32.5041C51.7754 32.5041 52.1855 32.6389 52.8887 33.0021C53.5332 33.3361 53.791 33.5764 53.9258 33.9807C53.9844 34.1623 54.125 34.3908 54.2773 34.5549C54.4883 34.7834 55.1445 35.9494 55.0918 36.008C55.0391 36.0666 54.6348 35.7795 54.1602 35.3517C53.498 34.7541 53 34.3791 52.6602 34.2033C52.4434 34.092 52.3438 34.0744 52.0098 34.1037C51.2363 34.1682 50.3398 34.5607 48.2363 35.756C46.1738 36.9279 44.668 37.6017 44.1113 37.6017C43.5547 37.6017 43.4023 37.3439 43.3555 36.301C43.332 35.6916 43.3848 35.0705 43.502 34.5666C43.5195 34.4963 43.5078 34.4377 43.4727 34.4377C43.373 34.4377 42.957 35.5861 42.7871 36.3244C42.7051 36.6994 42.5938 37.0568 42.5469 37.1154C42.4648 37.2092 42.459 37.1506 42.4883 36.5471C42.5059 36.0725 42.4941 35.7678 42.4355 35.5217C42.3887 35.3283 42.3477 35.0646 42.3477 34.9357C42.3359 34.3732 42.2363 35.0178 42.1484 36.2307C42.0957 36.9396 42.0254 37.7072 41.9902 37.9357C41.9023 38.4865 41.9434 38.715 42.1895 39.0549C42.3008 39.2072 42.4062 39.383 42.4297 39.4533C42.4531 39.5236 42.3887 39.8166 42.2773 40.1564C42.1191 40.6545 42.0898 40.842 42.0664 41.51C42.0547 41.9963 42.0664 42.3185 42.1074 42.3889C42.166 42.4885 42.166 42.4885 42.1719 42.3713C42.1719 42.1721 42.2891 41.8908 42.3887 41.8557C42.4707 41.8205 42.4766 42.0666 42.4355 44.2932C42.4004 46.4201 42.4062 46.8771 42.4883 47.5041C42.5879 48.2307 42.7402 48.9748 42.752 48.7756C42.7695 48.5178 43.2148 47.8732 43.4727 47.7326C43.625 47.6506 43.8125 47.7209 43.8125 47.8674C43.8125 47.9377 43.6133 48.2541 43.373 48.5705C43.127 48.8928 42.8516 49.3029 42.7637 49.4846C42.5645 49.883 42.4648 49.9767 42.084 50.1467C41.8496 50.2521 41.7324 50.2697 41.3926 50.2404C41.1699 50.2228 40.877 50.1525 40.7422 50.0822C40.3906 49.9123 39.043 48.7228 38.9258 48.4767C38.7852 48.1838 38.8027 47.7971 38.9668 47.5568C39.1309 47.3166 39.2188 47.3225 39.6348 47.5978C39.8047 47.7092 39.957 47.7971 39.9746 47.7971C40.0449 47.7971 39.9922 47.6623 39.7988 47.3576C39.3594 46.6721 39.0312 46.4084 38.6855 46.4728C38.2402 46.5607 37.4668 47.3986 37.3965 47.8791C37.332 48.3127 37.4375 48.5119 38.1523 49.256C38.8672 50.0119 38.9375 50.1291 39.2715 51.1955C39.3887 51.5646 39.5469 51.9807 39.6289 52.1154C39.7051 52.2502 39.7695 52.3732 39.7695 52.385C39.7695 52.4025 39.5645 52.4435 39.3125 52.4787C39.0664 52.5139 38.6504 52.5959 38.3926 52.6603L37.9238 52.7775L37.6953 52.5256C37.5723 52.3908 37.209 51.9514 36.8926 51.5529C36.5703 51.1545 36.3125 50.8439 36.3125 50.8615C36.3125 50.9201 37.3672 52.5549 37.4961 52.6955C37.5605 52.7658 37.584 52.842 37.5547 52.8596C37.4258 52.9357 36.7285 53.0705 36.4238 53.0705C35.8789 53.0705 35.6328 52.9006 34.3965 51.676C33.7871 51.0725 32.7207 50.0705 32.0176 49.4435C31.3203 48.8166 30.7461 48.2834 30.7461 48.2541C30.7461 48.1779 32.9609 49.3791 33.6406 49.8185C33.8398 49.9475 33.8398 49.8654 33.6523 49.4553C33.2891 48.676 32.4922 47.7678 31.5664 47.0705C31.2617 46.842 30.5469 46.3791 29.9844 46.0451C28.543 45.1838 28.3555 45.0549 28.2793 44.8088C28.1855 44.5392 28.1855 42.5471 28.2734 42.09C28.4141 41.3635 28.7188 41.0002 29.1816 41.0002C29.2988 41.0002 30.002 41.1467 30.7344 41.3283C32.3809 41.7326 32.2578 41.6975 32.1523 41.7619C32.0352 41.8381 31.2734 41.8322 30.8047 41.756C30.3594 41.6857 30.1426 41.7209 30.1719 41.8674C30.1953 42.008 30.6641 42.2307 30.9512 42.2365L31.1855 42.2424L30.9219 42.3244C30.4414 42.4826 30.3711 42.5236 30.4414 42.5939C30.5469 42.6994 31.5078 42.8693 32.2109 42.9103C32.5801 42.9338 32.9316 42.9748 32.9902 43.0041C33.1602 43.092 33.2656 43.4201 33.2656 43.842C33.2656 44.5041 33.0312 44.8146 32.4746 44.9025C32.2227 44.9377 32.0527 44.8908 30.8633 44.4338C30.5586 44.3166 30.1953 44.176 30.0547 44.1291C29.9199 44.0764 29.6797 43.9475 29.5273 43.842C28.9941 43.467 28.7715 43.3439 28.6719 43.3791C28.3906 43.4846 28.7363 43.7482 30.4238 44.7209C31.0801 45.1017 31.25 45.2189 31.8184 45.6994C32.0352 45.8869 32.2754 46.0392 32.3457 46.0451C32.416 46.051 32.6621 46.0451 32.8906 46.0392C33.3418 46.0275 33.6641 46.1271 33.8984 46.3498C34.0742 46.5139 34.3438 47.0412 34.4316 47.3986C34.5488 47.885 34.6719 49.1506 34.6719 49.883C34.6719 50.5568 34.6777 50.5978 34.8184 50.7502C34.918 50.8557 35.0176 50.9025 35.1641 50.9025C35.4512 50.9025 35.5449 50.8557 35.6504 50.6447C35.7266 50.4924 35.75 50.2346 35.7559 49.1389C35.7617 48.4123 35.7852 47.7853 35.8145 47.7385C35.8379 47.6975 35.8906 47.0353 35.9316 46.2736C36.0137 44.5685 36.0371 44.4982 36.7402 43.9709C36.9863 43.7892 37.3965 43.4846 37.6426 43.2971C37.8945 43.1154 38.1523 42.8752 38.2227 42.7697C38.4043 42.506 38.6562 41.7267 38.6562 41.4455C38.6562 41.2639 38.6973 41.1818 38.8789 40.9943C39.2773 40.6017 39.5938 40.6369 39.5938 41.0822C39.5938 41.1818 39.6348 41.5158 39.6875 41.8205C39.7344 42.1252 39.7988 42.6525 39.8281 42.9924C39.8633 43.467 39.8984 43.6193 39.9805 43.6779C40.1211 43.7834 40.1562 43.7775 40.3027 43.631C40.4258 43.508 40.4316 43.4728 40.3848 42.7932C40.3613 42.4006 40.3203 41.5803 40.2969 40.9709C40.2676 40.215 40.2207 39.7639 40.1562 39.5705C39.9922 39.0725 40.0156 39.0021 40.5547 38.2287C40.8711 37.7717 40.8887 37.5197 40.6543 36.9338C40.4551 36.4299 40.4434 36.3244 40.543 35.8439C40.6191 35.4514 40.584 35.2697 40.373 35.0236C40.0742 34.6662 38.457 33.5119 37.6016 33.0432C37.0449 32.7385 36.1719 32.4455 35.8203 32.4455C35.5273 32.4455 35.4746 32.5158 35.6855 32.6271C35.9199 32.7502 36.582 33.3068 37.1152 33.8342C38.5508 35.2404 39.125 36.6642 38.4688 37.1506C38.2285 37.3322 37.7188 37.3498 37.2793 37.1975C36.8516 37.0451 36.4355 36.7932 35.5508 36.1486C34.0801 35.0705 33.0371 34.4553 32.416 34.2971C31.7949 34.133 30.8105 34.2209 30.2891 34.4904C29.9902 34.6486 29.6035 35.0646 29.1289 35.756C28.7656 36.2892 28.2324 36.9279 28.1914 36.881C28.127 36.8166 28.4844 35.8439 28.6895 35.5275C28.8242 35.3225 29.0293 34.9182 29.1406 34.6369C29.252 34.3498 29.3984 34.0334 29.4688 33.9338C29.6035 33.7346 30.5762 33.0666 31.3027 32.674C31.625 32.4982 31.7773 32.4455 32.0117 32.4455C32.375 32.4455 33.0781 32.6154 33.7168 32.8674C34.127 33.0314 34.2031 33.0783 34.2324 33.2189C34.3555 33.7756 35.1113 33.9045 35.3047 33.4006C35.3398 33.3127 35.3809 32.674 35.3926 31.9767C35.4102 31.133 35.4453 30.5881 35.5098 30.3361C35.5625 30.1076 35.6152 29.4982 35.6328 28.8127C35.6738 27.5705 35.7148 27.3303 35.9434 26.9846C36.1133 26.7267 37.3145 25.7541 37.7188 25.5432C37.959 25.4142 38.0293 25.4084 38.5098 25.4377C38.8027 25.4553 39.125 25.4494 39.2363 25.4142C39.6055 25.3088 40.0449 24.7814 40.2441 24.2014C40.3086 24.0197 40.4141 23.8088 40.4785 23.7385C40.6426 23.5627 41.9844 22.9533 42.3359 22.8947C42.7285 22.8303 42.7637 22.8303 43.0098 22.9006ZM32.498 27.3127C33.4121 27.6232 33.7461 27.9924 33.9629 28.9357C34.1035 29.5392 34.168 30.1017 34.1035 30.1017C34.0742 30.1017 33.6992 30.0197 33.2656 29.926C32.2344 29.6916 31.4023 29.6447 30.7637 29.7736C30.2305 29.8791 29.0703 30.2834 28.2031 30.6642C27.5059 30.9689 27.5586 30.8576 28.3672 30.3244C29.0176 29.8967 29.5625 29.633 30.2598 29.4221C30.5586 29.3283 30.8047 29.2346 30.8047 29.2111C30.8047 29.1877 30.7051 29.1408 30.582 29.0998C30.4062 29.0471 30.2246 29.0529 29.7148 29.1291C29.3633 29.1818 29.0527 29.2228 29.0293 29.2228C28.9473 29.2228 28.9883 29.0646 29.1641 28.7072C29.4805 28.0861 30.4004 27.342 31.0742 27.1721C31.4141 27.09 32.0117 27.1486 32.498 27.3127ZM34.1504 30.4475C34.2148 30.5119 34.3145 32.3517 34.2676 32.6389C34.2441 32.7912 34.209 32.9318 34.1914 32.9494C34.1738 32.967 33.8633 32.8264 33.5059 32.6389C32.8613 32.3049 32.8438 32.299 32.3984 32.3107C31.8711 32.3166 31.2266 32.4045 29.041 32.7678C28.1621 32.9084 27.4355 33.0197 27.4238 33.008C27.377 32.9611 30.3359 31.2443 31.2441 30.7873C31.7656 30.5295 32.0527 30.4475 32.6797 30.3947C33.1953 30.3478 34.0859 30.383 34.1504 30.4475ZM25.5664 36.1955C25.8711 36.4006 26.2109 36.6701 26.3223 36.7932C26.7676 37.3205 26.8965 38.7912 26.5098 39.0314C26.3574 39.131 26.2344 39.0197 25.9824 38.5627C25.7129 38.0705 25.5254 37.8713 24.8926 37.3908C24.2539 36.9045 24.2129 36.84 24.2246 36.3771C24.2363 35.885 24.3418 35.7619 24.7227 35.7971C24.9395 35.8205 25.1211 35.9084 25.5664 36.1955ZM58.0859 36.1252C58.1973 36.1955 58.2852 36.4182 58.2852 36.6232C58.2852 36.8107 58.209 36.8928 57.377 37.6545C56.4219 38.5158 56.2168 38.633 56.1465 38.3459C56.0938 38.1467 56.2637 37.426 56.4395 37.0803C56.627 36.7053 56.9902 36.3361 57.3066 36.1896C57.5527 36.0783 57.9688 36.0432 58.0859 36.1252ZM31.6543 37.0744C31.6367 37.1037 31.3496 37.2971 31.0215 37.4963C30.6172 37.7424 30.3008 37.9943 30.043 38.2697C29.3105 39.0549 29.0469 39.301 28.959 39.301C28.8301 39.301 28.8477 39.1838 29.0527 38.7795C29.2812 38.3225 29.7676 37.7892 30.1426 37.5842C30.3594 37.467 31.5547 37.0217 31.6719 37.0158C31.6836 37.0158 31.6719 37.0392 31.6543 37.0744ZM35.293 38.0998C36.0898 38.6447 36.2129 39.6994 35.5625 40.3732C34.8066 41.1642 33.582 40.9885 33.1133 40.0217C32.7324 39.2482 33.0312 38.3752 33.8105 37.9826C34.0742 37.8478 34.1738 37.8303 34.5371 37.8478C34.918 37.8654 34.9883 37.8889 35.293 38.0998ZM49.6602 37.9592C50.5977 38.4162 50.832 39.5529 50.1465 40.3146C49.4316 41.1115 48.1777 40.9357 47.6621 39.9748C47.4863 39.6467 47.4863 39.0139 47.6621 38.6799C47.8203 38.3869 48.248 37.9943 48.5117 37.9123C48.8516 37.801 49.373 37.8244 49.6602 37.9592ZM55.0098 40.6076C55.0566 40.7131 55.0391 40.8244 54.9277 41.1232C54.8457 41.3342 54.7227 41.715 54.6523 41.9728C54.4824 42.6115 54.2188 43.0685 53.7734 43.5256C53.3457 43.965 53.1816 44.0412 51.957 44.3693C50.4512 44.7736 49.9648 45.0607 49.25 45.9807L49.0918 46.1857V45.6877C49.0918 44.7736 49.3496 43.7248 49.6895 43.2678C49.9004 42.9924 50.375 42.7228 50.7676 42.6642C51.1543 42.6057 51.1484 42.7287 50.709 43.3557C50.3164 43.924 50.0527 44.3869 50.0996 44.4396C50.1172 44.4514 50.4336 44.1584 50.8027 43.7892C51.1719 43.4142 51.5059 43.1096 51.541 43.1096C51.582 43.1096 51.4355 43.3088 51.2246 43.5607C51.0137 43.8068 50.8438 44.0295 50.8438 44.0588C50.8438 44.1525 51.0781 44.0471 51.7227 43.6779C52.5898 43.1799 52.7363 43.0627 53.1289 42.5471C53.6094 41.9084 53.6035 41.8029 53.1055 42.1193C52.9473 42.2131 52.8125 42.2834 52.8008 42.2717C52.7598 42.2307 53.3691 41.3869 53.6445 41.0939C54.0488 40.6721 54.3887 40.4728 54.6934 40.4728C54.9043 40.4728 54.957 40.4963 55.0098 40.6076ZM25.4609 40.965C25.7598 41.2463 26.1582 41.8557 26.0879 41.926C26.041 41.9787 25.4434 41.3517 25.1855 40.9767C24.9395 40.6193 25.0859 40.6135 25.4609 40.965ZM56.4395 41.6506C56.498 41.7326 56.1523 42.4123 55.959 42.6115C55.8008 42.7697 55.7949 42.7697 55.7773 42.6467C55.7656 42.5764 55.8008 42.3771 55.8535 42.2072C56 41.7502 56.3164 41.4455 56.4395 41.6506ZM26.2695 43.385C26.6797 43.6896 26.8203 43.883 26.8203 44.1057C26.8203 44.2463 26.8027 44.2463 26.5977 44.1408C26.3516 44.0119 25.7832 43.3674 25.5898 42.9924L25.5137 42.8517L25.6836 42.9572C25.7773 43.0158 26.041 43.2092 26.2695 43.385ZM55.8652 44.0295C55.7539 44.2463 55.6133 44.5685 55.5605 44.7326C55.5078 44.9025 55.4434 45.0549 55.4141 45.0725C55.25 45.1721 55.3555 44.5568 55.5547 44.2756C55.6074 44.1994 55.6484 44.0998 55.6484 44.0529C55.6484 43.965 56 43.5607 56.0469 43.6017C56.0586 43.6135 55.9766 43.8068 55.8652 44.0295ZM47.498 45.0373C47.8086 45.3478 47.9141 45.8576 47.9141 47.1115C47.9141 47.715 47.9375 48.0373 47.9961 48.1721C48.1777 48.6115 48.6758 48.758 49.0215 48.465C49.25 48.2717 49.332 47.9846 49.2559 47.6037C49.2266 47.4396 49.209 47.3049 49.2148 47.299C49.2266 47.2932 49.3555 47.2463 49.5137 47.1935C49.8066 47.0939 49.8594 47.1291 49.6719 47.299C49.6074 47.3576 49.5547 47.4807 49.5547 47.5744C49.5547 47.7326 49.5664 47.7385 49.8359 47.7385C49.9883 47.7385 50.2051 47.715 50.3164 47.6857C50.75 47.5744 50.8438 47.5627 50.8438 47.6154C50.8438 47.7502 50.1348 48.4182 49.4199 48.9572C48.6289 49.5549 47.2695 50.7502 47.2695 50.8439C47.2695 50.8791 47.3223 50.8791 47.4043 50.8498C47.5215 50.8029 49.0039 50.0119 50.0234 49.4494L50.4043 49.2385L49.7539 49.9416C49.4023 50.3225 48.7461 51.0549 48.3008 51.5646C47.8027 52.133 47.3926 52.5432 47.2285 52.6369C46.9414 52.8068 46.3965 52.8771 46.0156 52.7951L45.7871 52.7482L46.3145 52.2795C46.6074 52.0217 46.8418 51.8049 46.8359 51.799C46.8242 51.7873 46.5137 51.9865 46.1328 52.2443L45.4414 52.7014L44.9258 52.5959C44.6445 52.5373 44.1055 52.4728 43.7305 52.4494C43.25 52.4201 43.0508 52.385 43.0508 52.3381C43.0508 52.215 43.3965 51.9514 44.1055 51.5295C45.3535 50.7971 45.5527 50.5451 45.6348 49.5783C45.6699 49.1389 45.7344 48.8459 45.875 48.4885C46.0508 48.0256 46.0625 47.9435 46.0977 46.8889C46.1211 46.2619 46.1738 45.6994 46.209 45.5998C46.4199 45.0783 47.1992 44.7385 47.498 45.0373ZM43.5488 46.01C43.5312 46.1682 43.4727 46.3791 43.4258 46.4787C43.3438 46.6486 43.3438 46.6486 43.373 46.3322C43.3906 46.1564 43.4023 45.799 43.4082 45.5412L43.4141 45.0725L43.502 45.3947C43.5547 45.6057 43.5723 45.8225 43.5488 46.01ZM50.4336 46.092C50.4336 46.1506 49.8945 46.59 49.4727 46.8713C49.1621 47.0822 49.0742 47.0822 49.0977 46.8713C49.1152 46.7365 49.1973 46.6721 49.7598 46.3791C50.4922 45.9982 50.4336 46.0217 50.4336 46.092ZM50.6445 50.299C50.0645 51.0725 49.4727 51.9572 48.8926 52.9182C48.2598 53.9728 47.9199 54.4709 47.8438 54.4767C47.791 54.4767 47.9199 54.1662 48.2363 53.5392C48.7051 52.6135 49.7832 51.0725 50.4512 50.3869C50.6504 50.1877 50.8203 50.0236 50.832 50.0236C50.8438 50.0236 50.7617 50.1467 50.6445 50.299ZM32.3457 51.0725C32.9785 51.7287 33.3359 52.2736 34.1914 53.8967C34.5547 54.5881 34.9297 55.2326 35.0176 55.3322C35.1055 55.426 35.375 55.6662 35.6152 55.8537C36.3242 56.4162 37.3555 57.342 37.5312 57.5646C37.9004 58.051 38.0879 58.2209 38.3223 58.3029C38.4922 58.3557 38.6094 58.4494 38.709 58.5959C38.8789 58.8537 39.084 58.924 39.2949 58.8068C39.5938 58.6369 39.5117 58.4846 38.668 57.5881C38.2344 57.1369 37.748 56.6857 37.584 56.5803C37.4141 56.4748 37.2148 56.3517 37.1445 56.3107C36.9395 56.1877 37.0156 56.1701 37.3379 56.2639C37.748 56.3869 38.5859 56.5217 39.2715 56.5744L39.8574 56.6154L39.8926 57.0256C39.9219 57.3537 39.9863 57.5588 40.2266 58.051C40.3906 58.3908 40.5781 58.8361 40.6484 59.0471C40.8008 59.4924 40.8945 60.3947 40.8711 61.133L40.8535 61.6545L40.5664 61.6721C40.4082 61.6838 40.2148 61.6779 40.1387 61.6545C39.9277 61.6017 39.623 61.3029 39.3535 60.881C39.0723 60.4299 38.8965 60.2541 38.5684 60.09C38.1758 59.8908 37.748 59.5334 37.4492 59.1467C37.291 58.9475 36.998 58.5959 36.7988 58.3615C36.5938 58.133 36.4297 57.9221 36.4297 57.8986C36.4297 57.8752 36.5703 57.9924 36.7461 58.1623C37.0566 58.4494 37.2559 58.5314 37.3379 58.3967C37.4199 58.2736 37.3027 58.0627 37.0098 57.7814C36.8457 57.6232 36.5938 57.3361 36.4531 57.1486C36.3066 56.9435 35.9258 56.5803 35.5508 56.2814C35.1992 55.9943 34.8066 55.631 34.6777 55.4728C34.5547 55.3146 34.168 54.6935 33.8164 54.0842C33.4707 53.4807 32.8789 52.5197 32.5039 51.9572C31.8066 50.9084 31.5078 50.4279 31.5078 50.3517C31.5078 50.2639 31.8477 50.5568 32.3457 51.0725ZM50.0586 53.1701C49.7773 53.8967 49.584 54.1955 49.1445 54.6232C48.9805 54.7814 48.7578 55.0334 48.6582 55.1799C48.5586 55.3264 48.3359 55.59 48.166 55.7717C47.9199 56.0295 47.8145 56.2053 47.6797 56.5861C47.4336 57.2541 47.3691 57.3596 46.959 57.8107C46.5137 58.2971 46.0156 58.9299 46.0742 58.9299C46.1035 58.9299 46.2383 58.8185 46.373 58.6838C46.8535 58.2092 46.6191 58.5373 46.0684 59.1057C45.7637 59.4221 45.5117 59.7092 45.5117 59.7502C45.5117 59.7853 45.623 59.7443 45.7637 59.6623C46.1445 59.4221 46.502 59.2697 46.5723 59.3166C46.7598 59.4338 46.4082 60.2658 45.9453 60.7932C45.3828 61.4318 44.8203 61.6838 43.9473 61.6838C43.5078 61.6838 42.2656 61.5373 42.1836 61.4728C42.1602 61.4611 42.4824 59.3869 42.5996 58.7834C42.6582 58.4728 42.6641 58.256 42.623 57.9396C42.5938 57.7053 42.5879 57.424 42.6113 57.3127C42.6582 57.0549 42.9688 56.7443 43.3145 56.6154C43.6367 56.4865 43.7012 56.5275 43.7305 56.8908C43.7598 57.131 43.748 57.1486 43.4902 57.3361C43.1855 57.5588 43.1738 57.6584 43.4668 57.6994L43.666 57.7287L43.2734 58.0392C42.7578 58.4494 42.752 58.5373 43.2441 58.426C43.8066 58.2971 43.9707 58.2326 44.6211 57.9221C44.9551 57.758 45.2363 57.6408 45.2539 57.6584C45.2715 57.676 44.8965 58.092 44.4219 58.59C43.8594 59.176 43.5898 59.4924 43.6484 59.5041C43.9121 59.5568 46.2793 57.9162 46.7188 57.3713C46.8359 57.2307 47.0117 56.9025 47.1172 56.633C47.4395 55.8244 47.5273 55.6896 48.2012 55.0627C48.9863 54.3361 49.4082 53.8322 49.7246 53.2404C49.9531 52.8127 50.2344 52.4435 50.2871 52.4963C50.3047 52.508 50.1992 52.8127 50.0586 53.1701ZM32.2285 53.4455C32.5801 53.9787 33.0547 54.8225 33.0195 54.8576C32.9668 54.9103 32.5977 54.5588 32.3926 54.2541C32.1406 53.8791 31.8301 53.2814 31.707 52.9299L31.6191 52.6955L31.7715 52.8361C31.8477 52.9123 32.0586 53.1877 32.2285 53.4455ZM44.9141 53.8205C45.002 53.9318 45.0078 54.7287 44.9258 54.8928C44.7793 55.1564 44.0938 55.2971 44.0234 55.0744C43.9707 54.9162 43.9531 53.8498 44 53.7971C44.0645 53.7326 44.457 53.6799 44.6621 53.7033C44.7617 53.715 44.873 53.7678 44.9141 53.8205ZM47.5508 53.7267C47.5098 53.8381 47.0352 54.1193 46.8184 54.1603C46.6309 54.1955 46.625 54.1955 46.625 53.9963V53.7912L46.9941 53.7326C47.5156 53.6447 47.5742 53.6447 47.5508 53.7267ZM35.8438 53.885C36.0723 53.967 36.1074 54.008 36.125 54.1721C36.1484 54.4006 36.0723 54.4123 35.6973 54.2365C35.4453 54.1193 35.1992 53.885 35.1992 53.7619C35.1992 53.6975 35.4688 53.7502 35.8438 53.885ZM43.6074 53.7971C43.8008 53.8791 43.8125 53.9025 43.8125 54.1721C43.8125 55.0568 43.2266 55.6545 42.7871 55.2092C42.6523 55.0803 42.6406 55.0217 42.6406 54.5412C42.6406 54.2541 42.6641 53.9494 42.6992 53.8674C42.752 53.7267 42.7871 53.715 43.0801 53.715C43.2617 53.715 43.4961 53.756 43.6074 53.7971ZM46.4844 54.0197C46.4609 54.1603 46.4023 54.3303 46.3555 54.4006C46.2324 54.5881 45.9453 54.7228 45.6992 54.6994C45.4355 54.676 45.3359 54.5178 45.3359 54.0783V53.7736H45.9277H46.5254L46.4844 54.0197ZM39.0312 53.9553C39.1309 54.0549 39.2129 55.0568 39.1309 55.174C39.0547 55.2912 38.4922 55.3205 38.3047 55.2267C38.0176 55.0744 37.7598 54.3771 37.8945 54.1252C38.0059 53.9201 38.2461 53.8264 38.6152 53.8498C38.8086 53.8615 38.9844 53.9025 39.0312 53.9553ZM40.748 54.0432C40.8652 54.2014 40.9004 54.6057 40.8301 54.9807C40.7832 55.2443 40.7246 55.3615 40.5898 55.4846C40.3438 55.7072 39.998 55.7131 39.7988 55.4963C39.6113 55.2971 39.4121 54.7521 39.4004 54.424C39.3887 54.1896 39.4062 54.1545 39.5762 54.0549C39.957 53.8264 40.584 53.8264 40.748 54.0432ZM37.5078 54.0432C37.5957 54.2658 37.6133 54.7697 37.543 54.8576C37.3965 55.0334 36.9688 54.8869 36.8457 54.6115C36.7402 54.383 36.7637 54.0197 36.8867 53.9904C37.1387 53.926 37.4727 53.9494 37.5078 54.0432ZM36.5469 54.2189C36.5469 54.4006 36.5293 54.424 36.418 54.4064C36.3125 54.3947 36.2773 54.342 36.2656 54.1955C36.248 54.0256 36.2598 54.008 36.3945 54.008C36.5293 54.008 36.5469 54.0314 36.5469 54.2189ZM42.0254 54.6584C42.0781 54.758 42.125 54.9865 42.1309 55.1682C42.1426 55.4846 42.1367 55.5021 42.002 55.5021C41.9199 55.5021 41.8145 55.4435 41.7559 55.3557C41.6094 55.1623 41.5449 54.6818 41.6445 54.5646C41.7617 54.424 41.9258 54.4592 42.0254 54.6584ZM46.1855 55.8185C46.1211 55.883 45.7637 56.0939 45.3945 56.299C45.0254 56.4982 44.6504 56.715 44.5625 56.7736C44.3984 56.885 44.3984 56.885 44.3984 56.7619C44.3984 56.6975 44.4336 56.551 44.4805 56.4455C44.5449 56.2932 44.6094 56.2404 44.7559 56.2111C44.8672 56.1935 45.2305 56.0705 45.5703 55.9416C46.2734 55.6779 46.3438 55.6662 46.1855 55.8185ZM44.5449 57.1428C44.3633 57.2951 44.2812 57.3244 44.2812 57.2424C44.2812 57.2014 44.6094 57.008 44.6914 57.0021C44.709 57.0021 44.6445 57.0666 44.5449 57.1428Z" fill="white"/>
<path d="M45.6875 26.8789C45.6875 26.9082 45.7109 26.9375 45.7402 26.9375C45.7754 26.9375 45.8164 26.9082 45.834 26.8789C45.8516 26.8438 45.8281 26.8203 45.7812 26.8203C45.7285 26.8203 45.6875 26.8438 45.6875 26.8789Z" fill="white"/>
<path d="M42.67 28.1094C42.6524 28.1387 42.6758 28.168 42.7227 28.168C42.7696 28.168 42.8282 28.1387 42.8457 28.1094C42.8633 28.0742 42.8399 28.0508 42.793 28.0508C42.7461 28.0508 42.6875 28.0742 42.67 28.1094Z" fill="white"/>
<path d="M39.3945 29.1992C39.3418 29.3398 39.3535 29.5156 39.418 29.5156C39.4766 29.5156 39.5938 29.2754 39.5938 29.1582C39.5938 29.0703 39.4356 29.0996 39.3945 29.1992Z" fill="white"/>
<path d="M38.0118 29.2227C37.9649 29.252 37.9414 29.293 37.9649 29.3106C38.0176 29.3633 38.2461 29.2871 38.2461 29.2168C38.2461 29.1465 38.1231 29.1524 38.0118 29.2227Z" fill="white"/>
<path d="M39.9453 29.2876C39.9453 29.3169 39.9746 29.3287 40.0039 29.3111C40.0391 29.2935 40.0625 29.2642 40.0625 29.2466C40.0625 29.2349 40.0391 29.2232 40.0039 29.2232C39.9746 29.2232 39.9453 29.2525 39.9453 29.2876Z" fill="white"/>
<path d="M44.9375 59.3228C44.6328 59.6978 44.3398 60.1079 44.3398 60.1724C44.3398 60.313 44.4805 60.1665 44.791 59.7036C45.1953 59.1177 45.2363 59.0474 45.2012 59.0474C45.1836 59.0474 45.0664 59.1704 44.9375 59.3228Z" fill="white"/>
<path d="M23.5801 18.9571C23.4805 19.0626 23.4805 19.0802 23.5684 19.1681C23.6856 19.2853 23.8906 19.2911 24.043 19.1798C24.1309 19.1095 24.1426 19.0743 24.0899 18.9864C23.9961 18.8341 23.7031 18.8224 23.5801 18.9571Z" fill="white"/>
<path d="M20.9668 20.4865C20.8965 20.5333 20.8965 20.5626 20.9785 20.6915C21.1426 20.9435 21.3535 21.049 21.5176 20.9728C21.7461 20.8673 21.7168 20.6271 21.459 20.5157C21.2305 20.422 21.084 20.4103 20.9668 20.4865Z" fill="white"/>
<path d="M22.3672 20.961C22.2207 21.1075 22.2207 21.1543 22.3848 21.3418C22.5606 21.5469 22.9649 21.6114 23.1289 21.459C23.2461 21.3536 23.2813 21.1602 23.1993 21.043C23.0528 20.8262 22.5547 20.7735 22.3672 20.961Z" fill="white"/>
<path d="M23.6739 20.9021C23.4278 21.0017 23.4512 21.3474 23.7149 21.4881C23.8907 21.5818 24.2129 21.5584 24.3184 21.4412C24.6172 21.1131 24.1426 20.7146 23.6739 20.9021Z" fill="white"/>
<path d="M56.6152 21.0137C56.5742 21.084 56.7969 21.3536 56.8496 21.3008C56.9082 21.2422 56.8262 21.0372 56.7324 20.9961C56.6856 20.9786 56.6328 20.9903 56.6152 21.0137Z" fill="white"/>
<path d="M22.2266 21.8461C21.9102 22.0981 22.1387 22.4789 22.6426 22.5258C23.0762 22.5668 23.334 22.3207 23.211 21.9867C23.1113 21.7289 22.4961 21.6352 22.2266 21.8461Z" fill="white"/>
<path d="M57.5938 22.0507C57.5996 22.1034 57.6465 22.162 57.6875 22.1796C57.7403 22.1972 57.7637 22.1679 57.7461 22.0976C57.7403 22.0448 57.6934 21.9862 57.6524 21.9686C57.5996 21.9511 57.5762 21.9804 57.5938 22.0507Z" fill="white"/>
<path d="M25.0274 22.2796C24.9688 22.4203 25.1211 22.5492 25.3145 22.5316C25.5254 22.5082 25.5723 22.4203 25.4434 22.2855C25.3203 22.1683 25.0684 22.1625 25.0274 22.2796Z" fill="white"/>
<path d="M19.9356 22.6892C19.7598 22.8592 19.7539 22.9588 19.8946 23.0877C20.0469 23.2224 20.2168 23.2107 20.3633 23.0525C20.7032 22.6951 20.2813 22.3377 19.9356 22.6892Z" fill="white"/>
<path d="M23.1582 23.1875C23.1758 23.2168 23.2051 23.2461 23.2227 23.2461C23.2344 23.2461 23.2461 23.2168 23.2461 23.1875C23.2461 23.1523 23.2168 23.1289 23.1817 23.1289C23.1524 23.1289 23.1406 23.1523 23.1582 23.1875Z" fill="white"/>
<path d="M21.8868 23.2875C21.7461 23.4575 21.7227 23.5864 21.8164 23.686C22.0039 23.8735 22.3028 23.4809 22.1328 23.2758C22.0391 23.1645 21.9922 23.1645 21.8868 23.2875Z" fill="white"/>
<path d="M16.9414 23.9141C16.8887 24.043 16.9531 24.1836 17.0645 24.1836C17.1348 24.1836 17.1524 24.1367 17.1406 24.0254C17.1231 23.8496 16.9942 23.7793 16.9414 23.9141Z" fill="white"/>
<path d="M21.0195 23.9494C20.9668 24.049 20.9844 24.0959 21.1074 24.2189C21.2715 24.383 21.4707 24.3888 21.5703 24.2306C21.6172 24.1486 21.6055 24.1017 21.5176 24.0138C21.3301 23.838 21.0957 23.8087 21.0195 23.9494Z" fill="white"/>
<path d="M24.7168 24.2071C24.5645 24.3887 24.8985 24.6348 25.0918 24.4766C25.2032 24.3829 25.2032 24.3301 25.086 24.2188C24.9746 24.1016 24.8047 24.0958 24.7168 24.2071Z" fill="white"/>
<path d="M59.961 26.0064C59.5684 26.317 59.9903 27.1548 60.5176 27.1021C60.9805 27.0552 61.0391 26.5162 60.6289 26.106C60.377 25.8482 60.1954 25.8248 59.961 26.0064Z" fill="white"/>
<path d="M61.2207 28.4196C61.1856 28.4665 61.1153 28.6013 61.0625 28.7243C60.9805 28.9177 60.9805 28.9587 61.0567 29.0349C61.1387 29.1111 61.1621 29.1052 61.2969 28.9704C61.4434 28.8239 61.4844 28.6247 61.4141 28.4372C61.3731 28.3259 61.3086 28.32 61.2207 28.4196Z" fill="white"/>
<path d="M17.7441 29.0358C17.7031 29.1178 17.7031 29.1764 17.7617 29.2585C17.832 29.3522 17.8555 29.3522 17.9375 29.2819C18.0605 29.1823 18.0371 28.9655 17.9023 28.9421C17.8496 28.9303 17.7793 28.9714 17.7441 29.0358Z" fill="white"/>
<path d="M61.918 29.4336C61.918 29.4805 61.9473 29.5039 61.9766 29.4864C62.0117 29.4688 62.0352 29.4278 62.0352 29.3926C62.0352 29.3633 62.0117 29.3399 61.9766 29.3399C61.9473 29.3399 61.918 29.3809 61.918 29.4336Z" fill="white"/>
<path d="M59.6328 29.5449C59.6328 29.5918 59.6738 29.6328 59.7207 29.6328C59.7676 29.6328 59.8086 29.5918 59.8086 29.5449C59.8086 29.498 59.7676 29.457 59.7207 29.457C59.6738 29.457 59.6328 29.498 59.6328 29.5449Z" fill="white"/>
<path d="M61.0508 29.9551C60.9512 30.166 60.9629 30.2188 61.0977 30.2188C61.2266 30.2188 61.3555 30.0195 61.3086 29.8906C61.2559 29.7617 61.1211 29.7969 61.0508 29.9551Z" fill="white"/>
<path d="M22.9824 30.5708C22.8711 30.7466 23.1465 31.022 23.3633 30.9516C23.4922 30.9106 23.5215 30.6938 23.4101 30.5825C23.3223 30.4946 23.0351 30.4888 22.9824 30.5708Z" fill="white"/>
<path d="M20.7325 30.8521C20.627 31.0513 20.9375 31.356 21.1133 31.2095C21.2364 31.1099 21.2129 30.94 21.0665 30.8404C20.8965 30.7174 20.8028 30.7232 20.7325 30.8521Z" fill="white"/>
<path d="M58.8008 31.0684C58.6602 31.3848 58.9532 31.707 59.1993 31.5019C59.2989 31.4199 59.2754 31.1445 59.1582 30.998C59.0528 30.875 58.877 30.9101 58.8008 31.0684Z" fill="white"/>
<path d="M61.836 31.0681C61.6192 31.1618 61.5078 31.5485 61.5489 32.0407C61.5782 32.3337 61.5664 32.3864 61.4492 32.4802C61.168 32.7146 61.1504 32.738 61.2207 32.861C61.2676 32.9548 61.3321 32.9724 61.5254 32.9607C61.7657 32.9431 61.7715 32.9372 61.9239 32.5564C62.0645 32.2165 62.0762 32.1403 62.0176 31.9294C61.9649 31.7302 61.9707 31.654 62.0586 31.4607C62.1641 31.2204 62.17 31.0329 62.0645 31.0036C62.0352 30.9978 61.9297 31.0212 61.836 31.0681Z" fill="white"/>
<path d="M60.6523 31.6248C60.4531 31.701 60.4355 31.7889 60.5937 31.8944C60.7051 31.9647 60.7812 31.9764 60.9043 31.9354C61.0977 31.8709 61.1328 31.783 61.0098 31.66C60.9043 31.5545 60.834 31.5487 60.6523 31.6248Z" fill="white"/>
<path d="M18.1602 32.8086C17.9902 32.9786 18.1133 33.3301 18.3828 33.4708C18.7109 33.6407 18.9688 33.5293 18.9688 33.2071C18.9688 32.879 18.377 32.5918 18.1602 32.8086Z" fill="white"/>
<path d="M60.1016 33.0721C59.9141 33.1365 59.8086 33.3475 59.8086 33.6639C59.8086 33.9158 59.8379 33.9979 59.9551 34.1151C60.2773 34.4432 60.6289 34.1678 60.6289 33.5994C60.6289 33.2303 60.377 32.9783 60.1016 33.0721Z" fill="white"/>
<path d="M61.1387 33.5123C60.9688 33.6471 60.9102 33.8932 61.0098 34.1158C61.0918 34.3268 61.1328 34.3502 61.3028 34.2857C61.42 34.2389 61.5664 33.9576 61.5664 33.776C61.5664 33.6354 61.4082 33.442 61.2969 33.442C61.2617 33.442 61.1914 33.4772 61.1387 33.5123Z" fill="white"/>
<path d="M61.8711 33.5709C61.7715 33.694 61.8887 33.8404 62.0176 33.7584C62.0762 33.7233 62.1231 33.6588 62.1231 33.6119C62.1231 33.5006 61.9532 33.4772 61.8711 33.5709Z" fill="white"/>
<path d="M19.0039 33.7702C18.8457 33.9284 18.916 34.1393 19.2383 34.4616C19.6895 34.901 20.2403 35.1354 20.4219 34.9537C20.586 34.7897 20.5039 34.5553 20.1582 34.2096C19.6602 33.7174 19.2207 33.5534 19.0039 33.7702Z" fill="white"/>
<path d="M18.6113 34.9655C18.7519 35.0885 18.8516 35.1178 18.8516 35.0358C18.8516 34.9479 18.7109 34.8483 18.5937 34.8483C18.4766 34.8541 18.4766 34.8541 18.6113 34.9655Z" fill="white"/>
<path d="M18.9219 35.358C18.9336 35.4635 19.0098 35.5631 19.1387 35.651C19.3789 35.815 19.4375 35.8209 19.4375 35.6803C19.4317 35.5572 19.3379 35.4342 19.1446 35.2994C18.9453 35.1647 18.8985 35.1764 18.9219 35.358Z" fill="white"/>
<path d="M61.5137 35.5924C61.3789 35.7565 61.3965 35.9381 61.5547 36.0612C61.6777 36.1608 61.7012 36.1608 61.8828 36.0143C62.0469 35.8854 62.0879 35.6276 61.9648 35.5045C61.8477 35.3873 61.6426 35.4284 61.5137 35.5924Z" fill="white"/>
<path d="M60.7168 36.0199C60.5117 36.2484 60.752 36.5765 60.9688 36.3597C61.0977 36.2308 61.0156 35.9027 60.8633 35.9027C60.8399 35.9027 60.7754 35.9554 60.7168 36.0199Z" fill="white"/>
<path d="M20.8555 37.0859C20.7383 37.2031 20.7793 37.4082 20.9375 37.5371C21.1895 37.7363 21.4297 37.666 21.4297 37.3965C21.4297 37.1328 21.0254 36.916 20.8555 37.0859Z" fill="white"/>
<path d="M61.4492 38.2754C61.332 38.416 61.4258 38.6562 61.6016 38.6562C61.7656 38.6562 61.8301 38.5449 61.7774 38.334C61.7363 38.1699 61.5664 38.1348 61.4492 38.2754Z" fill="white"/>
<path d="M20.0234 41.6387C20.0234 41.7324 20.3223 42.0547 20.4102 42.0547C20.5449 42.0547 20.5039 41.8848 20.3398 41.7324C20.1816 41.5859 20.0234 41.5391 20.0234 41.6387Z" fill="white"/>
<path d="M21.0195 43.1566C21.0195 43.2386 21.3066 43.4847 21.3535 43.4437C21.3711 43.4202 21.3301 43.3382 21.2539 43.2562C21.1133 43.1097 21.0195 43.0687 21.0195 43.1566Z" fill="white"/>
<path d="M22.4258 44.3874C22.4258 44.4811 22.6836 44.7155 22.707 44.6393C22.7187 44.5983 22.6836 44.5163 22.625 44.4518C22.5195 44.3346 22.4258 44.3053 22.4258 44.3874Z" fill="white"/>
<path d="M60.5 44.5454C60.4532 44.6509 60.4532 44.7153 60.4942 44.7563C60.6172 44.8794 60.9219 44.604 60.8282 44.4516C60.7637 44.3462 60.5645 44.3989 60.5 44.5454Z" fill="white"/>
<path d="M60.8691 46.1328C60.7226 46.3203 60.7168 46.3906 60.834 46.3906C60.9394 46.3906 61.2148 46.1387 61.2148 46.0391C61.2148 45.9219 60.9863 45.9805 60.8691 46.1328Z" fill="white"/>
<path d="M24.2188 46.1918C24.166 46.3265 24.2832 46.5023 24.4473 46.5433C24.6172 46.5844 24.711 46.5375 24.711 46.3969C24.711 46.1625 24.2949 45.9867 24.2188 46.1918Z" fill="white"/>
<path d="M60.418 47.1645C60.2539 47.2407 60.0195 47.6567 60.1016 47.7094C60.2129 47.7797 60.8047 47.3286 60.8047 47.1704C60.8047 47.0825 60.5938 47.0766 60.418 47.1645Z" fill="white"/>
<path d="M57.4414 50.0176C57.3359 50.1289 57.3184 50.2578 57.4004 50.2578C57.4707 50.2578 57.6406 50.0879 57.6406 50.0234C57.6406 49.918 57.5352 49.9121 57.4414 50.0176Z" fill="white"/>
<path d="M56.961 51.0488C56.8496 51.3418 57.1895 51.6289 57.4414 51.459C57.6172 51.3477 57.6231 51.1719 57.4531 51.0547C57.2832 50.9375 57.002 50.9316 56.961 51.0488Z" fill="white"/>
<path d="M25.959 52.1683C25.9063 52.309 26.0176 52.4496 26.1875 52.473C26.3633 52.4965 26.4395 52.3558 26.3516 52.1859C26.2754 52.0511 26.0117 52.0394 25.959 52.1683Z" fill="white"/>
<path d="M53.416 53.0475C53.2754 53.2116 53.0586 53.6628 53.0996 53.7038C53.2109 53.821 53.5625 53.2995 53.5274 53.0651C53.5098 52.9421 53.5098 52.9421 53.416 53.0475Z" fill="white"/>
<path d="M54.0195 53.5689C53.9492 53.6217 53.8496 53.7447 53.7969 53.8443C53.7148 54.0025 53.7148 54.0318 53.7969 54.1138C53.873 54.1959 53.8965 54.19 54.0312 54.1021C54.3301 53.9088 54.459 53.5338 54.2422 53.4927C54.1953 53.4869 54.0957 53.522 54.0195 53.5689Z" fill="white"/>
<path d="M53.5977 55.0625C53.5274 55.1973 53.5625 55.2969 53.6856 55.2969C53.791 55.2969 53.9492 55.1328 53.9492 55.0273C53.9492 54.8984 53.668 54.9277 53.5977 55.0625Z" fill="white"/>
<path d="M29.1055 55.5605C28.9941 55.6953 29.0586 55.8535 29.2226 55.8535C29.334 55.8535 29.375 55.8184 29.3867 55.7129C29.416 55.5078 29.2344 55.4023 29.1055 55.5605Z" fill="white"/>
<path d="M29.709 56.235C29.5215 56.3463 29.4102 56.5807 29.4863 56.6979C29.5039 56.733 29.6094 56.7623 29.7149 56.7623C29.8203 56.7623 29.9434 56.7975 29.9961 56.8326C30.1895 56.9967 30.3945 57.3365 30.3945 57.5123C30.3945 57.6119 30.4414 57.735 30.4941 57.7877C30.6406 57.9401 31.1328 57.8697 31.3262 57.6705L31.4727 57.524L31.2734 57.319C31.1621 57.2018 30.9688 57.0553 30.8516 56.9967C30.7109 56.9205 30.5879 56.7858 30.5059 56.6276C30.2481 56.1178 30.0547 56.0182 29.709 56.235Z" fill="white"/>
<path d="M53.9492 56.3163C53.9082 56.369 53.8906 56.451 53.9141 56.4979C53.9785 56.6678 54.2656 56.5565 54.2305 56.3749C54.207 56.2343 54.0488 56.205 53.9492 56.3163Z" fill="white"/>
<path d="M51.2657 57.0083C51.1543 57.1197 51.1836 57.2251 51.336 57.2955C51.5235 57.3833 51.7344 57.272 51.711 57.0962C51.6993 57.0025 51.6465 56.9615 51.5176 56.9497C51.418 56.938 51.3067 56.9673 51.2657 57.0083Z" fill="white"/>
<path d="M31.8887 57.3769C31.5488 57.7108 31.8945 58.3436 32.4277 58.3612C32.7031 58.3671 32.9434 58.1151 32.8848 57.8808C32.8262 57.6522 32.6973 57.4706 32.4863 57.3476C32.2344 57.1894 32.0586 57.2011 31.8887 57.3769Z" fill="white"/>
<path d="M28.6602 57.4355C28.6074 57.5703 28.7481 57.6992 28.9414 57.6992C29.1289 57.6992 29.2168 57.5645 29.1055 57.4355C29.0117 57.3184 28.7012 57.3242 28.6602 57.4355Z" fill="white"/>
<path d="M52.9062 58.4439C52.8652 58.4615 52.7949 58.5494 52.748 58.6373C52.666 58.7896 52.6719 58.8131 52.7598 58.8599C52.8945 58.9361 53.0996 58.8365 53.1816 58.6549C53.2812 58.4381 53.1582 58.3385 52.9062 58.4439Z" fill="white"/>
<path d="M29.8906 59.1705C29.8731 59.2056 29.8848 59.2642 29.9141 59.2935C29.9903 59.3697 30.1778 59.2467 30.125 59.1588C30.084 59.0885 29.9434 59.0943 29.8906 59.1705Z" fill="white"/>
<path d="M28.8477 59.3342C28.8242 59.3635 28.836 59.4045 28.8653 59.4221C28.8945 59.4455 28.9356 59.4338 28.9531 59.4045C28.9766 59.3752 28.9649 59.3342 28.9356 59.3166C28.9063 59.2932 28.8653 59.3049 28.8477 59.3342Z" fill="white"/>
<path d="M51.7754 59.5508C51.6582 59.6914 51.7813 59.8379 52.0157 59.8379C52.2266 59.8379 52.3496 59.709 52.291 59.5508C52.2442 59.4277 51.8809 59.4219 51.7754 59.5508Z" fill="white"/>
<path d="M32.3575 60.3187C32.0762 60.389 31.9649 60.6234 32.0938 60.8695C32.2579 61.1742 32.9317 61.2621 33.1778 61.0101C33.3477 60.8461 33.3594 60.764 33.2305 60.5765C33.0664 60.3422 32.6973 60.2367 32.3575 60.3187Z" fill="white"/>
<path d="M34.9297 61.7126C34.8184 61.8005 34.8184 61.8005 34.9297 61.8884C35.0762 61.9997 35.2227 61.9997 35.3105 61.8943C35.3691 61.8298 35.3516 61.7947 35.2461 61.7185C35.082 61.6013 35.0762 61.6013 34.9297 61.7126Z" fill="white"/>
<path d="M35.8906 62.8325C35.668 62.8969 35.791 63.0317 36.1836 63.1489C36.4004 63.2133 36.6758 63.3364 36.793 63.4243C37.2031 63.7055 37.3262 63.4653 36.9688 63.0844C36.7578 62.8559 36.7227 62.8442 36.3711 62.8266C36.1602 62.8149 35.9434 62.8149 35.8906 62.8325Z" fill="white"/>
<path d="M42.5 62.8729C42.3301 62.996 42.4004 63.2245 42.6231 63.2889C42.9512 63.3768 43.25 63.078 43.0391 62.867C42.9454 62.7733 42.6289 62.7792 42.5 62.8729Z" fill="white"/>
<path d="M48.5996 63.1314C48.5059 63.2193 48.5703 63.272 48.7461 63.2544C48.9863 63.231 49.0391 63.0904 48.8106 63.0904C48.7109 63.0904 48.6172 63.108 48.5996 63.1314Z" fill="white"/>
<path d="M37.9707 63.2421C37.8887 63.453 38.4629 63.9042 38.7149 63.8222C38.961 63.746 38.8145 63.4237 38.4629 63.2597C38.1641 63.1249 38.0176 63.1191 37.9707 63.2421Z" fill="white"/>
<path d="M39.5938 63.207C39.5938 63.2363 39.623 63.2656 39.6523 63.2656C39.6875 63.2656 39.7109 63.2363 39.7109 63.207C39.7109 63.1719 39.6875 63.1484 39.6523 63.1484C39.623 63.1484 39.5938 63.1719 39.5938 63.207Z" fill="white"/>
</svg>
