<svg width="304" height="54" viewBox="0 0 304 54" fill="none" xmlns="http://www.w3.org/2000/svg">
<path d="M52.5158 0.980751C51.8465 1.52016 51.299 2.15765 51.299 2.45188C51.299 3.18744 53.6109 4.90375 54.6451 4.90375C55.1319 4.90375 55.5577 5.0999 55.5577 5.39413C55.5577 5.83546 62.9193 7.79697 65.0486 7.89504C65.657 7.94408 65.1095 8.14023 63.771 8.43446C62.3109 8.72868 56.957 8.77772 50.3864 8.53253C38.6445 8.18927 28.8494 8.2383 26.2941 8.6306C24.9557 8.82676 24.5906 9.21906 24.4081 10.6902C24.0431 13.093 24.3473 13.6815 26.2941 14.0247C27.1459 14.2209 28.1801 14.6622 28.606 15.0545C29.3361 15.8391 33.9599 16.3295 45.3976 16.9179C49.2305 17.1141 51.9074 17.4574 51.7857 17.7516C51.664 17.9968 47.7095 18.34 42.7815 18.4381C37.9144 18.5852 32.8648 18.8795 31.5263 19.1246C30.1878 19.3698 28.0585 19.615 26.8417 19.615C23.9214 19.615 23.4955 20.2525 25.5032 21.5275C26.4158 22.1159 26.9634 22.7044 26.7808 22.9005C26.5375 23.0476 20.8186 23.1457 14.0655 23.0967C7.2515 23.0967 1.35011 23.2438 0.98508 23.4399C-0.170863 24.0284 1.53263 25.6957 3.29696 25.7447C4.08787 25.7937 5.60885 26.186 6.58227 26.5784C7.79906 27.1178 10.7193 27.412 15.5865 27.5591C22.4004 27.7553 22.8263 27.8533 24.4081 29.0793C25.9899 30.3542 25.9899 30.4033 24.7123 30.4033C23.9823 30.4033 23.0088 30.7956 22.583 31.2369C22.0354 31.8254 20.8186 32.1686 18.8718 32.2177C17.2291 32.3157 15.3431 32.61 14.613 32.9532C13.3354 33.4926 13.4571 33.5907 16.3165 34.3263C18.02 34.7186 20.0277 35.4051 20.8795 35.7974C21.7312 36.1897 22.948 36.533 23.6172 36.631C24.2864 36.6801 27.5109 37.0724 30.7354 37.4647C34.0207 37.906 37.9144 38.2493 39.4354 38.2493C41.1997 38.2493 42.1123 38.4454 41.8689 38.7397C41.6864 39.0339 40.8347 39.0829 39.9829 38.9358C39.1312 38.7397 38.0969 38.8868 37.4885 39.2791C36.8193 39.7695 33.9599 40.0637 28.241 40.2108C23.2522 40.3579 20.0277 40.6521 20.0277 40.9464C20.2102 41.8781 23.0697 43.2021 25.4424 43.4473C31.3438 44.0848 32.0738 44.2319 31.2221 44.6242C30.7962 44.8203 25.7466 44.9184 20.0277 44.7713C13.883 44.6732 9.25919 44.7713 8.77248 45.0165C7.61654 45.703 8.46829 46.5857 10.3543 46.5857C11.206 46.5857 13.2746 46.9289 14.9781 47.3212C18.2634 48.0568 53.2458 49.1356 72.2885 49.1356H81.4143L73.8095 49.7731C69.6116 50.1164 63.2235 50.6558 59.5731 50.9991C55.8619 51.2933 51.2382 51.4894 49.2305 51.4404C47.1619 51.3914 40.4696 51.5875 34.2641 51.8817C28.0585 52.176 22.583 52.3721 22.0962 52.3721C21.6095 52.3721 18.4459 52.5192 15.0997 52.7154C6.82563 53.2057 9.19835 53.8432 19.6627 53.9413C33.534 54.0884 54.8885 53.9413 62.25 53.6961C68.2123 53.5 80.6234 53.2057 104.229 52.7154C112.686 52.5192 141.341 51.5385 145.6 51.2442C147.79 51.0971 152.414 50.8519 155.942 50.7048C163.973 50.4106 204.188 48.2529 214.348 47.5664C218.546 47.2722 230.592 46.6347 241.117 46.0953C251.642 45.5559 264.236 44.8694 269.042 44.5751C273.909 44.2809 280.358 44.1338 283.339 44.3299C288.389 44.5751 289.18 44.4771 292.769 43.2511C294.96 42.5156 296.785 41.6819 296.906 41.4367C297.028 41.1425 295.994 40.4069 294.655 39.7204C293.317 39.0339 292.222 38.3474 292.222 38.1512C292.222 38.0041 293.256 37.5628 294.534 37.2195C297.819 36.3859 297.88 36.3368 296.724 34.9147C295.75 33.7378 295.75 33.6398 296.845 33.0023C297.454 32.659 298.123 32.3648 298.427 32.3648C298.671 32.3648 298.914 31.8744 298.914 31.2369C298.914 30.4033 298.427 30.011 296.967 29.6677C294.716 29.1283 294.534 28.2456 296.602 28.0495C299.705 27.7553 300.739 27.412 301.408 26.3822C302.017 25.4995 301.895 25.2053 300.983 24.6659C299.887 23.9794 299.887 23.9303 301.226 23.1457C303.234 21.9198 302.443 20.89 298.001 18.8795C294.229 17.1631 294.169 17.1631 290.032 17.6535C287.72 17.8987 284.313 18.34 282.487 18.6343C278.472 19.2718 247.688 19.3698 245.071 18.7323C243.611 18.3891 244.889 18.1929 251.155 17.7026C255.536 17.4083 261.011 17.016 263.323 16.9179C265.696 16.7708 270.624 16.4766 274.274 16.2314C277.985 15.9862 284.13 15.8391 287.963 15.8882C292.83 15.9862 295.446 15.8391 296.48 15.3978C297.332 15.0545 299.157 14.5151 300.557 14.2209C304.025 13.5344 304.268 12.9459 301.53 12.0142C300.253 11.5729 298.184 10.3469 296.967 9.26809C295.446 7.94408 294.351 7.35563 293.621 7.50274C293.013 7.64985 287.72 7.89504 281.879 8.09119C276.039 8.28734 268.251 8.67964 264.54 9.0229C259.916 9.46424 244.281 9.66039 214.044 9.66039C175.228 9.70943 170.483 9.66039 172.308 9.0229C173.829 8.48349 178.027 8.2383 188.126 8.09119C195.67 7.94408 208.203 7.60081 215.869 7.35563C240.022 6.52199 255.353 6.12969 257.422 6.2768C258.578 6.37488 259.855 6.17873 260.342 5.83546C260.768 5.54124 261.62 5.39413 262.106 5.59027C263.141 5.8845 264.844 5.4922 264.844 4.90375C264.844 4.7076 263.749 4.41338 262.471 4.21722C261.133 4.07011 259.977 3.72685 259.855 3.43263C259.794 3.18744 257.908 2.79514 255.718 2.64803C253.528 2.45188 251.155 2.01054 250.425 1.61824C249.269 0.980751 248.904 1.02979 247.627 1.71631C246.471 2.30476 245.619 2.40284 243.794 2.05957C241.056 1.5692 210.211 1.86343 208.872 2.40284C207.534 2.94225 194.21 2.54995 192.324 1.91246C191.411 1.61824 190.255 1.47113 189.769 1.61824C189.282 1.76535 171.7 2.05957 150.649 2.20669C112.199 2.54995 99.8486 2.3538 68.9423 0.735561C61.3983 0.343262 54.8885 0 54.5235 0C54.0976 0 53.185 0.441338 52.5158 0.980751ZM227.915 41.0444C226.455 41.1425 224.143 41.1425 222.743 41.0444C221.283 40.9464 222.439 40.8483 225.299 40.8483C228.158 40.8483 229.314 40.9464 227.915 41.0444ZM149.676 46.3895C149.493 46.5366 148.946 46.5857 148.52 46.4386C148.033 46.2914 148.216 46.1443 148.885 46.1443C149.554 46.0953 149.919 46.2424 149.676 46.3895ZM136.535 46.9289C138.056 47.1741 138.299 47.3212 137.447 47.5664C135.987 47.9587 132.154 47.5664 132.58 47.027C132.945 46.4876 133.797 46.4876 136.535 46.9289ZM86.1598 48.8904C85.7339 48.9885 85.0038 48.9885 84.6388 48.8904C84.2129 48.7433 84.5171 48.6452 85.3689 48.6452C86.2206 48.6452 86.5248 48.7433 86.1598 48.8904ZM94.6773 48.8904C93.5822 48.9885 91.757 48.9885 90.7227 48.8904C89.6276 48.7924 90.4794 48.6943 92.6696 48.6943C94.8598 48.6943 95.7115 48.7924 94.6773 48.8904ZM106.054 48.7433C106.054 49.1847 103.012 49.3318 102.282 48.9885C101.795 48.6943 102.343 48.5472 103.803 48.5472C105.02 48.5472 106.054 48.6452 106.054 48.7433ZM114.146 48.8904C113.355 48.9885 112.138 48.9885 111.408 48.8904C110.617 48.7924 111.225 48.6943 112.746 48.6943C114.267 48.6943 114.876 48.7924 114.146 48.8904Z" fill="black"/>
</svg>
