<svg width="274" height="61" viewBox="0 0 274 61" fill="none" xmlns="http://www.w3.org/2000/svg">
<path d="M47.128 8.22632C46.5252 8.73012 46.032 9.32552 46.032 9.60032C46.032 10.2873 48.1144 11.8903 49.046 11.8903C49.4844 11.8903 49.868 12.0735 49.868 12.3483C49.868 12.7605 56.4988 14.5925 58.4168 14.6841C58.9648 14.7299 58.4716 14.9131 57.266 15.1879C55.9508 15.4627 51.1284 15.5085 45.21 15.2795C34.6336 14.9589 25.8108 15.0047 23.5092 15.3711C22.3036 15.5543 21.9748 15.9207 21.8104 17.2947C21.4816 19.5389 21.7556 20.0885 23.5092 20.4091C24.2764 20.5923 25.208 21.0045 25.5916 21.3709C26.2492 22.1037 30.414 22.5617 40.7164 23.1113C44.1688 23.2945 46.58 23.6151 46.4704 23.8899C46.3608 24.1189 42.7988 24.4395 38.36 24.5311C33.976 24.6685 29.4276 24.9433 28.222 25.1723C27.0164 25.4013 25.0984 25.6303 24.0024 25.6303C21.372 25.6303 20.9884 26.2257 22.7968 27.4165C23.6188 27.9661 24.112 28.5157 23.9476 28.6989C23.7284 28.8363 18.5773 28.9279 12.4945 28.8821C6.35686 28.8821 1.04126 29.0195 0.71246 29.2027C-0.328739 29.7523 1.20566 31.3095 2.79486 31.3553C3.50726 31.4011 4.87726 31.7675 5.75406 32.1339C6.85006 32.6377 9.48046 32.9125 13.8645 33.0499C20.0021 33.2331 20.3857 33.3247 21.8104 34.4697C23.2352 35.6605 23.2352 35.7063 22.0844 35.7063C21.4268 35.7063 20.5501 36.0727 20.1665 36.4849C19.6733 37.0345 18.5773 37.3551 16.8237 37.4009C15.3441 37.4925 13.6453 37.7673 12.9877 38.0879C11.8369 38.5917 11.9465 38.6833 14.5221 39.3703C16.0565 39.7367 17.8649 40.3779 18.6321 40.7443C19.3993 41.1107 20.4953 41.4313 21.098 41.5229C21.7008 41.5687 24.6052 41.9351 27.5096 42.3015C30.4688 42.7137 33.976 43.0343 35.346 43.0343C36.9352 43.0343 37.7572 43.2175 37.538 43.4923C37.3736 43.7671 36.6064 43.8129 35.8392 43.6755C35.072 43.4923 34.1404 43.6297 33.5924 43.9961C32.9896 44.4541 30.414 44.7289 25.2628 44.8663C20.7693 45.0037 17.8649 45.2785 17.8649 45.5533C18.0293 46.4235 20.6049 47.6601 22.742 47.8891C28.0576 48.4845 28.7152 48.6219 27.948 48.9883C27.5644 49.1715 23.016 49.2631 17.8649 49.1257C12.3301 49.0341 8.16526 49.1257 7.72686 49.3547C6.68566 49.9959 7.45286 50.8203 9.15166 50.8203C9.91886 50.8203 11.7821 51.1409 13.3165 51.5073C16.2757 52.1943 47.7856 53.2019 64.938 53.2019H73.158L66.308 53.7973C62.5268 54.1179 56.7728 54.6217 53.4848 54.9423C50.142 55.2171 45.9772 55.4003 44.1688 55.3545C42.3056 55.3087 36.2776 55.4919 30.688 55.7667C25.0984 56.0415 20.1665 56.2247 19.7281 56.2247C19.2896 56.2247 16.4401 56.3621 13.4261 56.5453C5.97326 57.0033 8.11046 57.5987 17.5361 57.6903C30.0304 57.8277 49.2652 57.6903 55.896 57.4613C61.2664 57.2781 72.4456 57.0033 93.708 56.5453C101.325 56.3621 127.136 55.4461 130.972 55.1713C132.945 55.0339 137.11 54.8049 140.288 54.6675C147.522 54.3927 183.744 52.3775 192.896 51.7363C196.677 51.4615 207.528 50.8661 217.008 50.3623C226.488 49.8585 237.832 49.2173 242.161 48.9425C246.545 48.6677 252.354 48.5303 255.039 48.7135C259.588 48.9425 260.3 48.8509 263.533 47.7059C265.506 47.0189 267.15 46.2403 267.26 46.0113C267.369 45.7365 266.438 45.0495 265.232 44.4083C264.026 43.7671 263.04 43.1259 263.04 42.9427C263.04 42.8053 263.972 42.3931 265.122 42.0725C268.082 41.2939 268.136 41.2481 267.095 39.9199C266.218 38.8207 266.218 38.7291 267.205 38.1337C267.753 37.8131 268.356 37.5383 268.63 37.5383C268.849 37.5383 269.068 37.0803 269.068 36.4849C269.068 35.7063 268.63 35.3399 267.314 35.0193C265.287 34.5155 265.122 33.6911 266.986 33.5079C269.78 33.2331 270.712 32.9125 271.315 31.9507C271.863 31.1263 271.753 30.8515 270.931 30.3477C269.945 29.7065 269.945 29.6607 271.15 28.9279C272.959 27.7829 272.246 26.8211 268.246 24.9433C264.848 23.3403 264.794 23.3403 261.067 23.7983C258.985 24.0273 255.916 24.4395 254.272 24.7143C250.655 25.3097 222.926 25.4013 220.57 24.8059C219.255 24.4853 220.406 24.3021 226.05 23.8441C229.996 23.5693 234.928 23.2029 237.01 23.1113C239.147 22.9739 243.586 22.6991 246.874 22.4701C250.217 22.2411 255.752 22.1037 259.204 22.1495C263.588 22.2411 265.944 22.1037 266.876 21.6915C267.643 21.3709 269.287 20.8671 270.548 20.5923C273.671 19.9511 273.89 19.4015 271.424 18.5313C270.274 18.1191 268.41 16.9741 267.314 15.9665C265.944 14.7299 264.958 14.1803 264.3 14.3177C263.752 14.4551 258.985 14.6841 253.724 14.8673C248.463 15.0505 241.449 15.4169 238.106 15.7375C233.941 16.1497 219.858 16.3329 192.622 16.3329C157.66 16.3787 153.385 16.3329 155.029 15.7375C156.399 15.2337 160.18 15.0047 169.277 14.8673C176.072 14.7299 187.361 14.4093 194.266 14.1803C216.022 13.4017 229.831 13.0353 231.694 13.1727C232.736 13.2643 233.886 13.0811 234.325 12.7605C234.708 12.4857 235.476 12.3483 235.914 12.5315C236.846 12.8063 238.38 12.4399 238.38 11.8903C238.38 11.7071 237.394 11.4323 236.243 11.2491C235.037 11.1117 233.996 10.7911 233.886 10.5163C233.832 10.2873 232.133 9.92092 230.16 9.78352C228.187 9.60032 226.05 9.18812 225.392 8.82172C224.351 8.22632 224.022 8.27212 222.872 8.91332C221.83 9.46292 221.063 9.55452 219.419 9.23392C216.953 8.77592 189.17 9.05072 187.964 9.55452C186.758 10.0583 174.757 9.69192 173.058 9.09652C172.236 8.82172 171.195 8.68432 170.757 8.82172C170.318 8.95912 154.481 9.23392 135.52 9.37132C100.887 9.69192 89.7624 9.50872 61.924 7.99732C55.1288 7.63092 49.2652 7.31032 48.9364 7.31032C48.5528 7.31032 47.7308 7.72252 47.128 8.22632ZM205.116 45.6449C203.801 45.7365 201.719 45.7365 200.458 45.6449C199.143 45.5533 200.184 45.4617 202.76 45.4617C205.336 45.4617 206.377 45.5533 205.116 45.6449ZM134.644 50.6371C134.479 50.7745 133.986 50.8203 133.602 50.6829C133.164 50.5455 133.328 50.4081 133.931 50.4081C134.534 50.3623 134.863 50.4997 134.644 50.6371ZM122.807 51.1409C124.177 51.3699 124.396 51.5073 123.629 51.7363C122.314 52.1027 118.861 51.7363 119.245 51.2325C119.574 50.7287 120.341 50.7287 122.807 51.1409ZM77.4324 52.9729C77.0488 53.0645 76.3912 53.0645 76.0624 52.9729C75.6788 52.8355 75.9528 52.7439 76.72 52.7439C77.4872 52.7439 77.7612 52.8355 77.4324 52.9729ZM85.1044 52.9729C84.118 53.0645 82.474 53.0645 81.5424 52.9729C80.556 52.8813 81.3232 52.7897 83.296 52.7897C85.2688 52.7897 86.036 52.8813 85.1044 52.9729ZM95.352 52.8355C95.352 53.2477 92.612 53.3851 91.9544 53.0645C91.516 52.7897 92.0092 52.6523 93.3244 52.6523C94.4204 52.6523 95.352 52.7439 95.352 52.8355ZM102.64 52.9729C101.928 53.0645 100.832 53.0645 100.174 52.9729C99.462 52.8813 100.01 52.7897 101.38 52.7897C102.75 52.7897 103.298 52.8813 102.64 52.9729Z" fill="black"/>
<path d="M243.21 0.499977C243.048 0.680504 240.888 0.861027 238.458 0.906158C231.654 1.08669 231.06 1.13182 231.06 1.44773C231.06 1.62826 229.278 1.62826 227.172 1.49287C222.528 1.17695 219.342 1.26721 209.46 1.94418C203.898 2.35036 201.414 2.35036 199.092 1.89905C195.96 1.35748 193.314 1.62826 192.612 2.53089C192.342 2.89194 189.75 3.07247 185.052 3.16273C181.11 3.20786 175.926 3.38839 173.55 3.56891C171.174 3.70431 167.718 3.8397 165.882 3.79457C164.046 3.74944 161.94 3.97509 161.292 4.24588C160.59 4.5618 157.566 4.87772 154.38 4.96798C147.09 5.19364 144.984 5.32904 144.282 5.69009C143.958 5.87061 141.312 5.82548 138.45 5.55469C134.292 5.19364 132.672 5.23877 130.458 5.73522C128.514 6.18653 121.872 6.54758 109.02 6.8635C98.76 7.13429 86.2859 7.49534 81.21 7.67587C76.188 7.85639 71.652 7.99179 71.22 7.90152C70.194 7.76613 70.086 7.76613 62.904 7.76613C59.07 7.76613 56.694 7.58561 56.154 7.22456C55.668 6.90863 52.86 6.63785 48.594 6.50245C44.004 6.41219 41.466 6.1414 40.71 5.73522C40.062 5.37417 39.414 5.23877 39.252 5.37417C39.036 5.50956 37.794 5.69009 36.39 5.82548C32.988 6.05114 29.64 7.35995 25.536 10.113C21.27 12.9562 21.054 13.9943 24.348 15.7995C25.968 16.7473 27.318 17.0632 29.316 17.1083C33.15 17.1986 33.42 17.2437 33.42 17.695C33.42 17.8756 32.07 19.2295 30.45 20.6737C27.966 22.7949 27.48 23.517 27.696 24.4647C27.858 25.0966 28.128 26.8116 28.29 28.2558C28.614 30.6477 28.56 30.8734 27.642 30.738C26.94 30.6477 26.724 30.2416 26.832 29.4743C26.994 28.5717 26.886 28.4814 26.4 28.8876C26.022 29.1584 25.59 30.9185 25.482 32.7238C25.212 35.4768 24.942 36.244 23.808 37.2821C22.728 38.2298 22.566 38.636 23.052 39.0422C23.97 39.8094 23.862 40.3059 22.674 40.3059C20.676 40.3059 20.838 41.8855 23.16 44.8641C24.348 46.3986 25.32 47.8879 25.32 48.1587C25.32 49.4224 28.884 52.1303 32.124 53.394C34.014 54.1612 35.796 54.7479 36.12 54.7479C36.39 54.7479 37.578 55.4249 38.658 56.1921C41.088 57.9522 45.894 59.9831 47.082 59.7575C47.298 59.7575 48 59.8929 48.54 60.1637C49.674 60.6601 54.858 61.0663 55.29 60.6601C55.452 60.5247 57.882 60.4796 60.69 60.5699C65.01 60.6601 65.82 60.5699 65.82 59.9831C65.82 59.6221 66.09 58.7646 66.468 58.1328C67.008 57.1399 67.386 57.0045 69.708 57.0045C71.382 57.0045 72.408 56.7788 72.624 56.4178C72.732 56.1018 73.704 55.8311 74.73 55.7859C76.35 55.7408 76.512 55.8762 76.458 56.9593C76.404 57.7266 76.62 58.1328 77.16 58.1779C77.592 58.1779 78.618 58.3584 79.428 58.5389C80.238 58.7195 81.318 58.6743 81.912 58.4035C82.722 58.0425 83.154 58.0876 83.64 58.5841C84.18 59.1257 84.126 59.3062 83.424 59.5318C82.938 59.6672 82.236 59.7124 81.912 59.6221C81.534 59.4867 80.508 59.6672 79.59 59.9831C78.078 60.5247 78.186 60.5699 81.966 60.615H85.962L85.638 58.8097C85.3139 56.824 86.124 56.3726 87.312 57.9071C87.852 58.6743 88.176 58.7195 89.04 58.3584C89.634 58.0876 90.12 57.5009 90.12 57.0496C90.12 56.2824 90.66 56.2372 98.112 56.3726C102.486 56.4178 106.05 56.5532 106.05 56.5532C106.05 56.5983 107.616 56.7337 109.506 56.824C111.612 56.9593 113.178 56.824 113.664 56.508C114.15 56.1921 115.23 56.1018 116.472 56.2372C117.66 56.4178 119.388 56.2824 120.738 55.8762C122.466 55.3797 123.384 55.3346 124.626 55.6957C125.814 56.0567 126.786 56.0567 127.92 55.6957C128.838 55.4249 130.296 55.3346 131.106 55.47C132.024 55.6505 133.32 55.4249 134.4 54.9736C135.534 54.4771 136.668 54.3417 137.586 54.5223C138.342 54.7028 140.502 54.8382 142.338 54.793C145.902 54.7479 147.036 55.2895 145.416 56.3275C144.444 56.9142 144.498 56.9593 146.118 57.0045C148.116 57.0045 148.872 56.3275 147.522 55.6957C146.01 55.0187 146.928 54.7479 149.088 55.1992C150.168 55.47 151.194 55.9665 151.356 56.3726C151.518 56.7337 151.896 56.9593 152.166 56.824C152.868 56.4629 154.38 57.0045 154.38 57.6363C154.38 57.9522 156.054 58.1779 159.132 58.3133C167.772 58.6292 168.312 58.5841 169.392 57.7717C169.932 57.3655 171.282 57.0045 172.362 57.0045C173.442 57.0045 174.414 56.824 174.63 56.5532C174.846 56.2824 175.44 56.2824 176.304 56.5532C177.816 57.0496 182.73 56.4629 201.36 53.5745C212.268 51.8595 215.4 51.1374 215.4 50.1896C215.4 49.7835 216.318 49.7383 218.586 49.9188C220.908 50.1445 222.042 50.0542 222.528 49.6481C222.906 49.287 224.688 48.9711 226.632 48.926C228.468 48.8808 231.168 48.5198 232.572 48.2039C233.976 47.8428 237.216 47.5269 239.808 47.5269C244.344 47.5269 248.34 46.6243 248.34 45.6314C248.34 45.4057 248.934 45.3606 249.69 45.5411C250.554 45.7216 251.04 45.6314 251.04 45.3154C251.04 44.9995 251.526 44.9093 252.282 45.0447C252.984 45.2252 254.658 44.9995 256.062 44.5933C257.466 44.1872 258.87 44.0066 259.14 44.142C260.004 44.5933 265.62 43.3297 265.62 42.6978C265.62 42.3819 266.214 42.1111 266.916 42.1111C267.618 42.1111 268.644 41.9757 269.184 41.7952C269.832 41.6147 269.994 41.6598 269.724 42.0209C269.508 42.3368 269.562 42.5624 269.886 42.5624C270.156 42.5624 270.48 42.2916 270.642 41.9757C270.804 41.5244 271.128 41.5244 272.046 41.9757C273.774 42.8784 274.962 42.743 274.638 41.6598C274.422 40.9377 274.638 40.7572 275.556 40.7572C276.258 40.7572 277.23 40.351 277.77 39.8545C278.58 39.0873 278.634 38.8165 278.04 37.598C277.5 36.4697 277.5 35.9732 278.04 35.1158C279.39 33.0397 278.472 32.5433 273.828 32.6335C271.56 32.7238 268.968 32.7238 268.05 32.6787C266.43 32.5884 266.43 32.5884 268.752 31.6406C271.614 30.5124 271.668 29.9256 268.86 29.9256C267.672 29.9256 266.7 29.7451 266.7 29.4743C266.7 28.8876 269.94 28.2558 274.692 27.8947C276.798 27.7142 278.742 27.3983 278.904 27.1726C279.066 26.947 279.714 26.7664 280.308 26.7664C280.956 26.7664 281.334 26.6311 281.118 26.4957C280.956 26.3151 278.904 26.1346 276.582 26.0443C272.046 25.8187 271.884 25.8187 268.482 25.909C267.186 25.909 265.674 25.6382 264.972 25.232C264.324 24.8258 263.352 24.5099 262.812 24.5099C262.272 24.5099 261.84 24.2842 261.84 24.0586C261.84 23.7878 262.326 23.6073 262.92 23.6073C263.514 23.6073 264 23.3365 264 23.0205C264 21.8923 263.352 21.8471 262.326 22.84C261.354 23.7878 261.246 23.7878 260.544 23.0205C259.842 22.2533 259.734 22.2984 259.248 23.4719L258.708 24.7355L258.654 23.517C258.6 22.84 258.222 22.1179 257.736 21.8923C256.98 21.5312 257.034 21.4409 258.222 21.1702C258.978 21.0348 259.95 21.0348 260.382 21.1702C260.814 21.3055 261.516 21.125 261.894 20.764C262.434 20.2675 262.866 20.2224 263.568 20.5834C264.216 20.9445 264.702 20.8994 265.296 20.4932C266.754 19.5003 266.268 19.0941 263.73 19.0941C262.218 19.0941 261.3 19.2746 261.3 19.6357C261.3 20.0419 261.138 20.0419 260.706 19.6808C259.734 18.8685 260.544 17.7402 262.056 17.7402C263.73 17.7402 264.216 17.1083 263.19 16.3862C262.596 15.98 261.948 15.9349 261.138 16.2057C260.49 16.4314 259.14 16.5668 258.222 16.4765C256.818 16.3411 256.44 16.1154 256.44 15.3482C256.44 14.6261 256.602 14.5358 257.088 14.942C257.844 15.5739 262.812 15.6641 264 15.0323C264.972 14.5358 264.918 14.4907 261.192 13.227C258.654 12.3695 257.844 12.2793 256.764 12.6855C255.9 13.0014 254.874 13.0465 253.74 12.7757C251.904 12.3244 233.004 12.5501 231.492 13.0014C231.006 13.1819 230.142 13.0916 229.602 12.8208C228.576 12.3244 228.792 12.2793 232.95 12.0987C237.162 11.9182 237.864 11.828 238.62 11.4218C239.268 11.0607 239.268 10.9253 238.458 10.1581C237.972 9.70678 237.54 8.75902 237.54 8.12718C237.54 6.81837 237.162 6.72811 233.274 6.90863C231.978 6.95377 231.546 6.81837 231.708 6.36706C231.87 5.96088 233.436 5.69009 236.46 5.50956C240.348 5.23877 241.104 5.05825 241.914 4.15562C242.454 3.56891 242.94 3.34325 242.94 3.61404C242.94 4.42641 244.02 4.33615 244.02 3.56891C244.02 3.16273 244.452 3.02734 245.37 3.20786C246.126 3.29812 247.314 3.07247 248.07 2.66628C248.772 2.2601 249.852 1.94418 250.446 1.94418C251.04 1.94418 251.688 1.71852 251.85 1.49287C252.066 1.22208 251.526 1.04155 250.554 1.04155C249.69 1.04155 248.826 0.861027 248.664 0.680504C248.34 0.229191 243.696 0.0937958 243.21 0.499977ZM213.564 5.4193C214.806 6.50245 218.154 6.59272 218.478 5.55469C218.64 5.01311 219.126 4.83259 220.044 5.01311C221.772 5.28391 222.096 5.78035 221.34 6.95377C220.854 7.721 220.368 7.85639 219.126 7.63074C218.208 7.49534 217.074 7.58561 216.534 7.90152C215.94 8.21745 215.13 8.26258 214.536 8.03692C213.942 7.81126 213.294 7.721 212.97 7.81126C211.134 8.21745 200.982 8.53336 200.55 8.17231C199.956 7.67587 204.654 6.00601 207.786 5.59982C209.676 5.32904 211.35 5.01311 211.512 4.87772C211.998 4.47154 212.592 4.60693 213.564 5.4193ZM227.388 5.73522C228.036 6.54758 227.874 6.9989 226.956 6.81837C226.47 6.72811 225.66 6.18653 225.228 5.59982C224.364 4.5618 224.364 4.51667 225.66 4.87772C226.416 5.05825 227.172 5.46443 227.388 5.73522ZM137.1 11.4218C135.156 11.9182 134.4 11.9182 134.4 11.4218C134.4 11.151 135.318 10.9705 136.452 11.0156C138.234 11.0607 138.288 11.1059 137.1 11.4218Z" fill="black"/>
<path d="M260.814 0.545263C260.058 0.725789 259.41 1.08684 259.248 1.40276C259.086 1.80894 260.004 1.94434 262.326 1.94434C264.756 1.94434 265.62 1.76381 265.62 1.3125C265.62 0.229343 263.568 -0.0865762 260.814 0.545263Z" fill="black"/>
<path d="M254.01 1.49302C253.794 1.76381 254.442 1.94434 255.576 1.94434C256.656 1.94434 257.52 1.71868 257.52 1.49302C257.52 1.22223 256.818 1.04171 255.954 1.04171C255.036 1.04171 254.172 1.22223 254.01 1.49302Z" fill="black"/>
<path d="M260.49 2.84654C260.274 3.11733 260.76 3.29785 261.57 3.29785C262.38 3.29785 262.866 3.11733 262.65 2.84654C262.488 2.57575 262.002 2.39522 261.57 2.39522C261.138 2.39522 260.652 2.57575 260.49 2.84654Z" fill="black"/>
<path d="M248.88 5.87078C246.558 6.45749 246.504 6.45749 247.152 6.99907C247.53 7.31499 247.8 7.94683 247.746 8.44327C247.746 8.98485 247.584 9.12025 247.422 8.80433C246.936 7.7663 244.02 8.48841 244.02 9.70695C244.02 10.2034 250.608 10.1583 251.58 9.61669C252.228 9.30077 252.174 9.16538 251.31 8.89459C249.204 8.26275 248.772 7.7663 249.798 7.08933C250.878 6.45749 250.23 5.55487 248.88 5.87078Z" fill="black"/>
<path d="M239.16 7.13455C239.538 7.4956 240.186 7.81152 240.564 7.81152C240.996 7.81152 241.32 7.4956 241.32 7.13455C241.32 6.68324 240.78 6.45758 239.916 6.45758C238.728 6.45758 238.566 6.54784 239.16 7.13455Z" fill="black"/>
<path d="M239.7 10.0229C240.024 10.5645 240.51 10.9707 240.78 10.9707C241.752 10.9707 241.374 10.1132 240.186 9.61676C239.16 9.12032 239.106 9.16545 239.7 10.0229Z" fill="black"/>
<path d="M270.264 15.6189C269.508 16.0702 269.4 16.341 269.886 16.6118C270.696 17.018 271.776 16.2507 271.506 15.5286C271.344 15.1676 270.966 15.2127 270.264 15.6189Z" fill="black"/>
<path d="M266.43 15.9805C265.89 16.6575 266.322 16.838 267.672 16.5221C268.32 16.3867 268.698 16.1159 268.536 15.8902C268.158 15.3487 266.862 15.3938 266.43 15.9805Z" fill="black"/>
<path d="M269.4 19.9066C267.726 21.1251 267.132 21.8472 267.402 22.3888C267.834 23.3817 268.32 23.3365 270.534 22.118C272.37 21.08 273.18 19.365 272.262 18.5977C271.938 18.327 270.804 18.8234 269.4 19.9066Z" fill="black"/>
<path d="M139.962 55.9669C138.882 56.3279 139.152 57.0049 140.34 57.0049C140.934 57.0049 141.42 56.689 141.42 56.3279C141.42 55.6509 141.096 55.5607 139.962 55.9669Z" fill="black"/>
<path d="M129.81 57.0047C129.972 57.2304 130.242 57.4561 130.404 57.4561C130.512 57.4561 130.62 57.2304 130.62 57.0047C130.62 56.734 130.35 56.5534 130.026 56.5534C129.756 56.5534 129.648 56.734 129.81 57.0047Z" fill="black"/>
<path d="M99.3539 57.7264C99.3539 58.2228 99.5159 58.3582 99.6779 57.9972C99.8399 57.6813 99.7859 57.2751 99.6239 57.1397C99.4619 56.9592 99.2999 57.23 99.3539 57.7264Z" fill="black"/>
<path d="M105.51 58.8097C103.188 59.1256 103.458 59.3512 107.13 60.1185C108.858 60.5247 109.452 60.4795 110.046 59.938C110.478 59.5769 110.748 59.2159 110.586 59.1256C110.046 58.6743 107.508 58.5389 105.51 58.8097Z" fill="black"/>
<path d="M114.96 58.5392C114.96 58.6295 115.338 58.9454 115.77 59.2613C116.418 59.7126 116.58 59.7126 116.58 59.0808C116.58 58.6746 116.202 58.3587 115.77 58.3587C115.338 58.3587 114.96 58.449 114.96 58.5392Z" fill="black"/>
<path d="M98.76 59.442C98.76 60.4801 100.218 60.6154 101.244 59.6677C102.162 58.8553 102.108 58.8102 100.488 58.8102C99.354 58.8102 98.76 59.0358 98.76 59.442Z" fill="black"/>
<path d="M70.356 59.7576C70.086 60.1638 74.622 60.4346 76.188 60.1187C76.944 59.9382 76.134 59.8028 74.028 59.6674C72.138 59.5771 70.464 59.6223 70.356 59.7576Z" fill="black"/>
<path d="M88.2299 59.712C87.4199 59.9828 87.7439 60.1182 89.5799 60.1182C91.4159 60.1182 91.7399 59.9828 90.9299 59.712C90.3359 59.4863 89.7419 59.3058 89.5799 59.3058C89.4179 59.3058 88.8239 59.4863 88.2299 59.712Z" fill="black"/>
</svg>
