<svg width="345" height="459" viewBox="0 0 345 459" fill="none" xmlns="http://www.w3.org/2000/svg">
<rect x="8.94434" y="9.66309" width="328.389" height="438.466" fill="black"/>
<path d="M293.484 1.13693C286.792 1.96332 281.076 2.9733 280.867 3.5242C280.519 4.07513 277.173 4.16693 271.108 3.61603C260.024 2.69785 213.32 2.51422 213.738 3.4324C214.226 4.44238 211.229 4.62604 205.373 3.98331C202.306 3.70786 197.287 3.79968 194.22 4.25876C183.276 6.0033 177.839 6.27875 176.863 5.17694C176.096 4.44238 175.05 4.53421 172.611 5.45239C169.474 6.73785 167.034 6.5542 165.5 4.99332C165.082 4.53421 162.154 4.62604 159.018 5.08511C155.881 5.54422 147.725 5.72784 140.963 5.54422C134.201 5.26877 119.075 4.90149 107.364 4.62604C95.6529 4.35059 82.5478 3.70786 78.2259 3.15695C73.904 2.60602 69.7215 2.51422 68.9547 2.78967C68.1879 3.15695 66.0269 2.8815 64.1448 2.33057C60.4503 1.13693 56.2678 2.23877 55.2919 4.62604C54.6645 6.0033 45.1145 6.73785 43.093 5.54422C41.3503 4.62604 5.79917 6.27875 4.96268 7.38058C4.61414 7.83966 4.05647 16.0115 3.70793 25.5606C3.21998 39.976 3.28968 42.7306 4.12618 42.7306C4.89297 42.7306 4.96268 43.9242 4.54443 48.8824C4.19589 52.3715 3.91706 58.4315 3.84735 62.4715C3.70793 69.6333 1.75611 80.376 0.57107 80.376C-0.404843 80.376 -0.0563029 85.0588 1.05903 86.4361C2.45319 88.2724 2.38348 91.027 0.989318 91.7615C0.0134051 92.3124 -0.126011 93.4142 0.222529 99.4742C0.501362 103.331 0.849902 109.85 1.05903 113.89C1.33786 117.93 1.82581 122.062 2.24406 123.163C2.66231 124.449 2.66231 127.938 2.17436 133.906C1.61669 140.333 1.61669 146.485 2.24406 156.769C2.66231 164.482 2.94114 172.286 2.80173 174.031C2.5926 177.336 2.5229 183.304 2.5229 197.444C2.5229 201.943 2.5229 212.962 2.5229 221.776C2.5229 230.591 2.5926 239.038 2.66231 240.599C2.73202 242.068 2.5926 246.751 2.38348 250.974C2.17436 255.106 2.31377 261.35 2.73202 264.747C3.21998 269.062 3.21998 273.562 2.73202 279.162C2.38348 283.753 2.03494 294.037 2.03494 302.117C2.03494 310.197 1.6864 324.337 1.26815 333.611C0.501362 351.056 0.501361 350.689 3.4291 365.931C3.98676 368.593 4.05647 368.685 4.12618 366.849L4.19589 364.553L5.24151 367.216C5.93859 368.961 6.14772 370.981 5.79917 373.552C5.45063 376.49 5.24151 376.949 4.82326 375.572C4.47472 374.102 4.2656 374.011 3.98676 375.112C3.35939 377.132 2.10465 419.461 2.10465 436.814V451.964L6.35684 452.607C13.2579 453.525 29.7787 453.25 28.5937 452.24C27.8269 451.597 28.8028 451.413 31.7306 451.413C35.0766 451.505 35.5645 451.689 34.1704 452.332C32.8459 452.974 33.055 452.974 35.216 452.607C36.7496 452.332 39.3985 451.964 41.1412 451.689L44.278 451.322L42.1868 452.699L40.0955 454.168L42.1868 453.617C51.1094 451.23 52.5036 451.046 54.6645 452.056C57.3134 453.342 68.7456 453.525 66.5846 452.24C64.8419 451.23 62.6112 451.322 96.4894 451.046C117.193 450.863 123.676 450.587 123.954 449.669C124.303 448.292 128.067 448.2 128.416 449.669C128.834 451.322 146.191 452.699 151.907 451.597C154.417 451.046 156.857 450.954 157.205 451.322C158.251 452.332 199.518 453.25 199.03 452.332C198.333 450.771 200.354 450.679 204.188 451.964C207.255 453.066 208.58 453.066 210.95 452.24C213.111 451.413 224.473 451.322 255.563 451.781C278.567 452.056 298.922 452.423 300.943 452.423C302.895 452.515 304.986 452.056 305.474 451.505C306.171 450.771 307.775 450.771 310.842 451.322C315.164 452.148 333.218 451.413 331.127 450.587C330.569 450.312 329.942 449.853 329.733 449.485C329.523 449.118 327.641 447.649 325.55 446.18C321.298 443.333 317.255 442.691 304.498 442.599C300.455 442.599 297.179 442.415 297.318 442.14C297.458 441.864 293.903 441.864 289.441 441.956C284.91 442.14 274.454 441.864 266.019 441.222C255.215 440.487 250.544 440.487 250.056 441.13C249.499 441.864 249.638 442.14 250.614 442.14C251.311 442.14 251.729 442.415 251.52 442.691C251.241 442.966 249.638 442.507 247.826 441.681C245.386 440.671 244.27 440.487 243.643 441.222C242.946 441.956 239.53 442.048 232.002 441.405C226.146 441.038 219.036 440.763 216.248 440.946C213.39 441.13 210.741 440.946 210.323 440.487C209.556 439.661 180.906 440.303 141.869 441.956C130.019 442.507 126.046 442.415 124.303 441.497C121.863 440.212 118.378 440.579 112.731 442.691C110.919 443.333 108.967 443.701 108.479 443.425C107.921 443.15 105.83 443.333 103.809 443.793C101.02 444.527 99.9051 444.435 99.2777 443.517C98.7897 442.874 98.5806 442.048 98.8594 441.681C99.1383 441.313 94.677 441.222 88.8912 441.405C83.1751 441.681 77.5985 441.589 76.5529 441.13C75.5072 440.763 74.4616 440.763 74.2525 441.13C73.904 441.956 77.5288 442.966 81.2233 443.15C83.2448 443.242 83.3145 443.242 81.5718 443.976C78.5047 445.262 72.9977 444.894 67.6302 443.058C63.3083 441.497 59.6835 441.13 47.0663 440.946C38.6317 440.763 33.6127 440.946 35.9131 441.222C38.2134 441.589 39.8167 441.956 39.3985 442.048C39.0499 442.232 39.4682 442.599 40.4441 442.966C41.7685 443.517 40.7926 443.884 36.6101 444.435C32.7065 444.894 31.0335 444.803 30.8244 444.068C30.685 443.517 29.5696 443.058 28.3846 443.058C26.2933 442.966 26.2236 442.966 27.5481 441.681C28.7331 440.395 28.2452 440.303 22.6685 440.395C19.1831 440.487 15.4886 440.028 14.3036 439.477C12.5609 438.559 12.1426 438.559 11.4455 439.844C10.1211 442.232 9.84224 439.477 10.9576 434.794C12.0729 430.112 12.8397 405.137 11.7941 407.341C11.3758 408.259 11.1667 407.708 11.1667 405.413C11.1667 403.668 10.8879 400.638 10.5393 398.71C10.1908 396.782 10.1908 395.129 10.5393 394.762C11.3758 394.119 11.3061 386.406 10.4696 385.672C10.0514 385.396 9.77253 383.56 9.77253 381.723C9.77253 379.061 9.98166 378.602 10.5393 379.703C11.097 380.805 11.2364 380.438 11.0273 378.142C10.8182 376.49 10.9576 375.388 11.2364 375.663C12.1426 376.398 11.5849 359.136 10.6787 357.851C9.70283 356.473 9.63312 350.597 10.4696 346.19C10.9576 343.802 11.0273 344.17 11.097 348.21C11.097 350.872 11.5152 353.076 11.8638 353.076C12.8397 353.076 12.7003 345.547 11.5152 337.008C10.5393 329.571 10.8182 318.736 11.9335 321.123C12.6306 322.592 12.8397 315.431 12.5609 293.853C12.0729 255.198 12.2123 245.19 13.1185 242.068C13.6065 240.415 13.8156 238.762 13.5368 238.395C13.2579 238.12 12.9094 238.395 12.77 239.038C12.5609 239.589 12.1426 239.956 11.7941 239.589C10.8182 238.854 11.0273 228.387 12.0032 228.02C12.6306 227.744 12.6306 225.816 12.0032 219.848C11.5152 215.624 11.2364 210.482 11.2364 208.462C11.3061 204.973 11.3758 204.882 11.7941 207.544C12.7003 212.227 13.4671 201.117 12.9791 192.211C12.7003 187.987 12.4911 182.937 12.5609 180.917C12.5609 178.897 12.0729 174.306 11.3758 170.633C10.5393 165.675 10.3999 163.104 10.8879 160.074C11.4455 156.493 11.1667 142.996 10.1908 124.908C9.98166 120.868 10.0514 119.123 10.4696 120.317C10.8182 121.327 11.097 123.347 11.1667 124.908C11.1667 127.112 11.3061 127.387 11.8638 126.102C12.3517 125.183 12.3517 121.602 11.8638 116.002C11.0273 105.442 11.0273 105.351 11.8638 107.003C12.2123 107.738 12.5609 109.391 12.5609 110.676C12.7003 114.808 13.7459 109.942 14.0944 103.331L14.5127 97.3624L13.4671 101.219C12.9094 103.422 12.2123 105.167 11.8638 105.167C11.5849 105.167 11.3758 102.137 11.5152 98.4642C11.5849 94.8833 11.7244 89.6497 11.7941 86.987C11.8638 83.5897 12.0729 82.3042 12.6306 82.7633C13.2579 83.2224 13.3276 82.6715 12.9791 80.7433C11.7941 74.1324 11.7244 68.7151 12.8397 65.8688C14.3036 62.196 14.3036 60.4515 12.9094 62.0124C12.0032 63.0224 11.8638 62.1042 11.7941 55.0342C11.6547 34.6506 11.097 23.5406 10.1211 20.9697C9.56341 19.5924 9.07545 17.4806 9.07545 16.4706C9.07545 14.6342 9.42399 14.4506 14.2339 14.5424C17.0919 14.6342 19.2528 15.0015 19.1134 15.3688C18.6255 16.3788 19.462 16.287 27.4087 14.6342C31.2426 13.8079 35.5645 13.3488 37.0284 13.5324C38.7014 13.716 39.8167 13.4406 40.0258 12.706C40.235 12.1551 41.7685 11.3288 43.5112 11.0533C46.7875 10.4106 47.6937 9.21695 45.5328 8.48239C44.8357 8.20694 45.5328 8.02332 47.0663 7.93149C48.5999 7.83966 50.6215 7.56421 51.5277 7.19693C52.7127 6.82968 53.0612 6.92148 52.7127 7.65604C52.4339 8.29877 52.643 8.75784 53.2704 8.75784C53.8977 8.75784 54.3857 9.12512 54.3857 9.58423C54.3857 10.7779 52.155 11.3288 50.5518 10.5942C49.1576 9.85968 45.3236 11.7878 45.3236 13.1651C45.3236 13.6242 46.5784 13.8079 48.0423 13.6242C49.5758 13.5324 51.0397 13.8079 51.2488 14.2669C51.5277 14.8178 51.8762 15.0015 52.155 14.8178C52.4339 14.6342 55.1525 14.8178 58.2196 15.1851C62.9598 15.8279 65.1904 15.5524 73.5554 13.3488C78.9229 11.8797 85.2664 10.5024 87.5667 10.2269C91.7492 9.58423 91.8189 9.67603 91.5401 11.696C91.2613 13.716 90.843 13.8079 84.4996 14.0833C78.3653 14.2669 76.6923 14.6342 77.4591 15.5524C77.5985 15.736 79.9686 15.4606 82.7569 15.0933C85.824 14.5424 88.9609 14.5424 90.7733 15.0933C92.9342 15.736 93.8405 15.736 94.2587 14.9097C94.8164 13.716 105.691 13.0733 116.774 13.5324C128.346 13.9915 145.355 13.8079 149.049 13.1651C152.326 12.6142 152.674 12.706 151.977 13.8079C151.001 15.3688 150.862 15.3688 162.224 9.85968C167.034 7.47238 167.94 7.19693 168.289 8.39056C169.055 10.9615 168.707 13.6242 167.522 14.8178C166.407 15.9197 166.685 16.0115 169.474 16.1033C173.029 16.1033 173.935 15.4606 172.82 13.6242C171.844 12.1551 172.123 12.1551 178.118 13.8079C180.766 14.5424 183.136 14.8178 183.346 14.3588C183.834 13.3488 186.552 11.5124 187.458 11.5124C187.877 11.5124 188.225 12.3388 188.225 13.257C188.225 14.9097 188.365 14.9097 191.78 13.6242C195.057 12.3388 195.335 12.3388 196.172 13.8997C197.008 15.2769 197.915 15.3688 203.979 14.9097C207.813 14.6342 212.623 13.5324 214.714 12.6142C216.805 11.696 220.012 10.5942 221.755 10.3188C224.682 9.76785 224.892 9.85968 224.892 11.7878C224.822 14.9097 227.262 14.726 232.978 11.2369C235.766 9.4924 239.461 7.56421 241.203 6.92148C243.992 5.9115 255.493 4.99332 254.866 5.72784C254.448 6.27875 238.903 13.0733 236.463 13.8079C233.466 14.6342 234.302 16.1033 237.927 16.1951C240.297 16.1951 240.576 16.3788 239.461 17.1133C237.648 18.2151 250.056 17.4806 254.448 16.1951C256.957 15.4606 256.191 15.3688 250.614 15.736C244.898 16.1033 243.922 16.0115 245.037 15.0933C247.268 13.257 253.751 11.5124 258.491 11.5124C262.813 11.5124 263.858 12.4306 261.628 14.2669C260.652 15.0933 261.419 15.1851 264.765 14.726C268.18 14.2669 269.087 14.4506 268.668 15.2769C268.32 16.0115 268.668 16.1951 269.853 15.8279C275.709 13.8997 282.889 14.3588 287.838 16.8379C288.535 17.2051 288.396 16.4706 287.35 14.8178C285.886 12.2469 285.259 6.5542 286.374 5.72784C286.862 5.26877 298.294 7.38058 300.664 8.39056C302.337 9.12512 302.128 10.5024 300.107 11.696C297.109 13.4406 298.155 13.9915 303.801 13.5324C306.729 13.3488 311.469 13.1651 314.257 13.257C316.976 13.257 319.276 12.9815 319.276 12.5224C319.276 10.686 328.966 7.38058 330.081 8.84967C330.43 9.30875 332.381 9.67603 334.403 9.67603H338.098L337.679 21.3369C337.47 27.856 336.982 34.5588 336.634 36.3033C336.146 38.7824 336.285 39.6088 337.052 40.2515C339.143 41.7206 342.071 62.9306 340.816 67.2461C339.98 70.0006 340.119 77.8051 341.234 83.5897C342.35 89.5579 342.629 101.219 341.722 103.147C341.374 103.79 340.607 104.065 339.84 103.698C338.795 103.147 338.655 102.229 338.934 96.536C339.073 92.9551 339.073 88.5479 338.795 86.8033C338.585 85.0588 338.237 93.8733 338.028 106.544C337.819 119.123 337.888 130.509 338.167 131.794C338.655 133.906 338.655 133.814 338.795 130.876C338.934 128.764 339.073 128.305 339.283 129.499C339.492 130.509 339.98 131.794 340.328 132.437C341.374 134.09 341.931 154.382 340.956 155.116C340.537 155.483 340.258 157.871 340.258 160.533C340.328 163.196 340.468 164.573 340.677 163.655C341.374 160.166 342.141 162.462 342.907 170.542C343.395 175.224 343.953 179.264 344.162 179.54C344.371 179.815 344.371 175.041 344.162 168.981C343.953 162.921 344.023 155.116 344.371 151.627C344.999 145.108 344.58 138.13 343.674 140.058C343.047 141.435 342.28 127.754 342.559 120.592C342.629 117.746 343.186 114.716 343.674 113.89C344.789 112.053 344.929 100.484 344.232 60.1761C344.023 45.3015 344.023 34.0997 344.371 35.3851L344.929 37.6806L344.999 35.3851C344.999 34.0997 344.72 29.9679 344.302 26.2033C343.883 21.3369 343.883 16.746 344.441 10.7779C344.859 6.09512 345.138 2.05511 344.929 1.87149C344.58 1.41238 327.781 0.310577 315.094 0.0351257C309.935 -0.148529 300.176 0.402405 293.484 1.13693ZM45.1145 442.691C44.9054 442.966 44.278 443.058 43.7901 442.783C43.2324 442.507 43.4415 442.232 44.2083 442.232C44.9751 442.14 45.3934 442.415 45.1145 442.691Z" fill="black"/>
<path d="M51.5156 457.85C58.2076 457.015 63.9237 455.995 64.1328 455.438C64.4814 454.881 67.8273 454.788 73.8919 455.345C84.9755 456.273 131.68 456.459 131.262 455.531C130.774 454.51 133.771 454.324 139.627 454.974C142.694 455.252 147.713 455.159 150.78 454.695C161.724 452.932 167.161 452.654 168.137 453.768C168.904 454.51 169.95 454.417 172.389 453.489C175.526 452.19 177.966 452.376 179.5 453.953C179.918 454.417 182.846 454.324 185.982 453.86C189.119 453.396 197.275 453.211 204.037 453.396C210.799 453.675 225.925 454.046 237.636 454.324C249.347 454.603 262.452 455.252 266.774 455.809C271.096 456.366 275.279 456.459 276.045 456.18C276.812 455.809 278.973 456.087 280.855 456.644C284.55 457.85 288.732 456.737 289.708 454.324C290.335 452.932 299.885 452.19 301.907 453.396C303.65 454.324 339.201 452.654 340.037 451.54C340.386 451.076 340.944 442.818 341.292 433.167C341.78 418.598 341.71 415.814 340.874 415.814C340.107 415.814 340.037 414.608 340.456 409.597C340.804 406.071 341.083 399.946 341.153 395.863C341.292 388.625 343.244 377.768 344.429 377.768C345.405 377.768 345.056 373.036 343.941 371.644C342.547 369.788 342.617 367.004 344.011 366.262C344.987 365.705 345.126 364.592 344.777 358.467C344.499 354.57 344.15 347.981 343.941 343.898C343.662 339.815 343.174 335.639 342.756 334.526C342.338 333.227 342.338 329.701 342.826 323.669C343.383 317.173 343.383 310.956 342.756 300.563C342.338 292.768 342.059 284.881 342.198 283.118C342.407 279.777 342.477 273.745 342.477 259.455C342.477 254.908 342.477 243.772 342.477 234.864C342.477 225.956 342.407 217.419 342.338 215.841C342.268 214.356 342.407 209.624 342.617 205.355C342.826 201.18 342.686 194.869 342.268 191.436C341.78 187.075 341.78 182.528 342.268 176.867C342.617 172.228 342.965 161.834 342.965 153.669C342.965 145.503 343.314 131.212 343.732 121.84C344.499 104.209 344.499 104.58 341.571 89.176C341.013 86.4849 340.944 86.3921 340.874 88.248L340.804 90.5679L339.758 87.8769C339.061 86.1138 338.852 84.0723 339.201 81.474C339.549 78.5046 339.758 78.0406 340.177 79.4325C340.525 80.9172 340.734 81.01 341.013 79.8965C341.641 77.855 342.895 35.0765 342.895 17.5383V2.22708L338.643 1.57751C331.742 0.649565 315.221 0.92795 316.406 1.94869C317.173 2.59826 316.197 2.78385 313.269 2.78385C309.923 2.69105 309.435 2.50546 310.83 1.8559C312.154 1.20633 311.945 1.20633 309.784 1.57751C308.25 1.8559 305.602 2.22708 303.859 2.50546L300.722 2.87664L302.813 1.48472L304.904 0L302.813 0.55677C293.891 2.96944 292.496 3.15503 290.335 2.13428C287.687 0.835155 276.254 0.649565 278.415 1.94869C280.158 2.96944 282.389 2.87664 248.511 3.15503C227.807 3.34062 221.324 3.619 221.046 4.54695C220.697 5.93888 216.933 6.03167 216.584 4.54695C216.166 2.87664 198.809 1.48472 193.093 2.59826C190.583 3.15503 188.143 3.24782 187.795 2.87664C186.749 1.8559 145.482 0.92795 145.97 1.8559C146.667 3.43341 144.646 3.52621 140.812 2.22708C137.745 1.11354 136.42 1.11354 134.05 1.94869C131.889 2.78385 120.527 2.87664 89.4368 2.41267C66.4332 2.13428 46.0784 1.7631 44.0569 1.7631C42.105 1.67031 40.0138 2.13428 39.5258 2.69105C38.8288 3.43341 37.2255 3.43341 34.1583 2.87664C29.8364 2.04149 11.782 2.78385 13.8733 3.619C14.4309 3.89739 15.0583 4.36136 15.2675 4.73254C15.4766 5.10372 17.3587 6.58844 19.4499 8.07316C23.7021 10.9498 27.7452 11.5994 40.5018 11.6922C44.5448 11.6922 47.8211 11.8778 47.6817 12.1561C47.5423 12.4345 51.0974 12.4345 55.5587 12.3417C60.0897 12.1561 70.5459 12.4345 78.9806 13.0841C89.7854 13.8265 94.4558 13.8265 94.9438 13.1769C95.5014 12.4345 95.362 12.1561 94.3861 12.1561C93.689 12.1561 93.2708 11.8778 93.4799 11.5994C93.7587 11.321 95.362 11.785 97.1744 12.6201C99.6142 13.6409 100.73 13.8265 101.357 13.0841C102.054 12.3417 105.47 12.2489 112.998 12.8985C118.854 13.2697 125.964 13.5481 128.752 13.3625C131.61 13.1769 134.259 13.3625 134.677 13.8265C135.444 14.6616 164.094 14.012 203.131 12.3417C214.981 11.785 218.954 11.8778 220.697 12.8057C223.137 14.1048 226.622 13.7337 232.269 11.5994C234.081 10.9498 236.033 10.5786 236.521 10.857C237.079 11.1354 239.17 10.9498 241.191 10.4858C243.98 9.74347 245.095 9.83627 245.722 10.7642C246.21 11.4138 246.419 12.2489 246.141 12.6201C245.862 12.9913 250.323 13.0841 256.109 12.8985C261.825 12.6201 267.402 12.7129 268.447 13.1769C269.493 13.5481 270.538 13.5481 270.748 13.1769C271.096 12.3417 267.471 11.321 263.777 11.1354C261.755 11.0426 261.685 11.0426 263.428 10.3002C266.495 9.00111 272.002 9.37229 277.37 11.2282C281.692 12.8057 285.316 13.1769 297.934 13.3625C306.368 13.5481 311.387 13.3625 309.087 13.0841C306.787 12.7129 305.183 12.3417 305.602 12.2489C305.95 12.0633 305.532 11.6922 304.556 11.321C303.231 10.7642 304.207 10.393 308.39 9.83627C312.294 9.37229 313.967 9.46509 314.176 10.2074C314.315 10.7642 315.43 11.2282 316.615 11.2282C318.707 11.321 318.776 11.321 317.452 12.6201C316.267 13.9192 316.755 14.012 322.331 13.9192C325.817 13.8265 329.511 14.2904 330.696 14.8472C332.439 15.7751 332.857 15.7751 333.554 14.476C334.879 12.0633 335.158 14.8472 334.042 19.5797C332.927 24.3123 332.16 49.5525 333.206 47.3254C333.624 46.3975 333.833 46.9543 333.833 49.2741C333.833 51.0372 334.112 54.0995 334.461 56.0482C334.809 57.9969 334.809 59.6672 334.461 60.0384C333.624 60.6879 333.694 68.4827 334.53 69.2251C334.949 69.5034 335.227 71.3594 335.227 73.2152C335.227 75.9063 335.018 76.3703 334.461 75.2567C333.903 74.1432 333.764 74.5144 333.973 76.8343C334.182 78.5046 334.042 79.6181 333.764 79.3397C332.857 78.5974 333.415 96.0428 334.321 97.3419C335.297 98.7339 335.367 104.673 334.53 109.127C334.042 111.54 333.973 111.168 333.903 107.085C333.903 104.394 333.485 102.167 333.136 102.167C332.16 102.167 332.3 109.776 333.485 118.406C334.461 125.923 334.182 136.873 333.067 134.46C332.369 132.975 332.16 140.213 332.439 162.02C332.927 201.087 332.788 211.201 331.881 214.356C331.394 216.027 331.184 217.697 331.463 218.068C331.742 218.347 332.091 218.068 332.23 217.419C332.439 216.862 332.857 216.491 333.206 216.862C334.182 217.604 333.973 228.183 332.997 228.554C332.369 228.832 332.369 230.781 332.997 236.813C333.485 241.081 333.764 246.278 333.764 248.319C333.694 251.846 333.624 251.938 333.206 249.247C332.3 244.515 331.533 255.743 332.021 264.744C332.3 269.013 332.509 274.116 332.439 276.158C332.439 278.199 332.927 282.839 333.624 286.551C334.461 291.562 334.6 294.16 334.112 297.222C333.554 300.841 333.833 314.482 334.809 332.763C335.018 336.846 334.949 338.609 334.53 337.403C334.182 336.382 333.903 334.34 333.833 332.763C333.833 330.536 333.694 330.257 333.136 331.557C332.648 332.484 332.648 336.103 333.136 341.764C333.973 352.435 333.973 352.528 333.136 350.858C332.788 350.116 332.439 348.445 332.439 347.146C332.3 342.97 331.254 347.888 330.906 354.57L330.487 360.601L331.533 356.704C332.091 354.477 332.788 352.714 333.136 352.714C333.415 352.714 333.624 355.776 333.485 359.488C333.415 363.107 333.276 368.396 333.206 371.087C333.136 374.521 332.927 375.82 332.369 375.356C331.742 374.892 331.672 375.449 332.021 377.397C333.206 384.078 333.276 389.553 332.16 392.43C330.696 396.142 330.696 397.905 332.091 396.327C332.997 395.307 333.136 396.235 333.206 403.38C333.345 423.98 333.903 435.209 334.879 437.807C335.437 439.199 335.925 441.333 335.925 442.354C335.925 444.21 335.576 444.395 330.766 444.302C327.908 444.21 325.747 443.838 325.887 443.467C326.375 442.447 325.538 442.539 317.591 444.21C313.757 445.045 309.435 445.509 307.972 445.323C306.299 445.138 305.183 445.416 304.974 446.158C304.765 446.715 303.231 447.55 301.489 447.829C298.212 448.478 297.306 449.685 299.467 450.427C300.164 450.705 299.467 450.891 297.934 450.984C296.4 451.076 294.379 451.355 293.472 451.726C292.287 452.097 291.939 452.004 292.287 451.262C292.566 450.612 292.357 450.148 291.73 450.148C291.102 450.148 290.614 449.777 290.614 449.313C290.614 448.107 292.845 447.55 294.448 448.293C295.842 449.035 299.676 447.086 299.676 445.694C299.676 445.23 298.422 445.045 296.958 445.23C295.424 445.323 293.96 445.045 293.751 444.581C293.472 444.024 293.124 443.838 292.845 444.024C292.566 444.21 289.848 444.024 286.78 443.653C282.04 443.003 279.81 443.282 271.445 445.509C266.077 446.993 259.734 448.385 257.433 448.664C253.251 449.313 253.181 449.221 253.46 447.179C253.739 445.138 254.157 445.045 260.5 444.766C266.635 444.581 268.308 444.21 267.541 443.282C267.402 443.096 265.031 443.374 262.243 443.746C259.176 444.302 256.039 444.302 254.227 443.746C252.066 443.096 251.16 443.096 250.741 443.931C250.184 445.138 239.309 445.787 228.226 445.323C216.654 444.859 199.645 445.045 195.951 445.694C192.674 446.251 192.326 446.158 193.023 445.045C193.999 443.467 194.138 443.467 182.776 449.035C177.966 451.448 177.06 451.726 176.711 450.52C175.945 447.921 176.293 445.23 177.478 444.024C178.593 442.91 178.315 442.818 175.526 442.725C171.971 442.725 171.065 443.374 172.18 445.23C173.156 446.715 172.877 446.715 166.882 445.045C164.234 444.302 161.864 444.024 161.654 444.488C161.166 445.509 158.448 447.365 157.542 447.365C157.123 447.365 156.775 446.53 156.775 445.602C156.775 443.931 156.635 443.931 153.22 445.23C149.943 446.53 149.665 446.53 148.828 444.952C147.992 443.56 147.085 443.467 141.021 443.931C137.187 444.21 132.377 445.323 130.286 446.251C128.195 447.179 124.988 448.293 123.245 448.571C120.318 449.128 120.108 449.035 120.108 447.086C120.178 443.931 117.738 444.117 112.022 447.643C109.234 449.406 105.539 451.355 103.797 452.004C101.008 453.025 89.5065 453.953 90.1339 453.211C90.5522 452.654 106.097 445.787 108.537 445.045C111.534 444.21 110.698 442.725 107.073 442.632C104.703 442.632 104.424 442.447 105.539 441.704C107.352 440.591 94.9438 441.333 90.5522 442.632C88.0427 443.374 88.8094 443.467 94.3861 443.096C100.102 442.725 101.078 442.818 99.9627 443.746C97.7321 445.602 91.2492 447.365 86.5091 447.365C82.1872 447.365 81.1416 446.437 83.3722 444.581C84.3481 443.746 83.5814 443.653 80.2354 444.117C76.8197 444.581 75.9135 444.395 76.3317 443.56C76.6802 442.818 76.3317 442.632 75.1467 443.003C69.2912 444.952 62.1113 444.488 57.162 441.983C56.4649 441.611 56.6043 442.354 57.65 444.024C59.1138 446.622 59.7412 452.376 58.6259 453.211C58.1379 453.675 46.7058 451.54 44.3357 450.52C42.6627 449.777 42.8718 448.385 44.8934 447.179C47.8908 445.416 46.8452 444.859 41.1989 445.323C38.2711 445.509 33.5309 445.694 30.7426 445.602C28.024 445.602 25.7237 445.88 25.7237 446.344C25.7237 448.2 16.0342 451.54 14.9189 450.056C14.5704 449.592 12.6185 449.221 10.597 449.221H6.90247L7.32074 437.436C7.52985 430.847 8.01782 424.073 8.36633 422.31C8.85431 419.805 8.71487 418.969 7.94809 418.32C5.85684 416.835 2.92911 395.399 4.18387 391.038C5.02036 388.254 4.88095 380.367 3.76562 374.521C2.6503 368.489 2.37146 356.704 3.27765 354.755C3.62619 354.106 4.39297 353.827 5.15979 354.198C6.20538 354.755 6.34482 355.683 6.06598 361.436C5.92657 365.056 5.92657 369.51 6.20538 371.273C6.41452 373.036 6.76306 364.128 6.9722 351.322C7.1813 338.609 7.1116 327.102 6.83276 325.803C6.34482 323.669 6.34482 323.762 6.20538 326.731C6.06598 328.865 5.92657 329.329 5.71744 328.123C5.50833 327.102 5.02036 325.803 4.67181 325.154C3.62619 323.483 3.06854 302.976 4.04443 302.233C4.46271 301.862 4.74152 299.449 4.74152 296.758C4.67181 294.067 4.53241 292.675 4.32327 293.603C3.62619 297.13 2.85941 294.81 2.09262 286.644C1.60468 281.911 1.047 277.828 0.837891 277.55C0.628754 277.271 0.628754 282.097 0.837891 288.221C1.047 294.346 0.977295 302.233 0.628754 305.759C0.00137329 312.348 0.419617 319.4 1.32584 317.452C1.95322 316.06 2.72 329.886 2.44116 337.124C2.37146 340.001 1.81378 343.063 1.32584 343.898C0.21051 345.754 0.0710754 357.446 0.768158 398.183C0.977295 413.216 0.977295 424.537 0.628754 423.238L0.0710754 420.918L0.00137329 423.238C0.00137329 424.537 0.280212 428.713 0.698456 432.517C1.1167 437.436 1.1167 442.075 0.559052 448.107C0.140808 452.84 -0.138031 456.923 0.0710754 457.108C0.419617 457.572 17.2193 458.686 29.9061 458.964C35.0645 459.15 44.8237 458.593 51.5156 457.85ZM299.885 11.5994C300.095 11.321 300.722 11.2282 301.21 11.5066C301.768 11.785 301.558 12.0633 300.792 12.0633C300.025 12.1561 299.607 11.8778 299.885 11.5994Z" fill="black"/>
</svg>
