<svg width="270" height="34" viewBox="0 0 270 34" fill="none" xmlns="http://www.w3.org/2000/svg">
<path d="M240.461 0.125683C239.695 0.31303 239.087 0.335876 237.793 0.221642L236.683 0.121113L236.868 0.239918C236.974 0.32217 236.921 0.358727 236.709 0.358727C236.392 0.358727 233.46 0.230782 231.795 0.148529C231.372 0.125683 230.765 0.157669 229.866 0.244488L228.519 0.367867L222.098 0.381573C218.558 0.390713 215.519 0.408989 215.334 0.431839C215.123 0.450115 213.749 0.463825 212.217 0.454685C210.711 0.450115 208.359 0.472961 207.012 0.500381C205.083 0.546074 204.079 0.546074 202.362 0.500381C200.723 0.459255 199.587 0.459255 197.791 0.495811C196.496 0.523228 194.012 0.564354 192.269 0.5872C190.551 0.61005 188.411 0.664883 187.566 0.706009C186.271 0.769981 185.822 0.774551 185.135 0.733425C183.999 0.660313 179.666 0.664883 176.257 0.742565C172.664 0.824814 162.518 0.797398 158.291 0.696869C155.807 0.637466 154.777 0.632896 152.61 0.674023C148.462 0.751705 133.745 0.801968 109.332 0.829384L98.2612 0.838524L97.812 0.733425L97.3629 0.623756L96.4645 0.710579C95.6191 0.792828 95.1699 0.797401 91.1803 0.765411C88.7759 0.751705 86.0809 0.710579 85.1562 0.678593C83.7294 0.628326 83.0161 0.632896 80.4003 0.696869C78.1545 0.756271 76.992 0.765411 76.1993 0.733425C74.4819 0.664883 64.3625 0.719719 62.8037 0.801968C60.7957 0.911636 52.9221 0.852234 51.416 0.715149C50.3064 0.61919 49.0117 0.59177 47.7963 0.646606C47.1886 0.674023 47.0829 0.664883 46.9244 0.546074C46.8451 0.477531 46.4488 0.363297 46.0525 0.29932L45.3127 0.175949L43.3575 0.3176C41.7722 0.431839 41.2174 0.454685 40.3455 0.427269C39.7378 0.408989 38.813 0.399853 38.2582 0.399853C37.6769 0.404423 36.8579 0.381573 36.3823 0.354156C35.6953 0.31303 35.1933 0.3176 33.8194 0.372437C32.8946 0.408993 31.4415 0.454685 30.596 0.472965C29.2485 0.500381 28.9579 0.491241 28.4559 0.408993C28.1388 0.354156 27.4783 0.31303 26.8441 0.30846C25.9722 0.299324 25.6288 0.32217 24.8625 0.440979C23.5943 0.642036 22.4846 0.696869 20.3973 0.660313C17.2532 0.60091 17.4117 0.59634 17.1211 0.747135C16.6983 0.971039 16.4605 0.998455 15.1923 0.966469C14.4789 0.952763 13.5806 0.961903 12.9465 0.998459C11.9161 1.05786 11.8896 1.05786 10.9649 0.902496C10.4629 0.820248 9.98729 0.701439 9.88161 0.642036L9.72308 0.532368L9.08896 0.674023C8.56054 0.792828 8.24348 0.815678 7.37157 0.815678C6.39398 0.815678 6.31472 0.824818 6.47324 0.916206C7.05451 1.24521 6.97525 1.39143 5.97124 1.77527C5.02007 2.14083 4.99365 2.17282 4.78227 2.89023C4.65017 3.30606 4.38595 3.75844 4.12174 3.92751C3.72542 4.20625 3.699 4.2428 4.09532 4.37532C4.4388 4.48956 4.46522 4.53068 4.201 4.60379C3.93679 4.67691 3.96321 4.71803 4.25385 4.80942C4.51806 4.90081 4.54448 4.96479 4.30669 5.09273C4.0689 5.22982 4.09532 5.29379 4.54448 5.48114C5.46923 5.8924 5.12575 6.09345 2.74783 6.50471C1.87592 6.6555 0.898328 6.87027 0.581271 6.97537L0 7.17186L0.528428 7.43232C0.845485 7.57397 1.37391 7.98066 1.74381 8.32794C2.14013 8.72548 2.5893 8.99966 2.85351 9.05906C3.11773 9.11389 3.93679 9.27383 4.70301 9.41548C5.46923 9.55713 6.20903 9.72164 6.31472 9.78104C6.47324 9.84501 6.39398 10.1009 6.15619 10.4345C5.86555 10.864 5.83913 11.0559 6.0505 11.3255C6.31472 11.6363 6.28829 11.6774 5.83913 11.7916C5.36355 11.9013 5.36355 11.9241 5.70702 12.0429C6.15619 12.1937 6.26187 13.2127 5.86555 13.5326C5.73344 13.6377 5.49565 13.8388 5.3107 13.9804C5.15217 14.1221 4.8087 14.2729 4.51806 14.3186C4.0689 14.3917 4.04247 14.4054 4.41237 14.5013C4.78227 14.6019 4.75585 14.6293 3.85752 14.9309C2.85351 15.2827 2.14013 15.6894 2.14013 15.927C2.14013 16.1007 4.35953 16.7084 5.46923 16.8409C5.86555 16.8866 6.57893 16.9871 7.10736 17.0648C7.9 17.1882 8.00569 17.2202 7.74147 17.2796C7.55652 17.3161 6.86957 17.3618 6.20903 17.3801C5.23144 17.403 4.91438 17.4395 4.38595 17.5766C3.54047 17.8005 2.74783 18.2072 2.64214 18.4814C2.53645 18.6961 2.56288 18.7053 3.3291 18.7281C4.0689 18.751 4.12174 18.7693 4.28027 18.984C4.38595 19.112 4.78227 19.345 5.1786 19.5004C5.86555 19.7563 5.89197 19.802 5.65418 20.0213C5.3107 20.3183 5.41639 22.2101 5.81271 22.5894C5.94482 22.7401 6.0505 23.0874 6.02408 23.3662C5.99766 23.7866 6.07692 23.9008 6.55251 24.079C7.02809 24.2664 7.05451 24.2983 6.71104 24.408C6.52609 24.4766 6.26187 24.6685 6.12977 24.833C5.91839 25.1528 6.20903 26.1033 6.63177 26.4643C7.00167 26.775 6.94883 26.9624 6.47324 27.0812C6.10334 27.1771 6.10334 27.2091 6.49967 27.4879C6.92241 27.7712 6.92241 27.826 6.49967 28.3241C6.0505 28.8404 5.99766 28.8587 5.28428 28.9044C4.5709 28.9547 4.22742 29.0552 4.75585 29.0552C4.88796 29.0552 5.20502 29.0872 5.41639 29.1283C5.78629 29.1923 5.78629 29.2106 5.44281 29.3294C4.96722 29.4893 4.9408 29.7361 5.36355 29.9006C5.60134 29.9919 5.57492 30.0422 5.3107 30.129C5.04649 30.2204 5.04649 30.2661 5.3107 30.3804C5.60134 30.4946 5.57492 30.5403 5.3107 30.6362C5.02007 30.7276 5.02007 30.7916 5.25786 30.9653C5.44281 31.0841 5.70702 31.3354 5.83913 31.5227C5.97124 31.7101 6.34114 31.998 6.63177 32.1533C6.92241 32.3224 7.1602 32.5829 7.18662 32.7702C7.21304 32.953 7.29231 33.2226 7.39799 33.3734L7.55652 33.6476L10.1987 33.6521C12.286 33.6521 13.1314 33.675 14.2411 33.7526C15.615 33.8532 15.8528 33.8532 30.4903 33.8577C47.6642 33.8623 48.087 33.8623 49.1967 33.8075C49.7251 33.7801 50.2271 33.7801 50.5441 33.8121C51.2839 33.8806 65.1023 33.8715 65.8421 33.8075C66.2385 33.7664 66.7141 33.7709 67.7181 33.8121C68.8542 33.8623 69.1977 33.8623 70.2017 33.7983C71.1528 33.7389 71.5492 33.7344 72.1833 33.7755C72.8438 33.8212 73.1344 33.8121 74.0856 33.7207C74.799 33.6521 75.5124 33.6201 76.1201 33.6338C76.9127 33.6476 77.0977 33.6704 77.3354 33.8075C77.6789 33.9857 78.1809 34.0222 79.0528 33.94C79.8983 33.8669 101.009 33.8349 104.285 33.908C106.373 33.9537 106.875 33.9491 108.064 33.8806C108.988 33.8303 109.57 33.8166 109.887 33.8486C110.6 33.9172 111.947 33.9263 114.537 33.8806C116.122 33.8532 118.051 33.8623 120.561 33.9034C124.63 33.9674 127.589 33.9309 130.231 33.7801C131.42 33.7115 131.711 33.7115 132.266 33.7618C132.794 33.8121 135.066 33.8258 142.649 33.8258C150.734 33.8258 152.716 33.8121 154.565 33.7481C155.781 33.707 157.26 33.6704 157.868 33.6704C159.004 33.6704 160.801 33.7892 161.858 33.9354C162.386 34.0085 162.729 34.0131 164.79 33.9811C166.085 33.9583 173.826 33.9354 181.991 33.9309L196.839 33.9217L197.579 33.7983L198.345 33.6704L198.9 33.7709C199.455 33.8669 199.64 33.8669 211.451 33.8852C218.029 33.8943 224.978 33.9034 226.854 33.908C229.443 33.9126 230.685 33.8943 231.874 33.8349C234.437 33.7024 235.071 33.6978 236.445 33.7983C238.665 33.9628 240.62 33.9948 244.504 33.9172C246.749 33.876 248.942 33.8623 250.633 33.8806C252.906 33.9034 253.461 33.8943 254.597 33.8166C255.442 33.7618 256.103 33.7389 256.446 33.7664C256.737 33.7846 257.424 33.8029 257.979 33.8029L259.009 33.8075L257.767 33.5699C257.08 33.4374 256.42 33.282 256.288 33.2226C255.733 32.9667 256.156 32.6971 257.477 32.4869C258.349 32.3452 258.586 32.3864 258.216 32.6148C257.239 33.1769 258.401 33.5562 261.598 33.6978C264.029 33.8075 265.614 33.7618 266.909 33.5379C268.151 33.3231 268.547 33.0764 268.415 32.5737C268.336 32.2219 268.23 32.1488 267.49 31.9386C266.433 31.6461 266.407 31.5913 267.385 31.4999C268.811 31.3765 269.049 30.8556 268.309 29.5487C267.807 28.6257 267.939 28.3012 269.181 27.6615C269.921 27.2594 270.106 27.1177 269.947 26.9806C269.71 26.7567 269.366 26.8161 269.076 27.1314C268.785 27.465 268.336 27.4787 268.098 27.1589C267.939 26.903 268.072 26.6973 268.521 26.6014C268.653 26.5694 268.626 26.3546 268.441 26.053C268.045 25.4224 268.019 24.6182 268.389 22.7036C268.626 21.4515 268.6 21.0631 268.309 20.5788C268.124 20.2498 267.939 19.8202 267.939 19.6192C267.939 19.3404 267.807 19.2171 267.437 19.112C266.935 18.9749 266.935 18.9657 267.437 18.7236C267.807 18.5271 267.913 18.3397 267.939 17.8188V17.1654L268.732 17.0054C269.578 16.8409 269.815 16.6901 269.128 16.7358C268.917 16.7495 268.574 16.7769 268.362 16.7907C267.992 16.8135 267.913 16.7221 267.517 15.9179C267.411 15.6528 267.464 15.5706 267.913 15.4198C268.389 15.2644 268.415 15.2187 268.124 14.9857C267.939 14.8258 267.807 14.3048 267.834 13.592V12.4588L268.679 12.3354C269.683 12.1983 269.789 12.0704 268.943 12.0749C268.389 12.0795 268.336 12.0475 267.887 11.3941C267.543 10.8914 267.411 10.4436 267.464 9.72621C267.517 8.66608 267.2 5.56339 266.988 5.39889C266.935 5.34405 266.566 5.23439 266.196 5.1567L265.482 5.01505L266.354 4.89167L267.2 4.7683L266.988 4.44843C266.856 4.27022 266.724 4.17426 266.671 4.22909C266.486 4.43015 266.09 4.32962 266.09 4.08287C266.09 3.94579 266.222 3.83155 266.354 3.83155C266.513 3.83155 266.645 3.8681 266.645 3.90923C266.751 4.15598 267.12 3.50254 267.12 3.05473C267.147 2.30533 266.777 1.72958 266.116 1.51481C265.535 1.31376 263.923 1.04415 263.316 1.04415C263.104 1.04415 262.629 0.966469 262.285 0.87508C260.832 0.509521 258.375 0.354156 255.125 0.427269C253.804 0.454685 253.593 0.445545 252.853 0.340446C251.664 0.166805 250.898 0.148529 249.127 0.258198C247.727 0.345016 247.489 0.349586 247.014 0.290184C246.617 0.244488 246.01 0.235352 244.847 0.253628C243.315 0.276478 243.209 0.271908 242.469 0.134823C241.492 -0.0433884 241.175 -0.0433884 240.461 0.125683ZM244.583 1.30462C243.896 1.42799 242.628 1.69759 241.756 1.91236C239.563 2.46527 238.797 2.57951 237.026 2.61606C236.207 2.62977 235.283 2.68003 234.86 2.73487C234.146 2.82626 234.12 2.82626 234.12 2.73944C234.12 2.5658 235.388 2.37845 237.634 2.23222C238.823 2.14997 239.88 2.06315 239.959 2.03573C240.065 2.01289 240.276 1.87123 240.435 1.72501C240.673 1.51938 240.937 1.43256 241.597 1.3366C242.707 1.17667 243.817 1.09441 244.953 1.08985H245.851L244.583 1.30462ZM59.4746 1.29548C59.4746 1.33203 59.2368 1.36402 58.9462 1.36402C58.4177 1.36402 58.2592 1.31375 58.6027 1.25892C58.9197 1.19952 59.4746 1.22693 59.4746 1.29548ZM263.95 1.43256C264.478 1.45998 264.558 1.48283 264.425 1.62905C264.188 1.8758 263.844 1.90322 262.919 1.75242C261.863 1.57878 261.836 1.33203 262.893 1.38229C263.131 1.39143 263.606 1.41428 263.95 1.43256ZM225.084 1.67474C225.137 1.70673 225.005 1.72958 224.767 1.72958C224.529 1.72958 224.344 1.69759 224.344 1.65646C224.344 1.57878 224.925 1.59249 225.084 1.67474ZM48.1134 1.84381C48.2983 1.88037 48.3776 1.94434 48.2719 1.9809C48.087 2.07229 46.0261 2.07229 44.7843 1.9809C43.5425 1.88951 43.8595 1.80269 45.3127 1.83467C45.9204 1.84838 46.5809 1.84381 46.7923 1.82097C47.3472 1.757 47.7435 1.76613 48.1134 1.84381ZM8.48127 7.65165C8.48127 7.72476 8.32274 7.82986 8.11137 7.87556C7.76789 7.95781 7.74147 7.95781 7.58294 7.86185C7.39799 7.76589 7.58294 7.51457 7.87358 7.42318C8.11137 7.3592 8.48127 7.50086 8.48127 7.65165ZM13.2371 15.7077C13.2371 15.8128 12.8144 15.8722 12.5766 15.8036C12.3388 15.7397 12.603 15.6209 12.9729 15.6209C13.105 15.6209 13.2371 15.662 13.2371 15.7077ZM266.883 27.264C266.883 27.3599 266.407 27.4559 265.905 27.4559C265.429 27.4559 265.482 27.3416 265.984 27.2548C266.539 27.1589 266.883 27.1634 266.883 27.264ZM232.508 32.0254C232.773 32.0482 233.169 32.1168 233.407 32.1762C233.777 32.2767 233.777 32.3133 233.195 32.6468C232.403 33.1175 232.086 33.2591 231.769 33.2591C230.923 33.2591 229.893 33.1906 229.893 33.1358C229.893 33.1038 230.13 32.9895 230.421 32.889C230.87 32.7382 230.949 32.6605 230.791 32.4412C230.632 32.2036 230.685 32.1625 231.187 32.0756C231.821 31.966 231.874 31.966 232.508 32.0254ZM264.558 32.1076L265.271 32.1899L263.474 32.1716C262.259 32.1579 261.387 32.1762 260.7 32.2264C259.432 32.3178 258.983 32.3224 259.485 32.2356C260.726 32.0208 263.263 31.9568 264.558 32.1076ZM218.796 32.2401C218.796 32.3498 218.531 32.4138 217.818 32.4778C217.263 32.528 217.21 32.5235 217.21 32.3955C217.21 32.3133 217.395 32.2401 217.686 32.2127C218.373 32.1396 218.796 32.1533 218.796 32.2401ZM226.881 32.56C226.431 32.7154 225.718 32.8296 225.48 32.7885C225.295 32.7519 226.114 32.528 226.696 32.4503C227.303 32.3772 227.356 32.4092 226.881 32.56ZM154.988 33.1312C154.75 33.2683 154.01 33.4511 153.667 33.4556C153.112 33.4602 153.271 33.314 153.931 33.1723C154.75 33.0078 155.226 32.9895 154.988 33.1312ZM197.526 33.346C197.13 33.4785 196.285 33.5379 195.968 33.4511C195.809 33.4008 196.998 33.0901 197.447 33.0627C197.976 33.0352 198.002 33.1906 197.526 33.346ZM131.077 33.1221C131.394 33.154 131.394 33.1769 131.156 33.218C130.918 33.2591 130.733 33.2591 130.442 33.2134C129.756 33.1175 130.31 33.0352 131.077 33.1221ZM265.984 33.2637C265.773 33.4465 264.505 33.6293 264.505 33.4785C264.505 33.4236 265.773 33.1221 266.011 33.1221C266.09 33.1221 266.09 33.186 265.984 33.2637ZM178.107 33.346C177.816 33.4465 177.446 33.4693 177.208 33.4054C177.05 33.3551 177.367 33.2774 177.842 33.25C178.397 33.218 178.45 33.2363 178.107 33.346Z" fill="black"/>
</svg>
