<svg width="322" height="253" viewBox="0 0 322 253" fill="none" xmlns="http://www.w3.org/2000/svg">
<path d="M238.38 0.488098C237.477 0.932785 236.317 2.10011 235.801 3.04509C235.092 4.43475 234.706 4.6571 233.223 4.43475C231.289 4.10124 228.518 5.65767 227.873 7.43645C227.293 8.93729 223.168 8.32584 221.298 6.43588C220.009 5.10181 219.751 5.04622 218.204 5.76884C217.238 6.21353 216.206 6.99176 215.884 7.54762C215.239 8.60378 211.436 8.99287 211.436 7.99231C211.436 7.10292 209.116 7.32527 207.633 8.38142C206.86 8.93729 206.215 10.049 206.151 10.8828C206.022 12.2725 205.764 12.4393 203.573 12.4393C202.283 12.4393 200.414 12.1613 199.447 11.8834C198.287 11.4943 197.514 11.4943 196.933 11.8834C196.289 12.3281 194.871 12.2169 191.777 11.4943C188.425 10.7161 187.329 10.2158 186.878 9.27081C186.233 7.76997 186.233 7.76997 184.106 8.60378C182.559 9.21523 180.497 12.5504 180.497 14.3848C180.497 15.4409 178.821 15.4965 178.112 14.496C177.532 13.6066 174.696 12.884 174.696 13.6066C174.696 14.4404 173.471 14.1625 172.117 12.9951C170.441 11.5499 169.797 11.6055 167.992 13.1619C166.767 14.218 166.187 14.3848 164.962 13.9401C164.125 13.6622 161.675 13.3842 159.612 13.3286L155.745 13.2731V11.3275C155.681 9.7155 155.423 9.3264 154.198 9.21523C153.36 9.10405 152.007 9.43758 151.104 9.93785C149.106 11.0496 143.111 10.5493 143.111 9.21523C143.111 8.60378 142.66 8.4926 141.113 8.77054C139.502 9.04846 138.599 8.82611 136.923 7.71439C135.248 6.60265 134.087 6.32471 131.122 6.32471C128.479 6.32471 127.255 6.04678 126.675 5.43532C125.966 4.60152 125.772 4.60152 123.903 5.43532C122.743 5.93561 121.389 6.93617 120.873 7.6588C120.164 8.60378 119.455 8.8817 118.295 8.65936C117.393 8.54819 116.684 8.10349 116.684 7.71439C116.684 6.65823 114.492 5.21297 112.752 5.21297C111.849 5.21297 110.496 5.60208 109.722 6.10237C108.369 6.88058 108.24 6.825 106.822 5.43532L105.339 3.93448L103.921 5.21297C103.148 5.93561 102.503 6.26912 102.503 5.93561C102.503 5.60208 101.923 5.21297 101.149 5.04622C100.44 4.87946 99.6669 4.21242 99.4735 3.60095C99.0223 2.10011 97.8621 1.82217 94.3814 2.37805C91.2874 2.87833 88.967 2.65598 88.967 1.82217C88.967 1.04396 87.4844 1.26631 84.7772 2.43364C81.7477 3.76772 80.523 5.71326 82.5212 6.15794C84.4549 6.60265 84.0682 8.27025 81.4899 10.7717C79.2983 12.8284 77.3646 13.6622 77.3646 12.4948C77.3646 10.7717 66.7935 10.049 64.1508 11.5499C63.1195 12.1613 61.8303 12.3837 60.9279 12.2169C59.961 11.9946 59.1231 12.2725 58.3496 12.9951C57.3827 13.9401 56.6737 14.0513 54.0309 13.7733C51.5816 13.4954 50.6147 13.6066 49.7123 14.3292C48.8099 15.0518 47.843 15.163 44.878 14.8851C41.8485 14.5516 40.8816 14.1625 38.9479 12.4948C36.7563 10.4937 36.6918 10.4937 34.887 11.3831C33.7268 11.9946 32.6955 12.1057 32.1798 11.8278C30.8262 11.1052 29.666 11.2164 29.666 12.0502C29.666 13.6066 26.572 15.3854 23.607 15.4965C19.7395 15.6077 18.5148 16.5527 19.0305 18.9429C19.2883 20.3326 19.1594 20.7773 18.5148 20.7773C17.9991 20.7773 17.419 21.4999 17.1612 22.4449C16.9034 23.6678 16.4522 24.1125 15.4208 24.1125C14.7118 24.1125 13.5516 24.6684 12.8425 25.3354C11.5534 26.7251 11.2311 28.5594 12.3269 28.5594C12.7781 28.5594 12.9714 29.56 12.7781 31.3388C12.7136 32.8952 12.8425 34.1181 13.1004 34.1181C13.3582 34.1181 13.4227 35.0075 13.1648 36.0637C12.7781 37.7868 12.9714 38.0648 14.7763 38.9542C16.1943 39.6768 16.7744 40.3438 16.7744 41.4C16.7744 44.1793 13.6805 47.6813 11.8757 47.0699C11.36 46.9031 10.7154 47.9037 10.0709 49.738C8.71725 53.5735 8.7817 54.0738 10.4576 55.6302C11.8757 56.9087 11.8757 57.0199 10.8443 58.5763L9.74857 60.2439L12.6492 62.8009C14.8407 64.802 15.4853 65.8026 15.4853 67.2479C15.4853 68.304 15.7431 69.1378 16.0654 69.1378C16.3232 69.1378 17.3546 69.6381 18.3214 70.3051C19.9329 71.4169 19.9329 71.4725 18.966 73.1957C18.1281 74.5297 18.0636 75.1412 18.6437 75.9194C19.0305 76.4753 19.2238 77.5314 18.966 78.3096C18.6437 79.477 18.7726 79.6993 19.9329 79.6993C21.8666 79.6993 21.8666 82.7566 19.9329 83.2013C18.9015 83.4236 18.6437 83.8127 18.966 84.5354C19.5461 85.7583 19.5461 85.6471 19.4172 87.8706C19.3528 89.0935 19.0305 89.7049 18.3859 89.7049C17.8702 89.7049 17.419 89.9273 17.419 90.2608C17.419 90.5387 16.8389 90.8167 16.1299 90.8167C14.2606 90.8167 11.6178 91.984 11.6178 92.8734C11.6178 93.2625 11.9401 93.596 12.2624 93.596C12.6492 93.596 12.907 93.8184 12.907 94.1519C12.907 94.4298 12.5202 94.7078 12.0046 94.7078C11.5534 94.7078 10.4576 95.5972 9.61965 96.6533C8.7817 97.7094 7.81484 98.5988 7.49255 98.5988C7.10581 98.5988 5.94557 99.1547 4.78533 99.8217C3.17389 100.767 2.59377 101.601 2.27149 103.435C2.07811 104.769 1.43354 106.159 0.917876 106.603C-0.629106 107.993 -0.177903 110.105 1.9492 111.495C3.94738 112.773 4.39859 114.052 3.17389 115.108C2.59377 115.608 2.59377 116.22 3.23835 117.443C3.68955 118.388 4.26967 119.166 4.59196 119.166C4.91425 119.166 5.17208 119.833 5.17208 120.667C5.17208 121.501 5.7522 122.724 6.52569 123.391C7.29918 124.113 8.00821 125.781 8.3305 127.615C8.58833 129.227 9.03953 130.895 9.29737 131.284C9.5552 131.673 9.36182 132.618 8.71725 133.396C7.94376 134.452 7.8793 135.008 8.39496 135.564C8.91062 136.12 8.52387 136.898 6.78352 138.844C4.26967 141.734 4.01184 142.512 5.68774 142.512C7.42809 142.568 9.42628 144.347 10.9733 147.182C12.3269 149.572 12.3269 149.85 11.36 150.795C10.3931 151.684 10.3931 151.851 11.6178 152.796C12.3269 153.352 12.907 154.13 12.907 154.575C12.907 155.075 13.2937 155.242 14.1317 155.019C15.163 154.742 15.3564 155.131 15.6787 157.854C15.9365 160.133 16.5166 161.412 17.6124 162.468C19.2238 163.969 20.4485 168.082 19.2238 168.082C18.8371 168.082 18.6437 169.25 18.7726 170.973C18.9015 172.64 18.6437 174.475 18.1281 175.197C17.6769 175.92 17.4835 176.865 17.6769 177.365C17.9347 177.921 17.419 178.366 16.1299 178.811C15.0985 179.144 14.1961 179.589 14.1961 179.811C14.1961 180.478 18.1281 183.091 19.0949 183.091C20.513 183.091 20.1262 183.869 18.0636 185.203C16.4522 186.259 16.2588 186.704 16.5811 188.094C16.7744 189.039 16.5811 190.095 16.1943 190.539C15.6787 191.04 15.6787 191.707 16.0654 192.763C16.5811 193.875 17.2901 194.264 19.3528 194.542C21.4154 194.82 21.9311 195.153 21.9311 196.098C21.9311 197.71 22.8979 198.989 23.478 198.155C24.1226 197.265 25.5407 197.377 26.7654 198.433C27.4744 199.1 27.6033 199.545 27.0877 200.045C26.572 200.545 26.6365 200.99 27.3455 201.601C27.8612 202.046 28.1834 202.88 27.9901 203.436C27.5389 205.103 28.6346 206.104 30.5684 205.659C31.6642 205.437 32.2443 204.936 32.2443 204.214C32.2443 202.657 34.5647 202.769 35.5961 204.325C36.0473 205.048 36.3051 206.104 36.1762 206.66C36.0473 207.493 36.3051 207.66 37.4009 207.382C39.5924 206.882 40.6882 207.493 40.237 208.939C39.9147 210.05 40.1081 210.162 41.4617 209.939C42.2997 209.772 43.3954 210.05 43.9111 210.44C45.3936 211.718 50.5502 213.664 52.484 213.664C53.8376 213.664 54.4177 214.053 54.9978 215.276C55.5779 216.665 56.0936 216.943 58.6074 217.166C61.1213 217.443 62.0237 217.221 64.5375 215.831C66.149 214.942 68.1472 213.608 68.9851 212.83C69.8231 212.052 70.9833 211.44 71.6279 211.44C72.8526 211.44 75.4309 214.831 75.4309 216.498C75.4309 217.054 75.8821 217.555 76.3977 217.555C76.9134 217.555 77.3646 217.166 77.3646 216.721C77.3646 215.72 78.3959 215.609 79.0405 216.554C79.2983 216.888 79.1694 217.332 78.7827 217.443C77.6224 217.777 77.8803 218.5 79.2339 218.833C81.361 219.278 82.0055 218.555 81.1676 216.554C80.2007 214.164 81.361 211.44 83.1658 211.829C84.5838 212.163 85.4863 210.995 84.5194 210.162C82.779 208.661 84.4549 208.16 87.2911 209.272C88.1935 209.661 89.1603 210.606 89.5471 211.496C89.9983 212.663 90.7073 213.108 92.3832 213.386C93.6724 213.608 95.2838 213.608 96.0573 213.386C96.9597 213.163 97.8621 213.33 98.7001 213.997C99.8603 214.886 99.9892 214.886 101.214 213.941C101.923 213.386 103.599 212.83 104.952 212.719C108.111 212.441 109.336 211.384 108.369 209.884C107.531 208.55 106.242 208.716 103.986 210.495C102.439 211.718 101.407 211.384 100.505 209.383C100.183 208.661 99.6025 208.216 99.2157 208.383C98.829 208.605 98.7001 209.105 98.8934 209.495C99.2157 210.328 97.3465 211.996 96.1218 211.996C95.1549 211.996 95.735 209.217 96.7019 208.661C97.0242 208.494 97.6687 207.382 98.1199 206.159C98.829 204.269 99.2802 203.936 101.021 203.769C102.439 203.658 103.47 203.936 104.372 204.714C105.146 205.381 105.984 205.881 106.306 205.881C106.628 205.881 107.015 206.271 107.273 206.715C107.724 207.883 110.045 207.771 110.883 206.548C111.463 205.659 111.592 205.715 112.816 206.938C113.783 207.883 114.492 208.16 115.717 207.883C117.651 207.438 117.715 207.883 116.104 209.772C114.879 211.051 114.814 211.107 113.59 210.162C111.334 208.383 108.884 209.272 110.238 211.384C110.689 212.107 110.689 212.607 110.238 212.83C108.82 213.552 109.722 214.775 112.172 215.387C113.912 215.831 114.75 216.387 114.75 217.054C114.75 218.388 115.781 218.833 117.264 218.11C118.102 217.721 118.424 217.221 118.166 216.554C117.844 215.831 117.973 215.776 118.617 216.276C119.52 216.999 121.196 216.61 122.227 215.442C122.743 214.831 123.065 214.775 123.387 215.22C124.032 216.165 126.352 216.054 126.739 215.053C127.319 213.775 128.093 214.053 128.866 215.943C129.253 216.999 129.833 217.499 130.284 217.277C130.8 216.943 130.735 216.721 130.155 216.332C129.446 215.887 129.446 215.72 130.091 215.498C130.542 215.387 131.316 214.886 131.767 214.442C132.282 213.997 133.12 213.664 133.572 213.664C134.087 213.664 134.796 213.386 135.119 213.108C135.892 212.441 137.955 212.941 137.955 213.719C137.955 213.997 138.535 214.219 139.179 214.219C139.824 214.219 140.533 214.553 140.726 214.998C141.113 215.831 147.237 215.943 148.784 215.164C149.944 214.497 149.75 213.274 148.203 212.052C146.914 210.995 146.914 210.995 148.139 210.273C148.784 209.828 149.879 208.661 150.46 207.66C151.749 205.548 152.78 205.048 155.036 205.548C156.067 205.77 156.454 206.159 156.261 206.715C155.552 208.216 156.712 208.716 157.872 207.493C158.903 206.326 159.161 206.326 161.031 207.049C162.191 207.493 163.093 208.049 163.093 208.327C163.093 208.55 163.544 208.661 164.06 208.438C164.64 208.272 165.285 208.605 165.672 209.217C166.316 210.273 166.445 210.273 167.928 209.439C169.861 208.327 175.018 208.827 174.438 210.106C174.244 210.495 174.373 210.995 174.696 211.162C175.018 211.329 174.696 212.329 173.987 213.386C173.213 214.442 172.891 215.331 173.278 215.331C173.6 215.331 174.115 215.943 174.309 216.665C174.824 218.444 178.047 219.611 180.174 218.778C181.077 218.388 181.786 217.888 181.786 217.555C181.786 217.166 182.302 217.054 183.075 217.277C183.977 217.499 184.364 217.388 184.364 216.832C184.364 216.332 184.106 215.887 183.849 215.776C183.011 215.554 182.302 212.552 183.011 212.552C184.622 212.552 185.653 213.386 185.653 214.72C185.653 215.776 186.362 216.61 188.232 217.721C190.617 219.167 191.003 219.222 193.066 218.666C196.095 217.777 197.514 215.887 196.998 213.386C196.547 211.551 197.385 209.217 198.416 209.217C198.738 209.217 199.576 210.328 200.35 211.718C201.123 213.108 202.155 214.219 202.67 214.219C204.088 214.219 204.539 216.943 203.379 218.444C202.541 219.611 202.026 219.778 200.285 219.5C197.449 219 195.129 220.612 195.967 222.391C196.74 224.058 198.352 224.003 199.963 222.224C200.93 221.223 201.51 221.001 201.961 221.39C202.348 221.724 203.315 222.002 204.153 222.002C205.055 222.002 205.635 222.335 205.635 222.835C205.635 223.28 206.086 223.669 206.667 223.669C207.247 223.669 208.085 224.058 208.471 224.559C209.374 225.615 211.565 225.003 211.307 223.725C211.179 223.113 210.405 222.835 208.987 222.78C206.795 222.78 205.055 221.835 206.151 221.223C206.86 220.834 206.344 218.11 205.571 218.11C204.411 218.11 205.055 216.61 206.86 215.109C208.471 213.775 208.665 213.33 208.214 212.218C207.698 211.107 207.827 210.884 208.729 210.884C210.598 210.884 211.501 211.774 211.307 213.386C211.05 215.22 212.403 215.887 213.048 214.275C213.435 213.163 214.982 212.719 215.497 213.552C215.626 213.775 215.948 214.609 216.206 215.442C216.593 216.776 216.4 216.999 215.175 216.999C214.337 216.999 213.306 217.221 212.854 217.499C212.145 217.888 212.21 218.055 213.048 218.333C213.628 218.5 214.788 218.666 215.626 218.666C216.529 218.666 217.238 219.055 217.431 219.723C217.624 220.501 218.527 220.89 220.976 221.168C223.168 221.39 224.65 221.946 225.682 222.891C227.1 224.169 227.1 224.225 228.002 223.113C228.518 222.502 229.356 222.002 229.871 222.002C230.451 222.002 230.774 221.39 230.774 220.056C230.774 218.722 231.096 218.11 231.741 218.11C232.256 218.11 232.707 218.611 232.707 219.222C232.707 219.834 233.159 220.334 233.674 220.334C234.19 220.334 234.641 219.889 234.641 219.333C234.641 218.833 235.544 217.944 236.639 217.443C238.38 216.554 238.766 216.554 240.442 217.277C241.603 217.777 242.441 217.888 242.698 217.555C242.956 217.221 244.181 217.166 245.663 217.332C248.177 217.721 248.177 217.666 248.177 215.831C248.177 213.33 250.433 212.274 253.14 213.497C254.752 214.219 255.268 214.219 257.975 213.386C259.651 212.885 261.327 212.607 261.778 212.83C262.293 213.108 262.358 212.774 262.036 211.496C261.391 208.939 262.68 209.383 264.034 212.218C264.678 213.552 265.452 214.553 265.71 214.442C265.968 214.275 266.032 213.83 265.774 213.386C265.581 212.885 265.839 212.552 266.419 212.552C266.934 212.552 267.515 212.163 267.772 211.718C267.966 211.273 268.546 210.884 269.062 210.884C269.577 210.884 270.286 210.495 270.608 210.05C271.06 209.272 271.382 209.328 272.8 210.328C274.154 211.218 274.798 211.329 276.216 210.884C278.537 210.106 278.537 210.162 278.086 211.774C277.699 212.997 277.828 213.163 278.859 212.997C279.633 212.885 280.019 212.441 279.89 211.718C279.697 210.773 279.761 210.773 280.728 211.44C281.566 212.052 282.082 212.052 283.049 211.551C283.887 211.107 285.434 210.995 287.496 211.218C290.204 211.551 290.719 211.774 290.719 212.774C290.719 213.719 290.848 213.775 291.364 213.108C291.686 212.663 292.008 211.718 292.008 210.995C292.008 209.939 292.202 209.828 293.233 210.328C295.167 211.218 295.876 210.995 295.876 209.606C295.876 208.883 296.134 208.105 296.456 207.827C296.778 207.493 297.165 206.66 297.294 205.937C297.358 205.159 297.874 204.436 298.39 204.325C299.034 204.158 299.163 204.325 298.905 204.992C298.648 205.492 298.776 205.881 299.034 205.881C299.357 205.881 299.743 205.492 300.001 205.048C300.195 204.603 300.775 204.214 301.29 204.214C302.644 204.214 303.804 200.045 303.353 196.932C303.031 195.042 303.16 194.208 303.869 193.708C304.384 193.319 304.642 192.652 304.513 192.263C304.32 191.818 304.9 190.039 305.738 188.26C306.64 186.482 307.543 184.369 307.736 183.535C307.994 182.646 308.574 181.979 309.154 181.979C309.67 181.979 310.701 181.145 311.346 180.145C312.055 179.089 313.344 177.977 314.246 177.643C315.535 177.143 315.858 176.587 315.858 174.864C315.858 173.697 316.18 172.474 316.567 172.14C317.663 171.195 316.954 168.972 315.407 168.36C313.537 167.638 313.537 167.193 315.535 166.081C317.405 165.025 317.663 162.857 316.116 160.912C315.278 159.911 315.213 159.355 315.793 158.299C316.373 157.132 316.309 156.854 315.342 156.631C312.828 155.964 312.313 155.409 312.506 153.63C312.57 152.629 312.313 151.462 311.926 151.073C311.346 150.461 311.41 150.017 312.313 149.183C313.279 148.238 313.344 147.849 312.764 146.626C312.313 145.848 311.152 144.958 310.121 144.68C307.865 144.013 307.027 141.623 308.574 140.178C309.541 139.233 309.219 136.954 308.058 136.954C306.64 136.954 307.672 134.953 309.476 134.23C311.732 133.396 313.602 130.45 312.57 129.338C312.119 128.894 312.635 128.282 314.117 127.282C316.244 125.892 316.309 125.67 315.664 123.891C315.084 122.279 315.213 121.779 316.18 120.834C317.791 119.277 317.082 116.387 314.246 112.829C313.022 111.273 311.99 109.549 311.99 108.994C311.99 108.493 311.604 108.049 311.088 108.049C310.443 108.049 310.185 107.437 310.314 105.825C310.443 104.158 310.895 103.157 312.313 102.101C314.053 100.656 314.182 100.656 315.987 101.545C317.727 102.434 317.856 102.379 318.823 101.1C319.403 100.322 319.725 99.1547 319.532 98.5433C319.274 97.765 319.661 96.9312 320.692 96.0418C322.046 94.8745 322.175 94.3742 321.852 91.8728C321.53 89.7049 321.143 88.9267 320.047 88.482C319.274 88.2041 317.534 86.7033 316.18 85.2024C314.504 83.2569 313.344 82.4787 312.248 82.4787C311.152 82.4787 310.701 82.8122 310.701 83.4792C310.701 84.0351 309.799 85.0912 308.703 85.7583L306.64 87.0924L305.48 85.7583C304.32 84.4242 303.611 82.2007 303.611 79.8661C303.611 78.8655 303.16 78.4764 301.677 78.1985C300.646 78.0317 299.743 77.587 299.743 77.1423C299.743 76.0306 298.519 75.6415 297.487 76.3641C296.52 77.0867 296.263 76.8088 296.52 75.0856C296.585 74.5297 296.263 73.6959 295.876 73.2513C295.167 72.5842 295.489 72.473 297.745 72.473C300.646 72.473 302.966 71.6948 302.966 70.7498C302.966 70.4719 302.386 69.6381 301.677 68.9711C300.13 67.5814 300.388 65.6358 302.386 63.8571C303.546 62.6897 303.546 62.6897 302.257 61.7448C301.226 60.9666 301.033 60.3551 301.355 58.9654C301.935 56.6864 302.193 56.3528 303.353 56.3528C304.578 56.3528 304.513 54.9632 303.224 53.907C302.515 53.24 302.257 52.2394 302.451 50.3495C302.644 48.0704 302.451 47.6813 301.226 47.181C300.001 46.7363 299.743 46.2361 299.743 44.1237C299.808 41.9003 300.066 41.4556 302.322 39.9547C305.029 38.1204 305.093 38.1204 305.093 31.0609C305.093 27.3365 305.287 26.5027 306.254 25.8913C307.801 24.9463 307.801 23.7234 306.254 22.8896C305.222 22.3893 305.158 22.0002 305.738 20.944C306.705 19.1097 305.802 18.5538 301.484 18.1647C298.261 17.8868 297.939 17.72 298.454 16.8306C298.841 16.2747 299.099 15.3298 299.099 14.6627C299.099 14.0513 299.55 13.3842 300.066 13.2175C300.646 12.9951 301.033 12.1613 301.033 10.9384C301.033 9.7155 300.775 9.15964 300.323 9.38199C299.937 9.60434 299.486 9.27081 299.292 8.60378C299.099 7.82556 298.454 7.43645 297.423 7.43645C296.069 7.43645 295.876 7.15851 295.876 5.49091C295.876 1.711 292.331 2.32246 288.334 6.825C286.981 8.32584 285.563 9.60434 285.111 9.60434C284.725 9.65993 283.822 8.99287 283.178 8.21466C282.211 7.10292 281.373 6.76941 279.375 6.76941C276.796 6.71382 272.542 7.88115 271.253 8.99287C270.415 9.7155 266.87 9.93785 266.87 9.21523C266.87 8.99287 265.645 8.4926 264.163 8.10349C261.713 7.43645 261.327 7.49203 259.715 8.4926C258.684 9.15964 257.459 9.65993 256.943 9.65993C255.848 9.65993 254.365 7.6588 254.945 6.88058C255.332 6.38029 253.334 5.21297 252.109 5.21297C251.722 5.21297 251.4 5.60208 251.4 6.04678C251.4 7.60321 249.595 6.88058 249.144 5.21297C248.886 4.10124 248.306 3.54536 247.533 3.54536C246.888 3.54536 246.115 3.26744 245.857 2.93391C245.663 2.60039 244.632 2.43364 243.601 2.65598C242.312 2.87833 241.731 2.71156 241.731 2.26688C241.731 1.87776 241.345 1.09955 240.958 0.599274C240.184 -0.17894 239.927 -0.17894 238.38 0.488098Z" fill="black"/>
<path d="M311.346 195.318C311.346 196.597 312.957 196.819 313.473 195.652C313.924 194.762 313.408 194.207 312.184 194.207C311.732 194.207 311.346 194.707 311.346 195.318Z" fill="black"/>
<path d="M307.801 199.209C307.543 199.543 307.607 200.099 307.994 200.432C308.381 200.766 308.768 200.766 309.09 200.321C309.348 199.987 309.283 199.432 308.896 199.098C308.51 198.765 308.123 198.765 307.801 199.209Z" fill="black"/>
<path d="M99.9248 205.271C99.9248 205.882 101.923 206.605 102.439 206.16C102.632 205.993 102.374 205.604 101.859 205.326C100.634 204.659 99.9248 204.659 99.9248 205.271Z" fill="black"/>
<path d="M302.966 205.881C302.966 206.159 303.288 206.437 303.611 206.437C303.997 206.437 304.255 206.159 304.255 205.881C304.255 205.547 303.997 205.325 303.611 205.325C303.288 205.325 302.966 205.547 302.966 205.881Z" fill="black"/>
<path d="M152.265 209.049C149.622 209.327 149.88 210.383 152.845 211.272C154.069 211.662 154.778 211.995 154.392 212.051C154.069 212.106 153.489 212.217 153.102 212.273C152.78 212.384 152.071 212.44 151.684 212.495C150.202 212.607 150.782 213.551 153.167 214.83C155.616 216.108 156.583 215.775 156.648 213.607C156.648 213.107 157.099 212.551 157.615 212.329C158.13 212.162 158.581 211.606 158.581 211.106C158.581 210.383 158.195 210.272 156.583 210.55C154.778 210.828 154.585 210.772 154.907 209.772C155.101 209.16 155.036 208.715 154.843 208.771C154.585 208.771 153.425 208.938 152.265 209.049Z" fill="black"/>
<path d="M302.321 210.884C302.321 211.162 302.644 211.439 302.966 211.439C303.353 211.439 303.61 211.162 303.61 210.884C303.61 210.55 303.353 210.328 302.966 210.328C302.644 210.328 302.321 210.55 302.321 210.884Z" fill="black"/>
<path d="M197.256 211.662C197.256 212.163 197.578 212.552 197.9 212.552C198.287 212.552 198.545 212.329 198.545 212.051C198.545 211.718 198.287 211.329 197.9 211.162C197.578 210.995 197.256 211.218 197.256 211.662Z" fill="black"/>
<path d="M85.1638 213.329C84.7771 213.718 84.5837 214.496 84.8415 214.996C85.2927 216.052 85.4216 216.052 87.0975 215.33C88.0644 214.829 88.1933 214.496 87.6777 213.662C86.8397 212.384 86.1951 212.272 85.1638 213.329Z" fill="black"/>
<path d="M166.123 213.162C164.64 213.885 164.705 214.774 166.252 214.774C167.734 214.774 168.379 214.163 167.734 213.274C167.412 212.829 166.896 212.829 166.123 213.162Z" fill="black"/>
<path d="M12.2626 213.941C12.2626 214.385 12.7138 214.774 13.2294 214.774C13.7451 214.774 14.1963 214.385 14.1963 213.941C14.1963 213.496 13.7451 213.107 13.2294 213.107C12.7138 213.107 12.2626 213.496 12.2626 213.941Z" fill="black"/>
<path d="M68.3405 214.941C68.3405 215.998 68.985 216.442 70.0164 216.053C71.37 215.609 71.1121 214.219 69.6296 214.219C68.9206 214.219 68.3405 214.552 68.3405 214.941Z" fill="black"/>
<path d="M95.0907 214.774C95.2841 215.052 95.7997 215.33 96.122 215.33C96.5088 215.33 96.5732 215.052 96.3799 214.774C96.1865 214.441 95.6708 214.218 95.3485 214.218C94.9618 214.218 94.8973 214.441 95.0907 214.774Z" fill="black"/>
<path d="M267.257 214.663C267.128 214.886 267.193 215.442 267.45 215.775C268.095 216.72 270.093 215.997 269.642 214.997C269.255 214.163 267.773 213.941 267.257 214.663Z" fill="black"/>
<path d="M47.7141 216.385C47.7141 216.719 48.0364 217.108 48.3587 217.275C48.7454 217.441 49.0033 217.219 49.0033 216.774C49.0033 216.274 48.7454 215.885 48.3587 215.885C48.0364 215.885 47.7141 216.107 47.7141 216.385Z" fill="black"/>
<path d="M148.075 216.22C147.559 216.664 148.139 217.554 148.977 217.554C149.299 217.554 149.557 217.165 149.557 216.72C149.557 215.886 148.784 215.608 148.075 216.22Z" fill="black"/>
<path d="M260.553 216.664C260.618 217.22 261.069 217.609 261.391 217.609C262.358 217.554 262.165 216.275 261.198 215.997C260.618 215.831 260.36 216.109 260.553 216.664Z" fill="black"/>
<path d="M67.8894 218.556C66.3424 220.279 66.858 222.002 68.9207 222.002C70.9189 222.002 71.6279 220.723 70.8544 218.722C70.0165 216.666 69.6942 216.61 67.8894 218.556Z" fill="black"/>
<path d="M97.024 217.555C97.2819 217.888 97.7331 217.999 98.0554 217.833C98.9578 217.332 98.7644 216.999 97.6042 216.999C97.0885 216.999 96.8307 217.277 97.024 217.555Z" fill="black"/>
<path d="M131.509 218.054C131.509 218.666 131.767 219.277 132.089 219.444C132.862 219.889 134.28 218.277 133.765 217.554C133.056 216.609 131.509 216.943 131.509 218.054Z" fill="black"/>
<path d="M276.797 217.61C276.345 218.277 277.763 219.333 278.795 219.055C279.182 218.944 279.504 218.444 279.633 217.943C279.891 216.887 277.57 216.609 276.797 217.61Z" fill="black"/>
<path d="M295.553 217.554C295.747 217.831 296.198 218.109 296.585 218.109C296.907 218.109 297.165 217.831 297.165 217.554C297.165 217.22 296.713 216.998 296.133 216.998C295.618 216.998 295.36 217.22 295.553 217.554Z" fill="black"/>
<path d="M266.225 218.944C265.774 219.388 264.614 219.722 263.389 219.611C261.713 219.499 261.327 219.722 261.198 220.834C260.94 222.056 261.133 222.112 263.454 221.834C264.807 221.612 266.354 221.723 266.805 222.001C268.997 223.168 271.189 220.389 269.319 218.777C268.288 217.887 267.192 217.943 266.225 218.944Z" fill="black"/>
<path d="M18.0636 219.222C18.0636 219.5 18.3214 219.778 18.6437 219.778C19.0305 219.778 19.4817 219.5 19.675 219.222C19.8684 218.889 19.6106 218.667 19.0949 218.667C18.5148 218.667 18.0636 218.889 18.0636 219.222Z" fill="black"/>
<path d="M33.8557 219.167C33.4045 219.834 34.6292 220.501 35.4671 220.056C36.1762 219.667 35.725 218.667 34.8225 218.667C34.5003 218.667 34.1135 218.889 33.8557 219.167Z" fill="black"/>
<path d="M73.4972 219.666C73.4972 221.167 74.9797 222.612 75.9466 222.056C76.5912 221.723 76.6556 221.333 76.011 220.166C75.1086 218.443 73.4972 218.165 73.4972 219.666Z" fill="black"/>
<path d="M105.533 219.333C103.986 219.833 103.728 220.111 104.115 221.278C104.566 223.001 102.954 224.78 100.763 224.78C98.8936 224.78 98.7002 226.781 100.57 227.282C102.245 227.726 103.148 227.226 103.148 225.781C103.148 224.891 103.406 224.725 104.63 225.002C111.721 226.781 115.137 224.725 112.688 220.055C112.107 218.944 111.527 218.666 109.658 218.721C108.369 218.721 106.5 218.999 105.533 219.333Z" fill="black"/>
<path d="M152.78 219.222C152.78 219.5 153.038 219.778 153.36 219.778C153.747 219.778 154.198 219.5 154.391 219.222C154.585 218.889 154.327 218.667 153.811 218.667C153.231 218.667 152.78 218.889 152.78 219.222Z" fill="black"/>
<path d="M168.443 219.331C168.572 219.72 169.088 220.054 169.539 220.054C169.99 220.054 170.506 219.72 170.699 219.331C170.828 218.942 170.377 218.664 169.539 218.664C168.701 218.664 168.25 218.942 168.443 219.331Z" fill="black"/>
<path d="M208.213 219.389C208.213 220.445 208.858 220.89 209.825 220.5C210.921 220.167 210.34 218.666 209.116 218.666C208.6 218.666 208.213 219 208.213 219.389Z" fill="black"/>
<path d="M62.5393 220.61C62.5393 222.111 64.2152 222.556 65.5688 221.389C66.6646 220.444 65.8266 219.221 64.0863 219.221C62.8616 219.221 62.5393 219.499 62.5393 220.61Z" fill="black"/>
<path d="M87.9355 220.055C87.6777 220.556 87.6777 221.056 87.8066 221.223C88.3867 221.667 90.3204 220.778 90.0626 220.167C89.6759 219.166 88.3223 219.055 87.9355 220.055Z" fill="black"/>
<path d="M141.693 219.611C141.049 219.722 140.533 220.056 140.533 220.278C140.533 221.056 143.821 222.001 144.852 221.557C145.69 221.112 145.69 220.945 144.723 220.167C143.627 219.167 143.563 219.167 141.693 219.611Z" fill="black"/>
<path d="M159.226 219.777C159.226 220.111 159.677 220.333 160.193 220.333C160.708 220.333 161.159 220.222 161.159 220.111C161.159 219.999 160.708 219.777 160.193 219.555C159.677 219.388 159.226 219.499 159.226 219.777Z" fill="black"/>
<path d="M172.246 219.888C172.568 220.721 174.051 220.888 174.115 220.054C174.115 219.721 173.664 219.387 173.02 219.332C172.375 219.165 172.053 219.387 172.246 219.888Z" fill="black"/>
<path d="M272.027 220.056C272.027 220.501 272.414 220.89 272.929 220.89C273.445 220.89 273.961 220.501 274.218 220.056C274.476 219.5 274.154 219.222 273.316 219.222C272.607 219.222 272.027 219.611 272.027 220.056Z" fill="black"/>
<path d="M286.658 219.612C285.756 220.335 286.271 221.446 287.496 221.446C288.334 221.446 288.785 221.057 288.785 220.335C288.785 219.278 287.496 218.834 286.658 219.612Z" fill="black"/>
<path d="M212.081 220.334C212.081 220.612 212.403 220.89 212.725 220.89C213.112 220.89 213.37 220.612 213.37 220.334C213.37 220 213.112 219.778 212.725 219.778C212.403 219.778 212.081 220 212.081 220.334Z" fill="black"/>
<path d="M130.349 221.557C129.317 222.446 128.737 222.613 128.222 222.169C127.19 221.279 125.063 221.946 125.063 223.169C125.063 224.559 126.546 225.059 128.222 224.281C129.059 223.892 129.64 223.836 129.897 224.225C130.478 225.059 132.991 224.892 134.474 223.947C135.634 223.169 135.634 223.113 133.829 221.724C132.798 220.946 131.896 220.334 131.896 220.334C131.831 220.334 131.122 220.89 130.349 221.557Z" fill="black"/>
<path d="M36.821 222.169C35.8542 223.225 37.4656 225.115 38.9481 224.615C40.3018 224.17 40.3018 222.224 38.9481 221.78C37.5945 221.335 37.659 221.335 36.821 222.169Z" fill="black"/>
<path d="M80.5875 222C80.5875 222.278 81.0387 222.556 81.5544 222.556C82.07 222.556 82.5213 222.278 82.5213 222C82.5213 221.666 82.07 221.444 81.5544 221.444C81.0387 221.444 80.5875 221.666 80.5875 222Z" fill="black"/>
<path d="M96.702 222.278C96.702 222.779 97.0243 223.112 97.4111 223.001C97.7978 222.89 98.1201 222.556 98.1201 222.278C98.1201 222 97.7978 221.667 97.4111 221.556C97.0243 221.445 96.702 221.778 96.702 222.278Z" fill="black"/>
<path d="M136.343 222C135.892 222.667 136.472 223.668 137.375 223.668C137.697 223.668 137.955 223.168 137.955 222.556C137.955 221.389 136.988 221.055 136.343 222Z" fill="black"/>
<path d="M171.795 222.39C170.441 223.557 170.892 224.502 172.826 224.502C173.922 224.502 174.438 224.168 174.566 223.335C174.824 221.834 173.084 221.222 171.795 222.39Z" fill="black"/>
<path d="M70.661 222.446C70.4676 222.779 70.5965 223.224 70.9833 223.391C71.9501 223.947 72.5947 223.224 71.7568 222.501C71.3056 222.112 70.9188 222.112 70.661 222.446Z" fill="black"/>
<path d="M150.395 222.835C150.202 223.335 150.202 223.836 150.395 224.058C151.04 224.614 152.78 223.724 152.78 222.835C152.78 221.723 150.911 221.723 150.395 222.835Z" fill="black"/>
<path d="M235.479 222.891C235.286 223.336 235.415 224.003 235.802 224.337C236.833 225.226 238.509 224.448 238.509 223.114C238.509 221.78 236.06 221.557 235.479 222.891Z" fill="black"/>
<path d="M268.932 223.224C269.319 224.225 270.737 224.392 270.737 223.447C270.737 222.946 270.286 222.557 269.706 222.557C269.126 222.557 268.803 222.835 268.932 223.224Z" fill="black"/>
<path d="M139.502 223.946C138.986 225.058 139.76 225.892 141.242 225.892C142.144 225.892 142.467 225.502 142.467 224.502C142.467 223.501 142.144 223.112 141.178 223.112C140.469 223.112 139.695 223.501 139.502 223.946Z" fill="black"/>
<path d="M133.443 226.171C133.443 226.616 133.12 227.005 132.734 227.005C132.411 227.005 132.218 227.227 132.476 227.561C132.927 228.172 135.312 226.393 134.925 225.726C134.474 225.004 133.443 225.282 133.443 226.171Z" fill="black"/>
<path d="M169.088 226.782C168.894 227.227 169.023 227.894 169.41 228.227C170.441 229.117 172.117 228.338 172.117 227.004C172.117 225.67 169.668 225.448 169.088 226.782Z" fill="black"/>
<path d="M55.8359 229.116C55.707 229.338 55.8359 229.894 56.1582 230.339C56.6738 231.062 56.8028 231.062 57.3184 230.339C57.963 229.505 57.7052 228.671 56.7383 228.671C56.416 228.671 56.0293 228.894 55.8359 229.116Z" fill="black"/>
<path d="M190.939 229.451C191.003 230.006 191.455 230.396 191.777 230.396C192.744 230.34 192.55 229.061 191.584 228.783C191.003 228.617 190.746 228.895 190.939 229.451Z" fill="black"/>
<path d="M254.623 230.061C254.623 231.006 254.752 231.061 256.17 230.561C257.331 230.172 256.944 229.227 255.526 229.227C255.01 229.227 254.623 229.616 254.623 230.061Z" fill="black"/>
<path d="M26.4429 230.562C26.4429 231.006 26.7007 231.507 26.9585 231.673C27.7965 232.118 29.2145 231.062 28.7633 230.395C28.1188 229.505 26.4429 229.617 26.4429 230.562Z" fill="black"/>
<path d="M95.7351 230.34C95.9285 230.618 96.2508 230.896 96.4442 230.896C96.5731 230.896 96.702 230.618 96.702 230.34C96.702 230.006 96.3797 229.784 95.993 229.784C95.6707 229.784 95.5418 230.006 95.7351 230.34Z" fill="black"/>
<path d="M161.417 230.673C161.611 231.173 161.804 231.618 161.804 231.785C161.804 231.896 162.255 231.841 162.771 231.674C164.253 231.173 163.931 229.784 162.384 229.784C161.417 229.784 161.16 230.006 161.417 230.673Z" fill="black"/>
<path d="M225.424 230.117C225.231 230.283 225.295 230.895 225.617 231.395C225.94 231.895 226.326 232.952 226.52 233.785C226.842 234.897 227.229 235.175 228.131 234.953C229.936 234.564 230.323 233.229 228.84 232.451C228.131 232.062 227.551 231.284 227.551 230.784C227.551 229.839 226.262 229.45 225.424 230.117Z" fill="black"/>
<path d="M230.773 230.396C230.773 230.674 231.096 230.785 231.418 230.618C231.805 230.451 232.063 230.173 232.063 230.006C232.063 229.895 231.805 229.784 231.418 229.784C231.096 229.784 230.773 230.062 230.773 230.396Z" fill="black"/>
<path d="M294.587 230.34C294.587 230.618 294.909 230.896 295.231 230.896C295.618 230.896 295.876 230.618 295.876 230.34C295.876 230.006 295.618 229.784 295.231 229.784C294.909 229.784 294.587 230.006 294.587 230.34Z" fill="black"/>
<path d="M118.746 232.23C118.811 232.786 119.262 233.175 119.584 233.175C120.551 233.119 120.358 231.841 119.391 231.563C118.811 231.396 118.553 231.674 118.746 232.23Z" fill="black"/>
<path d="M90.4496 232.396C89.6116 232.507 88.967 232.841 88.967 233.119C88.967 233.897 91.2231 234.786 93.1568 234.786C94.5749 234.786 94.8327 234.564 94.6393 233.508C94.4459 232.229 93.2212 231.896 90.4496 232.396Z" fill="black"/>
<path d="M290.397 232.562C289.688 233.507 290.719 235.397 291.879 235.23C293.362 235.008 293.362 232.339 291.879 232.117C291.299 232.006 290.655 232.228 290.397 232.562Z" fill="black"/>
<path d="M158.581 233.119C158.581 233.397 158.904 233.675 159.226 233.675C159.613 233.675 159.87 233.397 159.87 233.119C159.87 232.785 159.613 232.563 159.226 232.563C158.904 232.563 158.581 232.785 158.581 233.119Z" fill="black"/>
<path d="M54.8046 233.674C54.8046 233.952 55.1269 234.229 55.4491 234.229C55.8359 234.229 56.0937 233.952 56.0937 233.674C56.0937 233.34 55.8359 233.118 55.4491 233.118C55.1269 233.118 54.8046 233.34 54.8046 233.674Z" fill="black"/>
<path d="M189.521 233.674C189.521 233.952 189.843 234.229 190.165 234.229C190.552 234.229 190.81 233.952 190.81 233.674C190.81 233.34 190.552 233.118 190.165 233.118C189.843 233.118 189.521 233.34 189.521 233.674Z" fill="black"/>
<path d="M253.656 233.674C253.463 233.952 253.72 234.229 254.301 234.229C254.881 234.229 255.139 233.952 254.945 233.674C254.752 233.34 254.43 233.118 254.301 233.118C254.172 233.118 253.849 233.34 253.656 233.674Z" fill="black"/>
<path d="M154.262 235.62C154.069 236.121 154.327 236.899 154.843 237.455C155.423 237.955 155.681 238.733 155.552 239.122C154.714 241.012 158.903 242.291 160.45 240.679C161.353 239.734 160.773 238.455 158.323 236.176C156.647 234.62 154.843 234.342 154.262 235.62Z" fill="black"/>
<path d="M78.1382 239.899C77.0424 240.844 77.1714 242.233 78.5894 243.345C79.5563 244.123 80.072 244.179 81.49 243.623C83.1659 242.956 83.5527 241.844 82.7792 240.121C82.328 239.065 79.234 238.954 78.1382 239.899Z" fill="black"/>
<path d="M262.81 239.566C261.907 240.4 262.423 241.456 263.712 241.456C264.614 241.456 264.937 241.178 264.808 240.511C264.614 239.511 263.519 239.01 262.81 239.566Z" fill="black"/>
<path d="M252.174 246.237C250.304 247.349 250.304 249.85 252.238 251.796C253.656 253.185 253.914 253.241 256.041 252.629C259.328 251.684 260.166 249.294 258.039 247.126C256.428 245.57 253.849 245.181 252.174 246.237Z" fill="black"/>
<path d="M153.425 249.74C153.425 251.185 154.52 251.741 155.681 250.907C156.841 250.073 156.196 248.683 154.649 248.683C153.876 248.683 153.425 249.073 153.425 249.74Z" fill="black"/>
</svg>
