<svg width="45" height="45" viewBox="0 0 45 45" fill="none" xmlns="http://www.w3.org/2000/svg">
<rect width="45" height="45" fill="#ECECEC"/>
<rect x="3" y="2" width="40" height="40" rx="10" fill="#040404"/>
<path d="M23 12.8333C20.8029 12.8238 18.6918 13.686 17.1296 15.2309C15.5674 16.7758 14.6816 18.8771 14.6667 21.0742C14.6662 22.2436 14.917 23.3994 15.4023 24.4634C15.8876 25.5273 16.5958 26.4745 17.4792 27.2408V28.48C17.4827 29.1952 17.7699 29.8798 18.2776 30.3835C18.7854 30.8872 19.4723 31.1689 20.1875 31.1667H25.8125C26.5276 31.1689 27.2143 30.8873 27.7221 30.3838C28.2298 29.8803 28.5171 29.1959 28.5208 28.4808V27.2417C29.4043 26.4753 30.1126 25.5279 30.5979 24.4638C31.0831 23.3997 31.3339 22.2437 31.3333 21.0742C31.3183 18.8771 30.4326 16.7758 28.8704 15.2309C27.3082 13.686 25.197 12.8238 23 12.8333ZM27.1667 26.1975C27.0682 26.2755 26.9886 26.3748 26.9339 26.488C26.8792 26.6011 26.8508 26.7252 26.8508 26.8508V28.4808C26.8473 28.7534 26.7362 29.0134 26.5417 29.2044C26.3472 29.3953 26.085 29.5016 25.8125 29.5H25.5V27C25.5 26.779 25.4122 26.567 25.2559 26.4107C25.0996 26.2545 24.8877 26.1667 24.6667 26.1667C24.4456 26.1667 24.2337 26.2545 24.0774 26.4107C23.9211 26.567 23.8333 26.779 23.8333 27V29.5H22.1667V27C22.1667 26.779 22.0789 26.567 21.9226 26.4107C21.7663 26.2545 21.5543 26.1667 21.3333 26.1667C21.1123 26.1667 20.9004 26.2545 20.7441 26.4107C20.5878 26.567 20.5 26.779 20.5 27V29.5H20.1875C19.9144 29.5024 19.6514 29.3966 19.4562 29.2056C19.2609 29.0145 19.1493 28.7539 19.1458 28.4808V26.8508C19.1463 26.7254 19.1184 26.6016 19.0643 26.4884C19.0102 26.3753 18.9312 26.2759 18.8333 26.1975C18.0553 25.5891 17.4259 24.8116 16.9928 23.924C16.5597 23.0364 16.3342 22.0618 16.3333 21.0742C16.3333 19.3061 17.0357 17.6104 18.286 16.3601C19.5362 15.1099 21.2319 14.4075 23 14.4075C24.7681 14.4075 26.4638 15.1099 27.714 16.3601C28.9643 17.6104 29.6667 19.3061 29.6667 21.0742C29.6658 22.0618 29.4403 23.0364 29.0072 23.924C28.5741 24.8116 27.9447 25.5891 27.1667 26.1975Z" fill="white"/>
<path d="M20.5 24.5C21.4205 24.5 22.1667 23.7538 22.1667 22.8333C22.1667 21.9129 21.4205 21.1667 20.5 21.1667C19.5795 21.1667 18.8333 21.9129 18.8333 22.8333C18.8333 23.7538 19.5795 24.5 20.5 24.5Z" fill="white"/>
<path d="M25.5 24.5C26.4205 24.5 27.1667 23.7538 27.1667 22.8333C27.1667 21.9129 26.4205 21.1667 25.5 21.1667C24.5795 21.1667 23.8333 21.9129 23.8333 22.8333C23.8333 23.7538 24.5795 24.5 25.5 24.5Z" fill="white"/>
</svg>
