<svg width="45" height="45" viewBox="0 0 45 45" fill="none" xmlns="http://www.w3.org/2000/svg">
<rect width="45" height="45" transform="matrix(-1 0 0 -1 44.9999 45)" fill="#ECECEC"/>
<rect x="2" y="2" width="40" height="40" rx="10" fill="#E522AA"/>
<path d="M31.9999 19.641C32.0999 19.141 31.6999 18.541 31.1999 18.541L25.4999 17.741L22.8999 12.541C22.7999 12.341 22.6999 12.241 22.4999 12.141C21.9999 11.841 21.3999 12.041 21.0999 12.541L18.5999 17.741L12.8999 18.541C12.5999 18.541 12.3999 18.641 12.2999 18.841C11.8999 19.241 11.8999 19.841 12.2999 20.241L16.3999 24.241L15.3999 29.941C15.3999 30.141 15.3999 30.341 15.4999 30.541C15.7999 31.041 16.3999 31.241 16.8999 30.941L21.9999 28.241L27.0999 30.941C27.1999 31.041 27.3999 31.041 27.5999 31.041C27.6999 31.041 27.6999 31.041 27.7999 31.041C28.2999 30.941 28.6999 30.441 28.5999 29.841L27.5999 24.141L31.6999 20.141C31.8999 20.041 31.9999 19.841 31.9999 19.641Z" fill="black"/>
</svg>
