<svg width="30" height="31" viewBox="0 0 30 31" fill="none" xmlns="http://www.w3.org/2000/svg">
<path d="M26.4611 16.932C26.5227 16.4386 26.569 15.9451 26.569 15.4208C26.569 14.8965 26.5227 14.403 26.4611 13.9096L29.7148 11.3651C30.0078 11.1338 30.0849 10.7175 29.8999 10.3782L26.8157 5.0426C26.6307 4.70334 26.2143 4.57998 25.8751 4.70334L22.0353 6.24542C21.2334 5.62859 20.3698 5.1197 19.4292 4.73418L18.8432 0.647674C18.7969 0.277574 18.4731 0 18.0876 0H11.9192C11.5337 0 11.2099 0.277574 11.1636 0.647674L10.5776 4.73418C9.63697 5.1197 8.7734 5.64401 7.97152 6.24542L4.13174 4.70334C3.77706 4.56456 3.37612 4.70334 3.19107 5.0426L0.106915 10.3782C-0.0935556 10.7175 -0.00103058 11.1338 0.291965 11.3651L3.54575 13.9096C3.48407 14.403 3.43781 14.9119 3.43781 15.4208C3.43781 15.9297 3.48407 16.4386 3.54575 16.932L0.291965 19.4765C-0.00103058 19.7078 -0.0781348 20.1241 0.106915 20.4634L3.19107 25.799C3.37612 26.1383 3.79249 26.2616 4.13174 26.1383L7.97152 24.5962C8.7734 25.213 9.63697 25.7219 10.5776 26.1074L11.1636 30.1939C11.2099 30.564 11.5337 30.8416 11.9192 30.8416H18.0876C18.4731 30.8416 18.7969 30.564 18.8432 30.1939L19.4292 26.1074C20.3698 25.7219 21.2334 25.1976 22.0353 24.5962L25.8751 26.1383C26.2297 26.277 26.6307 26.1383 26.8157 25.799L29.8999 20.4634C30.0849 20.1241 30.0078 19.7078 29.7148 19.4765L26.4611 16.932ZM15.0034 20.8181C12.0272 20.8181 9.60613 18.397 9.60613 15.4208C9.60613 12.4446 12.0272 10.0235 15.0034 10.0235C17.9796 10.0235 20.4007 12.4446 20.4007 15.4208C20.4007 18.397 17.9796 20.8181 15.0034 20.8181Z" fill="black"/>
</svg>
