<svg width="83" height="82" viewBox="0 0 83 82" fill="none" xmlns="http://www.w3.org/2000/svg">
<mask id="path-1-inside-1_982_3685" fill="white">
<path d="M36.5153 3.37235C36.6286 3.72653 36.5617 3.85053 36.2157 3.91141L35.9159 3.96034L36.0932 4.07953C36.2124 4.16556 36.2497 4.21948 36.2165 4.25269C36.1667 4.30252 35.5462 4.6037 35.182 4.76262C35.0871 4.80054 35.0315 4.93595 34.9987 5.18544L34.9409 5.55113L33.9491 6.5771C33.4042 7.14484 32.9496 7.6451 32.949 7.70267C32.9386 7.75869 32.7398 7.99168 32.4876 8.22108C32.2453 8.45203 31.9043 8.85004 31.7267 9.09599C31.4807 9.45609 31.3229 9.61385 30.996 9.8267C30.6873 10.0328 30.5088 10.2113 30.2721 10.5392C30.1029 10.7769 29.7639 11.2185 29.5184 11.521C29.2771 11.8194 29.0092 12.2241 28.9277 12.4083C28.8041 12.6915 28.7392 12.7678 28.5799 12.8244C28.3102 12.9117 27.635 13.5983 27.1963 14.2308C26.7343 14.8981 25.1059 16.4581 24.3161 16.997C23.8518 17.3131 23.6841 17.4693 23.395 17.8611C22.8401 18.6098 20.5903 20.9851 16.7884 24.8555L15.0602 26.6064L14.8585 26.5459L14.651 26.4796L14.6182 26.7291C14.588 26.9646 14.5231 27.0409 13.8563 27.6279C13.4614 27.9886 12.9866 28.3607 12.8014 28.4661C12.5145 28.6276 12.4081 28.7454 12.0769 29.2362C11.7981 29.6633 11.6268 29.8573 11.4624 29.942C11.107 30.1263 9.58528 31.7848 9.44296 32.1324C9.26428 32.5848 7.95294 33.7479 7.54523 33.8135C7.25112 33.8681 7.01347 34.0373 6.89092 34.2967C6.82964 34.4264 6.80163 34.4316 6.62847 34.3083C6.53048 34.2352 6.32566 34.155 6.18355 34.1374L5.91335 34.0997L5.78288 34.5837C5.67633 34.9753 5.61765 35.091 5.44643 35.1938C5.32814 35.2665 5.17142 35.4004 5.08424 35.4876C4.9986 35.5846 4.84139 35.6848 4.73244 35.7254C4.57318 35.782 4.5 35.8666 4.35254 36.1509C4.25284 36.3418 4.08152 36.6272 3.97147 36.7828C3.79394 37.0288 3.73687 37.0631 3.55535 37.0393C3.43711 37.0207 3.282 37.0732 3.17665 37.1671C3.02824 37.2927 3.00278 37.3752 3.03063 37.6438C3.08224 38.094 2.97629 38.3368 2.60268 38.6192C2.03451 39.0391 2.05371 39.0085 2.19621 39.2423C2.40918 39.5882 2.40602 39.6597 2.16683 39.8191C2.03763 39.9141 1.90787 40.0667 1.85385 40.2119C1.76606 40.448 1.7619 40.4521 1.42273 40.4036C1.24121 40.3798 1.01823 40.3063 0.927493 40.2488L0.765735 40.1368L0.842854 40.4132C0.908072 40.6445 0.88676 40.7228 0.749753 40.8598C0.596139 41.0135 0.595088 41.0373 0.734039 41.1265C1.23592 41.4457 1.40593 41.6406 1.72713 42.2773C2.03383 42.8829 2.06959 42.927 2.93159 43.8554C3.42971 44.3951 3.95269 45.0011 4.12214 45.2536C4.40769 45.6637 4.44916 45.7134 4.67679 45.8165C4.87331 45.9051 4.92878 45.9523 4.97849 46.085C5.02821 46.2178 5.08368 46.2649 5.24339 46.3333C5.39895 46.4058 5.48293 46.4815 5.60521 46.6785C5.73891 46.8869 5.82289 46.9626 6.12725 47.1258C6.78574 47.4937 6.98265 47.7985 7.12218 48.6854C7.17334 49.0106 7.28772 49.4322 7.36904 49.6131L7.52289 49.9496L7.93094 50.1916C8.15752 50.3186 8.74803 50.743 9.2395 51.1182C9.79785 51.552 10.2106 51.8236 10.3262 51.8562C10.4361 51.8831 10.7644 51.954 11.0616 52.0103C11.3587 52.0667 11.6802 52.1557 11.771 52.2132C11.8757 52.2681 12.1826 52.5999 12.5615 53.0535C13.0518 53.6352 13.2871 53.8788 13.6567 54.182C14.086 54.5282 14.1332 54.5837 14.2051 54.7968C14.2672 55.0084 14.2958 55.0369 14.498 55.1312C14.7567 55.2488 16.0449 56.5037 16.3817 56.9651C16.4921 57.117 16.7056 57.4053 16.8533 57.6111C17.0052 57.8128 17.1394 58.0549 17.1507 58.1576C17.1714 58.3194 17.1843 58.3407 17.3622 58.4023C17.5458 58.4696 17.5758 58.508 17.811 59.0255C18.0923 59.6223 18.4877 60.2419 18.7842 60.5384C19.0009 60.755 20.108 61.1647 20.4477 61.1556C20.567 61.1504 20.8045 61.1637 20.9845 61.1776C21.263 61.207 21.3195 61.2303 21.3521 61.346C21.3687 61.4207 21.3178 61.5856 21.2368 61.7122C21.1117 61.8944 21.1075 61.9898 21.1955 62.2439C21.342 62.6561 21.725 63.2882 22.0505 63.6469C22.3019 63.9315 22.3174 63.9387 22.4663 63.8469C22.6111 63.7591 22.6422 63.7736 22.9351 64.0167C23.1114 64.1598 23.4644 64.3883 23.7206 64.5199C24.1478 64.7312 24.209 64.7841 24.4453 65.0952C24.762 65.5198 27.1392 67.8638 27.6748 68.2748C27.8837 68.4422 28.3337 68.8589 28.6773 69.2109C29.1978 69.7396 29.3528 69.8697 29.6499 70.0174C29.9584 70.1764 30.0024 70.2122 30.0853 70.403C30.1418 70.5176 30.3398 70.7986 30.5243 71.0246C30.8902 71.457 32.1219 72.5973 32.6388 72.9814C33.0846 73.311 33.3101 73.553 33.3836 73.776C33.4452 73.9539 33.4851 73.9938 33.8952 74.2794C34.3152 74.5665 34.3836 74.6349 34.9387 75.3228C35.5125 76.0377 35.527 76.0688 35.4719 76.238C35.4225 76.4128 35.494 76.5922 35.577 76.5092C35.5978 76.4884 35.6875 76.4785 35.772 76.4966C35.91 76.5183 35.9328 76.5411 36.0271 76.7433C36.1519 77.0176 36.4557 77.3297 36.7274 77.4685C36.8788 77.5452 36.9373 77.6121 37.0042 77.7619C37.0767 77.9175 37.1337 77.9745 37.3178 78.0755C37.506 78.1724 37.5589 78.2336 37.6371 78.3949C37.7055 78.5546 37.7853 78.6344 38.0393 78.8137C38.2166 78.9329 38.5718 79.205 38.8263 79.418C39.0808 79.631 39.4982 79.9321 39.7377 80.0803C39.9944 80.2456 40.3568 80.5333 40.5947 80.7629C40.8269 80.9868 41.1758 81.3108 41.3806 81.4824L41.7476 81.7996L42.1685 81.3901C42.4965 81.0621 42.6578 80.9578 42.9291 80.8803C43.2705 80.7899 43.3078 80.7525 45.6136 78.4582C48.3179 75.7652 48.3843 75.6988 48.4903 75.456C48.5391 75.3388 48.618 75.2599 48.7077 75.25C48.9095 75.2193 51.0694 73.0365 51.1059 72.8404C51.1168 72.7268 51.1973 72.6578 51.4063 72.5514C51.6476 72.4356 51.7016 72.3816 51.7795 72.144C51.8548 71.9204 51.9114 71.8524 52.0624 71.8041C52.2232 71.7573 52.2574 71.7003 52.2929 71.4368C52.3194 71.2391 52.3916 71.0871 52.5042 71.0087C52.6459 70.9013 52.7034 70.9007 52.9119 71.0344C53.1882 71.2028 53.3127 71.1696 53.3471 70.9299C53.3887 70.7058 56.666 67.3487 57.2721 66.9251C57.6571 66.6542 57.7303 66.5696 57.8316 66.2972C57.9141 66.0892 57.9884 65.9807 58.0781 65.9708C58.2757 65.9443 58.4989 65.7439 58.8487 65.28C59.0636 64.9967 59.3781 64.7051 59.8238 64.362C60.543 63.8024 60.9624 63.2918 61.1894 62.6885C61.2907 62.4161 61.3364 62.3704 61.4863 62.346C61.632 62.3257 62.0062 61.9857 63.1977 60.7942C64.4682 59.5238 64.7624 59.1953 64.9732 58.8248C65.1129 58.5825 65.2998 58.3044 65.3953 58.2089C65.5738 58.0304 66.0043 57.8963 66.3529 57.9127C66.5271 57.9209 66.5868 57.8727 66.8707 57.5089C67.0457 57.277 68.2336 56.032 69.5108 54.7434L71.8327 52.3987L71.795 52.1285L71.7557 51.8485L71.9683 51.8867C72.1753 51.9193 72.2043 51.8902 74.0829 50.0572C75.1281 49.0348 76.2314 47.9543 76.5319 47.6653C76.9445 47.2641 77.1168 47.0462 77.2295 46.7852C77.4669 46.2171 77.5608 46.1118 77.9021 46.0214C78.4562 45.8779 78.8033 45.6106 79.3167 44.9033C79.6182 44.4991 79.9457 44.1374 80.2342 43.8945C80.6198 43.566 80.6956 43.4674 80.7772 43.1919C80.8416 42.9906 80.9169 42.8583 81.0051 42.8386C81.0736 42.8157 81.2043 42.7306 81.2915 42.6434L81.4591 42.4872L80.9675 42.3858C80.6942 42.3284 80.3965 42.2383 80.3016 42.185C79.8951 41.9528 79.6251 41.55 79.5704 41.0801C79.5307 40.7663 79.6194 40.7803 79.8463 41.1235C80.3941 41.9785 81.05 42.2691 81.7291 41.9435C82.2479 41.6984 82.44 41.3922 82.3641 40.9094C82.2912 40.4463 82.0456 40.0761 81.3976 39.4696C80.9461 39.043 80.8382 38.9684 80.4597 38.8224C79.9287 38.6235 79.8561 38.5592 79.8957 38.2916C79.9659 37.9134 79.3533 37.226 77.6063 35.7115C76.3756 34.6386 75.9915 34.213 75.3884 33.2196C75.0028 32.6016 74.8551 32.3958 74.6592 32.2496C74.3424 32.0076 74.3625 32.1357 74.7103 32.5748C75.0809 33.0367 75.0274 33.1244 74.5909 32.7626C74.2467 32.4682 74.0109 32.1909 73.9617 32.0005C73.9425 31.9399 73.6704 31.676 73.265 31.3287C72.4159 30.6042 71.4082 29.6048 69.0771 27.1575C67.5522 25.5578 67.0633 25.0773 66.4133 24.5185C65.9737 24.137 65.4086 23.6301 65.1577 23.3792C64.8099 23.0314 64.6352 22.8982 64.4459 22.8252C64.196 22.733 64.1846 22.7216 63.9613 22.3405C63.7742 22.0372 63.557 21.7868 62.9111 21.1327L62.0958 20.3173L62.0207 19.9931C61.9483 19.655 61.7975 19.4295 61.7466 19.5945C61.7305 19.6448 61.7107 19.733 61.6946 19.7833C61.665 19.8699 61.5385 19.7683 60.4727 18.8271C60.1254 18.5129 60.031 18.402 59.9134 18.1433C59.7943 17.8747 59.7414 17.8135 59.405 17.5684C59.1763 17.3978 58.5056 16.7686 57.6202 15.8749L56.2061 14.4608L56.185 14.174C56.1717 13.8452 56.0287 13.6689 55.9015 13.8075C55.82 13.9004 55.7718 13.8688 54.8858 13.124C54.2047 12.5507 53.6251 12.0127 52.7382 11.1092C51.4236 9.778 47.5022 5.95617 47.2637 5.78411C47.187 5.72399 46.992 5.64527 46.8369 5.60646L46.5481 5.54179L46.5311 5.25083L46.51 4.96402L46.0777 4.5981C45.8345 4.39648 45.694 4.2975 45.7541 4.37422C45.976 4.65417 45.7883 4.591 45.4803 4.2831C45.3093 4.11204 45.1875 3.94873 45.2083 3.92797C45.2332 3.90306 45.2995 3.92792 45.3509 3.97923C45.6754 4.27054 44.9181 3.39703 44.3593 2.83823C43.4283 1.89896 42.6518 1.23863 42.28 1.07443C41.9378 0.914883 41.3481 0.831716 41.2526 0.927204C41.2194 0.960417 41.0477 0.93822 40.8797 0.878152C40.1952 0.650338 39.6152 0.842579 39.1958 1.44447C39.0224 1.68627 38.9778 1.70808 38.7304 1.69318C38.3269 1.66334 38.1837 1.76093 38.0424 2.17594C37.9307 2.50432 37.899 2.54739 37.7502 2.54799C37.6309 2.55325 37.524 2.63734 37.3641 2.84282C37.1518 3.11213 37.1295 3.12303 36.8422 3.06822C36.4662 2.99946 36.4164 3.04928 36.5153 3.37235ZM38.634 4.19579C38.68 4.45769 38.8172 4.99339 38.9482 5.39839C39.2935 6.43292 39.3157 6.69588 39.0831 7.01966C38.9715 7.16547 38.8889 7.3735 38.8909 7.50835C38.8929 7.73449 38.8887 7.73863 38.7804 7.6303C38.5637 7.41362 38.5292 6.98056 38.6996 6.4452C38.7838 6.15573 38.8416 5.88133 38.8198 5.83466C38.8079 5.78955 38.6644 5.57957 38.5068 5.37219C38.2876 5.07824 38.2208 4.92838 38.2048 4.70485C38.1796 4.33091 38.2513 4.0539 38.4242 3.86967L38.5653 3.72851L38.634 4.19579ZM9.53566 33.2714C9.58128 33.317 9.58382 33.3943 9.53815 33.4399C9.45512 33.523 9.36749 33.4851 9.35304 33.3628C9.32873 33.2388 9.45013 33.1858 9.53566 33.2714ZM41.8369 1.31224C41.9542 1.26342 41.9951 1.27947 42.1568 1.48269C42.4274 1.82797 42.4076 1.91615 42.0741 1.87329C41.6914 1.82269 41.3793 1.51893 41.6081 1.41558C41.6569 1.38962 41.7601 1.3434 41.8369 1.31224ZM36.0319 7.72162C36.0801 7.75323 36.0879 7.8025 36.0505 7.83987C36.0132 7.87723 35.9442 7.86638 35.8929 7.81506C35.7959 7.71813 35.9044 7.6439 36.0319 7.72162ZM8.43466 35.7408C8.50933 35.7574 8.60162 35.8248 8.63063 35.887C8.71561 36.0301 8.39177 36.3539 8.0826 36.435C7.77343 36.5161 7.71491 36.3579 7.98317 36.1695C8.09577 36.0911 8.19386 35.9816 8.19856 35.9199C8.20592 35.7529 8.2796 35.702 8.43466 35.7408ZM9.4543 49.2157C9.54553 49.3069 9.65177 49.4629 9.67557 49.5532C9.72424 49.7098 9.72008 49.7139 9.57543 49.6191C9.42663 49.5284 9.14208 49.1857 9.07371 49.026C9.03125 48.9088 9.26613 49.0275 9.4543 49.2157ZM20.2542 58.5209C20.3854 58.6521 20.3931 58.7926 20.2702 58.7445C20.153 58.702 20.0462 58.5122 20.1044 58.4541C20.1251 58.4334 20.1972 58.4639 20.2542 58.5209ZM74.5311 33.0847C74.6508 33.2045 74.6958 33.3989 74.617 33.4778C74.5422 33.5526 74.408 33.4017 74.3785 33.2145C74.346 33.0076 74.4056 32.9593 74.5311 33.0847ZM75.0712 44.4276C75.1412 44.4146 75.289 44.4378 75.4005 44.4746C75.5841 44.5419 75.6297 44.5875 75.9546 45.0951C76.4173 45.807 76.5443 46.0336 76.4944 46.0834C76.3616 46.2162 76.1141 46.2926 76.0457 46.2242C76.0058 46.1843 75.9006 46.0044 75.8209 45.8332C75.7033 45.5745 75.6188 45.4651 75.3202 45.2163C74.9988 44.9447 74.9558 44.8851 74.9263 44.6979C74.8891 44.4614 74.8974 44.4531 75.0712 44.4276ZM80.2098 39.4942L80.4246 39.4847L80.1194 39.7442C79.9114 39.9181 79.7972 40.0779 79.7519 40.2486C79.6667 40.5619 79.6018 40.6382 79.5724 40.451C79.4995 39.9878 79.8182 39.5095 80.2098 39.4942ZM73.1844 46.8503C73.3213 46.9872 73.3596 47.1085 73.3273 47.3004C73.3028 47.4504 73.2888 47.453 73.1292 47.2933C73.0265 47.1907 72.9644 47.0704 72.9758 46.9905C72.9925 46.7913 73.0761 46.742 73.1844 46.8503ZM74.854 45.979C74.9773 46.2435 75.0077 46.4981 74.919 46.4842C74.8444 46.4676 74.6937 46.0595 74.6881 45.8713C74.6923 45.6845 74.7405 45.7161 74.854 45.979ZM64.2699 57.9886C64.4036 58.1971 64.5154 58.5414 64.4671 58.6011C64.3857 58.6939 64.2281 58.4866 64.1551 58.206C64.0786 57.872 64.1305 57.7745 64.2699 57.9886ZM71.2222 51.5723C71.3252 51.8 71.2665 52.007 71.1083 51.9484C71.0207 51.9106 70.8198 51.3361 70.8562 51.2313C70.905 51.114 71.103 51.3037 71.2222 51.5723ZM60.5012 61.7345C60.5909 61.7246 60.6194 61.7531 60.6334 61.8418C60.6473 61.9305 60.6183 61.9596 60.5156 61.9482C60.2879 61.9364 60.2724 61.7466 60.5012 61.7345ZM81.8766 40.7126C82.0715 40.9739 82.1003 41.4012 81.9121 41.2131C81.8437 41.1447 81.6667 40.569 81.704 40.5317C81.7165 40.5192 81.7963 40.5991 81.8766 40.7126ZM68.1706 54.6239C68.2504 54.795 68.2208 54.8816 68.1036 54.8391C68.016 54.8013 67.9689 54.6546 68.0094 54.5456C68.0567 54.4185 68.0878 54.433 68.1706 54.6239Z"/>
</mask>
<path d="M36.5153 3.37235C36.6286 3.72653 36.5617 3.85053 36.2157 3.91141L35.9159 3.96034L36.0932 4.07953C36.2124 4.16556 36.2497 4.21948 36.2165 4.25269C36.1667 4.30252 35.5462 4.6037 35.182 4.76262C35.0871 4.80054 35.0315 4.93595 34.9987 5.18544L34.9409 5.55113L33.9491 6.5771C33.4042 7.14484 32.9496 7.6451 32.949 7.70267C32.9386 7.75869 32.7398 7.99168 32.4876 8.22108C32.2453 8.45203 31.9043 8.85004 31.7267 9.09599C31.4807 9.45609 31.3229 9.61385 30.996 9.8267C30.6873 10.0328 30.5088 10.2113 30.2721 10.5392C30.1029 10.7769 29.7639 11.2185 29.5184 11.521C29.2771 11.8194 29.0092 12.2241 28.9277 12.4083C28.8041 12.6915 28.7392 12.7678 28.5799 12.8244C28.3102 12.9117 27.635 13.5983 27.1963 14.2308C26.7343 14.8981 25.1059 16.4581 24.3161 16.997C23.8518 17.3131 23.6841 17.4693 23.395 17.8611C22.8401 18.6098 20.5903 20.9851 16.7884 24.8555L15.0602 26.6064L14.8585 26.5459L14.651 26.4796L14.6182 26.7291C14.588 26.9646 14.5231 27.0409 13.8563 27.6279C13.4614 27.9886 12.9866 28.3607 12.8014 28.4661C12.5145 28.6276 12.4081 28.7454 12.0769 29.2362C11.7981 29.6633 11.6268 29.8573 11.4624 29.942C11.107 30.1263 9.58528 31.7848 9.44296 32.1324C9.26428 32.5848 7.95294 33.7479 7.54523 33.8135C7.25112 33.8681 7.01347 34.0373 6.89092 34.2967C6.82964 34.4264 6.80163 34.4316 6.62847 34.3083C6.53048 34.2352 6.32566 34.155 6.18355 34.1374L5.91335 34.0997L5.78288 34.5837C5.67633 34.9753 5.61765 35.091 5.44643 35.1938C5.32814 35.2665 5.17142 35.4004 5.08424 35.4876C4.9986 35.5846 4.84139 35.6848 4.73244 35.7254C4.57318 35.782 4.5 35.8666 4.35254 36.1509C4.25284 36.3418 4.08152 36.6272 3.97147 36.7828C3.79394 37.0288 3.73687 37.0631 3.55535 37.0393C3.43711 37.0207 3.282 37.0732 3.17665 37.1671C3.02824 37.2927 3.00278 37.3752 3.03063 37.6438C3.08224 38.094 2.97629 38.3368 2.60268 38.6192C2.03451 39.0391 2.05371 39.0085 2.19621 39.2423C2.40918 39.5882 2.40602 39.6597 2.16683 39.8191C2.03763 39.9141 1.90787 40.0667 1.85385 40.2119C1.76606 40.448 1.7619 40.4521 1.42273 40.4036C1.24121 40.3798 1.01823 40.3063 0.927493 40.2488L0.765735 40.1368L0.842854 40.4132C0.908072 40.6445 0.88676 40.7228 0.749753 40.8598C0.596139 41.0135 0.595088 41.0373 0.734039 41.1265C1.23592 41.4457 1.40593 41.6406 1.72713 42.2773C2.03383 42.8829 2.06959 42.927 2.93159 43.8554C3.42971 44.3951 3.95269 45.0011 4.12214 45.2536C4.40769 45.6637 4.44916 45.7134 4.67679 45.8165C4.87331 45.9051 4.92878 45.9523 4.97849 46.085C5.02821 46.2178 5.08368 46.2649 5.24339 46.3333C5.39895 46.4058 5.48293 46.4815 5.60521 46.6785C5.73891 46.8869 5.82289 46.9626 6.12725 47.1258C6.78574 47.4937 6.98265 47.7985 7.12218 48.6854C7.17334 49.0106 7.28772 49.4322 7.36904 49.6131L7.52289 49.9496L7.93094 50.1916C8.15752 50.3186 8.74803 50.743 9.2395 51.1182C9.79785 51.552 10.2106 51.8236 10.3262 51.8562C10.4361 51.8831 10.7644 51.954 11.0616 52.0103C11.3587 52.0667 11.6802 52.1557 11.771 52.2132C11.8757 52.2681 12.1826 52.5999 12.5615 53.0535C13.0518 53.6352 13.2871 53.8788 13.6567 54.182C14.086 54.5282 14.1332 54.5837 14.2051 54.7968C14.2672 55.0084 14.2958 55.0369 14.498 55.1312C14.7567 55.2488 16.0449 56.5037 16.3817 56.9651C16.4921 57.117 16.7056 57.4053 16.8533 57.6111C17.0052 57.8128 17.1394 58.0549 17.1507 58.1576C17.1714 58.3194 17.1843 58.3407 17.3622 58.4023C17.5458 58.4696 17.5758 58.508 17.811 59.0255C18.0923 59.6223 18.4877 60.2419 18.7842 60.5384C19.0009 60.755 20.108 61.1647 20.4477 61.1556C20.567 61.1504 20.8045 61.1637 20.9845 61.1776C21.263 61.207 21.3195 61.2303 21.3521 61.346C21.3687 61.4207 21.3178 61.5856 21.2368 61.7122C21.1117 61.8944 21.1075 61.9898 21.1955 62.2439C21.342 62.6561 21.725 63.2882 22.0505 63.6469C22.3019 63.9315 22.3174 63.9387 22.4663 63.8469C22.6111 63.7591 22.6422 63.7736 22.9351 64.0167C23.1114 64.1598 23.4644 64.3883 23.7206 64.5199C24.1478 64.7312 24.209 64.7841 24.4453 65.0952C24.762 65.5198 27.1392 67.8638 27.6748 68.2748C27.8837 68.4422 28.3337 68.8589 28.6773 69.2109C29.1978 69.7396 29.3528 69.8697 29.6499 70.0174C29.9584 70.1764 30.0024 70.2122 30.0853 70.403C30.1418 70.5176 30.3398 70.7986 30.5243 71.0246C30.8902 71.457 32.1219 72.5973 32.6388 72.9814C33.0846 73.311 33.3101 73.553 33.3836 73.776C33.4452 73.9539 33.4851 73.9938 33.8952 74.2794C34.3152 74.5665 34.3836 74.6349 34.9387 75.3228C35.5125 76.0377 35.527 76.0688 35.4719 76.238C35.4225 76.4128 35.494 76.5922 35.577 76.5092C35.5978 76.4884 35.6875 76.4785 35.772 76.4966C35.91 76.5183 35.9328 76.5411 36.0271 76.7433C36.1519 77.0176 36.4557 77.3297 36.7274 77.4685C36.8788 77.5452 36.9373 77.6121 37.0042 77.7619C37.0767 77.9175 37.1337 77.9745 37.3178 78.0755C37.506 78.1724 37.5589 78.2336 37.6371 78.3949C37.7055 78.5546 37.7853 78.6344 38.0393 78.8137C38.2166 78.9329 38.5718 79.205 38.8263 79.418C39.0808 79.631 39.4982 79.9321 39.7377 80.0803C39.9944 80.2456 40.3568 80.5333 40.5947 80.7629C40.8269 80.9868 41.1758 81.3108 41.3806 81.4824L41.7476 81.7996L42.1685 81.3901C42.4965 81.0621 42.6578 80.9578 42.9291 80.8803C43.2705 80.7899 43.3078 80.7525 45.6136 78.4582C48.3179 75.7652 48.3843 75.6988 48.4903 75.456C48.5391 75.3388 48.618 75.2599 48.7077 75.25C48.9095 75.2193 51.0694 73.0365 51.1059 72.8404C51.1168 72.7268 51.1973 72.6578 51.4063 72.5514C51.6476 72.4356 51.7016 72.3816 51.7795 72.144C51.8548 71.9204 51.9114 71.8524 52.0624 71.8041C52.2232 71.7573 52.2574 71.7003 52.2929 71.4368C52.3194 71.2391 52.3916 71.0871 52.5042 71.0087C52.6459 70.9013 52.7034 70.9007 52.9119 71.0344C53.1882 71.2028 53.3127 71.1696 53.3471 70.9299C53.3887 70.7058 56.666 67.3487 57.2721 66.9251C57.6571 66.6542 57.7303 66.5696 57.8316 66.2972C57.9141 66.0892 57.9884 65.9807 58.0781 65.9708C58.2757 65.9443 58.4989 65.7439 58.8487 65.28C59.0636 64.9967 59.3781 64.7051 59.8238 64.362C60.543 63.8024 60.9624 63.2918 61.1894 62.6885C61.2907 62.4161 61.3364 62.3704 61.4863 62.346C61.632 62.3257 62.0062 61.9857 63.1977 60.7942C64.4682 59.5238 64.7624 59.1953 64.9732 58.8248C65.1129 58.5825 65.2998 58.3044 65.3953 58.2089C65.5738 58.0304 66.0043 57.8963 66.3529 57.9127C66.5271 57.9209 66.5868 57.8727 66.8707 57.5089C67.0457 57.277 68.2336 56.032 69.5108 54.7434L71.8327 52.3987L71.795 52.1285L71.7557 51.8485L71.9683 51.8867C72.1753 51.9193 72.2043 51.8902 74.0829 50.0572C75.1281 49.0348 76.2314 47.9543 76.5319 47.6653C76.9445 47.2641 77.1168 47.0462 77.2295 46.7852C77.4669 46.2171 77.5608 46.1118 77.9021 46.0214C78.4562 45.8779 78.8033 45.6106 79.3167 44.9033C79.6182 44.4991 79.9457 44.1374 80.2342 43.8945C80.6198 43.566 80.6956 43.4674 80.7772 43.1919C80.8416 42.9906 80.9169 42.8583 81.0051 42.8386C81.0736 42.8157 81.2043 42.7306 81.2915 42.6434L81.4591 42.4872L80.9675 42.3858C80.6942 42.3284 80.3965 42.2383 80.3016 42.185C79.8951 41.9528 79.6251 41.55 79.5704 41.0801C79.5307 40.7663 79.6194 40.7803 79.8463 41.1235C80.3941 41.9785 81.05 42.2691 81.7291 41.9435C82.2479 41.6984 82.44 41.3922 82.3641 40.9094C82.2912 40.4463 82.0456 40.0761 81.3976 39.4696C80.9461 39.043 80.8382 38.9684 80.4597 38.8224C79.9287 38.6235 79.8561 38.5592 79.8957 38.2916C79.9659 37.9134 79.3533 37.226 77.6063 35.7115C76.3756 34.6386 75.9915 34.213 75.3884 33.2196C75.0028 32.6016 74.8551 32.3958 74.6592 32.2496C74.3424 32.0076 74.3625 32.1357 74.7103 32.5748C75.0809 33.0367 75.0274 33.1244 74.5909 32.7626C74.2467 32.4682 74.0109 32.1909 73.9617 32.0005C73.9425 31.9399 73.6704 31.676 73.265 31.3287C72.4159 30.6042 71.4082 29.6048 69.0771 27.1575C67.5522 25.5578 67.0633 25.0773 66.4133 24.5185C65.9737 24.137 65.4086 23.6301 65.1577 23.3792C64.8099 23.0314 64.6352 22.8982 64.4459 22.8252C64.196 22.733 64.1846 22.7216 63.9613 22.3405C63.7742 22.0372 63.557 21.7868 62.9111 21.1327L62.0958 20.3173L62.0207 19.9931C61.9483 19.655 61.7975 19.4295 61.7466 19.5945C61.7305 19.6448 61.7107 19.733 61.6946 19.7833C61.665 19.8699 61.5385 19.7683 60.4727 18.8271C60.1254 18.5129 60.031 18.402 59.9134 18.1433C59.7943 17.8747 59.7414 17.8135 59.405 17.5684C59.1763 17.3978 58.5056 16.7686 57.6202 15.8749L56.2061 14.4608L56.185 14.174C56.1717 13.8452 56.0287 13.6689 55.9015 13.8075C55.82 13.9004 55.7718 13.8688 54.8858 13.124C54.2047 12.5507 53.6251 12.0127 52.7382 11.1092C51.4236 9.778 47.5022 5.95617 47.2637 5.78411C47.187 5.72399 46.992 5.64527 46.8369 5.60646L46.5481 5.54179L46.5311 5.25083L46.51 4.96402L46.0777 4.5981C45.8345 4.39648 45.694 4.2975 45.7541 4.37422C45.976 4.65417 45.7883 4.591 45.4803 4.2831C45.3093 4.11204 45.1875 3.94873 45.2083 3.92797C45.2332 3.90306 45.2995 3.92792 45.3509 3.97923C45.6754 4.27054 44.9181 3.39703 44.3593 2.83823C43.4283 1.89896 42.6518 1.23863 42.28 1.07443C41.9378 0.914883 41.3481 0.831716 41.2526 0.927204C41.2194 0.960417 41.0477 0.93822 40.8797 0.878152C40.1952 0.650338 39.6152 0.842579 39.1958 1.44447C39.0224 1.68627 38.9778 1.70808 38.7304 1.69318C38.3269 1.66334 38.1837 1.76093 38.0424 2.17594C37.9307 2.50432 37.899 2.54739 37.7502 2.54799C37.6309 2.55325 37.524 2.63734 37.3641 2.84282C37.1518 3.11213 37.1295 3.12303 36.8422 3.06822C36.4662 2.99946 36.4164 3.04928 36.5153 3.37235ZM38.634 4.19579C38.68 4.45769 38.8172 4.99339 38.9482 5.39839C39.2935 6.43292 39.3157 6.69588 39.0831 7.01966C38.9715 7.16547 38.8889 7.3735 38.8909 7.50835C38.8929 7.73449 38.8887 7.73863 38.7804 7.6303C38.5637 7.41362 38.5292 6.98056 38.6996 6.4452C38.7838 6.15573 38.8416 5.88133 38.8198 5.83466C38.8079 5.78955 38.6644 5.57957 38.5068 5.37219C38.2876 5.07824 38.2208 4.92838 38.2048 4.70485C38.1796 4.33091 38.2513 4.0539 38.4242 3.86967L38.5653 3.72851L38.634 4.19579ZM9.53566 33.2714C9.58128 33.317 9.58382 33.3943 9.53815 33.4399C9.45512 33.523 9.36749 33.4851 9.35304 33.3628C9.32873 33.2388 9.45013 33.1858 9.53566 33.2714ZM41.8369 1.31224C41.9542 1.26342 41.9951 1.27947 42.1568 1.48269C42.4274 1.82797 42.4076 1.91615 42.0741 1.87329C41.6914 1.82269 41.3793 1.51893 41.6081 1.41558C41.6569 1.38962 41.7601 1.3434 41.8369 1.31224ZM36.0319 7.72162C36.0801 7.75323 36.0879 7.8025 36.0505 7.83987C36.0132 7.87723 35.9442 7.86638 35.8929 7.81506C35.7959 7.71813 35.9044 7.6439 36.0319 7.72162ZM8.43466 35.7408C8.50933 35.7574 8.60162 35.8248 8.63063 35.887C8.71561 36.0301 8.39177 36.3539 8.0826 36.435C7.77343 36.5161 7.71491 36.3579 7.98317 36.1695C8.09577 36.0911 8.19386 35.9816 8.19856 35.9199C8.20592 35.7529 8.2796 35.702 8.43466 35.7408ZM9.4543 49.2157C9.54553 49.3069 9.65177 49.4629 9.67557 49.5532C9.72424 49.7098 9.72008 49.7139 9.57543 49.6191C9.42663 49.5284 9.14208 49.1857 9.07371 49.026C9.03125 48.9088 9.26613 49.0275 9.4543 49.2157ZM20.2542 58.5209C20.3854 58.6521 20.3931 58.7926 20.2702 58.7445C20.153 58.702 20.0462 58.5122 20.1044 58.4541C20.1251 58.4334 20.1972 58.4639 20.2542 58.5209ZM74.5311 33.0847C74.6508 33.2045 74.6958 33.3989 74.617 33.4778C74.5422 33.5526 74.408 33.4017 74.3785 33.2145C74.346 33.0076 74.4056 32.9593 74.5311 33.0847ZM75.0712 44.4276C75.1412 44.4146 75.289 44.4378 75.4005 44.4746C75.5841 44.5419 75.6297 44.5875 75.9546 45.0951C76.4173 45.807 76.5443 46.0336 76.4944 46.0834C76.3616 46.2162 76.1141 46.2926 76.0457 46.2242C76.0058 46.1843 75.9006 46.0044 75.8209 45.8332C75.7033 45.5745 75.6188 45.4651 75.3202 45.2163C74.9988 44.9447 74.9558 44.8851 74.9263 44.6979C74.8891 44.4614 74.8974 44.4531 75.0712 44.4276ZM80.2098 39.4942L80.4246 39.4847L80.1194 39.7442C79.9114 39.9181 79.7972 40.0779 79.7519 40.2486C79.6667 40.5619 79.6018 40.6382 79.5724 40.451C79.4995 39.9878 79.8182 39.5095 80.2098 39.4942ZM73.1844 46.8503C73.3213 46.9872 73.3596 47.1085 73.3273 47.3004C73.3028 47.4504 73.2888 47.453 73.1292 47.2933C73.0265 47.1907 72.9644 47.0704 72.9758 46.9905C72.9925 46.7913 73.0761 46.742 73.1844 46.8503ZM74.854 45.979C74.9773 46.2435 75.0077 46.4981 74.919 46.4842C74.8444 46.4676 74.6937 46.0595 74.6881 45.8713C74.6923 45.6845 74.7405 45.7161 74.854 45.979ZM64.2699 57.9886C64.4036 58.1971 64.5154 58.5414 64.4671 58.6011C64.3857 58.6939 64.2281 58.4866 64.1551 58.206C64.0786 57.872 64.1305 57.7745 64.2699 57.9886ZM71.2222 51.5723C71.3252 51.8 71.2665 52.007 71.1083 51.9484C71.0207 51.9106 70.8198 51.3361 70.8562 51.2313C70.905 51.114 71.103 51.3037 71.2222 51.5723ZM60.5012 61.7345C60.5909 61.7246 60.6194 61.7531 60.6334 61.8418C60.6473 61.9305 60.6183 61.9596 60.5156 61.9482C60.2879 61.9364 60.2724 61.7466 60.5012 61.7345ZM81.8766 40.7126C82.0715 40.9739 82.1003 41.4012 81.9121 41.2131C81.8437 41.1447 81.6667 40.569 81.704 40.5317C81.7165 40.5192 81.7963 40.5991 81.8766 40.7126ZM68.1706 54.6239C68.2504 54.795 68.2208 54.8816 68.1036 54.8391C68.016 54.8013 67.9689 54.6546 68.0094 54.5456C68.0567 54.4185 68.0878 54.433 68.1706 54.6239Z" fill="black" stroke="white" stroke-width="4" mask="url(#path-1-inside-1_982_3685)"/>
<path fill-rule="evenodd" clip-rule="evenodd" d="M28.208 20.9858C28.1543 21.0141 28.0293 21.1275 27.9302 21.2376C27.7634 21.423 27.7407 21.4336 27.6227 21.3798C27.4225 21.2885 26.968 21.3106 26.7187 21.4236C26.4309 21.5541 26.2962 21.6846 26.1471 21.9776C26.0488 22.1707 26.0288 22.2695 26.0459 22.4762C26.0737 22.8115 26.3578 23.3881 26.6479 23.6983L26.8685 23.9341L26.8366 23.3604C26.819 23.0432 26.8237 22.7866 26.8472 22.7866C26.8705 22.7866 27.006 22.9936 27.1483 23.2465C27.2906 23.4994 27.4364 23.7307 27.4723 23.7604C27.5455 23.8213 27.5554 23.7834 27.6484 23.0797C27.6786 22.8515 27.7107 22.6573 27.7198 22.6483C27.7622 22.6057 27.8439 22.8615 27.9438 23.3503C28.0039 23.6446 28.0691 23.9038 28.0887 23.9263C28.1082 23.9489 28.327 23.7292 28.5749 23.4381C29.183 22.7239 29.1862 22.7208 29.0964 22.9331C29.0566 23.0271 28.9209 23.3194 28.7949 23.5826C28.6671 23.8493 28.5787 24.0951 28.5951 24.1379C28.673 24.3409 29.2788 23.9797 29.656 23.5051C30.1443 22.8907 30.2075 22.2617 29.8198 21.874C29.6363 21.6905 29.4616 21.6668 29.1755 21.7863C29.0783 21.8269 28.9944 21.8544 28.9892 21.8473C28.9841 21.8403 28.9555 21.6832 28.9259 21.4984C28.8597 21.0862 28.7371 20.9305 28.4803 20.9326C28.3842 20.9335 28.2617 20.9573 28.208 20.9858ZM56.1706 21.3023C55.8121 21.4809 55.5078 21.7998 55.4297 22.0784C55.3787 22.2609 55.378 22.3681 55.4266 22.6312C55.5108 23.0879 55.6827 23.5435 55.7708 23.5435C55.8197 23.5435 55.9146 23.3355 56.0644 22.8997C56.1862 22.5457 56.302 22.2399 56.3216 22.2202C56.3413 22.2005 56.3575 22.5232 56.3576 22.9372L56.3579 23.69L56.6369 23.3726C56.7904 23.198 57.0644 22.9014 57.246 22.7134L57.5761 22.3716L57.4554 22.7675C57.3889 22.9852 57.3015 23.2571 57.261 23.3718C57.1688 23.633 57.1664 23.812 57.255 23.812C57.2921 23.812 57.5337 23.6591 57.7919 23.4721C58.3639 23.0577 58.457 23.0043 58.457 23.0901C58.4569 23.2091 58.1639 23.7719 57.9132 24.1345C57.775 24.3344 57.677 24.5131 57.6954 24.5315C57.7378 24.5739 58.3581 24.4182 58.6664 24.2879C58.9456 24.1698 59.2722 23.8189 59.315 23.591C59.3542 23.3818 59.3119 23.2577 59.1306 23.0512C59.0087 22.9125 58.976 22.8219 58.9448 22.5376C58.8984 22.1154 58.7956 21.99 58.2915 21.7415C57.8353 21.5166 56.8186 21.1769 56.5989 21.176C56.5035 21.1757 56.3108 21.2324 56.1706 21.3023ZM51.9226 21.2666C51.8422 21.3176 51.9347 21.4194 52.227 21.601C52.5985 21.832 52.8445 22.0624 52.9894 22.3152C53.1787 22.6451 53.1746 22.7261 52.9639 22.8142C52.7535 22.9021 52.7463 23.0009 52.9318 23.2554C53.2149 23.6437 53.8525 24.1988 54.1026 24.2747C54.2341 24.3146 54.4043 24.1895 54.4043 24.0528C54.4043 24.0055 54.2735 23.7068 54.1136 23.3889C53.9538 23.0711 53.8083 22.7496 53.7904 22.6745L53.7578 22.5379L53.9224 22.628C54.0186 22.6808 54.171 22.849 54.2894 23.0332C54.4008 23.2064 54.5466 23.4134 54.6135 23.493C54.7892 23.7027 54.8926 23.605 54.8926 23.229C54.8926 22.6796 54.6707 22.1896 54.2236 21.7513C53.9477 21.481 53.6683 21.3471 53.2321 21.2763C52.854 21.215 52.0139 21.2088 51.9226 21.2666ZM23.7688 22.8024C23.6994 22.8719 23.6426 22.9627 23.6426 23.0042C23.6426 23.0639 23.581 23.0796 23.3464 23.0796C22.9875 23.0796 22.8744 23.1341 22.7839 23.3505C22.6908 23.5735 22.6967 23.7162 22.8157 24.1159L22.9166 24.4547L22.7424 24.7076C22.5391 25.0028 22.4707 25.211 22.4707 25.5345C22.4707 25.956 22.6515 26.2126 23.1242 26.4617C23.3921 26.6029 24.0761 26.611 24.4726 26.4777C25.1315 26.2562 25.6465 26.0396 25.6302 25.9908C25.6205 25.9617 25.3506 25.8692 25.0304 25.7853C24.0293 25.5231 23.8696 25.4698 23.9232 25.4162C23.9504 25.3889 24.3163 25.3541 24.7361 25.3388L25.4995 25.311L25.1204 25.095C24.5156 24.7507 23.8867 24.3441 23.8867 24.2975C23.8867 24.2739 24.1986 24.3646 24.5798 24.4989C24.961 24.6333 25.307 24.7356 25.3488 24.7263C25.3996 24.715 25.2476 24.5359 24.8916 24.1876C24.5983 23.9007 24.37 23.6543 24.3842 23.6401C24.3984 23.6259 24.769 23.8792 25.2078 24.2031C25.6465 24.5271 26.0396 24.785 26.0813 24.7763C26.2055 24.7505 26.1509 24.373 25.974 24.035C25.6331 23.3838 24.7954 22.7691 24.1591 22.7034C23.9214 22.6789 23.8825 22.6888 23.7688 22.8024ZM30.2448 23.9503C30.1029 24.0009 29.8644 24.1266 29.715 24.2295C29.3494 24.4813 28.836 25.1155 28.9254 25.2049C28.9392 25.2188 29.4285 25.1185 30.0124 24.9822C30.5964 24.8458 31.1215 24.741 31.1792 24.7492C31.2413 24.7581 30.9653 24.8889 30.5029 25.0699C29.658 25.4005 29.5595 25.4484 29.6134 25.5022C29.6328 25.5217 30.0606 25.5459 30.5641 25.5561C31.5219 25.5756 31.7424 25.5971 31.6697 25.6645C31.6174 25.7128 31.1125 25.7845 30.0891 25.889C29.3832 25.9611 29.2593 25.983 29.3107 26.0266C29.3219 26.0361 29.7458 26.1365 30.2527 26.2498C31.244 26.4713 31.8569 26.6453 31.7628 26.6786C31.7307 26.69 31.4121 26.6655 31.0548 26.6242C30.6975 26.5829 30.1526 26.5359 29.8437 26.5197L29.2822 26.4901L29.4442 26.6296C29.859 26.9866 31.0456 27.5513 31.4907 27.6034C31.998 27.6629 32.7068 27.256 32.9453 26.7685C33.0409 26.5732 33.068 26.4615 33.0436 26.3639C32.9906 26.1515 32.7953 25.9309 32.5589 25.8165L32.3418 25.7114L32.4844 25.4404C32.8119 24.8177 32.6025 24.3288 31.8674 23.9999C31.5213 23.845 30.6173 23.8174 30.2448 23.9503ZM40.8057 24.0573C38.7023 24.2949 36.8468 25.1806 35.4415 26.6178C34.0886 28.0014 33.4512 29.5017 33.449 31.3072C33.4474 32.6057 33.6628 33.3694 34.4818 34.9693C34.798 35.5869 35.0721 36.1842 35.0907 36.2966C35.135 36.5632 35.0315 36.795 34.6258 37.3374C34.455 37.5657 34.276 37.8285 34.228 37.9215C34.1091 38.1515 34.119 38.4367 34.256 38.729C34.5046 39.2595 35.4551 39.9253 35.9639 39.9253C36.1215 39.9253 36.2521 39.8675 36.8404 39.5374C37.0698 39.4087 37.1942 39.3739 37.4995 39.3533C37.9792 39.3211 38.2594 39.3956 38.4772 39.6135L38.6449 39.7812L38.6107 40.2073C38.5386 41.1049 38.5388 41.1066 38.7293 41.2178C38.8226 41.2723 39.0314 41.4543 39.1932 41.6221C39.4569 41.8956 39.5076 41.9274 39.6827 41.9283C39.9096 41.9296 40.2281 42.0633 40.3616 42.2134C40.4443 42.3064 40.5036 42.3175 40.8987 42.314C41.1429 42.3119 41.5295 42.2932 41.7578 42.2724C42.1012 42.2412 42.2211 42.2504 42.452 42.3251C42.8124 42.4418 42.8411 42.4399 42.9822 42.289C43.1556 42.1036 43.2501 42.0654 43.6437 42.0212C44.081 41.9722 44.4992 41.7838 44.6447 41.5703C44.703 41.4846 44.8618 41.3137 44.9976 41.1905L45.2444 40.9665L45.1857 40.6478C45.1534 40.4725 45.1269 40.1845 45.1269 40.0078C45.1269 39.6219 45.237 39.4573 45.542 39.3868C46.0359 39.2728 46.5001 39.3617 46.966 39.6598C47.2796 39.8604 47.5773 39.9442 47.8319 39.9035C48.3064 39.8276 49.0088 39.2738 49.2537 38.7823C49.3453 38.5986 49.375 38.4616 49.375 38.2233C49.375 37.8807 49.3026 37.716 48.9282 37.2067C48.8261 37.0677 48.6932 36.8525 48.6329 36.7285C48.525 36.5064 48.5246 36.4984 48.6058 36.1888C48.6511 36.0159 48.9486 35.3521 49.2669 34.7136C49.8757 33.4924 50.0049 33.1319 50.138 32.2837C50.2481 31.5822 50.2058 30.5413 50.0412 29.9048C49.7115 28.6297 49.0524 27.5226 48.0128 26.4976C46.7251 25.228 45.0798 24.4188 43.1947 24.1281C42.5957 24.0358 41.329 23.9983 40.8057 24.0573ZM55.3621 24.2745C55.1003 24.3678 54.8045 24.6694 54.7401 24.9085C54.6205 25.3525 54.814 25.7663 55.2407 25.9789C55.9354 26.3251 56.6504 25.8786 56.6504 25.0985C56.6504 24.8248 56.6446 24.813 56.394 24.5706C56.1509 24.3354 55.8721 24.1995 55.6437 24.2048C55.5932 24.206 55.4664 24.2374 55.3621 24.2745ZM51.8019 24.3707C51.1628 24.5987 50.9106 25.0319 51.0346 25.689C51.0919 25.9927 51.0899 26.0081 50.9716 26.1648C50.9043 26.2538 50.8218 26.4199 50.7882 26.5338C50.7351 26.7132 50.7385 26.7663 50.8126 26.9308C50.9067 27.1394 51.2915 27.5352 51.5958 27.7363C51.9687 27.9827 52.1407 27.9126 52.9715 27.1751C53.2627 26.9166 53.6383 26.5917 53.8061 26.453C53.974 26.3145 54.1113 26.1932 54.1113 26.1836C54.1113 26.1739 54.0289 26.1852 53.9282 26.2086C53.6056 26.2835 53.5975 26.2602 53.846 25.9699C54.1517 25.6129 54.1046 25.6085 52.7441 25.8673C52.3279 25.9465 51.934 26.0233 51.8689 26.0378C51.7681 26.0604 51.7595 26.0534 51.8113 25.9911C51.8644 25.927 52.3745 25.714 52.9566 25.5128C53.06 25.477 53.1479 25.4258 53.1519 25.3989C53.1588 25.3523 52.725 25.1965 52.2559 25.077C52.0466 25.0237 52.0419 25.0188 52.1582 24.9741C52.2253 24.9484 52.6352 24.9345 53.0691 24.9434C53.5029 24.9522 53.8485 24.9443 53.8369 24.9256C53.777 24.8288 53.041 24.4208 52.8254 24.3649C52.5088 24.2828 52.041 24.2855 51.8019 24.3707ZM27.0428 24.6648C26.6956 24.7886 26.3807 25.2008 26.378 25.5348C26.3757 25.8269 26.6333 26.23 26.9141 26.3734C27.4726 26.6587 28.1823 26.3324 28.3284 25.7233C28.3856 25.4848 28.3817 25.4544 28.2615 25.2088C28.119 24.9176 27.8628 24.7082 27.5642 24.6388C27.3202 24.5822 27.2671 24.5848 27.0428 24.6648ZM55.4031 24.9573C55.2469 25.1134 55.2518 25.2042 55.4259 25.3783C55.5878 25.5402 55.6669 25.5524 55.8708 25.4469C56.114 25.3211 56.1253 25.0007 55.8903 24.8937C55.6971 24.8056 55.5333 24.827 55.4031 24.9573ZM58.1885 24.9147C57.8053 25.0072 57.6758 25.0507 57.6758 25.0866C57.6758 25.1584 57.9305 25.2636 58.557 25.4508C58.8914 25.5506 59.209 25.6562 59.2627 25.6853C59.347 25.7311 59.327 25.7426 59.1162 25.7696C58.9819 25.7867 58.6194 25.7898 58.3105 25.7764C58.0017 25.763 57.7662 25.7703 57.7872 25.7926C57.8081 25.815 58.0935 26.0213 58.4213 26.251C59.042 26.6861 59.2039 26.8834 58.8892 26.8212C58.7992 26.8034 58.5631 26.7119 58.3644 26.6178C58.1658 26.5238 57.9962 26.4538 57.9877 26.4624C57.9791 26.471 58.1141 26.6839 58.2876 26.9355C58.4612 27.1871 58.593 27.4033 58.5805 27.4158C58.5452 27.4511 58.3315 27.2975 57.9348 26.9515C57.7349 26.7772 57.5584 26.6475 57.5427 26.6633C57.5182 26.6877 57.7463 27.6437 57.8468 27.938C57.8971 28.0851 57.7445 27.8914 57.2778 27.2153C57.0169 26.8374 56.8634 26.6556 56.8319 26.6871C56.7553 26.7637 56.7232 28.496 56.7944 28.7117C57.0771 29.5685 58.3993 29.7369 58.7249 28.9575C58.7773 28.8321 58.8233 28.7925 58.9167 28.7925C59.1048 28.7925 59.488 28.6501 59.6708 28.5124C60.0026 28.2623 60.1117 27.7178 59.9272 27.2322L59.8349 26.9893L60.0005 26.863C60.3222 26.6176 60.4023 26.2258 60.2116 25.8316C60.0944 25.5896 59.6261 25.1377 59.363 25.0129C59.1835 24.9277 58.4042 24.8625 58.1885 24.9147ZM44.834 25.4056C46.7594 26.4317 47.153 26.7074 47.9644 27.5985C48.3186 27.9875 48.6176 28.2967 48.6288 28.2855C48.6601 28.2541 48.4073 27.7757 48.1903 27.4557C47.4956 26.4312 46.1691 25.5434 44.8584 25.2258C44.6435 25.1737 44.4348 25.1314 44.3945 25.1317C44.3542 25.1321 44.552 25.2553 44.834 25.4056ZM27.0641 25.3567C26.9345 25.5215 26.9368 25.5829 27.0786 25.7478C27.2968 26.0015 27.7441 25.8792 27.7441 25.5658C27.7441 25.2582 27.2589 25.109 27.0641 25.3567ZM54.5882 27.1568C54.4342 27.4522 54.2536 27.7818 54.1869 27.8892L54.0655 28.0845L54.064 27.815C54.0632 27.6667 54.1073 27.3838 54.1621 27.1862C54.2168 26.9885 54.2535 26.8188 54.2436 26.809C54.187 26.7523 52.5696 27.9843 52.3484 28.2526C52.0846 28.5727 52.1141 28.8551 52.4563 29.2873C52.6249 29.5002 53.0126 29.7691 53.1509 29.7691C53.2043 29.7691 53.367 29.6792 53.5125 29.5694C53.658 29.4595 53.7828 29.3771 53.7897 29.3863C53.7968 29.3954 53.8763 29.5118 53.9664 29.6451C54.329 30.1813 54.6023 30.4038 54.8983 30.4038C55.1006 30.4038 56.1039 29.945 56.2476 29.7869C56.403 29.6158 56.3876 29.3922 56.1811 28.8169C55.9827 28.2644 55.7643 27.5864 55.6491 27.1651C55.549 26.7993 55.4948 26.8397 55.2829 27.4382C55.0974 27.9617 54.9951 28.1789 54.9535 28.1372C54.9372 28.121 54.9114 27.7729 54.896 27.3636L54.8682 26.6197L54.5882 27.1568ZM25.4894 26.7645C25.1593 26.8483 24.8244 27.0645 24.471 27.4221C23.7868 28.1144 23.7552 28.6877 24.379 29.088C24.5471 29.1959 24.6603 29.3164 24.7385 29.4706C24.9298 29.8478 24.9475 29.8552 25.7422 29.8945C26.9289 29.953 26.9867 29.9426 27.3866 29.6004C27.8057 29.2416 27.9813 28.6169 27.8438 27.9742C27.661 27.1204 27.367 27.1632 27.2259 28.064C27.1862 28.317 27.1368 28.5899 27.1161 28.6704L27.0784 28.8169L26.9785 28.6216C26.9236 28.5142 26.83 28.2782 26.7705 28.0972C26.711 27.9162 26.6453 27.7576 26.6245 27.7448C26.6036 27.7319 26.514 27.8251 26.4253 27.9518C26.2289 28.2323 25.9833 28.4995 25.9218 28.4995C25.8509 28.4995 25.9223 28.2269 26.1373 27.6768C26.2459 27.3989 26.3246 27.1614 26.3121 27.1489C26.2996 27.1364 26.0107 27.3052 25.6701 27.5241C25.3295 27.743 25.0386 27.9099 25.0237 27.8949C24.9804 27.8517 25.1148 27.6756 25.5404 27.218C25.7588 26.9831 25.9375 26.7824 25.9375 26.772C25.9375 26.7198 25.6823 26.7155 25.4894 26.7645ZM29.2169 27.3565C29.3127 27.4884 29.5259 27.7814 29.6906 28.0077C29.8554 28.234 29.9902 28.4407 29.9902 28.4671C29.9902 28.4934 29.8423 28.3742 29.6614 28.2021L29.3326 27.8892L29.3015 28.1718C29.2843 28.3273 29.2584 28.4663 29.2439 28.4808C29.2294 28.4953 29.1572 28.4011 29.0833 28.2715C28.7553 27.6953 28.6224 27.4905 28.5048 27.3801L28.3789 27.2618V27.559C28.3789 27.9023 28.4851 28.504 28.5901 28.7552C28.6996 29.0173 28.9978 29.3206 29.2016 29.3772C29.2996 29.4044 29.6337 29.4268 29.944 29.427C30.4517 29.4272 30.5332 29.4148 30.7589 29.3023C30.9521 29.2061 31.0329 29.1296 31.1103 28.9695C31.3029 28.5716 31.2066 28.2478 30.81 27.9606C30.5739 27.7896 29.403 27.2072 29.1854 27.1526L29.0428 27.1168L29.2169 27.3565ZM57.0934 29.7892C57.0102 29.8894 57.0088 30.0198 57.084 30.665C57.1969 31.6343 57.0412 32.502 56.5921 33.4068C56.3703 33.8536 56.208 34.1282 56.1815 34.1017C56.1715 34.0916 56.217 33.8213 56.2828 33.501C56.4484 32.6928 56.5039 32.1894 56.5039 31.4939C56.5039 30.8073 56.4423 30.4516 56.3012 30.3239C56.2049 30.2367 56.2001 30.237 56.1304 30.3312C56.087 30.39 56.0706 30.4763 56.0888 30.5503C56.1503 30.8001 56.1737 32.6249 56.1199 32.9711C56.0037 33.7187 55.6061 34.8201 55.3355 35.1443C55.1384 35.3803 55.0562 35.2941 55.0151 34.8078C54.9684 34.2565 54.7949 33.9281 54.3015 33.4566C53.8918 33.0653 53.4235 32.7965 53.0196 32.7211L52.8312 32.6859L52.8645 32.851C52.8829 32.9418 52.9087 33.0546 52.922 33.1016C52.9529 33.2113 52.8387 33.2123 52.0861 33.1088C51.7732 33.0658 51.5036 33.0441 51.4871 33.0606C51.4706 33.0771 51.4921 33.164 51.535 33.2538C51.5907 33.3708 51.7773 33.5286 52.1934 33.8106C53.0495 34.3907 53.296 34.6968 53.0869 34.9194L52.981 35.0322L53.085 35.236C53.1422 35.3481 53.3937 35.6538 53.644 35.9154C54.1984 36.4946 54.2578 36.6014 54.2578 37.0179C54.2578 37.6214 54.0033 39.0025 53.6911 40.0929C53.4979 40.7677 53.1788 41.6343 53.1234 41.6343C53.0229 41.6343 53.1312 40.4274 53.3054 39.605C53.4026 39.1461 53.3986 38.9328 53.2907 38.8352C53.2122 38.7642 53.1912 38.7634 53.0994 38.8277C52.9326 38.9445 52.8506 38.8656 52.7249 38.4677C52.6134 38.1145 52.2502 36.785 52.186 36.4951C52.1697 36.4213 52.1356 36.3609 52.1102 36.3609C52.0289 36.3609 51.5742 36.9457 51.4236 37.2441C51.1945 37.698 51.1204 38.1012 51.1421 38.7779C51.1594 39.3154 51.1739 39.3916 51.3185 39.7004C51.4974 40.0825 51.8733 40.6317 51.9855 40.6747C52.0793 40.7107 52.0794 40.6351 51.9861 40.2183C51.8953 39.8128 51.8323 38.758 51.903 38.8267C51.9307 38.8535 52.034 39.0733 52.1327 39.315C52.2314 39.5567 52.3464 39.8077 52.3883 39.8727C52.4614 39.9863 52.4672 39.9874 52.5311 39.9C52.5949 39.8128 52.5976 39.8135 52.5976 39.9144C52.5976 40.1154 52.2511 42.3926 52.1761 42.6841C51.9949 43.3889 51.563 44.1438 50.957 44.8151C50.2727 45.5729 49.6118 46.102 48.5937 46.7065C47.2602 47.4984 46.9097 47.7255 45.8371 48.4927C44.3872 49.5297 44.0619 49.7917 43.4855 50.3863C42.9202 50.9696 42.6104 51.3626 42.285 51.9096L42.0508 52.3032V50.1515C42.0508 48.379 42.0378 47.9561 41.9774 47.7525C41.8822 47.4321 41.791 47.3509 41.6595 47.4699C41.47 47.6414 41.452 47.8397 41.4213 50.1049L41.3916 52.3011L41.1857 51.9604C40.7169 51.1846 39.8148 50.2296 38.8921 49.5323C38.3509 49.1233 37.2677 48.396 36.2891 47.7845C35.2711 47.1485 34.7173 46.7112 33.9162 45.9108C32.8751 44.8706 32.3304 44.0919 31.9944 43.1631C31.8445 42.7489 31.6992 42.0549 31.6992 41.7532C31.6992 41.5881 31.6158 41.3108 31.5776 41.349C31.5659 41.3607 31.5328 41.567 31.504 41.8074C31.4752 42.0479 31.4396 42.3222 31.4248 42.4171C31.4054 42.5419 31.434 42.6699 31.5285 42.8809C31.762 43.4024 31.769 43.4403 31.5958 43.2456C31.3161 42.9312 30.8046 42.1113 30.4525 41.413C29.8705 40.2589 29.4405 38.8041 29.2828 37.4566C29.1142 36.015 29.1591 35.883 30.0902 35.0875C30.4339 34.7938 30.7633 34.4755 30.8223 34.3801L30.9295 34.2066L30.8261 34.0965C30.7692 34.036 30.7226 33.9651 30.7226 33.9389C30.7226 33.9129 31.0413 33.5676 31.4307 33.1718C31.8201 32.7759 32.1387 32.4311 32.1387 32.4054C32.1387 32.3094 31.8776 32.2999 31.3209 32.3758C30.2921 32.5159 29.6929 32.7319 29.2648 33.1168C28.9472 33.4023 28.7805 33.6955 28.6897 34.1285C28.6161 34.4794 28.6328 34.9637 28.7204 35.0179C28.7433 35.0321 28.8111 34.972 28.8711 34.8844C29.0522 34.6199 29.3211 34.3589 29.4126 34.3589C29.46 34.3589 29.5763 34.2813 29.6712 34.1864C29.7661 34.0915 29.8437 34.0252 29.8437 34.039C29.8437 34.0529 29.7522 34.2129 29.6402 34.3947C29.5283 34.5764 29.3079 34.9953 29.1506 35.3256L28.8643 35.926L28.7211 35.824C28.5228 35.6829 27.8964 34.971 27.6463 34.6028C27.3714 34.198 27.0442 33.4935 26.9207 33.0406C26.8267 32.6956 26.7913 32.4639 26.6719 31.4097C26.6195 30.9469 26.5306 30.7456 26.3786 30.7456C26.2102 30.7456 26.1328 30.9315 26.1328 31.3361C26.1328 32.7683 26.8548 34.4828 27.9917 35.7505C28.5829 36.4096 28.56 36.364 28.6146 36.9956C28.657 37.4875 28.6947 37.6419 28.9184 38.2407C29.1201 38.7806 29.1788 39.0039 29.1976 39.3028C29.213 39.5468 29.2036 39.6812 29.1709 39.6812C29.1431 39.6812 28.9384 39.5242 28.7161 39.3324C28.262 38.9407 27.6259 38.5087 27.5059 38.5105C27.4231 38.5118 27.4392 38.5281 28.2664 39.2769C28.5103 39.4976 28.8305 39.8385 28.9778 40.0343C29.5014 40.73 29.9581 41.5883 29.8579 41.6885C29.8361 41.7103 29.5218 41.4974 29.1596 41.2153C28.7974 40.9332 28.3423 40.6235 28.1484 40.5269C27.8396 40.3731 27.739 40.3484 27.3392 40.3274C26.7279 40.2954 25.7422 40.4936 25.7422 40.6485C25.7422 40.6729 25.8795 40.783 26.0474 40.8931C26.2152 41.0032 26.5661 41.291 26.827 41.5326C27.088 41.7742 27.3652 42.0049 27.4431 42.0451C27.7554 42.2067 29.1113 42.2983 29.1113 42.1579C29.1113 42.071 28.7788 41.862 28.2324 41.6056C27.9773 41.4859 27.6807 41.3459 27.5732 41.2944L27.3779 41.2009L27.5498 41.1979C27.7917 41.1936 28.3806 41.3652 28.7368 41.5436C29.5246 41.9385 29.9038 42.3162 30.7664 43.5654C31.6186 44.7995 32.0601 45.3504 32.6896 45.9651C33.3072 46.5681 34.3211 47.3456 35.1912 47.8832C37.5326 49.3298 37.9861 49.6339 38.7236 50.2516C39.7905 51.1453 40.4761 52.0548 40.9513 53.2066C41.5792 54.7286 41.7115 54.9345 42.0018 54.8424C42.1855 54.7841 42.3371 54.4226 42.5141 53.6208C42.7636 52.49 42.9791 52.0828 43.8222 51.1502C44.7766 50.0942 45.5869 49.4682 47.4815 48.323C50.29 46.6257 50.8972 46.0777 52.6206 43.6851C53.5164 42.4415 53.7375 42.1701 54.3396 41.5759C55.1137 40.8117 55.5349 40.5215 56.195 40.2969C56.6004 40.1591 56.9919 40.0856 56.9189 40.1612C56.8921 40.1889 56.6203 40.3176 56.315 40.4469C56.0098 40.5763 55.7571 40.704 55.7535 40.7308C55.7499 40.7575 55.8533 40.8368 55.9831 40.9069L56.2192 41.0344L56.0188 41.1146C55.9085 41.1588 55.7961 41.1948 55.7689 41.1948C55.6363 41.1948 54.937 41.5029 54.9775 41.5435C55.0518 41.6178 55.9156 41.6954 56.3121 41.6634C56.72 41.6304 57.2335 41.5112 57.3096 41.4318C57.3426 41.3973 57.3228 41.3567 57.2485 41.3063C57.1881 41.2653 57.1387 41.2055 57.1387 41.1734C57.1387 41.1412 57.3895 40.9458 57.6961 40.739C58.0027 40.5322 58.3665 40.2394 58.5046 40.0883C58.7332 39.8381 59.0784 39.2609 59.0289 39.2114C59.0177 39.2002 58.7471 39.2662 58.4276 39.3582C58.1081 39.4502 57.561 39.583 57.2119 39.6535C56.8628 39.7239 56.3177 39.8501 56.0006 39.9337C55.2714 40.1261 55.2413 40.1063 55.5272 39.6223C55.9263 38.9467 56.2022 38.4357 56.2337 38.314C56.2584 38.2182 56.2025 38.2569 55.9745 38.4931C55.701 38.7764 55.2462 39.4268 54.7318 40.2699C54.501 40.6483 53.8954 41.3369 53.8411 41.2827C53.8245 41.266 53.9379 40.9373 54.0933 40.5523C54.3903 39.816 54.4135 39.6764 54.3319 39.1164C54.3024 38.9135 54.3235 38.7715 54.4491 38.3281C54.8743 36.8271 54.8452 36.1728 54.3064 35.1157C54.1559 34.8203 54.0165 34.5359 53.9967 34.4837C53.9631 34.3954 53.9667 34.3943 54.0482 34.4674C54.1021 34.5158 54.1848 34.5365 54.2635 34.5213C54.3649 34.5016 54.4129 34.5269 54.496 34.6436C54.5875 34.7721 54.7952 35.1979 55.0186 35.7154C55.1389 35.994 55.2203 35.9754 55.579 35.587C56.4424 34.6524 57.1882 33.3762 57.4984 32.3027C57.7097 31.5713 57.7917 30.574 57.675 30.1541C57.5795 29.8103 57.2483 29.6025 57.0934 29.7892ZM35.1334 30.9531C35.1496 31.0673 35.1977 31.3906 35.2403 31.6717C35.3034 32.0879 35.3074 32.2442 35.2619 32.5138C35.2312 32.6959 35.1871 32.8566 35.1641 32.8709C35.141 32.8851 35.0137 32.7363 34.8812 32.54C34.5993 32.1222 34.5005 32.0263 34.4273 32.0995C34.3919 32.1349 34.4364 32.2994 34.5728 32.6379C34.8237 33.2601 34.9115 33.6033 34.998 34.3006C35.0363 34.6098 35.0769 34.872 35.0881 34.8833C35.1196 34.9147 35.3257 34.5429 35.656 33.859C35.8863 33.3823 35.9626 33.1688 35.9829 32.9449C36.0174 32.5642 35.9282 32.1239 35.729 31.6918C35.5718 31.3507 35.1908 30.7456 35.1331 30.7456C35.1171 30.7456 35.1172 30.839 35.1334 30.9531ZM48.2658 31.0258C47.802 31.6898 47.6498 32.156 47.6738 32.8393C47.69 33.3036 47.6969 33.3281 47.9651 33.877C48.2692 34.4995 48.4752 34.8472 48.5397 34.8472C48.5631 34.8472 48.5975 34.655 48.6162 34.4199C48.663 33.8322 48.7672 33.3937 48.9942 32.8284C49.2173 32.2731 49.281 31.9896 49.1749 32.0247C49.1176 32.0438 48.7684 32.5273 48.5621 32.8733C48.5096 32.9614 48.5024 32.958 48.4486 32.8208C48.3427 32.5509 48.3336 32.0504 48.423 31.4103C48.4706 31.07 48.4989 30.781 48.4859 30.768C48.4729 30.755 48.3738 30.871 48.2658 31.0258ZM28.286 32.088C28.1465 32.2355 27.962 32.5046 27.876 32.6861C27.7343 32.9854 27.7197 33.0594 27.7197 33.48C27.7197 33.9222 27.729 33.9632 27.9188 34.3589C28.2484 35.0459 28.2612 35.0349 28.3006 34.0292C28.3228 33.4633 28.3699 32.9932 28.4361 32.6743C28.6031 31.8708 28.6114 31.8198 28.5747 31.8198C28.5554 31.8198 28.4254 31.9405 28.286 32.088ZM54.4043 32.0379C54.4043 32.0505 54.5234 32.3554 54.6689 32.7157C54.8145 33.0759 55.0037 33.5979 55.0894 33.8756L55.2452 34.3805L55.3596 34.2476C55.6704 33.8863 55.6345 33.22 55.2751 32.6775C55.068 32.3648 54.4043 31.8773 54.4043 32.0379ZM37.6447 33.7715C36.9338 33.9006 36.6256 34.124 36.3398 34.7174C36.0668 35.2841 35.9273 35.8483 35.9272 36.3853C35.9272 36.9162 36.0372 37.1876 36.372 37.4823C36.6755 37.7494 36.9839 37.8425 37.4788 37.8165C37.9395 37.7923 38.194 37.6813 38.9871 37.1583C39.5923 36.7592 40.0151 36.3649 40.3369 35.8995C40.7946 35.2373 40.8922 34.8549 40.6741 34.5776C40.5284 34.3925 39.7888 34.0504 39.2085 33.8998C38.6826 33.7634 37.9988 33.7072 37.6447 33.7715ZM44.4553 33.8952C43.6838 34.1274 43.102 34.4067 42.9563 34.6147C42.9143 34.6746 42.8809 34.8238 42.8809 34.9508C42.8809 35.4278 43.493 36.2846 44.2594 36.8802C44.5934 37.1397 45.4097 37.6283 45.7017 37.7435C45.9422 37.8384 46.5613 37.854 46.8546 37.7725C47.0931 37.7063 47.4829 37.3462 47.6178 37.0676C47.9223 36.4387 47.5546 34.7846 46.9834 34.2134C46.6304 33.8604 46.4358 33.8007 45.5908 33.7863C44.9302 33.7751 44.8189 33.7858 44.4553 33.8952ZM59.192 34.5094C58.9312 34.9645 58.4954 35.449 58.1292 35.6911C57.7562 35.9377 57.0304 36.312 56.9252 36.312C56.8332 36.312 56.797 36.2049 56.7961 35.9296C56.795 35.5933 56.7464 35.5424 56.5455 35.667C56.3324 35.799 55.6825 36.4579 55.4276 36.8003C55.0231 37.3438 54.5996 38.3951 54.5996 38.856C54.5996 39.1688 54.6971 39.0639 55.3074 38.0943C55.4088 37.9331 55.543 37.7401 55.6055 37.6653L55.7193 37.5292L55.6895 37.8484C55.6697 38.0602 55.6772 38.1675 55.7117 38.1675C55.7403 38.1675 55.9567 37.9577 56.1925 37.7013L56.6213 37.235L56.6973 37.3961C56.8188 37.6534 56.9308 37.6111 57.4812 37.0998C57.752 36.8483 57.9832 36.652 57.9948 36.6636C58.033 36.7018 57.4954 37.598 57.1951 37.9966C57.0332 38.2114 56.7321 38.574 56.5259 38.8023L56.151 39.2173L56.3291 39.2325C56.5707 39.2532 57.2163 39.0843 57.6057 38.8984C58.056 38.6835 58.4439 38.2885 58.6951 37.789C58.98 37.2222 58.9675 37.1354 58.6154 37.2364C58.5153 37.2651 58.457 37.2645 58.457 37.235C58.457 37.2092 58.5792 37.0098 58.7285 36.7918C59.2913 35.97 59.4515 35.5263 59.4553 34.7785C59.4569 34.4636 59.438 34.2397 59.4092 34.2307C59.3823 34.2224 59.2846 34.3478 59.192 34.5094ZM23.614 35.5116C23.5651 35.7722 23.6266 36.2303 23.7441 36.4802C23.8009 36.6011 23.9766 36.881 24.1344 37.1023C24.4049 37.4815 24.4173 37.511 24.3494 37.6146C24.2496 37.767 24.2567 37.8176 24.4257 38.1559C24.7238 38.7523 25.5205 39.3251 26.2091 39.4378C26.7116 39.5201 27.7466 39.4907 27.743 39.3943C27.7423 39.3775 27.5843 39.2429 27.3917 39.0952C26.8521 38.6813 25.9324 37.905 25.7422 37.703C25.5821 37.533 25.579 37.5239 25.6934 37.5582C25.7605 37.5784 26.0571 37.6997 26.3525 37.8279C27.0529 38.1315 27.0809 38.1356 27.1001 37.937L27.1153 37.7799L27.3778 37.9541C27.5221 38.0499 27.6636 38.1139 27.6922 38.0962C27.7207 38.0785 27.7446 37.983 27.7451 37.8839L27.7461 37.7036L28.0015 37.9738C28.1419 38.1223 28.3844 38.386 28.5403 38.5597L28.8238 38.8755L28.7976 38.6442C28.739 38.1245 28.146 37.2199 27.5326 36.7144C27.298 36.5211 26.7784 36.2693 26.4598 36.1945L26.3229 36.1624L26.3565 36.4595L26.3901 36.7567L26.2493 36.7254C25.413 36.5395 24.3851 35.9888 23.8904 35.4616C23.7289 35.2895 23.6531 35.3032 23.614 35.5116ZM31.5775 35.9824C31.566 36.016 31.5107 36.2917 31.4547 36.595C31.2644 37.6256 31.0808 38.0366 30.863 37.9201C30.711 37.8387 30.6307 37.8983 30.5029 38.1874C30.217 38.8337 30.1592 39.5147 30.332 40.1983C30.431 40.5899 30.9849 41.7808 31.068 41.7808C31.0929 41.7808 31.1128 41.7533 31.1122 41.7198C31.1092 41.5474 30.9097 40.7817 30.7996 40.5202C30.6575 40.1824 30.6358 39.9979 30.743 40.0391C30.8422 40.0771 30.8691 39.9688 30.8691 39.5319V39.1465L31.0084 39.1743C31.1989 39.2125 31.2976 39.0762 31.5341 38.4498L31.7236 37.9478L31.739 38.163C31.7574 38.4196 31.6374 38.9883 31.4726 39.4262C31.4071 39.6002 31.3642 39.753 31.3771 39.7659C31.39 39.7789 31.4657 39.7431 31.5453 39.6865C31.6248 39.6299 31.703 39.5835 31.7189 39.5835C31.7892 39.5835 31.7343 39.8217 31.5527 40.3034C31.2795 41.0284 31.2925 41.0992 31.6335 40.7432C32.298 40.0493 32.5762 39.4868 32.5775 38.8341L32.5781 38.5485L32.4072 38.6493L32.2363 38.7502V38.3308C32.2363 37.4996 32.0464 36.6042 31.7702 36.1328C31.6381 35.9074 31.6106 35.886 31.5775 35.9824ZM41.5881 36.962C41.18 37.388 40.6415 38.7491 40.5994 39.4614C40.573 39.906 40.6269 40.0969 40.8011 40.1762C41.0709 40.2992 41.3988 40.0668 41.6289 39.5895C41.7132 39.4146 41.8042 39.2651 41.831 39.2573C41.8579 39.2496 41.9684 39.4128 42.0766 39.6199C42.3682 40.1783 42.6754 40.3484 42.9562 40.1068C43.2017 39.8956 43.1699 39.3407 42.8576 38.3874C42.5554 37.4647 42.1287 36.7515 41.879 36.7515C41.83 36.7515 41.6991 36.8463 41.5881 36.962ZM39.674 37.9229C39.2631 38.0306 39.0497 38.1312 38.8647 38.3043C38.6025 38.5496 38.7419 38.6609 39.3259 38.6724C39.6879 38.6797 39.7227 38.6715 39.8128 38.5581C39.9684 38.3622 40.2361 37.8827 40.2063 37.853C40.163 37.8097 40.0489 37.8247 39.674 37.9229ZM39.5239 39.3897C39.426 39.4291 39.4141 39.4679 39.4141 39.7474C39.4141 39.9814 39.4373 40.0897 39.5058 40.1742L39.5974 40.2874L39.7307 40.0244C39.804 39.8798 39.8929 39.6795 39.9282 39.5795C39.9888 39.4077 39.9865 39.396 39.8863 39.3692C39.7456 39.3314 39.6564 39.3365 39.5239 39.3897ZM37.5904 40.1817C37.6225 40.4569 37.6505 40.9743 37.6525 41.3313C37.6561 41.9531 37.6613 41.9856 37.7761 42.1004C37.9746 42.2989 38.0357 42.2552 38.1727 41.8163C38.256 41.5496 38.2563 41.5221 38.1781 41.3036C38.1327 41.1767 38.0617 40.8091 38.0204 40.4868C37.9278 39.765 37.9225 39.7473 37.7889 39.7115C37.5261 39.6411 37.527 39.6389 37.5904 40.1817ZM45.7463 40.3037C45.7296 40.6461 45.6901 41.0534 45.6585 41.2087C45.6048 41.473 45.6097 41.5129 45.7344 41.831C45.8078 42.0179 45.8898 42.1844 45.9166 42.201C46.0559 42.2871 46.0791 42.1012 46.0791 40.8994V39.6812H45.9279L45.7768 39.6812L45.7463 40.3037ZM48.3979 41.2045C48.4194 41.2932 48.4728 41.5086 48.5164 41.6831C48.6444 42.1948 48.669 42.9193 48.571 43.2923C48.5255 43.4656 48.4544 43.6728 48.4131 43.7527L48.3381 43.8979L48.1287 43.6572C48.0136 43.5248 47.9051 43.4306 47.8875 43.4479C47.87 43.4651 47.8226 43.6739 47.7821 43.9117C47.6888 44.4601 47.6764 45.4439 47.7591 45.7359C47.8391 46.0185 47.9587 46.273 48.0115 46.273C48.166 46.273 48.5357 45.5661 48.8926 44.5884C49.0852 44.0606 49.108 44.0205 49.1215 44.1841C49.148 44.5042 48.9895 45.2376 48.7627 45.8439C48.6415 46.168 48.5517 46.4425 48.5631 46.4539C48.5945 46.4853 48.7722 46.2875 49.0547 45.9068C49.6871 45.0545 49.8684 44.6282 49.9015 43.9158C49.9202 43.5107 49.9064 43.3852 49.8103 43.0864C49.6865 42.7011 49.3415 42.1536 48.8051 41.4908C48.4268 41.0234 48.3389 40.9616 48.3979 41.2045ZM60.3631 41.6403C60.1183 42.6058 59.6316 43.6501 59.2083 44.1178C58.8052 44.5633 58.7816 44.5686 58.6341 44.2465C58.5649 44.0952 58.4793 43.9781 58.4381 43.9781C58.3334 43.9781 57.8143 44.4719 57.5479 44.825C57.1171 45.3962 57.0536 45.666 57.1666 46.4466C57.242 46.9677 57.2422 47.0413 57.1689 47.4416C57.1254 47.6794 57.0898 47.8988 57.0898 47.9292C57.0898 48.0693 59.1975 45.7416 59.5763 45.1831C59.6641 45.0537 59.7446 44.9564 59.7552 44.967C59.809 45.0208 59.5938 45.6212 59.3611 46.0669C58.9667 46.822 58.6029 47.3001 57.8574 48.043L57.1835 48.7144L57.3686 48.7151C57.7631 48.7167 57.693 48.795 57.1061 49.0085C55.9023 49.4464 55.6399 49.5547 55.3105 49.7498C54.9121 49.9858 54.9245 49.999 55.6233 50.084C56.6088 50.2038 57.8825 49.8892 58.5547 49.3599C58.8663 49.1146 59.2871 48.7025 59.2871 48.6428C59.2871 48.615 59.2047 48.5228 59.104 48.4379L58.9209 48.2834L59.6634 47.5574C60.247 46.9866 60.4317 46.7742 60.5267 46.5644C60.6521 46.2875 60.7912 45.71 60.7439 45.6627C60.729 45.6478 60.5484 45.7031 60.3425 45.7855C60.1367 45.868 59.9473 45.9225 59.9217 45.9066C59.896 45.8908 60.0045 45.6317 60.1628 45.3308C60.6347 44.4337 60.8455 43.5651 60.7756 42.8062C60.7391 42.4088 60.5369 41.5462 60.463 41.4723C60.4346 41.4439 60.3967 41.5075 60.3631 41.6403ZM45.0246 41.793C44.9496 42.0645 45.029 42.6681 45.1636 42.849C45.4927 43.2915 45.7638 42.6612 45.5202 42.02C45.3379 41.5402 45.1217 41.4412 45.0246 41.793ZM38.5161 41.8039C38.4198 41.9509 38.291 42.4282 38.291 42.6383C38.291 42.89 38.3858 43.0966 38.5163 43.1293C38.7484 43.1876 38.8424 43.0245 38.9252 42.42C38.9787 42.0289 38.9779 42.0227 38.8491 41.8538C38.6949 41.6517 38.6229 41.6409 38.5161 41.8039ZM44.2171 42.1603C44.0539 42.2925 43.9875 42.466 43.9887 42.7572C43.99 43.0767 44.0881 43.3304 44.2788 43.5072C44.4628 43.6778 44.5659 43.67 44.7656 43.4702C44.9174 43.3185 44.9316 43.2792 44.9316 43.0125C44.9316 42.3229 44.5615 41.8814 44.2171 42.1603ZM39.377 42.2349C39.2162 42.326 39.1317 42.4677 39.0489 42.7855C38.994 42.9962 38.9878 43.1134 39.0243 43.2489C39.0871 43.482 39.3416 43.7339 39.5144 43.7339C39.6691 43.7339 39.8776 43.5816 39.9715 43.4C40.0721 43.2055 40.1064 42.7607 40.036 42.5666C39.9329 42.2829 39.5939 42.1122 39.377 42.2349ZM23.4371 42.6776C23.3375 42.821 23.1955 43.1119 23.1215 43.3239C23.0005 43.671 22.987 43.7754 22.9869 44.3687C22.9868 44.9473 23.0038 45.0875 23.1261 45.5161C23.2028 45.7847 23.2759 46.0758 23.2885 46.1631C23.3108 46.3171 23.3062 46.3218 23.1352 46.3218C22.9322 46.3218 22.9375 46.2986 23.0298 46.7811C23.1489 47.4034 23.3711 47.7921 24.0516 48.5679C24.2282 48.7693 24.3732 48.9621 24.3739 48.9964C24.3745 49.0306 24.3222 49.0787 24.2577 49.1032C24.1932 49.1278 24.1266 49.1701 24.1097 49.1973C24.0717 49.2589 24.6091 49.6414 25.3614 50.0882C26.1306 50.545 26.6402 50.6532 27.3786 50.5168C27.6974 50.4578 28.0371 50.3349 28.0371 50.2785C28.0371 50.2584 27.7899 50.1941 27.4878 50.1355C26.7978 50.0018 26.1205 49.7991 26.1585 49.7377C26.1744 49.712 26.3756 49.6909 26.6057 49.6909H27.024L26.493 49.2888C25.254 48.3507 24.4668 47.3579 24.1101 46.284C23.9633 45.842 24.0518 45.8976 24.3722 46.4486C24.6093 46.8565 24.7857 47.0848 25.1265 47.4251C25.6455 47.9433 25.829 48.0784 25.887 47.9847C25.9083 47.9502 25.9411 47.7264 25.9598 47.4875C25.9785 47.2486 26.0113 47.0639 26.0329 47.0772C26.0544 47.0905 26.0981 47.2053 26.1301 47.3323C26.193 47.5819 26.4667 48.1922 26.5842 48.3444C26.6544 48.4356 26.6591 48.4344 26.7434 48.3057L26.8303 48.1732L26.9821 48.4433C27.4511 49.2786 28.2627 49.8838 29.348 50.2073C29.5804 50.2766 29.9484 50.3862 30.1658 50.4508C30.7857 50.635 30.9507 50.821 30.7017 51.0549C30.5983 51.152 30.5063 51.1719 29.9815 51.2101C29.6506 51.2343 29.1962 51.288 28.9717 51.3296C28.4492 51.4262 27.4973 51.7407 27.464 51.8277C27.433 51.9083 27.5035 52.0554 27.6711 52.2603L27.7957 52.4127L27.2938 52.7871C27.0178 52.9931 26.5469 53.3749 26.2473 53.6357C25.7835 54.0394 25.5846 54.1716 24.9084 54.5249C24.4716 54.7532 24.1125 54.9619 24.1103 54.9888C24.1043 55.0636 24.876 55.2092 25.4497 55.2413C26.4137 55.2953 27.078 55.1385 27.9019 54.6626C28.429 54.358 28.6679 54.2624 28.5987 54.3835C28.5773 54.421 28.5081 54.5216 28.4449 54.6071C28.3818 54.6926 28.3301 54.786 28.3301 54.8146C28.3301 54.8946 29.1432 54.8785 29.4755 54.792C30.1584 54.6141 30.7744 54.1204 31.1795 53.4263C31.4377 52.9839 31.5835 52.6351 31.5319 52.5836C31.5127 52.5643 31.3832 52.612 31.2441 52.6894C30.6094 53.0426 29.883 53.4017 29.8061 53.4004C29.7531 53.3995 29.8853 53.2456 30.1611 52.9873C30.5548 52.6186 30.5871 52.5755 30.4718 52.5738C30.2459 52.5703 29.5512 52.7986 28.7014 53.1553C28.2477 53.3458 27.8671 53.4923 27.8558 53.4809C27.8444 53.4696 27.9133 53.3977 28.0089 53.3212C29.2951 52.2926 31.7256 51.8251 34.0363 52.1619C37.6077 52.6825 41.1532 55.6253 41.7847 58.593C41.8831 59.0561 41.875 59.3507 41.7583 59.542C41.6343 59.7454 41.437 59.7622 41.366 59.5755C41.2851 59.3629 41.3123 59.17 41.4684 58.8462L41.6185 58.535L41.541 58.2321C41.4337 57.8134 41.2843 57.4905 41.2093 57.5151C41.1156 57.5459 40.9432 57.8227 40.8309 58.1228C40.7188 58.4223 40.4889 59.4566 40.4885 59.663C40.4881 59.8965 40.8823 60.0649 41.5617 60.1216L41.9406 60.1531L42.1379 59.9035C42.2464 59.7662 42.3732 59.5381 42.4195 59.3965C42.645 58.7082 42.9823 58.2539 43.4548 58.002C43.9754 57.7246 44.9292 57.5178 45.9428 57.4626L46.539 57.4302L46.2602 57.1965C45.829 56.835 45.3825 56.6515 44.6997 56.5551C44.4938 56.526 44.4922 56.5269 44.4922 56.6775C44.4922 57.1388 43.6322 57.5601 43.1738 57.3232C42.9397 57.2022 42.9315 57.0675 43.1438 56.8325C43.3506 56.6036 43.7015 56.4252 44.2673 56.2612C45.3335 55.9522 46.1801 55.991 47.4951 56.4093C48.105 56.6032 48.5189 56.83 49.2197 57.354C50.3518 58.2006 50.6581 58.3333 51.5657 58.3709C52.1489 58.3951 52.81 58.3269 52.8657 58.2367C52.879 58.2152 52.7088 58.1488 52.4874 58.0893C51.6208 57.8561 50.9523 57.5229 50.6255 57.1612C50.4943 57.0159 50.45 56.9168 50.4243 56.7102L50.3912 56.4454L49.9197 56.358C49.3474 56.2518 48.7552 56.069 48.6049 55.952C48.54 55.9015 48.4691 55.765 48.434 55.6227C48.3793 55.4012 48.3567 55.3739 48.1787 55.3138C47.8209 55.1933 46.7872 55.2677 45.9666 55.4731C44.6164 55.8111 44.3567 55.8046 44.1782 55.4285L44.0915 55.2459L43.8158 55.5114C43.1923 56.1118 42.6301 56.5365 42.5565 56.463C42.4705 56.377 43.4936 55.206 44.0413 54.7637C45.5799 53.5212 47.8211 52.6119 49.9121 52.382C50.4968 52.3177 52.7595 52.2169 53.5986 52.2178C54.1982 52.2184 54.8317 52.3115 55.0391 52.4295C55.0813 52.4535 54.684 52.4718 54.0991 52.4727C53.5418 52.4735 53.0859 52.4907 53.0859 52.5109C53.0859 52.5312 53.2315 52.5985 53.4095 52.6606C54.3184 52.9779 55.5896 53.6096 55.7993 53.8482C55.8753 53.9348 55.8783 53.95 55.8143 53.9268C55.7708 53.911 55.6351 53.883 55.5127 53.8647L55.2904 53.8313L55.3836 54.1903C55.4349 54.3878 55.4772 54.5556 55.4777 54.5633C55.4781 54.571 55.2597 54.3514 54.9922 54.0755C54.4405 53.506 54.3715 53.4925 54.4453 53.9678L54.4901 54.2564L54.2399 53.9634C53.4436 53.031 53.1277 52.8814 53.576 53.649C54.3191 54.9215 55.3095 55.6968 56.1916 55.6968H56.4062V55.4267C56.4062 55.0984 56.4626 55.0635 56.7555 55.2107C57.5136 55.5914 58.3584 56.3541 58.8918 57.1394C59.037 57.3531 59.177 57.5498 59.2031 57.5767C59.2751 57.651 59.2067 56.7494 59.1142 56.4048C59.0112 56.0215 58.6689 55.2995 58.4082 54.9156C57.9831 54.2897 57.1539 53.5341 56.4655 53.1456C56.3208 53.0639 56.1909 52.9671 56.1768 52.9304C56.1627 52.8937 56.2281 52.7699 56.322 52.6553L56.4927 52.4469L56.1994 52.1949C55.8517 51.8962 55.3886 51.645 54.917 51.4993C54.6431 51.4147 54.3748 51.3851 53.5664 51.3505C52.5341 51.3063 52.207 51.2435 52.207 51.0896C52.207 50.9882 52.6722 50.5832 52.9507 50.4421C53.0802 50.3764 53.4328 50.2222 53.7342 50.0993C54.9494 49.6038 55.6684 49.1488 56.1473 48.572C56.6085 48.0166 56.7581 47.6063 56.5637 47.4303C56.3226 47.2121 55.6535 47.3099 55.1475 47.6372C54.7757 47.8777 54.4579 48.2406 54.1221 48.8081C53.4861 49.8831 53.2234 50.0225 49.7412 51.133C47.123 51.9679 45.9132 52.5006 44.4588 53.4587C43.5062 54.0862 42.8397 54.7026 42.197 55.5503C42.0035 55.8054 41.8352 56.0097 41.823 56.0042C41.8107 55.9988 41.6219 55.7593 41.4033 55.4722C40 53.6292 38.0642 52.281 35.6299 51.4514C34.693 51.1321 33.9133 50.9536 32.3096 50.6914C31.4605 50.5526 30.7935 50.4167 30.5496 50.3328C29.7359 50.0531 29.0995 49.483 28.5505 48.5422C28.3074 48.1255 28.1074 47.8551 27.8544 47.6009C27.4979 47.2428 27.4023 47.2046 27.4023 47.4204C27.4023 47.4844 27.3761 47.553 27.3441 47.5727C27.2565 47.6268 26.824 47.1239 26.5766 46.6803C25.9457 45.5491 25.8214 45.3661 25.3955 44.9424C25.1593 44.7074 24.9433 44.5152 24.9155 44.5152C24.8876 44.5152 24.8025 44.6384 24.7264 44.789L24.5879 45.0628L24.383 44.8301C23.9745 44.3659 23.7559 43.7476 23.7064 42.916C23.6901 42.6407 23.6635 42.4158 23.6474 42.4161C23.6313 42.4164 23.5367 42.5341 23.4371 42.6776ZM35.8704 42.5742C35.3463 42.9208 34.6714 43.7387 34.4974 44.2383C34.4389 44.4064 34.4099 44.6294 34.4106 44.9058C34.4117 45.2787 34.4283 45.353 34.5744 45.6382C34.7615 46.0037 34.9937 46.3319 35.2129 46.5406C35.3574 46.6781 35.3727 46.6821 35.4944 46.6138C35.6731 46.5134 36.0261 45.9815 36.1179 45.6742C36.2325 45.2907 36.2821 44.8609 36.2419 44.5982C36.1951 44.2915 36.1351 44.2326 35.9759 44.337C35.7951 44.4555 35.7519 44.4372 35.7519 44.2421C35.7519 43.9918 35.9234 43.1854 36.065 42.7696C36.1313 42.5749 36.1687 42.4156 36.148 42.4156C36.1274 42.4156 36.0025 42.4869 35.8704 42.5742ZM43.2589 42.5173C43.1511 42.5801 43 42.8729 42.9281 43.1583C42.7862 43.722 43.2564 44.2242 43.6634 43.9437C43.7298 43.8979 43.8109 43.8265 43.8436 43.785C43.9168 43.6921 43.9244 43.0931 43.8555 42.845C43.7719 42.5441 43.4843 42.3861 43.2589 42.5173ZM37.5042 42.6419C37.462 42.6928 37.44 42.847 37.442 43.0775C37.4451 43.4285 37.4507 43.4439 37.7928 44.0374C37.984 44.3692 38.2164 44.8073 38.3092 45.0109C38.4945 45.4173 38.7424 45.7359 38.8736 45.7359C38.9199 45.7359 39.1094 45.6828 39.2947 45.618C39.5185 45.5398 39.6586 45.5146 39.712 45.5432C39.7561 45.5668 39.9071 45.7187 40.0474 45.8807C40.3423 46.2212 40.4369 46.2433 40.7679 46.0494L40.9828 45.9234L41.1241 46.0372C41.8125 46.591 41.8076 46.5881 41.9262 46.5138C41.9876 46.4754 42.1746 46.2845 42.3416 46.0899C42.5087 45.8952 42.6636 45.7359 42.6859 45.7359C42.7082 45.7359 42.8546 45.8455 43.0112 45.9796C43.1678 46.1136 43.3329 46.2235 43.3782 46.2237C43.4235 46.224 43.6098 46.0594 43.7922 45.8579C44.1665 45.4446 44.2622 45.4144 44.6455 45.5883C45.0651 45.7787 45.2101 45.7006 45.4596 45.1499C45.5386 44.9754 45.7604 44.5579 45.9524 44.2222C46.1444 43.8865 46.3143 43.5621 46.33 43.5013C46.3749 43.3277 46.3028 42.9679 46.1985 42.8449C46.1053 42.7349 46.1023 42.7346 46.0303 42.8277C45.9696 42.9062 45.8728 43.1369 45.7364 43.5284C45.7202 43.5747 45.6756 43.5628 45.5683 43.4834C45.3605 43.3299 45.2271 43.4064 45.0023 43.8085C44.8286 44.1191 44.8143 44.1317 44.6687 44.1046C44.5518 44.0828 44.4092 44.127 44.0527 44.2955C43.7976 44.416 43.5621 44.5148 43.5295 44.5149C43.4968 44.5151 43.3939 44.4788 43.3008 44.4344C43.1407 44.3581 43.1021 44.3595 42.5921 44.4612C42.1204 44.5552 42.0142 44.5615 41.7465 44.5118C41.5782 44.4805 41.1759 44.4403 40.8525 44.4224C40.3451 44.3943 40.2426 44.3742 40.1041 44.2756C39.9579 44.1715 39.9106 44.1641 39.569 44.1923L39.1943 44.2231L39.0309 43.9804C38.7901 43.6229 38.654 43.5056 38.4403 43.4715C38.2681 43.4439 38.2187 43.3992 37.9502 43.0273C37.7861 42.7999 37.6333 42.6024 37.6107 42.5885C37.5881 42.5745 37.5402 42.5986 37.5042 42.6419ZM40.507 42.6321C40.3176 42.7145 40.246 42.8997 40.2092 43.4024C40.1777 43.8317 40.2338 43.9685 40.4967 44.1045C40.6805 44.1995 40.9889 44.1727 41.1246 44.0499C41.1749 44.0043 41.2427 43.8487 41.275 43.704C41.3538 43.3521 41.27 42.9634 41.065 42.7299C40.9027 42.545 40.7632 42.5206 40.507 42.6321ZM41.9043 42.6264C41.5015 42.8368 41.5137 42.8127 41.5137 43.4001C41.5137 43.9146 41.5184 43.9382 41.6429 44.0536C41.8755 44.2693 42.3794 44.1792 42.5487 43.8918C42.6867 43.6576 42.7506 43.2011 42.6767 42.9789C42.5649 42.6428 42.1955 42.4743 41.9043 42.6264ZM53.1121 46.3096C52.8721 46.993 52.6888 47.2119 51.8303 47.8399C51.2495 48.2648 50.958 48.5368 50.8413 48.7632C50.717 49.0038 50.5022 50.3257 50.5873 50.3257C50.6914 50.3257 51.0961 49.8669 51.741 49.0179C51.9507 48.7417 52.1332 48.5266 52.1465 48.54C52.189 48.5824 51.8642 49.3306 51.6137 49.7676C51.4804 49.9999 51.3839 50.2025 51.3992 50.2177C51.4144 50.233 51.5635 50.1811 51.7304 50.1025C52.3989 49.7876 52.9206 49.0674 53.2845 47.9575C53.4277 47.5206 53.4449 47.4076 53.4483 46.8833C53.4519 46.3274 53.3835 45.9312 53.2838 45.9312C53.2625 45.9312 53.1852 46.1014 53.1121 46.3096ZM29.2585 46.8874C29.2599 47.8861 29.5457 48.6193 30.1788 49.2482C30.7037 49.7696 31.3114 50.0627 32.0619 50.1565C32.412 50.2002 32.3987 50.1645 31.9545 49.8693C31.46 49.5406 30.8881 48.9585 31.0596 48.9585C31.0856 48.9585 31.2896 49.0972 31.5129 49.2667C32.1255 49.7316 32.3738 49.8916 32.4048 49.8413C32.4463 49.7741 32.3017 49.3762 32.0797 48.947C31.81 48.4255 31.4603 48.1162 30.5762 47.6173L29.8682 47.2177L29.5996 46.8201C29.4519 46.6014 29.3146 46.4072 29.2944 46.3885C29.2743 46.3697 29.2581 46.5942 29.2585 46.8874ZM46.6621 46.6246C46.1385 47.0177 45.6501 47.5363 45.3812 47.9847C45.2864 48.1429 45.1079 48.7115 45.1422 48.7459C45.1702 48.7739 45.7892 48.3345 46.0385 48.1098C46.3739 47.8076 46.5601 47.5161 46.7151 47.0504C46.8781 46.561 46.8669 46.4708 46.6621 46.6246ZM36.8418 47.0338C36.8834 47.2903 37.0405 47.5866 37.2893 47.8782C37.5792 48.2178 38.3055 48.842 38.3289 48.7717C38.3664 48.659 38.1906 48.1883 38.0057 47.9064C37.8019 47.5958 37.5321 47.3205 37.152 47.0356C36.8539 46.8121 36.8058 46.8118 36.8418 47.0338ZM43.827 47.9192C43.3261 48.4132 42.9867 49.0193 42.6643 49.9951C42.4944 50.5097 42.4002 51.0098 42.4734 51.0087C42.5767 51.0071 43.7166 49.362 43.9004 48.9493C44.1428 48.4048 44.2894 47.6981 44.1688 47.6555C44.1388 47.6449 43.985 47.7636 43.827 47.9192ZM39.4413 48.3115C39.5041 49.0025 39.6264 49.2782 40.2374 50.106C40.6138 50.616 40.8706 50.9116 40.9373 50.9116C41.148 50.9116 40.6148 49.4527 40.159 48.7818C39.932 48.4478 39.5232 47.982 39.457 47.982C39.4302 47.982 39.4237 48.1182 39.4413 48.3115ZM34.0552 48.5206C33.7471 48.6444 34.0956 48.9383 34.7888 49.139C35.3775 49.3095 36.8261 49.6098 36.8649 49.5695C36.9262 49.5059 36.2384 48.9222 35.914 48.7625C35.4259 48.5222 34.3874 48.387 34.0552 48.5206ZM48.111 48.8386C47.6459 48.9395 47.3454 49.0471 46.8848 49.2777C46.3751 49.5328 45.5664 50.0594 45.5664 50.1363C45.5664 50.1767 45.6597 50.1832 45.896 50.1591C46.6151 50.0859 47.542 49.8256 48.1299 49.5319C48.5341 49.3299 49.1309 48.9117 49.1309 48.8303C49.1309 48.7409 48.5393 48.7457 48.111 48.8386ZM37.0251 50.8539C36.5973 50.984 37.2323 51.3181 38.2034 51.4738C38.4798 51.5181 38.8914 51.5851 39.1179 51.6227C39.3444 51.6604 39.5412 51.6797 39.5552 51.6657C39.6049 51.616 39.396 51.3001 39.2296 51.1732C38.8928 50.9162 38.6217 50.8493 37.8516 50.8329C37.4621 50.8247 37.0902 50.8341 37.0251 50.8539ZM44.7817 51.0725C44.4958 51.1541 44.1016 51.3845 44.1016 51.47C44.1016 51.5731 44.229 51.6 44.8584 51.6294C45.3163 51.6509 45.5134 51.6391 45.7605 51.5754C46.0836 51.4922 46.4941 51.2848 46.4941 51.2049C46.4941 51.0628 45.1734 50.9608 44.7817 51.0725ZM33.3712 52.5507C33.2128 52.6296 32.9769 52.8268 32.734 53.0834C32.3099 53.5315 32.0688 53.951 31.6987 54.8849C31.5774 55.1911 31.4002 55.5322 31.2803 55.6906L31.0722 55.9654L31.3153 55.9802C31.449 55.9884 31.6834 55.9592 31.8363 55.9152C32.3619 55.7642 32.7207 55.459 33.4227 54.5661C33.6266 54.3068 33.8166 54.0802 33.8449 54.0627C33.8785 54.042 33.8965 54.117 33.8965 54.2779C33.8965 54.4137 33.9096 54.5249 33.9256 54.5249C34.0126 54.5249 34.2767 54.2744 34.634 53.8527C34.8555 53.5913 35.1351 53.2744 35.2554 53.1484L35.4742 52.9193L35.3392 52.8854C35.0782 52.8199 34.4718 52.899 34.0507 53.0536C33.5879 53.2234 33.5947 53.1879 34.0986 52.8045L34.4364 52.5474L34.3007 52.4886C34.0601 52.3843 33.6501 52.4116 33.3712 52.5507ZM50.9008 53.0997C51.2839 53.4989 51.7489 54.1204 51.7006 54.1687C51.6904 54.1789 51.498 54.0534 51.2731 53.8899C51.0482 53.7262 50.5786 53.4528 50.2295 53.282C49.4783 52.9146 49.375 52.8782 49.375 52.9806C49.375 53.0863 49.6098 53.7256 49.7529 54.0096C49.9023 54.3061 50.3513 54.7849 50.6369 54.9524C50.8341 55.068 50.8661 55.0727 51.0931 55.0203L51.3372 54.964L51.6549 55.2552C51.8297 55.4153 52.0639 55.5903 52.1753 55.6439C52.4167 55.7601 52.793 55.8294 52.793 55.7577C52.793 55.7306 52.7404 55.5685 52.6761 55.3974C52.6119 55.2264 52.4883 54.8448 52.4016 54.5493C52.1846 53.8108 51.9724 53.3647 51.7418 53.1628C51.4956 52.9471 51.0233 52.728 50.7166 52.6871L50.4736 52.6547L50.9008 53.0997ZM46.2988 53.8383C46.1121 53.8956 45.6054 54.1602 45.4686 54.2719C45.3869 54.3386 45.3628 54.3879 45.3955 54.4211C45.4858 54.5129 46.5453 54.6714 47.0683 54.6714C47.7288 54.6714 48.6267 54.4561 48.5793 54.309C48.5546 54.2323 47.8004 53.9602 47.3629 53.87C46.9683 53.7887 46.5056 53.7749 46.2988 53.8383ZM36.5576 54.1065C36.0596 54.2473 35.6543 54.4694 35.6543 54.6015C35.6543 54.6889 35.7539 54.7134 36.3321 54.7685C36.8594 54.8188 37.842 54.766 38.2062 54.6679L38.3994 54.6159L38.2991 54.5092C38.244 54.4505 38.074 54.3267 37.9214 54.2343C37.6705 54.0823 37.6037 54.0648 37.2229 54.0518C36.9645 54.043 36.7074 54.0642 36.5576 54.1065ZM37.9557 55.4532C37.6309 55.5219 37.3269 55.6877 37.1023 55.9184L36.8994 56.1268L36.2891 56.149C35.2898 56.1854 34.6888 56.4391 33.5303 57.3134C32.5743 58.0347 32.4275 58.0908 31.3818 58.1342L30.6006 58.1666L30.8753 58.2997C31.3821 58.5452 31.8855 58.6405 32.5499 58.6163C33.082 58.597 33.1772 58.579 33.5245 58.4325C34.0646 58.2047 34.4866 57.911 34.5963 57.6865C34.6472 57.5825 34.7316 57.4925 34.7916 57.4783C34.8498 57.4646 35.293 57.3768 35.7764 57.2832C36.6088 57.1221 36.6888 57.0965 37.29 56.7986C37.6392 56.6256 38.0237 56.4575 38.1445 56.4252C38.4495 56.3435 39.217 56.3434 39.675 56.4251C40.11 56.5027 40.1703 56.4737 40.1228 56.2095C40.0692 55.9107 39.7803 55.6553 39.3451 55.5222C39.0448 55.4303 38.25 55.3908 37.9557 55.4532ZM39.0942 57.2715C39.1654 57.3856 39.3347 57.7052 39.4702 57.9818C39.7708 58.5948 39.8355 58.9863 39.6644 59.1574C39.4816 59.3402 39.4128 59.3057 39.134 58.892C38.5698 58.0546 37.9346 57.7105 37.0399 57.7575C36.5289 57.7843 36.2042 57.939 35.5322 58.4759C34.9418 58.9475 34.562 59.1441 34.0575 59.2391C33.5604 59.3328 33.4082 59.3969 33.4082 59.5125C33.4082 59.656 33.6244 59.7124 34.1894 59.7163C34.6544 59.7195 34.7681 59.7005 35.4101 59.5126C36.2781 59.2586 36.669 59.2229 37.3633 59.3344C37.6453 59.3796 37.9858 59.4271 38.1201 59.4399L38.3642 59.4631L38.1933 59.3115C38.0994 59.2281 37.8085 59.0564 37.5471 58.9298C37.2857 58.8032 37.0715 58.6801 37.071 58.656C37.0699 58.5905 37.6523 58.6581 37.876 58.7495C37.9834 58.7934 38.3386 59.0052 38.6653 59.2202C39.5155 59.7799 39.7818 59.7861 40.0741 59.2529C40.1961 59.0304 40.2167 58.9396 40.2165 58.6265C40.2161 58.0178 39.9222 57.541 39.3408 57.2057C38.9946 57.006 38.9379 57.0212 39.0942 57.2715ZM15.086 65.9852C15.1468 65.9969 15.2347 65.9965 15.2813 65.9843C15.328 65.972 15.2783 65.9625 15.1709 65.963C15.0635 65.9636 15.0253 65.9736 15.086 65.9852ZM15.6225 65.9867C15.7636 65.9966 15.9943 65.9966 16.1352 65.9867C16.2763 65.9768 16.1609 65.9688 15.8789 65.9688C15.5969 65.9688 15.4816 65.9768 15.6225 65.9867Z" fill="white"/>
</svg>
